<!--?xml version="1.0" standalone="no"?-->

<svg version="1.0" xmlns="http://www.w3.org/2000/svg" width="300.000000pt" height="300.000000pt" viewBox="0 0 300.000000 300.000000" preserveAspectRatio="xMidYMid meet">
<g transform="translate(0.000000,300.000000) scale(0.100000,-0.100000)" fill="#1C1C1C" stroke="none">
<path d="M1755 2951 c-431 -112 -692 -178 -889 -228 -121 -30 -238 -63 -261
-73 -59 -25 -109 -72 -134 -125 -21 -45 -21 -48 -21 -1096 0 -1172 -4 -1106
70 -1216 43 -65 111 -121 191 -157 55 -26 159 -56 190 -56 10 0 96 22 191 49
190 54 437 123 520 145 29 8 112 31 183 50 72 20 173 48 225 62 52 14 106 29
120 34 14 5 85 25 158 45 178 47 199 59 236 132 14 29 16 132 16 1065 0 1015
0 1034 -20 1066 -23 38 -59 55 -115 53 -30 -1 -76 16 -185 67 l-145 67 -6 43
c-4 30 -15 53 -37 74 -46 47 -101 46 -287 -1z m235 -49 c26 -21 22 -50 -11
-70 -17 -11 -330 -95 -549 -147 -60 -15 -510 -130 -657 -168 -51 -13 -104 -32
-119 -42 -23 -15 -26 -22 -21 -55 10 -77 86 -152 187 -187 82 -27 118 -20 765
168 77 22 163 47 190 54 240 64 380 102 498 136 75 21 148 39 162 39 36 0 54
-40 33 -72 -17 -25 -44 -35 -308 -108 -80 -22 -174 -48 -210 -59 -36 -11 -159
-45 -275 -76 -115 -32 -241 -66 -280 -77 -38 -11 -92 -26 -120 -33 -27 -7 -93
-26 -145 -40 -231 -66 -216 -64 -307 -44 -64 14 -95 27 -136 57 -105 78 -160
165 -161 257 -1 56 20 91 77 132 29 20 186 66 387 114 73 17 358 90 740 189
210 55 229 57 260 32z m-6 -142 c25 -10 46 -24 46 -30 0 -6 4 -9 8 -6 5 3 21
-2 36 -10 16 -7 35 -14 42 -14 8 0 17 -7 20 -15 4 -8 14 -15 23 -15 27 0 102
-40 96 -50 -4 -6 -14 -10 -23 -10 -9 0 -127 -32 -262 -71 -135 -39 -270 -77
-300 -85 -30 -8 -71 -20 -90 -25 -19 -6 -46 -13 -60 -16 -41 -8 -307 -82 -425
-118 -210 -63 -209 -63 -302 -13 -63 33 -104 68 -97 80 3 4 1 8 -4 8 -6 0 -15
15 -21 33 -10 28 -9 34 8 48 10 8 111 39 223 67 250 62 674 171 868 222 80 21
150 38 157 39 6 0 32 -8 57 -19z m496 -1220 c0 -1039 1 -1013 -48 -1039 -16
-8 -134 -42 -487 -140 -77 -21 -237 -66 -355 -99 -118 -33 -291 -81 -385 -107
-93 -26 -191 -53 -217 -62 -26 -8 -52 -12 -57 -8 -12 7 -15 1964 -3 1981 4 6
77 30 162 54 433 120 508 141 645 181 61 17 137 39 170 49 33 9 67 19 75 22 8
3 47 13 85 22 119 28 352 93 371 105 46 26 44 65 44 -959z m-1922 717 c37 -63
179 -157 237 -157 12 0 25 -4 30 -9 6 -5 21 -11 35 -13 l25 -3 1 -200 c3 -331
4 -1098 3 -1459 l-1 -338 -40 6 c-109 18 -240 109 -290 203 -30 56 -46 133
-28 133 9 0 9 4 2 13 -13 15 -13 75 0 83 4 3 4 13 -2 23 -6 12 -6 45 -1 87 5
39 5 76 0 86 -5 9 -9 264 -8 565 0 301 0 653 0 781 0 130 3 232 8 232 5 0 18
-15 29 -33z" id="node1" class="node"></path>
<path d="M1665 2221 c-17 -10 -39 -30 -48 -44 -21 -32 -23 -61 -3 -54 49 19
106 28 143 23 45 -6 49 -2 34 37 -22 58 -70 73 -126 38z" id="node2" class="node"></path>
<path d="M2076 2204 c-9 -22 -8 -24 12 -24 9 -1 35 -7 57 -15 21 -8 41 -13 42
-11 2 2 -4 17 -14 35 -15 26 -24 31 -54 31 -24 0 -39 -5 -43 -16z" id="node3" class="node"></path>
<path d="M2020 2068 c-31 -16 -52 -36 -68 -65 l-23 -43 -32 24 c-86 64 -159
73 -246 30 -41 -21 -62 -40 -89 -83 -32 -49 -37 -65 -40 -132 -3 -66 -1 -82
21 -126 102 -200 373 -167 428 52 10 41 14 46 33 40 92 -28 140 -22 190 23 58
54 71 134 35 209 -41 84 -127 113 -209 71z m144 -17 c52 -33 72 -81 68 -165
-2 -21 -16 -42 -47 -73 -39 -37 -51 -43 -89 -43 -64 0 -105 32 -127 100 -18
56 -17 84 8 133 31 62 125 86 187 48z m-325 -51 c82 -41 126 -122 118 -216
-12 -156 -157 -248 -287 -181 -68 34 -103 92 -108 177 -3 55 0 78 17 113 52
108 167 155 260 107z" id="node4" class="node"></path>
<path d="M2060 1915 c0 -9 5 -15 11 -13 6 2 11 8 11 13 0 5 -5 11 -11 13 -6 2
-11 -4 -11 -13z" id="node5" class="node"></path>
<path d="M1703 1804 c-3 -8 -1 -20 6 -27 14 -14 47 15 37 32 -10 16 -36 13
-43 -5z" id="node6" class="node"></path>
<path d="M1169 1656 c-41 -28 -74 -78 -83 -127 l-7 -34 15 31 c8 18 18 34 24
38 5 3 36 -19 68 -49 33 -31 90 -77 127 -102 45 -32 66 -52 62 -61 -44 -116
-75 -284 -75 -417 0 -244 98 -377 307 -416 74 -14 253 -4 353 19 l75 18 7 209
c5 153 12 239 28 314 29 143 38 156 125 182 99 31 196 70 193 79 -2 4 -30 32
-63 61 -57 52 -58 49 -7 -20 l23 -30 -28 -14 c-48 -25 -155 -54 -263 -72 -299
-51 -587 44 -847 280 -29 26 -53 53 -53 60 0 7 16 27 35 44 43 37 34 41 -16 7z
m344 -800 c30 -12 97 -77 97 -94 0 -4 4 -13 9 -20 6 -10 15 -6 39 16 65 61
143 53 220 -25 55 -54 101 -138 85 -154 -31 -31 -273 -47 -372 -24 -130 31
-207 100 -239 217 -8 29 -7 41 5 58 28 40 96 51 156 26z" id="node7" class="node"></path>
</g>
<g transform="translate(0.000000,300.000000) scale(0.100000,-0.100000)" fill="#A2A2A2" stroke="none">

<path d="M1730 2870 c-382 -99 -667 -172 -740 -189 -201 -48 -358 -94 -387
-114 -57 -41 -78 -76 -77 -132 1 -92 56 -179 161 -257 41 -30 72 -43 136 -57
91 -20 76 -22 307 44 52 14 118 33 145 40 28 7 82 22 120 33 39 11 165 45 280
77 116 31 239 65 275 76 36 11 130 37 210 59 264 73 291 83 308 108 21 32 3
72 -33 72 -14 0 -87 -18 -162 -39 -118 -34 -258 -72 -498 -136 -27 -7 -113
-32 -190 -54 -647 -188 -683 -195 -765 -168 -101 35 -177 110 -187 187 -9 62
-32 54 487 186 140 36 280 72 310 79 219 52 532 136 549 147 33 20 37 49 11
70 -31 25 -50 23 -260 -32z" id="node9" class="node"></path>
<path d="M1770 2740 c-194 -51 -618 -160 -868 -222 -112 -28 -213 -59 -223
-67 -17 -14 -18 -20 -8 -48 6 -18 15 -33 21 -33 5 0 7 -4 4 -8 -7 -12 34 -47
97 -80 93 -50 92 -50 302 13 118 36 384 110 425 118 14 3 41 10 60 16 19 5 60
17 90 25 30 8 165 46 300 85 135 39 253 71 262 71 9 0 19 4 23 10 6 10 -69 50
-96 50 -9 0 -19 7 -23 15 -3 8 -12 15 -20 15 -7 0 -26 7 -42 14 -15 8 -31 13
-36 10 -4 -3 -8 0 -8 6 0 11 -83 51 -103 49 -7 -1 -77 -18 -157 -39z" id="node10" class="node"></path>
<path d="M2436 2499 c-19 -12 -252 -77 -371 -105 -38 -9 -77 -19 -85 -22 -8
-3 -42 -13 -75 -22 -33 -10 -109 -32 -170 -49 -137 -40 -212 -61 -645 -181
-85 -24 -158 -48 -162 -54 -12 -17 -9 -1974 3 -1981 5 -4 31 0 57 8 26 9 124
36 217 62 94 26 267 74 385 107 118 33 278 78 355 99 353 98 471 132 487 140
49 26 48 0 48 1039 0 1024 2 985 -44 959z m-671 -276 c16 -16 35 -55 35 -73 0
-5 -19 -7 -43 -4 -37 5 -94 -4 -143 -23 -20 -7 -18 22 3 54 37 56 114 80 148
46z m408 -34 c10 -18 16 -33 14 -35 -1 -2 -21 3 -42 11 -22 8 -48 14 -57 15
-20 0 -21 2 -12 24 4 11 19 16 43 16 30 0 39 -5 54 -31z m7 -129 c36 -26 70
-95 70 -143 0 -76 -52 -146 -122 -165 -34 -9 -60 -7 -124 13 -19 6 -23 1 -33
-40 -55 -219 -326 -252 -428 -52 -22 44 -24 60 -21 126 3 67 8 83 40 132 27
43 48 62 89 83 87 43 160 34 246 -30 l32 -24 23 43 c45 82 155 109 228 57z
m-995 -411 c-19 -17 -35 -37 -35 -44 0 -7 24 -34 53 -60 260 -236 548 -331
847 -280 108 18 215 47 263 72 l28 14 -23 30 c-51 69 -50 72 7 20 33 -29 61
-57 63 -61 3 -9 -94 -48 -193 -79 -87 -26 -96 -39 -125 -182 -16 -75 -23 -161
-28 -314 l-7 -209 -75 -18 c-100 -23 -279 -33 -353 -19 -158 29 -258 120 -292
263 -17 73 -19 212 -5 313 9 59 46 207 65 257 4 9 -17 29 -62 61 -37 25 -94
71 -127 102 -32 30 -63 52 -68 49 -6 -4 -16 -20 -24 -38 l-15 -31 7 34 c9 49
42 99 83 127 50 34 59 30 16 -7z" id="node11" class="node"></path>
<path d="M2023 2050 c-60 -36 -79 -102 -54 -180 22 -68 63 -100 127 -100 38 0
50 6 89 43 46 44 51 61 46 132 -9 99 -123 157 -208 105z m59 -135 c0 -5 -5
-11 -11 -13 -6 -2 -11 4 -11 13 0 9 5 15 11 13 6 -2 11 -8 11 -13z" id="node12" class="node"></path>
<path d="M1696 2005 c-49 -17 -90 -57 -117 -112 -32 -66 -24 -167 16 -225 112
-161 346 -86 362 116 6 69 -8 112 -52 164 -55 65 -129 86 -209 57z m50 -196
c10 -17 -23 -46 -37 -32 -7 7 -9 19 -6 27 7 18 33 21 43 5z" id="node13" class="node"></path>
<path d="M1394 860 c-38 -15 -53 -47 -42 -88 32 -117 109 -186 239 -217 99
-23 341 -7 372 24 16 16 -30 100 -85 154 -77 78 -155 86 -220 25 -24 -22 -33
-26 -39 -16 -5 7 -9 16 -9 20 0 17 -67 82 -97 94 -36 16 -87 17 -119 4z" id="node14" class="node"></path>
<path d="M521 2058 c0 -128 0 -480 0 -781 -1 -301 3 -556 8 -565 5 -10 5 -47
0 -86 -5 -42 -5 -75 1 -87 6 -10 6 -20 2 -23 -13 -8 -13 -68 0 -83 7 -9 7 -13
-2 -13 -18 0 -2 -77 28 -133 50 -94 181 -185 290 -203 l40 -6 1 338 c1 361 0
1128 -3 1459 l-1 200 -25 3 c-14 2 -29 8 -35 13 -5 5 -18 9 -30 9 -58 0 -200
94 -237 157 -11 18 -24 33 -29 33 -5 0 -8 -102 -8 -232z" id="node15" class="node"></path>
</g>
</svg>