<!--?xml version="1.0" standalone="no"?-->

<svg version="1.0" xmlns="http://www.w3.org/2000/svg" width="300.000000pt" height="300.000000pt" viewBox="0 0 300.000000 300.000000" preserveAspectRatio="xMidYMid meet">
<g transform="translate(0.000000,300.000000) scale(0.100000,-0.100000)" fill="#343434" stroke="none">
<path d="M874 2909 c25 -79 40 -139 35 -144 -4 -3 -39 15 -79 39 -40 25 -96
53 -124 63 -89 31 -276 20 -276 -16 0 -4 24 -24 53 -44 28 -21 66 -50 82 -65
30 -27 75 -85 75 -95 0 -3 -24 8 -53 24 -29 15 -79 35 -112 44 -100 26 -248
16 -282 -18 -13 -13 -7 -20 55 -57 80 -47 102 -67 81 -74 -128 -43 -169 -60
-216 -88 -65 -39 -113 -90 -113 -120 0 -18 4 -20 37 -14 21 4 60 9 88 13 l50
6 -55 -44 c-75 -61 -123 -154 -90 -174 6 -3 41 6 78 21 106 42 163 56 181 41
20 -16 64 -117 89 -202 21 -72 37 -189 28 -204 -3 -4 -33 -2 -68 5 -114 25
-216 -11 -263 -90 -71 -121 15 -231 180 -230 71 0 160 29 186 60 18 22 35 17
97 -25 31 -21 69 -46 85 -55 23 -14 27 -23 27 -60 0 -76 68 -376 91 -400 5 -6
9 -18 9 -28 0 -12 8 -18 24 -18 32 0 34 -13 24 -159 -5 -68 -7 -130 -4 -137 3
-8 19 -14 35 -14 26 0 33 -7 54 -52 50 -107 59 -146 46 -207 -6 -31 -24 -84
-40 -117 -31 -66 -35 -89 -19 -99 6 -3 10 -20 10 -36 0 -26 6 -33 45 -50 68
-30 214 -43 335 -30 92 10 180 34 180 50 0 3 43 7 95 8 152 4 193 32 180 123
-5 35 -15 56 -36 76 -28 27 -36 29 -107 29 l-77 -1 -1 116 c-1 65 -9 143 -17
180 -15 60 -15 66 0 78 9 6 23 12 30 12 23 0 14 24 -32 85 -25 33 -48 70 -51
82 -6 23 32 103 49 103 16 0 171 -40 255 -66 46 -15 87 -22 91 -18 4 5 18 36
30 69 30 76 79 165 92 165 5 0 21 -7 34 -16 16 -10 34 -14 50 -10 14 4 43 1
64 -5 42 -13 81 0 81 26 0 10 11 15 32 15 17 0 39 7 49 16 25 23 64 11 102
-31 50 -55 58 -56 440 -47 68 2 68 2 83 37 18 45 6 96 -32 136 -23 24 -26 34
-22 74 4 32 16 59 37 86 47 57 56 91 37 130 -15 31 -15 32 14 62 53 55 58 131
11 181 -17 18 -19 28 -12 59 11 45 -1 101 -28 138 -25 33 -26 39 -7 39 46 0
116 103 116 170 0 119 -134 221 -248 190 -67 -18 -91 -75 -57 -140 14 -28 14
-30 -7 -41 -12 -7 -78 -16 -146 -20 -168 -11 -211 -38 -212 -132 0 -48 21 -89
60 -117 32 -22 39 -40 17 -40 -19 0 -80 -47 -94 -73 -20 -35 -15 -70 16 -119
26 -41 28 -48 15 -59 -25 -20 -44 -65 -44 -102 0 -33 36 -93 65 -110 11 -6 15
-26 15 -72 l0 -65 -63 0 c-60 0 -65 2 -88 33 -13 17 -29 44 -36 60 -30 69
-188 62 -263 -13 -33 -33 -44 -37 -103 -43 -95 -9 -107 -17 -107 -75 0 -68 7
-74 70 -66 l52 7 -18 -29 c-35 -55 -66 -94 -73 -90 -4 3 -45 9 -91 15 -163 21
-150 14 -147 73 l2 51 -50 20 c-107 42 -241 101 -259 113 -17 11 -12 14 40 29
166 47 282 100 386 177 125 92 179 187 179 314 0 67 -4 86 -31 139 -64 127
-238 325 -400 456 l-45 37 36 103 c20 57 40 112 44 122 18 43 -125 -4 -176
-59 l-21 -23 -31 61 c-36 70 -117 157 -167 180 -19 9 -60 20 -89 24 -54 7 -54
7 -47 -17z m117 -52 c79 -49 141 -119 181 -204 11 -24 26 -43 33 -43 7 0 26
15 42 33 31 35 92 82 98 75 3 -2 -9 -36 -25 -74 -16 -38 -30 -77 -30 -86 0
-11 -8 -18 -20 -18 -28 0 -25 -16 8 -37 64 -42 176 -139 254 -222 147 -156
234 -311 225 -396 -7 -58 -44 -149 -80 -197 -53 -69 -204 -162 -372 -231 -111
-45 -311 -60 -447 -32 -148 30 -366 143 -351 181 8 21 -7 17 -67 -19 -105 -63
-198 -81 -268 -52 -83 35 -102 85 -59 160 30 53 65 69 157 68 63 0 84 -5 130
-29 30 -16 58 -30 63 -32 13 -6 7 35 -7 47 -9 8 -15 48 -19 139 -4 102 -10
142 -31 201 -38 110 -90 181 -131 181 -11 0 -59 -16 -105 -35 -46 -19 -87 -35
-91 -35 -33 0 91 137 148 163 12 5 23 16 23 24 0 15 -55 17 -133 4 -26 -4 -47
-6 -47 -5 0 9 51 48 95 72 51 29 107 50 181 71 78 21 75 33 -22 98 l-87 58 49
6 c110 13 242 -18 346 -81 25 -16 48 -27 51 -24 11 12 -14 109 -35 132 -27 30
-95 95 -123 117 -19 15 -15 16 57 11 64 -4 91 -11 161 -46 47 -23 114 -61 149
-85 l63 -45 3 70 c2 44 -2 81 -12 104 -18 43 -8 46 45 13z m1886 -521 c26 -18
50 -45 64 -73 21 -43 21 -45 4 -86 -10 -23 -30 -54 -45 -68 -30 -30 -93 -54
-118 -44 -31 12 -191 24 -219 16 -25 -7 -21 -9 27 -15 154 -20 203 -30 227
-49 30 -24 53 -74 53 -115 0 -53 -24 -62 -171 -70 -177 -9 -172 -28 6 -24 73
2 141 -1 156 -6 14 -6 32 -25 39 -42 12 -28 11 -37 -8 -76 -24 -48 -28 -50
-139 -58 -79 -5 -153 -24 -153 -39 0 -5 14 -7 33 -3 65 12 156 18 181 12 25
-6 56 -50 56 -80 0 -8 -11 -27 -24 -43 l-24 -28 -193 2 c-214 3 -252 11 -282
63 -29 49 -19 101 27 145 18 17 34 20 118 20 92 0 117 6 84 18 -8 3 -57 9
-110 13 -107 8 -126 19 -126 79 0 75 58 105 213 113 59 3 110 8 112 12 3 4
-20 10 -50 14 -30 3 -80 9 -111 12 -68 8 -106 37 -130 100 -14 38 -15 48 -4
69 17 31 55 42 180 50 113 8 155 19 175 48 20 29 19 54 -5 84 -25 32 -25 38 1
64 29 29 99 22 156 -15z m-2095 -942 c57 -20 100 -26 199 -31 l127 -6 45 -91
c56 -111 170 -304 243 -409 30 -43 57 -83 60 -91 5 -14 -64 -36 -201 -61 -71
-13 -145 -20 -145 -12 0 2 -104 255 -117 284 -3 7 6 17 21 23 14 5 26 13 26
17 0 16 -132 273 -140 273 -8 0 7 -47 59 -178 12 -29 21 -59 21 -66 0 -16
-101 -46 -157 -46 l-40 0 -17 58 c-10 31 -22 71 -27 87 -25 74 -50 275 -35
275 2 0 37 -12 78 -26z m1349 16 c25 -14 24 -43 -3 -74 -23 -25 -36 -30 -70
-27 -23 1 -23 29 -1 53 22 24 10 34 -18 15 -13 -10 -33 -14 -49 -10 -15 3 -38
0 -51 -7 -24 -11 -24 -11 1 9 51 42 149 63 191 41z m313 1 c16 -6 20 -19 22
-89 2 -47 -1 -82 -7 -82 -5 0 -9 31 -9 69 0 39 -4 73 -10 76 -6 4 -10 -21 -10
-66 0 -99 -23 -78 -28 26 -4 79 -2 83 42 66z m109 -72 c6 -72 2 -103 -14 -93
-5 3 -9 32 -9 64 0 32 -4 62 -10 65 -11 7 -14 -16 -10 -87 1 -30 -2 -48 -9
-48 -6 0 -11 17 -12 38 0 20 -3 58 -5 85 l-5 47 34 0 34 0 6 -71z m87 -9 c0
-47 -4 -80 -10 -80 -5 0 -10 24 -11 53 -1 82 -17 105 -18 25 -1 -37 -5 -70
-11 -73 -6 -4 -10 23 -10 74 l0 81 30 0 30 0 0 -80z m36 19 c-3 -34 -6 -74 -7
-88 l-1 -26 -7 25 c-10 36 -1 150 11 150 7 0 9 -21 4 -61z m121 49 c-2 -7 -10
-45 -17 -85 -15 -84 -29 -90 -20 -9 10 90 -11 103 -25 16 -16 -109 -35 -109
-35 -1 l0 80 43 4 c23 2 46 4 51 5 4 1 6 -4 3 -10z m-1564 -92 c124 -56 146
-65 171 -72 39 -9 40 -21 8 -62 -17 -20 -40 -59 -53 -85 -21 -43 -39 -61 -39
-37 0 5 -18 39 -40 74 -32 53 -92 163 -108 199 -6 12 6 8 61 -17z m757 4 c0
-11 9 -28 20 -37 21 -18 27 -76 11 -102 -12 -18 -48 -8 -86 23 -30 25 -30 25
-6 26 13 0 30 -8 37 -17 12 -17 13 -17 20 0 4 10 0 43 -8 73 -13 45 -13 54 -2
54 8 0 14 -9 14 -20z m223 -22 c23 -46 14 -91 -16 -86 -16 2 -23 13 -30 43 -9
47 -2 88 16 83 7 -2 20 -20 30 -40z m-283 17 c0 -20 -68 -24 -147 -10 -64 11
-32 25 57 25 73 0 90 -3 90 -15z m465 -49 c8 -18 21 -36 29 -39 25 -10 301
-20 349 -13 37 6 46 11 49 29 l3 22 14 -23 c7 -13 10 -26 7 -29 -13 -13 -200
-24 -305 -19 -91 5 -119 10 -141 26 -35 25 -109 52 -121 44 -5 -3 -9 2 -9 10
0 11 14 16 48 19 26 2 51 4 55 5 4 1 14 -13 22 -32z m-527 9 c39 0 72 -2 72
-6 0 -10 -67 -19 -137 -19 -57 0 -63 2 -63 20 0 17 4 19 28 13 15 -5 60 -8
100 -8z m266 -42 c12 -56 3 -75 -31 -71 -26 3 -28 7 -31 52 -2 32 1 52 10 58
25 16 43 3 52 -39z m255 -33 l52 -32 206 0 c192 1 205 0 189 -16 -14 -14 -41
-16 -213 -14 l-197 2 -31 30 c-17 16 -52 37 -78 46 -26 9 -47 18 -47 21 0 14
72 -9 119 -37z m-534 -129 c-45 -91 -59 -111 -73 -106 -64 25 -150 47 -319 81
-26 5 -29 22 -10 48 12 16 20 17 93 7 114 -17 184 -33 184 -43 0 -4 8 -8 18
-8 11 0 37 32 71 86 53 85 54 86 73 66 19 -19 19 -20 -37 -131z m-382 99 c-5
-19 -23 -29 -23 -12 0 7 20 32 26 32 1 0 0 -9 -3 -20z m-58 -172 c-12 -38 -25
-45 -41 -24 -22 31 -17 46 17 46 27 0 30 -3 24 -22z m-535 -43 c0 -14 32 -97
66 -172 8 -17 17 -45 20 -63 l7 -31 -64 3 -64 3 -1 130 c-1 72 0 133 3 138 8
13 33 7 33 -8z m142 -145 c43 -105 77 -186 85 -201 5 -9 -44 -29 -52 -21 -14
14 -125 311 -125 335 0 5 10 7 22 5 18 -2 31 -24 70 -118z m417 -147 c6 -21
13 -62 17 -90 6 -45 4 -53 -10 -53 -13 0 -16 10 -16 50 0 28 -7 67 -15 87 -18
43 -18 43 0 43 8 0 18 -16 24 -37z m-53 -4 c19 -38 21 -139 2 -151 -22 -13
-26 -9 -33 35 -4 23 -16 62 -26 86 -25 57 -24 61 11 61 23 0 33 -7 46 -31z
m-87 -17 c10 -20 22 -59 26 -85 7 -44 5 -49 -23 -76 -22 -19 -50 -32 -91 -40
-82 -16 -93 -36 -17 -28 56 6 57 5 41 -13 -9 -10 -30 -24 -46 -30 -31 -13 -39
-30 -14 -30 18 0 59 24 93 54 12 11 22 15 22 9 0 -17 -43 -75 -72 -96 -22 -17
-48 -21 -152 -25 -70 -3 -126 -1 -126 4 0 5 9 33 20 62 26 69 25 103 -6 187
-43 117 -43 117 1 113 34 -3 40 -7 51 -40 8 -23 9 -40 3 -43 -5 -4 -9 -10 -9
-16 0 -14 46 -11 88 7 69 29 126 103 67 88 -15 -4 -25 -2 -25 4 0 6 21 14 48
17 26 3 54 8 62 9 34 8 40 4 59 -32z m161 -213 c0 -90 -30 -119 -125 -119
l-56 0 32 61 c35 65 37 66 107 44 18 -6 21 -4 16 8 -3 9 -15 19 -26 23 -22 7
-14 20 17 26 24 5 35 -8 35 -43z m195 -134 c33 -32 31 -51 -5 -70 -44 -23 -57
-19 -85 25 -14 22 -31 40 -37 40 -7 0 -3 7 8 15 31 24 91 19 119 -10z m-190
-15 c-14 -15 -21 -17 -31 -9 -19 16 -8 29 23 29 25 0 26 0 8 -20z m-70 -25
c33 -32 31 -51 -6 -64 -49 -17 -79 -14 -79 8 0 10 -7 24 -15 31 -22 18 -19 27
13 38 43 16 61 14 87 -13z m-155 8 c0 -12 -33 -43 -47 -43 -18 0 -17 15 3 34
15 16 44 22 44 9z m-292 -33 c-17 -27 6 -50 52 -50 46 0 66 20 50 49 -10 20
-8 21 44 21 l54 0 -2 -32 c-1 -27 3 -34 22 -36 12 -2 36 4 54 12 41 21 58 20
58 -3 0 -23 -50 -31 -184 -31 -148 1 -205 22 -192 73 4 19 11 23 30 20 21 -4
23 -8 14 -23z m582 -6 c0 -8 -10 -14 -25 -14 -27 0 -33 18 -13 38 14 14 38 -2
38 -24z m116 -49 c-23 -18 -166 -21 -166 -5 0 7 20 9 58 5 31 -3 71 -2 87 4
41 13 43 12 21 -4z m-231 -24 c-47 -44 -293 -66 -418 -37 -32 7 -60 16 -63 18
-2 3 51 3 118 0 126 -5 317 11 347 28 27 16 37 11 16 -9z" id="node1" class="node"></path>
<path d="M1056 2559 c-35 -28 -33 -43 4 -24 42 22 67 19 86 -10 18 -27 34 -25
34 5 0 24 -37 50 -71 50 -14 0 -38 -9 -53 -21z" id="node2" class="node"></path>
<path d="M614 2480 c-44 -18 -33 -27 31 -27 67 1 80 8 46 27 -23 12 -48 12
-77 0z" id="node3" class="node"></path>
<path d="M1148 2453 c-69 -18 -131 -68 -160 -129 -11 -25 -23 -46 -27 -49 -4
-2 -25 12 -47 31 -21 20 -60 47 -86 60 -85 43 -196 27 -245 -35 -65 -81 -71
-219 -16 -328 l31 -62 -32 -3 c-41 -4 -38 -21 5 -29 69 -13 179 -73 266 -146
54 -46 66 -51 57 -29 -3 7 9 28 25 47 17 18 47 67 67 109 21 41 38 77 40 78 1
2 24 -6 49 -17 92 -41 190 -20 250 51 52 61 69 114 69 213 1 78 -3 97 -25 140
-28 54 -78 95 -115 95 -13 0 -26 5 -29 10 -7 12 -5 12 -77 -7z m125 -43 c63
-31 101 -175 73 -274 -38 -130 -153 -189 -274 -141 -36 15 -40 20 -44 56 -3
30 0 38 10 34 41 -15 60 -15 79 2 32 28 36 56 12 86 -26 34 -70 36 -99 5 -25
-28 -32 -21 -32 36 0 79 68 171 147 200 46 17 88 16 128 -4z m-461 -76 c43
-22 106 -94 136 -154 23 -47 27 -68 27 -140 0 -69 -5 -94 -24 -135 -29 -59
-69 -115 -83 -115 -6 0 -25 13 -43 29 -19 16 -61 44 -95 62 -42 22 -70 46 -91
76 -30 46 -69 166 -69 217 0 136 126 219 242 160z m258 -189 c0 -8 -7 -15 -15
-15 -8 0 -15 7 -15 15 0 8 7 15 15 15 8 0 15 -7 15 -15z" id="node4" class="node"></path>
<path d="M866 2041 c-23 -25 -13 -59 21 -72 34 -13 63 5 63 39 0 51 -50 71
-84 33z m29 -20 c3 -5 1 -12 -5 -16 -5 -3 -10 1 -10 9 0 18 6 21 15 7z" id="node5" class="node"></path>
<path d="M1437 1996 c-22 -8 -50 -24 -63 -37 -24 -23 -64 -96 -64 -117 0 -21
30 -13 39 11 24 63 97 117 159 117 36 0 52 -16 52 -55 0 -41 -47 -86 -134
-129 -69 -34 -74 -54 -12 -42 43 8 146 75 169 109 25 39 22 99 -7 126 -30 28
-89 36 -139 17z" id="node6" class="node"></path>
<path d="M564 1767 c10 -43 53 -99 113 -149 68 -56 193 -108 193 -80 0 5 -18
16 -40 26 -98 43 -199 129 -235 200 -5 11 -16 21 -24 24 -10 3 -12 -2 -7 -21z" id="node7" class="node"></path>
<path d="M275 1680 c-57 -27 -100 -64 -91 -79 5 -8 12 -9 20 -2 7 6 42 9 78 8
54 -2 70 2 88 18 12 11 24 19 26 18 2 -2 4 -1 4 2 0 3 0 9 0 15 0 11 -53 40
-72 39 -7 0 -31 -9 -53 -19z m81 -29 c-8 -12 -85 -25 -94 -16 -11 11 22 25 61
25 21 0 36 -4 33 -9z" id="node8" class="node"></path>
<path d="M2550 1584 c0 -9 5 -14 12 -12 18 6 21 28 4 28 -9 0 -16 -7 -16 -16z" id="node9" class="node"></path>
</g>
<g transform="translate(0.000000,300.000000) scale(0.100000,-0.100000)" fill="#FFFFFF" stroke="none">

<path d="M946 2844 c10 -23 14 -60 12 -104 l-3 -70 -63 45 c-35 24 -102 62
-149 85 -70 35 -97 42 -161 46 -72 5 -76 4 -57 -11 28 -22 96 -87 123 -117 21
-23 46 -120 35 -132 -3 -3 -26 8 -51 24 -104 63 -236 94 -346 81 l-49 -6 87
-58 c97 -65 100 -77 22 -98 -74 -21 -130 -42 -181 -71 -44 -24 -95 -63 -95
-72 0 -1 21 1 47 5 78 13 133 11 133 -4 0 -8 -11 -19 -23 -24 -57 -26 -181
-163 -148 -163 4 0 45 16 91 35 46 19 94 35 105 35 41 0 93 -71 131 -181 21
-59 27 -99 31 -201 4 -91 10 -131 19 -139 14 -12 20 -53 7 -47 -5 2 -33 16
-63 32 -46 24 -67 29 -130 29 -92 1 -127 -15 -157 -68 -43 -75 -24 -125 59
-160 70 -29 163 -11 268 52 60 36 75 40 67 19 -15 -38 203 -151 351 -181 136
-28 336 -13 447 32 168 69 319 162 372 231 36 48 73 139 80 197 9 85 -78 240
-225 396 -78 83 -190 180 -254 222 -33 21 -36 37 -8 37 12 0 20 7 20 18 0 9
14 48 30 86 16 38 28 72 25 74 -6 7 -67 -40 -98 -75 -16 -18 -35 -33 -42 -33
-7 0 -22 19 -33 43 -40 85 -102 155 -181 204 -53 33 -63 30 -45 -13z m212
-280 c22 -15 30 -48 13 -58 -5 -3 -16 5 -25 19 -19 29 -44 32 -86 10 -37 -19
-39 -4 -4 24 32 25 71 27 102 5z m-467 -84 c34 -19 21 -26 -46 -27 -64 0 -75
9 -31 27 29 12 54 12 77 0z m534 -20 c3 -5 16 -10 29 -10 37 0 87 -41 115 -95
22 -43 26 -62 25 -140 0 -99 -17 -152 -69 -213 -60 -71 -158 -92 -250 -51 -25
11 -48 19 -49 17 -2 -1 -19 -37 -40 -78 -20 -42 -50 -91 -67 -109 -16 -19 -28
-40 -25 -47 9 -22 -3 -17 -57 29 -87 73 -197 133 -266 146 -43 8 -46 25 -5 29
l32 3 -31 62 c-55 109 -49 247 16 328 49 62 160 78 245 35 26 -13 65 -40 86
-60 22 -19 43 -33 47 -31 4 3 16 24 27 49 29 61 91 111 160 129 72 19 70 19
77 7z m351 -481 c29 -27 32 -87 7 -126 -23 -34 -126 -101 -169 -109 -62 -12
-57 8 12 42 87 43 134 88 134 129 0 39 -16 55 -52 55 -62 0 -135 -54 -159
-117 -9 -24 -39 -32 -39 -11 0 21 40 94 64 117 56 53 156 63 202 20z m-981
-215 c36 -71 137 -157 235 -200 40 -18 52 -34 26 -34 -64 0 -210 97 -261 173
-31 47 -44 92 -24 85 8 -3 19 -13 24 -24z m-225 -79 c17 -9 30 -20 30 -25 0
-6 0 -12 0 -15 0 -3 -2 -4 -4 -2 -2 1 -14 -7 -26 -18 -18 -16 -34 -20 -88 -18
-36 1 -71 -2 -78 -8 -8 -7 -15 -6 -20 2 -9 15 34 52 91 79 50 23 59 24 95 5z" id="node11" class="node"></path>
<path d="M1145 2414 c-79 -29 -147 -121 -147 -200 0 -57 7 -64 32 -36 29 31
73 29 99 -5 24 -30 20 -58 -12 -86 -19 -17 -38 -17 -79 -2 -10 4 -13 -4 -10
-34 4 -36 8 -41 44 -56 198 -79 355 139 253 351 -36 74 -98 98 -180 68z" id="node12" class="node"></path>
<path d="M686 2345 c-72 -26 -116 -91 -116 -171 0 -51 39 -171 69 -217 21 -30
49 -54 91 -76 34 -18 76 -46 95 -62 18 -16 37 -29 43 -29 14 0 54 56 83 115
19 41 24 66 24 135 0 72 -4 93 -27 140 -63 129 -172 198 -262 165z m252 -297
c19 -19 15 -66 -7 -78 -26 -14 -67 3 -76 30 -13 42 51 80 83 48z" id="node13" class="node"></path>
<path d="M880 2014 c0 -8 5 -12 10 -9 6 4 8 11 5 16 -9 14 -15 11 -15 -7z" id="node14" class="node"></path>
<path d="M1040 2145 c0 -8 7 -15 15 -15 8 0 15 7 15 15 0 8 -7 15 -15 15 -8 0
-15 -7 -15 -15z" id="node15" class="node"></path>
<path d="M270 1650 c-8 -5 -11 -12 -8 -15 9 -9 86 4 94 16 7 12 -67 11 -86 -1z" id="node16" class="node"></path>
<path d="M2721 2351 c-26 -26 -26 -32 -1 -64 24 -30 25 -55 5 -84 -20 -29 -62
-40 -175 -48 -125 -8 -163 -19 -180 -50 -11 -21 -10 -31 4 -69 24 -63 62 -92
130 -100 31 -3 81 -9 111 -12 30 -4 53 -10 50 -14 -2 -4 -53 -9 -112 -12 -155
-8 -213 -38 -213 -113 0 -60 19 -71 126 -79 53 -4 102 -10 110 -13 33 -12 8
-18 -84 -18 -84 0 -100 -3 -118 -20 -46 -44 -56 -96 -27 -145 30 -52 68 -60
282 -63 l193 -2 24 28 c13 16 24 35 24 43 0 30 -31 74 -56 80 -25 6 -116 0
-181 -12 -19 -4 -33 -2 -33 3 0 15 74 34 153 39 111 8 115 10 139 58 19 39 20
48 8 76 -7 17 -25 36 -39 42 -15 5 -83 8 -156 6 -178 -4 -183 15 -6 24 147 8
171 17 171 70 0 41 -23 91 -53 115 -24 19 -73 29 -227 49 -48 6 -52 8 -27 15
28 8 188 -4 219 -16 25 -10 88 14 118 44 15 14 35 45 45 68 17 41 17 43 -4 86
-42 86 -171 137 -220 88z m-143 -763 c-6 -18 -28 -21 -28 -4 0 9 7 16 16 16 9
0 14 -5 12 -12z" id="node17" class="node"></path>
<path d="M700 1378 c0 -47 23 -185 39 -233 5 -16 17 -56 27 -87 l17 -58 40 0
c56 0 157 30 157 46 0 7 -9 37 -21 66 -52 131 -67 178 -59 178 8 0 140 -257
140 -273 0 -4 -12 -12 -26 -17 -15 -6 -24 -16 -21 -23 13 -29 117 -282 117
-284 0 -8 74 -1 145 12 137 25 206 47 201 61 -3 8 -30 48 -60 91 -73 105 -187
298 -243 409 l-45 91 -127 6 c-99 5 -142 11 -199 31 -41 14 -76 26 -78 26 -2
0 -4 -19 -4 -42z" id="node18" class="node"></path>
<path d="M2005 1404 c-22 -8 -51 -24 -65 -35 -25 -20 -25 -20 -1 -9 13 7 36
10 51 7 16 -4 36 0 49 10 28 19 40 9 18 -15 -33 -36 -19 -59 33 -53 21 3 60
49 60 71 0 40 -70 51 -145 24z" id="node19" class="node"></path>
<path d="M2402 1345 c5 -104 28 -125 28 -26 0 45 4 70 10 66 6 -3 10 -37 10
-76 0 -38 4 -69 9 -69 6 0 9 35 7 82 -2 70 -6 83 -22 89 -44 17 -46 13 -42
-66z" id="node20" class="node"></path>
<path d="M2484 1363 c2 -27 5 -65 5 -85 1 -21 6 -38 12 -38 7 0 10 18 9 48 -4
71 -1 94 10 87 6 -3 10 -33 10 -65 0 -32 4 -61 9 -64 16 -10 20 21 14 93 l-6
71 -34 0 -34 0 5 -47z" id="node21" class="node"></path>
<path d="M2580 1329 c0 -51 4 -78 10 -74 6 3 10 36 11 73 1 80 17 57 18 -25 1
-29 6 -53 11 -53 6 0 10 33 10 80 l0 80 -30 0 -30 0 0 -81z" id="node22" class="node"></path>
<path d="M2658 1348 c-2 -35 -1 -74 3 -88 l7 -25 1 26 c1 14 4 54 7 88 5 40 3
61 -4 61 -6 0 -12 -28 -14 -62z" id="node23" class="node"></path>
<path d="M2743 1403 l-43 -4 0 -80 c0 -108 19 -108 35 1 14 87 35 74 25 -16
-9 -81 5 -75 20 9 7 40 15 78 17 85 3 6 1 11 -3 10 -5 -1 -28 -3 -51 -5z" id="node24" class="node"></path>
<path d="M1172 1323 c16 -36 76 -146 108 -199 22 -35 40 -69 40 -74 0 -24 18
-6 39 37 13 26 36 65 53 85 32 41 31 53 -8 62 -25 7 -47 16 -171 72 -55 25
-67 29 -61 17z" id="node25" class="node"></path>
<path d="M1978 1276 c8 -30 12 -63 8 -73 -7 -17 -8 -17 -20 0 -7 9 -24 17 -37
17 -24 -1 -24 -1 6 -26 38 -31 74 -41 86 -23 16 26 10 84 -11 102 -11 9 -20
26 -20 37 0 11 -6 20 -14 20 -11 0 -11 -9 2 -54z" id="node26" class="node"></path>
<path d="M2165 1308 c-3 -13 -2 -41 2 -63 7 -30 14 -41 30 -43 30 -5 39 40 16
86 -22 44 -40 51 -48 20z" id="node27" class="node"></path>
<path d="M1750 1310 c0 -14 77 -26 148 -22 21 1 32 7 32 17 0 12 -17 15 -90
15 -50 0 -90 -4 -90 -10z" id="node28" class="node"></path>
<path d="M2318 1283 c-34 -3 -48 -8 -48 -19 0 -8 4 -13 9 -10 12 8 86 -19 121
-44 22 -16 50 -21 141 -26 105 -5 292 6 305 19 3 3 0 16 -7 29 l-14 23 -3 -22
c-3 -18 -12 -23 -49 -29 -48 -7 -324 3 -349 13 -8 3 -21 21 -29 39 -8 19 -18
33 -22 32 -4 -1 -29 -3 -55 -5z" id="node29" class="node"></path>
<path d="M1740 1260 c0 -18 6 -20 63 -20 70 0 137 9 137 19 0 4 -33 6 -72 6
-40 0 -85 3 -100 8 -24 6 -28 4 -28 -13z" id="node30" class="node"></path>
<path d="M2082 1262 c-9 -6 -12 -26 -10 -58 3 -45 5 -49 31 -52 34 -4 43 15
31 71 -9 42 -27 55 -52 39z" id="node31" class="node"></path>
<path d="M2270 1227 c0 -3 21 -12 47 -21 26 -9 61 -30 78 -46 l31 -30 197 -2
c172 -2 199 0 213 14 16 16 3 17 -189 16 l-206 0 -52 32 c-47 28 -119 51 -119
37z" id="node32" class="node"></path>
<path d="M1819 1126 c-34 -54 -60 -86 -71 -86 -10 0 -18 4 -18 8 0 10 -70 26
-184 43 -73 10 -81 9 -93 -7 -19 -26 -16 -43 10 -48 169 -34 255 -56 319 -81
14 -5 28 15 73 106 56 111 56 112 37 131 -19 20 -20 19 -73 -66z" id="node33" class="node"></path>
<path d="M1462 1168 c-14 -14 -16 -28 -3 -28 5 0 11 9 14 20 6 23 5 24 -11 8z" id="node34" class="node"></path>
<path d="M1360 997 c0 -7 6 -22 14 -33 16 -21 29 -14 41 24 6 19 3 22 -24 22
-19 0 -31 -5 -31 -13z" id="node35" class="node"></path>
<path d="M847 953 c-3 -5 -4 -66 -3 -138 l1 -130 64 -3 64 -3 -7 31 c-3 18
-12 46 -20 63 -34 75 -66 158 -66 172 0 15 -25 21 -33 8z" id="node36" class="node"></path>
<path d="M930 913 c0 -24 111 -321 125 -335 8 -8 57 12 52 21 -8 15 -42 96
-85 201 -39 94 -52 116 -70 118 -12 2 -22 0 -22 -5z" id="node37" class="node"></path>
<path d="M1400 686 c0 -2 7 -20 15 -39 8 -20 15 -59 15 -87 0 -40 3 -50 16
-50 14 0 16 8 10 53 -11 82 -25 127 -41 127 -8 0 -15 -2 -15 -4z" id="node38" class="node"></path>
<path d="M1310 671 c0 -5 9 -28 19 -52 10 -24 22 -63 26 -86 7 -44 11 -48 33
-35 19 12 17 113 -2 151 -13 24 -23 31 -46 31 -17 0 -30 -4 -30 -9z" id="node39" class="node"></path>
<path d="M1240 664 c-8 -1 -36 -6 -62 -9 -27 -3 -48 -11 -48 -17 0 -6 10 -8
25 -4 59 15 2 -59 -67 -88 -42 -18 -88 -21 -88 -7 0 6 4 12 9 16 6 3 5 20 -3
43 -11 33 -17 37 -51 40 -44 4 -44 4 -1 -113 31 -84 32 -118 6 -187 -11 -29
-20 -57 -20 -62 0 -5 56 -7 126 -4 104 4 130 8 152 25 29 21 72 79 72 96 0 6
-10 2 -22 -9 -34 -30 -75 -54 -93 -54 -25 0 -17 17 14 30 16 6 37 20 46 30 16
18 15 19 -41 13 -76 -8 -65 12 17 28 41 8 69 21 91 40 28 27 30 32 23 76 -8
56 -40 123 -58 122 -6 -1 -19 -3 -27 -5z" id="node40" class="node"></path>
<path d="M1425 462 c-31 -6 -39 -19 -17 -26 11 -4 23 -14 26 -23 5 -12 2 -14
-16 -8 -70 22 -72 21 -107 -44 l-32 -61 56 0 c95 0 125 29 125 119 0 35 -11
48 -35 43z" id="node41" class="node"></path>
<path d="M1536 295 c-11 -8 -15 -15 -8 -15 6 0 23 -18 37 -40 28 -44 41 -48
85 -25 36 19 38 38 5 70 -28 29 -88 34 -119 10z" id="node42" class="node"></path>
<path d="M1426 281 c-3 -5 0 -14 8 -20 10 -8 17 -6 31 9 18 20 17 20 -8 20
-14 0 -28 -4 -31 -9z" id="node43" class="node"></path>
<path d="M1308 258 c-32 -11 -35 -20 -13 -38 8 -7 15 -21 15 -31 0 -22 30 -25
79 -8 37 13 39 32 6 64 -26 27 -44 29 -87 13z" id="node44" class="node"></path>
<path d="M1196 244 c-20 -19 -21 -34 -3 -34 14 0 47 31 47 43 0 13 -29 7 -44
-9z" id="node45" class="node"></path>
<path d="M904 223 c-13 -51 44 -72 192 -73 134 0 184 8 184 31 0 23 -17 24
-58 3 -18 -8 -42 -14 -54 -12 -19 2 -23 9 -22 36 l2 32 -54 0 c-52 0 -54 -1
-44 -21 16 -29 -4 -49 -50 -49 -46 0 -69 23 -52 50 9 15 7 19 -14 23 -19 3
-26 -1 -30 -20z" id="node46" class="node"></path>
<path d="M1492 238 c-20 -20 -14 -38 13 -38 27 0 33 21 12 39 -10 8 -17 7 -25
-1z" id="node47" class="node"></path>
<path d="M1625 169 c-16 -6 -56 -7 -87 -4 -38 4 -58 2 -58 -5 0 -16 143 -13
166 5 22 16 20 17 -21 4z" id="node48" class="node"></path>
<path d="M1399 150 c-30 -17 -221 -33 -347 -28 -67 3 -120 3 -118 0 3 -2 31
-11 63 -18 125 -29 371 -7 418 37 21 20 11 25 -16 9z" id="node49" class="node"></path>
</g>
</svg>