<!--?xml version="1.0" standalone="no"?-->

<svg xmlns="http://www.w3.org/2000/svg" width="250.000000pt" height="300.000000pt" viewBox="0 0 250.000000 300.000000" preserveAspectRatio="xMidYMid meet">
<g transform="translate(0.000000,300.000000) scale(0.100000,-0.100000)" fill="#2F2F2F" stroke="none">
<path style="position: relative;" stroke-width="20" class="node" id="node1" d="M1645 2965 c-132 -54 -238 -121 -337 -212 l-47 -43 -79 0 c-44 0
-131 -9 -193 -20 -130 -22 -331 -29 -351 -13 -41 35 -212 107 -314 133 -111
29 -225 39 -250 22 -24 -16 -34 -55 -34 -139 0 -228 84 -513 150 -513 24 0 24
6 1 -82 -40 -151 -35 -296 14 -417 14 -34 25 -67 23 -72 -2 -4 -43 5 -91 21
-88 30 -137 38 -137 21 0 -15 23 -28 80 -46 30 -9 69 -23 87 -31 17 -8 40 -14
51 -14 74 0 -36 -50 -143 -65 -53 -8 -78 -21 -69 -37 8 -12 76 -1 189 32 52
15 95 25 95 21 -1 -3 -44 -33 -97 -66 -90 -56 -122 -85 -92 -85 6 0 61 32 121
71 l110 70 56 -26 c32 -15 85 -36 120 -46 34 -11 62 -23 62 -27 0 -4 -15 -37
-34 -72 -31 -60 -47 -103 -60 -170 -4 -21 -14 -27 -57 -37 -150 -36 -239 -157
-239 -326 0 -57 7 -86 42 -174 29 -72 39 -108 31 -110 -127 -43 -172 -267 -58
-289 22 -4 40 -15 46 -28 31 -60 117 -75 191 -34 40 23 40 23 53 3 29 -41 49
-55 83 -55 23 0 40 -7 52 -23 15 -18 27 -22 66 -20 43 1 52 -2 75 -30 24 -29
32 -32 81 -31 98 2 193 72 213 157 9 35 20 34 35 -4 33 -80 115 -116 185 -83
20 9 42 27 47 40 10 22 12 22 39 9 41 -22 64 -18 102 15 26 23 44 30 75 30 31
0 45 5 57 23 11 16 18 19 23 9 5 -6 23 -23 42 -37 56 -41 113 -30 133 27 4 10
15 18 25 18 43 0 81 22 97 57 16 34 16 40 0 98 -18 67 -52 108 -112 139 -39
19 -40 26 -12 52 35 31 97 128 119 185 38 102 24 157 -62 245 -31 33 -46 54
-39 59 17 10 60 100 91 190 65 187 74 212 96 246 38 61 106 74 170 33 14 -10
38 -43 54 -74 38 -76 70 -112 123 -140 l44 -24 47 28 c27 16 51 39 57 54 27
71 -31 182 -166 318 -86 86 -108 103 -155 118 -80 25 -138 30 -202 17 -77 -16
-117 -46 -149 -110 -21 -45 -34 -57 -64 -68 l-37 -13 18 28 c91 138 147 316
147 467 1 72 -5 105 -25 163 -24 68 -25 75 -12 119 32 106 6 461 -40 551 -17
32 -44 53 -68 51 -7 -1 -49 -16 -93 -34z m-291 -860 c44 -21 70 -67 63 -112
-20 -122 -218 -136 -257 -18 -6 19 -8 45 -5 57 9 29 44 68 70 78 32 14 95 11
129 -5z m-564 -33 c39 -24 49 -43 50 -90 0 -36 -5 -49 -31 -73 -27 -25 -39
-29 -91 -29 -52 0 -63 3 -89 29 -24 24 -29 38 -29 76 0 37 5 51 27 71 47 44
109 50 163 16z m308 -171 c19 -12 -2 -45 -45 -72 -30 -19 -34 -19 -62 -4 -35
18 -66 59 -56 75 7 12 144 13 163 1z m682 -301 c0 -5 -8 -10 -17 -10 -15 0
-16 2 -3 10 19 12 20 12 20 0z m-10 -60 c0 -13 -30 -13 -50 0 -11 7 -7 10 18
10 17 0 32 -4 32 -10z m-56 -25 c38 -16 38 -17 32 -58 -13 -83 -27 -117 -72
-171 -45 -56 -74 -71 -74 -38 0 36 -43 128 -76 162 -19 20 -34 39 -34 43 0 4
24 18 53 31 28 13 61 31 72 40 22 17 40 15 99 -9z"></path>
<path style="position: relative;" class="node" id="node2" d="M1262 2020 c-25 -41 31 -83 66 -48 16 16 15 33 -4 52 -21 22 -47 20
-62 -4z"></path>
<path style="position: relative;" class="node" id="node3" d="M700 1995 c-20 -24 -8 -50 24 -50 36 0 56 26 37 49 -17 20 -45 21
-61 1z"></path>
</g>
<g transform="translate(0.000000,300.000000) scale(0.100000,-0.100000)" fill="#A09F9F" stroke="none">


<path style="position: relative;" class="node" id="node6" d="M1225 2110 c-26 -10 -61 -49 -70 -78 -3 -12 -1 -38 5 -57 39 -118
237 -104 257 18 11 69 -51 128 -134 126 -21 0 -47 -4 -58 -9z m99 -86 c19 -19
20 -36 4 -52 -35 -35 -91 7 -66 48 15 24 41 26 62 4z"></path>
<path style="position: relative;" class="node" id="node7" d="M684 2089 c-17 -5 -43 -20 -57 -33 -22 -20 -27 -34 -27 -71 0 -38 5
-52 29 -76 26 -26 37 -29 89 -29 52 0 64 4 91 29 26 24 31 37 31 73 -1 47 -11
66 -50 90 -35 22 -70 27 -106 17z m77 -95 c19 -23 -1 -49 -37 -49 -20 0 -30 6
-32 18 -8 40 43 63 69 31z"></path>
<path style="position: relative;" class="node" id="node8" d="M935 1900 c-10 -16 21 -57 56 -75 28 -15 32 -15 62 4 43 27 64 60 45
72 -19 12 -156 11 -163 -1z"></path>






</g>
</svg>