<!--?xml version="1.0" standalone="no"?--><svg version="1.0" xmlns="http://www.w3.org/2000/svg" width="300.000000pt" height="300.000000pt" viewBox="0 0 300.000000 300.000000" preserveAspectRatio="xMidYMid meet">
<metadata>
  <rdf:rdf xmlns:rdf="http://www.w3.org/1999/02/22-rdf-syntax-ns#" xmlns:rdfs="http://www.w3.org/2000/01/rdf-schema#" xmlns:dc="http://purl.org/dc/elements/1.1/">
    <rdf:description dc:title="christmas pj funny" dc:publisher="Hiox" dc:date="2015-12-16" dc:format="image/svg+xml" dc:language="en">
      <dc:creator>
        <rdf:bag>
          <rdf:li>svgimages.com</rdf:li>
        </rdf:bag>
      </dc:creator>
    </rdf:description>
  </rdf:rdf>
</metadata>
<g transform="translate(0.000000,300.000000) scale(0.100000,-0.100000)" fill="#704CDC" stroke="none">
<path class="node" id="node1" d="M1155 2959 c-99 -14 -248 -67 -333 -119 -90 -56 -199 -160 -239 -228
-27 -45 -28 -46 -31 -20 l-3 28 -32 -17 c-58 -29 -153 -101 -199 -151 -105
-112 -140 -204 -137 -361 l2 -106 -39 -6 c-24 -4 -47 -17 -62 -35 -21 -24 -24
-35 -20 -81 3 -29 7 -56 10 -59 4 -3 26 9 49 26 51 36 57 29 35 -40 -9 -27
-16 -58 -16 -69 0 -35 32 -105 63 -138 36 -39 146 -94 265 -132 48 -16 87 -33
87 -37 0 -5 -9 -35 -19 -66 l-19 -57 24 -48 c65 -125 244 -133 384 -18 l43 34
87 -24 c48 -13 89 -26 92 -29 11 -11 -13 -30 -71 -56 -113 -50 -235 -68 -369
-53 -43 5 -80 6 -83 1 -3 -4 -22 10 -43 32 -28 29 -46 40 -68 40 -39 0 -94
-37 -113 -77 -12 -25 -30 -37 -92 -62 -42 -18 -81 -38 -88 -46 -8 -10 -6 -39
9 -120 12 -58 21 -110 21 -115 0 -4 -38 -47 -85 -94 -47 -46 -90 -97 -95 -111
-25 -65 -1 -149 53 -189 38 -28 117 -26 177 4 119 60 255 173 264 218 3 15 2
68 -2 117 -5 50 -7 92 -5 95 2 3 12 -6 22 -19 17 -23 22 -24 86 -17 85 9 246
62 406 134 l66 30 7 -60 c3 -34 6 -86 6 -117 0 -103 11 -160 31 -166 23 -8 23
-17 8 -187 l-12 -128 -39 0 c-51 0 -88 -36 -78 -75 2 -5 4 -17 5 -25 8 -59 28
-101 55 -115 39 -20 68 -19 113 5 23 12 56 20 86 20 72 0 145 18 186 46 28 19
49 24 95 24 32 0 94 5 137 12 106 16 122 15 184 -15 84 -39 127 -47 231 -42
107 4 136 16 145 58 3 15 9 27 12 27 4 0 20 19 34 41 32 48 28 75 -11 90 -25
10 -116 5 -150 -9 -9 -3 -13 -1 -9 5 4 6 7 98 8 204 1 176 3 195 20 209 21 17
24 7 -87 253 -30 64 -54 119 -54 121 0 2 66 3 148 2 81 0 165 2 188 6 l40 8
18 -50 c28 -78 139 -214 230 -281 88 -65 236 -17 252 82 10 62 -11 109 -81
181 l-65 67 55 111 c46 96 53 114 42 131 -20 33 -109 86 -186 112 -39 14 -79
31 -89 40 -25 22 -83 35 -116 26 -16 -5 -43 -22 -61 -39 -21 -20 -37 -28 -48
-24 -9 3 -17 2 -17 -3 0 -11 -197 -109 -205 -101 -3 3 10 30 28 61 58 96 82
186 82 307 0 76 -6 120 -19 160 -53 156 -155 301 -318 453 -59 56 -108 104
-108 108 0 3 19 14 43 25 50 22 255 159 311 208 l39 34 -39 20 c-114 58 -363
109 -629 130 l-90 7 43 26 43 26 -43 12 c-108 29 -237 36 -353 20z m275 -36
l33 -6 -43 -37 -43 -37 109 -7 c238 -14 671 -99 661 -129 -7 -23 -215 -156
-342 -220 -280 -140 -682 -279 -902 -313 -24 -4 -43 -10 -43 -14 0 -4 18 -15
40 -25 22 -10 40 -22 40 -26 0 -13 -143 -45 -227 -51 -18 -1 -33 -6 -33 -10 0
-4 3 -8 8 -8 4 0 32 -23 62 -51 l55 -50 -67 6 -67 5 63 -62 c43 -43 75 -88
102 -142 36 -73 39 -86 39 -165 0 -47 -3 -94 -7 -103 -6 -16 -10 -16 -42 -3
-56 24 -133 19 -193 -12 -50 -25 -55 -26 -95 -12 -87 28 -295 138 -322 169
-22 27 -26 41 -26 98 0 37 7 92 15 122 8 30 12 56 10 58 -3 4 -60 -13 -108
-33 -13 -6 -17 -2 -17 15 0 29 60 89 97 96 l28 5 -3 75 c-6 121 53 269 149
378 45 51 134 126 150 126 5 0 9 -16 9 -35 0 -44 9 -44 40 2 112 165 349 330
552 383 75 19 251 27 318 13z m495 -608 c219 -217 313 -412 302 -625 -5 -113
-27 -178 -96 -282 -117 -179 -347 -250 -709 -219 -217 18 -436 74 -452 115 -7
15 -9 17 -9 4 -2 -46 -159 -128 -246 -128 -53 0 -114 28 -130 61 -35 67 -9
166 52 194 49 23 170 17 236 -13 47 -21 56 -17 37 18 -7 13 -7 41 1 89 21 127
-12 231 -104 329 l-51 53 64 -6 65 -7 -65 65 -65 64 60 12 c60 12 197 50 204
57 2 1 -10 14 -25 28 -21 19 -25 25 -13 26 9 0 53 11 98 23 44 13 81 22 81 19
0 -2 -11 -13 -25 -24 -14 -11 -29 -28 -35 -37 -7 -14 8 -10 65 18 41 20 74 42
75 49 0 15 -15 15 -41 2 -11 -6 -19 -7 -19 -2 0 6 39 22 88 37 86 27 355 130
462 178 l55 25 28 -20 c16 -11 66 -58 112 -103z m655 -812 c33 -23 40 -33 40
-65 0 -43 -32 -54 -83 -28 -29 16 -37 17 -28 6 13 -16 12 -43 -6 -173 -4 -37
-9 -43 -28 -43 -19 0 -28 10 -45 58 -33 86 -36 131 -11 179 39 77 106 104 161
66z m165 -80 c64 -33 115 -71 115 -86 0 -7 -16 -46 -36 -87 -70 -146 -68 -131
-17 -189 25 -29 44 -53 42 -54 -2 -1 -17 -9 -34 -17 -40 -21 -89 -88 -106
-144 -7 -25 -16 -45 -20 -44 -3 2 -34 34 -69 71 -58 63 -62 70 -51 93 24 53
10 138 -31 181 -19 20 -20 30 -14 95 13 142 14 145 48 140 16 -3 40 1 52 8 20
10 34 7 95 -20 40 -17 77 -30 82 -28 6 2 -27 19 -73 38 -67 29 -84 40 -86 59
-3 21 -1 23 25 17 15 -4 51 -19 78 -33z m-358 -67 c12 -70 60 -186 77 -186 5
0 3 -7 -5 -16 -28 -27 -171 -46 -294 -39 -101 6 -112 9 -137 33 -16 14 -28 22
-28 16 0 -19 34 -103 101 -254 38 -86 69 -161 69 -167 0 -6 -17 -17 -37 -24
-21 -7 -66 -25 -100 -41 -95 -44 -116 -45 -132 -11 -16 31 -158 453 -154 453
2 0 37 -9 78 -21 41 -11 79 -18 84 -15 5 3 12 29 16 57 7 48 10 52 64 86 31
20 72 48 91 63 19 14 69 39 110 54 41 15 95 38 120 51 25 13 50 24 55 25 6 0
16 -29 22 -64z m-978 -191 c79 -8 161 -15 182 -15 46 0 47 -7 15 -75 -30 -66
-52 -87 -80 -80 -25 8 -260 147 -296 176 l-25 20 30 -5 c17 -4 95 -13 174 -21z
m481 1 c0 -40 -21 -49 -85 -35 -63 14 -61 21 10 42 68 21 75 21 75 -7z m-681
-20 c37 -33 337 -197 356 -194 14 2 33 29 65 96 24 50 49 91 55 89 23 -6 119
-252 170 -433 25 -87 17 -96 -97 -125 -126 -31 -367 -34 -473 -5 -38 10 -75
24 -82 30 -8 7 -15 67 -19 174 -6 148 -6 164 11 182 31 34 10 33 -62 -3 -177
-90 -414 -177 -480 -177 -27 0 -28 13 -7 71 9 26 16 80 17 129 l1 85 119 -3
c143 -4 235 13 322 62 69 39 82 41 104 22z m-628 -53 c44 -42 50 -54 56 -100
5 -49 -10 -155 -26 -182 -6 -8 -15 -9 -34 -2 l-27 11 0 115 0 116 -27 -26
c-53 -49 -105 -44 -111 11 -2 23 5 38 34 67 50 50 74 48 135 -10z m1957 6 c19
-27 23 -43 19 -77 -3 -24 -7 -46 -11 -49 -10 -10 -32 15 -56 67 -20 42 -21 54
-12 76 15 32 30 27 60 -17z m-2148 -87 c0 -13 -12 -22 -37 -29 -32 -8 -23 -9
59 -9 l97 1 5 -29 c3 -16 6 -66 6 -111 0 -73 -3 -87 -24 -112 -42 -50 -56 -90
-60 -170 l-5 -78 -58 -37 c-32 -20 -61 -37 -64 -37 -4 -1 -10 11 -14 27 -9 39
-61 117 -102 152 -40 36 -43 29 45 121 l44 47 -21 85 c-34 138 -33 140 59 175
68 26 70 26 70 4z m2512 -72 c24 -45 23 -70 -5 -111 -30 -44 -60 -59 -126 -59
l-54 0 7 41 c10 64 50 124 99 148 23 11 46 19 51 17 5 -1 17 -18 28 -36z
m-2366 -301 c6 -53 5 -58 -26 -92 -18 -20 -36 -37 -41 -37 -5 0 -9 22 -9 48 0
52 46 160 61 145 5 -5 11 -33 15 -64z m1609 -306 c-5 -31 -14 -48 -35 -63 -50
-35 -136 -71 -189 -77 -45 -5 -51 -4 -51 12 0 37 23 200 29 207 3 4 24 3 46
-2 50 -11 57 -5 14 13 l-33 13 62 18 c70 19 82 31 22 21 l-40 -7 0 60 c0 33
-3 67 -6 75 -4 11 8 19 48 31 29 9 71 24 93 34 l40 18 3 -155 c2 -86 0 -175
-3 -198z m-225 267 c13 0 19 -10 22 -44 9 -72 0 -96 -32 -96 -16 0 -35 -3 -44
-6 -14 -5 -16 4 -16 59 0 57 3 67 20 72 11 3 20 14 21 23 0 11 3 12 6 5 2 -7
13 -13 23 -13z m-1720 -77 c55 -75 78 -129 62 -145 -19 -19 -90 -22 -118 -4
-34 23 -57 81 -51 127 5 38 33 89 48 89 5 0 32 -30 59 -67z m1188 8 c103 -12
277 -3 377 19 22 5 44 10 48 10 4 0 7 -26 5 -57 l-3 -57 -78 -24 c-95 -28 -96
-39 -3 -17 37 8 77 15 88 15 20 0 20 -2 -7 -30 -32 -33 -28 -39 11 -14 13 9
26 15 28 13 1 -2 -4 -49 -13 -103 -16 -97 -17 -100 -46 -109 -50 -15 -273 -11
-350 6 -74 17 -214 64 -228 77 -8 7 8 256 18 287 3 9 11 10 27 4 13 -5 69 -14
126 -20z m902 -241 c-42 -7 -43 -7 -10 -9 19 -1 41 -5 49 -10 22 -14 -6 -24
-47 -16 -25 4 -34 3 -27 -3 6 -6 21 -12 35 -14 14 -2 25 -10 25 -18 0 -17 -26
-18 -90 -6 -26 5 -37 4 -30 -2 6 -6 21 -12 34 -14 13 -1 29 -11 35 -21 9 -15
7 -22 -13 -38 -21 -17 -36 -19 -140 -16 -83 3 -128 9 -156 22 -26 11 -35 19
-25 22 68 23 172 68 203 89 44 29 95 42 157 41 l45 0 -45 -7z m-977 -91 c73
-22 143 -44 157 -48 l25 -8 -33 -17 c-18 -9 -70 -22 -115 -28 -45 -5 -98 -19
-118 -29 -59 -30 -119 -19 -119 22 0 18 7 23 90 57 l25 11 -25 0 c-14 0 -42
-6 -62 -13 -35 -13 -38 -12 -38 4 0 12 14 23 43 33 28 10 35 16 20 16 -12 1
-33 -3 -46 -8 -14 -6 -28 -7 -31 -4 -12 12 17 33 48 34 l31 1 -30 8 c-30 8
-29 8 8 9 22 0 98 -17 170 -40z"></path>
<path class="node" id="node2" d="M1643 2305 c-9 -24 3 -28 38 -16 18 6 44 11 58 11 14 0 33 5 41 10
10 7 -7 10 -58 10 -56 0 -74 -3 -79 -15z"></path>
<path class="node" id="node3" d="M1720 2251 c-93 -30 -187 -112 -216 -188 -9 -23 -19 -43 -21 -43 -3
0 -28 20 -56 45 -115 100 -259 100 -311 -1 -18 -33 -21 -57 -21 -159 0 -109 2
-125 27 -177 l26 -57 -21 -15 c-21 -15 -21 -16 8 -8 17 4 64 7 105 6 60 0 88
-6 137 -29 35 -15 68 -34 74 -41 6 -8 16 -14 22 -14 5 0 2 9 -9 21 -15 16 -16
23 -6 37 24 33 52 77 55 86 2 5 18 -1 36 -14 46 -35 146 -39 223 -11 155 59
245 201 236 376 -4 86 -35 141 -95 170 -41 21 -152 30 -193 16z m175 -44 c22
-13 49 -40 62 -62 47 -84 21 -243 -54 -326 -77 -85 -246 -139 -328 -105 -35
15 -37 18 -31 47 3 17 6 45 6 62 l0 30 25 -27 c52 -56 145 -19 145 59 0 92
-125 120 -160 36 -14 -35 -30 -32 -30 4 0 13 -5 35 -11 49 -10 22 -8 32 22 81
91 151 242 216 354 152z m-519 -135 c48 -25 98 -79 119 -129 22 -51 19 -177
-4 -228 -19 -41 -55 -85 -70 -85 -5 0 -29 9 -54 20 -25 11 -79 24 -119 28
l-73 7 -27 53 c-64 126 -39 316 46 353 34 14 138 4 182 -19z"></path>
<path class="node" id="node4" d="M1177 1822 c-22 -25 -21 -75 1 -95 42 -38 102 -7 102 54 0 52 -69 79
-103 41z"></path>
<path class="node" id="node5" d="M2082 1853 c-27 -5 -112 -83 -112 -103 0 -7 20 6 44 28 64 59 131 69
156 22 24 -44 -29 -109 -128 -160 -57 -28 -49 -34 17 -14 59 17 135 83 146
127 12 45 -2 77 -40 93 -35 14 -42 15 -83 7z"></path>
<path class="node" id="node6" d="M1020 1498 c-19 -31 -27 -68 -15 -68 3 0 10 12 16 27 l10 26 27 -26
c43 -41 142 -96 209 -117 83 -26 237 -35 348 -21 168 20 345 78 408 133 l32
29 -62 -31 c-175 -85 -301 -113 -508 -114 -204 -1 -272 20 -367 112 -49 47
-52 62 -15 62 12 0 29 5 37 10 11 7 -2 10 -43 10 -54 0 -58 -2 -77 -32z"></path>
<path class="node" id="node7" d="M699 1359 c-15 -5 -34 -24 -42 -42 -17 -34 -11 -60 7 -34 9 11 28 15
73 14 46 -1 66 3 81 16 13 12 29 16 53 12 l34 -6 -39 21 c-44 25 -129 34 -167
19z m106 -18 c8 -14 -28 -31 -64 -31 -34 0 -51 18 -30 31 19 12 86 11 94 0z"></path>
</g>
<g transform="translate(0.000000,300.000000) scale(0.100000,-0.100000)" fill="#5AF1EF" stroke="none">

<path class="node" id="node9" d="M1112 2910 c-203 -53 -440 -218 -552 -383 -31 -46 -40 -46 -40 -2 0
19 -4 35 -9 35 -16 0 -105 -75 -150 -126 -96 -109 -155 -257 -149 -378 l3 -75
-28 -5 c-37 -7 -97 -67 -97 -96 0 -17 4 -21 17 -15 48 20 105 37 108 33 2 -2
-2 -28 -10 -58 -8 -30 -15 -85 -15 -122 0 -57 4 -71 26 -98 27 -31 235 -141
322 -169 40 -14 45 -13 95 12 60 31 137 36 193 12 32 -13 36 -13 42 3 4 9 7
56 7 103 0 79 -3 92 -39 165 -27 54 -59 99 -102 142 l-63 62 67 -5 67 -6 -55
50 c-30 28 -58 51 -62 51 -5 0 -8 4 -8 8 0 4 15 9 33 10 84 6 227 38 227 51 0
4 -18 16 -40 26 -22 10 -40 21 -40 25 0 4 19 10 43 14 220 34 622 173 902 313
127 64 335 197 342 220 10 30 -423 115 -661 129 l-109 7 43 37 43 37 -33 6
c-67 14 -243 6 -318 -13z"></path>
<path class="node" id="node10" d="M1730 2413 c-107 -48 -376 -151 -462 -178 -49 -15 -88 -31 -88 -37 0
-5 8 -4 19 2 26 13 41 13 41 -2 -1 -7 -34 -29 -75 -49 -57 -28 -72 -32 -65
-18 6 9 21 26 35 37 14 11 25 22 25 24 0 3 -37 -6 -81 -19 -45 -12 -89 -23
-98 -23 -12 -1 -8 -7 13 -26 15 -14 27 -27 25 -28 -7 -7 -144 -45 -204 -57
l-60 -12 65 -64 65 -65 -65 7 -64 6 51 -53 c92 -98 125 -202 104 -329 -8 -48
-8 -76 -1 -89 19 -35 10 -39 -37 -18 -66 30 -187 36 -236 13 -61 -28 -87 -127
-52 -194 16 -33 77 -61 130 -61 87 0 244 82 246 128 0 13 2 11 9 -4 16 -41
235 -97 452 -115 362 -31 592 40 709 219 69 104 91 169 96 282 8 163 -38 299
-157 460 -60 81 -203 229 -257 268 l-28 20 -55 -25z m50 -103 c-8 -5 -27 -10
-41 -10 -14 0 -40 -5 -58 -11 -35 -12 -47 -8 -38 16 5 12 23 15 79 15 51 0 68
-3 58 -10z m133 -75 c60 -29 91 -84 95 -170 9 -175 -81 -317 -236 -376 -77
-28 -177 -24 -223 11 -18 13 -34 19 -36 14 -3 -9 -31 -53 -55 -86 -10 -14 -9
-21 6 -37 11 -12 14 -21 9 -21 -6 0 -16 6 -22 14 -6 7 -39 26 -74 41 -49 23
-77 29 -137 29 -41 1 -88 -2 -105 -6 -29 -8 -29 -7 -8 8 l21 15 -26 57 c-25
52 -27 68 -27 177 0 102 3 126 21 159 52 101 196 101 311 1 28 -25 53 -45 56
-45 2 0 12 20 21 43 29 76 123 158 216 188 41 14 152 5 193 -16z m252 -389
c38 -16 52 -48 40 -93 -11 -44 -87 -110 -146 -127 -66 -20 -74 -14 -17 14 99
51 152 116 128 160 -25 47 -92 37 -156 -22 -24 -22 -44 -35 -44 -28 0 20 85
98 112 103 41 8 48 7 83 -7z m-1025 -326 c-8 -5 -25 -10 -37 -10 -37 0 -34
-15 15 -62 95 -92 163 -113 367 -112 207 1 333 29 508 114 l62 31 -32 -29
c-63 -55 -240 -113 -408 -133 -111 -14 -265 -5 -348 21 -67 21 -166 76 -209
117 l-27 26 -10 -26 c-6 -15 -13 -27 -16 -27 -12 0 -4 37 15 68 19 30 23 32
77 32 41 0 54 -3 43 -10z m-274 -180 l39 -21 -34 6 c-24 4 -40 0 -53 -12 -15
-13 -35 -17 -81 -16 -45 1 -64 -3 -73 -14 -18 -26 -24 0 -7 34 8 18 27 37 42
42 38 15 123 6 167 -19z"></path>
<path class="node" id="node11" d="M1694 2204 c-63 -33 -111 -80 -153 -149 -30 -49 -32 -59 -22 -81 6
-14 11 -36 11 -49 0 -36 16 -39 30 -4 35 84 160 56 160 -36 0 -78 -93 -115
-145 -59 l-25 27 0 -30 c0 -17 -3 -45 -6 -62 -6 -29 -4 -32 31 -47 82 -34 251
20 328 105 75 83 101 242 54 326 -48 84 -165 111 -263 59z"></path>
<path class="node" id="node12" d="M1194 2091 c-85 -37 -110 -227 -46 -353 l27 -53 73 -7 c40 -4 94 -17
119 -28 25 -11 49 -20 54 -20 15 0 51 44 70 85 23 51 26 177 4 228 -21 50 -71
104 -119 129 -44 23 -148 33 -182 19z m68 -268 c38 -34 11 -113 -39 -113 -36
0 -63 27 -63 63 0 58 60 88 102 50z"></path>
<path class="node" id="node13" d="M711 1341 c-21 -13 -4 -31 30 -31 36 0 72 17 64 31 -8 11 -75 12 -94
0z"></path>
<path class="node" id="node14" d="M2466 1499 c-15 -11 -36 -39 -47 -62 -25 -48 -22 -93 11 -179 17 -48
26 -58 45 -58 19 0 24 6 28 43 18 130 19 157 6 173 -9 11 -1 10 28 -6 51 -26
83 -15 83 28 0 32 -7 42 -40 65 -33 23 -82 21 -114 -4z"></path>
<path class="node" id="node15" d="M2642 1439 c2 -19 19 -30 86 -59 46 -19 79 -36 73 -38 -5 -2 -42 11
-82 28 -61 27 -75 30 -95 20 -12 -7 -36 -11 -52 -8 -34 5 -35 2 -48 -140 -6
-65 -5 -75 14 -95 41 -43 55 -128 31 -181 -11 -23 -7 -30 51 -93 35 -37 66
-69 69 -71 4 -1 13 19 20 44 17 56 66 123 106 144 17 8 32 16 34 17 2 1 -17
25 -42 54 -51 58 -53 43 17 189 20 41 36 80 36 87 0 24 -129 103 -193 119 -26
6 -28 4 -25 -17z"></path>
<path class="node" id="node16" d="M2310 1395 c-25 -13 -79 -36 -120 -51 -41 -15 -91 -40 -110 -54 -19
-15 -60 -43 -91 -63 -54 -34 -57 -38 -64 -86 -4 -28 -11 -54 -16 -57 -5 -3
-43 4 -84 15 -41 12 -76 21 -78 21 -4 0 138 -422 154 -453 16 -34 37 -33 132
11 34 16 79 34 100 41 20 7 37 18 37 24 0 6 -31 81 -69 167 -67 151 -101 235
-101 254 0 6 12 -2 28 -16 25 -24 36 -27 137 -33 123 -7 266 12 294 39 8 9 10
16 5 16 -17 0 -65 116 -77 186 -6 35 -16 64 -22 64 -5 -1 -30 -12 -55 -25z"></path>
<path class="node" id="node17" d="M1230 1171 c36 -29 271 -168 296 -176 28 -7 50 14 80 80 32 68 31 75
-15 75 -42 0 -308 26 -356 36 l-30 5 25 -20z"></path>
<path class="node" id="node18" d="M1815 1173 c-71 -21 -73 -28 -10 -42 64 -14 85 -5 85 35 0 28 -7 28
-75 7z"></path>
<path class="node" id="node19" d="M1105 1124 c-87 -49 -179 -66 -322 -62 l-119 3 -1 -85 c-1 -49 -8
-103 -17 -129 -21 -58 -20 -71 7 -71 66 0 303 87 480 177 72 36 93 37 62 3
-17 -18 -17 -34 -11 -182 4 -107 11 -167 19 -174 58 -53 385 -67 555 -25 114
29 122 38 97 125 -51 181 -147 427 -170 433 -6 2 -31 -39 -55 -89 -32 -67 -51
-94 -65 -96 -19 -3 -319 161 -356 194 -22 19 -35 17 -104 -22z"></path>
<path class="node" id="node20" d="M446 1103 c-81 -82 -8 -157 77 -78 l27 26 0 -116 0 -115 27 -11 c19
-7 28 -6 34 2 16 27 31 133 26 182 -6 46 -12 58 -56 100 -61 58 -85 60 -135
10z"></path>
<path class="node" id="node21" d="M2478 1116 c-9 -22 -8 -34 12 -76 24 -52 46 -77 56 -67 4 3 8 25 11
49 4 34 0 50 -19 77 -30 44 -45 49 -60 17z"></path>
<path class="node" id="node22" d="M320 1008 c-92 -35 -93 -37 -59 -175 l21 -85 -44 -47 c-88 -92 -85
-85 -45 -121 41 -35 93 -113 102 -152 4 -16 10 -28 14 -27 3 0 32 17 64 37
l58 37 5 78 c4 80 18 120 60 170 21 25 24 39 24 112 0 45 -3 95 -6 111 l-5 29
-97 -1 c-82 0 -91 1 -59 9 25 7 37 16 37 29 0 22 -2 22 -70 -4z"></path>
<path class="node" id="node23" d="M2823 959 c-49 -24 -89 -84 -99 -148 l-7 -41 54 0 c30 0 65 6 79 13
30 15 70 73 70 101 0 24 -32 89 -46 92 -5 2 -28 -6 -51 -17z"></path>
<path class="node" id="node24" d="M486 659 c-26 -52 -37 -149 -17 -149 5 0 23 17 41 37 31 34 32 39 26
92 -4 31 -10 59 -15 64 -5 5 -20 -15 -35 -44z"></path>
<path class="node" id="node25" d="M2105 668 c-22 -10 -64 -25 -93 -34 -40 -12 -52 -20 -48 -31 3 -8 6
-42 6 -75 l0 -60 40 7 c60 10 48 -2 -22 -21 l-62 -18 33 -13 c43 -18 36 -24
-14 -13 -22 5 -43 6 -46 2 -6 -7 -29 -170 -29 -207 0 -16 6 -17 51 -12 53 6
139 42 189 77 37 26 42 59 38 261 l-3 155 -40 -18z"></path>
<path class="node" id="node26" d="M1891 608 c-1 -9 -10 -20 -21 -23 -17 -5 -20 -15 -20 -72 0 -55 2
-64 16 -59 9 3 28 6 44 6 32 0 41 24 32 96 -3 34 -9 44 -22 44 -10 0 -21 6
-23 13 -3 7 -6 6 -6 -5z"></path>
<path class="node" id="node27" d="M115 564 c-39 -60 -25 -154 29 -190 19 -12 38 -15 67 -11 55 7 64 17
50 59 -13 37 -106 168 -120 168 -5 0 -16 -12 -26 -26z"></path>
<path class="node" id="node28" d="M1235 547 c-10 -31 -26 -280 -18 -287 14 -13 154 -60 228 -77 77 -17
300 -21 350 -6 29 9 30 12 46 109 9 54 14 101 13 103 -2 2 -15 -4 -28 -13 -39
-25 -43 -19 -11 14 27 28 27 30 7 30 -11 0 -51 -7 -88 -15 -93 -22 -92 -11 3
17 l78 24 3 57 c2 31 -1 57 -5 57 -4 0 -26 -5 -48 -10 -100 -22 -274 -31 -377
-19 -57 6 -113 15 -126 20 -16 6 -24 5 -27 -4z"></path>
<path class="node" id="node29" d="M2208 289 c-21 -5 -55 -20 -75 -33 -31 -21 -135 -66 -203 -89 -10 -3
-1 -11 25 -22 28 -13 73 -19 156 -22 104 -3 119 -1 140 16 20 16 22 23 13 38
-6 10 -22 20 -35 21 -13 2 -28 8 -34 14 -7 6 4 7 30 2 64 -12 90 -11 90 6 0 8
-11 16 -25 18 -14 2 -29 8 -35 14 -7 6 2 7 27 3 41 -8 69 2 47 16 -8 5 -30 9
-49 10 -33 2 -32 2 10 9 l45 7 -45 0 c-25 1 -62 -3 -82 -8z"></path>
<path class="node" id="node30" d="M1135 230 l30 -8 -31 -1 c-31 -1 -60 -22 -48 -34 3 -3 17 -2 31 4 13
5 34 9 46 8 15 0 8 -6 -20 -16 -29 -10 -43 -21 -43 -33 0 -16 3 -17 38 -4 20
7 48 13 62 13 l25 0 -25 -11 c-83 -34 -90 -39 -90 -57 0 -41 60 -52 119 -22
20 10 73 24 118 29 45 6 97 19 115 28 l33 17 -25 8 c-14 4 -84 26 -157 48 -72
23 -148 40 -170 40 -37 -1 -38 -1 -8 -9z"></path>
</g>
</svg>