<!--?xml version="1.0" standalone="no"?-->

<svg version="1.0" xmlns="http://www.w3.org/2000/svg" width="277.000000pt" height="300.000000pt" viewBox="0 0 277.000000 300.000000" preserveAspectRatio="xMidYMid meet">
<g transform="translate(0.000000,300.000000) scale(0.100000,-0.100000)" fill="#0A0A0A" stroke="none">


</g>
<g transform="translate(0.000000,300.000000) scale(0.100000,-0.100000)" fill="#E4BF3C" stroke="none">
<path class="node" id="node3" d="M1500 2954 c-161 -45 -195 -52 -295 -59 -175 -11 -368 -59 -453 -112
-54 -34 -133 -106 -162 -147 -16 -24 -45 -82 -65 -130 -19 -47 -72 -162 -116
-254 -96 -197 -153 -332 -144 -340 9 -9 78 -34 99 -35 15 -2 22 9 32 55 18 78
54 145 103 193 23 21 41 44 41 50 0 15 100 168 106 162 3 -3 -14 -40 -37 -82
l-42 -78 34 6 c19 3 82 11 140 18 100 12 110 12 172 -9 l66 -21 98 46 c94 45
103 47 202 51 112 5 190 -7 258 -39 l42 -20 43 27 c113 71 263 101 378 74 30
-7 109 -14 175 -15 66 -2 135 -8 154 -14 l34 -10 -6 72 c-12 143 -80 317 -164
422 -78 96 -186 157 -359 200 -93 23 -231 19 -334 -11z"></path>
<path class="node" id="node4" d="M1805 2300 c-58 -14 -134 -48 -180 -79 -44 -29 -47 -30 -70 -15 -41
27 -164 54 -245 54 -90 0 -159 -18 -257 -68 l-72 -36 -48 17 c-85 30 -293 18
-372 -23 -78 -40 -146 -146 -158 -249 -5 -44 -2 -56 20 -88 14 -21 29 -57 33
-80 6 -39 10 -43 42 -49 58 -11 232 5 338 31 127 30 188 54 294 116 47 27 93
49 103 49 9 0 25 -10 35 -21 52 -64 244 -99 445 -80 142 14 224 41 284 96 l48
43 56 -29 c89 -44 173 -69 238 -69 49 0 65 4 90 25 37 32 55 83 54 161 -1 113
-46 210 -115 246 -36 19 -65 23 -188 29 -80 3 -163 11 -185 17 -45 13 -144 14
-190 2z"></path>
<path class="node" id="node5" d="M2004 1862 c-63 -56 -143 -82 -294 -95 -118 -10 -129 -13 -132 -32
-2 -12 -12 -21 -25 -23 -17 -3 -22 2 -25 25 -3 27 -5 28 -78 35 -81 9 -152 37
-188 75 -27 29 -41 26 -120 -24 -30 -19 -79 -46 -108 -59 -112 -49 -315 -94
-429 -94 -43 0 -65 -17 -65 -50 0 -24 364 -169 426 -170 20 0 21 3 11 40 -14
50 8 101 55 131 51 31 129 22 171 -20 28 -27 32 -38 32 -85 0 -39 -5 -60 -19
-75 -11 -12 -17 -23 -15 -25 6 -5 169 -19 169 -14 0 2 -22 28 -50 58 -49 52
-80 118 -72 152 5 25 43 33 154 32 103 -1 138 -15 138 -55 0 -26 -40 -96 -84
-146 l-39 -45 79 7 c43 4 81 9 83 11 2 1 -6 15 -18 30 -51 65 -2 172 86 190
49 9 91 -5 130 -43 33 -34 35 -39 31 -89 -4 -50 -3 -54 17 -54 47 0 309 83
437 139 52 22 50 14 18 111 -40 122 -35 115 -113 145 -39 16 -81 34 -92 42
-26 17 -24 18 -71 -25z m-744 -117 c15 -18 5 -35 -20 -35 -10 0 -22 5 -25 10
-7 11 12 40 25 40 4 0 13 -7 20 -15z"></path>
<path class="node" id="node6" d="M135 1868 c-22 -11 -48 -28 -59 -37 -51 -45 -72 -151 -42 -210 21
-39 77 -87 121 -101 58 -19 146 -9 194 23 132 87 127 253 -9 322 -63 32 -147
34 -205 3z"></path>
<path class="node" id="node7" d="M2260 1808 c0 -9 58 -179 62 -183 3 -3 22 2 43 10 34 15 37 19 31 45
-3 16 -16 51 -28 77 -22 45 -26 48 -65 51 -24 2 -43 2 -43 0z"></path>
<path class="node" id="node8" d="M460 1667 c0 -7 13 -21 30 -30 28 -17 29 -17 40 3 12 22 11 23 -42
34 -20 5 -28 2 -28 -7z"></path>
<path class="node" id="node9" d="M430 1605 c-26 -43 -35 -76 -55 -210 -25 -172 -31 -158 83 -213 138
-66 146 -69 241 -98 159 -48 352 -84 459 -84 35 0 61 -4 58 -9 -6 -9 -30 -7
-191 10 -151 16 -363 72 -493 131 -35 15 -66 28 -69 28 -13 0 7 -222 26 -296
48 -185 147 -400 220 -477 99 -105 209 -129 641 -143 107 -4 197 -8 199 -10
11 -10 -274 -2 -445 11 -202 16 -257 27 -327 68 -91 53 -142 128 -227 332 -66
159 -90 256 -96 380 -7 146 -8 148 -50 169 -52 24 -56 12 -49 -118 7 -119 18
-194 42 -271 27 -90 74 -230 83 -250 5 -11 19 -45 30 -76 41 -114 154 -251
234 -284 131 -55 497 -81 902 -65 350 14 499 31 565 65 51 27 107 129 154 285
29 93 63 235 59 239 -4 4 -77 -33 -101 -51 -6 -5 -26 -55 -43 -111 -38 -119
-67 -174 -107 -203 -104 -77 -251 -115 -463 -119 l-145 -3 135 8 c275 17 465
84 516 182 23 44 82 228 74 233 -3 2 -24 -2 -47 -8 -54 -14 -79 2 -122 78 -17
31 -42 60 -54 64 -15 6 -40 45 -79 124 -31 63 -60 117 -65 120 -4 2 -37 -2
-73 -9 -104 -22 -242 -34 -435 -38 -99 -2 -148 -2 -110 0 473 24 673 57 1068
179 l117 36 0 38 c0 77 -60 375 -79 394 -4 4 -50 -12 -102 -37 -200 -93 -495
-175 -703 -195 -220 -22 -453 -9 -631 35 -195 48 -235 64 -516 202 -4 2 -17
-13 -29 -33z"></path>
<path class="node" id="node10" d="M1302 1633 c-40 -5 -48 -23 -33 -73 14 -47 99 -140 128 -140 41 0
142 146 127 184 -3 8 -13 17 -22 21 -22 8 -159 14 -200 8z"></path>
<path class="node" id="node11" d="M1042 1610 c-18 -11 -40 -37 -48 -57 -13 -31 -14 -41 -2 -72 11 -28
22 -38 53 -48 113 -34 180 -3 180 83 0 89 -105 143 -183 94z"></path>
<path class="node" id="node12" d="M1621 1613 c-74 -37 -90 -122 -33 -174 28 -25 32 -26 98 -17 55 7 74
14 92 34 42 47 17 125 -51 157 -44 21 -63 21 -106 0z"></path>
<path class="node" id="node13" d="M2495 1330 c4 -52 7 -145 6 -205 -2 -86 2 -124 18 -175 30 -95 28
-111 -23 -163 -51 -50 -77 -117 -56 -142 18 -22 168 -95 195 -95 53 0 115 182
115 340 0 176 -85 366 -220 495 l-42 40 7 -95z"></path>
<path class="node" id="node14" d="M294 1318 c-108 -146 -160 -306 -150 -459 9 -137 69 -299 110 -299
21 0 124 45 152 66 l26 19 -30 100 c-17 55 -37 132 -43 170 -15 80 -18 310 -6
403 5 42 5 62 -3 62 -5 0 -31 -28 -56 -62z"></path>
<path class="node" id="node15" d="M2467 1184 c-8 -8 2 -55 14 -68 5 -6 9 8 9 32 0 39 -8 51 -23 36z"></path>
<path class="node" id="node16" d="M2405 1161 c-3 -6 0 -42 6 -81 l12 -71 -29 -31 c-47 -49 -153 -126
-221 -160 -35 -17 -63 -36 -63 -42 0 -6 15 -34 33 -61 32 -49 33 -50 84 -50
69 1 186 59 254 127 58 58 57 46 12 213 -17 61 -33 122 -37 138 -6 27 -38 38
-51 18z"></path>
<path class="node" id="node17" d="M2300 1128 c-36 -11 -119 -33 -185 -49 -66 -16 -132 -33 -146 -37
l-27 -7 58 -115 57 -115 36 1 c49 2 173 74 254 148 l64 59 -7 46 c-8 55 -21
91 -31 90 -5 -1 -37 -10 -73 -21z"></path>
<path class="node" id="node18" d="M866 142 c-10 -9 17 -49 47 -69 48 -33 151 -56 217 -50 74 8 143 33
169 61 l21 23 -169 12 c-93 7 -194 16 -225 20 -31 4 -58 6 -60 3z"></path>
<path class="node" id="node19" d="M1730 123 c-118 -8 -217 -16 -220 -19 -3 -3 7 -16 23 -30 84 -72 309
-71 397 2 26 23 42 66 23 63 -5 -1 -105 -8 -223 -16z"></path>
</g>
</svg>