<!--?xml version="1.0" standalone="no"?--><svg version="1.0" xmlns="http://www.w3.org/2000/svg" width="300.000000pt" height="215.000000pt" viewBox="0 0 300.000000 215.000000" preserveAspectRatio="xMidYMid meet">
<metadata>
  <rdf:rdf xmlns:rdf="http://www.w3.org/1999/02/22-rdf-syntax-ns#" xmlns:rdfs="http://www.w3.org/2000/01/rdf-schema#" xmlns:dc="http://purl.org/dc/elements/1.1/">
    <rdf:description dc:title="Panda Christmas lying" dc:publisher="Hiox" dc:date="2015-12-07" dc:format="image/svg+xml" dc:language="en">
      <dc:creator>
        <rdf:bag>
          <rdf:li>svgimages.com</rdf:li>
        </rdf:bag>
      </dc:creator>
    </rdf:description>
  </rdf:rdf>
</metadata>
<g transform="translate(0.000000,215.000000) scale(0.100000,-0.100000)" fill="#3E529E" stroke="none">
<path d="M1120 1875 c-207 -46 -340 -184 -357 -367 -5 -45 -10 -59 -24 -63
-11 -4 -33 -18 -49 -32 -23 -19 -30 -33 -30 -62 0 -33 20 -77 43 -92 5 -4 -11
-20 -35 -37 -42 -29 -47 -30 -88 -20 -121 31 -242 -72 -226 -192 3 -25 15 -57
26 -72 19 -26 19 -29 4 -90 -58 -227 97 -436 366 -493 98 -21 147 -14 286 41
95 37 123 44 181 44 69 -1 92 -7 282 -79 146 -55 267 -52 401 11 109 53 206
169 225 271 6 31 15 42 47 58 29 15 48 18 71 13 59 -13 118 -5 170 23 64 35
99 88 105 157 4 45 1 56 -22 83 -14 17 -39 36 -56 43 -30 12 -30 14 -30 86 0
116 -66 268 -170 393 -49 59 -49 60 -34 90 26 51 -7 110 -73 132 -28 9 -40 7
-77 -10 l-43 -21 -64 29 c-90 41 -170 60 -301 72 -101 9 -121 15 -196 52 -77
38 -90 41 -175 44 -54 1 -119 -3 -157 -12z m695 -140 c87 -24 211 -85 284
-140 116 -88 238 -271 272 -408 19 -78 7 -193 -29 -268 -32 -67 -99 -139 -164
-178 l-37 -22 -7 48 c-4 26 -11 59 -16 72 -6 17 -4 29 6 40 49 56 59 136 26
201 -36 70 -132 113 -205 92 -27 -8 -37 -3 -93 40 -35 26 -99 65 -142 86 -77
37 -78 37 -76 74 0 21 2 38 4 38 1 0 26 -16 55 -35 48 -32 102 -54 169 -69 16
-4 29 -15 33 -29 11 -33 54 -75 85 -82 40 -9 96 18 114 54 26 50 21 88 -18
127 -41 41 -97 47 -139 14 -24 -19 -29 -20 -55 -6 -39 20 -97 85 -170 193 -35
50 -82 113 -105 139 l-42 47 95 -6 c52 -3 122 -14 155 -22z m-283 -255 c21 -6
44 -21 53 -33 17 -24 21 -102 5 -112 -5 -3 -38 2 -72 11 -100 26 -300 14 -513
-30 -205 -43 -277 -46 -299 -14 -27 38 -20 76 16 98 42 25 217 67 359 85 128
16 392 13 451 -5z m521 -110 c64 -51 31 -149 -51 -150 -44 0 -82 38 -82 83 0
72 77 111 133 67z m-540 -56 c33 -8 70 -13 81 -10 29 8 172 -63 246 -123 100
-80 177 -179 230 -296 34 -75 39 -202 10 -277 -38 -103 -140 -195 -255 -231
-121 -38 -210 -29 -379 38 -196 77 -275 78 -424 7 -75 -36 -80 -37 -187 -36
-88 1 -122 6 -167 23 -168 65 -263 194 -262 356 0 57 5 82 31 137 41 87 78
140 144 207 80 79 155 127 214 135 28 4 127 22 220 41 211 42 208 42 334 44
66 0 125 -5 164 -15z" id="node1" class="node"></path>
<path d="M763 816 c-41 -34 -58 -83 -43 -122 26 -67 90 -99 151 -74 73 30 94
122 41 181 -40 45 -106 52 -149 15z m135 -99 c4 -20 -25 -34 -40 -19 -15 15
-1 44 19 40 10 -2 19 -11 21 -21z" id="node2" class="node"></path>
<path d="M1568 781 c-27 -24 -33 -36 -33 -69 0 -50 33 -89 81 -98 93 -17 153
99 85 167 -40 40 -89 40 -133 0z m42 -71 c0 -24 -25 -33 -40 -14 -10 11 -10
17 0 28 15 19 40 10 40 -14z" id="node3" class="node"></path>
<path d="M1144 695 c-26 -26 -23 -46 11 -75 27 -23 101 -17 130 10 31 29 31
35 0 65 -34 35 -106 35 -141 0z" id="node4" class="node"></path>
<path d="M1410 589 c-106 -70 -223 -76 -339 -17 -86 43 -88 44 -74 26 23 -27
111 -68 169 -79 42 -8 74 -7 119 1 63 12 175 66 183 88 6 18 -9 13 -58 -19z" id="node5" class="node"></path>
</g>
<g transform="translate(0.000000,215.000000) scale(0.100000,-0.100000)" fill="#DE544C" stroke="none">







</g>
</svg>