<!--?xml version="1.0" standalone="no"?-->

<svg version="1.0" xmlns="http://www.w3.org/2000/svg" width="201.000000pt" height="300.000000pt" viewBox="0 0 201.000000 300.000000" preserveAspectRatio="xMidYMid meet">
<g transform="translate(0.000000,300.000000) scale(0.100000,-0.100000)" fill="#070707" stroke="none">

<path class="node" id="node2" d="M670 2405 c-7 -8 -12 -34 -12 -56 1 -84 64 -93 70 -11 5 67 -27 104
-58 67z"></path>
<path class="node" id="node3" d="M787 2402 c-30 -33 -16 -122 18 -122 25 0 48 47 41 82 -6 32 -22 58
-36 58 -4 0 -14 -8 -23 -18z"></path>
</g>
<g transform="translate(0.000000,300.000000) scale(0.100000,-0.100000)" fill="#A1A1A1" stroke="none">
<path class="node" id="node4" d="M191 2935 c-23 -91 -42 -360 -22 -310 5 11 12 49 16 85 12 117 35
200 53 200 25 0 91 -37 145 -83 72 -60 71 -34 -2 35 -65 61 -145 118 -167 118
-6 0 -17 -20 -23 -45z"></path>
<path class="node" id="node5" d="M1274 2941 c-46 -28 -160 -138 -152 -146 4 -4 35 13 69 39 61 46 99
63 118 52 11 -7 37 -116 46 -201 9 -70 24 -108 25 -58 0 53 -21 228 -34 280
-14 55 -28 61 -72 34z"></path>
<path class="node" id="node6" d="M226 2873 c-11 -38 -36 -200 -36 -235 0 -21 5 -38 10 -38 6 0 10 4
10 9 0 20 115 133 158 155 l44 22 -44 36 c-79 64 -132 83 -142 51z"></path>
<path class="node" id="node7" d="M1221 2839 c-73 -49 -79 -57 -53 -75 38 -26 110 -108 139 -156 15
-26 31 -48 36 -48 19 0 -14 272 -38 310 -10 16 -19 12 -84 -31z"></path>
<path class="node" id="node8" d="M575 2815 c-151 -28 -223 -64 -298 -145 -90 -97 -163 -262 -192 -438
l-7 -43 39 8 c59 12 349 6 440 -9 79 -14 83 -14 102 6 17 16 33 20 92 20 62
-1 75 -4 90 -23 l18 -22 73 20 c162 45 408 69 477 47 24 -8 24 -8 17 43 -15
114 -79 257 -170 378 -51 68 -100 105 -175 134 -99 37 -367 50 -506 24z m145
-415 c6 -12 10 -39 8 -62 -6 -82 -69 -73 -70 11 -1 63 38 95 62 51z m109 7
c21 -26 24 -75 7 -102 -9 -14 -23 -25 -31 -25 -34 0 -48 89 -18 122 19 22 27
22 42 5z"></path>
<path class="node" id="node9" d="M1130 2219 c-109 -17 -272 -62 -277 -76 -9 -24 1 -24 88 -3 167 39
374 44 461 11 33 -12 35 -10 30 33 -3 25 -10 36 -25 40 -32 8 -213 5 -277 -5z"></path>
<path class="node" id="node10" d="M146 2190 c-72 -13 -76 -16 -76 -56 0 -30 3 -35 18 -29 91 35 333 48
482 25 83 -12 80 -13 80 5 0 22 -31 31 -169 49 -130 17 -254 19 -335 6z"></path>
<path class="node" id="node11" d="M672 2188 c-17 -17 -15 -48 8 -85 28 -46 52 -57 93 -39 41 17 67 51
67 86 0 40 -18 50 -90 50 -38 0 -71 -5 -78 -12z"></path>
<path class="node" id="node12" d="M1055 2150 c-126 -23 -197 -43 -223 -64 -15 -13 -37 -28 -49 -35 -22
-11 -23 -17 -23 -135 l0 -122 36 -42 c53 -62 103 -54 174 29 36 42 39 35 5
-11 -34 -46 -73 -70 -117 -70 -32 0 -42 7 -74 45 l-38 44 -17 -29 c-47 -76
-113 -77 -185 -3 -25 25 -43 48 -40 50 2 2 25 -16 50 -41 38 -39 52 -46 84
-46 40 0 67 20 91 67 6 12 11 71 11 137 0 103 -2 115 -19 121 -10 3 -30 18
-43 34 -23 25 -37 30 -124 41 -136 17 -352 9 -424 -16 l-55 -19 -3 -47 c-7
-103 51 -247 135 -338 132 -143 332 -209 591 -197 357 18 559 161 616 439 9
42 16 102 16 132 0 52 -1 55 -32 66 -40 16 -275 22 -343 10z"></path>
<path class="node" id="node13" d="M317 1413 c-147 -469 -170 -797 -70 -997 27 -54 51 -86 64 -86 4 0 6
163 4 363 -2 211 0 333 5 292 4 -38 8 -237 9 -441 l1 -371 -35 -32 c-38 -34
-44 -61 -19 -85 33 -34 85 -8 114 58 l19 41 0 -37 c2 -115 92 -132 123 -24 14
50 28 68 28 38 0 -13 7 -37 16 -53 12 -24 21 -30 41 -27 47 5 51 31 14 83 -29
40 -34 57 -42 138 -10 105 -10 526 0 667 4 56 7 -65 8 -300 0 -217 5 -411 10
-430 l9 -35 124 -3 c150 -3 166 0 174 34 9 35 9 374 0 634 -3 113 -4 202 -1
199 11 -9 30 -660 23 -751 -7 -73 -13 -95 -37 -130 -37 -55 -38 -85 -3 -94 32
-8 55 12 70 64 l11 37 12 -42 c16 -58 51 -98 78 -89 25 8 53 62 53 103 0 26 1
26 19 -13 24 -52 71 -73 108 -49 38 25 25 64 -35 107 -18 12 -19 35 -24 451
-3 240 -1 437 4 437 4 0 8 -177 8 -394 0 -243 4 -397 10 -401 17 -10 91 75
121 138 66 143 60 303 -22 647 -47 194 -148 500 -165 500 -6 0 -31 -9 -55 -19
-158 -70 -510 -70 -665 -2 -26 12 -50 21 -54 21 -3 0 -27 -66 -53 -147z"></path>
<path class="node" id="node14" d="M1904 1528 c-30 -33 -75 -109 -133 -225 -99 -194 -213 -345 -347
-460 -20 -17 -21 -25 -16 -125 2 -60 8 -108 12 -108 16 0 137 96 209 164 160
154 300 380 346 558 23 87 17 174 -14 199 -29 24 -33 24 -57 -3z"></path>
<path class="node" id="node15" d="M1366 859 c24 -157 32 -192 33 -154 1 52 -17 167 -29 179 -6 6 -7 -4
-4 -25z"></path>
<path class="node" id="node16" d="M162 687 c-1 -49 3 -120 10 -159 9 -58 9 -73 -1 -76 -7 -2 -28 -18
-47 -34 -34 -30 -45 -70 -23 -84 63 -38 188 -6 151 39 -36 43 -70 174 -82 312
l-7 90 -1 -88z"></path>
<path class="node" id="node17" d="M1338 400 c-26 -58 -26 -60 -8 -70 28 -15 87 -12 120 5 32 16 38 41
18 67 -15 19 -78 58 -93 58 -5 -1 -22 -27 -37 -60z"></path>
</g>
</svg>