<!--?xml version="1.0" standalone="no"?-->

<svg version="1.0" xmlns="http://www.w3.org/2000/svg" width="256.000000pt" height="300.000000pt" viewBox="0 0 256.000000 300.000000" preserveAspectRatio="xMidYMid meet">
<g transform="translate(0.000000,300.000000) scale(0.100000,-0.100000)" fill="#1C1C1C" stroke="none">
<path class="node" id="node1" d="M400 2990 c-181 -34 -305 -138 -364 -307 -13 -37 -27 -89 -31 -115
-5 -42 -4 -48 12 -48 10 0 27 14 37 32 73 123 231 218 364 218 138 0 229 -89
257 -250 l14 -75 -57 -60 c-56 -59 -58 -60 -125 -67 -71 -8 -148 -39 -226 -92
-53 -35 -171 -150 -171 -166 0 -28 194 -79 247 -65 13 3 23 3 23 0 0 -3 -24
-41 -54 -84 -148 -215 -216 -453 -203 -711 12 -224 69 -400 190 -580 67 -100
126 -167 203 -231 l64 -53 -17 -25 c-47 -72 -69 -164 -52 -225 8 -27 19 -39
57 -58 45 -22 56 -23 282 -23 232 1 236 1 292 27 42 20 59 33 64 52 6 24 10
26 65 26 53 0 59 -2 71 -27 30 -64 158 -88 428 -81 144 4 170 8 207 27 23 11
48 31 54 43 20 37 5 139 -30 204 -17 32 -31 62 -31 68 1 6 23 29 50 51 103 83
211 227 282 374 83 172 113 328 105 536 -6 150 -35 287 -83 393 -13 29 -24 56
-24 60 0 10 -117 190 -135 209 -21 21 -18 35 5 28 46 -15 250 36 250 62 0 17
-60 81 -129 135 -93 75 -183 117 -271 126 -61 7 -68 10 -108 54 l-44 47 12 78
c12 79 45 159 84 201 39 44 109 72 178 72 133 0 291 -95 364 -218 10 -18 27
-32 37 -32 16 0 17 6 12 48 -15 106 -69 221 -141 296 -111 117 -330 164 -499
107 -177 -59 -331 -186 -407 -335 l-20 -38 -66 8 c-83 11 -230 12 -299 1 l-52
-8 -20 38 c-53 104 -158 211 -274 277 -113 64 -271 97 -377 76z m208 -45 c240
-57 497 -337 438 -478 -42 -101 -222 -152 -291 -83 -13 13 -26 42 -30 67 -3
24 -15 78 -26 119 -71 269 -346 315 -592 99 -67 -59 -69 -52 -15 58 34 70 101
141 168 179 90 51 229 67 348 39z m1587 0 c118 -27 219 -108 273 -218 54 -110
52 -117 -15 -58 -80 70 -153 109 -236 127 -86 18 -150 10 -216 -27 -89 -51
-140 -148 -166 -318 -4 -25 -17 -54 -30 -67 -69 -69 -249 -18 -291 83 -59 139
197 420 434 477 75 19 173 19 247 1z m-786 -371 l61 -7 0 -49 c0 -78 40 -133
130 -178 80 -41 208 -26 239 27 10 16 16 13 56 -29 38 -40 52 -48 82 -48 62 0
165 -38 243 -89 78 -52 158 -126 147 -137 -11 -11 -120 -34 -164 -34 -23 0
-63 7 -89 16 -25 8 -48 13 -51 11 -2 -3 3 -51 12 -107 26 -154 18 -301 -23
-405 -18 -44 -54 -115 -82 -158 -139 -211 -432 -416 -642 -448 -102 -16 -198
6 -335 76 -264 137 -458 349 -528 580 -31 99 -33 215 -8 357 9 54 14 101 10
104 -3 4 -24 -1 -47 -10 -22 -9 -62 -16 -88 -16 -49 0 -158 22 -170 35 -10 10
107 114 173 154 60 37 169 71 224 71 29 0 42 9 86 57 l52 57 18 -27 c56 -86
220 -80 318 12 42 38 57 73 57 130 0 47 2 50 28 54 46 7 226 7 291 1z m-997
-752 c-5 -175 3 -222 59 -341 73 -156 212 -311 385 -427 89 -60 95 -68 143
-194 12 -30 24 -79 28 -108 3 -29 10 -55 16 -59 6 -3 25 10 44 30 18 21 37 37
42 37 4 0 13 -46 20 -102 11 -90 27 -167 47 -230 8 -25 33 -22 43 5 4 12 14
58 21 102 13 84 39 153 48 125 7 -22 66 -111 95 -142 50 -54 68 -27 36 53 -22
56 -39 219 -23 219 5 0 26 -18 47 -40 20 -22 46 -40 56 -40 18 0 19 7 18 83
-1 69 3 91 25 137 28 61 28 61 147 144 275 194 433 471 417 731 -3 50 -8 108
-11 130 l-6 40 31 -35 c50 -56 129 -197 167 -294 38 -102 73 -286 73 -391 0
-95 -33 -285 -65 -368 -62 -165 -146 -296 -270 -420 -98 -98 -106 -102 -138
-76 -126 99 -325 96 -445 -7 -60 -51 -101 -116 -115 -179 l-11 -55 -61 0 -62
0 -11 51 c-14 61 -69 147 -118 184 -19 14 -60 38 -92 52 -106 48 -254 30 -350
-43 -20 -16 -39 -23 -51 -19 -34 10 -190 176 -245 259 -75 113 -110 187 -145
305 -83 280 -56 569 78 826 39 75 124 205 134 205 2 0 1 -67 -1 -148z m688
-892 c117 -42 212 -42 335 0 49 16 90 29 91 27 1 -1 -4 -27 -12 -57 -8 -30
-14 -71 -14 -92 0 -21 -2 -38 -5 -38 -3 0 -21 18 -41 40 -20 22 -40 37 -45 34
-5 -3 -16 -22 -25 -42 -15 -37 -15 -108 2 -176 11 -45 -8 -25 -41 43 -17 34
-35 61 -41 61 -26 0 -48 -54 -78 -193 -10 -44 -23 -23 -31 50 -4 38 -13 97
-21 133 -7 36 -14 86 -14 113 0 35 -4 47 -15 47 -8 0 -15 -5 -15 -12 0 -16
-53 -118 -61 -118 -4 0 -10 19 -14 43 -4 23 -18 68 -31 99 -13 32 -24 60 -24
63 0 9 12 6 100 -25z m-102 -531 c85 -42 146 -119 173 -220 29 -107 -7 -129
-218 -137 l-143 -5 0 51 c0 27 7 84 16 127 9 42 13 83 10 92 -6 14 -9 13 -29
-5 -35 -33 -75 -121 -88 -196 l-11 -68 -57 7 c-79 9 -105 30 -109 89 -6 84 60
194 146 248 87 53 219 61 310 17z m830 0 c55 -27 122 -93 147 -146 10 -20 21
-66 25 -100 5 -52 3 -66 -10 -78 -19 -17 -122 -40 -143 -32 -8 3 -17 27 -20
57 -7 56 -51 159 -85 200 -17 20 -23 22 -31 11 -5 -8 -5 -26 0 -45 5 -17 12
-75 16 -128 l6 -98 -105 0 c-120 0 -215 15 -240 37 -46 41 0 193 80 265 46 42
71 56 127 75 58 19 174 10 233 -18z m-1053 -293 c-7 -54 -25 -79 -25 -35 0 26
22 101 27 95 3 -2 2 -29 -2 -60z m1013 -3 c7 -43 7 -53 -4 -53 -10 0 -14 15
-14 57 0 67 5 66 18 -4z"></path>
<path class="node" id="node2" d="M921 2119 c-64 -16 -143 -96 -166 -170 -23 -72 -15 -129 28 -199 84
-140 273 -162 390 -45 117 117 84 319 -65 396 -45 23 -129 31 -187 18z m166
-45 c18 -9 48 -33 67 -54 79 -88 72 -214 -15 -297 -44 -41 -77 -53 -148 -53
-146 0 -242 130 -202 273 14 47 39 80 90 116 60 43 136 48 208 15z"></path>
<path class="node" id="node3" d="M1000 1890 c-38 -38 -15 -115 35 -121 62 -9 106 41 85 96 -18 46 -85
60 -120 25z"></path>
<path class="node" id="node4" d="M1450 2110 c-193 -66 -217 -338 -40 -445 53 -32 147 -44 203 -26 55
19 113 66 143 118 24 39 28 59 29 117 0 120 -63 209 -172 242 -61 18 -97 17
-163 -6z m196 -45 c45 -27 54 -35 81 -85 30 -53 35 -99 18 -157 -30 -100 -100
-153 -205 -153 -97 0 -151 34 -199 125 -35 67 -23 154 31 220 69 83 180 104
274 50z"></path>
<path class="node" id="node5" d="M1435 1885 c-40 -39 -31 -89 18 -110 79 -33 144 56 84 113 -31 29
-72 28 -102 -3z"></path>
<path class="node" id="node6" d="M1102 1308 c-38 -38 12 -138 69 -138 40 0 55 30 40 81 -17 58 -77 89
-109 57z"></path>
<path class="node" id="node7" d="M1346 1291 c-22 -23 -27 -36 -24 -66 4 -44 24 -61 62 -51 29 7 66 58
66 92 0 26 -30 54 -56 54 -11 0 -33 -13 -48 -29z"></path>
</g>
<g transform="translate(0.000000,300.000000) scale(0.100000,-0.100000)" fill="#BAC762" stroke="none">



<path class="node" id="node11" d="M360 2945 c-113 -27 -215 -110 -268 -218 -54 -110 -52 -117 15 -58
80 70 153 109 236 127 86 18 150 10 216 -27 89 -51 140 -148 166 -318 4 -25
17 -54 30 -67 69 -69 249 -18 291 83 36 84 -47 234 -195 353 -152 122 -324
166 -491 125z"></path>
<path class="node" id="node12" d="M1948 2944 c-237 -57 -493 -338 -434 -477 42 -101 222 -152 291 -83
13 13 26 42 30 67 3 24 15 78 26 119 71 269 346 315 592 99 67 -59 69 -52 15
58 -34 70 -101 141 -168 179 -90 51 -235 67 -352 38z"></path>


<path class="node" id="node15" d="M1118 2573 c-26 -4 -28 -7 -28 -54 0 -57 -15 -92 -57 -130 -49 -47
-111 -72 -178 -72 -69 0 -113 18 -140 60 l-18 27 -52 -57 c-44 -48 -57 -57
-86 -57 -55 0 -164 -34 -224 -71 -66 -40 -183 -144 -173 -154 12 -13 121 -35
170 -35 26 0 66 7 88 16 23 9 44 14 47 10 4 -3 -1 -50 -10 -104 -10 -53 -17
-137 -17 -186 0 -238 145 -472 413 -670 76 -56 241 -133 322 -151 100 -23 190
-11 307 40 251 108 482 336 570 560 41 104 49 251 23 405 -9 56 -14 104 -12
107 3 2 26 -3 51 -11 26 -9 66 -16 89 -16 44 0 153 23 164 34 11 11 -69 85
-147 137 -78 51 -181 89 -243 89 -30 0 -44 8 -82 48 -40 42 -46 45 -56 29 -31
-53 -159 -68 -239 -27 -90 45 -130 100 -130 178 l0 49 -61 7 c-65 6 -245 6
-291 -1z m-10 -472 c117 -60 169 -204 116 -321 -63 -139 -231 -193 -359 -114
-34 20 -60 48 -82 84 -43 70 -51 127 -28 199 23 74 102 154 166 170 58 13 142
5 187 -18z m505 15 c109 -33 172 -122 172 -242 -1 -58 -5 -78 -29 -117 -30
-52 -88 -99 -143 -118 -56 -18 -150 -6 -203 26 -177 107 -153 379 40 445 66
23 102 24 163 6z m-436 -811 c30 -21 49 -85 34 -114 -29 -53 -121 2 -121 73 0
54 41 73 87 41z m255 -2 c23 -21 23 -50 -2 -90 -21 -35 -63 -52 -89 -36 -9 6
-17 27 -19 48 -3 30 2 43 24 66 31 33 59 37 86 12z"></path>
<path class="node" id="node16" d="M944 2091 c-68 -17 -136 -83 -155 -148 -40 -143 56 -273 202 -273 71
0 104 12 148 53 87 83 94 209 15 297 -55 61 -138 89 -210 71z m147 -192 c48
-25 42 -113 -9 -126 -59 -15 -102 14 -102 68 0 55 60 86 111 58z"></path>
<path class="node" id="node17" d="M1495 2091 c-137 -34 -214 -183 -154 -296 48 -91 102 -125 199 -125
105 0 175 53 205 153 21 70 4 141 -48 205 -36 45 -142 78 -202 63z m42 -203
c60 -57 -5 -146 -84 -113 -49 21 -58 71 -18 110 30 31 71 32 102 3z"></path>
<path class="node" id="node18" d="M368 1913 c-159 -216 -236 -497 -208 -765 26 -262 137 -493 326 -681
47 -48 95 -89 105 -92 12 -4 31 3 51 19 161 122 400 80 513 -89 19 -29 40 -76
47 -104 l11 -51 62 0 61 0 11 55 c31 148 177 258 343 258 79 0 159 -27 217
-72 32 -26 40 -22 138 76 124 124 208 255 270 420 32 83 65 273 65 368 0 105
-35 289 -73 391 -38 97 -117 238 -167 294 l-31 35 6 -40 c35 -235 -4 -408
-134 -592 -68 -96 -170 -197 -272 -269 -119 -83 -119 -83 -147 -144 -22 -46
-26 -68 -25 -137 1 -76 0 -83 -18 -83 -10 0 -36 18 -56 40 -21 22 -42 40 -47
40 -16 0 1 -163 23 -219 32 -80 14 -107 -36 -53 -29 31 -88 120 -95 142 -9 28
-35 -41 -48 -125 -7 -44 -17 -90 -21 -102 -10 -27 -35 -30 -43 -5 -20 63 -36
140 -47 230 -7 56 -16 102 -20 102 -5 0 -24 -16 -42 -37 -19 -20 -38 -33 -44
-30 -6 4 -13 30 -16 59 -4 29 -16 78 -28 108 -48 126 -54 134 -143 194 -173
116 -312 271 -385 427 -56 119 -64 166 -59 341 2 81 3 148 1 148 -1 0 -21 -26
-45 -57z"></path>
<path class="node" id="node19" d="M1000 955 c0 -3 11 -31 24 -63 13 -31 27 -76 31 -99 4 -24 10 -43 14
-43 8 0 61 102 61 118 0 7 7 12 15 12 11 0 15 -12 15 -47 0 -27 7 -77 14 -113
8 -36 17 -95 21 -133 8 -73 21 -94 31 -50 30 139 52 193 78 193 6 0 24 -27 41
-61 33 -68 52 -88 41 -43 -17 68 -17 139 -2 176 9 20 20 39 25 42 5 3 25 -12
45 -34 20 -22 38 -40 41 -40 3 0 5 17 5 38 0 21 6 62 14 92 8 30 13 56 12 57
-1 2 -42 -11 -91 -27 -123 -42 -218 -42 -335 0 -88 31 -100 34 -100 25z"></path>
<path class="node" id="node20" d="M763 416 c-128 -42 -228 -170 -221 -282 4 -59 30 -80 109 -89 l57 -7
11 68 c13 75 53 163 88 196 20 18 23 19 29 5 3 -9 -1 -50 -10 -92 -9 -43 -16
-100 -16 -127 l0 -51 143 5 c211 8 247 30 218 137 -27 101 -88 178 -173 220
-60 28 -175 37 -235 17z"></path>
<path class="node" id="node21" d="M1595 417 c-56 -19 -81 -33 -127 -75 -80 -72 -126 -224 -80 -265 25
-22 120 -37 240 -37 l105 0 -6 98 c-4 53 -11 111 -16 128 -5 19 -5 37 0 45 8
11 14 9 31 -11 34 -41 78 -144 85 -200 3 -30 12 -54 20 -57 21 -8 124 15 143
32 13 12 15 26 10 78 -4 34 -15 80 -25 100 -25 53 -92 119 -147 146 -59 28
-175 37 -233 18z"></path>
<path class="node" id="node22" d="M762 131 c-14 -46 -15 -81 -3 -81 9 0 26 108 18 116 -2 2 -9 -13 -15
-35z"></path>
<path class="node" id="node23" d="M1770 107 c0 -42 4 -57 14 -57 11 0 11 10 4 53 -13 70 -18 71 -18 4z"></path>

</g>
</svg>