<!--?xml version="1.0" standalone="no"?--><svg version="1.0" xmlns="http://www.w3.org/2000/svg" width="300.000000pt" height="300.000000pt" viewBox="0 0 300.000000 300.000000" preserveAspectRatio="xMidYMid meet">
<metadata>
  <rdf:rdf xmlns:rdf="http://www.w3.org/1999/02/22-rdf-syntax-ns#" xmlns:rdfs="http://www.w3.org/2000/01/rdf-schema#" xmlns:dc="http://purl.org/dc/elements/1.1/">
    <rdf:description dc:title="Panda Christmas cute" dc:publisher="Hiox" dc:date="2015-12-07" dc:format="image/svg+xml" dc:language="en">
      <dc:creator>
        <rdf:bag>
          <rdf:li>svgimages.com</rdf:li>
        </rdf:bag>
      </dc:creator>
    </rdf:description>
  </rdf:rdf>
</metadata>
<g transform="translate(0.000000,300.000000) scale(0.100000,-0.100000)" fill="#821519" stroke="none">
<path d="M1273 2641 c-108 -37 -163 -93 -243 -250 -106 -205 -272 -289 -427
-216 -29 13 -53 22 -53 19 0 -7 130 -155 210 -239 47 -51 59 -71 74 -127 14
-52 26 -75 52 -98 19 -16 39 -30 45 -30 6 0 22 -9 36 -20 36 -28 93 -26 126 4
17 16 34 22 46 19 31 -8 65 4 94 32 24 25 28 25 53 12 l27 -14 -41 -23 c-92
-52 -127 -154 -87 -253 4 -10 21 -25 37 -33 46 -24 92 -11 142 39 74 74 87
185 28 238 l-29 26 39 32 c31 26 42 30 53 21 22 -18 74 -15 103 7 27 20 28 20
51 2 30 -25 82 -24 114 1 l26 20 37 -25 c44 -30 59 -31 99 -7 26 16 34 17 67
5 79 -27 132 30 125 132 -5 72 -25 115 -79 172 -30 31 -51 68 -79 144 -91 239
-232 387 -400 419 -80 15 -188 11 -246 -9z m585 -545 c104 -16 128 -31 164
-100 37 -73 18 -186 -33 -186 -11 0 -34 7 -51 16 -28 15 -31 14 -52 -5 -33
-31 -64 -26 -101 15 l-33 36 -24 -27 c-49 -56 -83 -56 -122 2 -22 32 -25 33
-31 14 -8 -26 -52 -61 -77 -61 -10 0 -32 14 -48 31 l-29 32 -14 -34 c-8 -19
-21 -40 -30 -48 -25 -20 -68 -17 -88 8 -24 29 -46 26 -63 -8 -22 -41 -77 -56
-105 -28 -10 10 -14 8 -23 -7 -18 -31 -47 -56 -67 -56 -11 0 -32 11 -48 23
-15 13 -40 27 -54 30 -26 7 -50 43 -64 98 -6 24 0 29 114 88 175 90 332 138
571 174 61 10 223 6 308 -7z m-490 -468 c4 -48 -42 -105 -76 -94 -18 6 -22 15
-22 45 0 51 33 93 69 89 22 -3 26 -8 29 -40z" id="node1" class="node"></path>
<path d="M1306 1624 c-17 -17 -21 -59 -7 -68 28 -18 72 44 50 70 -15 18 -24
18 -43 -2z m34 -28 c0 -3 -4 -8 -10 -11 -5 -3 -10 -1 -10 4 0 6 5 11 10 11 6
0 10 -2 10 -4z" id="node2" class="node"></path>
<path d="M1624 1719 c-79 -39 -68 -189 19 -266 146 -128 264 74 128 220 -48
53 -100 68 -147 46z m69 -67 c39 -43 40 -122 1 -122 -29 0 -74 56 -74 93 0 18
3 37 7 40 12 13 50 7 66 -11z" id="node3" class="node"></path>
<path d="M1647 1634 c-14 -14 -7 -51 13 -69 19 -17 22 -17 36 -3 14 14 14 20
2 44 -13 28 -37 41 -51 28z" id="node4" class="node"></path>
<path d="M1461 1422 c-7 -13 -6 -23 1 -30 30 -30 94 2 68 33 -17 21 -57 19
-69 -3z" id="node5" class="node"></path>
<path d="M1010 1286 c-33 -77 -43 -128 -44 -216 -1 -77 2 -92 32 -152 54 -111
186 -199 257 -172 43 17 56 103 30 190 -28 93 -10 154 48 154 13 1 -7 13 -48
30 -86 37 -155 88 -212 158 l-43 53 -20 -45z" id="node6" class="node"></path>
<path d="M1488 1294 c-5 -43 -32 -53 -63 -24 -20 19 -25 20 -25 7 0 -9 11 -24
25 -33 21 -14 31 -15 51 -5 17 8 31 8 44 1 10 -5 23 -10 29 -10 16 0 41 30 41
48 0 13 -5 11 -20 -8 -16 -20 -22 -23 -37 -14 -10 6 -19 23 -21 38 -2 14 -7
26 -12 26 -5 0 -10 -12 -12 -26z" id="node7" class="node"></path>
<path d="M1884 1244 c-53 -55 -89 -82 -144 -108 -41 -20 -81 -36 -90 -37 -8 0
-3 -6 11 -12 65 -29 73 -61 39 -157 -29 -82 -26 -125 9 -161 37 -36 70 -37
138 -3 63 31 125 89 155 146 20 37 23 56 22 140 -1 66 -8 118 -22 165 -34 111
-36 112 -118 27z" id="node8" class="node"></path>
<path d="M1371 894 c-23 -19 -31 -34 -31 -59 0 -37 14 -51 115 -117 l49 -33
63 60 c69 65 76 86 42 129 -23 30 -54 33 -87 10 -21 -14 -24 -14 -53 10 -38
33 -60 33 -98 0z" id="node9" class="node"></path>
<path d="M983 815 c4 -95 39 -170 115 -243 208 -204 593 -203 797 2 79 79 107
138 112 236 l4 75 -19 -47 c-59 -143 -176 -238 -347 -283 -76 -19 -224 -19
-300 0 -142 36 -276 134 -322 235 -46 103 -43 101 -40 25z" id="node10" class="node"></path>
<path d="M929 743 c-22 -80 -16 -173 15 -237 65 -133 259 -229 317 -157 34 42
25 67 -33 96 -74 37 -140 89 -181 144 -38 50 -87 141 -87 162 0 8 -4 20 -9 27
-5 9 -12 -2 -22 -35z" id="node11" class="node"></path>
<path d="M2002 680 c-44 -94 -134 -184 -236 -234 -42 -21 -76 -40 -76 -42 0
-3 7 -18 15 -34 50 -97 273 -17 348 124 28 54 29 154 2 213 l-20 43 -33 -70z" id="node12" class="node"></path>
</g>
<g transform="translate(0.000000,300.000000) scale(0.100000,-0.100000)" fill="#FFFFFF" stroke="none">


<path d="M1291 1644 c-29 -37 -29 -100 1 -110 34 -11 80 46 76 94 -3 32 -7 37
-29 40 -19 2 -33 -4 -48 -24z m58 -18 c22 -26 -22 -88 -50 -70 -14 9 -10 51 7
68 19 20 28 20 43 2z" id="node15" class="node"></path>
<path d="M1320 1589 c0 -5 5 -7 10 -4 6 3 10 8 10 11 0 2 -4 4 -10 4 -5 0 -10
-5 -10 -11z" id="node16" class="node"></path>
<path d="M1627 1663 c-4 -3 -7 -22 -7 -40 0 -37 45 -93 74 -93 39 0 38 79 -1
122 -16 18 -54 24 -66 11z m71 -57 c12 -24 12 -30 -2 -44 -14 -14 -17 -14 -36
3 -20 18 -27 55 -13 69 14 13 38 0 51 -28z" id="node17" class="node"></path>
</g>
</svg>