<!--?xml version="1.0" standalone="no"?-->

<svg version="1.0" xmlns="http://www.w3.org/2000/svg" width="300.000000pt" height="250.000000pt" viewBox="0 0 300.000000 250.000000" preserveAspectRatio="xMidYMid meet">
<g transform="translate(0.000000,250.000000) scale(0.100000,-0.100000)" fill="#639DEF" stroke="none">
<path class="node" id="node1" d="M1734 2485 c-4 -9 5 -33 20 -55 14 -22 26 -41 26 -44 0 -2 -23 -10
-52 -17 -29 -6 -70 -20 -93 -30 l-40 -18 -70 35 c-100 49 -185 68 -270 60
-117 -9 -231 -56 -301 -123 -84 -78 -118 -166 -149 -373 -12 -77 -22 -114 -40
-140 -42 -61 -76 -159 -82 -237 l-6 -73 -48 -35 c-27 -19 -64 -41 -83 -49 -48
-20 -121 -76 -158 -123 -40 -49 -83 -145 -112 -250 -28 -100 -54 -133 -105
-133 -23 0 -52 -11 -80 -30 -25 -17 -55 -33 -68 -36 -30 -8 -29 -22 1 -30 19
-4 26 -14 28 -37 4 -38 25 -46 37 -14 6 16 23 29 44 36 19 7 43 21 53 32 10
11 32 26 49 34 46 19 75 57 91 119 25 97 73 211 104 247 l29 34 -24 -71 c-47
-137 -62 -355 -32 -440 33 -92 105 -182 189 -236 45 -28 48 -32 43 -67 -2 -20
-7 -65 -10 -100 -4 -39 -16 -83 -31 -112 -18 -34 -26 -66 -27 -110 -2 -61 -1
-62 28 -72 17 -5 119 -10 228 -10 197 -2 199 -2 218 22 11 13 37 27 61 32 65
14 117 40 124 61 6 19 -17 100 -43 151 -13 27 -13 27 19 27 18 0 57 -3 86 -6
46 -6 52 -9 52 -31 0 -13 -12 -47 -26 -75 -18 -36 -26 -68 -27 -111 l-2 -61
40 -9 c65 -15 409 -15 428 1 8 7 66 22 128 33 62 11 128 27 146 36 28 13 33
21 33 50 0 19 -13 68 -29 108 -22 53 -30 93 -32 145 -2 71 -2 72 31 98 25 19
51 28 100 33 132 14 270 106 350 232 40 63 60 72 60 26 0 -42 28 -86 66 -104
76 -36 82 -12 18 71 l-46 59 31 3 c18 2 103 -4 190 -12 194 -19 191 -19 191
-1 0 31 -139 60 -332 71 l-118 6 6 66 c3 44 0 86 -9 122 -15 53 -15 55 10 98
21 36 30 42 47 37 12 -4 73 -8 137 -10 65 -3 134 -8 155 -13 56 -12 74 -5 74
26 0 15 9 56 20 90 36 115 22 268 -34 368 -24 42 -29 66 -36 170 -20 274 -77
376 -257 461 -67 33 -86 37 -177 41 -74 3 -119 0 -166 -12 l-64 -17 -72 32
-73 32 25 30 c31 37 26 53 -15 49 -29 -2 -31 0 -21 18 9 16 8 22 -5 26 -33 13
-89 -8 -129 -47 l-39 -40 -30 37 c-46 56 -139 85 -153 49z m104 -31 c12 -8 34
-33 48 -56 l26 -41 42 46 c37 42 91 75 104 63 2 -3 -12 -24 -32 -47 -20 -24
-36 -46 -36 -50 0 -23 25 -16 60 15 50 45 88 51 47 8 -31 -32 -35 -52 -9 -52
26 0 138 -56 182 -91 74 -60 144 -191 191 -358 12 -42 44 -143 72 -226 49
-144 51 -154 51 -260 0 -115 -20 -193 -63 -246 l-17 -21 -19 28 c-30 46 -115
132 -169 172 -151 111 -225 133 -304 93 -40 -20 -58 -38 -49 -47 2 -2 24 7 48
21 56 32 95 31 164 -1 58 -28 77 -44 50 -44 -26 0 -93 -38 -105 -59 -17 -33
-11 -36 18 -9 57 56 127 59 188 10 19 -15 34 -30 34 -33 0 -4 -13 -9 -29 -12
-29 -6 -80 -71 -66 -85 3 -4 11 2 17 12 38 67 92 74 147 19 20 -20 32 -37 26
-39 -5 -1 -22 -5 -38 -8 -32 -7 -67 -39 -67 -61 0 -21 17 -19 25 3 8 26 48 42
82 33 48 -12 65 -60 61 -171 -4 -121 -33 -186 -125 -281 -107 -112 -246 -158
-386 -129 -47 9 -66 20 -108 61 -50 49 -51 51 -31 65 28 19 46 77 33 103 -15
28 -14 31 12 31 14 0 32 -12 45 -30 28 -38 65 -40 88 -5 16 24 22 150 9 164
-4 3 -21 6 -40 7 -39 1 -65 19 -65 43 0 29 -26 57 -41 44 -32 -25 -96 43 -127
134 -8 25 -5 32 32 65 23 20 38 39 34 43 -4 4 -23 -6 -43 -24 -40 -35 -62 -38
-106 -15 -17 8 -33 13 -36 10 -10 -10 9 -26 45 -37 32 -9 40 -18 56 -57 10
-26 29 -64 42 -84 l23 -37 -35 -30 c-31 -27 -40 -30 -75 -25 -33 6 -44 3 -64
-16 l-25 -23 -71 28 c-251 101 -439 328 -439 528 0 64 26 148 59 196 10 14 61
107 114 206 52 100 109 202 127 228 47 71 119 141 180 175 47 27 80 38 178 58
27 5 28 23 2 74 -11 22 -20 42 -20 46 0 9 52 -5 78 -22z m-412 -80 c68 -23
134 -54 134 -64 0 -11 -50 -51 -59 -46 -70 41 -110 51 -211 51 -157 0 -265
-43 -340 -136 -40 -51 -87 -153 -105 -232 l-15 -62 5 74 c10 145 76 284 162
344 56 38 151 78 208 87 62 10 166 3 221 -16z m1139 -80 c93 -24 163 -64 216
-123 68 -76 96 -165 105 -331 6 -114 10 -131 40 -195 54 -113 67 -223 39 -325
-9 -30 -18 -72 -22 -94 l-6 -38 -41 7 c-23 5 -83 9 -135 11 -52 1 -113 5 -136
8 l-41 7 14 59 c8 33 19 60 23 60 5 0 35 -9 66 -20 87 -29 223 -59 229 -49 3
5 -1 19 -7 31 -8 14 -15 107 -20 253 -9 267 -18 337 -58 434 -69 169 -191 241
-409 241 -86 0 -97 2 -124 25 -32 27 -31 28 37 44 63 14 166 12 230 -5z
m-1148 -16 c66 -17 71 -31 31 -80 -48 -61 -86 -124 -164 -273 -37 -71 -86
-161 -109 -200 -47 -77 -75 -158 -75 -216 0 -21 -4 -40 -9 -44 -5 -3 -63 -16
-128 -29 -66 -14 -132 -28 -148 -32 -27 -7 -28 -6 -21 22 14 52 25 137 36 269
21 232 66 383 146 482 81 99 275 144 441 101z m1180 -94 c68 -20 89 -32 128
-70 99 -100 123 -185 136 -484 5 -124 13 -250 18 -280 5 -30 8 -56 6 -58 -3
-3 -213 53 -247 67 -26 10 -28 15 -28 68 -1 63 -13 130 -35 178 -15 35 -55
157 -84 265 -29 103 -68 203 -108 273 -18 32 -33 60 -33 62 0 2 10 6 23 8 41
9 141 -4 224 -29z m-1771 -344 c-3 -22 -13 -107 -22 -188 -16 -154 -28 -222
-45 -253 -8 -17 -6 -19 18 -19 15 0 82 12 148 26 178 39 175 39 191 -21 7 -27
13 -53 14 -57 0 -10 -86 -17 -251 -21 l-145 -3 -19 96 c-29 153 -12 230 85
400 11 19 20 45 20 57 0 13 3 23 6 23 4 0 4 -18 0 -40z m-129 -459 c7 -30 13
-59 12 -65 -4 -32 2 -33 179 -31 97 2 195 6 217 10 37 6 42 4 52 -17 56 -121
241 -275 410 -339 73 -28 86 -55 47 -94 -28 -28 -31 -63 -9 -105 11 -21 23
-30 40 -30 21 0 25 -5 25 -29 0 -31 22 -61 44 -61 28 0 33 -107 15 -280 -9
-88 -8 -116 5 -173 20 -85 20 -97 0 -69 -30 43 -70 23 -76 -38 -3 -30 -7 -35
-30 -38 -24 -3 -28 0 -28 23 0 39 -18 65 -43 65 -31 0 -47 -18 -47 -52 0 -26
-3 -28 -40 -28 -38 0 -40 2 -40 29 0 29 -22 61 -41 61 -27 0 -49 -22 -49 -50
0 -20 -5 -30 -15 -30 -25 0 -19 88 11 156 16 36 29 90 34 139 5 45 11 98 15
118 5 23 3 37 -3 37 -15 0 -22 -27 -29 -99 l-6 -64 -126 6 c-69 4 -139 10
-155 15 l-29 8 1 120 c2 134 -6 195 -27 202 -11 4 -12 -1 -7 -19 15 -57 18
-177 6 -291 -10 -107 -10 -132 4 -191 20 -87 20 -91 -4 -67 -37 37 -66 21 -72
-40 -3 -30 -7 -35 -30 -38 -25 -3 -28 0 -28 27 0 33 -22 61 -49 61 -24 0 -37
-17 -46 -58 -6 -28 -10 -33 -28 -28 -12 3 -28 6 -34 6 -8 0 -13 13 -13 29 0
33 -22 61 -49 61 -25 0 -41 -20 -41 -52 0 -18 -5 -28 -15 -28 -25 0 -19 96 10
155 17 34 28 80 35 145 6 52 13 109 16 125 5 24 4 28 -6 18 -10 -9 -19 -9 -42
3 -51 26 -143 127 -174 189 -28 58 -29 65 -28 195 1 229 51 369 174 490 40 39
77 69 82 68 6 -2 17 -28 25 -57z m-174 -52 c-10 -16 -39 -48 -64 -69 -61 -51
-93 -109 -139 -250 -32 -99 -42 -119 -73 -144 -52 -41 -57 -26 -8 23 23 23 41
48 41 56 0 27 52 178 81 235 26 52 95 128 149 164 33 22 34 21 13 -15z m1355
-321 c12 -16 21 -148 10 -148 -8 0 -10 18 -12 95 -1 34 -4 40 -25 43 -19 3
-21 6 -10 13 19 12 25 11 37 -3z m77 -127 c-7 -6 -45 63 -45 81 0 9 3 24 7 34
4 12 12 -2 24 -47 10 -35 16 -66 14 -68z m-95 83 c0 -8 -4 -12 -10 -9 -5 3
-10 10 -10 16 0 5 5 9 10 9 6 0 10 -7 10 -16z m-122 -34 c21 -36 26 -37 40 -5
17 37 49 32 69 -10 17 -35 17 -36 -10 -62 l-26 -27 -20 26 c-26 33 -53 39 -88
21 -25 -13 -29 -12 -40 3 -19 26 -16 51 9 68 32 23 47 20 66 -14z m295 -17
c14 -8 -4 -23 -29 -23 -13 0 -24 2 -24 4 0 2 -3 12 -6 21 -5 13 -2 15 22 9 16
-4 32 -9 37 -11z m-1853 -78 c0 -17 -29 -40 -67 -53 l-31 -10 13 31 c19 48 85
72 85 32z m1599 -6 c28 -51 -11 -105 -58 -80 -24 14 -36 63 -21 91 16 29 60
23 79 -11z m249 14 c-10 -2 -26 -2 -35 0 -10 3 -2 5 17 5 19 0 27 -2 18 -5z
m-354 -50 c7 -51 -1 -67 -30 -61 -25 4 -43 71 -24 92 25 32 47 19 54 -31z
m243 41 c-3 -3 -12 -4 -19 -1 -8 3 -5 6 6 6 11 1 17 -2 13 -5z m978 -13 c23
-9 14 -9 -45 -5 -41 4 -131 10 -200 15 -119 7 -117 7 45 4 94 -2 184 -9 200
-14z m-1016 -40 c12 -21 3 -67 -16 -82 -11 -10 -19 -8 -38 12 -20 20 -23 31
-18 66 5 40 6 41 34 31 16 -6 33 -18 38 -27z m161 31 c0 -5 -6 -17 -14 -27
-15 -21 -40 -15 -56 14 -10 20 -8 21 30 21 22 0 40 -4 40 -8z m600 -125 c0
-13 -38 12 -59 39 -39 49 -22 61 19 14 22 -25 40 -49 40 -53z m-882 33 c17 0
22 -6 22 -24 0 -25 -23 -56 -41 -56 -30 0 -49 22 -49 57 0 32 2 35 23 29 12
-3 32 -6 45 -6z m157 -152 c22 -15 58 -33 79 -39 l39 -11 -29 -24 c-39 -32
-172 -100 -211 -109 l-32 -6 -3 118 c-3 111 -2 119 20 140 12 12 22 32 22 44
0 18 8 11 38 -31 20 -30 55 -67 77 -82z m59 -159 c3 -17 6 -43 6 -58 0 -14 13
-62 29 -106 42 -118 44 -122 27 -93 -17 29 -44 42 -70 32 -16 -6 -18 -12 -20
-69 -1 -25 -6 -31 -28 -33 -24 -3 -28 0 -28 22 0 27 -23 56 -45 56 -24 0 -45
-31 -45 -66 0 -38 -17 -46 -24 -12 -3 13 -9 46 -15 73 -11 54 -14 86 -12 152
1 34 5 43 24 48 37 11 78 28 131 56 66 34 63 34 70 -2z m-828 -101 c13 -15 57
-129 51 -135 -2 -2 -10 3 -17 12 -31 37 -75 6 -68 -50 3 -31 1 -36 -19 -42
-13 -3 -26 -3 -29 0 -14 13 -34 119 -34 176 l0 64 52 -6 c28 -4 57 -12 64 -19z
m22 -140 c17 -17 15 -45 -4 -52 -22 -8 -34 1 -34 28 0 35 16 46 38 24z m842
-24 c12 -31 6 -44 -21 -44 -14 0 -19 7 -19 28 0 48 24 58 40 16z m-141 -36
c11 -30 6 -38 -25 -38 -18 0 -24 5 -24 23 0 42 35 52 49 15z m-1185 -14 c13
-35 7 -54 -19 -54 -18 0 -25 5 -25 19 0 46 31 70 44 35z m316 -5 c16 -29 5
-49 -25 -49 -27 0 -32 18 -15 51 14 25 27 24 40 -2z m-145 -8 c8 -26 -4 -51
-26 -51 -14 0 -19 7 -19 28 0 16 3 32 7 35 12 13 32 7 38 -12z m551 -5 c7 -29
-1 -46 -21 -46 -20 0 -28 17 -21 46 8 31 34 31 42 0z m316 -2 c10 -21 9 -27
-3 -35 -23 -14 -37 -11 -44 11 -7 21 9 50 26 50 5 0 15 -12 21 -26z m-146 -8
c7 -31 -1 -46 -27 -46 -14 0 -19 7 -19 28 0 48 35 61 46 18z"></path>
<path class="node" id="node2" d="M1845 2044 c-48 -17 -89 -54 -76 -67 6 -6 18 -3 32 7 15 10 44 16 76
16 50 0 53 1 53 25 0 14 -4 25 -9 25 -5 0 -15 2 -23 4 -7 3 -31 -2 -53 -10z"></path>
<path class="node" id="node3" d="M2137 2043 c-4 -3 -7 -15 -7 -25 0 -15 8 -18 44 -18 28 0 52 -7 69
-20 30 -24 47 -26 47 -5 0 35 -129 92 -153 68z"></path>
<path class="node" id="node4" d="M1863 1776 c-26 -22 -28 -30 -28 -96 0 -66 2 -74 28 -96 30 -26 83
-32 118 -14 25 14 49 62 49 99 0 108 -95 169 -167 107z m116 -20 c33 -36 35
-131 2 -157 -26 -21 -62 -24 -91 -9 -42 22 -50 131 -13 173 23 25 75 22 102
-7z"></path>
<path class="node" id="node5" d="M1902 1708 c-13 -13 -16 -47 -6 -72 10 -26 58 -20 74 9 26 48 -30
101 -68 63z"></path>
<path class="node" id="node6" d="M2201 1787 c-27 -13 -61 -84 -61 -128 0 -50 26 -87 69 -99 78 -21
131 27 131 118 0 57 -14 89 -49 107 -35 17 -57 18 -90 2z m90 -26 c21 -16 24
-28 24 -79 -1 -74 -21 -102 -72 -102 -19 0 -43 4 -53 10 -42 23 -32 132 17
169 32 26 54 26 84 2z"></path>
<path class="node" id="node7" d="M2208 1695 c-16 -36 3 -75 37 -75 31 0 51 36 41 74 -9 37 -61 37 -78
1z"></path>
</g>
<g transform="translate(0.000000,250.000000) scale(0.100000,-0.100000)" fill="#F1DDFD" stroke="none">


<path class="node" id="node10" d="M1760 2476 c0 -4 9 -24 20 -46 26 -51 25 -69 -2 -74 -98 -20 -131
-31 -178 -58 -61 -34 -133 -104 -180 -175 -18 -26 -75 -128 -127 -228 -53 -99
-104 -192 -114 -206 -33 -48 -59 -132 -59 -196 0 -200 188 -427 439 -528 l71
-28 25 23 c20 19 31 22 64 16 35 -5 44 -2 75 25 l35 30 -23 37 c-13 20 -32 58
-42 84 -16 39 -24 48 -56 57 -36 11 -55 27 -45 37 3 3 19 -2 36 -10 44 -23 66
-20 106 15 20 18 39 28 43 24 4 -4 -11 -23 -34 -43 -37 -33 -40 -40 -32 -65
31 -91 95 -159 127 -134 15 13 41 -15 41 -44 0 -24 26 -42 65 -43 19 -1 36 -4
40 -7 13 -14 7 -140 -9 -164 -23 -35 -60 -33 -88 5 -13 18 -31 30 -45 30 -26
0 -27 -3 -12 -31 13 -26 -5 -84 -33 -103 -20 -14 -19 -16 31 -65 42 -41 61
-52 108 -61 140 -29 279 17 386 129 92 95 121 160 125 281 4 111 -13 159 -61
171 -34 9 -74 -7 -82 -33 -8 -22 -25 -24 -25 -3 0 22 35 54 67 61 16 3 33 7
38 8 6 2 -6 19 -26 39 -55 55 -109 48 -147 -19 -6 -10 -14 -16 -17 -12 -14 14
37 79 66 85 16 3 29 8 29 12 0 3 -15 18 -34 33 -61 49 -131 46 -188 -10 -29
-27 -35 -24 -18 9 12 21 79 59 105 59 27 0 8 16 -50 44 -69 32 -108 33 -164 1
-24 -14 -46 -23 -48 -21 -9 9 9 27 49 47 79 40 153 18 304 -93 54 -40 139
-126 169 -172 l19 -28 17 21 c43 53 63 131 63 246 0 106 -2 116 -51 260 -28
83 -60 184 -72 226 -47 167 -117 298 -191 358 -44 35 -156 91 -182 91 -26 0
-22 20 9 52 41 43 3 37 -47 -8 -35 -31 -60 -38 -60 -15 0 4 16 26 36 50 20 23
34 44 32 47 -13 12 -67 -21 -104 -63 l-42 -46 -26 41 c-14 23 -36 48 -48 56
-26 17 -78 31 -78 22z m161 -426 c5 0 9 -11 9 -25 0 -24 -3 -25 -53 -25 -32 0
-61 -6 -76 -16 -33 -23 -48 -4 -18 24 26 25 96 53 115 46 8 -2 18 -4 23 -4z
m322 -30 c26 -16 47 -36 47 -45 0 -21 -17 -19 -47 5 -17 13 -41 20 -69 20 -36
0 -44 3 -44 18 0 10 3 22 7 25 15 15 62 5 106 -23z m-255 -242 c57 -62 53
-175 -7 -208 -35 -18 -88 -12 -118 14 -26 22 -28 30 -28 96 0 66 2 74 28 96
37 32 95 33 125 2z m303 7 c35 -18 49 -50 49 -107 0 -91 -53 -139 -131 -118
-66 18 -87 87 -50 172 27 63 74 82 132 53z"></path>
<path class="node" id="node11" d="M1877 1763 c-37 -42 -29 -151 13 -173 29 -15 65 -12 91 9 33 26 31
121 -2 157 -27 29 -79 32 -102 7z m93 -68 c19 -35 -2 -75 -41 -75 -28 0 -39
15 -39 54 0 49 57 64 80 21z"></path>
<path class="node" id="node12" d="M2207 1759 c-49 -37 -59 -146 -17 -169 10 -6 34 -10 53 -10 51 0 71
28 72 102 0 51 -3 63 -24 79 -30 24 -52 24 -84 -2z m79 -65 c16 -62 -52 -105
-78 -49 -17 38 3 75 42 75 24 0 31 -5 36 -26z"></path>
<path class="node" id="node13" d="M1205 2390 c-57 -9 -152 -49 -208 -87 -86 -60 -152 -199 -162 -344
l-5 -74 15 62 c18 79 65 181 105 232 75 93 183 136 340 136 101 0 141 -10 211
-51 9 -5 59 35 59 46 0 10 -66 41 -134 64 -55 19 -159 26 -221 16z"></path>
<path class="node" id="node14" d="M2335 2299 c-68 -16 -69 -17 -37 -44 27 -23 38 -25 124 -25 218 0
340 -72 409 -241 40 -97 49 -167 58 -434 5 -146 12 -239 20 -253 6 -12 10 -26
7 -31 -6 -10 -142 20 -229 49 -31 11 -61 20 -66 20 -4 0 -15 -27 -23 -60 l-14
-59 41 -7 c23 -3 84 -7 136 -8 52 -2 112 -6 135 -11 l41 -7 6 38 c4 22 13 64
22 94 28 102 15 212 -39 325 -30 64 -34 81 -40 195 -9 166 -37 255 -105 331
-99 110 -287 164 -446 128z"></path>
<path class="node" id="node15" d="M1205 2289 c-234 -30 -340 -199 -375 -594 -11 -132 -22 -217 -36
-269 -7 -28 -6 -29 21 -22 16 4 82 18 148 32 65 13 123 26 128 29 5 4 9 23 9
44 0 58 28 139 75 216 23 39 72 129 109 200 78 149 116 212 164 273 40 49 35
63 -31 80 -66 17 -136 21 -212 11z"></path>
<path class="node" id="node16" d="M2373 2213 c-13 -2 -23 -6 -23 -8 0 -2 15 -30 33 -62 40 -70 79 -170
108 -273 29 -108 69 -230 84 -265 22 -48 34 -115 35 -178 0 -53 2 -58 28 -68
34 -14 244 -70 247 -67 2 2 -1 28 -6 58 -5 30 -13 156 -18 280 -13 299 -37
384 -136 484 -39 38 -60 50 -128 70 -83 25 -183 38 -224 29z"></path>
<path class="node" id="node17" d="M820 1857 c0 -12 -9 -38 -20 -57 -97 -170 -114 -247 -85 -400 l19
-96 145 3 c165 4 251 11 251 21 -1 4 -7 30 -14 57 -16 60 -13 60 -191 21 -66
-14 -133 -26 -148 -26 -24 0 -26 2 -18 19 17 31 29 99 45 253 9 81 19 166 22
188 4 22 4 40 0 40 -3 0 -6 -10 -6 -23z"></path>
<path class="node" id="node18" d="M590 1370 c-123 -121 -173 -261 -174 -490 -1 -130 0 -137 28 -195 31
-62 123 -163 174 -189 23 -12 32 -12 42 -3 10 10 11 6 6 -18 -3 -16 -10 -73
-16 -125 -7 -65 -18 -111 -35 -145 -29 -59 -35 -155 -10 -155 10 0 15 10 15
28 0 32 16 52 41 52 27 0 49 -28 49 -61 0 -16 5 -29 13 -29 6 0 22 -3 34 -6
18 -5 22 0 28 28 9 41 22 58 46 58 27 0 49 -28 49 -61 0 -27 3 -30 28 -27 23
3 27 8 30 38 6 61 35 77 72 40 24 -24 24 -20 4 67 -14 59 -14 84 -4 191 12
114 9 234 -6 291 -5 18 -4 23 7 19 21 -7 29 -68 27 -202 l-1 -120 29 -8 c16
-5 86 -11 155 -15 l126 -6 6 64 c7 72 14 99 29 99 6 0 8 -14 3 -37 -4 -20 -10
-73 -15 -118 -5 -49 -18 -103 -34 -139 -30 -68 -36 -156 -11 -156 10 0 15 10
15 30 0 28 22 50 49 50 19 0 41 -32 41 -61 0 -27 2 -29 40 -29 37 0 40 2 40
28 0 34 16 52 47 52 25 0 43 -26 43 -65 0 -23 4 -26 28 -23 23 3 27 8 30 38 6
61 46 81 76 38 20 -28 20 -16 0 69 -13 57 -14 85 -5 173 18 173 13 280 -15
280 -22 0 -44 30 -44 61 0 24 -4 29 -25 29 -17 0 -29 9 -40 30 -22 42 -19 77
9 105 39 39 26 66 -47 94 -169 64 -354 218 -410 339 -10 21 -15 23 -52 17 -22
-4 -120 -8 -217 -10 -177 -2 -183 -1 -179 31 3 22 -26 118 -37 122 -5 1 -42
-29 -82 -68z"></path>
<path class="node" id="node19" d="M510 1344 c-54 -36 -123 -112 -149 -164 -29 -57 -81 -208 -81 -235 0
-8 -18 -33 -41 -56 -49 -49 -44 -64 8 -23 31 25 41 45 73 144 46 141 78 199
139 250 25 21 54 53 64 69 21 36 20 37 -13 15z"></path>


<path class="node" id="node22" d="M1841 1011 c-11 -7 -9 -10 10 -13 21 -3 24 -9 25 -43 2 -77 4 -95 12
-95 11 0 2 132 -10 148 -12 14 -18 15 -37 3z"></path>
<path class="node" id="node23" d="M1917 996 c-4 -10 -7 -25 -7 -34 0 -18 38 -87 45 -81 2 2 -4 33 -14
68 -12 45 -20 59 -24 47z"></path>
<path class="node" id="node24" d="M1840 971 c0 -6 5 -13 10 -16 6 -3 10 1 10 9 0 9 -4 16 -10 16 -5 0
-10 -4 -10 -9z"></path>
<path class="node" id="node25" d="M1672 944 c-25 -17 -28 -42 -9 -68 11 -15 15 -16 40 -3 35 18 62 12
88 -21 l20 -26 26 27 c27 26 27 27 10 62 -20 42 -52 47 -69 10 -14 -32 -19
-31 -40 5 -19 34 -34 37 -66 14z"></path>
<path class="node" id="node26" d="M1974 915 c3 -9 6 -19 6 -21 0 -8 49 -4 55 5 6 11 -1 16 -39 25 -24
6 -27 4 -22 -9z"></path>
<path class="node" id="node27" d="M130 847 c-12 -7 -28 -26 -35 -44 l-13 -31 31 10 c38 13 67 36 67 53
0 19 -24 25 -50 12z"></path>
<path class="node" id="node28" d="M1700 840 c-15 -28 -3 -77 21 -91 47 -25 86 29 58 80 -19 34 -63 40
-79 11z"></path>
<path class="node" id="node29" d="M1993 843 c9 -2 25 -2 35 0 9 3 1 5 -18 5 -19 0 -27 -2 -17 -5z"></path>
<path class="node" id="node30" d="M1620 824 c-19 -21 -1 -88 24 -92 29 -6 37 10 30 61 -7 50 -29 63
-54 31z"></path>
<path class="node" id="node31" d="M1898 833 c7 -3 16 -2 19 1 4 3 -2 6 -13 5 -11 0 -14 -3 -6 -6z"></path>
<path class="node" id="node32" d="M2650 831 c69 -5 159 -11 200 -15 59 -4 68 -4 45 5 -16 5 -106 12
-200 14 -162 3 -164 3 -45 -4z"></path>
<path class="node" id="node33" d="M1807 777 c-5 -35 -2 -46 18 -66 19 -20 27 -22 38 -12 19 15 28 61
16 82 -5 9 -22 21 -38 27 -28 10 -29 9 -34 -31z"></path>
<path class="node" id="node34" d="M1970 799 c16 -29 41 -35 56 -14 22 29 17 35 -26 35 -38 0 -40 -1
-30 -21z"></path>
<path class="node" id="node35" d="M2560 769 c0 -20 35 -65 61 -79 29 -16 22 0 -21 50 -25 28 -40 39
-40 29z"></path>
<path class="node" id="node36" d="M1690 697 c0 -35 19 -57 49 -57 18 0 41 31 41 56 0 18 -5 24 -22 24
-13 0 -33 3 -45 6 -21 6 -23 3 -23 -29z"></path>
<path class="node" id="node37" d="M1800 681 c0 -12 -10 -32 -22 -44 -22 -21 -23 -29 -20 -140 l3 -118
32 6 c39 9 172 77 211 109 l29 24 -39 11 c-58 17 -114 60 -156 121 -30 42 -38
49 -38 31z"></path>
<path class="node" id="node38" d="M1904 411 c-53 -28 -94 -45 -131 -56 -19 -5 -23 -14 -24 -48 -2 -66
1 -98 12 -152 6 -27 12 -60 15 -73 7 -34 24 -26 24 12 0 35 21 66 45 66 22 0
45 -29 45 -56 0 -22 4 -25 28 -22 22 2 27 8 28 33 2 57 4 63 20 69 26 10 53
-3 70 -32 17 -29 15 -25 -27 93 -16 44 -29 92 -29 106 0 37 -11 89 -19 88 -3
-1 -29 -14 -57 -28z"></path>
<path class="node" id="node39" d="M1030 269 c0 -57 20 -163 34 -176 3 -3 16 -3 29 0 20 6 22 11 19 42
-7 56 37 87 68 50 22 -26 22 -10 -1 51 -28 76 -35 83 -97 91 l-52 6 0 -64z"></path>
<path class="node" id="node40" d="M1137 173 c-10 -10 -8 -51 2 -57 15 -10 41 5 41 23 0 28 -28 50 -43
34z"></path>
<path class="node" id="node41" d="M1977 163 c-4 -3 -7 -19 -7 -35 0 -21 5 -28 19 -28 27 0 33 13 21 44
-9 26 -21 32 -33 19z"></path>
<path class="node" id="node42" d="M1827 123 c-4 -3 -7 -17 -7 -30 0 -18 6 -23 24 -23 31 0 36 8 25 38
-8 21 -29 29 -42 15z"></path>
<path class="node" id="node43" d="M646 94 c-13 -35 -7 -54 19 -54 18 0 25 5 25 19 0 46 -31 70 -44 35z"></path>
<path class="node" id="node44" d="M960 91 c-17 -33 -12 -51 15 -51 30 0 41 20 25 49 -13 26 -26 27 -40
2z"></path>
<path class="node" id="node45" d="M817 93 c-4 -3 -7 -19 -7 -35 0 -21 5 -28 19 -28 22 0 34 25 26 51
-6 19 -26 25 -38 12z"></path>
<path class="node" id="node46" d="M1364 76 c-7 -29 1 -46 21 -46 20 0 28 17 21 46 -8 31 -34 31 -42 0z"></path>
<path class="node" id="node47" d="M1680 85 c-13 -16 -4 -55 13 -55 7 0 18 4 26 9 12 8 13 14 3 35 -13
29 -24 32 -42 11z"></path>
<path class="node" id="node48" d="M1537 83 c-4 -3 -7 -19 -7 -35 0 -21 5 -28 19 -28 26 0 34 15 27 46
-6 23 -25 32 -39 17z"></path>
</g>
</svg>