<!--?xml version="1.0" standalone="no"?-->

<svg version="1.0" xmlns="http://www.w3.org/2000/svg" width="300.000000pt" height="248.000000pt" viewBox="0 0 300.000000 248.000000" preserveAspectRatio="xMidYMid meet">
<g transform="translate(0.000000,248.000000) scale(0.100000,-0.100000)" fill="#050505" stroke="none">
<path d="M2078 2191 c-85 -115 -89 -118 -131 -124 -60 -8 -142 -40 -213 -83
l-59 -36 -150 25 c-82 14 -152 23 -154 21 -2 -2 28 -67 66 -146 l70 -142 -15
-51 c-8 -27 -16 -55 -18 -62 -2 -8 -33 -1 -96 20 -86 29 -103 31 -228 31 -220
0 -305 -32 -475 -179 -136 -117 -220 -175 -254 -175 -91 0 -133 135 -72 232
16 25 34 49 40 52 24 15 42 65 31 86 -23 44 -123 5 -173 -67 -79 -115 -53
-327 51 -413 78 -65 165 -62 305 9 64 32 79 37 84 24 12 -31 -8 -155 -38 -230
l-31 -77 4 -241 3 -240 31 -60 c18 -33 49 -79 70 -103 36 -40 43 -44 100 -49
54 -5 64 -3 83 16 46 46 19 122 -60 171 l-51 31 4 78 c4 69 9 84 42 133 62 95
66 94 66 -11 0 -104 21 -171 80 -248 51 -67 77 -83 139 -86 46 -2 55 1 73 23
15 19 19 34 15 65 -6 40 -30 69 -101 120 -26 19 -29 25 -27 79 1 72 23 122 89
206 l51 65 180 0 181 0 0 -31 c0 -39 27 -117 74 -214 20 -41 36 -81 36 -88 0
-26 63 -132 105 -177 37 -40 46 -45 86 -45 90 0 136 59 105 133 -11 28 -23 38
-55 48 -47 14 -52 27 -77 179 -18 108 -18 181 0 205 12 16 16 11 41 -56 15
-41 33 -83 40 -94 6 -11 22 -46 34 -78 27 -75 46 -111 84 -168 43 -64 74 -84
124 -83 80 2 124 56 103 126 -11 39 -34 58 -70 58 -14 0 -25 10 -34 33 -19 45
-46 209 -46 277 0 53 3 61 51 121 35 43 72 75 112 98 245 138 345 454 224 701
-32 65 -137 172 -205 208 l-58 31 -43 136 c-23 74 -45 135 -49 135 -4 0 -46
-54 -94 -119z m181 -508 c24 -18 48 -69 38 -79 -2 -3 -18 9 -35 26 -61 61
-142 25 -142 -65 0 -25 -4 -45 -9 -45 -22 0 -40 105 -25 145 17 45 122 55 173
18z m-322 -125 c26 -29 43 -62 43 -83 0 -14 -6 -12 -31 9 -66 56 -155 16 -147
-65 4 -48 -7 -50 -29 -5 -15 33 -15 38 2 81 29 78 117 112 162 63z m303 8 c15
-20 9 -56 -12 -70 -23 -14 -32 -2 -16 23 10 16 10 23 0 33 -6 6 -12 16 -12 20
0 13 27 9 40 -6z m-49 -19 c-1 -12 -15 -9 -19 4 -3 6 1 10 8 8 6 -3 11 -8 11
-12z m-266 -95 c28 -20 36 -41 25 -61 -11 -21 -50 -29 -50 -11 0 6 5 10 10 10
6 0 10 9 10 19 0 11 -4 23 -10 26 -12 7 -13 25 -2 25 4 0 12 -4 17 -8z m-30
-32 c3 -5 -1 -10 -10 -10 -9 0 -13 5 -10 10 3 6 8 10 10 10 2 0 7 -4 10 -10z
m249 -65 c-1 -5 -16 -18 -33 -29 -25 -14 -35 -16 -44 -7 -9 10 -6 17 12 32 25
20 67 23 65 4z" id="node1" class="node"></path>
<path d="M1931 1404 c0 -11 3 -14 6 -6 3 7 2 16 -1 19 -3 4 -6 -2 -5 -13z" id="node2" class="node"></path>
</g>
<g transform="translate(0.000000,248.000000) scale(0.100000,-0.100000)" fill="#A0A0A0" stroke="none">

<path d="M2124 1696 c-35 -15 -44 -32 -44 -80 0 -39 18 -96 31 -96 5 0 9 20 9
45 0 90 81 126 142 65 35 -35 44 -33 31 6 -19 58 -106 89 -169 60z" id="node4" class="node"></path>
<path d="M1824 1561 c-21 -13 -38 -36 -49 -66 -17 -43 -17 -48 -2 -81 22 -45
33 -43 29 5 -8 81 81 121 147 65 25 -21 31 -23 31 -9 0 21 -17 54 -43 83 -25
27 -71 29 -113 3z" id="node5" class="node"></path>
<path d="M2200 1572 c0 -4 6 -14 12 -20 10 -10 10 -17 0 -33 -16 -25 -7 -37
16 -23 21 14 27 50 12 70 -13 15 -40 19 -40 6z" id="node6" class="node"></path>
<path d="M2172 1551 c4 -13 18 -16 19 -4 0 4 -5 9 -11 12 -7 2 -11 -2 -8 -8z" id="node7" class="node"></path>
<path d="M1900 1451 c0 -6 5 -13 10 -16 6 -3 10 -15 10 -26 0 -10 -4 -19 -10
-19 -5 0 -10 -4 -10 -10 0 -18 39 -10 50 11 9 15 8 24 -2 37 -23 30 -48 42
-48 23z m37 -53 c-3 -8 -6 -5 -6 6 -1 11 2 17 5 13 3 -3 4 -12 1 -19z" id="node8" class="node"></path>
<path d="M1875 1420 c-3 -5 1 -10 10 -10 9 0 13 5 10 10 -3 6 -8 10 -10 10 -2
0 -7 -4 -10 -10z" id="node9" class="node"></path>
<path d="M2079 1351 c-18 -15 -21 -22 -12 -32 9 -9 19 -7 44 7 17 11 32 24 33
29 2 19 -40 16 -65 -4z" id="node10" class="node"></path>
</g>
</svg>