<!--?xml version="1.0" standalone="no"?--><svg version="1.0" xmlns="http://www.w3.org/2000/svg" width="258.000000pt" height="300.000000pt" viewBox="0 0 258.000000 300.000000" preserveAspectRatio="xMidYMid meet">
<metadata>
  <rdf:rdf xmlns:rdf="http://www.w3.org/1999/02/22-rdf-syntax-ns#" xmlns:rdfs="http://www.w3.org/2000/01/rdf-schema#" xmlns:dc="http://purl.org/dc/elements/1.1/">
    <rdf:description dc:title="family sticker funny boy skating" dc:publisher="Hiox" dc:date="2015-05-25" dc:format="image/svg+xml" dc:language="en">
      <dc:creator>
        <rdf:bag>
          <rdf:li>svgimages.com</rdf:li>
        </rdf:bag>
      </dc:creator>
    </rdf:description>
  </rdf:rdf>
</metadata>
<g transform="translate(0.000000,300.000000) scale(0.100000,-0.100000)" fill="#414141" stroke="none">
<path d="M1790 2870 c0 -6 13 -24 29 -39 28 -26 50 -76 38 -87 -2 -3 -21 5
-41 17 -25 14 -55 22 -89 22 -100 2 -212 -88 -240 -191 -7 -25 -20 -48 -32
-54 -11 -6 -29 -21 -40 -34 -11 -12 -69 -48 -130 -80 -110 -57 -156 -86 -207
-133 -49 -44 -30 -55 37 -21 67 34 70 22 12 -39 -32 -33 -57 -67 -57 -75 0
-20 4 -20 38 1 29 19 29 19 -25 -52 -69 -89 -94 -270 -53 -391 25 -76 25 -74
-9 -74 -23 0 -37 -9 -58 -37 -25 -32 -28 -46 -31 -125 l-4 -88 -31 0 c-18 0
-41 -3 -53 -6 -16 -4 -22 1 -31 28 -27 81 -120 279 -160 341 -113 171 -245
177 -407 19 -78 -76 -113 -128 -142 -214 -26 -76 -31 -167 -14 -227 8 -30 7
-36 -11 -49 -33 -23 -59 -90 -59 -153 0 -108 90 -239 165 -239 33 0 36 -3 65
-65 16 -35 30 -66 30 -69 0 -9 95 -174 133 -230 22 -32 70 -91 108 -131 46
-48 69 -80 69 -96 0 -35 54 -124 93 -153 37 -29 136 -66 175 -66 13 0 36 7 52
16 26 16 32 16 93 0 90 -22 220 -21 272 3 44 20 129 107 181 186 43 64 57 135
52 249 -5 106 -21 145 -75 179 l-36 23 -1 208 -1 209 32 25 c33 24 37 25 226
26 186 2 194 3 257 30 75 32 110 55 162 104 l37 35 55 -44 c31 -24 77 -61 103
-82 84 -66 193 -85 254 -44 47 31 59 61 59 144 0 77 -50 270 -96 372 l-25 54
20 51 c39 99 50 219 30 318 -16 76 -81 208 -138 276 -46 55 -48 59 -30 70 27
17 24 44 -8 74 -41 38 -68 43 -92 19 -18 -18 -25 -19 -46 -9 -22 10 -25 17
-25 65 0 60 -11 68 -30 22 l-13 -31 -20 52 c-24 65 -87 130 -159 165 -60 30
-158 45 -158 25z m145 -51 c33 -17 73 -43 89 -57 32 -30 76 -115 76 -148 0
-31 11 -36 33 -17 19 17 19 17 14 -2 -3 -11 -9 -40 -12 -65 -4 -25 -19 -80
-33 -123 -20 -62 -22 -81 -13 -87 10 -5 10 -9 2 -14 -7 -4 -33 13 -62 41 -27
26 -64 56 -82 66 -20 10 -25 17 -14 17 26 0 20 19 -9 30 -52 20 -135 12 -192
-20 -51 -28 -53 -28 -46 -7 13 44 34 76 65 100 l32 25 -24 15 c-42 26 -98 29
-179 8 -41 -10 -76 -18 -78 -16 -10 9 53 108 88 137 89 77 191 75 271 -5 17
-16 32 -27 36 -24 10 10 -7 93 -27 133 -11 21 -20 40 -20 41 0 10 33 -1 85
-28z m369 -260 c26 -20 35 -49 16 -49 -22 0 -60 33 -60 51 0 24 11 24 44 -2z
m-586 5 l22 -6 -29 -33 c-16 -18 -30 -37 -32 -43 -5 -11 -179 17 -179 29 0 15
39 19 81 9 24 -6 54 -14 67 -17 12 -3 22 -1 22 5 0 12 -62 32 -99 32 -58 0 26
27 89 29 19 0 45 -2 58 -5z m492 -30 c120 -80 239 -254 269 -393 20 -93 8
-249 -23 -309 -12 -22 -14 -20 -56 50 -43 73 -132 191 -163 217 -33 26 -17 -9
27 -63 66 -81 102 -136 156 -240 50 -96 118 -282 106 -293 -3 -4 -6 0 -6 7 0
24 -112 261 -161 342 -67 108 -152 222 -223 297 -69 72 -220 188 -314 242 -64
36 -66 49 -9 49 40 0 147 -59 201 -110 29 -27 60 -50 68 -50 23 0 41 27 35 51
-3 12 5 55 19 95 13 40 24 84 24 98 0 30 15 33 50 10z m-736 -23 c3 -5 -3 -11
-14 -14 -20 -5 -26 3 -13 16 9 10 21 9 27 -2z m117 -47 l69 -16 -6 -49 c-8
-59 4 -63 45 -17 l29 33 54 -26 c54 -27 205 -136 266 -193 96 -89 149 -339 94
-445 -12 -23 -22 -44 -22 -46 0 -13 32 -2 59 21 17 14 31 22 31 18 0 -24 -38
-105 -67 -143 -18 -24 -33 -48 -33 -53 0 -11 32 -2 82 23 49 25 78 24 119 -4
82 -55 102 -140 49 -201 -36 -41 -73 -51 -129 -36 -58 15 -98 53 -113 106 -7
25 -17 44 -23 42 -11 -3 -11 -8 -1 -53 6 -27 1 -34 -51 -76 -100 -81 -165
-109 -282 -121 -125 -14 -228 -1 -316 41 -192 90 -301 211 -381 421 -24 64
-28 88 -27 170 1 131 24 188 117 294 39 44 94 114 121 155 37 54 68 87 119
122 77 55 91 57 197 33z m-301 -91 c-15 -19 -38 -32 -72 -39 -58 -13 -53 -6
22 35 68 38 77 38 50 4z m-70 -108 c-17 -25 -49 -54 -72 -66 l-40 -20 18 23
c16 21 114 108 121 108 2 0 -10 -20 -27 -45z m1000 -255 c34 -44 83 -116 110
-159 46 -75 48 -81 39 -117 -6 -20 -8 -50 -5 -66 3 -15 1 -28 -4 -28 -6 0 -10
5 -10 10 0 6 -7 10 -15 10 -10 0 -15 -10 -15 -30 0 -32 4 -32 -71 -16 -15 3
-34 -1 -45 -9 -30 -23 -36 -17 -15 13 26 34 66 184 57 209 -8 20 -11 17 -50
-42 -11 -16 -12 -7 -8 60 4 72 -10 168 -33 228 -14 34 5 16 65 -63z m-1713
-150 c19 0 82 -59 122 -115 37 -50 98 -180 186 -395 56 -137 62 -154 40 -116
-9 15 -46 96 -81 180 -137 322 -179 386 -284 436 -25 12 -34 19 -20 16 14 -3
30 -6 37 -6z m10 -49 c58 -36 116 -128 194 -306 4 -11 38 -90 75 -175 36 -85
78 -175 92 -200 81 -142 196 -274 289 -333 23 -14 47 -34 55 -44 14 -20 66
-42 113 -50 48 -8 93 -48 105 -95 7 -23 12 -80 13 -128 1 -77 -2 -93 -28 -144
-16 -31 -32 -59 -35 -61 -9 -6 -120 33 -180 63 -30 15 -81 46 -113 70 -64 47
-72 49 -86 25 -12 -20 -14 -13 -5 11 8 21 30 20 62 -3 73 -51 153 -48 204 6
82 89 37 216 -109 305 -90 55 -138 55 -195 1 -51 -48 -58 -114 -21 -187 14
-27 13 -30 -7 -50 l-22 -21 -65 70 c-35 39 -78 88 -93 110 -36 49 -129 229
-160 310 -13 33 -27 64 -31 69 -10 11 -29 -35 -29 -70 0 -41 -16 -26 -34 34
-10 31 -22 62 -26 67 -4 6 -15 36 -24 68 -13 45 -14 62 -5 73 17 20 21 18 49
-27 30 -49 65 -69 120 -69 136 0 186 136 111 298 -56 120 -119 154 -207 112
-57 -28 -83 -78 -84 -161 0 -42 -4 -58 -15 -63 -25 -9 -30 19 -30 172 0 78 -2
142 -4 142 -3 0 -13 -7 -23 -17 -17 -15 -18 -15 -18 2 0 52 24 201 34 207 22
15 101 8 133 -11z m-157 -5 c0 -1 -5 -16 -10 -32 -17 -50 -28 -234 -13 -234 6
0 17 8 22 18 8 12 10 -6 11 -69 0 -47 3 -113 6 -145 6 -58 5 -59 -24 -76 -17
-10 -32 -18 -35 -18 -3 0 -11 47 -18 105 -8 69 -17 105 -25 105 -7 0 -15 -6
-18 -12 -8 -16 2 247 10 285 4 17 21 38 43 52 33 23 51 30 51 21z m2076 -157
c48 -98 94 -250 94 -313 0 -37 3 -47 10 -36 8 12 10 10 10 -8 0 -36 -17 -60
-56 -78 -30 -15 -43 -15 -88 -5 -30 7 -75 26 -102 43 l-49 31 45 13 c27 8 60
28 80 49 32 33 35 41 35 95 0 50 -4 63 -32 98 -35 43 -47 86 -18 62 24 -20 30
-4 26 68 -1 37 0 64 3 61 3 -3 22 -39 42 -80z m-2191 54 c-9 -22 -26 -324 -19
-335 9 -15 20 -8 31 20 l11 27 1 -30 c1 -16 8 -58 15 -92 14 -66 7 -80 -20
-38 -25 39 -76 66 -111 59 -19 -4 -33 -1 -38 6 -4 6 -7 48 -7 93 -1 94 28 176
89 260 34 46 62 64 48 30z m796 -120 c8 -20 8 -43 0 -84 -15 -77 -14 -141 5
-167 8 -12 13 -26 10 -31 -3 -4 1 -17 9 -27 15 -20 21 -109 8 -117 -5 -3 -6
17 -5 44 3 31 0 49 -7 49 -6 0 -11 -13 -11 -29 0 -37 -19 -91 -32 -91 -6 0 -8
11 -4 28 4 15 9 41 12 57 4 27 3 28 -8 11 -31 -44 -51 -67 -55 -62 -3 3 2 15
11 28 9 12 16 32 16 43 0 16 -4 14 -20 -12 -11 -18 -24 -33 -30 -33 -15 0 -12
8 11 41 23 33 27 87 10 159 -19 80 -10 167 22 208 17 21 47 14 58 -15z m65
-49 c39 -59 39 -57 -10 -85 -24 -14 -39 6 -29 41 8 33 8 61 -1 83 -16 34 4 16
40 -39z m-460 -18 c11 -8 36 -45 55 -82 29 -59 34 -78 34 -140 0 -85 -18 -114
-70 -114 -71 0 -138 79 -151 176 -7 61 0 98 26 142 16 26 26 32 53 32 18 0 42
-6 53 -14z m-146 -46 c-7 -14 -11 -51 -8 -94 5 -95 34 -155 95 -195 34 -23 41
-31 26 -31 -38 0 -87 44 -116 105 -36 75 -42 175 -14 219 21 32 34 29 17 -4z
m2037 -12 c-3 -7 -5 -2 -5 12 0 14 2 19 5 13 2 -7 2 -19 0 -25z m-1339 -45
c57 -57 147 -202 160 -258 6 -22 13 -74 16 -116 6 -74 6 -77 -18 -93 -14 -9
-37 -16 -51 -16 -33 0 -33 31 0 85 25 39 33 85 16 85 -4 0 -16 -19 -25 -43
-17 -46 -47 -79 -110 -121 -56 -37 -77 -34 -121 20 -32 39 -108 145 -127 179
-3 6 5 10 18 10 14 0 27 -7 30 -17 6 -21 15 -22 66 -8 31 9 39 17 48 48 5 20
10 44 10 53 0 9 9 19 20 22 34 9 22 40 -25 70 -25 16 -45 32 -45 36 0 3 18 5
40 3 51 -5 110 6 110 20 0 7 -15 8 -45 4 -56 -9 -115 2 -115 20 0 8 8 14 18
14 9 0 31 11 47 25 17 13 31 24 33 25 2 0 24 -21 50 -47z m-254 -59 c12 -31 6
-83 -14 -116 -13 -23 -16 -38 -10 -48 5 -8 10 -19 10 -25 0 -21 -34 42 -62
113 -32 84 -30 92 33 92 25 0 39 -5 43 -16z m452 -89 c43 -25 73 -45 65 -45
-7 0 -26 -9 -42 -21 -27 -19 -49 -19 -49 1 0 5 -13 32 -30 60 -16 27 -28 50
-26 50 1 0 38 -20 82 -45z m-276 4 c0 -6 -7 -6 -20 1 -11 6 -20 15 -20 21 0 6
7 6 20 -1 11 -6 20 -15 20 -21z m-891 -8 c17 -16 31 -33 31 -38 0 -5 -20 -23
-44 -40 -58 -41 -70 -63 -49 -92 19 -27 51 -22 101 16 18 14 35 23 38 20 2 -2
7 -33 10 -68 5 -56 3 -67 -16 -91 -17 -23 -29 -28 -65 -28 -37 0 -47 5 -80 41
-46 51 -65 96 -65 151 0 87 39 158 86 158 12 0 36 -13 53 -29z m231 16 c0 -12
-241 -182 -258 -182 -4 0 -8 7 -10 16 -3 18 19 36 158 123 89 57 110 65 110
43z m-378 -44 c-47 -89 -4 -239 87 -300 26 -17 29 -23 15 -23 -40 1 -115 90
-134 159 -13 51 -5 135 17 169 17 27 30 23 15 -5z m381 -160 c26 -71 50 -143
53 -160 11 -53 30 -39 41 30 9 52 12 58 18 37 5 -13 36 -81 71 -151 62 -126
113 -199 207 -296 l51 -53 -29 -30 c-16 -16 -34 -30 -39 -29 -20 1 -106 112
-188 242 -74 116 -83 127 -95 111 -7 -10 -13 -43 -13 -73 0 -31 -4 -51 -9 -45
-4 5 -24 50 -43 99 -35 90 -52 138 -108 310 l-29 90 25 23 c14 12 29 22 33 22
4 0 29 -57 54 -127z m516 -43 c51 -75 142 -169 192 -199 19 -12 29 -21 22 -21
-15 0 -109 75 -147 118 -60 68 -177 246 -176 269 0 4 15 -17 33 -47 18 -30 52
-84 76 -120z m-620 42 c26 -96 80 -254 122 -353 17 -41 35 -86 41 -102 18 -50
38 -33 38 32 0 102 7 101 74 -7 63 -101 163 -232 178 -232 4 0 8 -5 8 -10 0
-6 -22 1 -50 15 -73 37 -105 33 -150 -15 l-37 -40 -39 42 c-100 109 -192 251
-262 403 l-41 90 34 18 c19 9 42 28 51 42 18 28 21 123 4 154 -12 24 -13 41
-1 41 5 0 18 -35 30 -78z m916 -172 c8 0 15 -6 15 -14 0 -10 -17 -15 -60 -18
-33 -1 -65 -1 -70 0 -19 7 -10 18 24 30 19 7 40 20 47 28 11 14 14 13 21 -5 4
-12 14 -21 23 -21z m105 -7 c0 -16 -3 -38 -6 -50 -6 -21 -7 -21 -30 -6 -31 20
-31 56 -1 71 33 16 37 14 37 -15z m-130 -68 c-7 -9 -15 -13 -17 -11 -7 7 7 26
19 26 6 0 6 -6 -2 -15z m27 -38 c-12 -28 -27 -36 -27 -15 0 12 31 50 37 45 1
-2 -3 -15 -10 -30z m56 15 c-12 -9 -27 -28 -32 -42 -8 -20 -10 -21 -10 -6 -1
21 36 66 53 66 6 0 1 -8 -11 -18z m37 -50 c-20 -34 -50 -42 -50 -13 0 30 38
67 53 52 9 -9 8 -19 -3 -39z m-257 2 c73 -37 135 -94 157 -146 25 -59 21 -90
-15 -114 -77 -51 -203 14 -256 131 -25 54 -24 94 3 122 25 27 66 30 111 7z
m287 -42 c0 -5 11 -14 25 -20 43 -20 65 -83 65 -189 0 -107 -21 -178 -71 -233
l-30 -35 25 36 c89 124 88 340 -1 416 -21 18 -32 33 -25 33 6 0 12 -4 12 -8z
m-352 -194 c51 -49 112 -73 164 -66 38 6 35 0 -8 -18 -33 -14 -39 -13 -89 10
-70 32 -142 107 -159 166 -20 69 -6 79 20 13 15 -38 40 -74 72 -105z m-48 -23
c12 -14 3 -24 -162 -174 -46 -42 -78 -49 -78 -18 0 17 199 207 216 207 6 0 17
-7 24 -15z m-232 -107 c10 -7 19 -14 21 -15 3 -2 -10 -18 -27 -36 -30 -31 -31
-34 -16 -55 21 -31 55 -28 89 8 l29 30 38 -37 c106 -104 -26 -183 -156 -94
-92 63 -136 197 -72 220 23 9 69 -1 94 -21z m266 -7 c2 8 6 20 8 27 2 9 18 2
48 -22 59 -45 163 -99 223 -115 49 -14 58 -29 31 -52 -22 -18 -125 9 -217 56
-84 43 -91 44 -83 4 l6 -30 -58 47 c-31 27 -61 52 -66 56 -6 5 2 20 19 38 l29
30 28 -27 c20 -19 29 -23 32 -12z m-372 -145 c14 -19 35 -44 49 -54 40 -30
130 -64 160 -60 15 3 26 1 23 -4 -10 -16 -90 -7 -139 16 -27 13 -62 35 -77 50
-36 37 -68 105 -67 142 1 27 2 26 14 -13 7 -23 24 -57 37 -77z m324 39 c43
-36 82 -65 87 -65 4 0 5 16 1 35 l-6 34 68 -33 c38 -19 85 -37 104 -41 68 -13
72 -15 59 -31 -7 -9 -33 -27 -57 -41 -40 -24 -55 -26 -127 -25 -91 2 -162 22
-156 43 15 50 11 76 -19 122 -18 26 -36 47 -41 47 -5 0 -9 5 -9 10 0 20 19 9
96 -55z m404 -48 c0 -2 -12 -14 -27 -28 l-28 -24 24 28 c23 25 31 32 31 24z" id="node1" class="node"></path>
<path d="M1810 2426 c0 -2 17 -15 38 -27 53 -33 216 -155 272 -206 27 -24 51
-39 54 -34 3 5 -31 40 -77 79 -134 113 -287 213 -287 188z" id="node2" class="node"></path>
<path d="M1464 2426 c-47 -21 -119 -116 -87 -116 4 0 24 16 44 36 49 47 108
58 133 23 14 -20 18 -22 26 -9 16 25 11 48 -12 64 -27 19 -63 20 -104 2z" id="node3" class="node"></path>
<path d="M1389 2278 c-47 -27 -84 -89 -70 -117 26 -48 81 -31 129 39 24 36 28
70 10 88 -16 16 -27 15 -69 -10z" id="node4" class="node"></path>
<path d="M1629 2253 c-24 -68 -32 -82 -62 -111 -47 -44 -124 -80 -203 -95
l-69 -13 3 -34 c4 -36 31 -88 57 -110 22 -18 31 -4 12 18 -21 23 -49 90 -43
101 3 4 29 11 57 14 53 7 129 40 186 83 37 28 78 94 88 142 8 40 -11 44 -26 5z" id="node5" class="node"></path>
<path d="M1871 2232 c-48 -23 -52 -43 -9 -36 24 4 38 1 47 -10 22 -26 25 -100
7 -146 -9 -22 -16 -45 -16 -51 0 -23 34 17 56 66 38 81 28 161 -23 184 -13 6
-25 11 -26 11 -1 -1 -17 -9 -36 -18z m73 -34 c9 -12 16 -34 15 -48 -1 -25 -1
-24 -9 4 -5 15 -17 37 -26 47 -9 10 -12 19 -6 19 6 0 18 -10 26 -22z" id="node6" class="node"></path>
<path d="M1768 2060 c-48 -26 -70 -60 -66 -102 3 -29 7 -33 37 -36 25 -3 40 3
61 23 34 33 53 74 48 107 -4 30 -33 33 -80 8z" id="node7" class="node"></path>
<path d="M1207 1923 c-4 -3 -7 -25 -7 -48 0 -34 9 -55 49 -111 27 -39 65 -84
85 -102 50 -44 139 -87 208 -101 55 -12 58 -14 68 -52 9 -32 7 -50 -6 -94 -16
-51 -16 -55 0 -80 39 -60 121 -57 163 6 22 33 25 46 19 85 -3 26 -15 61 -26
79 -23 38 -25 45 -7 45 7 0 30 9 52 20 48 25 45 25 45 -5 0 -28 15 -34 24 -9
12 31 6 72 -15 98 -15 19 -25 24 -32 17 -7 -7 -5 -16 6 -29 16 -18 16 -19 -5
-30 -86 -45 -146 -50 -264 -26 -133 27 -194 66 -284 181 -57 72 -59 77 -53
119 5 41 -3 55 -20 37z m464 -419 c17 -37 19 -51 10 -76 -13 -38 -14 -58 -2
-58 26 0 37 100 16 153 -4 9 -3 17 3 17 19 0 53 -68 59 -118 5 -45 3 -53 -20
-76 -32 -32 -77 -34 -102 -6 -17 18 -17 25 -5 74 7 30 10 73 7 95 -7 55 9 52
34 -5z" id="node8" class="node"></path>
<path d="M1220 1680 c0 -41 69 -116 96 -106 15 6 13 10 -14 27 -18 10 -42 35
-53 54 -22 36 -29 42 -29 25z" id="node9" class="node"></path>
<path d="M2190 1550 c0 -5 5 -10 10 -10 6 0 10 -9 10 -20 0 -16 -7 -20 -36
-20 -45 0 -41 -24 5 -28 38 -4 59 10 63 44 l3 24 35 -17 c20 -10 44 -34 55
-55 22 -41 35 -49 35 -20 0 31 -40 83 -75 98 -39 16 -105 19 -105 4z" id="node10" class="node"></path>
<path d="M588 1395 c-10 -22 -9 -32 3 -53 21 -38 56 -41 69 -7 23 60 -46 117
-72 60z m50 -34 c3 -16 -1 -22 -10 -19 -7 3 -15 15 -16 27 -3 16 1 22 10 19 7
-3 15 -15 16 -27z" id="node11" class="node"></path>
<path d="M1078 674 c-16 -33 6 -75 45 -88 59 -21 83 40 36 90 -30 32 -66 31
-81 -2z m62 -16 c23 -25 26 -48 7 -48 -21 0 -50 37 -44 55 8 20 12 19 37 -7z" id="node12" class="node"></path>
</g>
<g transform="translate(0.000000,300.000000) scale(0.100000,-0.100000)" fill="#FFFFFF" stroke="none">

<path d="M1850 2847 c0 -1 9 -20 20 -41 20 -40 37 -123 27 -133 -4 -3 -19 8
-36 24 -80 80 -182 82 -271 5 -35 -29 -98 -128 -88 -137 2 -2 37 6 78 16 81
21 137 18 179 -8 l24 -15 -32 -25 c-31 -24 -52 -56 -65 -100 -7 -21 -5 -21 46
7 57 32 140 40 192 20 29 -11 35 -30 9 -30 -11 0 -6 -7 14 -17 18 -10 55 -40
82 -66 29 -28 55 -45 62 -41 8 5 8 9 -2 14 -9 6 -7 25 13 87 14 43 29 98 33
123 3 25 9 54 12 65 5 19 5 19 -14 2 -22 -19 -33 -14 -33 17 0 33 -44 118 -76
148 -43 40 -174 104 -174 85z" id="node14" class="node"></path>
<path d="M2260 2561 c0 -18 38 -51 60 -51 19 0 10 29 -16 49 -33 26 -44 26
-44 2z" id="node15" class="node"></path>
<path d="M1592 2560 c-42 -10 -53 -20 -21 -20 37 0 99 -20 99 -32 0 -6 -10 -8
-22 -5 -13 3 -43 11 -67 17 -42 10 -81 6 -81 -9 0 -12 174 -40 179 -29 2 6 16
25 32 43 l29 33 -22 6 c-30 8 -84 6 -126 -4z" id="node16" class="node"></path>
<path d="M2160 2524 c0 -14 -11 -58 -24 -98 -14 -40 -22 -83 -19 -95 6 -24
-12 -51 -35 -51 -8 0 -39 23 -68 50 -54 51 -161 110 -201 110 -57 0 -55 -13 9
-49 275 -157 485 -400 641 -741 31 -69 57 -132 57 -140 0 -7 3 -11 6 -7 12 11
-56 197 -106 293 -54 104 -90 159 -156 240 -44 54 -60 89 -27 63 31 -26 120
-144 163 -217 42 -70 44 -72 56 -50 17 33 34 132 34 199 0 154 -74 313 -202
435 -91 87 -128 104 -128 58z m-234 -155 c115 -80 255 -198 248 -210 -3 -5
-27 10 -54 34 -56 51 -219 173 -272 206 -21 12 -38 25 -38 27 0 15 39 -4 116
-57z" id="node17" class="node"></path>
<path d="M1447 2513 c-13 -13 -7 -21 13 -16 11 3 17 9 14 14 -6 11 -18 12 -27
2z" id="node18" class="node"></path>
<path d="M1394 2431 c-51 -35 -82 -68 -119 -122 -27 -41 -82 -111 -121 -155
-93 -106 -116 -163 -117 -294 -1 -82 3 -106 27 -170 80 -210 189 -331 381
-421 88 -42 191 -55 316 -41 117 12 182 40 282 121 52 42 57 49 51 76 -10 45
-10 50 1 53 6 2 16 -17 23 -42 15 -53 55 -91 113 -106 56 -15 93 -5 129 36 53
61 33 146 -49 201 -41 28 -70 29 -119 4 -50 -25 -82 -34 -82 -23 0 5 15 29 33
53 29 38 67 119 67 143 0 4 -14 -4 -31 -18 -27 -23 -59 -34 -59 -21 0 2 10 23
22 46 55 106 2 356 -94 445 -61 57 -212 166 -266 193 l-54 26 -29 -33 c-41
-46 -53 -42 -45 17 l6 49 -69 16 c-106 24 -120 22 -197 -33z m174 -7 c23 -16
28 -39 12 -64 -8 -13 -12 -11 -26 9 -25 35 -84 24 -133 -23 -20 -20 -40 -36
-44 -36 -16 0 -5 28 25 64 50 61 120 82 166 50z m-110 -136 c18 -18 14 -52
-10 -88 -48 -70 -103 -87 -129 -39 -14 28 23 90 70 117 42 25 53 26 69 10z
m197 -40 c-10 -48 -51 -114 -88 -142 -57 -43 -133 -76 -186 -83 -28 -3 -54
-10 -57 -14 -6 -11 22 -78 43 -101 19 -22 10 -36 -12 -18 -26 22 -53 74 -57
110 l-3 34 69 13 c79 15 156 51 203 95 30 29 38 43 62 111 15 39 34 35 26 -5z
m278 -9 c51 -23 61 -103 23 -184 -22 -49 -56 -89 -56 -66 0 6 7 29 16 51 18
46 15 120 -7 146 -9 11 -23 14 -47 10 -43 -7 -39 13 9 36 19 9 35 17 36 18 1
0 13 -5 26 -11z m-85 -187 c5 -33 -14 -74 -48 -107 -21 -20 -36 -26 -61 -23
-30 3 -34 7 -37 36 -4 42 18 76 66 102 47 25 76 22 80 -8z m-621 -166 c-6 -42
-4 -47 53 -119 90 -115 151 -154 284 -181 118 -24 178 -19 264 26 21 11 21 12
5 30 -11 13 -13 22 -6 29 7 7 17 2 32 -17 21 -26 27 -67 15 -98 -9 -25 -24
-19 -24 9 0 30 3 30 -45 5 -22 -11 -45 -20 -52 -20 -18 0 -16 -7 7 -45 11 -18
23 -53 26 -79 16 -116 -121 -184 -182 -91 -16 25 -16 29 0 80 13 44 15 62 6
94 -10 38 -13 40 -68 52 -69 14 -158 57 -208 101 -20 18 -58 63 -85 102 -40
56 -49 77 -49 111 0 42 5 55 23 55 6 0 7 -18 4 -44z m22 -231 c11 -19 35 -44
53 -54 27 -17 29 -21 14 -27 -27 -10 -96 65 -96 106 0 17 7 11 29 -25z m1046
-109 c35 -15 75 -67 75 -98 0 -29 -13 -21 -35 20 -11 21 -35 45 -55 55 l-35
17 -3 -24 c-4 -34 -25 -48 -63 -44 -46 4 -50 28 -5 28 29 0 36 4 36 20 0 11
-4 20 -10 20 -5 0 -10 5 -10 10 0 15 66 12 105 -4z" id="node19" class="node"></path>
<path d="M1924 2201 c9 -10 21 -32 26 -47 8 -28 8 -29 9 -4 1 28 -24 70 -41
70 -6 0 -3 -9 6 -19z" id="node20" class="node"></path>
<path d="M1637 1509 c3 -22 0 -65 -7 -95 -12 -49 -12 -56 5 -74 25 -28 70 -26
102 6 23 23 25 31 20 76 -6 50 -40 118 -59 118 -6 0 -7 -8 -3 -17 21 -53 10
-153 -16 -153 -12 0 -11 20 2 58 9 25 7 39 -10 76 -25 57 -41 60 -34 5z" id="node21" class="node"></path>
<path d="M1240 2369 c-75 -41 -80 -48 -22 -35 34 7 57 20 72 39 27 34 18 34
-50 -4z" id="node22" class="node"></path>
<path d="M1194 2268 c-28 -24 -59 -53 -68 -66 l-18 -23 40 20 c23 12 55 41 72
66 17 25 29 45 27 45 -1 0 -26 -19 -53 -42z" id="node23" class="node"></path>
<path d="M2155 2073 c23 -60 37 -156 33 -228 -4 -67 -3 -76 8 -60 39 59 42 62
50 42 9 -25 -31 -175 -57 -209 -21 -30 -15 -36 15 -13 11 8 30 12 45 9 75 -16
71 -16 71 16 0 20 5 30 15 30 8 0 15 -4 15 -10 0 -5 4 -10 10 -10 5 0 7 13 4
28 -3 16 -1 46 5 66 9 36 7 42 -39 117 -51 82 -167 239 -177 239 -3 0 -2 -8 2
-17z" id="node24" class="node"></path>
<path d="M490 1850 c105 -50 147 -114 284 -436 35 -84 72 -165 81 -180 22 -38
16 -21 -40 116 -88 215 -149 345 -186 395 -40 56 -103 115 -122 115 -7 0 -23
3 -37 6 -14 3 -5 -4 20 -16z" id="node25" class="node"></path>
<path d="M384 1822 c-10 -6 -34 -155 -34 -207 0 -17 1 -17 18 -2 10 10 20 17
23 17 2 0 4 -64 4 -142 0 -153 5 -181 30 -172 11 5 15 21 15 63 1 83 27 133
84 161 88 42 151 8 207 -112 59 -128 43 -239 -41 -283 -36 -19 -103 -19 -138
-1 -15 8 -38 32 -52 55 -28 45 -32 47 -49 27 -9 -11 -8 -28 5 -73 9 -32 20
-62 24 -68 4 -5 16 -36 26 -67 18 -60 34 -75 34 -34 0 35 19 81 29 70 4 -5 18
-36 31 -69 31 -81 124 -261 160 -310 15 -22 58 -71 93 -110 l65 -70 22 21 c20
20 21 23 7 50 -37 73 -30 139 21 187 41 39 77 50 121 35 142 -49 250 -184 220
-277 -25 -79 -108 -126 -179 -101 -19 7 -47 21 -62 31 -32 23 -54 24 -62 3 -9
-24 -7 -31 5 -11 14 24 22 22 86 -25 32 -24 83 -55 113 -70 60 -30 171 -69
180 -63 3 2 19 30 35 61 26 51 29 67 28 144 -1 48 -6 105 -13 128 -12 47 -57
87 -105 95 -47 8 -99 30 -113 50 -8 10 -32 30 -55 44 -93 59 -208 191 -289
333 -14 25 -56 115 -92 200 -37 85 -71 164 -75 175 -78 178 -136 270 -194 306
-32 19 -111 26 -133 11z" id="node26" class="node"></path>
<path d="M309 1785 c-22 -14 -39 -35 -43 -52 -8 -38 -18 -301 -10 -285 3 6 11
12 18 12 8 0 17 -36 25 -105 7 -58 15 -105 18 -105 3 0 18 8 35 18 29 17 30
18 24 76 -3 32 -6 98 -6 145 -1 63 -3 81 -11 69 -5 -10 -16 -18 -22 -18 -15 0
-4 184 13 234 5 16 10 31 10 32 0 9 -18 2 -51 -21z" id="node27" class="node"></path>
<path d="M2391 1668 c4 -72 -2 -88 -26 -68 -29 24 -17 -19 18 -62 28 -35 32
-48 32 -98 0 -54 -3 -62 -35 -95 -20 -21 -53 -41 -80 -49 l-45 -13 49 -31 c27
-17 72 -36 102 -43 45 -10 58 -10 88 5 39 18 56 42 56 78 0 18 -2 20 -10 8 -7
-11 -10 -1 -10 36 0 63 -46 215 -94 313 -20 41 -39 77 -42 80 -3 3 -4 -24 -3
-61z" id="node28" class="node"></path>
<path d="M197 1673 c-61 -84 -90 -166 -89 -260 0 -45 3 -87 7 -93 5 -7 19 -10
38 -6 35 7 86 -20 111 -59 27 -42 34 -28 20 38 -7 34 -14 76 -15 92 l-1 30
-11 -27 c-11 -28 -22 -35 -31 -20 -7 11 10 313 19 335 14 34 -14 16 -48 -30z" id="node29" class="node"></path>
<path d="M983 1598 c-32 -41 -41 -128 -22 -208 17 -72 13 -126 -10 -159 -23
-33 -26 -41 -11 -41 6 0 19 15 30 33 16 26 20 28 20 12 0 -11 -7 -31 -16 -43
-9 -13 -14 -25 -11 -28 4 -5 24 18 55 62 11 17 12 16 8 -11 -3 -16 -8 -42 -12
-57 -4 -17 -2 -28 4 -28 13 0 32 54 32 91 0 16 5 29 11 29 7 0 10 -18 7 -49
-1 -27 0 -47 5 -44 13 8 7 97 -8 117 -8 10 -12 23 -9 27 3 5 -2 19 -10 31 -19
26 -20 90 -5 167 8 41 8 64 0 84 -11 29 -41 36 -58 15z" id="node30" class="node"></path>
<path d="M1066 1573 c9 -22 9 -50 1 -83 -10 -35 5 -55 29 -41 49 28 49 26 10
85 -36 55 -56 73 -40 39z" id="node31" class="node"></path>
<path d="M540 1498 c-26 -44 -33 -81 -26 -142 13 -97 80 -176 151 -176 52 0
70 29 70 114 0 62 -5 81 -34 140 -39 76 -61 96 -108 96 -27 0 -37 -6 -53 -32z
m118 -110 c17 -37 0 -81 -30 -76 -34 5 -55 49 -40 83 16 34 52 31 70 -7z" id="node32" class="node"></path>
<path d="M612 1369 c1 -12 9 -24 16 -27 9 -3 13 3 10 19 -1 12 -9 24 -16 27
-9 3 -13 -3 -10 -19z" id="node33" class="node"></path>
<path d="M483 1474 c-28 -44 -22 -144 14 -219 29 -61 78 -105 116 -105 15 0 8
8 -26 31 -61 40 -90 100 -95 195 -3 43 1 80 8 94 17 33 4 36 -17 4z" id="node34" class="node"></path>
<path d="M2532 1470 c0 -14 2 -19 5 -12 2 6 2 18 0 25 -3 6 -5 1 -5 -13z" id="node35" class="node"></path>
<path d="M1115 1435 c-16 -14 -38 -25 -47 -25 -10 0 -18 -6 -18 -14 0 -18 59
-29 115 -20 30 4 45 3 45 -4 0 -14 -59 -25 -110 -20 -22 2 -40 0 -40 -3 0 -4
20 -20 45 -36 47 -30 59 -61 25 -70 -11 -3 -20 -13 -20 -22 0 -9 -5 -33 -10
-53 -9 -31 -17 -39 -48 -48 -51 -14 -60 -13 -66 8 -3 10 -16 17 -30 17 -13 0
-21 -4 -18 -10 19 -34 95 -140 127 -179 44 -54 65 -57 121 -20 63 42 93 75
110 121 9 24 21 43 25 43 17 0 9 -46 -16 -85 -33 -54 -33 -85 0 -85 14 0 37 7
51 16 24 16 24 19 18 93 -9 113 -20 147 -77 241 -41 68 -135 181 -149 180 -2
-1 -16 -12 -33 -25z" id="node36" class="node"></path>
<path d="M852 1362 c-10 -7 -6 -25 16 -84 28 -71 62 -134 62 -113 0 6 -5 17
-10 25 -6 10 -3 25 10 48 20 33 26 85 14 116 -7 17 -69 22 -92 8z" id="node37" class="node"></path>
<path d="M1340 1260 c17 -28 30 -55 30 -60 0 -20 22 -20 49 -1 16 12 35 21 42
21 8 0 -22 20 -65 45 -44 25 -81 45 -82 45 -2 0 10 -23 26 -50z" id="node38" class="node"></path>
<path d="M1080 1291 c0 -6 9 -15 20 -21 13 -7 20 -7 20 -1 0 6 -9 15 -20 21
-13 7 -20 7 -20 1z" id="node39" class="node"></path>
<path d="M132 1267 c-42 -44 -55 -147 -28 -211 8 -19 31 -52 51 -75 33 -36 43
-41 80 -41 36 0 48 5 65 28 19 24 21 35 16 91 -3 35 -8 66 -10 68 -3 3 -20 -6
-38 -20 -50 -38 -82 -43 -101 -16 -21 29 -9 51 49 92 24 17 44 35 44 40 0 17
-62 67 -84 67 -13 0 -32 -11 -44 -23z" id="node40" class="node"></path>
<path d="M350 1234 c-139 -87 -161 -105 -158 -123 2 -9 6 -16 10 -16 17 0 258
170 258 182 0 22 -21 14 -110 -43z" id="node41" class="node"></path>
<path d="M67 1238 c-22 -34 -30 -118 -17 -169 19 -69 94 -158 134 -159 14 0
11 6 -15 23 -91 61 -134 211 -87 300 15 28 2 32 -15 5z" id="node42" class="node"></path>
<path d="M376 1178 l-25 -23 29 -90 c56 -172 73 -220 108 -310 19 -49 39 -94
43 -99 5 -6 9 14 9 45 0 30 6 63 13 73 12 16 21 5 95 -111 82 -130 168 -241
188 -242 5 -1 23 13 39 29 l29 30 -51 53 c-94 97 -145 170 -207 296 -35 70
-66 138 -71 151 -6 21 -9 15 -18 -37 -11 -69 -30 -83 -41 -30 -10 49 -98 287
-107 287 -4 0 -19 -10 -33 -22z" id="node43" class="node"></path>
<path d="M870 1197 c-1 -23 116 -201 176 -269 38 -43 132 -118 147 -118 7 0
-3 9 -22 21 -77 47 -182 172 -268 319 -18 30 -33 51 -33 47z" id="node44" class="node"></path>
<path d="M320 1139 c0 -6 5 -19 10 -30 17 -31 14 -126 -4 -154 -9 -14 -32 -33
-51 -42 l-34 -18 41 -90 c70 -152 162 -294 262 -403 l39 -42 37 40 c45 48 77
52 150 15 28 -14 50 -21 50 -15 0 5 -4 10 -8 10 -15 0 -115 131 -178 232 -67
108 -74 109 -74 7 0 -65 -20 -82 -38 -32 -6 16 -24 61 -41 102 -42 99 -96 257
-122 353 -12 43 -25 78 -30 78 -5 0 -9 -5 -9 -11z" id="node45" class="node"></path>

<path d="M1343 908 c-30 -15 -30 -51 1 -71 23 -15 24 -15 30 6 8 31 7 77 -1
76 -5 0 -18 -5 -30 -11z" id="node47" class="node"></path>
<path d="M1235 829 c-11 -17 1 -21 15 -4 8 9 8 15 2 15 -6 0 -14 -5 -17 -11z" id="node48" class="node"></path>
<path d="M1267 802 c-18 -19 -23 -42 -9 -42 8 0 34 51 29 57 -2 2 -11 -5 -20
-15z" id="node49" class="node"></path>
<path d="M1312 797 c-12 -13 -22 -32 -21 -43 0 -15 2 -14 10 6 5 14 20 33 32
42 12 10 17 18 11 18 -6 0 -20 -10 -32 -23z" id="node50" class="node"></path>
<path d="M1341 781 c-26 -26 -28 -64 -4 -59 25 5 51 54 36 69 -8 8 -16 6 -32
-10z" id="node51" class="node"></path>
<path d="M1002 747 c-73 -78 62 -270 190 -270 45 0 86 25 94 57 10 42 -32 121
-90 164 -100 77 -155 91 -194 49z m157 -71 c47 -50 23 -111 -36 -90 -39 13
-61 55 -45 88 15 33 51 34 81 2z" id="node52" class="node"></path>
<path d="M1103 665 c-6 -18 23 -55 44 -55 19 0 16 23 -7 48 -25 26 -29 27 -37
7z" id="node53" class="node"></path>
<path d="M1413 687 c89 -76 90 -292 1 -416 l-25 -36 30 35 c50 55 71 126 71
233 0 106 -22 169 -65 189 -14 6 -25 15 -25 20 0 4 -6 8 -12 8 -7 0 4 -15 25
-33z" id="node54" class="node"></path>
<path d="M948 668 c-3 -7 1 -33 8 -58 17 -59 89 -134 159 -166 50 -23 56 -24
89 -10 43 18 46 24 8 18 -86 -12 -193 66 -236 171 -13 32 -26 52 -28 45z" id="node55" class="node"></path>
<path d="M863 414 c-57 -53 -103 -103 -103 -111 0 -31 32 -24 78 18 165 150
174 160 162 174 -7 8 -18 15 -24 15 -6 0 -57 -43 -113 -96z" id="node56" class="node"></path>
<path d="M674 409 c-64 -23 -20 -157 72 -220 130 -89 262 -10 156 94 l-38 37
-29 -30 c-34 -36 -68 -39 -89 -8 -15 21 -14 24 16 55 17 18 30 34 27 36 -2 1
-11 8 -21 15 -25 20 -71 30 -94 21z" id="node57" class="node"></path>
<path d="M945 390 c-17 -18 -25 -33 -19 -38 5 -4 35 -29 66 -56 l58 -47 -6 30
c-8 40 -1 39 83 -4 92 -47 195 -74 217 -56 27 23 18 38 -31 52 -60 16 -164 70
-223 115 -30 24 -46 31 -48 22 -11 -41 -12 -41 -40 -15 l-28 27 -29 -30z" id="node58" class="node"></path>
<path d="M611 326 c-1 -37 31 -105 67 -142 15 -15 50 -37 77 -50 49 -23 129
-32 139 -16 3 5 -8 7 -23 4 -30 -4 -120 30 -160 60 -34 26 -70 81 -86 131 -12
39 -13 40 -14 13z" id="node59" class="node"></path>
<path d="M890 330 c0 -5 4 -10 9 -10 5 0 23 -21 41 -47 30 -46 34 -72 19 -122
-6 -21 65 -41 156 -43 72 -1 87 1 127 25 24 14 50 32 57 41 13 16 9 18 -59 31
-19 4 -66 22 -104 41 l-68 33 6 -34 c4 -19 3 -35 -1 -35 -5 0 -44 29 -87 65
-77 64 -96 75 -96 55z" id="node60" class="node"></path>
<path d="M1359 203 l-24 -28 28 24 c25 23 32 31 24 31 -2 0 -14 -12 -28 -27z" id="node61" class="node"></path>
</g>
</svg>