<!--?xml version="1.0" standalone="no"?-->

<svg version="1.0" xmlns="http://www.w3.org/2000/svg" width="271.000000pt" height="300.000000pt" viewBox="0 0 271.000000 300.000000" preserveAspectRatio="xMidYMid meet">
<g transform="translate(0.000000,300.000000) scale(0.100000,-0.100000)" fill="#050505" stroke="none">

<path class="node" id="node2" d="M1333 2781 c-51 -46 -57 -127 -10 -148 48 -22 117 41 117 106 0 71
-53 92 -107 42z m87 -16 c15 -18 -2 -45 -30 -45 -23 0 -34 28 -19 46 15 18 33
18 49 -1z"></path>
<path class="node" id="node3" d="M1702 2667 c-43 -45 -18 -127 38 -127 55 0 82 88 40 130 -26 26 -52
25 -78 -3z m76 -25 c3 -16 -2 -22 -17 -22 -24 0 -35 15 -27 36 9 23 40 13 44
-14z"></path>
</g>
<g transform="translate(0.000000,300.000000) scale(0.100000,-0.100000)" fill="#A0A0A0" stroke="none">
<path class="node" id="node4" d="M1377 2960 c-64 -16 -110 -46 -170 -109 -75 -79 -111 -155 -105 -223
12 -125 131 -172 265 -103 62 31 133 97 133 123 0 28 28 91 57 130 20 27 24
41 20 69 -15 93 -96 138 -200 113z m45 -167 c58 -53 -28 -193 -99 -160 -47 21
-41 102 10 148 36 33 62 37 89 12z"></path>
<path class="node" id="node5" d="M1371 2766 c-15 -18 -4 -46 19 -46 28 0 45 27 30 45 -16 19 -34 19
-49 1z"></path>
<path class="node" id="node6" d="M1647 2815 c-82 -29 -128 -105 -128 -215 0 -101 44 -180 123 -221 46
-24 82 -24 133 0 48 22 65 40 99 105 74 140 -24 348 -162 346 -15 -1 -44 -7
-65 -15z m133 -145 c42 -42 15 -130 -40 -130 -56 0 -81 82 -38 127 26 28 52
29 78 3z"></path>
<path class="node" id="node7" d="M1734 2656 c-8 -21 3 -36 27 -36 15 0 20 6 17 22 -4 27 -35 37 -44
14z"></path>
<path class="node" id="node8" d="M491 2799 c-30 -5 -59 -13 -65 -18 -6 -5 -22 -12 -36 -16 -41 -12
-107 -72 -128 -117 -63 -132 -23 -390 84 -546 98 -141 397 -362 559 -412 22
-7 45 -16 50 -20 23 -18 178 -43 285 -45 270 -7 581 94 713 231 68 70 126 195
127 271 0 17 4 35 10 38 17 10 11 -63 -10 -136 -40 -134 -139 -240 -290 -313
l-65 -31 36 -3 c56 -5 174 24 252 62 82 39 258 166 305 221 141 160 80 331
-183 507 -67 44 -196 118 -207 118 -3 0 -8 -20 -12 -46 -17 -125 -126 -217
-239 -200 -81 12 -177 125 -177 209 0 35 -8 34 -56 -4 -64 -51 -121 -72 -196
-73 -75 -1 -105 14 -146 75 -20 29 -23 43 -19 94 3 33 8 72 12 87 8 32 14 29
-110 53 -106 20 -414 29 -494 14z"></path>
<path class="node" id="node9" d="M720 1703 c-11 -15 -39 -63 -61 -107 -70 -145 -70 -262 0 -479 65
-199 74 -259 46 -336 -21 -60 -99 -168 -216 -301 -113 -128 -142 -175 -119
-190 8 -6 41 -10 74 -10 62 0 127 26 195 77 31 24 77 33 99 19 18 -11 54 -130
67 -219 17 -113 34 -135 89 -117 46 15 53 29 62 126 4 43 11 89 15 102 17 46
104 22 235 -65 59 -39 121 -63 142 -55 11 4 13 18 8 64 -7 66 -17 90 -120 261
-40 67 -105 178 -146 247 -40 69 -95 162 -122 207 -27 46 -48 91 -46 100 3 16
39 -39 114 -172 32 -57 89 -154 109 -185 12 -19 55 -90 94 -157 l72 -123 79 0
c76 0 79 1 96 29 9 16 64 71 122 122 146 130 157 154 156 347 -1 78 2 142 6
142 13 0 20 -174 10 -252 -5 -43 -19 -95 -30 -117 -11 -23 -65 -80 -129 -137
-116 -102 -131 -125 -131 -200 0 -51 18 -58 60 -23 14 11 42 31 64 45 33 22
42 24 66 14 44 -18 66 -48 115 -160 53 -119 66 -138 82 -118 14 17 83 193 83
211 0 8 10 26 21 41 27 34 40 32 167 -31 108 -52 160 -63 185 -38 33 33 -11
129 -162 355 -134 200 -163 262 -159 341 2 33 7 59 12 59 5 0 8 -26 7 -58 -2
-50 3 -68 41 -141 24 -46 48 -86 55 -88 6 -2 18 18 27 49 47 163 49 369 7 573
-28 132 -72 286 -101 348 -15 30 -21 30 -95 -3 -55 -25 -182 -44 -252 -38 -32
3 -69 1 -83 -4 -72 -27 -271 -58 -376 -58 -147 0 -321 42 -455 110 -49 26 -53
25 -79 -7z"></path>
<path class="node" id="node10" d="M365 1389 c-113 -25 -225 -111 -275 -209 -52 -105 -71 -261 -42 -361
28 -95 143 -203 262 -245 25 -9 54 -20 65 -25 11 -5 42 -13 70 -19 47 -10 51
-10 68 12 11 13 31 37 46 53 15 17 50 66 78 109 81 122 81 161 8 386 -35 110
-65 247 -65 301 0 11 -161 10 -215 -2z"></path>
<path class="node" id="node11" d="M2209 1264 c-1 -5 -1 -72 0 -149 2 -154 -9 -254 -40 -359 l-20 -68
46 -70 c25 -38 51 -71 58 -74 35 -13 233 93 313 169 97 90 126 174 104 294
-19 99 -76 177 -162 221 -61 32 -74 35 -182 40 -65 3 -117 1 -117 -4z"></path>
</g>
</svg>