<!--?xml version="1.0" standalone="no"?-->

<svg version="1.0" xmlns="http://www.w3.org/2000/svg" width="300.000000pt" height="300.000000pt" viewBox="0 0 300.000000 300.000000" preserveAspectRatio="xMidYMid meet">
<g transform="translate(0.000000,300.000000) scale(0.100000,-0.100000)" fill="#202020" stroke="none">
<path class="node" id="node1" d="M1982 2858 c-7 -7 -12 -17 -12 -22 0 -6 -12 -24 -26 -41 -14 -16 -37
-43 -51 -59 l-24 -29 -65 12 c-36 6 -87 9 -114 5 -46 -6 -52 -4 -91 29 -61 53
-118 63 -261 47 -114 -12 -153 -26 -192 -69 -14 -15 -24 -17 -46 -11 -57 16
-150 -20 -223 -89 -27 -25 -77 -115 -77 -139 0 -7 -12 -12 -26 -12 -58 0 -137
-65 -164 -135 -14 -37 -12 -163 4 -207 7 -20 32 -64 55 -97 22 -33 40 -64 39
-68 -1 -5 1 -19 5 -33 7 -29 35 -156 72 -320 48 -220 68 -305 81 -355 7 -27
20 -86 29 -130 17 -85 30 -146 63 -290 12 -49 39 -173 61 -275 68 -307 55
-278 131 -307 127 -47 119 -77 -23 -86 -116 -7 -233 -33 -258 -58 -24 -24 -12
-52 33 -75 46 -24 479 -17 504 7 15 16 18 15 36 -3 20 -20 30 -20 214 -16 158
4 198 8 218 22 35 22 32 55 -6 86 -29 22 -43 25 -152 30 -106 4 -121 7 -124
23 -5 25 13 43 48 51 46 9 157 64 163 81 4 8 4 21 1 29 -3 7 2 50 10 93 8 44
18 107 21 139 4 33 15 106 26 163 10 58 19 120 19 138 0 18 4 41 9 51 10 17
37 215 34 242 -1 8 2 17 7 20 4 3 10 33 13 67 3 35 15 116 26 180 25 147 49
305 62 403 20 147 29 184 53 210 37 40 76 127 76 172 0 31 -7 46 -30 70 -23
23 -30 38 -30 69 0 43 -32 103 -72 135 -54 44 -54 48 -1 116 57 74 74 93 102
108 34 18 28 75 -10 111 -25 23 -40 29 -78 29 -26 0 -52 -5 -59 -12z m96 -54
c12 -8 22 -19 22 -24 0 -12 -31 -2 -60 20 -23 18 -23 20 -5 20 11 0 31 -7 43
-16z m-533 -67 c17 -9 36 -30 44 -47 11 -25 18 -30 35 -26 69 20 206 18 206
-2 0 -4 -38 -54 -84 -112 l-85 -105 -69 3 c-72 4 -112 -8 -112 -33 0 -22 18
-27 56 -15 48 16 111 -3 171 -52 49 -41 56 -44 146 -52 52 -6 57 -4 57 14 0
24 -27 40 -63 36 -15 -2 -27 0 -27 3 0 12 41 67 97 130 l32 36 42 -40 c23 -22
48 -55 55 -73 13 -29 13 -37 -2 -67 -18 -39 -13 -55 20 -55 48 0 68 -56 36
-97 -11 -14 -20 -31 -20 -37 0 -6 -16 -29 -35 -50 -19 -22 -35 -47 -35 -57 0
-9 -6 -22 -14 -28 -10 -9 -12 -28 -8 -76 6 -77 -9 -90 -65 -60 -40 22 -52 12
-53 -40 0 -40 -10 -75 -21 -75 -5 0 -16 25 -24 55 -9 30 -24 64 -34 76 -17 21
-22 22 -79 12 -34 -5 -62 -9 -62 -8 0 1 7 16 16 34 12 23 15 51 12 97 -3 57
-8 68 -38 99 -63 65 -148 68 -205 7 l-24 -25 -35 31 c-20 17 -54 37 -77 43
-38 12 -45 11 -88 -12 -66 -35 -91 -77 -91 -154 0 -50 5 -67 25 -95 27 -36 30
-45 16 -36 -14 9 -71 -50 -71 -74 0 -11 -4 -18 -10 -15 -5 3 -10 15 -10 25 0
23 -45 38 -68 23 -22 -13 -40 -69 -41 -122 -1 -61 -10 -47 -16 25 -3 32 -10
70 -15 84 -4 14 -11 42 -15 62 -5 34 -11 40 -65 64 -33 15 -60 31 -60 35 0 5
-6 9 -12 9 -19 0 -109 126 -126 174 -21 61 -11 136 23 187 45 64 68 75 123 60
56 -15 71 -4 55 38 -9 25 -7 36 18 80 33 61 56 82 126 116 63 31 85 31 123 4
34 -26 60 -19 60 15 0 37 41 63 118 75 130 21 191 18 247 -12z m482 5 l23 -14
-32 -46 -32 -46 -12 29 c-17 38 -17 78 -2 93 11 11 14 10 55 -16z m-92 -123
c6 -30 2 -41 -21 -69 l-28 -33 -13 49 c-6 26 -11 50 -10 51 1 1 13 15 27 31
28 31 34 27 45 -29z m-98 -106 c10 -43 9 -49 -15 -79 l-26 -33 -13 42 c-7 23
-13 47 -13 53 0 14 38 64 49 64 4 0 12 -21 18 -47z m-91 -121 c-12 -12 -39 26
-32 45 7 16 9 15 23 -10 8 -16 12 -31 9 -35z m-419 -272 c59 -35 69 -142 19
-189 -13 -13 -40 -26 -59 -31 -96 -21 -163 109 -101 194 36 48 89 58 141 26z
m253 -3 c30 -15 60 -71 60 -112 0 -37 -34 -95 -61 -102 -10 -3 -19 -9 -19 -14
0 -21 -50 -6 -86 25 -38 32 -39 36 -39 96 0 57 2 64 33 91 35 31 71 37 112 16z
m-761 -207 c44 -22 64 -69 76 -175 9 -77 26 -105 65 -105 36 0 50 23 50 82 0
55 15 81 24 43 6 -23 11 -26 44 -23 32 3 40 8 56 43 11 22 26 44 34 49 8 5
106 10 216 12 111 1 237 6 281 11 85 10 104 3 105 -39 0 -9 8 -30 17 -47 10
-16 14 -33 11 -37 -4 -4 -30 -9 -57 -12 -43 -4 -54 -1 -81 22 -18 14 -36 26
-41 26 -20 0 -21 -32 -1 -53 21 -22 21 -23 3 -53 -26 -43 -94 -94 -134 -101
-61 -10 -237 63 -237 98 0 5 11 19 25 33 26 26 33 60 15 71 -6 4 -29 -12 -52
-34 -35 -36 -46 -41 -87 -41 -54 0 -76 -12 -68 -34 5 -12 21 -16 67 -16 46 0
60 -3 60 -15 0 -8 9 -20 20 -27 11 -7 20 -24 20 -38 0 -26 39 -113 62 -140 31
-37 63 -50 125 -50 34 0 73 4 87 10 37 14 63 63 71 131 5 40 13 62 24 68 9 5
27 28 41 50 21 35 30 41 59 41 48 0 111 21 111 36 0 8 6 11 15 8 21 -8 75 49
75 79 0 19 6 26 28 30 15 3 27 5 28 4 2 -4 -25 -198 -40 -281 -9 -49 -16 -102
-16 -119 0 -17 -4 -44 -9 -61 -8 -25 -28 -143 -36 -216 -1 -8 -5 -31 -9 -50
-3 -19 -8 -51 -11 -71 -4 -41 -36 -249 -66 -429 -23 -139 -27 -173 -28 -211
-1 -22 -12 -31 -65 -58 -160 -82 -373 -85 -525 -8 -48 23 -54 35 -79 152 -11
48 -22 97 -78 350 -14 61 -34 148 -45 195 -11 47 -22 96 -24 110 -3 14 -16 75
-31 135 -14 61 -32 137 -39 170 -36 162 -55 251 -80 365 -15 69 -29 128 -32
133 -8 13 17 8 56 -13z m600 -12 c12 -16 10 -18 -19 -18 -32 0 -33 0 -15 20
10 11 19 19 19 18 1 -2 8 -11 15 -20z m-26 -383 c68 -18 123 -19 133 -4 4 7
10 7 16 1 15 -15 -2 -60 -34 -87 -61 -51 -143 -22 -189 66 -18 37 -18 39 -1
39 10 0 44 -7 75 -15z m-3 -1354 c0 -81 -2 -82 -251 -79 -210 3 -213 3 -177
20 22 10 77 19 135 23 168 10 166 10 186 75 3 11 17 14 56 12 l51 -4 0 -47z
m160 13 c0 -46 23 -54 159 -54 79 0 112 -4 120 -13 6 -8 8 -17 4 -20 -3 -4
-84 -7 -179 -7 l-172 0 -4 65 -3 64 30 3 c41 5 45 2 45 -38z"></path>
<path class="node" id="node2" d="M1296 2624 c-22 -22 -21 -54 3 -54 10 0 22 7 25 16 6 16 40 16 94 -1
19 -6 22 -4 22 18 0 30 -16 37 -80 37 -31 0 -54 -6 -64 -16z"></path>
<path class="node" id="node3" d="M1085 2534 c-14 -15 -25 -35 -25 -45 0 -9 -3 -25 -6 -33 -4 -11 8
-30 34 -57 32 -31 47 -40 68 -37 33 4 43 25 17 34 -10 4 -30 18 -44 31 -22 20
-25 30 -20 51 5 19 15 27 30 28 36 2 50 23 27 40 -29 21 -54 17 -81 -12z"></path>
<path class="node" id="node4" d="M843 2333 c-44 -22 -61 -42 -78 -88 -21 -53 -17 -109 8 -113 13 -3
17 3 17 28 0 75 59 147 106 129 40 -15 64 -11 64 10 0 14 -13 23 -44 34 -39
13 -47 13 -73 0z"></path>
<path class="node" id="node5" d="M1143 2261 c-26 -21 -31 -61 -9 -61 8 0 31 10 51 21 31 19 40 20 63
10 22 -11 28 -10 39 5 21 29 -2 44 -66 44 -40 -1 -62 -6 -78 -19z"></path>
<path class="node" id="node6" d="M1451 2271 c-8 -5 -11 -16 -7 -26 5 -14 14 -16 41 -11 23 5 45 2 66
-9 53 -28 84 6 37 39 -24 17 -114 22 -137 7z"></path>
<path class="node" id="node7" d="M1741 2241 c-31 -56 3 -121 63 -121 29 0 36 4 36 19 0 14 -8 21 -27
23 -26 3 -28 6 -28 48 0 34 -4 45 -17 48 -9 2 -21 -6 -27 -17z"></path>
<path class="node" id="node8" d="M888 2073 c-23 -6 -31 -34 -15 -51 12 -11 19 -12 36 -2 28 14 51 -2
51 -36 0 -17 6 -24 20 -24 17 0 20 7 20 41 0 62 -44 90 -112 72z"></path>
<path class="node" id="node9" d="M1803 2040 c-23 -10 -43 -39 -43 -64 0 -23 37 -20 52 4 10 15 24 20
55 20 35 0 43 3 43 19 0 27 -62 39 -107 21z"></path>
<path class="node" id="node10" d="M1260 2014 c-10 -11 -11 -20 -3 -32 17 -27 38 -20 38 12 0 34 -16 44
-35 20z"></path>
<path class="node" id="node11" d="M1511 2001 c-9 -16 -8 -22 7 -30 23 -12 45 1 40 25 -5 26 -34 29 -47
5z"></path>
<path class="node" id="node12" d="M996 1279 c-14 -17 -29 -42 -32 -55 -9 -35 3 -114 20 -133 8 -9 20
-27 26 -41 6 -14 20 -41 31 -60 14 -25 19 -55 19 -106 0 -62 3 -75 25 -98 27
-30 43 -32 71 -11 10 8 34 15 52 15 22 0 32 5 32 16 0 9 10 24 22 34 21 16 21
20 9 61 -7 24 -30 64 -51 90 -55 64 -78 127 -79 213 -1 31 -8 45 -37 72 -44
42 -74 43 -108 3z m81 -41 c6 -7 13 -40 17 -73 8 -76 32 -140 67 -178 15 -16
35 -45 46 -64 17 -33 17 -35 1 -44 -10 -6 -18 -18 -18 -27 -1 -15 -2 -15 -15
2 -17 23 -45 14 -45 -14 0 -12 -4 -19 -9 -16 -5 3 -10 43 -13 89 -4 78 -7 89
-47 151 -47 75 -58 117 -42 159 11 29 41 36 58 15z"></path>
<path class="node" id="node13" d="M1704 1271 c-42 -18 -55 -69 -53 -208 1 -141 6 -129 -76 -186 -21
-15 -26 -25 -23 -55 2 -31 7 -38 28 -40 13 -2 29 -11 35 -19 9 -13 22 -14 61
-8 63 9 74 19 74 67 0 21 7 49 15 62 9 13 22 56 31 95 8 40 21 100 29 134 18
76 19 118 3 139 -15 20 -94 31 -124 19z m88 -59 c4 -4 1 -27 -7 -50 -9 -24
-19 -71 -24 -106 -5 -34 -21 -92 -35 -128 -14 -35 -26 -75 -26 -88 0 -13 -3
-20 -7 -17 -3 4 -15 0 -25 -10 -17 -15 -18 -15 -18 0 0 12 -9 17 -27 17 -27 1
-27 1 11 25 55 33 66 67 66 202 0 137 14 179 58 168 15 -3 30 -10 34 -13z"></path>
</g>
<g transform="translate(0.000000,300.000000) scale(0.100000,-0.100000)" fill="#FFFFFF" stroke="none">

<path class="node" id="node15" d="M2040 2800 c29 -22 60 -32 60 -20 0 14 -43 40 -65 40 -18 0 -18 -2 5
-20z"></path>
<path class="node" id="node16" d="M1400 2762 c-147 -11 -220 -40 -220 -88 0 -34 -26 -41 -60 -15 -38
27 -60 27 -123 -4 -70 -34 -93 -55 -126 -116 -25 -44 -27 -55 -18 -80 16 -42
1 -53 -55 -38 -55 15 -78 4 -123 -60 -34 -51 -44 -126 -23 -187 17 -48 107
-174 126 -174 6 0 12 -4 12 -9 0 -4 27 -20 60 -35 54 -24 60 -30 65 -64 4 -20
11 -48 15 -62 5 -14 12 -52 15 -84 6 -72 15 -86 16 -25 1 53 19 109 41 122 23
15 68 0 68 -23 0 -10 5 -22 10 -25 6 -3 10 4 10 15 0 24 57 83 71 74 14 -9 11
0 -16 36 -20 28 -25 45 -25 95 0 77 25 119 91 154 43 23 50 24 88 12 23 -6 57
-26 77 -43 l35 -31 24 25 c57 61 142 58 205 -7 30 -31 35 -42 38 -99 3 -46 0
-74 -12 -97 -9 -18 -16 -33 -16 -34 0 -1 28 3 62 8 57 10 62 9 79 -12 10 -12
25 -46 34 -76 8 -30 19 -55 24 -55 11 0 21 35 21 75 1 52 13 62 53 40 56 -30
71 -17 65 60 -4 48 -2 67 8 76 8 6 14 19 14 28 0 10 16 35 35 57 19 21 35 44
35 50 0 6 9 23 20 37 32 41 12 97 -36 97 -33 0 -38 16 -20 55 15 30 15 38 2
67 -7 18 -32 51 -55 73 l-42 40 -32 -36 c-56 -63 -97 -118 -97 -130 0 -3 12
-5 27 -3 36 4 63 -12 63 -36 0 -18 -5 -20 -57 -14 -90 8 -97 11 -146 52 -60
49 -123 68 -171 52 -38 -12 -56 -7 -56 15 0 25 40 37 112 33 l69 -3 85 105
c46 58 84 108 84 112 0 20 -137 22 -206 2 -17 -4 -24 1 -35 26 -22 49 -100 79
-189 72z m24 -128 c9 -3 16 -17 16 -31 0 -22 -3 -24 -22 -18 -54 17 -88 17
-94 1 -9 -23 -44 -21 -44 3 0 33 28 51 80 51 27 0 55 -3 64 -6z m-258 -88 c23
-17 9 -38 -27 -40 -15 -1 -25 -9 -30 -28 -5 -21 -2 -31 20 -51 14 -13 34 -27
44 -31 26 -9 16 -30 -17 -34 -21 -3 -36 6 -68 37 -26 27 -38 46 -34 57 3 8 6
24 6 33 0 24 45 71 68 71 10 0 27 -6 38 -14z m-206 -247 c0 -21 -24 -25 -64
-10 -47 18 -106 -54 -106 -129 0 -25 -4 -31 -17 -28 -25 4 -29 60 -8 113 17
46 34 66 78 88 26 13 34 13 73 0 31 -11 44 -20 44 -34z m329 -32 c8 -10 7 -18
-2 -31 -11 -15 -17 -16 -39 -5 -23 10 -32 9 -63 -10 -20 -11 -43 -21 -51 -21
-22 0 -17 40 9 61 27 22 128 27 146 6z m299 -3 c47 -33 16 -67 -37 -39 -21 11
-43 14 -66 9 -27 -5 -36 -3 -41 11 -4 10 -1 21 7 26 23 15 113 10 137 -7z
m197 -54 c0 -42 2 -45 28 -48 19 -2 27 -9 27 -23 0 -29 -65 -27 -91 4 -32 38
-18 122 19 115 13 -3 17 -14 17 -48z m-807 -149 c30 -26 32 -101 2 -101 -14 0
-20 7 -20 24 0 34 -23 50 -51 36 -17 -10 -24 -9 -36 2 -43 43 56 79 105 39z
m901 -17 c21 -5 31 -12 31 -25 0 -16 -8 -19 -43 -19 -31 0 -45 -5 -55 -20 -15
-24 -52 -27 -52 -4 0 25 20 54 43 64 28 11 37 11 76 4z"></path>
<path class="node" id="node17" d="M1972 2758 c-15 -15 -15 -55 2 -93 l12 -29 32 46 32 46 -23 14 c-41
26 -44 27 -55 16z"></path>
<path class="node" id="node18" d="M1890 2648 c-14 -16 -26 -30 -27 -31 -1 -1 4 -25 10 -51 l13 -49 28
33 c23 28 27 39 21 69 -11 56 -17 60 -45 29z"></path>
<path class="node" id="node19" d="M1791 2534 c-24 -31 -25 -35 -8 -91 l13 -42 26 33 c24 30 25 36 15
79 -6 26 -14 47 -18 47 -4 0 -17 -12 -28 -26z"></path>
<path class="node" id="node20" d="M1714 2437 c-4 -12 -1 -25 9 -35 24 -23 31 -9 14 25 -14 25 -16 26
-23 10z"></path>
<path class="node" id="node21" d="M1225 2129 c-81 -41 -83 -170 -4 -218 58 -35 142 7 155 77 19 99 -69
181 -151 141z m70 -135 c0 -32 -21 -39 -38 -12 -8 12 -7 21 3 32 19 24 35 14
35 -20z"></path>
<path class="node" id="node22" d="M1468 2101 c-31 -27 -33 -34 -33 -91 0 -60 1 -64 39 -96 36 -31 86
-46 86 -25 0 5 9 11 19 14 27 7 61 65 61 102 0 41 -30 97 -60 112 -41 21 -77
15 -112 -16z m90 -105 c5 -24 -17 -37 -40 -25 -15 8 -16 14 -7 30 13 24 42 21
47 -5z"></path>
<path class="node" id="node23" d="M763 1923 c3 -5 17 -64 32 -133 25 -114 44 -203 80 -365 7 -33 25
-109 39 -170 15 -60 28 -121 31 -135 2 -14 13 -63 24 -110 11 -47 31 -134 45
-195 56 -253 67 -302 78 -350 25 -117 31 -129 79 -152 109 -55 232 -70 363
-44 128 25 226 73 227 110 1 38 5 72 28 211 30 180 62 388 66 429 3 20 8 52
11 71 4 19 8 42 9 50 8 73 28 191 36 216 5 17 9 44 9 61 0 17 7 70 16 119 15
83 42 277 40 281 -1 1 -13 -1 -28 -4 -22 -4 -28 -11 -28 -30 0 -30 -54 -87
-75 -79 -9 3 -15 0 -15 -8 0 -15 -63 -36 -111 -36 -29 0 -38 -6 -59 -41 -14
-22 -32 -45 -41 -50 -11 -6 -19 -28 -24 -68 -8 -68 -34 -117 -71 -131 -14 -6
-53 -10 -87 -10 -62 0 -94 13 -125 50 -23 27 -62 114 -62 140 0 14 -9 31 -20
38 -11 7 -20 19 -20 27 0 12 -14 15 -60 15 -46 0 -62 4 -67 16 -8 22 14 34 68
34 41 0 52 5 87 41 23 22 46 38 52 34 18 -11 11 -45 -15 -71 -14 -14 -25 -28
-25 -33 0 -35 176 -108 237 -98 40 7 108 58 134 101 18 30 18 31 -3 53 -20 21
-19 53 1 53 5 0 23 -12 41 -26 27 -23 38 -26 81 -22 27 3 53 8 57 12 3 4 -1
21 -11 37 -9 17 -17 38 -17 47 -1 42 -20 49 -105 39 -44 -5 -170 -10 -281 -11
-110 -2 -208 -7 -216 -12 -8 -5 -23 -27 -34 -49 -16 -35 -24 -40 -56 -43 -33
-3 -38 0 -44 23 -9 38 -24 12 -24 -43 0 -59 -14 -82 -50 -82 -39 0 -56 28 -65
105 -12 106 -32 153 -76 175 -39 21 -64 26 -56 13z m341 -647 c29 -27 36 -41
37 -72 1 -86 24 -149 79 -213 21 -26 44 -66 51 -90 12 -41 12 -45 -9 -61 -12
-10 -22 -25 -22 -34 0 -11 -10 -16 -32 -16 -18 0 -42 -7 -52 -15 -28 -21 -44
-19 -71 11 -22 23 -25 36 -25 98 0 51 -5 81 -19 106 -11 19 -25 46 -31 60 -6
14 -18 32 -26 41 -17 19 -29 98 -20 133 9 38 55 86 81 86 13 0 40 -15 59 -34z
m724 -24 c16 -21 15 -63 -3 -139 -8 -34 -21 -94 -29 -134 -9 -39 -22 -82 -31
-95 -8 -13 -15 -41 -15 -62 0 -48 -11 -58 -74 -67 -39 -6 -52 -5 -61 8 -6 8
-22 17 -35 19 -21 2 -26 9 -28 40 -3 30 2 40 23 55 82 57 77 45 76 186 -2 183
20 223 119 211 25 -3 51 -13 58 -22z"></path>
<path class="node" id="node24" d="M1019 1223 c-16 -42 -5 -84 42 -159 40 -62 43 -73 47 -151 3 -46 8
-86 13 -89 5 -3 9 4 9 16 0 28 28 37 45 14 13 -17 14 -17 15 -2 0 9 8 21 18
27 16 9 16 11 -1 44 -11 19 -31 48 -46 64 -35 38 -59 102 -67 178 -4 33 -11
66 -17 73 -17 21 -47 14 -58 -15z"></path>
<path class="node" id="node25" d="M1716 1201 c-12 -22 -16 -60 -16 -144 0 -135 -11 -169 -66 -202 -38
-24 -38 -24 -11 -25 18 0 27 -5 27 -17 0 -15 1 -15 18 0 10 10 22 14 25 10 4
-3 7 4 7 17 0 13 12 53 26 88 14 36 30 94 35 128 5 35 15 82 24 106 16 47 13
53 -27 63 -23 6 -29 2 -42 -24z"></path>
<path class="node" id="node26" d="M1385 1900 c-18 -20 -17 -20 15 -20 29 0 31 2 19 18 -7 9 -14 18 -15
20 0 1 -9 -7 -19 -18z"></path>
<path class="node" id="node27" d="M1319 1491 c46 -88 128 -117 189 -66 32 27 49 72 34 87 -6 6 -12 6
-16 -1 -10 -15 -65 -14 -133 4 -31 8 -65 15 -75 15 -17 0 -17 -2 1 -39z"></path>
<path class="node" id="node28" d="M1283 200 c-20 -65 -18 -65 -186 -75 -58 -4 -113 -13 -135 -23 -36
-17 -33 -17 177 -20 249 -3 251 -2 251 79 l0 47 -51 4 c-39 2 -53 -1 -56 -12z"></path>
<path class="node" id="node29" d="M1505 212 l-30 -3 3 -64 4 -65 172 0 c95 0 176 3 179 7 4 3 2 12 -4
20 -8 9 -41 13 -120 13 -136 0 -159 8 -159 54 0 40 -4 43 -45 38z"></path>
</g>
</svg>