<!--?xml version="1.0" standalone="no"?--><svg version="1.0" xmlns="http://www.w3.org/2000/svg" width="300.000000pt" height="300.000000pt" viewBox="0 0 300.000000 300.000000" preserveAspectRatio="xMidYMid meet">
<metadata>
  <rdf:rdf xmlns:rdf="http://www.w3.org/1999/02/22-rdf-syntax-ns#" xmlns:rdfs="http://www.w3.org/2000/01/rdf-schema#" xmlns:dc="http://purl.org/dc/elements/1.1/">
    <rdf:description dc:title="funny art shock reaction" dc:publisher="Hiox" dc:date="2015-03-14" dc:format="image/svg+xml" dc:language="en">
      <dc:creator>
        <rdf:bag>
          <rdf:li>svgimages.com</rdf:li>
        </rdf:bag>
      </dc:creator>
    </rdf:description>
  </rdf:rdf>
</metadata>
<g transform="translate(0.000000,300.000000) scale(0.100000,-0.100000)" fill="#0D0D0D" stroke="none">
<path d="M1410 2976 c-82 -34 -147 -69 -220 -118 -36 -25 -103 -71 -150 -103
-166 -113 -314 -165 -468 -165 -123 1 -191 54 -179 142 9 66 65 108 145 108
45 0 82 29 82 65 0 37 -26 55 -79 55 -97 0 -194 -53 -239 -129 -22 -38 -27
-58 -27 -116 1 -105 36 -158 140 -214 46 -24 59 -26 170 -25 82 0 137 6 174
17 54 17 82 14 48 -4 -32 -19 -152 -127 -192 -174 -105 -124 -183 -259 -235
-407 -20 -54 -22 -71 -13 -91 25 -54 104 -31 118 36 11 50 88 207 136 278 60
89 200 228 286 283 78 50 94 54 114 29 23 -27 153 -120 222 -158 244 -134 486
-151 679 -48 29 15 84 58 122 95 l68 68 48 -35 c62 -46 168 -158 219 -233 44
-65 112 -200 131 -259 23 -71 68 -94 103 -55 22 25 21 56 -4 122 -81 212 -207
384 -386 524 l-58 46 -1 77 c-1 64 -6 88 -30 138 -44 91 -142 184 -247 234
l-86 41 -168 -1 c-150 -1 -174 -3 -223 -23z m376 -100 c151 -55 261 -175 263
-286 1 -46 -37 -126 -84 -173 -122 -125 -304 -162 -495 -102 -127 41 -207 85
-340 191 -81 64 -106 92 -94 103 32 29 300 203 350 226 144 69 282 83 400 41z" id="node1" class="node"></path>
<path d="M1147 1752 c-47 -52 21 -120 77 -79 21 16 24 60 6 82 -17 21 -63 19
-83 -3z" id="node2" class="node"></path>
<path d="M1770 1755 c-18 -22 -15 -66 6 -82 56 -41 127 32 78 81 -20 20 -68
21 -84 1z" id="node3" class="node"></path>
<path d="M149 1627 c-59 -31 -104 -93 -129 -176 -25 -85 -25 -117 1 -203 16
-56 29 -78 72 -121 75 -74 130 -92 273 -90 l110 1 35 -76 c66 -147 189 -298
328 -404 78 -59 240 -140 330 -165 59 -16 66 -21 96 -68 27 -43 101 -169 170
-290 18 -32 24 -35 65 -35 l45 0 55 95 c30 52 80 136 110 186 l55 92 97 32
c174 58 327 156 467 298 80 81 172 205 210 283 l24 49 101 1 c89 1 108 4 159
29 80 39 132 100 158 189 25 82 22 141 -11 228 -24 64 -84 132 -135 154 -49
20 -151 18 -200 -5 -127 -58 -174 -231 -62 -231 29 0 37 10 52 60 12 39 71 80
116 80 91 0 162 -138 129 -254 -30 -108 -120 -147 -290 -128 -106 13 -171 34
-340 115 -134 63 -180 79 -310 107 -109 23 -262 27 -278 8 -23 -30 -23 -57 0
-81 21 -21 36 -24 138 -30 144 -7 224 -31 433 -126 87 -39 172 -74 188 -78 36
-7 36 -14 3 -72 -61 -106 -200 -257 -321 -347 -58 -43 -221 -129 -230 -120 -3
2 16 42 41 89 51 94 54 107 28 130 -17 15 -61 17 -434 17 -389 0 -416 -1 -431
-18 -25 -27 -21 -44 28 -128 63 -106 60 -112 -28 -68 -191 97 -355 258 -446
441 -30 61 -27 77 17 93 20 7 82 34 137 60 215 100 280 119 435 127 102 6 117
9 138 30 17 17 21 29 16 46 -13 43 -23 47 -113 47 -153 0 -333 -49 -516 -138
-140 -69 -208 -91 -315 -104 -128 -15 -192 -2 -243 48 -92 92 -65 280 46 323
33 12 42 12 83 -4 40 -15 49 -24 70 -71 21 -47 27 -54 52 -54 86 0 81 117 -9
193 -73 63 -188 77 -270 34z m1625 -976 c7 -10 -262 -481 -274 -481 -12 0
-281 471 -274 481 3 5 126 9 274 9 148 0 271 -4 274 -9z" id="node4" class="node"></path>
<path d="M1342 1134 c-30 -20 -30 -68 0 -88 18 -13 52 -16 158 -16 152 0 180
9 180 59 0 53 -22 61 -176 61 -110 0 -144 -3 -162 -16z" id="node5" class="node"></path>
</g>
<g transform="translate(0.000000,300.000000) scale(0.100000,-0.100000)" fill="#A1A1A1" stroke="none">





</g>
</svg>