<!--?xml version="1.0" standalone="no"?-->

<svg xmlns="http://www.w3.org/2000/svg" width="300.000000pt" height="273.000000pt" viewBox="0 0 300.000000 273.000000" preserveAspectRatio="xMidYMid meet">
<g transform="translate(0.000000,273.000000) scale(0.100000,-0.100000)" fill="#404040" stroke="none">
<path style="position: relative;" class="node" id="node1" d="M1230 2693 c0 -2 5 -14 11 -25 13 -25 39 -128 32 -128 -3 0 -18 8
-34 17 -27 16 -30 16 -46 0 -16 -16 -15 -18 8 -44 l24 -28 -26 23 c-27 23 -54
29 -64 12 -4 -7 -13 -6 -27 1 -26 14 -314 35 -350 26 -28 -7 -58 -32 -58 -48
0 -5 10 -9 23 -10 12 0 36 -6 54 -12 l32 -12 -37 -30 c-20 -17 -57 -43 -82
-57 -89 -52 -175 -187 -114 -181 l21 2 -18 -56 c-11 -31 -19 -64 -19 -73 0
-10 -11 -46 -24 -81 -25 -68 -46 -239 -29 -239 5 0 22 14 36 30 33 36 52 40
40 8 -4 -13 -7 -48 -6 -79 2 -31 -4 -76 -12 -99 -15 -43 -21 -210 -8 -210 4 0
17 10 30 22 l23 21 -6 -124 c-6 -120 2 -179 25 -179 5 0 19 17 32 38 l23 37 7
-60 c4 -33 13 -73 19 -90 l12 -30 18 23 c23 27 27 21 45 -64 15 -74 45 -121
45 -71 0 37 10 34 40 -11 51 -78 53 -82 38 -146 -7 -32 -18 -61 -25 -63 -7 -3
-35 0 -63 7 -40 10 -57 10 -83 0 -44 -18 -135 -108 -142 -142 -4 -15 -11 -28
-16 -28 -16 0 -9 -37 15 -81 18 -32 26 -62 28 -114 3 -67 4 -70 38 -93 19 -13
38 -32 42 -43 4 -11 21 -22 38 -25 17 -4 33 -11 36 -15 3 -5 24 -9 46 -9 27 0
45 -6 53 -17 13 -18 54 -25 242 -39 83 -6 83 -6 168 36 47 23 93 53 102 66 14
23 14 30 -1 91 l-16 67 27 28 c15 15 29 28 32 28 3 0 14 -14 23 -30 17 -30 72
-70 96 -70 10 0 13 11 10 37 -4 46 12 51 37 10 11 -18 30 -36 42 -42 12 -5 26
-18 32 -30 8 -17 10 -14 10 19 l1 39 25 -23 c19 -18 25 -34 25 -65 0 -38 5
-47 58 -97 78 -75 112 -82 382 -76 184 3 210 6 241 24 42 24 52 68 19 79 -25
8 -41 44 -29 66 5 9 24 26 44 38 22 13 35 28 35 41 0 12 9 24 24 30 21 8 24
15 25 62 0 68 -37 144 -101 204 -51 48 -63 50 -123 29 -22 -8 -52 -15 -67 -15
l-28 0 0 90 c0 80 8 107 24 81 3 -4 34 -16 68 -25 35 -10 77 -23 93 -31 79
-35 162 -27 251 22 59 33 121 104 130 147 3 20 10 39 15 41 4 3 11 27 15 53 9
61 18 79 53 96 46 24 54 59 41 172 -7 55 -14 103 -17 107 -3 5 -13 1 -23 -8
-24 -21 -37 -13 -45 28 -7 30 -31 67 -44 67 -6 0 -25 -40 -36 -77 -7 -26 -43
-38 -82 -28 -16 4 -30 6 -32 6 -7 -1 -7 -51 0 -51 17 0 17 -33 -1 -63 -25 -40
-25 -47 0 -47 23 0 100 -77 100 -100 0 -8 -9 -47 -19 -85 -14 -50 -28 -78 -50
-97 -32 -28 -115 -58 -163 -58 -42 0 -138 36 -166 62 -40 38 -42 49 -20 123
12 41 24 116 27 180 6 96 8 105 15 67 21 -106 47 -27 53 162 4 138 -4 207 -32
271 -7 17 -16 41 -19 55 -7 24 -5 23 24 -8 17 -18 35 -30 40 -27 29 18 -8 158
-65 250 -23 39 -66 117 -95 175 -29 58 -58 112 -65 120 -7 8 -25 39 -40 67
-17 33 -50 73 -88 105 -34 29 -70 60 -80 70 -9 9 -36 23 -58 29 -23 7 -44 20
-47 28 -8 24 -23 31 -66 31 -31 0 -37 3 -28 12 18 18 15 25 -13 32 -23 6 -51
-3 -135 -43 -19 -9 -61 -39 -95 -67 -74 -61 -126 -94 -152 -94 -15 0 -23 13
-36 53 -22 68 -70 143 -96 150 -12 3 -21 3 -21 0z m495 -43 c-16 -16 -26 -32
-24 -35 3 -2 31 1 63 7 53 12 59 11 72 -7 8 -10 37 -29 66 -41 47 -20 81 -45
175 -129 34 -31 40 -41 152 -257 35 -68 76 -141 91 -163 37 -54 55 -100 64
-160 l8 -50 -35 34 c-58 55 -69 29 -27 -64 37 -83 49 -165 43 -293 -6 -116
-14 -148 -26 -101 -3 12 -12 19 -19 17 -9 -3 -14 -40 -18 -134 -3 -71 -11
-138 -17 -149 -7 -11 -15 -38 -18 -60 l-7 -40 -16 34 c-32 66 -77 68 -87 4
-11 -61 -37 -126 -62 -154 -12 -14 -23 -34 -23 -45 0 -43 -32 -115 -56 -124
-14 -6 -34 -32 -53 -70 l-30 -62 -16 31 c-29 57 -50 36 -76 -74 -14 -58 -31
-96 -52 -114 -13 -10 -16 -7 -22 19 -8 37 -22 39 -37 5 -13 -29 -25 -32 -31
-8 -5 21 -47 -67 -47 -99 0 -53 -65 16 -79 83 -8 39 -24 40 -35 3 -4 -16 -12
-36 -17 -45 -4 -9 -5 -27 -2 -39 5 -20 4 -21 -16 -11 -12 7 -32 29 -46 51 -13
21 -29 41 -35 45 -5 3 -10 19 -10 34 0 31 -16 51 -41 51 -21 0 -39 48 -39 101
0 43 -12 49 -47 24 -18 -13 -22 -13 -33 0 -10 12 -16 13 -27 4 -10 -9 -18 -8
-33 6 -19 17 -20 17 -20 -1 -1 -14 -17 -2 -62 46 -34 36 -59 57 -55 48 3 -10
2 -20 -3 -23 -6 -4 -10 -2 -10 4 0 15 -68 81 -95 91 -14 5 -31 25 -39 45 -8
19 -19 35 -24 35 -5 0 -17 18 -27 40 -18 40 -35 52 -35 25 0 -37 -18 -9 -30
45 -14 66 -32 89 -53 71 -19 -15 -27 -4 -27 40 0 48 -16 89 -34 89 -8 0 -24
-12 -35 -26 l-20 -25 -7 36 c-3 20 -4 59 0 88 13 111 18 187 12 187 -4 0 -18
-8 -33 -17 l-26 -17 8 84 c4 47 9 118 10 157 2 40 9 82 15 93 21 40 -19 54
-65 24 -14 -9 -25 -12 -25 -6 0 28 30 162 43 192 8 19 21 62 28 95 7 33 16 65
20 70 13 19 21 75 10 75 -5 0 -13 -4 -16 -10 -8 -12 -25 -13 -25 -1 0 21 91
119 122 131 46 19 139 101 136 120 -2 9 -18 17 -41 20 -21 3 -38 10 -37 15 0
30 311 2 380 -34 44 -23 69 -20 36 5 -11 8 -15 14 -9 14 6 0 16 -7 23 -15 14
-17 60 -21 60 -5 0 6 -8 23 -17 37 -19 29 -8 27 30 -5 9 -8 20 -12 24 -8 9 9
9 62 0 101 l-7 30 15 -25 c8 -14 22 -47 31 -75 20 -61 31 -75 55 -75 28 0 103
50 202 133 28 25 130 77 166 86 3 1 -8 -12 -24 -29z m1079 -1245 c18 -45 32
-55 53 -34 8 8 13 -4 18 -47 3 -33 10 -67 15 -76 6 -10 10 -26 10 -37 0 -19
-41 -67 -73 -86 -11 -6 -27 -47 -44 -113 -26 -102 -27 -103 -89 -162 -60 -56
-132 -90 -190 -90 -41 0 -146 34 -215 69 -69 34 -75 40 -84 78 -6 23 -13 45
-18 49 -10 10 -9 106 2 123 8 12 12 12 25 2 11 -9 16 -30 16 -67 0 -51 10 -68
26 -43 4 7 16 2 33 -13 40 -37 71 -54 134 -74 49 -15 66 -16 112 -7 30 7 75
24 101 39 57 33 84 88 92 181 l5 64 -52 50 c-51 50 -54 57 -29 91 10 14 9 20
-5 36 -23 25 -21 30 9 24 35 -6 93 27 101 58 12 53 23 50 47 -15z m-615 -648
c1 -127 2 -138 19 -133 32 10 147 36 159 36 23 0 114 -100 129 -142 17 -49 18
-72 3 -100 -10 -19 -13 -18 -39 27 -29 50 -45 65 -70 65 -10 0 -7 -5 7 -15 57
-40 80 -126 43 -160 -24 -22 -22 -23 -50 42 -32 75 -158 194 -220 208 l-44 10
-17 109 c-12 72 -14 116 -8 127 5 10 9 26 9 37 0 11 6 22 14 25 8 3 20 22 28
43 l13 37 12 -39 c6 -22 12 -101 12 -177z m-1225 47 c13 -5 16 -23 16 -95 l0
-89 -55 0 c-78 0 -150 -31 -213 -93 -28 -28 -55 -59 -58 -69 -8 -26 -23 -22
-34 7 -13 34 10 88 58 138 20 20 31 37 25 37 -6 0 -29 -20 -52 -45 -25 -27
-41 -38 -41 -29 0 9 24 41 54 72 l55 57 95 -3 c105 -3 98 -7 111 76 7 43 11
47 39 36z m114 -99 c10 4 31 -9 58 -36 26 -25 47 -38 54 -34 7 4 16 1 21 -6 8
-12 12 -11 23 3 10 13 15 15 25 5 9 -9 16 -9 31 1 27 17 27 17 33 -34 5 -47
36 -101 56 -96 6 1 11 -9 11 -22 0 -14 5 -28 10 -31 7 -4 -4 -23 -25 -46 -19
-21 -35 -40 -35 -42 0 -1 9 -31 20 -67 l19 -64 -22 -24 c-12 -13 -55 -40 -96
-59 -69 -33 -78 -35 -141 -29 -103 9 -128 17 -160 46 -28 26 -30 33 -30 102 0
73 1 75 38 109 20 20 50 43 65 53 16 10 27 20 24 22 -9 10 -74 -27 -106 -60
-32 -33 -35 -41 -39 -116 l-5 -80 -62 0 c-92 0 -108 16 -107 107 1 114 47 183
122 183 19 0 42 5 50 10 11 7 0 10 -37 10 -42 0 -58 -5 -84 -27 -44 -37 -69
-96 -69 -165 0 -32 -4 -58 -9 -58 -13 0 -60 50 -67 72 -13 43 6 88 69 155 125
133 252 151 365 50 13 -12 22 -15 22 -8 0 6 -7 14 -15 17 -8 4 -15 11 -15 18
0 6 -14 19 -30 28 -29 17 -30 19 -30 93 l0 77 26 -32 c17 -20 32 -29 42 -25z
m1021 -102 c1 -7 -22 -15 -58 -19 -35 -4 -62 -12 -65 -20 -3 -9 0 -11 12 -7
15 6 14 3 -2 -15 -31 -35 -10 -38 29 -3 39 34 53 36 141 20 53 -9 66 -17 123
-72 62 -61 111 -143 111 -189 0 -31 -24 -6 -38 40 -23 77 -132 167 -179 147
-14 -6 -10 -9 19 -16 68 -15 104 -48 140 -124 22 -48 32 -85 33 -119 0 -77
-39 -95 -182 -87 -9 1 -13 22 -13 69 0 37 -5 83 -10 102 -14 50 -70 107 -114
115 -38 8 -132 -10 -142 -27 -11 -18 4 -20 35 -4 16 9 51 16 77 16 41 0 51 -5
85 -39 22 -21 39 -48 39 -59 0 -12 5 -24 10 -27 6 -3 10 -35 10 -71 0 -91 -15
-104 -117 -104 -126 0 -187 19 -244 76 -41 40 -49 54 -49 85 0 24 7 42 21 55
11 10 25 27 31 37 8 17 7 17 -12 7 -12 -6 -24 -18 -27 -26 -3 -8 -11 -14 -17
-14 -20 0 -58 47 -54 67 2 10 6 16 10 13 3 -3 15 3 27 14 19 17 21 17 27 2 22
-56 91 34 124 162 14 55 30 54 30 -2 0 -25 5 -48 11 -51 11 -8 38 22 39 42 0
20 54 133 62 133 5 0 8 -5 8 -11 0 -20 27 10 36 39 6 22 9 14 20 -48 7 -41 13
-80 13 -87z"></path>
<path style="position: relative;" class="node" id="node2" d="M1317 1963 c-12 -11 -8 -29 13 -50 l19 -22 -30 -6 c-25 -6 -30 -11
-26 -27 5 -17 2 -19 -19 -14 -35 9 -83 -19 -100 -60 -17 -41 -32 -43 -72 -9
-32 27 -92 55 -117 55 -26 0 -91 -67 -105 -109 -17 -52 -2 -89 53 -136 46 -39
88 -45 137 -20 35 18 39 7 9 -21 -16 -14 -20 -27 -16 -51 4 -20 -3 -52 -19
-90 -34 -84 -31 -229 5 -166 9 16 11 15 20 -10 6 -16 11 -31 11 -35 0 -4 9
-18 20 -32 11 -14 20 -33 20 -42 0 -29 56 -84 100 -98 34 -11 42 -19 51 -53
19 -73 89 -113 89 -51 0 31 18 30 64 -1 64 -44 80 -43 146 9 32 25 61 46 64
46 3 0 6 -11 6 -24 0 -29 28 -42 48 -23 7 8 16 33 19 55 4 33 10 42 32 47 36
8 137 119 163 178 14 32 26 46 37 45 12 -2 17 7 19 44 3 38 -4 62 -37 128 -46
92 -46 91 -27 84 8 -3 17 0 21 6 5 7 -17 35 -55 70 l-62 57 44 17 c48 19 112
76 135 120 19 36 10 87 -22 122 -27 29 -91 64 -116 64 -33 0 -85 -29 -124 -69
-37 -38 -65 -52 -65 -32 0 17 -59 33 -97 26 -33 -5 -52 1 -130 40 -99 49 -97
48 -106 38z m73 -46 c113 -58 112 -58 100 -72 -6 -7 -13 -34 -15 -60 -3 -26
-7 -51 -11 -56 -10 -16 -24 -10 -24 12 0 11 -4 17 -10 14 -16 -10 -97 52 -102
79 -4 21 0 25 29 31 18 3 33 9 33 12 0 4 -12 20 -27 35 -32 34 -30 34 27 5z
m475 13 c3 -5 -2 -10 -13 -10 -42 0 -103 -104 -100 -172 1 -40 2 -40 5 -9 3
19 13 46 24 59 10 14 19 30 19 37 0 6 11 18 25 25 21 11 35 12 68 3 23 -6 44
-9 47 -6 3 3 -11 19 -30 35 -19 17 -25 25 -13 19 35 -18 63 -61 63 -97 0 -25
-10 -45 -37 -75 -44 -49 -77 -67 -129 -71 l-39 -3 -38 79 -39 78 39 40 c64 67
130 97 148 68z m-241 -81 c15 -12 44 -58 65 -103 33 -70 48 -89 110 -141 39
-33 71 -62 71 -65 0 -3 -5 -11 -11 -17 -7 -7 2 -33 30 -88 49 -93 63 -154 35
-152 -12 2 -21 -9 -30 -38 -6 -22 -19 -52 -27 -68 l-14 -28 -7 32 c-3 17 -6
44 -6 60 0 30 -49 139 -62 139 -12 0 -11 -3 17 -58 45 -91 28 -217 -35 -260
-30 -20 -41 -22 -109 -16 -42 3 -86 13 -98 20 -26 16 -63 83 -63 114 0 11 -4
20 -10 20 -5 0 -10 -8 -10 -17 0 -44 -25 -100 -57 -130 -31 -30 -41 -33 -93
-33 -32 0 -61 4 -65 9 -3 5 -19 12 -35 16 -16 4 -41 21 -56 38 -24 29 -26 37
-22 107 6 103 32 159 91 193 57 34 65 34 69 0 2 -19 10 -29 23 -31 52 -8 68
-15 107 -50 27 -24 43 -33 46 -24 2 7 16 27 30 43 21 25 31 30 56 26 57 -8 71
11 40 58 -9 14 -12 25 -7 25 17 0 89 -38 103 -54 14 -18 30 -21 30 -6 0 5 -19
23 -42 40 l-41 30 48 0 c31 0 55 -6 67 -17 10 -9 21 -13 25 -9 9 9 -36 45 -57
46 -13 0 -15 17 -15 98 0 116 -23 179 -77 212 -36 22 -88 26 -119 10 -16 -9
-19 -7 -19 13 0 26 16 49 45 65 30 17 49 14 79 -9z m-319 -49 c17 -19 17 -20
-1 -21 -31 -1 -78 -34 -93 -65 -8 -16 -18 -37 -23 -47 -19 -39 -21 -115 -3
-168 16 -51 16 -54 -1 -66 -10 -7 -21 -13 -25 -13 -4 0 -9 -7 -13 -15 -5 -13
-2 -14 17 -4 12 7 25 16 28 21 3 5 21 8 40 6 l34 -3 -39 -25 c-22 -14 -43 -28
-48 -31 -13 -8 -48 -108 -57 -159 l-8 -45 -15 50 c-10 33 -22 53 -37 60 -19 8
-22 16 -18 47 3 20 17 61 31 92 28 59 33 96 14 96 -6 0 -2 10 10 23 29 31 52
89 52 133 0 21 8 46 20 61 11 14 20 32 20 39 0 24 39 54 68 54 16 0 37 -9 47
-20z m-244 -25 c19 -13 44 -30 56 -36 18 -10 20 -15 11 -41 l-11 -30 -36 35
c-39 38 -99 64 -125 54 -9 -4 -25 -21 -36 -39 -21 -35 -28 -22 -9 15 37 71 90
86 150 42z m339 -51 c0 -6 10 -14 21 -17 15 -4 20 -11 15 -22 -10 -27 27 -13
41 15 7 14 13 19 13 11 0 -20 -20 -191 -26 -220 -5 -25 -16 -22 -20 7 -6 41
-32 130 -47 159 -9 18 -17 38 -17 46 0 8 -10 27 -22 43 l-22 28 32 -19 c18
-11 32 -25 32 -31z m239 20 c43 -36 39 -51 -6 -24 -21 13 -56 23 -80 24 -32 1
-39 4 -31 14 19 22 84 14 117 -14z m-312 0 c2 -7 -17 -20 -42 -30 -25 -9 -55
-28 -65 -42 -24 -29 -26 -22 -5 18 29 55 100 90 112 54z m302 -38 c14 -8 37
-26 51 -41 22 -23 25 -36 25 -99 0 -80 -12 -106 -51 -106 -12 0 -26 -4 -29
-10 -13 -21 -101 -5 -143 25 -3 2 28 225 34 244 5 16 71 9 113 -13z m-547 -23
c21 -20 38 -44 38 -53 0 -24 -57 -50 -109 -50 -39 0 -52 5 -73 28 -26 27 -49
80 -31 69 6 -4 21 5 33 18 37 40 94 35 142 -12z m287 -3 c12 -22 21 -46 21
-53 0 -7 7 -25 16 -42 8 -16 18 -48 21 -72 5 -39 4 -43 -16 -43 -18 0 -21 6
-21 44 0 34 -6 52 -25 73 l-25 28 -20 -24 c-24 -28 -25 -59 -5 -107 12 -29 19
-35 36 -31 17 5 18 3 8 -10 -10 -11 -25 -13 -68 -8 -69 8 -87 27 -96 99 -6 46
-4 58 18 94 34 52 74 81 128 91 4 0 16 -17 28 -39z m-23 -137 c-11 -11 -19 6
-11 24 8 17 8 17 12 0 3 -10 2 -21 -1 -24z m128 -109 c25 -10 8 -24 -30 -24
-32 0 -42 8 -27 23 8 9 36 9 57 1z m61 -383 c9 -11 33 -21 54 -23 28 -2 37 -8
39 -25 5 -31 -86 -78 -137 -70 -62 10 -83 16 -108 32 -28 19 -24 29 26 54 20
11 43 27 50 35 18 22 54 20 76 -3z m161 -45 c5 -13 -24 -83 -30 -74 -2 1 -6
22 -10 46 -6 38 -4 42 14 42 11 0 23 -6 26 -14z m-360 -10 c3 -7 4 -33 2 -56
l-3 -41 -22 21 c-31 28 -32 90 -3 90 11 0 23 -6 26 -14z"></path>
<path style="position: relative;" class="node" id="node3" d="M1560 1283 c0 -14 2 -15 9 -4 12 19 30 5 24 -20 -3 -12 -11 -18 -19
-15 -16 6 -19 -10 -4 -19 16 -10 40 21 40 49 0 21 -5 26 -25 26 -17 0 -25 -5
-25 -17z"></path>
<path style="position: relative;" class="node" id="node4" d="M1231 1266 c-15 -28 -8 -46 18 -46 15 0 24 11 49 63 2 4 -9 7 -25 7
-21 0 -33 -7 -42 -24z m33 -11 c-6 -16 -24 -21 -24 -7 0 11 11 22 21 22 5 0 6
-7 3 -15z"></path>
<path style="position: relative;" class="node" id="node5" d="M1689 1269 c-21 -18 -21 -20 -4 -14 35 12 39 10 43 -12 2 -13 -5 -27
-17 -35 -12 -8 -18 -17 -15 -21 9 -9 54 35 54 53 0 9 -8 24 -19 34 -17 16 -20
15 -42 -5z"></path>
<path style="position: relative;" class="node" id="node6" d="M1616 1211 c-4 -5 0 -12 6 -15 10 -5 10 -7 1 -12 -18 -8 -16 -24 1
-24 16 0 31 34 21 50 -8 12 -22 13 -29 1z"></path>
<path style="position: relative;" class="node" id="node7" d="M1341 1191 c-7 -5 -12 -14 -10 -20 2 -6 10 -2 17 9 14 22 13 23 -7
11z"></path>
<path style="position: relative;" class="node" id="node8" d="M1371 1173 c-1 -7 -10 -22 -21 -33 -11 -11 -16 -20 -12 -20 16 0 44
39 39 52 -4 10 -6 10 -6 1z"></path>
<path style="position: relative;" class="node" id="node9" d="M1230 1160 c-13 -8 -12 -10 3 -10 9 0 17 -7 17 -15 0 -7 -8 -19 -17
-24 -17 -10 -17 -10 -1 -11 18 0 38 28 38 54 0 18 -18 20 -40 6z"></path>
<path style="position: relative;" class="node" id="node10" d="M1535 1593 c-12 -28 -8 -102 5 -118 14 -17 38 -19 59 -6 17 11 19 88
2 119 -14 27 -56 29 -66 5z m35 -18 c0 -8 -4 -15 -10 -15 -5 0 -10 7 -10 15 0
8 5 15 10 15 6 0 10 -7 10 -15z"></path>
<path style="position: relative;" class="node" id="node11" d="M1387 873 c-4 -3 -7 -11 -7 -16 0 -6 3 -8 6 -4 4 3 14 -3 23 -14 17
-21 17 -21 29 5 7 16 8 26 2 26 -6 0 -10 -5 -10 -12 0 -6 -7 -4 -18 5 -10 10
-22 14 -25 10z"></path>
<path style="position: relative;" class="node" id="node12" d="M1560 870 c0 -5 -7 -7 -15 -4 -17 7 -21 -11 -4 -21 6 -4 19 2 30 14
16 17 17 21 4 21 -8 0 -15 -4 -15 -10z"></path>
</g>
<g transform="translate(0.000000,273.000000) scale(0.100000,-0.100000)" fill="#FFFFFF" stroke="none">

<path style="position: relative;" class="node" id="node14" d="M1683 2651 c-35 -14 -80 -40 -100 -58 -99 -83 -174 -133 -202 -133
-24 0 -35 14 -55 75 -9 28 -23 61 -31 75 l-15 25 7 -30 c9 -39 9 -92 0 -101
-4 -4 -15 0 -24 8 -38 32 -49 34 -30 5 9 -14 17 -31 17 -37 0 -16 -46 -12 -60
5 -7 8 -17 15 -23 15 -6 0 -2 -6 9 -14 33 -25 8 -28 -36 -5 -69 36 -380 64
-380 34 -1 -5 16 -12 37 -15 23 -3 39 -11 41 -20 3 -19 -90 -101 -136 -120
-31 -12 -122 -110 -122 -131 0 -12 17 -11 25 1 3 6 11 10 16 10 11 0 3 -56
-10 -75 -4 -5 -13 -37 -20 -70 -7 -33 -20 -76 -28 -95 -13 -30 -43 -164 -43
-192 0 -6 11 -3 25 6 46 30 86 16 65 -24 -6 -11 -13 -53 -15 -93 -1 -39 -6
-110 -10 -157 l-8 -84 26 17 c15 9 29 17 33 17 6 0 1 -76 -12 -187 -4 -29 -3
-68 0 -88 l7 -36 20 25 c11 14 27 26 35 26 18 0 34 -41 34 -89 0 -44 8 -55 27
-40 21 18 39 -5 53 -71 12 -54 30 -82 30 -45 0 27 17 15 35 -25 10 -22 22 -40
27 -40 5 0 16 -16 24 -35 8 -20 25 -40 39 -45 27 -10 95 -76 95 -91 0 -6 4 -8
10 -4 5 3 6 13 3 23 -4 9 21 -12 55 -48 45 -48 61 -60 62 -46 0 18 1 18 20 1
15 -14 23 -15 33 -6 11 9 17 8 27 -4 11 -13 15 -13 33 0 35 25 47 19 47 -24 0
-53 18 -101 39 -101 25 0 41 -20 41 -51 0 -15 5 -31 10 -34 6 -4 22 -24 35
-45 14 -22 34 -44 46 -51 20 -10 21 -9 16 11 -3 12 -2 30 2 39 5 9 13 29 17
45 11 37 27 36 35 -3 14 -67 79 -136 79 -83 0 32 42 120 47 99 6 -24 18 -21
31 8 15 34 29 32 37 -5 6 -26 9 -29 22 -19 21 18 38 56 52 114 26 110 47 131
76 74 l16 -31 30 62 c19 38 39 64 53 70 24 9 56 81 56 124 0 11 11 31 23 45
25 28 51 93 62 154 10 64 55 62 87 -4 l16 -34 7 40 c3 22 11 49 18 60 6 11 14
78 17 149 4 94 9 131 18 134 7 2 16 -5 19 -17 12 -47 20 -15 26 101 6 128 -6
210 -43 293 -42 93 -31 119 27 64 l35 -34 -8 50 c-9 60 -27 106 -64 160 -15
22 -56 95 -91 163 -112 216 -118 226 -152 257 -94 84 -128 109 -175 129 -29
12 -58 31 -66 41 -13 18 -19 19 -72 7 -32 -6 -60 -9 -63 -7 -2 3 8 19 24 35
16 17 27 30 24 29 -2 -1 -32 -13 -66 -28z m-260 -726 c78 -39 97 -45 130 -40
38 7 97 -9 97 -26 0 -20 28 -6 65 32 39 40 91 69 124 69 25 0 89 -35 116 -64
32 -35 41 -86 22 -122 -23 -44 -87 -101 -135 -120 l-44 -17 62 -57 c38 -35 60
-63 55 -70 -4 -6 -13 -9 -21 -6 -19 7 -19 8 27 -84 33 -66 40 -90 37 -128 -2
-37 -7 -46 -19 -44 -11 1 -23 -13 -37 -45 -26 -59 -127 -170 -163 -178 -22 -5
-28 -14 -32 -47 -3 -22 -12 -47 -19 -55 -20 -19 -48 -6 -48 23 0 13 -3 24 -6
24 -3 0 -32 -21 -64 -46 -66 -52 -82 -53 -146 -9 -46 31 -64 32 -64 1 0 -62
-70 -22 -89 51 -9 34 -17 42 -51 53 -44 14 -100 69 -100 98 0 9 -9 28 -20 42
-11 14 -20 28 -20 32 0 4 -5 19 -11 35 -9 25 -11 26 -20 10 -36 -63 -39 82 -5
166 16 38 23 70 19 90 -4 24 0 37 16 51 30 28 26 39 -9 21 -49 -25 -91 -19
-137 20 -55 47 -70 84 -53 136 14 42 79 109 105 109 25 0 85 -28 117 -55 40
-34 55 -32 72 9 17 41 65 69 100 60 21 -5 24 -3 19 14 -4 16 1 21 26 27 l30 6
-19 22 c-21 21 -25 39 -13 50 9 10 7 11 106 -38z m7 -1067 c0 7 4 12 10 12 6
0 5 -10 -2 -26 -12 -26 -12 -26 -29 -5 -9 11 -19 17 -23 14 -3 -4 -6 -2 -6 4
0 20 14 23 32 6 11 -9 18 -11 18 -5z m141 1 c-11 -12 -24 -18 -30 -14 -17 10
-13 28 4 21 8 -3 15 -1 15 4 0 6 7 10 15 10 13 0 12 -4 -4 -21z"></path>
<path style="position: relative;" class="node" id="node15" d="M1363 1912 c15 -15 27 -31 27 -35 0 -3 -15 -9 -33 -12 -29 -6 -33
-10 -29 -31 5 -27 86 -89 102 -79 6 3 10 -3 10 -14 0 -22 14 -28 24 -12 4 5 8
30 11 56 2 26 9 53 15 60 12 14 13 14 -100 72 -57 29 -59 29 -27 -5z"></path>
<path style="position: relative;" class="node" id="node16" d="M1785 1921 c-16 -10 -47 -37 -68 -59 l-39 -40 39 -78 38 -79 39 3
c52 4 85 22 129 71 27 30 37 50 37 75 0 36 -28 79 -63 97 -12 6 -6 -2 13 -19
19 -16 33 -32 30 -35 -3 -3 -24 0 -47 6 -33 9 -47 8 -68 -3 -14 -7 -25 -19
-25 -25 0 -7 -9 -23 -19 -37 -11 -13 -21 -40 -24 -59 -3 -31 -4 -31 -5 9 -3
68 58 172 100 172 11 0 16 5 13 10 -10 16 -47 12 -80 -9z"></path>
<path style="position: relative;" class="node" id="node17" d="M1545 1858 c-29 -16 -45 -39 -45 -65 0 -20 3 -22 19 -13 31 16 83 12
119 -10 54 -33 77 -96 77 -212 0 -81 2 -98 15 -98 21 -1 66 -37 57 -46 -4 -4
-15 0 -25 9 -12 11 -36 17 -67 17 l-48 0 41 -30 c23 -17 42 -35 42 -40 0 -15
-16 -12 -30 6 -14 16 -86 54 -103 54 -5 0 -2 -11 7 -25 31 -47 17 -66 -40 -58
-25 4 -35 -1 -56 -26 -14 -16 -28 -36 -30 -43 -3 -9 -19 0 -46 24 -39 35 -55
42 -107 50 -13 2 -21 12 -23 31 -4 34 -12 34 -69 0 -59 -34 -85 -90 -91 -193
-4 -70 -2 -78 22 -107 15 -17 40 -34 56 -38 16 -4 32 -11 35 -16 4 -5 33 -9
65 -9 52 0 62 3 93 33 32 30 57 86 57 130 0 9 5 17 10 17 6 0 10 -9 10 -20 0
-31 37 -98 63 -114 12 -7 56 -17 98 -20 68 -6 79 -4 109 16 63 43 80 169 35
260 -28 55 -29 58 -17 58 13 0 62 -109 62 -139 0 -16 3 -43 6 -60 l7 -32 14
28 c8 16 21 46 27 68 9 29 18 40 30 38 28 -2 14 59 -35 152 -28 55 -37 81 -30
88 6 6 11 14 11 17 0 3 -32 32 -71 65 -62 52 -77 71 -110 141 -50 109 -92 141
-144 112z m65 -584 c0 -28 -24 -59 -40 -49 -15 9 -12 25 4 19 8 -3 16 3 19 15
6 25 -12 39 -24 20 -7 -11 -9 -10 -9 4 0 12 8 17 25 17 20 0 25 -5 25 -26z
m-312 9 c-25 -52 -34 -63 -49 -63 -26 0 -33 18 -18 46 9 17 21 24 42 24 16 0
27 -3 25 -7z m452 -43 c0 -18 -45 -62 -54 -53 -3 4 3 13 15 21 12 8 19 22 17
35 -4 22 -8 24 -43 12 -17 -6 -17 -4 4 14 22 20 25 21 42 5 11 -10 19 -25 19
-34z m-105 -30 c10 -16 -5 -50 -21 -50 -17 0 -19 16 -1 24 9 5 9 7 -1 12 -6 3
-10 10 -6 15 7 12 21 11 29 -1z m-297 -30 c-7 -11 -15 -15 -17 -9 -2 6 3 15
10 20 20 12 21 11 7 -11z m16 -41 c-9 -10 -21 -19 -26 -19 -4 0 1 9 12 20 11
11 20 26 21 33 0 9 2 9 6 -1 3 -7 -3 -22 -13 -33z m-94 15 c0 -26 -20 -54 -38
-54 -16 1 -16 1 1 11 9 5 17 17 17 24 0 8 -8 15 -17 15 -15 0 -16 2 -3 10 22
14 40 12 40 -6z"></path>
<path style="position: relative;" class="node" id="node18" d="M1247 1263 c-10 -9 -9 -23 2 -23 5 0 11 7 15 15 5 15 -5 20 -17 8z"></path>
<path style="position: relative;" class="node" id="node19" d="M1210 1800 c-11 -11 -20 -26 -20 -34 0 -7 -9 -25 -20 -39 -12 -15
-20 -40 -20 -61 0 -44 -23 -102 -52 -133 -12 -13 -16 -23 -10 -23 19 0 14 -37
-14 -96 -14 -31 -28 -72 -31 -92 -4 -31 -1 -39 18 -47 15 -7 27 -27 37 -60
l15 -50 8 45 c9 51 44 151 57 159 5 3 26 17 48 31 l39 25 -34 3 c-19 2 -37 -1
-40 -6 -3 -5 -16 -14 -28 -21 -19 -10 -22 -9 -17 4 4 8 9 15 13 15 4 0 15 6
25 13 17 12 17 15 1 66 -18 53 -16 129 3 168 5 10 15 31 23 47 15 31 62 64 93
65 18 1 18 2 1 21 -10 11 -31 20 -47 20 -15 0 -37 -9 -48 -20z"></path>
<path style="position: relative;" class="node" id="node20" d="M943 1778 c-24 -27 -43 -62 -43 -80 0 -7 9 2 20 20 11 18 27 35 36
39 26 10 86 -16 125 -54 l36 -35 11 30 c9 26 7 31 -11 41 -12 6 -37 23 -56 36
-43 32 -91 33 -118 3z"></path>
<path style="position: relative;" class="node" id="node21" d="M1358 1746 c12 -16 22 -35 22 -43 0 -8 8 -28 17 -46 15 -29 41 -118
47 -159 4 -29 15 -32 20 -7 6 29 26 200 26 220 0 8 -6 3 -13 -11 -14 -28 -51
-42 -41 -15 5 11 0 18 -15 22 -11 3 -21 11 -21 17 0 6 -14 20 -32 31 l-32 19
22 -28z"></path>
<path style="position: relative;" class="node" id="node22" d="M1522 1758 c-8 -10 -1 -13 31 -14 24 -1 59 -11 80 -24 45 -27 49 -12
6 24 -33 28 -98 36 -117 14z"></path>
<path style="position: relative;" class="node" id="node23" d="M1257 1740 c-25 -20 -57 -68 -57 -86 0 -4 9 4 20 18 10 14 40 33 65
42 25 10 44 23 42 30 -6 20 -42 18 -70 -4z"></path>
<path style="position: relative;" class="node" id="node24" d="M1516 1719 c-6 -19 -37 -242 -34 -244 42 -30 130 -46 143 -25 3 6 17
10 29 10 39 0 51 26 51 106 0 63 -3 76 -25 99 -32 35 -68 53 -119 61 -30 5
-42 3 -45 -7z m85 -131 c17 -31 15 -108 -2 -119 -21 -13 -45 -11 -59 6 -13 16
-17 90 -5 118 10 24 52 22 66 -5z"></path>
<path style="position: relative;" class="node" id="node25" d="M1550 1575 c0 -8 5 -15 10 -15 6 0 10 7 10 15 0 8 -4 15 -10 15 -5 0
-10 -7 -10 -15z"></path>
<path style="position: relative;" class="node" id="node26" d="M940 1695 c-12 -13 -27 -22 -33 -18 -18 11 5 -42 31 -69 21 -23 34
-28 73 -28 52 0 109 26 109 50 0 9 -17 33 -38 53 -48 47 -105 52 -142 12z"></path>
<path style="position: relative;" class="node" id="node27" d="M1315 1713 c-34 -9 -75 -43 -102 -85 -22 -36 -24 -48 -18 -94 9 -72
27 -91 96 -99 43 -5 58 -3 68 8 10 13 9 15 -8 10 -17 -4 -24 2 -36 31 -20 48
-19 79 5 107 l20 24 25 -28 c19 -21 25 -39 25 -73 0 -38 3 -44 21 -44 20 0 21
4 16 43 -3 24 -13 56 -21 72 -9 17 -16 35 -16 42 0 17 -40 93 -49 92 -3 -1
-15 -4 -26 -6z"></path>
<path style="position: relative;" class="node" id="node28" d="M1335 1567 c-4 -10 -5 -21 -1 -24 10 -10 18 4 13 24 -4 17 -4 17 -12
0z"></path>
<path style="position: relative;" class="node" id="node29" d="M1417 1433 c-15 -15 -5 -23 27 -23 19 0 37 4 40 9 10 16 -52 29 -67
14z"></path>
<path style="position: relative;" class="node" id="node30" d="M1459 1054 c-7 -8 -30 -24 -50 -35 -50 -25 -54 -35 -26 -54 25 -16
46 -22 108 -32 51 -8 142 39 137 70 -2 17 -11 23 -39 25 -21 2 -45 12 -54 23
-22 23 -58 25 -76 3z"></path>
<path style="position: relative;" class="node" id="node31" d="M1656 978 c4 -24 8 -45 10 -46 1 -2 10 10 19 28 19 37 14 60 -15 60
-18 0 -20 -4 -14 -42z"></path>
<path style="position: relative;" class="node" id="node32" d="M1290 975 c0 -23 8 -41 23 -55 l22 -21 3 41 c4 54 -2 70 -28 70 -16
0 -20 -6 -20 -35z"></path>
<path style="position: relative;" class="node" id="node33" d="M2767 1453 c-2 -5 -7 -19 -10 -33 -8 -31 -66 -64 -101 -58 -30 6 -32
1 -9 -24 14 -16 15 -22 5 -36 -25 -34 -22 -41 29 -91 l52 -50 -5 -64 c-8 -93
-35 -148 -92 -181 -26 -15 -71 -32 -101 -39 -46 -9 -63 -8 -112 7 -63 20 -94
37 -134 74 -17 15 -29 20 -33 13 -16 -25 -26 -8 -26 43 0 37 -5 58 -16 67 -13
10 -17 10 -25 -2 -11 -17 -12 -113 -2 -123 5 -4 12 -26 18 -49 9 -38 15 -44
84 -78 69 -35 174 -69 215 -69 58 0 130 34 190 90 62 59 63 60 89 162 17 66
33 107 44 113 32 19 73 67 73 86 0 11 -4 27 -10 37 -5 9 -12 43 -15 76 -5 43
-10 55 -18 47 -21 -21 -35 -11 -53 34 -17 46 -29 61 -37 48z"></path>
<path style="position: relative;" class="node" id="node34" d="M2152 936 c-8 -21 -20 -40 -28 -43 -8 -3 -14 -14 -14 -25 0 -11 -4
-27 -9 -37 -6 -11 -4 -55 8 -127 l17 -109 44 -10 c62 -14 188 -133 220 -208
28 -65 26 -64 50 -42 37 34 14 120 -43 160 -14 10 -17 15 -7 15 25 0 41 -15
70 -65 26 -45 29 -46 39 -27 15 28 14 51 -3 100 -15 42 -106 142 -129 142 -12
0 -127 -26 -159 -36 -17 -5 -18 6 -19 133 0 76 -6 155 -12 177 l-12 39 -13
-37z"></path>
<path style="position: relative;" class="node" id="node35" d="M925 768 c-13 -83 -6 -79 -111 -76 l-95 3 -55 -57 c-30 -31 -54 -63
-54 -72 0 -9 16 2 41 29 23 25 46 45 52 45 6 0 -5 -17 -25 -37 -48 -50 -71
-104 -58 -138 11 -29 26 -33 34 -7 3 10 30 41 58 69 63 62 135 93 213 93 l55
0 0 89 c0 72 -3 90 -16 95 -28 11 -32 7 -39 -36z"></path>
<path style="position: relative;" class="node" id="node36" d="M1010 685 c0 -74 1 -76 30 -93 16 -9 30 -22 30 -28 0 -7 7 -14 15
-18 8 -3 15 -11 15 -17 0 -7 -9 -4 -22 8 -50 44 -94 63 -149 63 -78 0 -141
-33 -216 -113 -63 -67 -82 -112 -69 -155 7 -22 54 -72 67 -72 5 0 9 26 9 58 0
69 25 128 69 165 26 22 42 27 84 27 37 0 48 -3 37 -10 -8 -5 -31 -10 -50 -10
-75 0 -121 -69 -122 -183 -1 -91 15 -107 107 -107 l62 0 5 80 c4 75 7 83 39
116 32 33 97 70 106 60 3 -2 -8 -12 -24 -22 -15 -10 -45 -33 -65 -53 -37 -34
-38 -36 -38 -109 0 -69 2 -76 30 -102 32 -29 57 -37 160 -46 63 -6 72 -4 141
29 41 19 84 46 96 59 l22 24 -19 64 c-11 36 -20 66 -20 67 0 2 16 21 35 42 21
23 32 42 25 46 -5 3 -10 17 -10 31 0 13 -5 23 -11 22 -20 -5 -51 49 -56 96 -6
51 -6 51 -33 34 -15 -10 -22 -10 -31 -1 -10 10 -15 8 -25 -5 -11 -14 -15 -15
-23 -3 -5 7 -14 10 -21 6 -7 -4 -28 9 -54 34 -27 27 -48 40 -58 36 -10 -4 -25
5 -42 25 l-26 32 0 -77z"></path>
<path style="position: relative;" class="node" id="node37" d="M2066 738 c-9 -29 -36 -59 -36 -39 0 6 -3 11 -8 11 -8 0 -62 -113
-62 -133 -1 -20 -28 -50 -39 -42 -6 3 -11 26 -11 51 0 56 -16 57 -30 2 -19
-74 -41 -122 -68 -150 -29 -32 -47 -35 -56 -12 -6 15 -8 15 -27 -2 -12 -11
-24 -17 -27 -14 -4 3 -8 -3 -10 -13 -4 -20 34 -67 54 -67 6 0 14 6 17 14 3 8
15 20 27 26 19 10 20 10 12 -7 -6 -10 -20 -27 -31 -37 -14 -13 -21 -31 -21
-55 0 -31 8 -45 49 -85 57 -57 118 -76 244 -76 102 0 117 13 117 104 0 36 -4
68 -10 71 -5 3 -10 15 -10 27 0 11 -17 38 -39 59 -34 34 -44 39 -85 39 -26 0
-61 -7 -77 -16 -31 -16 -46 -14 -35 4 10 17 104 35 142 27 44 -8 100 -65 114
-115 5 -19 10 -65 10 -102 0 -47 4 -68 13 -69 143 -8 182 10 182 87 -1 34 -11
71 -33 119 -36 76 -72 109 -140 124 -29 7 -33 10 -19 16 47 20 156 -70 179
-147 14 -46 38 -71 38 -40 0 46 -49 128 -111 189 -57 55 -70 63 -123 72 -88
16 -102 14 -141 -20 -39 -35 -60 -32 -29 3 16 18 17 21 2 15 -12 -4 -15 -2
-12 7 3 8 30 16 65 20 36 4 59 12 58 19 0 7 -6 46 -13 87 -11 62 -14 70 -20
48z"></path>
</g>
</svg>