<!--?xml version="1.0" standalone="no"?-->

<svg version="1.0" xmlns="http://www.w3.org/2000/svg" width="300.000000pt" height="300.000000pt" viewBox="0 0 300.000000 300.000000" preserveAspectRatio="xMidYMid meet">
<g transform="translate(0.000000,300.000000) scale(0.100000,-0.100000)" fill="#333333" stroke="none">
<path d="M1313 2992 c-12 -8 -53 -65 -73 -101 -8 -15 -7 -29 4 -55 20 -48 32
-51 77 -22 21 15 59 29 84 33 36 5 46 10 51 29 8 32 -13 91 -39 109 -23 16
-84 20 -104 7z m90 -26 c8 -8 20 -29 27 -46 15 -35 5 -50 -35 -50 -11 0 -42
-12 -69 -26 -39 -21 -50 -23 -57 -12 -16 24 -9 57 16 84 14 15 25 33 25 40 0
24 71 31 93 10z" id="node1" class="node"></path>
<path d="M1574 2963 c-36 -7 -55 -37 -57 -89 l-2 -48 44 -8 c24 -4 62 -19 83
-33 l38 -25 20 20 c26 26 27 83 1 109 -10 10 -22 28 -26 40 -8 25 -58 42 -101
34z m75 -45 c5 -13 18 -32 30 -42 23 -21 26 -38 11 -66 -10 -19 -12 -18 -57 5
-25 14 -57 25 -70 25 -31 0 -37 20 -19 64 14 33 18 36 56 36 33 0 42 -4 49
-22z" id="node2" class="node"></path>
<path d="M1393 2775 c-18 -7 -49 -25 -70 -39 -21 -14 -45 -26 -54 -26 -9 0
-38 -9 -63 -21 -37 -16 -63 -40 -124 -119 -42 -54 -82 -99 -88 -99 -5 -1 -23
-14 -38 -30 -30 -31 -38 -80 -16 -106 10 -13 5 -23 -32 -67 -64 -75 -124 -166
-152 -230 -23 -51 -28 -69 -40 -151 -3 -15 -13 -39 -24 -55 -11 -15 -26 -46
-33 -70 l-13 -43 -50 6 c-50 7 -96 28 -96 43 0 5 5 13 11 19 6 6 11 28 11 49
0 22 7 52 15 67 22 43 13 78 -25 100 -30 18 -34 18 -57 3 -14 -9 -25 -12 -25
-7 0 5 -12 23 -26 40 -35 43 -77 42 -103 0 -11 -18 -22 -26 -25 -20 -10 16
-58 13 -84 -5 -16 -11 -22 -25 -22 -54 0 -32 -4 -39 -22 -42 -12 -2 -29 -15
-38 -30 -13 -25 -13 -30 2 -55 9 -16 36 -39 60 -53 25 -14 62 -40 82 -57 20
-19 53 -36 74 -39 29 -5 45 -17 75 -55 41 -53 101 -96 147 -106 34 -6 35 -9
15 -83 -48 -174 -66 -290 -75 -485 -6 -110 -15 -267 -20 -350 -14 -214 -13
-262 6 -269 9 -3 72 -6 141 -6 l125 0 -7 -47 c-3 -27 -8 -77 -10 -113 -2 -36
-8 -78 -14 -94 -9 -23 -8 -33 4 -52 15 -23 21 -24 116 -24 70 0 109 5 130 15
27 14 31 14 45 0 10 -10 35 -15 73 -15 77 0 111 24 111 81 0 34 3 39 24 39 32
0 36 15 36 121 l0 89 235 0 235 0 0 -99 c0 -97 0 -99 25 -105 18 -5 25 -13 25
-32 0 -32 25 -80 45 -88 34 -13 128 -6 146 10 16 15 20 15 41 0 32 -23 220
-23 242 0 19 18 20 47 4 77 -6 12 -11 42 -10 67 1 25 -2 73 -6 107 l-8 63 126
0 c86 0 131 4 142 13 15 11 16 29 8 167 -5 85 -14 254 -20 375 -11 234 -24
332 -71 515 -40 154 -41 143 8 153 35 8 47 6 75 -10 18 -11 32 -24 31 -29 -1
-5 -4 -21 -8 -35 -5 -20 0 -34 21 -58 23 -28 25 -35 14 -55 -18 -35 11 -76 54
-76 44 0 75 35 85 96 5 27 9 44 10 37 0 -6 15 -25 32 -42 33 -34 71 -40 91
-15 7 9 22 26 34 37 63 66 48 113 -52 158 -35 16 -80 29 -100 29 -32 0 -44 7
-89 58 -83 91 -179 128 -261 99 l-42 -14 -11 37 c-6 20 -22 53 -34 72 -13 19
-27 58 -31 87 -11 83 -69 191 -172 322 -37 47 -50 70 -43 80 17 27 10 77 -17
108 -14 17 -31 31 -37 31 -7 0 -45 43 -86 96 -77 99 -109 124 -160 124 -17 0
-42 11 -59 25 -79 66 -195 92 -269 60z m185 -39 c26 -14 70 -45 97 -70 l50
-45 -44 15 c-58 20 -113 10 -156 -27 l-33 -29 -12 30 c-14 34 -61 77 -104 95
l-30 13 40 20 c55 30 132 29 192 -2z m-175 -71 c42 -29 77 -90 77 -135 0 -87
-87 -170 -175 -165 -137 6 -209 161 -125 267 48 61 157 77 223 33z m394 -42
c18 -21 55 -64 80 -96 75 -96 20 -66 -75 41 -69 76 -79 92 -61 92 12 0 36 -16
56 -37z m-105 -14 c28 -12 58 -70 58 -114 0 -15 -14 -41 -33 -61 -83 -91 -230
-30 -214 89 12 86 93 124 189 86z m150 -131 c262 -314 297 -361 340 -459 19
-44 23 -71 23 -149 0 -83 -4 -101 -27 -145 -54 -104 -167 -182 -328 -226 -80
-23 -101 -24 -375 -24 -274 0 -294 1 -370 23 -176 52 -248 103 -328 234 -23
38 -36 134 -27 196 19 114 71 194 345 529 l20 24 35 -53 c41 -62 97 -98 155
-98 l40 0 -30 -19 c-70 -44 -105 -99 -105 -166 0 -45 18 -81 62 -121 70 -66
167 -94 261 -75 102 21 171 70 202 143 20 49 19 81 -4 126 -45 88 -134 136
-251 136 l-75 0 40 41 40 42 30 -30 c16 -16 40 -33 53 -38 110 -42 225 59 195
172 -6 21 -9 39 -8 39 1 0 40 -46 87 -102z m-744 22 c-13 -16 -31 -29 -41 -29
-14 -1 -10 9 20 50 32 42 39 47 41 30 2 -12 -7 -34 -20 -51z m-64 -59 c3 -4
-11 -29 -31 -55 -26 -34 -39 -43 -45 -34 -14 23 -9 39 21 69 30 30 46 36 55
20z m940 -12 c17 -14 26 -30 26 -50 0 -39 -11 -37 -49 11 -44 55 -30 80 23 39z
m-347 -138 c198 -122 48 -352 -202 -311 -147 24 -227 145 -164 246 45 74 121
106 234 100 69 -3 88 -8 132 -35z m-1238 -277 c25 -32 27 -72 5 -81 -11 -4
-12 -8 -4 -13 8 -5 4 -15 -14 -33 -26 -26 -35 -70 -16 -82 6 -3 10 4 10 17 1
25 21 58 37 58 5 0 14 19 20 43 13 48 46 72 76 55 21 -11 22 -35 3 -79 -8 -19
-12 -45 -10 -59 6 -33 0 -40 -70 -89 -75 -52 -100 -52 -163 -2 -27 21 -64 46
-82 55 -17 9 -37 28 -44 43 -9 21 -8 27 8 39 10 8 25 14 32 14 22 0 84 -62 78
-77 -3 -8 18 6 46 31 28 25 55 46 60 46 5 0 9 5 9 10 0 6 -5 10 -11 10 -21 0
-38 35 -39 78 0 38 2 42 24 42 15 0 33 -11 45 -26z m-118 -26 c20 -17 49 -64
49 -80 0 -12 -34 -48 -45 -48 -2 0 -20 14 -40 31 -26 24 -35 39 -35 63 0 18 3
36 7 39 11 11 48 8 64 -5z m1994 -198 c9 -17 15 -55 15 -92 0 -72 -3 -79 -110
-222 -58 -79 -76 -96 -97 -96 -25 0 -22 5 39 68 35 37 78 90 94 117 26 45 29
60 31 145 1 52 2 98 3 103 0 14 10 6 25 -23z m-1555 -164 c16 -43 3 -45 -15
-3 -8 20 -14 60 -14 89 l1 53 9 -55 c4 -30 13 -68 19 -84z m-211 105 c14 -11
53 -24 85 -30 33 -6 60 -12 61 -13 1 -2 7 -22 13 -45 7 -22 28 -64 47 -92 19
-28 35 -53 35 -55 0 -3 -20 -36 -44 -74 -75 -115 -90 -212 -51 -322 8 -24 14
-72 13 -114 -1 -78 16 -127 53 -146 41 -23 116 -40 171 -40 46 0 61 4 77 22
11 12 20 31 20 42 0 12 4 39 10 61 6 22 11 65 11 96 l0 56 -94 11 c-52 7 -115
12 -140 12 l-45 0 -16 55 c-10 32 -14 68 -10 84 6 26 14 32 78 52 40 12 91 28
114 35 l41 13 9 -37 c8 -35 13 -38 93 -68 l83 -31 25 -74 c41 -125 33 -161
-37 -173 -67 -10 -92 -69 -41 -96 40 -22 138 42 166 107 19 43 17 77 -6 143
-10 30 -17 56 -15 58 2 2 25 -5 52 -16 26 -11 84 -33 128 -50 l80 -30 0 -354
0 -353 -489 -3 -489 -2 6 107 c4 60 11 225 17 368 6 143 17 294 25 335 7 41
16 93 20 115 8 50 30 130 61 218 29 81 30 100 5 70 -37 -44 -115 -21 -181 55
-22 25 -40 50 -40 56 0 9 58 65 68 66 2 0 16 -9 31 -19z m2011 -33 c43 -26
110 -88 110 -103 0 -5 -16 -20 -36 -33 -31 -21 -38 -22 -52 -9 -32 27 -81 37
-129 26 -38 -8 -49 -7 -64 7 -24 21 -24 17 0 -48 73 -201 98 -346 111 -637 6
-130 15 -294 20 -366 6 -72 10 -140 10 -152 l0 -23 -490 0 -489 0 -3 63 c-2
34 -2 195 0 358 l3 297 27 7 c15 3 41 12 57 20 17 7 73 27 125 45 52 18 99 37
105 42 15 14 52 9 59 -8 3 -8 -1 -28 -9 -44 -41 -80 19 -180 107 -180 69 0
128 49 128 108 0 16 14 22 88 36 48 10 97 19 110 22 21 4 23 9 17 37 -4 18
-10 35 -14 39 -3 4 -55 -2 -116 -12 -110 -19 -110 -19 -153 2 -27 12 -52 18
-67 14 -20 -5 -25 -3 -25 11 0 12 16 24 44 36 40 17 45 22 48 55 3 35 5 37 41
40 35 3 43 11 121 115 96 128 116 164 116 205 0 16 6 34 13 40 33 27 133 22
187 -10z m-1605 -156 c33 -24 51 -42 40 -38 -11 3 -42 10 -69 17 -45 11 -50
16 -72 63 -33 70 -30 83 9 40 17 -21 59 -57 92 -82z m1238 56 c-10 -18 -70
-85 -134 -148 -95 -95 -119 -124 -133 -165 l-16 -50 -172 -63 c-94 -34 -172
-61 -174 -60 -1 2 61 53 138 113 375 295 486 384 492 394 17 26 16 8 -1 -21z
m654 -64 c38 -17 54 -30 59 -49 15 -58 -16 -70 -81 -30 -71 44 -115 24 -115
-52 0 -33 -6 -50 -25 -68 -13 -14 -29 -25 -34 -25 -19 0 -29 32 -18 61 10 25
8 32 -18 59 -25 26 -27 33 -17 54 13 30 69 73 102 79 38 7 89 -3 147 -29z
m-1706 -68 c19 -8 88 -19 154 -26 66 -6 122 -14 124 -16 6 -5 -109 -114 -120
-114 -4 0 -10 4 -13 9 -3 5 -49 41 -101 81 -52 40 -95 74 -95 76 0 7 17 4 51
-10z m799 -17 c-19 -16 -68 -55 -108 -86 l-73 -56 -52 49 c-51 49 -68 67 -64
70 1 1 52 7 113 13 60 6 130 17 155 25 64 20 68 19 29 -15z m-1006 -5 c44 -8
53 -19 27 -33 -31 -17 -59 -13 -75 11 -20 28 -20 42 -2 35 8 -3 31 -9 50 -13z
m1879 -14 c14 -11 30 -20 37 -20 6 0 10 -6 8 -12 -8 -24 -36 -19 -62 9 -41 44
-30 60 17 23z m-1943 -41 c0 -6 -53 -29 -66 -29 -12 0 -1 27 18 47 21 23 23
23 35 7 7 -10 13 -21 13 -25z m738 25 c30 -21 28 -37 -9 -68 -43 -36 -94 -35
-139 3 l-35 29 24 26 c21 22 33 26 81 26 34 0 64 -6 78 -16z m-502 -71 c20
-27 47 -93 41 -99 -1 -2 -32 7 -67 20 -62 23 -65 25 -65 57 0 27 5 34 25 40
41 11 45 10 66 -18z m292 -146 c56 -44 101 -81 99 -83 -3 -4 -128 41 -172 61
-16 7 -42 16 -57 20 -23 6 -31 18 -49 73 -12 37 -24 74 -27 82 -4 8 19 -5 48
-29 30 -24 101 -80 158 -124z m32 143 c11 -11 20 -25 20 -30 0 -10 -27 -69
-36 -79 -5 -6 -84 50 -84 60 0 6 70 69 77 69 2 0 12 -9 23 -20z m271 -16 l34
-35 -33 -30 c-18 -16 -38 -29 -45 -29 -7 0 -19 20 -28 44 -15 43 -15 45 5 65
11 12 23 21 26 21 3 0 22 -16 41 -36z m352 -11 c-3 -21 -12 -33 -26 -37 -32
-8 -32 -1 -2 39 15 19 29 34 30 33 2 -2 0 -17 -2 -35z m-844 -100 c1 -7 12
-47 26 -89 31 -94 31 -133 4 -168 -25 -32 -38 -27 -15 6 25 35 19 94 -19 205
-37 109 -46 165 -15 98 10 -22 19 -45 19 -52z m396 44 c21 -53 20 -58 -30 -95
l-44 -34 -46 37 c-48 40 -49 47 -20 105 12 22 19 25 69 25 55 0 56 0 71 -38z
m733 -94 c-3 -27 -6 -28 -92 -40 -72 -11 -91 -11 -98 -1 -20 32 -7 36 185 67
5 0 7 -11 5 -26z m-251 -4 c19 -17 46 -69 34 -69 -5 0 -14 13 -21 30 -13 32
-64 55 -96 44 -96 -34 -78 -164 22 -164 39 0 84 31 84 56 0 7 4 15 9 18 17 11
-1 -34 -25 -59 -34 -37 -100 -35 -137 3 -45 47 -31 128 27 153 26 11 83 4 103
-12z m-1323 -130 c38 -117 73 -179 101 -179 8 0 17 -5 21 -11 5 -9 -1 -10 -22
-5 -36 8 -81 59 -90 100 -3 17 -19 71 -35 120 -33 100 -32 96 -21 96 4 0 25
-54 46 -121z m1307 103 c60 -50 -4 -147 -73 -111 -30 15 -38 28 -38 59 0 62
62 91 111 52z m-1149 -64 c72 -8 108 -16 108 -24 0 -20 -12 -44 -19 -39 -4 2
-52 7 -106 10 -55 3 -102 9 -106 13 -4 4 -10 17 -14 30 -8 27 -10 26 137 10z
m52 -74 c42 -6 46 -9 46 -35 0 -46 -10 -59 -44 -59 -17 0 -40 -7 -50 -15 -42
-32 -78 -10 -107 64 l-19 51 64 0 c35 0 84 -3 110 -6z m-199 -126 c12 -30 -4
-20 -25 15 -11 17 -20 48 -19 67 0 35 1 35 18 -15 10 -27 21 -58 26 -67z m409
47 c0 -5 -12 -17 -27 -25 -22 -12 -29 -12 -39 -2 -11 11 -9 16 7 28 21 16 60
15 59 -1z m-190 -53 c13 -22 -40 -47 -65 -31 -11 8 -10 12 5 24 21 16 52 20
60 7z m276 -622 l0 -90 -236 0 -235 0 6 48 c3 26 8 66 11 90 l5 42 225 0 224
0 0 -90z m980 61 c0 -15 3 -56 6 -90 l7 -61 -232 0 -231 0 0 90 0 90 225 0
225 0 0 -29z" id="node3" class="node"></path>
<path d="M1377 2514 c-9 -10 2 -24 19 -24 8 0 14 7 14 15 0 15 -21 21 -33 9z" id="node4" class="node"></path>
<path d="M1560 2505 c0 -8 7 -15 15 -15 8 0 15 7 15 15 0 8 -7 15 -15 15 -8 0
-15 -7 -15 -15z" id="node5" class="node"></path>
<path d="M950 2031 c-13 -25 -14 -53 -1 -32 7 11 19 5 57 -27 66 -54 163 -105
254 -133 98 -30 319 -33 419 -5 91 25 203 80 264 130 29 23 58 41 65 38 15 -5
15 3 2 29 -7 12 -21 19 -38 18 -15 0 -21 -3 -14 -6 23 -9 12 -29 -37 -67 -128
-97 -229 -128 -431 -133 -189 -5 -282 19 -417 109 -78 53 -95 74 -72 89 10 6
6 9 -13 9 -17 0 -31 -7 -38 -19z" id="node6" class="node"></path>
</g>
<g transform="translate(0.000000,300.000000) scale(0.100000,-0.100000)" fill="#FFFFFF" stroke="none">

<path d="M1544 2904 c-18 -44 -12 -64 19 -64 13 0 45 -11 70 -25 45 -23 47
-24 57 -5 15 28 12 45 -11 66 -12 10 -25 29 -30 42 -7 18 -16 22 -49 22 -38 0
-42 -3 -56 -36z" id="node8" class="node"></path>
<path d="M1328 2973 c-10 -2 -18 -10 -18 -17 0 -7 -11 -25 -25 -40 -25 -27
-32 -60 -16 -84 7 -11 18 -9 57 12 27 14 58 26 69 26 40 0 50 15 35 50 -23 56
-46 68 -102 53z" id="node9" class="node"></path>
<path d="M1386 2738 l-40 -20 30 -13 c43 -18 90 -61 104 -95 l12 -30 33 29
c43 37 98 47 156 27 l44 -15 -50 45 c-103 93 -203 118 -289 72z" id="node10" class="node"></path>
<path d="M1232 2673 c-66 -32 -100 -108 -83 -183 27 -121 179 -166 275 -81 27
24 56 86 56 121 0 45 -35 106 -77 135 -45 30 -119 34 -171 8z m178 -168 c0 -8
-6 -15 -14 -15 -17 0 -28 14 -19 24 12 12 33 6 33 -9z" id="node11" class="node"></path>
<path d="M1802 2568 c95 -107 150 -137 75 -41 -77 97 -113 133 -136 133 -18 0
-8 -16 61 -92z" id="node12" class="node"></path>
<path d="M1584 2620 c-97 -30 -112 -170 -22 -216 51 -26 115 -14 155 30 37 40
41 67 17 125 -21 53 -87 79 -150 61z m6 -115 c0 -8 -7 -15 -15 -15 -8 0 -15 7
-15 15 0 8 7 15 15 15 8 0 15 -7 15 -15z" id="node13" class="node"></path>
<path d="M1763 2541 c30 -113 -85 -214 -195 -172 -13 5 -37 22 -53 38 l-30 30
-40 -42 -40 -41 75 0 c117 0 206 -48 251 -136 57 -112 -34 -236 -198 -269 -94
-19 -191 9 -261 75 -44 40 -62 76 -62 121 0 67 35 122 105 166 l30 19 -40 0
c-58 0 -114 36 -155 98 l-35 53 -20 -24 c-274 -335 -326 -415 -345 -529 -9
-62 4 -158 27 -196 80 -131 152 -182 328 -234 76 -22 96 -23 370 -23 274 0
295 1 375 24 161 44 274 122 328 226 23 44 27 62 27 145 0 163 -21 199 -363
608 -47 56 -86 102 -87 102 -1 0 2 -18 8 -39z m-762 -500 c-23 -15 -6 -36 72
-89 135 -90 228 -114 417 -109 202 5 303 36 431 133 49 38 60 58 37 67 -7 3
-1 6 14 6 17 1 31 -6 38 -18 13 -26 13 -34 -2 -29 -7 3 -36 -15 -65 -38 -61
-50 -173 -105 -264 -130 -100 -28 -321 -25 -419 5 -91 28 -188 79 -254 133
-38 32 -50 38 -57 27 -7 -11 -9 -11 -9 -1 0 29 21 52 48 52 19 0 23 -3 13 -9z" id="node14" class="node"></path>
<path d="M1077 2521 c-30 -41 -34 -51 -20 -50 24 0 65 54 61 80 -2 17 -9 12
-41 -30z" id="node15" class="node"></path>
<path d="M979 2421 c-30 -30 -35 -46 -21 -69 6 -9 19 0 45 34 51 65 33 91 -24
35z" id="node16" class="node"></path>
<path d="M1925 2440 c-6 -10 52 -90 67 -90 4 0 8 13 8 29 0 41 -58 88 -75 61z" id="node17" class="node"></path>
<path d="M1379 2317 c-119 -45 -168 -141 -119 -237 70 -138 362 -137 439 1 43
77 16 156 -72 210 -44 27 -63 32 -132 35 -52 3 -93 0 -116 -9z" id="node18" class="node"></path>
<path d="M320 1998 c1 -43 18 -78 39 -78 6 0 11 -4 11 -10 0 -5 -4 -10 -9 -10
-5 0 -32 -21 -60 -46 -28 -25 -49 -39 -46 -31 6 15 -56 77 -78 77 -7 0 -22 -6
-32 -14 -16 -12 -17 -18 -8 -39 7 -15 27 -34 44 -43 18 -9 55 -34 82 -55 63
-50 88 -50 163 2 70 49 76 56 70 89 -2 14 2 40 10 59 19 44 18 68 -3 79 -30
17 -63 -7 -76 -55 -6 -24 -15 -43 -20 -43 -16 0 -36 -33 -37 -58 0 -13 -4 -20
-10 -17 -19 12 -10 56 16 82 18 18 22 28 14 33 -8 5 -7 9 4 13 40 16 -3 107
-50 107 -22 0 -24 -4 -24 -42z" id="node19" class="node"></path>
<path d="M207 1993 c-4 -3 -7 -21 -7 -39 0 -24 9 -39 35 -63 20 -17 38 -31 40
-31 11 0 45 36 45 48 0 16 -29 63 -49 80 -16 13 -53 16 -64 5z" id="node20" class="node"></path>
<path d="M2240 1813 c-1 -5 -2 -51 -3 -103 -2 -85 -5 -100 -31 -145 -16 -27
-59 -80 -94 -117 -61 -63 -64 -68 -39 -68 21 0 39 17 97 96 107 143 110 150
110 222 0 37 -6 75 -15 92 -15 29 -25 37 -25 23z" id="node21" class="node"></path>
<path d="M681 1712 c0 -29 6 -69 14 -89 18 -42 31 -40 15 3 -6 16 -15 54 -19
84 l-9 55 -1 -53z" id="node22" class="node"></path>
<path d="M432 1722 c-18 -15 -32 -32 -32 -38 0 -6 18 -31 40 -56 66 -76 144
-99 181 -55 25 30 24 11 -5 -70 -31 -88 -53 -168 -61 -218 -4 -22 -13 -74 -20
-115 -8 -41 -19 -192 -25 -335 -6 -143 -13 -308 -17 -368 l-6 -107 489 2 489
3 0 353 0 354 -80 30 c-44 17 -102 39 -128 50 -27 11 -50 18 -52 16 -2 -2 5
-28 15 -58 23 -66 25 -100 6 -143 -28 -65 -126 -129 -166 -107 -51 27 -26 86
41 96 70 12 78 48 37 173 l-25 74 -83 31 c-80 30 -85 33 -93 68 l-9 37 -41
-13 c-23 -7 -74 -23 -114 -35 -64 -20 -72 -26 -78 -52 -4 -16 0 -52 10 -84
l16 -55 45 0 c25 0 88 -5 140 -12 l94 -11 0 -56 c0 -31 -5 -74 -11 -96 -6 -22
-10 -49 -10 -61 0 -11 -9 -30 -20 -42 -16 -18 -31 -22 -77 -22 -55 0 -130 17
-171 40 -37 19 -54 68 -53 146 1 42 -5 90 -13 114 -39 110 -24 207 51 322 24
38 44 71 44 74 0 2 -16 27 -35 55 -19 28 -40 70 -47 92 -6 23 -12 43 -13 45
-1 1 -28 7 -61 13 -32 6 -71 19 -85 30 -15 10 -29 19 -31 19 -1 0 -18 -13 -36
-28z" id="node23" class="node"></path>
<path d="M2365 1723 c-41 -7 -55 -20 -55 -55 0 -41 -20 -77 -116 -205 -78
-104 -86 -112 -121 -115 -36 -3 -38 -5 -41 -40 -3 -33 -8 -38 -48 -55 -28 -12
-44 -24 -44 -36 0 -14 5 -16 25 -11 15 4 40 -2 67 -14 43 -21 43 -21 153 -2
61 10 113 16 116 12 4 -4 10 -21 14 -39 6 -28 4 -33 -17 -37 -13 -3 -62 -12
-110 -22 -74 -14 -88 -20 -88 -36 0 -32 -29 -77 -60 -93 -110 -57 -231 57
-175 165 8 16 12 36 9 44 -7 17 -44 22 -59 8 -6 -5 -53 -24 -105 -42 -52 -18
-108 -38 -125 -45 -16 -8 -42 -17 -57 -20 l-27 -7 -3 -297 c-2 -163 -2 -324 0
-358 l3 -63 489 0 490 0 0 23 c0 12 -4 80 -10 152 -5 72 -14 236 -20 366 -13
291 -38 436 -111 637 -24 65 -24 69 0 48 15 -14 26 -15 64 -7 48 11 97 1 129
-26 14 -13 21 -12 52 9 20 13 36 28 36 33 0 15 -67 77 -110 103 -39 23 -97 33
-145 25z" id="node24" class="node"></path>
<path d="M780 1648 c0 -7 11 -36 24 -64 22 -47 27 -52 72 -63 27 -7 58 -14 69
-17 11 -4 -7 14 -40 38 -33 25 -75 61 -92 82 -18 20 -33 31 -33 24z" id="node25" class="node"></path>
<path d="M2144 1619 c-6 -10 -117 -99 -492 -394 -77 -60 -139 -111 -138 -113
2 -1 80 26 174 60 l172 63 16 50 c14 41 38 70 133 165 98 98 166 180 147 180
-3 0 -8 -5 -12 -11z" id="node26" class="node"></path>
<path d="M2650 1563 c-33 -6 -89 -49 -102 -79 -10 -21 -8 -28 17 -54 26 -27
28 -34 18 -59 -11 -29 -1 -61 18 -61 5 0 21 11 34 25 19 18 25 35 25 68 0 76
44 96 115 52 65 -40 96 -28 81 30 -11 42 -139 90 -206 78z" id="node27" class="node"></path>
<path d="M1040 1476 c0 -2 43 -36 95 -76 52 -40 98 -76 101 -81 3 -5 9 -9 13
-9 11 0 126 109 120 114 -2 2 -58 10 -124 16 -66 7 -135 18 -154 26 -34 14
-51 17 -51 10z" id="node28" class="node"></path>
<path d="M1861 1464 c-25 -8 -95 -19 -155 -25 -61 -6 -112 -12 -113 -13 -4 -3
13 -21 64 -70 l52 -49 73 56 c98 75 145 116 133 116 -5 -1 -30 -7 -54 -15z" id="node29" class="node"></path>
<path d="M820 1453 c0 -19 32 -53 51 -53 27 0 61 19 54 29 -2 5 -21 12 -41 15
-19 4 -42 10 -50 13 -8 3 -14 1 -14 -4z" id="node30" class="node"></path>
<path d="M2720 1442 c0 -16 53 -63 68 -60 18 4 29 28 12 28 -7 0 -23 9 -37 20
-27 21 -43 25 -43 12z" id="node31" class="node"></path>
<path d="M772 1407 c-19 -20 -30 -47 -18 -47 13 0 66 23 66 29 0 4 -6 15 -13
25 -12 16 -14 16 -35 -7z" id="node32" class="node"></path>
<path d="M1399 1404 l-24 -26 35 -29 c45 -38 96 -39 139 -3 17 14 31 32 31 39
0 26 -43 45 -100 45 -48 0 -60 -4 -81 -26z" id="node33" class="node"></path>
<path d="M990 1361 c-20 -6 -25 -13 -25 -40 0 -32 3 -34 65 -57 35 -13 66 -22
67 -20 6 6 -21 72 -41 99 -21 28 -25 29 -66 18z" id="node34" class="node"></path>
<path d="M1142 1350 c3 -8 15 -45 27 -82 18 -55 26 -67 49 -73 15 -4 41 -13
57 -20 44 -20 169 -65 172 -61 2 2 -43 39 -99 83 -57 44 -128 100 -158 124
-29 24 -52 37 -48 29z" id="node35" class="node"></path>
<path d="M1317 1329 c-20 -17 -37 -34 -37 -38 0 -10 79 -66 84 -60 9 10 36 69
36 79 0 9 -35 50 -43 50 -1 0 -19 -14 -40 -31z" id="node36" class="node"></path>
<path d="M1584 1339 c-20 -20 -20 -22 -5 -65 9 -24 21 -44 28 -44 7 0 27 13
45 29 l33 30 -34 35 c-19 20 -38 36 -41 36 -3 0 -15 -9 -26 -21z" id="node37" class="node"></path>
<path d="M1975 1315 c-30 -40 -30 -47 2 -39 14 4 23 16 26 37 2 18 4 33 2 35
-1 1 -15 -14 -30 -33z" id="node38" class="node"></path>
<path d="M1121 1287 c-1 -10 15 -64 34 -120 38 -111 44 -170 19 -205 -23 -33
-10 -38 15 -6 27 35 27 74 -4 168 -14 42 -25 82 -26 89 -1 22 -37 92 -38 74z" id="node39" class="node"></path>
<path d="M1415 1270 c-29 -58 -28 -65 20 -105 l46 -37 44 34 c50 37 51 42 30
95 -15 38 -16 38 -71 38 -50 0 -57 -3 -69 -25z" id="node40" class="node"></path>
<path d="M2183 1172 c-90 -15 -102 -22 -85 -50 7 -10 26 -10 98 1 86 12 89 13
92 40 2 15 0 26 -5 26 -4 -1 -50 -9 -100 -17z" id="node41" class="node"></path>
<path d="M1934 1171 c-58 -25 -72 -106 -27 -153 37 -38 103 -40 137 -3 24 25
42 70 25 59 -5 -3 -9 -11 -9 -18 0 -25 -45 -56 -84 -56 -100 0 -118 130 -22
164 32 11 83 -12 96 -44 7 -17 16 -30 21 -30 12 0 -15 52 -34 69 -20 16 -77
23 -103 12z" id="node42" class="node"></path>
<path d="M660 1146 c0 -2 13 -43 29 -92 16 -49 32 -103 35 -120 9 -41 54 -92
90 -100 21 -5 27 -4 22 5 -4 6 -13 11 -21 11 -28 0 -63 62 -101 179 -21 67
-42 121 -46 121 -4 0 -8 -2 -8 -4z" id="node43" class="node"></path>
<path d="M1926 1128 c-17 -24 -21 -65 -8 -84 11 -17 50 -35 70 -32 54 9 75 85
33 120 -32 25 -76 23 -95 -4z" id="node44" class="node"></path>
<path d="M735 1058 c4 -13 10 -26 14 -30 4 -4 51 -10 106 -13 54 -3 102 -8
106 -10 7 -5 19 19 19 39 0 8 -36 16 -108 24 -147 16 -145 17 -137 -10z" id="node45" class="node"></path>
<path d="M769 949 c29 -74 65 -96 107 -64 10 8 33 15 50 15 34 0 44 13 44 59
0 26 -4 29 -46 35 -26 3 -75 6 -110 6 l-64 0 19 -51z" id="node46" class="node"></path>
<path d="M681 950 c-1 -19 8 -50 19 -67 21 -35 37 -45 25 -15 -5 9 -16 40 -26
67 -17 50 -18 50 -18 15z" id="node47" class="node"></path>
<path d="M1075 916 c-16 -12 -18 -17 -7 -28 10 -10 17 -10 39 2 15 8 27 20 27
25 1 16 -38 17 -59 1z" id="node48" class="node"></path>
<path d="M884 855 c-15 -12 -16 -16 -5 -24 25 -16 78 9 65 31 -8 13 -39 9 -60
-7z" id="node49" class="node"></path>
<path d="M766 288 c-3 -24 -8 -64 -11 -90 l-6 -48 235 0 236 0 0 90 0 90 -224
0 -225 0 -5 -42z" id="node50" class="node"></path>

<path d="M1750 240 l0 -90 231 0 232 0 -7 61 c-3 34 -6 75 -6 90 l0 29 -225 0
-225 0 0 -90z" id="node52" class="node"></path>


</g>
</svg>