<!--?xml version="1.0" standalone="no"?--><svg version="1.0" xmlns="http://www.w3.org/2000/svg" width="204.000000pt" height="300.000000pt" viewBox="0 0 204.000000 300.000000" preserveAspectRatio="xMidYMid meet">
<metadata>
  <rdf:rdf xmlns:rdf="http://www.w3.org/1999/02/22-rdf-syntax-ns#" xmlns:rdfs="http://www.w3.org/2000/01/rdf-schema#" xmlns:dc="http://purl.org/dc/elements/1.1/">
    <rdf:description dc:title="funny-christmas-santa green" dc:publisher="Hiox" dc:date="2015-12-04" dc:format="image/svg+xml" dc:language="en">
      <dc:creator>
        <rdf:bag>
          <rdf:li>svgimages.com</rdf:li>
        </rdf:bag>
      </dc:creator>
    </rdf:description>
  </rdf:rdf>
</metadata>
<g transform="translate(0.000000,300.000000) scale(0.100000,-0.100000)" fill="#346D4B" stroke="none">
<path d="M1080 2633 c-8 -3 -26 -14 -40 -23 -20 -14 -55 -18 -160 -22 -144 -6
-200 -20 -219 -56 -6 -12 -11 -50 -11 -85 l0 -64 -72 4 c-119 7 -152 -24 -170
-159 -11 -77 -15 -88 -38 -100 -51 -26 -76 -61 -78 -106 -1 -28 3 -44 12 -48
8 -3 16 -14 19 -25 3 -11 14 -19 25 -19 12 0 24 -5 27 -10 8 -13 71 -3 100 15
11 7 29 29 40 49 16 30 18 40 7 56 -6 11 -12 26 -12 33 0 7 -11 23 -25 35 -20
17 -24 28 -19 50 16 70 45 84 127 61 38 -10 49 -32 22 -43 -8 -3 -15 -16 -15
-28 0 -13 -7 -32 -15 -42 -20 -27 -19 -53 3 -67 18 -11 17 -13 -2 -53 -13 -25
-22 -68 -25 -110 -3 -68 -5 -71 -64 -145 -94 -119 -129 -178 -188 -320 -23
-53 -47 -116 -55 -141 -76 -241 -82 -512 -17 -783 l26 -108 49 6 48 7 0 -61
c0 -47 4 -62 18 -69 21 -12 138 -32 181 -32 l33 0 -7 -48 c-7 -50 -20 -72 -40
-72 -8 0 -49 -24 -92 -52 l-78 -53 629 -3 c346 -1 632 1 635 4 19 19 -165 140
-241 159 -31 8 -41 41 -36 115 l3 45 61 7 c65 7 132 23 149 35 12 9 76 208 75
235 0 12 16 19 70 28 38 6 72 15 74 18 2 4 -43 115 -100 247 -57 132 -103 245
-104 252 0 6 30 30 68 53 91 58 113 78 106 104 -4 16 3 25 31 41 50 26 121
107 129 146 9 46 7 94 -4 124 -8 21 -5 36 16 77 21 42 24 55 14 73 -28 53
-167 107 -221 86 -20 -8 -30 -29 -63 -140 -22 -73 -44 -135 -49 -138 -6 -3 -7
-1 -3 5 8 13 -18 20 -84 24 -43 3 -44 4 -52 43 -6 26 -5 41 2 43 37 13 53 91
30 147 -5 13 -3 26 7 37 14 15 17 16 39 2 12 -9 33 -14 46 -12 19 2 22 8 20
32 -2 16 -10 42 -18 58 -13 25 -13 31 1 58 20 39 19 86 -4 136 -23 49 -56 83
-136 136 -49 32 -59 44 -57 63 2 14 -5 32 -17 44 -12 12 -21 32 -21 46 0 18
-9 31 -30 43 -21 12 -30 25 -30 43 0 27 -27 59 -50 59 -7 0 -21 7 -31 16 -13
11 -22 13 -35 6 -12 -7 -26 -3 -52 14 -37 25 -38 26 -62 17z m66 -44 c18 -17
26 -19 44 -9 19 10 22 9 27 -10 4 -17 11 -20 29 -16 17 5 27 0 39 -17 8 -14
13 -31 10 -40 -5 -10 3 -20 22 -29 21 -10 28 -21 28 -42 1 -15 8 -33 16 -40
15 -10 33 -46 24 -46 -2 0 -28 14 -56 31 -38 22 -54 27 -60 18 -5 -9 -16 -5
-39 14 -56 47 -129 32 -169 -34 -12 -20 -45 -43 -97 -68 -81 -39 -228 -143
-299 -212 -23 -22 -48 -39 -58 -39 -24 0 -22 37 3 52 13 8 18 19 14 34 -4 14
0 23 10 27 9 4 16 16 16 27 0 11 7 20 15 20 8 0 23 17 32 37 13 28 26 39 47
43 22 4 32 12 37 33 10 36 27 57 48 57 9 0 22 13 28 29 7 19 19 31 34 33 17 2
25 12 31 38 10 38 40 70 67 70 10 0 30 14 46 30 35 36 78 40 111 9z m50 -184
c66 -27 78 -113 22 -160 -34 -29 -66 -32 -108 -10 -73 38 -65 136 14 171 39
16 31 17 72 -1z m-261 -164 c-2 -11 7 -31 21 -46 14 -15 24 -28 22 -29 -2 -2
-18 -9 -37 -16 -41 -16 -91 -57 -91 -74 0 -7 9 -21 20 -31 17 -15 31 -17 100
-12 44 4 88 11 98 16 14 7 21 5 30 -10 15 -24 74 -26 126 -4 36 15 37 15 89
-23 28 -21 72 -48 97 -59 41 -18 47 -25 68 -84 30 -88 29 -159 -4 -159 -7 0
-18 9 -24 20 -21 40 -29 19 -9 -27 28 -66 35 -149 16 -196 -16 -37 -37 -50
-37 -22 0 8 -4 15 -8 15 -5 0 -6 -38 -4 -85 5 -95 -6 -134 -46 -165 -32 -26
-41 -25 -51 3 -8 20 -11 16 -35 -38 -49 -109 -112 -149 -179 -113 -44 23 -104
78 -123 113 -23 44 -35 45 -32 3 7 -86 -94 -6 -159 125 -33 65 -63 167 -63
211 0 14 -5 26 -11 26 -8 0 -10 -15 -7 -45 4 -31 1 -48 -8 -56 -53 -44 -83
158 -49 323 13 60 34 113 83 211 2 4 -1 7 -7 7 -6 0 -25 -28 -42 -62 -30 -61
-74 -118 -91 -118 -12 0 -10 82 4 121 23 67 105 147 262 256 68 47 87 52 81
24z m315 -5 c0 -2 -8 -10 -17 -17 -16 -13 -17 -12 -4 4 13 16 21 21 21 13z
m-73 -117 c72 -58 72 -69 -5 -77 -54 -5 -76 10 -42 28 41 22 19 28 -32 8 -94
-35 -228 -35 -228 2 0 25 152 87 219 89 14 1 49 -20 88 -50z m3 36 c11 -13 10
-14 -4 -9 -9 3 -16 10 -16 15 0 13 6 11 20 -6z m-725 -52 c2 -7 11 -13 20 -13
9 0 15 -9 15 -25 0 -14 5 -25 10 -25 6 0 10 -6 10 -13 0 -22 -30 -77 -43 -79
-22 -2 -32 -5 -50 -13 -21 -9 -64 10 -89 40 -42 50 14 142 85 141 20 -1 39 -7
42 -13z m1155 -220 c0 -18 -6 -16 -52 9 -34 19 -41 20 -49 8 -8 -13 -12 -12
-24 4 -22 29 -19 36 18 36 18 0 42 7 53 15 18 13 20 11 36 -23 10 -20 18 -43
18 -49z m220 -267 c0 -2 -9 -6 -20 -9 -11 -3 -18 -1 -14 4 5 9 34 13 34 5z
m60 -160 c0 -2 -8 -10 -17 -17 -16 -13 -17 -12 -4 4 13 16 21 21 21 13z m-162
-98 c20 -67 20 -110 1 -75 -9 16 -49 137 -49 149 0 4 6 5 14 2 7 -3 23 -37 34
-76z m-498 -306 c0 -46 -26 -72 -70 -72 -30 0 -43 6 -59 26 -27 34 -29 79 -3
69 39 -15 78 -16 97 -2 25 19 35 13 35 -21z m-440 -141 c0 -11 -9 -13 -195
-46 -159 -28 -178 -30 -173 -13 3 7 66 24 149 39 154 29 219 35 219 20z m479
-27 c24 -31 26 -43 10 -78 -23 -49 -104 -53 -128 -7 -16 29 -13 72 6 93 26 29
87 24 112 -8z m-645 -69 c-4 -8 -11 -15 -16 -15 -6 0 -5 6 2 15 7 8 14 15 16
15 2 0 1 -7 -2 -15z m1136 -126 c7 -11 10 -23 7 -25 -5 -5 -196 -41 -612 -113
-638 -112 -868 -151 -870 -148 -2 1 -6 12 -9 25 -9 28 -14 26 169 57 83 14
215 37 295 51 80 14 181 31 225 39 44 7 133 23 198 34 64 12 170 30 235 42 64
11 162 29 217 39 131 23 132 23 145 -1z m-541 -375 c2 -2 0 -33 -4 -69 -6 -63
-8 -66 -51 -95 -24 -17 -57 -51 -74 -75 -17 -25 -35 -45 -41 -45 -5 0 -29 10
-52 22 -23 12 -94 38 -157 59 -119 38 -128 45 -116 93 5 21 14 24 82 29 119
11 254 46 278 72 18 20 27 22 76 18 30 -3 57 -7 59 -9z" id="node1" class="node" stroke-width="20"></path>
<path d="M1082 2500 c-29 -13 -42 -25 -40 -35 4 -21 4 -21 66 1 35 13 52 24
50 34 -5 22 -28 22 -76 0z m57 -4 c-2 -1 -19 -8 -36 -14 -37 -12 -45 -6 -10 8
22 9 54 13 46 6z" id="node2" class="node" stroke-width="20"></path>
<path d="M1215 2291 c-6 -11 9 -23 19 -14 9 9 7 23 -3 23 -6 0 -12 -4 -16 -9z" id="node3" class="node" stroke-width="20"></path>

<path d="M1193 1743 c-23 -9 -14 -25 10 -18 31 10 45 25 22 24 -11 0 -26 -3
-32 -6z" id="node5" class="node" stroke-width="20"></path>
</g>
<g transform="translate(0.000000,300.000000) scale(0.100000,-0.100000)" fill="#7BFEEC" stroke="none">



















</g>
</svg>