<!--?xml version="1.0" standalone="no"?-->

<svg version="1.0" xmlns="http://www.w3.org/2000/svg" width="293.000000pt" height="300.000000pt" viewBox="0 0 293.000000 300.000000" preserveAspectRatio="xMidYMid meet">
<g transform="translate(0.000000,300.000000) scale(0.100000,-0.100000)" fill="#985E33" stroke="none">
<path stroke-width="20" class="node" id="node1" d="M1255 2688 c-11 -6 -24 -16 -30 -22 -5 -7 -36 -23 -69 -36 -58 -23
-166 -114 -166 -140 0 -6 -18 -36 -39 -66 -21 -30 -45 -75 -52 -100 -12 -38
-23 -52 -67 -81 -122 -82 -186 -267 -133 -388 16 -36 16 -44 3 -75 -9 -21 -12
-54 -10 -87 5 -55 0 -60 -34 -42 -26 14 -35 4 -17 -19 8 -10 4 -7 -9 6 -18 19
-22 31 -16 55 6 28 5 30 -9 19 -8 -7 -21 -33 -28 -57 -10 -34 -16 -42 -26 -33
-10 8 -13 -2 -13 -52 0 -54 -2 -61 -15 -50 -20 17 -29 -8 -22 -60 l5 -40 -57
0 c-31 0 -97 -9 -147 -20 -192 -42 -215 -67 -230 -264 l-7 -88 -33 -14 c-32
-13 -34 -17 -34 -63 0 -73 13 -99 52 -106 32 -6 34 -10 55 -86 26 -90 64 -163
98 -185 27 -18 123 -9 280 24 204 43 208 49 213 270 4 181 10 187 92 92 29
-33 72 -74 95 -91 40 -29 43 -34 38 -67 -5 -30 -4 -34 10 -29 11 4 17 1 17 -8
0 -8 8 -15 18 -15 10 0 26 -14 35 -32 10 -18 35 -60 56 -93 22 -33 40 -63 40
-67 2 -15 -43 -8 -103 16 -181 71 -386 41 -470 -69 -30 -40 -28 -66 7 -82 49
-23 79 -33 98 -33 11 0 31 -7 45 -16 21 -14 43 -16 142 -10 64 3 185 7 267 7
128 0 154 3 174 18 35 27 22 75 -43 158 -58 74 -146 207 -146 220 0 4 27 6 59
5 38 -3 71 2 93 12 18 8 50 21 70 30 54 21 124 91 144 142 9 24 22 44 28 44
23 -1 124 -47 171 -80 89 -61 184 -142 190 -161 14 -45 -77 -159 -202 -253
-63 -48 -84 -88 -59 -115 21 -23 42 -27 221 -44 152 -15 244 -14 375 4 98 13
136 28 176 70 l29 30 -20 37 c-60 110 -225 139 -450 77 -49 -14 -90 -23 -92
-22 -1 2 25 38 58 81 34 42 64 75 66 72 3 -2 13 4 24 15 26 26 13 56 -53 119
-28 27 -50 51 -47 53 2 1 16 8 31 14 21 10 29 9 38 -3 22 -25 50 -15 104 36
l53 50 74 -8 74 -7 7 -114 c3 -62 9 -129 13 -149 9 -48 39 -104 63 -119 25
-15 291 -53 370 -53 51 0 62 4 84 27 33 35 64 112 78 196 11 59 14 64 45 76
36 13 45 31 45 102 0 49 -9 62 -51 72 -24 6 -27 12 -33 77 -8 91 -38 177 -74
213 -35 35 -152 59 -288 59 -109 -1 -152 -16 -183 -65 -30 -49 -61 -143 -61
-186 0 -58 -10 -65 -75 -57 -71 8 -75 10 -75 46 0 50 19 81 90 150 52 51 71
78 80 111 16 57 8 190 -12 221 -14 22 -14 27 0 53 22 42 21 122 -3 162 -17 29
-18 38 -7 78 17 64 15 113 -7 178 -25 72 -63 122 -120 157 -35 22 -44 34 -46
59 -4 50 -65 160 -125 225 -30 34 -60 70 -66 81 -11 20 -18 24 -108 65 -41 19
-60 22 -130 18 -49 -3 -95 -12 -118 -23 -35 -17 -37 -17 -65 2 -73 51 -151 67
-198 41z m31 -423 c3 -8 -1 -21 -9 -30 -9 -8 -18 -24 -22 -34 -8 -28 -37 -36
-52 -15 -24 33 11 94 54 94 13 0 26 -7 29 -15z m458 -27 c22 -31 20 -45 -10
-64 -31 -21 -45 -10 -46 36 -1 28 13 49 34 50 4 0 14 -10 22 -22z m-354 -73
c0 -16 7 -25 20 -27 19 -3 20 -4 5 -25 -30 -43 -105 -19 -105 34 0 18 9 28 32
38 39 16 48 12 48 -20z m219 1 c7 -8 11 -27 9 -43 -2 -23 -8 -29 -34 -31 -33
-3 -72 27 -46 36 7 2 17 15 22 28 11 27 32 31 49 10z m-90 -72 c23 -29 27 -59
10 -70 -8 -4 -8 -9 0 -17 6 -6 11 -19 11 -28 0 -14 -5 -16 -27 -10 -16 4 -64
6 -108 5 -78 -3 -79 -3 -50 13 43 23 61 43 46 52 -8 5 -3 18 16 44 35 45 72
49 102 11z m64 -115 c86 -44 138 -201 94 -285 -21 -41 -34 -50 -89 -64 l-47
-12 -50 43 c-67 57 -67 80 -4 97 73 20 152 69 159 99 8 32 -3 52 -44 78 -17
11 -31 25 -32 32 0 6 -6 14 -12 16 -7 3 -9 6 -5 6 5 1 18 -4 30 -10z m-286
-37 c-40 -42 -35 -72 20 -126 26 -25 60 -51 75 -57 20 -8 28 -19 28 -35 0 -33
-34 -32 -64 3 -23 27 -24 27 -51 9 -14 -10 -32 -31 -39 -48 l-13 -31 -27 39
c-27 40 -35 106 -17 142 4 9 16 34 26 55 10 20 32 46 49 57 42 27 45 25 13 -8z
m201 -48 c12 -4 22 -11 22 -17 0 -11 -94 -3 -132 12 -19 8 -13 10 32 10 30 1
65 -2 78 -5z m-42 -236 c16 -13 41 -37 56 -54 15 -16 43 -39 63 -50 36 -19 36
-19 48 1 7 11 15 31 18 45 6 24 7 23 8 -5 1 -25 -11 -52 -35 -84 -5 -6 -55 28
-87 58 l-28 26 3 -30 c3 -28 1 -30 -34 -33 -43 -4 -108 23 -108 45 0 12 -7 10
-34 -6 -36 -23 -66 -19 -66 8 0 24 16 45 24 32 4 -6 1 -11 -6 -11 -9 0 -9 -3
2 -10 24 -15 29 -13 80 40 27 28 52 50 58 50 5 0 22 -10 38 -22z m164 -67 c0
-11 -4 -23 -10 -26 -6 -4 -10 5 -10 19 0 14 5 26 10 26 6 0 10 -9 10 -19z
m-40 -1 c0 -5 -2 -10 -4 -10 -3 0 -8 5 -11 10 -3 6 -1 10 4 10 6 0 11 -4 11
-10z m-204 -345 c-1 -36 -4 -65 -8 -65 -5 0 -8 29 -8 65 0 36 4 65 8 65 5 0 9
-29 8 -65z m433 4 c-8 -5 -17 -9 -21 -9 -13 0 -9 35 4 48 10 10 15 9 22 -8 7
-16 6 -24 -5 -31z m-989 22 c12 -24 13 -111 1 -129 -15 -24 -44 -9 -54 27 -6
25 -4 46 8 78 18 47 29 53 45 24z m-236 -112 c-3 -15 -14 -29 -25 -32 -17 -4
-19 -2 -13 16 4 12 10 24 15 27 4 3 7 12 7 20 -1 8 0 24 1 35 2 15 5 13 12
-10 5 -16 7 -42 3 -56z m1777 54 c0 -5 2 -16 4 -26 3 -17 -20 -72 -34 -81 -4
-3 -4 16 0 42 4 26 8 53 8 60 1 13 20 17 22 5z m-1668 -20 c2 -5 7 -25 11 -45
8 -44 -8 -52 -18 -10 -4 15 -9 35 -12 45 -5 16 10 25 19 10z m1702 -87 c-15
-11 -15 -13 -1 -25 9 -8 16 -22 16 -32 0 -15 -4 -14 -28 9 -27 26 -28 28 -13
57 29 56 36 61 39 31 2 -17 -3 -32 -13 -40z m-871 45 c21 0 44 -6 52 -12 8 -6
28 -9 45 -7 39 6 121 -10 114 -23 -7 -10 -74 -9 -80 2 -11 16 -417 29 -464 14
-15 -5 -21 -2 -21 10 0 11 6 14 23 10 12 -3 33 -2 45 2 13 5 73 8 135 6 62 -1
129 -2 151 -2z m-704 -50 c0 -5 -17 -12 -37 -16 -21 -5 -45 -10 -53 -12 -44
-11 -100 -15 -100 -6 0 10 33 19 125 33 28 4 53 8 58 9 4 0 7 -3 7 -8z m587 3
c-3 -3 -12 -4 -19 -1 -8 3 -5 6 6 6 11 1 17 -2 13 -5z m-890 -71 c-3 -10 -5
-4 -5 12 0 17 2 24 5 18 2 -7 2 -21 0 -30z m352 -17 c50 -72 60 -79 102 -72
45 7 56 -4 29 -29 -18 -16 -21 -16 -53 4 -37 23 -127 116 -127 132 0 21 21 6
49 -35z m506 14 c11 -17 -14 -75 -43 -102 -62 -59 -173 -93 -231 -71 -23 9
-22 11 33 56 32 26 64 47 71 47 8 0 23 13 34 29 27 37 121 65 136 41z m840 0
c4 -6 10 -8 15 -5 10 6 40 -4 40 -14 0 -10 -132 9 -144 20 -6 5 9 9 36 9 26 0
50 -5 53 -10z m85 -20 c0 -5 -4 -10 -10 -10 -5 0 -10 5 -10 10 0 6 5 10 10 10
6 0 10 -4 10 -10z m-1670 -90 c0 -16 -7 -20 -38 -20 -36 0 -62 14 -62 32 0 4
23 8 50 8 43 0 50 -3 50 -20z m-27 -416 c-27 -27 -50 -43 -59 -40 -20 8 -18
20 12 55 19 23 34 31 58 31 l33 0 -44 -46z m111 18 c2 -4 -13 -26 -35 -49 -35
-38 -42 -41 -64 -33 -22 8 -24 13 -16 29 23 42 99 78 115 53z m1594 -8 c22
-15 30 -48 13 -59 -5 -3 -18 8 -27 25 -10 16 -22 30 -26 30 -4 0 -8 5 -8 10 0
15 22 12 48 -6z m-28 -69 c0 -8 -11 -22 -26 -31 -25 -17 -26 -16 -54 17 -16
19 -29 37 -30 40 0 3 15 13 33 21 31 16 33 16 55 -8 12 -14 22 -32 22 -39z
m-1415 44 c22 -5 54 -12 70 -14 17 -2 56 -8 89 -14 37 -6 79 -6 115 0 82 13
111 11 118 -7 14 -38 -18 -42 -290 -42 -144 0 -270 2 -279 5 -26 7 -22 20 14
54 36 32 86 38 163 18z m1190 -38 c81 5 92 3 108 -14 43 -48 -11 -59 -243 -53
-176 5 -272 16 -322 37 -34 14 -38 34 -5 23 12 -5 31 -7 42 -6 104 10 239 16
280 12 28 -3 91 -2 140 1z"></path>
<path class="node" id="node2" d="M1445 2098 c-4 -9 -5 -25 -3 -34 2 -14 5 -15 14 -3 7 8 8 22 4 34 -7
18 -9 18 -15 3z"></path>
<path class="node" id="node3" d="M1507 2084 c-10 -11 -8 -44 2 -44 6 0 13 4 16 10 8 12 -9 43 -18 34z"></path>
<path class="node" id="node4" d="M1456 2024 c-10 -25 -7 -34 9 -34 9 0 15 9 15 25 0 28 -15 34 -24 9z"></path>
<path class="node" id="node5" d="M1560 1744 c0 -8 5 -12 10 -9 6 3 10 10 10 16 0 5 -4 9 -10 9 -5 0
-10 -7 -10 -16z"></path>
<path class="node" id="node6" d="M1587 1726 c-6 -16 2 -28 14 -20 12 7 11 34 0 34 -5 0 -11 -6 -14
-14z"></path>
<path class="node" id="node7" d="M1262 1771 c1 -30 8 -38 21 -24 4 3 2 12 -4 19 -8 9 -5 11 9 7 21 -5
39 12 23 21 -5 4 -13 2 -16 -4 -5 -8 -11 -8 -20 0 -11 9 -14 5 -13 -19z"></path>
<path class="node" id="node8" d="M1440 1620 c0 -8 24 -20 41 -20 6 0 8 4 5 9 -8 12 -46 21 -46 11z"></path>

















</g>
<g transform="translate(0.000000,300.000000) scale(0.100000,-0.100000)" fill="#D6B48C" stroke="none">

<path class="node" id="node27" d="M1218 2263 c-24 -27 -30 -57 -15 -77 15 -21 44 -13 52 15 4 10 13 26
22 34 8 9 12 22 9 30 -7 21 -50 19 -68 -2z"></path>
<path class="node" id="node28" d="M1701 2251 c-16 -10 -17 -69 -2 -84 12 -12 61 17 61 36 0 15 -28 57
-38 57 -4 0 -13 -4 -21 -9z"></path>
<path class="node" id="node29" d="M1342 2185 c-23 -10 -32 -20 -32 -38 0 -53 75 -77 105 -34 15 21 14
22 -5 25 -13 2 -20 11 -20 27 0 32 -9 36 -48 20z"></path>
<path class="node" id="node30" d="M1560 2156 c-5 -13 -15 -26 -22 -28 -26 -9 13 -39 46 -36 26 2 32 8
34 31 6 52 -40 78 -58 33z"></path>
<path class="node" id="node31" d="M1417 2083 c-19 -26 -24 -39 -16 -44 15 -9 -3 -29 -46 -52 -29 -16
-28 -16 50 -13 44 1 92 -1 108 -5 22 -6 27 -4 27 10 0 9 -5 22 -11 28 -8 8 -8
13 0 17 32 20 -13 96 -57 96 -19 -1 -35 -12 -55 -37z m39 -22 c-9 -12 -12 -11
-14 3 -2 9 -1 25 3 34 6 15 8 15 15 -3 4 -12 3 -26 -4 -34z m69 -11 c-3 -6
-10 -10 -16 -10 -10 0 -12 33 -2 44 9 9 26 -22 18 -34z m-45 -35 c0 -16 -6
-25 -15 -25 -16 0 -19 9 -9 34 9 25 24 19 24 -9z"></path>
<path class="node" id="node32" d="M1558 1983 c6 -2 12 -10 12 -16 1 -7 15 -21 32 -32 41 -26 52 -46 44
-78 -7 -30 -86 -79 -159 -99 -63 -17 -63 -40 4 -97 l50 -43 47 12 c55 14 68
23 89 64 34 65 11 182 -48 247 -24 27 -61 50 -76 48 -4 0 -2 -3 5 -6z m22
-232 c0 -6 -4 -13 -10 -16 -5 -3 -10 1 -10 9 0 9 5 16 10 16 6 0 10 -4 10 -9z
m30 -25 c0 -17 -14 -29 -23 -20 -8 8 3 34 14 34 5 0 9 -6 9 -14z"></path>
<path class="node" id="node33" d="M1284 1950 c-17 -11 -39 -37 -49 -57 -10 -21 -22 -46 -26 -55 -18
-36 -10 -102 17 -142 l27 -39 13 31 c7 17 25 38 39 48 27 18 28 18 51 -9 30
-35 64 -36 64 -3 0 16 -8 27 -28 35 -15 6 -49 32 -75 57 -55 54 -60 84 -20
126 32 33 29 35 -13 8z m11 -160 c3 6 11 8 16 4 16 -9 -2 -26 -23 -21 -14 4
-17 2 -9 -7 6 -7 8 -16 4 -19 -13 -14 -20 -6 -21 24 -1 24 2 28 13 19 9 -8 15
-8 20 0z"></path>
<path class="node" id="node34" d="M1388 1889 c38 -15 132 -23 132 -12 0 15 -36 23 -100 22 -45 0 -51
-2 -32 -10z"></path>
<path class="node" id="node35" d="M1360 1630 c-51 -53 -56 -55 -80 -40 -11 7 -11 10 -2 10 7 0 10 5 6
11 -8 13 -24 -8 -24 -32 0 -27 30 -31 66 -8 27 16 34 18 34 6 0 -22 65 -49
108 -45 35 3 37 5 34 33 l-3 30 28 -26 c32 -30 82 -64 87 -58 24 32 36 59 35
84 -1 28 -2 29 -8 5 -3 -14 -11 -34 -18 -45 -12 -20 -12 -20 -48 -1 -20 11
-48 34 -63 50 -33 37 -81 76 -94 76 -6 0 -31 -22 -58 -50z m126 -21 c3 -5 1
-9 -5 -9 -17 0 -41 12 -41 20 0 10 38 1 46 -11z"></path>
<path class="node" id="node36" d="M1600 1584 c0 -14 4 -23 10 -19 6 3 10 15 10 26 0 10 -4 19 -10 19
-5 0 -10 -12 -10 -26z"></path>
<path class="node" id="node37" d="M1565 1590 c3 -5 8 -10 11 -10 2 0 4 5 4 10 0 6 -5 10 -11 10 -5 0
-7 -4 -4 -10z"></path>
<path class="node" id="node38" d="M1360 1245 c0 -36 3 -65 8 -65 4 0 7 29 8 65 1 36 -3 65 -8 65 -4 0
-8 -29 -8 -65z"></path>
<path class="node" id="node39" d="M1792 1288 c-13 -13 -17 -48 -4 -48 22 1 35 20 26 40 -7 17 -12 18
-22 8z"></path>

<path class="node" id="node41" d="M569 1225 c-1 -11 -2 -27 -1 -35 0 -8 -3 -17 -7 -20 -5 -3 -11 -15
-15 -27 -6 -18 -4 -20 13 -16 24 6 34 47 22 88 -7 23 -10 25 -12 10z"></path>
<path class="node" id="node42" d="M2339 1208 c0 -7 -4 -34 -8 -60 -4 -26 -4 -45 0 -42 14 9 37 64 34
81 -2 10 -4 21 -4 26 -2 12 -21 8 -22 -5z"></path>
<path class="node" id="node43" d="M674 1183 c3 -10 8 -30 12 -45 10 -42 26 -34 18 10 -8 44 -12 52 -25
52 -6 0 -8 -8 -5 -17z"></path>
<path class="node" id="node44" d="M2395 1159 c-6 -8 -17 -27 -26 -44 -15 -29 -14 -31 13 -57 24 -23 28
-24 28 -9 0 10 -7 24 -16 32 -14 12 -14 14 1 25 10 8 15 23 13 40 -2 21 -5 24
-13 13z"></path>
<path class="node" id="node45" d="M1238 1147 c-12 -4 -33 -5 -45 -2 -17 4 -23 1 -23 -10 0 -12 6 -15
21 -10 47 15 453 2 464 -14 6 -11 73 -12 80 -2 7 13 -75 29 -114 23 -17 -2
-37 1 -45 7 -8 6 -31 12 -52 12 -22 0 -89 1 -151 2 -62 2 -122 -1 -135 -6z"></path>
<path class="node" id="node46" d="M755 1100 c-92 -14 -125 -23 -125 -33 0 -9 56 -5 100 6 8 2 32 7 53
12 20 4 37 11 37 16 0 5 -3 8 -7 8 -5 -1 -30 -5 -58 -9z"></path>
<path class="node" id="node47" d="M1388 1103 c7 -3 16 -2 19 1 4 3 -2 6 -13 5 -11 0 -14 -3 -6 -6z"></path>
<path class="node" id="node48" d="M512 1045 c0 -16 2 -22 5 -12 2 9 2 23 0 30 -3 6 -5 -1 -5 -18z"></path>



<path class="node" id="node52" d="M2126 1031 c12 -11 144 -30 144 -20 0 10 -30 20 -40 14 -5 -3 -11 -1
-15 5 -3 5 -27 10 -53 10 -27 0 -42 -4 -36 -9z"></path>
<path class="node" id="node53" d="M2280 1010 c0 -5 5 -10 10 -10 6 0 10 5 10 10 0 6 -4 10 -10 10 -5 0
-10 -4 -10 -10z"></path>
<path class="node" id="node54" d="M530 932 c0 -18 26 -32 62 -32 31 0 38 4 38 20 0 17 -7 20 -50 20
-27 0 -50 -4 -50 -8z"></path>
<path class="node" id="node55" d="M556 519 c-30 -35 -32 -47 -12 -55 9 -3 32 13 59 40 l44 46 -33 0
c-24 0 -39 -8 -58 -31z"></path>
<path class="node" id="node56" d="M637 509 c-15 -12 -32 -30 -38 -40 -8 -16 -6 -21 16 -29 22 -8 29 -5
64 33 22 23 37 45 35 49 -9 15 -49 7 -77 -13z"></path>
<path class="node" id="node57" d="M2260 520 c0 -5 4 -10 8 -10 4 0 16 -14 26 -30 9 -17 22 -28 27 -25
17 11 9 44 -13 59 -26 18 -48 21 -48 6z"></path>
<path class="node" id="node58" d="M2203 492 c-18 -8 -33 -18 -33 -21 1 -3 14 -21 30 -40 28 -33 29 -34
54 -17 32 20 33 38 4 70 -22 24 -24 24 -55 8z"></path>
<path class="node" id="node59" d="M702 471 c-36 -34 -40 -47 -14 -54 9 -3 135 -5 279 -5 272 0 304 4
290 42 -7 18 -36 20 -118 7 -36 -6 -78 -6 -115 0 -33 6 -72 12 -89 14 -16 2
-48 9 -70 14 -77 20 -127 14 -163 -18z"></path>
<path class="node" id="node60" d="M1760 447 c-58 -4 -114 -8 -125 -9 -11 -1 -30 1 -42 6 -33 11 -29 -9
5 -23 50 -21 146 -32 322 -37 232 -6 286 5 243 53 -16 17 -27 19 -108 14 -49
-3 -112 -4 -140 -1 -27 3 -97 2 -155 -3z"></path>
</g>
</svg>