<!--?xml version="1.0" standalone="no"?-->

<svg xmlns="http://www.w3.org/2000/svg" width="238.000000pt" height="300.000000pt" viewBox="0 0 238.000000 300.000000" preserveAspectRatio="xMidYMid meet">
<g transform="translate(0.000000,300.000000) scale(0.100000,-0.100000)" fill="#242424" stroke="none">
<path style="position: relative;" class="node" id="node1" d="M1486 2955 c-9 -13 -21 -44 -28 -68 l-11 -43 -43 9 c-32 8 -47 7 -59
-3 -18 -15 -20 -57 -2 -63 8 -2 -3 -23 -29 -58 -81 -106 -133 -254 -118 -335
5 -30 4 -32 -29 -38 -19 -4 -50 -17 -69 -30 -27 -18 -53 -24 -112 -28 -71 -5
-81 -8 -106 -35 -18 -19 -43 -33 -67 -36 -49 -9 -107 -61 -101 -92 4 -18 -3
-24 -42 -38 -68 -24 -115 -59 -118 -87 -2 -18 -21 -38 -68 -69 -77 -52 -110
-93 -95 -118 11 -21 -10 -67 -34 -77 -38 -14 -121 -5 -173 19 -59 27 -74 30
-100 16 -9 -5 -25 -12 -35 -15 -10 -3 -24 -21 -32 -39 -12 -30 -12 -41 2 -88
16 -57 17 -67 7 -141 -5 -38 -2 -55 15 -84 12 -19 21 -48 21 -64 0 -32 35 -78
74 -100 23 -12 25 -18 20 -47 -6 -31 -2 -38 39 -77 28 -27 58 -46 80 -50 28
-5 36 -12 40 -35 8 -39 52 -68 130 -87 53 -14 65 -20 74 -44 8 -21 22 -32 60
-44 48 -16 49 -17 45 -52 -3 -24 1 -39 11 -47 9 -7 17 -23 19 -37 2 -15 13
-29 27 -35 40 -17 151 -273 151 -349 0 -39 -11 -46 -78 -46 -55 -1 -108 -25
-133 -60 -43 -58 -16 -111 40 -79 18 11 34 13 42 8 8 -5 42 -6 77 -2 55 5 68
3 110 -20 26 -14 74 -33 107 -42 33 -9 71 -24 83 -32 27 -17 124 -52 164 -60
23 -4 28 -1 33 20 8 29 -28 107 -49 107 -7 0 -21 9 -31 20 -18 20 -18 20 29 0
49 -22 172 -35 195 -20 10 5 11 17 6 36 -4 16 -9 44 -12 62 -4 28 -2 32 19 32
13 0 50 -13 83 -29 96 -46 156 -63 171 -50 30 25 4 97 -42 117 -41 19 -24 23
31 7 54 -17 133 -19 155 -5 12 8 13 14 1 47 -17 49 -29 63 -52 63 -10 0 -25
13 -35 28 -26 45 -47 52 -169 59 -127 7 -133 10 -175 90 -24 46 -52 158 -54
212 -1 31 3 36 42 56 23 12 48 27 54 33 7 7 19 12 28 12 8 0 29 13 47 28 18
15 49 38 69 52 21 14 52 39 70 56 19 18 45 35 59 38 15 4 27 16 31 31 3 14 14
25 27 27 13 2 28 16 37 35 10 20 23 33 39 35 16 2 30 16 45 44 11 23 30 45 41
50 11 5 26 28 34 54 8 25 21 51 29 59 8 9 12 28 10 52 -3 30 0 39 14 42 20 6
24 38 7 69 -8 14 -8 23 0 31 15 15 14 37 -3 70 -14 26 -14 27 8 27 12 0 33 11
46 25 14 15 35 25 51 25 21 0 38 11 65 44 21 25 48 46 64 49 29 6 52 47 65
120 5 27 12 37 26 37 24 0 34 54 24 123 -5 29 -9 70 -10 92 -1 22 -3 48 -4 58
0 10 -25 44 -55 75 -29 31 -58 67 -65 79 -7 14 -29 28 -58 36 -44 13 -51 19
-95 95 -57 96 -139 188 -209 232 -45 29 -49 36 -44 60 7 32 -17 63 -44 56 -9
-2 -26 -7 -38 -11 -20 -5 -23 -3 -23 19 0 32 -12 39 -45 26 -22 -8 -29 -7 -43
11 -22 26 -47 17 -69 -24 l-15 -31 -13 31 c-17 41 -40 48 -59 18z m123 -68
c-6 -14 -9 -33 -6 -41 9 -22 34 -20 41 2 4 11 18 30 32 43 l25 24 -10 -28
c-21 -54 -10 -59 60 -28 50 23 57 21 35 -10 -15 -23 -7 -49 16 -49 5 0 35 -18
67 -39 77 -53 168 -161 200 -239 17 -40 61 -78 101 -87 20 -4 30 -13 30 -25 0
-10 8 -21 18 -24 25 -9 100 -83 107 -107 4 -13 2 -25 -5 -29 -10 -6 -10 -15
-2 -40 7 -18 15 -60 18 -94 6 -56 4 -64 -12 -68 -14 -3 -24 -21 -33 -59 -18
-73 -27 -88 -49 -82 -13 3 -24 -5 -37 -24 -33 -53 -68 -83 -87 -77 -13 4 -28
-4 -47 -25 -16 -17 -38 -31 -49 -31 -18 0 -70 -18 -117 -41 -11 -5 -60 -18
-110 -29 -72 -15 -117 -18 -230 -15 -77 3 -151 5 -165 5 -13 0 -42 14 -63 32
-37 29 -41 30 -52 14 -12 -16 -17 -14 -53 24 -23 22 -44 49 -47 60 -4 11 -15
20 -26 20 -24 0 -29 13 -34 76 -2 27 -6 74 -10 104 -7 51 -4 60 30 124 20 38
34 75 30 84 -3 9 7 28 27 49 32 33 33 36 31 111 -4 130 33 239 118 346 41 51
47 73 27 95 -11 11 -9 13 12 7 14 -3 41 -9 62 -12 l36 -6 7 57 c8 60 21 63 27
5 4 -42 32 -54 43 -18 9 27 45 81 51 75 3 -2 -1 -16 -7 -30z m-419 -577 c0 -5
-14 -25 -31 -44 -18 -21 -32 -49 -34 -68 -1 -18 -15 -59 -30 -92 -32 -68 -34
-109 -12 -218 18 -89 21 -96 53 -108 13 -5 35 -27 48 -49 14 -22 34 -42 46
-46 11 -3 20 -11 20 -16 0 -5 16 -9 35 -9 19 0 51 -9 72 -19 34 -17 58 -19
218 -17 181 3 259 15 363 57 31 13 35 12 48 -6 12 -16 12 -21 2 -24 -25 -8
-27 -26 -7 -57 18 -30 18 -32 2 -30 -16 1 -18 -7 -15 -52 2 -33 -1 -51 -7 -48
-15 10 -25 -14 -25 -64 -1 -41 -3 -45 -26 -45 -20 0 -26 -7 -38 -47 -13 -48
-28 -58 -50 -36 -9 9 -13 7 -18 -8 -23 -72 -26 -75 -43 -59 -21 18 -41 3 -41
-31 0 -38 -11 -54 -39 -54 -19 0 -30 -8 -41 -33 -11 -23 -22 -32 -39 -32 -15
0 -28 -9 -34 -23 -6 -12 -19 -22 -31 -22 -13 0 -28 -12 -38 -30 -11 -19 -25
-30 -38 -30 -12 0 -28 -7 -36 -15 -9 -8 -24 -15 -33 -15 -10 0 -24 -7 -31 -15
-7 -9 -21 -13 -30 -10 -12 4 -25 -3 -38 -20 -11 -14 -25 -25 -31 -25 -6 0 -25
-9 -43 -20 -18 -11 -46 -20 -61 -20 -16 0 -37 -5 -48 -11 -11 -6 -35 -11 -52
-11 -18 0 -42 -7 -55 -15 -21 -13 -25 -13 -38 4 -13 17 -16 16 -48 -18 -18
-20 -35 -41 -37 -48 -3 -7 -29 -13 -68 -14 -52 -2 -66 1 -75 15 -6 10 -19 18
-28 18 -10 0 -18 7 -18 18 0 9 -7 30 -15 45 -8 17 -12 40 -8 57 4 23 2 30 -10
30 -8 0 -36 9 -61 20 -40 17 -46 23 -46 50 0 16 -3 30 -7 30 -52 2 -139 23
-163 40 -24 17 -29 28 -27 53 2 30 1 31 -47 39 -50 7 -90 29 -110 61 -8 12 -5
22 13 40 l22 25 -55 32 c-62 35 -76 53 -76 100 0 17 -9 40 -19 51 -30 33 -34
67 -13 108 19 36 19 37 0 75 -12 24 -18 52 -16 79 3 40 4 42 35 40 22 -2 33 2
35 12 3 13 8 13 41 -4 124 -63 231 -42 267 53 6 16 8 37 5 46 -6 19 37 60 123
115 35 23 42 33 38 50 -6 24 7 33 104 70 51 19 55 23 55 52 0 44 22 63 91 76
46 9 60 16 63 32 5 30 19 35 102 35 67 0 78 3 98 24 20 22 32 27 74 35 4 0 7
-3 7 -9z m118 -1530 c8 -59 45 -179 70 -225 36 -68 70 -82 200 -88 119 -4 131
-12 142 -81 8 -51 7 -52 -41 -32 -19 7 -64 17 -101 21 -58 6 -68 4 -68 -9 0
-9 17 -27 39 -41 31 -21 37 -30 33 -50 -5 -31 -13 -31 -49 -1 -15 13 -48 27
-73 31 -25 3 -71 20 -102 36 -48 24 -69 29 -133 29 -59 0 -77 3 -82 16 -9 23
7 33 62 40 95 10 95 11 95 52 0 38 -46 167 -87 247 l-21 40 29 21 c40 30 83
27 87 -6z m-138 -52 c41 -84 91 -221 88 -242 -3 -18 -12 -22 -60 -28 -74 -9
-118 -32 -131 -69 -18 -47 -42 -35 -86 44 -20 36 -71 213 -71 247 0 9 7 26 16
38 12 18 19 20 35 12 14 -8 27 -7 48 5 17 8 45 15 63 15 18 0 40 5 48 10 24
15 28 13 50 -32z m-290 -89 c0 -35 40 -170 65 -219 40 -79 70 -97 172 -105
154 -12 166 -14 175 -23 10 -10 19 -102 12 -114 -3 -4 -28 2 -55 13 -28 11
-78 22 -110 26 -54 5 -59 4 -59 -14 0 -12 15 -28 40 -42 35 -20 39 -26 34 -49
-4 -15 -8 -29 -10 -31 -2 -2 -23 10 -48 26 -25 17 -65 33 -88 37 -23 4 -69 21
-102 37 -53 27 -66 30 -117 24 -73 -9 -101 0 -97 28 3 24 32 34 105 36 67 2
88 50 62 146 -6 22 -17 54 -24 70 -74 164 -73 163 -58 169 8 3 23 2 32 -4 13
-6 24 -5 37 5 23 16 34 11 34 -16z m907 -285 c-9 -10 -38 16 -31 28 4 6 13 4
22 -6 9 -8 13 -19 9 -22z m-427 -84 c0 -5 -4 -10 -9 -10 -6 0 -13 5 -16 10 -3
6 1 10 9 10 9 0 16 -4 16 -10z m290 -20 c13 -24 -2 -27 -24 -4 -20 19 -20 24
-1 24 8 0 19 -9 25 -20z m-1009 -53 c-10 -9 -11 -8 -5 6 3 10 9 15 12 12 3 -3
0 -11 -7 -18z m733 1 c9 -12 13 -24 11 -27 -6 -5 -45 29 -45 41 0 15 19 8 34
-14z m-144 -119 c14 -26 11 -29 -17 -18 -25 9 -31 39 -8 39 8 0 19 -9 25 -21z"></path>
<path style="position: relative;" class="node" id="node2" d="M1761 2641 c-17 -11 -6 -31 16 -31 9 0 24 -7 34 -16 19 -17 49 -13
49 6 0 11 -58 50 -75 50 -5 0 -16 -4 -24 -9z"></path>
<path style="position: relative;" class="node" id="node3" d="M1645 2595 c-25 -24 -34 -65 -15 -65 14 0 80 66 80 80 0 19 -41 10
-65 -15z"></path>
<path style="position: relative;" class="node" id="node4" d="M1804 2505 c-14 -22 -15 -31 -4 -70 12 -44 52 -95 74 -95 59 0 39
146 -24 180 -26 14 -27 13 -46 -15z m47 -48 c-1 -12 -15 -9 -19 4 -3 6 1 10 8
8 6 -3 11 -8 11 -12z"></path>
<path style="position: relative;" class="node" id="node5" d="M1690 2482 c-48 -38 -30 -172 23 -172 14 0 29 6 35 13 18 22 24 84
12 121 -15 48 -41 61 -70 38z m26 -69 c-11 -11 -19 6 -11 24 8 17 8 17 12 0 3
-10 2 -21 -1 -24z"></path>
<path style="position: relative;" class="node" id="node6" d="M1801 2299 c-13 -5 -52 -39 -85 -74 l-61 -65 -73 0 c-68 0 -76 -2
-103 -29 -25 -26 -29 -37 -29 -85 0 -52 3 -60 40 -100 33 -35 60 -51 133 -79
51 -19 110 -41 132 -47 22 -7 47 -18 55 -24 29 -23 71 -36 117 -36 39 0 50 5
79 36 18 20 36 49 39 63 4 17 16 31 34 37 32 13 43 53 34 122 -4 33 -1 46 21
75 46 60 27 135 -40 163 -34 14 -58 11 -84 -12 -13 -11 -20 -9 -46 15 -55 51
-105 64 -163 40z m129 -64 c57 -47 85 -53 115 -25 23 22 25 22 50 6 20 -13 25
-25 25 -56 0 -48 -7 -51 -21 -10 -10 27 -43 49 -56 36 -3 -3 2 -22 12 -43 13
-27 19 -63 19 -123 l1 -85 -29 -3 c-16 -2 -66 8 -112 23 -47 14 -124 30 -172
36 -48 6 -107 19 -131 30 -40 17 -43 21 -38 48 9 42 -11 44 -50 5 -40 -41 -42
-54 -5 -54 15 0 38 -9 52 -20 14 -11 30 -20 37 -20 6 0 35 -21 65 -46 61 -53
179 -114 221 -114 40 0 67 17 82 53 8 18 14 25 15 16 0 -9 -10 -31 -23 -50
-21 -30 -28 -34 -68 -33 -29 0 -64 10 -96 26 -27 15 -75 34 -107 43 -31 9 -69
23 -84 31 -15 8 -32 14 -37 14 -24 0 -88 54 -101 85 -11 26 -11 40 -2 67 15
43 23 48 90 48 80 0 105 12 173 85 53 57 65 65 97 65 27 0 47 -9 78 -35z m-12
-316 c38 -17 42 -21 32 -39 -6 -12 -21 -20 -36 -20 -27 0 -158 62 -169 81 -11
17 121 0 173 -22z"></path>
<path style="position: relative;" class="node" id="node7" d="M1907 2223 c-13 -12 -7 -50 9 -64 13 -10 17 -10 25 2 11 18 11 26 -1
50 -11 20 -22 24 -33 12z"></path>
<path style="position: relative;" class="node" id="node8" d="M1800 2183 c1 -27 25 -53 49 -53 27 0 27 24 1 50 -25 25 -50 26 -50
3z"></path>
<path style="position: relative;" class="node" id="node9" d="M1244 1545 c-3 -8 3 -26 15 -41 51 -64 37 -129 -54 -254 -83 -115
-113 -169 -126 -230 -6 -28 -17 -54 -25 -57 -20 -8 -43 14 -52 51 -6 24 -15
32 -38 36 -26 5 -30 10 -35 50 -3 24 -11 46 -18 48 -29 10 -41 35 -41 88 0 30
-4 54 -9 54 -18 0 -21 37 -7 85 8 27 13 52 10 57 -10 16 -24 8 -40 -23 -32
-62 12 -289 56 -289 6 0 10 -13 10 -29 0 -31 34 -81 54 -81 7 0 24 -17 37 -37
19 -30 32 -39 57 -41 45 -4 69 19 78 73 6 45 63 145 149 262 47 65 50 72 53
141 4 65 1 77 -22 112 -28 42 -43 50 -52 25z"></path>
</g>
<g transform="translate(0.000000,300.000000) scale(0.100000,-0.100000)" fill="#FFFFFF" stroke="none">

<path style="position: relative;" class="node" id="node11" d="M1592 2893 c-10 -15 -23 -38 -27 -51 -11 -36 -39 -24 -43 18 -6 58
-19 55 -27 -5 l-7 -57 -36 6 c-21 3 -48 9 -62 12 -21 6 -23 4 -12 -7 20 -22
14 -44 -27 -95 -85 -107 -122 -216 -118 -346 2 -75 1 -78 -31 -111 -20 -21
-30 -40 -27 -49 4 -9 -10 -46 -30 -84 -34 -64 -37 -73 -30 -124 4 -30 8 -77
10 -104 5 -63 10 -76 34 -76 11 0 22 -9 26 -20 3 -11 24 -38 47 -60 36 -38 41
-40 53 -24 11 16 15 15 52 -14 21 -18 50 -32 63 -32 14 0 88 -2 165 -5 113 -3
158 0 230 15 50 11 99 24 110 29 47 23 99 41 117 41 11 0 33 14 49 31 19 21
34 29 47 25 19 -6 54 24 87 77 13 19 24 27 37 24 22 -6 31 9 49 82 9 38 19 56
33 59 16 4 18 12 12 68 -3 34 -11 76 -18 94 -8 25 -8 34 2 40 7 4 9 16 5 29
-7 24 -82 98 -107 107 -10 3 -18 14 -18 24 0 12 -10 21 -30 25 -40 9 -84 47
-101 87 -32 78 -123 186 -200 239 -32 21 -62 39 -67 39 -23 0 -31 26 -16 49
22 31 15 33 -35 10 -70 -31 -81 -26 -60 28 l10 28 -25 -24 c-14 -13 -28 -32
-32 -43 -7 -22 -32 -24 -41 -2 -3 8 0 27 6 41 16 36 7 40 -17 6z m236 -263
c17 -11 32 -24 32 -30 0 -19 -30 -23 -49 -6 -10 9 -25 16 -34 16 -22 0 -33 20
-16 31 20 13 30 11 67 -11z m-118 -20 c0 -14 -66 -80 -80 -80 -19 0 -10 41 15
65 24 25 65 34 65 15z m140 -90 c63 -34 83 -180 24 -180 -22 0 -62 51 -74 95
-11 39 -10 48 4 70 19 28 20 29 46 15z m-90 -76 c12 -37 6 -99 -12 -121 -6 -7
-21 -13 -35 -13 -53 0 -71 134 -23 172 29 23 55 10 70 -38z m153 -146 c12 -6
35 -24 51 -39 26 -24 33 -26 46 -15 26 23 50 26 84 12 67 -28 86 -103 40 -163
-22 -29 -25 -42 -21 -75 9 -69 -2 -109 -34 -122 -18 -6 -30 -20 -34 -37 -3
-14 -21 -43 -39 -63 -29 -31 -40 -36 -79 -36 -46 0 -88 13 -117 36 -8 6 -33
17 -55 24 -22 6 -81 28 -132 47 -73 28 -100 44 -133 79 -37 40 -40 48 -40 100
0 48 4 59 29 85 27 27 35 29 103 29 l73 0 61 65 c33 35 72 69 85 74 33 13 86
13 112 -1z"></path>
<path style="position: relative;" class="node" id="node12" d="M1832 2461 c2 -7 7 -12 11 -12 12 1 9 15 -3 20 -7 2 -11 -2 -8 -8z"></path>
<path style="position: relative;" class="node" id="node13" d="M1705 2437 c-4 -10 -5 -21 -1 -24 10 -10 18 4 13 24 -4 17 -4 17 -12
0z"></path>
<path style="position: relative;" class="node" id="node14" d="M1755 2205 c-68 -73 -93 -85 -173 -85 -67 0 -75 -5 -90 -48 -9 -27
-9 -41 2 -67 13 -31 77 -85 101 -85 5 0 22 -6 37 -14 15 -8 53 -22 84 -31 32
-9 80 -28 107 -43 32 -16 67 -26 96 -26 40 -1 47 3 68 33 13 19 23 41 23 50
-1 9 -7 2 -15 -16 -15 -36 -42 -53 -82 -53 -42 0 -160 61 -221 114 -30 25 -59
46 -65 46 -7 0 -23 9 -37 20 -14 11 -37 20 -52 20 -37 0 -35 13 5 54 39 39 59
37 50 -5 -5 -27 -2 -31 38 -48 24 -11 83 -24 131 -30 48 -6 125 -22 172 -36
46 -15 96 -25 112 -23 l29 3 -1 85 c0 60 -6 96 -19 123 -10 21 -15 40 -12 43
13 13 46 -9 56 -36 14 -41 21 -38 21 10 0 31 -5 43 -25 56 -25 16 -27 16 -50
-6 -30 -28 -58 -22 -115 25 -31 26 -51 35 -78 35 -32 0 -44 -8 -97 -65z m185
6 c12 -24 12 -32 1 -50 -13 -20 -41 3 -41 34 0 38 23 47 40 16z m-90 -31 c26
-26 26 -50 -1 -50 -24 0 -48 26 -49 53 0 23 25 22 50 -3z"></path>
<path style="position: relative;" class="node" id="node15" d="M1745 1941 c11 -19 142 -81 169 -81 15 0 30 8 36 20 10 18 6 22 -32
39 -52 22 -184 39 -173 22z"></path>
<path style="position: relative;" class="node" id="node16" d="M1154 2313 c-12 -2 -32 -15 -45 -29 -20 -21 -31 -24 -98 -24 -83 0
-97 -5 -102 -35 -3 -16 -17 -23 -63 -32 -69 -13 -91 -32 -91 -76 0 -29 -4 -33
-55 -52 -97 -37 -110 -46 -104 -70 4 -17 -3 -27 -38 -50 -86 -55 -129 -96
-123 -115 3 -9 1 -30 -5 -46 -36 -95 -143 -116 -267 -53 -33 17 -38 17 -41 4
-2 -10 -13 -14 -35 -12 -31 2 -32 0 -35 -40 -2 -27 4 -55 16 -79 19 -38 19
-39 0 -75 -21 -41 -17 -75 13 -108 10 -11 19 -34 19 -51 0 -47 14 -65 76 -100
l55 -32 -22 -25 c-18 -18 -21 -28 -13 -40 20 -32 60 -54 110 -61 48 -8 49 -9
47 -39 -2 -25 3 -36 27 -53 24 -17 111 -38 163 -40 4 0 7 -14 7 -30 0 -27 6
-33 46 -50 25 -11 53 -20 61 -20 12 0 14 -7 10 -30 -4 -17 0 -40 8 -57 8 -15
15 -36 15 -45 0 -11 8 -18 18 -18 9 0 22 -8 28 -18 9 -14 23 -17 75 -15 39 1
65 7 68 14 2 7 19 28 37 48 32 34 35 35 48 18 13 -17 17 -17 38 -4 13 8 37 15
55 15 17 0 41 5 52 11 11 6 32 11 48 11 15 0 43 9 61 20 18 11 37 20 43 20 6
0 20 11 31 25 13 17 26 24 38 20 9 -3 23 1 30 10 7 8 21 15 31 15 9 0 24 7 33
15 8 8 24 15 36 15 13 0 27 11 38 30 10 18 25 30 38 30 12 0 25 10 31 22 6 14
19 23 34 23 17 0 28 9 39 32 11 25 22 33 41 33 28 0 39 16 39 54 0 34 20 49
41 31 17 -16 20 -13 43 59 5 15 9 17 18 8 22 -22 37 -12 50 36 12 40 18 47 38
47 23 0 25 4 26 45 0 50 10 74 25 64 6 -3 9 15 7 48 -3 45 -1 53 15 52 16 -2
16 0 -2 30 -20 31 -18 49 7 57 10 3 10 8 -2 24 -13 18 -17 19 -48 6 -104 -42
-182 -54 -363 -57 -160 -2 -184 0 -218 17 -21 10 -53 19 -72 19 -19 0 -35 4
-35 9 0 5 -9 13 -20 16 -12 4 -32 24 -46 46 -13 22 -35 44 -48 49 -32 12 -35
19 -53 108 -22 109 -20 150 12 218 15 33 29 74 30 92 2 19 16 47 34 68 30 33
39 56 24 53 -5 -1 -18 -4 -29 -6z m142 -793 c23 -35 26 -47 22 -112 -3 -69 -6
-76 -53 -141 -86 -117 -143 -217 -149 -262 -9 -54 -33 -77 -78 -73 -25 2 -38
11 -57 41 -13 20 -30 37 -37 37 -20 0 -54 50 -54 81 0 16 -4 29 -10 29 -29 0
-54 78 -67 206 -6 68 29 141 51 106 3 -5 -2 -30 -10 -57 -14 -48 -11 -85 7
-85 5 0 9 -24 9 -54 0 -53 12 -78 41 -88 7 -2 15 -24 18 -48 5 -40 9 -45 35
-50 23 -4 32 -12 38 -36 9 -37 32 -59 52 -51 8 3 19 29 25 57 13 61 43 115
126 230 91 125 105 190 54 254 -20 26 -20 56 1 56 5 0 22 -18 36 -40z"></path>

<path style="position: relative;" class="node" id="node18" d="M1221 786 l-29 -21 21 -40 c41 -80 87 -209 87 -247 0 -41 0 -42 -95
-52 -55 -7 -71 -17 -62 -40 5 -13 23 -16 82 -16 64 0 85 -5 133 -29 31 -16 77
-33 102 -36 25 -4 58 -18 73 -31 36 -30 44 -30 49 1 4 20 -2 29 -33 50 -22 14
-39 32 -39 41 0 13 10 15 68 9 37 -4 82 -14 101 -21 48 -20 49 -19 41 32 -11
69 -23 77 -142 81 -130 6 -164 20 -200 88 -25 46 -62 166 -70 225 -4 33 -47
36 -87 6z"></path>

<path style="position: relative;" class="node" id="node20" d="M846 655 c-13 -10 -24 -11 -37 -5 -9 6 -24 7 -32 4 -15 -6 -16 -5 58
-169 7 -16 18 -48 24 -70 26 -96 5 -144 -62 -146 -73 -2 -102 -12 -105 -36 -4
-28 24 -37 97 -28 51 6 64 3 117 -24 33 -16 79 -33 102 -37 23 -4 63 -20 88
-37 25 -16 46 -28 48 -26 2 2 6 16 10 31 5 23 1 29 -34 49 -25 14 -40 30 -40
42 0 18 5 19 59 14 32 -4 82 -15 110 -26 27 -11 52 -17 55 -13 7 12 -2 104
-12 114 -9 9 -21 11 -175 23 -102 8 -132 26 -172 105 -25 49 -65 184 -65 219
0 27 -11 32 -34 16z"></path>
<path style="position: relative;" class="node" id="node21" d="M1756 382 c-7 -12 22 -38 31 -28 4 3 0 14 -9 22 -9 10 -18 12 -22 6z"></path>
<path style="position: relative;" class="node" id="node22" d="M1335 270 c3 -5 10 -10 16 -10 5 0 9 5 9 10 0 6 -7 10 -16 10 -8 0
-12 -4 -9 -10z"></path>
<path style="position: relative;" class="node" id="node23" d="M1610 266 c0 -9 32 -36 41 -36 6 0 5 8 -1 20 -9 17 -40 29 -40 16z"></path>
<path style="position: relative;" class="node" id="node24" d="M636 203 c-6 -14 -5 -15 5 -6 7 7 10 15 7 18 -3 3 -9 -2 -12 -12z"></path>
<path style="position: relative;" class="node" id="node25" d="M1340 212 c0 -12 39 -46 45 -41 6 7 -24 49 -36 49 -5 0 -9 -4 -9 -8z"></path>
<path style="position: relative;" class="node" id="node26" d="M1190 85 c0 -9 10 -19 23 -24 28 -11 31 -8 17 18 -13 24 -40 28 -40
6z"></path>
</g>
</svg>