<!--?xml version="1.0" standalone="no"?-->

<svg version="1.0" xmlns="http://www.w3.org/2000/svg" width="232.000000pt" height="300.000000pt" viewBox="0 0 232.000000 300.000000" preserveAspectRatio="xMidYMid meet">
<g transform="translate(0.000000,300.000000) scale(0.100000,-0.100000)" fill="#434041" stroke="none">
<path class="node" id="node1" d="M881 2583 c-30 -10 -68 -39 -112 -84 -38 -38 -72 -69 -78 -69 -25 0
-81 -69 -93 -114 -11 -41 -20 -53 -63 -82 -64 -43 -105 -107 -112 -178 -7 -70
0 -98 38 -141 37 -42 34 -56 -24 -116 -23 -24 -57 -75 -76 -112 -28 -55 -35
-82 -39 -146 -4 -77 -4 -79 22 -96 48 -32 191 -2 263 55 36 28 60 25 78 -10 8
-16 23 -33 32 -39 16 -9 16 -12 -5 -54 -24 -48 -27 -84 -13 -134 8 -27 5 -44
-17 -93 l-27 -60 -53 0 c-42 0 -58 -5 -77 -24 -29 -29 -40 -81 -27 -129 9 -33
8 -36 -11 -39 -71 -10 22 -155 102 -161 17 -1 31 -7 31 -14 0 -38 88 -40 139
-4 28 20 30 20 50 3 l22 -17 -21 -47 c-13 -30 -18 -57 -14 -72 9 -38 129 -144
198 -177 93 -44 218 -36 252 16 14 22 14 27 -2 60 -9 19 -42 58 -73 85 l-56
49 40 41 c46 47 59 50 50 11 -3 -17 0 -43 8 -62 18 -43 110 -134 161 -161 103
-53 246 -22 246 53 0 21 -16 45 -59 92 l-59 63 53 47 c36 31 58 60 64 83 6 21
36 63 74 104 47 49 70 83 83 121 24 74 23 154 -4 206 -12 23 -22 46 -22 52 0
5 20 21 44 35 50 29 136 119 170 179 31 55 50 145 37 180 -18 46 -80 47 -142
1 -19 -14 -47 -24 -66 -24 -19 0 -51 -9 -72 -19 -21 -11 -48 -17 -60 -14 -11
3 -21 7 -21 8 0 2 14 32 31 69 17 36 34 87 38 113 6 46 8 48 35 45 71 -8 175
39 202 90 16 29 -9 78 -63 129 -58 54 -111 81 -175 87 -64 5 -76 19 -58 66 34
92 -21 200 -107 209 -17 2 -49 17 -70 33 -32 24 -48 29 -100 30 -52 1 -68 6
-99 29 -59 45 -108 58 -234 61 -87 3 -126 0 -159 -13z m291 -19 c93 -31 144
-74 153 -130 11 -63 15 -63 11 0 l-5 58 54 -4 c75 -6 101 -31 126 -123 7 -27
8 -25 6 15 -1 44 -1 45 28 42 77 -9 126 -132 77 -192 -21 -26 -42 -20 -42 13
0 18 -4 16 -24 -14 -14 -20 -49 -51 -78 -70 -45 -29 -61 -34 -114 -34 -63 0
-102 18 -86 39 14 17 23 66 13 66 -5 0 -12 -12 -16 -27 -11 -45 -42 -78 -102
-110 -69 -37 -130 -48 -216 -39 -80 9 -91 15 -78 48 5 13 6 30 1 37 -5 8 -10
0 -14 -24 -11 -56 -85 -131 -149 -150 -28 -8 -66 -15 -84 -15 -29 0 -33 -3
-33 -25 0 -21 -8 -29 -42 -44 -41 -17 -43 -17 -50 -1 -4 10 -11 21 -17 25 -6
3 -21 25 -32 48 -39 76 -4 203 70 256 39 28 48 26 56 -9 12 -53 20 -40 17 25
-3 52 1 71 22 113 24 47 50 72 75 72 7 0 7 -10 0 -30 -11 -31 -7 -78 4 -50 3
8 11 33 17 56 29 115 158 203 300 204 54 0 96 -7 152 -26z m460 -402 c9 -15
23 -54 32 -87 36 -143 30 -260 -21 -365 -32 -67 -144 -182 -195 -200 -26 -10
-38 -21 -41 -39 -10 -48 -32 -66 -79 -66 -35 0 -54 8 -98 40 -30 22 -49 32
-41 22 12 -16 9 -17 -45 -17 -33 0 -88 7 -123 15 -134 32 -321 156 -308 205 8
32 -9 14 -32 -33 -30 -62 -76 -113 -129 -144 -40 -24 -58 -27 -127 -28 l-80 0
0 65 c0 54 6 77 36 140 20 41 50 90 65 107 32 36 139 103 165 103 12 0 15 6
12 24 -5 22 -1 23 57 29 71 6 130 40 161 91 l19 33 43 -15 c23 -8 76 -15 117
-15 85 -1 142 19 202 72 l37 32 33 -17 c70 -37 183 -7 253 66 23 24 31 27 50
18 12 -5 29 -22 37 -36z m159 -38 c40 -20 125 -106 134 -135 14 -43 -74 -98
-157 -99 -36 0 -48 4 -48 15 0 9 9 15 21 15 31 0 128 30 135 41 8 13 -23 47
-58 65 -15 8 -46 14 -70 14 -43 0 -43 0 -65 56 l-21 57 48 -6 c27 -3 63 -13
81 -23z m-11 -114 c20 -5 44 -16 55 -24 18 -13 17 -14 -14 -30 -18 -10 -48
-16 -69 -14 -35 3 -37 5 -40 41 -4 42 5 45 68 27z m189 -327 c0 -5 -21 -25
-45 -47 l-44 -39 0 41 c0 30 4 42 18 45 29 8 72 7 71 0z m-19 -152 c-16 -34
-32 -61 -35 -61 -2 0 -11 21 -19 48 l-14 47 47 48 46 48 3 -35 c2 -23 -7 -54
-28 -95z m-90 76 c0 -24 7 -67 16 -97 13 -45 14 -57 2 -78 -13 -25 -102 -102
-118 -102 -4 0 -13 14 -19 30 -5 17 -20 45 -32 61 -22 31 -94 89 -111 89 -18
0 -6 -17 26 -34 52 -28 97 -97 106 -164 4 -31 15 -75 25 -97 62 -142 -83 -371
-240 -377 -23 -1 -42 -10 -57 -26 -39 -42 -115 -72 -184 -72 l-61 0 5 53 c3
44 -1 63 -23 108 -28 55 -84 133 -91 126 -3 -2 17 -39 42 -82 64 -106 69 -152
22 -220 -19 -27 -49 -59 -66 -70 -34 -22 -42 -40 -14 -31 12 4 33 -10 71 -48
l53 -53 -39 -7 c-21 -4 -66 -21 -99 -37 l-61 -31 -41 21 c-54 28 -162 132
-162 156 0 11 9 34 19 52 16 25 25 30 43 26 17 -5 12 3 -21 31 -57 48 -78 76
-96 127 -20 55 -19 59 8 59 35 0 121 55 166 106 43 49 76 135 68 176 -4 22 -4
22 -6 -2 -2 -38 -63 -151 -93 -173 l-28 -21 -22 21 c-38 34 -64 43 -127 43
l-60 0 35 75 c33 73 34 78 24 134 -10 58 -9 74 13 118 10 21 15 22 81 18 74
-5 68 2 -20 24 -22 6 -51 22 -65 37 -23 24 -23 26 -6 39 15 11 13 13 -23 19
-22 3 -40 11 -40 16 0 9 21 47 37 69 2 3 20 -12 41 -32 91 -88 253 -155 402
-164 58 -4 95 -11 116 -24 46 -28 109 -25 139 6 14 13 25 31 25 39 0 9 18 25
40 36 21 11 68 47 103 80 62 57 64 59 90 45 25 -13 31 -12 64 8 31 18 76 30
131 36 8 1 12 -14 12 -42z m-1226 -534 c-4 -10 -8 -38 -8 -63 -1 -43 1 -46 43
-67 40 -20 46 -29 58 -73 7 -28 20 -61 28 -74 15 -22 14 -24 -11 -40 -14 -10
-41 -20 -60 -23 -29 -5 -35 -2 -44 21 -7 21 -16 26 -42 26 -38 1 -60 15 -94
61 -32 43 -31 61 1 53 l24 -6 -6 84 c-7 102 3 118 74 118 39 0 44 -2 37 -17z
m96 -23 c0 -16 -34 -90 -41 -90 -4 0 -17 8 -29 18 -16 13 -20 24 -15 44 4 15
14 29 23 31 32 9 62 7 62 -3z m87 -25 c23 -14 43 -28 43 -30 0 -3 -18 -16 -39
-31 -46 -30 -108 -31 -103 -2 5 34 32 88 44 88 6 0 31 -11 55 -25z m766 -254
c-11 -14 -51 -45 -89 -69 -45 -28 -59 -41 -41 -36 25 6 35 0 77 -41 51 -50 55
-65 16 -65 -13 0 -55 -16 -95 -36 l-71 -35 -39 30 c-81 64 -128 134 -116 171
4 14 21 20 68 25 77 9 151 39 172 71 11 18 25 24 53 25 20 0 46 4 57 8 28 11
32 -15 8 -48z m17 -251 c0 -10 -6 -23 -14 -29 -11 -9 -15 -7 -20 11 -10 38 -7
46 14 41 11 -3 20 -13 20 -23z m-60 1 c25 -47 -6 -66 -84 -53 -36 7 -37 8 -20
23 20 17 74 48 86 49 4 0 12 -9 18 -19z m-310 -45 c0 -29 -19 -44 -31 -25 -16
25 -10 49 11 49 15 0 20 -7 20 -24z m-57 -6 c9 -33 8 -35 -21 -43 -33 -9 -104
1 -96 14 8 13 76 48 95 49 9 0 19 -9 22 -20z"></path>
<path class="node" id="node2" d="M1598 2120 c-3 -26 -5 -27 -81 -14 -48 8 -82 -14 -108 -69 -35 -78
-18 -209 33 -264 28 -30 42 -29 84 5 65 51 100 137 84 207 -7 29 -5 37 11 46
28 14 23 30 -6 23 -29 -7 -31 -2 -9 31 11 17 13 29 6 41 -9 16 -10 15 -14 -6z
m-10 -167 c2 -46 -1 -74 -10 -86 -11 -15 -13 -6 -13 60 0 65 -4 83 -22 110
-33 45 -28 53 9 15 29 -28 33 -39 36 -99z m-60 67 c13 -27 22 -62 22 -90 -1
-75 -45 -150 -89 -150 -17 0 -13 27 4 34 28 10 55 69 55 119 0 52 -10 78 -44
115 l-21 24 25 -4 c18 -2 31 -16 48 -48z m-50 -12 c7 -7 12 -20 12 -30 0 -26
-36 -23 -43 4 -10 35 7 50 31 26z"></path>
<path class="node" id="node3" d="M951 1970 c-43 -10 -80 -38 -106 -78 -25 -40 -49 -48 -80 -28 -14 9
-25 13 -25 8 0 -17 37 -42 63 -42 17 0 27 -5 27 -15 0 -19 -37 -38 -62 -32
-16 5 -17 3 -7 -10 9 -10 24 -13 49 -9 34 5 36 4 53 -39 38 -92 127 -137 226
-115 95 21 114 58 90 172 -28 136 -121 213 -228 188z m97 -53 c39 -41 75 -135
69 -179 -9 -69 -83 -126 -137 -106 -24 9 -24 9 17 28 66 29 88 92 63 182 -6
21 -22 51 -36 68 -31 36 -10 43 24 7z m-51 -19 c30 -28 29 -48 -1 -48 -31 0
-60 38 -44 57 14 17 18 17 45 -9z m147 -97 c9 -30 16 -74 16 -98 0 -41 -3 -45
-35 -59 -48 -20 -52 -18 -25 11 32 34 40 132 16 189 -20 47 -20 57 -2 31 8
-11 21 -45 30 -74z"></path>
<path class="node" id="node4" d="M589 1721 c-59 -37 -106 -94 -130 -155 -27 -72 -16 -82 57 -47 68 32
108 74 124 129 12 44 13 102 2 102 -4 0 -28 -13 -53 -29z m24 -87 c-14 -38
-29 -56 -67 -81 -26 -18 -57 -33 -68 -33 -18 0 -16 5 13 61 38 71 132 153 137
120 2 -9 -5 -40 -15 -67z"></path>
<path class="node" id="node5" d="M1503 1712 c-35 -3 -43 -16 -18 -26 40 -15 2 -96 -45 -96 l-29 0 20
35 c28 47 20 65 -23 56 -79 -18 -102 -54 -47 -73 36 -13 36 -38 -2 -52 -40
-14 -79 1 -92 33 l-10 29 -31 -19 c-17 -10 -42 -19 -56 -19 -17 0 -21 -3 -13
-11 6 -6 19 -9 29 -7 13 2 28 -11 50 -42 35 -51 99 -88 124 -73 8 6 18 28 21
51 7 52 24 72 61 72 40 0 78 40 78 83 0 18 5 38 12 45 15 15 10 18 -29 14z
m-73 -51 c0 -5 -8 -19 -18 -31 -16 -20 -19 -20 -45 -7 l-28 15 23 16 c24 17
68 22 68 7z m-170 -97 c0 -16 39 -34 76 -34 13 0 24 -3 24 -7 0 -5 -23 -8 -51
-8 -45 0 -52 3 -65 28 -8 15 -12 32 -9 37 8 14 25 3 25 -16z m89 -73 c20 -13
6 -42 -16 -34 -24 8 -43 23 -43 34 0 12 41 11 59 0z"></path>


</g>
<g transform="translate(0.000000,300.000000) scale(0.100000,-0.100000)" fill="#FFFFFF" stroke="none">

<path class="node" id="node9" d="M874 2556 c-81 -38 -136 -99 -154 -170 -6 -23 -14 -48 -17 -56 -11
-28 -15 19 -4 50 7 20 7 30 0 30 -25 0 -51 -25 -75 -72 -21 -42 -25 -61 -22
-113 3 -65 -5 -78 -17 -25 -8 35 -17 37 -56 9 -74 -53 -109 -180 -70 -256 11
-23 26 -45 32 -48 6 -4 13 -15 17 -25 7 -16 9 -16 50 1 34 15 42 23 42 44 0
22 4 25 33 25 18 0 56 7 84 15 64 19 138 94 149 150 4 24 9 32 14 24 5 -7 4
-24 -1 -37 -13 -33 -2 -39 78 -48 86 -9 147 2 216 39 60 32 91 65 102 110 4
15 11 27 16 27 10 0 1 -49 -13 -66 -16 -21 23 -39 86 -39 53 0 69 5 114 34 29
19 64 50 78 70 20 30 24 32 24 14 0 -33 21 -39 42 -13 49 60 0 183 -77 192
-29 3 -29 2 -28 -42 2 -40 1 -42 -6 -15 -25 92 -51 117 -126 123 l-54 4 5 -58
c4 -63 0 -63 -11 0 -9 56 -60 99 -153 130 -114 38 -204 36 -298 -8z"></path>
<path class="node" id="node10" d="M1545 2180 c-70 -73 -183 -103 -253 -66 l-33 17 -37 -32 c-60 -53
-117 -73 -202 -72 -41 0 -94 7 -117 15 l-43 15 -19 -33 c-31 -51 -90 -85 -161
-91 -58 -6 -62 -7 -57 -29 3 -18 0 -24 -12 -24 -26 0 -133 -67 -165 -103 -15
-17 -45 -66 -65 -107 -30 -63 -36 -86 -36 -140 l0 -65 80 0 c69 1 87 4 127 28
53 31 99 82 129 144 23 47 40 65 32 33 -13 -49 174 -173 308 -205 35 -8 90
-15 123 -15 54 0 57 1 45 17 -8 10 11 0 41 -22 44 -32 63 -40 98 -40 47 0 69
18 79 66 3 18 15 29 41 39 51 18 163 133 195 200 51 105 57 222 21 365 -19 73
-40 110 -69 123 -19 9 -27 6 -50 -18z m61 -95 c-22 -33 -20 -38 9 -31 29 7 34
-9 6 -23 -16 -9 -18 -17 -11 -46 16 -70 -19 -156 -84 -207 -42 -34 -56 -35
-84 -5 -51 55 -68 186 -33 264 26 55 60 77 108 69 76 -13 78 -12 81 14 4 21 5
22 14 6 7 -12 5 -24 -6 -41z m-519 -142 c58 -43 103 -150 103 -244 0 -42 -37
-75 -101 -89 -99 -22 -188 23 -226 115 -17 43 -19 44 -53 39 -25 -4 -40 -1
-49 9 -10 13 -9 15 7 10 25 -6 62 13 62 32 0 10 -10 15 -27 15 -26 0 -63 25
-63 42 0 5 11 1 25 -8 31 -20 55 -12 80 28 54 85 165 109 242 51z m-437 -225
c0 -51 -18 -104 -47 -139 -35 -41 -144 -94 -155 -75 -11 19 25 105 63 150 30
35 112 96 131 96 4 0 8 -15 8 -32z m882 -20 c-7 -7 -12 -27 -12 -45 0 -43 -38
-83 -78 -83 -37 0 -54 -20 -61 -72 -3 -23 -13 -45 -21 -51 -25 -15 -89 22
-124 73 -22 31 -37 44 -50 42 -10 -2 -23 1 -29 7 -8 8 -4 11 13 11 14 0 39 9
56 19 l31 19 10 -29 c13 -32 52 -47 92 -33 38 14 38 39 2 52 -55 19 -32 55 47
73 43 9 51 -9 23 -56 l-20 -35 29 0 c47 0 85 81 45 96 -25 10 -17 23 18 26 39
4 44 1 29 -14z"></path>
<path class="node" id="node11" d="M1520 2076 c0 -4 10 -22 23 -39 18 -27 22 -45 22 -110 0 -66 2 -75
13 -60 9 12 12 40 10 86 -3 60 -7 71 -36 99 -18 18 -32 29 -32 24z"></path>
<path class="node" id="node12" d="M1476 2048 c34 -37 44 -63 44 -115 0 -50 -27 -109 -55 -119 -17 -7
-21 -34 -4 -34 44 0 88 75 89 150 0 62 -36 134 -70 138 l-25 4 21 -24z"></path>
<path class="node" id="node13" d="M1446 2012 c-3 -5 -2 -18 1 -30 7 -27 43 -30 43 -4 0 29 -32 54 -44
34z"></path>
<path class="node" id="node14" d="M1024 1910 c14 -17 30 -47 36 -68 25 -90 3 -153 -63 -182 -41 -19
-41 -19 -17 -28 54 -20 128 37 137 106 9 64 -63 202 -105 202 -9 0 -6 -10 12
-30z"></path>
<path class="node" id="node15" d="M952 1907 c-16 -19 13 -57 44 -57 30 0 31 20 1 48 -27 26 -31 26 -45
9z"></path>
<path class="node" id="node16" d="M1100 1888 c0 -3 7 -23 16 -44 24 -57 16 -155 -16 -189 -27 -29 -23
-31 25 -11 32 14 35 18 35 59 0 49 -25 141 -46 172 -8 11 -14 17 -14 13z"></path>
<path class="node" id="node17" d="M574 1681 c-61 -48 -129 -161 -96 -161 11 0 42 15 68 33 38 25 53 43
67 81 10 27 17 58 15 67 -3 16 -11 13 -54 -20z"></path>
<path class="node" id="node18" d="M1362 1654 l-23 -16 28 -15 c26 -13 29 -13 45 7 10 12 18 26 18 31 0
15 -44 10 -68 -7z"></path>
<path class="node" id="node19" d="M1235 1580 c-3 -5 1 -22 9 -37 13 -25 20 -28 65 -28 28 0 51 3 51 8
0 4 -11 7 -24 7 -37 0 -76 18 -76 34 0 19 -17 30 -25 16z"></path>
<path class="node" id="node20" d="M1290 1491 c0 -11 19 -26 43 -34 22 -8 36 21 16 34 -18 11 -59 12
-59 0z"></path>
<path class="node" id="node21" d="M1683 2096 c22 -56 22 -56 65 -56 24 0 55 -6 70 -14 35 -18 66 -52
58 -65 -7 -11 -104 -41 -135 -41 -12 0 -21 -6 -21 -15 0 -11 12 -15 48 -15 83
1 171 56 157 99 -9 29 -94 115 -134 135 -18 10 -54 20 -81 23 l-48 6 21 -57z"></path>
<path class="node" id="node22" d="M1712 1983 c3 -36 5 -38 40 -41 21 -2 51 4 69 14 31 16 32 17 14 30
-21 16 -80 34 -108 34 -15 0 -18 -7 -15 -37z"></path>
<path class="node" id="node23" d="M1898 1683 c-14 -3 -18 -15 -18 -45 l0 -41 44 39 c24 22 45 42 45 47
1 7 -42 8 -71 0z"></path>
<path class="node" id="node24" d="M1929 1613 l-47 -48 14 -47 c8 -27 17 -48 19 -48 3 0 19 27 35 61 21
41 30 72 28 95 l-3 35 -46 -48z"></path>
<path class="node" id="node25" d="M1794 1641 c-22 -4 -57 -17 -77 -28 -33 -20 -39 -21 -64 -8 -26 14
-28 12 -90 -45 -35 -33 -82 -69 -103 -80 -22 -11 -40 -27 -40 -36 0 -8 -11
-26 -25 -39 -30 -31 -93 -34 -139 -6 -21 13 -58 20 -116 24 -149 9 -311 76
-402 164 -21 20 -39 35 -41 32 -16 -22 -37 -60 -37 -69 0 -5 18 -13 40 -16 36
-6 38 -8 23 -19 -17 -13 -17 -15 6 -39 14 -15 43 -31 65 -37 88 -22 94 -29 20
-24 -66 4 -71 3 -81 -18 -22 -44 -23 -60 -13 -118 10 -56 9 -61 -24 -134 l-35
-75 60 0 c63 0 89 -9 127 -43 l22 -21 28 21 c30 22 91 135 93 173 2 24 2 24 6
2 8 -41 -25 -127 -68 -176 -45 -51 -131 -106 -166 -106 -27 0 -28 -4 -8 -59
18 -51 39 -79 96 -127 33 -28 38 -36 21 -31 -18 4 -27 -1 -43 -26 -10 -18 -19
-41 -19 -52 0 -24 108 -128 162 -156 l41 -21 61 31 c33 16 78 33 99 37 l39 7
-53 53 c-38 38 -59 52 -71 48 -28 -9 -20 9 14 31 17 11 47 43 66 70 47 68 42
114 -22 220 -25 43 -45 80 -42 82 7 7 63 -71 91 -126 22 -45 26 -64 23 -108
l-5 -53 61 0 c69 0 145 30 184 72 15 16 34 25 57 26 52 2 99 26 154 77 84 79
123 215 86 300 -10 22 -21 66 -25 97 -9 67 -54 136 -106 164 -32 17 -44 34
-26 34 17 0 89 -58 111 -89 12 -16 27 -44 32 -61 6 -16 15 -30 19 -30 16 0
105 77 118 102 12 21 11 33 -2 78 -9 30 -16 73 -16 97 0 28 -4 43 -12 42 -7
-1 -31 -5 -54 -8z"></path>
<path class="node" id="node26" d="M534 1073 c-14 -14 -16 -30 -11 -101 l6 -84 -24 6 c-32 8 -33 -10 -1
-53 34 -46 56 -60 94 -61 26 0 35 -5 42 -26 9 -23 15 -26 44 -21 19 3 46 13
60 23 25 16 26 18 11 40 -8 13 -21 46 -28 74 -12 44 -18 53 -58 73 -42 21 -44
24 -43 67 0 25 4 53 8 63 7 15 2 17 -37 17 -30 0 -52 -6 -63 -17z"></path>
<path class="node" id="node27" d="M668 1053 c-9 -2 -19 -16 -23 -31 -5 -20 -1 -31 15 -44 12 -10 25
-18 29 -18 7 0 41 74 41 90 0 10 -30 12 -62 3z"></path>
<path class="node" id="node28" d="M735 1015 c-25 -62 -24 -70 13 -73 24 -2 46 5 73 22 21 15 39 28 39
31 0 7 -86 55 -98 55 -7 0 -18 -16 -27 -35z"></path>
<path class="node" id="node29" d="M1575 819 c-11 -4 -37 -8 -57 -8 -28 -1 -42 -7 -53 -25 -21 -32 -95
-62 -172 -71 -47 -5 -64 -11 -68 -25 -12 -37 35 -107 116 -171 l39 -30 71 35
c40 20 82 36 95 36 39 0 35 15 -16 65 -42 41 -52 47 -77 41 -18 -5 -4 8 41 36
72 45 110 85 104 110 -2 11 -9 13 -23 7z"></path>
<path class="node" id="node30" d="M1560 537 c0 -7 3 -22 6 -35 5 -18 9 -20 20 -11 20 17 17 46 -6 52
-12 3 -20 0 -20 -6z"></path>
<path class="node" id="node31" d="M1485 523 c-16 -8 -38 -23 -49 -32 -17 -15 -16 -16 20 -23 78 -13
109 6 84 53 -13 23 -16 23 -55 2z"></path>
<path class="node" id="node32" d="M1190 483 c0 -26 16 -47 29 -39 6 4 11 18 11 32 0 17 -5 24 -20 24
-12 0 -20 -7 -20 -17z"></path>
<path class="node" id="node33" d="M1098 470 c-51 -28 -54 -37 -11 -44 39 -6 93 3 92 16 -5 52 -23 58
-81 28z"></path>


</g>
</svg>