<!--?xml version="1.0" standalone="no"?-->

<svg version="1.0" xmlns="http://www.w3.org/2000/svg" width="300.000000pt" height="241.000000pt" viewBox="0 0 300.000000 241.000000" preserveAspectRatio="xMidYMid meet">
<g transform="translate(0.000000,241.000000) scale(0.100000,-0.100000)" fill="#272727" stroke="none">
<path class="node" id="node1" d="M1485 2264 c-11 -3 -29 -9 -40 -14 -11 -4 -35 -14 -54 -21 -19 -7
-56 -28 -82 -46 l-48 -33 -63 15 c-391 90 -628 -81 -628 -455 0 -108 31 -266
69 -350 21 -48 20 -60 -9 -60 -10 0 -48 -9 -86 -21 -80 -25 -126 -64 -117
-100 10 -41 48 -83 97 -108 35 -17 46 -27 41 -39 -3 -9 -9 -35 -12 -58 -3 -28
-10 -41 -18 -38 -23 9 -39 -27 -37 -83 5 -110 48 -149 160 -145 40 1 88 8 105
16 18 8 46 17 63 21 l30 6 23 -78 c83 -283 162 -473 222 -532 35 -35 76 -40
107 -14 11 10 39 54 62 98 24 44 70 124 104 178 50 81 63 95 71 82 51 -85 150
-227 178 -257 28 -30 42 -38 71 -38 31 0 39 5 62 41 48 76 129 268 166 394 60
204 116 447 139 608 l12 87 56 0 c31 0 84 7 118 15 47 11 69 12 93 4 18 -7 58
-9 98 -5 83 8 93 8 167 1 50 -5 66 -3 93 14 26 17 32 27 32 57 0 24 8 46 26
67 23 27 25 37 20 78 -4 26 -2 50 2 53 5 3 12 20 16 37 6 32 -7 66 -33 85 -10
8 -14 25 -13 52 3 30 -2 46 -22 68 -22 26 -30 29 -85 28 -51 -1 -68 -6 -115
-38 -30 -20 -58 -41 -61 -46 -3 -6 -16 -10 -28 -10 -20 0 -22 4 -19 54 7 101
-51 165 -149 166 -69 0 -75 -37 -29 -171 l31 -89 -28 -47 c-23 -39 -27 -58
-27 -115 l1 -68 -54 -20 c-76 -28 -93 -27 -93 9 0 64 -47 262 -83 346 -82 195
-199 339 -315 392 -52 23 -147 37 -187 27z m202 -94 c131 -64 252 -258 297
-475 72 -348 29 -681 -111 -853 -55 -67 -30 -62 38 8 34 34 57 54 51 44 -5
-11 -15 -44 -22 -74 -44 -187 -191 -561 -230 -585 -6 -4 -22 -4 -35 -1 -37 9
-154 185 -189 282 -13 39 -13 43 13 90 15 27 35 63 46 79 l19 30 -33 -30 c-83
-75 -239 -310 -317 -478 -22 -46 -55 -58 -86 -31 -28 26 -91 155 -144 295 -24
65 -44 122 -44 126 0 4 -12 45 -26 90 l-26 82 28 25 c46 39 39 81 -32 210 -44
81 -68 113 -92 126 -41 22 -32 30 37 30 l56 1 -25 20 c-22 19 -31 20 -95 12
-38 -4 -91 -8 -117 -7 -27 1 -48 -3 -48 -7 0 -12 55 -39 80 -39 34 0 97 -37
124 -73 14 -19 26 -37 26 -42 0 -4 16 -33 35 -65 37 -62 43 -100 20 -140 l-14
-25 -1 32 c0 42 -16 51 -23 13 -5 -21 -21 -39 -61 -66 -64 -42 -98 -42 -37 0
43 30 62 69 42 89 -8 8 -11 7 -11 -5 0 -23 -129 -128 -156 -128 -34 0 -91 59
-99 103 -4 21 -5 41 -1 44 12 13 57 -18 70 -47 12 -30 12 -30 31 -10 10 11 24
20 32 20 7 0 -2 14 -21 31 -51 44 -57 99 -20 185 2 6 -15 19 -38 30 -61 27
-108 71 -108 100 0 30 47 53 173 85 96 24 122 37 161 78 36 37 25 39 -45 6
-40 -18 -55 -21 -61 -12 -19 29 -58 171 -74 270 -16 101 -16 111 0 194 9 49
28 111 40 139 101 220 355 265 666 116 47 -22 86 -39 89 -37 6 6 -42 61 -71
81 -16 11 -26 24 -25 29 5 15 54 37 127 57 85 23 157 17 237 -22z m654 -220
c31 -17 49 -64 49 -132 0 -56 3 -64 22 -73 31 -14 68 -72 68 -107 0 -32 -21
-78 -44 -98 -14 -11 -13 -15 9 -36 14 -13 25 -31 25 -41 0 -12 3 -14 11 -6 8
8 7 18 -3 38 -13 24 -12 31 9 73 30 58 29 100 -1 145 l-25 36 36 32 c47 41 92
59 147 59 59 0 80 -20 71 -69 -4 -20 -13 -46 -21 -59 -21 -32 -74 -63 -104
-60 -22 3 -25 7 -24 41 1 25 9 46 24 62 34 37 17 41 -22 7 l-33 -30 -1 -101
c0 -56 -4 -104 -7 -108 -4 -3 -7 -19 -7 -34 0 -15 -4 -31 -10 -34 -5 -3 -10
-22 -10 -41 0 -28 -5 -36 -26 -44 -43 -17 -99 -11 -148 15 -56 30 -54 29 -52
9 1 -22 -54 -41 -135 -45 l-64 -4 -3 47 -3 46 51 11 c27 6 67 18 87 26 32 14
38 14 53 0 19 -17 40 -20 40 -6 0 6 -5 13 -11 17 -6 3 -20 26 -31 51 -23 51
-18 87 18 150 13 23 24 48 24 55 0 8 -14 56 -30 107 -17 51 -28 97 -25 102 8
12 72 11 96 -1z m413 -266 c18 -47 -15 -108 -75 -139 -34 -18 -91 -19 -107 -3
-30 30 -4 67 60 87 21 7 50 26 65 42 31 33 48 37 57 13z m1 -163 c-9 -29 -67
-71 -107 -77 -35 -6 -108 17 -108 34 0 18 30 34 53 28 29 -7 94 10 127 34 28
21 45 12 35 -19z m-97 -104 c46 2 53 0 50 -15 -5 -28 -68 -56 -110 -48 -48 9
-83 37 -75 60 6 14 13 16 44 9 21 -4 62 -7 91 -6z"></path>
<path class="node" id="node2" d="M1554 2095 c-10 -25 2 -39 42 -54 48 -17 176 -101 228 -150 l39 -36
-24 44 c-70 129 -261 260 -285 196z"></path>
<path class="node" id="node3" d="M1169 2055 c-78 -41 -146 -135 -180 -247 -11 -39 4 -35 23 5 23 48
111 141 179 189 63 44 66 47 47 66 -15 15 -15 15 -69 -13z"></path>
<path class="node" id="node4" d="M1584 1954 c-81 -40 -84 -167 -7 -305 2 -3 -14 -14 -34 -24 -29 -14
-34 -20 -20 -23 10 -2 23 1 30 6 35 28 219 42 274 21 85 -32 108 -111 54 -186
-35 -49 -99 -81 -183 -94 -64 -9 -164 -3 -205 12 -28 10 -30 44 -7 78 16 22
16 23 -5 11 -44 -23 -53 -99 -14 -115 45 -18 128 -35 169 -35 26 0 43 -4 39
-9 -3 -6 -13 -10 -23 -11 -9 0 -56 -3 -103 -6 -69 -5 -99 -2 -156 15 -102 30
-251 115 -333 189 -14 12 -28 22 -32 22 -15 0 -8 29 9 39 24 13 10 25 -21 17
-35 -9 -56 -54 -61 -134 -5 -70 -4 -69 27 16 18 48 38 69 38 39 0 -23 90 -199
134 -263 l43 -61 -67 37 c-81 45 -100 52 -100 40 0 -6 4 -10 8 -10 5 0 17 -8
28 -18 10 -9 54 -46 97 -81 42 -35 77 -65 77 -67 0 -1 -21 -48 -46 -104 -25
-56 -44 -103 -41 -106 3 -3 106 122 137 167 3 5 54 -17 113 -47 82 -41 106
-50 98 -35 -6 10 -16 22 -23 25 -7 3 3 2 22 -2 54 -11 170 -8 219 7 85 25 122
93 90 164 -9 21 -8 30 10 53 21 30 40 99 41 147 0 20 15 46 45 80 76 87 84
170 20 226 -20 17 -48 33 -63 37 -15 3 -32 7 -38 9 -6 2 -14 31 -17 64 -4 34
-14 78 -22 98 -22 52 -82 111 -125 123 -43 12 -39 13 -76 -6z m115 -48 c15
-18 -2 -56 -24 -56 -21 0 -35 31 -24 52 12 22 32 23 48 4z m70 -102 c12 -30
21 -70 21 -88 l0 -33 -72 -6 c-40 -3 -83 -9 -95 -12 -17 -6 -25 -1 -37 23 -11
22 -12 32 -3 41 17 17 37 13 37 -9 0 -14 7 -20 23 -20 48 1 87 56 87 123 0 60
12 54 39 -19z m-554 -479 c32 -19 81 -42 109 -51 28 -9 53 -18 54 -20 6 -5
-93 -123 -103 -123 -24 -2 -117 113 -148 182 l-17 37 58 -45 c75 -59 88 -57
27 5 -27 28 -47 50 -43 50 3 0 31 -16 63 -35z m602 -60 c-7 -64 -44 -101 -119
-119 -28 -6 -28 -6 -28 43 0 54 7 62 65 79 22 6 49 18 60 26 28 21 28 21 22
-29z m-168 -31 c2 -2 -1 -25 -5 -51 -9 -47 -10 -48 -49 -51 -21 -2 -54 -1 -72
3 -29 5 -33 10 -33 38 l-1 32 -17 -27 c-11 -19 -25 -28 -42 -28 l-24 0 22 -16
c12 -8 22 -26 22 -40 0 -30 16 -32 25 -3 6 19 12 21 59 15 28 -3 62 -6 75 -6
20 0 22 -4 17 -27 l-6 -28 17 28 c19 28 24 31 86 42 35 6 37 5 37 -22 0 -37
-25 -72 -64 -88 -17 -7 -74 -14 -128 -14 -86 -1 -99 1 -110 18 -6 10 -17 17
-24 14 -16 -6 -104 54 -104 70 0 7 4 17 9 23 5 5 16 34 26 64 10 30 19 58 21
61 3 6 256 -1 263 -7z m-422 -116 l52 -28 26 33 c18 21 25 25 20 12 -21 -62
-18 -71 27 -104 32 -25 37 -31 18 -26 -14 4 -35 13 -47 21 -32 20 -37 18 -66
-23 -30 -43 -35 -34 -11 23 14 32 14 39 2 48 -34 25 -92 78 -83 75 6 -2 33
-16 62 -31z"></path>
<path class="node" id="node5" d="M1147 1900 c-44 -38 -62 -99 -54 -183 3 -34 9 -70 12 -80 6 -14 2
-17 -21 -17 -15 0 -24 -3 -21 -7 10 -10 397 -11 403 -1 3 4 -2 15 -10 24 -9 8
-16 28 -16 43 0 15 -6 48 -14 73 -44 149 -190 226 -279 148z m205 -69 c26 -28
43 -60 58 -110 12 -38 19 -75 15 -81 -10 -16 -285 -14 -289 3 -3 6 -7 32 -10
57 l-6 45 20 -37 c21 -39 35 -47 42 -26 2 6 12 9 21 5 10 -4 14 -12 11 -22 -5
-11 1 -15 23 -15 61 0 104 81 89 166 -7 36 -8 36 -22 15 -8 -11 -24 -21 -34
-21 -24 0 -36 36 -19 56 19 23 59 9 101 -35z"></path>
<path class="node" id="node6" d="M1731 911 c-17 -11 -47 -16 -98 -16 -62 0 -70 -2 -58 -14 8 -8 38
-16 67 -19 47 -3 57 -1 91 26 40 32 38 51 -2 23z"></path>
</g>
<g transform="translate(0.000000,241.000000) scale(0.100000,-0.100000)" fill="#FFFFFF" stroke="none">

<path class="node" id="node8" d="M1450 2192 c-73 -20 -122 -42 -127 -57 -1 -5 9 -18 25 -29 29 -20 77
-75 71 -81 -3 -2 -42 15 -89 37 -158 75 -301 102 -422 79 -155 -30 -246 -136
-284 -334 -16 -83 -16 -93 0 -194 16 -99 55 -241 74 -270 6 -9 21 -6 61 12 70
33 81 31 45 -6 -39 -41 -65 -54 -161 -78 -126 -32 -173 -55 -173 -85 0 -29 47
-73 108 -100 23 -11 40 -24 38 -30 -37 -86 -31 -141 20 -185 19 -17 28 -31 21
-31 -8 0 -22 -9 -32 -20 -19 -20 -19 -20 -31 10 -13 29 -58 60 -70 47 -4 -3
-3 -23 1 -44 8 -44 65 -103 99 -103 27 0 156 105 156 128 0 12 3 13 11 5 20
-20 1 -59 -42 -89 -61 -42 -27 -42 37 0 40 27 56 45 61 66 7 38 23 29 23 -13
l1 -32 14 25 c23 40 17 78 -20 140 -19 32 -35 61 -35 65 0 5 -12 23 -26 42
-27 36 -90 73 -124 73 -25 0 -80 27 -80 39 0 4 21 8 48 7 26 -1 79 3 117 7 64
8 73 7 95 -12 l25 -20 -56 -1 c-69 0 -78 -8 -37 -30 24 -13 48 -45 92 -126 71
-129 78 -171 32 -210 l-28 -25 26 -82 c14 -45 26 -86 26 -90 0 -4 20 -61 44
-126 53 -140 116 -269 144 -295 31 -27 64 -15 86 31 78 168 234 403 317 478
l33 30 -19 -30 c-11 -16 -31 -52 -46 -79 -26 -47 -26 -51 -13 -90 35 -97 152
-273 189 -282 13 -3 29 -3 35 1 39 24 186 398 230 585 7 30 17 63 22 74 6 10
-17 -10 -51 -44 -68 -70 -93 -75 -38 -8 85 105 132 255 143 463 10 171 -20
389 -73 530 -105 281 -288 413 -493 357z m208 -108 c57 -28 145 -118 181 -185
l24 -44 -39 36 c-52 49 -180 133 -228 150 -40 15 -52 29 -42 54 8 22 45 18
104 -11z m-420 -16 c19 -19 16 -22 -47 -66 -68 -48 -156 -141 -179 -189 -19
-40 -34 -44 -23 -5 34 112 102 206 180 247 54 28 54 28 69 13z m422 -108 c43
-12 103 -71 125 -123 8 -20 18 -64 22 -98 3 -33 11 -62 17 -64 6 -2 23 -6 38
-9 15 -4 43 -20 63 -37 64 -56 56 -139 -20 -226 -30 -34 -45 -60 -45 -80 -1
-48 -20 -117 -41 -147 -18 -23 -19 -32 -10 -53 32 -71 -5 -139 -90 -164 -49
-15 -165 -18 -219 -7 -19 4 -29 5 -22 2 7 -3 17 -15 23 -25 8 -15 -16 -6 -98
35 -59 30 -110 52 -113 47 -31 -45 -134 -170 -137 -167 -3 3 16 50 41 106 25
56 46 103 46 104 0 2 -35 32 -77 67 -43 35 -87 72 -97 81 -11 10 -23 18 -28
18 -4 0 -8 4 -8 10 0 12 19 5 100 -40 l67 -37 -43 61 c-44 64 -134 240 -134
263 0 30 -20 9 -38 -39 -31 -85 -32 -86 -27 -16 5 80 26 125 61 134 31 8 45
-4 21 -17 -17 -10 -24 -39 -9 -39 4 0 18 -10 32 -22 82 -74 231 -159 333 -189
57 -17 87 -20 156 -15 47 3 94 6 103 6 10 1 20 5 23 11 4 5 -13 9 -39 9 -41 0
-124 17 -169 35 -39 16 -30 92 14 115 21 12 21 11 5 -11 -23 -34 -21 -68 7
-78 41 -15 141 -21 205 -12 84 13 148 45 183 94 54 75 31 154 -54 186 -55 21
-239 7 -274 -21 -7 -5 -20 -8 -30 -6 -14 3 -9 9 20 23 20 10 36 21 34 24 -77
138 -74 265 7 305 37 19 33 18 76 6z m-341 -58 c68 -46 121 -144 121 -223 0
-15 7 -35 16 -43 8 -9 13 -20 10 -24 -6 -10 -393 -9 -403 1 -3 4 6 7 21 7 23
0 27 3 21 17 -14 39 -17 144 -5 188 28 101 130 137 219 77z m414 -1014 c-34
-27 -44 -29 -91 -26 -29 3 -59 11 -67 19 -12 12 -4 14 58 14 51 0 81 5 98 16
40 28 42 9 2 -23z"></path>
<path class="node" id="node9" d="M1651 1902 c-11 -21 3 -52 24 -52 22 0 39 38 24 56 -16 19 -36 18
-48 -4z"></path>
<path class="node" id="node10" d="M1730 1823 c0 -67 -39 -122 -87 -123 -16 0 -23 6 -23 20 0 22 -20 26
-37 9 -9 -9 -8 -19 3 -41 12 -24 20 -29 37 -23 12 3 55 9 95 12 l72 6 0 33 c0
36 -35 140 -51 149 -5 4 -9 -15 -9 -42z"></path>
<path class="node" id="node11" d="M1195 1310 c61 -62 48 -64 -27 -5 l-58 45 17 -37 c31 -69 124 -184
148 -182 10 0 109 118 103 123 -1 2 -26 11 -54 20 -28 9 -77 32 -109 51 -32
19 -60 35 -63 35 -4 0 16 -22 43 -50z"></path>
<path class="node" id="node12" d="M1795 1294 c-11 -8 -38 -20 -60 -26 -58 -17 -65 -25 -65 -79 0 -49 0
-49 28 -43 75 18 112 55 119 119 6 50 6 50 -22 29z"></path>
<path class="node" id="node13" d="M1386 1241 c-2 -3 -11 -31 -21 -61 -10 -30 -21 -59 -26 -64 -5 -6 -9
-16 -9 -23 0 -16 88 -76 104 -70 7 3 18 -4 24 -14 11 -17 24 -19 110 -18 54 0
111 7 128 14 39 16 64 51 64 88 0 27 -2 28 -37 22 -62 -11 -67 -14 -86 -42
l-17 -28 6 28 c5 23 3 27 -17 27 -13 0 -47 3 -75 6 -47 6 -53 4 -59 -15 -9
-29 -25 -27 -25 3 0 14 -10 32 -22 40 l-22 16 24 0 c17 0 31 9 42 28 l17 27 1
-32 c0 -28 4 -33 33 -38 18 -4 51 -5 72 -3 39 3 40 4 49 51 4 26 7 49 5 51 -7
6 -260 13 -263 7z"></path>
<path class="node" id="node14" d="M1194 1119 c22 -19 46 -39 54 -45 12 -9 12 -16 -2 -48 -24 -57 -19
-66 11 -23 29 41 34 43 66 23 12 -8 33 -17 47 -21 19 -5 14 1 -18 26 -45 33
-48 42 -27 104 5 13 -2 9 -20 -12 l-26 -33 -52 28 c-74 38 -77 38 -33 1z"></path>
<path class="node" id="node15" d="M1251 1866 c-17 -20 -5 -56 19 -56 10 0 26 10 34 21 14 21 15 21 22
-15 15 -85 -28 -166 -89 -166 -22 0 -28 4 -23 15 3 10 -1 18 -11 22 -9 4 -19
1 -21 -5 -7 -21 -21 -13 -42 26 l-20 37 6 -45 c3 -25 7 -51 10 -57 4 -17 279
-19 289 -3 4 6 -3 43 -15 81 -32 108 -122 189 -159 145z"></path>
<path class="node" id="node16" d="M2245 1951 c-3 -5 8 -51 25 -102 16 -51 30 -99 30 -107 0 -7 -11 -32
-24 -55 -36 -63 -41 -99 -18 -150 11 -25 25 -48 31 -51 6 -4 11 -11 11 -17 0
-14 -21 -11 -40 6 -15 14 -21 14 -53 0 -20 -8 -60 -20 -87 -26 l-51 -11 3 -46
3 -47 64 4 c81 4 136 23 135 45 -2 20 -4 21 52 -9 49 -26 105 -32 148 -15 21
8 26 16 26 44 0 19 5 38 10 41 6 3 10 19 10 34 0 15 3 31 7 34 3 4 7 52 7 108
l1 101 33 30 c39 34 56 30 22 -7 -15 -16 -23 -37 -24 -62 -1 -34 2 -38 24 -41
30 -3 83 28 104 60 8 13 17 39 21 59 9 49 -12 69 -71 69 -55 0 -100 -18 -147
-59 l-36 -32 25 -36 c30 -45 31 -87 1 -145 -21 -42 -22 -49 -9 -73 10 -20 11
-30 3 -38 -8 -8 -11 -6 -11 6 0 10 -11 28 -25 41 -22 21 -23 25 -9 36 23 20
44 66 44 98 0 35 -37 93 -68 107 -19 9 -22 17 -22 73 0 68 -18 115 -49 132
-24 12 -88 13 -96 1z"></path>
<path class="node" id="node17" d="M2697 1671 c-15 -16 -44 -35 -65 -42 -45 -14 -72 -36 -72 -59 0 -25
21 -40 57 -40 86 0 163 87 137 154 -9 24 -26 20 -57 -13z"></path>
<path class="node" id="node18" d="M2720 1540 c-33 -24 -98 -41 -127 -34 -23 6 -53 -10 -53 -28 0 -17
73 -40 108 -34 61 9 131 81 105 106 -4 5 -19 0 -33 -10z"></path>
<path class="node" id="node19" d="M2523 1414 c-8 -23 27 -51 75 -60 42 -8 105 20 110 48 3 15 -4 17
-50 15 -29 -1 -70 2 -91 6 -31 7 -38 5 -44 -9z"></path>
</g>
</svg>