<!--?xml version="1.0" standalone="no"?-->

<svg version="1.0" xmlns="http://www.w3.org/2000/svg" width="300.000000pt" height="300.000000pt" viewBox="0 0 300.000000 300.000000" preserveAspectRatio="xMidYMid meet">
<g transform="translate(0.000000,300.000000) scale(0.100000,-0.100000)" fill="#121212" stroke="none">
<path class="node" id="node1" d="M1724 2977 c-37 -32 -36 -83 1 -113 l26 -21 -17 -66 -16 -67 -37 32
c-30 26 -36 39 -37 71 0 46 -22 67 -70 67 -40 0 -64 -22 -64 -58 0 -35 10 -49
42 -61 20 -7 31 -24 46 -68 10 -32 32 -94 48 -137 21 -59 26 -80 16 -84 -18
-6 -45 -61 -51 -106 -6 -35 -11 -41 -67 -70 -33 -17 -77 -43 -97 -58 -19 -16
-38 -28 -41 -28 -4 0 -23 26 -42 58 -20 31 -56 87 -80 124 -24 37 -44 71 -44
74 0 4 -7 15 -16 25 -15 17 -15 20 5 45 32 41 29 97 -8 123 -43 31 -84 27
-115 -10 -14 -17 -26 -40 -26 -51 0 -35 38 -77 75 -84 38 -7 37 -6 174 -224
l59 -95 -46 -50 c-26 -27 -50 -52 -55 -53 -4 -2 -27 14 -50 35 -95 87 -213 97
-350 28 -90 -45 -147 -101 -184 -181 -22 -49 -24 -65 -20 -137 2 -45 8 -92 12
-104 7 -22 5 -23 -55 -23 -127 0 -221 -41 -318 -140 -91 -93 -124 -210 -88
-318 25 -75 108 -161 199 -206 107 -53 200 -68 387 -64 l154 3 11 -90 c17
-135 46 -208 131 -335 145 -217 389 -363 769 -459 131 -33 483 -97 491 -89 1
2 -38 55 -87 118 -113 145 -137 185 -145 244 -6 43 -2 56 51 161 l57 115 5
120 6 120 80 40 c158 79 298 218 368 366 55 115 62 160 56 353 -5 174 -9 194
-71 311 -55 104 -196 246 -301 305 -36 20 -65 40 -65 43 0 6 21 34 159 215 39
52 46 57 80 55 48 -2 75 14 91 53 11 27 11 36 -1 58 -31 56 -95 65 -140 20
-21 -21 -23 -60 -5 -100 5 -12 -22 -54 -95 -145 -56 -71 -105 -133 -110 -138
-4 -4 -21 -5 -38 -1 -25 5 -31 12 -37 43 -8 45 -41 112 -54 112 -18 0 -10 44
29 160 35 103 43 117 75 138 77 48 25 133 -66 109 -29 -8 -44 -41 -35 -76 5
-22 -67 -100 -80 -87 -5 4 -13 35 -19 68 -11 58 -10 62 12 81 52 45 15 127
-57 127 -64 0 -104 -76 -63 -121 14 -16 14 -21 -9 -61 -37 -67 -51 -88 -58
-88 -3 0 -23 27 -44 61 -32 53 -36 64 -26 85 20 45 14 81 -18 103 -38 27 -64
26 -97 -2z m340 -32 c26 -26 -3 -62 -39 -49 -18 7 -20 50 -2 57 20 9 25 8 41
-8z m-264 -20 c0 -31 -26 -43 -47 -22 -13 13 -14 19 -3 31 21 26 50 20 50 -9z
m471 -81 c11 -14 10 -18 -5 -29 -22 -17 -46 -9 -46 14 0 34 28 42 51 15z
m-671 -24 c0 -15 -7 -20 -25 -20 -18 0 -25 5 -25 20 0 15 7 20 25 20 18 0 25
-5 25 -20z m221 -47 c13 -21 38 -62 57 -92 l34 -53 20 28 c10 16 23 38 28 49
19 41 56 99 66 102 5 2 19 -39 30 -89 l21 -93 42 43 c48 47 61 52 61 22 0 -11
-4 -20 -10 -20 -5 0 -10 -7 -10 -15 0 -8 -12 -43 -26 -78 l-26 -63 -156 1
c-87 0 -172 -2 -190 -5 l-33 -5 -41 93 c-23 51 -38 95 -35 98 3 3 21 -8 39
-25 25 -23 34 -27 36 -16 4 18 22 20 22 3 0 -29 10 4 20 66 10 65 16 86 25 86
2 0 14 -17 26 -37z m294 -338 c27 -13 40 -27 40 -40 0 -19 -8 -20 -237 -23
-252 -3 -265 0 -219 42 36 33 109 45 246 43 107 -2 137 -6 170 -22z m-39 -166
c194 -35 359 -134 470 -283 147 -195 166 -460 49 -673 -138 -252 -428 -398
-719 -363 -127 15 -171 26 -246 62 -86 41 -134 74 -201 141 -152 151 -214 328
-190 540 32 284 262 515 576 577 60 12 193 11 261 -1z m-966 -159 c32 -9 120
-82 120 -101 0 -4 -14 -36 -32 -70 -45 -92 -78 -227 -78 -327 0 -65 -5 -91
-22 -127 -13 -24 -26 -45 -30 -45 -4 0 -30 25 -59 55 -29 30 -81 73 -116 96
-55 35 -68 49 -90 97 -38 83 -44 205 -13 264 26 51 79 102 135 130 74 39 122
46 185 28z m-363 -508 c92 -29 165 -83 251 -186 36 -44 40 -75 18 -133 -8 -21
-20 -72 -26 -113 -6 -41 -14 -78 -18 -81 -4 -4 -37 -12 -73 -18 -206 -35 -445
27 -541 141 -35 41 -41 54 -45 110 -6 74 8 116 57 172 97 110 239 151 377 108z
m458 -323 c15 -33 41 -77 57 -96 15 -20 28 -39 28 -43 0 -4 -25 -11 -56 -15
-30 -3 -71 -13 -89 -21 -21 -8 -36 -10 -40 -4 -13 21 45 240 64 240 4 0 20
-27 36 -61z m374 -356 c42 -19 110 -44 151 -55 91 -24 265 -34 340 -20 30 6
57 8 59 6 10 -9 12 -102 3 -108 -6 -3 -32 3 -59 15 -187 82 -425 86 -620 11
-62 -24 -220 -108 -228 -122 -3 -6 -10 -10 -14 -10 -12 0 -78 139 -86 180 -6
34 -5 36 42 59 112 56 260 95 312 85 14 -3 59 -21 100 -41z m358 -267 c21 -8
50 -17 66 -20 15 -4 40 -14 56 -24 l30 -18 -19 -39 c-33 -73 -37 -75 -113 -66
-125 16 -229 -23 -314 -117 l-42 -47 -65 33 c-36 19 -91 52 -121 74 l-57 40
31 32 c48 49 168 117 251 142 91 27 239 32 297 10z m86 -329 c22 -70 21 -78
-12 -104 l-28 -22 -92 23 c-50 13 -95 26 -98 29 -10 11 25 54 63 78 33 20 108
46 140 48 6 1 18 -23 27 -52z"></path>
<path class="node" id="node2" d="M1656 2090 c-63 -19 -129 -83 -152 -148 -77 -215 151 -411 358 -309
32 16 71 45 88 65 l30 36 27 -26 c55 -51 94 -68 161 -68 46 0 75 6 110 24 55
28 72 45 101 103 28 56 27 112 -4 172 -47 94 -136 138 -241 121 -57 -10 -81
-21 -121 -59 -29 -28 -33 -27 -65 13 -43 53 -119 86 -197 85 -37 0 -79 -5 -95
-9z m189 -29 c171 -78 182 -302 19 -397 -35 -21 -57 -26 -112 -26 -144 -1
-232 84 -232 224 0 54 5 72 30 111 26 41 76 83 120 100 34 13 136 6 175 -12z
m422 -38 c44 -21 89 -82 98 -132 12 -74 -30 -162 -94 -195 -73 -38 -176 -27
-234 24 l-34 29 1 109 c1 122 4 129 69 161 52 26 144 28 194 4z"></path>
<path class="node" id="node3" d="M1679 1901 c-33 -34 -37 -69 -12 -111 44 -76 173 -36 173 53 0 27 -7
41 -31 61 -43 36 -91 35 -130 -3z m46 -22 c0 -15 -7 -25 -18 -27 -22 -4 -33
24 -17 43 18 21 35 13 35 -16z"></path>
<path class="node" id="node4" d="M2083 1915 c-13 -9 -28 -25 -34 -36 -24 -46 38 -111 91 -94 29 9 60
45 60 69 -1 53 -75 92 -117 61z m35 -28 c4 -20 -25 -34 -40 -19 -15 15 -1 44
19 40 10 -2 19 -11 21 -21z"></path>
<path class="node" id="node5" d="M2413 1704 c-8 -22 18 -37 36 -20 7 8 10 19 7 25 -10 16 -36 13 -43
-5z"></path>
<path class="node" id="node6" d="M2370 1650 c0 -5 5 -10 10 -10 6 0 10 5 10 10 0 6 -4 10 -10 10 -5 0
-10 -4 -10 -10z"></path>
<path class="node" id="node7" d="M1377 1633 c-3 -5 1 -42 9 -83 59 -286 374 -465 704 -400 132 26 286
126 358 233 32 48 68 136 76 187 4 29 -1 23 -31 -35 -74 -145 -243 -267 -408
-296 -105 -18 -264 -7 -349 25 -166 63 -286 178 -334 320 -11 32 -22 54 -25
49z"></path>
<path class="node" id="node8" d="M1525 1631 c-6 -11 9 -23 19 -14 9 9 7 23 -3 23 -6 0 -12 -4 -16 -9z"></path>
<path class="node" id="node9" d="M1451 1606 c-8 -10 -7 -17 3 -26 17 -13 36 -6 36 15 0 19 -27 26 -39
11z"></path>
<path class="node" id="node10" d="M1547 1564 c-8 -8 1 -24 14 -24 5 0 9 7 9 15 0 15 -12 20 -23 9z"></path>
</g>
<g transform="translate(0.000000,300.000000) scale(0.100000,-0.100000)" fill="#ACACAC" stroke="none">


<path class="node" id="node13" d="M2023 2953 c-18 -7 -16 -50 2 -57 36 -13 65 23 39 49 -16 16 -21 17
-41 8z"></path>
<path class="node" id="node14" d="M1750 2934 c-11 -12 -10 -18 3 -31 21 -21 47 -9 47 22 0 29 -29 35
-50 9z"></path>
<path class="node" id="node15" d="M2227 2853 c-12 -11 -7 -41 7 -46 8 -3 22 0 32 8 15 11 16 15 5 29
-14 17 -33 21 -44 9z"></path>
<path class="node" id="node16" d="M1550 2820 c0 -15 7 -20 25 -20 18 0 25 5 25 20 0 15 -7 20 -25 20
-18 0 -25 -5 -25 -20z"></path>
<path class="node" id="node17" d="M1786 2802 c-3 -5 -10 -40 -16 -78 -10 -62 -20 -95 -20 -66 0 17 -18
15 -22 -3 -2 -11 -11 -7 -36 16 -18 17 -36 28 -39 25 -3 -3 12 -47 35 -98 l41
-93 33 5 c18 3 103 5 190 5 l156 -1 26 63 c14 35 26 70 26 78 0 8 5 15 10 15
6 0 10 9 10 20 0 30 -13 25 -61 -22 l-42 -43 -21 93 c-11 50 -25 91 -30 89
-10 -3 -47 -61 -66 -102 -5 -11 -18 -33 -28 -49 l-20 -28 -34 53 c-19 30 -44
71 -57 92 -24 39 -27 42 -35 29z"></path>
<path class="node" id="node18" d="M1767 2445 c-52 -14 -87 -39 -87 -62 0 -11 42 -13 238 -11 229 3 237
4 237 23 0 13 -13 27 -40 40 -33 16 -63 20 -170 22 -86 1 -146 -2 -178 -12z"></path>
<path class="node" id="node19" d="M1815 2270 c-85 -17 -152 -42 -227 -83 -254 -139 -381 -379 -349
-661 16 -140 78 -262 190 -373 67 -67 115 -100 201 -141 75 -36 119 -47 246
-62 111 -14 256 5 359 46 414 166 567 651 311 990 -111 149 -276 248 -470 283
-68 12 -201 13 -261 1z m54 -196 c28 -15 64 -42 79 -60 32 -40 36 -41 65 -13
40 38 64 49 121 59 105 17 194 -27 241 -121 31 -60 32 -116 4 -172 -29 -58
-46 -75 -101 -103 -35 -18 -64 -24 -110 -24 -67 0 -106 17 -161 68 l-27 26
-30 -36 c-45 -55 -131 -93 -205 -92 -249 3 -350 313 -149 453 44 30 78 39 155
40 51 1 76 -4 118 -25z m587 -365 c3 -6 0 -17 -7 -25 -18 -17 -44 -2 -36 20 7
18 33 21 43 5z m-66 -59 c0 -5 -4 -10 -10 -10 -5 0 -10 5 -10 10 0 6 5 10 10
10 6 0 10 -4 10 -10z m-925 -186 c102 -142 254 -221 445 -231 139 -8 223 8
330 60 108 53 202 142 253 242 30 58 35 64 31 35 -8 -51 -44 -139 -76 -187
-72 -107 -226 -207 -358 -233 -330 -65 -645 114 -704 400 -19 92 -10 111 16
34 11 -33 39 -86 63 -120z m85 168 c0 -13 -12 -22 -22 -16 -10 6 -1 24 13 24
5 0 9 -4 9 -8z m-60 -37 c0 -21 -19 -28 -36 -15 -10 9 -11 16 -3 26 12 15 39
8 39 -11z m80 -40 c0 -8 -4 -15 -9 -15 -13 0 -22 16 -14 24 11 11 23 6 23 -9z"></path>
<path class="node" id="node20" d="M1670 2073 c-44 -17 -94 -59 -120 -100 -25 -39 -30 -57 -30 -111 0
-140 88 -225 232 -224 55 0 77 5 112 26 163 95 152 319 -19 397 -39 18 -141
25 -175 12z m139 -169 c24 -20 31 -34 31 -61 0 -89 -129 -129 -173 -53 -25 42
-21 77 12 111 39 38 87 39 130 3z"></path>
<path class="node" id="node21" d="M1690 1895 c-16 -19 -5 -47 17 -43 11 2 18 12 18 27 0 29 -17 37 -35
16z"></path>
<path class="node" id="node22" d="M2073 2019 c-65 -32 -68 -39 -69 -161 l-1 -109 34 -29 c58 -51 161
-62 234 -24 64 33 106 121 94 195 -9 50 -54 111 -98 132 -50 24 -142 22 -194
-4z m107 -121 c11 -13 19 -32 20 -44 0 -24 -31 -60 -60 -69 -53 -17 -115 48
-91 94 29 54 94 63 131 19z"></path>
<path class="node" id="node23" d="M2074 1895 c-4 -9 -2 -21 4 -27 15 -15 44 -1 40 19 -4 23 -36 29 -44
8z"></path>
<path class="node" id="node24" d="M990 2111 c-83 -26 -165 -90 -200 -159 -31 -59 -25 -181 13 -264 22
-48 35 -62 90 -97 35 -23 87 -66 116 -96 29 -30 55 -55 59 -55 4 0 17 21 30
45 17 36 22 62 22 127 0 100 33 235 78 327 18 34 32 66 32 70 0 5 -19 27 -42
50 -56 55 -126 74 -198 52z"></path>
<path class="node" id="node25" d="M536 1603 c-60 -18 -121 -58 -166 -109 -49 -56 -63 -98 -57 -172 4
-56 10 -69 45 -110 96 -114 335 -176 541 -141 36 6 69 14 73 18 4 3 12 40 18
81 6 41 18 92 26 113 29 76 15 108 -91 211 -112 109 -258 150 -389 109z"></path>
<path class="node" id="node26" d="M1146 1300 c-21 -52 -49 -188 -41 -200 4 -6 19 -4 40 4 18 8 59 18
89 21 31 4 56 11 56 15 0 4 -13 23 -28 43 -16 19 -42 63 -57 96 -16 34 -32 61
-36 61 -4 0 -14 -18 -23 -40z"></path>
<path class="node" id="node27" d="M1385 955 c-74 -14 -139 -37 -218 -76 -47 -23 -48 -25 -42 -59 8 -41
74 -180 86 -180 4 0 11 4 14 10 8 14 166 98 228 122 195 75 433 71 620 -11 27
-12 53 -18 59 -15 9 6 7 99 -3 108 -2 2 -29 0 -59 -6 -75 -14 -249 -4 -340 20
-41 11 -109 36 -151 55 -97 46 -111 48 -194 32z"></path>
<path class="node" id="node28" d="M1640 646 c-83 -25 -203 -93 -251 -142 l-31 -32 57 -40 c30 -22 85
-55 121 -74 l65 -33 42 47 c85 94 189 133 314 117 76 -9 80 -7 113 66 l19 39
-30 18 c-16 10 -41 20 -56 24 -16 3 -45 12 -66 20 -58 22 -206 17 -297 -10z"></path>
<path class="node" id="node29" d="M1940 366 c-26 -6 -63 -22 -84 -35 -38 -24 -73 -67 -63 -78 3 -3 48
-16 98 -29 l92 -23 28 22 c33 26 34 34 12 104 -18 58 -17 57 -83 39z"></path>
</g>
</svg>