<!--?xml version="1.0" standalone="no"?-->

<svg version="1.0" xmlns="http://www.w3.org/2000/svg" width="300.000000pt" height="263.000000pt" viewBox="0 0 300.000000 263.000000" preserveAspectRatio="xMidYMid meet">
<g transform="translate(0.000000,263.000000) scale(0.100000,-0.100000)" fill="#4436A8" stroke="none">
<path d="M1470 2621 c0 -5 7 -14 15 -21 23 -19 18 -62 -13 -121 -26 -51 -30
-53 -105 -80 -43 -14 -87 -35 -99 -45 -27 -25 -50 -80 -43 -104 5 -16 -3 -19
-63 -25 -51 -5 -77 -3 -103 8 -77 33 -114 94 -112 186 1 81 -15 68 -51 -42
-28 -82 -35 -201 -16 -238 9 -16 7 -19 -10 -19 -31 0 -97 37 -115 63 -8 13
-20 59 -26 102 -6 44 -13 94 -15 112 -3 19 -14 37 -31 48 -30 20 -115 45 -153
45 l-25 0 24 -13 c34 -17 61 -56 67 -99 5 -30 0 -47 -27 -93 -58 -96 -61 -105
-60 -161 0 -71 22 -114 83 -169 l51 -45 -24 -24 c-13 -12 -37 -37 -52 -54 -16
-18 -36 -32 -44 -32 -29 0 -82 41 -110 85 -15 25 -34 45 -41 45 -9 0 -8 -7 4
-25 13 -19 15 -38 11 -76 -10 -82 23 -129 105 -149 55 -14 67 -26 69 -66 5
-78 -1 -79 -85 -22 -50 34 -71 43 -117 46 -68 5 -91 -6 -179 -88 -72 -66 -124
-90 -159 -71 -17 10 -21 9 -21 -3 0 -32 58 -49 143 -42 102 9 163 -10 217 -66
38 -40 74 -128 54 -135 -5 -2 -25 -12 -44 -23 -19 -11 -51 -27 -69 -36 l-35
-16 25 -19 c18 -14 33 -18 60 -13 29 4 42 0 67 -21 51 -43 43 -55 -37 -55 -38
0 -88 -7 -111 -15 -81 -28 -217 -141 -196 -162 3 -3 15 2 25 11 27 24 92 31
147 16 40 -11 51 -21 87 -76 60 -90 122 -121 191 -94 23 8 26 6 37 -28 6 -20
16 -43 22 -50 6 -7 10 -33 10 -58 0 -76 -83 -155 -180 -170 -81 -12 -41 -34
62 -34 96 1 207 25 255 55 l43 27 -6 -51 c-3 -28 -11 -60 -17 -71 -16 -31 -92
-76 -169 -101 -111 -36 -138 -78 -129 -204 l4 -50 16 35 c21 45 42 64 102 91
43 19 53 20 93 8 24 -6 77 -12 116 -13 62 0 80 4 134 32 66 34 120 90 139 143
7 21 17 32 25 30 8 -2 37 -8 64 -13 97 -18 100 -20 103 -62 3 -34 -1 -43 -42
-81 -25 -23 -46 -51 -46 -61 0 -15 6 -12 33 14 21 21 49 35 83 42 28 6 66 23
84 39 31 25 36 27 59 15 14 -8 52 -16 83 -19 49 -5 61 -11 88 -41 31 -36 41
-89 19 -111 -7 -7 -7 -13 -1 -17 6 -3 24 10 41 29 36 41 42 99 15 140 -9 14
-16 41 -16 62 0 29 7 43 31 65 17 15 38 28 46 28 15 0 18 -8 34 -107 11 -70
32 -108 70 -127 38 -20 124 -36 187 -36 65 0 108 -19 128 -58 12 -23 15 -25
21 -9 13 32 -6 68 -68 130 -79 78 -101 123 -94 189 6 46 41 133 59 144 4 3 18
-2 30 -10 12 -9 34 -16 48 -16 14 0 37 -7 52 -14 17 -9 30 -11 34 -5 11 18 -5
56 -31 73 -28 18 -34 69 -12 99 11 16 16 13 51 -29 56 -67 146 -106 245 -108
51 -1 75 3 78 12 3 7 -5 12 -22 12 -34 0 -93 63 -102 110 -4 23 1 62 14 112
18 67 18 81 7 115 -7 21 -25 48 -40 60 -25 19 -26 25 -16 47 41 92 105 146
170 146 45 0 120 -30 141 -56 23 -29 31 -30 31 -6 0 23 -94 138 -148 181 -23
18 -57 35 -77 38 -52 8 -45 27 25 65 38 21 52 23 89 17 24 -5 60 -18 80 -29
131 -74 153 -73 238 7 44 42 52 53 33 47 -77 -23 -150 1 -176 57 -50 108 -70
138 -107 162 -63 41 -152 46 -239 12 -14 -6 -18 -2 -18 18 0 13 -7 43 -15 66
-27 77 22 120 138 123 34 0 48 3 31 5 -17 2 -52 22 -78 44 -53 43 -87 49 -137
23 -17 -8 -32 -14 -32 -12 -1 2 -8 14 -16 28 -8 14 -21 38 -29 53 -30 60 10
157 65 157 26 0 31 15 7 24 -54 21 -123 -12 -163 -76 l-32 -50 -55 4 c-85 7
-89 21 -24 80 76 70 90 94 90 152 0 42 -9 65 -55 147 -56 98 -65 134 -43 169
14 22 8 33 -14 25 -25 -10 -55 -77 -61 -138 -6 -66 -42 -135 -85 -166 -34 -24
-108 -44 -148 -39 -25 3 -30 8 -36 43 -16 91 -21 107 -34 112 -23 9 -44 -17
-44 -52 0 -24 -7 -39 -26 -54 -26 -20 -62 -36 -69 -29 -2 1 3 28 11 58 21 78
12 158 -29 237 -17 36 -40 73 -50 84 -19 20 -37 25 -37 10z m86 -134 c21 -62
22 -152 1 -220 -17 -54 -11 -62 38 -53 50 10 95 51 95 87 0 16 4 29 9 29 12 0
33 -81 29 -115 l-3 -28 65 2 c149 6 235 86 255 240 l7 55 12 -35 c7 -19 31
-63 54 -99 43 -68 59 -129 48 -176 -4 -15 -38 -57 -77 -94 -68 -66 -86 -100
-51 -100 10 0 23 -5 30 -12 6 -6 35 -12 63 -12 46 0 55 4 78 32 14 18 38 47
53 65 34 41 45 30 19 -19 -29 -53 -26 -83 10 -138 32 -48 34 -66 14 -146 l-7
-25 21 24 c12 13 21 32 21 42 0 22 54 59 85 59 23 0 85 -35 85 -49 0 -5 -15
-12 -33 -15 -19 -3 -44 -17 -57 -31 -20 -21 -22 -31 -16 -75 3 -27 9 -72 12
-100 4 -27 9 -50 12 -50 2 0 20 9 38 21 19 11 58 23 87 26 45 5 63 1 107 -21
51 -26 89 -60 90 -82 0 -6 14 -38 31 -71 30 -58 73 -93 114 -93 32 0 23 -21
-18 -41 l-45 -22 -48 28 c-100 58 -119 65 -165 65 -63 0 -90 -11 -144 -61 -47
-43 -51 -59 -13 -52 13 2 43 -4 68 -15 65 -29 182 -150 123 -128 -38 15 -102
18 -136 7 -52 -18 -84 -47 -112 -102 -28 -55 -61 -89 -86 -89 -10 0 -21 -5
-24 -10 -4 -7 7 -8 34 -4 37 6 44 3 76 -29 29 -29 35 -42 35 -79 0 -24 -4 -48
-9 -54 -4 -5 -14 -30 -20 -55 -14 -50 -3 -89 41 -151 l22 -31 -50 6 c-27 3
-69 16 -93 29 -46 24 -121 101 -121 124 0 20 -14 17 -35 -6 -10 -11 -20 -42
-23 -70 -4 -46 -2 -54 24 -82 21 -22 24 -29 11 -25 -10 4 -27 7 -37 7 -10 0
-33 12 -50 27 l-32 27 -19 -25 c-36 -46 -62 -114 -67 -170 -5 -68 19 -122 84
-189 l44 -45 -112 8 c-169 13 -218 48 -218 156 0 45 -27 121 -42 121 -22 0
-78 -43 -97 -74 -26 -42 -26 -49 0 -112 13 -32 19 -59 15 -71 -7 -15 -11 -12
-27 20 -26 49 -72 77 -127 77 -67 0 -106 26 -96 65 3 11 -2 29 -10 40 -14 19
-15 17 -14 -28 1 -55 -17 -80 -71 -103 -54 -23 -64 -19 -46 16 8 16 15 35 15
43 0 28 -40 56 -97 66 -32 6 -74 20 -94 31 -41 22 -49 18 -49 -20 0 -42 -52
-113 -111 -151 -52 -32 -58 -34 -144 -33 -49 0 -117 2 -150 5 -52 3 -67 0
-108 -24 l-47 -28 0 29 c0 45 27 69 120 102 103 38 143 63 169 110 25 46 35
117 22 153 l-11 29 -29 -31 c-38 -41 -78 -57 -175 -70 -82 -12 -106 -8 -71 11
41 23 93 85 105 125 12 39 11 49 -14 117 -26 70 -27 75 -12 111 23 54 20 55
-23 5 -34 -39 -43 -45 -79 -45 -50 0 -85 24 -127 87 -43 65 -84 90 -158 97
l-62 6 50 33 c69 45 142 65 226 60 78 -4 84 3 49 59 -25 41 -62 65 -97 63 -47
-3 -48 -1 -13 25 23 17 47 25 73 25 33 0 38 3 32 18 -4 9 -11 31 -15 49 -29
119 -147 200 -278 190 l-62 -5 47 42 c25 22 60 54 77 69 44 40 112 70 143 62
13 -3 43 -18 65 -33 110 -74 144 -80 154 -27 3 19 3 51 -1 71 -4 26 -2 39 7
45 8 5 -8 9 -42 9 -91 0 -144 45 -138 117 l3 36 34 -28 c55 -47 91 -41 157 28
30 31 61 57 69 57 27 0 15 19 -24 39 -116 59 -156 203 -84 304 59 83 64 99 48
154 -8 26 -15 49 -15 51 0 6 32 1 53 -9 33 -15 47 -49 47 -112 0 -62 16 -123
40 -157 24 -34 95 -68 156 -76 l49 -7 -25 27 c-23 25 -25 36 -25 114 0 87 9
142 23 142 4 0 16 -24 27 -52 16 -42 31 -60 70 -87 49 -33 51 -33 134 -28 76
6 89 4 120 -16 l36 -21 -27 33 c-32 37 -37 88 -13 125 17 25 64 49 132 66 49
12 94 61 112 121 7 22 16 37 21 34 5 -3 17 -29 26 -58z" id="node1" class="node"></path>
<path d="M1355 2130 c-97 -8 -202 -39 -310 -90 -249 -117 -443 -370 -489 -636
-46 -260 8 -497 159 -699 194 -259 492 -386 830 -354 162 15 316 76 454 180
155 117 252 255 317 449 26 80 28 95 28 260 1 166 -1 179 -28 260 -59 176
-147 307 -283 420 -201 167 -415 233 -678 210z m324 -44 c279 -78 473 -250
595 -526 45 -102 66 -293 47 -435 -50 -379 -346 -684 -721 -744 -94 -16 -257
-13 -342 4 -251 53 -438 185 -578 408 -17 26 -30 50 -30 52 0 2 -11 29 -25 59
-34 74 -65 230 -65 326 0 139 47 318 116 445 51 92 156 208 249 274 92 66 248
131 357 151 77 13 332 5 397 -14z" id="node2" class="node"></path>
<path d="M1509 1964 c-5 -7 -9 -32 -7 -56 3 -48 6 -49 95 -35 23 3 56 1 73 -5
40 -14 46 -6 24 31 -30 50 -159 96 -185 65z" id="node3" class="node"></path>
<path d="M1075 1917 c-29 -16 -48 -37 -67 -76 -44 -86 -32 -146 18 -89 10 11
47 34 82 50 34 15 62 32 62 36 0 20 -35 102 -44 102 -6 0 -29 -10 -51 -23z" id="node4" class="node"></path>
<path d="M1597 1764 c-2 -3 -15 -7 -28 -9 -37 -7 -91 -58 -116 -108 l-23 -46
-54 54 c-91 91 -190 99 -271 22 -63 -61 -82 -132 -66 -242 14 -92 39 -140 104
-204 111 -107 253 -82 313 57 20 48 24 50 48 23 10 -11 31 -23 47 -26 16 -4
31 -11 34 -16 17 -27 124 2 167 45 117 118 90 342 -52 428 -26 15 -95 30 -103
22z m114 -51 c45 -38 89 -136 89 -198 0 -134 -76 -235 -175 -235 -78 0 -145
65 -145 140 0 24 -8 67 -17 96 -14 47 -15 59 -3 96 8 24 33 62 56 86 40 40 44
42 102 42 51 0 65 -4 93 -27z m-438 -14 c151 -42 236 -323 136 -450 -36 -46
-76 -63 -137 -57 -78 8 -131 52 -182 154 -25 52 -30 73 -30 137 0 164 87 251
213 216z" id="node5" class="node"></path>
<path d="M1509 1486 c-16 -33 -3 -92 23 -111 47 -32 76 41 43 105 -19 37 -51
39 -66 6z m31 -42 c0 -16 -16 -19 -25 -4 -8 13 4 32 16 25 5 -4 9 -13 9 -21z" id="node6" class="node"></path>
<path d="M1236 1433 c-23 -72 44 -170 89 -133 36 30 -8 142 -57 148 -19 2 -28
-2 -32 -15z m42 -46 c2 -10 -3 -17 -11 -17 -16 0 -30 24 -19 34 10 10 27 1 30
-17z" id="node7" class="node"></path>
<path d="M2075 1493 c-10 -102 -27 -150 -84 -238 -60 -93 -93 -130 -161 -181
-121 -91 -254 -133 -440 -141 -254 -11 -380 25 -484 137 -58 64 -122 179 -113
205 5 11 22 15 64 15 53 1 56 2 39 15 -28 21 -79 19 -134 -6 -52 -23 -87 -60
-98 -105 -7 -26 -6 -28 9 -15 10 7 17 19 17 25 0 12 33 46 57 60 8 4 25 -21
52 -76 22 -47 60 -105 86 -133 26 -27 60 -79 77 -115 76 -167 91 -191 183
-284 81 -82 100 -96 156 -115 143 -48 314 -10 433 98 31 28 58 51 61 51 3 0 2
-20 -2 -45 l-6 -45 37 0 c39 0 48 15 15 25 -16 5 -19 12 -15 30 4 15 -1 31
-13 46 -18 23 -19 23 -46 5 -28 -18 -29 -18 -72 5 -53 29 -68 67 -58 146 10
79 22 100 69 118 148 59 271 179 357 347 31 61 52 171 42 219 -10 51 -21 31
-28 -48z m-981 -559 c69 -21 101 -24 235 -24 101 0 177 5 216 15 33 8 62 14
65 15 3 0 5 -49 5 -109 l0 -109 -34 -19 c-23 -12 -57 -18 -102 -19 -47 0 -75
-6 -96 -19 -35 -23 -73 -66 -73 -83 0 -9 -7 -11 -22 -6 -37 11 -69 37 -151
124 -73 76 -124 159 -152 249 -6 21 -5 23 11 16 11 -4 55 -18 98 -31z m594
-250 c30 -20 28 -36 -7 -62 -72 -53 -234 -93 -315 -78 -45 9 -46 26 -3 73 29
31 41 37 90 41 45 4 63 0 93 -17 39 -23 55 -21 35 3 -33 39 59 74 107 40z" id="node8" class="node"></path>
<path d="M1510 1180 c-8 -5 -23 -7 -32 -4 -12 3 -18 0 -18 -10 0 -20 23 -20
62 0 29 15 31 14 54 -7 52 -49 8 -127 -66 -115 l-35 5 28 -15 c76 -41 156 70
97 134 -22 23 -64 29 -90 12z" id="node9" class="node"></path>
</g>
<g transform="translate(0.000000,263.000000) scale(0.100000,-0.100000)" fill="#81BC51" stroke="none">


<path d="M1509 2511 c-18 -60 -63 -109 -112 -121 -68 -17 -115 -41 -132 -66
-24 -37 -19 -88 13 -125 l27 -33 -36 21 c-31 20 -44 22 -120 16 -83 -5 -85 -5
-134 28 -39 27 -54 45 -70 87 -11 28 -23 52 -27 52 -14 0 -23 -55 -23 -142 0
-78 2 -89 25 -114 l25 -27 -49 7 c-61 8 -132 42 -156 76 -24 34 -40 95 -40
157 0 63 -14 97 -47 112 -21 10 -53 15 -53 9 0 -2 7 -25 15 -51 16 -55 11 -71
-48 -154 -72 -101 -32 -245 84 -304 39 -20 51 -39 24 -39 -8 0 -39 -26 -69
-57 -66 -69 -102 -75 -157 -28 l-34 28 -3 -36 c-6 -72 47 -117 138 -117 34 0
50 -4 42 -9 -9 -6 -11 -19 -7 -45 4 -20 4 -52 1 -71 -10 -53 -44 -47 -154 27
-22 15 -52 30 -65 33 -31 8 -99 -22 -143 -62 -17 -15 -52 -47 -77 -69 l-47
-42 62 5 c131 10 249 -71 278 -190 4 -18 11 -40 15 -49 6 -15 1 -18 -32 -18
-26 0 -50 -8 -73 -25 -35 -26 -34 -28 13 -25 35 2 72 -22 97 -63 35 -56 29
-63 -49 -59 -84 5 -157 -15 -226 -60 l-50 -33 62 -6 c74 -7 115 -32 158 -97
42 -63 77 -87 127 -87 36 0 45 6 79 45 43 50 46 49 23 -5 -15 -36 -14 -41 12
-111 25 -68 26 -78 14 -117 -12 -40 -64 -102 -105 -125 -35 -19 -11 -23 71
-11 97 13 137 29 175 70 l29 31 11 -29 c13 -36 3 -107 -22 -153 -26 -47 -66
-72 -169 -110 -93 -33 -120 -57 -120 -102 l0 -29 47 28 c41 24 56 27 108 24
33 -3 101 -5 150 -5 86 -1 92 1 144 33 59 38 111 109 111 151 0 38 8 42 49 20
20 -11 62 -25 94 -31 57 -10 97 -38 97 -66 0 -8 -7 -27 -15 -43 -18 -35 -8
-39 46 -16 54 23 72 48 71 103 -1 45 0 47 14 28 8 -11 13 -29 10 -40 -10 -39
29 -65 96 -65 55 0 101 -28 127 -77 16 -32 20 -35 27 -20 4 12 -2 39 -15 71
-26 63 -26 70 0 112 19 31 75 74 97 74 15 0 42 -76 42 -121 0 -108 49 -143
218 -156 l112 -8 -44 45 c-65 67 -89 121 -84 189 5 56 31 124 67 170 l19 25
32 -27 c17 -15 40 -27 50 -27 10 0 27 -3 37 -7 13 -4 10 3 -11 25 -26 28 -28
36 -24 82 3 28 13 59 23 70 21 23 35 26 35 6 0 -23 75 -100 121 -124 24 -13
66 -26 93 -29 l50 -6 -22 31 c-44 62 -55 101 -41 151 6 25 16 50 20 55 5 6 9
30 9 54 0 37 -6 50 -35 79 -32 32 -39 35 -76 29 -27 -4 -38 -3 -34 4 3 5 14
10 24 10 25 0 58 34 86 89 28 55 60 84 112 102 34 11 98 8 136 -7 59 -22 -58
99 -123 128 -25 11 -55 17 -68 15 -38 -7 -34 9 13 52 54 50 81 61 144 61 46 0
65 -7 165 -65 l48 -28 45 22 c41 20 50 41 18 41 -41 0 -84 35 -114 93 -17 33
-31 65 -31 71 -1 22 -39 56 -90 82 -44 22 -62 26 -107 21 -29 -3 -68 -15 -87
-26 -18 -12 -36 -21 -38 -21 -3 0 -8 23 -12 50 -3 28 -9 73 -12 100 -6 44 -4
54 16 75 13 14 38 28 57 31 18 3 33 10 33 15 0 14 -62 49 -85 49 -31 0 -85
-37 -85 -59 0 -10 -9 -29 -21 -42 l-21 -24 7 25 c20 80 18 98 -14 146 -36 55
-39 85 -10 138 26 49 15 60 -19 19 -15 -18 -39 -47 -53 -65 -23 -28 -32 -32
-78 -32 -28 0 -57 6 -63 12 -7 7 -20 12 -30 12 -35 0 -17 34 51 100 39 37 73
79 77 94 11 47 -5 108 -48 176 -23 36 -47 80 -54 99 l-12 35 -7 -55 c-20 -154
-106 -234 -255 -240 l-65 -2 3 28 c4 34 -17 115 -29 115 -5 0 -9 -13 -9 -29 0
-36 -45 -77 -95 -87 -49 -9 -55 -1 -38 53 21 68 20 158 -1 220 -9 29 -21 55
-26 58 -5 3 -14 -12 -21 -34z m78 -386 c74 -7 204 -50 291 -95 99 -53 239
-175 303 -266 69 -98 99 -156 135 -264 27 -81 29 -94 28 -260 0 -165 -2 -180
-28 -260 -99 -298 -313 -507 -612 -600 -204 -63 -477 -38 -678 62 -294 147
-485 453 -486 778 0 245 79 450 244 627 146 157 363 265 571 283 79 7 109 6
232 -5z" id="node12" class="node"></path>
<path d="M1282 2100 c-109 -20 -265 -85 -357 -151 -93 -66 -198 -182 -249
-274 -69 -127 -116 -306 -116 -445 0 -96 31 -252 65 -326 14 -30 25 -57 25
-59 0 -2 13 -26 30 -52 93 -148 200 -251 335 -321 177 -91 384 -124 585 -91
375 60 671 365 721 744 19 142 -2 333 -47 435 -122 276 -316 448 -595 526 -65
19 -320 27 -397 14z m358 -153 c34 -16 78 -72 66 -84 -3 -3 -19 0 -36 5 -17 6
-50 8 -73 5 -89 -14 -92 -13 -95 35 -2 24 2 49 7 56 13 16 81 7 131 -17z
m-487 -54 c9 -27 17 -51 17 -55 0 -4 -28 -21 -62 -36 -35 -16 -72 -39 -82 -50
-50 -57 -62 3 -18 89 19 39 38 60 67 76 22 13 45 23 51 23 5 0 18 -21 27 -47z
m547 -151 c80 -49 138 -169 127 -263 -12 -100 -72 -185 -145 -207 -47 -14 -89
-15 -97 -3 -3 5 -18 12 -34 16 -16 3 -37 15 -47 26 -24 27 -28 25 -48 -23 -60
-139 -202 -164 -313 -57 -65 64 -90 112 -104 204 -16 110 3 181 66 242 81 77
180 69 271 -22 l54 -54 23 46 c25 50 79 101 116 108 13 2 26 6 28 9 8 8 77 -7
103 -22z m403 -201 c10 -48 -11 -158 -42 -219 -86 -168 -209 -288 -357 -347
-47 -18 -59 -39 -69 -118 -10 -79 5 -117 58 -146 43 -23 44 -23 72 -5 27 18
28 18 46 -5 12 -15 17 -31 13 -46 -4 -18 -1 -25 15 -30 33 -10 24 -25 -15 -25
l-37 0 6 45 c4 25 5 45 2 45 -3 0 -30 -23 -61 -51 -119 -108 -290 -146 -433
-98 -56 19 -75 33 -156 115 -92 93 -107 117 -183 284 -17 36 -51 88 -77 115
-26 28 -64 86 -86 133 -27 55 -44 80 -52 76 -24 -14 -57 -48 -57 -60 0 -6 -7
-18 -17 -25 -15 -13 -16 -11 -9 15 11 45 46 82 98 105 55 25 106 27 134 6 17
-13 14 -14 -39 -15 -42 0 -59 -4 -64 -15 -9 -26 55 -141 113 -205 104 -112
230 -148 484 -137 186 8 319 50 440 141 68 51 101 88 161 181 57 88 74 136 84
238 7 79 18 99 28 48z m-503 -373 c39 -43 20 -113 -39 -137 -24 -10 -34 -10
-58 3 l-28 15 35 -5 c74 -12 118 66 66 115 -23 21 -25 22 -54 7 -39 -20 -62
-20 -62 0 0 10 6 13 18 10 9 -3 24 -1 32 4 26 17 68 11 90 -12z" id="node13" class="node"></path>
<path d="M1516 1698 c-23 -24 -48 -62 -56 -86 -12 -37 -11 -49 3 -96 9 -29 17
-72 17 -96 0 -75 67 -140 145 -140 99 0 175 101 175 235 0 62 -44 160 -89 198
-28 23 -42 27 -93 27 -58 0 -62 -2 -102 -42z m59 -218 c20 -39 19 -83 -3 -103
-16 -15 -20 -15 -40 -2 -12 9 -24 32 -28 51 -14 74 40 115 71 54z" id="node14" class="node"></path>
<path d="M1515 1460 c-7 -12 2 -30 16 -30 12 0 12 27 0 35 -5 3 -12 1 -16 -5z" id="node15" class="node"></path>
<path d="M1176 1700 c-73 -22 -116 -102 -116 -217 0 -64 5 -85 30 -137 51
-102 104 -146 182 -154 61 -6 101 11 137 57 100 127 15 408 -136 450 -44 12
-57 13 -97 1z m141 -295 c26 -46 29 -87 8 -105 -45 -37 -112 61 -89 133 10 33
55 18 81 -28z" id="node16" class="node"></path>
<path d="M1248 1404 c-11 -10 3 -34 19 -34 8 0 13 7 11 17 -3 18 -20 27 -30
17z" id="node17" class="node"></path>
<path d="M985 949 c28 -90 79 -173 152 -249 82 -87 114 -113 151 -124 15 -5
22 -3 22 6 0 17 38 60 73 83 21 13 49 19 96 19 45 1 79 7 102 19 l34 19 0 109
c0 60 -2 109 -5 109 -3 -1 -32 -7 -65 -15 -39 -10 -115 -15 -216 -15 -134 0
-166 3 -235 24 -43 13 -87 27 -98 31 -16 7 -17 5 -11 -16z" id="node18" class="node"></path>
<path d="M1604 690 c-30 -12 -38 -28 -23 -46 20 -24 4 -26 -35 -3 -30 17 -48
21 -93 17 -49 -4 -61 -10 -90 -41 -43 -47 -42 -64 3 -73 81 -15 243 25 315 78
35 26 37 42 7 62 -25 18 -52 19 -84 6z" id="node19" class="node"></path>



</g>
</svg>