<!--?xml version="1.0" standalone="no"?-->

<svg version="1.0" xmlns="http://www.w3.org/2000/svg" width="300.000000pt" height="300.000000pt" viewBox="0 0 300.000000 300.000000" preserveAspectRatio="xMidYMid meet">
<g transform="translate(0.000000,300.000000) scale(0.100000,-0.100000)" fill="#1E1E1E" stroke="none">
<path d="M2021 2805 c-17 -20 -31 -45 -31 -56 0 -17 3 -18 22 -8 12 7 53 13
90 13 66 1 68 2 68 27 0 37 -29 59 -77 59 -34 0 -46 -6 -72 -35z" id="node1" class="node"></path>
<path d="M2445 2778 c-15 -22 -14 -23 17 -29 18 -3 43 -11 55 -17 28 -16 33
-15 33 3 0 22 -45 65 -69 65 -11 0 -27 -10 -36 -22z" id="node2" class="node"></path>
<path d="M2065 2626 c-80 -35 -145 -130 -145 -212 0 -38 -3 -43 -32 -54 -88
-33 -220 -116 -319 -202 l-70 -60 -42 36 c-110 95 -199 155 -307 206 -36 17
-78 37 -95 45 -103 50 -270 91 -447 111 -137 16 -157 16 -305 0 -158 -17 -267
-39 -290 -58 -17 -14 -19 -1788 -3 -1819 6 -10 17 -19 25 -19 11 0 15 -13 15
-49 0 -38 5 -53 19 -64 16 -10 21 -27 23 -78 3 -62 4 -64 31 -67 18 -2 32 -13
41 -30 8 -15 23 -35 34 -46 24 -21 26 -21 312 19 171 23 217 26 375 22 221 -6
381 -33 405 -69 45 -68 93 -88 210 -88 106 0 142 13 187 65 36 42 44 46 118
61 44 8 103 18 130 22 65 9 393 9 470 0 107 -12 270 -38 304 -48 45 -13 92 10
117 56 10 19 24 32 30 30 7 -3 21 2 33 10 17 12 21 25 21 70 0 41 5 60 20 76
13 14 20 36 20 62 0 30 5 45 20 54 20 12 20 23 20 915 0 496 -4 907 -8 914
-10 17 -114 39 -247 54 l-110 13 -50 53 c-49 52 -52 53 -107 53 -55 0 -92 -18
-125 -60 -10 -13 -16 -11 -40 17 -58 66 -162 92 -238 59z m146 -17 c139 -47
174 -251 61 -356 -69 -64 -142 -71 -221 -23 -60 37 -92 98 -92 173 0 150 121
249 252 206z m324 -29 c77 -48 88 -161 23 -227 -48 -47 -107 -55 -158 -21 -34
23 -35 26 -43 107 -8 96 2 123 56 146 45 20 84 18 122 -5z m-1804 -139 c109
-20 324 -87 381 -120 165 -93 234 -141 317 -217 l51 -47 0 -883 c0 -486 -2
-884 -6 -884 -3 0 -37 28 -77 62 -178 153 -391 254 -653 309 -151 32 -427 32
-584 0 -58 -11 -108 -21 -112 -21 -5 0 -8 398 -8 885 l0 885 23 9 c23 9 190
37 262 45 81 8 303 -4 406 -23z m2074 2 c61 -9 118 -20 128 -25 16 -8 17 -61
17 -894 l0 -886 -23 5 c-187 48 -498 56 -677 18 -258 -54 -439 -138 -638 -296
-40 -32 -72 -62 -72 -66 0 -5 -4 -9 -10 -9 -7 0 -10 302 -10 886 l0 887 48 44
c46 43 186 139 292 202 l54 33 18 -22 c10 -12 18 -28 18 -35 0 -24 53 -77 95
-96 107 -49 240 -1 291 106 l16 34 39 -19 c94 -48 192 -3 219 100 7 25 14 48
16 51 4 7 31 4 179 -18z m-2182 -1803 c135 -14 343 -70 425 -115 37 -20 27
-19 -93 10 -224 53 -526 55 -764 5 -52 -11 -96 -20 -98 -20 -1 0 -3 20 -3 44
l0 44 48 11 c119 28 331 38 485 21z m2090 0 c49 -5 113 -14 143 -21 l54 -12 0
-44 c0 -23 -2 -43 -4 -43 -2 0 -48 9 -101 20 -244 50 -544 48 -763 -5 -120
-29 -127 -30 -87 -8 77 42 276 98 398 112 101 12 256 12 360 1z m-1907 -115
c132 -20 204 -39 314 -82 121 -47 99 -54 -50 -15 -54 14 -113 17 -335 16 -252
-1 -279 -3 -405 -28 -74 -15 -152 -30 -173 -33 l-38 -6 3 54 3 53 45 13 c145
40 464 54 636 28z m1856 0 c57 -8 128 -19 156 -26 l52 -11 0 -55 0 -56 -32 6
c-18 3 -98 18 -178 34 -135 25 -163 27 -405 27 -213 0 -274 -3 -335 -17 -41
-10 -88 -20 -105 -23 -29 -6 -29 -6 -10 9 33 24 228 86 323 102 48 8 98 16
112 18 63 11 326 6 422 -8z m-1585 -150 c65 -8 153 -28 197 -43 66 -23 80 -32
89 -55 12 -37 42 -47 135 -47 86 0 124 14 132 49 7 29 93 63 223 88 142 27
487 24 677 -5 80 -12 161 -26 180 -32 30 -9 37 -8 48 9 14 21 42 18 42 -4 0
-8 -12 -23 -26 -34 -26 -21 -50 -21 -119 0 -50 15 -281 39 -430 45 -234 10
-545 -36 -554 -82 -9 -51 -70 -77 -176 -76 -87 0 -138 20 -164 63 -24 40 -64
55 -201 75 -224 32 -546 22 -779 -25 -103 -21 -135 -16 -146 19 -10 33 9 46
32 21 18 -19 22 -20 72 -6 44 11 206 34 341 48 94 10 322 5 427 -8z" id="node3" class="node"></path>
<path d="M2101 2426 c-14 -17 -7 -36 14 -36 22 0 29 20 13 36 -13 13 -16 13
-27 0z" id="node4" class="node"></path>
<path d="M2436 2463 c-11 -11 -6 -23 9 -23 8 0 15 4 15 9 0 13 -16 22 -24 14z" id="node5" class="node"></path>
<path d="M340 2124 c0 -5 69 -10 153 -10 217 -2 418 -50 610 -145 107 -53 107
-53 107 -41 0 11 -178 95 -258 123 -146 51 -262 71 -439 76 -98 3 -173 2 -173
-3z" id="node6" class="node"></path>
<path d="M340 1913 c0 -5 72 -8 160 -8 89 0 153 3 143 7 -24 9 -303 10 -303 1z" id="node7" class="node"></path>
<path d="M705 1890 c11 -5 30 -9 41 -9 30 -1 187 -47 254 -74 30 -12 88 -39
128 -59 78 -41 87 -44 76 -27 -11 18 -202 106 -289 133 -91 28 -176 46 -208
45 -21 0 -21 -1 -2 -9z" id="node8" class="node"></path>
<path d="M370 1710 c-49 -10 -32 -12 95 -10 194 3 412 -47 618 -140 125 -57
177 -69 75 -18 -153 77 -287 124 -423 147 -119 21 -316 32 -365 21z" id="node9" class="node"></path>
<path d="M1721 2115 c-29 -25 -59 -90 -47 -102 3 -4 6 0 6 8 0 8 5 20 12 27 8
8 27 -3 75 -49 36 -33 82 -71 104 -85 22 -14 42 -31 45 -39 4 -8 -3 -45 -14
-82 -84 -280 -54 -506 80 -603 90 -65 204 -80 382 -50 71 11 133 23 138 26 5
3 8 69 7 147 -2 163 12 295 42 384 18 55 24 63 60 77 22 9 44 16 49 16 23 0
150 55 149 65 0 5 -22 28 -47 50 -44 39 -49 33 -9 -12 10 -12 16 -26 13 -31
-9 -14 -147 -58 -231 -73 -275 -50 -579 52 -780 261 l-40 41 30 25 c17 13 25
24 18 24 -6 0 -25 -11 -42 -25z m360 -711 c17 -16 37 -42 46 -58 15 -28 15
-28 36 -9 42 38 104 50 144 30 44 -23 96 -79 124 -135 32 -62 36 -59 -113 -74
-167 -17 -270 6 -350 80 -36 33 -84 141 -71 161 31 50 134 53 184 5z" id="node10" class="node"></path>
</g>
<g transform="translate(0.000000,300.000000) scale(0.100000,-0.100000)" fill="#A0A0A0" stroke="none">

<path d="M2068 2600 c-139 -74 -149 -289 -17 -370 79 -48 152 -41 221 23 89
83 90 238 2 318 -56 51 -141 63 -206 29z m68 -199 c-9 -14 -33 -14 -41 -1 -4
6 -1 18 6 26 11 13 14 13 27 0 8 -8 11 -19 8 -25z" id="node12" class="node"></path>
<path d="M2413 2585 c-54 -23 -64 -50 -56 -146 8 -81 9 -84 43 -107 81 -55
188 4 198 109 11 115 -83 189 -185 144z m47 -136 c0 -5 -7 -9 -15 -9 -15 0
-20 12 -9 23 8 8 24 -1 24 -14z" id="node13" class="node"></path>
<path d="M325 2464 c-72 -8 -239 -36 -262 -45 l-23 -9 0 -885 c0 -487 3 -885
8 -885 4 0 54 10 112 21 157 32 433 32 584 0 148 -31 242 -63 361 -121 124
-60 201 -109 292 -188 40 -34 74 -62 77 -62 4 0 6 398 6 884 l0 883 -51 47
c-83 76 -152 124 -317 217 -57 33 -272 100 -381 120 -103 19 -325 31 -406 23z
m465 -368 c58 -14 131 -34 162 -45 80 -28 258 -112 258 -123 0 -12 0 -12 -107
41 -192 95 -393 143 -610 145 -84 0 -153 5 -153 10 0 5 75 6 173 3 137 -4 193
-10 277 -31z m-147 -184 c10 -4 -54 -7 -143 -7 -88 0 -160 3 -160 8 0 9 279 8
303 -1z m139 -23 c132 -27 401 -134 422 -168 11 -17 2 -14 -76 27 -40 20 -98
47 -128 59 -67 27 -224 73 -254 74 -11 0 -30 4 -41 9 -19 8 -19 9 2 9 12 1 46
-4 75 -10z m-157 -185 c176 -15 343 -66 533 -162 102 -51 50 -39 -75 18 -206
93 -424 143 -618 140 -127 -2 -144 0 -95 10 32 8 131 5 255 -6z" id="node14" class="node"></path>
<path d="M2626 2461 c-2 -3 -9 -26 -16 -51 -27 -103 -125 -148 -219 -100 l-39
19 -16 -34 c-51 -107 -184 -155 -291 -106 -42 19 -95 72 -95 96 0 7 -8 23 -18
35 l-18 22 -54 -33 c-106 -63 -246 -159 -292 -202 l-48 -44 0 -887 c0 -584 3
-886 10 -886 6 0 10 4 10 9 0 4 32 34 72 66 199 158 380 242 638 296 179 38
490 30 677 -18 l23 -5 0 886 c0 833 -1 886 -17 894 -10 5 -67 16 -128 25 -148
22 -175 25 -179 18z m-881 -345 l-30 -25 40 -41 c48 -50 130 -114 203 -158
158 -96 390 -137 577 -103 84 15 222 59 231 73 3 5 -3 19 -13 31 -40 45 -35
51 9 12 25 -22 47 -45 47 -50 1 -10 -126 -65 -149 -65 -5 0 -27 -7 -49 -16
-36 -14 -42 -22 -60 -77 -30 -89 -44 -221 -42 -384 1 -78 -2 -144 -7 -147 -5
-3 -67 -15 -138 -26 -178 -30 -292 -15 -382 50 -134 97 -164 323 -80 603 11
37 18 74 14 82 -3 8 -23 25 -45 39 -22 14 -68 52 -104 85 -48 46 -67 57 -75
49 -7 -7 -12 -19 -12 -27 0 -8 -3 -12 -6 -8 -21 21 54 127 89 127 7 0 -1 -11
-18 -24z" id="node15" class="node"></path>
<path d="M1931 1428 c-44 -23 -46 -39 -16 -105 62 -138 182 -187 403 -165 149
15 145 12 113 74 -28 56 -80 112 -124 135 -40 20 -102 8 -144 -30 -21 -19 -21
-19 -36 9 -29 55 -72 87 -124 91 -28 2 -58 -2 -72 -9z" id="node16" class="node"></path>
<path d="M260 639 c-41 -5 -96 -14 -122 -20 l-48 -11 0 -44 c0 -24 2 -44 3
-44 2 0 46 9 98 20 238 50 540 48 764 -5 58 -14 108 -25 112 -25 15 1 -47 30
-114 54 -213 76 -455 102 -693 75z" id="node17" class="node"></path>
<path d="M2353 639 c-122 -14 -321 -70 -398 -112 -40 -22 -33 -21 87 8 219 53
519 55 763 5 53 -11 99 -20 101 -20 2 0 4 20 4 43 l0 44 -54 12 c-131 29 -349
38 -503 20z" id="node18" class="node"></path>
<path d="M320 524 c-58 -8 -125 -20 -150 -27 l-45 -13 -3 -53 -3 -54 38 6 c21
3 99 18 173 33 126 25 153 27 405 28 222 1 281 -2 335 -16 99 -26 137 -32 125
-20 -18 18 -146 64 -255 93 -152 39 -422 49 -620 23z" id="node19" class="node"></path>
<path d="M2240 533 c-14 -2 -64 -10 -112 -18 -95 -16 -290 -78 -323 -102 -19
-15 -19 -15 10 -9 17 3 64 13 105 23 61 14 122 17 335 17 242 0 270 -2 405
-27 80 -16 160 -31 178 -34 l32 -6 0 56 0 55 -52 11 c-122 27 -270 41 -407 40
-80 -1 -157 -4 -171 -6z" id="node20" class="node"></path>
<path d="M650 383 c-135 -14 -297 -37 -341 -48 -50 -14 -54 -13 -72 6 -23 25
-42 12 -32 -21 11 -35 43 -40 146 -19 233 47 555 57 779 25 137 -20 177 -35
201 -75 26 -43 77 -63 164 -63 106 -1 167 25 176 76 9 46 320 92 554 82 149
-6 380 -30 430 -45 69 -21 93 -21 119 0 14 11 26 26 26 34 0 22 -28 25 -42 4
-11 -17 -18 -18 -48 -9 -19 6 -100 20 -180 32 -190 29 -535 32 -677 5 -130
-25 -216 -59 -223 -88 -8 -35 -46 -49 -132 -49 -93 0 -123 10 -135 47 -22 62
-278 114 -541 111 -75 0 -153 -3 -172 -5z" id="node21" class="node"></path>
</g>
</svg>