<!--?xml version="1.0" standalone="no"?-->

<svg version="1.0" xmlns="http://www.w3.org/2000/svg" width="255.000000pt" height="300.000000pt" viewBox="0 0 255.000000 300.000000" preserveAspectRatio="xMidYMid meet">
<g transform="translate(0.000000,300.000000) scale(0.100000,-0.100000)" fill="#191919" stroke="none">
<path class="node" id="node1" d="M707 2839 c-52 -18 -60 -18 -80 -4 -12 8 -30 15 -39 15 -16 0 -17 -6
-12 -42 8 -59 85 -371 94 -383 4 -5 12 -32 19 -59 13 -51 54 -141 70 -150 13
-8 18 2 30 52 8 40 8 42 -13 36 -19 -4 -24 4 -53 93 -17 54 -35 115 -38 136
l-7 37 68 0 c94 0 117 7 110 34 -3 12 35 -22 88 -78 74 -78 98 -97 113 -92 79
31 171 57 244 67 78 11 96 11 199 -10 112 -22 204 -62 240 -106 20 -24 31 -17
28 17 -4 39 -46 70 -153 114 -119 48 -322 44 -500 -11 l-79 -24 -121 117 c-66
64 -149 137 -183 162 -64 46 -69 64 -10 36 38 -18 101 -75 140 -126 32 -42 50
-32 24 13 -11 18 -30 52 -43 77 -31 57 -62 100 -71 99 -4 0 -33 -9 -65 -20z"></path>
<path class="node" id="node2" d="M2305 2841 c-33 -10 -80 -26 -105 -37 -25 -12 -58 -24 -73 -28 -45
-11 -212 -93 -243 -119 -49 -40 -111 -76 -172 -98 -79 -30 -82 -35 -31 -58 71
-33 88 -28 160 40 112 107 209 160 318 175 l51 7 0 -32 c0 -75 -67 -167 -194
-266 -84 -66 -156 -156 -156 -196 0 -24 296 260 359 344 60 81 164 268 155
277 -5 4 -36 0 -69 -9z"></path>
<path class="node" id="node3" d="M465 2695 c-113 -78 -211 -162 -348 -298 -71 -71 -117 -125 -115
-135 2 -9 23 -31 48 -50 75 -55 298 -270 354 -341 73 -91 120 -159 151 -221
31 -61 38 -46 -89 -177 -86 -89 -87 -91 -25 -127 l33 -19 -23 32 -24 33 97 90
c53 49 96 97 96 105 0 26 -65 156 -108 213 -44 60 -165 218 -279 366 l-72 93
59 55 c46 42 70 57 109 65 60 13 140 -5 176 -39 33 -31 60 -117 51 -162 -19
-102 -164 -119 -206 -25 -16 36 -16 43 -3 74 16 40 13 52 -8 27 -8 -10 -14
-39 -14 -65 0 -51 24 -87 77 -115 60 -31 168 -2 211 58 44 60 39 190 -11 262
-33 48 -105 96 -144 96 -15 0 -28 3 -28 8 0 4 36 32 80 62 86 60 88 65 74 153
-5 25 -12 37 -23 37 -9 -1 -52 -25 -96 -55z"></path>
<path class="node" id="node4" d="M934 2369 c-39 -11 -114 -87 -149 -151 -17 -30 -32 -83 -41 -139 -8
-50 -26 -125 -40 -168 -28 -86 -33 -164 -13 -207 12 -24 21 -30 54 -32 33 -2
45 2 65 23 46 49 27 168 -28 182 -14 3 -33 1 -43 -5 -15 -10 -17 -9 -12 4 3 9
16 20 29 25 26 9 33 29 11 29 -17 0 21 191 52 263 28 64 119 154 166 163 19 3
35 10 35 15 0 11 -45 10 -86 -2z m-130 -566 c8 -28 -5 -43 -35 -43 -20 0 -32
26 -24 51 10 30 51 24 59 -8z m-26 -76 c13 5 14 3 6 -6 -17 -18 -44 -10 -63
19 l-16 25 28 -22 c16 -13 35 -19 45 -16z"></path>
<path class="node" id="node5" d="M1920 2246 l-23 -25 32 -40 c80 -101 101 -244 61 -405 -26 -104 -53
-156 -95 -183 -27 -18 -35 -31 -40 -67 -7 -44 -2 -66 15 -66 5 0 10 10 12 23
2 15 11 23 30 25 33 4 42 -12 64 -105 8 -37 31 -102 51 -143 35 -75 76 -188
128 -350 63 -198 45 -504 -37 -614 l-21 -29 32 -29 c18 -16 35 -26 40 -24 4 3
19 29 34 58 36 70 65 217 73 358 l7 115 -41 115 c-23 63 -63 169 -90 235 -71
174 -102 247 -111 270 -5 11 -22 54 -38 95 -23 62 -34 78 -61 91 -31 16 -31
17 -10 23 27 7 77 81 104 151 14 39 18 79 19 185 0 125 -2 141 -29 215 -28 76
-64 145 -77 145 -3 0 -16 -11 -29 -24z"></path>
<path class="node" id="node6" d="M895 2140 c-20 -21 -29 -42 -32 -77 -5 -42 -1 -53 22 -81 23 -27 34
-32 70 -32 72 0 119 61 107 138 -3 22 -5 23 -22 7 -21 -19 -50 -14 -50 8 0 8
7 20 15 27 23 19 0 40 -44 40 -28 0 -44 -7 -66 -30z"></path>
<path class="node" id="node7" d="M1415 2148 c-34 -30 -48 -91 -30 -134 17 -42 51 -64 100 -64 70 0
116 65 100 140 -7 34 -8 34 -34 18 -22 -13 -55 -3 -48 15 20 49 21 47 -21 47
-28 0 -49 -7 -67 -22z"></path>
<path class="node" id="node8" d="M1696 1940 c-62 -40 -85 -124 -51 -189 27 -54 127 -79 171 -43 32 25
54 76 52 119 -1 37 -1 37 -5 6 -3 -19 -18 -47 -37 -68 -27 -29 -41 -35 -73
-35 -69 0 -108 65 -79 134 26 62 103 75 128 21 16 -36 -4 -78 -35 -73 -18 2
-22 9 -20 35 2 26 0 31 -13 26 -8 -3 -20 -17 -25 -31 -24 -63 64 -102 116 -51
15 14 20 32 19 65 -2 86 -77 129 -148 84z"></path>
<path class="node" id="node9" d="M1113 1906 c7 -21 36 -30 63 -21 48 17 40 33 -15 32 -28 -1 -50 -6
-48 -11z"></path>
<path class="node" id="node10" d="M1135 1790 c-3 -5 -24 -14 -46 -20 -30 -8 -38 -14 -31 -23 6 -7 20
-42 32 -79 32 -100 81 -132 131 -85 36 33 91 133 87 159 -3 20 -10 24 -60 28
-31 3 -63 11 -70 18 -14 14 -35 16 -43 2z m135 -72 c0 -25 -18 -32 -36 -14
-21 22 -44 20 -71 -6 -29 -27 -29 -54 -2 -69 18 -9 25 -7 42 10 l20 20 -21 -6
c-15 -4 -22 -1 -22 10 0 22 26 28 41 10 19 -22 -8 -67 -42 -71 -31 -4 -54 26
-64 82 -5 23 -13 36 -24 37 -48 3 45 16 106 15 61 -1 73 -4 73 -18z"></path>
<path class="node" id="node11" d="M700 1641 c0 -23 113 -122 177 -154 69 -35 141 -53 155 -39 8 8 6 13
-8 17 -57 18 -127 59 -189 112 -80 68 -135 94 -135 64z"></path>
<path class="node" id="node12" d="M1785 1463 c17 -41 16 -75 -9 -165 -30 -111 -48 -154 -122 -303 -63
-127 -84 -207 -65 -252 14 -35 86 -93 115 -93 12 0 53 18 91 39 178 99 301
278 265 387 -18 54 -82 56 -111 3 -14 -27 -4 -36 16 -15 21 20 51 21 59 0 3
-9 6 -33 6 -53 0 -75 -108 -202 -246 -289 -59 -37 -79 -40 -94 -12 -6 12 -22
25 -36 30 -24 10 -24 10 -9 47 9 20 42 71 75 113 140 182 179 296 156 458 -6
38 -17 64 -38 88 -32 37 -66 47 -53 17z"></path>
<path class="node" id="node13" d="M687 1452 c-3 -9 -12 -34 -20 -55 l-14 -38 -17 25 c-25 39 -31 32
-28 -30 l4 -56 -31 16 c-29 16 -101 22 -101 10 0 -4 16 -24 35 -46 l36 -39
-64 -122 c-35 -67 -66 -130 -70 -139 -4 -13 10 -28 58 -62 109 -76 100 -76
139 1 18 38 46 81 60 96 29 32 31 39 14 67 -11 17 -8 25 27 60 21 22 40 38 42
37 1 -2 -6 -27 -17 -55 -11 -29 -20 -59 -20 -68 0 -9 -17 -35 -38 -59 -54 -61
-81 -122 -103 -232 -30 -149 -11 -310 46 -393 34 -49 47 -54 101 -35 25 8 63
15 85 15 50 0 102 26 157 80 76 73 87 140 41 237 -25 51 -56 73 -117 79 -57 6
-125 -27 -130 -64 -4 -26 5 -28 28 -7 10 9 34 19 54 22 33 5 41 2 72 -28 29
-28 34 -40 34 -77 0 -75 -54 -138 -156 -183 -84 -37 -141 6 -162 121 -13 73 2
226 30 308 21 60 78 142 99 142 6 0 30 -13 54 -30 58 -40 63 -38 22 10 -66 77
-68 145 -8 270 42 89 111 156 169 163 78 10 68 31 -19 41 l-56 7 -36 -48 c-19
-27 -54 -83 -77 -126 -23 -43 -44 -76 -47 -73 -6 5 34 77 93 169 40 61 42 67
23 67 -12 0 -39 -18 -61 -40 l-41 -40 7 40 c8 50 -10 54 -42 10 -33 -44 -46
-38 -40 15 6 45 -5 70 -15 37z"></path>
<path class="node" id="node14" d="M1037 1332 c-33 -37 -47 -99 -38 -167 11 -73 21 -96 57 -124 52 -41
119 -18 139 47 8 28 -10 30 -25 2 -16 -30 -55 -25 -80 10 -41 57 -35 140 9
140 28 0 110 -96 141 -165 17 -37 32 -95 39 -150 9 -64 21 -106 41 -143 27
-51 28 -55 13 -78 -12 -19 -24 -24 -55 -24 -58 0 -82 17 -199 137 -89 91 -113
123 -147 194 -22 46 -44 101 -47 122 -12 66 -28 43 -20 -30 11 -109 77 -211
227 -349 74 -69 146 -114 181 -114 39 0 87 30 112 70 l26 42 -40 81 c-21 45
-46 109 -55 142 -33 127 -119 301 -174 352 -30 28 -82 30 -105 5z"></path>
<path class="node" id="node15" d="M599 279 c-16 -17 -34 -48 -40 -69 -10 -33 -9 -40 12 -64 12 -14 31
-26 42 -26 10 0 43 -7 72 -15 49 -15 62 -14 176 5 147 24 159 33 158 104 -1
28 -4 62 -9 76 -7 25 -8 24 -24 -12 -9 -21 -16 -46 -16 -56 0 -40 -40 -58
-163 -76 -66 -10 -121 -15 -124 -12 -7 7 39 76 50 76 4 0 7 5 7 10 0 22 -30 8
-64 -30 -20 -22 -45 -40 -56 -40 -11 0 -20 2 -20 5 0 17 35 73 58 92 18 15 22
23 12 23 -24 0 -40 -14 -65 -56 -14 -21 -25 -33 -25 -26 0 20 25 65 49 86 12
11 21 23 21 28 0 17 -23 7 -51 -23z"></path>
<path class="node" id="node16" d="M1747 243 c-47 -25 -49 -25 -110 -12 -100 22 -286 17 -381 -10 -76
-22 -109 -23 -201 -9 -15 2 -20 -3 -20 -22 0 -23 4 -26 70 -34 54 -6 90 -4
158 9 73 15 117 17 255 11 207 -8 216 -10 242 -53 34 -58 78 -69 250 -59 50 3
149 31 165 48 24 24 -64 148 -105 148 -10 0 -27 3 -37 7 -16 6 -16 5 -4 -10 7
-9 19 -17 26 -17 22 0 86 -80 83 -103 -4 -32 -44 -35 -52 -5 -8 29 -66 97 -66
78 0 -8 7 -28 15 -44 26 -50 20 -66 -25 -66 -34 0 -41 4 -46 25 -7 29 -48 65
-74 65 -23 0 -42 -24 -34 -44 7 -17 44 -23 44 -6 0 6 -8 10 -17 10 -13 0 -14
3 -6 11 16 16 41 4 55 -26 8 -17 8 -29 1 -36 -15 -15 -102 8 -140 37 -17 13
-36 24 -42 24 -6 0 -11 6 -11 13 1 21 25 45 71 72 43 24 43 25 14 24 -16 0
-52 -12 -78 -26z"></path>
</g>
<g transform="translate(0.000000,300.000000) scale(0.100000,-0.100000)" fill="#C6C69E" stroke="none">

<path class="node" id="node18" d="M745 1811 c-8 -25 4 -51 24 -51 30 0 43 15 35 43 -8 32 -49 38 -59 8z"></path>
<path class="node" id="node19" d="M721 1740 c19 -29 46 -37 63 -19 8 9 7 11 -6 6 -10 -3 -29 3 -45 16
l-28 22 16 -25z"></path>
<path class="node" id="node20" d="M1100 1730 c-14 -5 -18 -8 -9 -9 11 -1 19 -14 24 -37 10 -56 33 -86
64 -82 34 4 61 49 42 71 -15 18 -41 12 -41 -10 0 -11 7 -14 22 -10 l21 6 -20
-20 c-17 -17 -24 -19 -42 -10 -27 15 -27 42 2 69 27 26 50 28 71 6 18 -18 36
-11 36 14 0 14 -12 17 -73 18 -39 1 -83 -2 -97 -6z"></path>
</g>
</svg>