<!--?xml version="1.0" standalone="no"?-->

<svg version="1.0" xmlns="http://www.w3.org/2000/svg" width="300.000000pt" height="276.000000pt" viewBox="0 0 300.000000 276.000000" preserveAspectRatio="xMidYMid meet">
<g transform="translate(0.000000,276.000000) scale(0.100000,-0.100000)" fill="#252525" stroke="none">
<path stroke-width="20" class="node" id="node1" d="M1830 2698 c0 -7 -18 -40 -40 -73 -22 -33 -49 -73 -60 -90 -11 -16
-27 -55 -36 -85 -29 -105 -37 -130 -46 -130 -4 0 -8 15 -9 33 -2 79 -32 114
-43 50 -6 -39 -40 -103 -53 -103 -25 1 -75 178 -98 343 -3 26 -10 47 -16 47
-13 0 -11 -61 6 -183 16 -117 11 -205 -11 -186 -7 6 -14 20 -16 31 -5 33 -25
32 -36 -2 -6 -16 -17 -30 -24 -30 -19 0 -124 44 -144 61 -16 13 -16 12 -6 -8
9 -17 9 -22 -4 -27 -15 -6 -18 -1 -28 47 -4 17 -2 27 5 27 13 0 -52 122 -69
128 -8 2 -4 -20 12 -60 35 -95 41 -155 21 -225 -30 -103 -31 -104 -58 -92 -14
6 -41 31 -61 55 -44 53 -66 58 -37 8 12 -19 21 -49 21 -65 l0 -30 -32 17 c-18
9 -54 35 -79 58 -81 73 -177 142 -185 133 -4 -4 119 -152 142 -172 15 -13 64
-106 64 -123 0 -9 -7 -8 -25 4 -33 21 -40 13 -26 -27 17 -49 14 -59 -18 -59
-35 0 -119 43 -197 101 -56 42 -140 92 -119 71 6 -5 35 -31 65 -58 87 -76 170
-185 170 -224 0 -15 -27 -12 -56 6 -34 23 -37 15 -13 -34 12 -23 18 -49 15
-58 -5 -14 -10 -13 -40 5 -18 12 -36 21 -40 21 -12 0 -6 -22 14 -47 11 -14 20
-36 20 -49 0 -22 -4 -24 -43 -24 -53 0 -168 31 -233 63 -54 27 -94 41 -94 33
0 -3 28 -21 62 -42 99 -57 182 -119 211 -158 15 -19 27 -37 27 -40 0 -3 -20
-6 -44 -6 -25 0 -47 -4 -50 -9 -3 -5 19 -21 49 -36 30 -14 55 -30 55 -34 0 -9
-69 -31 -98 -31 -11 0 -27 -3 -36 -6 -29 -11 -5 -24 43 -24 55 0 81 -19 56
-40 -36 -30 -125 -77 -175 -92 -31 -10 -65 -24 -75 -33 -20 -14 -19 -14 3 -15
13 0 56 12 96 26 121 43 234 19 134 -28 -42 -20 -52 -44 -15 -34 64 18 97 19
97 3 0 -18 -52 -61 -167 -137 -46 -30 -83 -60 -83 -67 0 -16 5 -16 33 -1 36
19 159 48 207 48 64 0 76 -11 45 -40 -34 -32 -33 -51 3 -44 33 7 61 -18 44
-38 -5 -7 -26 -44 -47 -83 -52 -96 -53 -97 -76 -82 -14 9 -19 23 -19 59 0 82
-55 148 -123 148 -62 0 -146 -71 -147 -122 0 -23 -5 -28 -23 -28 -25 0 -67
-37 -67 -59 0 -8 -13 -12 -38 -11 -79 4 -94 0 -123 -31 -36 -39 -38 -77 -4
-109 l25 -24 -30 -31 c-37 -39 -47 -82 -26 -122 25 -49 61 -66 121 -59 48 5
53 4 63 -19 15 -31 49 -45 113 -45 54 0 106 18 128 43 10 12 18 14 31 7 27
-15 76 -12 90 4 10 13 16 12 43 -5 38 -23 106 -25 146 -5 24 13 35 13 82 1 67
-18 116 -6 125 31 3 13 4 30 1 38 -7 17 25 47 80 75 63 31 67 29 60 -34 -3
-31 -2 -55 4 -55 5 0 20 18 35 39 14 21 34 41 45 44 16 4 19 0 19 -24 0 -31
25 -40 48 -17 6 6 15 9 18 5 9 -9 -30 -167 -50 -209 -28 -54 -16 -79 15 -35
55 75 129 193 129 205 0 17 21 11 32 -9 4 -8 18 -36 30 -64 l22 -50 6 52 c11
97 25 90 110 -49 35 -58 115 -148 131 -148 11 0 12 14 2 23 -3 4 -17 40 -30
80 -24 76 -30 151 -13 162 6 4 34 -19 63 -49 29 -31 56 -56 61 -56 4 0 5 27 1
60 -6 50 -5 60 9 60 8 0 27 -16 42 -35 31 -41 48 -36 39 11 -5 27 -3 34 11 34
18 0 123 -108 186 -192 24 -32 46 -57 51 -58 13 0 7 21 -14 51 -49 69 -89 255
-59 274 9 6 65 -20 109 -52 24 -17 24 -17 19 7 -27 117 -31 140 -26 146 4 3
28 -8 53 -25 67 -45 81 -41 45 14 -23 35 -27 95 -7 95 18 0 76 -44 157 -119
64 -60 156 -118 167 -107 4 4 -7 21 -24 39 -35 38 -66 90 -82 139 -6 19 -27
60 -45 91 l-34 56 29 -6 29 -5 -26 46 c-31 55 -20 59 53 21 58 -31 69 -18 24
29 -17 18 -31 41 -31 52 0 20 2 20 88 8 48 -7 131 -13 185 -13 79 -1 97 2 97
14 0 15 -16 20 -90 29 -66 7 -149 42 -206 85 -73 55 -67 65 39 69 106 3 115
19 27 52 -141 53 -145 97 -10 124 30 6 55 15 55 21 0 5 -20 13 -44 17 -87 15
-90 48 -8 86 94 43 137 62 143 62 4 0 33 16 65 36 59 36 79 62 37 49 -167 -50
-240 -62 -307 -49 -44 9 -39 27 19 69 28 20 50 40 50 44 0 4 -34 7 -77 6 -48
0 -78 4 -80 11 -2 6 8 26 23 44 31 36 23 50 -33 50 -17 0 -35 5 -38 10 -4 6
41 58 99 115 58 57 106 109 106 114 0 6 23 29 51 51 46 36 56 40 105 39 69 -2
87 16 79 79 -3 31 -1 44 9 48 21 8 28 33 15 55 -14 28 -68 59 -101 59 -19 0
-28 5 -28 15 0 9 -13 24 -30 33 -21 12 -30 25 -30 42 0 63 -78 128 -135 114
-32 -8 -75 -59 -75 -88 0 -32 -30 -56 -71 -56 -42 0 -59 -15 -59 -51 0 -15 -5
-31 -11 -35 -6 -3 -9 -15 -6 -25 3 -10 -1 -23 -9 -30 -19 -16 -18 -32 7 -63
15 -20 18 -30 10 -40 -13 -16 -106 -61 -144 -70 l-28 -7 26 50 c14 28 25 58
25 67 0 15 -3 15 -23 -4 -13 -12 -38 -27 -57 -33 -30 -11 -35 -10 -50 9 -10
11 -20 38 -24 59 -16 99 -94 157 -173 130 -20 -7 -23 -5 -23 17 0 34 -19 33
-47 -1 l-22 -28 -1 43 c0 24 10 66 23 95 40 88 70 205 63 243 -7 32 -26 48
-26 22z m-16 -159 c-45 -122 -57 -156 -59 -176 -2 -11 -6 -30 -9 -40 -3 -10 0
-28 8 -39 14 -19 15 -19 40 5 14 14 26 20 26 14 0 -6 -7 -16 -16 -23 -24 -21
-134 -177 -134 -191 0 -19 47 29 91 93 42 61 75 88 129 107 30 10 38 9 60 -7
39 -28 68 -97 88 -212 13 -70 22 -99 27 -87 4 10 5 36 1 57 -5 31 -3 40 8 40
7 0 29 3 47 6 l34 7 -22 -22 c-26 -25 -28 -32 -11 -49 18 -18 49 -15 104 12
27 13 51 22 53 20 3 -3 -12 -21 -32 -42 -48 -49 -49 -72 -2 -72 33 0 34 -1 25
-26 -13 -32 -13 -30 6 -48 27 -28 113 -21 180 14 l59 31 -77 -76 c-43 -42 -78
-84 -78 -94 0 -25 20 -41 51 -41 35 0 45 -16 19 -30 -46 -24 -12 -75 58 -86
l42 -7 -32 -24 c-18 -13 -33 -31 -33 -40 0 -26 70 -45 153 -41 39 2 72 2 72 0
0 -1 -42 -22 -94 -46 -51 -24 -96 -49 -100 -55 -12 -19 4 -50 32 -65 l26 -14
-43 -13 c-50 -15 -73 -48 -50 -75 7 -9 35 -28 62 -44 50 -28 47 -40 -9 -40
-36 0 -64 -18 -64 -39 0 -10 17 -34 38 -53 34 -31 66 -49 172 -96 22 -9 22
-11 5 -11 -11 -1 -65 6 -120 14 -88 14 -101 13 -114 0 -12 -12 -13 -21 -4 -44
l10 -29 -40 6 -40 5 6 -36 c5 -34 4 -37 -19 -37 -34 0 -31 -26 7 -57 25 -21
129 -212 129 -237 0 -4 -48 36 -107 88 -114 102 -141 114 -168 72 -12 -18 -13
-30 -6 -50 12 -29 3 -33 -30 -15 -28 15 -63 -15 -49 -42 6 -10 10 -34 10 -54
l0 -35 -39 20 c-45 23 -68 18 -82 -17 -13 -36 -11 -71 11 -133 10 -30 17 -56
16 -58 -2 -1 -23 22 -48 52 -25 30 -60 67 -78 82 l-33 28 -21 -25 -22 -25 -26
19 c-39 29 -61 16 -56 -33 2 -22 1 -40 -2 -40 -3 0 -21 16 -40 35 -76 78 -114
11 -75 -135 8 -30 13 -56 11 -57 -2 -2 -16 13 -32 33 -16 20 -34 42 -39 48 -6
6 -26 41 -45 79 -19 37 -40 67 -47 67 -22 0 -43 -12 -43 -25 0 -26 -20 -26
-31 -1 -14 30 -37 40 -55 25 -7 -6 -30 -40 -50 -76 -20 -35 -37 -63 -39 -61
-6 6 15 102 25 112 15 15 12 52 -6 67 -12 10 -20 10 -35 1 -22 -14 -32 -15
-25 -3 10 15 -5 41 -24 41 -9 0 -29 -9 -42 -20 l-26 -20 -5 29 c-9 44 -32 45
-113 2 -41 -21 -74 -36 -74 -33 0 3 14 30 31 60 37 66 36 106 -3 110 -22 3
-26 8 -25 30 3 39 -42 42 -95 7 -47 -31 -56 -28 -28 8 27 34 52 95 45 107 -4
6 -17 10 -31 10 -17 0 -24 5 -24 20 0 11 -6 23 -14 26 -15 6 -70 -18 -99 -44
-31 -27 -28 -7 10 73 l37 78 -23 18 c-19 15 -20 21 -9 38 11 17 10 23 -5 38
-14 15 -35 18 -106 18 l-89 0 74 53 c58 42 74 59 74 79 0 16 -7 27 -20 30 -13
3 -20 14 -20 28 0 28 -39 55 -77 55 l-28 0 32 19 c40 25 54 50 42 73 -8 14 -4
23 17 42 34 28 27 52 -18 69 l-33 11 30 6 c53 9 44 40 -31 108 l-66 60 43 -9
c24 -4 60 -13 79 -19 32 -9 37 -8 58 16 16 19 22 34 18 50 -5 20 -3 24 19 24
29 0 43 36 26 68 -10 18 -8 21 17 24 24 3 27 7 26 39 -1 23 -13 53 -33 83 -35
51 -33 56 10 25 74 -52 139 -45 139 16 0 29 4 35 20 35 47 0 30 52 -50 150
-20 25 -40 52 -45 60 -10 17 -17 22 99 -69 43 -34 86 -61 95 -59 10 2 18 17
21 37 l5 33 19 -21 c11 -11 25 -21 33 -21 9 0 13 -14 13 -44 0 -24 6 -48 13
-55 12 -9 15 8 21 100 9 147 31 189 101 189 59 0 166 -88 231 -192 23 -35 44
-50 44 -29 0 12 -82 122 -104 140 -25 21 -37 47 -30 65 8 22 21 20 29 -4 9
-27 41 -26 49 3 3 12 6 40 6 62 l1 40 25 -60 c14 -33 30 -64 34 -69 17 -18 58
4 76 41 l19 38 3 -32 c3 -34 25 -59 42 -48 21 13 47 82 53 139 5 51 14 71 59
137 49 72 53 76 56 50 2 -15 -4 -48 -14 -72z m786 -89 c37 -40 46 -80 25 -119
-13 -27 -13 -31 -1 -31 8 0 18 5 21 10 9 15 45 12 51 -4 3 -8 0 -24 -6 -37
-13 -24 -18 -23 55 -4 25 7 85 -29 85 -50 0 -9 -12 -20 -26 -25 -21 -8 -24
-13 -15 -24 6 -7 12 -31 14 -52 2 -38 1 -39 -36 -42 -23 -2 -48 3 -62 12 -30
20 -39 20 -31 1 3 -9 0 -15 -9 -15 -8 0 -18 -6 -22 -12 -4 -7 -20 -24 -35 -36
-35 -31 -60 -23 -84 28 -22 46 -31 49 -44 15 -11 -29 -32 -32 -51 -9 -11 13
-10 17 4 25 28 16 20 32 -13 26 -22 -5 -30 -3 -30 8 0 7 5 17 10 20 15 9 12
25 -5 25 -8 0 -15 -4 -15 -9 0 -18 -33 -21 -51 -5 -23 21 -25 64 -4 64 8 0 15
6 15 14 0 8 5 16 11 18 8 3 8 10 -2 26 -26 42 10 67 69 48 16 -6 22 -3 22 8 0
9 5 15 12 14 8 -2 15 14 18 43 6 50 22 76 55 89 34 14 46 11 75 -20z m-216
-376 c9 -8 16 -20 16 -24 0 -5 11 -17 25 -26 22 -14 30 -15 50 -4 21 11 26 10
49 -16 l26 -29 -36 -32 c-49 -43 -157 -85 -190 -73 -29 11 -29 18 -7 65 21 43
13 51 -34 37 -20 -6 -39 -10 -41 -8 -5 5 109 126 118 126 5 0 16 -7 24 -16z
m-1877 -1182 c43 -57 53 -113 27 -150 -8 -12 -12 -27 -8 -33 5 -8 9 -7 14 1
12 20 40 3 40 -24 l0 -24 37 19 c67 34 153 18 153 -28 0 -14 -23 -51 -55 -90
-30 -36 -52 -70 -49 -75 3 -5 30 14 59 41 59 56 102 66 137 34 22 -20 24 -49
3 -57 -23 -9 -18 -35 10 -46 23 -9 24 -13 19 -57 -4 -26 -10 -52 -15 -57 -10
-11 -53 0 -72 18 -12 13 -21 11 -62 -10 -68 -34 -100 -32 -141 11 -37 40 -44
42 -44 16 0 -27 -24 -43 -54 -35 -14 3 -26 10 -26 15 0 19 -33 8 -59 -20 -32
-34 -100 -47 -161 -31 -39 10 -41 13 -38 43 3 36 -3 37 -76 19 -67 -18 -116
15 -116 77 0 51 33 86 89 95 50 8 52 31 3 31 -21 1 -42 10 -60 28 -26 26 -26
29 -12 55 15 26 19 27 105 28 l90 0 0 35 c0 28 4 35 23 37 13 2 30 -2 37 -8
20 -16 30 9 21 52 -8 42 25 95 67 107 41 13 98 4 114 -17z m255 -125 c-12 -13
-22 -29 -22 -35 0 -13 -15 -14 -43 -3 -18 6 -18 7 0 22 47 42 101 54 65 16z
m66 -47 c-14 -41 -24 -45 -53 -22 -27 22 -22 33 26 50 33 13 40 7 27 -28z m81
-99 c-10 -29 -15 -32 -38 -26 -46 11 -46 24 0 44 24 11 45 19 46 17 2 -2 -2
-17 -8 -35z m61 -47 c0 -19 -51 -104 -62 -104 -15 0 -16 18 -4 55 18 52 66 87
66 49z m-40 -214 c0 -5 -5 -10 -11 -10 -5 0 -7 5 -4 10 3 6 8 10 11 10 2 0 4
-4 4 -10z"></path>
<path class="node" id="node2" d="M1303 2004 c-40 -20 -88 -111 -104 -199 -26 -138 18 -298 109 -397
21 -23 35 -28 70 -28 36 0 50 6 77 33 34 34 65 115 65 171 0 36 -25 175 -41
226 -24 76 -80 176 -108 193 -35 20 -29 20 -68 1z m80 -46 c26 -35 59 -129 77
-218 16 -74 24 -210 14 -210 -5 0 -17 18 -26 40 -23 57 -73 78 -124 54 -20 -9
-43 -28 -52 -42 l-16 -25 -12 34 c-7 19 -13 81 -13 138 -1 119 23 207 67 241
35 28 57 25 85 -12z m-38 -448 c0 -31 -3 -35 -25 -35 -19 0 -26 6 -28 23 -5
36 5 54 30 50 19 -2 23 -9 23 -38z"></path>
<path class="node" id="node3" d="M1823 1989 c-50 -32 -117 -146 -143 -246 -40 -146 -20 -273 51 -338
46 -41 58 -43 103 -13 119 78 184 371 116 526 -22 50 -60 92 -84 92 -6 0 -25
-10 -43 -21z m85 -60 c14 -28 28 -83 34 -137 11 -83 10 -97 -11 -173 -21 -82
-41 -122 -41 -86 0 10 -9 35 -19 56 -35 68 -107 77 -156 19 l-25 -30 0 45 c0
62 37 203 68 260 31 58 77 99 106 95 14 -2 29 -19 44 -49z m-138 -423 c0 -41
-16 -55 -37 -33 -21 21 -9 67 17 67 16 0 20 -7 20 -34z"></path>
<path class="node" id="node4" d="M1054 1394 c-40 -20 -97 -79 -92 -95 3 -8 11 -5 26 11 12 13 22 18
22 11 0 -28 157 -348 210 -429 49 -75 159 -193 206 -222 49 -31 196 -39 258
-16 56 22 237 206 286 292 19 32 44 74 56 91 12 18 37 62 55 98 28 56 34 63
50 54 30 -15 24 13 -8 43 -33 31 -93 68 -110 68 -22 0 -14 -16 13 -29 38 -17
27 -40 -45 -88 -97 -64 -302 -133 -399 -133 -132 0 -321 109 -446 258 -45 53
-53 69 -45 84 12 22 4 22 -37 2z"></path>
</g>
<g transform="translate(0.000000,276.000000) scale(0.100000,-0.100000)" fill="#FFFFFF" stroke="none">

<path class="node" id="node6" d="M1772 2561 c-45 -66 -54 -86 -59 -137 -6 -57 -32 -126 -53 -139 -17
-11 -39 14 -42 48 l-3 32 -19 -38 c-18 -37 -59 -59 -76 -41 -4 5 -20 36 -34
69 l-25 60 -1 -40 c0 -22 -3 -50 -6 -62 -8 -29 -40 -30 -49 -3 -8 24 -21 26
-29 4 -7 -18 5 -44 30 -65 22 -18 104 -128 104 -140 0 -21 -21 -6 -44 29 -65
104 -172 192 -231 192 -70 0 -92 -42 -101 -189 -6 -92 -9 -109 -21 -100 -7 7
-13 31 -13 55 0 30 -4 44 -13 44 -8 0 -22 10 -33 21 l-19 21 -5 -33 c-3 -20
-11 -35 -21 -37 -9 -2 -52 25 -95 59 -116 91 -109 86 -99 69 5 -8 25 -35 45
-60 80 -98 97 -150 50 -150 -16 0 -20 -6 -20 -35 0 -61 -65 -68 -139 -16 -43
31 -45 26 -10 -25 20 -30 32 -60 33 -83 1 -32 -2 -36 -26 -39 -25 -3 -27 -6
-17 -24 17 -32 3 -68 -26 -68 -22 0 -24 -4 -19 -24 4 -16 -2 -31 -18 -50 -21
-24 -26 -25 -58 -16 -19 6 -55 15 -79 19 l-43 9 66 -60 c75 -68 84 -99 31
-108 l-30 -6 33 -11 c45 -17 52 -41 18 -69 -21 -19 -25 -28 -17 -42 12 -23 -2
-48 -42 -73 l-32 -19 28 0 c38 0 77 -27 77 -55 0 -14 7 -25 20 -28 13 -3 20
-14 20 -30 0 -20 -16 -37 -74 -79 l-74 -53 89 0 c71 0 92 -3 106 -18 15 -15
16 -21 5 -38 -11 -17 -10 -23 9 -38 l23 -18 -37 -78 c-38 -80 -41 -100 -10
-73 29 26 84 50 99 44 8 -3 14 -15 14 -26 0 -15 7 -20 24 -20 14 0 27 -4 31
-10 7 -12 -18 -73 -45 -107 -28 -36 -19 -39 28 -8 53 35 98 32 95 -7 -1 -22 3
-27 25 -30 39 -4 40 -44 3 -110 -17 -30 -31 -57 -31 -60 0 -3 33 12 74 33 81
43 104 42 113 -2 l5 -29 26 20 c13 11 33 20 42 20 19 0 34 -26 24 -41 -7 -12
3 -11 25 3 15 9 23 9 35 -1 18 -15 21 -52 6 -67 -10 -10 -31 -106 -25 -112 2
-2 19 26 39 61 20 36 43 70 50 76 18 15 41 5 55 -25 11 -25 31 -25 31 1 0 13
21 25 43 25 7 0 28 -30 47 -67 19 -38 39 -73 45 -79 5 -6 23 -28 39 -48 16
-20 30 -35 32 -33 2 1 -3 27 -11 57 -39 146 -1 213 75 135 19 -19 37 -35 40
-35 3 0 4 18 2 40 -5 49 17 62 56 33 l26 -19 22 25 21 25 33 -28 c18 -15 53
-52 78 -82 25 -30 46 -53 48 -52 1 2 -6 28 -16 58 -22 62 -24 97 -11 133 14
35 37 40 82 17 l39 -20 0 35 c0 20 -4 44 -10 54 -14 27 21 57 49 42 33 -18 42
-14 30 15 -7 20 -6 32 6 50 27 42 54 30 168 -72 59 -52 107 -92 107 -88 0 25
-104 216 -129 237 -38 31 -41 57 -7 57 23 0 24 3 19 37 l-6 36 40 -5 40 -6
-10 29 c-9 23 -8 32 4 44 13 13 26 14 114 0 55 -8 109 -15 120 -14 17 0 17 2
-5 11 -106 47 -138 65 -172 96 -21 19 -38 43 -38 53 0 21 28 39 64 39 56 0 59
12 9 40 -27 16 -55 35 -62 44 -23 27 0 60 50 75 l43 13 -26 14 c-28 15 -44 46
-32 65 4 6 49 31 100 55 52 24 94 45 94 46 0 2 -33 2 -72 0 -83 -4 -153 15
-153 41 0 9 15 27 33 40 l32 24 -42 7 c-70 11 -104 62 -58 86 26 14 16 30 -19
30 -31 0 -51 16 -51 41 0 10 35 52 78 94 l77 76 -59 -31 c-67 -35 -153 -42
-180 -14 -19 18 -19 16 -6 48 9 25 8 26 -25 26 -47 0 -46 23 2 72 20 21 35 39
32 42 -2 2 -26 -7 -53 -20 -55 -27 -86 -30 -104 -12 -17 17 -15 24 11 49 l22
22 -34 -7 c-18 -3 -40 -6 -47 -6 -11 0 -13 -9 -8 -40 4 -21 3 -47 -1 -57 -5
-12 -14 17 -27 87 -20 115 -49 184 -88 212 -22 16 -30 17 -60 7 -54 -19 -87
-46 -129 -107 -44 -64 -91 -112 -91 -93 0 14 110 170 134 191 9 7 16 17 16 23
0 6 -12 0 -26 -14 -25 -24 -26 -24 -40 -5 -8 11 -11 29 -8 39 3 10 7 29 9 40
2 20 14 54 59 176 10 24 16 57 14 72 -3 26 -7 22 -56 -50z m-401 -558 c28 -17
84 -117 108 -193 16 -51 41 -190 41 -226 0 -56 -31 -137 -65 -171 -27 -27 -41
-33 -77 -33 -35 0 -49 5 -70 28 -91 99 -135 259 -109 397 16 88 64 179 104
199 39 19 33 19 68 -1z m531 -13 c14 -10 36 -43 48 -72 68 -155 3 -448 -116
-526 -45 -30 -57 -28 -103 13 -71 65 -91 192 -51 338 26 100 93 214 143 246
40 26 48 26 79 1z m-811 -598 c-20 -37 150 -208 273 -275 63 -35 168 -67 218
-67 97 0 302 69 399 133 72 48 83 71 45 88 -27 13 -35 29 -13 29 17 0 77 -37
110 -68 32 -30 38 -58 8 -43 -16 9 -22 2 -50 -54 -18 -36 -43 -80 -55 -98 -12
-17 -37 -59 -56 -91 -49 -86 -230 -270 -286 -292 -62 -23 -209 -15 -258 16
-47 29 -157 147 -206 222 -53 81 -210 401 -210 429 0 7 -10 2 -22 -11 -15 -16
-23 -19 -26 -11 -5 16 52 75 92 95 41 20 49 20 37 -2z"></path>
<path class="node" id="node7" d="M1298 1970 c-44 -34 -68 -122 -67 -241 0 -57 6 -119 13 -138 l12 -34
16 25 c9 14 32 33 52 42 51 24 101 3 124 -54 9 -22 21 -40 26 -40 10 0 2 136
-14 210 -29 143 -81 250 -119 250 -10 0 -29 -9 -43 -20z"></path>
<path class="node" id="node8" d="M1294 1536 c-3 -8 -4 -25 -2 -38 2 -17 9 -23 28 -23 22 0 25 4 25 35
0 29 -4 36 -23 38 -13 2 -24 -3 -28 -12z"></path>
<path class="node" id="node9" d="M1813 1956 c-16 -13 -41 -46 -55 -73 -31 -57 -68 -198 -68 -260 l0
-45 25 30 c49 58 121 49 156 -19 10 -21 19 -46 19 -56 0 -36 20 4 41 86 21 76
22 90 11 173 -13 104 -45 181 -78 186 -12 2 -34 -8 -51 -22z"></path>
<path class="node" id="node10" d="M1724 1514 c-4 -17 -1 -31 9 -41 21 -22 37 -8 37 33 0 27 -4 34 -20
34 -13 0 -22 -9 -26 -26z"></path>
<path class="node" id="node11" d="M2525 2470 c-33 -13 -49 -39 -55 -89 -3 -29 -10 -45 -18 -43 -7 1
-12 -5 -12 -14 0 -11 -6 -14 -22 -8 -59 19 -95 -6 -69 -48 10 -16 10 -23 2
-26 -6 -2 -11 -10 -11 -18 0 -8 -7 -14 -15 -14 -21 0 -19 -43 4 -64 18 -16 51
-13 51 5 0 5 7 9 15 9 17 0 20 -16 5 -25 -5 -3 -10 -13 -10 -20 0 -11 8 -13
30 -8 33 6 41 -10 13 -26 -14 -8 -15 -12 -4 -25 19 -23 40 -20 51 9 13 34 22
31 44 -15 24 -51 49 -59 84 -28 15 12 31 29 35 36 4 6 14 12 22 12 9 0 12 6 9
15 -8 19 1 19 31 -1 14 -9 39 -14 62 -12 37 3 38 4 36 42 -2 21 -8 45 -14 52
-9 11 -6 16 15 24 14 5 26 16 26 25 0 21 -60 57 -85 50 -73 -19 -68 -20 -55 4
6 13 9 29 6 37 -6 16 -42 19 -51 4 -3 -5 -13 -10 -21 -10 -12 0 -12 4 1 31 21
39 12 79 -25 119 -29 31 -41 34 -75 20z"></path>

<path class="node" id="node13" d="M393 909 c-42 -12 -75 -65 -67 -107 9 -43 -1 -68 -21 -52 -7 6 -24
10 -37 8 -19 -2 -23 -9 -23 -37 l0 -35 -90 0 c-86 -1 -90 -2 -105 -28 -14 -26
-14 -29 12 -55 18 -18 39 -27 60 -28 49 0 47 -23 -3 -31 -56 -9 -89 -44 -89
-95 0 -62 49 -95 116 -77 73 18 79 17 76 -19 -3 -30 -1 -33 38 -43 61 -16 129
-3 161 31 26 28 59 39 59 20 0 -5 12 -12 26 -15 30 -8 54 8 54 35 0 26 7 24
44 -16 41 -43 73 -45 141 -11 41 21 50 23 62 10 19 -18 62 -29 72 -18 5 5 11
31 15 57 5 44 4 48 -19 57 -28 11 -33 37 -10 46 21 8 19 37 -3 57 -35 32 -78
22 -137 -34 -29 -27 -56 -46 -59 -41 -3 5 19 39 49 75 32 39 55 76 55 90 0 46
-86 62 -153 28 l-37 -19 0 24 c0 27 -28 44 -40 24 -5 -8 -9 -9 -14 -1 -4 6 0
21 8 33 26 37 16 93 -27 150 -16 21 -73 30 -114 17z"></path>




<path class="node" id="node18" d="M915 360 c-3 -5 -1 -10 4 -10 6 0 11 5 11 10 0 6 -2 10 -4 10 -3 0
-8 -4 -11 -10z"></path>
</g>
</svg>