<!--?xml version="1.0" standalone="no"?--><svg version="1.0" xmlns="http://www.w3.org/2000/svg" width="275.000000pt" height="300.000000pt" viewBox="0 0 275.000000 300.000000" preserveAspectRatio="xMidYMid meet">
<metadata>
  <rdf:rdf xmlns:rdf="http://www.w3.org/1999/02/22-rdf-syntax-ns#" xmlns:rdfs="http://www.w3.org/2000/01/rdf-schema#" xmlns:dc="http://purl.org/dc/elements/1.1/">
    <rdf:description dc:title="Valentine cute love" dc:publisher="Hiox" dc:date="2016-02-12" dc:format="image/svg+xml" dc:language="en">
      <dc:creator>
        <rdf:bag>
          <rdf:li>svgimages.com</rdf:li>
        </rdf:bag>
      </dc:creator>
    </rdf:description>
  </rdf:rdf>
</metadata>
<g transform="translate(0.000000,300.000000) scale(0.100000,-0.100000)" fill="#98BA91" stroke="none">













</g>
<g transform="translate(0.000000,300.000000) scale(0.100000,-0.100000)" fill="#544089" stroke="none">


<path d="M1168 2965 c-55 -31 -73 -109 -43 -183 14 -33 216 -242 234 -242 4 0
48 38 99 85 66 63 99 102 121 147 36 71 38 101 11 145 -54 89 -170 81 -212
-14 -15 -34 -22 -42 -29 -32 -5 8 -9 21 -9 30 0 8 -13 28 -29 43 -36 35 -102
44 -143 21z" id="node16" class="node"></path>
<path d="M550 2554 c-94 -21 -158 -43 -219 -77 -234 -132 -375 -479 -279 -688
26 -57 77 -123 110 -140 18 -10 18 -7 12 53 -5 52 9 178 20 178 2 0 21 -17 43
-38 29 -28 59 -44 114 -60 112 -33 115 -32 69 34 -59 84 -69 165 -12 97 54
-63 112 -102 193 -128 44 -14 98 -25 121 -25 l40 0 -51 56 c-52 56 -97 131
-87 141 3 4 27 -14 53 -38 92 -86 218 -138 334 -139 l46 0 -41 43 c-45 47 -94
132 -83 143 26 27 227 -156 274 -249 23 -46 32 -56 40 -45 20 24 61 152 74
230 12 73 11 83 -14 184 -32 132 -69 196 -167 294 -95 94 -160 133 -280 165
-108 28 -206 31 -310 9z" id="node17" class="node"></path>
<path d="M1886 2524 c-179 -40 -343 -170 -423 -335 -58 -119 -80 -260 -64
-404 l8 -70 2 100 c2 116 18 194 60 285 77 171 224 299 409 357 76 23 93 25
200 20 244 -11 416 -110 529 -302 57 -96 75 -158 80 -276 7 -139 -12 -228 -70
-329 -23 -40 -47 -75 -54 -77 -6 -3 -18 8 -26 23 l-14 26 -21 -34 c-22 -35
-120 -136 -157 -161 -11 -8 -42 -26 -68 -40 l-49 -25 27 -18 c30 -20 108 -29
160 -20 35 7 36 8 21 25 -18 20 -20 49 -6 71 9 13 12 12 25 -5 40 -57 58 -67
111 -63 30 3 66 14 89 28 35 22 36 24 17 31 -65 24 -66 112 -6 299 35 108 37
123 37 245 1 154 -13 219 -75 339 -72 137 -213 255 -362 302 -74 23 -291 28
-380 8z" id="node18" class="node"></path>
<path d="M1930 2450 c-86 -15 -224 -89 -303 -162 -159 -148 -235 -399 -182
-603 10 -38 23 -83 30 -99 l13 -30 26 56 c42 88 123 173 269 282 21 15 41 25
45 22 11 -12 -28 -72 -85 -130 l-55 -56 34 0 c114 0 248 51 327 125 91 85 85
39 -12 -84 l-50 -64 53 7 c90 12 153 42 224 108 37 33 69 58 71 56 10 -9 -18
-74 -47 -110 l-29 -38 34 0 c49 0 112 25 159 61 l40 32 -7 -45 c-5 -30 -1 -64
10 -104 20 -70 55 -154 64 -154 12 0 62 100 87 172 52 155 23 352 -76 503 -79
121 -213 215 -350 244 -77 16 -224 22 -290 11z" id="node19" class="node"></path>
<path d="M970 1922 c0 -18 58 -89 101 -122 l43 -35 -44 -7 c-107 -18 -275 33
-364 111 l-29 26 20 -30 c12 -16 40 -48 62 -70 23 -21 41 -43 41 -47 0 -14
-123 -9 -185 7 -66 17 -112 43 -167 93 -65 58 -39 5 36 -75 l30 -33 -50 0
c-91 0 -182 32 -243 84 l-23 21 3 -121 c4 -120 4 -121 40 -175 75 -113 197
-204 317 -236 78 -21 222 -21 297 1 79 23 179 83 237 143 52 54 118 157 118
185 0 33 -47 114 -101 172 -52 58 -139 125 -139 108z m-513 -198 c29 -8 54
-47 55 -85 1 -37 -30 -81 -63 -90 -89 -22 -145 103 -72 161 27 21 43 24 80 14z
m555 -5 c26 -14 48 -67 41 -101 -15 -76 -116 -96 -156 -29 -25 42 -21 74 12
110 31 33 66 40 103 20z m-231 -262 c-4 -12 -20 -30 -34 -41 -36 -26 -84 -13
-110 32 -17 28 -17 32 -3 32 9 0 16 -7 16 -15 0 -21 43 -39 75 -31 14 4 31 18
37 31 13 30 30 23 19 -8z" id="node20" class="node" stroke-width="20"></path>
<path d="M376 1678 c-9 -12 -16 -33 -16 -45 0 -53 78 -84 113 -45 21 23 22 76
1 96 -24 24 -80 20 -98 -6z" id="node21" class="node"></path>
<path d="M923 1688 c-19 -24 -22 -48 -12 -78 22 -63 111 -47 117 22 2 23 -3
41 -13 52 -19 19 -78 21 -92 4z" id="node22" class="node"></path>
<path d="M1701 1803 c-78 -61 -161 -164 -161 -198 0 -35 71 -135 141 -198 76
-69 89 -77 198 -112 72 -24 95 -27 170 -23 186 10 346 104 439 257 19 32 19
34 2 84 -10 29 -21 76 -25 105 -5 41 -10 50 -20 42 -7 -6 -38 -21 -70 -34 -54
-22 -56 -24 -38 -37 47 -33 55 -84 19 -126 l-24 -28 31 -15 c40 -19 47 -52 15
-74 -29 -20 -67 -20 -96 0 -28 19 -28 49 0 68 l22 16 -25 0 c-67 0 -98 101
-45 146 25 22 25 24 7 24 -26 0 -26 8 -2 34 10 12 27 35 37 51 l19 30 -34 -28
c-57 -47 -147 -87 -225 -99 -40 -6 -82 -8 -92 -4 -17 7 -16 10 12 34 17 15 46
45 65 67 28 33 29 37 9 22 -52 -35 -87 -51 -173 -77 -80 -24 -86 -27 -64 -37
53 -24 51 -120 -2 -151 l-28 -16 26 -23 26 -23 -29 -26 c-24 -21 -36 -25 -65
-20 -19 3 -44 14 -55 25 -19 20 -19 21 -2 40 10 11 27 23 38 27 17 5 17 7 -6
25 -47 37 -41 104 13 146 13 10 9 12 -26 13 -24 0 -43 3 -43 8 0 4 25 27 55
52 48 39 94 90 81 90 -2 0 -36 -25 -75 -57z m262 -363 c3 -11 17 -25 31 -31
34 -16 76 2 76 31 0 11 7 20 15 20 20 0 19 -23 -2 -49 -27 -33 -82 -38 -116
-11 -15 12 -27 30 -27 41 0 25 16 25 23 -1z" id="node23" class="node" stroke-width="20"></path>

<path d="M1262 1662 c-18 -31 -42 -72 -53 -89 -12 -18 -17 -33 -11 -33 23 0
95 64 108 97 15 34 12 83 -4 83 -4 0 -22 -26 -40 -58z" id="node25" class="node"></path>
<path d="M55 1690 c-10 -31 29 -107 66 -129 36 -22 87 -36 96 -27 10 10 -32
65 -94 121 -55 50 -62 53 -68 35z" id="node26" class="node"></path>
<path d="M1411 1695 c0 -11 4 -38 9 -60 27 -119 28 -131 18 -173 -15 -60 -57
-100 -111 -104 l-42 -3 49 -32 c27 -18 64 -36 82 -39 43 -8 97 11 133 46 16
16 31 26 35 23 14 -14 5 -52 -19 -77 -14 -15 -25 -30 -25 -33 0 -3 39 -3 88
-1 82 5 172 30 172 48 0 5 -24 22 -52 39 -63 36 -154 127 -197 196 l-30 50 -7
-33 c-4 -18 -10 -34 -14 -37 -9 -6 -58 98 -75 160 -7 28 -13 41 -14 30z" id="node27" class="node"></path>
<path d="M1718 1676 c-30 -15 -37 -79 -12 -107 28 -30 74 -22 97 18 18 31 18
34 1 62 -20 33 -53 43 -86 27z" id="node28" class="node"></path>
<path d="M2247 1662 c-22 -25 -21 -75 1 -95 24 -22 65 -21 85 1 21 23 22 76 1
96 -21 22 -67 20 -87 -2z" id="node29" class="node"></path>
<path d="M1698 1503 c-24 -6 -23 -30 3 -43 25 -14 75 -4 83 16 9 23 -41 39
-86 27z" id="node30" class="node"></path>
<path d="M2292 1496 c-22 -12 -23 -14 -7 -29 19 -19 57 -22 86 -7 26 14 24 25
-6 38 -32 15 -44 15 -73 -2z" id="node31" class="node"></path>

<path d="M493 1272 c-17 -15 -62 -67 -99 -117 -37 -49 -79 -103 -94 -120 -97
-105 -104 -115 -94 -143 11 -31 67 -72 100 -72 15 0 33 16 59 51 20 28 55 74
79 103 38 47 44 62 69 181 15 70 24 132 19 137 -4 4 -22 -4 -39 -20z" id="node33" class="node"></path>
<path d="M2450 1291 c0 -10 29 -36 34 -30 1 2 -6 12 -16 22 -10 9 -18 13 -18
8z" id="node34" class="node"></path>
<path d="M820 1259 c-68 -57 -144 -62 -214 -14 -20 14 -39 25 -41 25 -2 0 -9
-26 -15 -57 -19 -97 -80 -323 -110 -413 -20 -59 -26 -88 -19 -96 14 -18 124
-41 250 -54 93 -9 118 -8 205 9 55 11 109 23 121 28 l22 8 -39 115 c-52 153
-97 321 -106 395 -9 84 -13 88 -54 54z m-70 -114 c7 -8 13 -26 13 -40 0 -34
-20 -55 -54 -55 -52 0 -77 53 -42 92 20 22 66 24 83 3z m-20 -155 c33 -18 44
-48 26 -75 -21 -32 -52 -40 -81 -21 -33 21 -34 69 -3 90 26 19 33 19 58 6z" id="node35" class="node"></path>
<path d="M681 1126 c-15 -18 -6 -52 16 -60 23 -9 44 13 41 43 -4 30 -38 40
-57 17z" id="node36" class="node" stroke-width="20"></path>
<path d="M680 965 c-10 -12 -10 -21 -1 -41 13 -28 38 -29 55 -1 22 35 -27 74
-54 42z" id="node37" class="node" stroke-width="20"></path>
<path d="M600 1273 c0 -6 49 -27 78 -34 35 -8 87 3 115 23 14 11 -1 13 -88 13
-58 0 -105 -1 -105 -2z" id="node38" class="node"></path>
<path d="M893 1249 c3 -19 9 -61 13 -94 9 -81 17 -100 60 -138 52 -45 215
-157 230 -157 24 0 73 51 85 87 10 33 10 38 -6 48 -85 51 -202 134 -260 185
-38 34 -83 71 -99 83 l-29 20 6 -34z" id="node39" class="node"></path>
<path d="M1900 1237 c0 -38 32 -43 77 -13 29 20 33 26 18 26 -11 0 -37 3 -57
6 -36 6 -38 5 -38 -19z" id="node40" class="node"></path>
<path d="M2075 1251 l-40 -6 30 -21 c51 -36 73 -39 81 -10 3 14 3 30 -1 35 -7
12 -7 12 -70 2z" id="node41" class="node"></path>
<path d="M1829 1234 c-17 -21 -123 -72 -166 -80 -18 -3 -33 -12 -33 -18 0 -28
59 -103 94 -120 21 -10 39 -16 40 -14 2 1 17 39 34 83 54 142 64 189 31 149z" id="node42" class="node"></path>
<path d="M2190 1223 c1 -32 66 -207 79 -211 25 -8 72 22 101 66 16 25 30 51
30 58 0 7 -31 22 -68 33 -37 12 -85 33 -105 47 -33 22 -37 23 -37 7z" id="node43" class="node"></path>
<path d="M1851 1163 c-59 -168 -165 -370 -263 -500 l-47 -62 32 -20 c56 -34
189 -81 276 -96 108 -19 292 -19 384 0 71 14 231 75 250 94 7 7 -4 29 -30 63
-67 90 -87 120 -130 193 -58 100 -111 222 -132 307 -13 50 -21 68 -26 56 -10
-26 -64 -23 -105 5 l-34 24 -47 -24 c-52 -27 -81 -25 -95 8 -8 18 -13 11 -33
-48z m222 -42 c18 -3 5 -50 -21 -74 l-29 -28 -26 21 c-31 25 -43 56 -27 75 9
11 57 14 103 6z m0 -173 c13 -20 -4 -57 -35 -77 -17 -10 -23 -10 -40 6 -31 28
-40 51 -28 72 13 25 88 24 103 -1z m-5 -151 c20 -16 14 -42 -18 -72 -29 -28
-30 -28 -51 -9 -53 48 -45 92 18 91 21 0 44 -5 51 -10z" id="node44" class="node"></path>
<path d="M1980 1097 c0 -17 32 -47 49 -47 14 0 37 47 28 56 -4 4 -13 1 -21 -5
-10 -8 -16 -9 -21 -1 -9 15 -35 12 -35 -3z" id="node45" class="node"></path>
<path d="M1986 941 c-10 -15 4 -40 26 -47 26 -8 53 18 44 42 -5 13 -10 14 -18
6 -7 -7 -17 -8 -29 -2 -11 6 -20 6 -23 1z" id="node46" class="node"></path>
<path d="M1984 779 c-3 -6 3 -20 14 -32 21 -20 22 -20 42 -2 20 18 27 45 12
45 -4 0 -13 -5 -19 -11 -8 -8 -13 -8 -17 0 -9 14 -23 14 -32 0z" id="node47" class="node"></path>
<path d="M1585 1014 c-27 -18 -54 -34 -59 -34 -5 0 -40 -14 -78 -32 -72 -33
-93 -62 -68 -93 37 -44 190 17 329 132 5 4 -60 62 -69 62 -3 0 -27 -16 -55
-35z" id="node48" class="node"></path>
<path d="M2336 1009 l-27 -21 24 -32 c13 -17 36 -53 51 -81 51 -89 94 -135
127 -135 26 0 29 3 29 32 0 17 -12 52 -26 77 -31 52 -132 181 -144 181 -4 0
-19 -9 -34 -21z" id="node49" class="node"></path>

<path d="M1281 904 c-18 -25 -30 -48 -27 -51 3 -3 26 -8 51 -11 45 -5 46 -4
44 24 -1 16 2 37 5 46 5 11 1 20 -13 27 -27 15 -23 17 -60 -35z" id="node51" class="node"></path>
<path d="M190 824 c-15 -38 -12 -74 6 -81 23 -8 64 8 80 32 11 18 9 22 -32 47
l-45 28 -9 -26z" id="node52" class="node"></path>
<path d="M478 449 c-2 -112 -7 -211 -11 -220 -6 -13 1 -20 33 -33 50 -20 110
-21 155 -2 l35 15 0 173 c1 122 5 182 14 203 l14 30 10 -27 c6 -15 14 -107 17
-205 5 -171 6 -178 27 -191 26 -14 142 -12 157 3 8 8 16 338 12 436 -1 15 -7
16 -43 7 -44 -10 -341 -4 -390 8 l-27 6 -3 -203z" id="node53" class="node"></path>

<path d="M1820 405 l0 -63 40 -7 c22 -4 53 -4 68 0 26 5 30 12 36 52 7 56 3
63 -37 63 -18 0 -49 4 -69 9 l-38 9 0 -63z" id="node55" class="node"></path>
<path d="M2107 443 l-38 -4 3 -52 3 -52 58 0 c67 1 77 10 77 73 0 47 3 46
-103 35z" id="node56" class="node"></path>

<path d="M1820 272 c0 -37 3 -44 28 -53 28 -11 89 -6 103 8 4 4 10 25 14 45
l7 36 -76 4 -76 3 0 -43z" id="node58" class="node"></path>
<path d="M2160 309 c-19 -4 -50 -6 -67 -3 -33 6 -33 6 -33 -35 0 -31 5 -43 21
-52 21 -11 104 -8 116 4 10 10 16 97 7 96 -5 -1 -25 -5 -44 -10z" id="node59" class="node"></path>
<path d="M1823 145 c7 -68 26 -110 55 -117 50 -12 77 25 88 118 l7 57 -45 -6
c-25 -3 -60 -2 -78 3 l-33 9 6 -64z m127 16 c0 -21 -19 -31 -55 -31 -36 0 -55
10 -55 31 0 16 8 19 55 19 47 0 55 -3 55 -19z" id="node60" class="node"></path>
<path d="M1874 148 c11 -6 26 -7 38 -1 17 7 14 9 -18 10 -31 1 -35 -1 -20 -9z" id="node61" class="node"></path>
<path d="M2060 153 c0 -55 22 -108 50 -123 17 -9 26 -8 46 5 31 20 44 53 44
114 l0 47 -70 0 -70 0 0 -43z m128 5 c-2 -17 -11 -24 -32 -26 -45 -5 -76 6
-76 28 0 18 7 20 56 20 52 0 55 -1 52 -22z" id="node62" class="node"></path>
<path d="M2118 149 c14 -5 30 -5 40 0 12 7 5 9 -24 9 -33 0 -36 -2 -16 -9z" id="node63" class="node" stroke-width="20"></path>
<path d="M524 111 c8 -57 30 -91 59 -91 43 0 67 36 67 98 l0 39 -66 0 -66 -1
6 -45z" id="node64" class="node"></path>
<path d="M774 112 c10 -76 50 -112 93 -84 16 10 43 75 43 104 0 22 -4 23 -71
24 l-71 1 6 -45z" id="node65" class="node"></path>
</g>
</svg>