<!--?xml version="1.0" standalone="no"?-->

<svg version="1.0" xmlns="http://www.w3.org/2000/svg" width="300.000000pt" height="203.000000pt" viewBox="0 0 300.000000 203.000000" preserveAspectRatio="xMidYMid meet">
<g transform="translate(0.000000,203.000000) scale(0.100000,-0.100000)" fill="#0E0E0E" stroke="none">
<path d="M500 2015 c-67 -17 -104 -33 -150 -64 -57 -39 -138 -139 -177 -218
-33 -67 -37 -83 -41 -177 -6 -132 9 -215 58 -328 46 -107 92 -184 173 -291 32
-43 57 -83 54 -90 -2 -7 -22 -18 -43 -26 -53 -18 -160 -82 -210 -125 -60 -52
-114 -139 -135 -216 -17 -67 -17 -68 6 -143 13 -42 33 -94 45 -115 19 -34 29
-41 76 -51 74 -17 138 1 333 93 192 92 253 110 339 103 l64 -5 -39 24 c-91 55
-215 56 -365 1 -145 -54 -158 -57 -235 -64 -71 -6 -73 -5 -73 17 0 14 25 47
72 94 80 78 166 129 298 176 l79 27 78 -70 c139 -124 328 -263 468 -345 109
-63 104 -63 180 15 37 37 84 92 107 120 l40 53 -62 67 c-66 73 -180 220 -180
235 0 4 10 8 23 8 15 0 29 -11 41 -31 10 -17 51 -70 92 -118 172 -206 449
-438 642 -538 l54 -28 72 75 c132 138 272 377 342 582 19 55 34 108 34 118 0
26 19 38 101 63 151 46 255 123 302 227 28 60 38 336 14 373 -23 35 -75 46
-277 62 -262 21 -349 43 -427 109 l-32 27 10 -28 c18 -51 79 -123 132 -157 46
-29 167 -70 267 -91 75 -15 220 -91 220 -115 0 -23 -243 -135 -277 -128 -9 2
-22 23 -30 48 -30 90 -122 183 -214 215 -87 31 -202 13 -330 -51 l-67 -33 -18
21 c-59 66 -204 149 -304 174 -165 42 -327 -45 -415 -221 -26 -54 -29 -71 -32
-175 -2 -92 -6 -116 -19 -123 -23 -13 -33 2 -44 67 -23 145 24 287 134 405
149 157 356 159 579 7 l37 -25 0 37 c0 151 -108 316 -256 389 -73 36 -73 36
-176 30 -107 -5 -165 -23 -296 -92 l-52 -27 -48 44 c-165 153 -396 240 -542
203z m254 -151 c23 -9 20 -27 -3 -19 -33 10 -153 -15 -205 -43 -28 -15 -73
-49 -101 -77 -163 -160 -113 -485 119 -775 42 -53 44 -60 12 -60 -26 0 -63 41
-132 145 -129 194 -179 359 -156 510 25 161 104 259 250 311 38 13 188 19 216
8z m673 -109 c27 -8 58 -24 68 -35 l19 -21 -45 20 c-87 40 -226 22 -352 -46
-47 -26 -64 -26 -54 -1 7 19 101 64 167 82 72 19 135 19 197 1z m248 -374 c14
-6 6 -9 -33 -14 -95 -11 -220 -86 -244 -146 -6 -14 -17 -41 -25 -59 -8 -19
-15 -65 -15 -103 0 -70 0 -70 -26 -67 l-27 3 1 87 c2 118 34 186 115 241 80
55 194 81 254 58z m573 -96 c23 -10 42 -21 42 -26 0 -13 -14 -11 -29 4 -8 8
-41 12 -94 12 -72 -1 -90 -4 -146 -33 -66 -33 -91 -39 -91 -23 0 17 71 54 139
71 75 20 118 19 179 -5z m703 -104 c-7 -63 -16 -93 -38 -129 -86 -140 -314
-219 -723 -251 -142 -11 -481 -30 -515 -29 -158 5 -554 -20 -757 -47 -354 -48
-541 -120 -685 -261 -49 -47 -81 -90 -99 -127 -14 -32 -29 -57 -33 -57 -10 0
-40 77 -47 122 -8 47 26 138 76 204 90 120 242 197 520 263 69 17 150 33 180
36 30 2 111 11 180 20 69 8 184 19 255 24 72 5 162 12 200 14 39 3 126 8 195
12 208 10 272 15 343 26 37 6 73 9 80 6 17 -7 301 28 397 49 195 41 333 98
424 174 27 22 51 39 53 37 2 -2 -1 -41 -6 -86z m-1464 -478 c62 -100 216 -258
361 -374 76 -61 184 -129 205 -129 7 0 29 14 50 31 54 44 57 29 6 -26 l-44
-46 -55 29 c-125 65 -244 157 -391 302 -101 100 -189 208 -189 232 0 20 41 5
57 -19z m-581 -99 c86 -71 217 -162 276 -190 l36 -17 51 43 c28 24 54 40 57
37 4 -4 -18 -32 -48 -63 l-54 -56 -52 26 c-106 54 -382 254 -382 277 0 25 45
2 116 -57z" id="node1" class="node"></path>
</g>
<g transform="translate(0.000000,203.000000) scale(0.100000,-0.100000)" fill="#A3A3A3" stroke="none">

<path d="M538 1856 c-99 -36 -179 -104 -215 -184 -81 -183 -41 -393 121 -637
69 -104 106 -145 132 -145 32 0 30 7 -12 60 -181 227 -253 471 -192 657 38
117 156 211 292 233 37 6 77 8 87 5 23 -8 26 10 3 19 -28 11 -178 5 -216 -8z" id="node3" class="node"></path>
<path d="M1230 1754 c-66 -18 -160 -63 -167 -82 -10 -25 7 -25 54 1 126 68
265 86 352 46 l45 -20 -19 21 c-41 45 -163 61 -265 34z" id="node4" class="node"></path>
<path d="M1526 1375 c-82 -23 -156 -81 -190 -148 -25 -50 -29 -70 -30 -145
l-1 -87 27 -3 c26 -3 26 -3 26 67 0 38 7 84 15 103 8 18 19 45 25 59 24 60
149 135 244 146 39 5 47 8 33 14 -30 12 -94 9 -149 -6z" id="node5" class="node"></path>
<path d="M2069 1290 c-68 -17 -139 -54 -139 -71 0 -16 25 -10 91 23 56 29 74
32 146 33 53 0 86 -4 94 -12 15 -15 29 -17 29 -4 0 12 -78 42 -120 46 -19 1
-65 -5 -101 -15z" id="node6" class="node"></path>
<path d="M2904 1230 c-91 -76 -229 -133 -424 -174 -96 -21 -380 -56 -397 -49
-7 3 -43 0 -80 -6 -71 -11 -135 -16 -343 -26 -69 -4 -156 -9 -195 -12 -38 -2
-128 -9 -200 -14 -71 -5 -186 -16 -255 -24 -69 -9 -150 -18 -180 -20 -30 -3
-111 -19 -180 -36 -278 -66 -430 -143 -520 -263 -50 -66 -84 -157 -76 -204 7
-45 37 -122 47 -122 4 0 19 25 33 57 18 37 50 80 99 127 144 141 331 213 685
261 203 27 599 52 757 47 34 -1 373 18 515 29 409 32 637 111 723 251 22 36
31 66 38 129 5 45 8 84 6 86 -2 2 -26 -15 -53 -37z" id="node7" class="node"></path>
<path d="M1430 722 c0 -24 88 -132 189 -232 147 -145 266 -237 391 -302 l55
-29 44 46 c51 55 48 70 -6 26 -21 -17 -43 -31 -50 -31 -21 0 -129 68 -205 129
-145 116 -299 274 -361 374 -16 24 -57 39 -57 19z" id="node8" class="node"></path>
<path d="M790 661 c0 -23 276 -223 382 -277 l52 -26 54 56 c30 31 52 59 48 63
-3 3 -29 -13 -57 -37 l-51 -43 -36 17 c-59 28 -190 119 -276 190 -71 59 -116
82 -116 57z" id="node9" class="node"></path>
</g>
</svg>