<!--?xml version="1.0" standalone="no"?-->

<svg version="1.0" xmlns="http://www.w3.org/2000/svg" width="300.000000pt" height="300.000000pt" viewBox="0 0 300.000000 300.000000" preserveAspectRatio="xMidYMid meet">
<g transform="translate(0.000000,300.000000) scale(0.100000,-0.100000)" fill="#0C0C0C" stroke="none">
<path d="M2317 2496 c-11 -15 -42 -38 -71 -51 -30 -13 -56 -31 -60 -40 -10
-26 -7 -103 4 -110 6 -3 10 0 10 8 0 16 40 70 47 63 2 -2 -3 -18 -11 -35 -24
-46 -21 -61 14 -61 39 0 77 36 85 81 3 19 5 65 3 104 l-3 69 -18 -28z" id="node1" class="node" stroke-width="20"></path>
<path d="M2121 2305 c2 -5 20 -39 39 -75 41 -79 48 -164 15 -215 -28 -44 -87
-105 -102 -105 -8 0 -31 18 -52 39 -53 54 -109 87 -175 104 -51 14 -61 14 -99
-1 -163 -62 -233 -205 -158 -323 19 -31 43 -52 75 -67 58 -28 66 -27 124 2 74
38 98 95 67 156 -29 55 -131 49 -145 -8 -8 -35 -25 -27 -28 13 -3 28 3 41 27
65 25 25 37 30 79 30 62 0 105 -32 133 -98 26 -60 23 -107 -9 -172 -69 -140
-234 -158 -365 -40 -27 24 -58 64 -69 90 -50 113 0 256 117 332 l30 20 -29 -7
c-60 -13 -129 -73 -187 -161 l-40 -62 17 -38 c9 -22 23 -52 30 -69 26 -58 101
-241 125 -300 13 -33 26 -64 30 -70 4 -5 21 -46 38 -90 18 -44 42 -99 54 -123
24 -46 88 -98 111 -89 8 3 37 34 66 69 73 89 72 88 105 140 32 50 55 62 55 28
0 -30 46 -98 81 -119 17 -11 52 -22 77 -26 45 -7 46 -8 27 -23 -45 -38 -65
-74 -65 -119 0 -56 27 -96 83 -124 l41 -21 -23 -19 c-31 -25 -48 -24 -55 4
-14 59 -89 107 -166 107 -45 0 -55 -4 -87 -35 -32 -31 -37 -42 -37 -84 0 -55
25 -95 77 -123 42 -23 75 -22 115 2 48 30 59 61 35 102 -15 26 -26 34 -53 36
-31 2 -33 1 -15 -9 71 -40 54 -109 -26 -109 -57 0 -89 34 -89 94 0 121 158
130 214 11 36 -74 5 -150 -69 -175 -48 -16 -82 -6 -207 56 -99 50 -111 54
-178 54 -55 0 -81 -5 -118 -24 -52 -27 -86 -61 -78 -79 3 -9 5 -9 5 0 2 28
131 83 195 83 16 0 80 -25 142 -56 102 -50 121 -56 191 -60 97 -6 119 4 156
75 29 56 37 65 98 105 83 56 175 53 205 -5 14 -28 14 -33 0 -55 -20 -29 -57
-40 -85 -24 -40 21 -15 79 29 67 24 -6 27 8 4 17 -25 10 -59 7 -72 -6 -7 -7
-12 -28 -12 -48 0 -56 22 -70 109 -70 67 0 75 2 102 29 18 19 29 40 29 58 0
22 8 31 33 43 47 22 64 58 49 107 -13 42 -42 63 -88 63 -31 0 -57 -13 -110
-57 -31 -25 -51 -33 -80 -33 -21 0 -55 -5 -75 -10 -106 -30 -186 95 -110 171
38 38 74 38 112 -1 24 -23 28 -33 20 -48 -19 -36 -39 -46 -66 -34 -30 14 -34
-3 -4 -18 29 -16 66 -5 84 25 8 14 23 37 32 52 46 74 64 137 65 228 1 79 -2
96 -26 143 -24 48 -25 53 -9 59 123 42 181 106 182 203 1 75 -67 166 -142 190
-49 15 -91 7 -141 -28 -28 -19 -41 -23 -44 -14 -10 30 -55 71 -90 83 -20 6
-41 14 -45 16 -4 3 11 26 35 51 24 26 50 62 57 80 7 17 17 32 21 32 13 0 -6
77 -33 132 -22 44 -99 137 -86 103z m22 -469 c18 -7 47 -30 65 -50 25 -29 32
-46 32 -79 0 -70 41 -117 101 -117 39 0 69 20 69 47 0 14 -4 12 -23 -5 -47
-44 -107 -13 -107 54 0 29 8 44 39 75 34 34 45 39 84 39 36 0 52 -6 75 -27
107 -102 67 -228 -84 -263 -38 -8 -62 -9 -90 -1 -59 17 -123 13 -158 -8 -17
-10 -41 -22 -53 -25 l-22 -7 25 91 c28 105 30 179 9 240 -8 23 -15 44 -15 46
0 8 21 4 53 -10z m152 -425 c52 -23 93 -71 100 -119 3 -20 7 -44 9 -53 5 -24
-11 -128 -24 -160 l-12 -28 -37 40 c-26 26 -47 39 -64 39 -29 0 -36 14 -13 27
21 13 36 49 36 87 0 25 -7 40 -26 55 -39 31 -46 26 -22 -15 18 -31 19 -38 7
-60 -16 -31 -63 -57 -88 -49 -9 3 -31 19 -47 36 -24 25 -29 38 -28 78 1 57 27
97 82 123 47 22 77 22 127 -1z m327 -468 c11 -10 18 -30 18 -55 0 -31 -5 -41
-24 -49 -45 -21 -106 15 -76 45 16 16 12 30 -5 16 -20 -17 -19 -28 7 -76 14
-28 19 -49 14 -67 -10 -43 -23 -32 -28 25 -4 37 -12 57 -27 69 -30 24 -26 42
14 78 40 35 79 40 107 14z" id="node2" class="node" stroke-width="20"></path>
<path d="M2015 2233 c-22 -9 -59 -17 -82 -17 -41 0 -42 -1 -25 -21 56 -66 126
-115 165 -115 16 0 43 10 59 22 l30 21 -23 18 c-13 10 -31 19 -39 19 -8 0 -22
5 -30 11 -11 8 -7 9 20 6 19 -2 43 -7 53 -12 27 -11 20 8 -17 48 -37 41 -52
44 -111 20z" id="node3" class="node" stroke-width="20"></path>
<path d="M2269 2127 c-23 -38 -24 -51 -4 -43 43 17 47 16 21 -6 -36 -30 -28
-48 23 -48 29 0 44 7 68 33 31 33 63 77 63 87 0 3 -34 6 -76 7 -74 2 -75 1
-95 -30z" id="node4" class="node" stroke-width="20"></path>
<path d="M867 2054 c-102 -24 -192 -101 -240 -202 -25 -55 -29 -74 -29 -151 0
-94 25 -194 70 -286 23 -47 128 -214 142 -225 3 -3 16 -20 29 -37 12 -18 26
-33 30 -33 8 0 55 102 136 295 25 61 52 124 60 140 7 17 34 80 60 140 25 61
52 124 60 140 7 17 23 53 35 80 l21 50 -43 37 c-71 62 -205 83 -331 52z" id="node5" class="node" stroke-width="20"></path>
<path d="M1216 1736 c-19 -43 -38 -86 -74 -171 -27 -63 -53 -125 -64 -147 -7
-17 4 -18 156 -18 l164 0 -35 83 c-19 45 -49 118 -68 163 -18 44 -39 92 -46
106 l-14 26 -19 -42z" id="node6" class="node" stroke-width="20"></path>
<path d="M1020 1278 c-13 -29 -31 -71 -41 -93 -17 -40 -22 -64 -20 -97 1 -21
50 -48 86 -48 16 0 25 -6 25 -15 0 -12 -13 -15 -57 -15 l-58 0 195 -195 c107
-107 200 -195 206 -195 13 0 384 369 384 382 0 4 -74 8 -165 8 -140 0 -165 2
-165 15 0 10 10 15 28 15 17 0 38 10 52 25 l23 24 -18 63 c-9 34 -23 71 -30
82 -7 12 -18 38 -25 59 l-12 37 -192 0 -193 0 -23 -52z" id="node7" class="node" stroke-width="20"></path>
</g>
<g transform="translate(0.000000,300.000000) scale(0.100000,-0.100000)" fill="#A2A2A2" stroke="none">




</g>
</svg>