<!--?xml version="1.0" standalone="no"?-->

<svg version="1.0" xmlns="http://www.w3.org/2000/svg" width="300.000000pt" height="265.000000pt" viewBox="0 0 300.000000 265.000000" preserveAspectRatio="xMidYMid meet">
<g transform="translate(0.000000,265.000000) scale(0.100000,-0.100000)" fill="#242424" stroke="none">
<path class="node" id="node1" d="M970 2639 c-119 -24 -241 -117 -293 -222 -14 -29 -32 -88 -40 -130
-8 -43 -17 -80 -19 -83 -3 -2 -29 3 -59 12 -38 12 -80 15 -144 12 -75 -3 -101
-9 -156 -36 -86 -41 -159 -114 -201 -200 -29 -60 -33 -78 -36 -173 -9 -224 61
-366 300 -610 157 -161 308 -264 501 -340 66 -27 216 -54 380 -70 97 -9 127
-16 127 -26 0 -8 12 -49 26 -91 42 -123 162 -314 338 -537 88 -111 129 -147
164 -139 96 23 499 204 617 277 128 80 303 248 363 349 98 165 156 419 148
643 -5 152 -26 230 -84 321 -81 124 -207 194 -352 194 -93 0 -238 -55 -280
-105 -10 -12 -19 -1 -50 63 -65 135 -178 218 -330 243 -30 5 -62 6 -71 4 -13
-4 -29 18 -69 91 -135 254 -362 472 -560 537 -60 20 -165 28 -220 16z m172
-30 c228 -49 441 -294 494 -569 25 -127 28 -291 9 -420 -27 -190 -108 -492
-155 -585 -32 -63 -47 -67 -245 -59 -207 8 -474 47 -573 83 -235 87 -406 215
-517 386 -77 118 -109 224 -109 350 1 86 5 110 29 169 37 90 110 165 202 209
61 28 78 32 158 32 70 0 103 -5 149 -23 70 -27 76 -23 76 53 1 146 83 276 217
344 80 40 169 50 265 30z m504 -399 c136 -199 174 -321 174 -560 0 -191 -17
-282 -116 -610 -21 -69 -47 -147 -59 -173 l-21 -49 -67 76 -66 77 21 47 c36
80 38 85 59 157 78 265 110 449 110 625 0 210 -31 357 -101 479 l-21 36 28
-30 c15 -17 42 -51 59 -75z m360 -281 c96 -45 180 -141 214 -244 6 -19 16 -37
21 -40 5 -3 32 12 61 33 116 86 260 109 388 62 52 -20 79 -38 135 -95 61 -60
75 -81 100 -150 27 -73 30 -91 30 -210 0 -110 -4 -141 -24 -200 -55 -165 -111
-254 -239 -382 -106 -106 -208 -175 -409 -275 -214 -106 -240 -118 -341 -151
l-72 -24 -28 20 c-42 30 -162 184 -274 352 l-100 150 75 5 c53 4 82 11 95 24
11 9 34 59 52 109 17 51 38 111 47 135 8 23 19 40 24 36 22 -13 47 8 58 51 6
25 15 45 20 45 5 0 31 -7 59 -16 l49 -16 -14 -46 c-17 -58 -11 -74 24 -70 25
3 29 12 66 127 36 114 38 124 23 139 -22 23 -46 7 -63 -43 -7 -21 -15 -40 -17
-42 -5 -5 -88 18 -99 27 -4 4 -3 29 4 55 11 43 10 49 -5 61 -10 7 -25 10 -33
7 -13 -5 -15 0 -10 23 26 140 29 180 24 309 -4 77 -13 167 -21 200 -9 33 -15
64 -16 69 0 19 135 -5 196 -35z m-1316 -903 c121 -40 329 -66 571 -73 l215 -6
57 -66 57 -66 -83 -3 c-73 -3 -294 10 -417 24 -25 3 -88 14 -140 25 -147 31
-374 148 -500 258 -32 28 -26 26 65 -19 55 -28 134 -61 175 -74z m2231 -102
c-59 -221 -106 -306 -243 -441 -87 -86 -101 -97 -184 -155 -45 -32 -303 -163
-410 -210 -73 -31 -189 -75 -216 -82 -33 -8 -33 -5 -17 93 18 114 14 108 64
114 104 15 497 205 650 315 142 102 300 288 351 412 16 38 30 67 31 66 2 -1
-10 -52 -26 -112z m-1506 -144 c16 0 30 -11 46 -37 99 -164 248 -371 331 -459
l47 -50 -11 -92 c-7 -51 -15 -92 -18 -92 -4 0 -28 27 -56 61 -27 33 -54 66
-59 72 -33 38 -171 238 -222 323 -63 106 -98 185 -109 248 -6 34 -5 38 10 33
10 -4 28 -7 41 -7z"></path>
<path class="node" id="node2" d="M891 2081 c-55 -37 -65 -54 -50 -82 22 -41 121 -174 135 -182 11 -6
33 2 70 27 55 37 67 63 39 86 -11 9 -20 8 -45 -10 -50 -36 -83 -10 -35 28 27
22 33 59 11 68 -8 3 -28 -2 -46 -11 -24 -12 -35 -13 -45 -5 -11 9 -7 17 21 43
25 23 33 37 29 50 -10 25 -34 21 -84 -12z"></path>
<path class="node" id="node3" d="M692 1943 c-23 -15 -45 -35 -48 -45 -5 -16 57 -116 122 -195 27 -34
56 -27 117 30 37 34 47 50 47 76 0 39 -38 81 -74 81 -19 0 -23 4 -19 19 7 28
-30 61 -70 61 -19 0 -51 -12 -75 -27z m88 -64 c0 -5 -9 -13 -20 -19 -16 -9
-22 -8 -26 5 -9 23 15 48 32 34 8 -6 14 -15 14 -20z m69 -63 c9 -10 7 -19 -8
-37 -16 -20 -21 -21 -35 -10 -21 17 -20 31 2 47 22 17 27 17 41 0z"></path>
<path class="node" id="node4" d="M1303 1892 c-29 -20 -53 -43 -53 -50 0 -12 31 -59 107 -164 19 -27
41 -48 49 -48 8 0 37 15 64 33 41 26 50 37 48 57 -4 32 -30 37 -67 11 -26 -19
-30 -19 -42 -5 -11 14 -8 20 21 44 55 45 18 92 -40 50 -26 -18 -33 -20 -46 -9
-14 12 -12 17 22 46 33 27 37 35 28 50 -17 28 -35 25 -91 -15z"></path>
<path class="node" id="node5" d="M1182 1808 c-18 -18 -16 -26 24 -80 19 -28 33 -52 31 -55 -3 -2 -43
7 -90 22 -139 42 -149 18 -54 -122 62 -93 80 -109 111 -97 25 9 19 34 -19 88
-19 27 -33 51 -31 53 2 3 42 -7 89 -22 124 -38 152 -17 92 69 -101 146 -127
170 -153 144z"></path>
<path class="node" id="node6" d="M957 1653 c-15 -15 -4 -42 49 -118 31 -44 61 -88 67 -97 15 -22 56
-23 64 -2 7 19 -12 54 -84 152 -49 66 -76 85 -96 65z"></path>
<path class="node" id="node7" d="M846 1569 c-13 -19 -12 -28 4 -87 10 -37 17 -68 16 -70 -2 -1 -26 16
-54 39 -56 44 -86 48 -108 14 -12 -18 -7 -33 42 -133 56 -114 75 -132 103 -98
9 11 6 27 -14 71 -14 32 -25 60 -25 62 0 3 13 -6 29 -19 65 -52 77 -59 96 -56
26 4 31 53 11 103 -25 59 -19 62 28 16 49 -49 91 -55 91 -13 0 27 -160 192
-187 192 -9 0 -23 -9 -32 -21z"></path>
<path class="node" id="node8" d="M2057 1163 c-52 -155 -52 -156 30 -181 37 -12 70 -19 75 -16 4 3 8
16 8 29 0 20 -8 27 -40 36 -28 9 -39 17 -35 27 3 7 5 18 5 23 0 6 20 7 49 3
39 -5 49 -3 54 10 7 19 -16 44 -49 52 -25 6 -30 19 -15 43 7 11 15 11 46 1 41
-13 59 -4 53 26 -4 23 -49 45 -103 52 l-41 4 -37 -109z"></path>
<path class="node" id="node9" d="M2267 1193 c-31 -60 -78 -225 -68 -237 5 -6 35 -20 66 -31 44 -15 61
-16 75 -7 15 9 19 8 23 -7 5 -20 110 -63 133 -54 9 3 14 15 12 31 -2 20 -11
28 -35 34 -41 11 -42 23 -6 129 29 85 26 114 -13 114 -14 0 -26 -23 -56 -110
-20 -60 -37 -111 -38 -113 0 -2 -7 4 -16 13 -9 9 -29 19 -45 22 -16 3 -29 9
-29 14 0 4 14 51 31 104 25 77 28 99 19 110 -19 23 -38 18 -53 -12z"></path>
<path class="node" id="node10" d="M2630 1083 c-32 -12 -70 -58 -85 -103 -15 -44 -14 -51 2 -95 15 -39
26 -53 63 -72 78 -42 150 -18 191 65 38 76 10 170 -58 198 -33 14 -85 17 -113
7z m100 -73 c34 -34 17 -127 -25 -144 -88 -33 -137 66 -69 139 28 30 67 32 94
5z"></path>
</g>
<g transform="translate(0.000000,265.000000) scale(0.100000,-0.100000)" fill="#B1EB9C" stroke="none">


<path class="node" id="node13" d="M957 2609 c-170 -40 -296 -199 -297 -374 0 -76 -6 -80 -76 -53 -46
18 -79 23 -149 23 -80 0 -97 -4 -158 -32 -92 -44 -165 -119 -202 -209 -24 -59
-28 -83 -29 -169 0 -84 4 -113 28 -185 82 -244 293 -438 598 -551 99 -36 366
-75 573 -83 198 -8 213 -4 245 59 47 93 128 395 155 585 19 129 16 293 -9 420
-70 364 -394 636 -679 569z m18 -516 c4 -13 -4 -27 -29 -50 -28 -26 -32 -34
-21 -43 10 -8 21 -7 45 5 18 9 38 14 46 11 22 -9 16 -46 -11 -68 -48 -38 -15
-64 35 -28 25 18 34 19 45 10 28 -23 16 -49 -39 -86 -37 -25 -59 -33 -70 -27
-14 8 -113 141 -135 182 -15 28 -5 45 50 82 50 33 74 37 84 12z m-154 -144
c12 -12 19 -29 16 -40 -4 -15 0 -19 19 -19 36 0 74 -42 74 -81 0 -26 -10 -42
-47 -76 -61 -57 -90 -64 -117 -30 -65 79 -127 179 -122 195 9 27 86 72 123 72
20 0 41 -8 54 -21z m573 -42 c9 -15 5 -23 -28 -50 -34 -29 -36 -34 -22 -46 13
-11 20 -9 46 9 58 42 95 -5 40 -50 -29 -24 -32 -30 -21 -44 12 -14 16 -14 42
5 37 26 63 21 67 -11 2 -20 -7 -31 -48 -57 -27 -18 -56 -33 -64 -33 -8 0 -30
21 -49 48 -76 105 -107 152 -107 164 0 17 101 88 119 85 8 -1 19 -10 25 -20z
m-132 -142 c108 -143 121 -174 81 -189 -9 -4 -54 5 -100 19 -47 15 -87 25 -89
22 -2 -2 12 -26 31 -53 38 -54 44 -79 19 -88 -31 -12 -49 4 -111 97 -95 140
-85 164 54 122 47 -15 87 -24 90 -22 2 3 -12 27 -31 55 -40 54 -42 62 -24 80
20 20 40 10 80 -43z m-209 -177 c72 -98 91 -133 84 -152 -8 -21 -49 -20 -64 2
-6 9 -36 53 -67 97 -66 95 -72 125 -24 125 11 0 39 -28 71 -72z m-73 -82 c91
-91 108 -128 61 -134 -17 -3 -36 8 -67 39 -47 46 -53 43 -28 -16 20 -50 15
-99 -11 -103 -19 -3 -31 4 -96 56 -16 13 -29 22 -29 19 0 -2 11 -30 25 -62 20
-44 23 -60 14 -71 -28 -34 -47 -16 -103 98 -49 100 -54 115 -42 133 22 34 52
30 108 -14 28 -23 52 -40 54 -39 1 2 -6 33 -16 70 -16 59 -17 68 -4 87 9 12
23 21 32 21 9 0 55 -38 102 -84z"></path>
<path class="node" id="node14" d="M740 1895 c-7 -8 -10 -22 -6 -30 4 -13 10 -14 26 -5 23 13 25 23 6
39 -10 9 -16 8 -26 -4z"></path>
<path class="node" id="node15" d="M808 1816 c-22 -16 -23 -30 -2 -47 14 -11 19 -10 35 10 15 18 17 27
8 37 -14 17 -19 17 -41 0z"></path>
<path class="node" id="node16" d="M1580 2279 c70 -122 101 -269 101 -479 0 -176 -32 -360 -110 -625
-21 -72 -23 -77 -59 -157 l-21 -47 66 -77 67 -76 21 49 c12 26 38 104 59 173
99 328 116 419 116 610 0 198 -24 306 -96 431 -57 101 -99 163 -137 204 l-28
30 21 -36z"></path>
<path class="node" id="node17" d="M1810 1964 c1 -5 7 -36 16 -69 8 -33 17 -123 21 -200 5 -129 2 -169
-24 -309 -5 -23 -3 -28 10 -23 8 3 23 0 33 -7 15 -12 16 -18 5 -61 -7 -26 -8
-51 -4 -55 11 -9 94 -32 99 -27 2 2 10 21 17 42 17 50 41 66 63 43 15 -15 13
-25 -23 -139 -37 -115 -41 -124 -66 -127 -35 -4 -41 12 -24 70 l14 46 -49 16
c-28 9 -54 16 -59 16 -5 0 -14 -20 -20 -45 -11 -43 -36 -64 -58 -51 -5 4 -16
-13 -24 -36 -9 -24 -30 -84 -47 -135 -18 -50 -41 -100 -52 -109 -13 -13 -42
-20 -95 -24 l-75 -5 100 -150 c112 -168 232 -322 274 -352 l28 -20 72 24 c101
33 127 45 341 151 201 100 303 169 409 275 128 128 184 217 239 382 20 59 24
90 24 200 0 119 -3 137 -30 210 -25 69 -39 90 -100 150 -56 57 -83 75 -135 95
-128 47 -272 24 -388 -62 -29 -21 -56 -36 -61 -33 -5 3 -15 21 -21 40 -50 151
-189 265 -343 281 -38 4 -67 3 -67 -2z m396 -715 c58 -28 40 -79 -21 -59 -31
10 -39 10 -46 -1 -15 -24 -10 -37 15 -43 33 -8 56 -33 49 -52 -5 -13 -15 -15
-54 -10 -29 4 -49 3 -49 -3 0 -5 -2 -16 -5 -23 -4 -10 7 -18 35 -27 32 -9 40
-16 40 -36 0 -13 -4 -26 -8 -29 -5 -3 -38 4 -75 16 -82 25 -82 26 -30 181 l37
109 41 -4 c23 -3 54 -11 71 -19z m114 -44 c9 -11 6 -33 -19 -110 -17 -53 -31
-100 -31 -104 0 -5 13 -11 29 -14 16 -3 36 -13 45 -22 9 -9 16 -15 16 -13 1 2
18 53 38 113 30 87 42 110 56 110 39 0 42 -29 13 -114 -36 -106 -35 -118 6
-129 24 -6 33 -14 35 -34 2 -16 -3 -28 -12 -31 -23 -9 -128 34 -133 54 -4 15
-8 16 -23 7 -14 -9 -31 -8 -75 7 -31 11 -61 25 -66 31 -7 8 0 44 22 111 49
151 67 177 99 138z m423 -129 c68 -28 96 -122 58 -198 -41 -83 -113 -107 -191
-65 -37 19 -48 33 -63 72 -16 44 -17 51 -2 95 15 45 53 91 85 103 28 10 80 7
113 -7z"></path>
<path class="node" id="node18" d="M2636 1005 c-54 -58 -36 -144 31 -145 35 0 53 11 68 41 46 89 -35
174 -99 104z"></path>
<path class="node" id="node19" d="M450 1119 c126 -110 353 -227 500 -258 52 -11 115 -22 140 -25 123
-14 344 -27 417 -24 l83 3 -57 66 -57 66 -215 6 c-242 7 -450 33 -571 73 -41
13 -120 46 -175 74 -91 45 -97 47 -65 19z"></path>
<path class="node" id="node20" d="M2916 970 c-51 -124 -209 -310 -351 -412 -153 -110 -546 -300 -650
-315 -50 -6 -46 0 -64 -114 -16 -98 -16 -101 17 -93 105 26 525 221 626 292
83 58 97 69 184 155 94 92 158 183 191 272 23 61 83 276 78 281 -1 1 -15 -28
-31 -66z"></path>
<path class="node" id="node21" d="M1364 754 c11 -63 46 -142 109 -248 51 -85 189 -285 222 -323 5 -6
32 -39 59 -72 28 -34 52 -61 56 -61 3 0 11 41 18 92 l11 92 -47 50 c-83 88
-232 295 -331 459 -16 26 -30 37 -46 37 -13 0 -31 3 -41 7 -15 5 -16 1 -10
-33z"></path>
</g>
</svg>