<!--?xml version="1.0" standalone="no"?-->

<svg version="1.0" xmlns="http://www.w3.org/2000/svg" width="293.000000pt" height="300.000000pt" viewBox="0 0 293.000000 300.000000" preserveAspectRatio="xMidYMid meet">
<g transform="translate(0.000000,300.000000) scale(0.100000,-0.100000)" fill="#AE85D0" stroke="none">
<path d="M920 2991 c-46 -15 -106 -58 -149 -108 -106 -119 -87 -177 126 -392
73 -73 133 -139 133 -146 0 -7 -7 -18 -15 -25 -24 -20 -18 -49 12 -56 21 -6
31 -2 49 19 13 15 26 27 29 27 3 0 5 -78 5 -172 l-1 -173 -25 -19 c-26 -18
-26 -18 -19 3 8 27 -8 27 -71 0 -93 -42 -167 -141 -210 -284 -6 -18 -18 -31
-29 -33 -30 -6 -65 -42 -65 -68 0 -25 15 -40 25 -24 12 19 22 10 23 -20 1 -27
28 -61 74 -91 5 -3 -4 -20 -21 -37 -25 -25 -31 -39 -31 -76 0 -53 27 -80 91
-91 46 -8 132 10 150 31 16 20 29 17 29 -6 0 -12 -12 -26 -32 -36 -18 -9 -43
-25 -55 -36 l-22 -20 56 -75 c59 -81 59 -77 30 -178 -28 -100 -30 -123 -7
-130 22 -7 21 0 50 -185 12 -74 26 -140 32 -147 7 -9 6 -15 -6 -19 -20 -8 -21
-38 -1 -54 12 -10 13 -16 4 -26 -6 -8 -17 -14 -25 -14 -7 0 -26 -11 -41 -25
l-28 -25 28 11 c15 7 27 16 27 21 0 4 8 8 18 8 9 0 25 7 35 14 18 14 18 16 1
40 -9 15 -15 29 -12 32 3 2 17 -13 31 -35 l26 -39 -22 -16 c-22 -15 -22 -15
12 -15 23 -1 39 -9 54 -27 20 -25 23 -26 111 -22 65 3 99 9 118 22 29 19 68
78 68 102 0 28 24 8 31 -24 10 -48 24 -59 88 -70 66 -12 134 0 163 27 9 9 24
41 32 71 8 30 26 93 39 140 35 121 47 176 47 209 0 16 6 34 14 40 10 9 11 21
4 57 -6 25 -8 48 -5 50 2 3 28 -10 57 -28 l52 -32 22 27 c12 15 29 26 37 23 8
-2 27 -7 43 -11 26 -5 28 -9 23 -40 -3 -19 0 -40 6 -48 37 -46 102 -15 102 48
0 35 2 37 50 53 36 12 54 25 63 45 17 35 0 61 -35 54 -13 -2 -26 0 -29 4 -3 5
0 9 6 9 6 0 10 10 8 23 -4 32 -51 36 -72 6 l-16 -23 -11 33 c-9 24 -16 31 -33
29 -16 -2 -22 -11 -24 -35 -4 -38 -10 -40 -45 -13 -18 14 -27 32 -29 57 -3 34
-7 38 -42 48 l-39 11 39 19 c59 28 137 88 174 135 28 36 32 47 28 85 -11 98
-213 349 -354 442 -13 8 -24 18 -24 22 0 4 69 14 153 23 160 18 313 52 321 74
4 10 -107 72 -209 116 -46 20 -165 50 -240 62 l-79 12 37 23 c21 13 36 28 34
35 -9 28 -256 15 -369 -20 -108 -33 -298 -114 -336 -145 -14 -10 -29 -19 -33
-19 -5 0 -9 72 -9 160 0 146 6 181 25 150 9 -15 51 -12 65 5 7 8 10 26 8 39
-5 24 -1 26 88 46 217 50 374 177 391 318 7 63 -8 108 -55 159 -79 87 -196
113 -332 74 -73 -21 -76 -21 -100 -2 -63 46 -115 64 -190 67 -41 2 -86 0 -100
-5z m226 -57 c43 -26 49 -34 46 -59 -3 -28 -2 -29 15 -13 10 9 47 26 83 38 51
17 81 21 140 18 89 -5 140 -29 193 -87 59 -66 59 -139 -2 -231 -49 -74 -86
-107 -168 -149 -64 -32 -249 -74 -292 -66 -20 3 -55 8 -78 10 -23 1 -58 13
-77 24 -42 26 -139 130 -212 227 -44 58 -54 78 -54 110 0 63 45 122 134 178
46 29 76 35 152 33 60 -2 79 -7 120 -33z m-33 -568 c4 -9 19 -14 37 -14 17 1
36 -4 42 -10 16 -16 2 -42 -24 -42 -18 0 -20 2 -8 10 21 13 4 24 -35 22 -22
-2 -45 -12 -62 -30 -19 -19 -28 -23 -31 -13 -2 7 8 24 24 37 23 18 25 23 12
24 -18 0 -23 11 -11 23 12 13 51 7 56 -7z m660 -242 c-24 -14 -43 -29 -43 -35
0 -5 18 -9 41 -9 52 0 234 -36 274 -55 17 -7 42 -17 58 -20 15 -4 30 -11 33
-16 3 -5 12 -9 19 -9 8 0 40 -12 72 -26 l58 -27 -35 -12 c-32 -11 -165 -30
-386 -55 -50 -5 -140 -10 -200 -10 -93 -1 -106 -3 -91 -14 9 -7 17 -16 17 -20
0 -3 -62 -6 -137 -6 l-138 -1 28 -24 c15 -13 27 -29 27 -34 0 -12 -56 -29
-123 -38 -41 -5 -50 -3 -63 15 -8 11 -24 22 -37 24 -21 3 -22 8 -25 95 -3 108
-11 99 158 181 174 84 303 119 455 121 l80 1 -42 -26z m-753 -219 l0 -26 37
26 c21 14 41 25 45 25 5 0 8 -24 8 -54 0 -49 -2 -54 -22 -54 -65 -2 -94 -16
-145 -68 -44 -45 -53 -61 -53 -90 0 -47 24 -90 60 -109 36 -19 37 -25 5 -48
-20 -14 -40 -17 -102 -15 -72 3 -78 5 -81 26 -2 12 3 36 12 52 17 36 7 38 -40
9 -19 -11 -34 -17 -34 -13 0 14 33 44 48 44 21 0 52 29 52 49 0 24 57 139 86
175 29 35 102 96 115 96 5 0 9 -11 9 -25z m843 -130 c65 -51 178 -167 243
-250 43 -54 84 -135 91 -178 5 -33 1 -41 -48 -92 -67 -71 -115 -97 -294 -161
-86 -30 -300 -44 -405 -25 -104 18 -113 20 -123 30 -12 12 -27 81 -34 159 l-5
62 -39 0 c-32 0 -40 4 -44 23 -47 202 -53 256 -31 301 13 27 24 35 53 40 57
10 193 57 193 66 0 4 -7 10 -15 14 -34 13 -11 21 57 21 149 0 239 16 179 32
-43 11 -10 18 71 14 83 -3 83 -3 151 -56z m-759 13 c9 -37 7 -58 -7 -58 -14 0
-39 58 -31 71 10 17 32 9 38 -13z m-55 -24 c12 -15 21 -35 21 -44 0 -26 -28
-33 -40 -10 -6 11 -16 20 -23 20 -7 0 -18 5 -25 12 -9 9 -8 16 5 30 22 25 38
23 62 -8z m-37 -74 c21 -29 16 -56 -12 -63 -20 -5 -50 21 -50 44 0 12 -2 12
-9 0 -11 -18 -4 -39 22 -68 18 -20 18 -23 4 -23 -32 0 -58 80 -41 125 10 25
63 15 86 -15z m148 2 c0 -16 -7 -37 -15 -48 -17 -22 -19 -53 -6 -103 11 -39
56 -270 56 -285 0 -10 -114 -76 -132 -76 -7 0 -13 34 -18 98 -12 192 -26 285
-43 299 -15 11 -15 14 -2 22 8 6 31 8 51 5 26 -4 40 -1 52 11 27 26 20 37 -13
20 -37 -19 -40 -19 -40 4 0 33 48 81 81 81 25 0 29 -4 29 -28z m-160 -216 l0
-44 -62 -4 c-65 -4 -85 1 -127 33 -24 19 -24 19 52 19 60 0 80 4 98 20 34 28
39 25 39 -24z m20 -125 c0 -45 -3 -53 -33 -75 -49 -37 -113 -44 -159 -17 -58
34 -59 84 -3 121 24 16 48 20 113 20 l82 0 0 -49z m255 -108 c3 -38 13 -89 21
-115 8 -26 14 -54 14 -62 0 -17 15 -22 24 -7 3 4 47 -1 98 -11 150 -32 409
-11 505 40 13 7 37 9 64 4 35 -6 44 -12 50 -34 10 -39 -32 -208 -52 -208 -12
0 -86 47 -116 74 -13 10 -26 34 -29 53 -4 19 -8 32 -11 29 -5 -4 23 -164 33
-190 16 -42 -320 -90 -551 -79 -99 5 -146 12 -267 44 -44 11 -45 18 -26 129
11 62 14 69 31 64 23 -7 23 -8 -50 96 l-53 75 62 8 c73 9 134 35 189 78 39 31
52 53 24 43 -8 -4 -15 -3 -15 1 0 9 31 34 42 35 3 0 9 -30 13 -67z m-245 -63
c0 -11 -6 -20 -14 -20 -21 0 -31 21 -15 31 22 14 29 11 29 -11z m1158 -193 c2
-20 6 -37 10 -37 4 0 20 16 35 35 15 19 32 35 37 35 19 0 10 -37 -15 -60 -33
-31 -18 -48 25 -30 20 8 34 10 41 3 14 -14 -13 -34 -70 -54 -43 -14 -46 -19
-51 -55 -7 -54 -33 -53 -40 1 -5 38 -8 41 -52 55 -51 16 -61 37 -38 81 11 19
11 19 52 -2 l41 -21 -7 27 c-8 33 1 67 17 62 7 -2 13 -20 15 -40z m-343 -283
c-7 -58 -49 -235 -59 -252 -11 -18 -92 -33 -161 -30 l-70 3 3 35 c2 19 6 37 8
40 3 2 25 -6 50 -19 24 -13 47 -21 50 -18 3 3 -8 13 -25 22 -39 20 -32 36 13
28 19 -3 36 -1 40 6 5 7 -4 11 -23 11 -21 0 -31 5 -31 15 0 25 33 170 40 178
6 7 118 31 164 36 4 1 5 -24 1 -55z m-651 21 c49 -8 144 -15 213 -15 100 0
125 -3 129 -15 3 -8 2 -47 -3 -87 l-8 -73 -75 -4 -75 -4 70 -12 70 -12 -42 -8
c-24 -4 -43 -12 -43 -17 0 -10 33 -7 78 7 19 7 22 4 22 -23 0 -38 -13 -42
-155 -42 -108 0 -255 26 -278 49 -10 10 -36 190 -37 250 0 29 2 33 23 28 12
-4 62 -13 111 -22z m441 -80 c-8 -33 -16 -72 -20 -87 -4 -23 -11 -28 -36 -28
-31 0 -31 0 -25 45 3 25 9 65 12 89 6 41 9 45 38 48 17 2 34 1 38 -2 4 -3 1
-32 -7 -65z m-508 -231 c-3 -3 -12 -4 -19 -1 -8 3 -5 6 6 6 11 1 17 -2 13 -5z
m62 -56 c7 -20 24 -48 38 -62 33 -33 25 -43 -11 -15 -30 23 -70 104 -60 120 9
15 19 1 33 -43z m34 32 c3 -11 17 -24 32 -30 30 -12 29 -29 -3 -41 -18 -7 -24
-3 -37 21 -17 32 -20 70 -6 70 5 0 11 -9 14 -20z m517 4 c-25 -8 -64 -17 -87
-21 -35 -5 -43 -3 -43 10 0 16 34 22 135 24 l40 1 -45 -14z m-415 -4 c4 -6
-12 -10 -39 -10 -25 0 -46 5 -46 10 0 6 18 10 39 10 22 0 43 -4 46 -10z m237
-32 c3 -24 3 -45 1 -47 -8 -10 -33 26 -39 57 -6 28 -4 32 14 32 16 0 21 -8 24
-42z m58 -17 c0 -15 -27 -20 -39 -8 -6 6 -11 24 -11 40 l0 30 25 -27 c14 -15
25 -31 25 -35z m-175 12 c-7 -31 -23 -53 -36 -53 -5 0 -4 11 1 25 5 14 7 32 4
40 -4 11 0 15 16 15 19 0 21 -4 15 -27z m-115 -37 c-8 -27 -17 -36 -33 -36
-39 0 -50 15 -22 30 14 7 25 18 25 25 0 6 5 16 12 23 21 21 31 -3 18 -42z m68
22 c2 -17 -4 -34 -17 -47 -23 -23 -61 -30 -43 -8 6 6 13 29 17 50 9 45 38 48
43 5z m332 3 c0 -18 -18 -41 -32 -41 -8 0 -1 45 9 63 7 12 23 -3 23 -22z m40
9 c0 -11 -7 -20 -15 -20 -8 0 -15 9 -15 20 0 11 7 20 15 20 8 0 15 -9 15 -20z
m-90 -21 c0 -22 -22 -34 -45 -26 -12 5 -10 11 8 31 24 27 37 25 37 -5z" id="node1" class="node"></path>
<path d="M1499 2534 c-13 -14 -41 -33 -61 -41 -34 -14 -51 -33 -30 -33 13 0
96 55 111 74 23 28 6 28 -20 0z" id="node2" class="node"></path>
<path d="M1705 1755 c17 -8 41 -15 55 -16 19 -1 15 -4 -19 -15 -52 -16 -84
-43 -106 -90 -19 -41 -25 -42 -56 -8 -37 41 -103 67 -152 60 -23 -3 -36 -3
-29 0 7 3 17 15 24 27 11 21 11 21 -13 4 -13 -9 -41 -26 -61 -37 -21 -11 -38
-27 -38 -35 0 -14 4 -13 33 1 l32 17 -19 -22 c-24 -27 -33 -115 -16 -165 14
-43 78 -109 132 -137 45 -23 96 -24 126 -3 27 19 31 0 5 -28 -9 -10 -13 -21
-9 -26 13 -12 54 45 60 85 l7 38 79 0 c74 0 81 2 111 30 17 17 38 44 45 62 18
41 18 114 0 157 -15 37 -60 76 -87 76 -11 0 -16 5 -13 14 6 15 -36 27 -90 25
l-31 -1 30 -13z m132 -53 c58 -44 46 -228 -16 -262 -25 -13 -117 -13 -142 0
-23 13 -28 73 -5 64 8 -3 24 -1 35 6 44 23 13 98 -35 86 -29 -8 -30 -3 -3 41
25 41 73 69 139 82 3 0 15 -7 27 -17z m-285 -88 c35 -34 68 -82 68 -99 0 -3
-9 -5 -20 -5 -29 0 -39 -49 -14 -67 10 -7 24 -11 31 -9 18 7 16 -4 -7 -41 -29
-49 -52 -57 -108 -38 -61 20 -73 30 -111 90 -35 55 -41 116 -16 165 21 40 43
51 93 46 34 -3 53 -12 84 -42z m128 -58 c0 -11 -19 -15 -25 -6 -3 5 1 10 9 10
9 0 16 -2 16 -4z" id="node3" class="node"></path>
<path d="M1955 1452 c-24 -20 -49 -72 -39 -81 4 -3 9 0 12 8 10 30 51 61 80
61 49 0 56 -21 21 -64 -40 -47 -33 -54 14 -15 41 34 48 66 19 92 -24 22 -81
21 -107 -1z" id="node4" class="node"></path>
<path d="M1684 1166 c-51 -51 -46 -66 24 -65 44 0 52 2 35 9 -29 12 -33 76 -5
83 15 4 15 5 -1 6 -11 0 -34 -14 -53 -33z m16 -31 c0 -8 -4 -15 -10 -15 -5 0
-10 7 -10 15 0 8 5 15 10 15 6 0 10 -7 10 -15z" id="node5" class="node"></path>
<path d="M913 1370 c-41 -6 -93 -42 -93 -64 0 -6 5 -5 12 2 7 7 31 12 54 12
25 0 47 6 54 15 7 8 21 15 31 15 11 0 19 4 19 9 0 13 -30 18 -77 11z m2 -20
c-3 -5 -12 -10 -18 -10 -7 0 -6 4 3 10 19 12 23 12 15 0z" id="node6" class="node"></path>

<path d="M1035 273 c-28 -31 -32 -45 -10 -37 8 3 17 15 20 26 4 10 16 23 28
28 17 7 18 9 5 9 -9 1 -29 -11 -43 -26z" id="node8" class="node"></path>
<path d="M980 245 c0 -8 2 -15 4 -15 2 0 6 7 10 15 3 8 1 15 -4 15 -6 0 -10
-7 -10 -15z" id="node9" class="node"></path>










</g>
<g transform="translate(0.000000,300.000000) scale(0.100000,-0.100000)" fill="#EED0EA" stroke="none">

<path d="M929 2961 c-58 -19 -135 -79 -166 -130 -38 -61 -32 -103 31 -185 73
-97 170 -201 212 -227 19 -11 54 -23 77 -24 23 -2 58 -7 78 -10 43 -8 228 34
292 66 82 42 119 75 168 149 61 92 61 165 2 231 -53 58 -104 82 -193 87 -59 3
-89 -1 -140 -18 -36 -12 -73 -29 -83 -38 -17 -16 -18 -15 -15 13 3 25 -3 33
-46 59 -41 26 -60 31 -120 33 -39 1 -83 -1 -97 -6z m590 -427 c-15 -19 -98
-74 -111 -74 -21 0 -4 19 30 33 20 8 48 27 61 41 26 28 43 28 20 0z" id="node21" class="node"></path>
<path d="M1057 2373 c-12 -12 -7 -23 11 -23 13 -1 11 -6 -12 -24 -16 -13 -26
-30 -24 -37 3 -10 12 -6 31 13 17 18 40 28 62 30 39 2 56 -9 35 -22 -12 -8
-10 -10 8 -10 26 0 40 26 24 42 -6 6 -25 11 -42 10 -18 0 -33 5 -37 14 -5 14
-44 20 -56 7z" id="node22" class="node"></path>
<path d="M1600 2139 c-88 -15 -207 -56 -320 -111 -169 -82 -161 -73 -158 -181
3 -87 4 -92 25 -95 13 -2 29 -13 37 -24 13 -18 22 -20 63 -15 67 9 123 26 123
38 0 5 -12 21 -27 34 l-28 24 138 1 c75 0 137 3 137 6 0 4 -8 13 -17 20 -15
11 -2 13 91 14 60 0 150 5 200 10 221 25 354 44 386 55 l35 12 -58 27 c-32 14
-64 26 -72 26 -7 0 -16 4 -19 9 -3 5 -18 12 -33 16 -16 3 -41 13 -58 20 -40
19 -222 55 -274 55 -23 0 -41 4 -41 9 0 6 19 21 43 35 l42 26 -80 -1 c-44 -1
-105 -5 -135 -10z" id="node23" class="node"></path>
<path d="M962 1898 c-22 -18 -52 -47 -66 -64 -29 -36 -86 -151 -86 -175 0 -20
-31 -49 -52 -49 -15 0 -48 -30 -48 -44 0 -4 15 2 34 13 47 29 57 27 40 -9 -9
-16 -14 -40 -12 -52 3 -21 9 -23 81 -26 62 -2 82 1 102 15 32 23 31 29 -5 48
-36 19 -60 62 -60 109 0 29 9 45 53 90 51 52 80 66 145 68 20 0 22 5 22 54 0
30 -3 54 -8 54 -4 0 -24 -11 -45 -25 l-37 -26 0 26 c0 33 -9 32 -58 -7z" id="node24" class="node"></path>
<path d="M1624 1829 c-2 -4 6 -9 17 -12 60 -16 -30 -32 -179 -32 -68 0 -91 -8
-57 -21 8 -4 15 -10 15 -14 0 -9 -136 -56 -193 -66 -29 -5 -40 -13 -53 -40
-22 -45 -16 -99 31 -301 4 -19 12 -23 44 -23 l39 0 5 -62 c7 -78 22 -147 34
-159 10 -10 19 -12 123 -30 105 -19 319 -5 405 25 179 64 227 90 294 161 49
51 53 59 48 92 -7 43 -48 124 -91 178 -65 83 -178 199 -243 250 -68 53 -68 53
-151 56 -46 3 -86 1 -88 -2z m145 -65 c22 -5 30 -11 27 -20 -3 -9 2 -14 13
-14 27 0 72 -39 87 -76 18 -43 18 -116 0 -157 -7 -18 -28 -45 -45 -62 -30 -28
-37 -30 -111 -30 l-79 0 -7 -38 c-6 -40 -47 -97 -60 -85 -4 5 0 16 9 26 26 28
22 47 -5 28 -30 -21 -81 -20 -126 3 -54 28 -118 94 -132 137 -17 50 -8 138 16
165 l19 22 -32 -17 c-29 -14 -33 -15 -33 -1 0 8 17 24 38 35 20 11 48 28 61
37 24 17 24 17 13 -4 -7 -12 -17 -24 -24 -27 -7 -3 6 -3 29 0 49 7 115 -19
152 -60 31 -34 37 -33 56 8 22 47 54 74 106 90 34 11 38 14 19 15 -14 1 -38 8
-55 16 l-30 13 31 1 c17 1 46 -2 63 -5z m293 -311 c29 -26 22 -58 -19 -92 -47
-39 -54 -32 -14 15 35 43 28 64 -21 64 -29 0 -70 -31 -80 -61 -3 -8 -8 -11
-12 -8 -10 9 15 61 39 81 26 22 83 23 107 1z m-324 -260 c-28 -7 -24 -71 5
-83 17 -7 9 -9 -35 -9 -47 -1 -58 2 -58 15 0 23 64 84 87 83 16 -1 16 -2 1 -6z" id="node25" class="node"></path>
<path d="M1780 1711 c-46 -11 -88 -40 -109 -74 -27 -44 -26 -49 3 -41 48 12
79 -63 35 -86 -11 -7 -27 -9 -35 -6 -23 9 -18 -51 5 -64 25 -13 117 -13 142 0
62 34 74 218 16 262 -12 10 -24 17 -27 17 -3 -1 -16 -4 -30 -8z" id="node26" class="node"></path>
<path d="M1407 1650 c-55 -34 -62 -132 -16 -205 38 -60 50 -70 111 -90 56 -19
79 -11 108 38 23 37 25 48 7 41 -7 -2 -21 2 -31 9 -25 18 -15 67 14 67 11 0
20 2 20 5 0 17 -33 65 -68 99 -31 30 -50 39 -84 42 -23 3 -51 0 -61 -6z" id="node27" class="node"></path>
<path d="M1655 1550 c4 -6 11 -8 16 -5 14 9 11 15 -7 15 -8 0 -12 -5 -9 -10z" id="node28" class="node"></path>
<path d="M1680 1135 c0 -8 5 -15 10 -15 6 0 10 7 10 15 0 8 -4 15 -10 15 -5 0
-10 -7 -10 -15z" id="node29" class="node"></path>
<path d="M1066 1801 c-8 -13 17 -71 31 -71 14 0 16 21 7 58 -6 22 -28 30 -38
13z" id="node30" class="node"></path>
<path d="M987 1772 c-13 -14 -14 -21 -5 -30 7 -7 18 -12 25 -12 7 0 17 -9 23
-20 12 -23 40 -16 40 10 0 22 -37 70 -54 70 -7 0 -20 -8 -29 -18z" id="node31" class="node"></path>
<path d="M926 1705 c-17 -45 9 -125 41 -125 14 0 14 3 -4 23 -26 29 -33 50
-22 68 7 12 9 12 9 0 0 -23 30 -49 50 -44 28 7 33 34 12 63 -23 30 -76 40 -86
15z" id="node32" class="node"></path>
<path d="M1076 1689 c-23 -27 -35 -69 -21 -69 4 0 19 7 35 15 33 17 40 6 13
-20 -12 -12 -26 -15 -52 -11 -20 3 -43 1 -51 -5 -13 -8 -13 -11 2 -22 17 -14
31 -107 43 -299 5 -64 11 -98 18 -98 18 0 132 66 132 76 0 15 -45 246 -56 285
-13 50 -11 81 6 103 8 11 15 32 15 48 0 24 -4 28 -29 28 -20 0 -37 -9 -55 -31z" id="node33" class="node"></path>
<path d="M961 1500 c-18 -16 -38 -20 -98 -20 -76 0 -76 0 -52 -19 42 -32 62
-37 127 -33 l62 4 0 44 c0 49 -5 52 -39 24z" id="node34" class="node"></path>
<path d="M825 1380 c-56 -37 -55 -87 3 -121 46 -27 110 -20 159 17 30 22 33
30 33 75 l0 49 -82 0 c-65 0 -89 -4 -113 -20z m165 -21 c0 -5 -8 -9 -19 -9
-10 0 -24 -7 -31 -15 -7 -9 -29 -15 -54 -15 -23 0 -47 -5 -54 -12 -7 -7 -12
-8 -12 -2 0 6 11 21 25 34 35 33 145 47 145 19z" id="node35" class="node"></path>
<path d="M900 1350 c-9 -6 -10 -10 -3 -10 6 0 15 5 18 10 8 12 4 12 -15 0z" id="node36" class="node"></path>
<path d="M1238 1296 c-22 -16 -23 -30 -3 -22 28 10 15 -12 -24 -43 -55 -43
-116 -69 -189 -78 l-62 -8 53 -75 c73 -104 73 -103 50 -96 -17 5 -20 -2 -31
-64 -7 -39 -12 -81 -12 -95 0 -26 -2 -25 135 -58 128 -31 386 -28 580 7 110
20 148 34 141 52 -10 26 -38 186 -33 190 3 3 7 -10 11 -29 3 -19 16 -43 29
-53 30 -27 104 -74 116 -74 20 0 62 169 52 208 -6 22 -15 28 -50 34 -27 5 -51
3 -64 -4 -96 -51 -355 -72 -505 -40 -51 10 -95 15 -98 11 -9 -15 -24 -10 -24
7 0 8 -6 36 -14 62 -8 26 -18 77 -21 115 -4 37 -10 67 -13 67 -4 0 -15 -7 -24
-14z" id="node37" class="node"></path>
<path d="M1001 1191 c-16 -10 -6 -31 15 -31 8 0 14 9 14 20 0 22 -7 25 -29 11z" id="node38" class="node"></path>
<path d="M2155 1011 c-3 -10 -3 -31 1 -46 l7 -27 -41 21 c-41 21 -41 21 -52 2
-23 -44 -13 -65 38 -81 44 -14 47 -17 52 -55 7 -54 33 -55 40 -1 5 36 8 41 51
55 57 20 84 40 70 54 -7 7 -21 5 -41 -3 -43 -18 -58 -1 -25 30 25 23 34 60 15
60 -5 0 -22 -16 -37 -35 -15 -19 -31 -35 -35 -35 -4 0 -8 17 -10 37 -3 40 -23
55 -33 24z" id="node39" class="node"></path>
<path d="M1761 745 c-40 -8 -77 -17 -81 -22 -7 -8 -40 -153 -40 -178 0 -10 10
-15 31 -15 19 0 28 -4 23 -11 -4 -7 -21 -9 -40 -6 -45 8 -52 -8 -13 -28 17 -9
28 -19 25 -22 -3 -3 -26 5 -50 18 -25 13 -47 21 -50 19 -2 -3 -6 -21 -8 -40
l-3 -35 70 -3 c69 -3 150 12 161 30 10 17 52 194 59 252 4 31 3 56 -1 55 -5 0
-42 -7 -83 -14z" id="node40" class="node"></path>
<path d="M1060 719 c1 -60 27 -240 37 -250 23 -23 170 -49 278 -49 142 0 155
4 155 42 0 27 -3 30 -22 23 -45 -14 -78 -17 -78 -7 0 5 19 13 43 17 l42 8 -70
12 -70 12 75 4 75 4 8 73 c5 40 6 79 3 87 -4 12 -29 15 -129 15 -106 0 -238
15 -324 37 -21 5 -23 1 -23 -28z" id="node41" class="node"></path>
<path d="M1604 712 c-29 -3 -32 -7 -38 -48 -3 -24 -9 -64 -12 -89 -6 -45 -6
-45 25 -45 25 0 32 5 36 28 4 15 12 54 20 87 8 33 11 62 7 65 -4 3 -21 4 -38
2z" id="node42" class="node"></path>
<path d="M1108 413 c7 -3 16 -2 19 1 4 3 -2 6 -13 5 -11 0 -14 -3 -6 -6z" id="node43" class="node"></path>
<path d="M1156 401 c-10 -16 30 -97 60 -120 36 -28 44 -18 11 15 -14 14 -31
42 -38 62 -14 44 -24 58 -33 43z" id="node44" class="node"></path>
<path d="M1200 390 c0 -12 7 -34 15 -50 13 -24 19 -28 37 -21 32 12 33 29 3
41 -15 6 -29 19 -32 30 -7 26 -23 26 -23 0z" id="node45" class="node"></path>
<path d="M1658 403 c-36 -3 -48 -8 -48 -20 0 -13 8 -15 43 -10 23 4 62 13 87
21 l45 14 -40 -1 c-22 0 -61 -2 -87 -4z" id="node46" class="node"></path>
<path d="M1240 390 c0 -5 21 -10 46 -10 27 0 43 4 39 10 -3 6 -24 10 -46 10
-21 0 -39 -4 -39 -10z" id="node47" class="node"></path>
<path d="M1524 368 c6 -31 31 -67 39 -57 2 2 2 23 -1 47 -3 34 -8 42 -24 42
-18 0 -20 -4 -14 -32z" id="node48" class="node"></path>
<path d="M1570 373 c0 -33 16 -54 36 -46 20 7 17 18 -11 49 l-25 27 0 -30z" id="node49" class="node"></path>
<path d="M1414 365 c3 -8 1 -26 -4 -40 -5 -14 -6 -25 -1 -25 13 0 29 22 36 53
6 23 4 27 -15 27 -16 0 -20 -4 -16 -15z" id="node50" class="node"></path>
<path d="M1312 358 c-7 -7 -12 -17 -12 -23 0 -7 -11 -18 -25 -25 -28 -15 -17
-30 22 -30 16 0 25 9 33 36 13 39 3 63 -18 42z" id="node51" class="node"></path>
<path d="M1355 333 c-4 -21 -11 -44 -17 -50 -18 -22 20 -15 43 8 24 24 23 72
-2 77 -12 2 -19 -7 -24 -35z" id="node52" class="node"></path>
<path d="M1707 363 c-10 -18 -17 -63 -9 -63 14 0 32 23 32 41 0 19 -16 34 -23
22z" id="node53" class="node"></path>
<path d="M1740 350 c0 -11 7 -20 15 -20 8 0 15 9 15 20 0 11 -7 20 -15 20 -8
0 -15 -9 -15 -20z" id="node54" class="node"></path>
<path d="M1643 334 c-18 -20 -20 -26 -8 -31 23 -8 45 4 45 26 0 30 -13 32 -37
5z" id="node55" class="node"></path>
</g>
</svg>