<!--?xml version="1.0" standalone="no"?-->

<svg version="1.0" xmlns="http://www.w3.org/2000/svg" width="300.000000pt" height="246.000000pt" viewBox="0 0 300.000000 246.000000" preserveAspectRatio="xMidYMid meet">
<g transform="translate(0.000000,246.000000) scale(0.100000,-0.100000)" fill="#FF0404" stroke="none">
<path class="node" id="node1" d="M2184 2450 c-147 -27 -310 -117 -422 -234 l-63 -65 52 -103 c75 -150
230 -472 232 -482 2 -11 -12 -19 -278 -156 -121 -62 -232 -121 -247 -130 l-28
-17 43 -54 c23 -30 52 -65 63 -79 12 -14 80 -92 150 -174 71 -82 140 -162 153
-178 l23 -29 -47 -102 c-80 -169 -163 -345 -230 -482 -34 -72 -61 -132 -59
-134 2 -2 21 9 42 26 20 16 114 85 207 153 439 319 594 445 787 645 208 215
325 401 400 633 30 93 32 105 32 267 l1 170 -34 83 c-108 269 -342 436 -624
447 -56 2 -125 0 -153 -5z"></path>
<path class="node" id="node2" d="M575 2444 c-11 -3 -55 -16 -97 -30 -286 -90 -480 -360 -477 -664 1
-219 99 -471 270 -698 171 -228 377 -418 755 -698 302 -224 459 -339 464 -342
4 -1 13 26 22 60 27 104 74 275 113 413 20 72 45 162 56 200 10 39 21 80 24
91 6 18 -30 51 -249 230 -141 115 -256 214 -256 220 0 7 6 14 13 17 6 3 78 56
159 119 80 62 185 142 232 178 47 36 86 69 86 74 0 14 -389 537 -439 589 -94
99 -208 173 -336 217 -46 16 -91 22 -190 25 -71 2 -139 2 -150 -1z"></path>
</g>
<g transform="translate(0.000000,246.000000) scale(0.100000,-0.100000)" fill="#FFA1A1" stroke="none">


</g>
</svg>