<!--?xml version="1.0" standalone="no"?--><svg version="1.0" xmlns="http://www.w3.org/2000/svg" width="300.000000pt" height="300.000000pt" viewBox="0 0 300.000000 300.000000" preserveAspectRatio="xMidYMid meet">
<metadata>
  <rdf:rdf xmlns:rdf="http://www.w3.org/1999/02/22-rdf-syntax-ns#" xmlns:rdfs="http://www.w3.org/2000/01/rdf-schema#" xmlns:dc="http://purl.org/dc/elements/1.1/">
    <rdf:description dc:title="love broken with blood" dc:publisher="Hiox" dc:date="2015-03-26" dc:format="image/svg+xml" dc:language="en">
      <dc:creator>
        <rdf:bag>
          <rdf:li>svgimages.com</rdf:li>
        </rdf:bag>
      </dc:creator>
    </rdf:description>
  </rdf:rdf>
</metadata>
<g transform="translate(0.000000,300.000000) scale(0.100000,-0.100000)" fill="#030303" stroke="none">
<path d="M815 2810 c-275 -40 -468 -211 -521 -460 -39 -184 9 -443 128 -682
162 -328 546 -713 963 -968 79 -47 102 -57 111 -48 21 23 145 259 142 270 -2
6 -91 65 -198 132 -106 66 -195 126 -197 132 -2 6 77 85 177 175 99 90 180
167 180 170 0 4 -65 68 -145 144 -80 75 -145 141 -145 145 0 4 74 65 165 136
91 70 162 131 158 135 -5 4 -100 67 -213 139 -113 72 -206 134 -207 138 -2 4
41 57 95 118 53 61 103 118 110 126 12 15 4 23 -58 67 -161 113 -354 159 -545
131z" id="node1" class="node"></path>
<path d="M1936 2809 c-111 -18 -240 -76 -341 -152 -70 -53 -261 -265 -249
-276 11 -9 223 -145 346 -222 48 -30 88 -59 88 -66 0 -6 -77 -71 -171 -143
-93 -73 -169 -135 -167 -139 2 -3 64 -65 138 -136 74 -72 135 -137 135 -145 0
-9 -75 -84 -167 -169 -93 -84 -168 -156 -168 -160 0 -4 86 -61 190 -126 105
-65 190 -121 190 -125 0 -4 -25 -51 -55 -106 -30 -54 -55 -102 -55 -107 0 -13
176 110 304 213 479 385 748 834 750 1250 1 119 -22 210 -77 314 -39 74 -135
172 -207 213 -135 76 -328 109 -484 82z" id="node2" class="node"></path>
<path d="M1565 532 c-4 -20 -22 -77 -41 -126 -41 -106 -42 -135 -8 -175 33
-39 80 -42 121 -7 38 33 36 77 -10 198 -20 53 -37 106 -37 117 0 36 -18 31
-25 -7z" id="node3" class="node"></path>
</g>
<g transform="translate(0.000000,300.000000) scale(0.100000,-0.100000)" fill="#A1A1A1" stroke="none">

</g>
</svg>