<!--?xml version="1.0" standalone="no"?-->

<svg version="1.0" xmlns="http://www.w3.org/2000/svg" width="300.000000pt" height="300.000000pt" viewBox="0 0 300.000000 300.000000" preserveAspectRatio="xMidYMid meet">
<g transform="translate(0.000000,300.000000) scale(0.100000,-0.100000)" fill="#131313" stroke="none">
<path class="node" id="node1" d="M1100 2683 c-63 -23 -82 -104 -34 -142 15 -12 34 -21 43 -21 9 0 3 8
-16 19 -53 33 -51 82 4 112 27 14 78 -3 93 -32 15 -27 12 -82 -5 -106 -19 -27
-53 -37 -183 -57 -215 -33 -419 -159 -515 -318 -21 -35 -29 -53 -18 -40 11 12
21 28 24 35 2 6 7 10 10 7 3 -3 -9 -37 -27 -75 -89 -187 -68 -435 50 -596 46
-63 43 -71 -8 -24 -24 22 -10 6 30 -34 39 -41 72 -77 72 -81 0 -5 14 -11 30
-15 17 -4 35 -15 40 -26 6 -11 21 -19 35 -19 16 0 25 -6 25 -15 0 -8 8 -15 19
-15 10 0 24 -7 31 -15 7 -8 16 -15 21 -15 16 0 157 -100 212 -150 30 -27 59
-50 63 -51 5 0 30 -28 57 -61 41 -53 50 -74 46 -104 0 -4 4 -10 9 -13 15 -10
42 -68 42 -91 0 -11 5 -20 10 -20 6 0 10 5 10 12 0 34 22 -17 36 -82 18 -88
29 -107 19 -33 -7 54 1 101 15 87 17 -18 40 -148 40 -227 0 -65 2 -78 13 -68
8 8 12 57 12 169 0 132 -3 162 -18 190 -10 18 -15 37 -12 42 7 12 -10 45 -41
83 -26 30 -33 73 -11 61 27 -15 -10 15 -63 52 -113 79 -169 128 -164 146 4 12
0 15 -16 11 -15 -4 -19 -2 -14 10 3 10 -1 17 -13 20 -16 4 -16 5 2 6 11 0 44
-15 74 -34 65 -43 73 -44 36 -5 -25 26 -65 48 -195 108 -74 34 -22 24 68 -12
91 -38 196 -108 237 -158 l26 -33 -15 31 c-23 48 -125 135 -210 179 -42 22
-76 43 -76 48 0 4 -11 7 -24 7 -13 0 -29 7 -36 15 -7 8 -19 15 -28 15 -44 0
-265 139 -279 176 -3 8 -21 31 -39 51 -48 53 -69 127 -68 241 1 55 6 98 13
105 6 6 11 20 11 32 0 16 2 17 10 5 8 -13 10 -12 10 4 0 11 3 16 6 13 4 -4 6
-41 5 -84 -3 -132 35 -231 119 -314 65 -64 212 -121 304 -118 22 1 16 4 -21
10 -126 21 -261 118 -305 218 -28 64 -39 103 -27 95 9 -5 4 59 -7 94 -2 7 0
11 5 8 9 -6 21 40 21 80 0 13 5 24 10 24 6 0 10 7 10 15 0 50 81 137 174 186
55 30 69 33 146 33 108 1 146 -6 174 -33 12 -12 25 -18 29 -14 10 10 47 -27
68 -69 24 -47 24 -79 0 -128 -24 -50 -19 -51 14 -3 34 51 34 110 -2 174 -14
27 -30 49 -35 49 -4 0 -8 7 -8 15 0 17 16 20 25 5 3 -5 21 -17 39 -25 25 -12
40 -31 60 -73 31 -68 34 -49 6 33 -11 32 -20 60 -20 63 0 3 9 -3 20 -13 11
-10 20 -14 20 -9 1 5 10 -2 20 -15 11 -13 20 -20 20 -17 0 3 9 -3 20 -14 20
-20 43 -106 34 -122 -3 -5 -1 -8 5 -8 5 0 12 6 14 13 10 22 7 -37 -2 -71 -6
-20 -6 -30 0 -27 17 11 9 -12 -16 -49 -14 -20 -25 -43 -25 -50 0 -8 -15 -23
-32 -35 -28 -18 -30 -21 -12 -21 49 0 85 14 125 51 28 25 49 37 60 34 13 -5
16 -1 12 13 -2 11 0 23 6 26 6 4 11 1 11 -8 0 -17 48 -76 62 -76 6 0 7 11 4
26 -4 15 0 47 9 75 16 46 28 59 38 42 2 -5 3 -3 1 4 -3 14 64 76 75 69 5 -3
11 3 14 13 6 23 85 51 146 51 97 -1 251 -79 251 -127 0 -7 7 -13 15 -13 8 0
15 -9 15 -19 0 -11 5 -23 10 -26 6 -3 10 -19 10 -35 0 -35 19 -51 21 -18 1 13
6 -2 11 -32 11 -63 11 -81 4 -130 -5 -31 -3 -29 14 15 l20 50 -4 -76 c-6 -116
-53 -197 -160 -277 -39 -30 -24 -28 30 4 62 37 126 112 154 182 13 33 28 58
32 56 7 -4 12 49 11 119 0 11 4 14 10 8 5 -5 8 -50 5 -103 -5 -113 -26 -161
-101 -231 -47 -44 -139 -97 -169 -97 -10 0 -9 -3 2 -10 8 -5 12 -11 10 -14 -3
-2 -50 -25 -105 -51 -55 -26 -126 -59 -157 -73 -32 -15 -58 -29 -58 -33 0 -4
172 52 289 95 57 21 63 14 13 -16 -21 -12 -37 -28 -35 -34 2 -6 -19 -21 -47
-34 -30 -14 -46 -26 -39 -31 8 -4 4 -11 -10 -18 -29 -16 -172 -61 -192 -61 -9
0 -30 -7 -45 -15 -16 -8 -24 -15 -19 -15 6 0 -19 -14 -54 -30 -75 -36 -132
-79 -162 -123 l-22 -32 34 31 c56 51 103 82 129 88 14 2 42 12 63 21 22 9 44
14 50 12 7 -3 3 -8 -8 -13 -11 -4 -26 -14 -33 -21 -11 -11 -10 -13 9 -13 19 0
16 -4 -15 -25 -21 -14 -61 -37 -89 -52 -52 -26 -197 -162 -197 -184 0 -7 12 4
28 23 15 20 36 42 47 48 19 13 19 12 2 -11 -106 -146 -81 -317 55 -374 125
-51 261 55 228 177 -11 40 -57 84 -96 94 -39 10 -114 -29 -114 -59 0 -6 9 -1
20 11 27 29 61 36 104 22 27 -8 40 -22 57 -57 l22 -46 -22 -42 c-23 -43 -89
-85 -134 -85 -38 0 -101 43 -123 85 -23 43 -39 110 -25 100 5 -3 12 13 16 36
4 22 9 38 12 35 3 -3 15 11 25 32 25 47 51 75 86 93 15 7 57 31 94 52 38 22
72 36 79 31 7 -4 9 -3 5 4 -8 13 23 31 43 24 8 -3 11 0 7 7 -4 6 -2 9 7 5 8
-3 63 30 125 74 60 44 152 104 204 133 51 29 102 62 113 74 11 11 16 17 11 13
-6 -5 -14 -8 -19 -8 -5 0 14 25 41 55 66 72 136 186 158 257 16 52 20 57 41
52 18 -5 22 -3 17 10 -5 14 -3 15 27 2 38 -16 84 -5 99 24 12 23 13 77 2 84
-5 3 -8 -14 -8 -37 1 -36 -3 -43 -27 -55 -23 -11 -34 -11 -58 -1 -43 17 -56
51 -61 159 -6 108 -28 172 -90 258 -81 109 -202 181 -354 209 -117 21 -315 25
-322 5 -2 -6 -11 -12 -20 -13 -10 -1 -7 -4 8 -9 l25 -7 -27 -8 c-16 -4 -25
-11 -22 -16 3 -5 1 -9 -4 -9 -6 0 -33 -18 -62 -39 -49 -37 -53 -39 -70 -23
-22 21 -42 116 -27 131 7 7 2 12 -14 16 -13 3 -37 24 -52 45 -52 74 -159 144
-237 156 -22 4 -43 10 -45 15 -3 4 -8 38 -11 76 -6 70 -23 112 -53 130 -23 14
-73 23 -91 16z"></path>
<path class="node" id="node2" d="M765 2483 c-28 -7 -123 -51 -142 -66 -46 -34 -172 -166 -187 -195
-17 -33 -12 -70 6 -38 5 9 15 16 23 16 7 0 17 9 20 20 18 57 165 183 290 249
38 20 34 25 -10 14z"></path>


<path class="node" id="node5" d="M912 2171 c-44 -18 -122 -85 -122 -105 0 -6 5 -4 11 4 8 11 9 6 4
-20 l-6 -35 17 32 c29 57 107 123 146 123 9 0 20 5 23 10 9 15 -25 11 -73 -9z"></path>
<path class="node" id="node6" d="M436 2055 c-9 -26 -7 -32 5 -12 6 10 9 21 6 23 -2 3 -7 -2 -11 -11z"></path>
<path class="node" id="node7" d="M2060 2020 c0 -5 5 -10 11 -10 5 0 7 5 4 10 -3 6 -8 10 -11 10 -2 0
-4 -4 -4 -10z"></path>
<path class="node" id="node8" d="M791 1994 c0 -11 3 -14 6 -6 3 7 2 16 -1 19 -3 4 -6 -2 -5 -13z"></path>
<path class="node" id="node9" d="M2107 2000 c37 -15 83 -88 83 -131 0 -30 3 -37 15 -33 16 7 11 51
-11 95 -17 34 -70 79 -92 78 -12 0 -11 -3 5 -9z"></path>
<path class="node" id="node10" d="M362 1680 c0 -19 2 -27 5 -17 2 9 2 25 0 35 -3 9 -5 1 -5 -18z"></path>
<path class="node" id="node11" d="M2402 1620 c0 -14 2 -19 5 -12 2 6 2 18 0 25 -3 6 -5 1 -5 -13z"></path>
<path class="node" id="node12" d="M370 1615 c1 -17 37 -121 54 -153 72 -139 167 -223 426 -377 117 -69
212 -133 218 -147 2 -5 13 -13 25 -19 42 -19 -97 101 -167 147 -253 162 -318
208 -376 267 -71 73 -128 159 -150 228 -13 43 -30 73 -30 54z"></path>
<path class="node" id="node13" d="M2098 1323 c7 -3 16 -2 19 1 4 3 -2 6 -13 5 -11 0 -14 -3 -6 -6z"></path>
<path class="node" id="node14" d="M2380 1173 c-41 -42 -117 -92 -291 -191 -169 -96 -184 -119 -24 -37
201 103 313 182 344 243 15 29 13 28 -29 -15z"></path>

</g>
<g transform="translate(0.000000,300.000000) scale(0.100000,-0.100000)" fill="#A1A1A1" stroke="none">

</g>
</svg>