<!--?xml version="1.0" standalone="no"?-->

<svg version="1.0" xmlns="http://www.w3.org/2000/svg" width="300.000000pt" height="176.000000pt" viewBox="0 0 300.000000 176.000000" preserveAspectRatio="xMidYMid meet">
<g transform="translate(0.000000,176.000000) scale(0.100000,-0.100000)" fill="#353535" stroke="none">
<path d="M1495 1741 c-92 -23 -153 -51 -199 -91 -63 -55 -93 -139 -77 -213 l8
-34 -131 -6 c-72 -3 -158 -12 -191 -21 -151 -41 -271 -130 -321 -238 -28 -60
-29 -68 -27 -190 3 -119 2 -127 -17 -133 -21 -7 -50 -53 -50 -79 0 -8 -26 -29
-59 -46 -32 -17 -88 -58 -125 -91 -37 -32 -72 -59 -77 -59 -6 0 -23 8 -37 19
-15 10 -34 20 -42 23 -24 8 -64 -17 -110 -69 -40 -46 -42 -50 -37 -99 10 -101
71 -177 150 -189 84 -13 171 28 301 141 43 38 89 77 102 87 l23 18 -11 -31
c-13 -38 -5 -102 16 -135 9 -14 35 -34 58 -46 37 -19 52 -21 123 -14 118 10
124 10 199 -19 51 -20 72 -24 81 -16 10 8 34 5 93 -14 159 -50 241 -61 467
-61 231 0 333 15 520 77 142 47 329 141 359 181 51 66 40 140 -24 169 l-30 13
0 117 c0 64 -7 162 -16 217 -14 91 -14 105 1 163 26 104 92 180 170 198 43 10
45 -2 13 -63 -30 -57 -31 -145 -2 -184 33 -46 80 -65 149 -60 54 3 62 1 79
-21 17 -21 25 -23 60 -19 23 3 58 13 80 22 37 16 38 17 32 56 -8 53 -50 133
-78 154 -13 8 -40 18 -61 22 -35 5 -38 8 -32 32 3 15 -4 56 -16 95 -41 135
-163 218 -298 202 -76 -9 -148 -51 -188 -109 l-31 -46 -43 72 c-23 39 -75 104
-114 143 -160 160 -418 230 -640 175z m277 -35 c365 -70 572 -389 604 -933 l7
-113 -104 -49 c-122 -59 -225 -93 -363 -123 -85 -19 -133 -22 -311 -22 -181 0
-224 3 -313 22 -219 48 -447 153 -561 258 -86 80 -122 146 -128 233 -17 239
230 398 584 376 l113 -6 -20 43 c-40 89 -19 175 57 233 105 80 274 112 435 81z
m849 -257 c55 -19 94 -54 125 -113 16 -30 26 -57 23 -60 -3 -3 -25 5 -50 17
-58 29 -139 29 -195 -1 -46 -23 -107 -88 -132 -139 l-15 -32 -29 87 c-33 97
-30 116 26 181 57 63 160 89 247 60z m127 -196 c28 -21 33 -30 27 -52 -13 -55
-54 -64 -104 -23 -21 16 -22 20 -10 65 10 42 14 47 33 41 11 -3 36 -18 54 -31z
m-76 -98 c26 -22 38 -24 110 -24 64 0 86 -3 107 -18 23 -18 65 -82 57 -90 -1
-2 -17 2 -35 8 -26 9 -43 7 -100 -11 -102 -34 -181 -10 -196 60 -6 28 10 100
22 100 3 0 18 -11 35 -25z m198 -155 c-8 -5 -17 -7 -19 -4 -3 3 1 9 9 14 8 5
17 7 19 4 3 -3 -1 -9 -9 -14z m70 -9 c0 -9 -52 -31 -72 -31 -15 0 3 21 26 30
28 12 46 12 46 1z m-2251 -234 c139 -146 424 -267 724 -307 100 -13 268 -13
377 0 167 20 396 87 529 155 28 14 53 25 56 25 3 0 5 -41 5 -91 l0 -90 -85
-40 c-363 -170 -797 -202 -1158 -84 -60 20 -88 35 -115 64 -37 39 -90 61 -145
61 -16 0 -41 7 -56 16 -24 14 -27 21 -26 74 0 51 -4 63 -28 88 -29 30 -79 56
-129 66 -28 6 -28 7 -28 83 0 75 0 77 16 53 10 -14 38 -47 63 -73z m-107 -17
c3 -38 2 -40 -24 -40 -32 0 -37 22 -12 58 22 32 31 27 36 -18z m117 -91 l45
-20 -49 -23 c-49 -22 -117 -75 -270 -208 -197 -171 -338 -170 -379 5 -6 27 -6
27 33 21 55 -9 128 27 216 106 103 92 158 126 230 144 36 9 127 -4 174 -25z
m69 -61 c15 -15 15 -65 1 -107 -10 -27 -15 -31 -48 -31 -20 0 -45 6 -55 13
-16 12 -17 18 -7 50 7 20 10 41 7 46 -3 5 11 16 32 24 46 20 55 20 70 5z
m-128 -54 c0 -8 -5 -12 -10 -9 -6 4 -8 11 -5 16 9 14 15 11 15 -7z m-500 -15
c0 -29 -31 -79 -50 -79 -8 0 -22 5 -30 10 -12 8 -8 16 25 50 44 45 55 49 55
19z m2300 6 c38 -20 46 -48 23 -88 -14 -25 -44 -45 -131 -89 -268 -134 -591
-197 -867 -168 -182 18 -421 81 -410 108 3 7 5 20 5 27 0 11 17 8 73 -11 250
-85 568 -96 843 -28 108 26 264 84 363 133 l61 31 0 50 c0 28 2 50 5 50 4 0
19 -7 35 -15z m-2230 -37 c0 -8 -60 -42 -65 -36 -1 2 4 18 11 36 13 29 16 31
34 20 11 -7 20 -16 20 -20z m585 -28 c3 -5 1 -10 -4 -10 -6 0 -11 5 -11 10 0
6 2 10 4 10 3 0 8 -4 11 -10z m-132 -15 c25 -10 71 -15 147 -15 123 0 164 -11
198 -55 29 -37 29 -57 -1 -50 -12 4 -70 -4 -127 -16 -157 -32 -221 -27 -257
20 -13 17 -17 72 -7 109 7 26 3 26 47 7z m343 -141 c15 -4 20 -11 17 -25 -6
-22 -9 -23 -52 -8 -43 15 -40 28 9 38 3 0 15 -2 26 -5z" id="node1" class="node"></path>
<path d="M1570 1700 c-199 -25 -322 -131 -290 -252 7 -24 18 -54 27 -67 13
-19 13 -25 1 -36 -10 -11 -32 -11 -102 -4 -151 15 -331 -16 -426 -74 -173
-106 -217 -288 -106 -438 97 -131 352 -261 630 -321 133 -29 432 -31 571 -5
142 27 292 74 395 125 l95 47 -3 90 c-9 275 -68 481 -188 662 -68 102 -136
162 -239 212 -116 57 -237 77 -365 61z m179 -21 c94 -15 162 -42 240 -94 146
-96 240 -242 301 -465 25 -92 50 -277 50 -369 l0 -68 -91 -42 c-124 -56 -294
-107 -430 -127 -137 -20 -391 -14 -509 11 -244 53 -542 201 -608 303 -13 20
-13 22 3 22 9 0 19 -9 22 -21 4 -16 11 -19 29 -15 19 5 25 2 30 -19 7 -29 12
-30 38 -10 15 11 23 12 33 3 11 -9 18 -7 30 5 15 15 19 15 34 1 16 -14 18 -14
24 6 5 17 10 19 21 9 11 -9 14 -7 14 9 0 12 4 23 10 27 13 8 60 -5 60 -17 0
-5 -9 -6 -21 -3 -19 6 -20 4 -15 -22 6 -25 3 -31 -19 -41 -29 -13 -32 -27 -9
-36 12 -4 14 -14 9 -36 -6 -27 -4 -30 18 -30 20 0 24 -4 20 -20 -6 -23 5 -25
41 -9 22 10 28 9 44 -12 19 -23 19 -23 26 -2 5 15 13 19 26 16 14 -4 20 0 20
11 0 9 7 16 15 16 9 0 15 9 15 21 0 15 5 19 15 15 11 -4 15 2 15 20 0 21 3 23
19 15 25 -14 31 -5 24 31 -6 28 -5 30 16 19 19 -11 21 -9 21 15 0 19 4 25 15
20 17 -6 19 3 5 38 -5 14 -6 26 -2 26 5 0 17 7 28 14 18 14 18 15 -14 27 -24
8 -30 15 -23 22 18 18 13 27 -14 27 -20 0 -25 5 -25 24 0 28 33 41 51 20 8
-10 16 -11 30 -4 14 8 20 6 28 -7 9 -15 12 -16 20 -4 5 8 14 10 21 6 8 -5 18
-1 26 9 10 14 16 15 33 6 22 -11 25 -8 22 23 -2 11 5 17 18 17 15 0 19 6 17
25 -1 14 -6 28 -9 32 -4 3 -2 12 3 18 8 9 6 14 -5 19 -9 3 -13 11 -10 17 4 6
-2 13 -13 16 -13 3 -18 11 -15 19 4 10 -3 14 -21 14 -15 0 -25 5 -24 13 2 7
-6 11 -19 10 -15 -2 -23 3 -23 13 0 9 -6 14 -12 11 -46 -19 -48 -19 -48 -3 0
19 -11 21 -28 4 -8 -8 -15 -8 -26 2 -13 10 -17 9 -22 -4 -4 -11 -13 -14 -30
-10 -20 5 -24 2 -24 -15 0 -15 -4 -19 -16 -14 -13 5 -15 2 -10 -14 5 -14 1
-23 -10 -27 -16 -6 -16 -8 0 -25 11 -13 14 -21 7 -26 -16 -9 -13 -25 4 -25 9
0 20 -11 25 -25 5 -14 16 -25 24 -25 8 0 18 -10 22 -22 5 -16 1 -27 -16 -40
-24 -19 -40 -16 -40 8 0 24 -19 16 -26 -12 -5 -18 -10 -22 -17 -15 -18 18 -36
13 -30 -9 4 -15 0 -20 -16 -20 -16 0 -21 -6 -21 -26 0 -21 -4 -24 -20 -19 -16
5 -20 2 -20 -18 0 -20 -4 -23 -25 -19 -28 5 -33 27 -9 36 13 5 14 9 4 21 -6 8
-9 19 -6 24 4 5 1 13 -5 16 -5 4 -8 14 -5 22 4 9 -1 17 -14 20 -11 3 -17 10
-14 15 3 5 -3 12 -15 15 -12 3 -21 12 -21 20 0 11 -7 13 -24 9 -16 -4 -26 -1
-30 10 -4 12 -10 13 -26 4 -16 -9 -20 -8 -20 5 0 20 -9 19 -33 -2 -18 -17 -19
-17 -33 2 -14 19 -15 19 -20 -3 -5 -17 -11 -21 -30 -16 -20 5 -24 2 -24 -15 0
-16 -6 -21 -26 -21 -23 0 -25 -3 -20 -25 5 -18 2 -25 -9 -25 -18 0 -19 -12 -3
-28 10 -10 10 -15 -2 -22 -24 -15 -32 3 -32 68 0 73 35 157 84 203 101 94 317
146 503 121 42 -6 77 -6 88 0 18 9 24 62 7 73 -20 12 -32 87 -21 127 35 114
251 190 450 157z m-405 -430 c11 9 15 8 20 -4 4 -13 10 -14 26 -5 13 7 20 7
20 0 0 -5 9 -10 20 -10 11 0 20 -4 20 -10 0 -5 9 -10 20 -10 11 0 20 -6 20
-14 0 -8 7 -17 16 -20 8 -3 12 -10 9 -16 -3 -5 -2 -10 4 -10 10 0 8 -50 -4
-87 -4 -13 -11 -20 -17 -17 -5 3 -16 0 -24 -7 -8 -6 -17 -9 -21 -6 -3 4 -12 2
-19 -4 -7 -6 -19 -7 -26 -3 -7 5 -20 7 -30 6 -9 -2 -19 2 -23 8 -3 5 -17 7
-29 4 -18 -4 -25 -1 -29 15 -3 12 -12 21 -21 21 -9 0 -16 8 -16 20 0 11 -6 20
-13 20 -16 0 -13 73 3 78 5 2 10 12 10 22 0 13 5 17 20 13 14 -4 20 0 20 12 0
14 3 15 15 5 11 -9 18 -10 29 -1z m-505 -195 c19 17 21 17 21 2 0 -13 4 -15
19 -6 14 7 22 7 27 -1 3 -6 15 -9 25 -6 12 3 19 0 19 -9 0 -8 7 -14 15 -14 8
0 15 -7 15 -15 0 -8 7 -15 15 -15 9 0 12 -6 9 -15 -4 -8 -1 -15 6 -15 6 0 8
-5 5 -10 -4 -6 -2 -17 4 -24 9 -10 8 -15 -4 -20 -13 -5 -14 -10 -5 -27 11 -19
10 -20 -10 -14 -16 5 -23 2 -27 -13 -3 -12 -11 -18 -18 -16 -7 3 -15 -2 -18
-10 -4 -9 -13 -13 -22 -10 -8 4 -22 1 -31 -6 -11 -10 -18 -10 -26 -2 -8 8 -17
7 -33 -4 -20 -13 -23 -12 -33 10 -8 18 -16 23 -31 19 -16 -4 -21 -1 -21 16 0
13 -6 21 -16 21 -10 0 -14 6 -10 15 3 8 -2 18 -11 23 -11 7 -12 11 -4 17 9 5
9 10 0 21 -9 11 -9 14 1 14 8 0 11 9 8 25 -4 20 -1 25 14 25 10 0 21 7 25 16
3 8 12 13 20 10 9 -4 17 1 20 14 5 19 6 19 18 3 13 -17 14 -17 34 1z m394 -86
c4 -10 7 -10 18 0 18 16 29 15 29 -3 0 -8 9 -15 20 -15 13 0 18 -5 14 -15 -4
-9 3 -16 20 -21 24 -6 25 -8 10 -19 -11 -8 -15 -20 -11 -34 4 -17 2 -21 -9
-17 -10 4 -14 -2 -14 -20 0 -22 -4 -25 -21 -21 -19 5 -21 2 -15 -24 5 -28 4
-29 -21 -23 -23 6 -25 4 -20 -15 4 -16 1 -21 -11 -19 -12 2 -17 -4 -16 -20 0
-17 -4 -21 -18 -16 -12 4 -18 0 -18 -11 0 -11 -5 -15 -14 -12 -8 3 -17 -1 -20
-10 -5 -12 -9 -13 -21 -3 -8 6 -23 9 -35 5 -14 -5 -20 -2 -20 9 0 10 -9 16
-25 16 -18 0 -23 4 -19 15 4 8 1 22 -6 31 -11 12 -10 17 8 30 12 8 22 24 22
35 0 10 6 18 13 16 7 -1 11 7 9 22 -2 19 2 22 18 18 16 -4 20 0 20 18 0 18 4
22 20 18 16 -4 20 0 20 21 0 18 4 24 15 20 10 -4 15 0 15 16 0 17 4 20 20 15
14 -5 20 -2 20 9 0 19 16 21 23 4z m-553 -68 c11 -7 12 -12 3 -21 -8 -8 -14
-6 -22 10 -12 22 -5 27 19 11z" id="node2" class="node"></path>
<path d="M1825 1631 c-3 -7 -15 -9 -26 -6 -11 4 -19 2 -19 -5 0 -7 -7 -9 -15
-6 -9 3 -18 -1 -21 -9 -4 -8 -12 -15 -19 -15 -14 0 -29 -45 -20 -60 3 -4 -1
-11 -7 -14 -10 -3 -9 -8 2 -18 9 -7 14 -22 12 -32 -3 -14 0 -17 12 -13 10 4
16 1 16 -8 0 -8 7 -15 16 -15 9 0 22 -8 29 -17 11 -14 16 -15 28 -5 11 9 17
10 22 2 5 -8 11 -8 20 0 7 6 20 8 29 4 9 -3 16 -1 16 5 0 6 7 8 15 5 9 -4 15
0 15 10 0 10 8 16 21 16 15 0 19 4 15 16 -4 9 -2 22 2 28 12 14 11 46 0 46 -6
0 -8 6 -6 12 5 14 -15 38 -30 38 -6 0 -12 7 -16 15 -3 8 -12 12 -21 9 -8 -4
-15 -1 -15 6 0 7 -7 10 -17 6 -9 -4 -20 -2 -23 5 -6 8 -9 8 -15 0z m98 -71
c22 -25 27 -38 22 -59 -4 -14 -13 -29 -20 -34 -8 -4 -20 -13 -27 -20 -7 -6
-22 -13 -33 -14 -11 -1 -32 -4 -47 -7 -21 -4 -28 -2 -28 9 0 8 -6 15 -13 15
-7 0 -22 12 -33 28 -22 31 -21 92 2 92 8 0 14 4 14 9 0 13 26 18 84 16 42 -2
54 -7 79 -35z" id="node3" class="node"></path>
<path d="M1787 1560 c-54 -43 -19 -110 58 -110 28 0 75 40 75 63 0 27 -35 58
-70 63 -27 4 -42 1 -63 -16z m87 -16 c25 -10 20 -53 -8 -65 -50 -23 -106 20
-76 56 13 15 56 20 84 9z" id="node4" class="node"></path>
<path d="M1827 1515 c-5 -10 0 -15 14 -15 12 0 19 5 17 12 -6 18 -25 20 -31 3z" id="node5" class="node"></path>
<path d="M1467 1556 c-4 -9 -14 -12 -25 -9 -14 3 -22 -1 -27 -16 -4 -12 -12
-18 -21 -14 -12 4 -14 0 -8 -21 5 -20 2 -26 -10 -26 -19 0 -21 -11 -4 -28 8
-8 8 -15 -2 -27 -11 -14 -10 -17 9 -22 15 -4 20 -11 16 -23 -4 -13 1 -20 15
-25 13 -4 20 -15 20 -31 0 -23 3 -25 29 -19 21 4 30 2 35 -11 4 -10 12 -14 22
-10 9 4 23 1 30 -5 11 -9 18 -9 28 0 11 9 16 9 22 0 5 -9 11 -7 21 7 11 16 17
17 33 6 18 -11 20 -10 20 13 0 19 5 25 21 25 16 0 19 4 14 20 -4 12 -2 20 6
20 9 0 9 3 0 14 -8 10 -9 16 -1 21 15 9 12 25 -5 25 -8 0 -12 6 -9 14 3 7 -2
16 -10 19 -9 4 -12 14 -9 26 4 16 1 21 -16 21 -12 0 -21 6 -21 16 0 11 -6 14
-22 9 -17 -6 -20 -4 -14 10 5 15 2 17 -23 12 -21 -5 -31 -2 -35 10 -5 12 -9
13 -22 3 -11 -10 -18 -10 -26 -2 -16 16 -25 15 -31 -2z m48 -26 c7 11 25 4 25
-11 0 -5 -10 -9 -23 -9 -22 0 -65 -24 -79 -44 -13 -19 -9 -71 8 -94 39 -56
146 -71 189 -27 14 13 25 35 25 49 0 31 -53 94 -86 102 -26 7 -33 24 -9 24 8
0 15 -4 15 -10 0 -5 9 -10 20 -10 11 0 20 -4 20 -10 0 -5 9 -10 20 -10 13 0
18 -5 14 -15 -4 -8 -2 -15 4 -15 10 0 22 -28 26 -62 2 -10 -1 -18 -5 -18 -5 0
-6 -7 -3 -15 4 -8 1 -15 -5 -15 -6 0 -11 -9 -11 -21 0 -15 -4 -19 -19 -14 -11
3 -22 1 -25 -4 -4 -6 -13 -8 -20 -5 -8 3 -17 0 -21 -6 -5 -8 -10 -8 -21 0 -7
7 -19 10 -26 8 -7 -3 -18 1 -25 8 -7 7 -22 10 -33 7 -16 -4 -20 0 -20 17 0 14
-8 24 -21 27 -12 4 -18 11 -15 20 3 7 -1 16 -9 20 -10 3 -12 10 -7 17 5 6 9
25 10 41 1 17 7 32 12 33 6 2 10 12 10 23 0 17 3 18 20 9 16 -9 22 -8 26 5 5
11 10 13 19 5 9 -8 15 -8 20 0z m68 -61 c74 -38 73 -111 -1 -134 -75 -23 -167
79 -116 129 18 19 85 21 117 5z" id="node6" class="node"></path>
<path d="M1490 1433 c8 -3 18 -11 23 -17 5 -8 9 -8 15 1 4 7 13 9 21 4 9 -6
10 -11 2 -15 -17 -11 -13 -22 8 -22 12 0 17 5 13 16 -8 25 -34 40 -66 39 -17
0 -24 -3 -16 -6z" id="node7" class="node"></path>
<path d="M1856 1374 c-5 -13 -9 -14 -20 -4 -12 9 -18 6 -32 -15 -10 -15 -23
-24 -30 -21 -49 20 -47 21 -30 -18 14 -34 14 -36 -5 -36 -24 0 -25 -16 -1 -29
16 -10 16 -12 0 -25 -25 -18 -23 -23 13 -30 20 -4 29 -11 26 -18 -20 -51 -21
-49 8 -38 35 13 35 13 35 -12 0 -21 0 -21 21 -2 20 18 21 18 31 1 9 -18 11
-18 30 0 19 17 20 17 30 0 9 -17 11 -17 28 -2 16 15 18 15 24 -1 6 -15 8 -15
27 2 17 16 22 16 29 4 8 -13 12 -11 25 8 13 17 20 20 35 12 30 -16 40 -12 40
16 0 17 6 28 20 31 24 6 25 16 4 34 -14 11 -13 14 7 30 l22 16 -35 12 c-31 10
-34 14 -30 42 4 29 3 30 -17 20 -18 -10 -21 -9 -21 11 0 21 -1 21 -17 6 -15
-16 -17 -16 -30 0 -12 16 -14 16 -28 -2 -13 -17 -15 -18 -15 -3 0 20 -26 23
-33 5 -3 -9 -10 -7 -21 7 l-16 20 -16 -20 c-14 -19 -16 -19 -25 -2 -12 21 -25
22 -33 1z m24 -29 c0 -21 26 -19 35 3 6 16 7 16 20 -2 12 -16 17 -17 30 -6 14
12 18 11 25 0 7 -12 12 -11 29 4 19 17 21 17 21 3 0 -20 11 -22 28 -5 9 9 12
8 12 -6 0 -12 5 -16 15 -12 10 4 15 -1 15 -14 0 -13 9 -22 25 -26 24 -6 25 -8
10 -24 -14 -16 -14 -18 1 -31 14 -12 14 -14 -6 -21 -16 -6 -20 -13 -15 -28 7
-23 2 -25 -26 -9 -17 8 -23 7 -35 -8 -12 -16 -15 -16 -24 -3 -9 13 -12 13 -24
-2 -16 -22 -26 -23 -26 -3 0 19 -9 19 -32 -2 -17 -15 -18 -15 -18 0 0 20 -21
22 -38 5 -10 -10 -15 -10 -22 1 -7 12 -12 12 -23 3 -12 -10 -16 -10 -20 2 -4
9 -14 12 -27 9 -15 -4 -19 -2 -14 10 4 12 -2 18 -21 23 -20 5 -23 9 -13 15 10
7 11 12 0 29 -8 14 -9 20 -1 20 7 0 9 10 5 26 -6 22 -4 25 12 19 13 -4 22 0
26 11 3 9 13 14 20 11 8 -3 20 1 26 9 16 18 30 18 30 -1z" id="node8" class="node"></path>
<path d="M1838 1313 c-14 -2 -29 -11 -32 -20 -10 -24 13 -92 34 -103 10 -5 65
-10 122 -10 122 0 142 9 142 64 0 60 -19 70 -137 72 -56 1 -114 0 -129 -3z
m234 -30 c24 -21 23 -60 -1 -73 -25 -13 -196 -13 -221 0 -23 12 -35 58 -19 76
18 22 216 20 241 -3z" id="node9" class="node"></path>
<path d="M1906 1263 c-17 -17 -2 -25 39 -21 25 3 48 2 51 -3 7 -12 24 -11 24
2 0 5 -6 7 -12 4 -7 -4 -5 0 4 8 16 13 12 14 -41 15 -32 0 -62 -2 -65 -5z" id="node10" class="node"></path>
<path d="M985 1277 c-4 -9 -13 -13 -21 -10 -9 3 -14 -1 -14 -11 0 -11 -7 -16
-17 -14 -12 2 -17 -3 -15 -14 2 -10 -1 -18 -6 -18 -5 0 -9 -13 -9 -30 0 -16 5
-30 10 -30 5 0 6 -7 3 -16 -4 -11 1 -18 14 -21 11 -3 20 -12 20 -19 0 -8 9
-14 19 -14 10 0 22 -7 25 -16 4 -11 10 -13 19 -6 6 5 29 9 50 8 27 -1 46 5 61
19 13 12 28 19 34 17 7 -2 12 7 12 20 0 13 5 29 12 36 7 7 8 12 3 12 -6 0 -11
11 -11 25 -2 26 -25 55 -44 55 -6 0 -8 5 -4 12 5 8 0 9 -14 6 -12 -4 -22 -2
-22 4 0 6 -9 8 -20 5 -10 -3 -21 0 -23 7 -3 8 -8 8 -19 -1 -11 -9 -17 -10 -26
-1 -8 8 -13 7 -17 -5z m137 -54 c21 -20 28 -35 26 -60 -1 -18 -5 -33 -8 -33
-3 0 -16 -9 -28 -20 -12 -11 -25 -20 -29 -19 -4 1 -10 1 -13 0 -25 -10 -70 -6
-74 5 -3 8 -10 14 -16 14 -23 0 -43 33 -44 73 -1 42 -1 42 47 58 63 21 104 15
139 -18z" id="node11" class="node"></path>
<path d="M985 1205 c-31 -31 -31 -46 0 -75 48 -45 135 -21 135 37 0 60 -88 85
-135 38z m96 -5 c21 -12 25 -40 7 -58 -24 -24 -108 -8 -108 20 0 38 59 60 101
38z" id="node12" class="node"></path>
<path d="M1030 1175 c0 -8 5 -15 10 -15 6 0 10 7 10 15 0 8 -4 15 -10 15 -5 0
-10 -7 -10 -15z" id="node13" class="node"></path>
<path d="M2137 1109 c-9 -6 -21 -8 -26 -4 -5 3 -12 1 -16 -4 -3 -6 -12 -8 -20
-4 -9 3 -15 -1 -15 -10 0 -8 -9 -17 -21 -20 -12 -3 -18 -10 -14 -16 3 -6 1
-11 -6 -11 -6 0 -9 -8 -6 -20 3 -11 0 -23 -5 -26 -7 -4 -4 -10 5 -16 9 -5 14
-15 11 -23 -4 -10 0 -15 10 -15 9 0 19 -7 22 -15 4 -8 12 -15 20 -15 7 0 17
-8 23 -17 8 -15 11 -15 26 -3 13 11 18 11 25 1 5 -10 9 -10 15 -2 3 7 15 9 26
6 10 -4 19 -2 19 4 0 6 7 8 15 5 9 -4 15 0 15 10 0 10 8 16 21 16 16 0 19 4
14 20 -3 11 -2 20 4 20 6 0 7 15 4 37 -7 42 -55 95 -78 87 -8 -4 -15 -1 -15 6
0 7 -6 10 -14 7 -8 -3 -16 -2 -18 3 -2 5 -11 4 -21 -1z m31 -35 c34 -3 41 -5
62 -24 38 -33 24 -120 -19 -120 -6 0 -11 -5 -11 -11 0 -5 -5 -7 -10 -4 -6 4
-17 1 -25 -5 -11 -9 -15 -9 -15 -1 0 8 -5 9 -19 2 -14 -8 -20 -7 -25 4 -3 8
-12 15 -21 15 -8 0 -15 5 -15 10 0 6 -6 10 -13 10 -9 0 -13 16 -13 50 0 33 4
50 12 50 7 0 14 5 16 11 2 6 16 12 31 12 15 0 30 4 33 9 4 6 9 6 13 2 3 -5 12
-9 19 -10z" id="node14" class="node"></path>
<path d="M2110 1047 c-13 -7 -29 -25 -35 -41 -8 -25 -6 -31 18 -52 37 -32 81
-31 113 1 15 15 23 32 20 41 -3 9 -6 20 -6 25 0 10 -53 39 -72 39 -7 0 -24 -6
-38 -13z m90 -38 c24 -44 -56 -81 -94 -43 -33 33 -11 64 46 64 28 0 40 -5 48
-21z" id="node15" class="node"></path>
<path d="M2132 995 c-11 -13 -8 -15 19 -15 27 0 30 2 19 15 -15 18 -21 18 -38
0z" id="node16" class="node"></path>
<path d="M1655 1091 c-5 -17 -10 -19 -26 -11 -16 9 -19 7 -19 -9 0 -14 -8 -21
-27 -23 -23 -2 -27 -7 -25 -25 2 -16 -2 -23 -14 -23 -16 0 -16 -1 0 -19 17
-18 17 -20 0 -29 -16 -9 -15 -11 5 -22 17 -9 20 -15 12 -23 -18 -18 -13 -27
13 -27 16 0 27 -7 31 -19 4 -13 12 -18 22 -14 10 4 22 -3 33 -17 15 -20 19
-21 38 -9 17 11 24 11 34 1 9 -9 16 -8 30 5 14 13 20 13 33 3 12 -10 16 -9 21
4 4 10 13 14 24 11 12 -4 19 1 23 15 3 13 13 21 24 20 31 -4 34 -1 23 20 -8
15 -6 21 11 30 20 11 20 12 2 25 -14 11 -15 14 -3 15 12 1 12 3 -2 14 -13 10
-15 15 -5 25 9 9 7 13 -11 17 -12 4 -22 10 -22 15 0 5 -7 9 -15 9 -9 0 -18 7
-21 15 -4 8 -17 15 -29 15 -13 0 -25 5 -27 11 -3 9 -10 9 -26 0 -18 -10 -22
-9 -22 4 0 15 -2 15 -22 1 -20 -14 -24 -14 -39 0 -16 14 -18 14 -24 -5z m105
-23 c17 10 20 10 20 -4 0 -10 6 -13 19 -9 12 3 21 0 25 -10 3 -8 13 -15 21
-15 9 0 13 -4 10 -10 -3 -5 1 -10 9 -10 9 0 16 -7 16 -15 0 -8 6 -15 13 -15 8
0 7 -4 -3 -10 -12 -8 -13 -11 -1 -19 9 -6 10 -10 2 -16 -7 -4 -9 -16 -5 -27 5
-17 3 -19 -15 -13 -15 5 -21 2 -21 -9 0 -9 -9 -16 -20 -16 -11 0 -20 -7 -20
-15 0 -12 -4 -13 -19 -6 -14 8 -22 7 -31 -4 -9 -11 -16 -12 -26 -4 -9 7 -18 7
-33 0 -27 -15 -28 -14 -34 10 -4 16 -11 20 -26 16 -13 -3 -21 1 -24 14 -3 11
-12 19 -21 19 -10 0 -13 6 -10 15 4 8 1 15 -4 15 -6 0 -9 12 -7 28 2 15 4 38
4 51 1 17 5 22 17 17 10 -4 18 0 21 13 3 12 11 17 20 14 8 -3 19 0 23 7 4 7
13 9 19 6 15 -10 14 -26 -3 -26 -7 0 -25 -11 -40 -25 -36 -33 -35 -78 3 -116
26 -25 37 -29 86 -29 65 0 105 17 125 54 29 56 -34 126 -113 126 -34 0 -38 2
-27 15 11 13 15 13 21 3 7 -11 12 -11 29 0z m49 -66 c32 -24 37 -46 17 -77
-48 -73 -204 -40 -194 42 7 59 116 81 177 35z" id="node17" class="node"></path>
<path d="M1713 983 c-15 -5 -18 -43 -4 -43 6 0 16 9 25 21 13 20 14 20 20 2 4
-16 5 -15 3 2 -2 20 -21 28 -44 18z" id="node18" class="node"></path>
<path d="M2061 858 c-12 -19 -13 -19 -25 -3 -12 17 -14 17 -28 -4 -14 -19 -16
-20 -29 -5 -12 14 -14 14 -27 -3 -10 -13 -16 -14 -19 -5 -6 16 -30 15 -36 -2
-4 -9 -14 -12 -26 -9 -12 3 -21 1 -21 -3 -1 -25 -17 -33 -49 -24 -32 9 -32 9
-26 -20 5 -23 2 -31 -16 -41 l-23 -12 22 -17 c19 -16 20 -20 7 -30 -22 -18
-18 -28 13 -32 21 -2 28 -9 30 -31 3 -23 7 -27 24 -21 13 4 24 1 29 -7 6 -11
11 -11 20 -2 9 9 16 10 26 1 10 -8 17 -7 27 7 12 17 13 17 20 -1 7 -18 8 -17
25 5 l19 24 6 -21 c8 -25 26 -30 26 -8 0 21 18 30 34 17 10 -8 17 -7 26 4 9
11 16 12 25 5 10 -8 15 -3 23 18 9 26 14 28 43 24 l33 -5 -18 28 c-18 27 -18
29 -1 41 17 13 17 15 -6 33 -22 18 -22 20 -6 26 29 12 19 25 -18 25 -33 0 -34
1 -25 26 14 36 13 38 -15 20 -30 -20 -35 -20 -35 -2 0 24 -15 26 -29 4z m40
-33 c13 4 19 2 19 -9 0 -11 9 -16 26 -16 23 0 25 -2 13 -16 -11 -13 -10 -18 5
-26 14 -8 16 -12 5 -18 -10 -7 -10 -14 -2 -33 10 -22 9 -24 -7 -20 -12 3 -20
-2 -25 -16 -3 -11 -12 -18 -19 -15 -7 3 -19 -2 -26 -11 -12 -14 -15 -14 -30 0
-15 14 -18 13 -29 -12 l-13 -28 -12 23 c-11 21 -14 22 -26 8 -9 -12 -16 -13
-25 -6 -9 7 -16 6 -25 -5 -10 -12 -15 -13 -21 -4 -6 10 -11 10 -22 0 -10 -8
-17 -8 -21 -2 -4 6 -13 8 -21 4 -10 -3 -15 1 -15 15 0 13 -9 22 -27 27 -20 5
-24 8 -13 15 12 7 11 12 -3 28 -16 17 -16 20 -2 26 11 4 14 13 10 29 -6 22 -4
23 24 19 22 -3 33 0 37 12 5 13 9 14 21 4 12 -10 17 -9 25 6 8 14 12 15 25 4
12 -10 17 -9 27 5 10 12 15 14 24 5 21 -21 13 -26 -54 -33 -100 -10 -133 -60
-80 -121 l23 -28 74 12 c191 29 207 39 172 110 -17 34 -22 37 -65 40 -49 3
-57 9 -36 30 9 9 14 7 23 -5 11 -15 14 -14 26 8 11 21 14 21 17 6 3 -12 9 -16
23 -12z m3 -88 c6 -15 7 -29 4 -32 -3 -3 -45 -12 -94 -20 -49 -9 -99 -18 -111
-20 -24 -6 -63 24 -63 48 1 31 23 42 117 58 109 18 130 14 147 -34z" id="node19" class="node"></path>
<path d="M1943 740 c-13 -5 -23 -12 -23 -16 0 -3 7 -4 15 -1 8 4 17 2 20 -3 4
-6 14 -10 23 -10 14 0 15 2 2 10 -13 8 -13 9 0 14 8 2 22 7 30 9 8 3 2 5 -15
6 -16 0 -40 -4 -52 -9z" id="node20" class="node"></path>
<path d="M1453 822 c-6 -23 -18 -28 -28 -12 -11 18 -25 10 -25 -15 0 -22 -3
-25 -26 -19 -25 6 -26 5 -20 -20 5 -19 3 -26 -9 -26 -19 0 -19 -14 0 -30 13
-11 13 -14 -2 -26 -17 -13 -17 -15 0 -25 13 -8 17 -18 13 -35 -6 -21 -3 -24
19 -24 18 0 25 -5 25 -20 0 -17 5 -19 25 -14 17 4 25 2 25 -7 0 -8 4 -20 9
-28 7 -11 12 -11 31 2 17 12 27 13 40 4 14 -8 22 -8 32 1 8 6 24 9 36 5 16 -4
22 -1 22 10 0 10 6 13 20 10 16 -4 20 0 20 17 0 19 4 22 26 17 23 -4 25 -2 19
20 -4 18 -1 29 12 38 14 11 15 16 6 26 -6 6 -9 18 -6 25 3 8 0 14 -7 14 -7 0
-9 8 -5 20 5 16 2 20 -14 20 -14 0 -19 5 -15 15 4 10 0 15 -15 15 -13 0 -21 6
-21 16 0 12 -7 15 -25 12 -17 -4 -25 -1 -25 8 0 17 -5 17 -31 4 -15 -8 -19 -7
-19 5 0 19 -14 19 -30 0 -11 -14 -15 -14 -32 2 -18 16 -19 16 -25 -5z m77 -20
c0 -4 19 -8 41 -8 23 -1 44 -6 48 -11 3 -5 14 -12 24 -16 10 -4 16 -11 12 -16
-3 -6 2 -14 11 -19 9 -5 17 -21 17 -36 0 -14 4 -26 9 -26 6 0 5 -7 -2 -15 -7
-8 -10 -22 -6 -30 4 -10 -1 -15 -14 -15 -14 0 -20 -7 -20 -21 0 -16 -4 -19
-20 -14 -14 5 -20 2 -20 -10 0 -11 -6 -14 -24 -9 -13 3 -27 1 -31 -6 -5 -8
-10 -8 -20 0 -10 8 -19 8 -36 0 -21 -12 -38 -1 -39 24 0 4 -9 6 -21 3 -15 -4
-22 1 -29 19 -5 13 -15 21 -23 19 -9 -4 -12 5 -11 32 1 21 -3 44 -9 51 -6 8
-6 12 2 12 7 0 11 10 9 23 -2 16 2 22 17 22 11 0 20 7 20 15 0 10 8 14 23 12
12 -2 22 2 22 8 0 6 10 8 25 4 15 -4 25 -2 25 5 0 6 5 11 10 11 6 0 10 -3 10
-8z" id="node21" class="node"></path>
<path d="M1464 760 c-72 -36 -83 -93 -29 -147 34 -34 37 -35 100 -31 55 3 70
8 92 31 51 50 30 122 -44 153 -44 19 -71 18 -119 -6z m149 -38 c35 -33 34 -56
-2 -93 -25 -25 -37 -29 -81 -29 -44 0 -56 4 -81 29 -36 36 -36 51 -4 90 41 48
118 50 168 3z" id="node22" class="node"></path>
<path d="M1524 698 c-5 -8 -2 -9 9 -5 10 3 17 2 17 -3 0 -6 -12 -10 -27 -11
l-28 0 24 -12 c19 -9 26 -8 37 7 7 11 11 23 8 27 -8 13 -32 11 -40 -3z" id="node23" class="node"></path>
<path d="M1324 1218 c-40 -10 -57 -31 -56 -69 1 -58 61 -99 140 -99 63 0 95
24 95 68 0 68 -96 122 -179 100z m75 -18 c71 -20 109 -94 62 -120 -31 -16 -93
-12 -128 10 -59 35 -65 78 -14 105 32 17 37 18 80 5z" id="node24" class="node"></path>
<path d="M1345 1150 c3 -5 13 -10 21 -10 8 0 14 -4 14 -8 0 -4 9 -8 20 -8 27
0 25 10 -5 24 -32 15 -58 16 -50 2z" id="node25" class="node"></path>
<path d="M766 996 c-43 -40 -46 -72 -10 -115 82 -98 266 -26 219 86 -17 41
-61 63 -124 63 -43 0 -55 -5 -85 -34z m162 -6 c26 -16 32 -26 32 -53 0 -63
-72 -101 -144 -77 -39 12 -66 43 -66 73 0 10 13 32 29 48 36 36 98 40 149 9z" id="node26" class="node"></path>
<path d="M831 941 c-10 -18 -6 -31 10 -31 5 0 6 7 3 15 -5 11 -2 13 10 9 11
-4 16 -1 16 10 0 22 -27 20 -39 -3z" id="node27" class="node"></path>
<path d="M1139 873 c-68 -71 -99 -111 -99 -130 0 -25 47 -63 79 -63 26 0 43
14 111 92 44 51 80 98 80 104 0 21 -51 54 -84 54 -25 0 -43 -11 -87 -57z m136
17 c15 -17 13 -22 -43 -86 -88 -102 -98 -109 -130 -98 -19 6 -28 17 -30 36 -3
21 11 41 70 102 77 80 96 87 133 46z" id="node28" class="node"></path>
<path d="M1170 840 c0 -6 -11 -20 -25 -32 -14 -12 -25 -29 -24 -37 0 -11 2
-12 6 -3 2 6 9 10 14 6 5 -3 9 2 9 10 0 9 7 16 16 16 8 0 12 5 9 10 -4 6 -1
17 5 25 9 11 9 15 1 15 -6 0 -11 -5 -11 -10z" id="node29" class="node"></path>



</g>
<g transform="translate(0.000000,176.000000) scale(0.100000,-0.100000)" fill="#FFFFFF" stroke="none">


<path d="M1543 1709 c-120 -20 -235 -86 -267 -152 -21 -46 -20 -112 4 -165
l20 -43 -113 6 c-354 22 -601 -137 -584 -376 6 -87 42 -153 128 -233 114 -105
342 -210 561 -258 89 -19 132 -22 313 -22 178 0 226 3 311 22 138 30 241 64
363 123 l104 49 -7 113 c-25 412 -152 701 -373 843 -131 85 -302 119 -460 93z
m262 -20 c73 -16 202 -82 262 -134 29 -25 77 -83 107 -128 120 -181 179 -387
188 -662 l3 -90 -95 -47 c-103 -51 -253 -98 -395 -125 -139 -26 -438 -24 -571
5 -278 60 -533 190 -630 321 -111 150 -67 332 106 438 95 58 275 89 426 74 70
-7 92 -7 102 4 12 11 12 17 -1 36 -9 13 -20 43 -27 67 -46 176 232 303 525
241z" id="node35" class="node"></path>
<path d="M1553 1679 c-127 -21 -233 -87 -254 -157 -11 -40 1 -115 21 -127 17
-11 11 -64 -7 -73 -11 -6 -46 -6 -88 0 -186 25 -402 -27 -503 -121 -49 -46
-84 -130 -84 -203 0 -65 8 -83 32 -68 12 7 12 12 2 22 -16 16 -15 28 3 28 11
0 14 7 9 25 -5 22 -3 25 20 25 20 0 26 5 26 21 0 17 4 20 24 15 19 -5 25 -1
30 16 5 22 6 22 20 3 14 -19 15 -19 33 -2 24 21 33 22 33 2 0 -13 4 -14 20 -5
16 9 22 8 26 -4 4 -11 14 -14 30 -10 17 4 24 2 24 -9 0 -8 9 -17 21 -20 12 -3
18 -10 15 -15 -3 -5 3 -12 14 -15 13 -3 18 -11 14 -20 -3 -8 0 -18 5 -22 6 -3
9 -11 5 -16 -3 -5 0 -16 6 -24 10 -12 9 -16 -4 -21 -24 -9 -19 -31 9 -36 21
-4 25 -1 25 19 0 20 4 23 20 18 16 -5 20 -2 20 19 0 20 5 26 21 26 16 0 20 5
16 20 -6 22 12 27 30 9 7 -7 12 -3 17 15 7 28 26 36 26 12 0 -24 16 -27 40 -8
17 13 21 24 16 40 -4 12 -14 22 -22 22 -8 0 -19 11 -24 25 -5 14 -16 25 -25
25 -17 0 -20 16 -4 25 7 5 4 13 -7 26 -16 17 -16 19 0 25 11 4 15 13 10 27 -5
16 -3 19 10 14 12 -5 16 -1 16 14 0 17 4 20 24 15 17 -4 26 -1 30 10 5 13 9
14 22 4 11 -10 18 -10 26 -2 17 17 28 15 28 -4 0 -16 2 -16 48 3 6 3 12 -2 12
-11 0 -10 8 -15 23 -13 13 1 21 -3 19 -10 -1 -8 9 -13 24 -13 18 0 25 -4 21
-14 -3 -8 2 -16 15 -19 11 -3 17 -10 13 -16 -3 -6 1 -14 10 -17 11 -5 13 -10
5 -19 -5 -6 -7 -15 -3 -18 3 -4 8 -18 9 -32 2 -19 -2 -25 -17 -25 -13 0 -20
-6 -18 -17 3 -31 0 -34 -22 -23 -17 9 -23 8 -33 -6 -8 -10 -18 -14 -26 -9 -7
4 -16 2 -21 -6 -8 -12 -11 -11 -20 4 -8 13 -14 15 -28 7 -14 -7 -22 -6 -30 4
-18 21 -51 8 -51 -20 0 -19 5 -24 25 -24 27 0 32 -9 14 -27 -7 -7 -1 -14 23
-22 32 -12 32 -13 14 -27 -11 -7 -23 -14 -28 -14 -4 0 -3 -12 2 -26 14 -35 12
-44 -5 -38 -11 5 -15 -1 -15 -20 0 -24 -2 -26 -21 -15 -21 11 -22 9 -16 -19 7
-36 1 -45 -24 -31 -16 8 -19 6 -19 -15 0 -18 -4 -24 -15 -20 -10 4 -15 0 -15
-15 0 -12 -6 -21 -15 -21 -8 0 -15 -7 -15 -16 0 -11 -6 -15 -20 -11 -13 3 -21
-1 -26 -16 -7 -21 -7 -21 -26 2 -16 21 -22 22 -44 12 -36 -16 -47 -14 -41 9 4
16 0 20 -20 20 -22 0 -24 3 -18 30 5 22 3 32 -9 36 -23 9 -20 23 9 36 22 10
25 16 19 41 -5 26 -4 28 15 22 12 -3 21 -2 21 3 0 12 -47 25 -60 17 -6 -4 -10
-15 -10 -27 0 -16 -3 -18 -14 -9 -11 10 -16 8 -21 -9 -6 -20 -8 -20 -24 -6
-15 14 -19 14 -34 -1 -12 -12 -19 -14 -30 -5 -10 9 -18 8 -33 -3 -26 -20 -31
-19 -38 10 -5 21 -11 24 -30 19 -18 -4 -25 -1 -29 15 -3 12 -13 21 -22 21 -16
0 -16 -2 -3 -22 66 -102 364 -250 608 -303 118 -25 372 -31 509 -11 136 20
306 71 430 127 l91 42 0 68 c0 148 -40 365 -92 499 -120 309 -395 479 -695
429z m310 -53 c10 4 17 1 17 -6 0 -7 7 -10 15 -6 9 3 18 -1 21 -9 4 -8 10 -15
16 -15 15 0 35 -24 30 -38 -2 -6 0 -12 6 -12 11 0 12 -32 0 -46 -4 -6 -6 -19
-2 -28 4 -12 0 -16 -15 -16 -13 0 -21 -6 -21 -16 0 -10 -6 -14 -15 -10 -8 3
-15 1 -15 -5 0 -6 -7 -8 -16 -5 -9 4 -22 2 -29 -4 -9 -8 -15 -8 -20 0 -5 8
-11 7 -22 -2 -12 -10 -17 -9 -28 5 -7 9 -20 17 -29 17 -9 0 -16 7 -16 15 0 9
-6 12 -16 8 -12 -4 -15 -1 -12 13 2 10 -3 25 -12 32 -11 10 -12 15 -2 18 6 3
10 10 7 14 -9 15 6 60 20 60 7 0 15 7 19 15 3 8 12 12 21 9 8 -3 15 -1 15 6 0
7 8 9 19 5 11 -3 23 -1 26 6 6 8 9 8 15 0 3 -7 14 -9 23 -5z m-365 -68 c8 -8
15 -8 26 2 13 10 17 9 22 -3 4 -12 14 -15 35 -10 25 5 28 3 23 -12 -6 -14 -3
-16 14 -10 16 5 22 2 22 -9 0 -10 9 -16 21 -16 17 0 20 -5 16 -21 -3 -12 0
-22 9 -26 8 -3 13 -12 10 -19 -3 -8 1 -14 9 -14 17 0 20 -16 5 -25 -8 -5 -7
-11 1 -21 9 -11 9 -14 0 -14 -8 0 -10 -8 -6 -20 5 -16 2 -20 -14 -20 -16 0
-21 -6 -21 -25 0 -23 -2 -24 -20 -13 -16 11 -22 10 -33 -6 -10 -14 -16 -16
-21 -7 -6 9 -11 9 -22 0 -10 -9 -17 -9 -28 0 -7 6 -21 9 -30 5 -10 -4 -18 0
-22 10 -5 13 -14 15 -35 11 -26 -6 -29 -4 -29 19 0 16 -7 27 -20 31 -14 5 -19
12 -15 25 4 12 -1 19 -16 23 -19 5 -20 8 -9 22 10 12 10 19 2 27 -17 17 -15
28 4 28 12 0 15 6 10 26 -6 21 -4 25 8 21 9 -4 17 2 21 14 5 15 13 19 27 16
11 -3 21 0 25 9 6 17 15 18 31 2z m391 -185 c9 -17 11 -17 25 2 l16 20 16 -20
c11 -14 18 -16 21 -7 7 18 33 15 33 -5 0 -15 2 -14 15 3 14 18 16 18 28 2 13
-16 15 -16 30 0 16 15 17 15 17 -6 0 -20 3 -21 21 -11 20 10 21 9 17 -20 -4
-28 -1 -32 30 -42 l35 -12 -22 -16 c-20 -16 -21 -19 -7 -30 21 -18 20 -28 -4
-34 -14 -3 -20 -14 -20 -31 0 -28 -10 -32 -40 -16 -15 8 -22 5 -35 -12 -13
-19 -17 -21 -25 -8 -7 12 -12 12 -29 -4 -19 -17 -21 -17 -27 -2 -6 16 -8 16
-24 1 -17 -15 -19 -15 -28 2 -10 17 -11 17 -30 0 -19 -18 -21 -18 -30 0 -10
17 -11 17 -31 -1 -21 -19 -21 -19 -21 2 0 25 0 25 -35 12 -29 -11 -28 -13 -8
38 3 7 -6 14 -26 18 -36 7 -38 12 -13 30 16 13 16 15 0 25 -24 13 -23 29 1 29
19 0 19 2 5 36 -17 39 -19 38 30 18 7 -3 20 6 30 21 14 21 20 24 32 15 11 -10
15 -9 20 4 8 21 21 20 33 -1z m-861 -90 c11 9 16 9 19 1 2 -7 13 -10 23 -7 11
3 20 1 20 -5 0 -6 10 -8 22 -4 14 3 19 2 14 -6 -4 -7 -2 -12 4 -12 19 0 42
-29 44 -55 0 -14 5 -25 11 -25 5 0 4 -5 -3 -12 -7 -7 -12 -23 -12 -36 0 -13
-5 -22 -12 -20 -6 2 -21 -5 -34 -17 -15 -14 -34 -20 -61 -19 -21 1 -44 -3 -50
-8 -9 -7 -15 -5 -19 6 -3 9 -15 16 -25 16 -10 0 -19 6 -19 14 0 7 -9 16 -20
19 -13 3 -18 10 -14 21 3 9 2 16 -3 16 -5 0 -10 14 -10 30 0 17 4 30 9 30 5 0
8 8 6 18 -2 11 3 16 15 14 10 -2 17 3 17 14 0 10 5 14 14 11 8 -3 17 1 21 10
4 12 9 13 17 5 9 -9 15 -8 26 1z m1148 -176 c8 3 14 0 14 -7 0 -7 7 -10 15 -6
23 8 71 -45 78 -87 3 -22 2 -37 -4 -37 -6 0 -7 -9 -4 -20 5 -16 2 -20 -14 -20
-13 0 -21 -6 -21 -16 0 -10 -6 -14 -15 -10 -8 3 -15 1 -15 -5 0 -6 -9 -8 -19
-4 -11 3 -23 1 -26 -6 -6 -8 -10 -8 -15 2 -7 10 -12 10 -25 -1 -15 -12 -18
-12 -26 3 -6 9 -16 17 -23 17 -8 0 -16 7 -20 15 -3 8 -13 15 -22 15 -10 0 -14
5 -10 15 3 8 -2 18 -11 23 -9 6 -12 12 -5 16 5 3 8 15 5 26 -3 12 0 20 6 20 7
0 9 5 6 11 -4 6 2 13 14 16 12 3 21 12 21 20 0 9 6 13 15 10 8 -4 17 -2 20 4
4 5 11 7 16 4 5 -4 17 -2 26 4 10 5 19 6 21 1 2 -5 10 -6 18 -3z m-458 -11
c20 14 22 14 22 -1 0 -13 4 -14 22 -4 16 9 23 9 26 0 2 -6 14 -11 27 -11 12 0
25 -7 29 -15 3 -8 12 -15 21 -15 8 0 15 -4 15 -9 0 -5 10 -11 22 -15 18 -4 20
-8 11 -17 -10 -10 -8 -15 5 -25 14 -11 14 -13 2 -14 -12 -1 -11 -4 3 -15 18
-13 18 -14 -2 -25 -17 -9 -19 -15 -11 -30 11 -21 8 -24 -23 -20 -11 1 -21 -7
-24 -20 -4 -14 -11 -19 -23 -15 -11 3 -20 -1 -24 -11 -5 -13 -9 -14 -21 -4
-13 10 -19 10 -33 -3 -14 -13 -21 -14 -30 -5 -10 10 -17 10 -34 -1 -19 -12
-23 -11 -38 9 -11 14 -23 21 -33 17 -10 -4 -18 1 -22 14 -4 12 -15 19 -31 19
-26 0 -31 9 -13 27 8 8 5 14 -12 23 -20 11 -21 13 -5 22 17 9 17 11 0 29 -16
18 -16 19 0 19 12 0 16 7 14 23 -2 18 2 23 25 25 19 2 27 9 27 23 0 16 3 18
19 9 16 -8 21 -6 26 11 6 19 8 19 24 5 15 -14 19 -14 39 0z m372 -242 c0 -18
5 -18 35 2 28 18 29 16 15 -20 -9 -25 -8 -26 25 -26 37 0 47 -13 18 -25 -16
-6 -16 -8 6 -26 23 -18 23 -20 6 -33 -17 -12 -17 -14 1 -41 l18 -28 -33 5
c-29 4 -34 2 -43 -24 -8 -21 -13 -26 -23 -18 -9 7 -16 6 -25 -5 -9 -11 -16
-12 -26 -4 -16 13 -34 4 -34 -17 0 -22 -18 -17 -26 8 l-6 21 -19 -24 c-17 -22
-18 -23 -25 -5 -7 18 -8 18 -20 1 -10 -14 -17 -15 -27 -7 -10 9 -17 8 -26 -1
-9 -9 -14 -9 -20 2 -5 8 -16 11 -29 7 -17 -6 -21 -2 -24 21 -2 22 -9 29 -30
31 -31 4 -35 14 -13 32 13 10 12 14 -7 30 l-22 17 23 12 c18 10 21 18 16 41
-6 29 -6 29 26 20 32 -9 48 -1 49 24 0 4 9 6 21 3 12 -3 22 0 26 9 6 17 30 18
36 2 3 -9 9 -8 19 5 13 17 15 17 27 3 13 -15 15 -14 29 5 14 21 16 21 28 4 12
-16 13 -16 25 3 14 22 29 20 29 -4z m-580 -29 c16 19 30 19 30 0 0 -12 4 -13
19 -5 26 13 31 13 31 -4 0 -9 8 -12 25 -8 18 3 25 0 25 -12 0 -10 8 -16 21
-16 15 0 19 -5 15 -15 -4 -10 1 -15 15 -15 16 0 19 -4 14 -20 -4 -12 -2 -20 5
-20 7 0 10 -6 7 -14 -3 -7 0 -19 6 -25 9 -10 8 -15 -6 -26 -13 -9 -16 -20 -12
-38 6 -22 4 -24 -19 -20 -22 5 -26 2 -26 -17 0 -17 -4 -21 -20 -17 -14 3 -20
0 -20 -10 0 -11 -6 -14 -22 -10 -12 4 -28 1 -36 -5 -10 -9 -18 -9 -32 -1 -13
9 -23 8 -40 -4 -19 -13 -24 -13 -31 -2 -5 8 -9 20 -9 28 0 9 -8 11 -25 7 -20
-5 -25 -3 -25 14 0 15 -7 20 -25 20 -22 0 -25 3 -19 24 4 17 0 27 -13 35 -17
10 -17 12 0 25 15 12 15 15 2 26 -19 16 -19 30 0 30 12 0 14 7 9 26 -6 25 -5
26 20 20 23 -6 26 -3 26 19 0 25 14 33 25 15 10 -16 22 -11 28 12 6 21 7 21
25 5 17 -16 21 -16 32 -2z" id="node36" class="node"></path>
<path d="M1778 1593 c-10 -3 -18 -9 -18 -14 0 -5 -6 -9 -14 -9 -23 0 -24 -61
-2 -92 11 -16 26 -28 33 -28 7 0 13 -7 13 -15 0 -11 7 -13 28 -9 15 3 36 6 47
7 11 1 26 8 33 14 7 7 19 16 27 20 7 5 16 20 20 34 5 21 0 34 -22 59 -25 28
-37 33 -79 35 -27 1 -57 0 -66 -2z m125 -44 c23 -29 22 -45 -8 -74 -26 -27
-63 -32 -98 -14 -46 25 -50 67 -10 99 34 27 89 22 116 -11z" id="node37" class="node"></path>
<path d="M1790 1535 c-30 -36 26 -79 76 -56 28 12 33 55 8 65 -28 11 -71 6
-84 -9z m68 -23 c2 -7 -5 -12 -17 -12 -14 0 -19 5 -14 15 6 17 25 15 31 -3z" id="node38" class="node"></path>
<path d="M1476 1525 c-4 -13 -10 -14 -26 -5 -17 9 -20 8 -20 -9 0 -11 -4 -21
-10 -23 -5 -1 -11 -16 -12 -33 -1 -16 -5 -35 -10 -41 -5 -7 -3 -14 7 -17 8 -4
12 -13 9 -20 -3 -9 3 -16 15 -20 13 -3 21 -13 21 -27 0 -17 4 -21 20 -17 11 3
26 0 33 -7 7 -7 18 -11 25 -8 7 2 19 -1 26 -8 11 -8 16 -8 21 0 4 6 13 9 21 6
7 -3 16 -1 20 5 3 5 14 7 25 4 15 -5 19 -1 19 14 0 12 5 21 11 21 6 0 9 7 5
15 -3 8 -2 15 3 15 4 0 7 8 5 18 -4 34 -16 62 -26 62 -6 0 -8 7 -4 15 4 10 -1
15 -14 15 -11 0 -20 5 -20 10 0 6 -9 10 -20 10 -11 0 -20 5 -20 10 0 6 -7 10
-15 10 -24 0 -17 -17 9 -24 33 -8 86 -71 86 -102 0 -14 -11 -36 -25 -49 -43
-44 -150 -29 -189 27 -17 23 -21 75 -8 94 14 20 57 44 79 44 13 0 23 4 23 9 0
15 -18 22 -25 11 -5 -8 -11 -8 -20 0 -9 8 -14 6 -19 -5z" id="node39" class="node"></path>
<path d="M1466 1464 c-51 -50 41 -152 116 -129 74 23 75 96 1 134 -32 16 -99
14 -117 -5z m86 -36 c25 -21 28 -44 7 -44 -21 0 -25 11 -8 22 8 4 7 9 -2 15
-8 5 -17 3 -21 -4 -6 -9 -10 -9 -15 -1 -5 6 -15 14 -23 17 -8 3 -1 6 16 6 16
1 37 -5 46 -11z" id="node40" class="node"></path>
<path d="M1850 1346 c-6 -8 -18 -12 -26 -9 -7 3 -17 -2 -20 -11 -4 -11 -13
-15 -26 -11 -16 6 -18 3 -12 -19 4 -16 2 -26 -5 -26 -8 0 -7 -6 1 -20 11 -17
10 -22 0 -29 -10 -6 -7 -10 13 -15 19 -5 25 -11 21 -23 -5 -12 -1 -14 14 -10
13 3 23 0 27 -9 4 -12 8 -12 20 -2 11 9 16 9 23 -3 7 -11 12 -11 22 -1 17 17
38 15 38 -5 0 -15 1 -15 18 0 23 21 32 21 32 2 0 -20 10 -19 26 3 12 15 15 15
24 2 9 -13 12 -13 24 3 12 15 18 16 35 8 28 -16 33 -14 26 9 -5 15 -1 22 15
28 20 7 20 9 6 21 -15 13 -15 15 -1 31 15 16 14 18 -10 24 -16 4 -25 13 -25
26 0 13 -5 18 -15 14 -10 -4 -15 0 -15 12 0 14 -3 15 -12 6 -17 -17 -28 -15
-28 5 0 14 -2 14 -21 -3 -17 -15 -22 -16 -29 -4 -7 11 -11 12 -25 0 -13 -11
-18 -10 -30 6 -13 18 -14 18 -20 2 -9 -22 -35 -24 -35 -3 0 19 -14 19 -30 1z
m237 -49 c24 -23 22 -85 -2 -103 -23 -17 -216 -20 -245 -4 -21 11 -44 79 -34
103 8 21 39 25 161 23 82 -1 106 -5 120 -19z" id="node41" class="node"></path>
<path d="M1831 1286 c-16 -18 -4 -64 19 -76 25 -13 196 -13 221 0 24 13 25 52
1 73 -25 23 -223 25 -241 3z m181 -33 c-9 -8 -11 -12 -4 -8 6 3 12 1 12 -4 0
-13 -17 -14 -24 -2 -3 5 -26 6 -51 3 -26 -2 -45 0 -45 5 0 18 12 22 71 21 53
-1 57 -2 41 -15z" id="node42" class="node"></path>
<path d="M983 1241 c-48 -16 -48 -16 -47 -58 1 -40 21 -73 44 -73 6 0 13 -6
16 -14 4 -11 49 -15 74 -5 3 1 9 1 13 0 4 -1 17 8 29 19 12 11 25 20 28 20 3
0 7 15 8 33 2 25 -5 40 -26 60 -35 33 -76 39 -139 18z m117 -31 c66 -66 -46
-144 -115 -80 -31 29 -31 44 0 75 31 32 86 34 115 5z" id="node43" class="node"></path>
<path d="M997 1192 c-22 -24 -21 -39 2 -52 45 -24 101 -6 101 32 0 37 -75 51
-103 20z m53 -17 c0 -8 -4 -15 -10 -15 -5 0 -10 7 -10 15 0 8 5 15 10 15 6 0
10 -7 10 -15z" id="node44" class="node"></path>
<path d="M2136 1082 c-3 -5 -18 -9 -33 -9 -15 0 -29 -6 -31 -12 -2 -6 -9 -11
-16 -11 -8 0 -12 -17 -12 -50 0 -34 4 -50 13 -50 7 0 13 -4 13 -10 0 -5 7 -10
15 -10 9 0 18 -7 21 -15 5 -11 11 -12 25 -4 14 7 19 6 19 -2 0 -8 4 -8 15 1 8
6 19 9 25 5 5 -3 10 -1 10 4 0 6 5 11 11 11 43 0 57 87 19 120 -21 19 -28 21
-62 24 -7 1 -16 5 -19 10 -4 4 -9 4 -13 -2z m54 -37 c17 -9 30 -20 30 -24 0
-5 3 -16 6 -25 3 -9 -5 -26 -20 -41 -32 -32 -76 -33 -113 -1 -24 21 -26 27
-18 52 10 27 45 54 73 54 7 0 26 -7 42 -15z" id="node45" class="node"></path>
<path d="M2102 1018 c-16 -16 -15 -33 4 -52 38 -38 118 -1 94 43 -8 16 -20 21
-48 21 -21 0 -43 -5 -50 -12z m68 -23 c11 -13 8 -15 -19 -15 -27 0 -30 2 -19
15 17 18 23 18 38 0z" id="node46" class="node"></path>
<path d="M1710 1065 c-11 -13 -7 -15 27 -15 79 0 142 -70 113 -126 -20 -37
-60 -54 -125 -54 -49 0 -60 4 -86 29 -38 38 -39 83 -3 116 15 14 33 25 40 25
17 0 18 16 3 26 -6 3 -15 1 -19 -6 -4 -7 -15 -10 -23 -7 -9 3 -17 -2 -20 -14
-3 -13 -11 -17 -21 -13 -12 5 -16 0 -17 -17 0 -13 -2 -36 -4 -51 -2 -16 1 -28
7 -28 5 0 8 -7 4 -15 -3 -9 0 -15 10 -15 9 0 18 -8 21 -19 3 -13 11 -17 24
-14 15 4 22 0 26 -16 6 -24 7 -25 34 -10 15 7 24 7 33 0 10 -8 17 -7 26 4 9
11 17 12 31 4 15 -7 19 -6 19 6 0 8 9 15 20 15 11 0 20 7 20 16 0 11 6 14 21
9 18 -6 20 -4 15 13 -4 11 -2 23 5 27 8 6 7 10 -2 16 -12 8 -11 11 1 19 10 6
11 10 3 10 -7 0 -13 7 -13 15 0 8 -7 15 -16 15 -8 0 -12 5 -9 10 3 6 -1 10
-10 10 -8 0 -18 7 -21 15 -4 10 -13 13 -25 10 -13 -4 -19 -1 -19 9 0 14 -3 14
-20 4 -17 -11 -22 -11 -29 0 -6 10 -10 10 -21 -3z" id="node47" class="node"></path>
<path d="M1670 1013 c-63 -32 -49 -99 26 -123 65 -22 152 25 142 76 -9 50
-109 77 -168 47z m87 -48 c2 -17 1 -18 -3 -2 -6 18 -7 18 -20 -2 -19 -26 -34
-27 -34 -2 0 35 53 40 57 6z" id="node48" class="node"></path>
<path d="M2061 831 c-12 -22 -15 -23 -26 -8 -9 12 -14 14 -23 5 -21 -21 -13
-27 36 -30 43 -3 48 -6 65 -40 35 -71 19 -81 -172 -110 l-74 -12 -23 28 c-53
61 -20 111 80 121 67 7 75 12 54 33 -9 9 -14 7 -24 -5 -10 -14 -15 -15 -27 -5
-13 11 -17 10 -25 -4 -8 -15 -13 -16 -25 -6 -12 10 -16 9 -21 -4 -4 -12 -15
-15 -37 -12 -28 4 -30 3 -24 -19 4 -16 1 -25 -10 -29 -14 -6 -14 -9 2 -26 14
-16 15 -21 3 -28 -11 -7 -7 -10 13 -15 18 -5 27 -14 27 -27 0 -14 5 -18 15
-15 8 4 17 2 21 -4 4 -6 11 -6 21 2 11 10 16 10 22 0 6 -9 11 -8 21 4 9 11 16
12 25 5 9 -7 16 -6 25 6 12 14 15 13 26 -8 l12 -23 13 28 c11 25 14 26 29 12
15 -14 18 -14 30 0 7 9 19 14 26 11 7 -3 16 4 19 15 5 14 13 19 25 16 16 -4
17 -2 7 20 -8 19 -8 26 2 33 11 6 9 10 -5 18 -15 8 -16 13 -5 26 12 14 10 16
-13 16 -17 0 -26 5 -26 16 0 11 -6 13 -19 9 -14 -4 -20 0 -23 12 -3 15 -6 15
-17 -6z" id="node49" class="node"></path>
<path d="M1957 771 c-94 -16 -116 -27 -117 -58 0 -24 39 -54 63 -48 12 2 62
11 111 20 49 8 91 17 94 20 10 10 -13 57 -33 70 -16 10 -39 9 -118 -4z m53
-28 c-8 -2 -22 -7 -30 -9 -13 -5 -13 -6 0 -14 13 -8 12 -10 -2 -10 -9 0 -19 4
-23 10 -3 5 -12 7 -20 3 -8 -3 -15 -2 -15 1 0 11 43 25 75 25 17 -1 23 -3 15
-6z" id="node50" class="node"></path>
<path d="M1510 799 c0 -7 -10 -9 -25 -5 -15 4 -25 2 -25 -4 0 -6 -10 -10 -22
-8 -15 2 -23 -2 -23 -12 0 -8 -9 -15 -20 -15 -15 0 -19 -6 -17 -22 2 -13 -2
-23 -9 -23 -8 0 -8 -4 -2 -12 6 -7 10 -30 9 -51 -1 -27 2 -36 11 -32 8 2 18
-6 23 -19 7 -18 14 -23 29 -19 12 3 21 1 21 -3 1 -25 18 -36 39 -24 17 8 26 8
36 0 10 -8 15 -8 20 0 4 7 18 9 31 6 18 -5 24 -2 24 9 0 12 6 15 20 10 16 -5
20 -2 20 14 0 14 6 21 20 21 13 0 18 5 14 15 -4 8 -1 22 6 30 7 8 8 15 2 15
-5 0 -9 12 -9 26 0 15 -8 31 -17 36 -9 5 -14 13 -11 19 4 5 -2 12 -12 16 -10
4 -21 11 -24 16 -4 5 -25 10 -48 11 -22 0 -41 4 -41 8 0 5 -4 8 -10 8 -5 0
-10 -5 -10 -11z m73 -33 c74 -31 95 -103 44 -153 -22 -23 -37 -28 -92 -31 -63
-4 -66 -3 -100 31 -54 54 -43 111 29 147 48 24 75 25 119 6z" id="node51" class="node"></path>
<path d="M1493 753 c-25 -5 -73 -57 -73 -80 0 -8 13 -28 29 -44 25 -25 37 -29
81 -29 44 0 56 4 81 29 36 37 37 60 2 93 -28 27 -79 40 -120 31z m71 -52 c3
-4 -1 -16 -8 -27 -11 -15 -18 -16 -37 -7 l-24 12 28 0 c15 1 27 5 27 11 0 5
-7 6 -17 3 -11 -4 -14 -3 -9 5 8 14 32 16 40 3z" id="node52" class="node"></path>
<path d="M1300 1245 c0 -12 -6 -16 -20 -12 -15 4 -20 0 -20 -13 0 -10 -5 -20
-10 -22 -16 -5 -19 -78 -3 -78 7 0 13 -9 13 -20 0 -12 7 -20 16 -20 9 0 18 -9
21 -21 4 -16 11 -19 29 -15 12 3 26 1 29 -4 4 -6 14 -10 23 -8 10 1 23 -1 30
-6 7 -4 19 -3 26 3 7 6 16 8 19 4 4 -3 13 0 21 6 8 7 19 10 24 7 6 -3 13 4 17
17 12 37 14 87 4 87 -6 0 -7 5 -4 10 3 6 -1 13 -9 16 -9 3 -16 12 -16 20 0 8
-9 14 -20 14 -11 0 -20 5 -20 10 0 6 -9 10 -20 10 -11 0 -20 5 -20 10 0 7 -7
7 -20 0 -16 -9 -22 -8 -26 5 -5 12 -9 13 -20 4 -11 -9 -18 -8 -29 1 -12 10
-15 9 -15 -5z m145 -42 c60 -32 78 -101 36 -135 -45 -36 -149 -20 -194 30 -22
24 -25 75 -7 97 27 32 112 36 165 8z" id="node53" class="node"></path>
<path d="M1319 1195 c-51 -27 -45 -70 14 -105 35 -22 97 -26 128 -10 47 26 9
100 -62 120 -43 13 -48 12 -80 -5z m76 -47 c30 -14 32 -24 5 -24 -11 0 -20 4
-20 8 0 4 -6 8 -14 8 -8 0 -18 5 -21 10 -8 14 18 13 50 -2z" id="node54" class="node"></path>
<path d="M787 1050 c-3 -13 -11 -18 -20 -14 -8 3 -17 -2 -20 -10 -4 -9 -15
-16 -25 -16 -15 0 -18 -5 -14 -25 3 -16 0 -25 -8 -25 -10 0 -10 -3 -1 -14 9
-11 9 -16 0 -21 -8 -6 -7 -10 4 -17 9 -5 14 -15 11 -23 -4 -9 0 -15 10 -15 10
0 16 -8 16 -21 0 -17 5 -20 21 -16 15 4 23 -1 31 -19 10 -22 13 -23 33 -10 16
11 25 12 33 4 8 -8 15 -8 26 2 9 7 23 10 31 6 9 -3 18 1 22 10 3 8 11 13 18
10 7 -2 15 4 18 16 4 15 11 18 27 13 20 -6 21 -5 10 14 -9 17 -8 22 5 27 12 5
13 10 4 20 -6 7 -8 18 -4 24 3 5 1 10 -5 10 -7 0 -10 7 -6 15 3 9 0 15 -9 15
-8 0 -15 7 -15 15 0 8 -7 15 -15 15 -8 0 -15 6 -15 14 0 9 -7 12 -19 9 -10 -3
-22 0 -25 6 -5 8 -13 8 -27 1 -15 -9 -19 -7 -19 6 0 15 -2 15 -21 -2 -20 -18
-21 -18 -34 -1 -12 16 -13 16 -18 -3z m144 -36 c81 -42 61 -149 -33 -174 -52
-15 -109 2 -142 41 -36 43 -33 75 10 115 30 29 42 34 85 34 28 0 64 -7 80 -16z" id="node55" class="node"></path>
<path d="M779 981 c-16 -16 -29 -38 -29 -48 0 -30 27 -61 66 -73 72 -24 144
14 144 77 0 27 -6 37 -32 53 -51 31 -113 27 -149 -9z m91 -37 c0 -11 -5 -14
-16 -10 -12 4 -15 2 -10 -9 3 -8 2 -15 -3 -15 -16 0 -20 13 -10 31 12 23 39
25 39 3z" id="node56" class="node"></path>
<path d="M1210 964 c0 -11 -6 -14 -20 -9 -16 5 -20 2 -20 -15 0 -16 -5 -20
-15 -16 -11 4 -15 -2 -15 -20 0 -21 -4 -25 -20 -21 -16 4 -20 0 -20 -18 0 -18
-4 -22 -20 -18 -16 4 -20 1 -18 -18 2 -15 -2 -23 -9 -22 -7 2 -13 -6 -13 -16
0 -11 -10 -27 -22 -35 -18 -13 -19 -18 -8 -30 7 -9 10 -23 6 -31 -4 -11 1 -15
19 -15 16 0 25 -6 25 -16 0 -11 6 -14 20 -9 12 4 27 1 35 -5 12 -10 16 -9 21
3 3 9 12 13 20 10 9 -3 14 1 14 12 0 11 6 15 18 11 14 -5 18 -1 18 16 -1 16 4
22 16 20 12 -2 15 3 11 19 -5 19 -3 21 20 15 25 -6 26 -5 21 23 -6 26 -4 29
15 24 17 -4 21 -1 21 21 0 18 4 24 14 20 11 -4 13 0 9 17 -4 14 0 26 11 34 15
11 14 13 -10 19 -17 5 -24 12 -20 21 4 10 -1 15 -14 15 -11 0 -20 7 -20 15 0
18 -11 19 -29 3 -11 -10 -14 -10 -18 0 -7 17 -23 15 -23 -4z m74 -55 c14 -11
26 -26 26 -33 0 -6 -36 -53 -80 -104 -68 -78 -85 -92 -111 -92 -32 0 -79 38
-79 63 0 19 31 59 99 130 62 64 98 73 145 36z" id="node57" class="node"></path>
<path d="M1142 844 c-59 -61 -73 -81 -70 -102 2 -19 11 -30 30 -36 32 -11 42
-4 130 98 56 64 58 69 43 86 -37 41 -56 34 -133 -46z m38 -9 c-6 -8 -9 -19 -5
-25 3 -5 -1 -10 -9 -10 -9 0 -16 -7 -16 -16 0 -8 -4 -13 -9 -10 -5 4 -12 0
-14 -6 -4 -9 -6 -8 -6 3 -1 8 10 25 24 37 14 12 25 26 25 32 0 5 5 10 11 10 8
0 8 -4 -1 -15z" id="node58" class="node"></path>
<path d="M661 889 c8 -16 14 -18 22 -10 9 9 8 14 -3 21 -24 16 -31 11 -19 -11z" id="node59" class="node"></path>
<path d="M2445 1441 c-45 -20 -94 -72 -113 -117 -11 -27 -9 -41 16 -116 l29
-87 15 32 c25 51 86 116 132 139 56 30 137 30 195 1 25 -12 47 -20 50 -17 11
10 -53 116 -83 138 -65 49 -168 60 -241 27z" id="node60" class="node"></path>
<path d="M2661 1243 c-12 -45 -11 -49 10 -65 50 -41 91 -32 104 23 6 22 1 31
-27 52 -18 13 -43 28 -54 31 -19 6 -23 1 -33 -41z" id="node61" class="node"></path>

<path d="M2620 1145 c-36 -109 57 -169 191 -125 57 18 74 20 100 11 18 -6 34
-10 35 -8 8 8 -34 72 -57 90 -21 15 -43 18 -107 18 -72 0 -84 2 -110 24 -17
14 -32 25 -35 25 -3 0 -11 -16 -17 -35z" id="node63" class="node"></path>
<path d="M2860 1010 c-8 -5 -12 -11 -9 -14 2 -3 11 -1 19 4 8 5 12 11 9 14 -2
3 -11 1 -19 -4z" id="node64" class="node"></path>
<path d="M2894 990 c-23 -9 -41 -30 -26 -30 20 0 72 22 72 31 0 11 -18 11 -46
-1z" id="node65" class="node"></path>
<path d="M610 777 c0 -76 0 -77 28 -83 50 -10 100 -36 129 -66 24 -25 28 -37
28 -88 -1 -53 2 -60 26 -74 15 -9 40 -16 56 -16 55 0 108 -22 145 -61 43 -45
130 -77 303 -111 154 -31 392 -30 557 0 137 26 296 76 413 131 l85 40 0 90 c0
50 -2 91 -5 91 -3 0 -28 -11 -56 -25 -133 -68 -362 -135 -529 -155 -285 -34
-587 14 -846 135 -143 67 -258 155 -318 245 -16 24 -16 22 -16 -53z" id="node66" class="node"></path>
<path d="M546 758 c-25 -36 -20 -58 12 -58 26 0 27 2 24 40 -5 45 -14 50 -36
18z" id="node67" class="node"></path>
<path d="M525 674 c-72 -18 -127 -52 -230 -144 -88 -79 -161 -115 -216 -106
-39 6 -39 6 -33 -21 41 -175 182 -176 379 -5 153 133 221 186 270 208 l49 23
-45 20 c-47 21 -138 34 -174 25z" id="node68" class="node"></path>
<path d="M698 583 c-21 -8 -35 -19 -32 -24 3 -5 0 -26 -7 -46 -10 -32 -9 -38
7 -50 10 -7 35 -13 55 -13 33 0 38 4 48 31 21 61 9 120 -23 118 -6 0 -28 -7
-48 -16z" id="node69" class="node"></path>
<path d="M625 541 c-3 -5 -1 -12 5 -16 5 -3 10 1 10 9 0 18 -6 21 -15 7z" id="node70" class="node"></path>
<path d="M85 500 c-33 -34 -37 -42 -25 -50 26 -17 45 -11 63 19 18 30 23 71 9
71 -4 0 -26 -18 -47 -40z" id="node71" class="node"></path>
<path d="M2400 490 l0 -50 -61 -31 c-99 -49 -255 -107 -363 -133 -275 -68
-593 -57 -843 28 -56 19 -73 22 -73 11 0 -7 -2 -20 -5 -27 -11 -27 228 -90
410 -108 276 -29 599 34 867 168 119 60 157 98 143 142 -5 17 -51 50 -70 50
-3 0 -5 -22 -5 -50z" id="node72" class="node"></path>
<path d="M156 488 c-7 -18 -12 -34 -11 -36 5 -6 65 28 65 36 0 4 -9 13 -20 20
-18 11 -21 9 -34 -20z" id="node73" class="node"></path>
<path d="M780 460 c0 -5 5 -10 11 -10 5 0 7 5 4 10 -3 6 -8 10 -11 10 -2 0 -4
-4 -4 -10z" id="node74" class="node"></path>
<path d="M616 438 c-10 -37 -6 -92 7 -109 36 -47 100 -52 257 -20 57 12 115
20 127 16 30 -7 30 13 1 50 -34 44 -75 55 -198 55 -76 0 -122 5 -147 15 -44
19 -40 19 -47 -7z" id="node75" class="node"></path>
<path d="M958 303 c-27 -7 -21 -20 13 -32 43 -15 46 -14 52 8 3 14 -2 21 -17
25 -11 3 -23 5 -26 5 -3 -1 -13 -3 -22 -6z" id="node76" class="node"></path>
<path d="M1160 30 c0 -5 5 -10 10 -10 6 0 10 5 10 10 0 6 -4 10 -10 10 -5 0
-10 -4 -10 -10z" id="node77" class="node"></path>
<path d="M1280 19 c0 -5 -4 -7 -10 -4 -5 3 -10 1 -10 -4 0 -6 9 -11 20 -11 13
0 18 5 14 15 -7 17 -14 20 -14 4z" id="node78" class="node"></path>
<path d="M1230 10 c-13 -8 -12 -10 3 -10 9 0 17 5 17 10 0 12 -1 12 -20 0z" id="node79" class="node"></path>
</g>
</svg>