<!--?xml version="1.0" standalone="no"?-->

<svg version="1.0" xmlns="http://www.w3.org/2000/svg" width="300.000000pt" height="300.000000pt" viewBox="0 0 300.000000 300.000000" preserveAspectRatio="xMidYMid meet">
<g transform="translate(0.000000,300.000000) scale(0.100000,-0.100000)" fill="#252524" stroke="none">
<path class="node" id="node1" d="M1080 2810 c-117 -25 -247 -128 -298 -237 -24 -52 -27 -70 -27 -163
0 -93 3 -111 27 -163 58 -124 157 -221 320 -315 88 -51 258 -161 258 -167 0
-2 -30 10 -67 26 -38 17 -77 35 -88 40 -11 4 -59 18 -108 29 -71 18 -97 20
-140 12 l-52 -10 70 -1 c69 -1 85 -4 195 -35 56 -15 175 -74 167 -82 -2 -3
-22 -1 -43 4 -119 25 -299 -14 -425 -94 -59 -37 -41 -41 23 -5 144 81 326 112
444 75 l59 -18 -55 -12 c-152 -32 -287 -155 -362 -329 -14 -33 -29 -82 -32
-110 l-6 -50 25 70 c14 39 35 88 46 110 46 85 149 200 219 245 44 28 167 66
178 56 3 -3 -17 -30 -45 -59 -29 -30 -66 -86 -87 -129 -39 -82 -76 -228 -69
-275 22 -153 58 -243 138 -352 25 -34 109 -127 188 -208 141 -146 190 -213
221 -303 38 -109 5 -208 -79 -238 -16 -6 -25 -11 -18 -11 66 -5 143 90 143
175 0 76 -47 209 -102 286 -17 24 -18 34 -9 82 13 72 50 129 109 169 71 48
142 121 142 146 0 11 4 21 9 21 5 0 11 11 13 24 4 17 1 23 -9 19 -7 -3 -13
-11 -13 -18 0 -18 -63 -79 -101 -98 -64 -30 -122 -97 -149 -171 -19 -51 -23
-19 -5 36 31 93 55 130 159 237 148 154 219 280 215 386 -1 21 -3 24 -6 10
-28 -119 -76 -187 -218 -305 -97 -81 -156 -158 -177 -230 -7 -25 -13 -89 -13
-142 0 -53 -2 -94 -6 -90 -3 4 -32 39 -66 77 -33 39 -73 95 -89 125 -27 50
-29 64 -29 160 0 97 2 109 28 151 31 52 36 73 8 38 -25 -33 -53 -89 -44 -89 4
0 2 -5 -5 -12 -17 -17 -15 -138 4 -183 8 -20 13 -42 11 -48 -5 -17 -117 143
-155 223 -32 67 -36 86 -40 180 -4 94 -1 113 22 179 35 100 67 152 123 199
l47 40 -28 42 c-38 58 -138 155 -199 194 -29 18 -92 55 -142 81 -113 60 -169
100 -228 164 -46 49 -65 80 -29 48 73 -66 195 -62 268 8 42 39 44 45 44 98 0
45 -5 61 -26 87 -47 56 -98 71 -162 49 -33 -11 -72 -66 -72 -100 0 -56 73
-102 117 -74 25 17 32 62 11 83 -20 20 -58 14 -83 -14 l-25 -27 0 36 c0 44 33
71 86 71 72 0 128 -83 100 -147 -16 -39 -60 -79 -102 -96 -28 -11 -38 -10 -80
11 -84 40 -126 129 -106 224 16 76 40 123 89 170 91 89 227 141 345 131 136
-12 212 -86 225 -220 5 -55 2 -69 -21 -114 -14 -28 -30 -54 -36 -58 -5 -3 -15
-15 -21 -26 -19 -36 24 -5 53 38 83 122 76 285 -17 377 -74 75 -216 111 -335
86z"></path>
<path class="node" id="node2" d="M1800 2783 c-75 -10 -144 -39 -197 -82 -31 -25 -59 -52 -61 -60 -2
-7 21 7 52 32 31 26 75 51 98 58 102 28 223 1 287 -65 27 -28 32 -41 33 -83 2
-94 -58 -161 -222 -248 -30 -16 -81 -43 -112 -60 -31 -16 -89 -56 -128 -88
-107 -87 -134 -164 -89 -256 11 -24 23 -40 26 -37 3 3 -2 21 -11 40 -9 19 -16
42 -16 52 0 47 84 140 171 186 237 129 351 223 387 321 12 32 22 70 22 85 1
24 4 21 28 -23 23 -45 26 -61 26 -150 0 -92 -3 -105 -33 -168 -60 -125 -185
-272 -330 -387 -104 -83 -180 -167 -223 -246 -39 -72 -43 -85 -43 -149 0 -56
5 -78 23 -107 61 -98 181 -106 252 -15 67 85 -2 217 -91 172 -33 -17 -46 -54
-30 -83 31 -59 111 -22 102 47 -2 7 2 10 8 6 6 -3 11 -24 11 -47 0 -86 -108
-130 -186 -76 -46 32 -59 61 -59 134 0 63 25 129 65 175 58 65 98 101 165 149
308 221 394 309 446 458 55 155 0 353 -122 442 -69 49 -182 83 -249 73z"></path>
</g>
<g transform="translate(0.000000,300.000000) scale(0.100000,-0.100000)" fill="#FFFFFF" stroke="none">

</g>
</svg>