<!--?xml version="1.0" standalone="no"?-->

<svg version="1.0" xmlns="http://www.w3.org/2000/svg" width="300.000000pt" height="300.000000pt" viewBox="0 0 300.000000 300.000000" preserveAspectRatio="xMidYMid meet">
<g transform="translate(0.000000,300.000000) scale(0.100000,-0.100000)" fill="#000000" stroke="none">

<path class="node" id="node2" d="M1151 983 c-1 -72 -7 -120 -21 -165 -25 -79 -25 -91 0 -53 32 51 53
151 45 218 -12 109 -24 109 -24 0z"></path>
<path class="node" id="node3" d="M852 1044 c-29 -20 -52 -66 -52 -105 0 -22 10 -41 34 -65 29 -29 41
-34 81 -34 38 0 52 5 75 29 52 52 52 113 -2 163 -35 33 -98 39 -136 12z m90
-81 c25 -22 23 -59 -4 -77 -28 -20 -43 -20 -62 0 -49 49 14 124 66 77z"></path>
</g>
<g transform="translate(0.000000,300.000000) scale(0.100000,-0.100000)" fill="#6DFBDB" stroke="none">
<path class="node" id="node4" d="M5 1500 c0 -828 1 -1166 2 -752 2 413 2 1091 0 1505 -1 413 -2 75 -2
-753z"></path>
<path class="node" id="node5" d="M988 2369 c-27 -15 -22 -53 15 -100 52 -69 62 -71 107 -22 22 23 42
54 46 69 13 50 -26 78 -73 53 -18 -10 -26 -10 -35 -1 -15 15 -37 15 -60 1z"></path>
<path class="node" id="node6" d="M660 2140 c-11 -11 -20 -27 -20 -35 0 -28 37 -89 79 -130 l41 -39 40
39 c38 37 80 107 80 133 0 20 -38 52 -62 52 -12 0 -30 -7 -40 -17 -17 -15 -19
-15 -36 0 -25 23 -58 21 -82 -3z"></path>
<path class="node" id="node7" d="M895 1746 c-43 -31 -14 -108 69 -185 l26 -25 44 43 c24 24 52 61 62
83 16 36 16 43 3 67 -18 32 -63 40 -90 15 -18 -16 -20 -16 -37 -1 -23 21 -52
22 -77 3z"></path>
<path class="node" id="node8" d="M494 1549 c-42 -12 -65 -40 -71 -88 -9 -63 39 -149 138 -252 l82 -83
82 86 c45 47 94 110 109 139 45 92 31 166 -40 195 -45 19 -88 8 -123 -32 l-29
-33 -17 25 c-9 14 -32 32 -50 40 -38 16 -38 16 -81 3z"></path>
<path class="node" id="node9" d="M1480 1480 c-141 -39 -206 -70 -277 -134 -42 -38 -58 -46 -89 -46
-180 -1 -365 -160 -439 -377 -12 -37 -26 -84 -29 -104 l-6 -35 77 -45 c187
-107 407 -116 711 -29 100 29 105 29 165 15 34 -8 90 -15 125 -15 l63 0 -25
33 c-37 48 -33 63 22 83 26 9 62 23 81 31 34 13 35 13 75 -30 69 -74 136 -117
243 -158 80 -31 183 -57 183 -47 0 18 -43 94 -77 136 -44 54 -124 113 -185
136 -27 10 -48 20 -48 22 0 2 26 17 58 32 88 43 157 92 267 190 87 77 215 211
215 225 0 5 -118 -18 -170 -34 -238 -72 -396 -187 -506 -365 -11 -17 -14 -17
-35 -5 -13 8 -41 24 -64 36 -22 12 -56 31 -75 42 -76 44 -109 63 -208 118 -84
46 -101 59 -89 68 8 7 20 37 27 67 12 56 44 119 88 178 22 29 23 32 6 31 -11
0 -48 -9 -84 -19z m-305 -497 c8 -67 -13 -167 -45 -218 -25 -38 -25 -26 0 53
14 45 20 93 21 165 0 109 12 109 24 0z m-187 49 c54 -50 54 -111 2 -163 -23
-24 -37 -29 -75 -29 -40 0 -52 5 -81 34 -38 38 -44 77 -19 126 34 67 119 82
173 32z"></path>
<path class="node" id="node10" d="M878 969 c-34 -19 -13 -99 25 -99 24 0 57 31 57 54 0 25 -28 56 -51
56 -8 0 -22 -5 -31 -11z"></path>
</g>
</svg>