<!--?xml version="1.0" standalone="no"?-->

<svg version="1.0" xmlns="http://www.w3.org/2000/svg" width="288.000000pt" height="300.000000pt" viewBox="0 0 288.000000 300.000000" preserveAspectRatio="xMidYMid meet">
<g transform="translate(0.000000,300.000000) scale(0.100000,-0.100000)" fill="#242424" stroke="none">
<path d="M900 2758 c-117 -33 -180 -54 -215 -71 -55 -27 -126 -77 -150 -106
-92 -111 -129 -185 -161 -321 -24 -104 -24 -310 0 -405 44 -175 125 -381 185
-471 17 -25 31 -48 31 -51 0 -3 23 -36 50 -73 28 -37 50 -75 50 -83 0 -9 -22
-52 -50 -95 -46 -72 -52 -78 -85 -79 -32 -1 -37 3 -54 40 -24 55 -54 80 -93
80 -36 0 -68 -32 -68 -70 0 -20 -3 -24 -18 -17 -9 4 -35 9 -58 12 -36 3 -44 0
-68 -29 -47 -56 -20 -104 90 -161 35 -18 64 -36 64 -39 0 -3 -15 -12 -32 -20
-39 -17 -98 -92 -98 -123 0 -13 8 -32 17 -43 48 -54 112 -54 160 0 33 36 96
87 132 106 20 11 29 10 60 -7 63 -35 116 -45 150 -28 46 24 71 63 71 111 0 66
-50 98 -114 71 -33 -14 -36 -14 -36 2 0 10 -9 35 -20 57 l-20 39 36 61 c64
105 53 105 152 6 138 -138 236 -210 362 -266 128 -56 122 -44 91 -202 -11 -54
-23 -122 -27 -151 -3 -29 -10 -54 -14 -57 -4 -2 -54 17 -111 43 l-104 47 -130
0 c-137 0 -169 -7 -281 -61 -59 -29 -103 -70 -88 -83 5 -5 181 -11 392 -14
317 -4 382 -3 382 8 0 8 -6 18 -14 22 -15 9 -14 15 30 275 18 107 18 108 46
108 33 0 32 10 13 -150 -15 -127 -28 -207 -40 -247 l-7 -23 139 0 c77 0 242
-3 366 -7 264 -7 271 -4 150 67 -191 112 -335 119 -532 28 -34 -16 -65 -27
-67 -25 -3 2 2 49 10 103 8 54 18 134 22 177 4 44 12 81 18 83 7 3 31 -2 55
-11 116 -41 247 8 304 114 l28 51 -15 61 c-9 33 -16 62 -16 64 0 2 17 9 38 16
20 6 42 15 47 19 6 4 28 13 50 20 22 7 45 16 50 20 6 4 43 20 83 35 87 34 81
38 151 -97 49 -92 50 -97 36 -125 -8 -15 -15 -33 -15 -39 0 -7 -24 -15 -54
-18 -64 -8 -102 -40 -112 -93 -8 -44 19 -84 64 -95 26 -7 48 -2 117 27 47 19
98 35 113 35 16 0 70 -23 121 -52 64 -35 107 -52 140 -56 44 -4 50 -2 74 28
38 45 37 100 -2 133 -16 13 -46 28 -67 31 l-37 7 35 24 c61 42 66 95 13 151
-36 38 -41 39 -110 19 -16 -5 -25 0 -35 19 -26 50 -107 21 -136 -51 -11 -24
-21 -33 -38 -33 -20 0 -31 14 -66 83 -24 45 -51 94 -61 109 -11 14 -19 28 -19
31 0 3 30 22 67 42 122 67 291 206 353 290 50 68 84 136 110 224 20 65 22 88
17 185 -7 129 -24 193 -78 295 -129 241 -402 413 -679 428 -125 6 -198 -6
-285 -47 -34 -16 -67 -30 -72 -30 -5 0 -20 12 -34 26 -39 42 -140 120 -186
143 -97 49 -363 77 -463 49z m396 -70 c90 -33 137 -63 202 -129 l52 -53 -20
-21 c-11 -12 -20 -24 -20 -28 0 -12 35 -8 48 5 9 9 12 8 12 -4 0 -40 147 -133
179 -114 16 10 13 26 -4 26 -38 0 -135 69 -135 96 0 7 -5 14 -12 16 -17 6 69
53 137 74 81 26 234 26 335 0 84 -21 191 -71 265 -124 80 -57 204 -190 236
-254 163 -323 98 -584 -209 -835 -54 -44 -92 -70 -192 -128 -39 -23 -129 -60
-240 -100 -65 -23 -149 -55 -186 -71 -15 -7 -52 45 -55 77 -5 59 1 74 37 94
38 20 107 97 140 155 22 39 67 170 83 241 8 37 24 60 89 125 92 93 138 176
161 292 l16 76 49 25 c49 25 71 51 44 51 -7 -1 -24 -7 -38 -15 -34 -19 -105
-19 -136 1 -13 9 -28 13 -32 10 -7 -8 27 -41 64 -62 17 -10 17 -15 5 -80 -19
-102 -60 -182 -136 -263 -73 -76 -116 -105 -221 -144 -165 -60 -275 -77 -454
-70 -236 10 -409 71 -542 191 -41 37 -57 38 -39 3 17 -30 105 -93 191 -136
104 -52 215 -75 399 -83 l155 -7 19 -33 c14 -24 19 -53 20 -115 1 -93 -19
-147 -54 -147 -27 0 -58 -16 -94 -51 -18 -17 -44 -29 -65 -31 -33 -3 -35 -5
-37 -43 l-3 -40 17 33 c23 44 48 44 39 0 -31 -153 -28 -227 10 -284 31 -45 30
-54 -5 -54 -104 0 -354 143 -493 283 -66 66 -195 224 -237 292 -105 168 -212
447 -231 598 -14 116 -14 136 -1 239 18 136 69 260 145 353 65 80 122 117 226
150 122 38 165 44 305 41 122 -2 149 -5 211 -28z m368 -1498 c-18 -52 -10 -92
37 -171 33 -56 39 -74 39 -123 0 -56 -2 -61 -43 -101 -37 -37 -50 -44 -101
-50 -176 -22 -260 104 -210 315 17 72 45 110 107 142 46 23 54 20 28 -14 -11
-13 -22 -41 -26 -61 -6 -32 -5 -36 9 -31 9 3 16 13 16 21 0 51 69 113 126 113
l32 0 -14 -40z m-1217 -122 c11 -13 25 -38 31 -56 10 -30 9 -34 -14 -44 -32
-15 -51 -4 -77 45 -14 28 -16 40 -7 56 14 27 41 27 67 -1z m-163 -58 c14 -5
46 -28 71 -52 44 -40 48 -41 79 -30 42 15 114 15 145 -1 15 -7 30 -29 39 -54
15 -47 30 -52 72 -28 35 20 68 18 80 -4 16 -32 12 -51 -20 -83 -28 -27 -35
-30 -73 -24 -23 4 -54 15 -69 26 -56 41 -124 13 -227 -94 -19 -20 -44 -36 -56
-36 -30 0 -65 28 -65 52 0 31 69 94 118 107 56 15 58 44 5 62 -58 18 -130 57
-153 81 -26 28 -25 53 2 72 27 19 21 18 52 6z m2154 -12 c17 -17 15 -83 -2
-97 -12 -10 -55 -7 -78 6 -11 6 19 74 40 89 21 17 25 17 40 2z m161 -54 c12
-15 21 -31 21 -36 0 -17 -67 -78 -85 -78 -22 0 -105 -38 -105 -49 0 -4 41 -11
92 -14 128 -8 172 -43 133 -104 -15 -22 -22 -25 -58 -20 -23 3 -80 26 -127 51
-123 64 -142 66 -235 22 -112 -52 -155 -47 -155 19 0 51 30 70 106 68 55 -3
66 0 76 18 7 11 29 29 49 39 29 15 43 17 78 9 49 -11 62 -4 80 39 13 32 56 61
88 62 12 0 31 -12 42 -26z m-299 -52 c0 -10 -41 -35 -47 -28 -9 8 17 36 33 36
8 0 14 -3 14 -8z" id="node1" class="node" stroke-width="20"></path>
<path d="M1315 2510 c-26 -28 -81 -43 -136 -37 -50 6 -73 -5 -42 -21 40 -20
80 -20 143 1 57 19 65 25 68 50 4 32 -8 35 -33 7z" id="node2" class="node" stroke-width="20"></path>
<path d="M1155 2390 c-35 -8 -70 -25 -105 -52 -24 -19 -25 -19 -43 3 -24 30
-35 14 -15 -21 10 -17 13 -32 7 -35 -13 -9 -29 4 -39 31 -9 24 -30 33 -30 14
0 -18 30 -70 40 -70 6 0 10 -4 10 -10 0 -17 -30 -11 -58 11 -19 14 -28 17 -31
8 -5 -15 44 -59 65 -59 15 0 19 -16 6 -24 -13 -8 3 -138 22 -177 24 -51 73
-94 134 -118 55 -22 117 -27 141 -12 9 6 27 -1 56 -21 89 -63 286 -61 375 3
51 37 90 115 90 179 0 43 2 46 41 62 23 10 38 22 34 28 -3 6 -11 7 -18 3 -20
-13 -67 -10 -67 4 0 7 9 13 19 13 21 0 69 35 60 44 -3 4 -23 -1 -44 -9 -20 -9
-39 -14 -42 -11 -3 2 7 20 21 39 24 31 33 57 21 57 -3 0 -19 -15 -35 -32 -29
-32 -31 -32 -42 -13 -19 33 -78 83 -124 105 -59 27 -126 26 -191 -4 l-52 -24
-16 24 c-28 43 -131 78 -190 64z m120 -47 c19 -9 35 -19 35 -22 0 -3 11 -19
24 -36 l24 -30 24 20 c41 36 67 45 123 45 129 0 223 -95 240 -242 4 -32 4 -58
1 -58 -4 0 -38 -5 -76 -11 -145 -22 -447 43 -631 137 -52 26 -54 31 -36 79 17
45 37 68 86 103 36 26 53 32 97 32 29 0 69 -8 89 -17z m-107 -283 c6 0 17 -8
24 -18 20 -28 36 -34 58 -22 17 9 26 7 52 -15 20 -17 36 -24 47 -19 20 9 45 9
141 -3 41 -5 114 -7 163 -4 81 6 87 5 87 -13 0 -26 -87 -104 -130 -116 -52
-15 -170 -12 -225 4 -26 8 -61 27 -76 42 -25 24 -32 26 -54 16 -37 -17 -66
-15 -129 8 -84 32 -136 104 -136 192 l0 27 84 -40 c46 -21 89 -39 94 -39z" id="node3" class="node" stroke-width="20"></path>

















</g>
<g transform="translate(0.000000,300.000000) scale(0.100000,-0.100000)" fill="#FFFFFF" stroke="none">

<path d="M890 2705 c-187 -45 -256 -82 -336 -180 -76 -93 -127 -217 -145 -353
-13 -103 -13 -123 1 -239 19 -151 126 -430 231 -598 42 -68 171 -226 237 -292
139 -140 389 -283 493 -283 35 0 36 9 5 54 -38 57 -41 131 -10 284 9 44 -16
44 -39 0 l-17 -33 3 40 c2 38 4 40 37 43 21 2 47 14 65 31 36 35 67 51 94 51
35 0 55 54 54 147 -1 62 -6 91 -20 115 l-19 33 -155 7 c-184 8 -295 31 -399
83 -86 43 -174 106 -191 136 -18 35 -2 34 39 -3 133 -120 306 -181 542 -191
179 -7 289 10 454 70 105 39 148 68 221 144 76 81 117 161 136 263 12 65 12
70 -5 80 -37 21 -71 54 -64 62 4 3 19 -1 32 -10 31 -20 102 -20 136 -1 14 8
31 14 38 15 27 0 5 -26 -44 -51 l-49 -25 -16 -76 c-23 -116 -69 -199 -161
-292 -65 -65 -81 -88 -89 -125 -16 -71 -61 -202 -83 -241 -33 -58 -102 -135
-140 -155 -36 -20 -42 -35 -37 -94 3 -32 40 -84 55 -77 37 16 121 48 186 71
111 40 201 77 240 100 100 58 138 84 192 128 212 174 308 350 295 544 -6 87
-38 197 -86 291 -32 64 -156 197 -236 254 -220 157 -513 190 -704 80 -24 -14
-39 -28 -33 -30 7 -2 12 -9 12 -16 0 -27 97 -96 135 -96 17 0 20 -16 4 -26
-32 -19 -179 74 -179 114 0 12 -3 13 -12 4 -13 -13 -48 -17 -48 -5 0 4 9 16
20 28 l20 21 -52 53 c-65 66 -112 96 -202 129 -62 23 -89 26 -211 28 -91 2
-159 -2 -195 -11z m458 -202 c-3 -25 -11 -31 -68 -50 -63 -21 -103 -21 -143
-1 -31 16 -8 27 42 21 55 -6 110 9 136 37 25 28 37 25 33 -7z m-61 -134 c23
-10 49 -29 58 -43 l16 -24 52 24 c65 30 132 31 191 4 46 -22 105 -72 124 -105
11 -19 13 -19 42 13 16 17 32 32 35 32 12 0 3 -26 -21 -57 -14 -19 -24 -37
-21 -39 3 -3 22 2 42 11 21 8 41 13 44 9 9 -9 -39 -44 -60 -44 -10 0 -19 -6
-19 -13 0 -14 47 -17 67 -4 7 4 15 3 18 -3 4 -6 -11 -18 -34 -28 -39 -16 -41
-19 -41 -62 0 -64 -39 -142 -90 -179 -89 -64 -286 -66 -375 -3 -29 20 -47 27
-56 21 -24 -15 -86 -10 -141 12 -61 24 -110 67 -134 118 -19 39 -35 169 -22
177 13 8 9 24 -6 24 -21 0 -70 44 -65 59 3 9 12 6 31 -8 28 -22 58 -28 58 -11
0 6 -4 10 -10 10 -10 0 -40 52 -40 70 0 19 21 10 30 -14 10 -27 26 -40 39 -31
6 3 3 18 -7 35 -20 35 -9 51 15 21 18 -22 19 -22 43 -3 81 62 144 71 237 31z" id="node22" class="node" stroke-width="20"></path>
<path d="M1089 2328 c-49 -35 -69 -58 -86 -103 -18 -48 -16 -53 36 -79 184
-94 486 -159 631 -137 38 6 72 11 76 11 12 0 -7 115 -27 157 -30 63 -56 91
-110 118 -34 18 -65 25 -104 25 -56 0 -82 -9 -123 -45 l-24 -20 -24 30 c-13
17 -24 33 -24 36 0 15 -77 39 -124 39 -44 0 -61 -6 -97 -32z" id="node23" class="node" stroke-width="20"></path>
<path d="M990 2112 c0 -88 52 -160 136 -192 63 -23 92 -25 129 -8 22 10 29 8
54 -16 15 -15 50 -34 76 -42 55 -16 173 -19 225 -4 43 12 130 90 130 116 0 18
-6 19 -87 13 -49 -3 -122 -1 -163 4 -96 12 -121 12 -141 3 -11 -5 -27 2 -47
19 -26 22 -35 24 -52 15 -22 -12 -38 -6 -58 22 -7 10 -18 18 -24 18 -5 0 -48
18 -94 39 l-84 40 0 -27z" id="node24" class="node" stroke-width="20"></path>
<path d="M1583 1210 c-32 -19 -63 -66 -63 -93 0 -8 -7 -18 -16 -21 -14 -5 -15
-1 -9 31 4 20 15 48 26 61 26 34 18 37 -28 14 -62 -32 -90 -70 -107 -142 -29
-122 -17 -206 37 -264 42 -44 98 -61 173 -51 51 6 64 13 101 50 41 40 43 45
43 101 0 49 -6 67 -39 123 -47 79 -55 119 -37 171 l14 40 -32 0 c-17 0 -45 -9
-63 -20z" id="node25" class="node" stroke-width="20"></path>
<path d="M380 1069 c-9 -16 -7 -28 7 -56 26 -49 45 -60 77 -45 23 10 24 14 14
44 -23 69 -76 100 -98 57z" id="node26" class="node" stroke-width="20"></path>
<path d="M232 1004 c-27 -19 -28 -44 -2 -72 23 -24 95 -63 153 -81 53 -18 51
-47 -5 -62 -49 -13 -118 -76 -118 -107 0 -24 35 -52 65 -52 12 0 37 16 56 36
103 107 171 135 227 94 15 -11 46 -22 69 -26 38 -6 45 -3 73 24 32 32 36 51
20 83 -12 22 -45 24 -80 4 -42 -24 -57 -19 -72 28 -9 25 -24 47 -39 54 -31 16
-103 16 -145 1 -31 -11 -35 -10 -79 30 -36 34 -81 62 -98 62 -2 0 -13 -7 -25
-16z" id="node27" class="node" stroke-width="20"></path>
<path d="M2398 996 c-21 -15 -51 -83 -40 -89 23 -13 66 -16 78 -6 17 14 19 80
2 97 -15 15 -19 15 -40 -2z" id="node28" class="node" stroke-width="20"></path>
<path d="M2508 953 c-15 -10 -32 -30 -39 -45 -18 -43 -31 -50 -80 -39 -35 8
-49 6 -78 -9 -20 -10 -42 -28 -49 -39 -10 -18 -21 -21 -76 -18 -76 2 -106 -17
-106 -68 0 -66 43 -71 155 -19 93 44 112 42 235 -22 47 -25 104 -48 127 -51
36 -5 43 -2 58 20 39 61 -5 96 -133 104 -51 3 -92 10 -92 14 0 11 83 49 105
49 18 0 85 61 85 78 0 20 -43 62 -63 62 -12 0 -34 -8 -49 -17z" id="node29" class="node" stroke-width="20"></path>
<path d="M2260 885 c-7 -9 -10 -18 -7 -21 6 -7 47 18 47 28 0 14 -27 9 -40 -7z" id="node30" class="node" stroke-width="20"></path>





</g>
</svg>