<!--?xml version="1.0" standalone="no"?-->

<svg version="1.0" xmlns="http://www.w3.org/2000/svg" width="293.000000pt" height="300.000000pt" viewBox="0 0 293.000000 300.000000" preserveAspectRatio="xMidYMid meet">
<g transform="translate(0.000000,300.000000) scale(0.100000,-0.100000)" fill="#8D4D85" stroke="none">
<path d="M2435 2825 c-22 -8 -71 -22 -110 -31 -38 -9 -74 -20 -80 -24 -5 -4
-33 -12 -61 -18 -27 -6 -90 -23 -140 -38 -49 -14 -120 -34 -159 -44 -38 -10
-83 -23 -100 -28 -16 -5 -56 -15 -88 -22 -32 -6 -61 -18 -64 -26 -5 -13 83
-204 94 -204 4 0 54 16 111 36 l106 36 16 -22 c16 -21 18 -21 71 -7 30 8 97
29 149 45 93 29 95 31 94 60 -2 33 3 36 96 64 l45 13 12 79 c16 106 18 109 50
101 17 -4 29 -2 34 7 6 9 9 7 9 -7 0 -11 6 -29 14 -40 7 -11 16 -30 20 -42 9
-29 73 -98 94 -100 9 -1 37 -5 62 -8 33 -5 41 -4 30 4 -8 6 -23 11 -32 11 -9
0 -19 4 -22 9 -9 14 4 41 19 41 8 0 17 4 20 10 4 6 -3 6 -21 0 -15 -6 -29 -9
-31 -6 -9 9 30 36 52 36 13 0 30 7 38 15 13 13 17 13 28 -1 10 -12 10 -20 1
-34 -6 -11 -9 -26 -6 -35 3 -8 1 -15 -6 -15 -6 0 -8 -4 -5 -10 3 -5 1 -10 -4
-10 -6 0 -11 -4 -11 -10 0 -21 31 -9 40 16 11 28 13 84 4 108 -8 20 -28 21
-44 1 -7 -8 -23 -15 -35 -15 -12 0 -33 -8 -46 -18 -36 -27 -68 -25 -81 4 -6
13 -15 24 -20 24 -4 0 -8 6 -8 14 0 7 -7 19 -15 26 -8 7 -13 15 -11 19 8 12
-20 40 -45 45 -13 3 -42 -1 -64 -9z m-5 -37 c0 -2 -7 -25 -15 -52 -8 -27 -15
-62 -15 -77 0 -23 -6 -30 -27 -35 -16 -4 -34 -11 -41 -17 -6 -5 -30 -10 -52
-11 -32 0 -39 -4 -34 -16 16 -36 9 -54 -26 -66 -70 -24 -166 -52 -202 -59 -35
-7 -37 -6 -52 30 -22 52 -20 61 14 79 47 23 199 58 231 54 16 -3 29 0 29 5 0
12 -152 1 -178 -12 -9 -5 -35 -14 -57 -21 -59 -18 -74 -35 -68 -76 4 -24 2
-35 -8 -37 -8 -2 -54 -16 -102 -31 -49 -15 -90 -26 -92 -24 -8 9 -75 149 -75
157 0 5 17 12 38 16 20 4 42 10 47 15 6 4 42 15 80 24 39 8 129 32 200 51 72
19 181 49 244 65 63 17 117 33 120 35 4 5 41 7 41 3z m216 -155 c-11 -11 -19
6 -11 24 8 17 8 17 12 0 3 -10 2 -21 -1 -24z" id="node1" class="node"></path>
<path d="M201 2020 l-23 -10 6 -185 c5 -152 3 -185 -8 -185 -27 0 -41 -29 -29
-61 6 -16 8 -31 3 -34 -4 -3 -6 -14 -3 -24 3 -10 0 -28 -6 -39 -9 -16 -7 -24
5 -37 10 -10 14 -26 11 -43 -20 -115 -41 -200 -53 -223 -19 -39 -18 -43 20
-83 30 -32 39 -36 85 -36 61 0 97 26 85 63 -6 20 -3 19 25 -7 17 -16 34 -26
38 -22 4 3 1 44 -6 89 -7 45 -16 115 -18 155 l-5 72 35 0 c19 0 37 5 39 11 3
8 30 5 88 -9 47 -12 108 -24 137 -28 50 -6 53 -8 74 -52 45 -97 127 -186 286
-311 51 -40 112 -95 137 -122 41 -45 96 -142 96 -168 0 -6 -31 -8 -86 -4 -91
6 -103 2 -104 -42 -1 -49 -17 -50 -62 -3 -53 54 -116 78 -203 78 -68 0 -158
-26 -152 -44 2 -6 36 -14 78 -17 91 -8 176 -32 216 -62 45 -33 80 -78 87 -114
9 -38 25 -44 27 -10 4 63 8 87 24 140 l17 58 56 -6 c109 -11 116 -14 134 -44
13 -23 25 -30 53 -33 l36 -3 -26 -50 c-15 -27 -41 -76 -57 -107 -18 -36 -43
-66 -64 -79 -43 -26 -48 -54 -7 -38 27 11 228 16 268 8 38 -8 110 -46 138 -73
15 -14 30 -26 33 -26 2 0 4 15 4 34 0 25 -10 44 -37 75 -66 72 -183 97 -311
64 -24 -6 -24 -5 12 58 21 35 46 83 57 107 18 38 30 47 107 85 79 37 212 110
237 129 102 76 199 160 277 239 120 122 159 194 196 365 5 20 29 51 68 87 49
45 72 77 110 154 26 54 51 99 56 101 4 2 41 30 81 63 59 47 82 59 110 59 43 0
59 19 55 62 -2 26 -9 34 -33 42 -16 5 -44 15 -62 22 -17 8 -36 14 -42 14 -17
0 -81 -60 -97 -91 -18 -36 -56 -38 -116 -8 -96 49 -190 -31 -104 -89 28 -19
38 -21 55 -13 34 19 56 12 90 -26 l33 -37 -46 -91 c-29 -57 -65 -110 -95 -139
l-48 -48 -8 58 c-11 87 -41 157 -91 213 -57 63 -95 86 -190 117 -128 40 -210
29 -339 -47 l-70 -41 -30 34 c-73 81 -141 115 -258 128 -160 19 -282 -24 -396
-138 -97 -98 -123 -158 -129 -294 -4 -104 -5 -108 -26 -103 -11 2 -59 11 -106
20 -47 9 -91 21 -97 27 -8 6 -13 33 -13 63 0 77 -16 114 -57 131 -18 8 -31 18
-29 23 3 5 12 57 21 115 8 59 19 114 23 124 5 9 12 32 15 49 5 28 2 36 -19 49
-29 20 -148 29 -183 14z m148 -21 c36 -13 36 -11 15 -109 -8 -41 -22 -108 -30
-149 -17 -92 -36 -124 -67 -116 -12 4 -30 9 -39 11 -15 5 -18 18 -19 82 0 42
-3 117 -5 166 -4 74 -2 92 12 107 20 22 82 25 133 8z m2191 -9 c11 -7 8 -11
-15 -20 -17 -6 -45 -25 -62 -43 -47 -44 -41 -13 6 34 41 41 48 44 71 29z m71
-30 c37 -20 11 -60 -39 -60 -10 0 -34 -11 -53 -25 -82 -60 -89 -63 -132 -58
-23 3 -55 15 -70 26 -24 16 -32 18 -51 7 -30 -15 -66 -10 -80 13 -9 15 -6 22
14 38 27 23 37 22 126 -11 73 -28 95 -23 151 29 56 53 91 63 134 41z m-1346
-57 c87 -27 153 -71 198 -131 37 -50 42 -54 45 -34 4 28 43 57 118 89 112 47
244 41 344 -16 70 -39 83 -52 114 -104 70 -121 82 -225 41 -348 -61 -186 -92
-236 -201 -329 -179 -153 -225 -187 -339 -251 -166 -94 -275 -137 -302 -121
-6 4 -21 36 -33 72 -43 125 -109 209 -245 310 -156 116 -206 168 -254 265 -39
77 -44 95 -49 175 -4 69 -1 99 14 142 21 61 102 177 142 204 78 53 154 82 242
94 63 8 94 5 165 -17z m1154 -109 c8 -7 -30 -16 -44 -10 -27 10 -17 27 13 20
15 -4 29 -8 31 -10z m-2056 -173 c16 -6 29 -23 36 -44 10 -28 8 -41 -7 -78
-12 -27 -30 -49 -46 -57 -26 -11 -26 -11 -26 26 0 28 7 44 25 60 24 21 37 81
15 67 -5 -3 -10 -15 -10 -26 0 -22 -41 -45 -65 -35 -14 5 -14 9 1 38 31 61 36
64 77 49z m-93 -17 c7 -8 -16 -39 -32 -42 -29 -6 -68 17 -68 39 0 20 3 21 48
14 26 -4 49 -9 52 -11z m-16 -79 c8 -21 -17 -29 -51 -18 -43 15 -40 33 5 33
27 0 42 -5 46 -15z m46 -82 c0 -32 4 -76 9 -98 5 -22 12 -78 16 -125 l7 -85
-24 21 c-32 30 -93 47 -140 41 -34 -5 -39 -3 -33 11 4 10 15 53 25 97 23 104
28 115 53 115 28 0 57 28 57 57 0 14 6 23 15 23 12 0 15 -13 15 -57z m-74 37
c27 0 33 -24 8 -34 -23 -9 -37 -7 -58 9 -20 15 -12 40 11 31 8 -3 26 -6 39 -6z
m-69 -336 c-2 -33 1 -38 31 -51 26 -10 32 -11 32 0 0 7 -10 13 -21 14 -27 2
-35 11 -23 23 8 8 89 -12 102 -25 7 -6 -57 -35 -77 -35 -26 0 -81 47 -81 69 0
18 18 41 32 41 4 0 6 -16 5 -36z m117 16 c5 -5 6 -17 2 -27 -5 -12 -9 -14 -14
-6 -4 7 -27 15 -50 19 -27 4 -42 12 -42 21 0 12 9 14 48 8 26 -4 51 -10 56
-15z" id="node2" class="node"></path>
<path d="M1226 1803 c-14 -20 -24 -39 -22 -41 2 -2 22 6 45 17 22 12 47 21 56
21 20 0 19 26 -1 34 -34 13 -54 5 -78 -31z" id="node3" class="node"></path>
<path d="M1633 1808 c-32 -15 -29 -28 7 -28 16 0 41 -5 55 -12 38 -17 44 0 10
28 -33 26 -40 28 -72 12z" id="node4" class="node"></path>
<path d="M1274 1735 c-51 -23 -84 -70 -84 -120 0 -174 179 -288 282 -179 26
27 35 31 46 21 8 -6 45 -11 86 -11 80 0 117 15 165 66 103 110 -79 253 -224
177 -22 -11 -45 -28 -52 -36 -10 -13 -15 -12 -37 13 -14 16 -26 32 -26 36 0
13 -78 48 -102 47 -13 0 -37 -7 -54 -14z m132 -47 c44 -39 74 -105 76 -166 0
-36 -5 -49 -29 -74 -25 -24 -38 -30 -76 -30 -25 0 -55 6 -67 12 -36 19 -79 73
-86 108 -3 18 -10 35 -15 38 -21 12 -8 62 27 102 33 39 39 42 84 42 41 0 55
-5 86 -32z m310 -19 c73 -45 81 -90 28 -148 -43 -48 -114 -68 -183 -52 -24 5
-44 11 -45 13 -1 1 -7 24 -14 51 -21 81 -17 94 36 127 59 37 127 41 178 9z" id="node5" class="node"></path>
<path d="M1422 1573 c2 -10 10 -18 18 -18 8 0 16 8 18 18 2 12 -3 17 -18 17
-15 0 -20 -5 -18 -17z" id="node6" class="node"></path>
<path d="M1500 1585 c0 -8 7 -15 15 -15 8 0 15 7 15 15 0 8 -7 15 -15 15 -8 0
-15 -7 -15 -15z" id="node7" class="node"></path>
<path d="M954 1644 c-19 -15 -19 -15 1 -11 19 4 20 -1 19 -97 -3 -235 65 -459
162 -535 25 -20 35 -21 91 -15 44 4 63 3 63 -5 0 -6 5 -11 11 -11 6 0 9 10 7
23 -2 18 -10 22 -38 23 -28 0 -37 5 -44 25 -12 35 14 125 36 121 11 -2 18 6
20 20 3 20 8 23 43 21 22 -2 108 -3 190 -4 131 -2 156 0 195 18 25 11 57 23
71 26 35 9 189 97 189 108 0 15 -27 10 -41 -8 -29 -35 -197 -104 -298 -122
-101 -19 -107 -18 -297 10 -150 22 -273 117 -324 251 -32 85 -22 158 22 158
19 0 20 2 8 10 -23 15 -64 12 -86 -6z m55 -216 c10 -27 2 -46 -10 -27 -10 15
-12 49 -4 49 3 0 9 -10 14 -22z m56 -116 c-7 -37 -21 -62 -35 -62 -12 0 -31
77 -24 96 14 39 24 44 46 22 16 -16 19 -27 13 -56z m73 -23 c44 -32 53 -53 26
-63 -18 -7 -104 13 -104 24 0 16 22 70 29 70 4 0 26 -14 49 -31z m101 -50 c28
-10 41 -36 25 -51 -7 -7 -64 8 -76 20 -9 9 0 42 12 42 4 0 21 -5 39 -11z m-45
-205 c20 -8 21 -34 1 -34 -20 0 -65 22 -65 32 0 9 41 11 64 2z" id="node8" class="node"></path>
</g>
<g transform="translate(0.000000,300.000000) scale(0.100000,-0.100000)" fill="#62C7FF" stroke="none">

<path d="M2389 2785 c-3 -2 -57 -18 -120 -35 -63 -16 -172 -46 -244 -65 -71
-19 -161 -43 -200 -51 -38 -9 -74 -20 -80 -24 -5 -5 -27 -11 -47 -15 -21 -4
-38 -11 -38 -16 0 -8 67 -148 75 -157 2 -2 43 9 92 24 48 15 94 29 102 31 10
2 12 13 8 37 -6 41 9 58 68 76 22 7 48 16 57 21 26 13 178 24 178 12 0 -5 -13
-8 -29 -5 -32 4 -184 -31 -231 -54 -34 -18 -36 -27 -14 -79 15 -36 17 -37 52
-30 36 7 132 35 202 59 35 12 42 30 26 66 -5 12 2 16 34 16 22 1 46 6 52 11 7
6 25 13 41 17 21 5 27 12 27 35 0 15 7 50 15 77 8 27 15 50 15 52 0 4 -37 2
-41 -3z" id="node10" class="node"></path>
<path d="M2635 2657 c-4 -10 -5 -21 -1 -24 10 -10 18 4 13 24 -4 17 -4 17 -12
0z" id="node11" class="node"></path>
<path d="M216 1991 c-14 -15 -16 -33 -12 -107 2 -49 5 -124 5 -166 1 -64 4
-77 19 -82 9 -2 27 -7 39 -11 31 -8 50 24 67 116 8 41 22 108 30 149 21 98 21
96 -15 109 -51 17 -113 14 -133 -8z" id="node12" class="node"></path>
<path d="M2469 1961 c-47 -47 -53 -78 -6 -34 17 18 45 37 62 43 23 9 26 13 15
20 -23 15 -30 12 -71 -29z" id="node13" class="node"></path>
<path d="M2532 1963 c-8 -3 -32 -23 -55 -44 -56 -52 -78 -57 -151 -29 -89 33
-99 34 -126 11 -20 -16 -23 -23 -14 -38 14 -23 50 -28 80 -13 19 11 27 9 51
-7 15 -11 47 -23 70 -26 43 -5 50 -2 132 58 19 14 43 25 53 25 28 0 58 18 58
35 0 27 -59 44 -98 28z" id="node14" class="node"></path>
<path d="M1100 1920 c-88 -12 -164 -41 -242 -94 -40 -27 -121 -143 -142 -204
-15 -43 -18 -73 -14 -142 5 -80 10 -98 49 -175 48 -97 98 -149 254 -265 136
-101 202 -185 245 -310 12 -36 27 -68 33 -72 27 -16 136 27 302 121 114 64
160 98 339 251 109 93 140 143 201 329 41 123 29 227 -41 348 -31 52 -44 65
-114 104 -100 57 -232 63 -344 16 -75 -32 -114 -61 -118 -89 -3 -20 -8 -16
-45 34 -77 103 -231 166 -363 148z m204 -86 c20 -8 21 -34 1 -34 -9 0 -34 -9
-56 -21 -23 -11 -43 -19 -45 -17 -2 2 8 21 22 41 24 36 44 44 78 31z m401 -38
c34 -28 28 -45 -10 -28 -14 7 -39 12 -55 12 -36 0 -39 13 -7 28 32 16 39 14
72 -12z m-315 -66 c22 -11 40 -24 40 -28 0 -4 12 -20 26 -36 22 -25 27 -26 37
-13 7 8 30 25 52 36 145 76 327 -67 224 -177 -48 -51 -85 -66 -165 -66 -41 0
-78 5 -86 11 -11 10 -20 6 -46 -21 -103 -109 -282 5 -282 179 0 50 33 97 84
120 44 19 71 18 116 -5z m-350 -80 c12 -8 11 -10 -8 -10 -44 0 -54 -73 -22
-158 51 -134 174 -229 324 -251 190 -28 196 -29 297 -10 101 18 269 87 298
122 14 18 41 23 41 8 0 -11 -154 -99 -189 -108 -14 -3 -46 -15 -71 -26 -39
-18 -64 -20 -195 -18 -82 1 -168 2 -190 4 -35 2 -40 -1 -43 -21 -2 -14 -9 -22
-20 -20 -22 4 -48 -86 -36 -121 7 -20 16 -25 44 -25 28 -1 36 -5 38 -23 2 -13
-1 -23 -7 -23 -6 0 -11 5 -11 11 0 8 -19 9 -63 5 -56 -6 -66 -5 -91 15 -97 76
-165 300 -162 535 1 96 0 101 -19 97 -20 -4 -20 -4 -1 11 22 18 63 21 86 6z" id="node15" class="node"></path>
<path d="M1236 1678 c-35 -40 -48 -90 -27 -102 5 -3 12 -20 15 -38 7 -35 50
-89 86 -108 12 -6 42 -12 67 -12 38 0 51 6 76 30 24 25 29 38 29 74 -2 61 -32
127 -76 166 -31 27 -45 32 -86 32 -45 0 -51 -3 -84 -42z m222 -105 c-2 -10
-10 -18 -18 -18 -8 0 -16 8 -18 18 -2 12 3 17 18 17 15 0 20 -5 18 -17z" id="node16" class="node"></path>
<path d="M1538 1660 c-53 -33 -57 -46 -36 -127 7 -27 13 -50 14 -51 1 -2 21
-8 45 -13 69 -16 140 4 183 52 53 58 45 103 -28 148 -51 32 -119 28 -178 -9z
m-8 -75 c0 -8 -7 -15 -15 -15 -8 0 -15 7 -15 15 0 8 7 15 15 15 8 0 15 -7 15
-15z" id="node17" class="node"></path>
<path d="M990 1433 c0 -23 16 -48 23 -37 5 10 -9 54 -18 54 -3 0 -5 -8 -5 -17z" id="node18" class="node"></path>
<path d="M1022 1377 c-19 -25 -22 -50 -11 -88 7 -21 15 -39 19 -39 14 0 28 25
35 62 6 29 3 40 -13 56 -15 15 -23 18 -30 9z" id="node19" class="node"></path>
<path d="M1071 1289 c-16 -45 -16 -45 33 -58 48 -12 76 -7 76 14 0 13 -76 75
-91 75 -4 0 -12 -14 -18 -31z" id="node20" class="node"></path>
<path d="M1186 1233 c-8 -21 2 -31 41 -42 35 -10 43 -6 43 20 0 10 -12 21 -31
28 -42 14 -46 14 -53 -6z" id="node21" class="node"></path>
<path d="M1130 1032 c0 -10 45 -32 65 -32 20 0 19 26 -1 34 -23 9 -64 7 -64
-2z" id="node22" class="node"></path>
<path d="M2360 1800 c0 -15 26 -23 46 -16 20 8 17 11 -18 20 -17 4 -28 2 -28
-4z" id="node23" class="node"></path>
<path d="M312 1618 c-5 -7 -17 -28 -26 -46 -15 -29 -15 -33 -1 -38 24 -10 65
13 65 35 0 11 5 23 10 26 22 14 9 -46 -15 -67 -18 -16 -25 -32 -25 -60 0 -37
0 -37 26 -26 16 8 34 30 46 57 15 37 17 50 7 78 -14 44 -65 68 -87 41z" id="node24" class="node"></path>
<path d="M170 1601 c0 -22 39 -45 68 -39 16 3 39 34 32 42 -3 2 -26 7 -52 11
-45 7 -48 6 -48 -14z" id="node25" class="node"></path>
<path d="M172 1528 c5 -15 54 -32 73 -24 8 3 12 12 9 21 -7 19 -88 22 -82 3z" id="node26" class="node"></path>
<path d="M270 1477 c0 -29 -29 -57 -57 -57 -25 0 -30 -11 -53 -115 -10 -44
-21 -87 -25 -97 -6 -14 -1 -16 33 -11 47 6 108 -11 140 -41 l24 -21 -7 85 c-4
47 -11 103 -16 125 -5 22 -9 66 -9 98 0 44 -3 57 -15 57 -9 0 -15 -9 -15 -23z" id="node27" class="node"></path>
<path d="M165 1480 c-7 -12 21 -39 42 -40 22 0 43 12 43 26 0 8 -10 14 -24 14
-13 0 -31 3 -39 6 -8 3 -18 0 -22 -6z" id="node28" class="node"></path>
<path d="M132 1168 c-7 -7 -12 -20 -12 -29 0 -22 55 -69 81 -69 20 0 84 29 77
35 -13 13 -94 33 -102 25 -12 -12 -4 -21 23 -23 11 -1 21 -7 21 -14 0 -11 -6
-10 -32 0 -30 13 -33 18 -31 51 2 37 -5 44 -25 24z" id="node29" class="node"></path>
<path d="M170 1167 c0 -9 15 -17 42 -21 23 -4 46 -12 50 -19 5 -8 9 -6 14 6 9
25 -3 34 -58 42 -39 6 -48 4 -48 -8z" id="node30" class="node"></path>
</g>
</svg>