<!--?xml version="1.0" standalone="no"?--><svg version="1.0" xmlns="http://www.w3.org/2000/svg" width="300.000000pt" height="222.000000pt" viewBox="0 0 300.000000 222.000000" preserveAspectRatio="xMidYMid meet">
<metadata>
  <rdf:rdf xmlns:rdf="http://www.w3.org/1999/02/22-rdf-syntax-ns#" xmlns:rdfs="http://www.w3.org/2000/01/rdf-schema#" xmlns:dc="http://purl.org/dc/elements/1.1/">
    <rdf:description dc:title="hand fix heart" dc:publisher="Hiox" dc:date="2015-05-04" dc:format="image/svg+xml" dc:language="en">
      <dc:creator>
        <rdf:bag>
          <rdf:li>svgimages.com</rdf:li>
        </rdf:bag>
      </dc:creator>
    </rdf:description>
  </rdf:rdf>
</metadata>
<g transform="translate(0.000000,222.000000) scale(0.100000,-0.100000)" fill="#212121" stroke="none">
<path d="M825 2200 c-36 -23 -38 -26 -180 -235 -203 -300 -287 -399 -376 -447
-33 -17 -81 -54 -106 -82 -48 -53 -153 -208 -153 -226 0 -23 20 -6 55 48 75
113 136 181 194 216 31 19 82 61 112 93 53 55 165 203 220 288 121 188 182
274 209 294 64 46 177 37 279 -23 84 -49 122 -58 245 -61 132 -2 141 -6 248
-103 42 -39 98 -83 125 -98 86 -49 131 -104 85 -104 -27 0 -173 90 -232 143
-40 36 -63 48 -108 57 -184 39 -276 65 -363 105 -107 50 -152 56 -193 24 -36
-28 -23 -42 20 -22 34 17 35 16 137 -25 90 -36 252 -78 372 -97 76 -12 85 -16
133 -58 61 -55 181 -129 247 -153 37 -14 75 -43 148 -113 53 -52 97 -102 97
-112 0 -27 -44 -53 -77 -44 -16 3 -61 22 -101 42 -60 29 -74 41 -79 64 -5 28
-6 28 -34 14 -15 -8 -37 -15 -48 -15 -50 0 -269 92 -287 121 -3 5 4 23 16 39
25 35 15 38 -33 10 -48 -29 -180 -43 -318 -35 -102 5 -119 4 -134 -11 -25 -26
-35 -59 -35 -120 0 -47 4 -59 28 -81 15 -14 51 -37 81 -51 50 -23 61 -24 150
-18 53 4 149 16 214 27 65 11 132 19 150 18 18 0 59 4 92 10 59 11 183 5 198
-9 4 -4 -10 -19 -33 -34 -22 -14 -40 -30 -40 -34 0 -5 11 -23 25 -42 14 -19
25 -37 25 -42 0 -11 -46 -33 -120 -58 l-64 -22 -17 21 c-17 20 -17 20 -22 1
-6 -22 -37 -28 -37 -7 -1 7 -6 4 -15 -6 -16 -23 -71 -36 -144 -37 -41 0 -64
-6 -90 -24 -98 -65 -149 -96 -158 -96 -5 0 -40 -20 -77 -45 -38 -25 -78 -45
-90 -45 -12 0 -66 -16 -121 -36 -55 -19 -154 -49 -219 -65 -65 -17 -146 -44
-180 -61 -79 -40 -283 -181 -268 -186 6 -2 62 27 124 64 127 75 264 144 288
144 18 0 238 60 372 101 56 18 112 42 133 59 37 29 250 138 289 147 11 2 46 6
76 9 30 2 86 12 125 23 38 11 71 19 72 17 2 -1 -2 -29 -8 -63 -24 -134 21
-239 154 -363 214 -200 311 -315 443 -528 38 -61 71 -112 74 -112 3 0 32 46
65 101 112 187 239 340 420 506 176 159 227 290 175 444 -38 113 -88 171 -185
216 -51 24 -73 28 -145 27 -70 0 -95 -5 -142 -26 -80 -37 -118 -69 -153 -127
-16 -28 -33 -51 -36 -51 -4 0 -12 13 -18 28 -19 46 -97 118 -156 143 -40 18
-55 29 -55 44 0 11 -8 32 -18 46 -34 51 -156 188 -178 200 -13 6 -28 26 -34
43 -11 33 -67 96 -84 96 -16 0 -117 78 -205 157 -42 38 -83 73 -91 78 -8 5
-76 12 -153 15 l-138 7 -122 62 c-136 68 -186 77 -242 41z m553 -530 c68 -37
254 -125 287 -134 39 -12 37 -12 -102 -35 -78 -13 -147 -20 -153 -16 -7 4 -10
19 -7 34 7 36 -4 53 -63 95 -27 20 -50 40 -50 45 0 18 61 26 88 11z m-314 -66
c39 -37 88 -78 109 -92 41 -28 45 -37 20 -50 -50 -26 -165 -19 -148 8 3 5 -1
10 -9 10 -26 0 -29 21 -6 45 35 38 14 50 -26 15 -19 -16 -37 -30 -39 -30 -9 0
-35 60 -35 81 0 19 44 79 58 79 2 0 36 -30 76 -66z m187 40 c8 -9 32 -28 54
-41 54 -34 65 -50 65 -94 0 -35 -3 -39 -34 -44 -73 -14 -87 -3 -70 53 6 22 5
23 -27 17 -31 -6 -40 -1 -91 45 -79 70 -77 80 16 80 56 0 77 -4 87 -16z m713
-220 c9 -8 16 -21 16 -29 0 -23 -58 -63 -102 -70 -38 -7 -44 -5 -65 19 -27 31
-29 49 -9 65 37 31 135 40 160 15z m828 -32 c127 -56 202 -206 169 -337 -28
-112 -57 -153 -231 -325 -166 -165 -256 -272 -344 -407 -25 -40 -50 -74 -54
-77 -4 -2 -33 37 -65 88 -87 143 -202 290 -291 374 -190 182 -216 211 -246
274 -24 51 -30 76 -30 133 0 69 17 115 42 115 5 0 32 11 60 25 27 14 75 32
106 41 57 17 112 60 112 88 0 26 43 28 103 6 66 -25 146 -107 173 -177 9 -24
19 -43 23 -43 3 1 17 24 31 51 29 60 88 122 144 152 94 48 215 56 298 19z" id="node1" class="node"></path>
<path d="M1080 1480 l-25 -8 25 -1 c14 0 32 4 40 9 13 9 13 10 0 9 -8 -1 -26
-5 -40 -9z" id="node2" class="node"></path>

</g>
<g transform="translate(0.000000,222.000000) scale(0.100000,-0.100000)" fill="#A6A6A6" stroke="none">






<path d="M2590 1407 c-110 -26 -194 -91 -240 -186 -14 -27 -28 -50 -31 -51 -4
0 -14 19 -23 43 -27 70 -107 152 -173 177 -60 22 -103 20 -103 -6 0 -28 -55
-71 -112 -88 -31 -9 -79 -27 -106 -41 -28 -14 -55 -25 -60 -25 -25 0 -42 -46
-42 -115 0 -57 6 -82 30 -133 30 -63 56 -92 246 -274 89 -84 204 -231 291
-374 32 -51 61 -90 65 -88 4 3 29 37 54 77 88 135 178 242 344 407 133 131
172 177 193 222 57 124 60 207 12 303 -65 128 -198 186 -345 152z" id="node10" class="node"></path>
</g>
</svg>