<!--?xml version="1.0" standalone="no"?-->

<svg xmlns="http://www.w3.org/2000/svg" width="300.000000pt" height="300.000000pt" viewBox="0 0 300.000000 300.000000" preserveAspectRatio="xMidYMid meet">
<g transform="translate(0.000000,300.000000) scale(0.100000,-0.100000)" fill="#AB3D38" stroke="none">
<path style="position: relative;" d="M1502 2514 c-129 -34 -217 -119 -265 -257 -18 -50 -22 -83 -21 -172
1 -95 5 -122 31 -195 16 -47 33 -93 37 -103 8 -16 0 -17 -85 -15 -110 3 -149
-11 -258 -90 -61 -45 -163 -103 -301 -173 -52 -26 -157 -72 -495 -217 l-140
-60 -3 -396 c-1 -218 1 -396 5 -396 7 0 135 82 218 140 17 11 50 33 75 49 25
16 112 72 194 125 82 54 187 122 233 152 269 176 370 177 631 7 115 -75 158
-92 259 -104 50 -5 116 -21 153 -36 96 -38 123 -36 230 20 51 27 126 60 168
73 43 14 93 34 113 45 20 10 47 19 59 19 13 0 39 4 59 10 20 5 48 11 62 14 30
7 61 60 53 92 -4 15 24 40 152 129 86 61 179 127 206 148 54 42 82 93 72 131
-4 17 0 32 15 47 26 28 27 60 2 90 -33 41 -120 30 -278 -34 -35 -14 -63 -22
-63 -17 0 10 147 67 213 82 42 10 47 14 47 38 0 40 -25 55 -86 54 l-52 -2 23
42 c46 84 77 196 82 301 6 112 -5 183 -42 260 -76 161 -230 232 -445 207 -99
-12 -244 -53 -268 -77 -8 -7 -16 -39 -19 -72 -5 -55 -2 -68 30 -136 63 -130
62 -125 23 -163 l-35 -34 -40 42 c-25 27 -36 47 -31 52 6 6 -6 38 -30 82 -43
79 -48 114 -25 179 18 51 12 58 -83 89 -146 48 -277 58 -380 30z m263 -91 c14
-8 10 -11 -25 -16 -57 -7 -148 -55 -177 -94 -45 -59 -65 -129 -67 -237 -2 -85
-5 -100 -22 -113 -73 -53 -136 64 -121 226 10 111 88 206 197 242 32 11 192 5
215 -8z m52 -269 c8 -21 -13 -42 -28 -27 -13 13 -5 43 11 43 6 0 13 -7 17 -16z
m101 -1 c5 -18 -28 -29 -38 -12 -5 7 -6 17 -3 22 7 12 35 5 41 -10z m382 -13
c0 -21 -24 -28 -35 -10 -8 14 3 30 21 30 8 0 14 -9 14 -20z m98 -3 c2 -12 -3
-17 -17 -17 -15 0 -21 6 -21 21 0 25 33 22 38 -4z m-535 -23 c9 -9 -4 -34 -18
-34 -14 0 -27 25 -18 34 4 3 12 6 18 6 6 0 14 -3 18 -6z m95 -11 c-2 -10 -10
-18 -18 -18 -8 0 -16 8 -18 18 -2 12 3 17 18 17 15 0 20 -5 18 -17z m288 -18
c-5 -14 -9 -15 -21 -5 -12 10 -13 16 -4 27 15 18 34 1 25 -22z m104 4 c0 -20
-24 -26 -35 -9 -8 13 14 42 26 34 5 -3 9 -14 9 -25z m-343 -25 c8 -20 -8 -36
-26 -25 -15 10 -8 41 9 41 6 0 13 -7 17 -16z m-197 -14 c0 -21 -24 -28 -35
-10 -8 14 3 30 21 30 8 0 14 -9 14 -20z m107 4 c5 -15 -28 -27 -40 -15 -5 5
-6 14 -2 21 8 13 37 9 42 -6z m284 -17 c-5 -5 -17 -7 -26 -3 -14 5 -15 9 -5
21 10 12 16 13 27 4 9 -8 10 -16 4 -22z m98 -3 c-9 -11 -15 -12 -25 -3 -11 9
-12 15 -3 25 9 11 15 12 25 3 11 -9 12 -15 3 -25z m101 5 c0 -20 -24 -26 -35
-9 -8 13 14 42 26 34 5 -3 9 -14 9 -25z m-337 -15 c5 -5 -28 -44 -38 -44 -7 0
-6 36 2 43 8 9 28 9 36 1z m-203 -18 c0 -20 -19 -31 -32 -18 -6 6 -7 15 -4 21
10 16 36 13 36 -3z m98 -3 c-2 -10 -10 -18 -18 -18 -8 0 -16 8 -18 18 -2 12 3
17 18 17 15 0 20 -5 18 -17z m199 2 c9 -25 -2 -27 -22 -5 -17 18 -17 20 -1 20
9 0 19 -7 23 -15z m97 -16 c-7 -13 -31 -11 -40 2 -9 16 18 30 33 17 7 -6 10
-14 7 -19z m99 14 c9 -9 -13 -34 -24 -27 -14 8 -11 34 4 34 8 0 17 -3 20 -7z
m-343 -42 c0 -10 -22 -31 -32 -31 -9 0 -11 34 -2 43 7 7 34 -2 34 -12z m95 -2
c0 -7 -8 -15 -17 -17 -18 -3 -25 18 -11 32 10 10 28 1 28 -15z m-195 -2 c0
-19 -10 -27 -26 -20 -21 8 -17 33 6 33 11 0 20 -6 20 -13z m299 -13 c3 -16 1
-17 -13 -5 -19 16 -21 34 -3 29 6 -3 14 -13 16 -24z m101 9 c0 -17 -19 -35
-29 -29 -18 12 -12 36 9 36 11 0 20 -3 20 -7z m-356 -32 c3 -4 -3 -16 -14 -26
-19 -17 -20 -17 -20 2 0 29 22 45 34 24z m101 -1 c10 -16 -16 -43 -28 -31 -11
11 -2 41 12 41 5 0 13 -5 16 -10z m100 -10 c0 -8 -8 -16 -17 -18 -13 -2 -18 3
-18 18 0 15 5 20 18 18 9 -2 17 -10 17 -18z m102 -5 c9 -25 -2 -27 -22 -5 -17
18 -17 20 -1 20 9 0 19 -7 23 -15z m-252 -45 c0 -8 -8 -16 -17 -18 -13 -2 -18
3 -18 18 0 15 5 20 18 18 9 -2 17 -10 17 -18z m100 0 c0 -8 -8 -16 -17 -18
-13 -2 -18 3 -18 18 0 15 5 20 18 18 9 -2 17 -10 17 -18z m98 14 c9 -10 -4
-34 -18 -34 -17 0 -28 17 -20 30 7 11 28 13 38 4z m-293 -14 c0 -5 -5 -10 -11
-10 -5 0 -7 5 -4 10 3 6 8 10 11 10 2 0 4 -4 4 -10z m380 0 c0 -5 -4 -10 -10
-10 -5 0 -10 5 -10 10 0 6 5 10 10 10 6 0 10 -4 10 -10z m-329 -68 c-20 -7
-34 4 -36 26 l-2 22 24 -22 c13 -12 19 -24 14 -26z m289 19 c-6 -12 -15 -21
-21 -21 -5 0 -2 11 8 24 21 28 29 27 13 -3z m-200 -1 c0 -11 -7 -20 -15 -20
-8 0 -15 9 -15 20 0 11 7 20 15 20 8 0 15 -9 15 -20z m108 3 c5 -18 -28 -29
-38 -12 -5 7 -6 17 -3 22 7 12 35 5 41 -10z m140 -46 c2 -12 -3 -17 -17 -17
-23 0 -24 1 -15 25 8 19 28 15 32 -8z m-389 -23 c-9 -11 -15 -12 -25 -3 -11 9
-12 15 -3 25 9 11 15 12 25 3 11 -9 12 -15 3 -25z m111 -6 c0 -4 -9 -8 -19 -8
-21 0 -31 17 -23 38 3 10 9 9 23 -4 11 -9 19 -21 19 -26z m83 36 c9 -10 -4
-34 -18 -34 -17 0 -28 17 -20 30 7 11 28 13 38 4z m92 -23 c-3 -6 -11 -11 -17
-11 -6 0 -6 6 2 15 14 17 26 13 15 -4z m152 -27 c8 -20 -8 -36 -26 -25 -15 10
-8 41 9 41 6 0 13 -7 17 -16z m-1018 -24 c9 -14 37 -53 64 -88 26 -35 47 -64
47 -66 0 -2 -22 3 -48 9 -27 7 -82 16 -124 20 -96 9 -168 -15 -262 -88 -36
-29 -77 -60 -92 -70 -14 -11 -23 -21 -21 -24 6 -5 49 15 57 27 9 12 104 59
165 81 92 34 252 31 360 -6 93 -32 146 -70 233 -165 74 -81 106 -103 198 -131
61 -19 83 -21 189 -15 140 7 259 -5 314 -34 22 -11 42 -23 44 -27 3 -5 -26 -8
-63 -8 -85 0 -110 -18 -110 -79 0 -52 10 -66 51 -76 27 -6 19 -8 -42 -9 -41
-1 -100 -8 -129 -17 -49 -15 -61 -15 -130 -1 -41 9 -131 18 -200 21 -77 3
-143 12 -170 21 -31 12 -62 15 -100 11 -38 -4 -50 -3 -40 4 8 5 23 10 32 10
22 0 34 20 18 30 -7 4 -40 11 -74 14 -241 26 -366 58 -457 117 -38 24 -49 38
-59 74 -7 25 -16 45 -19 45 -4 0 -33 -32 -66 -71 -82 -97 -163 -162 -264 -215
-104 -53 -154 -82 -246 -142 -91 -60 -132 -83 -238 -137 -142 -72 -127 -92
-127 169 l0 224 68 41 c37 22 150 81 252 131 102 50 192 95 200 101 8 5 24 13
36 18 29 13 351 197 399 229 22 14 51 36 65 48 52 47 79 55 179 52 87 -3 95
-5 110 -28z m538 14 c8 -21 -13 -42 -28 -27 -13 13 -5 43 11 43 6 0 13 -7 17
-16z m91 -21 c-10 -12 -14 -12 -27 2 -14 14 -14 17 -1 25 21 13 44 -8 28 -27z
m100 -5 c-22 -13 -28 -9 -28 19 0 26 0 26 20 8 16 -14 17 -20 8 -27z m89 15
c-9 -9 -20 -14 -24 -10 -3 4 2 14 13 21 25 19 33 10 11 -11z m101 10 c-2 -10
-10 -18 -18 -18 -8 0 -16 8 -18 18 -2 12 3 17 18 17 15 0 20 -5 18 -17z m-51
-39 c8 -21 -13 -42 -28 -27 -13 13 -5 43 11 43 6 0 13 -7 17 -16z m100 0 c8
-20 -8 -36 -26 -25 -15 10 -8 41 9 41 6 0 13 -7 17 -16z m98 -5 c0 -7 -8 -15
-17 -17 -18 -3 -25 18 -11 32 10 10 28 1 28 -15z m-580 -10 c0 -7 -8 -15 -17
-17 -18 -3 -25 18 -11 32 10 10 28 1 28 -15z m103 -2 c2 -12 -3 -17 -17 -17
-12 0 -21 6 -21 13 0 31 32 34 38 4z m96 8 c3 -9 -1 -18 -10 -22 -19 -7 -28 2
-21 22 8 19 23 19 31 0z m141 -54 c33 -36 46 -54 29 -38 -29 26 -31 27 -46 10
-9 -10 -26 -38 -39 -63 -19 -38 -22 -57 -19 -120 5 -112 2 -157 -12 -182 -11
-21 -13 -16 -20 52 -3 42 -14 96 -22 120 -21 59 -20 89 3 156 11 30 18 61 15
69 -3 7 4 18 15 25 12 6 21 17 21 25 0 25 12 16 75 -54z m93 6 c2 -12 -3 -17
-17 -17 -12 0 -21 6 -21 13 0 31 32 34 38 4z m97 2 c0 -7 -8 -15 -17 -17 -18
-3 -25 18 -11 32 10 10 28 1 28 -15z m-475 -8 c0 -19 -23 -35 -34 -24 -14 15
-5 43 14 43 13 0 20 -7 20 -19z m97 3 c8 -20 -8 -36 -26 -25 -15 10 -8 41 9
41 6 0 13 -7 17 -16z m-217 -24 c0 -5 -2 -10 -4 -10 -3 0 -8 5 -11 10 -3 6 -1
10 4 10 6 0 11 -4 11 -10z m280 6 c0 -2 -7 -7 -16 -10 -8 -3 -12 -2 -9 4 6 10
25 14 25 6z m357 -12 c7 -20 -8 -36 -25 -25 -14 8 -6 41 9 41 5 0 12 -7 16
-16z m-92 -14 c0 -8 -8 -16 -17 -18 -13 -2 -18 3 -18 18 0 15 5 20 18 18 9 -2
17 -10 17 -18z m-469 -1 c9 -16 -18 -30 -33 -17 -7 6 -13 14 -13 19 0 13 38
11 46 -2z m94 -14 c0 -25 -23 -35 -35 -15 -10 16 2 40 20 40 9 0 15 -9 15 -25z
m-155 5 c3 -5 1 -10 -4 -10 -6 0 -11 5 -11 10 0 6 2 10 4 10 3 0 8 -4 11 -10z
m155 -60 c0 -5 -20 -10 -45 -10 -25 0 -45 5 -45 10 0 6 20 10 45 10 25 0 45
-4 45 -10z m987 -11 c39 -33 3 -73 -172 -187 -289 -189 -265 -175 -283 -159
-26 23 -79 47 -102 47 -11 0 -20 4 -20 10 0 13 102 93 160 127 25 15 91 55
148 89 143 88 224 110 269 73z m-449 -407 c18 -24 15 -82 -5 -98 -26 -20 -122
-18 -145 3 -32 29 -20 86 24 109 26 14 111 5 126 -14z m29 -24 c-3 -8 -6 -5
-6 6 -1 11 2 17 5 13 3 -3 4 -12 1 -19z m0 -60 c-3 -8 -6 -5 -6 6 -1 11 2 17
5 13 3 -3 4 -12 1 -19z m-892 -106 c44 -12 118 -35 165 -52 84 -30 127 -33
169 -10 51 28 116 48 172 54 l64 6 -51 -19 c-28 -10 -85 -35 -126 -55 -89 -43
-124 -45 -213 -11 -36 13 -101 29 -143 35 -99 12 -138 24 -187 55 l-40 26 55
-4 c30 -3 91 -14 135 -25z m622 12 c-3 -3 -12 -4 -19 -1 -8 3 -5 6 6 6 11 1
17 -2 13 -5z" id="node1" class="node"></path>
</g>
<g transform="translate(0.000000,300.000000) scale(0.100000,-0.100000)" fill="#F2AB3E" stroke="none">

<path style="position: relative;" d="M1550 2431 c-72 -23 -139 -82 -176 -152 -20 -40 -29 -128 -20 -202
13 -98 69 -151 120 -114 17 13 20 28 22 113 2 108 22 178 67 237 29 39 120 87
177 94 35 5 39 8 25 16 -23 13 -183 19 -215 8z" id="node3" class="node"></path>
<path style="position: relative;" d="M1783 2154 c-8 -21 13 -42 28 -27 13 13 5 43 -11 43 -6 0 -13 -7 -17
-16z" id="node4" class="node"></path>
<path style="position: relative;" d="M1877 2163 c-3 -5 -2 -15 3 -22 10 -17 43 -6 38 12 -6 15 -34 22 -41
10z" id="node5" class="node"></path>
<path style="position: relative;" d="M2265 2150 c-8 -14 3 -30 21 -30 8 0 14 9 14 20 0 21 -24 28 -35 10z" id="node6" class="node"></path>
<path style="position: relative;" d="M2360 2141 c0 -15 6 -21 21 -21 25 0 22 33 -4 38 -12 2 -17 -3 -17
-17z" id="node7" class="node"></path>
<path style="position: relative;" d="M1827 2114 c-9 -9 4 -34 18 -34 14 0 27 25 18 34 -4 3 -12 6 -18 6
-6 0 -14 -3 -18 -6z" id="node8" class="node"></path>
<path style="position: relative;" d="M1922 2103 c2 -10 10 -18 18 -18 8 0 16 8 18 18 2 12 -3 17 -18 17
-15 0 -20 -5 -18 -17z" id="node9" class="node"></path>
<path style="position: relative;" d="M2221 2107 c-9 -11 -8 -17 4 -27 12 -10 16 -9 21 5 9 23 -10 40 -25
22z" id="node10" class="node"></path>
<path style="position: relative;" d="M2320 2105 c-14 -16 -5 -35 16 -35 15 0 20 35 5 44 -5 3 -14 -1 -21
-9z" id="node11" class="node"></path>
<path style="position: relative;" d="M1973 2064 c-7 -18 17 -38 31 -24 11 11 1 40 -14 40 -6 0 -13 -7 -17
-16z" id="node12" class="node"></path>
<path style="position: relative;" d="M1775 2060 c-8 -14 3 -30 21 -30 8 0 14 9 14 20 0 21 -24 28 -35 10z" id="node13" class="node"></path>
<path style="position: relative;" d="M1875 2060 c-4 -7 -3 -16 2 -21 12 -12 45 0 40 15 -5 15 -34 19 -42
6z" id="node14" class="node"></path>
<path style="position: relative;" d="M2170 2055 c-10 -12 -9 -16 5 -21 23 -9 40 10 22 25 -11 9 -17 8 -27
-4z" id="node15" class="node"></path>
<path style="position: relative;" d="M2271 2056 c-9 -10 -8 -16 3 -25 10 -9 16 -8 25 3 9 10 8 16 -3 25
-10 9 -16 8 -25 -3z" id="node16" class="node"></path>
<path style="position: relative;" d="M2370 2055 c-14 -16 -5 -35 16 -35 15 0 20 35 5 44 -5 3 -14 -1 -21
-9z" id="node17" class="node"></path>
<path style="position: relative;" d="M2027 2023 c-8 -7 -9 -43 -2 -43 10 0 43 39 38 44 -8 8 -28 8 -36 -1z" id="node18" class="node"></path>
<path style="position: relative;" d="M1824 2009 c-3 -6 -2 -15 4 -21 13 -13 32 -2 32 18 0 16 -26 19 -36
3z" id="node19" class="node"></path>
<path style="position: relative;" d="M1922 2003 c2 -10 10 -18 18 -18 8 0 16 8 18 18 2 12 -3 17 -18 17
-15 0 -20 -5 -18 -17z" id="node20" class="node"></path>
<path style="position: relative;" d="M2135 2000 c20 -22 31 -20 22 5 -4 8 -14 15 -23 15 -16 0 -16 -2 1
-20z" id="node21" class="node"></path>
<path style="position: relative;" d="M2221 2011 c-8 -5 -10 -14 -7 -20 9 -13 33 -15 40 -2 9 14 -18 31
-33 22z" id="node22" class="node"></path>
<path style="position: relative;" d="M2320 1996 c0 -8 4 -17 9 -20 11 -7 33 18 24 27 -12 12 -33 7 -33 -7z" id="node23" class="node"></path>
<path style="position: relative;" d="M1976 1973 c-9 -9 -7 -43 2 -43 10 0 32 21 32 31 0 10 -27 19 -34 12z" id="node24" class="node"></path>
<path style="position: relative;" d="M2077 1974 c-14 -14 -7 -35 11 -32 9 2 17 10 17 17 0 16 -18 25 -28
15z" id="node25" class="node"></path>
<path style="position: relative;" d="M1870 1956 c0 -15 24 -28 34 -19 13 14 5 33 -14 33 -11 0 -20 -6 -20
-14z" id="node26" class="node"></path>
<path style="position: relative;" d="M2180 1962 c0 -5 7 -16 16 -23 14 -12 16 -11 13 5 -4 20 -29 35 -29
18z" id="node27" class="node"></path>
<path style="position: relative;" d="M2270 1946 c0 -21 21 -31 31 -15 14 22 11 29 -11 29 -11 0 -20 -6
-20 -14z" id="node28" class="node"></path>
<path style="position: relative;" d="M1927 1923 c-4 -3 -7 -15 -7 -26 0 -19 1 -19 20 -2 11 10 17 22 14
26 -6 11 -18 12 -27 2z" id="node29" class="node"></path>
<path style="position: relative;" d="M2023 1914 c-9 -23 11 -38 26 -20 13 16 7 36 -10 36 -5 0 -12 -7 -16
-16z" id="node30" class="node"></path>
<path style="position: relative;" d="M2120 1910 c0 -15 5 -20 18 -18 9 2 17 10 17 18 0 8 -8 16 -17 18
-13 2 -18 -3 -18 -18z" id="node31" class="node"></path>
<path style="position: relative;" d="M2235 1900 c20 -22 31 -20 22 5 -4 8 -14 15 -23 15 -16 0 -16 -2 1
-20z" id="node32" class="node"></path>
<path style="position: relative;" d="M1970 1860 c0 -15 5 -20 18 -18 9 2 17 10 17 18 0 8 -8 16 -17 18
-13 2 -18 -3 -18 -18z" id="node33" class="node"></path>
<path style="position: relative;" d="M2070 1860 c0 -15 5 -20 18 -18 9 2 17 10 17 18 0 8 -8 16 -17 18
-13 2 -18 -3 -18 -18z" id="node34" class="node"></path>
<path style="position: relative;" d="M2165 1870 c-8 -13 3 -30 20 -30 14 0 27 24 18 34 -10 9 -31 7 -38
-4z" id="node35" class="node"></path>
<path style="position: relative;" d="M1895 1860 c-3 -5 -1 -10 4 -10 6 0 11 5 11 10 0 6 -2 10 -4 10 -3 0
-8 -4 -11 -10z" id="node36" class="node"></path>
<path style="position: relative;" d="M2270 1860 c0 -5 5 -10 10 -10 6 0 10 5 10 10 0 6 -4 10 -10 10 -5 0
-10 -4 -10 -10z" id="node37" class="node"></path>
<path style="position: relative;" d="M1925 1818 c2 -22 16 -33 36 -26 5 2 -1 14 -14 26 l-24 22 2 -22z" id="node38" class="node"></path>
<path style="position: relative;" d="M2237 1814 c-10 -13 -13 -24 -8 -24 10 0 36 39 29 45 -2 2 -11 -8
-21 -21z" id="node39" class="node"></path>
<path style="position: relative;" d="M2020 1810 c0 -11 7 -20 15 -20 8 0 15 9 15 20 0 11 -7 20 -15 20 -8
0 -15 -9 -15 -20z" id="node40" class="node"></path>
<path style="position: relative;" d="M2117 1823 c-3 -5 -2 -15 3 -22 10 -17 43 -6 38 12 -6 15 -34 22 -41
10z" id="node41" class="node"></path>
<path style="position: relative;" d="M2266 1775 c-9 -24 -8 -25 15 -25 14 0 19 5 17 17 -4 23 -24 27 -32
8z" id="node42" class="node"></path>
<path style="position: relative;" d="M1881 1766 c-9 -10 -8 -16 3 -25 10 -9 16 -8 25 3 9 10 8 16 -3 25
-10 9 -16 8 -25 -3z" id="node43" class="node"></path>
<path style="position: relative;" d="M1978 1768 c-8 -21 2 -38 23 -38 24 0 24 12 0 34 -14 13 -20 14 -23
4z" id="node44" class="node"></path>
<path style="position: relative;" d="M2065 1770 c-8 -13 3 -30 20 -30 14 0 27 24 18 34 -10 9 -31 7 -38
-4z" id="node45" class="node"></path>
<path style="position: relative;" d="M2180 1755 c-8 -9 -8 -15 -2 -15 12 0 26 19 19 26 -2 2 -10 -2 -17
-11z" id="node46" class="node"></path>
<path style="position: relative;" d="M2313 1724 c-7 -18 17 -38 31 -24 11 11 1 40 -14 40 -6 0 -13 -7 -17
-16z" id="node47" class="node"></path>
<path style="position: relative;" d="M1095 1715 c-16 -9 -41 -26 -55 -39 -14 -12 -43 -34 -65 -48 -48 -32
-370 -216 -399 -229 -12 -5 -28 -13 -36 -18 -8 -6 -98 -51 -200 -101 -102 -50
-215 -109 -252 -131 l-68 -41 0 -224 c0 -261 -15 -241 127 -169 106 54 147 77
238 137 92 60 142 89 246 142 101 53 182 118 264 215 33 39 62 71 66 71 3 0
12 -20 19 -45 10 -36 21 -50 59 -74 91 -59 216 -91 457 -117 34 -3 67 -10 74
-14 16 -10 4 -30 -18 -30 -9 0 -24 -5 -32 -10 -10 -7 2 -8 40 -4 38 4 69 1
100 -11 27 -9 93 -18 170 -21 69 -3 159 -12 200 -21 69 -14 81 -14 130 1 29 9
88 16 129 17 61 1 69 3 42 9 -41 10 -51 24 -51 76 0 61 25 79 110 79 37 0 66
3 63 8 -2 4 -22 16 -44 27 -55 29 -174 41 -314 34 -106 -6 -128 -4 -189 15
-92 28 -124 50 -198 131 -87 95 -140 133 -233 165 -108 37 -268 40 -360 6 -61
-22 -156 -69 -165 -81 -8 -12 -51 -32 -57 -27 -2 3 7 13 21 24 15 10 56 41 92
70 94 73 166 97 262 88 42 -4 97 -13 124 -20 26 -6 48 -11 48 -9 0 2 -21 31
-47 66 -27 35 -55 74 -64 88 -15 23 -23 25 -110 28 -72 2 -101 -1 -124 -13z" id="node48" class="node"></path>
<path style="position: relative;" d="M1833 1714 c-8 -21 13 -42 28 -27 13 13 5 43 -11 43 -6 0 -13 -7 -17
-16z" id="node49" class="node"></path>
<path style="position: relative;" d="M1930 1720 c-13 -8 -13 -11 1 -25 13 -14 17 -14 27 -2 16 19 -7 40
-28 27z" id="node50" class="node"></path>
<path style="position: relative;" d="M2030 1707 c0 -28 6 -32 28 -19 9 7 8 13 -8 27 -20 18 -20 18 -20 -8z" id="node51" class="node"></path>
<path style="position: relative;" d="M2136 1714 c-11 -7 -16 -17 -13 -21 4 -4 15 1 24 10 22 21 14 30 -11
11z" id="node52" class="node"></path>
<path style="position: relative;" d="M2212 1713 c2 -10 10 -18 18 -18 8 0 16 8 18 18 2 12 -3 17 -18 17
-15 0 -20 -5 -18 -17z" id="node53" class="node"></path>
<path style="position: relative;" d="M2163 1674 c-8 -21 13 -42 28 -27 13 13 5 43 -11 43 -6 0 -13 -7 -17
-16z" id="node54" class="node"></path>
<path style="position: relative;" d="M2263 1674 c-7 -18 17 -38 31 -24 11 11 1 40 -14 40 -6 0 -13 -7 -17
-16z" id="node55" class="node"></path>
<path style="position: relative;" d="M2367 1684 c-14 -14 -7 -35 11 -32 9 2 17 10 17 17 0 16 -18 25 -28
15z" id="node56" class="node"></path>
<path style="position: relative;" d="M1787 1674 c-14 -14 -7 -35 11 -32 9 2 17 10 17 17 0 16 -18 25 -28
15z" id="node57" class="node"></path>
<path style="position: relative;" d="M1887 1674 c-14 -15 -6 -34 14 -34 14 0 19 5 17 17 -3 18 -20 27 -31
17z" id="node58" class="node"></path>
<path style="position: relative;" d="M1983 1665 c-7 -20 2 -29 21 -22 9 4 13 13 10 22 -8 19 -23 19 -31 0z" id="node59" class="node"></path>
<path style="position: relative;" d="M2080 1665 c0 -8 -9 -19 -21 -25 -11 -7 -18 -18 -15 -25 3 -8 -4 -39
-15 -69 -23 -67 -24 -97 -3 -156 8 -24 19 -78 22 -120 7 -68 9 -73 20 -52 14
25 17 70 12 182 -3 63 0 82 19 120 13 25 30 53 39 63 15 17 17 16 46 -10 17
-16 4 2 -29 38 -63 70 -75 79 -75 54z" id="node60" class="node"></path>
<path style="position: relative;" d="M2217 1634 c-14 -15 -6 -34 14 -34 14 0 19 5 17 17 -3 18 -20 27 -31
17z" id="node61" class="node"></path>
<path style="position: relative;" d="M2317 1634 c-14 -14 -7 -35 11 -32 9 2 17 10 17 17 0 16 -18 25 -28
15z" id="node62" class="node"></path>
<path style="position: relative;" d="M1830 1612 c0 -24 8 -32 26 -25 22 8 17 43 -6 43 -13 0 -20 -7 -20
-18z" id="node63" class="node"></path>
<path style="position: relative;" d="M1933 1614 c-7 -18 17 -38 31 -24 11 11 1 40 -14 40 -6 0 -13 -7 -17
-16z" id="node64" class="node"></path>
<path style="position: relative;" d="M1735 1590 c3 -5 8 -10 11 -10 2 0 4 5 4 10 0 6 -5 10 -11 10 -5 0
-7 -4 -4 -10z" id="node65" class="node"></path>
<path style="position: relative;" d="M2005 1590 c-3 -6 1 -7 9 -4 18 7 21 14 7 14 -6 0 -13 -4 -16 -10z" id="node66" class="node"></path>
<path style="position: relative;" d="M2356 1583 c-8 -19 14 -37 28 -23 10 10 1 40 -13 40 -5 0 -12 -8 -15
-17z" id="node67" class="node"></path>
<path style="position: relative;" d="M2260 1570 c0 -15 5 -20 18 -18 9 2 17 10 17 18 0 8 -8 16 -17 18
-13 2 -18 -3 -18 -18z" id="node68" class="node"></path>
<path style="position: relative;" d="M1780 1571 c0 -5 6 -13 13 -19 15 -13 42 1 33 17 -8 13 -46 15 -46 2z" id="node69" class="node"></path>
<path style="position: relative;" d="M1884 1565 c-7 -18 3 -35 22 -35 8 0 14 10 14 25 0 27 -27 35 -36 10z" id="node70" class="node"></path>
<path style="position: relative;" d="M1750 1560 c0 -5 5 -10 11 -10 5 0 7 5 4 10 -3 6 -8 10 -11 10 -2 0
-4 -4 -4 -10z" id="node71" class="node"></path>
<path style="position: relative;" d="M1830 1500 c0 -5 20 -10 45 -10 25 0 45 5 45 10 0 6 -20 10 -45 10
-25 0 -45 -4 -45 -10z" id="node72" class="node"></path>
<path style="position: relative;" d="M2788 1494 c-26 -8 -94 -43 -150 -78 -57 -34 -123 -74 -148 -89 -58
-34 -160 -114 -160 -127 0 -6 9 -10 20 -10 23 0 76 -24 102 -47 15 -13 24 -10
85 30 354 230 383 252 383 287 0 41 -61 57 -132 34z" id="node73" class="node"></path>
<path style="position: relative;" d="M2332 1096 c-44 -23 -56 -80 -24 -109 23 -21 119 -23 145 -3 20 16
23 74 5 98 -15 19 -100 28 -126 14z" id="node74" class="node"></path>
<path style="position: relative;" d="M2481 1064 c0 -11 3 -14 6 -6 3 7 2 16 -1 19 -3 4 -6 -2 -5 -13z" id="node75" class="node"></path>
<path style="position: relative;" d="M2481 1004 c0 -11 3 -14 6 -6 3 7 2 16 -1 19 -3 4 -6 -2 -5 -13z" id="node76" class="node"></path>
<path style="position: relative;" d="M1445 895 c49 -31 88 -43 187 -55 42 -6 107 -22 143 -35 89 -34 124
-32 213 11 41 20 98 45 126 55 l51 19 -64 -6 c-56 -6 -121 -26 -172 -54 -42
-23 -85 -20 -169 10 -113 41 -232 72 -300 77 l-55 4 40 -26z" id="node77" class="node"></path>
<path style="position: relative;" d="M2198 903 c7 -3 16 -2 19 1 4 3 -2 6 -13 5 -11 0 -14 -3 -6 -6z" id="node78" class="node"></path>
</g>
</svg>