<!--?xml version="1.0" standalone="no"?-->

<svg version="1.0" xmlns="http://www.w3.org/2000/svg" width="300.000000pt" height="267.000000pt" viewBox="0 0 300.000000 267.000000" preserveAspectRatio="xMidYMid meet">
<g transform="translate(0.000000,267.000000) scale(0.100000,-0.100000)" fill="#272727" stroke="none">
<path class="node" id="node1" d="M1778 2660 c-38 -10 -172 -72 -195 -91 -7 -6 -26 -8 -42 -4 -27 6
-31 3 -37 -19 -6 -25 -71 -74 -127 -95 -23 -9 -36 -7 -76 13 -57 29 -111 78
-111 100 0 12 -10 16 -39 16 -22 0 -43 5 -46 10 -4 6 -29 22 -57 36 -108 55
-248 41 -392 -40 -158 -89 -321 -301 -361 -469 -29 -122 -15 -328 32 -469 13
-42 21 -83 17 -90 -4 -7 -39 -60 -77 -118 -127 -189 -146 -244 -112 -310 27
-52 49 -60 163 -60 102 0 105 -1 139 -30 18 -16 39 -30 46 -30 7 0 31 -19 52
-41 75 -78 149 -95 251 -59 l56 19 93 -67 c51 -37 116 -79 144 -94 46 -25 50
-30 41 -50 -5 -13 -28 -70 -50 -128 -23 -58 -44 -108 -46 -112 -4 -7 -41 14
-209 121 l-90 57 -9 87 -9 87 -42 0 c-37 0 -45 -4 -72 -42 -40 -55 -102 -119
-150 -154 -21 -16 -75 -58 -120 -94 -45 -36 -121 -90 -170 -120 -48 -30 -107
-72 -130 -94 -36 -32 -43 -45 -43 -76 0 -25 7 -43 23 -58 50 -47 152 -70 232
-52 139 31 417 265 458 384 5 17 11 32 12 34 2 3 211 -128 296 -184 22 -15 43
-22 53 -18 19 7 46 64 102 209 54 140 53 138 72 130 9 -3 50 -15 90 -27 71
-19 76 -19 145 -3 136 33 297 131 451 275 71 67 88 77 139 89 32 7 60 11 62 9
2 -1 9 -46 15 -98 27 -211 27 -213 8 -252 -23 -48 -40 -158 -36 -239 l3 -64
39 -3 c37 -3 42 0 103 67 83 91 240 209 466 350 99 62 115 76 122 117 10 50
-23 88 -96 113 -35 11 -78 21 -95 21 -80 0 -212 -71 -352 -188 -29 -24 -55
-42 -57 -40 -9 8 -23 102 -30 193 -4 51 -13 100 -22 114 -15 24 -24 24 -92 5
-22 -7 -21 -3 16 52 21 32 52 82 68 109 15 28 34 53 40 57 7 4 16 19 19 33 6
22 83 194 91 203 1 1 28 7 60 12 51 8 61 7 83 -10 13 -11 35 -20 49 -20 13 0
45 -11 71 -25 43 -23 56 -24 163 -22 91 2 122 7 143 21 37 24 60 80 48 115 -8
22 -5 32 14 54 32 37 33 98 2 127 -12 11 -25 20 -30 20 -4 0 -5 19 -2 43 7 55
-8 92 -46 112 -34 17 -50 15 -123 -18 -39 -17 -52 -19 -68 -9 -29 18 -90 14
-127 -8 -43 -27 -72 -76 -72 -125 0 -27 -9 -53 -27 -80 -14 -21 -29 -52 -33
-69 -4 -23 -13 -33 -38 -40 -18 -5 -35 -6 -38 -3 -3 3 1 27 10 54 48 150 47
359 -3 513 -40 122 -125 256 -208 330 -77 69 -161 102 -268 106 -49 2 -107 -1
-127 -6z m235 -70 c86 -36 145 -84 201 -163 106 -151 151 -289 151 -472 0 -92
-5 -140 -22 -205 -21 -78 -66 -199 -91 -246 -6 -10 -27 -53 -48 -94 -20 -41
-45 -87 -55 -102 -11 -14 -19 -28 -19 -31 0 -3 -23 -41 -51 -84 -120 -181
-286 -336 -456 -426 -138 -72 -253 -77 -393 -18 -79 34 -187 95 -242 138 -21
15 -49 36 -63 46 -36 26 -31 37 19 37 58 0 69 15 62 87 -3 32 -5 63 -6 68 0 6
2 30 5 55 7 45 -12 111 -35 125 -5 3 -10 23 -10 43 l0 37 22 -35 c12 -19 21
-39 20 -43 -1 -5 2 -6 6 -3 5 3 18 -4 28 -15 29 -32 153 -105 229 -135 59 -23
85 -27 171 -28 140 0 216 30 309 122 36 35 67 63 69 61 1 -2 8 -19 15 -36 25
-63 43 -2 20 66 -13 37 -18 38 -53 10 -15 -12 -29 -19 -31 -17 -10 9 -43 223
-35 226 36 13 143 94 200 152 72 74 140 174 140 209 0 37 -17 23 -55 -44 -43
-77 -169 -206 -248 -253 -71 -43 -252 -107 -359 -127 -66 -12 -103 -13 -184
-5 -55 5 -109 12 -120 16 -82 27 -155 63 -186 92 -62 58 -138 238 -138 325 0
31 2 34 25 29 27 -5 32 7 13 26 -17 17 -100 15 -127 -4 -28 -20 -14 -42 17
-25 34 18 42 13 42 -31 0 -57 42 -192 85 -271 19 -36 35 -75 35 -88 0 -13 11
-44 25 -68 14 -23 25 -44 25 -46 0 -1 -23 0 -51 3 -43 4 -52 2 -65 -17 -11
-15 -26 -21 -53 -21 -20 0 -41 4 -47 9 -11 11 -33 14 -90 12 -32 -1 -48 -8
-71 -31 -28 -29 -30 -29 -45 -13 -29 32 -105 196 -134 288 -27 84 -29 101 -29
260 l0 170 33 68 c149 316 428 493 656 417 36 -12 66 -25 66 -29 0 -4 -10 -16
-21 -27 -42 -37 -79 -154 -48 -154 6 0 25 11 43 25 17 13 61 33 96 44 l63 20
61 -36 61 -35 73 37 c64 33 78 36 122 31 27 -3 68 -13 90 -22 23 -9 43 -14 47
-11 10 10 -18 67 -43 86 -30 23 -30 27 -1 42 121 66 268 77 380 29z m875 -630
c43 -40 17 -91 -54 -105 -34 -6 -41 -4 -61 20 -33 38 -29 61 15 84 48 26 73
26 100 1z m-158 -78 c48 -89 38 -132 -30 -132 -47 0 -80 34 -87 89 -6 46 -33
58 -33 16 0 -63 64 -135 119 -135 26 0 29 -15 17 -68 -7 -32 -7 -49 3 -64 7
-11 10 -22 7 -25 -9 -9 -103 28 -121 47 -19 21 -45 27 -45 10 0 -5 -4 -10 -9
-10 -6 0 -7 15 -4 33 4 24 0 37 -13 47 -13 12 -18 12 -21 3 -3 -7 -9 -13 -14
-13 -14 0 -11 24 5 46 15 19 15 19 30 -1 23 -31 28 -12 15 53 -12 56 -11 62
12 108 19 38 32 52 59 60 49 16 75 1 110 -64z m198 -58 c29 -20 29 -65 0 -98
-29 -31 -132 -45 -163 -22 -20 14 -20 15 2 38 12 13 24 35 28 49 5 19 16 29
43 36 54 15 65 15 90 -3z m-13 -188 c8 -24 6 -31 -14 -47 -33 -27 -114 -26
-141 1 -22 22 -22 25 -14 55 4 18 14 20 82 20 75 0 77 -1 87 -29z m-1931 -119
c36 -17 38 -20 31 -50 -4 -18 -7 -42 -6 -54 2 -44 -18 -24 -74 73 -41 72 -46
97 -12 68 12 -11 39 -28 61 -37z m706 20 c0 -2 5 -30 11 -63 6 -32 12 -68 14
-79 1 -11 8 -40 13 -65 10 -42 9 -47 -16 -73 -30 -32 -127 -87 -152 -87 -14 0
-21 27 -39 151 -14 91 -20 154 -14 160 17 17 183 68 183 56z m-1254 -127 c38
-62 44 -79 44 -127 0 -44 -5 -61 -24 -84 -13 -15 -26 -34 -28 -40 -6 -17 -168
-25 -196 -10 -26 14 -28 49 -6 94 23 44 158 247 162 243 2 -2 23 -36 48 -76z
m734 51 l55 -6 -4 -120 c-1 -66 -4 -121 -6 -123 -7 -8 -91 43 -131 80 -44 40
-44 42 -39 92 11 96 13 99 43 91 15 -4 52 -10 82 -14z m290 -3 c2 -46 13 -125
20 -138 4 -8 11 -47 15 -87 7 -72 7 -72 -20 -79 -35 -9 -140 4 -183 22 l-35
14 5 125 c3 69 8 128 11 131 5 5 94 17 170 23 9 0 17 -5 17 -11z m-556 -70 c9
-12 16 -38 16 -56 0 -22 9 -45 26 -65 22 -26 25 -37 20 -76 -6 -50 -7 -54 -3
-121 l2 -45 -47 0 c-37 0 -51 -5 -63 -22 -24 -34 -95 -56 -161 -51 -52 5 -59
8 -103 56 -27 29 -56 52 -66 52 -29 0 -55 30 -55 65 0 35 15 55 42 55 16 0 18
9 18 73 0 39 6 83 13 97 17 34 64 56 89 41 10 -6 30 -11 45 -12 16 0 37 -4 47
-8 25 -10 7 -22 -43 -30 -41 -7 -52 -28 -18 -36 36 -9 90 17 128 64 41 49 87
56 113 19z m1784 -390 c7 -7 12 -18 12 -25 0 -21 -71 -82 -193 -164 -110 -74
-117 -78 -111 -52 7 30 69 159 88 182 15 19 87 50 139 60 23 5 44 9 48 10 3 1
10 -4 17 -11z m89 -32 l28 -25 -19 -36 c-12 -22 -38 -47 -65 -62 -172 -97
-332 -214 -458 -336 -51 -49 -96 -87 -102 -85 -17 6 56 100 155 199 56 56 139
126 198 165 144 97 187 133 202 171 17 39 24 41 61 9z m-356 -93 c-11 -21 -20
-35 -21 -32 0 14 31 81 36 76 3 -3 -4 -22 -15 -44z m-43 -25 c-10 -30 -38 -61
-46 -53 -6 6 38 85 48 85 5 0 4 -14 -2 -32z m-72 -56 c-20 -39 -36 -49 -29
-20 6 24 33 61 40 54 3 -2 -3 -18 -11 -34z m70 -41 c-9 -43 -24 -64 -101 -144
-50 -51 -98 -105 -107 -118 l-17 -24 0 35 c-1 67 27 169 61 220 18 27 36 50
40 50 11 0 10 -6 -6 -45 -8 -19 -13 -35 -10 -35 2 0 23 17 47 39 32 29 79 62
103 71 1 0 -4 -22 -10 -49z m-1676 30 c0 -12 -46 -79 -95 -136 -88 -104 -215
-216 -337 -299 -69 -46 -128 -109 -128 -136 0 -24 -22 -26 -55 -4 -61 40 -22
90 170 215 141 92 280 207 362 301 53 61 83 82 83 59z m7 -123 c-11 -87 -37
-161 -73 -209 l-26 -34 5 30 c3 17 9 39 13 50 5 16 0 13 -27 -11 -19 -17 -53
-45 -77 -63 l-43 -33 7 53 c6 48 13 60 57 104 27 27 74 80 105 117 30 38 57
68 61 68 4 0 3 -33 -2 -72z m-241 -225 c-4 -16 -26 -66 -49 -113 -37 -76 -47
-87 -89 -108 -53 -26 -151 -41 -162 -24 -19 30 41 91 186 191 42 29 82 59 89
67 19 23 32 16 25 -13z m109 -39 c-24 -37 -29 -23 -9 22 13 29 18 34 21 21 3
-10 -3 -29 -12 -43z m-54 -31 c-11 -22 -27 -45 -36 -53 -15 -12 -15 -9 1 31
16 41 42 74 51 65 3 -2 -5 -22 -16 -43z m-68 -48 c-13 -25 -27 -45 -29 -45 -2
0 6 20 18 45 12 25 25 45 29 45 4 0 -4 -20 -18 -45z"></path>
<path class="node" id="node2" d="M1509 2387 c-24 -13 -59 -44 -78 -69 l-34 -45 -41 45 c-164 179 -405
41 -384 -222 13 -162 139 -296 267 -284 62 6 129 50 160 107 l23 43 39 -40
c49 -52 113 -77 173 -68 88 14 169 117 183 236 7 63 -25 173 -67 226 -29 36
-110 93 -110 77 0 -4 -5 -2 -12 5 -19 19 -71 14 -119 -11z m122 -7 c49 -14
111 -83 138 -154 27 -72 27 -150 0 -218 -35 -90 -84 -128 -166 -128 -57 0 -99
23 -138 74 -23 31 -26 43 -23 86 5 58 -8 158 -23 176 -15 18 33 107 71 134 52
37 88 45 141 30z m-329 -42 c24 -20 57 -60 73 -89 28 -51 30 -61 30 -164 0
-102 -2 -113 -26 -150 -41 -62 -74 -87 -123 -95 -89 -13 -168 35 -216 134 -71
143 -39 321 69 385 57 34 136 26 193 -21z"></path>
<path class="node" id="node3" d="M1496 2141 c-20 -39 -20 -84 0 -127 18 -38 52 -46 75 -17 22 26 18
107 -7 140 -29 39 -50 40 -68 4z m27 -45 c6 -16 -2 -28 -14 -20 -12 7 -11 34
0 34 5 0 11 -6 14 -14z"></path>
<path class="node" id="node4" d="M1187 2122 c-34 -37 -14 -160 28 -176 31 -12 45 -6 61 26 20 38 13
98 -17 139 -23 33 -49 37 -72 11z m33 -63 c0 -24 -23 -21 -28 4 -2 10 3 17 12
17 10 0 16 -9 16 -21z"></path>




















</g>
<g transform="translate(0.000000,267.000000) scale(0.100000,-0.100000)" fill="#FFFFFF" stroke="none">


<path class="node" id="node27" d="M1720 2597 c-71 -25 -110 -44 -110 -53 0 -4 11 -14 24 -25 25 -19 53
-76 43 -86 -4 -3 -24 2 -47 11 -22 9 -63 19 -90 22 -44 5 -58 2 -122 -31 l-73
-37 -61 35 -61 36 -63 -20 c-35 -11 -79 -31 -96 -44 -18 -14 -37 -25 -43 -25
-31 0 6 117 48 154 11 11 21 23 21 27 0 4 -30 17 -66 29 -228 76 -507 -101
-656 -417 l-33 -68 0 -170 c0 -159 2 -176 29 -260 29 -92 105 -256 134 -288
15 -16 17 -16 45 13 23 23 39 30 71 31 57 2 79 -1 90 -12 6 -5 27 -9 47 -9 27
0 42 6 53 21 13 19 22 21 65 17 28 -3 51 -4 51 -3 0 2 -11 23 -25 46 -14 24
-25 55 -25 68 0 13 -16 52 -35 88 -43 79 -85 214 -85 271 0 44 -8 49 -42 31
-31 -17 -45 5 -17 25 27 19 110 21 127 4 19 -19 14 -31 -13 -26 -23 5 -25 2
-25 -29 0 -87 76 -267 138 -325 31 -29 104 -65 186 -92 11 -4 65 -11 120 -16
81 -8 118 -7 184 5 107 20 288 84 359 127 79 47 205 176 248 253 38 67 55 81
55 44 0 -35 -68 -135 -140 -209 -57 -58 -164 -139 -200 -152 -8 -3 25 -217 35
-226 2 -2 16 5 31 17 35 28 40 27 53 -10 23 -68 5 -129 -20 -66 -7 17 -14 34
-15 36 -2 2 -33 -26 -69 -61 -93 -92 -169 -122 -309 -122 -86 1 -112 5 -171
28 -76 30 -200 103 -229 135 -10 11 -23 18 -28 15 -4 -3 -7 -2 -6 3 1 4 -8 24
-20 43 l-22 35 0 -37 c0 -20 5 -40 10 -43 23 -14 42 -80 35 -125 -3 -25 -5
-49 -5 -55 1 -5 3 -36 6 -68 7 -72 -4 -87 -62 -87 -50 0 -55 -11 -19 -37 14
-10 42 -31 63 -46 55 -43 163 -104 242 -138 140 -59 255 -54 393 18 170 90
336 245 456 426 28 43 51 81 51 84 0 3 8 17 19 31 10 15 35 61 55 102 21 41
42 84 48 94 25 47 70 168 91 246 17 65 22 113 22 205 0 183 -45 321 -151 472
-56 79 -115 127 -201 163 -90 39 -196 41 -293 7z m-92 -199 c7 -7 12 -9 12 -5
0 16 81 -41 110 -77 42 -53 74 -163 67 -226 -14 -119 -95 -222 -183 -236 -60
-9 -124 16 -173 68 l-39 40 -23 -43 c-31 -57 -98 -101 -160 -107 -128 -12
-254 122 -267 284 -13 164 84 302 213 303 65 1 120 -25 171 -81 l41 -45 34 45
c54 72 161 116 197 80z"></path>
<path class="node" id="node28" d="M1548 2380 c-47 -14 -88 -50 -114 -102 -18 -35 -22 -53 -15 -62 15
-18 28 -118 23 -176 -3 -43 0 -55 23 -86 39 -51 81 -74 138 -74 82 0 131 38
166 128 27 68 27 146 0 218 -27 71 -89 140 -138 154 -41 11 -46 11 -83 0z m16
-243 c25 -33 29 -114 7 -140 -54 -65 -119 60 -75 144 18 36 39 35 68 -4z"></path>
<path class="node" id="node29" d="M1500 2096 c0 -17 14 -29 23 -20 8 8 -3 34 -14 34 -5 0 -9 -6 -9 -14z"></path>
<path class="node" id="node30" d="M1109 2359 c-108 -64 -140 -242 -69 -385 48 -99 127 -147 216 -134
49 8 82 33 123 95 24 37 26 48 26 150 0 103 -2 113 -30 164 -16 29 -49 69 -73
89 -57 47 -136 55 -193 21z m150 -248 c30 -41 37 -101 17 -139 -37 -72 -106
-16 -106 84 0 80 50 111 89 55z"></path>
<path class="node" id="node31" d="M1192 2063 c5 -25 28 -28 28 -4 0 12 -6 21 -16 21 -9 0 -14 -7 -12
-17z"></path>
<path class="node" id="node32" d="M2788 1959 c-44 -23 -48 -46 -15 -84 20 -24 27 -26 61 -20 71 14 97
65 54 105 -27 25 -52 25 -100 -1z"></path>
<path class="node" id="node33" d="M2620 1946 c-27 -8 -40 -22 -59 -60 -23 -46 -24 -52 -12 -108 13 -65
8 -84 -15 -53 -15 20 -15 20 -30 1 -16 -22 -19 -46 -5 -46 5 0 11 6 14 13 3 9
8 9 21 -3 13 -10 17 -23 13 -47 -3 -18 -2 -33 4 -33 5 0 9 5 9 10 0 17 26 11
45 -10 18 -19 112 -56 121 -47 3 3 0 14 -7 25 -10 15 -10 32 -3 64 12 53 9 68
-17 68 -55 0 -119 72 -119 135 0 42 27 30 33 -16 7 -55 40 -89 87 -89 68 0 78
43 30 132 -35 65 -61 80 -110 64z"></path>
<path class="node" id="node34" d="M2838 1827 c-27 -7 -38 -17 -43 -36 -4 -14 -16 -36 -28 -49 -22 -23
-22 -24 -2 -38 31 -23 134 -9 163 22 29 33 29 78 0 98 -25 18 -36 18 -90 3z"></path>

<path class="node" id="node36" d="M1466 63 c-11 -11 -6 -23 9 -23 8 0 15 4 15 9 0 13 -16 22 -24 14z"></path>
<path class="node" id="node37" d="M2000 60 c0 -5 5 -10 11 -10 5 0 7 5 4 10 -3 6 -8 10 -11 10 -2 0 -4
-4 -4 -10z"></path>
<path class="node" id="node38" d="M1950 50 c0 -5 5 -10 10 -10 6 0 10 5 10 10 0 6 -4 10 -10 10 -5 0
-10 -4 -10 -10z"></path>
<path class="node" id="node39" d="M2058 65 c-4 -17 -1 -25 8 -25 8 0 14 11 14 25 0 14 -4 25 -9 25 -5
0 -11 -11 -13 -25z"></path>
<path class="node" id="node40" d="M2220 50 c0 -5 5 -10 10 -10 6 0 10 5 10 10 0 6 -4 10 -10 10 -5 0
-10 -4 -10 -10z"></path>
<path class="node" id="node41" d="M1160 56 c0 -9 5 -16 10 -16 6 0 10 4 10 9 0 6 -4 13 -10 16 -5 3
-10 -1 -10 -9z"></path>
<path class="node" id="node42" d="M1790 55 c0 -8 5 -15 10 -15 6 0 10 7 10 15 0 8 -4 15 -10 15 -5 0
-10 -7 -10 -15z"></path>
<path class="node" id="node43" d="M2746 1645 c-8 -30 -8 -33 14 -55 27 -27 108 -28 141 -1 20 16 22 23
14 47 -10 28 -12 29 -87 29 -68 0 -78 -2 -82 -20z"></path>
<path class="node" id="node44" d="M900 1560 c0 -7 16 -41 35 -74 56 -97 76 -117 74 -73 -1 12 2 36 6
54 7 30 5 33 -31 50 -22 9 -49 26 -61 37 -16 13 -23 15 -23 6z"></path>
<path class="node" id="node45" d="M1585 1514 c-38 -13 -73 -28 -78 -33 -6 -6 0 -69 14 -160 18 -124 25
-151 39 -151 25 0 122 55 152 87 25 26 26 31 16 73 -5 25 -12 54 -13 65 -2 11
-8 47 -14 79 -6 33 -11 61 -11 63 0 7 -40 -1 -105 -23z"></path>
<path class="node" id="node46" d="M313 1382 c-111 -168 -126 -209 -81 -233 28 -15 190 -7 196 10 2 6
15 25 28 40 19 23 24 40 24 84 0 48 -6 65 -44 127 -25 40 -46 74 -48 76 -2 1
-36 -45 -75 -104z"></path>
<path class="node" id="node47" d="M1056 1458 c-3 -12 -7 -46 -11 -74 -5 -50 -5 -52 39 -92 40 -37 124
-88 131 -80 2 2 5 57 6 123 l4 120 -55 6 c-30 4 -67 10 -82 14 -23 6 -28 4
-32 -17z"></path>
<path class="node" id="node48" d="M1352 1460 c-40 -5 -76 -11 -79 -14 -3 -3 -8 -62 -11 -131 l-5 -125
35 -14 c43 -18 148 -31 183 -22 27 7 27 7 20 79 -4 40 -11 79 -15 87 -7 13
-18 92 -20 138 0 13 0 13 -108 2z"></path>
<path class="node" id="node49" d="M791 1369 c-38 -47 -92 -73 -128 -64 -34 8 -23 29 18 36 50 8 68 20
43 30 -10 4 -31 8 -47 8 -15 1 -35 6 -45 12 -25 15 -72 -7 -89 -41 -7 -14 -13
-58 -13 -97 0 -64 -2 -73 -18 -73 -27 0 -42 -20 -42 -55 0 -35 26 -65 55 -65
10 0 39 -23 66 -52 44 -48 51 -51 103 -56 66 -5 137 17 161 51 12 17 26 22 63
22 l47 0 -2 45 c-4 67 -3 71 3 121 5 39 2 50 -20 76 -17 20 -26 43 -26 65 0
48 -24 78 -63 78 -25 0 -39 -9 -66 -41z"></path>
<path class="node" id="node50" d="M2623 999 c-52 -10 -124 -41 -139 -60 -19 -23 -81 -152 -88 -182 -6
-26 1 -22 111 52 122 82 193 143 193 164 0 14 -20 38 -29 36 -4 -1 -25 -5 -48
-10z"></path>
<path class="node" id="node51" d="M2716 957 c-15 -38 -58 -74 -202 -171 -59 -39 -142 -109 -198 -165
-99 -99 -172 -193 -155 -199 6 -2 51 36 102 85 126 122 286 239 458 336 27 15
53 40 65 62 l19 36 -28 25 c-37 32 -44 30 -61 -9z"></path>
<path class="node" id="node52" d="M2416 885 c-22 -52 -19 -58 5 -12 11 22 18 41 15 44 -3 3 -12 -12
-20 -32z"></path>
<path class="node" id="node53" d="M2350 839 c-12 -23 -20 -42 -18 -44 8 -8 36 23 46 53 16 46 -3 40
-28 -9z"></path>
<path class="node" id="node54" d="M2298 813 c-17 -20 -31 -66 -17 -57 12 7 42 65 36 70 -2 2 -11 -4
-19 -13z"></path>
<path class="node" id="node55" d="M2355 783 c-16 -9 -49 -33 -72 -54 -24 -22 -45 -39 -47 -39 -3 0 2
16 10 35 16 39 17 45 6 45 -4 0 -22 -23 -40 -50 -34 -51 -62 -153 -61 -220 l0
-35 17 24 c9 13 57 67 107 118 77 80 92 101 101 144 6 27 11 49 10 49 -1 -1
-14 -8 -31 -17z"></path>
<path class="node" id="node56" d="M617 722 c-82 -94 -221 -209 -362 -301 -192 -125 -231 -175 -170
-215 33 -22 55 -20 55 4 0 27 59 90 128 136 122 83 249 195 337 299 49 57 95
124 95 136 0 23 -30 2 -83 -59z"></path>
<path class="node" id="node57" d="M648 662 c-31 -37 -78 -90 -105 -117 -44 -44 -51 -56 -57 -104 l-7
-53 43 33 c24 18 58 46 77 63 27 24 32 27 27 11 -4 -11 -10 -33 -13 -50 l-5
-30 26 34 c14 19 35 58 45 85 20 54 42 196 30 196 -4 0 -31 -30 -61 -68z"></path>
<path class="node" id="node58" d="M441 446 c-7 -8 -47 -38 -89 -67 -145 -100 -205 -161 -186 -191 11
-17 109 -2 162 24 42 21 52 32 89 108 23 47 45 97 49 113 7 29 -6 36 -25 13z"></path>
<path class="node" id="node59" d="M566 416 c-9 -21 -15 -40 -12 -43 9 -9 38 46 33 64 -3 13 -8 8 -21
-21z"></path>
<path class="node" id="node60" d="M518 397 c-8 -6 -23 -32 -32 -56 -16 -40 -16 -43 -1 -31 18 15 59 90
52 96 -2 2 -10 -2 -19 -9z"></path>
<path class="node" id="node61" d="M442 315 c-12 -25 -20 -45 -18 -45 2 0 16 20 29 45 14 25 22 45 18
45 -4 0 -17 -20 -29 -45z"></path>
</g>
</svg>