<!--?xml version="1.0" standalone="no"?-->

<svg version="1.0" xmlns="http://www.w3.org/2000/svg" width="274.000000pt" height="300.000000pt" viewBox="0 0 274.000000 300.000000" preserveAspectRatio="xMidYMid meet">
<g transform="translate(0.000000,300.000000) scale(0.100000,-0.100000)" fill="#6C34D9" stroke="none">
<path d="M1914 2990 c-83 -33 -96 -191 -28 -329 25 -49 125 -158 234 -253 29
-26 55 -46 58 -44 2 2 11 35 20 73 l17 68 3 -57 3 -57 109 90 c61 50 124 109
141 131 108 135 60 288 -91 288 -53 0 -93 -21 -152 -78 -26 -25 -49 -44 -52
-41 -2 2 -18 30 -35 61 -34 61 -105 132 -147 148 -30 12 -51 12 -80 0z m107
-62 c49 -38 107 -114 108 -142 1 -11 -14 -47 -33 -82 -19 -34 -32 -65 -29 -68
4 -3 23 -6 43 -6 l38 0 -14 -62 c-18 -84 -18 -81 15 -75 29 6 29 6 24 -36 -3
-23 -7 -44 -9 -46 -8 -9 -147 126 -198 192 -66 86 -87 141 -89 222 -1 126 58
168 144 103z m452 -96 c34 -35 34 -62 1 -132 -18 -39 -52 -81 -116 -142 -50
-49 -94 -88 -97 -88 -3 0 -6 28 -6 63 0 55 -2 62 -19 59 -16 -3 -18 1 -13 25
3 15 9 45 12 67 l8 38 -32 -7 -33 -7 15 29 c19 35 73 87 112 107 17 9 55 16
86 16 48 0 59 -4 82 -28z m-316 -104 c-17 -48 -17 -57 0 -61 10 -3 3 -5 -14
-6 -18 0 -33 1 -33 3 0 9 42 76 47 76 3 0 3 -6 0 -12z m37 -110 c-11 -73 -11
-73 9 -70 9 2 17 -2 17 -8 0 -5 -14 -10 -31 -10 -23 0 -30 4 -26 15 4 8 12 41
18 74 16 73 24 73 13 -1z" id="node1" class="node"></path>
<path d="M398 2733 c-6 -16 -13 -54 -16 -85 -5 -62 -7 -65 -37 -45 -30 21 -84
37 -100 31 -24 -10 -17 -81 15 -159 15 -38 27 -71 25 -73 -2 -2 -22 6 -45 18
-23 12 -51 20 -63 18 -20 -3 -22 -8 -19 -65 1 -35 -1 -63 -5 -63 -4 0 -26 12
-48 25 -53 33 -83 32 -95 -1 -15 -40 -12 -69 12 -99 l22 -28 17 22 c23 28 30
27 58 -14 34 -51 71 -85 92 -85 20 0 55 44 64 83 4 15 10 27 13 27 3 0 22 -18
42 -40 28 -30 45 -40 67 -40 35 0 43 13 43 71 0 52 20 59 79 28 46 -24 221
-188 221 -208 0 -6 -15 -5 -41 4 -151 54 -273 -47 -201 -165 50 -81 146 -109
261 -74 30 8 57 12 61 7 8 -8 42 -90 93 -223 32 -84 66 -197 69 -235 3 -30 3
-30 -62 -37 -82 -9 -158 -27 -166 -39 -11 -19 7 -46 45 -67 30 -17 41 -31 48
-60 6 -27 16 -40 38 -50 82 -35 79 -30 97 -135 9 -54 22 -112 28 -130 6 -18
15 -88 20 -157 12 -163 20 -188 68 -192 28 -2 40 -10 52 -30 14 -26 14 -29 -8
-44 -14 -9 -22 -25 -21 -37 1 -12 -3 -33 -8 -47 -13 -32 -8 -42 42 -76 49 -33
86 -33 151 0 59 30 76 23 106 -40 20 -39 21 -50 11 -96 -6 -29 -8 -56 -4 -60
16 -18 127 -28 302 -28 137 0 206 -4 256 -16 89 -21 315 -24 360 -6 20 9 36
25 42 43 l10 29 98 0 c118 1 177 13 221 47 59 45 25 93 -65 93 -24 0 -43 3
-43 8 0 4 10 36 21 72 45 144 20 269 -73 356 -36 33 -47 49 -39 57 16 16 13
34 -9 55 -20 19 -20 19 35 32 73 17 112 42 132 84 15 33 15 36 -8 83 -36 73
-172 167 -310 216 -35 12 -85 37 -110 55 -45 33 -47 35 -53 99 -4 36 -20 107
-36 158 -17 50 -30 95 -30 99 0 3 16 6 35 6 19 0 35 5 35 11 0 6 -40 54 -90
106 -49 51 -90 97 -90 101 0 4 33 15 73 25 254 59 403 256 283 376 -33 32 -41
36 -103 39 -62 3 -87 -2 -273 -63 -264 -85 -386 -115 -477 -115 -81 0 -87 6
-49 51 38 45 66 131 66 202 -1 120 -56 187 -155 187 -65 0 -121 -27 -169 -80
-29 -33 -40 -39 -47 -29 -5 8 -9 17 -9 20 0 16 -80 84 -119 101 -56 25 -101
18 -135 -23 -31 -36 -39 -78 -34 -168 2 -38 1 -68 -3 -65 -4 2 -60 75 -125
161 -142 190 -259 313 -298 313 -20 0 -29 -7 -38 -27z m83 -40 c39 -45 193
-233 209 -257 26 -38 137 -170 165 -196 14 -14 43 -55 62 -93 64 -121 161
-190 243 -173 40 8 40 -16 0 -46 -36 -26 -38 -38 -7 -38 42 0 71 43 75 113 l4
62 197 1 c185 0 203 2 321 32 69 17 201 56 294 86 174 58 205 63 253 45 49
-18 73 -48 73 -91 0 -51 -18 -85 -75 -137 -152 -140 -508 -178 -760 -81 -38
15 -79 30 -90 34 -19 7 -19 8 5 26 29 23 15 25 -41 8 -22 -6 -39 -17 -39 -23
0 -16 126 -68 229 -94 46 -11 145 -26 220 -33 l136 -11 40 -41 c56 -58 115
-128 115 -138 0 -4 -11 -8 -24 -8 -40 0 -198 -30 -271 -52 -167 -49 -380 -164
-485 -261 -14 -13 -43 -36 -65 -52 -22 -16 -51 -40 -65 -52 -15 -14 -37 -23
-57 -23 l-33 0 -2 218 -3 217 -2 -210 c-2 -115 -7 -213 -12 -218 -4 -4 -20 -3
-34 2 -22 9 -27 17 -27 43 0 102 -84 383 -161 541 -15 31 -28 60 -29 62 0 3 0
9 0 15 0 5 -19 0 -42 -10 -53 -24 -166 -27 -208 -5 -64 33 -90 114 -50 150 24
22 140 35 140 16 0 -6 -12 -11 -27 -11 -32 0 -104 -39 -111 -59 -3 -9 2 -11
17 -6 11 3 46 -2 76 -11 46 -15 62 -16 87 -6 26 10 34 9 56 -9 18 -13 29 -16
36 -9 7 7 -1 20 -27 41 -21 17 -36 34 -33 36 3 3 21 -8 41 -26 56 -49 69 -43
62 27 -5 60 -47 158 -92 218 -60 79 -168 169 -259 215 -71 36 -71 36 -78 85
-9 66 -10 199 -1 207 13 13 30 7 54 -20z m-105 -135 c6 -7 17 -35 22 -63 9
-41 8 -51 -4 -58 -26 -15 -15 -24 37 -30 52 -6 141 -51 173 -86 11 -13 15 -27
11 -40 -8 -26 -25 -27 -57 -1 -14 11 -46 25 -71 32 -53 14 -76 2 -78 -41 -1
-14 -4 -36 -7 -49 -7 -22 -8 -21 -67 23 -66 49 -80 53 -107 28 -24 -21 -23
-36 2 -28 23 7 24 0 9 -44 -17 -48 -46 -40 -102 30 -49 61 -75 73 -84 39 -7
-28 -23 -14 -23 20 0 43 17 46 66 11 58 -40 94 -50 95 -25 2 25 0 52 -7 92 -4
26 -2 32 13 32 26 0 95 -38 114 -62 28 -36 30 -3 3 73 -37 109 -54 171 -49
180 7 10 94 -16 111 -33z m675 -71 c24 -18 57 -52 73 -75 l30 -42 -17 -46
c-19 -53 -94 -168 -130 -202 l-24 -23 -25 43 c-14 24 -33 76 -42 117 -47 212
17 319 135 228z m405 -28 c27 -28 29 -35 28 -107 0 -73 -17 -152 -32 -152 -14
0 -168 93 -209 127 -24 19 -43 43 -43 53 0 21 60 77 104 96 17 7 52 13 77 14
38 0 50 -5 75 -31z m-256 -220 c0 -8 -48 -2 -58 6 -2 2 4 18 13 36 l17 33 14
-33 c8 -18 14 -37 14 -42z m48 38 c7 -8 7 -18 2 -27 -10 -17 -15 -13 -24 18
-8 24 5 30 22 9z m-570 -16 c10 -6 9 -13 -7 -32 -15 -18 -22 -21 -31 -13 -9 9
-8 17 2 33 14 23 17 24 36 12z m58 -67 c11 -16 10 -23 -2 -39 -15 -20 -15 -20
-35 3 -14 19 -16 28 -8 44 12 22 27 20 45 -8z m554 -14 c11 0 25 9 32 19 11
18 13 18 65 -7 l53 -26 -23 -24 c-31 -33 -70 -52 -109 -52 -53 1 -68 19 -68
81 0 51 1 53 16 31 8 -12 24 -22 34 -22z m-132 -40 c10 0 23 5 30 12 19 19 15
-62 -4 -101 -22 -44 -46 -55 -86 -37 -37 17 -78 50 -78 63 0 4 18 26 40 47 22
22 40 44 40 50 0 5 9 0 20 -12 12 -12 29 -22 38 -22z m-372 -34 c8 -33 -3 -51
-22 -35 -22 18 -17 59 7 59 5 0 11 -11 15 -24z m38 -92 c9 -33 6 -36 -18 -19
-11 8 -16 21 -13 30 9 23 24 18 31 -11z m-129 -44 c8 -13 -35 -13 -55 0 -11 7
-7 10 17 10 17 0 35 -4 38 -10z m1379 -375 c18 -19 50 -102 67 -180 15 -65 19
-360 6 -407 l-7 -27 -58 38 c-115 76 -144 89 -217 95 -151 14 -185 18 -185 26
0 4 14 10 30 14 18 3 30 12 30 21 0 14 -3 13 -26 -1 -50 -33 -304 -31 -304 3
0 9 17 34 38 57 20 23 65 81 99 128 34 47 78 98 97 113 63 48 229 104 376 128
14 2 28 5 32 6 4 0 13 -6 22 -14z m-533 -183 c-27 -39 -48 -55 -61 -47 -18 11
-11 24 28 49 49 33 58 32 33 -2z m-90 -62 c24 -14 24 -32 -1 -55 -19 -17 -21
-17 -40 0 -25 22 -25 34 -2 51 21 16 19 16 43 4z m-61 -75 c33 -34 33 -35 15
-55 -25 -28 -44 -25 -84 12 l-34 32 27 23 c15 13 30 23 35 23 4 0 22 -16 41
-35z m-388 -5 c4 -26 2 -30 -20 -30 -16 0 -26 7 -29 21 -5 18 -11 20 -42 14
-73 -14 -69 -27 17 -53 37 -12 88 -24 114 -27 49 -6 70 -21 48 -35 -8 -5 -9
-10 -2 -14 6 -4 15 1 20 10 9 16 26 15 238 -14 126 -17 285 -36 354 -42 198
-17 213 -19 257 -43 81 -42 163 -109 163 -131 0 -37 -20 -46 -100 -46 -52 0
-70 -3 -60 -10 8 -5 43 -10 78 -10 34 0 62 -3 62 -7 0 -5 -16 -18 -35 -30 -30
-20 -65 -63 -50 -63 3 0 31 18 61 41 30 22 63 39 72 37 9 -2 22 -19 29 -38 9
-28 13 -31 18 -18 4 11 -3 35 -20 64 l-27 46 16 67 c9 36 19 87 22 113 9 68
23 76 89 53 63 -21 91 -16 75 14 -5 11 -10 22 -10 25 0 9 64 -17 98 -39 33
-23 33 -23 9 -29 -13 -3 -44 -25 -67 -48 -27 -27 -45 -38 -47 -30 -3 6 -10 12
-17 12 -7 0 -29 20 -51 45 -39 46 -56 53 -35 16 9 -18 7 -26 -15 -49 -30 -32
-42 -69 -28 -91 5 -9 8 -33 5 -54 -3 -26 2 -50 14 -74 18 -32 22 -34 56 -30
33 4 38 2 47 -23 19 -55 74 -60 101 -10 13 23 42 26 59 6 15 -18 -7 -31 -131
-74 -218 -77 -656 -162 -836 -162 l-54 0 6 32 c13 68 19 268 8 268 -10 0 -19
-53 -25 -145 l-2 -40 -130 1 c-71 1 -142 6 -157 12 -30 12 -51 51 -92 167 -27
79 -46 162 -46 206 0 27 2 29 20 19 24 -13 230 -86 525 -187 l219 -75 22 28
c36 44 126 223 122 241 -2 10 -33 -33 -76 -105 -40 -67 -76 -122 -80 -122 -11
0 -324 104 -417 138 -144 53 -299 111 -363 135 -64 24 -102 49 -102 67 0 5 7
10 15 10 30 0 13 17 -45 45 -33 16 -60 34 -60 41 0 7 17 16 38 19 20 4 42 8
47 10 6 2 35 4 66 4 56 1 57 0 61 -29z m318 -92 c0 -8 -89 -1 -99 8 -3 2 6 15
19 29 l24 25 28 -27 c15 -15 28 -31 28 -35z m944 3 c32 -34 29 -40 -8 -16 -13
9 -30 14 -37 13 -9 -2 -15 8 -17 25 -3 25 -1 27 15 19 10 -6 31 -24 47 -41z
m322 -163 c30 -28 57 -62 60 -75 12 -47 -57 -93 -166 -112 -62 -10 -75 -19
-100 -61 -16 -26 -44 2 -54 54 -9 51 -15 55 -41 26 -18 -20 -45 -27 -45 -11 0
10 39 62 60 78 12 9 20 8 38 -3 32 -21 37 -13 11 19 -28 37 -46 34 -90 -13
-45 -47 -52 -50 -38 -13 14 38 57 93 72 93 18 0 61 -42 88 -86 30 -50 37 -27
8 31 l-23 45 25 26 c29 32 74 53 112 54 21 0 43 -14 83 -52z m-316 15 c0 -5
-14 -21 -30 -37 -25 -25 -30 -26 -30 -11 0 22 28 55 47 55 7 0 13 -3 13 -7z
m-1157 -414 c22 -44 37 -83 34 -86 -3 -3 -19 -2 -36 2 -21 4 -32 14 -35 28 -9
45 -14 137 -8 136 4 0 24 -36 45 -80z m1389 34 c66 -67 98 -141 98 -224 0 -85
-31 -189 -62 -208 -49 -31 -196 -82 -251 -88 l-58 -6 40 58 c50 71 81 152 81
210 0 53 11 58 105 53 119 -6 83 14 -45 25 l-35 3 48 13 c70 20 68 32 -4 29
-62 -3 -63 -3 -70 27 -3 17 -14 47 -23 68 -18 42 -26 35 69 70 57 21 56 22
107 -30z m-210 -35 c8 -13 20 -43 27 -67 10 -36 10 -45 -1 -52 -29 -19 -43 -8
-66 49 -13 31 -25 62 -28 69 -5 10 11 19 42 22 7 0 18 -9 26 -21z m-992 -8
c103 -4 125 -8 123 -20 -5 -48 -38 -200 -49 -226 -17 -40 -82 -84 -133 -91
-49 -7 -52 4 -11 32 44 29 37 37 -14 14 -45 -19 -76 -17 -76 6 0 14 50 35 81
35 11 0 19 5 19 10 0 6 -18 10 -40 10 -29 0 -40 4 -40 15 0 12 13 15 60 15
l60 0 -65 100 c-63 98 -78 129 -52 113 6 -4 68 -10 137 -13z m913 -53 c15 -29
27 -58 27 -64 0 -10 -37 -21 -141 -38 -19 -4 -42 -10 -49 -15 -32 -20 4 -22
91 -6 50 9 94 15 96 12 3 -3 -18 -16 -46 -30 -28 -15 -51 -31 -51 -36 0 -14 0
-14 82 24 40 19 77 31 82 29 15 -10 -1 -111 -27 -166 -13 -28 -43 -73 -66 -99
-34 -38 -51 -48 -94 -58 -164 -36 -504 -56 -620 -36 -40 6 -47 10 -41 24 24
57 6 137 -42 186 l-26 25 20 58 c11 32 23 74 27 93 l6 36 147 12 c166 13 357
44 482 77 47 13 92 24 101 24 9 1 26 -20 42 -52z m-1007 -82 c22 -34 8 -47
-16 -15 -22 28 -25 40 -10 40 5 0 17 -11 26 -25z m1357 -310 c-9 -19 -21 -35
-26 -35 -5 0 -7 3 -5 8 24 48 32 62 39 62 5 0 1 -16 -8 -35z m126 26 c7 -5 10
-14 6 -21 -10 -16 -69 -40 -99 -40 l-25 0 20 35 c17 28 27 35 52 35 18 0 38
-4 46 -9z m-169 -18 c0 -4 -10 -17 -22 -30 -17 -18 -32 -23 -72 -23 l-51 1 54
19 c30 11 59 24 65 30 11 11 26 13 26 3z m-186 -86 c16 -12 16 -14 -2 -30 -19
-17 -122 -36 -122 -23 0 4 7 20 15 36 13 25 22 30 53 30 21 0 46 -6 56 -13z
m-144 -17 c-11 -21 -48 -45 -57 -36 -11 11 28 56 48 56 17 0 18 -3 9 -20z
m-86 -15 c-4 -10 -20 -15 -49 -15 -52 0 -69 17 -23 23 70 8 78 8 72 -8z" id="node2" class="node"></path>
<path d="M2230 2025 c0 -8 7 -15 15 -15 8 0 15 7 15 15 0 8 -7 15 -15 15 -8 0
-15 -7 -15 -15z" id="node3" class="node"></path>
<path d="M2185 1990 c-13 -14 -15 -24 -8 -31 12 -12 43 14 43 37 0 20 -14 17
-35 -6z" id="node4" class="node"></path>
<path d="M2093 1945 c-24 -23 -30 -45 -13 -45 6 0 22 11 35 25 14 13 25 29 25
35 0 17 -23 10 -47 -15z" id="node5" class="node"></path>
<path d="M2008 1936 c-42 -23 -48 -36 -18 -36 21 0 60 33 60 50 0 6 -1 10 -2
9 -2 -1 -20 -11 -40 -23z" id="node6" class="node"></path>
<path d="M1720 1786 c-12 -33 -12 -36 -1 -36 9 0 22 52 15 59 -2 2 -8 -8 -14
-23z" id="node7" class="node"></path>
<path d="M1111 1788 c0 -9 -13 -26 -27 -37 -16 -13 -21 -21 -12 -21 27 0 50
25 45 51 -2 13 -5 16 -6 7z" id="node8" class="node"></path>
<path d="M1466 1764 c-61 -22 -102 -59 -129 -116 -26 -56 -47 -185 -28 -173 6
3 11 23 11 44 0 75 49 170 106 208 14 9 49 24 77 34 35 12 44 18 27 18 -14 0
-43 -7 -64 -15z" id="node9" class="node"></path>
<path d="M935 1180 c-3 -6 1 -13 10 -16 19 -8 30 0 20 15 -8 14 -22 14 -30 1z" id="node10" class="node"></path>
<path d="M1025 1150 c3 -5 15 -10 26 -10 10 0 19 5 19 10 0 6 -12 10 -26 10
-14 0 -23 -4 -19 -10z" id="node11" class="node"></path>
<path d="M1155 2720 c-7 -12 66 -86 95 -95 33 -10 38 4 10 26 -14 11 -42 33
-62 49 -20 17 -39 26 -43 20z" id="node12" class="node"></path>
<path d="M860 2643 c-11 -26 -28 -55 -37 -65 -21 -23 -10 -56 13 -37 17 14 74
121 74 139 0 28 -32 4 -50 -37z" id="node13" class="node"></path>
</g>
<g transform="translate(0.000000,300.000000) scale(0.100000,-0.100000)" fill="#EBCDC7" stroke="none">

<path d="M1922 2953 c-43 -17 -59 -146 -28 -233 23 -61 113 -177 197 -251 38
-34 71 -60 73 -58 2 2 6 23 9 46 5 42 5 42 -24 36 -33 -6 -33 -9 -15 75 l14
62 -38 0 c-20 0 -39 3 -43 6 -3 3 10 34 29 68 19 35 34 71 33 82 -1 28 -59
104 -108 142 -40 30 -69 37 -99 25z" id="node15" class="node"></path>
<path d="M2305 2844 c-39 -20 -93 -72 -112 -107 l-15 -29 33 7 32 7 -8 -38
c-3 -22 -9 -52 -12 -67 -5 -24 -3 -28 13 -25 17 3 19 -4 19 -59 0 -35 3 -63 6
-63 3 0 47 39 97 88 64 61 98 103 116 142 33 70 33 97 -1 132 -23 24 -34 28
-82 28 -31 0 -69 -7 -86 -16z" id="node16" class="node"></path>
<path d="M2131 2704 c-12 -19 -21 -37 -21 -40 0 -2 15 -3 33 -3 17 1 24 3 14
6 -17 4 -17 13 0 61 10 25 -6 11 -26 -24z" id="node17" class="node"></path>
<path d="M427 2713 c-9 -8 -8 -141 1 -207 7 -49 7 -49 78 -85 91 -46 199 -136
259 -215 45 -60 87 -158 92 -218 7 -70 -6 -76 -62 -27 -20 18 -38 29 -41 26
-3 -2 12 -19 33 -36 26 -21 34 -34 27 -41 -7 -7 -18 -4 -36 9 -22 18 -30 19
-56 9 -25 -10 -41 -9 -87 6 -30 9 -65 14 -76 11 -15 -5 -20 -3 -17 6 7 20 79
59 111 59 15 0 27 5 27 11 0 19 -116 6 -140 -16 -40 -36 -14 -117 50 -150 42
-22 155 -19 208 5 23 10 42 15 42 10 0 -6 0 -12 0 -15 1 -2 14 -31 29 -62 77
-158 161 -439 161 -541 0 -26 5 -34 27 -43 14 -5 30 -6 34 -2 5 5 10 103 12
218 l2 210 3 -217 2 -218 33 0 c20 0 42 9 57 23 14 12 43 36 65 52 22 16 51
39 65 52 105 97 318 212 485 261 73 22 231 52 271 52 13 0 24 4 24 8 0 10 -59
80 -115 138 l-40 41 -136 11 c-75 7 -174 22 -220 33 -103 26 -229 78 -229 94
0 6 17 17 39 23 56 17 70 15 41 -8 -24 -18 -24 -19 -5 -26 11 -4 52 -19 90
-34 252 -97 608 -59 760 81 57 52 75 86 75 137 0 43 -24 73 -73 91 -48 18 -79
13 -253 -45 -93 -30 -225 -69 -294 -86 -118 -30 -136 -32 -321 -32 l-197 -1
-4 -62 c-4 -70 -33 -113 -75 -113 -31 0 -29 12 7 38 40 30 40 54 0 46 -82 -17
-179 52 -243 173 -19 38 -48 79 -62 93 -28 26 -139 158 -165 196 -16 24 -170
212 -209 257 -24 27 -41 33 -54 20z m1833 -688 c0 -8 -7 -15 -15 -15 -8 0 -15
7 -15 15 0 8 7 15 15 15 8 0 15 -7 15 -15z m-40 -29 c0 -23 -31 -49 -43 -37
-7 7 -5 17 8 31 21 23 35 26 35 6z m-80 -36 c0 -6 -11 -22 -25 -35 -13 -14
-29 -25 -35 -25 -17 0 -11 22 13 45 24 25 47 32 47 15z m-90 -10 c0 -17 -39
-50 -60 -50 -11 0 -20 3 -20 8 0 5 53 40 78 51 1 1 2 -3 2 -9z m-317 -172 c-3
-16 -9 -28 -14 -28 -11 0 -11 3 1 36 13 33 20 29 13 -8z m-629 -35 c-30 -22
-49 -15 -20 8 14 11 27 28 27 37 1 9 4 6 6 -7 3 -16 -1 -29 -13 -38z m399 18
c-28 -10 -63 -25 -77 -34 -57 -38 -106 -133 -106 -208 0 -21 -5 -41 -11 -44
-19 -12 2 117 28 173 35 74 118 131 193 131 17 0 8 -6 -27 -18z" id="node18" class="node"></path>
<path d="M2181 2619 c-6 -33 -14 -66 -18 -74 -4 -11 3 -15 26 -15 17 0 31 5
31 10 0 6 -8 10 -17 8 -20 -3 -20 -3 -9 70 11 74 3 74 -13 1z" id="node19" class="node"></path>
<path d="M265 2591 c-5 -9 12 -71 49 -180 27 -76 25 -109 -3 -73 -19 24 -88
62 -114 62 -15 0 -17 -6 -13 -32 7 -40 9 -67 7 -92 -1 -25 -37 -15 -95 25 -49
35 -66 32 -66 -11 0 -34 16 -48 23 -20 9 34 35 22 84 -39 56 -70 85 -78 102
-30 15 44 14 51 -9 44 -25 -8 -26 7 -2 28 27 25 41 21 107 -28 59 -44 60 -45
67 -23 3 13 6 35 7 49 2 43 25 55 78 41 25 -7 57 -21 71 -32 32 -26 49 -25 57
1 4 13 0 27 -11 40 -32 35 -121 80 -173 86 -52 6 -63 15 -37 30 12 7 13 17 4
58 -5 28 -16 56 -22 63 -17 17 -104 43 -111 33z" id="node20" class="node"></path>
<path d="M938 2508 c-22 -18 -38 -73 -38 -128 0 -69 29 -188 58 -238 l25 -43
24 23 c36 34 111 149 130 202 l17 46 -30 42 c-60 85 -144 129 -186 96z" id="node21" class="node"></path>
<path d="M1304 2476 c-44 -19 -104 -75 -104 -96 0 -10 19 -34 43 -53 41 -34
195 -127 209 -127 15 0 32 79 32 152 1 72 -1 79 -28 107 -25 26 -37 31 -75 31
-25 -1 -60 -7 -77 -14z" id="node22" class="node"></path>
<path d="M1155 2281 c-19 -37 -19 -36 18 -45 31 -7 33 -2 13 45 l-14 33 -17
-33z" id="node23" class="node"></path>
<path d="M1226 2268 c9 -31 14 -35 24 -18 5 9 5 19 -2 27 -17 21 -30 15 -22
-9z" id="node24" class="node"></path>

<path d="M642 2249 c-10 -16 -11 -24 -2 -33 9 -8 16 -5 31 13 16 19 17 26 7
32 -19 12 -22 11 -36 -12z" id="node26" class="node"></path>
<path d="M691 2202 c-8 -16 -6 -25 8 -44 20 -23 20 -23 35 -3 12 16 13 23 2
39 -18 28 -33 30 -45 8z" id="node27" class="node"></path>
<path d="M1240 2171 c0 -62 15 -80 68 -81 39 0 78 19 109 52 l23 24 -53 26
c-52 25 -54 25 -65 7 -16 -26 -47 -24 -66 3 -15 22 -16 20 -16 -31z" id="node28" class="node"></path>
<path d="M1100 2174 c0 -6 -18 -28 -40 -50 -22 -21 -40 -43 -40 -47 0 -13 41
-46 78 -63 40 -18 64 -7 86 37 19 39 23 120 4 101 -18 -18 -45 -14 -68 10 -11
12 -20 17 -20 12z" id="node29" class="node"></path>
<path d="M757 2123 c-12 -11 -8 -40 7 -52 19 -16 30 2 22 35 -6 24 -17 30 -29
17z" id="node30" class="node"></path>
<path d="M793 2025 c-3 -9 2 -22 13 -30 24 -17 27 -14 18 19 -7 29 -22 34 -31
11z" id="node31" class="node"></path>
<path d="M640 1970 c20 -13 63 -13 55 0 -3 6 -21 10 -38 10 -24 0 -28 -3 -17
-10z" id="node32" class="node"></path>
<path d="M2020 1603 c-147 -24 -313 -80 -376 -128 -19 -15 -63 -66 -97 -113
-34 -47 -79 -105 -99 -128 -21 -23 -38 -48 -38 -57 0 -34 254 -36 304 -3 23
14 26 15 26 1 0 -9 -12 -18 -30 -21 -16 -4 -30 -10 -30 -14 0 -8 34 -12 185
-26 73 -6 102 -19 217 -95 l58 -38 7 27 c13 47 9 342 -6 407 -25 111 -65 198
-89 194 -4 -1 -18 -4 -32 -6z" id="node33" class="node"></path>
<path d="M1508 1414 c-39 -25 -46 -38 -28 -49 13 -8 34 8 61 47 25 34 16 35
-33 2z" id="node34" class="node"></path>
<path d="M1408 1346 c-23 -17 -23 -29 2 -51 19 -17 21 -17 40 0 25 23 25 41 1
55 -24 12 -22 12 -43 -4z" id="node35" class="node"></path>
<path d="M1314 1287 l-27 -23 34 -32 c40 -37 59 -40 84 -12 18 20 18 21 -15
55 -19 19 -37 35 -41 35 -5 0 -20 -10 -35 -23z" id="node36" class="node"></path>
<path d="M875 1295 c-5 -2 -27 -6 -47 -10 -21 -3 -38 -12 -38 -19 0 -7 27 -25
60 -41 58 -28 75 -45 45 -45 -8 0 -15 -5 -15 -10 0 -18 38 -43 102 -67 64 -24
219 -82 363 -135 93 -34 406 -138 417 -138 4 0 40 55 80 122 43 72 74 115 76
105 4 -18 -86 -197 -122 -241 l-22 -28 -219 75 c-295 101 -501 174 -525 187
-18 10 -20 8 -20 -19 0 -44 19 -127 46 -206 41 -116 62 -155 92 -167 15 -6 86
-11 157 -12 l130 -1 2 40 c6 92 15 145 25 145 11 0 5 -200 -8 -268 l-6 -32 54
0 c180 0 618 85 836 162 124 43 146 56 131 74 -17 20 -46 17 -59 -6 -27 -50
-82 -45 -101 10 -9 25 -14 27 -47 23 -34 -4 -38 -2 -56 30 -12 24 -17 48 -14
74 3 21 0 45 -5 54 -14 22 -2 59 28 91 22 23 24 31 15 49 -21 37 -4 30 35 -16
22 -25 44 -45 51 -45 7 0 14 -6 17 -12 2 -8 20 3 47 30 23 23 54 45 67 48 24
6 24 6 -9 29 -34 22 -98 48 -98 39 0 -3 5 -14 10 -25 16 -30 -12 -35 -75 -14
-66 23 -80 15 -89 -53 -3 -26 -13 -77 -22 -113 l-16 -67 27 -46 c17 -29 24
-53 20 -64 -5 -13 -9 -10 -18 18 -7 19 -20 36 -29 38 -9 2 -42 -15 -72 -37
-30 -23 -58 -41 -61 -41 -15 0 20 43 50 63 19 12 35 25 35 30 0 4 -28 7 -62 7
-35 0 -70 5 -78 10 -10 7 8 10 60 10 80 0 100 9 100 46 0 22 -82 89 -163 131
-44 24 -59 26 -257 43 -69 6 -228 25 -354 42 -212 29 -229 30 -238 14 -5 -9
-14 -14 -20 -10 -7 4 -6 9 2 14 22 14 1 29 -48 35 -26 3 -77 15 -114 27 -86
26 -90 39 -17 53 31 6 37 4 42 -14 3 -14 13 -21 29 -21 22 0 24 4 20 30 -4 29
-5 30 -61 29 -31 0 -60 -2 -66 -4z m90 -116 c10 -15 -1 -23 -20 -15 -9 3 -13
10 -10 16 8 13 22 13 30 -1z m105 -29 c0 -5 -9 -10 -19 -10 -11 0 -23 5 -26
10 -4 6 5 10 19 10 14 0 26 -4 26 -10z" id="node37" class="node"></path>
<path d="M1240 1215 c-13 -14 -22 -27 -19 -29 10 -9 99 -16 99 -8 0 4 -13 20
-28 35 l-28 27 -24 -25z" id="node38" class="node"></path>
<path d="M2202 1203 c2 -17 8 -27 17 -25 7 1 24 -4 37 -13 13 -8 27 -15 31
-15 10 0 -48 60 -70 72 -16 8 -18 6 -15 -19z" id="node39" class="node"></path>
<path d="M2445 1056 c-16 -7 -41 -25 -54 -40 l-25 -26 23 -45 c29 -58 22 -81
-8 -31 -27 44 -70 86 -88 86 -15 0 -58 -55 -72 -93 -14 -37 -7 -34 38 13 44
47 62 50 90 13 26 -32 21 -40 -11 -19 -18 11 -26 12 -38 3 -21 -16 -60 -68
-60 -78 0 -16 27 -9 45 11 26 29 32 25 41 -26 10 -52 38 -80 54 -54 25 42 38
51 100 61 109 19 178 65 166 112 -3 13 -30 47 -60 75 -59 56 -85 63 -141 38z" id="node40" class="node"></path>
<path d="M2227 1022 c-10 -10 -17 -27 -17 -37 0 -15 5 -14 30 11 16 16 30 32
30 37 0 14 -27 7 -43 -11z" id="node41" class="node"></path>
<path d="M1066 643 c8 -94 11 -101 45 -108 17 -4 33 -5 36 -2 6 7 -69 166 -79
166 -4 1 -4 -25 -2 -56z" id="node42" class="node"></path>
<path d="M2395 683 c-95 -35 -87 -28 -69 -70 9 -21 20 -51 23 -68 7 -30 8 -30
70 -27 72 3 74 -9 4 -29 l-48 -13 35 -3 c128 -11 164 -31 45 -25 -94 5 -105 0
-105 -53 0 -58 -31 -139 -81 -210 l-40 -58 58 6 c55 6 202 57 251 88 31 19 62
123 62 208 0 83 -32 157 -98 224 -51 52 -50 51 -107 30z" id="node43" class="node"></path>
<path d="M2237 633 c-10 -3 -16 -10 -13 -16 3 -7 15 -38 28 -69 23 -57 37 -68
66 -49 24 15 -23 143 -52 140 -6 -1 -19 -3 -29 -6z" id="node44" class="node"></path>
<path d="M1150 621 c0 -6 29 -56 65 -111 l65 -100 -60 0 c-47 0 -60 -3 -60
-15 0 -11 11 -15 40 -15 22 0 40 -4 40 -10 0 -5 -8 -10 -19 -10 -31 0 -81 -21
-81 -35 0 -23 31 -25 76 -6 51 23 58 15 14 -14 -41 -28 -38 -39 11 -32 51 7
116 51 133 91 11 26 44 178 49 226 2 12 -20 16 -123 20 -69 3 -131 9 -137 13
-8 5 -13 4 -13 -2z" id="node45" class="node"></path>
<path d="M2070 585 c-125 -33 -316 -64 -482 -77 l-147 -12 -6 -36 c-4 -19 -16
-61 -27 -93 l-20 -58 26 -25 c48 -49 66 -129 42 -186 -6 -14 1 -18 41 -24 116
-20 456 0 620 36 43 10 60 20 94 58 23 26 53 71 66 99 26 55 42 156 27 166 -5
2 -42 -10 -82 -29 -82 -38 -82 -38 -82 -24 0 5 23 21 51 36 28 14 49 27 46 30
-2 3 -46 -3 -96 -12 -87 -16 -123 -14 -91 6 7 5 30 11 49 15 104 17 141 28
141 38 0 26 -54 117 -69 116 -9 0 -54 -11 -101 -24z" id="node46" class="node"></path>
<path d="M1170 493 c1 -15 39 -58 46 -51 8 9 -22 58 -36 58 -6 0 -10 -3 -10
-7z" id="node47" class="node"></path>
<path d="M2549 173 c-7 -16 -15 -31 -17 -35 -2 -5 0 -8 5 -8 5 0 17 16 26 35
20 41 7 48 -14 8z" id="node48" class="node"></path>
<path d="M2591 165 l-20 -35 25 0 c30 0 89 24 99 40 10 16 -13 30 -52 30 -25
0 -35 -7 -52 -35z" id="node49" class="node"></path>
<path d="M2494 170 c-6 -6 -35 -19 -65 -30 l-54 -19 51 -1 c40 0 55 5 72 23
12 13 22 26 22 30 0 10 -15 8 -26 -3z" id="node50" class="node"></path>

<path d="M2225 70 c-8 -16 -15 -32 -15 -36 0 -13 103 6 122 23 18 16 18 18 2
30 -10 7 -35 13 -56 13 -31 0 -40 -5 -53 -30z" id="node52" class="node"></path>
<path d="M2144 65 c-9 -14 -14 -28 -11 -31 9 -9 46 15 57 36 17 31 -26 26 -46
-5z" id="node53" class="node"></path>
<path d="M2032 63 c-46 -6 -29 -23 23 -23 29 0 45 5 49 15 6 16 -2 16 -72 8z" id="node54" class="node"></path>
</g>
</svg>