<!--?xml version="1.0" standalone="no"?-->

<svg version="1.0" xmlns="http://www.w3.org/2000/svg" width="300.000000pt" height="300.000000pt" viewBox="0 0 300.000000 300.000000" preserveAspectRatio="xMidYMid meet">
<g transform="translate(0.000000,300.000000) scale(0.100000,-0.100000)" fill="#363636" stroke="none">
<path d="M187 2719 c-38 -22 -59 -117 -37 -175 8 -21 7 -32 -6 -51 -23 -35
-11 -97 31 -168 23 -38 35 -70 35 -94 0 -47 46 -122 94 -153 20 -13 36 -30 36
-39 0 -39 93 -97 170 -106 41 -5 54 -12 74 -37 13 -18 45 -43 70 -57 31 -16
44 -29 41 -38 -3 -8 -11 -61 -17 -117 -20 -182 20 -385 99 -501 32 -47 26 -57
-61 -103 l-66 -35 -18 22 c-9 12 -30 25 -47 29 -16 4 -43 14 -60 22 -16 8 -40
15 -53 16 -21 1 -32 20 -88 151 -35 82 -64 150 -64 152 0 2 21 3 48 3 59 0 90
16 119 59 55 81 6 207 -109 284 -51 34 -190 87 -227 87 -9 0 -31 -19 -48 -42
-100 -140 -128 -276 -80 -381 31 -69 63 -91 128 -90 48 1 81 15 119 53 18 18
19 17 40 -33 12 -29 28 -65 35 -82 41 -87 75 -176 75 -197 0 -17 -12 -29 -48
-48 -56 -30 -67 -65 -33 -111 12 -16 21 -39 21 -53 0 -15 8 -30 20 -36 11 -6
20 -19 20 -29 0 -32 35 -54 74 -47 19 4 39 13 46 21 20 24 36 17 52 -22 9 -21
36 -86 60 -144 l45 -106 -34 -46 c-33 -45 -34 -48 -19 -74 8 -15 25 -52 37
-80 12 -29 25 -53 29 -53 5 0 23 12 40 26 17 15 32 25 33 23 2 -2 11 -17 21
-33 21 -33 45 -22 27 12 -17 32 -14 38 29 52 50 17 50 28 4 121 l-36 71 -50
-4 c-57 -6 -41 -27 -128 175 -27 65 -50 122 -50 128 0 10 39 70 52 79 4 3 14
22 22 42 12 28 29 42 81 69 36 18 65 36 65 40 0 4 7 9 15 13 9 3 52 -32 122
-102 66 -66 147 -133 208 -174 168 -112 473 -248 557 -248 80 0 417 289 519
445 36 55 88 143 95 163 1 1 25 -9 55 -23 42 -19 70 -25 127 -25 56 0 74 -4
78 -15 7 -17 -12 -432 -22 -500 -7 -49 18 -78 62 -73 30 3 37 13 53 73 6 23
32 68 57 100 58 74 94 154 101 222 4 40 10 54 24 58 25 8 42 41 34 65 -3 11 1
30 10 44 10 15 13 30 9 38 -5 7 -9 38 -9 68 0 52 -2 56 -32 69 -31 14 -33 18
-33 66 0 69 -22 139 -62 199 -63 94 -88 141 -88 171 0 40 -16 55 -56 55 -47 0
-58 -20 -49 -88 9 -63 7 -440 -2 -486 -5 -28 -6 -28 -59 -22 -30 3 -78 14
-107 24 l-52 17 2 44 c1 24 9 61 17 82 9 21 21 87 28 147 11 104 10 135 -14
305 -2 14 11 24 51 42 30 12 73 41 95 62 32 31 52 41 89 46 78 11 167 68 167
108 0 9 15 26 34 37 48 28 87 91 94 149 3 29 18 69 38 103 39 65 52 136 31
164 -11 15 -12 29 -5 60 13 57 2 119 -28 151 -32 35 -48 29 -131 -53 -46 -45
-104 -88 -178 -130 -60 -34 -120 -71 -131 -80 -37 -31 -52 -76 -64 -188 -14
-134 -33 -205 -72 -266 -35 -56 -57 -67 -79 -39 -9 11 -28 34 -41 50 -120 142
-334 181 -495 91 l-38 -22 -70 69 c-107 105 -219 159 -354 170 -106 8 -239
-30 -331 -96 -55 -39 -150 -141 -180 -194 l-28 -49 -20 29 c-25 36 -58 174
-67 283 -10 129 -28 153 -160 225 -98 53 -213 135 -241 172 -42 56 -53 62 -87
42z m80 -80 c46 -50 137 -115 223 -159 125 -64 145 -93 155 -230 7 -104 38
-222 71 -272 28 -44 28 -45 9 -92 l-15 -36 -40 20 c-21 11 -53 38 -71 60 -27
34 -38 40 -69 40 -45 0 -124 26 -141 47 -10 11 -10 19 -1 34 16 25 15 29 -6
29 -47 0 -142 100 -142 150 0 18 5 19 48 14 l47 -5 -47 26 c-27 14 -59 43 -74
64 -25 39 -58 130 -49 139 2 2 21 -9 42 -24 54 -41 143 -82 143 -66 0 4 -25
20 -55 37 -73 39 -105 86 -112 162 -5 60 8 113 28 113 6 0 31 -23 56 -51z
m2674 29 c27 -50 4 -155 -44 -206 -12 -13 -43 -36 -69 -50 -27 -15 -48 -31
-48 -36 0 -5 6 -3 13 3 8 6 16 8 19 5 6 -5 102 49 131 74 16 14 17 13 17 -14
0 -35 -40 -123 -66 -146 -11 -10 -36 -24 -57 -33 -50 -21 -47 -29 8 -22 52 8
54 3 26 -59 -20 -43 -66 -85 -114 -103 -25 -10 -26 -13 -15 -31 11 -18 10 -23
-11 -39 -31 -23 -88 -41 -131 -41 -26 0 -42 -10 -79 -48 -42 -44 -84 -70 -136
-86 -16 -4 -23 1 -34 26 -12 27 -12 33 0 42 68 53 112 161 129 316 19 182 20
182 135 245 114 63 210 131 251 179 44 51 58 56 75 24z m-1569 -409 c108 -23
224 -100 312 -208 28 -34 28 -34 54 -17 79 51 114 61 217 61 89 0 106 -3 157
-28 110 -54 220 -204 249 -339 18 -82 6 -298 -20 -388 -85 -282 -285 -527
-590 -723 l-44 -28 -51 16 c-280 92 -520 228 -681 390 -128 127 -189 223 -241
375 -16 45 -19 85 -19 215 0 149 2 166 28 240 110 318 359 490 629 434z
m-1141 -442 c189 -55 304 -214 225 -312 -22 -28 -29 -30 -88 -30 -34 0 -71 4
-80 9 -14 6 -18 4 -18 -9 0 -9 -15 -32 -34 -51 -30 -30 -40 -34 -85 -34 -59 0
-81 18 -107 87 -24 62 -15 151 24 232 38 77 80 134 96 128 6 -2 36 -12 67 -20z
m2417 -89 c7 -7 12 -27 12 -45 0 -36 14 -63 65 -128 47 -59 74 -129 81 -206
l7 -69 -26 0 c-28 0 -29 2 -47 90 -13 63 -27 91 -91 187 -26 38 -49 85 -52
107 -9 60 19 96 51 64z m51 -309 c23 -62 27 -99 10 -99 -6 0 -28 -18 -50 -40
-22 -22 -44 -40 -49 -40 -12 0 -13 74 -3 214 l6 98 33 -38 c18 -22 42 -64 53
-95z m60 -174 c12 -25 21 -49 21 -55 0 -19 -29 -10 -48 15 -13 17 -23 22 -27
14 -4 -6 -2 -16 4 -22 12 -12 16 -157 4 -157 -14 1 -39 24 -51 47 -20 36 -15
133 8 171 30 49 62 44 89 -13z m118 -11 c9 -25 -10 -49 -43 -52 -25 -2 -30 2
-40 33 l-11 35 44 0 c31 0 45 -5 50 -16z m-254 -134 c-9 -10 -23 27 -23 61 0
57 14 56 21 -3 3 -29 4 -55 2 -58z m245 48 c17 -17 15 -45 -4 -52 -20 -8 -62
-8 -91 0 -22 6 -32 42 -16 57 11 12 98 8 111 -5z m-2350 -58 c22 -14 41 -39
58 -76 29 -66 30 -85 6 -115 l-19 -22 -26 57 c-15 32 -27 69 -27 82 0 33 -13
30 -27 -7 -16 -42 -37 -32 -41 19 -3 44 11 82 31 82 7 0 27 -9 45 -20z m100
-53 c7 -15 12 -39 10 -53 -2 -20 -7 -15 -25 31 -22 57 -10 74 15 22z m2033 10
c19 -13 42 -26 52 -30 39 -15 -1 -166 -63 -237 l-39 -45 -1 168 c0 92 4 167 9
167 4 0 23 -10 42 -23z m178 17 c25 -5 31 -11 29 -28 -2 -17 -11 -22 -44 -24
-44 -3 -71 16 -60 43 6 16 26 19 75 9z m-2411 -66 c-3 -38 -6 -43 -30 -46 -19
-2 -30 3 -39 19 -10 20 -8 26 15 46 42 36 58 31 54 -19z m2365 -14 c45 -16 4
-157 -75 -260 -56 -73 -68 -96 -68 -127 0 -30 -21 -50 -44 -41 -21 8 -21 75 0
117 9 18 38 59 64 92 51 65 80 136 80 198 0 27 4 37 13 33 6 -3 20 -9 30 -12z
m-2286 -40 c8 -23 -7 -44 -47 -65 -24 -13 -38 -15 -52 -8 -30 16 -22 45 20 67
47 25 71 26 79 6z m31 -91 c4 -26 -31 -53 -70 -53 -39 0 -39 38 0 62 36 22 66
19 70 -9z m302 -399 c33 -64 33 -67 15 -80 -41 -30 -60 -18 -94 57 -17 40 -31
76 -31 80 0 5 17 9 38 9 37 0 39 -2 72 -66z m-91 -71 l19 -43 -29 -21 c-35
-24 -44 -20 -59 29 -7 20 -16 41 -21 46 -15 17 -10 45 13 77 l23 30 17 -38
c10 -21 26 -57 37 -80z" id="node1" class="node"></path>
<path d="M1215 2143 c-141 -32 -247 -123 -318 -273 -146 -310 -33 -716 233
-838 77 -35 202 -36 275 -2 106 49 189 135 247 258 l30 62 24 -46 c39 -72 72
-110 127 -146 45 -29 60 -33 117 -33 79 1 128 24 187 88 136 148 161 406 58
596 -75 137 -212 203 -322 154 -66 -30 -101 -61 -144 -129 l-42 -64 -16 47
c-34 101 -123 218 -203 269 -76 48 -184 73 -253 57z m162 -45 c58 -19 79 -33
139 -93 113 -111 164 -243 164 -423 0 -166 -48 -305 -143 -408 -59 -65 -110
-97 -194 -120 -178 -49 -367 81 -449 311 -26 73 -28 91 -28 215 0 122 3 143
28 214 56 158 145 257 276 307 63 24 128 23 207 -3z m659 -167 c211 -96 260
-506 81 -689 -45 -46 -113 -82 -156 -82 -84 0 -187 74 -232 168 -22 44 -23 58
-22 230 2 179 2 184 30 238 64 128 190 185 299 135z" id="node2" class="node"></path>
<path d="M1416 1554 c-33 -32 -13 -74 36 -74 40 0 59 41 33 70 -22 24 -48 26
-69 4z" id="node3" class="node"></path>
<path d="M1858 1559 c-27 -15 -24 -68 4 -78 33 -12 57 -2 65 27 11 46 -29 76
-69 51z" id="node4" class="node"></path>
<path d="M1538 963 c-10 -2 -18 -6 -18 -8 0 -3 20 -26 45 -52 44 -48 45 -48
107 -48 69 0 107 19 128 63 6 15 16 22 25 18 22 -8 18 12 -4 24 -27 14 -41 13
-35 -4 3 -7 -7 -27 -21 -45 -25 -29 -32 -31 -89 -31 -56 0 -65 3 -90 29 -17
18 -26 36 -23 45 7 16 5 17 -25 9z" id="node5" class="node"></path>
</g>
<g transform="translate(0.000000,300.000000) scale(0.100000,-0.100000)" fill="#FFFFFF" stroke="none">

<path d="M189 2663 c-6 -16 -9 -54 -6 -86 7 -76 39 -123 112 -162 30 -17 55
-33 55 -37 0 -16 -89 25 -143 66 -21 15 -40 26 -42 24 -9 -9 24 -100 49 -139
15 -21 47 -50 74 -64 l47 -26 -47 5 c-43 5 -48 4 -48 -14 0 -50 95 -150 142
-150 21 0 22 -4 6 -29 -9 -15 -9 -23 1 -34 17 -21 96 -47 141 -47 31 0 42 -6
69 -40 18 -22 50 -49 71 -60 l40 -20 15 36 c19 47 19 48 -9 92 -33 50 -64 168
-71 272 -10 137 -30 166 -155 230 -86 44 -177 109 -223 159 -25 28 -50 51 -56
51 -6 0 -16 -12 -22 -27z" id="node7" class="node"></path>
<path d="M2866 2644 c-41 -48 -137 -116 -251 -179 -115 -63 -116 -63 -135
-245 -17 -155 -61 -263 -129 -316 -12 -9 -12 -15 0 -42 11 -25 18 -30 34 -26
52 16 94 42 136 86 37 38 53 48 79 48 43 0 100 18 131 41 21 16 22 21 11 39
-11 18 -10 21 15 31 48 18 94 60 114 103 28 62 26 67 -26 59 -55 -7 -58 1 -8
22 21 9 46 23 57 33 26 23 66 111 66 146 0 27 -1 28 -17 14 -29 -25 -125 -79
-131 -74 -3 3 -11 1 -19 -5 -7 -6 -13 -8 -13 -3 0 5 21 21 48 36 58 33 86 62
107 113 29 67 18 166 -18 165 -7 -1 -29 -21 -51 -46z" id="node8" class="node"></path>

<path d="M1156 2254 c-185 -45 -334 -199 -413 -429 -26 -74 -28 -91 -28 -240
0 -130 3 -170 19 -215 52 -152 113 -248 241 -375 161 -162 401 -298 681 -390
l51 -16 44 28 c224 143 419 345 512 528 75 148 99 240 105 401 3 77 0 151 -7
182 -29 135 -139 285 -249 339 -51 25 -68 28 -157 28 -103 0 -138 -10 -217
-61 -26 -17 -26 -17 -54 17 -117 144 -264 221 -417 218 -29 0 -78 -7 -111 -15z
m215 -124 c78 -27 123 -56 180 -116 53 -58 97 -129 120 -197 l16 -47 42 64
c84 131 201 176 316 122 237 -111 289 -530 92 -743 -59 -64 -108 -87 -187 -88
-57 0 -72 4 -117 33 -55 36 -88 74 -127 146 l-24 46 -30 -62 c-58 -123 -141
-209 -247 -258 -73 -34 -198 -33 -275 2 -266 122 -379 528 -233 838 61 129
145 212 253 252 91 33 139 35 221 8z m192 -1176 c-3 -9 6 -27 23 -45 25 -26
34 -29 90 -29 57 0 64 2 89 31 14 18 24 38 21 45 -6 17 8 18 35 4 22 -12 26
-32 4 -24 -9 4 -19 -3 -25 -18 -21 -44 -59 -63 -128 -63 -62 0 -63 0 -107 48
-25 26 -45 49 -45 52 0 3 22 11 42 14 4 0 5 -6 1 -15z" id="node10" class="node"></path>
<path d="M1170 2101 c-131 -50 -220 -149 -276 -307 -25 -71 -28 -92 -28 -214
0 -124 2 -142 28 -215 64 -178 175 -285 330 -316 104 -21 223 26 313 125 95
103 143 242 143 408 0 180 -51 312 -164 423 -60 60 -81 74 -139 93 -79 26
-144 27 -207 3z m315 -551 c26 -29 7 -70 -33 -70 -49 0 -69 42 -36 74 21 22
47 20 69 -4z" id="node11" class="node"></path>
<path d="M1882 1937 c-49 -15 -114 -78 -145 -141 -28 -54 -28 -59 -30 -238 -1
-172 0 -186 22 -230 45 -94 148 -168 232 -168 43 0 111 36 156 82 85 87 126
244 104 394 -33 222 -180 352 -339 301z m41 -388 c14 -22 1 -66 -21 -71 -34
-9 -62 9 -62 41 0 47 59 68 83 30z" id="node12" class="node"></path>
<path d="M126 1807 c-81 -106 -115 -244 -82 -330 26 -69 48 -87 107 -87 45 0
55 4 85 34 19 19 34 42 34 51 0 13 4 15 18 9 9 -5 46 -9 80 -9 59 0 66 2 88
30 79 98 -36 257 -225 312 -31 8 -61 18 -67 20 -7 2 -24 -11 -38 -30z" id="node13" class="node"></path>
<path d="M2601 1721 c-18 -32 0 -94 48 -164 64 -96 78 -124 91 -187 18 -88 19
-90 47 -90 l26 0 -7 69 c-7 77 -34 147 -81 206 -51 65 -65 92 -65 128 0 52
-38 77 -59 38z" id="node14" class="node"></path>

<path d="M2670 1258 c-23 -38 -28 -135 -8 -171 12 -23 37 -46 51 -47 12 0 8
145 -4 157 -6 6 -8 16 -4 22 4 8 14 3 27 -14 19 -25 48 -34 48 -15 0 6 -9 30
-21 55 -27 57 -59 62 -89 13z" id="node16" class="node"></path>
<path d="M2794 1215 c10 -31 15 -35 40 -33 33 3 52 27 43 52 -5 11 -19 16 -50
16 l-44 0 11 -35z" id="node17" class="node"></path>
<path d="M2608 1204 c-11 -10 -10 -76 2 -94 5 -8 11 -12 13 -10 7 9 -8 112
-15 104z" id="node18" class="node"></path>
<path d="M2757 1153 c-16 -15 -6 -51 16 -57 29 -8 71 -8 91 0 19 7 21 35 4 52
-13 13 -100 17 -111 5z" id="node19" class="node"></path>
<path d="M450 1090 c-14 -27 -9 -102 8 -108 7 -2 18 9 25 27 14 37 27 40 27 7
0 -13 12 -50 27 -82 l26 -57 19 22 c24 30 23 49 -6 115 -17 37 -36 62 -58 76
-42 25 -55 25 -68 0z" id="node20" class="node"></path>
<path d="M603 1015 c18 -46 23 -51 25 -31 4 29 -17 78 -35 83 -7 3 -3 -17 10
-52z" id="node21" class="node"></path>

<path d="M2754 1055 c-11 -27 16 -46 60 -43 33 2 42 7 44 24 2 17 -4 23 -29
28 -49 10 -69 7 -75 -9z" id="node23" class="node"></path>
<path d="M364 1017 c-23 -20 -25 -26 -15 -46 9 -16 20 -21 39 -19 24 3 27 8
30 46 4 50 -12 55 -54 19z" id="node24" class="node"></path>
<path d="M2740 963 c0 -62 -29 -133 -80 -198 -26 -33 -55 -74 -64 -92 -21 -42
-21 -109 0 -117 23 -9 44 11 44 41 0 31 12 54 68 127 79 103 120 244 75 260
-10 3 -24 9 -30 12 -9 4 -13 -6 -13 -33z" id="node25" class="node"></path>
<path d="M418 938 c-42 -22 -50 -51 -20 -67 14 -7 28 -5 52 8 40 21 55 42 47
65 -8 20 -32 19 -79 -6z" id="node26" class="node"></path>
<path d="M458 862 c-39 -24 -39 -62 0 -62 39 0 74 27 70 53 -4 28 -34 31 -70
9z" id="node27" class="node"></path>
<path d="M720 511 c0 -4 14 -40 31 -80 34 -75 53 -87 94 -57 18 13 18 16 -15
80 -33 64 -35 66 -72 66 -21 0 -38 -4 -38 -9z" id="node28" class="node"></path>
<path d="M662 471 c-23 -32 -28 -60 -13 -77 5 -5 14 -26 21 -46 15 -49 24 -53
59 -29 l29 21 -19 43 c-11 23 -27 59 -37 80 l-17 38 -23 -30z" id="node29" class="node"></path>
</g>
</svg>