<!--?xml version="1.0" standalone="no"?-->

<svg version="1.0" xmlns="http://www.w3.org/2000/svg" width="291.000000pt" height="300.000000pt" viewBox="0 0 291.000000 300.000000" preserveAspectRatio="xMidYMid meet">
<g transform="translate(0.000000,300.000000) scale(0.100000,-0.100000)" fill="#4D4D4D" stroke="none">
<path d="M1555 2728 c-3 -7 -4 -180 -3 -383 l3 -370 65 -1 c36 -1 156 -2 268
-3 l202 -1 0 -197 c0 -109 -3 -207 -6 -219 -3 -11 -20 -28 -38 -38 -46 -24
-73 -79 -74 -145 -1 -30 -5 -58 -11 -64 -16 -16 -134 -36 -179 -30 -46 6 -47
13 -17 73 25 50 37 171 25 266 -15 122 -54 185 -162 266 -66 50 -120 63 -258
63 -121 0 -127 -1 -192 -33 l-67 -33 -63 64 c-85 87 -178 132 -316 154 -96 16
-106 16 -180 -1 -72 -17 -155 -52 -228 -97 -67 -41 -145 -195 -159 -315 -10
-93 28 -253 76 -312 27 -33 61 -84 57 -86 -1 -1 -30 -8 -63 -16 -85 -18 -105
-33 -105 -76 0 -19 9 -52 19 -73 18 -34 18 -40 5 -53 -10 -10 -17 -43 -21 -94
-4 -52 -12 -90 -25 -111 -22 -37 -18 -62 13 -81 27 -17 56 -7 73 26 l14 26 10
-38 c17 -60 63 -84 97 -49 17 16 16 62 -2 110 -4 10 9 1 29 -19 37 -39 56 -45
89 -28 13 7 19 21 19 45 0 27 -8 40 -40 68 -42 35 -51 57 -25 57 21 0 64 29
76 52 7 13 5 26 -8 48 -24 41 -63 41 -96 -1 -21 -27 -25 -28 -36 -15 -8 9 -26
16 -41 16 -62 0 -88 12 -104 45 -23 48 -20 90 7 108 12 8 50 18 84 22 l61 7
70 -74 c165 -174 212 -247 233 -362 20 -115 28 -135 53 -142 21 -5 24 -13 30
-81 9 -107 8 -213 -2 -213 -9 0 -63 23 -97 42 -11 6 -51 13 -90 16 -56 3 -87
-1 -158 -23 -96 -29 -160 -61 -151 -76 3 -5 123 -9 269 -9 l264 0 -4 28 c-2
15 -7 91 -10 170 l-6 142 31 0 31 0 -7 -142 c-4 -79 -10 -153 -15 -165 -5 -12
-5 -25 0 -27 6 -4 404 -9 499 -6 27 0 9 20 -40 46 -73 36 -163 64 -210 64 -47
0 -137 -24 -190 -51 l-38 -19 0 32 c0 18 7 83 15 143 8 61 15 116 15 123 0 6
8 12 17 12 45 0 232 70 349 130 186 96 420 280 494 387 l33 48 86 0 c59 0 101
6 133 19 44 17 50 17 80 2 74 -36 71 -26 67 -218 -4 -161 -3 -173 14 -176 10
-2 29 -1 43 2 l24 6 0 169 0 169 30 7 c40 9 60 30 60 65 0 16 5 32 10 35 6 3
10 17 10 30 0 13 -4 27 -10 30 -5 3 -10 21 -10 38 0 45 -13 60 -52 61 l-33 1
0 83 c0 45 2 152 3 237 l2 155 290 0 290 0 2 355 c1 195 2 365 2 378 1 21 -3
22 -69 23 -38 0 -307 4 -597 8 -438 6 -529 5 -533 -6z m1178 -28 c5 -4 6 -167
2 -360 l-8 -353 -567 5 c-313 3 -573 8 -578 12 -7 4 -11 130 -11 356 l-1 349
42 3 c93 7 1114 -4 1121 -12z m-1952 -640 c50 -11 109 -30 131 -41 57 -29 122
-92 167 -162 38 -57 40 -58 43 -31 2 24 13 34 63 59 53 25 73 30 168 33 94 4
115 1 170 -19 102 -38 162 -86 204 -163 26 -48 27 -59 28 -181 0 -121 -2 -136
-30 -208 -55 -144 -212 -294 -465 -447 -122 -74 -178 -101 -270 -133 -141 -48
-179 -57 -244 -57 -74 0 -64 -12 -86 109 -6 35 -15 71 -20 80 -5 9 -18 36 -28
61 -21 48 -51 86 -177 220 -125 132 -153 170 -190 246 -79 165 -70 311 29 477
36 60 115 115 216 150 93 33 167 34 291 7z m1366 -217 c-4 -71 -7 -182 -7
-247 0 -108 -2 -118 -15 -100 -12 15 -14 62 -15 247 0 226 0 227 22 227 21 0
21 -2 15 -127z m-28 -403 c13 -61 7 -80 -28 -80 -33 0 -51 17 -51 48 0 13 -4
21 -9 18 -15 -10 1 -56 25 -75 16 -13 24 -29 24 -50 0 -32 -16 -42 -26 -16 -4
8 -12 15 -20 15 -18 0 -52 52 -37 57 7 3 9 18 6 41 -5 41 22 87 61 102 30 11
43 -4 55 -60z m101 20 c20 -13 2 -42 -34 -55 -29 -10 -46 3 -46 37 0 24 52 36
80 18z m15 -100 c0 -22 -5 -25 -39 -28 -21 -2 -45 -1 -52 2 -23 9 1 44 33 49
48 7 58 3 58 -23z m-12 -49 c11 -2 8 -36 -5 -49 -29 -29 -118 -3 -105 31 7 19
58 27 110 18z m-102 -64 c26 -21 28 -41 16 -196 -8 -111 -14 -151 -24 -151
-14 0 -15 23 -17 252 -1 60 1 108 4 108 3 -1 12 -6 21 -13z m-1685 -178 c18
-20 18 -21 -6 -40 -14 -10 -37 -19 -52 -19 -21 0 -29 -6 -34 -27 -6 -23 -1
-32 39 -66 45 -38 59 -69 36 -82 -20 -13 -54 5 -82 45 -44 62 -79 52 -51 -15
16 -40 16 -106 -1 -112 -14 -4 -41 44 -49 90 -9 51 -36 49 -58 -4 -12 -29 -22
-40 -35 -37 -26 5 -27 34 -3 68 16 22 19 38 15 64 -7 34 6 73 29 89 8 5 6 10
-4 17 -13 9 -13 11 0 20 15 10 43 7 118 -12 41 -10 45 -9 70 15 32 32 43 33
68 6z" id="node1" class="node" stroke-width="20"></path>
<path d="M815 1921 c-16 -10 -39 -29 -50 -41 l-20 -23 20 8 c11 4 43 16 70 26
28 10 49 20 48 23 -2 3 -3 11 -3 16 0 16 -32 12 -65 -9z" id="node2" class="node" stroke-width="20"></path>
<path d="M1231 1861 c-18 -12 -7 -27 26 -36 15 -3 39 -15 54 -26 44 -31 43 -5
-1 35 -41 37 -55 42 -79 27z" id="node3" class="node" stroke-width="20"></path>
<path d="M779 1837 c-68 -56 -77 -141 -26 -238 37 -72 94 -118 157 -126 53 -7
83 2 124 37 32 29 34 29 65 14 19 -10 58 -15 106 -16 95 0 140 21 174 81 21
39 22 47 11 84 -35 117 -192 158 -306 81 -29 -20 -39 -23 -45 -12 -5 7 -9 16
-9 20 0 4 -12 19 -27 33 -69 65 -174 85 -224 42z m150 -13 c28 -11 51 -32 78
-71 32 -47 38 -64 41 -122 4 -64 2 -71 -25 -101 -40 -44 -107 -47 -175 -8
-100 59 -140 220 -72 293 28 30 91 34 153 9z m368 -71 c92 -43 97 -165 7 -208
-53 -25 -185 -18 -214 11 -24 23 -18 49 12 57 25 7 19 32 -8 32 -27 0 -31 50
-7 77 42 47 145 62 210 31z" id="node4" class="node" stroke-width="20"></path>
<path d="M897 1633 c-4 -3 -7 -15 -7 -25 0 -23 38 -25 47 -2 8 21 -24 43 -40
27z" id="node5" class="node" stroke-width="20"></path>
<path d="M480 1790 c-12 -8 -11 -10 8 -10 25 0 26 -2 11 -69 -16 -77 4 -325
35 -430 37 -120 136 -245 233 -292 87 -42 176 -38 296 15 l39 17 -7 -30 c-4
-18 -3 -31 3 -31 13 0 22 25 22 57 0 22 -3 25 -30 21 -24 -4 -29 -1 -26 11 3
9 8 39 12 66 12 88 16 93 81 99 65 7 179 40 235 67 44 23 125 77 133 90 11 17
-18 9 -49 -14 -53 -40 -157 -86 -246 -108 -87 -22 -142 -21 -340 6 -61 8 -193
67 -228 101 -7 7 -32 29 -57 49 -65 54 -88 108 -89 214 -1 106 7 138 37 144
19 3 18 6 -15 20 -44 20 -39 19 -58 7z m50 -330 c0 -5 14 -25 31 -45 31 -35
32 -37 19 -76 -13 -37 -26 -56 -35 -47 -2 2 -9 30 -14 63 -6 33 -14 72 -17 88
-4 17 -2 27 5 27 6 0 11 -4 11 -10z m200 -167 c31 -17 78 -35 106 -42 40 -10
53 -18 61 -39 10 -24 11 -25 12 -6 1 25 29 40 45 24 5 -5 26 -10 46 -10 56 0
82 -10 74 -29 -6 -15 -15 -57 -29 -138 -7 -41 -40 -59 -125 -69 l-63 -7 7 34
c4 19 9 54 11 79 4 43 4 43 -5 10 -17 -67 -35 -110 -46 -110 -17 0 -107 49
-132 73 -19 17 -22 29 -18 57 5 31 4 32 -6 13 -6 -13 -15 -23 -19 -23 -9 0
-74 106 -83 136 -4 13 1 38 11 60 28 61 34 64 68 39 16 -12 55 -36 85 -52z" id="node6" class="node" stroke-width="20"></path>
<path d="M726 1263 c-12 -13 -46 -96 -41 -101 6 -7 5 -8 33 52 21 45 25 65 8
49z" id="node7" class="node" stroke-width="20"></path>
<path d="M882 1160 c0 -14 2 -19 5 -12 2 6 2 18 0 25 -3 6 -5 1 -5 -13z" id="node8" class="node" stroke-width="20"></path>

















</g>
<g transform="translate(0.000000,300.000000) scale(0.100000,-0.100000)" fill="#FFFFFF" stroke="none">

<path d="M1612 2712 l-42 -3 1 -349 c0 -226 4 -352 11 -356 5 -4 265 -9 578
-12 l567 -5 8 353 c4 193 3 356 -2 360 -7 8 -1028 19 -1121 12z" id="node27" class="node" stroke-width="20"></path>
<path d="M490 2053 c-173 -60 -260 -164 -291 -347 -16 -95 -2 -179 46 -280 37
-76 65 -114 190 -246 126 -134 156 -172 177 -220 10 -25 23 -52 28 -61 5 -9
14 -45 20 -80 22 -121 12 -109 86 -109 65 0 103 9 244 57 92 32 148 59 270
133 253 153 410 303 465 447 28 72 30 87 30 208 -1 122 -2 133 -28 181 -42 77
-102 125 -204 163 -55 20 -76 23 -170 19 -95 -3 -115 -8 -168 -33 -50 -25 -61
-35 -63 -59 -3 -27 -5 -26 -43 31 -45 70 -110 133 -167 162 -56 28 -209 61
-284 61 -42 0 -89 -9 -138 -27z m390 -123 c0 -5 1 -13 3 -16 1 -3 -20 -13 -48
-23 -27 -10 -59 -22 -70 -26 l-20 -8 20 23 c39 45 115 78 115 50z m430 -96
c44 -40 45 -66 1 -35 -15 11 -39 23 -54 26 -33 9 -44 24 -26 36 24 15 38 10
79 -27z m-374 7 c39 -20 94 -65 94 -79 0 -4 4 -13 9 -20 6 -11 16 -8 45 12
114 77 271 36 306 -81 11 -37 10 -45 -11 -84 -34 -60 -79 -81 -174 -81 -48 1
-87 6 -106 16 -31 15 -33 15 -65 -14 -41 -35 -71 -44 -124 -37 -127 17 -230
200 -174 310 39 76 117 98 200 58z m-398 -58 c33 -14 34 -17 15 -20 -30 -6
-38 -38 -37 -144 1 -106 24 -160 89 -214 25 -20 50 -42 57 -49 35 -34 167 -93
228 -101 198 -27 253 -28 340 -6 89 22 193 68 246 108 31 23 60 31 49 14 -8
-13 -89 -67 -133 -90 -56 -27 -170 -60 -235 -67 -65 -6 -69 -11 -81 -99 -4
-27 -9 -57 -12 -66 -3 -12 2 -15 26 -11 27 4 30 1 30 -21 0 -32 -9 -57 -22
-57 -6 0 -7 13 -3 31 l7 30 -39 -17 c-120 -53 -209 -57 -296 -15 -97 47 -196
172 -233 292 -31 105 -51 353 -35 430 15 67 14 69 -11 69 -19 0 -20 2 -8 10
19 12 14 13 58 -7z" id="node28" class="node" stroke-width="20"></path>
<path d="M776 1815 c-68 -73 -28 -234 72 -293 68 -39 135 -36 175 8 27 30 29
37 25 101 -3 58 -9 75 -41 122 -43 63 -89 87 -163 87 -35 0 -50 -5 -68 -25z
m153 -184 c19 -12 6 -41 -19 -41 -13 0 -20 7 -20 18 0 31 14 39 39 23z" id="node29" class="node" stroke-width="20"></path>
<path d="M1135 1755 c-44 -19 -67 -49 -63 -82 2 -20 9 -28 22 -28 27 0 33 -25
8 -32 -30 -8 -36 -34 -12 -57 29 -29 161 -36 214 -11 90 43 85 165 -7 208 -41
20 -120 21 -162 2z" id="node30" class="node" stroke-width="20"></path>
<path d="M514 1443 c3 -16 11 -55 17 -88 5 -33 12 -61 14 -63 9 -9 22 10 35
47 13 39 12 41 -19 76 -17 20 -31 40 -31 45 0 6 -5 10 -11 10 -7 0 -9 -10 -5
-27z" id="node31" class="node" stroke-width="20"></path>
<path d="M605 1356 c-23 -25 -45 -89 -39 -110 9 -30 74 -136 83 -136 4 0 13
10 19 23 10 19 11 18 6 -13 -4 -28 -1 -40 18 -57 25 -24 115 -73 132 -73 11 0
29 43 46 110 9 33 9 33 5 -10 -2 -25 -7 -60 -11 -79 l-7 -34 63 7 c85 10 118
28 125 69 14 81 23 123 29 138 8 19 -18 29 -74 29 -20 0 -41 5 -46 10 -16 16
-44 1 -45 -24 -1 -19 -2 -18 -12 6 -8 21 -21 29 -61 39 -52 12 -138 55 -191
94 -22 16 -33 19 -40 11z m113 -142 c-28 -60 -27 -59 -33 -52 -5 5 29 88 41
101 17 16 13 -4 -8 -49z m169 -66 c-3 -7 -5 -2 -5 12 0 14 2 19 5 13 2 -7 2
-19 0 -25z" id="node32" class="node" stroke-width="20"></path>
<path d="M2110 1743 c1 -185 3 -232 15 -247 13 -18 15 -8 15 100 0 65 3 176 7
247 6 125 6 127 -15 127 -22 0 -22 -1 -22 -227z" id="node33" class="node" stroke-width="20"></path>
<path d="M2064 1500 c-39 -15 -66 -61 -61 -102 3 -23 1 -38 -6 -41 -15 -5 19
-57 37 -57 8 0 16 -7 20 -15 10 -26 26 -16 26 16 0 21 -8 37 -24 50 -24 19
-40 65 -25 75 5 3 9 -5 9 -18 0 -31 18 -48 51 -48 35 0 41 19 28 80 -12 56
-25 71 -55 60z" id="node34" class="node" stroke-width="20"></path>
<path d="M2158 1463 c-19 -5 -23 -29 -8 -53 11 -18 57 -4 74 23 18 28 -16 43
-66 30z" id="node35" class="node" stroke-width="20"></path>
<path d="M2177 1383 c-32 -5 -56 -40 -33 -49 7 -3 31 -4 52 -2 34 3 39 6 39
28 0 26 -10 30 -58 23z" id="node36" class="node" stroke-width="20"></path>
<path d="M2142 1312 c-31 -5 -40 -31 -17 -48 23 -17 77 -18 93 -2 13 13 16 47
5 49 -20 4 -60 4 -81 1z" id="node37" class="node" stroke-width="20"></path>
<path d="M2096 1152 c2 -229 3 -252 17 -252 10 0 16 40 24 151 7 82 9 158 6
167 -6 16 -32 41 -43 42 -3 0 -5 -48 -4 -108z" id="node38" class="node" stroke-width="20"></path>
<path d="M368 1063 c-25 -24 -29 -25 -70 -15 -75 19 -103 22 -118 12 -13 -9
-13 -11 0 -20 10 -7 12 -12 4 -17 -23 -16 -36 -55 -29 -89 4 -26 1 -42 -15
-64 -24 -34 -23 -63 3 -68 13 -3 23 8 35 37 22 53 49 55 58 4 8 -46 35 -94 49
-90 17 6 17 72 1 112 -28 67 7 77 51 15 28 -40 62 -58 82 -45 23 13 9 44 -36
82 -40 34 -45 43 -39 66 5 21 13 27 34 27 15 0 38 9 52 19 24 19 24 20 6 40
-25 27 -36 26 -68 -6z" id="node39" class="node" stroke-width="20"></path>

</g>
</svg>