<!--?xml version="1.0" standalone="no"?-->

<svg version="1.0" xmlns="http://www.w3.org/2000/svg" width="300.000000pt" height="241.000000pt" viewBox="0 0 300.000000 241.000000" preserveAspectRatio="xMidYMid meet">
<g transform="translate(0.000000,241.000000) scale(0.100000,-0.100000)" fill="#2D2C2C" stroke="none">
<path class="node" id="node1" d="M0 2372 c0 -42 38 -163 80 -254 81 -174 150 -270 260 -360 149 -123
219 -142 495 -137 445 9 553 6 655 -20 52 -13 117 -35 145 -48 54 -28 161
-131 148 -143 -4 -5 -44 -4 -88 2 -126 17 -284 -9 -393 -63 -158 -79 -252
-218 -270 -395 -13 -124 7 -202 91 -345 90 -156 309 -305 552 -375 97 -28 106
-29 320 -28 242 0 281 6 509 80 231 74 422 198 475 307 46 95 18 164 -84 211
-62 28 -101 75 -150 181 -44 93 -54 156 -61 370 -9 279 -34 372 -124 465 -52
54 -108 83 -188 99 -153 31 -314 -6 -435 -101 -37 -29 -106 -122 -121 -163
-13 -36 -25 5 -32 116 -11 176 7 241 114 399 31 46 25 79 -17 107 -70 47 -145
21 -175 -60 -12 -34 -50 -200 -73 -316 -4 -24 -4 -24 -32 10 -32 38 -159 138
-206 162 -64 32 -213 69 -310 78 -55 4 -127 13 -160 20 -46 9 -89 9 -195 -1
-234 -22 -310 -23 -405 -5 -151 28 -216 65 -272 157 -32 52 -53 72 -53 50z
m1841 -132 c23 -13 25 -45 3 -54 -8 -3 -25 -1 -36 5 -26 14 -35 3 -19 -23 12
-19 11 -23 -9 -38 -18 -13 -20 -19 -9 -23 11 -5 10 -8 -4 -17 -14 -9 -16 -15
-7 -25 9 -11 8 -26 -7 -62 -25 -66 -25 -335 0 -403 27 -73 22 -77 -44 -26 -60
46 -182 88 -321 111 -46 7 -48 17 -5 44 50 32 7 26 -62 -8 -57 -29 -60 -30
-267 -35 -125 -3 -200 -1 -187 4 11 5 43 25 70 46 26 20 72 50 101 66 28 17
52 34 52 39 0 12 -129 -53 -182 -91 -52 -38 -138 -70 -189 -70 -73 0 -184 22
-219 43 l-34 21 54 17 c62 19 124 49 116 56 -2 3 -33 -5 -68 -17 -113 -39
-181 -17 -287 96 -67 70 -151 209 -151 249 0 16 20 20 35 6 31 -27 202 -61
313 -61 69 0 91 -4 132 -25 28 -14 50 -30 50 -35 0 -6 9 -10 20 -10 28 0 25
11 -10 45 -17 16 -26 33 -22 37 5 5 60 11 123 15 152 8 203 -4 269 -64 42 -38
50 -42 50 -25 0 12 -4 24 -10 27 -5 3 -10 13 -10 21 0 19 38 18 125 -2 39 -10
86 -21 105 -25 53 -13 151 -75 219 -140 93 -88 86 -90 -74 -19 -64 29 -205 64
-300 75 -27 3 -172 10 -322 15 -220 7 -278 12 -303 25 -33 17 -131 45 -153 45
-20 -1 62 -41 138 -67 63 -23 93 -26 300 -33 308 -11 469 -30 510 -60 6 -4 46
-22 90 -40 170 -69 252 -125 302 -206 10 -17 12 -14 12 23 1 23 -6 63 -15 88
-18 56 -15 183 9 320 18 107 24 123 50 153 22 24 47 28 78 12z m612 -405 c44
-21 67 -41 98 -83 64 -90 71 -125 79 -412 11 -354 29 -425 141 -542 41 -43 75
-69 94 -73 76 -16 81 -41 21 -123 -37 -49 -63 -71 -140 -117 -100 -59 -196
-99 -286 -120 -138 -33 -301 -57 -389 -57 -88 0 -262 25 -364 53 -64 17 -251
114 -328 171 -83 60 -183 172 -210 235 -30 71 -43 171 -30 231 10 51 83 184
124 230 57 63 222 122 340 122 71 0 207 -24 281 -50 33 -11 71 -20 85 -20 49
0 122 34 157 72 29 33 34 45 34 89 0 57 -11 85 -49 116 -35 30 -85 30 -116 -1
-29 -29 -42 -73 -26 -89 8 -8 11 -6 11 9 0 30 20 44 62 44 31 0 40 -5 53 -30
8 -16 15 -39 15 -52 -1 -48 -63 -98 -123 -98 -30 0 -44 7 -68 33 -39 42 -71
109 -76 161 -10 88 90 232 201 288 86 44 106 48 236 44 101 -3 122 -7 173 -31z"></path>
<path class="node" id="node2" d="M2553 1490 c3 -27 -3 -124 -14 -217 -31 -257 -34 -336 -15 -432 19
-100 10 -148 -37 -198 -57 -61 -232 -127 -427 -160 -218 -37 -477 35 -622 174
-37 36 -58 37 -58 4 0 -32 90 -130 151 -166 32 -19 111 -52 176 -75 211 -73
413 -75 677 -8 161 41 366 130 423 184 65 62 59 84 -50 161 -62 44 -101 104
-137 211 -30 89 -30 92 -30 305 0 209 -7 267 -31 267 -8 0 -10 -15 -6 -50z"></path>
<path class="node" id="node3" d="M1549 1249 c-169 -40 -320 -197 -253 -263 27 -27 56 -18 103 32 59
63 75 70 167 82 81 10 116 26 134 60 13 25 7 49 -21 78 -21 24 -63 27 -130 11z
m114 -23 c25 -19 22 -63 -5 -80 -13 -8 -52 -17 -88 -21 -90 -10 -128 -28 -181
-85 -66 -71 -99 -64 -77 17 19 69 117 141 230 168 69 17 99 17 121 1z"></path>
<path class="node" id="node4" d="M1822 1249 c-24 -9 -36 -40 -27 -69 13 -41 96 -35 110 9 14 44 -34
78 -83 60z m52 -35 c9 -22 -1 -34 -29 -34 -26 0 -39 22 -22 39 16 16 44 14 51
-5z"></path>














</g>
<g transform="translate(0.000000,241.000000) scale(0.100000,-0.100000)" fill="#FFFFFF" stroke="none">


<path class="node" id="node21" d="M736 111 c-4 -7 -5 -15 -2 -18 9 -9 19 4 14 18 -4 11 -6 11 -12 0z"></path>
<path class="node" id="node22" d="M796 111 c-4 -7 -5 -15 -2 -18 9 -9 19 4 14 18 -4 11 -6 11 -12 0z"></path>
<path class="node" id="node23" d="M1954 109 c-3 -6 -1 -16 5 -22 8 -8 11 -5 11 11 0 24 -5 28 -16 11z"></path>
<path class="node" id="node24" d="M1672 100 c0 -14 2 -19 5 -12 2 6 2 18 0 25 -3 6 -5 1 -5 -13z"></path>
<path class="node" id="node25" d="M1730 100 c0 -11 5 -20 10 -20 6 0 10 9 10 20 0 11 -4 20 -10 20 -5
0 -10 -9 -10 -20z"></path>
<path class="node" id="node26" d="M1792 100 c0 -14 2 -19 5 -12 2 6 2 18 0 25 -3 6 -5 1 -5 -13z"></path>
<path class="node" id="node27" d="M2160 99 c0 -11 4 -18 10 -14 5 3 7 12 3 20 -7 21 -13 19 -13 -6z"></path>
<path class="node" id="node28" d="M1763 2228 c-26 -30 -32 -46 -50 -153 -24 -137 -27 -264 -9 -320 9
-25 16 -65 15 -88 0 -37 -2 -40 -12 -23 -50 81 -132 137 -302 206 -44 18 -84
36 -90 40 -41 30 -202 49 -510 60 -207 7 -237 10 -300 33 -76 26 -158 66 -138
67 22 0 120 -28 153 -45 25 -13 83 -18 303 -25 150 -5 295 -12 322 -15 95 -11
236 -46 300 -75 113 -50 135 -58 135 -49 0 19 -121 126 -184 163 -33 20 -77
40 -96 45 -19 4 -66 15 -105 25 -87 20 -125 21 -125 2 0 -8 5 -18 10 -21 6 -3
10 -15 10 -27 0 -17 -8 -13 -50 25 -66 60 -117 72 -269 64 -63 -4 -118 -10
-123 -15 -4 -4 5 -21 22 -37 35 -34 38 -45 10 -45 -11 0 -20 4 -20 10 0 5 -22
21 -50 35 -41 21 -63 25 -132 25 -111 0 -282 34 -313 61 -15 14 -35 10 -35 -6
0 -40 84 -179 151 -249 106 -113 174 -135 287 -96 35 12 66 20 68 17 8 -7 -54
-37 -116 -56 l-54 -17 34 -21 c35 -21 146 -43 219 -43 51 0 137 32 189 70 53
38 182 103 182 91 0 -5 -24 -22 -52 -39 -29 -16 -75 -46 -101 -66 -27 -21 -59
-41 -70 -46 -13 -5 62 -7 187 -4 207 5 210 6 267 35 69 34 112 40 62 8 -43
-27 -41 -37 5 -44 139 -23 261 -65 321 -111 66 -51 71 -47 44 26 -25 68 -25
337 0 403 15 36 16 51 7 62 -9 10 -7 16 7 25 14 9 15 12 4 17 -11 4 -9 10 9
23 20 15 21 19 9 38 -16 26 -7 37 19 23 26 -14 52 -4 52 20 0 40 -65 51 -97
17z"></path>
<path class="node" id="node29" d="M2135 1861 c-153 -41 -305 -211 -292 -327 5 -52 37 -119 76 -161 24
-26 38 -33 68 -33 60 0 122 50 123 98 0 13 -7 36 -15 52 -13 25 -22 30 -53 30
-42 0 -62 -14 -62 -44 0 -15 -3 -17 -11 -9 -16 16 -3 60 26 89 31 31 81 31
116 1 38 -31 49 -59 49 -116 0 -44 -5 -56 -34 -89 -35 -38 -108 -72 -157 -72
-14 0 -52 9 -85 20 -74 26 -210 50 -281 50 -118 0 -283 -59 -340 -122 -41 -46
-114 -179 -124 -230 -13 -60 0 -160 30 -231 27 -63 127 -175 210 -235 77 -57
264 -154 328 -171 102 -28 276 -53 364 -53 88 0 251 24 389 57 90 21 186 61
286 120 77 46 103 68 140 117 60 82 55 107 -21 123 -19 4 -53 30 -94 73 -112
117 -130 188 -141 542 -8 287 -15 322 -79 412 -61 84 -122 110 -271 114 -63 2
-128 0 -145 -5z m445 -347 c6 -14 10 -122 10 -241 0 -213 0 -216 30 -305 36
-107 75 -167 137 -211 109 -77 115 -99 50 -161 -57 -54 -262 -143 -423 -184
-264 -67 -466 -65 -677 8 -65 23 -144 56 -176 75 -61 36 -151 134 -151 166 0
33 21 32 58 -4 102 -98 243 -157 424 -178 88 -10 117 -10 198 4 195 33 370 99
427 160 47 50 56 98 37 198 -19 96 -16 175 15 432 11 93 17 190 14 217 -6 55
10 70 27 24z m-901 -276 c28 -29 34 -53 21 -78 -18 -34 -53 -50 -134 -60 -92
-12 -108 -19 -167 -82 -47 -50 -76 -59 -103 -32 -67 66 84 223 253 263 67 16
109 13 130 -11z m222 -10 c23 -42 -23 -87 -75 -74 -27 7 -41 35 -31 67 13 39
86 45 106 7z"></path>
<path class="node" id="node30" d="M1542 1225 c-113 -27 -211 -99 -230 -168 -22 -81 11 -88 77 -17 53
57 91 75 181 85 79 8 110 26 110 62 0 51 -41 62 -138 38z"></path>
<path class="node" id="node31" d="M1823 1219 c-17 -17 -4 -39 22 -39 28 0 38 12 29 34 -7 19 -35 21
-51 5z"></path>
</g>
</svg>