<!--?xml version="1.0" standalone="no"?-->

<svg version="1.0" xmlns="http://www.w3.org/2000/svg" width="293.000000pt" height="300.000000pt" viewBox="0 0 293.000000 300.000000" preserveAspectRatio="xMidYMid meet">
<g transform="translate(0.000000,300.000000) scale(0.100000,-0.100000)" fill="#3D3D3D" stroke="none">
<path class="node" id="node1" d="M36 2405 c16 -41 79 -133 153 -220 155 -183 319 -315 511 -410 49
-25 92 -45 95 -45 3 0 25 -8 48 -19 23 -10 78 -29 122 -41 127 -35 165 -50
201 -82 29 -26 34 -36 34 -75 0 -48 -25 -109 -73 -178 -92 -132 -125 -192
-133 -245 -5 -28 -10 -38 -17 -31 -13 13 7 108 27 131 31 34 78 143 83 193 9
92 -21 130 -136 171 -101 36 -328 151 -432 219 -173 113 -344 284 -417 418
-39 73 -63 95 -35 32 74 -162 251 -353 453 -487 115 -77 351 -192 440 -216 48
-13 118 -76 103 -91 -14 -14 -160 15 -223 43 -57 26 -110 71 -110 94 0 8 -5
14 -11 14 -11 0 -3 -37 13 -57 18 -23 -23 -15 -92 18 -72 34 -108 62 -121 97
-5 12 -16 22 -25 22 -24 0 -169 117 -249 201 -79 84 -150 186 -167 242 -10 34
-28 51 -28 26 0 -21 45 -116 82 -173 79 -120 178 -217 333 -325 33 -23 82 -60
109 -81 30 -23 78 -47 120 -61 39 -12 98 -35 131 -50 61 -30 142 -49 201 -49
37 0 47 -10 37 -35 -5 -16 -18 -17 -107 -13 -96 5 -133 15 -196 51 -14 8 -58
22 -98 31 -90 20 -158 63 -171 109 -7 25 -9 27 -10 10 -1 -13 -3 -23 -6 -23
-2 0 -33 19 -67 43 -126 85 -270 249 -291 332 -4 17 -5 17 -6 -3 -2 -35 42
-119 96 -187 70 -86 230 -212 280 -219 8 -1 18 -7 21 -12 19 -28 94 -65 161
-80 42 -9 94 -28 115 -42 41 -25 153 -49 219 -47 37 2 45 -7 28 -34 -7 -11
-27 -12 -97 -7 -91 7 -158 29 -183 59 -7 10 -28 17 -45 17 -84 1 -187 47 -206
93 l-9 22 0 -22 c-1 -21 -2 -21 -36 -7 -85 35 -240 165 -251 211 -4 13 -10 23
-15 23 -13 0 -12 -3 13 -50 40 -75 139 -154 283 -226 104 -52 143 -66 194 -71
44 -4 70 -12 83 -25 31 -31 86 -49 165 -55 75 -6 79 -8 64 -32 -14 -22 -179
-11 -213 14 -15 11 -29 27 -31 35 -2 8 -3 5 -2 -7 2 -20 -2 -23 -34 -23 -82 0
-170 48 -172 93 0 12 -3 16 -6 10 -7 -20 -30 -16 -92 18 -71 37 -128 83 -151
122 -10 16 -20 24 -24 19 -8 -14 44 -83 90 -119 42 -32 138 -83 158 -83 7 0
22 -12 35 -26 30 -35 80 -54 159 -60 37 -3 81 -12 99 -20 17 -8 61 -14 97 -14
53 0 64 -3 60 -15 -16 -41 -144 -44 -177 -3 -17 21 -19 21 -15 3 4 -26 -37
-31 -109 -15 -38 8 -62 21 -87 48 -37 37 -48 34 -20 -6 20 -28 15 -28 -60 7
-78 36 -128 79 -155 134 -23 46 -29 25 -7 -26 34 -80 115 -132 270 -172 75
-19 113 -23 219 -21 98 1 127 -2 127 -12 0 -29 -81 -39 -135 -17 -18 8 -18 7
-7 -8 12 -14 9 -17 -28 -27 -54 -15 -88 -6 -128 31 -34 32 -42 28 -16 -9 14
-21 14 -22 -9 -22 -69 0 -173 57 -208 114 -11 18 -19 24 -19 15 0 -25 42 -81
79 -106 19 -13 57 -30 84 -38 65 -19 213 -19 247 0 14 8 42 14 62 15 20 0 48
4 62 10 22 8 27 5 45 -24 12 -18 21 -40 21 -48 0 -38 75 -162 135 -222 109
-112 213 -161 336 -161 70 1 84 4 164 44 114 56 206 145 258 250 20 41 37 81
37 90 0 10 10 31 23 48 17 23 26 28 42 22 11 -4 37 -8 58 -8 21 -1 52 -8 69
-17 25 -13 52 -15 132 -12 140 7 223 45 262 120 21 40 17 58 -5 23 -10 -16
-27 -38 -37 -47 -30 -26 -131 -68 -165 -68 l-29 0 17 26 c17 27 17 27 -4 15
-12 -6 -24 -15 -28 -20 -13 -22 -73 -32 -115 -21 -34 9 -39 14 -30 26 8 9 9
14 2 14 -6 0 -14 -4 -17 -10 -7 -11 -48 -13 -94 -4 -24 5 -31 12 -31 31 0 20
3 22 18 14 26 -14 230 -11 282 4 25 7 63 16 84 20 55 9 153 60 188 98 33 35
58 86 57 114 0 13 -3 11 -10 -7 -26 -65 -81 -114 -175 -156 -44 -19 -55 -21
-50 -9 3 8 9 22 13 31 3 9 -10 1 -31 -19 -25 -25 -52 -39 -89 -47 -69 -16
-113 -11 -109 12 2 14 -2 13 -22 -7 -28 -28 -66 -32 -127 -14 -66 20 -58 39
17 39 35 0 81 7 101 15 19 8 54 15 77 15 60 0 116 18 156 49 19 15 67 42 105
60 39 19 87 47 108 63 43 34 103 116 92 126 -4 4 -10 0 -13 -8 -17 -52 -200
-178 -243 -167 -12 3 -19 0 -19 -8 0 -37 -96 -85 -171 -85 -32 0 -36 3 -34 23
1 12 0 15 -2 7 -2 -8 -18 -25 -36 -38 -28 -19 -47 -22 -119 -22 -69 0 -87 3
-92 16 -9 24 -9 24 39 24 70 0 141 19 182 49 27 19 56 30 98 34 45 6 93 24
193 73 113 56 144 77 205 138 63 62 111 136 87 136 -4 0 -10 -10 -14 -23 -11
-46 -164 -175 -248 -210 -34 -14 -38 -14 -38 -1 0 10 -9 5 -25 -14 -31 -37
-88 -61 -166 -69 -46 -5 -67 -12 -89 -33 -33 -31 -60 -38 -173 -47 -62 -5 -81
-3 -88 8 -20 32 -10 39 59 39 84 1 143 14 190 44 20 12 70 30 111 40 68 15
161 60 161 79 0 4 6 7 14 7 30 0 200 126 261 192 34 38 75 95 90 126 15 31 31
65 36 74 12 23 11 38 -1 38 -5 0 -10 -7 -10 -17 0 -28 -86 -156 -142 -211 -52
-51 -196 -161 -210 -162 -5 0 -8 10 -9 23 l-1 22 -6 -23 c-9 -30 -54 -76 -94
-95 -18 -8 -62 -21 -98 -28 -36 -7 -81 -23 -100 -36 -64 -42 -271 -62 -284
-27 -9 24 2 34 38 34 61 0 140 20 196 48 30 16 77 34 104 41 65 16 134 52 189
98 25 21 78 61 117 88 92 63 222 192 278 273 50 74 90 165 95 219 3 21 2 29 0
18 -3 -11 -8 -24 -13 -30 -4 -5 -10 -22 -13 -36 -11 -43 -105 -179 -176 -253
-76 -79 -239 -209 -252 -200 -5 3 -13 -5 -18 -18 -5 -13 -21 -34 -36 -47 -33
-28 -143 -81 -168 -81 -16 0 -16 2 -1 25 9 13 14 30 12 36 -2 7 -14 -4 -27
-24 -26 -42 -114 -91 -194 -106 -91 -17 -126 -20 -132 -11 -11 17 60 78 105
90 49 13 70 21 205 85 315 149 567 374 687 614 28 58 40 109 12 56 -73 -141
-135 -224 -240 -326 -118 -113 -247 -201 -434 -296 -121 -61 -139 -69 -235
-104 -67 -24 -91 -41 -111 -81 -30 -57 -12 -138 56 -255 40 -69 60 -145 42
-157 -5 -3 -12 12 -16 35 -7 46 -32 99 -76 161 -100 141 -129 199 -130 256 0
37 6 50 33 76 33 33 65 47 197 85 319 93 586 273 802 541 58 72 131 180 125
186 -2 2 -36 -36 -75 -85 -231 -288 -549 -497 -927 -607 -107 -31 -150 -58
-175 -109 -18 -37 -21 -56 -16 -92 8 -62 44 -136 95 -201 44 -55 48 -72 13
-53 -52 28 -231 1 -296 -45 -26 -18 -51 -18 -79 1 -71 46 -226 70 -293 45 -40
-16 -40 -6 -2 40 19 22 50 70 69 107 41 82 47 170 14 215 -25 33 -91 70 -170
92 -390 113 -722 335 -949 636 -63 83 -69 90 -60 65z m1324 -1197 c30 -10 65
-26 78 -34 19 -13 26 -13 51 1 165 85 325 78 393 -17 20 -28 23 -45 22 -113 0
-70 -4 -88 -33 -145 -48 -93 -146 -187 -245 -236 -73 -36 -87 -39 -161 -39
-74 0 -88 3 -161 39 -99 49 -197 143 -245 236 -29 58 -33 74 -33 147 -1 68 3
86 20 110 59 79 181 99 314 51z"></path>
<path class="node" id="node2" d="M42 2170 c0 -14 2 -19 5 -12 2 6 2 18 0 25 -3 6 -5 1 -5 -13z"></path>
<path class="node" id="node3" d="M91 1944 c0 -11 3 -14 6 -6 3 7 2 16 -1 19 -3 4 -6 -2 -5 -13z"></path>
<path class="node" id="node4" d="M2825 1951 c-3 -5 -1 -12 5 -16 5 -3 10 1 10 9 0 18 -6 21 -15 7z"></path>
<path class="node" id="node5" d="M491 1684 c0 -11 3 -14 6 -6 3 7 2 16 -1 19 -3 4 -6 -2 -5 -13z"></path>
<path class="node" id="node6" d="M2431 1684 c0 -11 3 -14 6 -6 3 7 2 16 -1 19 -3 4 -6 -2 -5 -13z"></path>



</g>
<g transform="translate(0.000000,300.000000) scale(0.100000,-0.100000)" fill="#FFFFFF" stroke="none">

<path class="node" id="node11" d="M1175 1231 c-51 -8 -101 -37 -129 -74 -17 -24 -21 -42 -20 -110 0
-73 4 -89 33 -147 48 -93 146 -187 245 -236 73 -36 87 -39 161 -39 74 0 88 3
161 39 99 49 197 143 245 236 29 57 33 75 33 145 1 68 -2 85 -22 113 -68 95
-228 102 -393 17 -25 -14 -32 -14 -51 -1 -66 42 -188 69 -263 57z"></path>
</g>
</svg>