<!--?xml version="1.0" standalone="no"?-->

<svg version="1.0" xmlns="http://www.w3.org/2000/svg" width="266.000000pt" height="300.000000pt" viewBox="0 0 266.000000 300.000000" preserveAspectRatio="xMidYMid meet">
<g transform="translate(0.000000,300.000000) scale(0.100000,-0.100000)" fill="#D15552" stroke="none">
<path d="M987 2954 c-2 -3 -32 -9 -67 -15 -55 -9 -152 -49 -218 -90 -37 -23
-120 -133 -148 -195 -14 -33 -32 -74 -40 -91 -8 -18 -23 -65 -34 -105 -46
-176 -79 -238 -139 -258 -61 -20 -104 -7 -140 42 -17 23 -31 35 -31 26 0 -8 9
-27 21 -42 27 -35 9 -33 -29 2 -56 53 -56 138 1 172 34 21 53 9 22 -13 -19
-15 -34 -97 -16 -97 6 0 11 12 11 28 0 44 26 74 63 70 27 -2 33 -8 35 -31 2
-16 -1 -34 -7 -41 -17 -20 0 -28 21 -9 43 39 4 119 -64 130 -77 12 -130 -37
-130 -121 1 -102 62 -156 177 -156 83 0 115 21 169 109 25 42 46 87 46 100 0
40 62 223 93 275 51 88 117 166 157 186 63 32 66 23 12 -31 -81 -81 -162 -254
-162 -346 0 -50 17 -39 25 14 20 137 159 279 333 343 53 19 74 22 135 16 142
-13 254 -64 318 -146 68 -86 62 -243 -13 -332 -36 -44 -45 -78 -20 -78 15 0
61 65 84 118 17 36 22 68 22 137 1 78 -3 99 -29 160 -36 83 -133 186 -205 217
-66 29 -241 64 -253 52z m158 -60 c41 -8 155 -63 155 -76 0 -5 -8 -7 -18 -4
-61 20 -145 40 -192 47 -97 13 -210 -29 -332 -124 -52 -39 -48 -14 5 34 122
112 242 151 382 123z" id="node1" class="node"></path>
<path d="M1112 2675 c-79 -34 -130 -92 -165 -186 -17 -45 -19 -47 -70 -53 -47
-6 -126 -39 -165 -69 -49 -38 -116 -121 -144 -177 -29 -61 -31 -72 -32 -185
-1 -117 0 -122 32 -187 21 -44 56 -90 103 -137 39 -39 75 -71 80 -71 4 0 36
-26 70 -57 33 -32 76 -67 94 -78 18 -11 75 -49 125 -85 276 -195 305 -223 335
-322 39 -123 18 -294 -39 -331 -37 -24 -96 -39 -131 -33 -20 4 -49 23 -74 47
-38 38 -41 45 -39 89 3 71 37 109 104 116 63 8 84 -9 84 -69 1 -39 2 -41 15
-23 42 56 0 126 -74 126 -92 0 -161 -69 -161 -161 0 -113 178 -216 281 -164
59 31 131 98 150 140 26 59 34 147 19 203 -19 70 -64 124 -200 239 -37 31
-156 113 -165 113 -12 0 -130 97 -205 167 -89 83 -133 158 -170 288 -25 88
-26 197 -2 241 66 122 260 140 328 32 37 -58 42 -127 14 -172 -12 -21 -30 -36
-40 -36 -10 0 -22 -4 -25 -10 -3 -5 -20 -10 -36 -10 -67 0 -104 89 -58 139 25
27 19 38 -10 19 -31 -19 -45 -70 -31 -112 15 -48 43 -68 97 -73 53 -5 98 18
136 68 28 38 27 131 -2 187 -34 66 -88 95 -181 96 -61 1 -84 -3 -123 -24 -67
-34 -123 -97 -132 -149 -4 -22 -11 -43 -16 -47 -12 -7 -11 -176 1 -209 16 -42
1 -48 -28 -13 -15 18 -30 35 -33 38 -16 12 -47 89 -53 130 -3 25 -8 60 -12 77
-7 42 10 131 36 187 11 25 20 48 20 51 0 14 77 88 125 119 56 37 109 51 207
55 54 2 75 -2 118 -24 28 -14 53 -32 57 -40 3 -8 10 -15 17 -15 16 -1 133
-153 230 -300 66 -100 92 -130 126 -149 53 -30 122 -31 177 -3 81 42 103 76
103 158 0 52 -3 59 -38 94 -46 46 -96 59 -149 39 -20 -8 -38 -21 -41 -29 -4
-12 -2 -13 9 -2 7 6 34 12 59 12 154 0 94 -205 -64 -218 -48 -4 -55 -1 -82 26
-20 19 -40 60 -59 114 -35 104 -85 203 -129 254 -19 23 -69 59 -114 83 -94 51
-127 89 -124 145 1 32 9 48 39 78 33 32 46 39 86 40 39 2 52 -2 73 -24 35 -34
28 -78 -12 -78 -15 0 -23 -4 -19 -11 7 -10 63 -3 77 10 5 4 10 21 12 39 4 35
-8 49 -66 75 -44 20 -82 21 -126 2z m-92 -222 c0 -7 -9 -13 -20 -13 -19 0 -21
17 -10 70 1 9 29 -45 30 -57z m198 -118 c21 -14 49 -39 61 -56 29 -39 94 -169
88 -176 -3 -2 -24 24 -48 59 -23 35 -69 93 -102 131 -62 71 -62 84 1 42z m530
-330 c-6 -50 -27 -74 -93 -105 -43 -21 -95 -26 -95 -10 0 6 8 10 19 10 56 0
131 59 152 118 16 45 22 40 17 -13z m-1008 -200 c0 -14 18 -63 39 -110 37 -79
41 -106 11 -70 -7 8 -19 15 -26 15 -25 0 -44 56 -44 130 0 45 4 69 10 65 6 -3
10 -17 10 -30z m721 -778 c42 -98 20 -214 -54 -287 -36 -35 -57 -40 -33 -7 41
56 58 111 58 193 0 45 -4 90 -10 100 -5 11 -12 34 -16 53 -6 33 -6 34 13 17
11 -10 29 -41 42 -69z" id="node2" class="node"></path>
<path d="M2142 2622 c-7 -5 20 -13 70 -20 176 -24 258 -103 258 -246 0 -61
-17 -181 -29 -216 -35 -94 -60 -200 -55 -226 7 -37 44 -65 95 -71 36 -5 43 -2
78 34 41 44 51 77 51 174 0 146 -73 367 -153 459 -38 43 -86 77 -135 94 -48
17 -163 29 -180 18z m382 -269 c85 -276 69 -483 -36 -483 -40 0 -53 11 -61 57
-6 28 14 119 31 148 3 5 7 16 8 25 1 8 9 48 19 89 11 47 16 99 13 147 -2 41
-1 74 2 74 3 0 14 -26 24 -57z" id="node3" class="node"></path>
<path d="M1845 2490 c-163 -38 -258 -83 -350 -166 -40 -36 -76 -73 -80 -82 -8
-21 4 -30 18 -12 7 8 31 29 55 45 158 110 225 135 382 142 64 3 133 0 155 -5
113 -29 150 -43 202 -79 32 -22 78 -47 103 -57 l45 -18 28 33 c26 28 29 37 25
81 -11 106 -106 148 -333 147 -107 0 -152 -6 -250 -29z m477 -28 c55 -24 85
-72 74 -116 -13 -53 -58 -53 -131 0 -67 49 -138 76 -285 109 -52 12 -53 17 -5
29 11 3 83 4 160 2 116 -3 148 -7 187 -24z" id="node4" class="node"></path>
<path d="M1747 2329 c-37 -11 -96 -35 -130 -54 -34 -19 -76 -42 -93 -50 -37
-17 -94 -68 -94 -84 0 -14 15 -7 101 50 81 54 168 89 221 89 77 -1 184 -50
255 -117 41 -39 67 -94 93 -198 34 -134 21 -242 -46 -382 -33 -68 -44 -80
-188 -218 -11 -11 -38 -32 -58 -45 -21 -14 -38 -31 -38 -37 0 -7 -4 -13 -9
-13 -9 0 -65 -43 -138 -107 -23 -20 -47 -48 -53 -62 -8 -18 -1 -14 32 19 63
63 277 222 316 234 11 4 38 21 59 37 21 17 56 40 78 51 54 28 139 103 185 164
53 71 114 248 112 327 -1 33 -6 74 -12 92 -6 17 -13 42 -15 55 -2 12 -11 32
-20 44 -8 11 -25 35 -37 52 -19 27 -54 56 -107 89 -9 6 -33 20 -52 33 -20 12
-48 22 -61 22 -14 0 -42 7 -61 15 -49 20 -156 17 -240 -6z m265 -33 c18 -8 58
-24 88 -37 75 -33 171 -129 193 -194 24 -70 22 -196 -4 -265 -11 -30 -27 -73
-35 -95 -14 -40 -69 -111 -129 -168 -30 -29 -85 -62 -85 -52 0 3 14 29 30 59
17 29 42 86 56 127 24 68 26 83 21 189 -5 109 -13 143 -55 240 -31 72 -181
190 -242 190 -10 0 -22 5 -25 10 -10 16 149 12 187 -4z" id="node5" class="node"></path>
<path d="M458 2170 c-7 -11 -22 -20 -34 -20 -12 0 -27 -6 -33 -14 -12 -14 -50
-26 -101 -32 -82 -9 -105 -19 -125 -56 -19 -36 -19 -37 -1 -57 24 -26 77 -37
107 -20 73 38 219 179 219 211 0 15 -20 8 -32 -12z m-114 -102 c-3 -7 -25 -28
-49 -46 -46 -35 -97 -41 -102 -12 -5 26 12 41 63 55 65 17 95 18 88 3z" id="node6" class="node"></path>
<path d="M417 2024 c-4 -4 -7 -14 -7 -23 0 -9 -25 -49 -55 -90 -73 -98 -74
-155 -4 -180 43 -15 44 -15 74 15 25 25 26 28 23 151 -3 117 -10 147 -31 127z
m1 -228 c-10 -40 -22 -50 -52 -42 -31 8 -44 47 -26 81 7 13 27 41 44 62 l31
38 5 -55 c3 -30 2 -68 -2 -84z" id="node7" class="node"></path>
<path d="M203 1881 c-89 -41 -143 -100 -143 -157 0 -41 12 -54 51 -60 24 -3
44 1 67 15 27 18 32 27 32 59 0 35 23 95 50 127 11 14 6 35 -8 35 -4 0 -26 -9
-49 -19z m1 -63 c-4 -13 -10 -41 -13 -62 -8 -51 -48 -84 -81 -66 -34 18 -20
66 32 112 50 44 73 50 62 16z" id="node8" class="node"></path>
<path d="M1314 1594 c-20 -19 -24 -31 -19 -52 7 -30 32 -59 55 -63 29 -6 87
22 98 46 33 72 -76 128 -134 69z m87 -14 c41 -23 13 -74 -38 -68 -20 2 -29 9
-31 26 -6 43 28 64 69 42z" id="node9" class="node"></path>
<path d="M1934 1146 c-78 -34 -98 -142 -34 -176 30 -16 37 -4 13 23 -32 35
-33 52 -7 91 20 30 31 36 59 36 52 0 75 -28 75 -92 0 -60 -14 -82 -90 -139
-39 -30 -51 -34 -105 -33 -65 0 -134 29 -205 86 -68 54 -68 27 -1 -51 78 -90
96 -138 96 -256 0 -74 -5 -112 -18 -145 -28 -69 -84 -145 -134 -180 -24 -18
-42 -34 -39 -37 23 -24 150 100 195 190 49 100 71 183 72 269 l1 77 86 -1 c50
-1 98 3 112 10 67 32 86 51 114 107 26 55 28 64 17 103 -16 61 -37 88 -85 112
-49 23 -78 25 -122 6z m183 -131 c5 -48 -21 -100 -66 -131 -32 -21 -71 -32
-71 -19 0 3 23 27 50 53 42 40 50 54 50 84 0 76 29 86 37 13z m-341 -201 c15
-36 17 -113 4 -154 -7 -21 -8 -17 -9 20 -1 27 -13 70 -31 108 -17 35 -30 65
-30 67 0 1 12 0 26 -3 18 -3 31 -15 40 -38z" id="node10" class="node"></path>
<path d="M945 755 c20 -115 124 -212 279 -260 l41 -12 -80 -37 c-147 -68 -166
-78 -196 -103 -49 -42 -76 -110 -70 -180 2 -24 72 -92 106 -103 54 -18 99 3
116 52 8 26 10 47 3 65 -13 38 -29 38 -29 1 0 -31 -3 -33 -37 -36 -47 -4 -71
9 -90 48 -20 41 -13 71 28 119 33 38 56 51 199 116 224 102 325 213 316 348
-1 21 -31 23 -31 2 0 -24 -35 -87 -62 -112 -31 -29 -108 -69 -155 -82 -27 -7
-57 -6 -106 3 -87 17 -166 75 -210 156 l-29 55 7 -40z m489 -158 c-13 -34
-148 -78 -186 -60 -22 11 -22 12 9 12 18 1 47 7 65 15 18 8 40 17 48 21 8 3
26 12 40 20 28 16 33 14 24 -8z m-444 -449 c14 -18 29 -23 69 -24 69 -2 69 -2
42 -24 -34 -29 -74 -25 -110 11 -17 17 -31 37 -31 45 0 20 9 17 30 -8z" id="node11" class="node"></path>
<path d="M1569 681 c-35 -36 -36 -41 -3 -72 29 -28 99 -33 114 -9 20 31 11 59
-27 85 -21 14 -41 25 -46 25 -5 0 -22 -13 -38 -29z m86 -21 c15 -16 15 -22 5
-35 -15 -18 -64 -20 -78 -2 -9 10 -7 19 4 35 19 27 45 28 69 2z" id="node12" class="node"></path>
<path d="M1488 500 c-22 -18 -23 -18 -4 -39 23 -25 58 -27 77 -5 30 36 -35 75
-73 44z m52 -30 c0 -23 -10 -26 -28 -8 -18 18 -15 28 8 28 13 0 20 -7 20 -20z" id="node13" class="node"></path>
</g>
<g transform="translate(0.000000,300.000000) scale(0.100000,-0.100000)" fill="#8BBDF3" stroke="none">

<path d="M992 2898 c-61 -9 -163 -66 -229 -127 -53 -48 -57 -73 -5 -34 122 95
235 137 332 124 47 -7 131 -27 192 -47 10 -3 18 -1 18 4 0 13 -114 68 -155 76
-58 12 -101 13 -153 4z" id="node15" class="node"></path>
<path d="M990 2510 c-11 -53 -9 -70 10 -70 11 0 20 6 20 13 -1 12 -29 66 -30
57z" id="node16" class="node"></path>
<path d="M1217 2293 c33 -38 79 -96 102 -131 24 -35 45 -61 48 -59 6 7 -59
137 -88 176 -23 32 -90 81 -110 81 -6 0 16 -30 48 -67z" id="node17" class="node"></path>
<path d="M1731 2018 c-21 -59 -96 -118 -152 -118 -11 0 -19 -4 -19 -10 0 -16
52 -11 95 10 66 31 87 55 93 105 5 53 -1 58 -17 13z" id="node18" class="node"></path>
<path d="M720 1770 c0 -74 19 -130 44 -130 7 0 19 -7 26 -15 30 -36 26 -9 -11
70 -21 47 -39 96 -39 110 0 13 -4 27 -10 30 -6 4 -10 -20 -10 -65z" id="node19" class="node"></path>
<path d="M1406 1079 c4 -19 11 -42 16 -53 6 -10 10 -55 10 -100 0 -82 -17
-137 -58 -193 -24 -33 -3 -28 33 7 74 73 96 189 54 287 -13 28 -31 59 -42 69
-19 17 -19 16 -13 -17z" id="node20" class="node"></path>
<path d="M2498 2336 c3 -48 -2 -100 -13 -147 -10 -41 -18 -81 -19 -89 -1 -9
-5 -20 -8 -25 -17 -29 -37 -120 -31 -148 8 -46 21 -57 61 -57 85 0 114 131 73
331 -22 104 -52 209 -61 209 -3 0 -4 -33 -2 -74z" id="node21" class="node"></path>
<path d="M1975 2484 c-48 -12 -47 -17 5 -29 147 -33 218 -60 285 -109 73 -53
118 -53 131 0 11 44 -19 92 -74 116 -39 17 -71 21 -187 24 -77 2 -149 1 -160
-2z" id="node22" class="node"></path>
<path d="M1825 2300 c3 -5 15 -10 25 -10 61 0 211 -118 242 -190 42 -97 50
-131 55 -240 5 -106 3 -121 -21 -189 -14 -41 -39 -98 -56 -127 -16 -30 -30
-56 -30 -59 0 -10 55 23 85 52 60 57 115 128 129 168 8 22 24 65 35 95 26 69
28 195 4 265 -22 65 -118 161 -193 194 -30 13 -70 29 -88 37 -38 16 -197 20
-187 4z" id="node23" class="node"></path>
<path d="M256 2065 c-51 -14 -68 -29 -63 -55 5 -29 56 -23 102 12 76 57 64 71
-39 43z" id="node24" class="node"></path>
<path d="M384 1897 c-45 -55 -57 -82 -50 -111 7 -27 50 -46 67 -29 17 17 24
67 19 123 l-5 55 -31 -38z" id="node25" class="node"></path>
<path d="M142 1802 c-52 -46 -66 -94 -32 -112 33 -18 73 15 81 66 3 21 9 49
13 62 11 34 -12 28 -62 -16z" id="node26" class="node"></path>
<path d="M1340 1576 c-6 -8 -10 -25 -8 -38 6 -44 88 -32 88 13 0 33 -57 51
-80 25z" id="node27" class="node"></path>
<path d="M2086 1055 c-3 -9 -6 -33 -6 -53 0 -30 -8 -44 -50 -84 -27 -26 -50
-50 -50 -53 0 -13 39 -2 71 19 45 31 71 83 66 131 -5 43 -21 64 -31 40z" id="node28" class="node"></path>
<path d="M1710 855 c0 -2 13 -32 30 -67 18 -38 30 -81 31 -108 1 -37 2 -41 9
-20 25 79 1 184 -44 192 -14 3 -26 4 -26 3z" id="node29" class="node"></path>
<path d="M1410 605 c-14 -8 -32 -17 -40 -20 -8 -4 -30 -13 -48 -21 -18 -8 -47
-14 -65 -15 -31 0 -31 -1 -9 -12 38 -18 173 26 186 60 9 22 4 24 -24 8z" id="node30" class="node"></path>
<path d="M960 156 c0 -8 14 -28 31 -45 36 -36 76 -40 110 -11 27 22 27 22 -42
24 -40 1 -55 6 -69 24 -21 25 -30 28 -30 8z" id="node31" class="node"></path>
<path d="M1586 658 c-11 -16 -13 -25 -4 -35 14 -18 63 -16 78 2 10 13 10 19
-5 35 -24 26 -50 25 -69 -2z" id="node32" class="node"></path>
<path d="M1500 482 c0 -10 22 -32 32 -32 4 0 8 9 8 20 0 13 -7 20 -20 20 -11
0 -20 -4 -20 -8z" id="node33" class="node"></path>
</g>
</svg>