<!--?xml version="1.0" standalone="no"?-->

<svg version="1.0" xmlns="http://www.w3.org/2000/svg" width="300.000000pt" height="246.000000pt" viewBox="0 0 300.000000 246.000000" preserveAspectRatio="xMidYMid meet">
<g transform="translate(0.000000,246.000000) scale(0.100000,-0.100000)" fill="#212121" stroke="none">
<path d="M1314 1818 c-51 -38 -104 -92 -104 -105 0 -19 -8 -16 -53 19 -57 45
-130 77 -195 85 -63 7 -67 -10 -4 -21 43 -6 142 -67 186 -114 27 -29 28 -33
14 -54 -9 -13 -19 -39 -22 -58 -15 -72 -12 -69 -59 -52 -23 8 -68 16 -101 18
-57 3 -59 4 -81 42 -12 22 -28 63 -36 91 -7 28 -16 51 -21 51 -16 0 -8 -58 17
-118 14 -34 25 -63 25 -64 0 -2 -24 -4 -53 -4 -61 -2 -124 -18 -151 -39 -25
-19 -14 -30 14 -15 13 7 66 14 119 17 l96 6 23 -41 c12 -22 45 -60 72 -85 33
-30 50 -53 52 -72 3 -26 -3 -32 -47 -56 l-50 -27 -40 21 c-22 11 -57 35 -78
53 -20 19 -42 34 -49 34 -16 0 56 -73 104 -106 l38 -26 -44 -49 c-40 -45 -116
-174 -116 -198 0 -24 18 -9 35 29 19 43 87 118 147 164 37 28 38 28 85 13 26
-9 67 -19 90 -22 l42 -7 7 -56 c4 -31 13 -72 21 -91 8 -18 12 -44 9 -57 -8
-29 -130 -131 -168 -139 -30 -7 -39 -25 -12 -25 22 0 100 46 156 92 l48 39 32
-47 c51 -73 79 -105 89 -99 4 3 -10 29 -31 58 -55 71 -68 112 -44 138 10 11
27 36 39 55 l22 36 46 -55 c26 -30 52 -68 58 -86 6 -17 14 -31 18 -31 3 0 14
23 24 51 10 28 33 67 51 86 l32 35 18 -28 c10 -16 30 -41 43 -56 30 -31 27
-43 -28 -128 -38 -60 -45 -77 -23 -62 16 11 84 109 84 121 0 18 12 13 60 -25
59 -47 127 -87 141 -82 6 2 -11 18 -39 35 -27 17 -68 56 -92 86 -36 49 -40 58
-30 77 7 12 15 52 18 88 l7 65 92 23 c51 12 97 25 102 28 14 9 150 -122 172
-165 17 -35 39 -52 39 -31 0 19 -70 125 -112 171 l-47 50 64 46 c35 25 71 52
80 61 29 30 8 25 -43 -10 -28 -19 -71 -42 -97 -51 -44 -18 -46 -17 -91 6 -42
22 -45 26 -39 54 3 17 27 52 54 80 27 27 56 65 65 83 15 29 21 32 64 33 68 3
112 -1 156 -12 21 -6 40 -8 43 -5 11 10 -62 37 -132 49 -44 7 -75 16 -75 23 0
7 9 31 20 55 21 47 27 94 10 84 -5 -3 -10 -14 -10 -24 0 -10 -11 -40 -25 -66
-18 -37 -21 -51 -12 -57 7 -4 -8 -8 -33 -8 -25 0 -72 -7 -105 -15 -93 -22 -89
-25 -122 74 -16 49 -26 88 -21 85 4 -3 33 15 65 39 64 49 128 77 173 77 16 0
32 5 35 10 10 16 -65 12 -125 -6 -55 -16 -111 -48 -145 -82 -20 -20 -20 -20
-65 27 -57 59 -98 91 -118 91 -8 0 5 -16 30 -35 25 -20 58 -58 73 -87 24 -44
26 -52 12 -59 -9 -5 -30 -34 -47 -63 -20 -36 -45 -63 -73 -79 -23 -14 -53 -37
-66 -51 l-24 -25 -18 23 c-11 13 -40 38 -65 54 -25 17 -58 50 -74 75 -16 24
-38 51 -49 61 -19 17 -19 18 9 59 30 44 68 83 110 110 23 16 23 17 4 17 -12 0
-34 -10 -50 -22z m385 -255 c1 -7 -8 -13 -19 -13 -23 0 -24 1 -8 35 11 24 13
25 19 8 4 -10 8 -24 8 -30z m-469 -5 c0 -4 -7 -8 -15 -8 -10 0 -15 10 -15 28
1 26 1 26 15 8 8 -11 15 -23 15 -28z m-197 -95 c28 -14 32 -33 9 -41 -6 -2
-28 13 -49 33 -34 32 -35 36 -13 29 14 -3 38 -13 53 -21z m897 20 c0 -11 -63
-53 -78 -53 -7 0 -12 6 -12 14 0 11 31 27 88 45 1 1 2 -2 2 -6z m-610 -33 c49
-25 90 -76 111 -137 l15 -47 23 56 c44 110 149 165 231 123 42 -22 60 -53 60
-106 0 -56 -32 -105 -112 -170 -77 -64 -178 -168 -178 -184 0 -29 -19 -23 -43
14 -31 46 -56 71 -129 128 -167 131 -209 279 -94 329 43 19 71 17 116 -6z
m524 -239 c3 -5 -5 -11 -19 -13 -24 -5 -32 2 -18 15 9 10 31 9 37 -2z m-744
-11 c0 -5 -9 -10 -19 -10 -11 0 -23 5 -26 10 -4 6 5 10 19 10 14 0 26 -4 26
-10z m166 -135 c9 -22 -17 -80 -27 -63 -15 23 -11 78 6 78 9 0 18 -7 21 -15z
m404 -27 l-1 -43 -19 24 c-28 33 -25 61 7 61 9 0 13 -14 13 -42z" id="node1" class="node"></path>
</g>
<g transform="translate(0.000000,246.000000) scale(0.100000,-0.100000)" fill="#FFFFFF" stroke="none">

<path d="M1672 1585 c-16 -34 -15 -35 8 -35 21 0 24 12 11 43 -6 17 -8 16 -19
-8z" id="node3" class="node"></path>
<path d="M1200 1578 c0 -18 5 -28 15 -28 19 0 19 11 0 36 -14 18 -14 18 -15
-8z" id="node4" class="node"></path>
<path d="M993 1455 c37 -35 57 -41 65 -17 3 11 -35 34 -78 46 -22 7 -21 3 13
-29z" id="node5" class="node"></path>
<path d="M1883 1473 c-39 -13 -60 -43 -31 -43 15 0 78 42 78 53 0 4 -1 7 -2 6
-2 0 -22 -7 -45 -16z" id="node6" class="node"></path>
<path d="M1204 1456 c-115 -50 -73 -198 94 -329 73 -57 98 -82 129 -128 24
-37 43 -43 43 -14 0 16 101 120 178 184 80 65 112 114 112 170 0 97 -82 145
-178 105 -53 -22 -88 -59 -113 -122 l-23 -56 -15 47 c-21 61 -62 112 -111 137
-45 23 -73 25 -116 6z" id="node7" class="node"></path>
<path d="M1807 1213 c-14 -13 -6 -20 18 -15 14 2 22 8 19 13 -6 11 -28 12 -37
2z" id="node8" class="node"></path>
<path d="M1055 1200 c3 -5 15 -10 26 -10 10 0 19 5 19 10 0 6 -12 10 -26 10
-14 0 -23 -4 -19 -10z" id="node9" class="node"></path>
<path d="M1230 1048 c0 -51 15 -65 30 -29 14 35 8 61 -15 61 -10 0 -15 -10
-15 -32z" id="node10" class="node"></path>
<path d="M1637 1073 c-12 -11 -8 -30 13 -54 l19 -24 1 43 c0 40 -14 55 -33 35z" id="node11" class="node"></path>
</g>
</svg>