<!--?xml version="1.0" standalone="no"?-->

<svg version="1.0" xmlns="http://www.w3.org/2000/svg" width="300.000000pt" height="300.000000pt" viewBox="0 0 300.000000 300.000000" preserveAspectRatio="xMidYMid meet">
<g transform="translate(0.000000,300.000000) scale(0.100000,-0.100000)" fill="#0A0A0A" stroke="none">
<path d="M606 2359 c-28 -22 -34 -56 -15 -92 15 -29 28 -37 60 -37 21 0 28 -8
42 -47 9 -27 17 -58 17 -71 0 -19 -5 -23 -27 -20 -21 2 -29 10 -36 35 -26 88
-166 49 -144 -39 14 -55 63 -73 116 -44 20 11 29 10 62 -8 51 -28 52 -16 -12
-241 -25 -91 -56 -206 -73 -273 l-14 -53 22 14 c11 8 32 20 45 28 13 8 60 38
104 67 45 28 86 52 92 52 6 0 16 -16 21 -35 6 -25 48 -74 152 -179 78 -79 142
-151 142 -161 0 -26 -64 -85 -93 -85 -28 0 -67 -41 -67 -70 0 -10 9 -29 20
-43 20 -25 25 -63 14 -104 -9 -31 -74 -71 -124 -75 -56 -4 -87 -41 -73 -84 19
-57 109 -58 124 -2 7 27 57 88 71 88 5 0 8 -24 8 -54 0 -38 -6 -60 -20 -79
-27 -34 -26 -82 2 -101 31 -22 64 -20 88 4 25 25 25 60 0 93 -15 18 -20 40
-20 81 0 31 4 56 8 56 14 0 52 -45 52 -61 0 -33 30 -59 69 -59 45 0 64 18 64
62 0 38 -34 69 -72 66 -39 -3 -101 38 -101 67 0 13 -3 30 -6 38 -3 9 7 28 25
46 31 32 40 72 22 100 -10 16 24 81 43 81 7 0 66 -52 130 -117 l117 -116 113
112 c126 126 136 129 180 64 20 -29 23 -40 15 -61 -13 -33 -5 -65 24 -96 18
-19 22 -33 19 -66 -4 -36 -10 -45 -40 -63 -20 -12 -51 -22 -69 -23 -43 -1 -63
-20 -63 -58 0 -36 34 -76 64 -76 23 0 66 44 66 68 0 21 55 78 63 65 9 -14 -12
-116 -30 -151 -17 -31 -17 -33 1 -67 16 -29 25 -35 52 -35 58 0 83 64 45 118
-24 35 -38 132 -18 132 20 0 63 -50 81 -93 15 -37 17 -38 58 -35 36 2 45 8 56
31 26 54 -21 110 -77 92 -10 -3 -29 4 -44 15 -14 11 -30 20 -36 20 -33 0 -54
116 -26 140 21 18 19 83 -3 103 -10 9 -33 20 -51 23 -22 5 -43 20 -67 52 -19
25 -34 50 -34 56 0 6 65 76 145 156 92 92 149 157 156 177 6 18 14 33 17 33 4
0 34 -26 67 -58 33 -32 82 -78 109 -102 l49 -45 -6 95 c-4 52 -9 151 -12 220
-3 69 -8 150 -11 181 l-5 57 41 16 c55 22 75 20 104 -9 51 -51 130 -20 130 50
0 44 -30 75 -73 75 -32 0 -71 -25 -71 -46 0 -10 -11 -14 -37 -14 -65 0 -69 9
-30 81 33 60 37 64 73 67 52 5 74 26 74 73 0 44 -27 69 -75 69 -61 0 -79 -35
-63 -126 2 -15 -12 -34 -51 -67 -30 -25 -58 -44 -62 -41 -4 2 -22 32 -39 65
-28 55 -29 62 -15 82 52 74 -51 160 -113 94 -46 -49 -22 -112 48 -127 18 -4
24 -11 22 -25 -1 -11 -5 -42 -9 -68 l-6 -48 -51 6 c-57 8 -76 19 -76 44 0 27
-43 61 -76 61 -69 0 -101 -87 -48 -129 32 -25 57 -26 94 -4 l29 17 59 -60 c59
-58 60 -61 111 -218 29 -87 50 -160 48 -163 -8 -8 -131 99 -237 207 -108 110
-165 147 -242 157 -61 9 -88 -5 -168 -82 l-76 -75 -60 61 c-84 86 -114 102
-174 97 -96 -10 -212 -90 -290 -201 -28 -39 -52 -59 -117 -94 -86 -45 -104
-42 -63 10 11 14 20 28 20 32 0 16 134 227 154 243 12 9 39 26 59 37 35 18 37
18 56 1 51 -47 133 -6 128 64 -5 72 -101 88 -142 22 -18 -28 -25 -31 -67 -32
l-48 0 0 65 c0 44 4 67 13 69 6 3 24 7 39 10 38 9 58 33 58 71 0 44 -32 75
-76 75 -56 0 -87 -54 -64 -110 12 -29 10 -32 -31 -78 -24 -26 -47 -47 -51 -47
-3 0 -25 23 -48 52 -41 52 -41 52 -25 84 43 83 -37 155 -109 98z m1304 -735
c0 -3 -24 -31 -52 -61 -68 -71 -83 -87 -203 -218 -55 -60 -125 -136 -156 -169
l-57 -60 -6 60 c-4 32 -3 89 3 126 22 156 117 259 286 309 57 17 185 26 185
13z" id="node1" class="node"></path>
</g>
<g transform="translate(0.000000,300.000000) scale(0.100000,-0.100000)" fill="#A3A3A3" stroke="none">

<path d="M1725 1611 c-122 -36 -207 -101 -253 -195 -29 -58 -45 -163 -36 -240
l6 -60 57 60 c31 33 101 109 156 169 120 131 135 147 203 218 28 30 52 58 52
61 0 13 -128 4 -185 -13z" id="node3" class="node"></path>
</g>
</svg>