<!--?xml version="1.0" standalone="no"?-->

<svg version="1.0" xmlns="http://www.w3.org/2000/svg" width="293.000000pt" height="300.000000pt" viewBox="0 0 293.000000 300.000000" preserveAspectRatio="xMidYMid meet">
<g transform="translate(0.000000,300.000000) scale(0.100000,-0.100000)" fill="#1E1E1E" stroke="none">
<path class="node" id="node1" d="M440 2890 c-5 -10 -10 -31 -10 -47 0 -40 25 -127 44 -154 11 -16 12
-26 5 -35 -8 -10 -17 -5 -41 22 -36 41 -113 67 -185 62 -48 -3 -48 -3 -45 -37
1 -19 20 -72 41 -117 71 -151 190 -238 342 -251 65 -6 77 -10 108 -40 34 -32
35 -35 17 -46 -76 -49 -101 -67 -132 -97 -76 -72 -104 -146 -104 -278 0 -127
15 -186 83 -332 110 -236 424 -510 583 -510 39 0 44 -3 50 -27 37 -154 114
-326 183 -404 64 -74 105 -96 225 -120 103 -20 108 -21 228 -4 127 17 292 56
341 82 16 8 32 13 36 11 4 -2 43 -43 86 -93 43 -49 87 -100 98 -112 20 -22 20
-22 -12 -48 -24 -21 -31 -35 -31 -63 1 -101 59 -130 294 -146 l88 -6 -4 127
c-4 139 -21 193 -70 225 -46 30 -83 31 -116 3 -36 -30 -24 -37 -127 79 -83 94
-82 90 -31 120 73 43 151 129 192 210 30 62 37 88 41 160 10 151 -26 259 -110
332 -92 79 -230 114 -374 94 -42 -5 -77 -9 -78 -8 -1 2 -10 28 -20 58 -10 30
-30 76 -45 101 -27 45 -28 47 -13 100 10 37 13 84 10 149 -6 130 -41 207 -135
299 -82 80 -133 101 -249 101 -111 0 -210 -36 -304 -110 l-36 -29 -51 48 c-70
66 -159 108 -257 122 -78 12 -81 13 -127 63 -42 45 -47 56 -48 97 0 58 -32
190 -61 249 -34 72 -85 127 -152 164 -96 54 -115 59 -127 36z m88 -62 c23 -13
68 -47 101 -76 50 -44 62 -62 79 -115 19 -59 39 -187 30 -187 -11 0 -231 230
-249 259 -10 17 -22 56 -25 86 -8 64 -1 68 64 33z m-162 -158 c34 -16 71 -39
83 -51 38 -41 175 -249 168 -255 -4 -4 -12 -2 -19 3 -7 6 -33 14 -58 18 -69
11 -124 40 -178 94 -54 54 -112 158 -112 201 0 24 3 27 28 23 15 -3 55 -18 88
-33z m309 -206 c82 -90 151 -168 153 -173 2 -5 -11 -12 -28 -16 -33 -7 -18
-21 -179 160 -105 117 -149 197 -108 194 7 0 79 -74 162 -165z m330 -245 c73
-13 137 -45 208 -102 l53 -44 30 24 c72 59 195 103 291 103 134 0 252 -80 324
-220 18 -35 24 -66 27 -142 2 -54 1 -109 -2 -123 l-7 -26 -45 31 c-146 101
-326 116 -476 39 l-42 -22 -26 34 c-14 19 -39 49 -57 67 l-33 34 -45 -39 c-46
-39 -54 -56 -32 -70 7 -4 34 -33 59 -64 l47 -55 -17 -30 c-65 -108 -97 -265
-88 -428 l6 -109 -44 5 c-123 14 -339 177 -464 349 -138 191 -185 427 -114
579 40 87 190 191 299 210 69 11 83 11 148 -1z m292 -450 c26 -33 30 -46 22
-60 -15 -29 -31 -23 -74 27 -36 44 -37 48 -20 60 29 21 38 17 72 -27z m415
-40 c145 -31 264 -137 308 -276 16 -49 27 -60 42 -45 20 20 185 15 251 -7 151
-52 225 -136 251 -284 29 -166 -45 -320 -202 -424 -62 -42 -40 -55 -178 103
-49 55 -132 148 -183 207 -52 59 -98 106 -102 105 -4 -2 -25 -20 -48 -41 l-42
-38 48 -57 c26 -31 62 -73 79 -92 165 -183 234 -265 231 -273 -4 -14 -144 -54
-252 -72 -172 -29 -333 -13 -431 42 -56 31 -114 103 -164 203 -74 148 -99 250
-107 427 -8 182 34 322 126 416 61 64 98 85 173 102 79 17 133 18 200 4z m257
-741 c35 -40 89 -102 120 -137 31 -36 136 -154 234 -263 97 -109 177 -203 177
-208 0 -8 -31 -30 -43 -30 -3 0 -45 46 -93 102 -49 56 -98 111 -109 122 -11
11 -33 37 -50 57 -16 20 -101 116 -187 212 -87 97 -158 179 -158 183 0 7 31
33 40 34 3 0 34 -33 69 -72z m686 -574 c13 -8 28 -29 34 -46 12 -34 15 -147 5
-197 l-6 -31 -78 0 c-83 0 -161 19 -191 46 -22 20 -25 63 -6 85 20 25 64 49
89 49 19 0 23 6 24 32 2 62 75 97 129 62z"></path>
<path class="node" id="node2" d="M689 2067 c-71 -59 -106 -162 -87 -252 13 -63 56 -109 89 -97 26 10
59 66 59 102 1 39 31 93 73 129 45 40 50 85 14 119 -33 31 -112 30 -148 -1z
m105 -7 c14 -5 26 -17 26 -26 0 -16 -36 -70 -66 -101 -7 -7 -15 -27 -19 -45
-3 -18 -10 -42 -14 -53 -5 -11 -13 -32 -20 -47 -14 -35 -45 -37 -67 -3 -13 20
-16 40 -11 91 6 75 38 132 96 171 39 26 41 26 75 13z"></path>







</g>
<g transform="translate(0.000000,300.000000) scale(0.100000,-0.100000)" fill="#A2A2A2" stroke="none">

<path class="node" id="node11" d="M464 2795 c3 -30 15 -69 25 -86 18 -29 238 -259 249 -259 9 0 -11
128 -30 187 -17 53 -29 71 -79 115 -61 55 -131 98 -157 98 -12 0 -14 -10 -8
-55z"></path>
<path class="node" id="node12" d="M250 2680 c0 -43 58 -147 112 -201 54 -54 109 -83 178 -94 25 -4 51
-12 58 -18 7 -5 15 -7 19 -3 7 6 -130 214 -168 255 -24 25 -129 77 -171 84
-25 4 -28 1 -28 -23z"></path>
<path class="node" id="node13" d="M495 2621 c-8 -14 53 -105 126 -186 161 -181 146 -167 179 -160 17 4
30 11 28 16 -6 18 -303 338 -315 338 -6 1 -14 -3 -18 -8z"></path>
<path class="node" id="node14" d="M857 2220 c-109 -19 -259 -123 -299 -210 -71 -152 -24 -388 114 -579
125 -172 341 -335 464 -349 l44 -5 -6 109 c-9 163 23 320 88 428 l17 30 -47
55 c-25 31 -52 60 -59 64 -22 14 -14 31 32 70 l45 39 33 -34 c18 -18 43 -48
57 -67 l26 -34 42 22 c150 77 330 62 476 -39 l45 -31 7 26 c3 14 4 69 2 123
-3 76 -9 107 -27 142 -72 140 -190 220 -324 220 -96 0 -219 -44 -291 -103
l-30 -24 -53 44 c-71 57 -135 89 -208 102 -65 12 -79 12 -148 1z m-20 -152
c36 -34 31 -79 -14 -119 -42 -36 -72 -90 -73 -129 0 -36 -33 -92 -59 -102 -33
-12 -76 34 -89 97 -19 90 16 193 87 252 36 31 115 32 148 1z"></path>
<path class="node" id="node15" d="M719 2047 c-58 -39 -90 -96 -96 -171 -5 -51 -2 -71 11 -91 22 -34 53
-32 67 3 7 15 15 36 20 47 4 11 11 35 14 53 4 18 12 38 19 45 30 31 66 85 66
101 0 14 -35 36 -59 36 -5 0 -23 -10 -42 -23z"></path>
<path class="node" id="node16" d="M1225 1796 c-17 -12 -16 -16 20 -60 43 -50 59 -56 74 -27 8 14 4 27
-22 60 -34 44 -43 48 -72 27z"></path>
<path class="node" id="node17" d="M1512 1725 c-75 -17 -112 -38 -173 -102 -92 -94 -134 -234 -126 -416
8 -177 33 -279 107 -427 50 -100 108 -172 164 -203 98 -55 259 -71 431 -42
108 18 248 58 252 72 3 8 -66 90 -231 273 -17 19 -53 61 -79 92 l-48 57 42 38
c23 21 44 39 48 41 4 1 50 -46 102 -105 51 -59 134 -152 183 -207 138 -158
116 -145 178 -103 157 104 231 258 202 424 -26 148 -100 232 -251 284 -66 22
-231 27 -251 7 -15 -15 -26 -4 -42 45 -44 139 -163 245 -308 276 -67 14 -121
13 -200 -4z"></path>
<path class="node" id="node18" d="M1878 1046 c-10 -7 -18 -16 -18 -20 0 -4 71 -86 158 -183 86 -96 171
-192 187 -212 17 -20 39 -46 50 -57 11 -11 60 -66 109 -122 48 -56 90 -102 93
-102 12 0 43 22 43 30 0 5 -80 99 -177 208 -98 109 -203 227 -234 263 -158
180 -184 209 -189 209 -3 0 -13 -7 -22 -14z"></path>
<path class="node" id="node19" d="M2554 407 c-18 -16 -27 -34 -28 -55 -1 -26 -5 -32 -24 -32 -25 0 -69
-24 -89 -49 -19 -22 -16 -65 6 -85 30 -27 108 -46 191 -46 l78 0 6 31 c10 50
7 163 -5 197 -21 61 -87 80 -135 39z"></path>







</g>
</svg>