<!--?xml version="1.0" standalone="no"?-->

<svg xmlns="http://www.w3.org/2000/svg" width="300.000000pt" height="267.000000pt" viewBox="0 0 300.000000 267.000000" preserveAspectRatio="xMidYMid meet">
<g transform="translate(0.000000,267.000000) scale(0.100000,-0.100000)" fill="#101010" stroke="none">
<path class="node" id="node1" d="M850 1602 l0 -1048 35 -34 35 -34 0 1076 0 1076 -22 6 c-13 3 -29 6
-35 6 -10 0 -13 -216 -13 -1048z" style="position: relative;"></path>
<path class="node" id="node2" d="M563 2630 l-23 -9 0 -889 0 -888 38 -37 c21 -20 41 -37 45 -37 4 0 7
421 7 935 l0 935 -22 -1 c-13 0 -33 -4 -45 -9z" style="position: relative;"></path>
<path class="node" id="node3" d="M970 1532 l0 -1098 28 -27 c15 -15 31 -27 35 -27 9 0 9 2228 0 2233
-5 2 -20 7 -35 11 l-28 6 0 -1098z" style="position: relative;"></path>
<path class="node" id="node4" d="M2123 2613 l-23 -4 0 -1015 c0 -558 3 -1014 7 -1014 4 0 20 12 35 27
l28 27 0 993 c0 788 -3 993 -12 992 -7 -1 -23 -4 -35 -6z" style="position: relative;"></path>
<path class="node" id="node5" d="M2003 2593 l-23 -4 0 -1061 0 -1061 22 19 c12 10 28 24 35 31 19 17
19 2084 1 2082 -7 -1 -23 -4 -35 -6z" style="position: relative;"></path>
<path class="node" id="node6" d="M2400 1718 l0 -872 35 34 35 34 0 827 c0 455 -3 830 -7 832 -5 2 -20
7 -35 11 l-28 6 0 -872z" style="position: relative;"></path>
<path class="node" id="node7" d="M373 2551 l-23 -19 0 -739 0 -740 35 -39 34 -39 1 798 c0 631 -3 797
-12 797 -7 -1 -23 -9 -35 -19z" style="position: relative;"></path>
<path class="node" id="node8" d="M1150 2563 c0 -4 0 -523 0 -1153 l0 -1144 47 -48 c26 -27 51 -48 55
-48 5 0 7 525 6 1167 l-3 1167 -52 33 c-29 18 -53 30 -53 26z" style="position: relative;"></path>
<path class="node" id="node9" d="M1813 2519 l-43 -21 0 -1106 0 -1105 23 19 c12 10 37 32 55 48 l32
30 0 1078 c0 856 -3 1078 -12 1078 -7 0 -32 -9 -55 -21z" style="position: relative;"></path>
<path class="node" id="node10" d="M292 2488 c-9 -9 -12 -173 -12 -678 0 -570 2 -669 15 -686 13 -17 14
63 15 679 0 383 -1 697 -3 697 -2 0 -8 -5 -15 -12z" style="position: relative;"></path>
<path class="node" id="node11" d="M2600 1776 l0 -726 35 39 35 39 -2 666 -3 667 -32 20 -33 21 0 -726z" style="position: relative;"></path>
<path class="node" id="node12" d="M1290 1303 c1 -1013 3 -1171 15 -1187 13 -18 15 120 13 1164 -2 936
-6 1184 -15 1188 -10 3 -13 -234 -13 -1165z" style="position: relative;"></path>
<path class="node" id="node13" d="M1707 2453 c-4 -3 -7 -506 -7 -1116 0 -985 2 -1108 15 -1097 13 11
15 147 15 1116 0 607 -4 1104 -8 1104 -5 0 -12 -3 -15 -7z" style="position: relative;"></path>
<path class="node" id="node14" d="M2710 1801 c0 -552 2 -623 15 -605 22 29 22 1180 0 1210 -13 17 -14
-54 -15 -605z" style="position: relative;"></path>
<path class="node" id="node15" d="M117 2261 c-15 -26 -17 -68 -17 -423 1 -368 2 -395 20 -428 19 -35
19 -34 20 423 0 251 -1 457 -3 457 -1 0 -10 -13 -20 -29z" style="position: relative;"></path>
<path class="node" id="node16" d="M1460 1163 c0 -623 3 -1133 8 -1133 4 1 26 18 50 39 l42 39 0 1093
c-1 1163 2 1107 -41 1039 -8 -13 -10 -13 -18 0 -43 68 -40 126 -41 -1077z" style="position: relative;"></path>
<path class="node" id="node17" d="M2881 1820 l1 -385 19 40 c17 37 18 66 18 350 0 286 -1 313 -19 345
-19 35 -19 35 -19 -350z" style="position: relative;"></path>
<path class="node" id="node18" d="M36 2065 c-33 -120 -36 -262 -6 -393 36 -165 39 -154 39 176 1 171
-1 312 -3 312 -2 0 -15 -43 -30 -95z" style="position: relative;"></path>
<path class="node" id="node19" d="M2951 1831 c-1 -123 1 -222 3 -220 2 2 11 33 20 69 23 90 22 238 -3
315 l-19 60 -1 -224z" style="position: relative;"></path>
</g>
<g transform="translate(0.000000,267.000000) scale(0.100000,-0.100000)" fill="#A0A0A0" stroke="none">

</g>
</svg>