<!--?xml version="1.0" standalone="no"?-->

<svg version="1.0" xmlns="http://www.w3.org/2000/svg" width="300.000000pt" height="267.000000pt" viewBox="0 0 300.000000 267.000000" preserveAspectRatio="xMidYMid meet">
<g transform="translate(0.000000,267.000000) scale(0.100000,-0.100000)" fill="#101010" stroke="none">
<path class="node" id="node1" d="M764 2596 c-3 -7 -4 -19 -2 -27 2 -10 -12 -15 -47 -20 -27 -3 -62 -9
-77 -13 -24 -7 -28 -5 -28 13 0 26 -25 38 -45 21 -11 -9 -12 -17 -5 -30 13
-25 13 -30 -3 -30 -7 0 -37 -15 -67 -34 -53 -34 -54 -34 -70 -13 -9 11 -22 17
-28 13 -15 -9 -15 -39 0 -54 9 -9 5 -19 -18 -44 -17 -18 -38 -45 -47 -61 -17
-26 -19 -26 -41 -12 -21 14 -24 14 -37 -1 -12 -14 -10 -19 13 -38 23 -18 25
-24 15 -41 -6 -11 -16 -40 -23 -65 -10 -38 -15 -45 -37 -45 -14 0 -28 -3 -32
-7 -13 -12 6 -48 25 -48 17 0 19 -7 17 -77 -2 -77 -2 -78 -30 -81 -40 -5 -32
-36 9 -40 29 -3 32 -6 37 -50 3 -26 9 -62 13 -81 5 -22 4 -32 -3 -28 -6 4 -19
0 -29 -8 -18 -13 -18 -15 -3 -30 13 -14 21 -15 38 -6 18 10 22 9 27 -6 4 -10
17 -42 30 -72 19 -43 22 -56 12 -63 -7 -4 -17 -8 -21 -8 -5 0 -7 -10 -5 -22 3
-23 17 -27 48 -14 11 4 25 -12 50 -57 19 -34 36 -65 38 -68 2 -4 -6 -9 -18
-12 -23 -6 -28 -42 -6 -50 8 -3 22 0 32 8 17 12 23 7 62 -51 l43 -65 -23 -18
c-19 -16 -20 -21 -9 -35 12 -15 16 -15 36 -2 22 14 25 13 70 -45 l47 -60 -22
-21 c-19 -18 -20 -22 -7 -35 13 -13 18 -13 39 1 25 16 25 16 73 -45 42 -53 46
-63 32 -71 -24 -13 -22 -48 2 -48 11 0 23 5 26 10 10 17 18 12 69 -46 45 -51
47 -56 32 -73 -32 -35 -11 -63 29 -37 23 15 25 14 69 -38 49 -57 55 -71 31
-80 -20 -7 -19 -35 0 -43 9 -3 24 2 34 11 18 16 21 14 75 -41 53 -56 55 -59
36 -72 -11 -7 -20 -20 -20 -28 0 -21 29 -27 48 -9 17 14 22 12 73 -40 49 -50
53 -56 37 -68 -27 -20 -23 -46 7 -46 14 0 25 5 25 10 0 6 6 10 13 10 18 0 109
-108 106 -128 -3 -33 1 -42 20 -42 21 0 33 22 25 45 -4 9 15 38 47 75 52 60
52 60 71 40 20 -21 48 -17 48 7 0 9 -8 21 -17 28 -15 11 -12 18 33 69 27 30
52 56 55 56 4 0 12 -7 19 -15 7 -8 19 -15 27 -15 22 0 27 29 8 50 -17 19 -16
21 25 67 24 27 47 52 51 57 5 6 16 3 27 -7 21 -19 52 -13 52 9 0 7 -9 19 -19
26 -18 13 -16 17 35 73 47 53 55 58 64 42 6 -9 18 -17 26 -17 23 0 28 29 9 50
-16 18 -15 21 36 79 50 57 53 59 66 41 8 -11 20 -20 27 -20 22 0 28 31 10 51
-19 21 -15 29 50 103 32 37 35 38 51 23 9 -9 21 -17 26 -17 19 0 21 31 4 50
-16 18 -15 21 30 80 44 57 48 60 65 45 19 -17 50 -11 50 11 0 7 -9 19 -21 27
-20 14 -19 16 27 81 43 62 48 66 63 52 23 -21 37 -20 46 1 4 12 -1 24 -15 35
l-21 17 36 63 c45 77 41 73 60 58 8 -7 22 -10 30 -6 22 8 18 37 -5 43 -25 7
-25 10 6 88 l26 65 35 -6 c32 -6 34 -5 31 17 -2 16 -11 25 -26 27 -23 4 -24
15 -1 86 5 16 9 40 9 53 0 20 4 23 20 18 28 -9 54 13 39 31 -6 8 -20 14 -30
14 -17 0 -19 8 -19 79 0 75 1 80 23 83 14 2 22 10 22 23 0 16 -6 20 -27 18
-26 -2 -29 3 -49 69 l-21 71 23 17 c14 11 20 23 16 34 -7 18 -32 21 -42 5 -10
-16 -20 -8 -64 51 -46 61 -47 63 -27 80 8 6 12 18 9 26 -7 18 -37 18 -52 0
-10 -12 -22 -8 -76 22 -57 33 -63 39 -58 63 3 15 0 29 -5 33 -17 10 -42 -5
-42 -26 0 -18 -4 -20 -37 -14 -21 4 -57 10 -81 13 -31 4 -42 10 -41 22 3 32
-1 41 -21 41 -19 0 -25 -14 -21 -47 1 -9 -14 -13 -46 -13 -27 0 -63 -4 -81 -9
-28 -8 -32 -7 -32 8 0 10 -7 24 -16 31 -12 11 -18 11 -30 -2 -13 -12 -14 -20
-5 -37 10 -18 9 -21 -6 -21 -10 0 -44 -11 -75 -24 -54 -22 -57 -22 -61 -5 -6
24 -35 35 -50 20 -9 -9 -8 -17 1 -32 16 -25 18 -21 -55 -70 -56 -37 -58 -38
-72 -19 -27 39 -63 16 -40 -26 7 -13 10 -25 8 -27 -2 -1 -30 -24 -62 -51 l-57
-48 -19 23 -18 22 -15 -21 c-14 -21 -15 -21 -76 30 -58 48 -61 53 -46 70 18
19 12 48 -10 48 -8 0 -21 -9 -28 -19 -13 -19 -16 -18 -77 21 -47 30 -61 44
-56 56 4 9 7 19 7 22 3 38 -38 43 -48 5 -3 -14 -7 -25 -9 -25 -2 0 -27 11 -57
25 -29 14 -61 25 -70 25 -14 0 -16 7 -11 35 5 31 3 35 -16 35 -14 0 -23 -8
-27 -26 -6 -23 -10 -25 -37 -20 -16 3 -49 6 -73 6 -42 0 -44 1 -44 30 0 23 -4
30 -20 30 -11 0 -23 -6 -26 -14z m36 -300 c0 -14 5 -28 10 -31 15 -9 40 14 40
36 0 23 5 23 85 2 57 -15 63 -19 54 -36 -6 -10 -8 -25 -5 -33 9 -22 35 -16 48
11 l11 25 68 -36 c66 -35 67 -36 54 -62 -23 -43 10 -61 39 -21 14 21 15 21 75
-21 59 -41 60 -43 45 -66 -26 -39 2 -60 37 -28 17 15 22 14 69 -26 41 -34 51
-48 47 -67 -2 -12 1 -31 8 -40 19 -26 47 0 35 31 -7 20 -2 29 28 58 66 61 70
63 92 43 19 -17 50 -15 50 4 0 5 -7 16 -15 25 -8 8 -15 16 -15 19 0 2 27 23
60 46 58 41 80 45 80 15 0 -8 9 -14 21 -14 18 0 20 5 17 36 -3 35 -1 38 57 70
l60 33 13 -24 c7 -14 19 -25 28 -25 20 0 29 27 14 45 -16 20 -17 19 63 39 70
17 90 15 81 -8 -3 -7 2 -19 11 -26 20 -17 48 5 40 31 -8 24 18 25 97 3 56 -16
69 -26 48 -39 -13 -8 -13 -42 1 -50 6 -4 21 3 35 16 23 22 24 22 45 3 12 -10
34 -37 49 -60 l28 -40 -21 -10 c-12 -5 -23 -18 -25 -28 -4 -16 1 -18 31 -13
34 5 35 4 41 -31 3 -20 6 -56 6 -80 0 -37 -3 -43 -17 -38 -10 3 -24 2 -32 -3
-21 -14 -5 -41 24 -41 20 0 25 -4 21 -17 -2 -10 -10 -44 -16 -76 l-12 -58 -36
3 c-28 2 -37 -1 -40 -14 -2 -12 5 -19 22 -24 14 -3 26 -10 26 -15 0 -5 -14
-38 -32 -73 -31 -63 -32 -64 -55 -49 -18 12 -26 13 -37 3 -18 -14 -10 -39 16
-49 17 -6 15 -12 -23 -69 -42 -62 -52 -71 -64 -52 -8 14 -42 13 -51 -2 -4 -6
3 -19 15 -29 l23 -19 -36 -49 c-49 -67 -60 -75 -76 -56 -7 8 -18 15 -25 15
-21 0 -27 -32 -9 -51 19 -21 14 -31 -44 -99 -24 -28 -33 -33 -43 -22 -7 6 -21
12 -31 12 -23 0 -24 -36 -1 -48 14 -8 10 -17 -28 -66 -45 -57 -53 -63 -64 -46
-8 13 -42 13 -50 -1 -4 -5 0 -18 9 -28 22 -25 21 -30 -28 -84 -43 -48 -44 -49
-69 -32 -24 16 -26 15 -36 -3 -8 -15 -7 -23 4 -32 22 -18 19 -26 -27 -81 -47
-54 -55 -57 -74 -32 -12 17 -14 17 -29 2 -16 -16 -16 -18 4 -38 l22 -22 -42
-44 c-23 -24 -48 -54 -56 -65 l-15 -21 -14 20 c-15 21 -40 19 -46 -3 -2 -7
-27 14 -57 46 l-53 58 23 18 c24 20 19 42 -10 42 -9 0 -23 -6 -30 -12 -10 -11
-22 -2 -61 42 l-49 55 21 22 c11 12 17 26 13 32 -9 16 -36 13 -49 -4 -9 -13
-19 -6 -63 43 -50 57 -51 59 -32 75 10 9 19 21 19 27 0 19 -30 23 -49 6 -17
-16 -21 -13 -66 39 -43 51 -54 85 -25 85 15 0 12 37 -4 43 -8 3 -20 -1 -26 -9
-19 -22 -25 -18 -74 43 l-45 58 20 22 c33 34 4 60 -31 28 -16 -15 -21 -11 -64
47 -46 62 -47 63 -27 77 12 7 21 19 21 26 0 20 -26 25 -48 9 -20 -14 -23 -11
-63 47 l-42 62 23 17 c26 19 21 57 -5 46 -8 -3 -21 -9 -29 -12 -11 -4 -24 12
-45 55 -36 71 -39 91 -11 91 14 0 20 7 20 21 0 17 -5 20 -32 17 -30 -3 -34 0
-45 35 -7 21 -16 56 -19 77 -6 37 -5 39 22 42 42 4 38 32 -5 36 l-34 3 7 57
c12 98 13 101 52 95 27 -5 34 -2 34 11 0 9 -11 21 -25 28 -29 13 -24 27 32 89
41 45 48 47 72 18 16 -20 18 -20 31 -4 11 14 11 20 1 37 -7 11 -11 22 -8 24
10 11 86 33 115 33 27 1 32 -2 32 -23z"></path>
</g>
<g transform="translate(0.000000,267.000000) scale(0.100000,-0.100000)" fill="#FFFFFF" stroke="none">

<path stroke-width="20" class="node" id="node3" d="M696 2304 c-50 -18 -50 -18 -35 -42 10 -17 10 -23 -1 -37 -13 -16
-15 -16 -31 4 -24 29 -31 27 -72 -18 -56 -62 -61 -76 -32 -89 14 -7 25 -19 25
-28 0 -13 -7 -16 -34 -11 -39 6 -40 3 -52 -95 l-7 -57 34 -3 c43 -4 47 -32 5
-36 -27 -3 -28 -5 -22 -42 3 -21 12 -56 19 -77 11 -35 15 -38 45 -35 27 3 32
0 32 -17 0 -14 -6 -21 -20 -21 -28 0 -25 -20 11 -91 21 -43 34 -59 45 -55 8 3
21 9 29 12 26 11 31 -27 5 -46 l-23 -17 42 -62 c40 -58 43 -61 63 -47 22 16
48 11 48 -9 0 -7 -9 -19 -21 -26 -20 -14 -19 -15 27 -77 43 -58 48 -62 64 -47
35 32 64 6 31 -28 l-20 -22 45 -58 c49 -61 55 -65 74 -43 6 8 18 12 26 9 16
-6 19 -43 4 -43 -29 0 -18 -34 25 -85 45 -52 49 -55 66 -39 19 17 49 13 49 -6
0 -6 -9 -18 -19 -27 -19 -16 -18 -18 32 -75 44 -49 54 -56 63 -43 13 17 40 20
49 4 4 -6 -2 -20 -13 -32 l-21 -22 49 -55 c39 -44 51 -53 61 -42 7 6 21 12 30
12 29 0 34 -22 10 -42 l-23 -18 53 -58 c30 -32 55 -53 57 -46 6 22 31 24 46 3
l14 -20 15 21 c8 11 33 41 56 65 l42 44 -22 22 c-20 20 -20 22 -4 38 15 15 17
15 29 -2 19 -25 27 -22 74 32 46 55 49 63 27 81 -11 9 -12 17 -4 32 10 18 12
19 36 3 25 -17 26 -16 69 32 49 54 50 59 28 84 -9 10 -13 23 -9 28 8 14 42 14
50 1 11 -17 19 -11 64 46 38 49 42 58 28 66 -23 12 -22 48 1 48 10 0 24 -6 31
-12 10 -11 19 -6 43 22 58 68 63 78 44 99 -18 19 -12 51 9 51 7 0 18 -7 25
-15 16 -19 27 -11 76 56 l36 49 -23 19 c-12 10 -19 23 -15 29 9 15 43 16 51 2
12 -19 22 -10 64 52 38 57 40 63 23 69 -26 10 -34 35 -16 49 11 10 19 9 37 -3
23 -15 24 -14 55 49 18 35 32 68 32 73 0 5 -12 12 -26 15 -17 5 -24 12 -22 24
3 13 12 16 40 14 l36 -3 12 58 c6 32 14 66 16 76 4 13 -1 17 -21 17 -29 0 -45
27 -24 41 8 5 22 6 32 3 14 -5 17 1 17 38 0 24 -3 60 -6 80 -6 35 -7 36 -41
31 -30 -5 -35 -3 -31 13 2 10 13 23 25 28 l21 10 -28 40 c-15 23 -37 50 -49
60 -21 19 -22 19 -45 -3 -14 -13 -29 -20 -35 -16 -14 8 -14 42 -1 50 21 13 8
23 -48 39 -79 22 -105 21 -97 -3 8 -26 -20 -48 -40 -31 -9 7 -14 19 -11 26 9
23 -11 25 -81 8 -80 -20 -79 -19 -63 -39 15 -18 6 -45 -14 -45 -9 0 -21 11
-28 25 l-13 24 -60 -33 c-58 -32 -60 -35 -57 -70 3 -31 1 -36 -17 -36 -12 0
-21 6 -21 14 0 30 -22 26 -80 -15 -33 -23 -60 -44 -60 -46 0 -3 7 -11 15 -19
8 -9 15 -20 15 -25 0 -19 -31 -21 -50 -4 -22 20 -26 18 -92 -43 -30 -29 -35
-38 -28 -58 12 -31 -16 -57 -35 -31 -7 9 -10 28 -8 40 4 19 -6 33 -47 67 -47
40 -52 41 -69 26 -35 -32 -63 -11 -37 28 15 23 14 25 -45 66 -60 42 -61 42
-75 21 -29 -40 -62 -22 -39 21 13 26 12 27 -54 62 l-68 36 -11 -25 c-13 -27
-39 -33 -48 -11 -3 8 -1 23 5 33 9 17 3 21 -54 36 -80 21 -85 21 -85 -2 0 -22
-25 -45 -40 -36 -5 3 -10 17 -10 31 0 21 -5 24 -32 23 -18 0 -51 -7 -72 -15z"></path>
</g>
</svg>