<!--?xml version="1.0" standalone="no"?-->

<svg version="1.0" xmlns="http://www.w3.org/2000/svg" width="300.000000pt" height="259.000000pt" viewBox="0 0 300.000000 259.000000" preserveAspectRatio="xMidYMid meet">
<g transform="translate(0.000000,259.000000) scale(0.100000,-0.100000)" fill="#D4A2EC" stroke="none">
<path d="M2815 2495 c-15 -36 -32 -65 -37 -65 -6 0 -8 6 -5 14 3 8 9 31 13 52
10 55 -9 35 -35 -35 -23 -63 -49 -96 -37 -47 3 14 9 37 12 51 4 14 2 25 -4 25
-6 0 -20 -29 -32 -65 -12 -36 -26 -65 -32 -65 -6 0 -8 9 -4 23 13 43 19 92 11
84 -5 -4 -20 -37 -34 -74 -29 -73 -57 -101 -40 -38 21 76 4 79 -26 5 l-30 -74
-124 -78 c-68 -43 -127 -78 -132 -78 -4 0 -22 29 -39 64 -43 91 -106 164 -189
220 -139 93 -281 130 -414 108 -89 -15 -220 -79 -285 -137 l-47 -43 -45 37
c-105 87 -250 141 -376 141 -114 0 -264 -60 -366 -147 -106 -90 -153 -167
-189 -304 -29 -111 -24 -307 11 -414 47 -148 97 -231 213 -358 l88 -96 -148
-87 c-81 -49 -151 -93 -155 -99 -16 -21 -28 21 -24 77 2 32 1 60 -4 63 -4 3
-28 -19 -52 -47 -23 -29 -90 -104 -147 -166 -57 -62 -101 -115 -99 -118 3 -2
45 5 94 16 97 22 177 39 297 65 42 9 77 19 77 23 0 4 -29 18 -65 32 -36 13
-64 28 -62 34 2 5 73 49 158 96 l154 86 135 -125 c74 -69 195 -181 269 -250
74 -70 159 -148 188 -175 29 -28 53 -55 53 -62 0 -34 34 -10 129 90 58 61 234
242 391 401 158 160 302 313 321 340 115 163 174 394 150 585 -6 46 -11 87
-11 91 0 12 246 169 281 180 19 5 66 9 104 8 88 -2 93 -1 75 11 -8 5 -31 10
-50 10 -19 0 -42 5 -50 10 -20 13 73 13 119 0 19 -5 39 -6 44 -3 12 8 -47 31
-80 32 -13 1 -23 6 -23 12 0 12 67 8 118 -7 43 -12 21 13 -25 29 l-48 17 55
-4 c30 -2 63 -7 74 -11 14 -6 18 -5 14 6 -2 8 -23 18 -46 23 -71 16 -49 29 38
23 83 -7 103 6 32 19 -52 9 -54 12 -36 40 19 28 13 30 -23 7 l-25 -17 7 52 c4
29 5 52 2 52 -2 0 -16 -29 -32 -65z m-936 -41 c215 -80 344 -233 380 -455 34
-207 -22 -431 -152 -608 -23 -31 -177 -193 -343 -361 -166 -168 -331 -336
-367 -375 l-64 -69 -68 59 c-37 33 -179 171 -315 306 l-248 245 61 35 c33 19
98 55 144 80 l83 45 55 -53 c30 -29 62 -53 71 -53 9 0 -8 22 -42 53 -67 60
-145 175 -169 247 -9 28 -21 50 -26 50 -17 0 -9 -24 36 -114 25 -49 45 -90 45
-92 0 -1 -55 -35 -122 -75 -68 -40 -133 -79 -146 -87 -21 -14 -26 -11 -95 59
-142 143 -221 301 -248 492 -44 325 130 600 431 679 87 23 176 18 266 -12 60
-21 174 -93 213 -134 14 -14 31 -26 39 -26 7 0 39 22 70 49 161 139 339 178
511 115z m-1523 -1491 c31 -14 52 -29 47 -34 -4 -4 -55 -17 -113 -29 -58 -12
-131 -28 -164 -36 -32 -8 -60 -14 -61 -12 -2 2 24 32 56 68 33 36 85 97 117
135 l57 70 3 -68 3 -69 55 -25z" id="node1" class="node"></path>
</g>
<g transform="translate(0.000000,259.000000) scale(0.100000,-0.100000)" fill="#33A86E" stroke="none">

<path d="M1664 2480 c-107 -15 -202 -60 -296 -141 -31 -27 -63 -49 -70 -49 -8
0 -25 12 -39 26 -39 41 -153 113 -213 134 -90 30 -179 35 -266 12 -301 -79
-475 -354 -431 -679 27 -191 106 -349 248 -492 69 -70 74 -73 95 -59 13 8 78
47 146 87 67 40 122 74 122 75 0 2 -20 43 -45 92 -45 90 -53 114 -36 114 5 0
17 -22 26 -50 24 -72 102 -187 169 -247 34 -31 51 -53 42 -53 -9 0 -41 24 -71
53 l-55 53 -83 -45 c-46 -25 -111 -61 -144 -80 l-61 -35 248 -245 c136 -135
278 -273 315 -306 l68 -59 64 69 c36 39 201 207 367 375 166 168 320 330 343
361 219 298 215 715 -9 931 -80 77 -233 151 -333 160 -27 3 -73 2 -101 -2z" id="node3" class="node"></path>
<path d="M238 1055 c-32 -38 -84 -99 -117 -135 -32 -36 -58 -66 -56 -68 1 -2
29 4 61 12 33 8 106 24 164 36 58 12 109 25 113 29 5 5 -16 20 -47 34 l-55 25
-3 69 -3 68 -57 -70z" id="node4" class="node"></path>
</g>
</svg>