<!--?xml version="1.0" standalone="no"?-->

<svg version="1.0" xmlns="http://www.w3.org/2000/svg" width="274.000000pt" height="300.000000pt" viewBox="0 0 274.000000 300.000000" preserveAspectRatio="xMidYMid meet">
<g transform="translate(0.000000,300.000000) scale(0.100000,-0.100000)" fill="#242424" stroke="none">
<path d="M626 2990 c-111 -20 -219 -72 -307 -147 -150 -129 -217 -271 -226
-478 -10 -217 25 -384 138 -662 13 -31 12 -33 -37 -85 -103 -109 -178 -276
-190 -425 -14 -169 44 -365 163 -552 29 -45 34 -61 29 -91 -8 -52 27 -117 78
-146 35 -18 42 -29 56 -80 22 -82 62 -145 130 -207 117 -105 242 -142 333 -98
24 11 52 21 63 21 55 1 162 78 224 162 l27 37 6 -44 c9 -87 110 -191 175 -181
78 12 182 123 182 194 l0 33 29 -20 c37 -27 40 -27 90 9 l41 30 10 -25 c26
-68 184 -194 245 -195 12 0 38 -9 60 -20 94 -48 219 -11 340 102 68 63 108
128 128 209 12 45 20 56 51 72 56 29 80 71 80 136 -1 48 4 63 41 121 54 85 86
155 121 265 26 80 29 104 28 215 -1 106 -5 137 -26 202 -35 106 -88 197 -161
274 l-61 66 18 46 c97 250 128 392 129 587 1 188 -19 256 -120 412 -59 91
-211 208 -298 229 -17 4 -35 10 -40 15 -6 4 -50 13 -98 20 -298 42 -592 -136
-692 -419 -21 -57 -26 -57 -45 3 -52 167 -216 325 -404 389 -87 30 -225 41
-310 26z m303 -60 c108 -42 158 -74 232 -149 101 -102 159 -213 178 -341 9
-63 37 -68 46 -8 38 250 220 451 465 514 95 24 251 15 344 -20 256 -97 406
-321 406 -605 0 -117 -33 -314 -70 -423 -135 -389 -387 -693 -773 -930 -147
-90 -152 -92 -200 -73 -73 29 -163 -8 -193 -81 -8 -19 -16 -34 -19 -34 -18 0
-279 126 -340 165 -234 147 -312 209 -470 376 -224 236 -378 575 -404 886 -25
307 60 511 270 654 59 40 99 58 194 85 74 21 263 12 334 -16z m1617 -1376 c56
-71 98 -153 126 -242 30 -95 29 -248 -1 -357 -23 -82 -107 -262 -141 -304
l-20 -23 -33 24 c-49 38 -111 67 -169 79 -29 6 -55 13 -57 15 -2 2 8 19 23 38
54 71 116 211 128 290 12 70 16 80 47 103 24 19 50 28 88 31 44 4 51 7 42 18
-17 20 -89 17 -132 -6 -46 -25 -47 -25 -47 0 0 19 -38 99 -77 161 -16 26 -16
28 9 57 14 17 49 69 78 116 61 99 59 99 136 0z m-2201 -46 c33 -50 64 -97 70
-104 7 -10 6 -20 -3 -31 -23 -33 -72 -138 -72 -155 0 -22 2 -22 -45 2 -39 20
-89 26 -119 14 -29 -11 -16 -24 25 -24 66 0 129 -44 129 -90 0 -72 49 -199
120 -309 22 -34 40 -63 40 -65 0 -1 -26 -9 -57 -16 -64 -14 -121 -40 -171 -78
-38 -29 -31 -33 -85 58 -153 256 -172 501 -57 731 29 56 99 153 129 177 13 11
18 10 26 -3 6 -9 37 -57 70 -107z m1963 -181 c40 -60 65 -146 59 -208 -6 -72
-40 -167 -90 -249 -61 -102 -83 -127 -119 -134 -18 -3 -48 -17 -68 -30 -19
-12 -46 -25 -60 -28 -14 -3 -32 -8 -41 -12 -11 -5 -20 3 -33 31 -9 21 -29 47
-43 57 -33 25 -102 25 -138 2 -30 -20 -61 -82 -71 -142 -7 -49 18 -157 46
-196 l19 -26 -30 15 c-27 14 -32 13 -65 -6 -28 -17 -39 -19 -50 -10 -8 7 -29
9 -48 6 l-35 -6 36 47 c66 86 87 145 87 247 1 76 -3 97 -21 128 l-22 37 42 21
c162 83 361 232 502 375 61 62 112 113 115 113 3 1 15 -14 28 -32z m-1533
-274 c90 -67 188 -128 320 -198 50 -26 91 -49 93 -50 2 -2 -10 -11 -25 -20
-50 -30 -75 -76 -72 -137 3 -62 -15 -98 -48 -98 -21 0 -23 4 -23 57 0 70 -30
137 -71 158 -15 8 -47 15 -70 15 -33 0 -47 -6 -75 -34 -19 -19 -34 -42 -34
-51 0 -12 -5 -15 -17 -10 -10 4 -36 11 -58 15 -22 3 -49 12 -60 18 -11 6 -36
15 -55 20 -35 8 -73 52 -133 157 -89 156 -95 316 -15 428 l20 29 122 -120 c66
-65 157 -146 201 -179z m781 -189 c18 -9 44 -33 56 -53 20 -30 23 -50 23 -126
0 -80 -3 -96 -29 -145 -33 -64 -73 -120 -90 -125 -6 -1 -29 -8 -52 -15 -54
-16 -149 8 -213 53 -37 27 -47 41 -52 72 -6 36 -21 55 -65 81 -23 13 -23 83 0
115 24 34 68 59 106 59 40 0 93 -29 110 -59 18 -35 30 -24 30 27 0 54 17 85
64 113 38 23 67 24 112 3z m-601 -138 c28 -28 39 -77 33 -149 -5 -62 -27 -111
-74 -166 -41 -48 -62 -51 -146 -22 -74 25 -103 45 -144 99 -66 87 -36 187 56
187 29 0 47 -8 68 -28 36 -35 42 -34 42 7 0 22 9 45 26 65 22 26 33 31 70 31
34 0 51 -6 69 -24z m929 14 c34 -13 60 -64 53 -107 -7 -40 4 -42 45 -8 50 42
105 33 139 -21 28 -47 19 -89 -31 -146 -48 -55 -117 -87 -204 -95 l-64 -6 -31
49 c-43 67 -65 146 -57 202 15 110 73 162 150 132z m-1284 -45 c6 -4 0 -19
-15 -37 -14 -16 -25 -35 -25 -43 0 -7 -21 -18 -46 -24 -26 -7 -63 -20 -83 -31
-37 -18 -114 -94 -123 -120 -3 -10 -9 -10 -29 4 -29 19 -49 56 -49 91 0 58
115 142 225 165 41 9 128 6 145 -5z m1766 -22 c74 -29 144 -97 144 -138 0 -35
-25 -82 -52 -96 -17 -9 -23 -9 -26 1 -10 28 -88 103 -132 125 -25 12 -65 26
-90 30 -32 5 -55 17 -79 42 -18 19 -31 37 -28 40 3 2 23 11 44 19 51 19 138
10 219 -23z m-1208 -115 c19 -19 15 -102 -6 -128 -15 -19 -25 -22 -54 -16 -70
13 -109 66 -73 96 12 10 22 10 39 2 28 -12 36 -7 36 23 0 12 3 25 7 28 10 11
38 8 51 -5z m-590 -28 c32 -90 122 -155 255 -184 35 -8 34 -21 -3 -36 -16 -7
-30 -16 -30 -21 0 -24 -32 -4 -45 28 -19 45 -30 53 -75 53 -19 0 -78 11 -130
25 -103 27 -140 31 -140 15 0 -6 10 -15 23 -20 30 -13 171 -47 230 -55 39 -5
50 -11 58 -31 14 -38 11 -53 -16 -79 -29 -30 -81 -33 -167 -9 -32 9 -61 14
-65 11 -10 -11 17 -36 53 -47 19 -6 34 -15 34 -20 0 -5 20 -16 45 -26 43 -16
47 -16 90 0 25 10 55 31 67 47 68 89 83 102 107 90 54 -29 44 -106 -22 -175
-79 -82 -162 -83 -286 -2 -120 78 -183 172 -197 289 -6 55 -5 60 22 89 33 34
90 73 120 81 47 12 62 7 72 -23z m1729 -4 c21 -13 51 -38 67 -54 27 -29 28
-35 23 -87 -12 -114 -79 -213 -198 -291 -124 -80 -203 -80 -284 1 -68 68 -79
146 -24 176 24 12 39 -1 107 -90 12 -16 42 -37 67 -47 43 -16 47 -16 90 0 25
10 45 21 45 25 0 5 20 16 45 25 25 10 45 24 45 32 0 18 -13 18 -74 -1 -125
-38 -209 4 -177 89 8 20 19 26 58 31 59 8 200 42 231 55 12 5 22 14 22 20 0
16 -37 12 -140 -15 -52 -14 -113 -25 -134 -25 l-39 0 41 30 c46 33 87 89 98
134 6 27 9 28 50 22 24 -3 61 -16 81 -30z m-1294 -120 c-8 -4 -33 -26 -55 -47
-22 -22 -44 -39 -49 -39 -18 0 -9 27 17 51 14 13 34 38 45 56 l21 33 18 -22
c16 -20 17 -24 3 -32z m262 8 c33 -17 76 -35 95 -39 62 -12 70 -16 70 -36 0
-17 -5 -19 -35 -13 -26 4 -44 1 -69 -14 -29 -17 -37 -18 -46 -7 -6 8 -27 19
-46 25 -29 10 -41 9 -73 -7 l-39 -20 -5 26 c-3 14 -9 34 -13 44 -3 10 -3 17 2
16 33 -6 57 4 72 31 9 16 19 29 22 27 3 -1 32 -16 65 -33z m-207 -50 c23 -16
29 -69 12 -109 -8 -18 -9 -17 -9 7 -1 16 -15 43 -33 63 -26 30 -29 38 -17 46
19 12 21 11 47 -7z m458 8 c6 -4 14 -16 18 -27 7 -19 8 -19 25 3 25 34 65 27
69 -11 3 -22 -6 -37 -36 -67 -22 -22 -44 -40 -50 -40 -21 0 -71 51 -77 80 -12
54 15 87 51 62z m213 -1 c12 -8 9 -16 -17 -46 -18 -20 -32 -47 -33 -63 0 -24
-1 -25 -9 -7 -17 40 -11 93 12 109 26 18 28 19 47 7z m271 -43 c-17 -40 -50
-64 -50 -38 0 6 -13 16 -30 21 -39 14 -38 29 3 29 17 1 46 7 62 15 17 7 31 14
32 14 1 1 -7 -18 -17 -41z m-995 -28 c46 -51 -18 -180 -107 -213 -14 -5 -12 3
8 41 22 39 25 56 20 102 -4 42 -1 59 11 72 21 24 46 23 68 -2z m796 4 c15 -14
17 -27 13 -73 -5 -47 -2 -63 20 -103 20 -38 22 -46 8 -41 -59 22 -123 106
-124 163 -1 32 26 70 50 70 9 0 24 -7 33 -16z m-554 -9 c12 -8 23 -25 25 -37
5 -32 21 -32 40 2 21 36 62 49 97 29 72 -41 27 -168 -82 -228 l-47 -26 -37 21
c-66 38 -97 85 -101 158 -4 57 -2 65 19 80 29 20 58 20 86 1z" id="node1" class="node"></path>
<path d="M930 2683 c-175 -16 -319 -104 -398 -243 -50 -86 -39 -92 36 -20 100
97 230 155 375 167 65 6 71 9 107 47 l39 41 -37 7 c-38 7 -61 7 -122 1z" id="node2" class="node"></path>
<path d="M1673 2682 l-33 -7 40 -42 c35 -38 44 -43 83 -43 62 0 191 -35 266
-73 35 -18 95 -61 132 -95 38 -35 69 -58 69 -52 0 26 -65 125 -114 174 -57 56
-146 107 -216 124 -61 14 -188 22 -227 14z" id="node3" class="node"></path>
<path d="M806 2302 c-89 -49 -146 -163 -146 -292 l0 -70 228 2 227 3 3 45 c10
131 -58 269 -156 319 -55 28 -97 26 -156 -7z m142 -26 c70 -37 123 -129 130
-228 l5 -68 -32 0 c-28 0 -31 3 -31 29 0 50 -9 61 -49 61 -40 0 -61 14 -61 42
0 14 -8 18 -35 18 -68 0 -114 -41 -130 -117 -5 -27 -11 -33 -32 -33 -25 0 -26
1 -19 60 7 63 35 136 70 183 43 58 127 83 184 53z" id="node4" class="node"></path>
<path d="M1758 2305 c-86 -45 -138 -148 -141 -280 l-2 -80 225 0 225 0 3 63
c6 124 -58 251 -149 297 -60 31 -101 31 -161 0z m151 -36 c20 -11 48 -37 64
-56 30 -40 67 -151 67 -202 0 -26 -4 -31 -24 -31 -20 0 -25 7 -31 38 -10 54
-21 63 -66 56 -44 -7 -69 7 -69 39 0 17 -5 19 -37 14 -48 -8 -90 -50 -101
-101 -7 -37 -11 -41 -37 -41 -29 0 -30 1 -27 45 5 72 29 142 63 184 64 76 129
95 198 55z" id="node5" class="node"></path>
<path d="M836 1528 c97 -155 177 -248 267 -312 202 -143 417 -107 627 104 68
68 180 218 180 241 0 13 -42 11 -203 -8 -96 -12 -213 -18 -362 -18 -155 0
-257 5 -345 18 -68 9 -139 17 -157 17 l-33 0 26 -42z m134 -5 c5 -5 30 -86 27
-89 -9 -9 -93 47 -108 72 l-19 32 47 -6 c27 -2 50 -7 53 -9z m890 10 c-2 -26
-80 -83 -115 -83 -1 0 3 18 8 40 10 36 14 39 51 43 23 2 44 4 49 5 4 1 7 -1 7
-5z m-768 -45 c3 -18 8 -41 13 -50 6 -14 2 -18 -16 -18 -58 0 -69 10 -69 56 0
43 1 44 34 44 31 0 34 -3 38 -32z m283 21 c99 1 194 3 210 4 28 2 30 -1 33
-37 2 -21 -2 -44 -8 -50 -30 -30 -300 -45 -420 -23 -64 12 -65 13 -71 47 -8
53 5 73 44 64 18 -4 113 -6 212 -5z m345 -28 c0 -41 0 -41 -63 -55 -25 -6 -28
-4 -22 14 3 11 8 32 10 48 2 15 4 28 4 30 1 1 17 2 36 2 34 0 35 -1 35 -39z
m-274 -181 c34 -6 83 -20 110 -31 45 -20 47 -22 28 -36 -37 -29 -140 -71 -191
-78 -66 -9 -160 15 -230 57 -29 18 -53 35 -53 39 0 10 81 38 140 48 76 12 125
12 196 1z" id="node6" class="node"></path>
<path d="M1485 150 c-19 -36 -19 -61 -1 -105 13 -31 19 -35 53 -35 78 0 137
67 98 110 -10 11 -25 20 -34 20 -9 0 -22 9 -29 20 -20 32 -68 27 -87 -10z m65
-26 c0 -23 3 -25 30 -19 23 5 32 3 37 -11 9 -23 -30 -54 -68 -54 -39 0 -65 46
-47 85 15 34 48 34 48 -1z" id="node7" class="node"></path>
</g>
<g transform="translate(0.000000,300.000000) scale(0.100000,-0.100000)" fill="#FFFFFF" stroke="none">



<path d="M595 2946 c-95 -27 -135 -45 -194 -85 -161 -110 -254 -266 -270 -459
-31 -363 128 -790 404 -1081 158 -167 236 -229 470 -376 61 -39 322 -165 340
-165 3 0 11 15 19 34 30 73 120 110 193 81 48 -19 53 -17 200 73 358 220 595
490 743 847 57 137 100 356 100 506 0 284 -150 508 -406 605 -93 35 -249 44
-344 20 -245 -63 -427 -264 -465 -514 -9 -60 -37 -55 -46 8 -19 128 -77 239
-178 341 -74 75 -124 107 -232 149 -71 28 -260 37 -334 16z m457 -264 l37 -7
-39 -41 c-36 -38 -42 -41 -107 -47 -145 -12 -275 -70 -375 -167 -75 -72 -86
-66 -36 20 63 111 189 204 310 229 91 19 156 23 210 13z m848 -14 c70 -17 159
-68 216 -124 49 -49 114 -148 114 -174 0 -6 -31 17 -69 52 -37 34 -97 77 -132
95 -75 38 -204 73 -266 73 -39 0 -48 5 -83 43 l-40 42 33 7 c39 8 166 0 227
-14z m-938 -359 c98 -50 166 -188 156 -319 l-3 -45 -227 -3 -228 -2 0 70 c0
129 57 243 146 292 59 33 101 35 156 7z m957 -4 c91 -46 155 -173 149 -297
l-3 -63 -225 0 -225 0 2 80 c3 132 55 235 141 280 60 31 101 31 161 0z m-919
-752 c88 -13 190 -18 345 -18 149 0 266 6 362 18 161 19 203 21 203 8 0 -23
-112 -173 -180 -241 -210 -211 -425 -247 -627 -104 -90 64 -170 157 -267 312
l-26 42 33 0 c18 0 89 -8 157 -17z" id="node11" class="node"></path>
<path d="M820 2271 c-63 -34 -114 -128 -126 -231 -7 -59 -6 -60 19 -60 21 0
27 6 32 33 16 76 62 117 130 117 27 0 35 -4 35 -18 0 -28 21 -42 61 -42 40 0
49 -11 49 -61 0 -26 3 -29 31 -29 l32 0 -5 68 c-13 173 -141 285 -258 223z" id="node12" class="node"></path>
<path d="M1774 2271 c-72 -44 -119 -134 -126 -241 -3 -44 -2 -45 27 -45 26 0
30 4 37 41 11 51 53 93 101 101 32 5 37 3 37 -14 0 -32 25 -46 69 -39 45 7 56
-2 66 -56 6 -31 11 -38 31 -38 20 0 24 5 24 31 0 51 -37 162 -67 202 -56 72
-137 96 -199 58z" id="node13" class="node"></path>
<path d="M889 1506 c15 -25 99 -81 108 -72 3 3 -22 84 -27 89 -3 2 -26 7 -53
9 l-47 6 19 -32z" id="node14" class="node"></path>
<path d="M1804 1533 c-37 -4 -41 -7 -51 -43 -5 -22 -9 -40 -8 -40 20 0 75 29
92 49 23 27 29 42 16 39 -5 -1 -26 -3 -49 -5z" id="node15" class="node"></path>
<path d="M1020 1476 c0 -46 11 -56 69 -56 18 0 22 4 16 18 -5 9 -10 32 -13 50
-4 29 -7 32 -38 32 -33 0 -34 -1 -34 -44z" id="node16" class="node"></path>
<path d="M1123 1503 c-5 -10 -7 -34 -4 -53 6 -34 7 -35 71 -47 120 -22 390 -7
420 23 6 6 10 29 8 50 -3 36 -5 39 -33 37 -85 -6 -394 -5 -422 1 -25 6 -33 4
-40 -11z" id="node17" class="node"></path>
<path d="M1649 1518 c0 -2 -2 -15 -4 -30 -2 -16 -7 -37 -10 -48 -6 -18 -3 -20
22 -14 63 14 63 14 63 55 0 38 -1 39 -35 39 -19 0 -35 -1 -36 -2z" id="node18" class="node"></path>
<path d="M1250 1299 c-59 -10 -140 -38 -140 -48 0 -4 24 -21 53 -39 70 -42
164 -66 230 -57 51 7 154 49 191 78 19 14 17 16 -28 36 -86 37 -194 48 -306
30z" id="node19" class="node"></path>
<path d="M2410 1554 c-29 -47 -64 -99 -78 -116 -25 -29 -25 -31 -9 -57 39 -62
77 -142 77 -161 0 -25 1 -25 47 0 43 23 115 26 132 6 9 -11 2 -14 -42 -18 -38
-3 -64 -12 -88 -31 -31 -23 -35 -33 -47 -103 -12 -79 -74 -219 -128 -290 -15
-19 -25 -36 -23 -38 2 -2 28 -9 57 -15 58 -12 120 -41 169 -79 l33 -24 20 23
c34 42 118 222 141 304 30 109 31 262 1 357 -28 89 -70 171 -126 242 -77 99
-75 99 -136 0z" id="node20" class="node"></path>
<path d="M249 1618 c-9 -7 -35 -38 -59 -67 -162 -210 -188 -475 -73 -728 23
-50 71 -135 102 -182 8 -12 15 -10 43 11 50 38 107 64 171 78 31 7 57 15 57
16 0 2 -18 31 -40 65 -71 110 -120 237 -120 309 0 46 -63 90 -129 90 -41 0
-54 13 -25 24 30 12 80 6 119 -14 47 -24 45 -24 45 -2 0 17 49 122 72 155 9
11 10 21 3 31 -11 15 -124 185 -140 211 -8 13 -13 14 -26 3z" id="node21" class="node"></path>




<path d="M1444 861 c-47 -28 -64 -59 -64 -113 0 -51 -12 -62 -30 -27 -17 30
-70 59 -110 59 -38 0 -82 -25 -106 -59 -23 -32 -23 -102 0 -115 44 -26 59 -45
65 -81 5 -31 15 -45 52 -72 64 -45 159 -69 213 -53 23 7 46 14 52 15 17 5 57
61 90 125 26 49 29 65 29 145 0 76 -3 96 -23 126 -23 39 -74 69 -114 69 -12 0
-37 -9 -54 -19z" id="node26" class="node"></path>
<path d="M816 719 c-17 -20 -26 -43 -26 -65 0 -41 -6 -42 -42 -7 -21 20 -39
28 -68 28 -92 0 -122 -100 -56 -187 41 -54 70 -74 144 -99 84 -29 105 -26 146
22 47 55 69 104 74 166 10 116 -24 173 -102 173 -37 0 -48 -5 -70 -31z" id="node27" class="node"></path>
<path d="M1800 737 c-31 -15 -58 -68 -66 -129 -8 -56 14 -135 57 -202 l31 -49
64 6 c87 8 156 40 204 95 50 57 59 99 31 146 -34 54 -89 63 -139 21 -41 -34
-52 -32 -45 8 13 82 -64 140 -137 104z" id="node28" class="node"></path>
<path d="M455 700 c-110 -23 -225 -107 -225 -165 0 -35 20 -72 49 -91 20 -14
26 -14 29 -4 9 26 86 102 123 120 20 11 57 24 83 31 25 6 46 17 46 24 0 8 11
27 25 43 15 18 21 33 15 37 -17 11 -104 14 -145 5z" id="node29" class="node"></path>
<path d="M2147 696 c-21 -8 -41 -17 -44 -19 -3 -3 10 -21 28 -40 24 -25 47
-37 79 -42 25 -4 65 -18 90 -30 44 -22 122 -97 132 -125 6 -20 44 4 63 40 25
48 19 76 -25 124 -72 78 -236 124 -323 92z" id="node30" class="node"></path>
<path d="M1107 563 c-4 -3 -7 -16 -7 -28 0 -30 -8 -35 -36 -23 -17 8 -27 8
-39 -2 -36 -30 3 -83 73 -96 29 -6 39 -3 54 16 21 26 25 109 6 128 -13 13 -41
16 -51 5z" id="node31" class="node"></path>
<path d="M496 553 c-30 -8 -87 -47 -120 -81 -27 -29 -28 -34 -22 -89 14 -117
77 -211 197 -289 124 -81 207 -80 286 2 66 69 76 146 22 175 -24 12 -39 -1
-107 -90 -12 -16 -42 -37 -67 -47 -43 -16 -47 -16 -90 0 -25 10 -45 21 -45 26
0 5 -15 14 -34 20 -36 11 -63 36 -53 47 4 3 33 -2 65 -11 86 -24 138 -21 167
9 27 26 30 41 16 79 -8 20 -19 26 -58 31 -59 8 -200 42 -230 55 -13 5 -23 14
-23 20 0 16 37 12 140 -15 52 -14 111 -25 130 -25 45 0 56 -8 75 -53 13 -32
45 -52 45 -28 0 5 14 14 30 21 37 15 38 28 3 36 -133 29 -223 94 -255 184 -10
30 -25 35 -72 23z" id="node32" class="node"></path>
<path d="M2166 534 c-11 -45 -52 -101 -98 -134 l-41 -30 39 0 c21 0 82 11 134
25 103 27 140 31 140 15 0 -6 -10 -15 -22 -20 -31 -13 -172 -47 -231 -55 -39
-5 -50 -11 -58 -31 -32 -85 52 -127 177 -89 61 19 74 19 74 1 0 -8 -20 -22
-45 -32 -25 -9 -45 -20 -45 -25 0 -4 -20 -15 -45 -25 -43 -16 -47 -16 -90 0
-25 10 -55 31 -67 47 -68 89 -83 102 -107 90 -55 -30 -44 -108 24 -176 81 -81
160 -81 284 -1 119 78 186 177 198 291 5 52 4 58 -23 87 -44 46 -99 78 -148
84 -41 6 -44 5 -50 -22z" id="node33" class="node"></path>


<path d="M1011 371 c-12 -8 -9 -16 17 -46 18 -20 32 -47 33 -63 0 -24 1 -25 9
-7 17 40 11 93 -12 109 -26 18 -28 19 -47 7z" id="node36" class="node"></path>
<path d="M1465 360 c-11 -34 5 -78 37 -105 16 -14 34 -25 40 -25 6 0 28 18 50
40 30 30 39 45 36 67 -4 38 -44 45 -69 11 -17 -22 -18 -22 -25 -3 -15 39 -58
48 -69 15z" id="node37" class="node"></path>
<path d="M1682 364 c-23 -16 -29 -69 -12 -109 8 -18 9 -17 9 7 1 16 15 43 33
63 26 30 29 38 17 46 -19 12 -21 11 -47 -7z" id="node38" class="node"></path>
<path d="M1985 355 c-16 -8 -45 -14 -62 -15 -41 0 -42 -15 -3 -29 17 -5 30
-15 30 -21 0 -26 33 -2 50 38 10 23 18 42 17 41 -1 0 -15 -7 -32 -14z" id="node39" class="node"></path>
<path d="M937 302 c-12 -13 -15 -30 -11 -72 5 -46 2 -63 -20 -102 -20 -38 -22
-46 -8 -41 59 22 123 106 124 163 1 33 -26 70 -52 70 -9 0 -24 -8 -33 -18z" id="node40" class="node"></path>
<path d="M1735 300 c-46 -51 18 -180 107 -213 14 -5 12 3 -8 41 -22 40 -25 56
-20 103 4 46 2 59 -13 73 -24 21 -44 20 -66 -4z" id="node41" class="node"></path>
<path d="M1161 294 c-21 -15 -23 -23 -19 -80 4 -73 35 -120 101 -158 l37 -21
47 26 c109 60 154 187 82 228 -35 20 -76 7 -97 -29 -19 -34 -35 -34 -40 -2 -4
26 -38 52 -67 52 -11 0 -31 -7 -44 -16z" id="node42" class="node"></path>

<path d="M1502 125 c-18 -39 8 -85 47 -85 38 0 77 31 68 54 -5 14 -14 16 -37
11 -27 -6 -30 -4 -30 19 0 35 -33 35 -48 1z" id="node44" class="node"></path>
</g>
</svg>