<!--?xml version="1.0" standalone="no"?-->

<svg version="1.0" xmlns="http://www.w3.org/2000/svg" width="293.000000pt" height="300.000000pt" viewBox="0 0 293.000000 300.000000" preserveAspectRatio="xMidYMid meet">
<g transform="translate(0.000000,300.000000) scale(0.100000,-0.100000)" fill="#1D1D1D" stroke="none">
<path class="node" id="node1" d="M1439 1928 c-1 -7 -1 -17 0 -22 1 -5 -4 -13 -11 -17 -7 -4 -10 -11
-6 -14 10 -10 48 18 48 35 0 9 9 16 20 17 16 1 20 -2 15 -18 -6 -19 2 -24 34
-20 7 2 11 -1 8 -6 -11 -17 14 -103 30 -103 8 0 13 -6 10 -12 -2 -7 -9 -12
-15 -11 -6 1 -15 -12 -21 -29 -32 -91 -100 -91 -132 0 -6 18 -17 32 -25 32 -8
0 -14 5 -14 10 0 6 7 10 15 10 8 0 15 9 15 19 0 10 -6 18 -12 17 -7 0 -14 4
-15 9 -1 6 7 9 17 7 13 -2 20 2 20 12 0 10 -6 13 -15 10 -8 -4 -15 -1 -15 5 0
24 -21 9 -26 -19 -4 -16 -13 -30 -20 -30 -8 0 -14 -9 -14 -20 0 -11 6 -20 13
-20 7 0 13 -8 14 -17 1 -10 4 -28 8 -40 5 -15 3 -23 -4 -23 -6 0 -11 7 -11 15
0 18 -20 57 -35 67 -7 5 -6 14 2 27 11 17 10 22 -7 31 -16 9 -20 8 -20 -5 0
-8 -7 -15 -16 -15 -12 0 -15 6 -10 24 4 17 1 26 -10 30 -24 9 -25 8 -18 -20 6
-22 4 -25 -12 -22 -12 2 -18 11 -17 25 2 18 -1 20 -24 14 -92 -25 -91 -189 2
-299 31 -36 42 -39 61 -14 13 16 15 16 27 0 13 -16 15 -16 30 -1 15 15 17 15
23 0 4 -11 17 -17 38 -17 26 0 37 8 69 55 21 30 41 55 45 55 11 -1 44 -50 33
-50 -6 0 -14 8 -20 17 -9 17 -11 16 -30 -1 -29 -26 -26 -40 5 -32 17 5 23 3
19 -4 -4 -6 -3 -10 2 -9 4 1 19 1 33 0 19 -1 21 -4 12 -13 -7 -7 -12 -20 -12
-30 0 -21 -16 -24 -23 -5 -3 7 -6 6 -6 -5 -1 -9 -6 -20 -13 -24 -8 -5 -9 -2
-5 10 4 9 3 15 -2 11 -20 -12 -41 7 -35 31 8 30 1 30 -26 2 -19 -21 -31 -23
-113 -24 l-92 -1 -3 -37 -3 -36 273 2 273 3 3 26 c2 14 -4 31 -12 38 -12 10
-7 19 33 56 33 31 51 58 63 97 34 104 17 177 -48 204 -27 11 -40 11 -79 -1
-26 -7 -56 -22 -67 -32 -13 -11 -22 -14 -25 -7 -2 6 -11 20 -19 30 -14 18 -15
16 -9 -20 5 -29 3 -37 -7 -33 -7 2 -12 10 -10 16 1 7 -2 20 -8 31 -8 15 -6 21
7 29 17 9 17 10 1 16 -10 4 -25 5 -33 1 -9 -3 -15 0 -15 9 0 8 6 15 13 15 8 0
7 4 -3 10 -22 14 -90 12 -91 -2z m325 -83 c-4 -8 -10 -15 -15 -15 -5 0 -9 7
-9 15 0 8 7 15 15 15 9 0 12 -6 9 -15z m-34 -10 c0 -8 -6 -15 -14 -15 -17 0
-28 14 -19 24 12 12 33 6 33 -9z m-542 -13 c2 -7 -6 -12 -17 -12 -21 0 -27 11
-14 24 9 9 26 2 31 -12z m502 -12 c0 -5 -9 -10 -21 -10 -11 0 -17 5 -14 10 3
6 13 10 21 10 8 0 14 -4 14 -10z m125 0 c-3 -5 -13 -10 -21 -10 -8 0 -14 5
-14 10 0 6 9 10 21 10 11 0 17 -4 14 -10z m-528 -32 c12 -11 31 -44 43 -73 20
-49 20 -55 6 -89 -20 -48 -59 -50 -102 -3 -57 61 -72 139 -33 178 23 23 51 19
86 -13z m-127 7 c0 -8 -4 -15 -10 -15 -5 0 -10 7 -10 15 0 8 5 15 10 15 6 0
10 -7 10 -15z m629 -16 c13 -24 13 -32 -4 -75 -21 -55 -76 -114 -107 -114 -31
0 -58 29 -58 62 0 37 43 122 72 143 33 23 79 16 97 -16z m-139 12 c0 -12 -20
-25 -27 -18 -7 7 6 27 18 27 5 0 9 -4 9 -9z m180 -20 c0 -6 -4 -13 -10 -16 -5
-3 -10 1 -10 9 0 9 5 16 10 16 6 0 10 -4 10 -9z m-670 -26 c0 -8 -4 -15 -9
-15 -13 0 -22 16 -14 24 11 11 23 6 23 -9z m460 -10 c0 -8 -4 -15 -9 -15 -13
0 -22 16 -14 24 11 11 23 6 23 -9z m210 -19 c0 -8 -4 -17 -10 -21 -5 -3 -7
-12 -4 -20 4 -8 -1 -18 -10 -21 -9 -3 -16 -12 -16 -20 0 -8 -7 -14 -15 -14
-21 0 -19 12 5 33 11 9 23 31 27 47 6 30 23 42 23 16z m-662 -17 c-2 -6 -8
-10 -13 -10 -5 0 -11 4 -13 10 -2 6 4 11 13 11 9 0 15 -5 13 -11z m442 -19 c0
-5 -9 -10 -20 -10 -11 0 -20 5 -20 10 0 6 9 10 20 10 11 0 20 -4 20 -10z
m-230 -15 c0 -8 -4 -15 -10 -15 -5 0 -10 7 -10 15 0 8 5 15 10 15 6 0 10 -7
10 -15z m-197 -19 c6 -16 -2 -28 -14 -20 -12 7 -11 34 0 34 5 0 11 -6 14 -14z
m197 -27 c0 -6 -7 -17 -15 -26 -8 -8 -13 -19 -10 -24 4 -5 -1 -9 -9 -9 -20 0
-20 14 -1 30 8 7 15 19 15 26 0 8 5 14 10 14 6 0 10 -5 10 -11z m225 -9 c-3
-5 -13 -10 -21 -10 -8 0 -14 5 -14 10 0 6 9 10 21 10 11 0 17 -4 14 -10z
m-380 -9 c7 -12 -12 -24 -25 -16 -11 7 -4 25 10 25 5 0 11 -4 15 -9z m525 -6
c0 -8 -4 -15 -10 -15 -5 0 -10 7 -10 15 0 8 5 15 10 15 6 0 10 -7 10 -15z
m-115 -25 c3 -5 -3 -10 -15 -10 -12 0 -18 5 -15 10 3 6 10 10 15 10 5 0 12 -4
15 -10z m74 -24 c-8 -18 -17 -21 -40 -18 -21 3 -29 9 -25 19 3 8 6 17 6 19 0
2 5 4 10 4 6 0 10 -7 10 -15 0 -22 17 -18 23 6 3 12 10 18 16 15 7 -5 7 -14 0
-30z"></path>
<path class="node" id="node2" d="M1212 1768 c-17 -17 -15 -36 12 -94 22 -48 40 -64 71 -64 36 0 19 97
-25 142 -32 31 -40 34 -58 16z"></path>
<path class="node" id="node3" d="M1720 1767 c-33 -17 -71 -85 -68 -122 6 -59 60 -39 99 37 33 66 17
109 -31 85z"></path>
<path class="node" id="node4" d="M1454 1838 c-20 -39 -14 -110 12 -139 17 -19 18 -19 37 0 29 28 33
98 8 139 -26 40 -36 40 -57 0z"></path>
<path class="node" id="node5" d="M206 1551 l-179 -155 33 -9 c18 -4 51 -20 74 -35 86 -56 82 -55 139
-18 71 45 170 153 161 175 -23 55 -37 102 -43 147 l-6 50 -179 -155z"></path>
<path class="node" id="node6" d="M2550 1640 c0 -25 -12 -72 -25 -105 -14 -33 -25 -65 -25 -71 0 -19
117 -140 166 -173 l46 -30 42 28 c22 15 65 37 94 48 l53 19 -43 39 c-38 34
-130 120 -265 249 l-43 40 0 -44z"></path>
<path class="node" id="node7" d="M424 1453 c-85 -95 -128 -132 -206 -172 -16 -8 -28 -18 -28 -23 0
-10 72 -108 80 -108 16 0 104 68 163 126 64 64 91 83 45 32 -13 -13 -37 -40
-54 -60 -18 -20 -41 -41 -53 -47 -11 -7 -21 -15 -21 -19 0 -13 214 -228 277
-278 127 -101 263 -193 304 -204 66 -19 60 3 -20 69 -43 34 -83 72 -90 84 -13
20 -13 20 12 1 13 -10 52 -43 86 -72 78 -65 128 -91 193 -99 44 -5 50 -4 47
12 -2 9 -33 33 -68 52 -87 47 -171 105 -201 139 l-25 28 25 -17 c14 -9 49 -33
77 -53 130 -89 251 -127 283 -89 19 22 -1 40 -70 64 -61 20 -156 77 -199 118
-30 29 -21 29 27 0 49 -31 149 -73 192 -81 19 -4 48 -12 63 -18 22 -9 31 -8
43 4 23 23 -8 52 -94 88 -67 29 -165 83 -254 141 -38 25 -58 56 -58 89 0 24
46 56 102 71 52 14 103 53 113 87 l7 23 -79 -8 c-43 -4 -130 -7 -193 -7 -201
0 -350 60 -285 114 21 18 18 32 -15 57 -50 40 -53 39 -126 -44z m-130 -179
c20 -8 21 -44 2 -70 -12 -15 -18 -17 -33 -8 -22 14 -29 50 -13 70 14 16 21 17
44 8z"></path>
<path class="node" id="node8" d="M261 1251 c-19 -12 -6 -43 16 -39 10 2 18 12 18 22 0 22 -14 29 -34
17z"></path>
<path class="node" id="node9" d="M2392 1479 l-43 -31 21 -32 c11 -19 20 -36 20 -38 0 -14 -109 -50
-180 -60 -63 -10 -108 -9 -232 4 -89 9 -157 12 -162 7 -14 -13 22 -57 64 -79
19 -11 58 -30 85 -43 63 -31 86 -69 58 -99 -43 -48 -220 -145 -358 -195 -42
-16 -50 -23 -50 -43 0 -24 3 -25 50 -22 61 4 205 53 257 87 50 33 49 16 -1
-24 -40 -32 -156 -91 -179 -91 -25 0 -82 -32 -82 -46 0 -19 32 -34 72 -34 39
0 169 60 260 121 50 33 58 36 38 14 -29 -31 -139 -100 -223 -141 -31 -16 -56
-33 -54 -39 2 -5 29 -10 59 -9 65 1 126 33 228 118 36 30 67 52 70 49 7 -7
-83 -85 -137 -120 -24 -15 -43 -31 -43 -36 0 -5 20 -7 44 -5 33 4 74 26 177
94 164 109 252 179 348 278 l74 77 -24 27 c-13 15 -29 30 -36 35 -14 9 -83
102 -83 112 0 3 12 -8 28 -26 43 -52 141 -143 170 -158 25 -13 28 -12 69 35
24 27 43 51 43 55 0 3 -12 12 -27 20 -46 23 -87 62 -234 221 l-44 47 -43 -30z
m295 -265 c2 -7 -5 -10 -20 -7 -32 6 -44 -14 -23 -35 16 -16 18 -16 32 2 8 11
14 15 14 10 0 -16 -22 -34 -42 -34 -23 0 -32 22 -24 56 5 20 12 25 33 22 15
-2 28 -8 30 -14z"></path>
<path class="node" id="node10" d="M1199 1400 c-50 -26 -74 -72 -77 -143 -3 -75 41 -172 125 -277 76
-95 196 -210 218 -210 28 0 212 197 265 283 26 43 56 107 66 143 15 57 15 69
3 106 -28 85 -89 125 -174 116 -72 -9 -132 -70 -144 -147 -8 -49 -25 -48 -38
1 -33 125 -143 182 -244 128z m215 -149 c10 -9 22 -26 27 -39 8 -22 9 -22 44
17 60 66 136 65 183 -2 31 -46 29 -100 -6 -168 -37 -73 -76 -122 -126 -162
l-41 -32 32 40 c17 22 40 49 51 61 35 37 71 101 83 148 21 84 -15 136 -94 136
-45 0 -74 -24 -88 -70 -12 -38 -39 -56 -39 -26 0 26 -40 84 -63 90 -12 3 -36
6 -54 6 -58 0 -103 -83 -74 -138 5 -9 15 -32 22 -51 13 -34 50 -83 126 -163
24 -27 41 -48 38 -48 -33 0 -160 145 -194 221 -33 72 -24 137 25 181 34 30
112 30 148 -1z"></path>
</g>
<g transform="translate(0.000000,300.000000) scale(0.100000,-0.100000)" fill="#9E9E9E" stroke="none">

<path class="node" id="node12" d="M1740 1845 c0 -8 4 -15 9 -15 5 0 11 7 15 15 3 9 0 15 -9 15 -8 0
-15 -7 -15 -15z"></path>
<path class="node" id="node13" d="M1697 1844 c-9 -10 2 -24 19 -24 8 0 14 7 14 15 0 15 -21 21 -33 9z"></path>
<path class="node" id="node14" d="M1157 1834 c-13 -13 -7 -24 14 -24 11 0 19 5 17 12 -5 14 -22 21 -31
12z"></path>
<path class="node" id="node15" d="M1655 1810 c-3 -5 3 -10 14 -10 12 0 21 5 21 10 0 6 -6 10 -14 10 -8
0 -18 -4 -21 -10z"></path>
<path class="node" id="node16" d="M1780 1810 c0 -5 6 -10 14 -10 8 0 18 5 21 10 3 6 -3 10 -14 10 -12
0 -21 -4 -21 -10z"></path>
<path class="node" id="node17" d="M1201 1791 c-39 -39 -24 -117 33 -178 43 -47 82 -45 102 3 14 34 14
40 -6 89 -35 87 -91 124 -129 86z m69 -39 c44 -45 61 -142 25 -142 -31 0 -49
16 -71 64 -27 58 -29 77 -12 94 18 18 26 15 58 -16z"></path>
<path class="node" id="node18" d="M1140 1785 c0 -8 5 -15 10 -15 6 0 10 7 10 15 0 8 -4 15 -10 15 -5 0
-10 -7 -10 -15z"></path>
<path class="node" id="node19" d="M1692 1785 c-29 -21 -72 -106 -72 -143 0 -33 27 -62 58 -62 31 0 86
59 107 114 17 43 17 51 4 75 -18 32 -64 39 -97 16z m78 -47 c0 -25 -33 -89
-58 -111 -52 -47 -80 16 -39 88 37 65 97 79 97 23z"></path>
<path class="node" id="node20" d="M1625 1779 c-4 -6 -5 -13 -2 -16 7 -7 27 6 27 18 0 12 -17 12 -25 -2z"></path>
<path class="node" id="node21" d="M1810 1754 c0 -8 5 -12 10 -9 6 3 10 10 10 16 0 5 -4 9 -10 9 -5 0
-10 -7 -10 -16z"></path>
<path class="node" id="node22" d="M1137 1744 c-8 -8 1 -24 14 -24 5 0 9 7 9 15 0 15 -12 20 -23 9z"></path>
<path class="node" id="node23" d="M1597 1734 c-8 -8 1 -24 14 -24 5 0 9 7 9 15 0 15 -12 20 -23 9z"></path>
<path class="node" id="node24" d="M1807 1690 c-4 -16 -16 -38 -27 -47 -24 -21 -26 -33 -5 -33 8 0 15 6
15 14 0 8 7 17 16 20 9 3 14 13 10 21 -3 8 -1 17 4 20 12 8 13 35 1 35 -5 0
-11 -13 -14 -30z"></path>
<path class="node" id="node25" d="M1142 1689 c2 -6 8 -10 13 -10 5 0 11 4 13 10 2 6 -4 11 -13 11 -9 0
-15 -5 -13 -11z"></path>
<path class="node" id="node26" d="M1570 1670 c0 -5 9 -10 20 -10 11 0 20 5 20 10 0 6 -9 10 -20 10 -11
0 -20 -4 -20 -10z"></path>
<path class="node" id="node27" d="M1360 1655 c0 -8 5 -15 10 -15 6 0 10 7 10 15 0 8 -4 15 -10 15 -5 0
-10 -7 -10 -15z"></path>
<path class="node" id="node28" d="M1160 1636 c0 -17 14 -29 23 -20 8 8 -3 34 -14 34 -5 0 -9 -6 -9 -14z"></path>
<path class="node" id="node29" d="M1360 1606 c0 -7 -7 -19 -15 -26 -19 -16 -19 -30 1 -30 8 0 13 4 9 9
-3 5 2 16 10 24 17 18 20 37 5 37 -5 0 -10 -6 -10 -14z"></path>
<path class="node" id="node30" d="M1570 1600 c0 -5 6 -10 14 -10 8 0 18 5 21 10 3 6 -3 10 -14 10 -12
0 -21 -4 -21 -10z"></path>
<path class="node" id="node31" d="M1195 1591 c-7 -12 12 -24 25 -16 11 7 4 25 -10 25 -5 0 -11 -4 -15
-9z"></path>
<path class="node" id="node32" d="M1730 1585 c0 -8 5 -15 10 -15 6 0 10 7 10 15 0 8 -4 15 -10 15 -5 0
-10 -7 -10 -15z"></path>
<path class="node" id="node33" d="M1605 1560 c-3 -5 3 -10 15 -10 12 0 18 5 15 10 -3 6 -10 10 -15 10
-5 0 -12 -4 -15 -10z"></path>
<path class="node" id="node34" d="M1693 1551 c-6 -24 -23 -28 -23 -6 0 8 -4 15 -10 15 -5 0 -10 -2 -10
-4 0 -2 -3 -11 -6 -19 -4 -10 4 -16 25 -19 23 -3 32 0 40 18 7 16 7 25 0 30
-6 3 -13 -3 -16 -15z"></path>
<path class="node" id="node35" d="M250 1266 c-16 -20 -9 -56 13 -70 15 -9 21 -7 33 8 19 26 18 62 -2
70 -23 9 -30 8 -44 -8z m45 -32 c0 -10 -8 -20 -18 -22 -22 -4 -35 27 -16 39
20 12 34 5 34 -17z"></path>
<path class="node" id="node36" d="M2624 1206 c-8 -34 1 -56 24 -56 20 0 42 18 42 34 0 5 -6 1 -14 -10
-14 -18 -16 -18 -32 -2 -21 21 -9 41 23 35 15 -3 22 0 20 7 -2 6 -15 12 -30
14 -21 3 -28 -2 -33 -22z"></path>
<path class="node" id="node37" d="M1310 1272 c-48 -8 -90 -65 -90 -124 0 -18 9 -53 21 -77 34 -76 161
-221 194 -221 3 0 -14 21 -38 48 -76 80 -113 129 -126 163 -7 19 -17 42 -22
51 -29 55 16 138 74 138 18 0 42 -3 54 -6 23 -6 63 -64 63 -90 0 -30 27 -12
39 26 14 46 43 70 88 70 79 0 115 -52 94 -136 -12 -47 -48 -111 -83 -148 -11
-12 -34 -39 -51 -61 l-32 -40 41 32 c50 40 89 89 126 162 35 68 37 122 6 168
-47 67 -123 68 -183 2 -35 -39 -36 -39 -44 -17 -18 46 -70 70 -131 60z"></path>
</g>
</svg>