<!--?xml version="1.0" standalone="no"?-->

<svg version="1.0" xmlns="http://www.w3.org/2000/svg" width="300.000000pt" height="299.000000pt" viewBox="0 0 300.000000 299.000000" preserveAspectRatio="xMidYMid meet">
<g transform="translate(0.000000,299.000000) scale(0.100000,-0.100000)" fill="#161616" stroke="none">
<path d="M1835 2959 c-31 -27 -35 -37 -35 -78 0 -46 28 -106 88 -188 19 -26
18 -26 -30 -157 -27 -72 -64 -171 -83 -221 -18 -49 -38 -101 -43 -115 -6 -14
-25 -63 -42 -110 -17 -47 -35 -94 -39 -105 -9 -22 -47 -122 -85 -225 -13 -35
-28 -66 -33 -67 -5 -2 -3 51 4 124 7 71 19 207 28 303 24 274 31 309 63 333
15 12 51 44 80 72 44 44 52 58 52 89 0 67 -73 110 -124 73 -17 -12 -16 -14 13
-14 39 0 64 -22 64 -58 0 -28 -25 -59 -87 -108 l-39 -31 -45 49 c-24 27 -48
60 -53 72 -20 54 33 99 87 74 37 -16 40 -14 11 9 -14 11 -39 23 -57 26 -25 6
-36 2 -61 -22 -31 -30 -38 -69 -18 -107 7 -12 38 -50 70 -84 33 -34 57 -67 54
-75 -4 -12 -12 -94 -60 -592 -7 -76 -17 -142 -23 -148 -11 -11 -25 42 -47 182
-8 52 -24 149 -35 215 -74 445 -100 606 -100 626 0 8 23 45 51 81 63 82 75
135 39 173 -30 32 -84 34 -116 4 -20 -19 -26 -20 -58 -9 -73 24 -118 -6 -118
-77 0 -41 31 -78 111 -132 l55 -36 13 -75 c7 -41 20 -118 28 -170 17 -112 40
-253 55 -330 5 -30 16 -98 24 -150 9 -52 22 -135 31 -184 25 -137 16 -145 -34
-31 -24 55 -58 132 -76 170 -59 126 -101 218 -150 327 -45 103 -47 110 -36
152 6 25 11 56 11 70 0 47 -67 59 -90 15 -6 -10 -21 -19 -34 -19 -13 0 -31 -9
-41 -20 -31 -34 -7 -66 64 -87 57 -17 61 -20 82 -68 27 -63 57 -129 102 -225
104 -227 188 -422 184 -427 -3 -3 -10 -2 -16 1 -6 4 -106 124 -223 268 -117
143 -218 266 -223 272 -6 6 -60 71 -120 145 l-109 134 0 83 c-1 66 -5 86 -20
103 -28 31 -79 28 -105 -6 -24 -29 -21 -44 4 -19 19 19 56 21 73 4 7 -7 12
-40 12 -79 l0 -67 -43 -6 c-72 -11 -125 21 -113 67 3 13 16 29 28 35 16 7 18
11 7 11 -30 2 -69 -38 -69 -70 0 -51 29 -69 114 -69 l74 0 54 -62 c30 -35 102
-121 160 -193 59 -71 188 -229 287 -349 100 -121 181 -223 181 -228 0 -5 -24
8 -53 29 -29 21 -164 117 -300 213 l-247 175 -25 80 c-29 87 -57 140 -81 149
-32 12 -66 5 -91 -20 -21 -21 -25 -32 -20 -65 5 -36 3 -41 -24 -55 -29 -14
-49 -48 -49 -80 0 -9 14 -29 31 -46 28 -28 34 -30 79 -25 27 3 67 15 89 26 22
12 48 21 57 21 13 0 573 -391 618 -431 29 -26 -58 -7 -123 28 -15 7 -33 13
-41 13 -8 0 -26 6 -40 13 -14 7 -68 28 -120 47 -52 18 -99 36 -105 40 -5 4
-23 10 -40 14 -16 4 -43 14 -60 21 -16 8 -93 37 -170 65 -77 28 -153 57 -170
64 -16 7 -57 23 -90 35 -55 20 -62 27 -85 73 -40 82 -76 100 -123 59 -13 -11
-17 -24 -13 -44 4 -20 -1 -37 -16 -58 -21 -28 -21 -32 -7 -57 20 -37 60 -40
120 -8 l47 26 154 -55 c84 -30 162 -60 173 -65 11 -5 83 -32 160 -60 77 -28
149 -55 160 -60 11 -5 83 -32 160 -60 174 -63 215 -81 209 -91 -2 -5 -10 -6
-17 -4 -7 3 -111 14 -232 26 -121 11 -282 27 -357 34 l-137 13 -39 41 c-44 46
-84 55 -102 21 -11 -20 3 -30 15 -10 11 18 41 10 68 -18 33 -34 33 -43 4 -70
-28 -26 -72 -29 -81 -6 -4 9 -9 14 -13 11 -10 -10 26 -57 44 -57 9 0 34 15 57
33 39 30 44 32 101 26 33 -3 146 -14 250 -23 105 -9 217 -21 250 -26 33 -6 83
-10 110 -11 58 -1 99 -13 75 -23 -8 -3 -58 -12 -110 -20 -91 -14 -191 -30
-470 -76 -69 -12 -177 -30 -240 -40 -63 -11 -140 -23 -170 -29 l-55 -9 -82 55
c-99 66 -134 69 -170 14 -28 -41 -28 -38 0 -81 16 -26 22 -50 22 -95 0 -58 1
-60 36 -79 36 -19 36 -19 70 0 19 11 48 42 66 69 18 28 38 58 45 68 10 13 47
23 143 38 122 19 203 32 485 79 196 33 363 61 403 67 51 8 46 -8 -10 -34 -123
-56 -190 -86 -271 -122 -83 -37 -136 -61 -298 -137 l-72 -33 -58 24 c-33 14
-70 25 -84 25 -39 0 -70 -27 -70 -61 0 -28 29 -69 49 -69 6 0 7 -15 4 -34 -10
-62 57 -99 107 -58 13 10 32 49 45 88 l22 69 139 62 c77 34 168 75 204 92 36
16 92 41 125 56 33 15 93 42 134 61 41 19 76 32 79 29 3 -3 3 -6 1 -8 -2 -2
-34 -28 -70 -58 -36 -30 -85 -70 -110 -90 -122 -100 -396 -325 -502 -412
l-120 -97 -92 6 c-116 8 -160 -4 -182 -51 -14 -30 -14 -38 -2 -72 12 -32 21
-40 62 -53 42 -14 47 -18 47 -46 0 -37 45 -84 81 -84 75 1 109 58 109 185 l0
90 62 50 c35 28 126 102 203 166 77 63 231 190 343 282 112 92 207 165 212
162 5 -3 -90 -144 -211 -313 l-219 -307 -78 -7 c-42 -4 -87 -13 -100 -20 -41
-22 -42 -91 -1 -116 11 -7 24 -10 27 -7 4 4 -1 11 -11 16 -22 13 -22 52 1 72
13 12 37 17 79 17 54 0 61 -2 67 -23 13 -47 6 -104 -14 -122 -25 -22 -67 -13
-80 18 -7 18 -9 19 -9 4 -1 -24 43 -67 69 -67 12 0 33 12 47 26 25 25 25 29
19 105 l-6 79 70 98 c38 53 120 167 181 252 156 217 190 262 196 257 2 -3 -7
-34 -21 -69 -14 -34 -39 -101 -56 -148 -17 -47 -34 -94 -39 -105 -5 -11 -25
-63 -44 -115 -20 -52 -57 -149 -82 -215 -25 -66 -57 -151 -72 -190 -57 -151
-47 -139 -135 -169 -131 -44 -178 -82 -178 -143 0 -50 12 -72 47 -94 33 -21
65 -22 105 -4 13 5 20 1 27 -18 11 -28 54 -65 87 -73 28 -7 79 19 100 51 26
40 14 125 -29 217 -21 42 -37 81 -37 85 0 9 97 275 205 563 36 96 87 230 112
298 29 79 50 122 60 122 11 0 13 -10 9 -42 -17 -140 -44 -408 -65 -637 -8 -79
-10 -84 -42 -109 -61 -48 -89 -85 -89 -118 0 -55 59 -83 107 -49 18 13 22 12
38 -5 34 -37 90 -20 108 33 10 27 -10 68 -60 119 l-46 47 6 68 c20 234 39 427
47 485 6 37 10 87 10 112 0 96 25 103 35 9 3 -38 10 -84 15 -103 5 -19 16 -80
24 -135 9 -55 25 -156 36 -225 36 -213 59 -352 74 -439 13 -83 13 -84 -11
-138 -21 -45 -23 -59 -14 -79 11 -26 53 -33 81 -13 12 8 10 9 -8 4 -27 -8 -52
10 -52 36 0 10 8 35 17 54 16 33 21 36 47 31 17 -4 40 -13 53 -21 30 -20 31
-63 1 -74 -12 -4 -17 -11 -11 -14 18 -11 53 23 53 52 0 31 -19 52 -68 71 -18
7 -37 20 -41 29 -5 9 -17 67 -26 130 -9 62 -18 118 -21 125 -2 6 -10 54 -19
106 -8 52 -24 150 -35 217 -11 68 -29 176 -40 240 -10 65 -24 142 -29 172 -14
68 -14 71 2 71 13 0 11 3 172 -355 62 -137 122 -269 134 -293 18 -36 21 -53
15 -101 -6 -55 -5 -59 16 -66 15 -5 28 -1 43 13 12 11 27 18 33 15 6 -2 18 5
28 16 24 27 6 58 -38 67 -47 8 -57 21 -116 154 -29 63 -68 149 -87 190 -19 41
-55 120 -80 175 -25 55 -54 118 -64 139 -26 54 -14 59 24 11 48 -60 556 -676
581 -705 53 -61 53 -64 40 -142 -16 -88 -17 -168 -4 -202 13 -36 68 -60 113
-52 42 8 87 56 87 92 0 21 5 24 35 24 70 0 115 39 115 99 0 84 -56 121 -204
131 -93 6 -101 8 -125 36 -55 63 -126 148 -336 404 -298 363 -288 351 -302
366 -34 34 0 32 51 -3 195 -134 542 -388 548 -402 4 -9 7 -41 7 -72 2 -98 26
-139 83 -139 37 0 60 23 67 65 5 33 11 40 39 47 39 10 66 48 57 80 -18 59 -63
74 -170 59 l-69 -10 -240 171 c-283 202 -359 259 -353 265 3 2 45 -12 93 -31
49 -19 150 -57 224 -85 74 -27 214 -80 310 -116 96 -36 195 -73 220 -81 25 -9
54 -20 65 -24 11 -5 36 -16 56 -23 31 -13 37 -21 48 -63 34 -133 61 -174 115
-174 42 0 73 25 85 67 12 43 2 50 -20 13 -15 -24 -26 -30 -53 -30 -18 0 -39 6
-45 14 -15 18 -52 146 -46 157 9 14 135 50 155 44 29 -9 59 -52 53 -75 -3 -11
-17 -29 -31 -40 -29 -24 -22 -26 17 -5 53 27 63 102 19 141 -27 25 -107 22
-178 -5 -58 -22 -100 -27 -115 -13 -6 5 -46 21 -90 37 -44 15 -93 34 -110 41
-16 7 -93 36 -170 64 -77 28 -149 55 -160 60 -11 5 -83 32 -160 60 -77 28
-153 57 -170 65 -16 7 -42 17 -58 20 -26 7 -44 22 -35 30 2 2 67 -2 143 -10
77 -8 212 -22 300 -30 88 -8 201 -20 250 -26 89 -11 90 -12 120 -53 48 -65
113 -58 102 10 -4 22 -1 37 9 45 24 20 13 62 -18 73 -23 8 -36 4 -80 -23 l-53
-33 -130 11 c-71 6 -166 16 -210 21 -44 6 -156 17 -249 25 -92 8 -173 18 -179
22 -14 9 20 17 183 43 304 50 362 59 485 80 72 12 184 30 249 40 l120 19 30
-23 c53 -40 134 -76 171 -76 26 0 43 7 59 25 46 49 42 97 -12 142 -23 19 -24
25 -14 48 51 112 -84 184 -167 90 -17 -19 -44 -63 -61 -98 -39 -78 -40 -78
-92 -87 -76 -14 -300 -50 -423 -70 -118 -19 -279 -46 -445 -74 -123 -21 -123
-9 0 44 41 18 107 47 145 65 39 18 93 43 120 55 28 12 75 33 105 47 30 14 95
43 144 65 l89 40 52 -21 c29 -12 68 -24 86 -27 76 -13 114 74 53 122 -23 19
-28 30 -26 57 4 45 -23 69 -75 65 -34 -3 -40 -8 -61 -48 -12 -25 -27 -64 -33
-88 -7 -31 -17 -45 -34 -52 -13 -5 -52 -22 -87 -39 -35 -16 -124 -56 -198 -89
-134 -59 -258 -116 -336 -153 -125 -59 -85 -24 617 549 l139 113 90 -15 c163
-29 250 -13 278 49 37 81 -18 177 -100 174 -23 0 -23 0 -2 -9 64 -26 71 -136
10 -157 -25 -8 -121 -7 -188 2 l-48 7 0 84 c0 127 33 184 105 184 37 0 69 -30
84 -80 10 -32 10 -31 7 24 -3 53 -7 63 -36 89 -29 26 -38 29 -82 25 -58 -6
-101 -41 -119 -97 -7 -20 -15 -85 -18 -146 l-6 -109 -260 -214 c-459 -376
-546 -445 -551 -439 -3 3 7 23 24 44 16 21 114 157 218 302 104 145 198 267
209 271 11 4 38 12 59 16 46 10 62 31 52 67 -5 20 -13 27 -31 27 -15 0 -31 11
-45 30 -26 37 -54 38 -76 5 -16 -24 -16 -53 1 -110 4 -13 -6 -36 -30 -70 -64
-88 -237 -331 -325 -454 -47 -66 -88 -121 -92 -121 -11 0 -10 25 4 57 14 35
34 89 82 218 20 55 40 109 45 120 13 30 45 115 100 265 27 74 67 179 88 233
l38 99 85 44 c116 61 150 95 150 151 0 60 -33 93 -90 93 -23 0 -50 -5 -60 -10
-16 -8 -23 -5 -37 16 -17 26 -67 54 -97 54 -9 0 -31 -14 -51 -31z" id="node1" class="node" stroke-width="20"></path>
</g>
<g transform="translate(0.000000,299.000000) scale(0.100000,-0.100000)" fill="#A1A1A1" stroke="none">




</g>
</svg>