<!--?xml version="1.0" standalone="no"?-->

<svg version="1.0" xmlns="http://www.w3.org/2000/svg" width="293.000000pt" height="300.000000pt" viewBox="0 0 293.000000 300.000000" preserveAspectRatio="xMidYMid meet">
<g transform="translate(0.000000,300.000000) scale(0.100000,-0.100000)" fill="#303030" stroke="none">
<path class="node" id="node1" d="M667 2989 c-9 -5 -24 -23 -32 -39 -13 -24 -22 -30 -49 -30 -38 0 -53
-14 -62 -58 -4 -22 -17 -38 -42 -52 -40 -24 -60 -23 -76 5 -25 45 -50 40 -67
-13 -6 -21 -16 -42 -21 -48 -5 -7 -11 -35 -15 -63 l-6 -51 -42 82 c-23 45 -47
84 -54 86 -6 2 -23 -22 -38 -54 -24 -52 -25 -62 -15 -101 17 -62 15 -70 -15
-76 -31 -6 -107 -67 -124 -99 -14 -25 2 -38 46 -38 l30 0 -1 -88 c-2 -176 -2
-178 -29 -203 -65 -60 -74 -134 -22 -183 22 -21 36 -45 40 -70 9 -53 32 -76
78 -76 l38 0 -15 -36 c-21 -51 -9 -96 47 -170 49 -63 49 -63 43 -123 -6 -50
-3 -68 16 -108 27 -59 62 -97 118 -130 41 -24 44 -25 62 -8 19 17 20 17 40
-27 11 -25 52 -90 91 -144 39 -54 73 -103 76 -109 2 -7 -12 -26 -31 -43 -20
-17 -36 -35 -36 -40 0 -14 81 -50 128 -58 44 -7 60 -18 42 -29 -16 -10 -12
-77 7 -97 15 -17 15 -19 -1 -37 -10 -10 -23 -41 -31 -67 -8 -27 -22 -70 -32
-96 -19 -52 -13 -70 15 -44 30 26 144 68 156 56 5 -5 36 -10 67 -10 36 0 74
-8 104 -21 27 -12 60 -19 76 -17 l29 5 -19 -21 c-22 -23 -85 -155 -78 -162 2
-3 16 0 31 6 15 5 39 10 53 10 24 0 24 -2 18 -42 -4 -24 -13 -59 -21 -79 -22
-64 8 -66 94 -8 l61 40 57 -10 c32 -6 59 -11 60 -11 1 0 23 -43 49 -95 25 -52
50 -95 54 -95 19 0 55 54 77 116 14 37 38 83 54 101 20 22 30 45 30 65 0 18 9
41 21 54 l20 21 52 -27 c49 -27 127 -49 127 -36 0 3 -9 20 -20 38 -11 18 -20
36 -20 41 0 9 64 8 120 -3 25 -4 47 -7 49 -5 2 2 -13 31 -33 63 -20 33 -36 62
-36 66 0 3 14 13 30 21 42 22 70 71 70 123 0 36 6 49 31 73 24 23 30 35 27 61
-2 24 1 33 12 33 79 2 170 41 188 80 16 34 11 41 -38 49 -48 7 -63 31 -34 55
50 42 146 188 183 279 16 39 32 37 43 -6 5 -18 15 -32 23 -32 8 0 42 33 75 73
72 86 105 171 95 240 -6 37 -3 48 18 73 43 51 67 110 67 163 0 27 -4 53 -10
56 -22 13 -8 25 30 25 48 0 80 27 80 68 0 17 15 45 40 76 49 59 54 108 16 149
-18 20 -21 27 -10 31 27 10 14 52 -35 110 l-48 59 21 49 c20 48 20 50 3 80
-18 31 -18 31 8 58 23 24 24 28 10 40 -8 7 -44 15 -79 17 -52 5 -65 9 -69 24
-3 12 -18 22 -37 25 -17 4 -33 12 -34 18 -8 32 -36 155 -41 184 -9 46 -29 40
-54 -17 -11 -28 -24 -52 -29 -55 -12 -7 -147 59 -190 94 -24 19 -42 43 -46 61
-12 60 -93 61 -128 1 -13 -22 -25 -28 -55 -30 -21 -2 -46 -5 -56 -8 -10 -3
-40 2 -68 12 -41 15 -55 16 -81 6 -25 -9 -35 -8 -52 3 -33 23 -65 18 -97 -16
-23 -24 -29 -40 -29 -75 0 -36 -5 -48 -32 -73 -18 -17 -41 -31 -51 -31 -25 0
-77 -27 -110 -58 -24 -23 -30 -25 -48 -14 -12 8 -33 11 -48 7 -22 -5 -36 0
-59 20 -17 14 -56 34 -88 45 -78 27 -84 34 -84 96 0 71 -27 104 -90 111 -30 3
-51 0 -64 -10 -14 -10 -28 -11 -60 -4 -35 8 -49 6 -81 -10 -31 -17 -45 -18
-77 -10 -28 7 -38 15 -38 29 0 22 -18 60 -34 70 -16 11 -58 9 -79 -3z m57 -48
c25 -28 18 -75 -12 -79 -31 -5 -52 15 -52 47 0 49 34 65 64 32z m1509 -22 c15
-24 1 -49 -28 -49 -21 0 -25 5 -25 28 0 16 3 32 7 36 11 10 35 3 46 -15z
m-1241 -53 c4 -6 8 -19 8 -28 0 -29 24 -20 40 15 12 25 22 33 46 35 89 9 85
-112 -8 -230 -16 -21 -35 -38 -42 -38 -15 0 -92 93 -118 142 -10 18 -18 50
-18 71 0 30 5 40 23 47 25 10 58 3 69 -14z m817 14 c10 -5 24 -23 31 -40 14
-35 33 -35 35 0 2 21 28 50 47 50 4 0 16 -10 28 -22 24 -26 26 -71 5 -121 -17
-42 -72 -107 -89 -107 -17 0 -91 79 -110 117 -22 43 -20 85 4 111 24 25 25 25
49 12z m-1181 -28 c7 -44 -41 -70 -68 -37 -10 12 -10 21 -1 41 15 34 64 31 69
-4z m1412 -23 c0 -19 -5 -29 -15 -29 -10 0 -15 11 -15 35 0 26 3 33 15 29 9
-4 15 -19 15 -35z m104 35 c20 -8 20 -18 0 -38 -21 -22 -51 -20 -59 4 -11 35
16 51 59 34z m-1274 -44 c0 -19 -5 -30 -14 -30 -8 0 -21 14 -30 30 -14 30 -14
30 15 30 26 0 29 -4 29 -30z m1431 14 c11 -14 10 -19 -9 -35 -26 -20 -52 -15
-52 10 0 37 38 53 61 25z m-1620 -17 c-13 -13 -26 -3 -16 12 3 6 11 8 17 5 6
-4 6 -10 -1 -17z m105 -2 c11 -27 -5 -65 -26 -65 -28 0 -56 45 -40 65 16 19
59 19 66 0z m1424 11 c0 -3 -4 -8 -10 -11 -5 -3 -10 -1 -10 4 0 6 5 11 10 11
6 0 10 -2 10 -4z m239 -60 c47 -24 68 -42 59 -51 -6 -6 -119 25 -150 41 -24
12 -27 18 -18 34 12 22 22 19 109 -24z m150 -73 c1 -49 -17 -40 -21 10 -2 27
-7 41 -15 40 -14 -3 -17 16 -6 43 5 14 10 10 24 -22 10 -21 18 -54 18 -71z
m-2183 29 c5 -25 3 -32 -10 -32 -11 0 -16 9 -16 29 0 17 -4 32 -9 35 -10 7
-21 -16 -21 -44 0 -9 -7 -23 -15 -30 -22 -18 -20 7 6 65 21 46 21 47 40 29 10
-11 21 -34 25 -52z m144 53 c17 -9 30 -20 30 -26 0 -13 -86 -51 -107 -47 -9 2
-21 11 -27 20 -8 13 -5 22 14 43 27 29 49 31 90 10z m1644 -4 c17 -19 15 -41
-4 -41 -14 0 -40 30 -40 46 0 20 24 17 44 -5z m-1529 -7 c20 -20 15 -38 -12
-42 -28 -4 -49 23 -33 43 16 19 25 19 45 -1z m1455 -18 c10 -28 47 -56 72 -56
9 0 27 14 41 31 l23 30 42 -16 c23 -10 42 -21 42 -25 0 -5 -12 -18 -27 -29
l-28 -21 28 -25 c15 -13 45 -30 67 -36 37 -11 40 -15 40 -47 0 -19 -9 -45 -20
-59 -31 -40 -25 -69 23 -116 30 -28 46 -54 51 -79 4 -25 17 -46 39 -62 18 -14
26 -26 20 -26 -7 0 -31 -16 -53 -36 -42 -38 -49 -64 -29 -107 9 -20 4 -33 -42
-99 -59 -86 -61 -113 -7 -97 18 5 40 9 48 9 13 -1 13 -2 0 -13 -30 -23 -50
-62 -50 -95 0 -39 33 -107 60 -124 30 -19 24 -23 -24 -20 -40 4 -46 1 -71 -32
-25 -33 -27 -41 -20 -89 4 -28 8 -64 8 -79 0 -31 -50 -130 -107 -212 -23 -32
-51 -73 -63 -90 -35 -50 -105 -123 -98 -101 14 40 18 115 6 115 -6 0 -38 -13
-70 -30 -53 -26 -93 -62 -103 -92 -3 -7 -20 -9 -49 -4 -45 7 -46 8 -86 84 -22
42 -44 77 -49 77 -19 0 -74 -130 -74 -175 0 -44 -1 -45 -55 -74 -67 -35 -79
-54 -70 -112 6 -40 4 -44 -18 -49 -16 -4 -40 1 -65 14 -23 12 -55 21 -73 21
l-31 0 5 53 c2 28 17 84 34 122 50 116 50 115 10 115 -20 0 -56 -9 -82 -20
-26 -11 -51 -20 -56 -20 -5 0 -9 24 -9 54 0 30 -4 57 -10 61 -17 11 -75 -22
-103 -58 -19 -25 -27 -48 -27 -74 0 -38 -1 -39 -37 -39 -21 1 -57 -3 -79 -7
l-41 -8 -33 58 c-40 71 -68 103 -92 103 -16 0 -18 -9 -18 -71 0 -64 -2 -70
-16 -58 -8 7 -22 26 -31 43 -9 17 -53 87 -98 156 -117 178 -123 191 -115 220
5 14 8 48 9 77 1 46 -2 54 -30 77 -18 15 -43 26 -60 26 l-29 0 21 42 c30 59
23 142 -15 175 -15 13 -35 23 -45 23 -27 0 -16 105 15 142 31 38 39 81 21 117
-14 28 -13 31 5 48 27 25 61 92 54 109 -4 11 -11 11 -31 4 -15 -6 -36 -10 -48
-10 -19 1 -17 5 17 34 l39 33 -5 80 c-3 56 -1 86 8 98 7 10 11 30 8 45 -6 26
-1 29 88 73 52 26 100 47 106 47 6 0 19 11 28 25 13 19 21 23 44 18 22 -4 35
1 55 21 15 15 34 26 43 24 9 -2 49 -46 90 -98 41 -52 78 -96 83 -98 5 -2 26
15 47 38 41 45 80 53 74 15 -9 -50 -6 -103 7 -118 17 -21 74 -22 156 -2 38 9
61 11 63 5 16 -46 90 -55 119 -15 l18 25 58 -15 c91 -24 153 -20 184 11 20 20
24 31 19 57 -3 17 -14 39 -22 49 -14 14 -14 20 -4 33 19 23 32 19 74 -24 35
-36 66 -45 66 -19 0 6 16 28 35 50 20 21 43 54 52 73 17 35 30 40 106 44 31 1
39 -3 47 -23z m-1901 -42 c22 -37 27 -79 11 -89 -6 -3 -10 4 -10 17 0 14 -7
33 -16 44 -14 18 -15 16 -11 -31 5 -44 4 -48 -9 -30 -15 20 -18 64 -8 103 9
31 19 28 43 -14z m1510 14 c8 -22 -2 -48 -19 -48 -10 0 -31 50 -25 61 11 17
36 9 44 -13z m-544 -18 c8 -24 -1 -40 -21 -40 -17 0 -28 24 -20 45 8 22 34 18
41 -5z m-595 0 c0 -5 -5 -10 -11 -10 -5 0 -7 5 -4 10 3 6 8 10 11 10 2 0 4 -4
4 -10z m1899 -27 c37 -24 11 -37 -32 -17 -44 21 -62 10 -27 -16 l25 -20 -23 0
c-32 0 -93 30 -86 42 11 18 69 38 94 32 14 -3 36 -12 49 -21z m-820 4 c6 -8 8
-17 4 -20 -3 -4 -1 -13 6 -20 9 -12 -1 -14 -62 -13 -54 1 -80 -4 -100 -17 -15
-9 -27 -13 -27 -8 0 10 77 75 100 84 28 10 67 7 79 -6z m-349 -19 c61 -42 70
-84 11 -54 -38 20 -100 20 -129 0 -20 -13 -22 -13 -22 0 0 8 9 20 20 26 11 6
20 20 20 30 0 28 57 27 100 -2z m-760 2 c0 -9 -56 -41 -105 -60 -40 -15 -30 9
10 26 19 8 35 19 35 24 0 17 -40 11 -86 -12 -49 -24 -71 -16 -35 13 18 15 39
19 102 19 45 0 79 -4 79 -10z m2104 -62 c8 -13 5 -26 -12 -57 -13 -23 -20 -45
-17 -51 3 -5 31 -10 61 -10 76 0 94 -11 94 -59 0 -31 -8 -48 -41 -85 -35 -40
-46 -47 -73 -44 -30 3 -31 4 -34 61 -3 57 3 68 26 45 9 -9 12 -8 12 5 0 9 8
20 18 26 16 9 16 10 -2 17 -11 4 -21 2 -27 -7 -7 -11 -15 -7 -37 18 -19 23
-42 36 -77 44 -89 21 -119 55 -77 91 26 24 42 27 111 25 48 -2 67 -6 75 -19z
m-1204 -18 c16 -38 6 -77 -21 -85 -27 -9 -39 8 -39 59 0 37 1 39 15 20 14 -18
14 -18 15 9 0 36 14 35 30 -3z m-1083 14 c12 -3 25 -15 28 -25 4 -10 13 -19
21 -19 23 0 16 -37 -12 -59 -34 -27 -54 -27 -61 0 -3 11 -11 18 -19 15 -7 -3
-15 0 -17 7 -2 7 -8 8 -13 4 -4 -4 -3 -17 4 -28 11 -17 9 -21 -13 -29 -37 -14
-40 -13 -53 15 -17 37 -15 85 5 107 16 18 83 25 130 12z m1332 -31 l25 -16
-23 -18 c-28 -23 -44 -24 -104 -3 -53 18 -57 26 -24 49 26 19 88 13 126 -12z
m1077 7 c27 -11 27 -11 8 -30 -10 -10 -32 -21 -49 -25 l-30 -6 23 17 c31 23
28 34 -8 24 -33 -9 -41 3 -12 19 22 13 34 13 68 1z m-1486 -10 c13 -8 12 -11
-5 -24 -38 -29 -115 -33 -115 -7 0 28 89 51 120 31z m-1116 -19 c3 -5 -12 -11
-34 -15 -55 -9 -61 -26 -9 -26 36 0 40 -2 29 -15 -14 -16 -105 -21 -114 -6 -6
9 26 41 59 59 24 14 62 15 69 3z m2349 -68 c5 -3 2 -10 -7 -15 -25 -14 -20
-37 7 -30 19 5 20 3 10 -10 -15 -17 -8 -29 12 -22 10 4 12 -1 8 -15 -4 -15 -1
-21 11 -21 9 0 16 7 16 15 0 8 5 15 11 15 8 0 10 -17 7 -50 -6 -59 -5 -58 -45
-66 -35 -7 -63 15 -63 51 0 13 -18 44 -40 70 -43 49 -47 64 -27 84 12 12 77 9
100 -6z m-2315 -29 c27 -19 29 -51 2 -59 -11 -3 -20 -13 -20 -21 0 -11 6 -13
20 -9 17 6 20 2 20 -28 0 -51 -21 -64 -70 -42 -58 26 -74 47 -66 90 5 26 17
42 44 60 45 29 42 29 70 9z m220 -37 c2 -28 -3 -45 -20 -67 -13 -16 -31 -40
-41 -54 -23 -33 -51 -33 -82 -1 -18 18 -25 34 -24 62 1 30 2 33 7 15 8 -28 26
-30 30 -3 3 17 6 19 22 9 26 -17 37 -2 17 20 -23 25 -21 30 8 24 15 -2 25 0
25 7 0 6 -8 11 -17 12 -16 0 -15 2 2 9 11 5 31 8 45 7 21 -2 25 -8 28 -40z
m2412 -175 c0 -9 -7 -11 -22 -7 -52 15 -78 28 -78 41 0 18 14 18 30 -1 7 -8
22 -15 33 -15 19 0 19 2 -6 28 -15 15 -27 32 -27 38 1 14 70 -69 70 -84z
m-2731 12 c-13 -35 -1 -45 18 -16 18 26 33 29 33 5 0 -23 -29 -53 -52 -53 -14
0 -18 8 -18 38 0 38 6 52 21 52 5 0 4 -12 -2 -26z m179 0 c17 -12 20 -19 12
-34 -5 -10 -20 -22 -32 -25 -13 -4 -35 -18 -49 -32 -22 -21 -28 -22 -38 -9
-19 23 -9 59 20 73 15 7 32 20 39 28 16 19 20 19 48 -1z m2432 -4 c0 -21 -40
-31 -80 -19 -22 7 -37 15 -35 19 7 11 115 10 115 0z m-2280 -17 c-1 -11 -21
-35 -44 -53 -18 -14 -19 -14 -5 7 18 30 6 38 -26 17 -19 -12 -29 -14 -37 -6
-9 9 -3 15 23 26 36 16 89 21 89 9z m2176 -31 c17 -11 34 -48 34 -72 0 -21
-67 -106 -96 -123 -35 -20 -93 59 -78 106 18 60 103 114 140 89z m181 -21 c58
-27 82 -53 76 -84 -6 -30 -56 -87 -76 -87 -8 0 -38 23 -67 51 -46 45 -51 54
-46 82 12 61 40 70 113 38z m-2440 -46 c49 -30 54 -51 23 -103 -25 -41 -44
-48 -75 -28 -38 25 -50 54 -31 75 9 10 16 21 16 24 0 15 -23 6 -40 -15 -26
-33 -34 -17 -14 31 14 35 20 41 47 41 17 0 50 -11 74 -25z m-192 -22 c14 -15
25 -31 25 -34 0 -15 -93 -99 -109 -99 -35 0 -65 34 -65 75 0 77 96 114 149 58z
m2515 -53 c0 -5 -4 -10 -10 -10 -5 0 -10 5 -10 10 0 6 5 10 10 10 6 0 10 -4
10 -10z m-2460 -30 c0 -5 -7 -10 -16 -10 -8 0 -12 5 -9 10 3 6 10 10 16 10 5
0 9 -4 9 -10z m2405 -30 c-7 -31 2 -39 23 -18 9 9 12 9 12 0 0 -20 18 -13 26
10 6 19 7 19 16 5 13 -23 31 -21 25 3 -4 16 2 14 34 -12 42 -34 44 -39 29 -69
-9 -17 -22 -19 -103 -19 -53 0 -98 5 -104 11 -14 14 0 74 23 100 23 26 27 24
19 -11z m-158 -18 c-28 -31 -20 -46 12 -23 30 22 61 28 61 12 0 -13 -40 -37
-75 -45 -16 -4 -38 -9 -47 -12 -28 -8 -22 23 14 67 21 26 35 36 42 29 6 -6 4
-16 -7 -28z m-2201 14 c3 -8 20 -20 37 -27 54 -22 57 -35 22 -77 -23 -28 -29
-29 -103 -31 -43 -1 -91 3 -105 8 -36 14 -36 52 0 86 33 30 43 32 36 5 -6 -24
12 -27 25 -4 8 14 10 12 16 -10 8 -34 26 -33 26 2 l0 27 20 -25 c26 -34 37
-17 17 25 -9 19 -12 35 -7 35 6 0 13 -6 16 -14z m2286 -94 c4 -15 0 -17 -30
-14 l-35 5 24 17 c26 20 34 19 41 -8z m-10 -59 c10 -9 18 -29 18 -44 0 -15 4
-30 9 -33 11 -7 21 18 21 55 0 54 68 51 96 -3 14 -26 14 -37 4 -72 -13 -45
-54 -108 -92 -144 l-25 -22 -60 62 c-84 88 -99 148 -51 205 15 18 58 16 80 -4z
m-2132 -31 c17 -14 22 -28 22 -68 -1 -27 -7 -61 -14 -75 -26 -49 -80 -109 -99
-109 -25 0 -99 74 -122 122 -24 50 -21 84 8 114 30 30 55 28 71 -4 19 -39 34
-49 34 -24 0 27 33 62 59 62 10 0 29 -8 41 -18z m2044 -215 c10 -7 21 -28 24
-45 8 -39 27 -43 27 -5 0 36 18 39 35 6 8 -16 16 -30 17 -32 2 -2 12 4 22 13
23 21 41 14 41 -17 -1 -47 -81 -186 -120 -207 -17 -9 -24 -3 -58 47 -79 118
-92 184 -47 228 28 29 34 30 59 12z m-1949 -37 c28 -31 12 -119 -37 -202 -25
-42 -47 -68 -57 -68 -27 0 -97 66 -120 113 -22 46 -27 92 -11 117 7 12 12 12
29 -4 16 -15 24 -16 35 -7 11 9 15 8 20 -4 11 -29 33 -17 28 15 -2 17 1 37 8
45 18 22 83 19 105 -5z m1882 -182 c12 -27 2 -62 -52 -169 -46 -95 -129 -207
-161 -219 -30 -12 -74 -13 -74 -2 0 4 28 41 61 82 33 41 65 84 71 95 6 11 20
31 32 45 12 14 39 63 61 108 22 45 42 82 46 82 3 0 10 -10 16 -22z m-1812 -93
c30 -46 62 -99 71 -117 9 -18 38 -65 65 -105 51 -75 60 -99 33 -89 -9 3 -24 6
-34 6 -12 0 -36 23 -62 58 -23 31 -58 80 -79 107 -20 28 -49 74 -64 104 -26
52 -26 56 -11 88 9 18 18 33 21 33 3 0 29 -38 60 -85z m635 -218 c0 -39 -5
-71 -14 -83 -21 -28 -28 -13 -17 37 12 51 -2 77 -19 35 -5 -15 -10 -36 -10
-46 0 -10 -4 -22 -10 -25 -6 -4 -10 11 -10 37 0 52 31 108 60 108 18 0 20 -7
20 -63z m550 7 c12 -36 8 -64 -9 -64 -5 0 -11 12 -13 27 -6 48 -27 38 -30 -14
-2 -26 -7 -48 -13 -48 -19 0 -16 60 5 108 24 55 40 52 60 -9z m-865 -58 c9
-20 11 -36 6 -36 -5 0 -15 16 -21 35 -6 19 -16 35 -22 35 -6 0 -8 -13 -4 -35
5 -27 4 -35 -7 -35 -10 0 -16 17 -20 58 -2 31 -3 60 0 65 6 11 51 -46 68 -87z
m1165 80 c0 -28 -23 -77 -41 -87 -24 -12 -27 12 -4 31 15 13 21 40 8 40 -3 0
-19 -15 -34 -32 -28 -34 -45 -34 -35 0 4 11 26 30 49 41 49 25 57 26 57 7z
m-698 -57 c-5 -36 -39 -109 -51 -109 -21 0 -20 20 4 48 48 57 27 71 -25 17
-25 -26 -37 -32 -46 -24 -20 16 12 58 61 80 48 22 61 20 57 -12z m595 -65 c46
-17 83 -55 83 -85 0 -23 -19 -24 -46 -4 -32 24 -115 19 -158 -10 -29 -20 -41
-23 -61 -15 -21 8 -25 16 -25 50 0 22 7 52 16 66 16 23 20 24 83 18 36 -3 85
-12 108 -20z m-873 -5 c28 -13 59 -69 51 -92 -6 -14 -64 -61 -70 -55 -1 1 -10
18 -19 35 -19 39 -56 51 -101 34 -17 -6 -48 -11 -68 -11 -30 0 -37 4 -37 19 0
28 24 43 98 62 81 21 113 23 146 8z m-317 -31 c45 -16 42 -28 -7 -28 -22 0
-40 -4 -40 -9 0 -5 18 -11 40 -15 46 -7 54 -26 12 -26 -35 0 -129 27 -137 39
-5 9 70 51 89 51 5 0 25 -5 43 -12z m485 -17 c54 -34 66 -62 44 -96 -20 -30
-33 -32 -41 -6 -3 11 -24 28 -46 38 -47 21 -62 58 -34 80 25 17 24 17 77 -16z
m943 10 c54 -21 68 -43 36 -60 -27 -15 -137 -29 -152 -20 -19 11 0 29 31 29
15 0 35 3 44 6 32 12 15 24 -34 24 -35 0 -50 4 -50 13 0 8 3 17 7 20 12 13 68
7 118 -12z m-485 -6 c18 -22 8 -48 -24 -56 -16 -5 -46 -24 -66 -44 -39 -38
-50 -36 -64 10 -8 28 2 40 64 75 63 34 73 36 90 15z m-690 -74 c5 -11 10 -37
10 -57 0 -31 -7 -45 -45 -81 -54 -51 -87 -55 -152 -18 -82 49 -68 115 32 152
78 28 141 30 155 4z m1003 -27 c26 -25 47 -49 47 -53 0 -10 -70 -65 -92 -74
-9 -3 -44 3 -78 15 -72 24 -104 16 -145 -38 -14 -19 -30 -34 -34 -34 -5 0 -16
20 -25 43 -9 24 -28 54 -41 67 -32 30 -31 44 1 69 52 41 126 19 142 -41 13
-50 32 -47 32 6 0 62 26 86 94 86 47 0 55 -4 99 -46z m-830 -6 c42 -22 48 -40
23 -68 -33 -35 -46 -64 -46 -100 0 -49 -30 -34 -62 30 -35 71 -36 103 -2 129
30 24 55 26 87 9z m234 -59 c38 -14 83 -58 83 -81 0 -28 -26 -32 -67 -13 -32
16 -45 17 -91 7 -29 -6 -67 -18 -84 -27 -48 -23 -68 -20 -68 13 0 27 23 47
104 95 35 19 82 22 123 6z m200 -24 c23 -16 60 -101 50 -112 -4 -3 -16 2 -27
12 -11 10 -37 21 -57 24 -28 5 -42 14 -56 38 -10 18 -16 37 -12 43 9 15 78 12
102 -5z m-567 -45 c-7 -5 -19 -6 -27 -3 -11 4 -11 9 3 25 16 17 19 17 27 2 6
-11 5 -19 -3 -24z m887 -22 c51 -15 57 -26 35 -69 -18 -36 -34 -43 -155 -70
-57 -12 -58 -12 -87 16 -17 16 -30 34 -30 41 0 19 57 57 65 43 5 -8 10 -8 18
0 16 16 25 14 32 -9 9 -28 25 -25 25 5 0 27 18 33 38 13 19 -19 27 0 9 20 -20
22 -22 36 -4 28 6 -3 31 -11 54 -18z m-1128 -7 c12 -8 8 -15 -17 -36 -18 -15
-32 -31 -32 -36 0 -14 26 -10 40 6 17 21 30 19 30 -5 0 -21 -52 -60 -82 -60
-15 0 -15 5 -4 48 14 53 33 92 44 92 4 0 13 -4 21 -9z m178 3 c-3 -3 -12 -4
-19 -1 -8 3 -5 6 6 6 11 1 17 -2 13 -5z m-39 -26 c-2 -8 5 -12 15 -10 9 2 16
-2 15 -9 -5 -21 20 -21 27 0 8 26 25 27 25 2 0 -33 17 -33 24 0 l6 31 34 -36
c18 -20 38 -36 45 -36 18 0 13 -22 -11 -47 -25 -27 -73 -31 -105 -8 -11 8 -49
17 -84 21 -74 7 -84 13 -75 49 8 33 90 74 84 43z m467 -9 c4 -5 -1 -41 -10
-79 -30 -121 -102 -179 -175 -140 -23 12 -60 67 -60 88 0 33 53 94 103 118 54
25 131 32 142 13z m206 -30 c27 -29 59 -110 59 -149 0 -38 -22 -80 -42 -80
-22 0 -78 42 -157 118 l-55 52 17 35 c17 36 51 52 115 54 26 1 41 -7 63 -30z
m289 -133 c16 -25 30 -47 30 -50 0 -10 -57 -7 -84 4 -14 5 -26 16 -26 25 0 12
4 13 25 3 36 -16 43 -2 12 23 -32 24 -34 39 -7 39 11 0 31 -17 50 -44z m-460
5 c0 -14 -18 -23 -30 -16 -6 4 -8 11 -5 16 8 12 35 12 35 0z m336 -18 c3 -16
10 -43 15 -62 10 -42 9 -44 -25 -35 -36 9 -86 74 -58 74 5 0 14 -11 20 -25 15
-32 37 -34 28 -2 -18 63 -19 77 -2 77 9 0 18 -11 22 -27z m-613 -27 c3 -8 -1
-20 -10 -27 -8 -7 -19 -23 -24 -36 -5 -13 -16 -23 -25 -23 -13 0 -15 6 -9 28
14 58 55 93 68 58z m263 -76 c12 -11 14 -7 14 24 0 44 15 46 38 6 9 -16 23
-30 30 -30 16 0 15 6 -4 36 -9 13 -14 27 -11 30 10 11 97 -68 103 -92 7 -28
-15 -66 -52 -91 -21 -14 -31 -14 -58 -5 -18 7 -65 12 -105 12 -63 0 -75 3 -96
25 -15 14 -25 36 -25 54 0 24 7 32 40 49 31 15 40 16 40 6 0 -23 15 -16 41 19
l24 32 3 -32 c2 -17 10 -37 18 -43z m-206 20 c0 -5 -9 -10 -19 -10 -11 0 -28
-3 -38 -7 -16 -6 -16 -5 -4 10 14 18 61 23 61 7z m-39 -84 c-12 -12 -21 -31
-21 -42 1 -15 8 -11 35 21 l34 39 6 -27 c9 -33 -1 -45 -54 -75 l-41 -23 0 23
c0 54 47 151 58 118 2 -6 -5 -22 -17 -34z m289 -132 c0 -44 18 -53 22 -12 2
25 8 34 26 36 28 4 28 -7 -4 -70 l-26 -52 -25 40 c-48 77 -52 107 -13 97 15
-4 20 -14 20 -39z"></path>
<path class="node" id="node2" d="M2610 2550 c0 -11 5 -20 10 -20 6 0 10 9 10 20 0 11 -4 20 -10 20 -5
0 -10 -9 -10 -20z"></path>
<path class="node" id="node3" d="M2570 2546 c0 -8 5 -18 10 -21 6 -3 10 3 10 14 0 12 -4 21 -10 21 -5
0 -10 -6 -10 -14z"></path>
<path class="node" id="node4" d="M270 2499 c7 -11 14 -18 17 -15 8 8 -5 36 -17 36 -7 0 -7 -6 0 -21z"></path>
<path class="node" id="node5" d="M201 2421 c-7 -5 -11 -14 -7 -19 9 -15 36 -4 36 14 0 16 -9 18 -29 5z"></path>
<path class="node" id="node6" d="M2600 2115 c0 -8 2 -15 4 -15 2 0 11 -3 20 -6 10 -4 16 -1 16 9 0 8
-7 18 -16 21 -22 9 -24 8 -24 -9z"></path>
<path class="node" id="node7" d="M2572 2088 c3 -7 13 -15 22 -16 12 -3 17 1 14 10 -3 7 -13 15 -22 16
-12 3 -17 -1 -14 -10z"></path>
<path class="node" id="node8" d="M2565 2051 c-6 -11 9 -23 19 -14 9 9 7 23 -3 23 -6 0 -12 -4 -16 -9z"></path>
<path class="node" id="node9" d="M2713 2124 c-6 -17 12 -34 39 -34 23 0 33 19 14 26 -9 3 -13 10 -10
15 3 5 -4 9 -16 9 -11 0 -23 -7 -27 -16z"></path>
<path class="node" id="node10" d="M2781 2081 c-7 -5 -11 -14 -7 -19 9 -15 36 -4 36 14 0 16 -9 18 -29
5z"></path>
<path class="node" id="node11" d="M313 2073 c-15 -5 -18 -33 -4 -33 13 0 33 28 24 33 -4 2 -14 2 -20 0z"></path>
<path class="node" id="node12" d="M145 2080 c3 -5 10 -10 16 -10 5 0 9 5 9 10 0 6 -7 10 -16 10 -8 0
-12 -4 -9 -10z"></path>
<path class="node" id="node13" d="M128 2048 c9 -9 15 -9 24 0 9 9 7 12 -12 12 -19 0 -21 -3 -12 -12z"></path>
<path class="node" id="node14" d="M120 2009 c0 -5 5 -7 10 -4 6 3 10 8 10 11 0 2 -4 4 -10 4 -5 0 -10
-5 -10 -11z"></path>
<path class="node" id="node15" d="M1000 758 c0 -17 -3 -19 -12 -10 -17 17 -31 15 -24 -4 5 -12 1 -14
-15 -9 -17 6 -20 3 -17 -11 5 -27 33 -28 62 -3 26 22 35 59 16 59 -5 0 -10
-10 -10 -22z"></path>
<path class="node" id="node16" d="M1890 749 c0 -18 2 -19 15 -9 8 7 15 16 15 21 0 5 -7 9 -15 9 -9 0
-15 -9 -15 -21z"></path>
<path class="node" id="node17" d="M1923 745 c-8 -22 6 -33 17 -15 13 20 12 30 0 30 -6 0 -13 -7 -17
-15z"></path>
<path class="node" id="node18" d="M1760 736 c0 -18 17 -29 30 -21 8 5 7 11 -1 21 -15 18 -29 18 -29 0z"></path>
<path class="node" id="node19" d="M1960 725 c-7 -9 -10 -18 -7 -21 10 -11 37 5 37 21 0 19 -14 19 -30
0z"></path>
<path class="node" id="node20" d="M1736 713 c-7 -8 12 -43 24 -43 15 0 12 37 -4 43 -8 3 -17 3 -20 0z"></path>
<path class="node" id="node21" d="M1116 745 c-3 -9 0 -15 9 -15 8 0 15 7 15 15 0 8 -4 15 -9 15 -5 0
-11 -7 -15 -15z"></path>
<path class="node" id="node22" d="M1140 715 c-9 -11 -10 -19 -3 -26 7 -7 14 -5 23 6 9 11 10 19 3 26
-7 7 -14 5 -23 -6z"></path>
<path class="node" id="node23" d="M1364 506 c5 -20 3 -23 -14 -19 -14 4 -20 0 -20 -11 0 -10 -9 -16
-22 -16 l-23 -1 24 -19 c25 -21 46 -17 37 7 -4 11 -1 13 14 8 14 -4 20 -2 20
8 0 9 5 17 11 19 9 3 9 10 0 26 -16 30 -35 28 -27 -2z"></path>
<path class="node" id="node24" d="M1517 533 c-10 -9 -9 -23 2 -23 5 0 11 7 15 15 5 15 -5 20 -17 8z"></path>
<path class="node" id="node25" d="M1537 513 c-13 -12 -7 -23 13 -23 11 0 20 7 20 15 0 15 -21 21 -33 8z"></path>
<path class="node" id="node26" d="M1570 475 c-7 -9 -10 -18 -7 -21 10 -10 47 7 47 22 0 19 -24 18 -40
-1z"></path>
</g>
<g transform="translate(0.000000,300.000000) scale(0.100000,-0.100000)" fill="#FFFFFF" stroke="none">


<path class="node" id="node29" d="M672 2948 c-17 -17 -15 -63 2 -78 8 -6 25 -10 38 -8 30 4 37 51 12
79 -20 22 -35 24 -52 7z"></path>
<path class="node" id="node30" d="M2187 2934 c-4 -4 -7 -20 -7 -36 0 -23 4 -28 25 -28 29 0 43 25 28
49 -11 18 -35 25 -46 15z"></path>
<path class="node" id="node31" d="M923 2880 c-18 -7 -23 -17 -23 -47 0 -21 8 -53 18 -71 26 -49 103
-142 118 -142 34 0 114 139 114 199 0 50 -22 73 -64 69 -24 -2 -34 -10 -46
-35 -16 -35 -40 -44 -40 -15 0 38 -37 58 -77 42z"></path>
<path class="node" id="node32" d="M1760 2868 c-24 -26 -26 -68 -4 -111 19 -38 93 -117 110 -117 17 0
72 65 89 107 21 50 19 95 -5 121 -12 12 -24 22 -28 22 -19 0 -45 -29 -47 -50
-2 -35 -21 -35 -35 0 -11 26 -36 50 -54 50 -3 0 -14 -10 -26 -22z"></path>
<path class="node" id="node33" d="M559 2856 c-9 -20 -9 -29 1 -41 27 -33 75 -7 68 37 -5 35 -54 38 -69
4z"></path>
<path class="node" id="node34" d="M2010 2835 c0 -24 5 -35 15 -35 10 0 15 10 15 29 0 16 -6 31 -15 35
-12 4 -15 -3 -15 -29z"></path>
<path class="node" id="node35" d="M2085 2860 c-11 -17 5 -50 25 -50 19 0 50 25 50 40 0 19 -64 27 -75
10z"></path>
<path class="node" id="node36" d="M826 2820 c9 -16 22 -30 30 -30 9 0 14 11 14 30 0 26 -3 30 -29 30
-29 0 -29 0 -15 -30z"></path>
<path class="node" id="node37" d="M2252 2838 c-16 -16 -15 -45 3 -51 7 -3 24 2 37 12 19 16 20 21 9 35
-16 19 -33 20 -49 4z"></path>
<path class="node" id="node38" d="M665 2829 c-10 -15 3 -25 16 -12 7 7 7 13 1 17 -6 3 -14 1 -17 -5z"></path>
<path class="node" id="node39" d="M720 2815 c-16 -20 12 -65 40 -65 21 0 37 38 26 65 -7 19 -50 19 -66
0z"></path>
<path class="node" id="node40" d="M2190 2819 c0 -5 5 -7 10 -4 6 3 10 8 10 11 0 2 -4 4 -10 4 -5 0 -10
-5 -10 -11z"></path>
<path class="node" id="node41" d="M2340 2790 c-9 -16 -6 -22 18 -34 31 -16 144 -47 150 -41 9 9 -12 27
-59 51 -87 43 -97 46 -109 24z"></path>
<path class="node" id="node42" d="M2557 2786 c-11 -27 -8 -46 6 -43 8 1 13 -13 15 -40 2 -24 7 -43 13
-43 15 0 9 61 -10 104 -14 32 -19 36 -24 22z"></path>
<path class="node" id="node43" d="M351 2745 c-26 -58 -28 -83 -6 -65 8 7 15 21 15 30 0 28 11 51 21 44
5 -3 9 -18 9 -35 0 -20 5 -29 16 -29 13 0 15 7 10 32 -4 18 -15 41 -25 52 -19
18 -19 17 -40 -29z"></path>
<path class="node" id="node44" d="M470 2765 c-19 -21 -22 -30 -14 -43 6 -9 18 -18 27 -20 21 -4 107 34
107 47 0 13 -53 41 -78 41 -10 0 -29 -11 -42 -25z"></path>
<path class="node" id="node45" d="M2160 2776 c0 -16 26 -46 40 -46 19 0 21 22 4 41 -20 22 -44 25 -44
5z"></path>
<path class="node" id="node46" d="M630 2765 c-16 -20 5 -47 33 -43 27 4 32 22 12 42 -20 20 -29 20 -45
1z"></path>
<path stroke-width="20" class="node" id="node47" d="M2019 2763 c-17 -3 -31 -15 -42 -38 -9 -19 -32 -52 -52 -73 -19 -22
-35 -44 -35 -50 0 -26 -31 -17 -66 19 -42 43 -55 47 -74 24 -10 -13 -10 -19 4
-33 8 -10 19 -32 22 -49 5 -26 1 -37 -19 -57 -31 -31 -93 -35 -184 -11 l-58
15 -18 -25 c-29 -40 -103 -31 -119 15 -2 6 -25 4 -63 -5 -82 -20 -139 -19
-156 2 -13 15 -16 68 -7 118 6 38 -33 30 -74 -15 -21 -23 -42 -40 -47 -38 -5
2 -42 46 -83 98 -41 52 -81 96 -90 98 -9 2 -28 -9 -43 -24 -20 -20 -33 -25
-55 -21 -23 5 -31 1 -44 -18 -9 -14 -22 -25 -28 -25 -6 0 -54 -21 -106 -47
-89 -44 -94 -47 -88 -73 3 -15 -1 -35 -8 -45 -9 -12 -11 -42 -8 -98 l5 -80
-39 -33 c-34 -29 -36 -33 -17 -34 12 0 33 4 48 10 20 7 27 7 31 -4 7 -17 -27
-84 -54 -109 -18 -17 -19 -20 -5 -48 18 -36 10 -79 -21 -117 -31 -37 -42 -142
-15 -142 10 0 30 -10 45 -23 38 -33 45 -116 15 -175 l-21 -42 29 0 c17 0 42
-11 60 -26 28 -23 31 -31 30 -77 -1 -29 -4 -63 -9 -77 -8 -29 -2 -42 115 -220
45 -69 89 -139 98 -156 9 -17 23 -36 31 -43 14 -12 16 -6 16 58 0 62 2 71 18
71 24 0 52 -32 92 -103 l33 -58 41 8 c22 4 58 8 79 7 36 0 37 1 37 39 0 26 8
49 27 74 28 36 86 69 103 58 6 -4 10 -31 10 -61 0 -30 4 -54 9 -54 5 0 30 9
56 20 26 11 62 20 82 20 40 0 40 1 -10 -115 -17 -38 -32 -94 -34 -122 l-5 -53
31 0 c18 0 50 -9 73 -21 25 -13 49 -18 65 -14 22 5 24 9 18 49 -9 58 3 77 70
112 54 29 55 30 55 74 0 45 55 175 74 175 5 0 27 -35 49 -77 40 -76 41 -77 86
-84 29 -5 46 -3 49 4 10 30 50 66 103 92 32 17 64 30 70 30 12 0 8 -75 -6
-115 -7 -22 63 51 98 101 12 17 40 58 63 90 57 82 107 181 107 212 0 15 -4 51
-8 79 -7 48 -5 56 20 89 25 33 31 36 71 32 48 -3 54 1 24 20 -27 17 -60 85
-60 124 0 33 20 72 50 95 13 11 13 12 0 13 -8 0 -30 -4 -48 -9 -54 -16 -52 11
7 97 46 66 51 79 42 99 -20 43 -13 69 29 107 22 20 46 36 53 36 6 0 -2 12 -20
26 -22 16 -35 37 -39 62 -5 25 -21 51 -51 79 -48 47 -54 76 -23 116 11 14 20
40 20 59 0 32 -3 36 -40 47 -22 6 -52 23 -67 36 l-28 25 28 21 c15 11 27 24
27 29 0 4 -19 15 -42 25 l-42 16 -23 -30 c-14 -17 -32 -31 -41 -31 -25 0 -62
28 -72 56 -10 25 -36 29 -111 17z"></path>
<path class="node" id="node48" d="M186 2718 c-10 -39 -7 -83 8 -103 13 -18 14 -14 9 30 -4 47 -3 49 11
31 9 -11 16 -30 16 -44 0 -13 4 -20 10 -17 16 10 11 52 -11 89 -24 42 -34 45
-43 14z"></path>
<path class="node" id="node49" d="M1695 2731 c-6 -11 15 -61 25 -61 17 0 27 26 19 48 -8 22 -33 30 -44
13z"></path>
<path class="node" id="node50" d="M1154 2705 c-8 -21 3 -45 20 -45 20 0 29 16 21 40 -7 23 -33 27 -41
5z"></path>
<path class="node" id="node51" d="M585 2700 c-3 -5 -1 -10 4 -10 6 0 11 5 11 10 0 6 -2 10 -4 10 -3 0
-8 -4 -11 -10z"></path>
<path class="node" id="node52" d="M2394 2686 c-18 -8 -34 -18 -38 -24 -7 -12 54 -42 86 -42 l23 0 -25
20 c-35 26 -17 37 27 16 43 -20 69 -7 32 17 -37 24 -71 28 -105 13z"></path>
<path class="node" id="node53" d="M1600 2683 c-23 -9 -100 -74 -100 -84 0 -5 12 -1 27 8 20 13 46 18
100 17 61 -1 71 1 62 13 -7 7 -9 16 -6 20 4 3 2 12 -4 20 -12 13 -51 16 -79 6z"></path>
<path class="node" id="node54" d="M1230 2660 c0 -10 -9 -24 -20 -30 -11 -6 -20 -18 -20 -26 0 -13 2
-13 22 0 29 20 91 20 129 0 35 -17 49 -12 33 14 -33 53 -144 85 -144 42z"></path>
<path class="node" id="node55" d="M389 2651 c-36 -29 -14 -37 35 -13 46 23 86 29 86 12 0 -5 -16 -16
-35 -24 -40 -17 -50 -41 -10 -26 49 19 105 51 105 60 0 6 -34 10 -79 10 -63 0
-84 -4 -102 -19z"></path>
<path class="node" id="node56" d="M2520 2613 c-27 -10 -50 -36 -50 -54 0 -24 32 -44 95 -58 35 -8 58
-21 77 -44 22 -25 30 -29 37 -18 6 9 16 11 27 7 18 -7 18 -8 2 -17 -10 -6 -18
-17 -18 -26 0 -13 -3 -14 -12 -5 -23 23 -29 12 -26 -45 3 -57 4 -58 34 -61 27
-3 38 4 73 44 33 37 41 54 41 85 0 48 -18 59 -94 59 -30 0 -58 5 -61 10 -3 6
4 28 17 51 32 58 19 73 -63 76 -35 1 -71 -1 -79 -4z m110 -63 c0 -11 -4 -20
-10 -20 -5 0 -10 9 -10 20 0 11 5 20 10 20 6 0 10 -9 10 -20z m-40 -11 c0 -11
-4 -17 -10 -14 -5 3 -10 13 -10 21 0 8 5 14 10 14 6 0 10 -9 10 -21z"></path>
<path class="node" id="node57" d="M1440 2583 c-1 -27 -1 -27 -15 -9 -14 19 -15 17 -15 -20 0 -51 12
-68 39 -59 27 8 37 47 21 85 -16 38 -30 39 -30 3z"></path>
<path class="node" id="node58" d="M257 2582 c-20 -22 -22 -70 -5 -107 13 -28 16 -29 53 -15 22 8 24 12
13 29 -7 11 -8 24 -4 28 5 4 11 3 13 -4 2 -7 10 -10 17 -7 8 3 16 -4 19 -15 7
-27 27 -27 61 0 28 22 35 59 12 59 -8 0 -17 9 -21 19 -11 35 -129 45 -158 13z
m30 -77 c9 -25 -4 -29 -17 -6 -7 15 -7 21 0 21 6 0 13 -7 17 -15z"></path>
<path class="node" id="node59" d="M1593 2575 c-33 -23 -29 -31 24 -49 60 -21 76 -20 104 3 l23 18 -25
16 c-38 25 -100 31 -126 12z"></path>
<path class="node" id="node60" d="M2728 2569 c-29 -16 -21 -28 12 -19 36 10 39 -1 8 -24 l-23 -17 30 6
c17 4 39 15 49 25 19 19 19 19 -8 30 -34 12 -46 12 -68 -1z"></path>
<path class="node" id="node61" d="M1218 2554 c-16 -8 -28 -19 -28 -25 0 -26 77 -22 115 7 17 13 18 16
5 24 -22 14 -61 11 -92 -6z"></path>
<path class="node" id="node62" d="M125 2538 c-33 -18 -65 -50 -59 -59 9 -15 100 -10 114 6 11 13 7 15
-29 15 -52 0 -46 17 9 26 22 4 37 10 34 15 -7 12 -45 11 -69 -3z"></path>
<path class="node" id="node63" d="M2443 2479 c-20 -20 -16 -35 27 -84 22 -26 40 -57 40 -70 0 -36 28
-58 63 -51 40 8 39 7 45 66 3 33 1 50 -7 50 -6 0 -11 -7 -11 -15 0 -8 -7 -15
-16 -15 -12 0 -15 6 -11 21 4 14 2 19 -8 15 -20 -7 -27 5 -12 22 10 13 9 15
-10 10 -27 -7 -32 16 -7 30 21 12 8 20 -42 27 -26 4 -43 2 -51 -6z"></path>
<path class="node" id="node64" d="M158 2435 c-27 -18 -39 -34 -44 -60 -8 -43 8 -64 66 -90 49 -22 70
-9 70 42 0 30 -3 34 -20 28 -14 -4 -20 -2 -20 9 0 8 9 18 20 21 27 8 25 40 -2
59 -28 20 -25 20 -70 -9z m72 -19 c0 -18 -27 -29 -36 -14 -4 5 0 14 7 19 20
13 29 11 29 -5z"></path>

<path class="node" id="node66" d="M375 2440 c-17 -7 -18 -9 -2 -9 9 -1 17 -6 17 -12 0 -7 -10 -9 -25
-7 -29 6 -31 1 -8 -24 20 -22 9 -37 -17 -20 -16 10 -19 8 -22 -9 -4 -27 -22
-25 -30 3 -5 18 -6 15 -7 -15 -1 -28 6 -44 24 -62 31 -32 59 -32 82 1 10 14
28 38 41 54 17 22 22 39 20 67 -3 32 -7 38 -28 40 -14 1 -34 -2 -45 -7z"></path>
<path class="node" id="node67" d="M2790 2316 c0 -6 12 -23 27 -38 25 -26 25 -28 6 -28 -11 0 -26 7 -33
15 -16 19 -30 19 -30 1 0 -13 26 -26 78 -41 15 -4 22 -2 22 7 0 15 -69 98 -70
84z"></path>
<path class="node" id="node68" d="M117 2263 c-4 -3 -7 -24 -7 -45 0 -30 4 -38 18 -38 23 0 52 30 52 53
0 24 -15 21 -33 -5 -19 -29 -31 -19 -18 16 10 24 3 35 -12 19z"></path>
<path class="node" id="node69" d="M260 2245 c-7 -8 -24 -21 -39 -28 -29 -14 -39 -50 -20 -73 10 -13 16
-12 38 9 14 14 36 28 49 32 12 3 27 15 32 25 8 15 5 22 -12 34 -28 20 -32 20
-48 1z"></path>
<path class="node" id="node70" d="M2625 2240 c-2 -4 13 -12 35 -19 40 -12 80 -2 80 19 0 10 -108 11
-115 0z"></path>
<path class="node" id="node71" d="M371 2214 c-26 -11 -32 -17 -23 -26 8 -8 18 -6 37 6 32 21 44 13 26
-17 -14 -21 -13 -21 5 -7 23 18 43 42 44 53 0 12 -53 7 -89 -9z"></path>
<path class="node" id="node72" d="M2575 2190 c-27 -11 -71 -60 -79 -87 -15 -47 43 -126 78 -106 29 17
96 102 96 123 0 24 -17 61 -34 72 -14 10 -36 9 -61 -2z m49 -66 c9 -3 16 -13
16 -21 0 -10 -6 -13 -16 -9 -9 3 -18 6 -20 6 -2 0 -4 7 -4 15 0 17 2 18 24 9z
m-16 -42 c3 -9 -2 -13 -14 -10 -9 1 -19 9 -22 16 -3 9 2 13 14 10 9 -1 19 -9
22 -16z m-18 -30 c0 -13 -12 -22 -22 -16 -10 6 -1 24 13 24 5 0 9 -4 9 -8z"></path>
<path class="node" id="node73" d="M2721 2177 c-6 -8 -14 -28 -17 -44 -5 -28 0 -37 46 -82 29 -28 59
-51 67 -51 20 0 70 57 76 87 6 31 -18 57 -76 84 -50 22 -80 24 -96 6z m35 -46
c-3 -5 1 -12 10 -15 19 -7 9 -26 -14 -26 -27 0 -45 17 -39 34 4 9 16 16 27 16
12 0 19 -4 16 -9z m54 -55 c0 -18 -27 -29 -36 -14 -4 5 0 14 7 19 20 13 29 11
29 -5z"></path>
<path class="node" id="node74" d="M256 2109 c-20 -48 -12 -64 14 -31 17 21 40 30 40 15 0 -3 -7 -14
-16 -24 -12 -14 -13 -22 -4 -38 15 -28 56 -55 75 -47 20 7 55 66 55 93 0 28
-73 73 -117 73 -27 0 -33 -6 -47 -41z m73 -55 c-6 -8 -15 -14 -20 -14 -14 0
-11 28 4 33 20 7 29 -4 16 -19z"></path>
<path class="node" id="node75" d="M64 2106 c-52 -44 -27 -136 37 -136 16 0 109 84 109 99 0 3 -11 19
-25 34 -33 35 -83 37 -121 3z m106 -26 c0 -5 -4 -10 -9 -10 -6 0 -13 5 -16 10
-3 6 1 10 9 10 9 0 16 -4 16 -10z m-18 -32 c-9 -9 -15 -9 -24 0 -9 9 -7 12 12
12 19 0 21 -3 12 -12z m-12 -32 c0 -3 -4 -8 -10 -11 -5 -3 -10 -1 -10 4 0 6 5
11 10 11 6 0 10 -2 10 -4z"></path>
<path class="node" id="node76" d="M2680 2050 c0 -5 5 -10 10 -10 6 0 10 5 10 10 0 6 -4 10 -10 10 -5 0
-10 -4 -10 -10z"></path>

<path class="node" id="node78" d="M215 2020 c-3 -5 1 -10 9 -10 9 0 16 5 16 10 0 6 -4 10 -9 10 -6 0
-13 -4 -16 -10z"></path>
<path class="node" id="node79" d="M2626 2001 c-23 -26 -37 -86 -23 -100 6 -6 51 -11 104 -11 81 0 94 2
103 19 15 30 13 35 -29 69 -32 26 -38 28 -34 12 6 -24 -12 -26 -25 -3 -9 14
-10 14 -16 -5 -8 -23 -26 -30 -26 -10 0 9 -3 9 -12 0 -21 -21 -30 -13 -23 18
8 35 4 37 -19 11z"></path>
<path class="node" id="node80" d="M2452 1971 c-36 -44 -42 -75 -14 -67 9 3 31 8 47 12 35 8 75 32 75
45 0 16 -31 10 -61 -12 -32 -23 -40 -8 -12 23 11 12 13 22 7 28 -7 7 -21 -3
-42 -29z"></path>

<path class="node" id="node82" d="M277 1965 c20 -42 9 -59 -17 -25 l-20 25 0 -27 c0 -35 -18 -36 -26
-2 -6 22 -8 24 -16 10 -13 -23 -31 -20 -25 4 7 27 -3 25 -36 -5 -36 -34 -36
-72 0 -86 14 -5 62 -9 105 -8 74 2 80 3 103 31 35 42 32 55 -22 77 -17 7 -34
19 -37 27 -3 8 -10 14 -16 14 -5 0 -2 -16 7 -35z"></path>
<path class="node" id="node83" d="M2531 1900 l-24 -17 35 -5 c30 -3 34 -1 30 14 -7 27 -15 28 -41 8z"></path>
<path class="node" id="node84" d="M2482 1837 c-48 -57 -33 -117 51 -205 l60 -62 25 22 c38 36 79 99 92
144 10 35 10 46 -4 72 -28 54 -96 57 -96 3 0 -37 -10 -62 -21 -55 -5 3 -9 18
-9 33 0 15 -8 35 -18 44 -22 20 -65 22 -80 4z"></path>
<path class="node" id="node85" d="M350 1800 c-11 -11 -20 -30 -20 -42 0 -25 -15 -15 -34 24 -16 32 -41
34 -71 4 -29 -30 -32 -64 -8 -114 23 -48 97 -122 122 -122 19 0 73 60 99 109
7 14 13 48 14 75 0 40 -5 54 -22 68 -29 23 -55 23 -80 -2z"></path>
<path class="node" id="node86" d="M2415 1575 c-45 -44 -32 -110 47 -228 34 -50 41 -56 58 -47 39 21
119 160 120 207 0 31 -18 38 -41 17 -10 -9 -20 -15 -22 -13 -1 2 -9 16 -17 32
-17 33 -35 30 -35 -6 0 -38 -19 -34 -27 5 -6 30 -30 58 -50 58 -5 0 -20 -11
-33 -25z"></path>
<path class="node" id="node87" d="M420 1555 c-7 -8 -10 -28 -8 -45 5 -32 -17 -44 -28 -15 -5 12 -9 13
-20 4 -11 -9 -19 -8 -35 7 -17 16 -22 16 -29 4 -16 -25 -11 -71 11 -117 23
-47 93 -113 120 -113 10 0 32 26 57 68 49 83 65 171 37 202 -22 24 -87 27
-105 5z"></path>
<path class="node" id="node88" d="M2345 1308 c-22 -45 -49 -94 -61 -108 -12 -14 -26 -34 -32 -45 -6
-11 -38 -54 -71 -95 -33 -41 -61 -78 -61 -82 0 -11 44 -10 74 2 47 18 167 205
210 329 12 34 5 81 -13 81 -4 0 -24 -37 -46 -82z"></path>
<path class="node" id="node89" d="M514 1327 c-15 -32 -15 -36 11 -88 15 -30 44 -76 64 -104 21 -27 56
-76 79 -107 26 -35 50 -58 62 -58 10 0 25 -3 34 -6 27 -10 18 14 -33 89 -27
40 -56 87 -65 105 -23 45 -125 202 -131 202 -3 0 -12 -15 -21 -33z"></path>
<path class="node" id="node90" d="M1170 1088 c-21 -34 -29 -125 -10 -113 6 3 10 15 10 25 0 10 5 31 10
46 17 42 31 16 19 -35 -11 -50 -4 -65 17 -37 9 12 14 44 14 83 0 56 -2 63 -20
63 -12 0 -28 -13 -40 -32z"></path>
<path class="node" id="node91" d="M1720 1073 c-21 -48 -24 -108 -5 -108 6 0 11 22 13 48 3 52 24 62 30
14 4 -29 19 -36 28 -12 7 18 -13 80 -31 95 -11 9 -18 2 -35 -37z"></path>
<path class="node" id="node92" d="M847 1093 c-3 -5 -2 -34 0 -65 4 -41 10 -58 20 -58 11 0 12 8 7 35
-4 22 -2 35 4 35 6 0 16 -16 22 -35 6 -19 16 -35 21 -35 5 0 3 16 -6 36 -17
41 -62 98 -68 87z"></path>
<path class="node" id="node93" d="M2023 1079 c-23 -11 -45 -30 -49 -41 -10 -34 7 -34 35 0 15 17 31 32
34 32 13 0 7 -27 -8 -40 -23 -19 -20 -43 4 -31 26 15 55 101 34 101 -5 0 -27
-9 -50 -21z"></path>
<path class="node" id="node94" d="M1325 1041 c-49 -22 -81 -64 -61 -80 9 -8 21 -2 46 24 52 54 73 40
25 -17 -24 -28 -25 -48 -4 -48 12 0 46 73 51 109 4 32 -9 34 -57 12z"></path>
<path class="node" id="node95" d="M1786 966 c-9 -14 -16 -44 -16 -66 0 -34 4 -42 25 -50 20 -8 32 -5
61 15 43 29 126 34 158 10 45 -34 63 0 26 48 -25 32 -86 54 -171 61 -63 6 -67
5 -83 -18z"></path>
<path class="node" id="node96" d="M958 951 c-74 -19 -98 -34 -98 -62 0 -15 7 -19 37 -19 20 0 51 5 68
11 45 17 82 5 101 -34 9 -17 18 -34 19 -35 6 -6 64 41 70 55 8 23 -23 79 -51
92 -33 15 -65 13 -146 -8z"></path>
<path class="node" id="node97" d="M693 919 c-24 -12 -40 -25 -38 -30 8 -12 102 -39 137 -39 42 0 34 19
-12 26 -22 4 -40 10 -40 15 0 5 18 9 40 9 49 0 52 12 7 28 -44 16 -45 16 -94
-9z"></path>
<path class="node" id="node98" d="M1195 927 c-28 -22 -13 -59 34 -80 22 -10 43 -27 46 -38 8 -26 21
-24 41 6 22 34 10 62 -44 96 -53 33 -52 33 -77 16z"></path>
<path class="node" id="node99" d="M2097 933 c-4 -3 -7 -12 -7 -20 0 -9 15 -13 50 -13 49 0 66 -12 34
-24 -9 -3 -29 -6 -44 -6 -31 0 -50 -18 -31 -29 15 -9 125 5 152 20 11 6 19 17
17 26 -6 29 -149 68 -171 46z"></path>
<path class="node" id="node100" d="M1640 900 c-62 -35 -72 -47 -64 -75 14 -46 25 -48 64 -10 20 20 50
39 66 44 32 8 42 34 24 56 -17 21 -27 19 -90 -15z"></path>
<path class="node" id="node101" d="M885 837 c-100 -37 -114 -103 -32 -152 65 -37 98 -33 152 18 38 36
45 50 45 81 0 59 -14 76 -63 75 -23 0 -69 -10 -102 -22z m135 -75 c0 -23 -46
-64 -68 -60 -9 2 -18 11 -20 22 -3 14 0 17 17 11 16 -5 20 -3 15 9 -7 19 7 21
24 4 9 -9 12 -7 12 10 0 12 5 22 10 22 6 0 10 -8 10 -18z"></path>
<path class="node" id="node102" d="M1872 840 c-16 -16 -22 -32 -22 -66 0 -53 -19 -56 -32 -6 -16 60 -90
82 -142 41 -32 -25 -33 -39 -1 -69 13 -13 32 -43 41 -67 9 -23 20 -43 25 -43
4 0 20 15 34 34 41 54 73 62 145 38 34 -12 69 -18 78 -15 22 9 92 64 92 74 0
4 -21 28 -47 53 -44 42 -52 46 -99 46 -37 0 -56 -5 -72 -20z m48 -79 c0 -5 -7
-14 -15 -21 -13 -10 -15 -9 -15 9 0 12 6 21 15 21 8 0 15 -4 15 -9z m30 -8 c0
-5 -4 -15 -10 -23 -11 -18 -25 -7 -17 15 6 15 27 21 27 8z m-161 -17 c8 -10 9
-16 1 -21 -13 -8 -30 3 -30 21 0 18 14 18 29 0z m201 -11 c0 -16 -27 -32 -37
-21 -7 7 16 36 28 36 5 0 9 -7 9 -15z m-220 -36 c0 -10 -4 -19 -10 -19 -12 0
-31 35 -24 43 11 11 34 -5 34 -24z"></path>
<path class="node" id="node103" d="M1126 799 c-34 -26 -33 -58 2 -129 32 -64 62 -79 62 -30 0 36 13 65
46 100 25 28 19 46 -23 68 -32 17 -57 15 -87 -9z m14 -54 c0 -8 -7 -15 -15
-15 -9 0 -12 6 -9 15 4 8 10 15 15 15 5 0 9 -7 9 -15z m20 -50 c-9 -11 -16
-13 -23 -6 -7 7 -6 15 3 26 9 11 16 13 23 6 7 -7 6 -15 -3 -26z"></path>
<path class="node" id="node104" d="M1324 743 c-81 -48 -104 -68 -104 -95 0 -33 20 -36 68 -13 17 9 55
21 84 27 46 10 59 9 91 -7 66 -31 92 7 40 57 -52 50 -124 62 -179 31z"></path>
<path class="node" id="node105" d="M1545 730 c-4 -6 2 -25 12 -43 14 -24 28 -33 56 -38 20 -3 46 -14 57
-24 11 -10 23 -15 27 -12 10 11 -27 96 -50 112 -24 17 -93 20 -102 5z"></path>
<path class="node" id="node106" d="M1056 702 c-14 -16 -14 -21 -3 -25 22 -8 41 8 30 27 -8 15 -11 15
-27 -2z"></path>
<path class="node" id="node107" d="M1900 674 c0 -4 7 -16 17 -26 18 -20 10 -39 -9 -20 -20 20 -38 14
-38 -13 0 -30 -16 -33 -25 -5 -7 23 -16 25 -32 9 -8 -8 -13 -8 -18 0 -8 14
-65 -24 -65 -43 0 -7 13 -25 30 -41 29 -28 30 -28 87 -16 121 27 137 34 155
70 22 43 16 54 -35 69 -23 7 -48 15 -54 18 -7 3 -13 2 -13 -2z"></path>
<path class="node" id="node108" d="M799 638 c-7 -12 -18 -44 -25 -70 -11 -43 -11 -48 4 -48 30 0 82 39
82 60 0 24 -13 26 -30 5 -14 -16 -40 -20 -40 -6 0 5 14 21 32 36 25 21 29 28
17 36 -21 13 -27 11 -40 -13z"></path>
<path class="node" id="node109" d="M998 653 c7 -3 16 -2 19 1 4 3 -2 6 -13 5 -11 0 -14 -3 -6 -6z"></path>
<path class="node" id="node110" d="M933 625 c-33 -14 -54 -58 -37 -75 5 -4 38 -11 73 -14 35 -4 73 -13
84 -21 32 -23 80 -19 105 8 24 25 29 47 11 47 -7 0 -27 16 -45 36 l-34 36 -6
-31 c-7 -33 -24 -33 -24 0 0 25 -17 24 -25 -2 -7 -21 -32 -21 -27 0 1 7 -6 11
-15 9 -10 -2 -17 2 -15 10 3 15 -5 15 -45 -3z"></path>
<path class="node" id="node111" d="M1303 606 c-50 -24 -103 -85 -103 -118 0 -21 37 -76 60 -88 73 -39
145 19 175 140 9 38 14 74 10 79 -11 19 -88 12 -142 -13z m88 -98 c9 -16 9
-23 0 -26 -6 -2 -11 -10 -11 -19 0 -10 -6 -12 -20 -8 -15 5 -18 3 -14 -8 9
-24 -12 -28 -37 -7 l-24 19 23 1 c13 0 22 6 22 16 0 11 6 15 20 11 17 -4 19
-1 14 19 -8 30 11 32 27 2z"></path>
<path class="node" id="node112" d="M1522 609 c-23 -7 -38 -20 -49 -44 l-17 -35 55 -52 c79 -76 135 -118
157 -118 20 0 42 42 42 80 0 39 -32 120 -59 149 -31 33 -64 38 -129 20z m12
-84 c-6 -16 -24 -21 -24 -7 0 11 11 22 21 22 5 0 6 -7 3 -15z m36 -20 c0 -8
-9 -15 -20 -15 -20 0 -26 11 -13 23 12 13 33 7 33 -8z m40 -29 c0 -15 -37 -32
-47 -22 -9 8 17 36 33 36 8 0 14 -6 14 -14z"></path>
<path class="node" id="node113" d="M1870 491 c0 -5 12 -19 27 -30 31 -25 24 -39 -12 -23 -21 10 -25 9
-25 -3 0 -9 12 -20 26 -25 27 -11 84 -14 84 -4 0 19 -64 94 -80 94 -11 0 -20
-4 -20 -9z"></path>
<path class="node" id="node114" d="M1445 461 c-3 -5 -1 -12 5 -16 12 -7 30 2 30 16 0 12 -27 12 -35 0z"></path>
<path class="node" id="node115" d="M1784 443 c3 -16 8 -38 12 -50 9 -32 -13 -30 -28 2 -6 14 -15 25 -20
25 -28 0 22 -65 58 -74 34 -9 35 -7 25 35 -5 19 -12 46 -15 62 -4 16 -13 27
-22 27 -13 0 -15 -6 -10 -27z"></path>
<path class="node" id="node116" d="M1156 408 c-8 -13 -18 -35 -21 -50 -6 -22 -4 -28 9 -28 9 0 20 10 25
23 5 13 16 29 24 36 18 14 12 41 -9 41 -7 0 -20 -10 -28 -22z"></path>
<path class="node" id="node117" d="M1421 383 c-26 -35 -41 -42 -41 -19 0 10 -9 9 -40 -6 -33 -17 -40
-25 -40 -49 0 -18 10 -40 25 -54 21 -22 33 -25 96 -25 40 0 87 -5 105 -12 27
-9 37 -9 58 5 37 25 59 63 52 91 -6 24 -93 103 -103 92 -3 -3 2 -17 11 -30 19
-30 20 -36 4 -36 -7 0 -21 14 -30 30 -23 40 -38 38 -38 -6 0 -31 -2 -35 -14
-24 -8 6 -16 26 -18 43 l-3 32 -24 -32z"></path>
<path class="node" id="node118" d="M1199 353 c-12 -15 -12 -16 4 -10 10 4 27 7 38 7 10 0 19 5 19 10 0
16 -47 11 -61 -7z"></path>
<path class="node" id="node119" d="M1217 302 c-19 -21 -37 -74 -37 -110 l0 -23 41 23 c53 30 63 42 54
75 l-6 27 -34 -39 c-27 -32 -34 -36 -35 -21 0 11 9 30 21 42 12 12 19 28 17
34 -2 7 -10 4 -21 -8z"></path>
<path class="node" id="node120" d="M1465 180 c-7 -11 7 -44 38 -94 l25 -40 26 52 c32 63 32 74 4 70 -18
-2 -24 -11 -26 -36 -4 -41 -22 -32 -22 12 0 25 -5 35 -20 39 -11 3 -22 1 -25
-3z"></path>
</g>
</svg>