<!--?xml version="1.0" standalone="no"?-->

<svg version="1.0" xmlns="http://www.w3.org/2000/svg" width="293.000000pt" height="300.000000pt" viewBox="0 0 293.000000 300.000000" preserveAspectRatio="xMidYMid meet">
<g transform="translate(0.000000,300.000000) scale(0.100000,-0.100000)" fill="#404040" stroke="none">
<path class="node" id="node1" d="M1340 2975 c-19 -20 -30 -24 -51 -20 -31 7 -83 -16 -93 -40 -16 -44
-6 -63 52 -100 31 -19 79 -42 107 -50 64 -19 69 -13 86 100 11 75 10 87 -5
109 -22 34 -64 35 -96 1z m64 -61 c0 -65 -12 -124 -25 -124 -5 0 -39 12 -74
28 -71 30 -97 61 -75 88 14 16 46 15 98 -1 17 -6 22 -3 22 11 0 22 30 56 44
51 6 -2 11 -26 10 -53z"></path>
<path class="node" id="node2" d="M492 2882 c-18 -10 -41 -32 -52 -50 -18 -30 -24 -32 -73 -32 -64 0
-97 -20 -97 -59 0 -43 30 -62 114 -73 73 -11 77 -10 114 15 40 26 84 96 96
154 7 28 4 33 -23 47 -37 19 -38 19 -79 -2z m76 -52 c2 -17 -11 -41 -42 -79
-25 -30 -52 -58 -60 -63 -13 -7 -146 14 -167 28 -20 12 -7 36 28 51 31 13 44
13 72 3 34 -12 50 -4 51 27 0 6 14 23 31 38 41 34 83 31 87 -5z"></path>
<path class="node" id="node3" d="M1675 2845 c-44 -43 -25 -147 34 -192 26 -20 179 -17 221 5 32 15 35
22 38 64 4 61 -20 79 -107 79 -46 1 -61 4 -61 15 0 24 -39 54 -70 54 -19 0
-40 -9 -55 -25z m87 -54 c-3 -36 -2 -37 65 -10 40 16 78 5 105 -31 39 -53 -3
-80 -127 -80 l-83 0 -21 43 c-24 49 -26 69 -10 98 8 15 19 19 42 17 30 -3 32
-5 29 -37z"></path>
<path class="node" id="node4" d="M941 2805 c-25 -8 -49 -21 -53 -30 -8 -13 -14 -12 -52 10 -23 14 -48
25 -55 25 -21 0 -61 -48 -61 -75 0 -34 27 -59 91 -82 101 -38 99 -38 176 21
38 30 74 66 81 80 10 22 8 28 -10 46 -25 23 -55 24 -117 5z m97 -35 c1 -9 -26
-41 -63 -74 l-66 -58 -62 22 c-76 27 -99 46 -95 78 5 43 29 48 87 19 44 -22
53 -24 58 -11 15 39 134 60 141 24z"></path>
<path class="node" id="node5" d="M576 2571 c-3 -4 -28 -11 -56 -15 -68 -9 -221 -89 -280 -146 -125
-122 -169 -278 -120 -428 18 -54 54 -128 70 -142 3 -3 20 -26 38 -52 70 -100
185 -207 373 -344 96 -71 179 -142 179 -154 0 -5 -35 -37 -77 -71 -115 -93
-243 -220 -243 -241 0 -16 10 -18 113 -18 62 0 148 4 192 9 44 5 125 12 181
15 l100 6 74 -112 c40 -62 94 -154 121 -205 47 -93 48 -94 35 -138 -21 -69
-85 -175 -140 -234 -28 -29 -93 -85 -143 -123 -51 -38 -93 -73 -93 -78 0 -5
26 -11 58 -15 31 -3 90 -10 130 -15 40 -6 114 -10 165 -10 95 0 110 -4 120
-30 5 -13 6 -13 6 1 1 17 72 29 173 29 40 0 51 4 55 18 4 16 13 18 81 15 92
-5 156 7 160 29 2 8 -17 36 -42 61 -68 68 -135 88 -319 94 l-148 6 69 66 c38
36 79 81 91 99 18 25 61 51 194 117 243 119 456 265 593 407 71 74 178 208
214 267 27 47 37 50 49 19 16 -41 50 -63 98 -63 52 0 66 14 88 88 8 27 26 63
41 80 28 33 63 102 64 124 0 7 -12 24 -27 38 -34 31 -73 32 -133 2 l-45 -22 0
105 c-1 154 -31 238 -154 425 -138 210 -369 397 -586 472 -187 65 -310 72
-400 24 -42 -22 -103 -79 -131 -123 l-24 -37 -67 38 c-137 77 -251 120 -402
151 -101 20 -285 28 -295 11z m337 -70 c112 -30 314 -115 427 -181 112 -66
162 -92 167 -86 9 8 -23 41 -79 83 -42 30 -46 37 -37 55 40 74 146 144 233
153 47 5 169 -17 190 -34 6 -5 22 -12 36 -16 47 -13 213 -97 264 -133 182
-126 318 -272 389 -415 52 -106 97 -246 97 -302 0 -21 -7 -65 -16 -97 -16 -54
-18 -58 -47 -58 -17 0 -61 16 -98 35 -80 41 -107 46 -58 9 58 -43 106 -64 171
-73 62 -9 63 -9 98 24 62 58 104 69 134 36 20 -22 12 -49 -35 -122 -16 -25
-32 -60 -35 -77 -4 -18 -10 -32 -15 -32 -4 0 -11 -9 -14 -20 -14 -44 -99 -32
-111 15 -4 15 -1 37 6 51 8 13 11 27 7 30 -3 3 -10 -4 -17 -15 -6 -12 -16 -21
-22 -21 -14 0 -121 -42 -163 -64 -35 -19 -25 -20 28 -5 22 6 41 8 44 5 10 -10
-134 -179 -209 -247 -99 -89 -239 -198 -318 -247 -205 -128 -491 -272 -540
-272 -4 0 -18 26 -31 57 -85 215 -238 459 -391 624 -25 27 -23 33 22 64 22 15
40 32 40 36 0 22 -40 5 -100 -41 -36 -28 -81 -62 -100 -75 -54 -37 -108 -88
-85 -80 40 15 130 26 183 23 46 -3 56 -7 70 -30 9 -15 13 -31 8 -35 -8 -8 -99
-16 -348 -29 -120 -6 -138 -5 -138 8 0 17 75 89 165 160 165 129 233 180 263
195 17 9 32 20 32 25 0 19 -49 5 -94 -27 -27 -19 -53 -35 -57 -35 -4 0 -46 33
-93 73 -47 39 -122 101 -166 137 -97 77 -221 202 -284 285 -25 33 -50 65 -56
72 -5 7 -21 47 -35 89 -51 157 -26 281 80 389 79 81 170 134 260 151 94 18
277 11 378 -15z m17 -1366 l23 -25 -54 0 -54 1 28 24 c15 14 29 25 31 25 1 0
13 -11 26 -25z m423 -692 c10 -16 51 -17 78 -3 10 6 19 7 19 2 0 -10 -57 -64
-172 -160 -79 -67 -91 -73 -137 -76 l-50 -4 82 93 c45 52 98 124 117 161 l35
68 10 -34 c5 -19 14 -41 18 -47z m319 -221 c58 -21 128 -66 128 -83 0 -15
-231 -11 -249 5 -32 27 -192 64 -286 66 -19 0 -19 0 1 14 30 21 65 25 214 21
106 -2 148 -7 192 -23z m-209 -85 c121 -44 107 -52 -91 -51 -156 0 -412 21
-412 33 0 9 42 35 70 43 14 4 102 5 195 3 151 -3 178 -6 238 -28z"></path>
<path class="node" id="node6" d="M1135 2186 c-51 -24 -103 -71 -92 -82 4 -4 24 4 44 17 53 34 83 46
137 54 47 7 58 18 30 29 -30 12 -69 6 -119 -18z"></path>
<path class="node" id="node7" d="M1847 2196 c-41 -15 -67 -33 -67 -47 0 -12 75 -1 119 17 28 12 31 16
21 29 -15 18 -24 18 -73 1z"></path>
<path class="node" id="node8" d="M1784 2094 c-49 -32 -81 -77 -100 -141 -24 -82 -21 -80 -62 -41 -20
19 -75 58 -122 86 -137 83 -259 92 -321 26 -21 -23 -24 -35 -24 -102 0 -86 29
-174 84 -253 l30 -44 -24 -18 c-14 -10 -25 -22 -25 -25 0 -4 62 -7 138 -8 127
0 141 -2 196 -28 65 -30 112 -62 168 -115 43 -40 59 -38 27 4 -21 26 -21 28
-5 56 9 16 20 48 24 71 l7 42 95 1 c81 1 103 5 150 27 30 14 71 40 90 56 30
26 35 37 40 88 7 81 -6 161 -36 211 -29 50 -89 102 -127 110 -15 3 -30 10 -33
14 -3 5 -33 9 -68 9 -50 0 -70 -5 -102 -26z m162 -24 c73 -17 141 -88 158
-165 4 -16 9 -38 12 -49 6 -16 1 -18 -42 -12 -27 3 -96 8 -154 11 -128 7 -220
24 -220 42 0 31 46 106 87 143 43 37 81 52 113 42 8 -2 29 -8 46 -12z m-516
-79 c59 -28 220 -160 220 -180 0 -8 -58 -32 -120 -49 -19 -6 -80 -26 -135 -46
-55 -20 -105 -36 -111 -36 -20 0 -91 151 -99 207 -8 59 7 117 33 133 31 20
143 4 212 -29z m306 -167 c-3 -9 -6 -23 -6 -32 0 -13 -5 -11 -20 8 -26 33 -25
40 6 40 20 0 25 -4 20 -16z m342 -13 c38 -1 42 -3 42 -26 0 -34 -53 -91 -109
-116 -48 -22 -170 -36 -214 -25 -15 3 -27 15 -30 28 -2 13 -8 31 -12 41 -6 15
-4 17 19 11 41 -10 72 3 86 36 7 16 10 36 7 44 -3 8 -4 16 -2 18 2 2 41 0 87
-4 46 -3 102 -7 126 -7z m-293 -21 c0 -8 -10 -16 -22 -18 -18 -3 -23 2 -23 18
0 16 5 21 23 18 12 -2 22 -10 22 -18z m-100 -30 c3 -5 -3 -10 -14 -10 -27 0
-61 -34 -61 -60 0 -11 9 -29 21 -41 20 -20 41 -21 82 -4 14 6 17 1 17 -33 0
-22 -7 -56 -15 -77 l-16 -37 -32 25 c-71 54 -204 97 -300 97 -19 0 -40 7 -47
15 -14 17 -21 13 85 46 39 12 113 36 165 54 111 39 107 38 115 25z m-31 -80
c-6 -6 -15 -6 -24 0 -13 9 -13 11 0 20 18 11 39 -5 24 -20z"></path>
<path class="node" id="node9" d="M2675 1428 c-16 -14 -30 -41 -36 -67 -9 -39 -7 -47 11 -65 18 -18 22
-19 30 -6 5 8 7 25 4 37 -4 16 5 33 35 66 23 24 41 47 41 51 0 15 -61 4 -85
-16z"></path>








</g>
<g transform="translate(0.000000,300.000000) scale(0.100000,-0.100000)" fill="#FFFFFF" stroke="none">

<path class="node" id="node19" d="M481 2835 c-17 -15 -31 -32 -31 -38 -1 -31 -17 -39 -51 -27 -28 10
-41 10 -72 -3 -35 -15 -48 -39 -28 -51 21 -14 154 -35 167 -28 8 5 35 33 60
63 31 38 44 62 42 79 -4 36 -46 39 -87 5z"></path>
<path class="node" id="node20" d="M1691 2811 c-16 -29 -14 -49 10 -98 l21 -43 83 0 c124 0 166 27 127
80 -27 36 -65 47 -105 31 -67 -27 -68 -26 -65 10 3 32 1 34 -29 37 -23 2 -34
-2 -42 -17z"></path>
<path class="node" id="node21" d="M929 2775 c-15 -8 -29 -21 -32 -29 -5 -13 -14 -11 -58 11 -58 29 -82
24 -87 -19 -4 -32 19 -51 95 -78 l62 -22 66 58 c37 33 64 65 63 74 -4 20 -75
24 -109 5z"></path>
<path class="node" id="node22" d="M535 2516 c-90 -17 -181 -70 -260 -151 -106 -108 -131 -232 -80 -389
14 -42 30 -82 35 -89 6 -7 31 -39 56 -72 63 -83 187 -208 284 -285 44 -36 119
-98 166 -137 47 -40 89 -73 93 -73 4 0 30 16 57 35 45 32 94 46 94 27 0 -5
-15 -16 -32 -25 -30 -15 -98 -66 -263 -195 -90 -71 -165 -143 -165 -160 0 -13
18 -14 138 -8 249 13 340 21 348 29 5 4 1 20 -8 35 -14 23 -24 27 -70 30 -53
3 -143 -8 -183 -23 -23 -8 31 43 85 80 19 13 64 47 100 75 60 46 100 63 100
41 0 -4 -18 -21 -40 -36 -45 -31 -47 -37 -22 -64 153 -165 306 -409 391 -624
13 -31 27 -57 31 -57 49 0 335 144 540 272 79 49 219 158 318 247 75 68 219
237 209 247 -3 3 -22 1 -44 -5 -53 -15 -63 -14 -28 5 42 22 149 64 163 64 6 0
16 9 22 21 7 11 14 18 17 15 4 -3 1 -17 -7 -30 -7 -14 -10 -36 -6 -51 12 -47
97 -59 111 -15 3 11 10 20 14 20 5 0 11 14 15 32 3 17 19 52 35 77 47 73 55
100 35 122 -30 33 -72 22 -134 -36 -35 -33 -36 -33 -98 -24 -65 9 -113 30
-171 73 -49 37 -22 32 58 -9 37 -19 81 -35 98 -35 29 0 31 4 47 58 22 80 20
122 -10 221 -73 241 -213 422 -460 593 -51 36 -217 120 -264 133 -14 4 -30 11
-36 16 -21 17 -143 39 -190 34 -87 -9 -193 -79 -233 -153 -9 -18 -5 -25 37
-55 56 -42 88 -75 79 -83 -5 -6 -55 20 -167 86 -44 26 -224 111 -282 134 -168
66 -376 90 -523 62z m719 -312 c28 -11 17 -22 -30 -29 -54 -8 -84 -20 -137
-54 -45 -29 -60 -21 -26 15 46 51 147 86 193 68z m666 -9 c10 -13 7 -17 -21
-29 -44 -18 -119 -29 -119 -17 0 14 26 32 67 47 49 17 58 17 73 -1z m34 -84
c3 -4 18 -11 33 -14 38 -8 98 -60 127 -110 30 -50 43 -130 36 -211 -5 -51 -10
-62 -40 -88 -19 -16 -60 -42 -90 -56 -47 -22 -69 -26 -150 -27 l-95 -1 -7 -42
c-4 -23 -15 -55 -24 -71 -16 -28 -16 -30 5 -56 32 -42 16 -44 -27 -4 -56 53
-103 85 -168 115 -55 26 -69 28 -196 28 -76 1 -138 4 -138 8 0 3 11 15 25 25
l24 18 -30 44 c-55 79 -84 167 -84 253 0 67 3 79 24 102 62 66 184 57 321 -26
47 -28 102 -67 122 -86 41 -39 38 -41 62 41 19 64 51 109 100 141 32 21 52 26
102 26 35 0 65 -4 68 -9z m806 -667 c0 -4 -18 -27 -41 -51 -30 -33 -39 -50
-35 -66 3 -12 1 -29 -4 -37 -8 -13 -12 -12 -30 6 -18 18 -20 26 -11 65 12 52
49 89 92 89 16 0 29 -3 29 -6z"></path>
<path class="node" id="node23" d="M1858 2083 c-55 -8 -158 -130 -158 -186 0 -18 92 -35 220 -42 58 -3
127 -8 154 -11 43 -6 48 -4 42 12 -3 11 -8 33 -12 49 -17 77 -85 148 -158 165
-17 4 -38 10 -46 12 -8 3 -27 3 -42 1z"></path>
<path class="node" id="node24" d="M1218 2020 c-26 -16 -41 -74 -33 -133 8 -56 79 -207 99 -207 6 0 56
16 111 36 55 20 116 40 135 46 62 17 120 41 120 49 0 20 -161 152 -220 180
-69 33 -181 49 -212 29z"></path>
<path class="node" id="node25" d="M1690 1833 c0 -5 9 -19 20 -33 15 -19 20 -21 20 -8 0 9 3 23 6 32 5
12 0 16 -20 16 -14 0 -26 -3 -26 -7z"></path>
<path class="node" id="node26" d="M1865 1822 c-2 -2 -1 -10 2 -18 3 -8 0 -28 -7 -44 -14 -33 -45 -46
-86 -36 -23 6 -25 4 -19 -11 4 -10 10 -28 12 -41 3 -13 15 -25 30 -28 44 -11
166 3 214 25 56 25 109 82 109 116 0 23 -4 25 -42 26 -24 0 -80 4 -126 7 -46
4 -85 6 -87 4z"></path>
<path class="node" id="node27" d="M1740 1790 c0 -16 5 -21 23 -18 12 2 22 10 22 18 0 8 -10 16 -22 18
-18 3 -23 -2 -23 -18z"></path>
<path class="node" id="node28" d="M1570 1735 c-52 -18 -126 -42 -165 -54 -106 -33 -99 -29 -85 -46 7
-8 28 -15 47 -15 96 0 229 -43 300 -97 l32 -25 16 37 c8 21 15 55 15 77 0 34
-3 39 -17 33 -41 -17 -62 -16 -82 4 -12 12 -21 30 -21 41 0 26 34 60 61 60 11
0 17 5 14 10 -8 13 -4 14 -115 -25z"></path>
<path class="node" id="node29" d="M1630 1700 c-13 -9 -13 -11 0 -20 18 -11 39 5 24 20 -6 6 -15 6 -24
0z"></path>

<path class="node" id="node31" d="M1290 456 c-19 -37 -72 -109 -117 -161 l-82 -93 50 4 c46 3 58 9 137
76 115 96 172 150 172 160 0 5 -9 4 -19 -2 -27 -14 -68 -13 -78 3 -4 6 -13 28
-18 47 l-10 34 -35 -68z"></path>
<path class="node" id="node32" d="M1315 243 c-16 -2 -38 -11 -49 -19 -20 -14 -20 -14 -1 -14 94 -2 254
-39 286 -66 18 -16 249 -20 249 -5 0 17 -70 62 -128 83 -44 16 -86 21 -192 23
-74 2 -148 1 -165 -2z"></path>
<path class="node" id="node33" d="M1030 162 c-28 -8 -70 -34 -70 -43 0 -12 256 -33 412 -33 198 -1 212
7 91 51 -60 22 -87 25 -238 28 -93 2 -181 1 -195 -3z"></path>
<path class="node" id="node34" d="M1367 2952 c-9 -10 -17 -27 -17 -36 0 -14 -5 -17 -22 -11 -52 16 -84
17 -98 1 -22 -27 4 -58 75 -88 35 -16 69 -28 74 -28 22 0 36 170 15 177 -6 2
-18 -5 -27 -15z"></path>
</g>
</svg>