<!--?xml version="1.0" standalone="no"?-->

<svg version="1.0" xmlns="http://www.w3.org/2000/svg" width="300.000000pt" height="260.000000pt" viewBox="0 0 300.000000 260.000000" preserveAspectRatio="xMidYMid meet">
<g transform="translate(0.000000,260.000000) scale(0.100000,-0.100000)" fill="#171717" stroke="none">
<path class="node" id="node1" d="M1879 2519 c-17 -17 -20 -29 -15 -60 5 -32 3 -37 -9 -33 -28 11 -65
-5 -65 -28 0 -19 4 -20 45 -15 29 4 53 2 65 -5 14 -9 25 -9 42 -1 13 6 37 14
53 19 44 14 42 49 -4 50 -30 0 -35 4 -47 40 -8 21 -14 40 -14 40 0 1 -7 4 -15
8 -9 3 -25 -4 -36 -15z"></path>
<path class="node" id="node2" d="M1077 2512 c-10 -10 -17 -30 -17 -45 0 -24 -3 -26 -37 -24 -34 2 -38
0 -38 -23 0 -19 6 -26 30 -30 17 -4 40 -12 53 -19 18 -10 26 -10 38 0 9 7 30
9 60 5 35 -4 46 -2 50 9 11 28 -16 47 -55 40 -29 -5 -34 -4 -23 6 26 27 7 99
-27 99 -10 0 -25 -8 -34 -18z"></path>
<path stroke-width="20" class="node" id="node3" d="M2533 2426 c-24 -21 -26 -27 -18 -52 9 -24 16 -29 45 -30 19 0 36 -4
38 -7 13 -38 -27 -62 -79 -47 -18 5 -46 23 -63 39 -17 15 -43 31 -57 35 -34 7
-122 -9 -163 -30 -146 -76 -192 -90 -224 -70 -19 12 -14 25 8 19 45 -12 66 41
30 77 -28 28 -64 25 -98 -10 -29 -29 -30 -29 -47 -10 -25 28 -77 26 -112 -4
-24 -21 -26 -27 -18 -52 8 -23 17 -30 43 -32 18 -2 40 2 48 9 11 9 14 8 14 -5
0 -26 -38 -34 -137 -29 -86 5 -95 4 -136 -21 -25 -14 -55 -41 -66 -60 -25 -40
-29 -117 -6 -136 8 -7 13 -16 10 -20 -3 -5 5 -10 17 -12 32 -4 34 -44 6 -87
-13 -19 -29 -44 -35 -55 -11 -19 -13 -15 -13 29 0 34 -7 59 -21 80 -12 17 -18
21 -14 10 4 -11 9 -42 12 -70 l4 -50 -35 37 c-27 29 -36 46 -36 73 0 27 4 35
18 35 21 0 52 57 52 96 0 51 -43 105 -110 139 -29 15 -50 17 -131 11 -81 -5
-100 -3 -113 10 -22 22 -20 41 2 21 25 -22 48 -21 72 3 27 27 25 46 -7 76 -22
21 -35 25 -62 20 -18 -3 -41 -12 -51 -21 -17 -15 -20 -14 -44 10 -35 35 -84
32 -105 -7 -14 -24 -14 -28 3 -47 14 -15 26 -19 45 -14 24 6 25 5 11 -11 -22
-27 -95 -15 -187 33 -88 45 -162 65 -206 55 -16 -3 -47 -22 -68 -41 -51 -46
-109 -56 -133 -22 -8 13 -12 27 -8 31 12 12 42 -1 42 -18 0 -8 5 -14 11 -14 6
0 8 7 5 16 -4 10 2 23 15 33 30 24 19 63 -22 83 -38 19 -63 13 -89 -20 -51
-64 -1 -172 81 -172 16 0 20 -4 14 -17 -15 -40 -16 -110 -2 -150 12 -34 12
-40 0 -36 -23 9 -79 -6 -117 -32 -43 -29 -46 -30 -46 -11 0 48 -95 100 -138
77 -48 -26 -48 -96 -1 -121 50 -27 93 36 49 72 -16 13 -18 18 -7 18 31 0 48
-13 68 -53 20 -39 20 -40 2 -81 -13 -30 -18 -64 -18 -136 0 -106 18 -158 81
-247 l34 -48 -44 -13 c-53 -15 -91 -56 -100 -107 -6 -28 -2 -46 18 -82 34 -60
35 -115 1 -148 -27 -28 -66 -32 -85 -10 -10 12 -9 15 7 15 43 0 60 60 22 80
-33 18 -69 4 -84 -34 -24 -56 -3 -102 50 -112 45 -8 98 18 121 62 10 18 24 34
31 34 7 0 13 5 13 10 0 6 -4 10 -10 10 -5 0 -10 7 -10 15 0 13 4 14 21 4 31
-16 92 14 115 57 17 32 17 37 4 62 -9 15 -25 28 -37 30 -21 3 -29 -3 -58 -43
-13 -17 -16 -18 -25 -5 -16 25 -11 75 10 98 34 36 79 29 157 -23 121 -80 113
-71 73 -88 -51 -21 -89 -67 -99 -118 l-9 -44 -7 33 c-4 18 -11 35 -16 37 -14
10 -88 -26 -103 -50 -24 -36 -21 -82 6 -96 19 -10 25 -8 43 14 17 18 29 23 49
20 16 -3 26 -1 26 7 0 6 15 -5 34 -24 46 -49 93 -52 139 -8 32 31 34 50 6 86
-26 33 -53 33 -84 1 l-25 -24 0 27 c0 76 96 123 187 92 18 -7 72 -57 134 -125
57 -63 107 -115 110 -115 3 0 4 24 1 54 -8 103 50 221 124 252 74 31 164 0
197 -68 20 -40 13 -91 -18 -135 -22 -31 -69 -30 -100 2 -27 27 -31 45 -13 63
9 9 14 7 24 -6 12 -16 14 -16 30 0 15 15 16 21 4 42 -27 52 -118 41 -158 -19
-37 -53 -46 -103 -31 -171 l13 -59 7 39 c11 68 79 104 127 69 49 -36 37 -107
-17 -101 -33 4 -41 35 -9 34 31 -1 30 28 0 32 -54 8 -83 -76 -47 -132 l16 -23
-88 1 c-124 1 -171 -26 -290 -168 -31 -37 -35 -38 -75 -32 -48 8 -66 20 -79
55 -10 26 3 52 15 32 10 -16 42 -13 60 5 23 23 20 67 -7 91 -32 29 -47 32 -87
16 l-35 -14 34 35 c21 22 31 41 28 50 -8 20 -31 20 -47 1 -18 -21 -24 -19 -37
15 -9 24 -17 30 -42 30 -40 0 -60 -35 -41 -70 9 -16 9 -25 1 -33 -21 -21 -11
-35 31 -41 24 -3 49 -7 56 -8 14 -2 15 -8 3 -27 -7 -11 -13 -11 -32 3 -13 9
-43 16 -67 16 -34 0 -48 -6 -67 -26 -51 -55 -18 -138 52 -132 42 4 59 24 49
62 -5 20 -15 28 -38 33 -29 6 -30 7 -13 20 27 19 72 16 93 -5 11 -11 22 -37
25 -58 7 -43 45 -90 84 -105 13 -5 44 -9 67 -9 l43 0 7 -62 c12 -100 65 -177
146 -209 55 -22 148 -17 195 10 44 26 57 39 86 95 30 56 23 140 -15 191 -33
43 -60 55 -128 55 -44 0 -54 -4 -84 -34 -75 -75 -14 -182 82 -145 37 13 42 4
14 -26 -43 -46 -125 -23 -159 44 -25 49 -26 77 -5 133 22 56 58 94 119 126 42
22 62 26 122 25 83 -1 85 -2 194 -108 74 -72 87 -95 54 -95 -25 0 -75 -51 -86
-90 -30 -99 60 -178 135 -119 36 28 36 75 0 91 -20 9 -30 9 -45 0 -17 -11 -19
-9 -19 18 0 30 21 51 68 65 18 5 33 -4 78 -47 l55 -53 -25 -52 c-14 -28 -26
-59 -26 -70 0 -12 -15 -25 -42 -38 -48 -23 -77 -58 -87 -106 -8 -40 -45 -58
-88 -43 -33 11 -42 34 -14 34 13 0 25 9 31 23 7 17 4 27 -16 45 -31 27 -44 28
-77 2 -33 -27 -42 -64 -21 -96 34 -50 102 -68 157 -39 27 14 30 13 58 -15 36
-36 108 -50 141 -28 19 13 25 13 48 0 36 -21 92 -9 135 29 33 29 35 30 64 15
41 -22 72 -20 112 7 44 30 59 69 38 105 -18 32 -63 51 -86 36 -44 -28 -40 -75
6 -82 22 -3 22 -4 5 -23 -36 -39 -114 -10 -114 44 -1 41 -78 107 -125 107 -8
0 -15 8 -15 19 0 10 -10 42 -22 70 l-21 52 39 42 c53 56 54 57 96 57 42 0 68
-21 68 -55 0 -22 -3 -24 -30 -19 -37 8 -60 -9 -60 -45 0 -64 88 -94 135 -47
63 63 22 189 -70 210 l-29 7 95 93 c68 66 105 95 129 99 135 27 259 -31 300
-140 28 -74 20 -125 -25 -170 -41 -41 -102 -46 -135 -11 -11 12 -20 25 -20 30
0 12 18 10 26 -3 8 -14 79 -6 99 11 21 17 29 74 15 100 -10 18 -9 24 1 32 11
7 11 8 -1 7 -8 -1 -32 5 -52 14 -108 49 -207 -13 -216 -134 -8 -110 56 -190
167 -211 52 -10 70 -9 115 5 29 10 66 27 80 38 40 32 78 115 84 184 l4 60 43
-3 c76 -7 135 42 154 127 15 67 61 89 111 54 l25 -18 -35 -5 c-32 -5 -35 -8
-38 -42 -3 -32 1 -40 22 -49 35 -16 73 -3 91 31 22 43 19 68 -14 101 -35 35
-81 38 -128 10 -27 -17 -32 -18 -37 -5 -3 9 -6 17 -6 19 0 7 60 26 68 21 14
-9 42 4 42 19 0 7 -8 16 -17 19 -12 5 -14 9 -5 18 17 17 15 63 -2 78 -24 19
-59 8 -76 -25 -8 -16 -16 -32 -18 -35 -2 -3 -8 3 -13 13 -6 9 -21 17 -34 17
-35 0 -32 -31 6 -59 33 -24 34 -41 1 -20 -25 16 -77 -3 -98 -36 -30 -46 13
-107 59 -83 48 25 27 -47 -22 -75 -47 -28 -97 -15 -124 33 -29 53 -63 85 -131
121 -52 28 -71 33 -126 32 -36 -1 -72 -3 -80 -5 -10 -2 -14 3 -12 17 15 84 14
100 -11 123 -14 13 -33 22 -44 20 -23 -4 -31 -48 -9 -48 9 0 16 5 16 12 0 9 3
9 12 0 14 -14 -6 -42 -32 -42 -22 0 -50 31 -50 57 0 30 41 63 79 63 40 0 81
-38 82 -77 l1 -28 13 30 c44 95 -31 235 -125 235 -44 0 -70 -20 -70 -55 0 -31
14 -39 34 -19 20 19 36 10 36 -22 0 -57 -77 -85 -118 -41 -35 37 -45 76 -32
123 10 35 20 46 60 68 109 59 199 18 259 -118 23 -53 29 -144 10 -163 -6 -6
-9 -17 -7 -24 2 -7 58 47 123 119 137 151 167 169 240 151 52 -13 95 -57 95
-97 l0 -26 -20 22 c-12 12 -32 22 -45 22 -23 0 -55 -23 -55 -40 0 -5 -2 -15
-6 -23 -3 -8 7 -28 21 -46 21 -24 35 -31 64 -31 43 0 78 22 92 57 9 25 10 25
24 7 11 -15 18 -17 31 -8 15 8 22 5 40 -15 19 -21 26 -24 41 -15 22 13 28 55
13 84 -14 27 -68 60 -97 60 -18 0 -23 -6 -23 -25 0 -14 -4 -25 -10 -25 -5 0
-10 10 -10 23 0 38 -37 86 -85 109 -25 12 -45 24 -44 27 2 15 178 121 200 121
55 0 89 -53 69 -106 l-11 -27 -27 32 c-32 39 -59 39 -81 -1 -32 -56 36 -135
106 -122 21 4 33 2 33 -5 0 -6 -4 -11 -10 -11 -5 0 -10 -4 -10 -10 0 -5 6 -10
14 -10 8 0 17 -8 20 -18 11 -34 62 -73 104 -79 52 -7 82 20 82 75 0 68 -65
106 -106 61 -21 -23 -12 -47 24 -64 29 -13 28 -23 -4 -31 -36 -9 -76 23 -87
70 -8 31 -5 42 17 76 29 44 34 109 12 148 -17 32 -65 62 -98 62 -31 0 -36 15
-14 39 24 28 67 118 82 173 19 74 17 138 -7 210 -11 35 -18 72 -14 86 7 30 49
72 71 72 16 0 16 -1 1 -18 -42 -46 6 -102 58 -68 34 22 35 74 1 105 -45 42
-108 14 -149 -64 -9 -16 -16 -25 -17 -18 0 18 -82 53 -124 53 -34 0 -37 2 -29
23 10 28 10 137 0 158 -7 13 -1 18 26 23 49 9 79 46 84 103 4 41 1 52 -21 76
-31 34 -66 35 -103 3z m57 -21 c13 -16 6 -35 -15 -35 -18 0 -28 17 -21 35 7
19 20 19 36 0z m-2132 -27 c-4 -27 -33 -36 -42 -13 -8 22 1 35 25 35 15 0 20
-6 17 -22z m748 -69 c9 -16 -12 -33 -31 -25 -14 5 -15 9 -5 21 15 18 26 19 36
4z m637 -3 c7 -16 -1 -26 -20 -26 -7 0 -13 9 -13 20 0 23 25 27 33 6z m584
-38 c58 -40 79 -117 48 -178 -14 -27 -50 -48 -62 -36 -4 3 2 15 12 26 15 17
16 24 7 45 -7 14 -19 28 -28 32 -24 9 -63 -14 -74 -43 -10 -25 -11 -26 -33
-10 -12 9 -42 26 -67 37 -25 11 -58 26 -73 34 l-29 13 34 25 c105 79 200 98
265 55z m-1676 -5 c19 -9 56 -32 83 -50 l48 -33 -57 -25 c-32 -14 -72 -37 -90
-50 -38 -30 -41 -30 -48 -6 -2 10 -17 27 -31 36 -56 37 -104 -27 -59 -78 17
-18 17 -19 -7 -16 -29 5 -70 61 -70 96 0 34 35 97 67 122 35 26 116 28 164 4z
m1209 -55 c0 -5 -9 -8 -20 -8 -23 0 -26 10 -8 28 9 9 14 9 20 -1 4 -6 8 -15 8
-19z m-876 7 c4 -10 -1 -15 -14 -15 -20 0 -26 11 -13 23 10 11 20 8 27 -8z
m280 -49 c45 -19 76 -54 76 -85 -1 -25 -1 -25 -15 -7 -12 16 -18 17 -44 6 -26
-11 -32 -9 -53 10 -13 12 -40 31 -62 42 -40 20 -39 33 4 41 46 8 60 7 94 -7z
m389 8 c41 -7 48 -19 17 -29 -11 -4 -41 -22 -67 -42 -42 -32 -48 -34 -70 -22
-22 12 -27 11 -38 -4 -15 -21 -25 -22 -25 -2 0 32 25 65 64 85 44 21 60 23
119 14z m160 -154 c39 -43 37 -95 -5 -151 -55 -70 -112 -91 -181 -64 -16 7
-18 4 -12 -28 5 -25 2 -42 -10 -61 -15 -22 -24 -26 -64 -25 -25 1 -37 4 -26 6
26 6 55 32 55 49 0 7 -12 14 -27 16 -17 2 -29 10 -31 21 -6 31 17 47 67 47 52
0 91 21 91 49 0 25 -25 46 -35 30 -4 -6 -2 -15 5 -19 7 -4 8 -10 3 -13 -5 -3
-15 -2 -23 3 -11 7 -12 14 -2 34 13 30 37 33 64 9 24 -21 23 -58 -2 -83 l-21
-21 28 7 c45 11 63 23 83 57 34 55 20 117 -25 117 -30 0 -41 -16 -19 -28 22
-12 9 -32 -21 -32 -28 0 -49 32 -40 60 3 11 18 29 33 41 35 27 78 19 115 -21z
m-674 4 c36 -46 22 -84 -31 -84 -28 0 -37 13 -18 25 15 9 12 25 -5 32 -25 9
-55 -26 -55 -64 0 -44 51 -101 100 -109 35 -6 35 -6 13 10 -40 29 -29 82 19
99 21 7 50 -19 46 -41 -5 -25 -28 -26 -28 -2 0 27 -24 21 -28 -7 -5 -33 24
-53 78 -53 27 0 55 -3 64 -6 20 -8 21 -48 1 -64 -21 -17 -37 -3 -23 20 15 24
0 44 -25 34 -19 -7 -23 -29 -7 -39 6 -3 10 -14 10 -24 0 -27 32 -51 58 -44 12
3 22 1 22 -5 0 -12 -62 -20 -88 -11 -28 11 -45 59 -32 93 9 25 8 28 -7 21 -32
-12 -81 -18 -106 -11 -31 7 -89 65 -110 108 -33 70 17 148 94 148 29 0 42 -6
58 -26z m1006 -12 c12 -27 21 -28 35 -2 17 31 70 20 70 -15 0 -22 -98 -85
-133 -85 -44 0 -70 -20 -65 -51 3 -24 24 -26 22 -1 -2 17 23 15 29 -2 3 -8 0
-22 -8 -32 -11 -15 -18 -17 -42 -9 -38 14 -44 64 -12 94 l23 21 -30 0 c-40 0
-86 -30 -108 -72 -17 -31 -18 -40 -7 -66 13 -31 35 -47 52 -36 13 8 11 34 -2
34 -8 0 -8 5 1 15 16 19 29 19 52 -2 25 -22 23 -49 -7 -78 -36 -37 -79 -33
-121 9 -51 51 -46 104 15 169 52 57 117 72 186 42 34 -13 35 -13 25 5 -6 10
-15 22 -20 25 -11 7 -13 48 -3 59 13 12 38 1 48 -22z m-1428 -8 c3 -9 -2 -29
-11 -45 l-17 -29 26 10 c52 20 109 12 154 -20 51 -37 87 -105 77 -145 -10 -41
-62 -85 -99 -85 -35 0 -87 43 -87 72 0 22 42 50 64 42 17 -7 22 -24 6 -24 -16
0 -12 -27 5 -34 23 -8 55 29 55 64 0 42 -68 110 -111 110 l-30 0 20 -26 c26
-33 27 -56 2 -78 -23 -21 -49 -18 -65 6 -8 14 -7 22 7 35 18 17 18 17 15 -2
-3 -25 14 -32 27 -11 16 26 -21 56 -70 56 -26 0 -48 6 -56 16 -7 8 -25 22 -41
30 -36 19 -37 51 -3 60 17 4 32 1 44 -10 22 -20 31 -20 31 -2 0 27 47 35 57
10z m1629 -41 c-3 -8 -6 -20 -6 -26 0 -12 -39 32 -40 44 0 3 12 4 26 1 17 -3
23 -9 20 -19z m200 -14 c66 -63 66 -191 2 -327 -43 -91 -209 -255 -233 -230
-3 3 8 47 25 98 16 50 33 111 37 134 6 37 7 38 14 16 11 -39 10 -139 -2 -161
-10 -19 -9 -20 13 -5 37 24 88 117 95 173 5 43 2 54 -17 73 -21 21 -41 23 -82
5 -15 -6 -18 -2 -18 23 0 17 -3 37 -6 46 -5 13 -2 14 25 5 67 -24 131 14 131
76 0 29 -32 65 -58 65 -23 0 -42 -19 -42 -43 0 -12 -6 -17 -17 -15 -13 2 -19
14 -21 40 -2 28 2 40 20 53 35 25 93 14 134 -26z m-2133 4 c20 -18 23 -63 5
-81 -17 -17 -28 -15 -28 6 0 44 -58 57 -84 20 -22 -31 -20 -60 5 -92 16 -20
29 -26 60 -26 22 0 49 5 60 10 18 10 18 8 12 -37 -7 -59 -8 -60 -31 -40 -10
10 -26 17 -35 17 -23 0 -57 -48 -57 -82 0 -53 89 -198 121 -198 6 0 3 10 -5
22 -22 31 -19 158 3 158 3 0 12 -28 18 -63 7 -35 24 -89 38 -120 32 -73 32
-78 -2 -66 -42 14 -146 111 -188 175 -46 68 -85 174 -85 230 -1 138 114 237
193 167z m97 9 c0 -5 -6 -17 -14 -27 -13 -18 -14 -18 -25 2 -8 16 -8 23 2 26
19 8 37 8 37 -1z m1988 -86 c3 -13 -1 -17 -14 -14 -11 2 -20 11 -22 22 -3 13
1 17 14 14 11 -2 20 -11 22 -22z m-2144 5 c9 -14 -4 -41 -19 -41 -18 0 -26 25
-12 39 13 13 24 14 31 2z m1354 -183 c1 -8 -7 -27 -19 -42 -20 -25 -26 -27
-87 -24 -37 2 -67 8 -69 14 -2 7 5 10 20 7 16 -3 31 3 48 22 64 71 59 68 82
52 12 -8 23 -21 25 -29z m-528 24 c0 -5 14 -23 32 -41 23 -23 38 -31 55 -28
34 6 23 -15 -13 -25 -27 -7 -60 -5 -107 9 -25 7 -40 49 -27 74 10 18 60 28 60
11z m265 -47 l33 -36 -29 -29 c-16 -15 -29 -36 -29 -44 0 -25 -14 -19 -33 14
-10 16 -27 35 -38 40 -18 10 -17 13 18 49 21 21 39 39 41 40 2 0 18 -15 37
-34z m1025 -6 c0 -4 -7 -15 -16 -24 -15 -15 -18 -15 -35 0 -18 17 -16 43 5 57
11 7 46 -18 46 -33z m-2059 0 c9 -17 8 -25 -4 -37 -19 -18 -47 -9 -47 16 0 18
18 42 32 42 4 0 12 -10 19 -21z m940 -85 c22 -24 24 -33 24 -132 0 -59 -3
-115 -7 -124 -6 -16 -10 -16 -38 -2 -37 19 -56 13 -72 -20 -8 -19 -8 -29 1
-40 10 -12 16 -10 37 11 24 24 26 24 45 7 25 -23 24 -38 -6 -69 -30 -29 -45
-31 -84 -10 -47 24 -56 101 -16 140 27 28 62 32 91 10 10 -8 22 -15 27 -15 10
0 9 114 -3 144 -9 25 -10 25 -39 8 -29 -16 -31 -16 -58 4 -36 27 -41 60 -12
90 31 33 78 32 110 -2z m229 6 c53 -53 -4 -130 -70 -96 -37 18 -40 10 -40 -90
l0 -75 22 21 c46 43 111 15 124 -54 11 -63 -48 -122 -99 -99 -27 13 -52 56
-44 77 9 24 54 20 68 -5 10 -19 12 -20 27 -6 13 13 13 21 4 42 -16 35 -39 41
-73 21 -23 -14 -30 -14 -34 -4 -41 123 -31 246 22 277 29 17 72 12 93 -9z
m-170 -240 c-8 -15 -8 -20 3 -20 7 0 13 -8 14 -17 0 -10 4 -53 8 -95 6 -58 5
-81 -5 -93 -10 -12 -16 -13 -26 -4 -11 9 -13 38 -10 128 5 134 3 121 16 121 7
0 7 -6 0 -20z m1146 -69 c-11 -18 -36 -13 -36 7 0 10 3 22 7 26 10 10 37 -20
29 -33z m-2249 3 c8 -21 -13 -42 -28 -27 -13 13 -5 43 11 43 6 0 13 -7 17 -16z
m2476 -99 c1 -5 -6 -11 -15 -13 -11 -2 -18 3 -18 13 0 17 30 18 33 0z m-2710
-20 c1 -5 -6 -11 -15 -13 -11 -2 -18 3 -18 13 0 17 30 18 33 0z m2284 -50 c5
-16 -14 -38 -26 -31 -18 12 -13 48 6 44 9 -2 18 -7 20 -13z m-1850 -11 c8 -21
-13 -42 -28 -27 -13 13 -5 43 11 43 6 0 13 -7 17 -16z m1040 -26 c13 -12 23
-29 23 -37 0 -22 -45 -87 -105 -153 l-50 -54 -54 58 c-29 32 -66 66 -82 75
-15 9 -33 30 -40 45 -10 25 -9 32 11 53 33 35 91 35 119 -1 11 -14 23 -34 26
-45 7 -20 25 -26 25 -8 0 19 41 70 64 79 32 13 38 12 63 -12z m818 -253 c0
-22 -31 -33 -47 -17 -17 17 -1 44 24 40 15 -2 23 -10 23 -23z m-1850 -15 c0
-16 -6 -26 -18 -28 -19 -4 -32 20 -23 44 9 25 41 13 41 -16z m389 -227 c-18
-29 -42 -39 -61 -27 -27 17 -23 56 7 71 22 11 28 10 45 -7 15 -16 17 -24 9
-37z m1101 44 c13 -10 16 -21 11 -40 -9 -37 -61 -39 -78 -2 -20 44 25 72 67
42z m-740 -197 c0 -8 -8 -16 -17 -18 -13 -2 -18 3 -18 18 0 15 5 20 18 18 9
-2 17 -10 17 -18z m351 9 c9 -15 -11 -33 -30 -26 -9 4 -13 13 -10 22 7 17 30
20 40 4z m-182 -65 c20 -52 -10 -142 -35 -103 -12 19 -11 49 2 88 12 34 24 40
33 15z m-74 -101 c0 -20 28 -53 46 -53 7 0 25 16 40 35 30 40 34 41 79 20 53
-26 71 -89 35 -125 -26 -26 -39 -25 -50 5 -7 19 -17 25 -39 25 -16 0 -33 -4
-36 -10 -4 -6 -16 -4 -31 6 -22 15 -26 15 -49 0 -14 -9 -25 -23 -25 -31 0 -19
-10 -19 -38 1 -34 24 -30 78 9 115 35 32 59 37 59 12z m32 -145 c-15 -15 -26
-4 -18 18 5 13 9 15 18 6 9 -9 9 -15 0 -24z m88 7 c0 -8 -7 -15 -15 -15 -8 0
-15 7 -15 15 0 8 7 15 15 15 8 0 15 -7 15 -15z"></path>
<path class="node" id="node4" d="M2272 2263 c-19 -7 -32 -49 -26 -82 l6 -29 32 19 c17 10 42 19 56 19
35 0 53 14 48 36 -2 15 -12 19 -43 19 -22 0 -44 5 -50 11 -5 7 -16 9 -23 7z"></path>
<path class="node" id="node5" d="M717 2243 c-4 -4 -24 -7 -43 -7 -70 -2 -71 -55 -1 -56 16 0 42 -9 57
-20 l29 -21 6 35 c10 51 -22 96 -48 69z"></path>
<path class="node" id="node6" d="M1644 1809 c-9 -15 18 -40 34 -30 15 9 5 41 -13 41 -8 0 -17 -5 -21
-11z"></path>
<path class="node" id="node7" d="M1367 1573 c-15 -14 -7 -43 12 -43 26 0 36 17 21 35 -14 16 -23 19
-33 8z"></path>
<path class="node" id="node8" d="M1624 1565 c-7 -18 3 -35 21 -35 21 0 28 19 15 35 -16 19 -29 19 -36
0z"></path>
<path class="node" id="node9" d="M2300 2400 c0 -5 7 -10 16 -10 8 0 12 5 9 10 -3 6 -10 10 -16 10 -5
0 -9 -4 -9 -10z"></path>
<path class="node" id="node10" d="M2365 2400 c-3 -5 1 -10 9 -10 9 0 16 5 16 10 0 6 -4 10 -9 10 -6 0
-13 -4 -16 -10z"></path>
<path class="node" id="node11" d="M620 2390 c0 -5 7 -10 16 -10 8 0 12 5 9 10 -3 6 -10 10 -16 10 -5 0
-9 -4 -9 -10z"></path>
<path class="node" id="node12" d="M690 2390 c0 -5 5 -10 10 -10 6 0 10 5 10 10 0 6 -4 10 -10 10 -5 0
-10 -4 -10 -10z"></path>
<path class="node" id="node13" d="M2220 2374 c0 -9 5 -14 12 -12 18 6 21 28 4 28 -9 0 -16 -7 -16 -16z"></path>
<path class="node" id="node14" d="M2436 2382 c-3 -6 -1 -14 5 -17 15 -10 25 3 12 16 -7 7 -13 7 -17 1z"></path>
<path class="node" id="node15" d="M760 2366 c0 -9 7 -16 16 -16 17 0 14 22 -4 28 -7 2 -12 -3 -12 -12z"></path>
<path class="node" id="node16" d="M550 2360 c0 -5 7 -10 16 -10 8 0 12 5 9 10 -3 6 -10 10 -16 10 -5 0
-9 -4 -9 -10z"></path>
<path class="node" id="node17" d="M2157 2353 c-12 -11 -8 -23 8 -23 8 0 15 7 15 15 0 16 -12 20 -23 8z"></path>
<path class="node" id="node18" d="M832 2338 c6 -18 28 -21 28 -4 0 9 -7 16 -16 16 -9 0 -14 -5 -12 -12z"></path>
<path class="node" id="node19" d="M2490 2330 c0 -5 5 -10 10 -10 6 0 10 5 10 10 0 6 -4 10 -10 10 -5 0
-10 -4 -10 -10z"></path>
<path class="node" id="node20" d="M500 2320 c0 -5 5 -10 10 -10 6 0 10 5 10 10 0 6 -4 10 -10 10 -5 0
-10 -4 -10 -10z"></path>
<path class="node" id="node21" d="M2540 2315 c0 -9 5 -15 11 -13 6 2 11 8 11 13 0 5 -5 11 -11 13 -6 2
-11 -4 -11 -13z"></path>
<path class="node" id="node22" d="M2102 2311 c2 -7 7 -12 11 -12 12 1 9 15 -3 20 -7 2 -11 -2 -8 -8z"></path>
<path class="node" id="node23" d="M885 2300 c-3 -5 1 -10 9 -10 9 0 16 5 16 10 0 6 -4 10 -9 10 -6 0
-13 -4 -16 -10z"></path>
<path class="node" id="node24" d="M2730 2245 c-7 -8 -20 -14 -29 -13 -12 2 -17 -8 -21 -44 -5 -36 -3
-48 7 -48 8 0 24 -7 37 -15 40 -27 76 3 39 31 -17 12 -17 14 5 29 16 12 22 25
20 43 -4 32 -38 42 -58 17z"></path>
<path class="node" id="node25" d="M227 2233 c-13 -12 -7 -37 16 -61 15 -17 18 -26 10 -29 -14 -5 -18
-39 -5 -47 4 -2 25 4 48 14 38 18 40 21 40 62 -1 31 -5 43 -16 43 -8 1 -25 6
-37 13 -24 13 -46 15 -56 5z"></path>
<path class="node" id="node26" d="M2586 2232 c-3 -5 -4 -41 -3 -80 2 -63 4 -72 20 -72 11 0 32 -9 48
-21 37 -26 73 -22 77 9 5 33 -15 52 -54 52 -37 0 -40 6 -22 45 16 35 -3 75
-36 75 -14 0 -27 -4 -30 -8z"></path>
<path class="node" id="node27" d="M365 2206 c-16 -24 -12 -70 6 -82 19 -12 7 -22 -25 -21 -60 2 -90
-49 -44 -74 18 -10 29 -8 62 9 23 11 49 23 59 26 14 5 15 9 6 24 -9 15 -9 30
-1 63 9 37 8 46 -5 61 -22 24 -40 23 -58 -6z"></path>
<path class="node" id="node28" d="M1525 1959 c-4 -6 -5 -12 -2 -15 2 -3 7 2 10 11 7 17 1 20 -8 4z"></path>
<path class="node" id="node29" d="M2750 1950 c0 -5 7 -10 15 -10 8 0 15 5 15 10 0 6 -7 10 -15 10 -8 0
-15 -4 -15 -10z"></path>
<path class="node" id="node30" d="M240 1930 c0 -5 5 -10 10 -10 6 0 10 5 10 10 0 6 -4 10 -10 10 -5 0
-10 -4 -10 -10z"></path>
<path class="node" id="node31" d="M2790 1885 c0 -9 5 -15 11 -13 6 2 11 8 11 13 0 5 -5 11 -11 13 -6 2
-11 -4 -11 -13z"></path>
<path class="node" id="node32" d="M200 1865 c0 -8 7 -15 15 -15 8 0 15 7 15 15 0 8 -7 15 -15 15 -8 0
-15 -7 -15 -15z"></path>
<path class="node" id="node33" d="M2800 1810 c0 -13 5 -20 13 -17 6 2 12 10 12 17 0 7 -6 15 -12 18 -8
2 -13 -5 -13 -18z"></path>
<path class="node" id="node34" d="M195 1800 c-7 -12 2 -30 16 -30 5 0 9 9 9 20 0 21 -15 27 -25 10z"></path>
<path class="node" id="node35" d="M2795 1719 c-10 -15 1 -23 20 -15 9 3 13 10 10 16 -8 13 -22 13 -30
-1z"></path>
<path class="node" id="node36" d="M200 1696 c0 -9 7 -16 16 -16 17 0 14 22 -4 28 -7 2 -12 -3 -12 -12z"></path>
<path class="node" id="node37" d="M2885 1676 c-8 -19 -15 -43 -15 -51 0 -21 -19 -57 -39 -72 -14 -11
-13 -12 5 -13 27 0 102 73 111 108 7 29 -7 56 -31 60 -11 2 -21 -8 -31 -32z"></path>
<path class="node" id="node38" d="M84 1663 c-9 -35 21 -90 65 -120 45 -31 56 -29 32 5 -10 15 -22 45
-26 67 -12 69 -58 100 -71 48z"></path>
<path class="node" id="node39" d="M2767 1649 c-11 -7 -17 -22 -17 -46 0 -21 -11 -55 -25 -80 l-26 -43
25 0 c13 0 37 -10 53 -23 38 -32 61 -39 84 -27 24 14 24 31 -2 64 -14 17 -30
26 -50 26 -16 0 -29 2 -29 5 0 2 11 20 24 40 26 38 25 70 -3 84 -10 6 -24 5
-34 0z"></path>
<path class="node" id="node40" d="M217 1629 c-23 -14 -22 -60 4 -93 22 -28 23 -25 -25 -40 -21 -7 -49
-53 -42 -71 9 -25 58 -17 96 15 19 17 42 30 52 30 15 0 14 5 -7 43 -14 23 -25
56 -25 74 0 37 -25 57 -53 42z"></path>
<path class="node" id="node41" d="M2527 1332 c-23 -5 -18 -36 6 -40 19 -4 35 25 21 37 -5 4 -17 6 -27
3z"></path>
<path class="node" id="node42" d="M464 1309 c-3 -6 0 -17 8 -25 12 -12 17 -12 32 -1 11 8 16 19 12 25
-9 15 -43 15 -52 1z"></path>
<path class="node" id="node43" d="M2820 1261 c0 -6 5 -13 10 -16 6 -3 10 1 10 9 0 9 -4 16 -10 16 -5 0
-10 -4 -10 -9z"></path>
<path class="node" id="node44" d="M2885 1260 c3 -5 8 -10 11 -10 2 0 4 5 4 10 0 6 -5 10 -11 10 -5 0
-7 -4 -4 -10z"></path>
<path class="node" id="node45" d="M130 1250 c0 -5 5 -10 11 -10 5 0 7 5 4 10 -3 6 -8 10 -11 10 -2 0
-4 -4 -4 -10z"></path>
<path class="node" id="node46" d="M190 1234 c0 -8 5 -12 10 -9 6 3 10 10 10 16 0 5 -4 9 -10 9 -5 0
-10 -7 -10 -16z"></path>
<path class="node" id="node47" d="M2785 1221 c-3 -5 -1 -12 5 -16 5 -3 10 1 10 9 0 18 -6 21 -15 7z"></path>
<path class="node" id="node48" d="M2940 1220 c0 -5 5 -10 10 -10 6 0 10 5 10 10 0 6 -4 10 -10 10 -5 0
-10 -4 -10 -10z"></path>
<path class="node" id="node49" d="M230 1195 c0 -8 5 -15 10 -15 6 0 10 7 10 15 0 8 -4 15 -10 15 -5 0
-10 -7 -10 -15z"></path>
<path class="node" id="node50" d="M2780 1160 c0 -5 5 -10 10 -10 6 0 10 5 10 10 0 6 -4 10 -10 10 -5 0
-10 -4 -10 -10z"></path>
<path class="node" id="node51" d="M2960 1150 c0 -5 7 -10 16 -10 8 0 12 5 9 10 -3 6 -10 10 -16 10 -5
0 -9 -4 -9 -10z"></path>
<path class="node" id="node52" d="M230 1140 c0 -5 5 -10 10 -10 6 0 10 5 10 10 0 6 -4 10 -10 10 -5 0
-10 -4 -10 -10z"></path>
<path class="node" id="node53" d="M2740 1099 c0 -5 5 -7 10 -4 6 3 10 8 10 11 0 2 -4 4 -10 4 -5 0 -10
-5 -10 -11z"></path>
<path class="node" id="node54" d="M2118 1011 c-48 -49 -88 -93 -88 -98 0 -6 21 -8 49 -5 32 3 70 -2
108 -14 75 -24 122 -23 155 1 34 25 41 45 29 78 -17 44 -120 58 -183 25 -10
-5 -18 -5 -18 0 0 5 11 14 24 20 29 13 60 57 51 72 -14 23 -44 5 -127 -79z
m200 -59 c6 -38 -32 -46 -117 -24 -80 21 -80 25 0 45 67 18 113 9 117 -21z"></path>
<path class="node" id="node55" d="M275 1080 c3 -5 8 -10 11 -10 2 0 4 5 4 10 0 6 -5 10 -11 10 -5 0 -7
-4 -4 -10z"></path>
<path class="node" id="node56" d="M783 1073 c-6 -16 3 -26 69 -75 l23 -18 -30 11 c-48 17 -144 13 -166
-7 -25 -22 -24 -69 1 -94 25 -25 108 -27 177 -4 29 10 67 15 100 12 29 -3 53
-1 53 3 0 4 -35 43 -77 87 -97 100 -136 122 -150 85z m87 -120 l35 -15 -75
-19 c-82 -21 -124 -15 -118 18 8 42 78 49 158 16z"></path>
<path class="node" id="node57" d="M2294 1075 c-7 -18 12 -45 32 -45 20 0 36 34 22 48 -17 17 -48 15
-54 -3z"></path>
<path class="node" id="node58" d="M687 1073 c-12 -11 -7 -41 7 -46 21 -8 48 16 40 36 -6 17 -35 23 -47
10z"></path>
<path class="node" id="node59" d="M2930 1070 c0 -5 5 -10 10 -10 6 0 10 5 10 10 0 6 -4 10 -10 10 -5 0
-10 -4 -10 -10z"></path>
<path class="node" id="node60" d="M80 1044 c0 -8 5 -12 10 -9 6 3 10 10 10 16 0 5 -4 9 -10 9 -5 0 -10
-7 -10 -16z"></path>
<path class="node" id="node61" d="M2780 1050 c0 -5 5 -10 10 -10 6 0 10 5 10 10 0 6 -4 10 -10 10 -5 0
-10 -4 -10 -10z"></path>
<path class="node" id="node62" d="M2850 1040 c0 -5 7 -10 16 -10 8 0 12 5 9 10 -3 6 -10 10 -16 10 -5
0 -9 -4 -9 -10z"></path>
<path class="node" id="node63" d="M230 1030 c0 -5 5 -10 10 -10 6 0 10 5 10 10 0 6 -4 10 -10 10 -5 0
-10 -4 -10 -10z"></path>
<path class="node" id="node64" d="M150 1020 c0 -5 5 -10 10 -10 6 0 10 5 10 10 0 6 -4 10 -10 10 -5 0
-10 -4 -10 -10z"></path>
<path class="node" id="node65" d="M1010 926 c0 -2 8 -10 18 -17 15 -13 16 -12 3 4 -13 16 -21 21 -21
13z"></path>
<path class="node" id="node66" d="M2040 720 c0 -5 5 -10 10 -10 6 0 10 5 10 10 0 6 -4 10 -10 10 -5 0
-10 -4 -10 -10z"></path>
<path class="node" id="node67" d="M975 710 c4 -6 11 -8 16 -5 14 9 11 15 -7 15 -8 0 -12 -5 -9 -10z"></path>
<path class="node" id="node68" d="M1035 710 c-3 -5 1 -10 10 -10 9 0 13 5 10 10 -3 6 -8 10 -10 10 -2
0 -7 -4 -10 -10z"></path>
<path class="node" id="node69" d="M1980 710 c0 -5 5 -10 10 -10 6 0 10 5 10 10 0 6 -4 10 -10 10 -5 0
-10 -4 -10 -10z"></path>
<path class="node" id="node70" d="M2110 700 c0 -5 5 -10 10 -10 6 0 10 5 10 10 0 6 -4 10 -10 10 -5 0
-10 -4 -10 -10z"></path>
<path class="node" id="node71" d="M910 690 c0 -5 5 -10 10 -10 6 0 10 5 10 10 0 6 -4 10 -10 10 -5 0
-10 -4 -10 -10z"></path>
<path class="node" id="node72" d="M1906 681 c-4 -5 -2 -12 3 -15 5 -4 12 -2 15 3 4 5 2 12 -3 15 -5 4
-12 2 -15 -3z"></path>
<path class="node" id="node73" d="M1110 670 c0 -5 7 -10 16 -10 8 0 12 5 9 10 -3 6 -10 10 -16 10 -5 0
-9 -4 -9 -10z"></path>
<path class="node" id="node74" d="M1156 621 c-4 -5 -2 -12 3 -15 5 -4 12 -2 15 3 4 5 2 12 -3 15 -5 4
-12 2 -15 -3z"></path>
<path class="node" id="node75" d="M1860 620 c0 -5 5 -10 10 -10 6 0 10 5 10 10 0 6 -4 10 -10 10 -5 0
-10 -4 -10 -10z"></path>
<path class="node" id="node76" d="M2465 615 c-16 -8 -45 -14 -62 -15 -31 0 -33 -2 -33 -37 -1 -21 -7
-49 -15 -63 -30 -52 -9 -119 33 -106 13 4 22 16 22 27 0 27 12 23 32 -10 9
-16 28 -37 42 -46 24 -16 28 -16 51 -1 43 28 33 98 -23 159 l-26 27 30 0 c36
1 64 21 64 48 0 34 -58 43 -115 17z m11 -99 c45 -45 45 -97 1 -80 -13 4 -57
89 -57 108 0 15 25 3 56 -28z"></path>
<path class="node" id="node77" d="M478 609 c-40 -23 -14 -69 39 -69 37 0 42 -9 15 -27 -25 -15 -52 -73
-52 -110 0 -31 26 -63 51 -63 24 0 60 31 74 64 l13 31 12 -27 c7 -15 20 -30
29 -33 36 -14 54 65 26 115 -8 14 -14 40 -15 58 0 24 -5 32 -17 32 -10 0 -45
9 -77 20 -67 23 -74 23 -98 9z m136 -96 c-16 -68 -53 -108 -76 -85 -15 15 7
67 40 92 34 27 44 25 36 -7z"></path>
<path class="node" id="node78" d="M1170 550 c0 -5 5 -10 10 -10 6 0 10 5 10 10 0 6 -4 10 -10 10 -5 0
-10 -4 -10 -10z"></path>
<path class="node" id="node79" d="M1845 550 c3 -5 10 -10 16 -10 5 0 9 5 9 10 0 6 -7 10 -16 10 -8 0
-12 -4 -9 -10z"></path>
<path class="node" id="node80" d="M1847 494 c-8 -8 1 -24 14 -24 5 0 9 7 9 15 0 15 -12 20 -23 9z"></path>
<path class="node" id="node81" d="M1170 480 c0 -5 7 -10 15 -10 8 0 15 5 15 10 0 6 -7 10 -15 10 -8 0
-15 -4 -15 -10z"></path>
<path class="node" id="node82" d="M1459 441 c-9 -9 -29 -26 -44 -39 -26 -21 -27 -24 -12 -40 15 -15 18
-14 41 7 13 12 27 36 30 53 7 37 6 39 -15 19z"></path>
<path class="node" id="node83" d="M1560 446 c0 -22 32 -76 50 -86 29 -15 45 6 27 33 -13 19 -77 63 -77
53z"></path>
<path class="node" id="node84" d="M1866 422 c-3 -6 -1 -14 5 -17 15 -10 25 3 12 16 -7 7 -13 7 -17 1z"></path>
<path class="node" id="node85" d="M1150 410 c0 -5 7 -10 15 -10 8 0 15 5 15 10 0 6 -7 10 -15 10 -8 0
-15 -4 -15 -10z"></path>
<path class="node" id="node86" d="M2296 383 c-11 -11 -6 -23 9 -23 8 0 15 4 15 9 0 13 -16 22 -24 14z"></path>
<path class="node" id="node87" d="M730 360 c0 -5 5 -10 10 -10 6 0 10 5 10 10 0 6 -4 10 -10 10 -5 0
-10 -4 -10 -10z"></path>
<path class="node" id="node88" d="M1106 343 c-11 -11 -6 -23 9 -23 8 0 15 4 15 9 0 13 -16 22 -24 14z"></path>
<path class="node" id="node89" d="M1920 335 c0 -8 5 -15 10 -15 6 0 10 7 10 15 0 8 -4 15 -10 15 -5 0
-10 -7 -10 -15z"></path>
<path class="node" id="node90" d="M2230 320 c0 -5 7 -10 15 -10 8 0 15 5 15 10 0 6 -7 10 -15 10 -8 0
-15 -4 -15 -10z"></path>
<path class="node" id="node91" d="M780 310 c0 -5 7 -10 15 -10 8 0 15 5 15 10 0 6 -7 10 -15 10 -8 0
-15 -4 -15 -10z"></path>
<path class="node" id="node92" d="M1036 301 c-4 -5 -2 -12 3 -15 5 -4 12 -2 15 3 4 5 2 12 -3 15 -5 4
-12 2 -15 -3z"></path>
<path class="node" id="node93" d="M1990 300 c0 -5 5 -10 10 -10 6 0 10 5 10 10 0 6 -4 10 -10 10 -5 0
-10 -4 -10 -10z"></path>
<path class="node" id="node94" d="M2156 302 c-3 -6 -1 -14 5 -17 15 -10 25 3 12 16 -7 7 -13 7 -17 1z"></path>
<path class="node" id="node95" d="M867 293 c-12 -11 -8 -23 8 -23 8 0 15 7 15 15 0 16 -12 20 -23 8z"></path>
<path class="node" id="node96" d="M2070 286 c0 -9 5 -16 10 -16 6 0 10 4 10 9 0 6 -4 13 -10 16 -5 3
-10 -1 -10 -9z"></path>
<path class="node" id="node97" d="M952 279 c2 -6 8 -10 13 -10 5 0 11 4 13 10 2 6 -4 11 -13 11 -9 0
-15 -5 -13 -11z"></path>
</g>
<g transform="translate(0.000000,260.000000) scale(0.100000,-0.100000)" fill="#A1A1A0" stroke="none">

<path class="node" id="node99" d="M2554 2405 c-7 -18 3 -35 21 -35 21 0 28 19 15 35 -16 19 -29 19 -36
0z"></path>
<path class="node" id="node100" d="M416 2391 c-10 -16 6 -42 23 -39 9 2 17 13 19 26 3 16 -2 22 -17 22
-11 0 -22 -4 -25 -9z"></path>
<path class="node" id="node101" d="M1170 2305 c-10 -12 -9 -16 5 -21 19 -8 40 9 31 25 -10 15 -21 14
-36 -4z"></path>
<path class="node" id="node102" d="M1810 2300 c0 -11 6 -20 13 -20 19 0 27 10 20 26 -8 21 -33 17 -33
-6z"></path>


<path class="node" id="node105" d="M1932 2228 c-18 -18 -15 -28 8 -28 21 0 25 7 12 27 -6 10 -11 10 -20
1z"></path>
<path class="node" id="node106" d="M1057 2223 c-13 -12 -7 -23 13 -23 13 0 18 5 14 15 -7 16 -17 19 -27
8z"></path>
<path class="node" id="node107" d="M1270 2173 c-43 -8 -44 -21 -4 -41 22 -11 49 -30 62 -42 21 -19 27
-21 53 -10 26 11 32 10 44 -6 14 -18 14 -18 15 7 0 31 -31 66 -76 85 -34 14
-48 15 -94 7z"></path>
<path class="node" id="node108" d="M1634 2160 c-39 -20 -64 -53 -64 -85 0 -20 10 -19 25 2 11 15 16 16
38 4 22 -12 28 -10 70 22 26 20 56 38 67 42 31 10 24 22 -17 29 -59 9 -75 7
-119 -14z"></path>
<path class="node" id="node109" d="M1798 2041 c-15 -12 -30 -30 -33 -41 -9 -28 12 -60 40 -60 30 0 43
20 21 32 -22 12 -11 28 19 28 45 0 59 -62 25 -117 -20 -34 -38 -46 -83 -57
l-28 -7 21 21 c25 25 26 62 2 83 -27 24 -51 21 -64 -9 -10 -20 -9 -27 2 -34 8
-5 18 -6 23 -3 5 3 4 9 -3 13 -7 4 -9 13 -5 19 10 16 35 -5 35 -30 0 -28 -39
-49 -91 -49 -50 0 -73 -16 -67 -47 2 -11 14 -19 31 -21 15 -2 27 -9 27 -16 0
-17 -29 -43 -55 -49 -11 -2 1 -5 26 -6 40 -1 49 3 64 25 12 19 15 36 10 61 -6
32 -4 35 12 28 69 -27 126 -6 181 64 42 56 44 108 5 151 -37 40 -80 48 -115
21z m-114 -238 c4 -9 1 -20 -6 -24 -16 -10 -43 15 -34 30 11 16 33 13 40 -6z"></path>
<path class="node" id="node110" d="M1117 2030 c-38 -30 -51 -84 -30 -128 21 -43 79 -101 110 -108 25 -7
74 -1 106 11 15 7 16 4 7 -21 -13 -34 4 -82 32 -93 26 -9 88 -1 88 11 0 6 -10
8 -22 5 -26 -7 -58 17 -58 44 0 10 -4 21 -10 24 -16 10 -12 32 7 39 25 10 40
-10 25 -34 -14 -23 2 -37 23 -20 20 16 19 56 -1 64 -9 3 -37 6 -64 6 -54 0
-83 20 -78 53 4 28 28 34 28 7 0 -24 23 -23 28 2 4 22 -25 48 -46 41 -48 -17
-59 -70 -19 -99 22 -16 22 -16 -13 -10 -49 8 -100 65 -100 109 0 38 30 73 55
64 17 -7 20 -23 5 -32 -19 -12 -10 -25 18 -25 53 0 67 38 31 84 -26 33 -84 36
-122 6z"></path>
<path class="node" id="node111" d="M2197 2034 c-10 -11 -8 -52 3 -59 5 -3 14 -15 20 -25 10 -18 9 -18
-25 -5 -69 30 -134 15 -186 -42 -61 -65 -66 -118 -15 -169 42 -42 85 -46 121
-9 30 29 32 56 7 78 -23 21 -36 21 -52 2 -9 -10 -9 -15 -1 -15 13 0 15 -26 2
-34 -17 -11 -39 5 -52 36 -11 26 -10 35 7 66 22 42 68 72 108 72 l30 0 -23
-21 c-32 -30 -26 -80 12 -94 24 -8 31 -6 42 9 8 10 11 24 8 32 -6 17 -31 19
-29 2 2 -25 -19 -23 -22 1 -5 31 21 51 65 51 35 0 133 63 133 85 0 35 -53 46
-70 15 -14 -26 -23 -25 -35 2 -10 23 -35 34 -48 22z"></path>
<path stroke-width="20" class="node" id="node112" d="M773 2013 c-7 -2 -13 -11 -13 -19 0 -18 -9 -18 -31 2 -12 11 -27 14
-44 10 -34 -9 -33 -41 3 -60 16 -8 34 -22 41 -30 8 -10 30 -16 56 -16 49 0 86
-30 70 -56 -13 -21 -30 -14 -27 11 3 19 3 19 -15 2 -36 -35 20 -75 58 -41 25
22 24 45 -2 78 l-20 26 30 0 c43 0 111 -68 111 -110 0 -35 -32 -72 -55 -64
-17 7 -21 34 -5 34 16 0 11 17 -6 24 -22 8 -64 -20 -64 -42 0 -29 52 -72 87
-72 37 0 89 44 99 85 10 40 -26 108 -77 145 -45 32 -102 40 -154 20 l-26 -10
17 29 c26 43 8 71 -33 54z"></path>
<path class="node" id="node113" d="M2400 1981 c1 -12 40 -56 40 -44 0 6 3 18 6 26 3 10 -3 16 -20 19
-14 3 -26 2 -26 -1z"></path>


<path class="node" id="node116" d="M573 1963 c-10 -3 -10 -10 -2 -26 11 -20 12 -20 25 -2 23 31 13 43
-23 28z"></path>
<path class="node" id="node117" d="M2562 1884 c2 -11 11 -20 22 -22 13 -3 17 1 14 14 -2 11 -11 20 -22
22 -13 3 -17 -1 -14 -14z"></path>
<path class="node" id="node118" d="M423 1879 c-14 -14 -6 -39 12 -39 15 0 28 27 19 41 -7 12 -18 11 -31
-2z"></path>
<path class="node" id="node119" d="M1743 1722 c-10 -11 -29 -32 -42 -47 -17 -19 -32 -25 -48 -22 -15 3
-22 0 -20 -7 2 -6 32 -12 69 -14 61 -3 67 -1 87 24 26 33 24 51 -6 71 -19 13
-23 12 -40 -5z"></path>
<path class="node" id="node120" d="M1220 1711 c-13 -25 2 -67 27 -74 47 -14 80 -16 107 -9 36 10 47 31
13 25 -17 -3 -32 5 -55 28 -18 18 -32 36 -32 41 0 17 -50 7 -60 -11z"></path>
<path class="node" id="node121" d="M1467 1669 c-35 -36 -36 -39 -18 -49 11 -5 28 -24 38 -40 19 -33 33
-39 33 -14 0 8 13 29 29 44 l29 29 -33 36 c-19 19 -35 34 -37 34 -2 -1 -20
-19 -41 -40z"></path>
<path class="node" id="node122" d="M2524 1702 c-21 -14 -23 -40 -5 -57 17 -15 20 -15 35 0 9 9 16 20 16
24 0 15 -35 40 -46 33z"></path>
<path class="node" id="node123" d="M472 1678 c-17 -17 -15 -48 4 -55 8 -3 22 1 31 9 12 12 13 20 4 37
-13 24 -22 26 -39 9z"></path>
<path class="node" id="node124" d="M1341 1586 c-29 -30 -24 -63 12 -90 27 -20 29 -20 58 -4 29 17 30 17
39 -8 12 -30 13 -144 3 -144 -5 0 -17 7 -27 15 -29 22 -64 18 -91 -10 -40 -39
-31 -116 16 -140 39 -21 54 -19 84 10 30 31 31 46 6 69 -19 17 -21 17 -45 -7
-21 -21 -27 -23 -37 -11 -9 11 -9 21 -1 40 16 33 35 39 72 20 28 -14 32 -14
38 2 4 9 7 65 7 124 0 99 -2 108 -24 132 -32 34 -79 35 -110 2z m59 -21 c15
-18 5 -35 -21 -35 -12 0 -19 7 -19 18 0 33 20 42 40 17z"></path>
<path class="node" id="node125" d="M1587 1599 c-53 -31 -63 -154 -22 -277 4 -10 11 -10 34 4 34 20 57
14 73 -21 9 -21 9 -29 -4 -42 -15 -14 -17 -13 -27 6 -14 25 -59 29 -68 5 -8
-21 17 -64 44 -77 51 -23 110 36 99 99 -13 69 -78 97 -124 54 l-22 -21 0 75
c0 100 3 108 40 90 66 -34 123 43 70 96 -21 21 -64 26 -93 9z m73 -34 c13 -16
6 -35 -15 -35 -18 0 -28 17 -21 35 7 19 20 19 36 0z"></path>
<path class="node" id="node126" d="M1499 1368 c0 -2 -3 -55 -5 -119 -3 -90 -1 -119 10 -128 10 -9 16 -8
26 4 10 12 11 35 5 93 -4 42 -8 85 -8 95 -1 9 -7 17 -14 17 -11 0 -11 5 -3 20
7 14 7 20 0 20 -5 0 -10 -1 -11 -2z"></path>
<path class="node" id="node127" d="M2627 1314 c-4 -4 -7 -16 -7 -26 0 -20 25 -25 36 -7 8 13 -19 43 -29
33z"></path>
<path class="node" id="node128" d="M373 1284 c-8 -21 13 -42 28 -27 13 13 5 43 -11 43 -6 0 -13 -7 -17
-16z"></path>
<path class="node" id="node129" d="M2850 1185 c0 -10 7 -15 18 -13 21 4 19 22 -2 26 -10 2 -16 -3 -16
-13z"></path>
<path class="node" id="node130" d="M140 1165 c0 -10 7 -15 18 -13 21 4 19 22 -2 26 -10 2 -16 -3 -16
-13z"></path>
<path class="node" id="node131" d="M2420 1111 c0 -25 19 -38 31 -20 12 19 6 33 -14 37 -11 2 -17 -3 -17
-17z"></path>
<path class="node" id="node132" d="M573 1104 c-8 -21 13 -42 28 -27 13 13 5 43 -11 43 -6 0 -13 -7 -17
-16z"></path>
<path class="node" id="node133" d="M1584 1090 c-23 -9 -64 -60 -64 -79 0 -18 -18 -12 -25 8 -3 11 -15
31 -26 45 -28 36 -86 36 -119 1 -20 -21 -21 -28 -11 -53 7 -15 25 -36 40 -45
16 -9 53 -43 82 -75 l54 -58 50 54 c60 66 105 131 105 153 0 17 -40 59 -56 58
-5 0 -19 -4 -30 -9z"></path>
<path class="node" id="node134" d="M2414 835 c-4 -9 -2 -21 4 -27 16 -16 47 -5 47 17 0 26 -42 34 -51
10z"></path>
<path class="node" id="node135" d="M574 826 c-9 -24 4 -48 23 -44 12 2 18 12 18 28 0 29 -32 41 -41 16z"></path>
<path class="node" id="node136" d="M950 627 c-30 -15 -34 -54 -7 -71 19 -12 43 -2 61 27 8 13 6 21 -9
37 -17 17 -23 18 -45 7z"></path>
<path class="node" id="node137" d="M2040 625 c-21 -26 3 -65 40 -65 24 0 31 5 36 27 11 43 -47 72 -76
38z"></path>
<path class="node" id="node138" d="M1330 430 c0 -15 5 -20 18 -18 9 2 17 10 17 18 0 8 -8 16 -17 18 -13
2 -18 -3 -18 -18z"></path>
<path class="node" id="node139" d="M1676 435 c-3 -9 1 -18 10 -22 19 -7 39 11 30 26 -10 16 -33 13 -40
-4z"></path>
<path class="node" id="node140" d="M1501 359 c-13 -39 -14 -69 -2 -88 16 -25 41 6 41 49 0 72 -20 92
-39 39z"></path>
<path class="node" id="node141" d="M1401 261 c-39 -37 -43 -91 -9 -115 28 -20 38 -20 38 -1 0 8 11 22
25 31 23 15 27 15 49 0 15 -10 27 -12 31 -6 3 6 20 10 36 10 22 0 32 -6 39
-25 11 -30 24 -31 50 -5 36 36 18 99 -35 125 -45 21 -49 20 -79 -20 -15 -19
-33 -35 -40 -35 -18 0 -46 33 -46 53 0 25 -24 20 -59 -12z"></path>
<path class="node" id="node142" d="M1474 146 c-8 -22 3 -33 18 -18 9 9 9 15 0 24 -9 9 -13 7 -18 -6z"></path>
<path class="node" id="node143" d="M1550 135 c0 -8 7 -15 15 -15 8 0 15 7 15 15 0 8 -7 15 -15 15 -8 0
-15 -7 -15 -15z"></path>
<path class="node" id="node144" d="M2201 973 c-80 -20 -80 -24 0 -45 85 -22 123 -14 117 24 -4 30 -50
39 -117 21z"></path>
<path class="node" id="node145" d="M740 967 c-33 -17 -37 -44 -8 -57 17 -8 41 -6 98 9 l75 19 -35 15
c-55 23 -102 28 -130 14z"></path>
<path class="node" id="node146" d="M2420 544 c0 -19 44 -104 57 -108 44 -17 44 35 -1 80 -31 31 -56 43
-56 28z"></path>
<path class="node" id="node147" d="M578 520 c-33 -25 -55 -77 -40 -92 23 -23 60 17 76 85 8 32 -2 34
-36 7z"></path>
</g>
</svg>