<!--?xml version="1.0" standalone="no"?-->

<svg version="1.0" xmlns="http://www.w3.org/2000/svg" width="288.000000pt" height="300.000000pt" viewBox="0 0 288.000000 300.000000" preserveAspectRatio="xMidYMid meet">
<g transform="translate(0.000000,300.000000) scale(0.100000,-0.100000)" fill="#383838" stroke="none">
<path d="M1565 2936 c-44 -20 -75 -58 -82 -101 l-6 -37 33 17 c22 11 57 17
111 17 76 0 79 1 79 24 0 42 -18 71 -51 83 -40 14 -47 13 -84 -3z" id="node1" class="node" stroke-width="20"></path>
<path d="M2012 2908 c-5 -7 -12 -22 -14 -32 -2 -16 7 -22 52 -33 30 -8 60 -19
67 -24 20 -17 25 9 8 45 -23 48 -88 73 -113 44z" id="node2" class="node" stroke-width="20"></path>
<path d="M1935 2742 c-22 -15 -51 -44 -64 -64 l-24 -37 -41 29 c-92 66 -218
61 -301 -12 -109 -96 -134 -244 -59 -358 29 -44 32 -54 22 -75 -15 -33 -20
-32 -43 11 -27 51 -127 140 -196 174 -32 17 -94 42 -136 57 -71 24 -92 27
-233 27 -145 1 -160 -1 -235 -28 -89 -31 -173 -74 -219 -112 -236 -194 -376
-473 -376 -752 0 -65 25 -222 39 -250 5 -9 17 -37 26 -62 56 -153 236 -357
420 -476 109 -70 300 -161 385 -184 25 -7 50 -15 55 -19 6 -5 46 -23 90 -41
177 -72 321 -158 398 -236 39 -39 63 -80 81 -136 11 -37 51 -21 95 36 48 65
137 143 299 264 375 279 605 487 723 652 236 329 274 734 96 1035 -91 155
-266 278 -472 332 l-70 18 0 56 c-1 140 -150 226 -260 151z m172 -30 c39 -27
63 -78 63 -131 0 -46 -3 -47 -108 -34 -44 5 -52 9 -47 24 7 21 -12 36 -27 21
-8 -8 -8 -15 1 -25 9 -12 3 -15 -36 -20 -27 -3 -54 -1 -60 5 -32 26 -4 109 53
157 34 28 45 32 85 28 26 -2 60 -13 76 -25z m-366 -42 c46 -13 114 -85 128
-136 25 -90 5 -178 -53 -238 -52 -53 -82 -66 -154 -66 -98 0 -170 62 -193 165
-40 179 102 322 272 275z m454 -175 c244 -39 430 -168 532 -369 139 -273 95
-630 -114 -925 -64 -91 -185 -214 -328 -334 -66 -56 -122 -104 -125 -107 -3
-4 -97 -76 -210 -160 -228 -169 -264 -200 -332 -277 l-47 -54 -15 35 c-21 50
-95 126 -174 179 -77 51 -230 130 -306 157 -107 38 -142 51 -161 60 -11 5 -45
19 -75 30 -320 122 -591 365 -692 620 -14 36 -34 115 -44 176 l-17 110 26 126
c42 207 121 362 250 491 211 211 531 275 792 157 131 -59 262 -189 288 -287 6
-23 14 -43 18 -43 4 0 10 21 14 46 10 66 25 96 44 88 127 -54 218 -48 300 22
46 39 83 124 89 206 l5 68 96 0 c53 0 137 -7 186 -15z" id="node3" class="node" stroke-width="20"></path>
<path d="M1612 2478 c-16 -16 -15 -33 4 -48 22 -19 54 12 38 37 -14 22 -27 26
-42 11z" id="node4" class="node" stroke-width="20"></path>
<path d="M2221 2341 c-24 -44 -44 -83 -44 -88 0 -4 24 -21 55 -38 30 -16 74
-44 97 -62 l43 -32 67 49 c126 94 118 85 96 110 -48 53 -206 140 -254 140 -10
0 -33 -31 -60 -79z m153 28 c63 -30 146 -92 146 -109 0 -5 -24 -25 -52 -46
-29 -21 -59 -44 -66 -51 -18 -17 -27 -16 -43 3 -7 8 -46 34 -86 56 l-72 40 36
69 c24 46 42 69 54 69 10 0 47 -14 83 -31z" id="node5" class="node" stroke-width="20"></path>
<path d="M2530 2121 c-91 -52 -96 -62 -59 -110 11 -13 28 -44 39 -68 l19 -43
95 0 c52 0 97 4 100 8 16 26 -70 249 -99 259 -6 1 -48 -19 -95 -46z m105 6
c20 -32 63 -142 71 -183 l6 -34 -83 0 -84 1 -18 39 c-10 21 -30 56 -44 77 -14
20 -21 39 -17 40 5 2 38 21 74 42 36 22 68 40 72 40 4 1 14 -10 23 -22z" id="node6" class="node" stroke-width="20"></path>
<path d="M1003 2119 c-73 -33 -124 -119 -123 -206 1 -26 2 -25 16 12 8 22 18
48 21 58 3 9 8 17 11 17 2 0 37 -28 76 -63 39 -35 99 -83 133 -107 l61 -43
-15 -46 c-97 -299 -94 -559 8 -707 107 -156 342 -195 681 -114 l46 11 1 207
c1 216 14 320 52 439 11 34 25 66 32 71 7 5 41 17 77 27 73 19 210 74 210 84
0 12 -159 165 -166 159 -3 -4 17 -35 45 -70 28 -34 51 -65 51 -68 0 -10 -113
-50 -200 -71 -108 -26 -312 -36 -418 -20 -161 25 -324 96 -472 204 -73 54
-160 137 -160 152 0 7 18 29 41 50 22 20 39 38 37 40 -2 2 -22 -5 -45 -16z
m346 -879 c48 -22 79 -56 101 -111 19 -46 30 -59 30 -32 0 20 30 53 67 72 58
30 154 -4 205 -71 33 -43 78 -129 73 -138 -11 -18 -140 -35 -260 -34 -118 1
-136 4 -194 28 -78 34 -128 79 -162 148 -50 100 -43 130 33 148 50 12 60 11
107 -10z" id="node7" class="node" stroke-width="20"></path>

























</g>
<g transform="translate(0.000000,300.000000) scale(0.100000,-0.100000)" fill="#FFFFFF" stroke="none">

<path d="M1946 2709 c-57 -48 -85 -131 -53 -157 6 -6 33 -8 60 -5 39 5 45 8
36 20 -9 10 -9 17 -1 25 15 15 34 0 27 -21 -5 -15 3 -19 47 -24 105 -13 108
-12 108 34 0 86 -56 149 -139 156 -40 4 -51 0 -85 -28z" id="node34" class="node" stroke-width="20"></path>
<path d="M1580 2658 c-150 -76 -157 -318 -12 -405 42 -26 132 -31 179 -11 48
20 109 91 122 141 24 97 8 169 -51 233 -62 67 -155 84 -238 42z m74 -191 c16
-25 -16 -56 -38 -37 -19 15 -20 32 -4 48 15 15 28 11 42 -11z" id="node35" class="node" stroke-width="20"></path>
<path d="M1908 2442 c-6 -82 -43 -167 -89 -206 -82 -70 -173 -76 -300 -22 -19
8 -34 -22 -44 -88 -4 -25 -10 -46 -14 -46 -4 0 -12 20 -18 43 -16 60 -95 161
-167 215 -273 202 -662 166 -913 -85 -129 -129 -208 -284 -250 -491 l-26 -126
17 -110 c31 -194 104 -333 251 -482 130 -131 308 -246 485 -314 30 -11 64 -25
75 -30 19 -9 54 -22 161 -60 76 -27 229 -106 306 -157 79 -53 153 -129 174
-179 l15 -35 47 54 c68 77 104 108 332 277 113 84 207 156 210 160 3 3 59 51
125 107 143 120 264 243 328 334 307 434 242 972 -143 1199 -121 72 -280 109
-461 110 l-96 0 -5 -68z m430 -36 c48 -17 168 -94 197 -126 22 -25 30 -16 -96
-110 l-67 -49 -43 32 c-23 18 -67 46 -97 62 -31 17 -55 34 -55 38 1 24 90 167
104 167 9 0 35 -6 57 -14z m330 -307 c33 -64 66 -175 56 -191 -3 -4 -48 -8
-100 -8 l-95 0 -19 43 c-11 24 -28 55 -39 68 -37 48 -32 58 59 110 47 27 89
47 95 46 5 -2 24 -32 43 -68z m-1657 -4 c-23 -21 -41 -43 -41 -50 0 -15 87
-98 160 -152 148 -108 311 -179 472 -204 106 -16 310 -6 418 20 87 21 200 61
200 71 0 3 -23 34 -51 68 -28 35 -48 66 -45 70 7 6 166 -147 166 -159 0 -10
-137 -65 -210 -84 -36 -10 -70 -22 -77 -27 -7 -5 -21 -37 -32 -71 -38 -119
-51 -223 -52 -439 l-1 -207 -46 -11 c-280 -67 -491 -52 -618 45 -159 121 -186
422 -71 776 l15 46 -61 43 c-34 24 -94 72 -133 107 -39 35 -74 63 -76 63 -3 0
-8 -8 -11 -17 -3 -10 -13 -36 -21 -58 -14 -37 -15 -38 -16 -12 -1 87 50 173
123 206 23 11 43 18 45 16 2 -2 -15 -20 -37 -40z" id="node36" class="node" stroke-width="20"></path>
<path d="M2237 2331 l-36 -69 72 -40 c40 -22 79 -48 86 -56 16 -19 25 -20 43
-3 7 7 37 30 66 51 28 21 52 41 52 46 0 29 -182 140 -229 140 -12 0 -30 -23
-54 -69z" id="node37" class="node" stroke-width="20"></path>
<path d="M2540 2109 c-36 -21 -69 -40 -74 -42 -4 -1 3 -20 17 -40 14 -21 34
-56 44 -77 l18 -39 84 -1 83 0 -6 34 c-13 71 -76 207 -94 205 -4 0 -36 -18
-72 -40z" id="node38" class="node" stroke-width="20"></path>
<path d="M1242 1250 c-76 -18 -83 -48 -33 -148 34 -69 84 -114 162 -148 58
-24 76 -27 194 -28 120 -1 249 16 260 34 5 9 -40 95 -73 138 -51 67 -147 101
-205 71 -37 -19 -67 -52 -67 -72 0 -27 -11 -14 -30 32 -22 55 -53 89 -101 111
-47 21 -57 22 -107 10z" id="node39" class="node" stroke-width="20"></path>





</g>
</svg>