<!--?xml version="1.0" standalone="no"?-->

<svg version="1.0" xmlns="http://www.w3.org/2000/svg" width="288.000000pt" height="300.000000pt" viewBox="0 0 288.000000 300.000000" preserveAspectRatio="xMidYMid meet">
<g transform="translate(0.000000,300.000000) scale(0.100000,-0.100000)" fill="#353535" stroke="none">
<path d="M1010 2302 c-206 -26 -434 -182 -524 -360 -19 -37 -44 -75 -55 -85
-19 -15 -21 -24 -15 -85 3 -38 13 -78 23 -92 10 -14 20 -48 24 -77 18 -153
135 -335 275 -428 46 -30 46 -29 -11 -98 -25 -31 -41 -61 -44 -86 -6 -46 1
-52 90 -72 40 -8 62 -19 69 -33 6 -12 19 -27 30 -34 10 -7 25 -27 34 -43 8
-16 29 -39 47 -49 39 -24 123 -27 147 -5 11 10 27 13 52 9 33 -6 38 -12 68
-77 l33 -70 -82 -78 c-45 -44 -86 -79 -89 -79 -26 1 -51 15 -55 31 -3 11 -23
27 -46 37 l-40 17 5 51 c5 35 2 59 -9 80 -8 16 -15 42 -15 57 1 38 -28 67 -67
67 -23 0 -41 -10 -70 -41 -106 -110 -290 -196 -465 -219 -105 -14 -120 -24
-120 -78 0 -26 8 -42 34 -67 19 -18 43 -46 54 -63 26 -44 62 -70 112 -81 53
-12 91 -6 111 18 8 10 35 22 60 26 24 4 70 20 101 36 31 16 60 29 62 29 3 0 3
-14 -1 -32 l-6 -31 44 6 c48 6 150 45 161 61 3 5 4 15 2 21 -3 7 9 24 25 38
27 22 35 24 63 16 63 -18 75 -12 167 76 l88 85 44 -6 c55 -7 173 29 280 85 89
46 177 62 203 36 27 -28 18 -41 -44 -69 -33 -15 -60 -32 -60 -39 0 -7 16 -22
35 -35 l35 -22 -19 -28 c-13 -18 -21 -52 -25 -103 -5 -69 -3 -80 17 -110 13
-19 30 -35 40 -37 10 -2 41 11 69 28 92 57 292 110 496 131 103 11 115 14 133
38 14 18 19 35 16 56 -20 114 -41 158 -88 182 -30 16 -103 17 -131 2 -11 -6
-66 -12 -122 -13 -55 -1 -109 -6 -120 -10 -16 -8 -17 -6 -12 15 4 13 12 34 18
47 18 35 0 46 -53 31 -87 -23 -164 -37 -169 -29 -3 5 -19 10 -35 12 -28 3 -24
7 65 67 109 74 237 168 246 182 7 13 121 11 130 -2 3 -6 25 -19 48 -30 22 -11
52 -26 66 -34 14 -8 41 -15 60 -15 19 0 52 -4 73 -9 23 -6 50 -5 71 1 33 10
67 53 59 74 -2 7 7 24 22 39 28 31 32 66 10 85 -12 10 -14 24 -9 56 5 35 2 46
-15 63 -23 23 -65 27 -118 12 -25 -7 -35 -6 -45 6 -9 11 -25 14 -60 11 -55 -6
-83 -27 -104 -78 -8 -19 -26 -46 -39 -60 -13 -14 -28 -37 -34 -52 -7 -18 -18
-28 -31 -28 -27 0 -25 12 6 41 37 35 168 219 199 280 64 126 84 253 65 414 -8
68 -21 119 -40 162 -16 34 -26 71 -23 82 3 11 -2 30 -11 43 -9 12 -16 37 -16
55 0 36 -6 42 -50 47 -17 2 -43 15 -58 28 -71 65 -170 108 -251 108 -79 0
-223 -30 -286 -59 -33 -15 -83 -49 -111 -74 -29 -26 -55 -47 -58 -47 -3 0 -32
20 -64 44 -67 51 -163 98 -240 116 -51 12 -179 19 -232 12z m320 -78 c60 -22
84 -39 151 -105 45 -44 83 -79 85 -79 2 0 4 11 4 25 0 67 163 164 311 186 155
22 255 1 341 -71 l33 -27 -45 -11 c-25 -6 -84 -22 -131 -35 -48 -14 -127 -31
-175 -37 -85 -12 -91 -12 -129 9 -62 33 -86 28 -217 -45 -32 -17 -117 -21
-200 -9 -70 10 -99 3 -142 -36 -38 -33 -81 -41 -499 -93 -109 -14 -202 -28
-207 -31 -16 -10 -11 16 11 64 64 142 254 285 423 317 112 21 297 11 386 -22z
m990 -118 c0 -12 5 -27 12 -34 6 -6 10 -14 7 -16 -4 -4 -169 -36 -365 -71 -45
-8 -89 -17 -97 -21 -12 -4 -20 5 -31 31 -20 47 -20 45 7 45 30 0 220 37 282
55 84 24 170 43 178 38 4 -2 7 -14 7 -27z m-528 -75 c76 -85 55 -241 -42 -313
-28 -20 -106 -34 -143 -24 -21 5 -25 13 -31 62 -3 31 -16 78 -27 104 l-21 48
21 48 c21 47 37 63 95 97 47 27 113 17 148 -22z m557 -43 c63 -102 80 -331 38
-489 -21 -78 -100 -239 -117 -239 -4 0 -20 -19 -35 -42 -48 -74 -229 -242
-332 -311 -230 -151 -349 -217 -452 -252 -127 -42 -157 -30 -219 90 -35 67
-40 105 -21 152 10 25 11 40 2 65 -7 18 -9 45 -6 60 3 18 -1 38 -12 54 -16 24
-21 26 -66 21 -37 -5 -61 -1 -99 15 -46 19 -51 19 -74 4 -24 -15 -28 -14 -108
36 -107 65 -222 168 -266 236 -40 63 -78 167 -88 239 l-6 52 43 11 c24 6 67
17 94 25 28 7 70 16 95 20 66 10 329 63 373 76 47 13 67 7 67 -21 0 -55 78
-149 157 -189 77 -39 182 -19 230 43 18 22 25 24 79 19 124 -10 224 81 232
213 l4 61 87 18 c126 26 332 63 359 64 15 1 28 -9 41 -31z m-883 -43 c104
-117 117 -261 30 -314 -58 -35 -104 -35 -172 -1 -70 35 -82 47 -118 114 -19
37 -26 64 -26 107 0 56 2 61 44 105 l45 46 77 -4 77 -4 43 -49z m61 25 c-14
-36 -20 -37 -41 -6 -15 23 -15 25 7 29 46 9 46 9 34 -23z m-372 -82 c-10 -36
-17 -44 -46 -50 -126 -29 -238 -52 -331 -68 -58 -11 -152 -31 -209 -45 -56
-14 -104 -25 -105 -25 -2 0 -4 16 -4 35 0 28 5 38 25 47 35 16 31 31 -5 23
-23 -5 -30 -3 -30 9 0 9 12 18 28 22 15 3 35 8 44 10 9 3 90 14 180 24 347 41
423 51 433 55 29 11 33 5 20 -37z m1273 -668 c28 -30 46 -98 31 -116 -32 -39
-99 2 -99 61 0 39 -15 47 -22 12 -9 -46 28 -107 65 -107 17 0 19 -4 12 -32 -4
-18 -8 -43 -7 -55 0 -13 -2 -23 -4 -23 -15 0 -71 30 -83 44 -8 9 -21 14 -31
11 -21 -7 -50 19 -50 44 0 10 8 26 19 35 17 15 19 15 25 1 10 -26 26 -7 20 24
-16 81 74 154 124 101z m156 -6 c9 -8 16 -19 16 -24 0 -20 -34 -40 -69 -40
-31 0 -40 5 -49 25 -16 34 -16 34 11 45 35 14 74 11 91 -6z m-1690 -143 c-1
-6 -2 -23 -3 -38 -1 -16 -15 -43 -31 -60 l-29 -32 -57 11 c-82 16 -83 37 -2
131 l40 48 42 -25 c22 -13 41 -29 40 -35z m1701 39 c39 -32 3 -70 -68 -70 -63
0 -92 15 -64 31 10 6 22 21 27 34 7 19 15 22 49 20 22 -1 47 -8 56 -15z
m-1566 -28 c43 -20 44 -32 4 -32 -28 0 -31 -16 -3 -23 12 -3 37 7 64 25 66 43
81 32 90 -73 5 -55 3 -86 -5 -95 -6 -8 -8 -21 -5 -30 4 -9 4 -26 0 -36 -5 -16
-12 -19 -37 -14 -20 3 -39 0 -51 -9 -43 -33 -156 -4 -156 39 0 7 -14 25 -30
41 -36 34 -37 75 -4 89 15 7 23 22 27 48 6 45 31 88 51 88 8 0 32 -8 55 -18z
m1519 -78 c23 -7 10 -49 -17 -52 -63 -9 -117 24 -96 58 6 10 76 6 113 -6z
m-1674 -240 c17 -7 22 -39 7 -48 -8 -5 -41 34 -41 49 0 7 15 6 34 -1z m1120
-61 c-5 -34 -45 -83 -66 -83 -9 0 -38 66 -38 86 0 7 19 17 43 22 69 16 69 16
61 -25z m-1146 -3 c2 -18 -7 -35 -31 -58 l-34 -33 -20 34 -20 34 31 26 c39 33
70 31 74 -3z m1550 -30 c6 0 42 -66 42 -77 0 -10 -30 -13 -115 -13 l-116 0 15
28 c32 61 81 86 141 70 16 -4 31 -8 33 -8z m-1487 -14 c11 -23 5 -96 -7 -96
-3 0 -12 7 -21 16 -23 23 -65 14 -83 -19 -14 -25 -13 -30 1 -56 15 -26 15 -29
-3 -40 -15 -9 -23 -9 -34 0 -23 19 -44 3 -44 -35 0 -42 -15 -56 -24 -22 -6 25
-31 40 -48 30 -6 -4 -8 -23 -4 -44 8 -49 -14 -60 -38 -20 -21 36 -46 30 -46
-11 0 -23 -5 -29 -21 -29 -18 0 -20 4 -14 29 3 17 2 39 -4 50 -10 17 -4 22 57
51 102 48 202 113 257 169 27 28 53 51 57 51 5 0 13 -11 19 -24z m1214 -15
c-4 -17 -2 -32 5 -36 13 -8 50 22 50 41 0 17 20 28 31 17 5 -5 0 -28 -13 -55
-21 -46 -21 -46 -98 -62 -99 -22 -220 -67 -282 -105 l-48 -30 0 38 c0 48 28
78 59 62 27 -15 37 -14 55 5 21 20 21 70 0 78 -27 10 -46 7 -59 -11 -12 -16
-14 -16 -40 1 l-27 18 52 24 c29 13 56 24 61 24 5 0 16 -14 25 -31 15 -31 22
-32 67 -14 12 5 17 2 17 -10 0 -25 34 -14 38 12 2 12 9 27 17 33 11 9 14 6 12
-16 -1 -20 3 -29 16 -32 13 -3 22 7 34 37 18 47 38 55 28 12z m32 -3 c-3 -7
-5 -2 -5 12 0 14 2 19 5 13 2 -7 2 -19 0 -25z m-1413 -10 c9 -12 16 -26 16
-29 0 -7 -62 -49 -72 -49 -2 0 -14 13 -26 30 l-23 30 33 20 c42 25 53 25 72
-2z m-98 -63 c8 -13 13 -29 9 -35 -5 -8 -101 -60 -111 -60 -4 0 -34 63 -34 71
0 10 79 47 102 48 10 1 25 -10 34 -24z m1232 -14 c-5 -24 -38 -27 -38 -3 0 10
3 21 6 25 11 11 35 -5 32 -22z m-1004 -7 c8 -20 -11 -44 -34 -44 -23 0 -34 28
-19 46 16 19 45 18 53 -2z m1560 6 c31 -11 36 -54 9 -68 -10 -5 -65 -15 -122
-22 -117 -14 -121 -12 -121 52 0 37 0 37 48 41 99 7 162 7 186 -3z m-1939 -40
c8 -16 15 -35 15 -42 0 -32 -223 -74 -255 -48 -20 17 -20 66 1 74 9 3 30 6 47
6 24 0 146 28 174 39 1 1 9 -12 18 -29z m1682 -66 c-3 -3 -31 -12 -63 -20 -65
-18 -74 -13 -74 46 0 35 1 35 63 50 l62 15 9 -43 c4 -24 6 -45 3 -48z m-1232
64 c14 -6 25 -14 25 -18 0 -3 -15 -21 -34 -39 l-34 -33 -32 22 -32 23 25 13
c13 7 27 20 31 29 7 18 17 19 51 3z m1078 -74 c5 -27 3 -32 -27 -42 -46 -17
-64 -15 -76 9 -20 37 -8 60 40 78 50 19 51 18 63 -45z m-1273 -18 c-14 -14
-24 0 -16 21 6 15 8 15 16 3 6 -9 5 -19 0 -24z m140 -31 c0 -11 -76 -45 -102
-45 -14 0 -15 6 -6 42 15 67 24 72 69 40 21 -15 39 -31 39 -37z m1008 13 c2
-29 -1 -39 -18 -48 -27 -14 -37 -7 -45 32 -6 24 -3 35 11 45 30 22 49 12 52
-29z m-1402 -3 c4 -14 0 -43 -8 -63 -12 -34 -18 -37 -55 -40 -51 -4 -92 16
-115 56 -17 29 -17 30 5 36 12 3 33 6 47 6 14 1 41 7 60 14 51 20 59 19 66 -9z
m184 -6 c0 -11 -4 -17 -10 -14 -5 3 -10 13 -10 21 0 8 5 14 10 14 6 0 10 -9
10 -21z m1140 -31 c0 -9 6 -18 13 -21 7 -2 0 -10 -16 -18 -24 -11 -30 -11 -38
2 -14 23 -10 57 8 68 20 10 33 -2 33 -31z m-1226 -13 c3 -8 1 -15 -4 -15 -6 0
-10 7 -10 15 0 8 2 15 4 15 2 0 6 -7 10 -15z" id="node1" class="node"></path>
<path d="M1726 2154 c-10 -26 -7 -34 14 -34 11 0 40 -10 65 -22 53 -26 68 -18
34 18 -41 44 -103 65 -113 38z" id="node2" class="node"></path>
<path d="M1192 2097 c-25 -26 -44 -56 -48 -77 l-7 -35 51 48 c28 26 58 47 65
47 8 0 20 7 27 15 10 12 10 18 0 30 -20 25 -44 17 -88 -28z" id="node3" class="node"></path>
<path d="M1592 1828 c-17 -17 -15 -35 5 -42 21 -8 36 6 31 30 -4 22 -20 28
-36 12z" id="node4" class="node"></path>
<path d="M825 1661 c-43 -20 -95 -64 -95 -81 0 -16 10 -12 42 20 36 37 42 37
57 4 22 -48 102 -153 148 -194 61 -53 182 -122 268 -151 148 -50 398 -21 585
68 83 40 239 151 240 171 0 19 -7 15 -83 -45 -86 -67 -206 -126 -331 -161 -76
-21 -113 -25 -226 -26 -125 -1 -140 1 -207 27 -82 32 -173 86 -236 138 -44 38
-147 180 -147 205 0 10 12 14 41 14 28 0 39 4 37 13 -7 19 -49 19 -93 -2z" id="node5" class="node"></path>
<path d="M1370 1795 c-20 -25 -8 -50 25 -50 36 0 47 31 19 52 -23 17 -29 16
-44 -2z" id="node6" class="node"></path>

















</g>
<g transform="translate(0.000000,300.000000) scale(0.100000,-0.100000)" fill="#FFFFFF" stroke="none">

<path d="M944 2246 c-169 -32 -359 -175 -423 -317 -22 -48 -27 -74 -11 -64 5
3 98 17 207 31 418 52 461 60 499 93 43 39 72 46 142 36 83 -12 168 -8 200 9
131 73 155 78 217 45 38 -21 44 -21 129 -9 48 6 127 23 175 37 47 13 106 29
131 35 l45 11 -33 27 c-86 72 -186 93 -341 71 -148 -22 -311 -119 -311 -186 0
-14 -2 -25 -4 -25 -2 0 -40 35 -85 79 -107 105 -168 129 -344 136 -81 3 -146
0 -193 -9z m856 -96 c25 -13 64 -59 56 -67 -3 -4 -27 3 -51 15 -25 12 -54 22
-65 22 -21 0 -24 8 -14 34 6 16 38 14 74 -4z m-520 -25 c10 -12 10 -18 0 -30
-7 -8 -19 -15 -27 -15 -7 0 -37 -21 -65 -47 l-51 -48 7 35 c7 39 80 120 107
120 9 0 22 -7 29 -15z" id="node25" class="node"></path>
<path d="M2245 2124 c-33 -8 -82 -21 -110 -29 -62 -18 -252 -55 -282 -55 -27
0 -27 2 -7 -45 11 -26 19 -35 31 -31 8 4 52 13 97 21 196 35 361 67 365 71 3
2 -1 10 -7 16 -7 7 -12 22 -12 34 0 32 -7 33 -75 18z" id="node26" class="node"></path>
<path d="M1644 2053 c-58 -34 -74 -50 -95 -97 l-21 -48 21 -48 c11 -26 24 -73
27 -104 6 -49 10 -57 31 -62 37 -10 115 4 143 24 97 72 118 228 42 313 -35 39
-101 49 -148 22z m-16 -237 c5 -24 -10 -38 -31 -30 -20 7 -22 25 -5 42 16 16
32 10 36 -12z" id="node27" class="node"></path>
<path d="M2160 1995 c-69 -12 -164 -30 -211 -40 l-87 -18 -4 -61 c-8 -132
-108 -223 -232 -213 -54 5 -61 3 -79 -19 -48 -62 -153 -82 -230 -43 -79 40
-157 134 -157 189 0 28 -20 34 -67 21 -44 -13 -307 -66 -373 -76 -25 -4 -67
-13 -95 -20 -27 -8 -70 -19 -94 -25 l-43 -11 6 -52 c10 -72 48 -176 88 -239
44 -68 159 -171 266 -236 80 -50 84 -51 108 -36 23 15 28 15 74 -4 38 -16 62
-20 99 -15 45 5 50 3 66 -21 11 -16 15 -36 12 -54 -3 -15 -1 -42 6 -60 9 -25
8 -40 -2 -65 -19 -47 -14 -85 21 -152 62 -120 92 -132 219 -90 103 35 222 101
452 252 103 69 284 237 332 311 15 23 31 42 35 42 17 0 96 161 117 239 42 158
25 387 -38 489 -22 38 -21 38 -189 7z m-1242 -332 c2 -9 -9 -13 -37 -13 -29 0
-41 -4 -41 -14 0 -25 103 -167 147 -205 63 -52 154 -106 236 -138 67 -26 82
-28 207 -27 113 1 150 5 226 26 125 35 245 94 331 161 76 60 83 64 83 45 -1
-20 -157 -131 -240 -171 -187 -89 -437 -118 -585 -68 -86 29 -207 98 -268 151
-46 41 -126 146 -148 194 -15 33 -21 33 -57 -4 -17 -16 -33 -30 -36 -30 -14 0
-4 23 22 47 55 52 149 79 160 46z" id="node28" class="node"></path>
<path d="M1224 1956 c-42 -44 -44 -49 -44 -105 0 -43 7 -70 26 -107 36 -67 48
-79 118 -114 68 -34 114 -34 172 1 87 53 74 197 -30 314 l-43 49 -77 4 -77 4
-45 -46z m190 -159 c28 -21 17 -52 -19 -52 -33 0 -45 25 -25 50 15 18 21 19
44 2z" id="node29" class="node"></path>
<path d="M1493 1993 c-22 -4 -22 -6 -7 -29 21 -31 27 -30 41 6 12 32 12 32
-34 23z" id="node30" class="node"></path>
<path d="M1135 1925 c-10 -4 -86 -14 -433 -55 -90 -10 -171 -21 -180 -24 -9
-2 -29 -7 -44 -10 -16 -4 -28 -13 -28 -22 0 -12 7 -14 30 -9 36 8 40 -7 5 -23
-20 -9 -25 -19 -25 -47 0 -19 2 -35 4 -35 1 0 49 11 105 25 57 14 151 34 209
45 93 16 205 39 331 68 29 6 36 14 46 50 13 42 9 48 -20 37z" id="node31" class="node"></path>
<path d="M2352 1230 c-28 -12 -56 -74 -48 -111 6 -31 -10 -50 -20 -24 -6 14
-8 14 -25 -1 -11 -9 -19 -25 -19 -35 0 -25 29 -51 50 -44 10 3 23 -2 31 -11
12 -14 68 -44 83 -44 2 0 4 10 4 23 -1 12 3 37 7 55 7 28 5 32 -12 32 -37 0
-74 61 -65 107 7 35 22 27 22 -12 0 -41 29 -75 64 -75 38 0 49 22 35 69 -21
71 -53 92 -107 71z" id="node32" class="node"></path>
<path d="M2493 1220 c-27 -11 -27 -11 -11 -45 9 -20 18 -25 49 -25 35 0 69 20
69 40 0 33 -59 49 -107 30z" id="node33" class="node"></path>
<path d="M772 1083 c-81 -94 -80 -115 2 -131 l57 -11 29 32 c16 17 30 44 31
60 1 15 2 32 3 38 1 6 -18 22 -40 35 l-42 25 -40 -48z" id="node34" class="node"></path>
<path d="M2490 1105 c-5 -13 -17 -28 -27 -34 -28 -16 1 -31 64 -31 104 0 116
79 12 85 -34 2 -42 -1 -49 -20z" id="node35" class="node"></path>
<path d="M944 1075 c-9 -13 -18 -42 -21 -63 -4 -26 -12 -41 -27 -48 -33 -14
-32 -55 4 -89 16 -16 30 -34 30 -41 0 -43 113 -72 156 -39 12 9 31 12 51 9 25
-5 32 -2 37 14 4 10 4 27 0 36 -3 9 -1 22 5 30 8 9 10 40 5 95 -9 105 -24 116
-90 73 -27 -18 -52 -28 -64 -25 -28 7 -25 23 3 23 40 0 39 12 -4 32 -54 24
-65 23 -85 -7z" id="node36" class="node"></path>
<path d="M2435 1010 c-21 -34 33 -67 96 -58 27 3 40 45 17 52 -37 12 -107 16
-113 6z" id="node37" class="node"></path>
<path d="M840 765 c0 -15 33 -54 41 -49 15 9 10 41 -7 48 -19 7 -34 8 -34 1z" id="node38" class="node"></path>
<path d="M1933 728 c-24 -5 -43 -15 -43 -22 0 -20 29 -86 38 -86 21 0 61 49
66 83 8 41 8 41 -61 25z" id="node39" class="node"></path>
<path d="M774 703 l-31 -26 20 -34 20 -34 34 33 c63 61 24 118 -43 61z" id="node40" class="node"></path>
<path d="M2310 682 c-30 -4 -66 -36 -86 -74 l-15 -28 116 0 c85 0 115 3 115
13 0 11 -36 77 -42 77 -2 0 -17 4 -33 8 -17 4 -41 6 -55 4z" id="node41" class="node"></path>
<path d="M835 629 c-55 -56 -155 -121 -257 -169 -61 -29 -67 -34 -57 -51 6
-11 7 -33 4 -50 -6 -25 -4 -29 14 -29 16 0 21 6 21 29 0 41 25 47 46 11 24
-40 46 -29 38 20 -4 21 -2 40 4 44 17 10 42 -5 48 -30 9 -34 24 -20 24 22 0
38 21 54 44 35 11 -9 19 -9 34 0 18 11 18 14 3 40 -14 26 -15 31 -1 56 18 33
60 42 83 19 22 -22 25 -20 33 20 6 35 -7 84 -24 84 -4 0 -30 -23 -57 -51z" id="node42" class="node"></path>
<path d="M2097 629 c-12 -30 -21 -40 -34 -37 -13 3 -17 12 -16 32 2 22 -1 25
-12 16 -8 -6 -15 -21 -17 -33 -4 -26 -38 -37 -38 -12 0 12 -5 15 -17 10 -45
-18 -52 -17 -67 14 -9 17 -20 31 -25 31 -5 0 -32 -11 -61 -24 l-52 -24 27 -18
c26 -17 28 -17 40 -1 13 18 32 21 59 11 21 -8 21 -58 0 -78 -18 -19 -28 -20
-55 -5 -31 16 -59 -14 -59 -62 l0 -38 48 30 c62 38 183 83 282 105 77 16 77
16 98 62 13 27 18 50 13 55 -11 11 -31 0 -31 -17 0 -19 -37 -49 -50 -41 -7 4
-9 19 -5 36 10 43 -10 35 -28 -12z" id="node43" class="node"></path>
<path d="M2152 650 c0 -14 2 -19 5 -12 2 6 2 18 0 25 -3 6 -5 1 -5 -13z" id="node44" class="node"></path>
<path d="M672 630 l-33 -20 23 -30 c12 -17 24 -30 26 -30 10 0 72 42 72 49 0
13 -31 51 -43 51 -7 0 -27 -9 -45 -20z" id="node45" class="node"></path>
<path d="M553 569 c-24 -11 -43 -23 -43 -28 0 -8 30 -71 34 -71 10 0 106 52
111 60 10 16 -22 60 -43 59 -9 0 -36 -9 -59 -20z" id="node46" class="node"></path>
<path d="M1846 573 c-3 -4 -6 -15 -6 -25 0 -24 33 -21 38 3 3 17 -21 33 -32
22z" id="node47" class="node"></path>
<path d="M821 546 c-15 -18 -4 -46 19 -46 23 0 42 24 34 44 -8 20 -37 21 -53
2z" id="node48" class="node"></path>
<path d="M2248 553 c-48 -4 -48 -4 -48 -41 0 -64 4 -66 121 -52 121 15 139 22
139 56 0 41 -48 50 -212 37z" id="node49" class="node"></path>
<path d="M405 519 c-38 -10 -84 -19 -102 -19 -17 0 -38 -3 -47 -6 -21 -8 -21
-57 -1 -74 32 -26 255 16 255 48 0 12 -28 73 -33 71 -1 0 -33 -9 -72 -20z" id="node50" class="node"></path>
<path d="M2103 520 c-62 -15 -63 -15 -63 -50 0 -59 9 -64 74 -46 32 8 60 17
63 20 3 3 1 24 -3 48 l-9 43 -62 -15z" id="node51" class="node"></path>
<path d="M894 505 c-4 -9 -18 -22 -31 -29 l-25 -13 32 -23 32 -22 34 33 c19
18 34 36 34 39 0 8 -46 30 -61 30 -5 0 -12 -7 -15 -15z" id="node52" class="node"></path>
<path d="M1960 479 c-48 -18 -60 -41 -40 -78 12 -24 30 -26 76 -9 30 10 32 15
27 42 -12 63 -13 64 -63 45z" id="node53" class="node"></path>
<path d="M734 437 c-8 -21 2 -35 16 -21 5 5 6 15 0 24 -8 12 -10 12 -16 -3z" id="node54" class="node"></path>
<path d="M802 437 c-6 -7 -15 -32 -20 -55 -9 -36 -8 -42 6 -42 26 0 102 34
102 45 0 6 -18 22 -39 37 -31 22 -41 25 -49 15z" id="node55" class="node"></path>
<path d="M1846 427 c-14 -10 -17 -21 -11 -45 8 -39 18 -46 45 -32 17 9 20 19
18 48 -3 41 -22 51 -52 29z" id="node56" class="node"></path>
<path d="M430 404 c-19 -7 -46 -13 -60 -14 -14 0 -35 -3 -47 -6 -22 -6 -22 -7
-5 -36 23 -40 64 -60 115 -56 37 3 43 6 55 40 15 40 9 89 -11 87 -6 -1 -28 -7
-47 -15z" id="node57" class="node"></path>
<path d="M660 396 c0 -8 5 -18 10 -21 6 -3 10 3 10 14 0 12 -4 21 -10 21 -5 0
-10 -6 -10 -14z" id="node58" class="node"></path>
<path d="M1787 389 c-18 -11 -22 -45 -8 -68 8 -13 14 -13 38 -2 16 8 23 16 16
18 -7 3 -13 12 -13 21 0 29 -13 41 -33 31z" id="node59" class="node"></path>
<path d="M580 345 c0 -8 4 -15 10 -15 5 0 7 7 4 15 -4 8 -8 15 -10 15 -2 0 -4
-7 -4 -15z" id="node60" class="node"></path>
<path d="M1900 71 c0 -11 5 -23 10 -26 6 -4 10 5 10 19 0 14 -4 26 -10 26 -5
0 -10 -9 -10 -19z" id="node61" class="node"></path>
<path d="M1976 75 c4 -8 8 -15 10 -15 2 0 4 7 4 15 0 8 -4 15 -10 15 -5 0 -7
-7 -4 -15z" id="node62" class="node"></path>


<path d="M1360 65 c0 -9 5 -15 11 -13 6 2 11 8 11 13 0 5 -5 11 -11 13 -6 2
-11 -4 -11 -13z" id="node65" class="node"></path>
</g>
</svg>