<!--?xml version="1.0" standalone="no"?-->

<svg version="1.0" xmlns="http://www.w3.org/2000/svg" width="293.000000pt" height="300.000000pt" viewBox="0 0 293.000000 300.000000" preserveAspectRatio="xMidYMid meet">
<g transform="translate(0.000000,300.000000) scale(0.100000,-0.100000)" fill="#161616" stroke="none">
<path class="node" id="node1" d="M1906 2978 c-9 -13 -16 -44 -17 -73 0 -43 -2 -47 -12 -31 -34 53 -60
76 -88 76 -64 0 -56 -67 14 -111 l32 -20 -55 6 c-48 6 -58 4 -73 -13 -26 -29
-18 -64 16 -73 33 -9 116 10 139 31 14 13 14 16 -1 27 -14 11 -13 12 7 13 14
0 22 6 22 18 1 16 1 16 14 0 12 -17 14 -17 28 0 22 25 58 94 58 112 0 25 -29
60 -50 60 -10 0 -26 -10 -34 -22z"></path>
<path class="node" id="node2" d="M1001 2941 c-6 -11 -11 -44 -11 -73 l-1 -53 -16 30 c-38 72 -99 100
-123 56 -10 -19 4 -71 19 -71 3 0 17 -10 31 -21 l25 -20 -46 7 c-61 8 -89 -7
-89 -47 0 -22 6 -32 25 -39 33 -13 118 5 140 30 15 17 15 19 -7 35 l-23 17 33
-7 c27 -5 32 -4 33 12 0 10 3 13 6 6 9 -24 33 -13 58 26 20 30 26 49 23 82 -3
41 -5 44 -35 47 -23 2 -34 -2 -42 -17z"></path>
<path class="node" id="node3" d="M2019 2895 c-34 -18 -82 -82 -73 -96 9 -15 88 -4 125 18 34 21 44 45
29 73 -12 23 -44 25 -81 5z"></path>
<path class="node" id="node4" d="M1103 2853 c-37 -33 -66 -77 -56 -86 23 -23 140 15 154 50 23 61 -42
85 -98 36z"></path>
<path class="node" id="node5" d="M1450 2821 c-5 -11 -10 -41 -11 -68 0 -41 -2 -45 -12 -29 -46 72 -93
96 -125 64 -26 -26 -11 -54 53 -103 19 -15 17 -16 -20 -10 -60 9 -95 -7 -95
-44 0 -50 39 -60 135 -35 11 3 1 -6 -22 -21 -43 -26 -61 -60 -49 -90 16 -43
73 -25 111 34 31 50 33 81 5 81 -22 0 -26 10 -9 27 8 8 4 15 -13 27 l-23 16
33 -6 c29 -6 32 -4 33 17 1 17 3 19 6 7 7 -27 29 -22 53 12 50 70 45 140 -9
140 -20 0 -34 -7 -41 -19z"></path>
<path class="node" id="node6" d="M1950 2751 c5 -11 27 -33 47 -51 29 -24 46 -30 73 -28 33 3 35 5 35
38 0 44 -28 60 -108 60 -54 0 -57 -1 -47 -19z"></path>
<path class="node" id="node7" d="M620 2752 c-28 -8 -40 -36 -41 -91 0 -31 -3 -49 -6 -41 -3 8 -19 32
-35 53 -22 27 -37 37 -58 37 -61 0 -59 -63 3 -108 l32 -23 -51 7 c-45 5 -55 3
-73 -15 -25 -25 -26 -31 -8 -55 15 -20 49 -24 112 -14 22 4 33 5 25 1 -8 -3
-17 -9 -20 -12 -3 -4 -17 -14 -32 -24 -20 -12 -28 -26 -28 -46 0 -69 65 -65
110 6 34 53 38 83 13 83 -14 0 -18 9 -19 34 0 27 3 32 18 28 12 -3 18 1 18 14
0 17 1 17 13 -1 13 -17 16 -16 42 19 36 48 47 129 19 144 -11 5 -26 7 -34 4z"></path>
<path class="node" id="node8" d="M1564 2741 c-37 -22 -78 -77 -69 -91 9 -15 45 -12 99 6 55 19 75 49
57 83 -14 26 -46 27 -87 2z"></path>
<path class="node" id="node9" d="M2274 2746 c-25 -19 -14 -96 21 -142 26 -35 29 -36 42 -19 12 18 13
18 13 1 0 -13 5 -17 19 -13 16 4 19 0 18 -21 -2 -33 34 -53 99 -55 35 -2 49 3
60 17 19 26 18 32 -7 57 -18 18 -28 20 -73 15 l-51 -7 32 23 c62 45 64 108 3
108 -21 0 -36 -10 -58 -37 -16 -21 -32 -45 -35 -53 -3 -8 -6 10 -6 41 -1 75
-36 114 -77 85z"></path>
<path class="node" id="node10" d="M1053 2734 c-7 -19 38 -67 83 -89 45 -21 74 -7 74 36 0 26 -6 33 -42
49 -53 24 -106 26 -115 4z"></path>
<path class="node" id="node11" d="M1810 2728 c-19 -13 -40 -29 -47 -38 -33 -41 5 -93 53 -71 27 12 74
82 74 111 0 27 -35 26 -80 -2z"></path>
<path class="node" id="node12" d="M1906 2734 c-8 -20 -8 -108 0 -128 10 -26 41 -38 64 -26 29 15 26 73
-5 127 -27 44 -48 55 -59 27z"></path>
<path class="node" id="node13" d="M925 2704 c-71 -37 -97 -91 -55 -114 30 -16 57 -3 91 42 51 72 34
108 -36 72z"></path>
<path class="node" id="node14" d="M1005 2711 c-3 -6 -6 -38 -6 -72 -1 -49 3 -65 19 -82 18 -18 25 -19
47 -9 18 9 25 19 25 41 0 39 -16 81 -42 109 -23 24 -34 27 -43 13z"></path>
<path class="node" id="node15" d="M682 2632 c-26 -24 -42 -48 -42 -62 0 -21 3 -22 45 -17 25 4 59 14
76 22 26 14 30 21 27 53 -3 33 -6 37 -33 40 -24 2 -40 -6 -73 -36z"></path>
<path class="node" id="node16" d="M2147 2663 c-4 -3 -7 -21 -7 -39 0 -39 32 -60 105 -71 42 -5 45 -4
45 17 0 32 -75 100 -110 100 -15 0 -30 -3 -33 -7z"></path>
<path class="node" id="node17" d="M1503 2624 c-26 -11 6 -51 75 -95 45 -29 82 -15 82 31 0 24 -7 33
-40 50 -37 19 -89 25 -117 14z"></path>
<path class="node" id="node18" d="M1462 2588 c-7 -7 -12 -39 -12 -73 0 -47 4 -66 18 -78 37 -34 72 -14
72 40 0 60 -54 135 -78 111z"></path>
<path class="node" id="node19" d="M644 2526 c-13 -35 92 -115 130 -100 8 3 18 14 21 25 15 46 -18 74
-101 86 -35 5 -45 2 -50 -11z"></path>
<path class="node" id="node20" d="M2186 2525 c-41 -14 -56 -29 -56 -57 0 -15 25 -48 36 -48 19 0 74 33
98 58 51 55 11 79 -78 47z"></path>
<path class="node" id="node21" d="M590 2466 c-14 -52 -7 -97 21 -122 29 -26 69 -5 69 36 0 53 -41 128
-71 130 -4 0 -12 -20 -19 -44z"></path>
<path class="node" id="node22" d="M2298 2496 c-23 -17 -48 -78 -48 -116 0 -23 6 -33 25 -42 51 -23 87
49 65 130 -12 45 -16 48 -42 28z"></path>
<path class="node" id="node23" d="M2350 2487 c0 -36 60 -111 91 -115 31 -4 52 18 47 49 -4 28 -64 77
-106 85 -29 6 -32 4 -32 -19z"></path>
<path class="node" id="node24" d="M450 2321 c-5 -11 -10 -40 -10 -65 0 -25 -4 -46 -10 -46 -5 0 -10 6
-10 14 0 28 -50 76 -80 76 -68 0 -64 -62 7 -110 27 -18 39 -30 28 -27 -92 25
-135 14 -135 -32 0 -39 28 -55 83 -46 l42 7 -37 -35 c-21 -19 -38 -44 -38 -55
0 -26 34 -46 66 -38 26 7 68 65 78 109 5 23 3 27 -15 27 -19 0 -20 2 -8 17 11
13 11 17 2 20 -20 7 -15 23 7 23 14 0 20 7 21 23 1 16 2 18 6 5 7 -29 31 -21
56 20 30 48 38 78 27 108 -12 31 -64 34 -80 5z"></path>
<path class="node" id="node25" d="M2400 2316 c-11 -30 -3 -60 27 -108 25 -41 49 -49 56 -20 4 13 5 11
6 -5 1 -16 7 -23 21 -23 22 0 27 -16 8 -23 -10 -3 -10 -7 1 -20 12 -15 11 -17
-8 -17 -39 0 -15 -79 36 -120 32 -25 55 -25 77 -1 23 25 10 51 -47 92 -23 17
-33 29 -22 26 92 -26 135 -16 135 34 0 46 -43 57 -135 32 -11 -3 1 9 28 27 71
48 75 110 7 110 -30 0 -80 -48 -80 -76 0 -8 -4 -14 -10 -14 -5 0 -10 21 -10
46 0 61 -14 84 -51 84 -22 0 -32 -6 -39 -24z"></path>
<path class="node" id="node26" d="M557 2235 c-37 -26 -72 -77 -60 -89 12 -12 69 -5 110 13 46 21 60 49
41 80 -17 28 -45 26 -91 -4z"></path>
<path class="node" id="node27" d="M2282 2239 c-19 -31 -5 -59 41 -80 41 -18 98 -25 110 -13 12 12 -23
63 -60 89 -46 30 -74 32 -91 4z"></path>
<path class="node" id="node28" d="M508 2124 c-21 -21 15 -68 76 -101 41 -22 76 -5 76 37 0 26 -6 33
-37 47 -46 19 -105 28 -115 17z"></path>
<path class="node" id="node29" d="M2320 2112 c-39 -15 -45 -22 -48 -50 -3 -26 1 -34 21 -43 28 -13 64
2 110 46 56 54 7 82 -83 47z"></path>
<path class="node" id="node30" d="M456 2084 c-3 -9 -6 -42 -6 -74 0 -62 15 -90 49 -90 50 0 56 76 11
138 -32 45 -44 51 -54 26z"></path>
<path class="node" id="node31" d="M2420 2058 c-45 -62 -39 -138 11 -138 34 0 49 28 49 90 0 101 -14
112 -60 48z"></path>
<path class="node" id="node32" d="M566 1894 c-20 -20 -29 -56 -24 -94 6 -40 -3 -38 -27 7 -24 46 -65
69 -95 53 -23 -12 -26 -48 -7 -72 19 -23 70 -56 100 -63 24 -6 27 -4 27 16 1
23 1 23 15 5 13 -16 17 -17 31 -5 21 18 53 87 54 116 0 24 -24 53 -45 53 -7 0
-21 -7 -29 -16z"></path>
<path class="node" id="node33" d="M2318 1899 c-28 -16 -23 -77 9 -127 27 -41 53 -55 53 -29 0 6 5 4 11
-6 7 -12 17 -15 37 -11 l27 6 -23 -17 c-23 -17 -23 -18 -5 -38 18 -20 18 -20
-11 -13 -28 7 -29 6 -22 -25 7 -37 47 -94 76 -109 30 -16 60 4 60 39 0 27 -25
58 -63 78 -12 6 4 8 48 5 62 -4 65 -3 76 22 10 22 9 29 -7 47 -16 18 -27 20
-72 16 -45 -5 -52 -3 -42 8 7 8 20 17 30 20 10 3 24 20 31 37 11 28 11 32 -10
49 -31 25 -59 12 -98 -46 l-32 -48 0 58 c0 78 -28 111 -73 84z"></path>
<path class="node" id="node34" d="M654 1792 c-43 -37 -61 -72 -43 -83 8 -5 21 -7 29 -4 8 2 34 9 57 15
47 12 68 39 59 76 -9 35 -61 33 -102 -4z"></path>
<path class="node" id="node35" d="M2187 1813 c-16 -15 -6 -63 16 -77 27 -18 105 -36 123 -29 23 8 16
23 -30 69 -32 32 -51 44 -73 44 -16 0 -33 -3 -36 -7z"></path>
<path class="node" id="node36" d="M357 1722 c-36 -40 -13 -72 50 -72 39 0 113 26 113 39 -1 17 -19 30
-55 40 -57 16 -90 14 -108 -7z"></path>
<path class="node" id="node37" d="M604 1679 c-11 -19 68 -89 108 -95 30 -5 38 -3 48 16 14 27 -8 66
-46 80 -34 13 -101 13 -110 -1z"></path>
<path class="node" id="node38" d="M2213 1675 c-54 -23 -54 -95 -1 -95 43 0 137 77 122 101 -8 14 -85
10 -121 -6z"></path>
<path class="node" id="node39" d="M559 1628 c-14 -55 -5 -108 22 -131 19 -15 25 -16 43 -4 12 8 23 25
24 37 5 29 -34 112 -58 128 -17 11 -20 7 -31 -30z"></path>
<path class="node" id="node40" d="M2333 1645 c-26 -30 -46 -86 -41 -116 2 -12 12 -28 24 -36 19 -12 24
-11 44 5 19 15 24 29 24 68 1 53 -10 104 -22 104 -4 0 -17 -12 -29 -25z"></path>
<path class="node" id="node41" d="M475 1646 c-47 -21 -79 -60 -71 -90 13 -52 68 -42 111 22 46 68 29
98 -40 68z"></path>
<path class="node" id="node42" d="M2072 1488 c-21 -21 -13 -72 18 -121 30 -48 44 -57 53 -34 4 10 6 10
6 0 2 -25 59 -13 103 20 45 34 58 68 38 93 -27 32 -86 1 -119 -64 l-20 -37 1
63 c0 35 -6 70 -12 77 -15 18 -52 19 -68 3z"></path>
<path class="node" id="node43" d="M779 1474 c-7 -9 -15 -43 -17 -76 -4 -59 -5 -60 -17 -32 -22 50 -53
75 -88 72 -28 -3 -32 -7 -35 -35 -3 -25 3 -36 30 -56 52 -40 90 -52 104 -33
15 21 24 20 24 -1 0 -16 2 -15 19 2 29 30 61 93 61 119 0 26 -28 56 -52 56 -9
0 -21 -7 -29 -16z"></path>
<path class="node" id="node44" d="M1956 1407 c-24 -18 -17 -55 14 -79 14 -10 49 -21 78 -25 43 -5 52
-3 52 10 0 24 -50 78 -87 93 -39 17 -35 17 -57 1z"></path>
<path class="node" id="node45" d="M860 1362 c-69 -66 -48 -100 42 -69 66 23 96 65 66 95 -24 24 -66 13
-108 -26z"></path>
<path class="node" id="node46" d="M2213 1315 c-33 -14 -44 -39 -20 -48 6 -3 0 -6 -15 -6 -35 -1 -35
-15 -2 -75 39 -69 94 -89 115 -42 14 30 -1 60 -41 81 -17 9 -30 18 -30 20 0 3
24 2 53 -1 42 -5 57 -3 70 11 55 55 -41 99 -130 60z"></path>
<path class="node" id="node47" d="M577 1305 c-19 -18 -22 -42 -8 -64 14 -22 126 -10 153 16 l20 21 -25
16 c-38 26 -119 32 -140 11z"></path>
<path class="node" id="node48" d="M1973 1270 c-45 -18 -54 -82 -13 -95 37 -12 140 59 140 96 0 11 -98
11 -127 -1z"></path>
<path class="node" id="node49" d="M820 1256 c0 -41 89 -103 132 -93 50 13 43 64 -12 92 -37 19 -120 20
-120 1z"></path>
<path class="node" id="node50" d="M2097 1236 c-57 -61 -59 -156 -3 -156 13 0 29 7 36 15 20 24 24 96 8
135 l-14 35 -27 -29z"></path>
<path class="node" id="node51" d="M775 1195 c-4 -31 -3 -71 2 -88 8 -28 13 -32 43 -32 28 0 36 5 44 27
7 21 4 36 -16 74 -14 26 -34 54 -46 62 -20 13 -21 11 -27 -43z"></path>
<path class="node" id="node52" d="M680 1219 c-19 -11 -41 -28 -47 -37 -37 -47 11 -101 61 -68 27 17 66
84 66 111 0 22 -38 19 -80 -6z"></path>
<path class="node" id="node53" d="M1079 1153 c-8 -9 -14 -39 -14 -70 0 -52 -1 -53 -15 -32 -53 77 -96
97 -124 57 -14 -19 -14 -24 2 -50 9 -15 24 -30 33 -33 10 -3 22 -12 29 -20 10
-11 3 -13 -44 -8 -63 7 -86 -5 -86 -43 0 -33 36 -48 92 -40 24 4 54 16 68 26
24 20 25 21 6 35 -19 14 -19 15 7 15 19 0 27 5 27 17 0 15 2 14 14 -3 13 -17
16 -17 29 -4 24 24 57 93 57 117 0 45 -54 70 -81 36z"></path>
<path class="node" id="node54" d="M1831 1134 c-26 -18 -28 -62 -5 -107 26 -52 45 -69 61 -56 9 9 13 9
13 0 0 -6 12 -11 28 -12 15 0 21 -3 15 -6 -7 -2 -13 -13 -13 -23 0 -10 6 -21
13 -23 6 -3 0 -6 -15 -6 -18 -1 -28 -6 -28 -16 0 -27 39 -94 65 -111 52 -34
103 13 69 63 -8 13 -18 23 -23 23 -4 0 -19 10 -32 22 -18 16 -20 20 -6 15 54
-20 95 -19 115 1 46 46 -9 91 -89 73 -43 -9 -44 -9 -19 7 68 46 87 91 49 115
-30 18 -68 -1 -99 -51 l-30 -47 0 53 c0 82 -27 115 -69 86z"></path>
<path class="node" id="node55" d="M1205 1078 c-35 -19 -85 -71 -85 -89 0 -10 6 -20 13 -23 10 -5 10 -7
0 -12 -21 -9 -15 -28 20 -61 71 -70 146 -64 129 10 -5 22 -52 47 -86 47 -39 0
-40 18 -1 26 72 13 113 78 66 104 -24 12 -31 12 -56 -2z"></path>
<path class="node" id="node56" d="M1700 1046 c-33 -41 16 -93 98 -103 44 -5 52 -3 52 11 0 9 -20 37
-45 61 -46 47 -82 57 -105 31z"></path>
<path class="node" id="node57" d="M1015 918 c-72 -26 -113 -80 -85 -113 17 -20 63 -19 82 3 23 25 58
103 52 113 -6 11 -10 10 -49 -3z"></path>
<path class="node" id="node58" d="M1076 908 c-3 -13 -6 -43 -6 -68 0 -79 51 -118 86 -65 13 20 14 30 4
60 -12 36 -55 95 -70 95 -4 0 -10 -10 -14 -22z"></path>
<path class="node" id="node59" d="M1780 923 c-73 -11 -100 -28 -100 -63 0 -28 29 -52 54 -44 32 9 89
51 104 75 12 18 12 23 0 30 -13 9 -16 9 -58 2z"></path>
<path class="node" id="node60" d="M1412 898 c-26 -26 0 -122 43 -158 14 -12 18 -12 26 1 17 27 15 135
-3 156 -13 16 -50 17 -66 1z"></path>
<path class="node" id="node61" d="M1834 865 c-16 -21 -28 -53 -31 -80 -5 -41 -3 -45 21 -56 23 -11 30
-10 48 9 17 16 22 33 21 70 -1 55 -10 92 -23 92 -5 0 -21 -16 -36 -35z"></path>
<path class="node" id="node62" d="M1556 849 c-27 -21 -68 -98 -60 -111 3 -5 14 -8 25 -8 17 0 18 -3 7
-21 -11 -17 -10 -22 7 -36 19 -15 19 -15 -7 -9 -38 9 -43 -8 -19 -59 32 -67
91 -97 121 -60 19 23 4 59 -36 87 l-36 26 60 -5 c58 -5 62 -4 73 19 8 19 8 31
-1 48 -11 21 -17 22 -75 18 l-63 -6 41 32 c44 33 57 67 37 92 -17 20 -43 18
-74 -7z"></path>
<path class="node" id="node63" d="M1298 819 c-11 -6 -18 -22 -18 -40 0 -26 6 -33 43 -49 45 -21 117
-27 117 -10 0 19 -44 71 -76 91 -36 22 -42 22 -66 8z"></path>
<path class="node" id="node64" d="M1337 684 c-55 -17 -76 -48 -58 -83 19 -34 61 -27 115 20 48 43 57
63 30 73 -21 8 -31 7 -87 -10z"></path>
<path class="node" id="node65" d="M1433 637 c-55 -62 -53 -147 2 -147 48 0 71 84 42 154 l-13 29 -31
-36z"></path>
<path class="node" id="node66" d="M145 406 c-14 -21 -14 -27 5 -72 12 -27 29 -57 37 -67 15 -16 17 -16
35 -1 17 16 18 16 18 1 0 -10 8 -17 20 -17 18 0 19 -2 8 -20 -11 -17 -10 -22
2 -30 12 -8 11 -10 -7 -10 -32 0 -31 -44 3 -93 39 -59 98 -70 110 -22 8 31
-10 61 -46 80 -17 9 -30 17 -30 20 0 2 25 1 55 -2 61 -6 85 5 85 42 0 36 -24
48 -86 43 l-56 -5 41 34 c42 35 52 68 29 91 -30 30 -68 8 -120 -68 -16 -25
-16 -25 -11 16 11 83 -53 139 -92 80z"></path>
<path class="node" id="node67" d="M640 411 c-14 -27 -13 -42 6 -82 25 -51 56 -82 67 -67 7 10 10 10 14
1 2 -7 16 -13 30 -13 25 0 25 -1 9 -19 -11 -12 -14 -21 -7 -26 18 -11 12 -23
-9 -18 -23 6 -26 -10 -9 -54 26 -70 104 -109 129 -64 15 28 -4 64 -48 89 l-37
22 60 -6 c52 -5 62 -4 78 14 24 26 14 60 -19 68 -14 4 -46 4 -71 0 l-46 -6 41
29 c45 34 58 61 42 91 -24 45 -93 10 -125 -63 l-14 -32 -1 58 c0 74 -12 97
-50 97 -19 0 -33 -7 -40 -19z"></path>
<path class="node" id="node68" d="M1142 418 c-7 -7 -12 -23 -12 -37 0 -33 31 -101 54 -120 14 -12 18
-11 31 5 13 17 14 18 15 2 0 -13 8 -18 27 -18 26 0 26 -1 8 -14 -19 -14 -19
-15 0 -37 l20 -22 -27 7 c-26 6 -28 4 -28 -21 0 -34 44 -101 73 -112 31 -12
56 -2 63 24 8 31 -10 61 -46 80 -17 9 -30 17 -30 19 0 1 27 2 61 2 51 -1 63 2
75 19 12 18 11 24 -3 44 -14 22 -21 23 -77 18 l-61 -5 25 18 c51 38 60 51 60
80 0 24 -5 31 -26 36 -32 8 -70 -18 -95 -66 l-19 -35 0 50 c0 30 -7 60 -16 73
-17 24 -53 29 -72 10z"></path>
<path class="node" id="node69" d="M1642 418 c-25 -25 -9 -99 32 -145 18 -22 21 -22 38 -6 17 15 18 15
18 0 0 -11 8 -17 22 -17 20 0 20 -1 4 -19 -16 -17 -15 -19 10 -35 34 -23 128
-33 149 -16 8 7 15 23 15 35 0 37 -24 48 -90 42 l-59 -5 42 32 c44 33 57 67
37 92 -28 33 -83 6 -115 -56 -20 -39 -25 -38 -18 3 7 48 -20 107 -49 107 -13
0 -29 -5 -36 -12z"></path>
<path class="node" id="node70" d="M2128 405 c-20 -45 49 -180 74 -144 7 11 11 11 15 2 2 -7 16 -13 30
-13 22 0 23 -1 9 -16 -22 -21 -21 -23 27 -44 54 -25 109 -26 130 -2 22 24 21
35 -3 57 -16 14 -30 17 -75 12 -59 -6 -64 3 -14 29 36 18 54 57 39 85 -24 44
-94 8 -125 -64 l-14 -32 -1 60 c0 33 -7 68 -14 78 -20 26 -64 22 -78 -8z"></path>
<path class="node" id="node71" d="M2632 418 c-7 -7 -12 -23 -12 -37 0 -32 31 -101 53 -119 13 -11 18
-9 31 10 l16 22 0 -22 c0 -17 6 -22 27 -22 l27 0 -22 -16 c-22 -15 -22 -17 -5
-30 17 -13 17 -13 -4 -14 -33 0 -30 -47 6 -97 32 -44 55 -54 89 -42 16 6 22
17 22 39 0 23 -9 36 -41 59 l-40 30 55 -6 c62 -6 86 5 86 42 0 37 -24 48 -88
42 l-57 -6 25 19 c49 37 60 50 60 74 0 60 -60 59 -107 -2 l-33 -44 0 44 c0 24
-7 54 -16 66 -17 24 -53 29 -72 10z"></path>
<path class="node" id="node72" d="M26 331 c-39 -43 26 -98 117 -100 20 -1 37 2 37 7 0 19 -43 74 -72
92 -41 25 -60 25 -82 1z"></path>
<path class="node" id="node73" d="M526 334 c-40 -39 6 -90 92 -101 47 -5 52 -4 52 14 0 24 -67 90 -101
98 -18 4 -31 1 -43 -11z"></path>
<path class="node" id="node74" d="M1016 328 c-20 -28 -5 -55 45 -80 42 -22 109 -24 109 -4 0 21 -47 74
-81 91 -39 20 -55 19 -73 -7z"></path>
<path class="node" id="node75" d="M1516 334 c-22 -22 -20 -41 8 -69 24 -24 102 -43 131 -31 39 15 -61
116 -115 116 -5 0 -16 -7 -24 -16z"></path>
<path class="node" id="node76" d="M2016 335 c-37 -38 -8 -78 72 -99 81 -22 94 9 29 71 -41 40 -78 50
-101 28z"></path>
<path class="node" id="node77" d="M2512 338 c-16 -16 -15 -50 1 -70 26 -33 147 -53 147 -24 0 21 -47
74 -81 91 -34 18 -51 19 -67 3z"></path>
<path class="node" id="node78" d="M55 200 c-30 -12 -47 -36 -43 -61 4 -30 29 -43 63 -35 34 9 109 81
100 96 -7 12 -91 12 -120 0z"></path>
<path class="node" id="node79" d="M529 182 c-24 -22 -30 -33 -25 -50 15 -45 80 -37 135 17 47 46 42 61
-24 61 -46 0 -60 -5 -86 -28z"></path>
<path class="node" id="node80" d="M1043 200 c-32 -13 -48 -47 -34 -76 18 -40 67 -29 129 29 47 45 42
57 -20 56 -29 0 -63 -4 -75 -9z"></path>
<path class="node" id="node81" d="M1544 200 c-72 -29 -53 -115 21 -96 34 9 95 64 95 87 0 16 -7 19 -47
18 -27 0 -58 -4 -69 -9z"></path>
<path class="node" id="node82" d="M2028 195 c-72 -40 -25 -120 48 -82 41 21 84 63 84 82 0 20 -94 20
-132 0z"></path>
<path class="node" id="node83" d="M2535 200 c-30 -12 -47 -36 -43 -61 4 -30 29 -43 63 -35 30 8 105 75
105 95 0 13 -94 14 -125 1z"></path>
<path class="node" id="node84" d="M188 178 c-28 -22 -58 -81 -58 -114 0 -40 33 -73 58 -58 31 20 43 56
37 108 -8 67 -16 80 -37 64z"></path>
<path class="node" id="node85" d="M673 168 c-31 -36 -55 -97 -49 -124 4 -14 18 -30 32 -36 23 -11 29
-9 45 11 20 24 25 80 13 140 -8 37 -14 38 -41 9z"></path>
<path class="node" id="node86" d="M1179 177 c-22 -17 -59 -91 -59 -120 0 -13 9 -32 20 -42 16 -15 25
-16 45 -7 28 13 39 55 31 121 -5 52 -15 64 -37 48z"></path>
<path class="node" id="node87" d="M1677 179 c-24 -14 -57 -82 -57 -117 0 -28 26 -62 47 -62 26 0 47 42
46 93 -1 71 -13 99 -36 86z"></path>
<path class="node" id="node88" d="M1724 158 c15 -76 101 -135 136 -94 22 28 -5 72 -63 101 -69 34 -81
33 -73 -7z"></path>
<path class="node" id="node89" d="M2158 162 c-13 -16 -30 -47 -37 -70 -12 -36 -12 -44 3 -67 24 -36 56
-30 78 15 10 20 16 47 13 63 -18 100 -20 102 -57 59z"></path>
<path class="node" id="node90" d="M2223 154 c7 -41 48 -100 77 -109 30 -10 60 12 60 44 0 38 -40 71
-113 92 -29 8 -29 8 -24 -27z"></path>
<path class="node" id="node91" d="M2669 177 c-22 -17 -59 -91 -59 -120 0 -33 36 -65 58 -51 30 19 43
56 38 107 -7 63 -16 79 -37 64z"></path>
</g>
<g transform="translate(0.000000,300.000000) scale(0.100000,-0.100000)" fill="#6CA573" stroke="none">

</g>
</svg>