<!--?xml version="1.0" standalone="no"?-->

<svg version="1.0" xmlns="http://www.w3.org/2000/svg" width="300.000000pt" height="300.000000pt" viewBox="0 0 300.000000 300.000000" preserveAspectRatio="xMidYMid meet">
<g transform="translate(0.000000,300.000000) scale(0.100000,-0.100000)" fill="#131313" stroke="none">
<path class="node" id="node1" d="M2045 2296 c-5 -3 -36 -7 -68 -11 -61 -7 -69 -25 -10 -25 42 0 134
-25 184 -51 58 -29 127 -107 165 -186 19 -40 34 -80 34 -90 0 -10 5 -25 11
-33 7 -11 9 18 6 100 -3 95 -7 123 -26 159 -46 89 -107 127 -216 135 -38 3
-74 4 -80 2z"></path>
<path class="node" id="node2" d="M1155 2279 c-48 -7 -123 -31 -195 -62 -34 -15 -30 -15 90 -15 108 0
135 -3 196 -24 38 -14 88 -37 110 -52 33 -22 40 -24 42 -10 4 19 -15 69 -41
107 -35 51 -108 71 -202 56z"></path>
<path class="node" id="node3" d="M1815 2204 c-65 -10 -163 -49 -217 -86 -32 -21 -58 -42 -58 -46 0 -4
28 -20 61 -36 245 -115 214 -338 -55 -400 -229 -53 -497 45 -550 201 -13 38
-13 48 0 87 25 74 112 135 218 155 33 6 62 13 65 17 20 20 -138 49 -218 40
-73 -9 -136 -41 -180 -94 -40 -48 -81 -149 -81 -201 0 -87 74 -217 199 -351
79 -84 140 -182 167 -267 23 -70 25 -92 22 -215 -3 -157 -13 -145 92 -106 160
60 198 77 362 158 172 86 309 181 419 290 86 86 108 113 161 200 57 94 76 312
37 424 -12 34 -22 62 -23 63 -1 1 -2 -35 -2 -80 0 -60 -6 -99 -22 -146 -22
-61 -104 -226 -123 -245 -15 -16 -10 20 10 76 11 29 29 99 41 156 40 187 15
313 -75 374 -35 24 -52 29 -130 32 -49 2 -103 2 -120 0z m221 -75 c72 -44 93
-176 53 -332 -54 -207 -194 -416 -398 -591 -92 -78 -365 -239 -424 -248 -16
-3 -18 8 -22 101 -7 188 -58 303 -202 461 -113 125 -193 257 -193 320 0 37 50
144 83 178 36 37 77 62 103 62 13 0 6 -12 -25 -42 -54 -53 -71 -92 -71 -160 0
-68 29 -126 91 -182 68 -61 142 -93 272 -116 114 -21 164 -18 286 12 91 23
189 97 217 164 17 40 18 103 3 154 -13 42 -77 116 -126 145 -18 11 -33 23 -33
28 0 13 106 56 163 67 74 13 185 2 223 -21z"></path>
<path class="node" id="node4" d="M748 2028 c-27 -36 -68 -148 -68 -185 0 -75 88 -237 155 -287 l26
-18 -25 44 c-62 111 -87 259 -68 403 5 39 8 71 7 73 -1 1 -13 -12 -27 -30z"></path>
<path class="node" id="node5" d="M1250 1980 c-31 -11 -67 -33 -84 -51 -24 -28 -28 -38 -23 -76 7 -66
65 -118 159 -141 214 -53 385 84 258 207 -27 26 -60 44 -107 60 -84 26 -131
26 -203 1z m195 -59 c51 -23 68 -44 68 -83 0 -22 -8 -38 -27 -55 -23 -19 -38
-23 -99 -23 -61 0 -78 4 -110 25 -90 62 -41 154 83 154 25 0 63 -8 85 -18z"></path>
<path class="node" id="node6" d="M2350 1678 c0 -35 -91 -221 -133 -270 -12 -15 -32 -40 -45 -56 -32
-42 -128 -134 -183 -176 -25 -19 -88 -57 -140 -85 -103 -56 -96 -65 24 -30
240 71 396 191 466 359 26 64 42 252 22 264 -6 4 -11 1 -11 -6z"></path>
<path class="node" id="node7" d="M640 1608 c0 -69 20 -109 74 -146 32 -21 176 -62 218 -62 20 1 17 4
-17 24 -85 51 -160 114 -212 179 -31 37 -57 67 -59 67 -2 0 -4 -28 -4 -62z"></path>
<path class="node" id="node8" d="M785 1321 c-16 -4 -43 -14 -59 -23 l-29 -15 65 -5 c100 -8 162 -60
192 -162 l13 -41 7 62 c16 131 -20 194 -112 192 -26 -1 -60 -4 -77 -8z"></path>
<path class="node" id="node9" d="M1059 1194 c-17 -96 -19 -408 -3 -424 8 -8 19 8 40 57 27 64 29 75
27 193 -1 106 -5 135 -26 189 l-24 64 -14 -79z"></path>
<path class="node" id="node10" d="M1775 975 c-66 -7 -128 -13 -139 -14 -16 -1 -16 -3 -5 -17 55 -66
194 -57 284 20 l30 25 -25 -1 c-14 0 -79 -7 -145 -13z"></path>
<path class="node" id="node11" d="M1515 911 c-9 -8 -135 -58 -187 -75 -35 -11 -17 -28 69 -68 114 -53
171 -68 269 -68 92 0 149 23 190 76 l24 30 -89 -4 c-78 -4 -95 -1 -135 19 -25
12 -63 40 -84 61 -40 41 -43 42 -57 29z"></path>
</g>
<g transform="translate(0.000000,300.000000) scale(0.100000,-0.100000)" fill="#A1A1A1" stroke="none">

<path class="node" id="node13" d="M1813 2150 c-57 -11 -163 -54 -163 -67 0 -5 15 -17 33 -28 49 -29
113 -103 126 -145 15 -51 14 -114 -3 -154 -28 -67 -126 -141 -217 -164 -122
-30 -172 -33 -286 -12 -130 23 -204 55 -272 116 -62 56 -91 114 -91 182 0 68
17 107 71 160 31 30 38 42 25 42 -26 0 -67 -25 -103 -62 -33 -34 -83 -141 -83
-178 0 -63 80 -195 193 -320 144 -158 195 -273 202 -461 5 -123 -3 -120 133
-52 301 149 532 373 654 633 100 213 102 429 4 489 -38 23 -149 34 -223 21z"></path>
<path class="node" id="node14" d="M1283 1925 c-66 -28 -68 -97 -6 -140 32 -21 49 -25 110 -25 61 0 76
4 99 23 31 27 37 74 13 103 -39 47 -151 68 -216 39z"></path>
</g>
</svg>