<!--?xml version="1.0" standalone="no"?--><svg version="1.0" xmlns="http://www.w3.org/2000/svg" width="300.000000pt" height="240.000000pt" viewBox="0 0 300.000000 240.000000" preserveAspectRatio="xMidYMid meet">
<metadata>
  <rdf:rdf xmlns:rdf="http://www.w3.org/1999/02/22-rdf-syntax-ns#" xmlns:rdfs="http://www.w3.org/2000/01/rdf-schema#" xmlns:dc="http://purl.org/dc/elements/1.1/">
    <rdf:description dc:title="hearts with banners" dc:publisher="Hiox" dc:date="2015-05-19" dc:format="image/svg+xml" dc:language="en">
      <dc:creator>
        <rdf:bag>
          <rdf:li>svgimages.com</rdf:li>
        </rdf:bag>
      </dc:creator>
    </rdf:description>
  </rdf:rdf>
</metadata>
<g transform="translate(0.000000,240.000000) scale(0.100000,-0.100000)" fill="#383838" stroke="none">
<path d="M2860 2376 c0 -44 -20 -77 -83 -140 -81 -80 -219 -153 -370 -195 -25
-8 -52 -20 -58 -27 -17 -20 -27 -17 -60 16 -43 43 -146 90 -212 97 -84 9 -225
-27 -304 -76 -53 -34 -123 -107 -152 -159 -9 -15 -14 -13 -43 14 -46 44 -129
88 -218 116 -65 20 -95 23 -220 22 -130 -1 -154 -3 -230 -28 -394 -129 -553
-499 -379 -878 38 -80 38 -80 -65 -141 -107 -63 -187 -95 -275 -108 -70 -11
-85 -10 -123 4 -24 10 -49 17 -56 17 -61 0 111 -91 218 -116 45 -10 100 -15
146 -12 41 2 74 0 74 -3 0 -4 -30 -22 -67 -41 -61 -30 -78 -33 -170 -36 -57
-2 -103 -8 -103 -13 0 -6 17 -17 38 -25 20 -8 51 -21 67 -29 59 -27 126 -38
195 -32 80 7 136 29 199 80 l45 36 20 -52 c25 -61 59 -84 154 -103 76 -16 105
-40 122 -104 23 -84 90 -128 182 -117 49 6 67 13 141 56 l39 22 96 -69 c107
-77 262 -226 314 -302 18 -28 39 -49 47 -47 8 1 31 43 51 92 52 130 87 194
228 419 148 236 242 396 242 412 0 6 28 22 63 34 156 57 262 134 292 215 18
45 18 44 -15 235 -8 44 -3 93 20 199 7 30 10 78 8 107 l-5 54 41 10 c107 26
193 96 246 199 16 33 60 179 60 201 0 27 -29 3 -68 -54 -26 -39 -63 -78 -95
-100 -53 -36 -127 -71 -127 -60 0 3 19 27 43 53 53 59 92 139 118 238 23 93
25 143 4 143 -9 0 -15 -9 -15 -24z m-39 -185 c-31 -82 -66 -134 -131 -194
l-61 -57 53 0 c71 0 149 37 216 103 28 28 52 46 52 39 0 -7 -13 -41 -28 -75
-38 -82 -115 -159 -188 -187 -72 -26 -98 -26 -117 4 -25 37 -112 76 -171 76
-47 0 -53 3 -75 35 -13 19 -21 41 -18 48 3 8 27 20 54 27 137 37 334 141 397
209 16 17 31 29 33 27 2 -2 -5 -27 -16 -55z m-643 -135 c162 -74 259 -266 250
-493 -4 -86 -6 -95 -33 -124 -53 -55 -168 -102 -400 -164 -226 -60 -388 -118
-533 -190 -181 -91 -298 -168 -421 -279 -72 -65 -98 -83 -110 -76 -30 16 -217
198 -258 252 -55 71 -106 163 -140 251 -24 64 -27 86 -27 197 -1 111 2 133 26
197 60 163 202 291 388 353 92 30 258 38 370 16 93 -17 215 -71 262 -116 59
-57 120 -174 142 -272 4 -20 11 -26 22 -21 12 4 14 14 9 42 -9 53 -33 121 -56
159 -10 18 -19 45 -19 59 0 50 93 148 179 189 131 62 242 68 349 20z m306
-216 c38 -14 59 -64 53 -124 -6 -53 -44 -166 -57 -166 -4 0 -10 37 -13 83 -6
75 -23 155 -42 200 -8 20 17 23 59 7z m100 -25 c54 -54 62 -99 37 -209 -25
-109 -27 -185 -5 -287 11 -47 14 -90 10 -114 -15 -80 -139 -173 -301 -225 -81
-27 -264 -97 -350 -135 -297 -130 -413 -196 -610 -343 -177 -133 -239 -156
-324 -118 -34 16 -42 27 -66 87 -32 82 -60 106 -143 120 -33 6 -73 19 -90 29
-40 25 -59 82 -44 136 l10 39 1 -38 c1 -49 24 -103 49 -116 30 -16 89 -13 129
5 19 10 80 58 137 108 126 113 216 180 326 241 191 108 359 175 605 240 165
43 296 86 364 118 112 54 200 167 235 304 21 80 20 111 -4 156 -25 46 -11 47
34 2z m-1892 -917 l22 -28 -24 -51 c-28 -59 -99 -127 -167 -160 -64 -31 -171
-37 -249 -13 l-59 17 47 8 c97 15 196 64 235 117 29 40 20 54 -25 35 -51 -21
-184 -20 -253 2 -75 24 -78 31 -16 38 86 9 249 82 355 159 24 17 24 17 68 -40
24 -31 53 -69 66 -84z m1492 -84 c-31 -55 -106 -178 -167 -274 -116 -184 -203
-343 -232 -423 -10 -26 -20 -47 -24 -47 -3 1 -22 21 -41 46 -51 66 -182 187
-282 262 -49 35 -88 68 -88 71 0 4 24 25 53 46 180 136 349 227 652 353 126
52 178 71 183 67 2 -2 -23 -47 -54 -101z m-1394 -15 c19 -17 55 -48 79 -69
l44 -38 -42 -22 c-50 -25 -93 -20 -116 13 -16 22 -22 147 -7 147 4 0 23 -14
42 -31z" id="node1" class="node"></path>
</g>
<g transform="translate(0.000000,240.000000) scale(0.100000,-0.100000)" fill="#FFFFFF" stroke="none">


<path d="M2804 2219 c-63 -68 -260 -172 -397 -209 -27 -7 -51 -19 -54 -27 -3
-7 5 -29 18 -48 22 -32 28 -35 75 -35 59 0 146 -39 171 -76 19 -30 45 -30 117
-4 73 28 150 105 188 187 15 34 28 68 28 75 0 7 -24 -11 -52 -39 -67 -66 -145
-103 -216 -103 l-53 0 61 57 c33 31 72 76 86 100 28 46 67 143 61 149 -2 2
-17 -10 -33 -27z" id="node4" class="node"></path>

<path d="M1934 2075 c-113 -31 -194 -84 -259 -169 -30 -39 -32 -73 -6 -118 23
-38 47 -106 56 -159 5 -28 3 -38 -9 -42 -11 -5 -18 1 -22 21 -22 98 -83 215
-142 272 -47 45 -169 99 -262 116 -112 22 -278 14 -370 -16 -186 -62 -328
-190 -388 -353 -24 -64 -27 -86 -26 -197 0 -111 3 -133 27 -197 34 -88 85
-180 140 -251 41 -54 228 -236 258 -252 12 -7 38 11 110 76 235 212 524 354
954 469 232 62 347 109 400 164 27 29 29 38 33 124 7 168 -37 301 -134 406
-94 102 -231 143 -360 106z" id="node6" class="node"></path>
<path d="M2425 1833 c19 -45 36 -125 42 -200 3 -46 9 -83 13 -83 13 0 51 113
57 166 9 81 -30 134 -99 134 -15 0 -18 -4 -13 -17z" id="node7" class="node"></path>
<path d="M2550 1813 c24 -45 25 -76 4 -156 -35 -137 -123 -250 -235 -304 -68
-32 -199 -75 -364 -118 -246 -65 -414 -132 -605 -240 -110 -61 -200 -128 -326
-241 -57 -50 -118 -98 -137 -108 -40 -18 -99 -21 -129 -5 -25 13 -48 67 -49
116 l-1 38 -10 -39 c-15 -54 4 -111 44 -136 17 -10 57 -23 90 -29 83 -14 111
-38 143 -120 24 -60 32 -71 66 -87 85 -38 147 -15 324 118 197 147 313 213
610 343 86 38 269 108 350 135 162 52 286 145 301 225 4 24 1 67 -10 114 -22
102 -20 178 5 287 25 110 17 155 -37 209 -45 45 -59 44 -34 -2z" id="node8" class="node"></path>
<path d="M558 1022 c-106 -77 -269 -150 -355 -159 -62 -7 -59 -14 16 -38 69
-22 202 -23 253 -2 45 19 54 5 25 -35 -39 -53 -138 -102 -235 -117 l-47 -8 59
-17 c78 -24 185 -18 249 13 68 33 139 101 167 160 l24 51 -22 28 c-13 15 -42
53 -66 84 -44 57 -44 57 -68 40z" id="node9" class="node"></path>
<path d="M2205 907 c-153 -50 -471 -198 -611 -283 -117 -71 -244 -162 -244
-175 0 -3 39 -36 88 -71 100 -75 231 -196 282 -262 19 -25 38 -45 41 -46 4 0
14 21 24 47 29 80 116 239 232 423 118 187 226 371 221 375 -2 1 -16 -2 -33
-8z" id="node10" class="node"></path>

<path d="M740 767 c0 -104 47 -139 131 -97 l42 22 -44 38 c-24 21 -60 52 -79
69 -19 17 -38 31 -42 31 -5 0 -8 -28 -8 -63z" id="node12" class="node"></path>
</g>
</svg>