<!--?xml version="1.0" standalone="no"?-->

<svg version="1.0" xmlns="http://www.w3.org/2000/svg" width="288.000000pt" height="300.000000pt" viewBox="0 0 288.000000 300.000000" preserveAspectRatio="xMidYMid meet">
<g transform="translate(0.000000,300.000000) scale(0.100000,-0.100000)" fill="#343434" stroke="none">
<path class="node" id="node1" d="M2097 2530 c-16 -10 -43 -42 -61 -71 -18 -30 -41 -56 -52 -58 -10 -2
-29 -13 -41 -25 -12 -11 -31 -30 -42 -40 -36 -33 -25 -59 36 -93 13 -7 29 -13
36 -13 19 0 16 -75 -3 -93 -8 -8 -44 -20 -80 -27 -36 -6 -84 -20 -108 -30 -53
-23 -148 -112 -173 -163 l-20 -38 -32 25 c-18 14 -60 38 -92 53 -56 26 -69 28
-190 28 -124 0 -133 -1 -185 -29 -61 -32 -142 -93 -169 -128 -10 -13 -31 -48
-47 -78 -28 -54 -29 -58 -29 -210 0 -145 2 -159 27 -217 29 -69 27 -73 -42
-73 -48 0 -115 23 -156 55 -29 22 -33 32 -39 90 -5 41 -15 75 -27 90 -23 30
-84 58 -108 50 -31 -10 -33 24 -2 36 37 14 80 56 105 104 16 31 21 61 22 130
1 59 7 103 18 129 22 50 21 89 -2 110 -10 9 -51 23 -90 32 -65 13 -83 13 -184
-2 -62 -9 -128 -16 -148 -15 -22 1 -45 -6 -61 -19 -15 -11 -31 -20 -37 -20
-20 0 -34 -46 -27 -85 5 -24 20 -49 42 -69 28 -26 39 -47 59 -124 36 -133 71
-172 165 -184 31 -4 43 -48 12 -48 -35 0 -59 -40 -66 -113 -6 -66 -6 -69 21
-95 15 -15 34 -39 42 -55 8 -15 25 -30 38 -33 22 -6 23 -10 17 -55 -8 -58 12
-89 55 -89 62 0 94 67 54 112 -16 18 -14 21 35 71 45 45 54 50 70 40 72 -52
118 -67 201 -69 79 -2 85 -3 93 -25 62 -166 383 -404 713 -528 91 -34 212 -71
232 -71 7 0 13 -1 13 -2 0 -2 7 -61 15 -133 8 -72 15 -144 15 -162 l0 -32 -55
25 c-81 37 -167 49 -267 36 -46 -6 -97 -18 -113 -26 -17 -9 -33 -16 -37 -16
-14 0 -77 -48 -71 -54 8 -8 1128 -7 1136 1 9 8 -45 44 -113 73 -48 21 -70 25
-170 25 -111 0 -117 -1 -179 -33 l-63 -34 6 64 c3 35 9 101 12 148 6 79 9 87
39 115 27 26 36 45 55 130 23 102 50 168 101 242 41 59 228 243 248 243 46 0
136 -22 152 -36 24 -22 24 -50 -1 -107 -19 -44 -21 -45 -77 -53 -32 -4 -65 -8
-73 -7 -8 1 -36 -3 -63 -9 -55 -11 -72 -33 -56 -74 8 -22 6 -35 -8 -61 -21
-39 -13 -60 33 -83 17 -9 43 -26 59 -38 16 -13 41 -22 59 -21 17 0 48 -3 68
-6 33 -7 40 -4 68 26 38 41 50 69 50 118 0 34 -24 94 -49 125 -8 10 -5 28 14
70 14 31 25 69 25 84 0 59 -53 92 -147 92 -24 0 -43 5 -43 11 0 6 15 29 34 52
107 132 143 310 97 476 -21 77 -32 101 -68 148 -19 26 -22 37 -13 52 5 11 10
31 10 45 0 13 8 38 18 55 15 28 16 33 2 58 -9 15 -29 31 -47 36 -24 7 -32 17
-37 40 -17 83 -69 229 -84 234 -9 4 -44 24 -78 44 -71 43 -129 69 -153 68 -9
0 -29 -9 -44 -19z m138 -51 c121 -62 123 -65 155 -162 16 -48 32 -102 35 -120
7 -34 6 -34 -29 -32 -19 1 -51 10 -71 19 -20 10 -44 15 -52 12 -9 -4 -25 2
-37 13 -12 11 -39 26 -61 34 -26 8 -39 18 -37 28 16 63 13 76 -19 123 -28 39
-34 44 -40 28 -4 -10 -19 -27 -35 -36 l-27 -18 31 53 c26 46 80 99 101 99 3 0
42 -19 86 -41z m-130 -119 c16 -18 17 -25 6 -61 -13 -42 -15 -44 -68 -53 l-32
-5 25 36 c13 20 24 48 24 63 0 44 16 52 45 20z m-84 -54 c-6 -36 -61 -63 -61
-31 0 9 -8 14 -22 12 -30 -3 -32 36 -3 42 11 2 26 12 33 22 12 18 14 17 35 -4
12 -12 20 -31 18 -41z m162 -89 c18 -8 38 -21 46 -30 8 -10 28 -17 50 -17 20
0 47 -7 59 -16 13 -9 31 -13 43 -9 14 5 28 0 45 -16 23 -22 25 -22 37 -5 11
15 17 17 35 7 26 -14 29 -46 5 -60 -13 -7 -18 -22 -18 -53 0 -40 -2 -43 -30
-46 -18 -3 -33 2 -41 13 -8 10 -14 12 -19 6 -10 -18 -43 -13 -63 9 -18 19 -21
19 -56 5 -37 -16 -37 -16 -67 16 -23 24 -33 29 -41 21 -30 -30 -108 -2 -108
40 0 20 -16 25 -22 7 -5 -16 -48 -1 -48 17 0 8 7 17 15 20 11 5 13 16 9 45 -5
31 -3 40 11 45 10 4 27 1 38 -5 17 -11 22 -10 29 3 11 20 48 21 91 3z m-168
-147 c11 -1 32 -12 47 -27 20 -19 39 -26 72 -27 24 -1 51 -7 58 -14 29 -23 67
-32 93 -20 20 9 28 8 42 -4 10 -9 36 -19 58 -22 22 -3 48 -8 57 -9 41 -8 92
-107 118 -230 17 -83 17 -100 5 -169 -24 -141 -69 -210 -268 -418 -59 -61
-120 -130 -136 -153 -40 -59 -77 -151 -91 -227 -6 -36 -18 -80 -25 -97 -13
-31 -17 -33 -62 -33 -70 0 -232 44 -353 96 -106 46 -350 170 -360 182 -3 4
-25 23 -50 42 -112 86 -189 165 -233 239 -152 257 -155 505 -7 652 102 103
205 137 362 119 91 -11 143 -30 206 -78 17 -13 32 -33 32 -44 0 -31 22 -16 36
25 21 59 70 120 134 166 69 48 114 61 190 56 30 -3 64 -5 75 -5z m-1430 -35
c20 -8 38 -20 41 -28 3 -8 -4 -42 -15 -75 -12 -35 -21 -87 -21 -122 0 -77 -25
-155 -58 -180 -35 -28 -98 -43 -160 -38 -77 7 -102 29 -134 124 -15 43 -27 87
-27 97 -1 9 -18 36 -39 60 -40 43 -55 78 -45 103 8 22 25 16 21 -7 -2 -18 6
-25 52 -41 78 -27 275 -22 336 9 55 29 70 48 54 68 -14 16 -50 21 -50 6 0 -5
5 -11 12 -13 17 -6 2 -26 -34 -44 -38 -20 -251 -33 -262 -16 -3 6 -1 29 6 51
12 38 16 41 63 49 82 15 221 14 260 -3z m-340 -30 c0 -16 -8 -21 -37 -23 -32
-3 -38 0 -38 16 0 27 10 33 45 30 22 -2 30 -8 30 -23z m195 -445 c0 -5 -4 -10
-10 -10 -5 0 -10 5 -10 10 0 6 5 10 10 10 6 0 10 -4 10 -10z m13 -72 c-3 -6
-12 -3 -20 5 -9 9 -12 20 -8 28 6 9 11 8 21 -6 7 -10 11 -22 7 -27z m118 -17
c32 -33 36 -57 14 -87 -19 -25 -19 -35 0 -28 17 7 22 -31 5 -41 -5 -3 -10 -1
-10 4 0 24 -18 9 -25 -21 -6 -26 -9 -29 -12 -13 -3 11 -9 24 -14 29 -5 6 -2
17 7 27 20 22 32 99 15 99 -6 0 -11 -13 -11 -30 0 -28 -29 -70 -49 -70 -44 0
-49 23 -25 106 14 50 18 54 45 54 20 0 40 -10 60 -29z m-147 -4 c27 -20 12
-67 -22 -67 -42 0 -80 49 -55 73 11 12 58 8 77 -6z m-33 -89 c22 -6 39 -17 39
-25 0 -7 7 -16 15 -19 30 -12 14 -24 -32 -24 -49 0 -83 20 -83 50 0 32 8 34
61 18z m127 -90 c7 -37 -98 -70 -119 -37 -14 23 -11 29 19 29 16 0 37 7 48 15
24 18 48 15 52 -7z m-28 -99 c0 -11 7 -22 15 -25 31 -12 10 -64 -27 -64 -26 0
-37 28 -25 64 5 17 12 37 13 44 5 19 24 4 24 -19z m2079 -209 c10 -5 31 -33
46 -62 24 -45 26 -56 16 -87 -6 -20 -22 -49 -37 -64 -24 -26 -29 -28 -82 -22
-57 7 -102 27 -102 45 0 6 -11 10 -25 10 -36 0 -41 23 -16 72 19 40 20 65 0
53 -5 -4 -9 3 -9 15 0 26 42 43 90 37 19 -3 44 -1 55 3 27 12 43 12 64 0z
m-593 -522 c-11 -222 -17 -234 -37 -73 -9 77 -20 155 -24 173 -7 32 -7 32 30
32 l38 0 -7 -132z"></path>
<path class="node" id="node2" d="M1837 1953 c-17 -16 -5 -33 23 -33 17 0 51 -10 75 -21 46 -21 64 -21
50 1 -9 15 -104 60 -126 60 -9 0 -19 -3 -22 -7z"></path>
<path class="node" id="node3" d="M1390 1888 c-66 -45 -69 -87 -4 -44 55 36 65 46 59 57 -9 14 -19 11
-55 -13z"></path>
<path class="node" id="node4" d="M1761 1858 c-36 -21 -64 -47 -84 -80 -16 -26 -33 -48 -36 -48 -3 0
-11 8 -17 18 -21 33 -101 64 -164 64 -99 0 -159 -50 -167 -139 -5 -45 -2 -51
36 -94 45 -52 94 -76 176 -85 49 -6 59 -4 96 20 39 26 41 27 55 9 7 -10 14
-21 14 -24 0 -14 70 -39 108 -39 79 0 156 50 197 129 7 15 19 54 25 86 11 51
10 68 -4 117 -23 76 -51 98 -125 98 -44 0 -67 -7 -110 -32z m164 2 c28 -11 65
-83 65 -126 0 -44 -42 -158 -69 -187 -29 -32 -102 -67 -137 -67 -37 0 -98 28
-113 52 -7 12 -15 46 -18 77 -4 47 -1 66 22 114 27 55 87 119 130 137 28 12
89 12 120 0z m-352 -100 c34 -23 57 -61 57 -93 0 -12 -5 -17 -13 -14 -21 8
-41 -9 -33 -28 4 -11 13 -15 26 -12 17 4 20 0 20 -23 0 -45 -51 -76 -119 -73
-70 3 -150 41 -175 84 -34 58 -14 142 42 174 40 23 152 15 195 -15z"></path>
<path class="node" id="node5" d="M1774 1635 c-9 -23 3 -45 25 -45 21 0 33 22 25 45 -4 8 -15 15 -25
15 -11 0 -22 -7 -25 -15z"></path>
<path class="node" id="node6" d="M2191 1809 c-34 -13 -52 -29 -45 -40 3 -5 16 -2 30 7 31 21 47 9 70
-52 38 -101 -4 -239 -106 -345 -68 -70 -145 -109 -275 -140 -85 -20 -125 -24
-265 -24 -150 0 -171 2 -230 24 -56 21 -173 86 -247 138 -34 23 -28 -1 8 -31
99 -83 241 -141 389 -158 110 -12 211 -2 383 36 66 16 166 59 178 79 13 20 38
-3 45 -40 13 -74 49 -112 107 -113 107 -1 173 100 143 217 -17 64 -49 100 -97
110 -33 6 -33 5 -14 58 19 53 19 172 0 209 -20 39 -19 46 9 46 37 0 40 17 5
24 -41 8 -59 7 -88 -5z m115 -368 c49 -30 69 -126 40 -196 -17 -39 -50 -64
-99 -72 -31 -5 -41 -1 -67 25 -19 20 -30 41 -30 59 0 16 -7 39 -16 51 -14 21
-13 24 12 47 15 14 32 24 38 21 44 -18 46 -18 46 -2 0 9 -5 16 -10 16 -20 0
-22 31 -5 50 23 25 51 25 91 1z"></path>
<path class="node" id="node7" d="M493 1878 c-4 -7 -8 -44 -8 -83 0 -38 -6 -85 -14 -103 -18 -44 -9
-50 34 -21 35 24 35 24 35 102 0 97 -21 144 -47 105z m27 -97 c0 -59 -4 -82
-16 -92 -13 -11 -14 -9 -7 17 4 16 7 57 6 92 0 34 3 62 8 62 5 0 9 -35 9 -79z"></path>

















</g>
<g transform="translate(0.000000,300.000000) scale(0.100000,-0.100000)" fill="#FFFFFF" stroke="none">

<path class="node" id="node26" d="M2111 2498 c-18 -13 -47 -47 -63 -77 l-31 -53 27 18 c16 9 31 26 35
36 6 16 12 11 40 -28 32 -47 35 -60 19 -123 -2 -10 11 -20 37 -28 22 -8 49
-23 61 -34 12 -11 28 -17 37 -13 8 3 32 -2 52 -12 20 -9 52 -18 71 -19 35 -2
36 -2 29 32 -15 81 -64 208 -87 224 -25 18 -179 99 -189 99 -3 0 -21 -10 -38
-22z"></path>
<path class="node" id="node27" d="M2067 2373 c-4 -3 -7 -18 -7 -33 0 -15 -11 -43 -24 -63 l-25 -36 32
5 c53 9 55 11 68 53 11 36 10 43 -6 61 -19 21 -28 24 -38 13z"></path>
<path class="node" id="node28" d="M1968 2351 c-7 -10 -22 -20 -33 -22 -29 -6 -27 -45 3 -42 14 2 22 -3
22 -12 0 -32 55 -5 61 31 2 10 -6 29 -18 41 -21 21 -23 22 -35 4z"></path>
<path class="node" id="node29" d="M2092 2214 c-7 -13 -12 -14 -29 -3 -11 6 -28 9 -38 5 -14 -5 -16 -14
-11 -45 4 -29 2 -40 -9 -45 -8 -3 -15 -12 -15 -20 0 -18 43 -33 48 -17 6 18
22 13 22 -7 0 -42 78 -70 108 -40 8 8 18 3 41 -21 30 -32 30 -32 67 -16 35 14
38 14 56 -5 20 -22 53 -27 63 -9 5 6 11 4 19 -6 8 -11 23 -16 41 -13 28 3 30
6 30 46 0 31 5 46 18 53 24 14 21 46 -5 60 -18 10 -24 8 -35 -7 -12 -17 -14
-17 -37 5 -17 16 -31 21 -45 16 -12 -4 -30 0 -43 9 -12 9 -39 16 -59 16 -22 0
-42 7 -50 17 -32 38 -121 56 -137 27z"></path>
<path class="node" id="node30" d="M1847 2069 c-86 -21 -200 -128 -231 -216 -14 -41 -36 -56 -36 -25 0
11 -15 31 -32 44 -63 48 -115 67 -206 78 -157 18 -260 -16 -362 -119 -148
-147 -145 -395 7 -652 44 -74 121 -153 233 -239 25 -19 47 -38 50 -42 10 -12
254 -136 360 -182 121 -52 283 -96 353 -96 45 0 49 2 62 33 7 17 19 61 25 97
14 76 51 168 91 227 16 23 77 92 136 153 199 208 244 277 268 418 12 69 12 86
-5 169 -26 123 -77 222 -118 230 -9 1 -35 6 -57 9 -22 3 -48 13 -58 22 -14 12
-22 13 -42 4 -26 -12 -64 -3 -93 20 -7 7 -34 13 -58 14 -33 1 -52 8 -72 27
-15 15 -36 26 -47 27 -11 0 -45 2 -75 5 -30 2 -72 0 -93 -6z m79 -133 c51 -24
71 -42 60 -53 -3 -3 -26 4 -51 16 -24 11 -58 21 -75 21 -18 0 -30 5 -30 13 0
34 28 35 96 3z m-481 -35 c6 -11 -4 -21 -59 -57 -65 -43 -62 -1 4 44 36 24 46
27 55 13z m508 -31 c16 -13 32 -42 43 -78 25 -87 2 -185 -62 -262 -34 -39
-102 -70 -156 -70 -38 0 -108 25 -108 39 0 3 -7 14 -14 24 -14 18 -16 17 -55
-9 -37 -24 -47 -26 -96 -20 -82 9 -131 33 -176 85 -38 43 -41 49 -36 94 8 89
68 139 167 139 63 0 143 -31 164 -64 6 -10 14 -18 17 -18 3 0 20 22 36 48 42
68 118 111 194 112 42 0 63 -5 82 -20z m326 -56 c35 -7 32 -24 -5 -24 -28 0
-29 -7 -9 -46 19 -37 19 -156 0 -209 -19 -53 -19 -52 14 -58 48 -10 80 -46 97
-110 30 -117 -36 -218 -143 -217 -58 1 -94 39 -107 113 -7 37 -32 60 -45 40
-12 -20 -112 -63 -178 -79 -172 -38 -273 -48 -383 -36 -148 17 -290 75 -389
158 -36 30 -42 54 -8 31 74 -52 191 -117 247 -138 59 -22 80 -24 230 -24 140
0 180 4 265 24 130 31 207 70 275 140 102 106 144 244 106 345 -23 61 -39 73
-70 52 -26 -17 -45 -6 -23 12 33 28 75 36 126 26z"></path>
<path class="node" id="node31" d="M1805 1860 c-43 -18 -103 -82 -130 -137 -23 -48 -26 -67 -22 -114 3
-31 11 -65 18 -77 15 -24 76 -52 113 -52 35 0 108 35 137 67 27 29 69 143 69
187 0 43 -37 115 -65 126 -31 12 -92 12 -120 0z m19 -225 c8 -23 -4 -45 -25
-45 -11 0 -22 7 -25 15 -9 23 3 45 25 45 10 0 21 -7 25 -15z"></path>
<path class="node" id="node32" d="M1378 1775 c-56 -32 -76 -116 -42 -174 25 -43 105 -81 175 -84 68 -3
119 28 119 73 0 23 -3 27 -20 23 -13 -3 -22 1 -26 12 -8 19 12 36 33 28 17 -7
17 24 1 59 -21 45 -71 70 -146 75 -48 2 -75 -1 -94 -12z"></path>
<path class="node" id="node33" d="M2215 1440 c-17 -19 -15 -50 5 -50 5 0 10 -7 10 -16 0 -16 -2 -16
-46 2 -6 3 -23 -7 -38 -21 -25 -23 -26 -26 -12 -47 9 -12 16 -35 16 -51 0 -18
11 -39 30 -59 26 -26 36 -30 67 -25 94 16 134 99 101 210 -20 66 -95 99 -133
57z"></path>
<path class="node" id="node34" d="M325 2038 c-47 -8 -51 -11 -63 -49 -7 -22 -9 -45 -6 -51 11 -17 224
-4 262 16 36 18 51 38 34 44 -7 2 -12 8 -12 13 0 15 36 10 50 -6 16 -20 1 -39
-54 -68 -61 -31 -258 -36 -336 -9 -46 16 -54 23 -52 41 4 23 -13 29 -21 7 -10
-25 5 -60 45 -103 21 -24 38 -51 39 -60 0 -10 12 -54 27 -97 32 -95 57 -117
134 -124 62 -5 125 10 160 38 33 25 58 103 58 180 0 35 9 87 21 122 11 33 18
67 15 75 -15 39 -170 55 -301 31z m205 -167 c5 -11 10 -55 10 -98 0 -78 0 -78
-35 -102 -43 -29 -52 -23 -34 21 8 18 14 65 14 103 0 69 7 95 25 95 5 0 14 -9
20 -19z"></path>
<path class="node" id="node35" d="M503 1798 c1 -35 -2 -76 -6 -92 -7 -26 -6 -28 7 -17 12 10 16 33 16
92 0 44 -4 79 -9 79 -5 0 -8 -28 -8 -62z"></path>
<path class="node" id="node36" d="M177 2024 c-4 -4 -7 -16 -7 -26 0 -16 6 -19 38 -16 29 2 37 7 37 23
0 15 -8 21 -30 23 -17 2 -34 0 -38 -4z"></path>
<path class="node" id="node37" d="M420 1560 c0 -5 5 -10 10 -10 6 0 10 5 10 10 0 6 -4 10 -10 10 -5 0
-10 -4 -10 -10z"></path>
<path class="node" id="node38" d="M425 1521 c-4 -8 -1 -19 8 -28 19 -20 30 -1 13 22 -10 14 -15 15 -21
6z"></path>
<path class="node" id="node39" d="M466 1446 c-24 -83 -19 -106 25 -106 20 0 49 42 49 70 0 17 5 30 11
30 17 0 5 -77 -15 -99 -9 -10 -12 -21 -7 -27 5 -5 11 -18 14 -29 3 -16 6 -13
12 13 7 30 25 45 25 21 0 -5 5 -7 10 -4 17 10 12 48 -5 41 -19 -7 -19 3 0 28
22 30 18 54 -14 87 -20 19 -40 29 -60 29 -27 0 -31 -4 -45 -54z"></path>
<path class="node" id="node40" d="M347 1473 c-25 -24 13 -73 55 -73 34 0 49 47 22 67 -19 14 -66 18
-77 6z"></path>
<path class="node" id="node41" d="M337 1383 c-13 -12 -7 -40 11 -56 12 -11 36 -17 65 -17 46 0 62 12
32 24 -8 3 -15 12 -15 19 0 8 -17 19 -39 25 -45 14 -46 14 -54 5z"></path>
<path class="node" id="node42" d="M466 1295 c-11 -8 -32 -15 -48 -15 -30 0 -33 -6 -19 -29 21 -33 126
0 119 37 -4 22 -28 25 -52 7z"></path>
<path class="node" id="node43" d="M466 1208 c-1 -7 -8 -27 -13 -44 -12 -36 -1 -64 25 -64 37 0 58 52
27 64 -8 3 -15 14 -15 25 0 23 -19 38 -24 19z"></path>
<path class="node" id="node44" d="M2505 980 c-11 -4 -36 -6 -55 -3 -48 6 -90 -11 -90 -37 0 -12 4 -19
9 -15 20 12 19 -13 0 -53 -25 -49 -20 -72 16 -72 14 0 25 -4 25 -10 0 -18 45
-38 102 -45 53 -6 58 -4 82 22 15 15 31 44 37 64 10 31 8 42 -16 87 -36 68
-61 83 -110 62z"></path>
<path class="node" id="node45" d="M1915 558 c4 -18 15 -96 24 -173 20 -161 26 -149 37 73 l7 132 -38 0
c-37 0 -37 0 -30 -32z"></path>
<path class="node" id="node46" d="M1050 66 c0 -8 5 -18 10 -21 6 -3 10 3 10 14 0 12 -4 21 -10 21 -5 0
-10 -6 -10 -14z"></path>
<path class="node" id="node47" d="M1125 71 c-3 -5 -1 -12 5 -16 5 -3 10 1 10 9 0 18 -6 21 -15 7z"></path>
<path stroke-width="20" class="node" id="node48" d="M1360 64 c0 -17 22 -14 28 4 2 7 -3 12 -12 12 -9 0 -16 -7 -16 -16z"></path>
</g>
</svg>