<!--?xml version="1.0" standalone="no"?-->

<svg version="1.0" xmlns="http://www.w3.org/2000/svg" width="300.000000pt" height="300.000000pt" viewBox="0 0 300.000000 300.000000" preserveAspectRatio="xMidYMid meet">
<g transform="translate(0.000000,300.000000) scale(0.100000,-0.100000)" fill="#121212" stroke="none">
<path class="node" id="node1" d="M1350 2989 c-173 -27 -214 -35 -307 -65 -383 -123 -684 -380 -876
-745 -47 -90 -111 -267 -128 -352 -38 -201 -48 -359 -30 -468 5 -30 14 -88 21
-129 69 -435 382 -855 789 -1060 194 -97 325 -133 584 -160 262 -27 648 68
881 218 370 239 625 617 685 1017 19 134 22 167 22 253 0 401 -152 772 -431
1052 -183 185 -397 314 -636 384 -182 53 -431 77 -574 55z m372 -105 c457 -78
842 -366 1033 -771 25 -54 50 -105 54 -113 17 -32 61 -209 76 -302 8 -54 15
-144 15 -200 0 -98 -29 -314 -50 -368 -5 -14 -14 -45 -20 -70 -12 -47 -107
-245 -152 -315 -73 -116 -217 -269 -343 -366 -103 -79 -312 -188 -403 -210
-26 -7 -54 -16 -63 -20 -34 -17 -272 -49 -367 -49 -151 0 -425 49 -500 90 -9
5 -57 27 -107 50 -353 162 -633 492 -743 875 -56 193 -68 428 -32 633 20 116
29 145 77 271 169 439 577 773 1053 861 126 23 349 25 472 4z"></path>
<path class="node" id="node2" d="M1291 2536 c-24 -28 -34 -113 -55 -451 -9 -137 -20 -297 -25 -355 -6
-58 -13 -148 -16 -200 -7 -109 -33 -357 -41 -382 -11 -38 -33 -27 -53 28 -12
30 -21 61 -21 68 0 18 -45 157 -59 184 -13 24 -43 29 -59 9 -6 -7 -24 -59 -41
-116 -16 -56 -37 -111 -47 -122 -15 -17 -33 -19 -226 -18 -116 0 -212 -2 -215
-5 -3 -3 -3 -13 1 -22 5 -14 30 -16 231 -12 183 2 227 6 239 18 18 19 66 145
66 175 0 12 6 27 13 33 11 9 17 -1 31 -51 49 -173 58 -198 78 -217 31 -29 63
-25 88 9 17 25 24 63 40 218 10 103 21 226 24 273 3 47 12 180 21 295 8 116
19 271 24 345 9 122 17 190 25 197 8 8 27 -297 36 -582 25 -753 60 -1262 93
-1363 13 -41 45 -54 66 -28 20 24 40 177 57 426 8 129 19 264 24 300 5 36 10
69 10 73 0 24 19 -9 25 -43 11 -67 51 -91 80 -47 14 22 46 177 60 297 10 81
45 230 55 230 13 0 36 -89 71 -270 45 -235 71 -331 92 -344 26 -17 48 3 73 65
12 29 26 54 30 56 5 2 17 -10 26 -27 l16 -29 144 -3 c79 -2 187 -2 241 0 86 3
98 6 95 20 -3 15 -26 17 -223 20 l-220 2 -35 40 c-32 37 -37 39 -60 28 -21
-12 -37 -41 -56 -107 -10 -34 -26 15 -59 185 -67 348 -91 424 -134 424 -44 0
-59 -54 -121 -414 -11 -66 -22 -121 -25 -124 -5 -5 -6 -2 -24 65 -9 33 -18 44
-37 49 -56 14 -56 11 -105 -606 -6 -74 -12 -144 -14 -155 -2 -11 -4 -26 -4
-33 -1 -7 -5 -11 -10 -8 -13 8 -30 140 -41 326 -6 91 -12 179 -15 195 -4 30
-7 101 -25 630 -5 154 -12 318 -15 365 -3 47 -10 168 -16 269 -6 101 -14 194
-19 207 -10 27 -41 32 -59 10z"></path>
</g>
<g transform="translate(0.000000,300.000000) scale(0.100000,-0.100000)" fill="#A4A4A4" stroke="none">





</g>
</svg>