<!--?xml version="1.0" standalone="no"?-->

<svg version="1.0" xmlns="http://www.w3.org/2000/svg" width="300.000000pt" height="299.000000pt" viewBox="0 0 300.000000 299.000000" preserveAspectRatio="xMidYMid meet">
<g transform="translate(0.000000,299.000000) scale(0.100000,-0.100000)" fill="#3F3F3E" stroke="none">
<path class="node" id="node1" d="M240 2873 c-19 -3 -43 -12 -52 -20 -22 -20 -24 -76 -3 -93 8 -7 15
-21 15 -31 0 -11 9 -28 21 -40 17 -17 29 -20 58 -15 l37 6 18 -148 c10 -81 20
-167 23 -192 2 -25 11 -97 18 -160 12 -107 12 -116 -4 -135 -78 -88 -121 -198
-128 -322 -9 -154 24 -266 108 -368 l41 -49 -92 -18 c-126 -24 -148 -55 -107
-154 l24 -56 -19 -55 c-10 -31 -18 -73 -18 -94 0 -21 -9 -54 -20 -74 -25 -45
-26 -87 -1 -109 28 -25 62 -16 86 21 25 41 35 41 35 3 0 -43 39 -80 83 -80 45
0 61 20 54 70 -5 42 2 50 23 24 21 -24 79 -14 103 18 27 37 14 66 -53 114 -27
20 -50 39 -50 44 0 4 15 11 34 14 49 9 86 42 86 76 0 55 -86 92 -124 54 -9 -8
-16 -20 -16 -25 0 -13 -66 -10 -124 5 -40 10 -52 19 -67 48 -10 19 -19 48 -21
64 -3 25 2 32 34 47 41 20 159 40 180 31 33 -15 227 -250 271 -329 29 -52 58
-138 68 -200 6 -34 20 -72 33 -90 17 -23 26 -53 34 -125 21 -180 24 -220 16
-220 -4 0 -42 12 -83 27 -68 24 -89 27 -201 27 -115 -1 -130 -3 -187 -28 -59
-27 -102 -60 -91 -71 7 -7 1159 -7 1166 0 13 12 -43 44 -117 65 -108 33 -252
32 -343 0 -37 -13 -70 -21 -72 -19 -3 3 1 34 8 69 7 36 21 109 31 162 9 54 19
98 22 98 3 0 48 11 101 25 206 55 404 141 533 233 79 56 223 190 298 276 29
33 37 37 65 32 181 -38 329 1 424 111 25 29 52 53 60 53 8 0 33 15 56 33 63
51 64 51 106 23 43 -28 78 -33 102 -14 26 22 59 87 56 110 -3 22 0 23 69 23
87 0 103 19 21 23 -32 2 -58 6 -58 10 0 4 14 57 30 117 16 61 30 111 30 112 0
18 -252 59 -284 47 -14 -5 -16 4 -16 64 0 39 -5 83 -12 96 -9 21 -8 29 5 44
21 23 22 62 2 88 -8 10 -15 36 -15 57 0 26 -4 37 -15 37 -8 0 -15 -9 -15 -20
0 -12 -9 -38 -20 -60 -25 -50 -25 -85 0 -110 25 -25 25 -26 0 -33 -18 -5 -20
-14 -20 -85 0 -94 12 -87 -162 -98 -60 -3 -112 -11 -117 -18 -6 -7 -6 -40 -1
-86 5 -41 9 -90 10 -107 0 -32 -1 -33 -45 -33 -33 0 -45 -4 -45 -15 0 -11 12
-15 46 -15 41 0 45 -2 39 -20 -4 -13 0 -31 9 -45 13 -20 25 -25 61 -25 33 0
45 -4 45 -15 0 -8 18 -27 40 -41 22 -15 40 -33 40 -40 0 -26 -72 -93 -128
-121 -51 -24 -68 -28 -157 -28 -55 0 -112 4 -127 8 l-26 7 18 37 c58 119 75
216 68 377 -4 91 -8 108 -40 171 -44 86 -78 124 -143 162 -103 61 -160 76
-280 76 -118 0 -184 -17 -270 -71 -26 -16 -40 -21 -43 -13 -8 24 -81 109 -118
137 -70 52 -119 71 -217 84 -81 10 -75 6 -230 180 -62 69 -135 150 -163 180
-153 166 -146 155 -139 194 7 32 3 39 -39 81 -47 46 -50 47 -126 38z m91 -47
c3 -24 -3 -41 -18 -52 -10 -7 -14 -19 -10 -33 4 -17 0 -25 -18 -33 -29 -13
-55 -5 -55 18 0 9 6 14 13 11 21 -8 38 8 31 27 -5 13 -14 17 -34 12 -22 -4
-29 -1 -33 15 -3 12 -3 27 0 35 6 16 59 19 68 4 10 -16 38 -12 32 4 -4 10 -1
13 9 9 7 -3 15 -10 15 -17z m49 -61 c0 -20 -28 -31 -43 -16 -8 8 -7 11 6 11 9
0 17 5 17 10 0 6 5 10 10 10 6 0 10 -7 10 -15z m14 -92 c23 -33 24 -38 11 -63
-7 -14 -21 -32 -29 -39 -18 -15 -22 -2 -30 87 -6 64 11 70 48 15z m90 -99 c36
-41 38 -46 26 -73 -12 -29 -63 -89 -106 -124 -21 -18 -21 -18 -34 61 l-12 80
38 50 c22 28 41 51 44 50 3 0 22 -20 44 -44z m91 -100 c48 -36 50 -50 11 -103
-51 -68 -153 -161 -177 -161 -4 0 -10 29 -14 63 l-7 64 57 54 c31 29 64 66 73
81 9 15 18 28 20 28 2 0 18 -11 37 -26z m108 -116 l29 -36 -30 -44 c-49 -70
-206 -208 -237 -208 -18 0 -22 8 -34 59 -6 30 -6 45 2 51 108 87 146 121 180
166 23 30 46 53 51 51 6 -2 23 -19 39 -39z m137 -153 c0 -25 -229 -125 -288
-125 -24 0 -21 4 34 52 78 69 143 138 150 161 5 17 13 13 55 -29 27 -27 49
-53 49 -59z m131 -40 c125 -13 241 -99 298 -220 33 -70 44 -81 39 -38 -3 25 3
31 70 64 124 61 217 72 345 40 98 -25 150 -53 201 -105 144 -150 153 -446 19
-648 -80 -121 -238 -275 -369 -360 -58 -37 -167 -91 -249 -122 -38 -15 -86
-34 -105 -42 -96 -39 -247 -74 -319 -74 -62 0 -79 19 -92 101 -21 129 -124
297 -294 479 -194 207 -217 252 -219 430 -1 153 32 253 111 340 30 34 42 40
75 40 66 0 200 39 289 85 58 30 93 42 114 39 17 -2 55 -6 86 -9z m1597 -30
c17 -37 15 -66 -3 -59 -8 4 -15 1 -15 -5 0 -6 -7 -8 -15 -5 -18 7 -20 47 -3
74 17 26 22 25 36 -5z m-2 -158 c8 -8 -24 -47 -38 -47 -5 0 -4 10 3 21 9 17 8
23 -2 30 -10 6 -7 8 8 6 12 -2 26 -6 29 -10z m-16 -82 c-7 -9 -15 -13 -18 -10
-3 2 1 11 8 20 7 9 15 13 18 10 3 -2 -1 -11 -8 -20z m6 -42 c-10 -10 -19 5
-10 18 6 11 8 11 12 0 2 -7 1 -15 -2 -18z m198 -38 c55 -8 101 -17 104 -19 2
-3 1 -14 -3 -25 -7 -22 -35 -30 -35 -10 0 7 -10 9 -25 5 -19 -5 -25 -2 -25 9
0 25 -38 9 -76 -31 -17 -19 -41 -34 -52 -34 -25 0 -52 35 -52 67 0 28 -7 28
-40 3 -18 -13 -28 -16 -37 -8 -9 7 -14 6 -19 -6 -3 -9 -10 -13 -15 -11 -5 3
-19 -1 -33 -10 -22 -14 -25 -14 -40 0 -8 9 -20 23 -24 32 -8 14 -12 14 -35 -2
-29 -18 -50 -12 -45 13 3 16 88 26 328 40 14 1 70 -5 124 -13z m-479 -25 c-3
-5 -10 -10 -16 -10 -5 0 -9 5 -9 10 0 6 7 10 16 10 8 0 12 -4 9 -10z m65 -45
c20 19 21 18 46 -8 l25 -27 -79 0 c-71 0 -80 2 -85 20 -8 32 23 43 50 18 22
-21 23 -21 43 -3z m238 -13 c3 -21 0 -22 -70 -21 l-73 1 35 16 c19 8 42 14 52
13 9 -1 19 3 23 9 10 17 30 6 33 -18z m178 9 c5 -5 25 -11 44 -13 19 -2 35 -7
35 -13 0 -12 -78 -19 -113 -10 -23 6 -24 7 -7 25 20 22 27 24 41 11z m-109
-58 c173 -6 180 -7 175 -26 -5 -19 -12 -20 -271 -14 -146 2 -274 8 -283 12
-10 4 -18 13 -18 21 0 16 102 18 397 7z m116 -69 c38 -6 44 -9 39 -26 -5 -19
-11 -20 -81 -14 -42 3 -157 6 -256 7 -99 1 -186 4 -192 7 -7 2 -13 13 -13 25
0 20 3 20 229 14 126 -4 249 -10 274 -13z m-403 -75 c86 -58 179 -65 271 -18
44 22 69 28 89 24 35 -8 52 -27 44 -49 -11 -27 -44 -34 -111 -23 -57 10 -65 9
-91 -10 -40 -30 -66 -35 -128 -27 -51 6 -57 10 -72 41 -15 32 -18 33 -59 27
-34 -5 -44 -3 -49 10 -16 43 55 60 106 25z m255 1 c-20 -33 -140 -36 -195 -5
-23 13 -15 14 88 15 71 0 111 -4 107 -10z m108 -107 c-7 -2 -21 -2 -30 0 -10
3 -4 5 12 5 17 0 24 -2 18 -5z m-250 -34 c-8 -8 -16 -8 -30 0 -16 9 -14 10 12
11 21 0 26 -3 18 -11z m-1943 -319 c11 -11 20 -24 20 -30 0 -20 -41 -50 -69
-50 -32 0 -54 -21 -49 -46 2 -9 26 -33 53 -51 28 -19 54 -41 58 -49 12 -20
-10 -54 -35 -54 -28 0 -84 39 -97 67 -12 27 -24 29 -41 8 -10 -12 -6 -25 19
-71 35 -60 31 -84 -14 -84 -32 0 -45 21 -49 76 -3 57 -28 81 -52 50 -8 -11
-14 -27 -14 -36 0 -23 -36 -54 -55 -47 -22 9 -19 60 6 91 16 20 20 36 16 61
-4 22 1 46 14 71 10 21 17 40 14 42 -3 3 0 11 6 19 13 15 49 18 49 4 0 -5 10
-8 23 -8 12 1 43 -2 68 -6 45 -8 46 -7 65 28 21 40 36 43 64 15z m426 -477
c-3 -16 -10 -57 -16 -93 -28 -167 -37 -205 -43 -180 -11 48 -29 279 -22 290 3
5 24 10 46 10 39 0 40 -1 35 -27z"></path>
<path class="node" id="node2" d="M954 2018 c-70 -40 -79 -46 -71 -54 4 -4 23 0 42 9 21 10 61 17 98
17 l62 1 -28 24 c-35 31 -51 31 -103 3z"></path>
<path class="node" id="node3" d="M933 1955 c-40 -17 -83 -97 -83 -155 0 -49 28 -131 64 -188 31 -49
108 -92 166 -92 38 0 95 30 121 62 l16 21 31 -23 c25 -19 44 -23 99 -23 143 0
243 97 218 211 -7 34 -58 86 -98 101 -71 27 -175 6 -229 -47 -26 -25 -38 -31
-38 -20 0 27 -88 115 -142 142 -59 29 -79 31 -125 11z m93 -21 c55 -23 109
-68 147 -123 29 -42 32 -53 32 -122 0 -86 -7 -98 -68 -128 -35 -17 -50 -18
-90 -11 -68 14 -101 41 -138 116 -56 113 -40 237 34 269 40 18 37 18 83 -1z
m418 -85 c22 -6 52 -24 68 -39 24 -24 28 -37 28 -81 0 -49 -3 -55 -44 -94 -34
-34 -55 -44 -102 -53 -65 -13 -113 -5 -145 24 -16 14 -19 32 -19 95 0 91 17
120 85 144 49 17 78 18 129 4z"></path>
<path class="node" id="node4" d="M1034 1685 c-4 -9 -2 -21 4 -27 15 -15 44 -1 40 19 -4 23 -36 29 -44
8z"></path>
<path class="node" id="node5" d="M1250 1695 c-14 -16 -5 -35 16 -35 15 0 20 35 5 44 -5 3 -14 -1 -21
-9z"></path>
<path class="node" id="node6" d="M1413 1958 c-37 -18 -28 -38 16 -38 24 0 48 -8 65 -21 47 -37 54 -14
8 30 -45 43 -54 46 -89 29z"></path>
<path class="node" id="node7" d="M568 1873 c-32 -8 -20 -26 13 -19 27 5 30 3 24 -12 -35 -90 -37 -144
-8 -231 17 -55 13 -66 -26 -74 -41 -8 -107 -70 -122 -114 -17 -52 -6 -110 28
-145 36 -38 94 -68 132 -68 44 0 96 50 116 110 18 55 25 58 63 31 158 -111
460 -151 682 -92 88 24 248 102 280 136 40 43 14 38 -49 -9 -56 -41 -153 -86
-184 -86 -7 0 -17 -4 -22 -9 -24 -22 -243 -48 -310 -37 -16 3 -73 10 -124 17
-52 6 -102 15 -110 19 -9 4 -50 24 -91 43 -130 62 -192 130 -236 259 -28 84
-31 157 -6 215 13 34 22 43 42 43 24 1 24 1 6 15 -19 14 -62 18 -98 8z m75
-380 c13 -24 12 -28 -12 -51 -21 -19 -22 -22 -6 -17 43 15 51 14 79 -10 l28
-26 -22 -55 c-28 -68 -72 -108 -112 -100 -37 7 -105 51 -118 77 -19 35 -16
107 7 137 52 70 131 93 156 45z"></path>















</g>
<g transform="translate(0.000000,299.000000) scale(0.100000,-0.100000)" fill="#FFFFFF" stroke="none">

<path class="node" id="node24" d="M307 2834 c6 -16 -22 -20 -32 -4 -9 15 -62 12 -68 -4 -3 -8 -3 -23 0
-35 4 -16 11 -19 33 -15 20 5 29 1 34 -12 7 -19 -10 -35 -31 -27 -7 3 -13 -2
-13 -11 0 -23 26 -31 55 -18 18 8 22 16 18 33 -4 14 0 26 10 33 24 19 26 60 3
69 -10 4 -13 1 -9 -9z"></path>
<path class="node" id="node25" d="M360 2770 c0 -5 -8 -10 -17 -10 -13 0 -14 -3 -6 -11 7 -7 19 -9 27
-6 17 7 22 37 6 37 -5 0 -10 -4 -10 -10z"></path>
<path class="node" id="node26" d="M346 2658 c8 -89 12 -102 30 -87 8 7 22 25 29 39 13 25 12 30 -11 63
-37 55 -54 49 -48 -15z"></path>
<path class="node" id="node27" d="M396 2568 l-38 -50 12 -80 c13 -79 13 -79 34 -61 43 35 94 95 106
124 12 27 10 32 -26 73 -22 24 -41 44 -44 44 -3 1 -22 -22 -44 -50z"></path>
<path class="node" id="node28" d="M518 2472 c-9 -15 -42 -52 -73 -81 l-57 -54 7 -64 c4 -34 10 -63 14
-63 43 0 218 190 205 223 -5 14 -66 67 -76 67 -2 0 -11 -13 -20 -28z"></path>
<path class="node" id="node29" d="M593 2346 c-34 -45 -72 -79 -180 -166 -8 -6 -8 -21 -2 -51 12 -51 16
-59 34 -59 31 0 188 138 237 208 l30 44 -29 36 c-16 20 -33 37 -39 39 -5 2
-28 -21 -51 -51z"></path>
<path class="node" id="node30" d="M716 2293 c-7 -23 -72 -92 -150 -161 -55 -48 -58 -52 -34 -52 59 0
288 100 288 125 0 6 -22 32 -49 59 -42 42 -50 46 -55 29z"></path>
<path class="node" id="node31" d="M751 2135 c-89 -46 -223 -85 -289 -85 -33 0 -45 -6 -75 -40 -79 -87
-112 -187 -111 -340 2 -178 25 -223 219 -430 170 -182 273 -350 294 -479 13
-82 30 -101 92 -101 72 0 223 35 319 74 19 8 67 27 105 42 82 31 191 85 249
122 131 85 289 239 369 360 134 202 125 498 -19 648 -51 52 -103 80 -201 105
-128 32 -221 21 -345 -40 -67 -33 -73 -39 -70 -64 5 -43 -6 -32 -39 38 -57
121 -173 207 -298 220 -31 3 -69 7 -86 9 -21 3 -56 -9 -114 -39z m306 -120
l28 -24 -62 -1 c-37 0 -77 -7 -98 -17 -37 -18 -63 -9 -30 10 60 37 102 57 117
57 9 0 30 -11 45 -25z m1 -71 c54 -27 142 -115 142 -142 0 -11 12 -5 38 20 54
53 158 74 229 47 40 -15 91 -67 98 -101 25 -114 -75 -211 -218 -211 -55 0 -74
4 -99 23 l-31 23 -16 -21 c-26 -32 -83 -62 -121 -62 -58 0 -135 43 -166 92
-36 57 -64 139 -64 188 0 58 43 138 83 155 46 20 66 18 125 -11z m444 -15 c46
-44 39 -67 -8 -30 -17 13 -41 21 -65 21 -44 0 -53 20 -16 38 35 17 44 14 89
-29z m-836 -64 c18 -14 18 -14 -6 -15 -20 0 -29 -9 -42 -43 -25 -58 -22 -131
6 -215 44 -129 106 -197 236 -259 41 -19 82 -39 91 -43 8 -4 58 -13 110 -19
51 -7 108 -14 124 -17 67 -11 286 15 310 37 5 5 15 9 22 9 31 0 128 45 184 86
63 47 89 52 49 9 -32 -34 -192 -112 -280 -136 -222 -59 -524 -19 -682 92 -38
27 -45 24 -63 -31 -20 -60 -72 -110 -116 -110 -38 0 -96 30 -132 68 -34 35
-45 93 -28 145 15 44 81 106 122 114 39 8 43 19 26 74 -29 87 -27 141 8 231 6
15 3 17 -24 12 -19 -4 -31 -2 -31 4 0 23 88 29 116 7z"></path>
<path class="node" id="node32" d="M943 1935 c-74 -32 -90 -156 -34 -269 37 -75 70 -102 138 -116 40 -7
55 -6 90 11 61 30 68 42 68 128 0 69 -3 80 -32 122 -38 55 -92 100 -147 123
-46 19 -43 19 -83 1z m135 -258 c4 -20 -25 -34 -40 -19 -15 15 -1 44 19 40 10
-2 19 -11 21 -21z"></path>
<path class="node" id="node33" d="M1315 1845 c-68 -24 -85 -53 -85 -144 0 -63 3 -81 19 -95 32 -29 80
-37 145 -24 47 9 68 19 102 53 41 39 44 45 44 94 0 44 -4 57 -28 81 -48 47
-124 61 -197 35z m-35 -166 c0 -20 -24 -26 -35 -9 -8 13 14 42 26 34 5 -3 9
-14 9 -25z"></path>
<path class="node" id="node34" d="M540 1498 c-52 -36 -73 -71 -73 -121 1 -25 6 -54 13 -66 13 -26 81
-70 118 -77 40 -8 84 32 112 100 l22 55 -28 26 c-28 24 -36 25 -79 10 -16 -5
-15 -2 6 17 24 23 25 27 12 51 -17 34 -57 36 -103 5z"></path>
<path class="node" id="node35" d="M2512 2140 c-17 -27 -15 -67 3 -74 8 -3 15 -1 15 5 0 6 7 9 15 5 18
-7 20 22 3 59 -14 30 -19 31 -36 5z"></path>
<path class="node" id="node36" d="M2509 1981 c10 -7 11 -13 2 -30 -15 -27 0 -27 24 -1 20 22 15 32 -18
37 -15 2 -18 0 -8 -6z"></path>
<path class="node" id="node37" d="M2520 1905 c-7 -9 -11 -18 -8 -20 3 -3 11 1 18 10 7 9 11 18 8 20 -3
3 -11 -1 -18 -10z"></path>
<path class="node" id="node38" d="M2526 1871 c-4 -7 -5 -15 -2 -18 9 -9 19 4 14 18 -4 11 -6 11 -12 0z"></path>
<path class="node" id="node39" d="M2435 1816 c-126 -9 -150 -14 -153 -28 -5 -25 16 -31 45 -13 23 16
27 16 35 2 4 -9 16 -23 24 -32 15 -14 18 -14 40 0 14 9 28 13 33 10 5 -2 12 2
15 11 5 12 10 13 19 6 9 -8 19 -5 37 8 33 25 40 25 40 -3 0 -32 27 -67 52 -67
11 0 35 15 52 34 38 40 76 56 76 31 0 -11 6 -14 25 -9 15 4 25 2 25 -5 0 -20
28 -12 35 10 4 11 5 22 3 25 -7 6 -200 34 -228 32 -14 0 -92 -6 -175 -12z"></path>
<path class="node" id="node40" d="M2230 1790 c0 -5 4 -10 9 -10 6 0 13 5 16 10 3 6 -1 10 -9 10 -9 0
-16 -4 -16 -10z"></path>
<path class="node" id="node41" d="M2238 1759 c-10 -5 -14 -17 -11 -29 5 -18 14 -20 85 -20 l79 0 -25
27 c-25 26 -26 27 -46 8 -20 -18 -21 -18 -43 3 -16 15 -27 18 -39 11z"></path>
<path class="node" id="node42" d="M2525 1750 c-4 -6 -14 -10 -23 -9 -10 1 -33 -5 -52 -13 l-35 -16 73
-1 c70 -1 73 0 70 21 -3 24 -23 35 -33 18z"></path>
<path class="node" id="node43" d="M2695 1730 c-17 -18 -16 -19 7 -25 35 -9 113 -2 113 10 0 6 -16 11
-35 13 -19 2 -39 8 -44 13 -14 13 -21 11 -41 -11z"></path>
<path class="node" id="node44" d="M2230 1676 c0 -8 8 -17 18 -21 9 -4 137 -10 283 -12 259 -6 266 -5
271 14 5 19 -2 20 -175 26 -295 11 -397 9 -397 -7z"></path>
<path class="node" id="node45" d="M2240 1613 c0 -12 6 -23 13 -25 6 -3 93 -6 192 -7 99 -1 214 -4 256
-7 70 -6 76 -5 81 14 5 17 -1 20 -39 26 -25 3 -148 9 -274 13 -226 6 -229 6
-229 -14z"></path>
<path class="node" id="node46" d="M2240 1545 c-7 -8 -9 -22 -6 -31 5 -13 15 -15 49 -10 41 6 44 5 59
-27 15 -31 21 -35 72 -41 62 -8 88 -3 128 27 26 19 34 20 91 10 67 -11 100 -4
111 23 8 22 -9 41 -44 49 -20 4 -45 -2 -89 -24 -92 -47 -185 -40 -271 18 -32
22 -84 25 -100 6z"></path>
<path class="node" id="node47" d="M2400 1535 c38 -22 107 -29 151 -16 73 22 54 31 -63 31 -103 -1 -111
-2 -88 -15z"></path>
<path class="node" id="node48" d="M2673 1433 c9 -2 23 -2 30 0 6 3 -1 5 -18 5 -16 0 -22 -2 -12 -5z"></path>
<path class="node" id="node49" d="M2423 1399 c14 -8 22 -8 30 0 8 8 3 11 -18 11 -26 -1 -28 -2 -12 -11z"></path>
<path class="node" id="node50" d="M446 1065 c-19 -35 -20 -36 -65 -28 -25 4 -56 7 -68 6 -13 0 -23 3
-23 8 0 14 -36 11 -49 -4 -6 -8 -9 -16 -6 -19 3 -2 -4 -21 -14 -42 -13 -25
-18 -49 -14 -71 4 -25 0 -41 -16 -61 -25 -31 -28 -82 -6 -91 19 -7 55 24 55
47 0 9 6 25 14 36 24 31 49 7 52 -50 4 -55 17 -76 49 -76 45 0 49 24 14 84
-25 46 -29 59 -19 71 17 21 29 19 41 -8 13 -28 69 -67 97 -67 25 0 47 34 35
54 -4 8 -30 30 -58 49 -27 18 -51 42 -53 51 -5 25 17 46 49 46 28 0 69 30 69
50 0 14 -38 50 -53 50 -7 0 -21 -16 -31 -35z"></path>
<path class="node" id="node51" d="M855 620 c-7 -11 11 -242 22 -290 6 -25 15 13 43 180 6 36 13 77 16
93 5 26 4 27 -35 27 -22 0 -43 -5 -46 -10z"></path>
<path class="node" id="node52" d="M1275 90 c3 -5 8 -10 11 -10 2 0 4 5 4 10 0 6 -5 10 -11 10 -5 0 -7
-4 -4 -10z"></path>
<path class="node" id="node53" d="M1954 109 c-3 -6 -1 -16 5 -22 8 -8 11 -5 11 11 0 24 -5 28 -16 11z"></path>
<path class="node" id="node54" d="M737 105 c-4 -8 -2 -17 3 -20 6 -4 10 3 10 14 0 25 -6 27 -13 6z"></path>
<path class="node" id="node55" d="M794 109 c-3 -6 -1 -16 5 -22 8 -8 11 -5 11 11 0 24 -5 28 -16 11z"></path>
<path class="node" id="node56" d="M1672 100 c0 -14 2 -19 5 -12 2 6 2 18 0 25 -3 6 -5 1 -5 -13z"></path>
<path class="node" id="node57" d="M1730 100 c0 -19 3 -21 12 -12 9 9 9 15 0 24 -9 9 -12 7 -12 -12z"></path>
<path class="node" id="node58" d="M1792 100 c0 -14 2 -19 5 -12 2 6 2 18 0 25 -3 6 -5 1 -5 -13z"></path>
<path class="node" id="node59" d="M2160 99 c0 -11 4 -18 10 -14 5 3 7 12 3 20 -7 21 -13 19 -13 -6z"></path>
</g>
</svg>