<!--?xml version="1.0" standalone="no"?-->

<svg version="1.0" xmlns="http://www.w3.org/2000/svg" width="284.000000pt" height="300.000000pt" viewBox="0 0 284.000000 300.000000" preserveAspectRatio="xMidYMid meet">
<g transform="translate(0.000000,300.000000) scale(0.100000,-0.100000)" fill="#2D2725" stroke="none">
<path class="node" id="node1" d="M755 2991 c-47 -12 -128 -57 -151 -83 -36 -38 -67 -109 -55 -121 8
-8 11 -6 11 6 0 26 54 80 107 107 40 21 62 25 133 25 84 0 104 -6 178 -49 37
-21 35 -24 -11 -19 -136 16 -288 -124 -288 -265 -1 -81 46 -157 116 -188 l30
-13 -33 -1 c-40 0 -95 -22 -138 -55 -39 -30 -100 -147 -109 -210 -10 -62 24
-160 76 -219 77 -87 235 -136 399 -122 l75 7 0 -83 c0 -60 5 -94 19 -123 10
-22 28 -59 39 -83 11 -24 44 -70 74 -103 73 -78 159 -120 260 -127 81 -5 97 8
34 26 -158 48 -297 220 -309 384 -9 120 29 243 98 317 35 38 34 46 -4 31 -23
-8 -31 -6 -52 15 -15 15 -24 36 -24 57 l-1 33 -22 -39 c-35 -63 -97 -126 -152
-154 -43 -23 -62 -27 -140 -27 -82 0 -94 2 -131 28 -63 43 -89 97 -88 183 1
68 3 75 45 135 37 53 55 69 109 96 38 19 56 33 44 33 -23 0 -64 41 -88 87 -36
72 -7 202 60 265 55 51 181 92 220 70 14 -8 7 -12 -39 -26 -148 -43 -243 -191
-192 -299 20 -42 73 -77 117 -77 92 0 190 161 148 241 -16 29 -30 23 -30 -13
0 -46 -39 -111 -73 -122 -40 -15 -61 2 -65 51 -3 37 1 44 44 82 54 48 87 52
145 19 43 -24 62 -60 61 -118 -2 -111 -91 -260 -178 -296 -18 -8 -52 -14 -75
-14 -39 0 -41 2 -37 25 7 32 -14 33 -35 1 -26 -39 -31 -74 -14 -99 10 -16 13
-38 10 -69 -7 -59 25 -134 62 -148 40 -15 45 -12 29 18 -7 15 -17 42 -20 60
-9 46 14 67 94 87 74 18 93 29 111 63 8 16 9 27 1 42 -13 25 -27 26 -35 2 -6
-20 -44 -42 -71 -42 -10 0 5 23 39 63 75 85 115 157 134 240 l16 70 14 -34
c22 -52 35 -180 25 -244 -8 -50 -7 -55 7 -49 65 28 82 16 103 -78 l12 -53 6
65 c4 36 11 74 17 85 5 11 16 43 22 70 7 28 24 65 37 83 21 26 32 32 64 32
104 0 170 -173 126 -335 -21 -81 -51 -134 -119 -209 l-28 -31 31 49 c35 59 36
67 11 90 -31 28 -35 69 -13 120 22 48 53 66 78 45 13 -10 17 -10 25 2 12 20
12 23 -12 53 -39 50 -113 28 -140 -41 -5 -14 -12 -60 -15 -102 -8 -100 -29
-169 -66 -208 l-30 -31 22 -32 c19 -26 24 -29 38 -18 11 9 9 1 -6 -22 -62
-100 -82 -153 -82 -226 0 -61 4 -76 30 -117 16 -26 34 -47 39 -47 6 0 8 32 4
84 -5 78 -4 86 23 135 19 36 57 78 120 131 165 142 223 255 224 440 0 117 -39
237 -90 277 -10 8 -11 12 -2 13 21 0 14 17 -22 52 -114 112 -82 189 127 307
l58 33 -20 -33 c-78 -128 0 -278 172 -330 78 -24 121 -24 172 0 44 20 69 45
80 79 l6 22 -33 -19 c-18 -11 -54 -25 -79 -31 -39 -10 -53 -9 -103 9 -136 47
-204 155 -161 251 29 65 101 87 161 51 35 -21 49 -58 35 -93 -11 -29 -57 -75
-82 -83 -27 -9 -24 -23 6 -31 17 -4 43 2 79 20 65 32 72 39 87 98 19 68 1 118
-57 162 -147 113 -427 0 -579 -234 -52 -80 -76 -126 -69 -133 3 -3 22 -3 43 0
36 5 111 -22 125 -46 3 -5 -11 0 -31 10 -99 50 -192 -6 -219 -131 -7 -30 -13
-44 -13 -30 -1 40 -57 251 -79 299 -19 43 -81 122 -170 221 -25 28 -72 63
-114 85 -63 34 -80 38 -157 41 -47 2 -99 0 -116 -5z"></path>
<path class="node" id="node2" d="M585 2959 c-240 -94 -397 -237 -501 -459 -63 -135 -84 -235 -84 -402
0 -144 16 -219 77 -356 12 -29 23 -55 23 -58 0 -13 115 -204 118 -195 2 5 -6
48 -17 96 -12 48 -21 103 -21 123 0 41 31 166 48 199 9 15 9 29 1 53 l-11 31
-23 -21 -23 -21 -20 33 c-82 134 -41 278 95 338 45 20 150 40 203 39 20 0 18
-3 -15 -15 -53 -19 -104 -71 -140 -141 -27 -52 -30 -68 -30 -148 0 -81 3 -97
32 -158 46 -97 129 -176 217 -207 l66 -24 -62 -16 c-100 -27 -178 -76 -215
-138 -43 -71 -24 -183 48 -273 27 -34 113 -100 145 -110 7 -2 62 -51 124 -109
141 -131 113 -105 270 -244 74 -65 157 -142 183 -170 86 -91 174 -238 212
-354 l17 -54 43 86 c72 146 149 225 334 348 126 83 230 160 231 171 0 16 -100
6 -168 -17 -89 -31 -191 -96 -259 -167 -60 -62 -69 -74 -108 -144 -15 -27 -29
-54 -32 -58 -2 -4 -15 14 -29 40 -13 26 -38 63 -56 82 -54 57 -118 153 -129
194 -14 54 4 128 42 168 27 28 34 31 74 27 43 -5 45 -4 45 20 0 85 -108 138
-204 98 -39 -16 -93 -93 -102 -145 -3 -20 -7 -40 -8 -46 -3 -13 -82 68 -100
103 -8 15 -19 45 -25 67 -6 22 -22 54 -36 70 -22 27 -24 28 -25 9 0 -24 -29
-54 -52 -54 -9 0 -63 18 -119 41 -117 46 -164 86 -205 174 -67 141 17 243 207
253 71 4 99 0 154 -18 36 -12 69 -19 72 -16 3 3 -8 21 -25 40 -16 19 -35 51
-42 71 -11 35 -10 55 6 119 6 25 4 26 -33 26 -21 0 -43 4 -49 8 -5 5 -29 14
-54 21 -141 41 -250 152 -266 274 -12 89 47 209 133 268 36 25 44 34 30 37
-14 3 -16 7 -6 18 9 11 7 14 -14 14 -31 0 -121 69 -141 108 -17 33 -40 152
-34 179 3 13 10 5 24 -27 25 -54 90 -115 134 -125 41 -9 87 11 105 45 18 34
12 41 -24 27 -41 -15 -89 16 -123 78 -34 61 -34 76 -4 141 26 56 65 92 145
134 28 15 48 30 44 34 -8 8 -8 8 -68 -15z"></path>
<path class="node" id="node3" d="M2305 2793 c25 -64 48 -182 41 -216 -9 -48 -51 -96 -111 -126 -42
-21 -57 -23 -143 -19 -83 5 -106 10 -159 36 -33 17 -77 45 -96 61 -19 17 -38
31 -41 31 -4 0 -4 -16 0 -36 5 -28 2 -42 -16 -66 -21 -28 -21 -30 -4 -49 11
-13 19 -41 22 -78 l4 -58 79 -6 c127 -8 209 -71 209 -158 0 -44 -34 -79 -76
-79 -37 0 -47 7 -70 50 -18 34 -19 34 -22 10 -7 -44 17 -100 51 -120 95 -58
209 12 209 129 0 61 -22 105 -85 164 l-51 47 132 0 c153 0 195 13 262 80 36
36 70 114 70 159 -1 42 -47 111 -122 184 -45 42 -83 77 -86 77 -2 0 -1 -8 3
-17z"></path>

<path class="node" id="node5" d="M2594 2662 c1 -37 -6 -58 -26 -90 -16 -23 -28 -51 -28 -63 0 -12 18
-58 39 -103 83 -170 115 -297 93 -370 l-8 -30 -23 37 c-29 47 -130 99 -198
102 -110 4 -211 -52 -258 -146 -30 -58 -32 -103 -5 -146 26 -43 41 -43 28 0
-16 52 17 119 74 148 86 44 198 21 245 -49 77 -115 4 -274 -145 -316 -72 -20
-85 -20 -150 -1 -60 18 -134 87 -173 160 -13 25 -28 45 -32 45 -14 0 4 -89 29
-141 50 -104 137 -166 261 -187 192 -33 404 109 482 323 49 137 54 426 8 565
-14 41 -39 101 -57 133 -30 54 -133 177 -149 177 -4 0 -7 -22 -7 -48z m54 -84
c19 -19 14 -40 -17 -77 -28 -34 -28 -34 -40 -13 -10 19 -9 27 9 51 11 16 20
34 20 40 0 14 13 14 28 -1z m53 -119 c9 -18 6 -25 -23 -50 -38 -32 -48 -35
-48 -14 0 17 41 85 52 85 4 0 12 -9 19 -21z m18 -161 c-28 -23 -36 -23 -44 3
-6 16 0 27 21 44 l29 23 8 -26 c5 -21 2 -31 -14 -44z"></path>

<path class="node" id="node7" d="M2503 2425 c-51 -98 -156 -157 -283 -159 -63 -1 -75 -4 -78 -19 -4
-21 25 -34 41 -18 18 18 27 13 27 -14 0 -19 5 -25 21 -25 12 0 23 8 26 18 2
11 20 22 45 29 37 10 41 9 45 -8 7 -24 27 -19 31 7 2 10 18 31 35 45 25 22 34
25 49 16 24 -16 47 5 29 27 -9 11 -7 20 12 42 l24 27 7 -26 c3 -15 11 -27 16
-27 21 0 20 23 -3 73 l-24 52 -20 -40z"></path>
<path class="node" id="node8" d="M1570 2120 c-23 -23 -26 -67 -5 -93 24 -33 58 -9 79 56 6 18 -25 57
-44 57 -5 0 -19 -9 -30 -20z"></path>
<path class="node" id="node9" d="M1845 2078 c-16 -123 -92 -251 -260 -442 -57 -65 -109 -134 -116
-153 -29 -88 21 -173 101 -173 54 0 82 13 125 56 59 59 87 132 92 244 4 61 2
91 -4 85 -6 -5 -25 -55 -42 -110 -49 -151 -90 -205 -157 -205 -70 0 -85 65
-31 142 17 26 66 74 109 107 144 115 206 199 230 313 10 46 8 64 -7 121 -10
37 -21 67 -26 67 -4 0 -10 -24 -14 -52z"></path>
<path class="node" id="node10" d="M2317 1949 c-17 -10 -47 -59 -47 -78 0 -12 48 -46 56 -39 2 3 0 17
-5 31 -9 22 -7 29 12 42 12 8 31 15 42 15 28 0 78 -65 70 -90 -10 -32 -54 -60
-95 -60 -46 0 -73 -24 -38 -34 70 -18 142 7 163 57 30 73 -27 167 -102 167
-21 0 -46 -5 -56 -11z"></path>
<path class="node" id="node11" d="M1906 1896 c-9 -19 -16 -40 -16 -48 0 -8 -14 -33 -31 -57 -29 -39
-31 -46 -25 -98 4 -31 13 -70 21 -87 34 -71 66 -187 77 -279 26 -214 -39 -356
-196 -433 -28 -13 -55 -24 -60 -24 -6 0 -33 -11 -61 -25 l-50 -25 108 4 c97 3
114 7 180 39 64 30 122 76 165 131 7 9 27 45 43 81 38 80 48 181 26 272 l-14
62 45 -32 c42 -30 49 -32 131 -32 76 0 93 4 145 30 59 30 156 108 156 126 0 5
-12 3 -27 -5 -49 -25 -169 -56 -216 -56 -48 0 -134 32 -186 70 -38 27 -100
121 -118 179 -7 25 -16 82 -18 126 -4 68 -8 82 -27 97 -31 24 -33 23 -52 -16z"></path>
<path class="node" id="node12" d="M1341 1776 c-54 -87 -67 -198 -30 -260 12 -20 24 -36 27 -36 4 0 7
30 7 68 1 54 7 80 33 134 18 37 32 71 32 75 -1 10 -36 53 -43 53 -3 0 -15 -15
-26 -34z"></path>
<path class="node" id="node13" d="M868 1715 c-14 -15 43 -191 89 -276 2 -3 -27 -9 -64 -13 -84 -8 -205
-48 -258 -84 -39 -27 -105 -105 -105 -124 0 -5 24 4 53 20 229 129 466 98 658
-85 52 -50 86 -93 109 -137 53 -106 51 -174 -7 -253 -41 -56 -109 -38 -141 36
l-15 36 -8 -29 c-15 -52 5 -117 47 -153 31 -27 46 -33 84 -33 40 0 52 5 82 34
38 37 54 89 79 261 6 44 18 96 25 115 20 47 69 96 124 123 61 30 146 116 170
172 20 46 27 125 12 125 -4 0 -18 -21 -32 -47 -37 -71 -110 -138 -177 -164
-88 -34 -218 -33 -296 3 -67 32 -154 110 -207 188 -43 64 -80 176 -80 244 l0
46 -68 0 c-38 0 -71 -2 -74 -5z"></path>
<path class="node" id="node14" d="M1857 1420 c-3 -8 -8 -43 -10 -78 -6 -70 -18 -89 -82 -130 -76 -48
-190 -172 -224 -245 -36 -75 -50 -137 -32 -137 30 0 145 69 227 137 91 75 164
212 164 307 0 49 -35 168 -43 146z"></path>
<path class="node" id="node15" d="M2126 1321 c-4 -6 -3 -27 3 -47 10 -38 0 -126 -21 -179 -6 -16 -24
-46 -40 -66 -45 -59 -36 -63 48 -23 74 35 107 84 107 160 l0 55 23 -22 c12
-11 25 -32 28 -45 8 -32 22 -30 41 6 19 36 19 53 0 90 -18 34 -45 51 -100 61
-22 4 -50 10 -61 14 -12 4 -25 2 -28 -4z"></path>










</g>
<g transform="translate(0.000000,300.000000) scale(0.100000,-0.100000)" fill="#B9849C" stroke="none">


<path class="node" id="node28" d="M2620 2579 c0 -6 -9 -24 -20 -40 -18 -24 -19 -32 -9 -51 12 -21 12
-21 40 13 31 37 36 58 17 77 -15 15 -28 15 -28 1z"></path>
<path class="node" id="node29" d="M2653 2445 c-23 -34 -30 -65 -15 -65 4 1 22 14 40 29 29 25 32 32 23
50 -16 28 -22 27 -48 -14z"></path>
<path class="node" id="node30" d="M2696 2345 c-21 -17 -27 -28 -21 -44 8 -26 16 -26 44 -3 16 13 19 23
14 44 l-8 26 -29 -23z"></path>
</g>
</svg>