<!--?xml version="1.0" standalone="no"?-->

<svg version="1.0" xmlns="http://www.w3.org/2000/svg" width="300.000000pt" height="300.000000pt" viewBox="0 0 300.000000 300.000000" preserveAspectRatio="xMidYMid meet">
<g transform="translate(0.000000,300.000000) scale(0.100000,-0.100000)" fill="#393939" stroke="none">
<path d="M2007 2963 c-76 -80 -49 -250 61 -389 40 -51 229 -220 237 -212 8 8
33 153 28 161 -2 4 -15 4 -29 1 -28 -7 -28 -8 -11 42 8 22 17 51 21 67 6 26 5
27 -34 27 -45 0 -49 8 -20 41 l20 24 -6 -27 c-6 -26 -4 -28 26 -28 l32 0 -7
-42 c-3 -24 -9 -51 -12 -61 -3 -13 2 -20 17 -24 21 -6 22 -10 16 -73 -3 -37
-3 -69 0 -73 7 -7 203 152 240 195 37 45 74 126 74 166 0 66 -40 114 -112 133
-68 18 -117 1 -190 -68 l-58 -56 -21 49 c-13 28 -49 76 -85 111 -59 60 -64 63
-111 63 -41 0 -54 -5 -76 -27z m112 -17 c36 -19 107 -97 128 -140 16 -34 16
-35 -20 -96 -21 -34 -37 -66 -37 -71 0 -5 18 -9 40 -9 45 0 45 0 26 -82 -8
-32 -11 -58 -8 -59 4 -1 17 0 30 1 23 2 27 -18 13 -68 -6 -22 -14 -15 -111 81
-72 71 -117 124 -139 167 -60 112 -53 246 12 278 30 14 34 14 66 -2z m450 -97
c18 -6 38 -24 47 -41 32 -62 -28 -165 -165 -287 l-73 -64 4 69 c3 63 1 69 -16
66 -17 -3 -18 1 -13 40 4 24 10 53 13 65 6 21 4 22 -25 17 -17 -4 -31 -2 -31
3 0 25 64 91 111 116 57 29 97 33 148 16z" id="node1" class="node"></path>
<path d="M516 2718 c-9 -24 -17 -62 -19 -85 -2 -46 -8 -48 -69 -17 -44 23 -77
18 -84 -12 -6 -23 3 -53 47 -161 7 -18 10 -35 6 -39 -4 -4 -26 3 -50 16 -67
36 -81 25 -72 -55 3 -36 4 -65 1 -65 -3 0 -27 14 -53 30 -26 17 -55 30 -65 30
-40 0 -52 -91 -18 -131 l20 -24 21 25 21 25 21 -30 c48 -65 80 -95 102 -95 27
0 58 39 69 84 l7 29 42 -40 c75 -73 117 -63 117 28 0 55 9 60 63 33 50 -26
107 -72 174 -144 64 -66 77 -87 46 -75 -10 4 -43 11 -73 16 -135 24 -216 -84
-141 -188 16 -22 45 -47 64 -56 43 -21 146 -22 202 -2 21 8 40 13 41 12 15
-20 86 -194 120 -294 40 -115 56 -185 45 -196 -5 -5 -45 -13 -89 -18 -86 -10
-126 -21 -137 -39 -10 -17 20 -55 53 -69 23 -10 33 -22 39 -49 7 -32 16 -41
65 -64 56 -28 56 -28 63 -80 4 -29 17 -98 31 -153 13 -55 24 -122 24 -150 1
-76 18 -196 31 -211 6 -8 26 -14 43 -14 24 0 36 -7 49 -29 17 -28 17 -30 -2
-36 -22 -7 -36 -38 -26 -56 4 -5 -1 -19 -10 -29 -16 -18 -17 -21 -1 -45 9 -14
21 -25 27 -25 6 0 23 -9 37 -21 31 -24 68 -20 138 13 43 21 44 21 65 2 45 -41
62 -110 40 -168 -7 -18 -6 -28 4 -36 19 -16 279 -33 389 -27 63 4 105 2 145
-9 32 -9 119 -18 201 -20 127 -5 149 -3 180 13 19 10 39 28 44 39 11 24 61 34
171 34 33 0 77 5 97 10 43 12 98 55 98 76 0 23 -61 54 -106 54 l-41 0 20 58
c14 40 21 84 21 147 1 108 -22 166 -92 231 -40 38 -43 43 -30 63 11 20 10 24
-9 41 -13 10 -23 20 -23 23 0 2 18 7 41 11 52 8 113 39 133 68 27 39 20 81
-23 136 -55 70 -213 165 -317 191 -22 6 -58 26 -81 46 -38 32 -41 39 -52 112
-6 43 -24 114 -40 160 l-28 82 38 6 c22 4 39 9 39 12 0 3 -43 50 -95 106 -52
56 -95 104 -95 108 0 4 22 9 50 13 112 15 248 86 302 158 97 131 42 268 -108
268 -41 0 -278 -69 -469 -136 -54 -18 -247 -54 -295 -54 -21 0 -41 4 -44 9 -3
5 9 31 27 59 19 27 42 80 51 118 33 130 -13 235 -110 253 -90 17 -179 -18
-221 -89 -9 -17 -20 -30 -23 -30 -3 0 -17 20 -31 44 -52 85 -140 128 -206 101
-54 -23 -77 -87 -70 -194 l6 -86 -22 26 c-12 15 -44 57 -72 95 -99 137 -247
314 -288 344 -56 41 -72 39 -91 -12z m90 -40 c22 -24 113 -134 202 -245 90
-112 171 -208 180 -215 9 -7 30 -39 47 -71 40 -80 139 -173 194 -182 23 -4 48
-2 60 5 17 9 21 8 21 -5 0 -17 -35 -55 -50 -55 -5 0 -10 -5 -10 -11 0 -6 14
-9 32 -7 44 4 67 40 70 113 3 54 5 60 23 55 11 -2 40 -4 65 -3 25 1 70 1 100
0 107 -2 176 4 274 23 97 20 270 69 331 94 90 38 209 68 243 61 59 -11 89 -32
102 -69 17 -52 -2 -106 -54 -158 -162 -162 -555 -194 -841 -67 l-47 21 28 20
29 20 -40 -7 c-50 -9 -77 -23 -72 -38 2 -7 30 -23 63 -36 134 -54 320 -91 457
-91 58 0 60 -1 110 -53 29 -29 67 -71 85 -94 l32 -41 -62 -7 c-85 -10 -269
-57 -354 -90 -158 -62 -344 -183 -489 -318 -37 -35 -43 -37 -85 -31 -74 11
-90 20 -90 53 0 52 -90 372 -111 396 -5 5 -9 15 -9 23 0 7 -16 48 -36 90 -21
42 -37 84 -38 92 -1 17 -10 17 -86 -5 -73 -20 -115 -19 -166 5 -53 26 -76 60
-72 107 4 44 42 71 100 72 47 1 58 -15 16 -24 -45 -9 -112 -55 -99 -68 7 -7
15 -6 26 3 12 10 22 9 52 -5 27 -13 50 -16 94 -12 44 5 60 3 69 -8 7 -8 19
-15 26 -15 25 0 15 24 -23 59 -21 18 -29 27 -18 20 11 -7 32 -24 47 -37 93
-84 44 146 -59 277 -37 46 -153 145 -217 185 -17 10 -46 23 -63 28 -37 10 -37
12 -53 135 -12 90 -4 153 19 153 5 0 26 -19 47 -42z m-143 -107 c43 -18 46
-23 53 -67 4 -31 3 -54 -5 -66 -16 -26 -8 -34 39 -36 64 -3 190 -76 190 -111
-1 -40 -15 -40 -85 -5 -38 19 -78 34 -89 32 -26 -4 -46 -43 -46 -91 l0 -38
-66 51 c-36 27 -71 50 -78 50 -7 0 -23 -12 -37 -26 l-24 -27 28 5 c27 5 28 4
22 -21 -3 -14 -15 -35 -26 -46 -20 -20 -20 -20 -50 15 -73 85 -89 99 -104 94
-8 -4 -15 -12 -15 -20 0 -8 -4 -14 -10 -14 -12 0 -14 67 -2 74 9 5 26 -4 91
-47 23 -15 47 -25 53 -21 7 4 9 31 5 75 -3 38 -4 69 -2 69 21 0 112 -46 123
-61 33 -47 29 4 -8 110 -22 63 -40 120 -40 127 0 19 31 17 83 -5z m670 -62
c33 -17 99 -79 123 -114 l22 -31 -33 -72 c-37 -79 -122 -195 -139 -189 -41 12
-98 243 -82 329 13 72 58 103 109 77z m439 -43 c29 -17 41 -72 35 -152 -5 -70
-19 -114 -36 -114 -18 0 -168 90 -208 125 -49 42 -52 54 -20 88 64 69 166 93
229 53z m-252 -225 c0 -8 -6 -11 -16 -7 -9 3 -22 6 -30 6 -11 0 -11 7 4 36
l17 36 12 -28 c7 -16 12 -35 13 -43z m50 34 c6 -8 9 -19 5 -25 -11 -17 -22
-11 -27 15 -6 28 3 32 22 10z m-572 -18 c7 -8 7 -17 -2 -30 -25 -33 -56 -13
-34 23 15 23 22 25 36 7z m62 -62 c11 -13 11 -20 0 -40 l-13 -25 -24 22 c-25
24 -30 44 -10 51 22 9 34 7 47 -8z m563 -11 c12 9 27 19 34 22 14 7 96 -36 96
-51 1 -21 -81 -68 -121 -69 -55 -1 -72 16 -72 75 l0 49 21 -21 c19 -19 22 -19
42 -5z m-133 -44 c28 15 30 13 30 -25 0 -54 -35 -115 -65 -115 -25 0 -97 39
-110 60 -3 5 13 32 36 60 l42 49 24 -19 c19 -15 30 -17 43 -10z m-382 -34 c9
-20 8 -27 -4 -37 -13 -10 -17 -10 -25 2 -15 25 -9 59 11 59 4 0 12 -11 18 -24z
m34 -91 c4 -16 1 -25 -8 -25 -17 0 -25 15 -18 34 9 24 21 19 26 -9z m-123 -51
c9 -9 -5 -12 -31 -7 -16 3 -28 10 -28 15 0 9 49 3 59 -8z m1404 -418 c33 -73
56 -181 60 -291 4 -93 -6 -262 -16 -272 -4 -3 -37 15 -74 39 -134 87 -128 85
-268 97 -229 19 -400 34 -403 36 -3 3 138 194 191 258 46 55 92 87 169 117 80
32 228 69 275 69 41 1 42 0 66 -53z m-569 -153 c-16 -21 -29 -40 -31 -42 -4
-6 -33 20 -33 29 0 9 82 59 89 54 1 -2 -10 -20 -25 -41z m-59 -62 c3 -5 -5
-21 -17 -36 l-23 -26 -25 26 -25 27 23 19 c24 19 51 14 67 -10z m-475 -61 c0
-27 -3 -30 -32 -29 -18 0 -27 3 -20 6 24 9 11 23 -22 23 -67 0 -84 -18 -38
-40 59 -27 378 -88 552 -105 36 -3 110 -12 165 -20 55 -7 148 -17 208 -21 59
-3 107 -11 107 -16 0 -5 5 -6 10 -3 6 3 53 -22 106 -56 79 -53 94 -67 90 -84
-3 -11 -6 -26 -6 -32 0 -9 -24 -13 -82 -14 l-83 -1 60 -9 c94 -14 94 -15 39
-64 -61 -55 -41 -58 31 -5 30 22 59 40 65 40 6 0 18 -17 28 -37 15 -35 16 -36
20 -14 2 14 -5 36 -19 54 -21 29 -21 34 -10 96 27 156 35 191 46 195 6 2 39
-3 72 -12 67 -18 84 -12 65 18 -10 17 -10 20 3 20 17 0 115 -47 115 -55 0 -3
-18 -14 -41 -25 -22 -12 -48 -34 -57 -50 l-16 -28 -41 31 c-22 18 -50 43 -62
57 -22 25 -31 18 -14 -9 7 -11 1 -25 -20 -48 -29 -33 -39 -85 -20 -98 6 -3 6
-17 -1 -35 -8 -24 -7 -38 6 -65 22 -46 46 -59 75 -39 19 14 22 14 27 -3 16
-49 26 -63 50 -69 23 -6 32 -1 56 25 27 30 29 31 56 17 l27 -15 -69 -31 c-115
-52 -302 -102 -566 -150 -195 -36 -388 -56 -401 -43 -6 6 -5 30 1 62 13 70 13
241 0 241 -5 0 -10 -15 -10 -34 0 -18 -3 -61 -7 -96 l-6 -62 -136 4 c-149 4
-172 11 -197 60 -46 89 -114 348 -91 348 2 0 41 -14 88 -31 219 -81 656 -229
675 -229 21 0 149 229 141 253 -3 11 -32 -26 -64 -83 -10 -19 -32 -57 -49 -83
-27 -46 -31 -48 -63 -42 -39 7 -251 77 -415 137 -61 22 -129 47 -151 55 -96
34 -271 106 -282 115 -17 14 -16 28 2 28 31 0 13 21 -45 50 -93 47 -81 61 65
73 90 8 85 9 85 -23z m385 0 c28 -29 28 -30 9 -52 -10 -13 -20 -25 -22 -27 -1
-3 -18 11 -37 29 l-35 34 22 23 c27 29 28 29 63 -7z m-89 -63 c32 -34 36 -46
17 -42 -10 2 -35 7 -57 10 l-38 6 23 25 c27 29 29 29 55 1z m1010 -64 c-2 -2
-18 3 -35 11 -16 9 -39 16 -51 16 -14 0 -20 6 -20 23 0 39 11 38 62 -5 27 -22
47 -43 44 -45z m271 -115 c30 -22 58 -49 64 -59 32 -61 -20 -118 -121 -134
-80 -12 -110 -25 -126 -56 -8 -17 -21 -29 -27 -26 -18 6 -37 48 -37 85 0 40
-21 42 -48 5 -11 -16 -24 -24 -28 -20 -12 12 24 73 52 87 20 11 27 11 44 -5
25 -23 28 0 3 27 -27 30 -58 22 -97 -24 -21 -26 -36 -37 -36 -27 0 21 57 108
76 116 19 7 64 -36 92 -90 14 -27 21 -33 26 -22 3 8 -3 30 -14 48 -11 17 -20
39 -20 48 0 32 75 82 134 88 5 1 33 -18 63 -41z m-307 -1 c0 -7 -13 -26 -30
-42 -31 -29 -39 -21 -19 18 19 35 49 50 49 24z m-1156 -412 c20 -38 36 -73 36
-77 0 -14 -48 -8 -64 8 -11 11 -16 35 -16 81 0 37 2 64 4 62 2 -2 20 -35 40
-74z m1398 28 c72 -75 93 -123 93 -218 0 -103 -25 -185 -63 -207 -79 -46 -270
-106 -294 -92 -4 3 8 27 26 53 55 77 79 139 80 204 l1 57 94 0 c112 0 114 17
5 29 -64 7 -67 8 -34 15 19 5 44 15 54 22 17 12 11 13 -46 7 l-65 -6 -7 39
c-4 21 -14 51 -23 67 -17 34 -15 37 45 59 71 25 83 22 134 -29z m-186 -101 c7
-48 8 -47 -23 -56 -19 -6 -23 -2 -29 21 -4 15 -15 45 -25 65 -24 47 -24 47 4
58 30 12 64 -29 73 -88z m-1017 62 c66 -4 121 -7 121 -8 -1 -19 -42 -202 -52
-228 -19 -52 -123 -117 -163 -102 -23 9 -18 18 20 38 49 26 37 31 -24 9 -38
-13 -53 -15 -62 -6 -17 17 -2 32 46 44 49 12 51 32 2 27 -17 -2 -32 2 -34 8
-5 15 40 26 71 18 50 -12 46 7 -23 109 -68 99 -78 127 -42 107 10 -5 73 -12
140 -16z m898 -26 c11 -18 24 -48 31 -65 10 -30 9 -33 -11 -37 -138 -29 -185
-41 -181 -48 8 -12 51 -10 129 7 38 8 71 13 73 11 4 -4 -66 -46 -77 -46 -5 0
-14 -7 -21 -15 -20 -24 7 -18 85 19 39 18 73 31 78 29 29 -17 -18 -165 -81
-250 -25 -35 -46 -63 -47 -63 -1 0 -50 -9 -111 -20 -149 -28 -406 -45 -519
-34 l-90 9 3 56 c4 62 -12 104 -56 151 l-25 27 21 48 c11 26 23 67 27 90 8 48
9 48 140 58 200 15 427 52 570 94 17 5 33 9 37 10 3 1 15 -14 25 -31z m-999
-109 c7 -12 11 -23 8 -26 -7 -7 -25 6 -36 28 -15 27 11 26 28 -2z m1357 -318
c-8 -17 -20 -31 -25 -31 -6 0 -1 19 11 43 12 23 24 37 26 30 2 -6 -3 -25 -12
-42z m134 35 c13 -15 5 -24 -46 -50 -32 -16 -73 -22 -73 -10 0 4 9 22 21 40
17 28 27 34 54 34 18 0 38 -6 44 -14z m-179 -24 c0 -5 -8 -16 -18 -25 -22 -20
-119 -37 -108 -19 4 7 13 12 20 12 7 0 30 9 52 20 44 22 54 24 54 12z m-197
-73 c37 -10 38 -11 22 -30 -19 -20 -67 -33 -108 -27 l-26 3 20 33 c23 35 34
37 92 21z m-123 -12 c0 -20 -36 -49 -55 -45 -15 2 -13 7 9 31 27 29 46 35 46
14z m-92 -27 c-13 -21 -31 -23 -83 -10 l-30 7 40 7 c22 4 45 9 50 11 28 10 35
5 23 -15z" id="node2" class="node"></path>
<path d="M2360 2026 c0 -9 7 -16 16 -16 17 0 14 22 -4 28 -7 2 -12 -3 -12 -12z" id="node3" class="node"></path>
<path d="M2307 1984 c-10 -14 -13 -25 -7 -29 13 -8 27 1 40 25 15 28 -12 32
-33 4z" id="node4" class="node"></path>
<path d="M2217 1940 c-17 -18 -24 -31 -17 -35 16 -10 60 23 60 45 0 26 -9 24
-43 -10z" id="node5" class="node"></path>
<path d="M2125 1925 c-16 -13 -26 -27 -23 -30 10 -10 68 24 68 40 0 21 -10 18
-45 -10z" id="node6" class="node"></path>
<path d="M1054 1179 c-7 -12 15 -31 28 -23 9 6 -1 34 -12 34 -5 0 -12 -5 -16
-11z" id="node7" class="node"></path>
<path d="M1152 1149 c2 -6 8 -10 13 -10 5 0 11 4 13 10 2 6 -4 11 -13 11 -9 0
-15 -5 -13 -11z" id="node8" class="node"></path>
<path d="M1282 2698 c17 -25 94 -88 109 -88 24 0 4 29 -46 68 -62 47 -86 55
-63 20z" id="node9" class="node"></path>
<path d="M981 2643 c-11 -27 -28 -60 -38 -75 -19 -31 -12 -48 13 -27 22 18 74
110 74 132 0 34 -28 16 -49 -30z" id="node10" class="node"></path>
</g>
<g transform="translate(0.000000,300.000000) scale(0.100000,-0.100000)" fill="#FFFFFF" stroke="none">

<path d="M2053 2948 c-65 -32 -72 -166 -12 -278 22 -43 67 -96 139 -167 97
-96 105 -103 111 -81 14 50 10 70 -13 68 -13 -1 -26 -2 -30 -1 -3 1 0 27 8 59
19 82 19 82 -26 82 -22 0 -40 4 -40 9 0 5 16 37 37 71 36 61 36 62 20 96 -30
63 -130 156 -164 153 -4 0 -18 -5 -30 -11z" id="node12" class="node"></path>
<path d="M2421 2833 c-47 -25 -111 -91 -111 -116 0 -5 14 -7 31 -3 29 5 31 4
25 -17 -3 -12 -9 -41 -13 -65 -5 -39 -4 -43 13 -40 17 3 19 -3 16 -66 l-4 -69
73 64 c93 82 143 146 164 208 15 45 15 53 1 79 -29 57 -113 67 -195 25z" id="node13" class="node"></path>
<path d="M547 2713 c-14 -25 -16 -75 -7 -146 16 -123 16 -125 53 -135 17 -5
46 -18 63 -28 64 -40 180 -139 217 -185 52 -67 100 -173 105 -235 5 -63 -9
-76 -46 -42 -15 13 -36 30 -47 37 -11 7 -3 -2 18 -20 38 -35 48 -59 23 -59 -7
0 -19 7 -26 15 -9 11 -25 13 -69 8 -44 -4 -67 -1 -94 12 -30 14 -40 15 -52 5
-11 -9 -19 -10 -26 -3 -13 13 54 59 99 68 42 9 31 25 -16 24 -58 -1 -96 -28
-100 -72 -4 -47 19 -81 72 -107 51 -24 93 -25 166 -5 76 22 85 22 86 5 1 -8
17 -50 38 -92 20 -42 36 -83 36 -90 0 -8 4 -18 9 -23 21 -24 111 -344 111
-396 0 -33 16 -42 90 -53 42 -6 48 -4 85 31 145 135 331 256 489 318 85 33
269 80 354 90 l62 7 -32 41 c-18 23 -56 65 -85 94 -50 52 -52 53 -110 53 -137
0 -323 37 -457 91 -33 13 -61 29 -63 36 -5 15 22 29 72 38 l40 7 -29 -20 -28
-20 47 -21 c184 -81 415 -101 611 -51 199 51 319 168 284 276 -13 37 -43 58
-102 69 -34 7 -153 -23 -243 -61 -61 -25 -234 -74 -331 -94 -98 -19 -167 -25
-274 -23 -30 1 -75 1 -100 0 -25 -1 -54 1 -65 3 -18 5 -20 -1 -23 -55 -3 -73
-26 -109 -70 -113 -18 -2 -32 1 -32 7 0 6 5 11 10 11 15 0 50 38 50 55 0 13
-4 14 -21 5 -12 -7 -37 -9 -60 -5 -55 9 -154 102 -194 182 -17 32 -38 64 -47
71 -9 7 -90 103 -180 215 -218 271 -248 303 -261 280z m1841 -691 c2 -7 -3
-12 -12 -12 -9 0 -16 7 -16 16 0 17 22 14 28 -4z m-48 -42 c-13 -24 -27 -33
-40 -25 -14 9 21 54 37 48 9 -4 10 -10 3 -23z m-80 -30 c0 -22 -44 -55 -60
-45 -7 4 0 17 17 35 34 34 43 36 43 10z m-90 -15 c0 -16 -58 -50 -68 -40 -6 6
47 54 61 55 4 0 7 -7 7 -15z" id="node14" class="node"></path>
<path d="M380 2576 c0 -7 18 -64 40 -127 37 -106 41 -157 8 -110 -11 15 -102
61 -123 61 -2 0 -1 -31 2 -69 4 -44 2 -71 -5 -75 -6 -4 -30 6 -53 21 -65 43
-82 52 -91 47 -12 -7 -10 -74 2 -74 6 0 10 6 10 14 0 8 7 16 15 20 15 5 31 -9
104 -94 30 -35 30 -35 50 -15 11 11 23 32 26 46 6 25 5 26 -22 21 l-28 -5 24
27 c14 14 30 26 37 26 7 0 42 -23 78 -50 l66 -51 0 38 c0 48 20 87 46 91 11 2
51 -13 89 -32 70 -35 84 -35 85 5 0 35 -126 108 -190 111 -47 2 -55 10 -39 36
8 12 9 35 5 66 -7 44 -10 49 -53 67 -52 22 -83 24 -83 5z" id="node15" class="node"></path>
<path d="M1051 2494 c-30 -38 -36 -87 -22 -186 11 -87 53 -198 77 -205 17 -6
102 110 139 189 l33 72 -22 31 c-11 17 -39 47 -61 67 -74 65 -111 74 -144 32z" id="node16" class="node"></path>
<path d="M1458 2481 c-58 -12 -138 -73 -138 -106 0 -21 76 -81 164 -131 43
-24 82 -44 87 -44 29 0 51 159 30 221 -17 53 -69 74 -143 60z" id="node17" class="node"></path>
<path d="M1278 2276 c-15 -29 -15 -36 -4 -36 8 0 21 -3 30 -6 19 -7 20 9 3 50
l-12 28 -17 -36z" id="node18" class="node"></path>
<path d="M1348 2265 c5 -26 16 -32 27 -15 7 11 -11 40 -25 40 -4 0 -5 -11 -2
-25z" id="node19" class="node"></path>
<path d="M762 2250 c-22 -36 9 -56 34 -23 9 13 9 22 2 30 -14 18 -21 16 -36
-7z" id="node20" class="node"></path>
<path d="M813 2203 c-20 -7 -15 -27 10 -51 l24 -22 13 25 c20 37 -7 65 -47 48z" id="node21" class="node"></path>
<path d="M1360 2161 c0 -59 17 -76 72 -75 40 1 122 48 121 69 0 15 -82 58 -96
51 -7 -3 -22 -13 -34 -22 -20 -14 -23 -14 -42 5 l-21 21 0 -49z" id="node22" class="node"></path>
<path d="M1181 2120 c-23 -28 -39 -55 -36 -60 13 -21 85 -60 110 -60 30 0 65
61 65 115 0 38 -2 40 -30 25 -13 -7 -24 -5 -43 10 l-24 19 -42 -49z" id="node23" class="node"></path>
<path d="M877 2123 c-10 -9 -8 -35 2 -52 8 -12 12 -12 25 -2 12 10 13 17 4 37
-11 25 -20 29 -31 17z" id="node24" class="node"></path>
<path d="M916 2024 c-7 -19 1 -34 18 -34 9 0 12 9 8 25 -5 28 -17 33 -26 9z" id="node25" class="node"></path>
<path d="M760 1972 c0 -10 51 -24 59 -16 7 6 -2 12 -32 19 -16 4 -27 3 -27 -3z" id="node26" class="node"></path>
<path d="M2025 1575 c-176 -47 -247 -84 -312 -162 -53 -64 -194 -255 -191
-258 3 -2 174 -17 403 -36 140 -12 134 -10 268 -97 37 -24 70 -42 74 -39 10
10 20 179 16 272 -4 110 -27 218 -60 291 -24 53 -25 54 -66 53 -23 0 -82 -11
-132 -24z" id="node27" class="node"></path>
<path d="M1633 1413 c-24 -14 -43 -28 -43 -33 0 -9 29 -35 33 -29 2 2 15 21
31 42 15 21 26 39 25 41 -2 1 -23 -8 -46 -21z" id="node28" class="node"></path>
<path d="M1528 1341 l-23 -19 25 -27 25 -26 23 26 c24 28 22 39 -8 55 -14 7
-24 5 -42 -9z" id="node29" class="node"></path>
<path d="M1035 1293 c-146 -12 -158 -26 -65 -73 58 -29 76 -50 45 -50 -18 0
-19 -14 -2 -28 11 -9 186 -81 282 -115 22 -8 90 -33 151 -55 164 -60 376 -130
415 -137 32 -6 36 -4 63 42 17 26 39 64 49 83 32 57 61 94 64 83 8 -24 -120
-253 -141 -253 -19 0 -456 148 -675 229 -47 17 -86 31 -88 31 -23 0 45 -259
91 -348 25 -49 48 -56 197 -60 l136 -4 6 62 c4 35 7 78 7 96 0 19 5 34 10 34
13 0 13 -171 0 -241 -6 -32 -7 -56 -1 -62 13 -13 206 7 401 43 264 48 451 98
566 150 l69 31 -27 15 c-27 14 -29 13 -56 -17 -24 -26 -33 -31 -56 -25 -24 6
-34 20 -50 69 -5 17 -8 17 -27 3 -29 -20 -53 -7 -75 39 -13 27 -14 41 -6 65 7
18 7 32 1 35 -19 13 -9 65 20 98 21 23 27 37 20 48 -17 27 -8 34 14 9 12 -14
40 -39 62 -57 l41 -31 16 28 c9 16 35 38 57 50 23 11 41 22 41 25 0 8 -98 55
-115 55 -13 0 -13 -3 -3 -20 19 -30 2 -36 -65 -18 -33 9 -66 14 -72 12 -11 -4
-19 -39 -46 -195 -11 -62 -11 -67 10 -96 14 -18 21 -40 19 -54 -4 -22 -5 -21
-20 14 -10 20 -22 37 -28 37 -6 0 -35 -18 -65 -40 -72 -53 -92 -50 -31 5 55
49 55 50 -39 64 l-60 9 83 1 c58 1 82 5 82 14 0 6 3 21 6 32 4 17 -11 31 -90
84 -53 34 -100 59 -106 56 -5 -3 -10 -2 -10 3 0 5 -48 13 -107 16 -60 4 -153
14 -208 21 -55 8 -129 17 -165 20 -174 17 -493 78 -552 105 -46 22 -29 40 38
40 33 0 46 -14 22 -23 -7 -3 2 -6 20 -6 29 -1 32 2 32 29 0 32 5 31 -85 23z
m48 -118 c4 -8 3 -16 -1 -19 -13 -8 -35 11 -28 23 10 15 23 14 29 -4z m95 -26
c-2 -6 -8 -10 -13 -10 -5 0 -11 4 -13 10 -2 6 4 11 13 11 9 0 15 -5 13 -11z" id="node30" class="node"></path>
<path d="M1442 1277 l-22 -23 35 -34 c19 -18 36 -32 37 -29 2 2 12 14 22 27
19 22 19 23 -9 52 -35 36 -36 36 -63 7z" id="node31" class="node"></path>
<path d="M1361 1206 l-23 -25 38 -6 c22 -3 47 -8 57 -10 19 -4 15 8 -17 42
-26 28 -28 28 -55 -1z" id="node32" class="node"></path>
<path d="M2326 1223 c-3 -3 -6 -17 -6 -30 0 -17 6 -23 20 -23 12 0 35 -7 51
-16 48 -24 44 -10 -9 34 -27 23 -52 39 -56 35z" id="node33" class="node"></path>
<path d="M2590 1058 c-40 -11 -90 -54 -90 -77 0 -9 9 -31 20 -48 11 -18 17
-40 14 -48 -5 -11 -12 -5 -26 22 -28 54 -73 97 -92 90 -19 -8 -76 -95 -76
-116 0 -10 15 1 36 27 39 46 70 54 97 24 25 -27 22 -50 -3 -27 -17 16 -24 16
-44 5 -28 -14 -64 -75 -52 -87 4 -4 17 4 28 20 27 37 48 35 48 -5 0 -37 19
-79 37 -85 6 -3 19 9 27 26 16 31 46 44 126 56 101 16 153 73 121 134 -12 21
-114 101 -127 100 -5 0 -25 -5 -44 -11z" id="node34" class="node"></path>
<path d="M2364 1032 c-14 -9 -34 -47 -34 -63 0 -7 14 0 30 16 38 36 41 72 4
47z" id="node35" class="node"></path>
<path d="M1190 627 c0 -46 5 -70 16 -81 16 -16 64 -22 64 -8 0 7 -68 143 -76
151 -2 2 -4 -25 -4 -62z" id="node36" class="node"></path>
<path d="M2498 672 c-60 -22 -62 -25 -45 -59 9 -16 19 -46 23 -67 l7 -39 65 6
c57 6 63 5 46 -7 -10 -7 -35 -17 -54 -22 -33 -7 -30 -8 34 -15 109 -12 107
-29 -5 -29 l-94 0 -1 -57 c-1 -65 -25 -127 -80 -204 -18 -26 -30 -50 -26 -53
24 -14 215 46 294 92 62 36 86 242 40 332 -31 59 -110 140 -137 139 -11 0 -41
-8 -67 -17z" id="node37" class="node"></path>
<path d="M2373 630 c-28 -11 -28 -11 -4 -58 10 -20 21 -50 25 -65 6 -23 10
-27 29 -21 31 9 30 8 23 56 -9 59 -43 100 -73 88z" id="node38" class="node"></path>
<path d="M1266 622 c-2 -4 27 -53 65 -109 69 -102 73 -121 23 -109 -31 8 -76
-3 -71 -18 2 -6 17 -10 34 -8 49 5 47 -15 -2 -27 -48 -12 -63 -27 -46 -44 9
-9 24 -7 62 6 61 22 73 17 24 -9 -38 -20 -43 -29 -20 -38 40 -15 144 50 163
102 10 26 51 209 52 228 0 1 -55 4 -121 8 -67 4 -130 11 -140 16 -10 6 -20 7
-23 2z" id="node39" class="node"></path>
<path d="M2265 599 c-143 -42 -370 -79 -570 -94 -131 -10 -132 -10 -140 -58
-4 -23 -16 -64 -27 -90 l-21 -48 25 -27 c44 -47 60 -89 56 -151 l-3 -56 90 -9
c113 -11 370 6 519 34 61 11 110 20 111 20 1 0 22 28 47 63 63 85 110 233 81
250 -5 2 -39 -11 -78 -29 -78 -37 -105 -43 -85 -19 7 8 16 15 21 15 11 0 81
42 77 46 -2 2 -35 -3 -73 -11 -78 -17 -121 -19 -129 -7 -4 7 43 19 181 48 20
4 21 7 11 37 -14 40 -48 97 -56 96 -4 -1 -20 -5 -37 -10z" id="node40" class="node"></path>
<path d="M1300 471 c11 -22 29 -35 36 -28 9 8 -20 47 -34 47 -9 0 -10 -5 -2
-19z" id="node41" class="node"></path>
<path d="M2671 163 c-12 -24 -17 -43 -11 -43 13 0 42 58 37 73 -2 7 -14 -7
-26 -30z" id="node42" class="node"></path>
<path d="M2721 166 c-12 -18 -21 -36 -21 -40 0 -19 79 5 118 37 20 16 -5 37
-43 37 -27 0 -37 -6 -54 -34z" id="node43" class="node"></path>
<path d="M2586 150 c-22 -11 -45 -20 -52 -20 -7 0 -16 -5 -20 -12 -11 -18 86
-1 108 19 18 16 24 33 11 33 -5 -1 -26 -10 -47 -20z" id="node44" class="node"></path>
<path d="M2351 68 l-20 -33 26 -3 c41 -6 89 7 108 27 16 19 15 20 -22 30 -58
16 -69 14 -92 -21z" id="node45" class="node"></path>
<path d="M2274 63 c-22 -24 -24 -29 -9 -31 19 -4 55 25 55 45 0 21 -19 15 -46
-14z" id="node46" class="node"></path>
<path d="M2205 65 c-5 -2 -28 -7 -50 -11 l-40 -7 30 -7 c52 -13 70 -11 83 10
12 20 5 25 -23 15z" id="node47" class="node"></path>
</g>
</svg>