<!--?xml version="1.0" standalone="no"?-->

<svg version="1.0" xmlns="http://www.w3.org/2000/svg" width="300.000000pt" height="200.000000pt" viewBox="0 0 300.000000 200.000000" preserveAspectRatio="xMidYMid meet">
<g transform="translate(0.000000,200.000000) scale(0.100000,-0.100000)" fill="#1D1D1D" stroke="none">
<path d="M917 1805 c-9 -8 -17 -18 -19 -23 -6 -15 -183 -72 -206 -66 -53 15
-102 -30 -102 -93 0 -23 -3 -25 -32 -19 -50 10 -123 63 -185 133 -56 64 -56
64 -76 44 -20 -19 -20 -20 7 -85 14 -37 26 -70 26 -75 0 -12 -49 -5 -179 26
-122 29 -139 23 -96 -33 63 -82 273 -207 405 -240 36 -9 91 -17 123 -18 l57
-1 3 -123 2 -124 -45 7 c-171 26 -353 111 -496 232 l-51 43 8 -45 c5 -24 18
-64 30 -87 34 -66 144 -175 244 -240 110 -71 216 -114 357 -142 l106 -22 69
-64 c85 -80 246 -185 359 -236 l87 -38 74 39 c62 33 77 37 91 27 37 -27 119
-62 160 -68 33 -5 47 -2 62 11 11 10 20 24 20 31 0 6 25 35 55 62 40 37 60 49
75 45 35 -9 126 -112 181 -204 29 -49 54 -89 56 -89 3 0 13 5 24 10 16 9 19
22 19 91 l0 79 49 -24 c26 -14 77 -45 113 -69 81 -55 98 -51 74 19 -60 177
-265 384 -446 451 -25 9 -46 17 -47 18 -2 1 15 36 36 78 22 42 43 92 47 112 5
31 13 40 48 54 80 35 79 35 115 -12 87 -116 276 -193 349 -141 49 34 10 118
-46 98 -19 -7 -27 -16 -27 -34 0 -14 4 -28 9 -32 15 -10 36 3 36 23 0 23 18
25 27 3 16 -42 -68 -55 -122 -20 -28 18 -145 152 -145 166 0 5 9 11 19 15 34
10 32 34 -6 78 -35 40 -35 40 14 -7 54 -51 80 -56 90 -16 6 23 14 25 32 8 10
-11 17 -7 37 15 13 16 28 26 33 23 14 -9 41 5 41 21 0 11 7 13 31 8 25 -6 31
-4 36 14 4 16 11 19 27 15 14 -3 28 1 36 11 7 8 21 13 30 10 9 -3 23 2 30 10
8 9 21 13 32 9 10 -3 25 -1 31 5 7 5 22 10 32 11 11 0 48 0 83 1 34 0 62 5 62
10 0 5 13 9 28 9 37 0 52 17 52 58 0 46 -14 68 -51 81 -47 16 -59 14 -60 -11
-1 -17 -3 -15 -11 11 -9 31 -11 33 -43 28 -19 -3 -37 -1 -40 4 -9 13 -21 11
-39 -6 -9 -9 -17 -11 -21 -5 -10 16 -43 12 -53 -6 -6 -11 -11 -13 -16 -5 -10
16 -41 14 -56 -4 -9 -11 -16 -12 -32 -2 -17 10 -22 9 -35 -10 -11 -17 -21 -21
-43 -17 -21 5 -31 1 -43 -16 -9 -13 -17 -17 -22 -11 -10 18 -44 12 -55 -9 -8
-15 -17 -18 -39 -14 -23 5 -32 2 -40 -15 -9 -16 -18 -20 -35 -15 -16 4 -28 0
-37 -13 -9 -11 -27 -18 -51 -19 -36 0 -38 1 -39 30 -5 91 23 210 57 247 21 23
62 25 71 4 7 -20 -6 -33 -16 -16 -14 22 -45 9 -45 -19 0 -31 26 -38 59 -16 30
20 33 56 7 79 -53 49 -128 -9 -193 -147 -26 -55 -33 -84 -37 -156 -4 -81 -7
-89 -29 -99 -13 -6 -25 -11 -27 -11 -2 0 -9 19 -16 43 -29 98 -99 190 -175
230 -33 18 -57 22 -135 22 -85 0 -101 -3 -150 -29 -30 -16 -83 -57 -118 -93
l-64 -64 -53 48 c-29 26 -70 64 -91 83 -22 19 -53 56 -71 82 -35 51 -105 108
-134 108 -10 0 -24 -7 -32 -15z m73 -35 c47 -33 134 -158 279 -398 75 -125
157 -256 181 -292 109 -161 212 -270 295 -310 53 -26 68 -19 93 40 l15 35 9
-40 c5 -22 8 -56 6 -75 -2 -29 -7 -35 -26 -35 -12 0 -48 -24 -81 -53 -68 -59
-90 -64 -171 -33 -27 11 -50 17 -50 15 0 -7 94 -51 123 -58 46 -11 20 -29 -32
-22 -144 20 -257 157 -476 581 -197 380 -298 495 -434 495 -62 0 -71 -13 -71
-104 0 -36 -4 -68 -10 -71 -6 -4 -10 9 -10 33 0 21 -3 73 -6 114 -6 72 -6 76
16 88 30 16 102 1 183 -39 38 -18 52 -22 42 -11 -9 9 -33 26 -55 36 -22 10
-38 23 -37 28 2 6 36 21 76 34 51 17 75 30 78 43 7 24 28 24 63 -1z m-528
-149 c33 -23 77 -44 98 -47 l38 -6 12 -75 c17 -97 11 -109 -60 -106 -113 5
-321 102 -428 201 -54 49 -58 48 83 18 39 -9 93 -16 122 -16 l52 0 -29 69
c-40 93 -38 103 10 48 22 -25 68 -64 102 -86z m1284 18 c193 -91 257 -434 118
-640 -54 -80 -134 -169 -153 -169 -20 0 -110 91 -173 175 -84 112 -344 533
-335 542 3 2 26 -21 52 -51 l48 -55 29 44 c35 53 108 119 160 146 84 43 173
45 254 8z m326 -56 c-7 -125 49 -315 114 -392 39 -45 37 -52 -6 -21 -76 54
-132 196 -133 335 0 75 12 145 26 145 1 0 1 -30 -1 -67z m675 -7 c5 -17 13
-40 17 -51 4 -11 -3 -1 -16 23 -16 31 -28 42 -45 42 -27 0 -29 -16 -7 -48 9
-13 14 -26 10 -29 -3 -3 -13 11 -22 31 -13 26 -24 36 -40 36 -33 0 -36 -12
-13 -49 11 -18 18 -35 16 -37 -2 -2 -14 15 -26 37 -20 36 -26 40 -50 34 -39
-10 -40 -12 -5 -65 12 -18 9 -17 -10 5 -14 17 -26 34 -26 39 0 8 -59 1 -69 -9
-2 -3 9 -20 25 -38 l29 -32 -36 33 c-32 30 -38 31 -67 21 l-32 -11 36 -46 36
-47 -40 44 c-39 43 -41 44 -71 31 -33 -13 -39 -24 -18 -37 6 -4 23 -22 37 -38
14 -18 6 -12 -21 13 -43 40 -48 42 -72 31 -32 -15 -33 -20 -6 -45 11 -10 25
-28 30 -39 6 -11 -6 -2 -25 19 -36 39 -36 39 -76 27 -49 -15 -54 -15 -58 -3
-12 38 427 184 563 188 37 1 42 -2 52 -30z m65 -12 c9 -26 13 -42 8 -38 -13
14 -40 84 -32 84 4 0 15 -21 24 -46z m138 -7 c0 -15 -20 -47 -30 -47 -11 0
-14 73 -3 84 8 7 33 -21 33 -37z m-2091 -34 c70 -71 121 -157 224 -378 184
-397 214 -453 278 -515 l38 -36 -44 -24 -44 -24 -83 39 c-89 43 -259 153 -323
208 l-40 35 35 6 c108 16 111 16 120 -7 7 -17 9 -18 9 -4 1 20 12 22 30 5 8
-8 6 2 -5 22 -9 19 -24 78 -31 130 -8 52 -18 118 -22 145 -7 48 -7 49 -15 19
-9 -41 -22 -44 -173 -44 -106 0 -123 2 -131 18 -17 31 -22 130 -12 204 14 99
90 258 122 258 5 0 35 -26 67 -57z m1168 -160 c7 -19 -44 -40 -60 -24 -9 10
-8 15 8 27 22 17 46 15 52 -3z m27 -80 l16 -32 -31 -16 c-41 -22 -59 -13 -59
29 0 29 5 36 28 44 15 5 28 9 28 8 1 0 9 -15 18 -33z m-1698 -127 c175 -66
337 -93 517 -83 98 5 107 4 107 -12 0 -21 -61 -30 -204 -32 -80 -1 -81 -1 -31
-11 28 -5 93 -6 146 -3 l97 5 7 -56 c4 -34 3 -60 -3 -66 -16 -16 -239 -12
-315 6 -194 47 -357 136 -478 262 -55 58 -99 119 -99 137 0 3 42 -23 93 -58
51 -34 125 -74 163 -89z m1607 -277 c68 -35 159 -104 215 -162 66 -71 178
-247 156 -247 -3 0 -39 21 -81 46 -42 25 -94 52 -116 60 l-40 14 7 -90 c4 -54
3 -90 -3 -90 -5 0 -24 26 -41 58 -18 31 -52 83 -76 114 -24 31 -44 65 -44 75
0 20 -34 189 -45 222 -8 28 13 28 68 0z" id="node1" class="node"></path>
<path d="M625 816 c-41 -18 -57 -40 -53 -73 3 -25 7 -28 38 -28 32 0 35 3 47
44 7 24 18 49 24 57 15 18 -14 18 -56 0z m-38 -78 c-3 -7 -5 -2 -5 12 0 14 2
19 5 13 2 -7 2 -19 0 -25z" id="node2" class="node"></path>
<path d="M750 723 c-16 -51 -8 -73 24 -73 32 0 39 23 17 52 -10 13 -21 32 -23
43 -3 15 -8 9 -18 -22z" id="node3" class="node"></path>
<path d="M636 611 c-16 -29 -22 -71 -10 -58 4 3 13 -1 22 -9 13 -14 17 -14 30
0 13 13 13 19 -6 56 l-20 42 -16 -31z" id="node4" class="node"></path>
</g>
<g transform="translate(0.000000,200.000000) scale(0.100000,-0.100000)" fill="#C385DD" stroke="none">

<path d="M927 1771 c-3 -13 -27 -26 -78 -43 -40 -13 -74 -28 -76 -34 -1 -5 15
-18 37 -28 22 -10 46 -27 55 -36 10 -11 -4 -7 -42 11 -81 40 -153 55 -183 39
-22 -12 -22 -16 -16 -88 3 -41 6 -93 6 -114 0 -24 4 -37 10 -33 6 3 10 35 10
71 0 91 9 104 71 104 136 0 237 -115 434 -495 219 -424 332 -561 476 -581 52
-7 78 11 32 22 -29 7 -123 51 -123 58 0 2 23 -4 50 -15 81 -31 103 -26 171 33
33 29 69 53 81 53 19 0 24 6 26 35 2 19 -1 53 -6 75 l-9 40 -15 -35 c-25 -59
-40 -66 -93 -40 -83 40 -186 149 -295 310 -24 36 -106 167 -181 292 -76 125
-163 261 -194 303 -79 104 -136 142 -148 96z" id="node6" class="node"></path>
<path d="M320 1741 c0 -7 13 -43 30 -82 l29 -69 -52 0 c-29 0 -83 7 -122 16
-141 30 -137 31 -83 -18 107 -99 315 -196 428 -201 71 -3 77 9 60 106 l-12 75
-38 6 c-48 8 -148 74 -200 133 -22 25 -40 40 -40 34z" id="node7" class="node"></path>
<path d="M1567 1660 c-85 -21 -180 -92 -235 -175 l-29 -44 -48 55 c-26 30 -49
53 -52 51 -9 -9 251 -430 335 -542 63 -84 153 -175 173 -175 19 0 99 89 153
169 139 206 75 549 -118 640 -53 24 -128 33 -179 21z" id="node8" class="node"></path>
<path d="M2058 1623 c-19 -46 -13 -199 10 -270 24 -75 73 -155 112 -183 43
-31 45 -24 6 21 -65 77 -121 267 -114 392 2 37 2 67 1 67 -2 0 -9 -12 -15 -27z" id="node9" class="node"></path>
<path d="M2595 1592 c-197 -43 -472 -146 -463 -174 4 -12 9 -12 58 3 40 12 40
12 76 -27 19 -21 31 -30 25 -19 -5 11 -19 29 -30 39 -27 25 -26 30 6 45 24 11
29 9 72 -31 27 -25 35 -31 21 -13 -14 16 -31 34 -37 38 -21 13 -15 24 18 37
30 13 32 12 71 -31 l40 -44 -36 47 -36 46 32 11 c29 10 35 9 67 -21 l36 -33
-29 32 c-16 18 -27 35 -25 38 10 10 69 17 69 9 0 -5 12 -22 26 -39 19 -22 22
-23 10 -5 -35 53 -34 55 5 65 24 6 30 2 50 -34 12 -22 24 -39 26 -37 2 2 -5
19 -16 37 -23 37 -20 49 13 49 16 0 27 -10 40 -36 9 -20 19 -34 22 -31 4 3 -1
16 -10 29 -22 32 -20 48 7 48 17 0 29 -11 45 -42 13 -24 20 -34 16 -23 -4 11
-12 34 -17 51 -10 28 -15 31 -52 30 -22 0 -67 -7 -100 -14z" id="node10" class="node"></path>
<path d="M2796 1573 c23 -56 35 -63 16 -9 -9 25 -20 46 -24 46 -4 0 0 -17 8
-37z" id="node11" class="node"></path>
<path d="M2917 1594 c-11 -11 -8 -84 3 -84 10 0 30 32 30 47 0 16 -25 44 -33
37z" id="node12" class="node"></path>
<path d="M767 1563 c-8 -10 -31 -52 -51 -93 -41 -86 -59 -191 -50 -278 11 -94
7 -92 147 -92 151 0 164 3 173 44 8 30 8 29 15 -19 4 -27 14 -93 22 -145 7
-52 22 -111 31 -130 11 -20 13 -30 5 -22 -18 17 -29 15 -30 -5 0 -14 -2 -13
-9 4 -9 23 -12 23 -120 7 l-35 -6 40 -35 c64 -55 234 -165 323 -208 l83 -39
44 24 44 24 -38 36 c-64 62 -94 118 -278 515 -44 94 -99 204 -123 245 -41 70
-147 190 -168 190 -5 0 -16 -8 -25 -17z" id="node13" class="node"></path>
<path d="M1975 1366 c-16 -12 -17 -17 -8 -27 16 -16 67 5 60 24 -6 18 -30 20
-52 3z" id="node14" class="node"></path>
<path d="M2008 1308 c-23 -8 -28 -15 -28 -44 0 -42 18 -51 59 -29 l31 16 -16
32 c-9 18 -17 33 -18 33 0 1 -13 -3 -28 -8z" id="node15" class="node"></path>
<path d="M100 1303 c0 -18 44 -79 99 -137 121 -126 284 -215 478 -262 76 -18
299 -22 315 -6 6 6 7 32 3 66 l-7 56 -97 -5 c-53 -3 -118 -2 -146 3 -50 10
-49 10 31 11 143 2 204 11 204 32 0 16 -9 17 -107 12 -255 -13 -492 47 -680
172 -51 35 -93 61 -93 58z" id="node16" class="node"></path>
<path d="M1895 879 c11 -33 45 -202 45 -222 0 -10 20 -44 44 -75 24 -31 58
-83 76 -114 17 -32 36 -58 41 -58 6 0 7 36 3 90 l-7 90 40 -14 c22 -8 74 -35
116 -60 42 -25 78 -46 81 -46 22 0 -90 176 -156 247 -78 82 -229 183 -273 183
-12 0 -15 -6 -10 -21z" id="node17" class="node"></path>
<path d="M582 750 c0 -14 2 -19 5 -12 2 6 2 18 0 25 -3 6 -5 1 -5 -13z" id="node18" class="node"></path>
</g>
</svg>