<!--?xml version="1.0" standalone="no"?-->

<svg version="1.0" xmlns="http://www.w3.org/2000/svg" width="300.000000pt" height="300.000000pt" viewBox="0 0 300.000000 300.000000" preserveAspectRatio="xMidYMid meet">
<g transform="translate(0.000000,300.000000) scale(0.100000,-0.100000)" fill="#474747" stroke="none">
<path d="M920 2441 c-96 -22 -191 -72 -255 -136 -97 -98 -117 -224 -62 -390
l24 -70 -111 -5 c-93 -5 -117 -9 -149 -29 -45 -27 -57 -48 -57 -95 0 -44 46
-99 96 -118 25 -9 40 -24 55 -56 16 -32 28 -44 50 -49 18 -3 29 -12 29 -22 0
-21 36 -61 54 -61 7 0 24 -8 37 -19 34 -26 147 -36 177 -15 12 8 22 21 22 28
0 7 9 21 20 31 19 17 20 16 48 -46 89 -194 89 -198 39 -272 -95 -139 -159
-174 -219 -120 -24 22 -23 32 8 64 21 22 24 31 15 47 -8 15 -7 27 4 49 20 39
19 70 -6 109 -26 43 -36 45 -129 18 -148 -43 -366 -173 -419 -250 -25 -36 -28
-100 -6 -131 44 -63 249 -22 399 80 21 15 42 27 45 27 3 0 26 -18 51 -40 25
-22 59 -43 77 -46 61 -11 89 3 172 93 l80 85 20 -69 c11 -37 21 -77 23 -88 2
-11 10 -21 18 -22 8 -2 67 42 130 96 136 118 168 132 360 162 134 20 232 19
246 -2 14 -23 -38 -59 -196 -140 -90 -46 -107 -51 -162 -50 -66 1 -98 -16 -98
-51 0 -12 -7 -18 -22 -18 -26 -1 -112 -37 -144 -60 -11 -8 -23 -31 -27 -50 -3
-19 -3 -29 -1 -23 4 10 11 9 27 -1 77 -50 626 -119 685 -87 15 8 22 8 22 1 0
-25 -57 -32 -210 -26 -85 4 -175 11 -200 16 -25 5 -85 16 -135 25 -49 9 -99
20 -110 24 -11 5 -33 14 -50 20 l-30 12 25 -20 c14 -11 56 -25 95 -32 39 -6
75 -15 80 -19 9 -7 58 -15 225 -36 91 -12 270 -15 270 -5 0 6 8 11 19 11 23 0
37 17 44 55 4 25 -1 35 -34 66 -47 44 -196 119 -236 119 -24 0 -37 10 -52 37
-11 21 -6 25 81 68 216 108 265 191 134 226 -50 14 -216 5 -301 -15 l-60 -14
32 27 c18 15 105 69 194 120 l161 93 27 -25 c45 -42 90 -60 138 -54 40 4 45 2
53 -19 21 -54 96 -65 127 -17 11 17 19 21 26 14 6 -6 21 -11 34 -11 14 0 23
-6 23 -15 0 -25 44 -47 71 -36 64 27 75 60 32 97 -35 30 -13 32 40 4 47 -25
108 -26 130 -2 22 25 21 41 -4 68 l-21 22 21 7 c26 8 42 36 35 62 -10 38 -49
48 -171 45 -128 -3 -146 -8 -196 -52 -35 -31 -36 -31 -68 -15 -27 14 -35 15
-56 4 -31 -16 -47 -45 -47 -84 -1 -28 -4 -30 -42 -33 -35 -3 -45 1 -63 24 -11
15 -21 33 -21 40 0 7 28 32 62 56 92 62 195 169 224 233 31 68 41 149 25 212
-12 46 -57 146 -83 187 -36 55 -156 144 -172 128 -4 -3 -11 0 -16 8 -7 11 -31
14 -102 14 -100 -1 -182 -25 -268 -79 -47 -30 -53 -30 -71 -8 -33 39 -152 125
-215 154 -97 45 -101 47 -177 64 -82 18 -91 18 -187 -4z m197 -16 c88 -20 118
-32 171 -67 24 -15 45 -28 48 -28 11 0 135 -104 153 -128 l20 -27 33 19 c179
103 293 125 418 83 105 -36 209 -192 226 -341 7 -61 -14 -147 -50 -205 -57
-90 -230 -220 -433 -327 -27 -13 -55 -29 -63 -34 -8 -5 -46 -28 -85 -51 -95
-57 -197 -133 -343 -256 -67 -57 -127 -101 -132 -98 -6 3 -10 14 -10 23 0 40
-103 327 -160 444 -35 71 -35 74 -15 94 8 9 15 27 15 41 0 39 -27 63 -70 63
-43 0 -58 14 -122 115 -78 123 -107 198 -115 295 -5 64 -2 86 18 140 41 114
148 200 299 241 83 22 113 23 197 4z m-435 -676 l27 -33 -28 -17 c-16 -10 -32
-22 -35 -28 -5 -7 -16 -1 -30 16 -19 22 -28 25 -58 19 -21 -4 -49 -20 -69 -41
-37 -38 -52 -38 -101 -3 -34 23 -37 66 -8 93 21 19 139 35 225 30 42 -2 53 -7
77 -36z m-72 -85 c12 -30 4 -48 -18 -39 -17 6 -62 -31 -62 -52 0 -23 18 -14
24 13 6 22 11 25 35 19 24 -5 33 0 66 40 36 44 38 45 56 29 11 -10 18 -23 15
-30 -9 -22 20 -34 77 -31 70 3 97 -17 81 -60 -11 -32 -51 -45 -96 -32 -23 6
-34 5 -40 -4 -13 -20 -10 -22 49 -24 31 -2 58 -5 60 -7 3 -2 -2 -14 -9 -26
-11 -18 -21 -21 -67 -18 -42 2 -55 -1 -59 -12 -3 -12 -2 -12 8 -3 8 7 19 8 29
3 9 -5 25 -11 36 -15 l20 -6 -20 -15 c-13 -9 -29 -12 -45 -8 -14 4 -41 7 -61
8 -21 0 -46 9 -56 19 -11 9 -24 17 -30 17 -24 0 -45 39 -38 69 6 27 4 31 -13
31 -11 0 -23 6 -26 13 -3 6 -3 2 0 -10 4 -16 1 -23 -10 -23 -20 0 -46 39 -46
70 0 80 115 150 140 84z m1892 -94 c69 -20 54 -59 -34 -85 -29 -8 -59 -15 -67
-15 -25 0 -81 -38 -81 -54 0 -8 11 -23 25 -34 35 -28 32 -57 -6 -71 -36 -13
-59 -1 -59 30 0 14 -7 19 -26 19 -17 0 -28 6 -31 19 -7 26 -53 26 -53 -1 0
-38 -19 -58 -55 -58 -27 0 -36 6 -48 30 -13 26 -13 31 1 42 12 10 16 10 19 0
8 -21 23 -2 23 27 0 16 -8 35 -17 42 -15 12 -16 12 -10 -3 4 -12 0 -19 -14
-23 -11 -4 -23 -4 -26 -1 -12 11 9 57 33 72 24 16 27 16 52 -3 14 -11 30 -34
34 -51 12 -46 30 -40 22 6 -6 36 -3 41 34 70 22 18 55 35 74 39 l33 6 -27 -28
c-42 -41 -34 -58 9 -19 50 46 125 63 195 44z m14 -131 c18 -20 18 -21 -1 -35
-24 -18 -66 -18 -89 -1 -18 13 -17 15 9 35 35 28 57 28 81 1z m-1806 -159 c0
-5 -7 -10 -16 -10 -8 0 -12 5 -9 10 3 6 10 10 16 10 5 0 9 -4 9 -10z m-62 -14
c-15 -8 -42 -17 -60 -21 -100 -21 -347 -178 -384 -245 -7 -14 -13 -19 -14 -11
-1 46 99 129 246 204 138 70 175 85 214 86 l25 1 -27 -14z m92 -46 c3 -13 -1
-39 -9 -57 -13 -29 -20 -33 -53 -33 -41 0 -105 -28 -127 -54 -13 -15 -12 -31
3 -66 4 -9 -2 -20 -14 -28 -18 -11 -21 -9 -34 23 -16 38 -27 43 -45 21 -10
-12 -9 -21 4 -43 l16 -28 -7 35 c-7 38 8 33 20 -6 5 -15 2 -24 -10 -28 -19 -7
-44 10 -44 30 0 19 -36 18 -44 -2 -3 -8 -1 -25 5 -36 6 -11 8 -22 5 -25 -3 -3
-10 6 -15 21 -12 29 -32 34 -50 12 -9 -11 -9 -20 -2 -35 10 -18 7 -20 -36 -27
-135 -20 -135 67 0 174 124 99 301 181 382 179 43 -2 50 -5 55 -27z m-20 -129
c0 -10 -7 -22 -16 -25 -26 -10 -36 -7 -30 9 8 21 -38 20 -59 -1 -12 -13 -13
-19 -4 -30 17 -20 -1 -34 -28 -23 -30 11 -29 28 5 61 22 22 36 27 80 27 45 1
52 -2 52 -18z m-282 -132 c17 -27 5 -40 -14 -15 -8 11 -14 23 -14 28 0 15 15
8 28 -13z m1002 1 l-25 -6 22 -12 c32 -18 84 -15 99 6 10 13 15 14 25 5 6 -6
9 -19 6 -27 -8 -21 -154 -23 -182 -2 -26 19 -12 44 27 48 42 4 61 -4 28 -12z
m-1062 -30 c10 -17 10 -20 -3 -20 -8 0 -15 2 -15 4 0 2 -3 11 -6 20 -9 23 9
20 24 -4z m1006 -25 c14 -10 46 -15 100 -16 45 0 89 -4 98 -7 16 -7 16 -8 -3
-21 -19 -11 -21 -11 -16 3 4 9 2 16 -3 16 -15 0 -23 -21 -11 -33 8 -8 21 -6
48 7 29 14 34 20 22 27 -22 15 39 -1 88 -22 23 -11 48 -19 55 -19 7 0 0 -7
-16 -15 -22 -12 -31 -13 -37 -4 -8 13 -29 4 -29 -13 0 -10 36 -8 100 7 19 5
36 -2 68 -27 43 -33 51 -51 30 -64 -36 -23 -435 10 -583 47 -118 30 -116 29
-113 51 4 26 73 66 146 83 8 2 16 6 20 9 8 9 15 7 36 -9z" id="node1" class="node"></path>
<path d="M1255 2254 c-39 -20 -74 -53 -91 -86 -22 -43 -17 -49 21 -23 20 13
58 31 85 40 42 14 56 15 87 4 21 -6 43 -16 50 -21 7 -6 17 -8 23 -6 17 5 -55
77 -94 93 -44 18 -44 18 -81 -1z" id="node2" class="node"></path>
<path d="M1646 2156 c-61 -23 -67 -36 -15 -36 58 -1 120 -30 149 -70 13 -18
26 -28 31 -23 12 12 -17 96 -40 117 -26 24 -79 29 -125 12z" id="node3" class="node"></path>
<path d="M1305 2103 c-140 -29 -216 -200 -151 -339 45 -97 146 -140 233 -99
36 18 38 17 75 -4 44 -25 125 -28 166 -7 89 46 138 192 97 289 -19 46 -66 94
-110 113 -44 18 -66 18 -108 -2 -32 -15 -34 -15 -78 14 -45 30 -88 42 -124 35z
m113 -51 c46 -35 72 -91 74 -157 1 -30 -1 -58 -5 -61 -3 -3 -52 -1 -109 6 -57
7 -112 12 -123 11 -11 -1 -40 4 -64 11 l-43 11 6 41 c23 144 162 216 264 138z
m196 -16 c59 -25 106 -105 106 -182 0 -24 -3 -44 -7 -44 -5 0 -49 7 -99 17
l-92 17 -5 58 c-3 32 -13 70 -21 84 -19 27 -14 41 18 54 31 13 63 12 100 -4z
m-306 -202 c60 -6 62 -7 62 -35 0 -41 32 -57 60 -29 11 11 18 25 15 30 -4 6 5
10 18 10 35 0 26 -25 -28 -86 l-43 -49 -70 0 c-61 0 -74 3 -98 25 -26 25 -74
113 -74 138 0 11 12 13 48 8 26 -3 75 -8 110 -12z m279 -19 c27 -6 31 -10 23
-25 -13 -25 10 -53 41 -48 18 2 25 10 27 31 2 15 9 27 18 27 19 0 18 -14 -6
-60 -42 -82 -152 -116 -214 -67 l-28 23 31 51 c17 27 31 57 31 66 0 17 15 17
77 2z" id="node4" class="node"></path>
<path d="M970 1889 c-19 -11 -27 -18 -18 -15 49 14 88 17 108 6 12 -6 24 -9
27 -7 6 7 -52 37 -69 37 -7 -1 -29 -10 -48 -21z" id="node5" class="node"></path>
<path d="M1004 1831 c-37 -23 -89 -89 -61 -78 15 6 16 2 10 -36 -31 -169 20
-330 127 -402 43 -29 49 -30 155 -30 62 0 111 4 112 10 2 5 -15 8 -37 6 -39
-2 -40 -2 -40 30 0 24 -9 41 -40 70 -22 21 -40 41 -40 44 0 10 51 5 73 -7 28
-15 98 -18 115 -6 6 6 12 18 12 28 0 18 26 30 66 30 25 0 135 34 181 55 17 8
37 15 44 15 7 0 10 3 6 6 -3 3 -47 -7 -99 -22 -80 -24 -111 -28 -218 -29 -136
0 -165 9 -240 72 -40 33 -87 131 -91 193 -4 40 -2 45 19 48 12 2 20 8 17 13
-10 14 -37 11 -71 -10z m42 -146 c9 -27 17 -77 18 -110 1 -60 1 -60 -28 -58
-15 1 -39 9 -52 18 -21 14 -24 23 -24 78 0 76 15 133 38 146 19 11 18 12 48
-74z m157 -180 c58 -24 46 -38 -28 -33 -75 5 -94 21 -95 81 l0 38 43 -35 c24
-20 60 -42 80 -51z m167 -46 c0 -16 -7 -19 -50 -19 -38 0 -52 4 -59 19 -6 10
-9 20 -7 22 3 2 29 2 60 1 47 -3 56 -7 56 -23z m-233 -76 c12 -16 22 -35 23
-42 0 -11 3 -12 12 -3 8 8 5 20 -15 46 -15 19 -27 37 -27 40 0 2 15 1 33 -5
40 -11 87 -61 87 -94 0 -23 -4 -25 -44 -25 -74 0 -148 35 -182 87 -14 22 -13
24 8 32 32 12 78 -4 105 -36z" id="node6" class="node"></path>
<path d="M1633 856 c-25 -12 -30 -32 -11 -38 7 -3 24 2 38 9 14 7 39 11 55 8
l30 -5 -28 11 c-21 8 -36 8 -54 0 -14 -7 -28 -9 -31 -6 -4 3 4 8 16 12 12 3
22 9 22 14 0 11 -8 10 -37 -5z" id="node7" class="node"></path>


<path d="M2420 1300 c-95 -20 -179 -86 -225 -176 -26 -52 -30 -69 -29 -144 0
-74 4 -92 29 -140 58 -108 174 -180 290 -180 81 0 193 51 243 110 88 104 102
269 32 381 -71 115 -213 177 -340 149z m196 -51 c35 -16 64 -34 64 -38 0 -5
-16 -12 -35 -15 -25 -5 -60 -31 -128 -95 -77 -73 -102 -90 -135 -96 -29 -5
-49 -2 -69 9 -15 9 -36 18 -45 22 -10 3 -23 24 -28 45 -27 101 88 197 239 198
62 1 83 -4 137 -30z m118 -101 c71 -94 57 -274 -27 -366 -19 -20 -29 -23 -64
-18 -24 3 -51 10 -60 16 -109 61 -237 78 -280 38 -13 -12 -23 -28 -23 -36 0
-26 -29 8 -61 70 -24 47 -29 70 -29 127 0 38 5 82 10 97 l11 27 17 -34 c24
-47 82 -84 130 -83 60 2 89 19 167 99 77 79 100 93 152 94 25 1 38 -6 57 -31z
m-257 -344 c37 -14 92 -33 121 -42 29 -8 51 -20 49 -26 -4 -15 -124 -55 -163
-56 -39 0 -142 35 -174 59 -21 17 -23 22 -12 45 23 51 80 58 179 20z" id="node10" class="node"></path>





</g>
<g transform="translate(0.000000,300.000000) scale(0.100000,-0.100000)" fill="#FFFFFF" stroke="none">

<path d="M920 2421 c-151 -41 -258 -127 -299 -241 -20 -54 -23 -76 -18 -140 8
-97 37 -172 115 -295 64 -101 79 -115 122 -115 43 0 70 -24 70 -63 0 -14 -7
-32 -15 -41 -20 -20 -20 -23 15 -94 57 -117 160 -404 160 -444 0 -9 4 -20 10
-23 5 -3 65 41 132 98 146 123 248 199 343 256 39 23 77 46 85 51 8 5 36 21
63 34 203 107 376 237 433 327 36 58 57 144 50 205 -17 149 -121 305 -226 341
-125 42 -239 20 -418 -83 l-33 -19 -20 27 c-18 24 -142 128 -153 128 -3 0 -24
13 -48 28 -53 35 -83 47 -171 67 -84 19 -114 18 -197 -4z m416 -166 c39 -16
111 -88 94 -93 -6 -2 -16 0 -23 6 -7 5 -29 15 -50 21 -31 11 -45 10 -87 -4
-27 -9 -65 -27 -85 -40 -38 -26 -43 -20 -21 23 17 33 52 66 91 86 37 19 37 19
81 1z m435 -111 c23 -21 52 -105 40 -117 -5 -5 -18 5 -31 23 -29 40 -91 69
-149 70 -52 0 -46 13 15 36 46 17 99 12 125 -12z m-342 -76 c44 -29 46 -29 78
-14 42 20 64 20 108 2 44 -19 91 -67 110 -113 41 -97 -8 -243 -97 -289 -41
-21 -122 -18 -166 7 -37 21 -39 22 -75 4 -26 -12 -52 -16 -87 -13 -163 16
-229 255 -106 386 71 76 151 86 235 30z m-368 -174 c17 -8 29 -18 26 -21 -3
-2 -15 1 -27 7 -20 11 -59 8 -108 -6 -9 -3 -1 4 18 15 43 25 53 25 91 5z m14
-53 c3 -5 -5 -11 -17 -13 -21 -3 -23 -8 -19 -48 4 -62 51 -160 91 -193 75 -63
104 -72 240 -72 107 1 138 5 218 29 52 15 96 25 99 22 4 -3 1 -6 -6 -6 -7 0
-27 -7 -44 -15 -46 -21 -156 -55 -181 -55 -40 0 -66 -12 -66 -30 0 -10 -6 -22
-12 -28 -17 -12 -87 -9 -115 6 -22 12 -73 17 -73 7 0 -3 18 -23 40 -44 31 -29
40 -46 40 -70 0 -32 1 -32 40 -30 22 2 39 -1 37 -6 -1 -6 -50 -10 -112 -10
-106 0 -112 1 -155 30 -107 72 -158 233 -127 402 6 38 5 42 -10 36 -14 -5 -12
0 6 26 38 53 109 88 126 62z" id="node17" class="node"></path>
<path d="M1289 2080 c-68 -20 -122 -87 -135 -166 l-6 -41 43 -11 c24 -7 53
-12 64 -11 11 1 66 -4 123 -11 57 -7 106 -9 109 -6 14 14 3 117 -16 154 -36
70 -117 112 -182 92z" id="node18" class="node"></path>
<path d="M1514 2040 c-32 -13 -37 -27 -18 -54 8 -14 18 -52 21 -84 l5 -58 92
-17 c50 -10 94 -17 99 -17 4 0 7 20 7 44 0 127 -109 225 -206 186z" id="node19" class="node"></path>
<path d="M1150 1838 c0 -25 48 -113 74 -138 24 -22 37 -25 98 -25 l70 0 43 49
c54 61 63 86 28 86 -13 0 -22 -4 -18 -10 3 -5 -4 -19 -15 -30 -28 -28 -60 -12
-60 29 0 28 -2 29 -62 35 -35 4 -84 9 -110 12 -36 5 -48 3 -48 -8z" id="node20" class="node"></path>
<path d="M1510 1813 c0 -9 -14 -39 -31 -66 l-31 -51 28 -23 c62 -49 172 -15
214 67 24 46 25 60 6 60 -9 0 -16 -12 -18 -27 -2 -21 -9 -29 -27 -31 -31 -5
-54 23 -41 48 8 15 4 19 -23 25 -62 15 -77 15 -77 -2z" id="node21" class="node"></path>
<path d="M998 1759 c-23 -13 -38 -70 -38 -146 0 -55 3 -64 24 -78 13 -9 37
-17 52 -18 29 -2 29 -2 28 58 -1 51 -13 102 -42 177 -5 13 -11 15 -24 7z" id="node22" class="node"></path>
<path d="M1080 1553 c1 -60 20 -76 95 -81 74 -5 86 9 28 33 -20 9 -56 31 -80
51 l-43 35 0 -38z" id="node23" class="node"></path>
<path d="M1254 1481 c-2 -2 1 -12 7 -22 7 -15 21 -19 59 -19 43 0 50 3 50 19
0 16 -9 20 -56 23 -31 1 -57 1 -60 -1z" id="node24" class="node"></path>
<path d="M1032 1419 c-21 -8 -22 -10 -8 -32 34 -52 108 -87 182 -87 40 0 44 2
44 25 0 33 -47 83 -87 94 -18 6 -33 7 -33 5 0 -3 12 -21 27 -40 20 -26 23 -38
15 -46 -9 -9 -12 -8 -12 3 -1 24 -44 69 -76 78 -16 4 -39 4 -52 0z" id="node25" class="node"></path>
<path d="M477 1780 c-87 -9 -117 -27 -117 -71 0 -19 9 -34 28 -47 49 -35 64
-35 101 3 20 21 48 37 69 41 30 6 39 3 58 -19 14 -17 25 -23 30 -16 3 6 19 18
35 28 l28 17 -27 33 c-24 29 -35 34 -77 36 -28 2 -85 0 -128 -5z" id="node26" class="node"></path>
<path d="M533 1680 c-28 -12 -63 -67 -63 -100 0 -31 26 -70 46 -70 11 0 14 7
10 23 -3 12 -3 16 0 10 3 -7 15 -13 26 -13 17 0 19 -4 13 -31 -7 -30 14 -69
38 -69 6 0 19 -8 30 -17 10 -10 35 -19 56 -19 20 -1 47 -4 61 -8 16 -4 32 -1
45 8 l20 15 -20 6 c-11 4 -27 10 -36 15 -10 5 -21 4 -29 -3 -10 -9 -11 -9 -8
3 4 11 17 14 59 12 46 -3 56 0 67 18 7 12 12 24 9 26 -2 2 -29 5 -60 7 -59 2
-62 4 -49 24 6 9 17 10 40 4 45 -13 85 0 96 32 16 43 -11 63 -81 60 -57 -3
-86 9 -77 31 3 7 -4 20 -15 30 -18 16 -20 15 -56 -29 -33 -40 -42 -45 -66 -40
-24 6 -29 3 -35 -19 -6 -27 -24 -36 -24 -13 0 21 45 58 62 52 22 -9 30 9 18
39 -10 28 -35 33 -77 16z" id="node27" class="node"></path>
<path d="M2384 1569 c-23 -5 -57 -24 -77 -43 -43 -39 -51 -22 -9 19 l27 28
-33 -6 c-19 -4 -52 -21 -74 -39 -37 -29 -40 -34 -34 -70 8 -46 -10 -52 -22 -6
-4 17 -20 40 -34 51 -25 19 -28 19 -52 3 -24 -15 -45 -61 -33 -72 3 -3 15 -3
26 1 14 4 18 11 14 23 -6 15 -5 15 10 3 9 -7 17 -26 17 -42 0 -29 -15 -48 -23
-27 -3 10 -7 10 -19 0 -14 -11 -14 -16 -1 -42 12 -24 21 -30 48 -30 36 0 55
20 55 58 0 27 46 27 53 1 3 -13 14 -19 31 -19 19 0 26 -5 26 -19 0 -31 23 -43
59 -30 38 14 41 43 6 71 -14 11 -25 26 -25 34 0 16 56 54 81 54 8 0 38 7 67
15 88 26 103 65 34 85 -43 11 -62 11 -118 -1z" id="node28" class="node"></path>
<path d="M2435 1438 c-26 -20 -27 -22 -9 -35 23 -17 65 -17 89 1 19 14 19 15
1 35 -24 27 -46 27 -81 -1z" id="node29" class="node"></path>
<path d="M685 1280 c-3 -5 1 -10 9 -10 9 0 16 5 16 10 0 6 -4 10 -9 10 -6 0
-13 -4 -16 -10z" id="node30" class="node"></path>
<path d="M610 1273 c-74 -25 -254 -119 -320 -167 -59 -42 -100 -91 -100 -117
1 -8 7 -3 14 11 37 67 284 224 384 245 18 4 45 13 60 21 l27 14 -25 -1 c-14 0
-32 -3 -40 -6z" id="node31" class="node"></path>
<path d="M570 1222 c-95 -39 -197 -98 -267 -154 -135 -107 -135 -194 0 -174
43 7 46 9 36 27 -7 15 -7 24 2 35 18 22 38 17 50 -12 5 -15 12 -24 15 -21 3 3
1 14 -5 25 -6 11 -8 28 -5 36 8 20 44 21 44 2 0 -20 25 -37 44 -30 12 4 15 13
10 28 -12 39 -27 44 -20 6 l7 -35 -16 28 c-13 22 -14 31 -4 43 18 22 29 17 45
-21 13 -32 16 -34 34 -23 12 8 18 19 14 28 -15 35 -16 51 -3 66 22 26 86 54
127 54 33 0 40 4 53 33 8 18 12 44 9 57 -5 22 -12 25 -55 27 -34 1 -71 -7
-115 -25z" id="node32" class="node"></path>
<path d="M588 1082 c-34 -33 -35 -50 -5 -61 27 -11 45 3 28 23 -9 11 -8 17 4
30 21 21 67 22 59 1 -6 -16 4 -19 30 -9 9 3 16 15 16 25 0 16 -7 19 -52 18
-44 0 -58 -5 -80 -27z" id="node33" class="node"></path>
<path d="M410 972 c0 -5 6 -17 14 -28 19 -25 31 -12 14 15 -13 21 -28 28 -28
13z" id="node34" class="node"></path>
<path d="M1412 972 c-39 -4 -53 -29 -27 -48 28 -21 174 -19 182 2 3 8 0 21 -6
27 -10 9 -15 8 -25 -5 -15 -21 -67 -24 -99 -6 l-22 12 25 6 c33 8 14 16 -28
12z" id="node35" class="node"></path>
<path d="M354 934 c3 -9 6 -18 6 -20 0 -2 7 -4 15 -4 13 0 13 3 3 20 -15 24
-33 27 -24 4z" id="node36" class="node"></path>
<path d="M1348 914 c-4 -3 -12 -7 -20 -9 -73 -17 -142 -57 -146 -83 -3 -22 -5
-21 113 -51 148 -37 547 -70 583 -47 21 13 13 31 -30 64 -32 25 -49 32 -68 27
-64 -15 -100 -17 -100 -7 0 17 21 26 29 13 6 -9 15 -8 37 4 16 8 23 15 16 15
-7 0 -32 8 -55 19 -49 21 -110 37 -88 22 12 -7 7 -13 -22 -27 -27 -13 -40 -15
-48 -7 -12 12 -4 33 11 33 5 0 7 -7 3 -16 -5 -14 -3 -14 16 -3 19 13 19 14 3
21 -9 3 -53 7 -98 7 -54 1 -86 6 -100 16 -21 16 -28 18 -36 9z m322 -53 c0 -5
-10 -11 -22 -14 -12 -4 -20 -9 -16 -12 3 -3 17 -1 31 6 18 8 33 8 54 0 l28
-11 -30 5 c-16 3 -41 -1 -55 -8 -14 -7 -31 -12 -38 -9 -19 6 -14 26 11 38 29
15 37 16 37 5z" id="node37" class="node"></path>
<path d="M2356 1254 c-96 -47 -135 -105 -116 -173 5 -21 18 -42 28 -45 9 -4
30 -13 45 -22 20 -11 40 -14 69 -9 33 6 58 23 135 96 68 64 103 90 128 95 19
3 35 10 35 15 0 4 -29 22 -64 38 -85 41 -185 43 -260 5z" id="node38" class="node"></path>
<path d="M2621 1169 c-13 -5 -56 -43 -96 -84 -78 -80 -107 -97 -167 -99 -48
-1 -106 36 -130 83 l-17 34 -11 -27 c-5 -15 -10 -59 -10 -97 0 -57 5 -80 29
-127 32 -62 61 -96 61 -70 0 8 10 24 23 36 43 40 171 23 280 -38 9 -6 36 -13
60 -16 35 -5 45 -2 64 18 84 92 98 272 27 366 -27 34 -63 41 -113 21z" id="node39" class="node"></path>
<path d="M2332 820 c-12 -5 -28 -21 -34 -36 -11 -23 -9 -28 12 -45 32 -24 135
-59 174 -59 39 1 159 41 163 56 2 6 -20 18 -49 26 -29 9 -84 28 -121 42 -71
27 -107 31 -145 16z" id="node40" class="node"></path>
</g>
</svg>