<!--?xml version="1.0" standalone="no"?-->

<svg version="1.0" xmlns="http://www.w3.org/2000/svg" width="300.000000pt" height="251.000000pt" viewBox="0 0 300.000000 251.000000" preserveAspectRatio="xMidYMid meet">
<g transform="translate(0.000000,251.000000) scale(0.100000,-0.100000)" fill="#353535" stroke="none">
<path d="M1315 2368 c-11 -6 -50 -38 -87 -71 l-67 -59 -56 21 c-67 25 -93 26
-123 5 -30 -21 -29 -68 3 -119 13 -22 25 -45 25 -51 0 -7 -40 -17 -102 -24
-57 -7 -107 -16 -111 -20 -5 -4 6 -24 24 -45 32 -36 35 -37 86 -33 l52 5 -58
-63 c-69 -74 -106 -144 -122 -237 -11 -58 -10 -81 5 -162 19 -101 68 -216 106
-250 12 -11 31 -32 41 -47 l19 -26 -94 5 c-91 6 -94 5 -107 -18 -7 -13 -28
-45 -47 -70 -34 -46 -62 -60 -167 -84 -19 -4 -56 -34 -101 -81 -61 -63 -73
-81 -79 -119 l-6 -45 -98 0 -98 0 -7 -316 c-4 -174 -4 -320 1 -324 14 -14 753
-24 809 -12 27 6 66 14 87 17 l37 6 0 142 c0 78 4 147 8 153 4 6 21 18 37 27
17 8 43 27 58 41 l28 26 42 -29 c23 -16 75 -45 116 -66 68 -35 76 -37 112 -26
27 8 56 31 101 81 53 60 67 70 95 70 44 0 145 39 251 97 74 41 94 47 132 45
26 -2 53 -11 63 -21 10 -10 29 -61 43 -114 l24 -96 -20 -33 c-11 -18 -20 -41
-20 -51 0 -16 2 -16 39 2 64 33 338 122 419 137 42 7 101 13 130 14 63 0 61
12 -7 42 -57 26 -209 28 -317 5 -70 -15 -166 -56 -179 -77 -13 -22 -23 -7 -39
58 -10 37 -26 86 -36 109 -18 41 -26 46 -83 55 -12 2 3 18 50 53 68 49 83 62
200 168 59 53 66 57 112 57 28 0 53 -5 57 -11 3 -6 25 -19 48 -30 22 -10 57
-28 76 -39 41 -25 89 -21 151 10 37 20 72 58 68 76 -2 5 4 21 11 36 11 23 11
33 0 55 -7 16 -12 42 -11 59 2 21 -6 41 -23 60 l-24 29 -49 -19 c-51 -19 -69
-21 -118 -11 -47 10 -99 -29 -105 -81 -7 -53 -37 -92 -78 -100 l-33 -7 50 66
c72 95 116 179 150 287 38 119 47 213 32 321 -23 162 -56 227 -163 323 -173
154 -341 175 -549 71 -64 -33 -159 -115 -159 -138 0 -6 -17 5 -37 25 -21 20
-48 41 -61 48 -23 11 -23 12 22 47 25 20 46 40 46 45 0 6 -35 8 -92 4 -51 -4
-109 -8 -128 -9 l-35 -2 -12 75 c-20 124 -29 147 -65 159 -39 14 -68 14 -93
-1z m88 -36 c20 -21 42 -103 35 -124 -4 -9 -26 -18 -55 -22 -126 -19 -349 -43
-359 -39 -16 6 -37 57 -32 80 5 24 63 20 130 -9 l47 -20 58 57 c95 94 142 115
176 77z m884 -206 c80 -38 208 -126 232 -161 12 -18 36 -68 53 -111 31 -76 32
-85 32 -224 0 -139 -2 -149 -33 -233 -86 -236 -191 -366 -472 -585 -92 -72
-333 -193 -406 -204 -17 -2 -31 12 -71 72 -89 135 -196 228 -367 320 -114 61
-264 190 -352 304 -48 61 -84 155 -97 253 -15 118 59 310 145 376 57 43 114
57 371 95 296 42 297 42 398 -55 35 -35 66 -63 67 -63 2 0 3 12 3 27 0 38 76
105 174 154 130 64 236 75 323 35z m-621 -21 c-11 -8 -36 -15 -55 -15 -20 0
-50 -4 -67 -9 -18 -5 -94 -16 -170 -26 -77 -9 -150 -20 -164 -25 -14 -5 -96
-14 -184 -21 -138 -10 -160 -9 -173 4 -14 13 -13 16 3 20 11 4 93 13 184 22
91 8 224 22 295 30 157 18 291 32 325 33 24 1 24 1 6 -13z m1125 -885 c37 -20
12 -80 -33 -80 -25 0 -58 27 -58 47 0 8 15 20 33 28 39 17 35 17 58 5z m-121
-46 c47 -43 52 -71 14 -80 -38 -10 -78 7 -82 34 -4 25 -22 30 -22 6 0 -14 29
-46 74 -82 10 -8 14 -21 10 -41 -4 -16 -1 -32 5 -35 6 -4 11 -12 11 -17 0 -18
-55 3 -82 32 -15 16 -33 26 -41 23 -18 -7 -51 31 -43 51 3 9 13 15 22 13 14
-2 17 7 18 52 1 47 4 56 26 67 37 19 46 16 90 -23z m-1653 -42 c106 -86 176
-136 238 -168 158 -83 255 -167 332 -286 l45 -69 -25 -32 c-14 -18 -45 -54
-69 -81 -37 -41 -48 -48 -80 -48 -39 0 -153 55 -200 97 l-27 24 19 58 c21 64
13 89 -15 46 -10 -15 -27 -35 -38 -43 -31 -24 -101 -59 -108 -54 -3 2 -4 43
-2 91 6 112 4 113 -134 113 -92 0 -103 2 -103 18 0 10 -9 35 -19 55 -16 31
-17 43 -8 68 15 39 -6 80 -48 94 -17 6 -40 16 -53 23 l-22 13 27 47 c45 79 36
75 152 68 94 -5 107 -9 138 -34z m1807 -27 c11 -29 -30 -55 -83 -55 -28 0 -53
5 -56 10 -3 6 -3 10 2 10 4 0 21 11 37 25 33 29 90 34 100 10z m-2090 -105
c56 -25 66 -33 66 -54 0 -33 -11 -38 -43 -21 -33 17 -41 7 -39 -50 2 -52 -15
-70 -60 -61 -17 3 -46 1 -64 -6 -28 -10 -36 -9 -52 5 -10 9 -31 17 -46 17 -28
0 -31 4 -40 59 -5 29 -1 38 33 72 22 22 49 39 62 40 13 0 40 7 59 14 49 19 50
19 124 -15z m2066 14 c0 -14 -60 -54 -81 -54 -19 0 -40 35 -33 54 7 19 114 18
114 0z m-2050 -219 c0 -10 -10 -15 -27 -15 -26 0 -26 1 -7 15 25 19 34 19 34
0z m-220 -5 c11 -7 4 -10 -27 -10 -24 0 -43 5 -43 10 0 13 50 13 70 0z m113
-7 c-7 -2 -19 -2 -25 0 -7 3 -2 5 12 5 14 0 19 -2 13 -5z m285 -83 c2 -25 1
-159 -3 -297 l-7 -253 -283 0 c-155 0 -324 3 -375 7 l-93 6 6 191 c4 105 7
237 7 294 l0 102 373 -2 372 -3 3 -45z m124 -235 c-2 -154 -7 -284 -11 -288
-4 -4 -27 -9 -50 -10 l-42 -2 -1 75 c-1 41 -1 173 0 293 l2 218 53 -3 52 -3
-3 -280z" id="node1" class="node"></path>
<path d="M1552 1962 c-52 -27 -94 -74 -79 -88 4 -4 16 2 27 14 12 12 39 25 61
28 39 6 69 33 69 61 0 19 -19 16 -78 -15z" id="node2" class="node"></path>
<path d="M1970 1941 c-15 -30 -14 -31 39 -31 27 0 62 -5 76 -10 41 -16 26 10
-21 37 -48 28 -80 29 -94 4z" id="node3" class="node"></path>
<path d="M1531 1868 c-60 -32 -81 -74 -81 -162 0 -91 25 -144 86 -185 56 -37
110 -46 174 -31 47 11 90 46 102 81 3 9 10 9 28 -1 107 -57 263 -33 334 50 31
38 40 69 33 117 -14 84 -76 122 -198 123 -66 0 -81 -3 -121 -29 -26 -16 -52
-40 -59 -53 -6 -13 -13 -25 -15 -27 -2 -3 -21 15 -41 38 -78 92 -165 120 -242
79z m172 -45 c120 -87 138 -247 32 -297 -87 -42 -209 -3 -246 77 -23 51 -25
144 -4 193 29 70 139 84 218 27z m415 -3 c44 -20 72 -63 72 -113 0 -38 -41
-90 -95 -119 -69 -36 -176 -39 -226 -5 -29 19 -35 31 -42 76 -6 46 -4 59 15
95 44 80 175 112 276 66z" id="node4" class="node"></path>
<path d="M1620 1635 c-10 -12 -10 -18 0 -30 7 -8 18 -15 25 -15 7 0 18 7 25
15 10 12 10 18 0 30 -7 8 -18 15 -25 15 -7 0 -18 -7 -25 -15z" id="node5" class="node"></path>
<path d="M1853 1664 c-8 -21 13 -42 28 -27 13 13 5 43 -11 43 -6 0 -13 -7 -17
-16z" id="node6" class="node"></path>
<path d="M1093 1634 c-28 -28 -24 -47 5 -21 10 10 23 17 28 17 6 0 15 -46 21
-103 18 -172 77 -308 178 -408 54 -53 86 -75 180 -122 51 -26 74 -31 156 -35
87 -4 105 -1 195 28 54 17 105 34 112 37 8 3 16 -4 19 -16 3 -12 10 -21 15
-21 11 0 2 50 -12 63 -4 5 -17 4 -29 -3 -25 -13 -23 -15 -46 83 -24 109 -24
110 40 125 56 13 185 67 195 81 3 4 26 19 51 33 89 52 207 178 197 209 -2 7
-18 -7 -35 -32 -43 -61 -85 -99 -181 -163 -273 -181 -672 -197 -876 -35 -64
51 -112 119 -131 183 -22 72 -20 106 6 106 11 0 17 5 14 10 -13 20 -75 11
-102 -16z m104 -191 c3 -10 15 -28 25 -39 17 -19 18 -25 6 -43 -7 -12 -16 -21
-19 -21 -3 0 -13 27 -21 60 -8 33 -11 60 -6 60 5 0 11 -8 15 -17z m94 -107
c15 -13 34 -26 40 -28 9 -3 7 -17 -6 -54 -10 -27 -22 -53 -26 -58 -8 -9 -63
71 -75 107 -3 11 1 26 12 38 21 24 20 24 55 -5z m150 -83 c61 -20 78 -30 74
-42 -2 -9 -12 -47 -20 -86 -9 -38 -18 -72 -21 -76 -9 -15 -68 17 -114 62 l-48
46 21 62 c12 33 24 61 26 61 2 0 39 -12 82 -27z m444 -45 c10 -47 25 -142 25
-159 0 -14 -17 -23 -66 -39 -109 -33 -104 -37 -104 90 l0 109 38 6 c20 4 42 8
47 10 31 11 55 4 60 -17z m-217 2 l52 0 0 -109 0 -108 -36 -6 c-34 -6 -94 2
-159 21 -39 12 -38 32 11 201 3 10 15 12 42 7 20 -3 61 -6 90 -6z" id="node7" class="node"></path>
</g>
<g transform="translate(0.000000,251.000000) scale(0.100000,-0.100000)" fill="#FFFFFF" stroke="none">

<path d="M1315 2331 c-16 -10 -56 -44 -88 -76 l-58 -57 -47 20 c-67 29 -125
33 -130 9 -5 -23 16 -74 32 -80 6 -3 79 3 161 13 280 34 268 29 246 109 -21
80 -57 99 -116 62z" id="node9" class="node"></path>
<path d="M2090 2139 c-118 -23 -300 -146 -300 -202 0 -15 -1 -27 -3 -27 -1 0
-32 28 -67 63 -101 97 -102 97 -398 55 -257 -38 -314 -52 -371 -95 -86 -66
-160 -258 -145 -376 13 -98 49 -192 97 -253 88 -114 238 -243 352 -304 171
-92 278 -185 367 -320 40 -60 54 -74 71 -72 73 11 314 132 406 204 281 219
386 349 472 585 31 84 33 94 33 233 0 139 -1 148 -32 224 -44 110 -64 135
-154 195 -149 99 -204 114 -328 90z m-460 -162 c0 -28 -30 -55 -69 -61 -22 -3
-49 -16 -61 -28 -11 -12 -23 -18 -27 -14 -15 14 27 61 79 88 59 31 78 34 78
15z m434 -40 c47 -27 62 -53 21 -37 -14 5 -49 10 -76 10 -53 0 -54 1 -39 31
14 25 46 24 94 -4z m-366 -81 c22 -13 55 -44 75 -67 20 -23 39 -41 41 -38 2 2
9 14 15 27 7 13 33 37 59 53 40 26 55 29 121 29 122 -1 184 -39 198 -123 7
-48 -2 -79 -33 -117 -71 -83 -227 -107 -334 -50 -18 10 -25 10 -28 1 -19 -58
-111 -100 -191 -86 -59 10 -126 58 -150 109 -28 56 -29 167 -2 216 41 78 146
99 229 46z m-503 -206 c3 -5 -3 -10 -14 -10 -26 0 -28 -34 -6 -106 39 -133
167 -237 345 -280 92 -23 260 -18 371 11 140 35 198 60 291 121 96 64 138 102
181 163 17 25 33 39 35 32 10 -31 -108 -157 -197 -209 -25 -14 -48 -29 -51
-33 -10 -14 -139 -68 -195 -81 -64 -15 -64 -16 -40 -125 23 -98 21 -96 46 -83
12 7 25 8 29 3 14 -13 23 -63 12 -63 -5 0 -12 9 -15 21 -3 12 -11 19 -19 16
-7 -3 -58 -20 -112 -37 -90 -29 -108 -32 -195 -28 -82 4 -105 9 -156 35 -94
47 -126 69 -180 122 -101 100 -160 236 -178 408 -6 57 -15 103 -21 103 -5 0
-18 -7 -28 -17 -29 -26 -33 -7 -5 21 27 27 89 36 102 16z" id="node10" class="node"></path>
<path d="M1532 1845 c-42 -18 -62 -66 -62 -142 1 -119 69 -193 179 -193 102 0
153 45 155 136 2 135 -157 251 -272 199z m138 -210 c10 -12 10 -18 0 -30 -7
-8 -18 -15 -25 -15 -7 0 -18 7 -25 15 -10 12 -10 18 0 30 7 8 18 15 25 15 7 0
18 -7 25 -15z" id="node11" class="node"></path>
<path d="M1910 1818 c-65 -33 -93 -87 -83 -159 7 -45 13 -57 42 -76 28 -19 47
-23 105 -22 85 1 157 34 193 88 27 40 29 68 8 117 -29 71 -172 99 -265 52z
m-23 -154 c8 -21 -13 -42 -28 -27 -13 13 -5 43 11 43 6 0 13 -7 17 -16z" id="node12" class="node"></path>
<path d="M1188 1400 c8 -33 18 -60 21 -60 3 0 12 9 19 21 12 18 11 24 -6 43
-10 11 -22 29 -25 39 -4 9 -10 17 -15 17 -5 0 -2 -27 6 -60z" id="node13" class="node"></path>
<path d="M1236 1341 c-11 -12 -15 -27 -12 -38 12 -36 67 -116 75 -107 4 5 16
31 26 58 13 37 15 51 6 54 -6 2 -25 15 -40 28 -35 29 -34 29 -55 5z" id="node14" class="node"></path>
<path d="M1333 1219 l-21 -62 48 -46 c46 -45 105 -77 114 -62 3 4 12 38 21 76
8 39 18 77 20 86 4 12 -13 22 -74 42 -43 15 -80 27 -82 27 -2 0 -14 -28 -26
-61z" id="node15" class="node"></path>
<path d="M1825 1225 c-5 -2 -27 -6 -47 -10 l-38 -6 0 -109 c0 -127 -5 -123
104 -90 73 23 72 20 56 116 -18 102 -19 104 -43 103 -12 0 -26 -2 -32 -4z" id="node16" class="node"></path>
<path d="M1536 1209 c-49 -169 -50 -189 -11 -201 65 -19 125 -27 159 -21 l36
6 0 108 0 109 -52 0 c-29 0 -70 3 -90 6 -27 5 -39 3 -42 -7z" id="node17" class="node"></path>
<path d="M1550 2109 c-47 -5 -143 -16 -215 -24 -71 -8 -204 -22 -295 -30 -91
-9 -173 -18 -184 -22 -16 -4 -17 -7 -3 -20 13 -13 35 -14 173 -4 88 7 170 16
184 21 14 5 87 16 164 25 76 10 152 21 170 26 17 5 47 9 67 9 19 0 44 7 55 15
18 14 18 14 -6 13 -14 0 -63 -5 -110 -9z" id="node18" class="node"></path>
<path d="M2733 1215 c-18 -8 -33 -20 -33 -28 0 -20 33 -47 58 -47 45 0 70 60
33 80 -23 12 -19 12 -58 -5z" id="node19" class="node"></path>
<path d="M2580 1197 c-22 -11 -25 -20 -26 -67 -1 -45 -4 -54 -18 -52 -9 2 -19
-4 -22 -13 -8 -20 25 -58 43 -51 8 3 26 -7 41 -23 27 -29 82 -50 82 -32 0 5
-5 13 -11 17 -6 3 -9 19 -5 35 4 20 0 33 -10 41 -45 36 -74 68 -74 82 0 24 18
19 22 -6 6 -43 108 -51 108 -9 0 20 -72 91 -93 91 -6 0 -23 -6 -37 -13z" id="node20" class="node"></path>

<path d="M2724 1095 c-16 -14 -33 -25 -37 -25 -5 0 -5 -4 -2 -10 3 -5 28 -10
56 -10 35 0 54 5 69 20 48 48 -32 71 -86 25z" id="node22" class="node"></path>
<path d="M610 1015 c-19 -7 -46 -14 -59 -14 -13 -1 -40 -18 -62 -40 -34 -34
-38 -43 -33 -72 9 -55 12 -59 40 -59 15 0 36 -8 46 -17 16 -14 24 -15 52 -5
18 7 47 9 64 6 45 -9 62 9 60 61 -2 57 6 67 39 50 32 -17 43 -12 43 21 0 21
-10 29 -66 54 -74 34 -75 34 -124 15z" id="node23" class="node"></path>
<path d="M2686 1014 c-7 -19 14 -54 33 -54 21 0 81 40 81 54 0 18 -107 19
-114 0z" id="node24" class="node"></path>
<path d="M716 795 c-19 -14 -19 -15 7 -15 17 0 27 5 27 15 0 19 -9 19 -34 0z" id="node25" class="node"></path>
<path d="M460 790 c0 -5 19 -10 43 -10 31 0 38 3 27 10 -20 13 -70 13 -70 0z" id="node26" class="node"></path>
<path d="M618 783 c6 -2 18 -2 25 0 6 3 1 5 -13 5 -14 0 -19 -2 -12 -5z" id="node27" class="node"></path>
<path d="M180 648 c0 -57 -3 -189 -7 -294 l-6 -191 93 -6 c51 -4 220 -7 375
-7 l283 0 7 253 c4 138 5 272 3 297 l-3 45 -372 3 -373 2 0 -102z" id="node28" class="node"></path>
<path d="M948 533 c-1 -120 -1 -252 0 -293 l1 -75 42 2 c23 1 46 6 50 10 4 4
9 134 11 288 l3 280 -52 3 -53 3 -2 -218z" id="node29" class="node"></path>
</g>
</svg>