<!--?xml version="1.0" standalone="no"?-->

<svg version="1.0" xmlns="http://www.w3.org/2000/svg" width="300.000000pt" height="218.000000pt" viewBox="0 0 300.000000 218.000000" preserveAspectRatio="xMidYMid meet">
<g transform="translate(0.000000,218.000000) scale(0.100000,-0.100000)" fill="#141414" stroke="none">
<path class="node" id="node1" d="M1094 2136 c-62 -20 -95 -43 -142 -102 -84 -103 -106 -212 -78 -385
35 -211 136 -458 268 -653 139 -206 249 -323 428 -453 51 -36 190 -115 190
-107 0 2 -26 21 -59 43 -138 94 -323 349 -396 548 l-14 38 0 -78 c-1 -56 -4
-78 -13 -75 -20 7 -116 188 -169 323 -67 167 -95 290 -93 405 4 177 136 346
269 344 90 -1 202 -68 257 -153 38 -61 35 -45 -9 46 -50 105 -163 224 -239
253 -62 23 -139 25 -200 6z"></path>
<path class="node" id="node2" d="M1925 1859 c-90 -13 -176 -60 -236 -129 -83 -94 -103 -135 -29 -58
55 56 74 69 124 83 37 11 80 16 118 13 76 -6 97 -25 105 -99 5 -47 -1 -72 -37
-180 -24 -68 -68 -176 -98 -239 l-54 -115 -15 64 c-8 35 -18 59 -22 55 -4 -5
-13 -40 -20 -78 -17 -98 -63 -224 -118 -325 -25 -47 -39 -80 -29 -72 26 21
255 325 304 404 171 273 212 373 212 522 0 93 -1 98 -29 126 -16 16 -40 29
-53 29 -13 0 -32 2 -43 4 -11 2 -47 0 -80 -5z"></path>
<path class="node" id="node3" d="M200 1686 c42 -45 150 -126 206 -154 89 -45 237 -64 333 -41 38 8 47
7 65 -9 22 -21 79 -52 94 -52 4 0 4 20 -2 45 -6 25 -16 45 -22 45 -6 0 -30 14
-53 30 l-41 30 -62 -21 c-69 -23 -170 -27 -257 -10 -66 13 -174 71 -244 130
-48 42 -50 42 -17 7z"></path>
<path class="node" id="node4" d="M1085 1527 c-22 -7 -39 -16 -37 -20 1 -4 2 -16 2 -26 0 -18 2 -18 48
-4 57 18 124 12 189 -17 40 -17 51 -19 70 -9 13 7 23 16 23 20 0 4 -24 19 -52
33 -64 31 -182 42 -243 23z"></path>
<path class="node" id="node5" d="M1404 1467 c-12 -6 -39 -25 -60 -42 -35 -28 -44 -30 -118 -30 -64 0
-90 5 -123 22 -42 22 -43 22 -43 3 0 -53 100 -87 220 -75 l67 7 7 -43 c8 -50
32 -92 76 -134 27 -25 31 -26 27 -10 -3 11 -11 39 -17 62 -7 29 -15 41 -24 37
-10 -4 -15 8 -20 39 -7 47 2 84 29 110 20 21 29 21 49 1 15 -14 16 -14 16 1 0
16 -43 65 -57 65 -4 0 -18 -6 -29 -13z"></path>
<path class="node" id="node6" d="M575 1432 c-60 -22 -88 -25 -202 -26 -108 -1 -128 -3 -109 -13 34
-18 192 -36 261 -30 84 8 154 31 195 66 l35 30 -55 -1 c-31 -1 -87 -12 -125
-26z"></path>
<path class="node" id="node7" d="M1546 1419 c-34 -40 -33 -56 0 -30 31 25 54 14 54 -25 0 -31 -52
-136 -65 -131 -5 3 -17 -18 -26 -45 l-16 -50 31 31 c17 17 49 66 72 109 l41
77 58 14 c57 14 139 8 186 -13 20 -9 47 43 28 55 -29 17 -102 19 -181 4 l-83
-16 -18 26 c-25 33 -50 32 -81 -6z"></path>
<path class="node" id="node8" d="M790 1431 c0 -46 52 -91 104 -91 30 0 40 13 31 41 -5 16 -12 19 -30
15 -15 -4 -35 3 -59 19 -41 28 -46 29 -46 16z"></path>
<path class="node" id="node9" d="M689 1383 c-15 -2 -32 -15 -39 -28 -7 -14 -45 -47 -84 -74 -117 -80
-300 -151 -441 -171 -50 -7 -45 -8 34 -4 149 8 235 28 348 83 71 35 117 65
148 97 44 45 84 106 68 103 -5 -1 -20 -4 -34 -6z"></path>
<path class="node" id="node10" d="M717 1322 c-15 -16 -41 -56 -56 -88 -49 -102 -196 -257 -338 -357
-61 -42 -215 -122 -257 -131 -15 -4 -26 -9 -23 -12 3 -3 55 11 117 32 166 55
333 161 440 278 89 98 157 229 148 285 -3 22 -4 22 -31 -7z"></path>
<path class="node" id="node11" d="M2026 1328 c-28 -40 -20 -57 41 -85 46 -21 74 -27 140 -28 57 -1 87
-5 100 -16 65 -55 209 -119 267 -119 44 0 138 42 175 77 l36 35 -32 -21 c-55
-37 -131 -48 -200 -28 -61 16 -196 92 -227 126 -16 17 -27 19 -85 14 -70 -6
-103 4 -160 48 -30 24 -37 24 -55 -3z"></path>
<path class="node" id="node12" d="M773 1280 c-13 -22 -23 -56 -23 -78 0 -45 -37 -172 -73 -255 -74
-164 -260 -376 -428 -487 -51 -33 -89 -60 -85 -60 15 0 189 104 246 147 137
102 273 259 319 366 38 88 63 202 69 305 2 56 3 102 1 102 -2 0 -14 -18 -26
-40z"></path>
<path class="node" id="node13" d="M1626 1305 c-4 -10 5 -22 27 -35 42 -26 92 -26 110 0 13 18 16 19 27
5 15 -18 61 -20 78 -3 26 26 12 33 -60 33 -40 0 -96 3 -124 8 -42 6 -53 5 -58
-8z"></path>
<path class="node" id="node14" d="M1972 1238 c-21 -21 -13 -35 30 -53 48 -19 110 -22 148 -6 l25 10
-27 0 c-35 1 -119 29 -139 47 -19 17 -22 17 -37 2z"></path>
<path class="node" id="node15" d="M2237 1177 c-16 -11 -15 -15 14 -55 61 -83 171 -140 334 -173 76 -15
276 -13 335 4 42 12 38 12 -61 9 -203 -8 -430 66 -547 178 -29 27 -54 50 -55
50 -2 0 -11 -6 -20 -13z"></path>
<path class="node" id="node16" d="M2036 1118 c-16 -61 11 -257 55 -398 26 -82 116 -252 171 -322 110
-139 277 -289 368 -332 19 -9 27 -11 16 -4 -175 118 -327 300 -426 511 -68
147 -98 251 -117 406 -12 96 -21 140 -32 148 -23 17 -28 16 -35 -9z"></path>
<path class="node" id="node17" d="M2123 1058 c9 -115 90 -282 195 -403 97 -111 382 -381 382 -361 0 4
-60 68 -133 144 -232 241 -359 439 -383 599 -6 43 -36 93 -56 93 -7 0 -9 -24
-5 -72z"></path>
<path class="node" id="node18" d="M2194 1104 c47 -184 404 -439 691 -493 63 -12 47 4 -31 29 -68 22
-208 98 -304 166 -77 54 -210 171 -245 217 -39 49 -75 86 -99 99 -17 9 -18 7
-12 -18z"></path>
</g>
<g transform="translate(0.000000,218.000000) scale(0.100000,-0.100000)" fill="#A1A1A1" stroke="none">

</g>
</svg>