<!--?xml version="1.0" standalone="no"?-->

<svg version="1.0" xmlns="http://www.w3.org/2000/svg" width="300.000000pt" height="284.000000pt" viewBox="0 0 300.000000 284.000000" preserveAspectRatio="xMidYMid meet">
<g transform="translate(0.000000,284.000000) scale(0.100000,-0.100000)" fill="#2F2F2F" stroke="none">
<path d="M1216 2832 c-3 -5 -28 -12 -55 -15 -51 -6 -171 -54 -171 -69 0 -4
-11 -8 -24 -8 -33 0 -186 -118 -186 -144 0 -5 -9 -19 -19 -30 -35 -38 -108
-190 -121 -250 -6 -32 -18 -74 -27 -93 -23 -57 -28 -285 -9 -433 24 -183 85
-423 115 -453 6 -6 11 -15 11 -20 0 -5 12 -36 26 -68 l26 -58 -52 -80 c-29
-45 -56 -81 -61 -81 -4 0 -11 -9 -14 -21 -6 -18 -10 -14 -31 29 -13 27 -30 55
-39 62 -19 16 -61 6 -76 -19 -11 -17 -14 -17 -56 7 -75 41 -114 13 -100 -74 3
-19 1 -47 -4 -63 -17 -47 17 -100 95 -149 63 -40 101 -52 121 -41 6 4 26 9 46
13 40 7 73 38 116 108 63 104 109 168 120 168 6 0 16 -13 21 -29 11 -32 187
-278 231 -323 71 -74 88 -107 70 -137 -8 -11 -18 -21 -24 -21 -5 0 -34 -23
-64 -50 -29 -28 -55 -50 -57 -50 -2 0 -3 8 -2 17 2 10 -1 78 -6 151 l-8 132
-26 0 c-37 0 -127 -44 -188 -91 -28 -21 -56 -39 -62 -39 -16 0 -180 -168 -198
-203 -24 -45 -15 -71 25 -75 55 -6 173 25 203 53 15 14 32 25 38 25 24 0 93
78 132 151 24 43 45 79 48 79 3 0 5 -56 4 -125 0 -69 3 -125 7 -125 18 0 121
73 164 115 24 25 46 45 49 45 4 0 47 -39 118 -107 42 -40 59 -39 121 10 l38
29 -7 -28 c-3 -16 -16 -45 -29 -64 -85 -134 -119 -181 -154 -222 -23 -25 -41
-50 -41 -55 0 -5 -16 -24 -35 -43 -19 -18 -32 -37 -29 -42 8 -13 24 -10 22 4
-2 7 16 22 40 33 23 11 40 25 38 31 -2 6 4 15 14 22 40 25 201 262 204 302 1
8 10 30 19 48 14 25 23 32 35 26 60 -26 179 -8 254 38 46 29 108 100 108 124
0 7 9 29 21 48 15 27 20 48 17 85 l-3 49 81 73 c45 41 97 92 116 114 18 22 51
59 73 82 97 100 244 294 264 346 5 12 25 46 44 74 38 56 70 133 88 210 5 27
14 56 19 65 32 59 36 349 6 440 -8 24 -17 57 -21 73 -3 17 -20 58 -36 93 -16
35 -29 67 -29 72 0 15 -92 110 -135 140 -24 16 -78 39 -121 51 -78 21 -80 21
-173 4 -104 -20 -245 -83 -308 -138 -24 -21 -38 -28 -41 -19 -15 47 -195 222
-229 222 -8 0 -21 7 -29 15 -9 8 -27 18 -42 22 -15 3 -30 10 -33 15 -13 20
-223 57 -233 40z m179 -42 c55 -15 82 -30 135 -75 63 -54 274 -270 315 -323
21 -28 41 -49 43 -47 3 2 -6 19 -20 37 -14 18 -33 48 -42 67 -17 32 -17 34 1
47 46 35 93 62 148 84 33 13 66 28 73 33 7 6 62 13 122 15 99 4 112 2 163 -21
153 -70 242 -183 267 -342 6 -38 16 -86 21 -106 16 -62 10 -136 -22 -281 -60
-274 -174 -493 -372 -716 -76 -86 -275 -272 -291 -272 -2 0 -19 26 -36 58 -18
31 -51 78 -72 105 -45 53 -46 45 24 121 21 23 38 44 38 49 0 23 33 0 70 -49
23 -30 44 -53 47 -51 6 7 -73 144 -89 153 -7 4 -28 -12 -52 -42 -90 -108 -93
-110 -113 -97 -29 20 -76 41 -98 45 -25 4 -45 43 -45 90 0 31 6 42 43 72 24
20 86 60 138 90 51 29 95 59 97 65 10 29 -79 -1 -113 -39 -10 -11 -22 -20 -27
-20 -10 0 -111 -67 -201 -132 -82 -60 -187 -174 -221 -242 -23 -46 -28 -65
-23 -103 7 -66 33 -86 107 -81 30 2 63 8 74 13 16 7 18 5 12 -21 -8 -39 -28
-223 -28 -254 1 -14 4 -41 7 -60 6 -34 4 -36 -56 -75 l-62 -39 -41 49 c-23 26
-71 80 -108 118 -38 38 -68 74 -68 80 0 5 -31 51 -68 101 -70 93 -142 195
-176 248 -23 36 -17 49 59 133 30 33 55 64 55 69 0 23 -262 -272 -315 -354
-24 -37 -54 -75 -66 -84 -70 -49 -249 35 -249 116 l0 30 51 -41 c28 -22 55
-38 60 -35 6 3 -15 32 -45 65 -30 32 -57 68 -61 79 -7 22 9 50 29 50 19 0 76
-64 99 -111 25 -48 55 -68 43 -28 -4 13 -10 55 -13 93 -5 61 -4 68 12 65 17
-4 35 -45 55 -131 17 -69 22 -66 77 42 28 55 77 130 86 130 4 0 7 5 7 10 0 14
89 136 125 172 15 15 25 32 23 37 -5 16 -21 1 -67 -61 -23 -32 -46 -58 -51
-58 -11 0 -47 72 -54 110 -3 14 -15 57 -27 95 -53 173 -71 285 -76 465 -13
420 71 631 320 807 130 92 277 121 422 83z m190 -1552 c-5 -29 -3 -44 9 -57
15 -16 14 -19 -8 -40 -28 -26 -63 -21 -95 13 l-21 22 53 55 c28 31 56 54 60
51 5 -2 5 -22 2 -44z m172 -161 c101 -120 153 -217 153 -284 0 -98 -50 -177
-155 -245 -56 -37 -62 -38 -120 -33 -93 8 -113 19 -120 70 -4 23 1 109 10 191
19 167 18 219 -5 219 -8 0 -17 -11 -20 -24 -6 -25 -61 -61 -92 -61 -25 0 -22
22 8 83 50 99 80 115 152 78 39 -20 45 -26 105 -105 20 -27 37 -44 37 -39 0
28 -33 98 -64 136 -41 51 -33 77 24 76 30 0 42 -8 87 -62z m-787 -407 c-11
-37 -20 -50 -105 -148 -74 -85 -140 -127 -237 -153 -88 -24 -87 24 3 107 29
27 69 66 90 86 21 21 66 52 101 70 35 18 74 40 87 50 13 10 34 18 47 18 20 0
22 -3 14 -30z" id="node1" class="node" stroke-width="20"></path>
<path d="M1420 2397 c-88 -182 -233 -406 -333 -513 -72 -77 -83 -106 -23 -60
19 14 37 26 40 26 3 0 6 -17 6 -39 0 -51 24 -108 63 -149 34 -36 99 -74 120
-71 18 3 67 -12 67 -20 0 -4 -12 -18 -26 -32 -34 -31 -84 -99 -84 -114 0 -6
37 25 83 70 125 122 178 165 256 205 52 26 127 50 159 50 41 0 18 25 -26 28
-43 3 -47 9 -36 49 l6 22 47 -23 c54 -28 142 -41 207 -31 83 12 156 99 170
203 13 102 -65 209 -161 220 -60 6 -182 -24 -218 -54 -37 -31 -55 -30 -63 1
-3 14 -28 44 -54 68 -49 44 -106 67 -164 67 l-35 0 25 70 c42 122 27 138 -26
27z m140 -148 c35 -18 72 -70 88 -125 20 -67 21 -165 1 -287 l-12 -77 -56 -32
c-31 -17 -79 -49 -107 -70 -64 -48 -116 -51 -200 -11 -77 36 -107 83 -112 175
l-4 69 46 59 c26 33 82 115 125 182 78 122 79 123 122 129 46 6 83 2 109 -12z
m435 -83 c45 -30 60 -64 60 -141 0 -78 -22 -135 -67 -168 -41 -31 -165 -25
-231 10 -51 28 -52 29 -55 78 -1 28 1 45 5 39 5 -6 23 -19 41 -30 32 -19 33
-19 70 1 59 32 68 99 19 146 -28 26 -84 20 -110 -12 -10 -12 -20 -19 -23 -16
-13 12 6 36 51 67 72 49 186 62 240 26z m-225 -125 c0 -16 -27 -31 -44 -25
-19 7 -22 40 -3 47 14 5 47 -10 47 -22z" id="node2" class="node" stroke-width="20"></path>
<path d="M1540 1955 c-24 -14 -24 -14 -4 -15 22 0 39 -24 28 -41 -9 -16 -42
-10 -47 9 -4 14 -5 13 -6 -4 -1 -23 37 -64 60 -64 8 0 25 7 37 16 28 19 30 74
4 97 -22 20 -39 21 -72 2z" id="node3" class="node" stroke-width="20"></path>
<path d="M1262 2401 c-8 -26 -35 -65 -72 -105 -70 -75 -77 -95 -21 -66 52 26
86 72 101 137 15 65 9 91 -8 34z" id="node4" class="node" stroke-width="20"></path>
<path d="M1695 2378 c36 -51 108 -118 126 -118 19 0 8 27 -16 40 -14 7 -25 17
-25 22 0 4 -6 8 -12 8 -7 1 -26 18 -43 39 -48 62 -72 69 -30 9z" id="node5" class="node" stroke-width="20"></path>























<path d="M1465 176 c-105 -29 -170 -65 -150 -84 4 -4 10 -1 12 6 3 6 16 12 29
12 14 0 53 9 87 21 76 26 221 24 276 -4 19 -9 42 -17 51 -17 9 0 25 -9 35 -20
14 -16 15 -21 4 -25 -21 -7 -166 -26 -232 -30 -77 -5 -86 -15 -13 -15 81 0
249 20 261 31 5 5 18 9 28 9 16 0 14 5 -13 38 -40 45 -77 65 -157 86 -79 21
-121 19 -218 -8z" id="node29" class="node" stroke-width="20"></path>



























<path d="M1285 9 c52 -10 154 -10 180 1 13 5 -25 8 -100 8 -90 0 -110 -2 -80
-9z" id="node57" class="node" stroke-width="20"></path>
</g>
<g transform="translate(0.000000,284.000000) scale(0.100000,-0.100000)" fill="#FFFFFF" stroke="none">

<path d="M1130 2786 c-139 -39 -310 -183 -381 -322 -80 -156 -104 -296 -96
-564 5 -180 23 -292 76 -465 12 -38 24 -81 27 -95 7 -38 43 -110 54 -110 5 0
28 26 51 58 46 62 62 77 67 61 2 -5 -8 -22 -23 -37 -36 -36 -125 -158 -125
-172 0 -5 -3 -10 -7 -10 -9 0 -58 -75 -86 -130 -55 -108 -60 -111 -77 -42 -20
86 -38 127 -55 131 -16 3 -17 -4 -12 -65 3 -38 9 -80 13 -93 12 -40 -18 -20
-43 28 -23 47 -80 111 -99 111 -20 0 -36 -28 -29 -50 4 -11 31 -47 61 -79 30
-33 51 -62 45 -65 -5 -3 -32 13 -60 35 l-51 41 0 -30 c0 -81 179 -165 249
-116 12 9 42 47 66 84 53 82 315 377 315 354 0 -5 -25 -36 -55 -69 -76 -84
-82 -97 -59 -133 34 -53 106 -155 176 -248 37 -50 68 -96 68 -101 0 -6 30 -42
68 -80 37 -38 85 -92 108 -118 l41 -49 62 39 c60 39 62 41 56 75 -3 19 -6 46
-7 60 0 31 20 215 28 254 6 26 4 28 -12 21 -11 -5 -44 -11 -74 -13 -74 -5
-100 15 -107 81 -13 113 113 261 369 432 37 25 71 45 76 45 5 0 17 9 27 20 34
38 123 68 113 39 -2 -6 -46 -36 -97 -65 -52 -30 -114 -70 -138 -90 -37 -30
-43 -41 -43 -72 0 -47 20 -86 45 -90 22 -4 69 -25 98 -45 20 -13 23 -11 113
97 24 30 45 46 52 42 16 -9 95 -146 89 -153 -3 -2 -24 21 -47 51 -37 49 -70
72 -70 49 0 -5 -17 -26 -38 -49 -70 -76 -69 -68 -24 -121 21 -27 54 -74 72
-105 17 -32 34 -58 36 -58 16 0 215 186 291 272 107 121 161 197 230 329 75
142 108 231 142 387 32 145 38 219 22 281 -5 20 -15 68 -21 106 -25 159 -114
272 -267 342 -51 23 -64 25 -163 21 -60 -2 -115 -9 -122 -15 -7 -5 -40 -20
-73 -33 -55 -22 -102 -49 -148 -84 -18 -13 -18 -15 -1 -47 9 -19 28 -49 42
-67 14 -18 23 -35 20 -37 -2 -2 -22 19 -43 47 -69 90 -312 329 -375 369 -72
45 -225 57 -340 25z m340 -331 c0 -9 -11 -47 -24 -85 l-25 -70 35 0 c58 0 115
-23 164 -67 26 -24 51 -54 54 -68 8 -31 26 -32 63 -1 36 30 158 60 218 54 96
-11 174 -118 161 -220 -14 -104 -87 -191 -170 -203 -65 -10 -153 3 -207 31
l-47 23 -6 -22 c-11 -40 -7 -46 36 -49 44 -3 67 -28 26 -28 -32 0 -107 -24
-159 -50 -78 -40 -131 -83 -256 -205 -46 -45 -83 -76 -83 -70 0 15 50 83 84
114 14 14 26 28 26 32 0 8 -49 23 -67 20 -21 -3 -86 35 -120 71 -39 41 -63 98
-63 149 0 22 -3 39 -6 39 -3 0 -21 -12 -40 -26 -60 -46 -49 -17 23 60 100 107
245 331 333 513 34 71 50 89 50 58z m-200 -88 c-15 -65 -49 -111 -101 -137
-56 -29 -49 -9 21 66 37 40 64 79 72 105 17 57 23 31 8 -34z m455 2 c17 -21
36 -38 43 -39 6 0 12 -4 12 -8 0 -5 11 -15 25 -22 24 -13 35 -40 16 -40 -18 0
-90 67 -126 118 -42 60 -18 53 30 -9z" id="node59" class="node" stroke-width="20"></path>
<path d="M1451 2261 c-43 -6 -44 -7 -122 -129 -43 -67 -99 -149 -125 -182
l-46 -59 4 -69 c5 -92 35 -139 112 -175 84 -40 136 -37 200 11 28 21 76 53
107 70 l56 32 12 77 c29 181 13 314 -46 375 -45 48 -78 58 -152 49z m161 -308
c26 -23 24 -78 -4 -97 -12 -9 -29 -16 -37 -16 -23 0 -61 41 -60 64 1 17 2 18
6 4 5 -19 38 -25 47 -9 11 17 -6 41 -28 41 -20 1 -20 1 4 15 33 19 50 18 72
-2z" id="node60" class="node" stroke-width="20"></path>
<path d="M1848 2180 c-48 -8 -135 -60 -145 -86 -9 -25 6 -28 24 -5 26 32 82
38 110 12 49 -47 40 -114 -19 -146 -37 -20 -38 -20 -70 -1 -18 11 -36 24 -41
30 -4 6 -6 -11 -5 -39 3 -49 4 -50 55 -78 66 -35 190 -41 231 -10 45 33 67 90
67 168 0 130 -67 180 -207 155z" id="node61" class="node" stroke-width="20"></path>
<path d="M1723 2063 c-19 -7 -16 -40 3 -47 17 -6 44 9 44 25 0 12 -33 27 -47
22z" id="node62" class="node" stroke-width="20"></path>
<path d="M1523 1231 l-53 -55 21 -22 c32 -34 67 -39 95 -13 22 21 23 24 8 40
-12 13 -14 28 -9 57 3 22 3 42 -2 44 -4 3 -32 -20 -60 -51z" id="node63" class="node" stroke-width="20"></path>
<path d="M1624 1123 c-10 -15 -6 -26 22 -60 31 -38 64 -108 64 -136 0 -5 -17
12 -37 39 -60 79 -66 85 -105 105 -72 37 -102 21 -152 -78 -30 -61 -33 -83 -8
-83 31 0 86 36 92 61 3 13 12 24 20 24 23 0 24 -52 5 -219 -9 -82 -14 -168
-10 -191 7 -51 27 -62 120 -70 58 -5 64 -4 120 33 105 68 155 147 155 245 0
67 -52 164 -153 284 -45 54 -57 62 -87 62 -23 1 -39 -5 -46 -16z" id="node64" class="node" stroke-width="20"></path>
<path d="M909 682 c-13 -10 -52 -32 -87 -50 -35 -18 -80 -49 -101 -70 -21 -20
-61 -59 -90 -86 -90 -83 -91 -131 -3 -107 97 26 163 68 237 153 85 98 94 111
105 148 8 27 6 30 -14 30 -13 0 -34 -8 -47 -18z" id="node65" class="node" stroke-width="20"></path>
</g>
</svg>