<!--?xml version="1.0" standalone="no"?-->

<svg xmlns="http://www.w3.org/2000/svg" width="300.000000pt" height="300.000000pt" viewBox="0 0 300.000000 300.000000" preserveAspectRatio="xMidYMid meet">
<g transform="translate(0.000000,300.000000) scale(0.100000,-0.100000)" fill="#0D0D0D" stroke="none">
<path style="position: relative;" d="M915 2451 c-227 -57 -400 -230 -445 -447 -16 -75 -16 -211 0 -294 24
-125 116 -287 219 -384 25 -24 31 -38 31 -72 0 -33 8 -52 33 -85 31 -41 63
-59 130 -73 23 -5 27 -11 27 -40 0 -63 65 -132 135 -143 44 -7 55 -17 55 -51
0 -61 84 -142 147 -142 27 0 33 -4 33 -20 0 -30 28 -91 53 -118 49 -52 139
-67 205 -33 53 27 196 178 213 224 12 35 15 37 56 37 51 0 112 28 141 65 11
14 25 47 32 74 11 46 13 49 51 54 43 6 101 44 121 80 6 12 14 40 17 62 6 37 8
40 48 47 23 4 51 12 63 18 29 16 80 89 80 115 0 13 21 49 46 81 54 70 107 179
123 252 14 68 14 226 0 294 -34 161 -163 328 -312 402 -193 95 -439 83 -640
-32 l-58 -33 -51 41 c-153 121 -366 168 -553 121z m315 -86 c58 -20 146 -68
194 -108 l29 -24 -213 -213 -214 -214 48 -43 c85 -77 205 -96 321 -52 50 19
79 41 181 141 66 65 125 118 130 118 5 0 136 -127 292 -283 266 -267 282 -285
282 -319 0 -55 -36 -93 -89 -93 -40 0 -46 6 -254 213 -117 116 -220 212 -228
212 -21 0 -39 -20 -39 -45 0 -13 69 -89 201 -220 111 -110 207 -215 215 -233
13 -28 12 -36 -1 -62 -22 -43 -58 -64 -98 -56 -25 5 -80 55 -243 218 -192 191
-214 210 -238 204 -20 -5 -26 -13 -26 -34 0 -22 38 -65 205 -232 112 -112 209
-217 216 -232 22 -53 -47 -129 -104 -114 -15 3 -49 26 -77 51 -43 39 -99 65
-137 65 -7 0 -13 11 -13 25 0 68 -50 128 -131 155 -50 17 -53 20 -65 65 -15
61 -58 104 -120 120 -45 11 -48 14 -65 64 -29 89 -85 131 -174 131 -62 0 -76
-9 -173 -103 -95 -94 -90 -94 -165 -1 -90 112 -141 252 -141 394 0 149 49 267
153 371 70 70 138 110 236 140 77 24 225 21 305 -6z m819 -40 c184 -39 319
-161 388 -353 54 -149 20 -366 -75 -482 l-21 -25 -309 308 c-193 192 -316 307
-328 307 -11 0 -71 -52 -149 -131 -78 -78 -149 -140 -177 -155 -58 -30 -135
-32 -193 -5 l-40 19 210 209 c191 190 217 212 290 248 139 68 272 88 404 60z
m-970 -861 c24 -20 31 -34 31 -62 0 -33 -10 -46 -92 -129 -80 -80 -97 -93
-126 -93 -46 0 -92 46 -92 91 0 28 14 46 93 126 105 105 130 114 186 67z m192
-193 c20 -21 29 -39 29 -62 0 -28 -14 -46 -93 -126 -80 -79 -98 -93 -126 -93
-41 0 -91 46 -91 85 0 40 16 63 101 148 69 67 84 77 115 77 26 0 43 -8 65 -29z
m190 -187 c17 -18 24 -37 24 -65 0 -37 -7 -47 -91 -130 -73 -71 -97 -89 -120
-89 -37 0 -70 22 -89 60 -23 44 -3 80 93 173 72 69 84 77 119 77 29 0 46 -7
64 -26z m190 -193 c20 -21 29 -39 29 -62 0 -28 -14 -46 -93 -126 -105 -105
-130 -114 -185 -68 -62 52 -47 98 66 208 70 68 84 77 117 77 27 0 44 -7 66
-29z" id="node1" class="node"></path>
</g>
<g transform="translate(0.000000,300.000000) scale(0.100000,-0.100000)" fill="#A0A0A0" stroke="none">

<path style="position: relative;" d="M925 2371 c-98 -30 -166 -70 -236 -140 -104 -104 -153 -222 -153
-371 0 -142 51 -282 141 -394 75 -93 70 -93 165 1 97 94 111 103 173 103 89 0
145 -42 174 -131 17 -50 20 -53 65 -64 62 -16 105 -59 120 -120 12 -45 15 -48
65 -65 81 -27 131 -87 131 -155 0 -14 6 -25 13 -25 38 0 94 -26 137 -65 28
-25 62 -48 77 -51 35 -9 72 12 96 54 16 27 17 37 8 60 -7 15 -104 120 -216
232 -167 167 -205 210 -205 232 0 21 6 29 26 34 24 6 46 -13 238 -204 163
-163 218 -213 243 -218 40 -8 76 13 98 56 13 26 14 34 1 62 -8 18 -104 123
-215 233 -132 131 -201 207 -201 220 0 25 18 45 39 45 8 0 111 -96 228 -212
208 -207 214 -213 254 -213 53 0 89 38 89 93 0 34 -16 52 -282 319 -156 156
-287 283 -292 283 -5 0 -64 -53 -130 -118 -102 -100 -131 -122 -181 -141 -116
-44 -236 -25 -321 52 l-48 43 214 214 213 213 -29 24 c-48 40 -136 88 -194
108 -80 27 -228 30 -305 6z" id="node3" class="node"></path>
<path style="position: relative;" d="M1800 2321 c-41 -9 -111 -34 -155 -56 -73 -36 -99 -58 -290 -248
l-210 -209 40 -19 c58 -27 135 -25 193 5 28 15 99 77 177 155 78 79 138 131
149 131 12 0 135 -115 328 -307 l309 -308 21 25 c95 116 129 333 75 482 -69
192 -204 314 -388 353 -89 19 -154 18 -249 -4z" id="node4" class="node"></path>
<path style="position: relative;" d="M893 1397 c-79 -80 -93 -98 -93 -126 0 -45 46 -91 92 -91 29 0 46 13
126 93 82 83 92 96 92 129 0 28 -7 42 -31 62 -56 47 -81 38 -186 -67z" id="node5" class="node"></path>
<path style="position: relative;" d="M1091 1223 c-85 -85 -101 -108 -101 -148 0 -39 50 -85 91 -85 28 0
46 14 126 93 79 80 93 98 93 126 0 46 -46 91 -94 91 -31 0 -46 -10 -115 -77z" id="node6" class="node"></path>
<path style="position: relative;" d="M1278 1033 c-96 -93 -116 -129 -93 -173 19 -38 52 -60 89 -60 23 0
47 18 120 89 84 83 91 93 91 130 0 56 -34 91 -88 91 -35 0 -47 -8 -119 -77z" id="node7" class="node"></path>
<path style="position: relative;" d="M1468 843 c-113 -110 -128 -156 -66 -208 55 -46 80 -37 185 68 79 80
93 98 93 126 0 47 -46 91 -95 91 -33 0 -47 -9 -117 -77z" id="node8" class="node"></path>
</g>
</svg>