<!--?xml version="1.0" standalone="no"?-->

<svg version="1.0" xmlns="http://www.w3.org/2000/svg" width="300.000000pt" height="201.000000pt" viewBox="0 0 300.000000 201.000000" preserveAspectRatio="xMidYMid meet">
<g transform="translate(0.000000,201.000000) scale(0.100000,-0.100000)" fill="#1A1A1A" stroke="none">
<path d="M975 1826 c-163 -39 -261 -143 -326 -342 -30 -91 -32 -254 -6 -329
59 -164 171 -265 477 -430 246 -133 382 -248 412 -349 l12 -38 12 36 c41 118
144 204 438 365 332 182 436 291 466 487 18 119 -18 306 -78 404 -34 55 -120
137 -168 161 -138 66 -304 64 -457 -6 -76 -34 -171 -124 -193 -181 l-17 -45
-24 49 c-46 98 -191 197 -322 222 -70 13 -163 11 -226 -4z m333 -78 c82 -26
170 -105 210 -189 l29 -60 17 45 c20 52 93 138 145 170 110 69 285 80 399 25
66 -32 151 -122 189 -199 17 -36 39 -103 49 -150 14 -72 15 -96 5 -159 -17
-114 -47 -167 -148 -268 -79 -80 -104 -98 -241 -172 -241 -131 -350 -221 -399
-332 l-17 -39 -23 46 c-57 113 -146 188 -360 306 -82 44 -166 93 -189 108 -53
37 -156 148 -190 205 -35 61 -44 102 -44 215 -1 117 23 202 81 289 113 169
282 225 487 159z" id="node1" class="node"></path>
<path d="M2280 1150 c-13 -8 -12 -10 3 -10 9 0 17 5 17 10 0 12 -1 12 -20 0z" id="node2" class="node"></path>
<path d="M2237 1093 c-12 -11 -8 -23 8 -23 8 0 15 7 15 15 0 16 -12 20 -23 8z" id="node3" class="node"></path>
<path d="M2187 1033 c5 -13 3 -15 -13 -9 -18 7 -18 6 -2 -11 13 -13 21 -14 29
-6 13 13 5 43 -10 43 -6 0 -7 -8 -4 -17z" id="node4" class="node"></path>
<path d="M2090 985 c-18 -21 -4 -47 22 -43 29 4 35 34 10 47 -15 8 -23 7 -32
-4z m25 -15 c-3 -5 -10 -10 -16 -10 -5 0 -9 5 -9 10 0 6 7 10 16 10 8 0 12 -4
9 -10z" id="node5" class="node"></path>
<path d="M1973 914 c-9 -24 10 -49 38 -49 20 0 24 5 24 30 0 25 -4 30 -28 33
-18 2 -29 -2 -34 -14z m42 -3 c7 -12 -12 -24 -25 -16 -11 7 -4 25 10 25 5 0
11 -4 15 -9z" id="node6" class="node"></path>
<path d="M1877 872 c-10 -10 -17 -24 -17 -30 0 -15 29 -42 45 -42 18 0 45 27
45 45 0 17 -27 45 -44 45 -7 0 -20 -8 -29 -18z m36 -17 c1 -5 -6 -11 -15 -13
-11 -2 -18 3 -18 13 0 17 30 18 33 0z" id="node7" class="node"></path>
<path d="M1776 794 c-9 -25 12 -56 37 -52 17 2 22 10 22 32 0 16 -5 31 -11 33
-7 2 -11 -4 -10 -13 0 -9 -5 -19 -13 -22 -10 -3 -12 1 -8 17 6 24 -8 29 -17 5z" id="node8" class="node"></path>
<path d="M1686 715 c-7 -19 20 -46 39 -39 8 4 15 17 15 30 0 19 -5 24 -24 24
-13 0 -26 -7 -30 -15z m39 -5 c-3 -5 -10 -10 -16 -10 -5 0 -9 5 -9 10 0 6 7
10 16 10 8 0 12 -4 9 -10z" id="node9" class="node"></path>
<path d="M1643 645 c-8 -9 -9 -16 -3 -20 14 -8 30 3 30 21 0 18 -11 17 -27 -1z" id="node10" class="node"></path>
<path d="M1575 560 c4 -6 11 -8 16 -5 14 9 11 15 -7 15 -8 0 -12 -5 -9 -10z" id="node11" class="node"></path>
<path d="M1555 510 c-3 -5 -1 -10 4 -10 6 0 11 5 11 10 0 6 -2 10 -4 10 -3 0
-8 -4 -11 -10z" id="node12" class="node"></path>
<path d="M379 1796 c-19 -6 -32 -13 -30 -16 2 -3 -1 -16 -8 -28 -18 -34 -6
-69 30 -87 19 -11 29 -22 25 -31 -8 -21 12 -17 24 6 8 16 5 26 -21 55 -42 48
-34 70 24 62 54 -7 102 -57 112 -115 5 -34 2 -52 -21 -99 -30 -62 -112 -150
-185 -199 -66 -44 -91 -94 -87 -175 7 -132 107 -268 243 -329 61 -28 191 -57
216 -48 8 3 -6 8 -31 12 -66 11 -169 45 -216 71 -50 29 -116 100 -145 157 -14
28 -24 68 -27 113 -7 117 34 180 115 173 l38 -3 -2 -45 c-2 -43 -2 -44 8 -15
6 17 13 37 16 45 4 8 10 -7 14 -33 5 -34 18 -59 43 -87 20 -22 36 -43 36 -48
-1 -20 -20 -33 -46 -30 -22 2 -34 12 -46 38 -10 19 -18 28 -18 19 0 -22 36
-66 60 -74 23 -7 76 18 90 44 19 37 12 106 -16 147 -15 21 -34 45 -43 52 -28
22 -85 45 -113 44 -31 -1 -38 14 -10 22 28 9 87 75 126 140 55 91 49 173 -18
235 -31 29 -92 41 -137 27z" id="node13" class="node"></path>

<path d="M494 1673 c4 -8 1 -13 -8 -13 -9 0 -16 -4 -16 -10 0 -13 27 -13 36 1
3 6 1 16 -6 22 -10 9 -11 9 -6 0z" id="node15" class="node"></path>

<path d="M474 1582 c1 -11 -5 -16 -16 -14 -13 2 -16 -2 -12 -13 9 -23 48 -15
52 11 2 12 -3 24 -11 27 -9 3 -14 -1 -13 -11z" id="node17" class="node"></path>
<path d="M574 1537 c-28 -28 -67 -73 -87 -99 l-37 -47 37 6 c83 13 125 56 138
140 3 25 5 47 3 49 -2 2 -27 -20 -54 -49z m36 -14 c0 -23 -23 -66 -33 -64 -4
1 -22 -9 -38 -23 -17 -15 -38 -26 -47 -26 -25 1 43 60 69 60 12 0 19 5 16 13
-2 6 -10 11 -16 10 -19 -5 -12 15 11 31 29 21 38 20 38 -1z" id="node18" class="node"></path>
<path d="M398 1514 c15 -7 16 -30 2 -39 -6 -3 -14 4 -18 16 -7 19 -10 20 -15
5 -4 -10 1 -24 14 -37 l21 -21 21 21 c17 17 19 25 11 39 -6 9 -20 18 -30 19
-10 2 -13 0 -6 -3z" id="node19" class="node"></path>
<path d="M256 1429 c-26 -38 13 -81 54 -59 26 14 26 56 1 70 -28 15 -38 13
-55 -11z m44 -15 c0 -9 -7 -14 -17 -12 -25 5 -28 28 -4 28 12 0 21 -6 21 -16z" id="node20" class="node"></path>
<path d="M177 1323 c-12 -11 -8 -40 7 -52 19 -16 56 3 56 28 0 25 -45 42 -63
24z m33 -19 c0 -17 -22 -14 -28 4 -2 7 3 12 12 12 9 0 16 -7 16 -16z" id="node21" class="node"></path>
<path d="M326 1208 c-11 -57 -6 -133 13 -173 22 -49 87 -109 144 -134 23 -10
63 -28 88 -39 26 -11 64 -24 85 -27 22 -4 56 -13 77 -21 20 -8 61 -14 90 -14
48 0 50 1 27 13 -24 12 -38 30 -93 122 -23 39 -31 46 -54 43 -19 -2 -29 -10
-34 -28 -6 -23 -7 -24 -14 -5 -4 11 -12 33 -17 48 -17 44 -43 53 -73 23 -15
-15 -23 -32 -20 -45 2 -11 0 -23 -5 -26 -5 -3 -11 9 -15 27 -15 80 -42 111
-72 86 -18 -15 -28 -1 -37 51 -3 21 -22 56 -45 83 l-39 47 -6 -31z m71 -125
c7 -18 13 -51 13 -74 0 -37 -2 -40 -17 -28 -24 21 -43 73 -43 120 0 37 2 40
17 28 9 -8 22 -28 30 -46z m87 -65 c8 -13 17 -39 21 -58 4 -19 12 -41 17 -47
21 -26 -14 -13 -42 16 -31 30 -46 71 -36 96 8 21 23 19 40 -7z m137 -54 c17
-21 59 -124 50 -124 -11 0 -71 46 -86 67 -35 46 -1 101 36 57z m133 -46 c9
-12 16 -29 16 -36 0 -8 9 -27 21 -43 25 -35 10 -38 -39 -9 -34 21 -64 74 -55
97 8 20 40 15 57 -9z" id="node22" class="node"></path>
<path d="M179 1197 c13 -17 4 -28 -16 -20 -11 4 -14 2 -11 -8 7 -21 52 -18 56
5 2 10 -2 22 -10 27 -20 13 -32 11 -19 -4z" id="node23" class="node"></path>
<path d="M194 1091 c4 -6 0 -11 -10 -11 -14 0 -15 -3 -7 -11 14 -14 46 -4 41
13 -2 6 -10 14 -18 16 -7 3 -10 0 -6 -7z" id="node24" class="node"></path>
<path d="M224 1043 c4 -7 2 -13 -4 -13 -6 0 -8 -5 -4 -11 4 -8 9 -8 17 0 8 8
7 14 -2 24 -11 10 -13 10 -7 0z" id="node25" class="node"></path>
<path d="M235 971 c-27 -54 -31 -124 -8 -168 15 -28 18 -45 11 -62 -26 -71 -5
-162 43 -187 23 -11 29 -21 29 -47 0 -44 24 -75 64 -83 26 -4 41 -16 61 -48
28 -44 70 -76 100 -76 13 0 15 4 9 18 -5 9 -9 55 -8 102 1 134 55 258 132 303
30 18 33 22 17 25 -69 11 -186 47 -237 73 -64 33 -149 105 -179 153 l-17 28
-17 -31z m134 -130 c33 -21 90 -51 126 -66 44 -19 62 -31 53 -37 -9 -5 -6 -8
10 -8 49 0 16 -17 -98 -49 -66 -19 -122 -33 -124 -30 -12 13 -34 109 -25 114
5 4 4 14 -4 25 -11 16 -12 90 -1 90 2 0 30 -17 63 -39z m201 -191 c-25 -49
-60 -171 -60 -209 0 -17 -4 -31 -9 -31 -10 0 -71 67 -71 78 0 4 32 50 72 102
78 104 60 96 -29 -12 -30 -37 -59 -68 -63 -68 -13 0 -62 102 -54 110 17 16
179 69 206 67 l26 -1 -18 -36z" id="node26" class="node"></path>
<path d="M488 743 c6 -2 18 -2 25 0 6 3 1 5 -13 5 -14 0 -19 -2 -12 -5z" id="node27" class="node"></path>
<path d="M2565 900 c-50 -34 -108 -57 -191 -75 -348 -77 -477 -136 -635 -290
-50 -49 -139 -162 -139 -178 0 -2 13 -2 28 1 19 2 60 -11 128 -43 111 -53 175
-62 231 -32 l32 17 -62 59 c-34 32 -78 66 -97 75 l-35 16 45 -5 c25 -4 65 -18
90 -32 108 -62 123 -68 190 -67 74 1 135 24 190 72 l35 31 -35 1 c-20 0 -58
14 -90 32 -30 18 -88 48 -128 69 l-73 37 109 -6 c166 -7 246 18 320 102 34 38
138 236 125 236 -5 0 -21 -9 -38 -20z m-136 -136 c-36 -38 -122 -92 -179 -113
-19 -8 -105 -17 -190 -21 -85 -4 -164 -11 -174 -16 -43 -17 -2 18 52 45 90 45
197 79 322 100 63 11 133 27 155 34 22 8 42 13 44 11 3 -3 -11 -20 -30 -40z
m-358 -220 c20 -10 56 -36 79 -58 49 -44 45 -51 -38 -62 -45 -5 -68 -1 -148
26 -96 32 -158 39 -225 25 l-34 -7 25 19 c42 32 80 54 118 69 52 19 176 13
223 -12z m-199 -162 c77 -59 80 -76 16 -80 -37 -2 -58 3 -100 26 -29 17 -72
35 -95 42 -23 7 -40 17 -36 22 10 18 68 37 110 38 35 0 52 -8 105 -48z" id="node28" class="node"></path>

<path d="M789 763 c-6 -6 -23 -15 -39 -18 -39 -9 -126 -88 -152 -139 -29 -57
-36 -163 -14 -220 18 -47 88 -120 132 -136 38 -15 137 -12 176 4 116 49 152
187 72 276 -41 46 -87 57 -138 36 -42 -17 -61 -53 -52 -92 l7 -27 15 22 c43
60 134 -14 102 -83 -24 -54 -101 -70 -168 -36 -105 54 -111 178 -14 274 57 56
114 76 215 76 155 0 292 -70 448 -229 95 -96 86 -72 -17 47 -79 91 -219 187
-336 229 -58 21 -224 32 -237 16z" id="node30" class="node"></path>
<path d="M943 658 c-45 -8 -52 -12 -44 -26 21 -38 69 -73 112 -80 42 -7 44 -9
41 -39 -5 -50 28 -77 87 -70 l47 6 -4 -34 c-6 -49 21 -61 105 -45 35 7 80 10
99 7 24 -4 34 -2 32 5 -3 7 -31 13 -64 15 -80 5 -106 11 -101 26 7 22 55 32
89 19 29 -11 30 -10 15 6 -74 82 -186 170 -249 196 -49 20 -106 25 -165 14z
m192 -43 l40 -18 -35 -8 c-63 -16 -125 -12 -169 10 -22 12 -41 25 -41 30 0 16
163 5 205 -14z m111 -79 c71 -33 72 -42 6 -42 -31 1 -69 -2 -83 -6 -20 -6 -33
-3 -50 11 -23 19 -24 19 -5 40 25 28 68 27 132 -3z" id="node31" class="node"></path>

</g>
<g transform="translate(0.000000,201.000000) scale(0.100000,-0.100000)" fill="#A3A3A3" stroke="none">

<path d="M1085 1770 c-144 -21 -275 -146 -325 -309 -23 -71 -28 -222 -11 -293
13 -55 54 -120 124 -194 75 -80 102 -100 290 -202 214 -118 303 -193 360 -306
l23 -46 17 39 c49 111 158 201 399 332 137 74 162 92 241 172 101 101 131 154
148 268 23 145 -36 324 -141 430 -30 30 -76 65 -102 78 -114 55 -289 44 -399
-25 -52 -32 -125 -118 -145 -170 l-17 -45 -29 60 c-40 84 -128 163 -210 189
-75 24 -155 32 -223 22z m1215 -620 c0 -5 -8 -10 -17 -10 -15 0 -16 2 -3 10
19 12 20 12 20 0z m-40 -65 c0 -8 -7 -15 -15 -15 -16 0 -20 12 -8 23 11 12 23
8 23 -8z m-53 -51 c10 -26 -14 -41 -35 -21 -16 17 -16 18 2 11 16 -6 18 -4 13
9 -3 9 -2 17 4 17 5 0 12 -7 16 -16z m-69 -72 c-4 -22 -46 -28 -54 -8 -4 9 -1
23 6 31 16 19 53 1 48 -23z m-103 -67 c0 -25 -4 -30 -24 -30 -28 0 -47 25 -38
49 5 12 16 16 34 14 24 -3 28 -8 28 -33z m-101 -21 c9 -8 16 -22 16 -29 0 -18
-27 -45 -45 -45 -16 0 -45 27 -45 42 0 16 31 48 46 48 7 0 20 -7 28 -16z
m-141 -85 c-4 -16 -2 -20 8 -17 8 3 13 13 13 22 -1 9 3 15 10 13 6 -2 11 -17
11 -33 0 -22 -5 -30 -22 -32 -25 -4 -46 27 -37 52 9 24 23 19 17 -5z m-53 -83
c0 -29 -24 -40 -44 -20 -20 20 -9 44 20 44 19 0 24 -5 24 -24z m-70 -60 c0
-18 -16 -29 -30 -21 -6 4 -5 11 3 20 16 18 27 19 27 1z m-70 -80 c0 -11 -19
-15 -25 -6 -3 5 1 10 9 10 9 0 16 -2 16 -4z m-30 -56 c0 -5 -5 -10 -11 -10 -5
0 -7 5 -4 10 3 6 8 10 11 10 2 0 4 -4 4 -10z" id="node34" class="node"></path>
<path d="M2090 970 c0 -5 4 -10 9 -10 6 0 13 5 16 10 3 6 -1 10 -9 10 -9 0
-16 -4 -16 -10z" id="node35" class="node"></path>
<path d="M1985 911 c-7 -12 12 -24 25 -16 11 7 4 25 -10 25 -5 0 -11 -4 -15
-9z" id="node36" class="node"></path>
<path d="M1880 855 c0 -10 7 -15 18 -13 21 4 19 22 -2 26 -10 2 -16 -3 -16
-13z" id="node37" class="node"></path>
<path d="M1700 710 c0 -5 4 -10 9 -10 6 0 13 5 16 10 3 6 -1 10 -9 10 -9 0
-16 -4 -16 -10z" id="node38" class="node"></path>
<path d="M572 1524 c-23 -16 -30 -36 -11 -31 6 1 14 -4 16 -10 3 -8 -4 -13
-16 -13 -26 0 -94 -59 -69 -60 9 0 30 11 47 26 16 14 34 24 38 23 10 -2 33 41
33 64 0 21 -9 22 -38 1z" id="node39" class="node"></path>
<path d="M262 1418 c7 -19 38 -22 38 -4 0 10 -9 16 -21 16 -12 0 -19 -5 -17
-12z" id="node40" class="node"></path>
<path d="M182 1308 c6 -18 28 -21 28 -4 0 9 -7 16 -16 16 -9 0 -14 -5 -12 -12z" id="node41" class="node"></path>
<path d="M350 1101 c0 -47 19 -99 43 -120 15 -12 17 -9 17 28 0 47 -19 99 -43
120 -15 12 -17 9 -17 -28z" id="node42" class="node"></path>
<path d="M444 1025 c-10 -25 5 -66 36 -96 28 -29 63 -42 42 -16 -5 6 -13 28
-17 47 -13 63 -48 100 -61 65z" id="node43" class="node"></path>
<path d="M577 973 c-11 -11 -7 -47 8 -66 15 -21 75 -67 86 -67 9 0 -33 103
-50 124 -14 17 -33 21 -44 9z" id="node44" class="node"></path>
<path d="M697 927 c-9 -23 21 -76 55 -97 49 -29 64 -26 39 9 -12 16 -21 35
-21 43 0 40 -60 77 -73 45z" id="node45" class="node"></path>
<path d="M298 844 c-2 -19 2 -43 9 -54 8 -11 9 -21 4 -25 -9 -5 13 -101 25
-114 2 -3 58 11 124 30 114 32 147 49 98 49 -16 0 -19 3 -10 8 9 6 -9 18 -53
37 -36 15 -93 45 -126 66 -33 22 -61 39 -63 39 -2 0 -6 -16 -8 -36z m215 -101
c-7 -2 -19 -2 -25 0 -7 3 -2 5 12 5 14 0 19 -2 13 -5z" id="node46" class="node"></path>
<path d="M450 659 c-47 -17 -89 -35 -94 -39 -8 -8 41 -110 54 -110 4 0 33 31
63 68 89 108 107 116 29 12 -40 -52 -72 -98 -72 -102 0 -11 61 -78 71 -78 5 0
9 14 9 31 0 38 35 160 60 209 l18 36 -26 1 c-15 1 -65 -12 -112 -28z" id="node47" class="node"></path>
<path d="M2415 793 c-22 -7 -92 -23 -155 -34 -125 -21 -232 -55 -322 -100 -54
-27 -95 -62 -52 -45 10 5 89 12 174 16 164 8 193 15 280 66 52 31 128 99 119
108 -2 2 -22 -3 -44 -11z" id="node48" class="node"></path>
<path d="M1848 556 c-38 -15 -76 -37 -118 -69 l-25 -19 34 7 c67 14 129 7 225
-25 80 -27 103 -31 148 -26 83 11 87 18 38 62 -23 22 -59 48 -79 58 -47 25
-171 31 -223 12z" id="node49" class="node"></path>
<path d="M1694 416 c-47 -21 -48 -32 -1 -46 23 -7 66 -25 95 -42 42 -23 63
-28 100 -26 64 4 61 21 -16 80 -53 40 -70 48 -105 48 -23 -1 -56 -7 -73 -14z" id="node50" class="node"></path>
<path d="M930 629 c0 -5 19 -18 41 -30 44 -22 106 -26 169 -10 l35 8 -40 18
c-42 19 -205 30 -205 14z" id="node51" class="node"></path>
<path d="M1114 539 c-19 -21 -18 -21 5 -40 17 -14 30 -17 50 -11 14 4 52 7 83
6 66 0 65 9 -6 42 -64 30 -107 31 -132 3z" id="node52" class="node"></path>
</g>
</svg>