<!--?xml version="1.0" standalone="no"?-->

<svg version="1.0" xmlns="http://www.w3.org/2000/svg" width="300.000000pt" height="125.000000pt" viewBox="0 0 300.000000 125.000000" preserveAspectRatio="xMidYMid meet">
<g transform="translate(0.000000,125.000000) scale(0.100000,-0.100000)" fill="#100F0F" stroke="none">
<path class="node" id="node1" d="M673 1225 c-36 -15 -70 -73 -60 -99 8 -19 54 -39 74 -32 16 6 28 34
19 43 -3 3 -12 0 -21 -7 -22 -18 -30 -5 -17 25 14 31 37 41 57 25 29 -24 12
-93 -34 -134 -26 -23 -26 -34 -2 -65 l18 -24 37 48 c37 49 66 126 66 177 0 24
-7 32 -35 44 -42 17 -61 17 -102 -1z"></path>
<path class="node" id="node2" d="M2220 1227 c-37 -18 -40 -90 -6 -160 28 -59 76 -117 82 -101 3 6 11
19 18 30 12 16 10 23 -20 63 -41 53 -50 82 -34 110 16 30 47 26 65 -8 18 -35
2 -54 -20 -25 -14 18 -14 17 -15 -7 0 -33 20 -42 60 -28 23 9 30 17 30 38 0
36 -26 70 -66 87 -41 17 -62 17 -94 1z"></path>
<path class="node" id="node3" d="M71 1107 c185 -156 241 -187 329 -186 61 0 119 17 65 18 -36 1 -95
35 -95 55 0 8 14 16 33 20 57 11 137 -22 181 -74 31 -38 33 -50 6 -50 -21 0
-89 -55 -79 -64 3 -3 21 -1 40 4 39 12 101 4 142 -16 26 -14 27 -13 27 9 0 35
40 89 80 109 21 11 59 18 95 19 l60 1 -35 15 c-44 19 -126 12 -182 -16 -41
-20 -58 -20 -58 1 0 22 -52 78 -88 97 -64 33 -113 41 -292 52 -96 5 -193 14
-215 19 l-40 9 26 -22z"></path>
<path class="node" id="node4" d="M2906 1120 c-16 -5 -90 -12 -165 -15 -164 -7 -263 -21 -316 -44 -36
-16 -95 -72 -120 -114 -9 -16 -13 -16 -52 3 -57 29 -138 36 -183 17 l-35 -15
60 -1 c106 -2 175 -52 175 -126 0 -25 0 -25 31 -10 36 19 108 24 159 11 l35
-8 -30 31 c-16 18 -40 34 -52 37 -74 19 53 128 149 128 26 0 53 -5 58 -10 16
-16 -32 -54 -81 -63 l-44 -8 38 -8 c68 -14 141 -1 199 34 53 32 226 172 211
170 -4 0 -21 -5 -37 -9z"></path>
<path class="node" id="node5" d="M799 889 c-21 -38 -17 -137 8 -184 28 -54 88 -112 145 -141 71 -36
83 -33 83 21 0 43 -2 45 -54 77 -63 38 -93 75 -93 113 0 34 15 49 41 40 26 -8
61 -44 61 -62 0 -18 -35 -16 -50 2 -24 28 -29 15 -9 -20 23 -38 51 -45 84 -22
15 12 17 22 11 57 -15 93 -50 124 -153 135 -57 7 -62 6 -74 -16z"></path>
<path class="node" id="node6" d="M2074 899 c-64 -15 -97 -56 -102 -129 -4 -57 -3 -59 22 -66 36 -9 51
-1 69 35 17 34 13 39 -14 15 -10 -9 -24 -14 -33 -12 -22 4 1 48 36 67 22 13
29 13 42 2 9 -7 16 -24 16 -37 0 -32 -62 -99 -111 -121 -38 -16 -39 -18 -39
-66 l0 -49 32 6 c77 15 182 113 209 193 14 42 8 136 -10 157 -15 17 -54 19
-117 5z"></path>
<path class="node" id="node7" d="M1160 738 c-25 -13 -55 -39 -68 -58 -21 -30 -23 -44 -19 -94 3 -32 9
-62 14 -66 4 -4 33 -10 65 -14 l56 -6 -14 46 c-12 39 -12 51 1 80 15 36 62 64
108 64 40 0 110 -29 139 -57 32 -31 38 -14 10 29 -58 88 -196 124 -292 76z"></path>
<path class="node" id="node8" d="M1640 740 c-52 -25 -86 -54 -106 -92 -21 -41 -17 -56 9 -26 48 57
147 82 207 51 53 -27 67 -61 52 -119 -7 -26 -11 -48 -10 -49 2 -1 28 0 60 2
64 6 68 12 68 96 0 96 -55 147 -168 154 -53 3 -76 -1 -112 -17z"></path>
<path class="node" id="node9" d="M900 531 c54 -69 120 -114 120 -82 0 18 -45 65 -89 92 -61 39 -69 36
-31 -10z"></path>
<path class="node" id="node10" d="M2061 538 c-51 -32 -92 -80 -79 -94 12 -12 74 35 107 81 18 25 31 45
29 45 -2 0 -28 -15 -57 -32z"></path>
<path class="node" id="node11" d="M1073 459 c-20 -20 -15 -73 8 -103 26 -33 69 -56 106 -56 l28 0 -32
20 c-44 26 -47 70 -5 70 60 0 126 -44 201 -134 62 -74 111 -119 111 -101 0 2
-19 37 -42 76 -62 104 -119 163 -192 199 -71 35 -163 50 -183 29z"></path>
<path class="node" id="node12" d="M1783 451 c-99 -34 -158 -90 -243 -229 -18 -29 -29 -56 -25 -60 6 -6
28 15 143 142 60 66 166 109 187 76 12 -19 -7 -52 -38 -65 l-32 -14 30 -1 c45
0 96 32 118 74 16 31 17 41 7 66 -11 27 -17 30 -54 30 -22 -1 -64 -9 -93 -19z"></path>


</g>
<g transform="translate(0.000000,125.000000) scale(0.100000,-0.100000)" fill="#A5A0A0" stroke="none">

</g>
</svg>