<!--?xml version="1.0" standalone="no"?-->

<svg version="1.0" xmlns="http://www.w3.org/2000/svg" width="300.000000pt" height="300.000000pt" viewBox="0 0 300.000000 300.000000" preserveAspectRatio="xMidYMid meet">
<g transform="translate(0.000000,300.000000) scale(0.100000,-0.100000)" fill="#3E3E3E" stroke="none">
<path d="M2010 2738 c-165 -14 -250 -50 -343 -143 -35 -35 -71 -81 -82 -104
-10 -23 -23 -41 -30 -41 -6 0 -27 16 -46 36 -88 92 -234 164 -399 197 -96 19
-395 10 -425 -13 -5 -4 -25 -11 -43 -15 -51 -11 -211 -95 -278 -147 -131 -101
-256 -287 -319 -475 -14 -40 -25 -82 -25 -93 0 -10 -4 -22 -10 -25 -13 -8 -14
-328 -1 -353 5 -9 17 -44 26 -77 60 -206 229 -418 456 -571 28 -19 55 -34 60
-34 5 0 9 -3 9 -8 0 -14 240 -129 340 -163 86 -29 139 -48 158 -59 9 -5 51
-23 92 -41 41 -17 79 -35 85 -40 5 -5 17 -9 27 -9 10 0 18 -4 18 -10 0 -5 15
-16 34 -24 92 -38 236 -172 236 -219 0 -49 16 -67 60 -67 31 0 43 5 57 26 31
44 157 167 224 217 35 27 118 89 184 138 66 50 127 95 135 102 8 7 47 38 86
69 39 31 77 63 85 70 8 7 32 26 54 43 59 43 325 312 325 328 0 7 11 24 25 37
14 13 25 28 25 33 0 5 20 42 45 81 25 40 45 79 45 88 0 8 3 18 7 22 17 17 72
205 73 248 0 15 5 30 10 33 6 4 10 57 10 125 0 68 -4 121 -10 125 -5 3 -10 18
-10 32 0 15 -9 59 -20 98 -75 267 -279 464 -569 549 -30 9 -93 20 -140 26 -47
6 -97 12 -111 14 -14 2 -72 -1 -130 -6z m353 -88 c133 -39 252 -105 331 -184
39 -39 80 -83 92 -98 36 -45 100 -189 119 -267 24 -96 24 -315 1 -381 -9 -25
-16 -54 -16 -65 0 -38 -109 -272 -146 -316 -8 -8 -14 -20 -14 -25 0 -5 -20
-31 -45 -59 -24 -27 -45 -53 -45 -57 -1 -20 -380 -352 -532 -465 -46 -34 -119
-89 -162 -122 -44 -34 -82 -61 -85 -61 -6 0 -41 -31 -134 -117 -21 -20 -50
-51 -64 -69 -29 -38 -53 -44 -53 -13 0 24 -148 175 -195 199 -16 8 -57 31 -90
51 -33 20 -94 51 -135 68 -41 18 -84 36 -95 41 -11 5 -38 16 -60 25 -22 9 -55
23 -73 31 -18 8 -38 14 -45 14 -16 0 -159 59 -172 71 -5 5 -15 9 -22 9 -8 0
-26 8 -41 19 -23 16 -60 38 -142 86 -48 28 -194 151 -235 196 -131 148 -207
304 -236 487 -31 191 54 486 189 659 158 203 352 309 605 331 48 4 119 4 159
-1 77 -10 263 -62 288 -81 8 -7 29 -18 45 -26 47 -23 195 -178 195 -204 0 -24
35 -64 46 -53 4 3 10 34 13 69 11 104 75 208 161 262 99 63 167 76 368 71 118
-3 170 -9 225 -25z" id="node1" class="node"></path>
<path d="M2347 2582 c-9 -9 -32 -49 -51 -87 -31 -61 -34 -72 -22 -90 7 -11 22
-22 32 -24 11 -2 23 -9 27 -17 4 -8 13 -14 19 -14 6 0 32 -16 58 -35 46 -34
80 -45 80 -26 0 5 14 14 31 21 17 7 47 28 66 47 20 18 40 33 44 33 5 0 13 9
19 20 9 18 6 25 -24 53 -52 48 -64 57 -76 57 -5 0 -10 4 -10 9 0 5 -11 12 -25
15 -14 4 -25 11 -25 16 0 6 -8 10 -18 10 -10 0 -27 7 -38 15 -26 20 -68 19
-87 -3z m73 -27 c7 -8 18 -15 25 -15 29 0 150 -82 160 -109 6 -16 -48 -70 -72
-71 -7 0 -13 -5 -13 -10 0 -6 -11 -15 -25 -22 -20 -9 -29 -7 -52 8 -41 28 -56
37 -102 62 -22 12 -41 28 -41 35 1 6 12 30 25 52 14 22 29 50 35 63 11 25 42
29 60 7z" id="node2" class="node"></path>
<path d="M1902 2443 c-30 -6 -48 -39 -31 -59 6 -8 20 -12 29 -9 9 3 30 -1 46
-10 16 -8 36 -15 45 -15 9 0 22 -7 29 -15 7 -8 19 -15 27 -15 51 0 -12 102
-75 120 -20 5 -39 9 -42 9 -3 -1 -15 -4 -28 -6z" id="node3" class="node"></path>
<path d="M1146 2420 c-29 -18 -55 -54 -55 -75 -1 -5 4 -17 9 -25 8 -12 12 -11
32 6 23 21 89 44 125 44 31 0 47 24 33 49 -9 17 -20 21 -63 20 -33 0 -63 -7
-81 -19z" id="node4" class="node"></path>
<path d="M2678 2314 c-16 -8 -28 -19 -28 -25 0 -5 -8 -9 -19 -9 -10 0 -24 -7
-31 -15 -7 -8 -18 -15 -25 -15 -6 0 -20 -9 -30 -20 -17 -19 -17 -21 11 -60 16
-22 40 -62 54 -88 l26 -47 104 0 105 0 -4 59 c-1 33 -6 67 -11 75 -62 133 -77
156 -101 158 -13 1 -36 -5 -51 -13z m66 -49 c9 -19 21 -37 26 -40 6 -3 10 -17
10 -30 0 -13 7 -30 15 -39 17 -16 21 -82 5 -88 -5 -1 -41 -2 -79 0 -76 4 -65
-5 -116 93 -5 10 -13 19 -17 19 -21 0 -4 38 25 55 17 10 38 25 45 32 7 7 20
13 28 13 8 0 14 5 14 10 0 23 29 7 44 -25z" id="node5" class="node"></path>
<path d="M1171 2152 c-42 -12 -57 -13 -72 -3 -18 10 -21 8 -30 -18 -8 -22 -15
-28 -30 -24 -14 4 -19 0 -19 -15 0 -12 5 -24 11 -28 6 -3 9 -15 6 -25 -3 -10
1 -23 8 -29 9 -7 21 0 45 29 22 28 47 45 81 56 45 15 71 16 144 3 14 -2 21 3
23 19 3 17 -5 26 -34 38 -44 18 -62 18 -133 -3z" id="node6" class="node"></path>
<path d="M1852 2155 c-26 -11 -33 -20 -30 -37 2 -17 9 -22 23 -20 11 2 35 6
53 9 65 11 140 -26 186 -91 16 -23 36 -13 36 17 0 13 7 33 16 46 12 17 13 26
5 34 -8 8 -14 8 -23 -1 -18 -18 -28 -14 -28 11 0 31 -8 38 -30 25 -13 -8 -34
-7 -83 5 -79 20 -83 20 -125 2z" id="node7" class="node"></path>
<path d="M788 1884 c-34 -18 -48 -43 -48 -83 0 -33 9 -38 38 -20 16 10 30 5
82 -30 35 -22 72 -41 82 -41 29 0 37 -31 43 -171 11 -213 50 -323 148 -415 62
-59 71 -64 152 -94 99 -35 152 -41 343 -40 202 0 260 10 363 58 102 48 177
133 139 157 -5 3 -10 21 -10 40 0 19 -5 46 -11 61 -32 86 11 354 58 354 22 0
121 51 140 72 16 18 16 21 -2 54 -20 37 -83 99 -92 90 -3 -3 7 -28 21 -56 30
-58 27 -70 -27 -90 -18 -6 -41 -17 -52 -23 -50 -27 -357 -67 -520 -67 -266 0
-564 54 -700 127 -62 34 -69 38 -88 55 -19 17 -19 18 17 39 20 11 36 25 36 30
0 14 -82 10 -112 -7z m365 -243 c16 -6 44 -11 63 -11 20 0 45 -5 56 -11 21
-11 127 -24 303 -36 95 -6 267 8 401 32 111 20 108 21 99 -17 -4 -18 -10 -64
-14 -103 l-6 -70 -45 -5 c-56 -6 -63 -33 -10 -38 50 -5 56 -14 64 -89 4 -36
11 -74 17 -85 15 -27 4 -50 -39 -78 -68 -45 -143 -73 -248 -90 -74 -13 -289
-8 -379 8 -136 26 -269 103 -309 181 -43 81 -64 183 -33 152 12 -12 97 -15 97
-3 0 11 -54 42 -73 42 -8 0 -25 8 -37 18 -20 16 -23 31 -29 116 -3 53 -3 100
2 105 9 9 75 -1 120 -18z" id="node8" class="node"></path>
</g>
<g transform="translate(0.000000,300.000000) scale(0.100000,-0.100000)" fill="#FFFFFF" stroke="none">

<path d="M1940 2671 c-180 -31 -313 -163 -331 -329 -3 -35 -9 -66 -13 -69 -11
-11 -46 29 -46 53 0 26 -148 181 -195 204 -16 8 -37 19 -45 26 -25 19 -211 71
-288 81 -40 5 -111 5 -159 1 -253 -22 -447 -128 -605 -331 -135 -173 -220
-468 -189 -659 29 -183 105 -339 236 -487 41 -45 187 -168 235 -196 82 -48
119 -70 142 -86 15 -11 33 -19 41 -19 7 0 17 -4 22 -9 13 -12 156 -71 172 -71
7 0 27 -6 45 -14 18 -8 51 -22 73 -31 22 -9 49 -20 60 -25 11 -5 54 -23 95
-41 41 -17 102 -48 135 -68 33 -20 74 -43 90 -51 47 -24 195 -175 195 -199 0
-31 24 -25 53 13 14 18 43 49 64 69 93 86 128 117 134 117 3 0 41 27 85 61 43
33 116 88 162 122 152 113 531 445 532 465 0 4 21 30 45 57 25 28 45 54 45 59
0 5 6 17 14 25 37 44 146 278 146 316 0 11 7 40 16 65 23 66 23 285 -1 381
-19 78 -83 222 -119 267 -12 15 -53 59 -92 98 -56 55 -92 81 -165 117 -147 72
-212 87 -391 92 -84 2 -173 0 -198 -4z m494 -86 c11 -8 28 -15 38 -15 10 0 18
-4 18 -10 0 -5 11 -12 25 -16 14 -3 25 -10 25 -15 0 -5 5 -9 10 -9 12 0 24 -9
76 -57 30 -28 33 -35 24 -53 -6 -11 -14 -20 -19 -20 -4 0 -24 -15 -44 -33 -19
-19 -49 -40 -66 -47 -17 -7 -31 -16 -31 -21 0 -19 -34 -8 -80 26 -26 19 -52
35 -58 35 -6 0 -15 6 -19 14 -4 8 -16 15 -27 17 -10 2 -25 13 -32 24 -12 18
-9 29 22 90 19 38 42 78 51 87 19 22 61 23 87 3z m-462 -145 c63 -18 126 -120
75 -120 -8 0 -20 7 -27 15 -7 8 -20 15 -29 15 -9 0 -29 7 -45 15 -16 9 -37 13
-46 10 -9 -3 -23 1 -29 9 -17 20 1 53 31 59 13 2 25 5 28 6 3 0 22 -4 42 -9z
m-682 -21 c14 -25 -2 -49 -33 -49 -36 0 -102 -23 -125 -44 -20 -17 -24 -18
-32 -6 -13 20 -12 30 3 58 22 38 67 60 124 61 43 1 54 -3 63 -20z m1498 -164
c19 -38 38 -77 42 -86 5 -8 10 -42 11 -75 l4 -59 -105 0 -104 0 -26 47 c-14
26 -38 66 -54 88 -28 39 -28 41 -11 60 10 11 24 20 30 20 7 0 18 7 25 15 7 8
21 15 31 15 11 0 19 4 19 9 0 15 52 40 79 38 20 -2 31 -16 59 -72z m-1484
-100 c29 -12 37 -21 34 -38 -2 -16 -9 -21 -23 -19 -73 13 -99 12 -144 -3 -34
-11 -59 -28 -81 -56 -24 -29 -36 -36 -45 -29 -7 6 -11 19 -8 29 3 10 0 22 -6
25 -6 4 -11 16 -11 28 0 15 5 19 19 15 15 -4 22 2 30 24 9 26 12 28 30 18 15
-10 30 -9 72 3 71 21 89 21 133 3z m673 -2 c49 -12 70 -13 83 -5 22 13 30 6
30 -25 0 -25 10 -29 28 -11 9 9 15 9 23 1 8 -8 7 -17 -5 -34 -9 -13 -16 -33
-16 -46 0 -30 -20 -40 -36 -17 -46 65 -121 102 -186 91 -18 -3 -42 -7 -53 -9
-14 -2 -21 3 -23 20 -3 17 4 26 30 37 42 18 46 18 125 -2z m-1077 -262 c0 -5
-16 -19 -36 -30 -36 -21 -36 -22 -17 -39 19 -17 26 -21 88 -55 136 -73 434
-127 700 -127 163 0 470 40 520 67 11 6 34 17 52 23 54 20 57 32 27 90 -14 28
-24 53 -21 56 9 9 72 -53 92 -90 18 -33 18 -36 2 -54 -19 -21 -118 -72 -140
-72 -47 0 -90 -268 -58 -354 6 -15 11 -42 11 -61 0 -19 5 -37 10 -40 38 -24
-37 -109 -139 -157 -103 -48 -161 -58 -363 -58 -191 -1 -244 5 -343 40 -81 30
-90 35 -152 94 -98 92 -137 202 -148 415 -6 140 -14 171 -43 171 -10 0 -47 19
-82 41 -52 35 -66 40 -82 30 -29 -18 -38 -13 -38 20 0 40 14 65 48 83 30 17
112 21 112 7z" id="node10" class="node"></path>
<path d="M2360 2548 c-6 -13 -21 -41 -35 -63 -13 -22 -24 -46 -25 -52 0 -7 19
-23 41 -35 46 -25 61 -34 102 -62 23 -15 32 -17 52 -8 14 7 25 16 25 22 0 5 6
10 13 10 24 1 78 55 72 71 -10 27 -131 109 -160 109 -7 0 -18 7 -25 15 -18 22
-49 18 -60 -7z" id="node11" class="node"></path>
<path d="M2700 2290 c0 -5 -6 -10 -14 -10 -8 0 -21 -6 -28 -13 -7 -7 -28 -22
-45 -32 -29 -17 -46 -55 -25 -55 4 0 12 -9 17 -19 51 -98 40 -89 116 -93 38
-2 74 -1 79 0 16 6 12 72 -5 88 -8 9 -15 26 -15 39 0 13 -4 27 -10 30 -5 3
-17 21 -26 40 -15 32 -44 48 -44 25z" id="node12" class="node"></path>
<path d="M1033 1659 c-5 -5 -5 -52 -2 -105 6 -85 9 -100 29 -116 12 -10 29
-18 37 -18 19 0 73 -31 73 -42 0 -12 -85 -9 -97 3 -31 31 -10 -71 33 -152 40
-78 173 -155 309 -181 90 -16 305 -21 379 -8 105 17 180 45 248 90 43 28 54
51 39 78 -6 11 -13 49 -17 85 -8 75 -14 84 -64 89 -53 5 -46 32 10 38 l45 5 6
70 c4 39 10 85 14 103 9 38 12 37 -99 17 -134 -24 -306 -38 -401 -32 -176 12
-282 25 -303 36 -11 6 -36 11 -56 11 -19 0 -47 5 -63 11 -45 17 -111 27 -120
18z" id="node13" class="node"></path>

</g>
</svg>