<!--?xml version="1.0" standalone="no"?-->

<svg version="1.0" xmlns="http://www.w3.org/2000/svg" width="288.000000pt" height="300.000000pt" viewBox="0 0 288.000000 300.000000" preserveAspectRatio="xMidYMid meet">
<g transform="translate(0.000000,300.000000) scale(0.100000,-0.100000)" fill="#303030" stroke="none">
<path d="M514 2564 c-17 -8 -48 -33 -70 -55 -36 -37 -39 -44 -42 -108 -3 -50
0 -76 13 -100 21 -42 13 -61 -24 -61 -35 0 -48 -15 -31 -35 8 -10 21 -13 39
-8 23 5 21 0 -25 -48 -68 -72 -99 -122 -123 -194 -22 -65 -27 -168 -11 -219 5
-17 19 -64 31 -104 13 -42 45 -110 74 -157 58 -91 57 -95 -16 -95 -48 0 -116
-27 -129 -51 -13 -23 -13 -84 0 -107 5 -9 17 -35 26 -56 l18 -39 -30 -24 c-69
-57 -74 -64 -74 -104 0 -36 21 -74 81 -146 12 -16 63 -17 90 -3 13 8 31 8 56
1 28 -8 43 -7 62 4 14 8 40 21 57 29 51 25 58 40 60 136 2 79 0 91 -20 108
-28 26 -63 33 -108 23 -20 -5 -62 -6 -94 -2 -56 6 -58 7 -80 51 -24 45 -30 95
-16 117 11 18 50 30 125 38 l68 7 76 -68 c154 -139 249 -296 276 -459 16 -93
36 -125 77 -125 18 0 16 12 37 -244 6 -75 5 -79 -13 -71 -130 54 -149 58 -259
59 -128 1 -177 -14 -302 -91 l-28 -17 30 -5 c60 -12 1208 -7 1212 5 11 34
-214 104 -338 104 -53 0 -173 -32 -194 -51 -22 -22 -25 0 -23 148 l3 158 90
17 c50 10 99 22 110 27 11 5 49 21 85 36 135 57 345 168 437 231 l95 66 97
-33 c99 -33 171 -40 301 -29 53 5 57 4 88 -30 23 -26 30 -42 27 -60 -12 -63
-25 -214 -20 -231 7 -22 71 -37 94 -22 8 5 20 38 27 76 7 36 17 74 23 86 6 11
11 29 11 40 0 13 10 23 34 31 24 7 38 21 47 43 7 18 24 41 37 51 21 16 24 26
19 61 -2 23 0 50 5 59 6 11 5 30 -3 54 -16 46 -13 71 12 98 23 24 59 93 59
111 0 6 -9 18 -20 26 -29 20 -14 71 22 75 16 2 43 21 66 46 31 34 43 58 55
109 8 36 24 78 36 93 15 20 18 31 11 45 -14 24 -20 28 -80 39 -31 6 -65 21
-88 40 -54 43 -116 50 -179 19 -26 -13 -60 -22 -74 -20 -33 3 -116 -35 -129
-60 -6 -11 -7 -35 0 -66 5 -26 14 -74 20 -105 9 -44 19 -63 41 -83 17 -14 35
-25 40 -25 15 0 11 -77 -4 -83 -18 -7 -31 -135 -16 -154 9 -10 7 -14 -7 -19
-77 -24 -124 -70 -124 -120 0 -12 -7 -37 -15 -57 -14 -34 -17 -36 -79 -42 -77
-9 -127 -2 -228 32 l-78 26 74 78 c162 172 231 393 192 619 -26 150 -78 229
-199 304 -126 78 -232 94 -368 56 -71 -19 -125 -46 -168 -84 -23 -21 -23 -21
-35 -1 -6 11 -36 46 -67 77 -59 58 -138 105 -244 142 -37 13 -60 27 -60 36 0
16 -10 16 -83 4 l-43 -7 6 34 c9 47 -27 141 -66 173 -16 14 -46 30 -67 36 -54
15 -142 12 -178 -6z m195 -43 c20 -11 42 -25 48 -33 20 -26 41 -95 33 -107 -4
-8 -43 -19 -86 -26 -44 -8 -117 -21 -164 -29 -97 -18 -110 -12 -110 50 0 70
55 139 126 157 46 12 117 6 153 -12z m71 -195 c0 -16 -41 -27 -199 -52 -87
-14 -105 -14 -112 -3 -11 18 7 24 146 48 137 24 165 25 165 7z m235 -69 c93
-33 145 -66 212 -133 47 -47 65 -73 75 -108 12 -44 28 -62 28 -32 0 54 128
128 255 148 67 10 85 9 151 -7 179 -45 285 -167 312 -361 10 -70 9 -89 -9
-204 -31 -202 -152 -368 -381 -523 -117 -79 -293 -174 -363 -197 -22 -7 -44
-16 -50 -20 -27 -18 -173 -61 -237 -70 -76 -9 -160 1 -185 22 -9 7 -12 21 -9
34 7 25 -41 169 -82 249 -49 95 -114 185 -161 222 -163 130 -256 278 -296 471
-20 98 -11 160 37 260 34 72 135 186 185 207 18 8 81 21 140 30 59 9 131 23
158 30 61 18 138 11 220 -18z m1482 -408 c-10 -6 -27 -25 -38 -42 -11 -19 -19
-25 -19 -16 0 24 39 69 58 69 15 -1 15 -2 -1 -11z m132 -8 l24 -18 -12 -113
c-13 -120 -17 -134 -50 -164 -16 -14 -30 -17 -62 -13 -71 9 -99 56 -99 165 0
55 8 64 28 32 9 -15 23 -20 52 -20 33 0 47 7 85 43 25 24 45 49 45 56 0 7 -20
-8 -45 -33 -35 -37 -51 -46 -78 -46 -62 0 -76 42 -26 84 32 28 55 32 79 16 13
-9 12 -12 -4 -25 -11 -8 -27 -15 -35 -15 -13 1 -12 4 4 16 20 15 19 15 -5 12
-17 -2 -25 -9 -25 -23 0 -16 6 -20 33 -18 56 2 78 35 46 67 -14 15 -14 16 3
16 10 0 29 -9 42 -19z m-209 -25 c0 -11 -9 -13 -35 -9 -41 7 -75 -17 -75 -52
0 -29 19 -45 63 -52 34 -5 34 -6 40 -64 3 -33 10 -66 17 -73 15 -19 -1 -27
-39 -20 -40 8 -68 43 -76 97 -3 23 -11 63 -17 90 -11 42 -10 48 8 62 39 30
114 44 114 21z m-25 -35 c3 -5 -5 -11 -17 -13 -22 -4 -21 -5 6 -17 39 -16 21
-38 -21 -24 -31 11 -43 41 -21 54 17 12 45 11 53 0z m386 -8 c5 -5 4 -15 -1
-23 -8 -13 -12 -11 -25 8 -19 26 -60 29 -74 5 -9 -16 -10 -15 -11 6 0 23 2 24
52 18 28 -4 55 -10 59 -14z m-41 -34 c0 -5 -4 -9 -10 -9 -5 0 -10 7 -10 16 0
8 5 12 10 9 6 -3 10 -10 10 -16z m-41 -30 c24 -9 35 -8 48 2 14 12 15 11 10
-6 -3 -11 -9 -40 -12 -64 -9 -58 -65 -121 -107 -121 l-30 0 22 36 c15 23 24
58 28 100 2 35 6 64 7 64 1 0 16 -5 34 -11z m-203 -195 c22 -9 50 -13 67 -10
l30 6 -7 -52 c-8 -63 -36 -94 -68 -77 -11 6 -27 8 -35 4 -25 -9 -73 43 -73 79
0 35 8 50 30 59 8 3 16 6 16 6 1 1 19 -6 40 -15z m-66 -164 c-22 -14 -30 -12
-30 8 0 28 12 34 29 17 14 -14 14 -17 1 -25z m130 -4 c0 -15 -14 -35 -21 -30
-15 9 -10 34 6 34 8 0 15 -2 15 -4z m-95 -28 c-4 -13 -13 -36 -21 -52 -11 -24
-12 -31 -2 -38 10 -6 9 -8 -2 -8 -48 0 -52 55 -8 92 40 33 41 34 33 6z m52
-74 c9 4 13 1 11 -6 -3 -7 -20 -14 -39 -15 -19 -1 -29 0 -22 3 7 3 16 22 20
42 l8 37 3 -33 c3 -25 7 -32 19 -28z m-129 -26 c16 -21 24 -105 12 -128 -26
-48 -95 -6 -83 51 3 18 1 29 -6 29 -6 0 -11 -4 -11 -9 0 -5 -3 -22 -6 -37 -4
-23 0 -36 19 -56 17 -18 23 -34 20 -48 -6 -23 -5 -22 -27 -14 -9 3 -16 11 -16
18 0 6 -10 16 -22 21 -17 7 -22 17 -20 35 2 14 4 36 6 50 4 45 17 70 44 85 33
18 76 19 90 3z m160 -58 c3 -30 -39 -60 -86 -60 -32 0 -42 14 -42 60 0 24 5
29 28 32 15 2 43 1 62 -2 28 -4 36 -10 38 -30z m-2117 -50 c64 0 69 -1 75 -24
8 -35 -4 -52 -21 -29 -10 12 -17 15 -24 8 -8 -8 -3 -22 15 -48 31 -46 30 -90
-2 -95 -12 -2 -30 -12 -40 -23 -20 -22 -35 -24 -80 -7 -29 10 -36 9 -53 -6
-23 -21 -57 -14 -66 15 -4 10 -10 19 -15 19 -18 0 -50 44 -50 68 0 15 14 37
38 59 59 56 93 74 126 68 16 -3 59 -5 97 -5z m2103 -26 c19 -7 21 -45 4 -62
-29 -29 -123 -3 -123 33 0 16 9 21 50 26 28 3 51 7 52 7 1 1 8 -1 17 -4z
m-144 -43 c0 -11 -29 -35 -35 -29 -10 9 7 38 21 38 8 0 14 -4 14 -9z m73 -48
c18 -3 27 -12 27 -24 0 -39 -58 -48 -95 -14 -22 22 -25 28 -14 41 8 10 20 13
33 9 12 -4 33 -9 49 -12z m-79 -57 l28 -23 -21 -86 c-12 -47 -21 -92 -21 -100
0 -18 -24 -29 -46 -20 -10 4 -13 14 -10 32 2 14 10 70 17 124 7 53 15 97 18
97 3 -1 19 -11 35 -24z m-1443 -401 c-3 -158 -13 -222 -25 -164 -9 44 -17 325
-9 332 4 4 14 6 23 5 13 -3 15 -26 11 -173z" id="node1" class="node" stroke-width="20"></path>
<path d="M937 2128 c-28 -35 -26 -59 2 -33 10 8 45 19 77 23 42 5 59 11 59 22
0 11 -14 16 -56 18 -54 3 -58 1 -82 -30z" id="node2" class="node" stroke-width="20"></path>
<path d="M1014 2071 c-52 -13 -101 -49 -119 -88 -19 -39 -15 -118 7 -197 16
-54 87 -130 136 -144 93 -28 164 -9 204 55 20 32 23 50 22 123 0 62 -5 95 -19
120 -28 54 -66 100 -94 114 -35 18 -99 26 -137 17z m89 -31 c34 0 112 -89 125
-143 26 -101 7 -182 -50 -217 -92 -56 -216 10 -254 136 -27 92 -15 158 37 197
29 21 86 37 107 31 8 -2 23 -4 35 -4z" id="node3" class="node" stroke-width="20"></path>
<path d="M1083 1813 c-18 -7 -16 -50 2 -57 24 -9 45 4 45 29 0 18 -22 40 -33
34 -1 0 -8 -3 -14 -6z" id="node4" class="node" stroke-width="20"></path>
<path d="M1540 2008 c-24 -11 -24 -11 18 -20 28 -6 55 -22 78 -45 29 -28 38
-33 45 -22 13 21 11 26 -18 59 -31 35 -83 46 -123 28z" id="node5" class="node" stroke-width="20"></path>
<path d="M603 1970 c-41 -25 -42 -34 -3 -25 l30 7 -2 -74 c-4 -122 21 -443 41
-527 10 -43 31 -101 46 -128 40 -67 120 -142 183 -171 60 -27 93 -27 232 2 41
9 75 16 75 16 1 0 -1 -16 -3 -36 -6 -48 15 -37 24 12 10 53 -3 58 -87 34 -89
-24 -93 -24 -85 -3 9 23 -12 81 -34 93 -10 6 -36 10 -57 10 -49 0 -63 14 -63
62 0 45 3 46 134 23 48 -9 92 -13 97 -9 5 3 7 21 3 40 l-6 34 75 -6 c188 -16
559 120 632 233 28 42 7 38 -42 -9 -82 -76 -172 -120 -353 -171 -57 -16 -104
-21 -200 -21 -119 0 -129 1 -210 33 -299 118 -420 286 -383 531 8 53 10 55 43
61 34 6 34 6 -10 8 -29 0 -56 -6 -77 -19z m148 -441 l51 -50 -11 -47 c-6 -26
-13 -60 -16 -75 -5 -26 -8 -28 -38 -22 -18 4 -36 11 -40 15 -14 13 -25 80 -31
195 l-7 110 21 -38 c12 -21 44 -61 71 -88z m196 -177 c-3 -24 -7 -45 -9 -47
-8 -8 -139 20 -139 30 -1 18 13 120 17 127 2 4 34 -10 70 -30 l65 -37 -4 -43z
m108 5 c47 -13 50 -16 53 -50 4 -41 4 -41 -47 -27 -20 5 -48 12 -63 15 -25 5
-28 10 -28 44 0 42 8 55 24 42 6 -5 34 -16 61 -24z m-132 -214 c28 -26 29 -27
23 -5 -6 19 -4 22 18 22 38 0 68 -34 64 -73 -3 -31 -4 -32 -51 -30 -35 1 -61
10 -97 33 -51 33 -59 47 -38 68 20 20 50 14 81 -15z" id="node6" class="node" stroke-width="20"></path>
<path d="M1444 1940 c-41 -9 -87 -43 -116 -83 -34 -48 -32 -131 5 -184 37 -54
70 -66 159 -62 61 4 80 9 113 33 66 47 80 73 80 143 0 53 -4 66 -31 100 -45
56 -120 75 -210 53z m127 -30 c62 -17 102 -94 79 -153 -59 -149 -270 -167
-310 -27 -12 43 2 105 31 136 41 44 129 64 200 44z" id="node7" class="node" stroke-width="20"></path>
<path d="M1384 1765 c-7 -18 3 -35 22 -35 20 0 30 30 13 41 -20 12 -29 11 -35
-6z" id="node8" class="node" stroke-width="20"></path>

















</g>
<g transform="translate(0.000000,300.000000) scale(0.100000,-0.100000)" fill="#FFFFFF" stroke="none">

<path d="M556 2533 c-71 -18 -126 -87 -126 -157 0 -62 13 -68 110 -50 47 8
120 21 164 29 43 7 82 18 86 26 8 12 -13 81 -33 107 -32 41 -131 63 -201 45z" id="node27" class="node" stroke-width="20"></path>
<path d="M615 2319 c-139 -24 -157 -30 -146 -48 7 -11 25 -11 112 3 158 25
199 36 199 52 0 18 -28 17 -165 -7z" id="node28" class="node" stroke-width="20"></path>
<path d="M795 2275 c-27 -7 -99 -21 -158 -30 -59 -9 -122 -22 -140 -30 -50
-21 -151 -135 -185 -207 -48 -100 -57 -162 -37 -260 40 -193 133 -341 296
-471 47 -37 112 -127 161 -222 41 -80 89 -224 82 -249 -17 -70 169 -81 344
-20 42 15 82 30 87 34 6 4 28 13 50 20 70 23 246 118 363 197 229 155 350 321
381 523 18 115 19 134 9 204 -27 194 -133 316 -312 361 -66 16 -84 17 -151 7
-127 -20 -255 -94 -255 -148 0 -30 -16 -12 -28 32 -10 35 -28 61 -75 108 -124
124 -306 187 -432 151z m280 -135 c0 -11 -17 -17 -59 -22 -32 -4 -67 -15 -77
-23 -28 -26 -30 -2 -2 33 24 31 28 33 82 30 42 -2 56 -7 56 -18z m76 -86 c28
-14 66 -60 94 -114 14 -25 19 -58 19 -120 1 -73 -2 -91 -22 -123 -40 -64 -111
-83 -204 -55 -49 14 -120 90 -136 144 -22 79 -26 158 -7 197 38 82 167 117
256 71z m512 -74 c29 -33 31 -38 18 -59 -7 -11 -16 -6 -45 22 -23 23 -50 39
-78 45 -42 9 -42 9 -18 20 40 18 92 7 123 -28z m-973 1 c-33 -6 -35 -8 -43
-61 -37 -245 84 -413 383 -531 81 -32 91 -33 210 -33 96 0 143 5 200 21 181
51 271 95 353 171 49 47 70 51 42 9 -73 -113 -444 -249 -632 -233 l-75 6 6
-34 c4 -19 2 -37 -3 -40 -5 -4 -49 0 -97 9 -131 23 -134 22 -134 -23 0 -48 14
-62 63 -62 21 0 47 -4 57 -10 22 -12 43 -70 34 -93 -8 -21 -4 -21 85 3 84 24
97 19 87 -34 -9 -49 -30 -60 -24 -12 2 20 4 36 3 36 0 0 -34 -7 -75 -16 -139
-29 -172 -29 -232 -2 -63 29 -143 104 -183 171 -15 27 -36 85 -46 128 -20 84
-45 405 -41 527 l2 74 -30 -7 c-39 -9 -38 0 3 25 21 13 48 19 77 19 44 -2 44
-2 10 -8z m899 -44 c19 -7 48 -29 65 -50 27 -34 31 -47 31 -100 0 -70 -14 -96
-80 -143 -33 -24 -52 -29 -113 -33 -89 -4 -122 8 -159 62 -37 53 -39 136 -5
184 57 80 166 113 261 80z" id="node29" class="node" stroke-width="20"></path>
<path d="M1021 2040 c-98 -23 -133 -104 -97 -224 38 -126 162 -192 254 -136
57 35 76 116 50 217 -13 54 -91 143 -125 143 -12 0 -27 2 -35 4 -7 2 -28 0
-47 -4z m93 -226 c9 -3 16 -16 16 -29 0 -25 -21 -38 -45 -29 -18 7 -20 50 -2
57 6 3 13 6 14 6 1 1 8 -2 17 -5z" id="node30" class="node" stroke-width="20"></path>
<path d="M666 1545 c6 -115 17 -182 31 -195 4 -4 22 -11 40 -15 30 -6 33 -4
38 22 3 15 10 49 16 75 l11 47 -51 50 c-27 27 -59 67 -71 88 l-21 38 7 -110z" id="node31" class="node" stroke-width="20"></path>
<path d="M816 1462 c-4 -7 -18 -109 -17 -127 0 -10 131 -38 139 -30 2 2 6 23
9 47 l4 43 -65 37 c-36 20 -68 34 -70 30z" id="node32" class="node" stroke-width="20"></path>
<path d="M977 1383 c-4 -3 -7 -23 -7 -44 0 -34 3 -39 28 -44 15 -3 43 -10 63
-15 51 -14 51 -14 47 27 -3 34 -6 37 -53 50 -27 8 -55 19 -61 24 -6 5 -14 6
-17 2z" id="node33" class="node" stroke-width="20"></path>
<path d="M842 1158 c-21 -21 -13 -35 38 -68 36 -23 62 -32 97 -33 47 -2 48 -1
51 30 4 39 -26 73 -64 73 -22 0 -24 -3 -18 -22 6 -22 5 -21 -23 5 -31 29 -61
35 -81 15z" id="node34" class="node" stroke-width="20"></path>
<path d="M1434 1904 c-53 -19 -83 -52 -95 -102 -24 -110 64 -190 181 -162 78
19 151 114 136 176 -23 89 -116 126 -222 88z m-15 -133 c17 -11 7 -41 -13 -41
-19 0 -29 17 -22 35 6 17 15 18 35 6z" id="node35" class="node" stroke-width="20"></path>
<path d="M2461 1834 c-12 -15 -21 -34 -21 -43 0 -9 8 -3 19 16 11 17 28 36 38
42 16 9 16 10 1 11 -9 0 -26 -12 -37 -26z" id="node36" class="node" stroke-width="20"></path>
<path d="M2584 1844 c32 -32 10 -65 -46 -67 -27 -2 -33 2 -33 18 0 14 8 21 25
23 24 3 25 3 5 -12 -16 -12 -17 -15 -4 -16 8 0 24 7 35 15 16 13 17 16 4 25
-24 16 -47 12 -79 -16 -50 -42 -36 -84 26 -84 27 0 43 9 78 46 25 25 45 40 45
33 0 -7 -20 -32 -45 -56 -38 -36 -52 -43 -85 -43 -29 0 -43 5 -52 20 -20 32
-28 23 -28 -32 0 -109 28 -156 99 -165 32 -4 46 -1 62 13 33 30 37 44 50 164
l12 113 -24 18 c-13 10 -32 19 -42 19 -17 0 -17 -1 -3 -16z" id="node37" class="node" stroke-width="20"></path>
<path d="M2355 1819 c-16 -5 -39 -16 -49 -24 -18 -14 -19 -20 -8 -62 6 -27 14
-67 17 -90 8 -54 36 -89 76 -97 38 -7 54 1 39 20 -7 7 -14 40 -17 73 -6 58 -6
59 -40 64 -44 7 -63 23 -63 52 0 35 34 59 75 52 26 -4 35 -2 35 9 0 16 -20 17
-65 3z" id="node38" class="node" stroke-width="20"></path>
<path d="M2342 1781 c-22 -13 -10 -43 21 -54 42 -14 60 8 21 24 -27 12 -28 13
-6 17 12 2 20 8 17 13 -8 11 -36 12 -53 0z" id="node39" class="node" stroke-width="20"></path>
<path d="M2670 1769 c1 -21 2 -22 11 -6 14 24 55 21 74 -5 13 -19 17 -21 25
-8 13 21 0 30 -58 37 -50 6 -52 5 -52 -18z" id="node40" class="node" stroke-width="20"></path>
<path d="M2720 1746 c0 -9 5 -16 10 -16 6 0 10 4 10 9 0 6 -4 13 -10 16 -5 3
-10 -1 -10 -9z" id="node41" class="node" stroke-width="20"></path>
<path d="M2658 1656 c-4 -42 -13 -77 -28 -100 l-22 -36 30 0 c42 0 98 63 107
121 3 24 9 53 12 64 5 17 4 18 -10 6 -13 -10 -24 -11 -48 -2 -18 6 -33 11 -34
11 -1 0 -5 -29 -7 -64z" id="node42" class="node" stroke-width="20"></path>
<path d="M2440 1523 c-22 -9 -30 -24 -30 -59 0 -36 48 -88 73 -79 8 4 24 2 35
-4 32 -17 60 14 68 77 l7 52 -30 -6 c-17 -3 -45 1 -67 10 -21 9 -39 16 -40 15
0 0 -8 -3 -16 -6z" id="node43" class="node" stroke-width="20"></path>
<path d="M2407 1384 c-9 -10 -9 -44 1 -44 4 0 14 5 22 10 13 8 13 11 -1 25 -8
8 -18 12 -22 9z" id="node44" class="node" stroke-width="20"></path>
<path d="M2530 1336 c0 -22 17 -28 24 -10 9 22 8 24 -9 24 -8 0 -15 -6 -15
-14z" id="node45" class="node" stroke-width="20"></path>
<path d="M2432 1312 c-44 -37 -40 -92 8 -92 11 0 12 2 2 8 -10 7 -9 14 2 38
15 32 29 74 24 74 -2 0 -18 -13 -36 -28z" id="node46" class="node" stroke-width="20"></path>
<path d="M2487 1268 c-4 -20 -13 -39 -20 -42 -7 -3 3 -4 22 -3 19 1 36 8 39
15 2 7 -2 10 -11 6 -12 -4 -16 3 -19 28 l-3 33 -8 -37z" id="node47" class="node" stroke-width="20"></path>
<path d="M2298 1215 c-27 -15 -40 -40 -44 -85 -2 -14 -4 -36 -6 -50 -2 -18 3
-28 20 -35 12 -5 22 -15 22 -21 0 -7 7 -15 16 -18 22 -8 21 -9 27 14 3 14 -3
30 -20 48 -19 20 -23 33 -19 56 3 15 6 32 6 37 0 5 5 9 11 9 7 0 9 -11 6 -29
-12 -57 57 -99 83 -51 12 23 4 107 -12 128 -14 16 -57 15 -90 -3z" id="node48" class="node" stroke-width="20"></path>
<path d="M2448 1192 c-23 -3 -28 -8 -28 -32 0 -46 10 -60 42 -60 47 0 89 30
86 60 -2 20 -10 26 -38 30 -19 3 -47 4 -62 2z" id="node49" class="node" stroke-width="20"></path>
<path d="M275 1102 c-57 -37 -105 -89 -105 -114 0 -24 32 -68 50 -68 5 0 11
-9 15 -19 9 -29 43 -36 66 -15 17 15 24 16 53 6 45 -17 60 -15 80 7 10 11 28
21 40 23 32 5 33 49 2 95 -18 26 -23 40 -15 48 7 7 14 4 24 -8 17 -23 29 -6
21 29 -6 23 -11 24 -75 24 -38 0 -81 2 -97 5 -19 4 -39 -1 -59 -13z" id="node50" class="node" stroke-width="20"></path>
<path d="M2465 1081 c-41 -5 -50 -10 -50 -26 0 -36 94 -62 123 -33 17 17 15
55 -4 62 -9 3 -16 5 -17 4 -1 0 -24 -4 -52 -7z" id="node51" class="node" stroke-width="20"></path>
<path d="M2356 1034 c-4 -9 -4 -19 -1 -22 6 -6 35 18 35 29 0 16 -28 10 -34
-7z" id="node52" class="node" stroke-width="20"></path>
<path d="M2381 996 c-11 -13 -8 -19 14 -41 37 -34 95 -25 95 14 0 12 -9 21
-27 24 -16 3 -37 8 -49 12 -13 4 -25 1 -33 -9z" id="node53" class="node" stroke-width="20"></path>
<path d="M2331 863 c-7 -54 -15 -110 -17 -124 -3 -18 0 -28 10 -32 22 -9 46 2
46 20 0 8 9 53 21 100 l21 86 -28 23 c-16 13 -32 23 -35 24 -3 0 -11 -44 -18
-97z" id="node54" class="node" stroke-width="20"></path>





</g>
</svg>