<!--?xml version="1.0" standalone="no"?-->

<svg version="1.0" xmlns="http://www.w3.org/2000/svg" width="300.000000pt" height="300.000000pt" viewBox="0 0 300.000000 300.000000" preserveAspectRatio="xMidYMid meet">
<g transform="translate(0.000000,300.000000) scale(0.100000,-0.100000)" fill="#191919" stroke="none">
<path class="node" id="node1" d="M810 1797 c-60 -17 -110 -48 -154 -97 -40 -44 -50 -76 -13 -42 13 12
25 22 28 22 2 0 3 -21 1 -46 -8 -93 47 -170 133 -189 l30 -7 -35 33 c-45 43
-64 88 -56 133 8 42 26 57 26 22 0 -25 43 -86 54 -75 3 3 1 19 -6 35 -14 39
-4 80 29 110 27 25 69 36 45 12 -17 -17 -15 -64 4 -82 21 -22 25 -20 18 8 -8
35 28 70 64 61 15 -3 32 -13 37 -22 27 -43 62 -77 92 -89 112 -47 216 32 172
129 -30 66 -149 60 -149 -6 0 -31 38 -61 64 -51 25 9 19 24 -10 24 -21 0 -25
4 -22 23 4 32 62 37 78 7 12 -22 5 -60 -14 -72 -6 -4 -30 -8 -53 -8 -45 0 -64
13 -89 63 -21 42 -53 76 -86 93 -39 20 -135 26 -188 11z"></path>
<path class="node" id="node2" d="M1329 1781 c-49 -50 -37 -118 29 -159 l37 -23 -33 5 c-29 5 -38 1
-66 -28 -37 -40 -93 -57 -156 -47 -35 5 -44 10 -42 24 4 22 -41 23 -82 2 -28
-15 -28 -15 -22 11 l7 26 -33 -19 c-22 -13 -38 -33 -49 -63 -9 -25 -19 -38
-23 -32 -4 7 -12 12 -18 12 -17 0 -2 -80 22 -112 l21 -28 -28 0 c-39 0 -101
17 -151 43 -46 22 -128 106 -143 144 -19 50 -39 15 -39 -68 0 -66 43 -144 108
-196 29 -24 60 -43 70 -43 10 0 13 3 6 8 -18 12 -64 78 -64 92 0 7 23 -8 50
-34 66 -62 140 -95 227 -102 l68 -5 -59 26 c-55 23 -111 63 -102 72 2 2 25 -6
52 -18 60 -27 270 -41 262 -19 -2 8 -18 18 -34 24 -82 30 -124 76 -124 136 0
28 30 60 55 60 5 0 34 -22 63 -50 49 -46 139 -97 150 -85 3 3 -8 20 -25 38
-18 17 -35 44 -38 58 -6 23 -3 27 22 32 15 4 38 9 51 13 18 5 22 2 22 -18 0
-27 37 -89 58 -96 9 -3 10 3 2 23 -25 65 0 155 43 155 27 0 67 -34 67 -55 0
-8 5 -15 10 -15 6 0 10 7 10 15 0 8 10 23 22 35 55 51 105 0 95 -97 -3 -30 -2
-53 4 -53 14 0 49 62 49 89 0 19 4 22 23 17 12 -4 35 -9 50 -13 25 -5 28 -9
22 -32 -3 -14 -20 -41 -38 -58 -17 -18 -28 -35 -25 -39 11 -11 114 49 156 92
47 48 57 51 90 28 25 -17 29 -58 10 -99 -12 -27 -62 -63 -112 -81 -16 -6 -32
-16 -34 -23 -4 -11 18 -12 104 -9 86 3 119 9 157 27 27 12 51 20 54 17 10 -10
-40 -44 -102 -71 l-60 -26 70 5 c86 7 173 47 233 108 53 53 56 29 5 -31 -34
-40 -35 -43 -12 -36 79 24 169 148 169 234 0 83 -20 118 -39 68 -5 -12 -29
-45 -55 -73 -54 -61 -132 -101 -213 -110 l-56 -7 22 30 c13 16 25 49 28 71 6
42 -3 52 -24 31 -9 -9 -13 -5 -18 17 -9 43 -19 57 -54 78 l-32 18 7 -26 c6
-26 6 -26 -22 -11 -41 21 -86 20 -82 -2 2 -13 -7 -19 -42 -25 -61 -11 -118 7
-156 48 -28 29 -37 33 -66 28 l-33 -5 37 22 c65 39 78 111 29 160 -39 39 -96
40 -140 3 l-31 -26 -31 26 c-44 37 -101 36 -140 -3z"></path>
<path class="node" id="node3" d="M2044 1801 c-57 -15 -93 -44 -124 -102 -32 -61 -43 -69 -96 -69 -35
0 -74 28 -74 53 0 49 82 66 88 18 3 -22 1 -23 -28 -18 -34 7 -38 -8 -8 -27 23
-14 68 18 68 48 0 68 -119 76 -149 9 -44 -97 61 -176 172 -129 30 12 74 55 94
91 5 7 20 16 35 20 37 9 71 -25 62 -63 -7 -27 -7 -27 15 -8 25 23 27 62 5 87
-15 16 -14 17 5 12 28 -7 70 -51 78 -81 3 -14 1 -39 -5 -56 -7 -16 -9 -32 -7
-35 10 -9 36 26 50 65 l13 39 11 -28 c6 -16 11 -35 11 -43 0 -29 -28 -81 -61
-113 l-34 -33 30 7 c87 19 143 99 133 190 -3 25 -3 45 0 45 3 0 16 -10 29 -22
43 -40 34 -11 -12 40 -26 29 -69 62 -98 76 -56 27 -152 40 -203 27z"></path>
<path class="node" id="node4" d="M1422 1438 c-17 -17 -15 -50 8 -99 l20 -44 -32 -27 c-23 -20 -47 -29
-90 -34 -62 -7 -80 -24 -25 -24 17 0 69 8 115 17 77 16 87 16 165 0 89 -19
147 -22 147 -8 0 4 -23 11 -51 14 -62 8 -113 36 -117 64 -2 12 4 35 12 52 20
38 20 75 1 91 -12 10 -15 9 -15 -7 0 -10 -13 -34 -29 -53 -26 -31 -30 -33 -46
-20 -10 8 -26 32 -35 52 -13 29 -19 35 -28 26z"></path>
</g>
<g transform="translate(0.000000,300.000000) scale(0.100000,-0.100000)" fill="#FFFFFF" stroke="none">

</g>
</svg>