<!--?xml version="1.0" standalone="no"?-->

<svg version="1.0" xmlns="http://www.w3.org/2000/svg" width="300.000000pt" height="300.000000pt" viewBox="0 0 300.000000 300.000000" preserveAspectRatio="xMidYMid meet">
<g transform="translate(0.000000,300.000000) scale(0.100000,-0.100000)" fill="#1C1C1C" stroke="none">
<path d="M1252 1710 c-43 -10 -90 -55 -101 -97 -15 -55 11 -126 66 -179 l47
-44 -65 0 c-62 0 -128 22 -136 46 -1 5 13 19 33 32 34 22 35 24 19 42 -22 24
-143 105 -181 121 -16 6 -42 17 -59 24 -74 32 -260 44 -357 24 -70 -14 -207
-59 -213 -70 -3 -4 0 -17 7 -28 10 -17 9 -23 -7 -41 -26 -29 -69 -24 -73 10
-6 41 -16 43 -91 19 -72 -23 -85 -35 -54 -46 45 -15 106 -42 193 -87 52 -26
121 -61 153 -77 76 -38 171 -52 275 -39 81 11 239 53 255 69 10 10 -28 35 -42
27 -4 -3 -52 -17 -106 -31 -172 -44 -338 -27 -414 44 -42 39 -47 71 -22 124
24 49 72 82 136 92 l40 6 -30 -14 c-57 -27 -85 -62 -85 -107 0 -73 33 -112
117 -136 67 -20 148 -6 194 34 l32 26 17 -22 c21 -25 52 -29 69 -8 9 10 3 21
-28 49 -59 53 -92 67 -161 67 -64 0 -120 -21 -120 -44 0 -21 32 -29 42 -11 11
18 98 21 116 3 19 -19 14 -28 -23 -44 -44 -18 -106 -18 -150 0 -41 18 -70 67
-56 95 43 79 190 113 334 75 68 -17 121 -42 185 -86 35 -24 41 -32 31 -44 -17
-20 -24 -18 -82 26 -81 61 -134 80 -224 82 -83 2 -143 -8 -143 -23 0 -5 31 -9
68 -9 95 0 172 -29 257 -95 107 -83 156 -114 200 -126 39 -11 156 -7 203 7 18
5 32 -3 70 -42 26 -27 52 -58 58 -69 10 -18 15 -15 72 44 l60 64 54 -9 c90
-15 198 -10 243 11 33 16 107 65 125 85 15 16 92 62 135 81 40 18 69 23 142
23 103 1 115 13 37 35 -97 27 -246 -11 -344 -89 -30 -24 -38 -26 -53 -15 -9 7
-17 15 -17 19 0 11 103 72 165 97 52 21 76 24 180 24 104 0 125 -3 162 -22 51
-28 83 -67 83 -104 0 -44 -58 -79 -132 -79 -72 0 -130 25 -126 55 3 17 11 20
64 23 54 3 62 1 70 -19 10 -21 11 -21 28 -4 17 17 17 19 -1 36 -22 23 -95 34
-157 25 -45 -7 -140 -67 -158 -101 -11 -19 38 -33 61 -16 32 23 41 22 77 -6
33 -25 47 -28 123 -31 100 -3 142 12 178 67 41 61 24 131 -42 173 l-30 19 35
-6 c82 -16 140 -77 140 -148 0 -71 -76 -120 -225 -142 -48 -8 -190 16 -305 50
-62 19 -86 22 -97 14 -23 -20 -15 -26 60 -49 39 -12 92 -29 117 -37 92 -30
286 -26 349 7 81 43 282 133 349 155 45 15 82 31 82 35 0 8 -150 60 -171 60
-5 0 -9 -13 -9 -29 0 -42 -25 -59 -58 -40 -30 16 -40 52 -22 74 10 12 4 18
-32 34 -84 36 -222 73 -292 78 -119 9 -260 -20 -381 -78 -73 -35 -169 -100
-169 -114 0 -5 15 -19 32 -30 17 -11 31 -25 32 -31 1 -31 -114 -55 -177 -38
-22 6 -20 9 26 55 56 55 76 103 66 156 -9 50 -25 72 -67 94 -58 30 -126 26
-176 -11 -49 -35 -62 -57 -62 -105 0 -47 26 -91 62 -106 44 -18 55 2 18 34
-41 37 -42 87 -1 128 64 64 201 13 161 -60 -9 -18 -19 -22 -53 -19 -40 3 -42
4 -41 36 2 35 -7 40 -30 16 -30 -30 -11 -90 31 -100 44 -11 46 -15 21 -41 -35
-38 -66 -46 -116 -32 -52 14 -63 7 -34 -24 28 -30 28 -33 -5 -62 -36 -31 -44
-31 -78 5 l-29 30 22 23 c12 13 22 26 22 29 0 3 -26 4 -58 1 -55 -5 -61 -4
-97 28 l-38 33 34 14 c65 26 90 72 54 102 -21 17 -38 4 -25 -20 19 -36 -46
-54 -88 -24 -50 35 -3 94 75 94 37 0 50 -5 74 -31 40 -43 39 -83 -3 -126 l-32
-33 27 0 c38 0 73 38 82 88 17 101 -83 180 -193 152z" id="node1" class="node"></path>
</g>
<g transform="translate(0.000000,300.000000) scale(0.100000,-0.100000)" fill="#FFFFFF" stroke="none">

</g>
</svg>