<!--?xml version="1.0" standalone="no"?-->

<svg xmlns="http://www.w3.org/2000/svg" width="213.000000pt" height="300.000000pt" viewBox="0 0 213.000000 300.000000" preserveAspectRatio="xMidYMid meet">
<g transform="translate(0.000000,300.000000) scale(0.100000,-0.100000)" fill="#080708" stroke="none">
<path style="position: relative;" class="node" id="node1" d="M825 2983 c-79 -41 -124 -114 -125 -201 0 -66 11 -94 95 -223 37 -57
97 -150 134 -207 110 -172 121 -185 139 -170 32 26 332 492 343 532 37 136
-57 273 -195 284 -44 3 -57 0 -96 -27 -25 -17 -51 -31 -58 -31 -7 0 -31 14
-54 30 -34 25 -50 30 -97 30 -31 -1 -69 -8 -86 -17z"></path>
<path style="position: relative;" class="node" id="node2" d="M208 2786 c-71 -67 -126 -155 -164 -266 -15 -42 -19 -82 -18 -170 0
-128 20 -204 76 -295 23 -38 28 -53 19 -65 -137 -195 -158 -427 -57 -628 33
-65 97 -153 118 -161 5 -2 -4 24 -21 56 -57 114 -76 258 -51 394 11 59 86 217
110 232 12 7 29 0 64 -23 27 -18 83 -47 125 -64 70 -27 86 -30 196 -30 135 -1
189 12 289 68 60 34 151 105 143 112 -2 2 -30 -9 -63 -25 -160 -81 -363 -82
-518 -4 -60 30 -116 70 -116 83 0 14 126 76 191 93 159 45 321 22 462 -64 26
-16 47 -24 47 -19 0 18 -135 121 -198 151 -171 82 -397 73 -546 -21 -27 -17
-55 -29 -62 -26 -38 15 -101 185 -110 299 -4 48 -1 96 10 146 16 76 64 192 93
223 25 28 10 30 -19 4z"></path>
<path style="position: relative;" class="node" id="node3" d="M1924 2756 c78 -130 105 -302 67 -439 -21 -76 -72 -190 -90 -201 -5
-3 -35 10 -67 29 -85 52 -144 67 -272 72 -101 5 -121 3 -196 -21 -91 -28 -178
-81 -241 -146 l-40 -41 80 40 c44 22 107 47 140 56 76 19 204 19 280 0 67 -18
178 -70 197 -92 17 -20 -13 -44 -117 -94 -158 -77 -331 -76 -495 1 l-85 40 51
-48 c58 -54 171 -114 254 -133 77 -17 215 -15 285 6 65 19 130 49 188 89 l38
26 19 -22 c30 -35 78 -140 95 -204 19 -74 19 -213 0 -286 -7 -30 -26 -82 -42
-114 -15 -32 -29 -63 -31 -69 -1 -5 18 13 43 40 85 92 145 251 145 385 0 120
-43 255 -112 352 -19 27 -19 27 11 75 47 77 73 167 79 273 5 112 -11 187 -63
295 -31 65 -125 185 -145 185 -5 0 6 -24 24 -54z"></path>
<path style="position: relative;" class="node" id="node4" d="M1550 2667 c-55 -43 -63 -98 -23 -166 35 -61 123 -190 133 -196 10
-6 49 43 118 149 42 63 52 87 52 120 0 77 -58 120 -129 96 -28 -9 -43 -9 -59
-1 -27 14 -73 14 -92 -2z"></path>
<path style="position: relative;" class="node" id="node5" d="M338 2650 c-33 -25 -51 -81 -37 -117 13 -34 151 -243 160 -243 10 0
86 106 134 186 19 32 35 71 35 87 0 64 -60 117 -117 102 -33 -8 -53 -8 -108 1
-32 4 -46 1 -67 -16z"></path>
<path style="position: relative;" class="node" id="node6" d="M637 1650 c-109 -34 -203 -118 -257 -227 -75 -151 -61 -307 39 -460
125 -191 171 -265 171 -273 0 -6 4 -10 8 -10 4 0 25 -28 45 -62 21 -35 80
-128 132 -208 52 -80 116 -179 142 -220 26 -41 67 -101 92 -134 l44 -58 19 23
c15 18 475 707 528 789 5 8 30 46 56 85 133 198 154 351 73 523 -59 123 -195
223 -330 242 -97 14 -142 0 -241 -73 -37 -27 -79 -50 -93 -52 -18 -1 -45 13
-91 47 -36 27 -84 58 -107 68 -54 25 -153 25 -230 0z"></path>
</g>
<g transform="translate(0.000000,300.000000) scale(0.100000,-0.100000)" fill="#A5A4A4" stroke="none">


</g>
</svg>