<!--?xml version="1.0" standalone="no"?-->

<svg xmlns="http://www.w3.org/2000/svg" width="273.000000pt" height="300.000000pt" viewBox="0 0 273.000000 300.000000" preserveAspectRatio="xMidYMid meet">
<g transform="translate(0.000000,300.000000) scale(0.100000,-0.100000)" fill="#070707" stroke="none">
<path style="position: relative;" d="M545 2873 c-167 -35 -350 -177 -419 -324 -37 -78 -66 -211 -66 -304
0 -137 54 -321 132 -451 69 -116 238 -297 453 -484 145 -127 319 -301 398
-397 113 -138 144 -197 197 -363 62 -196 99 -339 107 -414 7 -70 15 -59 38 54
37 189 103 405 161 525 34 71 65 115 149 210 144 162 385 406 465 470 83 66
267 257 326 338 53 71 101 163 135 257 20 58 23 83 23 225 0 142 -2 167 -23
225 -95 266 -234 392 -480 435 -149 26 -260 15 -414 -40 -140 -51 -224 -126
-295 -261 -71 -138 -79 -272 -22 -385 24 -46 106 -121 168 -151 56 -27 165
-30 223 -5 48 20 113 79 133 121 18 37 21 131 7 169 -21 55 -106 106 -176 107
l-40 0 53 -36 c109 -73 108 -163 -3 -238 -69 -47 -140 -32 -209 45 l-38 42 4
76 c8 126 62 207 179 265 91 45 161 59 283 54 88 -3 110 -8 169 -35 113 -54
209 -159 236 -261 39 -143 30 -280 -25 -400 -58 -125 -116 -194 -405 -482
-273 -272 -291 -292 -382 -430 -107 -163 -202 -342 -212 -401 -4 -21 -10 -39
-13 -39 -4 0 -17 32 -30 72 -62 198 -251 469 -478 688 -479 460 -548 561 -561
813 -5 94 -3 116 17 175 43 129 118 215 236 269 49 22 76 27 164 31 164 6 280
-28 378 -113 125 -108 134 -252 22 -347 -58 -50 -107 -58 -168 -26 -121 62
-120 187 2 253 47 25 46 35 -4 35 -83 0 -157 -62 -181 -151 -11 -40 -10 -55 5
-101 31 -101 119 -159 252 -166 73 -4 88 -1 135 21 30 14 63 34 74 44 74 65
117 180 117 308 0 73 -4 93 -30 147 -33 71 -120 171 -197 228 -140 104 -372
146 -570 103z" id="node1" class="node"></path>
</g>
<g transform="translate(0.000000,300.000000) scale(0.100000,-0.100000)" fill="#A2A2A2" stroke="none">

</g>
</svg>