<!--?xml version="1.0" standalone="no"?-->

<svg version="1.0" xmlns="http://www.w3.org/2000/svg" width="291.000000pt" height="300.000000pt" viewBox="0 0 291.000000 300.000000" preserveAspectRatio="xMidYMid meet">
<g transform="translate(0.000000,300.000000) scale(0.100000,-0.100000)" fill="#FB454C" stroke="none">
<path class="node" id="node1" d="M416 2967 c-30 -31 -32 -32 -61 -18 -40 19 -108 18 -140 -3 -32 -21
-45 -53 -45 -111 0 -41 -1 -43 -34 -49 -46 -9 -86 -56 -86 -101 0 -27 7 -40
35 -62 26 -21 33 -33 29 -50 -4 -15 2 -30 20 -48 17 -16 26 -37 26 -56 0 -46
47 -89 97 -89 34 0 40 -4 50 -30 9 -24 28 -39 69 -55 1 0 4 -10 8 -22 6 -19 2
-22 -36 -28 -29 -5 -53 -18 -77 -42 -31 -31 -33 -37 -29 -83 6 -62 26 -85 86
-100 38 -9 55 -8 91 5 24 8 47 13 51 10 9 -5 17 -35 71 -259 22 -92 37 -172
32 -176 -4 -4 -38 -10 -76 -12 -52 -3 -72 -9 -89 -26 -19 -19 -20 -24 -8 -46
7 -14 30 -37 52 -51 23 -16 38 -33 38 -46 0 -34 17 -54 59 -73 36 -17 39 -21
35 -50 -4 -27 5 -123 22 -238 5 -30 2 -38 -15 -47 -25 -14 -26 -32 -6 -71 14
-28 14 -33 -10 -80 -29 -57 -32 -85 -9 -98 14 -8 14 -21 0 -145 -9 -75 -16
-190 -16 -256 0 -105 2 -122 18 -130 20 -11 98 -28 192 -42 36 -6 103 -21 150
-34 211 -60 396 -76 473 -41 26 11 69 17 135 19 83 2 104 6 142 27 34 19 46
32 48 53 3 24 -2 29 -43 47 -26 11 -57 20 -71 20 -28 0 -28 -1 35 133 22 48
41 94 41 103 0 9 7 28 15 42 21 38 85 202 85 218 0 7 9 18 20 24 11 6 20 21
20 33 -1 25 -28 109 -59 180 -12 27 -21 52 -21 57 0 5 26 14 58 21 67 14 224
53 267 68 47 15 214 51 276 60 51 7 61 5 105 -21 27 -15 59 -28 70 -28 33 0
119 87 148 150 54 117 62 276 17 342 -50 73 -124 100 -187 68 -36 -19 -40 -19
-81 -4 -99 38 -171 -11 -188 -128 -8 -52 -17 -62 -125 -142 -41 -30 -79 -59
-85 -63 -5 -5 -35 -24 -65 -43 -30 -19 -85 -56 -122 -82 -38 -26 -68 -46 -68
-43 0 3 -12 -2 -27 -12 -17 -10 -23 -11 -15 -3 19 21 15 44 -13 70 -21 20 -25
33 -25 80 0 42 -5 61 -18 73 -28 25 -50 21 -71 -14 l-19 -30 -10 48 c-6 26
-14 64 -17 83 -9 55 -45 220 -61 281 -8 30 -14 60 -14 66 0 7 43 12 118 15
100 4 125 9 175 31 90 42 143 97 167 174 24 79 25 95 4 150 -37 95 -130 106
-439 53 -221 -38 -378 -61 -384 -54 -3 2 9 19 26 37 61 66 78 105 77 187 0 85
-23 142 -77 192 -56 52 -82 60 -173 56 -73 -3 -87 -7 -126 -33 -46 -33 -68
-69 -78 -125 -5 -33 -8 -35 -49 -41 -35 -5 -52 -14 -83 -47 -21 -23 -38 -50
-38 -61 0 -46 -20 -25 -63 67 -25 53 -50 123 -56 155 -10 54 -9 61 18 110 23
43 34 53 64 60 68 16 111 102 75 149 -25 32 -83 58 -127 58 -36 0 -49 -5 -75
-33z m155 -23 c19 -17 23 -42 13 -80 -5 -20 -41 -43 -96 -63 -17 -7 -28 -18
-28 -30 0 -26 -27 -45 -58 -43 -20 1 -32 -7 -47 -31 -13 -21 -30 -33 -48 -35
-15 -2 -32 -13 -38 -25 -7 -12 -21 -29 -32 -38 -20 -16 -20 -16 10 -22 39 -8
62 -31 70 -69 4 -18 15 -33 29 -38 12 -5 28 -19 35 -32 6 -13 24 -35 40 -50
20 -18 29 -37 29 -58 0 -17 7 -42 16 -55 16 -24 15 -25 -4 -25 -23 0 -52 35
-52 62 0 11 -7 18 -18 18 -27 0 -51 22 -55 50 -4 23 -9 25 -61 30 -70 7 -90
26 -83 83 5 33 2 39 -19 47 -25 10 -34 53 -14 65 19 12 10 25 -18 25 -37 0
-52 17 -52 56 0 37 32 68 81 79 25 6 30 11 29 33 -4 57 1 75 29 103 36 35 68
37 130 7 30 -14 46 -18 49 -10 7 23 45 64 66 71 25 10 72 -2 97 -25z m-141
-281 c0 -71 62 -241 111 -303 15 -19 32 -55 39 -79 6 -24 23 -55 37 -69 21
-21 23 -28 14 -48 -8 -19 -8 -24 4 -24 8 0 15 4 15 8 0 27 112 42 164 22 30
-11 33 -4 10 21 -14 16 -14 20 1 42 l16 25 55 -25 c49 -22 67 -25 182 -25 134
1 154 3 432 50 261 45 272 46 313 28 20 -8 46 -30 57 -48 39 -61 7 -173 -67
-239 -61 -54 -233 -100 -345 -92 -75 5 -165 23 -195 38 -15 8 -34 15 -42 15
-18 0 -178 87 -218 119 -39 31 -41 41 -10 41 12 0 29 5 37 10 11 7 4 10 -25
10 -49 0 -85 -9 -85 -21 0 -12 119 -99 172 -125 127 -64 263 -114 307 -114 20
0 33 -34 55 -150 8 -41 29 -140 45 -220 17 -80 31 -147 31 -150 0 -3 -12 -6
-27 -7 -65 -5 -109 -17 -129 -35 -19 -17 -33 -19 -110 -15 -84 4 -154 19 -304
65 -75 23 -230 70 -277 84 -24 6 -35 17 -39 36 -4 15 -10 32 -14 37 -4 6 -10
26 -14 45 -3 19 -15 64 -25 100 -65 225 -102 375 -98 396 5 29 7 29 -50 3 -25
-11 -69 -23 -98 -26 -47 -5 -54 -3 -69 18 -18 27 -21 65 -6 104 18 48 114 69
203 44 45 -12 56 -6 35 18 -16 19 -26 53 -33 113 -3 25 -14 44 -39 65 -20 17
-36 36 -36 43 0 7 -16 22 -35 33 -20 12 -35 29 -35 39 0 10 -12 32 -26 49 -31
38 -25 66 16 75 19 3 35 15 42 31 7 16 19 25 35 25 20 0 23 -5 23 -37z m602 8
c72 -31 138 -111 138 -167 0 -15 -10 -16 -82 -11 -105 8 -299 70 -298 95 1 20
60 75 95 87 55 19 95 18 147 -4z m-208 -136 c40 -17 42 -21 21 -49 -13 -17
-15 -17 -30 -2 -9 9 -21 16 -26 16 -5 0 -9 11 -9 25 0 29 -2 29 44 10z m-40
-66 c14 -11 26 -26 26 -32 -1 -17 -199 -127 -206 -115 -8 13 4 76 22 110 29
56 110 75 158 37z m320 -6 l68 -6 -5 -38 c-10 -75 -90 -161 -163 -175 -37 -7
-101 9 -131 34 -18 14 -21 24 -16 64 5 44 7 47 29 42 12 -3 32 -3 43 1 26 8
53 58 44 81 -5 15 -2 16 28 10 19 -4 65 -10 103 -13z m-216 -5 c-6 -18 -28
-21 -28 -4 0 9 7 16 16 16 9 0 14 -5 12 -12z m-58 -100 l0 -33 -20 25 c-13 18
-15 27 -7 32 21 14 27 8 27 -24z m-95 -37 c8 -25 39 -32 64 -14 25 17 26 11 5
-44 -17 -45 -21 -47 -97 -57 -33 -4 -43 -1 -63 21 -35 37 -30 55 24 84 59 33
59 33 67 10z m1685 -632 c24 -11 53 -27 62 -36 21 -19 23 -11 6 17 -11 17 -10
22 2 30 53 34 151 -20 171 -92 17 -63 6 -172 -25 -241 -28 -64 -98 -158 -124
-168 -21 -8 -80 21 -126 61 -36 32 -57 40 -36 15 7 -9 11 -17 9 -19 -6 -5 -85
-25 -159 -41 -36 -8 -87 -21 -115 -29 -27 -8 -99 -27 -160 -42 -60 -15 -114
-30 -120 -33 -5 -3 -12 -6 -15 -6 -56 -7 -181 -55 -143 -55 7 0 15 5 18 11 15
23 39 1 57 -51 51 -151 56 -169 44 -178 -40 -31 -233 -77 -392 -92 -130 -12
-394 -13 -412 -1 -11 7 -11 23 -1 92 16 104 17 153 4 157 -6 1 -13 -30 -17
-70 -5 -39 -13 -77 -18 -82 -14 -14 -110 -12 -137 2 -13 7 -28 35 -39 72 -11
33 -22 60 -26 60 -18 0 -15 -25 12 -121 17 -57 30 -105 30 -106 0 -10 -159 34
-174 48 -5 5 -2 26 8 52 14 38 20 44 39 39 l22 -5 -22 24 c-12 13 -26 37 -32
52 -14 36 -3 57 15 32 22 -30 25 -13 9 61 -8 38 -17 112 -21 165 -7 101 -1
118 33 100 34 -18 108 -49 153 -64 51 -17 110 -41 155 -62 17 -8 83 -35 148
-60 129 -50 187 -65 187 -46 0 23 21 10 32 -20 8 -25 15 -30 37 -27 21 2 32
15 56 65 25 52 34 62 56 62 15 1 38 10 52 21 29 23 46 24 102 9 l39 -11 -27
-14 c-15 -8 -27 -19 -27 -24 0 -10 80 31 153 77 23 15 54 33 69 40 38 17 238
149 322 212 54 41 71 49 82 40 12 -9 14 -4 14 31 0 92 45 170 99 170 14 0 46
-10 71 -21z m-1824 -132 c1 -1 4 -17 7 -34 6 -29 4 -33 -16 -32 -12 0 -31 4
-42 9 -18 7 -18 8 8 15 33 9 36 25 5 25 -37 0 -68 -11 -68 -24 0 -6 15 -19 33
-29 35 -19 236 -85 357 -118 133 -36 224 -60 272 -72 43 -10 46 -13 52 -47 4
-26 18 -50 46 -76 22 -21 40 -44 40 -50 0 -33 -44 -23 -223 50 -48 20 -93 36
-98 36 -6 0 -51 17 -102 38 -51 21 -149 61 -219 88 -98 38 -128 53 -128 67 0
12 6 17 18 15 31 -5 26 17 -9 34 -57 29 -106 75 -93 88 20 20 149 33 160 17z
m1042 -149 c7 -7 12 -33 12 -59 0 -32 6 -55 21 -73 31 -39 19 -56 -41 -56 -43
0 -50 3 -50 20 0 11 12 26 28 35 l27 16 -32 -4 c-36 -4 -41 4 -18 23 22 18 18
29 -6 23 -20 -5 -20 -4 -9 18 22 41 42 69 49 69 4 0 12 -5 19 -12z m-99 -97
c6 -10 12 -33 13 -51 3 -28 -2 -36 -35 -56 -41 -27 -41 -27 -52 39 -4 27 -13
41 -31 49 -26 12 -32 28 -10 28 8 0 31 -19 50 -42 37 -43 46 -42 21 2 -9 18
-10 29 -3 37 15 19 36 16 47 -6z m-115 -41 c5 -5 -9 -12 -30 -15 -58 -10 -63
-13 -21 -14 41 -1 45 -6 20 -33 -14 -16 -15 -18 0 -18 9 0 19 5 22 10 3 6 10
10 15 10 13 0 -7 -45 -43 -98 -23 -35 -31 -41 -43 -31 -8 6 -14 19 -14 28 0
10 -12 28 -26 42 -31 28 -84 98 -84 111 0 19 48 27 120 22 41 -3 79 -10 84
-14z m-525 -475 l23 6 -3 -88 -4 -88 73 3 c77 2 86 -4 52 -38 -14 -14 -33 -20
-64 -20 -44 0 -45 -1 -97 -76 -50 -72 -54 -75 -88 -72 -48 4 -50 26 -6 71 20
20 34 41 31 45 -3 5 -31 5 -63 1 -68 -10 -95 -4 -91 19 2 11 21 21 53 28 47
11 49 12 25 21 -14 6 -34 12 -45 14 -12 3 -21 14 -23 27 -3 19 1 22 30 22 18
-1 51 -7 73 -15 22 -8 43 -11 47 -7 5 5 1 30 -8 58 -8 27 -19 61 -23 75 l-9
26 47 -9 c25 -5 57 -6 70 -3z m836 -32 c-4 -10 -16 -44 -26 -75 -10 -31 -22
-65 -27 -75 -10 -19 -50 -113 -84 -198 -53 -133 -60 -143 -100 -160 -21 -8
-56 -15 -78 -15 l-39 0 23 53 24 52 43 -3 c36 -3 42 -1 32 9 -21 21 -15 29 25
31 l37 1 -37 4 c-43 5 -45 11 -19 67 10 23 32 70 48 106 90 198 82 185 126
202 56 21 60 21 52 1z m-1035 -39 c30 -8 62 -14 72 -14 11 0 18 -7 18 -20 0
-24 -7 -25 -55 -4 -44 18 -80 12 -95 -16 -9 -17 -6 -24 16 -45 l26 -24 -26
-12 c-56 -26 -18 -79 56 -79 l48 0 -27 -40 c-22 -35 -24 -43 -12 -54 24 -23
79 -37 99 -26 27 15 88 92 101 129 11 30 13 31 70 31 51 0 61 3 75 24 19 30
15 65 -8 79 -12 8 -27 6 -57 -8 -47 -21 -65 -13 -59 26 3 24 4 24 107 21 92
-3 255 7 408 24 l53 6 -12 -33 c-6 -19 -14 -38 -18 -44 -4 -5 -11 -21 -15 -35
-4 -14 -30 -71 -58 -127 l-49 -103 -119 0 c-67 0 -119 -4 -119 -9 0 -12 94
-24 142 -17 42 5 61 -9 26 -19 -13 -4 -41 -15 -63 -25 -22 -10 -47 -20 -55
-23 -11 -4 -9 -6 5 -6 11 -1 61 13 112 31 50 18 94 30 98 26 3 -3 -3 -26 -15
-50 l-21 -45 -137 -13 c-306 -28 -483 -25 -601 12 l-34 11 7 186 c8 221 22
315 45 306 9 -4 41 -13 71 -21z m885 -46 c-10 -29 -43 -106 -73 -170 -52 -110
-57 -118 -84 -118 -15 0 -28 4 -28 9 0 5 19 47 43 93 39 78 53 108 90 200 11
25 23 38 39 40 12 2 25 3 27 2 1 -2 -5 -27 -14 -56z m76 -447 c19 -15 21 -21
11 -34 -15 -18 -91 -40 -120 -35 l-21 3 19 43 c17 38 23 42 53 42 19 0 45 -8
58 -19z m-143 -28 c-13 -32 -43 -69 -34 -43 20 57 27 70 36 70 6 0 5 -10 -2
-27z m-145 -7 c46 -35 0 -66 -112 -74 -86 -6 -90 4 -22 56 46 35 101 43 134
18z m97 5 c0 -21 -13 -41 -26 -41 -8 0 -14 4 -14 9 0 5 -3 16 -6 25 -5 12 0
16 20 16 14 0 26 -4 26 -9z m-285 -36 c-52 -45 -68 -45 -25 0 19 19 41 35 49
35 10 0 0 -14 -24 -35z m-70 -4 l-30 -30 -60 15 c-107 27 -99 31 90 42 l30 2
-30 -29z"></path>
<path class="node" id="node2" d="M331 2159 c-17 -17 -31 -34 -31 -39 0 -14 19 -22 32 -13 7 4 25 6 40
4 16 -1 42 5 60 13 17 9 39 16 50 16 10 0 18 4 18 9 0 20 -46 41 -91 41 -40 0
-53 -5 -78 -31z m89 1 c0 -17 -41 -33 -53 -21 -9 9 -8 14 3 21 20 13 50 13 50
0z"></path>
<path class="node" id="node3" d="M711 2064 c-29 -37 -26 -52 4 -24 14 13 27 22 29 19 2 -2 11 -33 20
-69 18 -71 91 -227 128 -274 59 -75 135 -148 196 -189 80 -53 172 -101 180
-93 7 7 11 4 -74 59 -128 84 -282 243 -333 345 -24 46 -81 198 -81 213 0 5 11
7 25 3 34 -8 33 13 -1 26 -43 17 -71 12 -93 -16z"></path>
<path class="node" id="node4" d="M1370 1999 c0 -5 5 -7 10 -4 6 3 10 8 10 11 0 2 -4 4 -10 4 -5 0 -10
-5 -10 -11z"></path>
<path class="node" id="node5" d="M1430 1990 c0 -13 49 -44 57 -37 3 4 -5 15 -18 26 -27 23 -39 26 -39
11z"></path>
<path class="node" id="node6" d="M1633 1979 c22 -11 46 -18 55 -14 24 9 3 22 -48 29 l-45 6 38 -21z"></path>
<path class="node" id="node7" d="M1520 1982 c0 -12 76 -53 83 -45 11 10 -3 23 -40 38 -41 17 -43 18
-43 7z"></path>
<path class="node" id="node8" d="M2264 1476 c-4 -11 0 -38 9 -62 l15 -42 -48 -21 c-27 -12 -51 -21
-55 -21 -3 0 -25 -9 -48 -19 -24 -11 -55 -23 -70 -26 -15 -4 -44 -16 -65 -27
l-37 -20 35 7 c19 4 46 13 60 21 25 13 115 43 202 68 35 10 49 11 59 2 9 -8
10 -7 4 9 -4 11 -18 49 -31 85 -17 49 -25 60 -30 46z"></path>
<path class="node" id="node9" d="M2090 1384 c-199 -135 -188 -142 23 -17 70 41 127 82 127 89 0 25
-23 14 -150 -72z"></path>
<path class="node" id="node10" d="M1861 1234 c0 -11 3 -14 6 -6 3 7 2 16 -1 19 -3 4 -6 -2 -5 -13z"></path>
<path class="node" id="node11" d="M1863 1203 c-17 -6 -16 -23 1 -23 8 0 16 7 20 15 6 15 1 17 -21 8z"></path>
<path class="node" id="node12" d="M600 1400 c0 -5 4 -10 9 -10 6 0 13 5 16 10 3 6 -1 10 -9 10 -9 0
-16 -4 -16 -10z"></path>
<path class="node" id="node13" d="M790 2798 c0 -14 66 -38 107 -38 21 0 33 4 27 9 -15 13 -134 40 -134
29z"></path>
<path class="node" id="node14" d="M615 2621 c-43 -69 -60 -125 -24 -81 46 57 71 102 61 112 -7 7 -19
-4 -37 -31z"></path>
<path class="node" id="node15" d="M2710 1643 c0 -10 7 -27 15 -37 11 -14 15 -47 15 -115 1 -95 1 -96
16 -61 21 47 20 131 -3 185 -18 45 -43 61 -43 28z"></path>
<path class="node" id="node16" d="M2825 1608 c4 -13 10 -49 12 -80 6 -78 23 -74 23 6 0 74 -6 96 -27
96 -11 0 -13 -6 -8 -22z"></path>
















</g>
<g transform="translate(0.000000,300.000000) scale(0.100000,-0.100000)" fill="#82F8B5" stroke="none">

<path class="node" id="node34" d="M474 2969 c-21 -7 -59 -48 -66 -71 -3 -8 -19 -4 -49 10 -62 30 -94
28 -130 -7 -28 -28 -33 -46 -29 -103 1 -22 -4 -27 -29 -33 -49 -11 -81 -42
-81 -79 0 -39 15 -56 52 -56 28 0 37 -13 18 -25 -20 -12 -11 -55 14 -65 21 -8
24 -14 19 -47 -7 -57 13 -76 83 -83 52 -5 57 -7 61 -30 4 -28 28 -50 55 -50
11 0 18 -7 18 -18 0 -27 29 -62 52 -62 19 0 20 1 4 25 -9 13 -16 38 -16 55 0
21 -9 40 -29 58 -16 15 -34 37 -40 50 -7 13 -23 27 -35 32 -14 5 -25 20 -29
38 -8 38 -31 61 -70 69 -30 6 -30 6 -10 22 11 9 25 26 32 38 6 12 23 23 38 25
18 2 35 14 48 35 15 24 27 32 47 31 31 -2 58 17 58 43 0 12 11 23 28 30 81 29
102 50 102 105 0 40 -72 80 -116 63z"></path>
<path class="node" id="node35" d="M372 2675 c-7 -16 -23 -28 -42 -31 -41 -9 -47 -37 -16 -75 14 -17 26
-39 26 -49 0 -10 15 -27 35 -39 19 -11 35 -26 35 -33 0 -7 16 -26 36 -43 25
-21 36 -40 39 -65 7 -60 17 -94 33 -113 21 -24 10 -30 -35 -18 -89 25 -185 4
-203 -44 -15 -39 -12 -77 6 -104 15 -21 22 -23 69 -18 29 3 73 15 98 26 57 26
55 26 50 -3 -4 -21 33 -171 98 -396 10 -36 22 -81 25 -100 4 -19 10 -39 14
-45 4 -5 10 -22 14 -37 4 -19 15 -30 39 -36 47 -14 202 -61 277 -84 150 -46
220 -61 304 -65 77 -4 91 -2 110 15 20 18 64 30 129 35 15 1 27 4 27 7 0 3
-14 70 -31 150 -16 80 -37 179 -45 220 -22 116 -35 150 -55 150 -44 0 -180 50
-307 114 -53 26 -172 113 -172 125 0 12 36 21 85 21 29 0 36 -3 25 -10 -8 -5
-25 -10 -37 -10 -31 0 -29 -10 10 -41 40 -32 200 -119 218 -119 8 0 27 -7 42
-15 30 -15 120 -33 195 -38 112 -8 284 38 345 92 74 66 106 178 67 239 -11 18
-37 40 -57 48 -41 18 -52 17 -313 -28 -278 -47 -298 -49 -432 -50 -115 0 -133
3 -182 25 l-55 25 -16 -25 c-15 -22 -15 -26 -1 -42 23 -25 20 -32 -10 -21 -52
20 -164 5 -164 -22 0 -4 -7 -8 -15 -8 -12 0 -12 5 -4 24 9 20 7 27 -14 48 -14
14 -31 45 -37 69 -7 24 -24 60 -39 79 -49 62 -111 232 -111 303 0 32 -3 37
-23 37 -16 0 -28 -9 -35 -25z m106 -501 c27 -19 29 -34 4 -34 -11 0 -33 -7
-50 -16 -18 -8 -44 -14 -60 -13 -15 2 -33 0 -40 -4 -13 -9 -32 -1 -32 13 0 5
14 22 31 39 25 26 38 31 78 31 26 0 56 -7 69 -16z m326 -94 c34 -13 35 -34 1
-26 -14 4 -25 2 -25 -3 0 -15 57 -167 81 -213 51 -102 205 -261 333 -345 85
-55 81 -52 74 -59 -8 -8 -100 40 -180 93 -61 41 -137 114 -196 189 -37 47
-110 203 -128 274 -9 36 -18 67 -20 69 -2 3 -15 -6 -29 -19 -30 -28 -33 -13
-4 24 22 28 50 33 93 16z m586 -74 c0 -3 -4 -8 -10 -11 -5 -3 -10 -1 -10 4 0
6 5 11 10 11 6 0 10 -2 10 -4z m79 -27 c13 -11 21 -22 18 -26 -8 -7 -57 24
-57 37 0 15 12 12 39 -11z m225 0 c21 -19 -25 -19 -61 0 l-38 21 45 -6 c25 -4
49 -10 54 -15z m-131 -4 c37 -15 51 -28 40 -38 -7 -8 -83 33 -83 45 0 11 2 10
43 -7z"></path>
<path class="node" id="node36" d="M370 2160 c-11 -7 -12 -12 -3 -21 12 -12 53 4 53 21 0 13 -30 13 -50
0z"></path>
<path class="node" id="node37" d="M885 2675 c-35 -12 -94 -67 -95 -87 -1 -25 193 -87 298 -95 72 -5 82
-4 82 11 0 56 -66 136 -138 167 -52 22 -92 23 -147 4z"></path>
<path class="node" id="node38" d="M780 2525 c0 -14 4 -25 9 -25 5 0 17 -7 26 -16 15 -15 17 -15 30 2
21 28 19 32 -21 49 -46 19 -44 19 -44 -10z"></path>
<path class="node" id="node39" d="M668 2474 c-15 -8 -34 -27 -42 -42 -18 -34 -30 -97 -22 -110 7 -12
205 98 206 115 0 20 -51 53 -84 53 -17 -1 -43 -7 -58 -16z"></path>
<path class="node" id="node40" d="M973 2466 c9 -23 -18 -73 -44 -81 -11 -4 -31 -4 -43 -1 -22 5 -24 2
-29 -42 -5 -40 -2 -50 16 -64 30 -25 94 -41 131 -34 73 14 153 100 163 175 l5
38 -68 6 c-38 3 -84 9 -103 13 -30 6 -33 5 -28 -10z"></path>
<path class="node" id="node41" d="M860 2454 c0 -17 22 -14 28 4 2 7 -3 12 -12 12 -9 0 -16 -7 -16 -16z"></path>
<path class="node" id="node42" d="M803 2382 c-8 -5 -6 -14 7 -32 l20 -25 0 33 c0 32 -6 38 -27 24z"></path>
<path class="node" id="node43" d="M668 2311 c-54 -29 -59 -47 -24 -84 20 -22 30 -25 63 -21 76 10 80
12 97 57 21 55 20 61 -5 44 -25 -18 -56 -11 -64 14 -8 23 -8 23 -67 -10z"></path>
<path class="node" id="node44" d="M2298 1685 c-29 -29 -48 -86 -48 -145 0 -35 -2 -40 -14 -31 -11 9
-28 1 -82 -40 -84 -63 -284 -195 -322 -212 -15 -7 -46 -25 -69 -40 -73 -46
-153 -87 -153 -77 0 5 12 16 27 24 l27 14 -39 11 c-56 15 -73 14 -102 -9 -14
-11 -37 -20 -52 -21 -22 0 -31 -10 -56 -62 -24 -50 -35 -63 -56 -65 -22 -3
-29 2 -37 27 -11 30 -32 43 -32 20 0 -19 -58 -4 -187 46 -65 25 -131 52 -148
60 -45 21 -104 45 -155 62 -45 15 -119 46 -153 64 -34 18 -40 1 -33 -100 4
-53 13 -127 21 -165 16 -74 13 -91 -9 -61 -18 25 -29 4 -15 -32 6 -15 20 -39
32 -52 l22 -24 -22 5 c-19 5 -25 -1 -39 -39 -10 -26 -13 -47 -8 -52 15 -14
174 -58 174 -48 0 1 -13 49 -30 106 -27 96 -30 121 -12 121 4 0 15 -27 26 -60
11 -37 26 -65 39 -72 27 -14 123 -16 137 -2 5 5 13 43 18 82 4 40 11 71 17 70
13 -4 12 -53 -4 -157 -10 -69 -10 -85 1 -92 18 -12 282 -11 412 1 159 15 352
61 392 92 12 9 7 27 -44 178 -18 52 -42 74 -57 51 -3 -6 -11 -11 -18 -11 -38
0 87 48 143 55 3 0 10 3 15 6 6 3 60 18 120 33 61 15 133 34 160 42 28 8 79
21 115 29 74 16 153 36 159 41 2 2 -2 10 -9 19 -21 25 0 17 36 -15 46 -40 105
-69 126 -61 26 10 96 104 124 168 31 69 42 178 25 241 -20 72 -118 126 -171
92 -12 -8 -13 -13 -2 -30 17 -28 15 -36 -6 -17 -26 24 -103 57 -133 57 -15 0
-37 -11 -51 -25z m27 -340 c6 -16 5 -17 -4 -9 -10 9 -24 8 -59 -2 -87 -25
-177 -55 -202 -68 -14 -8 -41 -17 -60 -21 l-35 -7 37 20 c21 11 50 23 65 27
15 3 46 15 70 26 23 10 45 19 48 19 4 0 28 9 55 21 l48 21 -15 42 c-9 24 -13
51 -9 62 5 14 13 3 30 -46 13 -36 27 -74 31 -85z m-85 111 c0 -7 -57 -48 -127
-89 -211 -125 -222 -118 -23 17 127 86 150 97 150 72z m-373 -228 c-3 -8 -6
-5 -6 6 -1 11 2 17 5 13 3 -3 4 -12 1 -19z m17 -33 c-4 -8 -12 -15 -20 -15
-17 0 -18 17 -1 23 22 9 27 7 21 -8z"></path>
<path class="node" id="node45" d="M496 1560 c-71 -12 -78 -25 -36 -61 19 -16 50 -37 69 -47 35 -17 40
-39 9 -34 -12 2 -18 -3 -18 -15 0 -14 30 -29 128 -67 70 -27 168 -67 219 -88
51 -21 96 -38 102 -38 5 0 50 -16 98 -36 179 -73 223 -83 223 -50 0 6 -18 29
-40 50 -28 26 -42 50 -46 76 -6 34 -9 37 -52 47 -48 12 -139 36 -272 72 -121
33 -322 99 -357 118 -18 10 -33 23 -33 29 0 13 31 24 68 24 31 0 28 -16 -5
-25 -26 -7 -26 -8 -8 -15 11 -5 30 -9 42 -9 20 -1 22 3 16 32 -3 17 -6 33 -7
34 -5 8 -60 9 -100 3z m129 -160 c-3 -5 -10 -10 -16 -10 -5 0 -9 5 -9 10 0 6
7 10 16 10 8 0 12 -4 9 -10z"></path>
<path class="node" id="node46" d="M1598 1398 c-8 -13 -21 -34 -28 -47 -11 -22 -11 -23 9 -18 24 6 28
-5 6 -23 -23 -19 -18 -27 18 -23 l32 4 -27 -16 c-16 -9 -28 -24 -28 -35 0 -17
7 -20 50 -20 60 0 72 17 41 56 -15 18 -21 41 -21 73 0 67 -25 90 -52 49z"></path>
<path class="node" id="node47" d="M1492 1317 c-7 -8 -6 -19 3 -37 25 -44 16 -45 -21 -2 -19 23 -42 42
-50 42 -22 0 -16 -16 10 -28 18 -8 27 -22 31 -49 11 -66 11 -66 52 -39 33 20
38 28 35 56 -5 60 -34 88 -60 57z"></path>
<path class="node" id="node48" d="M1243 1280 c-13 -5 -23 -13 -23 -18 0 -13 53 -83 84 -111 14 -14 26
-32 26 -42 0 -9 6 -22 14 -28 12 -10 20 -4 43 31 36 53 56 98 43 98 -5 0 -12
-4 -15 -10 -3 -5 -13 -10 -22 -10 -15 0 -14 2 0 18 25 27 21 32 -20 33 -42 1
-37 4 21 14 21 3 35 10 30 15 -14 13 -156 21 -181 10z"></path>
<path class="node" id="node49" d="M791 781 c4 -14 15 -48 23 -75 9 -28 13 -53 8 -58 -4 -4 -25 -1 -47
7 -22 8 -55 14 -73 15 -29 0 -33 -3 -30 -22 2 -13 11 -24 23 -27 11 -2 31 -8
45 -14 24 -9 22 -10 -25 -21 -32 -7 -51 -17 -53 -28 -4 -23 23 -29 91 -19 32
4 60 4 63 -1 3 -4 -11 -25 -31 -45 -44 -45 -42 -67 6 -71 34 -3 38 0 88 72 52
75 53 76 97 76 31 0 50 6 64 20 34 34 25 40 -52 38 l-73 -3 4 88 3 88 -23 -6
c-13 -3 -45 -2 -70 3 l-47 9 9 -26z"></path>
<path class="node" id="node50" d="M1683 762 c-44 -17 -36 -4 -126 -202 -16 -36 -38 -83 -48 -106 -26
-56 -24 -62 19 -67 l37 -4 -37 -1 c-40 -2 -46 -10 -25 -31 10 -10 4 -12 -32
-9 l-43 3 -24 -52 -23 -53 39 0 c22 0 57 7 78 15 40 17 47 27 100 160 34 85
74 179 84 198 5 10 17 44 27 75 10 31 22 65 26 75 8 20 4 20 -52 -1z"></path>
<path class="node" id="node51" d="M602 688 c-6 -35 -14 -147 -18 -249 l-7 -186 34 -11 c118 -37 295
-40 601 -12 l137 13 21 45 c12 24 18 47 15 50 -4 4 -48 -8 -98 -26 -51 -18
-101 -32 -112 -31 -14 0 -16 2 -5 6 8 3 33 13 55 23 22 10 50 21 63 25 35 10
16 24 -26 19 -48 -7 -142 5 -142 17 0 5 52 9 119 9 l119 0 49 103 c28 56 54
113 58 127 4 14 11 30 15 35 4 6 12 25 18 44 l12 33 -53 -6 c-153 -17 -316
-27 -408 -24 -103 3 -104 3 -107 -21 -6 -39 12 -47 59 -26 30 14 45 16 57 8
23 -14 27 -49 8 -79 -14 -21 -24 -24 -75 -24 -57 0 -59 -1 -70 -31 -13 -37
-74 -114 -101 -129 -20 -11 -75 3 -99 26 -12 11 -10 19 12 54 l27 40 -48 0
c-74 0 -112 53 -56 79 l26 12 -26 24 c-22 21 -25 28 -16 45 15 28 51 34 95 16
48 -21 55 -20 55 4 0 13 -7 20 -18 20 -18 0 -113 23 -143 35 -12 5 -18 -7 -27
-57z"></path>
<path class="node" id="node52" d="M1572 732 c-16 -2 -28 -15 -39 -40 -37 -92 -51 -122 -90 -200 -24
-46 -43 -88 -43 -93 0 -5 13 -9 28 -9 27 0 32 8 84 118 52 110 94 221 87 226
-2 1 -15 0 -27 -2z"></path>
<path class="node" id="node53" d="M1550 208 l-19 -43 21 -3 c29 -5 105 17 120 35 18 22 -23 53 -69 53
-30 0 -36 -4 -53 -42z"></path>
<path class="node" id="node54" d="M1499 203 c-22 -61 -21 -59 -6 -43 20 23 38 70 27 70 -6 0 -15 -12
-21 -27z"></path>
<path class="node" id="node55" d="M1239 178 c-68 -52 -64 -62 22 -56 112 8 158 39 112 74 -33 25 -88
17 -134 -18z"></path>
<path class="node" id="node56" d="M1424 194 c3 -9 6 -20 6 -25 0 -15 27 -10 34 7 11 27 7 34 -20 34
-20 0 -25 -4 -20 -16z"></path>
<path class="node" id="node57" d="M1160 165 c-43 -45 -27 -45 25 0 24 21 34 35 24 35 -8 0 -30 -16 -49
-35z"></path>
<path class="node" id="node58" d="M1010 180 c-80 -6 -78 -11 15 -34 l60 -15 30 30 30 29 -30 -2 c-17
-1 -64 -4 -105 -8z"></path>
</g>
</svg>