<!--?xml version="1.0" standalone="no"?-->

<svg version="1.0" xmlns="http://www.w3.org/2000/svg" width="300.000000pt" height="300.000000pt" viewBox="0 0 300.000000 300.000000" preserveAspectRatio="xMidYMid meet">
<g transform="translate(0.000000,300.000000) scale(0.100000,-0.100000)" fill="#1E1C1A" stroke="none">
<path class="node" id="node1" d="M753 2296 c-71 -27 -133 -72 -163 -121 -24 -39 -24 -39 -48 -25 -18
10 -133 43 -191 55 l-34 7 7 -53 c5 -47 30 -149 51 -216 6 -20 3 -22 -51 -29
-56 -7 -158 -2 -259 12 l-49 7 31 -39 c42 -53 178 -185 234 -228 26 -19 77
-52 115 -72 38 -21 71 -39 73 -40 2 -2 -18 -24 -43 -50 l-47 -47 23 -24 c13
-14 31 -29 41 -34 16 -9 16 -8 0 25 -16 35 -16 35 17 73 18 21 38 41 44 44 6
3 39 -2 73 -10 l63 -16 -75 -77 c-41 -42 -75 -79 -75 -81 0 -3 18 -20 40 -37
30 -24 38 -27 33 -13 -3 10 -12 25 -19 33 -10 13 -1 28 57 96 68 80 71 82 139
99 91 22 172 71 240 144 63 68 129 183 145 256 9 39 18 53 40 65 16 8 37 22
48 31 17 16 16 18 -31 47 -32 20 -52 39 -56 57 -11 41 -54 101 -94 129 -87 59
-177 70 -279 32z"></path>
<path class="node" id="node2" d="M2067 2306 c-86 -32 -165 -111 -183 -183 -3 -12 -26 -34 -50 -48 -24
-14 -44 -27 -44 -30 0 -2 20 -16 43 -31 40 -25 46 -35 71 -109 32 -100 84
-183 157 -250 79 -74 137 -104 250 -129 19 -4 39 -27 78 -90 28 -46 51 -88 51
-93 0 -6 -9 -18 -20 -28 -35 -31 -22 -37 23 -10 23 14 41 29 40 34 -1 5 -28
46 -58 91 -31 45 -55 83 -53 85 4 3 106 25 118 25 11 0 70 -103 70 -122 0 -8
-9 -23 -20 -33 -11 -10 -18 -20 -16 -23 4 -3 62 27 85 44 2 2 -14 29 -35 61
-58 85 -57 83 -37 90 38 13 160 88 208 127 57 46 186 177 218 220 l21 29 -40
-7 c-73 -12 -220 -19 -267 -12 l-46 7 43 82 c54 102 75 175 55 188 -17 11
-127 3 -224 -17 l-70 -14 -37 43 c-75 88 -236 139 -331 103z"></path>
<path class="node" id="node3" d="M1634 1491 c-67 -41 -80 -131 -32 -231 24 -52 176 -205 231 -234 l35
-18 59 45 c139 107 223 227 223 320 0 84 -65 144 -147 134 -47 -5 -108 -45
-118 -77 -9 -28 -20 -25 -57 16 -18 20 -45 42 -60 50 -38 20 -97 17 -134 -5z
m127 -73 l2 -23 4 23 c2 12 7 22 9 22 15 0 52 -26 70 -49 l22 -26 20 25 c33
40 33 19 1 -33 -16 -26 -25 -47 -21 -47 5 0 14 10 21 23 47 90 57 102 85 105
62 7 114 -36 101 -85 -4 -16 -2 -22 5 -18 25 16 0 -75 -32 -114 -13 -16 -32
-40 -42 -55 -10 -14 -25 -26 -32 -26 -8 0 -14 -4 -14 -10 0 -16 -81 -70 -94
-63 -6 4 -17 8 -24 9 -17 3 -122 93 -122 104 0 5 -11 20 -25 34 -36 36 -32 54
13 59 34 3 33 4 -10 5 l-48 2 0 49 c0 40 5 54 29 80 36 38 80 43 82 9z"></path>
<path class="node" id="node4" d="M1832 1336 c-2 -31 -5 -37 -18 -32 -13 5 -15 1 -9 -21 7 -28 23 -45
36 -37 10 6 17 54 8 54 -4 0 -10 17 -12 38 l-4 37 -1 -39z"></path>
<path class="node" id="node5" d="M1774 1234 c-18 -14 -18 -15 4 -4 12 6 22 13 22 15 0 8 -5 6 -26 -11z"></path>
<path class="node" id="node6" d="M1832 1170 c0 -19 2 -27 5 -17 2 9 2 25 0 35 -3 9 -5 1 -5 -18z"></path>
<path class="node" id="node7" d="M1841 1104 c0 -11 3 -14 6 -6 3 7 2 16 -1 19 -3 4 -6 -2 -5 -13z"></path>
<path class="node" id="node8" d="M983 1175 c-53 -23 -75 -68 -70 -142 7 -99 84 -205 219 -303 l66 -49
54 40 c81 60 173 155 204 213 22 40 29 64 29 111 0 73 -21 107 -83 131 -58 23
-113 7 -164 -48 -40 -43 -47 -43 -87 5 -45 53 -108 69 -168 42z m115 -77 l11
-23 0 23 c1 20 3 21 24 11 12 -7 33 -25 47 -42 l26 -30 18 28 c10 14 20 25 22
22 12 -12 -51 -117 -70 -117 -3 0 -7 15 -8 33 l-1 32 -4 -32 c-3 -20 -10 -33
-19 -33 -17 0 -19 -17 -1 -23 8 -3 6 -10 -8 -21 -20 -17 -20 -17 3 -6 21 10
22 9 24 -37 1 -47 1 -47 5 -8 3 22 9 44 14 49 5 6 9 17 9 27 0 9 14 33 30 54
17 21 30 42 30 47 0 6 10 23 21 40 20 27 26 30 62 25 50 -7 76 -32 88 -86 8
-34 6 -50 -12 -91 -12 -28 -28 -50 -35 -50 -8 0 -13 -3 -13 -7 4 -23 -7 -36
-70 -87 -67 -55 -91 -67 -91 -45 0 5 -5 7 -11 4 -18 -12 -139 95 -132 117 2 5
-3 8 -11 8 -17 0 -55 74 -63 122 -3 24 0 39 11 51 9 8 16 20 16 26 0 11 47 40
66 41 6 0 16 -10 22 -22z"></path>
<path class="node" id="node9" d="M1111 1054 c0 -11 3 -14 6 -6 3 7 2 16 -1 19 -3 4 -6 -2 -5 -13z"></path>
</g>
<g transform="translate(0.000000,300.000000) scale(0.100000,-0.100000)" fill="#A1A1A1" stroke="none">

<path class="node" id="node11" d="M1679 1409 c-24 -26 -29 -40 -29 -80 l0 -49 48 -2 c43 -1 44 -2 10
-5 -45 -5 -49 -23 -13 -59 14 -14 25 -29 25 -34 0 -11 105 -101 122 -104 7 -1
18 -5 24 -9 13 -7 94 47 94 63 0 6 6 10 14 10 7 0 22 12 32 26 10 15 29 39 42
55 32 39 57 130 32 114 -7 -4 -9 2 -5 18 13 49 -39 92 -101 85 -28 -3 -38 -15
-85 -105 -7 -13 -16 -23 -21 -23 -4 0 5 21 21 47 32 52 32 73 -1 33 l-20 -25
-22 26 c-18 23 -55 49 -70 49 -2 0 -7 -10 -9 -22 l-4 -23 -2 23 c-2 34 -46 29
-82 -9z m170 -109 c9 0 2 -48 -8 -54 -13 -8 -29 9 -36 37 -6 22 -4 26 9 21 13
-5 16 1 18 32 l1 39 4 -37 c2 -21 8 -38 12 -38z m-49 -55 c0 -2 -10 -9 -22
-15 -22 -11 -22 -10 -4 4 21 17 26 19 26 11z m37 -92 c-3 -10 -5 -2 -5 17 0
19 2 27 5 18 2 -10 2 -26 0 -35z m10 -55 c-3 -8 -6 -5 -6 6 -1 11 2 17 5 13 3
-3 4 -12 1 -19z"></path>
<path class="node" id="node12" d="M1038 1104 c-16 -8 -28 -19 -28 -25 0 -6 -7 -18 -16 -26 -11 -12 -14
-27 -11 -51 8 -48 46 -122 63 -122 8 0 13 -3 11 -8 -7 -22 114 -129 132 -117
6 3 11 1 11 -4 0 -22 24 -10 91 45 63 51 74 64 70 87 0 4 5 7 13 7 7 0 23 22
35 50 38 87 4 166 -76 177 -36 5 -42 2 -62 -25 -11 -17 -21 -34 -21 -40 0 -5
-13 -26 -30 -47 -16 -21 -30 -45 -30 -54 0 -10 -4 -21 -9 -27 -5 -5 -11 -27
-14 -49 -4 -39 -4 -39 -5 8 -2 46 -3 47 -24 37 -23 -11 -23 -11 -3 6 14 11 16
18 8 21 -18 6 -16 23 1 23 9 0 16 13 19 33 l4 32 1 -32 c1 -18 5 -33 8 -33 19
0 82 105 70 117 -2 3 -12 -8 -22 -22 l-18 -28 -26 30 c-14 17 -35 35 -47 42
-21 10 -23 9 -24 -11 l0 -23 -11 23 c-13 26 -23 27 -60 6z m79 -56 c-3 -8 -6
-5 -6 6 -1 11 2 17 5 13 3 -3 4 -12 1 -19z"></path>
</g>
</svg>