<!--?xml version="1.0" standalone="no"?-->

<svg version="1.0" xmlns="http://www.w3.org/2000/svg" width="300.000000pt" height="281.000000pt" viewBox="0 0 300.000000 281.000000" preserveAspectRatio="xMidYMid meet">
<g transform="translate(0.000000,281.000000) scale(0.100000,-0.100000)" fill="#1E4318" stroke="none">
<path class="node" id="node1" d="M2278 2420 c-20 -11 -43 -29 -51 -40 l-14 -20 -18 20 c-23 26 -89 43
-131 36 -30 -6 -83 -54 -97 -88 -5 -10 -8 -10 -19 3 -32 38 -103 54 -151 34
-40 -16 -63 -42 -78 -82 -10 -31 -11 -31 -65 -26 -42 5 -63 2 -88 -12 -33 -18
-34 -18 -71 5 -36 22 -90 29 -131 16 -17 -5 -24 1 -39 35 -33 72 -117 109
-178 78 -12 -6 -34 -22 -48 -36 l-26 -24 -13 31 c-7 17 -26 42 -42 55 -50 42
-142 31 -192 -24 l-19 -20 -28 20 c-35 24 -85 34 -133 25 -48 -9 -88 -61 -94
-124 l-4 -47 -47 0 c-30 0 -55 -7 -73 -20 -33 -24 -68 -90 -68 -128 0 -18 -4
-25 -14 -21 -22 8 -89 -14 -118 -40 -14 -13 -32 -42 -39 -65 -11 -37 -10 -45
14 -90 25 -49 25 -50 6 -72 -34 -39 -43 -95 -24 -151 15 -47 15 -51 -2 -64
-10 -7 -21 -14 -25 -14 -9 0 -44 -62 -52 -94 -9 -35 23 -103 61 -130 14 -11
48 -21 74 -24 46 -4 47 -5 38 -29 -26 -70 5 -149 73 -181 23 -10 36 -22 33
-30 -17 -48 -16 -91 4 -130 27 -52 56 -72 106 -72 l40 0 0 -59 c0 -70 25 -105
87 -121 21 -6 38 -13 38 -16 0 -5 -12 -26 -47 -81 -46 -73 -133 -352 -133
-425 0 -22 237 3 350 37 110 33 170 66 245 136 55 52 66 58 70 43 19 -62 74
-114 120 -114 13 0 25 -7 28 -14 11 -28 67 -49 120 -43 38 3 56 11 80 35 l30
31 33 -26 c65 -49 151 -40 198 20 17 21 34 30 61 33 21 2 48 10 62 19 21 14
57 63 66 90 2 5 23 -9 46 -31 96 -95 266 -152 504 -170 90 -7 86 -13 61 106
-19 92 -51 194 -76 240 -10 19 -18 40 -18 45 0 6 -14 33 -31 59 -16 27 -29 49
-27 50 2 2 21 9 42 17 53 19 78 56 84 124 l4 55 45 0 c38 0 50 5 80 35 35 35
35 36 31 109 l-3 73 39 19 c22 11 49 35 60 53 24 41 25 115 1 141 -15 17 -15
18 20 18 89 0 158 101 126 184 -10 25 -48 68 -75 83 -16 9 -16 12 -2 40 18 35
21 107 5 137 -6 12 -23 32 -36 44 l-25 23 22 31 c31 44 36 97 12 140 -23 42
-84 80 -129 80 -29 0 -33 3 -33 25 0 72 -79 151 -144 143 -31 -3 -35 -1 -45
32 -30 96 -118 135 -203 90z m134 -43 c14 -13 28 -39 32 -59 6 -31 3 -40 -22
-65 -16 -15 -31 -35 -34 -43 -4 -12 -9 -12 -39 2 -66 32 -124 42 -237 43
l-112 0 0 28 c0 58 36 96 90 97 54 0 73 -9 100 -44 l25 -33 45 48 c40 43 51
49 87 49 28 0 47 -7 65 -23z m-1415 -2 c22 -15 48 -85 41 -107 -3 -7 -39 -10
-99 -9 -98 2 -199 -18 -267 -53 -17 -9 -38 -16 -46 -16 -35 0 -48 87 -21 139
32 63 107 62 173 -2 32 -31 34 -31 44 -12 7 11 25 32 41 48 34 31 98 37 134
12z m269 -59 c26 -26 34 -42 34 -69 0 -46 11 -52 52 -27 48 29 91 26 130 -9
29 -26 33 -35 32 -80 0 -42 -6 -57 -29 -81 -16 -17 -34 -30 -40 -30 -6 0 -32
20 -57 44 -76 72 -235 166 -282 166 -29 0 -18 50 18 86 26 26 42 34 71 34 29
0 45 -8 71 -34z m649 -7 c40 -35 44 -71 10 -77 -69 -13 -193 -89 -276 -169
l-56 -55 -28 24 c-26 23 -27 26 -16 61 7 19 9 51 6 69 -6 30 -3 36 20 46 35
16 78 15 120 -2 39 -17 40 -15 50 37 9 47 63 97 105 97 19 0 42 -11 65 -31z
m658 -58 c35 -14 61 -74 53 -128 l-6 -44 44 6 c115 18 183 -68 124 -155 -22
-32 -36 -39 -105 -53 -30 -6 -32 -4 -46 37 -8 23 -26 60 -40 82 -34 54 -119
146 -151 163 -35 19 -33 33 9 70 37 32 73 39 118 22z m-1482 -50 c153 -48 284
-148 371 -282 28 -43 54 -79 57 -79 3 0 21 28 40 61 86 148 234 259 414 308
97 26 192 27 284 1 224 -62 363 -235 402 -502 32 -220 -22 -373 -213 -603
-126 -152 -400 -398 -621 -557 -147 -105 -308 -207 -318 -201 -7 4 -66 42
-131 86 -420 280 -753 586 -906 832 -77 123 -116 260 -107 375 14 179 75 328
177 431 69 70 136 110 235 140 80 24 224 19 316 -10z m-530 -20 l24 -20 -63
-62 c-67 -66 -119 -149 -148 -239 -10 -30 -20 -57 -21 -58 -6 -11 -93 41 -111
66 -33 46 -29 87 13 129 34 34 38 36 94 30 l57 -5 -3 52 c-4 46 -1 55 27 89
26 31 38 37 70 37 22 0 47 -8 61 -19z m991 -233 c-29 -51 -37 -51 -66 -8 l-27
40 28 25 28 24 27 -26 c27 -26 27 -27 10 -55z m1250 -126 c43 -39 45 -104 5
-152 -30 -35 -34 -50 -13 -50 59 0 129 -96 105 -143 -32 -61 -83 -86 -152 -73
-61 11 -66 21 -53 105 11 72 1 238 -19 300 -15 50 75 59 127 13z m-2479 -49
c25 -5 28 -9 22 -32 -4 -14 -9 -67 -12 -118 -5 -87 -3 -102 33 -224 3 -12 -9
-20 -51 -34 -63 -19 -91 -15 -133 20 -38 32 -46 65 -27 113 13 31 26 44 65 62
l48 23 -29 40 c-36 49 -39 102 -8 141 16 21 27 26 43 21 11 -4 34 -9 49 -12z
m2407 -422 c16 -16 32 -40 35 -54 14 -55 -48 -127 -108 -127 -36 0 -42 -16
-18 -46 14 -18 21 -41 21 -71 0 -81 -81 -129 -153 -92 -27 14 -67 58 -67 73 0
6 25 42 56 81 67 84 140 200 149 238 10 37 47 36 85 -2z m-2324 -43 c27 -54
93 -148 161 -229 34 -43 63 -81 63 -86 0 -5 -21 -26 -46 -47 -41 -35 -50 -38
-87 -33 -75 10 -106 82 -68 160 27 56 27 57 -10 57 -68 0 -127 69 -114 130 6
26 58 80 77 80 4 0 15 -15 24 -32z m2045 -357 c34 -33 39 -45 39 -84 0 -69
-24 -92 -97 -91 -32 0 -68 4 -80 8 -21 8 -23 6 -23 -31 0 -56 -35 -105 -83
-117 -36 -9 -40 -8 -79 31 l-41 41 39 34 c75 64 229 205 248 227 26 29 32 27
77 -18z m-1676 -89 c51 -49 118 -109 149 -133 31 -24 56 -51 56 -59 0 -28 -55
-71 -97 -77 -34 -4 -45 -1 -73 24 -27 24 -33 38 -38 82 -4 43 -7 51 -21 45
-27 -11 -99 -17 -126 -10 -37 9 -67 62 -58 106 10 59 57 108 102 110 7 0 55
-40 106 -88z m1314 -206 c30 -31 45 -99 30 -129 -20 -39 -51 -57 -100 -57 -25
0 -54 7 -65 15 -29 22 -44 18 -44 -10 0 -101 -106 -161 -172 -98 -35 34 -35
48 0 70 51 33 290 212 297 222 10 18 30 13 54 -13z m-1001 -58 c68 -54 138
-104 225 -163 37 -25 67 -49 67 -53 0 -11 -39 -47 -67 -61 -35 -18 -50 -13
-93 27 -29 28 -40 47 -40 68 0 50 -12 58 -51 35 -40 -25 -79 -27 -119 -6 -63
33 -68 113 -12 178 21 24 28 22 90 -25z m592 -207 c0 -6 14 -23 31 -39 l30
-28 -27 -27 c-41 -41 -122 -32 -156 17 -6 9 32 46 49 46 4 0 19 9 33 20 28 22
40 25 40 11z m-203 -61 l22 -17 -29 -28 c-32 -31 -96 -39 -124 -16 -14 12 -12
17 27 52 45 40 62 42 104 9z"></path>
</g>
<g transform="translate(0.000000,281.000000) scale(0.100000,-0.100000)" fill="#FC0102" stroke="none">
<path class="node" id="node2" d="M775 2211 c-99 -30 -166 -70 -235 -140 -102 -103 -163 -252 -177
-431 -9 -115 30 -252 107 -375 153 -246 486 -552 906 -832 65 -44 124 -82 131
-86 10 -6 171 96 318 201 138 99 352 279 456 382 182 180 264 286 329 421 57
119 70 213 49 357 -39 267 -178 440 -402 502 -157 44 -328 11 -497 -95 -63
-39 -160 -143 -201 -214 -19 -33 -37 -61 -40 -61 -3 0 -29 36 -57 79 -87 134
-218 234 -371 282 -92 29 -236 34 -316 10z"></path>
</g>
<g transform="translate(0.000000,281.000000) scale(0.100000,-0.100000)" fill="#FFFFFF" stroke="none">

<path class="node" id="node4" d="M2260 2351 l-45 -48 -25 33 c-27 35 -46 44 -100 44 -54 -1 -90 -39
-90 -97 l0 -28 112 0 c113 -1 171 -11 237 -43 30 -14 35 -14 39 -2 3 8 18 28
34 43 25 25 28 34 22 65 -10 50 -47 82 -97 82 -36 0 -47 -6 -87 -49z"></path>
<path class="node" id="node5" d="M863 2363 c-16 -16 -34 -37 -41 -48 -10 -19 -12 -19 -44 12 -66 64
-141 65 -173 2 -27 -52 -14 -139 21 -139 8 0 29 7 46 16 68 35 169 55 267 53
60 -1 96 2 99 9 7 22 -19 92 -41 107 -36 25 -100 19 -134 -12z"></path>
<path class="node" id="node6" d="M1124 2316 c-36 -36 -47 -86 -18 -86 47 0 206 -94 282 -166 25 -24
51 -44 57 -44 6 0 24 13 40 30 23 24 29 39 29 81 1 45 -3 54 -32 80 -39 35
-82 38 -130 9 -41 -25 -52 -19 -52 27 0 50 -53 103 -105 103 -29 0 -45 -8 -71
-34z"></path>
<path class="node" id="node7" d="M1786 2310 c-22 -20 -36 -43 -41 -67 -10 -52 -11 -54 -50 -37 -42 17
-85 18 -120 2 -23 -10 -26 -16 -20 -46 3 -18 1 -50 -6 -69 -11 -35 -10 -38 16
-61 l28 -24 56 55 c83 80 207 156 276 169 34 6 30 42 -10 77 -46 40 -83 41
-129 1z"></path>
<path class="node" id="node8" d="M2455 2229 c-42 -37 -44 -51 -9 -70 32 -17 117 -109 151 -163 14 -22
32 -59 40 -82 14 -41 16 -43 46 -37 69 14 83 21 105 53 59 87 -9 173 -124 155
l-44 -6 6 44 c16 115 -87 179 -171 106z"></path>
<path class="node" id="node9" d="M430 2163 c-28 -34 -31 -43 -27 -89 l3 -52 -57 5 c-56 6 -60 4 -94
-30 -42 -42 -46 -83 -13 -129 18 -25 105 -77 111 -66 1 1 11 28 21 58 29 90
81 173 148 239 l63 62 -24 20 c-14 11 -39 19 -61 19 -32 0 -44 -6 -70 -37z"></path>
<path class="node" id="node10" d="M1487 2005 l-28 -25 27 -40 c29 -43 37 -43 66 8 17 28 17 29 -10 55
l-27 26 -28 -24z"></path>
<path class="node" id="node11" d="M2681 1841 c-9 -6 -11 -16 -6 -32 20 -62 30 -228 19 -300 -13 -84 -8
-94 53 -105 69 -13 120 12 152 73 24 47 -46 143 -105 143 -21 0 -17 15 13 50
40 48 38 113 -5 152 -33 29 -91 38 -121 19z"></path>
<path class="node" id="node12" d="M231 1764 c-31 -39 -28 -92 8 -141 l29 -40 -48 -23 c-39 -18 -52 -31
-65 -62 -19 -48 -11 -81 27 -113 42 -35 70 -39 133 -20 42 14 54 22 51 34 -36
122 -38 137 -33 224 3 51 8 104 12 118 6 23 3 27 -22 32 -15 3 -38 8 -49 12
-16 5 -27 0 -43 -21z"></path>
<path class="node" id="node13" d="M2645 1353 c-9 -38 -82 -154 -149 -238 -31 -39 -56 -75 -56 -81 0
-15 40 -59 67 -73 72 -37 153 11 153 92 0 30 -7 53 -21 71 -24 30 -18 46 18
46 60 0 122 72 108 127 -9 36 -59 83 -88 83 -19 0 -26 -7 -32 -27z"></path>
<path class="node" id="node14" d="M343 1315 c-17 -14 -34 -38 -38 -55 -13 -61 46 -130 114 -130 37 0
37 -1 10 -57 -38 -78 -7 -150 68 -160 37 -5 46 -2 87 33 25 21 46 42 46 47 0
5 -29 43 -63 86 -68 81 -134 175 -161 229 -9 17 -20 32 -24 32 -4 0 -21 -11
-39 -25z"></path>
<path class="node" id="node15" d="M2374 969 c-19 -22 -173 -163 -248 -227 l-39 -34 41 -41 c39 -39 43
-40 79 -31 48 12 83 61 83 117 0 37 2 39 23 31 12 -4 48 -8 80 -8 73 -1 97 22
97 91 0 39 -5 51 -39 84 -45 45 -51 47 -77 18z"></path>
<path class="node" id="node16" d="M629 935 c-33 -18 -54 -50 -62 -95 -9 -44 21 -97 58 -106 27 -7 99
-1 126 10 14 6 17 -2 21 -45 5 -44 11 -58 38 -82 28 -25 39 -28 73 -24 42 6
97 49 97 77 0 8 -25 35 -56 59 -31 24 -98 84 -149 133 -51 48 -99 88 -106 88
-8 -1 -26 -7 -40 -15z"></path>
<path class="node" id="node17" d="M2035 669 c-7 -10 -246 -189 -297 -222 -35 -22 -35 -36 0 -70 66 -63
172 -3 172 98 0 28 15 32 44 10 27 -21 106 -19 132 3 36 28 45 57 35 103 -14
62 -67 110 -86 78z"></path>
<path class="node" id="node18" d="M998 623 c-26 -30 -38 -60 -38 -93 0 -42 15 -67 50 -85 40 -21 79
-19 119 6 39 23 51 15 51 -35 0 -21 11 -40 40 -68 43 -40 58 -45 93 -27 28 14
67 50 67 61 0 4 -30 28 -67 53 -87 59 -157 109 -225 163 -62 47 -69 49 -90 25z"></path>
<path class="node" id="node19" d="M1640 380 c-14 -11 -29 -20 -33 -20 -17 0 -55 -37 -49 -46 34 -49
115 -58 156 -17 l27 27 -30 28 c-17 16 -31 33 -31 39 0 14 -12 11 -40 -11z"></path>
<path class="node" id="node20" d="M1373 321 c-39 -35 -41 -40 -27 -52 28 -23 92 -15 124 16 l29 28 -22
17 c-42 33 -59 31 -104 -9z"></path>
</g>
</svg>