<!--?xml version="1.0" standalone="no"?-->

<svg xmlns="http://www.w3.org/2000/svg" width="300.000000pt" height="266.000000pt" viewBox="0 0 300.000000 266.000000" preserveAspectRatio="xMidYMid meet">
<g transform="translate(0.000000,266.000000) scale(0.100000,-0.100000)" fill="#030303" stroke="none">
<path style="position: relative;" class="node" id="node1" d="M650 2653 c-143 -24 -302 -116 -411 -238 -225 -252 -299 -664 -183
-1025 35 -110 32 -108 98 -66 31 20 61 36 67 36 6 0 31 -16 56 -35 25 -19 49
-35 53 -35 4 0 28 18 54 41 l46 41 66 -50 65 -51 59 45 c66 52 68 51 147 -12
23 -19 45 -34 48 -34 4 0 22 12 40 28 61 51 75 62 84 62 5 0 11 7 15 15 5 15
36 21 36 7 0 -4 18 -31 40 -61 22 -29 40 -59 40 -67 0 -7 6 -17 13 -21 7 -4
35 -39 62 -77 l50 -70 16 70 c23 97 69 276 76 294 3 8 7 22 8 30 5 43 170 687
178 698 6 8 26 12 51 10 l41 -3 12 -65 c6 -36 30 -164 53 -285 23 -121 54
-292 70 -380 16 -88 37 -196 45 -240 9 -44 18 -89 20 -100 27 -160 51 -275 57
-275 4 0 10 10 13 22 2 13 33 140 69 283 35 143 69 287 76 320 16 82 32 105
74 105 41 0 57 -17 91 -100 14 -36 37 -89 51 -118 24 -53 25 -54 47 -38 79 57
63 58 142 -8 l46 -39 57 56 57 57 58 -57 57 -58 48 48 c26 26 51 47 55 47 5 0
36 -19 69 -41 58 -40 62 -41 75 -23 17 24 58 152 72 228 51 277 -4 588 -141
791 -106 157 -238 261 -398 315 -101 34 -270 39 -380 11 -168 -42 -316 -130
-467 -276 l-93 -90 -93 90 c-206 200 -417 297 -636 294 -53 -1 -107 -4 -121
-6z m279 -122 c8 -5 11 -16 6 -30 -5 -17 -14 -21 -53 -21 -121 0 -276 -44
-387 -109 -79 -46 -194 -163 -244 -249 -50 -86 -89 -203 -101 -302 -9 -73 -9
-73 -5 30 4 112 29 209 81 312 91 180 269 325 444 362 73 16 238 20 259 7z
m1388 -2 c43 -6 109 -21 146 -34 65 -22 177 -83 177 -95 0 -3 -30 8 -67 26
-231 111 -546 73 -802 -96 -47 -32 -97 -69 -110 -84 -32 -35 -53 -34 -49 2 2
21 23 42 90 93 145 109 285 169 438 188 93 12 91 12 177 0z m-1234 -40 c33
-17 114 -67 136 -85 7 -6 -21 -34 -35 -34 -7 0 -35 13 -60 30 -26 16 -63 33
-81 36 -27 5 -33 10 -27 23 3 9 9 24 11 34 7 21 5 21 56 -4z"></path>
<path style="position: relative;" class="node" id="node2" d="M1492 1685 c-6 -22 -27 -105 -47 -184 -20 -80 -43 -167 -51 -195 -33
-111 -37 -127 -37 -144 0 -17 -63 -271 -69 -277 -2 -2 -28 -6 -58 -10 l-55 -6
-75 122 c-41 68 -82 139 -91 158 -23 51 -45 68 -70 53 -10 -7 -25 -12 -33 -12
-8 0 -19 -6 -23 -13 -4 -8 -20 -22 -34 -31 -26 -16 -29 -16 -65 5 -22 12 -50
30 -63 40 -13 11 -29 19 -35 19 -6 0 -34 -20 -63 -45 -28 -25 -54 -45 -57 -45
-4 0 -32 20 -64 45 -31 25 -61 45 -65 45 -5 0 -30 -19 -57 -41 l-49 -41 -52
41 c-59 47 -64 48 -101 23 l-27 -18 21 -34 c71 -118 183 -240 341 -371 121
-102 165 -134 439 -326 210 -146 374 -274 471 -367 l78 -74 77 75 c94 91 256
217 470 366 88 62 196 138 241 170 111 79 304 242 372 313 55 58 179 220 179
232 0 4 -15 17 -32 29 l-32 23 -26 -22 c-14 -13 -41 -37 -60 -55 l-36 -33 -54
55 -54 55 -51 -56 -50 -56 -64 51 -63 52 -57 -48 c-31 -26 -62 -55 -69 -63
-15 -19 -23 -7 -67 97 -35 83 -41 91 -48 66 -7 -24 -84 -340 -137 -564 -42
-177 -42 -177 -72 -183 -47 -9 -106 -7 -113 4 -3 5 -22 88 -40 182 -19 95 -48
238 -65 318 -16 80 -30 161 -30 181 0 19 -4 39 -9 45 -7 8 -37 143 -46 208 -1
12 -5 28 -8 36 -3 8 -13 58 -23 110 -24 134 -29 145 -42 95z"></path>
</g>
<g transform="translate(0.000000,266.000000) scale(0.100000,-0.100000)" fill="#FFFFFF" stroke="none">



<path style="position: relative;" class="node" id="node6" d="M670 2524 c-175 -37 -353 -182 -444 -362 -52 -103 -77 -200 -81 -312
-4 -103 -4 -103 5 -30 12 99 51 216 101 302 50 86 165 203 244 249 111 65 266
109 387 109 39 0 48 4 53 21 5 14 2 25 -6 30 -21 13 -186 9 -259 -7z"></path>
<path style="position: relative;" class="node" id="node7" d="M2140 2529 c-153 -19 -293 -79 -438 -188 -67 -51 -88 -72 -90 -93 -4
-36 17 -37 49 -2 13 15 63 52 110 84 256 169 571 207 802 96 37 -18 67 -29 67
-26 0 12 -112 73 -177 95 -62 22 -201 47 -241 44 -9 -1 -46 -5 -82 -10z"></path>
<path style="position: relative;" class="node" id="node8" d="M1027 2493 c-2 -10 -8 -25 -11 -34 -6 -13 0 -18 27 -23 18 -3 55 -20
81 -36 25 -17 53 -30 60 -30 14 0 42 28 35 34 -38 30 -168 106 -182 106 -3 0
-7 -8 -10 -17z"></path>

</g>
</svg>