<!--?xml version="1.0" standalone="no"?--><svg version="1.0" xmlns="http://www.w3.org/2000/svg" width="300.000000pt" height="300.000000pt" viewBox="0 0 300.000000 300.000000" preserveAspectRatio="xMidYMid meet">
<metadata>
  <rdf:rdf xmlns:rdf="http://www.w3.org/1999/02/22-rdf-syntax-ns#" xmlns:rdfs="http://www.w3.org/2000/01/rdf-schema#" xmlns:dc="http://purl.org/dc/elements/1.1/">
    <rdf:description dc:title="music note heart" dc:publisher="Hiox" dc:date="2015-03-14" dc:format="image/svg+xml" dc:language="en">
      <dc:creator>
        <rdf:bag>
          <rdf:li>svgimages.com</rdf:li>
        </rdf:bag>
      </dc:creator>
    </rdf:description>
  </rdf:rdf>
</metadata>
<g transform="translate(0.000000,300.000000) scale(0.100000,-0.100000)" fill="#0D0D0D" stroke="none">
<path d="M835 2860 c-68 -11 -96 -23 -139 -61 -48 -41 -76 -98 -83 -163 -12
-114 40 -194 141 -217 51 -11 58 -10 103 12 83 41 114 136 74 226 -20 43 -45
62 -95 72 -16 4 -31 11 -33 16 -4 14 44 34 100 41 92 13 190 -53 219 -148 14
-47 16 -197 4 -320 l-8 -78 -62 0 c-137 0 -252 -50 -372 -163 -102 -96 -157
-197 -173 -318 -10 -72 -3 -192 15 -263 35 -140 187 -320 398 -471 l97 -70 -6
-150 c-10 -222 8 -331 78 -475 75 -154 194 -254 252 -212 22 15 53 69 76 132
20 58 23 84 25 239 l1 175 34 26 c19 14 95 64 169 110 277 172 463 326 593
490 146 185 219 444 173 615 -32 122 -146 263 -256 317 -58 28 -184 58 -246
58 -154 0 -335 -105 -410 -238 -16 -29 -32 -52 -36 -52 -4 0 -17 18 -28 41
-32 61 -104 127 -173 159 l-62 28 0 229 c0 215 -1 230 -22 268 -59 111 -198
168 -348 145z m1146 -694 c103 -43 171 -205 170 -399 -1 -222 -77 -410 -252
-621 -108 -131 -433 -414 -462 -403 -7 3 -19 25 -26 48 -35 115 -109 214 -264
348 -35 30 -38 36 -33 74 3 23 8 81 12 130 6 96 -1 88 88 102 58 10 125 47
173 97 41 43 93 137 93 171 0 24 15 21 44 -7 13 -14 50 -33 82 -42 50 -14 69
-15 123 -6 77 13 107 33 139 93 43 80 18 172 -59 212 -28 15 -49 17 -120 13
-109 -7 -122 3 -87 65 12 23 40 56 60 72 70 56 243 85 319 53z m-882 -5 c13
-8 13 -33 2 -188 -8 -98 -16 -211 -18 -250 -6 -83 -11 -87 -74 -51 -47 26 -84
77 -100 139 -17 63 6 126 62 171 63 51 46 85 -28 57 -42 -16 -82 -58 -114
-121 -24 -48 -29 -69 -29 -132 0 -140 69 -250 200 -316 l62 -31 -7 -97 c-4
-53 -11 -101 -15 -106 -5 -5 -38 14 -77 44 -223 175 -299 274 -329 427 -25
135 16 256 119 349 28 25 69 55 91 67 73 38 221 60 255 38z m153 -54 c65 -48
98 -121 98 -214 0 -104 -44 -178 -132 -224 -65 -33 -71 -29 -65 49 4 37 11
141 17 232 6 91 13 171 15 178 7 19 20 15 67 -21z m-52 -1304 c109 -110 160
-204 168 -311 5 -77 -6 -109 -42 -118 -91 -23 -231 200 -236 377 -3 102 0 139
11 139 7 0 51 -39 99 -87z" id="node1" class="node"></path>
<path d="M2496 2135 c-21 -20 -26 -33 -26 -74 0 -41 5 -54 27 -75 50 -47 121
-43 162 10 31 39 27 86 -10 129 -27 31 -37 35 -79 35 -36 0 -53 -6 -74 -25z" id="node2" class="node"></path>
<path d="M2539 1750 c-8 -5 -23 -27 -33 -48 -15 -32 -16 -46 -7 -78 16 -56 21
-61 73 -75 66 -18 112 3 129 60 14 48 7 80 -27 120 -22 27 -32 31 -72 31 -26
0 -54 -5 -63 -10z" id="node3" class="node"></path>
</g>
<g transform="translate(0.000000,300.000000) scale(0.100000,-0.100000)" fill="#A2A2A2" stroke="none">





</g>
</svg>