<!--?xml version="1.0" standalone="no"?-->

<svg version="1.0" xmlns="http://www.w3.org/2000/svg" width="291.000000pt" height="300.000000pt" viewBox="0 0 291.000000 300.000000" preserveAspectRatio="xMidYMid meet">
<g transform="translate(0.000000,300.000000) scale(0.100000,-0.100000)" fill="#424242" stroke="none">
<path stroke-width="20" class="node" id="node1" d="M493 2754 c-140 -41 -253 -156 -253 -258 0 -12 -5 -27 -10 -32 -18
-18 26 -313 51 -338 5 -6 9 -17 9 -25 0 -23 60 -148 117 -245 29 -49 53 -91
53 -94 0 -3 28 -39 62 -80 l61 -74 -141 4 c-88 2 -145 7 -152 14 -9 9 -7 24 9
59 37 84 22 122 -43 109 -22 -4 -46 -18 -62 -37 -22 -27 -25 -37 -22 -99 l2
-68 -71 -73 c-79 -79 -103 -123 -103 -191 0 -51 19 -76 56 -76 14 0 24 -6 24
-14 0 -28 69 -36 90 -11 9 11 22 14 40 10 18 -4 34 0 50 13 21 17 24 31 30
113 10 145 1 139 207 139 l171 0 27 -33 c28 -34 206 -226 264 -287 19 -19 64
-66 100 -105 35 -38 99 -106 140 -150 111 -117 105 -105 81 -161 -24 -56 -55
-182 -65 -267 -6 -48 -10 -57 -24 -52 -52 20 -168 45 -209 45 -91 0 -216 -52
-243 -101 -8 -15 -2 -19 44 -29 86 -20 235 -27 352 -18 122 10 139 17 124 54
-14 39 -11 162 7 223 24 81 55 161 63 161 4 0 20 -13 36 -30 16 -16 35 -30 43
-30 8 0 35 16 58 36 l44 35 10 -26 c15 -39 12 -242 -4 -295 -29 -99 -29 -98 7
-106 17 -4 39 -8 47 -9 8 -1 24 -6 35 -11 33 -14 315 -11 351 4 l32 13 -26 26
c-14 14 -51 38 -81 52 -49 23 -69 26 -161 26 -58 0 -120 -3 -139 -8 l-34 -7 9
42 c11 54 11 185 1 260 l-7 57 62 42 c97 65 145 106 242 204 94 95 221 265
264 353 21 42 31 52 52 52 89 0 383 -25 394 -34 7 -6 35 -51 61 -101 68 -128
81 -145 114 -145 16 0 34 7 41 15 7 8 21 15 30 15 29 0 100 97 100 136 0 71
-31 101 -176 169 -43 20 -82 42 -86 49 -4 6 -17 38 -28 71 -28 81 -52 109 -96
109 -39 0 -60 -17 -69 -55 -5 -21 2 -37 39 -83 25 -30 46 -58 46 -61 0 -11
-335 7 -347 19 -2 2 5 31 16 64 31 90 84 319 102 437 6 39 9 131 7 205 -4 128
-6 139 -36 201 -36 75 -81 120 -151 151 -25 11 -55 25 -66 31 -57 30 -266 39
-360 15 -62 -16 -156 -54 -165 -67 -3 -4 -27 -19 -53 -35 -26 -15 -70 -47 -98
-72 -27 -24 -52 -44 -55 -44 -4 0 -27 17 -53 39 -121 101 -274 187 -423 237
-67 23 -107 30 -205 34 -76 3 -136 1 -160 -6z m255 -30 c214 -51 384 -147 554
-313 49 -46 90 -82 94 -79 3 3 -4 23 -15 44 -12 21 -21 42 -21 46 0 13 139
118 187 142 112 55 147 67 242 78 85 10 111 9 184 -5 111 -22 196 -65 235
-118 59 -79 85 -271 63 -449 -12 -90 -40 -240 -50 -270 -5 -14 -19 -59 -31
-100 -63 -218 -120 -339 -229 -480 -63 -82 -174 -199 -217 -230 -12 -8 -63
-47 -115 -85 -52 -39 -123 -88 -159 -109 l-64 -38 -171 174 c-182 185 -284
293 -433 456 l-93 102 45 0 c33 0 46 4 46 14 0 18 -49 24 -255 30 -197 7 -233
1 -262 -43 -19 -29 -23 -47 -23 -117 0 -62 -4 -87 -16 -98 -40 -41 -63 1 -45
84 6 28 11 61 11 73 -1 45 -30 -29 -42 -107 -9 -57 -16 -76 -29 -79 -35 -9
-42 17 -26 90 9 38 22 81 31 98 17 33 14 44 -8 26 -21 -17 -46 -75 -54 -124
-6 -33 -12 -43 -30 -45 -20 -3 -22 1 -22 37 0 61 12 82 100 175 l81 87 -7 68
c-6 62 -4 71 15 90 25 25 71 29 71 6 0 -9 -9 -33 -20 -55 -22 -42 -26 -95 -10
-105 10 -6 417 -34 503 -35 70 0 35 24 -52 37 -45 6 -88 16 -96 23 -23 19
-159 230 -202 315 -107 209 -167 465 -134 581 46 167 255 259 469 208z m1816
-1036 c8 -13 17 -34 21 -48 22 -86 34 -98 147 -157 112 -58 148 -89 148 -127
0 -46 -15 -46 -50 2 -23 31 -44 48 -60 50 -25 3 -25 2 -5 -15 61 -54 82 -116
50 -143 -9 -7 -16 -11 -18 -9 -1 2 -15 30 -32 62 -28 54 -65 101 -65 82 0 -5
11 -27 24 -49 13 -23 27 -59 31 -80 7 -36 7 -37 -19 -34 -29 3 -37 15 -96 140
-18 37 -40 74 -50 83 -18 17 -93 26 -322 40 -60 4 -108 10 -108 13 0 4 6 14
13 23 10 13 26 14 97 8 71 -6 240 -12 288 -10 22 1 13 26 -34 89 -38 52 -44
64 -34 82 15 27 56 26 74 -2z m-1397 -1263 c98 -44 59 -65 -112 -64 -113 1
-270 21 -269 34 1 16 71 47 127 55 80 13 194 1 254 -25z m649 9 c73 -17 132
-50 116 -66 -22 -22 -364 -11 -402 12 -23 14 5 36 70 53 73 20 135 20 216 1z"></path>
<path stroke-width="20" class="node" id="node2" d="M956 2354 c-23 -23 -21 -24 34 -17 44 5 52 3 69 -18 l20 -24 1 31 c0
20 -6 34 -16 38 -30 12 -93 6 -108 -10z"></path>
<path stroke-width="20" class="node" id="node3" d="M1522 2354 c-22 -15 -30 -44 -13 -44 5 0 14 7 21 16 20 23 63 14 78
-19 15 -31 32 -27 32 8 0 28 -34 55 -70 55 -14 0 -36 -7 -48 -16z"></path>
<path stroke-width="20" class="node" id="node4" d="M1013 2244 c-43 -21 -83 -102 -83 -164 0 -56 25 -145 51 -182 12 -16
16 -29 9 -33 -22 -14 -8 -22 41 -24 67 -2 134 -17 167 -38 15 -9 53 -42 85
-72 45 -43 58 -51 55 -35 -2 14 8 30 30 49 18 15 39 40 48 56 14 28 17 29 87
29 89 0 130 19 172 80 55 81 68 156 36 218 -23 46 -45 65 -95 86 -51 21 -89
20 -135 -4 -40 -20 -101 -85 -101 -107 0 -21 -8 -16 -65 42 -90 93 -227 138
-302 99z m182 -57 c49 -24 86 -51 122 -91 54 -59 73 -103 73 -171 0 -39 0 -39
-16 -17 -16 23 -48 28 -73 13 -11 -7 -10 -11 4 -19 20 -11 10 -36 -11 -28 -18
7 -18 -5 -1 -28 10 -14 23 -17 50 -14 20 2 37 1 37 -3 0 -12 -51 -69 -61 -69
-6 0 -27 14 -48 30 -36 30 -157 75 -216 82 -24 2 -34 11 -49 43 -11 22 -23 48
-28 59 -17 33 -12 142 8 183 36 72 102 81 209 30z m420 -11 c41 -18 65 -60 72
-131 4 -40 1 -58 -13 -81 -53 -83 -144 -122 -217 -95 -20 8 -26 18 -29 53 -3
24 -4 44 -2 46 1 2 11 -2 23 -9 29 -19 73 -1 85 33 22 62 -38 108 -92 72 -26
-18 -27 -19 -4 -22 21 -3 30 -26 14 -36 -15 -9 -52 24 -52 45 0 27 23 69 52
96 46 43 104 53 163 29z"></path>
<path stroke-width="20" class="node" id="node5" d="M895 1756 c-33 -14 -61 -43 -51 -53 3 -3 18 -1 32 6 31 14 37 9 53
-40 26 -82 174 -282 244 -331 18 -12 44 -34 59 -49 64 -65 212 -159 250 -159
29 0 21 -22 -22 -64 -22 -21 -40 -43 -40 -47 0 -19 22 -7 62 32 24 23 53 48
65 56 30 20 24 26 -36 43 -28 7 -51 16 -51 18 0 8 70 146 84 164 11 16 18 15
95 -2 54 -12 91 -15 105 -10 20 8 20 9 1 9 -18 1 -74 20 -230 77 -168 62 -463
222 -537 292 -36 33 -35 42 3 42 45 0 31 24 -17 26 -21 2 -53 -3 -69 -10z
m154 -182 c-6 -8 -15 -14 -20 -14 -11 0 -35 37 -44 69 -7 24 -6 23 34 -8 33
-27 39 -36 30 -47z m66 -17 c17 -13 17 -15 -5 -45 -24 -32 -33 -33 -49 -3 -7
13 -6 24 5 39 18 26 24 27 49 9z m95 -57 c22 -11 40 -23 40 -25 0 -14 -56
-105 -65 -105 -9 0 -50 46 -68 76 -7 13 28 74 43 74 6 0 29 -9 50 -20z m133
-65 c26 -11 47 -24 47 -28 0 -11 -69 -135 -79 -141 -4 -3 -28 13 -54 35 -46
40 -47 40 -30 67 40 66 58 92 63 89 3 -1 27 -11 53 -22z m129 -55 c21 -6 40
-15 43 -20 6 -9 -46 -110 -78 -154 -12 -17 -16 -17 -43 -3 -58 30 -60 39 -17
116 21 39 43 71 48 71 6 0 27 -5 47 -10z"></path>

















</g>
<g transform="translate(0.000000,300.000000) scale(0.100000,-0.100000)" fill="#FFFFFF" stroke="none">

<path stroke-width="20" class="node" id="node24" d="M483 2715 c-144 -50 -219 -155 -214 -300 5 -123 66 -329 144 -480 43
-85 179 -296 202 -315 8 -7 51 -17 96 -23 87 -13 122 -37 52 -37 -86 1 -493
29 -503 35 -16 10 -12 63 10 105 11 22 20 46 20 55 0 23 -46 19 -71 -6 -19
-19 -21 -28 -15 -90 l7 -68 -81 -87 c-88 -93 -100 -114 -100 -175 0 -36 2 -40
22 -37 18 2 24 12 30 45 8 49 33 107 54 124 22 18 25 7 8 -26 -9 -17 -22 -60
-31 -98 -16 -73 -9 -99 26 -90 13 3 20 22 29 79 12 78 41 152 42 107 0 -12 -5
-45 -11 -73 -18 -83 5 -125 45 -84 12 11 16 36 16 98 0 70 4 88 23 117 29 44
65 50 262 43 206 -6 255 -12 255 -30 0 -10 -13 -14 -46 -14 l-45 0 93 -102
c149 -163 251 -271 433 -456 l171 -174 64 38 c36 21 107 70 159 109 52 38 103
77 115 85 43 31 154 148 217 230 109 141 166 262 229 480 12 41 26 86 31 100
10 30 38 180 50 270 22 178 -4 370 -63 449 -39 53 -124 96 -235 118 -184 36
-374 -17 -543 -152 -39 -31 -70 -59 -70 -63 0 -4 9 -25 21 -46 11 -21 18 -41
15 -44 -4 -3 -45 33 -94 79 -119 116 -192 168 -317 227 -213 100 -369 124
-502 77z m581 -351 c10 -4 16 -18 16 -38 l-1 -31 -20 24 c-17 21 -25 23 -69
18 -55 -7 -57 -6 -34 17 15 16 78 22 108 10z m554 -10 c22 -15 30 -58 13 -69
-6 -3 -16 7 -23 22 -15 33 -58 42 -78 19 -16 -20 -30 -20 -30 -2 0 20 39 46
70 46 14 0 36 -7 48 -16z m-412 -128 c32 -15 77 -48 109 -81 57 -58 65 -63 65
-42 0 22 61 87 101 107 46 24 84 25 135 4 50 -21 72 -40 95 -86 32 -62 19
-137 -36 -218 -42 -61 -83 -80 -172 -80 -70 0 -73 -1 -87 -29 -9 -16 -30 -41
-48 -56 -22 -19 -32 -35 -30 -49 3 -16 -10 -8 -55 35 -32 30 -70 63 -85 72
-33 21 -100 36 -167 38 -49 2 -63 10 -41 24 7 4 3 17 -9 33 -26 37 -51 126
-51 182 0 62 40 143 83 164 43 22 121 15 193 -18z m-198 -474 c2 -8 -8 -12
-27 -12 -38 0 -39 -9 -3 -42 74 -70 369 -230 537 -292 156 -57 212 -76 230
-77 19 0 19 -1 -1 -9 -14 -5 -51 -2 -105 10 -77 17 -84 18 -95 2 -14 -18 -84
-156 -84 -164 0 -2 23 -11 51 -18 60 -17 66 -23 36 -43 -12 -8 -41 -33 -65
-56 -40 -39 -62 -51 -62 -32 0 4 18 26 40 47 43 42 51 64 22 64 -38 0 -186 94
-250 159 -15 15 -41 37 -59 49 -70 49 -218 249 -244 331 -16 49 -22 54 -53 40
-31 -15 -44 -6 -25 17 32 38 146 57 157 26z"></path>
<path stroke-width="20" class="node" id="node25" d="M1030 2207 c-38 -19 -62 -78 -62 -152 0 -34 5 -71 10 -81 5 -11 17
-37 28 -59 15 -32 25 -41 49 -43 59 -7 180 -52 216 -82 21 -16 42 -30 48 -30
10 0 61 57 61 69 0 4 -17 5 -37 3 -27 -3 -40 0 -50 14 -17 23 -17 35 1 28 21
-8 31 17 11 28 -14 8 -15 12 -4 19 25 15 57 10 73 -13 16 -22 16 -22 16 17 0
68 -19 112 -73 171 -86 95 -218 146 -287 111z"></path>
<path stroke-width="20" class="node" id="node26" d="M1500 2179 c-50 -20 -100 -84 -100 -128 0 -21 37 -54 52 -45 16 10 7
33 -14 36 -23 3 -22 4 4 22 54 36 114 -10 92 -72 -12 -34 -56 -52 -85 -33 -12
7 -22 11 -23 9 -2 -2 -1 -22 2 -46 3 -35 9 -45 29 -53 73 -27 164 12 217 95
22 35 18 114 -9 166 -26 51 -103 73 -165 49z"></path>
<path stroke-width="20" class="node" id="node27" d="M985 1629 c9 -32 33 -69 44 -69 5 0 14 6 20 14 9 11 3 20 -30 47 -40
31 -41 32 -34 8z"></path>
<path stroke-width="20" class="node" id="node28" d="M1066 1548 c-11 -15 -12 -26 -5 -39 16 -30 25 -29 49 3 22 30 22 32
5 45 -25 18 -31 17 -49 -9z"></path>
<path stroke-width="20" class="node" id="node29" d="M1130 1488 c-10 -17 -16 -36 -13 -42 18 -30 59 -76 68 -76 9 0 65 91
65 105 0 6 -77 45 -90 45 -6 0 -19 -14 -30 -32z"></path>
<path stroke-width="20" class="node" id="node30" d="M1264 1427 c-60 -93 -59 -81 -7 -126 26 -22 50 -38 54 -35 10 6 79
130 79 141 0 4 -21 17 -47 28 -26 11 -50 21 -53 22 -3 2 -14 -12 -26 -30z"></path>
<path stroke-width="20" class="node" id="node31" d="M1377 1319 c-43 -77 -41 -86 17 -116 27 -14 31 -14 43 3 32 44 84
145 78 154 -5 9 -69 30 -90 30 -5 0 -27 -32 -48 -71z"></path>
<path stroke-width="20" class="node" id="node32" d="M2490 1690 c-10 -18 -4 -30 34 -82 47 -63 56 -88 34 -89 -48 -2 -217
4 -288 10 -71 6 -87 5 -97 -8 -7 -9 -13 -19 -13 -23 0 -3 48 -9 108 -13 229
-14 304 -23 322 -40 10 -9 32 -46 50 -83 59 -125 67 -137 96 -140 26 -3 26 -2
19 34 -4 21 -18 57 -31 80 -13 22 -24 44 -24 49 0 19 37 -28 65 -82 17 -32 31
-60 32 -62 2 -2 9 2 18 9 32 27 11 89 -50 143 -20 17 -20 18 5 15 16 -2 37
-19 60 -50 35 -48 50 -48 50 -2 0 38 -36 69 -148 127 -113 59 -125 71 -147
157 -18 67 -71 94 -95 50z"></path>

<path stroke-width="20" class="node" id="node34" d="M913 450 c-56 -8 -126 -39 -127 -55 -1 -13 156 -33 269 -34 171 -1
210 20 112 64 -60 26 -174 38 -254 25z"></path>
<path stroke-width="20" class="node" id="node35" d="M1600 433 c-65 -17 -93 -39 -70 -53 38 -23 380 -34 402 -12 16 16
-43 49 -116 66 -81 19 -143 19 -216 -1z"></path>
</g>
</svg>