<!--?xml version="1.0" standalone="no"?-->

<svg version="1.0" xmlns="http://www.w3.org/2000/svg" width="300.000000pt" height="300.000000pt" viewBox="0 0 300.000000 300.000000" preserveAspectRatio="xMidYMid meet">
<g transform="translate(0.000000,300.000000) scale(0.100000,-0.100000)" fill="#911E23" stroke="none">
<path class="node" id="node1" d="M1404 1768 c-17 -5 -50 -27 -74 -47 -49 -42 -59 -77 -60 -217 0 -94
-20 -186 -47 -216 -28 -31 -6 -38 124 -38 175 0 264 25 358 100 78 62 119 163
96 232 -18 50 -55 72 -133 76 -64 4 -67 6 -73 32 -10 46 -57 82 -112 86 -26 2
-62 -2 -79 -8z"></path>
<path class="node" id="node2" d="M630 1713 c-35 -6 -116 -32 -175 -56 -94 -39 -235 -143 -167 -123 97
28 141 32 233 22 56 -7 74 -5 113 13 54 23 53 41 -3 41 -21 0 -44 6 -50 14
-22 27 39 47 160 53 73 4 108 10 106 17 -7 20 -140 32 -217 19z"></path>
<path class="node" id="node3" d="M885 1643 c-50 -10 -115 -39 -175 -78 -74 -47 -168 -130 -159 -139 3
-4 37 -2 75 4 38 5 125 10 195 10 101 0 143 -5 218 -24 52 -14 98 -29 104 -35
15 -15 37 -14 36 2 0 20 -55 57 -112 77 -29 10 -102 24 -162 30 -146 16 -145
16 -99 49 66 47 121 63 232 69 56 2 102 8 102 12 0 20 -187 38 -255 23z"></path>
<path class="node" id="node4" d="M891 1552 c-14 -4 -26 -13 -29 -20 -2 -8 13 -12 55 -12 33 0 97 -11
148 -26 123 -35 135 -38 135 -28 0 10 -11 17 -95 58 -62 30 -164 43 -214 28z"></path>
<path class="node" id="node5" d="M2172 1538 c3 -7 39 -18 80 -24 85 -13 174 -40 184 -56 11 -17 -14
-32 -51 -31 -42 1 -45 -14 -7 -42 22 -16 44 -20 119 -21 70 -1 106 -7 147 -24
91 -37 98 -22 20 41 -89 73 -180 123 -274 148 -85 24 -224 29 -218 9z"></path>
<path class="node" id="node6" d="M1923 1513 c-61 -6 -53 -20 15 -28 69 -9 164 -39 212 -68 41 -24 80
-59 80 -70 0 -4 -33 -5 -72 -2 -121 11 -282 -17 -333 -56 -37 -30 -18 -44 31
-22 32 15 68 17 209 17 146 -1 184 -5 270 -26 55 -14 102 -24 104 -22 1 1 -17
27 -40 57 -57 70 -161 154 -225 183 -52 23 -151 45 -188 42 -12 -1 -40 -3 -63
-5z"></path>
<path class="node" id="node7" d="M1930 1409 c-52 -14 -140 -53 -140 -61 0 -11 10 -10 80 8 33 8 108
16 165 17 58 1 104 6 102 11 -5 14 -87 36 -132 35 -22 0 -56 -5 -75 -10z"></path>
</g>
<g transform="translate(0.000000,300.000000) scale(0.100000,-0.100000)" fill="#FFFFFF" stroke="none">

</g>
</svg>