<!--?xml version="1.0" standalone="no"?-->

<svg version="1.0" xmlns="http://www.w3.org/2000/svg" width="300.000000pt" height="225.000000pt" viewBox="0 0 300.000000 225.000000" preserveAspectRatio="xMidYMid meet">
<g transform="translate(0.000000,225.000000) scale(0.100000,-0.100000)" fill="#171717" stroke="none">
<path d="M1744 2150 c21 -37 35 -100 23 -100 -2 0 -19 7 -37 16 -45 23 -140
14 -205 -19 -48 -24 -121 -93 -155 -146 l-15 -23 -43 22 c-93 49 -194 28 -275
-55 l-36 -37 -7 28 c-4 15 -2 46 4 68 6 23 9 42 7 44 -9 9 -45 -80 -51 -125
-8 -62 7 -111 52 -175 l34 -48 -48 -24 c-47 -24 -105 -76 -84 -76 6 0 14 4 17
10 3 5 38 19 78 31 71 21 127 22 210 3 24 -6 28 -4 25 10 -2 10 -28 27 -62 41
-101 41 -143 103 -111 164 45 89 165 82 167 -9 1 -42 -33 -74 -74 -68 -15 3
-25 1 -22 -4 3 -4 25 -8 49 -8 33 0 50 6 65 22 21 23 41 81 35 101 -23 76 -11
84 49 34 l39 -33 34 37 c40 44 90 64 138 55 41 -8 83 -40 96 -74 15 -38 22
-19 9 26 -11 44 -46 76 -96 88 -46 11 -47 14 -13 40 83 61 161 48 195 -32 26
-62 -13 -147 -132 -289 -77 -92 -116 -156 -148 -244 -35 -97 -32 -123 4 -39
39 91 101 180 195 283 123 133 168 223 166 333 0 61 -39 157 -78 194 l-25 23
26 -45z" id="node1" class="node"></path>
<path d="M1413 1771 c-88 -64 -139 -153 -158 -277 -15 -100 40 -248 124 -332
29 -29 49 -56 46 -62 -20 -32 -246 -46 -354 -22 -30 7 -56 10 -58 8 -6 -6 182
-66 207 -66 11 0 20 -4 20 -10 0 -10 -49 -21 -109 -23 -33 -2 -40 -5 -34 -17
10 -20 10 -108 0 -144 -7 -24 8 -14 94 68 75 72 120 105 174 131 40 19 77 35
82 35 15 0 32 -45 45 -120 11 -61 9 -77 -10 -152 -27 -104 -105 -261 -176
-356 -49 -64 -52 -71 -30 -66 64 16 133 -23 185 -105 33 -52 34 -49 14 34 -20
81 -19 257 0 323 9 29 19 52 23 52 4 0 6 -45 4 -100 -8 -193 38 -349 142 -487
55 -73 69 -82 31 -20 -43 69 -76 147 -97 232 -19 73 -20 96 -13 265 13 290 4
380 -44 480 l-19 40 43 19 c73 32 177 54 262 55 46 1 83 3 83 5 0 3 -6 12 -14
20 -17 21 -36 77 -36 110 0 24 -3 22 -44 -24 -24 -28 -46 -48 -50 -44 -3 3 3
23 14 45 10 21 29 62 42 89 12 28 24 55 27 60 13 29 -34 -26 -73 -84 -48 -74
-138 -162 -196 -191 -37 -19 -58 -17 -41 4 25 32 85 191 97 261 15 88 18 155
7 155 -16 -1 -53 -48 -53 -67 0 -23 -35 -134 -57 -178 l-14 -30 25 30 c14 16
31 42 37 57 15 36 31 36 23 1 -11 -45 -52 -150 -80 -205 l-26 -50 -37 36 c-21
20 -57 73 -81 118 -52 98 -63 182 -36 265 32 98 120 142 181 90 l30 -24 33 44
33 44 -30 29 c-34 35 -79 39 -138 15 -20 -8 -38 -14 -40 -12 -2 3 13 21 34 41
45 43 40 46 -14 7z" id="node2" class="node"></path>
<path d="M1337 1503 c-4 -5 12 -27 35 -49 41 -40 38 -23 -6 30 -13 15 -26 24
-29 19z" id="node3" class="node"></path>
</g>
<g transform="translate(0.000000,225.000000) scale(0.100000,-0.100000)" fill="#A1A1A1" stroke="none">

</g>
</svg>