<!--?xml version="1.0" standalone="no"?-->

<svg version="1.0" xmlns="http://www.w3.org/2000/svg" width="300.000000pt" height="252.000000pt" viewBox="0 0 300.000000 252.000000" preserveAspectRatio="xMidYMid meet">
<g transform="translate(0.000000,252.000000) scale(0.100000,-0.100000)" fill="#010101" stroke="none">
<path class="node" id="node1" d="M575 2455 c-214 -48 -384 -214 -471 -460 -26 -71 -29 -94 -29 -200 0
-105 3 -130 28 -201 15 -45 44 -112 63 -150 67 -129 257 -402 424 -609 125
-155 155 -201 196 -294 56 -129 61 -214 29 -423 -9 -56 38 54 65 152 44 162
25 393 -45 546 -14 30 -25 57 -25 59 0 3 -33 65 -73 137 -91 164 -142 277
-156 346 -26 127 -3 274 58 369 126 195 310 182 417 -30 42 -82 55 -166 42
-262 -18 -128 -59 -181 -138 -172 -84 9 -141 105 -106 179 42 87 190 106 174
23 -7 -32 5 -32 22 1 13 23 12 30 -5 62 -29 54 -75 74 -155 69 -76 -5 -116
-23 -170 -77 -56 -56 -82 -113 -88 -191 -4 -57 -1 -75 23 -127 33 -74 93 -133
173 -170 71 -34 196 -38 249 -9 97 52 178 169 218 312 l13 50 1 -50 c7 -292
139 -561 314 -641 56 -26 73 -29 167 -29 122 0 159 15 234 89 143 143 136 356
-14 457 -34 23 -54 29 -97 29 -100 0 -163 -56 -163 -145 0 -47 3 -56 31 -79
36 -31 64 -33 79 -7 14 26 13 31 -5 31 -9 0 -18 7 -21 15 -8 19 13 45 36 45
51 0 69 -97 26 -147 -21 -24 -31 -28 -78 -28 -39 1 -63 7 -85 23 -84 60 -83
234 1 367 60 94 130 135 225 135 102 -1 194 -58 241 -153 27 -54 30 -70 30
-152 0 -208 -94 -363 -345 -570 -248 -204 -495 -329 -935 -471 -80 -26 -149
-51 -155 -57 -13 -12 172 -2 325 18 222 29 393 67 560 122 667 222 1094 574
1232 1013 31 100 33 331 4 425 -10 33 -25 83 -33 110 -21 68 -106 228 -150
282 -68 83 -214 176 -341 217 -69 22 -207 46 -267 46 -112 0 -260 -41 -369
-103 -84 -47 -139 -94 -199 -168 -38 -46 -127 -183 -127 -195 0 -2 -13 -32
-28 -66 -16 -35 -40 -101 -53 -148 l-24 -85 -6 135 c-6 145 -14 186 -55 301
-55 153 -122 259 -230 365 -136 134 -284 178 -459 139z"></path>
<path class="node" id="node2" d="M1010 838 c-27 -14 -51 -35 -60 -53 -20 -42 -17 -169 9 -289 25 -118
27 -238 6 -280 -18 -34 -12 -45 12 -24 49 41 149 89 248 118 170 50 218 79
258 155 15 29 21 59 22 106 0 57 -4 70 -28 102 -31 41 -74 67 -109 67 -26 0
-81 -30 -118 -66 l-26 -24 4 63 c3 53 1 66 -19 91 -45 58 -125 71 -199 34z"></path>
</g>
<g transform="translate(0.000000,252.000000) scale(0.100000,-0.100000)" fill="#FFFFFF" stroke="none">

</g>
</svg>