<!--?xml version="1.0" standalone="no"?--><svg version="1.0" xmlns="http://www.w3.org/2000/svg" width="300.000000pt" height="248.000000pt" viewBox="0 0 300.000000 248.000000" preserveAspectRatio="xMidYMid meet">
<metadata>
  <rdf:rdf xmlns:rdf="http://www.w3.org/1999/02/22-rdf-syntax-ns#" xmlns:rdfs="http://www.w3.org/2000/01/rdf-schema#" xmlns:dc="http://purl.org/dc/elements/1.1/">
    <rdf:description dc:title="meta-title" dc:publisher="Hiox" dc:date="2016-02-19" dc:format="image/svg+xml" dc:language="en">
      <dc:creator>
        <rdf:bag>
          <rdf:li>svgimages.com</rdf:li>
        </rdf:bag>
      </dc:creator>
    </rdf:description>
  </rdf:rdf>
</metadata>
<g transform="translate(0.000000,248.000000) scale(0.100000,-0.100000)" fill="#464950" stroke="none">
<path d="M1040 2320 c-16 -16 -24 -18 -44 -9 -34 16 -93 3 -123 -27 -36 -36
-27 -80 30 -147 25 -28 51 -71 58 -95 8 -28 17 -41 25 -38 33 13 154 99 167
119 44 68 45 150 2 193 -31 30 -87 32 -115 4z m115 -30 c27 -52 16 -121 -28
-169 -18 -19 -132 -101 -141 -101 -2 0 -8 18 -15 41 -7 22 -27 57 -45 77 -61
68 -71 107 -36 142 14 14 33 20 65 20 41 0 46 -3 67 -40 13 -22 27 -40 31 -40
10 0 -1 40 -14 54 -16 18 22 46 62 46 32 0 41 -5 54 -30z" id="node1" class="node"></path>
<path d="M1513 2270 c-12 -5 -32 -23 -44 -39 -15 -21 -31 -31 -49 -31 -26 0
-66 -22 -87 -50 -34 -42 0 -104 70 -130 43 -15 108 -47 129 -62 21 -15 45 11
84 90 71 142 12 268 -103 222z m83 -18 c21 -13 34 -51 34 -95 0 -48 -51 -164
-77 -174 -8 -3 -31 3 -51 14 -20 11 -55 26 -77 33 -53 17 -85 47 -85 81 0 52
78 87 131 59 20 -11 28 3 9 15 -16 10 -12 24 15 50 24 25 77 34 101 17z" id="node2" class="node"></path>
<path d="M1858 2238 c-45 -15 -56 -57 -50 -187 l5 -113 48 5 c141 17 249 121
219 211 -17 52 -44 71 -98 69 -26 -1 -51 2 -57 6 -20 15 -40 18 -67 9z m56
-21 c16 -12 16 -15 -3 -61 -23 -53 -25 -66 -12 -66 5 0 17 23 27 51 21 57 47
76 89 65 18 -5 31 -18 41 -42 34 -82 -34 -165 -160 -193 -32 -7 -59 -11 -60
-9 -2 1 -6 51 -10 111 -7 105 -6 108 18 132 28 28 44 31 70 12z" id="node3" class="node"></path>
<path d="M608 1942 c-26 -11 -59 -59 -65 -95 -4 -25 5 -58 31 -124 20 -50 36
-98 36 -106 0 -28 16 -27 90 3 174 72 253 176 205 270 -27 53 -116 78 -160 46
-16 -11 -24 -11 -52 0 -35 15 -58 17 -85 6z m97 -32 c8 -7 15 -23 15 -36 0
-12 5 -26 10 -29 6 -4 10 8 10 27 0 44 15 58 63 58 29 0 46 -7 68 -29 72 -73
10 -179 -150 -253 -46 -21 -85 -38 -86 -36 -2 2 -10 21 -18 43 -8 22 -24 66
-36 97 -28 77 -27 110 6 148 23 28 31 32 65 27 21 -3 45 -11 53 -17z" id="node4" class="node"></path>
<path d="M1303 1915 c-15 -7 -36 -21 -46 -33 -17 -18 -20 -19 -48 -5 -27 13
-33 13 -74 -7 -36 -18 -46 -28 -51 -56 -10 -54 3 -82 73 -160 l66 -73 59 46
c76 60 124 113 143 159 21 51 19 77 -10 107 -30 29 -74 38 -112 22z m91 -26
c56 -44 19 -134 -94 -224 -38 -30 -71 -55 -74 -55 -2 0 -27 24 -55 53 -80 83
-92 160 -30 193 42 21 77 12 81 -24 l3 -27 18 33 c20 36 71 72 103 72 12 0 33
-9 48 -21z" id="node5" class="node"></path>
<path d="M2016 1897 c-28 -20 -34 -76 -21 -176 7 -51 15 -95 18 -98 8 -8 168
27 212 46 55 25 76 52 82 105 5 42 3 48 -28 77 -31 29 -38 31 -85 26 -43 -4
-55 -2 -70 14 -20 22 -81 26 -108 6z m94 -22 c11 -13 9 -20 -9 -38 -35 -38
-24 -54 12 -19 45 44 100 59 133 37 62 -40 56 -124 -10 -161 -37 -21 -201 -62
-211 -53 -2 3 -9 44 -15 93 -15 121 -3 156 55 156 18 0 38 -7 45 -15z" id="node6" class="node"></path>
<path d="M383 1600 c-18 -11 -39 -17 -47 -14 -7 3 -30 -1 -49 -10 -68 -28
-100 -143 -56 -200 40 -51 139 -82 218 -68 l45 7 12 70 c6 39 17 83 23 98 18
46 13 77 -18 108 -35 35 -81 38 -128 9z m92 -4 c47 -20 53 -50 26 -139 -11
-40 -21 -84 -21 -99 0 -25 -4 -28 -37 -29 -72 -3 -108 3 -155 27 -51 26 -68
59 -60 115 5 37 50 86 86 94 28 6 29 5 24 -27 -3 -18 -3 -39 -1 -46 8 -22 23
-2 23 31 0 37 6 47 40 70 30 21 32 21 75 3z" id="node7" class="node"></path>
<path d="M1490 1584 c-36 -21 -53 -25 -87 -20 -86 11 -212 -32 -305 -105 -25
-20 -48 -29 -73 -29 -108 0 -179 -93 -124 -164 17 -22 28 -26 70 -26 35 0 49
-4 49 -14 0 -7 11 -30 25 -50 31 -45 31 -48 2 -62 -21 -9 -26 -7 -46 28 -26
46 -59 56 -115 37 -32 -11 -46 -23 -62 -56 -16 -31 -25 -39 -35 -32 -8 5 -26
9 -40 9 -24 0 -27 4 -32 51 -8 65 -45 116 -91 124 -43 9 -108 -9 -132 -36 -10
-12 -37 -29 -59 -39 -57 -25 -85 -59 -87 -105 -1 -32 4 -43 30 -65 18 -15 47
-32 65 -38 140 -47 157 -55 163 -81 4 -14 14 -35 24 -46 16 -19 15 -22 -30
-65 l-46 -46 -40 23 c-96 54 -131 53 -196 -5 -41 -37 -158 -186 -158 -202 0
-4 11 -10 23 -14 32 -8 77 -44 77 -62 0 -8 -10 -14 -25 -14 -33 0 -75 -42 -75
-74 0 -38 54 -92 108 -110 58 -19 188 -40 201 -32 5 3 7 25 3 48 l-5 42 24
-15 c13 -9 34 -21 46 -28 21 -11 21 -13 7 -47 -8 -20 -12 -39 -9 -43 10 -9
256 -7 282 2 18 7 25 3 37 -20 8 -15 41 -55 74 -89 32 -33 63 -68 69 -78 8
-15 19 -11 93 34 75 45 90 50 144 51 34 0 111 2 171 2 76 2 117 6 132 16 20
14 28 10 127 -57 59 -40 108 -72 110 -72 2 0 30 35 61 78 32 42 61 81 65 85 4
4 23 -1 43 -13 46 -28 84 -28 252 -1 l139 23 39 -41 38 -41 72 31 c182 80 259
178 208 265 l-22 36 25 23 c58 53 69 122 32 196 l-16 32 48 -6 c126 -14 196
94 117 182 -22 24 -35 49 -35 65 0 38 -50 86 -89 86 -17 0 -54 -9 -83 -20 -29
-11 -54 -20 -55 -20 -2 0 -3 24 -3 54 0 41 6 62 26 91 28 42 28 48 -11 180
-42 139 -118 189 -232 151 -28 -9 -60 -26 -72 -38 -25 -22 -25 -27 2 -131 14
-57 13 -97 -3 -97 -5 0 -11 8 -15 19 -8 28 -105 116 -155 141 -30 15 -53 20
-77 17 l-34 -6 6 52 c12 93 -49 187 -130 203 -66 12 -112 -38 -125 -138 -15
-107 -36 -159 -78 -195 -19 -16 -22 -23 -11 -23 40 0 94 108 106 212 6 58 33
118 54 118 7 0 10 -18 7 -50 -2 -30 1 -49 7 -47 6 2 11 19 12 38 1 19 2 42 2
52 1 24 38 22 52 -4 6 -12 9 -32 6 -45 -2 -13 0 -24 4 -24 5 0 9 16 9 36 0 32
2 35 16 23 29 -24 54 -87 54 -136 0 -55 -4 -62 -45 -85 -20 -11 -35 -30 -43
-57 l-14 -41 -142 2 -142 2 4 91 c3 60 0 100 -8 114 -10 19 -9 25 5 35 29 21
16 76 -24 103 -44 30 -75 29 -131 -3z m95 -4 c-3 -5 -11 -10 -17 -10 -15 0
-48 -30 -48 -43 0 -6 9 -2 20 8 11 10 36 18 57 19 35 1 38 -1 41 -29 3 -19 -2
-33 -14 -42 -15 -11 -15 -15 -3 -29 10 -12 14 -42 13 -98 -1 -87 -23 -154 -63
-190 -22 -20 -27 -36 -12 -36 5 0 24 21 43 48 l34 47 110 3 c60 1 124 -1 143
-6 30 -7 35 -13 48 -57 32 -116 31 -122 -36 -205 -100 -125 -149 -253 -123
-322 8 -23 9 -35 1 -45 -9 -10 -15 -6 -28 19 -44 89 -171 103 -225 26 -24 -33
-20 -109 8 -172 l24 -55 -24 10 c-14 5 -43 9 -65 9 -29 0 -39 4 -39 15 0 29
-50 65 -89 65 -29 0 -46 8 -77 37 -41 39 -118 146 -132 184 -7 19 -18 21 -127
25 -133 5 -232 32 -318 86 -54 35 -67 53 -67 99 l0 32 25 -23 c30 -28 34 -16
5 15 -17 18 -19 27 -10 50 l10 27 21 -26 c26 -34 38 -26 15 9 -14 21 -15 29
-5 41 19 23 34 16 52 -21 9 -19 21 -35 27 -35 5 0 2 16 -7 35 -9 19 -14 38
-10 41 3 3 36 -10 72 -31 43 -24 84 -38 118 -42 48 -4 56 -2 107 34 64 45 72
70 36 113 -13 17 -30 46 -37 65 -11 29 -18 34 -48 37 -31 3 -36 7 -39 30 -4
33 27 53 70 44 21 -4 28 -2 26 7 -7 19 -53 20 -88 2 -28 -15 -32 -21 -28 -51
5 -41 -8 -45 -23 -7 -13 36 -4 69 27 98 30 28 90 41 110 25 11 -10 19 -6 40
19 33 39 153 99 221 110 29 4 73 5 98 1 41 -6 50 -4 82 22 35 27 113 42 98 18z
m967 -182 c59 -64 108 -239 75 -267 -31 -25 -70 -9 -104 43 -18 27 -54 74 -80
104 -105 120 -100 160 21 161 45 1 52 -2 88 -41z m-134 -116 c27 -32 66 -83
87 -115 27 -40 47 -60 65 -63 l26 -6 -3 -86 c-6 -132 -21 -211 -53 -278 -57
-117 -146 -192 -247 -208 -24 -3 -43 -5 -43 -3 0 1 9 30 21 62 15 43 24 102
30 210 9 147 20 218 42 262 7 17 7 34 -2 63 -8 28 -9 46 -1 59 14 27 13 61 -6
136 -14 54 -14 68 -3 81 11 14 15 12 26 -21 7 -20 34 -62 61 -93z m-261 32
c64 -31 118 -90 149 -161 29 -66 30 -89 4 -103 -29 -16 -57 -4 -120 49 -30 26
-84 65 -120 86 -81 48 -110 74 -110 95 0 26 31 48 75 53 22 2 47 4 56 5 8 1
38 -10 66 -24z m-1497 -76 c20 -22 40 -77 40 -112 0 -10 -16 -34 -35 -53 -19
-18 -40 -51 -46 -73 -7 -22 -15 -40 -19 -40 -3 0 -46 14 -95 30 -94 32 -145
69 -145 105 0 67 113 122 162 78 10 -9 21 -13 24 -10 9 9 -15 37 -32 37 -28 0
-24 21 8 40 46 28 111 27 138 -2z m1376 -51 c33 -20 96 -63 139 -97 53 -41 87
-60 106 -60 31 0 37 -16 19 -49 -5 -10 -14 -90 -19 -177 -14 -232 -60 -351
-152 -396 -40 -20 -148 -34 -176 -24 -17 7 -17 8 -1 20 24 18 58 95 58 133 0
86 -67 127 -157 97 -24 -8 -48 -12 -53 -9 -17 11 -11 102 11 160 12 31 54 101
95 154 79 105 84 120 59 191 -8 23 -15 61 -15 83 0 34 2 38 13 25 6 -8 39 -31
73 -51z m-1061 -41 c13 -13 27 -36 31 -50 6 -27 18 -33 29 -16 10 17 45 32 45
20 0 -6 -21 -24 -47 -40 -53 -34 -111 -39 -168 -16 -28 12 -35 20 -35 44 0 67
97 106 145 58z m1842 -203 c8 -20 12 -38 8 -41 -3 -3 -25 -5 -49 -3 -24 1 -47
-2 -50 -7 -3 -6 20 -12 56 -14 51 -4 65 -9 85 -32 41 -48 27 -117 -30 -141
-34 -14 -147 -11 -182 5 -11 5 -33 13 -50 18 -21 6 -29 15 -27 28 2 10 8 53
13 94 6 41 14 82 19 90 4 8 35 25 70 36 79 28 115 19 137 -33z m-2108 -132
l35 -18 -31 -16 c-17 -9 -33 -23 -36 -32 -8 -20 -4 -19 39 10 45 31 58 31 114
3 31 -16 46 -30 48 -47 9 -64 -23 -91 -110 -91 -38 0 -57 5 -73 20 -13 12 -38
21 -61 23 -34 2 -40 6 -51 37 -16 45 -10 63 35 100 42 35 46 35 91 11z m-253
-26 c18 -14 18 -14 -5 -15 -29 0 -88 -35 -101 -61 -8 -14 -1 -12 33 11 24 16
62 32 85 36 37 6 44 3 72 -24 39 -39 38 -60 -4 -100 -31 -29 -37 -31 -60 -20
-23 10 -31 8 -56 -10 -17 -13 -44 -22 -66 -22 -27 0 -43 -7 -63 -29 l-27 -29
-27 24 c-16 13 -35 24 -43 24 -21 0 -18 7 35 79 101 136 172 178 227 136z
m588 -55 l49 0 -21 -23 c-12 -13 -22 -29 -22 -36 0 -9 -6 -10 -17 -5 -10 5
-44 9 -76 9 l-57 0 0 32 0 32 48 -4 c26 -2 69 -4 96 -5z m1556 -25 l25 -14
-26 -1 c-14 0 -34 -9 -44 -20 -20 -22 -15 -26 13 -10 25 13 113 29 106 19 -3
-5 0 -9 6 -9 5 0 19 -15 30 -32 52 -85 -5 -196 -100 -195 -26 0 -64 -9 -89
-21 -53 -26 -51 -26 -51 -7 0 21 -58 55 -93 55 -16 0 -38 -5 -49 -11 -16 -9
-23 -8 -29 2 -18 29 -10 46 26 52 39 6 108 51 160 103 19 19 35 30 35 24 0 -5
5 -10 11 -10 6 0 8 8 4 19 -7 22 13 71 29 71 6 -1 22 -7 36 -15z m-1438 -57
c23 -35 59 -81 80 -104 l39 -42 -44 -26 c-25 -14 -59 -41 -76 -61 l-32 -36
-52 17 c-63 20 -77 30 -77 56 0 31 -54 78 -88 78 -25 0 -31 5 -37 29 -9 42 17
87 59 101 38 12 79 5 97 -16 17 -20 26 -17 33 10 6 26 31 56 46 56 5 0 28 -28
52 -62z m549 -6 c24 -22 32 -38 36 -76 l6 -49 16 33 c19 40 88 80 138 80 51 0
83 -37 83 -95 0 -52 -10 -77 -48 -117 l-25 -27 -40 21 c-31 15 -50 19 -81 13
-23 -4 -64 -10 -92 -14 -28 -4 -63 -14 -77 -24 -15 -9 -28 -17 -31 -17 -12 0
-66 164 -66 200 0 92 110 135 181 72z m-1032 -18 c30 -38 27 -66 -8 -87 -39
-23 -64 -67 -86 -149 -9 -38 -20 -68 -22 -68 -10 0 -78 44 -85 54 -4 6 -8 29
-8 51 -1 48 -21 109 -46 136 -16 17 -16 22 -4 29 21 14 54 12 69 -2 10 -11 17
-8 34 13 30 36 55 48 99 49 28 0 41 -6 57 -26z m178 -54 c1 -53 -8 -61 -38
-34 -10 9 -36 18 -58 21 -31 4 -41 10 -41 24 0 15 8 19 43 20 33 1 92 12 92
18 0 1 1 -22 2 -49z m-445 -29 c33 -29 33 -30 38 -141 3 -79 2 -114 -6 -117
-14 -5 -149 22 -191 38 -43 16 -73 49 -73 80 0 42 25 61 79 59 66 -2 68 -2 43
16 -12 8 -22 21 -22 28 0 25 47 58 92 65 4 0 22 -12 40 -28z m383 -13 c26 -12
32 -23 15 -33 -5 -3 -10 -14 -10 -22 0 -14 4 -13 20 5 12 12 24 22 28 22 4 1
24 3 44 6 33 5 42 1 68 -24 29 -30 36 -55 24 -98 -4 -16 -16 -23 -45 -27 -50
-7 -67 -21 -91 -73 -13 -30 -26 -44 -45 -49 -25 -6 -243 -8 -248 -3 -5 6 77
243 88 257 37 45 102 62 152 39z m1481 -63 c15 -48 4 -60 -33 -32 -26 19 -29
25 -20 45 15 33 40 27 53 -13z m-888 9 c34 -24 27 -48 -23 -80 -25 -15 -45
-32 -45 -37 0 -5 10 -2 23 7 42 31 86 46 137 46 41 0 56 -5 76 -25 l25 -25
-24 -33 c-35 -46 -40 -69 -24 -116 22 -62 12 -66 -165 -68 -81 0 -148 1 -148
4 0 3 9 21 21 39 42 69 22 148 -47 184 -16 8 -31 16 -33 18 -8 4 44 54 74 70
62 32 121 39 153 16z m1051 -50 c12 -15 21 -37 21 -50 0 -13 5 -24 10 -24 6 0
10 7 10 15 0 20 54 52 100 60 53 9 86 -7 100 -49 16 -50 -1 -95 -52 -142 -41
-36 -172 -104 -203 -104 -27 0 -113 89 -131 136 -22 57 -15 126 17 160 33 35
100 34 128 -2z m-205 -5 c29 -20 31 -24 31 -89 0 -56 4 -74 23 -100 13 -17 22
-33 20 -35 -1 -1 -54 -10 -117 -19 -63 -9 -118 -19 -122 -22 -16 -9 -110 9
-130 25 -18 15 -18 18 -3 66 14 48 14 78 -2 119 -6 16 -4 17 12 9 25 -13 153
1 191 21 16 8 35 22 42 30 17 20 19 20 55 -5z m-332 -48 c50 -56 33 -120 -68
-258 -31 -43 -58 -80 -60 -82 -2 -2 -20 10 -41 26 -21 16 -58 42 -83 57 -68
43 -89 66 -100 107 -8 29 -7 46 3 72 19 45 86 97 125 97 l31 0 -20 -45 c-11
-25 -18 -51 -16 -58 3 -7 14 9 25 34 30 68 65 92 126 86 40 -3 55 -11 78 -36z
m-853 16 l43 -13 -26 -17 c-32 -22 -77 -6 -69 24 3 10 6 19 7 19 0 0 21 -6 45
-13z m170 -53 c32 -41 36 -85 12 -131 -16 -32 -40 -53 -117 -100 l-97 -60 -66
70 c-108 113 -118 151 -54 207 26 23 42 30 66 27 42 -4 77 -24 77 -42 0 -8 5
-15 11 -15 6 0 9 7 6 15 -10 25 40 55 94 55 39 0 51 -4 68 -26z" id="node8" class="node"></path>
<path d="M1430 1461 c0 -15 6 -21 21 -21 14 0 19 5 17 17 -5 26 -38 29 -38 4z" id="node9" class="node"></path>
<path d="M1263 1404 c-3 -8 0 -21 6 -27 10 -9 16 -8 26 7 8 10 12 23 9 27 -9
15 -34 10 -41 -7z" id="node10" class="node"></path>
<path d="M1414 1396 c-43 -19 -46 -27 -23 -65 17 -28 24 -32 55 -29 29 2 38
-2 50 -22 18 -34 18 -76 -2 -84 -35 -13 -94 -6 -115 15 -29 29 -38 14 -9 -16
47 -50 178 -17 206 51 16 39 18 74 4 74 -5 0 -10 -11 -10 -25 0 -28 -20 -75
-32 -75 -4 0 -8 8 -8 18 0 9 -9 34 -20 55 -16 29 -18 42 -10 57 14 27 -4 60
-33 60 -12 -1 -36 -7 -53 -14z m66 -25 c0 -36 -12 -51 -41 -51 -38 0 -60 37
-33 57 28 21 74 17 74 -6z" id="node11" class="node"></path>
</g>
<g transform="translate(0.000000,248.000000) scale(0.100000,-0.100000)" fill="#EA749F" stroke="none">

<path d="M1047 2302 c-10 -11 -13 -22 -8 -28 13 -14 24 -54 14 -54 -4 0 -18
18 -31 40 -21 37 -26 40 -67 40 -32 0 -51 -6 -65 -20 -35 -35 -25 -74 36 -142
18 -20 38 -55 45 -77 7 -23 13 -41 15 -41 9 0 123 82 141 101 44 48 55 117 28
169 -13 25 -22 30 -54 30 -24 0 -44 -7 -54 -18z" id="node13" class="node"></path>
<path d="M1495 2235 c-27 -26 -31 -40 -15 -50 19 -12 11 -26 -9 -15 -53 28
-131 -7 -131 -59 0 -34 32 -64 85 -81 22 -7 57 -22 77 -33 20 -11 43 -17 51
-14 26 10 77 126 77 174 0 44 -13 82 -34 95 -24 17 -77 8 -101 -17z" id="node14" class="node"></path>
<path d="M1844 2205 c-24 -24 -25 -27 -18 -132 4 -60 8 -110 10 -111 1 -2 28
2 60 9 126 28 194 111 160 193 -10 24 -23 37 -41 42 -42 11 -68 -8 -89 -65
-10 -28 -22 -51 -27 -51 -13 0 -11 13 12 66 19 46 19 49 3 61 -26 19 -42 16
-70 -12z" id="node15" class="node"></path>
<path d="M587 1900 c-33 -38 -34 -71 -6 -148 12 -31 28 -75 36 -97 8 -22 16
-41 18 -43 1 -2 40 15 86 36 111 51 179 121 179 182 0 57 -42 100 -97 100 -48
0 -63 -14 -63 -58 0 -19 -4 -31 -10 -27 -5 3 -10 17 -10 29 0 31 -20 47 -68
53 -34 5 -42 1 -65 -27z" id="node16" class="node"></path>
<path d="M1293 1890 c-18 -10 -40 -34 -50 -52 l-18 -33 -3 27 c-4 36 -39 45
-81 24 -62 -33 -50 -110 30 -193 28 -29 53 -53 55 -53 3 0 36 25 74 55 113 90
150 180 94 224 -33 26 -60 26 -101 1z" id="node17" class="node"></path>
<path d="M2022 1878 c-20 -26 -23 -58 -12 -144 6 -49 13 -90 15 -93 10 -9 174
32 211 53 66 37 72 121 10 161 -33 22 -88 7 -133 -37 -36 -35 -47 -19 -12 19
18 18 20 25 9 38 -15 18 -74 20 -88 3z" id="node18" class="node"></path>
<path d="M400 1593 c-34 -23 -40 -33 -40 -70 0 -33 -15 -53 -23 -31 -2 7 -2
28 1 46 5 32 4 33 -24 27 -36 -8 -81 -57 -86 -94 -14 -95 66 -148 215 -142 33
1 37 4 37 29 0 15 10 59 21 99 27 89 21 119 -26 139 -43 18 -45 18 -75 -3z" id="node19" class="node"></path>





<path d="M522 1240 c-32 -19 -36 -40 -8 -40 17 0 41 -28 32 -37 -3 -3 -14 1
-24 10 -49 44 -162 -11 -162 -78 0 -36 51 -73 145 -105 49 -16 92 -30 95 -30
4 0 12 18 19 40 6 22 27 55 46 73 19 19 35 43 35 53 0 35 -20 90 -40 112 -27
29 -92 30 -138 2z" id="node25" class="node"></path>

<path d="M890 1163 c-32 -12 -60 -47 -60 -75 0 -24 7 -32 35 -44 57 -23 115
-18 168 16 26 16 47 34 47 40 0 12 -35 -3 -45 -20 -11 -17 -23 -11 -29 16 -14
54 -67 85 -116 67z" id="node27" class="node"></path>
<path d="M2680 976 c-35 -11 -66 -28 -70 -36 -5 -8 -13 -49 -19 -90 -5 -41
-11 -84 -13 -94 -2 -13 6 -22 27 -28 17 -5 39 -13 50 -18 35 -16 148 -19 182
-5 57 24 71 93 30 141 -20 23 -34 28 -85 32 -36 2 -59 8 -56 14 3 5 26 8 50 7
24 -2 46 0 49 3 4 3 0 21 -8 41 -22 52 -58 61 -137 33z" id="node28" class="node"></path>
<path d="M618 800 c-45 -37 -51 -55 -35 -100 11 -31 17 -35 51 -37 23 -2 48
-11 61 -23 16 -15 35 -20 73 -20 87 0 119 27 110 91 -2 17 -17 31 -48 47 -56
28 -69 28 -114 -3 -43 -29 -47 -30 -39 -10 3 9 19 23 36 32 l31 16 -35 18
c-45 24 -49 24 -91 -11z" id="node29" class="node"></path>
<path d="M365 788 c-34 -18 -84 -70 -136 -139 -53 -72 -56 -79 -35 -79 8 0 27
-11 43 -24 l27 -24 27 29 c20 22 36 29 63 29 22 0 49 9 66 22 25 18 33 20 56
10 23 -11 29 -9 60 20 42 40 43 61 4 100 -28 27 -35 30 -72 24 -23 -4 -61 -20
-85 -36 -34 -23 -41 -25 -33 -11 13 26 72 61 101 61 23 1 23 1 5 15 -23 18
-63 19 -91 3z" id="node30" class="node"></path>
<path d="M900 707 l0 -32 57 0 c32 0 66 -4 76 -9 11 -5 17 -4 17 5 0 7 10 23
22 36 l21 23 -49 0 c-27 1 -70 3 -96 5 l-48 4 0 -32z" id="node31" class="node"></path>
<path d="M2541 694 c-6 -15 -9 -35 -6 -45 4 -11 2 -19 -4 -19 -6 0 -11 5 -11
10 0 6 -16 -5 -35 -24 -52 -52 -121 -97 -160 -103 -36 -6 -44 -23 -26 -52 6
-10 13 -11 29 -2 11 6 33 11 49 11 35 0 93 -34 93 -55 0 -19 -2 -19 51 7 25
12 63 21 89 21 95 -1 152 110 100 195 -11 17 -25 32 -30 32 -6 0 -9 4 -6 9 7
10 -81 -6 -106 -19 -28 -16 -33 -12 -13 10 10 11 30 20 44 20 l26 1 -25 14
c-36 20 -45 18 -59 -11z" id="node32" class="node"></path>
<path d="M1086 694 c-9 -8 -19 -26 -22 -40 -7 -27 -16 -30 -33 -10 -18 21 -59
28 -97 16 -42 -14 -68 -59 -59 -101 6 -24 12 -29 37 -29 34 0 88 -47 88 -78 0
-26 14 -36 77 -56 l52 -17 32 36 c17 20 51 47 76 61 l44 26 -39 42 c-21 23
-57 69 -80 104 -24 34 -47 62 -52 62 -5 0 -16 -7 -24 -16z" id="node33" class="node"></path>
<path d="M1559 641 c-39 -39 -38 -87 2 -191 17 -44 33 -80 35 -80 3 0 16 8 31
17 14 10 49 20 77 24 28 4 69 10 92 14 31 6 50 2 81 -13 l40 -21 25 27 c38 40
48 65 48 117 0 58 -32 95 -83 95 -50 0 -119 -40 -138 -80 l-16 -33 -6 49 c-7
66 -48 104 -113 104 -37 0 -51 -5 -75 -29z" id="node34" class="node"></path>
<path d="M565 638 c-11 -6 -30 -23 -42 -37 -17 -21 -24 -24 -34 -13 -15 14
-48 16 -69 2 -12 -7 -12 -12 4 -29 25 -27 45 -88 46 -136 0 -22 4 -45 8 -51 7
-10 75 -54 85 -54 2 0 13 30 22 68 22 82 47 126 86 149 35 21 38 49 8 87 -16
20 -29 26 -57 26 -20 0 -46 -6 -57 -12z" id="node35" class="node"></path>
<path d="M830 610 c-14 -4 -44 -8 -67 -9 -35 -1 -43 -5 -43 -20 0 -14 10 -20
41 -24 22 -3 48 -12 58 -21 30 -27 39 -19 38 34 -1 27 -2 50 -2 49 0 -1 -11
-5 -25 -9z" id="node36" class="node"></path>
<path d="M345 563 c-25 -6 -65 -42 -65 -59 0 -7 10 -20 22 -28 25 -18 23 -18
-43 -16 -104 3 -108 -101 -6 -139 42 -16 177 -43 191 -38 8 3 9 38 6 117 -5
111 -5 112 -38 141 -18 16 -36 28 -40 28 -4 -1 -16 -3 -27 -6z" id="node37" class="node"></path>
<path d="M685 522 c-16 -11 -35 -25 -42 -33 -11 -14 -93 -251 -88 -257 5 -5
223 -3 248 3 19 5 32 19 45 49 24 52 41 66 91 73 29 4 41 11 45 27 12 43 5 68
-24 98 -26 25 -35 29 -68 24 -20 -3 -40 -5 -44 -6 -4 0 -16 -10 -28 -22 -16
-18 -20 -19 -20 -5 0 8 5 19 10 22 17 10 11 21 -15 33 -37 17 -76 15 -110 -6z" id="node38" class="node"></path>
<path d="M2223 478 c-9 -20 -6 -26 20 -45 37 -28 48 -16 33 32 -13 40 -38 46
-53 13z" id="node39" class="node"></path>
<path d="M1295 481 c-43 -11 -86 -35 -114 -65 -14 -14 -23 -27 -20 -28 2 -2
17 -10 33 -18 69 -36 89 -115 47 -184 -12 -18 -21 -36 -21 -39 0 -3 67 -4 148
-4 177 2 187 6 165 68 -16 47 -11 70 24 116 l24 33 -25 25 c-42 42 -141 32
-213 -21 -13 -9 -23 -12 -23 -7 0 5 20 22 45 37 50 32 57 56 23 80 -24 17 -45
18 -93 7z" id="node40" class="node"></path>
<path d="M2311 426 c-32 -34 -39 -103 -17 -160 18 -47 104 -136 131 -136 31 0
162 68 203 104 51 47 68 92 52 142 -14 42 -47 58 -100 49 -46 -8 -100 -40
-100 -60 0 -8 -4 -15 -10 -15 -5 0 -10 11 -10 24 0 13 -9 35 -21 50 -28 36
-95 37 -128 2z" id="node41" class="node"></path>
<path d="M2179 424 c-7 -8 -26 -22 -42 -30 -38 -20 -166 -34 -191 -21 -16 8
-18 7 -12 -9 16 -41 16 -71 2 -119 -15 -48 -15 -51 3 -66 20 -16 114 -34 130
-25 4 3 59 13 122 22 63 9 116 18 117 19 2 2 -7 18 -20 35 -19 26 -23 44 -23
100 0 65 -2 69 -31 89 -36 25 -38 25 -55 5z" id="node42" class="node"></path>
<path d="M1746 389 c-15 -12 -37 -43 -48 -68 -11 -25 -22 -41 -25 -34 -2 7 5
33 16 58 l20 45 -31 0 c-39 0 -106 -52 -125 -97 -10 -26 -11 -43 -3 -72 11
-41 32 -64 100 -107 25 -15 62 -41 83 -57 21 -16 39 -28 41 -26 2 2 29 39 60
82 101 138 118 202 68 258 -39 43 -113 52 -156 18z" id="node43" class="node"></path>
<path d="M997 381 c-8 -30 37 -46 69 -24 l26 17 -43 13 c-24 7 -45 13 -45 13
-1 0 -4 -9 -7 -19z" id="node44" class="node"></path>
<path d="M1077 340 c-15 -12 -24 -27 -20 -35 3 -8 0 -15 -6 -15 -6 0 -11 7
-11 15 0 18 -35 38 -77 42 -24 3 -40 -4 -66 -27 -64 -56 -54 -94 54 -207 l66
-70 97 60 c77 47 101 68 117 100 24 46 20 90 -12 131 -17 22 -29 26 -68 26
-33 0 -56 -6 -74 -20z" id="node45" class="node"></path>
</g>
</svg>