<!--?xml version="1.0" standalone="no"?-->

<svg version="1.0" xmlns="http://www.w3.org/2000/svg" width="300.000000pt" height="287.000000pt" viewBox="0 0 300.000000 287.000000" preserveAspectRatio="xMidYMid meet">
<g transform="translate(0.000000,287.000000) scale(0.100000,-0.100000)" fill="#222321" stroke="none">
<path d="M89 2835 c-64 -42 -99 -150 -67 -208 7 -12 51 -62 98 -112 55 -58 95
-111 113 -150 16 -33 33 -68 38 -78 6 -10 17 -73 27 -140 15 -115 28 -152 43
-124 4 7 19 50 35 97 36 113 80 195 124 231 21 18 68 40 120 55 112 33 147 52
182 95 25 30 29 46 29 92 0 94 -39 140 -142 171 -46 13 -67 14 -114 5 -74 -14
-105 -25 -132 -51 l-22 -21 -50 55 c-27 30 -67 62 -88 72 -21 11 -46 23 -55
27 -34 17 -102 9 -139 -16z m155 -25 c34 -13 104 -77 133 -122 27 -44 48 -48
75 -13 33 43 75 57 163 59 77 1 83 -1 122 -31 111 -89 70 -200 -93 -248 -166
-49 -202 -76 -254 -190 -20 -44 -40 -89 -44 -99 -9 -25 -16 -16 -22 26 -17
128 -73 239 -169 332 -88 87 -105 112 -105 159 0 103 95 165 194 127z" id="node1" class="node"></path>
<path d="M994 2379 c-90 -47 -129 -90 -150 -165 -21 -80 -15 -130 28 -214 32
-61 33 -67 22 -105 -7 -22 -13 -66 -13 -97 -1 -88 -31 -108 -97 -63 -49 33
-138 35 -202 4 -50 -24 -113 -111 -134 -183 -18 -64 -14 -175 12 -293 11 -47
72 -153 89 -153 9 0 26 -38 35 -82 8 -33 9 -33 -45 -8 -57 25 -105 25 -148 -1
-19 -11 -43 -18 -54 -15 -11 3 -35 -1 -53 -9 -26 -10 -34 -21 -39 -49 -4 -19
-4 -40 0 -46 4 -6 -2 -20 -14 -31 -48 -45 -19 -166 70 -296 16 -23 29 -44 29
-47 0 -14 80 -110 184 -220 151 -161 145 -156 201 -181 73 -33 137 -22 183 31
18 21 35 50 38 64 3 14 7 30 9 36 2 6 24 21 49 34 54 26 107 21 158 -14 18
-12 68 -47 111 -77 43 -29 126 -86 185 -125 l106 -72 69 62 c38 33 101 92 140
129 70 66 73 68 112 61 54 -9 65 -16 100 -62 50 -67 104 -79 184 -40 100 48
186 122 358 307 189 204 282 357 269 449 -6 48 -20 72 -42 72 -7 0 -16 10 -19
23 -12 38 -46 67 -80 67 -19 0 -39 8 -49 19 -10 11 -27 21 -37 23 -17 3 -15 9
19 58 68 97 85 150 80 254 -3 79 -8 99 -36 151 -51 94 -99 140 -168 160 -85
25 -159 17 -224 -23 l-52 -32 -36 30 -36 30 3 127 c2 108 6 129 21 142 10 9
30 34 44 55 42 64 34 140 -27 239 -40 66 -90 91 -183 91 -63 -1 -77 -4 -119
-33 l-47 -32 -66 33 c-64 31 -73 32 -182 32 -115 1 -158 -8 -248 -51 -31 -15
-34 -14 -55 5 -78 71 -158 81 -253 31z m163 -11 c15 -7 48 -29 73 -49 l46 -37
62 29 c76 37 141 48 252 45 86 -3 107 -10 198 -67 19 -12 25 -10 54 18 44 41
96 57 165 48 45 -5 61 -13 91 -44 35 -35 72 -116 72 -157 0 -26 -31 -74 -74
-117 -33 -33 -35 -38 -24 -67 11 -32 6 -158 -7 -192 -6 -15 -10 -15 -48 -1
-29 10 -77 15 -152 15 -103 -1 -110 1 -132 24 -27 30 -28 32 -7 73 19 39 13
94 -14 131 -15 20 -28 25 -63 25 -38 0 -46 -4 -66 -34 -13 -19 -23 -44 -23
-56 0 -20 -7 -23 -57 -29 -32 -4 -65 -9 -74 -12 -11 -3 -15 4 -16 32 -1 50
-20 80 -59 99 -63 29 -115 -13 -122 -101 -4 -46 -1 -61 17 -84 26 -36 26 -42
1 -65 -11 -10 -20 -24 -20 -32 0 -16 -7 -16 -124 -2 -72 9 -105 9 -141 0 -26
-7 -50 -10 -52 -7 -11 11 -3 91 13 136 l17 48 -36 70 c-30 57 -37 81 -37 126
0 76 35 145 93 185 85 58 140 72 194 49z m197 -360 c26 -25 44 -68 27 -68 -5
0 -13 5 -16 10 -11 18 -58 11 -82 -12 l-23 -21 0 33 c0 35 32 80 56 80 7 0 24
-10 38 -22z m340 -22 c24 -51 19 -61 -15 -31 -25 20 -38 25 -60 20 -16 -4 -29
-3 -29 1 0 18 35 44 60 44 22 0 31 -8 44 -34z m-44 -56 c0 -5 -4 -10 -10 -10
-5 0 -10 5 -10 10 0 6 5 10 10 10 6 0 10 -4 10 -10z m-313 -22 c-3 -8 -6 -5
-6 6 -1 11 2 17 5 13 3 -3 4 -12 1 -19z m290 -43 c38 -19 93 -69 93 -84 0 -6
-24 -22 -52 -37 -29 -14 -67 -37 -84 -50 -31 -23 -33 -23 -64 -7 l-33 16 25
13 c56 30 57 103 1 125 -55 21 -121 -55 -79 -91 16 -13 21 -42 9 -53 -3 -4
-12 -2 -20 5 -10 8 -17 8 -24 1 -15 -15 25 -36 51 -28 10 3 21 1 25 -5 3 -5
15 -10 26 -10 27 0 24 -15 -13 -55 l-31 -35 -46 43 c-25 24 -72 58 -103 77
-32 19 -58 40 -58 47 0 16 87 91 133 115 78 40 180 45 244 13z m417 -137 c93
-47 95 -51 89 -126 -4 -55 -2 -70 11 -81 9 -7 16 -27 16 -43 0 -21 10 -39 31
-59 22 -21 29 -34 24 -49 -16 -51 26 -86 130 -105 l60 -11 0 -80 c-1 -142 -75
-314 -212 -487 -104 -132 -442 -468 -553 -550 -22 -16 -40 -32 -40 -36 0 -4
-13 -17 -30 -29 l-30 -22 -74 47 c-40 27 -100 67 -132 90 -33 23 -102 71 -153
107 -230 158 -438 380 -499 531 -44 111 -78 240 -88 339 l-7 66 47 -6 c70 -10
96 7 96 63 0 40 2 43 28 43 15 0 32 4 38 8 25 16 54 79 54 117 0 32 5 42 23
50 31 14 36 83 8 135 -24 46 -18 54 55 76 155 46 377 -26 471 -154 15 -20 30
-41 35 -46 4 -6 44 28 90 76 88 90 169 139 258 158 69 14 206 2 254 -22z
m-1283 -14 c14 -7 42 -31 63 -54 32 -36 37 -47 34 -83 -3 -39 -5 -42 -31 -39
l-28 3 6 -58 c5 -48 3 -64 -15 -91 -18 -30 -25 -33 -58 -30 l-37 3 -5 -55 -5
-55 -40 1 c-22 0 -51 3 -65 5 -24 4 -25 2 -25 -44 0 -117 -62 7 -76 153 -11
111 -1 176 35 240 36 65 76 99 132 115 51 13 71 12 115 -11z m1678 -5 c84 -18
157 -113 181 -236 7 -35 9 -82 6 -107 -10 -66 -62 -163 -120 -220 l-50 -51 -7
93 c-3 50 -9 95 -12 99 -4 4 -29 6 -55 4 -53 -2 -120 21 -129 45 -3 9 1 29 11
44 21 37 21 40 -9 40 -30 0 -65 32 -65 59 0 11 10 27 22 35 26 18 19 29 -19
30 -23 1 -29 6 -31 29 -4 37 19 71 70 103 71 45 118 52 207 33z m135 -655 c20
-20 21 -15 -10 -80 -42 -89 0 -88 46 1 29 55 47 66 67 39 20 -28 16 -53 -18
-106 -25 -38 -29 -52 -20 -61 13 -12 28 2 75 68 14 21 20 24 27 14 37 -59 -65
-246 -232 -426 -136 -147 -227 -231 -299 -278 -125 -81 -163 -79 -215 13 -25
43 -34 51 -52 47 -12 -3 -30 -2 -41 3 -18 6 0 28 135 167 86 88 150 149 143
136 -7 -14 -17 -30 -22 -35 -25 -29 -99 -151 -104 -173 -5 -17 0 -31 17 -49
41 -44 66 -35 244 86 74 50 226 213 273 291 40 67 20 127 -52 154 -62 24 -101
9 -183 -71 -36 -35 -68 -62 -71 -59 -3 3 2 13 10 22 28 32 98 164 111 211 13
43 17 47 78 74 76 32 73 32 93 12z m-2035 -75 c59 -30 91 -66 91 -103 0 -24
47 -125 86 -183 38 -57 133 -165 174 -198 39 -31 150 -138 150 -144 -1 -7 -72
-41 -88 -41 -6 0 -10 12 -9 28 1 18 -3 27 -13 27 -12 0 -16 -18 -20 -76 -4
-45 -12 -85 -20 -95 -33 -41 -54 -54 -92 -54 -66 0 -133 45 -218 145 -23 28
-76 85 -116 127 -41 42 -74 81 -74 87 0 5 -4 11 -8 13 -14 5 -119 201 -131
243 -13 48 -13 56 -1 75 7 12 13 11 34 -9 16 -15 31 -21 42 -17 15 6 15 8 0
29 -33 45 -54 101 -44 120 16 30 59 18 87 -25 39 -61 79 -45 42 16 l-21 34 22
15 c33 23 58 21 127 -14z m2002 -156 c59 -35 33 -95 -105 -240 -85 -90 -195
-180 -273 -224 -40 -23 -43 -23 -59 -7 -21 21 -16 35 53 140 129 198 274 348
336 348 10 0 32 -8 48 -17z" id="node2" class="node"></path>
<path d="M981 2260 c-28 -29 -51 -83 -51 -123 0 -29 28 -87 45 -93 11 -4 35
15 77 61 34 37 72 71 85 76 34 13 30 51 -8 83 -45 38 -107 36 -148 -4z m114
-12 c14 -6 25 -14 25 -17 0 -15 -139 -143 -149 -137 -39 24 35 166 86 166 7 0
24 -5 38 -12z" id="node3" class="node"></path>
<path d="M1879 2271 l-24 -19 63 -60 c44 -43 62 -67 62 -86 0 -15 8 -30 19
-36 27 -14 27 -14 50 26 14 23 21 52 21 86 0 43 -4 54 -31 79 -26 24 -39 29
-84 29 -37 0 -60 -6 -76 -19z m138 -33 c24 -23 31 -71 13 -98 -9 -13 -14 -10
-36 15 -15 17 -37 43 -51 58 -13 15 -21 32 -18 37 11 18 68 11 92 -12z" id="node4" class="node"></path>
<path d="M439 829 c-53 -23 -89 -76 -89 -131 0 -74 255 -402 352 -454 44 -23
95 -18 113 10 19 29 13 98 -15 161 -10 22 -28 63 -40 90 -73 169 -147 274
-224 319 -24 14 -46 26 -48 26 -2 -1 -24 -10 -49 -21z m81 -39 c81 -41 221
-280 269 -457 32 -119 -53 -91 -205 68 -33 35 -67 75 -74 89 -7 14 -25 41 -40
60 -15 19 -42 62 -59 95 -37 72 -33 102 18 140 42 30 42 30 91 5z" id="node5" class="node"></path>
</g>
<g transform="translate(0.000000,287.000000) scale(0.100000,-0.100000)" fill="#A3A4A0" stroke="none">

<path d="M106 2799 c-55 -43 -73 -128 -38 -180 9 -15 49 -57 87 -95 96 -93
152 -204 169 -332 6 -42 13 -51 22 -26 4 10 24 55 44 99 52 114 88 141 254
190 163 48 204 159 93 248 -39 30 -45 32 -122 31 -88 -2 -130 -16 -163 -59
-27 -35 -48 -31 -75 13 -29 45 -99 109 -133 122 -44 17 -109 12 -138 -11z" id="node7" class="node"></path>
<path d="M1041 2363 c-113 -49 -171 -127 -171 -229 0 -45 7 -69 37 -126 l36
-70 -17 -48 c-16 -45 -24 -125 -13 -136 2 -3 26 0 52 7 36 9 69 9 141 0 117
-14 124 -14 124 2 0 8 9 22 20 32 25 23 25 29 -1 65 -18 23 -21 38 -17 84 7
88 59 130 122 101 39 -19 58 -49 59 -99 1 -28 5 -35 16 -32 9 3 42 8 74 12 50
6 57 9 57 29 0 12 10 37 23 56 20 30 28 34 66 34 35 0 48 -5 63 -25 27 -37 33
-92 14 -131 -21 -41 -20 -43 7 -73 22 -23 29 -25 132 -24 75 0 123 -5 152 -15
38 -14 42 -14 48 1 13 34 18 160 7 192 -11 29 -9 34 24 67 43 43 74 91 74 117
0 41 -37 122 -72 157 -30 31 -46 39 -91 44 -69 9 -121 -7 -165 -48 -29 -28
-35 -30 -54 -18 -91 57 -112 64 -198 67 -111 3 -176 -8 -252 -45 l-62 -29 -46
37 c-77 63 -122 74 -189 44z m88 -99 c38 -32 42 -70 8 -83 -13 -5 -51 -39 -85
-76 -42 -46 -66 -65 -77 -61 -17 6 -45 64 -45 93 0 40 23 94 51 123 41 40 103
42 148 4z m910 -3 c27 -25 31 -36 31 -79 0 -34 -7 -63 -21 -86 -23 -40 -23
-40 -50 -26 -11 6 -19 21 -19 36 0 19 -18 43 -62 86 l-63 60 24 19 c16 13 39
19 76 19 45 0 58 -5 84 -29z" id="node8" class="node"></path>
<path d="M1021 2244 c-24 -17 -61 -92 -61 -124 0 -40 24 -30 91 36 38 38 69
72 69 75 0 7 -47 29 -63 29 -7 0 -23 -7 -36 -16z" id="node9" class="node"></path>
<path d="M1925 2250 c-3 -5 5 -22 18 -37 14 -15 36 -41 51 -58 22 -25 27 -28
36 -15 18 27 11 75 -13 98 -24 23 -81 30 -92 12z" id="node10" class="node"></path>
<path d="M1282 2007 c-14 -14 -22 -36 -22 -57 l0 -33 23 21 c24 23 71 30 82
12 12 -19 26 -10 20 13 -8 25 -50 67 -69 67 -7 0 -22 -10 -34 -23z" id="node11" class="node"></path>
<path d="M1607 2002 c-24 -27 -21 -34 12 -27 22 5 35 0 60 -20 34 -30 39 -20
15 31 -13 26 -22 34 -44 34 -15 0 -34 -8 -43 -18z" id="node12" class="node"></path>
<path d="M1630 1930 c0 -5 5 -10 10 -10 6 0 10 5 10 10 0 6 -4 10 -10 10 -5 0
-10 -4 -10 -10z" id="node13" class="node"></path>
<path d="M1331 1914 c0 -11 3 -14 6 -6 3 7 2 16 -1 19 -3 4 -6 -2 -5 -13z" id="node14" class="node"></path>
<path d="M1463 1880 c-22 -5 -58 -17 -80 -28 -46 -24 -133 -99 -133 -115 0 -7
26 -28 58 -47 31 -19 78 -53 103 -77 l46 -43 31 35 c37 40 40 55 13 55 -11 0
-23 5 -26 10 -4 6 -15 8 -25 5 -26 -8 -66 13 -51 28 7 7 14 7 24 -1 8 -7 17
-9 20 -5 12 11 7 40 -9 53 -42 36 24 112 79 91 56 -22 55 -95 -1 -125 l-25
-13 33 -16 c31 -16 33 -16 64 7 17 13 55 36 84 50 28 15 52 31 52 37 0 15 -55
65 -93 84 -40 20 -109 27 -164 15z" id="node15" class="node"></path>
<path d="M1790 1750 c-89 -19 -170 -68 -258 -158 -46 -48 -86 -82 -90 -76 -5
5 -20 26 -35 46 -94 128 -316 200 -471 154 -73 -22 -79 -30 -55 -76 28 -52 23
-121 -8 -135 -18 -8 -23 -18 -23 -50 0 -38 -29 -101 -54 -117 -6 -4 -23 -8
-38 -8 -26 0 -28 -3 -28 -43 0 -56 -26 -73 -96 -63 l-47 6 7 -66 c10 -99 44
-228 88 -339 61 -151 269 -373 499 -531 51 -36 120 -84 153 -107 32 -23 92
-63 132 -90 l74 -47 30 22 c17 12 30 25 30 29 0 4 18 20 40 36 111 82 449 418
553 550 137 173 211 345 212 487 l0 80 -60 11 c-104 19 -146 54 -130 105 5 15
-2 28 -24 49 -21 20 -31 38 -31 59 0 16 -7 36 -16 43 -13 11 -15 26 -11 81 6
75 4 79 -89 126 -48 24 -185 36 -254 22z" id="node16" class="node"></path>
<path d="M646 1725 c-56 -16 -96 -50 -132 -115 -36 -64 -46 -129 -35 -240 14
-146 76 -270 76 -153 0 46 1 48 25 44 14 -2 43 -5 65 -5 l40 -1 5 55 5 55 37
-3 c33 -3 40 0 58 30 18 27 20 43 15 91 l-6 58 28 -3 c26 -3 28 0 31 39 3 36
-2 47 -34 83 -62 68 -106 84 -178 65z" id="node17" class="node"></path>
<path d="M2300 1711 c-40 -13 -108 -58 -125 -85 -9 -14 -15 -37 -13 -53 2 -23
8 -28 31 -29 38 -1 45 -12 19 -30 -12 -8 -22 -24 -22 -35 0 -27 35 -59 65 -59
30 0 30 -3 9 -40 -10 -15 -14 -35 -11 -44 9 -24 76 -47 129 -45 26 2 51 0 55
-4 3 -4 9 -49 12 -99 l7 -93 50 51 c58 57 110 154 120 220 8 54 -10 153 -38
207 -11 22 -37 58 -59 82 -31 34 -51 46 -90 54 -57 12 -102 13 -139 2z" id="node18" class="node"></path>
<path d="M2481 1042 c-61 -27 -65 -31 -78 -74 -13 -47 -83 -179 -111 -211 -8
-9 -13 -19 -10 -22 3 -3 35 24 71 59 82 80 121 95 183 71 72 -27 92 -87 52
-154 -47 -78 -199 -241 -273 -291 -178 -121 -203 -130 -244 -86 -17 18 -22 32
-17 49 5 22 79 144 104 173 5 5 15 21 22 35 7 13 -57 -48 -143 -136 -135 -139
-153 -161 -135 -167 11 -5 29 -6 41 -3 18 4 27 -4 52 -47 52 -92 90 -94 215
-13 72 47 163 131 299 278 167 180 269 367 232 426 -7 10 -13 7 -27 -14 -47
-66 -62 -80 -75 -68 -9 9 -5 23 20 61 34 53 38 78 18 106 -20 27 -38 16 -67
-39 -46 -89 -88 -90 -46 -1 31 65 30 60 10 80 -20 20 -17 20 -93 -12z" id="node19" class="node"></path>
<path d="M412 993 l-22 -15 21 -34 c37 -61 -3 -77 -42 -16 -28 43 -71 55 -87
25 -10 -19 11 -75 44 -120 15 -21 15 -23 0 -29 -11 -4 -26 2 -42 17 -21 20
-27 21 -34 9 -12 -19 -12 -27 1 -75 12 -42 117 -238 131 -243 4 -2 8 -8 8 -13
0 -6 33 -45 74 -87 40 -42 93 -99 116 -127 85 -100 152 -145 218 -145 38 0 59
13 92 54 8 10 16 50 20 95 4 58 8 76 20 76 10 0 14 -9 13 -27 -1 -16 3 -28 9
-28 16 0 87 34 88 41 0 6 -111 113 -150 144 -41 33 -136 141 -174 198 -39 58
-86 159 -86 183 0 37 -32 73 -91 103 -69 35 -94 37 -127 14z m124 -169 c77
-45 151 -150 224 -319 12 -27 30 -68 40 -90 28 -63 34 -132 15 -161 -18 -28
-69 -33 -113 -10 -97 52 -352 380 -352 454 0 55 36 108 89 131 25 11 47 20 49
21 2 0 24 -12 48 -26z" id="node20" class="node"></path>
<path d="M429 785 c-51 -38 -55 -68 -18 -140 17 -33 44 -76 59 -95 15 -19 33
-46 40 -60 7 -14 41 -54 74 -89 152 -159 237 -187 205 -68 -48 177 -188 416
-269 457 -49 25 -49 25 -91 -5z" id="node21" class="node"></path>
<path d="M2429 812 c-62 -41 -179 -178 -272 -320 -69 -105 -74 -119 -53 -140
16 -16 19 -16 59 7 78 44 188 134 273 224 138 145 164 205 105 240 -40 24 -60
21 -112 -11z" id="node22" class="node"></path>
</g>
</svg>