<!--?xml version="1.0" standalone="no"?-->

<svg version="1.0" xmlns="http://www.w3.org/2000/svg" width="300.000000pt" height="300.000000pt" viewBox="0 0 300.000000 300.000000" preserveAspectRatio="xMidYMid meet">
<g transform="translate(0.000000,300.000000) scale(0.100000,-0.100000)" fill="#232323" stroke="none">
<path d="M435 2443 c-27 -2 -61 -6 -74 -9 -41 -9 -4 -24 59 -24 82 0 152 -22
208 -64 127 -97 127 -232 0 -297 -94 -48 -187 -31 -235 44 -24 37 -27 52 -27
119 0 75 0 77 -18 61 -25 -22 -58 -98 -65 -149 -10 -72 19 -171 80 -278 71
-124 272 -304 403 -361 43 -19 80 -32 82 -30 3 2 -15 26 -39 53 -122 135 -138
289 -43 400 67 78 137 100 266 83 170 -23 312 -98 423 -223 l49 -56 70 73 c85
86 138 123 231 160 136 54 268 65 355 29 79 -33 150 -141 150 -228 0 -77 -84
-236 -142 -267 -21 -11 -24 -29 -5 -29 6 0 39 13 73 29 191 90 396 298 464
471 31 77 31 200 1 263 -12 24 -30 52 -41 62 -18 17 -19 15 -17 -57 1 -64 -3
-81 -26 -120 -46 -79 -139 -98 -235 -49 -68 35 -108 104 -96 167 7 39 76 121
128 153 36 23 118 42 181 42 22 0 48 3 59 6 76 22 -182 39 -344 24 -233 -23
-413 -94 -575 -228 -55 -45 -164 -168 -176 -198 -3 -5 -15 -28 -29 -49 -21
-35 -25 -37 -34 -21 -68 116 -167 231 -262 303 -196 150 -470 217 -799 195z" id="node1" class="node"></path>
<path d="M2767 1923 c-49 -307 -157 -480 -377 -602 -172 -97 -234 -135 -291
-178 -214 -162 -435 -475 -508 -719 -24 -80 -25 -94 -11 -94 6 0 10 6 10 14 0
18 80 137 136 203 25 29 87 94 139 146 52 52 95 99 95 106 0 44 115 217 188
283 112 102 281 198 346 198 32 0 36 -3 36 -26 0 -15 -9 -42 -21 -60 -11 -19
-17 -34 -12 -34 11 0 121 114 155 160 73 101 140 304 152 468 7 86 -2 242 -13
242 -4 0 -15 -48 -24 -107z" id="node2" class="node"></path>
<path d="M205 1927 c-13 -172 31 -383 112 -538 35 -67 147 -200 186 -220 20
-12 20 -11 -1 25 -12 21 -22 48 -22 62 0 21 5 24 36 24 42 0 162 -58 254 -123
125 -88 235 -223 270 -333 9 -28 49 -76 139 -169 134 -137 207 -231 240 -308
11 -26 22 -47 24 -47 8 0 -11 85 -34 151 -68 199 -192 392 -363 564 -123 124
-207 186 -371 275 -100 54 -180 108 -224 151 -45 44 -115 153 -140 217 -24 59
-67 235 -76 310 -4 28 -11 52 -15 52 -4 0 -11 -42 -15 -93z" id="node3" class="node"></path>
<path d="M930 1891 l-45 -6 75 -23 c115 -36 227 -97 292 -159 31 -31 60 -64
63 -74 4 -11 15 -19 25 -19 21 0 83 -72 124 -142 16 -27 31 -50 36 -53 4 -3
29 28 56 68 59 89 93 127 114 127 8 0 23 12 33 28 58 93 201 183 365 228 50
14 60 20 46 27 -21 12 -162 1 -229 -17 -118 -32 -254 -113 -328 -196 -25 -28
-48 -50 -52 -50 -3 0 -33 28 -67 61 -56 57 -184 149 -206 149 -5 0 -29 9 -53
19 -24 11 -71 22 -104 26 -33 3 -69 7 -80 9 -11 1 -40 0 -65 -3z" id="node4" class="node"></path>
<path d="M878 1782 c251 -187 397 -356 509 -592 41 -86 87 -222 99 -295 12
-70 21 -73 34 -9 34 168 114 352 223 514 63 93 259 290 350 350 91 61 61 64
-59 6 -122 -59 -219 -131 -324 -243 -79 -83 -190 -231 -190 -253 0 -26 -23 -3
-73 73 -110 163 -296 337 -432 402 -137 66 -183 81 -137 47z" id="node5" class="node"></path>
<path d="M380 1694 c0 -3 15 -34 33 -67 58 -110 190 -230 352 -322 265 -149
408 -271 548 -472 69 -98 177 -343 177 -399 0 -37 23 -2 50 76 42 119 130 293
190 372 82 108 234 245 359 323 352 219 447 299 512 426 35 70 32 87 -7 38
-87 -108 -245 -230 -379 -293 -33 -15 -67 -31 -75 -35 -24 -13 -132 -43 -136
-38 -6 5 33 114 59 167 34 68 102 173 126 194 22 20 27 36 11 36 -18 0 -148
-131 -181 -181 -35 -55 -49 -52 -49 11 0 34 0 34 -16 12 -23 -33 -61 -134 -74
-197 -13 -62 -30 -64 -30 -4 0 21 -5 39 -11 39 -17 0 -37 -62 -57 -177 -16
-97 -23 -116 -53 -154 -56 -70 -104 -149 -137 -224 -44 -102 -72 -178 -72
-197 0 -45 -21 -19 -50 65 -43 122 -121 271 -180 344 -40 50 -48 67 -54 118
-9 74 -34 182 -47 207 -16 30 -29 20 -29 -22 0 -22 -4 -40 -9 -40 -11 0 -15
13 -31 83 -6 27 -25 78 -42 115 l-32 67 -5 -45 c-3 -25 -9 -45 -12 -45 -3 0
-33 34 -66 76 -56 69 -139 149 -157 149 -4 0 3 -13 16 -29 80 -100 164 -260
182 -347 l7 -32 -68 23 c-201 66 -422 213 -518 344 -27 37 -45 51 -45 35z" id="node6" class="node"></path>
<path d="M590 1146 c0 -18 89 -100 180 -167 108 -79 128 -90 135 -79 20 32
-124 188 -217 236 -52 27 -98 32 -98 10z" id="node7" class="node"></path>
<path d="M2320 1137 c-84 -42 -210 -177 -210 -226 0 -17 22 -13 50 10 14 11
48 35 76 54 70 48 184 154 184 171 0 21 -48 17 -100 -9z" id="node8" class="node"></path>
</g>
<g transform="translate(0.000000,300.000000) scale(0.100000,-0.100000)" fill="#FFFFFF" stroke="none">

</g>
</svg>