<!--?xml version="1.0" standalone="no"?-->

<svg version="1.0" xmlns="http://www.w3.org/2000/svg" width="273.000000pt" height="300.000000pt" viewBox="0 0 273.000000 300.000000" preserveAspectRatio="xMidYMid meet">
<g transform="translate(0.000000,300.000000) scale(0.100000,-0.100000)" fill="#0B0B0B" stroke="none">
<path d="M1057 2957 c-177 -130 -263 -384 -193 -571 36 -94 66 -136 153 -211
106 -92 158 -157 193 -242 34 -82 36 -104 13 -143 -23 -40 -56 -53 -104 -40
-36 10 -69 33 -199 141 -62 51 -120 81 -220 114 -109 35 -181 69 -207 97 -32
36 -63 100 -63 132 0 44 -15 22 -39 -58 -23 -75 -27 -156 -10 -204 12 -36 7
-48 -50 -117 -22 -27 -66 -96 -98 -154 -61 -113 -152 -220 -204 -242 -22 -9
-27 -14 -17 -20 17 -11 113 -11 163 1 47 11 55 5 74 -55 77 -232 168 -345 418
-513 90 -61 179 -147 202 -195 11 -24 22 -71 24 -110 2 -37 7 -70 10 -73 8 -8
23 24 32 66 4 19 13 50 21 68 12 30 15 32 36 21 116 -61 280 -280 362 -481 8
-21 21 -38 28 -38 8 0 24 21 37 47 72 149 348 498 379 479 5 -3 12 -31 15 -63
3 -32 11 -71 18 -88 12 -30 13 -29 19 30 11 102 58 186 159 284 48 47 134 123
190 169 157 128 235 243 279 412 l19 74 94 -2 c64 -1 102 2 118 12 28 15 24
18 -50 40 -71 20 -113 64 -173 183 -24 49 -69 124 -101 167 -52 74 -55 81 -44
107 19 48 14 168 -12 247 -23 72 -39 92 -39 49 0 -13 -7 -48 -16 -78 -25 -86
-92 -144 -224 -193 -164 -62 -199 -82 -295 -176 -98 -96 -120 -110 -162 -110
-89 0 -131 125 -79 235 18 39 52 76 149 163 69 62 140 131 158 153 40 51 69
136 69 204 0 125 -81 293 -205 426 -61 65 -73 70 -32 13 65 -92 109 -203 128
-327 9 -60 8 -76 -11 -138 -24 -81 -70 -134 -124 -145 -71 -13 -86 16 -86 172
0 60 -6 110 -16 141 -16 47 -72 138 -80 130 -2 -2 3 -23 11 -47 32 -91 7 -256
-50 -315 -38 -41 -48 -42 -93 -15 -56 34 -77 96 -76 220 1 58 6 117 12 133 18
43 0 32 -35 -23 -44 -66 -72 -175 -77 -290 -3 -83 -5 -95 -26 -112 -29 -23
-33 -23 -69 8 -61 51 -91 153 -91 308 0 137 31 228 116 339 20 26 34 47 32 47
-1 -1 -29 -20 -61 -43z m341 -817 c29 0 45 -5 48 -15 9 -22 -58 -146 -76 -143
-20 4 -104 144 -95 158 5 8 21 10 44 6 20 -3 55 -6 79 -6z m-673 -345 c126
-29 255 -107 385 -231 77 -74 125 -146 142 -213 10 -40 12 -196 3 -211 -10
-17 16 -11 45 10 16 11 38 40 50 65 12 25 26 45 32 45 5 0 30 -18 55 -40 25
-22 54 -40 65 -40 18 0 17 2 -3 42 -44 86 3 199 135 326 82 79 228 182 322
228 68 33 145 39 209 17 28 -10 50 -24 50 -32 0 -8 -27 -22 -65 -35 -129 -42
-180 -109 -225 -301 -26 -107 -31 -155 -17 -155 4 0 17 28 30 63 46 127 123
196 219 197 59 0 88 -16 108 -61 46 -102 -36 -262 -169 -331 -60 -31 -161 -22
-246 20 -102 51 -157 109 -186 196 -13 40 -13 39 -10 -49 2 -71 7 -100 26
-135 43 -83 98 -156 139 -183 23 -15 41 -33 41 -41 0 -7 -15 -25 -32 -38 -115
-88 -240 -97 -338 -27 -22 16 -42 29 -45 29 -20 0 30 -113 76 -170 l32 -39
-35 -43 c-19 -24 -58 -85 -87 -136 -29 -50 -56 -92 -61 -92 -4 0 -30 37 -56
83 -26 45 -58 96 -71 113 -29 39 -29 55 2 84 40 38 86 127 92 181 7 56 -2 61
-38 23 -98 -105 -281 -102 -384 6 l-30 31 67 62 c37 34 78 80 92 102 56 90 70
223 33 305 l-15 35 -1 -51 c-1 -31 -10 -69 -25 -100 -33 -67 -117 -158 -169
-183 -53 -26 -148 -28 -202 -5 -54 22 -136 112 -175 190 -27 56 -32 74 -28
120 5 64 32 98 89 115 94 29 243 -80 264 -194 10 -50 17 -25 13 48 -6 98 -35
179 -84 229 -40 41 -131 86 -174 86 -37 0 -60 9 -60 24 0 19 55 55 97 65 52
12 51 12 118 -4z" id="node1" class="node"></path>


</g>
<g transform="translate(0.000000,300.000000) scale(0.100000,-0.100000)" fill="#A7A7A7" stroke="none">


<path d="M1275 2140 c-9 -14 75 -154 95 -158 18 -3 85 121 76 143 -3 10 -19
15 -48 15 -24 0 -59 3 -79 6 -23 4 -39 2 -44 -6z" id="node6" class="node"></path>
<path d="M607 1799 c-42 -10 -97 -46 -97 -65 0 -15 23 -24 60 -24 43 0 134
-45 174 -86 49 -50 78 -131 84 -229 4 -73 -3 -98 -13 -48 -21 114 -170 223
-264 194 -57 -17 -84 -51 -89 -115 -4 -46 1 -64 28 -120 39 -78 121 -168 175
-190 54 -23 149 -21 202 5 52 25 136 116 169 183 15 31 24 69 25 100 l1 51 15
-35 c37 -82 23 -215 -33 -305 -14 -22 -55 -68 -92 -102 l-67 -62 30 -31 c103
-108 286 -111 384 -6 36 38 45 33 38 -23 -6 -54 -52 -143 -92 -181 -31 -29
-31 -45 -2 -84 13 -17 45 -68 71 -113 26 -46 52 -83 56 -83 5 0 32 42 61 92
29 51 68 112 87 136 l35 43 -32 39 c-46 57 -96 170 -76 170 3 0 23 -13 45 -29
98 -70 223 -61 338 27 17 13 32 31 32 38 0 8 -18 26 -41 41 -41 27 -96 100
-139 183 -19 35 -24 64 -26 135 -3 88 -3 89 10 49 29 -87 84 -145 186 -196 85
-42 186 -51 246 -20 133 69 215 229 169 331 -20 45 -49 61 -108 61 -96 -1
-173 -70 -219 -197 -13 -35 -26 -63 -30 -63 -14 0 -9 48 17 155 45 192 96 259
225 301 38 13 65 27 65 35 0 8 -22 22 -50 32 -64 22 -141 16 -209 -17 -94 -46
-240 -149 -322 -228 -132 -127 -179 -240 -135 -326 20 -40 21 -42 3 -42 -11 0
-40 18 -65 40 -25 22 -50 40 -55 40 -6 0 -20 -20 -32 -45 -12 -25 -34 -54 -50
-65 -29 -21 -55 -27 -45 -10 9 15 7 171 -3 211 -17 67 -65 139 -142 213 -130
124 -259 202 -385 231 -67 16 -66 16 -118 4z" id="node7" class="node"></path>

</g>
</svg>