<!--?xml version="1.0" standalone="no"?-->

<svg version="1.0" xmlns="http://www.w3.org/2000/svg" width="284.000000pt" height="300.000000pt" viewBox="0 0 284.000000 300.000000" preserveAspectRatio="xMidYMid meet">
<g transform="translate(0.000000,300.000000) scale(0.100000,-0.100000)" fill="#010103" stroke="none">

<path d="M1244 2040 c-11 -4 -33 -22 -47 -40 -34 -39 -35 -92 -6 -156 21 -44
126 -156 240 -255 l56 -48 131 125 c149 142 189 203 179 275 -10 76 -67 113
-163 107 -68 -4 -87 -15 -134 -80 l-27 -37 -17 41 c-24 54 -67 78 -136 77 -30
0 -64 -4 -76 -9z" id="node2" class="node"></path>



</g>
<g transform="translate(0.000000,300.000000) scale(0.100000,-0.100000)" fill="#BB6A9C" stroke="none">
<path d="M740 2289 c0 -45 -43 -223 -61 -253 -15 -24 -19 -50 -19 -118 l0 -86
53 -54 c28 -29 75 -73 102 -98 28 -24 67 -64 88 -89 43 -53 95 -177 80 -192
-7 -7 -13 4 -17 31 -10 62 -60 143 -134 212 -36 35 -92 89 -124 120 l-58 57 0
63 c0 87 -30 198 -54 198 -7 0 -12 -44 -14 -138 l-3 -137 62 -110 c79 -140 97
-181 109 -245 9 -47 6 -62 -31 -178 -22 -70 -44 -136 -49 -147 -5 -11 -25 -69
-46 -130 -60 -179 -78 -228 -169 -480 -48 -132 -107 -294 -130 -360 -24 -66
-46 -128 -50 -137 -7 -17 5 -18 168 -18 l175 0 10 42 c61 262 109 450 197 773
24 89 93 310 121 388 13 38 24 77 24 88 0 16 5 19 19 14 16 -5 26 4 48 42 26
44 28 56 27 148 0 78 -5 113 -23 160 -50 131 -66 209 -55 264 12 56 5 63 -33
36 -34 -24 -47 -86 -33 -163 6 -35 9 -67 6 -69 -6 -6 -54 28 -83 59 -12 12
-37 47 -57 77 l-35 54 -6 -29 c-11 -48 -13 -51 -14 -14 -2 67 16 103 79 160
51 47 63 64 77 113 9 31 13 60 10 64 -4 3 -29 -13 -56 -35 -27 -23 -52 -42
-56 -42 -3 0 -3 29 1 63 5 52 3 69 -11 90 -21 32 -35 35 -35 6z m258 -945 c-3
-14 -5 -12 -10 9 -3 19 -2 25 4 19 6 -6 8 -18 6 -28z" id="node6" class="node"></path>
<path d="M1917 2303 c-11 -10 -8 -61 3 -68 16 -10 12 -25 -5 -19 -20 8 -30
-40 -17 -84 6 -21 32 -68 57 -106 73 -111 116 -283 96 -383 -7 -34 -5 -43 7
-45 33 -7 -111 -82 -180 -93 -23 -3 -45 -16 -58 -32 -38 -48 -30 -53 78 -46
84 5 107 3 158 -15 32 -11 80 -23 107 -27 62 -10 92 -34 106 -89 14 -55 14
-166 0 -226 -8 -39 -96 -313 -285 -888 -30 -90 -54 -168 -54 -173 0 -5 69 -9
159 -9 l158 0 6 38 c8 54 33 179 62 317 14 66 34 163 44 215 11 52 36 176 56
275 29 138 39 212 42 316 9 236 -15 347 -128 592 l-59 130 2 116 c2 94 -1 122
-15 148 -9 18 -17 41 -17 52 0 33 -18 34 -34 2 -14 -26 -14 -34 -1 -72 18 -49
17 -163 0 -149 -6 5 -33 51 -60 102 -27 51 -66 118 -87 149 -21 31 -38 62 -38
69 0 24 -25 3 -28 -24 -4 -32 7 -50 82 -135 32 -35 55 -66 52 -68 -10 -11
-126 122 -156 180 -30 55 -39 64 -53 50z m33 -110 c0 -5 12 -21 26 -38 60 -69
135 -193 134 -222 0 -4 -15 17 -32 47 -17 30 -46 74 -64 96 -18 23 -39 53 -45
68 -7 14 -16 26 -20 26 -4 0 -9 7 -13 15 -3 8 -1 15 4 15 6 0 10 -3 10 -7z
m200 -168 c0 -5 -5 -3 -10 5 -5 8 -10 20 -10 25 0 6 5 3 10 -5 5 -8 10 -19 10
-25z" id="node7" class="node"></path>
<path d="M1235 2071 c-80 -36 -117 -109 -96 -187 21 -79 63 -128 286 -337 l60
-56 59 57 c264 254 289 286 290 378 0 62 -33 113 -94 144 -74 38 -191 15 -239
-45 l-18 -24 -29 30 c-16 17 -41 37 -56 45 -37 19 -115 17 -163 -5z m171 -40
c18 -11 40 -37 50 -59 l17 -41 27 37 c47 65 66 76 134 80 96 6 153 -31 163
-107 10 -72 -30 -133 -179 -275 l-131 -125 -56 48 c-114 99 -219 211 -240 255
-29 64 -28 117 6 156 33 40 54 49 123 49 37 1 65 -5 86 -18z" id="node8" class="node"></path>
</g>
</svg>