<!--?xml version="1.0" standalone="no"?-->

<svg version="1.0" xmlns="http://www.w3.org/2000/svg" width="288.000000pt" height="300.000000pt" viewBox="0 0 288.000000 300.000000" preserveAspectRatio="xMidYMid meet">
<g transform="translate(0.000000,300.000000) scale(0.100000,-0.100000)" fill="#4D4D4D" stroke="none">
<path class="node" id="node1" d="M840 2595 c-117 -41 -177 -94 -224 -196 -13 -30 -28 -80 -31 -110 -4
-29 -11 -70 -16 -89 -10 -41 3 -195 24 -290 22 -94 97 -281 179 -442 63 -124
71 -146 72 -199 1 -53 -2 -63 -24 -81 -88 -71 -353 108 -483 327 -46 78 -127
284 -127 324 0 26 -10 51 -21 51 -12 0 -11 -72 0 -141 6 -30 15 -88 21 -129
18 -115 62 -241 129 -370 53 -102 59 -113 90 -155 17 -22 46 -64 66 -93 40
-58 220 -242 300 -308 84 -68 225 -156 298 -186 98 -40 185 -39 249 1 44 28
78 67 92 105 5 15 10 11 29 -25 14 -25 43 -56 71 -76 43 -29 56 -33 116 -33
80 0 150 24 257 86 40 24 78 47 85 53 7 6 36 28 63 49 70 54 277 255 297 289
9 16 28 42 42 58 80 92 187 289 239 445 45 133 85 430 58 430 -5 0 -12 -19
-16 -42 -12 -75 -64 -210 -118 -308 -70 -128 -222 -285 -322 -331 -136 -64
-195 -47 -195 54 0 57 33 155 69 205 53 75 155 332 186 467 21 94 24 259 7
355 -32 174 -149 290 -322 322 -182 34 -423 -100 -510 -283 -23 -49 -31 -58
-35 -43 -37 117 -160 238 -303 298 -96 41 -196 44 -292 11z m271 -46 c110 -43
222 -140 271 -233 49 -96 43 -224 -17 -332 -18 -32 -47 -87 -64 -121 -30 -61
-43 -71 -67 -55 -16 10 -40 60 -54 112 -23 89 -79 116 -122 59 -13 -17 -44
-54 -69 -82 l-46 -51 -47 30 c-37 23 -50 39 -66 82 -24 63 -25 138 -5 206 18
58 19 76 4 76 -5 0 -20 -21 -32 -47 -17 -38 -21 -67 -21 -133 0 -108 22 -153
99 -210 44 -32 56 -48 65 -83 6 -23 15 -53 20 -67 4 -14 11 -38 15 -55 10 -46
54 -133 106 -210 28 -42 54 -97 64 -135 23 -83 90 -227 148 -316 79 -121 100
-178 101 -269 1 -69 -2 -85 -22 -113 -63 -87 -179 -95 -329 -22 -117 57 -193
114 -325 240 -97 93 -220 240 -271 325 -16 26 -90 177 -133 270 -19 43 -46
126 -42 131 3 2 27 -31 55 -74 54 -82 173 -218 232 -266 80 -64 195 -99 251
-76 39 16 70 71 70 123 -1 59 -27 131 -107 287 -86 168 -128 293 -151 448 -17
107 -17 131 -6 224 7 56 17 117 22 134 32 106 147 203 267 225 55 10 151 0
206 -22z m955 -10 c108 -51 171 -139 194 -269 23 -126 23 -165 0 -291 -29
-166 -66 -273 -161 -464 -95 -193 -110 -249 -84 -319 28 -73 86 -92 182 -60
95 32 225 147 320 283 18 25 36 51 41 56 4 6 18 27 31 48 28 46 40 41 17 -7
-9 -19 -16 -38 -16 -44 0 -12 -40 -104 -92 -210 -69 -140 -151 -255 -265 -373
-145 -150 -254 -236 -380 -300 -100 -52 -108 -54 -182 -54 -66 0 -83 4 -113
24 -104 72 -103 189 3 381 8 14 24 39 35 55 42 58 122 231 139 299 9 39 29 85
43 104 76 99 134 228 163 362 9 44 17 55 67 92 84 65 97 93 97 213 -1 86 -4
105 -24 138 -21 34 -41 48 -41 29 0 -5 7 -31 15 -58 38 -126 9 -253 -69 -299
l-43 -25 -33 27 c-17 16 -47 52 -66 81 -27 41 -39 52 -61 52 -38 0 -61 -26
-79 -89 -21 -72 -51 -121 -74 -121 -12 0 -29 21 -52 68 -19 37 -49 96 -68 131
-34 62 -35 69 -35 171 0 105 1 108 36 166 41 66 146 161 218 196 112 54 233
57 337 7z m-616 -490 c0 -7 21 -50 48 -96 87 -156 82 -134 71 -267 -9 -125
-19 -163 -77 -285 -45 -98 -50 -138 -22 -173 37 -48 120 -31 189 39 12 13 25
22 28 19 12 -12 -53 -152 -117 -252 -39 -60 -77 -131 -86 -159 -9 -27 -20 -54
-25 -60 -5 -5 -9 -17 -9 -28 0 -10 -4 -15 -10 -12 -5 3 -10 14 -10 24 0 24
-75 175 -122 244 -22 32 -53 88 -70 125 -16 37 -34 75 -39 84 -5 10 -9 25 -9
35 0 13 9 8 38 -18 56 -54 83 -69 122 -69 49 0 80 30 80 77 0 22 -20 79 -51
147 -55 118 -67 176 -70 313 -1 70 2 88 21 120 53 87 100 177 100 189 0 8 5
14 10 14 6 0 10 -5 10 -11z m-317 -84 c9 -8 18 -34 22 -57 11 -67 38 -120 82
-159 43 -39 55 -72 69 -189 3 -30 15 -75 26 -100 32 -73 68 -171 68 -186 0 -7
-12 -21 -26 -31 -26 -16 -28 -16 -78 10 -64 35 -89 57 -148 132 -56 71 -117
200 -147 308 -27 101 -27 136 4 178 13 19 36 51 50 72 27 39 54 47 78 22z
m684 -12 c9 -16 32 -45 50 -66 52 -59 46 -129 -30 -322 -33 -85 -46 -107 -116
-195 -46 -59 -84 -90 -144 -121 -61 -32 -106 -3 -88 57 12 39 39 103 55 134
18 33 43 130 52 204 6 52 12 65 55 112 59 65 65 76 74 139 11 83 58 112 92 58z"></path>
<path class="node" id="node2" d="M1263 2032 c-28 -59 -31 -73 -16 -79 10 -4 53 91 53 117 0 23 -17 6
-37 -38z"></path>
<path class="node" id="node3" d="M1220 645 c0 -12 24 -55 32 -55 11 0 10 17 -2 41 -9 17 -30 27 -30
14z"></path>
<path class="node" id="node4" d="M1305 610 c-10 -11 -15 -23 -12 -27 8 -7 47 25 47 39 0 14 -16 9 -35
-12z"></path>
<path class="node" id="node5" d="M1260 565 c0 -8 5 -15 10 -15 6 0 10 7 10 15 0 8 -4 15 -10 15 -5 0
-10 -7 -10 -15z"></path>
<path class="node" id="node6" d="M1175 560 c-4 -6 8 -10 29 -10 20 0 36 5 36 10 0 6 -13 10 -29 10
-17 0 -33 -4 -36 -10z"></path>
<path class="node" id="node7" d="M1605 2020 c12 -60 16 -70 32 -70 20 0 10 43 -19 79 l-20 26 7 -35z"></path>
<path class="node" id="node8" d="M1628 625 c-12 -26 -4 -46 11 -29 5 5 12 19 16 32 9 31 -12 29 -27
-3z"></path>
<path class="node" id="node9" d="M1540 622 c0 -12 34 -42 48 -42 7 0 12 -7 12 -15 0 -16 12 -20 23 -8
4 3 -10 21 -31 39 -38 34 -52 41 -52 26z"></path>
<path class="node" id="node10" d="M1645 560 c-4 -6 8 -10 30 -10 22 0 34 4 30 10 -3 6 -17 10 -30 10
-13 0 -27 -4 -30 -10z"></path>
<path class="node" id="node11" d="M540 2499 c-24 -16 -62 -46 -83 -67 l-39 -37 7 -63 c10 -98 83 -295
113 -307 9 -3 12 1 8 13 -3 9 -10 53 -17 97 -10 71 -9 90 10 175 11 52 30 119
41 148 32 83 29 86 -40 41z"></path>
<path class="node" id="node12" d="M2280 2520 c0 -6 9 -29 20 -52 11 -23 29 -86 41 -140 19 -90 20 -108
9 -199 -6 -56 -9 -103 -7 -105 9 -9 50 73 78 154 15 45 31 113 34 150 l6 67
-41 42 c-23 23 -62 54 -87 68 -52 28 -53 29 -53 15z"></path>
<path class="node" id="node13" d="M360 2333 c-61 -74 -95 -145 -82 -170 5 -10 20 -43 33 -73 48 -111
179 -257 278 -309 27 -15 28 -17 -35 74 -87 126 -146 272 -168 418 -11 72 -13
77 -26 60z"></path>
<path class="node" id="node14" d="M2496 2275 c-13 -126 -75 -281 -171 -425 -25 -37 -45 -71 -45 -74 0
-14 117 74 160 120 77 84 126 161 155 248 15 43 15 48 -6 88 -25 49 -68 108
-79 108 -4 0 -10 -29 -14 -65z"></path>
<path class="node" id="node15" d="M2630 2121 c0 -15 -55 -125 -93 -189 -63 -103 -231 -279 -322 -336
-48 -31 -10 -31 69 0 137 54 271 155 357 270 38 49 42 60 40 107 -1 54 -26
143 -42 152 -5 4 -9 1 -9 -4z"></path>
<path class="node" id="node16" d="M223 2083 c-8 -21 -18 -65 -20 -98 -5 -58 -4 -62 39 -120 54 -74 152
-160 237 -209 137 -79 262 -115 173 -50 -148 109 -297 289 -372 449 -17 36
-33 65 -36 65 -3 0 -12 -17 -21 -37z"></path>
<path class="node" id="node17" d="M270 1721 c0 -6 4 -19 9 -29 5 -9 23 -46 41 -82 50 -100 98 -158 143
-170 47 -14 242 -14 265 -1 16 9 15 10 -3 17 -166 58 -291 127 -389 216 -36
33 -66 55 -66 49z"></path>
<path class="node" id="node18" d="M2565 1684 c-94 -86 -179 -134 -400 -229 l-30 -13 38 -7 c61 -12 263
-1 282 15 29 24 96 129 131 206 18 41 32 74 31 74 -2 0 -25 -21 -52 -46z"></path>
<path class="node" id="node19" d="M738 1380 c-28 -17 -162 -24 -199 -11 -52 18 -53 -2 -2 -45 117 -97
212 -136 239 -99 16 22 18 102 4 139 -10 28 -16 30 -42 16z"></path>
<path class="node" id="node20" d="M2102 1351 c-26 -83 -10 -141 37 -141 39 0 133 51 199 107 57 49 58
69 2 53 -43 -12 -121 -13 -152 -1 -67 24 -74 23 -86 -18z"></path>



















</g>
<g transform="translate(0.000000,300.000000) scale(0.100000,-0.100000)" fill="#FFFFFF" stroke="none">

<path class="node" id="node41" d="M905 2571 c-120 -22 -235 -119 -267 -225 -5 -17 -15 -78 -22 -134
-24 -196 28 -418 157 -672 80 -156 106 -228 107 -287 0 -52 -31 -107 -70 -123
-56 -23 -171 12 -251 76 -59 48 -178 184 -232 266 -28 43 -52 76 -55 74 -4 -5
23 -88 42 -131 43 -93 117 -244 133 -270 51 -85 174 -232 271 -325 132 -126
208 -183 325 -240 150 -73 266 -65 329 22 20 28 23 44 22 113 -1 91 -22 148
-101 269 -58 89 -125 233 -148 316 -10 38 -36 93 -64 135 -52 77 -96 164 -106
210 -4 17 -11 41 -15 55 -5 14 -14 44 -20 67 -9 35 -21 51 -65 83 -77 57 -99
102 -99 210 0 66 4 95 21 133 12 26 27 47 32 47 15 0 14 -18 -4 -76 -20 -68
-19 -143 5 -206 16 -43 29 -59 66 -82 l47 -30 46 51 c25 28 56 65 69 82 43 57
99 30 122 -59 14 -52 38 -102 54 -112 24 -16 37 -6 67 55 17 34 46 89 64 121
43 78 59 156 46 234 -12 76 -36 122 -100 194 -108 119 -271 184 -406 159z
m395 -501 c0 -26 -43 -121 -53 -117 -15 6 -12 20 16 79 20 44 37 61 37 38z
m-50 -1439 c12 -24 13 -41 2 -41 -8 0 -32 43 -32 55 0 13 21 3 30 -14z m90 -9
c0 -14 -39 -46 -47 -39 -3 4 2 16 12 27 19 21 35 26 35 12z m-60 -57 c0 -8 -4
-15 -10 -15 -5 0 -10 7 -10 15 0 8 5 15 10 15 6 0 10 -7 10 -15z m-40 -5 c0
-5 -16 -10 -36 -10 -21 0 -33 4 -29 10 3 6 19 10 36 10 16 0 29 -4 29 -10z"></path>
<path class="node" id="node42" d="M1830 2567 c-30 -7 -76 -23 -101 -35 -72 -35 -177 -130 -218 -196
-35 -58 -36 -61 -36 -166 0 -102 1 -109 35 -171 19 -35 49 -94 68 -131 23 -47
40 -68 52 -68 23 0 53 49 74 121 18 63 41 89 79 89 22 0 34 -11 61 -52 19 -29
49 -65 66 -81 l33 -27 43 25 c78 46 107 173 69 299 -8 27 -15 53 -15 58 0 19
20 5 41 -29 20 -33 23 -52 24 -138 0 -120 -13 -148 -97 -213 -50 -37 -58 -48
-67 -92 -29 -134 -87 -263 -163 -362 -14 -19 -34 -65 -43 -104 -17 -68 -97
-241 -139 -299 -61 -85 -106 -191 -113 -262 -5 -57 -3 -71 17 -108 12 -23 39
-52 58 -66 30 -20 47 -24 113 -24 74 0 82 2 182 54 247 126 511 402 645 673
52 106 92 198 92 210 0 6 7 25 16 44 23 48 11 53 -17 7 -13 -21 -27 -42 -31
-48 -5 -5 -23 -31 -41 -56 -95 -136 -225 -251 -320 -283 -96 -32 -154 -13
-182 60 -26 70 -11 126 84 319 95 191 132 298 161 464 23 126 23 165 0 291
-15 87 -40 139 -91 194 -81 89 -218 130 -339 103z m-185 -590 c6 -21 3 -27 -8
-27 -16 0 -20 10 -32 70 l-7 35 20 -26 c12 -14 24 -38 27 -52z m10 -1349 c-4
-13 -11 -27 -16 -32 -15 -17 -23 3 -11 29 15 32 36 34 27 3z m-63 -32 c21 -18
35 -36 31 -39 -11 -12 -23 -8 -23 8 0 8 -5 15 -12 15 -14 0 -48 30 -48 42 0
15 14 8 52 -26z m113 -36 c4 -6 -8 -10 -30 -10 -22 0 -34 4 -30 10 3 6 17 10
30 10 13 0 27 -4 30 -10z"></path>

<path class="node" id="node44" d="M1055 1943 c-14 -21 -37 -53 -50 -72 -31 -42 -31 -77 -4 -178 30
-108 91 -237 147 -308 59 -75 84 -97 148 -132 50 -26 52 -26 78 -10 14 10 26
24 26 31 0 15 -36 113 -68 186 -11 25 -23 70 -26 100 -14 117 -26 150 -69 189
-44 39 -71 92 -82 159 -13 79 -59 95 -100 35z"></path>
<path class="node" id="node45" d="M1747 1963 c-8 -10 -18 -40 -22 -68 -9 -63 -15 -74 -74 -139 -43 -47
-49 -60 -55 -112 -9 -74 -34 -171 -52 -204 -16 -31 -43 -95 -55 -134 -18 -60
27 -89 88 -57 76 39 132 94 209 206 47 69 114 270 114 344 0 43 -5 57 -33 88
-18 21 -41 50 -50 66 -20 31 -47 35 -70 10z"></path>
<path class="node" id="node46" d="M1910 49 c0 -5 5 -7 10 -4 6 3 10 8 10 11 0 2 -4 4 -10 4 -5 0 -10
-5 -10 -11z"></path>
<path class="node" id="node47" d="M2190 81 c0 -6 5 -13 10 -16 6 -3 10 1 10 9 0 9 -4 16 -10 16 -5 0
-10 -4 -10 -9z"></path>


<path class="node" id="node50" d="M1550 60 c0 -19 3 -21 12 -12 9 9 9 15 0 24 -9 9 -12 7 -12 -12z"></path>
</g>
</svg>