<!--?xml version="1.0" standalone="no"?--><svg version="1.0" xmlns="http://www.w3.org/2000/svg" width="300.000000pt" height="254.000000pt" viewBox="0 0 300.000000 254.000000" preserveAspectRatio="xMidYMid meet">
<metadata>
  <rdf:rdf xmlns:rdf="http://www.w3.org/1999/02/22-rdf-syntax-ns#" xmlns:rdfs="http://www.w3.org/2000/01/rdf-schema#" xmlns:dc="http://purl.org/dc/elements/1.1/">
    <rdf:description dc:title="valentine heart gift clipart" dc:publisher="Hiox" dc:date="2016-02-12" dc:format="image/svg+xml" dc:language="en">
      <dc:creator>
        <rdf:bag>
          <rdf:li>svgimages.com</rdf:li>
        </rdf:bag>
      </dc:creator>
    </rdf:description>
  </rdf:rdf>
</metadata>
<g transform="translate(0.000000,254.000000) scale(0.100000,-0.100000)" fill="#1D1D1D" stroke="none">
<path d="M540 2534 c-59 -12 -101 -29 -190 -82 -126 -75 -223 -171 -272 -272
-151 -309 -76 -668 203 -976 27 -29 58 -72 69 -95 32 -62 99 -124 161 -147 30
-11 111 -59 180 -106 l127 -86 7 -132 c6 -109 4 -140 -8 -170 -21 -50 -91
-118 -157 -154 -65 -34 -74 -59 -35 -90 l27 -21 -25 -7 c-14 -3 -27 -12 -30
-20 -25 -65 229 -83 349 -26 121 59 192 212 182 389 -1 34 1 61 5 61 4 0 21
-7 36 -15 27 -13 28 -18 34 -102 6 -105 26 -173 67 -235 61 -92 150 -131 300
-130 122 1 154 10 158 45 3 21 -2 28 -23 33 l-27 7 27 21 c37 30 29 56 -26 86
-63 34 -114 74 -139 110 l-22 30 39 16 c21 8 103 44 183 79 80 35 162 66 182
69 34 6 57 20 165 99 21 15 92 62 157 103 305 192 546 431 654 647 74 149 110
313 96 436 -4 36 -6 98 -5 136 3 102 -32 168 -141 267 -152 137 -250 186 -424
209 -309 41 -674 -139 -861 -425 -25 -39 -49 -75 -53 -79 -4 -5 -29 24 -56 64
-99 149 -234 269 -392 348 -88 44 -244 91 -303 91 -19 0 -40 5 -46 11 -12 12
-131 21 -173 13z m170 -146 c50 -160 116 -320 195 -477 88 -173 87 -186 -3
-187 -33 0 -71 -8 -90 -18 -18 -9 -37 -14 -41 -11 -14 8 -123 198 -185 322
-62 124 -116 252 -152 356 l-23 67 32 17 c51 26 77 31 158 32 l76 1 33 -102z
m120 67 c170 -36 327 -121 456 -250 78 -76 165 -196 193 -263 8 -18 17 -32 21
-32 4 0 31 41 61 92 62 105 182 238 275 304 298 212 691 220 922 18 88 -77 89
-73 -40 -158 -122 -80 -306 -185 -458 -261 -243 -122 -628 -289 -688 -300
l-42 -7 35 58 c39 65 41 74 21 112 -46 87 -179 153 -262 130 -39 -10 -65 -45
-84 -114 -14 -49 -19 -52 -45 -24 -34 37 -122 50 -186 25 -29 -11 -182 312
-265 559 -19 55 -34 106 -34 113 0 17 32 16 120 -2z m-381 -173 c60 -155 165
-369 248 -508 l55 -94 -36 -40 c-40 -45 -47 -93 -22 -154 13 -30 12 -34 -10
-55 -21 -20 -39 -79 -46 -155 -3 -28 -8 -31 -130 -72 l-128 -42 -65 70 c-81
88 -144 182 -194 290 -55 117 -74 202 -73 328 1 188 55 332 167 446 49 50 154
124 175 124 3 0 29 -62 59 -138z m2472 -137 c16 -33 29 -74 29 -91 0 -30 -6
-35 -122 -100 -283 -157 -1065 -534 -1108 -534 -5 0 -10 15 -10 34 0 43 -18
96 -41 122 -11 11 -19 23 -19 26 0 3 35 21 78 38 395 165 849 400 1057 548 66
47 71 49 89 33 10 -9 32 -43 47 -76z m23 -177 c11 -42 6 -212 -8 -279 -47
-219 -216 -457 -470 -662 -106 -85 -266 -193 -371 -253 l-63 -35 -63 37 c-92
53 -172 108 -266 181 l-83 64 34 49 c57 83 56 154 -4 188 -16 9 -30 19 -30 22
0 3 13 13 29 22 17 9 39 34 49 55 19 35 31 43 189 112 214 94 705 335 893 439
80 44 148 81 151 81 4 1 9 -9 13 -21z m-1530 -92 c84 -25 166 -99 166 -149 0
-32 -96 -155 -155 -200 -33 -25 -76 -61 -94 -81 -45 -47 -57 -46 -27 2 29 46
86 159 86 169 0 4 -23 -35 -51 -87 -27 -52 -57 -102 -65 -110 -12 -12 -14 -12
-15 5 0 11 -3 14 -6 7 -11 -28 -21 1 -11 36 6 21 8 84 5 147 -8 172 30 269
109 274 6 1 32 -5 58 -13z m-260 -111 c68 -32 93 -130 73 -277 -7 -48 -12 -58
-28 -58 -10 0 -19 6 -20 13 0 10 -2 10 -6 0 -12 -31 -33 -9 -55 58 -12 39 -24
67 -25 62 -2 -5 6 -35 17 -68 24 -71 24 -72 2 -77 -15 -4 -26 8 -49 51 -48 88
-83 186 -83 230 0 36 4 44 33 61 38 24 97 26 141 5z m-210 -77 c8 -13 26 -54
40 -92 15 -38 41 -97 59 -131 31 -58 36 -85 17 -85 -5 0 -37 29 -71 65 -62 65
-101 87 -120 68 -7 -7 -2 -9 15 -6 19 4 36 -5 76 -43 66 -61 95 -103 83 -115
-6 -6 -41 19 -94 67 l-84 76 88 -85 c48 -47 87 -87 87 -91 0 -14 -23 -3 -83
39 -75 52 -162 95 -195 95 -28 0 -62 53 -62 98 0 66 43 112 136 146 58 22 91
20 108 -6z m696 -108 c25 -14 54 -93 54 -152 0 -98 -64 -141 -217 -146 -54 -2
-108 -1 -121 2 -31 8 -29 47 4 64 l25 13 -27 -6 c-73 -15 -18 38 97 92 27 13
39 21 25 17 -14 -3 -56 -23 -94 -45 -38 -22 -72 -36 -75 -33 -11 11 135 139
195 171 61 33 102 40 134 23z m-813 -169 c46 -21 188 -115 198 -131 4 -6 -7
-11 -27 -11 -30 -2 -31 -2 -5 -6 59 -9 22 -23 -65 -25 l-93 -2 78 -5 78 -6
-29 -28 c-69 -66 -231 -61 -277 9 -31 48 -27 169 7 212 15 18 87 14 135 -7z
m414 -12 c45 -16 67 -35 74 -69 13 -60 -83 -190 -141 -190 -44 0 -91 29 -109
67 -20 42 -15 120 9 155 33 46 97 60 167 37z m394 -153 c58 -38 54 -109 -11
-184 -37 -44 -116 -96 -134 -90 -6 2 -21 33 -34 68 -13 36 -26 73 -31 84 -7
16 -4 18 26 12 32 -5 32 -5 -7 9 -43 17 -126 92 -89 82 11 -3 34 -8 50 -11 22
-4 20 -2 -10 8 -22 8 -48 15 -57 15 -17 1 -24 12 -14 22 2 2 68 3 145 3 113
-1 145 -5 166 -18z m-958 -56 c42 -49 93 -65 176 -55 68 7 75 -8 16 -37 -47
-23 -298 -98 -330 -98 -14 0 -41 11 -60 25 -36 27 -89 91 -89 110 0 8 202 84
249 94 2 1 19 -17 38 -39z m367 16 c3 -14 19 -35 35 -48 l28 -23 -27 -40 c-59
-87 -66 -172 -29 -320 20 -75 24 -117 24 -245 0 -142 -2 -159 -24 -207 -48
-107 -145 -163 -280 -163 l-66 1 47 24 c42 23 77 60 65 71 -2 2 -17 -2 -33
-11 -16 -8 -36 -15 -45 -15 -22 0 -79 21 -79 28 0 4 23 21 51 37 98 58 162
153 162 240 0 28 -3 124 -8 215 -8 179 2 257 46 342 21 41 105 138 119 138 4
0 11 -11 14 -24z m320 -36 c96 -107 126 -281 95 -545 -16 -134 1 -188 85 -270
34 -34 76 -67 94 -74 40 -17 40 -26 1 -40 -42 -15 -58 -14 -93 4 -16 9 -32 13
-35 10 -11 -12 17 -41 65 -67 l49 -28 -66 0 c-103 0 -165 23 -225 84 -40 41
-54 65 -69 116 -26 90 -24 244 5 375 12 55 25 135 27 177 4 67 2 83 -20 130
-14 29 -31 61 -39 71 -12 16 -9 23 27 62 22 24 43 44 47 44 3 1 27 -22 52 -49z
m-147 -62 c27 -21 63 -114 64 -164 1 -39 -46 -320 -56 -332 -1 -1 -31 11 -66
26 l-65 29 -24 109 c-30 130 -30 194 -1 260 33 74 55 94 100 87 20 -3 42 -10
48 -15z m-353 -85 c-8 -27 -18 -83 -21 -125 -3 -43 -9 -78 -13 -78 -11 0 -216
138 -229 154 -10 11 2 18 61 35 40 12 98 30 128 41 88 30 91 29 74 -27z m801
-61 c76 -62 234 -170 302 -208 29 -16 52 -33 50 -39 -5 -15 -77 -54 -112 -61
-35 -6 -114 34 -275 142 -126 85 -138 95 -145 124 -5 22 -1 27 39 43 25 10 50
25 57 33 6 8 14 14 18 14 3 0 33 -22 66 -48z m-62 -170 c56 -38 131 -86 167
-106 36 -21 67 -40 69 -42 5 -5 -140 -72 -257 -119 -117 -47 -119 -45 -104
107 7 63 12 140 12 171 0 31 2 57 5 57 3 0 51 -31 108 -68z" id="node1" class="node"></path>
<path d="M1358 1673 c-19 -22 -63 -109 -72 -143 -4 -14 11 12 33 58 26 54 48
85 63 91 15 6 17 10 7 10 -9 1 -23 -7 -31 -16z" id="node2" class="node"></path>
<path d="M1391 1644 c0 -11 3 -14 6 -6 3 7 2 16 -1 19 -3 4 -6 -2 -5 -13z" id="node3" class="node"></path>
<path d="M1074 1665 c-3 -8 -2 -32 4 -52 9 -38 9 -38 8 14 -1 56 -3 62 -12 38z" id="node4" class="node"></path>
<path d="M1117 1660 c7 -8 16 -27 22 -40 6 -17 10 -19 10 -8 1 9 -9 27 -21 40
-13 13 -18 17 -11 8z" id="node5" class="node"></path>
<path d="M1151 1574 c0 -11 3 -14 6 -6 3 7 2 16 -1 19 -3 4 -6 -2 -5 -13z" id="node6" class="node"></path>
<path d="M1162 1510 c0 -19 2 -27 5 -17 2 9 2 25 0 35 -3 9 -5 1 -5 -18z" id="node7" class="node"></path>
<path d="M1538 1473 c34 -6 24 -34 -23 -60 -22 -12 -36 -23 -31 -23 4 0 26 10
48 22 46 26 51 62 8 64 -23 1 -23 1 -2 -3z" id="node8" class="node"></path>
<path d="M796 1271 c-7 -11 22 -36 31 -27 3 3 1 6 -5 6 -7 0 -12 4 -12 10 0 5
33 11 73 13 l72 3 -77 2 c-42 1 -79 -2 -82 -7z" id="node9" class="node"></path>
<path d="M1450 1200 c8 -5 20 -10 25 -10 6 0 3 5 -5 10 -8 5 -19 10 -25 10 -5
0 -3 -5 5 -10z" id="node10" class="node"></path>
<path d="M1505 1170 c19 -22 19 -22 0 -36 -20 -15 -9 -19 14 -5 17 11 6 47
-16 56 -14 5 -13 2 2 -15z" id="node11" class="node"></path>

















</g>
<g transform="translate(0.000000,254.000000) scale(0.100000,-0.100000)" fill="#EC6AE0" stroke="none">



<path d="M710 2457 c0 -7 15 -58 34 -113 83 -247 236 -570 265 -559 64 25 152
12 186 -25 26 -28 31 -25 45 24 19 69 45 104 84 114 83 23 216 -43 262 -130
20 -38 18 -47 -21 -112 l-35 -58 42 7 c60 11 445 178 688 300 152 76 336 181
458 261 129 85 128 81 40 158 -112 98 -250 146 -422 146 -173 0 -353 -59 -500
-164 -93 -66 -213 -199 -275 -304 -30 -51 -57 -92 -61 -92 -4 0 -13 14 -21 32
-28 67 -115 187 -193 263 -129 129 -286 214 -456 250 -88 18 -120 19 -120 2z" id="node32" class="node"></path>
<path d="M330 2388 c-73 -42 -167 -139 -208 -215 -71 -135 -95 -344 -57 -498
36 -145 132 -315 250 -443 l65 -70 128 42 c122 41 127 44 130 72 7 76 25 135
46 155 22 21 23 25 10 55 -25 61 -18 109 22 154 l36 40 -55 94 c-83 139 -188
353 -248 508 -30 76 -56 138 -59 138 -3 0 -30 -14 -60 -32z" id="node33" class="node"></path>

<path d="M2780 1908 c-188 -104 -679 -345 -893 -439 -158 -69 -170 -77 -189
-112 -10 -21 -32 -46 -49 -55 -16 -9 -29 -19 -29 -22 0 -3 14 -13 30 -22 60
-34 61 -105 4 -188 l-34 -49 83 -64 c94 -73 174 -128 266 -181 l63 -37 63 35
c105 60 265 168 371 253 254 205 423 443 470 662 21 98 18 303 -5 300 -3 0
-71 -37 -151 -81z" id="node35" class="node"></path>











<path d="M1111 1107 c-32 -36 -63 -117 -65 -171 0 -28 10 -100 24 -160 l24
-109 65 -29 c35 -15 65 -27 66 -26 1 2 15 66 30 142 34 171 34 223 0 292 -30
62 -39 70 -86 77 -30 4 -41 1 -58 -16z" id="node47" class="node"></path>
<path d="M790 1050 c-30 -11 -88 -29 -128 -41 -59 -17 -71 -24 -61 -35 13 -16
218 -154 229 -154 4 0 10 35 13 78 3 42 13 98 21 125 17 56 14 57 -74 27z" id="node48" class="node"></path>

<path d="M1490 803 c0 -31 -5 -108 -12 -171 -15 -152 -13 -154 104 -107 117
47 262 114 257 119 -2 2 -33 21 -69 42 -36 20 -111 68 -167 106 -57 37 -105
68 -108 68 -3 0 -5 -26 -5 -57z" id="node50" class="node"></path>
</g>
</svg>