<!--?xml version="1.0" standalone="no"?--><svg version="1.0" xmlns="http://www.w3.org/2000/svg" width="300.000000pt" height="255.000000pt" viewBox="0 0 300.000000 255.000000" preserveAspectRatio="xMidYMid meet">
<metadata>
  <rdf:rdf xmlns:rdf="http://www.w3.org/1999/02/22-rdf-syntax-ns#" xmlns:rdfs="http://www.w3.org/2000/01/rdf-schema#" xmlns:dc="http://purl.org/dc/elements/1.1/">
    <rdf:description dc:title="Valentine Cute heart" dc:publisher="Hiox" dc:date="2016-02-12" dc:format="image/svg+xml" dc:language="en">
      <dc:creator>
        <rdf:bag>
          <rdf:li>svgimages.com</rdf:li>
        </rdf:bag>
      </dc:creator>
    </rdf:description>
  </rdf:rdf>
</metadata>
<g transform="translate(0.000000,255.000000) scale(0.100000,-0.100000)" fill="#060606" stroke="none">

</g>
<g transform="translate(0.000000,255.000000) scale(0.100000,-0.100000)" fill="#DC9F5F" stroke="none">



<path d="M723 2389 c-202 -19 -391 -101 -462 -200 -73 -99 -105 -247 -99 -450
5 -171 10 -184 93 -224 74 -37 171 -34 233 8 118 77 129 242 22 314 -36 25
-94 30 -133 12 -28 -13 -57 -58 -57 -89 0 -31 54 -82 82 -78 30 4 37 52 12 79
-16 18 -16 19 3 19 30 0 55 -34 56 -76 1 -29 -5 -42 -31 -65 -84 -75 -222 2
-222 124 0 112 91 199 209 200 73 0 135 -28 188 -86 154 -168 39 -448 -201
-487 -48 -8 -129 0 -170 16 -16 6 -17 4 -11 -17 17 -54 92 -166 158 -235 79
-84 156 -138 306 -214 57 -29 152 -86 211 -125 l108 -73 6 55 c9 80 48 154
111 211 66 60 124 82 219 82 187 0 321 -165 271 -335 -41 -144 -197 -209 -314
-132 -99 66 -84 232 23 253 38 7 90 -15 100 -41 9 -25 7 -63 -4 -70 -5 -3 -10
2 -10 13 0 23 -30 52 -53 52 -19 0 -37 -29 -37 -60 0 -30 53 -80 85 -80 69 0
115 55 115 138 0 164 -236 222 -349 86 -43 -53 -65 -130 -56 -202 7 -56 7 -57
137 -186 71 -71 150 -156 176 -188 l47 -58 30 37 c144 184 391 381 723 578
285 170 302 183 324 231 74 169 -23 344 -191 344 -29 0 -69 -7 -88 -16 -71
-34 -111 -127 -83 -194 45 -108 192 -86 181 27 0 7 -10 17 -21 23 -18 10 -25
6 -50 -20 l-30 -32 0 30 c0 69 97 96 150 43 51 -50 52 -124 4 -181 -48 -57
-110 -75 -186 -55 -131 34 -196 189 -134 320 80 168 294 211 453 89 49 -37 90
-104 111 -180 l19 -67 30 54 c75 135 104 246 110 429 4 109 1 164 -10 221 -44
210 -115 301 -290 369 l-79 31 -51 -29 c-124 -70 -170 -204 -109 -323 66 -131
234 -152 309 -39 33 47 31 101 -4 139 -37 40 -70 46 -110 21 -60 -36 -33 -112
27 -80 25 13 33 9 25 -12 -19 -49 -113 -40 -140 12 -37 71 -3 151 78 184 42
18 53 19 94 8 92 -25 141 -84 150 -181 7 -74 -8 -117 -58 -174 -55 -63 -117
-91 -200 -91 -112 0 -211 64 -271 176 -19 36 -23 58 -23 138 0 111 18 161 84
233 l41 44 -68 6 c-78 7 -228 -6 -314 -29 -141 -36 -249 -98 -298 -170 -26
-36 -30 -52 -30 -107 0 -152 -97 -333 -217 -403 -56 -34 -97 -45 -168 -45
-221 -1 -364 212 -269 398 42 82 94 116 184 121 58 4 75 1 110 -19 113 -64
121 -230 13 -275 -81 -34 -157 32 -127 110 10 26 24 18 24 -12 0 -32 16 -52
41 -52 25 0 41 25 42 66 1 49 -38 84 -94 84 -31 0 -47 -7 -75 -33 -31 -28 -37
-42 -42 -85 -6 -65 1 -93 35 -133 36 -43 96 -69 161 -69 85 0 141 41 184 135
20 43 23 66 23 160 0 108 -1 111 -32 156 -97 139 -384 225 -660 198z" id="node5" class="node"></path>

</g>
</svg>