<!--?xml version="1.0" standalone="no"?--><svg version="1.0" xmlns="http://www.w3.org/2000/svg" width="292.000000pt" height="300.000000pt" viewBox="0 0 292.000000 300.000000" preserveAspectRatio="xMidYMid meet">
<metadata>
  <rdf:rdf xmlns:rdf="http://www.w3.org/1999/02/22-rdf-syntax-ns#" xmlns:rdfs="http://www.w3.org/2000/01/rdf-schema#" xmlns:dc="http://purl.org/dc/elements/1.1/">
    <rdf:description dc:title="Valentine heart frame" dc:publisher="Hiox" dc:date="2016-02-12" dc:format="image/svg+xml" dc:language="en">
      <dc:creator>
        <rdf:bag>
          <rdf:li>svgimages.com</rdf:li>
        </rdf:bag>
      </dc:creator>
    </rdf:description>
  </rdf:rdf>
</metadata>
<g transform="translate(0.000000,300.000000) scale(0.100000,-0.100000)" fill="#0B0B0B" stroke="none">

</g>
<g transform="translate(0.000000,300.000000) scale(0.100000,-0.100000)" fill="#53F4BB" stroke="none">


<path d="M1667 2919 c-3 -12 -3 -35 0 -52 6 -27 8 -29 41 -23 47 7 70 29 52
50 -7 9 -18 16 -25 16 -7 0 -15 7 -19 15 -8 23 -43 18 -49 -6z" id="node4" class="node"></path>
<path d="M1147 2910 c-3 -12 -13 -20 -26 -20 -26 0 -40 -28 -20 -41 8 -5 29
-9 47 -9 33 0 33 1 30 42 -3 44 -22 62 -31 28z" id="node5" class="node"></path>
<path d="M2135 2910 c-10 -16 5 -71 21 -77 8 -3 28 0 44 7 33 14 41 47 13 56
-10 3 -26 10 -35 15 -23 12 -35 11 -43 -1z" id="node6" class="node"></path>
<path d="M1843 2874 c-21 -21 -24 -32 -20 -61 7 -43 49 -106 94 -140 l32 -25
36 29 c48 37 95 110 95 145 0 33 -39 78 -68 78 -10 0 -27 -6 -37 -14 -17 -12
-23 -12 -47 0 -38 20 -55 18 -85 -12z" id="node7" class="node"></path>
<path d="M667 2853 c-35 -18 -32 -44 8 -55 34 -9 55 9 55 49 0 27 -20 29 -63
6z" id="node8" class="node"></path>
<path d="M812 2844 c-17 -12 -22 -25 -22 -60 0 -38 6 -51 39 -87 22 -24 51
-49 66 -57 24 -13 28 -11 71 31 72 69 92 131 54 169 -22 22 -69 27 -87 9 -9
-9 -20 -9 -44 0 -42 14 -50 14 -77 -5z" id="node9" class="node"></path>
<path d="M1261 2834 c-29 -37 -27 -89 7 -145 40 -68 157 -193 175 -186 26 10
144 171 160 217 40 121 -50 188 -142 105 -37 -34 -40 -35 -53 -17 -41 56 -113
69 -147 26z" id="node10" class="node"></path>
<path d="M2286 2827 c-15 -19 -26 -44 -26 -57 0 -15 -4 -20 -14 -17 -8 3 -30
9 -50 12 -29 6 -39 3 -60 -19 -72 -71 9 -180 155 -206 35 -6 72 -13 82 -15 14
-3 24 9 43 51 42 95 28 229 -28 268 -37 26 -74 20 -102 -17z" id="node11" class="node"></path>
<path d="M464 2787 c-31 -28 -36 -39 -41 -93 -4 -47 0 -79 17 -138 13 -42 26
-79 30 -81 11 -7 121 22 171 44 60 27 107 75 115 118 5 27 2 39 -17 59 -20 21
-31 25 -64 22 -22 -3 -48 -8 -57 -12 -13 -6 -19 0 -27 30 -12 44 -47 84 -73
84 -10 0 -34 -15 -54 -33z" id="node12" class="node"></path>
<path d="M1692 2746 c-18 -19 -32 -44 -32 -55 0 -22 45 -51 80 -51 18 0 20 6
20 58 0 51 -11 82 -30 82 -3 0 -20 -15 -38 -34z" id="node13" class="node"></path>
<path d="M1110 2740 c-6 -12 -10 -38 -8 -58 3 -36 4 -37 41 -36 20 1 46 9 57
19 24 22 15 48 -15 42 -19 -3 -24 2 -29 25 -6 33 -30 37 -46 8z" id="node14" class="node"></path>

<path d="M2528 2623 c-7 -10 -22 -23 -33 -29 -32 -18 -24 -47 19 -68 38 -19
39 -19 53 -1 14 20 17 72 7 99 -8 21 -30 20 -46 -1z" id="node16" class="node"></path>
<path d="M310 2544 c-13 -32 -12 -65 0 -84 8 -13 14 -12 47 5 44 23 59 65 24
65 -11 0 -25 9 -31 20 -15 27 -29 25 -40 -6z" id="node17" class="node"></path>
<path d="M2672 2457 c-72 -37 -67 -72 15 -103 44 -17 46 -17 59 1 19 25 18 90
-2 109 -19 19 -19 19 -72 -7z" id="node18" class="node"></path>
<path d="M2347 2452 c-10 -10 -17 -22 -17 -26 0 -15 84 -96 100 -96 30 0 80
66 80 105 0 32 -3 35 -28 35 -15 0 -33 -5 -39 -11 -8 -8 -17 -8 -31 0 -29 16
-46 14 -65 -7z" id="node19" class="node"></path>
<path d="M2566 2458 c-17 -54 -16 -70 1 -66 13 2 19 14 21 41 3 35 -14 53 -22
25z" id="node20" class="node"></path>
<path d="M393 2398 c-25 -32 -22 -49 13 -88 20 -22 42 -40 49 -40 23 0 75 72
75 103 0 35 -24 45 -50 22 -19 -17 -21 -17 -38 -2 -22 20 -36 21 -49 5z" id="node21" class="node"></path>
<path d="M147 2393 c-10 -10 -8 -78 3 -107 8 -23 12 -24 40 -15 57 20 88 89
39 89 -10 0 -23 9 -29 20 -10 19 -40 27 -53 13z" id="node22" class="node"></path>
<path d="M307 2368 c7 -39 9 -42 21 -34 13 8 2 66 -14 66 -10 0 -12 -9 -7 -32z" id="node23" class="node"></path>
<path d="M2543 2330 c-18 -10 -39 -33 -48 -49 -31 -60 -13 -188 40 -291 16
-31 18 -32 63 -26 73 9 207 80 237 124 68 100 -9 188 -117 133 -40 -20 -48
-18 -48 11 0 28 -37 96 -59 108 -26 14 -31 13 -68 -10z" id="node24" class="node"></path>
<path d="M267 2242 c-20 -22 -37 -67 -37 -99 0 -20 -3 -24 -17 -17 -10 4 -39
9 -64 12 -41 3 -49 1 -68 -23 -26 -34 -29 -106 -5 -130 34 -34 142 -75 236
-88 32 -5 37 -3 47 21 27 70 54 224 46 264 -11 49 -42 78 -84 78 -23 0 -44 -7
-54 -18z" id="node25" class="node"></path>

<path d="M2805 1979 l-27 -33 27 -24 c37 -32 51 -24 47 29 -4 60 -14 66 -47
28z" id="node27" class="node"></path>

<path d="M75 1890 c4 -12 1 -27 -5 -35 -10 -12 -9 -16 4 -21 40 -15 69 25 41
56 -24 27 -48 26 -40 0z" id="node29" class="node"></path>
<path d="M2656 1889 c-14 -20 -16 -20 -37 -5 -54 37 -109 5 -109 -64 0 -23 11
-42 44 -74 24 -25 58 -51 74 -60 l31 -16 45 56 c52 63 71 118 56 158 -8 22
-16 26 -49 26 -29 0 -44 -6 -55 -21z" id="node30" class="node"></path>
<path d="M180 1820 c-47 -47 -34 -114 37 -183 53 -52 56 -52 128 14 56 52 71
87 56 132 -14 42 -41 51 -89 32 -31 -14 -36 -13 -59 5 -32 25 -48 25 -73 0z" id="node31" class="node"></path>
<path d="M2571 1619 c-16 -17 -22 -19 -39 -8 -26 16 -52 -2 -52 -35 0 -34 77
-95 100 -81 19 11 50 84 50 115 0 37 -29 41 -59 9z" id="node32" class="node"></path>
<path d="M2732 1608 c-7 -7 -12 -15 -12 -20 0 -4 -12 -19 -27 -34 l-27 -27 23
-18 c15 -12 39 -19 67 -19 42 0 44 1 44 30 0 40 -25 100 -42 100 -8 0 -19 -5
-26 -12z" id="node33" class="node"></path>
<path d="M322 1558 c-7 -7 -12 -16 -12 -21 0 -17 43 -107 51 -107 4 0 27 18
50 40 35 33 40 42 29 55 -7 8 -23 15 -37 15 -13 0 -34 7 -46 15 -18 11 -26 12
-35 3z" id="node34" class="node"></path>
<path d="M166 1525 c-9 -9 -16 -22 -16 -29 0 -8 -3 -28 -6 -45 l-6 -31 44 0
c32 0 50 6 63 20 22 25 13 50 -19 50 -17 0 -24 4 -20 13 3 8 -2 19 -9 26 -12
9 -18 8 -31 -4z" id="node35" class="node"></path>
<path d="M2448 1428 c-71 -58 -63 -119 34 -270 l50 -78 44 32 c145 104 200
228 126 284 -21 16 -86 18 -113 3 -17 -8 -24 -6 -40 15 -23 29 -74 35 -101 14z" id="node36" class="node"></path>
<path d="M427 1372 c-15 -9 -29 -24 -32 -33 -5 -15 -9 -15 -50 0 l-44 16 -31
-30 c-26 -25 -30 -36 -30 -80 0 -36 6 -59 23 -82 27 -39 164 -146 176 -139 18
12 82 139 98 196 21 76 8 132 -37 155 -36 19 -39 18 -73 -3z" id="node37" class="node"></path>
<path d="M2377 1159 c-10 -6 -28 -8 -39 -5 -32 8 -58 -11 -58 -42 1 -25 59
-103 78 -102 12 1 62 72 69 99 6 24 -5 52 -23 58 -5 1 -17 -2 -27 -8z" id="node38" class="node"></path>
<path d="M552 1098 c-22 -22 -13 -57 23 -93 20 -19 39 -35 43 -34 14 1 62 67
64 89 4 30 -25 49 -51 33 -15 -10 -22 -9 -31 2 -15 18 -32 19 -48 3z" id="node39" class="node"></path>
<path d="M2197 1019 c-32 -19 -47 -65 -47 -148 0 -44 4 -83 10 -86 22 -13 147
-7 178 9 59 31 50 115 -13 126 -25 4 -32 12 -40 45 -5 22 -14 46 -18 53 -10
14 -45 15 -70 1z" id="node40" class="node"></path>
<path d="M2461 988 c-14 -7 -26 -18 -28 -24 -5 -16 41 -78 61 -82 22 -5 38 16
30 40 -3 9 2 21 12 26 9 5 14 18 12 28 -4 23 -52 30 -87 12z" id="node41" class="node"></path>
<path d="M713 955 c-13 -9 -23 -28 -25 -48 -2 -26 -8 -33 -29 -35 -57 -7 -81
-75 -41 -115 23 -23 106 -34 168 -23 l36 7 -4 89 c-3 77 -6 92 -27 114 -28 30
-47 32 -78 11z" id="node42" class="node"></path>
<path d="M437 933 c-13 -12 -7 -43 8 -43 10 0 15 -10 15 -30 0 -32 19 -40 39
-16 15 18 31 75 23 80 -16 8 -79 16 -85 9z" id="node43" class="node"></path>
<path d="M2012 841 c-7 -4 -24 -6 -38 -3 -37 7 -43 -24 -10 -56 l27 -27 30 33
c29 32 33 52 13 59 -5 1 -15 -1 -22 -6z" id="node44" class="node"></path>
<path d="M940 800 c0 -5 13 -24 29 -42 27 -29 31 -31 45 -18 22 22 32 70 14
70 -8 0 -19 -5 -26 -12 -9 -9 -15 -9 -24 0 -14 14 -38 16 -38 2z" id="node45" class="node"></path>
<path d="M2068 730 c-31 -19 -53 -99 -52 -191 1 -47 4 -102 8 -121 l6 -35 118
22 c65 12 130 29 144 39 50 33 59 114 17 152 -19 17 -76 24 -108 14 -11 -4
-17 8 -23 45 -5 27 -16 58 -25 67 -18 20 -58 23 -85 8z" id="node46" class="node"></path>
<path d="M2347 715 c-35 -34 -34 -45 9 -74 32 -22 36 -23 51 -8 13 12 14 19 5
30 -7 8 -9 27 -6 46 5 26 3 31 -12 31 -11 0 -32 -11 -47 -25z" id="node47" class="node"></path>
<path d="M860 697 c-31 -16 -50 -52 -50 -99 l0 -37 -31 11 c-25 8 -38 7 -64
-5 -29 -14 -35 -23 -41 -62 -5 -38 -3 -52 13 -73 28 -37 96 -60 202 -68 l91
-7 0 96 c0 126 -15 193 -50 229 -32 32 -36 32 -70 15z" id="node48" class="node"></path>
<path d="M583 684 c-3 -9 -1 -26 6 -37 9 -14 10 -22 2 -30 -34 -34 10 -50 54
-21 38 25 29 66 -22 92 -28 16 -32 15 -40 -4z" id="node49" class="node"></path>
<path d="M1802 674 c-12 -8 -22 -24 -22 -35 0 -21 38 -101 64 -134 16 -20 17
-19 65 32 56 59 72 106 47 131 -13 14 -21 14 -47 5 -26 -10 -36 -10 -53 2 -25
19 -27 18 -54 -1z" id="node50" class="node"></path>
<path d="M1133 651 c-15 -18 -19 -18 -43 -6 -33 17 -50 4 -50 -35 0 -24 78
-140 100 -148 9 -3 59 100 67 138 11 58 -38 92 -74 51z" id="node51" class="node"></path>
<path d="M1675 610 c-4 -6 -4 -24 0 -40 7 -34 34 -40 59 -14 23 22 20 31 -16
48 -37 19 -35 19 -43 6z" id="node52" class="node"></path>
<path d="M1294 595 c-4 -9 -14 -14 -23 -13 -21 4 -21 -22 0 -35 26 -16 49 -1
49 33 0 31 -16 41 -26 15z" id="node53" class="node"></path>
<path d="M1329 491 c-24 -24 -29 -38 -29 -76 0 -65 19 -103 94 -185 37 -40 77
-93 90 -118 l23 -46 18 34 c10 19 48 81 86 137 72 108 94 166 84 214 -16 72
-124 81 -177 15 l-17 -21 -27 28 c-50 54 -102 61 -145 18z" id="node54" class="node"></path>
<path d="M1880 418 c-11 -18 -20 -38 -20 -45 0 -14 63 -28 79 -18 16 9 13 35
-4 42 -9 3 -15 15 -13 26 5 33 -20 31 -42 -5z" id="node55" class="node"></path>
<path d="M1076 431 c-4 -5 -3 -17 0 -25 4 -10 -1 -25 -12 -37 -25 -28 -6 -43
45 -34 23 4 41 11 41 16 0 6 -9 28 -20 49 -19 38 -42 51 -54 31z" id="node56" class="node"></path>
<path d="M1766 325 c-8 -9 -20 -32 -26 -53 -13 -48 7 -66 64 -59 57 8 73 42
28 62 -12 5 -22 17 -21 25 4 43 -16 54 -45 25z" id="node57" class="node"></path>
<path d="M1206 314 c-3 -9 -6 -23 -6 -31 0 -9 -8 -22 -17 -29 -40 -30 29 -70
77 -44 26 14 26 59 -1 94 -23 29 -44 34 -53 10z" id="node58" class="node"></path>
</g>
</svg>