<!--?xml version="1.0" standalone="no"?-->

<svg version="1.0" xmlns="http://www.w3.org/2000/svg" width="300.000000pt" height="300.000000pt" viewBox="0 0 300.000000 300.000000" preserveAspectRatio="xMidYMid meet">
<g transform="translate(0.000000,300.000000) scale(0.100000,-0.100000)" fill="#161616" stroke="none">
<path d="M1316 2758 c-19 -26 -21 -90 -4 -121 15 -28 25 -77 44 -202 8 -55 21
-141 29 -191 21 -125 20 -230 -1 -238 -24 -9 -49 17 -69 72 -10 26 -42 99 -72
162 -85 177 -100 212 -114 255 -15 49 -46 95 -64 95 -8 0 -26 -5 -40 -12 -22
-10 -25 -17 -25 -59 0 -31 10 -70 26 -106 36 -80 74 -185 74 -204 0 -9 29 -74
65 -144 36 -71 65 -139 65 -151 0 -30 -37 -56 -60 -44 -20 11 -137 166 -170
225 -51 92 -111 173 -132 178 -30 8 -68 -28 -68 -63 0 -15 23 -64 50 -110 28
-46 50 -85 50 -87 0 -2 8 -16 18 -31 10 -15 36 -54 57 -87 21 -33 47 -69 56
-80 30 -35 63 -107 70 -154 11 -74 75 -312 97 -362 11 -26 38 -77 59 -115 73
-130 93 -188 93 -269 0 -41 -4 -105 -10 -142 -17 -116 -40 -481 -40 -630 l0
-143 49 0 48 0 7 78 c4 42 9 286 12 540 6 555 7 546 -98 757 -17 33 -46 82
-65 109 -19 26 -37 64 -40 82 -6 34 -5 34 34 34 43 0 60 -14 108 -87 15 -24
32 -40 37 -37 7 4 8 39 4 93 -21 286 -19 311 24 311 30 0 47 -38 53 -115 5
-70 26 -155 38 -155 3 0 9 39 12 88 7 93 30 181 50 194 19 12 54 9 59 -4 3 -7
-1 -76 -7 -153 -7 -77 -11 -142 -9 -144 8 -9 34 10 34 24 0 9 9 34 21 57 12
23 28 64 36 92 8 28 21 56 29 62 20 16 52 6 59 -16 7 -22 -49 -208 -70 -236
-19 -26 -20 -58 -1 -47 19 11 67 79 89 125 20 41 47 61 71 52 34 -13 8 -97
-60 -189 -26 -36 -39 -78 -52 -166 -5 -37 -24 -97 -43 -135 -37 -78 -41 -135
-16 -220 8 -27 20 -80 26 -119 30 -202 70 -413 101 -545 5 -19 13 -78 20 -130
6 -52 15 -119 21 -148 10 -49 12 -52 41 -52 l31 0 -7 73 c-3 39 -13 149 -22
242 -8 94 -20 251 -25 350 -5 99 -13 230 -17 290 -5 82 -3 139 10 227 16 111
51 280 68 323 4 11 16 47 26 80 10 33 36 103 57 155 22 52 51 129 66 170 14
41 39 98 55 125 37 65 45 119 21 145 -32 36 -69 26 -130 -35 -30 -31 -55 -62
-55 -69 0 -19 -107 -231 -124 -245 -10 -8 -16 -8 -24 2 -26 31 -34 123 -37
407 -5 422 -18 518 -77 533 -62 17 -78 -34 -79 -258 0 -227 -22 -400 -51 -419
-23 -14 -28 -7 -38 56 -5 29 -12 67 -15 83 -4 17 -13 62 -21 100 -32 165 -45
215 -77 308 -19 54 -43 107 -52 117 -25 27 -70 26 -89 -2z" id="node1" class="node"></path>
</g>
<g transform="translate(0.000000,300.000000) scale(0.100000,-0.100000)" fill="#A1A1A1" stroke="none">

<path d="M1573 1892 c-20 -13 -43 -101 -50 -194 -3 -49 -9 -88 -12 -88 -12 0
-33 85 -38 155 -6 77 -23 115 -53 115 -43 0 -45 -25 -24 -311 4 -54 3 -89 -4
-93 -5 -3 -22 13 -37 37 -48 73 -65 87 -108 87 -39 0 -40 0 -34 -34 3 -18 21
-56 40 -82 19 -27 48 -76 65 -109 105 -211 104 -202 98 -757 -3 -254 -8 -498
-12 -540 l-7 -78 248 0 247 0 -6 23 c-4 12 -11 60 -16 107 -16 129 -22 168
-56 315 -13 60 -55 300 -75 430 -6 39 -18 92 -26 119 -25 85 -21 142 16 220
19 38 38 98 43 135 13 88 26 130 52 166 68 92 94 176 60 189 -24 9 -51 -11
-71 -52 -22 -46 -70 -114 -89 -125 -19 -11 -18 21 1 47 21 28 77 214 70 236
-7 22 -39 32 -59 16 -8 -6 -21 -34 -29 -62 -8 -28 -24 -69 -36 -92 -12 -23
-21 -48 -21 -57 0 -14 -26 -33 -34 -24 -2 2 2 67 9 144 6 77 10 146 7 153 -5
13 -40 16 -59 4z" id="node3" class="node"></path>
</g>
</svg>