<!--?xml version="1.0" standalone="no"?-->

<svg version="1.0" xmlns="http://www.w3.org/2000/svg" width="300.000000pt" height="300.000000pt" viewBox="0 0 300.000000 300.000000" preserveAspectRatio="xMidYMid meet">
<g transform="translate(0.000000,300.000000) scale(0.100000,-0.100000)" fill="#171717" stroke="none">
<path d="M547 2883 c-3 -54 -10 -118 -16 -143 -5 -25 -10 -95 -11 -157 l0
-112 -70 -56 c-38 -30 -74 -63 -78 -73 -19 -36 -21 -91 -7 -186 29 -193 13
-455 -35 -576 -22 -56 -23 -92 -3 -215 9 -54 68 -168 105 -202 13 -11 76 -55
140 -97 64 -43 160 -117 213 -166 86 -81 209 -179 314 -253 48 -33 70 -91 81
-208 5 -65 12 -84 43 -132 44 -65 89 -164 107 -230 7 -26 21 -52 31 -57 17
-10 172 1 237 16 206 47 347 127 421 238 20 31 26 51 25 95 -1 53 -33 162 -68
229 -30 58 -85 234 -102 323 -14 75 -15 116 -9 214 15 215 7 296 -43 425 -48
124 -161 264 -259 322 -23 14 -36 32 -43 59 -7 26 -31 59 -70 99 -93 95 -100
110 -206 515 -15 57 -24 118 -24 168 0 93 -18 143 -57 158 -15 6 -35 15 -43
20 -57 34 -59 33 -163 -38 -112 -77 -188 -125 -192 -121 -1 2 -10 37 -19 78
-28 126 -59 160 -151 160 l-43 0 -5 -97z m68 57 c3 -5 11 -7 18 -4 35 13 73
-67 83 -175 l7 -70 -74 -85 c-41 -47 -78 -86 -83 -86 -5 0 -7 55 -4 121 4 118
5 123 31 143 25 20 39 55 17 41 -6 -4 -8 -11 -5 -16 4 -5 -1 -9 -9 -9 -18 0
-21 16 -5 26 8 4 8 9 0 17 -12 12 -15 89 -4 100 9 10 21 9 28 -3z m491 -95
c19 -48 18 -65 -12 -121 -33 -63 -102 -134 -162 -166 -44 -24 -51 -25 -80 -12
-34 14 -42 5 -16 -20 49 -50 -93 -224 -185 -227 l-36 -1 27 -11 c15 -6 30 -17
33 -25 8 -21 -14 -54 -32 -48 -8 3 -39 9 -68 12 -53 6 -54 6 -74 -26 -12 -21
-22 -60 -26 -109 -4 -42 -13 -105 -21 -141 -8 -36 -17 -75 -20 -87 -11 -56
-19 -13 -21 110 0 73 -6 167 -13 209 -15 105 -3 148 53 187 39 27 71 59 257
255 90 96 134 126 184 127 31 1 35 3 18 7 -22 7 -20 9 25 43 125 93 146 98
169 44z m62 -17 c6 -13 13 -68 16 -123 3 -55 13 -125 21 -155 8 -30 30 -113
49 -185 58 -219 82 -268 166 -349 36 -34 53 -60 61 -91 9 -35 20 -48 59 -74
117 -76 234 -243 275 -391 23 -85 26 -246 5 -261 -31 -20 -101 0 -204 60 -58
33 -146 72 -202 91 -113 36 -177 68 -235 118 -41 36 -89 116 -89 152 0 19 6
20 88 20 72 0 96 4 137 25 60 29 78 43 93 72 20 37 14 50 -53 102 -36 28 -65
56 -65 61 0 6 13 13 30 16 37 8 29 24 -12 24 -25 0 -42 11 -87 62 -65 71 -69
78 -44 79 12 0 10 3 -7 8 -45 14 -71 35 -116 94 -55 73 -56 87 -6 88 20 1 48
5 62 9 21 7 18 8 -20 9 -71 2 -120 54 -120 126 0 47 13 68 87 147 75 80 97
133 91 220 -5 70 1 84 20 46z m-255 -362 c3 -30 15 -76 27 -103 12 -26 32 -86
45 -133 12 -47 26 -93 30 -103 6 -15 4 -17 -16 -13 -13 3 -46 11 -74 16 -131
28 -149 37 -167 83 -28 67 -24 88 32 148 28 30 60 78 72 106 12 29 27 53 33
53 7 0 15 -23 18 -54z m-256 -288 c18 -15 89 -34 303 -84 l155 -35 72 -77 c40
-42 71 -83 68 -89 -2 -7 0 -13 6 -13 14 0 122 -81 115 -87 -8 -8 -85 40 -129
80 -21 19 -66 52 -100 74 l-62 38 -180 3 c-256 4 -263 4 -293 -15 -43 -28 -51
-45 -52 -108 0 -33 -7 -96 -15 -140 -17 -96 -17 -91 -6 -79 5 5 21 54 36 109
15 55 30 111 34 125 16 55 126 94 150 53 9 -16 10 -16 11 -2 0 18 32 23 205
35 l100 6 78 -52 c42 -28 77 -55 77 -59 0 -4 30 -27 68 -51 63 -41 66 -44 42
-51 -21 -6 -22 -7 -5 -8 11 -1 31 6 43 15 21 14 22 14 22 -7 0 -12 -3 -19 -6
-16 -4 4 -22 -7 -41 -23 -29 -25 -42 -30 -88 -30 -113 0 -249 80 -257 152 -4
29 -5 26 -12 -20 -8 -47 -14 -57 -46 -78 -44 -29 -120 -40 -173 -26 -34 10
-37 9 -26 -4 7 -9 30 -24 52 -36 37 -18 39 -22 34 -54 -9 -56 -75 -142 -147
-192 -36 -24 -54 -41 -40 -37 33 10 106 52 151 87 39 30 69 36 69 15 0 -7 -29
-42 -65 -77 -63 -62 -162 -180 -151 -180 3 0 31 26 63 58 85 85 167 144 188
136 37 -15 2 -174 -53 -237 -8 -9 -13 -20 -10 -23 8 -7 61 62 87 113 11 23 24
44 28 46 20 13 373 -86 480 -134 168 -75 233 -219 165 -364 -45 -93 -120 -151
-213 -162 -58 -7 -66 -23 -11 -23 59 0 151 28 198 60 24 16 46 26 48 21 5 -8
56 -161 136 -409 45 -139 51 -165 39 -176 -36 -33 -279 -96 -372 -96 -37 0
-49 4 -53 18 -26 83 -72 186 -110 245 -41 63 -47 80 -51 137 -2 36 -13 95 -25
132 -20 61 -27 71 -76 105 -105 74 -258 197 -337 272 -44 42 -116 98 -160 125
-117 72 -172 117 -190 154 -17 33 -16 37 11 107 5 15 1 13 -14 -7 -12 -14 -22
-31 -22 -37 0 -24 -22 -9 -36 24 -10 25 -12 45 -5 74 7 31 5 41 -5 45 -22 8
-17 32 32 182 50 153 87 294 104 394 17 101 31 140 59 162 28 22 79 20 108 -4z
m1171 -1191 c13 -122 70 -328 112 -405 50 -91 77 -205 61 -254 -14 -44 -70
-110 -117 -139 -44 -27 -47 -23 -69 81 -9 41 -24 111 -34 155 -10 44 -26 114
-35 155 -9 41 -25 115 -36 163 -17 77 -18 91 -6 110 8 12 20 42 26 66 14 54
70 181 79 181 4 0 13 -51 19 -113z" id="node1" class="node"></path>
<path d="M1015 2804 c-30 -25 -30 -25 -3 -13 15 6 29 18 32 25 7 18 6 18 -29
-12z" id="node2" class="node"></path>
<path d="M1220 1821 c0 -5 5 -13 10 -16 6 -3 10 -2 10 4 0 5 -4 13 -10 16 -5
3 -10 2 -10 -4z" id="node3" class="node"></path>
</g>
<g transform="translate(0.000000,300.000000) scale(0.100000,-0.100000)" fill="#A1A1A1" stroke="none">

<path d="M587 2943 c-11 -11 -8 -88 4 -100 8 -8 8 -13 0 -17 -16 -10 -13 -26
5 -26 8 0 13 4 9 9 -3 5 -1 12 5 16 22 14 8 -21 -17 -41 -26 -20 -27 -25 -31
-143 -3 -66 -1 -121 4 -121 5 0 42 39 83 86 l74 85 -7 70 c-10 108 -48 188
-83 175 -7 -3 -15 -1 -18 4 -7 12 -19 13 -28 3z" id="node5" class="node"></path>
<path d="M1013 2856 c-15 -11 -50 -36 -76 -55 -45 -34 -47 -36 -25 -43 17 -4
13 -6 -18 -7 -50 -1 -94 -31 -184 -127 -186 -196 -218 -228 -257 -255 -56 -39
-68 -82 -53 -187 7 -42 13 -136 13 -209 2 -123 10 -166 21 -110 3 12 12 51 20
87 8 36 17 99 21 141 4 49 14 88 26 109 20 32 21 32 74 26 29 -3 60 -9 68 -12
18 -6 40 27 32 48 -3 8 -18 19 -33 25 l-27 11 36 1 c45 1 104 43 152 106 44
56 55 99 33 121 -26 25 -18 34 16 20 29 -13 36 -12 80 12 60 32 129 103 162
166 30 56 31 73 12 121 -17 40 -46 44 -93 11z m31 -40 c-3 -7 -17 -19 -32 -25
-27 -12 -27 -12 3 13 35 30 36 30 29 12z" id="node6" class="node"></path>
<path d="M1148 2782 c6 -87 -16 -140 -91 -220 -74 -79 -87 -100 -87 -147 0
-72 49 -124 120 -126 38 -1 41 -2 20 -9 -14 -4 -42 -8 -62 -9 -50 -1 -49 -15
6 -88 45 -59 71 -80 116 -94 17 -5 19 -8 7 -8 -25 -1 -21 -8 44 -79 45 -51 62
-62 87 -62 41 0 49 -16 12 -24 -17 -3 -30 -10 -30 -16 0 -5 29 -33 65 -61 67
-52 73 -65 53 -102 -15 -29 -33 -43 -93 -72 -41 -21 -65 -25 -137 -25 -82 0
-88 -1 -88 -20 0 -36 48 -116 89 -152 58 -50 122 -82 235 -118 56 -19 144 -58
202 -91 103 -60 173 -80 204 -60 21 15 18 176 -5 261 -41 148 -158 315 -275
391 -39 26 -50 39 -59 74 -8 31 -25 57 -61 91 -84 81 -108 130 -166 349 -19
72 -41 155 -49 185 -8 30 -18 100 -21 155 -5 93 -18 145 -34 145 -4 0 -5 -31
-2 -68z" id="node7" class="node"></path>

<path d="M549 2182 c-28 -22 -42 -61 -59 -162 -17 -100 -54 -241 -104 -394
-49 -150 -54 -174 -32 -182 10 -4 12 -14 5 -45 -7 -29 -5 -49 5 -74 14 -33 36
-48 36 -24 0 6 10 23 22 37 15 20 19 22 14 7 -27 -70 -28 -74 -11 -107 18 -37
73 -82 190 -154 44 -27 116 -83 160 -125 79 -75 232 -198 337 -272 49 -34 56
-44 76 -105 12 -37 23 -96 25 -132 4 -57 10 -74 51 -137 38 -59 84 -162 110
-245 4 -14 16 -18 53 -18 93 0 336 63 372 96 12 11 6 37 -39 176 -80 248 -131
401 -136 409 -2 5 -24 -5 -48 -21 -47 -32 -139 -60 -198 -60 -55 0 -47 16 11
23 93 11 168 69 213 162 68 145 3 289 -165 364 -107 48 -460 147 -480 134 -4
-2 -17 -23 -28 -46 -26 -51 -79 -120 -87 -113 -3 3 2 14 10 23 33 38 61 109
66 169 4 52 2 62 -13 68 -21 8 -103 -51 -188 -136 -32 -32 -60 -58 -63 -58
-11 0 88 118 151 180 36 35 65 70 65 77 0 21 -30 15 -69 -15 -45 -35 -118 -77
-151 -87 -14 -4 4 13 40 37 72 50 138 136 147 192 5 32 3 36 -34 54 -22 12
-45 27 -52 36 -11 13 -8 14 26 4 53 -14 129 -3 173 26 32 21 38 31 46 78 7 46
8 49 12 20 8 -72 144 -152 257 -152 46 0 59 5 88 30 19 16 37 27 41 23 3 -3 6
4 6 16 0 21 -1 21 -22 7 -12 -9 -32 -16 -43 -15 -17 1 -16 2 5 8 24 7 21 10
-42 51 -38 24 -68 47 -68 51 0 4 -35 31 -77 59 l-78 52 -100 -6 c-173 -12
-205 -17 -205 -35 -1 -14 -2 -14 -11 2 -24 41 -134 2 -150 -53 -4 -14 -19 -70
-34 -125 -15 -55 -31 -104 -36 -109 -11 -12 -11 -17 6 79 8 44 15 107 15 140
1 63 9 80 52 108 30 19 37 19 293 15 l180 -3 62 -38 c34 -22 79 -55 100 -74
44 -40 121 -88 129 -80 7 6 -101 87 -115 87 -6 0 -8 6 -6 13 3 6 -28 47 -68
89 l-72 77 -155 35 c-214 50 -285 69 -303 84 -29 24 -80 26 -108 4z m691 -373
c0 -6 -4 -7 -10 -4 -5 3 -10 11 -10 16 0 6 5 7 10 4 6 -3 10 -11 10 -16z" id="node9" class="node"></path>
<path d="M1772 1032 c-16 -37 -35 -88 -42 -113 -6 -24 -18 -54 -26 -66 -12
-19 -11 -33 6 -110 11 -48 27 -122 36 -163 9 -41 25 -111 35 -155 10 -44 25
-114 34 -155 22 -104 25 -108 69 -81 47 29 103 95 117 139 16 49 -11 163 -61
254 -42 77 -99 283 -112 405 -6 62 -15 113 -19 113 -3 0 -20 -31 -37 -68z" id="node10" class="node"></path>
</g>
</svg>