<!--?xml version="1.0" standalone="no"?--><svg version="1.0" xmlns="http://www.w3.org/2000/svg" width="263.000000pt" height="300.000000pt" viewBox="0 0 263.000000 300.000000" preserveAspectRatio="xMidYMid meet">
<metadata>
  <rdf:rdf xmlns:rdf="http://www.w3.org/1999/02/22-rdf-syntax-ns#" xmlns:rdfs="http://www.w3.org/2000/01/rdf-schema#" xmlns:dc="http://purl.org/dc/elements/1.1/">
    <rdf:description dc:title="cartoon hand holding nail" dc:publisher="Hiox" dc:date="2015-05-02" dc:format="image/svg+xml" dc:language="en">
      <dc:creator>
        <rdf:bag>
          <rdf:li>svgimages.com</rdf:li>
        </rdf:bag>
      </dc:creator>
    </rdf:description>
  </rdf:rdf>
</metadata>
<g transform="translate(0.000000,300.000000) scale(0.100000,-0.100000)" fill="#383838" stroke="none">
<path d="M1233 2759 c-86 -20 -79 -72 14 -111 48 -20 53 -25 49 -47 -3 -15
-10 -62 -16 -105 -6 -44 -12 -81 -14 -84 -3 -2 -20 13 -39 35 -42 46 -132 93
-178 93 -45 0 -83 -25 -177 -114 l-78 -75 -95 6 c-137 8 -179 -4 -277 -83 -90
-72 -159 -148 -192 -211 -59 -114 12 -326 157 -471 l64 -63 -47 -47 c-70 -70
-97 -136 -98 -241 -1 -73 3 -94 25 -141 15 -30 41 -70 59 -88 30 -30 32 -34
17 -50 -28 -31 -55 -105 -62 -168 -10 -86 12 -155 70 -221 110 -125 467 -246
765 -259 103 -5 135 -10 183 -31 38 -16 101 -30 183 -40 116 -15 134 -15 226
0 77 13 117 26 178 58 274 142 513 607 471 913 -18 131 -80 231 -175 286 l-54
30 3 78 c5 94 -16 197 -53 265 -37 69 -126 157 -192 189 -73 36 -199 61 -265
53 l-52 -7 -7 32 c-3 18 -6 55 -6 82 0 59 -22 105 -56 118 -40 16 -97 12 -139
-10 -22 -11 -42 -20 -46 -20 -3 0 -3 21 1 48 4 26 13 93 20 150 l12 102 43 0
c82 0 138 36 112 71 -21 27 -71 56 -117 67 -69 17 -170 22 -217 11z m-102
-288 c92 -58 129 -127 129 -243 0 -214 -142 -345 -400 -369 -84 -7 -83 -7 30
-5 106 3 121 5 185 35 38 18 83 44 99 59 l29 27 -7 -34 c-3 -18 -6 -44 -6 -58
0 -14 -4 -22 -11 -18 -7 5 -8 -10 -4 -44 4 -35 2 -51 -6 -51 -7 0 -10 -15 -7
-40 2 -22 1 -40 -2 -40 -11 0 -146 83 -168 103 -18 16 -22 17 -17 5 9 -22 77
-77 134 -109 l43 -24 -7 -50 c-4 -27 -7 -58 -7 -67 1 -23 2 -23 -71 6 -92 35
-92 35 -194 51 -87 13 -103 12 -191 -5 -53 -10 -114 -26 -136 -35 -38 -16 -39
-16 -77 11 -85 58 -163 175 -209 313 -34 103 -4 177 121 294 100 93 131 116
171 128 38 11 174 11 202 0 17 -6 16 -10 -14 -39 -33 -33 -30 -40 6 -19 33 19
66 49 109 97 21 25 68 69 103 98 76 62 106 66 173 23z m433 -183 c10 -14 16
-44 16 -78 0 -84 15 -123 65 -169 54 -50 95 -58 44 -8 l-34 32 58 3 c228 12
404 -134 438 -363 10 -64 9 -98 -4 -194 -9 -64 -19 -155 -22 -202 -7 -115 -35
-204 -80 -253 -43 -47 -44 -53 -4 -24 32 24 89 114 89 142 0 9 3 16 8 16 4 0
8 15 8 33 2 38 10 107 25 199 l11 68 29 -15 c87 -45 155 -152 168 -265 8 -67
-2 -218 -17 -248 -5 -9 -14 -38 -21 -65 -26 -109 -155 -340 -240 -431 -83 -88
-199 -157 -299 -176 -77 -16 -306 -7 -377 13 l-50 14 30 12 c211 80 343 195
377 328 7 26 16 50 19 53 4 3 4 32 0 65 l-7 60 -7 -76 c-16 -181 -153 -319
-386 -389 -65 -20 -88 -22 -200 -17 -296 13 -641 125 -753 245 -65 70 -79 127
-57 234 18 84 68 142 164 186 88 42 174 62 265 62 143 0 236 -37 297 -116 26
-35 28 -43 28 -138 0 -84 -3 -107 -21 -136 -25 -43 -78 -80 -114 -80 -40 0
-43 11 -13 42 20 21 23 28 10 28 -8 0 -18 -4 -22 -9 -3 -5 -20 -13 -38 -16
-17 -4 -47 -16 -65 -27 -43 -26 -105 -27 -134 -2 -15 13 -20 15 -16 4 7 -22
59 -48 96 -49 18 -1 46 6 63 14 28 15 31 15 56 -5 53 -41 143 -16 197 55 37
48 58 151 54 257 l-3 87 34 35 c71 73 195 105 326 83 28 -5 46 -5 42 0 -5 4
-12 8 -15 9 -4 0 -16 5 -27 10 -11 5 -70 9 -132 9 -106 0 -111 1 -101 19 6 10
10 55 10 98 0 65 -5 89 -26 132 -14 29 -26 63 -26 74 0 12 -4 22 -10 22 -5 0
-8 15 -6 33 2 17 4 42 5 55 1 17 7 22 26 22 14 0 25 5 25 11 0 5 -8 9 -18 7
-11 -2 -18 2 -18 7 1 6 8 9 16 8 8 -2 33 0 55 4 l40 7 -53 7 c-29 4 -55 9 -56
10 -2 2 -1 23 2 46 l4 43 45 -39 c56 -50 161 -91 231 -91 34 0 51 4 47 10 -4
6 -25 10 -48 9 -59 -2 -152 34 -206 79 -57 49 -103 135 -109 205 -10 121 67
300 154 359 48 32 60 36 106 37 27 1 41 -5 52 -21z m-606 -739 c24 -5 73 -23
109 -39 54 -25 64 -33 58 -47 -16 -37 -26 -163 -23 -289 l3 -131 -50 27 c-143
79 -343 72 -525 -20 l-76 -38 -31 23 c-77 61 -101 227 -48 338 34 72 88 117
179 151 116 44 276 54 404 25z m313 -190 c17 -35 20 -56 17 -124 -2 -69 -7
-88 -31 -123 -27 -41 -89 -82 -124 -82 -10 0 -14 4 -8 8 11 8 45 77 45 92 0 5
13 37 29 72 18 38 32 90 36 131 4 37 9 67 11 67 2 0 13 -19 25 -41z" id="node1" class="node" stroke-width="20"></path>
<path d="M1045 2421 c-43 -18 -60 -50 -58 -109 3 -72 -15 -109 -78 -162 -27
-23 -56 -55 -65 -72 -15 -28 -12 -27 33 14 26 25 66 61 87 80 38 34 40 37 45
116 6 81 25 122 58 122 7 0 13 5 13 10 0 12 -8 12 -35 1z" id="node2" class="node" stroke-width="20"></path>



<path d="M1491 2089 c-6 -18 -11 -46 -10 -63 0 -28 2 -27 13 14 7 25 16 53 21
63 4 10 3 17 -3 17 -6 0 -15 -14 -21 -31z" id="node6" class="node" stroke-width="20"></path>



<path d="M1445 1383 c10 -54 31 -96 67 -129 17 -16 29 -24 27 -19 -13 33 -92
185 -96 185 -3 0 -2 -17 2 -37z" id="node10" class="node" stroke-width="20"></path>












</g>
<g transform="translate(0.000000,300.000000) scale(0.100000,-0.100000)" fill="#FFFFFF" stroke="none">





</g>
</svg>