<!--?xml version="1.0" standalone="no"?-->

<svg version="1.0" xmlns="http://www.w3.org/2000/svg" width="248.000000pt" height="300.000000pt" viewBox="0 0 248.000000 300.000000" preserveAspectRatio="xMidYMid meet">
<g transform="translate(0.000000,300.000000) scale(0.100000,-0.100000)" fill="#2D2D2D" stroke="none">
<path d="M975 2922 c-39 -25 -48 -36 -84 -109 -58 -117 -87 -282 -126 -718 -9
-99 -22 -238 -30 -310 -8 -71 -15 -135 -15 -141 0 -6 -20 -19 -44 -28 -41 -16
-74 -41 -65 -50 4 -4 66 5 230 33 94 16 193 -1 279 -48 119 -64 181 -93 186
-88 3 3 0 16 -7 29 -7 12 -12 27 -11 31 1 5 -2 6 -7 2 -6 -3 -34 10 -62 30
-28 19 -57 35 -64 35 -39 0 -26 60 52 237 7 18 20 50 28 72 25 72 108 231 139
267 l31 36 110 -22 c121 -24 191 -53 331 -136 89 -53 94 -58 94 -90 0 -52 -34
-69 -135 -68 -70 1 -157 13 -219 31 -13 3 -16 1 -11 -7 5 -9 2 -10 -12 -6 -22
7 -31 -13 -96 -194 -43 -123 -48 -145 -54 -246 -6 -114 12 -187 61 -239 20
-20 27 -34 18 -31 -74 22 -110 24 -167 10 -77 -20 -102 -34 -154 -84 -41 -40
-101 -125 -101 -143 0 -5 22 18 49 50 101 121 209 163 331 128 106 -29 117
-30 130 -4 45 86 125 143 216 156 72 9 86 43 34 78 -17 11 -42 43 -56 71 -34
68 -38 186 -7 254 30 69 69 110 104 110 53 0 88 -53 112 -170 30 -143 65 -212
165 -328 l55 -62 -39 -35 c-41 -37 -187 -138 -239 -165 -282 -150 -373 -209
-417 -269 -14 -20 -43 -81 -65 -136 -70 -176 -161 -291 -261 -328 -83 -30
-257 -30 -365 1 -42 12 -81 22 -85 22 -21 -2 93 -51 163 -70 107 -30 243 -25
325 12 102 46 203 176 270 350 55 141 89 173 315 297 167 92 196 108 284 167
74 48 161 134 161 158 0 13 -26 50 -65 91 -80 85 -128 179 -156 305 -21 99
-35 132 -69 168 l-22 23 20 22 c26 28 36 68 28 111 -6 31 -18 41 -104 94 -125
77 -185 107 -252 126 -79 22 -227 46 -245 40 -45 -18 -156 -211 -205 -357 -12
-38 -23 -67 -25 -65 -3 3 15 250 36 493 20 243 1 463 -48 547 -39 67 -114 94
-168 60z m104 -53 c52 -56 71 -150 71 -354 0 -77 -7 -207 -15 -290 -8 -82 -18
-252 -21 -378 -6 -201 -9 -227 -23 -223 -79 24 -123 28 -220 23 -58 -3 -114
-9 -124 -13 -16 -6 -17 -4 -9 12 31 59 66 301 97 667 29 355 106 577 200 577
13 0 33 -10 44 -21z m596 -1019 c33 -7 70 -14 82 -16 l22 -4 -29 -50 c-37 -63
-51 -117 -52 -194 0 -80 15 -133 53 -185 17 -24 29 -44 27 -45 -2 -1 -23 -8
-48 -15 -60 -18 -125 -64 -157 -112 -14 -22 -30 -38 -36 -36 -5 1 -24 22 -41
46 -31 43 -31 43 -31 174 0 140 13 200 82 377 32 83 32 82 51 76 10 -2 44 -10
77 -16z" id="node1" class="node" stroke-width="20"></path>

<path d="M343 2534 c-85 -43 -112 -181 -92 -479 17 -265 19 -596 3 -695 -21
-128 -33 -401 -23 -507 19 -205 146 -398 310 -473 107 -48 208 -8 260 104 30
64 50 153 48 216 -1 20 -3 26 -6 15 -14 -62 -59 -186 -81 -221 -57 -93 -136
-109 -238 -48 -75 45 -97 66 -144 135 -53 77 -87 166 -101 262 -13 96 -5 314
17 462 25 162 29 414 10 623 -20 233 -20 364 0 454 21 91 46 118 108 118 95 0
134 -76 162 -314 23 -199 69 -465 89 -510 12 -30 19 -36 28 -27 9 9 9 14 -1
19 -12 8 -23 81 -42 277 -17 180 -38 352 -50 408 -13 65 -56 144 -92 170 -37
27 -123 33 -165 11z" id="node3" class="node" stroke-width="20"></path>
<path d="M278 523 c-63 -15 40 -126 183 -198 225 -115 764 -181 796 -99 3 9
-4 25 -16 37 l-21 21 0 -23 0 -24 -152 6 c-169 7 -316 31 -453 72 -94 29 -144
54 -235 117 -91 62 -97 68 -81 77 16 10 3 19 -21 14z" id="node4" class="node" stroke-width="20"></path>
















</g>
<g transform="translate(0.000000,300.000000) scale(0.100000,-0.100000)" fill="#FFFFFF" stroke="none">









</g>
</svg>