<!--?xml version="1.0" standalone="no"?-->

<svg version="1.0" xmlns="http://www.w3.org/2000/svg" width="300.000000pt" height="240.000000pt" viewBox="0 0 300.000000 240.000000" preserveAspectRatio="xMidYMid meet">
<g transform="translate(0.000000,240.000000) scale(0.100000,-0.100000)" fill="#050505" stroke="none">
<path class="node" id="node1" d="M2295 2380 c-11 -4 -57 -46 -102 -93 -70 -72 -83 -90 -83 -118 0 -30
27 -60 303 -337 166 -167 315 -310 332 -317 43 -19 69 -5 162 87 83 82 101
114 84 146 -10 19 -610 619 -633 633 -16 11 -37 10 -63 -1z"></path>
<path class="node" id="node2" d="M1185 2179 c-96 -34 -151 -93 -204 -219 -13 -30 -34 -77 -46 -105
-13 -27 -43 -97 -68 -155 -25 -58 -57 -132 -72 -165 -61 -134 -22 -238 102
-275 53 -16 121 0 159 39 25 25 72 116 116 226 52 130 153 186 258 141 22 -9
183 -163 433 -413 l397 -399 0 -44 c-1 -68 -45 -110 -114 -110 -38 0 -47 7
-212 171 -139 139 -176 170 -192 165 -48 -16 -35 -36 131 -205 91 -91 170
-177 177 -190 25 -49 -16 -127 -78 -146 -49 -15 -82 5 -205 126 -67 66 -143
140 -168 166 -36 35 -51 44 -68 38 -47 -15 -25 -47 143 -213 109 -108 165
-172 169 -190 15 -75 -33 -132 -111 -132 l-46 0 -167 166 c-135 134 -171 165
-190 162 -54 -7 -35 -37 140 -212 168 -169 171 -173 171 -215 0 -36 -6 -49
-34 -77 -27 -27 -42 -34 -73 -34 -45 0 -78 23 -157 107 -47 51 -48 54 -36 83
25 61 -3 139 -62 175 -33 19 -106 22 -138 5 -21 -11 -22 -11 -15 6 28 70 10
150 -43 189 -29 21 -107 27 -149 12 -21 -8 -22 -7 -11 23 39 113 -58 222 -170
190 -52 -14 -51 -15 -36 31 24 68 -4 132 -73 168 -28 14 -98 14 -125 0 -19
-10 -42 10 -243 211 -225 225 -243 238 -269 198 -9 -15 21 -50 214 -243 l224
-224 -80 -83 c-98 -101 -114 -138 -89 -204 22 -58 73 -94 133 -94 24 0 52 5
64 11 23 13 37 4 20 -13 -16 -16 -15 -107 1 -135 23 -42 69 -68 117 -68 25 0
58 4 73 9 l29 9 -16 -31 c-9 -17 -16 -44 -16 -60 0 -38 47 -108 84 -124 36
-15 97 -14 127 3 20 10 21 9 15 -7 -31 -77 -8 -158 53 -192 45 -25 100 -28
139 -8 15 8 58 46 97 85 38 39 73 71 77 71 4 0 40 -32 80 -71 81 -79 117 -99
180 -99 87 0 168 71 178 158 l5 47 45 5 c25 3 54 11 65 17 51 29 95 102 95
158 0 19 7 23 47 29 26 3 62 16 80 29 38 25 83 107 83 149 0 26 3 28 38 28 21
0 53 10 74 23 126 77 121 229 -11 338 l-36 29 198 198 198 198 -283 280 c-156
154 -295 288 -308 296 -14 9 -97 37 -185 63 -197 57 -344 101 -410 122 -83 25
-152 26 -220 2z"></path>
</g>
<g transform="translate(0.000000,240.000000) scale(0.100000,-0.100000)" fill="#9F9F9F" stroke="none">

</g>
</svg>