<!--?xml version="1.0" standalone="no"?-->

<svg version="1.0" xmlns="http://www.w3.org/2000/svg" width="288.000000pt" height="300.000000pt" viewBox="0 0 288.000000 300.000000" preserveAspectRatio="xMidYMid meet">
<g transform="translate(0.000000,300.000000) scale(0.100000,-0.100000)" fill="#070707" stroke="none">
<path d="M1573 2582 c-7 -4 -33 -52 -58 -107 -26 -56 -70 -128 -100 -165 -59
-72 -155 -249 -206 -377 -18 -48 -38 -83 -45 -83 -8 0 -14 6 -14 13 0 8 -16
63 -35 123 -20 60 -45 146 -55 192 -24 100 -43 138 -72 148 -31 10 -50 -20
-43 -71 2 -22 10 -101 15 -175 6 -74 19 -190 30 -258 46 -283 16 -418 -190
-859 -46 -98 -51 -103 -105 -134 -67 -38 -103 -72 -217 -204 -93 -108 -139
-148 -342 -296 l-131 -96 -3 -51 -3 -52 394 0 394 0 79 102 c74 97 295 322
411 419 52 44 83 62 243 138 47 22 126 66 175 97 50 32 155 95 235 140 187
106 218 128 231 161 5 15 35 59 65 98 55 73 62 92 44 126 -8 15 -21 19 -60 19
-27 0 -52 -4 -55 -10 -3 -5 -13 -10 -21 -10 -12 0 -14 10 -8 59 10 93 -12 151
-101 262 -42 52 -85 102 -97 112 -28 24 -83 22 -228 -9 -67 -14 -124 -23 -127
-21 -2 3 13 28 34 56 21 28 52 76 68 108 29 58 71 114 176 234 68 78 89 114
120 202 l23 69 -19 36 c-11 20 -27 37 -37 37 -9 0 -41 -37 -76 -92 -53 -80
-77 -104 -192 -197 -73 -58 -136 -106 -140 -106 -5 0 9 39 32 86 22 47 51 118
64 157 23 68 32 161 17 170 -19 10 -59 15 -70 9z m329 -999 c32 -35 53 -72 68
-120 12 -37 31 -77 41 -89 27 -30 24 -41 -18 -55 -21 -6 -65 -26 -98 -43 -88
-45 -101 -47 -158 -26 -157 60 -190 212 -68 315 26 21 159 76 177 72 6 -1 31
-25 56 -54z" id="node1" class="node"></path>
</g>
<g transform="translate(0.000000,300.000000) scale(0.100000,-0.100000)" fill="#A7A7A7" stroke="none">


</g>
</svg>