<!--?xml version="1.0" standalone="no"?--><svg version="1.0" xmlns="http://www.w3.org/2000/svg" width="300.000000pt" height="214.000000pt" viewBox="0 0 300.000000 214.000000" preserveAspectRatio="xMidYMid meet">
<metadata>
  <rdf:rdf xmlns:rdf="http://www.w3.org/1999/02/22-rdf-syntax-ns#" xmlns:rdfs="http://www.w3.org/2000/01/rdf-schema#" xmlns:dc="http://purl.org/dc/elements/1.1/">
    <rdf:description dc:title="eyeglass vector" dc:publisher="Hiox" dc:date="2015-05-02" dc:format="image/svg+xml" dc:language="en">
      <dc:creator>
        <rdf:bag>
          <rdf:li>svgimages.com</rdf:li>
        </rdf:bag>
      </dc:creator>
    </rdf:description>
  </rdf:rdf>
</metadata>
<g transform="translate(0.000000,214.000000) scale(0.100000,-0.100000)" fill="#080808" stroke="none">
<path d="M1480 1689 c-80 -21 -160 -38 -178 -38 -39 -1 -71 -31 -114 -104 -15
-26 -31 -47 -35 -47 -4 0 -21 23 -38 51 -48 81 -86 104 -71 44 4 -14 17 -31
30 -36 41 -19 55 -71 52 -196 -1 -65 2 -113 7 -113 5 0 7 -14 5 -30 -5 -32 12
-54 47 -63 15 -4 14 -5 -7 -6 -21 -1 -49 -25 -129 -113 -56 -62 -108 -127
-115 -145 -20 -45 -54 -79 -113 -111 -80 -43 -269 -207 -273 -237 -2 -14 -7
-24 -13 -23 -5 2 -9 7 -7 11 1 5 -11 29 -29 54 -34 51 -109 212 -134 291 -25
74 -19 91 52 142 34 25 64 50 66 57 8 17 -4 53 -18 53 -6 0 -42 -31 -78 -69
-61 -63 -67 -73 -67 -111 0 -72 137 -381 197 -446 21 -23 25 -24 44 -10 18 12
26 12 54 0 30 -12 37 -11 82 11 52 26 137 95 179 144 23 28 24 33 14 93 -10
62 -9 63 20 93 23 23 32 27 42 17 7 -7 33 -12 58 -12 36 0 57 7 86 28 39 28
104 101 138 154 14 22 27 27 76 33 71 8 88 24 96 91 4 28 15 59 27 71 19 21
26 22 101 17 49 -4 118 -18 175 -36 104 -34 183 -39 241 -15 52 21 225 31 285
16 28 -7 97 -35 155 -62 167 -78 560 -227 600 -227 6 0 10 99 10 259 l0 258
-52 7 c-29 3 -87 6 -128 6 -173 0 -553 56 -690 100 -119 39 -338 120 -400 148
-36 16 -74 32 -85 34 -11 3 -85 -12 -165 -33z" id="node1" class="node"></path>
</g>
<g transform="translate(0.000000,214.000000) scale(0.100000,-0.100000)" fill="#A9A9A9" stroke="none">

</g>
</svg>