<!--?xml version="1.0" standalone="no"?-->

<svg version="1.0" xmlns="http://www.w3.org/2000/svg" width="300.000000pt" height="115.000000pt" viewBox="0 0 300.000000 115.000000" preserveAspectRatio="xMidYMid meet">
<g transform="translate(0.000000,115.000000) scale(0.100000,-0.100000)" fill="#252525" stroke="none">
<path class="node" id="node1" d="M890 1141 c-92 -7 -100 -10 -207 -83 -90 -60 -148 -72 -418 -87 -104
-6 -203 -15 -220 -20 -28 -8 -25 -9 29 -16 84 -11 254 0 370 24 54 12 100 21
102 21 1 0 -4 -16 -12 -36 -27 -64 -10 -72 21 -9 28 54 34 60 75 70 25 6 80
35 122 64 l76 53 153 -6 c201 -9 266 -31 352 -120 31 -33 57 -57 57 -53 0 3
-13 28 -29 55 l-29 49 47 -14 c39 -12 67 -13 185 -2 120 11 157 11 264 -3 155
-19 176 -31 180 -107 4 -64 -12 -93 -67 -121 -72 -36 -116 -41 -276 -28 -164
13 -155 9 -223 92 -13 15 -26 26 -29 23 -8 -9 17 -47 71 -106 28 -31 62 -73
75 -94 l23 -38 -28 -30 c-15 -16 -33 -29 -40 -29 -6 0 -17 -6 -23 -14 -15 -17
-59 -27 -67 -14 -4 6 -25 19 -48 29 l-41 19 80 1 80 1 -55 14 c-88 22 -247 80
-295 109 -24 14 -56 41 -71 60 -14 19 -29 34 -32 33 -4 -1 -52 13 -107 30 -54
18 -113 31 -130 31 -25 -1 -23 -3 15 -11 83 -18 152 -51 241 -115 48 -34 122
-81 163 -102 41 -22 72 -42 69 -45 -3 -2 22 -19 56 -35 52 -27 61 -35 61 -59
0 -15 -9 -40 -20 -57 -11 -16 -20 -36 -20 -44 0 -22 46 24 65 65 27 56 62 68
188 61 135 -8 152 -16 103 -46 -43 -27 -66 -67 -65 -113 l1 -33 15 43 c26 74
96 110 245 127 45 5 79 17 118 40 30 19 75 39 99 46 34 10 63 31 116 86 70 71
137 112 183 113 13 0 37 -13 53 -30 l30 -29 73 44 c82 50 124 57 156 25 12
-12 20 -33 20 -51 0 -27 -13 -45 -79 -108 -43 -42 -86 -89 -96 -104 -10 -16
-46 -47 -79 -69 -34 -23 -83 -61 -109 -84 -26 -24 -64 -48 -85 -55 -20 -6 -58
-27 -84 -46 -26 -19 -75 -45 -110 -59 -35 -14 -79 -32 -98 -41 -19 -9 -87 -23
-150 -30 -105 -13 -124 -19 -215 -65 -124 -62 -157 -64 -280 -13 -153 63 -319
107 -440 116 -122 8 -174 18 -255 50 -72 27 -197 34 -370 21 -122 -10 -240
-34 -240 -48 0 -3 10 -19 21 -36 24 -33 20 -33 159 -3 36 7 118 18 183 24 115
10 122 9 285 -24 92 -18 205 -36 252 -40 91 -7 178 -32 357 -101 148 -58 198
-59 290 -8 35 20 77 47 93 60 15 13 38 24 51 24 41 0 254 47 290 63 19 9 61
23 94 32 33 10 110 34 170 55 181 63 238 81 280 92 114 28 143 40 189 80 28
24 82 57 120 75 67 30 71 34 74 67 6 71 -44 109 -140 109 -46 -1 -65 -7 -105
-33 l-48 -32 48 47 c55 54 64 82 43 123 -31 61 -101 65 -206 12 l-56 -28 -21
24 c-46 52 -130 21 -254 -94 l-79 -74 -153 1 c-83 1 -190 6 -236 12 -46 6
-103 9 -127 5 -39 -5 -44 -3 -68 29 -14 18 -26 36 -26 39 0 3 69 2 153 -1 186
-7 224 1 284 62 42 41 43 44 43 109 0 58 -3 69 -27 96 -16 17 -46 36 -68 42
-23 6 -153 12 -305 13 -283 2 -281 2 -430 62 -73 29 -171 36 -320 24z m2049
-487 c37 -48 29 -69 -42 -102 -35 -16 -92 -52 -127 -81 -35 -28 -70 -51 -77
-51 -16 0 -336 -103 -385 -124 -21 -9 -38 -14 -38 -12 0 2 41 30 92 62 50 32
101 69 112 82 12 13 46 39 77 58 37 22 70 53 94 89 21 30 44 55 51 55 6 0 36
11 66 25 35 16 71 25 105 25 44 0 55 -4 72 -26z m-1174 -14 c60 -9 74 -14 98
-42 23 -28 27 -29 27 -12 0 11 -5 25 -12 32 -9 9 15 12 107 12 l120 0 -53 -30
c-31 -17 -76 -31 -110 -35 -31 -4 -80 -13 -109 -21 -48 -14 -53 -14 -85 6 -27
16 -50 20 -122 20 -101 0 -104 9 -13 55 58 28 56 28 152 15z"></path>
<path class="node" id="node2" d="M760 1010 c0 -5 8 -10 18 -10 34 -1 99 -38 180 -103 96 -78 110 -73
20 7 -92 82 -218 143 -218 106z"></path>
<path class="node" id="node3" d="M1646 969 c4 -19 8 -67 9 -106 0 -70 6 -86 21 -61 18 29 -3 179 -28
194 -8 5 -9 -2 -2 -27z"></path>
<path class="node" id="node4" d="M175 790 c-12 -5 42 -9 142 -9 98 -1 164 3 168 9 8 12 -281 12 -310
0z"></path>
<path class="node" id="node5" d="M508 794 c-5 -4 -8 -14 -8 -22 0 -8 -11 -38 -25 -67 l-24 -52 -63 -6
c-64 -5 -321 -86 -342 -107 -13 -14 14 -8 129 25 44 13 114 31 155 39 41 9 84
18 95 21 19 6 20 2 17 -56 -5 -81 13 -100 21 -22 3 32 17 93 32 136 24 73 31
130 13 111z"></path>
<path class="node" id="node6" d="M2448 687 c-31 -28 -64 -67 -73 -85 -22 -45 -85 -107 -137 -133 -24
-12 -75 -50 -115 -85 -51 -44 -84 -65 -110 -70 -21 -4 -49 -12 -63 -19 -14 -7
-77 -27 -140 -45 -63 -18 -155 -50 -204 -71 -102 -44 -119 -46 -200 -24 -45
13 -70 15 -100 8 l-41 -9 55 -18 c32 -11 101 -20 163 -23 l108 -6 52 36 c63
43 83 51 171 66 38 7 95 22 125 35 31 12 77 30 103 40 26 9 75 39 110 67 35
27 93 72 129 99 55 41 73 62 100 117 19 38 43 75 54 83 47 34 99 90 85 90 -8
0 -41 -24 -72 -53z"></path>
</g>
<g transform="translate(0.000000,115.000000) scale(0.100000,-0.100000)" fill="#526181" stroke="none">



</g>
</svg>