<!--?xml version="1.0" standalone="no"?--><svg version="1.0" xmlns="http://www.w3.org/2000/svg" width="288.000000pt" height="300.000000pt" viewBox="0 0 288.000000 300.000000" preserveAspectRatio="xMidYMid meet">
<metadata>
  <rdf:rdf xmlns:rdf="http://www.w3.org/1999/02/22-rdf-syntax-ns#" xmlns:rdfs="http://www.w3.org/2000/01/rdf-schema#" xmlns:dc="http://purl.org/dc/elements/1.1/">
    <rdf:description dc:title="hands holding globe" dc:publisher="Hiox" dc:date="2015-04-30" dc:format="image/svg+xml" dc:language="en">
      <dc:creator>
        <rdf:bag>
          <rdf:li>svgimages.com</rdf:li>
        </rdf:bag>
      </dc:creator>
    </rdf:description>
  </rdf:rdf>
</metadata>
<g transform="translate(0.000000,300.000000) scale(0.100000,-0.100000)" fill="#272727" stroke="none">
<path d="M1320 2771 c-463 -68 -790 -442 -790 -903 0 -336 184 -638 482 -792
261 -135 536 -140 813 -16 212 96 401 318 474 555 60 200 40 470 -50 648 -118
233 -348 426 -569 477 -30 7 -65 16 -76 20 -33 13 -222 20 -284 11z m357 -125
c101 -33 214 -95 228 -125 6 -12 22 -25 38 -28 42 -9 32 -20 -25 -26 -36 -5
-54 -3 -60 6 -5 9 -11 7 -21 -6 -12 -17 -14 -17 -26 -3 -8 9 -28 16 -45 16
-17 0 -50 9 -74 20 -41 18 -44 19 -80 2 -20 -9 -51 -28 -69 -42 -17 -14 -43
-33 -58 -43 -19 -14 -25 -26 -23 -45 2 -23 8 -27 31 -25 32 2 36 -12 5 -20
-12 -4 -19 -9 -15 -13 4 -4 -5 -13 -20 -21 -24 -12 -28 -11 -49 8 -12 12 -20
27 -17 35 3 8 -2 16 -10 20 -18 7 -60 -13 -52 -25 3 -5 -2 -11 -10 -15 -20 -7
-20 -46 0 -46 9 0 19 10 24 22 5 13 10 17 15 10 3 -6 2 -13 -4 -17 -17 -10
-11 -25 10 -25 25 0 27 -20 3 -20 -17 -1 -17 -2 1 -15 25 -19 14 -44 -17 -38
-28 5 -39 -8 -44 -49 -2 -20 3 -31 18 -39 l21 -11 -21 -19 c-12 -11 -21 -26
-21 -34 0 -8 -9 -19 -20 -25 -29 -15 -42 -53 -46 -132 -3 -61 -2 -67 21 -82
14 -9 25 -22 25 -28 0 -28 31 -47 68 -41 21 3 41 10 46 14 15 14 42 11 56 -5
6 -8 19 -12 27 -9 14 5 15 1 10 -27 -5 -21 -2 -38 5 -48 20 -23 37 -104 27
-124 -14 -26 -11 -50 11 -93 11 -22 20 -46 20 -55 0 -21 25 -89 36 -100 13
-13 78 11 109 40 14 13 25 33 25 46 0 12 7 24 15 28 8 3 15 15 15 27 0 12 11
37 25 55 14 18 25 42 25 53 0 12 5 21 11 21 6 0 1 8 -11 18 -30 24 -22 58 26
109 48 49 74 92 74 120 0 20 -3 21 -26 13 -14 -6 -32 -10 -40 -10 -30 0 -11
16 49 41 41 18 69 38 85 60 21 30 21 33 6 50 -11 12 -25 17 -39 13 -16 -4 -27
1 -39 17 -24 34 -20 46 7 21 13 -12 31 -22 40 -22 9 0 19 -5 22 -11 4 -6 25
-9 46 -8 33 3 44 -2 69 -29 17 -18 30 -42 30 -52 0 -19 49 -132 50 -115 1 6 7
-1 15 -15 12 -22 14 -23 20 -7 4 9 4 25 0 35 -17 38 7 112 36 112 12 0 -1
-140 -21 -211 -10 -36 -27 -83 -37 -105 -11 -21 -23 -51 -27 -66 -3 -16 -11
-28 -16 -28 -6 0 -10 -6 -10 -13 0 -22 -84 -129 -144 -185 -117 -106 -229
-165 -384 -201 -117 -26 -206 -27 -334 -1 -115 24 -211 66 -315 139 l-72 51
20 35 c12 19 25 38 30 41 5 3 9 14 9 25 0 13 10 24 29 30 36 13 56 43 59 89 2
21 12 45 27 60 14 15 25 31 25 38 0 17 -60 57 -109 72 -24 8 -46 21 -49 29 -8
25 -44 61 -60 61 -8 0 -26 12 -39 26 -16 18 -36 27 -63 29 -21 2 -44 6 -50 10
-6 4 -22 -3 -35 -15 -38 -35 -55 -14 -55 68 0 51 3 63 12 54 7 -7 19 -12 28
-12 10 0 7 7 -12 23 -26 21 -26 24 -18 77 5 30 16 60 24 66 8 5 18 23 22 38 4
16 15 31 24 33 10 3 20 13 23 24 5 19 37 27 37 10 0 -5 14 -4 30 2 35 13 38
23 11 32 -11 3 -22 12 -25 20 -3 9 0 12 8 9 8 -3 17 -1 21 5 10 17 33 13 31
-6 -1 -13 7 -19 27 -21 32 -4 35 11 6 31 -14 10 -17 17 -9 22 14 9 -16 45 -37
45 -7 0 -18 12 -23 26 -9 23 -6 31 22 63 l33 36 36 -37 c44 -46 71 -49 86 -8
7 19 18 30 31 30 11 0 25 7 32 15 7 8 23 15 36 15 13 0 35 5 49 12 21 9 25 17
20 35 -4 18 -1 23 15 23 16 0 20 7 20 34 0 25 7 40 25 54 14 11 25 25 25 31 0
6 10 13 23 15 12 3 31 7 42 10 11 3 83 3 160 2 119 -3 152 -7 222 -30z m-45
-228 c-7 -7 -12 -8 -12 -2 0 6 3 14 7 17 3 4 9 5 12 2 2 -3 -1 -11 -7 -17z
m164 15 c-10 -11 -36 -12 -36 -2 0 5 10 9 22 9 12 0 18 -3 14 -7z m-180 -48
c4 -9 20 -15 43 -16 20 -1 27 -3 16 -6 -35 -7 -65 -26 -65 -40 0 -9 -14 -13
-47 -12 -28 1 -37 4 -23 6 29 6 49 30 50 61 0 25 18 30 26 7z m-859 -141 c-3
-3 -12 -4 -19 -1 -8 3 -5 6 6 6 11 1 17 -2 13 -5z m1173 -34 c0 -5 -7 -10 -15
-10 -19 0 -19 -9 -1 -29 8 -9 18 -29 22 -44 6 -26 4 -28 -17 -25 -18 2 -23 9
-22 26 2 12 -6 31 -17 42 -26 26 -25 38 3 43 39 8 47 7 47 -3z m-197 -12 c4
-10 7 -10 18 -1 10 10 17 9 36 -9 13 -12 23 -25 23 -29 0 -3 -28 -5 -62 -4
-35 1 -62 6 -60 11 10 37 15 44 27 44 7 0 15 -6 18 -12z m-163 -28 c0 -15 -5
-12 -26 11 -19 22 -19 22 4 10 12 -6 22 -16 22 -21z m-56 -5 c3 -8 12 -15 19
-15 8 0 22 -10 30 -22 l16 -23 0 29 c1 28 2 29 16 10 8 -10 15 -27 15 -36 0
-10 4 -18 8 -18 14 0 31 22 26 35 -3 7 -1 16 5 20 7 3 11 -2 11 -14 0 -23 28
-41 64 -41 19 0 26 -5 26 -20 0 -28 -24 -35 -79 -22 -38 9 -48 8 -57 -4 -15
-19 -26 -18 -67 6 -26 15 -34 26 -30 40 5 18 0 20 -41 20 -26 0 -60 -7 -76
-15 -17 -9 -30 -14 -30 -11 0 11 79 84 96 89 34 9 42 7 48 -8z m295 -270 c6
-3 11 -16 11 -27 0 -21 0 -21 -25 2 -14 13 -25 33 -25 44 0 12 -6 33 -14 48
-8 15 -11 30 -8 33 4 4 17 -16 29 -43 12 -28 27 -53 32 -57z m-1166 -144 c2
-10 1 -25 -4 -32 -6 -10 -9 -4 -9 19 0 36 5 42 13 13z m1097 -81 c0 -5 -5 -10
-11 -10 -5 0 -7 5 -4 10 3 6 8 10 11 10 2 0 4 -4 4 -10z" id="node1" class="node" stroke-width="20"></path>
<path d="M1164 2441 c-21 -22 36 -45 71 -29 14 6 25 15 25 19 0 8 -89 17 -96
10z" id="node2" class="node" stroke-width="20"></path>
<path d="M685 1901 c-7 -12 31 -25 45 -16 6 4 8 11 5 16 -8 12 -42 12 -50 0z" id="node3" class="node" stroke-width="20"></path>

<path d="M1859 1506 c-23 -20 -27 -31 -25 -72 1 -36 5 -50 17 -52 21 -4 59 85
52 122 -6 32 -11 32 -44 2z" id="node5" class="node" stroke-width="20"></path>
<path d="M1485 2140 c3 -5 10 -10 16 -10 5 0 9 5 9 10 0 6 -7 10 -16 10 -8 0
-12 -4 -9 -10z" id="node6" class="node" stroke-width="20"></path>
<path d="M1535 2110 c3 -5 10 -10 16 -10 5 0 9 5 9 10 0 6 -7 10 -16 10 -8 0
-12 -4 -9 -10z" id="node7" class="node" stroke-width="20"></path>
<path d="M426 1517 c-22 -28 -28 -53 -41 -168 -9 -73 -18 -142 -21 -153 -19
-62 -10 -84 135 -308 68 -104 80 -117 135 -148 103 -56 249 -155 289 -196 58
-58 80 -108 79 -177 l-1 -57 177 2 177 3 3 50 c5 84 -15 266 -38 345 -18 63
-29 82 -67 118 -52 49 -100 75 -191 103 -119 38 -148 54 -182 106 -97 143
-221 216 -252 148 -9 -21 -6 -33 30 -92 23 -37 46 -81 52 -96 5 -16 25 -48 44
-70 18 -23 45 -62 60 -87 25 -41 21 -39 -47 32 -41 42 -80 91 -87 110 -7 18
-27 65 -46 105 -29 60 -32 76 -24 99 11 28 -5 65 -38 90 -10 7 -16 34 -17 78
-2 40 -10 77 -19 91 -9 13 -16 31 -16 38 0 20 -39 67 -55 67 -8 0 -25 -15 -39
-33z" id="node8" class="node" stroke-width="20"></path>
<path d="M2371 1524 c-12 -15 -21 -33 -21 -41 0 -7 -7 -24 -15 -37 -9 -13 -18
-54 -22 -92 -5 -56 -11 -75 -34 -102 -23 -26 -27 -36 -19 -56 11 -29 2 -62
-34 -133 -14 -29 -26 -57 -26 -63 0 -17 -53 -88 -116 -155 l-56 -60 27 50 c15
28 40 64 55 80 15 17 44 64 64 105 20 41 47 92 59 112 17 30 20 42 11 55 -38
61 -165 -14 -247 -144 -33 -51 -55 -65 -176 -107 -121 -42 -133 -48 -189 -93
-52 -42 -64 -65 -91 -172 -16 -66 -21 -115 -21 -223 l0 -138 175 0 175 0 0 60
c0 36 7 74 16 93 37 74 132 149 343 272 53 30 87 58 95 74 6 14 46 79 89 143
95 143 109 174 97 219 -4 19 -13 86 -20 149 -13 132 -24 176 -53 208 -27 29
-41 28 -66 -4z" id="node9" class="node" stroke-width="20"></path>


























</g>
<g transform="translate(0.000000,300.000000) scale(0.100000,-0.100000)" fill="#FFFFFF" stroke="none">

<path d="M1295 2674 c-11 -3 -30 -7 -42 -10 -13 -2 -23 -9 -23 -15 0 -6 -11
-20 -25 -31 -18 -14 -25 -29 -25 -54 0 -27 -4 -34 -20 -34 -16 0 -19 -5 -15
-23 5 -18 1 -26 -20 -35 -14 -7 -36 -12 -49 -12 -13 0 -29 -7 -36 -15 -7 -8
-21 -15 -32 -15 -13 0 -24 -11 -31 -30 -15 -41 -42 -38 -86 8 l-36 37 -33 -36
c-28 -32 -31 -40 -22 -63 5 -14 16 -26 23 -26 21 0 51 -36 37 -45 -8 -5 -5
-12 9 -22 29 -20 26 -35 -6 -31 -20 2 -28 8 -27 21 2 19 -21 23 -31 6 -4 -6
-13 -8 -21 -5 -8 3 -11 0 -8 -9 3 -8 14 -17 25 -20 27 -9 24 -19 -11 -32 -16
-6 -30 -7 -30 -2 0 17 -32 9 -37 -10 -3 -11 -13 -21 -23 -24 -9 -2 -20 -17
-24 -33 -4 -15 -14 -33 -22 -38 -8 -6 -19 -36 -24 -66 -8 -53 -8 -56 18 -77
19 -16 22 -23 12 -23 -9 0 -21 5 -28 12 -9 9 -12 -3 -12 -54 0 -82 17 -103 55
-68 13 12 29 19 35 15 6 -4 29 -8 50 -10 27 -2 47 -11 63 -29 13 -14 31 -26
39 -26 16 0 52 -36 60 -61 3 -8 25 -21 49 -29 49 -15 109 -55 109 -72 0 -7
-11 -23 -25 -38 -15 -15 -25 -39 -27 -60 -3 -46 -23 -76 -59 -89 -19 -6 -29
-17 -29 -30 0 -11 -4 -22 -9 -25 -5 -3 -18 -22 -30 -41 l-20 -35 72 -51 c104
-73 200 -115 315 -139 128 -26 217 -25 334 1 155 36 267 95 384 201 60 56 144
163 144 185 0 7 4 13 10 13 5 0 13 12 16 28 4 15 16 45 27 66 10 22 27 69 37
105 20 71 33 211 21 211 -29 0 -53 -74 -36 -112 4 -10 4 -26 0 -35 -6 -16 -8
-15 -20 7 -8 14 -14 21 -15 15 -1 -17 -50 96 -50 115 0 10 -13 34 -30 52 -25
27 -36 32 -69 29 -21 -1 -42 2 -46 8 -3 6 -13 11 -22 11 -9 0 -27 10 -40 22
-27 25 -31 13 -7 -21 12 -16 23 -21 39 -17 14 4 28 -1 39 -13 15 -17 15 -20
-6 -50 -16 -22 -44 -42 -85 -60 -60 -25 -79 -41 -49 -41 8 0 26 4 40 10 23 8
26 7 26 -13 0 -28 -26 -71 -74 -120 -48 -51 -56 -85 -26 -109 12 -10 17 -18
11 -18 -6 0 -11 -9 -11 -21 0 -11 -11 -35 -25 -53 -14 -18 -25 -43 -25 -55 0
-12 -7 -24 -15 -27 -8 -4 -15 -16 -15 -28 0 -13 -11 -33 -25 -46 -31 -29 -96
-53 -109 -40 -11 11 -36 79 -36 100 0 9 -9 33 -20 55 -22 43 -25 67 -11 93 10
20 -7 101 -27 124 -7 10 -10 27 -5 48 5 28 4 32 -10 27 -8 -3 -21 1 -27 9 -14
16 -41 19 -56 5 -5 -4 -25 -11 -46 -14 -37 -6 -68 13 -68 41 0 6 -11 19 -25
28 -23 15 -24 21 -21 82 4 79 17 117 46 132 11 6 20 17 20 25 0 8 9 23 21 34
l21 19 -21 11 c-15 8 -20 19 -18 39 5 41 16 54 44 49 31 -6 42 19 17 38 -18
13 -18 14 -1 15 24 0 22 20 -3 20 -21 0 -27 15 -10 25 6 4 7 11 4 17 -5 7 -10
3 -15 -10 -5 -12 -15 -22 -24 -22 -20 0 -20 39 0 46 8 4 13 10 10 15 -8 12 34
32 52 25 8 -4 13 -12 10 -20 -3 -8 5 -23 17 -35 21 -19 25 -20 49 -8 15 8 24
17 20 21 -4 4 3 9 15 13 31 8 27 22 -5 20 -23 -2 -29 2 -31 25 -2 19 4 31 23
45 15 10 41 29 58 43 18 14 49 33 69 42 36 17 39 16 80 -2 24 -11 57 -20 74
-20 17 0 37 -7 45 -16 12 -14 14 -14 26 3 10 13 16 15 21 6 6 -9 24 -11 60 -6
57 6 67 17 25 26 -16 3 -32 16 -38 28 -14 30 -127 92 -228 125 -70 23 -103 27
-222 30 -77 1 -149 1 -160 -2z m-35 -243 c0 -4 -11 -13 -25 -19 -35 -16 -92 7
-71 29 7 7 96 -2 96 -10z m-525 -530 c3 -5 1 -12 -5 -16 -14 -9 -52 4 -45 16
8 12 42 12 50 0z m342 -383 c-3 -7 -5 -2 -5 12 0 14 2 19 5 13 2 -7 2 -19 0
-25z m826 -14 c7 -37 -31 -126 -52 -122 -12 2 -16 16 -17 52 -2 41 2 52 25 72
33 30 38 30 44 -2z" id="node37" class="node" stroke-width="20"></path>
<path d="M1627 2433 c-4 -3 -7 -11 -7 -17 0 -6 5 -5 12 2 6 6 9 14 7 17 -3 3
-9 2 -12 -2z" id="node38" class="node" stroke-width="20"></path>
<path d="M1760 2431 c0 -10 26 -9 36 2 4 4 -2 7 -14 7 -12 0 -22 -4 -22 -9z" id="node39" class="node" stroke-width="20"></path>
<path d="M1590 2378 c-1 -31 -21 -55 -50 -61 -14 -2 -5 -5 23 -6 33 -1 47 3
47 12 0 14 30 33 65 40 11 3 4 5 -16 6 -23 1 -39 7 -43 16 -8 23 -26 18 -26
-7z" id="node40" class="node" stroke-width="20"></path>
<path d="M738 2243 c7 -3 16 -2 19 1 4 3 -2 6 -13 5 -11 0 -14 -3 -6 -6z" id="node41" class="node" stroke-width="20"></path>
<path d="M1883 2213 c-28 -5 -29 -17 -3 -43 11 -11 19 -30 17 -42 -1 -17 4
-24 22 -26 21 -3 23 -1 17 25 -4 15 -14 35 -22 44 -18 20 -18 29 1 29 8 0 15
5 15 10 0 10 -8 11 -47 3z" id="node42" class="node" stroke-width="20"></path>
<path d="M1696 2193 c-3 -10 -7 -22 -8 -27 -2 -5 25 -10 60 -11 34 -1 62 1 62
4 0 4 -10 17 -23 29 -19 18 -26 19 -36 9 -11 -9 -14 -9 -18 1 -7 18 -31 15
-37 -5z" id="node43" class="node" stroke-width="20"></path>
<path d="M1544 2181 c21 -23 26 -26 26 -11 0 5 -10 15 -22 21 -23 12 -23 12
-4 -10z" id="node44" class="node" stroke-width="20"></path>
<path d="M1466 2173 c-17 -5 -96 -78 -96 -89 0 -3 13 2 30 11 16 8 50 15 76
15 41 0 46 -2 41 -20 -4 -14 4 -25 30 -40 41 -24 52 -25 67 -6 9 12 19 13 57
4 55 -13 79 -6 79 22 0 15 -7 20 -26 20 -36 0 -64 18 -64 41 0 12 -4 17 -11
14 -6 -4 -8 -13 -5 -20 5 -13 -12 -35 -26 -35 -4 0 -8 8 -8 18 0 9 -7 26 -15
36 -14 19 -15 18 -16 -10 l0 -29 -16 23 c-8 12 -22 22 -30 22 -7 0 -16 7 -19
15 -6 15 -14 17 -48 8z m44 -33 c0 -5 -4 -10 -9 -10 -6 0 -13 5 -16 10 -3 6 1
10 9 10 9 0 16 -4 16 -10z m50 -30 c0 -5 -4 -10 -9 -10 -6 0 -13 5 -16 10 -3
6 1 10 9 10 9 0 16 -4 16 -10z" id="node45" class="node" stroke-width="20"></path>
<path d="M1748 1995 c-3 -3 0 -18 8 -33 8 -15 14 -36 14 -48 0 -11 11 -31 25
-44 25 -23 25 -23 25 -2 0 11 -5 24 -11 27 -5 4 -20 29 -32 57 -12 27 -25 47
-29 43z" id="node46" class="node" stroke-width="20"></path>
<path d="M630 1738 c0 -23 3 -29 9 -19 8 12 4 51 -5 51 -2 0 -4 -15 -4 -32z" id="node47" class="node" stroke-width="20"></path>
<path d="M1725 1670 c-3 -5 -1 -10 4 -10 6 0 11 5 11 10 0 6 -2 10 -4 10 -3 0
-8 -4 -11 -10z" id="node48" class="node" stroke-width="20"></path>
</g>
</svg>