<!--?xml version="1.0" standalone="no"?--><svg version="1.0" xmlns="http://www.w3.org/2000/svg" width="288.000000pt" height="300.000000pt" viewBox="0 0 288.000000 300.000000" preserveAspectRatio="xMidYMid meet">
<metadata>
  <rdf:rdf xmlns:rdf="http://www.w3.org/1999/02/22-rdf-syntax-ns#" xmlns:rdfs="http://www.w3.org/2000/01/rdf-schema#" xmlns:dc="http://purl.org/dc/elements/1.1/">
    <rdf:description dc:title="hand holding id card" dc:publisher="Hiox" dc:date="2015-05-04" dc:format="image/svg+xml" dc:language="en">
      <dc:creator>
        <rdf:bag>
          <rdf:li>svgimages.com</rdf:li>
        </rdf:bag>
      </dc:creator>
    </rdf:description>
  </rdf:rdf>
</metadata>
<g transform="translate(0.000000,300.000000) scale(0.100000,-0.100000)" fill="#2A2A2E" stroke="none">
<path d="M1525 2281 c-11 -5 -152 -141 -312 -303 -276 -277 -293 -296 -293
-330 0 -24 8 -46 25 -66 37 -44 434 -436 451 -445 34 -19 79 2 142 66 55 55
62 67 57 90 -4 15 -10 27 -14 27 -4 0 -36 -29 -71 -65 -35 -36 -71 -65 -79
-65 -24 0 -451 432 -451 455 0 24 558 585 581 585 16 0 459 -440 459 -456 0
-6 -65 -75 -145 -153 -142 -140 -159 -164 -137 -198 5 -8 61 41 172 152 151
151 164 167 164 200 0 34 -16 52 -234 270 -242 242 -264 258 -315 236z" id="node1" class="node"></path>
<path d="M1519 2102 c-28 -27 -37 -42 -29 -47 8 -5 27 8 52 32 24 25 36 43 29
47 -5 4 -29 -11 -52 -32z" id="node2" class="node"></path>
<path d="M1555 2074 c-39 -44 -39 -47 -15 -69 20 -18 21 -18 55 15 40 39 42
50 17 73 -23 21 -21 22 -57 -19z m55 3 c0 -2 -14 -16 -31 -33 -26 -24 -30 -25
-20 -7 11 22 51 53 51 40z" id="node3" class="node" stroke-width="20"></path>
<path d="M1612 2017 c-36 -37 -39 -49 -17 -67 13 -10 15 -9 15 9 0 14 6 21 20
21 14 0 20 7 20 21 0 11 5 17 10 14 20 -12 32 7 13 21 -25 18 -25 18 -61 -19z" id="node4" class="node"></path>
<path d="M1657 1972 c-41 -42 -46 -56 -18 -47 16 5 18 2 14 -15 -7 -26 9 -26
33 1 26 28 51 41 59 30 3 -6 -8 -24 -25 -41 -16 -17 -30 -35 -30 -40 0 -19 22
-10 51 22 24 24 33 28 42 19 9 -10 5 -18 -21 -39 -18 -15 -32 -33 -32 -39 0
-23 28 -14 55 18 19 23 29 29 37 21 8 -8 2 -19 -20 -39 -18 -15 -32 -33 -32
-40 0 -21 27 -15 48 12 22 27 52 34 52 11 0 -8 -11 -28 -25 -44 -42 -51 -29
-56 34 -15 40 26 56 51 25 39 -11 -4 -15 -2 -11 8 6 14 -45 76 -62 76 -6 0
-11 7 -11 15 0 8 -4 15 -9 15 -12 0 -71 59 -71 71 0 6 -9 5 -21 -2 -18 -9 -20
-8 -15 9 12 35 -10 32 -47 -6z" id="node5" class="node"></path>
<path d="M1468 1841 c-30 -26 -33 -35 -32 -82 0 -45 5 -56 32 -81 26 -22 42
-28 78 -28 39 0 51 5 80 34 28 28 34 42 34 76 0 34 -6 48 -34 76 -29 29 -41
34 -80 34 -36 0 -52 -6 -78 -29z" id="node6" class="node"></path>
<path d="M1207 1691 c-76 -76 -88 -93 -82 -113 12 -37 218 -238 245 -238 35 0
190 155 190 190 0 39 -210 250 -248 250 -9 0 -56 -40 -105 -89z" id="node7" class="node"></path>
<path d="M1635 1492 c-58 -13 -67 -64 -27 -154 l30 -66 -89 -87 c-88 -87 -90
-88 -131 -82 -35 5 -53 17 -120 84 l-78 78 0 -101 c0 -149 -7 -144 198 -144
191 0 165 -11 285 118 82 88 83 101 26 233 -44 103 -64 128 -94 121z" id="node8" class="node"></path>
<path d="M1240 974 c-8 -8 -13 -28 -13 -44 0 -57 10 -60 189 -60 134 0 165 3
178 16 18 18 21 56 6 85 -10 18 -23 19 -179 19 -140 0 -171 -3 -181 -16z" id="node9" class="node"></path>
</g>
<g transform="translate(0.000000,300.000000) scale(0.100000,-0.100000)" fill="#AEAFB1" stroke="none">


</g>
</svg>