<!--?xml version="1.0" standalone="no"?--><svg version="1.0" xmlns="http://www.w3.org/2000/svg" width="187.000000pt" height="300.000000pt" viewBox="0 0 187.000000 300.000000" preserveAspectRatio="xMidYMid meet">
<metadata>
  <rdf:rdf xmlns:rdf="http://www.w3.org/1999/02/22-rdf-syntax-ns#" xmlns:rdfs="http://www.w3.org/2000/01/rdf-schema#" xmlns:dc="http://purl.org/dc/elements/1.1/">
    <rdf:description dc:title="hand holding tele Phone receiver" dc:publisher="Hiox" dc:date="2015-05-02" dc:format="image/svg+xml" dc:language="en">
      <dc:creator>
        <rdf:bag>
          <rdf:li>svgimages.com</rdf:li>
        </rdf:bag>
      </dc:creator>
    </rdf:description>
  </rdf:rdf>
</metadata>
<g transform="translate(0.000000,300.000000) scale(0.100000,-0.100000)" fill="#2F2F2F" stroke="none">
<path d="M455 2836 c-57 -26 -133 -103 -166 -167 -18 -35 -22 -61 -22 -129 0
-47 6 -105 13 -130 7 -25 14 -81 15 -125 1 -44 6 -235 10 -425 8 -383 6 -367
92 -640 94 -298 114 -400 77 -400 -8 0 -28 -13 -44 -28 -24 -24 -30 -40 -36
-100 -5 -61 -10 -74 -31 -87 -35 -23 -51 -68 -59 -171 -8 -101 0 -106 21 -13
l13 64 2 -50 c2 -59 6 -51 15 28 6 53 8 57 21 40 8 -10 13 -43 14 -76 0 -36 4
-56 10 -52 5 3 10 26 10 51 0 38 3 45 18 42 14 -3 18 -17 22 -73 5 -76 20 -68
20 11 0 31 4 44 14 44 10 0 16 -19 21 -68 9 -95 13 -99 14 -13 1 62 3 72 17
67 9 -3 18 -6 20 -6 2 0 4 -33 5 -72 1 -82 4 -80 14 5 4 39 11 57 20 57 11 0
15 -22 17 -98 l3 -97 9 93 c7 77 11 92 25 90 13 -3 17 -21 21 -93 4 -71 7 -83
13 -56 4 18 7 58 7 88 0 81 22 63 36 -28 l11 -74 2 73 c1 64 3 73 19 70 13 -3
18 -17 23 -73 5 -65 6 -66 7 -18 2 62 9 83 28 83 11 0 14 -17 14 -70 0 -40 4
-70 10 -70 6 0 10 28 10 65 0 58 2 65 20 65 17 0 20 -7 21 -47 l1 -48 10 48
c12 53 23 59 40 20 11 -27 12 -28 16 -5 6 37 36 24 41 -18 l4 -35 12 39 c15
52 29 55 42 9 l10 -38 2 31 c0 17 4 46 7 64 12 55 24 12 24 -84 0 -49 2 -87 4
-85 3 3 10 44 16 92 11 93 8 110 -33 154 -17 19 -19 32 -15 105 l5 83 -37 36
-38 36 24 74 c33 102 54 208 54 270 0 60 -23 157 -51 211 -21 42 -17 45 29 22
17 -8 58 -20 92 -26 60 -12 60 -12 58 -44 -2 -35 21 -69 53 -79 14 -5 18 -12
13 -31 -10 -39 3 -73 32 -80 19 -5 23 -11 18 -23 -4 -9 -9 -30 -12 -48 -3 -27
0 -35 27 -51 27 -17 30 -21 16 -32 -16 -13 -20 -57 -7 -76 4 -6 17 -16 30 -23
l23 -12 -21 -26 c-27 -35 -25 -50 10 -83 26 -24 28 -29 15 -40 -25 -21 -19
-77 10 -96 l25 -16 -20 -25 c-27 -35 -25 -57 9 -86 30 -24 30 -25 10 -42 -28
-26 -25 -69 8 -94 l26 -21 -21 -23 c-36 -38 -27 -65 27 -82 16 -5 21 -4 17 4
-5 8 0 8 19 1 33 -13 48 -13 40 0 -3 6 1 7 9 4 18 -7 20 4 6 26 -7 11 -4 19
12 31 29 22 27 67 -4 94 -25 21 -25 22 -7 44 26 32 24 67 -6 93 -21 18 -23 24
-11 37 34 41 26 79 -22 105 -15 9 -22 15 -15 16 23 0 42 51 31 82 -6 15 -13
28 -16 28 -4 0 -13 4 -21 9 -11 7 -10 13 4 34 23 36 16 68 -22 93 -32 21 -32
22 -13 39 34 31 22 76 -27 103 -12 7 -13 13 -4 31 20 36 10 73 -24 91 -16 8
-32 16 -34 18 -3 1 1 8 7 14 7 7 12 27 12 44 0 38 -29 64 -71 64 -22 0 -26 4
-22 20 3 10 15 22 27 26 80 25 149 116 162 216 9 64 -24 168 -74 233 -49 65
-142 115 -213 115 -48 0 -49 1 -43 25 8 34 -18 73 -62 91 -24 10 -34 21 -34
37 0 18 -20 32 -114 80 -80 40 -124 56 -146 55 -30 -3 -34 1 -80 85 l-50 89
48 46 c64 63 102 140 102 208 0 105 -71 227 -154 265 -61 28 -167 25 -231 -5z
m210 -25 c76 -35 123 -100 140 -193 14 -72 -46 -202 -112 -246 -20 -13 -23
-13 -29 1 -3 9 11 32 40 60 64 64 84 155 52 232 -19 44 -28 45 -15 3 22 -78 6
-147 -51 -211 -39 -45 -50 -46 -50 -7 0 39 -16 39 -25 0 -7 -33 15 -85 100
-237 l46 -81 -47 -18 -46 -18 -19 25 c-26 34 -132 248 -173 351 -58 146 -73
158 -32 28 27 -89 84 -215 143 -321 24 -42 43 -81 43 -87 0 -5 -21 -17 -47
-27 -27 -10 -54 -22 -60 -28 -7 -5 -13 -7 -13 -5 0 2 -9 54 -20 115 -31 175
-64 233 -131 233 -34 0 -40 4 -46 28 -5 15 -8 72 -8 127 0 118 16 158 91 224
77 67 189 89 269 52z m-295 -497 c17 -44 13 -64 -15 -64 -23 0 -25 4 -25 45 0
52 24 63 40 19z m64 -64 c16 -57 45 -226 47 -270 1 -26 -54 -256 -73 -303 -15
-39 -4 -44 21 -8 12 16 37 90 55 165 19 74 39 144 46 155 11 22 54 29 65 11 3
-5 11 -10 17 -10 6 0 1 11 -12 25 -13 14 -18 25 -12 25 6 0 14 -4 17 -10 10
-15 28 -12 22 4 -7 17 35 36 146 66 67 19 73 19 85 3 6 -9 12 -22 13 -27 0 -6
4 -3 7 6 7 17 9 16 40 -2 38 -23 34 -42 -6 -34 -32 6 -188 -47 -227 -78 -33
-26 -59 -76 -110 -218 -23 -63 -45 -124 -49 -135 -6 -16 -3 -14 17 7 14 15 39
64 57 109 44 116 90 209 101 209 6 0 19 -5 31 -11 26 -14 33 -6 13 15 -19 18
-12 21 15 6 15 -8 17 -6 13 9 -3 14 5 21 39 34 88 33 104 32 126 -8 10 -17 11
-18 12 -2 0 21 2 21 44 3 22 -9 37 -24 44 -44 9 -28 16 -32 62 -38 55 -7 61
-21 16 -42 -22 -11 -39 -12 -89 -2 -84 17 -94 16 -158 -13 l-56 -25 -13 -83
c-11 -81 -31 -137 -54 -151 -6 -4 -8 -10 -4 -13 3 -4 49 34 102 84 52 50 103
91 112 91 10 0 26 -8 37 -17 20 -17 20 -17 14 1 -6 14 -3 17 8 12 8 -3 15 -1
15 4 0 5 20 12 45 16 33 5 51 2 69 -10 18 -12 26 -12 30 -3 3 8 11 5 24 -10
15 -17 31 -23 61 -23 44 0 49 -6 28 -33 -9 -13 -36 -21 -97 -28 -171 -19 -159
-13 -213 -114 -26 -49 -47 -90 -47 -92 0 -1 6 0 14 3 20 8 40 -63 40 -138 0
-32 5 -56 10 -55 6 1 21 -34 34 -78 30 -101 26 -165 -21 -330 -19 -66 -38
-146 -42 -179 l-7 -59 -76 7 c-89 8 -221 37 -306 68 l-58 22 6 71 c8 91 -5
154 -88 413 -35 111 -70 226 -76 255 -6 28 -14 166 -18 305 l-7 252 35 1 c19
0 29 3 21 6 -11 5 -11 7 0 14 9 6 1 9 -23 9 l-38 0 0 51 c0 38 5 55 18 65 16
13 16 13 0 14 -12 0 -18 8 -18 25 0 19 5 25 23 25 41 0 50 14 45 69 -4 43 -3
49 8 33 7 -10 19 -42 28 -72z m696 -320 c0 -12 -53 4 -58 18 -3 9 4 9 27 1 17
-6 31 -15 31 -19z m-136 -104 c29 -14 51 -17 90 -12 156 21 171 20 226 -10
129 -70 198 -240 146 -358 -22 -49 -31 -41 -16 15 23 84 -9 172 -102 279 l-37
43 -98 9 c-117 11 -247 3 -277 -17 -27 -20 -31 -19 -50 10 -16 24 -15 24 27
43 23 11 44 18 47 17 3 -1 23 -10 44 -19z m-135 -102 c-12 -13 -24 -22 -26
-20 -2 2 -1 23 3 46 l7 43 19 -23 c18 -23 18 -23 -3 -46z m408 20 c-3 -3 -12
-4 -19 -1 -8 3 -5 6 6 6 11 1 17 -2 13 -5z m118 -109 c35 -63 43 -160 18 -214
-21 -46 -52 -91 -62 -91 -5 0 -21 18 -36 40 -31 44 -65 53 -97 23 -21 -18 -23
-45 -7 -75 11 -20 10 -21 -32 -14 -24 4 -69 19 -101 33 -56 25 -58 27 -78 89
l-22 64 29 45 c15 25 32 45 36 45 4 0 20 -8 35 -17 l27 -17 -24 27 c-14 15
-23 29 -20 31 9 8 113 26 154 26 50 0 111 31 121 62 8 26 20 14 59 -57z m-115
-263 c0 -5 -11 -14 -25 -20 -22 -10 -25 -9 -25 8 0 15 7 20 25 20 14 0 25 -4
25 -8z m10 -108 c-7 -24 -17 -44 -22 -44 -10 0 -10 4 14 73 17 50 23 27 8 -29z
m96 -90 c-9 -26 -54 -79 -61 -72 -3 3 6 19 20 36 14 16 25 40 25 53 0 17 3 20
11 12 6 -6 8 -19 5 -29z m-47 22 c-11 -11 -68 -15 -74 -6 -4 6 10 10 36 10 23
0 40 -2 38 -4z m46 -126 l20 -9 -20 0 c-11 0 -29 4 -40 9 l-20 9 20 0 c11 0
29 -4 40 -9z m55 -16 c0 -8 -16 -31 -35 -52 -22 -24 -35 -32 -35 -21 0 8 14
28 30 44 17 16 28 35 25 43 -2 7 0 10 5 7 6 -3 10 -13 10 -21z m-15 -114 l20
-9 -20 0 c-11 0 -29 4 -40 9 l-20 9 20 0 c11 0 29 -4 40 -9z m55 -14 c0 -14
-67 -82 -75 -75 -3 3 9 18 25 34 17 16 30 37 30 47 0 11 5 16 10 13 6 -3 10
-12 10 -19z m-35 -116 c13 -6 15 -9 5 -9 -8 0 -22 4 -30 9 -18 12 -2 12 25 0z
m63 -13 c4 -18 -71 -93 -76 -77 -2 5 11 22 28 36 21 18 30 33 27 46 -4 12 -1
18 6 15 7 -2 13 -11 15 -20z m-1041 -31 c-9 -24 29 -63 89 -91 82 -39 262 -76
372 -78 82 -2 95 0 108 17 13 18 14 15 14 -35 0 -30 -3 -84 -7 -121 l-6 -68
-61 0 c-79 0 -221 23 -368 60 -141 35 -188 54 -188 74 0 45 24 224 31 239 12
21 23 23 16 3z m1063 -106 c0 -19 -69 -84 -79 -74 -3 3 12 21 33 40 24 22 36
40 32 50 -3 8 -2 12 4 9 6 -3 10 -15 10 -25z m20 -129 c0 -18 -69 -85 -78 -76
-3 3 12 21 32 40 32 29 36 37 26 50 -11 13 -10 14 4 9 9 -3 16 -14 16 -23z
m17 -128 c4 -11 -5 -26 -28 -47 -19 -17 -33 -34 -31 -39 1 -5 -3 -7 -10 -5
-23 8 -17 23 18 46 26 17 35 29 31 43 -6 23 11 26 20 2z m-52 -123 c3 -6 -1
-7 -9 -4 -18 7 -21 14 -7 14 6 0 13 -4 16 -10z m65 -20 c0 -10 -15 -29 -32
-41 -18 -13 -36 -27 -39 -32 -4 -5 -9 -5 -13 1 -3 6 10 20 29 32 34 21 39 30
36 59 -2 7 2 10 8 6 6 -3 11 -15 11 -25z" id="node1" class="node"></path>
<path d="M376 1532 c-3 -10 0 -38 7 -62 l14 -45 -1 62 c-1 62 -9 80 -20 45z" id="node2" class="node"></path>
<path d="M530 1515 c-8 -10 -10 -30 -5 -61 12 -85 21 -87 20 -5 0 45 -1 81 -1
81 -1 0 -7 -7 -14 -15z" id="node3" class="node"></path>
<path d="M697 1430 c-3 -11 -1 -33 3 -48 l8 -27 1 25 c1 14 4 35 7 48 4 12 2
22 -4 22 -5 0 -12 -9 -15 -20z" id="node4" class="node"></path>
</g>
<g transform="translate(0.000000,300.000000) scale(0.100000,-0.100000)" fill="#FFFFFF" stroke="none">

<path d="M489 2814 c-56 -17 -132 -82 -162 -138 -18 -34 -22 -57 -22 -141 0
-55 3 -112 8 -127 6 -24 12 -28 46 -28 67 0 100 -58 131 -233 11 -61 20 -113
20 -115 0 -2 6 0 13 5 6 6 33 18 60 28 26 10 47 22 47 27 0 6 -19 45 -43 87
-59 106 -116 232 -143 321 -41 130 -26 118 32 -28 41 -103 147 -317 173 -351
l19 -25 46 18 47 18 -46 81 c-85 152 -107 204 -100 237 9 39 25 39 25 0 0 -39
11 -38 50 7 57 64 73 133 51 211 -13 42 -4 41 15 -3 32 -77 12 -168 -52 -232
-29 -28 -43 -51 -40 -60 6 -14 9 -14 29 -1 66 44 126 174 112 246 -30 164
-160 245 -316 196z" id="node6" class="node"></path>
<path d="M330 2295 c0 -41 2 -45 25 -45 28 0 32 20 15 64 -16 44 -40 33 -40
-19z" id="node7" class="node"></path>
<path d="M398 2289 c5 -55 -4 -69 -45 -69 -18 0 -23 -6 -23 -25 0 -17 6 -25
18 -25 16 -1 16 -1 0 -14 -13 -10 -18 -27 -18 -65 l0 -51 38 0 c24 0 32 -3 23
-9 -11 -7 -11 -9 0 -14 8 -3 -2 -6 -21 -6 l-35 -1 7 -252 c4 -139 12 -277 18
-305 6 -29 41 -144 76 -255 83 -259 96 -322 88 -413 l-6 -71 58 -22 c85 -31
217 -60 306 -68 l76 -7 7 59 c4 33 23 113 42 179 47 165 51 229 21 330 -13 44
-28 79 -34 78 -5 -1 -10 23 -10 55 0 75 -20 146 -40 138 -8 -3 -14 -4 -14 -3
0 2 21 43 47 92 54 101 42 95 213 114 61 7 88 15 97 28 21 27 16 33 -28 33
-30 0 -46 6 -61 23 -13 15 -21 18 -24 10 -4 -9 -12 -9 -30 3 -18 12 -36 15
-69 10 -25 -4 -45 -11 -45 -16 0 -5 -7 -7 -15 -4 -11 5 -14 2 -8 -12 6 -18 6
-18 -14 -1 -11 9 -27 17 -37 17 -9 0 -60 -41 -112 -91 -53 -50 -99 -88 -102
-84 -4 3 -2 9 4 13 23 14 43 70 54 151 l13 83 56 25 c64 29 74 30 158 13 50
-10 67 -9 89 2 45 21 39 35 -16 42 -46 6 -53 10 -62 38 -7 20 -22 35 -44 44
-42 18 -44 18 -44 -3 -1 -16 -2 -15 -12 2 -22 40 -38 41 -126 8 -34 -13 -42
-20 -39 -34 4 -15 2 -17 -13 -9 -27 15 -34 12 -15 -6 20 -21 13 -29 -13 -15
-12 6 -25 11 -31 11 -11 0 -57 -93 -101 -209 -18 -45 -43 -94 -57 -109 -20
-21 -23 -23 -17 -7 4 11 26 72 49 135 51 142 77 192 110 218 39 31 195 84 227
78 40 -8 44 11 6 34 -31 18 -33 19 -40 2 -3 -9 -7 -12 -7 -6 -1 5 -7 18 -13
27 -12 16 -18 16 -85 -3 -111 -30 -153 -49 -146 -66 6 -16 -12 -19 -22 -4 -3
6 -11 10 -17 10 -6 0 -1 -11 12 -25 13 -14 18 -25 12 -25 -6 0 -14 5 -17 10
-11 18 -54 11 -65 -11 -7 -11 -27 -81 -46 -155 -18 -75 -43 -149 -55 -165 -25
-36 -36 -31 -21 8 19 47 74 277 73 303 -4 91 -52 308 -75 342 -11 16 -12 10
-8 -33z m-2 -802 l1 -62 -14 45 c-7 24 -10 52 -7 62 11 35 19 17 20 -45z m149
-38 c1 -82 -8 -80 -20 5 -5 31 -3 51 5 61 7 8 13 15 14 15 0 0 1 -36 1 -81z
m171 -21 c-3 -13 -6 -34 -7 -48 l-1 -25 -8 27 c-9 31 -3 68 12 68 6 0 8 -10 4
-22z" id="node8" class="node"></path>
<path d="M1072 1948 c5 -14 58 -30 58 -18 0 4 -14 13 -31 19 -23 8 -30 8 -27
-1z" id="node9" class="node"></path>
<path d="M903 1828 c-42 -19 -43 -19 -27 -43 19 -29 23 -30 50 -10 30 20 160
28 277 17 l98 -9 37 -43 c93 -107 125 -195 102 -279 -15 -56 -6 -64 16 -15 52
118 -17 288 -146 358 -55 30 -70 31 -226 10 -39 -5 -61 -2 -90 12 -21 9 -41
18 -44 19 -3 1 -24 -6 -47 -17z" id="node10" class="node"></path>
<path d="M836 1750 c-4 -23 -5 -44 -3 -46 2 -2 14 7 26 20 21 23 21 23 3 46
l-19 23 -7 -43z" id="node11" class="node"></path>
<path d="M1248 1743 c7 -3 16 -2 19 1 4 3 -2 6 -13 5 -11 0 -14 -3 -6 -6z" id="node12" class="node"></path>
<path d="M1326 1692 c-10 -31 -71 -62 -121 -62 -41 0 -145 -18 -154 -26 -3 -2
6 -16 20 -31 l24 -27 -27 17 c-15 9 -31 17 -35 17 -4 0 -21 -20 -36 -45 l-29
-45 22 -64 c20 -62 22 -64 78 -89 32 -14 77 -29 101 -33 42 -7 43 -6 32 14
-16 30 -14 57 7 75 32 30 66 21 97 -23 15 -22 31 -40 36 -40 10 0 41 45 62 91
25 54 17 151 -18 214 -39 71 -51 83 -59 57z" id="node13" class="node"></path>
<path d="M1220 1360 c0 -17 3 -18 25 -8 14 6 25 15 25 20 0 4 -11 8 -25 8 -18
0 -25 -5 -25 -20z" id="node14" class="node"></path>
<path d="M1272 1293 c-24 -69 -24 -73 -14 -73 11 0 36 82 31 99 -2 6 -10 -6
-17 -26z" id="node15" class="node"></path>
<path d="M1360 1191 c0 -13 -11 -37 -25 -53 -14 -17 -23 -33 -20 -36 7 -7 52
46 61 72 3 10 1 23 -5 29 -8 8 -11 5 -11 -12z" id="node16" class="node"></path>
<path d="M1255 1190 c3 -6 20 -8 38 -5 47 9 46 15 -2 15 -26 0 -40 -4 -36 -10z" id="node17" class="node"></path>
<path d="M1335 1070 c11 -5 29 -9 40 -9 l20 0 -20 9 c-11 5 -29 9 -40 9 l-20
0 20 -9z" id="node18" class="node"></path>
<path d="M1415 1068 c3 -8 -8 -27 -25 -43 -16 -16 -30 -36 -30 -44 0 -11 13
-3 35 21 35 38 43 62 25 73 -5 3 -7 0 -5 -7z" id="node19" class="node"></path>
<path d="M1375 940 c11 -5 29 -9 40 -9 l20 0 -20 9 c-11 5 -29 9 -40 9 l-20 0
20 -9z" id="node20" class="node"></path>
<path d="M1450 932 c0 -10 -13 -31 -30 -47 -16 -16 -28 -31 -25 -34 8 -7 75
61 75 75 0 7 -4 16 -10 19 -5 3 -10 -2 -10 -13z" id="node21" class="node"></path>
<path d="M1410 810 c8 -5 22 -9 30 -9 10 0 8 3 -5 9 -27 12 -43 12 -25 0z" id="node22" class="node"></path>
<path d="M1477 802 c3 -13 -6 -28 -27 -46 -17 -14 -30 -31 -28 -36 2 -5 20 6
41 25 37 34 45 64 20 72 -7 3 -10 -3 -6 -15z" id="node23" class="node"></path>
<path d="M441 763 c-7 -15 -31 -194 -31 -239 0 -20 47 -39 188 -74 147 -37
289 -60 368 -60 l61 0 6 68 c4 37 7 91 7 121 0 50 -1 53 -14 35 -13 -17 -26
-19 -108 -17 -110 2 -290 39 -372 78 -60 28 -98 67 -89 91 7 20 -4 18 -16 -3z" id="node24" class="node"></path>
<path d="M1506 676 c4 -10 -8 -28 -32 -50 -48 -44 -41 -56 9 -15 36 29 47 61
27 74 -6 3 -7 -1 -4 -9z" id="node25" class="node"></path>
<path d="M1520 545 c10 -13 6 -21 -26 -50 -20 -19 -35 -37 -32 -40 9 -9 78 58
78 76 0 9 -7 20 -16 23 -14 5 -15 4 -4 -9z" id="node26" class="node"></path>
<path d="M1537 401 c4 -14 -5 -26 -31 -43 -35 -23 -41 -38 -18 -46 7 -2 11 0
10 5 -2 5 12 22 31 39 23 21 32 36 28 47 -9 24 -26 21 -20 -2z" id="node27" class="node"></path>
<path d="M1480 286 c0 -2 7 -7 16 -10 8 -3 12 -2 9 4 -6 10 -25 14 -25 6z" id="node28" class="node"></path>
<path d="M1551 279 c3 -29 -2 -38 -36 -59 -19 -12 -32 -26 -29 -32 4 -6 9 -6
13 -1 3 5 21 19 39 32 32 22 42 54 21 66 -6 4 -10 1 -8 -6z" id="node29" class="node"></path>
</g>
</svg>