<!--?xml version="1.0" standalone="no"?-->

<svg version="1.0" xmlns="http://www.w3.org/2000/svg" width="300.000000pt" height="300.000000pt" viewBox="0 0 300.000000 300.000000" preserveAspectRatio="xMidYMid meet">
<g transform="translate(0.000000,300.000000) scale(0.100000,-0.100000)" fill="#181818" stroke="none">
<path d="M1347 2485 c-38 -20 -65 -53 -72 -91 -7 -33 -5 -44 54 -334 22 -107
38 -196 36 -198 -2 -2 -27 9 -57 24 -75 39 -155 40 -220 1 -51 -29 -193 -183
-209 -225 -6 -14 -8 -37 -4 -49 3 -15 -2 -34 -17 -54 -32 -42 -30 -108 4 -179
15 -30 31 -73 37 -95 9 -33 26 -54 98 -114 49 -40 129 -117 179 -171 l91 -96
7 -92 c4 -50 4 -101 1 -114 -9 -35 11 -76 39 -84 15 -3 58 6 113 24 48 16 113
33 145 36 70 9 168 -8 231 -40 58 -29 88 -30 110 -6 14 16 17 44 17 180 0 139
3 169 20 213 12 28 37 104 56 168 35 111 36 125 45 331 4 118 11 266 15 328 6
107 5 115 -19 165 -39 79 -110 110 -165 71 -13 -9 -25 -14 -27 -12 -3 2 -8 53
-13 114 -10 123 -25 158 -79 180 -73 31 -140 8 -175 -59 l-22 -42 -18 78 c-9
42 -25 89 -35 103 -32 49 -111 68 -166 39z m110 -67 c15 -17 36 -95 82 -303
108 -489 101 -465 122 -465 24 0 24 17 -1 283 -27 280 -27 342 -5 367 23 26
65 25 97 0 29 -22 29 -27 48 -390 15 -277 19 -310 40 -310 22 0 26 26 40 254
6 88 16 166 22 173 15 18 52 16 71 -5 35 -38 37 -65 26 -364 -11 -320 -17
-360 -80 -545 -23 -66 -39 -132 -39 -158 0 -25 -4 -45 -10 -45 -5 0 -49 12
-97 26 -128 37 -281 38 -373 1 l-65 -27 -19 28 c-34 46 -197 211 -277 277 -60
51 -78 72 -88 107 -7 24 -24 64 -37 90 -32 64 -31 91 7 122 23 19 37 24 57 20
38 -8 85 -64 103 -121 17 -53 54 -86 119 -103 50 -14 65 -6 84 41 43 108 -13
266 -106 298 -30 11 -33 9 -84 -44 -42 -43 -60 -55 -84 -55 -32 0 -80 37 -80
62 0 21 124 158 171 190 59 39 83 43 145 24 68 -21 87 -37 143 -122 25 -38 55
-70 65 -72 23 -5 28 -42 -59 383 -35 176 -65 330 -65 342 0 28 45 63 80 63 15
0 35 -10 47 -22z m-245 -864 c32 -57 39 -150 13 -160 -27 -11 -73 16 -85 49
-6 18 -19 47 -27 65 -16 31 -15 33 8 60 48 54 54 53 91 -14z m543 -674 c124
-34 127 -36 123 -128 -2 -42 -8 -76 -14 -74 -5 1 -43 14 -84 28 -69 24 -85 26
-190 21 -92 -3 -128 -10 -181 -30 -37 -14 -69 -23 -73 -20 -3 4 -6 39 -6 78 0
87 9 98 108 132 56 20 80 23 152 19 47 -2 121 -14 165 -26z" id="node1" class="node"></path>
</g>
<g transform="translate(0.000000,300.000000) scale(0.100000,-0.100000)" fill="#A5A5A5" stroke="none">

<path d="M1356 2419 c-14 -11 -26 -30 -26 -42 0 -12 30 -166 65 -342 87 -425
82 -388 59 -383 -10 2 -40 34 -65 72 -56 85 -75 101 -143 122 -62 19 -86 15
-145 -24 -47 -32 -171 -169 -171 -190 0 -25 48 -62 80 -62 24 0 42 12 84 55
51 53 54 55 84 44 93 -32 149 -190 106 -298 -19 -47 -34 -55 -84 -41 -65 17
-102 50 -119 103 -18 57 -65 113 -103 121 -20 4 -34 -1 -57 -20 -38 -31 -39
-58 -7 -122 13 -26 30 -66 37 -90 10 -35 28 -56 88 -107 80 -66 243 -231 277
-277 l19 -28 65 27 c92 37 245 36 373 -1 48 -14 92 -26 97 -26 6 0 10 20 10
45 0 26 16 92 39 158 63 185 69 225 80 545 11 299 9 326 -26 364 -19 21 -56
23 -71 5 -6 -7 -16 -85 -22 -173 -14 -228 -18 -254 -40 -254 -21 0 -25 33 -40
310 -19 363 -19 368 -48 390 -32 25 -74 26 -97 0 -22 -25 -22 -87 5 -367 25
-266 25 -283 1 -283 -21 0 -14 -24 -122 465 -66 299 -76 325 -129 325 -15 0
-39 -9 -54 -21z" id="node3" class="node"></path>

<path d="M1438 887 c-99 -34 -108 -45 -108 -132 0 -39 3 -74 6 -78 4 -3 36 6
73 20 53 20 89 27 181 30 105 5 121 3 190 -21 41 -14 79 -27 84 -28 6 -2 12
32 14 74 3 71 1 78 -20 91 -39 26 -179 58 -268 63 -72 4 -96 1 -152 -19z" id="node5" class="node"></path>
</g>
</svg>