<!--?xml version="1.0" standalone="no"?-->

<svg xmlns="http://www.w3.org/2000/svg" width="300.000000pt" height="300.000000pt" viewBox="0 0 300.000000 300.000000" preserveAspectRatio="xMidYMid meet">
<g transform="translate(0.000000,300.000000) scale(0.100000,-0.100000)" fill="#0C0C0C" stroke="none">
<path style="position: relative;" d="M1818 2983 c-9 -10 -18 -44 -21 -77 -6 -65 -39 -136 -117 -252 -27
-41 -50 -77 -50 -80 0 -3 -13 -24 -29 -48 -94 -136 -136 -371 -95 -529 43
-166 131 -256 292 -298 63 -16 91 -19 152 -12 102 10 105 10 103 -7 -3 -26
-33 -143 -47 -185 -13 -38 -16 -40 -66 -48 -56 -8 -99 -28 -140 -64 -22 -20
-31 -21 -60 -13 -46 13 -151 13 -187 -1 -15 -5 -44 -25 -63 -43 -28 -27 -46
-35 -93 -40 -61 -7 -92 -22 -143 -68 l-31 -29 -69 42 c-94 58 -183 81 -324 85
-169 5 -233 -14 -605 -181 -176 -80 -208 -98 -219 -129 -12 -33 15 -66 54 -66
15 0 74 22 131 49 142 66 179 83 289 129 188 78 183 77 335 76 130 0 145 -2
209 -29 55 -23 86 -45 149 -107 90 -90 137 -117 263 -152 153 -42 212 -52 365
-65 59 -5 113 -12 120 -16 55 -31 74 -80 46 -116 -32 -43 -77 -49 -340 -49
-250 0 -294 4 -461 42 -111 25 -136 17 -136 -43 0 -46 4 -49 130 -80 91 -23
110 -24 447 -24 l351 0 79 54 c647 445 747 497 819 430 67 -63 19 -109 -416
-398 -700 -466 -774 -510 -862 -518 -100 -10 -124 0 -622 257 l-219 112 -81
-4 c-73 -4 -87 -8 -141 -43 -118 -74 -164 -106 -179 -121 -34 -34 -6 -94 44
-94 12 0 66 28 119 63 130 85 151 93 204 77 23 -7 80 -33 127 -57 278 -148
534 -274 596 -292 117 -34 211 -24 333 38 62 32 310 191 686 441 441 292 494
333 531 415 30 64 30 104 -1 163 -28 54 -54 75 -111 91 -64 18 -91 15 -231
-25 -18 -5 -23 -2 -23 11 0 30 -58 111 -99 138 -55 37 -115 50 -189 43 -63 -7
-64 -6 -106 31 -23 21 -56 46 -74 55 l-31 17 20 68 c11 37 26 99 35 137 8 39
17 72 19 74 3 3 49 5 102 6 112 1 146 15 224 88 60 56 87 103 110 191 40 153
14 293 -89 483 -28 51 -117 155 -189 219 -87 78 -230 172 -366 240 -117 60
-136 64 -159 38z m216 -203 c234 -138 391 -304 457 -480 20 -54 24 -83 24
-170 -1 -94 -3 -110 -27 -156 -43 -82 -122 -136 -198 -136 -58 0 -94 17 -85
40 8 22 8 245 -1 326 -12 121 -88 381 -121 418 -18 20 -63 24 -81 6 -20 -20
-14 -68 23 -173 62 -175 92 -437 64 -564 -9 -45 -14 -51 -52 -66 -27 -11 -71
-17 -129 -17 -76 0 -96 4 -143 26 -107 53 -155 151 -155 316 0 108 19 182 68
270 14 25 30 54 36 65 6 11 38 60 70 110 53 82 85 143 115 218 14 35 24 32
135 -33z m15 -1454 c59 -16 83 -34 117 -88 30 -47 47 -51 119 -29 65 20 104
18 150 -8 31 -18 75 -83 75 -113 0 -10 -75 -67 -206 -154 -164 -110 -207 -135
-215 -123 -5 8 -9 19 -9 25 0 6 -19 29 -43 51 -52 48 -128 69 -282 77 -146 8
-404 79 -428 117 -8 13 -6 24 7 43 23 36 61 49 120 42 45 -5 51 -3 77 25 16
17 29 35 29 39 0 13 66 40 98 40 16 0 45 -11 65 -24 64 -44 73 -43 125 12 50
53 94 81 127 81 11 1 44 -6 74 -13z" id="node1" class="node" stroke-width="20"></path>
</g>
<g transform="translate(0.000000,300.000000) scale(0.100000,-0.100000)" fill="#93CA82" stroke="none">


<path style="position: relative;" d="M1899 2813 c-30 -75 -62 -136 -115 -218 -32 -50 -64 -99 -70 -110 -6
-11 -22 -40 -36 -65 -49 -88 -68 -162 -68 -270 0 -165 48 -263 155 -316 47
-22 67 -26 143 -26 58 0 102 6 129 17 38 15 43 21 52 66 28 127 -2 389 -64
564 -37 105 -43 153 -23 173 18 18 63 14 81 -6 33 -37 109 -297 121 -418 9
-81 9 -304 1 -326 -9 -23 27 -40 85 -40 76 0 155 54 198 136 24 46 26 62 27
156 0 87 -4 116 -24 170 -66 176 -223 342 -457 480 -111 65 -121 68 -135 33z" id="node4" class="node"></path>
<path style="position: relative;" d="M1925 1324 c-16 -9 -51 -38 -77 -66 -52 -55 -61 -56 -125 -12 -20 13
-49 24 -65 24 -32 0 -98 -27 -98 -40 0 -4 -13 -22 -29 -39 -26 -28 -32 -30
-77 -25 -59 7 -97 -6 -120 -42 -13 -19 -15 -30 -7 -43 24 -38 282 -109 428
-117 154 -8 230 -29 282 -77 24 -22 43 -45 43 -51 0 -6 4 -17 9 -25 8 -12 51
13 215 123 131 87 206 144 206 154 0 30 -44 95 -75 113 -46 26 -85 28 -150 8
-72 -22 -89 -18 -119 29 -34 54 -58 72 -117 88 -68 17 -86 17 -124 -2z" id="node5" class="node"></path>


</g>
</svg>