<!--?xml version="1.0" standalone="no"?--><svg version="1.0" xmlns="http://www.w3.org/2000/svg" width="288.000000pt" height="300.000000pt" viewBox="0 0 288.000000 300.000000" preserveAspectRatio="xMidYMid meet">
<metadata>
  <rdf:rdf xmlns:rdf="http://www.w3.org/1999/02/22-rdf-syntax-ns#" xmlns:rdfs="http://www.w3.org/2000/01/rdf-schema#" xmlns:dc="http://purl.org/dc/elements/1.1/">
    <rdf:description dc:title="hand with key set" dc:publisher="Hiox" dc:date="2015-05-02" dc:format="image/svg+xml" dc:language="en">
      <dc:creator>
        <rdf:bag>
          <rdf:li>svgimages.com</rdf:li>
        </rdf:bag>
      </dc:creator>
    </rdf:description>
  </rdf:rdf>
</metadata>
<g transform="translate(0.000000,300.000000) scale(0.100000,-0.100000)" fill="#191919" stroke="none">
<path d="M1030 2569 c-66 -26 -91 -83 -65 -144 8 -21 14 -40 12 -41 -2 -2 -23
6 -47 17 -92 45 -162 32 -194 -35 -20 -42 -20 -50 1 -93 13 -29 31 -42 97 -73
251 -118 299 -140 307 -140 20 0 7 -28 -16 -34 -14 -4 -45 -25 -69 -49 -36
-35 -45 -51 -52 -92 -8 -54 17 -208 42 -257 13 -26 13 -28 -13 -42 -37 -19
-66 -52 -94 -106 -19 -35 -23 -59 -22 -118 1 -70 0 -73 -28 -87 -38 -20 -79
-76 -85 -117 -3 -18 1 -53 10 -77 14 -42 14 -46 -8 -85 -90 -162 -176 -324
-176 -331 0 -14 34 -34 58 -35 15 0 22 6 22 20 0 11 5 20 10 20 6 0 10 7 10
15 0 9 11 21 25 27 14 6 24 16 21 22 -18 46 -18 46 13 57 29 10 31 14 26 40
-6 24 -2 31 19 40 17 8 26 20 26 36 0 14 6 23 16 23 9 0 23 9 33 21 12 15 30
22 64 24 60 4 112 42 139 101 17 39 23 44 51 44 30 0 34 -4 50 -50 14 -40 26
-55 61 -75 42 -24 44 -28 59 -103 9 -42 19 -95 23 -117 3 -22 12 -65 19 -95 7
-30 16 -72 19 -92 4 -21 11 -38 17 -38 6 0 7 4 4 10 -6 10 -17 65 -49 260 -9
52 -19 105 -21 118 -3 12 -1 22 3 22 9 0 33 -108 47 -210 18 -124 38 -200 55
-200 27 0 45 27 31 44 -14 16 -17 64 -7 88 6 13 1 21 -18 29 -24 11 -25 13 -9
42 14 29 14 31 -7 47 -19 14 -20 19 -9 43 10 23 10 30 -5 46 -15 16 -15 19 -1
31 10 9 14 22 11 36 -5 18 0 28 19 40 36 23 65 85 65 136 0 53 -28 102 -73
128 l-34 20 2 85 c0 46 3 87 6 89 7 8 137 34 195 40 27 3 69 8 94 12 43 6 49
3 130 -55 115 -82 139 -81 159 11 25 108 116 235 202 278 49 25 63 50 48 84
-7 14 -17 27 -24 30 -23 8 -215 158 -215 166 0 18 -150 209 -191 243 -24 20
-124 99 -222 176 -178 140 -179 141 -231 141 -63 0 -93 -19 -102 -65 -3 -19
-10 -35 -14 -35 -4 0 -25 12 -46 27 -52 35 -124 73 -138 72 -6 0 -22 -5 -36
-10z m410 -67 c123 -91 383 -308 412 -344 19 -24 60 -79 91 -123 31 -44 65
-86 76 -93 12 -7 21 -16 21 -21 0 -5 -29 -32 -65 -60 -83 -65 -144 -147 -172
-230 l-22 -66 -48 -7 c-26 -4 -86 -12 -133 -18 -47 -6 -122 -20 -168 -31 -77
-19 -86 -20 -130 -5 -26 8 -64 18 -84 21 -63 10 -89 73 -47 111 16 15 33 18
73 16 154 -9 153 -9 188 26 l33 32 -20 37 c-26 48 -73 79 -142 93 -48 10 -61
10 -91 -4 l-35 -17 7 -68 c8 -88 -11 -117 -75 -112 -20 1 -34 35 -49 124 -22
123 0 179 84 217 31 14 55 17 110 13 57 -4 74 -2 84 10 11 13 9 16 -10 23 -12
3 -83 35 -156 70 -74 35 -136 64 -137 64 -2 0 -41 18 -87 39 -46 21 -100 46
-120 54 -66 28 -75 101 -15 128 21 10 94 -18 342 -131 147 -66 278 -119 286
-115 18 12 8 25 -43 56 -29 17 -69 40 -88 52 -312 190 -327 202 -300 252 8 14
24 28 37 31 25 7 51 -7 205 -108 289 -188 309 -200 321 -180 5 8 -181 176
-242 219 -29 19 -28 61 2 72 30 12 65 3 107 -27z m713 -657 c26 -20 47 -39 47
-44 0 -5 -13 -14 -29 -21 -75 -30 -183 -178 -211 -285 -7 -27 -14 -52 -16 -53
-1 -2 -28 15 -59 38 l-57 42 6 44 c7 55 43 126 92 183 41 47 149 131 168 131
6 0 32 -16 59 -35z m-831 -61 c121 -41 90 -113 -37 -87 -34 8 -42 14 -51 43
-21 63 2 74 88 44z m-208 -237 c17 -42 50 -63 112 -72 27 -4 64 -14 83 -21 18
-8 42 -14 52 -14 23 0 33 -37 26 -93 -6 -44 -27 -67 -61 -67 -38 0 -87 -39
-107 -85 -18 -41 -23 -45 -55 -45 -31 0 -37 4 -50 38 -23 53 -50 79 -106 98
-26 8 -53 24 -58 34 -36 67 23 194 114 247 31 18 34 16 50 -20z m-94 -323 c0
-14 -3 -14 -15 -4 -8 7 -15 14 -15 16 0 2 7 4 15 4 8 0 15 -7 15 -16z m297
-11 c-9 -9 -19 -14 -23 -11 -10 10 6 28 24 28 15 0 15 -1 -1 -17z m-337 -14
c7 -11 9 -23 6 -26 -8 -9 -36 17 -36 33 0 21 18 17 30 -7z m390 -7 c0 -13 -23
-32 -39 -32 -11 0 -10 4 4 20 19 21 35 26 35 12z m-615 -362 c-53 -93 -101
-170 -106 -170 -5 0 -9 2 -9 5 0 2 34 64 77 137 42 73 87 153 101 177 14 25
27 40 30 33 2 -6 -40 -88 -93 -182z" id="node1" class="node"></path>
</g>
<g transform="translate(0.000000,300.000000) scale(0.100000,-0.100000)" fill="#A4A4A4" stroke="none">

<path d="M1333 2529 c-30 -11 -31 -53 -2 -72 61 -43 247 -211 242 -219 -12
-20 -32 -8 -321 180 -154 101 -180 115 -205 108 -13 -3 -29 -17 -37 -31 -27
-50 -12 -62 300 -252 19 -12 59 -35 88 -52 51 -31 61 -44 43 -56 -8 -4 -139
49 -286 115 -248 113 -321 141 -342 131 -60 -27 -51 -100 15 -128 20 -8 74
-33 120 -54 46 -21 85 -39 87 -39 1 0 63 -29 137 -64 73 -35 144 -67 156 -70
19 -7 21 -10 10 -23 -10 -12 -27 -14 -84 -10 -55 4 -79 1 -110 -13 -84 -38
-106 -94 -84 -217 20 -115 29 -130 80 -124 8 1 23 11 32 23 15 17 17 32 12 89
l-7 68 35 17 c69 33 193 -14 233 -89 l20 -37 -33 -32 c-35 -35 -34 -35 -188
-26 -40 2 -57 -1 -73 -16 -42 -38 -16 -101 47 -111 20 -3 58 -13 84 -21 44
-15 53 -14 130 5 46 11 121 25 168 31 47 6 107 14 133 18 l48 7 22 66 c28 83
89 165 172 230 36 28 65 55 65 60 0 5 -9 14 -21 21 -11 7 -45 49 -76 93 -95
137 -121 162 -297 304 -257 206 -264 210 -313 190z" id="node3" class="node"></path>
<path d="M2023 1837 c-105 -78 -177 -181 -189 -271 l-6 -44 57 -42 c31 -23 58
-40 59 -38 2 1 9 26 16 53 28 107 136 255 211 285 16 7 29 16 29 21 0 11 -91
78 -106 79 -7 0 -38 -20 -71 -43z" id="node4" class="node"></path>


<path d="M990 1236 c0 -2 7 -9 15 -16 12 -10 15 -10 15 4 0 9 -7 16 -15 16 -8
0 -15 -2 -15 -4z" id="node7" class="node"></path>
<path d="M1295 1219 c-12 -19 5 -23 22 -6 16 16 16 17 1 17 -9 0 -20 -5 -23
-11z" id="node8" class="node"></path>
<path d="M950 1206 c0 -16 28 -42 36 -33 8 7 -14 47 -26 47 -6 0 -10 -6 -10
-14z" id="node9" class="node"></path>
<path d="M1335 1180 c-14 -16 -15 -20 -4 -20 16 0 39 19 39 32 0 14 -16 9 -35
-12z" id="node10" class="node"></path>
<path d="M818 979 c-14 -24 -59 -104 -101 -177 -43 -73 -77 -135 -77 -137 0
-3 4 -5 9 -5 13 0 203 338 199 352 -3 7 -16 -8 -30 -33z" id="node11" class="node"></path>
</g>
</svg>