<!--?xml version="1.0" standalone="no"?--><svg version="1.0" xmlns="http://www.w3.org/2000/svg" width="288.000000pt" height="300.000000pt" viewBox="0 0 288.000000 300.000000" preserveAspectRatio="xMidYMid meet">
<metadata>
  <rdf:rdf xmlns:rdf="http://www.w3.org/1999/02/22-rdf-syntax-ns#" xmlns:rdfs="http://www.w3.org/2000/01/rdf-schema#" xmlns:dc="http://purl.org/dc/elements/1.1/">
    <rdf:description dc:title="hand holding torch black" dc:publisher="Hiox" dc:date="2015-04-30" dc:format="image/svg+xml" dc:language="en">
      <dc:creator>
        <rdf:bag>
          <rdf:li>svgimages.com</rdf:li>
        </rdf:bag>
      </dc:creator>
    </rdf:description>
  </rdf:rdf>
</metadata>
<g transform="translate(0.000000,300.000000) scale(0.100000,-0.100000)" fill="#3E3F3C" stroke="none">
<path d="M2101 2864 c-33 -75 -101 -149 -170 -182 -51 -24 -66 -27 -161 -26
-128 1 -167 13 -500 149 -143 59 -283 95 -366 95 -129 0 -285 -65 -351 -147
-60 -75 -103 -189 -103 -272 0 -34 -14 -41 -84 -41 -80 0 -90 -20 -60 -132 8
-34 24 -106 34 -162 16 -88 17 -102 4 -112 -8 -6 -14 -25 -14 -43 0 -29 -2
-31 -39 -31 -60 0 -85 -26 -91 -96 -5 -55 -7 -58 -39 -69 -18 -6 -42 -21 -52
-34 -21 -25 -25 -90 -9 -121 7 -13 5 -21 -6 -31 -34 -28 -46 -69 -35 -114 9
-36 8 -48 -9 -83 -36 -75 -21 -116 70 -188 33 -26 60 -50 60 -54 0 -4 -14 -60
-30 -123 -17 -64 -30 -129 -30 -144 0 -44 26 -73 65 -73 27 0 41 9 80 52 26
29 57 73 70 98 33 66 49 76 80 56 46 -30 58 -62 72 -195 14 -125 13 -137 -13
-402 l-6 -55 58 -58 c76 -76 131 -103 239 -116 113 -14 347 -14 416 1 83 17
145 59 211 142 26 32 29 42 20 60 -6 12 -21 47 -35 77 -13 30 -37 73 -53 96
-16 23 -44 62 -63 88 -18 26 -70 85 -116 131 -70 71 -91 100 -139 197 -31 62
-72 142 -91 178 l-35 65 6 115 c8 166 -8 300 -46 375 -16 33 -37 70 -46 82
-15 21 -13 23 53 63 37 23 89 57 116 75 32 22 55 31 72 28 16 -4 32 3 50 21
29 29 27 50 -7 98 -19 27 -19 27 5 43 56 36 221 28 332 -17 113 -46 246 -121
436 -249 101 -68 137 -84 244 -110 102 -24 147 -24 243 2 130 34 280 139 348
242 15 23 35 53 44 67 24 37 68 146 84 211 26 102 40 317 27 395 -12 66 -53
186 -73 211 -7 9 -24 -16 -59 -85 -28 -53 -68 -120 -91 -150 -38 -49 -116
-122 -131 -122 -3 0 -3 38 0 84 4 64 2 96 -12 142 -20 64 -64 143 -80 144 -5
0 -23 -42 -39 -93 -34 -112 -71 -182 -108 -208 l-28 -20 0 73 c0 41 -7 99 -15
131 -15 59 -53 127 -70 127 -5 0 -21 -25 -34 -56z m76 -148 c7 -111 -14 -190
-72 -272 -25 -34 -61 -76 -80 -92 -45 -37 -177 -103 -213 -106 -38 -4 -72 -17
-72 -27 0 -5 -4 -9 -10 -9 -5 0 -10 7 -10 15 0 8 5 15 10 15 6 0 10 5 10 12 0
9 -3 9 -12 0 -15 -15 -38 -16 -38 -1 0 7 -8 18 -17 25 -17 13 -17 13 0 14 9 0
17 -4 17 -10 0 -5 7 -10 15 -10 8 0 15 5 15 10 0 6 7 10 15 10 8 0 15 7 15 15
0 8 6 15 13 15 18 0 52 38 43 47 -4 5 -12 0 -18 -10 -9 -17 -11 -18 -29 -1
-16 14 -21 15 -35 3 -13 -11 -17 -10 -25 4 -8 14 -13 15 -31 4 -16 -9 -22 -9
-25 1 -3 6 -11 12 -18 12 -7 0 -16 8 -19 17 -6 15 -8 15 -23 0 -16 -15 -18
-15 -36 0 -12 12 -20 14 -25 6 -7 -12 -52 17 -52 34 0 16 -46 29 -105 27 -103
-2 -176 -20 -227 -58 l-27 -19 -20 24 -20 24 22 17 c49 37 70 59 62 66 -4 4
-10 1 -12 -5 -6 -18 -33 -16 -33 2 0 8 7 15 15 15 8 0 15 5 15 10 0 13 -6 13
-30 -2 -17 -11 -22 -10 -30 2 -5 8 -12 11 -17 7 -4 -5 -1 -12 6 -16 8 -5 10
-14 6 -21 -6 -10 -11 -9 -21 5 -8 10 -17 16 -20 12 -4 -4 -1 -13 5 -21 9 -11
9 -16 0 -22 -7 -4 -15 -2 -17 4 -2 7 -11 12 -19 12 -13 0 -13 -3 -3 -15 15
-19 6 -32 -12 -17 -10 7 -19 5 -37 -9 -19 -16 -21 -22 -11 -34 8 -9 8 -15 2
-15 -6 0 -12 6 -15 13 -3 9 -8 9 -18 -2 -11 -10 -11 -15 -1 -18 17 -7 15 -33
-3 -33 -20 0 -19 -6 6 -31 16 -16 23 -18 34 -9 8 7 19 9 25 5 7 -5 5 -11 -7
-20 -10 -7 -15 -17 -11 -21 4 -4 14 -1 23 6 25 21 30 2 6 -24 -30 -32 -54 -26
-230 60 -158 78 -159 79 -121 168 39 92 150 229 169 210 3 -3 -1 -9 -9 -15
-13 -8 -12 -11 4 -24 17 -13 17 -15 3 -21 -21 -8 -22 -24 -2 -24 8 0 15 5 15
10 0 6 9 5 21 -2 18 -11 23 -11 26 0 4 9 8 10 18 2 16 -13 45 2 64 33 10 16
10 22 -1 29 -10 7 -10 11 0 15 16 6 15 21 -3 40 -12 11 -19 12 -29 4 -13 -11
-26 -5 -26 11 0 5 4 7 9 3 5 -3 13 0 17 6 5 9 0 10 -16 6 -13 -3 -29 -2 -36 4
-8 7 -14 7 -19 -1 -3 -5 -16 -8 -28 -6 -12 1 -16 1 -9 -1 17 -6 10 -28 -8 -28
-24 0 -165 -159 -203 -229 -20 -37 -37 -73 -37 -81 0 -23 -16 -26 -49 -9 -23
12 -31 21 -26 33 4 9 14 48 22 86 16 71 47 142 80 182 10 11 44 39 77 62 151
105 332 90 698 -57 294 -118 320 -126 428 -126 83 -1 102 2 152 26 90 42 145
105 189 213 l12 30 19 -44 c13 -28 22 -76 25 -125z m258 102 c38 -81 35 -192
-6 -300 -28 -71 -42 -92 -109 -160 -49 -49 -85 -78 -99 -78 -11 0 -21 -4 -21
-10 0 -5 -7 -10 -15 -10 -8 0 -15 -4 -15 -10 0 -29 73 -2 176 66 103 67 297
302 374 454 11 22 22 40 24 40 5 0 44 -126 56 -180 20 -95 7 -265 -31 -373
-76 -222 -213 -352 -437 -415 -71 -20 -116 -21 -204 -7 -32 6 -37 9 -27 21 13
16 39 19 39 4 0 -5 7 -10 15 -10 8 0 15 5 15 10 0 16 27 12 34 -6 3 -8 11 -12
17 -9 6 5 4 12 -8 20 -10 7 -14 17 -10 21 4 4 15 0 24 -9 16 -15 18 -15 36 1
15 12 21 14 24 5 5 -14 33 -18 33 -5 0 5 12 15 27 23 26 14 57 37 94 72 22 20
36 22 42 5 2 -7 8 -9 13 -5 5 4 2 12 -6 17 -12 8 -11 12 7 30 12 11 27 20 34
20 7 0 9 10 5 28 -4 18 -4 22 3 13 5 -7 14 -10 21 -6 8 5 9 10 1 18 -15 15
-14 27 4 27 8 0 15 -5 15 -11 0 -5 5 -7 12 -3 9 6 9 9 0 12 -18 6 -15 29 5 36
15 6 15 8 0 23 -15 16 -14 19 14 44 18 16 26 30 20 34 -16 9 -13 35 4 35 18 0
19 12 3 28 -9 9 -5 17 15 36 15 14 27 28 27 31 0 12 -59 65 -72 65 -8 -1 -6
-6 7 -16 19 -14 19 -15 -10 -39 -17 -13 -34 -24 -39 -25 -5 0 -1 -9 8 -19 11
-12 14 -21 7 -26 -6 -3 -11 -1 -11 4 0 6 -7 11 -15 11 -18 0 -20 -16 -2 -24 8
-3 4 -11 -12 -23 -13 -9 -39 -32 -57 -50 -19 -18 -38 -33 -43 -33 -5 0 -11 -6
-14 -12 -3 -10 -8 -10 -21 1 -9 8 -20 11 -23 7 -4 -4 -1 -11 7 -16 12 -7 12
-12 3 -21 -10 -10 -14 -9 -19 4 -8 22 -20 21 -47 -3 -13 -13 -31 -19 -47 -17
-14 2 -19 2 -12 0 15 -6 16 -20 0 -29 -6 -4 -14 -2 -16 4 -5 17 -20 15 -54 -9
-25 -18 -32 -19 -39 -8 -7 12 -12 12 -30 0 -19 -11 -23 -11 -31 4 -8 13 -12
14 -25 4 -12 -10 -19 -10 -35 0 -15 9 -23 9 -34 0 -8 -6 -17 -9 -20 -6 -6 6
32 47 44 47 4 0 19 11 34 25 30 28 44 31 51 13 2 -8 8 -9 13 -4 5 5 4 11 -3
13 -16 6 -17 33 -2 33 16 0 73 60 64 68 -4 4 -10 1 -12 -5 -3 -7 -11 -13 -18
-13 -7 0 -15 6 -18 13 -2 7 -8 8 -13 3 -5 -5 -4 -11 4 -13 17 -6 15 -23 -3
-23 -8 0 -15 5 -15 10 0 6 -7 10 -15 10 -17 0 -20 -16 -5 -25 6 -3 10 -10 10
-16 0 -5 -4 -9 -10 -9 -5 0 -10 7 -10 15 0 20 -20 19 -36 -2 -12 -17 -13 -17
-19 0 -4 9 -13 17 -21 17 -19 0 -18 -18 1 -22 10 -2 12 -7 5 -18 -9 -13 -11
-13 -19 -1 -8 12 -14 12 -40 1 -17 -7 -31 -16 -31 -21 0 -5 -4 -9 -10 -9 -5 0
-10 7 -10 15 0 8 4 15 10 15 5 0 31 14 57 30 26 17 53 28 60 26 7 -3 13 0 13
7 0 7 26 39 56 72 53 57 104 139 104 167 0 7 21 24 47 38 55 29 102 105 123
198 14 66 27 102 35 102 3 0 17 -24 30 -52z m-1505 -78 c0 -5 -4 -10 -10 -10
-5 0 -10 5 -10 10 0 6 5 10 10 10 6 0 10 -4 10 -10z m50 -300 c0 -5 -4 -10
-10 -10 -5 0 -10 5 -10 10 0 6 5 10 10 10 6 0 10 -4 10 -10z m-406 -57 c242
-75 486 -241 486 -329 0 -38 -12 -50 -30 -29 -10 13 -9 19 5 35 15 16 16 23 6
33 -10 9 -14 8 -22 -6 -9 -16 -17 -12 -69 36 -78 70 -205 135 -374 191 -140
46 -172 54 -162 37 3 -5 38 -16 78 -26 40 -9 87 -23 103 -30 17 -7 37 -15 45
-18 8 -4 -3 -3 -25 0 -113 19 -112 -1 3 -48 104 -42 202 -109 202 -138 0 -45
-68 -181 -91 -181 -4 0 -25 12 -46 26 -61 42 -143 75 -218 88 l-70 12 -8 70
c-4 38 -14 93 -23 121 -9 29 -14 68 -11 86 4 26 1 36 -14 45 -21 14 -25 47 -6
56 25 11 162 -6 241 -31z m2086 1 c0 -9 -5 -14 -12 -12 -18 6 -21 28 -4 28 9
0 16 -7 16 -16z m-1060 -14 c0 -5 -2 -10 -4 -10 -3 0 -8 5 -11 10 -3 6 -1 10
4 10 6 0 11 -4 11 -10z m-663 -22 c-3 -8 -6 -5 -6 6 -1 11 2 17 5 13 3 -3 4
-12 1 -19z m813 -12 c0 -3 -4 -8 -10 -11 -5 -3 -10 -1 -10 4 0 6 5 11 10 11 6
0 10 -2 10 -4z m-30 -25 c0 -6 -4 -13 -10 -16 -5 -3 -10 1 -10 9 0 9 5 16 10
16 6 0 10 -4 10 -9z m895 -61 c3 -5 -1 -10 -10 -10 -9 0 -13 5 -10 10 3 6 8
10 10 10 2 0 7 -4 10 -10z m-1827 -45 c80 -43 192 -128 192 -146 0 -5 -36 19
-80 52 -44 33 -111 78 -148 99 -91 54 -66 50 36 -5z m662 34 c0 -6 12 -9 28
-6 15 2 21 2 15 0 -15 -5 -18 -33 -4 -33 6 0 13 5 16 10 9 15 25 12 25 -5 0
-8 5 -15 10 -15 6 0 19 -9 30 -20 16 -16 17 -20 5 -20 -8 0 -24 9 -35 20 -12
12 -25 18 -30 15 -12 -7 -70 22 -70 35 0 6 -7 10 -16 10 -8 0 -12 5 -9 10 8
13 35 13 35 -1z m525 -29 c3 -5 1 -10 -4 -10 -6 0 -11 5 -11 10 0 6 2 10 4 10
3 0 8 -4 11 -10z m-145 -14 c0 -3 -4 -8 -10 -11 -5 -3 -10 -1 -10 4 0 6 5 11
10 11 6 0 10 -2 10 -4z m55 -6 c3 -5 1 -10 -4 -10 -6 0 -11 5 -11 10 0 6 2 10
4 10 3 0 8 -4 11 -10z m-245 -50 c0 -5 -4 -10 -10 -10 -5 0 -10 5 -10 10 0 6
5 10 10 10 6 0 10 -4 10 -10z m30 -30 c0 -5 -4 -10 -10 -10 -5 0 -10 5 -10 10
0 6 5 10 10 10 6 0 10 -4 10 -10z m415 -20 c3 -5 1 -10 -4 -10 -6 0 -11 5 -11
10 0 6 2 10 4 10 3 0 8 -4 11 -10z m-270 -70 c-3 -5 -11 -10 -16 -10 -6 0 -7
5 -4 10 3 6 11 10 16 10 6 0 7 -4 4 -10z m-1425 -25 c0 -7 7 -15 15 -19 9 -3
15 0 15 9 0 17 27 19 82 6 37 -9 178 -97 178 -112 0 -7 -71 19 -112 41 -30 17
-133 39 -154 34 -12 -3 -30 3 -44 14 -21 17 -22 22 -11 36 14 17 31 13 31 -9z
m1455 -5 c3 -5 1 -10 -4 -10 -6 0 -11 5 -11 10 0 6 2 10 4 10 3 0 8 -4 11 -10z
m80 -40 c-3 -5 -11 -10 -16 -10 -6 0 -7 5 -4 10 3 6 11 10 16 10 6 0 7 -4 4
-10z m-1527 -40 c31 -25 51 -57 52 -83 0 -18 -46 -117 -55 -117 -19 0 -148 97
-156 117 -16 42 -11 81 14 98 29 22 108 13 145 -15z m1596 -18 c4 -9 -4 -7
-24 5 -17 9 -30 23 -30 31 0 15 46 -15 54 -36z m-1476 6 c43 -19 57 -48 24
-48 -10 0 -36 13 -58 30 -21 16 -45 30 -51 30 -7 0 -13 5 -13 10 0 13 39 4 98
-22z m1802 2 c0 -5 -4 -10 -9 -10 -6 0 -13 5 -16 10 -3 6 1 10 9 10 9 0 16 -4
16 -10z m-267 -12 c3 -10 9 -10 25 -1 13 8 23 9 27 3 3 -6 -1 -10 -9 -10 -9 0
-16 -7 -16 -15 0 -19 -26 -20 -34 0 -3 8 -12 12 -21 9 -11 -5 -14 -2 -9 10 7
19 30 21 37 4z m-1310 -60 c34 -17 49 -45 80 -138 35 -106 52 -265 39 -358
-12 -84 -10 -122 4 -122 7 0 15 -12 19 -27 3 -16 23 -57 44 -93 21 -36 58
-103 81 -150 34 -67 64 -107 147 -195 110 -115 180 -211 215 -296 l21 -50 -30
-37 c-42 -52 -110 -102 -139 -102 -26 0 -49 29 -59 75 -6 26 -5 28 7 13 13
-15 16 -14 37 8 19 20 21 27 11 39 -10 12 -10 18 -1 29 10 12 9 20 -4 40 -10
14 -21 26 -26 26 -5 0 -9 7 -9 15 0 8 5 15 10 15 12 0 14 27 2 32 -4 2 -20 19
-35 38 -18 25 -25 43 -21 60 5 24 5 25 -11 5 -13 -17 -17 -18 -25 -5 -6 9 -6
16 0 18 6 2 10 11 10 19 0 13 -3 13 -15 3 -20 -17 -32 -5 -15 15 16 19 5 32
-14 16 -10 -8 -16 -9 -21 -1 -3 5 -1 10 4 10 6 0 11 7 11 15 0 18 -12 19 -28
3 -7 -7 -12 -8 -12 -2 0 5 5 15 11 21 6 6 8 17 4 23 -5 8 -10 9 -18 1 -18 -18
-28 -13 -15 8 10 16 6 24 -30 58 -23 22 -42 45 -42 51 0 6 -6 12 -12 15 -10 3
-10 9 -1 25 10 17 8 24 -12 47 -26 27 -33 55 -14 55 5 0 7 5 4 10 -5 8 -11 7
-21 -1 -8 -6 -17 -9 -21 -5 -4 3 2 13 13 21 18 14 18 16 2 26 -10 5 -18 16
-18 24 0 7 -6 15 -12 18 -10 3 -10 9 -1 24 9 17 7 24 -14 47 -13 15 -23 32
-20 39 6 17 3 32 -5 29 -5 -1 -8 5 -8 13 0 18 -30 20 -31 3 -7 -121 -16 -168
-31 -168 -5 0 -6 -9 -3 -20 4 -13 -2 -31 -15 -51 -24 -32 -21 -50 5 -29 12 10
15 10 15 -4 0 -9 -5 -16 -12 -16 -9 0 -8 -3 1 -12 11 -10 14 -10 18 0 6 17 33
15 33 -2 0 -8 6 -16 13 -19 9 -3 9 -8 -2 -21 -17 -20 -7 -34 12 -18 20 17 28
4 14 -20 -9 -16 -9 -22 1 -25 6 -3 12 -11 12 -18 0 -7 6 -15 13 -18 10 -3 10
-9 0 -26 -16 -27 -16 -31 1 -31 8 0 16 6 19 13 2 7 8 8 13 3 5 -5 4 -11 -3
-13 -7 -3 -13 -11 -13 -18 0 -7 6 -15 13 -18 9 -3 9 -9 -1 -26 -10 -17 -10
-25 0 -42 10 -17 10 -23 1 -26 -16 -6 -17 -30 -1 -35 12 -4 -18 -58 -33 -58
-16 0 -10 -28 7 -34 15 -6 15 -8 -1 -26 -14 -16 -16 -23 -7 -32 20 -20 13 -32
-8 -13 -16 14 -20 15 -20 4 0 -8 6 -21 13 -28 10 -10 9 -14 -6 -22 -14 -8 -15
-14 -6 -30 6 -12 8 -23 5 -27 -3 -3 -6 0 -6 6 0 7 -7 12 -15 12 -19 0 -19 -14
0 -30 13 -11 13 -14 -2 -25 -10 -8 -15 -17 -10 -21 4 -4 13 -2 19 4 7 7 16 12
20 12 13 0 9 -28 -4 -33 -8 -2 -9 -8 -4 -13 5 -5 11 -4 13 4 7 18 30 15 38 -5
6 -17 8 -17 21 2 14 19 16 19 25 3 12 -22 29 -23 29 -3 0 20 14 19 31 -1 12
-14 14 -14 27 3 13 17 13 17 24 -1 11 -19 11 -19 24 -1 8 10 17 15 21 11 5 -4
-5 -19 -20 -32 -24 -20 -39 -24 -94 -24 -37 0 -83 5 -102 11 -149 47 -270 165
-271 266 0 17 4 35 10 38 5 3 10 19 10 36 0 32 11 37 30 14 29 -35 31 5 5 91
-24 79 -46 244 -33 244 17 0 158 -258 172 -314 5 -19 12 -26 21 -22 8 3 15 1
15 -4 0 -6 5 -10 11 -10 8 0 8 5 -1 15 -7 8 -10 24 -7 35 3 11 1 20 -4 20 -4
0 -20 39 -35 87 -34 115 -90 249 -112 274 -10 10 -43 23 -72 29 -30 6 -61 17
-69 24 -11 12 -9 17 18 31 18 9 37 28 43 43 7 15 20 35 29 44 10 10 20 39 24
65 3 27 12 59 20 73 44 76 48 93 34 140 -15 52 -17 92 -5 138 l8 32 -62 0
c-45 0 -62 -4 -67 -15 -7 -19 -75 -55 -103 -55 -87 0 -76 105 20 186 44 37 72
51 135 69 63 17 110 18 138 3z m-440 -88 l75 -50 -1 -50 c-2 -39 3 -54 20 -72
23 -23 78 -30 118 -15 46 16 158 -132 132 -175 -24 -37 -73 -18 -164 64 -24
21 -63 48 -88 60 -25 12 -45 26 -45 30 0 9 71 -18 80 -31 6 -10 50 -34 50 -27
0 2 3 11 6 20 4 11 0 16 -14 16 -29 0 -72 20 -104 49 -20 18 -28 34 -28 58 0
43 -21 40 -34 -5 -5 -18 -13 -32 -18 -32 -5 0 -42 15 -83 34 -77 35 -91 54
-79 100 7 31 58 76 84 76 10 0 52 -23 93 -50z m327 -148 c0 -16 -8 -36 -17
-45 -16 -14 -20 -14 -40 3 -30 24 -29 32 5 52 39 25 52 22 52 -10z m-430 -7
c27 -13 52 -30 55 -36 4 -6 41 -26 84 -45 190 -86 286 -192 231 -255 -22 -25
-22 -22 -2 31 4 11 0 10 -16 -3 -35 -32 -58 -1 -25 35 9 10 11 18 5 18 -6 0
-19 -11 -28 -25 -20 -31 -25 -31 -63 0 -20 17 -28 31 -24 42 5 13 2 15 -12 9
-13 -5 -29 5 -61 39 -24 25 -44 52 -44 60 0 8 -4 15 -10 15 -5 0 -10 -12 -10
-26 0 -29 1 -29 -108 2 -86 24 -113 69 -75 124 32 47 38 48 103 15z m26 -198
c108 -43 197 -96 262 -156 27 -25 33 -37 30 -63 -2 -23 -9 -34 -22 -36 -11 -2
-16 0 -12 6 3 6 2 13 -4 17 -14 9 -13 42 2 48 7 2 10 8 6 12 -4 4 -15 5 -24 1
-12 -5 -15 -15 -12 -41 2 -22 0 -35 -8 -35 -14 0 -78 46 -126 92 -39 36 -48
38 -48 6 0 -14 -8 -18 -33 -18 -43 0 -102 41 -127 89 -10 21 -26 41 -35 44
-29 12 -7 77 26 77 9 0 65 -19 125 -43z m64 -278 c0 -19 -70 -154 -96 -184
-25 -30 -25 -30 -20 -5 11 57 50 157 69 178 21 23 47 30 47 11z m44 -61 c-4
-13 -10 -25 -13 -28 -4 -3 -26 -37 -50 -77 -48 -81 -64 -98 -86 -89 -22 8 -18
24 8 28 15 2 40 30 82 95 33 51 61 92 63 93 2 0 0 -10 -4 -22z m646 -238 c0
-5 -2 -10 -4 -10 -3 0 -8 5 -11 10 -3 6 -1 10 4 10 6 0 11 -4 11 -10z m-85
-90 c3 -5 1 -10 -4 -10 -6 0 -11 5 -11 10 0 6 2 10 4 10 3 0 8 -4 11 -10z m5
-60 c0 -5 -4 -10 -10 -10 -5 0 -10 5 -10 10 0 6 5 10 10 10 6 0 10 -4 10 -10z
m280 -120 c0 -5 -7 -10 -16 -10 -8 0 -12 5 -9 10 3 6 10 10 16 10 5 0 9 -4 9
-10z" id="node1" class="node"></path>
<path d="M810 2810 c0 -5 5 -10 10 -10 6 0 10 5 10 10 0 6 -4 10 -10 10 -5 0
-10 -4 -10 -10z" id="node2" class="node"></path>
<path d="M860 2620 c0 -5 5 -10 10 -10 6 0 10 5 10 10 0 6 -4 10 -10 10 -5 0
-10 -4 -10 -10z" id="node3" class="node"></path>
<path d="M1110 2430 c0 -5 5 -10 11 -10 5 0 7 5 4 10 -3 6 -8 10 -11 10 -2 0
-4 -4 -4 -10z" id="node4" class="node"></path>
<path d="M1500 2430 c0 -5 5 -10 10 -10 6 0 10 5 10 10 0 6 -4 10 -10 10 -5 0
-10 -4 -10 -10z" id="node5" class="node"></path>
<path d="M870 2390 c0 -5 5 -10 10 -10 6 0 10 5 10 10 0 6 -4 10 -10 10 -5 0
-10 -4 -10 -10z" id="node6" class="node"></path>
<path d="M1645 2390 c3 -5 8 -10 11 -10 2 0 4 5 4 10 0 6 -5 10 -11 10 -5 0
-7 -4 -4 -10z" id="node7" class="node"></path>
<path d="M1820 2330 c0 -5 5 -10 11 -10 5 0 7 5 4 10 -3 6 -8 10 -11 10 -2 0
-4 -4 -4 -10z" id="node8" class="node"></path>
<path d="M1782 2311 c2 -7 7 -12 11 -12 12 1 9 15 -3 20 -7 2 -11 -2 -8 -8z" id="node9" class="node"></path>
<path d="M2640 2470 c0 -5 5 -10 10 -10 6 0 10 5 10 10 0 6 -4 10 -10 10 -5 0
-10 -4 -10 -10z" id="node10" class="node"></path>
<path d="M2665 2440 c4 -6 11 -8 16 -5 14 9 11 15 -7 15 -8 0 -12 -5 -9 -10z" id="node11" class="node"></path>
<path d="M2655 2330 c-3 -5 -1 -10 4 -10 6 0 11 5 11 10 0 6 -2 10 -4 10 -3 0
-8 -4 -11 -10z" id="node12" class="node"></path>
<path d="M2510 2311 c0 -6 5 -13 10 -16 6 -3 10 1 10 9 0 9 -4 16 -10 16 -5 0
-10 -4 -10 -9z" id="node13" class="node"></path>
<path d="M2655 2270 c3 -5 8 -10 11 -10 2 0 4 5 4 10 0 6 -5 10 -11 10 -5 0
-7 -4 -4 -10z" id="node14" class="node"></path>
<path d="M2146 2231 c-4 -7 -5 -15 -2 -18 9 -9 19 4 14 18 -4 11 -6 11 -12 0z" id="node15" class="node"></path>
<path d="M2615 2190 c3 -5 8 -10 11 -10 2 0 4 5 4 10 0 6 -5 10 -11 10 -5 0
-7 -4 -4 -10z" id="node16" class="node"></path>
<path d="M2290 2179 c0 -5 5 -7 10 -4 6 3 10 8 10 11 0 2 -4 4 -10 4 -5 0 -10
-5 -10 -11z" id="node17" class="node"></path>
<path d="M2080 2169 c0 -5 5 -7 10 -4 6 3 10 8 10 11 0 2 -4 4 -10 4 -5 0 -10
-5 -10 -11z" id="node18" class="node"></path>
<path d="M2045 2140 c4 -6 11 -8 16 -5 14 9 11 15 -7 15 -8 0 -12 -5 -9 -10z" id="node19" class="node"></path>
<path d="M2165 2130 c3 -5 8 -10 11 -10 2 0 4 5 4 10 0 6 -5 10 -11 10 -5 0
-7 -4 -4 -10z" id="node20" class="node"></path>
<path d="M2510 2000 c0 -5 5 -10 10 -10 6 0 10 5 10 10 0 6 -4 10 -10 10 -5 0
-10 -4 -10 -10z" id="node21" class="node"></path>
<path d="M2420 1924 c0 -8 5 -12 10 -9 6 4 8 11 5 16 -9 14 -15 11 -15 -7z" id="node22" class="node"></path>
<path d="M658 2163 c6 -2 12 -9 12 -14 0 -14 -27 -11 -34 4 -3 6 -4 0 -1 -15
3 -16 0 -28 -8 -31 -9 -3 -9 -7 0 -19 10 -11 10 -17 0 -27 -9 -11 -9 -14 0
-18 8 -3 11 -15 8 -31 -4 -20 -3 -22 3 -9 7 17 9 17 21 3 10 -12 10 -16 2 -16
-7 0 -9 -5 -5 -11 4 -8 9 -7 14 2 7 10 11 10 24 0 12 -10 22 -5 56 29 30 30
39 45 31 53 -7 7 -7 14 1 24 15 19 2 29 -17 13 -14 -12 -16 -10 -10 16 6 26 5
27 -7 12 -13 -15 -17 -14 -47 13 -19 16 -39 29 -45 28 -7 0 -6 -3 2 -6z m62
-163 c0 -5 -4 -10 -10 -10 -5 0 -10 5 -10 10 0 6 5 10 10 10 6 0 10 -4 10 -10z" id="node23" class="node"></path>
<path d="M795 2080 c-3 -5 -1 -10 4 -10 6 0 11 5 11 10 0 6 -2 10 -4 10 -3 0
-8 -4 -11 -10z" id="node24" class="node"></path>
<path d="M600 2030 c0 -5 5 -10 11 -10 5 0 7 5 4 10 -3 6 -8 10 -11 10 -2 0
-4 -4 -4 -10z" id="node25" class="node"></path>
<path d="M730 1751 c0 -25 -5 -31 -30 -36 -16 -4 -44 -3 -61 0 -29 6 -31 5
-27 -13 5 -17 0 -21 -28 -27 -19 -3 -34 -10 -34 -16 0 -14 50 -5 132 23 82 27
88 23 97 -64 4 -35 11 -69 15 -77 5 -8 8 -32 8 -55 -2 -37 -1 -38 13 -20 18
24 18 52 0 84 -9 16 -12 40 -8 67 4 33 -1 54 -23 102 -31 66 -54 79 -54 32z" id="node26" class="node"></path>
<path d="M458 1688 c7 -7 12 -25 12 -41 0 -26 -3 -29 -25 -23 -30 8 -34 -10
-5 -19 23 -7 67 17 77 41 7 20 -25 54 -51 54 -15 0 -17 -3 -8 -12z" id="node27" class="node"></path>
<path d="M826 1251 c-4 -7 -5 -15 -2 -18 9 -9 19 4 14 18 -4 11 -6 11 -12 0z" id="node28" class="node"></path>
<path d="M850 1155 c0 -8 5 -15 10 -15 6 0 10 7 10 15 0 8 -4 15 -10 15 -5 0
-10 -7 -10 -15z" id="node29" class="node"></path>
<path d="M690 1091 c0 -6 5 -13 10 -16 6 -3 10 1 10 9 0 9 -4 16 -10 16 -5 0
-10 -4 -10 -9z" id="node30" class="node"></path>
<path d="M740 970 c0 -5 5 -10 10 -10 6 0 10 5 10 10 0 6 -4 10 -10 10 -5 0
-10 -4 -10 -10z" id="node31" class="node"></path>
<path d="M828 753 c7 -3 16 -2 19 1 4 3 -2 6 -13 5 -11 0 -14 -3 -6 -6z" id="node32" class="node"></path>
<path d="M820 690 c0 -5 7 -10 16 -10 8 0 12 5 9 10 -3 6 -10 10 -16 10 -5 0
-9 -4 -9 -10z" id="node33" class="node"></path>
<path d="M820 625 c0 -8 7 -15 15 -15 8 0 15 7 15 15 0 8 -7 15 -15 15 -8 0
-15 -7 -15 -15z" id="node34" class="node"></path>
<path d="M1150 624 c0 -8 5 -12 10 -9 6 4 8 11 5 16 -9 14 -15 11 -15 -7z" id="node35" class="node"></path>
<path d="M800 536 c0 -9 5 -16 10 -16 6 0 10 4 10 9 0 6 -4 13 -10 16 -5 3
-10 -1 -10 -9z" id="node36" class="node"></path>
<path d="M1205 500 c4 -6 11 -8 16 -5 14 9 11 15 -7 15 -8 0 -12 -5 -9 -10z" id="node37" class="node"></path>
<path d="M770 440 c0 -5 5 -10 10 -10 6 0 10 5 10 10 0 6 -4 10 -10 10 -5 0
-10 -4 -10 -10z" id="node38" class="node"></path>
<path d="M1230 410 c0 -5 5 -10 10 -10 6 0 10 5 10 10 0 6 -4 10 -10 10 -5 0
-10 -4 -10 -10z" id="node39" class="node"></path>
<path d="M567 1462 c-22 -24 -21 -45 1 -65 23 -21 46 -22 63 -1 11 13 9 14
-13 9 -21 -5 -27 -2 -33 15 -4 12 -2 27 4 33 6 6 11 15 11 19 0 14 -16 9 -33
-10z" id="node40" class="node"></path>
<path d="M596 1585 c-3 -8 -1 -15 4 -15 6 0 10 7 10 15 0 8 -2 15 -4 15 -2 0
-6 -7 -10 -15z" id="node41" class="node"></path>
























</g>
<g transform="translate(0.000000,300.000000) scale(0.100000,-0.100000)" fill="#FFFFFF" stroke="none">

<path d="M2121 2855 c-44 -108 -99 -171 -189 -213 -50 -24 -69 -27 -152 -26
-108 0 -134 8 -428 126 -366 147 -547 162 -698 57 -33 -23 -67 -51 -77 -62
-33 -40 -64 -111 -80 -182 -8 -38 -18 -77 -22 -86 -5 -12 3 -21 26 -33 33 -17
49 -14 49 9 0 8 17 44 37 81 38 70 179 229 203 229 18 0 25 22 8 28 -7 2 -3 2
9 1 12 -2 25 1 28 6 5 8 11 8 19 1 7 -6 23 -7 36 -4 16 4 21 3 16 -6 -4 -6
-12 -9 -17 -6 -5 4 -9 2 -9 -3 0 -16 13 -22 26 -11 10 8 17 7 29 -4 18 -19 19
-34 3 -40 -10 -4 -10 -8 0 -15 11 -7 11 -13 1 -29 -19 -31 -48 -46 -64 -33
-10 8 -14 7 -18 -2 -3 -11 -8 -11 -26 0 -12 7 -21 8 -21 2 0 -5 -7 -10 -15
-10 -20 0 -19 16 2 24 14 6 14 8 -3 21 -16 13 -17 16 -4 24 8 6 12 12 9 15
-19 19 -130 -118 -169 -210 -38 -89 -37 -90 121 -168 176 -86 200 -92 230 -60
24 26 19 45 -6 24 -9 -7 -19 -10 -23 -6 -4 4 1 14 11 21 12 9 14 15 7 20 -6 4
-17 2 -25 -5 -11 -9 -18 -7 -34 9 -25 25 -26 31 -6 31 18 0 20 26 3 33 -10 3
-10 8 1 18 10 11 15 11 18 2 3 -7 9 -13 15 -13 6 0 6 6 -2 15 -10 12 -8 18 11
34 18 14 27 16 37 9 18 -15 27 -2 12 17 -10 12 -10 15 3 15 8 0 17 -5 19 -12
2 -6 10 -8 17 -4 9 6 9 11 0 22 -6 8 -9 17 -5 21 3 4 12 -2 20 -12 10 -14 15
-15 21 -5 4 7 2 16 -6 21 -7 4 -10 11 -6 16 5 4 12 1 17 -7 8 -12 13 -13 30
-2 24 15 30 15 30 2 0 -5 -7 -10 -15 -10 -8 0 -15 -7 -15 -15 0 -18 27 -20 33
-2 2 6 8 9 12 5 8 -7 -13 -29 -62 -66 l-22 -17 20 -24 20 -24 27 19 c51 38
124 56 227 58 59 2 105 -11 105 -27 0 -17 45 -46 52 -34 5 8 13 6 25 -6 18
-15 20 -15 36 0 15 15 17 15 23 0 3 -9 12 -17 19 -17 7 0 15 -6 18 -12 3 -10
9 -10 25 -1 18 11 23 10 31 -4 8 -14 12 -15 25 -4 14 12 19 11 35 -3 18 -17
20 -16 29 1 6 10 14 15 18 10 9 -9 -25 -47 -43 -47 -7 0 -13 -7 -13 -15 0 -8
-7 -15 -15 -15 -8 0 -15 -4 -15 -10 0 -5 -7 -10 -15 -10 -8 0 -15 5 -15 10 0
6 -8 10 -17 10 -17 -1 -17 -1 0 -14 9 -7 17 -18 17 -25 0 -15 23 -14 38 1 9 9
12 9 12 0 0 -7 -4 -12 -10 -12 -5 0 -10 -7 -10 -15 0 -8 5 -15 10 -15 6 0 10
4 10 9 0 10 34 23 72 27 36 3 168 69 213 106 59 49 123 148 141 219 21 82 15
207 -14 270 l-19 44 -12 -30z m-1291 -45 c0 -5 -4 -10 -10 -10 -5 0 -10 5 -10
10 0 6 5 10 10 10 6 0 10 -4 10 -10z m50 -190 c0 -5 -4 -10 -10 -10 -5 0 -10
5 -10 10 0 6 5 10 10 10 6 0 10 -4 10 -10z m245 -190 c3 -5 1 -10 -4 -10 -6 0
-11 5 -11 10 0 6 2 10 4 10 3 0 8 -4 11 -10z m395 0 c0 -5 -4 -10 -10 -10 -5
0 -10 5 -10 10 0 6 5 10 10 10 6 0 10 -4 10 -10z m-630 -40 c0 -5 -4 -10 -10
-10 -5 0 -10 5 -10 10 0 6 5 10 10 10 6 0 10 -4 10 -10z m770 0 c0 -5 -2 -10
-4 -10 -3 0 -8 5 -11 10 -3 6 -1 10 4 10 6 0 11 -4 11 -10z m175 -60 c3 -5 1
-10 -4 -10 -6 0 -11 5 -11 10 0 6 2 10 4 10 3 0 8 -4 11 -10z m-34 -23 c-1
-12 -15 -9 -19 4 -3 6 1 10 8 8 6 -3 11 -8 11 -12z" id="node67" class="node"></path>
<path d="M2391 2848 c-5 -13 -14 -49 -21 -80 -21 -93 -68 -169 -123 -198 -26
-14 -47 -31 -47 -38 0 -28 -51 -110 -104 -167 -30 -33 -56 -65 -56 -72 0 -7
-6 -10 -13 -7 -7 2 -34 -9 -60 -26 -26 -16 -52 -30 -57 -30 -6 0 -10 -7 -10
-15 0 -8 5 -15 10 -15 6 0 10 4 10 9 0 5 14 14 31 21 26 11 32 11 40 -1 8 -12
10 -12 19 1 7 11 5 16 -5 18 -19 4 -20 22 -1 22 8 0 17 -8 21 -17 6 -17 7 -17
19 0 16 21 36 22 36 2 0 -8 5 -15 10 -15 6 0 10 4 10 9 0 6 -4 13 -10 16 -15
9 -12 25 5 25 8 0 15 -4 15 -10 0 -5 7 -10 15 -10 18 0 20 17 3 23 -8 2 -9 8
-4 13 5 5 11 4 13 -3 3 -7 11 -13 18 -13 7 0 15 6 18 13 2 6 8 9 12 5 9 -8
-48 -68 -64 -68 -15 0 -14 -27 2 -33 7 -2 8 -8 3 -13 -5 -5 -11 -4 -13 4 -7
18 -21 15 -51 -13 -15 -14 -30 -25 -34 -25 -12 0 -50 -41 -44 -47 3 -3 12 0
20 6 11 9 19 9 34 0 16 -10 23 -10 35 0 13 10 17 9 25 -4 8 -15 12 -15 31 -4
18 12 23 12 30 0 7 -11 14 -10 39 8 34 24 49 26 54 9 2 -6 10 -8 16 -4 16 9
15 23 0 29 -7 2 -2 2 12 0 16 -2 34 4 47 17 27 24 39 25 47 3 5 -13 9 -14 19
-4 9 9 9 14 -3 21 -8 5 -11 12 -7 16 3 4 14 1 23 -7 13 -11 18 -11 21 -1 3 6
9 12 14 12 5 0 24 15 43 33 18 18 44 41 57 50 16 12 20 20 12 23 -18 8 -16 24
2 24 8 0 15 -5 15 -11 0 -5 5 -7 11 -4 7 5 4 14 -7 26 -9 10 -13 19 -8 19 5 1
22 12 39 25 29 24 29 25 10 39 -13 10 -15 15 -7 16 13 0 72 -53 72 -65 0 -3
-12 -17 -27 -31 -20 -19 -24 -27 -15 -36 16 -16 15 -28 -3 -28 -17 0 -20 -26
-4 -35 6 -4 -2 -18 -20 -34 -28 -25 -29 -28 -14 -44 15 -15 15 -17 0 -23 -20
-7 -23 -30 -5 -36 9 -3 9 -6 0 -12 -7 -4 -12 -2 -12 3 0 6 -7 11 -15 11 -18 0
-19 -12 -4 -27 8 -8 7 -13 -1 -18 -7 -4 -16 -1 -21 6 -7 9 -7 5 -3 -13 4 -18
2 -28 -5 -28 -7 0 -22 -9 -34 -20 -18 -18 -19 -22 -7 -30 8 -5 11 -13 6 -17
-5 -4 -11 -2 -13 5 -6 17 -20 15 -42 -5 -37 -35 -68 -58 -94 -72 -15 -8 -27
-18 -27 -23 0 -13 -28 -9 -33 5 -3 9 -9 7 -24 -5 -18 -16 -20 -16 -36 -1 -9 9
-20 13 -24 9 -4 -4 0 -14 10 -21 12 -8 14 -15 8 -20 -6 -3 -14 1 -17 9 -7 18
-34 22 -34 6 0 -5 -7 -10 -15 -10 -8 0 -15 5 -15 10 0 15 -26 12 -39 -4 -10
-12 -5 -15 27 -21 88 -14 133 -13 204 7 224 63 361 193 437 415 38 108 51 278
31 373 -12 54 -51 180 -56 180 -2 0 -13 -18 -24 -40 -77 -152 -271 -387 -374
-454 -103 -68 -176 -95 -176 -66 0 6 7 10 15 10 8 0 15 5 15 10 0 6 10 10 21
10 14 0 50 29 99 78 67 68 81 89 109 160 41 108 44 219 6 300 -13 28 -27 52
-30 52 -3 0 -9 -10 -14 -22z m269 -378 c0 -5 -4 -10 -10 -10 -5 0 -10 5 -10
10 0 6 5 10 10 10 6 0 10 -4 10 -10z m30 -24 c0 -11 -19 -15 -25 -6 -3 5 1 10
9 10 9 0 16 -2 16 -4z m-20 -116 c0 -5 -5 -10 -11 -10 -5 0 -7 5 -4 10 3 6 8
10 11 10 2 0 4 -4 4 -10z m-140 -26 c0 -8 -4 -12 -10 -9 -5 3 -10 10 -10 16 0
5 5 9 10 9 6 0 10 -7 10 -16z m140 -34 c0 -5 -2 -10 -4 -10 -3 0 -8 5 -11 10
-3 6 -1 10 4 10 6 0 11 -4 11 -10z m-514 -57 c-10 -10 -19 5 -10 18 6 11 8 11
12 0 2 -7 1 -15 -2 -18z m474 -23 c0 -5 -2 -10 -4 -10 -3 0 -8 5 -11 10 -3 6
-1 10 4 10 6 0 11 -4 11 -10z m-320 -4 c0 -3 -4 -8 -10 -11 -5 -3 -10 -1 -10
4 0 6 5 11 10 11 6 0 10 -2 10 -4z m-210 -10 c0 -3 -4 -8 -10 -11 -5 -3 -10
-1 -10 4 0 6 5 11 10 11 6 0 10 -2 10 -4z m-30 -30 c0 -11 -19 -15 -25 -6 -3
5 1 10 9 10 9 0 16 -2 16 -4z m110 -16 c0 -5 -2 -10 -4 -10 -3 0 -8 5 -11 10
-3 6 -1 10 4 10 6 0 11 -4 11 -10z m350 -130 c0 -5 -4 -10 -10 -10 -5 0 -10 5
-10 10 0 6 5 10 10 10 6 0 10 -4 10 -10z m-95 -69 c3 -5 1 -12 -5 -16 -5 -3
-10 1 -10 9 0 18 6 21 15 7z" id="node68" class="node"></path>
<path d="M910 2740 c0 -5 5 -10 10 -10 6 0 10 5 10 10 0 6 -4 10 -10 10 -5 0
-10 -4 -10 -10z" id="node69" class="node"></path>
<path d="M960 2440 c0 -5 5 -10 10 -10 6 0 10 5 10 10 0 6 -4 10 -10 10 -5 0
-10 -4 -10 -10z" id="node70" class="node"></path>
<path d="M333 2414 c-19 -9 -15 -42 6 -56 15 -9 18 -19 14 -45 -3 -18 2 -57
11 -86 9 -28 19 -83 23 -121 l8 -70 70 -12 c75 -13 157 -46 218 -88 21 -14 42
-26 46 -26 23 0 91 136 91 181 0 29 -98 96 -202 138 -115 47 -116 67 -3 48 22
-3 33 -4 25 0 -8 3 -28 11 -45 18 -16 7 -63 21 -103 30 -40 10 -75 21 -78 26
-10 17 22 9 162 -37 169 -56 296 -121 374 -191 52 -48 60 -52 69 -36 8 14 12
15 22 6 10 -10 9 -17 -6 -33 -14 -16 -15 -22 -5 -35 18 -21 30 -9 30 29 0 118
-401 343 -641 360 -41 3 -80 3 -86 0z m368 -273 c30 -27 34 -28 47 -13 12 15
13 14 7 -12 -6 -26 -4 -28 10 -16 19 16 32 6 17 -13 -8 -10 -8 -17 -1 -24 8
-8 -1 -23 -31 -53 -34 -34 -44 -39 -56 -29 -13 10 -17 10 -24 0 -5 -9 -10 -10
-14 -2 -4 6 -2 11 5 11 8 0 8 4 -2 16 -12 14 -14 14 -21 -3 -6 -13 -7 -11 -3
9 3 16 0 28 -8 31 -9 4 -9 7 0 18 10 10 10 16 0 27 -9 12 -9 16 0 19 8 3 11
15 8 31 -3 15 -2 21 1 15 7 -15 34 -18 34 -4 0 5 -6 12 -12 14 -8 3 -9 6 -2 6
6 1 26 -12 45 -28z m109 -61 c0 -5 -5 -10 -11 -10 -5 0 -7 5 -4 10 3 6 8 10
11 10 2 0 4 -4 4 -10z m-195 -50 c3 -5 1 -10 -4 -10 -6 0 -11 5 -11 10 0 6 2
10 4 10 3 0 8 -4 11 -10z" id="node71" class="node"></path>
<path d="M700 2000 c0 -5 5 -10 10 -10 6 0 10 5 10 10 0 6 -4 10 -10 10 -5 0
-10 -4 -10 -10z" id="node72" class="node"></path>
<path d="M2632 2388 c6 -18 28 -21 28 -4 0 9 -7 16 -16 16 -9 0 -14 -5 -12
-12z" id="node73" class="node"></path>
<path d="M1585 2370 c3 -5 8 -10 11 -10 2 0 4 5 4 10 0 6 -5 10 -11 10 -5 0
-7 -4 -4 -10z" id="node74" class="node"></path>
<path d="M931 2354 c0 -11 3 -14 6 -6 3 7 2 16 -1 19 -3 4 -6 -2 -5 -13z" id="node75" class="node"></path>
<path d="M1730 2329 c0 -5 5 -7 10 -4 6 3 10 8 10 11 0 2 -4 4 -10 4 -5 0 -10
-5 -10 -11z" id="node76" class="node"></path>
<path d="M1700 2304 c0 -8 5 -12 10 -9 6 3 10 10 10 16 0 5 -4 9 -10 9 -5 0
-10 -7 -10 -16z" id="node77" class="node"></path>
<path d="M2595 2250 c-3 -5 1 -10 10 -10 9 0 13 5 10 10 -3 6 -8 10 -10 10 -2
0 -7 -4 -10 -10z" id="node78" class="node"></path>
<path d="M752 2210 c37 -21 104 -66 148 -99 44 -33 80 -57 80 -52 0 18 -112
103 -192 146 -102 55 -127 59 -36 5z" id="node79" class="node"></path>
<path d="M1415 2240 c-3 -5 1 -10 9 -10 9 0 16 -4 16 -10 0 -13 58 -42 70 -35
5 3 18 -3 30 -15 11 -11 27 -20 35 -20 12 0 11 4 -5 20 -11 11 -24 20 -30 20
-5 0 -10 7 -10 15 0 17 -16 20 -25 5 -3 -5 -10 -10 -16 -10 -14 0 -11 28 4 33
6 2 0 2 -15 0 -16 -3 -28 0 -28 6 0 14 -27 14 -35 1z" id="node80" class="node"></path>
<path d="M1960 2210 c0 -5 5 -10 11 -10 5 0 7 5 4 10 -3 6 -8 10 -11 10 -2 0
-4 -4 -4 -10z" id="node81" class="node"></path>
<path d="M1810 2189 c0 -5 5 -7 10 -4 6 3 10 8 10 11 0 2 -4 4 -10 4 -5 0 -10
-5 -10 -11z" id="node82" class="node"></path>
<path d="M1870 2190 c0 -5 5 -10 11 -10 5 0 7 5 4 10 -3 6 -8 10 -11 10 -2 0
-4 -4 -4 -10z" id="node83" class="node"></path>
<path d="M1620 2140 c0 -5 5 -10 10 -10 6 0 10 5 10 10 0 6 -4 10 -10 10 -5 0
-10 -4 -10 -10z" id="node84" class="node"></path>
<path d="M1650 2110 c0 -5 5 -10 10 -10 6 0 10 5 10 10 0 6 -4 10 -10 10 -5 0
-10 -4 -10 -10z" id="node85" class="node"></path>
<path d="M2070 2090 c0 -5 5 -10 11 -10 5 0 7 5 4 10 -3 6 -8 10 -11 10 -2 0
-4 -4 -4 -10z" id="node86" class="node"></path>
<path d="M1795 2020 c-3 -5 -2 -10 4 -10 5 0 13 5 16 10 3 6 2 10 -4 10 -5 0
-13 -4 -16 -10z" id="node87" class="node"></path>
<path d="M359 2004 c-11 -14 -10 -19 11 -36 14 -11 32 -17 44 -14 21 5 124
-17 154 -34 41 -22 112 -48 112 -41 0 15 -141 103 -178 112 -55 13 -82 11 -82
-6 0 -9 -6 -12 -15 -9 -8 4 -15 12 -15 19 0 22 -17 26 -31 9z" id="node88" class="node"></path>
<path d="M1830 1990 c0 -5 5 -10 11 -10 5 0 7 5 4 10 -3 6 -8 10 -11 10 -2 0
-4 -4 -4 -10z" id="node89" class="node"></path>
<path d="M1905 1950 c-3 -5 -2 -10 4 -10 5 0 13 5 16 10 3 6 2 10 -4 10 -5 0
-13 -4 -16 -10z" id="node90" class="node"></path>
<path d="M253 1925 c-25 -17 -30 -56 -14 -98 8 -20 137 -117 156 -117 9 0 55
99 55 117 -2 76 -136 143 -197 98z" id="node91" class="node"></path>
<path d="M1940 1928 c0 -8 13 -22 30 -31 36 -22 32 -1 -5 26 -19 13 -25 14
-25 5z" id="node92" class="node"></path>
<path d="M420 1920 c0 -5 6 -10 13 -10 6 0 30 -14 51 -30 22 -17 48 -30 58
-30 33 0 19 29 -24 48 -59 26 -98 35 -98 22z" id="node93" class="node"></path>
<path d="M2295 1900 c3 -5 10 -10 16 -10 5 0 9 5 9 10 0 6 -7 10 -16 10 -8 0
-12 -4 -9 -10z" id="node94" class="node"></path>
<path d="M2016 1884 c-5 -12 -2 -15 9 -10 9 3 18 -1 21 -9 8 -20 34 -19 34 0
0 8 7 15 16 15 8 0 12 4 9 10 -4 6 -14 5 -27 -3 -16 -9 -22 -9 -25 1 -7 17
-30 15 -37 -4z" id="node95" class="node"></path>
<path d="M605 1825 c-63 -18 -91 -32 -135 -69 -96 -81 -107 -186 -20 -186 28
0 96 36 103 55 5 11 22 15 67 15 l62 0 -8 -32 c-12 -46 -10 -86 5 -138 14 -47
10 -64 -34 -140 -8 -14 -17 -46 -20 -73 -4 -26 -14 -55 -24 -65 -9 -9 -22 -29
-29 -44 -6 -15 -25 -34 -43 -43 -27 -14 -29 -19 -18 -31 8 -7 39 -18 69 -24
29 -6 62 -19 72 -29 22 -25 78 -159 112 -274 15 -48 31 -87 35 -87 5 0 7 -9 4
-20 -3 -11 0 -27 7 -35 9 -10 9 -15 1 -15 -6 0 -11 4 -11 10 0 5 -7 7 -15 4
-9 -4 -16 3 -21 22 -14 56 -155 314 -172 314 -13 0 9 -165 33 -244 26 -86 24
-126 -5 -91 -19 23 -30 18 -30 -14 0 -17 -5 -33 -10 -36 -6 -3 -10 -21 -10
-38 1 -101 122 -219 271 -266 19 -6 65 -11 102 -11 55 0 70 4 94 24 15 13 25
28 20 32 -4 4 -13 -1 -21 -11 -13 -18 -13 -18 -24 1 -11 18 -11 18 -24 1 -13
-17 -15 -17 -27 -3 -17 20 -31 21 -31 1 0 -20 -17 -19 -29 3 -9 16 -11 16 -25
-3 -13 -19 -15 -19 -21 -2 -8 20 -31 23 -38 5 -2 -8 -8 -9 -13 -4 -5 5 -4 11
4 13 13 5 17 33 4 33 -4 0 -13 -5 -20 -12 -6 -6 -15 -8 -19 -4 -5 4 0 13 10
21 15 11 15 14 2 25 -19 16 -19 30 0 30 8 0 15 -5 15 -12 0 -6 3 -9 6 -6 3 4
1 15 -5 27 -9 16 -8 22 6 30 15 8 16 12 6 22 -7 7 -13 20 -13 28 0 11 4 10 20
-4 21 -19 28 -7 8 13 -9 9 -7 16 7 32 16 18 16 20 1 26 -17 6 -23 34 -7 34 15
0 45 54 33 58 -16 5 -15 29 1 35 9 3 9 9 -1 26 -10 17 -10 25 0 42 10 17 10
23 1 26 -7 3 -13 11 -13 18 0 7 6 15 13 18 7 2 8 8 3 13 -5 5 -11 4 -13 -3 -3
-7 -11 -13 -19 -13 -17 0 -17 4 -1 31 10 17 10 23 0 26 -7 3 -13 11 -13 18 0
7 -6 15 -12 18 -10 3 -10 9 -1 25 14 24 6 37 -14 20 -19 -16 -29 -2 -12 18 11
13 11 18 2 21 -7 3 -13 11 -13 19 0 17 -27 19 -33 2 -4 -10 -7 -10 -18 0 -9 9
-10 12 -1 12 7 0 12 7 12 16 0 14 -3 14 -15 4 -26 -21 -29 -3 -5 29 13 20 19
38 15 51 -3 11 -2 20 3 20 15 0 24 47 31 168 1 17 31 15 31 -3 0 -8 3 -14 8
-13 8 3 11 -12 5 -29 -3 -7 7 -24 20 -39 21 -23 23 -30 14 -47 -9 -15 -9 -21
1 -24 6 -3 12 -11 12 -18 0 -8 8 -19 18 -24 16 -10 16 -12 -2 -26 -11 -8 -17
-18 -13 -21 4 -4 13 -1 21 5 10 8 16 9 21 1 3 -5 1 -10 -4 -10 -19 0 -12 -28
14 -55 20 -23 22 -30 12 -47 -9 -16 -9 -22 1 -25 6 -3 12 -9 12 -15 0 -6 19
-29 42 -51 36 -34 40 -42 30 -58 -13 -21 -3 -26 15 -8 8 8 13 7 18 -1 4 -6 2
-17 -4 -23 -6 -6 -11 -16 -11 -21 0 -6 5 -5 12 2 16 16 28 15 28 -3 0 -8 -5
-15 -11 -15 -5 0 -7 -5 -4 -10 5 -8 11 -7 21 1 19 16 30 3 14 -16 -17 -20 -5
-32 15 -15 12 10 15 10 15 -3 0 -8 -4 -17 -10 -19 -6 -2 -6 -9 0 -18 8 -13 12
-12 25 5 16 20 16 19 11 -5 -4 -17 3 -35 21 -60 15 -19 31 -36 35 -38 12 -5
10 -32 -2 -32 -5 0 -10 -7 -10 -15 0 -8 4 -15 9 -15 5 0 16 -12 26 -26 13 -20
14 -28 4 -40 -9 -11 -9 -17 1 -29 10 -12 8 -19 -11 -39 -21 -22 -24 -23 -37
-8 -12 15 -13 13 -7 -13 10 -46 33 -75 59 -75 29 0 97 50 139 102 l30 37 -21
50 c-35 85 -105 181 -215 296 -83 88 -113 128 -147 195 -23 47 -60 114 -81
150 -21 36 -41 77 -44 93 -4 15 -12 27 -19 27 -14 0 -16 38 -4 122 18 129 -28
390 -82 464 -33 46 -83 54 -175 29z m179 -106 c22 -48 27 -69 23 -102 -4 -27
-1 -51 8 -67 18 -32 18 -60 0 -84 -14 -18 -15 -17 -13 20 0 23 -3 47 -8 55 -4
8 -11 42 -15 77 -9 87 -15 91 -97 64 -82 -28 -132 -37 -132 -23 0 6 15 13 34
16 28 6 33 10 28 27 -4 18 -2 19 27 13 17 -3 45 -4 61 0 25 5 30 11 30 36 0
47 23 34 54 -32z m-279 -39 c9 -10 15 -26 12 -34 -10 -24 -54 -48 -77 -41 -29
9 -25 27 5 19 22 -6 25 -3 25 23 0 16 -5 34 -12 41 -9 9 -7 12 8 12 12 0 29
-9 39 -20z m331 -447 c-10 -10 -19 5 -10 18 6 11 8 11 12 0 2 -7 1 -15 -2 -18z
m34 -78 c0 -8 -4 -15 -10 -15 -5 0 -10 7 -10 15 0 8 5 15 10 15 6 0 10 -7 10
-15z m-160 -71 c0 -8 -4 -12 -10 -9 -5 3 -10 10 -10 16 0 5 5 9 10 9 6 0 10
-7 10 -16z m50 -114 c0 -5 -4 -10 -10 -10 -5 0 -10 5 -10 10 0 6 5 10 10 10 6
0 10 -4 10 -10z m87 -216 c-3 -3 -12 -4 -19 -1 -8 3 -5 6 6 6 11 1 17 -2 13
-5z m-2 -64 c3 -5 -1 -10 -9 -10 -9 0 -16 5 -16 10 0 6 4 10 9 10 6 0 13 -4
16 -10z m5 -65 c0 -8 -7 -15 -15 -15 -8 0 -15 7 -15 15 0 8 7 15 15 15 8 0 15
-7 15 -15z m315 6 c3 -5 1 -12 -5 -16 -5 -3 -10 1 -10 9 0 18 6 21 15 7z
m-345 -102 c0 -5 -4 -9 -10 -9 -5 0 -10 7 -10 16 0 8 5 12 10 9 6 -3 10 -10
10 -16z m410 -23 c0 -11 -19 -15 -25 -6 -3 5 1 10 9 10 9 0 16 -2 16 -4z
m-440 -66 c0 -5 -4 -10 -10 -10 -5 0 -10 5 -10 10 0 6 5 10 10 10 6 0 10 -4
10 -10z m460 -30 c0 -5 -4 -10 -10 -10 -5 0 -10 5 -10 10 0 6 5 10 10 10 6 0
10 -4 10 -10z" id="node96" class="node"></path>
<path d="M162 1765 c-32 -27 -47 -65 -36 -97 5 -18 134 -88 162 -88 5 0 13 14
18 32 13 45 34 48 34 5 0 -24 8 -40 28 -58 32 -29 75 -49 104 -49 14 0 18 -5
14 -16 -3 -9 -6 -18 -6 -20 0 -7 -44 17 -50 27 -9 13 -80 40 -80 31 0 -4 20
-18 45 -30 25 -12 64 -39 88 -60 91 -82 140 -101 164 -64 26 43 -86 191 -132
175 -40 -15 -95 -8 -118 15 -17 18 -22 33 -20 72 l1 50 -75 50 c-41 27 -83 50
-93 50 -10 0 -32 -11 -48 -25z m438 -293 c0 -4 -5 -13 -11 -19 -6 -6 -8 -21
-4 -33 6 -17 12 -20 33 -15 22 5 24 4 13 -9 -17 -21 -40 -20 -63 1 -22 20 -23
41 -1 65 17 19 33 24 33 10z" id="node97" class="node"></path>
<path d="M578 1602 c-34 -20 -35 -28 -5 -52 20 -17 24 -17 40 -3 20 18 23 73
5 73 -7 0 -25 -8 -40 -18z m32 -17 c0 -8 -4 -15 -10 -15 -5 0 -7 7 -4 15 4 8
8 15 10 15 2 0 4 -7 4 -15z" id="node98" class="node"></path>
<path d="M124 1602 c-20 -14 -44 -57 -44 -79 0 -44 42 -68 173 -99 24 -5 27
-3 27 20 0 14 5 26 10 26 6 0 10 -7 10 -15 0 -8 20 -35 44 -60 32 -34 48 -44
61 -39 14 6 17 4 12 -9 -4 -11 4 -25 24 -42 38 -31 43 -31 63 0 9 14 22 25 28
25 6 0 4 -8 -5 -18 -33 -36 -10 -67 25 -35 16 13 20 14 16 3 -20 -53 -20 -56
2 -31 55 63 -41 169 -231 255 -43 19 -80 39 -84 45 -7 12 -98 61 -112 61 -4 0
-13 -4 -19 -8z" id="node99" class="node"></path>
<path d="M72 1410 c-16 -27 -15 -49 3 -57 9 -3 25 -23 35 -44 25 -48 84 -89
127 -89 25 0 33 4 33 18 0 32 9 30 48 -6 48 -46 112 -92 126 -92 8 0 10 13 8
35 -3 26 0 36 12 41 9 4 20 3 24 -1 4 -4 1 -10 -6 -12 -15 -6 -16 -39 -2 -48
6 -4 7 -11 4 -17 -4 -6 1 -8 12 -6 13 2 20 13 22 36 4 37 -23 66 -123 135 -57
39 -260 127 -294 127 -9 0 -22 -9 -29 -20z" id="node100" class="node"></path>
<path d="M243 1098 c-19 -21 -58 -121 -69 -178 -5 -25 -5 -25 20 5 26 30 96
165 96 184 0 19 -26 12 -47 -11z" id="node101" class="node"></path>
<path d="M275 977 c-42 -65 -67 -93 -82 -95 -26 -4 -30 -20 -8 -28 22 -9 38 8
86 89 24 40 46 74 50 77 7 5 22 50 17 50 -2 -1 -30 -42 -63 -93z" id="node102" class="node"></path>
<path d="M965 810 c3 -5 8 -10 11 -10 2 0 4 5 4 10 0 6 -5 10 -11 10 -5 0 -7
-4 -4 -10z" id="node103" class="node"></path>
<path d="M880 720 c0 -5 5 -10 11 -10 5 0 7 5 4 10 -3 6 -8 10 -11 10 -2 0 -4
-4 -4 -10z" id="node104" class="node"></path>
<path d="M880 660 c0 -5 5 -10 10 -10 6 0 10 5 10 10 0 6 -4 10 -10 10 -5 0
-10 -4 -10 -10z" id="node105" class="node"></path>
<path d="M1155 540 c-3 -5 1 -10 9 -10 9 0 16 5 16 10 0 6 -4 10 -9 10 -6 0
-13 -4 -16 -10z" id="node106" class="node"></path>




</g>
</svg>