<!--?xml version="1.0" standalone="no"?--><svg version="1.0" xmlns="http://www.w3.org/2000/svg" width="238.000000pt" height="300.000000pt" viewBox="0 0 238.000000 300.000000" preserveAspectRatio="xMidYMid meet">
<metadata>
  <rdf:rdf xmlns:rdf="http://www.w3.org/1999/02/22-rdf-syntax-ns#" xmlns:rdfs="http://www.w3.org/2000/01/rdf-schema#" xmlns:dc="http://purl.org/dc/elements/1.1/">
    <rdf:description dc:title="hands holding baby" dc:publisher="Hiox" dc:date="2015-05-02" dc:format="image/svg+xml" dc:language="en">
      <dc:creator>
        <rdf:bag>
          <rdf:li>svgimages.com</rdf:li>
        </rdf:bag>
      </dc:creator>
    </rdf:description>
  </rdf:rdf>
</metadata>
<g transform="translate(0.000000,300.000000) scale(0.100000,-0.100000)" fill="#1B1B1B" stroke="none">
<path d="M730 2696 c-53 -14 -126 -62 -165 -108 -47 -55 -65 -106 -65 -184 0
-74 8 -96 95 -244 110 -189 136 -210 250 -218 63 -4 80 -1 126 21 100 46 139
106 139 212 0 71 -14 92 -16 22 -4 -178 -158 -262 -331 -180 -43 20 -98 92
-157 206 -42 80 -46 94 -46 158 0 84 19 127 82 185 59 54 122 78 192 72 93 -8
160 -78 223 -233 34 -84 36 -85 33 -18 -4 102 -58 218 -126 269 -38 29 -113
54 -158 53 -17 0 -51 -6 -76 -13z" id="node1" class="node"></path>
<path d="M1317 2343 c-4 -3 -7 -20 -6 -37 0 -29 1 -30 10 -8 15 39 57 26 102
-33 42 -56 107 -186 143 -285 90 -254 139 -369 183 -426 45 -60 80 -69 108
-28 15 23 18 51 18 185 0 143 2 160 21 185 21 28 70 52 82 39 4 -4 8 -84 9
-178 0 -95 6 -201 12 -237 29 -177 6 -245 -140 -410 -80 -91 -101 -130 -135
-257 -22 -82 -28 -126 -32 -265 -3 -105 -1 -168 5 -168 6 0 13 35 16 78 8 108
54 317 83 380 14 30 46 80 72 112 47 59 125 202 161 295 19 50 19 53 0 175
-12 86 -18 183 -19 312 0 212 1 208 -80 208 -34 0 -48 -6 -70 -30 -36 -39 -44
-97 -35 -245 5 -82 4 -115 -5 -120 -27 -16 -71 53 -166 259 -173 375 -255 506
-315 506 -8 0 -19 -3 -22 -7z" id="node2" class="node"></path>
<path d="M962 2260 c-33 -16 -34 -30 -2 -30 19 0 44 24 38 38 -1 4 -18 1 -36
-8z" id="node3" class="node"></path>
<path d="M389 2251 c-47 -38 -24 -158 76 -391 13 -30 28 -80 34 -110 66 -337
59 -322 231 -490 59 -58 116 -121 126 -140 27 -52 23 -172 -10 -280 -14 -47
-32 -107 -41 -135 l-15 -50 20 25 c48 58 149 219 170 269 16 41 21 68 18 107
-6 65 -40 110 -168 219 -150 129 -214 233 -304 492 -30 87 -71 205 -92 263
-42 119 -42 155 2 166 42 11 70 -21 161 -186 189 -344 274 -468 364 -536 80
-60 116 -69 244 -57 58 6 110 14 115 19 5 5 3 50 -5 108 -19 137 -1 286 48
398 27 59 49 83 72 74 30 -11 37 -55 20 -134 -20 -100 -19 -124 10 -221 13
-46 30 -121 36 -166 10 -72 10 -92 -5 -143 -10 -39 -16 -97 -16 -173 0 -77 -5
-133 -16 -170 -20 -67 -76 -179 -119 -239 -34 -48 -58 -90 -51 -90 9 0 143
209 171 268 17 34 35 62 40 62 6 0 10 56 10 148 0 136 2 150 23 186 22 38 23
43 12 125 -6 47 -23 135 -37 196 -24 100 -25 116 -14 185 18 119 15 166 -11
184 -34 24 -69 19 -104 -15 l-31 -30 -7 42 c-10 61 -32 102 -65 122 -30 18
-106 23 -115 8 -3 -4 17 -22 44 -39 68 -43 90 -81 90 -160 0 -69 -22 -135 -91
-273 -38 -76 -71 -109 -108 -109 -25 0 -80 47 -112 97 -111 169 -125 184 -186
198 -26 5 -33 3 -33 -8 0 -23 28 -47 55 -47 20 0 26 -7 35 -42 13 -48 66 -132
107 -169 117 -103 142 -110 194 -51 19 20 48 58 64 84 17 26 33 47 37 48 4 0
7 -17 6 -37 -1 -21 2 -73 6 -115 10 -91 7 -94 -89 -92 -101 2 -168 35 -256
124 -91 91 -119 135 -248 393 -55 109 -111 214 -126 233 -53 70 -121 92 -166
55z" id="node4" class="node"></path>
<path d="M771 2160 c-23 -11 -30 -19 -22 -24 21 -13 61 3 61 24 0 11 -1 20 -2
19 -2 -1 -18 -9 -37 -19z" id="node5" class="node"></path>
<path d="M919 2091 l-24 -20 23 -1 c12 0 25 7 29 15 9 25 -2 27 -28 6z" id="node6" class="node"></path>
<path d="M910 1902 c0 -4 30 -30 67 -58 38 -27 76 -57 85 -67 10 -9 23 -18 28
-20 9 -2 63 134 56 140 -3 4 -23 -35 -36 -69 -13 -37 -32 -35 -77 6 -41 36
-123 82 -123 68z" id="node7" class="node"></path>
<path d="M1580 1680 c40 -66 90 -178 101 -231 19 -86 6 -250 -25 -336 -19 -52
-27 -95 -29 -160 -3 -76 -8 -98 -40 -166 -20 -42 -45 -90 -56 -106 -14 -19
-21 -45 -21 -74 0 -86 -31 -127 -95 -127 -38 0 -42 30 -21 160 6 35 6 34 -16
-10 -12 -25 -24 -71 -26 -102 -4 -51 -2 -59 22 -83 30 -30 51 -28 102 11 40
30 64 81 64 137 0 35 10 60 45 119 59 99 95 196 95 258 0 38 9 68 34 118 98
194 61 397 -104 572 -41 44 -47 48 -30 20z" id="node8" class="node"></path>
</g>
<g transform="translate(0.000000,300.000000) scale(0.100000,-0.100000)" fill="#A4A4A4" stroke="none">

</g>
</svg>