<!--?xml version="1.0" standalone="no"?--><svg version="1.0" xmlns="http://www.w3.org/2000/svg" width="288.000000pt" height="300.000000pt" viewBox="0 0 288.000000 300.000000" preserveAspectRatio="xMidYMid meet">
<metadata>
  <rdf:rdf xmlns:rdf="http://www.w3.org/1999/02/22-rdf-syntax-ns#" xmlns:rdfs="http://www.w3.org/2000/01/rdf-schema#" xmlns:dc="http://purl.org/dc/elements/1.1/">
    <rdf:description dc:title="hand with cd" dc:publisher="Hiox" dc:date="2015-04-30" dc:format="image/svg+xml" dc:language="en">
      <dc:creator>
        <rdf:bag>
          <rdf:li>svgimages.com</rdf:li>
        </rdf:bag>
      </dc:creator>
    </rdf:description>
  </rdf:rdf>
</metadata>
<g transform="translate(0.000000,300.000000) scale(0.100000,-0.100000)" fill="#363535" stroke="none">
<path d="M1930 2876 c-141 -38 -234 -89 -328 -179 -109 -105 -175 -219 -210
-362 -25 -104 -26 -194 -2 -313 11 -53 20 -100 20 -103 0 -3 -26 -12 -57 -19
-32 -7 -67 -18 -78 -25 -18 -12 -74 -30 -262 -84 -99 -29 -127 -63 -181 -223
-23 -68 -62 -177 -88 -243 -25 -66 -68 -178 -95 -250 -58 -154 -127 -297 -177
-363 -59 -79 -190 -208 -319 -314 -68 -56 -123 -107 -123 -115 0 -8 5 -23 10
-34 10 -18 26 -19 446 -19 l435 0 62 60 c39 39 92 76 148 105 117 61 164 109
193 198 4 14 17 17 70 17 112 0 234 71 256 148 13 48 13 108 -1 133 -9 17 -4
26 31 62 53 52 61 75 59 157 -1 46 3 74 14 91 18 27 57 174 57 213 0 14 -5 37
-12 51 -6 14 -9 27 -7 30 3 2 43 -10 89 -27 80 -29 93 -31 230 -32 138 0 149
2 230 31 99 36 143 58 160 78 7 8 18 15 25 15 21 0 143 119 190 184 49 69 96
167 113 236 19 80 25 211 12 294 -43 284 -266 534 -531 596 -30 7 -67 16 -83
21 -54 17 -206 8 -296 -15z m398 -70 c279 -97 462 -350 462 -637 0 -125 -37
-268 -92 -357 -83 -136 -225 -246 -383 -299 -142 -47 -331 -36 -480 29 -27 12
-51 22 -52 23 -1 0 14 32 33 70 61 126 41 239 -48 273 -52 20 -98 9 -156 -38
-70 -54 -92 -55 -117 -4 -51 104 -65 169 -65 304 0 109 27 219 79 315 34 65
44 78 121 156 74 74 174 136 270 167 93 30 102 31 235 27 97 -2 134 -8 193
-29z m-557 -968 c18 -20 20 -32 16 -85 -9 -122 -105 -218 -238 -237 -66 -10
-84 -34 -97 -132 -11 -81 -42 -188 -81 -278 -59 -134 -193 -285 -272 -306 -65
-16 -71 -19 -65 -29 9 -15 74 5 128 39 28 17 52 29 53 28 1 -2 15 -27 30 -55
50 -97 31 -213 -46 -277 -17 -15 -64 -42 -103 -61 -43 -20 -99 -59 -138 -95
l-66 -60 -386 2 -386 3 75 59 c106 83 250 226 322 321 53 71 123 197 123 223
0 5 13 38 29 73 16 35 45 111 66 169 20 58 41 114 46 125 4 11 20 52 35 90 15
39 35 88 44 110 10 22 30 77 46 123 31 94 59 127 118 142 22 6 70 20 105 30
35 11 69 20 74 20 5 0 43 16 85 35 101 48 155 46 190 -5 22 -32 22 -35 6 -47
-26 -19 -31 -16 -45 22 -7 19 -17 35 -21 35 -11 0 -10 -28 2 -35 17 -10 11
-53 -7 -59 -38 -10 -80 -16 -127 -18 -30 -1 -71 -12 -105 -28 -31 -15 -74 -30
-96 -34 -52 -10 -110 -45 -96 -59 6 -6 15 -5 25 6 8 8 39 20 68 27 29 7 78 25
108 40 39 19 77 29 131 33 63 4 88 12 155 47 88 46 120 48 195 10 50 -26 74
-25 93 2 22 32 20 55 -9 83 -13 14 -20 25 -15 25 5 0 19 -10 31 -22z m-23 -46
c4 -44 -13 -48 -83 -16 -59 26 -60 26 -35 40 14 7 45 13 70 11 43 -2 45 -4 48
-35z m-50 -282 c48 -29 57 -60 43 -155 -20 -145 -100 -222 -202 -195 -69 19
-99 40 -99 72 0 15 4 29 8 32 5 3 14 36 21 75 8 45 18 72 28 75 19 8 81 -3 89
-15 3 -5 13 -9 22 -9 23 1 -26 39 -50 40 -28 0 -29 16 -3 44 23 25 77 55 100
56 6 0 25 -9 43 -20z m-158 -24 c0 -3 -4 -8 -10 -11 -5 -3 -10 -1 -10 4 0 6 5
11 10 11 6 0 10 -2 10 -4z m-9 -346 c38 -9 61 -9 96 -1 37 10 48 9 54 -1 13
-19 11 -65 -3 -91 -36 -63 -74 -88 -191 -127 -61 -20 -74 -21 -113 -10 -68 19
-71 30 -30 98 19 32 39 69 45 82 5 14 17 42 25 63 l17 38 24 -20 c14 -10 48
-24 76 -31z m-195 -235 c35 -18 76 -19 162 -4 60 11 65 10 86 -10 17 -17 21
-32 19 -72 -3 -58 -9 -68 -72 -111 -39 -26 -58 -32 -121 -36 -96 -6 -112 6
-142 106 -20 69 -20 75 -5 107 18 39 31 42 73 20z" id="node1" class="node" stroke-width="20"></path>
<path d="M2030 2329 c-56 -23 -110 -106 -110 -167 1 -62 63 -148 123 -171 104
-40 226 27 246 132 15 80 -8 137 -75 190 -32 25 -141 34 -184 16z m104 -119
c21 -8 26 -16 26 -43 0 -40 -15 -57 -52 -57 -48 0 -66 66 -26 94 27 19 21 18
52 6z" id="node2" class="node" stroke-width="20"></path>
























</g>
<g transform="translate(0.000000,300.000000) scale(0.100000,-0.100000)" fill="#FFFFFF" stroke="none">

<path d="M1990 2834 c-128 -25 -267 -99 -360 -193 -77 -78 -87 -91 -121 -156
-52 -96 -79 -206 -79 -315 0 -135 14 -200 65 -304 25 -51 47 -50 117 4 58 47
104 58 156 38 89 -34 109 -147 48 -273 -19 -38 -34 -70 -33 -70 1 -1 25 -11
52 -23 94 -41 174 -56 290 -56 92 0 123 5 190 27 158 53 300 163 383 299 55
89 92 232 92 357 0 287 -183 540 -462 637 -59 21 -96 27 -193 29 -66 2 -131 1
-145 -1z m224 -521 c67 -53 90 -110 75 -190 -20 -105 -142 -172 -246 -132 -60
23 -122 109 -123 171 0 61 54 144 110 167 43 18 152 9 184 -16z" id="node28" class="node" stroke-width="20"></path>
<path d="M2082 2204 c-40 -28 -22 -94 26 -94 37 0 52 17 52 57 0 27 -5 35 -26
43 -31 12 -25 13 -52 -6z" id="node29" class="node" stroke-width="20"></path>
<path d="M1755 1835 c29 -28 31 -51 9 -83 -19 -27 -43 -28 -93 -2 -75 38 -107
36 -195 -10 -67 -35 -92 -43 -155 -47 -54 -4 -92 -14 -131 -33 -30 -15 -79
-33 -108 -40 -29 -7 -60 -19 -68 -27 -10 -11 -19 -12 -25 -6 -14 14 44 49 96
59 22 4 65 19 96 34 34 16 75 27 105 28 47 2 89 8 127 18 18 6 24 49 7 59 -12
7 -13 35 -2 35 4 0 14 -16 21 -35 14 -38 19 -41 45 -22 16 12 16 15 -6 47 -35
51 -89 53 -190 5 -42 -19 -80 -35 -85 -35 -5 0 -39 -9 -74 -20 -35 -10 -83
-24 -105 -30 -59 -15 -87 -48 -118 -142 -16 -46 -36 -101 -46 -123 -9 -22 -29
-71 -44 -110 -15 -38 -31 -79 -35 -90 -5 -11 -26 -67 -46 -125 -21 -58 -50
-134 -66 -169 -16 -35 -29 -68 -29 -73 0 -26 -70 -152 -123 -223 -72 -95 -216
-238 -322 -321 l-75 -59 386 -3 386 -2 66 60 c39 36 95 75 138 95 39 19 86 46
103 61 77 64 96 180 46 277 -15 28 -29 53 -30 55 -1 1 -25 -11 -53 -28 -54
-34 -119 -54 -128 -39 -6 10 0 13 65 29 79 21 213 172 272 306 39 90 70 197
81 278 13 98 31 122 97 132 133 19 229 115 238 237 4 53 2 65 -16 85 -12 12
-26 22 -31 22 -5 0 2 -11 15 -25z" id="node30" class="node" stroke-width="20"></path>
<path d="M1630 1816 c-25 -14 -24 -14 35 -40 70 -32 87 -28 83 16 -3 31 -5 33
-48 35 -25 2 -56 -4 -70 -11z" id="node31" class="node" stroke-width="20"></path>
<path d="M1612 1515 c-37 -16 -84 -63 -76 -76 3 -5 13 -9 22 -9 24 -1 73 -39
50 -40 -9 0 -19 4 -22 9 -8 12 -70 23 -89 15 -10 -3 -20 -30 -28 -75 -7 -39
-16 -72 -21 -75 -4 -3 -8 -17 -8 -32 0 -32 30 -53 99 -72 102 -27 182 50 202
195 14 95 5 126 -43 155 -39 23 -43 24 -86 5z" id="node32" class="node" stroke-width="20"></path>
<path d="M1520 1479 c0 -5 5 -7 10 -4 6 3 10 8 10 11 0 2 -4 4 -10 4 -5 0 -10
-5 -10 -11z" id="node33" class="node" stroke-width="20"></path>
<path d="M1414 1153 c-8 -21 -20 -49 -25 -63 -6 -13 -26 -50 -45 -82 -41 -68
-38 -79 30 -98 39 -11 52 -10 113 10 117 39 155 64 191 127 14 26 16 72 3 91
-6 10 -17 11 -54 1 -55 -13 -132 1 -172 32 l-24 20 -17 -38z" id="node34" class="node" stroke-width="20"></path>
<path d="M1263 885 c-15 -32 -15 -38 5 -107 30 -100 46 -112 142 -106 63 4 82
10 121 36 63 43 69 53 72 111 2 40 -2 55 -19 72 -21 20 -26 21 -86 10 -86 -15
-127 -14 -162 4 -42 22 -55 19 -73 -20z" id="node35" class="node" stroke-width="20"></path>





</g>
</svg>