<!--?xml version="1.0" standalone="no"?--><svg version="1.0" xmlns="http://www.w3.org/2000/svg" width="300.000000pt" height="274.000000pt" viewBox="0 0 300.000000 274.000000" preserveAspectRatio="xMidYMid meet">
<metadata>
  <rdf:rdf xmlns:rdf="http://www.w3.org/1999/02/22-rdf-syntax-ns#" xmlns:rdfs="http://www.w3.org/2000/01/rdf-schema#" xmlns:dc="http://purl.org/dc/elements/1.1/">
    <rdf:description dc:title="Hand holding card blue" dc:publisher="Hiox" dc:date="2015-05-04" dc:format="image/svg+xml" dc:language="en">
      <dc:creator>
        <rdf:bag>
          <rdf:li>svgimages.com</rdf:li>
        </rdf:bag>
      </dc:creator>
    </rdf:description>
  </rdf:rdf>
</metadata>
<g transform="translate(0.000000,274.000000) scale(0.100000,-0.100000)" fill="#147F92" stroke="none">
<path d="M1364 2390 l-29 -5 -3 -227 -2 -226 -114 -62 c-63 -34 -123 -70 -133
-79 -10 -9 -56 -44 -103 -76 -47 -32 -129 -94 -183 -137 -53 -42 -120 -92
-147 -110 -80 -52 -82 -71 -45 -391 18 -150 18 -164 2 -270 -16 -105 -20 -116
-64 -182 -27 -38 -53 -77 -60 -85 -187 -235 -267 -344 -326 -442 -26 -43 -47
-82 -47 -88 0 -7 158 -10 469 -10 l470 0 55 73 c31 41 91 110 135 155 93 94
115 147 110 261 -6 143 -2 248 11 294 11 39 25 58 79 104 36 32 85 75 107 98
23 22 78 69 123 104 108 84 131 113 131 160 0 45 -32 91 -62 91 -32 0 -210
-98 -282 -156 -72 -58 -87 -65 -79 -35 7 27 42 50 219 141 87 46 161 86 164
90 3 3 29 20 59 36 58 31 101 86 101 129 0 35 -42 75 -78 75 -16 0 -58 -16
-93 -35 -67 -37 -185 -95 -194 -95 -3 0 -5 5 -5 10 0 17 39 50 60 50 18 0 50
13 217 92 24 11 52 31 63 45 l20 26 261 3 c143 2 264 6 270 9 15 10 12 655 -3
660 -18 7 -1038 11 -1074 5z m-34 -570 c0 -94 -17 -130 -78 -165 -40 -23 -41
-23 -71 -4 -36 21 -44 4 -12 -25 17 -16 15 -19 -54 -92 l-71 -75 -57 27 c-35
16 -65 23 -75 19 -14 -6 -13 -9 8 -15 14 -4 47 -21 75 -39 l50 -32 72 79 c71
78 140 138 149 129 7 -7 -85 -129 -125 -164 -20 -18 -44 -32 -55 -33 -11 0
-16 -5 -13 -14 3 -8 -2 -21 -12 -30 -16 -15 -24 -15 -73 -2 -30 8 -76 21 -102
30 -27 9 -51 14 -55 11 -9 -10 16 -21 105 -46 46 -13 84 -29 84 -35 0 -7 -25
-35 -56 -63 -58 -53 -68 -79 -16 -43 42 31 278 271 307 314 14 21 40 66 58
100 31 60 119 199 124 194 1 -1 -5 -26 -14 -56 l-16 -54 32 -28 c23 -21 42
-28 71 -28 36 0 41 3 60 41 12 23 19 43 17 45 -2 3 -10 -9 -17 -26 -17 -41
-41 -53 -77 -39 -66 25 -76 55 -41 125 19 38 26 44 54 44 63 0 81 -14 94 -73
11 -45 10 -62 -3 -103 -8 -27 -18 -62 -22 -77 -9 -45 -59 -127 -114 -188 -70
-79 -100 -152 -110 -269 -5 -52 -5 -125 0 -162 6 -49 4 -90 -8 -160 -11 -60
-17 -149 -18 -253 0 -200 -11 -235 -96 -329 -70 -76 -84 -79 -156 -40 -159 88
-360 276 -438 411 l-26 44 15 98 c20 122 20 201 1 361 -18 151 -19 247 -2 277
7 12 42 41 79 65 36 24 91 64 121 91 30 26 90 74 134 107 43 32 99 74 124 94
42 32 224 135 242 136 4 0 7 -36 7 -80z m544 -130 c-22 -21 -243 -120 -268
-120 -12 0 -16 6 -12 18 3 9 10 39 16 66 6 27 12 52 14 55 2 3 64 5 137 3 129
-3 132 -4 113 -22z m-2 -97 c45 -51 29 -98 -50 -151 -63 -42 -72 -47 -232
-127 -58 -29 -129 -69 -159 -89 l-54 -36 7 51 c4 28 14 63 23 78 29 44 108
141 116 141 20 0 147 56 202 89 33 20 69 42 80 48 29 17 50 16 67 -4z m-96
-310 c3 -16 7 -34 10 -41 7 -23 -20 -53 -121 -133 -55 -43 -140 -115 -190
-158 l-90 -80 -8 112 c-7 100 -6 113 9 122 9 6 44 32 78 58 34 27 88 63 121
79 33 17 71 39 84 49 14 11 40 19 62 19 34 0 39 -3 45 -27z" id="node1" class="node"></path>
<path d="M1330 1512 c0 -8 43 -32 57 -32 3 0 -2 9 -12 20 -18 20 -45 27 -45
12z" id="node2" class="node"></path>
<path d="M1290 1493 c0 -8 77 -43 93 -43 20 0 3 17 -33 33 -44 18 -60 21 -60
10z" id="node3" class="node"></path>
</g>
<g transform="translate(0.000000,274.000000) scale(0.100000,-0.100000)" fill="#FFFFFF" stroke="none">

<path d="M1221 1849 c-52 -28 -115 -66 -140 -85 -25 -20 -81 -62 -124 -94 -44
-33 -104 -81 -134 -107 -30 -27 -85 -67 -121 -91 -37 -24 -72 -53 -79 -65 -17
-30 -16 -126 2 -277 19 -160 19 -239 -1 -361 l-15 -98 26 -44 c78 -135 279
-323 438 -411 72 -39 86 -36 156 40 85 94 96 129 96 329 1 104 7 193 18 253
12 70 14 111 8 160 -5 37 -5 110 0 162 10 117 40 190 110 269 55 61 105 143
114 188 4 15 14 50 22 77 13 41 14 58 3 103 -13 59 -31 73 -94 73 -28 0 -35
-6 -54 -44 -35 -70 -25 -100 41 -125 36 -14 60 -2 77 39 7 17 15 29 17 26 2
-2 -5 -22 -17 -45 -19 -38 -24 -41 -60 -41 -29 0 -48 7 -71 28 l-32 28 16 54
c9 30 15 55 14 56 -5 5 -93 -134 -124 -194 -18 -34 -44 -79 -58 -100 -29 -43
-265 -283 -307 -314 -52 -36 -42 -10 16 43 31 28 56 56 56 63 0 6 -38 22 -84
35 -89 25 -114 36 -105 46 4 3 28 -2 55 -11 26 -9 72 -22 102 -30 49 -13 57
-13 73 2 10 9 15 22 12 30 -3 9 2 14 13 14 11 1 35 15 55 33 40 35 132 157
125 164 -9 9 -78 -51 -149 -129 l-72 -79 -50 32 c-28 18 -61 35 -75 39 -21 6
-22 9 -8 15 10 4 40 -3 75 -19 l57 -27 71 75 c69 73 71 76 54 92 -32 29 -24
46 12 25 30 -19 31 -19 71 4 61 35 78 71 78 165 0 44 -3 80 -7 80 -5 -1 -50
-24 -102 -51z m154 -349 c10 -11 15 -20 12 -20 -14 0 -57 24 -57 32 0 15 27 8
45 -12z m-25 -17 c36 -16 53 -33 33 -33 -16 0 -93 35 -93 43 0 11 16 8 60 -10z" id="node5" class="node"></path>
<path d="M1624 1709 c-2 -3 -8 -28 -14 -55 -6 -27 -13 -57 -16 -66 -4 -12 0
-18 12 -18 25 0 246 99 268 120 19 18 16 19 -113 22 -73 2 -135 0 -137 -3z" id="node6" class="node"></path>
<path d="M1805 1597 c-11 -6 -47 -28 -80 -48 -55 -33 -182 -89 -202 -89 -8 0
-87 -97 -116 -141 -9 -15 -19 -50 -23 -78 l-7 -51 54 36 c30 20 101 60 159 89
160 80 169 85 232 127 79 53 95 100 50 151 -17 20 -38 21 -67 4z" id="node7" class="node"></path>
<path d="M1669 1291 c-13 -10 -51 -32 -84 -49 -33 -16 -87 -52 -121 -79 -34
-26 -69 -52 -78 -58 -15 -9 -16 -22 -9 -122 l8 -112 90 80 c50 43 135 115 190
158 101 80 128 110 121 133 -3 7 -7 25 -10 41 -6 24 -11 27 -45 27 -22 0 -48
-8 -62 -19z" id="node8" class="node"></path>
</g>
</svg>