<!--?xml version="1.0" standalone="no"?--><svg version="1.0" xmlns="http://www.w3.org/2000/svg" width="288.000000pt" height="300.000000pt" viewBox="0 0 288.000000 300.000000" preserveAspectRatio="xMidYMid meet">
<metadata>
  <rdf:rdf xmlns:rdf="http://www.w3.org/1999/02/22-rdf-syntax-ns#" xmlns:rdfs="http://www.w3.org/2000/01/rdf-schema#" xmlns:dc="http://purl.org/dc/elements/1.1/">
    <rdf:description dc:title="hand holding home black" dc:publisher="Hiox" dc:date="2015-04-30" dc:format="image/svg+xml" dc:language="en">
      <dc:creator>
        <rdf:bag>
          <rdf:li>svgimages.com</rdf:li>
        </rdf:bag>
      </dc:creator>
    </rdf:description>
  </rdf:rdf>
</metadata>
<g transform="translate(0.000000,300.000000) scale(0.100000,-0.100000)" fill="#0E0E0E" stroke="none">
<path d="M1221 2126 c-146 -146 -202 -209 -198 -220 15 -38 50 -13 228 164 99
99 184 180 189 180 5 0 90 -81 190 -180 176 -176 212 -202 227 -165 3 11 -17
40 -62 85 l-67 70 5 52 c3 29 7 64 9 78 3 25 2 25 -89 30 l-92 5 -54 53 c-29
28 -59 52 -67 52 -9 0 -107 -92 -219 -204z" id="node1" class="node"></path>
<path d="M805 2310 c-3 -5 1 -23 10 -39 20 -40 19 -78 -7 -192 -13 -59 -18
-103 -13 -115 8 -20 9 -19 49 164 16 75 21 148 10 176 -7 18 -39 22 -49 6z" id="node2" class="node"></path>
<path d="M2026 2304 c-11 -28 -6 -101 10 -176 40 -179 41 -183 49 -165 4 9 -1
54 -11 100 -26 123 -28 170 -9 206 8 17 13 36 10 41 -10 16 -42 12 -49 -6z" id="node3" class="node"></path>
<path d="M741 2282 c-24 -44 -101 -273 -120 -352 -27 -119 -47 -406 -31 -454
8 -25 56 -80 161 -183 151 -148 188 -198 213 -282 12 -41 17 -47 56 -58 55
-16 312 -32 325 -21 6 5 12 55 13 111 3 85 0 114 -18 167 -45 134 -106 213
-241 313 -114 85 -162 142 -222 264 -53 111 -120 193 -154 193 -61 -1 -77 -85
-34 -175 25 -51 109 -202 162 -289 16 -27 28 -51 25 -53 -9 -9 -22 6 -46 54
-13 26 -39 69 -57 95 -50 69 -133 251 -133 291 0 20 9 46 21 61 18 23 28 27
63 24 41 -3 41 -3 53 42 6 25 16 63 22 85 22 85 7 176 -31 183 -9 2 -21 -6
-27 -16z" id="node4" class="node"></path>
<path d="M2090 2285 c-28 -33 -23 -124 13 -256 11 -42 14 -45 37 -39 53 14
100 -27 100 -87 0 -30 -73 -193 -123 -274 -12 -20 -39 -66 -60 -103 -21 -36
-43 -66 -48 -66 -11 0 39 103 52 108 5 2 9 8 9 14 0 6 10 25 23 42 13 17 45
76 72 131 39 77 50 111 50 147 0 50 -20 77 -58 78 -35 0 -101 -82 -154 -192
-60 -125 -101 -172 -235 -275 -111 -85 -166 -152 -211 -255 -30 -69 -32 -80
-32 -195 0 -69 4 -126 10 -131 13 -11 287 6 333 21 29 9 38 19 43 43 15 78 53
130 208 286 86 86 162 172 170 190 11 27 11 63 1 208 -6 96 -13 177 -15 181
-2 3 -11 38 -19 77 -13 65 -93 299 -117 343 -12 23 -32 24 -49 4z" id="node5" class="node"></path>
<path d="M873 2177 c-6 -29 -20 -95 -32 -147 -24 -110 -24 -110 -12 -110 5 0
15 26 21 58 6 31 19 89 30 127 21 75 25 111 12 119 -4 2 -13 -19 -19 -47z" id="node6" class="node"></path>
<path d="M1986 2209 c-5 -17 0 -54 12 -100 12 -41 26 -100 32 -131 6 -32 16
-58 21 -58 11 0 12 -12 -11 100 -41 199 -46 218 -54 189z" id="node7" class="node"></path>
<path d="M1282 2057 l-152 -153 0 -177 0 -177 100 0 100 0 0 134 c0 113 2 135
16 140 9 3 51 6 94 6 43 0 85 -3 94 -6 14 -5 16 -27 16 -140 l0 -134 94 0 c82
0 95 2 99 18 2 9 5 89 6 176 l2 159 -153 154 c-84 84 -155 153 -158 153 -3 0
-74 -69 -158 -153z" id="node8" class="node"></path>
<path d="M892 2080 c0 -14 2 -19 5 -12 2 6 2 18 0 25 -3 6 -5 1 -5 -13z" id="node9" class="node"></path>
<path d="M1982 2080 c0 -14 2 -19 5 -12 2 6 2 18 0 25 -3 6 -5 1 -5 -13z" id="node10" class="node"></path>
<path d="M882 2025 c0 -16 2 -22 5 -12 2 9 2 23 0 30 -3 6 -5 -1 -5 -18z" id="node11" class="node"></path>
<path d="M1992 2025 c0 -16 2 -22 5 -12 2 9 2 23 0 30 -3 6 -5 -1 -5 -18z" id="node12" class="node"></path>
<path d="M863 1951 c-18 -56 -15 -85 3 -36 8 22 13 48 12 58 -2 12 -8 3 -15
-22z" id="node13" class="node"></path>
<path d="M2000 1969 c0 -15 7 -42 15 -60 19 -46 20 -8 0 46 -12 34 -14 36 -15
14z" id="node14" class="node"></path>
<path d="M933 936 c-4 -6 -18 -32 -30 -58 l-21 -46 51 -13 c56 -14 345 -18
409 -6 71 14 57 67 -24 90 -29 9 -109 18 -178 21 -69 3 -142 10 -163 15 -26 6
-39 5 -44 -3z" id="node15" class="node"></path>
<path d="M1900 939 c-19 -5 -100 -13 -180 -17 -91 -6 -159 -15 -182 -25 -37
-16 -58 -51 -40 -69 28 -28 352 -33 459 -6 l41 10 -23 50 c-30 64 -33 67 -75
57z" id="node16" class="node"></path>
</g>
<g transform="translate(0.000000,300.000000) scale(0.100000,-0.100000)" fill="#A3A3A3" stroke="none">

</g>
</svg>