<!--?xml version="1.0" standalone="no"?--><svg version="1.0" xmlns="http://www.w3.org/2000/svg" width="300.000000pt" height="222.000000pt" viewBox="0 0 300.000000 222.000000" preserveAspectRatio="xMidYMid meet">
<metadata>
  <rdf:rdf xmlns:rdf="http://www.w3.org/1999/02/22-rdf-syntax-ns#" xmlns:rdfs="http://www.w3.org/2000/01/rdf-schema#" xmlns:dc="http://purl.org/dc/elements/1.1/">
    <rdf:description dc:title="fist holding wrench" dc:publisher="Hiox" dc:date="2015-05-04" dc:format="image/svg+xml" dc:language="en">
      <dc:creator>
        <rdf:bag>
          <rdf:li>svgimages.com</rdf:li>
        </rdf:bag>
      </dc:creator>
    </rdf:description>
  </rdf:rdf>
</metadata>
<g transform="translate(0.000000,222.000000) scale(0.100000,-0.100000)" fill="#141414" stroke="none">
<path d="M2420 2135 c-25 -8 -62 -28 -83 -46 -44 -36 -87 -115 -87 -158 0 -49
-65 -90 -200 -128 -123 -34 -130 -33 -130 20 0 45 -18 71 -67 96 -30 15 -97
14 -139 -4 -25 -10 -41 -12 -54 -5 -43 23 -127 3 -164 -39 -16 -17 -30 -21
-86 -21 -76 0 -120 -22 -155 -77 -11 -18 -26 -32 -33 -33 -59 -1 -142 -92
-142 -155 0 -31 0 -31 -92 -53 -51 -12 -120 -22 -153 -22 -57 1 -63 3 -109 45
-86 78 -192 95 -287 46 -53 -27 -99 -75 -149 -154 l-37 -58 16 -44 c26 -72 46
-75 176 -19 122 53 116 54 156 -31 37 -80 26 -96 -107 -144 l-79 -29 -3 -50
c-3 -47 -1 -52 25 -65 83 -43 266 -52 339 -16 44 21 104 87 104 115 0 18 48
73 79 88 14 7 41 16 59 19 l32 7 0 -49 c0 -38 19 -94 96 -276 l96 -228 -6
-161 c-4 -88 -9 -191 -12 -227 l-6 -66 32 -5 c18 -3 34 0 36 6 2 6 7 105 11
221 l8 210 25 3 c50 5 140 25 140 31 -1 25 -19 32 -56 22 -22 -6 -55 -11 -74
-11 -36 0 -36 1 -75 93 -21 50 -51 121 -67 156 -24 56 -28 76 -28 161 0 106 3
113 57 124 26 6 34 4 43 -14 10 -19 17 -20 97 -15 88 5 292 29 373 43 38 6 46
12 53 39 5 17 20 36 33 41 16 8 25 23 29 49 10 59 13 63 42 63 46 0 60 14 44
43 -11 21 -18 24 -56 20 -38 -5 -47 -2 -84 32 -22 21 -41 44 -41 52 0 7 -12
25 -26 40 -14 14 -29 35 -33 47 -9 24 -3 49 10 41 5 -4 6 1 3 9 -8 22 0 20 44
-9 20 -13 52 -27 70 -31 18 -4 35 -11 38 -15 3 -5 14 -4 25 2 11 6 38 7 63 4
34 -5 45 -12 49 -28 67 -309 70 -328 59 -413 -9 -63 -16 -88 -34 -106 -25 -26
-254 -305 -314 -381 l-35 -45 -45 15 c-25 8 -47 13 -49 11 -2 -2 -11 -21 -20
-41 l-16 -38 66 -29 65 -29 0 -191 0 -190 125 0 126 0 -6 48 c-3 26 -14 129
-25 230 l-21 182 37 68 c53 97 115 208 154 275 18 33 34 69 35 80 2 12 6 40 9
62 4 22 11 68 16 102 8 51 7 76 -10 149 -15 64 -18 89 -9 95 6 3 48 14 92 24
101 22 161 16 261 -24 86 -34 159 -40 205 -16 78 40 184 208 185 293 1 41 -2
48 -32 69 l-34 22 -72 -49 c-95 -65 -116 -73 -143 -52 -25 20 -76 119 -68 132
3 5 50 35 105 67 90 52 100 60 100 87 0 37 -34 92 -63 100 -40 11 -181 5 -227
-9z m188 -44 c36 -2 26 -15 -44 -56 -37 -21 -80 -50 -96 -63 -27 -23 -30 -30
-24 -69 14 -105 93 -213 154 -213 16 0 62 21 107 49 44 27 81 46 83 41 4 -11
-45 -107 -76 -148 -34 -45 -100 -82 -146 -82 -56 0 -97 22 -148 79 -87 96
-133 231 -109 318 26 96 120 155 236 147 22 -1 50 -3 63 -3z m-762 -242 c14
-12 20 -99 8 -112 -13 -12 -144 70 -144 90 0 36 100 52 136 22z m-168 -23 c14
-13 14 -20 4 -34 -63 -88 -68 -127 -22 -191 l30 -41 -27 -11 c-15 -6 -38 -8
-50 -6 -13 2 -23 1 -23 -3 0 -14 40 -18 76 -8 20 5 39 7 42 3 4 -3 5 -36 4
-73 -2 -53 -7 -71 -24 -84 -21 -18 -64 -23 -85 -10 -6 4 -28 84 -47 177 -36
166 -54 230 -55 193 -1 -10 9 -63 21 -119 l21 -102 -23 -19 c-13 -11 -36 -22
-52 -25 -15 -3 -28 -9 -28 -14 0 -14 23 -10 65 11 22 11 40 20 41 20 5 0 24
-92 24 -115 0 -42 -41 -75 -93 -75 l-44 0 -67 193 c-36 105 -66 200 -66 210 0
65 88 106 165 77 23 -9 30 -5 65 31 37 40 42 41 86 36 25 -2 53 -12 62 -21z
m474 -112 c12 -26 1 -43 -30 -44 -22 0 -33 43 -14 58 23 18 31 15 44 -14z
m-826 -159 c23 -66 39 -124 36 -129 -2 -4 -21 -15 -41 -24 -25 -11 -31 -17
-19 -19 9 -2 30 3 46 11 l29 15 17 -57 c18 -56 18 -56 -4 -74 -12 -10 -35 -18
-51 -18 -24 0 -34 8 -57 46 -15 26 -52 86 -83 135 -53 82 -56 91 -49 131 4 24
11 51 15 61 11 25 55 47 90 44 29 -2 31 -6 71 -122z m1002 56 c9 -5 -12 -10
-55 -14 -37 -3 -77 -7 -87 -9 -24 -4 -33 19 -9 25 32 8 138 7 151 -2z m-1687
-61 c86 -45 181 -212 183 -324 1 -72 -37 -129 -102 -158 -39 -18 -59 -20 -134
-15 -83 5 -131 18 -112 29 5 3 43 20 85 37 93 38 112 57 112 110 0 78 -93 221
-143 221 -12 0 -62 -16 -112 -36 -49 -20 -92 -34 -95 -30 -10 9 67 115 104
143 72 55 137 62 214 23z m448 -106 c6 -15 10 -29 7 -31 -2 -2 -30 -11 -61
-19 -63 -17 -79 -11 -73 27 3 22 34 36 109 48 3 1 11 -11 18 -25z m81 -107 c0
-7 -38 -21 -97 -35 -53 -13 -115 -32 -137 -43 -43 -21 -56 -23 -56 -11 0 14
64 42 165 71 116 34 125 35 125 18z" id="node1" class="node"></path>
<path d="M1840 1630 c-23 -7 -23 -8 -3 -9 12 -1 25 4 28 9 3 6 5 10 3 9 -2 -1
-14 -5 -28 -9z" id="node2" class="node"></path>
</g>
<g transform="translate(0.000000,222.000000) scale(0.100000,-0.100000)" fill="#A5A5A5" stroke="none">

<path d="M2467 2089 c-83 -19 -138 -68 -158 -142 -24 -87 22 -222 109 -318
119 -133 251 -99 346 89 15 30 26 57 24 62 -2 5 -39 -14 -83 -41 -45 -28 -91
-49 -107 -49 -61 0 -140 108 -154 213 -6 39 -3 46 24 69 16 13 59 42 96 63 70
41 80 54 44 56 -13 0 -41 2 -63 3 -22 2 -57 -1 -78 -5z" id="node4" class="node"></path>


<path d="M2108 1728 c-19 -15 -8 -58 14 -58 31 1 42 18 30 44 -13 29 -21 32
-44 14z" id="node7" class="node"></path>

<path d="M2177 1613 c-24 -6 -15 -29 9 -25 10 2 50 6 87 9 43 4 64 9 55 14
-13 9 -119 10 -151 2z" id="node9" class="node"></path>
<path d="M497 1566 c-20 -7 -52 -25 -70 -39 -37 -28 -114 -134 -104 -143 3 -4
46 10 95 30 50 20 100 36 112 36 50 0 143 -143 143 -221 0 -53 -19 -72 -112
-110 -42 -17 -80 -34 -85 -37 -19 -11 29 -24 112 -29 111 -7 166 13 208 77 39
58 37 123 -5 227 -65 161 -187 248 -294 209z" id="node10" class="node"></path>
<path d="M1015 1457 c-41 -10 -51 -16 -53 -36 -6 -38 10 -44 73 -27 31 8 59
17 61 19 6 6 -17 57 -25 56 -3 0 -28 -6 -56 -12z" id="node11" class="node"></path>
<path d="M1045 1319 c-101 -29 -165 -57 -165 -71 0 -12 13 -10 56 11 22 11 84
30 137 43 59 14 97 28 97 35 0 17 -9 16 -125 -18z" id="node12" class="node"></path>
</g>
</svg>