<!--?xml version="1.0" standalone="no"?--><svg version="1.0" xmlns="http://www.w3.org/2000/svg" width="300.000000pt" height="149.000000pt" viewBox="0 0 300.000000 149.000000" preserveAspectRatio="xMidYMid meet">
<metadata>
  <rdf:rdf xmlns:rdf="http://www.w3.org/1999/02/22-rdf-syntax-ns#" xmlns:rdfs="http://www.w3.org/2000/01/rdf-schema#" xmlns:dc="http://purl.org/dc/elements/1.1/">
    <rdf:description dc:title="meta-title" dc:publisher="Hiox" dc:date="2015-11-28" dc:format="image/svg+xml" dc:language="en">
      <dc:creator>
        <rdf:bag>
          <rdf:li>svgimages.com</rdf:li>
        </rdf:bag>
      </dc:creator>
    </rdf:description>
  </rdf:rdf>
</metadata>
<g transform="translate(0.000000,149.000000) scale(0.100000,-0.100000)" fill="#030303" stroke="none">
<path d="M1152 1448 c-8 -8 -12 -50 -12 -126 0 -66 -4 -111 -9 -107 -5 3 -21
41 -36 84 -27 81 -45 108 -66 96 -13 -9 -10 -28 26 -163 36 -137 24 -197 -24
-112 -22 39 -58 59 -81 45 -7 -4 -4 -15 8 -33 44 -65 44 -76 11 -172 -17 -50
-35 -90 -40 -90 -5 0 -9 47 -9 104 0 113 -4 136 -26 136 -21 0 -34 -43 -34
-108 0 -70 -10 -132 -20 -132 -5 0 -18 30 -31 67 -12 38 -28 81 -36 96 -13 26
-13 31 2 47 16 17 15 19 -2 28 -26 13 -41 5 -69 -39 -49 -78 -60 -5 -19 126
27 89 31 120 13 131 -16 10 -35 -20 -60 -98 -31 -96 -44 -88 -40 26 4 89 -6
136 -27 136 -17 0 -31 -63 -31 -139 0 -87 -12 -120 -29 -80 -6 13 -21 56 -33
94 -16 47 -29 71 -40 73 -24 5 -24 -33 1 -123 11 -39 16 -74 12 -78 -5 -5 -23
16 -40 47 -36 62 -48 73 -63 58 -6 -6 -1 -31 17 -73 15 -35 31 -82 37 -104 5
-22 19 -72 29 -112 24 -89 24 -99 -1 -106 -11 -3 -29 -21 -41 -41 -45 -78 -57
-20 -23 111 37 138 37 138 21 151 -20 17 -30 2 -59 -87 -36 -112 -48 -104 -48
33 0 92 -3 116 -14 116 -25 0 -33 -25 -40 -125 -4 -55 -11 -104 -15 -108 -5
-5 -19 22 -31 60 -34 107 -41 123 -57 123 -24 0 -25 -25 -4 -108 12 -44 21
-86 21 -92 0 -22 -30 11 -56 62 -25 49 -54 64 -54 27 0 -11 13 -52 30 -91 16
-38 30 -80 30 -93 0 -12 12 -63 26 -111 28 -99 29 -71 -12 -411 -13 -112 -24
-210 -24 -218 0 -12 19 -15 110 -15 l110 0 0 276 0 277 46 49 c25 27 59 77 74
111 16 34 29 54 30 44 0 -10 -18 -158 -39 -330 -22 -172 -42 -338 -46 -370
l-6 -57 137 0 136 0 -8 288 c-16 517 -13 572 31 572 16 0 53 -84 65 -150 6
-30 20 -84 31 -118 l21 -64 -26 -226 c-15 -125 -30 -244 -33 -265 l-6 -37 120
0 120 0 -5 264 -5 265 46 41 c28 25 63 74 89 123 l43 82 3 -95 c2 -52 -2 -198
-7 -325 -6 -126 -11 -258 -11 -292 l0 -63 140 0 140 0 -5 38 c-12 88 -85 754
-84 774 0 16 7 8 23 -28 13 -28 44 -72 70 -99 l47 -48 -3 -318 -3 -319 228 0
227 0 0 238 0 238 46 44 46 45 -6 -45 c-3 -25 -10 -94 -16 -155 -6 -60 -18
-162 -26 -225 -7 -63 -14 -121 -14 -127 0 -10 35 -13 141 -13 l141 0 -6 113
c-14 244 -27 610 -22 614 2 3 20 -28 39 -69 18 -40 51 -91 72 -113 52 -55 57
-91 49 -337 l-7 -208 112 0 112 0 -6 33 c-12 68 -45 389 -45 434 0 27 9 77 20
113 11 36 23 89 27 118 l6 54 26 -34 c14 -18 43 -49 64 -69 l38 -35 -3 -307
-3 -307 127 0 128 0 -5 28 c-15 80 -65 516 -65 558 0 27 11 84 25 127 14 43
25 87 25 99 0 11 16 55 35 98 19 43 35 85 35 94 0 30 -30 16 -57 -27 -66 -103
-79 -98 -46 18 25 87 25 115 0 115 -15 0 -28 -26 -62 -124 -31 -90 -42 -82
-50 31 -7 106 -17 143 -39 143 -20 0 -26 -32 -26 -142 0 -54 -4 -98 -8 -98 -5
0 -19 33 -31 73 -27 85 -44 112 -66 104 -20 -8 -19 -29 5 -107 24 -80 24 -79
1 -73 -13 3 -23 -2 -30 -16 -7 -13 -22 -21 -36 -21 -14 0 -25 1 -25 3 0 1 7
26 14 55 15 56 12 82 -8 82 -16 0 -27 -25 -56 -122 -13 -43 -26 -78 -30 -78
-11 0 -20 55 -20 120 0 76 -10 120 -27 127 -26 10 -33 -19 -33 -136 0 -69 -4
-111 -9 -105 -5 5 -18 41 -30 79 l-21 70 30 60 c18 37 25 64 20 69 -15 15 -57
-10 -75 -44 -8 -16 -22 -30 -30 -30 -23 0 -19 53 14 168 30 103 31 132 5 132
-16 0 -35 -35 -59 -110 -28 -88 -35 -82 -35 31 0 76 -4 111 -14 125 -25 33
-38 3 -47 -113 -4 -59 -8 -109 -8 -111 -1 -2 -6 -2 -13 0 -6 2 -25 44 -42 93
-17 49 -37 90 -43 93 -30 9 -26 -44 13 -185 11 -41 -14 -24 -48 32 -62 104
-87 75 -35 -42 41 -91 54 -165 32 -183 -8 -6 -26 -47 -40 -91 -15 -43 -31 -79
-36 -79 -4 0 -10 53 -11 117 -3 99 -6 118 -19 121 -24 4 -31 -21 -38 -136 -3
-56 -10 -103 -16 -103 -5 0 -22 36 -37 81 -15 45 -32 88 -37 94 -6 7 -8 29 -4
49 9 56 -19 48 -56 -17 -28 -50 -48 -73 -56 -65 -1 2 8 44 20 94 24 94 23 118
-4 113 -11 -2 -26 -34 -45 -96 -17 -51 -35 -91 -40 -89 -6 2 -14 50 -17 111
-6 109 -15 133 -43 123 -13 -5 -16 -26 -16 -122 0 -63 -4 -115 -9 -115 -5 0
-22 37 -37 83 -14 45 -31 88 -37 95 -6 8 -3 28 12 61 11 28 21 59 21 70 0 35
-28 23 -51 -21 -25 -50 -49 -79 -59 -73 -4 2 3 44 16 92 23 83 24 123 4 123
-16 0 -37 -43 -60 -123 -13 -44 -28 -76 -34 -74 -7 2 -13 47 -17 110 -3 76 -9
112 -20 122 -12 12 -17 13 -27 3z m218 -463 c19 -74 19 -135 1 -135 -4 0 -17
18 -29 39 -12 22 -27 41 -34 43 -7 3 -6 21 6 60 9 31 16 67 16 80 1 37 16 4
40 -87z m-622 -42 c6 -27 14 -58 18 -70 10 -37 -13 -27 -42 18 -23 36 -24 44
-14 70 7 16 16 29 19 29 4 0 13 -21 19 -47z m372 -86 c0 -23 -4 -36 -10 -32
-20 12 -51 -7 -76 -46 -13 -22 -29 -37 -34 -34 -17 10 -11 82 12 160 l22 75
43 -42 c36 -35 43 -49 43 -81z m580 14 c18 -73 12 -99 -14 -59 -34 53 -39 76
-26 108 7 17 15 29 17 26 3 -2 13 -36 23 -75z m294 -49 c-5 -59 -35 -132 -54
-132 -20 0 -18 56 5 144 14 53 25 100 26 104 0 4 7 -6 15 -23 10 -21 12 -49 8
-93z m271 32 c28 -118 9 -170 -34 -94 -14 24 -32 42 -48 46 -22 6 -24 10 -19
38 7 33 66 101 77 89 3 -5 14 -40 24 -79z m355 27 c0 -53 -13 -73 -29 -43 -10
19 7 92 21 92 5 0 8 -22 8 -49z m-106 -26 c3 -9 -1 -18 -10 -22 -19 -7 -26 0
-18 21 8 20 20 21 28 1z m-850 -156 c4 -25 15 -74 26 -110 25 -80 25 -123 0
-329 -11 -91 -20 -171 -20 -179 0 -53 -13 29 -39 255 -36 300 -37 343 -15 409
16 47 17 47 29 24 7 -13 15 -44 19 -70z" id="node1" class="node" stroke-width="20"></path>
</g>
<g transform="translate(0.000000,149.000000) scale(0.100000,-0.100000)" fill="#F938BC" stroke="none">










</g>
</svg>