<!--?xml version="1.0" standalone="no"?--><svg version="1.0" xmlns="http://www.w3.org/2000/svg" width="277.000000pt" height="300.000000pt" viewBox="0 0 277.000000 300.000000" preserveAspectRatio="xMidYMid meet">
<metadata>
  <rdf:rdf xmlns:rdf="http://www.w3.org/1999/02/22-rdf-syntax-ns#" xmlns:rdfs="http://www.w3.org/2000/01/rdf-schema#" xmlns:dc="http://purl.org/dc/elements/1.1/">
    <rdf:description dc:title="Hand Holding Smartphone" dc:publisher="Hiox" dc:date="2015-05-02" dc:format="image/svg+xml" dc:language="en">
      <dc:creator>
        <rdf:bag>
          <rdf:li>svgimages.com</rdf:li>
        </rdf:bag>
      </dc:creator>
    </rdf:description>
  </rdf:rdf>
</metadata>
<g transform="translate(0.000000,300.000000) scale(0.100000,-0.100000)" fill="#131313" stroke="none">
<path d="M480 2960 c-19 -19 -20 -33 -20 -313 l0 -293 -43 -11 c-23 -7 -52
-22 -64 -35 -21 -22 -86 -186 -220 -553 -81 -222 -112 -328 -113 -380 0 -58
40 -219 96 -385 l49 -145 -4 -200 c-2 -110 -4 -231 -5 -270 l-1 -70 434 -3
c283 -1 438 1 445 8 5 5 15 65 22 131 l11 122 39 32 39 33 140 -5 c77 -2 159
-9 183 -15 24 -6 91 -43 150 -81 123 -81 268 -156 317 -164 39 -6 84 -50 148
-143 24 -36 51 -64 59 -64 8 1 57 33 109 71 52 39 182 134 289 212 107 79 198
149 203 156 6 12 -41 104 -116 221 -14 23 -33 69 -41 101 -9 33 -32 99 -51
148 -127 315 -296 563 -405 596 -47 14 -102 2 -140 -31 -28 -24 -30 -24 -66
-5 -16 8 -37 15 -46 15 -14 0 -18 9 -18 40 0 51 -19 97 -59 143 l-32 36 21 38
c11 21 20 44 20 52 0 34 -26 94 -56 130 l-34 39 65 37 c101 59 128 135 83 225
-49 94 -126 112 -248 57 l-75 -34 -3 270 c-2 234 -5 273 -19 289 -15 17 -46
18 -520 18 -490 0 -504 -1 -523 -20z m668 -109 c8 -5 12 -17 10 -27 -3 -17
-15 -19 -147 -22 -153 -3 -179 4 -160 39 9 17 22 19 147 19 75 0 143 -4 150
-9z m327 -491 l1 -325 -88 -91 c-60 -62 -90 -101 -94 -123 -5 -24 -11 -31 -23
-25 -82 33 -142 24 -186 -28 -25 -30 -27 -38 -23 -98 6 -73 18 -102 89 -201
27 -38 50 -74 52 -80 1 -8 -94 -11 -332 -10 -184 1 -336 3 -339 5 -2 3 -4 96
-4 208 l-1 203 52 145 c57 163 63 218 31 285 -11 23 -36 56 -55 74 l-35 32 2
172 c1 95 3 175 5 180 3 4 217 6 476 5 l472 -3 0 -325z m317 27 c14 -13 28
-40 32 -61 12 -65 -12 -90 -154 -162 -69 -35 -128 -64 -132 -64 -10 0 -10 211
0 226 12 19 165 84 198 84 19 0 41 -9 56 -23z m-1290 -119 c30 -15 67 -72 73
-113 5 -33 -4 -71 -50 -205 -80 -231 -82 -237 -67 -260 9 -14 12 -99 12 -309
0 -250 2 -292 16 -305 14 -14 69 -16 460 -16 360 0 444 -2 444 -13 0 -7 -11
-36 -25 -65 -22 -45 -29 -52 -62 -57 -109 -18 -136 -28 -179 -70 -39 -37 -44
-47 -44 -86 0 -25 7 -55 17 -68 18 -27 22 -21 -60 -85 -25 -20 -28 -29 -37
-130 -6 -60 -13 -113 -16 -118 -3 -4 -179 -8 -391 -8 l-386 0 7 38 c12 74 18
387 8 437 -5 28 -35 129 -66 225 -69 219 -84 300 -67 375 12 55 158 463 246
690 61 159 89 183 167 143z m1191 -213 c20 -19 42 -53 48 -75 11 -37 10 -42
-12 -67 -51 -55 -270 -223 -292 -223 -49 0 -103 67 -91 114 6 25 227 251 267
273 33 18 41 16 80 -22z m70 -277 c19 -24 31 -52 34 -81 5 -44 5 -46 -43 -81
-33 -25 -55 -34 -69 -30 -11 3 -43 8 -72 11 -44 5 -59 1 -99 -22 -31 -18 -49
-24 -56 -17 -23 23 -2 46 217 236 38 32 51 30 88 -16z m-501 -40 c15 -11 77
-92 136 -181 343 -512 352 -524 368 -483 3 8 -52 100 -131 216 -129 192 -135
203 -119 221 22 25 79 42 115 35 46 -9 93 -60 195 -213 91 -136 119 -163 131
-127 3 9 -169 276 -204 316 -13 15 -11 19 26 44 33 21 49 26 81 21 57 -7 87
-37 181 -174 45 -68 89 -123 96 -123 34 0 20 36 -58 151 l-83 122 28 22 c40
32 70 35 114 13 63 -32 177 -188 262 -358 56 -112 125 -283 138 -345 6 -29 39
-97 76 -160 37 -60 66 -113 66 -116 0 -9 -517 -389 -529 -389 -5 0 -25 21 -44
48 -59 78 -118 129 -160 136 -52 10 -180 77 -304 160 -131 88 -189 106 -338
106 -107 0 -115 1 -144 26 -41 35 -42 76 -1 114 46 43 105 55 285 55 155 0
160 1 159 21 0 18 -70 120 -391 572 -92 130 -104 154 -105 203 -1 85 79 120
154 67z m-203 -454 c65 -54 28 -154 -58 -154 -32 0 -44 6 -65 31 -39 47 -30
105 21 133 41 22 67 19 102 -10z m431 -298 c16 -25 30 -47 30 -50 0 -9 -98 -7
-103 2 -4 7 30 92 38 92 2 0 18 -20 35 -44z" id="node1" class="node"></path>
</g>
<g transform="translate(0.000000,300.000000) scale(0.100000,-0.100000)" fill="#A3A3A3" stroke="none">

<path d="M851 2841 c-19 -35 7 -42 160 -39 132 3 144 5 147 22 2 10 -2 22 -10
27 -7 5 -75 9 -150 9 -125 0 -138 -2 -147 -19z" id="node3" class="node"></path>
<path d="M527 2683 c-2 -5 -4 -85 -5 -180 l-2 -172 35 -32 c19 -18 44 -51 55
-74 32 -67 26 -122 -31 -285 l-52 -145 1 -203 c0 -112 2 -205 4 -208 3 -2 155
-4 339 -5 238 -1 333 2 332 10 -2 6 -25 42 -52 80 -71 99 -83 128 -89 201 -4
60 -2 68 23 98 44 52 104 61 186 28 12 -6 18 1 23 25 4 22 34 61 94 123 l88
91 -1 325 0 325 -472 3 c-259 1 -473 -1 -476 -5z" id="node4" class="node"></path>
<path d="M1625 2373 c-44 -20 -83 -41 -87 -47 -10 -15 -10 -226 0 -226 4 0 63
29 132 64 93 47 130 71 143 94 37 62 -9 152 -77 152 -17 0 -67 -17 -111 -37z" id="node5" class="node"></path>
<path d="M406 2268 c-15 -14 -43 -70 -71 -143 -88 -227 -234 -635 -246 -690
-17 -75 -2 -156 67 -375 31 -96 61 -197 66 -225 10 -50 4 -363 -8 -437 l-7
-38 386 0 c212 0 388 4 391 8 3 5 10 58 16 118 9 101 12 110 37 130 82 64 78
58 60 85 -10 13 -17 43 -17 68 0 39 5 49 44 86 43 42 70 52 179 70 33 5 40 12
62 57 14 29 25 58 25 65 0 11 -84 13 -444 13 -391 0 -446 2 -460 16 -14 13
-16 55 -16 305 0 210 -3 295 -12 309 -15 23 -13 29 67 260 46 134 55 172 50
205 -15 95 -115 161 -169 113z" id="node6" class="node"></path>
<path d="M1613 2077 c-40 -22 -261 -248 -267 -273 -12 -47 42 -114 91 -114 22
0 241 168 292 223 22 25 23 30 12 67 -11 39 -73 110 -95 110 -6 -1 -21 -6 -33
-13z" id="node7" class="node"></path>
<path d="M1675 1794 c-219 -190 -240 -213 -217 -236 7 -7 25 -1 56 17 40 23
55 27 99 22 29 -3 61 -8 72 -11 14 -4 36 5 69 30 48 35 48 37 43 81 -5 46 -50
116 -78 120 -8 2 -27 -9 -44 -23z" id="node8" class="node"></path>
<path d="M1164 1759 c-35 -13 -56 -46 -56 -88 1 -49 13 -73 105 -203 321 -452
391 -554 391 -572 1 -20 -4 -21 -159 -21 -180 0 -239 -12 -285 -55 -41 -38
-40 -79 1 -114 29 -25 37 -26 144 -26 149 0 207 -18 338 -106 124 -83 252
-150 304 -160 42 -7 101 -58 160 -136 19 -27 39 -48 44 -48 12 0 529 380 529
389 0 3 -29 56 -66 116 -37 63 -70 131 -76 160 -13 62 -82 233 -138 345 -85
170 -199 326 -262 358 -44 22 -74 19 -114 -13 l-28 -22 83 -122 c78 -115 92
-151 58 -151 -7 0 -51 55 -96 123 -94 137 -124 167 -181 174 -32 5 -48 0 -81
-21 -37 -25 -39 -29 -26 -44 35 -40 207 -307 204 -316 -12 -36 -40 -9 -131
127 -102 153 -149 204 -195 213 -36 7 -93 -10 -115 -35 -16 -18 -10 -29 119
-221 79 -116 134 -208 131 -216 -16 -41 -25 -29 -368 483 -59 89 -121 170
-136 181 -32 23 -71 31 -98 21z" id="node9" class="node"></path>
<path d="M957 1294 c-51 -28 -60 -86 -21 -133 21 -25 33 -31 65 -31 86 0 123
100 58 154 -35 29 -61 32 -102 10z" id="node10" class="node"></path>

</g>
</svg>