<!--?xml version="1.0" standalone="no"?-->

<svg version="1.0" xmlns="http://www.w3.org/2000/svg" width="300.000000pt" height="300.000000pt" viewBox="0 0 300.000000 300.000000" preserveAspectRatio="xMidYMid meet">
<g transform="translate(0.000000,300.000000) scale(0.100000,-0.100000)" fill="#A9507D" stroke="none">
<path d="M1382 2394 c-8 -4 4 -21 34 -50 25 -24 48 -42 52 -40 12 7 44 -22 37
-33 -10 -17 17 -40 35 -29 12 8 28 2 63 -22 26 -17 47 -35 47 -38 0 -4 -35
-43 -79 -86 -58 -58 -83 -77 -97 -72 -23 6 -59 -18 -49 -33 3 -6 14 -11 24
-11 31 0 68 -37 75 -75 4 -19 11 -35 16 -35 11 0 24 38 22 65 -1 13 25 43 78
90 44 38 83 71 87 72 4 2 23 -20 40 -47 29 -44 31 -50 16 -59 -15 -8 -15 -10
-1 -24 11 -12 18 -13 27 -4 8 8 15 6 26 -9 8 -10 13 -25 10 -31 -2 -7 5 -19
16 -27 11 -7 31 -28 44 -46 20 -27 26 -30 31 -16 3 9 3 31 -1 49 -4 17 -7 48
-7 68 0 26 -4 36 -15 35 -8 0 -20 7 -26 16 -9 14 -7 25 7 49 l19 32 -31 -6
c-29 -6 -31 -4 -52 49 l-23 55 56 57 c79 80 103 152 51 152 -37 0 -62 -15
-126 -78 l-58 -56 -59 29 c-53 25 -59 30 -50 47 14 27 4 34 -26 18 -30 -16
-78 0 -69 23 3 10 -5 14 -28 14 -18 0 -49 3 -68 6 -19 4 -41 4 -48 1z" id="node1" class="node"></path>
<path d="M1295 2273 c-46 -10 -133 -49 -175 -78 -40 -28 -46 -37 -53 -81 -11
-67 11 -177 36 -182 10 -2 39 16 70 44 28 25 79 64 112 86 58 38 61 41 92 128
l33 90 -48 -1 c-26 -1 -56 -3 -67 -6z" id="node2" class="node"></path>
<path d="M1866 2147 c3 -9 20 -19 37 -23 18 -4 52 -28 82 -58 81 -81 117 -206
97 -332 -14 -83 -66 -191 -114 -237 -38 -36 -40 -41 -34 -80 4 -23 9 -44 13
-47 3 -3 31 23 62 57 64 72 96 143 117 267 30 169 -32 344 -149 425 -51 35
-121 52 -111 28z" id="node3" class="node"></path>
<path d="M1003 2082 c-76 -103 -111 -242 -92 -365 9 -64 14 -75 25 -66 8 6 14
17 14 23 0 14 47 104 72 135 10 13 16 32 13 42 -3 10 1 32 10 49 13 25 14 38
6 62 -6 17 -11 57 -11 89 0 33 -4 59 -8 59 -5 0 -18 -13 -29 -28z" id="node4" class="node"></path>
<path d="M1295 2031 c-17 -10 -54 -39 -82 -65 -47 -42 -53 -52 -53 -87 0 -22
-5 -47 -11 -57 -9 -15 -7 -26 14 -58 26 -40 150 -174 162 -174 3 0 26 -13 50
-30 50 -34 60 -36 69 -14 5 13 15 15 51 11 42 -6 48 -4 97 36 64 52 181 194
172 209 -10 15 -275 3 -343 -16 -57 -16 -94 -10 -105 19 -9 24 -7 142 4 195 4
25 7 46 6 47 -1 1 -15 -6 -31 -16z" id="node5" class="node"></path>
<path d="M1015 1736 c-71 -127 -72 -171 -8 -256 62 -83 93 -101 163 -96 54 4
73 10 155 46 22 10 50 21 62 24 23 7 39 39 28 56 -3 6 -26 19 -50 30 -50 23
-178 144 -221 210 -23 35 -36 46 -61 48 -29 3 -34 -1 -68 -62z" id="node6" class="node"></path>
<path d="M1776 1755 c-30 -48 -105 -129 -188 -203 -28 -25 -45 -48 -42 -56 12
-31 191 -35 251 -6 42 20 64 54 92 143 17 51 26 143 15 150 -5 3 -29 8 -54 12
l-45 6 -29 -46z" id="node7" class="node"></path>


<path d="M1530 1445 c-9 -11 -28 -15 -69 -13 -52 2 -107 -14 -184 -54 -10 -5
-40 -12 -67 -15 -53 -6 -60 -28 -11 -39 14 -4 31 -10 36 -14 17 -13 114 -30
169 -30 86 0 156 18 242 61 72 36 138 94 124 108 -10 10 -50 9 -56 0 -5 -9
-76 -6 -145 7 -16 3 -31 -1 -39 -11z" id="node10" class="node"></path>

<path d="M784 1326 c-10 -16 -12 -30 -7 -40 24 -43 232 -261 276 -289 265
-171 245 -163 486 -207 90 -16 169 -34 176 -40 7 -6 18 -24 25 -40 7 -17 17
-30 22 -30 9 0 42 19 149 85 49 30 81 46 86 42 2 -3 -8 -12 -24 -20 -71 -36
-234 -140 -231 -145 2 -4 10 -19 17 -34 8 -16 18 -28 22 -28 15 0 281 164 286
176 6 15 -25 64 -41 64 -16 0 -98 135 -117 193 -18 52 -57 100 -101 123 -35
18 -88 18 -158 -2 l-56 -16 -74 41 c-41 22 -85 41 -98 41 -70 0 -106 -76 -48
-101 14 -5 2 -6 -34 -2 -71 8 -182 45 -229 76 -94 65 -156 82 -181 52 -6 -8
-9 -22 -6 -32 8 -23 192 -144 271 -178 77 -33 106 -48 102 -52 -2 -1 -39 12
-83 30 -99 41 -281 159 -295 191 -13 27 2 66 26 66 28 0 15 17 -44 59 -68 47
-94 51 -117 17z m884 -243 c-15 -2 -42 -2 -60 0 -18 2 -6 4 27 4 33 0 48 -2
33 -4z m107 -29 l30 -26 -29 17 c-16 10 -41 21 -55 25 l-26 8 25 1 c14 1 39
-11 55 -25z" id="node12" class="node" stroke-width="20"></path>
</g>
<g transform="translate(0.000000,300.000000) scale(0.100000,-0.100000)" fill="#D47252" stroke="none">



</g>
</svg>