<!--?xml version="1.0" standalone="no"?--><svg version="1.0" xmlns="http://www.w3.org/2000/svg" width="203.000000pt" height="300.000000pt" viewBox="0 0 203.000000 300.000000" preserveAspectRatio="xMidYMid meet">
<metadata>
  <rdf:rdf xmlns:rdf="http://www.w3.org/1999/02/22-rdf-syntax-ns#" xmlns:rdfs="http://www.w3.org/2000/01/rdf-schema#" xmlns:dc="http://purl.org/dc/elements/1.1/">
    <rdf:description dc:title="match vector" dc:publisher="Hiox" dc:date="2015-05-02" dc:format="image/svg+xml" dc:language="en">
      <dc:creator>
        <rdf:bag>
          <rdf:li>svgimages.com</rdf:li>
        </rdf:bag>
      </dc:creator>
    </rdf:description>
  </rdf:rdf>
</metadata>
<g transform="translate(0.000000,300.000000) scale(0.100000,-0.100000)" fill="#1F201C" stroke="none">
<path d="M1661 2889 c-15 -127 -39 -204 -104 -344 -49 -103 -52 -115 -52 -190
l0 -79 -90 -53 c-217 -127 -233 -135 -256 -123 -11 7 -63 16 -115 21 -87 8
-99 7 -162 -16 -42 -15 -106 -28 -173 -34 -61 -5 -120 -16 -138 -25 -17 -9
-74 -58 -125 -110 -82 -80 -111 -101 -217 -157 -155 -81 -203 -125 -219 -204
-16 -75 -7 -129 40 -245 79 -199 111 -434 92 -676 -7 -86 -7 -143 -2 -148 15
-15 18 -6 35 88 38 221 0 552 -86 748 -38 87 -46 140 -30 205 21 85 47 112
176 183 104 57 131 78 228 176 123 125 140 134 259 134 54 0 94 7 149 26 90
31 206 32 236 1 17 -18 16 -20 -27 -58 -53 -46 -116 -80 -136 -72 -8 3 -17 16
-20 29 -9 35 -24 29 -24 -8 0 -42 -86 -128 -146 -146 -68 -20 -130 -16 -149
11 -17 22 -17 22 -11 -9 5 -24 0 -39 -23 -72 -54 -73 -120 -98 -179 -68 -42
21 -41 5 1 -28 17 -15 38 -31 46 -38 26 -21 -2 -159 -35 -172 -7 -3 -26 0 -42
6 -16 6 -38 8 -48 4 -18 -8 -17 -9 6 -19 14 -6 44 -19 67 -29 75 -32 249 -20
396 28 59 20 87 58 117 164 31 109 47 147 92 223 42 70 66 88 53 40 -15 -55
-11 -66 30 -90 52 -30 73 -29 107 4 27 26 28 26 28 5 0 -25 -76 -198 -123
-282 -17 -30 -58 -98 -92 -150 l-62 -95 -11 -111 c-16 -158 -62 -279 -157
-409 -26 -36 -37 -73 -24 -81 14 -8 36 13 74 68 17 26 35 45 38 41 11 -10 8
-106 -4 -165 -6 -29 -34 -96 -62 -148 -28 -52 -64 -120 -79 -150 -33 -65 -98
-252 -91 -262 10 -18 20 -5 37 49 28 89 67 171 151 313 42 71 86 153 97 182
28 72 35 208 15 266 -14 41 -14 46 9 102 13 33 24 66 24 74 0 25 21 29 36 7
18 -25 70 -36 105 -22 40 15 97 68 127 120 23 39 27 57 27 122 0 55 -5 83 -18
102 -9 14 -17 35 -17 46 0 11 -12 44 -26 74 l-26 53 39 105 c74 196 81 281 26
327 -15 13 -23 26 -18 28 6 2 93 51 195 109 150 85 192 105 225 105 213 0 252
214 113 624 -27 83 -54 157 -58 164 -3 8 -12 -32 -19 -89z m63 -86 c63 -189
83 -350 54 -420 l-11 -28 -6 29 c-14 68 -87 61 -156 -16 -49 -54 -64 -55 -69
-3 -5 43 11 100 51 184 58 123 73 171 85 269 6 50 12 92 14 92 1 0 18 -48 38
-107z m-6 -435 c3 -22 -4 -32 -35 -52 -21 -14 -50 -28 -65 -31 -15 -4 -32 -13
-39 -21 -13 -16 -29 -19 -29 -5 0 10 38 57 87 109 40 41 76 41 81 0z m-220
-169 c-2 -16 -38 -41 -133 -95 -71 -41 -159 -88 -195 -105 -36 -17 -82 -40
-102 -50 -32 -17 -38 -17 -38 -4 0 15 11 23 170 121 52 32 129 79 170 106 83
53 134 64 128 27z m-310 -285 c28 -20 28 -56 0 -89 -27 -31 -80 -37 -105 -12
-14 13 -14 20 -3 49 24 63 65 82 108 52z m-208 -66 c-29 -56 -49 -78 -72 -78
-13 0 -18 7 -18 25 0 32 -17 32 -41 1 -20 -26 -102 -80 -135 -90 -14 -4 -28
-1 -37 9 -21 20 -24 19 -31 -8 -9 -39 -45 -76 -98 -103 -41 -21 -52 -23 -59
-12 -15 23 -10 34 26 46 30 12 115 93 115 112 0 4 26 10 59 13 68 6 132 32
180 73 29 24 119 65 129 58 2 -1 -6 -22 -18 -46z m-75 -166 c-4 -21 -8 -38 -9
-40 -2 -1 -27 3 -55 9 -65 14 -131 0 -174 -37 -35 -30 -147 -88 -147 -77 0 5
14 14 30 21 17 8 55 36 84 63 40 36 62 49 84 49 17 0 59 15 94 33 78 42 104
36 93 -21z m-65 -77 c15 -18 5 -64 -16 -72 -8 -3 -27 0 -42 8 -15 7 -31 15
-35 17 -5 3 -4 -5 2 -16 25 -46 -1 -72 -71 -72 -53 0 -128 18 -128 31 0 10
101 76 152 99 52 24 121 26 138 5z m-308 -143 l18 -32 -46 0 c-45 0 -46 1 -39
27 13 52 39 54 67 5z m620 -63 c3 -31 1 -34 -29 -37 -32 -3 -37 -10 -61 -87
-12 -40 -5 -55 24 -55 31 0 31 -17 0 -31 -59 -27 -111 45 -69 95 28 31 78 106
98 145 14 28 19 31 26 19 5 -9 10 -31 11 -49z m-14 -93 c4 -33 -13 -56 -40
-56 -18 0 -20 5 -14 32 12 60 48 77 54 24z m82 -66 c0 -38 -6 -65 -20 -88 -46
-75 -60 1 -19 104 27 70 39 66 39 -16z m-194 -188 c-12 -11 -26 12 -26 41 l1
32 15 -34 c8 -19 12 -36 10 -39z m70 43 c-25 -19 -46 -19 -46 0 0 10 10 15 33
15 30 -1 31 -1 13 -15z" id="node1" class="node"></path>
<path d="M995 1659 c4 -5 15 -9 25 -9 10 0 26 -10 34 -22 9 -12 18 -19 21 -17
10 11 -21 39 -53 48 -20 6 -30 6 -27 0z" id="node2" class="node"></path>
<path d="M1006 1605 c10 -8 24 -14 29 -14 6 0 1 6 -9 14 -11 8 -24 15 -30 15
-5 0 -1 -7 10 -15z" id="node3" class="node"></path>
<path d="M995 1565 c11 -8 28 -22 38 -30 23 -20 33 -19 16 1 -7 8 -26 22 -43
30 -28 14 -29 14 -11 -1z" id="node4" class="node"></path>
</g>
<g transform="translate(0.000000,300.000000) scale(0.100000,-0.100000)" fill="#A8A9A3" stroke="none">

<path d="M1672 2818 c-12 -98 -27 -146 -85 -269 -40 -84 -56 -141 -51 -184 5
-52 20 -51 69 3 69 77 142 84 156 16 l6 -29 11 28 c17 39 15 152 -3 239 -14
65 -83 288 -89 288 -2 0 -8 -42 -14 -92z" id="node6" class="node"></path>
<path d="M1637 2368 c-49 -52 -87 -99 -87 -109 0 -14 16 -11 29 5 7 8 24 17
39 21 15 3 44 17 65 31 31 20 38 30 35 52 -5 41 -41 41 -81 0z" id="node7" class="node"></path>
<path d="M1370 2172 c-41 -27 -118 -74 -170 -106 -159 -98 -170 -106 -170
-121 0 -13 6 -13 38 4 20 10 66 33 102 50 36 17 124 64 195 105 95 54 131 79
133 95 6 37 -45 26 -128 -27z" id="node8" class="node"></path>
<path d="M1112 1913 c-10 -10 -25 -33 -32 -51 -11 -29 -11 -36 3 -49 25 -25
78 -19 105 12 28 33 28 69 0 89 -29 21 -51 20 -76 -1z" id="node9" class="node"></path>





<path d="M1102 1327 c-7 -8 -15 -28 -18 -45 -6 -27 -4 -32 14 -32 27 0 44 23
40 56 -3 32 -20 41 -36 21z" id="node15" class="node"></path>



</g>
</svg>