<!--?xml version="1.0" encoding="utf-8"?-->
<!-- Generator: Adobe Illustrator 15.0.0, SVG Export Plug-In . SVG Version: 6.00 Build 0)  -->

<svg xmlns="http://www.w3.org/2000/svg" xmlns:xlink="http://www.w3.org/1999/xlink" width="500px" height="500px" viewBox="0 0 500 500">
<path fill="#EF4223" d="M472.082,255.449c0,8.971-7.273,16.244-16.245,16.244h-73.15l-43.438,55.018l-0.11-55.018h-64.025
	c-8.971,0-16.244-7.273-16.244-16.244V101.8c0-8.972,7.273-16.245,16.244-16.245h180.724c8.972,0,16.245,7.273,16.245,16.245
	V255.449z" id="path-0" style="position: relative;"></path>
<path fill="#5FC8D3" d="M27.38,342.991c0,8.971,7.274,16.244,16.245,16.244h73.151l43.437,55.018l0.111-55.018h64.025
	c8.971,0,16.245-7.273,16.245-16.244V189.342c0-8.972-7.273-16.245-16.245-16.245H43.625c-8.971,0-16.245,7.273-16.245,16.245
	V342.991z" id="path-1" style="position: relative;"></path>
<path fill="#FFFFFF" d="M472.097,145.833l-40.145,6.955c0,0-8.851-13.909-20.862-17.07c-12.012-3.161-36.667-1.264-56.266-23.075
	c0,0-8.221,5.689-0.317,15.488s19.282,12.96,24.973,15.489c5.689,2.529,8.853,7.271,11.063,12.96
	c2.212,5.689,9.798,21.811,22.759,20.547c0,0-14.856,7.27-24.655-19.283c0,0-5.057,6.323-30.029,11.064
	c-24.973,4.742-47.103,5.69-52.159,9.167s-2.846,8.219,3.161,10.431c6.008,2.212,38.565-4.741,42.358-5.69
	c3.793-0.948,8.535,2.212,3.793,2.212s-43.938,5.374-50.576,6.955s-14.226,7.271-4.742,13.276c0,0,37.3-2.844,55.95-8.218
	c0,0,3.161,2.213-0.947,3.161c-4.109,0.948-41.094,4.109-44.255,5.69s-4.108,11.695,4.742,12.644
	c8.851,0.949,42.355-6.638,46.782-6.954c4.426-0.316-0.632,3.162-4.109,3.162c-3.477,0-31.294,3.161-32.559,5.057
	c-1.264,1.896-6.006,11.063,2.846,12.328c8.851,1.265,59.426-6.322,83.766-13.276c24.342-6.954,29.399-14.541,30.979-21.811
	l28.58-5.523L472.097,145.833z" id="path-2" style="position: relative;"></path>
<path fill="#FFFFFF" d="M27.511,290.321l38.697-14.481c0,0,0.588-16.475,9.345-25.284c8.756-8.809,30.977-19.659,36.831-48.392
	c0,0,9.969,0.743,8.118,13.195c-1.852,12.452-10.063,20.941-13.689,26.003c-3.625,5.063-3.951,10.753-2.976,16.779
	c0.974,6.025,2.597,23.769-9.219,29.243c0,0,16.492-1.256,11.495-29.113c0,0,7.562,2.89,31.496-5.669
	c23.935-8.558,43.497-18.947,49.617-18.51c6.121,0.437,6.618,5.647,2.558,10.596c-4.06,4.95-35.656,15.442-39.406,16.545
	c-3.75,1.104-6.239,6.229-2.15,3.827c4.089-2.4,40.609-17.615,47.133-19.615s15.949-0.936,10.813,9.047
	c0,0-33.603,16.437-52.407,21.247c0,0-1.605,3.509,2.418,2.246c4.023-1.264,37.515-17.269,41.042-17.506
	c3.526-0.237,9.465,8.003,2.314,13.305c-7.151,5.3-39.885,15.725-43.86,17.694c-3.978,1.969,2.146,2.406,5.143,0.646
	c2.999-1.761,28.586-13.123,30.636-12.128c2.05,0.995,10.782,6.498,3.791,12.071c-6.992,5.572-54.444,24.642-78.954,30.974
	c-24.51,6.331-32.714,2.35-37.758-3.119L27.401,337.71L27.511,290.321z" id="path-3" style="position: relative;"></path>
</svg>
