<!--?xml version="1.0" standalone="no"?-->

<svg version="1.0" xmlns="http://www.w3.org/2000/svg" width="300.000000pt" height="300.000000pt" viewBox="0 0 300.000000 300.000000" preserveAspectRatio="xMidYMid meet">
<g transform="translate(0.000000,300.000000) scale(0.100000,-0.100000)" fill="#101010" stroke="none">
<path d="M1844 2700 c-22 -11 -51 -35 -65 -53 l-24 -32 -5 -430 c-5 -424 -5
-430 -25 -425 -11 3 -51 5 -90 5 -80 0 -119 -21 -151 -81 -10 -19 -20 -34 -22
-34 -2 0 -25 7 -51 16 -38 12 -57 13 -87 5 -59 -16 -102 -47 -121 -86 -15 -32
-20 -35 -43 -28 -14 4 -55 8 -91 8 -57 -1 -71 -4 -104 -29 -68 -52 -66 -34
-63 -664 l3 -567 28 -58 c40 -80 112 -151 194 -190 l68 -32 305 0 305 0 68 32
c82 39 154 110 194 190 l28 58 3 1145 2 1145 -27 43 c-50 77 -146 103 -229 62z
m115 -71 c63 -22 61 -2 61 -719 0 -427 -3 -650 -10 -650 -5 0 -10 3 -10 8 0 9
-96 78 -140 100 l-35 17 -3 576 c-2 641 -3 637 61 664 39 17 37 17 76 4z
m-270 -953 c41 -22 51 -55 51 -171 l0 -105 -94 0 c-76 0 -95 3 -100 16 -12 30
-6 198 8 223 26 47 84 63 135 37z m-267 -111 c29 -27 42 -70 36 -126 l-3 -34
-95 0 -95 0 -3 61 c-3 57 -1 64 28 93 41 40 93 43 132 6z m-308 -85 c14 -5 35
-24 46 -42 19 -31 20 -51 20 -296 0 -248 -1 -266 -20 -292 -43 -61 -130 -55
-162 10 -16 31 -18 68 -18 298 0 161 4 271 10 282 12 22 56 49 82 50 9 0 28
-4 42 -10z m719 -194 c71 -35 149 -118 171 -182 13 -40 16 -102 16 -396 0
-319 -2 -352 -19 -398 -36 -94 -99 -154 -206 -196 -45 -17 -77 -19 -295 -19
-218 0 -250 2 -295 19 -107 42 -170 102 -206 196 -16 43 -19 77 -19 245 0 107
2 195 3 195 2 0 19 -7 36 -16 44 -22 111 -14 162 21 37 24 42 25 58 11 26 -23
87 -46 123 -46 18 0 57 14 87 30 48 27 56 28 71 15 25 -22 86 -45 122 -45 40
0 104 32 136 68 49 56 54 182 10 249 -40 60 -85 76 -233 82 -141 7 -168 16
-227 78 -26 27 -58 90 -58 113 0 8 72 11 253 8 l252 -3 58 -29z m-539 -175
c19 -21 118 -71 140 -71 19 0 26 -23 26 -85 0 -97 -39 -149 -112 -147 -23 1
-41 10 -60 32 -28 30 -28 33 -28 160 0 72 4 130 8 130 5 0 17 -9 26 -19z m409
-105 c32 -29 43 -83 27 -131 -15 -44 -48 -67 -97 -67 -29 0 -43 7 -65 31 -26
29 -28 38 -28 111 l0 80 69 0 c58 0 72 -4 94 -24z" id="node1" class="node"></path>
</g>
<g transform="translate(0.000000,300.000000) scale(0.100000,-0.100000)" fill="#AAAAAA" stroke="none">

<path d="M1883 2625 c-64 -27 -63 -23 -61 -664 l3 -576 35 -17 c44 -22 140
-91 140 -100 0 -5 5 -8 10 -8 7 0 10 223 10 650 0 717 2 697 -61 719 -39 13
-37 13 -76 -4z" id="node3" class="node"></path>
<path d="M1591 1676 c-40 -22 -50 -54 -51 -153 0 -50 3 -98 6 -107 5 -13 24
-16 100 -16 l94 0 0 105 c0 59 -5 115 -12 130 -22 48 -88 68 -137 41z" id="node4" class="node"></path>
<path d="M1290 1559 c-29 -29 -31 -36 -28 -93 l3 -61 95 0 95 0 3 34 c9 89
-32 151 -100 151 -28 0 -44 -8 -68 -31z" id="node5" class="node"></path>
<path d="M1028 1474 c-15 -8 -32 -23 -38 -34 -6 -11 -10 -121 -10 -282 0 -230
2 -267 18 -298 32 -65 119 -71 162 -10 19 26 20 44 20 292 0 245 -1 265 -20
296 -31 50 -81 64 -132 36z" id="node6" class="node"></path>
<path d="M1270 1310 c0 -23 32 -86 58 -113 59 -62 86 -71 227 -78 148 -6 193
-22 233 -82 44 -67 39 -193 -10 -249 -32 -36 -96 -68 -136 -68 -36 0 -97 23
-122 45 -15 13 -23 12 -71 -15 -30 -16 -69 -30 -87 -30 -36 0 -97 23 -123 46
-16 14 -21 13 -58 -11 -51 -35 -118 -43 -162 -21 -17 9 -34 16 -36 16 -1 0 -3
-88 -3 -195 0 -168 3 -202 19 -245 36 -94 99 -154 206 -196 45 -17 77 -19 295
-19 218 0 250 2 295 19 107 42 170 102 206 196 17 46 19 79 19 398 0 294 -3
356 -16 396 -22 64 -100 147 -171 182 l-58 29 -252 3 c-181 3 -253 0 -253 -8z" id="node7" class="node"></path>
<path d="M1260 1000 c0 -127 0 -130 28 -160 19 -22 37 -31 60 -32 73 -2 112
50 112 147 0 62 -7 85 -26 85 -22 0 -121 50 -140 71 -9 10 -21 19 -26 19 -4 0
-8 -58 -8 -130z" id="node8" class="node"></path>
<path d="M1540 950 c0 -73 2 -82 28 -111 50 -56 138 -36 162 36 16 48 5 102
-27 131 -22 20 -36 24 -94 24 l-69 0 0 -80z" id="node9" class="node"></path>
</g>
</svg>