<!--?xml version="1.0" standalone="no"?--><svg version="1.0" xmlns="http://www.w3.org/2000/svg" width="286.000000pt" height="300.000000pt" viewBox="0 0 286.000000 300.000000" preserveAspectRatio="xMidYMid meet">
<metadata>
  <rdf:rdf xmlns:rdf="http://www.w3.org/1999/02/22-rdf-syntax-ns#" xmlns:rdfs="http://www.w3.org/2000/01/rdf-schema#" xmlns:dc="http://purl.org/dc/elements/1.1/">
    <rdf:description dc:title="justice hand" dc:publisher="Hiox" dc:date="2015-04-30" dc:format="image/svg+xml" dc:language="en">
      <dc:creator>
        <rdf:bag>
          <rdf:li>svgimages.com</rdf:li>
        </rdf:bag>
      </dc:creator>
    </rdf:description>
  </rdf:rdf>
</metadata>
<g transform="translate(0.000000,300.000000) scale(0.100000,-0.100000)" fill="#36322A" stroke="none">
<path d="M1382 2490 c-49 -20 -60 -104 -18 -139 12 -10 16 -29 15 -75 -1 -33
-4 -51 -6 -40 -2 12 -13 30 -23 39 -16 15 -22 15 -35 5 -8 -7 -15 -23 -15 -36
0 -32 -18 -75 -42 -101 -14 -16 -21 -39 -25 -90 -10 -152 -9 -166 20 -224 30
-63 36 -136 13 -172 -8 -12 -17 -38 -21 -57 -4 -19 -14 -43 -23 -53 -8 -9 -17
-42 -20 -72 -2 -30 -5 -56 -6 -57 0 -1 -80 -4 -176 -7 -156 -5 -175 -8 -178
-23 -2 -11 3 -18 12 -18 9 0 16 -2 16 -4 0 -7 -23 -73 -35 -101 -7 -16 -17
-43 -21 -60 -4 -16 -10 -34 -14 -40 -4 -5 -24 -59 -44 -120 -21 -60 -44 -123
-51 -140 -8 -16 -17 -43 -21 -60 -4 -16 -17 -49 -29 -72 -22 -40 -22 -42 -5
-80 34 -76 152 -163 221 -163 15 0 29 -7 33 -15 5 -13 59 -15 406 -15 374 0
400 1 401 18 1 9 0 58 0 107 -2 88 -2 89 14 60 67 -125 226 -188 342 -136 51
24 115 87 144 142 18 37 19 43 6 51 -9 4 -25 34 -37 66 -11 31 -25 66 -30 77
-13 28 -53 135 -90 235 -17 47 -35 94 -40 105 -13 27 -50 128 -50 136 0 4 9 9
21 12 12 3 19 12 17 19 -4 10 -52 14 -215 16 l-210 2 -10 73 c-6 39 -20 98
-32 129 l-22 57 22 53 c13 29 33 65 45 80 19 24 22 39 23 134 0 67 -3 112 -10
121 -7 7 -13 23 -14 36 -1 12 -3 27 -4 33 -1 13 -43 32 -81 36 -24 3 -25 6
-28 86 -2 71 0 87 18 109 59 75 -17 169 -108 133z m-25 -303 c-3 -23 -17 -51
-37 -73 -29 -34 -31 -40 -25 -88 4 -28 11 -59 16 -68 5 -9 9 -27 9 -39 0 -26
16 -81 37 -125 16 -33 27 -314 12 -314 -28 0 -81 224 -66 282 3 11 -5 34 -18
54 -30 44 -40 110 -27 176 7 36 7 59 -1 75 -9 19 -5 30 21 66 17 24 34 57 37
73 13 58 15 61 31 39 10 -13 14 -33 11 -58z m191 -64 c15 -9 21 -20 18 -30 -4
-9 -1 -22 6 -30 8 -10 11 -51 10 -121 -1 -88 -5 -110 -21 -133 -11 -14 -27
-43 -35 -64 -9 -21 -19 -35 -23 -32 -3 4 -5 36 -5 72 l1 65 -40 0 c-48 0 -79
-14 -80 -38 0 -14 -2 -14 -10 3 -26 54 37 99 121 88 54 -7 52 12 -2 24 -44 9
-105 -6 -119 -29 -4 -6 -11 -8 -17 -4 -18 11 0 47 37 72 32 21 42 23 98 18 69
-7 90 9 26 20 -67 11 -98 6 -135 -19 -46 -31 -48 -31 -48 0 0 17 12 32 44 55
37 25 55 30 100 30 73 0 72 15 0 24 -52 6 -60 4 -106 -25 -27 -17 -51 -29 -54
-26 -13 12 8 44 48 75 40 31 45 32 103 26 33 -3 70 -13 83 -21z m-245 -645
c12 -57 13 -68 1 -68 -16 0 -34 60 -34 115 0 55 15 34 33 -47z m114 0 c-3 -7
-5 -2 -5 12 0 14 2 19 5 13 2 -7 2 -19 0 -25z m-147 -43 c17 -10 11 -25 -10
-25 -17 0 -20 6 -19 48 1 45 1 46 10 15 5 -18 14 -35 19 -38z m260 5 c0 -16
-4 -30 -10 -30 -11 0 -14 43 -3 53 11 12 13 8 13 -23z m-542 -105 c127 -26
154 -37 146 -60 -3 -11 -13 -47 -21 -80 -8 -33 -20 -71 -28 -85 -7 -14 -20
-50 -30 -80 l-18 -54 -18 54 c-16 49 -94 255 -114 303 -9 21 -5 21 83 2z m938
-22 c-8 -21 -33 -90 -56 -153 -24 -63 -53 -144 -66 -180 -12 -36 -36 -103 -53
-150 -17 -47 -31 -86 -31 -87 0 -2 -4 -3 -10 -3 -5 0 -10 9 -10 20 0 11 -11
53 -25 94 -14 41 -25 92 -25 114 0 26 -6 45 -19 56 -17 16 -19 27 -14 85 4 54
2 69 -11 80 -9 7 -16 26 -16 41 0 31 16 40 115 64 33 8 92 24 130 35 105 29
107 29 91 -16z m-971 -167 c30 -81 61 -158 67 -169 6 -12 11 -53 9 -91 -2 -60
-6 -73 -33 -107 -27 -33 -37 -39 -70 -39 l-38 0 0 282 c0 155 2 279 5 277 2
-3 29 -71 60 -153z m-85 -131 l0 -275 -100 0 -100 0 6 28 c4 15 10 32 14 37 4
6 15 35 25 65 9 30 23 69 30 85 7 17 37 99 66 182 30 84 55 153 57 153 1 0 2
-124 2 -275z m350 250 c0 -45 69 -189 96 -199 7 -3 2 25 -11 67 -12 40 -25 85
-29 100 -7 28 -6 28 31 21 50 -9 50 -9 58 -47 4 -17 16 -56 27 -85 22 -60 37
-59 56 6 8 25 21 43 37 50 14 7 30 23 37 37 33 72 24 -32 -12 -140 -11 -34
-36 -88 -55 -119 -18 -31 -30 -56 -25 -56 12 0 78 72 107 116 24 38 24 38 18
9 -7 -35 -54 -136 -85 -182 -13 -19 -17 -33 -11 -33 17 0 109 89 116 111 10
31 25 22 25 -15 0 -75 -52 -166 -161 -281 -43 -45 -65 -75 -56 -75 22 0 124
87 182 155 42 48 50 54 58 39 10 -18 4 -195 -8 -214 -4 -6 -105 -10 -290 -10
-249 0 -284 2 -289 16 -10 26 -7 32 25 54 29 21 31 21 50 4 26 -23 33 -13 20
29 -10 30 -9 40 9 69 23 38 25 48 7 48 -13 0 -23 19 -57 113 -22 59 -22 96 2
156 10 24 11 21 25 -44 17 -81 74 -203 110 -236 l25 -24 -7 25 c-4 14 -16 43
-26 65 -32 68 -69 196 -79 270 -12 89 -12 85 0 85 6 0 10 -10 10 -22 0 -28 91
-211 125 -253 39 -48 38 -23 -3 61 -55 111 -83 197 -89 276 -6 65 -5 68 16 68
12 0 21 -6 21 -15z m722 -417 l-4 -108 -99 0 c-54 0 -99 3 -99 6 0 3 8 26 19
52 43 109 62 160 76 209 8 28 22 64 30 80 8 15 15 36 15 45 0 9 4 19 8 22 5 3
17 33 28 68 l19 63 5 -165 c3 -91 3 -213 2 -272z m90 287 c17 -44 39 -105 51
-135 11 -30 26 -68 33 -85 24 -57 64 -162 64 -169 0 -4 -48 -5 -107 -4 l-106
3 1 265 c0 146 1 267 2 270 1 7 26 -50 62 -145z m-552 69 c-18 -21 -24 -10 -9
18 8 14 14 18 17 10 2 -7 -2 -19 -8 -28z m-376 -439 c3 -8 1 -15 -4 -15 -6 0
-10 7 -10 15 0 8 2 15 4 15 2 0 6 -7 10 -15z" id="node1" class="node" stroke-width="20"></path>
</g>
<g transform="translate(0.000000,300.000000) scale(0.100000,-0.100000)" fill="#FFFFFF" stroke="none">

<path d="M1327 2250 c-3 -8 -8 -28 -12 -44 -3 -16 -20 -49 -37 -73 -26 -36
-30 -47 -21 -66 8 -16 8 -39 1 -75 -13 -66 -3 -132 27 -176 13 -20 21 -43 18
-54 -15 -58 38 -282 66 -282 15 0 4 281 -12 314 -21 44 -37 99 -37 125 0 12
-4 30 -9 39 -5 9 -12 40 -16 68 -6 48 -4 54 25 88 38 42 49 101 26 131 -12 16
-15 17 -19 5z" id="node3" class="node"></path>
<path d="M1362 2118 c-40 -31 -61 -63 -48 -75 3 -3 27 9 54 26 46 29 54 31
106 25 72 -9 73 -24 0 -24 -45 0 -63 -5 -100 -30 -32 -23 -44 -38 -44 -55 0
-31 2 -31 48 0 37 25 68 30 135 19 64 -11 43 -27 -26 -20 -56 5 -66 3 -98 -18
-37 -25 -55 -61 -37 -72 6 -4 13 -2 17 4 14 23 75 38 119 29 54 -12 56 -31 2
-24 -84 11 -147 -34 -121 -88 8 -17 10 -17 10 -3 1 24 32 38 80 38 l40 0 -1
-65 c0 -36 2 -68 5 -72 4 -3 14 11 23 32 8 21 24 50 35 64 16 23 20 45 21 133
1 70 -2 111 -10 121 -7 8 -10 21 -6 30 9 23 -32 44 -101 51 -58 6 -63 5 -103
-26z" id="node4" class="node"></path>
<path d="M1270 1525 c0 -55 18 -115 34 -115 12 0 11 11 -1 68 -18 81 -33 102
-33 47z" id="node5" class="node"></path>
<path d="M1412 1490 c0 -14 2 -19 5 -12 2 6 2 18 0 25 -3 6 -5 1 -5 -13z" id="node6" class="node"></path>
<path d="M1241 1458 c-1 -42 2 -48 19 -48 21 0 27 15 10 25 -5 3 -14 20 -19
38 -9 31 -9 30 -10 -15z" id="node7" class="node"></path>
<path d="M1517 1463 c-11 -10 -8 -53 3 -53 6 0 10 14 10 30 0 31 -2 35 -13 23z" id="node8" class="node"></path>




<path d="M1183 1212 c6 -79 34 -165 89 -276 41 -84 42 -109 3 -61 -34 42 -125
225 -125 253 0 12 -4 22 -10 22 -12 0 -12 4 0 -85 10 -74 47 -202 79 -270 10
-22 22 -51 26 -65 l7 -25 -25 24 c-36 33 -93 155 -110 236 -14 65 -15 68 -25
44 -24 -60 -24 -97 -2 -156 34 -94 44 -113 57 -113 18 0 16 -10 -7 -48 -18
-29 -19 -39 -9 -69 13 -42 6 -52 -20 -29 -19 17 -21 17 -50 -4 -32 -22 -35
-28 -25 -54 5 -14 40 -16 289 -16 185 0 286 4 290 10 12 19 18 196 8 214 -8
15 -16 9 -58 -39 -58 -68 -160 -155 -182 -155 -9 0 13 30 56 75 109 115 161
206 161 281 0 37 -15 46 -25 15 -7 -22 -99 -111 -116 -111 -6 0 -2 14 11 33
31 46 78 147 85 182 6 29 6 29 -18 -9 -29 -44 -95 -116 -107 -116 -5 0 7 25
25 56 19 31 44 85 55 119 36 108 45 212 12 140 -7 -14 -23 -30 -37 -37 -16 -7
-29 -25 -37 -50 -19 -65 -34 -66 -56 -6 -11 29 -23 68 -27 85 -8 38 -8 38 -58
47 -37 7 -38 7 -31 -21 4 -15 17 -60 29 -100 13 -42 18 -70 11 -67 -27 10 -96
154 -96 199 0 9 -9 15 -21 15 -21 0 -22 -3 -16 -68z" id="node13" class="node"></path>


<path d="M1471 1222 c-7 -13 -11 -26 -8 -28 8 -8 29 25 25 38 -3 8 -9 4 -17
-10z" id="node16" class="node"></path>
<path d="M1090 765 c0 -8 4 -15 10 -15 5 0 7 7 4 15 -4 8 -8 15 -10 15 -2 0
-4 -7 -4 -15z" id="node17" class="node"></path>
</g>
</svg>