<!--?xml version="1.0" standalone="no"?-->

<svg version="1.0" xmlns="http://www.w3.org/2000/svg" width="229.000000pt" height="300.000000pt" viewBox="0 0 229.000000 300.000000" preserveAspectRatio="xMidYMid meet">
<g transform="translate(0.000000,300.000000) scale(0.100000,-0.100000)" fill="#1A1A1A" stroke="none">
<path d="M1485 2623 c-33 -14 -75 -26 -92 -26 -31 0 -32 -2 -17 -18 9 -10 24
-15 37 -12 21 5 21 5 3 -9 -19 -15 -17 -18 34 -76 62 -71 76 -79 86 -50 6 21
4 24 -63 106 l-33 40 55 22 c53 22 56 22 75 5 24 -22 25 -55 4 -97 -34 -66
-35 -84 -3 -128 33 -45 38 -61 12 -38 -10 9 -40 27 -68 41 -60 30 -84 55 -118
122 -22 44 -61 95 -72 95 -2 0 12 -35 32 -77 36 -77 86 -143 109 -143 12 0 24
-44 24 -88 0 -20 -3 -23 -12 -14 -22 22 -31 13 -13 -14 9 -14 14 -28 11 -32
-3 -3 -6 0 -6 6 0 7 -6 12 -14 12 -25 0 -25 -29 0 -59 23 -28 24 -34 15 -83
-5 -29 -14 -54 -20 -56 -6 -2 -11 -11 -11 -19 0 -10 -6 -13 -16 -9 -39 15 -73
-41 -42 -72 9 -9 8 -12 -4 -12 -20 0 -28 21 -28 70 0 75 52 140 96 123 12 -4
15 -2 12 8 -9 29 -57 22 -92 -13 -45 -45 -55 -106 -32 -189 20 -74 20 -72 -7
-54 -29 19 -43 8 -21 -16 13 -15 15 -30 9 -74 -3 -30 -9 -55 -13 -55 -4 0 -20
8 -37 18 -38 24 -81 34 -106 27 -32 -10 -22 -22 24 -29 24 -4 61 -16 82 -27
44 -24 53 -18 63 42 7 39 11 44 36 47 26 3 28 6 23 38 -4 25 -2 34 9 34 8 0
14 4 14 9 0 5 -9 7 -20 4 -11 -3 -20 -1 -20 5 0 5 9 12 19 15 11 3 30 20 41
38 l22 34 -6 -34 c-32 -179 -137 -326 -248 -345 -33 -6 -38 -4 -57 27 -14 23
-21 51 -21 82 0 41 -17 118 -38 175 -14 36 -12 -49 1 -100 29 -104 35 -159 19
-165 -20 -7 -18 -8 -41 29 -30 48 -61 151 -68 223 -3 37 -10 60 -16 56 -14 -9
-1 -118 23 -187 11 -33 18 -61 16 -64 -13 -13 -81 171 -91 248 -4 32 -15 64
-26 76 -29 31 -35 86 -15 138 23 61 40 73 60 44 23 -32 20 -41 -7 -23 -29 19
-45 7 -17 -12 20 -14 20 -14 -1 -43 -14 -18 -19 -35 -15 -47 7 -16 9 -14 21
12 9 21 14 24 14 12 1 -10 7 -17 14 -14 7 2 11 19 10 38 0 19 1 26 4 17 9 -35
23 -17 21 25 -3 40 -2 42 23 39 24 -3 27 1 31 32 2 20 0 42 -4 51 -6 10 2 27
28 55 28 31 35 45 30 64 -5 19 2 31 31 56 65 57 137 75 179 45 27 -19 35 -10
22 23 -21 50 -45 63 -102 56 -28 -4 -55 -10 -61 -15 -5 -5 -19 -9 -32 -9 -13
0 -26 -8 -30 -17 -4 -10 -29 -40 -56 -68 -61 -60 -123 -154 -138 -208 -6 -22
-22 -58 -37 -80 -38 -57 -38 -144 0 -184 22 -24 26 -40 31 -103 3 -44 13 -94
25 -122 20 -44 20 -47 3 -53 -9 -3 -32 -35 -51 -72 -41 -83 -51 -177 -26 -237
20 -49 21 -46 -13 -46 -68 0 -71 14 -51 221 17 185 31 765 19 820 -12 56 -59
124 -104 151 -17 9 -56 20 -86 24 -53 6 -56 5 -62 -17 -4 -13 -7 -68 -7 -121
0 -54 -4 -98 -9 -98 -5 0 -22 11 -38 24 -34 29 -89 42 -107 26 -18 -14 -25
-94 -31 -365 -3 -121 -10 -265 -15 -320 -5 -55 -14 -218 -21 -362 -11 -260
-11 -262 11 -329 29 -87 82 -145 158 -175 64 -25 125 -27 597 -19 289 6 309 2
335 -59 17 -42 8 -57 -39 -65 l-41 -6 0 -174 c0 -194 -1 -191 68 -180 25 4 58
-1 99 -15 68 -23 155 -27 200 -10 38 14 153 19 177 7 12 -7 38 -6 77 3 l59 13
-2 181 -3 180 -40 3 -40 3 3 124 c4 137 -18 355 -43 425 -20 56 -58 105 -98
128 -26 14 -57 17 -167 17 -74 0 -166 -4 -204 -8 -59 -7 -68 -6 -63 7 4 9 2
18 -4 21 -5 4 -1 17 11 32 30 38 33 81 12 150 l-20 62 39 42 c61 66 99 208 68
257 -9 14 -8 34 5 83 10 35 20 103 23 152 l6 87 33 0 c40 0 84 16 84 30 0 6
-11 26 -25 44 -30 40 -31 65 -4 135 12 32 18 65 14 79 -6 24 -47 72 -62 72 -4
0 -35 -12 -68 -27z m-852 -111 c5 -28 -9 -212 -18 -220 -2 -3 -11 1 -19 8 -13
10 -14 32 -10 123 3 62 8 118 10 126 6 20 31 -4 37 -37z m92 -15 c52 -52 58
-92 51 -342 -4 -121 -9 -263 -12 -315 -2 -52 -9 -176 -14 -274 -5 -99 -7 -183
-4 -187 3 -5 -4 -17 -15 -28 -10 -10 -22 -37 -26 -60 -4 -23 -11 -41 -16 -41
-5 0 -21 18 -35 40 l-27 41 7 242 c3 133 11 314 17 402 10 149 10 164 -8 218
-20 57 -20 58 -1 96 14 28 19 64 21 139 2 116 9 122 62 69z m-273 -262 c-3
-85 -8 -127 -19 -143 -8 -13 -17 -21 -20 -18 -7 7 -5 166 3 234 5 42 10 52 23
50 14 -3 16 -19 13 -123z m86 61 c13 -12 36 -43 50 -71 25 -46 27 -58 25 -165
-1 -63 -6 -205 -12 -315 -19 -348 -19 -389 -6 -430 14 -40 71 -105 92 -105 7
0 13 -4 13 -9 0 -5 12 -23 26 -40 31 -37 114 -65 222 -76 86 -8 423 3 443 16
32 19 -18 24 -269 24 l-267 0 -47 28 c-27 15 -48 32 -48 37 0 5 24 6 54 3 73
-8 143 4 167 28 15 15 20 31 17 62 l-3 42 100 2 c55 2 216 10 357 18 322 20
350 15 395 -76 27 -57 43 -202 43 -404 l0 -155 -194 0 -193 0 -6 50 c-7 56
-27 89 -72 117 -33 20 -100 21 -615 12 -240 -4 -284 1 -342 44 -17 12 -42 42
-56 66 -34 58 -38 130 -22 436 7 132 15 320 19 417 l6 177 30 31 c29 31 30 34
34 150 3 129 6 134 59 86z m1020 17 c-10 -2 -26 -2 -35 0 -10 3 -2 5 17 5 19
0 27 -2 18 -5z m-102 -476 c-9 -31 -30 -69 -51 -92 l-35 -40 31 48 c32 50 58
120 60 166 l2 26 4 -28 c2 -15 -3 -51 -11 -80z m-459 -167 c45 -33 78 -92 68
-118 -6 -15 -9 -14 -23 6 -40 55 -71 87 -72 71 0 -20 55 -98 75 -105 22 -9 45
20 45 55 0 24 4 31 20 31 16 0 20 -7 22 -37 5 -105 -12 -140 -62 -128 -36 9
-97 72 -117 122 -10 23 -21 43 -25 43 -28 0 28 -127 69 -160 14 -11 43 -25 64
-32 27 -8 39 -17 39 -30 0 -17 -8 -19 -92 -16 -92 3 -93 3 -107 33 -32 66 -19
203 25 273 19 28 22 28 71 -8z m368 -50 c8 -16 14 -46 14 -67 l-2 -38 -6 35
c-4 24 -12 36 -26 38 -11 2 -26 11 -32 19 -10 13 -9 19 5 29 25 19 30 17 47
-16z m-77 -29 c3 -8 -1 -12 -9 -9 -7 2 -15 10 -17 17 -3 8 1 12 9 9 7 -2 15
-10 17 -17z m-42 -15 c3 -13 1 -50 -6 -80 -10 -51 -15 -58 -52 -77 -55 -28
-76 -19 -47 20 15 20 22 45 23 85 2 60 12 76 53 76 16 0 25 -8 29 -24z m104
-38 c0 -71 -32 -138 -50 -108 -5 7 -17 10 -30 7 -15 -4 -20 -2 -17 7 3 8 9 35
13 62 8 54 16 64 57 64 24 0 27 -4 27 -32z m-388 -214 c4 -3 8 -21 8 -39 0
-45 -20 -55 -110 -55 -92 0 -110 10 -110 60 0 21 6 41 13 44 14 6 186 -2 199
-10z" id="node1" class="node" stroke-width="20"></path>
<path d="M1248 2340 c-36 -19 -66 -49 -37 -37 8 3 40 14 71 24 32 10 58 21 58
26 0 14 -55 6 -92 -13z" id="node2" class="node"></path>
<path d="M1246 2290 c-33 -10 -86 -57 -86 -77 0 -9 9 -7 33 7 17 11 44 20 58
20 34 0 64 23 56 44 -7 18 -17 19 -61 6z" id="node3" class="node"></path>
<path d="M1212 2165 c-17 -19 -38 -58 -47 -87 -16 -49 -16 -57 -2 -91 21 -49
56 -50 102 -4 53 53 74 167 37 200 -29 26 -57 20 -90 -18z m86 -29 c2 -22 1
-50 -3 -63 -5 -20 -8 -22 -26 -12 -18 9 -26 7 -48 -15 -25 -26 -26 -27 -9 -56
14 -25 15 -30 3 -30 -28 0 -47 46 -40 92 12 75 57 131 100 125 16 -1 21 -11
23 -41z m-48 -96 c0 -5 -5 -10 -11 -10 -5 0 -7 5 -4 10 3 6 8 10 11 10 2 0 4
-4 4 -10z" id="node4" class="node"></path>
<path d="M1003 1886 c6 -59 32 -145 41 -135 3 2 -2 31 -10 64 -7 33 -14 77
-14 98 0 21 -5 37 -11 37 -8 0 -10 -19 -6 -64z" id="node5" class="node"></path>
<path d="M1036 1920 c-6 -23 15 -145 28 -158 13 -12 16 7 5 34 -6 16 -14 56
-18 89 -6 48 -9 55 -15 35z" id="node6" class="node"></path>



<path d="M1200 1723 c0 -11 61 -45 69 -38 11 12 -17 40 -43 43 -14 2 -26 0
-26 -5z" id="node10" class="node"></path>
</g>
<g transform="translate(0.000000,300.000000) scale(0.100000,-0.100000)" fill="#3FB7B5" stroke="none">

<path d="M596 2549 c-2 -8 -7 -64 -10 -126 -4 -91 -3 -113 10 -123 8 -7 17
-11 19 -8 9 8 23 192 18 220 -6 33 -31 57 -37 37z" id="node12" class="node"></path>
<path d="M663 2428 c-2 -75 -7 -111 -21 -139 -19 -38 -19 -39 1 -96 18 -54 18
-69 8 -218 -6 -88 -14 -269 -17 -402 l-7 -242 27 -41 c14 -22 30 -40 35 -40 5
0 12 18 16 41 4 23 16 50 26 60 11 11 18 23 15 28 -3 4 -1 88 4 187 5 98 12
222 14 274 3 52 8 194 12 315 7 250 1 290 -51 342 -53 53 -60 47 -62 -69z" id="node13" class="node"></path>
<path d="M416 2308 c-8 -68 -10 -227 -3 -234 3 -3 12 5 20 18 11 16 16 58 19
143 3 104 1 120 -13 123 -13 2 -18 -8 -23 -50z" id="node14" class="node"></path>
<path d="M479 2210 c-4 -116 -5 -119 -34 -150 l-30 -31 -6 -177 c-4 -97 -12
-285 -19 -417 -16 -306 -12 -378 22 -436 14 -24 39 -54 56 -66 58 -43 102 -48
342 -44 515 9 582 8 615 -12 45 -28 65 -61 72 -117 l6 -50 193 0 194 0 0 155
c0 202 -16 347 -43 404 -45 91 -73 96 -395 76 -141 -8 -302 -16 -357 -18
l-100 -2 3 -42 c3 -31 -2 -47 -17 -62 -24 -24 -94 -36 -167 -28 -30 3 -54 2
-54 -3 0 -5 21 -22 48 -37 l47 -28 267 0 c251 0 301 -5 269 -24 -20 -13 -357
-24 -443 -16 -108 11 -191 39 -222 76 -14 17 -26 35 -26 40 0 5 -6 9 -13 9
-21 0 -78 65 -92 105 -13 41 -13 82 6 430 6 110 11 252 12 315 2 107 0 119
-25 165 -27 51 -60 87 -89 98 -15 5 -17 -8 -20 -113z" id="node15" class="node" stroke-width="20"></path>







<path d="M763 1334 c-7 -3 -13 -23 -13 -44 0 -50 18 -60 110 -60 90 0 110 10
110 55 0 18 -4 36 -8 39 -13 8 -185 16 -199 10z" id="node23" class="node"></path>


</g>
</svg>