<!--?xml version="1.0" standalone="no"?--><svg version="1.0" xmlns="http://www.w3.org/2000/svg" width="288.000000pt" height="300.000000pt" viewBox="0 0 288.000000 300.000000" preserveAspectRatio="xMidYMid meet">
<metadata>
  <rdf:rdf xmlns:rdf="http://www.w3.org/1999/02/22-rdf-syntax-ns#" xmlns:rdfs="http://www.w3.org/2000/01/rdf-schema#" xmlns:dc="http://purl.org/dc/elements/1.1/">
    <rdf:description dc:title="piggy bank in hand" dc:publisher="Hiox" dc:date="2015-05-04" dc:format="image/svg+xml" dc:language="en">
      <dc:creator>
        <rdf:bag>
          <rdf:li>svgimages.com</rdf:li>
        </rdf:bag>
      </dc:creator>
    </rdf:description>
  </rdf:rdf>
</metadata>
<g transform="translate(0.000000,300.000000) scale(0.100000,-0.100000)" fill="#0F0F0F" stroke="none">
<path d="M1400 2492 c-24 -11 -43 -32 -59 -65 -22 -44 -23 -52 -11 -90 6 -22
27 -56 45 -74 29 -29 40 -33 85 -33 31 0 64 7 82 18 36 21 68 79 68 125 0 67
-74 137 -145 137 -16 0 -46 -8 -65 -18z" id="node1" class="node"></path>
<path d="M1052 1955 l5 -95 -46 -49 c-25 -27 -57 -71 -71 -97 -25 -46 -29 -49
-78 -57 -29 -5 -53 -14 -53 -20 -2 -21 -2 -60 -1 -127 l2 -65 62 -38 62 -39
-51 -17 c-47 -16 -71 -33 -158 -115 -45 -42 -100 -78 -202 -130 -57 -29 -94
-55 -95 -65 -3 -36 4 -55 35 -94 18 -23 41 -54 50 -69 22 -35 63 -150 71 -200
7 -38 28 -58 63 -58 11 0 57 20 104 44 81 42 88 44 199 49 129 6 262 37 482
110 73 25 176 59 228 75 52 16 157 58 233 92 119 54 142 69 164 102 37 55 29
120 -21 165 -20 18 -45 34 -56 34 -55 4 -56 8 -8 65 53 64 79 123 85 195 l6
59 34 0 c30 0 34 -3 28 -17 -4 -10 -9 -34 -12 -54 -10 -68 65 -105 115 -59 30
28 28 71 -3 100 -39 37 -32 43 41 36 51 -5 65 -4 62 6 -8 24 -111 37 -146 19
-9 -5 -43 -6 -74 -4 -50 5 -57 8 -63 31 -20 79 -124 191 -224 241 -114 58
-193 75 -341 75 -104 0 -146 -4 -185 -17 -59 -22 -79 -18 -123 23 -31 30 -88
60 -113 60 -8 0 -10 -26 -7 -95z m586 -42 l-3 -28 -155 0 -155 0 -3 28 -3 27
161 0 161 0 -3 -27z m-560 -212 c8 -4 12 -19 10 -32 -2 -19 -9 -24 -33 -24
-33 0 -45 25 -25 50 14 17 29 19 48 6z m1126 -141 c22 -26 24 -34 13 -50 -7
-12 -23 -20 -39 -20 -21 0 -29 6 -34 26 -7 27 9 74 25 74 5 0 21 -14 35 -30z
m-869 -122 c96 -44 -30 -199 -205 -252 -51 -16 -47 -18 64 -40 140 -28 386
-12 541 35 112 34 127 35 158 3 33 -33 34 -45 2 -82 -28 -33 -53 -39 -465
-112 -83 -14 -110 -26 -110 -45 0 -26 24 -27 137 -6 122 23 233 41 248 40 18
-1 -437 -149 -540 -175 -62 -16 -140 -28 -206 -31 l-107 -5 -7 42 c-14 81 -54
167 -127 267 l-38 52 27 15 c16 8 51 38 78 66 71 72 95 84 230 115 104 23 130
33 194 76 80 53 87 55 126 37z m668 -226 c24 -21 22 -77 -3 -102 -29 -29 -37
-25 -32 15 4 37 -14 95 -30 95 -5 0 -7 4 -4 9 8 12 46 2 69 -17z m-1338 -164
c47 -56 82 -117 106 -185 32 -95 29 -106 -46 -147 -76 -42 -85 -43 -85 -16 0
60 -81 231 -137 292 l-25 27 68 35 c38 19 72 35 76 36 3 0 23 -19 43 -42z" id="node2" class="node"></path>
</g>
<g transform="translate(0.000000,300.000000) scale(0.100000,-0.100000)" fill="#A3A3A3" stroke="none">

<path d="M1322 1913 l3 -28 155 0 155 0 3 28 3 27 -161 0 -161 0 3 -27z" id="node4" class="node"></path>
<path d="M1030 1695 c-20 -25 -8 -50 25 -50 24 0 31 5 33 24 6 37 -34 55 -58
26z" id="node5" class="node"></path>

<path d="M1209 1401 c-64 -43 -90 -53 -194 -76 -135 -31 -159 -43 -230 -115
-27 -28 -62 -58 -78 -66 l-27 -15 38 -52 c73 -100 113 -186 127 -267 l7 -42
107 5 c66 3 144 15 206 31 103 26 558 174 540 175 -15 1 -126 -17 -248 -40
-113 -21 -137 -20 -137 6 0 19 27 31 110 45 412 73 437 79 465 112 32 37 31
49 -2 82 -31 32 -46 31 -158 -3 -155 -47 -401 -63 -541 -35 -111 22 -115 24
-64 40 175 53 301 208 205 252 -39 18 -46 16 -126 -37z" id="node7" class="node"></path>
<path d="M1934 1229 c-3 -5 -1 -9 4 -9 16 0 34 -58 30 -95 -5 -40 3 -44 32
-15 25 25 27 81 3 102 -23 19 -61 29 -69 17z" id="node8" class="node"></path>
<path d="M546 1054 l-68 -35 25 -27 c56 -61 137 -232 137 -292 0 -27 9 -26 85
16 56 31 65 40 65 63 0 37 -32 129 -64 183 -28 48 -94 128 -104 128 -4 -1 -38
-17 -76 -36z" id="node9" class="node"></path>
</g>
</svg>