<!--?xml version="1.0" standalone="no"?-->

<svg version="1.0" xmlns="http://www.w3.org/2000/svg" width="300.000000pt" height="300.000000pt" viewBox="0 0 300.000000 300.000000" preserveAspectRatio="xMidYMid meet">
<g transform="translate(0.000000,300.000000) scale(0.100000,-0.100000)" fill="#1C1C1C" stroke="none">
<path d="M1190 1936 c-69 -24 -156 -57 -194 -75 -65 -29 -75 -31 -195 -31 -69
0 -132 -4 -138 -8 -21 -13 -52 -119 -64 -212 -15 -125 11 -292 54 -347 6 -9
38 -13 91 -13 81 0 82 0 117 -36 18 -20 61 -57 94 -83 122 -96 172 -112 292
-91 51 8 82 8 110 1 49 -13 148 1 183 27 14 10 32 40 41 67 14 41 22 50 62 67
57 25 82 67 75 130 -5 43 -4 45 34 67 69 39 85 123 37 185 -16 20 -17 27 -7
31 7 2 148 8 313 13 325 10 364 17 405 70 25 31 26 99 2 128 -45 57 -89 64
-474 73 -301 7 -308 8 -332 30 -21 20 -43 24 -177 37 -85 7 -165 14 -179 14
-14 0 -81 -20 -150 -44z m322 -30 l127 -13 58 -51 c32 -27 76 -69 97 -91 l40
-41 -49 -21 c-77 -34 -173 -11 -247 59 l-28 26 -67 -24 c-36 -13 -94 -26 -127
-29 -57 -6 -61 -8 -61 -31 0 -15 8 -28 22 -35 21 -11 20 -12 -14 -35 -30 -20
-93 -98 -93 -114 0 -3 14 -12 30 -21 37 -19 38 -28 4 -46 -26 -14 -94 -94 -94
-110 0 -5 14 -16 31 -24 l30 -16 -30 -35 c-17 -19 -38 -48 -46 -64 l-16 -30
68 -33 68 -32 -53 -3 c-49 -3 -58 0 -115 41 -34 25 -92 77 -130 116 l-67 71
-80 0 -79 0 -10 38 c-6 20 -16 73 -22 117 -9 70 -8 93 9 179 12 54 24 101 27
105 4 3 64 9 133 12 126 5 128 6 282 66 244 95 207 89 402 69z m873 -86 c73
-22 97 -65 53 -94 -43 -27 -129 -36 -330 -36 -170 0 -199 2 -195 14 4 9 -16
35 -54 70 -32 30 -59 58 -59 62 0 12 542 -3 585 -16z m-832 -155 l52 -35 -46
0 c-46 0 -139 26 -139 39 0 8 47 28 68 30 7 1 36 -15 65 -34z m-84 -85 c34
-16 65 -20 145 -20 120 0 139 -9 134 -60 -5 -53 -47 -70 -170 -70 -91 0 -104
3 -200 41 -57 23 -107 45 -111 49 -14 13 10 46 45 63 44 22 104 21 157 -3z
m-63 -185 c46 -21 72 -25 145 -25 88 0 90 0 100 -27 25 -66 -39 -108 -156
-101 -54 4 -92 14 -170 48 -55 24 -106 47 -113 53 -27 21 52 76 110 77 15 0
53 -11 84 -25z m-73 -176 c40 -18 96 -33 129 -37 52 -4 59 -7 56 -25 -4 -28
-48 -58 -95 -64 -33 -4 -57 3 -134 38 -125 57 -128 60 -89 93 17 14 38 26 47
26 8 0 47 -14 86 -31z" id="node1" class="node"></path>
</g>
<g transform="translate(0.000000,300.000000) scale(0.100000,-0.100000)" fill="#A2A2A2" stroke="none">

<path d="M1295 1908 c-16 -6 -100 -38 -185 -71 -154 -60 -156 -61 -282 -66
-69 -3 -129 -9 -133 -12 -3 -4 -15 -51 -27 -105 -17 -86 -18 -109 -9 -179 6
-44 16 -97 22 -117 l10 -38 79 0 80 0 67 -71 c38 -39 96 -91 130 -116 57 -41
66 -44 115 -41 l53 3 -68 32 -68 33 16 30 c8 16 29 45 46 64 l30 35 -30 16
c-17 8 -31 19 -31 24 0 16 68 96 94 110 34 18 33 27 -4 46 -16 9 -30 18 -30
21 0 16 63 94 93 114 34 23 35 24 14 35 -14 7 -22 20 -22 35 0 23 4 25 61 31
33 3 91 16 127 29 l67 24 28 -26 c74 -70 170 -93 247 -59 l49 21 -40 41 c-21
22 -65 64 -97 91 l-58 51 -127 13 c-152 15 -178 16 -217 2z" id="node3" class="node"></path>
<path d="M1800 1836 c0 -4 27 -32 59 -62 38 -35 58 -61 54 -70 -4 -12 25 -14
195 -14 201 0 287 9 330 36 44 29 20 72 -53 94 -43 13 -585 28 -585 16z" id="node4" class="node"></path>
<path d="M1448 1687 c-16 -6 -28 -14 -28 -18 0 -13 93 -39 139 -39 l46 0 -52
35 c-56 37 -63 39 -105 22z" id="node5" class="node"></path>
<path d="M1312 1583 c-35 -17 -59 -50 -45 -63 4 -4 54 -26 111 -49 96 -38 109
-41 200 -41 123 0 165 17 170 70 5 51 -14 60 -134 60 -80 0 -111 4 -145 20
-53 24 -113 25 -157 3z" id="node6" class="node"></path>
<path d="M1265 1406 c-16 -7 -38 -22 -48 -33 -22 -26 -19 -28 108 -83 78 -34
116 -44 170 -48 117 -7 181 35 156 101 -10 27 -12 27 -100 27 -73 0 -99 4
-145 25 -63 28 -97 31 -141 11z" id="node7" class="node"></path>
<path d="M1200 1224 c-39 -33 -36 -36 89 -93 77 -35 101 -42 134 -38 47 6 91
36 95 64 3 18 -4 21 -56 25 -33 4 -89 19 -129 37 -39 17 -78 31 -86 31 -9 0
-30 -12 -47 -26z" id="node8" class="node"></path>
</g>
</svg>