<!--?xml version="1.0" standalone="no"?-->

<svg version="1.0" xmlns="http://www.w3.org/2000/svg" width="300.000000pt" height="300.000000pt" viewBox="0 0 300.000000 300.000000" preserveAspectRatio="xMidYMid meet">
<g transform="translate(0.000000,300.000000) scale(0.100000,-0.100000)" fill="#101010" stroke="none">
<path d="M735 2828 c-30 -23 -38 -60 -26 -121 9 -48 9 -48 -25 -62 -53 -22
-66 -61 -80 -230 -9 -119 -18 -167 -41 -235 -26 -73 -31 -105 -36 -228 -6
-140 -5 -145 24 -227 16 -46 29 -101 29 -123 0 -21 9 -64 19 -94 11 -31 24
-107 31 -169 13 -136 39 -223 85 -292 l35 -51 -35 -29 c-37 -30 -50 -65 -60
-160 -5 -39 -19 -81 -42 -125 -32 -61 -35 -72 -30 -130 4 -48 13 -76 36 -113
17 -28 31 -57 31 -64 0 -8 -12 -39 -27 -70 l-27 -55 24 -25 c54 -53 94 -57
740 -67 611 -10 703 -8 857 27 88 19 179 58 204 88 56 65 73 141 45 208 -8 19
-17 63 -21 99 -7 68 -29 146 -47 167 -5 7 -35 25 -65 40 -44 22 -62 40 -91 87
-52 83 -100 129 -158 149 -80 29 -98 41 -116 77 -24 47 -54 70 -93 70 l-33 0
-6 133 c-16 357 -20 399 -49 454 -15 29 -27 59 -27 68 0 9 -16 63 -36 121 -34
99 -36 110 -29 185 8 93 0 109 -54 109 -45 0 -71 -24 -101 -93 -12 -27 -26
-45 -32 -41 -11 7 -68 123 -68 140 0 22 -82 136 -168 237 -49 56 -110 137
-136 179 -58 93 -66 101 -116 101 -33 0 -40 4 -51 29 -19 46 -45 56 -132 56
-60 -1 -84 -6 -102 -20z m188 -32 c25 -28 59 -128 48 -139 -22 -22 -56 -1 -80
47 -14 27 -27 44 -29 37 -2 -6 7 -33 20 -59 20 -41 28 -48 60 -53 42 -7 74
-31 84 -63 3 -11 29 -60 56 -108 47 -83 54 -106 46 -153 -2 -17 4 -21 42 -25
49 -6 51 -8 92 -115 28 -75 129 -226 173 -259 32 -24 85 -36 85 -18 0 4 -23
30 -51 57 -52 51 -86 110 -163 284 -25 56 -63 122 -84 149 -52 63 -132 189
-125 196 22 21 66 -11 108 -79 10 -16 38 -51 62 -76 36 -39 43 -52 37 -73 -5
-22 -3 -26 14 -26 34 0 68 -40 102 -118 37 -87 125 -223 176 -273 30 -30 41
-51 58 -120 15 -58 26 -84 36 -84 17 0 17 2 -3 95 -14 70 -35 110 -71 134 -13
8 -33 36 -45 61 -21 44 -21 49 -7 99 15 52 47 96 69 96 29 -1 34 -17 33 -110
0 -80 4 -107 27 -169 15 -41 27 -84 27 -95 0 -11 16 -54 35 -96 l34 -75 8
-283 8 -284 36 -33 c62 -56 69 -72 69 -153 0 -93 -28 -178 -86 -259 -73 -103
-139 -141 -209 -122 -40 11 -127 92 -195 183 -24 31 -89 94 -144 140 -173 143
-204 184 -287 371 -47 106 -99 317 -99 402 0 32 -5 76 -11 98 -6 22 -15 64
-20 94 -5 30 -25 82 -44 115 -18 34 -41 88 -49 122 -9 33 -23 80 -31 104 -22
63 -22 156 0 181 31 34 53 24 80 -35 30 -67 33 -106 7 -106 -28 0 -50 30 -58
78 -4 23 -11 42 -16 42 -12 0 -2 -64 15 -99 13 -25 22 -32 73 -51 38 -14 84
-97 84 -150 -1 -28 -7 -39 -32 -55 -53 -34 -49 -49 10 -42 50 6 52 5 82 -31
17 -20 49 -74 72 -120 40 -82 59 -102 97 -102 29 0 26 22 -9 58 -30 31 -114
197 -126 250 -4 15 -26 63 -49 107 -23 44 -52 105 -63 135 -11 30 -26 70 -33
89 -7 19 -30 54 -50 78 -40 45 -55 85 -65 168 -5 42 -2 55 16 77 17 23 25 26
40 18 11 -6 25 -21 32 -34 7 -13 21 -38 31 -55 23 -40 14 -71 -19 -71 -20 0
-29 9 -46 48 -24 54 -26 57 -34 50 -7 -8 23 -78 43 -100 9 -10 26 -18 39 -18
22 0 64 -42 64 -63 0 -6 25 -55 56 -109 51 -88 55 -101 49 -138 -7 -40 -6 -40
24 -40 30 0 34 -5 75 -92 43 -94 131 -220 176 -256 32 -24 77 -36 85 -21 4 6
-19 36 -51 67 -66 64 -143 193 -184 307 -14 39 -40 88 -57 110 -17 22 -71 118
-119 214 -48 95 -101 190 -118 209 -41 46 -44 113 -7 143 31 25 48 24 74 -5z
m-146 -46 c-3 -34 -7 -63 -10 -66 -24 -25 -44 69 -21 103 25 39 35 27 31 -37z
m310 -75 c37 -57 36 -81 -3 -73 -19 3 -76 106 -67 121 11 19 36 2 70 -48z
m-401 -119 c-5 -28 -2 -58 8 -86 17 -50 7 -91 -30 -115 l-24 -15 0 96 c0 68 5
106 16 130 23 48 38 43 30 -10z m-11 -321 c-1 -28 -7 -72 -15 -99 -10 -39 -20
-51 -42 -60 -36 -13 -31 -29 12 -37 36 -8 50 -23 50 -55 0 -24 -36 -60 -65
-66 -34 -6 -23 -32 19 -43 74 -21 90 -85 31 -129 -36 -28 -47 -66 -20 -66 9 0
29 10 45 22 33 24 87 28 101 7 5 -8 9 -45 9 -84 1 -41 7 -80 15 -95 23 -40 18
-56 -25 -75 -26 -12 -40 -25 -40 -37 0 -19 7 -21 51 -18 42 2 88 -74 113 -190
47 -215 81 -284 193 -400 45 -47 87 -99 93 -115 27 -71 -18 -132 -117 -161
-109 -32 -227 4 -266 80 -19 36 -20 46 -9 130 12 98 13 99 92 150 21 13 35 30
35 41 0 18 -6 20 -52 17 -33 -2 -55 1 -62 10 -118 143 -145 216 -167 443 -4
39 -15 93 -25 120 -11 28 -19 71 -19 96 0 26 -11 77 -25 113 -22 59 -25 81
-25 204 1 97 5 149 16 177 8 22 21 60 28 85 19 66 35 92 54 88 13 -3 17 -14
17 -53z m70 -232 c9 -51 34 -124 47 -141 8 -9 8 -16 0 -24 -26 -26 -61 38 -71
133 -5 51 -4 69 5 69 6 0 15 -17 19 -37z m1407 -1091 c53 -57 62 -101 43 -214
-35 -217 -124 -397 -224 -456 -40 -23 -57 -27 -126 -27 -93 0 -127 15 -192 80
-66 66 -56 127 22 140 130 23 268 226 289 427 8 68 22 92 61 100 41 8 90 -11
127 -50z m-1372 13 c10 -12 8 -21 -9 -48 -11 -18 -23 -53 -27 -77 -3 -25 -13
-68 -21 -97 -27 -99 -19 -166 28 -225 25 -30 20 -58 -10 -58 -46 0 -121 97
-121 157 0 15 14 55 32 88 24 45 33 79 38 136 9 106 54 168 90 124z m1539
-190 c34 -30 61 -107 61 -179 0 -84 -69 -186 -126 -186 -58 0 -69 90 -32 260
19 93 36 130 58 130 5 0 22 -11 39 -25z m-999 -141 c0 -80 -55 -140 -156 -170
-37 -11 -58 -12 -78 -5 -55 21 -16 61 59 61 43 0 92 41 126 105 29 55 49 59
49 9z" id="node1" class="node"></path>
</g>
<g transform="translate(0.000000,300.000000) scale(0.100000,-0.100000)" fill="#A1A1A1" stroke="none">

<path d="M849 2801 c-37 -30 -34 -97 7 -143 17 -19 70 -114 118 -209 48 -96
102 -192 119 -214 17 -22 43 -71 57 -110 41 -114 118 -243 184 -307 32 -31 55
-61 51 -67 -8 -15 -53 -3 -85 21 -45 36 -133 162 -176 256 -41 87 -45 92 -75
92 -30 0 -31 0 -24 40 6 37 2 50 -49 138 -31 54 -56 103 -56 109 0 21 -42 63
-64 63 -13 0 -30 8 -39 18 -20 22 -50 92 -43 100 8 7 10 4 34 -50 17 -39 26
-48 46 -48 33 0 42 31 19 71 -10 17 -24 42 -31 55 -7 13 -21 28 -32 34 -15 8
-23 5 -40 -18 -18 -22 -21 -35 -16 -77 10 -83 25 -123 65 -168 20 -24 43 -59
50 -78 7 -19 22 -59 33 -89 11 -30 40 -91 63 -135 23 -44 45 -92 49 -107 12
-53 96 -219 126 -250 35 -36 38 -58 9 -58 -38 0 -57 20 -97 102 -23 46 -55
100 -72 120 -30 36 -32 37 -82 31 -59 -7 -63 8 -10 42 25 16 31 27 32 55 0 53
-46 136 -84 150 -51 19 -60 26 -73 51 -17 35 -27 99 -15 99 5 0 12 -19 16 -42
8 -48 30 -78 58 -78 26 0 23 39 -7 106 -27 59 -49 69 -80 35 -22 -25 -22 -118
0 -181 8 -24 22 -71 31 -104 8 -34 31 -88 49 -122 19 -33 39 -85 44 -115 5
-30 14 -72 20 -94 6 -22 11 -66 11 -98 0 -85 52 -296 99 -402 83 -187 114
-228 287 -371 55 -46 120 -109 144 -140 68 -91 155 -172 195 -183 70 -19 136
19 209 122 58 81 86 166 86 259 0 81 -7 97 -69 153 l-36 33 -8 284 -8 283 -34
75 c-19 42 -35 85 -35 96 0 11 -12 54 -27 95 -23 62 -27 89 -27 169 1 93 -4
109 -33 110 -22 0 -54 -44 -69 -96 -14 -50 -14 -55 7 -99 12 -25 32 -53 45
-61 36 -24 57 -64 71 -134 20 -93 20 -95 3 -95 -10 0 -21 26 -36 84 -17 69
-28 90 -58 120 -51 50 -139 186 -176 273 -34 78 -68 118 -102 118 -17 0 -19 4
-14 26 6 21 -1 34 -37 73 -24 25 -52 60 -62 76 -42 68 -86 100 -108 79 -7 -7
73 -133 125 -196 21 -27 59 -93 84 -149 77 -174 111 -233 163 -284 28 -27 51
-53 51 -57 0 -18 -53 -6 -85 18 -44 33 -145 184 -173 259 -41 107 -43 109 -92
115 -38 4 -44 8 -42 25 8 47 1 70 -46 153 -27 48 -53 97 -56 108 -10 32 -42
56 -84 63 -32 5 -40 12 -60 53 -13 26 -22 53 -20 59 2 7 15 -10 29 -37 24 -48
58 -69 80 -47 11 11 -23 111 -48 139 -26 29 -43 30 -74 5z" id="node3" class="node"></path>
<path d="M746 2787 c-23 -34 -3 -128 21 -103 3 3 7 32 10 66 4 64 -6 76 -31
37z" id="node4" class="node"></path>
<path d="M1017 2723 c-9 -15 48 -118 67 -121 39 -8 40 16 3 73 -34 50 -59 67
-70 48z" id="node5" class="node"></path>
<path d="M656 2566 c-11 -24 -16 -62 -16 -130 l0 -96 24 15 c37 24 47 65 30
115 -10 28 -13 58 -8 86 8 53 -7 58 -30 10z" id="node6" class="node"></path>
<path d="M629 2269 c-6 -13 -18 -44 -25 -69 -7 -25 -20 -63 -28 -85 -11 -28
-15 -80 -16 -177 0 -123 3 -145 25 -204 14 -36 25 -87 25 -113 0 -25 8 -68 19
-96 10 -27 21 -81 25 -120 22 -227 49 -300 167 -443 7 -9 29 -12 62 -10 46 3
52 1 52 -17 0 -11 -14 -28 -35 -41 -79 -51 -80 -52 -92 -150 -11 -84 -10 -94
9 -130 39 -76 157 -112 266 -80 99 29 144 90 117 161 -6 16 -48 68 -93 115
-112 116 -146 185 -193 400 -25 116 -71 192 -113 190 -44 -3 -51 -1 -51 18 0
12 14 25 40 37 43 19 48 35 25 75 -8 15 -14 54 -15 95 0 39 -4 76 -9 84 -14
21 -68 17 -101 -7 -16 -12 -36 -22 -45 -22 -27 0 -16 38 20 66 59 44 43 108
-31 129 -42 11 -53 37 -19 43 29 6 65 42 65 66 0 32 -14 47 -50 55 -43 8 -48
24 -12 37 22 9 32 21 42 60 21 72 20 148 -2 152 -9 2 -22 -6 -29 -19z" id="node7" class="node"></path>
<path d="M721 1971 c10 -95 45 -159 71 -133 8 8 8 15 0 24 -13 17 -38 90 -47
141 -4 20 -13 37 -19 37 -9 0 -10 -18 -5 -69z" id="node8" class="node"></path>
<path d="M2025 962 c-39 -8 -53 -32 -61 -100 -21 -201 -159 -404 -289 -427
-78 -13 -88 -74 -22 -140 65 -65 99 -80 192 -80 119 0 174 36 248 165 67 117
128 373 107 451 -22 79 -109 144 -175 131z" id="node9" class="node"></path>
<path d="M719 909 c-16 -23 -24 -53 -29 -108 -5 -57 -14 -91 -38 -136 -18 -33
-32 -73 -32 -88 0 -60 75 -157 121 -157 30 0 35 28 10 58 -47 59 -55 126 -28
225 8 29 18 72 21 97 4 24 16 59 27 77 17 27 19 36 9 48 -19 23 -36 18 -61
-16z" id="node10" class="node"></path>
<path d="M2257 746 c-19 -19 -57 -202 -57 -274 0 -66 19 -102 54 -102 57 0
126 102 126 186 0 72 -27 149 -61 179 -35 29 -42 30 -62 11z" id="node11" class="node"></path>
<path d="M1271 585 c-34 -64 -83 -105 -126 -105 -75 0 -114 -40 -59 -61 20 -7
41 -6 78 5 101 30 156 90 156 170 0 50 -20 46 -49 -9z" id="node12" class="node"></path>
</g>
</svg>