<!--?xml version="1.0" standalone="no"?-->

<svg version="1.0" xmlns="http://www.w3.org/2000/svg" width="212.000000pt" height="300.000000pt" viewBox="0 0 212.000000 300.000000" preserveAspectRatio="xMidYMid meet">
<g transform="translate(0.000000,300.000000) scale(0.100000,-0.100000)" fill="#2C2420" stroke="none">
<path class="node" id="node1" d="M696 2979 c-57 -21 -100 -59 -127 -111 -18 -35 -19 -65 -19 -565 0
-290 -4 -534 -9 -542 -7 -10 -16 -6 -42 19 -19 18 -63 47 -99 63 -53 25 -80
32 -150 35 -82 3 -87 2 -139 -30 -43 -26 -61 -45 -83 -88 -34 -68 -35 -110 -4
-175 27 -59 66 -95 140 -130 89 -42 126 -115 126 -251 0 -279 106 -521 307
-698 48 -43 104 -104 123 -134 l35 -55 3 -149 c3 -123 6 -150 19 -155 8 -3 19
0 24 8 13 20 11 260 -2 300 -20 59 -80 142 -141 194 -93 78 -121 106 -138 135
-8 15 -31 52 -51 81 -43 65 -93 185 -109 265 -6 33 -16 78 -21 101 -5 23 -9
86 -9 140 0 151 -40 219 -161 272 -59 26 -95 66 -110 122 -12 44 -11 50 17
105 40 80 73 97 179 91 62 -3 92 -10 133 -30 59 -31 140 -109 148 -144 4 -13
4 -102 2 -196 -4 -131 -9 -181 -22 -211 -31 -73 -56 -188 -45 -208 19 -34 34
-13 60 86 14 53 32 109 40 124 11 22 15 167 19 797 5 847 2 796 67 856 54 51
149 49 209 -3 63 -56 64 -62 64 -724 0 -494 2 -593 14 -597 33 -13 36 14 36
335 0 300 1 321 20 358 53 105 227 104 280 -1 19 -36 20 -60 20 -357 0 -258 3
-322 14 -331 30 -25 34 13 38 301 l3 286 31 39 c44 55 88 75 149 69 53 -6 86
-25 119 -70 20 -26 21 -43 24 -321 2 -246 5 -295 18 -306 9 -7 18 -9 24 -3 5
5 10 99 12 209 3 176 5 205 23 240 29 58 75 85 145 85 70 0 116 -27 145 -85
19 -38 20 -60 20 -540 0 -630 0 -631 -153 -882 -27 -45 -62 -121 -78 -169 -26
-82 -28 -99 -29 -253 0 -145 2 -166 16 -169 14 -3 17 16 22 150 8 217 30 288
145 477 56 90 84 157 109 260 14 56 17 144 20 576 l3 510 -28 55 c-18 35 -42
65 -71 85 -39 27 -50 30 -124 30 -74 0 -86 -3 -118 -27 -20 -16 -39 -28 -42
-28 -4 0 -7 16 -7 35 0 34 -23 89 -53 127 -23 28 -108 68 -147 68 -48 0 -118
-25 -147 -51 -27 -27 -33 -24 -75 31 -38 51 -106 90 -156 90 -51 0 -118 -20
-142 -42 -12 -11 -23 -18 -26 -16 -2 3 -6 108 -7 234 -2 151 -7 242 -16 268
-18 55 -86 119 -148 139 -61 20 -55 20 -117 -4z"></path>
</g>
<g transform="translate(0.000000,300.000000) scale(0.100000,-0.100000)" fill="#BBA89C" stroke="none">



</g>
</svg>