<!--?xml version="1.0" standalone="no"?-->

<svg version="1.0" xmlns="http://www.w3.org/2000/svg" width="300.000000pt" height="265.000000pt" viewBox="0 0 300.000000 265.000000" preserveAspectRatio="xMidYMid meet">
<g transform="translate(0.000000,265.000000) scale(0.100000,-0.100000)" fill="#040404" stroke="none">
<path d="M1463 2563 c-58 -20 -93 -63 -93 -116 l0 -40 23 20 c15 14 43 23 87
28 41 5 69 13 76 24 11 14 14 14 31 -2 20 -18 54 -21 87 -8 17 7 16 10 -15 33
-112 83 -124 87 -196 61z" id="node1" class="node"></path>
<path d="M1210 2434 c-46 -20 -68 -41 -92 -87 l-19 -38 42 -77 c23 -42 70
-120 104 -172 34 -52 70 -109 80 -127 28 -48 65 -60 120 -39 25 10 54 29 65
43 21 27 27 82 11 99 -14 13 -128 219 -152 272 -10 25 -22 62 -25 83 -6 34
-11 40 -43 49 -46 13 -49 12 -91 -6z" id="node2" class="node"></path>
<path d="M1564 2437 c-137 -12 -158 -20 -175 -65 -21 -56 71 -181 161 -218 67
-28 130 -37 172 -24 49 14 61 5 28 -20 l-25 -19 24 -25 c31 -33 23 -43 -12
-16 -25 20 -26 20 -32 1 -3 -11 -60 -77 -126 -148 -66 -70 -132 -147 -146
-171 -50 -83 -41 -212 20 -294 42 -57 41 -64 -2 -23 -23 22 -56 68 -73 102
-25 51 -29 71 -26 117 1 31 0 56 -4 56 -4 0 -24 -11 -44 -25 -47 -32 -93 -40
-149 -26 -24 6 -47 11 -50 11 -3 0 -18 -26 -33 -57 -21 -47 -27 -53 -30 -35
-2 13 1 37 7 54 16 46 15 47 -30 31 -52 -18 -93 -6 -138 41 l-32 33 -51 -14
c-32 -10 -53 -12 -60 -5 -6 6 4 12 29 17 67 12 68 21 10 90 -28 35 -55 64 -59
64 -4 1 -4 -15 -1 -35 4 -21 -1 -59 -12 -95 l-18 -60 30 -27 c17 -16 41 -57
56 -98 55 -142 156 -315 275 -467 50 -64 45 -47 165 -507 14 -52 40 -147 57
-210 18 -63 39 -142 47 -175 7 -33 18 -71 23 -85 5 -14 14 -44 20 -67 l11 -43
464 0 c256 0 465 1 465 3 0 1 -14 38 -31 82 -16 44 -50 134 -74 200 -24 66
-58 156 -75 200 -17 44 -39 103 -49 130 -21 59 -107 285 -151 400 -70 178
-100 272 -100 311 0 32 23 90 98 250 54 115 106 236 115 269 16 58 16 64 -8
195 -55 303 -75 368 -115 390 -31 17 -201 20 -346 7z" id="node3" class="node"></path>
<path d="M1020 2290 c-70 -19 -140 -82 -140 -127 0 -29 42 -105 138 -251 75
-114 120 -162 150 -162 70 0 162 64 162 111 0 13 -43 89 -94 169 -126 194
-144 224 -151 242 -8 20 -33 27 -65 18z" id="node4" class="node"></path>
<path d="M1500 2113 c45 -79 63 -97 92 -90 35 10 85 43 97 66 10 18 7 19 -50
20 -49 0 -71 6 -116 31 l-55 31 32 -58z" id="node5" class="node"></path>
<path d="M820 2084 c-51 -22 -77 -51 -96 -106 -19 -59 -22 -53 100 -190 93
-104 110 -118 151 -118 47 0 115 48 115 81 0 19 -217 349 -228 349 -4 -1 -23
-8 -42 -16z" id="node6" class="node"></path>
</g>
<g transform="translate(0.000000,265.000000) scale(0.100000,-0.100000)" fill="#9F9F9F" stroke="none">

</g>
</svg>