<!--?xml version="1.0" standalone="no"?-->

<svg version="1.0" xmlns="http://www.w3.org/2000/svg" width="176.000000pt" height="300.000000pt" viewBox="0 0 176.000000 300.000000" preserveAspectRatio="xMidYMid meet">
<g transform="translate(0.000000,300.000000) scale(0.100000,-0.100000)" fill="#2D2D2D" stroke="none">
<path d="M1120 2993 c-94 -34 -120 -74 -120 -185 0 -40 9 -111 19 -158 10 -47
19 -112 20 -145 1 -33 14 -125 30 -205 17 -88 27 -162 24 -188 -5 -39 -8 -43
-27 -38 -46 14 -218 28 -351 29 l-140 1 -148 -62 c-86 -36 -163 -62 -183 -62
-47 0 -110 -34 -129 -69 -8 -17 -20 -63 -26 -103 -6 -40 -29 -114 -50 -165
-23 -54 -39 -107 -39 -130 0 -60 26 -136 92 -268 61 -122 140 -343 153 -425
17 -106 64 -248 109 -325 16 -26 50 -71 76 -100 59 -65 66 -77 75 -135 17
-107 26 -130 52 -130 23 0 25 3 19 33 -19 93 -19 105 0 109 14 2 2 22 -62 98
-43 52 -89 108 -101 123 -27 35 -75 150 -101 245 l-21 74 43 -40 c24 -22 59
-48 77 -58 32 -16 32 -15 -15 37 -85 94 -98 118 -205 389 -27 69 -69 168 -94
221 -56 118 -62 139 -48 182 15 44 47 73 107 97 l49 19 -38 1 c-21 0 -47 -5
-57 -10 -18 -10 -18 -9 -4 27 21 51 50 81 86 88 47 11 62 59 43 143 -6 26 -3
27 34 8 61 -32 121 -166 121 -271 0 -50 -1 -53 -22 -47 l-23 6 19 -30 c207
-316 200 -309 367 -354 117 -31 283 -53 266 -34 -4 4 -45 16 -90 25 -103 21
-207 51 -207 61 0 19 194 28 365 16 l100 -7 -69 24 c-39 14 -80 25 -93 25 -34
0 -39 26 -14 77 l22 46 22 -20 c29 -27 67 -46 67 -34 0 5 -7 12 -15 15 -19 7
-48 72 -40 86 4 6 32 10 63 10 l57 0 -62 33 c-87 45 -152 102 -175 154 -19 42
-19 47 -4 93 21 64 20 68 -8 41 -33 -31 -88 -42 -150 -29 -77 15 -137 48 -157
86 -27 52 -31 51 -27 -3 l3 -49 -40 -12 c-22 -7 -64 -13 -92 -13 -51 -1 -54 1
-83 41 -36 49 -37 55 -7 63 33 11 87 54 87 71 0 15 90 61 140 71 61 14 433
-17 473 -38 15 -9 18 -18 13 -41 -4 -22 -2 -29 7 -25 52 19 49 22 140 -113 49
-72 139 -192 201 -268 159 -193 170 -212 169 -278 -1 -29 -4 -64 -8 -76 -6
-22 -5 -22 9 -4 21 25 30 114 17 162 -13 50 -51 109 -133 207 -36 43 -105 133
-153 200 -49 67 -108 145 -131 172 -32 39 -43 62 -49 101 -6 47 -4 53 16 68
19 13 20 16 7 21 -9 4 -19 14 -23 23 -21 55 -69 357 -59 373 3 5 15 9 27 9 21
0 21 1 -2 13 -20 10 -27 27 -43 102 -35 167 -26 240 34 271 44 23 55 18 62
-26 10 -63 35 -116 59 -127 18 -8 27 -28 41 -87 10 -41 29 -106 43 -143 61
-161 85 -241 85 -280 0 -37 3 -43 20 -43 19 0 20 -4 15 -55 -4 -39 -2 -55 6
-55 8 0 20 -54 34 -148 28 -181 46 -249 111 -423 61 -162 71 -223 48 -302 -9
-31 -60 -159 -113 -284 -110 -262 -129 -312 -149 -406 -14 -66 -41 -413 -33
-421 2 -2 15 -6 29 -8 l25 -3 7 165 c9 243 45 379 175 665 133 291 141 362 69
575 l-46 134 15 52 c8 28 26 103 40 166 13 64 29 128 35 143 6 15 20 70 31
121 11 52 27 110 35 129 23 55 18 81 -18 103 -45 27 -82 34 -113 22 -21 -8
-27 -7 -32 6 -10 27 14 238 38 332 l22 85 -32 29 c-59 53 -163 32 -200 -40
-25 -49 -61 -167 -61 -200 0 -51 -19 -6 -59 142 -23 82 -41 154 -41 160 0 6
-5 28 -11 49 -10 36 -11 37 -57 36 -26 0 -54 -3 -62 -6z m89 -70 c21 -82 24
-98 13 -88 -14 14 -42 125 -31 125 4 0 13 -17 18 -37z m348 -84 c8 -8 9 -19 2
-38 -6 -14 -10 -50 -9 -81 0 -30 1 -82 1 -114 1 -83 -9 -126 -28 -126 -14 0
-14 -2 2 -20 15 -16 19 -45 25 -148 3 -70 6 -148 5 -174 -1 -27 2 -48 8 -48
15 0 2 -111 -15 -124 -10 -8 -13 -24 -10 -55 3 -29 1 -41 -6 -37 -6 3 -14 32
-17 64 -15 132 -50 285 -90 396 -24 66 -41 125 -38 133 3 7 0 19 -6 27 -15 17
20 185 54 261 33 75 91 115 122 84z m29 -109 c-10 -33 -14 -39 -15 -20 -1 35
22 111 26 85 2 -11 -3 -40 -11 -65z m97 -376 c12 -4 13 -12 5 -41 -5 -20 -8
-55 -5 -77 4 -42 -15 -151 -34 -196 -6 -14 -17 -61 -24 -105 -15 -92 -30 -135
-45 -135 -6 0 -9 -8 -6 -17 6 -20 -9 -51 -20 -41 -9 10 13 152 36 226 18 58
19 75 10 209 -10 132 -9 147 6 164 17 19 49 24 77 13z m38 -55 c-5 -13 -10
-19 -10 -12 -1 15 10 45 15 40 3 -2 0 -15 -5 -28z m-1301 -314 c0 -11 -67 -45
-89 -45 -31 0 -20 10 32 31 47 19 57 21 57 14z m-209 -102 c16 -42 3 -70 -42
-94 -23 -11 -44 -18 -47 -14 -3 3 0 27 7 53 21 79 62 107 82 55z m481 -119
c29 -7 79 -14 110 -14 l58 0 28 -62 c16 -35 49 -85 73 -112 l43 -49 -23 -36
c-12 -20 -34 -62 -49 -93 l-27 -58 -46 0 c-26 0 -91 -9 -144 -20 -53 -11 -101
-20 -106 -20 -4 0 -41 50 -80 110 -40 61 -76 110 -81 110 -4 0 -8 35 -8 78 -1
42 -5 96 -9 120 l-8 42 31 1 c17 0 60 8 96 18 38 10 70 13 77 8 7 -5 36 -15
65 -23z" id="node1" class="node" stroke-width="20"></path>
















</g>
<g transform="translate(0.000000,300.000000) scale(0.100000,-0.100000)" fill="#32E6EF" stroke="none">













</g>
</svg>