<!--?xml version="1.0" standalone="no"?--><svg xmlns="http://www.w3.org/2000/svg" width="235.000000pt" height="300.000000pt" viewBox="0 0 235.000000 300.000000" preserveAspectRatio="xMidYMid meet">
<metadata>
  <rdf:rdf xmlns:rdf="http://www.w3.org/1999/02/22-rdf-syntax-ns#" xmlns:rdfs="http://www.w3.org/2000/01/rdf-schema#" xmlns:dc="http://purl.org/dc/elements/1.1/">
    <rdf:description dc:title="hand holding coin" dc:publisher="Hiox" dc:date="2015-05-02" dc:format="image/svg+xml" dc:language="en">
      <dc:creator>
        <rdf:bag>
          <rdf:li>svgimages.com</rdf:li>
        </rdf:bag>
      </dc:creator>
    </rdf:description>
  </rdf:rdf>
</metadata>
<g transform="translate(0.000000,300.000000) scale(0.100000,-0.100000)" fill="#343434" stroke="none">
<path d="M2205 2963 c-80 -36 -220 -97 -305 -134 -25 -10 -135 -53 -245 -94
-382 -144 -520 -206 -655 -297 -105 -71 -142 -103 -246 -209 -151 -155 -245
-272 -381 -474 -33 -49 -111 -146 -173 -215 -61 -69 -130 -149 -152 -177 -46
-61 -48 -77 -24 -219 8 -49 22 -143 31 -209 13 -99 36 -215 71 -370 2 -11 30
-38 61 -60 32 -22 117 -98 189 -168 128 -124 133 -131 153 -197 32 -103 97
-147 206 -138 142 12 213 180 124 290 l-31 39 22 112 c12 62 27 137 32 168
l10 56 132 41 c72 23 178 48 236 57 58 8 110 17 116 19 24 9 26 73 4 116 -11
22 -18 44 -16 49 3 5 33 28 66 52 42 31 58 49 54 59 -4 8 -9 27 -11 42 -3 14
-16 37 -30 50 -20 19 -35 23 -81 22 -59 -1 -98 -16 -181 -72 l-43 -30 -39 39
c-21 21 -43 39 -47 39 -11 0 28 119 49 151 9 13 62 74 118 134 151 162 219
274 206 334 -9 44 27 77 91 85 100 13 339 63 554 116 69 17 157 38 195 47 72
15 90 24 84 41 -3 6 -26 4 -59 -5 -209 -56 -565 -135 -720 -159 -52 -8 -102
-16 -111 -19 -9 -3 -29 10 -50 31 -18 20 -52 44 -74 55 l-40 20 35 -28 c19
-15 50 -42 68 -58 l34 -30 -22 -28 -22 -27 -39 31 c-57 45 -61 27 -6 -22 71
-61 66 -99 -26 -233 -38 -55 -160 -176 -177 -176 -5 0 6 25 23 57 24 41 40 59
64 67 32 11 65 36 48 36 -6 0 -27 -5 -48 -11 -22 -6 -41 -8 -44 -6 -2 3 7 43
21 88 28 97 40 168 30 192 -8 23 -27 22 -20 0 3 -10 -5 -66 -19 -126 -24 -108
-62 -215 -129 -360 -24 -54 -33 -84 -27 -95 10 -21 4 -41 -22 -69 -27 -30 -33
-29 -41 10 -7 34 -72 137 -87 137 -15 0 -10 -16 10 -34 10 -9 24 -38 31 -64 7
-26 19 -59 26 -73 12 -23 11 -29 -5 -43 -24 -22 -28 -20 -36 12 -7 29 -32 62
-47 62 -5 0 -1 -12 10 -28 32 -45 32 -58 1 -122 l-29 -63 9 -136 c5 -75 7
-158 5 -186 -4 -45 -49 -279 -60 -314 -8 -25 -18 -2 -25 60 -9 79 -24 94 -94
94 -44 0 -59 -4 -77 -24 -21 -22 -21 -23 -3 -16 94 35 132 25 151 -40 19 -63
17 -139 -4 -158 -52 -48 -143 -41 -163 11 -35 90 -66 393 -52 497 10 72 -6
208 -37 315 -30 107 -39 149 -40 200 l-2 45 -20 -48 c-14 -31 -26 -46 -34 -43
-21 8 -17 -8 7 -30 24 -22 59 -86 59 -108 0 -30 -48 -29 -149 3 -114 36 -111
35 -111 16 0 -18 25 -32 86 -45 75 -16 78 -18 64 -35 -10 -12 -5 -13 38 -8 45
5 51 3 66 -20 10 -14 18 -38 19 -53 2 -25 -2 -29 -26 -32 -16 -2 -34 1 -40 6
-8 7 -29 7 -57 2 -25 -5 -60 -7 -77 -3 -48 8 -40 -9 17 -35 61 -29 85 -66 98
-152 11 -72 7 -81 -38 -100 -41 -17 -38 -32 5 -24 58 11 82 -1 115 -59 34 -59
37 -85 15 -127 -8 -16 -11 -31 -6 -34 5 -3 12 2 16 12 12 29 43 -117 32 -150
-5 -16 -12 -28 -16 -28 -12 0 -70 59 -141 143 -35 42 -67 77 -71 77 -10 0
-111 70 -141 98 -19 17 -29 39 -33 71 -3 25 -17 92 -31 147 -13 56 -29 157
-34 225 -6 68 -17 158 -26 199 -8 41 -13 84 -10 96 9 33 84 129 195 248 56 59
129 149 163 200 113 169 290 389 413 511 87 87 278 220 360 249 28 10 54 23
60 27 5 5 15 9 23 9 19 0 175 67 459 196 17 8 34 14 37 14 7 0 295 126 381
167 17 8 63 28 103 45 39 16 72 34 72 39 0 14 -8 11 -95 -28z m-768 -1836 c6
-6 13 -26 15 -44 2 -28 -3 -35 -51 -67 -52 -35 -81 -45 -81 -27 0 11 66 51 85
51 8 0 16 4 20 9 13 21 -14 17 -75 -11 -54 -25 -76 -30 -130 -29 -50 1 -84 -5
-150 -29 -83 -30 -86 -30 -118 -13 -34 19 -38 40 -5 35 11 -1 56 4 102 12 79
13 108 27 183 87 51 42 174 58 205 26z m-351 -41 l28 -23 -55 -16 c-45 -14
-56 -14 -67 -3 -11 11 -8 18 18 40 38 32 42 32 76 2z m234 -152 c49 -46 74
-104 54 -124 -10 -9 -142 -25 -133 -16 3 4 26 10 49 14 74 13 57 27 -26 22
-65 -4 -79 -9 -98 -31 -15 -18 -49 -33 -117 -52 -52 -15 -107 -27 -121 -27
-24 0 -27 5 -33 43 -8 52 6 179 20 184 6 1 17 -2 25 -7 12 -8 13 -13 3 -29
-18 -29 2 -36 35 -13 34 24 109 63 142 73 14 4 53 8 88 8 61 1 64 0 112 -45z
m-822 -87 c21 -91 13 -96 -39 -25 -35 49 -36 65 -6 71 12 2 24 5 27 6 3 0 11
-23 18 -52z m-69 -20 c17 -30 41 -65 53 -78 19 -20 23 -36 23 -87 0 -34 -2
-61 -5 -59 -61 33 -66 40 -66 86 0 42 -23 130 -45 174 -6 10 -5 17 0 17 5 0
23 -24 40 -53z m418 -564 c25 -38 25 -139 0 -177 -22 -33 -89 -65 -134 -66
-48 0 -110 28 -134 62 -26 36 -34 93 -20 132 l12 29 25 -24 c21 -20 36 -24 82
-23 53 0 57 2 96 47 23 25 44 46 48 47 4 0 16 -12 25 -27z" id="node1" class="node" style="position: relative;"></path>
<path d="M1146 2044 c-20 -20 -20 -38 0 -55 13 -10 17 -10 25 2 5 8 9 19 9 26
0 6 3 18 6 27 8 21 -19 21 -40 0z" id="node2" class="node" style="position: relative;"></path>
<path d="M1120 1953 c0 -5 18 -18 40 -30 43 -23 56 -11 22 20 -19 17 -62 23
-62 10z" id="node3" class="node" style="position: relative;"></path>
<path d="M1136 1806 c2 -17 6 -52 9 -78 9 -67 25 -60 25 10 0 31 3 66 6 77 4
16 0 20 -20 21 -22 2 -24 -2 -20 -30z" id="node4" class="node" style="position: relative;"></path>
<path d="M670 730 c0 -10 68 -25 77 -16 6 6 -40 26 -63 26 -8 0 -14 -4 -14
-10z" id="node5" class="node" style="position: relative;"></path>
<path d="M660 691 c0 -5 14 -13 32 -16 30 -7 31 -8 13 -21 -10 -8 -39 -14 -63
-14 -30 0 -42 -4 -39 -12 4 -15 136 -12 152 3 5 6 5 9 -3 9 -7 0 -12 9 -12 20
0 10 -9 24 -19 30 -24 12 -61 13 -61 1z" id="node6" class="node" style="position: relative;"></path>
<path d="M740 584 c-14 -7 -33 -13 -42 -14 -10 0 -18 -4 -18 -10 0 -18 66 -11
84 9 22 24 8 33 -24 15z" id="node7" class="node" style="position: relative;"></path>
</g>
<g transform="translate(0.000000,300.000000) scale(0.100000,-0.100000)" fill="#FFFFFF" stroke="none">

<path d="M2300 2991 c0 -5 -33 -23 -72 -39 -40 -17 -86 -37 -103 -45 -86 -41
-374 -167 -381 -167 -3 0 -20 -6 -37 -14 -284 -129 -440 -196 -459 -196 -8 0
-18 -4 -23 -9 -6 -4 -32 -17 -60 -27 -82 -29 -273 -162 -360 -249 -123 -122
-300 -342 -413 -511 -34 -51 -107 -141 -163 -200 -111 -119 -186 -215 -195
-248 -3 -12 2 -55 10 -96 9 -41 20 -131 26 -199 5 -68 21 -169 34 -225 14 -55
28 -122 31 -147 4 -32 14 -54 33 -71 30 -28 131 -98 141 -98 4 0 36 -35 71
-77 71 -84 129 -143 141 -143 4 0 11 12 16 28 11 33 -20 179 -32 150 -4 -10
-11 -15 -16 -12 -5 3 -2 18 6 34 22 42 19 68 -15 127 -33 58 -57 70 -115 59
-43 -8 -46 7 -5 24 45 19 49 28 38 100 -13 86 -37 123 -98 152 -57 26 -65 43
-17 35 17 -4 52 -2 77 3 28 5 49 5 57 -2 6 -5 24 -8 40 -6 24 3 28 7 26 32 -1
15 -9 39 -19 53 -15 23 -21 25 -66 20 -43 -5 -48 -4 -38 8 14 17 11 19 -64 35
-61 13 -86 27 -86 45 0 19 -3 20 111 -16 101 -32 149 -33 149 -3 0 22 -35 86
-59 108 -24 22 -28 38 -7 30 8 -3 20 12 34 43 l20 48 2 -45 c1 -51 10 -93 40
-200 31 -107 47 -243 37 -315 -14 -104 17 -407 52 -497 20 -52 111 -59 163
-11 21 19 23 95 4 158 -19 65 -57 75 -151 40 -18 -7 -18 -6 3 16 18 20 33 24
77 24 70 0 85 -15 94 -94 7 -62 17 -85 25 -60 11 35 56 269 60 314 2 28 0 111
-5 186 l-9 136 29 63 c31 64 31 77 -1 123 -11 15 -15 27 -10 27 15 0 40 -33
47 -63 8 -31 12 -33 36 -11 16 14 17 20 5 43 -7 14 -19 47 -26 73 -7 26 -21
55 -31 64 -20 18 -25 34 -10 34 15 0 80 -103 87 -137 8 -39 14 -40 41 -10 26
28 32 48 22 69 -6 11 3 41 27 95 67 145 105 252 129 360 14 60 22 116 19 126
-7 22 12 23 20 0 10 -24 -2 -95 -30 -192 -14 -45 -23 -85 -21 -88 3 -2 22 0
44 6 21 6 42 11 48 11 17 0 -16 -25 -48 -36 -24 -8 -40 -26 -64 -67 -17 -32
-28 -57 -23 -57 17 0 139 121 177 176 58 85 73 116 73 156 0 31 -7 43 -47 77
-55 49 -51 67 6 22 l39 -31 22 27 22 28 -34 30 c-18 16 -49 43 -68 58 l-35 28
40 -20 c22 -11 56 -35 74 -55 21 -21 41 -34 50 -31 9 3 59 11 111 19 154 24
502 101 720 159 l55 14 3 467 2 466 -25 0 c-14 0 -25 -4 -25 -9z m-1114 -947
c-3 -9 -6 -21 -6 -27 0 -7 -4 -18 -9 -26 -8 -12 -12 -12 -25 -2 -20 17 -20 35
0 55 21 21 48 21 40 0z m-4 -101 c34 -31 21 -43 -22 -20 -22 12 -40 25 -40 30
0 13 43 7 62 -10z m-6 -128 c-3 -11 -6 -46 -6 -77 0 -70 -16 -77 -25 -10 -3
26 -7 61 -9 78 -4 28 -2 32 20 30 20 -1 24 -5 20 -21z m-450 -1085 c15 -6 24
-13 21 -16 -9 -9 -77 6 -77 16 0 13 22 13 56 0z m-5 -40 c10 -6 19 -20 19 -30
0 -11 5 -20 12 -20 8 0 8 -3 3 -9 -16 -15 -148 -18 -152 -3 -3 8 9 12 39 12
24 0 53 6 63 14 18 13 17 14 -13 21 -18 3 -32 11 -32 16 0 12 37 11 61 -1z
m43 -121 c-18 -20 -84 -27 -84 -9 0 6 8 10 18 10 9 1 28 7 42 14 32 18 46 9
24 -15z" id="node9" class="node" style="position: relative;"></path>


<path d="M1312 1136 c-30 -8 -66 -23 -80 -35 -75 -60 -104 -74 -183 -87 -46
-8 -91 -13 -102 -12 -33 5 -29 -16 5 -35 32 -17 35 -17 118 13 66 24 100 30
150 29 54 -1 76 4 130 29 61 28 88 32 75 11 -4 -5 -12 -9 -20 -9 -19 0 -85
-40 -85 -51 0 -18 29 -8 81 27 48 32 53 39 51 67 -2 18 -9 38 -15 44 -19 20
-68 23 -125 9z" id="node12" class="node" style="position: relative;"></path>
<path d="M1010 1084 c-26 -22 -29 -29 -18 -40 11 -11 22 -11 67 3 l55 16 -28
23 c-34 30 -38 30 -76 -2z" id="node13" class="node" style="position: relative;"></path>
<path d="M1120 971 c-33 -10 -108 -49 -142 -73 -33 -23 -53 -16 -35 13 10 16
9 21 -3 29 -8 5 -19 8 -25 7 -14 -5 -28 -132 -20 -184 6 -38 9 -43 33 -43 14
0 69 12 121 27 68 19 102 34 117 52 19 22 33 27 98 31 83 5 100 -9 26 -22 -23
-4 -46 -10 -49 -14 -9 -9 123 7 133 16 20 20 -5 78 -54 124 -48 45 -51 46
-112 45 -35 0 -74 -4 -88 -8z" id="node14" class="node" style="position: relative;"></path>
<path d="M453 893 c-30 -6 -29 -22 6 -71 33 -45 51 -59 51 -40 0 22 -24 118
-30 117 -3 -1 -15 -4 -27 -6z" id="node15" class="node" style="position: relative;"></path>
<path d="M389 863 c22 -44 45 -132 45 -174 0 -46 5 -53 66 -86 3 -2 5 25 5 59
0 51 -4 67 -23 87 -12 13 -36 48 -53 78 -17 29 -35 53 -40 53 -5 0 -6 -7 0
-17z" id="node16" class="node" style="position: relative;"></path>
<path d="M774 243 c-39 -45 -43 -47 -96 -47 -46 -1 -61 3 -82 23 l-25 24 -12
-29 c-26 -68 12 -150 81 -178 53 -21 95 -20 147 3 58 27 78 61 78 136 0 57
-22 116 -43 115 -4 -1 -25 -22 -48 -47z" id="node17" class="node" style="position: relative;"></path>
</g>
</svg>