<!--?xml version="1.0" standalone="no"?-->

<svg version="1.0" xmlns="http://www.w3.org/2000/svg" width="288.000000pt" height="300.000000pt" viewBox="0 0 288.000000 300.000000" preserveAspectRatio="xMidYMid meet">
<g transform="translate(0.000000,300.000000) scale(0.100000,-0.100000)" fill="#414040" stroke="none">
<path class="node" id="node1" d="M210 2796 c-124 -28 -191 -99 -175 -186 9 -49 34 -81 151 -195 77
-76 112 -118 142 -175 57 -107 90 -221 103 -356 16 -174 34 -276 59 -325 27
-53 90 -148 136 -205 77 -96 104 -174 104 -305 0 -169 -43 -302 -147 -456 -68
-100 -113 -185 -113 -215 0 -40 35 -9 70 62 12 25 48 81 80 125 31 44 71 105
88 135 38 70 89 243 97 336 10 121 -30 262 -103 357 -145 190 -177 275 -201
527 -11 108 -37 230 -54 246 -4 4 -7 14 -7 22 0 21 -68 158 -86 172 -8 7 -14
17 -14 23 0 6 -49 61 -109 122 -61 61 -112 122 -116 137 -16 62 4 75 116 77
169 3 284 -91 344 -281 15 -46 30 -92 35 -103 5 -11 15 -41 24 -67 16 -53 71
-141 110 -178 25 -22 25 -25 9 -42 -23 -26 -4 -45 28 -28 64 33 228 191 276
265 38 58 162 178 205 198 72 34 151 12 194 -53 41 -62 22 -111 -88 -227 -60
-63 -68 -80 -44 -89 22 -8 36 3 114 91 39 43 86 87 104 97 59 31 145 18 193
-29 25 -26 27 -33 23 -93 -4 -76 -26 -125 -98 -224 -52 -71 -57 -88 -26 -94
24 -5 56 27 111 109 54 80 118 139 154 140 75 3 119 -19 147 -73 32 -61 -6
-159 -112 -289 -53 -65 -64 -92 -44 -104 18 -11 49 15 122 103 40 48 127 143
193 212 67 69 157 168 201 220 80 95 172 190 186 190 4 0 0 -19 -8 -42 -26
-73 -27 -112 -3 -141 26 -34 77 -36 132 -7 l39 21 -31 -44 c-16 -24 -79 -88
-138 -142 -59 -55 -162 -153 -228 -220 -137 -138 -179 -204 -199 -317 -25
-137 -76 -313 -111 -384 -47 -96 -111 -165 -215 -231 -206 -133 -267 -191
-328 -314 -47 -96 -86 -205 -77 -219 18 -29 105 28 105 68 0 31 59 175 91 222
28 41 132 122 183 143 59 24 207 152 266 232 59 80 85 147 135 348 51 208 70
260 117 321 18 22 125 136 238 251 221 225 263 283 282 384 27 144 -87 212
-236 142 -63 -30 -132 -96 -307 -291 -158 -177 -148 -168 -149 -140 0 54 -23
106 -65 147 -40 41 -45 43 -102 43 -38 0 -72 -7 -96 -19 l-37 -19 0 59 c0 84
-28 130 -98 160 -53 23 -107 24 -155 4 -20 -8 -39 -15 -41 -15 -3 0 -3 21 0
48 5 39 2 53 -18 81 -39 58 -71 75 -148 79 -56 3 -78 0 -114 -18 -57 -27 -163
-130 -295 -288 -57 -67 -111 -127 -120 -132 -36 -19 -148 133 -181 245 -6 22
-15 49 -19 60 -5 11 -16 47 -26 80 -44 151 -137 239 -285 270 -39 8 -74 15
-78 14 -4 -1 -32 -7 -62 -13z m2549 -427 c17 -17 31 -38 31 -47 0 -49 -99
-132 -157 -132 -47 0 -56 48 -21 117 49 97 93 116 147 62z"></path>























</g>
<g transform="translate(0.000000,300.000000) scale(0.100000,-0.100000)" fill="#FFFFFF" stroke="none">

<path class="node" id="node26" d="M2657 2376 c-31 -33 -67 -108 -67 -138 0 -52 37 -61 108 -26 45 23
92 79 92 110 0 25 -58 78 -86 78 -14 0 -35 -11 -47 -24z"></path>
<path class="node" id="node27" d="M1980 75 c0 -8 5 -15 10 -15 6 0 10 7 10 15 0 8 -4 15 -10 15 -5 0
-10 -7 -10 -15z"></path>
<path class="node" id="node28" d="M2190 71 c0 -11 5 -23 10 -26 6 -4 10 5 10 19 0 14 -4 26 -10 26 -5
0 -10 -9 -10 -19z"></path>
<path class="node" id="node29" d="M1044 69 c-3 -6 -1 -16 5 -22 8 -8 11 -5 11 11 0 24 -5 28 -16 11z"></path>
<path class="node" id="node30" d="M1264 69 c-3 -6 -1 -16 5 -22 8 -8 11 -5 11 11 0 24 -5 28 -16 11z"></path>
<path class="node" id="node31" d="M1476 72 c-2 -4 -1 -14 5 -22 7 -12 9 -10 9 8 0 23 -5 28 -14 14z"></path>
</g>
</svg>