<!--?xml version="1.0" standalone="no"?--><svg version="1.0" xmlns="http://www.w3.org/2000/svg" width="300.000000pt" height="280.000000pt" viewBox="0 0 300.000000 280.000000" preserveAspectRatio="xMidYMid meet">
<metadata>
  <rdf:rdf xmlns:rdf="http://www.w3.org/1999/02/22-rdf-syntax-ns#" xmlns:rdfs="http://www.w3.org/2000/01/rdf-schema#" xmlns:dc="http://purl.org/dc/elements/1.1/">
    <rdf:description dc:title="thumbs up right hand" dc:publisher="Hiox" dc:date="2015-07-07" dc:format="image/svg+xml" dc:language="en">
      <dc:creator>
        <rdf:bag>
          <rdf:li>svgimages.com</rdf:li>
        </rdf:bag>
      </dc:creator>
    </rdf:description>
  </rdf:rdf>
</metadata>
<g transform="translate(0.000000,280.000000) scale(0.100000,-0.100000)" fill="#1F1B17" stroke="none">
<path stroke-width="20" class="node" id="node1" d="M1814 2762 c-105 -68 -169 -157 -210 -290 -13 -42 -24 -98 -24 -123
0 -93 30 -222 74 -321 24 -53 41 -100 38 -103 -3 -3 -21 -5 -39 -5 -19 0 -69
-7 -111 -16 -261 -52 -471 -165 -533 -286 -27 -53 -22 -141 12 -210 l23 -47
-29 -53 c-39 -71 -39 -133 -2 -211 16 -31 42 -66 60 -79 44 -30 47 -36 47 -92
0 -118 106 -226 250 -257 42 -9 51 -15 56 -37 12 -53 16 -63 40 -91 38 -46
109 -65 218 -59 51 3 108 12 130 22 24 10 67 16 115 16 47 0 103 8 146 20 39
11 120 32 180 46 189 43 239 65 333 146 32 28 34 28 163 28 111 0 131 2 136
16 14 38 -9 49 -114 52 l-99 3 0 74 c1 70 -1 76 -40 132 -34 48 -46 58 -70 58
-43 0 -42 -31 6 -94 62 -82 54 -130 -36 -217 -64 -61 -116 -84 -277 -120 -59
-14 -135 -33 -170 -44 -34 -11 -78 -21 -97 -22 l-35 -3 3 61 c4 59 2 63 -32
97 -42 42 -43 46 -16 89 37 60 16 141 -46 181 -35 23 -42 41 -22 53 6 4 20 -3
32 -17 101 -117 267 -145 402 -68 53 30 68 48 58 73 -10 27 -33 25 -90 -9
-101 -61 -204 -50 -293 30 -46 42 -48 49 -25 94 21 42 10 85 -29 115 -28 22
-30 27 -19 51 22 49 15 101 -19 140 l-32 36 28 56 c60 117 52 219 -24 328 -50
73 -91 146 -91 165 0 7 16 9 48 4 39 -5 52 -2 72 14 38 31 18 56 -51 62 -60 5
-101 27 -120 62 -21 38 -15 203 9 270 39 107 103 180 197 224 85 40 156 29
191 -29 15 -27 18 -46 14 -117 -3 -47 -4 -157 -4 -245 1 -135 5 -178 28 -275
31 -137 102 -288 172 -368 114 -130 310 -226 479 -234 87 -4 105 1 117 28 11
23 10 29 -12 46 -15 12 -34 18 -48 15 -13 -3 -57 -1 -99 4 -57 6 -96 19 -171
55 -279 136 -396 411 -377 885 8 194 0 234 -57 291 l-38 38 -108 0 -109 0 -59
-38z m-10 -944 c36 -59 24 -170 -27 -232 -22 -28 -24 -28 -53 -13 -35 18 -132
37 -190 37 -33 0 -51 7 -76 29 -74 64 -153 81 -153 32 0 -13 7 -27 15 -31 64
-30 68 -39 23 -54 -32 -10 -43 -23 -43 -49 0 -27 26 -31 87 -12 116 37 312 4
397 -67 60 -50 48 -82 -50 -131 -90 -45 -167 -60 -289 -54 -164 6 -281 59
-344 154 -44 66 -49 107 -21 160 68 128 358 250 602 252 101 1 108 0 122 -21z
m-620 -553 c112 -55 181 -68 321 -62 97 4 134 10 194 32 75 27 127 29 156 5
46 -38 -106 -168 -250 -213 -94 -29 -303 -32 -380 -4 -104 37 -163 100 -165
174 0 35 28 103 43 103 5 0 41 -16 81 -35z m599 -276 c33 -17 77 -61 77 -76 0
-54 -84 -116 -210 -154 -106 -32 -245 -33 -315 -1 -83 38 -145 109 -145 168 0
24 2 26 33 20 17 -4 84 -9 149 -13 124 -6 227 10 312 47 49 22 70 24 99 9z
m98 -296 c38 -71 -108 -152 -251 -139 -72 6 -109 27 -125 70 -12 35 -1 42 80
50 63 6 148 31 201 59 26 14 32 14 56 -1 14 -8 32 -26 39 -39z"></path>
</g>
<g transform="translate(0.000000,280.000000) scale(0.100000,-0.100000)" fill="#F9B30E" stroke="none">




















</g>
<g transform="translate(0.000000,280.000000) scale(0.100000,-0.100000)" fill="#FFFFFF" stroke="none">






</g>
</svg>