<!--?xml version="1.0" standalone="no"?--><svg version="1.0" xmlns="http://www.w3.org/2000/svg" width="288.000000pt" height="300.000000pt" viewBox="0 0 288.000000 300.000000" preserveAspectRatio="xMidYMid meet">
<metadata>
  <rdf:rdf xmlns:rdf="http://www.w3.org/1999/02/22-rdf-syntax-ns#" xmlns:rdfs="http://www.w3.org/2000/01/rdf-schema#" xmlns:dc="http://purl.org/dc/elements/1.1/">
    <rdf:description dc:title="thumbs up clipart outline" dc:publisher="Hiox" dc:date="2015-07-07" dc:format="image/svg+xml" dc:language="en">
      <dc:creator>
        <rdf:bag>
          <rdf:li>svgimages.com</rdf:li>
        </rdf:bag>
      </dc:creator>
    </rdf:description>
  </rdf:rdf>
</metadata>
<g transform="translate(0.000000,300.000000) scale(0.100000,-0.100000)" fill="#383737" stroke="none">
<path stroke-width="20" class="node" id="node1" d="M1050 2955 c-80 -25 -140 -115 -140 -208 0 -62 34 -181 80 -282 55
-121 64 -152 64 -230 1 -72 -2 -86 -32 -140 -18 -34 -66 -103 -107 -155 -113
-144 -142 -206 -161 -342 -8 -62 -22 -130 -31 -151 -35 -82 -172 -133 -321
-121 -70 6 -80 4 -105 -16 -18 -14 -27 -30 -25 -44 3 -19 10 -21 88 -24 57 -2
106 2 150 14 206 54 306 169 329 377 14 118 27 147 134 287 45 58 100 142 124
188 39 76 43 89 43 157 0 57 -7 92 -29 152 l-29 79 28 19 c32 22 40 41 40 102
0 47 -43 182 -62 194 -7 5 -32 9 -55 9 l-42 0 11 30 c12 37 38 45 120 37 42
-4 84 -17 136 -43 133 -65 213 -168 237 -304 23 -128 11 -189 -71 -351 -122
-241 -143 -396 -64 -463 58 -48 124 -45 300 15 132 45 233 55 419 41 205 -16
292 -48 373 -137 74 -81 101 -211 57 -281 -68 -111 -244 -175 -489 -178 -119
-1 -142 2 -195 22 -73 29 -122 73 -136 126 -20 73 4 124 71 152 83 35 280 56
400 43 79 -9 84 -8 107 13 12 12 23 31 23 43 0 19 -7 23 -46 29 -123 16 -313
0 -419 -36 -141 -49 -225 -147 -225 -266 0 -40 22 -87 62 -128 28 -30 29 -33
14 -56 -9 -13 -19 -47 -22 -74 -9 -67 -15 -76 -94 -139 -77 -63 -146 -92 -310
-131 -95 -23 -111 -24 -173 -13 -48 8 -72 8 -79 1 -16 -16 -2 -41 27 -52 40
-15 163 -12 225 6 30 8 73 20 95 25 65 16 199 86 248 129 25 22 49 40 54 39 4
0 25 -22 46 -50 35 -46 36 -50 22 -72 -8 -13 -21 -45 -29 -71 -13 -44 -13 -54
4 -110 l20 -61 -26 -19 c-35 -26 -74 -111 -74 -163 0 -53 -19 -67 -116 -89
-231 -50 -364 -44 -593 28 -110 35 -253 143 -301 227 -7 12 -22 11 -101 -7
-52 -12 -110 -24 -130 -27 -44 -7 -68 -30 -51 -47 9 -9 36 -8 108 2 l96 13 40
-46 c41 -48 162 -139 235 -176 23 -11 66 -26 95 -32 29 -6 73 -18 98 -27 34
-12 84 -16 205 -16 176 0 288 20 391 71 l52 26 33 -25 c83 -61 223 -94 366
-86 109 6 191 39 251 101 53 55 96 147 88 190 -5 30 -2 35 49 74 67 53 104
106 121 180 20 83 8 148 -37 197 -18 19 -18 20 -1 40 43 48 64 98 70 161 6 78
0 105 -34 145 l-27 31 25 27 c33 35 68 116 68 157 0 49 -18 132 -37 173 -9 20
-44 64 -78 98 -96 97 -192 124 -453 125 -175 0 -240 -10 -371 -57 -123 -44
-184 -51 -231 -27 -86 45 -76 173 33 395 79 161 97 213 104 300 16 185 -79
355 -247 442 -104 54 -194 67 -280 41z m12 -177 c20 -16 48 -96 55 -161 5 -37
2 -52 -12 -67 -10 -11 -24 -20 -30 -20 -11 0 -54 105 -68 165 -18 75 -18 75 5
85 31 12 32 12 50 -2z m1418 -1615 c33 -42 25 -129 -17 -180 -80 -101 -258
-151 -473 -134 -184 14 -270 75 -270 190 0 31 3 66 6 78 6 21 7 21 47 7 133
-48 449 -17 602 58 55 27 71 25 105 -19z m-36 -334 c22 -25 26 -41 26 -90 0
-33 -6 -74 -14 -92 -37 -90 -156 -138 -338 -138 -185 0 -316 58 -359 158 -22
52 -23 72 -7 108 10 22 16 25 37 20 111 -28 183 -36 281 -30 111 6 240 39 295
74 41 27 49 26 79 -10z m-622 -351 c69 -33 149 -48 263 -48 60 0 127 4 148 9
32 8 39 6 52 -12 8 -12 15 -29 15 -37 0 -26 -49 -94 -88 -120 -34 -24 -43 -25
-181 -25 -125 1 -155 4 -205 23 -125 46 -168 99 -146 181 6 23 20 50 32 61 21
19 23 19 47 3 14 -9 43 -25 63 -35z"></path>























</g>
<g transform="translate(0.000000,300.000000) scale(0.100000,-0.100000)" fill="#FFFFFF" stroke="none">

<path stroke-width="20" class="node" id="node26" d="M1012 2780 c-23 -10 -23 -10 -5 -85 14 -60 57 -165 68 -165 6 0 20 9
30 20 14 15 17 30 12 67 -7 65 -35 145 -55 161 -18 14 -19 14 -50 2z"></path>








</g>
</svg>