<!--?xml version="1.0" standalone="no"?--><svg version="1.0" xmlns="http://www.w3.org/2000/svg" width="300.000000pt" height="300.000000pt" viewBox="0 0 300.000000 300.000000" preserveAspectRatio="xMidYMid meet">
<metadata>
  <rdf:rdf xmlns:rdf="http://www.w3.org/1999/02/22-rdf-syntax-ns#" xmlns:rdfs="http://www.w3.org/2000/01/rdf-schema#" xmlns:dc="http://purl.org/dc/elements/1.1/">
    <rdf:description dc:title="thumbs up clipart brown" dc:publisher="Hiox" dc:date="2015-07-07" dc:format="image/svg+xml" dc:language="en">
      <dc:creator>
        <rdf:bag>
          <rdf:li>svgimages.com</rdf:li>
        </rdf:bag>
      </dc:creator>
    </rdf:description>
  </rdf:rdf>
</metadata>
<g transform="translate(0.000000,300.000000) scale(0.100000,-0.100000)" fill="#38271C" stroke="none">
<path stroke-width="20" class="node" id="node1" d="M465 2731 c-77 -39 -100 -74 -99 -156 0 -72 30 -174 94 -320 90 -206
115 -269 146 -361 26 -78 37 -129 39 -181 l3 -72 -86 -43 c-53 -27 -106 -63
-139 -95 -47 -46 -53 -56 -53 -93 0 -31 9 -55 34 -93 60 -91 59 -100 -18 -171
-63 -59 -66 -64 -66 -108 0 -54 17 -80 101 -144 69 -53 75 -80 33 -143 -50
-76 -39 -162 26 -196 50 -26 61 -51 54 -125 -5 -58 -3 -69 18 -100 33 -49 93
-78 206 -102 83 -17 124 -19 282 -15 330 8 465 51 541 173 18 29 24 55 26 107
2 60 5 72 31 98 41 42 54 97 50 200 -2 71 0 90 14 106 32 35 49 94 50 168 0
101 -25 181 -75 240 l-41 48 2 81 c4 123 -30 229 -92 288 -35 33 -111 67 -172
76 -63 10 -134 4 -236 -22 -35 -8 -76 -16 -93 -18 -29 -3 -30 -1 -33 41 -2 32
7 75 32 145 19 56 42 141 51 191 15 84 15 96 -1 180 -35 188 -142 343 -279
406 -62 29 -82 33 -180 36 -107 5 -112 4 -170 -26z m305 -77 c75 -34 161 -123
202 -210 16 -34 36 -99 45 -145 15 -79 15 -89 -3 -179 l-19 -95 -75 -6 c-81
-7 -108 -16 -155 -49 l-30 -21 55 8 c61 9 140 9 163 0 13 -5 13 -13 5 -49 -5
-24 -7 -73 -3 -110 6 -64 5 -68 -14 -68 -11 0 -61 -13 -111 -30 -129 -43 -125
-45 -127 48 -2 112 -13 151 -141 488 -73 190 -92 260 -92 330 0 61 24 99 73
114 54 16 160 4 227 -26z m591 -971 c35 -38 73 -134 82 -208 l3 -30 12 28 c16
39 15 99 -4 164 -9 30 -13 57 -10 60 3 3 26 -9 50 -28 59 -45 87 -108 93 -214
l5 -81 -73 -1 c-41 -1 -108 -9 -149 -17 -203 -42 -261 -49 -413 -50 -129 -1
-154 -3 -140 -14 72 -53 321 -60 563 -16 47 8 99 18 116 21 45 8 95 -12 133
-51 32 -33 34 -39 39 -125 4 -71 1 -101 -12 -136 -10 -25 -21 -45 -26 -45 -4
0 -25 8 -46 17 -33 15 -68 18 -214 17 -96 -1 -231 -8 -300 -16 -77 -9 -146
-12 -180 -8 -30 4 -57 6 -59 4 -9 -9 34 -44 67 -55 37 -12 123 -9 292 11 99
12 274 10 287 -4 4 -4 8 -50 8 -103 0 -90 0 -93 17 -74 16 21 38 102 38 141 0
24 3 24 41 5 51 -27 62 -88 33 -186 -24 -81 -32 -86 -91 -58 -41 20 -62 23
-143 23 -52 -1 -138 -9 -190 -18 -158 -29 -183 -30 -240 -11 -28 9 -54 14 -57
11 -3 -3 10 -21 30 -40 51 -48 110 -54 292 -32 242 28 286 22 321 -46 20 -38
13 -63 -29 -113 -39 -46 -103 -81 -165 -91 l-43 -7 30 34 c32 34 34 54 4 26
-10 -8 -50 -31 -88 -49 l-70 -33 -226 0 c-217 0 -228 1 -277 24 -62 29 -77 59
-68 136 7 66 -1 88 -53 149 -23 26 -41 55 -41 64 0 10 12 40 27 67 19 35 27
66 27 103 1 57 1 58 -83 123 -28 22 -34 35 -38 75 -5 48 -4 50 51 102 66 62
72 93 28 144 -81 95 -83 128 -11 199 28 27 55 49 60 49 6 0 30 13 54 30 23 16
63 34 87 39 24 6 57 17 74 26 16 8 45 18 64 21 19 4 87 20 150 36 276 71 304
72 361 11z"></path>
<path stroke-width="20" class="node" id="node2" d="M1524 1130 c-2 -111 0 -120 17 -120 25 0 49 50 49 102 0 43 -35 129
-55 135 -6 2 -11 -43 -11 -117z"></path>





</g>
<g transform="translate(0.000000,300.000000) scale(0.100000,-0.100000)" fill="#B9AEA3" stroke="none">

<path stroke-width="20" class="node" id="node9" d="M543 2680 c-49 -15 -73 -53 -73 -114 0 -70 19 -140 92 -330 128 -337
139 -376 141 -488 2 -93 -2 -91 127 -48 50 17 100 30 111 30 19 0 20 4 14 68
-4 37 -2 86 3 110 8 36 8 44 -5 49 -23 9 -102 9 -163 0 l-55 -8 30 21 c47 33
74 42 155 49 l75 6 19 95 c18 90 18 100 3 179 -43 225 -189 375 -375 386 -37
3 -81 0 -99 -5z"></path>
<path stroke-width="20" class="node" id="node10" d="M1175 1715 c-33 -7 -112 -27 -175 -43 -63 -16 -131 -32 -150 -36 -19
-3 -48 -13 -64 -21 -17 -9 -50 -20 -74 -26 -24 -5 -64 -23 -87 -39 -24 -17
-48 -30 -54 -30 -5 0 -32 -22 -60 -49 -72 -71 -70 -104 11 -199 44 -51 38 -82
-28 -144 -55 -52 -56 -54 -51 -102 4 -40 10 -53 38 -75 84 -65 84 -66 83 -123
0 -37 -8 -68 -27 -103 -15 -27 -27 -57 -27 -67 0 -9 18 -38 41 -64 52 -61 60
-83 53 -149 -9 -77 6 -107 68 -136 49 -23 60 -24 277 -24 l226 0 70 33 c38 18
78 41 88 49 30 28 28 8 -4 -26 l-30 -34 43 7 c62 10 126 45 165 91 42 50 49
75 29 113 -35 68 -79 74 -321 46 -182 -22 -241 -16 -292 32 -20 19 -33 37 -30
40 3 3 29 -2 57 -11 57 -19 82 -18 240 11 52 9 138 17 190 18 81 0 102 -3 143
-23 59 -28 67 -23 91 58 29 98 18 159 -33 186 -38 19 -41 19 -41 -5 0 -39 -22
-120 -38 -141 -17 -19 -17 -16 -17 74 0 53 -4 99 -8 103 -13 14 -188 16 -287
4 -169 -20 -255 -23 -292 -11 -33 11 -76 46 -67 55 2 2 29 0 59 -4 34 -4 103
-1 180 8 69 8 204 15 300 16 146 1 181 -2 214 -17 21 -9 42 -17 46 -17 5 0 16
20 26 45 13 35 16 65 12 136 -5 86 -7 92 -39 125 -38 39 -88 59 -133 51 -17
-3 -69 -13 -116 -21 -242 -44 -491 -37 -563 16 -14 11 11 13 140 14 152 1 210
8 413 50 41 8 108 16 149 17 l73 1 -5 81 c-6 106 -34 169 -93 214 -24 19 -47
31 -50 28 -3 -3 1 -30 10 -60 19 -65 20 -125 4 -164 l-12 -28 -3 30 c-9 74
-47 170 -82 208 -43 46 -90 54 -186 32z m393 -515 c37 -74 21 -190 -27 -190
-17 0 -19 9 -17 120 0 74 5 119 11 117 6 -2 20 -23 33 -47z"></path>



</g>
</svg>