<!--?xml version="1.0" standalone="no"?-->

<svg version="1.0" xmlns="http://www.w3.org/2000/svg" width="300.000000pt" height="286.000000pt" viewBox="0 0 300.000000 286.000000" preserveAspectRatio="xMidYMid meet">
<g transform="translate(0.000000,286.000000) scale(0.100000,-0.100000)" fill="#1F1F1F" stroke="none">
<path d="M1374 2783 c-31 -40 -159 -248 -172 -280 -4 -11 -74 -138 -157 -283
l-149 -265 -146 -72 c-80 -40 -190 -97 -245 -126 -55 -29 -140 -75 -190 -101
-148 -79 -170 -108 -179 -241 -10 -134 -55 -498 -72 -592 -9 -46 -13 -92 -9
-103 8 -24 54 -50 90 -50 32 0 31 -4 -5 -72 -27 -50 -76 -218 -99 -342 -7 -40
-6 -44 8 -36 37 20 231 229 258 278 l30 52 26 -37 c35 -51 107 -119 133 -127
13 -4 33 2 57 18 35 24 37 24 94 11 71 -17 211 -19 250 -4 18 8 94 11 213 10
193 -3 232 3 260 40 15 19 18 19 61 5 101 -34 291 -46 419 -25 78 12 156 40
228 81 l53 30 232 -6 c128 -3 266 -10 307 -15 l75 -10 49 52 c45 47 94 136
109 198 4 14 13 71 22 127 14 92 14 116 0 234 -17 147 -19 154 -48 253 -28 99
-52 141 -81 149 -14 3 -174 2 -355 -4 -324 -10 -332 -10 -388 11 -32 11 -69
24 -83 29 -37 12 -450 178 -485 195 -16 8 -79 35 -140 61 -206 87 -218 93
-210 112 9 25 254 453 319 557 30 50 72 123 93 163 l37 72 -33 34 c-31 32 -86
56 -128 56 -11 0 -33 -17 -49 -37z m97 -3 c20 -6 45 -20 55 -32 l19 -21 -40 6
-40 5 35 -16 c35 -17 36 -17 20 -44 -18 -33 -37 -35 -89 -9 -60 31 -65 43 -39
84 26 40 28 41 79 27z m-20 -155 c26 -9 24 -25 -4 -25 -23 0 -97 45 -97 59 0
19 14 18 47 -4 19 -13 43 -27 54 -30z m-60 -22 c32 -16 59 -30 59 -33 0 -3
-10 -18 -23 -34 -19 -24 -28 -27 -53 -22 -16 4 -42 18 -58 30 l-28 24 18 31
c10 17 20 31 23 31 2 0 30 -12 62 -27z m-56 -90 c60 -31 71 -49 24 -39 -34 6
-89 42 -89 57 0 13 5 12 65 -18z m-63 -28 c7 -7 -6 -31 -296 -542 -462 -810
-439 -772 -463 -787 -21 -12 -8 13 214 407 117 207 213 379 213 381 0 3 33 62
73 133 40 70 109 192 152 270 73 130 91 153 107 138z m85 -67 c-8 -13 -56 -97
-107 -188 -51 -91 -114 -201 -140 -245 -84 -141 -100 -169 -116 -200 -8 -16
-83 -149 -167 -294 -109 -189 -159 -266 -175 -272 -23 -9 -23 -8 6 44 28 48
359 626 406 709 11 20 76 134 144 252 95 167 127 216 143 216 18 0 18 -2 6
-22z m-522 -600 c-20 -35 -61 -109 -93 -165 -31 -57 -60 -103 -64 -103 -5 0
-8 15 -8 33 0 17 -9 50 -19 72 l-18 40 5 -83 c4 -77 2 -87 -26 -145 -30 -60
-86 -137 -100 -137 -4 0 -19 22 -35 49 -28 50 -123 145 -136 136 -4 -2 13 -26
38 -53 46 -49 91 -144 91 -190 0 -25 -34 -97 -50 -107 -6 -4 -19 0 -28 8 -36
32 -132 67 -132 48 0 -5 13 -14 29 -21 42 -17 101 -79 101 -106 0 -12 -26 -54
-58 -93 -32 -39 -72 -95 -90 -125 -31 -50 -33 -58 -23 -92 13 -46 9 -51 -47
-60 l-42 -7 16 39 c23 55 23 161 -1 201 -18 31 -18 36 -2 135 9 57 23 159 32
228 9 69 19 140 22 159 7 55 36 75 342 234 74 38 175 91 225 118 50 27 94 49
98 49 4 0 -8 -28 -27 -62z m410 -8 c77 -34 159 -70 182 -81 24 -10 46 -19 49
-19 3 0 20 -6 37 -14 35 -16 197 -83 292 -121 33 -13 115 -44 181 -68 l121
-45 239 9 c132 4 283 11 337 14 l97 7 21 -49 c30 -69 67 -243 75 -351 l7 -94
-392 8 c-272 5 -391 4 -391 -4 0 -6 40 -13 98 -16 53 -3 156 -11 227 -16 72
-5 177 -12 235 -15 58 -3 129 -8 158 -11 51 -5 52 -6 52 -37 -1 -81 -58 -234
-112 -300 l-23 -28 -115 11 c-63 6 -203 12 -310 13 -172 1 -199 -1 -230 -18
-100 -53 -140 -70 -195 -81 -104 -23 -341 -16 -437 12 -11 3 -18 15 -18 30 0
14 -7 40 -14 59 l-15 35 47 0 c62 0 232 25 307 45 133 35 256 117 295 196 7
16 -2 10 -27 -17 -138 -148 -375 -207 -615 -154 -87 19 -188 62 -188 80 0 6
15 10 33 10 79 1 200 43 245 87 20 19 7 16 -51 -13 -41 -22 -71 -28 -143 -32
-97 -5 -164 3 -164 18 0 6 11 10 23 10 34 0 128 34 183 66 85 50 179 160 199
234 3 14 -8 2 -25 -27 -38 -64 -126 -146 -192 -179 -69 -35 -188 -57 -265 -49
-89 9 -194 -21 -276 -80 -34 -25 -81 -59 -105 -76 -49 -35 -192 -89 -237 -89
l-30 0 40 23 c45 26 61 59 51 108 -9 49 -61 127 -89 135 -25 6 -74 -12 -117
-43 -29 -21 -25 -13 31 63 36 50 136 146 172 165 13 8 19 6 23 -8 12 -37 38
-94 45 -99 9 -5 6 16 -4 33 -4 6 -10 32 -13 56 -6 45 -6 46 32 65 22 10 73 29
114 41 89 27 159 64 256 136 76 57 152 141 139 153 -4 4 -10 1 -13 -6 -12 -35
-66 -81 -118 -101 -31 -12 -59 -20 -61 -17 -2 2 0 22 6 44 6 21 15 77 20 123
8 79 13 92 81 212 40 71 78 126 84 123 6 -2 74 -32 151 -66z m-1112 -875 c4
-8 2 -17 -3 -20 -6 -4 -10 3 -10 14 0 25 6 27 13 6z m346 -110 c10 -38 7 -41
-23 -26 -29 16 -46 51 -46 94 l1 32 30 -35 c16 -19 33 -48 38 -65z m-86 43 c6
-45 51 -98 82 -98 34 0 1 -46 -52 -73 -35 -18 -104 -29 -120 -19 -16 10 -53
91 -53 117 0 31 91 114 126 115 6 0 14 -19 17 -42z m-251 10 c7 -19 -12 -121
-24 -136 -19 -22 -28 7 -17 53 5 22 11 52 14 68 6 28 20 36 27 15z m776 -85
c15 -9 41 -29 59 -44 32 -27 32 -27 11 -41 -19 -12 -6 -14 99 -10 144 5 212
-10 258 -58 25 -26 30 -40 30 -80 0 -37 -5 -55 -21 -70 l-20 -21 0 73 1 73
-84 3 c-107 4 -121 -6 -121 -89 0 -36 5 -59 13 -62 6 -3 -29 -6 -79 -6 l-91
-1 1 68 c1 57 -3 74 -24 105 -28 41 -96 82 -152 92 -21 4 -38 12 -38 19 0 16
81 66 108 66 12 0 35 -8 50 -17z m-128 -99 c102 -24 160 -81 160 -158 0 -76
-89 -108 -242 -87 -111 14 -121 18 -114 45 3 11 6 51 6 88 l0 68 42 30 c47 34
59 35 148 14z m-554 -47 c-14 -23 -36 -62 -50 -87 -15 -26 -26 -37 -26 -27 0
23 82 167 92 161 5 -3 -3 -24 -16 -47z m334 -65 c0 -88 -22 -145 -59 -150 -17
-3 -21 2 -21 23 0 33 -30 92 -64 126 -24 24 -24 26 -7 41 10 8 40 20 67 25 89
19 84 22 84 -65z m-240 44 c0 -17 -85 -146 -96 -146 -21 0 -18 11 24 84 23 42
43 66 55 66 9 0 17 -2 17 -4z m990 -73 c0 -27 -4 -53 -8 -59 -8 -13 -95 -26
-116 -18 -10 4 -13 15 -9 40 4 22 0 42 -11 59 l-16 25 80 0 80 0 0 -47z m-930
17 c0 -5 -2 -10 -4 -10 -3 0 -8 5 -11 10 -3 6 -1 10 4 10 6 0 11 -4 11 -10z
m54 -40 c41 -63 32 -83 -14 -30 -29 33 -36 47 -28 57 14 17 12 19 42 -27z
m726 -7 c0 -12 -4 -25 -10 -28 -6 -4 -10 11 -10 37 0 31 3 39 10 28 5 -8 10
-25 10 -37z m-1015 -43 c16 0 75 -32 75 -42 0 -9 -100 -98 -110 -98 -18 0 -21
23 -10 73 18 80 23 93 27 80 3 -7 11 -13 18 -13z" id="node1" class="node"></path>
<path d="M659 628 c-7 -12 -13 -50 -13 -83 -1 -56 0 -60 29 -74 17 -8 60 -15
100 -15 l70 -1 9 78 c12 98 7 103 -101 112 -78 7 -82 6 -94 -17z m175 -18 c5
-5 5 -38 1 -74 l-7 -66 -41 0 c-23 0 -59 5 -81 11 l-38 11 21 22 c25 27 27 58
4 93 l-17 26 74 -7 c41 -4 79 -11 84 -16z m-144 -51 c0 -9 -7 -22 -15 -29 -12
-10 -15 -9 -15 6 0 11 3 30 7 42 4 18 8 20 14 10 5 -7 9 -20 9 -29z" id="node2" class="node"></path>
</g>
<g transform="translate(0.000000,286.000000) scale(0.100000,-0.100000)" fill="#ADCE4F" stroke="none">

<path d="M1392 2753 c-26 -41 -21 -53 39 -84 52 -26 71 -24 89 9 16 27 15 27
-20 44 l-35 16 40 -5 40 -6 -19 21 c-17 19 -74 43 -101 42 -5 -1 -20 -17 -33
-37z" id="node4" class="node"></path>
<path d="M1356 2672 c-12 -11 -5 -22 31 -47 37 -25 83 -34 83 -16 0 5 -9 12
-19 16 -11 3 -35 17 -54 30 -20 13 -38 21 -41 17z" id="node5" class="node"></path>
<path d="M1306 2599 l-18 -31 28 -24 c16 -12 42 -26 58 -30 25 -5 34 -2 53 22
13 16 23 31 23 34 0 5 -112 60 -121 60 -3 0 -13 -14 -23 -31z" id="node6" class="node"></path>
<path d="M1270 2531 c0 -15 55 -51 89 -57 47 -10 36 8 -24 39 -60 30 -65 31
-65 18z" id="node7" class="node"></path>
<path d="M1165 2347 c-43 -78 -112 -200 -152 -270 -40 -71 -73 -130 -73 -133
0 -2 -96 -174 -213 -381 -222 -394 -235 -419 -214 -407 24 15 1 -23 463 787
290 511 303 535 296 542 -16 15 -34 -8 -107 -138z" id="node8" class="node"></path>
<path d="M1208 2224 c-68 -118 -133 -232 -144 -252 -47 -83 -378 -661 -406
-709 -29 -52 -29 -53 -6 -44 16 6 66 83 175 272 84 145 159 278 167 294 16 31
32 59 116 200 26 44 89 154 140 245 51 91 99 175 107 188 12 20 12 22 -6 22
-16 0 -48 -49 -143 -216z" id="node9" class="node"></path>
<path d="M764 1831 c-50 -27 -151 -80 -225 -118 -306 -159 -335 -179 -342
-234 -3 -19 -13 -90 -22 -159 -9 -69 -23 -171 -32 -228 -16 -99 -16 -104 2
-135 24 -40 24 -146 1 -201 l-16 -39 42 7 c56 9 60 14 47 60 -10 34 -8 42 23
92 18 30 58 86 90 125 32 39 58 81 58 93 0 27 -59 89 -101 106 -16 7 -29 16
-29 21 0 19 96 -16 132 -48 9 -8 22 -12 28 -8 16 10 50 82 50 107 0 46 -45
141 -91 190 -25 27 -42 51 -38 53 13 9 108 -86 136 -136 16 -27 31 -49 35 -49
14 0 70 77 100 137 28 58 30 68 26 145 l-5 83 18 -40 c10 -22 19 -55 19 -72 0
-18 3 -33 8 -33 4 0 33 46 64 103 32 56 73 130 93 165 19 34 31 62 27 62 -4 0
-48 -22 -98 -49z" id="node10" class="node"></path>
<path d="M1010 1753 c-68 -120 -73 -133 -81 -212 -5 -46 -14 -102 -20 -123 -6
-22 -8 -42 -6 -44 2 -3 30 5 61 17 52 20 106 66 118 101 3 7 9 10 13 6 13 -12
-63 -96 -139 -153 -97 -72 -167 -109 -256 -136 -41 -12 -92 -31 -114 -41 -38
-19 -38 -20 -32 -65 3 -24 9 -50 13 -56 10 -17 13 -38 4 -33 -7 5 -33 62 -45
99 -4 14 -10 16 -23 8 -36 -19 -136 -115 -172 -165 -56 -76 -60 -84 -31 -63
43 31 92 49 117 43 28 -8 80 -86 89 -135 10 -49 -6 -82 -51 -108 l-40 -23 30
0 c45 0 188 54 237 89 24 17 71 51 105 76 82 59 187 89 276 80 77 -8 196 14
265 49 66 33 154 115 192 179 17 29 28 41 25 27 -20 -74 -114 -184 -199 -234
-55 -32 -149 -66 -183 -66 -12 0 -23 -4 -23 -10 0 -15 67 -23 164 -18 72 4
102 10 143 32 58 29 71 32 51 13 -45 -44 -166 -86 -245 -87 -18 0 -33 -4 -33
-10 0 -18 101 -61 188 -80 240 -53 477 6 615 154 25 27 34 33 27 17 -39 -79
-162 -161 -295 -196 -75 -20 -245 -45 -307 -45 l-47 0 15 -35 c7 -19 14 -45
14 -59 0 -15 7 -27 18 -30 96 -28 333 -35 437 -12 55 11 95 28 195 81 31 17
58 19 230 18 107 -1 247 -7 310 -13 l115 -11 23 28 c54 66 111 219 112 300 0
31 -1 32 -52 37 -29 3 -100 8 -158 11 -58 3 -163 10 -235 15 -71 5 -174 13
-227 16 -58 3 -98 10 -98 16 0 8 119 9 391 4 l392 -8 -7 94 c-8 108 -45 282
-75 351 l-21 49 -97 -7 c-54 -3 -205 -10 -337 -14 l-239 -9 -121 45 c-66 24
-148 55 -181 68 -95 38 -257 105 -292 121 -17 8 -34 14 -37 14 -3 0 -25 9 -49
19 -47 21 -316 140 -333 147 -6 3 -44 -52 -84 -123z" id="node11" class="node"></path>
<path d="M120 929 c0 -11 4 -18 10 -14 5 3 7 12 3 20 -7 21 -13 19 -13 -6z" id="node12" class="node"></path>
<path d="M410 893 c0 -43 17 -78 46 -94 13 -7 26 -10 27 -8 9 10 -15 67 -42
99 l-30 35 -1 -32z" id="node13" class="node"></path>
<path d="M345 898 c-38 -21 -95 -82 -95 -103 0 -26 37 -107 53 -117 16 -10 85
1 120 19 53 27 86 73 52 73 -31 0 -76 53 -82 98 -6 44 -14 49 -48 30z" id="node14" class="node"></path>
<path d="M115 863 c-3 -16 -9 -46 -14 -68 -11 -46 -2 -75 17 -53 12 15 31 117
24 136 -7 21 -21 13 -27 -15z" id="node15" class="node"></path>
<path d="M803 782 c-24 -15 -43 -32 -43 -38 0 -7 17 -15 38 -19 56 -10 124
-51 152 -92 21 -31 25 -48 24 -105 l-1 -68 91 1 c50 0 85 3 79 6 -8 3 -13 26
-13 62 0 83 14 93 121 89 l84 -3 -1 -73 0 -73 20 21 c16 15 21 33 21 70 0 40
-5 54 -30 80 -46 48 -114 63 -258 58 -105 -4 -118 -2 -99 10 21 14 21 14 -11
41 -82 69 -110 75 -174 33z" id="node16" class="node"></path>
<path d="M642 680 l-42 -30 0 -68 c0 -37 -3 -77 -6 -88 -7 -27 3 -31 114 -45
153 -21 242 11 242 87 0 77 -58 134 -160 158 -89 21 -101 20 -148 -14z m207
-55 c11 -11 12 -29 5 -92 l-9 -78 -70 1 c-40 0 -83 7 -100 15 -29 14 -30 18
-29 74 0 33 6 71 13 83 12 23 16 24 94 17 46 -4 88 -13 96 -20z" id="node17" class="node"></path>
<path d="M693 607 c23 -35 21 -66 -4 -93 l-21 -22 38 -11 c22 -6 58 -11 81
-11 l41 0 7 66 c4 36 4 69 -1 74 -5 5 -43 12 -84 16 l-74 7 17 -26z" id="node18" class="node"></path>
<path d="M667 578 c-4 -12 -7 -31 -7 -42 0 -15 3 -16 15 -6 17 14 19 38 6 58
-6 10 -10 8 -14 -10z" id="node19" class="node"></path>
<path d="M202 624 c-23 -40 -42 -81 -42 -91 0 -10 11 1 26 27 14 25 36 64 50
87 13 23 21 44 16 47 -4 2 -26 -29 -50 -70z" id="node20" class="node"></path>
<path d="M486 647 c-27 -5 -57 -17 -67 -25 -17 -15 -17 -17 7 -41 34 -34 64
-93 64 -126 0 -21 4 -26 21 -23 37 5 59 62 59 150 0 87 5 84 -84 65z" id="node21" class="node"></path>
<path d="M258 564 c-42 -73 -45 -84 -24 -84 11 0 96 129 96 146 0 2 -8 4 -17
4 -12 0 -32 -24 -55 -66z" id="node22" class="node"></path>
<path d="M1176 575 c11 -17 15 -37 11 -59 -4 -25 -1 -36 9 -40 21 -8 108 5
116 18 4 6 8 32 8 59 l0 47 -80 0 -80 0 16 -25z" id="node23" class="node"></path>
<path d="M375 570 c3 -5 8 -10 11 -10 2 0 4 5 4 10 0 6 -5 10 -11 10 -5 0 -7
-4 -4 -10z" id="node24" class="node"></path>
<path d="M402 557 c-8 -10 -1 -24 28 -57 46 -53 55 -33 14 30 -30 46 -28 44
-42 27z" id="node25" class="node"></path>
<path d="M1150 532 c0 -26 4 -41 10 -37 13 8 13 45 0 65 -7 11 -10 3 -10 -28z" id="node26" class="node"></path>
<path d="M127 485 c-28 -99 -30 -145 -7 -145 10 0 110 89 110 98 0 10 -59 42
-75 42 -7 0 -15 6 -18 13 -2 7 -6 4 -10 -8z" id="node27" class="node"></path>
</g>
</svg>