<!--?xml version="1.0" standalone="no"?-->

<svg version="1.0" xmlns="http://www.w3.org/2000/svg" width="300.000000pt" height="300.000000pt" viewBox="0 0 300.000000 300.000000" preserveAspectRatio="xMidYMid meet">
<g transform="translate(0.000000,300.000000) scale(0.100000,-0.100000)" fill="#080808" stroke="none">
<path class="node" id="node1" d="M1378 2681 c-27 -24 -33 -36 -33 -69 0 -26 7 -48 19 -61 19 -21 19
-22 -1 -44 -28 -30 -43 -61 -43 -87 0 -37 32 -91 64 -111 123 -75 259 89 160
192 l-28 29 22 23 c56 59 3 157 -84 157 -34 0 -51 -6 -76 -29z m111 -6 c72
-36 42 -135 -41 -135 -31 0 -78 38 -78 64 0 30 23 65 49 75 36 13 38 13 70 -4z
m35 -197 c24 -27 27 -37 23 -72 -10 -73 -95 -113 -154 -71 -57 40 -46 141 19
170 43 19 77 11 112 -27z"></path>
<path class="node" id="node2" d="M1020 2685 c0 -12 16 -15 83 -15 46 0 86 -3 89 -6 3 -3 -19 -60 -49
-127 -95 -213 -104 -237 -85 -237 12 0 40 53 100 189 45 104 82 193 82 200 0
7 -35 11 -110 11 -91 0 -110 -3 -110 -15z"></path>
<path class="node" id="node3" d="M1769 2658 c-134 -185 -151 -283 -60 -345 91 -61 211 4 211 114 0 73
-67 140 -132 131 -16 -3 -31 -1 -34 4 -3 4 13 33 35 65 45 61 49 73 26 73 -8
0 -29 -19 -46 -42z m65 -138 c60 -23 73 -133 21 -177 -66 -57 -175 -8 -175 79
0 32 7 47 34 74 36 36 71 43 120 24z"></path>
<path class="node" id="node4" d="M467 2119 c-86 -132 -128 -232 -162 -377 -21 -87 -20 -375 0 -474
105 -503 527 -872 1057 -920 375 -35 697 78 949 331 143 143 231 284 289 460
88 271 79 533 -30 806 -25 64 -119 230 -126 223 -1 -2 11 -77 28 -168 35 -194
33 -310 -6 -451 -54 -193 -163 -384 -278 -481 -201 -173 -435 -258 -708 -258
-335 0 -615 126 -805 362 -146 182 -218 357 -231 563 -7 92 1 138 67 390 10
38 16 71 14 73 -2 3 -28 -33 -58 -79z"></path>
<path class="node" id="node5" d="M1214 2035 c4 -11 25 -78 47 -149 34 -115 37 -132 24 -146 -8 -9 -64
-56 -125 -106 l-110 -89 163 -5 162 -5 52 -145 c28 -80 54 -149 56 -155 2 -5
14 24 26 65 12 41 28 93 35 115 8 22 19 59 25 83 l12 42 169 0 c150 0 198 7
158 23 -7 2 -68 46 -136 97 -95 71 -122 96 -116 109 3 9 17 43 29 76 12 33 34
89 48 125 15 35 24 66 22 68 -3 3 -63 -35 -135 -83 l-131 -87 -112 74 c-189
126 -172 116 -163 93z"></path>
</g>
<g transform="translate(0.000000,300.000000) scale(0.100000,-0.100000)" fill="#9F9F9F" stroke="none">




</g>
</svg>