<!--?xml version="1.0" standalone="no"?--><svg version="1.0" xmlns="http://www.w3.org/2000/svg" width="206.000000pt" height="300.000000pt" viewBox="0 0 206.000000 300.000000" preserveAspectRatio="xMidYMid meet">
<metadata>
  <rdf:rdf xmlns:rdf="http://www.w3.org/1999/02/22-rdf-syntax-ns#" xmlns:rdfs="http://www.w3.org/2000/01/rdf-schema#" xmlns:dc="http://purl.org/dc/elements/1.1/">
    <rdf:description dc:title="Christmas star awesome" dc:publisher="Hiox" dc:date="2015-12-16" dc:format="image/svg+xml" dc:language="en">
      <dc:creator>
        <rdf:bag>
          <rdf:li>svgimages.com</rdf:li>
        </rdf:bag>
      </dc:creator>
    </rdf:description>
  </rdf:rdf>
</metadata>
<g transform="translate(0.000000,300.000000) scale(0.100000,-0.100000)" fill="#090909" stroke="none">
<path class="node" id="node1" d="M973 2895 c-22 -73 -40 -137 -121 -440 l-48 -180 95 -199 96 -199 3
272 c1 149 1 394 0 544 l-3 272 -22 -70z"></path>
<path class="node" id="node2" d="M1058 2424 c-2 -296 -2 -541 -1 -543 1 -2 46 86 101 195 l99 199 -34
125 c-18 69 -40 150 -48 180 -32 118 -106 375 -110 379 -3 2 -6 -239 -7 -535z"></path>
<path class="node" id="node3" d="M697 2124 c171 -179 223 -231 223 -222 0 3 -38 83 -84 179 l-83 174
-79 14 c-43 7 -92 16 -109 19 -26 4 -8 -18 132 -164z"></path>
<path class="node" id="node4" d="M1397 2270 c-48 -10 -90 -19 -92 -22 -10 -10 -166 -341 -162 -344 2
-2 90 83 195 191 141 144 185 195 169 194 -12 -1 -62 -9 -110 -19z"></path>
<path class="node" id="node5" d="M1370 2055 c-107 -107 -192 -195 -188 -195 13 0 338 162 344 171 7
12 45 211 41 215 -1 2 -90 -84 -197 -191z"></path>
<path class="node" id="node6" d="M500 2225 c0 -11 9 -60 19 -109 l18 -89 174 -90 174 -90 -92 99
c-168 182 -293 300 -293 279z"></path>
<path class="node" id="node7" d="M450 1955 c-159 -64 -387 -158 -398 -164 -8 -4 179 -11 414 -14 236
-3 430 -4 432 -2 2 2 -85 48 -194 103 l-199 99 -55 -22z"></path>
<path class="node" id="node8" d="M1366 1884 c-104 -52 -194 -99 -200 -105 -8 -9 38 -10 188 -5 110 3
305 6 434 6 130 0 233 2 230 5 -2 3 -108 47 -234 98 l-229 94 -189 -93z"></path>
<path class="node" id="node9" d="M45 1710 c11 -4 120 -49 243 -99 l223 -91 197 100 197 99 -440 0
c-246 0 -431 -4 -420 -9z"></path>
<path class="node" id="node10" d="M1165 1710 c3 -5 10 -10 15 -10 4 0 90 -40 191 -89 l182 -90 36 15
c20 8 126 52 236 96 110 45 202 82 204 84 2 2 -192 4 -433 4 -289 0 -435 -3
-431 -10z"></path>
<path class="node" id="node11" d="M699 1555 l-165 -83 -19 -101 c-10 -56 -16 -103 -14 -106 3 -2 90 81
194 185 105 105 185 190 180 189 -6 0 -85 -38 -176 -84z"></path>
<path class="node" id="node12" d="M1180 1637 c0 -1 88 -90 196 -197 220 -219 204 -215 167 -42 l-15 74
-171 84 c-166 82 -177 87 -177 81z"></path>
<path class="node" id="node13" d="M887 1425 c-84 -160 -107 -212 -103 -231 4 -14 13 -64 22 -112 28
-162 85 -497 95 -557 15 -94 69 -374 83 -435 l13 -55 4 90 c2 50 2 409 -1 798
l-5 708 -108 -206z"></path>
<path class="node" id="node14" d="M1050 835 c0 -485 4 -795 9 -790 13 14 95 430 131 665 8 49 28 170
74 430 l15 85 -86 160 c-115 213 -123 228 -134 240 -5 5 -9 -312 -9 -790z"></path>
<path class="node" id="node15" d="M722 1403 c-94 -98 -173 -181 -176 -184 -8 -7 23 -3 120 17 l71 15
63 122 c35 67 74 141 88 165 13 23 20 42 14 42 -5 0 -86 -80 -180 -177z"></path>
<path class="node" id="node16" d="M1170 1540 c19 -38 150 -281 154 -287 3 -4 200 -42 203 -39 2 2 -83
86 -188 187 -167 160 -189 178 -169 139z"></path>
</g>
<g transform="translate(0.000000,300.000000) scale(0.100000,-0.100000)" fill="#38DB79" stroke="none">

</g>
</svg>