<!--?xml version="1.0" standalone="no"?-->

<svg version="1.0" xmlns="http://www.w3.org/2000/svg" width="300.000000pt" height="300.000000pt" viewBox="0 0 300.000000 300.000000" preserveAspectRatio="xMidYMid meet">
<g transform="translate(0.000000,300.000000) scale(0.100000,-0.100000)" fill="#242422" stroke="none">
<path d="M1795 2752 c-115 -64 -160 -96 -231 -168 -45 -45 -85 -92 -89 -104
-4 -12 -20 -41 -36 -65 -16 -24 -29 -48 -29 -55 0 -7 -6 -24 -14 -38 -41 -80
-61 -304 -35 -393 15 -49 1 -69 -50 -69 -20 0 -49 -7 -65 -15 -15 -8 -36 -15
-45 -15 -9 0 -25 -6 -36 -14 -11 -7 -32 -16 -48 -20 -71 -17 -257 -157 -327
-245 l-35 -44 -105 -2 c-119 -2 -162 -13 -312 -84 -67 -32 -165 -117 -213
-184 -29 -42 -94 -170 -95 -187 0 -8 -7 -28 -15 -44 -11 -21 -15 -63 -15 -167
0 -76 4 -140 9 -143 4 -3 11 -20 15 -38 15 -77 85 -195 164 -276 43 -44 89
-83 102 -87 13 -4 41 -20 63 -36 22 -16 50 -29 62 -29 11 0 26 -5 32 -11 16
-16 142 -39 218 -39 38 0 104 9 145 19 41 10 81 16 90 13 8 -3 40 -25 70 -47
78 -59 194 -112 302 -139 25 -6 50 -14 54 -19 10 -9 338 -9 348 0 4 5 29 13
54 19 108 27 224 80 302 139 30 22 62 44 70 47 9 3 49 -3 90 -13 41 -10 107
-19 145 -19 76 0 202 23 218 39 6 6 21 11 32 11 12 0 40 13 62 29 22 16 50 32
63 36 13 4 59 43 102 87 79 81 149 199 164 276 4 18 11 35 15 38 5 3 9 67 9
143 0 104 -4 146 -15 167 -8 16 -15 37 -15 46 0 9 -4 19 -9 22 -5 3 -12 17
-15 31 -12 48 -84 154 -134 199 -13 12 -40 35 -59 53 -20 17 -48 37 -62 44
-14 7 -33 18 -41 25 -8 6 -27 14 -42 18 -16 3 -28 11 -28 17 0 6 33 47 74 91
77 83 166 239 166 289 0 13 -14 41 -31 62 -25 31 -37 37 -67 37 -20 0 -55 -7
-77 -15 -57 -20 -240 -20 -302 1 -111 37 -217 108 -275 185 -43 56 -98 165
-98 195 0 13 -4 26 -10 29 -16 10 -12 213 5 260 21 58 18 104 -7 142 -22 31
-27 33 -78 32 -31 0 -68 -8 -85 -17z m-48 -312 c5 -82 17 -152 34 -205 27 -81
63 -158 83 -174 9 -7 16 -19 16 -26 0 -21 119 -143 184 -189 81 -57 209 -116
252 -116 14 0 34 -5 46 -11 11 -6 50 -12 86 -14 36 -1 68 -7 70 -13 8 -26
-218 -162 -271 -162 -15 0 -31 9 -40 24 -29 44 -210 186 -277 218 -122 57
-208 88 -247 88 -13 0 -43 5 -68 12 -58 16 -60 24 -59 198 l0 135 43 88 c70
142 143 215 148 147z m-2 -801 c161 -65 281 -159 370 -292 22 -32 42 -60 45
-62 3 -2 44 3 90 11 266 47 506 -121 550 -383 13 -80 0 -197 -26 -240 -8 -12
-14 -27 -14 -33 0 -15 -71 -109 -106 -141 -74 -68 -207 -119 -310 -119 -67 0
-174 29 -229 61 -19 12 -39 19 -44 17 -5 -1 -40 -32 -78 -68 -63 -60 -158
-117 -278 -166 -59 -24 -208 -35 -307 -23 -102 12 -112 16 -243 80 -62 31
-110 64 -158 109 -38 36 -73 67 -78 68 -5 2 -25 -5 -44 -17 -55 -32 -162 -61
-229 -61 -103 0 -236 51 -310 119 -35 32 -106 126 -106 141 0 6 -6 21 -14 33
-7 12 -19 56 -26 99 -41 248 132 484 386 528 69 12 107 10 232 -16 18 -4 28 6
59 53 49 78 163 189 241 236 35 20 69 37 75 37 7 0 21 6 32 13 20 14 76 32
150 47 22 5 96 7 165 5 113 -3 133 -7 205 -36z" id="node1" class="node"></path>
</g>
<g transform="translate(0.000000,300.000000) scale(0.100000,-0.100000)" fill="#FFFFFF" stroke="none">

<path d="M1679 2425 c-20 -24 -56 -83 -80 -132 l-43 -88 0 -135 c-1 -174 1
-182 59 -198 25 -7 55 -12 68 -12 39 0 125 -31 247 -88 67 -32 248 -174 277
-218 9 -15 25 -24 40 -24 53 0 279 136 271 162 -2 6 -34 12 -70 13 -36 2 -75
8 -86 14 -12 6 -32 11 -46 11 -43 0 -171 59 -252 116 -65 46 -184 168 -184
189 0 7 -7 19 -16 26 -20 16 -56 93 -83 174 -17 53 -29 123 -34 205 -3 39 -29
33 -68 -15z" id="node3" class="node"></path>
<path d="M1375 1670 c-74 -15 -130 -33 -150 -47 -11 -7 -25 -13 -32 -13 -6 0
-40 -17 -75 -37 -78 -47 -192 -158 -241 -236 -31 -47 -41 -57 -59 -53 -125 26
-163 28 -232 16 -254 -44 -427 -280 -386 -528 7 -43 19 -87 26 -99 8 -12 14
-27 14 -33 0 -15 71 -109 106 -141 74 -68 207 -119 310 -119 67 0 174 29 229
61 19 12 39 19 44 17 5 -1 40 -32 78 -68 63 -60 158 -117 278 -166 59 -24 208
-35 308 -23 101 12 111 16 242 80 62 31 110 64 158 109 38 36 73 67 78 68 5 2
25 -5 44 -17 55 -32 162 -61 229 -61 103 0 236 51 310 119 35 32 106 126 106
141 0 6 6 21 14 33 7 12 19 55 26 95 42 251 -134 492 -390 532 -62 9 -90 9
-160 -4 -46 -8 -87 -13 -90 -11 -3 2 -23 30 -45 62 -89 133 -209 227 -370 292
-72 29 -92 33 -205 36 -69 2 -143 0 -165 -5z" id="node4" class="node"></path>


</g>
</svg>