<!--?xml version="1.0" standalone="no"?-->

<svg version="1.0" xmlns="http://www.w3.org/2000/svg" width="300.000000pt" height="300.000000pt" viewBox="0 0 300.000000 300.000000" preserveAspectRatio="xMidYMid meet">
<g transform="translate(0.000000,300.000000) scale(0.100000,-0.100000)" fill="#0C0C0C" stroke="none">
<path d="M1463 2788 c-12 -51 -32 -140 -44 -198 -41 -199 -78 -334 -97 -359
-10 -14 -31 -27 -45 -29 -32 -4 -36 13 -7 28 25 14 26 42 1 64 -18 16 -22 16
-50 2 -56 -30 -67 -84 -26 -128 36 -39 68 -44 124 -22 55 23 95 83 138 206 16
43 32 77 37 75 5 -2 20 -33 32 -70 28 -84 77 -170 111 -196 58 -46 131 -34
166 27 17 28 17 37 7 63 -7 17 -24 37 -36 46 -51 33 -111 -21 -65 -58 11 -9
21 -22 21 -28 0 -19 -38 -12 -59 11 -32 34 -45 83 -122 453 -28 135 -48 205
-57 205 -5 0 -18 -42 -29 -92z" id="node1" class="node"></path>
<path d="M1458 2255 c-14 -35 -23 -67 -20 -70 6 -6 132 -7 132 -1 0 3 -13 24
-29 48 -16 24 -32 53 -35 66 -4 12 -11 22 -15 22 -4 0 -19 -29 -33 -65z" id="node2" class="node"></path>
<path d="M709 2278 c10 -25 71 -150 145 -297 46 -91 48 -93 67 -75 26 23 25
33 -16 125 -19 44 -35 82 -35 84 0 11 22 3 94 -30 42 -19 80 -35 84 -35 16 0
46 40 36 49 -5 5 -93 52 -197 106 -160 82 -186 93 -178 73z" id="node3" class="node"></path>
<path d="M2093 2199 c-139 -69 -183 -96 -183 -110 0 -38 32 -39 113 -3 114 50
114 51 61 -63 -30 -67 -34 -80 -23 -100 14 -26 22 -28 36 -10 12 15 193 364
193 372 0 11 -20 2 -197 -86z" id="node4" class="node"></path>
<path d="M1440 2053 c-17 -88 -23 -98 -71 -112 -24 -7 -64 -23 -87 -37 l-44
-24 -60 40 c-32 22 -64 40 -71 40 -15 0 -67 -51 -67 -67 0 -7 16 -37 35 -67
36 -57 43 -84 24 -103 -6 -6 -21 -39 -34 -74 -24 -69 -36 -77 -137 -94 l-38
-6 0 -54 0 -53 70 -13 c39 -7 74 -17 79 -23 5 -6 16 -34 25 -62 9 -28 23 -60
31 -70 22 -30 18 -55 -20 -113 -19 -29 -35 -58 -35 -65 0 -15 52 -66 66 -66 6
0 38 18 71 39 l60 39 59 -29 c33 -16 73 -31 91 -35 33 -6 32 -5 53 -106 l11
-58 54 0 53 0 12 65 c7 35 17 70 24 78 6 8 34 22 61 32 28 10 64 26 82 37 l32
19 55 -36 c79 -50 82 -51 117 -16 35 35 34 38 -15 115 l-35 55 29 58 c17 32
33 73 36 90 6 31 9 33 85 49 l79 17 0 49 c0 55 -4 58 -100 77 -55 11 -56 12
-69 58 -8 25 -24 65 -37 89 l-23 44 39 63 c22 34 40 67 40 72 0 14 -55 65 -71
65 -7 0 -20 -6 -28 -14 -9 -7 -36 -25 -61 -39 l-46 -26 -29 19 c-17 11 -52 27
-80 36 -27 9 -55 20 -61 25 -6 5 -16 40 -23 79 l-13 70 -53 0 -54 0 -11 -57z
m155 -485 c38 -45 35 -106 -9 -152 -29 -32 -39 -36 -83 -36 -41 0 -53 5 -74
28 -52 56 -54 121 -6 169 49 50 126 46 172 -9z" id="node5" class="node"></path>
<path d="M950 2020 c23 -46 30 -48 55 -20 21 23 21 22 -22 44 -49 25 -55 20
-33 -24z" id="node6" class="node"></path>
<path d="M2012 2038 l-43 -21 22 -23 c12 -13 25 -21 29 -19 10 6 43 76 38 80
-1 2 -22 -6 -46 -17z" id="node7" class="node"></path>
<path d="M738 1823 c-54 -34 -60 -79 -14 -107 14 -9 22 -5 41 19 22 26 25 27
31 11 18 -47 -46 -87 -194 -121 -64 -14 -135 -30 -157 -35 -70 -17 -316 -70
-320 -70 -3 0 -5 -4 -5 -9 0 -11 65 -30 205 -59 55 -12 156 -34 225 -48 183
-39 264 -83 245 -132 -5 -13 -10 -11 -29 13 -21 27 -26 28 -50 17 -38 -17 -36
-62 5 -96 17 -14 38 -26 47 -26 30 0 81 38 88 65 24 98 -57 179 -234 235 -29
9 -53 20 -53 25 0 5 33 20 73 35 166 61 218 108 218 198 0 33 -6 45 -35 71
-41 35 -50 37 -87 14z" id="node8" class="node"></path>
<path d="M2175 1809 c-29 -26 -35 -38 -35 -71 0 -44 17 -83 52 -115 27 -26
133 -76 196 -92 40 -11 60 -41 27 -41 -9 0 -52 -14 -97 -31 -58 -23 -94 -44
-129 -78 -44 -42 -49 -52 -49 -90 0 -53 12 -77 50 -96 41 -21 58 -19 91 14 38
38 39 77 3 93 -24 11 -29 10 -48 -15 -23 -28 -36 -27 -36 3 0 24 38 54 90 72
42 15 173 46 355 83 122 25 235 56 235 65 0 4 -10 10 -22 12 -13 3 -97 21
-188 42 -421 93 -443 100 -462 142 -6 12 -7 31 -4 41 7 16 9 15 28 -9 23 -33
39 -35 63 -8 15 16 16 24 6 48 -11 27 -56 62 -80 62 -6 0 -26 -14 -46 -31z" id="node9" class="node"></path>
<path d="M745 1544 c-27 -13 -56 -24 -62 -24 -25 0 -13 -16 21 -28 19 -7 50
-24 70 -37 l36 -24 0 69 c0 39 -3 70 -7 69 -5 0 -30 -11 -58 -25z" id="node10" class="node"></path>
<path d="M2190 1499 l0 -68 34 23 c19 12 48 29 65 36 17 7 31 16 31 20 0 3
-29 18 -65 32 l-65 26 0 -69z" id="node11" class="node"></path>
<path d="M801 939 c-56 -105 -101 -195 -99 -200 4 -12 398 182 398 196 0 6
-11 18 -25 25 -22 12 -33 9 -104 -18 -79 -32 -101 -37 -101 -26 0 3 16 39 35
81 40 88 41 94 16 117 -18 16 -22 10 -120 -175z" id="node12" class="node"></path>
<path d="M2058 1094 c-15 -15 -14 -22 17 -90 44 -97 49 -114 34 -114 -7 0 -51
16 -97 36 -66 29 -86 33 -97 24 -22 -18 -18 -33 14 -51 102 -59 361 -189 361
-182 -1 16 -196 387 -206 390 -5 2 -17 -4 -26 -13z" id="node13" class="node"></path>
<path d="M950 1020 c-12 -23 -19 -44 -17 -46 8 -8 77 29 77 41 0 7 -9 20 -19
29 -19 17 -20 16 -41 -24z" id="node14" class="node"></path>
<path d="M1986 1021 c-22 -24 -14 -39 30 -57 46 -19 46 -19 22 31 -12 25 -25
45 -28 45 -4 0 -15 -9 -24 -19z" id="node15" class="node"></path>
<path d="M1200 832 c-20 -20 -30 -40 -30 -60 0 -36 40 -82 73 -82 47 0 63 47
25 74 -27 19 -13 38 19 25 47 -18 68 -78 132 -389 41 -196 64 -281 75 -277 12
4 30 76 71 272 47 227 57 268 76 322 20 51 49 83 76 83 20 0 15 -28 -7 -40
-27 -15 -25 -46 5 -66 22 -14 26 -14 54 2 108 64 4 208 -107 150 -54 -28 -108
-114 -141 -225 -9 -30 -21 -56 -27 -58 -5 -2 -20 27 -32 64 -29 89 -80 182
-113 206 -15 10 -47 22 -72 24 -41 5 -49 2 -77 -25z" id="node16" class="node"></path>
<path d="M1433 798 c4 -7 16 -39 29 -70 13 -32 25 -58 29 -58 3 0 15 21 27 48
11 26 29 57 38 70 l16 22 -72 0 c-54 0 -71 -3 -67 -12z" id="node17" class="node"></path>
</g>
<g transform="translate(0.000000,300.000000) scale(0.100000,-0.100000)" fill="#A1A1A1" stroke="none">

<path d="M1481 1609 c-43 -9 -81 -47 -90 -90 -9 -40 3 -73 38 -111 21 -23 33
-28 74 -28 44 0 54 4 83 36 28 29 34 43 34 79 0 76 -65 130 -139 114z" id="node19" class="node"></path>
</g>
</svg>