<!--?xml version="1.0" standalone="no"?-->

<svg xmlns="http://www.w3.org/2000/svg" width="300.000000pt" height="282.000000pt" viewBox="0 0 300.000000 282.000000" preserveAspectRatio="xMidYMid meet">
<g transform="translate(0.000000,282.000000) scale(0.100000,-0.100000)" fill="#040404" stroke="none">
<path style="position: relative;" class="node" id="node1" d="M1491 2799 c-5 -13 -28 -74 -50 -136 -51 -143 -82 -203 -143 -280
-52 -66 -120 -114 -190 -134 -87 -25 -281 -11 -381 27 -73 28 -89 14 -29 -26
238 -158 437 -333 519 -455 119 -178 185 -373 254 -757 13 -71 26 -128 30
-128 3 0 16 55 29 123 57 314 100 466 176 622 63 131 126 217 234 318 73 69
274 222 363 276 20 12 37 27 37 33 0 11 -9 9 -100 -17 -131 -37 -297 -37 -386
0 -89 37 -173 124 -231 240 -17 33 -50 116 -73 185 -24 69 -44 127 -46 129 -2
2 -8 -7 -13 -20z"></path>
<path style="position: relative;" class="node" id="node2" d="M360 2393 c-164 -180 -289 -428 -330 -657 -32 -177 -33 -238 -11
-391 32 -217 97 -387 215 -564 241 -362 655 -643 1106 -750 44 -11 84 -22 90
-26 25 -16 25 14 -1 139 -52 247 -84 348 -149 477 -102 205 -214 302 -630 546
-35 21 -103 76 -150 123 -69 69 -93 102 -128 174 -118 238 -108 531 29 904 17
46 29 86 26 88 -2 3 -32 -26 -67 -63z"></path>
<path style="position: relative;" class="node" id="node3" d="M2575 2433 c31 -75 91 -264 106 -338 11 -49 22 -151 26 -225 7 -173
-10 -267 -75 -399 -69 -142 -157 -226 -382 -365 -267 -165 -353 -232 -439
-339 -113 -143 -167 -280 -236 -607 -30 -141 -32 -165 -7 -155 9 4 53 16 97
26 179 43 439 156 600 261 366 237 625 590 699 953 30 151 38 266 26 371 -30
258 -88 419 -218 613 -86 126 -225 270 -197 204z"></path>
</g>
<g transform="translate(0.000000,282.000000) scale(0.100000,-0.100000)" fill="#A1A1A1" stroke="none">



</g>
</svg>