<!--?xml version="1.0" standalone="no"?--><svg version="1.0" xmlns="http://www.w3.org/2000/svg" width="300.000000pt" height="300.000000pt" viewBox="0 0 300.000000 300.000000" preserveAspectRatio="xMidYMid meet">
<metadata>
  <rdf:rdf xmlns:rdf="http://www.w3.org/1999/02/22-rdf-syntax-ns#" xmlns:rdfs="http://www.w3.org/2000/01/rdf-schema#" xmlns:dc="http://purl.org/dc/elements/1.1/">
    <rdf:description dc:title="meta-title" dc:publisher="Hiox" dc:date="2016-02-19" dc:format="image/svg+xml" dc:language="en">
      <dc:creator>
        <rdf:bag>
          <rdf:li>svgimages.com</rdf:li>
        </rdf:bag>
      </dc:creator>
    </rdf:description>
  </rdf:rdf>
</metadata>
<g transform="translate(0.000000,300.000000) scale(0.100000,-0.100000)" fill="#0E0E0E" stroke="none">
<path d="M1497 2760 c-3 -8 -8 -32 -11 -54 -3 -21 -8 -41 -11 -44 -3 -3 -21 2
-40 11 -40 19 -41 17 -19 -24 8 -17 14 -32 12 -33 -2 -1 -19 -9 -38 -17 l-35
-16 38 -12 c20 -7 37 -15 37 -17 0 -3 -7 -19 -16 -36 -15 -29 -15 -31 2 -23
50 20 62 18 69 -14 10 -47 0 -63 -60 -96 l-56 -30 3 -79 3 -80 55 -32 c30 -18
62 -33 70 -33 8 0 40 15 70 33 l55 32 3 80 3 79 -56 30 c-60 32 -70 49 -60 96
7 32 16 33 70 13 16 -6 16 -5 1 24 -9 17 -16 33 -16 36 0 2 17 10 37 17 l38
12 -35 16 c-19 8 -36 16 -38 17 -2 1 4 16 12 33 22 41 21 43 -19 24 -19 -9
-38 -14 -41 -10 -3 3 -9 30 -13 59 -4 29 -10 46 -14 38z" id="node1" class="node"></path>
<path d="M586 2410 c41 -45 74 -96 74 -115 0 -2 -13 -6 -30 -10 -41 -9 -46
-22 -10 -30 40 -9 44 -18 24 -56 -15 -31 -15 -32 2 -24 50 20 61 18 74 -17 8
-22 14 -28 17 -18 23 63 22 61 45 49 50 -25 56 -45 39 -115 l-15 -65 54 -54
55 -54 69 19 c38 11 71 21 73 23 2 2 12 35 23 73 l19 69 -54 55 -54 54 -65
-15 c-70 -17 -90 -11 -115 39 -12 23 -14 22 49 45 10 3 4 9 -18 17 -35 13 -37
24 -17 74 8 17 7 17 -24 2 -38 -20 -47 -16 -56 24 -8 36 -21 31 -30 -10 -4
-17 -8 -30 -10 -30 -19 0 -70 33 -115 74 l-55 51 51 -55z" id="node2" class="node"></path>
<path d="M1106 2433 c4 -16 25 -71 47 -123 26 -60 43 -119 48 -160 6 -57 17
-82 89 -208 46 -78 84 -141 86 -139 2 2 -16 74 -39 160 -37 135 -48 164 -82
207 -21 27 -55 89 -75 137 -53 131 -90 194 -74 126z" id="node3" class="node"></path>
<path d="M1864 2400 c-17 -36 -42 -92 -54 -125 -13 -33 -41 -80 -61 -105 -38
-45 -41 -54 -119 -349 -5 -18 -6 -31 -3 -28 3 4 43 73 89 154 65 116 84 157
84 188 1 42 15 86 69 218 41 99 37 134 -5 47z" id="node4" class="node"></path>
<path d="M2414 2419 c-30 -33 -97 -79 -113 -79 -5 0 -12 13 -16 30 -9 41 -22
46 -30 10 -9 -40 -18 -44 -56 -24 -31 15 -32 15 -24 -2 20 -50 18 -61 -17 -73
l-33 -12 37 -16 c34 -13 37 -17 26 -36 -6 -12 -20 -28 -31 -37 -18 -15 -26
-15 -84 -1 l-64 15 -54 -54 -54 -55 19 -69 c11 -38 21 -71 24 -73 2 -3 36 -13
74 -23 l70 -18 53 54 53 54 -15 64 c-18 72 -13 88 31 111 28 14 28 14 43 -23
l15 -37 16 38 15 38 30 -16 c41 -21 44 -19 26 15 -19 37 -14 46 25 55 36 8 31
21 -10 30 -17 4 -30 8 -30 10 0 20 28 65 66 105 26 28 45 50 42 50 -2 0 -17
-14 -34 -31z" id="node5" class="node"></path>
<path d="M1457 1976 l-37 -125 37 -125 c21 -69 40 -126 43 -126 3 0 22 57 43
126 l37 125 -37 125 c-21 68 -40 124 -43 124 -4 0 -23 -56 -43 -124z" id="node6" class="node"></path>
<path d="M1130 1812 l64 -122 115 -59 c63 -33 116 -59 118 -58 1 2 -25 55 -58
118 l-59 115 -122 64 -121 63 63 -121z" id="node7" class="node"></path>
<path d="M1809 1868 l-117 -61 -61 -115 c-33 -64 -59 -117 -58 -119 2 -1 55
25 119 58 l115 61 62 119 c34 65 61 119 59 119 -2 0 -55 -28 -119 -62z" id="node8" class="node"></path>
<path d="M540 1895 c0 -8 61 -38 153 -75 48 -20 110 -54 137 -75 43 -34 72
-45 207 -82 87 -23 159 -40 161 -38 4 4 -256 151 -292 165 -15 5 -45 10 -66
10 -23 0 -80 18 -142 44 -101 43 -158 61 -158 51z" id="node9" class="node"></path>
<path d="M2395 1880 c-27 -9 -77 -30 -110 -45 -33 -15 -91 -31 -129 -36 -60
-8 -87 -19 -212 -91 -78 -46 -141 -84 -139 -86 1 -2 75 17 163 41 135 37 167
50 205 81 24 20 87 54 138 75 148 60 213 108 84 61z" id="node10" class="node"></path>
<path d="M400 1609 c-7 -19 -15 -35 -16 -37 -1 -2 -16 4 -33 12 -41 22 -43 21
-24 -19 9 -19 14 -37 11 -40 -3 -3 -23 -8 -44 -11 -66 -10 -71 -17 -16 -25 29
-4 56 -10 59 -13 4 -3 -1 -22 -10 -41 -19 -40 -17 -41 24 -19 17 8 32 14 33
12 1 -2 9 -19 17 -38 l16 -35 12 38 c7 20 15 37 17 37 3 0 19 -7 36 -16 29
-15 30 -15 24 1 -20 54 -19 63 13 70 47 10 64 0 96 -60 l29 -55 78 0 78 0 30
48 c46 71 46 83 8 149 l-34 58 -80 3 -79 3 -30 -56 c-33 -60 -49 -70 -96 -60
-32 7 -34 19 -14 69 8 17 7 17 -24 1 -38 -19 -35 -20 -53 24 l-14 35 -14 -35z" id="node11" class="node"></path>
<path d="M2571 1607 c-7 -20 -15 -37 -17 -37 -3 0 -19 7 -36 16 -29 15 -31 15
-23 -2 20 -50 18 -62 -14 -69 -47 -10 -63 0 -96 60 l-30 56 -79 -3 -80 -3 -32
-55 c-18 -30 -33 -62 -33 -70 0 -8 15 -40 33 -70 l32 -55 80 -3 79 -3 30 56
c32 60 49 70 96 60 32 -7 33 -16 13 -70 -6 -16 -5 -16 24 -1 17 9 33 16 36 16
2 0 10 -17 17 -37 l12 -38 16 35 c8 19 16 36 17 38 1 2 16 -4 33 -12 42 -22
44 -21 25 16 -15 30 -15 32 2 45 10 7 35 13 56 13 56 0 46 17 -12 22 -28 3
-53 8 -57 12 -4 3 1 22 10 41 19 40 17 41 -24 19 -17 -8 -32 -14 -33 -12 -1 2
-9 19 -17 38 l-16 35 -12 -38z" id="node12" class="node"></path>
<path d="M1018 1542 c-65 -20 -118 -39 -118 -42 0 -3 56 -22 124 -43 l125 -37
125 37 c69 21 126 40 126 43 0 5 -251 82 -260 79 -3 0 -58 -17 -122 -37z" id="node13" class="node"></path>
<path d="M1485 1570 c-3 -5 -15 -10 -26 -10 -12 0 -19 -7 -19 -18 0 -10 -5
-23 -10 -28 -7 -7 -6 -19 4 -38 17 -34 65 -61 80 -46 5 5 18 10 28 10 11 0 18
7 18 18 0 10 5 23 10 28 15 15 -12 63 -45 80 -32 17 -32 17 -40 4z" id="node14" class="node"></path>
<path d="M1718 1541 c-65 -20 -118 -38 -118 -41 0 -3 56 -22 125 -43 l125 -38
125 37 c69 21 125 40 125 44 0 6 -241 81 -256 79 -5 -1 -62 -17 -126 -38z" id="node15" class="node"></path>
<path d="M1304 1368 l-111 -60 -63 -120 -63 -121 121 63 120 62 58 111 c71
135 68 127 57 126 -4 -1 -58 -28 -119 -61z" id="node16" class="node"></path>
<path d="M1571 1424 c2 -5 30 -59 61 -119 l58 -111 121 -63 122 -64 -63 121
-63 121 -111 58 c-131 69 -130 68 -125 57z" id="node17" class="node"></path>
<path d="M1457 1274 l-37 -125 37 -125 c21 -68 40 -124 43 -124 4 0 23 56 44
125 l37 125 -38 125 c-21 69 -40 125 -43 125 -3 0 -22 -57 -43 -126z" id="node18" class="node"></path>
<path d="M1035 1333 c-135 -38 -166 -51 -205 -82 -25 -21 -86 -54 -137 -74
-50 -20 -106 -46 -125 -58 l-33 -21 32 6 c18 3 75 23 127 46 54 23 119 42 153
46 45 5 81 19 158 62 132 74 212 122 200 121 -5 -1 -82 -21 -170 -46z" id="node19" class="node"></path>
<path d="M1790 1378 c3 -3 73 -43 155 -90 129 -73 158 -86 210 -91 37 -4 94
-21 150 -45 50 -22 106 -43 125 -46 l35 -7 -30 20 c-16 12 -71 37 -120 56 -53
21 -111 52 -138 75 -27 21 -56 41 -65 44 -9 3 -80 22 -156 42 -77 20 -147 39
-155 42 -9 3 -14 3 -11 0z" id="node20" class="node"></path>
<path d="M1620 1210 c0 -3 20 -79 45 -168 38 -142 49 -171 85 -216 22 -29 56
-92 74 -140 19 -47 44 -101 56 -119 l21 -32 -7 35 c-4 19 -24 76 -46 125 -24
55 -41 113 -45 150 -5 52 -18 81 -94 215 -49 85 -89 152 -89 150z" id="node21" class="node"></path>
<path d="M1292 1056 c-71 -125 -83 -153 -91 -213 -5 -37 -21 -95 -36 -128 -31
-67 -65 -162 -65 -179 0 -21 44 60 81 153 21 51 55 114 75 138 31 38 43 69 80
206 24 88 42 162 41 164 -2 1 -40 -62 -85 -141z" id="node22" class="node"></path>
<path d="M860 1045 l-54 -55 15 -63 c14 -58 14 -66 -1 -84 -9 -11 -25 -25 -37
-31 -19 -11 -23 -8 -36 26 l-16 37 -12 -33 c-12 -35 -23 -37 -73 -17 -17 8
-17 7 -2 -24 20 -38 16 -47 -24 -56 -36 -8 -31 -21 10 -30 17 -4 30 -9 30 -11
0 -17 -38 -76 -74 -114 l-41 -44 52 47 c43 39 88 67 108 67 2 0 6 -13 10 -30
9 -41 22 -46 30 -10 9 39 18 44 55 25 34 -18 36 -15 15 26 l-16 30 38 15 38
16 -37 15 c-37 15 -37 15 -23 43 23 44 39 49 111 31 l64 -15 54 53 54 53 -18
70 c-10 38 -21 72 -23 75 -3 2 -27 10 -53 17 -27 7 -58 16 -69 19 -16 6 -33
-5 -75 -48z" id="node23" class="node"></path>
<path d="M2017 1080 c-38 -10 -71 -20 -74 -23 -2 -3 -13 -37 -23 -75 l-18 -70
54 -53 54 -53 65 16 c71 17 87 12 113 -39 11 -19 8 -22 -26 -36 l-37 -16 33
-12 c35 -12 37 -23 17 -73 -8 -17 -7 -17 24 -2 38 20 47 16 56 -24 8 -36 21
-31 30 10 11 48 36 38 135 -54 l55 -51 -51 55 c-92 99 -102 124 -54 135 41 9
46 22 10 30 -40 9 -44 18 -24 56 15 31 15 32 -2 24 -50 -20 -61 -18 -73 17
l-12 33 -16 -37 c-14 -34 -17 -37 -36 -26 -51 26 -56 42 -39 113 l16 66 -54
53 -55 53 -68 -17z" id="node24" class="node"></path>
<path d="M1430 836 l-55 -32 -3 -80 -3 -79 56 -30 c60 -33 70 -49 60 -96 -7
-32 -19 -34 -69 -14 -17 8 -17 6 -2 -23 9 -17 16 -33 16 -36 0 -2 -17 -10 -37
-17 l-38 -12 35 -16 c19 -8 36 -16 38 -17 2 -1 -4 -16 -12 -33 -22 -41 -21
-43 19 -24 19 9 38 14 41 10 4 -4 9 -29 12 -57 5 -58 22 -68 22 -12 0 21 6 46
13 56 13 17 15 17 45 2 37 -19 38 -17 16 25 -8 17 -14 32 -12 33 2 1 19 9 38
17 l35 16 -38 12 c-20 7 -37 15 -37 17 0 3 7 19 16 36 15 29 15 30 -1 24 -54
-20 -63 -19 -70 13 -10 47 0 64 60 96 l56 30 -3 79 -3 80 -55 32 c-30 18 -62
33 -70 33 -8 0 -40 -15 -70 -33z" id="node25" class="node"></path>
</g>
<g transform="translate(0.000000,300.000000) scale(0.100000,-0.100000)" fill="#BE54CB" stroke="none">

</g>
</svg>