<!--?xml version="1.0" standalone="no"?--><svg version="1.0" xmlns="http://www.w3.org/2000/svg" width="281.000000pt" height="300.000000pt" viewBox="0 0 281.000000 300.000000" preserveAspectRatio="xMidYMid meet">
<metadata>
  <rdf:rdf xmlns:rdf="http://www.w3.org/1999/02/22-rdf-syntax-ns#" xmlns:rdfs="http://www.w3.org/2000/01/rdf-schema#" xmlns:dc="http://purl.org/dc/elements/1.1/">
    <rdf:description dc:title="snowflake with wheel" dc:publisher="Hiox" dc:date="2015-12-01" dc:format="image/svg+xml" dc:language="en">
      <dc:creator>
        <rdf:bag>
          <rdf:li>svgimages.com</rdf:li>
        </rdf:bag>
      </dc:creator>
    </rdf:description>
  </rdf:rdf>
</metadata>
<g transform="translate(0.000000,300.000000) scale(0.100000,-0.100000)" fill="#264A91" stroke="none">
<path d="M1308 2948 c-1 -29 -2 -79 -3 -110 0 -32 -3 -59 -6 -60 -4 -2 -43 31
-89 72 -45 41 -85 76 -89 78 -4 1 -20 -11 -36 -28 l-29 -30 126 -123 c115
-111 126 -125 124 -154 -1 -18 -3 -51 -4 -74 l-2 -41 -32 27 c-18 15 -58 51
-89 80 -76 70 -75 70 -104 38 -28 -32 -31 -49 -11 -60 8 -4 52 -43 99 -85 155
-142 144 -129 141 -172 -2 -21 -6 -41 -8 -44 -3 -3 -40 28 -81 69 -42 41 -81
75 -88 77 -7 1 -25 -10 -40 -26 l-27 -28 124 -117 123 -118 -2 -52 c-2 -61 -6
-61 -78 -9 -29 21 -90 64 -137 95 -47 32 -114 78 -149 102 -72 51 -83 54 -77
23 3 -13 10 -77 16 -143 6 -66 17 -163 24 -215 7 -52 12 -97 10 -99 -2 -2 -15
1 -28 8 -20 11 -27 28 -41 100 -10 47 -25 120 -34 161 l-16 75 -35 -3 c-19 -2
-39 -8 -44 -12 -5 -5 -2 -37 7 -77 24 -97 31 -153 21 -153 -5 0 -26 11 -46 25
-34 23 -38 31 -62 132 -14 60 -29 130 -32 156 -8 60 -20 69 -68 56 -35 -10
-38 -13 -32 -37 3 -15 15 -67 26 -116 11 -49 18 -91 16 -93 -8 -8 -105 59
-110 75 -3 9 -16 76 -31 147 -14 72 -28 141 -31 154 -4 21 -9 23 -45 18 -23
-3 -42 -7 -44 -9 -2 -2 7 -57 20 -123 13 -66 22 -121 20 -123 -5 -5 -132 65
-160 88 -8 7 -21 10 -29 7 -14 -6 -51 -66 -44 -72 2 -1 40 -24 86 -50 46 -26
82 -49 80 -50 -3 -3 -120 -27 -191 -40 -37 -6 -38 -6 -31 -43 3 -20 9 -40 13
-44 3 -3 53 2 111 13 230 44 213 43 275 8 30 -17 55 -35 55 -39 0 -5 -12 -11
-28 -13 -179 -33 -202 -40 -202 -61 0 -50 12 -68 39 -63 67 11 211 40 261 52
52 13 57 12 98 -12 24 -14 40 -29 35 -34 -5 -5 -42 -13 -83 -19 -136 -20 -145
-23 -148 -52 -2 -15 1 -36 7 -46 9 -18 14 -18 78 -5 257 50 284 53 309 35 13
-9 23 -19 23 -22 1 -5 -67 -35 -342 -150 -81 -35 -150 -66 -153 -71 -3 -5 10
-15 28 -23 56 -24 360 -152 410 -172 27 -10 48 -22 48 -25 0 -9 -50 -30 -59
-25 -4 3 -59 14 -122 25 -63 12 -138 26 -167 32 -29 7 -55 9 -58 6 -10 -9 -22
-77 -15 -81 10 -7 208 -46 230 -46 35 0 24 -15 -32 -42 l-52 -26 -145 24
c-193 31 -186 32 -195 -12 -8 -45 -4 -48 94 -64 130 -21 130 -20 66 -58 l-56
-32 -151 30 c-83 17 -159 30 -169 30 -13 0 -20 -11 -25 -36 -3 -19 -3 -39 2
-44 5 -5 55 -17 112 -27 56 -9 102 -20 102 -23 0 -4 -17 -16 -37 -27 -136 -75
-193 -109 -193 -118 0 -5 11 -23 23 -39 l24 -29 127 72 c70 40 129 71 131 69
3 -2 -6 -54 -20 -114 -32 -139 -32 -140 6 -148 53 -10 56 -8 67 51 34 183 55
270 70 284 17 17 114 71 118 66 4 -4 -34 -226 -41 -237 -8 -13 28 -30 63 -30
29 0 30 2 37 53 9 64 52 288 57 290 2 1 18 10 37 20 18 10 36 16 38 13 3 -3
-2 -34 -11 -70 -10 -37 -20 -88 -23 -115 l-5 -49 38 -4 c22 -3 40 -4 42 -3 4
3 25 98 49 220 12 63 21 85 42 102 34 30 55 30 48 1 -11 -47 -57 -471 -52
-477 4 -4 22 8 257 172 92 64 172 117 178 117 5 0 10 -10 10 -22 0 -16 -39
-63 -121 -147 l-121 -123 31 -31 31 -32 84 84 c46 46 86 79 89 74 3 -5 4 -31
2 -58 -4 -43 -10 -55 -62 -109 -32 -34 -82 -86 -111 -117 l-53 -55 21 -27 c12
-15 29 -27 38 -27 9 0 46 32 81 70 35 39 67 70 72 70 5 0 9 -24 9 -52 l0 -53
-120 -125 c-66 -68 -120 -127 -120 -130 0 -4 13 -19 29 -34 l30 -29 82 82 c45
44 86 81 91 81 4 0 8 -61 8 -135 l0 -135 45 0 45 0 0 142 0 143 90 -90 89 -89
26 24 c14 13 25 31 25 39 0 9 -52 68 -115 131 l-115 115 0 77 c0 43 3 78 7 78
4 0 49 -42 100 -92 l93 -93 32 33 33 32 -130 130 c-128 128 -130 131 -130 175
0 25 2 45 5 45 2 0 44 -39 92 -87 l88 -88 32 32 32 32 -122 123 c-97 98 -122
129 -122 151 0 28 1 28 108 -46 194 -134 287 -199 303 -213 8 -8 20 -14 26
-14 12 0 12 -3 -16 240 -30 249 -34 300 -25 300 5 0 27 -10 48 -23 39 -22 39
-22 85 -185 l45 -164 35 6 c19 3 38 9 43 14 6 6 -4 56 -25 128 -18 66 -33 121
-31 123 2 2 23 -7 48 -19 42 -20 47 -26 62 -78 8 -32 19 -67 24 -79 5 -12 16
-49 25 -81 8 -33 21 -75 30 -95 14 -35 15 -35 52 -25 21 5 40 12 42 13 3 4
-39 149 -65 219 -7 22 -12 41 -10 43 2 3 37 -11 78 -30 l73 -35 44 -157 c24
-86 50 -159 57 -162 7 -3 26 -1 41 5 39 13 39 13 -25 236 -6 23 13 18 118 -33
41 -20 78 -37 82 -39 8 -4 38 51 38 70 0 8 -38 31 -85 52 -47 21 -88 42 -90
46 -3 4 45 20 105 35 61 15 112 31 115 35 2 3 -1 24 -7 44 -10 30 -16 37 -32
33 -12 -3 -83 -21 -158 -41 -76 -20 -148 -36 -160 -36 -32 1 -117 47 -98 53 8
3 53 16 100 30 74 21 85 28 88 48 2 13 -3 32 -11 43 -15 20 9 24 -220 -39 -97
-27 -97 -27 -142 -8 -69 28 -69 27 98 69 62 15 67 18 67 43 0 15 -6 35 -13 45
-12 16 -20 15 -132 -15 -193 -50 -205 -52 -233 -40 -33 15 -25 22 83 66 50 20
104 43 120 50 26 11 123 52 203 85 32 14 27 23 -26 44 -26 11 -120 50 -208 88
-89 37 -166 68 -170 68 -5 0 -17 7 -27 15 -18 13 -16 15 20 33 l38 20 153 -55
c84 -30 155 -53 157 -51 3 2 11 21 20 41 14 35 14 38 -2 43 -53 17 -203 76
-203 80 0 2 31 20 70 39 l69 35 149 -50 c82 -28 156 -50 165 -50 8 0 18 11 21
24 3 13 8 31 12 39 4 11 -21 23 -105 52 -61 21 -111 41 -111 45 0 4 29 21 65
38 l64 32 152 -55 c83 -30 157 -55 163 -55 13 0 41 68 32 78 -7 6 -46 21 -126
48 -25 9 -58 22 -73 29 l-28 12 43 25 c24 14 69 38 101 52 31 15 57 29 57 31
0 13 -35 75 -42 75 -5 0 -49 -20 -98 -45 -49 -25 -92 -45 -94 -45 -7 0 9 47
43 129 17 41 31 79 31 86 0 10 -70 51 -74 43 -11 -21 -32 -70 -61 -148 -73
-192 -63 -177 -134 -210 -35 -17 -67 -30 -72 -30 -4 0 10 50 32 110 21 61 39
113 39 116 0 10 -73 35 -81 27 -4 -4 -31 -75 -60 -158 -28 -82 -55 -155 -61
-162 -8 -10 -130 -73 -142 -73 -5 0 1 17 53 155 17 44 31 81 31 82 0 8 -75 32
-81 26 -6 -7 -28 -60 -117 -290 -12 -33 -26 -47 -57 -62 -22 -10 -41 -18 -43
-16 -4 3 24 259 53 483 2 18 -1 32 -7 32 -5 0 -101 -64 -212 -141 -110 -78
-208 -144 -218 -146 -14 -4 -16 3 -14 45 1 47 6 54 71 126 39 42 92 101 119
132 l50 55 -31 31 c-35 35 -20 42 -119 -63 -28 -30 -61 -63 -73 -73 l-21 -19
0 56 0 56 115 128 115 128 -30 28 c-17 15 -34 27 -38 27 -4 0 -38 -36 -77 -79
-38 -44 -74 -80 -78 -80 -4 -1 -7 25 -6 56 3 63 -12 42 183 258 l59 66 -34 28
-34 28 -87 -91 -87 -91 1 60 c0 33 0 86 -1 118 l-1 57 -40 0 -40 0 -2 -52z
m-162 -942 c84 -58 154 -114 156 -124 3 -10 3 -32 1 -48 -4 -26 -11 -32 -47
-42 -24 -6 -67 -30 -96 -53 l-53 -42 -33 18 c-53 28 -65 48 -75 127 -5 40 -14
103 -19 140 -14 94 -13 141 3 135 6 -2 80 -52 163 -111z m591 72 c-4 -24 -11
-95 -18 -158 -18 -190 -19 -192 -61 -208 -36 -14 -38 -14 -73 17 -44 38 -87
61 -145 76 -41 10 -45 14 -47 44 -2 39 10 51 167 157 63 42 126 85 139 96 36
28 44 23 38 -24z m-436 -370 c4 -85 3 -128 -3 -128 -20 0 -117 72 -112 83 4
12 28 29 74 54 34 18 40 17 41 -9z m192 -15 c20 -14 37 -31 37 -37 0 -9 -118
-76 -133 -76 -2 0 0 137 2 149 2 9 60 -13 94 -36z m-469 -54 c35 -20 36 -22
29 -62 -10 -53 -10 -101 0 -152 7 -40 7 -40 -40 -66 l-47 -26 -105 44 c-313
130 -284 116 -255 131 15 8 77 34 138 59 61 25 136 56 166 69 69 28 72 28 114
3z m922 -65 c88 -37 162 -70 167 -74 8 -7 -18 -19 -193 -94 -142 -60 -150 -62
-204 -37 -44 19 -46 22 -39 48 10 36 10 129 0 169 -7 27 -5 32 25 47 18 9 45
15 59 12 15 -2 98 -34 185 -71z m-721 -59 l20 -16 -20 -15 c-11 -9 -36 -24
-56 -34 l-37 -19 -6 38 c-3 22 -3 53 0 70 l6 30 37 -19 c20 -11 45 -27 56 -35z
m365 -15 c0 -38 -4 -60 -11 -60 -18 0 -129 52 -129 60 0 8 109 60 128 60 8 0
12 -19 12 -60z m-280 -150 c0 -57 -3 -70 -16 -70 -24 0 -104 50 -104 65 0 12
94 74 113 75 4 0 7 -31 7 -70z m165 33 c30 -15 55 -30 55 -35 0 -13 -67 -58
-99 -68 l-31 -9 0 70 c0 38 4 69 10 69 5 0 34 -12 65 -27z m191 -93 c30 -19
33 -26 39 -88 4 -37 13 -125 21 -195 9 -71 13 -131 11 -134 -3 -2 -45 23 -94
57 -48 34 -123 85 -165 113 l-78 52 0 46 0 46 59 16 c39 11 76 31 112 61 30
25 56 45 58 45 2 1 18 -8 37 -19z m-513 -22 c38 -30 90 -56 140 -72 27 -9 24
-87 -5 -112 -23 -19 -230 -161 -288 -197 l-30 -19 0 33 c0 18 7 84 15 148 9
64 18 135 21 159 4 35 11 47 42 67 48 31 54 31 105 -7z" id="node1" class="node"></path>
</g>
<g transform="translate(0.000000,300.000000) scale(0.100000,-0.100000)" fill="#FFFFFF" stroke="none">
<path d="M0 1890 c0 -610 2 -1110 5 -1110 3 0 38 19 78 41 40 23 89 51 109 62
21 11 38 23 38 27 0 3 -46 14 -102 23 -57 10 -107 22 -112 27 -5 5 -5 25 -2
44 5 25 12 36 25 36 10 0 86 -13 169 -30 l151 -30 56 32 c64 38 64 37 -66 58
-98 16 -102 19 -94 64 9 44 2 43 195 12 l145 -24 52 26 c56 27 67 42 32 42
-22 0 -220 39 -230 46 -7 4 5 72 15 81 3 3 29 1 58 -6 29 -6 104 -20 167 -32
63 -11 118 -22 122 -25 9 -5 59 16 59 25 0 3 -21 15 -48 25 -50 20 -354 148
-410 172 -18 8 -31 18 -28 23 3 5 72 36 153 71 275 115 343 145 342 150 0 3
-10 13 -23 22 -25 18 -52 15 -309 -35 -64 -13 -69 -13 -78 5 -6 10 -9 31 -7
46 3 29 12 32 148 52 41 6 78 14 83 19 5 5 -11 20 -35 34 -41 24 -46 25 -98
12 -50 -12 -194 -41 -261 -52 -27 -5 -39 13 -39 63 0 21 23 28 203 61 15 2 27
8 27 13 0 4 -25 22 -55 39 -62 35 -45 36 -275 -8 -58 -11 -108 -16 -111 -13
-4 4 -10 24 -13 44 -7 37 -6 37 31 43 71 13 188 37 191 40 2 1 -34 24 -80 50
-46 26 -84 49 -86 50 -7 6 30 66 44 72 8 3 21 0 29 -7 28 -23 155 -93 160 -88
2 2 -7 57 -20 123 -13 66 -22 121 -20 123 2 2 21 6 44 9 36 5 41 3 45 -18 3
-13 17 -82 31 -154 15 -71 28 -138 31 -147 5 -16 102 -83 110 -75 2 2 -5 44
-16 93 -11 49 -23 101 -26 116 -6 24 -3 27 32 37 48 13 60 4 68 -56 3 -26 18
-96 32 -156 24 -101 28 -109 62 -132 20 -14 41 -25 46 -25 10 0 3 56 -21 153
-9 40 -12 72 -7 77 5 4 25 10 44 12 l35 3 16 -75 c9 -41 24 -114 34 -161 14
-72 21 -89 41 -100 13 -7 26 -10 28 -8 2 2 -3 47 -10 99 -7 52 -18 149 -24
215 -6 66 -13 130 -16 143 -6 31 5 28 77 -23 35 -24 102 -70 149 -102 47 -31
108 -74 137 -95 72 -52 76 -52 78 9 l2 52 -123 118 -124 117 27 28 c15 16 33
27 40 26 7 -2 46 -36 88 -77 41 -41 78 -72 81 -69 2 3 6 23 8 44 3 43 14 30
-141 172 -47 42 -91 81 -99 85 -20 11 -17 28 11 60 29 32 28 32 104 -38 31
-29 71 -65 89 -80 l32 -27 2 41 c1 23 3 56 4 74 2 29 -9 43 -124 154 l-126
123 29 30 c16 17 32 29 36 28 4 -2 44 -37 89 -78 46 -41 85 -75 87 -75 3 0 7
51 9 113 l4 112 -655 0 -655 0 0 -1110z" id="node2" class="node"></path>
<path d="M1392 2883 l2 -117 86 91 85 90 34 -28 34 -28 -59 -66 c-195 -216
-180 -195 -183 -258 -1 -31 2 -57 6 -56 4 0 40 36 78 80 39 43 73 79 77 79 4
0 21 -12 38 -27 l30 -28 -115 -128 -115 -128 0 -56 0 -56 21 19 c12 10 45 43
73 73 99 105 84 98 119 63 l31 -31 -50 -55 c-27 -31 -80 -90 -119 -132 -65
-72 -70 -79 -71 -126 -2 -42 0 -49 14 -45 10 2 108 68 218 146 111 77 207 141
212 141 6 0 9 -14 7 -32 -29 -224 -57 -480 -53 -483 2 -2 21 6 43 16 31 15 45
29 57 62 89 230 111 283 117 290 6 6 81 -18 81 -26 0 -1 -14 -38 -31 -82 -52
-138 -58 -155 -53 -155 12 0 134 63 142 73 6 7 33 80 61 162 29 83 56 154 60
158 8 8 81 -17 81 -27 0 -3 -18 -55 -39 -116 -22 -60 -36 -110 -32 -110 5 0
37 13 72 30 71 33 61 18 134 210 29 78 50 127 61 148 4 8 74 -33 74 -43 0 -7
-14 -45 -31 -86 -34 -82 -50 -129 -43 -129 2 0 45 20 94 45 49 25 93 45 98 45
7 0 42 -62 42 -75 0 -2 -26 -16 -57 -31 -32 -14 -78 -38 -102 -52 -43 -25 -43
-26 -20 -35 33 -14 148 -56 182 -67 l27 -9 0 510 0 509 -710 0 -710 0 2 -117z" id="node3" class="node"></path>
<path d="M970 2085 c0 -20 4 -66 10 -103 5 -37 14 -100 19 -140 10 -79 22 -99
75 -127 l33 -18 53 42 c29 23 72 47 96 53 36 10 43 16 47 42 2 16 2 38 -1 48
-4 16 -283 221 -319 235 -9 4 -13 -6 -13 -32z" id="node4" class="node"></path>
<path d="M1699 2102 c-13 -11 -76 -54 -139 -96 -157 -106 -169 -118 -167 -157
2 -30 6 -34 47 -44 58 -15 101 -38 145 -76 35 -31 37 -31 73 -17 42 16 43 18
61 208 7 63 14 134 18 158 6 47 -2 52 -38 24z" id="node5" class="node"></path>
<path d="M2393 1978 c-35 -17 -63 -34 -63 -38 0 -4 50 -24 111 -45 84 -29 109
-41 105 -52 -4 -8 -9 -26 -12 -39 -3 -13 -13 -24 -21 -24 -9 0 -83 22 -165 50
l-149 50 -69 -35 c-39 -19 -70 -37 -70 -39 0 -4 150 -63 203 -80 16 -5 16 -8
2 -43 -9 -20 -17 -39 -20 -41 -2 -2 -73 21 -157 51 l-153 55 -38 -20 c-36 -18
-38 -20 -20 -33 10 -8 22 -15 27 -15 4 0 81 -31 170 -68 88 -38 182 -77 208
-88 53 -21 58 -30 26 -44 -80 -33 -177 -74 -203 -85 -16 -7 -70 -30 -120 -50
-108 -44 -116 -51 -83 -66 28 -12 40 -10 233 40 112 30 120 31 132 15 7 -10
13 -30 13 -45 0 -25 -5 -28 -67 -43 -124 -31 -143 -37 -143 -44 0 -4 20 -15
45 -25 45 -19 45 -19 142 8 229 63 205 59 220 39 8 -11 13 -30 11 -43 -3 -20
-14 -27 -88 -48 -47 -14 -92 -27 -100 -30 -19 -6 66 -52 98 -53 12 0 84 16
160 36 75 20 146 38 158 41 16 4 22 -3 32 -33 6 -20 9 -41 7 -44 -3 -4 -54
-20 -115 -35 -60 -15 -108 -31 -105 -35 2 -4 43 -25 90 -46 47 -21 85 -44 85
-52 0 -19 -30 -74 -38 -70 -4 2 -41 19 -82 39 -105 51 -124 56 -118 33 64
-223 64 -223 25 -236 -15 -6 -34 -8 -41 -5 -7 3 -33 76 -57 162 l-44 157 -73
35 c-41 19 -76 33 -78 30 -2 -2 3 -21 10 -43 26 -70 68 -215 65 -219 -2 -1
-21 -8 -42 -13 -37 -10 -38 -10 -52 25 -9 20 -22 62 -30 95 -9 32 -20 69 -25
81 -5 12 -16 47 -24 79 -15 52 -20 58 -62 78 -25 12 -46 21 -48 19 -2 -2 13
-57 31 -123 21 -72 31 -122 25 -128 -5 -5 -24 -11 -43 -14 l-35 -6 -45 164
c-46 163 -46 163 -85 185 -21 13 -43 23 -48 23 -9 0 -5 -51 25 -300 28 -243
28 -240 16 -240 -6 0 -18 6 -26 14 -16 14 -109 79 -303 213 -107 74 -108 74
-108 46 0 -22 25 -53 122 -151 l122 -123 -32 -32 -32 -32 -88 88 c-48 48 -90
87 -92 87 -3 0 -5 -20 -5 -45 0 -44 2 -47 130 -175 l130 -130 -33 -32 -32 -33
-93 93 c-51 50 -96 92 -100 92 -4 0 -7 -35 -7 -78 l0 -77 115 -115 c63 -63
115 -122 115 -131 0 -8 -11 -26 -25 -39 l-26 -24 -89 89 -90 90 0 -143 0 -142
710 0 710 0 -1 978 c-1 714 -4 970 -12 950 -6 -16 -16 -28 -23 -28 -6 0 -80
25 -163 55 -83 30 -153 55 -154 55 -1 -1 -30 -15 -64 -32z" id="node6" class="node"></path>
<path d="M1260 1717 c-46 -25 -70 -42 -74 -54 -5 -11 92 -83 112 -83 4 0 6 24
6 52 -3 112 -1 107 -44 85z" id="node7" class="node"></path>
<path d="M1399 1729 c-2 -12 -4 -149 -2 -149 15 0 133 67 133 76 0 22 -127 92
-131 73z" id="node8" class="node"></path>
<path d="M910 1636 c-30 -13 -105 -44 -166 -69 -61 -25 -123 -51 -138 -59 -29
-15 -58 -1 255 -131 l105 -44 47 26 c47 26 47 26 40 66 -10 51 -10 99 0 152 7
40 6 42 -29 62 -42 25 -45 25 -114 -3z" id="node9" class="node"></path>
<path d="M1702 1633 c-30 -15 -32 -20 -25 -47 10 -40 10 -133 0 -169 -7 -26
-5 -29 39 -48 54 -25 62 -23 204 37 175 75 201 87 193 94 -15 13 -326 141
-352 145 -14 3 -41 -3 -59 -12z" id="node10" class="node"></path>
<path d="M1126 1539 c-3 -17 -3 -48 0 -70 l6 -38 37 19 c20 10 45 25 56 34
l20 15 -20 16 c-11 8 -36 24 -56 35 l-37 19 -6 -30z" id="node11" class="node"></path>
<path d="M1508 1533 c-32 -14 -58 -29 -58 -33 0 -8 111 -60 129 -60 7 0 11 22
11 60 0 70 -1 70 -82 33z" id="node12" class="node"></path>
<path d="M1243 1389 c-29 -17 -53 -37 -53 -44 0 -15 80 -65 104 -65 13 0 16
13 16 70 0 39 -3 70 -7 70 -5 0 -32 -14 -60 -31z" id="node13" class="node"></path>
<path d="M1400 1341 l0 -70 31 9 c32 10 99 55 99 68 0 9 -104 62 -120 62 -6 0
-10 -31 -10 -69z" id="node14" class="node"></path>
<path d="M1571 1264 c-36 -30 -73 -50 -112 -61 l-59 -16 0 -46 0 -46 78 -52
c42 -28 117 -79 165 -113 49 -34 91 -59 94 -57 2 3 -2 63 -11 134 -8 70 -17
158 -21 195 -6 62 -9 69 -39 88 -19 11 -35 20 -37 19 -2 0 -28 -20 -58 -45z" id="node15" class="node"></path>
<path d="M1048 1275 c-31 -20 -38 -32 -42 -67 -3 -24 -12 -95 -21 -159 -8 -64
-15 -130 -15 -148 l0 -33 30 19 c58 36 265 178 288 197 29 25 32 103 5 112
-50 16 -102 42 -140 72 -51 38 -57 38 -105 7z" id="node16" class="node"></path>
<path d="M869 1167 c-21 -17 -30 -39 -42 -102 -24 -122 -45 -217 -49 -220 -2
-1 -20 0 -42 3 l-38 4 5 49 c3 27 13 78 23 115 9 36 14 67 11 70 -2 3 -20 -3
-38 -13 -19 -10 -35 -19 -37 -20 -5 -2 -48 -226 -57 -290 -7 -51 -8 -53 -37
-53 -35 0 -71 17 -63 30 7 11 45 233 41 237 -4 5 -101 -49 -118 -66 -15 -14
-36 -101 -70 -283 -11 -60 -14 -62 -67 -52 -38 8 -38 9 -6 148 14 60 23 112
20 114 -2 2 -61 -29 -131 -69 l-127 -72 -24 29 -23 29 0 -377 0 -378 650 0
650 0 0 135 c0 74 -4 135 -8 135 -5 0 -46 -37 -91 -81 l-82 -82 -30 29 c-16
15 -29 30 -29 34 0 3 54 62 120 130 l120 125 0 53 c0 28 -4 52 -9 52 -5 0 -37
-31 -72 -70 -35 -38 -72 -70 -81 -70 -9 0 -26 12 -38 27 l-21 27 53 55 c29 31
79 83 111 117 52 54 58 66 62 109 2 27 1 53 -2 58 -3 5 -43 -28 -89 -74 l-84
-84 -31 32 -31 31 121 123 c82 84 121 131 121 147 0 12 -5 22 -10 22 -6 0 -86
-53 -178 -117 -235 -164 -253 -176 -257 -172 -5 6 41 430 52 477 7 29 -14 29
-48 -1z" id="node17" class="node"></path>
</g>
</svg>