<!--?xml version="1.0" standalone="no"?--><svg version="1.0" xmlns="http://www.w3.org/2000/svg" width="300.000000pt" height="300.000000pt" viewBox="0 0 300.000000 300.000000" preserveAspectRatio="xMidYMid meet">
<metadata>
  <rdf:rdf xmlns:rdf="http://www.w3.org/1999/02/22-rdf-syntax-ns#" xmlns:rdfs="http://www.w3.org/2000/01/rdf-schema#" xmlns:dc="http://purl.org/dc/elements/1.1/">
    <rdf:description dc:title="star pattern star" dc:publisher="Hiox" dc:date="2015-03-14" dc:format="image/svg+xml" dc:language="en">
      <dc:creator>
        <rdf:bag>
          <rdf:li>svgimages.com</rdf:li>
        </rdf:bag>
      </dc:creator>
    </rdf:description>
  </rdf:rdf>
</metadata>
<g transform="translate(0.000000,300.000000) scale(0.100000,-0.100000)" fill="#0E0E0E" stroke="none">
<path d="M1454 2817 c-21 -41 -23 -42 -78 -45 l-56 -3 26 -44 26 -45 -25 -45
-26 -45 50 0 c49 0 50 -1 81 -50 l31 -50 29 50 c28 49 29 50 78 50 l50 0 -22
45 c-22 45 -22 45 -3 82 11 21 21 41 23 46 2 4 -19 7 -47 7 -50 0 -52 1 -79
45 -15 25 -29 45 -32 45 -3 0 -15 -20 -26 -43z" id="node1" class="node"></path>
<path d="M1285 2526 c-27 -46 -27 -46 -81 -46 l-55 0 27 -47 28 -46 -22 -38
c-12 -21 -22 -43 -22 -48 0 -6 22 -11 50 -11 48 0 50 -2 70 -39 11 -22 24 -42
29 -45 5 -4 20 14 32 39 22 45 23 45 76 45 29 0 53 3 53 8 0 4 -11 24 -24 45
l-24 39 24 41 c13 23 24 45 24 50 0 4 -24 7 -52 7 -53 0 -53 1 -79 46 l-26 47
-28 -47z" id="node2" class="node"></path>
<path d="M1622 2520 c-22 -38 -25 -40 -72 -40 -57 0 -60 -8 -30 -58 25 -40 25
-48 0 -79 -33 -42 -26 -53 30 -53 48 0 50 -1 76 -46 l27 -46 28 46 c28 45 30
46 79 46 28 0 50 3 50 6 0 3 -11 24 -24 47 l-25 42 25 40 c13 22 24 43 24 48
0 4 -22 7 -50 7 -47 0 -51 2 -75 40 -14 22 -29 40 -33 40 -4 0 -17 -18 -30
-40z" id="node3" class="node"></path>
<path d="M445 2251 c-3 -11 -15 -31 -26 -45 -17 -22 -29 -26 -70 -26 l-49 0
26 -46 26 -47 -21 -37 c-12 -21 -21 -40 -21 -44 0 -3 20 -6 45 -6 43 0 47 -2
73 -45 15 -24 30 -45 34 -45 3 0 17 19 30 43 22 40 25 42 76 45 l53 3 -25 44
-26 43 25 44 25 43 -53 5 c-49 5 -53 7 -75 48 -26 46 -37 52 -47 23z" id="node4" class="node"></path>
<path d="M768 2225 c-26 -44 -29 -45 -77 -45 l-50 0 26 -45 25 -45 -25 -45
-26 -45 50 0 c48 0 51 -1 77 -45 15 -24 30 -45 34 -45 3 0 18 20 32 45 26 44
28 45 76 45 l50 0 -20 37 c-25 47 -25 60 0 101 11 18 20 35 20 37 0 3 -23 5
-50 5 -49 0 -51 1 -78 45 -15 25 -29 45 -32 45 -3 0 -17 -21 -32 -45z" id="node5" class="node"></path>
<path d="M1125 2251 c-3 -11 -15 -31 -26 -45 -17 -21 -29 -26 -65 -26 -42 0
-45 -1 -38 -22 3 -13 13 -30 20 -39 19 -21 18 -33 -6 -71 -11 -18 -20 -36 -20
-40 0 -5 22 -8 49 -8 47 0 49 -1 72 -45 13 -25 27 -45 31 -45 3 0 18 20 32 45
26 44 28 45 77 45 l51 0 -26 45 -27 45 26 44 26 45 -53 3 c-51 3 -54 5 -76 46
-26 46 -37 52 -47 23z" id="node6" class="node"></path>
<path d="M1453 2226 c-30 -42 -35 -45 -83 -48 l-50 -3 27 -39 26 -40 -25 -48
-26 -48 49 0 c48 0 51 -1 77 -45 15 -24 30 -45 34 -45 4 0 19 20 34 45 25 44
27 45 75 45 l49 0 -22 45 c-22 45 -22 45 -3 82 11 21 21 41 23 46 2 4 -14 7
-36 7 -57 0 -70 7 -93 51 -11 22 -21 39 -22 39 -2 0 -17 -20 -34 -44z" id="node7" class="node"></path>
<path d="M1800 2239 c-20 -47 -37 -59 -86 -59 -24 0 -44 -3 -44 -6 0 -4 10
-24 22 -45 l22 -39 -22 -39 c-12 -21 -22 -41 -22 -45 0 -3 20 -6 44 -6 36 0
48 -5 65 -26 11 -14 23 -34 26 -45 10 -29 21 -23 49 26 26 44 28 45 77 45 l51
0 -26 45 -25 45 24 43 25 42 -53 5 c-49 5 -53 7 -75 48 -13 23 -27 42 -32 42
-4 0 -13 -14 -20 -31z" id="node8" class="node"></path>
<path d="M2142 2240 c-22 -49 -39 -60 -92 -60 l-49 0 26 -45 25 -45 -25 -45
-26 -45 49 0 c47 0 50 -2 80 -45 17 -25 33 -45 35 -45 2 0 16 20 31 45 25 44
27 45 75 45 l49 0 -22 45 c-22 45 -22 45 -3 82 11 21 21 41 23 45 2 4 -21 8
-50 10 -51 3 -54 5 -76 46 -13 23 -27 42 -30 42 -4 0 -13 -14 -20 -30z" id="node9" class="node"></path>
<path d="M2472 2225 c-22 -45 -22 -45 -73 -45 -48 0 -50 -1 -43 -22 3 -13 13
-30 20 -39 19 -21 18 -33 -6 -71 -11 -18 -20 -36 -20 -40 0 -5 20 -8 45 -8 36
0 47 -5 62 -25 52 -75 46 -73 77 -21 26 45 28 46 77 46 l51 0 -25 43 -24 44
24 46 23 47 -44 0 c-48 0 -66 12 -91 61 -9 16 -19 29 -23 29 -5 0 -18 -20 -30
-45z" id="node10" class="node"></path>
<path d="M605 1936 c-27 -46 -27 -46 -82 -46 l-54 0 27 -49 27 -48 -21 -35
c-32 -51 -29 -58 27 -58 48 0 50 -1 76 -46 l27 -45 29 45 c28 45 30 46 79 46
27 0 50 2 50 4 0 2 -11 23 -25 47 l-24 44 24 44 c14 24 25 45 25 47 0 2 -24 4
-53 4 -53 0 -54 0 -79 46 l-26 47 -27 -47z" id="node11" class="node"></path>
<path d="M1285 1936 c-27 -46 -27 -46 -82 -46 l-54 0 27 -49 28 -48 -22 -37
c-12 -21 -22 -41 -22 -47 0 -5 22 -9 50 -9 48 0 50 -2 70 -39 11 -22 23 -42
28 -45 4 -2 19 15 32 40 24 43 25 44 77 44 29 0 53 3 53 8 0 4 -11 25 -25 46
-22 37 -23 41 -8 70 8 17 22 39 31 49 14 16 11 17 -44 17 l-59 0 -26 46 -26
47 -28 -47z" id="node12" class="node"></path>
<path d="M1965 1936 c-27 -46 -27 -46 -82 -46 l-54 0 27 -49 27 -48 -21 -35
c-32 -51 -29 -58 27 -58 48 0 50 -1 76 -46 l28 -47 26 47 c26 45 26 46 79 46
28 0 52 3 52 6 0 3 -11 24 -25 47 l-24 42 24 44 c14 24 25 45 25 47 0 2 -24 4
-53 4 -53 0 -54 0 -79 46 l-26 47 -27 -47z" id="node13" class="node"></path>
<path d="M942 1930 c-22 -39 -24 -40 -78 -40 l-55 0 27 -49 27 -48 -21 -35
c-32 -51 -29 -58 28 -58 48 0 50 -1 76 -46 l27 -46 28 46 c28 45 30 46 79 46
28 0 50 3 50 6 0 3 -11 24 -25 48 l-24 42 24 39 c13 22 25 43 25 48 0 4 -22 7
-50 7 -47 0 -51 2 -76 40 -15 22 -29 40 -33 40 -3 0 -16 -18 -29 -40z" id="node14" class="node"></path>
<path d="M1622 1930 c-22 -39 -24 -40 -78 -40 l-55 0 27 -49 27 -48 -21 -35
c-32 -51 -29 -58 28 -58 48 0 50 -1 76 -46 l27 -46 28 46 c28 45 30 46 79 46
28 0 50 3 50 6 0 3 -11 24 -25 48 l-24 42 24 39 c13 22 25 43 25 48 0 4 -22 7
-50 7 -47 0 -51 2 -75 40 -14 22 -29 40 -33 40 -4 0 -17 -18 -30 -40z" id="node15" class="node"></path>
<path d="M2305 1932 c-19 -36 -22 -37 -78 -40 l-58 -3 27 -46 27 -46 -22 -44
c-11 -24 -21 -46 -21 -48 0 -3 22 -5 50 -5 48 0 50 -1 76 -46 30 -50 30 -50
66 15 16 28 22 31 68 31 27 0 50 3 50 6 0 3 -11 24 -25 48 l-24 42 24 39 c13
22 25 43 25 48 0 4 -22 7 -50 7 -47 0 -51 2 -75 40 -14 22 -29 40 -33 40 -4 0
-16 -17 -27 -38z" id="node16" class="node"></path>
<path d="M772 1640 c-22 -39 -24 -40 -77 -40 -30 0 -55 -2 -55 -4 0 -2 12 -24
26 -50 l26 -46 -26 -46 c-14 -26 -26 -48 -26 -50 0 -2 25 -4 55 -4 53 0 55 -1
77 -40 13 -22 25 -40 28 -40 3 0 16 18 30 40 27 43 25 43 88 40 23 -1 42 2 42
7 0 4 -10 27 -22 51 l-23 42 23 43 c12 23 22 45 22 50 0 4 -24 7 -54 7 -53 0
-55 1 -77 40 -13 22 -25 40 -28 40 -3 0 -16 -18 -29 -40z" id="node17" class="node"></path>
<path d="M1115 1640 l-18 -40 -59 0 -59 0 27 -50 27 -50 -21 -39 c-12 -21 -22
-44 -22 -49 0 -6 24 -12 53 -14 49 -3 53 -5 72 -40 11 -21 23 -38 27 -38 4 0
17 18 29 40 22 39 24 40 76 40 29 0 53 3 53 8 0 4 -11 26 -25 50 l-24 42 24
43 c14 23 25 45 25 50 0 4 -24 7 -53 7 -52 0 -54 1 -76 40 -12 22 -26 40 -30
40 -4 0 -16 -18 -26 -40z" id="node18" class="node"></path>
<path d="M1452 1640 c-22 -39 -24 -40 -77 -40 -30 0 -55 -2 -55 -4 0 -2 12
-24 26 -50 l26 -46 -26 -46 c-14 -26 -26 -48 -26 -50 0 -2 27 -4 60 -4 41 0
60 -4 60 -12 0 -7 10 -26 23 -41 l22 -29 23 41 c23 40 24 41 78 41 30 0 54 3
54 8 0 4 -10 26 -22 50 l-23 42 23 43 c12 23 22 45 22 50 0 4 -24 7 -54 7 -53
0 -55 1 -77 40 -13 22 -25 40 -28 40 -3 0 -16 -18 -29 -40z" id="node19" class="node"></path>
<path d="M1795 1642 c-19 -35 -23 -37 -72 -40 -29 -2 -53 -8 -53 -14 0 -5 10
-28 22 -49 l22 -39 -22 -39 c-32 -56 -29 -61 31 -61 53 0 54 -1 72 -40 10 -22
22 -40 26 -40 4 0 18 18 30 40 22 39 24 40 76 40 29 0 53 3 53 8 0 4 -11 27
-25 50 l-25 44 25 42 c14 24 25 46 25 49 0 4 -24 7 -53 7 -52 0 -54 1 -76 40
-12 22 -25 40 -29 40 -4 0 -16 -17 -27 -38z" id="node20" class="node"></path>
<path d="M2132 1640 c-22 -39 -24 -40 -77 -40 -30 0 -55 -2 -55 -4 0 -2 12
-24 26 -50 l26 -46 -26 -46 c-14 -26 -26 -48 -26 -50 0 -2 26 -4 58 -4 57 0
57 0 76 -40 11 -22 21 -40 24 -40 8 0 32 33 42 58 8 19 17 22 65 22 30 0 55 3
55 8 0 4 -10 26 -22 50 l-23 42 23 43 c12 23 22 45 22 50 0 4 -24 7 -53 7 -50
0 -53 2 -77 40 -14 22 -27 40 -30 40 -3 0 -15 -18 -28 -40z" id="node21" class="node"></path>
<path d="M605 1346 c-27 -46 -27 -46 -82 -46 l-54 0 27 -48 27 -48 -27 -47
-28 -47 56 0 c55 0 56 -1 76 -39 11 -22 23 -42 28 -45 4 -2 19 15 32 40 24 43
25 44 77 44 29 0 53 2 53 4 0 2 -11 23 -25 47 l-24 44 24 44 c14 24 25 45 25
47 0 2 -24 4 -52 4 -53 0 -53 1 -79 46 l-26 47 -28 -47z" id="node22" class="node"></path>
<path d="M944 1346 c-19 -39 -22 -41 -72 -44 -29 -2 -52 -8 -52 -14 0 -6 10
-26 21 -45 l21 -34 -26 -50 -27 -49 55 0 c53 0 55 -1 77 -40 13 -22 26 -40 31
-40 4 0 19 18 33 40 24 38 28 40 75 40 28 0 50 3 50 6 0 3 -11 24 -25 48 l-24
42 24 39 c13 22 25 43 25 48 0 4 -22 7 -50 7 -47 0 -51 2 -74 39 -14 22 -29
41 -33 44 -4 2 -17 -14 -29 -37z" id="node23" class="node"></path>
<path d="M1285 1346 c-27 -46 -27 -46 -82 -46 l-54 0 27 -48 27 -48 -27 -47
-28 -47 55 0 c55 0 55 0 82 -46 l27 -47 26 47 c25 46 26 46 79 46 29 0 53 2
53 4 0 2 -11 23 -25 47 l-24 44 24 44 c14 24 25 45 25 47 0 2 -24 4 -52 4 -53
0 -53 1 -79 46 l-26 47 -28 -47z" id="node24" class="node"></path>
<path d="M1965 1346 c-27 -46 -27 -46 -81 -46 l-54 0 27 -48 27 -49 -27 -46
-28 -47 55 0 c54 0 54 0 81 -46 l28 -47 26 47 26 46 57 0 58 0 -30 47 -30 47
25 44 c14 24 25 46 25 48 0 2 -24 4 -52 4 -53 0 -53 1 -79 46 l-26 47 -28 -47z" id="node25" class="node"></path>
<path d="M1623 1343 c-19 -36 -23 -38 -71 -41 -58 -3 -62 -10 -31 -61 l21 -34
-27 -49 -26 -48 55 0 c54 0 56 -1 78 -40 13 -22 26 -40 30 -40 4 0 19 18 33
40 24 38 28 40 75 40 28 0 50 3 50 6 0 3 -11 24 -25 48 l-24 42 24 39 c13 22
25 43 25 48 0 4 -22 7 -50 7 -47 0 -51 2 -75 40 -14 22 -29 40 -34 40 -5 0
-18 -17 -28 -37z" id="node26" class="node"></path>
<path d="M2302 1340 c-22 -38 -25 -40 -72 -40 -57 0 -60 -7 -28 -58 l21 -35
-27 -48 -27 -49 55 0 c54 0 56 -1 78 -40 13 -22 26 -40 30 -40 4 0 19 18 33
40 24 38 28 40 75 40 28 0 50 3 50 6 0 3 -11 24 -25 48 l-24 42 24 39 c13 22
25 43 25 48 0 4 -22 7 -50 7 -47 0 -51 2 -75 40 -14 22 -29 40 -33 40 -4 0
-17 -18 -30 -40z" id="node27" class="node"></path>
<path d="M445 1071 c-3 -11 -15 -31 -26 -45 -17 -21 -29 -26 -65 -26 -24 0
-44 -3 -44 -6 0 -4 10 -23 21 -44 l21 -38 -27 -46 -27 -46 50 0 c42 0 54 -4
71 -26 11 -14 23 -34 26 -45 10 -29 21 -23 47 24 22 40 26 42 75 47 l53 5 -25
43 -25 44 26 43 25 44 -53 3 c-51 3 -54 5 -76 46 -26 46 -37 52 -47 23z" id="node28" class="node"></path>
<path d="M768 1045 c-26 -44 -29 -45 -77 -45 l-50 0 26 -45 25 -45 -25 -45
-26 -45 50 0 c48 0 51 -1 77 -45 15 -24 29 -45 32 -45 3 0 17 20 32 45 27 44
29 45 78 45 27 0 50 3 50 6 0 3 -8 18 -19 32 -29 43 -30 54 -4 100 l25 42 -51
0 c-50 0 -52 1 -79 45 -15 25 -29 45 -32 45 -3 0 -17 -21 -32 -45z" id="node29" class="node"></path>
<path d="M1125 1071 c-3 -11 -15 -31 -26 -45 -17 -21 -29 -26 -65 -26 -24 0
-44 -3 -44 -6 0 -4 10 -23 21 -44 l22 -38 -22 -35 c-30 -49 -27 -57 23 -57 36
0 48 -5 65 -26 11 -14 23 -34 26 -45 10 -29 21 -23 47 24 22 40 26 42 75 47
l53 5 -25 43 -25 44 26 43 25 44 -53 3 c-51 3 -54 5 -76 46 -26 46 -37 52 -47
23z" id="node30" class="node"></path>
<path d="M1448 1045 c-26 -44 -29 -45 -77 -45 l-50 0 26 -45 25 -45 -25 -45
-26 -45 50 0 c48 0 51 -1 77 -45 15 -24 29 -45 32 -45 3 0 17 20 32 45 27 44
29 45 78 45 27 0 50 2 50 5 0 2 -9 19 -20 37 -25 42 -25 58 1 102 l21 36 -50
0 c-49 0 -51 1 -79 45 -15 25 -30 45 -33 45 -3 0 -17 -21 -32 -45z" id="node31" class="node"></path>
<path d="M1805 1071 c-3 -11 -15 -31 -26 -45 -17 -21 -29 -26 -65 -26 -24 0
-44 -3 -44 -6 0 -4 10 -23 21 -44 l22 -39 -22 -36 c-11 -20 -21 -40 -21 -46 0
-5 20 -9 44 -9 36 0 48 -5 65 -26 11 -14 23 -34 26 -45 10 -29 23 -23 45 21
22 43 49 55 100 48 17 -3 30 -2 30 1 0 3 -11 26 -25 49 l-25 44 26 43 25 44
-53 3 c-51 3 -54 5 -76 46 -26 46 -37 52 -47 23z" id="node32" class="node"></path>
<path d="M2128 1045 c-26 -44 -29 -45 -77 -45 l-50 0 26 -45 25 -45 -27 -45
-26 -45 50 0 c54 0 71 -11 91 -59 7 -17 16 -31 20 -31 5 0 19 19 32 43 22 40
25 42 76 45 29 2 52 6 50 10 -2 4 -12 24 -23 45 -18 36 -18 38 0 75 11 20 21
40 23 45 2 4 -19 7 -47 7 -49 0 -51 1 -77 45 -14 25 -29 45 -32 45 -4 0 -19
-21 -34 -45z" id="node33" class="node"></path>
<path d="M2485 1071 c-3 -11 -15 -31 -26 -45 -17 -21 -29 -26 -65 -26 -24 0
-44 -3 -44 -6 0 -4 10 -24 22 -45 l22 -39 -22 -39 c-12 -21 -22 -41 -22 -45 0
-3 23 -6 50 -6 50 0 51 -1 72 -45 12 -25 25 -45 29 -45 4 0 18 19 31 43 22 40
26 42 75 47 l53 5 -25 42 -24 43 25 45 26 45 -51 0 c-49 0 -51 1 -77 45 -28
49 -39 55 -49 26z" id="node34" class="node"></path>
<path d="M1303 788 c-6 -7 -18 -28 -27 -45 -16 -31 -19 -33 -72 -33 l-55 0 27
-48 27 -48 -27 -47 -28 -47 55 0 c55 0 55 0 82 -46 l28 -47 26 47 c26 45 26
46 79 46 28 0 52 2 52 4 0 2 -11 23 -25 47 l-24 44 24 44 c14 24 25 45 25 47
0 2 -24 4 -52 4 -52 0 -53 1 -79 46 -20 35 -28 42 -36 32z" id="node35" class="node"></path>
<path d="M1621 755 c-23 -44 -25 -45 -72 -45 -27 0 -49 -3 -49 -7 0 -4 9 -26
20 -49 l21 -42 -21 -34 c-31 -50 -27 -58 30 -58 47 0 50 -2 72 -40 13 -22 28
-38 33 -37 6 2 19 20 30 40 19 35 22 37 73 37 28 0 52 3 52 7 0 3 -11 25 -24
48 l-25 41 25 43 c13 24 24 45 24 47 0 2 -23 4 -50 4 -49 0 -51 1 -78 45 -15
25 -29 45 -32 45 -3 0 -16 -20 -29 -45z" id="node36" class="node"></path>
<path d="M1452 460 c-31 -49 -32 -50 -81 -50 l-50 0 26 -45 25 -45 -27 -45
-26 -45 53 0 c52 -1 53 -1 81 -47 l29 -47 29 47 c28 46 30 47 79 47 28 0 50 2
50 5 0 2 -9 19 -20 37 -25 42 -25 62 1 104 l21 34 -51 0 c-50 0 -51 0 -79 50
l-29 50 -31 -50z" id="node37" class="node"></path>
</g>
<g transform="translate(0.000000,300.000000) scale(0.100000,-0.100000)" fill="#9F9F9F" stroke="none">

</g>
</svg>