<!--?xml version="1.0" standalone="no"?-->

<svg version="1.0" xmlns="http://www.w3.org/2000/svg" width="300.000000pt" height="300.000000pt" viewBox="0 0 300.000000 300.000000" preserveAspectRatio="xMidYMid meet">
<g transform="translate(0.000000,300.000000) scale(0.100000,-0.100000)" fill="#151515" stroke="none">
<path d="M1467 2788 c-30 -24 -36 -60 -16 -100 11 -21 19 -44 19 -52 0 -8 -27
-34 -61 -56 -33 -23 -69 -56 -80 -73 -28 -47 -25 -113 7 -160 l26 -39 -21 -48
c-12 -27 -21 -65 -21 -84 0 -38 -8 -43 -41 -26 -18 10 -18 13 -4 33 22 31 19
71 -8 104 -13 15 -29 37 -35 48 -17 29 -14 0 3 -42 20 -48 19 -70 -5 -83 -30
-16 -47 -1 -84 70 -27 54 -42 70 -92 100 -53 33 -62 43 -84 98 -14 34 -33 70
-43 79 -16 16 -16 14 2 -27 11 -25 23 -62 27 -84 5 -27 19 -50 46 -75 22 -20
56 -52 77 -71 22 -20 45 -56 56 -85 24 -66 30 -72 85 -96 66 -28 126 -93 150
-162 11 -31 20 -65 20 -75 0 -36 -31 -110 -56 -133 -51 -48 -164 -23 -164 35
0 12 9 49 21 81 43 123 14 198 -97 250 -61 29 -69 37 -83 92 -6 23 -15 44 -19
47 -10 6 1 -115 11 -132 5 -7 30 -23 57 -37 60 -30 80 -58 80 -108 0 -106 -96
-161 -181 -103 -39 27 -69 79 -69 120 0 15 9 44 20 66 12 23 20 59 20 87 0 44
-3 50 -55 98 -30 29 -55 59 -55 69 0 9 -4 14 -10 11 -19 -12 -10 -41 21 -71
60 -57 74 -112 39 -157 -26 -33 -63 -41 -101 -22 -42 22 -52 56 -44 146 7 72
6 77 -16 93 -13 9 -38 16 -55 16 -24 0 -39 8 -59 31 -30 37 -39 34 -25 -8 8
-22 23 -35 62 -51 l51 -21 -9 -63 c-12 -92 -7 -137 18 -174 27 -39 53 -55 104
-63 31 -5 38 -11 49 -45 7 -21 28 -56 45 -78 35 -43 35 -43 3 -52 -17 -6 -24
0 -40 31 -18 38 -24 41 -111 61 -35 8 -40 7 -31 -4 6 -8 29 -19 50 -24 43 -12
62 -48 38 -76 -14 -18 -37 -15 -113 12 -42 15 -57 16 -106 6 -79 -17 -110 -15
-153 8 -24 13 -54 20 -84 19 l-48 -2 40 -6 c22 -4 67 -22 99 -39 62 -34 105
-39 166 -22 38 11 122 -8 166 -37 26 -16 43 -15 114 12 142 53 320 -44 322
-176 0 -48 -22 -85 -67 -106 -31 -15 -36 -15 -58 0 -14 9 -36 40 -50 70 -31
69 -74 112 -126 128 -37 11 -50 10 -116 -11 l-75 -23 -52 26 c-30 15 -57 27
-61 27 -4 0 15 -20 43 -45 56 -50 75 -53 146 -29 58 20 89 12 131 -32 55 -59
43 -143 -27 -179 -76 -40 -185 5 -205 85 -21 81 -77 117 -168 106 -54 -6 -70
-2 -80 24 -4 11 -6 9 -6 -5 -1 -34 19 -45 80 -45 47 0 63 -5 87 -25 54 -45 50
-110 -8 -140 -40 -21 -89 -6 -122 36 -13 16 -33 42 -46 59 -27 35 -58 39 -93
11 -53 -41 -68 -44 -105 -22 l-34 20 16 -24 c21 -32 59 -42 98 -26 68 28 71
27 116 -39 23 -34 56 -70 73 -81 47 -28 113 -25 160 7 l39 26 48 -21 c27 -12
65 -21 84 -21 37 0 44 -11 27 -39 -8 -12 -14 -13 -36 -3 -39 18 -70 15 -102
-11 -15 -13 -37 -29 -48 -35 -29 -17 0 -14 42 3 45 19 67 19 83 0 21 -26 0
-53 -69 -88 -55 -27 -70 -41 -101 -92 -33 -54 -43 -63 -98 -85 -34 -14 -70
-33 -79 -44 -18 -18 -17 -18 14 -2 18 9 55 21 84 27 39 8 60 20 86 49 19 21
51 56 71 77 22 24 57 47 87 58 66 24 72 30 96 85 44 102 169 180 265 165 50
-7 103 -40 122 -75 16 -32 9 -96 -14 -121 -22 -24 -46 -24 -119 2 -123 43
-198 14 -250 -97 -29 -61 -37 -69 -92 -83 -58 -16 -60 -27 -5 -23 83 5 90 9
123 68 42 73 65 88 131 82 44 -5 57 -11 80 -39 51 -61 24 -155 -55 -193 -46
-21 -79 -20 -127 4 -23 12 -59 20 -87 20 -44 0 -50 -3 -98 -55 -29 -30 -59
-55 -69 -55 -9 0 -14 -4 -11 -10 12 -19 41 -10 71 21 57 60 112 74 157 39 33
-26 41 -63 22 -101 -22 -42 -56 -52 -146 -44 -72 7 -77 6 -93 -16 -9 -13 -16
-38 -16 -55 0 -24 -8 -39 -31 -59 -37 -30 -34 -39 8 -25 22 8 35 23 50 60 l21
50 101 -6 c95 -7 102 -6 135 17 40 27 57 54 65 105 5 31 11 38 45 49 21 7 56
28 78 45 22 18 41 30 43 28 2 -1 6 -15 10 -31 6 -23 4 -27 -14 -27 -32 0 -71
-44 -71 -79 0 -16 -5 -42 -10 -58 l-10 -28 20 24 c11 13 20 31 20 41 0 20 31
50 52 50 23 0 41 -27 35 -52 -3 -13 -13 -45 -23 -72 -15 -42 -16 -57 -6 -106
17 -79 15 -110 -8 -153 -13 -24 -20 -54 -19 -84 l2 -48 6 40 c4 22 22 67 40
100 31 56 32 64 26 125 -11 95 -8 115 21 180 15 33 24 67 21 77 -3 10 -13 38
-22 63 -32 85 -9 196 54 263 76 82 188 78 230 -8 20 -42 0 -71 -77 -110 -75
-39 -107 -72 -123 -125 -11 -36 -9 -50 11 -115 l23 -75 -26 -52 c-15 -30 -27
-57 -27 -61 0 -4 20 15 45 43 50 56 53 75 29 146 -20 58 -12 89 32 131 59 55
143 43 179 -27 40 -76 -5 -185 -85 -205 -81 -21 -117 -77 -106 -168 6 -54 2
-70 -24 -80 -10 -4 -9 -6 6 -6 32 -1 41 17 46 88 4 57 8 67 36 92 18 16 39 29
47 29 31 0 65 -21 80 -50 21 -40 6 -90 -36 -122 -16 -13 -43 -34 -59 -46 -38
-30 -38 -57 2 -111 l32 -44 -21 -38 -21 -38 23 15 c37 24 46 64 24 105 -28 53
-24 65 42 109 33 23 69 56 80 73 28 47 25 113 -7 160 l-26 39 21 48 c12 27 21
65 21 84 0 37 11 44 39 27 12 -8 13 -14 3 -36 -18 -39 -15 -70 11 -102 13 -15
29 -37 35 -48 17 -29 14 0 -3 42 -19 45 -19 67 0 83 26 21 53 0 88 -70 28 -54
42 -70 93 -100 53 -33 62 -43 84 -98 14 -34 33 -69 43 -79 15 -16 15 -13 -2
32 -11 28 -26 70 -33 94 -10 36 -25 54 -73 91 -56 43 -84 82 -120 171 -6 15
-31 34 -65 51 -30 14 -72 44 -93 65 -37 39 -77 130 -77 177 0 44 37 115 72
136 58 37 148 9 148 -44 0 -12 -9 -49 -21 -81 -43 -123 -14 -198 97 -250 61
-29 68 -37 85 -95 l14 -45 3 52 c4 67 -8 87 -68 118 -60 30 -80 58 -80 108 0
106 96 161 181 103 39 -27 69 -79 69 -120 0 -15 -9 -44 -20 -66 -12 -23 -20
-59 -20 -87 0 -44 3 -50 55 -98 30 -29 55 -59 55 -69 0 -9 5 -14 10 -11 19 12
10 42 -20 71 -61 59 -75 112 -40 157 26 33 63 41 101 22 42 -22 52 -56 44
-146 -7 -72 -6 -77 16 -93 13 -9 38 -16 56 -16 31 0 53 -15 72 -48 15 -26 22
-9 11 25 -8 22 -23 35 -62 51 l-51 21 9 63 c11 90 7 135 -17 174 -24 40 -45
53 -100 62 -36 6 -42 12 -54 46 -7 21 -28 56 -45 78 -35 43 -35 43 -3 52 17 6
24 0 40 -31 18 -38 24 -41 111 -61 35 -8 40 -7 31 4 -6 8 -29 19 -50 24 -43
12 -62 48 -38 76 14 18 37 15 113 -12 42 -15 57 -16 106 -6 79 17 110 15 153
-8 24 -13 54 -20 84 -19 l48 2 -40 6 c-22 4 -67 22 -99 39 -61 33 -101 39
-169 23 -42 -10 -120 7 -164 36 -25 16 -42 14 -113 -12 -142 -53 -320 44 -322
176 0 48 22 85 67 106 31 15 36 15 58 0 14 -9 36 -40 50 -70 31 -69 74 -112
126 -128 37 -11 50 -10 116 11 l75 23 52 -26 c30 -15 57 -27 61 -27 4 0 -15
20 -43 45 -56 50 -75 53 -146 29 -58 -20 -89 -12 -131 32 -55 59 -43 143 27
179 76 40 185 -5 205 -85 21 -81 77 -117 168 -106 54 6 70 2 80 -24 4 -10 6
-9 6 6 1 32 -17 41 -86 46 -48 3 -69 10 -87 27 -48 45 -41 107 14 136 40 21
90 6 122 -36 13 -16 34 -43 46 -59 30 -38 57 -38 111 2 l44 32 38 -21 38 -21
-15 23 c-26 40 -58 47 -108 23 -24 -11 -51 -18 -59 -15 -9 3 -32 31 -51 62
-20 30 -51 64 -68 75 -48 29 -114 26 -161 -6 l-39 -26 -48 21 c-27 12 -65 21
-84 21 -38 0 -43 8 -26 41 10 18 13 18 33 4 31 -22 71 -19 104 8 15 13 37 29
48 35 29 17 0 14 -42 -3 -45 -19 -67 -19 -83 0 -21 26 0 53 70 88 54 28 70 42
100 93 33 53 43 62 98 84 34 14 70 33 79 43 16 16 14 16 -27 -2 -25 -11 -62
-23 -84 -27 -27 -4 -50 -19 -73 -44 -19 -21 -51 -56 -71 -77 -22 -24 -57 -47
-87 -58 -66 -24 -72 -30 -96 -85 -28 -66 -93 -126 -162 -150 -31 -11 -65 -20
-75 -20 -36 0 -110 31 -133 56 -48 51 -23 164 35 164 12 0 49 -9 81 -21 123
-43 198 -14 250 97 28 59 36 66 92 83 23 6 44 15 47 19 6 10 -115 -1 -132 -11
-7 -5 -24 -31 -37 -58 -34 -66 -62 -83 -127 -77 -44 5 -57 11 -80 39 -51 61
-24 155 55 193 46 21 79 20 127 -4 23 -12 59 -20 87 -20 44 0 50 3 98 55 29
30 59 55 69 55 9 0 14 5 11 10 -12 19 -42 10 -71 -20 -59 -61 -112 -75 -157
-40 -33 26 -41 63 -22 101 22 42 56 52 146 44 72 -7 77 -6 93 16 9 13 16 38
16 56 0 31 15 53 48 72 26 15 9 22 -25 11 -22 -8 -35 -23 -51 -62 l-21 -51
-63 8 c-158 20 -225 -17 -240 -133 -2 -18 -13 -28 -42 -37 -21 -7 -56 -28 -78
-45 -22 -18 -41 -30 -43 -28 -2 1 -6 15 -10 31 -6 23 -4 27 14 27 32 0 71 44
71 79 0 16 5 42 10 57 9 24 9 25 -5 14 -8 -7 -20 -30 -25 -51 -12 -43 -48 -62
-76 -38 -18 14 -15 37 12 113 15 42 16 57 6 106 -17 79 -15 110 8 153 13 24
20 54 19 84 l-2 48 -6 -40 c-4 -22 -22 -67 -39 -99 -33 -61 -39 -101 -23 -169
10 -42 -7 -120 -36 -164 -16 -25 -14 -42 12 -113 53 -142 -44 -320 -176 -322
-48 0 -85 22 -106 67 -15 31 -15 36 0 58 9 14 40 36 70 50 69 31 112 74 128
126 11 37 10 50 -11 116 l-23 75 26 52 c15 30 27 57 27 61 0 4 -20 -15 -45
-43 -50 -56 -53 -75 -29 -146 20 -58 12 -89 -32 -131 -80 -75 -194 -20 -194
92 0 55 49 133 84 135 5 0 29 9 52 20 57 28 78 73 70 149 -6 58 -2 74 24 84
11 4 9 6 -5 6 -34 1 -45 -19 -45 -80 0 -47 -5 -63 -25 -87 -45 -54 -110 -50
-140 8 -21 40 -6 90 36 122 16 13 43 34 59 46 38 30 38 57 -1 111 -32 42 -32
43 -16 77 18 38 18 39 -6 22z m31 -1072 c12 -18 22 -42 22 -54 0 -37 39 -27
86 22 23 25 45 42 48 39 12 -12 5 -59 -14 -101 l-19 -42 25 -16 c18 -13 37
-15 75 -10 43 6 49 5 42 -8 -14 -26 -75 -66 -100 -66 -38 0 -29 -38 21 -86 25
-23 42 -45 39 -48 -12 -12 -59 -5 -101 14 l-42 19 -16 -25 c-13 -18 -15 -37
-10 -75 6 -47 6 -49 -12 -38 -27 17 -62 72 -62 97 0 37 -39 27 -87 -23 l-43
-45 -6 26 c-5 17 0 44 14 76 l20 49 -24 16 c-18 12 -37 14 -75 9 -47 -6 -49
-6 -38 12 17 27 72 62 97 62 37 0 27 39 -23 87 l-45 43 26 6 c17 5 44 0 76
-14 l49 -20 16 24 c12 18 14 37 9 75 -6 47 -6 49 12 38 10 -6 28 -26 40 -43z" id="node1" class="node"></path>
</g>
<g transform="translate(0.000000,300.000000) scale(0.100000,-0.100000)" fill="#A2A2A2" stroke="none">

<path d="M1446 1721 c5 -38 3 -57 -9 -75 l-16 -24 -49 20 c-32 14 -59 19 -76
14 l-26 -6 45 -43 c50 -48 60 -87 23 -87 -25 0 -80 -35 -97 -62 -11 -18 -9
-18 38 -12 38 5 57 3 75 -9 l24 -16 -20 -49 c-14 -32 -19 -59 -14 -76 l6 -26
43 45 c48 50 87 60 87 23 0 -25 35 -80 62 -97 18 -11 18 -9 12 38 -5 38 -3 57
10 75 l16 25 42 -19 c42 -19 89 -26 101 -14 3 3 -14 25 -39 48 -50 48 -59 86
-21 86 25 0 86 40 100 66 7 13 1 14 -42 8 -38 -5 -57 -3 -75 10 l-25 16 19 42
c19 42 26 89 14 101 -3 3 -25 -14 -48 -39 -47 -49 -86 -59 -86 -22 0 25 -35
80 -62 97 -18 11 -18 9 -12 -38z" id="node3" class="node"></path>
</g>
</svg>