<!--?xml version="1.0" standalone="no"?-->

<svg xmlns="http://www.w3.org/2000/svg" width="299.000000pt" height="300.000000pt" viewBox="0 0 299.000000 300.000000" preserveAspectRatio="xMidYMid meet">
<g transform="translate(0.000000,300.000000) scale(0.100000,-0.100000)" fill="#080808" stroke="none">
<path style="position: relative;" class="node" id="node1" d="M1486 2899 c-3 -13 -12 -87 -21 -164 -9 -77 -25 -214 -36 -305 -11
-91 -23 -186 -26 -212 -3 -27 -8 -48 -11 -48 -3 0 -27 18 -53 40 -26 22 -50
40 -52 40 -3 0 -9 -15 -12 -32 -4 -18 -14 -50 -22 -70 l-15 -37 -41 16 c-23
10 -53 23 -67 30 l-25 13 -9 -71 c-7 -59 -11 -69 -25 -64 -16 6 -92 57 -276
186 -55 38 -109 75 -120 81 -24 13 -37 33 143 -213 73 -100 130 -184 127 -187
-3 -3 -32 -8 -65 -10 -68 -5 -68 -5 -25 -91 27 -52 26 -54 -57 -85 -27 -10
-48 -21 -48 -25 0 -4 13 -22 30 -41 53 -63 55 -62 -160 -85 -80 -8 -228 -24
-330 -36 -102 -11 -197 -21 -212 -22 -73 -2 -10 -14 169 -35 303 -34 522 -61
554 -70 l29 -7 -40 -49 c-23 -27 -37 -52 -33 -56 4 -4 34 -15 66 -25 32 -10
57 -24 57 -31 0 -7 -11 -38 -25 -68 -14 -30 -25 -57 -25 -60 0 -3 29 -6 64 -6
36 0 68 -4 71 -10 3 -5 -15 -42 -41 -82 -26 -40 -99 -151 -161 -247 -63 -95
-112 -175 -110 -177 2 -2 37 24 78 59 42 34 94 77 117 96 23 19 86 69 139 112
53 43 100 76 105 73 4 -3 8 -17 9 -32 1 -15 4 -37 7 -49 l7 -21 60 28 c33 16
63 29 67 30 4 0 17 -27 29 -60 12 -33 25 -63 30 -65 4 -3 26 11 50 31 34 28
44 32 50 21 8 -13 29 -187 68 -554 24 -228 29 -227 56 12 9 77 25 214 36 305
11 91 23 186 26 213 3 26 8 47 11 47 3 0 27 -18 53 -40 26 -22 50 -40 52 -40
3 0 9 15 12 32 4 18 14 50 22 70 l15 37 41 -16 c23 -10 53 -23 67 -30 24 -12
25 -11 34 20 23 88 5 93 181 -53 88 -73 169 -140 179 -149 22 -19 10 4 -136
247 -54 90 -98 167 -98 172 0 9 87 30 126 30 29 0 28 12 -11 89 -27 52 -26 54
58 85 26 10 47 21 47 25 0 4 -13 22 -30 41 -53 63 -55 62 160 85 80 8 228 24
330 36 102 11 197 21 213 22 72 2 9 14 -170 35 -303 34 -522 61 -554 70 l-29
7 40 49 c23 27 37 52 33 56 -4 4 -34 15 -65 25 -33 10 -58 24 -58 31 0 7 11
38 25 68 14 30 25 57 25 60 0 3 -24 6 -54 6 -30 0 -57 4 -61 10 -3 5 43 78
103 162 60 84 117 166 127 182 19 29 19 29 0 18 -11 -7 -98 -64 -193 -127
-191 -127 -177 -125 -196 -24 l-11 57 -60 -28 c-33 -16 -63 -29 -67 -30 -4 0
-17 27 -29 60 -12 33 -25 63 -30 65 -4 3 -26 -11 -50 -31 -34 -28 -44 -32 -50
-21 -8 13 -29 187 -68 554 -17 161 -25 198 -35 152z m149 -804 c217 -55 382
-219 451 -445 22 -73 22 -227 0 -300 -69 -226 -234 -390 -451 -445 -76 -19
-204 -19 -280 0 -217 55 -382 219 -451 445 -22 73 -22 227 0 300 68 224 233
388 446 444 73 19 211 20 285 1z"></path>
<path style="position: relative;" class="node" id="node2" d="M1360 2021 c-99 -27 -168 -67 -240 -140 -110 -110 -160 -229 -160
-381 0 -152 50 -271 160 -381 209 -211 541 -211 750 0 110 110 160 229 160
381 0 152 -50 271 -160 381 -135 136 -329 190 -510 140z"></path>
</g>
<g transform="translate(0.000000,300.000000) scale(0.100000,-0.100000)" fill="#A1A1A1" stroke="none">

<path style="position: relative;" class="node" id="node4" d="M1350 2094 c-213 -56 -378 -220 -446 -444 -22 -73 -22 -227 0 -300
69 -226 234 -390 451 -445 76 -19 204 -19 280 0 217 55 382 219 451 445 22 73
22 227 0 300 -69 226 -234 390 -451 445 -74 19 -212 18 -285 -1z m269 -70
c101 -25 178 -69 251 -143 110 -110 160 -229 160 -381 0 -152 -50 -271 -160
-381 -209 -211 -541 -211 -750 0 -110 110 -160 229 -160 381 0 152 50 271 160
381 133 134 319 187 499 143z"></path>
</g>
</svg>