<!--?xml version="1.0" standalone="no"?-->

<svg version="1.0" xmlns="http://www.w3.org/2000/svg" width="300.000000pt" height="300.000000pt" viewBox="0 0 300.000000 300.000000" preserveAspectRatio="xMidYMid meet">
<g transform="translate(0.000000,300.000000) scale(0.100000,-0.100000)" fill="#121212" stroke="none">
<path class="node" id="node1" d="M1658 2763 c-30 -46 -220 -359 -237 -390 -20 -38 -12 -52 49 -96 33
-23 59 -47 57 -54 -1 -6 -47 -64 -101 -128 -64 -75 -105 -115 -115 -112 -9 2
-15 7 -15 13 33 205 44 316 34 329 -9 11 -33 15 -80 15 -110 0 -127 6 -133 49
-28 175 -58 316 -70 329 -31 30 -44 8 -50 -90 -16 -238 -20 -437 -8 -452 7 -8
41 -17 86 -21 41 -4 75 -11 75 -16 0 -15 -50 -282 -55 -298 -3 -8 -8 -11 -11
-8 -3 3 -32 70 -64 149 -56 139 -58 143 -89 146 -21 2 -53 -8 -98 -32 -37 -20
-70 -36 -74 -36 -4 0 -59 61 -123 135 -121 140 -146 156 -177 119 -12 -15 -1
-42 86 -213 141 -278 136 -271 188 -271 24 0 60 9 82 20 50 25 51 25 63 -7 6
-16 27 -71 47 -123 19 -52 34 -100 33 -107 -2 -7 -51 24 -114 72 -153 115
-156 115 -221 4 -33 -58 -51 -79 -62 -75 -35 11 -268 95 -297 107 -46 18 -64
7 -64 -41 0 -38 3 -42 53 -71 28 -17 82 -49 119 -72 207 -129 256 -157 275
-157 15 0 37 19 68 60 29 38 51 58 58 53 20 -12 186 -153 192 -164 9 -13 -15
-12 -158 12 -123 21 -128 21 -147 4 -17 -15 -20 -31 -20 -106 0 -48 -4 -91
-10 -94 -5 -3 -60 -15 -122 -26 -253 -44 -239 -40 -249 -66 -10 -28 2 -57 29
-72 10 -5 135 -13 278 -17 300 -8 283 -13 292 91 2 36 8 67 12 70 6 4 164 -18
218 -30 35 -8 26 -22 -30 -43 -120 -45 -206 -90 -213 -111 -4 -15 7 -45 36
-101 l43 -80 -34 -32 c-204 -184 -230 -211 -230 -237 0 -30 16 -51 39 -51 13
0 96 44 366 193 50 27 93 55 97 61 14 20 8 53 -18 110 -14 32 -24 59 -23 60
11 10 252 96 256 92 6 -6 -12 -32 -110 -163 -87 -117 -86 -128 14 -178 38 -20
72 -42 75 -50 3 -7 -20 -89 -50 -181 -31 -93 -54 -174 -52 -181 7 -17 60 -17
75 0 13 17 232 380 255 425 15 30 15 33 -2 50 -11 11 -40 34 -66 51 -30 21
-45 38 -42 47 9 23 179 223 186 219 4 -2 1 -42 -5 -87 -7 -46 -16 -120 -20
-165 l-7 -83 28 -10 c16 -6 61 -10 102 -9 40 1 77 -2 82 -7 5 -5 18 -61 30
-124 44 -241 42 -235 77 -238 20 -2 32 2 36 12 3 8 9 131 13 273 6 215 5 260
-7 269 -8 6 -45 14 -84 18 -38 4 -71 8 -72 10 -3 3 29 214 43 284 4 17 12 32
18 32 6 0 30 -44 53 -98 23 -53 53 -121 65 -150 31 -71 48 -74 140 -23 41 23
80 41 86 41 5 0 56 -55 112 -123 110 -132 142 -159 162 -139 13 13 7 27 -141
305 -52 97 -99 178 -106 181 -6 2 -40 -9 -76 -25 -69 -31 -99 -36 -99 -17 0 7
-23 77 -52 155 -28 79 -48 146 -45 149 3 3 69 -42 147 -101 78 -58 148 -104
155 -101 7 2 34 43 60 89 l48 85 41 -13 c166 -53 265 -91 290 -112 38 -32 70
-27 74 10 4 32 -12 57 -37 57 -17 0 -60 24 -280 158 -73 45 -140 82 -147 82
-7 0 -32 -26 -55 -57 -23 -32 -46 -62 -50 -67 -5 -5 -64 36 -138 95 -99 79
-130 110 -131 128 0 21 3 23 38 19 20 -3 99 -13 175 -23 76 -9 141 -15 144
-11 3 3 6 49 7 102 1 75 4 98 16 105 8 4 69 17 135 28 164 29 225 43 231 53 3
4 -1 10 -8 12 -30 10 -523 25 -531 17 -5 -5 -14 -46 -19 -91 l-11 -82 -51 6
c-28 4 -67 11 -86 16 -19 5 -68 14 -108 21 -66 10 -102 27 -102 48 0 7 99 51
273 121 31 13 57 27 57 32 0 4 -20 44 -45 89 -25 45 -45 85 -45 89 0 4 63 63
140 130 77 67 140 126 140 130 0 25 -30 16 -123 -33 -203 -108 -332 -179 -344
-189 -19 -15 -16 -31 17 -100 17 -34 27 -65 23 -69 -5 -3 -74 -30 -154 -59
-170 -61 -195 -60 -151 5 29 42 96 135 144 198 43 55 35 73 -52 122 -41 23
-76 47 -78 54 -3 10 39 140 95 290 13 36 21 71 19 78 -9 24 -33 14 -58 -24z
m-87 -288 c-34 -91 -31 -100 47 -139 37 -20 73 -39 81 -44 10 -7 -10 -41 -88
-148 -56 -76 -101 -147 -101 -156 0 -11 14 -25 33 -34 31 -15 36 -14 172 36
77 27 149 54 160 59 11 5 32 13 48 20 34 13 34 26 -3 108 -36 78 -39 72 75
133 44 23 95 52 113 62 47 29 51 15 6 -24 -22 -18 -59 -51 -83 -74 l-44 -41
47 -87 47 -86 -43 -19 c-24 -10 -95 -40 -158 -66 -63 -26 -119 -51 -124 -56
-8 -7 29 -79 41 -79 3 0 84 -13 180 -30 96 -16 182 -30 192 -30 15 0 19 12 25
82 4 44 9 85 12 90 10 15 314 3 314 -14 0 -4 -9 -8 -20 -8 -48 0 -186 -34
-197 -48 -8 -10 -13 -49 -13 -104 0 -86 -1 -88 -22 -84 -56 12 -140 26 -225
37 -108 14 -123 8 -123 -51 0 -36 6 -43 145 -160 88 -74 151 -120 162 -118 16
3 96 93 105 118 3 9 28 -1 77 -31 70 -42 105 -71 65 -55 -10 5 -35 10 -54 13
-35 5 -36 4 -79 -71 -24 -42 -48 -79 -53 -82 -5 -3 -28 10 -51 29 -23 18 -86
66 -141 105 -81 59 -101 70 -117 61 -10 -5 -19 -16 -19 -24 0 -8 -4 -15 -8
-15 -4 0 -13 36 -19 79 -21 144 -103 275 -208 336 -51 29 -166 55 -245 55 -51
0 -76 -7 -155 -44 -53 -25 -107 -54 -121 -65 -15 -12 -30 -21 -34 -21 -4 0 -1
33 6 73 8 39 21 115 29 167 9 52 18 104 21 116 10 39 -27 64 -94 64 -87 0 -95
9 -86 103 6 72 24 99 24 36 0 -53 29 -69 125 -69 47 0 85 -4 85 -8 0 -4 -8
-62 -17 -127 -9 -66 -17 -142 -17 -170 l-1 -50 55 -3 55 -3 105 127 c134 163
144 178 131 201 -5 10 -34 36 -65 57 -31 21 -56 42 -56 47 0 17 114 202 118
191 2 -6 -6 -37 -17 -67z m-637 -473 c56 -142 110 -252 126 -257 9 -3 29 -1
44 5 15 5 29 10 31 10 3 0 -11 -26 -30 -57 -19 -32 -35 -64 -35 -70 0 -25 -17
-13 -27 20 -28 82 -107 283 -115 295 -16 19 -44 14 -108 -18 -33 -16 -63 -30
-67 -30 -8 0 -53 78 -53 92 0 3 13 1 29 -5 26 -10 38 -7 98 26 37 20 73 36 78
36 6 1 18 -20 29 -47z m618 -123 c132 -28 257 -127 292 -232 24 -70 24 -170 1
-257 -32 -125 -93 -195 -207 -240 -52 -20 -80 -25 -158 -24 -111 0 -173 23
-252 93 -91 81 -146 244 -119 353 34 136 98 214 224 272 114 52 127 54 219 35z
m-811 -230 c35 -25 36 -31 7 -44 -12 -6 -39 -32 -60 -60 -42 -56 -52 -62 -72
-45 -12 9 -9 19 17 60 18 27 40 62 49 79 20 37 22 37 59 10z m214 -156 c26
-17 45 -17 67 4 17 15 18 14 18 -35 0 -29 -3 -52 -6 -52 -8 0 -93 68 -129 104
l-30 30 30 -19 c17 -10 39 -24 50 -32z m1024 -190 c85 -248 91 -263 116 -263
13 0 51 13 86 30 34 16 66 27 71 24 10 -7 78 -140 78 -154 0 -5 -16 8 -36 30
-21 23 -45 40 -58 40 -11 0 -54 -18 -93 -40 -65 -35 -74 -37 -82 -22 -5 9 -32
73 -61 142 -58 138 -64 148 -97 161 l-24 9 20 37 c10 21 22 53 26 71 3 17 10
32 14 32 4 0 22 -44 40 -97z m-1201 -68 c1 -1 -3 -38 -9 -81 -11 -72 -20 -93
-41 -94 -10 0 -11 174 -1 183 5 6 41 0 51 -8z m332 -4 c16 -30 12 -39 -15 -33
-26 5 -29 10 -19 36 8 21 21 20 34 -3z m686 -145 c-3 -30 -15 -100 -26 -155
-11 -55 -17 -107 -14 -116 7 -17 22 -21 102 -29 67 -7 72 -10 72 -51 0 -37
-15 -54 -33 -36 -6 6 -46 11 -93 11 -46 0 -85 3 -87 8 -3 4 4 75 15 157 10 83
17 166 14 185 -5 29 -1 38 22 57 15 12 29 22 31 23 2 0 1 -24 -3 -54z m-481
-35 c3 -6 -3 -15 -14 -20 -27 -15 -31 -14 -31 9 0 21 33 29 45 11z m245 -40
c0 -5 -38 -55 -85 -111 -47 -57 -90 -111 -96 -122 -16 -30 -2 -53 62 -98 33
-23 59 -45 57 -48 -2 -4 -10 -19 -17 -34 -19 -37 -29 -35 -33 3 -3 28 -11 36
-68 66 -36 19 -66 38 -68 43 -2 5 40 66 92 136 53 70 96 135 96 144 0 9 3 20
7 23 10 10 53 8 53 -2z m-540 -122 c0 -12 12 -48 27 -81 26 -59 26 -61 7 -75
-17 -12 -20 -11 -27 9 -5 13 -23 51 -40 86 -27 54 -30 64 -17 72 26 17 50 12
50 -11z"></path>
</g>
<g transform="translate(0.000000,300.000000) scale(0.100000,-0.100000)" fill="#A1A1A1" stroke="none">

<path class="node" id="node3" d="M1527 2456 c-31 -53 -57 -101 -57 -105 0 -5 25 -26 56 -47 31 -21 60
-47 65 -57 13 -23 3 -38 -131 -201 l-105 -127 -55 3 -55 3 1 50 c0 28 8 104
17 170 9 65 17 123 17 127 0 4 -38 8 -85 8 -96 0 -125 16 -125 69 0 63 -18 36
-24 -36 -9 -94 -1 -103 86 -103 67 0 104 -25 94 -64 -3 -12 -12 -64 -21 -116
-8 -52 -21 -128 -29 -167 -7 -40 -10 -73 -6 -73 4 0 19 9 34 21 14 11 68 40
121 65 79 37 104 44 155 44 79 0 194 -26 245 -55 105 -61 187 -192 208 -336 6
-43 15 -79 19 -79 4 0 8 7 8 15 0 8 9 19 19 24 16 9 36 -2 117 -61 55 -39 118
-87 141 -105 23 -19 46 -32 51 -29 5 3 29 40 53 82 43 75 44 76 79 71 19 -3
44 -8 54 -13 40 -16 5 13 -65 55 -49 30 -74 40 -77 31 -9 -25 -89 -115 -105
-118 -11 -2 -74 44 -162 118 -139 117 -145 124 -145 160 0 59 15 65 123 51 85
-11 169 -25 225 -37 21 -4 22 -2 22 84 0 55 5 94 13 104 11 14 149 48 197 48
11 0 20 4 20 8 0 17 -304 29 -314 14 -3 -5 -8 -46 -12 -90 -6 -70 -10 -82 -25
-82 -10 0 -96 14 -192 30 -96 17 -177 30 -180 30 -12 0 -49 72 -41 79 5 5 61
30 124 56 63 26 134 56 158 66 l43 19 -47 86 -47 87 44 41 c24 23 61 56 83 74
45 39 41 53 -6 24 -18 -10 -69 -39 -113 -62 -114 -61 -111 -55 -75 -133 37
-82 37 -95 3 -108 -16 -7 -37 -15 -48 -20 -11 -5 -83 -32 -160 -59 -136 -50
-141 -51 -172 -36 -19 9 -33 23 -33 34 0 9 45 80 101 156 78 107 98 141 88
148 -8 5 -44 24 -81 44 -78 39 -81 48 -47 139 34 92 16 84 -44 -19z"></path>
<path class="node" id="node4" d="M827 2013 c-60 -33 -72 -36 -98 -26 -16 6 -29 8 -29 5 0 -14 45 -92
53 -92 4 0 34 14 67 30 64 32 92 37 108 18 8 -12 87 -213 115 -295 10 -33 27
-45 27 -20 0 6 16 38 35 70 19 31 33 57 30 57 -2 0 -16 -5 -31 -10 -15 -6 -35
-8 -44 -5 -16 5 -70 115 -126 257 -11 27 -23 48 -29 47 -5 0 -41 -16 -78 -36z"></path>
<path class="node" id="node5" d="M1420 1883 c-190 -72 -272 -154 -311 -311 -27 -109 28 -272 119 -353
79 -70 141 -93 252 -93 198 -1 319 86 365 264 40 150 15 278 -71 366 -91 94
-271 158 -354 127z"></path>
<path class="node" id="node6" d="M682 1639 c-9 -17 -31 -52 -49 -79 -26 -41 -29 -51 -17 -60 20 -17
30 -11 72 45 21 28 48 54 60 60 29 13 28 19 -7 44 -37 27 -39 27 -59 -10z"></path>
<path class="node" id="node7" d="M905 1514 c36 -36 121 -104 129 -104 3 0 6 23 6 52 0 49 -1 50 -18
35 -22 -21 -41 -21 -67 -4 -11 8 -33 22 -50 32 l-30 19 30 -30z"></path>
<path class="node" id="node8" d="M1925 1368 c-4 -18 -16 -50 -26 -71 l-20 -37 24 -9 c33 -13 39 -23
97 -161 29 -69 56 -133 61 -142 8 -15 17 -13 82 22 39 22 82 40 93 40 13 0 37
-17 58 -40 20 -22 36 -35 36 -30 0 14 -68 147 -78 154 -5 3 -37 -8 -71 -24
-35 -17 -73 -30 -86 -30 -25 0 -31 15 -116 263 -18 53 -36 97 -40 97 -4 0 -11
-15 -14 -32z"></path>
<path class="node" id="node9" d="M727 1243 c-10 -9 -9 -183 1 -183 21 1 30 22 41 94 6 43 10 80 9 81
-10 8 -46 14 -51 8z"></path>
<path class="node" id="node10" d="M1076 1234 c-10 -26 -7 -31 19 -36 27 -6 31 3 15 33 -13 23 -26 24
-34 3z"></path>
<path class="node" id="node11" d="M1768 1117 c-23 -19 -27 -28 -22 -57 3 -19 -4 -102 -14 -185 -11 -82
-18 -153 -15 -157 2 -5 41 -8 87 -8 47 0 87 -5 93 -11 18 -18 33 -1 33 36 0
41 -5 44 -72 51 -80 8 -95 12 -102 29 -3 9 3 61 14 116 21 107 35 209 29 209
-2 -1 -16 -11 -31 -23z"></path>
<path class="node" id="node12" d="M1270 1040 c0 -23 4 -24 31 -9 23 12 16 29 -12 29 -12 0 -19 -7 -19
-20z"></path>
<path class="node" id="node13" d="M1507 1013 c-4 -3 -7 -14 -7 -23 0 -9 -43 -74 -96 -144 -52 -70 -94
-131 -92 -136 2 -5 32 -24 68 -43 57 -30 65 -38 68 -66 4 -38 14 -40 33 -3 7
15 15 30 17 34 2 3 -24 25 -57 48 -64 45 -78 68 -62 98 6 11 49 65 96 122 47
56 85 106 85 111 0 10 -43 12 -53 2z"></path>
<path class="node" id="node14" d="M970 900 c-13 -8 -10 -18 17 -72 17 -35 35 -73 40 -86 7 -20 10 -21
27 -9 19 14 19 16 -7 75 -15 33 -27 69 -27 81 0 23 -24 28 -50 11z"></path>
</g>
</svg>