<!--?xml version="1.0" standalone="no"?-->

<svg version="1.0" xmlns="http://www.w3.org/2000/svg" width="299.000000pt" height="300.000000pt" viewBox="0 0 299.000000 300.000000" preserveAspectRatio="xMidYMid meet">
<g transform="translate(0.000000,300.000000) scale(0.100000,-0.100000)" fill="#0B0B0B" stroke="none">
<path d="M1483 2803 c-19 -46 -14 -144 12 -220 28 -85 17 -126 -68 -253 -58
-85 -79 -191 -56 -273 9 -33 8 -42 -7 -58 -42 -47 -110 -5 -169 103 -26 47
-30 64 -31 150 -2 95 -3 99 -38 147 -30 40 -55 59 -135 100 -89 46 -150 95
-163 133 -3 7 -8 10 -12 7 -3 -3 1 -29 10 -58 12 -40 31 -69 85 -125 89 -95
102 -130 93 -253 -8 -115 9 -180 73 -271 45 -64 49 -86 17 -113 -24 -20 -79
-12 -141 20 -70 35 -104 70 -141 141 -17 35 -42 65 -70 85 -43 30 -45 30 -188
32 -119 2 -153 6 -190 22 -55 25 -56 13 -2 -33 30 -26 69 -45 140 -67 119 -36
151 -62 194 -155 47 -101 111 -169 204 -213 85 -41 98 -64 57 -105 -17 -17
-41 -26 -82 -31 -92 -12 -150 0 -224 45 -57 34 -76 40 -122 40 -60 0 -120 -24
-178 -69 -51 -40 -112 -69 -161 -77 -49 -8 -37 -20 30 -28 27 -4 71 0 110 10
140 34 197 28 266 -27 22 -18 68 -45 104 -62 61 -28 71 -29 162 -25 53 3 103
1 112 -4 10 -6 16 -22 16 -44 0 -42 -45 -88 -125 -128 -42 -22 -64 -26 -135
-26 -67 0 -94 -4 -125 -21 -62 -33 -81 -55 -135 -160 -36 -70 -63 -109 -98
-139 -45 -39 -46 -41 -17 -34 54 12 109 46 170 104 90 86 102 90 252 88 118
-2 132 0 183 24 31 14 72 39 92 57 41 35 67 39 91 13 25 -27 21 -79 -12 -147
-31 -66 -73 -108 -138 -137 -46 -20 -89 -65 -110 -115 -9 -22 -13 -77 -13
-170 0 -120 -3 -143 -20 -176 -20 -38 -20 -38 -1 -27 43 23 111 149 111 205 0
23 29 76 59 108 14 16 58 43 98 62 39 18 92 52 118 76 44 41 95 122 95 152 0
27 37 49 68 42 46 -10 65 -63 61 -167 -4 -78 -7 -90 -43 -147 -66 -108 -60
-182 29 -316 54 -81 78 -149 69 -195 -3 -16 3 -11 16 15 25 52 25 101 -1 202
-26 97 -21 153 18 210 15 21 39 56 54 78 40 58 53 121 47 226 -5 83 -4 91 15
104 12 8 30 15 41 15 28 0 90 -70 125 -142 28 -56 31 -72 29 -143 -3 -121 36
-177 169 -240 94 -44 136 -77 157 -118 l16 -32 0 36 c0 44 -62 143 -114 183
-64 49 -90 136 -71 245 14 83 -28 211 -92 281 -29 31 -29 54 -2 81 16 16 29
20 55 16 84 -14 202 -95 220 -151 15 -46 56 -97 96 -118 39 -20 58 -22 188
-23 132 0 149 -2 190 -24 l45 -23 -25 28 c-14 15 -34 36 -45 46 -20 18 -157
68 -186 68 -9 0 -34 13 -56 29 -30 22 -51 52 -84 117 -49 101 -108 165 -184
200 -27 13 -55 24 -62 24 -19 0 -35 39 -28 67 7 30 49 48 130 57 73 8 133 -8
200 -54 85 -58 167 -51 277 24 89 61 125 78 183 86 l50 6 -45 13 c-53 16 -142
9 -218 -15 -70 -23 -136 -9 -206 45 -93 70 -137 84 -256 84 -58 -1 -111 4
-117 9 -21 17 -15 64 11 95 13 15 50 44 81 63 54 32 64 34 149 35 144 2 189
33 271 190 53 103 66 120 115 147 l35 19 -44 -6 c-51 -7 -130 -56 -184 -115
-64 -68 -84 -75 -242 -75 -133 0 -142 -2 -190 -28 -27 -14 -69 -41 -92 -58
-41 -31 -43 -31 -67 -15 -39 25 -42 58 -11 129 37 86 64 118 126 151 30 16 67
41 82 55 55 50 61 73 67 247 4 141 7 165 24 183 27 29 1 27 -29 -3 -32 -32
-70 -111 -83 -172 -21 -99 -55 -136 -175 -192 -88 -41 -154 -108 -191 -195
-27 -63 -30 -67 -61 -67 -55 0 -69 27 -73 141 -4 95 -3 100 28 153 17 31 35
58 40 61 16 10 22 94 10 143 -7 30 -33 81 -65 127 -54 78 -83 161 -69 198 13
35 -8 16 -23 -20z m201 -951 c324 -152 330 -616 9 -774 -65 -32 -72 -33 -183
-33 -107 0 -119 2 -175 30 -113 56 -195 160 -229 292 -21 80 -20 124 3 206 33
115 97 203 186 256 80 48 135 62 237 57 71 -3 98 -9 152 -34z" id="node1" class="node"></path>
<path d="M1375 1772 c-76 -36 -130 -92 -155 -160 -22 -59 -26 -148 -8 -187 10
-21 9 -28 -2 -35 -8 -5 -18 -6 -23 -3 -17 10 5 -41 39 -94 92 -142 286 -208
426 -145 116 52 178 147 178 273 0 42 -5 80 -11 86 -15 15 -3 33 22 33 19 0
19 1 3 33 -31 58 -91 132 -131 160 -103 72 -236 87 -338 39z m184 -91 c10 -6
4 -11 -20 -16 -96 -21 -141 -87 -107 -160 15 -34 23 -32 36 13 19 62 53 87
121 87 68 -1 99 -18 137 -75 52 -78 31 -189 -47 -252 -39 -31 -118 -50 -173
-41 -34 5 -41 23 -9 23 30 0 84 33 98 61 18 34 19 76 1 108 -15 26 -20 21 -31
-26 -3 -18 -20 -44 -38 -59 -28 -23 -37 -26 -94 -22 -53 3 -68 9 -94 33 -17
17 -38 44 -45 62 -19 44 -18 117 2 159 20 41 77 91 119 103 40 12 126 13 144
2z" id="node2" class="node"></path>
</g>
<g transform="translate(0.000000,300.000000) scale(0.100000,-0.100000)" fill="#A1A1A1" stroke="none">

<path d="M1398 1877 c-138 -40 -245 -152 -289 -304 -23 -82 -24 -126 -3 -206
34 -132 116 -236 229 -292 56 -28 68 -30 175 -30 111 0 118 1 183 33 265 131
320 497 105 698 -75 70 -161 106 -266 110 -53 2 -105 -1 -134 -9z m219 -97
c99 -35 172 -102 227 -207 16 -32 16 -33 -3 -33 -25 0 -37 -18 -22 -33 6 -6
11 -44 11 -86 0 -126 -62 -221 -178 -273 -140 -63 -334 3 -426 145 -34 53 -56
104 -39 94 5 -3 15 -2 23 3 11 7 12 14 2 35 -18 39 -14 128 8 187 40 108 159
188 278 188 37 0 86 -8 119 -20z" id="node4" class="node"></path>
<path d="M1415 1679 c-42 -12 -99 -62 -119 -103 -20 -42 -21 -115 -2 -159 7
-18 28 -45 45 -62 26 -24 41 -30 94 -33 57 -4 66 -1 94 22 18 15 35 41 38 59
11 47 16 52 31 26 18 -32 17 -74 -1 -108 -14 -28 -68 -61 -98 -61 -32 0 -25
-18 9 -23 55 -9 134 10 173 41 78 63 99 174 47 252 -38 57 -69 74 -137 75 -68
0 -102 -25 -121 -87 -13 -45 -21 -47 -36 -13 -34 73 11 139 107 160 24 5 30
10 20 16 -18 11 -104 10 -144 -2z" id="node5" class="node"></path>
</g>
</svg>