<!--?xml version="1.0" standalone="no"?--><svg version="1.0" xmlns="http://www.w3.org/2000/svg" width="300.000000pt" height="225.000000pt" viewBox="0 0 300.000000 225.000000" preserveAspectRatio="xMidYMid meet">
<metadata>
  <rdf:rdf xmlns:rdf="http://www.w3.org/1999/02/22-rdf-syntax-ns#" xmlns:rdfs="http://www.w3.org/2000/01/rdf-schema#" xmlns:dc="http://purl.org/dc/elements/1.1/">
    <rdf:description dc:title="hot clipart" dc:publisher="Hiox" dc:date="2016-02-22" dc:format="image/svg+xml" dc:language="en">
      <dc:creator>
        <rdf:bag>
          <rdf:li>svgimages.com</rdf:li>
        </rdf:bag>
      </dc:creator>
    </rdf:description>
  </rdf:rdf>
</metadata>
<g transform="translate(0.000000,225.000000) scale(0.100000,-0.100000)" fill="#313131" stroke="none">
<path class="node" id="node1" d="M1683 2078 c0 -24 -3 -79 -7 -123 -7 -75 -6 -82 17 -109 28 -35 57
-28 32 7 -11 16 -15 49 -15 122 0 101 -6 145 -20 145 -4 0 -7 -19 -7 -42z"></path>
<path class="node" id="node2" d="M1647 2040 c-30 -95 -34 -149 -11 -157 14 -5 34 125 24 152 -6 16 -9
17 -13 5z"></path>
<path class="node" id="node3" d="M1279 1976 c-14 -30 -22 -32 -39 -11 -7 8 -16 15 -21 15 -5 0 -8 -57
-6 -127 2 -100 7 -135 21 -161 20 -39 12 -57 -13 -26 -9 12 -36 33 -59 48 -23
14 -49 37 -58 51 -21 32 -34 23 -34 -22 l0 -35 -34 30 c-36 31 -73 48 -84 38
-3 -3 3 -13 14 -21 10 -8 16 -15 12 -15 -4 0 -33 21 -63 46 -61 49 -79 51 -51
3 23 -39 37 -89 25 -89 -5 0 -9 5 -9 10 0 6 -7 10 -16 10 -12 0 -14 -7 -9 -31
11 -51 54 -135 83 -164 28 -28 81 -65 95 -65 21 0 2 27 -30 45 -38 20 -84 78
-102 128 -9 26 -9 27 14 21 28 -7 29 -3 16 43 -12 43 -1 48 39 18 19 -14 45
-25 59 -25 14 0 35 -7 45 -15 29 -22 39 -18 32 12 -7 26 -7 26 18 10 14 -10
37 -24 51 -33 14 -9 25 -21 25 -28 0 -6 -24 -32 -54 -58 -29 -26 -67 -68 -82
-93 -27 -42 -31 -45 -64 -39 -19 4 -37 7 -40 7 -22 2 -160 -17 -160 -22 0 -4
5 -12 11 -18 29 -29 -106 -30 -171 -1 -96 43 -98 27 -8 -63 99 -98 198 -144
261 -120 41 16 34 32 -12 25 -47 -8 -125 28 -193 88 l-43 38 33 -12 c49 -16
146 -4 178 21 20 16 41 21 85 21 33 0 59 -4 59 -9 0 -5 -9 -30 -21 -56 -12
-26 -24 -68 -28 -93 -6 -45 -7 -47 -48 -54 -23 -3 -55 -14 -72 -22 -16 -9 -41
-16 -55 -16 -49 0 -40 -36 11 -46 26 -5 32 -2 38 15 4 14 22 25 57 36 29 8 53
15 55 15 3 0 3 -28 2 -62 -2 -35 0 -86 5 -114 l8 -52 -76 -76 c-41 -42 -69
-76 -62 -76 19 0 100 64 121 97 l19 28 12 -30 c7 -17 13 -39 14 -49 0 -11 6
-27 14 -35 7 -9 16 -39 20 -68 7 -56 13 -46 -74 -113 -24 -18 -24 -19 -4 -20
22 0 92 50 107 76 9 16 27 19 27 4 0 -5 -16 -27 -35 -49 -19 -21 -35 -41 -35
-45 0 -14 25 -4 57 24 18 17 37 30 41 30 17 -1 49 -38 64 -75 14 -35 14 -45 2
-80 -7 -22 -14 -41 -14 -41 0 -1 -17 -13 -38 -28 -43 -30 -73 -36 -52 -11 7 9
10 19 6 23 -4 4 -17 -5 -28 -21 -29 -39 -39 -33 -17 10 23 45 24 73 4 73 -21
0 -5 32 37 77 17 17 28 37 26 44 -5 16 -75 -56 -99 -104 -22 -41 -15 -73 8
-42 24 33 15 -9 -10 -46 -31 -47 -48 -87 -38 -93 4 -3 25 4 46 15 21 11 47 18
59 15 50 -13 186 100 186 155 0 10 5 19 10 19 6 0 10 -14 10 -31 0 -17 7 -37
15 -45 20 -21 20 -22 -20 -84 -19 -29 -33 -56 -30 -58 7 -8 76 68 86 95 6 17
4 33 -7 54 -8 17 -13 34 -9 37 4 4 29 -5 56 -21 30 -17 64 -27 88 -27 51 0 57
-12 27 -47 l-25 -28 -16 23 c-24 33 -43 27 -56 -17 -6 -22 -27 -55 -47 -73
-33 -31 -34 -32 -27 -8 4 14 10 31 12 37 3 7 -2 13 -11 13 -9 0 -16 -4 -16
-10 0 -5 -13 -25 -30 -43 -16 -19 -30 -37 -30 -41 0 -3 20 -6 44 -6 34 0 53 7
88 34 25 19 48 42 51 50 4 9 16 16 28 16 14 0 39 18 65 46 l43 46 16 -39 c18
-42 72 -103 92 -103 17 0 17 32 1 49 -11 11 -9 12 7 3 23 -12 54 -45 78 -84
23 -37 39 -35 59 5 37 74 39 90 23 137 -19 55 -4 79 26 40 44 -57 84 -90 109
-90 14 -1 36 -7 50 -15 32 -18 40 -18 40 -1 0 22 -49 56 -81 56 -19 0 -43 12
-69 36 -22 20 -40 40 -40 44 0 4 30 22 67 41 65 33 147 105 208 183 l30 38 30
-41 c17 -22 66 -64 110 -93 44 -29 99 -67 122 -86 27 -20 43 -28 43 -20 0 21
-67 82 -135 123 l-60 36 37 -3 c53 -4 52 14 -2 31 -57 17 -130 51 -130 61 0 4
17 10 38 13 20 3 64 11 97 18 55 12 58 13 30 20 -28 6 -27 7 11 8 52 1 135 35
197 79 26 18 47 35 47 36 0 1 -46 2 -102 2 -57 -1 -123 3 -148 7 l-45 8 29
-19 c18 -13 55 -23 100 -28 39 -4 64 -9 56 -12 -8 -2 -28 -10 -45 -17 -16 -7
-63 -18 -103 -23 -78 -11 -95 -18 -73 -31 16 -10 -8 -21 -45 -21 -29 0 -30 5
-2 77 12 32 24 74 27 93 6 32 9 35 46 38 36 3 38 2 21 -11 -29 -22 -11 -42 20
-22 14 9 29 13 33 10 5 -3 19 -1 31 3 20 7 15 11 -37 30 -33 12 -69 22 -80 22
-18 0 -21 9 -26 93 -3 51 -15 122 -26 157 -12 36 -21 69 -21 74 0 8 50 2 93
-10 9 -3 17 -1 17 5 0 10 -54 28 -99 33 -41 5 -33 22 25 52 54 29 154 128 134
134 -5 2 -21 -10 -35 -26 -25 -30 -144 -102 -169 -102 -20 0 -111 114 -102
129 3 5 27 12 53 15 27 4 56 9 65 12 13 4 16 1 12 -10 -8 -21 5 -20 35 3 15
12 22 24 18 34 -3 9 -2 19 3 22 6 4 10 13 10 21 0 11 -9 8 -35 -12 -22 -17
-53 -28 -83 -32 -26 -2 -59 -13 -75 -24 l-27 -19 -63 40 c-34 23 -79 49 -99
58 -24 11 -38 24 -38 35 0 41 136 106 163 79 28 -28 81 8 103 71 7 18 13 25
13 16 2 -29 -17 -66 -61 -124 -53 -69 -78 -107 -78 -116 0 -34 97 53 132 119
15 26 29 71 33 98 3 28 8 60 11 73 3 15 0 22 -11 22 -8 0 -15 -4 -15 -8 0 -4
-7 -17 -15 -27 -8 -11 -30 -40 -48 -65 l-32 -45 -3 38 c-3 38 -18 49 -29 21
-3 -9 -38 -31 -78 -49 -39 -18 -82 -43 -94 -56 -27 -29 -37 -18 -46 56 -4 27
-13 70 -22 95 -8 25 -17 52 -20 60 -4 13 -5 13 -13 0 -15 -23 -12 -78 6 -112
9 -18 17 -55 18 -82 l1 -51 -35 5 c-19 3 -79 5 -132 5 -81 0 -98 3 -98 15 0 9
-20 47 -45 85 -25 39 -45 77 -45 86 0 16 -19 39 -31 39 -4 0 -9 -12 -11 -27
-4 -28 -4 -28 -23 11 -25 49 -41 55 -56 22z m40 -66 c12 -42 20 -47 38 -29 8
8 15 4 27 -12 9 -13 16 -28 16 -34 0 -6 11 -26 25 -45 14 -19 25 -37 25 -41 0
-4 -21 -15 -47 -25 -27 -9 -67 -25 -90 -35 -43 -18 -43 -18 -55 4 -15 29 -23
250 -8 225 16 -27 40 -22 40 7 0 38 15 30 29 -15z m486 -230 c95 -40 151 -76
224 -145 69 -64 105 -117 141 -206 63 -156 63 -337 -2 -479 -83 -184 -225
-307 -410 -355 -64 -17 -217 -20 -298 -6 -168 29 -326 150 -412 316 -54 106
-67 148 -72 245 -8 134 14 230 87 380 26 53 131 160 192 196 115 67 223 94
360 90 98 -2 119 -6 190 -36z m-31 -1267 c1 -23 -1 -40 -6 -37 -4 3 -8 11 -8
17 0 20 -17 40 -28 33 -7 -4 -4 -21 8 -49 11 -23 19 -51 19 -62 0 -18 -2 -17
-22 7 -24 30 -86 78 -99 78 -5 0 -12 -10 -17 -22 -8 -22 -9 -22 -25 9 -29 56
-24 62 57 66 124 6 119 8 121 -40z"></path>
<path class="node" id="node4" d="M1705 1348 c24 -79 24 -144 1 -199 -12 -29 15 -34 37 -8 16 21 19 36
15 106 -3 62 -9 88 -23 103 -24 27 -39 26 -30 -2z"></path>
<path class="node" id="node5" d="M1786 1240 c-24 -69 -25 -100 -5 -100 15 0 31 79 20 98 -8 14 -10 15
-15 2z"></path>
<path class="node" id="node6" d="M1250 1201 c0 -12 58 -60 88 -74 13 -6 32 -28 43 -49 35 -69 84 -83
134 -38 11 10 34 22 50 26 58 14 119 74 98 95 -6 6 -25 -3 -49 -22 -35 -28
-44 -30 -89 -25 -77 9 -172 41 -206 70 -30 25 -69 35 -69 17z m190 -119 c0
-13 -12 -22 -22 -16 -10 6 -1 24 13 24 5 0 9 -4 9 -8z"></path>
<path class="node" id="node7" d="M2038 1152 c-1 -4 -18 -18 -36 -31 -35 -25 -115 -31 -164 -12 -17 6
-30 7 -33 1 -8 -13 40 -87 65 -100 26 -14 68 -3 75 21 4 11 25 31 48 45 46 29
67 51 67 71 0 14 -16 18 -22 5z"></path>
<path class="node" id="node8" d="M1687 983 c-15 -15 -5 -25 18 -19 57 14 90 -46 43 -78 -32 -22 -64
-20 -82 6 -12 17 -19 19 -27 11 -9 -9 -5 -18 14 -37 42 -42 123 -30 146 21 16
34 14 47 -10 77 -16 20 -29 26 -58 26 -21 0 -41 -3 -44 -7z"></path>
<path class="node" id="node9" d="M1453 788 c-51 -6 -93 -15 -93 -19 0 -17 53 -21 138 -13 157 16 251
12 310 -14 84 -36 114 -14 40 29 -39 22 -55 24 -173 25 -71 1 -172 -3 -222 -8z"></path>
<path class="node" id="node10" d="M1610 730 c-24 -15 -6 -22 81 -27 67 -5 81 -4 77 8 -2 7 -15 16 -29
20 -36 10 -112 10 -129 -1z"></path>
<path class="node" id="node11" d="M1567 1915 c-37 -60 -54 -113 -43 -140 10 -27 26 -16 26 18 0 17 7
46 16 62 40 72 45 86 42 103 -2 12 -15 -2 -41 -43z"></path>
<path class="node" id="node12" d="M940 1946 c0 -14 111 -96 130 -96 20 0 9 17 -32 51 -70 57 -98 70
-98 45z"></path>
<path class="node" id="node13" d="M90 1872 c0 -22 125 -87 295 -153 33 -13 67 -28 75 -34 22 -16 68
-35 86 -35 35 0 4 23 -91 68 -55 26 -116 56 -135 67 -52 29 -182 86 -207 92
-13 3 -23 1 -23 -5z"></path>
<path class="node" id="node14" d="M2317 1823 c-20 -16 -36 -31 -37 -35 0 -18 29 -6 66 27 48 42 25 48
-29 8z"></path>
<path class="node" id="node15" d="M2505 1799 c-49 -28 -97 -57 -105 -65 -27 -26 16 -16 78 18 31 17 74
40 95 51 20 10 37 25 37 33 0 21 -7 18 -105 -37z"></path>
<path class="node" id="node16" d="M482 1775 c2 -9 35 -29 73 -46 39 -17 78 -35 88 -40 9 -5 42 -19 73
-30 31 -12 67 -27 82 -35 26 -13 42 -11 42 7 0 5 -4 9 -10 9 -5 0 -49 18 -97
41 -49 23 -110 50 -137 61 -27 10 -58 25 -70 33 -27 19 -48 19 -44 0z"></path>
<path class="node" id="node17" d="M2126 1705 c-35 -21 -95 -94 -70 -84 17 7 123 94 123 102 1 12 -12 8
-53 -18z"></path>
<path class="node" id="node18" d="M2337 1660 c-51 -55 -47 -64 8 -21 11 8 -2 -8 -28 -36 -33 -34 -45
-53 -37 -58 15 -9 110 88 110 112 -1 43 -16 44 -53 3z"></path>
<path class="node" id="node19" d="M315 1570 c-4 -6 -5 -12 -4 -14 14 -10 99 -36 118 -36 37 0 19 22
-30 35 -24 7 -51 15 -60 19 -10 4 -20 2 -24 -4z"></path>
<path class="node" id="node20" d="M2750 1544 c-30 -8 -69 -21 -87 -29 -17 -8 -36 -15 -41 -15 -17 0
-196 -62 -206 -71 -22 -20 8 -21 57 -2 28 11 104 37 167 57 63 20 125 42 137
48 13 6 26 9 29 6 3 -4 -4 -9 -15 -13 -37 -11 -23 -26 17 -19 53 10 82 22 82
34 0 7 -13 9 -35 4 -23 -4 -35 -2 -35 5 0 13 0 13 -70 -5z"></path>
<path class="node" id="node21" d="M2408 1334 c-4 -3 -35 -7 -70 -8 -34 -2 -64 -7 -66 -12 -4 -12 57
-25 85 -19 17 4 21 2 17 -10 -4 -8 -1 -15 5 -15 18 0 71 42 71 57 0 13 -31 18
-42 7z"></path>
<path class="node" id="node22" d="M2718 1333 c-28 -4 -40 -33 -14 -33 36 0 76 14 76 26 0 14 -9 15 -62
7z"></path>
<path class="node" id="node23" d="M415 1320 c-8 -13 3 -16 92 -29 96 -15 126 -14 121 2 -8 24 -200 48
-213 27z"></path>
<path class="node" id="node24" d="M2526 1311 c-9 -10 -37 -24 -62 -31 -53 -15 -60 -35 -9 -27 23 4 35
2 35 -6 0 -8 3 -8 12 1 7 7 16 12 22 12 15 0 -26 -41 -68 -68 -36 -22 -38 -26
-22 -37 15 -12 14 -15 -17 -34 -19 -12 -57 -22 -88 -25 -36 -3 -54 -8 -54 -18
0 -9 16 -13 56 -13 68 0 131 37 153 89 8 19 21 38 29 42 20 13 38 50 31 67 -3
8 -1 18 5 22 13 7 15 45 3 45 -5 0 -17 -8 -26 -19z"></path>
<path class="node" id="node25" d="M105 1200 c-16 -26 11 -31 145 -26 137 4 160 8 160 27 0 13 -297 12
-305 -1z"></path>
<path class="node" id="node26" d="M2736 1131 c-62 -4 -91 -10 -94 -19 -4 -12 20 -13 129 -7 150 7 179
11 179 25 0 10 -58 10 -214 1z"></path>
<path class="node" id="node27" d="M690 1074 c-19 -8 -48 -28 -65 -43 -16 -16 -48 -40 -69 -54 -29 -19
-35 -28 -25 -32 9 -3 28 -1 43 5 15 5 45 10 66 10 21 0 45 3 54 6 26 10 18 24
-14 24 -16 0 -30 3 -30 8 0 10 81 62 97 62 7 0 13 7 13 15 0 19 -25 19 -70 -1z"></path>
<path class="node" id="node28" d="M2559 1036 c11 -13 39 -16 162 -16 88 0 150 4 154 10 4 6 -24 10 -77
11 -46 0 -121 2 -167 5 -76 5 -83 4 -72 -10z"></path>
<path class="node" id="node29" d="M375 993 c-36 -6 -57 -21 -49 -35 4 -7 30 -8 66 -4 80 8 106 15 112
32 4 11 -6 14 -47 13 -29 -1 -65 -4 -82 -6z"></path>
<path class="node" id="node30" d="M830 980 c-111 -9 -192 -36 -162 -53 13 -8 220 11 241 22 23 13 29
42 9 39 -7 -1 -47 -4 -88 -8z"></path>
<path class="node" id="node31" d="M29 928 c-11 -5 -19 -14 -16 -20 9 -25 157 -4 157 22 0 12 -107 10
-141 -2z"></path>
<path class="node" id="node32" d="M883 822 c-18 -22 -52 -51 -75 -64 -40 -22 -51 -39 -31 -45 15 -5 97
54 121 87 37 50 23 70 -15 22z"></path>
<path class="node" id="node33" d="M515 800 c-11 -4 -58 -19 -105 -33 -252 -76 -261 -80 -244 -97 8 -8
22 -7 50 4 48 18 258 82 299 92 33 7 55 22 55 35 0 11 -28 11 -55 -1z"></path>
<path class="node" id="node34" d="M2790 777 c0 -10 16 -17 51 -21 29 -4 65 -10 80 -13 44 -8 36 15 -8
26 -83 21 -123 24 -123 8z"></path>
<path class="node" id="node35" d="M844 737 c-16 -13 -55 -40 -86 -60 -37 -23 -58 -44 -58 -55 0 -17 7
-19 78 -15 42 3 91 9 109 14 40 13 109 87 94 102 -7 7 -18 0 -37 -22 -43 -52
-101 -73 -149 -55 -13 5 -5 17 37 54 54 49 64 80 12 37z"></path>
<path class="node" id="node36" d="M2480 667 c15 -15 70 -35 175 -62 205 -54 289 -75 293 -71 11 12 -14
25 -75 41 -38 10 -131 35 -208 57 -77 22 -153 42 -170 45 -27 5 -28 4 -15 -10z"></path>
<path class="node" id="node37" d="M2060 612 c0 -16 56 -60 92 -71 20 -7 52 -9 70 -6 18 3 59 -1 93 -9
73 -19 76 -20 69 -2 -10 26 -81 46 -163 46 -67 0 -84 4 -115 25 -40 27 -46 29
-46 17z"></path>
<path class="node" id="node38" d="M2030 581 c0 -6 5 -13 11 -17 6 -3 24 -35 40 -70 36 -81 86 -154 104
-154 19 0 19 9 -3 45 -10 17 -27 52 -37 79 -23 61 -115 154 -115 117z"></path>
<path class="node" id="node39" d="M540 509 c-47 -16 -98 -36 -115 -43 -16 -8 -47 -17 -67 -21 -51 -10
-77 -30 -61 -46 11 -11 25 -8 75 10 35 13 83 30 108 38 101 32 165 61 168 77
4 21 -7 19 -108 -15z"></path>
<path class="node" id="node40" d="M900 526 c-14 -7 -60 -30 -102 -50 -43 -21 -78 -42 -78 -47 0 -22 33
-20 70 5 22 14 42 26 45 26 3 0 24 11 48 25 37 22 38 23 13 3 -16 -13 -38 -30
-50 -40 -33 -26 -11 -33 26 -7 59 40 76 59 71 80 -6 22 -10 23 -43 5z"></path>
<path class="node" id="node41" d="M2700 471 c0 -14 33 -31 61 -31 20 0 21 2 9 14 -20 19 -70 32 -70 17z"></path>
<path class="node" id="node42" d="M2332 438 c6 -18 55 -44 65 -35 9 9 -35 46 -55 47 -8 0 -12 -6 -10
-12z"></path>
<path class="node" id="node43" d="M2080 412 c0 -6 -7 -12 -15 -14 -12 -2 -11 -10 5 -45 10 -24 24 -43
30 -43 14 0 13 16 -6 51 -22 44 -11 47 14 4 21 -35 42 -46 42 -22 -1 21 -70
91 -70 69z"></path>
</g>
<g transform="translate(0.000000,225.000000) scale(0.100000,-0.100000)" fill="#FAA543" stroke="none">





</g>
</svg>