<!--?xml version="1.0" standalone="no"?-->

<svg version="1.0" xmlns="http://www.w3.org/2000/svg" width="217.000000pt" height="300.000000pt" viewBox="0 0 217.000000 300.000000" preserveAspectRatio="xMidYMid meet">
<g transform="translate(0.000000,300.000000) scale(0.100000,-0.100000)" fill="#282727" stroke="none">
<path class="node" id="node1" d="M318 2971 c-48 -43 -48 -109 0 -152 39 -35 51 -36 98 -4 20 14 45 25
55 25 26 0 35 59 15 98 -35 69 -112 83 -168 33z m110 -43 c30 -30 1 -89 -41
-87 -21 2 -21 2 2 6 l23 5 -21 14 c-12 9 -21 21 -21 29 0 8 -5 17 -11 21 -8 5
-10 -3 -7 -24 2 -17 1 -29 -4 -26 -12 8 -10 48 4 62 7 7 24 12 38 12 14 0 31
-5 38 -12z"></path>
<path class="node" id="node2" d="M445 2809 c-53 -31 -55 -35 -31 -97 24 -60 106 -232 111 -232 2 0 17
14 33 30 23 22 40 30 66 30 20 0 36 4 36 8 0 5 -35 67 -78 138 -80 132 -95
146 -137 123z"></path>
<path class="node" id="node3" d="M1445 2543 c81 -78 124 -133 174 -225 102 -186 125 -442 60 -655 -70
-227 -249 -430 -463 -528 -107 -49 -175 -65 -301 -72 -182 -10 -346 36 -496
138 -198 134 -332 373 -346 615 -5 91 -7 101 -19 80 -26 -52 -47 -175 -51
-311 -4 -117 -1 -157 16 -244 38 -179 115 -342 232 -486 115 -142 306 -273
486 -334 82 -27 273 -61 348 -61 76 0 258 32 345 61 321 105 577 364 690 700
68 200 63 531 -10 694 -5 11 -19 45 -31 75 -58 153 -201 331 -360 447 -67 49
-195 116 -276 143 l-58 20 60 -57z m233 -145 c68 -46 201 -183 251 -257 59
-87 125 -229 151 -326 28 -104 37 -293 20 -429 -23 -185 -137 -411 -280 -554
-154 -153 -308 -237 -530 -289 -97 -22 -303 -22 -420 0 -117 22 -259 85 -380
167 -30 20 -67 44 -82 53 -54 33 -215 262 -258 367 -17 41 -35 84 -40 95 -21
43 -41 155 -46 255 l-5 105 24 -58 c104 -244 319 -430 574 -498 99 -27 314
-30 413 -6 222 53 447 216 554 400 22 37 43 67 48 67 4 0 8 8 8 18 0 10 7 27
15 39 8 11 26 60 41 109 36 121 45 329 19 453 -19 95 -58 196 -103 270 -18 28
-29 51 -26 51 3 0 26 -14 52 -32z"></path>
<path class="node" id="node4" d="M1772 2240 c3 -8 13 -50 23 -92 l18 -76 54 -4 c29 -2 53 0 53 4 0 10
-113 150 -135 168 -17 13 -18 13 -13 0z"></path>
<path class="node" id="node5" d="M1833 2042 c-8 -5 -11 -31 -9 -82 2 -41 4 -76 5 -78 1 -1 14 4 31 13
16 8 38 15 50 15 16 0 20 6 20 36 0 46 -14 70 -50 89 -34 17 -31 17 -47 7z"></path>
<path class="node" id="node6" d="M1970 1931 c0 -17 2 -31 4 -31 2 0 11 -3 20 -6 13 -5 14 -2 5 25 -15
43 -29 48 -29 12z"></path>
<path class="node" id="node7" d="M1875 1867 c-41 -19 -51 -34 -63 -92 -9 -42 -8 -53 5 -67 21 -23 65
-23 86 0 20 22 22 73 5 90 -7 7 -8 12 -2 12 21 0 44 -37 44 -69 0 -46 -43 -84
-90 -78 -19 2 -42 7 -52 11 -13 6 -19 -3 -33 -49 -9 -32 -14 -59 -11 -62 2 -2
13 0 24 6 12 6 45 11 75 11 72 0 121 22 152 68 32 48 40 91 26 134 -24 74
-102 114 -166 85z"></path>
<path class="node" id="node8" d="M2012 1598 l-43 -40 43 -38 c24 -22 46 -39 51 -40 9 0 9 147 -1 154
-4 2 -27 -14 -50 -36z"></path>
<path class="node" id="node9" d="M1790 1519 c-49 -20 -86 -58 -119 -123 -44 -86 -40 -125 25 -271 44
-99 49 -119 54 -205 l5 -95 59 70 c63 75 139 187 150 223 7 21 4 22 -46 22
-33 0 -62 6 -76 16 -30 21 -72 88 -72 116 0 36 38 104 66 116 35 17 89 15 104
-3 11 -13 7 -15 -24 -15 -61 0 -96 -49 -86 -120 3 -30 48 -64 83 -64 65 0 114
58 132 156 10 53 -38 135 -95 165 -48 24 -116 29 -160 12z"></path>
<path class="node" id="node10" d="M161 1233 c17 -48 38 -101 46 -117 l15 -30 13 30 c6 16 19 35 28 43
15 12 11 20 -50 85 -37 39 -70 73 -75 74 -4 2 6 -36 23 -85z"></path>
<path class="node" id="node11" d="M1545 1239 c-106 -110 -301 -223 -443 -255 -42 -10 -79 -19 -81 -20
-2 -2 12 -18 30 -37 19 -18 50 -62 69 -97 42 -76 128 -173 170 -190 48 -20 27
-24 -29 -5 -61 20 -121 77 -170 161 -41 69 -85 120 -123 140 -16 8 -56 14 -96
14 -61 0 -74 -4 -110 -30 -63 -45 -77 -73 -77 -151 0 -52 5 -74 21 -96 25 -35
83 -64 140 -71 38 -4 47 -1 74 26 56 56 26 152 -48 152 -28 0 -73 -37 -85 -70
-3 -8 -6 -1 -6 15 -1 44 32 92 68 100 111 24 193 -130 115 -216 -10 -11 -14
-22 -10 -27 4 -4 67 -7 139 -6 155 1 267 24 392 81 83 39 210 118 234 147 27
32 8 134 -44 248 -26 57 -57 131 -69 166 l-22 62 -39 -41z m-12 -198 c57 -37
87 -91 87 -160 0 -85 -30 -135 -104 -173 -131 -67 -296 55 -270 200 10 53 29
87 67 116 73 56 148 62 220 17z"></path>
<path class="node" id="node12" d="M1370 1002 c-66 -33 -99 -117 -69 -175 17 -33 61 -77 76 -77 9 0 6
10 -9 31 -59 79 0 207 97 212 37 2 45 11 19 21 -29 11 -79 6 -114 -12z"></path>
<path class="node" id="node13" d="M281 1146 c-37 -45 -18 -111 40 -142 30 -15 32 -14 68 10 20 14 42
26 49 26 23 0 12 20 -20 36 -18 9 -49 29 -68 44 -51 39 -57 41 -69 26z"></path>
<path class="node" id="node14" d="M435 1006 c-33 -14 -60 -49 -70 -88 -5 -21 5 -35 65 -92 66 -61 74
-67 103 -61 58 12 91 39 127 104 20 34 43 67 53 72 27 15 20 26 -20 33 -21 3
-52 9 -69 12 -29 5 -31 4 -27 -23 5 -36 -29 -91 -62 -99 -37 -9 -73 3 -91 31
-22 33 -12 43 15 16 28 -28 56 -26 86 4 30 29 31 45 8 74 -23 27 -79 35 -118
17z"></path>
<path class="node" id="node15" d="M314 954 c3 -8 6 -18 6 -20 0 -2 5 -4 10 -4 16 0 11 27 -6 34 -12 5
-15 2 -10 -10z"></path>
<path class="node" id="node16" d="M586 750 l-40 -18 49 -31 c27 -17 52 -31 55 -31 4 0 2 23 -4 50 -5
28 -12 50 -15 49 -4 0 -24 -9 -45 -19z"></path>
<path class="node" id="node17" d="M604 2510 c-36 -14 -64 -59 -64 -102 0 -30 27 -105 45 -126 3 -3 134
65 182 95 l23 13 -32 51 c-41 68 -97 92 -154 69z m74 -62 c14 -14 16 -64 2
-73 -13 -8 -60 24 -60 41 0 8 -4 14 -10 14 -5 0 -10 -5 -10 -12 0 -6 -3 -8 -7
-5 -11 11 29 47 52 47 11 0 26 -5 33 -12z"></path>
<path class="node" id="node18" d="M1000 2476 c-68 -36 -77 -49 -79 -118 l-1 -37 63 36 c34 20 78 38 97
40 44 3 74 36 65 72 -13 52 -55 54 -145 7z"></path>
<path class="node" id="node19" d="M840 2393 c-81 -44 -274 -146 -307 -162 -18 -8 -33 -18 -33 -21 0 -3
24 -18 54 -33 l54 -29 74 23 c97 31 208 115 208 158 0 16 3 43 6 60 8 37 3 37
-56 4z"></path>
<path class="node" id="node20" d="M840 2244 c-25 -20 -46 -39 -48 -44 -5 -13 48 -124 142 -298 81 -152
111 -208 276 -527 39 -77 75 -143 79 -147 3 -4 21 2 38 13 l32 21 -70 141
c-39 78 -75 150 -80 159 -5 10 -9 27 -9 38 0 11 -4 20 -9 20 -16 0 -104 281
-92 293 6 6 11 18 11 26 0 12 -3 12 -12 3 -19 -19 -43 -14 -73 16 -37 36 -60
91 -80 187 -18 85 -34 127 -50 131 -5 2 -30 -13 -55 -32z"></path>
<path class="node" id="node21" d="M375 2147 c-70 -38 -88 -70 -61 -111 25 -39 68 -35 101 8 16 21 46
41 85 57 33 13 60 29 60 34 0 16 -65 45 -98 45 -15 -1 -54 -15 -87 -33z"></path>
<path class="node" id="node22" d="M668 2154 c-67 -21 -63 -39 28 -135 112 -117 148 -210 93 -240 -23
-12 -15 -32 10 -24 12 4 31 -12 67 -57 85 -106 197 -277 263 -403 35 -66 65
-121 66 -123 6 -8 65 23 65 35 0 13 -132 275 -150 298 -9 11 -44 76 -142 265
-166 319 -215 400 -237 399 -9 0 -37 -7 -63 -15z"></path>
<path class="node" id="node23" d="M1686 583 c-2 -5 -33 -23 -69 -42 l-65 -34 31 -51 c72 -118 248 -328
263 -313 17 16 -41 221 -118 415 -12 30 -31 41 -42 25z"></path>



















</g>
<g transform="translate(0.000000,300.000000) scale(0.100000,-0.100000)" fill="#FFFFFF" stroke="none">

<path class="node" id="node44" d="M605 2440 c-10 -11 -15 -23 -12 -27 4 -3 7 -1 7 5 0 7 5 12 10 12 6
0 10 -6 10 -14 0 -17 47 -49 60 -41 14 9 12 59 -2 73 -18 18 -53 14 -73 -8z"></path>
<path class="node" id="node45" d="M352 2928 c-14 -14 -16 -54 -4 -62 5 -3 6 9 4 26 -3 21 -1 29 7 24 6
-4 11 -13 11 -21 0 -8 9 -20 21 -29 l21 -14 -23 -5 c-23 -4 -23 -4 -2 -6 27
-1 53 24 53 53 0 29 -18 46 -50 46 -14 0 -31 -5 -38 -12z"></path>
<path class="node" id="node46" d="M1652 2379 c45 -74 84 -175 103 -270 26 -124 17 -332 -19 -453 -15
-49 -33 -98 -41 -109 -8 -12 -15 -29 -15 -39 0 -10 -4 -18 -8 -18 -5 0 -26
-30 -48 -67 -107 -184 -332 -347 -554 -400 -99 -24 -314 -21 -413 6 -255 68
-470 254 -574 498 l-24 58 5 -105 c5 -100 25 -212 46 -255 5 -11 23 -54 40
-95 43 -105 204 -334 258 -367 15 -9 52 -33 82 -53 61 -41 156 -92 240 -127
85 -36 210 -56 355 -57 224 0 420 61 600 189 214 152 385 428 415 671 17 136
8 325 -20 429 -26 97 -92 239 -151 326 -50 74 -183 211 -251 257 -26 18 -49
32 -52 32 -3 0 8 -23 26 -51z m210 -227 c32 -40 58 -76 58 -80 0 -4 -24 -6
-53 -4 l-54 4 -18 76 c-10 42 -20 84 -23 92 -10 27 27 -9 90 -88z m18 -117
c36 -19 50 -43 50 -89 0 -30 -4 -36 -20 -36 -12 0 -34 -7 -50 -15 -17 -9 -30
-14 -31 -13 -1 2 -3 37 -5 78 -2 51 1 77 9 82 16 10 13 10 47 -7z m119 -116
c9 -27 8 -30 -5 -25 -9 3 -18 6 -20 6 -2 0 -4 14 -4 31 0 36 14 31 29 -12z m2
-75 c56 -54 61 -125 14 -196 -31 -46 -80 -68 -152 -68 -30 0 -63 -5 -75 -11
-11 -6 -22 -8 -24 -6 -3 3 2 30 11 62 14 46 20 55 33 49 10 -4 33 -9 52 -11
47 -6 90 32 90 78 0 32 -23 69 -44 69 -6 0 -5 -5 2 -12 17 -17 15 -68 -5 -90
-21 -23 -65 -23 -86 0 -13 14 -14 25 -5 67 12 58 22 73 63 92 41 18 93 9 126
-23z m69 -290 c0 -41 -3 -74 -7 -74 -5 1 -27 18 -51 40 l-43 38 43 40 c23 22
46 38 50 36 5 -3 8 -39 8 -80z m-120 -47 c57 -30 105 -112 95 -165 -18 -98
-67 -156 -132 -156 -35 0 -80 34 -83 64 -10 71 25 120 86 120 31 0 35 2 24 15
-15 18 -69 20 -104 3 -28 -12 -66 -80 -66 -116 0 -28 42 -95 72 -116 14 -10
43 -16 76 -16 50 0 53 -1 46 -22 -11 -36 -87 -148 -150 -223 l-59 -70 -5 95
c-5 86 -10 106 -54 205 -65 146 -69 185 -25 271 64 125 169 167 279 111z
m-1737 -263 c61 -65 65 -73 50 -85 -9 -8 -22 -27 -28 -43 l-13 -30 -15 30
c-23 45 -78 206 -69 202 5 -1 38 -35 75 -74z m1462 -192 c52 -114 71 -216 44
-248 -24 -29 -151 -108 -234 -147 -125 -57 -237 -80 -392 -81 -72 -1 -135 2
-139 6 -4 5 0 16 10 27 59 66 24 190 -62 216 -61 18 -123 -33 -121 -100 0 -16
3 -23 6 -15 12 33 57 70 85 70 74 0 104 -96 48 -152 -27 -27 -36 -30 -74 -26
-57 7 -115 36 -140 71 -16 22 -21 44 -21 96 0 78 14 106 77 151 36 26 49 30
110 30 40 0 80 -6 96 -14 38 -20 82 -71 123 -140 49 -84 109 -141 170 -161 56
-19 77 -15 29 5 -42 17 -128 114 -170 190 -19 35 -50 79 -69 97 -18 19 -32 35
-30 37 2 1 39 10 81 20 142 32 337 145 443 255 l39 41 22 -62 c12 -35 43 -109
69 -166z m-1325 68 c19 -15 50 -35 68 -44 32 -16 43 -36 20 -36 -7 0 -29 -12
-49 -26 -36 -24 -38 -25 -68 -10 -58 31 -77 97 -40 142 12 15 18 13 69 -26z
m203 -131 c23 -29 22 -45 -8 -74 -30 -30 -58 -32 -86 -4 -27 27 -37 17 -15
-16 18 -28 54 -40 91 -31 33 8 67 63 62 99 -4 27 -2 28 27 23 17 -3 48 -9 69
-12 40 -7 47 -18 20 -33 -10 -5 -33 -38 -53 -72 -36 -65 -69 -92 -127 -104
-29 -6 -37 0 -103 61 -77 73 -80 84 -43 141 36 54 129 66 166 22z m-213 -45
c0 -8 -4 -14 -10 -14 -5 0 -10 2 -10 4 0 2 -3 12 -6 20 -5 12 -2 15 10 10 9
-3 16 -12 16 -20z m306 -224 c6 -27 8 -50 4 -50 -3 0 -28 14 -55 31 l-49 31
40 18 c21 10 41 19 45 19 3 1 10 -21 15 -49z"></path>
<path class="node" id="node47" d="M1370 1059 c-160 -64 -170 -272 -18 -350 94 -48 221 -1 257 94 18 46
13 124 -9 168 -29 56 -99 99 -159 98 -26 0 -57 -5 -71 -10z m114 -45 c26 -10
18 -19 -19 -21 -97 -5 -156 -133 -97 -212 29 -40 6 -42 -30 -3 -36 38 -48 65
-48 105 0 86 113 162 194 131z"></path>



<path class="node" id="node51" d="M945 80 c-3 -5 -1 -10 4 -10 6 0 11 5 11 10 0 6 -2 10 -4 10 -3 0 -8
-4 -11 -10z"></path>
<path class="node" id="node52" d="M1056 61 c-4 -7 -5 -15 -2 -18 9 -9 19 4 14 18 -4 11 -6 11 -12 0z"></path>
<path class="node" id="node53" d="M1130 49 c0 -11 5 -17 10 -14 6 3 10 13 10 21 0 8 -4 14 -10 14 -5 0
-10 -9 -10 -21z"></path>


</g>
</svg>