<!--?xml version="1.0" standalone="no"?-->

<svg xmlns="http://www.w3.org/2000/svg" width="300.000000pt" height="233.000000pt" viewBox="0 0 300.000000 233.000000" preserveAspectRatio="xMidYMid meet">
<g transform="translate(0.000000,233.000000) scale(0.100000,-0.100000)" fill="#070707" stroke="none">
<path style="position: relative;" class="node" id="node1" d="M2494 2320 c-281 -56 -482 -348 -461 -670 8 -117 28 -195 73 -280 65
-124 158 -214 280 -272 67 -32 74 -33 194 -33 l125 0 85 41 c76 37 198 129
187 141 -3 2 -22 -3 -43 -12 -52 -22 -190 -31 -250 -16 -111 28 -214 97 -285
190 -111 145 -154 346 -114 533 28 135 141 303 245 367 37 22 31 24 -36 11z"></path>
<path style="position: relative;" class="node" id="node2" d="M1473 1813 c29 -52 32 -66 32 -143 0 -120 -8 -130 -95 -130 -38 0
-71 -4 -75 -10 -7 -12 40 -36 90 -46 35 -6 37 -8 20 -20 -10 -8 -38 -14 -62
-14 -24 0 -43 -4 -43 -9 0 -5 14 -21 32 -35 30 -23 31 -25 13 -31 -11 -4 -36
-15 -56 -26 -52 -27 -86 -24 -125 10 -39 35 -103 48 -160 32 -66 -18 -102 -13
-190 30 -89 43 -114 46 -181 18 -31 -13 -34 -12 -66 19 -40 39 -58 40 -97 5
-26 -24 -35 -45 -55 -131 -26 -108 -44 -153 -78 -189 -24 -27 -78 -31 -97 -8
-17 21 -37 19 -50 -4 -5 -11 -17 -68 -25 -127 -23 -161 -55 -214 -131 -214
-14 0 -34 -5 -45 -10 -16 -9 -17 -14 -8 -33 43 -81 118 -137 183 -137 41 0 80
34 127 114 17 29 47 63 66 76 32 22 38 23 80 11 63 -16 69 -7 49 73 -9 36 -16
79 -16 96 0 42 31 70 77 70 50 0 64 10 72 51 8 36 11 37 77 23 27 -5 34 -1 68
40 30 37 43 46 70 46 18 0 41 -7 52 -15 29 -22 50 -18 77 15 14 17 34 30 45
30 24 0 62 -41 62 -67 0 -31 -106 -134 -186 -181 -86 -50 -123 -89 -135 -138
-17 -74 8 -143 87 -239 25 -31 44 -58 42 -61 -4 -4 -141 -45 -238 -71 -119
-33 -261 -2 -572 125 -64 26 -98 35 -98 27 0 -7 10 -20 23 -28 17 -13 19 -18
8 -25 -11 -8 -10 -17 7 -54 11 -25 30 -55 43 -67 22 -21 23 -23 7 -35 -17 -12
-17 -14 2 -31 36 -32 80 -108 80 -136 0 -66 67 -76 208 -31 68 22 112 45 188
99 125 88 140 96 244 121 167 40 150 43 208 -35 76 -103 114 -136 159 -138 44
-3 55 -26 25 -53 -14 -12 -22 -34 -25 -74 -3 -33 -2 -58 4 -58 5 0 9 8 9 19 0
24 25 47 35 31 3 -6 5 -23 3 -39 -3 -34 14 -56 63 -81 34 -18 38 -18 44 -2 4
11 -4 25 -26 43 -31 25 -32 28 -25 78 4 28 9 58 13 67 4 10 -2 17 -16 21 -18
5 -21 13 -21 57 0 74 16 97 84 124 45 18 61 21 72 11 21 -17 17 -35 -11 -53
-23 -15 -25 -23 -25 -87 0 -44 4 -68 10 -64 6 3 10 15 10 26 0 25 27 25 35 -1
10 -31 44 -48 100 -52 40 -2 50 0 53 15 3 13 -3 17 -26 17 -16 0 -41 9 -56 21
-22 17 -26 28 -26 69 0 27 -5 50 -11 52 -7 2 -8 15 -2 38 9 35 10 35 72 38 71
3 69 -5 30 99 -19 48 -21 67 -14 90 14 39 48 42 72 7 32 -47 80 -94 97 -94 23
0 55 74 56 125 0 22 4 45 8 52 4 6 41 25 82 41 108 43 115 44 130 27 27 -33
83 -1 78 44 -3 20 8 27 94 58 54 19 95 39 92 44 -9 15 -31 11 -125 -22 -79
-27 -94 -30 -120 -19 -29 12 -114 9 -151 -5 -12 -5 -21 2 -33 24 -10 21 -23
31 -38 31 -36 0 -193 45 -221 63 -39 26 -59 63 -62 117 -1 26 -9 59 -18 72
-14 22 -14 26 4 55 10 18 28 37 40 43 18 10 26 6 59 -27 21 -21 40 -44 43 -52
3 -10 11 -12 22 -8 15 6 17 14 12 39 -3 18 -13 36 -21 41 -22 12 -19 47 4 47
10 0 21 7 25 15 8 21 24 19 31 -5 3 -11 11 -20 16 -20 15 0 10 33 -11 68 -17
27 -18 37 -9 48 9 11 8 18 -5 33 -19 21 -11 31 43 50 35 11 71 38 71 51 0 4
-27 1 -60 -7 -33 -9 -66 -13 -73 -10 -7 3 -19 24 -26 48 -16 54 -66 146 -100
182 -24 26 -110 87 -123 87 -4 0 8 -26 25 -57z m30 -963 c76 -78 89 -104 65
-128 -19 -19 -25 -15 -58 46 -37 70 -76 97 -128 88 -49 -7 -67 4 -58 38 8 31
39 47 76 40 14 -2 59 -40 103 -84z"></path>
</g>
<g transform="translate(0.000000,233.000000) scale(0.100000,-0.100000)" fill="#9F9F9F" stroke="none">


</g>
</svg>