<!--?xml version="1.0" standalone="no"?--><svg version="1.0" xmlns="http://www.w3.org/2000/svg" width="260.000000pt" height="300.000000pt" viewBox="0 0 260.000000 300.000000" preserveAspectRatio="xMidYMid meet">
<metadata>
  <rdf:rdf xmlns:rdf="http://www.w3.org/1999/02/22-rdf-syntax-ns#" xmlns:rdfs="http://www.w3.org/2000/01/rdf-schema#" xmlns:dc="http://purl.org/dc/elements/1.1/">
    <rdf:description dc:title="family sticker beach girl" dc:publisher="Hiox" dc:date="2015-05-21" dc:format="image/svg+xml" dc:language="en">
      <dc:creator>
        <rdf:bag>
          <rdf:li>svgimages.com</rdf:li>
        </rdf:bag>
      </dc:creator>
    </rdf:description>
  </rdf:rdf>
</metadata>
<g transform="translate(0.000000,300.000000) scale(0.100000,-0.100000)" fill="#1D1D1E" stroke="none">
<path d="M1504 2712 c-34 -24 -150 -279 -184 -407 l-14 -50 -17 96 c-18 106
-36 148 -83 197 -47 51 -94 71 -164 71 -57 -1 -64 -3 -106 -40 -53 -47 -92
-139 -101 -239 -5 -53 5 -239 19 -350 3 -18 -8 -37 -39 -70 -50 -52 -144 -218
-152 -266 -3 -18 -3 -44 1 -58 6 -23 97 -143 120 -158 6 -3 29 -22 50 -42 l40
-35 -27 -21 c-36 -28 -36 -71 -2 -97 24 -17 26 -24 35 -168 5 -83 14 -172 19
-200 6 -27 17 -115 27 -195 9 -80 20 -154 24 -165 4 -11 10 -41 14 -68 7 -46
7 -47 -19 -47 -15 0 -33 -6 -40 -12 -37 -34 -48 -39 -91 -47 -45 -9 -73 -25
-62 -36 3 -3 46 -1 97 5 67 9 105 8 145 0 38 -8 66 -8 93 -1 21 6 135 10 253
10 168 -1 234 3 304 17 78 15 102 16 185 6 211 -26 288 -25 298 5 7 19 -440
36 -531 19 l-48 -9 13 24 c7 13 19 29 26 34 8 6 17 35 22 66 4 30 17 75 29 99
36 75 71 200 88 310 8 58 19 121 24 140 5 19 22 123 37 230 23 160 28 230 28
390 0 107 -4 234 -9 282 -8 75 -7 89 8 103 25 26 24 98 -3 160 -10 22 -23 52
-29 68 -10 24 -25 32 -57 28 -6 0 -19 30 -29 67 -29 106 -86 242 -125 301 -37
57 -49 66 -67 53z m65 -142 c40 -83 88 -223 113 -328 7 -31 7 -47 -1 -55 -24
-24 -2 -95 44 -147 27 -29 41 -121 51 -325 7 -129 6 -131 -19 -172 -39 -62
-85 -93 -138 -93 -56 0 -83 19 -114 79 -31 62 -40 166 -26 296 23 203 25 276
7 345 -20 79 -42 112 -84 125 -36 10 -38 21 -16 73 9 20 24 60 34 87 23 65 91
205 100 205 4 0 26 -40 49 -90z m-559 -24 c0 -8 -4 -18 -10 -21 -5 -3 -10 -14
-10 -23 0 -20 -81 -162 -92 -162 -8 0 -3 41 14 107 15 62 98 145 98 99z m126
-5 c17 -11 46 -45 65 -77 31 -54 33 -66 37 -170 5 -129 -5 -264 -20 -264 -6 0
-7 47 -3 133 9 154 3 175 -69 255 -96 109 -102 179 -10 123z m-51 -128 c62
-74 75 -99 75 -151 0 -26 -4 -42 -8 -36 -4 6 -17 16 -29 23 -24 12 -37 2 -27
-22 3 -10 -3 -17 -21 -21 -40 -10 -67 2 -60 25 9 27 -31 26 -45 -2 -14 -26 -9
-42 16 -45 10 -2 34 -6 52 -10 23 -4 44 -1 67 12 43 23 53 13 33 -30 -20 -40
-68 -63 -106 -50 -40 14 -84 84 -89 141 -3 38 1 56 21 88 14 22 35 59 48 83
12 23 25 42 28 42 3 0 24 -21 45 -47z m314 -157 c55 -29 60 -93 35 -512 -9
-156 20 -249 97 -306 56 -42 156 -32 204 20 13 14 27 23 31 19 13 -13 -18
-135 -39 -156 -74 -68 -191 -49 -262 45 -69 90 -80 186 -63 537 8 147 -1 194
-48 265 -19 28 -19 53 -3 85 12 21 13 21 48 3z m385 -142 c1 -32 -4 -49 -13
-52 -9 -3 -11 0 -7 7 4 7 3 18 -4 26 -8 10 -8 18 2 34 16 26 -4 53 -24 33 -7
-7 -17 -12 -22 -12 -6 1 0 10 13 21 22 18 26 18 40 5 9 -9 15 -34 15 -62z
m-871 -39 c4 -38 3 -53 -3 -40 -8 19 -14 113 -6 104 2 -2 6 -31 9 -64z m438
-2 c18 -41 20 -61 15 -138 -16 -226 -18 -390 -6 -429 41 -140 78 -196 155
-235 61 -31 142 -34 194 -7 l34 18 -7 -54 c-17 -135 -39 -255 -52 -275 -25
-40 -101 -84 -145 -85 -75 -1 -96 44 -109 234 -6 89 -14 129 -29 159 -26 49
-92 139 -103 139 -11 0 -10 196 2 375 5 83 13 194 16 248 3 53 8 97 10 97 3 0
14 -21 25 -47z m-204 -55 c42 -40 42 -69 3 -157 -16 -37 -34 -79 -39 -94 l-11
-27 -38 42 c-63 68 -75 100 -67 171 10 84 20 97 74 97 37 0 51 -6 78 -32z
m115 -119 l-10 -34 -1 45 c-1 31 2 41 10 33 7 -7 7 -21 1 -44z m-348 -1 c-8
-47 -33 -91 -85 -152 -84 -97 -88 -125 -31 -189 117 -129 142 -166 142 -212 0
-34 -5 -47 -19 -55 -34 -18 -46 -11 -23 13 42 45 33 63 -91 189 -106 106 -111
124 -66 211 53 102 109 185 142 212 18 14 33 25 35 25 1 0 -1 -19 -4 -42z
m300 -85 c18 -116 18 -119 3 -132 -9 -7 -28 -11 -44 -9 -25 3 -28 7 -26 36 1
41 42 154 53 147 4 -3 10 -22 14 -42z m-236 2 c6 -14 16 -25 21 -25 13 0 71
-85 71 -103 0 -17 -46 -35 -73 -29 -28 6 -47 56 -47 122 0 64 10 76 28 35z
m-63 -141 c18 -41 25 -74 25 -121 0 -36 -4 -63 -8 -61 -13 5 -122 127 -122
137 0 7 71 101 78 101 1 0 13 -25 27 -56z m334 -101 c0 -53 -3 -72 -9 -58 -16
38 -11 135 7 135 2 0 3 -35 2 -77z m-98 55 c37 -11 39 -13 39 -54 0 -24 5 -64
12 -89 7 -24 9 -47 6 -50 -3 -4 -39 -9 -80 -12 -84 -5 -154 13 -152 41 0 9 1
43 2 76 l2 60 33 0 c17 0 46 9 62 19 37 24 30 23 76 9z m79 -358 c-1 -63 -7
-149 -15 -190 -18 -101 -54 -262 -59 -267 -2 -2 -16 1 -31 7 l-27 10 4 213 3
212 -33 3 c-38 4 -55 -21 -28 -41 14 -11 16 -35 14 -197 l-3 -185 -48 -9 c-26
-4 -50 -6 -52 -4 -8 8 -26 178 -32 296 -4 80 -2 112 6 112 7 0 25 14 41 30 25
25 30 39 30 78 l0 47 115 0 115 1 0 -116z m136 -23 c9 -16 21 -89 28 -165 8
-75 21 -155 30 -178 32 -77 101 -92 201 -44 25 12 48 20 51 17 7 -7 -57 -237
-66 -237 -3 0 -12 22 -19 48 -16 63 -67 128 -87 111 -12 -10 -12 -16 3 -38 33
-51 42 -77 51 -148 l8 -72 -39 35 c-24 22 -46 34 -59 32 -34 -5 -32 -24 6 -46
66 -39 83 -117 36 -174 l-19 -23 -24 55 c-24 55 -63 192 -97 345 -10 44 -22
98 -28 120 -6 22 -15 94 -22 160 -6 66 -15 153 -21 193 -14 109 -13 112 22 72
17 -19 37 -48 45 -63z m-86 -232 c20 -171 110 -547 149 -623 l21 -42 -94 0
c-83 0 -94 2 -99 19 -3 12 -21 23 -56 32 -69 17 -70 -5 11 424 16 88 34 188
41 222 6 34 12 61 13 60 2 -1 8 -43 14 -92z m-232 -417 c-4 -157 -7 -183 -20
-186 -9 -2 -19 5 -22 15 -9 31 -35 205 -42 281 l-6 72 47 0 47 0 -4 -182z m90
174 c10 -7 9 -30 -3 -118 -9 -60 -22 -136 -29 -169 -14 -59 -14 -56 -15 118
-1 162 0 177 17 177 9 0 23 -4 30 -8z m-18 -397 c0 -17 25 -20 35 -5 4 6 11 7
18 3 13 -8 -17 -21 -50 -22 -17 -1 -23 5 -23 19 0 11 5 20 10 20 6 0 10 -7 10
-15z m-64 -20 c1 -10 -6 -15 -22 -15 -23 0 -23 1 -7 20 18 20 25 19 29 -5z" id="node1" class="node"></path>
<path d="M1514 2548 c-17 -27 -64 -184 -64 -214 0 -45 26 -52 48 -14 9 16 21
28 27 27 5 -2 24 -30 42 -63 17 -32 39 -60 47 -62 22 -5 20 5 -14 111 -16 51
-35 121 -42 156 -13 64 -28 84 -44 59z m25 -152 c-2 -2 -14 -7 -26 -10 -21 -7
-22 -6 -12 26 20 63 22 64 32 25 5 -21 8 -40 6 -41z" id="node2" class="node"></path>
<path d="M1000 2325 c-11 -13 -11 -19 3 -33 20 -19 41 -5 35 24 -4 24 -22 28
-38 9z" id="node3" class="node"></path>
<path d="M1060 2325 c-11 -13 -11 -19 3 -33 20 -19 41 -5 35 24 -4 24 -22 28
-38 9z" id="node4" class="node"></path>
<path d="M1093 1473 c-7 -2 -13 -9 -13 -15 0 -12 41 -6 41 7 1 12 -11 15 -28
8z" id="node5" class="node"></path>
</g>
<g transform="translate(0.000000,300.000000) scale(0.100000,-0.100000)" fill="#FFFFFF" stroke="none">

<path d="M1475 2583 c-21 -43 -46 -100 -55 -128 -10 -27 -25 -67 -34 -87 -22
-52 -20 -63 16 -73 42 -13 64 -46 84 -125 18 -69 16 -142 -7 -345 -14 -130 -5
-234 26 -296 31 -60 58 -79 114 -79 53 0 99 31 138 93 25 41 26 43 19 172 -10
204 -24 296 -51 325 -46 52 -68 123 -44 147 13 13 6 47 -39 196 -30 96 -109
277 -122 277 -4 0 -24 -35 -45 -77z m83 -94 c7 -35 26 -105 42 -156 34 -106
36 -116 14 -111 -8 2 -30 30 -47 62 -18 33 -37 61 -42 63 -6 1 -18 -11 -27
-27 -22 -38 -48 -31 -48 14 0 30 47 187 64 214 16 25 31 5 44 -59z" id="node7" class="node"></path>
<path d="M1517 2460 c-3 -8 -10 -30 -16 -48 -10 -32 -9 -33 12 -26 31 9 30 8
20 51 -6 23 -12 32 -16 23z" id="node8" class="node"></path>
<path d="M955 2524 c-31 -33 -46 -73 -59 -151 -3 -18 -2 -33 2 -33 11 0 92
142 92 162 0 9 5 20 10 23 14 8 13 35 -1 35 -6 0 -26 -16 -44 -36z" id="node9" class="node"></path>
<path d="M1070 2545 c0 -26 28 -72 76 -127 72 -80 78 -101 69 -255 -4 -86 -3
-133 3 -133 15 0 25 135 20 264 -4 104 -6 116 -37 170 -33 57 -79 96 -113 96
-10 0 -18 -7 -18 -15z" id="node10" class="node"></path>
<path d="M1012 2418 c-13 -24 -34 -61 -48 -83 -20 -32 -24 -50 -21 -88 5 -57
49 -127 89 -141 38 -13 86 10 106 50 20 43 10 53 -33 30 -23 -13 -44 -16 -67
-12 -18 4 -42 8 -52 10 -25 3 -30 19 -16 45 14 28 54 29 45 2 -7 -23 20 -35
60 -25 18 4 24 11 21 21 -10 24 3 34 27 22 12 -7 25 -17 29 -23 17 -24 7 85
-9 112 -23 35 -95 122 -103 122 -3 0 -16 -19 -28 -42z m26 -102 c6 -29 -15
-43 -35 -24 -14 14 -14 20 -3 33 16 19 34 15 38 -9z m60 0 c6 -29 -15 -43 -35
-24 -14 14 -14 20 -3 33 16 19 34 15 38 -9z" id="node11" class="node"></path>
<path d="M1351 2253 c-16 -32 -16 -57 3 -85 47 -71 56 -118 48 -265 -17 -351
-6 -447 63 -537 71 -94 188 -113 262 -45 21 21 52 143 39 156 -4 4 -18 -5 -31
-19 -48 -52 -148 -62 -204 -20 -77 57 -106 150 -97 306 25 419 20 483 -35 512
-35 18 -36 18 -48 -3z" id="node12" class="node"></path>
<path d="M1729 2171 c-13 -11 -19 -20 -13 -21 5 0 15 5 22 12 20 20 40 -7 24
-33 -10 -16 -10 -24 -2 -34 7 -8 8 -19 4 -26 -4 -7 -2 -10 7 -7 19 7 17 94 -2
114 -14 13 -18 13 -40 -5z" id="node13" class="node"></path>
<path d="M901 2099 c0 -24 4 -53 9 -64 6 -13 7 2 3 40 -7 73 -13 85 -12 24z" id="node14" class="node"></path>
<path d="M1316 2023 c-3 -54 -11 -165 -16 -248 -12 -179 -13 -375 -2 -375 11
0 77 -90 103 -139 15 -30 23 -70 29 -159 13 -190 34 -235 109 -234 44 1 120
45 145 85 13 20 35 140 52 275 l7 54 -34 -18 c-52 -27 -133 -24 -194 7 -77 39
-114 95 -155 235 -12 39 -10 203 6 429 5 77 3 97 -15 138 -11 26 -22 47 -25
47 -2 0 -7 -44 -10 -97z" id="node15" class="node"></path>
<path d="M1014 2032 c-7 -10 -15 -45 -19 -79 -8 -71 4 -103 67 -171 l38 -42
11 27 c5 15 23 57 39 94 39 88 39 117 -3 157 -27 26 -41 32 -78 32 -32 0 -47
-5 -55 -18z" id="node16" class="node"></path>
<path d="M1251 1910 l1 -45 10 34 c6 23 6 37 -1 44 -8 8 -11 -2 -10 -33z" id="node17" class="node"></path>
<path d="M883 1915 c-33 -27 -89 -110 -142 -212 -45 -87 -40 -105 66 -211 124
-126 133 -144 91 -189 -23 -24 -11 -31 23 -13 14 8 19 21 19 55 0 46 -25 83
-142 212 -57 64 -53 92 31 189 52 61 77 105 85 152 3 23 5 42 4 42 -2 0 -17
-11 -35 -25z" id="node18" class="node"></path>
<path d="M1170 1801 c-12 -33 -23 -74 -23 -93 -2 -29 1 -33 26 -36 43 -5 60
15 53 63 -15 100 -19 115 -26 120 -4 3 -18 -22 -30 -54z" id="node19" class="node"></path>
<path d="M950 1780 c0 -66 19 -116 47 -122 27 -6 73 12 73 29 0 18 -58 103
-71 103 -5 0 -15 11 -21 25 -18 41 -28 29 -28 -35z" id="node20" class="node"></path>
<path d="M848 1684 c-21 -26 -38 -51 -38 -55 0 -10 109 -132 122 -137 4 -2 8
25 8 61 0 47 -7 80 -25 121 -14 31 -26 56 -27 56 -2 0 -20 -21 -40 -46z" id="node21" class="node"></path>
<path d="M1237 1643 c-10 -9 -7 -104 3 -128 6 -14 9 5 9 58 1 77 0 83 -12 70z" id="node22" class="node"></path>
<path d="M1075 1619 c-16 -10 -45 -19 -62 -19 l-33 0 -2 -60 c-1 -33 -2 -67
-2 -76 -2 -28 68 -46 152 -41 41 3 77 8 80 12 3 3 1 26 -6 50 -7 25 -12 65
-12 89 0 41 -2 43 -39 54 -46 14 -39 15 -76 -9z m46 -154 c0 -13 -41 -19 -41
-7 0 11 20 22 33 18 5 -1 8 -6 8 -11z" id="node23" class="node"></path>
<path d="M1000 1338 c0 -39 -5 -53 -30 -78 -16 -16 -34 -30 -41 -30 -8 0 -10
-32 -6 -112 6 -118 24 -288 32 -296 2 -2 26 0 52 4 l48 9 3 185 c2 162 0 186
-14 197 -27 20 -10 45 28 41 l33 -3 -3 -212 -4 -213 27 -10 c15 -6 29 -9 31
-7 5 5 41 166 59 267 8 41 14 127 15 190 l0 116 -115 -1 -115 0 0 -47z" id="node24" class="node"></path>
<path d="M1290 1328 c0 -9 4 -50 9 -90 6 -40 15 -127 21 -193 7 -66 16 -138
22 -160 6 -22 18 -76 28 -120 34 -153 73 -290 97 -345 l24 -55 19 23 c47 57
30 135 -36 174 -38 22 -40 41 -6 46 13 2 35 -10 59 -32 l39 -35 -8 72 c-9 71
-18 97 -51 148 -15 22 -15 28 -3 38 20 17 71 -48 87 -111 7 -26 16 -48 19 -48
9 0 73 230 66 237 -3 3 -26 -5 -51 -17 -100 -48 -169 -33 -201 44 -9 23 -22
103 -30 178 -13 142 -22 169 -73 228 -22 25 -30 30 -31 18z" id="node25" class="node"></path>

<path d="M964 708 c7 -76 33 -250 42 -281 3 -10 13 -17 22 -15 13 3 16 29 20
186 l4 182 -47 0 -47 0 6 -72z" id="node27" class="node"></path>
<path d="M1091 603 c1 -174 1 -177 15 -118 7 33 20 109 29 169 16 115 14 125
-27 126 -17 0 -18 -15 -17 -177z" id="node28" class="node"></path>
<path d="M1100 370 c0 -14 6 -20 23 -19 33 1 63 14 50 22 -7 4 -14 3 -18 -3
-10 -15 -35 -12 -35 5 0 8 -4 15 -10 15 -5 0 -10 -9 -10 -20z" id="node29" class="node"></path>
<path d="M1027 360 c-16 -19 -16 -20 7 -20 16 0 23 5 22 15 -4 24 -11 25 -29
5z" id="node30" class="node"></path>
</g>
</svg>