<!--?xml version="1.0" standalone="no"?--><svg version="1.0" xmlns="http://www.w3.org/2000/svg" width="295.000000pt" height="300.000000pt" viewBox="0 0 295.000000 300.000000" preserveAspectRatio="xMidYMid meet">
<metadata>
  <rdf:rdf xmlns:rdf="http://www.w3.org/1999/02/22-rdf-syntax-ns#" xmlns:rdfs="http://www.w3.org/2000/01/rdf-schema#" xmlns:dc="http://purl.org/dc/elements/1.1/">
    <rdf:description dc:title="bicycle girl pedeling" dc:publisher="Hiox" dc:date="2015-06-19" dc:format="image/svg+xml" dc:language="en">
      <dc:creator>
        <rdf:bag>
          <rdf:li>svgimages.com</rdf:li>
        </rdf:bag>
      </dc:creator>
    </rdf:description>
  </rdf:rdf>
</metadata>
<g transform="translate(0.000000,300.000000) scale(0.100000,-0.100000)" fill="#090909" stroke="none">
<path stroke-width="20" class="node" id="node1" d="M1812 2983 c-19 -9 -47 -33 -63 -53 -25 -31 -38 -38 -79 -43 -27 -3
-59 -11 -71 -17 -33 -18 -5 -38 69 -51 62 -11 62 -11 62 -45 0 -19 -7 -46 -16
-60 -13 -19 -14 -28 -5 -37 6 -6 11 -23 11 -38 0 -15 4 -30 9 -33 5 -3 7 -15
4 -26 -6 -23 28 -40 83 -40 32 0 34 -2 34 -35 0 -26 -6 -39 -26 -51 -14 -9
-32 -31 -41 -48 -9 -17 -31 -48 -49 -69 -24 -26 -34 -47 -34 -70 0 -18 -10
-59 -23 -91 l-22 -58 -85 -30 c-47 -16 -124 -38 -171 -48 -85 -18 -209 -71
-209 -90 0 -6 -8 -10 -18 -10 -11 0 -46 -14 -80 -31 l-61 -30 -67 20 c-107 34
-105 35 -102 -61 l3 -83 31 2 32 3 -15 -48 c-10 -31 -16 -106 -19 -217 -3 -93
-9 -192 -15 -220 -14 -64 -49 -177 -59 -188 -4 -5 -26 1 -49 12 -143 73 -347
63 -498 -26 -73 -42 -163 -139 -205 -218 -50 -96 -68 -174 -68 -291 0 -82 5
-113 28 -180 67 -190 224 -337 402 -375 77 -17 232 -7 299 19 219 85 364 299
365 537 1 163 -50 295 -157 411 l-64 69 19 44 c10 24 26 72 35 107 19 72 26
75 105 48 68 -23 180 -104 327 -238 109 -99 130 -123 125 -140 -21 -64 -81
-194 -110 -237 -19 -27 -34 -51 -34 -55 0 -3 -16 -28 -35 -54 -20 -27 -45 -70
-56 -98 -15 -36 -29 -53 -55 -65 -25 -13 -34 -23 -34 -42 0 -32 30 -45 114
-48 58 -2 61 -1 64 23 1 14 15 51 29 83 20 43 31 56 42 51 38 -16 118 -34 154
-34 21 0 95 7 164 15 131 17 153 15 153 -9 0 -7 18 -49 39 -92 62 -123 175
-227 302 -276 67 -26 222 -36 299 -19 127 27 264 126 342 245 110 170 119 411
22 596 -66 127 -170 218 -304 269 -53 20 -84 24 -170 25 -122 1 -187 -16 -283
-75 l-62 -37 -31 61 c-35 69 -101 242 -111 287 -5 25 -2 30 15 30 11 0 42 -16
68 -35 96 -69 108 -75 157 -75 51 0 110 24 140 58 16 18 21 18 55 6 45 -16
106 -16 149 -1 39 14 98 68 118 107 l15 28 -43 7 c-162 24 -235 60 -342 169
-44 45 -95 103 -114 130 l-34 49 31 -5 c42 -6 40 4 -8 37 -52 36 -114 130
-130 195 -10 43 -9 66 5 146 16 89 16 129 -2 194 -6 24 -5 24 13 8 11 -10 36
-24 57 -33 41 -17 122 -21 112 -5 -4 6 21 10 67 10 l73 0 -39 23 -38 24 54 -5
c34 -3 64 1 79 9 l24 13 -35 9 -35 10 30 10 c35 11 95 54 95 67 0 6 -10 6 -26
0 -14 -6 -37 -7 -52 -4 -64 14 -63 13 -29 44 l32 29 -60 -5 -60 -5 35 17 35
17 -38 8 c-59 14 -108 43 -161 98 -53 53 -52 54 15 65 49 8 68 30 40 45 -11 6
-39 14 -63 17 -34 5 -47 13 -63 37 -45 70 -172 100 -253 60z m348 -576 c13 -5
13 -6 -1 -6 -8 -1 -24 6 -35 15 -19 15 -19 15 1 6 11 -5 27 -12 35 -15z m-370
-391 c-10 -31 -79 -105 -126 -133 -18 -11 -18 -12 5 -12 41 -1 12 -17 -94 -51
-55 -17 -122 -44 -148 -58 -55 -29 -104 -81 -88 -92 7 -4 -1 -15 -19 -28 -41
-31 -39 -65 8 -126 20 -27 43 -57 51 -68 13 -18 7 -18 -205 -16 l-219 3 0 120
c0 132 18 202 58 230 27 19 66 19 91 0 28 -21 72 -19 96 5 22 22 27 69 8 88
-9 9 5 12 64 12 54 0 79 4 88 15 6 8 9 18 6 23 -3 5 44 11 107 14 72 4 142 14
196 29 81 22 84 24 105 67 23 49 35 34 16 -22z m-176 -517 c25 -28 46 -55 46
-60 0 -5 -24 -9 -53 -9 l-54 0 -31 59 -31 59 22 10 c29 13 45 3 101 -59z m266
-112 c0 -25 62 -201 104 -298 l42 -95 -38 -45 c-21 -24 -55 -78 -75 -121 l-38
-76 -35 29 c-97 80 -90 69 -78 118 11 42 10 45 -14 65 -14 12 -33 26 -43 32
-18 10 -18 13 -1 100 21 103 27 116 103 224 56 78 73 94 73 67z m-412 -69 c22
-40 53 -99 67 -130 23 -51 25 -62 15 -98 -8 -30 -14 -39 -23 -32 -7 5 -61 49
-122 98 -120 96 -250 183 -317 214 l-43 20 191 0 190 0 42 -72z m166 50 c-3
-12 -13 -37 -22 -57 l-15 -36 -12 35 c-30 85 -31 80 15 80 38 0 41 -2 34 -22z
m-523 -59 c64 -34 196 -142 324 -264 96 -91 82 -87 -45 16 -162 129 -319 227
-395 245 -41 9 -45 12 -38 30 9 24 82 11 154 -27z m-424 -274 c28 -8 60 -23
72 -33 l21 -17 -42 -71 c-62 -103 -190 -264 -210 -264 -24 0 -58 -48 -58 -82
0 -36 40 -78 73 -78 42 0 77 36 77 78 0 20 -4 44 -10 52 -6 10 0 26 24 55 63
77 138 180 164 227 15 27 30 48 34 48 15 0 90 -89 118 -141 124 -232 42 -533
-181 -662 -114 -66 -280 -76 -394 -24 -185 86 -289 248 -288 452 1 327 295
553 600 460z m1848 -12 c139 -42 252 -159 297 -306 17 -57 20 -87 16 -172 -4
-92 -8 -110 -41 -179 -116 -244 -394 -336 -622 -206 -84 48 -182 166 -200 242
-9 35 10 41 157 43 105 2 123 5 167 28 37 19 60 24 85 20 28 -4 39 -1 60 20
51 51 20 137 -49 137 -55 0 -165 103 -264 248 -22 32 -22 34 -5 53 29 32 135
79 199 88 72 10 132 5 200 -16z m-431 -154 c26 -44 104 -136 169 -198 49 -47
71 -81 52 -81 -31 0 -297 56 -318 67 -38 19 -42 36 -23 88 18 45 85 155 96
155 3 0 14 -14 24 -31z m-453 -26 c13 -16 12 -17 -3 -4 -17 13 -22 21 -14 21
2 0 10 -8 17 -17z m3 -144 c-18 -20 -64 -31 -64 -15 0 6 5 28 11 50 l11 38 29
-28 c26 -25 28 -29 13 -45z m206 -36 c0 -8 -55 35 -80 63 -14 16 -2 9 28 -16
28 -24 52 -45 52 -47z m-337 35 c-3 -16 -12 -28 -20 -28 -12 0 -11 5 3 30 21
35 24 34 17 -2z m270 -84 c50 -40 57 -51 62 -92 4 -26 9 -55 12 -64 2 -10 3
-18 1 -18 -2 0 -57 -7 -123 -15 -122 -15 -237 -19 -247 -10 -3 3 10 21 28 39
30 30 34 40 34 88 0 52 2 56 43 86 32 24 52 31 88 32 41 0 54 -6 102 -46z
m414 -21 c93 -16 123 -33 59 -33 -33 0 -166 36 -166 45 0 7 5 7 107 -12z
m-194 -19 c69 -36 154 -64 189 -64 17 0 27 -4 23 -10 -3 -5 -26 -10 -51 -10
-46 0 -153 47 -204 89 -34 28 -20 26 43 -5z m-549 0 c3 -9 12 -14 19 -11 9 3
13 -5 13 -29 0 -25 -4 -34 -16 -34 -18 0 -40 39 -40 70 0 24 15 26 24 4z m546
-93 l42 -18 -38 -7 c-37 -7 -53 2 -54 32 0 15 0 15 50 -7z m-682 -136 c-6 -14
-15 -25 -20 -25 -5 0 -1 11 8 25 9 14 18 25 20 25 2 0 -2 -11 -8 -25z"></path>
</g>
<g transform="translate(0.000000,300.000000) scale(0.100000,-0.100000)" fill="#FFFFFF" stroke="none">

























</g>
</svg>