<!--?xml version="1.0" standalone="no"?--><svg version="1.0" xmlns="http://www.w3.org/2000/svg" width="300.000000pt" height="300.000000pt" viewBox="0 0 300.000000 300.000000" preserveAspectRatio="xMidYMid meet">
<metadata>
  <rdf:rdf xmlns:rdf="http://www.w3.org/1999/02/22-rdf-syntax-ns#" xmlns:rdfs="http://www.w3.org/2000/01/rdf-schema#" xmlns:dc="http://purl.org/dc/elements/1.1/">
    <rdf:description dc:title="boy and girl child pictogram silhouette" dc:publisher="Hiox" dc:date="2015-05-04" dc:format="image/svg+xml" dc:language="en">
      <dc:creator>
        <rdf:bag>
          <rdf:li>svgimages.com</rdf:li>
        </rdf:bag>
      </dc:creator>
    </rdf:description>
  </rdf:rdf>
</metadata>
<g transform="translate(0.000000,300.000000) scale(0.100000,-0.100000)" fill="#1E1E1F" stroke="none">


<path d="M937 2733 c-9 -2 -15 -9 -12 -14 3 -5 0 -6 -8 -3 -19 7 -45 -29 -43
-59 2 -21 -10 -37 -28 -37 -4 0 -5 12 -2 26 8 30 -1 64 -15 64 -6 0 -17 -6
-25 -14 -12 -13 -12 -16 3 -26 14 -8 12 -9 -12 -3 -28 6 -29 5 -15 -13 8 -10
18 -21 22 -24 9 -7 -14 -52 -29 -57 -6 -2 -14 5 -18 16 -3 12 -13 21 -21 21
-17 0 -18 12 -2 28 16 16 -17 28 -36 13 -34 -28 -18 -131 20 -131 8 0 11 -6 8
-15 -5 -13 -11 -11 -32 10 -29 29 -29 29 -62 9 -14 -8 -17 -13 -8 -10 11 3 22
-2 28 -14 7 -14 7 -20 0 -20 -16 0 -12 -17 7 -24 9 -4 20 -1 25 6 5 8 8 -2 8
-26 0 -32 -3 -37 -17 -31 -30 11 -38 11 -35 -3 1 -8 -2 -11 -8 -7 -5 3 -10 15
-10 26 0 26 -19 24 -29 -3 -13 -36 22 -85 67 -93 30 -5 41 -13 51 -37 23 -51
80 -107 136 -133 77 -37 188 -35 270 3 64 31 112 78 134 130 7 18 17 32 21 32
14 0 31 -28 21 -34 -5 -4 -12 2 -14 11 -3 13 -5 12 -6 -5 0 -13 5 -30 13 -38
18 -17 50 -19 40 -2 -4 6 -3 8 4 5 5 -4 8 -16 5 -27 -7 -25 24 -28 34 -4 9 23
-15 94 -32 94 -8 0 -15 5 -15 11 0 7 -10 9 -25 5 -22 -6 -25 -3 -25 19 l0 26
28 -19 c19 -14 33 -17 50 -11 26 10 30 41 5 37 -13 -2 -17 3 -15 16 3 13 -1
17 -12 13 -8 -3 -17 -1 -20 6 -3 9 -7 9 -14 -1 -7 -10 -13 -4 -26 23 -21 43
-9 68 19 45 14 -12 18 -11 26 1 6 10 9 11 9 1 0 -19 -31 -27 -41 -11 -5 8 -9
10 -9 4 0 -21 16 -32 48 -33 27 -1 32 2 27 16 -5 13 -2 13 15 -3 23 -21 47 -8
37 19 -8 19 -78 55 -96 48 -11 -4 -10 1 2 19 19 27 22 43 7 34 -6 -4 -17 -1
-25 5 -21 17 -69 4 -61 -17 5 -13 4 -14 -8 -4 -8 6 -18 11 -22 10 -23 -4 -33
3 -31 20 0 10 8 18 16 17 8 -1 17 7 19 18 3 13 0 16 -9 11 -8 -5 -10 -4 -5 3
5 9 12 8 26 0 23 -14 33 -7 24 16 -5 12 -19 16 -59 16 -46 0 -57 -4 -74 -26
-15 -19 -26 -24 -38 -19 -16 6 -16 8 4 17 37 17 36 80 -1 77 -7 0 -6 -2 1 -6
10 -3 9 -9 -3 -20 -13 -14 -17 -14 -24 -2 -7 10 -13 4 -25 -24 -10 -24 -22
-37 -35 -37 -22 0 -35 16 -20 25 16 10 0 27 -19 21 -9 -3 -4 3 12 15 15 11 25
25 21 30 -5 9 -8 10 -37 2z m-7 -85 c0 -5 -4 -8 -10 -8 -5 0 -10 10 -10 23 0
18 2 19 10 7 5 -8 10 -18 10 -22z m230 -8 c0 -5 -2 -10 -4 -10 -3 0 -8 5 -11
10 -3 6 -1 10 4 10 6 0 11 -4 11 -10z m-15 -20 c3 -5 -1 -10 -10 -10 -9 0 -13
5 -10 10 3 6 8 10 10 10 2 0 7 -4 10 -10z m-405 -46 c0 -2 -7 -4 -15 -4 -8 0
-15 4 -15 10 0 5 7 7 15 4 8 -4 15 -8 15 -10z m10 -18 c0 -3 -4 -8 -10 -11 -5
-3 -10 -1 -10 4 0 6 5 11 10 11 6 0 10 -2 10 -4z m530 -22 c0 -16 -35 -32 -47
-22 -21 17 -15 28 17 28 17 0 30 -3 30 -6z m-606 -150 c25 -9 19 -22 -9 -20
-25 1 -31 7 -18 19 8 8 8 8 27 1z m141 -73 c9 -15 164 -60 233 -67 73 -8 77
-19 27 -63 -38 -33 -88 -41 -138 -22 -45 17 -169 161 -138 161 5 0 12 -4 16
-9z" id="node3" class="node" stroke-width="20"></path>
<path d="M2081 2639 c-151 -46 -237 -239 -169 -377 47 -93 169 -165 278 -166
291 -1 377 386 116 518 -63 32 -165 43 -225 25z m192 -350 c-29 -49 -80 -89
-114 -89 -28 0 -108 45 -109 61 0 4 30 8 68 11 37 3 87 14 112 26 61 28 64 27
43 -9z" id="node4" class="node" stroke-width="20"></path>
<path d="M330 2602 c0 -11 47 -147 66 -192 33 -76 99 -198 134 -246 42 -55
132 -141 168 -157 35 -16 34 -79 -3 -137 -45 -71 -221 -191 -342 -231 -64 -21
-113 -57 -113 -83 0 -48 118 -97 290 -120 58 -7 93 -14 79 -15 -70 -3 -148
-51 -149 -92 0 -27 45 -67 91 -79 86 -23 186 9 203 67 9 27 -29 73 -75 89 -31
11 -25 13 65 13 l99 1 -27 -25 c-56 -52 -14 -107 88 -113 137 -9 208 80 104
131 -18 9 -28 17 -23 17 44 1 209 33 245 47 101 40 120 76 66 125 -34 33 -206
273 -206 289 0 14 42 10 126 -12 103 -27 185 -27 248 1 27 11 46 23 43 27 -4
3 -26 10 -49 14 -248 45 -532 150 -713 262 -73 45 -204 149 -251 199 -49 51
-105 131 -131 187 -16 37 -33 53 -33 33z" id="node5" class="node" stroke-width="20"></path>
<path d="M2716 2134 c-21 -18 -60 -43 -85 -55 -25 -11 -53 -24 -62 -29 -41
-21 -203 -32 -313 -20 -143 15 -188 8 -516 -81 -41 -11 -106 -26 -144 -32 -38
-7 -71 -17 -73 -22 -3 -11 55 -39 119 -56 59 -16 205 -23 237 -11 14 6 38 13
52 16 l26 6 5 -98 c7 -143 55 -234 147 -278 42 -20 53 -34 25 -34 -9 0 -32
-16 -51 -35 -39 -39 -43 -41 -43 -22 0 19 -50 64 -85 77 -44 17 -106 4 -148
-31 -32 -26 -37 -36 -37 -73 0 -106 158 -156 240 -76 17 16 30 40 30 52 1 19
4 16 21 -15 28 -53 92 -82 166 -74 134 14 178 133 70 189 l-41 20 30 15 c46
24 94 74 122 128 21 41 26 65 26 130 1 44 -2 94 -6 111 -7 31 -6 32 52 53 72
27 145 83 206 159 45 56 78 111 72 117 -2 2 -21 -12 -42 -31z" id="node6" class="node" stroke-width="20"></path>














</g>
<g transform="translate(0.000000,300.000000) scale(0.100000,-0.100000)" fill="#CBCBCB" stroke="none">








<path d="M807 2289 c24 -43 101 -119 130 -130 50 -19 100 -11 138 22 50 44 46
55 -27 63 -69 7 -224 52 -233 67 -4 5 -11 9 -16 9 -6 0 -2 -14 8 -31z" id="node29" class="node" stroke-width="20"></path>
<path d="M2230 2298 c-25 -12 -75 -23 -112 -26 -38 -3 -68 -7 -68 -11 1 -16
81 -61 109 -61 34 0 85 40 114 89 21 36 18 37 -43 9z" id="node30" class="node" stroke-width="20"></path>

</g>
</svg>