<!--?xml version="1.0" standalone="no"?--><svg version="1.0" xmlns="http://www.w3.org/2000/svg" width="275.000000pt" height="300.000000pt" viewBox="0 0 275.000000 300.000000" preserveAspectRatio="xMidYMid meet">
<metadata>
  <rdf:rdf xmlns:rdf="http://www.w3.org/1999/02/22-rdf-syntax-ns#" xmlns:rdfs="http://www.w3.org/2000/01/rdf-schema#" xmlns:dc="http://purl.org/dc/elements/1.1/">
    <rdf:description dc:title="no love black" dc:publisher="Hiox" dc:date="2015-03-26" dc:format="image/svg+xml" dc:language="en">
      <dc:creator>
        <rdf:bag>
          <rdf:li>svgimages.com</rdf:li>
        </rdf:bag>
      </dc:creator>
    </rdf:description>
  </rdf:rdf>
</metadata>
<g transform="translate(0.000000,300.000000) scale(0.100000,-0.100000)" fill="#100F10" stroke="none">
<path d="M1553 2435 c-43 -19 -104 -111 -110 -169 -5 -39 -2 -47 21 -68 15
-12 42 -38 62 -56 41 -41 110 -56 126 -28 5 9 18 16 29 16 32 0 55 -52 62
-141 4 -45 13 -95 22 -112 15 -30 20 -113 9 -154 -8 -29 -30 -29 -157 -1 -80
18 -102 26 -115 46 -34 51 -74 82 -104 82 l-29 0 52 -59 c49 -56 60 -63 158
-99 111 -41 207 -66 221 -57 5 3 14 33 21 66 7 33 16 58 22 56 34 -11 30 -199
-8 -372 -37 -166 -95 -468 -92 -472 2 -1 26 -6 53 -9 27 -4 55 -13 62 -22 15
-20 17 -287 1 -399 -10 -73 -40 -157 -71 -194 -24 -29 -82 -59 -115 -59 -59 0
-44 -18 22 -25 60 -7 67 -5 95 19 40 33 60 33 60 1 0 -14 4 -25 9 -25 15 0 24
50 26 140 2 67 9 103 34 170 40 107 53 202 40 299 -6 52 -6 77 2 82 6 3 43 9
82 12 123 11 297 71 297 102 0 28 -69 197 -117 285 -51 95 -153 247 -183 275
-11 10 -20 28 -20 40 0 12 -9 34 -21 49 -32 41 -68 138 -79 218 -18 125 -25
140 -89 197 -74 63 -82 84 -48 119 44 47 50 127 8 100 -27 -16 -47 2 -76 68
-34 77 -97 108 -162 79z" id="node1" class="node"></path>
<path d="M735 1830 c-33 -4 -73 -15 -88 -25 -50 -33 -70 -99 -48 -158 12 -31
77 -97 95 -97 25 0 25 -44 1 -123 -31 -96 -54 -276 -61 -469 -6 -152 -4 -164
37 -210 29 -32 170 -346 159 -353 -5 -3 -65 -1 -133 4 -124 9 -167 7 -167 -10
0 -16 -26 -9 -60 16 -19 14 -44 25 -55 25 -24 0 -45 -35 -45 -74 0 -13 -9 -34
-20 -48 -17 -22 -40 -119 -40 -170 0 -33 20 -18 46 35 27 54 66 102 97 118 23
13 57 -6 57 -31 0 -25 11 -25 225 -5 183 17 217 23 227 39 20 30 -6 227 -48
365 -14 46 -22 87 -17 92 14 14 215 70 231 64 13 -5 14 -36 10 -225 -5 -210
-5 -220 13 -220 20 0 27 -34 9 -45 -16 -10 -12 -52 7 -70 11 -11 26 -15 45
-11 15 3 40 1 56 -5 28 -12 114 -13 170 -3 44 8 41 32 -5 40 -46 8 -136 49
-153 69 -16 19 -4 35 25 35 13 0 26 4 29 9 6 9 -34 370 -55 494 -6 37 -18 75
-27 83 -16 17 -45 16 -286 -7 -75 -8 -111 -8 -119 0 -10 10 24 275 37 288 3 4
20 -3 36 -15 16 -12 33 -22 37 -22 4 0 28 -16 52 -35 24 -19 49 -35 54 -35 22
0 125 118 167 190 24 41 45 77 47 79 1 2 26 8 55 12 38 6 60 17 83 39 16 17
23 28 14 25 -18 -7 -69 62 -69 95 0 11 -7 20 -15 20 -8 0 -15 -9 -15 -21 0
-11 -5 -30 -11 -42 -12 -20 -13 -20 -44 18 -22 26 -38 36 -49 32 -43 -17 -21
-88 31 -97 15 -3 28 -11 28 -18 0 -7 -49 -62 -110 -122 -118 -118 -124 -120
-151 -53 -8 17 -50 64 -94 104 -44 40 -80 80 -80 89 0 9 -9 27 -20 40 -29 33
-25 56 10 69 29 10 30 13 29 61 -1 29 -8 55 -16 62 -20 16 -43 63 -43 87 0 27
-5 28 -75 21z" id="node2" class="node"></path>
</g>
<g transform="translate(0.000000,300.000000) scale(0.100000,-0.100000)" fill="#A4A5A7" stroke="none">

</g>
</svg>