<!--?xml version="1.0" standalone="no"?-->

<svg xmlns="http://www.w3.org/2000/svg" width="278.000000pt" height="300.000000pt" viewBox="0 0 278.000000 300.000000" preserveAspectRatio="xMidYMid meet">
<g transform="translate(0.000000,300.000000) scale(0.100000,-0.100000)" fill="#242122" stroke="none">
<path style="position: relative;" stroke-width="20" class="node" id="node1" d="M1133 2990 c-53 -11 -119 -45 -127 -65 -9 -25 -7 -63 4 -70 19 -12
41 -80 36 -110 -3 -16 0 -55 7 -85 11 -50 15 -55 42 -58 35 -4 54 -18 65 -48
13 -32 2 -58 -30 -77 -34 -20 -41 -21 -34 -4 9 23 -24 84 -63 116 -21 17 -69
43 -107 57 -38 15 -81 39 -95 53 -15 14 -20 21 -12 15 9 -7 36 -16 61 -22 25
-6 56 -13 70 -17 24 -6 25 -6 5 10 -11 9 -43 27 -71 41 -48 22 -93 65 -152
143 -37 48 -102 58 -227 32 -81 -16 -104 -25 -123 -46 -21 -25 -31 -85 -14
-85 18 0 44 -69 39 -102 -3 -18 -1 -60 6 -93 13 -59 13 -60 50 -63 29 -3 38
-8 43 -27 12 -48 2 -60 -52 -65 -28 -3 -58 -11 -67 -18 -22 -19 -53 -90 -62
-142 -7 -46 -18 -76 -62 -166 l-25 -52 -34 11 c-48 15 -66 39 -68 91 -2 51 -6
57 -60 75 -37 13 -40 12 -57 -10 -10 -13 -19 -40 -19 -60 0 -31 12 -47 112
-152 96 -99 118 -117 143 -117 43 0 71 23 101 81 14 28 30 49 36 47 15 -5 94
-247 102 -313 3 -30 15 -79 26 -108 11 -28 20 -59 20 -67 0 -8 -24 -52 -54
-96 -30 -45 -68 -110 -84 -145 -99 -210 -102 -232 -43 -325 21 -33 53 -100 71
-150 18 -49 45 -120 60 -159 21 -50 26 -73 18 -82 -6 -7 -12 -56 -14 -108 -3
-110 -19 -145 -65 -145 -15 0 -39 5 -52 11 -31 14 -67 -3 -67 -33 0 -53 68
-120 168 -165 31 -14 77 -42 102 -63 25 -20 55 -42 67 -48 24 -13 92 -16 110
-4 13 8 43 112 43 148 0 12 9 28 20 35 13 10 22 33 29 74 6 38 26 93 53 145
67 128 138 241 149 234 17 -10 56 -98 62 -139 4 -21 16 -52 27 -67 11 -15 20
-40 19 -55 -1 -16 2 -58 6 -94 6 -52 4 -72 -9 -97 -30 -59 -16 -102 34 -102
49 0 126 67 141 123 6 21 30 64 55 94 34 41 43 60 38 76 -8 28 -34 57 -50 57
-16 0 -84 60 -84 75 0 5 -10 26 -23 45 -13 19 -33 71 -45 115 -12 44 -34 105
-48 136 l-26 56 27 52 c25 51 210 271 226 271 5 0 9 -4 9 -10 0 -5 17 -35 38
-67 94 -143 130 -200 142 -222 7 -13 30 -43 52 -67 36 -39 46 -44 84 -44 24 0
85 14 136 31 96 31 256 68 413 94 116 19 245 51 258 64 19 19 58 12 121 -24
36 -20 77 -35 96 -35 l33 0 -5 45 c-7 57 -40 106 -115 169 -32 26 -73 71 -92
99 -48 74 -81 107 -107 107 -23 0 -68 -45 -79 -80 -3 -11 -12 -20 -18 -20 -7
0 -36 -16 -65 -35 -41 -28 -67 -37 -124 -45 -40 -5 -102 -18 -138 -29 -36 -11
-99 -21 -141 -22 -70 -3 -78 -1 -108 24 -18 15 -39 27 -47 27 -9 0 -14 11 -14
34 0 18 -8 44 -18 57 -10 13 -26 43 -36 66 -10 23 -28 50 -38 60 -35 31 -40
50 -23 89 8 20 15 49 15 65 0 28 1 29 54 26 65 -2 92 17 102 72 17 98 55 224
88 296 50 107 76 190 76 246 0 70 -48 120 -170 177 -151 70 -159 74 -225 132
-34 30 -95 71 -134 90 -86 41 -93 57 -56 130 51 100 43 214 -20 277 -31 31
-37 33 -101 32 -38 -1 -88 -5 -111 -9z m-106 -456 c18 -14 39 -38 47 -53 13
-25 13 -30 -4 -56 -10 -15 -21 -54 -25 -87 -4 -32 -10 -58 -14 -58 -12 0 -29
41 -36 85 l-7 40 21 -19 c21 -19 21 -19 21 10 0 60 -19 99 -72 147 l-53 47 44
-15 c25 -8 60 -27 78 -41z m-152 -344 c4 -6 29 -22 57 -36 47 -24 50 -27 44
-56 -7 -38 -29 -81 -38 -79 -5 0 -40 1 -78 1 l-71 0 6 38 c16 91 35 142 55
142 10 0 22 -5 25 -10z m756 -4 c19 -8 58 -17 87 -21 43 -6 52 -10 47 -23 -3
-8 -10 -50 -15 -91 -37 -283 -40 -292 -117 -326 -31 -14 -57 -24 -59 -22 -2 1
-15 20 -29 41 l-26 38 21 15 c19 14 20 23 18 131 -1 85 3 138 17 195 10 42 19
77 20 77 2 0 18 -6 36 -14z m-790 -323 c24 -13 57 -18 112 -18 65 0 76 -2 71
-15 -3 -8 -10 -30 -16 -48 -14 -50 -118 -112 -118 -70 0 6 -19 38 -43 72 -46
64 -62 96 -48 96 4 0 23 -8 42 -17z m334 -184 c29 -109 25 -123 -77 -275 -51
-75 -100 -147 -108 -159 -24 -35 -31 -33 -50 15 -10 25 -32 70 -49 99 l-32 53
31 35 c17 19 33 48 37 64 4 22 11 29 30 29 55 0 80 25 107 107 14 43 36 109
48 146 l23 69 13 -64 c7 -34 19 -88 27 -119z m-436 -574 c34 -38 111 -155 111
-168 0 -7 -7 -22 -15 -33 -8 -10 -15 -36 -15 -56 0 -33 -39 -154 -74 -233 -8
-16 -17 -41 -21 -55 -4 -14 -17 -43 -28 -65 l-20 -40 -8 30 c-5 16 -18 102
-29 189 -22 171 -40 228 -99 300 -17 21 -31 45 -31 54 0 8 37 52 82 98 l81 84
24 -43 c14 -23 32 -51 42 -62z"></path>
</g>
<g transform="translate(0.000000,300.000000) scale(0.100000,-0.100000)" fill="#75DF67" stroke="none">










</g>
</svg>