<!--?xml version="1.0" standalone="no"?--><svg version="1.0" xmlns="http://www.w3.org/2000/svg" width="300.000000pt" height="300.000000pt" viewBox="0 0 300.000000 300.000000" preserveAspectRatio="xMidYMid meet">
<metadata>
  <rdf:rdf xmlns:rdf="http://www.w3.org/1999/02/22-rdf-syntax-ns#" xmlns:rdfs="http://www.w3.org/2000/01/rdf-schema#" xmlns:dc="http://purl.org/dc/elements/1.1/">
    <rdf:description dc:title="girl kiss to someone" dc:publisher="Hiox" dc:date="2015-03-26" dc:format="image/svg+xml" dc:language="en">
      <dc:creator>
        <rdf:bag>
          <rdf:li>svgimages.com</rdf:li>
        </rdf:bag>
      </dc:creator>
    </rdf:description>
  </rdf:rdf>
</metadata>
<g transform="translate(0.000000,300.000000) scale(0.100000,-0.100000)" fill="#272324" stroke="none">

<path d="M1434 2879 c-57 -27 -102 -75 -86 -91 7 -7 12 -23 12 -36 0 -15 4
-21 12 -16 17 11 2 -52 -19 -80 -10 -13 -27 -27 -38 -32 -23 -10 -32 -45 -34
-129 -1 -73 9 -82 107 -94 60 -7 69 -11 99 -46 39 -45 40 -56 12 -138 -31 -90
-22 -138 52 -295 12 -23 65 -89 119 -146 67 -70 102 -116 110 -142 21 -68 24
-237 6 -307 -23 -86 -65 -193 -98 -250 -26 -45 -30 -75 -7 -61 6 3 37 3 70 -1
l59 -7 0 -149 c0 -127 2 -151 16 -156 9 -3 77 4 151 16 74 12 137 20 139 18
13 -12 25 -209 22 -332 -4 -119 -8 -148 -27 -193 -27 -60 -98 -129 -139 -134
-19 -2 -27 -9 -27 -23 0 -18 6 -20 63 -18 34 2 78 10 98 18 45 19 55 19 30 0
-11 -8 -28 -15 -38 -15 -12 0 -18 -7 -18 -21 0 -21 3 -22 70 -16 39 3 85 13
102 21 17 9 57 16 88 16 42 0 61 5 73 18 21 23 21 32 0 98 -18 58 -18 61 34
269 30 121 27 203 -12 315 -37 105 -37 109 10 134 45 23 145 88 186 120 14 12
37 28 49 36 55 36 139 111 185 166 58 68 69 84 94 139 37 78 37 77 -29 128
-33 26 -63 47 -66 47 -3 0 -24 13 -47 28 -23 16 -73 46 -112 67 -88 48 -119
71 -105 80 18 11 11 25 -12 26 -13 0 -1 7 26 14 27 8 53 18 58 23 16 16 1 31
-25 26 -21 -5 -21 -4 -3 8 54 38 66 51 66 74 0 29 -9 30 -60 4 -50 -25 -52
-25 -44 5 8 32 -9 32 -34 1 -10 -14 -38 -35 -61 -47 -48 -25 -40 -29 -142 71
-31 30 -94 77 -140 104 -85 50 -249 203 -249 232 0 8 -7 14 -15 14 -8 0 -15 7
-15 15 0 12 10 10 50 -10 56 -28 102 -32 120 -10 10 13 9 15 -8 15 -12 0 -32
15 -47 35 -25 32 -27 42 -34 193 -6 139 -10 163 -30 195 -29 47 -85 95 -119
102 -15 4 -36 8 -46 10 -11 2 -35 -3 -54 -10 l-34 -15 -62 56 c-33 31 -75 63
-93 70 -45 19 -111 17 -159 -7z m416 -294 c10 -22 21 -61 24 -87 3 -27 9 -68
12 -93 l5 -44 -35 14 c-47 20 -118 19 -154 -2 -25 -14 -32 -15 -46 -4 -26 22
-19 56 17 84 43 32 87 120 87 173 0 22 3 44 7 47 11 12 64 -45 83 -88z m223
-661 c42 -31 77 -58 77 -60 0 -11 -78 10 -115 31 -52 30 -82 63 -91 99 l-7 30
29 -22 c16 -13 64 -48 107 -78z m212 -1641 c-3 -29 -11 -53 -17 -53 -5 0 -7
12 -4 28 3 15 9 54 13 87 6 50 8 54 11 25 2 -19 1 -59 -3 -87z" id="node2" class="node" stroke-width="20"></path>









</g>
<g transform="translate(0.000000,300.000000) scale(0.100000,-0.100000)" fill="#FFFFFF" stroke="none">












</g>
</svg>