<!--?xml version="1.0" standalone="no"?--><svg version="1.0" xmlns="http://www.w3.org/2000/svg" width="287.000000pt" height="300.000000pt" viewBox="0 0 287.000000 300.000000" preserveAspectRatio="xMidYMid meet">
<metadata>
  <rdf:rdf xmlns:rdf="http://www.w3.org/1999/02/22-rdf-syntax-ns#" xmlns:rdfs="http://www.w3.org/2000/01/rdf-schema#" xmlns:dc="http://purl.org/dc/elements/1.1/">
    <rdf:description dc:title="love broken boy and girl" dc:publisher="Hiox" dc:date="2015-03-26" dc:format="image/svg+xml" dc:language="en">
      <dc:creator>
        <rdf:bag>
          <rdf:li>svgimages.com</rdf:li>
        </rdf:bag>
      </dc:creator>
    </rdf:description>
  </rdf:rdf>
</metadata>
<g transform="translate(0.000000,300.000000) scale(0.100000,-0.100000)" fill="#150E0E" stroke="none">

<path d="M593 2375 c-38 -16 -73 -68 -73 -108 0 -74 60 -137 130 -137 98 0
162 113 110 197 -35 58 -101 77 -167 48z" id="node2" class="node" stroke-width="20"></path>
<path d="M1898 2334 c-37 -20 -58 -63 -58 -120 0 -39 5 -51 33 -79 61 -61 150
-53 201 18 23 31 26 99 7 135 -29 55 -124 79 -183 46z" id="node3" class="node" stroke-width="20"></path>
<path d="M540 2057 c-171 -48 -262 -221 -286 -543 -7 -102 -12 -95 69 -110 30
-5 37 -3 37 9 0 9 7 69 15 134 28 210 65 322 107 323 4 0 12 -19 19 -42 22
-83 -4 -476 -57 -838 -14 -96 -28 -192 -31 -212 l-6 -38 67 0 66 0 0 34 c0 55
40 352 60 453 21 99 43 163 58 163 17 0 40 -35 52 -79 23 -85 59 -313 72 -441
l12 -130 73 0 74 0 -6 33 c-69 402 -98 664 -99 889 -1 206 3 224 48 194 44
-28 86 -227 86 -408 l0 -50 38 6 c81 15 76 4 68 140 -9 163 -38 326 -65 370
-32 52 -105 112 -159 131 -62 23 -250 30 -312 12z m250 -157 c11 -11 20 -28
20 -37 -1 -29 -35 -95 -72 -138 l-35 -39 -27 18 c-46 30 -105 94 -112 121 -11
43 10 75 47 75 18 0 40 -7 50 -16 17 -15 20 -15 49 10 38 31 54 32 80 6z" id="node4" class="node" stroke-width="20"></path>
<path d="M1644 2036 c-78 -29 -209 -116 -298 -198 l-69 -63 30 -52 29 -52 90
75 c132 112 201 157 243 158 32 1 36 -2 39 -26 5 -46 -92 -218 -223 -394 l-45
-61 65 -28 c36 -15 65 -31 65 -35 0 -14 -61 -60 -119 -90 -74 -37 -181 -69
-262 -78 l-64 -7 3 -40 c2 -22 6 -42 9 -45 2 -3 50 -4 106 -4 165 2 288 53
449 185 40 32 76 59 80 59 3 0 20 -12 37 -26 50 -42 75 -139 75 -299 1 -71 -2
-163 -7 -202 l-7 -73 39 0 c38 0 40 2 55 48 53 164 64 341 31 498 l-7 31 91 5
c51 3 94 8 97 11 3 3 -16 34 -43 69 -27 34 -56 74 -64 88 -85 137 -117 234
-99 299 6 23 20 46 32 52 33 18 49 -9 58 -96 10 -98 28 -119 114 -134 35 -6
95 -11 134 -11 l72 0 0 50 c0 28 2 50 5 50 3 0 24 -12 47 -27 l41 -27 34 39
c90 103 99 205 18 205 -9 0 -30 -14 -46 -31 -22 -24 -32 -29 -43 -20 -7 6 -17
7 -21 3 -5 -4 -5 -1 -1 6 5 8 -2 16 -20 22 -67 26 -100 -57 -48 -119 l26 -31
-65 0 c-91 0 -112 18 -122 106 -6 59 -11 71 -46 109 -96 104 -348 156 -495
101z" id="node5" class="node" stroke-width="20"></path>
</g>
<g transform="translate(0.000000,300.000000) scale(0.100000,-0.100000)" fill="#A2A1A1" stroke="none">



</g>
</svg>