<!--?xml version="1.0" standalone="no"?--><svg version="1.0" xmlns="http://www.w3.org/2000/svg" width="223.000000pt" height="300.000000pt" viewBox="0 0 223.000000 300.000000" preserveAspectRatio="xMidYMid meet">
<metadata>
  <rdf:rdf xmlns:rdf="http://www.w3.org/1999/02/22-rdf-syntax-ns#" xmlns:rdfs="http://www.w3.org/2000/01/rdf-schema#" xmlns:dc="http://purl.org/dc/elements/1.1/">
    <rdf:description dc:title="girl with plant pot" dc:publisher="Hiox" dc:date="2015-04-28" dc:format="image/svg+xml" dc:language="en">
      <dc:creator>
        <rdf:bag>
          <rdf:li>svgimages.com</rdf:li>
        </rdf:bag>
      </dc:creator>
    </rdf:description>
  </rdf:rdf>
</metadata>
<g transform="translate(0.000000,300.000000) scale(0.100000,-0.100000)" fill="#060606" stroke="none">
<path d="M1070 2302 c-41 -13 -47 -30 -45 -120 1 -48 -2 -92 -6 -98 -5 -6 -1
-36 10 -70 16 -53 21 -59 52 -65 18 -4 39 -15 46 -25 11 -15 9 -21 -12 -42
-14 -14 -25 -30 -25 -36 0 -6 -14 -40 -30 -74 -17 -37 -30 -80 -30 -102 l0
-39 -62 28 c-48 22 -66 36 -82 67 -11 21 -21 50 -21 64 0 20 -6 25 -42 33 -39
7 -43 11 -43 38 0 21 6 32 23 39 l22 9 -22 0 c-18 1 -23 7 -23 26 0 33 29 49
52 28 17 -15 18 -14 18 6 0 19 3 20 20 11 11 -6 20 -16 20 -23 0 -7 9 -20 19
-29 19 -16 20 -15 18 3 -1 12 -9 25 -19 30 -15 8 -16 14 -7 30 9 19 9 19 -10
10 -25 -14 -27 -14 -45 5 -13 12 -16 13 -16 1 0 -11 -38 -37 -55 -37 -13 0 -3
27 14 37 13 8 17 19 14 37 -4 21 -2 26 16 26 11 0 21 5 21 10 0 6 7 10 15 10
18 0 20 16 3 23 -9 3 -7 9 7 20 11 8 17 18 13 22 -3 4 -17 -4 -29 -16 -15 -15
-24 -18 -27 -11 -6 18 -22 14 -22 -5 0 -9 -5 -32 -12 -50 -16 -45 -44 -41 -40
6 2 23 -2 31 -10 29 -7 -3 -19 2 -26 11 -11 14 -12 13 -7 -6 8 -31 -11 -37
-36 -12 l-21 21 7 -21 c3 -12 2 -21 -4 -21 -5 0 -25 -13 -43 -30 -18 -16 -27
-30 -21 -30 6 0 14 -8 16 -17 4 -17 5 -17 6 0 0 9 5 17 10 17 5 0 7 10 3 22
-4 18 -2 20 16 16 12 -4 24 -2 27 2 8 13 65 8 65 -5 0 -7 -7 -15 -15 -19 -8
-3 -15 -11 -14 -18 0 -10 2 -10 6 0 2 6 12 12 21 12 12 0 13 -3 4 -12 -7 -7
-12 -19 -12 -27 0 -11 4 -10 15 5 8 10 15 17 15 14 1 -3 3 -16 5 -30 2 -14 6
-43 10 -66 5 -29 3 -50 -9 -72 -14 -27 -23 -32 -67 -38 -28 -4 -53 -12 -55
-18 -2 -6 4 -37 15 -68 10 -30 24 -80 31 -111 12 -62 -3 -54 150 -75 68 -10
220 -77 220 -97 0 -6 -21 -65 -46 -130 -55 -144 -214 -618 -214 -640 0 -8 9
-15 20 -15 23 0 180 -49 193 -60 13 -11 -11 -87 -29 -94 -9 -3 -24 -6 -35 -6
-10 0 -19 -5 -19 -10 0 -6 -12 -16 -27 -23 -27 -12 -26 -12 23 -17 28 -3 79
-3 115 0 l64 5 -2 66 -2 66 56 12 c71 14 73 14 73 -3 0 -8 9 -30 20 -49 l20
-33 -45 -32 c-25 -17 -45 -36 -45 -42 0 -16 47 -11 116 13 73 25 86 44 55 83
-23 30 -28 79 -8 87 6 2 21 1 32 -4 39 -15 91 -10 111 12 16 18 25 19 80 14
34 -4 64 -3 67 2 3 5 -14 87 -39 183 -24 96 -42 179 -41 184 2 5 16 -20 31
-56 15 -35 38 -78 51 -94 l24 -29 -9 35 c-17 59 -13 65 25 36 41 -31 47 -21 9
15 -42 39 -66 94 -58 134 l6 34 42 -21 41 -21 -36 40 c-20 22 -57 83 -82 136
-63 134 -97 179 -154 208 -26 13 -49 24 -50 25 -7 2 60 114 68 114 13 0 11 31
-5 62 l-15 28 24 -16 c30 -19 49 -9 41 21 -3 13 -2 27 4 30 5 3 10 13 10 21 0
10 -12 14 -40 14 -35 0 -40 3 -40 24 0 28 -40 138 -69 189 -34 60 -44 113 -27
139 27 44 29 99 4 148 -32 62 -65 78 -168 83 -47 2 -92 2 -100 -1z m220 -385
c0 -10 5 -27 11 -39 13 -24 5 -35 -15 -19 -20 17 -39 78 -31 99 6 16 8 15 21
-2 8 -11 14 -28 14 -39z m65 -33 c22 -53 19 -75 -5 -39 -18 27 -28 75 -15 75
3 0 12 -16 20 -36z m54 -144 c0 -9 -6 -4 -14 10 -19 33 -19 49 0 24 8 -10 14
-26 14 -34z m-520 -116 c41 -35 39 -46 -6 -38 -47 8 -54 14 -47 42 8 28 16 28
53 -4z m435 -145 c-8 -13 -24 -1 -24 18 0 13 3 13 15 3 8 -7 12 -16 9 -21z
m157 -280 c11 -27 19 -55 19 -62 -1 -14 -70 131 -70 147 0 19 32 -35 51 -85z" id="node1" class="node" stroke-width="20"></path>
</g>
<g transform="translate(0.000000,300.000000) scale(0.100000,-0.100000)" fill="#9F9F9F" stroke="none">







</g>
</svg>