<!--?xml version="1.0" standalone="no"?--><svg version="1.0" xmlns="http://www.w3.org/2000/svg" width="210.000000pt" height="300.000000pt" viewBox="0 0 210.000000 300.000000" preserveAspectRatio="xMidYMid meet">
<metadata>
  <rdf:rdf xmlns:rdf="http://www.w3.org/1999/02/22-rdf-syntax-ns#" xmlns:rdfs="http://www.w3.org/2000/01/rdf-schema#" xmlns:dc="http://purl.org/dc/elements/1.1/">
    <rdf:description dc:title="girl sit with butterfly " dc:publisher="Hiox" dc:date="2015-03-26" dc:format="image/svg+xml" dc:language="en">
      <dc:creator>
        <rdf:bag>
          <rdf:li>svgimages.com</rdf:li>
        </rdf:bag>
      </dc:creator>
    </rdf:description>
  </rdf:rdf>
</metadata>
<g transform="translate(0.000000,300.000000) scale(0.100000,-0.100000)" fill="#242021" stroke="none">
<path d="M1260 2981 c-38 -16 -45 -23 -48 -50 -4 -37 -7 -37 -50 -11 -62 38
-179 64 -282 64 -205 -2 -389 -88 -465 -219 -35 -59 -57 -162 -44 -208 12 -46
55 -97 80 -97 23 0 23 8 4 34 -8 11 -15 34 -15 50 l0 31 19 -40 c22 -50 43
-68 80 -69 27 -1 30 -5 44 -61 21 -83 10 -179 -22 -200 -21 -12 -12 -64 13
-80 14 -9 24 -25 24 -40 0 -13 7 -31 16 -40 9 -9 16 -24 16 -33 0 -9 7 -26 15
-36 8 -11 15 -32 15 -46 0 -59 72 -78 208 -57 42 7 52 6 52 -5 0 -10 -14 -14
-51 -15 -63 -1 -96 -23 -126 -83 -16 -30 -23 -62 -23 -99 0 -42 -5 -60 -21
-77 -21 -22 -21 -24 -5 -49 12 -19 15 -36 11 -58 -8 -35 -45 -107 -55 -107 -4
0 -37 32 -73 70 -67 71 -100 92 -169 104 -47 9 -49 -5 -6 -33 46 -29 28 -26
-92 14 -108 37 -141 36 -101 -4 12 -12 21 -27 21 -34 0 -8 9 -22 20 -32 15
-13 17 -21 9 -26 -18 -11 39 -76 76 -87 32 -10 30 -12 -45 -32 -33 -9 -60 -27
-101 -69 -100 -103 -143 -227 -142 -416 2 -282 91 -495 230 -550 39 -16 57
-35 33 -35 -22 0 -81 -63 -78 -84 9 -60 127 -59 250 3 l80 41 -65 -69 c-36
-38 -68 -79 -72 -91 -17 -52 50 -64 169 -30 65 18 95 32 176 77 19 11 64 29
99 41 77 26 111 55 111 94 0 24 4 28 30 28 49 0 80 20 80 51 0 24 5 30 40 39
147 40 205 95 250 239 20 63 17 71 55 -139 14 -79 28 -146 30 -148 2 -2 27 10
57 26 79 44 80 53 20 228 -28 82 -64 179 -81 217 -32 71 -29 83 10 41 34 -36
97 -67 124 -60 13 3 30 21 40 42 31 66 11 362 -28 400 -9 9 -93 -42 -156 -95
l-54 -46 8 30 c13 45 9 89 -14 141 -12 26 -24 64 -27 85 -6 35 -4 38 30 54 20
10 39 21 41 26 3 4 0 28 -7 53 -11 43 -11 47 11 67 40 38 53 82 39 137 -6 26
-17 61 -24 78 -19 46 -97 128 -148 155 -36 18 -50 34 -66 71 -27 63 -25 79 13
104 50 33 84 38 92 14 10 -32 28 -24 21 10 -6 33 -4 35 26 19 16 -9 19 -8 16
3 -2 7 -18 19 -35 27 l-30 13 29 57 c35 69 58 173 58 268 l0 72 33 3 c31 3 32
5 41 61 4 31 12 57 16 57 4 0 13 -15 20 -32 40 -111 105 -194 178 -229 69 -34
166 -31 250 7 34 16 62 32 62 35 0 4 -12 10 -27 14 -39 9 -95 58 -121 104 -24
44 -22 47 27 30 24 -9 35 -9 44 0 8 8 7 11 -5 11 -25 0 -66 59 -89 130 -56
163 -134 233 -261 232 -61 0 -117 -22 -171 -68 -37 -31 -44 -30 -52 9 -21 105
-31 112 -115 78z" id="node1" class="node"></path>
<path d="M127 2074 c-10 -63 11 -132 54 -179 l39 -42 -34 -6 c-19 -3 -51 -13
-70 -22 -36 -17 -116 -96 -116 -114 0 -15 65 -24 126 -18 43 4 54 3 54 -9 0
-59 86 65 142 205 25 61 29 85 26 133 -2 31 -7 61 -11 64 -11 11 -35 -16 -42
-47 -8 -34 -20 -37 -35 -9 -14 27 -88 80 -110 80 -12 0 -19 -11 -23 -36z" id="node2" class="node"></path>
</g>
<g transform="translate(0.000000,300.000000) scale(0.100000,-0.100000)" fill="#A2A1A1" stroke="none">


</g>
</svg>