<!--?xml version="1.0" standalone="no"?--><svg version="1.0" xmlns="http://www.w3.org/2000/svg" width="300.000000pt" height="212.000000pt" viewBox="0 0 300.000000 212.000000" preserveAspectRatio="xMidYMid meet">
<metadata>
  <rdf:rdf xmlns:rdf="http://www.w3.org/1999/02/22-rdf-syntax-ns#" xmlns:rdfs="http://www.w3.org/2000/01/rdf-schema#" xmlns:dc="http://purl.org/dc/elements/1.1/">
    <rdf:description dc:title="girl karate" dc:publisher="Hiox" dc:date="2015-03-26" dc:format="image/svg+xml" dc:language="en">
      <dc:creator>
        <rdf:bag>
          <rdf:li>svgimages.com</rdf:li>
        </rdf:bag>
      </dc:creator>
    </rdf:description>
  </rdf:rdf>
</metadata>
<g transform="translate(0.000000,212.000000) scale(0.100000,-0.100000)" fill="#090909" stroke="none">
<path d="M718 1894 c-23 -15 -40 -35 -44 -52 -10 -49 -13 -52 -39 -52 -36 0
-65 -17 -65 -39 0 -18 18 -63 45 -111 13 -22 12 -27 -7 -47 l-21 -23 30 0 c35
0 73 36 73 69 0 12 -12 33 -26 46 -16 15 -24 32 -22 46 5 36 25 33 43 -5 9
-19 28 -42 41 -51 33 -21 32 -69 -2 -119 -16 -23 -29 -58 -32 -85 -3 -32 -13
-55 -33 -76 -29 -31 -68 -109 -69 -136 0 -34 35 -51 102 -49 35 1 68 2 75 1 6
0 36 -24 67 -52 l55 -51 -20 -27 c-18 -24 -19 -32 -9 -78 10 -47 9 -55 -10
-81 -12 -17 -35 -40 -51 -51 -31 -23 -31 -41 1 -41 10 0 35 21 57 50 21 27 42
49 47 50 10 0 2 -154 -10 -184 -6 -16 -5 -17 14 -7 19 10 22 21 23 84 0 40 4
81 8 91 7 17 10 16 35 -16 14 -20 44 -48 65 -62 21 -15 46 -45 56 -67 l18 -40
-36 -108 c-21 -60 -37 -115 -37 -124 0 -8 -16 -39 -35 -68 -20 -29 -34 -58
-31 -65 3 -7 -9 -32 -26 -55 -28 -39 -29 -43 -13 -55 34 -25 237 -33 234 -9
-1 6 -27 19 -57 31 -61 23 -84 46 -65 65 10 10 22 10 53 0 38 -11 42 -11 60
11 10 13 33 61 50 108 29 78 32 99 40 265 14 286 19 302 105 401 61 69 116
100 225 129 36 9 111 30 167 47 101 31 101 31 108 67 12 62 21 72 63 65 37 -6
38 -5 91 70 30 42 55 76 56 76 2 0 19 -7 38 -15 56 -23 63 -20 73 32 9 45 11
48 47 54 26 4 43 2 52 -8 21 -20 29 -78 16 -114 -6 -18 -11 -33 -11 -34 0 -8
112 -46 118 -40 16 16 3 116 -22 165 l-25 50 27 5 c46 10 112 44 112 58 0 15
-41 37 -70 37 -10 0 -34 -9 -52 -19 -51 -30 -134 -51 -146 -39 -14 14 9 59 44
87 14 11 23 25 19 30 -8 14 -80 35 -98 28 -15 -6 -102 -175 -113 -220 -4 -16
-16 -32 -29 -37 -13 -5 -26 -14 -30 -21 -11 -17 -153 -79 -168 -73 -29 11
-473 -107 -592 -157 -11 -5 -57 -18 -103 -29 -114 -29 -148 -15 -102 42 18 23
27 25 147 32 97 5 141 12 181 28 28 12 52 27 52 32 0 15 37 37 85 51 51 16 64
53 31 92 -17 19 -28 24 -44 19 -12 -4 -22 -14 -22 -22 0 -56 -273 -85 -424
-45 -44 11 -91 29 -105 38 -14 10 -38 23 -53 30 -38 16 -35 40 5 51 32 9 32 9
29 67 -1 32 -7 64 -12 70 -5 6 -11 28 -14 49 -6 50 -29 65 -96 65 -41 0 -64
-6 -92 -25z" id="node1" class="node" stroke-width="20"></path>
<path d="M2074 1515 c-11 -26 14 -43 54 -38 26 3 47 -2 70 -17 37 -23 38 -46
1 -43 -13 2 -50 6 -81 9 -106 12 -143 -47 -67 -108 39 -31 176 -91 189 -83 16
10 62 166 56 190 -16 63 -204 139 -222 90z m110 -138 c25 -18 6 -67 -27 -67
-45 0 -85 49 -60 73 11 12 68 8 87 -6z" id="node2" class="node" stroke-width="20"></path>
<path d="M1995 1268 c-4 -13 -20 -52 -35 -88 -46 -107 -46 -103 5 -128 51 -24
50 -25 58 47 10 86 79 129 127 81 25 -25 63 -23 68 3 6 29 -15 44 -73 52 -30
3 -55 10 -55 15 0 11 -53 40 -74 40 -8 0 -18 -10 -21 -22z" id="node3" class="node"></path>
<path d="M1870 1021 c0 -24 25 -47 35 -30 16 24 115 -16 115 -46 0 -13 -13
-14 -83 -9 -98 8 -127 -2 -127 -45 0 -16 10 -36 23 -48 27 -26 193 -106 205
-99 4 2 21 45 37 95 l29 91 -20 28 c-46 63 -214 113 -214 63z m119 -135 c15
-18 -3 -66 -25 -66 -31 0 -74 33 -74 57 0 20 5 23 44 23 25 0 48 -6 55 -14z" id="node4" class="node"></path>
<path d="M1860 750 c0 -6 -18 -9 -41 -8 -27 2 -43 -2 -46 -9 -3 -8 4 -13 16
-13 33 0 33 -15 1 -95 -44 -112 -43 -117 31 -129 l36 -6 0 43 c1 24 11 63 23
86 21 42 22 42 61 36 32 -6 39 -4 39 9 0 9 -12 21 -26 27 -26 9 -26 10 -8 30
16 17 16 22 4 29 -20 13 -90 12 -90 0z" id="node5" class="node"></path>
<path d="M1644 476 c-17 -8 -41 -30 -53 -50 -20 -31 -21 -40 -11 -70 13 -40
65 -89 117 -111 43 -18 124 -20 141 -3 23 23 13 34 -27 30 -51 -5 -102 12
-131 43 -34 36 -16 51 44 36 66 -16 151 -14 166 4 28 33 -37 103 -115 124 -52
14 -93 13 -131 -3z m144 -46 c36 -22 43 -50 12 -50 -10 0 -42 5 -70 11 -54 12
-66 33 -27 49 34 13 49 12 85 -10z" id="node6" class="node"></path>
</g>
<g transform="translate(0.000000,212.000000) scale(0.100000,-0.100000)" fill="#A0A0A0" stroke="none">




</g>
</svg>