<!--?xml version="1.0" standalone="no"?--><svg version="1.0" xmlns="http://www.w3.org/2000/svg" width="300.000000pt" height="264.000000pt" viewBox="0 0 300.000000 264.000000" preserveAspectRatio="xMidYMid meet">
<metadata>
  <rdf:rdf xmlns:rdf="http://www.w3.org/1999/02/22-rdf-syntax-ns#" xmlns:rdfs="http://www.w3.org/2000/01/rdf-schema#" xmlns:dc="http://purl.org/dc/elements/1.1/">
    <rdf:description dc:title="field hockey clipart" dc:publisher="Hiox" dc:date="2015-04-11" dc:format="image/svg+xml" dc:language="en">
      <dc:creator>
        <rdf:bag>
          <rdf:li>svgimages.com</rdf:li>
        </rdf:bag>
      </dc:creator>
    </rdf:description>
  </rdf:rdf>
</metadata>
<g transform="translate(0.000000,264.000000) scale(0.100000,-0.100000)" fill="#101010" stroke="none">
<path d="M1240 2625 c-14 -8 -35 -14 -48 -15 -12 0 -34 -7 -47 -16 -14 -9 -32
-13 -45 -9 -82 26 -197 -68 -272 -222 -39 -80 -43 -95 -42 -163 0 -103 36
-181 115 -254 98 -91 195 -126 349 -126 112 0 200 27 280 84 28 20 53 36 56
36 25 0 136 -122 123 -134 -2 -2 -47 -32 -99 -67 -101 -67 -231 -192 -282
-271 -22 -33 -38 -48 -53 -48 -12 0 -33 -8 -46 -18 -13 -11 -37 -22 -54 -26
-16 -4 -50 -23 -75 -41 -26 -19 -68 -42 -95 -52 -45 -17 -50 -22 -57 -58 -6
-26 -23 -54 -48 -80 -45 -46 -47 -51 -24 -76 15 -17 8 -24 -128 -113 -214
-139 -240 -153 -274 -141 -22 8 -36 26 -58 72 -35 72 -61 88 -134 80 -37 -4
-52 -12 -74 -38 -31 -37 -58 -108 -58 -154 0 -68 75 -170 157 -213 67 -36 104
-14 608 370 l100 76 15 -23 c8 -14 27 -30 43 -36 24 -10 31 -9 51 10 12 11 35
21 50 21 19 0 40 12 63 35 19 19 42 35 49 35 8 0 28 7 44 15 36 19 50 63 38
124 -7 39 -5 48 14 68 16 18 22 37 23 81 4 126 84 237 276 380 31 23 58 42 62
42 3 0 32 -69 65 -153 124 -316 123 -343 -9 -367 -79 -15 -196 -65 -255 -110
-56 -42 -124 -119 -124 -140 0 -18 39 -100 58 -122 26 -31 33 -19 12 22 -11
21 -20 50 -20 63 0 27 32 64 67 78 32 12 125 12 159 -1 l26 -10 -39 -29 c-124
-90 -215 -286 -197 -423 l7 -48 -32 0 c-21 0 -31 -5 -31 -15 0 -11 11 -15 43
-15 23 0 55 -7 71 -15 15 -8 36 -15 46 -15 18 0 79 -53 81 -71 1 -5 2 -14 3
-21 1 -15 23 -22 31 -9 12 20 -29 84 -76 118 -55 39 -64 65 -62 177 1 55 8 81
34 135 34 70 144 191 173 191 9 0 47 -29 86 -64 39 -36 90 -72 115 -81 64 -25
134 -16 191 24 51 36 53 36 68 16 6 -8 85 -79 176 -158 106 -93 170 -142 181
-140 24 7 39 94 40 227 0 61 4 130 7 153 l7 42 60 -50 c112 -93 202 -122 246
-78 26 26 49 80 49 114 0 39 -51 131 -133 241 -97 130 -165 198 -210 213 -51
17 -101 -8 -144 -73 -52 -77 -41 -155 36 -250 l31 -39 -1 -176 c0 -97 -4 -195
-7 -219 l-7 -43 -95 81 c-113 97 -220 201 -220 213 0 5 11 23 24 40 37 49 110
207 100 216 -5 5 -58 20 -117 35 -154 38 -287 107 -287 148 0 36 -69 228 -118
326 -52 107 -53 105 43 121 101 18 234 14 309 -9 36 -11 68 -24 70 -29 3 -5
-10 -21 -29 -35 -31 -24 -35 -32 -35 -75 0 -27 6 -66 14 -88 11 -31 12 -50 4
-85 -17 -71 -7 -89 68 -126 60 -29 68 -31 84 -17 9 8 38 18 64 21 58 8 79 27
71 63 -5 22 1 35 27 63 19 19 46 38 62 42 15 4 39 14 53 23 23 16 25 21 20 73
-7 77 -43 157 -78 175 -32 17 -128 20 -178 5 -29 -8 -39 -6 -78 21 -61 43
-179 62 -339 57 -109 -3 -126 -7 -177 -33 l-57 -28 -73 69 c-39 38 -73 72 -75
75 -1 3 6 16 16 29 l19 23 30 -21 c17 -12 53 -27 80 -33 44 -10 55 -9 123 16
190 69 228 69 292 5 46 -46 52 -25 8 30 -36 46 -37 52 -7 41 83 -32 230 -19
273 25 28 27 33 96 9 120 -13 14 -15 13 -15 -8 0 -29 -9 -42 -37 -57 -29 -15
-56 -14 -117 4 -28 8 -76 21 -106 29 -45 13 -71 30 -145 97 -118 107 -168 132
-262 133 l-73 1 6 31 c5 27 1 35 -33 61 -64 50 -121 76 -158 69 -23 -5 -36 -2
-45 9 -7 9 -20 13 -28 10 -9 -3 -21 3 -29 15 -8 12 -21 19 -28 16 -7 -2 -17 0
-23 6 -6 6 -17 5 -31 -4 -17 -10 -25 -10 -41 0 -24 15 -29 15 -60 -3z m92
-156 c292 -62 406 -331 214 -507 -230 -212 -670 -119 -726 153 -14 69 2 137
50 205 9 13 13 12 28 -6 9 -12 29 -24 43 -28 22 -5 28 -2 33 17 9 36 95 126
146 153 51 26 126 31 212 13z m523 -93 c34 -15 125 -92 125 -106 0 -5 -26 4
-57 20 -82 40 -138 46 -187 21 -31 -16 -42 -18 -48 -8 -17 26 -7 46 35 66 49
25 85 26 132 7z m739 -677 c37 -80 40 -109 12 -109 -8 0 -21 -3 -30 -6 -11 -4
-18 5 -25 33 -13 46 -37 83 -55 83 -11 0 -11 -6 0 -37 7 -21 13 -61 14 -89 0
-48 -2 -52 -26 -58 -15 -4 -29 -4 -32 -1 -4 3 -15 38 -27 77 -21 75 -45 102
-67 80 -10 -10 -10 -15 -1 -20 15 -9 47 -137 39 -157 -8 -21 -59 -19 -79 3
-22 24 -67 146 -67 181 0 31 11 38 108 70 79 26 90 29 148 30 l51 1 37 -81z
m-236 -249 c24 0 52 5 63 11 15 8 24 7 35 -2 23 -19 13 -29 -46 -49 -59 -20
-87 -15 -127 22 -34 31 -31 51 5 32 15 -7 46 -14 70 -14z m296 -49 c69 -46
260 -296 286 -376 16 -48 7 -112 -18 -138 -20 -19 -20 -19 -79 12 -32 17 -89
59 -126 92 l-67 60 3 88 c2 90 -10 134 -41 146 -31 12 -43 -15 -36 -76 4 -33
4 -59 0 -59 -12 0 -56 104 -56 133 0 51 56 137 89 137 9 0 29 -9 45 -19z
m-1311 -23 c37 -14 51 -51 35 -86 -17 -34 -41 -39 -67 -13 -12 12 -27 21 -34
21 -7 0 -54 -24 -105 -54 -50 -30 -101 -57 -112 -61 -11 -4 -26 -19 -34 -33
-14 -28 -82 -72 -109 -72 -30 0 -30 23 0 49 35 30 53 60 53 90 0 16 14 27 55
46 30 13 69 35 87 48 54 40 100 51 142 33 32 -13 36 -13 36 0 0 8 -11 20 -25
26 -18 8 -22 14 -13 19 14 9 46 4 91 -13z m-79 -138 c-18 -26 -31 -37 -38 -31
-6 4 -18 10 -26 13 -9 3 2 14 30 31 60 36 65 34 34 -13z m832 -3 c33 -15 96
-34 140 -43 43 -9 83 -20 87 -24 4 -4 -13 -47 -37 -96 -79 -156 -167 -241
-236 -229 -50 10 -74 24 -179 109 -52 41 -114 82 -139 91 -58 19 -172 19 -219
0 -48 -20 -50 -19 -22 11 72 77 207 145 325 164 35 6 79 20 97 31 41 26 100
21 183 -14z m-768 -14 c29 -74 23 -121 -16 -142 -28 -15 -41 0 -52 58 -9 47
-8 56 11 82 26 36 44 37 57 2z m-113 -36 c14 -11 18 -28 19 -81 1 -60 -2 -70
-23 -87 -13 -10 -32 -19 -42 -19 -16 0 -18 6 -13 44 4 25 2 59 -4 76 -9 25 -8
36 4 56 18 27 32 30 59 11z m-75 -1 c0 -3 -4 -8 -10 -11 -5 -3 -10 -1 -10 4 0
6 5 11 10 11 6 0 10 -2 10 -4z m-22 -56 c15 -28 10 -136 -6 -152 -17 -17 -50
1 -61 34 -15 42 -14 121 1 136 19 19 51 10 66 -18z m-147 -123 c-23 -24 -27
-22 -36 15 -6 22 -2 29 22 41 27 15 28 15 31 -10 2 -16 -4 -34 -17 -46z m-55
-9 c5 -17 0 -28 -27 -50 -18 -15 -36 -28 -40 -28 -3 0 -11 12 -18 27 -10 21
-10 28 1 34 7 4 22 15 33 23 28 21 42 20 51 -6z m-102 -64 c11 -29 6 -42 -30
-69 -19 -15 -37 -25 -38 -24 -2 2 -6 20 -10 39 -5 31 -3 37 21 52 35 22 49 22
57 2z m-440 -16 c8 -13 18 -35 21 -49 4 -15 22 -42 41 -60 28 -27 34 -40 34
-73 0 -77 -17 -114 -61 -137 -53 -27 -88 -18 -133 31 -78 87 -67 227 23 287
43 29 57 29 75 1z m-136 -20 c-12 -18 -31 -62 -40 -98 -16 -63 -17 -64 -17
-23 -1 57 43 153 70 153 6 0 0 -15 -13 -32z m482 -54 c0 -22 -8 -36 -30 -52
-16 -12 -32 -22 -35 -22 -3 0 -5 21 -5 48 0 41 4 50 27 64 32 19 43 10 43 -38z
m-90 -53 c0 -41 -4 -51 -25 -65 -13 -9 -26 -16 -27 -16 -2 0 -2 24 0 52 3 49
20 78 44 78 4 0 8 -22 8 -49z m-70 -45 c0 -52 -1 -54 -42 -81 l-41 -27 6 47
c4 26 7 60 7 76 0 21 6 29 23 32 47 9 47 9 47 -47z" id="node1" class="node"></path>
<path d="M1096 2279 c-14 -17 -26 -37 -26 -45 0 -10 -12 -14 -40 -14 -55 0
-90 -34 -90 -88 0 -28 6 -44 22 -58 13 -10 18 -12 12 -4 -29 40 -20 111 16
130 24 13 67 13 75 0 3 -5 -1 -10 -9 -10 -10 0 -13 -6 -9 -16 4 -10 -1 -22
-12 -30 -15 -11 -16 -16 -5 -29 7 -8 19 -15 26 -15 21 0 38 44 26 65 -23 43
29 135 77 135 10 0 30 -9 45 -21 28 -22 35 -42 12 -33 -8 3 -16 -4 -19 -17 -4
-14 -11 -20 -21 -16 -21 8 -21 -16 -1 -33 8 -7 24 -10 35 -7 24 6 26 -6 4 -27
-22 -22 -58 -30 -82 -17 -27 15 -32 14 -32 -4 0 -9 -7 -30 -15 -48 l-16 -32
29 33 c21 24 37 32 61 32 43 0 68 14 87 52 20 39 13 92 -17 124 -35 37 -99 34
-133 -7z" id="node2" class="node"></path>
<path d="M1385 2210 c-23 -35 -76 -89 -128 -132 -84 -69 -137 -132 -123 -146
4 -3 18 8 32 26 32 41 79 43 148 6 99 -53 133 -6 121 166 -4 58 -7 113 -7 123
1 9 0 17 -1 17 -1 0 -20 -27 -42 -60z m34 -122 c2 -115 -23 -146 -87 -110 -20
11 -54 23 -75 27 -35 7 -37 9 -22 25 9 9 38 32 65 51 27 18 61 53 77 77 26 43
28 44 34 21 4 -13 7 -54 8 -91z" id="node3" class="node"></path>
<path d="M274 1480 c-30 -12 -62 -56 -76 -104 -10 -38 -41 -75 -62 -76 -4 0
-6 32 -4 70 3 53 0 70 -9 70 -23 0 -35 -51 -29 -118 6 -53 4 -67 -13 -91 -30
-41 -57 -117 -71 -198 -15 -80 -3 -168 30 -233 36 -72 52 -67 24 6 -46 120
-36 260 28 387 19 38 20 39 40 20 21 -18 21 -18 14 19 -6 32 -4 39 16 49 19
10 24 9 33 -6 15 -27 44 -55 56 -55 6 0 1 15 -10 34 -12 18 -21 39 -21 45 0 7
20 21 45 32 25 11 45 23 45 26 0 3 -20 3 -45 0 l-45 -7 15 38 c9 20 28 49 42
64 30 31 28 40 -3 28z" id="node4" class="node"></path>
<path d="M390 1379 c-97 -39 -114 -160 -31 -216 25 -17 48 -23 89 -23 50 0 58
3 93 39 34 33 39 45 39 83 0 93 -99 153 -190 117z" id="node5" class="node"></path>
<path d="M1650 797 c0 -24 35 -47 90 -57 91 -17 267 -10 254 11 -3 5 -39 9
-81 9 -95 0 -198 17 -214 36 -15 18 -49 18 -49 1z" id="node6" class="node"></path>
<path d="M830 649 c-71 -14 -97 -28 -114 -64 -36 -76 -8 -134 122 -251 157
-140 260 -202 450 -268 149 -52 249 -70 341 -62 127 11 191 42 191 93 0 44
-220 264 -305 305 -50 24 -54 27 -25 22 48 -8 112 -37 129 -57 7 -10 10 -17 6
-17 -4 0 -2 -7 5 -15 17 -21 40 -19 40 4 0 55 -96 111 -204 119 -61 4 -76 9
-107 36 -143 121 -366 187 -529 155z m251 -81 c36 -17 100 -67 191 -152 121
-112 140 -126 171 -126 44 0 255 -103 311 -152 44 -38 42 -48 -8 -72 -39 -19
-121 -22 -110 -5 9 15 -14 29 -47 29 -34 0 -41 -8 -28 -32 10 -19 8 -20 -43
-13 -161 21 -370 101 -513 198 -33 23 -102 81 -152 131 -84 80 -93 93 -93 125
0 78 46 102 181 97 66 -3 99 -9 140 -28z m161 -57 c29 -27 50 -52 47 -55 -3
-3 -32 19 -65 49 -32 30 -54 54 -47 55 6 0 36 -22 65 -49z m263 -141 c35 -13
98 -60 91 -67 -8 -8 -130 39 -153 60 -43 38 -22 41 62 7z" id="node7" class="node"></path>
<path d="M1010 515 c-11 -13 -10 -20 6 -42 32 -42 47 -48 77 -29 31 21 27 38
-18 66 -39 24 -49 25 -65 5z" id="node8" class="node"></path>
<path d="M873 414 c-6 -16 28 -58 60 -76 22 -11 47 6 47 32 0 42 -93 80 -107
44z" id="node9" class="node"></path>
<path d="M1140 381 c0 -58 91 -97 98 -42 4 28 -40 70 -75 71 -19 0 -23 -5 -23
-29z m60 -26 c14 -16 10 -18 -14 -9 -9 3 -16 10 -16 15 0 14 16 11 30 -6z" id="node10" class="node"></path>
<path d="M1120 240 c0 -12 12 -26 31 -36 29 -15 33 -15 48 1 15 15 14 18 -8
36 -31 26 -71 25 -71 -1z" id="node11" class="node"></path>
<path d="M1397 239 c-25 -15 -8 -39 38 -55 44 -15 55 -11 55 17 0 13 -12 25
-35 35 -40 16 -35 16 -58 3z" id="node12" class="node"></path>
<path d="M1598 146 c-25 -18 -23 -23 17 -36 39 -13 55 -7 55 20 0 30 -42 39
-72 16z" id="node13" class="node"></path>
<path d="M1394 126 c-8 -22 4 -34 44 -45 23 -7 34 -6 43 5 16 20 -5 41 -48 50
-25 5 -34 3 -39 -10z" id="node14" class="node"></path>
</g>
<g transform="translate(0.000000,264.000000) scale(0.100000,-0.100000)" fill="#A0A0A0" stroke="none">



<path d="M1120 2456 c-51 -27 -137 -117 -146 -153 -5 -19 -11 -22 -33 -17 -14
4 -34 16 -43 28 -15 18 -19 19 -28 6 -48 -68 -64 -136 -50 -205 46 -223 367
-340 617 -225 216 99 269 315 115 468 -104 104 -324 154 -432 98z m109 -170
c30 -32 37 -85 17 -124 -19 -38 -44 -52 -87 -52 -24 0 -40 -8 -61 -32 l-29
-33 16 32 c8 18 15 39 15 48 0 18 5 19 32 4 24 -13 60 -5 82 17 22 21 20 33
-4 27 -11 -3 -27 0 -35 7 -20 17 -20 41 1 33 10 -4 17 2 21 16 3 13 11 20 19
17 23 -9 16 11 -12 33 -15 12 -35 21 -45 21 -48 0 -100 -92 -77 -135 12 -21
-5 -65 -26 -65 -7 0 -19 7 -26 15 -11 13 -10 18 5 29 11 8 16 20 12 30 -4 10
-1 16 9 16 8 0 12 5 9 10 -8 13 -51 13 -75 0 -36 -19 -45 -90 -16 -130 6 -8 1
-6 -12 4 -16 14 -22 30 -22 58 0 54 35 88 90 88 28 0 40 4 40 14 0 8 12 28 26
45 34 41 98 44 133 7z m199 -33 c0 -10 3 -65 7 -123 12 -172 -22 -219 -121
-166 -69 37 -116 35 -148 -6 -14 -18 -28 -29 -32 -26 -14 14 39 77 123 146 52
43 105 97 128 132 22 33 41 60 42 60 1 0 2 -8 1 -17z" id="node18" class="node"></path>
<path d="M1377 2158 c-16 -24 -50 -59 -77 -77 -27 -19 -56 -42 -65 -51 -15
-16 -13 -18 22 -25 21 -4 55 -16 75 -27 42 -24 64 -19 78 17 11 29 12 146 1
184 -6 23 -8 22 -34 -21z" id="node19" class="node"></path>
<path d="M1723 2369 c-42 -20 -52 -40 -35 -66 6 -10 17 -8 48 8 49 25 105 19
187 -21 31 -16 57 -25 57 -20 0 14 -91 91 -125 106 -47 19 -83 18 -132 -7z" id="node20" class="node"></path>
<path d="M2435 1773 c-32 -8 -131 -42 -159 -54 -19 -9 -26 -20 -26 -40 0 -35
45 -157 67 -181 20 -22 71 -24 79 -3 8 20 -24 148 -39 157 -9 5 -9 10 1 20 22
22 46 -5 67 -80 12 -39 23 -74 27 -77 3 -3 17 -3 32 1 24 6 26 10 26 58 -1 28
-7 68 -14 89 -11 31 -11 37 0 37 18 0 42 -37 55 -83 7 -28 14 -37 25 -33 9 3
22 6 30 6 28 0 25 29 -12 109 l-37 81 -51 -1 c-28 -1 -60 -3 -71 -6z" id="node21" class="node"></path>
<path d="M2260 1466 c0 -17 39 -52 71 -64 19 -8 39 -5 79 8 59 20 69 30 46 49
-11 9 -20 10 -35 2 -28 -15 -101 -13 -133 3 -22 12 -28 12 -28 2z" id="node22" class="node"></path>
<path d="M2573 1398 c-30 -33 -53 -83 -53 -115 0 -29 44 -133 56 -133 4 0 4
26 0 59 -7 61 5 88 36 76 31 -12 43 -56 41 -146 l-3 -88 67 -60 c37 -33 94
-75 126 -92 59 -31 59 -31 79 -12 25 26 34 90 18 138 -26 80 -217 330 -286
376 -38 25 -56 24 -81 -3z" id="node23" class="node"></path>
<path d="M1252 1391 c-9 -5 -5 -11 13 -19 14 -6 25 -18 25 -26 0 -13 -4 -13
-36 0 -42 18 -88 7 -142 -33 -18 -13 -57 -35 -87 -48 -41 -19 -55 -30 -55 -46
0 -30 -18 -60 -53 -90 -30 -26 -30 -49 0 -49 27 0 95 44 109 72 8 14 23 29 34
33 11 4 62 31 112 61 51 30 98 54 105 54 7 0 22 -9 34 -21 26 -26 50 -21 67
13 16 35 2 72 -35 86 -45 17 -77 22 -91 13z" id="node24" class="node"></path>
<path d="M1230 1253 c-28 -17 -39 -28 -30 -31 8 -3 20 -9 26 -13 7 -6 20 5 38
31 31 47 26 49 -34 13z" id="node25" class="node"></path>
<path d="M1913 1251 c-18 -11 -62 -25 -97 -31 -118 -19 -253 -87 -325 -164
-28 -30 -26 -31 22 -11 47 19 161 19 219 0 25 -9 87 -50 139 -91 105 -85 129
-99 179 -109 69 -12 157 73 236 229 24 49 41 92 37 96 -4 4 -44 15 -87 24 -44
9 -107 28 -140 43 -83 35 -142 40 -183 14z" id="node26" class="node"></path>
<path d="M1271 1221 c-19 -26 -20 -35 -11 -82 11 -58 24 -73 52 -58 39 21 45
68 16 142 -13 35 -31 34 -57 -2z" id="node27" class="node"></path>
<path d="M1156 1176 c-12 -20 -13 -31 -4 -56 6 -17 8 -51 4 -76 -5 -38 -3 -44
13 -44 10 0 29 9 42 19 21 17 24 27 23 87 -1 53 -5 70 -19 81 -27 19 -41 16
-59 -11z" id="node28" class="node"></path>
<path d="M1120 1179 c0 -5 5 -7 10 -4 6 3 10 8 10 11 0 2 -4 4 -10 4 -5 0 -10
-5 -10 -11z" id="node29" class="node"></path>
<path d="M1052 1148 c-15 -15 -16 -94 -1 -136 11 -33 44 -51 61 -34 16 16 21
124 6 152 -15 28 -47 37 -66 18z" id="node30" class="node"></path>
<path d="M957 1063 c-24 -12 -28 -19 -22 -41 9 -37 13 -39 36 -15 13 12 19 30
17 46 -3 25 -4 25 -31 10z" id="node31" class="node"></path>
<path d="M865 1004 c-11 -8 -26 -19 -33 -23 -11 -6 -11 -13 -1 -34 7 -15 15
-27 18 -27 4 0 22 13 40 28 27 22 32 33 27 50 -9 26 -23 27 -51 6z" id="node32" class="node"></path>
<path d="M757 932 c-24 -15 -26 -21 -21 -52 4 -19 8 -37 10 -39 6 -7 74 52 74
64 0 23 -12 45 -24 45 -6 0 -23 -8 -39 -18z" id="node33" class="node"></path>
<path d="M299 917 c-90 -60 -101 -200 -23 -287 45 -49 80 -58 133 -31 44 23
61 60 61 137 0 33 -6 46 -34 73 -19 18 -37 45 -41 60 -9 36 -33 71 -49 71 -7
0 -28 -10 -47 -23z" id="node34" class="node"></path>
<path d="M223 903 c-31 -46 -43 -82 -42 -126 0 -41 1 -40 17 23 9 36 28 80 40
98 13 17 19 32 13 32 -5 0 -18 -12 -28 -27z" id="node35" class="node"></path>
<path d="M677 882 c-23 -14 -27 -23 -27 -64 0 -27 2 -48 5 -48 3 0 19 10 35
22 22 16 30 30 30 52 0 48 -11 57 -43 38z" id="node36" class="node"></path>
<path d="M598 828 c-11 -8 -18 -32 -20 -66 -2 -28 -2 -52 0 -52 1 0 14 7 27
16 21 14 25 24 25 65 0 51 -5 57 -32 37z" id="node37" class="node"></path>
<path d="M513 793 c-17 -3 -23 -11 -23 -32 0 -16 -3 -50 -7 -76 l-6 -47 41 27
c41 27 42 29 42 81 0 56 0 56 -47 47z" id="node38" class="node"></path>
<path d="M823 590 c-41 -13 -63 -45 -63 -91 0 -32 9 -45 93 -125 50 -50 119
-108 152 -131 143 -97 352 -177 513 -198 51 -7 53 -6 43 13 -13 24 -6 32 28
32 33 0 56 -14 47 -29 -11 -17 71 -14 110 5 50 24 52 34 8 72 -56 49 -267 152
-311 152 -31 0 -50 14 -171 126 -165 153 -206 175 -331 180 -47 2 -100 -1
-118 -6z m252 -80 c45 -28 49 -45 18 -66 -30 -19 -45 -13 -77 29 -16 22 -17
29 -6 42 16 20 26 19 65 -5z m-121 -101 c29 -23 34 -50 12 -68 -17 -15 -40 -5
-75 33 -45 48 8 79 63 35z m259 -23 c58 -47 12 -102 -46 -56 -36 28 -39 80 -4
80 12 -1 35 -11 50 -24z m-22 -145 c22 -18 23 -21 8 -36 -15 -16 -19 -16 -48
-1 -38 20 -43 56 -7 56 13 0 34 -9 47 -19z m264 -5 c23 -10 35 -22 35 -35 0
-28 -11 -32 -55 -17 -46 16 -63 40 -38 55 23 13 18 13 58 -3z m199 -82 c18 -7
22 -39 6 -49 -11 -7 -80 13 -80 22 0 9 34 32 47 33 6 0 18 -3 27 -6z m-175
-39 c24 -24 -2 -46 -41 -34 -40 11 -52 23 -44 45 5 13 14 15 39 10 17 -4 38
-13 46 -21z" id="node39" class="node"></path>
<path d="M1170 361 c0 -5 7 -12 16 -15 24 -9 28 -7 14 9 -14 17 -30 20 -30 6z" id="node40" class="node"></path>
<path d="M1224 505 c33 -30 62 -52 65 -49 8 8 -97 104 -112 104 -7 -1 15 -25
47 -55z" id="node41" class="node"></path>
<path d="M1420 391 c0 -17 49 -49 108 -70 35 -13 66 -21 68 -18 7 7 -56 54
-91 67 -52 21 -85 29 -85 21z" id="node42" class="node"></path>
</g>
</svg>