<!--?xml version="1.0" standalone="no"?-->

<svg version="1.0" xmlns="http://www.w3.org/2000/svg" width="231.000000pt" height="300.000000pt" viewBox="0 0 231.000000 300.000000" preserveAspectRatio="xMidYMid meet">
<g transform="translate(0.000000,300.000000) scale(0.100000,-0.100000)" fill="#343434" stroke="none">
<path class="node" id="node1" d="M1435 2733 c-48 -12 -102 -79 -132 -162 -16 -46 -20 -51 -43 -47
-261 50 -518 -29 -705 -218 -202 -204 -261 -495 -151 -755 71 -167 195 -294
369 -376 95 -45 173 -65 278 -72 235 -15 460 73 618 243 235 251 254 622 47
899 l-45 60 33 27 c41 34 96 144 96 192 0 33 -4 39 -35 52 -40 16 -93 18 -129
4 -36 -13 -73 5 -81 40 -3 15 -19 49 -35 74 -29 45 -40 50 -85 39z m62 -55
c23 -26 46 -86 37 -100 -3 -5 -14 -2 -25 8 -11 9 -22 14 -26 11 -3 -4 -2 -7 4
-7 6 0 13 -7 17 -15 7 -18 -3 -47 -14 -40 -4 3 -10 -5 -13 -17 -5 -18 -8 -19
-21 -8 -19 15 -20 7 -3 -20 15 -25 -2 -40 -48 -40 -48 0 -81 22 -77 50 8 65
97 200 131 200 10 0 27 -10 38 -22z m83 -131 c0 -16 -71 -87 -87 -87 -7 0 -13
3 -13 6 0 8 61 87 74 96 12 8 26 1 26 -15z m174 7 c22 -8 20 -21 -10 -79 -43
-81 -67 -114 -107 -142 -37 -25 -38 -26 -58 -7 -31 28 -72 102 -64 114 5 8 15
4 31 -11 13 -12 24 -17 24 -11 0 6 -4 14 -10 17 -16 10 -12 33 12 60 19 22 29
25 63 21 l40 -5 -40 13 c-25 9 -34 16 -25 19 38 14 48 15 87 16 23 1 48 -2 57
-5z m-491 -53 c15 -6 27 -17 27 -24 0 -19 84 -51 140 -53 60 -2 57 -1 64 -27
3 -13 24 -45 47 -71 38 -43 46 -47 76 -44 30 4 39 -1 70 -36 126 -148 181
-379 135 -565 -56 -220 -186 -381 -387 -479 -106 -52 -198 -72 -332 -72 -218
0 -377 64 -524 210 -143 143 -201 281 -200 479 0 164 40 282 136 409 111 147
280 244 495 286 41 8 223 -1 253 -13z m467 -110 c-20 -30 -40 -44 -23 -18 27
42 38 56 41 52 2 -2 -6 -18 -18 -34z"></path>
<path class="node" id="node2" d="M790 2218 c-26 -28 -34 -59 -27 -105 8 -45 33 -73 67 -73 68 0 96
124 40 180 -26 26 -54 25 -80 -2z"></path>
<path class="node" id="node3" d="M1262 2217 c-63 -67 -19 -193 61 -173 47 11 64 122 26 170 -25 32
-59 33 -87 3z"></path>
<path class="node" id="node4" d="M795 1847 c-27 -43 -71 -48 -109 -12 -16 14 -30 24 -33 22 -9 -10 22
-46 52 -60 25 -12 36 -28 54 -77 29 -78 61 -125 118 -172 82 -69 203 -86 309
-46 69 26 156 110 175 166 6 20 18 46 25 57 8 11 14 26 14 35 0 8 18 23 40 32
38 16 60 42 47 55 -4 3 -20 -6 -37 -21 -47 -39 -67 -36 -104 18 -8 12 -15 15
-20 8 -3 -6 7 -26 22 -44 29 -32 29 -34 16 -77 -35 -118 -151 -218 -265 -228
-145 -14 -274 81 -319 233 -12 41 -11 43 21 83 20 25 29 45 23 50 -5 6 -17 -4
-29 -22z"></path>





</g>
<g transform="translate(0.000000,300.000000) scale(0.100000,-0.100000)" fill="#FFFFFF" stroke="none">

<path class="node" id="node11" d="M1410 2663 c-35 -43 -77 -126 -82 -163 -4 -28 29 -50 77 -50 46 0 63
15 48 40 -17 27 -16 35 3 20 13 -11 16 -10 21 8 3 12 9 20 13 17 11 -7 21 22
14 40 -4 8 -11 15 -17 15 -6 0 -7 3 -4 7 4 3 15 -2 26 -11 25 -23 34 -7 19 35
-14 42 -46 79 -69 79 -10 0 -32 -17 -49 -37z"></path>
<path class="node" id="node12" d="M1554 2562 c-13 -9 -74 -88 -74 -96 0 -3 6 -6 13 -6 16 0 87 71 87
87 0 16 -14 23 -26 15z"></path>
<path class="node" id="node13" d="M1640 2553 c-8 -2 -22 -7 -30 -10 -9 -3 0 -10 25 -19 l40 -13 -40 5
c-34 4 -44 1 -63 -21 -24 -27 -28 -50 -12 -60 6 -3 10 -11 10 -17 0 -6 -11 -1
-24 11 -16 15 -26 19 -31 11 -8 -12 33 -86 64 -114 20 -19 21 -18 58 7 40 28
64 61 107 142 30 58 32 71 10 79 -18 7 -92 7 -114 -1z"></path>
<path class="node" id="node14" d="M1010 2514 c-215 -42 -384 -139 -495 -286 -96 -127 -136 -245 -136
-409 -1 -198 57 -336 200 -479 147 -146 306 -210 524 -210 134 0 226 20 332
72 201 98 331 259 387 479 46 186 -9 417 -135 565 -31 35 -40 40 -70 36 -30
-3 -38 1 -76 44 -23 26 -44 58 -47 71 -7 26 -4 25 -64 27 -56 2 -140 34 -140
53 0 7 -12 18 -27 24 -30 12 -212 21 -253 13z m-140 -294 c25 -25 34 -61 27
-107 -8 -45 -33 -73 -67 -73 -34 0 -59 28 -67 73 -7 46 1 77 27 105 26 27 54
28 80 2z m479 -6 c38 -48 21 -159 -26 -170 -80 -20 -124 106 -61 173 28 30 62
29 87 -3z m-548 -395 c-32 -40 -33 -42 -21 -83 45 -152 174 -247 319 -233 114
10 230 110 265 228 13 43 13 45 -16 77 -15 18 -25 38 -22 44 5 7 12 4 20 -8
37 -54 57 -57 104 -18 17 15 33 24 37 21 13 -13 -9 -39 -47 -55 -22 -9 -40
-24 -40 -32 0 -9 -6 -24 -14 -35 -7 -11 -19 -37 -25 -57 -19 -56 -106 -140
-175 -166 -106 -40 -227 -23 -309 46 -57 47 -89 94 -118 172 -18 49 -29 65
-54 77 -30 14 -61 50 -52 60 3 2 17 -8 33 -22 38 -36 82 -31 109 12 12 18 24
28 29 22 6 -5 -3 -25 -23 -50z"></path>
<path class="node" id="node15" d="M1730 2407 c-28 -41 -31 -47 -26 -47 7 0 49 61 44 65 -2 2 -10 -6
-18 -18z"></path>
</g>
</svg>