<!--?xml version="1.0" standalone="no"?-->

<svg version="1.0" xmlns="http://www.w3.org/2000/svg" width="236.000000pt" height="300.000000pt" viewBox="0 0 236.000000 300.000000" preserveAspectRatio="xMidYMid meet">
<g transform="translate(0.000000,300.000000) scale(0.100000,-0.100000)" fill="#030303" stroke="none">
<path class="node" id="node1" d="M984 2775 c-10 -8 -26 -15 -36 -15 -22 0 -65 -52 -73 -89 -6 -27 -9
-29 -40 -24 -31 5 -36 2 -45 -21 -14 -39 -12 -73 6 -101 17 -26 59 -34 66 -13
4 10 18 7 55 -10 32 -16 63 -23 88 -21 51 5 64 -14 47 -76 -20 -74 -16 -101
23 -143 42 -47 55 -80 55 -136 0 -47 5 -41 -139 -172 -71 -66 -100 -105 -158
-214 -60 -113 -75 -138 -110 -191 -18 -27 -33 -51 -33 -54 0 -2 -13 -33 -29
-67 -15 -35 -32 -74 -36 -88 -4 -14 -20 -47 -35 -75 -15 -27 -31 -61 -35 -75
-4 -14 -20 -52 -35 -85 -15 -33 -35 -80 -43 -105 -9 -25 -37 -68 -62 -97 -45
-52 -55 -78 -32 -86 7 -2 -9 -25 -40 -57 -40 -39 -50 -56 -44 -69 12 -23 4
-37 -35 -61 -38 -24 -43 -47 -17 -88 38 -61 89 -106 161 -144 42 -22 84 -47
93 -54 9 -8 40 -17 70 -21 30 -3 74 -16 99 -29 59 -29 296 -48 540 -42 197 4
187 1 342 102 46 29 110 61 143 71 73 20 251 108 285 140 14 12 34 26 45 29
28 9 83 56 66 56 -15 0 -111 95 -111 110 0 5 5 12 10 15 18 11 10 23 -33 48
-65 38 -74 53 -51 78 19 21 19 22 0 33 -64 37 -94 80 -181 253 -49 98 -99 191
-112 206 -13 16 -45 74 -73 130 -28 56 -77 140 -111 187 -90 127 -131 188
-173 257 -35 59 -36 63 -25 107 6 25 13 46 14 46 5 0 109 -51 145 -71 69 -37
70 -35 70 114 0 155 10 197 51 230 24 19 29 29 24 48 -3 14 -15 30 -25 37 -20
12 -50 7 -50 -9 0 -4 -7 -6 -15 -3 -14 6 -14 -4 0 -97 2 -14 -2 -49 -9 -77 -8
-28 -17 -78 -21 -111 -4 -34 -10 -63 -14 -65 -4 -3 -35 13 -69 36 l-61 40 23
36 c37 59 41 91 15 118 -13 14 -41 29 -63 35 -108 28 -143 59 -134 120 2 19
12 26 46 33 39 8 42 11 42 42 0 18 -4 36 -10 39 -5 3 -10 17 -10 31 0 19 -5
24 -25 24 -19 0 -43 17 -83 60 -32 33 -60 60 -63 60 -3 0 -14 -7 -25 -15z"></path>
<path class="node" id="node2" d="M1576 2604 c-4 -9 -4 -19 -1 -22 2 -3 7 3 11 12 4 9 4 19 1 22 -2 3
-7 -3 -11 -12z"></path>
<path class="node" id="node3" d="M1490 2588 c0 -7 4 -19 9 -26 7 -11 10 -10 15 3 3 9 4 21 0 26 -8 13
-24 11 -24 -3z"></path>
<path class="node" id="node4" d="M1478 2526 c-10 -7 -18 -19 -18 -27 1 -11 4 -10 13 3 7 9 21 16 31
15 11 -1 21 4 23 11 6 16 -27 15 -49 -2z"></path>
</g>
<g transform="translate(0.000000,300.000000) scale(0.100000,-0.100000)" fill="#9F9F9F" stroke="none">

</g>
</svg>