<!--?xml version="1.0" standalone="no"?--><svg version="1.0" xmlns="http://www.w3.org/2000/svg" width="245.000000pt" height="300.000000pt" viewBox="0 0 245.000000 300.000000" preserveAspectRatio="xMidYMid meet">
<metadata>
  <rdf:rdf xmlns:rdf="http://www.w3.org/1999/02/22-rdf-syntax-ns#" xmlns:rdfs="http://www.w3.org/2000/01/rdf-schema#" xmlns:dc="http://purl.org/dc/elements/1.1/">
    <rdf:description dc:title="girl silhouette birds flying" dc:publisher="Hiox" dc:date="2015-03-26" dc:format="image/svg+xml" dc:language="en">
      <dc:creator>
        <rdf:bag>
          <rdf:li>svgimages.com</rdf:li>
        </rdf:bag>
      </dc:creator>
    </rdf:description>
  </rdf:rdf>
</metadata>
<g transform="translate(0.000000,300.000000) scale(0.100000,-0.100000)" fill="#0E0E0E" stroke="none">
<path d="M1574 2958 c10 -64 54 -155 78 -161 19 -5 19 -7 4 -29 -32 -45 -9
-62 48 -36 22 9 29 8 46 -7 16 -14 29 -16 69 -11 34 4 64 1 96 -10 26 -8 49
-13 53 -10 12 12 -31 44 -76 56 -97 26 -131 67 -77 92 30 13 28 28 -7 47 -32
19 -58 8 -58 -23 0 -36 -14 -39 -40 -11 -13 14 -29 25 -36 25 -16 0 -57 49
-73 89 -19 46 -35 39 -27 -11z" id="node1" class="node"></path>
<path d="M143 2773 c-21 -8 -15 -41 8 -48 22 -7 53 -70 65 -130 7 -40 -3 -44
-41 -19 -25 17 -55 13 -55 -6 0 -6 13 -19 30 -28 18 -10 30 -25 30 -38 0 -11
3 -24 7 -28 4 -4 8 -17 8 -29 0 -27 31 -35 38 -10 4 14 5 12 6 -5 1 -22 4 -23
41 -18 22 3 58 9 79 12 22 3 42 12 45 20 7 19 -22 64 -41 64 -24 0 35 54 91
84 27 14 55 26 62 26 20 0 28 21 13 31 -26 16 -55 9 -132 -31 l-76 -40 -35 59
c-20 32 -52 71 -72 86 -27 21 -33 30 -23 36 9 6 10 9 2 9 -6 0 -17 2 -25 4 -7
3 -19 2 -25 -1z" id="node2" class="node"></path>
<path d="M1212 2438 c-23 -18 -42 -36 -42 -41 0 -5 -6 -4 -14 2 -12 10 -18 7
-31 -13 -14 -21 -26 -26 -73 -28 -51 -3 -57 -6 -60 -26 -6 -38 17 -89 63 -140
24 -26 45 -59 47 -72 2 -19 8 -24 26 -22 32 5 50 -43 25 -70 -17 -19 -16 -22
20 -88 l38 -69 -20 -36 c-10 -19 -30 -45 -45 -56 -20 -16 -24 -24 -16 -38 16
-31 -8 -41 -100 -41 -47 0 -91 -5 -97 -11 -14 -14 -57 -2 -79 22 -27 30 -36
23 -29 -20 6 -38 6 -39 -39 -57 -53 -22 -64 -50 -16 -40 36 7 39 -1 5 -14 -37
-14 -32 -34 8 -26 25 4 28 3 15 -5 -10 -5 -18 -15 -18 -21 0 -10 16 -8 55 8
18 7 18 6 6 -9 -12 -15 -11 -17 6 -17 11 0 28 9 38 20 26 28 39 25 50 -12 10
-33 10 -33 83 -36 l73 -3 -25 -30 c-33 -39 -48 -97 -40 -151 7 -42 49 -136 69
-150 15 -11 150 -10 180 2 34 13 51 3 32 -18 -12 -14 -28 -100 -40 -207 -1
-12 8 -24 26 -33 31 -15 32 -23 12 -127 -13 -71 -46 -145 -64 -145 -4 0 -12
-10 -18 -23 -15 -32 -101 -77 -135 -70 -16 3 -28 11 -28 18 0 22 41 65 78 83
40 19 53 42 25 43 -15 0 -14 2 5 9 12 5 22 16 22 25 0 28 -32 29 -84 2 -28
-14 -71 -29 -96 -32 -105 -15 -111 -17 -122 -41 -15 -32 -4 -54 29 -54 15 0
35 -5 43 -11 11 -8 5 -9 -25 -4 -55 9 -154 53 -188 84 l-29 26 -21 -27 c-27
-33 -65 -48 -121 -48 -52 0 -61 -8 -39 -32 15 -17 15 -21 0 -54 -33 -68 -16
-86 27 -29 18 23 38 36 61 41 19 3 35 10 35 15 0 20 63 41 106 34 56 -8 138
-62 142 -93 3 -17 16 -29 47 -42 23 -10 46 -23 49 -29 10 -16 36 -13 36 4 0 7
-8 19 -17 24 -33 19 17 12 77 -10 30 -11 68 -21 85 -22 43 -3 45 -32 3 -46
-18 -6 -44 -23 -59 -36 l-26 -25 -11 25 c-8 17 -19 25 -38 25 -23 0 -26 -3
-22 -25 7 -34 -1 -37 -48 -20 -21 8 -52 14 -67 15 -33 0 -99 -28 -92 -40 3 -4
31 -10 62 -12 48 -4 69 -12 123 -49 49 -34 66 -52 70 -75 6 -35 29 -41 60 -16
24 19 24 20 6 47 l-18 27 36 33 c20 18 36 39 36 47 0 26 35 50 63 43 23 -6 25
-4 20 15 -9 34 19 20 30 -14 8 -25 6 -31 -22 -53 -29 -23 -43 -63 -21 -63 6 0
10 4 10 9 0 12 29 41 41 41 16 0 9 -73 -10 -115 -51 -110 -177 -155 -286 -104
-54 25 -75 52 -75 94 0 36 15 55 44 55 14 0 17 3 9 11 -18 18 -60 -1 -73 -32
-18 -41 -5 -93 30 -123 45 -37 93 -49 181 -44 64 4 85 9 116 31 79 56 118 163
94 259 -7 27 -11 51 -8 54 8 8 86 -18 98 -33 13 -15 49 -18 49 -3 0 6 -12 15
-27 21 -16 6 -46 19 -68 29 -22 10 -50 21 -61 24 -12 4 -30 16 -40 28 l-19 21
38 -6 c20 -3 37 -2 37 4 0 5 9 9 20 9 11 0 23 7 26 15 9 22 22 19 61 -15 32
-29 63 -39 63 -22 0 5 -11 14 -25 20 -14 6 -25 16 -25 22 0 11 50 3 97 -16 18
-7 54 -13 80 -14 27 0 62 -2 78 -3 44 -3 46 16 3 26 -64 15 -42 25 58 25 95 1
123 9 109 32 -5 9 -32 10 -94 5 l-86 -7 1 187 1 187 50 18 c29 10 69 36 94 59
40 40 42 44 31 74 -6 18 -16 59 -21 92 -8 42 -19 67 -36 83 -14 12 -25 34 -25
48 0 34 -38 142 -61 175 -10 15 -26 53 -35 85 -35 129 -35 128 -15 144 17 14
41 51 41 64 0 3 -21 27 -47 54 -27 28 -69 72 -94 100 -30 32 -57 52 -79 57
l-34 7 30 15 c67 35 79 61 43 100 -15 15 -19 26 -12 35 13 18 33 90 33 121 0
58 -128 197 -181 197 -9 0 -22 7 -29 15 -7 8 -19 15 -26 15 -8 0 -14 5 -14 10
0 6 -7 10 -15 10 -8 0 -15 -7 -15 -15 0 -22 -17 -18 -23 5 -7 27 -16 25 -65
-12z m75 -904 c2 -6 -30 -15 -79 -23 -46 -7 -89 -14 -96 -17 -8 -2 -12 3 -10
13 6 30 176 55 185 27z m285 -777 c24 -96 27 -121 19 -174 -12 -78 -15 -83
-56 -83 -26 0 -33 3 -29 15 5 11 -1 15 -20 15 -14 0 -26 4 -26 9 0 11 53 51
68 51 13 0 24 28 13 34 -4 3 -31 -7 -59 -21 -41 -20 -52 -31 -52 -50 0 -16 -8
-27 -26 -33 -34 -13 -41 -13 -26 2 7 7 12 32 12 56 0 32 13 72 45 140 25 52
45 105 45 117 0 28 8 35 39 35 25 0 27 -6 53 -113z m-527 -203 c-21 -15 -37
-14 -42 3 -3 7 8 13 24 15 37 5 42 -1 18 -18z m-60 -62 c-7 -8 -35 7 -35 18 0
6 7 6 20 -2 10 -7 17 -14 15 -16z m182 -28 c22 -15 25 -19 11 -22 -9 -2 -31 4
-48 13 -17 9 -50 19 -73 21 -69 9 -57 17 15 11 42 -3 79 -12 95 -23z m209 8
c-7 -11 -119 -14 -146 -3 -19 8 -5 10 63 10 49 1 86 -2 83 -7z m-121 -52 c3
-5 -1 -10 -9 -10 -9 0 -16 5 -16 10 0 6 4 10 9 10 6 0 13 -4 16 -10z" id="node3" class="node" stroke-width="20"></path>
<path d="M2133 2132 c-43 -39 -65 -67 -69 -90 -7 -34 -13 -39 -31 -21 -12 12
-73 -14 -73 -30 0 -19 13 -41 24 -41 15 -1 71 -53 80 -75 5 -14 9 -16 18 -7
18 18 28 15 28 -8 0 -12 7 -20 16 -20 10 0 14 6 10 15 -7 20 53 45 111 45 37
0 44 3 41 18 -2 12 -16 19 -46 23 -23 3 -48 11 -54 17 -18 18 17 82 68 122 24
19 44 39 44 44 0 15 -63 -3 -100 -29 -20 -14 -39 -25 -43 -25 -8 0 23 61 49
98 32 43 -9 24 -73 -36z" id="node4" class="node"></path>
<path d="M430 2100 c-11 -21 -8 -24 32 -34 28 -6 92 -64 121 -109 10 -15 30
-32 44 -38 14 -5 23 -15 20 -22 -6 -16 39 -74 50 -63 4 4 13 22 19 39 8 25 16
31 32 29 12 -2 48 12 79 32 32 19 77 40 101 47 44 13 52 23 26 33 -18 7 -53 0
-107 -20 -37 -14 -97 -19 -97 -8 0 3 7 12 15 21 14 14 14 17 -2 35 -11 12 -27
18 -47 16 -25 -2 -31 -8 -32 -28 -2 -42 -3 -44 -21 -28 -10 9 -28 19 -41 23
-13 4 -49 24 -80 44 -72 48 -99 55 -112 31z" id="node5" class="node"></path>
<path d="M470 1819 c-14 -5 -29 -15 -35 -22 -17 -21 -81 -67 -94 -67 -7 0 -22
-12 -35 -26 -24 -29 -22 -29 -131 8 -38 12 -89 24 -137 31 -35 5 -38 4 -38
-18 0 -18 4 -22 20 -18 12 3 52 -10 97 -33 72 -35 76 -38 48 -42 -67 -8 -53
-42 18 -42 25 0 37 -5 37 -14 0 -20 27 -40 32 -24 4 10 8 10 21 -1 14 -11 20
-11 32 -1 10 8 31 11 61 6 34 -4 46 -2 50 9 10 25 -6 67 -26 72 -17 5 -15 10
21 58 22 29 58 65 79 79 62 41 48 72 -20 45z" id="node6" class="node"></path>
<path d="M1955 1701 c-8 -15 116 -163 146 -175 l28 -10 -21 -29 c-29 -40 -13
-53 47 -38 37 9 54 9 91 -4 24 -8 51 -15 59 -15 8 0 42 -9 76 -21 33 -12 63
-18 66 -15 12 11 -28 44 -75 61 -26 10 -54 23 -62 30 -8 7 -25 16 -37 19 -26
8 -31 26 -8 26 8 0 15 6 15 13 0 22 -34 47 -63 47 -21 0 -27 -5 -27 -22 l0
-23 -18 22 c-9 12 -33 28 -52 37 -19 9 -60 36 -90 61 -58 47 -65 50 -75 36z" id="node7" class="node"></path>
<path d="M690 1465 c0 -8 5 -15 10 -15 6 0 10 7 10 15 0 8 -4 15 -10 15 -5 0
-10 -7 -10 -15z" id="node8" class="node"></path>
<path d="M740 1460 c0 -5 7 -10 15 -10 8 0 15 5 15 10 0 6 -7 10 -15 10 -8 0
-15 -4 -15 -10z" id="node9" class="node"></path>
<path d="M650 1450 c0 -5 5 -10 10 -10 6 0 10 5 10 10 0 6 -4 10 -10 10 -5 0
-10 -4 -10 -10z" id="node10" class="node"></path>
<path d="M850 1344 c0 -17 22 -14 28 4 2 7 -3 12 -12 12 -9 0 -16 -7 -16 -16z" id="node11" class="node"></path>
<path d="M666 1321 c-4 -5 -2 -12 3 -15 5 -4 12 -2 15 3 4 5 2 12 -3 15 -5 4
-12 2 -15 -3z" id="node12" class="node"></path>
<path d="M605 1300 c3 -5 8 -10 11 -10 2 0 4 5 4 10 0 6 -5 10 -11 10 -5 0 -7
-4 -4 -10z" id="node13" class="node"></path>
<path d="M240 1292 c-8 -4 -25 -14 -37 -22 l-22 -14 27 -11 c18 -8 35 -8 54
-1 28 11 108 -7 108 -24 0 -5 16 -25 36 -44 40 -39 40 -66 -1 -84 -33 -15 -32
-38 5 -57 41 -21 49 -19 65 18 20 49 37 60 69 46 21 -10 33 -9 65 6 l40 18 31
-27 c31 -26 83 -35 94 -17 4 5 -22 31 -56 58 -94 73 -114 84 -143 77 -24 -6
-26 -5 -19 22 7 31 7 32 5 52 -3 31 -71 -3 -71 -36 0 -20 -18 -13 -25 9 -4 11
-18 24 -32 30 -28 10 -170 11 -193 1z" id="node14" class="node"></path>
<path d="M730 1280 c0 -5 5 -10 10 -10 6 0 10 5 10 10 0 6 -4 10 -10 10 -5 0
-10 -4 -10 -10z" id="node15" class="node"></path>
<path d="M688 1203 c7 -3 16 -2 19 1 4 3 -2 6 -13 5 -11 0 -14 -3 -6 -6z" id="node16" class="node"></path>
<path d="M770 1200 c0 -5 5 -10 10 -10 6 0 10 5 10 10 0 6 -4 10 -10 10 -5 0
-10 -4 -10 -10z" id="node17" class="node"></path>


</g>
<g transform="translate(0.000000,300.000000) scale(0.100000,-0.100000)" fill="#86E2A6" stroke="none">








</g>
</svg>