<!--?xml version="1.0" standalone="no"?-->

<svg version="1.0" xmlns="http://www.w3.org/2000/svg" width="300.000000pt" height="300.000000pt" viewBox="0 0 300.000000 300.000000" preserveAspectRatio="xMidYMid meet">
<g transform="translate(0.000000,300.000000) scale(0.100000,-0.100000)" fill="#070707" stroke="none">
<path class="node" id="node1" d="M1432 2864 c-70 -34 -202 -143 -202 -167 0 -6 -17 -28 -37 -49 -46
-47 -52 -102 -15 -141 20 -21 21 -28 13 -78 -34 -199 -38 -249 -25 -347 6 -51
5 -55 -38 -120 -25 -37 -60 -90 -77 -119 -18 -28 -39 -57 -47 -63 -7 -7 -14
-28 -14 -46 0 -27 6 -36 30 -49 16 -8 35 -15 43 -15 7 0 23 -10 36 -21 20 -19
22 -27 16 -79 -6 -51 -4 -61 14 -79 15 -15 19 -28 14 -54 -5 -32 -2 -36 33
-53 37 -18 39 -21 49 -89 13 -84 16 -90 65 -115 52 -26 138 -26 208 0 69 27
116 26 142 -2 11 -12 20 -28 20 -35 0 -8 16 -53 36 -101 20 -48 41 -103 46
-122 6 -19 18 -44 28 -55 10 -11 29 -40 42 -65 20 -40 23 -58 23 -165 -1 -109
-3 -126 -29 -185 -40 -92 -89 -163 -176 -254 l-75 -78 45 23 c132 67 246 158
313 249 38 52 75 177 89 301 11 101 10 116 -10 207 -17 79 -40 135 -121 297
-251 506 -322 659 -360 786 -23 75 -58 279 -67 394 -9 115 16 322 56 463 10
34 15 62 11 62 -3 -1 -39 -17 -79 -36z"></path>
</g>
<g transform="translate(0.000000,300.000000) scale(0.100000,-0.100000)" fill="#A1A1A1" stroke="none">

</g>
</svg>