<!--?xml version="1.0" standalone="no"?--><svg version="1.0" xmlns="http://www.w3.org/2000/svg" width="226.000000pt" height="300.000000pt" viewBox="0 0 226.000000 300.000000" preserveAspectRatio="xMidYMid meet">
<metadata>
  <rdf:rdf xmlns:rdf="http://www.w3.org/1999/02/22-rdf-syntax-ns#" xmlns:rdfs="http://www.w3.org/2000/01/rdf-schema#" xmlns:dc="http://purl.org/dc/elements/1.1/">
    <rdf:description dc:title="girl jogging" dc:publisher="Hiox" dc:date="2015-03-26" dc:format="image/svg+xml" dc:language="en">
      <dc:creator>
        <rdf:bag>
          <rdf:li>svgimages.com</rdf:li>
        </rdf:bag>
      </dc:creator>
    </rdf:description>
  </rdf:rdf>
</metadata>
<g transform="translate(0.000000,300.000000) scale(0.100000,-0.100000)" fill="#080808" stroke="none">
<path d="M1135 2983 c-22 -9 -58 -29 -79 -45 -22 -15 -48 -28 -59 -28 -10 0
-15 -4 -12 -10 3 -5 -1 -20 -9 -32 -18 -26 -20 -65 -6 -103 9 -23 13 -25 26
-14 13 10 17 10 25 -2 17 -27 22 -60 10 -85 -9 -19 -8 -26 3 -30 7 -3 31 -30
52 -60 32 -48 41 -55 63 -51 64 13 63 13 78 -28 17 -50 7 -78 -39 -101 -18 -9
-50 -30 -71 -47 -83 -65 -222 -147 -249 -147 -23 0 -28 20 -35 150 -7 134 -3
156 33 200 24 28 26 37 21 87 -3 31 -10 60 -14 64 -5 5 -31 1 -58 -9 l-50 -18
-9 -119 c-11 -155 -13 -442 -3 -477 6 -23 13 -28 38 -28 24 0 156 48 266 96
28 13 37 -42 44 -261 4 -121 10 -229 14 -241 7 -23 -34 -53 -225 -162 -310
-176 -296 -164 -315 -273 -26 -151 -202 -643 -239 -666 -6 -4 -26 -8 -43 -10
-24 -1 -36 4 -43 18 -11 19 -50 27 -50 9 0 -5 9 -15 20 -22 23 -14 28 -43 6
-35 -22 9 -28 -5 -9 -18 15 -11 9 -17 -45 -44 -34 -17 -76 -31 -94 -31 -71 0
-101 -55 -55 -98 27 -26 124 -62 164 -62 16 0 46 7 68 14 28 10 64 13 121 9
99 -7 154 8 154 40 -1 12 -7 49 -15 82 -18 73 -19 125 -3 162 7 15 52 92 100
170 109 175 126 213 144 321 9 54 20 93 31 104 16 16 103 47 327 118 39 13 72
18 77 13 5 -5 33 -62 62 -128 49 -110 153 -317 188 -373 8 -13 34 -34 59 -47
25 -13 135 -106 245 -207 270 -248 260 -237 246 -261 -11 -16 -9 -23 9 -42
l21 -23 -22 -16 c-27 -19 -19 -32 10 -16 12 6 22 8 22 5 1 -3 3 -9 4 -15 1 -5
3 -16 4 -22 1 -7 10 -3 19 10 l19 24 29 -31 c16 -17 40 -55 54 -83 17 -35 32
-54 45 -56 48 -7 74 142 38 211 -11 21 -19 69 -23 140 -5 83 -11 112 -25 127
-23 26 -34 25 -98 -6 -71 -35 -92 -29 -141 43 -97 142 -170 221 -257 282 -65
45 -111 108 -138 186 -16 47 -91 352 -91 370 0 3 15 20 34 39 63 62 58 136
-24 411 -47 157 -50 125 37 389 l56 168 37 -6 c36 -6 156 -42 238 -72 l42 -16
0 -75 c0 -80 -27 -261 -41 -279 -5 -6 -26 -16 -46 -22 -28 -9 -44 -22 -61 -52
-22 -39 -22 -41 -5 -70 19 -32 33 -39 33 -16 0 11 15 16 51 18 40 2 54 8 63
23 5 11 18 32 28 47 17 25 83 260 109 385 17 82 4 100 -103 151 -46 22 -145
70 -221 106 -76 36 -158 71 -183 77 -41 11 -47 9 -83 -14 -33 -22 -41 -24 -51
-12 -21 25 -23 83 -5 137 10 29 21 87 24 128 l6 75 39 3 c36 3 42 -1 120 -82
46 -48 97 -92 118 -100 53 -23 57 -20 18 13 -42 35 -36 47 13 26 60 -25 106
-19 195 25 82 41 118 48 153 30 30 -16 23 5 -11 33 -16 14 -52 30 -80 36 -47
10 -67 9 -177 -15 -31 -6 -29 14 1 28 14 6 28 18 31 26 5 14 4 14 -12 0 -45
-41 -107 -31 -220 38 -80 48 -158 44 -203 -11 -12 -14 -16 -13 -44 13 -65 62
-132 76 -211 45z" id="node1" class="node" stroke-width="20"></path>
</g>
<g transform="translate(0.000000,300.000000) scale(0.100000,-0.100000)" fill="#A1A1A1" stroke="none">




</g>
</svg>