<!--?xml version="1.0" standalone="no"?--><svg version="1.0" xmlns="http://www.w3.org/2000/svg" width="252.000000pt" height="300.000000pt" viewBox="0 0 252.000000 300.000000" preserveAspectRatio="xMidYMid meet">
<metadata>
  <rdf:rdf xmlns:rdf="http://www.w3.org/1999/02/22-rdf-syntax-ns#" xmlns:rdfs="http://www.w3.org/2000/01/rdf-schema#" xmlns:dc="http://purl.org/dc/elements/1.1/">
    <rdf:description dc:title="Girls face with pony tail" dc:publisher="Hiox" dc:date="2015-11-28" dc:format="image/svg+xml" dc:language="en">
      <dc:creator>
        <rdf:bag>
          <rdf:li>svgimages.com</rdf:li>
        </rdf:bag>
      </dc:creator>
    </rdf:description>
  </rdf:rdf>
</metadata>
<g transform="translate(0.000000,300.000000) scale(0.100000,-0.100000)" fill="#020202" stroke="none">
<path class="node" id="node1" d="M871 2895 c-105 -24 -246 -100 -317 -170 -35 -34 -66 -73 -69 -86 -5
-19 -16 -27 -54 -36 -75 -18 -138 -52 -198 -107 -111 -101 -122 -202 -30 -286
30 -27 35 -37 30 -64 -3 -20 5 -63 21 -115 14 -45 26 -84 26 -87 0 -2 -17 -4
-37 -5 l-38 0 37 -17 38 -17 -20 -33 c-11 -18 -35 -41 -52 -50 -53 -29 -92
-67 -85 -85 3 -9 25 -30 49 -46 68 -48 69 -50 58 -71 -5 -10 -19 -22 -30 -25
-11 -3 -20 -13 -20 -21 0 -17 38 -58 61 -66 12 -4 11 -11 -5 -41 -17 -31 -18
-38 -5 -53 8 -9 29 -23 47 -31 33 -14 34 -16 32 -66 -2 -29 -2 -60 -1 -70 1
-24 58 -47 114 -47 41 0 189 34 289 66 26 9 57 12 69 9 29 -10 74 -84 106
-179 26 -75 28 -93 28 -236 0 -140 -3 -165 -28 -255 -45 -157 -136 -318 -248
-440 -22 -24 -36 -46 -31 -49 6 -3 53 -11 106 -18 207 -26 313 19 521 221 167
162 250 210 379 220 l80 6 -43 28 c-243 161 -388 512 -327 797 24 111 61 162
208 288 146 125 205 218 234 370 28 147 11 361 -37 454 l-19 38 22 0 c36 -1
100 -34 135 -72 48 -50 83 -144 83 -222 0 -76 -18 -132 -95 -291 -79 -164
-103 -225 -115 -296 -42 -239 149 -443 375 -399 75 14 129 45 184 105 34 37
81 119 81 142 0 3 -14 -7 -31 -21 -38 -33 -67 -40 -131 -34 -43 5 -57 11 -85
42 -61 66 -48 114 91 340 85 137 132 243 156 354 25 110 25 136 0 252 -45 212
-159 368 -327 447 -54 26 -67 28 -188 28 -120 0 -134 -2 -185 -26 -30 -15 -79
-45 -107 -68 l-53 -41 -78 45 c-135 79 -205 98 -367 101 -96 2 -160 -1 -204
-11z"></path>
</g>
<g transform="translate(0.000000,300.000000) scale(0.100000,-0.100000)" fill="#A1A1A1" stroke="none">

</g>
</svg>