<!--?xml version="1.0" standalone="no"?-->

<svg xmlns="http://www.w3.org/2000/svg" width="300.000000pt" height="300.000000pt" viewBox="0 0 300.000000 300.000000" preserveAspectRatio="xMidYMid meet">
<g transform="translate(0.000000,300.000000) scale(0.100000,-0.100000)" fill="#0C0C0C" stroke="none">
<path style="position: relative;" class="node" id="node1" d="M1420 2886 c-5 -15 -10 -32 -10 -37 0 -6 -19 -44 -41 -85 -52 -94
-52 -94 119 -283 l72 -81 0 -72 c0 -81 -6 -80 -39 7 -35 91 -43 106 -71 119
-38 20 -98 26 -128 15 -37 -14 -82 -59 -82 -81 0 -24 -38 -98 -50 -98 -5 0
-12 12 -16 28 -3 15 -10 42 -16 61 -13 43 -3 131 28 237 13 46 24 93 24 103 0
10 -19 47 -42 82 -24 35 -46 73 -49 84 -7 19 -7 18 -8 -2 -1 -25 -11 -29 -29
-11 -6 6 -15 9 -19 5 -4 -4 -1 -13 5 -19 7 -7 12 -23 12 -36 0 -13 16 -42 35
-65 19 -22 35 -44 35 -49 0 -5 -11 -30 -24 -56 -45 -90 -69 -186 -63 -249 15
-142 68 -324 107 -368 34 -38 63 -113 56 -148 -10 -47 13 -127 36 -127 19 0
24 -15 9 -24 -5 -4 -11 0 -14 6 -2 7 -8 10 -12 5 -5 -4 -3 -13 3 -19 21 -21
13 -41 -33 -98 -25 -30 -54 -73 -65 -95 -12 -22 -29 -56 -39 -75 -10 -19 -28
-56 -39 -82 -18 -39 -27 -48 -47 -48 -14 0 -25 -4 -25 -9 0 -5 -3 -16 -6 -25
-4 -11 0 -16 14 -16 16 0 20 -9 25 -46 6 -57 20 -73 47 -56 24 15 26 11 34
-63 5 -44 3 -72 -9 -105 -8 -24 -13 -56 -10 -71 4 -19 -4 -49 -25 -96 -51
-112 -64 -134 -77 -129 -7 3 -10 -1 -6 -10 3 -8 -5 -26 -17 -39 -18 -19 -21
-31 -16 -57 19 -102 19 -107 -3 -143 -42 -72 -13 -122 60 -106 45 10 66 -1 74
-38 5 -25 13 -31 52 -39 34 -8 53 -7 79 4 46 19 59 18 74 -10 10 -20 18 -23
45 -19 31 5 32 4 39 -37 6 -36 3 -47 -19 -75 -33 -45 -33 -83 1 -91 31 -8 70
25 79 67 8 35 19 44 79 64 31 11 62 15 85 10 100 -17 125 -17 147 4 12 11 24
26 26 33 3 7 17 12 36 10 34 -2 96 43 107 79 11 34 35 20 60 -33 14 -29 36
-71 50 -93 13 -22 34 -57 45 -78 24 -43 33 -45 54 -15 30 42 19 77 -46 158
-30 37 -35 44 -55 76 -23 35 -39 78 -52 136 -7 32 -17 60 -22 63 -5 4 -9 14
-9 23 0 9 -9 28 -20 42 -27 35 -27 54 0 38 26 -16 60 -86 60 -122 0 -34 15
-62 39 -76 15 -8 22 -5 36 16 16 25 16 30 0 83 -10 31 -24 63 -31 71 -7 9 -21
34 -30 55 -9 22 -28 55 -43 73 -46 58 -155 169 -173 175 -10 4 -18 12 -18 20
0 7 -11 24 -24 36 -29 28 -41 68 -25 87 8 10 6 20 -10 43 -12 16 -21 35 -21
43 0 8 -4 18 -9 24 -5 5 -16 36 -26 69 -10 33 -27 67 -37 75 -17 14 -78 192
-78 227 0 7 15 46 34 86 19 40 38 86 42 102 4 17 10 35 14 40 15 21 22 63 25
146 2 48 8 96 14 107 13 25 15 163 2 212 -5 19 -14 69 -21 110 -6 41 -14 86
-16 99 -3 14 -54 72 -115 133 -60 60 -109 114 -109 120 0 18 62 68 83 68 10 0
16 4 13 8 -3 5 -19 7 -36 4 -35 -5 -37 3 -13 66 15 40 15 44 0 59 -15 15 -17
14 -27 -11z"></path>
</g>
<g transform="translate(0.000000,300.000000) scale(0.100000,-0.100000)" fill="#A0A0A0" stroke="none">

</g>
</svg>