<!--?xml version="1.0" standalone="no"?--><svg version="1.0" xmlns="http://www.w3.org/2000/svg" width="265.000000pt" height="300.000000pt" viewBox="0 0 265.000000 300.000000" preserveAspectRatio="xMidYMid meet">
<metadata>
  <rdf:rdf xmlns:rdf="http://www.w3.org/1999/02/22-rdf-syntax-ns#" xmlns:rdfs="http://www.w3.org/2000/01/rdf-schema#" xmlns:dc="http://purl.org/dc/elements/1.1/">
    <rdf:description dc:title="girl work in computer silhouette" dc:publisher="Hiox" dc:date="2015-03-26" dc:format="image/svg+xml" dc:language="en">
      <dc:creator>
        <rdf:bag>
          <rdf:li>svgimages.com</rdf:li>
        </rdf:bag>
      </dc:creator>
    </rdf:description>
  </rdf:rdf>
</metadata>
<g transform="translate(0.000000,300.000000) scale(0.100000,-0.100000)" fill="#070707" stroke="none">
<path d="M2030 2883 c-8 -3 -27 -16 -41 -30 l-26 -24 -25 21 c-35 27 -48 25
-48 -6 0 -21 -4 -25 -17 -19 -10 4 -60 9 -111 12 l-94 4 -44 -48 c-48 -51 -92
-132 -95 -173 -4 -63 1 -80 21 -80 12 0 20 7 21 18 0 10 3 12 6 5 7 -19 23
-16 24 5 0 9 7 0 16 -21 12 -30 13 -44 4 -63 -17 -38 -13 -54 14 -64 14 -5 25
-17 26 -27 1 -30 33 -77 69 -101 28 -19 42 -22 74 -16 34 5 38 4 33 -11 -4 -9
-7 -24 -7 -34 0 -10 -14 -22 -37 -30 -22 -8 -71 -49 -127 -106 l-91 -92 -120
-8 c-66 -3 -129 -12 -140 -18 -11 -6 -68 -13 -127 -15 -61 -3 -105 -8 -102
-14 5 -8 -23 -5 -62 7 -17 5 -104 -16 -104 -25 0 -4 -20 -27 -45 -51 -28 -27
-45 -52 -45 -66 0 -29 4 -29 44 2 37 28 48 31 40 12 -3 -8 4 -35 16 -61 15
-35 25 -46 37 -44 10 2 17 10 16 16 -2 7 2 12 7 12 6 0 10 -4 10 -10 0 -5 9
-10 21 -10 16 0 19 4 14 23 -8 24 -8 24 -6 50 1 22 59 24 67 2 5 -11 21 -15
60 -15 30 0 54 -4 54 -10 0 -5 -10 -10 -22 -10 -34 0 -91 -38 -84 -56 4 -11
-15 -24 -72 -50 -67 -30 -170 -103 -180 -126 -2 -5 -12 -8 -22 -8 -28 0 -43
-27 -42 -75 l2 -44 -56 42 -57 42 41 3 c22 2 45 9 51 16 30 36 31 479 1 641
-23 122 -8 109 -117 102 -93 -6 -136 -22 -130 -49 1 -5 -59 -32 -133 -60 -133
-50 -170 -70 -170 -93 0 -6 -13 -21 -29 -32 -20 -15 -30 -33 -33 -60 -6 -45
15 -264 30 -311 9 -28 7 -40 -14 -80 -20 -37 -25 -60 -23 -107 1 -48 -4 -70
-25 -109 -14 -27 -26 -62 -26 -78 0 -35 25 -98 39 -98 17 0 13 -30 -11 -79
-17 -36 -22 -64 -23 -126 0 -98 8 -130 42 -161 l26 -24 3 -223 c4 -239 7 -288
18 -306 4 -6 32 -11 66 -11 53 0 59 -2 62 -22 2 -19 9 -23 38 -23 28 0 35 4
40 24 l6 25 154 -2 c113 -1 156 1 162 11 4 6 8 176 8 377 0 275 -3 371 -13
390 l-13 25 -155 0 -156 0 -1 64 c-2 60 0 66 40 121 l43 57 80 7 c44 3 168 6
277 6 l196 0 21 -32 c11 -18 25 -40 30 -48 48 -75 55 -163 16 -225 -30 -48
-31 -89 -6 -148 17 -39 18 -63 14 -208 -2 -90 -8 -226 -13 -301 -4 -76 -5
-150 -1 -165 9 -36 36 -41 72 -14 15 12 43 21 62 21 64 0 152 22 176 43 l24
22 -7 -34 c-4 -25 -2 -39 10 -53 37 -40 68 -9 90 88 24 110 60 289 84 414 12
63 29 139 38 168 l16 52 197 0 c206 0 243 -6 254 -39 7 -22 35 -175 65 -346
10 -60 23 -132 29 -160 5 -27 12 -71 16 -96 7 -58 34 -86 64 -69 17 8 21 20
21 58 0 49 -16 172 -26 207 -5 15 -1 13 15 -8 13 -15 28 -27 35 -27 7 0 13 -7
13 -15 0 -9 -6 -14 -13 -11 -15 6 -17 -75 -4 -108 15 -34 38 -58 50 -51 7 4 3
15 -11 33 -12 16 -16 28 -10 30 15 5 14 35 -1 50 -8 8 -8 12 -1 12 7 0 11 30
11 82 1 77 -1 85 -24 105 -29 24 -50 21 -60 -9 -9 -29 -24 -4 -24 39 0 18 -12
92 -26 164 -22 111 -24 135 -13 155 9 18 10 30 1 49 -13 28 -16 63 -5 52 13
-13 33 55 33 112 0 31 7 83 16 116 8 33 24 98 35 145 22 97 38 140 50 140 4 0
13 17 19 38 14 44 60 323 67 402 4 51 3 57 -20 69 -18 9 -33 11 -54 4 -24 -8
-30 -18 -40 -64 -7 -30 -24 -106 -39 -169 -14 -63 -29 -131 -33 -150 -4 -19
-8 52 -8 160 0 208 -1 212 -56 300 -16 25 -46 73 -67 106 -23 38 -49 66 -68
75 -39 17 -50 61 -25 97 10 14 23 33 29 44 6 10 20 29 31 41 43 49 53 75 53
144 0 48 -5 76 -17 93 -16 24 -16 25 3 8 10 -9 36 -19 57 -23 28 -5 42 -15 53
-36 21 -42 37 -37 30 9 -3 20 -3 31 0 24 3 -6 9 -10 13 -7 5 2 6 -7 3 -20 -2
-15 0 -25 7 -25 6 0 11 5 11 11 0 5 5 7 11 3 8 -4 9 1 5 17 -3 13 3 4 14 -19
20 -44 35 -49 54 -19 8 12 7 26 -3 49 -7 18 -14 48 -15 66 -1 21 -12 43 -31
62 -17 17 -40 41 -52 53 -34 36 -185 61 -243 40z m-320 -1130 c4 -70 32 -217
46 -239 13 -22 19 -53 15 -89 -1 -17 -3 -18 -12 -5 -8 11 -12 12 -16 3 -2 -7
-14 -13 -26 -13 -12 0 -92 -34 -177 -76 -226 -111 -245 -122 -244 -138 1 -9
-18 -32 -43 -52 l-44 -36 3 99 3 98 35 5 c23 3 36 11 38 23 7 34 -8 68 -33 77
-18 7 -25 17 -25 35 0 15 -6 25 -14 25 -7 0 -19 7 -26 15 -14 17 -50 20 -50 5
0 -15 -26 -12 -40 5 -7 9 -19 14 -27 11 -19 -8 -16 25 5 50 26 32 70 57 88 50
9 -4 22 -2 28 3 6 6 50 15 96 20 99 13 201 41 285 80 92 43 135 57 135 44z
m-1460 -233 c0 -4 -15 -27 -32 -51 l-33 -44 -3 49 c-2 27 -1 60 3 73 l5 23 30
-22 c17 -12 30 -25 30 -28z m1980 -80 c-13 -44 -25 -79 -27 -77 -2 2 -6 23 -9
46 -5 34 -2 47 14 64 10 12 22 31 26 41 3 10 9 16 13 13 3 -4 -4 -43 -17 -87z
m-1840 53 c0 -20 -73 -91 -98 -96 -34 -7 -41 -20 -35 -64 4 -27 10 -33 29 -33
l24 0 0 -124 0 -123 -31 -7 c-32 -6 -79 -8 -79 -3 0 1 4 17 10 36 7 24 6 42
-5 67 -13 31 -12 38 6 80 23 50 21 88 -8 145 -16 32 -16 33 9 53 14 12 33 35
42 51 17 29 20 30 77 27 32 -2 59 -6 59 -9z m-206 -145 c21 -40 20 -86 -1
-128 l-16 -33 -19 22 c-23 29 -24 91 -2 137 9 19 18 34 19 34 2 0 11 -14 19
-32z m934 -64 l3 -29 -20 25 c-20 25 -19 44 2 37 7 -2 13 -17 15 -33z m-698
12 c0 -2 -7 -9 -15 -16 -12 -10 -15 -10 -15 4 0 9 7 16 15 16 8 0 15 -2 15 -4z
m-264 -271 c-14 -24 -27 -54 -27 -67 -1 -17 -2 -18 -6 -5 -6 23 12 108 34 155
l17 37 4 -38 c2 -27 -4 -50 -22 -82z m24 -86 c0 -72 -13 -86 -24 -26 -5 29 9
97 20 97 2 0 4 -32 4 -71z m1350 -37 c34 -5 44 -16 32 -39 -6 -11 -18 -57 -26
-104 -30 -156 -64 -321 -69 -325 -3 -3 -8 17 -12 43 -3 26 -15 86 -25 133 -11
47 -22 101 -25 120 -3 20 -21 59 -40 89 -41 62 -43 71 -11 71 13 0 47 13 77
29 l53 28 11 -21 c6 -11 22 -23 35 -24z m-234 -434 c11 -31 10 -36 -1 -32 -17
7 -29 -14 -17 -29 26 -31 -16 -83 -92 -116 -10 -4 -1 267 10 333 l7 39 40 -79
c22 -43 45 -95 53 -116z m1034 26 c0 -21 -4 -33 -10 -29 -5 3 -10 13 -10 21 0
9 -5 12 -11 8 -8 -4 -8 0 0 15 17 32 31 25 31 -15z" id="node1" class="node" stroke-width="20"></path>
</g>
<g transform="translate(0.000000,300.000000) scale(0.100000,-0.100000)" fill="#FFFFFF" stroke="none">













</g>
</svg>