<!--?xml version="1.0" standalone="no"?--><svg version="1.0" xmlns="http://www.w3.org/2000/svg" width="233.000000pt" height="300.000000pt" viewBox="0 0 233.000000 300.000000" preserveAspectRatio="xMidYMid meet">
<metadata>
  <rdf:rdf xmlns:rdf="http://www.w3.org/1999/02/22-rdf-syntax-ns#" xmlns:rdfs="http://www.w3.org/2000/01/rdf-schema#" xmlns:dc="http://purl.org/dc/elements/1.1/">
    <rdf:description dc:title="silhouette girl with apple vector" dc:publisher="Hiox" dc:date="2015-05-04" dc:format="image/svg+xml" dc:language="en">
      <dc:creator>
        <rdf:bag>
          <rdf:li>svgimages.com</rdf:li>
        </rdf:bag>
      </dc:creator>
    </rdf:description>
  </rdf:rdf>
</metadata>
<g transform="translate(0.000000,300.000000) scale(0.100000,-0.100000)" fill="#0A0A0A" stroke="none">
<path d="M425 2671 c-54 -24 -99 -78 -120 -142 -16 -47 -16 -61 -5 -134 18
-113 10 -208 -18 -238 -14 -15 -20 -30 -16 -41 4 -10 -4 -32 -20 -57 -33 -50
-30 -68 7 -39 15 12 27 17 27 11 0 -5 -4 -13 -10 -16 -5 -3 -15 -16 -21 -28
-11 -21 -10 -21 15 2 27 25 44 24 29 -2 -4 -9 -24 -33 -43 -54 -50 -53 -60
-75 -17 -34 36 34 37 34 53 15 8 -10 13 -14 10 -9 -2 6 4 17 16 24 11 7 17 8
14 2 -4 -5 -2 -12 3 -15 5 -3 16 12 25 34 9 22 21 40 28 40 23 0 41 -17 33
-31 -4 -8 9 3 28 23 80 84 80 221 0 412 -32 78 -26 131 21 181 26 27 41 35 67
35 46 0 79 -19 99 -55 16 -29 16 -31 -6 -58 -77 -93 -45 -273 57 -316 29 -12
39 -22 39 -39 0 -44 -28 -70 -87 -82 -86 -18 -119 -36 -160 -87 -21 -26 -59
-67 -84 -92 -26 -25 -85 -84 -132 -130 -169 -165 -157 -201 108 -315 119 -51
195 -92 195 -105 0 -5 -13 -25 -30 -46 -35 -44 -35 -42 -13 -118 16 -57 16
-60 -7 -123 -41 -117 -10 -225 83 -287 29 -18 116 -76 193 -128 l142 -94 -37
-8 c-20 -5 -89 -22 -155 -38 -65 -16 -144 -29 -176 -29 l-58 0 -26 45 c-22 37
-32 45 -56 45 -17 0 -30 -4 -30 -10 0 -5 -5 -10 -11 -10 -13 0 -48 -41 -49
-57 0 -7 -30 -26 -67 -44 -38 -18 -81 -43 -96 -55 -16 -13 -37 -24 -47 -24 -9
0 -23 -6 -29 -14 -9 -11 -5 -15 20 -18 17 -3 50 -1 73 3 22 5 82 8 132 9 50 0
116 5 145 10 54 11 347 1 645 -20 135 -10 192 -3 225 26 21 19 62 17 137 -6
68 -21 216 -28 227 -10 3 5 -16 19 -42 31 -108 48 -139 66 -190 112 -52 48
-53 50 -53 107 0 61 50 272 100 422 25 74 46 161 67 278 6 31 -32 90 -69 108
-23 11 -40 8 -140 -27 -129 -44 -251 -92 -258 -101 -3 -3 -25 -12 -49 -20 -24
-8 -45 -20 -48 -27 -3 -7 -10 -10 -16 -6 -5 3 -16 -2 -24 -12 -12 -17 -13 -15
-13 18 0 23 19 74 54 145 36 74 56 129 61 167 5 46 12 62 38 85 28 25 32 35
32 78 0 41 -6 59 -32 96 -39 55 -40 61 -10 42 48 -31 360 -101 387 -86 8 4 48
43 89 87 40 43 84 90 98 104 14 15 23 32 19 38 -4 6 0 11 9 11 8 0 37 23 64
50 46 48 51 50 101 50 82 0 161 58 160 118 -1 16 -2 16 -14 -1 -12 -15 -14
-11 -18 38 -6 76 -28 99 -88 92 l-45 -5 33 28 c22 18 35 39 39 64 l6 36 -47
-26 c-55 -31 -71 -55 -56 -84 9 -17 8 -20 -13 -20 -38 0 -71 -43 -69 -90 1
-22 9 -51 17 -63 14 -22 12 -25 -38 -74 -28 -28 -83 -72 -122 -98 -38 -26 -89
-66 -112 -88 -40 -38 -44 -40 -75 -30 -89 30 -336 138 -366 161 -27 20 -49 27
-98 30 -60 4 -64 6 -58 26 10 34 21 40 74 37 l50 -2 2 33 c0 18 2 47 3 65 0
17 6 38 13 46 10 11 8 18 -8 32 -11 10 -22 34 -25 54 -4 20 -8 47 -11 60 -4
18 -2 22 10 18 10 -4 16 -1 16 9 0 8 -7 17 -15 20 -10 4 -13 13 -10 24 3 11 0
20 -10 24 -8 3 -15 11 -15 18 0 20 -98 61 -156 66 -38 3 -61 -1 -91 -16 l-40
-21 -54 55 c-74 75 -136 91 -214 55z m172 -971 c70 -167 86 -221 79 -274 -6
-57 -21 -78 -31 -46 -4 11 -17 25 -29 29 -12 5 -69 40 -128 78 -59 38 -129 80
-157 93 l-49 24 117 78 c65 42 124 84 131 93 7 9 17 14 22 13 5 -2 25 -41 45
-88z m743 -609 c0 -6 -4 -12 -9 -15 -20 -13 -33 -136 -29 -297 2 -117 0 -171
-8 -179 -9 -9 -34 9 -100 72 -49 45 -113 104 -142 130 -28 25 -52 50 -52 55 1
4 31 27 68 51 37 23 110 76 162 117 95 74 110 83 110 66z m-959 -614 c-10 -9
-11 -8 -5 6 3 10 9 15 12 12 3 -3 0 -11 -7 -18z" id="node1" class="node"></path>
</g>
<g transform="translate(0.000000,300.000000) scale(0.100000,-0.100000)" fill="#ABC54F" stroke="none">



<path d="M376 483 c-6 -14 -5 -15 5 -6 7 7 10 15 7 18 -3 3 -9 -2 -12 -12z" id="node5" class="node"></path>
</g>
</svg>