<!--?xml version="1.0" standalone="no"?-->

<svg xmlns="http://www.w3.org/2000/svg" width="256.000000pt" height="300.000000pt" viewBox="0 0 256.000000 300.000000" preserveAspectRatio="xMidYMid meet">
<g transform="translate(0.000000,300.000000) scale(0.100000,-0.100000)" fill="#2D2B2C" stroke="none">
<path style="position: relative;" class="node" id="node1" d="M972 2751 c-51 -29 -130 -108 -154 -154 -48 -93 -18 -201 84 -307 32
-33 180 -153 300 -243 71 -53 157 -132 191 -177 53 -68 87 -175 87 -269 0
-127 -28 -196 -170 -411 -52 -80 -100 -154 -106 -165 -6 -11 -29 -54 -52 -95
-69 -126 -92 -212 -92 -343 0 -160 22 -218 116 -308 69 -65 149 -108 167 -90
9 10 5 18 -18 37 -90 72 -116 118 -141 246 -16 85 -16 89 5 174 30 120 130
301 216 394 13 14 52 68 87 120 124 184 175 362 149 518 -12 72 -17 88 -47
157 -7 17 -17 41 -23 55 -34 87 -168 204 -376 327 -196 117 -258 164 -307 231
-32 44 -36 94 -10 149 20 44 32 60 90 119 56 58 57 64 4 35z"></path>
<path style="position: relative;" class="node" id="node2" d="M1215 2449 c-8 -21 46 -123 88 -167 43 -45 108 -86 252 -157 66 -32
122 -61 125 -65 3 -3 24 -20 48 -37 62 -45 88 -81 131 -186 18 -44 24 -165 13
-234 -15 -89 -86 -236 -154 -318 -138 -167 -187 -235 -213 -290 -57 -125 -60
-138 -60 -225 0 -72 4 -92 26 -134 14 -28 36 -56 48 -64 19 -13 21 -13 21 7 0
12 -11 43 -24 69 -14 26 -28 64 -31 84 -8 42 10 130 33 168 29 47 117 145 256
285 76 77 150 157 165 179 55 81 70 109 109 196 20 45 22 218 3 275 -41 125
-123 232 -209 276 -15 7 -38 21 -52 29 -14 9 -41 22 -60 30 -19 7 -48 19 -65
26 -16 7 -59 22 -95 34 -141 48 -310 142 -310 173 0 6 -9 23 -20 37 -16 21
-20 22 -25 9z"></path>
<path style="position: relative;" class="node" id="node3" d="M962 1961 c-109 -27 -142 -47 -142 -85 0 -14 5 -17 23 -13 19 4 110
40 172 67 11 5 34 11 50 14 76 13 95 19 95 27 0 15 -121 9 -198 -10z"></path>
<path style="position: relative;" class="node" id="node4" d="M500 1960 c-11 -7 -5 -16 28 -46 23 -20 42 -40 42 -44 0 -4 -14 -10
-31 -14 -22 -4 -30 -11 -27 -23 4 -19 47 -23 80 -9 13 6 20 2 27 -16 5 -13 16
-30 25 -37 25 -21 19 -30 -18 -24 -36 6 -59 -12 -35 -28 13 -9 28 -7 97 8 16
4 22 1 23 -13 0 -17 2 -16 11 3 15 32 2 68 -34 95 -17 13 -54 46 -83 73 -83
81 -89 85 -105 75z"></path>
<path style="position: relative;" class="node" id="node5" d="M972 1865 c-37 -18 -49 -39 -33 -59 7 -8 9 -25 5 -40 -5 -23 -3 -26
18 -26 13 0 29 -5 35 -11 6 -6 37 -13 69 -16 57 -5 60 -4 94 31 19 20 42 36
50 36 21 0 60 28 60 43 0 38 -235 70 -298 42z m63 -67 c8 -27 16 -34 41 -36
19 -2 36 3 44 12 7 9 17 16 23 16 6 0 0 -11 -13 -25 -27 -28 -71 -33 -90 -10
-7 8 -25 15 -41 15 -33 0 -37 15 -12 42 24 26 38 22 48 -14z"></path>
<path style="position: relative;" class="node" id="node6" d="M929 1399 c-25 -26 -29 -27 -58 -16 -16 6 -33 8 -37 5 -12 -13 7 -26
46 -33 51 -9 90 13 90 50 0 31 -8 30 -41 -6z"></path>
<path style="position: relative;" class="node" id="node7" d="M872 1207 c-18 -12 -32 -25 -32 -29 0 -15 76 -21 125 -9 27 7 76 15
108 18 46 4 57 8 55 20 -2 13 -23 17 -114 19 -101 2 -114 1 -142 -19z"></path>


</g>
<g transform="translate(0.000000,300.000000) scale(0.100000,-0.100000)" fill="#FFFFFF" stroke="none">

<path style="position: relative;" class="node" id="node11" d="M987 1812 c-25 -27 -21 -42 12 -42 16 0 34 -7 41 -15 19 -23 63 -18
90 10 13 14 19 25 13 25 -6 0 -16 -7 -23 -16 -8 -9 -25 -14 -44 -12 -25 2 -33
9 -41 36 -10 36 -24 40 -48 14z"></path>
</g>
</svg>