<!--?xml version="1.0" standalone="no"?--><svg version="1.0" xmlns="http://www.w3.org/2000/svg" width="300.000000pt" height="300.000000pt" viewBox="0 0 300.000000 300.000000" preserveAspectRatio="xMidYMid meet">
<metadata>
  <rdf:rdf xmlns:rdf="http://www.w3.org/1999/02/22-rdf-syntax-ns#" xmlns:rdfs="http://www.w3.org/2000/01/rdf-schema#" xmlns:dc="http://purl.org/dc/elements/1.1/">
    <rdf:description dc:title="girl with chart paper" dc:publisher="Hiox" dc:date="2015-04-30" dc:format="image/svg+xml" dc:language="en">
      <dc:creator>
        <rdf:bag>
          <rdf:li>svgimages.com</rdf:li>
        </rdf:bag>
      </dc:creator>
    </rdf:description>
  </rdf:rdf>
</metadata>
<g transform="translate(0.000000,300.000000) scale(0.100000,-0.100000)" fill="#494949" stroke="none">
<path d="M1800 2387 c-56 -30 -78 -49 -96 -82 -10 -19 -25 -37 -32 -40 -8 -3
-44 0 -80 6 -128 23 -267 -7 -356 -75 -26 -20 -51 -36 -56 -36 -4 0 -13 13
-20 29 -42 104 -176 121 -240 31 -39 -54 -37 -127 4 -262 33 -106 36 -129 36
-234 l0 -116 -107 3 -108 4 -6 -335 c-4 -191 -12 -359 -19 -390 -19 -90 -29
-171 -23 -186 4 -12 53 -14 289 -14 272 0 284 -1 284 -19 0 -10 10 -25 23 -34
19 -12 110 -37 137 -37 18 0 21 41 6 65 l-16 25 68 0 69 0 9 -32 c13 -44 48
-60 107 -49 65 12 100 37 93 65 l-6 23 261 5 c182 4 264 9 272 17 19 19 17
797 -2 874 -8 32 -19 61 -24 64 -5 3 -82 5 -171 4 -152 -2 -163 -1 -180 18
-29 32 -115 29 -154 -4 -17 -15 -49 -28 -74 -31 -40 -6 -48 -3 -81 26 -41 35
-46 50 -19 50 28 0 120 53 162 94 22 21 44 54 51 74 6 20 23 47 38 60 22 20
26 32 25 73 0 36 -6 55 -22 72 -12 13 -22 31 -22 40 0 16 2 16 29 3 31 -17 51
-60 51 -112 0 -18 5 -55 10 -82 11 -48 17 -100 19 -154 1 -18 7 -28 16 -28 12
0 15 17 15 89 0 78 5 104 36 192 41 113 41 151 3 238 -41 97 -131 146 -199
108z m129 -55 c38 -40 71 -117 71 -165 0 -28 -46 -174 -60 -190 -4 -4 -10 19
-13 51 -6 73 -24 112 -57 129 -14 7 -25 20 -26 30 -3 49 -5 53 -26 53 -13 0
-35 -6 -49 -14 -23 -12 -27 -11 -37 5 -20 31 -14 53 26 91 42 41 54 46 101 47
27 1 42 -7 70 -37z m-824 -112 c12 -11 30 -39 38 -62 l16 -40 -39 6 c-31 5
-41 3 -48 -11 -5 -10 -7 -23 -5 -30 2 -6 -3 -22 -11 -35 -12 -19 -15 -52 -14
-158 2 -125 1 -139 -22 -185 l-25 -50 -6 110 c-4 87 -12 130 -37 205 -18 52
-32 115 -32 140 0 53 27 110 61 128 33 17 96 8 124 -18z m500 22 c33 -6 41
-12 43 -32 6 -41 22 -53 64 -47 37 5 59 -5 38 -18 -8 -5 -8 -11 0 -20 23 -28
-58 -47 -101 -25 -11 6 -19 21 -19 36 0 19 -5 25 -17 22 -12 -2 -18 -13 -18
-29 0 -37 -22 -59 -59 -59 -29 0 -31 2 -31 37 0 34 -3 38 -25 38 -23 0 -25 -4
-25 -43 0 -52 -21 -72 -77 -72 -35 0 -38 2 -38 29 0 38 -24 59 -46 40 -11 -9
-14 -23 -11 -46 7 -38 -19 -63 -65 -63 -23 0 -28 4 -28 25 0 29 -15 33 -29 8
-12 -20 -14 -9 -5 24 4 16 16 23 50 28 47 7 63 20 45 38 -38 38 39 106 142
127 53 10 160 11 212 2z m109 -37 c4 -10 -1 -15 -14 -15 -20 0 -26 11 -13 23
10 11 20 8 27 -8z m106 -5 c0 -5 -4 -10 -10 -10 -5 0 -10 -8 -10 -17 0 -16 -1
-16 -17 0 -16 16 -16 19 -3 27 20 13 40 13 40 0z m-600 -91 c0 -5 -9 -9 -20
-9 -22 0 -23 1 -14 24 5 13 9 14 20 5 8 -6 14 -15 14 -20z m-90 -34 c0 -21
-17 -27 -24 -9 -10 25 -7 34 9 28 8 -4 15 -12 15 -19z m551 -13 c20 -2 47 1
59 8 30 16 42 2 47 -57 10 -95 -25 -163 -111 -222 -70 -46 -106 -54 -241 -49
-106 3 -129 7 -171 29 -58 29 -84 73 -84 140 l0 46 45 6 c25 2 55 13 66 23 15
14 37 18 84 19 48 0 68 5 84 19 16 15 34 19 65 17 31 -2 49 3 67 18 13 11 31
18 39 14 8 -3 31 -8 51 -11z m149 -1 c13 -25 13 -68 0 -76 -6 -3 -10 5 -10 19
0 13 -4 36 -10 50 -11 31 4 36 20 7z m-710 -66 c0 -7 -7 -18 -15 -25 -18 -15
-19 -53 -4 -83 18 -34 110 -123 147 -141 17 -9 55 -21 84 -26 28 -6 53 -12 55
-14 6 -6 -25 -63 -37 -71 -6 -4 -31 -8 -55 -11 -40 -4 -47 -2 -56 20 -14 31
-44 38 -105 27 -33 -6 -55 -17 -69 -35 -11 -14 -30 -26 -41 -26 -19 0 -18 5
15 72 l36 72 -2 134 c-1 74 0 139 3 144 7 11 44 -20 44 -37z m24 -84 c5 -29 4
-32 -9 -21 -16 13 -20 42 -8 53 8 9 9 8 17 -32z m365 -230 c30 11 35 9 57 -14
l24 -27 -22 -4 c-42 -9 -179 -15 -176 -8 2 4 9 23 17 44 l14 36 26 -19 c23
-17 31 -18 60 -8z m386 -36 c0 -28 -45 -42 -84 -25 -32 13 -41 34 -18 44 6 3
32 4 57 3 37 -2 45 -5 45 -22z m-689 -10 c15 -39 -59 -61 -100 -30 -22 16 -15
30 19 38 42 10 76 7 81 -8z m1059 -59 c13 -48 15 -127 13 -444 l-3 -387 -90
-6 c-49 -4 -400 -10 -779 -15 l-688 -7 6 29 c28 135 35 228 41 509 4 171 8
315 9 320 2 6 42 8 107 5 57 -3 119 -2 138 2 23 4 47 2 69 -8 44 -18 111 -18
131 0 12 10 62 15 179 20 90 3 206 11 258 17 85 10 96 10 107 -5 7 -10 33 -19
62 -22 45 -6 54 -3 82 20 29 25 35 26 184 28 85 2 155 3 157 2 1 -1 9 -27 17
-58z m-640 -886 c3 -5 -3 -10 -14 -10 -12 0 -21 5 -21 10 0 6 6 10 14 10 8 0
18 -4 21 -10z m-215 -48 c13 -13 13 -14 -3 -8 -10 3 -29 6 -41 6 -12 0 -31 7
-42 15 -17 14 -15 14 26 9 25 -4 52 -13 60 -22z m320 19 c0 -18 -93 -36 -117
-23 -14 8 -9 12 28 20 59 13 89 14 89 3z" id="node1" class="node"></path>
<path d="M1614 2020 c-24 -9 -39 -28 -31 -37 3 -2 21 1 41 8 28 10 38 10 51
-1 11 -9 19 -10 26 -3 7 7 4 16 -12 27 -26 18 -43 19 -75 6z" id="node2" class="node"></path>
<path d="M1293 1960 c-53 -32 -42 -54 13 -25 16 8 41 15 57 15 17 0 27 5 27
15 0 22 -58 19 -97 -5z" id="node3" class="node"></path>
<path d="M1449 1949 c-28 -28 -19 -34 28 -18 49 17 50 18 33 29 -23 15 -38 12
-61 -11z" id="node4" class="node"></path>
<path d="M1635 1873 c-45 -55 -102 -76 -194 -72 -60 3 -83 9 -109 28 -34 24
-49 23 -39 -3 18 -47 180 -73 260 -42 71 27 135 83 137 119 1 18 -28 3 -55
-30z" id="node5" class="node"></path>
</g>
<g transform="translate(0.000000,300.000000) scale(0.100000,-0.100000)" fill="#FFFFFF" stroke="none">

<path d="M1810 2363 c-27 -10 -90 -77 -90 -95 0 -10 5 -27 12 -37 10 -16 14
-17 37 -5 14 8 36 14 49 14 21 0 23 -4 26 -53 1 -10 12 -23 26 -30 33 -17 51
-56 57 -129 3 -32 9 -55 13 -51 14 16 60 162 60 190 0 48 -33 125 -71 165 -36
38 -73 48 -119 31z" id="node7" class="node"></path>
<path d="M981 2238 c-34 -18 -61 -75 -61 -128 0 -25 14 -88 32 -140 25 -75 33
-118 37 -205 l6 -110 25 50 c23 46 24 60 22 185 -1 106 2 139 14 158 8 13 13
29 11 35 -2 7 0 20 5 30 7 14 17 16 48 11 l39 -6 -16 40 c-8 23 -26 51 -38 62
-28 26 -91 35 -124 18z" id="node8" class="node"></path>
<path d="M1393 2240 c-103 -21 -180 -89 -142 -127 18 -18 2 -31 -45 -38 -34
-5 -46 -12 -50 -28 -9 -33 -7 -44 5 -24 14 25 29 21 29 -8 0 -21 5 -25 28 -25
46 0 72 25 65 63 -3 23 0 37 11 46 22 19 46 -2 46 -40 0 -27 3 -29 38 -29 56
0 77 20 77 72 0 39 2 43 25 43 22 0 25 -4 25 -38 0 -35 2 -37 31 -37 37 0 59
22 59 59 0 16 6 27 18 29 12 3 17 -3 17 -22 0 -15 8 -30 19 -36 43 -22 124 -3
101 25 -8 9 -8 15 0 20 21 13 -1 23 -38 18 -42 -6 -58 6 -64 47 -2 20 -10 26
-43 32 -52 9 -159 8 -212 -2z" id="node9" class="node"></path>
<path d="M1687 2213 c-13 -12 -7 -23 13 -23 13 0 18 5 14 15 -7 16 -17 19 -27
8z" id="node10" class="node"></path>
<path d="M1780 2200 c-13 -8 -13 -11 3 -27 16 -16 17 -16 17 0 0 9 5 17 10 17
6 0 10 5 10 10 0 13 -20 13 -40 0z" id="node11" class="node"></path>
<path d="M1186 2124 c-9 -23 -8 -24 14 -24 23 0 26 13 6 29 -11 9 -15 8 -20
-5z" id="node12" class="node"></path>
<path d="M1100 2091 c0 -20 13 -41 21 -35 14 8 11 31 -6 38 -8 3 -15 1 -15 -3z" id="node13" class="node"></path>
<path d="M1591 2059 c-18 -15 -36 -20 -67 -18 -31 2 -49 -2 -65 -17 -16 -14
-36 -19 -84 -19 -47 -1 -69 -5 -84 -19 -11 -10 -41 -21 -66 -23 l-45 -6 0 -46
c0 -67 26 -111 84 -140 42 -22 65 -26 171 -29 135 -5 171 3 241 49 86 59 121
127 111 222 -5 59 -17 73 -47 57 -21 -12 -79 -10 -110 3 -8 4 -26 -3 -39 -14z
m98 -45 c16 -11 19 -20 12 -27 -7 -7 -15 -6 -26 3 -13 11 -23 11 -51 1 -37
-13 -51 -10 -39 9 18 29 71 36 104 14z m-299 -49 c0 -10 -10 -15 -27 -15 -16
0 -41 -7 -57 -15 -55 -29 -66 -7 -13 25 39 24 97 27 97 5z m120 -5 c17 -11 16
-12 -33 -29 -47 -16 -56 -10 -28 18 23 23 38 26 61 11z m180 -57 c-2 -36 -66
-92 -137 -119 -80 -31 -242 -5 -260 42 -10 26 5 27 39 3 26 -19 49 -25 109
-28 92 -4 149 17 194 72 27 33 56 48 55 30z" id="node14" class="node"></path>
<path d="M1810 2054 c6 -14 10 -37 10 -50 0 -14 4 -22 10 -19 21 13 4 95 -20
95 -6 0 -6 -10 0 -26z" id="node15" class="node"></path>

<path d="M1127 1943 c-12 -11 -8 -40 8 -53 13 -11 14 -8 9 21 -8 40 -9 41 -17
32z" id="node17" class="node"></path>
<path d="M1409 1672 c-8 -21 -15 -40 -17 -44 -3 -7 134 -1 176 8 l22 4 -24 27
c-22 23 -27 25 -57 14 -29 -10 -37 -9 -60 8 l-26 19 -14 -36z" id="node18" class="node"></path>
<path d="M1793 1664 c-23 -10 -14 -31 18 -44 39 -17 84 -3 84 25 0 17 -8 20
-45 22 -25 1 -51 0 -57 -3z" id="node19" class="node"></path>
<path d="M1125 1643 c-34 -8 -41 -22 -19 -38 41 -31 115 -9 100 30 -5 15 -39
18 -81 8z" id="node20" class="node"></path>
<path d="M2091 1632 c-149 -2 -155 -3 -184 -28 -28 -23 -37 -26 -82 -20 -29 3
-55 12 -62 22 -11 15 -22 15 -107 5 -52 -6 -168 -14 -258 -17 -117 -5 -167
-10 -179 -20 -20 -18 -87 -18 -131 0 -22 10 -46 12 -69 8 -19 -4 -81 -5 -138
-2 -65 3 -105 1 -107 -5 -1 -5 -5 -149 -9 -320 -6 -281 -13 -374 -41 -509 l-6
-29 688 7 c379 5 730 11 779 15 l90 6 3 387 c2 317 0 396 -13 444 -8 31 -16
57 -17 58 -2 1 -72 0 -157 -2z" id="node21" class="node"></path>
<path d="M1590 690 c0 -5 9 -10 21 -10 11 0 17 5 14 10 -3 6 -13 10 -21 10 -8
0 -14 -4 -14 -10z" id="node22" class="node"></path>
<path d="M1324 655 c11 -8 30 -15 42 -15 12 0 31 -3 41 -6 16 -6 16 -5 3 8 -8
9 -35 18 -60 22 -41 5 -43 5 -26 -9z" id="node23" class="node"></path>
<path d="M1641 658 c-37 -8 -42 -12 -28 -20 24 -13 117 5 117 23 0 11 -30 10
-89 -3z" id="node24" class="node"></path>
</g>
</svg>