<!--?xml version="1.0" standalone="no"?-->

<svg version="1.0" xmlns="http://www.w3.org/2000/svg" width="212.000000pt" height="300.000000pt" viewBox="0 0 212.000000 300.000000" preserveAspectRatio="xMidYMid meet">
<g transform="translate(0.000000,300.000000) scale(0.100000,-0.100000)" fill="#4A3725" stroke="none">
<path stroke-width="20" class="node" id="node1" d="M1452 2924 c-18 -7 -57 -37 -87 -65 -54 -51 -56 -52 -118 -52 -34 -1
-96 5 -136 12 -103 18 -218 2 -320 -45 -40 -19 -75 -34 -76 -34 -1 0 -25 31
-54 69 -66 89 -106 123 -140 119 -55 -6 -91 -143 -91 -351 -1 -56 -7 -129 -15
-162 -21 -86 -18 -155 11 -296 53 -261 51 -403 -7 -484 -29 -40 -31 -49 -27
-103 3 -40 11 -69 27 -91 36 -50 32 -92 -11 -133 -45 -42 -55 -86 -39 -179 20
-124 97 -209 188 -209 21 0 23 2 13 15 -17 21 -6 56 35 104 49 60 55 119 20
204 -5 13 -2 17 15 17 27 0 58 16 90 46 17 16 32 21 48 17 19 -5 22 -12 22
-55 0 -93 45 -286 116 -493 39 -115 80 -167 133 -169 49 -2 39 -30 -24 -65
-30 -17 -58 -31 -62 -31 -5 0 -17 20 -27 43 -31 68 -139 168 -226 210 -97 47
-155 59 -265 59 -123 0 -206 -26 -275 -88 -51 -47 -90 -107 -90 -141 0 -13 18
-24 68 -42 37 -12 157 -75 267 -138 295 -169 422 -227 610 -278 184 -50 424
-50 602 1 48 14 98 28 111 31 31 7 48 36 63 108 25 123 10 315 -35 444 -22 60
-21 61 24 61 86 0 137 51 177 178 24 77 28 103 27 217 0 103 -5 146 -22 209
-46 162 -107 246 -180 246 -20 0 -46 7 -56 15 -11 8 -34 15 -52 15 -41 0 -171
-66 -253 -128 l-65 -49 -45 28 c-24 16 -66 32 -93 35 -40 6 -49 11 -54 31 -9
36 2 39 51 15 59 -29 153 -29 212 -2 150 68 215 203 191 397 -6 49 -11 174
-12 278 -2 210 -15 271 -76 360 -26 37 -28 47 -20 76 13 43 13 170 1 202 -12
32 -30 38 -69 21z m-904 -18 c45 -24 120 -119 161 -206 29 -62 30 -64 13 -92
-33 -56 -103 -139 -112 -133 -6 4 -10 -2 -10 -12 0 -11 -19 -57 -43 -103 -24
-47 -47 -96 -51 -110 l-7 -25 -14 30 c-24 54 -38 219 -32 384 5 155 15 214 44
258 18 27 17 27 51 9z m956 -8 c8 -31 6 -179 -2 -201 -7 -15 -10 -14 -38 10
-16 16 -53 39 -82 53 -28 14 -51 30 -52 35 0 15 79 90 115 108 41 22 52 21 59
-5z m-114 -313 c0 -48 -3 -56 -17 -53 -10 2 -28 18 -40 37 -27 40 -31 32 -6
-10 10 -16 25 -32 35 -35 21 -6 22 -14 6 -65 -14 -47 -33 -50 -79 -12 -27 24
-30 24 -21 6 7 -12 25 -27 42 -35 36 -15 37 -21 8 -48 -25 -23 -55 -25 -93 -8
-26 12 -27 14 -19 68 5 30 8 80 6 110 l-2 55 45 21 c24 11 64 21 89 23 l46 2
0 -56z m5 -197 c10 -18 33 -51 51 -72 19 -21 31 -42 29 -47 -3 -4 1 -10 7 -12
7 -3 2 -6 -12 -6 -31 -1 -66 -24 -81 -54 -9 -18 -9 -20 2 -9 7 6 19 12 27 12
12 0 12 -3 2 -15 -7 -8 -21 -15 -31 -15 -16 0 -19 -8 -19 -45 0 -58 28 -80 92
-70 l44 7 12 -52 c21 -90 16 -148 -19 -208 -61 -107 -159 -175 -253 -176 -28
-1 -78 2 -111 6 -33 3 -49 4 -35 1 37 -7 47 -19 59 -68 11 -43 12 -44 45 -38
43 7 97 -11 125 -41 21 -23 21 -23 1 -41 -17 -15 -22 -16 -37 -4 -16 13 -17
12 -4 -4 13 -16 9 -23 -36 -70 -28 -29 -80 -96 -117 -149 -36 -53 -70 -98 -74
-100 -4 -2 -15 -19 -25 -38 l-19 -35 31 35 c17 19 45 58 63 85 18 28 35 52 38
55 3 3 19 25 35 50 90 133 349 336 473 370 37 9 48 9 68 -5 34 -22 71 -100 88
-186 8 -41 14 -63 15 -49 1 38 -27 148 -45 175 -15 23 -15 25 0 31 91 35 196
-201 196 -442 0 -145 -50 -302 -111 -345 -24 -17 -41 -20 -89 -17 -33 1 -60 1
-60 -2 0 -3 9 -29 20 -59 36 -95 52 -190 51 -316 0 -66 -6 -144 -13 -174 -13
-53 -14 -54 -68 -73 -235 -81 -502 -84 -750 -7 -102 32 -190 71 -190 84 0 25
80 133 132 180 31 27 82 63 114 80 41 22 66 45 84 73 14 23 46 56 72 73 27 17
51 35 54 41 4 5 -17 -6 -46 -26 -143 -98 -190 -71 -265 154 -53 160 -94 344
-96 425 -1 60 2 78 20 102 28 38 42 97 34 146 -4 30 -2 37 11 37 9 0 16 2 16
4 0 15 -34 93 -46 107 -9 10 -14 26 -13 36 2 10 -2 27 -8 38 -11 20 -31 135
-34 190 -3 77 -2 78 68 110 45 20 68 26 70 18 3 -7 13 -23 24 -37 21 -27 31
-27 149 -4 56 11 61 14 35 18 -16 3 -33 2 -36 -3 -4 -5 -28 -12 -54 -15 -47
-5 -47 -5 -35 18 19 35 42 58 72 69 25 9 27 8 31 -22 3 -25 4 -22 5 13 1 29
-5 60 -18 85 -11 22 -20 41 -20 43 0 3 18 2 39 -2 31 -5 40 -2 45 10 5 13 4
14 -7 6 -10 -9 -18 -8 -31 1 -17 12 -15 17 19 79 36 66 36 66 63 52 44 -23 85
-18 115 14 15 15 27 33 27 40 0 22 15 13 35 -20z m112 -178 c15 -29 17 -116 4
-125 -5 -3 -13 19 -16 49 -5 34 -14 61 -26 72 -25 23 -24 36 3 32 12 -2 28
-14 35 -28z m-21 -96 c-3 -9 -6 -22 -6 -30 0 -8 -10 -14 -25 -14 -29 0 -30 3
-9 35 18 28 50 35 40 9z m-987 -806 c14 -16 19 -28 13 -28 -18 0 -52 38 -52
57 0 9 3 13 8 8 4 -6 18 -22 31 -37z"></path>







<path class="node" id="node9" d="M1752 1138 c-15 -44 -85 -113 -174 -175 -39 -26 -82 -59 -97 -71 -14
-13 11 2 57 33 82 56 84 56 104 38 20 -18 21 -18 9 2 -11 18 -7 26 38 72 51
53 85 106 79 124 -2 6 -9 -5 -16 -23z"></path>
</g>
<g transform="translate(0.000000,300.000000) scale(0.100000,-0.100000)" fill="#D5C3A8" stroke="none">








</g>
</svg>