<!--?xml version="1.0" standalone="no"?--><svg version="1.0" xmlns="http://www.w3.org/2000/svg" width="271.000000pt" height="300.000000pt" viewBox="0 0 271.000000 300.000000" preserveAspectRatio="xMidYMid meet">
<metadata>
  <rdf:rdf xmlns:rdf="http://www.w3.org/1999/02/22-rdf-syntax-ns#" xmlns:rdfs="http://www.w3.org/2000/01/rdf-schema#" xmlns:dc="http://purl.org/dc/elements/1.1/">
    <rdf:description dc:title="girl child play with toy duck" dc:publisher="Hiox" dc:date="2015-03-26" dc:format="image/svg+xml" dc:language="en">
      <dc:creator>
        <rdf:bag>
          <rdf:li>svgimages.com</rdf:li>
        </rdf:bag>
      </dc:creator>
    </rdf:description>
  </rdf:rdf>
</metadata>
<g transform="translate(0.000000,300.000000) scale(0.100000,-0.100000)" fill="#252123" stroke="none">
<path d="M397 2989 c-69 -10 -164 -47 -205 -80 -62 -51 -102 -130 -102 -203 0
-38 37 -96 61 -96 20 0 26 15 9 25 -5 3 -10 10 -10 15 0 5 11 -2 25 -15 13
-14 33 -25 43 -25 12 0 22 -9 26 -22 11 -42 6 -119 -10 -149 -16 -33 -12 -64
11 -73 8 -3 15 -12 15 -21 0 -8 9 -34 19 -58 11 -23 21 -51 23 -62 5 -33 46
-47 116 -40 l62 6 0 -40 c0 -24 -5 -41 -14 -44 -30 -12 -72 -130 -90 -251 -15
-103 -22 -127 -56 -187 -22 -38 -59 -102 -81 -141 -23 -40 -71 -122 -107 -183
-93 -155 -132 -248 -132 -312 0 -59 13 -78 62 -88 18 -4 54 -27 80 -51 53 -50
73 -53 154 -27 46 14 59 15 94 3 l40 -13 0 -101 c1 -59 9 -140 20 -196 11 -52
25 -142 31 -200 l12 -105 -28 -44 c-16 -23 -39 -47 -52 -52 -13 -5 -23 -15
-23 -23 0 -7 -10 -16 -22 -20 -31 -7 -98 -64 -98 -82 0 -34 93 -44 175 -20 26
8 81 16 122 17 61 2 77 -1 85 -14 18 -33 86 -22 168 28 41 24 86 45 100 45 14
0 45 11 70 24 44 22 45 23 48 78 3 55 2 56 -42 93 -54 44 -65 72 -76 196 -9
103 -35 185 -77 246 -20 28 -27 51 -27 87 -1 58 8 63 107 65 51 1 62 5 88 30
18 18 29 40 29 56 0 23 -28 137 -58 241 -16 52 -104 287 -119 317 -28 55 -5
38 40 -30 62 -94 77 -127 77 -165 0 -18 5 -50 11 -71 13 -47 42 -63 96 -51 21
4 42 8 47 8 26 2 61 -193 106 -584 31 -267 127 -434 276 -480 79 -24 155 -26
215 -4 62 21 124 20 196 -5 51 -17 76 -20 135 -15 40 4 83 13 95 20 31 19 51
69 56 137 3 53 19 89 32 75 3 -3 0 -28 -6 -55 -11 -48 -10 -54 14 -98 21 -37
24 -51 16 -66 -14 -26 8 -70 43 -87 23 -11 32 -10 59 3 17 9 34 25 36 36 4 15
14 19 44 19 27 0 39 -4 39 -14 0 -20 48 -56 75 -56 35 0 77 45 73 80 -2 18 5
37 18 52 40 44 54 73 54 110 0 21 -3 39 -7 39 -5 1 -46 2 -93 3 -123 3 -230
48 -230 98 0 10 14 30 30 45 94 83 -46 182 -146 102 -36 -29 -42 -30 -97 -24
l-59 7 4 -28 c2 -24 11 -31 53 -47 49 -18 84 -49 85 -75 0 -8 -14 -27 -30 -42
-27 -25 -30 -35 -30 -85 0 -80 -21 -111 -82 -125 -77 -16 -129 -12 -199 16
-66 26 -74 26 -174 1 -81 -21 -131 -23 -185 -7 -64 17 -111 43 -147 80 -34 35
-103 167 -103 197 0 11 -4 23 -9 29 -8 8 -27 131 -52 344 -23 201 -61 386 -90
436 -12 22 -16 44 -13 66 5 28 -1 42 -44 98 -35 46 -55 83 -66 126 -19 73 -46
137 -91 211 -28 47 -32 59 -23 79 9 19 8 28 -6 42 -14 17 -15 23 -2 53 30 73
-23 196 -104 237 -25 12 -48 31 -52 42 -4 11 -14 20 -22 20 -9 0 -18 14 -22
37 -6 32 -3 40 20 60 28 23 66 31 66 13 0 -5 5 -10 10 -10 6 0 10 7 10 15 0 8
7 15 15 15 22 0 18 21 -5 27 -11 3 -20 7 -20 8 0 2 11 27 24 56 17 36 27 79
32 141 5 65 10 88 19 84 19 -7 35 14 35 46 0 41 15 34 35 -14 18 -47 75 -112
117 -134 36 -19 118 -18 170 3 56 22 63 35 27 50 -30 12 -79 59 -79 74 0 5 14
9 31 9 l32 0 -25 20 c-15 11 -39 54 -58 100 -18 45 -46 93 -63 110 -60 59
-153 63 -227 9 -28 -20 -42 -25 -44 -17 -3 7 -8 27 -13 43 -7 22 -17 31 -36
33 -32 4 -87 -23 -87 -43 0 -18 -4 -19 -38 -1 -60 30 -174 46 -255 35z m395
-2705 c0 -45 -25 -114 -41 -114 -6 0 -11 -9 -11 -20 0 -11 -2 -20 -4 -20 -2 0
-11 -2 -18 -5 -9 -4 -14 2 -15 16 -1 12 -13 38 -26 58 -35 52 -39 78 -21 172
9 46 18 107 21 134 l6 50 55 -115 c39 -82 54 -127 54 -156z" id="node1" class="node" stroke-width="20"></path>
</g>
<g transform="translate(0.000000,300.000000) scale(0.100000,-0.100000)" fill="#F5943D" stroke="none">







</g>
</svg>