<!--?xml version="1.0" standalone="no"?--><svg version="1.0" xmlns="http://www.w3.org/2000/svg" width="300.000000pt" height="300.000000pt" viewBox="0 0 300.000000 300.000000" preserveAspectRatio="xMidYMid meet">
<metadata>
  <rdf:rdf xmlns:rdf="http://www.w3.org/1999/02/22-rdf-syntax-ns#" xmlns:rdfs="http://www.w3.org/2000/01/rdf-schema#" xmlns:dc="http://purl.org/dc/elements/1.1/">
    <rdf:description dc:title="family sticker study girl" dc:publisher="Hiox" dc:date="2015-05-25" dc:format="image/svg+xml" dc:language="en">
      <dc:creator>
        <rdf:bag>
          <rdf:li>svgimages.com</rdf:li>
        </rdf:bag>
      </dc:creator>
    </rdf:description>
  </rdf:rdf>
</metadata>
<g transform="translate(0.000000,300.000000) scale(0.100000,-0.100000)" fill="#393839" stroke="none">
<path d="M1448 2725 c-63 -23 -106 -63 -154 -143 -1 -2 -24 8 -50 22 -104 55
-179 16 -213 -109 -9 -33 -7 -60 8 -139 11 -54 17 -105 14 -112 -9 -25 -43
-27 -69 -3 -20 19 -24 20 -30 6 -8 -22 13 -85 42 -123 42 -57 173 -71 236 -24
32 24 47 25 75 5 11 -8 47 -20 79 -27 l59 -13 3 -43 c2 -23 0 -42 -5 -42 -4 0
-26 11 -48 25 -30 18 -54 24 -99 25 -52 0 -70 -6 -145 -46 -120 -65 -114 -56
-86 -129 l23 -63 -59 -52 c-32 -28 -59 -55 -59 -60 0 -5 34 -31 75 -57 62 -40
75 -53 75 -74 0 -36 34 -76 70 -84 17 -4 30 -13 30 -20 0 -8 8 -20 19 -27 20
-14 23 6 -73 -452 -14 -66 -23 -123 -20 -128 3 -4 52 -8 110 -8 l104 0 -1
-112 c-1 -62 -4 -156 -8 -208 -6 -94 -6 -95 -36 -103 -65 -20 -95 -38 -110
-67 -47 -91 58 -170 185 -140 62 15 90 47 90 102 0 43 -33 83 -77 94 l-24 6 6
207 c4 113 8 212 10 218 3 10 36 13 119 13 l115 0 6 -33 c10 -63 38 -233 50
-312 7 -44 11 -83 9 -87 -2 -3 -17 -9 -33 -13 -32 -7 -75 -49 -85 -82 -16 -53
62 -122 139 -123 112 0 189 87 139 158 -18 26 -65 52 -93 52 -27 0 -31 8 -46
108 -7 48 -21 130 -29 182 -9 52 -18 107 -21 121 l-4 26 135 6 c74 3 138 9
143 11 8 5 -22 85 -144 376 -55 133 -55 135 -35 149 11 7 20 24 20 37 0 18 9
27 34 38 39 16 56 42 56 84 0 24 10 38 54 71 97 75 96 70 26 137 l-62 59 4 65
3 65 -85 46 c-74 41 -93 48 -145 48 -45 1 -72 -5 -109 -24 -69 -35 -76 -33
-76 19 l0 44 45 6 c24 4 65 18 90 32 l47 24 29 -24 c36 -30 84 -41 144 -31 61
9 109 51 130 116 20 58 10 82 -20 49 -10 -11 -26 -20 -35 -20 -36 0 -41 23
-34 154 7 122 6 126 -20 180 -34 69 -110 139 -182 165 -64 24 -169 27 -226 6z
m214 -31 c60 -19 140 -91 169 -150 20 -43 21 -55 15 -178 -3 -72 -3 -136 1
-142 13 -18 54 -36 69 -30 24 9 16 -22 -15 -56 -28 -31 -33 -33 -99 -33 -60 0
-74 3 -95 23 -25 24 -25 24 -5 44 80 80 74 223 -15 312 -80 79 -211 108 -329
72 -27 -8 -48 -12 -48 -9 0 12 44 79 65 99 47 47 138 77 205 68 19 -3 56 -12
82 -20z m-429 -115 c71 -36 72 -37 23 -81 -25 -21 -53 -53 -64 -71 -44 -72
-38 -165 14 -233 19 -24 34 -48 34 -53 0 -16 -67 -41 -109 -41 -58 0 -107 23
-125 59 -20 38 -20 40 4 34 11 -3 31 2 45 11 30 20 32 54 10 170 -14 71 -14
85 0 132 26 89 85 115 168 73z m383 -75 c140 -86 153 -257 25 -349 -73 -54
-175 -69 -279 -43 -70 17 -158 107 -167 170 -13 89 19 158 100 214 51 36 87
44 181 41 82 -3 97 -6 140 -33z m-232 -529 c64 -32 119 -32 180 0 71 38 133
34 221 -14 l70 -39 3 -98 c3 -118 -2 -129 -46 -113 -31 11 -32 13 -32 71 0 51
-3 61 -20 65 -11 3 -20 9 -20 14 0 16 -26 9 -124 -31 -53 -22 -110 -40 -126
-40 -28 0 -96 24 -190 67 -24 11 -35 13 -38 4 -2 -6 -12 -11 -23 -11 -17 0
-19 -8 -19 -64 0 -64 -6 -76 -43 -89 -19 -7 -19 -8 -64 113 -34 91 -38 110
-22 111 8 0 43 17 79 39 82 48 140 52 214 15z m-28 -189 l79 -23 3 -202 c1
-110 0 -201 -4 -201 -3 0 -46 19 -95 43 -62 29 -89 47 -89 60 0 9 4 17 10 17
13 0 40 54 40 79 0 11 -11 33 -25 49 -22 27 -25 39 -25 116 0 64 3 86 13 86 7
0 49 -11 93 -24z m394 -72 c0 -94 -1 -97 -30 -124 -21 -20 -30 -37 -30 -60 0
-23 9 -40 30 -60 31 -29 39 -57 18 -65 -7 -3 -52 -16 -101 -29 l-87 -24 2 205
3 204 55 19 c67 22 88 27 118 29 21 1 22 -2 22 -95z m-634 -1 c22 -59 31 -65
65 -47 18 9 30 10 34 4 9 -15 -1 -26 -43 -48 l-39 -20 -56 36 c-31 21 -57 41
-57 45 0 6 70 77 77 77 1 0 9 -21 19 -47z m404 -158 l0 -205 -25 0 -25 0 0
205 0 205 25 0 25 0 0 -205z m418 162 l31 -32 -59 -47 -59 -48 -35 15 c-31 13
-36 20 -36 49 0 34 0 35 33 24 17 -5 39 -12 48 -15 13 -4 18 5 23 41 4 25 11
46 15 46 4 0 21 -15 39 -33z m-676 -143 c17 -36 -13 -74 -57 -74 -43 0 -65 33
-45 69 23 44 83 47 102 5z m562 -10 c49 -49 -34 -114 -86 -67 -36 33 -11 83
42 83 16 0 36 -7 44 -16z m-455 -209 c86 -42 147 -46 259 -14 41 11 77 17 81
12 4 -4 18 -35 31 -68 13 -33 31 -78 41 -100 21 -48 96 -229 111 -268 6 -15 8
-30 5 -34 -6 -6 -709 -24 -715 -18 -4 4 15 104 53 280 14 66 31 148 37 183 6
34 14 62 18 62 4 0 39 -16 79 -35z m51 -1005 c57 -39 28 -112 -50 -125 -102
-17 -180 49 -128 110 39 45 125 52 178 15z m382 4 c15 -8 31 -26 34 -39 22
-87 -147 -130 -211 -54 -30 37 -30 39 -4 73 36 46 114 54 181 20z" id="node1" class="node"></path>
<path d="M1491 2426 c-17 -20 -3 -64 26 -84 24 -15 26 -15 39 3 15 21 10 50
-14 78 -18 21 -36 22 -51 3z" id="node2" class="node"></path>
<path d="M1346 2408 c-22 -31 -20 -65 4 -78 36 -19 72 36 54 84 -9 23 -40 20
-58 -6z" id="node3" class="node"></path>
<path d="M1320 2238 c1 -37 63 -78 116 -78 24 0 44 5 44 10 0 6 -6 11 -12 11
-7 1 -17 2 -23 4 -5 1 -19 3 -31 3 -11 1 -36 16 -54 32 -38 34 -40 35 -40 18z" id="node4" class="node"></path>
</g>
<g transform="translate(0.000000,300.000000) scale(0.100000,-0.100000)" fill="#FFFFFF" stroke="none">

<path d="M1503 2710 c-50 -10 -98 -34 -128 -64 -21 -20 -65 -87 -65 -99 0 -3
21 1 48 9 118 36 249 7 329 -72 89 -89 95 -232 15 -312 -20 -20 -20 -20 5 -44
21 -20 35 -23 95 -23 66 0 71 2 99 33 31 34 39 65 15 56 -15 -6 -56 12 -69 30
-4 6 -4 70 -1 142 6 123 5 135 -15 178 -56 115 -206 191 -328 166z" id="node6" class="node"></path>
<path d="M1108 2579 c-18 -13 -33 -39 -43 -73 -14 -47 -14 -61 0 -132 22 -116
20 -150 -10 -170 -14 -9 -34 -14 -45 -11 -24 6 -24 4 -4 -34 18 -36 67 -59
125 -59 42 0 109 25 109 41 0 5 -15 29 -34 53 -52 68 -58 161 -14 233 11 18
39 50 64 71 49 44 48 45 -23 81 -53 26 -90 26 -125 0z" id="node7" class="node"></path>
<path d="M1355 2528 c-79 -29 -145 -98 -160 -166 -4 -19 -4 -54 0 -80 9 -63
97 -153 167 -170 104 -26 206 -11 279 43 128 92 115 263 -25 349 -43 27 -58
30 -140 33 -50 1 -104 -2 -121 -9z m187 -105 c24 -28 29 -57 14 -78 -13 -18
-15 -18 -39 -3 -29 20 -43 64 -26 84 15 19 33 18 51 -3z m-138 -9 c11 -29 6
-54 -14 -74 -42 -42 -80 16 -44 68 18 26 49 29 58 6z m-44 -194 c18 -16 43
-31 54 -32 12 0 26 -2 31 -3 6 -2 16 -3 23 -4 6 0 12 -5 12 -11 0 -5 -20 -10
-44 -10 -53 0 -115 41 -116 78 0 17 2 16 40 -18z" id="node8" class="node"></path>
<path d="M1170 1960 c-36 -22 -71 -39 -79 -39 -16 -1 -12 -20 22 -111 45 -121
45 -120 64 -113 37 13 43 25 43 89 0 56 2 64 19 64 11 0 21 5 23 11 3 9 14 7
38 -4 94 -43 162 -67 190 -67 16 0 73 18 126 40 98 40 124 47 124 31 0 -5 9
-11 20 -14 17 -4 20 -14 20 -65 0 -58 1 -60 32 -71 44 -16 49 -5 46 113 l-3
98 -70 39 c-88 48 -150 52 -221 14 -61 -32 -116 -32 -180 0 -74 37 -132 33
-214 -15z" id="node9" class="node"></path>
<path d="M1250 1724 c0 -77 3 -89 25 -116 14 -16 25 -38 25 -49 0 -25 -27 -79
-40 -79 -6 0 -10 -8 -10 -17 0 -13 27 -31 89 -60 49 -24 92 -43 95 -43 4 0 5
91 4 201 l-3 202 -79 23 c-44 13 -86 24 -93 24 -10 0 -13 -22 -13 -86z" id="node10" class="node"></path>
<path d="M1685 1803 c-11 -3 -45 -13 -75 -23 l-55 -19 -3 -204 -2 -205 87 24
c49 13 94 26 101 29 21 8 13 36 -18 65 -21 20 -30 37 -30 60 0 23 9 40 30 60
29 27 30 30 30 124 0 105 0 105 -65 89z" id="node11" class="node"></path>
<path d="M1058 1725 c-21 -18 -38 -38 -38 -42 0 -4 26 -24 57 -45 l56 -36 39
20 c42 22 52 33 43 48 -4 6 -16 5 -34 -4 -34 -18 -43 -12 -65 47 -10 26 -18
47 -19 47 -1 0 -19 -16 -39 -35z" id="node12" class="node"></path>
<path d="M1470 1555 l0 -205 25 0 25 0 0 205 0 205 -25 0 -25 0 0 -205z" id="node13" class="node"></path>
<path d="M1884 1704 c-5 -36 -10 -45 -23 -41 -9 3 -31 10 -48 15 -33 11 -33
10 -33 -24 0 -29 5 -36 36 -49 l35 -15 59 48 59 47 -31 32 c-18 18 -35 33 -39
33 -4 0 -11 -21 -15 -46z" id="node14" class="node"></path>
<path d="M1193 1599 c-32 -12 -48 -46 -34 -75 15 -35 74 -34 97 1 30 46 -10
94 -63 74z" id="node15" class="node"></path>
<path d="M1736 1564 c-21 -21 -20 -47 2 -67 52 -47 135 18 86 67 -8 9 -28 16
-44 16 -16 0 -36 -7 -44 -16z" id="node16" class="node"></path>
<path d="M1272 1328 c-6 -35 -23 -117 -37 -183 -38 -176 -57 -276 -53 -280 6
-6 709 12 715 18 3 4 1 19 -5 34 -15 39 -90 220 -111 268 -10 22 -28 67 -41
100 -13 33 -27 64 -31 68 -4 5 -40 -1 -81 -12 -112 -32 -173 -28 -259 14 -40
19 -75 35 -79 35 -4 0 -12 -28 -18 -62z" id="node17" class="node"></path>
<path d="M1300 369 c-44 -10 -83 -53 -74 -82 10 -35 24 -46 66 -58 84 -22 162
14 156 73 -5 53 -73 84 -148 67z" id="node18" class="node"></path>
<path d="M1673 369 c-29 -8 -73 -50 -73 -70 0 -4 11 -21 25 -38 64 -76 233
-33 211 54 -11 43 -100 73 -163 54z" id="node19" class="node"></path>
</g>
</svg>