<!--?xml version="1.0" standalone="no"?--><svg version="1.0" xmlns="http://www.w3.org/2000/svg" width="300.000000pt" height="300.000000pt" viewBox="0 0 300.000000 300.000000" preserveAspectRatio="xMidYMid meet">
<metadata>
  <rdf:rdf xmlns:rdf="http://www.w3.org/1999/02/22-rdf-syntax-ns#" xmlns:rdfs="http://www.w3.org/2000/01/rdf-schema#" xmlns:dc="http://purl.org/dc/elements/1.1/">
    <rdf:description dc:title="family sticker happy girl" dc:publisher="Hiox" dc:date="2015-05-21" dc:format="image/svg+xml" dc:language="en">
      <dc:creator>
        <rdf:bag>
          <rdf:li>svgimages.com</rdf:li>
        </rdf:bag>
      </dc:creator>
    </rdf:description>
  </rdf:rdf>
</metadata>
<g transform="translate(0.000000,300.000000) scale(0.100000,-0.100000)" fill="#333130" stroke="none">
<path d="M820 2977 c0 -33 17 -45 155 -117 119 -61 184 -104 174 -114 -6 -7
-171 38 -225 60 -21 9 -52 26 -68 39 -45 34 -115 60 -127 48 -24 -24 -4 -56
51 -86 30 -16 62 -35 70 -42 21 -17 154 -65 215 -77 28 -5 55 -13 60 -18 6 -4
27 -10 48 -14 20 -4 37 -12 37 -17 0 -24 -354 1 -456 32 -16 5 -58 12 -92 15
-53 6 -62 4 -68 -11 -10 -26 9 -50 42 -53 16 -1 56 -9 89 -17 120 -28 252 -46
352 -48 102 -2 103 -2 133 -35 42 -47 39 -71 -6 -37 -26 20 -68 19 -92 -2 -44
-40 -53 -125 -14 -137 34 -11 46 -48 32 -104 -10 -43 -9 -63 6 -129 30 -138
96 -227 209 -283 36 -18 65 -36 65 -40 0 -14 -89 -32 -129 -26 -23 3 -59 9
-81 12 -39 6 -59 0 -138 -39 -18 -8 -28 -8 -43 2 -11 6 -39 22 -62 34 -23 12
-67 38 -98 58 -30 21 -71 44 -90 52 -19 8 -56 30 -84 49 -46 30 -50 37 -53 76
-4 50 -26 66 -48 33 -20 -28 -31 -27 -49 9 -19 37 -48 39 -63 5 -6 -14 -16
-25 -22 -25 -16 0 -12 -106 5 -120 8 -7 15 -23 15 -36 0 -37 19 -38 65 -5 42
30 85 41 85 21 0 -5 15 -16 33 -25 39 -17 112 -58 129 -72 7 -6 42 -26 78 -45
141 -76 132 -68 134 -120 2 -41 8 -54 41 -88 21 -22 44 -40 51 -40 6 0 23 -9
38 -21 29 -23 34 -62 11 -93 -8 -11 -15 -28 -15 -37 0 -10 -8 -32 -17 -51 -27
-54 -30 -62 -37 -95 -4 -18 -21 -58 -37 -89 -16 -32 -29 -62 -29 -68 0 -6 -7
-24 -16 -41 -34 -65 -10 -135 48 -135 39 0 37 -30 -8 -126 -28 -61 -34 -84
-29 -111 3 -19 11 -36 18 -37 103 -30 165 -50 175 -59 11 -9 12 -42 7 -166 -7
-149 -6 -157 13 -174 21 -19 34 -18 117 12 122 44 183 63 205 65 25 1 25 0 28
-86 3 -102 8 -106 99 -88 32 7 76 15 98 19 22 4 56 13 75 19 64 20 258 55 274
49 11 -4 16 -19 16 -42 0 -69 55 -145 106 -145 44 0 97 62 129 152 34 98 8
174 -71 209 -37 17 -51 19 -76 10 -17 -6 -35 -11 -41 -11 -9 0 -6 38 8 106 5
22 1 43 -13 71 -25 49 -36 58 -89 73 -35 11 -48 10 -84 -4 -47 -19 -80 -54
-73 -77 8 -27 -6 -48 -39 -58 -18 -6 -72 -24 -120 -40 -123 -43 -129 -42 -125
17 l3 47 111 10 c64 6 118 16 127 23 18 15 13 66 -8 92 -7 8 -17 31 -24 50 -6
19 -22 51 -36 70 -13 19 -25 48 -27 65 -3 27 0 30 39 36 92 17 118 66 83 159
-11 30 -20 63 -20 73 0 10 -6 28 -12 40 -7 12 -18 42 -24 67 -11 43 -22 74
-50 150 -31 83 -29 94 22 131 45 33 55 42 111 104 16 18 47 36 73 44 25 7 58
19 73 27 16 8 36 14 45 14 9 1 35 9 57 20 22 11 48 19 57 20 10 0 32 6 50 14
18 8 53 20 77 27 38 12 45 11 49 -1 7 -20 58 -70 71 -70 7 0 16 11 21 25 5 14
22 30 36 35 25 10 26 12 10 29 -16 17 -15 19 5 33 21 13 21 15 5 45 -9 18 -16
41 -16 53 0 13 -7 20 -20 20 -11 0 -20 -3 -20 -8 0 -4 -10 -13 -21 -21 -20
-12 -24 -10 -44 14 -18 24 -24 26 -43 16 -16 -8 -22 -21 -22 -45 0 -39 -10
-49 -65 -66 -22 -7 -49 -16 -60 -21 -11 -4 -36 -11 -55 -15 -19 -3 -41 -10
-50 -15 -20 -11 -98 -39 -130 -46 -14 -3 -33 -12 -42 -21 -16 -14 -22 -11 -64
32 -58 58 -133 82 -201 64 -44 -11 -117 -5 -143 12 -13 9 -13 11 0 20 8 5 29
10 45 10 44 1 96 28 161 85 56 50 104 113 114 150 4 15 16 21 43 23 51 4 107
59 107 105 -1 41 -28 73 -70 84 -25 7 -36 16 -41 38 -5 15 -6 32 -3 37 9 14
71 9 84 -7 7 -8 19 -15 27 -15 8 0 27 -6 41 -14 83 -43 204 -72 355 -84 78 -6
103 -5 118 6 20 14 20 14 -2 38 -19 21 -32 24 -88 24 -35 0 -90 6 -120 14 -31
8 -87 22 -126 32 -110 27 -195 64 -195 86 0 21 4 22 29 8 19 -10 131 -28 251
-39 51 -6 100 -3 155 6 97 18 115 27 115 58 0 29 -9 30 -111 13 -54 -8 -101
-8 -202 1 -168 16 -207 22 -207 32 0 12 59 27 135 34 65 6 189 31 278 56 44
12 57 34 33 57 -14 14 -22 15 -61 4 -25 -7 -57 -12 -71 -12 -14 0 -34 -5 -44
-10 -21 -11 -110 -25 -255 -40 -148 -15 -189 -22 -210 -36 -28 -20 -42 -18
-83 15 -58 47 -132 71 -215 71 -52 0 -79 -5 -97 -17 -22 -16 -24 -16 -34 3
-13 22 -113 124 -137 139 -10 5 -41 26 -70 46 -49 32 -83 54 -130 84 -47 29
-161 85 -174 85 -9 0 -18 7 -21 15 -4 9 -19 15 -35 15 -24 0 -29 -4 -29 -23z
m521 -357 c18 -10 18 -13 4 -41 -29 -55 -95 -59 -95 -5 0 28 11 43 35 49 32 8
35 8 56 -3z m89 -102 c0 -7 -7 -22 -15 -32 -16 -21 -20 -73 -7 -93 14 -22 62
-20 62 3 0 44 67 130 87 110 3 -3 -2 -30 -12 -60 -21 -62 -16 -86 19 -86 20 0
27 6 31 28 9 39 33 92 43 92 12 0 42 -73 42 -104 0 -40 17 -66 45 -66 19 0 26
7 34 36 5 19 8 41 6 47 -13 45 -14 67 -3 67 17 -1 78 -97 78 -124 0 -11 4 -36
10 -55 13 -46 -4 -160 -31 -214 -12 -23 -35 -57 -50 -75 -16 -18 -29 -36 -29
-40 0 -8 -11 -14 -82 -48 -86 -41 -132 -48 -208 -34 -97 18 -182 82 -218 165
-56 125 -52 200 17 341 36 74 182 188 181 142z m493 -51 c21 -24 19 -56 -5
-71 -35 -21 -91 68 -61 97 11 11 46 -3 66 -26z m-389 -786 c18 -28 -97 -48
-128 -21 -26 21 -8 30 59 30 35 0 66 -4 69 -9z m-43 -347 c4 -16 10 -41 13
-55 7 -32 58 -59 110 -59 25 0 36 -4 36 -15 0 -8 -9 -15 -19 -15 -11 0 -23 -5
-26 -11 -4 -5 -18 -15 -32 -20 -24 -9 -25 -13 -20 -54 4 -25 9 -56 13 -70 9
-36 -19 -33 -58 5 -16 17 -35 31 -41 31 -28 3 -54 -4 -83 -22 -17 -10 -39 -19
-48 -19 -20 0 -20 28 -1 54 8 11 15 34 15 52 0 26 -9 40 -40 67 -44 38 -37 52
20 41 61 -13 80 3 119 99 14 35 33 31 42 -9z m-76 -514 c88 -5 179 -9 202 -10
29 0 48 -6 61 -20 21 -23 72 -119 72 -136 0 -7 7 -17 15 -24 8 -7 15 -16 15
-20 0 -4 -44 -11 -97 -14 -54 -4 -113 -10 -131 -13 -29 -5 -37 0 -79 46 -25
28 -55 51 -66 51 -10 0 -36 -19 -57 -42 -37 -42 -38 -43 -71 -30 -19 8 -50 18
-69 22 -19 4 -53 14 -75 23 -36 13 -40 17 -37 47 1 18 9 42 17 53 8 12 15 28
15 36 0 8 8 23 17 34 15 16 26 18 63 12 25 -3 117 -10 205 -15z m6 -260 c10
-6 19 -17 19 -25 0 -20 44 -47 72 -45 46 4 48 2 48 -52 0 -29 -4 -58 -8 -64
-9 -15 -240 -94 -272 -94 -23 0 -23 1 -16 78 4 42 8 90 9 107 2 26 7 30 37 35
46 8 59 16 70 46 11 27 14 28 41 14z m669 -50 c20 -37 -19 -160 -54 -173 -19
-8 -29 10 -46 85 -11 51 -11 60 4 83 21 32 80 36 96 5z m-169 -137 c5 -16 19
-48 31 -71 28 -58 17 -67 -97 -86 -49 -8 -114 -20 -144 -26 -75 -16 -81 -12
-81 60 0 49 3 62 18 66 9 3 25 10 34 15 10 5 28 9 40 9 13 0 32 7 42 15 11 8
34 15 51 15 17 0 40 7 51 15 28 21 43 18 55 -12z m194 -72 c3 -5 1 -12 -5 -16
-5 -3 -10 1 -10 9 0 18 6 21 15 7z m170 -35 c24 -24 24 -25 8 -73 -29 -86 -83
-134 -97 -85 -13 46 -17 142 -7 161 16 29 65 28 96 -3z" id="node1" class="node"></path>
<path d="M1457 2281 c-9 -16 -17 -48 -17 -70 0 -37 2 -41 25 -41 18 0 28 7 35
26 14 35 12 88 -2 102 -17 17 -22 15 -41 -17z" id="node2" class="node"></path>
<path d="M1545 2260 c-16 -31 -21 -105 -7 -114 17 -10 51 25 58 59 14 75 -21
113 -51 55z" id="node3" class="node"></path>
<path d="M1267 2220 c-16 -10 -16 -13 -2 -33 8 -12 15 -36 15 -54 0 -91 125
-193 236 -193 51 0 120 35 180 92 72 68 71 93 -1 93 -47 0 -50 -1 -50 -26 0
-50 -56 -89 -128 -89 -58 0 -104 20 -143 62 -42 44 -47 63 -23 84 22 20 26 64
5 64 -7 0 -26 2 -42 5 -16 3 -37 0 -47 -5z" id="node4" class="node"></path>
</g>
<g transform="translate(0.000000,300.000000) scale(0.100000,-0.100000)" fill="#FFFFFF" stroke="none">


<path d="M1285 2623 c-24 -6 -35 -21 -35 -49 0 -54 66 -50 95 5 14 28 14 31
-4 41 -21 11 -24 11 -56 3z" id="node7" class="node"></path>
<path d="M1332 2474 c-65 -58 -89 -96 -123 -199 -27 -79 -21 -140 23 -240 36
-83 121 -147 218 -165 76 -14 122 -7 208 34 71 34 82 40 82 48 0 4 13 22 29
40 15 18 38 52 50 75 27 54 44 168 31 214 -6 19 -10 44 -10 55 0 27 -61 123
-78 124 -11 0 -10 -22 3 -67 2 -6 -1 -28 -6 -47 -18 -65 -79 -41 -79 30 0 31
-30 104 -42 104 -10 0 -34 -53 -43 -92 -4 -22 -11 -28 -31 -28 -35 0 -40 24
-19 86 10 30 15 57 12 60 -20 20 -87 -66 -87 -110 0 -23 -48 -25 -62 -3 -13
20 -9 72 7 93 8 10 15 25 15 32 0 26 -38 9 -98 -44z m166 -176 c14 -14 16 -67
2 -102 -7 -19 -17 -26 -35 -26 -23 0 -25 4 -25 41 0 37 25 99 40 99 3 0 11 -5
18 -12z m98 -33 c10 -38 -4 -93 -28 -109 -29 -21 -38 -12 -38 35 0 75 51 133
66 74z m-240 -45 c21 0 17 -44 -5 -64 -24 -21 -19 -40 23 -84 39 -42 85 -62
143 -62 72 0 128 39 128 89 0 25 3 26 50 26 72 0 73 -25 1 -93 -60 -57 -129
-92 -180 -92 -111 0 -236 102 -236 193 0 18 -7 42 -15 54 -14 20 -14 23 2 33
10 5 31 8 47 5 16 -3 35 -5 42 -5z" id="node8" class="node"></path>
<path d="M1857 2493 c-30 -29 26 -118 61 -97 24 15 26 47 5 71 -20 23 -55 37
-66 26z" id="node9" class="node"></path>
<path d="M1396 1681 c-18 -29 97 -47 129 -21 25 21 6 30 -60 30 -35 0 -66 -4
-69 -9z" id="node10" class="node"></path>
<path d="M1449 1343 c-39 -96 -58 -112 -119 -99 -57 11 -64 -3 -20 -41 31 -27
40 -41 40 -67 0 -18 -7 -41 -15 -52 -19 -26 -19 -54 1 -54 9 0 31 9 48 19 29
18 55 25 83 22 6 0 25 -14 41 -31 39 -38 67 -41 58 -5 -4 14 -9 45 -13 70 -5
41 -4 45 20 54 14 5 28 15 32 20 3 6 15 11 26 11 10 0 19 7 19 15 0 11 -11 15
-36 15 -52 0 -103 27 -110 59 -17 74 -21 85 -32 89 -6 2 -17 -9 -23 -25z" id="node11" class="node"></path>
<path d="M1147 823 c-9 -11 -17 -26 -17 -34 0 -8 -7 -24 -15 -36 -8 -11 -16
-35 -17 -53 -3 -30 1 -34 37 -47 22 -9 56 -19 75 -23 19 -4 50 -14 69 -22 33
-13 34 -12 71 30 21 23 47 42 57 42 11 0 41 -23 66 -51 42 -46 50 -51 79 -46
18 3 77 9 131 13 53 3 97 10 97 14 0 4 -7 13 -15 20 -8 7 -15 17 -15 24 0 17
-51 113 -72 136 -13 14 -32 20 -61 20 -77 1 -361 19 -407 25 -37 6 -48 4 -63
-12z" id="node12" class="node"></path>

<path d="M1994 505 c-15 -23 -15 -32 -4 -83 17 -75 27 -93 46 -85 35 13 74
136 54 173 -16 31 -75 27 -96 -5z" id="node14" class="node"></path>

<path d="M2100 294 c0 -8 5 -12 10 -9 6 4 8 11 5 16 -9 14 -15 11 -15 -7z" id="node16" class="node"></path>
<path d="M2189 269 c-10 -19 -6 -115 7 -161 14 -49 68 -1 97 85 16 48 16 49
-8 73 -31 31 -80 32 -96 3z" id="node17" class="node"></path>
</g>
</svg>