<!--?xml version="1.0" standalone="no"?--><svg version="1.0" xmlns="http://www.w3.org/2000/svg" width="300.000000pt" height="300.000000pt" viewBox="0 0 300.000000 300.000000" preserveAspectRatio="xMidYMid meet">
<metadata>
  <rdf:rdf xmlns:rdf="http://www.w3.org/1999/02/22-rdf-syntax-ns#" xmlns:rdfs="http://www.w3.org/2000/01/rdf-schema#" xmlns:dc="http://purl.org/dc/elements/1.1/">
    <rdf:description dc:title="cook girl" dc:publisher="Hiox" dc:date="2015-04-21" dc:format="image/svg+xml" dc:language="en">
      <dc:creator>
        <rdf:bag>
          <rdf:li>svgimages.com</rdf:li>
        </rdf:bag>
      </dc:creator>
    </rdf:description>
  </rdf:rdf>
</metadata>
<g transform="translate(0.000000,300.000000) scale(0.100000,-0.100000)" fill="#2D2D2D" stroke="none">
<path d="M1525 2990 c-3 -5 -15 -10 -26 -10 -11 0 -45 -25 -75 -55 -57 -57
-72 -63 -92 -43 -15 15 -81 38 -109 38 -38 0 -128 -39 -159 -69 -17 -16 -39
-48 -50 -71 -17 -36 -22 -40 -44 -33 -14 5 -57 8 -96 8 -60 0 -77 -4 -113 -28
-83 -55 -104 -140 -56 -223 38 -64 72 -84 143 -84 67 0 57 10 100 -105 10 -28
26 -66 34 -85 52 -115 68 -153 68 -161 0 -5 -14 -9 -31 -9 -41 0 -86 -33 -105
-78 -9 -24 -19 -98 -25 -207 -10 -170 -24 -242 -56 -277 -24 -27 -45 -22 -86
20 -42 42 -46 66 -17 82 28 15 62 -4 58 -32 -4 -31 20 -34 28 -3 9 37 -19 65
-66 65 -39 0 -70 -24 -70 -54 0 -31 39 -94 81 -130 58 -49 104 -49 181 -1 31
19 63 46 72 59 34 53 60 103 71 139 20 68 25 62 79 -90 35 -97 36 -104 21
-127 -21 -32 -12 -80 20 -103 98 -72 115 -86 115 -94 0 -5 -7 -9 -16 -9 -21 0
-181 -77 -221 -107 -21 -15 -33 -33 -33 -47 0 -25 44 -115 81 -167 l21 -30
-21 -23 c-29 -31 -26 -49 14 -85 37 -32 59 -39 70 -21 14 22 27 9 22 -20 -5
-24 -1 -36 21 -59 15 -16 42 -47 60 -69 l32 -41 1 -178 c0 -98 4 -205 8 -238
8 -57 6 -62 -21 -93 -15 -18 -28 -35 -28 -37 0 -3 55 -5 121 -5 l122 0 -6 29
c-8 37 11 54 48 45 24 -6 26 -10 20 -40 l-6 -34 121 0 c130 0 126 -2 88 52
-16 24 -18 50 -18 268 l0 241 32 40 c23 28 39 39 59 39 15 0 31 5 34 10 3 6 1
45 -5 88 -6 42 -16 109 -21 147 -6 39 -15 89 -21 113 -6 23 -8 45 -6 48 3 2
26 -1 51 -8 57 -15 76 -6 164 76 58 54 66 58 86 47 21 -11 23 -18 19 -70 -5
-64 9 -101 36 -101 33 0 42 22 42 100 0 42 5 81 11 87 5 5 13 38 16 72 4 47 1
67 -11 86 -10 16 -16 46 -16 86 0 54 4 67 35 109 39 53 45 101 20 150 -34 65
-92 78 -136 29 -45 -50 -49 -138 -8 -175 15 -14 19 -31 19 -88 l0 -71 -38 -18
c-20 -10 -74 -54 -120 -97 -66 -63 -87 -77 -100 -70 -9 5 -29 11 -44 15 -25 5
-41 35 -19 35 18 0 83 90 90 123 4 17 4 54 -1 82 -5 35 -3 62 8 95 31 88 53
380 34 445 -28 95 -129 215 -224 265 -49 27 -45 17 -102 230 -20 74 -41 146
-47 159 -10 20 -9 26 7 35 11 6 38 28 60 48 39 35 41 39 40 95 -1 69 -20 110
-71 152 -31 26 -46 31 -90 31 -28 0 -55 -4 -58 -10z m119 -52 c18 -7 32 -29
47 -67 21 -55 21 -57 3 -90 -11 -20 -39 -47 -64 -61 -30 -18 -45 -33 -44 -46
2 -16 29 -118 65 -244 6 -19 13 -48 16 -65 3 -16 10 -36 16 -43 13 -16 14 -16
-68 -36 -156 -40 -249 -81 -361 -161 -34 -24 -72 -57 -85 -73 -42 -48 -44 -47
-84 51 -21 50 -42 96 -47 102 -4 5 -8 15 -8 22 0 7 -8 32 -19 56 -10 23 -28
67 -40 98 -35 90 -44 99 -88 88 -94 -21 -153 26 -153 123 0 46 4 58 28 79 55
51 141 61 214 25 46 -23 52 -21 67 31 27 89 103 144 198 142 36 0 54 -8 118
-53 l27 -20 19 25 c10 13 19 29 19 35 0 13 51 62 82 79 29 17 110 18 142 3z
m29 -1043 c0 -36 3 -65 8 -65 20 0 39 48 39 97 l0 52 38 -6 c72 -12 140 -61
175 -128 18 -34 21 -55 20 -150 -1 -77 -6 -122 -18 -148 -12 -30 -14 -55 -9
-106 8 -82 -4 -109 -74 -172 -55 -50 -114 -81 -185 -100 -78 -20 -183 10 -291
84 -51 34 -141 100 -155 112 -1 2 0 9 4 15 4 7 19 3 46 -12 37 -21 39 -21 59
-3 24 22 26 58 4 76 -13 10 -17 10 -25 -2 -6 -9 -4 -18 7 -26 10 -8 12 -13 4
-18 -19 -12 -45 22 -69 90 -50 142 -18 341 68 419 25 23 40 13 23 -15 -7 -11
-10 -24 -7 -30 7 -11 74 -2 90 12 5 5 15 9 23 9 11 0 12 -3 3 -14 -17 -21 2
-28 36 -15 81 33 114 55 138 91 35 53 49 39 48 -47z m-565 -71 l-3 -109 -17
32 c-13 22 -18 54 -18 107 0 91 7 114 27 94 10 -11 13 -40 11 -124z m1147
-124 c3 -5 1 -10 -4 -10 -6 0 -11 5 -11 10 0 6 2 10 4 10 3 0 8 -4 11 -10z
m33 -45 c29 -63 -1 -103 -70 -97 -15 2 -18 12 -18 55 0 30 3 57 7 60 3 4 21 7
38 7 24 0 35 -6 43 -25z m-36 -200 c-2 -47 -8 -85 -13 -85 -10 0 -13 153 -2
163 15 16 18 3 15 -78z m3 -156 c-2 -3 -18 -4 -35 -1 -25 3 -30 1 -30 -16 0
-16 6 -19 35 -18 19 0 34 -3 34 -9 1 -5 -15 -10 -34 -10 -22 0 -35 -5 -35 -13
0 -8 8 -10 24 -6 14 3 27 1 31 -6 11 -17 -11 -34 -32 -25 -10 4 -27 8 -38 9
-17 1 -21 9 -23 50 -3 39 1 53 19 72 l21 23 33 -22 c18 -12 32 -24 30 -28z
m-135 -68 c0 -36 -6 -45 -66 -100 -72 -66 -89 -71 -157 -47 -30 10 -43 22 -57
54 -11 23 -16 44 -12 46 6 4 63 -14 122 -38 10 -4 39 17 84 59 37 36 72 65 77
65 5 0 9 -18 9 -39z m-725 -47 c14 -9 25 -22 25 -30 0 -22 46 -45 94 -47 55
-2 51 7 72 -197 8 -85 17 -171 19 -191 6 -60 0 -63 -122 -55 -98 6 -158 18
-189 39 -12 7 -10 18 16 112 15 55 28 111 39 170 11 57 20 85 30 85 3 0 12 9
19 21 12 19 12 20 -10 14 -13 -4 -36 -13 -52 -21 -16 -8 -35 -14 -43 -14 -7 0
-31 -6 -53 -12 -46 -15 -51 -34 -19 -79 23 -33 20 -43 -20 -57 -36 -13 -44 -4
-98 98 -29 55 -23 60 152 142 91 42 106 44 140 22z m852 -94 c-1 -33 -6 -59
-10 -57 -5 1 -8 6 -8 10 1 4 1 30 1 57 0 28 4 50 10 50 5 0 8 -26 7 -60z
m-443 18 c20 -47 33 -109 57 -288 19 -134 19 -133 -19 -141 -19 -4 -73 -8
-120 -10 l-87 -4 -3 43 c-3 40 -2 43 17 37 15 -5 21 -2 21 9 0 9 -9 16 -20 16
-18 0 -20 7 -20 55 0 40 4 55 14 55 20 0 29 30 11 35 -8 3 -22 7 -30 10 -11 3
-15 19 -15 55 0 43 3 50 20 50 11 0 20 7 20 15 0 9 -8 14 -22 12 -19 -2 -24 4
-26 30 -3 29 -1 31 35 38 22 3 58 5 81 4 23 -2 45 0 48 4 14 13 23 7 38 -25z
m-495 -90 c-1 -13 -4 -36 -8 -53 l-6 -30 -23 32 c-28 39 -28 51 1 63 33 13 37
12 36 -12z m-44 -138 c7 -21 -7 -53 -38 -87 -25 -28 -48 -29 -73 -2 -15 17
-16 22 -4 29 9 6 19 5 24 0 15 -15 26 -12 26 5 0 8 -4 15 -10 15 -21 0 -9 30
18 44 37 20 50 20 57 -4z m323 -263 c105 0 192 -3 192 -7 0 -3 -4 -10 -10 -16
-5 -5 -11 -106 -12 -239 l-3 -230 -62 -3 -63 -3 0 196 c0 179 1 195 18 195 18
0 48 38 37 48 -3 3 -20 0 -38 -6 -19 -7 -54 -12 -80 -12 -44 0 -60 -11 -37
-25 6 -4 10 -82 10 -201 l0 -195 -67 3 -68 3 -5 229 c-5 223 -6 229 -27 244
-13 8 -23 19 -23 24 0 5 10 6 23 2 12 -4 109 -8 215 -7z" id="node1" class="node"></path>
<path d="M1430 2655 l-23 -25 28 -87 c15 -49 32 -92 36 -97 5 -6 9 -22 9 -37
0 -15 5 -31 10 -34 6 -3 10 -17 10 -30 0 -15 10 -31 26 -42 24 -15 28 -15 52
0 35 21 38 52 12 129 -11 35 -27 86 -36 113 -41 132 -75 162 -124 110z m77
-70 c8 -27 19 -58 24 -67 5 -10 9 -27 9 -37 0 -11 5 -23 10 -26 6 -3 10 -19
10 -35 0 -16 5 -32 10 -35 14 -8 13 -38 -2 -53 -9 -9 -16 -8 -30 5 -10 9 -18
23 -18 31 0 15 -13 62 -30 107 -4 11 -13 40 -20 65 -7 25 -16 55 -21 67 -5 14
-4 23 4 27 27 11 40 -1 54 -49z" id="node2" class="node"></path>
<path d="M1229 2579 c-20 -20 -20 -56 1 -99 12 -24 42 -99 61 -150 35 -99 77
-126 117 -75 23 29 20 49 -17 125 -11 24 -21 48 -21 52 0 5 -9 28 -20 50 -11
23 -20 49 -20 58 0 23 -37 60 -60 60 -11 0 -29 -9 -41 -21z m76 -61 c14 -28
25 -56 25 -60 0 -5 9 -28 20 -50 11 -23 20 -50 20 -59 0 -10 5 -21 10 -24 13
-8 13 -52 -1 -60 -14 -9 -49 24 -49 47 0 10 -4 26 -9 36 -5 9 -13 28 -18 42
-15 38 -29 71 -47 112 -9 20 -13 43 -10 52 11 30 34 16 59 -36z" id="node3" class="node"></path>
<path d="M1041 2489 c-28 -26 -22 -69 20 -151 5 -10 9 -22 9 -28 0 -6 8 -29
19 -53 10 -23 24 -57 31 -75 23 -59 83 -68 110 -17 10 20 11 28 2 37 -7 7 -12
18 -12 25 0 7 -9 35 -21 61 -31 69 -36 83 -51 126 -12 36 -60 96 -77 96 -4 0
-17 -9 -30 -21z m62 -51 c46 -101 98 -239 95 -255 -2 -10 -9 -18 -16 -18 -18
0 -29 20 -107 207 -15 37 -25 74 -22 82 10 26 34 18 50 -16z" id="node4" class="node"></path>
<path d="M1780 1842 c0 -15 36 -42 55 -42 14 0 2 41 -14 50 -29 15 -41 12 -41
-8z" id="node5" class="node"></path>
<path d="M1487 1833 c-10 -9 -9 -43 1 -43 11 0 52 35 52 44 0 8 -45 8 -53 -1z" id="node6" class="node"></path>
<path d="M1494 1732 c-6 -4 -17 -23 -24 -43 -11 -30 -11 -41 1 -68 24 -54 79
-54 98 1 16 44 14 53 -15 87 -26 31 -40 37 -60 23z m46 -52 c15 -28 2 -70 -21
-70 -22 0 -24 11 -7 28 10 10 10 17 1 31 -11 18 -8 31 8 31 5 0 13 -9 19 -20z" id="node7" class="node"></path>
<path d="M1782 1723 c-7 -3 -19 -20 -27 -39 -12 -29 -12 -39 0 -68 21 -49 52
-56 83 -20 19 22 23 35 19 66 -8 59 -32 79 -75 61z m43 -53 c9 -30 -4 -60 -26
-60 -21 0 -26 16 -6 23 10 3 10 9 0 26 -17 28 -16 31 6 31 11 0 23 -9 26 -20z" id="node8" class="node"></path>
<path d="M1680 1569 c0 -18 2 -19 15 -9 15 12 12 30 -6 30 -5 0 -9 -10 -9 -21z" id="node9" class="node"></path>
<path d="M1490 1520 c-12 -8 -9 -15 20 -45 32 -33 33 -37 22 -68 -18 -51 -15
-100 8 -125 12 -12 27 -22 35 -22 8 0 15 -4 15 -10 0 -5 24 -10 53 -10 70 0
84 16 93 103 l7 67 53 30 c64 36 84 64 55 79 -16 9 -20 7 -25 -12 -14 -59
-175 -89 -245 -46 -41 25 -61 44 -61 58 0 13 -10 14 -30 1z m172 -215 c25 6
29 4 26 -12 -2 -12 -13 -19 -35 -21 -32 -3 -93 21 -93 37 0 17 25 19 48 4 15
-9 34 -12 54 -8z" id="node10" class="node"></path>
<path d="M1700 1051 c0 -15 6 -21 21 -21 25 0 22 33 -4 38 -12 2 -17 -3 -17
-17z" id="node11" class="node"></path>
<path d="M1714 919 c-8 -14 11 -33 25 -25 6 4 11 11 11 16 0 13 -29 20 -36 9z" id="node12" class="node"></path>
<path d="M1727 773 c-13 -12 -7 -23 13 -23 11 0 20 7 20 15 0 15 -21 21 -33 8z" id="node13" class="node"></path>
</g>
<g transform="translate(0.000000,300.000000) scale(0.100000,-0.100000)" fill="#FFFFFF" stroke="none">


<path d="M1502 2935 c-31 -17 -82 -66 -82 -79 0 -6 -9 -22 -19 -35 l-19 -25
-27 20 c-64 45 -82 53 -118 53 -95 2 -171 -53 -198 -142 -15 -52 -21 -54 -67
-31 -73 36 -159 26 -214 -25 -24 -21 -28 -33 -28 -79 0 -97 59 -144 153 -123
44 11 53 2 88 -88 12 -31 30 -75 40 -98 11 -24 19 -49 19 -56 0 -7 4 -17 8
-22 5 -6 26 -52 47 -102 40 -98 42 -99 84 -51 13 16 51 49 85 73 112 80 205
121 361 161 82 20 81 20 68 36 -6 7 -13 27 -16 43 -3 17 -10 46 -16 65 -36
126 -63 228 -65 244 -1 13 14 28 44 46 25 14 53 41 64 61 18 33 18 35 -3 90
-15 38 -29 60 -47 67 -32 15 -113 14 -142 -3z m-1 -272 c19 -23 33 -55 53
-118 9 -27 25 -78 36 -113 26 -77 23 -108 -12 -129 -24 -15 -28 -15 -52 0 -16
11 -26 27 -26 42 0 13 -4 27 -10 30 -5 3 -10 19 -10 34 0 15 -4 31 -9 37 -4 5
-21 48 -36 97 l-28 87 23 25 c28 29 51 32 71 8z m-191 -85 c11 -12 20 -29 20
-38 0 -9 9 -35 20 -58 11 -22 20 -45 20 -50 0 -4 10 -28 21 -52 37 -76 40 -96
17 -125 -40 -51 -82 -24 -117 75 -19 51 -49 126 -61 150 -21 43 -21 79 -1 99
27 27 55 27 81 -1z m-203 -96 c15 -16 34 -46 41 -68 15 -43 20 -57 51 -126 12
-26 21 -54 21 -61 0 -7 5 -18 12 -25 9 -9 8 -17 -2 -37 -27 -51 -87 -42 -110
17 -7 18 -21 52 -31 75 -11 24 -19 47 -19 53 0 6 -4 18 -9 28 -42 82 -48 125
-20 151 29 27 32 27 66 -7z" id="node16" class="node"></path>
<path d="M1453 2634 c-8 -4 -9 -13 -4 -27 5 -12 14 -42 21 -67 7 -25 16 -54
20 -65 17 -45 30 -92 30 -107 0 -8 8 -22 18 -31 14 -13 21 -14 30 -5 15 15 16
45 2 53 -5 3 -10 19 -10 35 0 16 -4 32 -10 35 -5 3 -10 15 -10 26 0 10 -4 27
-9 37 -5 9 -16 40 -24 67 -14 48 -27 60 -54 49z" id="node17" class="node"></path>
<path d="M1246 2554 c-3 -9 1 -32 10 -52 18 -41 32 -74 47 -112 5 -14 13 -33
18 -42 5 -10 9 -26 9 -36 0 -23 35 -56 49 -47 14 8 14 52 1 60 -5 3 -10 14
-10 24 0 9 -9 36 -20 59 -11 22 -20 45 -20 50 0 4 -11 32 -25 60 -25 52 -48
66 -59 36z" id="node18" class="node"></path>
<path d="M1053 2454 c-3 -8 7 -45 22 -82 78 -187 89 -207 107 -207 7 0 14 8
16 18 3 16 -49 154 -95 255 -16 34 -40 42 -50 16z" id="node19" class="node"></path>
<path d="M1625 1942 c-24 -36 -57 -58 -138 -91 -34 -13 -53 -6 -36 15 9 11 8
14 -3 14 -8 0 -18 -4 -23 -9 -16 -14 -83 -23 -90 -12 -3 6 0 19 7 30 17 28 2
38 -23 15 -86 -78 -118 -277 -68 -419 24 -68 50 -102 69 -90 8 5 6 10 -4 18
-11 8 -13 17 -7 26 8 12 12 12 25 2 22 -18 20 -54 -4 -76 -20 -18 -22 -18 -59
3 -27 15 -42 19 -46 12 -4 -6 -5 -13 -4 -15 14 -12 104 -78 155 -112 108 -74
213 -104 291 -84 71 19 130 50 185 100 70 63 82 90 74 172 -5 51 -3 76 9 106
12 26 17 71 18 148 1 95 -2 116 -20 150 -35 67 -103 116 -175 128 l-38 6 0
-52 c0 -49 -19 -97 -39 -97 -5 0 -8 29 -8 65 1 86 -13 100 -48 47z m196 -92
c16 -9 28 -50 14 -50 -19 0 -55 27 -55 42 0 20 12 23 41 8z m-281 -16 c0 -9
-41 -44 -52 -44 -10 0 -11 34 -1 43 8 9 53 9 53 1z m14 -125 c29 -34 31 -43
15 -87 -19 -55 -74 -55 -98 -1 -12 27 -12 38 -1 68 21 60 46 66 84 20z m286 6
c6 -8 14 -32 17 -53 4 -31 0 -44 -19 -66 -31 -36 -62 -29 -83 20 -12 29 -12
39 0 68 19 46 60 61 85 31z m-136 -134 c3 -5 -1 -14 -9 -21 -13 -10 -15 -9
-15 9 0 21 14 28 24 12z m-184 -62 c0 -14 20 -33 61 -58 70 -43 231 -13 245
46 5 19 9 21 25 12 29 -15 9 -43 -55 -79 l-53 -30 -7 -67 c-9 -87 -23 -103
-93 -103 -29 0 -53 5 -53 10 0 6 -7 10 -15 10 -8 0 -23 10 -35 22 -23 25 -26
74 -8 125 11 31 10 35 -22 68 -29 30 -32 37 -20 45 20 13 30 12 30 -1z" id="node20" class="node"></path>
<path d="M1507 1694 c-3 -3 -1 -15 6 -25 9 -14 9 -21 -1 -31 -17 -17 -15 -28
7 -28 23 0 36 42 21 70 -11 20 -22 25 -33 14z" id="node21" class="node"></path>
<path d="M1780 1685 c0 -3 6 -15 13 -26 10 -17 10 -23 0 -26 -20 -7 -15 -23 6
-23 22 0 35 30 26 60 -5 17 -45 30 -45 15z" id="node22" class="node"></path>
<path d="M1573 1323 c-21 -8 -15 -22 18 -38 40 -21 93 -16 97 8 3 16 -1 18
-26 12 -20 -4 -39 -1 -54 8 -13 8 -29 13 -35 10z" id="node23" class="node"></path>
<path d="M1076 1945 c-14 -36 -6 -166 12 -198 l17 -32 3 109 c2 84 -1 113 -11
124 -12 12 -15 11 -21 -3z" id="node24" class="node"></path>
<path d="M2240 1700 c0 -5 5 -10 11 -10 5 0 7 5 4 10 -3 6 -8 10 -11 10 -2 0
-4 -4 -4 -10z" id="node25" class="node"></path>
<path d="M2207 1673 c-4 -3 -7 -30 -7 -60 0 -43 3 -53 18 -55 69 -6 99 34 70
97 -8 19 -19 25 -43 25 -17 0 -35 -3 -38 -7z" id="node26" class="node"></path>
<path d="M2237 1533 c-11 -10 -8 -163 2 -163 5 0 11 38 13 85 3 81 0 94 -15
78z" id="node27" class="node"></path>
<path d="M2171 1326 c-18 -19 -22 -33 -19 -72 2 -41 6 -49 23 -50 11 -1 28 -5
38 -9 21 -9 43 8 32 25 -4 7 -17 9 -31 6 -16 -4 -24 -2 -24 6 0 8 13 13 35 13
19 0 35 5 34 10 0 6 -15 9 -34 9 -29 -1 -35 2 -35 18 0 17 5 19 30 16 43 -6
44 4 5 29 l-33 22 -21 -23z" id="node28" class="node"></path>
<path d="M2034 1205 c-45 -42 -74 -63 -84 -59 -59 24 -116 42 -122 38 -4 -2 1
-23 12 -46 14 -32 27 -44 57 -54 68 -24 85 -19 157 47 60 55 66 64 66 100 0
21 -4 39 -9 39 -5 0 -40 -29 -77 -65z" id="node29" class="node"></path>
<path d="M1255 1162 c-175 -82 -181 -87 -152 -142 54 -102 62 -111 98 -98 40
14 43 24 20 57 -32 45 -27 64 19 79 22 6 46 12 53 12 8 0 27 6 43 14 16 8 39
17 52 21 22 6 22 5 10 -14 -7 -12 -16 -21 -19 -21 -10 0 -19 -28 -30 -85 -11
-59 -24 -115 -39 -170 -26 -94 -28 -105 -16 -112 31 -21 91 -33 189 -39 122
-8 128 -5 122 55 -2 20 -11 106 -19 191 -21 204 -17 195 -72 197 -48 2 -94 25
-94 47 0 17 -43 46 -67 46 -10 -1 -54 -18 -98 -38z" id="node30" class="node"></path>
<path d="M2230 1100 c0 -27 0 -53 -1 -57 0 -4 3 -9 8 -10 4 -2 9 24 10 57 1
34 -2 60 -7 60 -6 0 -10 -22 -10 -50z" id="node31" class="node"></path>
<path d="M1766 1133 c-3 -4 -25 -6 -48 -4 -23 1 -59 -1 -81 -4 -36 -7 -38 -9
-35 -38 2 -26 7 -32 26 -30 14 2 22 -3 22 -12 0 -8 -9 -15 -20 -15 -17 0 -20
-7 -20 -50 0 -36 4 -52 15 -55 8 -3 22 -7 30 -10 18 -5 9 -35 -11 -35 -10 0
-14 -15 -14 -55 0 -48 2 -55 20 -55 11 0 20 -7 20 -16 0 -11 -6 -14 -21 -9
-19 6 -20 3 -17 -37 l3 -43 87 4 c47 2 101 6 120 10 38 8 38 7 19 141 -24 179
-37 241 -57 288 -15 32 -24 38 -38 25z m-28 -86 c2 -12 -3 -17 -17 -17 -15 0
-21 6 -21 21 0 25 33 22 38 -4z m12 -137 c0 -5 -5 -12 -11 -16 -14 -8 -33 11
-25 25 7 11 36 4 36 -9z m10 -145 c0 -8 -9 -15 -20 -15 -20 0 -26 11 -13 23
12 13 33 7 33 -8z" id="node32" class="node"></path>
<path d="M1273 1030 c-29 -12 -29 -24 -1 -63 l23 -32 6 30 c10 44 10 75 2 74
-5 0 -18 -4 -30 -9z" id="node33" class="node"></path>
<path d="M1208 884 c-27 -14 -39 -44 -18 -44 6 0 10 -7 10 -15 0 -17 -11 -20
-26 -5 -5 5 -15 6 -24 0 -12 -7 -11 -12 4 -29 25 -27 48 -26 73 2 31 34 45 66
38 87 -7 24 -20 24 -57 4z" id="node34" class="node"></path>
<path d="M1350 622 c0 -5 10 -16 23 -24 21 -15 22 -21 27 -244 l5 -229 68 -3
67 -3 0 195 c0 119 -4 197 -10 201 -23 14 -7 25 37 25 26 0 61 5 80 12 18 6
35 9 38 6 11 -10 -19 -48 -37 -48 -17 0 -18 -16 -18 -195 l0 -196 63 3 62 3 3
230 c1 133 7 234 12 239 6 6 10 13 10 16 0 4 -87 7 -192 7 -106 -1 -203 3
-215 7 -13 4 -23 3 -23 -2z" id="node35" class="node"></path>

</g>
</svg>