<!--?xml version="1.0" standalone="no"?--><svg version="1.0" xmlns="http://www.w3.org/2000/svg" width="229.000000pt" height="300.000000pt" viewBox="0 0 229.000000 300.000000" preserveAspectRatio="xMidYMid meet">
<metadata>
  <rdf:rdf xmlns:rdf="http://www.w3.org/1999/02/22-rdf-syntax-ns#" xmlns:rdfs="http://www.w3.org/2000/01/rdf-schema#" xmlns:dc="http://purl.org/dc/elements/1.1/">
    <rdf:description dc:title="little girl silhouette" dc:publisher="Hiox" dc:date="2015-05-05" dc:format="image/svg+xml" dc:language="en">
      <dc:creator>
        <rdf:bag>
          <rdf:li>svgimages.com</rdf:li>
        </rdf:bag>
      </dc:creator>
    </rdf:description>
  </rdf:rdf>
</metadata>
<g transform="translate(0.000000,300.000000) scale(0.100000,-0.100000)" fill="#070707" stroke="none">
<path d="M1497 2956 c-83 -34 -177 -99 -237 -162 -57 -60 -55 -49 -31 -171 9
-49 47 -130 76 -163 28 -32 28 -67 1 -103 -32 -42 -32 -51 -1 -71 19 -13 24
-22 20 -37 -5 -14 0 -27 14 -40 12 -11 21 -24 21 -30 0 -5 16 -17 35 -25 29
-12 35 -20 35 -43 0 -36 23 -61 57 -61 14 0 55 13 90 30 73 35 79 36 87 14 19
-49 -14 -114 -109 -214 -18 -19 -38 -46 -45 -60 -30 -59 -75 -121 -87 -118 -7
2 -48 55 -90 118 -73 108 -82 117 -140 145 -34 17 -79 47 -100 67 -42 41 -83
54 -139 43 -37 -6 -36 -20 1 -27 18 -3 16 -6 -9 -18 -34 -17 -51 -49 -20 -35
33 14 74 18 74 7 0 -6 -7 -17 -15 -26 -8 -8 -15 -24 -15 -36 0 -30 -49 -73
-75 -65 -11 3 -33 8 -48 12 -16 3 -31 13 -34 22 -10 26 -45 61 -64 61 -27 0
-45 -28 -31 -50 10 -16 7 -20 -18 -29 -26 -8 -29 -13 -21 -33 9 -26 45 -48 79
-48 24 0 30 -22 10 -37 -7 -6 -44 -13 -82 -16 -65 -5 -72 -8 -103 -42 -18 -21
-36 -49 -39 -64 -3 -14 -7 -35 -9 -45 -5 -26 10 -53 55 -101 l38 -40 -20 -81
c-14 -52 -18 -88 -13 -100 8 -17 9 -16 12 6 11 80 41 160 60 160 9 0 75 -57
148 -127 136 -132 221 -191 329 -232 66 -25 92 -22 171 15 27 14 55 22 62 20
14 -6 19 -152 5 -172 -4 -6 -70 -47 -147 -89 -246 -137 -340 -208 -503 -381
-109 -116 -124 -138 -101 -161 8 -8 8 -21 -2 -46 -10 -28 -10 -44 -1 -74 13
-44 70 -109 110 -125 59 -23 202 -28 537 -16 271 9 362 9 450 -2 61 -7 173
-16 250 -21 77 -5 166 -12 198 -15 57 -6 59 -5 55 17 -2 13 -17 30 -38 42 -19
10 -46 32 -60 49 -21 25 -35 31 -91 38 -36 4 -75 12 -86 18 -22 12 -73 75 -73
91 0 5 24 34 53 63 62 63 77 108 77 233 0 128 -21 215 -84 345 -21 43 -36 88
-36 109 0 20 16 81 35 136 20 55 42 118 50 140 36 105 46 293 21 395 -21 83
-86 274 -96 284 -6 6 -10 58 -10 116 0 91 3 109 18 123 23 21 42 6 42 -32 0
-15 9 -39 20 -56 11 -16 20 -38 20 -48 0 -10 9 -35 20 -55 51 -96 101 -212 95
-222 -3 -5 -12 -10 -20 -10 -25 0 -26 -18 -5 -60 20 -40 33 -49 45 -30 15 25
33 8 39 -38 4 -32 16 -60 35 -82 l29 -35 11 28 c16 40 14 62 -9 107 -24 47
-25 60 -6 60 24 0 28 17 15 60 -9 30 -16 39 -28 35 -18 -5 -61 65 -61 100 0
11 -9 34 -20 50 -11 17 -20 41 -20 54 0 12 -11 45 -25 73 -14 27 -25 60 -25
72 0 12 -7 32 -16 45 -17 24 -15 46 17 188 12 56 11 198 -2 248 -25 98 -114
217 -192 256 -109 56 -268 67 -370 25z m-396 -1017 c36 -39 37 -62 3 -78 -39
-17 -64 -6 -64 30 0 19 -5 29 -14 29 -22 0 -30 19 -16 35 20 25 60 18 91 -16z
m32 -136 c50 -4 69 -9 76 -22 9 -15 48 -170 66 -261 4 -19 14 -48 22 -63 13
-26 12 -31 -3 -55 -56 -86 -97 -82 -324 27 -126 60 -140 75 -138 157 1 32 -6
63 -20 91 -28 54 -28 84 1 111 27 26 37 20 37 -19 0 -53 91 -83 98 -32 3 17
11 23 40 25 34 3 37 5 34 32 -3 26 -1 28 20 21 13 -4 53 -10 91 -12z m-403
-91 c0 -5 -6 -17 -14 -28 -11 -15 -17 -16 -27 -7 -16 16 -4 43 21 43 11 0 20
-4 20 -8z m20 -57 c0 -8 -4 -15 -10 -15 -5 0 -10 7 -10 15 0 8 5 15 10 15 6 0
10 -7 10 -15z" id="node1" class="node"></path>
<path d="M65 134 c-42 -45 -28 -94 25 -94 60 0 90 57 53 100 -24 27 -49 25
-78 -6z" id="node2" class="node"></path>
<path d="M391 123 c-33 -6 -71 -32 -71 -48 0 -22 68 -48 108 -40 44 8 62 21
62 45 0 32 -48 53 -99 43z" id="node3" class="node"></path>
</g>
<g transform="translate(0.000000,300.000000) scale(0.100000,-0.100000)" fill="#A0A0A0" stroke="none">





</g>
</svg>