<!--?xml version="1.0" standalone="no"?-->

<svg xmlns="http://www.w3.org/2000/svg" width="200.000000pt" height="300.000000pt" viewBox="0 0 200.000000 300.000000" preserveAspectRatio="xMidYMid meet">
<g transform="translate(0.000000,300.000000) scale(0.100000,-0.100000)" fill="#4C4C4C" stroke="none">
<path style="position: relative;" class="node" id="node1" d="M1016 2978 c-9 -12 -16 -28 -16 -35 0 -7 -43 -36 -96 -64 -170 -92
-285 -199 -319 -298 -9 -25 -21 -53 -25 -61 -63 -108 -62 -105 -47 -114 13 -9
13 -15 -5 -50 -75 -148 -143 -453 -106 -480 10 -7 13 -17 7 -31 -12 -31 -11
-35 12 -35 21 0 21 -3 15 -72 -4 -40 -11 -97 -17 -125 -11 -58 -7 -73 22 -73
27 0 24 -30 -9 -76 -56 -78 -66 -111 -61 -204 1 -14 -9 -52 -22 -84 -24 -58
-25 -59 -79 -73 -135 -33 -239 -110 -261 -193 -17 -65 -6 -112 36 -149 47 -41
101 -54 217 -53 159 1 265 27 496 122 13 6 22 6 22 0 0 -11 -100 -372 -106
-381 -2 -4 -17 -10 -33 -14 -40 -9 -67 -41 -96 -115 -50 -127 -31 -150 150
-190 55 -12 144 -24 198 -27 l97 -6 0 -27 c0 -63 63 -79 245 -60 138 14 238
40 269 69 20 19 24 35 29 115 3 52 1 113 -4 135 -6 25 -6 49 0 59 5 10 5 101
-1 230 -10 200 -10 214 7 226 17 12 17 21 6 121 -12 108 -81 458 -100 508 -13
33 -8 34 33 2 80 -61 219 -105 332 -105 43 0 54 3 59 19 4 12 12 18 21 14 26
-10 43 15 34 48 -7 24 -6 29 9 29 32 0 41 21 30 70 -8 33 -7 261 0 277 1 0 11
-1 23 -5 21 -5 21 -4 15 99 -9 165 -83 403 -151 494 -17 22 -22 39 -19 62 5
28 2 33 -21 39 -28 7 -86 92 -86 125 0 25 -48 111 -83 147 -45 48 -99 77 -218
118 -84 30 -123 37 -207 42 -95 4 -105 7 -119 28 -19 30 -57 31 -77 2z m61
-14 c2 -6 -6 -14 -19 -17 -27 -7 -32 -3 -24 18 6 18 37 17 43 -1z m318 -68
c162 -48 261 -125 294 -229 16 -47 10 -55 -67 -94 -52 -26 -66 -28 -162 -27
-58 0 -157 4 -220 8 -114 8 -115 8 -150 -18 -121 -90 -315 -119 -437 -66 -94
41 -82 111 42 235 82 82 260 195 340 216 17 5 84 7 150 5 93 -3 140 -10 210
-30z m355 -356 c0 -11 -47 5 -68 23 -12 9 -11 13 5 24 16 12 21 11 41 -12 12
-14 22 -30 22 -35z m-77 -4 c29 -8 71 -20 95 -26 38 -10 55 -31 34 -44 -4 -2
-52 4 -107 14 -188 35 -196 39 -122 57 23 5 44 11 45 12 2 0 27 -6 55 -13z
m-466 -63 c46 -46 91 -79 137 -101 66 -32 173 -61 226 -62 25 0 25 0 27 -103
1 -56 11 -156 23 -222 l21 -120 -43 -38 c-58 -53 -187 -112 -288 -133 -99 -20
-241 -15 -330 12 -58 17 -188 81 -230 113 l-24 19 33 164 c20 95 36 208 39
271 5 106 5 107 31 113 134 27 217 63 272 120 18 19 34 34 36 34 1 0 33 -30
70 -67z m56 15 c34 -28 85 -62 112 -74 80 -37 197 -57 290 -51 79 5 79 5 50
-11 -49 -27 -201 -21 -298 12 -94 32 -137 58 -202 125 -67 69 -35 68 48 -1z
m142 37 c33 -4 94 -17 136 -31 41 -13 115 -31 163 -39 49 -7 91 -17 95 -20 9
-10 -28 -34 -69 -45 -46 -13 -152 -13 -226 1 -76 14 -167 58 -224 110 l-45 40
55 -5 c30 -3 82 -8 115 -11z m-837 -77 c-17 -25 -46 -41 -36 -20 35 72 43 83
49 65 4 -11 -1 -29 -13 -45z m206 -21 c45 -1 104 1 131 6 41 6 47 5 30 -5 -24
-14 -166 -23 -229 -14 -25 4 -55 16 -68 26 l-23 20 39 -16 c23 -9 74 -16 120
-17z m-164 1 c0 -16 -31 -48 -46 -48 -10 0 -7 10 7 35 19 32 39 39 39 13z
m1259 -90 c49 -98 102 -296 108 -408 l5 -95 -26 34 c-14 19 -26 46 -26 60 -1
14 -7 55 -15 91 -9 36 -19 102 -24 146 -10 84 -48 180 -76 190 -20 8 -27 34
-14 50 16 20 30 6 68 -68z m-1154 58 l60 -12 -50 -12 c-56 -13 -122 -19 -129
-11 -10 9 25 49 42 49 9 -1 44 -7 77 -14z m1103 -73 c47 -67 54 -93 62 -237 6
-107 14 -160 34 -221 14 -43 24 -80 23 -82 -8 -7 -68 40 -92 71 -25 33 -27 42
-30 158 -1 68 -7 137 -13 153 -58 169 -63 217 -23 195 11 -5 28 -22 39 -37z
m-1303 -20 c-14 -36 -25 -92 -29 -148 -9 -120 -33 -219 -57 -241 -19 -17 -19
-16 -15 12 3 16 7 56 10 89 8 92 89 345 110 345 2 0 -7 -26 -19 -57z m68 37
c36 -1 38 -16 17 -91 -13 -43 -24 -119 -27 -183 -6 -102 -8 -111 -37 -150 -29
-37 -95 -91 -102 -83 -2 2 10 44 26 93 17 55 33 134 40 200 6 60 13 118 17
129 12 42 47 108 51 97 2 -7 9 -12 15 -12z m194 -77 c-3 -54 -17 -154 -31
-223 -21 -105 -56 -340 -56 -374 0 -6 -7 0 -16 12 -14 20 -14 29 -3 72 15 57
8 71 -21 45 -11 -10 -22 -16 -25 -13 -14 14 -37 163 -37 243 -1 97 13 181 43
261 19 49 20 51 72 61 28 5 58 11 66 11 11 2 13 -16 8 -95z m972 11 c69 -184
61 -418 -22 -584 -18 -35 -37 -66 -43 -67 -7 -3 -13 33 -17 104 -4 59 -15 167
-26 238 -18 117 -25 223 -22 311 1 32 9 37 103 53 4 0 16 -24 27 -55z m-1160
-474 c1 -44 -7 -71 -42 -145 -24 -49 -48 -100 -53 -113 -6 -15 -8 31 -5 135
l3 157 42 47 41 46 7 -36 c4 -20 7 -61 7 -91z m1304 -199 c1 -117 -2 -180 -8
-178 -55 18 -111 267 -90 403 l7 47 44 -45 44 -45 3 -182z m-239 94 c4 -54 9
-101 12 -104 3 -3 14 1 25 8 12 7 22 11 23 9 2 -2 8 -29 15 -60 7 -31 23 -79
37 -105 13 -26 24 -49 24 -51 0 -7 -100 11 -164 29 -120 35 -202 104 -223 187
-21 80 -19 86 40 106 30 10 85 39 123 65 81 56 78 59 88 -84z m-1180 -43 c-8
-73 -12 -87 -28 -90 -15 -3 -17 0 -12 14 4 11 13 71 19 134 11 108 12 112 21
72 5 -26 5 -77 0 -130z m315 120 c32 -22 73 -45 90 -52 35 -14 35 -13 20 -112
-12 -73 -12 -73 -73 -125 -91 -75 -181 -95 -212 -48 -15 23 -15 28 6 72 12 26
27 68 33 94 9 39 15 48 32 46 18 -2 21 6 29 81 5 45 10 82 12 82 2 0 30 -17
63 -38z m-157 -42 c-13 -20 -22 -27 -25 -18 -4 12 32 62 40 54 2 -2 -5 -18
-15 -36z m1304 -227 c-1 -1 -8 2 -16 7 -12 8 -15 32 -13 125 1 64 6 121 10
128 4 7 11 -49 14 -123 4 -74 6 -136 5 -137z m-153 140 c6 -71 29 -162 47
-188 4 -5 10 -22 14 -37 5 -20 3 -28 -7 -28 -34 0 -70 69 -92 174 -15 74 -15
81 2 122 10 23 20 41 24 39 3 -3 9 -39 12 -82z m-773 38 c93 -19 162 -22 256
-11 53 6 99 9 102 5 4 -3 -4 -15 -18 -25 -45 -35 -133 -62 -212 -67 -70 -5
-82 -3 -142 25 -61 28 -66 34 -66 62 0 25 3 30 18 26 9 -3 37 -9 62 -15z
m-427 -6 c-3 -9 -8 -14 -10 -11 -3 3 -2 9 2 15 9 16 15 13 8 -4z m51 -64 c-17
-73 -44 -131 -61 -131 -7 0 -13 4 -13 9 0 12 79 181 84 181 3 0 -2 -26 -10
-59z m767 -60 c18 -63 49 -201 104 -461 7 -36 16 -102 20 -146 l7 -81 -34 -6
c-131 -23 -325 -39 -418 -34 -116 6 -230 25 -230 37 0 11 78 26 210 40 57 7
119 18 136 25 29 12 32 18 52 114 12 56 22 108 22 116 0 8 10 19 21 26 20 10
21 17 17 128 -4 128 -17 165 -71 205 -36 26 -127 28 -174 3 -41 -22 -58 -54
-83 -159 -16 -65 -18 -100 -13 -162 5 -70 4 -81 -12 -92 -30 -22 -55 -17 -55
11 0 24 -7 33 -43 58 -16 11 -16 16 -2 70 15 57 47 237 60 330 4 27 9 47 13
45 57 -31 109 -49 153 -54 67 -7 185 16 242 49 23 13 46 21 50 17 4 -4 17 -39
28 -79z m-811 69 c0 -5 -2 -10 -4 -10 -3 0 -8 5 -11 10 -3 6 -1 10 4 10 6 0
11 -4 11 -10z m-15 -30 c10 -16 -38 -99 -57 -100 -23 0 -23 10 4 65 21 43 40
56 53 35z m656 -95 c15 -8 33 -31 42 -52 18 -46 31 -181 22 -224 -6 -26 -11
-30 -29 -25 -13 3 -79 11 -147 17 -68 6 -128 15 -133 20 -21 19 43 245 74 264
42 26 120 26 171 0z m-361 -77 c-7 -40 -15 -77 -17 -81 -9 -14 -83 65 -75 79
9 16 95 84 100 79 2 -2 -1 -37 -8 -77z m-289 36 c4 -2 19 -28 33 -59 15 -30
41 -64 57 -76 l30 -21 35 37 35 38 32 -29 c18 -16 35 -31 39 -34 4 -3 2 -34
-5 -69 l-13 -63 -50 -17 c-27 -10 -65 -25 -86 -34 l-36 -17 -64 43 c-34 24
-82 51 -105 61 -46 20 -51 27 -29 45 7 6 16 25 19 40 4 16 12 34 19 40 7 6 28
24 47 40 l34 30 -53 3 c-38 2 -56 8 -64 21 -17 27 10 39 69 31 28 -3 53 -8 56
-10z m-131 -49 c7 -8 24 -15 38 -15 20 0 23 -3 15 -11 -14 -14 -69 5 -77 27
-7 19 8 18 24 -1z m300 -12 c-1 -10 -12 -31 -25 -48 l-24 -29 -26 24 c-36 34
-31 45 23 57 26 6 48 11 50 12 1 0 2 -7 2 -16z m-308 -29 c21 -11 27 -19 20
-26 -12 -12 -62 14 -62 32 0 13 6 13 42 -6z m-2 -46 c23 -4 23 -5 6 -13 -21
-9 -47 3 -55 26 -3 11 -1 12 10 2 8 -6 25 -13 39 -15z m2 -32 c7 4 8 2 4 -4
-10 -16 -28 -15 -52 3 -18 14 -17 14 9 5 16 -6 33 -7 39 -4z m-24 -44 c-26
-64 -55 -122 -61 -122 -10 0 -2 28 24 88 10 23 23 42 29 42 7 0 10 -4 8 -8z
m53 -39 c43 -21 131 -84 125 -90 -2 -2 -49 1 -104 8 l-100 12 21 43 c11 24 22
44 22 44 1 0 17 -7 36 -17z m752 -19 c15 -3 27 -11 27 -19 0 -19 -39 -205 -45
-215 -6 -9 -92 -24 -232 -40 -97 -11 -103 -13 -194 -53 l-55 -25 61 61 c34 34
74 87 89 118 23 48 32 58 67 68 45 14 59 38 51 90 l-5 34 104 -7 c57 -4 116
-9 132 -12z m-351 -48 c38 -57 -57 -213 -180 -298 -65 -45 -217 -96 -324 -109
-219 -27 -348 21 -348 129 0 64 33 116 103 163 106 70 224 93 399 77 97 -9
114 -13 95 -22 -25 -13 -34 -50 -17 -72 35 -41 185 22 166 71 -3 8 -19 18 -36
22 -38 7 -36 9 37 38 57 24 90 24 105 1z m-185 -42 c-3 -3 -12 -4 -19 -1 -8 3
-5 6 6 6 11 1 17 -2 13 -5z m26 -28 c24 -19 22 -24 -19 -41 -47 -20 -80 -19
-88 1 -11 29 11 44 79 52 6 1 18 -5 28 -12z m318 -261 l36 -5 7 -252 c6 -186
5 -253 -4 -256 -6 -2 -23 -14 -38 -27 l-26 -23 -61 44 c-34 23 -100 57 -147
74 -48 17 -92 38 -99 47 -17 20 0 47 32 51 13 2 29 8 34 14 7 7 -2 9 -28 5
-36 -6 -38 -5 -31 16 4 12 13 42 20 67 23 80 75 265 79 276 2 7 32 5 97 -7 51
-10 109 -21 129 -24z m473 -67 c3 -57 7 -144 10 -194 l5 -92 -40 5 c-25 4 -39
2 -39 -6 0 -6 10 -11 23 -11 13 0 31 -6 41 -13 15 -11 16 -18 8 -34 -8 -14 -8
-31 -2 -54 6 -19 10 -35 10 -37 0 -1 -11 0 -25 4 -31 8 -33 -8 -2 -21 17 -8
22 -18 21 -48 -1 -21 -4 -40 -7 -43 -3 -3 -47 8 -99 24 -58 19 -128 32 -187
37 -108 8 -121 11 -121 33 0 20 29 52 47 52 7 0 13 5 13 11 0 6 -7 8 -15 5 -8
-3 -21 -8 -28 -11 -11 -5 -15 26 -20 152 -4 87 -7 191 -7 231 l0 72 45 0 c52
0 318 29 324 36 2 2 12 4 22 4 15 0 18 -14 23 -102z m-747 -382 c102 -34 246
-121 238 -144 -3 -8 -5 -27 -5 -44 l0 -31 -102 6 c-141 8 -306 61 -322 102
-20 52 13 141 58 160 28 12 33 11 58 -10 15 -13 49 -30 75 -39z m344 -100 c19
-7 75 -16 126 -20 117 -8 276 -62 281 -94 3 -16 -7 -24 -50 -40 -98 -36 -162
-47 -280 -47 -108 0 -119 2 -140 22 -18 19 -22 34 -23 82 0 49 4 64 24 85 14
14 25 26 27 26 1 0 17 -6 35 -14z m-486 -74 c14 -8 15 -11 5 -12 -25 0 -80 39
-80 57 0 14 5 12 28 -9 15 -14 36 -30 47 -36z m60 -22 c13 -6 15 -9 5 -9 -8 0
-22 4 -30 9 -18 12 -2 12 25 0z m183 -37 c-10 -2 -26 -2 -35 0 -10 3 -2 5 17
5 19 0 27 -2 18 -5z m95 -10 c-7 -2 -19 -2 -25 0 -7 3 -2 5 12 5 14 0 19 -2
13 -5z m517 -33 c-8 -5 -19 -10 -25 -10 -5 0 -3 5 5 10 8 5 20 10 25 10 6 0 3
-5 -5 -10z m-342 -50 l67 -7 -74 -2 c-57 -1 -79 3 -93 16 -27 24 -22 36 8 16
14 -9 56 -20 92 -23z"></path>
<path style="position: relative;" class="node" id="node2" d="M1075 2409 c-12 -18 1 -20 31 -4 l29 15 -27 0 c-15 0 -30 -5 -33 -11z"></path>
<path style="position: relative;" class="node" id="node3" d="M1214 2405 c30 -16 43 -14 31 4 -3 6 -18 11 -33 11 l-27 0 29 -15z"></path>
<path style="position: relative;" class="node" id="node4" d="M1100 2356 c-10 -13 -10 -19 0 -32 12 -14 15 -14 29 0 14 15 14 17 0
32 -14 14 -17 14 -29 0z"></path>
<path style="position: relative;" class="node" id="node5" d="M1194 2355 c-4 -8 -3 -23 0 -32 6 -15 8 -15 23 -1 16 17 12 48 -7 48
-6 0 -13 -7 -16 -15z"></path>
<path style="position: relative;" class="node" id="node6" d="M1117 2283 c-31 -8 -8 -22 28 -16 21 3 41 1 50 -7 18 -15 20 1 3 18
-12 12 -46 14 -81 5z"></path>
<path style="position: relative;" class="node" id="node7" d="M1087 2133 c-13 -12 -7 -23 23 -38 39 -20 58 -19 99 6 25 15 31 23
22 32 -8 8 -14 7 -23 -5 -22 -29 -63 -33 -87 -9 -23 23 -25 24 -34 14z"></path>
<path style="position: relative;" class="node" id="node8" d="M1135 1720 c-16 -26 86 -40 117 -16 27 20 9 27 -24 10 -26 -13 -32
-13 -58 0 -17 8 -32 10 -35 6z"></path>
<path style="position: relative;" class="node" id="node9" d="M72 968 c-21 -21 -14 -66 12 -83 19 -13 28 -14 51 -3 35 16 61 64 44
84 -14 17 -90 19 -107 2z m72 -4 c38 -15 7 -68 -36 -62 -30 4 -39 54 -11 61
28 7 30 7 47 1z"></path>
<path style="position: relative;" class="node" id="node10" d="M576 889 c-17 -14 -26 -29 -24 -43 7 -46 138 -25 138 22 0 45 -68 57
-114 21z m94 -14 c0 -20 -44 -47 -72 -43 -31 4 -36 36 -6 47 37 15 78 13 78
-4z"></path>
<path style="position: relative;" class="node" id="node11" d="M173 850 c-39 -23 -43 -52 -11 -74 32 -23 65 -20 93 9 31 30 31 39 3
65 -27 25 -44 25 -85 0z m77 -15 c26 -32 -28 -63 -76 -44 l-29 11 28 24 c32
27 59 31 77 9z"></path>
<path style="position: relative;" class="node" id="node12" d="M398 833 c-50 -6 -67 -27 -43 -53 34 -38 120 -16 120 30 0 27 -11 30
-77 23z m60 -25 c-7 -21 -54 -33 -80 -21 l-23 11 25 10 c36 15 83 15 78 0z"></path>
</g>
<g transform="translate(0.000000,300.000000) scale(0.100000,-0.100000)" fill="#FFFFFF" stroke="none">


<path style="position: relative;" class="node" id="node15" d="M1034 2965 c-8 -21 -3 -25 24 -18 13 3 21 11 19 17 -6 18 -37 19 -43
1z"></path>
<path style="position: relative;" class="node" id="node16" d="M1035 2921 c-80 -21 -258 -134 -340 -216 -124 -124 -136 -194 -42
-235 122 -53 316 -24 437 66 35 26 36 26 150 18 63 -4 162 -8 220 -8 96 -1
110 1 162 27 77 39 83 47 67 94 -48 150 -245 251 -504 259 -66 2 -133 0 -150
-5z"></path>
<path style="position: relative;" class="node" id="node17" d="M1687 2587 c-22 -15 -11 -28 36 -46 33 -13 35 -1 5 34 -20 23 -25 24
-41 12z"></path>
<path style="position: relative;" class="node" id="node18" d="M1573 2537 c-74 -18 -66 -22 122 -57 55 -10 103 -16 107 -14 21 13 4
34 -34 44 -24 6 -66 18 -95 26 -28 7 -53 13 -55 13 -1 -1 -22 -7 -45 -12z"></path>
<path style="position: relative;" class="node" id="node19" d="M1101 2506 c-55 -57 -138 -93 -272 -120 -26 -6 -26 -7 -31 -113 -3
-63 -19 -176 -39 -271 l-33 -164 24 -19 c42 -32 172 -96 230 -113 89 -27 231
-32 330 -12 101 21 230 80 288 133 l43 38 -21 120 c-12 66 -22 166 -23 222 -2
103 -2 103 -27 103 -53 1 -160 30 -226 62 -46 22 -91 55 -137 101 -37 37 -69
67 -70 67 -2 0 -18 -15 -36 -34z m5 -101 c-30 -16 -43 -14 -31 4 3 6 18 11 33
11 l27 0 -29 -15z m139 4 c12 -18 -1 -20 -31 -4 l-29 15 27 0 c15 0 30 -5 33
-11z m-116 -85 c-14 -14 -17 -14 -29 0 -10 13 -10 19 0 32 12 14 15 14 29 0
14 -15 14 -17 0 -32z m98 30 c3 -8 -1 -23 -10 -32 -15 -14 -17 -14 -23 1 -8
21 1 47 16 47 6 0 13 -7 17 -16z m-29 -76 c17 -17 15 -33 -3 -18 -9 8 -29 10
-50 7 -36 -6 -59 8 -28 16 35 9 69 7 81 -5z m-77 -159 c24 -24 65 -20 87 9 9
12 15 13 23 5 9 -9 3 -17 -22 -32 -41 -25 -60 -26 -99 -6 -30 15 -36 26 -23
38 9 10 11 9 34 -14z m107 -405 c33 17 51 10 24 -10 -21 -16 -76 -18 -103 -3
-31 16 -12 29 21 13 26 -13 32 -13 58 0z"></path>
<path style="position: relative;" class="node" id="node20" d="M1215 2489 c65 -67 108 -93 202 -125 97 -33 249 -39 298 -12 29 16
29 16 -50 11 -93 -6 -210 14 -290 51 -27 12 -78 46 -112 74 -83 69 -115 70
-48 1z"></path>
<path style="position: relative;" class="node" id="node21" d="M1280 2501 c57 -52 148 -96 224 -110 74 -14 180 -14 226 -1 41 11 78
35 69 45 -4 3 -46 13 -95 20 -48 8 -122 26 -163 39 -42 14 -103 27 -136 31
-33 3 -85 8 -115 11 l-55 5 45 -40z"></path>
<path style="position: relative;" class="node" id="node22" d="M555 2473 c-11 -21 -21 -41 -23 -45 -2 -5 1 -8 6 -8 18 0 50 54 43
73 -6 15 -10 12 -26 -20z"></path>
<path style="position: relative;" class="node" id="node23" d="M638 2440 c13 -10 43 -22 68 -26 63 -9 205 0 229 14 17 10 11 11 -30
5 -78 -12 -207 -6 -251 11 l-39 16 23 -20z"></path>
<path style="position: relative;" class="node" id="node24" d="M571 2415 c-14 -25 -17 -35 -7 -35 15 0 46 32 46 48 0 26 -20 19 -39
-13z"></path>
<path style="position: relative;" class="node" id="node25" d="M1801 2406 c-13 -16 -6 -42 14 -50 28 -10 66 -106 76 -190 5 -44 15
-110 24 -146 8 -36 14 -77 15 -91 0 -14 12 -41 26 -60 l26 -34 -5 95 c-6 112
-59 310 -108 408 -38 74 -52 88 -68 68z"></path>
<path style="position: relative;" class="node" id="node26" d="M606 2388 c-9 -12 -13 -24 -10 -27 7 -8 73 -2 129 11 l50 12 -60 12
c-82 18 -92 17 -109 -8z"></path>
<path style="position: relative;" class="node" id="node27" d="M1753 2354 c-5 -14 12 -81 49 -189 6 -16 12 -85 13 -153 3 -116 5
-125 30 -158 24 -31 84 -78 92 -71 1 2 -9 39 -23 82 -20 61 -28 114 -34 221
-6 101 -13 151 -25 175 -43 83 -89 126 -102 93z"></path>
<path style="position: relative;" class="node" id="node28" d="M511 2321 c-30 -58 -81 -238 -87 -306 -3 -33 -7 -73 -10 -89 -4 -28
-4 -29 15 -12 24 22 48 121 57 241 4 56 15 112 29 148 26 66 24 74 -4 18z"></path>
<path style="position: relative;" class="node" id="node29" d="M543 2319 c-29 -62 -31 -71 -43 -193 -7 -66 -23 -145 -40 -200 -16
-49 -28 -91 -26 -93 7 -8 73 46 102 83 29 39 31 48 37 150 3 64 14 140 27 183
21 75 19 90 -17 91 -6 0 -13 5 -15 12 -2 6 -13 -8 -25 -33z"></path>
<path style="position: relative;" class="node" id="node30" d="M703 2347 c-52 -10 -53 -12 -72 -61 -30 -80 -44 -164 -43 -261 0 -80
23 -229 37 -243 3 -3 14 3 25 13 29 26 36 12 21 -45 -11 -43 -11 -52 3 -72 9
-12 16 -18 16 -12 0 34 35 269 56 374 32 158 43 321 23 318 -8 0 -38 -6 -66
-11z"></path>
<path style="position: relative;" class="node" id="node31" d="M1668 2318 c-45 -9 -48 -12 -49 -42 -3 -88 4 -194 22 -311 11 -71 22
-179 26 -238 4 -71 10 -107 17 -104 18 5 74 128 90 197 26 113 30 207 12 307
-16 92 -52 204 -64 202 -4 -1 -28 -6 -54 -11z"></path>
<path style="position: relative;" class="node" id="node32" d="M534 1881 l-42 -47 -3 -157 c-3 -104 -1 -150 5 -135 5 13 29 64 53
113 45 95 52 145 35 236 l-7 36 -41 -46z"></path>
<path style="position: relative;" class="node" id="node33" d="M1795 1826 c-21 -136 35 -385 90 -403 6 -2 9 61 8 178 l-3 182 -44
45 -44 45 -7 -47z"></path>
<path style="position: relative;" class="node" id="node34" d="M1566 1779 c-38 -26 -93 -55 -123 -65 -59 -20 -61 -26 -40 -106 21
-83 103 -152 223 -187 64 -18 164 -36 164 -29 0 2 -11 25 -24 51 -14 26 -30
74 -37 105 -7 31 -13 58 -15 60 -1 2 -11 -2 -23 -9 -11 -7 -22 -11 -25 -8 -3
3 -8 50 -12 104 -10 143 -7 140 -88 84z"></path>

<path style="position: relative;" class="node" id="node36" d="M453 1710 c-6 -63 -15 -123 -19 -134 -5 -14 -3 -17 12 -14 16 3 20
17 28 90 5 53 5 104 0 130 -9 40 -10 36 -21 -72z"></path>
<path style="position: relative;" class="node" id="node37" d="M714 1728 c-8 -75 -11 -83 -29 -81 -17 2 -23 -7 -32 -46 -6 -26 -21
-68 -33 -94 -21 -44 -21 -49 -6 -72 31 -47 121 -27 212 48 61 52 61 52 73 125
15 99 15 98 -20 112 -17 7 -58 30 -90 52 -33 21 -61 38 -63 38 -2 0 -7 -37
-12 -82z"></path>
<path style="position: relative;" class="node" id="node38" d="M623 1747 c-11 -12 -18 -28 -16 -35 3 -9 12 -2 25 18 23 39 19 48 -9
17z"></path>
<path style="position: relative;" class="node" id="node39" d="M1917 1763 c-4 -7 -9 -64 -10 -128 -2 -93 1 -117 13 -125 8 -5 15 -8
16 -7 1 1 -1 63 -5 137 -3 74 -10 130 -14 123z"></path>
<path style="position: relative;" class="node" id="node40" d="M1747 1686 c-17 -41 -17 -48 -2 -122 22 -105 58 -174 92 -174 10 0
12 8 7 28 -4 15 -10 32 -14 37 -18 26 -41 117 -47 188 -3 43 -9 79 -12 82 -4
2 -14 -16 -24 -39z"></path>
<path style="position: relative;" class="node" id="node41" d="M930 1670 c0 -28 5 -34 66 -62 60 -28 72 -30 142 -25 79 5 167 32
212 67 14 10 22 22 18 25 -3 4 -49 1 -102 -5 -108 -13 -221 -3 -318 26 -15 4
-18 -1 -18 -26z"></path>
<path style="position: relative;" class="node" id="node42" d="M575 1679 c-4 -6 -5 -12 -2 -15 2 -3 7 2 10 11 7 17 1 20 -8 4z"></path>
<path style="position: relative;" class="node" id="node43" d="M600 1584 c-22 -47 -40 -89 -40 -95 0 -23 28 -6 44 27 16 36 48 154
40 154 -2 0 -22 -39 -44 -86z"></path>
<path style="position: relative;" class="node" id="node44" d="M1323 1613 c-57 -33 -175 -56 -242 -49 -44 5 -96 23 -153 54 -4 2 -9
-18 -13 -45 -13 -93 -45 -273 -60 -330 -14 -54 -14 -59 2 -70 36 -25 43 -34
43 -58 0 -28 25 -33 55 -11 16 11 17 22 12 92 -5 62 -3 97 13 162 25 105 42
137 83 159 47 25 138 23 174 -3 54 -40 67 -77 71 -205 4 -111 3 -118 -17 -128
-11 -7 -21 -18 -21 -26 0 -8 -10 -60 -22 -116 -20 -96 -23 -102 -52 -114 -17
-7 -79 -18 -136 -25 -132 -14 -210 -29 -210 -40 0 -12 114 -31 230 -37 93 -5
287 11 418 34 l34 6 -7 81 c-4 44 -13 110 -20 146 -81 381 -116 526 -132 540
-4 4 -27 -4 -50 -17z"></path>
<path style="position: relative;" class="node" id="node45" d="M575 1620 c3 -5 8 -10 11 -10 2 0 4 5 4 10 0 6 -5 10 -11 10 -5 0 -7
-4 -4 -10z"></path>
<path style="position: relative;" class="node" id="node46" d="M522 1555 c-27 -55 -27 -65 -4 -65 19 1 67 84 57 100 -13 21 -32 8
-53 -35z"></path>
<path style="position: relative;" class="node" id="node47" d="M1104 1511 c-45 -11 -54 -19 -74 -65 -26 -58 -56 -204 -44 -215 5 -5
65 -14 133 -20 68 -6 134 -14 147 -17 18 -5 23 -1 29 25 9 43 -4 178 -22 224
-23 56 -97 86 -169 68z"></path>
<path style="position: relative;" class="node" id="node48" d="M830 1464 c-25 -20 -48 -41 -52 -48 -8 -14 66 -93 75 -79 7 12 30
154 25 158 -2 2 -24 -12 -48 -31z"></path>
<path style="position: relative;" stroke-width="20" class="node" id="node49" d="M460 1460 c-12 -7 -12 -13 -4 -27 8 -13 26 -19 64 -21 l53 -3 -34
-30 c-19 -16 -40 -34 -47 -40 -7 -6 -15 -24 -19 -40 -3 -15 -12 -34 -19 -40
-22 -18 -17 -25 29 -45 23 -10 71 -37 105 -61 l64 -43 36 17 c21 9 59 24 86
34 l50 17 13 63 c7 35 9 66 5 69 -4 3 -21 18 -39 34 l-32 29 -35 -38 -35 -37
-30 21 c-16 12 -42 46 -57 76 -14 31 -29 57 -33 59 -17 10 -108 15 -121 6z"></path>
<path style="position: relative;" class="node" id="node50" d="M426 1406 c8 -22 63 -41 77 -27 8 8 5 11 -15 11 -14 0 -31 7 -38 15
-16 19 -31 20 -24 1z"></path>
<path style="position: relative;" class="node" id="node51" d="M698 1397 c-54 -12 -59 -23 -23 -57 l26 -24 24 29 c13 17 24 38 25
48 0 9 -1 16 -2 16 -2 -1 -24 -6 -50 -12z"></path>
<path style="position: relative;" class="node" id="node52" d="M400 1370 c0 -18 50 -44 62 -32 7 7 1 15 -20 26 -36 19 -42 19 -42 6z"></path>
<path style="position: relative;" class="node" id="node53" d="M391 1331 c8 -23 34 -35 55 -26 17 8 17 9 -6 13 -14 2 -31 9 -39 15
-11 10 -13 9 -10 -2z"></path>
<path style="position: relative;" class="node" id="node54" d="M394 1285 c24 -18 42 -19 52 -3 4 6 3 8 -4 4 -6 -3 -23 -2 -39 4 -26
9 -27 9 -9 -5z"></path>
<path style="position: relative;" class="node" id="node55" d="M381 1208 c-26 -60 -34 -88 -24 -88 6 0 35 58 61 122 2 4 -1 8 -8 8
-6 0 -19 -19 -29 -42z"></path>

<path style="position: relative;" class="node" id="node57" d="M992 1169 c8 -52 -6 -76 -51 -90 -35 -10 -44 -20 -67 -68 -15 -31
-55 -84 -89 -118 l-61 -61 55 25 c91 40 97 42 194 53 140 16 226 31 232 40 6
10 45 196 45 215 0 17 -29 23 -159 31 l-104 7 5 -34z"></path>
<path style="position: relative;" class="node" id="node58" d="M767 1135 c-73 -29 -75 -31 -37 -38 17 -4 33 -14 36 -22 19 -49 -131
-112 -166 -71 -17 22 -8 59 17 72 19 9 2 13 -95 22 -175 16 -293 -7 -399 -77
-131 -88 -141 -225 -19 -276 93 -39 296 -26 450 29 147 53 246 132 297 241 58
121 26 166 -84 120z m-588 -169 c17 -20 -9 -68 -44 -84 -23 -11 -32 -10 -51 3
-26 17 -33 62 -12 83 17 17 93 15 107 -2z m499 -68 c36 -36 -10 -81 -80 -76
-35 2 -44 7 -46 24 -6 45 92 86 126 52z m-420 -48 c28 -26 28 -35 -3 -65 -28
-29 -61 -32 -93 -9 -32 22 -28 51 11 74 41 25 58 25 85 0z m217 -40 c0 -46
-86 -68 -120 -30 -24 26 -7 47 43 53 66 7 77 4 77 -23z"></path>
<path style="position: relative;" class="node" id="node59" d="M97 963 c-28 -7 -19 -57 11 -61 43 -6 74 47 36 62 -17 6 -19 6 -47
-1z"></path>
<path style="position: relative;" class="node" id="node60" d="M592 879 c-30 -11 -25 -43 6 -47 28 -4 72 23 72 43 0 17 -41 19 -78
4z"></path>
<path style="position: relative;" class="node" id="node61" d="M173 826 l-28 -24 29 -11 c48 -19 102 12 76 44 -18 22 -45 18 -77 -9z"></path>
<path style="position: relative;" class="node" id="node62" d="M380 808 l-25 -10 23 -11 c26 -12 73 0 80 21 5 15 -42 15 -78 0z"></path>
<path style="position: relative;" class="node" id="node63" d="M668 1093 c7 -3 16 -2 19 1 4 3 -2 6 -13 5 -11 0 -14 -3 -6 -6z"></path>
<path style="position: relative;" class="node" id="node64" d="M648 1073 c-14 -2 -31 -10 -37 -17 -16 -20 -2 -46 24 -46 25 0 95 27
95 37 0 9 -34 33 -45 31 -5 0 -22 -3 -37 -5z"></path>
<path style="position: relative;" class="node" id="node65" d="M805 836 c-4 -11 -56 -196 -79 -276 -7 -25 -16 -55 -20 -67 -7 -21
-5 -22 31 -16 26 4 35 2 28 -5 -5 -6 -21 -12 -34 -14 -32 -4 -49 -31 -32 -51
7 -9 51 -30 99 -47 47 -17 113 -51 147 -74 l61 -44 26 23 c15 13 32 25 38 27
9 3 10 70 4 256 l-7 252 -36 5 c-20 3 -78 14 -129 24 -65 12 -95 14 -97 7z"></path>

<path style="position: relative;" class="node" id="node67" d="M1459 836 c-6 -7 -272 -36 -324 -36 l-45 0 0 -72 c0 -40 3 -144 7
-231 5 -126 9 -157 20 -152 7 3 20 8 28 11 8 3 15 1 15 -5 0 -6 -6 -11 -13
-11 -18 0 -47 -32 -47 -52 0 -22 13 -25 121 -33 59 -5 129 -18 187 -37 52 -16
96 -27 99 -24 3 3 6 22 7 43 1 30 -4 40 -21 48 -31 13 -29 29 2 21 14 -4 25
-5 25 -4 0 2 -4 18 -10 37 -6 23 -6 40 2 54 8 16 7 23 -8 34 -10 7 -28 13 -41
13 -13 0 -23 5 -23 11 0 8 14 10 39 6 l40 -5 -5 92 c-15 295 -15 296 -33 296
-10 0 -20 -2 -22 -4z"></path>
<path style="position: relative;" class="node" id="node68" d="M624 405 c-45 -19 -78 -108 -58 -160 16 -41 181 -94 322 -102 l102
-6 0 31 c0 17 2 36 5 44 8 23 -136 110 -238 144 -26 9 -60 26 -75 39 -25 21
-30 22 -58 10z"></path>
<path style="position: relative;" class="node" id="node69" d="M1039 244 c-20 -21 -24 -36 -24 -85 1 -48 5 -63 23 -82 21 -20 32
-22 140 -22 118 0 182 11 280 47 43 16 53 24 50 40 -5 32 -164 86 -281 94 -51
4 -107 13 -126 20 -18 8 -34 14 -35 14 -2 0 -13 -12 -27 -26z"></path>
<path style="position: relative;" class="node" id="node70" d="M540 227 c0 -18 55 -57 80 -57 10 1 9 4 -5 12 -11 6 -32 22 -47 36
-23 21 -28 23 -28 9z"></path>
<path style="position: relative;" class="node" id="node71" d="M650 160 c8 -5 22 -9 30 -9 10 0 8 3 -5 9 -27 12 -43 12 -25 0z"></path>
<path style="position: relative;" class="node" id="node72" d="M823 123 c9 -2 25 -2 35 0 9 3 1 5 -18 5 -19 0 -27 -2 -17 -5z"></path>
<path style="position: relative;" class="node" id="node73" d="M928 113 c6 -2 18 -2 25 0 6 3 1 5 -13 5 -14 0 -19 -2 -12 -5z"></path>
<path style="position: relative;" class="node" id="node74" d="M1450 80 c-8 -5 -10 -10 -5 -10 6 0 17 5 25 10 8 5 11 10 5 10 -5 0
-17 -5 -25 -10z"></path>
<path style="position: relative;" class="node" id="node75" d="M1010 62 c0 -5 8 -16 18 -25 14 -13 36 -17 93 -16 l74 2 -67 7 c-36
3 -78 14 -92 23 -14 10 -26 14 -26 9z"></path>
</g>
</svg>