<!--?xml version="1.0" standalone="no"?-->

<svg xmlns="http://www.w3.org/2000/svg" width="187.000000pt" height="300.000000pt" viewBox="0 0 187.000000 300.000000" preserveAspectRatio="xMidYMid meet">
<g transform="translate(0.000000,300.000000) scale(0.100000,-0.100000)" fill="#060606" stroke="none">
<path style="position: relative;" class="node" id="node1" d="M758 2981 c-25 -10 -60 -28 -76 -40 -17 -11 -40 -21 -51 -21 -13 0
-25 -9 -30 -23 -5 -13 -21 -38 -37 -56 l-27 -33 21 -51 c13 -34 18 -65 15 -89
-4 -33 -2 -38 25 -52 47 -24 58 -40 82 -118 19 -61 32 -82 77 -125 29 -29 53
-55 53 -58 0 -3 -34 -21 -74 -40 -76 -36 -101 -61 -126 -125 -30 -79 -87 -169
-144 -225 -57 -56 -127 -98 -255 -152 -34 -14 -37 -29 -17 -83 3 -8 2 -21 -3
-29 -8 -13 -18 -12 -69 3 -40 13 -70 16 -89 11 -27 -8 -27 -8 17 -17 25 -5 51
-16 59 -23 18 -18 7 -45 -19 -45 -11 0 -20 -5 -20 -11 0 -17 109 -5 149 16
l33 17 27 -32 26 -32 28 22 c33 26 168 190 265 322 66 90 89 115 97 107 2 -2
15 -46 29 -98 l25 -94 -33 -31 c-18 -17 -47 -44 -65 -60 -52 -46 -79 -98 -86
-162 -10 -82 17 -151 103 -272 168 -234 197 -295 209 -433 7 -80 -2 -111 -102
-339 -95 -217 -92 -202 -50 -224 l35 -19 0 -129 0 -128 29 0 c33 0 47 13 57
55 8 34 31 65 49 65 18 0 42 -41 50 -84 7 -35 8 -36 55 -36 26 0 75 3 109 6
l62 7 -3 51 c-3 50 -4 52 -52 77 -54 29 -52 35 14 38 25 1 48 5 52 9 11 12
-12 612 -27 685 -10 48 -43 125 -110 259 -53 104 -94 192 -91 195 4 5 166 -97
351 -221 l90 -61 3 -115 c4 -149 -9 -281 -53 -546 -8 -51 -15 -106 -15 -124
l0 -32 63 4 62 3 -3 -80 c-2 -44 -5 -87 -8 -96 -6 -22 20 -41 51 -37 22 2 30
12 43 52 30 87 70 86 96 -3 9 -31 19 -47 32 -49 10 -2 33 -10 51 -18 44 -20
106 -18 134 5 22 17 22 21 10 60 -10 36 -22 48 -74 81 -34 21 -71 45 -82 54
-19 15 -19 16 -2 30 17 13 18 25 12 143 -17 333 -88 777 -134 842 -35 49 -192
151 -356 230 -168 81 -212 116 -260 204 l-19 35 35 46 c19 25 41 48 50 51 10
3 37 -8 63 -25 47 -32 246 -129 303 -148 l32 -11 -2 37 -2 37 55 5 c81 8 169
62 93 57 -42 -3 -39 41 4 68 38 24 41 35 11 35 -13 0 -40 -20 -70 -51 -37 -39
-52 -49 -68 -44 -24 8 -25 19 -5 75 8 24 14 45 12 47 -2 2 -61 -2 -130 -9 -70
-6 -130 -9 -133 -5 -4 3 -11 109 -15 233 -11 291 -17 301 -139 255 l-51 -19
-10 24 c-15 42 -11 89 12 115 12 13 26 36 31 52 8 22 16 27 44 27 52 0 74 31
72 99 -1 31 1 66 6 78 6 18 1 28 -19 47 -20 19 -25 32 -23 61 2 40 -19 65 -54
65 -11 0 -35 16 -55 35 -29 28 -44 35 -77 35 -23 1 -52 7 -66 15 -32 18 -35
18 -92 -4z"></path>
</g>
<g transform="translate(0.000000,300.000000) scale(0.100000,-0.100000)" fill="#A0A0A0" stroke="none">


<path style="position: relative;" class="node" id="node4" d="M1846 15 c-19 -15 -19 -15 2 -15 13 0 22 6 22 15 0 18 0 18 -24 0z"></path>
</g>
</svg>