<!--?xml version="1.0" standalone="no"?-->

<svg version="1.0" xmlns="http://www.w3.org/2000/svg" width="300.000000pt" height="300.000000pt" viewBox="0 0 300.000000 300.000000" preserveAspectRatio="xMidYMid meet">
<g transform="translate(0.000000,300.000000) scale(0.100000,-0.100000)" fill="#060606" stroke="none">
<path class="node" id="node1" d="M1503 2930 c-42 -25 -52 -45 -63 -137 -6 -43 -18 -94 -29 -115 -15
-31 -16 -38 -4 -38 19 0 0 -37 -36 -68 l-26 -22 28 6 c36 8 35 -9 -1 -67 -43
-68 -45 -76 -51 -204 l-6 -120 -40 1 c-22 1 -87 5 -144 9 -103 7 -104 7 -144
46 -47 44 -91 64 -105 46 -21 -25 -17 -47 16 -114 15 -31 20 -33 66 -33 69 0
116 -18 116 -45 0 -17 6 -22 33 -22 17 0 85 -4 150 -8 l117 -8 2 -36 c2 -55
-2 -89 -18 -171 -9 -41 -19 -111 -24 -155 -11 -102 -36 -253 -62 -375 -11 -52
-26 -124 -34 -160 -17 -83 -31 -141 -39 -161 -5 -14 5 -18 62 -24 37 -5 77 -7
89 -6 31 3 41 -16 48 -96 10 -99 39 -259 70 -377 40 -151 33 -239 -23 -299
-33 -36 -56 -49 -101 -57 -22 -3 -35 -11 -35 -20 0 -12 17 -15 100 -12 111 3
112 3 165 91 34 57 50 54 50 -11 0 -67 11 -56 16 16 2 31 10 69 18 84 13 25
13 33 -4 69 -29 66 -49 189 -49 308 0 99 -5 142 -26 213 -6 16 -3 22 8 22 8 0
17 -5 19 -10 2 -8 26 -7 76 1 91 15 136 3 192 -50 46 -44 50 -72 23 -157 -9
-30 -14 -57 -10 -61 9 -8 81 69 118 126 34 53 36 73 9 116 l-20 32 77 7 c42 3
100 6 128 6 37 0 55 4 58 15 4 8 11 101 17 207 12 209 16 246 30 232 5 -5 29
-63 55 -129 26 -66 54 -126 63 -132 28 -22 65 -14 127 27 33 22 64 40 68 40 4
0 23 6 42 14 l34 15 -125 308 c-69 169 -128 318 -131 331 -7 30 -18 28 -59
-13 -29 -29 -42 -35 -78 -35 -23 0 -45 3 -49 6 -3 3 4 21 14 39 l20 34 -22 12
c-15 8 -45 9 -90 5 -67 -6 -69 -5 -86 21 -10 16 -20 30 -24 33 -3 3 -38 43
-77 89 -82 97 -107 144 -117 221 -19 146 -61 290 -85 290 -19 0 -10 19 12 26
21 6 21 7 -4 20 -33 17 -47 48 -17 39 20 -7 20 -6 4 19 -9 14 -28 73 -41 131
-25 111 -52 165 -83 165 -10 0 -35 7 -54 15 -48 20 -66 19 -104 -5z m287 -842
c17 -72 41 -108 133 -204 87 -91 87 -92 130 -87 35 4 46 1 71 -22 25 -23 34
-25 68 -20 35 6 39 5 36 -11 -3 -16 -14 -19 -68 -20 -77 -1 -68 18 -100 -214
-11 -85 -31 -225 -44 -310 l-22 -155 -51 3 c-37 2 -59 -2 -84 -17 -19 -12 -37
-21 -41 -21 -4 0 -17 19 -29 42 -12 24 -30 53 -39 65 -10 13 -21 40 -25 60 -4
20 -16 55 -28 78 -28 56 -27 119 5 191 58 130 69 265 34 422 -16 69 -15 75 4
149 11 42 20 85 20 95 0 34 19 18 30 -24z m200 -1087 c0 -26 -14 -71 -21 -71
-14 0 -32 47 -26 64 7 17 47 23 47 7z"></path>
<path class="node" id="node2" d="M595 2258 c-16 -6 -35 -12 -41 -14 -6 -1 -38 -53 -72 -116 -119 -224
-135 -253 -149 -277 -8 -13 -11 -27 -6 -31 16 -15 449 -337 470 -351 20 -12
29 -10 77 13 57 28 57 28 103 143 12 28 26 64 33 80 7 17 28 68 47 115 l35 85
-59 55 c-32 31 -93 73 -137 95 -46 23 -96 58 -120 84 -132 141 -127 137 -181
119z"></path>
</g>
<g transform="translate(0.000000,300.000000) scale(0.100000,-0.100000)" fill="#A1A1A1" stroke="none">



</g>
</svg>