<!--?xml version="1.0" standalone="no"?-->

<svg xmlns="http://www.w3.org/2000/svg" width="300.000000pt" height="300.000000pt" viewBox="0 0 300.000000 300.000000" preserveAspectRatio="xMidYMid meet">
<g transform="translate(0.000000,300.000000) scale(0.100000,-0.100000)" fill="#060606" stroke="none">
<path style="position: relative;" class="node" id="node1" d="M1477 2908 c-15 -15 -29 -46 -36 -77 -16 -74 -14 -99 8 -111 13 -7
22 -26 27 -58 9 -60 62 -144 86 -136 22 7 38 -23 31 -59 -8 -40 -44 -63 -108
-71 -47 -5 -62 -12 -89 -41 -18 -18 -38 -44 -45 -57 -7 -13 -21 -38 -31 -57
-21 -38 -16 -64 22 -102 13 -14 30 -49 37 -80 20 -82 7 -101 -104 -160 -49
-26 -103 -51 -120 -55 -16 -3 -42 -13 -57 -20 -25 -13 -32 -12 -75 10 -61 30
-128 42 -139 25 -4 -7 -7 -47 -5 -87 1 -59 7 -82 26 -109 13 -20 21 -42 18
-49 -3 -8 7 -28 21 -45 16 -18 24 -38 21 -48 -3 -10 3 -25 13 -35 12 -10 17
-25 15 -40 -4 -19 8 -36 54 -82 104 -102 177 -168 189 -170 34 -5 69 -32 76
-59 5 -16 13 -115 18 -220 8 -197 18 -265 51 -374 20 -65 42 -273 33 -307 -8
-30 23 -147 43 -161 21 -16 75 -17 91 -1 18 18 15 118 -5 140 -9 10 -19 37
-23 61 -5 23 -14 67 -21 97 -14 59 -15 96 -8 322 3 99 8 148 15 148 6 0 21
-35 34 -78 13 -42 49 -126 80 -187 41 -77 61 -130 69 -176 14 -84 14 -172 0
-186 -12 -12 -16 -114 -5 -132 8 -13 85 -15 104 -3 7 5 15 26 18 48 3 21 8 46
12 54 12 30 10 145 -3 160 -25 29 -53 136 -58 226 -7 111 -28 197 -72 285 -18
37 -36 80 -39 96 -6 25 26 178 40 192 5 5 24 8 114 15 49 3 153 52 211 97 20
16 44 29 52 29 9 0 19 5 22 10 3 6 15 10 26 10 17 0 18 5 13 43 -4 24 -21 60
-40 86 -37 47 -38 54 -54 220 -6 63 -18 142 -27 175 -9 34 -18 97 -20 141 l-4
80 50 38 c41 30 51 43 51 66 0 16 -7 34 -16 42 -19 16 -54 83 -54 104 0 16
-31 32 -120 60 -142 45 -181 75 -147 113 8 9 18 27 21 40 9 26 21 28 35 5 8
-16 10 -15 15 7 3 14 7 43 10 65 3 22 8 58 11 80 8 56 -30 147 -76 180 -60 43
-93 59 -144 67 -27 5 -64 11 -82 14 -25 5 -37 1 -56 -18z m393 -890 c4 -121
23 -217 74 -370 31 -92 56 -184 56 -205 1 -21 7 -49 15 -63 17 -30 19 -80 3
-80 -18 0 -122 120 -134 155 -7 18 -24 51 -38 73 -14 23 -30 60 -35 84 -6 24
-19 62 -30 85 -22 44 -21 59 13 183 27 98 75 184 76 138z m-751 -255 l106 6
-24 -20 c-48 -40 -241 -18 -241 28 0 13 4 13 27 -2 23 -15 42 -17 132 -12z
m956 -426 c0 -39 -19 -38 -23 2 -3 24 0 32 10 29 7 -3 13 -17 13 -31z"></path>
</g>
<g transform="translate(0.000000,300.000000) scale(0.100000,-0.100000)" fill="#A0A0A0" stroke="none">



<path style="position: relative;" class="node" id="node5" d="M2052 1339 c2 -19 8 -33 13 -31 15 3 12 55 -3 60 -10 3 -13 -5 -10
-29z"></path>
</g>
</svg>