<!--?xml version="1.0" standalone="no"?-->

<svg xmlns="http://www.w3.org/2000/svg" width="245.000000pt" height="300.000000pt" viewBox="0 0 245.000000 300.000000" preserveAspectRatio="xMidYMid meet">
<g transform="translate(0.000000,300.000000) scale(0.100000,-0.100000)" fill="#050505" stroke="none">
<path style="position: relative;" class="node" id="node1" d="M2260 2766 c-5 -13 -14 -27 -19 -31 -6 -3 -11 -21 -11 -39 0 -42 -19
-97 -39 -114 -14 -11 -57 -36 -170 -98 -48 -26 -99 -61 -131 -89 -14 -13 -36
-26 -50 -30 -39 -11 -191 -72 -227 -90 -38 -19 -87 -16 -91 5 -1 10 14 22 42
33 30 12 60 38 95 80 28 34 60 73 71 85 26 30 26 82 0 113 -45 53 -63 69 -79
69 -10 0 -26 7 -37 15 -29 22 -86 18 -139 -11 -42 -22 -52 -24 -77 -13 -24 10
-32 9 -48 -6 -11 -10 -20 -26 -20 -35 0 -10 -6 -36 -14 -58 -13 -36 -13 -42 1
-54 9 -7 32 -13 52 -13 27 0 35 -4 32 -15 -2 -8 -3 -42 -2 -76 2 -74 -11 -89
-66 -79 -21 3 -54 6 -73 6 -231 -5 -276 -2 -320 17 -25 11 -79 25 -120 32 -41
7 -109 21 -150 31 -41 10 -103 19 -137 19 -59 0 -65 -2 -113 -42 -99 -83 -145
-127 -139 -132 3 -4 22 10 43 30 45 44 83 45 78 2 -4 -38 12 -35 31 5 20 40
68 77 102 77 15 0 58 -14 96 -30 80 -35 228 -80 265 -80 14 0 34 -5 44 -10 11
-6 47 -13 82 -16 83 -9 92 -17 67 -57 -15 -25 -19 -51 -19 -119 0 -103 -10
-134 -47 -149 -58 -23 -70 -31 -118 -76 -49 -45 -125 -83 -195 -98 -19 -4 -75
-29 -124 -56 -111 -62 -136 -68 -274 -71 l-113 -3 6 -27 c4 -14 2 -29 -3 -32
-12 -7 -14 -74 -2 -96 6 -12 4 -24 -7 -40 -13 -19 -13 -24 -2 -31 8 -5 21 -9
29 -9 23 0 87 -70 101 -108 13 -37 17 -38 144 -47 108 -7 135 -21 135 -69 0
-26 8 -41 31 -60 17 -14 39 -26 49 -26 26 0 73 18 85 33 6 7 25 23 43 36 29
20 37 22 62 11 16 -6 31 -18 34 -25 14 -37 86 -54 86 -20 0 7 9 24 20 37 14
19 26 24 45 21 52 -10 113 -167 114 -296 1 -24 18 -71 50 -135 117 -231 129
-276 105 -393 -13 -66 -14 -82 -2 -106 16 -35 38 -36 55 -3 33 67 43 96 43
124 0 40 -33 193 -60 276 -11 36 -27 116 -35 178 -9 62 -24 151 -35 198 -22
94 -25 144 -10 144 40 0 181 -209 230 -342 21 -57 80 -123 103 -115 26 8 18
67 -19 149 -20 46 -46 94 -56 108 -11 14 -32 42 -48 63 -28 38 -84 183 -75
197 3 4 17 11 32 15 15 3 40 16 56 27 26 18 34 20 61 10 18 -7 58 -12 90 -12
51 0 61 4 88 30 20 21 36 29 48 25 11 -3 27 -2 37 4 10 5 26 12 36 15 15 5 16
8 5 26 -11 17 -10 22 2 30 8 5 24 10 35 10 21 0 75 59 75 83 0 8 16 28 35 46
19 17 35 37 35 43 0 6 10 22 22 35 19 20 20 25 7 37 -8 8 -30 19 -49 24 -30 7
-35 13 -34 38 1 45 -20 55 -106 48 -62 -4 -81 -2 -110 14 -19 11 -60 33 -90
50 -66 36 -117 46 -229 44 -95 -2 -111 6 -111 54 0 26 8 41 38 66 20 18 82 78
137 134 106 106 131 124 205 144 101 27 311 151 437 259 24 20 60 51 82 68 29
25 41 44 48 80 6 27 17 64 26 84 l16 35 -30 -4 c-30 -4 -37 6 -17 26 9 9 8 12
-5 12 -10 0 -22 -11 -27 -24z"></path>
</g>
<g transform="translate(0.000000,300.000000) scale(0.100000,-0.100000)" fill="#A1A1A1" stroke="none">

</g>
</svg>