<!--?xml version="1.0" standalone="no"?--><svg version="1.0" xmlns="http://www.w3.org/2000/svg" width="248.000000pt" height="300.000000pt" viewBox="0 0 248.000000 300.000000" preserveAspectRatio="xMidYMid meet">
<metadata>
  <rdf:rdf xmlns:rdf="http://www.w3.org/1999/02/22-rdf-syntax-ns#" xmlns:rdfs="http://www.w3.org/2000/01/rdf-schema#" xmlns:dc="http://purl.org/dc/elements/1.1/">
    <rdf:description dc:title="girl and boy small" dc:publisher="Hiox" dc:date="2015-03-26" dc:format="image/svg+xml" dc:language="en">
      <dc:creator>
        <rdf:bag>
          <rdf:li>svgimages.com</rdf:li>
        </rdf:bag>
      </dc:creator>
    </rdf:description>
  </rdf:rdf>
</metadata>
<g transform="translate(0.000000,300.000000) scale(0.100000,-0.100000)" fill="#010101" stroke="none">
<path d="M299 2986 c-84 -22 -162 -100 -175 -175 -4 -20 -17 -47 -30 -61 -52
-56 -81 -197 -91 -441 -7 -169 -20 -149 116 -174 46 -9 113 -15 150 -14 41 1
81 -4 106 -14 22 -9 52 -16 67 -17 35 0 58 -33 58 -82 0 -37 -20 -53 -35 -28
-26 41 -188 -252 -245 -440 -27 -88 -33 -127 -37 -241 l-6 -136 32 -22 c34
-24 40 -55 17 -87 -14 -19 -15 -19 -21 1 -18 55 -32 64 -63 38 -34 -28 -38
-72 -10 -113 29 -43 83 -80 116 -80 21 0 24 -4 19 -28 -5 -25 -25 -99 -41
-149 -6 -19 -1 -25 33 -42 22 -12 71 -29 108 -39 l67 -17 -2 -210 c-2 -116 -5
-229 -9 -253 -6 -48 7 -72 42 -72 12 0 28 -6 34 -14 21 -25 133 -68 191 -73
32 -3 79 -2 104 1 42 7 46 9 46 36 0 39 -21 52 -168 101 -68 23 -126 48 -129
56 -7 18 29 353 37 353 4 0 6 -66 6 -147 l-1 -147 30 -6 c17 -4 48 -19 69 -33
53 -37 127 -57 205 -57 93 0 111 7 111 39 -1 36 -29 54 -158 96 -162 53 -155
42 -133 203 10 72 20 134 22 136 2 2 51 16 109 30 127 32 220 65 220 78 0 5
-22 78 -49 161 -64 196 -93 304 -131 474 -34 158 -80 456 -80 524 0 25 -3 48
-6 52 -3 3 -23 -1 -45 -8 -46 -17 -49 -10 -23 54 11 28 30 49 63 71 26 16 51
30 56 30 17 0 76 52 90 80 19 37 19 103 0 165 -8 27 -13 49 -12 50 23 5 43 28
45 54 3 28 -1 33 -31 46 l-34 14 -6 91 c-4 66 -12 105 -31 146 -18 39 -22 56
-13 59 67 22 117 -9 117 -73 0 -54 32 -84 43 -40 9 33 -11 109 -38 144 -52 69
-173 124 -325 150 -103 17 -288 17 -351 0z" id="node1" class="node"></path>
<path d="M1890 2989 c-168 -20 -322 -92 -363 -171 -21 -41 -33 -108 -24 -132
11 -27 37 -7 37 28 0 50 24 76 72 76 34 0 39 -3 33 -17 -26 -61 -45 -144 -51
-213 -4 -44 -10 -80 -14 -80 -4 0 -11 -10 -17 -23 -8 -17 -7 -30 3 -49 12 -23
12 -32 -2 -70 -9 -23 -17 -68 -17 -99 -2 -74 29 -115 127 -169 54 -29 78 -50
94 -79 31 -55 29 -61 -25 -61 -43 0 -50 -4 -69 -33 -72 -107 -127 -258 -149
-404 -21 -141 -22 -138 30 -162 l45 -21 0 -459 0 -459 -51 -12 c-30 -8 -76
-10 -111 -6 l-59 6 3 -43 3 -42 75 -13 c44 -7 133 -11 213 -10 l137 3 0 -26
c0 -42 -87 -99 -220 -144 l-65 -22 -3 -41 -3 -42 98 0 c54 0 127 5 163 10 74
12 185 53 215 80 15 13 43 19 113 23 51 2 94 6 96 8 2 2 8 168 12 369 l9 364
43 9 c53 10 117 69 127 117 9 41 -20 85 -56 85 -20 0 -25 -6 -27 -32 -6 -59
-42 -31 -42 32 0 35 5 45 31 65 l32 23 -6 136 c-7 154 -25 265 -63 396 -48
161 -124 345 -144 345 -5 0 -15 -8 -22 -19 -7 -10 -32 -28 -55 -40 l-43 -21 0
25 c0 14 7 41 14 60 12 28 20 35 44 35 61 0 121 30 169 85 26 30 52 68 58 86
9 27 19 34 58 44 61 16 74 27 94 92 16 51 16 57 1 83 -17 31 -15 40 13 40 22
0 29 20 29 83 0 76 -16 123 -51 150 -21 16 -38 44 -51 83 -36 107 -107 159
-241 174 -94 11 -142 11 -247 -1z" id="node2" class="node"></path>
</g>
<g transform="translate(0.000000,300.000000) scale(0.100000,-0.100000)" fill="#4FA2CC" stroke="none">





</g>
</svg>