<!--?xml version="1.0" standalone="no"?-->

<svg version="1.0" xmlns="http://www.w3.org/2000/svg" width="300.000000pt" height="300.000000pt" viewBox="0 0 300.000000 300.000000" preserveAspectRatio="xMidYMid meet">
<g transform="translate(0.000000,300.000000) scale(0.100000,-0.100000)" fill="#252525" stroke="none">
<path class="node" id="node1" d="M1005 2983 c-247 -64 -439 -236 -489 -439 -8 -33 -20 -138 -25 -234
-11 -183 -29 -266 -77 -361 -22 -44 -84 -109 -104 -109 -21 0 -32 -41 -20 -71
27 -65 128 -131 245 -160 42 -10 59 -17 42 -18 -36 -1 -106 -67 -183 -171 -33
-44 -66 -80 -75 -80 -38 0 -111 -83 -111 -126 -1 -29 67 -114 91 -114 9 0 22
-5 28 -11 15 -15 80 -3 91 17 5 9 19 21 32 27 30 15 39 49 27 104 -10 48 -10
46 79 148 27 30 57 55 67 55 23 0 80 -29 90 -46 4 -7 29 -25 56 -39 l48 -27
-12 -56 c-15 -72 -43 -171 -56 -197 -12 -27 -50 -137 -52 -154 -1 -7 12 -21
30 -30 30 -15 31 -19 35 -84 l3 -68 -52 -42 c-29 -23 -53 -45 -53 -48 0 -3 9
-14 20 -24 21 -19 20 -19 -31 -71 -29 -29 -56 -51 -61 -48 -10 6 -130 189
-151 230 -9 17 -23 34 -31 37 -21 8 -74 -15 -69 -30 3 -7 -2 -16 -11 -19 -9
-3 -16 -12 -16 -19 0 -8 -6 -20 -13 -27 -7 -7 -16 -21 -20 -30 -3 -10 -13 -18
-22 -18 -9 0 -15 -9 -15 -24 0 -13 -7 -26 -15 -30 -9 -3 -15 -18 -15 -35 0
-41 30 -46 104 -16 33 14 63 21 67 17 20 -23 139 -194 153 -219 15 -30 34 -43
62 -43 8 0 64 46 125 101 l110 102 22 -21 23 -22 59 60 59 60 96 -6 c97 -7
223 7 247 28 13 10 39 3 161 -45 l54 -21 17 23 c16 21 23 22 62 16 24 -4 47
-9 51 -11 4 -3 -49 -60 -117 -127 -84 -83 -125 -130 -125 -145 0 -28 33 -49
93 -57 26 -4 50 -11 52 -16 3 -4 12 -6 20 -2 9 3 21 1 28 -5 6 -5 19 -10 27
-10 8 -1 27 -4 43 -8 66 -16 66 46 -1 111 l-36 35 127 128 c142 144 153 167
96 201 -17 11 -48 22 -68 26 -20 3 -60 13 -89 21 l-52 15 20 26 c11 14 18 29
15 33 -3 4 -43 13 -90 20 -78 11 -85 14 -85 34 0 18 13 29 63 52 57 27 62 32
60 59 -4 45 -34 190 -63 304 -15 60 -6 67 72 51 106 -21 127 -17 174 34 23 25
64 82 91 128 28 46 56 82 63 80 30 -7 80 41 111 106 29 61 31 68 18 91 -8 14
-24 27 -34 29 -11 2 -36 21 -56 43 -20 21 -44 39 -53 39 -40 0 -96 41 -125 92
-49 85 -61 159 -64 393 -3 238 -9 260 -92 385 -121 181 -307 291 -467 276
-101 -10 -110 -10 -163 -3 -27 3 -59 3 -70 0z m338 -48 c114 -30 213 -97 293
-200 57 -74 81 -121 105 -205 18 -62 26 -170 12 -170 -3 0 -25 19 -47 43 -94
95 -146 132 -236 163 l-65 23 -47 -53 c-29 -33 -65 -61 -95 -74 -55 -23 -142
-47 -148 -40 -3 3 8 29 24 58 16 30 28 57 25 61 -2 4 -46 -16 -97 -45 -195
-110 -328 -156 -448 -156 -26 0 -50 -4 -53 -9 -6 -8 58 -31 89 -31 13 0 16 -5
11 -22 -4 -13 -12 -65 -18 -115 -10 -88 -7 -146 17 -315 4 -27 1 -39 -11 -46
-10 -5 -18 -27 -21 -53 -4 -39 -1 -50 23 -79 l29 -33 -71 6 c-104 8 -234 72
-265 128 -9 18 -4 26 37 62 91 80 150 264 160 497 8 218 18 258 87 360 114
167 355 285 491 240 24 -8 41 -8 49 -2 30 24 94 27 170 7z m158 -430 c145 -72
201 -200 180 -405 -5 -47 -19 -113 -31 -145 -24 -69 -24 -61 -9 -140 19 -98 9
-126 -79 -214 -56 -55 -99 -87 -156 -116 -71 -36 -88 -40 -168 -44 -73 -2
-103 1 -156 19 -95 32 -167 72 -259 144 -44 35 -89 67 -101 70 -25 8 -51 36
-33 36 7 0 9 5 5 12 -5 8 0 9 14 6 14 -4 22 -2 22 7 0 16 -22 14 -44 -4 -14
-12 -16 -11 -16 8 0 17 6 21 30 21 17 0 30 2 30 4 0 2 -9 50 -21 107 -17 84
-20 127 -16 224 3 66 11 137 18 159 13 35 20 40 69 55 70 22 160 64 228 107
58 37 63 36 29 -10 -45 -59 -45 -59 9 -53 27 4 42 4 34 0 -30 -12 -50 -37 -50
-61 l0 -26 28 27 c15 15 34 27 41 27 9 0 11 8 8 21 -3 11 0 22 6 23 125 32
229 80 276 130 19 20 41 36 49 36 8 0 36 -11 63 -25z m249 -262 c0 -188 48
-338 129 -403 45 -36 43 -48 -10 -76 -22 -11 -28 -22 -31 -51 l-3 -38 -78 -19
c-43 -10 -80 -16 -82 -14 -2 2 3 24 12 49 15 41 15 54 3 118 -12 64 -12 78 3
119 35 100 48 331 22 395 -7 17 -6 18 14 6 18 -12 21 -23 21 -86z m220 -488
c0 -29 -34 -36 -44 -9 -8 21 1 34 25 34 14 0 19 -7 19 -25z m67 -31 c-8 -47
-35 -78 -54 -63 -17 15 -17 33 2 69 10 19 23 30 37 30 18 0 20 -4 15 -36z
m-87 -12 c0 -12 -15 -29 -30 -35 -9 -3 -4 -6 13 -6 15 -1 27 -5 27 -11 0 -5
18 -14 41 -20 68 -19 64 -57 -8 -69 -34 -6 -41 -13 -78 -77 -22 -39 -60 -97
-83 -128 -43 -57 -44 -57 -85 -51 -23 4 -57 11 -75 17 -27 8 -32 13 -26 31 10
34 18 38 52 25 44 -17 53 -10 135 110 l70 101 -17 35 c-19 40 -21 93 -3 99 14
5 67 -12 67 -21z m146 3 c13 -34 -31 -95 -57 -79 -12 7 -11 19 5 59 15 36 42
46 52 20z m-248 -129 c-6 -12 -36 -54 -65 -94 -38 -51 -59 -72 -69 -68 -9 3
-22 6 -30 6 -8 0 -19 11 -24 24 -6 16 -25 30 -57 42 -26 10 -49 19 -51 20 -2
1 13 18 34 37 33 30 47 35 125 46 48 6 98 15 111 20 29 11 41 -5 26 -33z
m-1067 -12 c22 -26 -7 -34 -65 -17 -84 25 -87 32 -15 33 49 0 70 -4 80 -16z
m-122 -40 l79 -26 -10 -29 c-8 -23 -15 -28 -27 -23 -9 4 -36 11 -60 17 l-44
11 -51 -55 c-28 -30 -68 -76 -89 -101 -37 -45 -38 -48 -23 -70 21 -29 22 -98
2 -98 -8 0 -18 5 -21 11 -5 6 -13 3 -22 -10 -8 -12 -12 -25 -9 -30 9 -14 -25
-22 -41 -10 -8 7 -12 18 -9 26 3 7 1 13 -3 13 -5 0 -11 -6 -14 -12 -7 -19 -41
4 -45 30 -2 13 -8 19 -18 15 -10 -3 -14 2 -14 19 0 29 54 84 93 93 19 5 48 35
97 100 59 79 130 155 145 155 2 0 40 -12 84 -26z m145 -16 c-4 -7 -13 -20 -19
-28 -7 -8 -18 -32 -25 -53 -14 -43 -25 -43 -16 0 8 37 42 93 56 93 6 0 8 -6 4
-12z m79 -18 c43 -20 77 -63 77 -97 0 -15 2 -16 10 -3 5 8 7 23 4 33 -7 21
-10 21 57 -6 37 -15 87 -51 149 -106 l93 -84 23 28 c12 16 40 59 61 96 35 63
66 89 105 89 31 0 138 -361 141 -478 l2 -46 -130 -45 -130 -45 -180 -1 c-163
0 -187 2 -254 24 -102 33 -164 69 -155 90 16 37 66 191 85 266 11 43 25 87 30
97 8 15 1 22 -46 44 -30 15 -57 30 -60 34 -9 14 55 130 72 130 2 0 22 -9 46
-20z m686 -21 c30 -11 32 -14 26 -43 -3 -17 -7 -35 -9 -41 -8 -40 -20 -34 -47
21 -16 33 -28 62 -29 67 0 10 22 9 59 -4z m57 -69 c-3 -21 -11 -51 -18 -65
-13 -28 -34 -35 -23 -7 3 9 11 38 17 65 14 57 33 64 24 7z m-310 -63 c-14 -23
-30 -48 -35 -56 -7 -11 -22 -3 -70 40 -34 29 -61 56 -61 60 0 15 57 -6 83 -30
l28 -26 19 25 c11 14 20 28 20 32 0 10 34 15 38 6 2 -5 -8 -27 -22 -51z m468
-701 c60 -9 96 -25 96 -42 0 -7 -10 -25 -23 -39 l-22 -26 -108 28 c-59 15
-107 32 -107 37 0 5 9 24 20 42 21 32 21 33 58 20 20 -7 59 -16 86 -20z
m-1285 -79 c33 -51 61 -100 61 -108 0 -9 -8 -23 -18 -33 -18 -16 -22 -12 -80
70 -34 48 -62 93 -62 100 0 18 22 64 30 64 4 0 35 -42 69 -93z m271 -28 l35
-29 -85 -78 c-138 -127 -137 -127 -165 -73 -11 23 -12 34 -2 55 7 14 19 26 27
26 9 0 45 29 80 65 35 36 67 65 70 65 3 -1 21 -14 40 -31z m1039 -15 c6 -6
-32 -46 -119 -123 -72 -65 -76 -67 -110 -59 l-34 10 99 94 c91 85 103 93 130
88 17 -4 32 -8 34 -10z"></path>
<path class="node" id="node2" d="M1440 2355 c0 -9 8 -18 18 -22 9 -3 27 -15 40 -26 l22 -20 0 26 c0
28 -32 57 -62 57 -10 0 -18 -7 -18 -15z"></path>
<path class="node" id="node3" d="M1037 2181 c3 -10 0 -22 -6 -25 -17 -11 -13 -85 6 -117 47 -80 132
-24 120 80 -6 55 -34 81 -87 81 -32 0 -37 -3 -33 -19z m81 -23 c7 -7 12 -29
12 -49 0 -31 -3 -36 -19 -32 -26 7 -35 -12 -15 -31 14 -15 14 -16 -5 -16 -13
0 -27 12 -37 31 -32 63 19 142 64 97z"></path>
<path class="node" id="node4" d="M1452 2189 c-36 -14 -55 -54 -49 -105 9 -84 74 -114 117 -54 18 25
21 40 16 78 -3 26 -6 56 -6 68 0 16 -7 20 -29 20 -16 0 -38 -3 -49 -7z m42
-38 c9 -10 18 -31 19 -47 2 -24 -2 -29 -20 -27 -25 3 -40 -25 -18 -33 15 -6
11 -24 -5 -24 -21 0 -40 34 -40 71 0 72 29 99 64 60z"></path>
<path class="node" id="node5" d="M1313 2006 c3 -7 0 -19 -6 -25 -6 -6 -7 -14 -4 -18 4 -4 15 0 24 9
17 17 12 48 -8 48 -6 0 -9 -6 -6 -14z"></path>
<path class="node" id="node6" d="M1061 1927 c-7 -10 -22 -17 -32 -17 -11 0 -19 -4 -19 -10 0 -5 10
-10 23 -10 12 -1 39 -15 60 -33 l38 -33 -16 -49 c-18 -51 -22 -116 -11 -152
16 -49 126 -84 211 -66 l39 9 16 99 c8 55 19 105 23 112 4 7 27 21 50 31 49
22 107 68 107 86 0 7 -9 21 -21 32 -20 18 -20 18 -14 -7 5 -21 0 -30 -29 -52
-91 -70 -200 -86 -291 -43 -64 29 -113 71 -117 98 -3 20 -4 20 -17 5z m172
-295 c13 -12 20 -13 29 -4 32 32 95 -1 67 -34 -29 -35 -189 -4 -197 38 -6 31
66 32 101 0z"></path>
<path class="node" id="node7" d="M950 1294 c-36 -58 -39 -79 -8 -71 30 8 52 -11 36 -30 -9 -11 -9 -16
3 -24 25 -16 59 -11 59 9 0 11 9 27 20 37 28 26 26 99 -5 113 -12 6 -28 6 -36
2 -8 -5 -19 -5 -26 1 -9 8 -20 -1 -43 -37z m50 1 c0 -30 16 -33 25 -4 4 11 11
19 17 17 12 -4 22 -68 10 -68 -4 0 -13 -14 -21 -30 -16 -37 -37 -34 -33 3 3
24 0 27 -27 27 l-31 0 20 40 c23 45 40 52 40 15z"></path>




<path class="node" id="node12" d="M2329 696 c-14 -7 -37 -16 -52 -20 -38 -9 -139 -106 -165 -159 -58
-117 -51 -251 19 -356 42 -63 77 -94 149 -132 39 -21 59 -24 145 -24 82 0 109
4 147 22 71 33 144 106 180 182 28 57 32 77 32 141 -1 109 -30 179 -108 255
-48 47 -76 65 -126 83 -74 25 -180 30 -221 8z m201 -36 c27 -27 25 -35 -11
-61 -26 -18 -44 -22 -111 -21 -68 0 -83 3 -104 23 -27 25 -24 33 20 60 46 28
178 27 206 -1z m68 -24 c15 -8 41 -29 57 -47 l30 -33 -30 23 c-16 12 -45 33
-64 47 -39 27 -35 32 7 10z m-353 -21 c-16 -13 -34 -24 -39 -25 -6 0 5 11 24
25 44 32 54 32 15 0z m254 -115 c17 -33 31 -65 31 -70 0 -5 -17 -34 -37 -65
-36 -51 -40 -55 -79 -55 -84 0 -100 8 -128 65 -31 65 -32 68 -4 114 41 68 45
71 119 71 l68 0 30 -60z m240 -45 c22 -69 27 -130 11 -155 -7 -11 -12 -6 -25
25 -8 22 -22 54 -31 71 -12 24 -13 36 -5 52 6 11 11 32 11 46 0 45 16 28 39
-39z m-610 -41 c-8 -24 -17 -44 -22 -44 -9 0 -2 45 16 100 10 31 12 32 15 12
2 -13 -2 -44 -9 -68z m106 8 c6 -4 22 -30 37 -58 l28 -51 -20 -59 -20 -59 -46
3 c-43 4 -46 6 -69 55 -14 28 -25 61 -25 74 0 36 31 92 54 96 36 7 51 7 61 -1z
m391 -12 c43 0 46 -2 60 -37 8 -21 19 -46 24 -55 15 -26 12 -68 -7 -115 -20
-49 -35 -52 -132 -30 -46 11 -55 17 -68 47 -34 80 -35 75 9 140 27 41 45 59
55 56 8 -3 35 -6 59 -6z m-325 -265 c16 -13 38 -26 49 -30 19 -6 50 -52 50
-75 0 -16 -66 -2 -120 26 -75 38 -115 85 -92 108 13 14 84 -4 113 -29z m333
-2 l40 -8 -33 -28 c-51 -43 -108 -68 -166 -74 -51 -5 -52 -5 -61 23 -12 44
-13 43 41 74 52 30 81 32 179 13z"></path>
</g>
<g transform="translate(0.000000,300.000000) scale(0.100000,-0.100000)" fill="#FFFFFF" stroke="none">

<path class="node" id="node14" d="M1205 2943 c-11 -3 -25 -10 -32 -15 -8 -6 -25 -6 -49 2 -136 45 -377
-73 -491 -240 -69 -102 -79 -142 -87 -360 -10 -233 -69 -417 -160 -497 -41
-36 -46 -44 -37 -62 31 -56 161 -120 265 -128 l71 -6 -29 33 c-24 29 -27 40
-23 79 3 26 11 48 21 53 12 7 15 19 11 46 -24 169 -27 227 -17 315 6 50 14
102 18 115 5 17 2 22 -11 22 -31 0 -95 23 -89 31 3 5 27 9 53 9 120 0 253 46
448 156 51 29 95 49 97 45 3 -4 -9 -31 -25 -61 -16 -29 -27 -55 -24 -58 6 -7
93 17 148 40 30 13 66 41 95 74 l47 53 65 -23 c90 -31 142 -68 236 -163 22
-24 44 -43 47 -43 14 0 6 108 -12 170 -56 197 -213 357 -398 405 -57 15 -99
17 -138 8z"></path>
<path class="node" id="node15" d="M1389 2494 c-47 -50 -151 -98 -276 -130 -6 -1 -9 -12 -6 -23 3 -13 1
-21 -8 -21 -7 0 -26 -12 -41 -27 l-28 -27 0 26 c0 24 20 49 50 61 8 4 -7 4
-34 0 -54 -6 -54 -6 -9 53 34 46 29 47 -29 10 -68 -43 -158 -85 -228 -107 -49
-15 -56 -20 -69 -55 -7 -22 -15 -93 -18 -159 -4 -97 -1 -140 16 -224 12 -57
21 -105 21 -107 0 -2 -13 -4 -30 -4 -24 0 -30 -4 -30 -21 0 -19 2 -20 16 -8
22 18 44 20 44 4 0 -9 -8 -11 -22 -7 -14 3 -19 2 -14 -6 4 -7 2 -12 -5 -12
-18 0 8 -28 33 -36 12 -3 57 -35 101 -70 92 -72 164 -112 259 -144 53 -18 83
-21 156 -19 80 4 97 8 168 44 57 29 100 61 156 116 88 88 98 116 79 214 -15
79 -15 71 9 140 25 70 42 209 34 280 -10 83 -44 162 -91 206 -42 39 -128 89
-155 89 -8 0 -30 -16 -49 -36z m109 -140 c13 -9 22 -26 22 -41 l0 -26 -22 20
c-13 11 -31 23 -40 26 -23 8 -23 37 0 37 10 0 28 -7 40 -16z m-368 -172 c15
-12 24 -33 27 -63 12 -104 -73 -160 -120 -80 -19 32 -23 106 -6 117 6 3 9 15
6 25 -4 16 1 19 33 19 21 0 47 -8 60 -18z m400 -6 c0 -12 3 -42 6 -68 5 -38 2
-53 -16 -78 -43 -60 -108 -30 -117 54 -9 72 27 112 98 112 22 0 29 -4 29 -20z
m-193 -172 c6 -17 -22 -52 -34 -41 -3 4 -2 12 4 18 6 6 9 18 6 25 -3 8 0 14 6
14 7 0 14 -7 18 -16z m-224 -130 c112 -95 255 -98 373 -7 29 22 34 31 29 52
-6 25 -6 25 14 7 12 -11 21 -25 21 -32 0 -18 -58 -64 -107 -86 -23 -10 -46
-24 -50 -31 -4 -7 -15 -57 -23 -112 l-16 -99 -39 -9 c-85 -18 -195 17 -211 66
-11 36 -7 101 11 152 l16 49 -38 33 c-21 18 -48 32 -60 33 -13 0 -23 5 -23 10
0 6 8 10 19 10 10 0 25 7 32 17 13 15 14 15 17 -5 2 -12 18 -33 35 -48z"></path>
<path class="node" id="node16" d="M1062 2157 c-33 -40 -14 -127 29 -127 19 0 19 1 5 16 -20 19 -11 38
15 31 16 -4 19 1 19 32 0 54 -40 82 -68 48z"></path>
<path class="node" id="node17" d="M1440 2151 c-24 -45 -4 -131 30 -131 16 0 20 18 5 24 -22 8 -7 36 18
33 18 -2 22 3 20 27 -2 31 -28 66 -49 66 -7 0 -18 -9 -24 -19z"></path>
<path class="node" id="node18" d="M1147 1653 c-28 -7 -16 -36 23 -55 43 -22 142 -24 159 -4 28 33 -35
66 -67 34 -9 -9 -16 -8 -29 4 -21 19 -60 28 -86 21z"></path>
<path class="node" id="node19" d="M1715 2323 c26 -64 13 -295 -22 -395 -15 -41 -15 -55 -3 -119 12 -64
12 -77 -3 -118 -9 -25 -14 -47 -12 -49 2 -2 39 4 82 14 l78 19 3 38 c3 29 9
40 31 51 53 28 55 40 10 76 -81 65 -129 215 -129 403 0 63 -3 74 -21 86 -20
12 -21 11 -14 -6z"></path>
<path class="node" id="node20" d="M1926 1771 c-10 -16 5 -41 25 -41 14 0 19 7 19 25 0 18 -5 25 -19 25
-11 0 -22 -4 -25 -9z"></path>
<path class="node" id="node21" d="M1985 1730 c-19 -36 -19 -54 -2 -69 19 -15 46 16 54 63 5 32 3 36
-15 36 -14 0 -27 -11 -37 -30z"></path>
<path class="node" id="node22" d="M1883 1733 c-18 -6 -16 -59 3 -99 l17 -35 -70 -101 c-82 -120 -91
-127 -135 -110 -34 13 -42 9 -52 -25 -6 -18 -1 -23 26 -31 18 -6 52 -13 75
-17 41 -6 42 -6 85 51 23 31 61 89 83 128 37 64 44 71 78 77 72 12 76 50 8 69
-23 6 -41 15 -41 20 0 6 -12 10 -27 11 -17 0 -22 3 -13 6 15 6 30 23 30 35 0
9 -53 26 -67 21z"></path>
<path class="node" id="node23" d="M2044 1695 c-16 -40 -17 -52 -5 -59 26 -16 70 45 57 79 -10 26 -37
16 -52 -20z"></path>
<path class="node" id="node24" d="M1822 1619 c-13 -5 -63 -14 -111 -20 -78 -11 -92 -16 -125 -46 -21
-19 -36 -36 -34 -37 2 -1 25 -10 51 -20 32 -12 51 -26 57 -42 5 -13 16 -24 24
-24 8 0 21 -3 30 -6 10 -4 31 17 69 68 29 40 59 82 65 94 15 28 3 44 -26 33z"></path>
<path class="node" id="node25" d="M650 1581 c32 -19 118 -39 130 -31 11 7 11 11 1 24 -10 12 -31 16
-80 16 -42 0 -61 -4 -51 -9z"></path>
<path class="node" id="node26" d="M535 1529 c-19 -17 -67 -73 -105 -124 -49 -65 -78 -95 -97 -100 -39
-9 -93 -64 -93 -93 0 -17 4 -22 14 -19 10 4 16 -2 18 -15 4 -26 38 -49 45 -30
3 6 9 12 14 12 4 0 6 -6 3 -13 -3 -8 1 -19 9 -26 16 -12 50 -4 41 10 -3 5 1
18 9 30 9 13 17 16 22 10 3 -6 13 -11 21 -11 20 0 19 69 -2 98 -15 22 -14 25
23 70 21 25 61 71 89 101 l51 55 44 -11 c24 -6 51 -13 60 -17 12 -5 19 0 27
23 l10 29 -79 26 c-44 14 -82 26 -84 26 -2 0 -20 -14 -40 -31z"></path>
<path class="node" id="node27" d="M770 1498 c-20 -34 -35 -86 -27 -94 3 -3 11 12 17 33 7 21 18 45 25
53 21 26 27 40 15 40 -5 0 -19 -14 -30 -32z"></path>
<path class="node" id="node28" d="M818 1503 c-21 -24 -59 -104 -53 -113 3 -4 30 -19 60 -34 47 -22 54
-29 46 -44 -5 -10 -19 -54 -30 -97 -19 -75 -69 -229 -85 -266 -9 -21 53 -57
155 -90 67 -22 91 -24 254 -24 l180 1 130 45 130 45 -2 46 c-3 117 -110 478
-141 478 -39 0 -70 -26 -105 -89 -21 -37 -49 -80 -61 -96 l-23 -28 -93 84
c-62 55 -112 91 -149 106 -67 27 -64 27 -57 6 3 -10 1 -25 -4 -33 -8 -13 -10
-12 -10 3 0 34 -34 77 -77 97 -52 24 -46 24 -65 3z m201 -173 c8 4 24 4 36 -2
31 -14 33 -87 5 -113 -11 -10 -20 -26 -20 -37 0 -20 -34 -25 -59 -9 -12 8 -12
13 -3 24 16 19 -6 38 -36 30 -31 -8 -28 13 8 71 23 36 34 45 43 37 7 -6 18 -6
26 -1z"></path>
<path class="node" id="node29" d="M960 1280 l-20 -40 31 0 c27 0 30 -3 27 -27 -4 -37 17 -40 33 -3 8
16 17 30 21 30 12 0 2 64 -10 68 -6 2 -13 -6 -17 -17 -9 -29 -25 -26 -25 4 0
37 -17 30 -40 -15z"></path>
<path class="node" id="node30" d="M1510 1483 c1 -5 13 -34 29 -67 27 -55 39 -61 47 -21 2 6 6 24 9 41
6 29 4 32 -26 43 -37 13 -59 14 -59 4z"></path>
<path class="node" id="node31" d="M1602 1403 c-6 -27 -14 -56 -17 -65 -11 -28 10 -21 23 7 17 37 26
105 15 105 -5 0 -15 -21 -21 -47z"></path>
<path class="node" id="node32" d="M1318 1402 c-10 -2 -18 -7 -18 -10 0 -4 -9 -18 -20 -32 l-19 -25 -28
26 c-26 24 -83 45 -83 30 0 -4 27 -31 61 -60 48 -43 63 -51 70 -40 33 49 60
100 57 107 -1 4 -11 6 -20 4z"></path>
<path class="node" id="node33" d="M1640 646 c-11 -18 -20 -37 -20 -42 0 -5 48 -22 107 -37 l108 -28 22
26 c13 14 23 32 23 39 0 17 -36 33 -96 42 -27 4 -66 13 -86 20 -37 13 -37 12
-58 -20z"></path>
<path class="node" id="node34" d="M412 635 c-18 -40 -16 -47 50 -139 58 -82 62 -86 80 -70 10 10 18 24
18 33 0 17 -119 201 -130 201 -4 0 -12 -11 -18 -25z"></path>
<path class="node" id="node35" d="M660 505 c-35 -36 -71 -65 -80 -65 -8 0 -20 -12 -27 -26 -10 -21 -9
-32 2 -55 28 -54 27 -54 165 73 l85 78 -35 29 c-19 17 -37 30 -40 31 -3 0 -35
-29 -70 -65z"></path>
<path class="node" id="node36" d="M1645 446 l-99 -94 34 -10 c34 -8 38 -6 110 59 87 77 125 117 119
123 -2 2 -17 6 -34 10 -27 5 -39 -3 -130 -88z"></path>




<path class="node" id="node41" d="M2324 661 c-44 -27 -47 -35 -20 -60 21 -20 36 -23 104 -23 67 -1 85
3 111 21 36 26 38 34 11 61 -28 28 -160 29 -206 1z"></path>
<path class="node" id="node42" d="M2591 626 c19 -14 48 -35 64 -47 l30 -23 -30 33 c-28 30 -74 61 -91
61 -5 0 8 -11 27 -24z"></path>
<path class="node" id="node43" d="M2230 615 c-19 -14 -30 -25 -24 -25 10 1 73 50 63 50 -3 0 -20 -11
-39 -25z"></path>
<path class="node" id="node44" d="M2318 543 c-23 -28 -58 -89 -58 -102 0 -7 12 -36 26 -66 28 -57 44
-65 128 -65 39 0 43 4 79 55 20 31 37 60 37 65 0 5 -14 37 -31 70 l-30 60 -68
0 c-52 0 -71 -4 -83 -17z"></path>
<path class="node" id="node45" d="M2700 494 c0 -14 -5 -35 -11 -46 -8 -16 -7 -28 5 -52 9 -17 23 -49
31 -71 13 -31 18 -36 25 -25 16 25 11 86 -11 155 -23 67 -39 84 -39 39z"></path>
<path class="node" id="node46" d="M2123 470 c-18 -55 -25 -100 -16 -100 12 0 35 83 31 112 -3 20 -5 19
-15 -12z"></path>
<path class="node" id="node47" d="M2174 423 c-23 -4 -54 -60 -54 -96 0 -13 11 -46 25 -74 23 -49 26
-51 69 -55 l46 -3 20 59 20 59 -28 51 c-36 68 -40 71 -98 59z"></path>
<path class="node" id="node48" d="M2512 360 c-44 -65 -43 -60 -9 -140 13 -30 22 -36 68 -47 97 -22 112
-19 132 30 19 47 22 89 7 115 -5 9 -16 34 -24 55 -14 35 -17 37 -60 37 -24 0
-51 3 -59 6 -10 3 -28 -15 -55 -56z"></path>
<path class="node" id="node49" d="M2188 174 c-23 -23 17 -70 92 -108 54 -28 120 -42 120 -26 0 23 -31
69 -50 75 -11 4 -33 17 -49 30 -29 25 -100 43 -113 29z"></path>
<path class="node" id="node50" d="M2455 130 c-54 -31 -53 -30 -41 -74 9 -28 10 -28 61 -23 58 6 115 31
166 74 l33 28 -40 8 c-98 19 -127 17 -179 -13z"></path>
</g>
</svg>