<!--?xml version="1.0" standalone="no"?--><svg version="1.0" xmlns="http://www.w3.org/2000/svg" width="176.000000pt" height="300.000000pt" viewBox="0 0 176.000000 300.000000" preserveAspectRatio="xMidYMid meet">
<metadata>
  <rdf:rdf xmlns:rdf="http://www.w3.org/1999/02/22-rdf-syntax-ns#" xmlns:rdfs="http://www.w3.org/2000/01/rdf-schema#" xmlns:dc="http://purl.org/dc/elements/1.1/">
    <rdf:description dc:title="family sticker girl down head" dc:publisher="Hiox" dc:date="2015-05-25" dc:format="image/svg+xml" dc:language="en">
      <dc:creator>
        <rdf:bag>
          <rdf:li>svgimages.com</rdf:li>
        </rdf:bag>
      </dc:creator>
    </rdf:description>
  </rdf:rdf>
</metadata>
<g transform="translate(0.000000,300.000000) scale(0.100000,-0.100000)" fill="#22201F" stroke="none">
<path d="M102 2988 c-47 -23 -48 -128 -1 -254 26 -68 48 -86 112 -92 l52 -4
180 -321 c99 -177 181 -326 183 -333 2 -7 -11 -32 -28 -56 -27 -37 -31 -49
-27 -88 2 -25 23 -86 46 -136 35 -77 41 -102 41 -157 0 -57 -5 -75 -46 -156
-46 -91 -51 -118 -30 -171 4 -10 -8 -24 -39 -43 -96 -61 -164 -165 -178 -275
-4 -30 -1 -47 10 -58 19 -19 43 -2 43 31 0 50 35 128 78 176 43 48 128 107
138 96 3 -3 -15 -24 -40 -47 -58 -54 -93 -113 -113 -195 -14 -59 -19 -65 -49
-75 -79 -27 -67 -128 16 -135 19 -1 36 -7 37 -12 4 -10 -182 -331 -284 -492
l-15 -24 -29 47 c-38 61 -64 63 -55 4 7 -41 7 -42 -13 -24 -20 19 -52 19 -58
0 -2 -6 8 -16 22 -24 29 -16 23 -27 -18 -32 -39 -4 -38 -21 2 -34 34 -11 34
-12 13 -23 -21 -11 -31 -51 -13 -51 5 0 30 16 55 35 l46 35 0 -45 c0 -38 3
-45 20 -45 23 0 40 28 40 65 0 17 58 123 152 281 84 140 155 254 158 254 3 0
14 -16 24 -35 24 -45 101 -117 152 -143 96 -49 221 -49 315 -2 79 41 189 177
189 235 0 8 4 15 9 15 5 0 86 -108 180 -240 165 -232 171 -242 171 -289 0 -32
6 -56 18 -71 25 -31 42 -18 42 31 0 21 3 39 6 39 4 0 24 -16 45 -35 22 -19 44
-35 49 -35 16 0 12 36 -5 50 -18 15 -13 23 17 27 27 4 32 9 23 22 -3 6 -19 11
-36 11 -36 0 -37 12 -4 34 46 31 12 45 -50 21 -16 -7 -18 -6 -7 6 14 15 16 55
3 63 -5 3 -24 -11 -41 -31 l-33 -37 -22 26 c-13 15 -87 118 -165 230 -79 112
-151 212 -160 223 -12 13 -19 46 -24 98 -6 78 -6 79 24 104 37 31 40 70 7 101
-25 23 -57 28 -85 13 -14 -7 -24 -1 -50 29 l-32 38 25 54 c32 67 33 139 4 187
-27 45 -14 54 70 47 118 -10 171 -51 246 -191 54 -100 90 -135 136 -135 70 0
116 37 85 68 -12 12 -19 12 -50 1 -50 -18 -61 -9 -124 102 -93 168 -180 225
-332 218 -39 -2 -70 1 -71 6 -2 15 101 64 150 71 59 9 132 -15 196 -64 28 -21
72 -55 98 -75 65 -50 121 -52 166 -6 33 33 38 48 19 67 -17 17 -21 16 -54 -13
-16 -14 -38 -25 -49 -25 -11 0 -54 27 -95 61 -144 115 -237 142 -354 100 -33
-11 -61 -19 -64 -17 -3 4 24 64 34 75 3 3 89 8 192 12 207 8 228 12 238 41 11
35 -8 41 -97 29 -45 -6 -125 -11 -176 -11 l-95 0 27 32 c28 34 28 52 -2 116
l-16 33 53 77 c29 42 104 154 168 247 63 94 117 172 119 174 2 3 26 4 53 2 45
-2 53 1 80 30 45 50 102 171 104 219 1 55 -31 85 -83 76 -54 -9 -136 -53 -185
-101 -66 -64 -70 -108 -15 -186 9 -12 -19 -59 -146 -245 -86 -126 -162 -235
-169 -242 -11 -11 -20 -6 -55 25 -97 88 -229 144 -304 129 -16 -3 -52 -22 -80
-42 -27 -20 -53 -32 -57 -27 -4 4 -87 149 -183 322 l-176 314 29 34 c17 18 30
44 30 56 -1 36 -36 103 -80 151 -69 74 -133 105 -178 84z m85 -67 c44 -32 80
-76 107 -128 21 -43 20 -50 -10 -78 -30 -28 -94 -35 -111 -12 -31 40 -67 182
-57 223 8 31 22 30 71 -5z m1518 -288 c-6 -35 -57 -135 -88 -175 -33 -42 -137
-2 -137 52 0 48 145 160 208 160 23 0 24 -3 17 -37z m-755 -635 c68 -33 193
-148 202 -184 6 -25 -77 -116 -141 -154 -51 -30 -104 -105 -128 -182 -13 -42
-24 -58 -40 -63 -53 -13 -123 -98 -123 -148 0 -20 -7 -26 -32 -31 -25 -5 -36
-2 -45 11 -20 26 -16 40 30 133 40 81 42 89 41 170 0 78 -4 93 -42 176 -23 51
-42 105 -42 120 0 33 55 107 114 153 54 43 119 43 206 -1z m55 -450 c-10 -46
-55 -93 -55 -58 0 11 50 90 57 90 3 0 1 -15 -2 -32z m38 -217 c33 -59 34 -81
5 -137 -24 -48 -26 -49 -62 -33 -24 11 -25 13 -9 42 15 30 14 86 -3 144 -6 20
-2 23 36 32 3 0 17 -21 33 -48z m-70 -223 c53 -27 119 -94 145 -150 110 -225
-25 -489 -258 -505 -127 -9 -241 60 -302 185 -30 60 -33 75 -33 157 0 78 4 98
29 152 28 60 95 135 144 162 38 20 24 -4 -44 -78 -50 -54 -64 -75 -59 -91 3
-11 12 -20 19 -20 14 0 143 131 171 173 10 15 20 26 22 23 7 -7 -23 -59 -56
-95 -36 -40 -36 -41 -17 -67 14 -18 16 -18 51 16 42 40 75 98 75 133 0 13 3
27 7 31 10 9 61 -3 106 -26z m243 -113 c6 -16 -12 -45 -27 -45 -12 0 -31 39
-24 50 10 15 45 12 51 -5z m-748 -227 c-3 -37 -24 -44 -42 -15 -9 15 -7 21 8
33 30 21 38 17 34 -18z" id="node1" class="node"></path>
<path d="M800 909 c0 -34 51 -119 71 -119 31 0 31 17 -1 80 -22 43 -36 60 -50
60 -14 0 -20 -7 -20 -21z" id="node2" class="node"></path>
<path d="M1051 886 c-7 -8 -22 -16 -34 -18 -31 -4 -27 -30 6 -46 26 -13 28
-17 22 -55 -16 -95 -77 -165 -166 -191 -62 -19 -63 -19 -110 -6 -56 16 -81 45
-73 86 5 29 4 34 -14 34 -11 0 -25 -7 -32 -15 -7 -8 -21 -15 -31 -15 -10 0
-21 -5 -24 -10 -9 -15 13 -40 35 -40 10 0 25 -11 34 -25 43 -66 176 -86 271
-41 58 27 128 98 143 147 7 19 13 63 16 99 2 36 6 74 8 85 4 25 -33 33 -51 11z" id="node3" class="node"></path>
<path d="M697 866 c-9 -23 51 -126 74 -126 24 0 25 29 3 73 -31 62 -65 85 -77
53z" id="node4" class="node"></path>
</g>
<g transform="translate(0.000000,300.000000) scale(0.100000,-0.100000)" fill="#A1A09F" stroke="none">


<path d="M116 2926 c-10 -41 26 -183 57 -223 17 -23 81 -16 111 12 30 28 31
35 10 78 -27 52 -63 96 -107 128 -49 35 -63 36 -71 5z" id="node7" class="node"></path>
<path d="M1611 2643 c-60 -31 -131 -103 -131 -133 0 -54 104 -94 137 -52 31
40 82 140 88 175 7 34 6 37 -17 37 -13 0 -48 -12 -77 -27z" id="node8" class="node"></path>

<path d="M744 1999 c-59 -46 -114 -120 -114 -153 0 -15 19 -69 42 -120 38 -83
42 -98 42 -176 1 -81 -1 -89 -41 -170 -46 -93 -50 -107 -30 -133 9 -13 20 -16
45 -11 25 5 32 11 32 31 0 50 70 135 123 148 16 5 27 21 40 63 24 77 77 152
128 182 64 38 147 129 141 154 -9 36 -134 151 -202 184 -87 44 -152 44 -206 1z" id="node10" class="node"></path>


<path d="M867 1134 c-4 -4 -7 -18 -7 -31 0 -35 -33 -93 -75 -133 -35 -34 -37
-34 -51 -16 -19 26 -19 27 17 67 33 36 63 88 56 95 -2 3 -12 -8 -22 -23 -28
-42 -157 -173 -171 -173 -7 0 -16 9 -19 20 -5 16 9 37 59 91 68 74 82 98 44
78 -49 -27 -116 -102 -144 -162 -25 -54 -29 -74 -29 -152 0 -82 3 -97 33 -157
142 -288 527 -231 593 89 30 146 -49 316 -178 381 -45 23 -96 35 -106 26z m3
-264 c32 -63 32 -80 1 -80 -11 0 -28 19 -44 49 -33 59 -35 91 -7 91 14 0 28
-17 50 -60z m232 5 c-2 -11 -6 -49 -8 -85 -3 -36 -9 -80 -16 -99 -15 -49 -85
-120 -143 -147 -95 -45 -228 -25 -271 41 -9 14 -24 25 -34 25 -22 0 -44 25
-35 40 3 5 14 10 24 10 10 0 24 7 31 15 7 8 21 15 32 15 18 0 19 -5 14 -34 -8
-41 17 -70 73 -86 47 -13 48 -13 110 6 89 26 150 96 166 191 6 38 4 42 -22 55
-33 16 -37 42 -6 46 12 2 27 10 34 18 18 22 55 14 51 -11z m-360 -12 c45 -52
62 -123 29 -123 -23 0 -83 103 -74 126 7 19 27 18 45 -3z" id="node13" class="node"></path>
<path d="M1165 1000 c-7 -11 12 -50 24 -50 15 0 33 29 27 45 -6 17 -41 20 -51
5z" id="node14" class="node"></path>
<path d="M434 786 c-15 -12 -17 -18 -8 -33 18 -29 39 -22 42 15 4 35 -4 39
-34 18z" id="node15" class="node"></path>
</g>
</svg>