<!--?xml version="1.0" standalone="no"?--><svg version="1.0" xmlns="http://www.w3.org/2000/svg" width="300.000000pt" height="300.000000pt" viewBox="0 0 300.000000 300.000000" preserveAspectRatio="xMidYMid meet">
<metadata>
  <rdf:rdf xmlns:rdf="http://www.w3.org/1999/02/22-rdf-syntax-ns#" xmlns:rdfs="http://www.w3.org/2000/01/rdf-schema#" xmlns:dc="http://purl.org/dc/elements/1.1/">
    <rdf:description dc:title="stick girl art" dc:publisher="Hiox" dc:date="2015-05-19" dc:format="image/svg+xml" dc:language="en">
      <dc:creator>
        <rdf:bag>
          <rdf:li>svgimages.com</rdf:li>
        </rdf:bag>
      </dc:creator>
    </rdf:description>
  </rdf:rdf>
</metadata>
<g transform="translate(0.000000,300.000000) scale(0.100000,-0.100000)" fill="#242220" stroke="none">
<path d="M1165 2995 c-5 -2 -35 -11 -65 -20 -30 -9 -97 -42 -150 -72 -52 -31
-122 -66 -155 -78 -50 -19 -60 -27 -60 -46 0 -21 4 -24 37 -22 35 2 182 68
218 97 8 7 42 25 75 41 50 25 72 30 135 30 61 0 83 -5 117 -24 24 -14 40 -27
38 -30 -3 -3 -46 -4 -95 -2 -200 6 -293 -59 -371 -264 -41 -106 -52 -118 -105
-110 -50 7 -72 -10 -50 -41 11 -15 27 -19 71 -19 50 0 59 3 79 28 13 16 38 68
56 115 42 108 61 139 114 179 48 37 120 56 192 51 l49 -3 -65 -32 c-88 -44
-136 -85 -167 -147 -25 -46 -27 -63 -31 -191 -2 -77 -8 -148 -13 -157 -6 -10
-27 -21 -50 -24 -33 -6 -40 -10 -37 -28 2 -17 11 -22 48 -24 40 -3 49 1 75 28
l30 31 1 137 c0 122 3 142 23 185 30 60 84 107 166 141 63 27 64 27 89 9 14
-10 26 -21 26 -26 0 -4 -13 -25 -29 -47 -15 -21 -34 -53 -41 -69 -10 -26 -16
-30 -36 -25 -54 14 -104 -27 -104 -86 0 -28 43 -70 72 -70 21 0 25 -7 35 -61
30 -160 153 -288 295 -307 34 -4 38 -8 38 -33 0 -24 -5 -29 -35 -34 -19 -3
-52 -8 -72 -11 -21 -3 -92 -37 -158 -75 -66 -38 -132 -69 -146 -69 -77 0 -182
-68 -221 -143 -19 -38 -22 -40 -29 -20 -17 46 -55 34 -44 -14 7 -29 -2 -29
-32 -1 -18 16 -26 19 -35 10 -9 -9 -8 -16 5 -30 25 -28 21 -34 -18 -26 -29 5
-35 3 -35 -11 0 -9 9 -19 20 -22 25 -7 26 -33 1 -33 -20 0 -36 -26 -22 -35 5
-3 28 2 51 10 59 21 73 20 60 -4 -12 -24 -13 -58 -1 -65 5 -3 20 3 33 14 25
19 48 12 48 -15 0 -18 75 -90 113 -108 64 -31 140 -40 199 -24 29 8 61 18 71
22 17 7 18 2 17 -56 0 -35 2 -77 5 -94 3 -19 -11 -94 -38 -205 -25 -96 -42
-178 -40 -183 2 -4 38 -7 79 -6 41 1 77 0 79 -2 2 -2 7 -106 11 -230 l7 -225
-56 -13 c-109 -24 -197 -89 -197 -145 0 -44 61 -109 125 -134 107 -41 164 -35
210 19 22 27 25 40 25 103 0 62 -4 78 -29 118 l-29 45 -3 234 -4 234 125 0
125 0 3 -230 3 -230 -28 -54 c-30 -60 -35 -122 -14 -184 17 -49 48 -69 110
-69 75 1 124 20 180 69 45 39 51 49 51 83 0 73 -84 134 -212 155 l-38 6 0 229
0 229 84 3 84 3 -44 110 c-106 269 -106 269 -94 299 6 17 10 145 10 337 0 205
3 308 10 304 26 -16 190 -249 190 -271 0 -13 -9 -47 -20 -75 -16 -38 -18 -55
-10 -63 8 -8 17 -4 34 17 28 35 34 34 38 -5 4 -41 33 -46 33 -6 1 37 11 44 27
19 7 -12 21 -21 30 -21 22 0 23 10 3 36 -21 28 -18 34 14 28 17 -4 32 -1 36 6
10 15 7 17 -50 32 -28 6 -52 13 -54 15 -2 1 11 16 28 32 18 17 30 35 26 41 -8
13 -52 13 -60 0 -13 -21 -31 -8 -69 48 -22 31 -74 99 -115 151 -86 108 -118
127 -229 137 l-72 7 0 33 c0 29 4 33 33 39 126 27 275 158 302 267 6 22 14 27
51 33 55 8 79 39 70 89 -7 39 -31 63 -66 68 -21 2 -28 13 -45 68 -11 36 -30
82 -43 102 -48 76 -137 137 -224 153 -21 4 -38 11 -38 16 0 23 135 -2 197 -37
61 -33 90 -62 107 -104 17 -44 28 -53 50 -44 21 8 20 26 -4 78 -33 74 -108
128 -225 161 -72 21 -161 16 -257 -15 -62 -21 -68 -21 -83 -6 -9 9 -27 16 -41
16 -13 0 -47 16 -74 36 -66 47 -175 82 -215 69z m294 -164 c17 -11 -1 -47 -29
-56 -40 -13 -52 13 -20 45 22 22 29 24 49 11z m335 -81 c46 -18 107 -72 135
-121 76 -134 58 -295 -47 -411 -201 -222 -542 -99 -542 195 0 61 17 134 41
178 15 30 99 119 111 119 5 0 25 -16 45 -35 38 -37 129 -73 157 -62 9 4 16 13
16 21 0 16 -48 46 -72 46 -17 0 -82 40 -75 46 2 3 29 -5 58 -17 69 -28 180
-57 197 -52 6 3 12 13 12 23 0 24 -17 36 -64 44 -58 11 -120 38 -106 46 12 7
96 -5 134 -20z m-514 -250 c11 -7 12 -12 3 -21 -15 -15 -43 -5 -43 16 0 17 18
19 40 5z m790 -74 c0 -17 -27 -29 -35 -16 -4 6 -3 15 0 20 9 15 35 12 35 -4z
m-331 -515 c11 -7 8 -17 -17 -49 -46 -57 -101 -104 -120 -100 -17 3 -101 115
-102 135 0 6 10 14 23 16 43 8 202 7 216 -2z m89 -343 l-3 -323 -192 -3 -193
-2 0 65 c0 54 4 72 23 98 66 88 73 173 23 272 -27 55 -32 74 -28 111 2 24 7
44 11 44 3 0 21 -23 39 -50 18 -28 44 -57 57 -66 49 -32 111 4 191 110 27 36
55 65 62 66 10 0 12 -68 10 -322z m-416 247 c-5 -39 -7 -40 -45 -22 -34 15
-34 23 1 41 41 23 48 20 44 -19z m-182 -42 c-1 -5 -12 -21 -25 -38 -21 -25
-27 -28 -35 -15 -14 21 -12 47 3 53 19 8 57 8 57 0z m125 -29 c0 -20 -106
-126 -121 -120 -7 3 -18 14 -24 25 -9 18 -5 27 31 66 37 40 47 46 78 43 20 -2
36 -8 36 -14z m-216 -50 c41 -99 167 -199 274 -219 23 -5 37 -13 37 -22 0 -24
-76 -11 -154 25 -80 37 -150 106 -190 185 -23 47 -26 60 -16 72 19 23 25 19
49 -41z m275 10 c17 -44 -21 -164 -53 -164 -17 0 -81 36 -81 46 0 9 113 134
121 134 4 0 10 -7 13 -16z m-338 -69 c46 -97 143 -179 262 -221 51 -18 63 -36
28 -42 -22 -5 -145 34 -177 56 -78 52 -131 116 -155 186 -13 37 -14 50 -4 61
7 8 14 15 16 15 3 0 16 -25 30 -55z m398 -21 c3 -9 6 -36 6 -61 l0 -45 -32 6
c-17 3 -33 8 -35 9 -1 2 6 21 17 42 11 22 20 45 20 52 0 18 17 16 24 -3z
m-444 -90 c0 -6 -6 -17 -14 -23 -11 -9 -15 -5 -18 24 -2 20 -2 38 1 41 7 7 31
-26 31 -42z m68 -77 c22 -22 30 -39 26 -50 -9 -24 -27 -21 -58 8 -27 25 -30
33 -20 59 9 23 16 20 52 -17z m116 -77 c25 -12 46 -26 46 -32 0 -5 -7 -7 -16
-4 -9 3 -28 6 -42 6 -36 0 -54 13 -46 33 8 21 2 21 58 -3z m322 -1142 c18 -35
21 -107 5 -137 -16 -28 -52 -36 -109 -21 -58 14 -108 44 -130 78 -16 24 -15
26 18 53 31 26 98 52 160 61 33 5 37 2 56 -34z m444 5 c43 -22 56 -34 58 -55
7 -61 -166 -136 -222 -95 -34 25 -37 135 -3 175 17 21 100 8 167 -25z" id="node1" class="node"></path>
<path d="M1556 2505 c-7 -72 -4 -85 23 -85 15 0 19 11 24 60 8 68 2 90 -23 90
-14 0 -18 -12 -24 -65z" id="node2" class="node"></path>
<path d="M1680 2555 c-6 -8 -10 -40 -8 -77 3 -55 5 -63 23 -63 18 0 20 8 23
71 2 56 0 73 -12 77 -8 3 -20 0 -26 -8z" id="node3" class="node"></path>
<path d="M1367 2421 c-9 -10 -6 -17 11 -31 12 -10 22 -28 22 -41 0 -31 42
-100 77 -126 136 -100 346 -47 409 102 7 18 20 35 29 38 8 4 15 16 15 27 0 18
-6 20 -55 20 -48 0 -55 -3 -55 -19 0 -11 5 -23 10 -26 18 -11 11 -33 -22 -71
-100 -114 -308 -90 -358 41 -10 26 -8 31 11 46 34 25 19 46 -36 51 -31 2 -50
-1 -58 -11z" id="node4" class="node"></path>
</g>
<g transform="translate(0.000000,300.000000) scale(0.100000,-0.100000)" fill="#A3A2A1" stroke="none">


<path d="M1410 2820 c-32 -32 -20 -58 20 -45 28 9 46 45 29 56 -20 13 -27 11
-49 -11z" id="node7" class="node"></path>
<path d="M1660 2770 c-14 -8 48 -35 106 -46 47 -8 64 -20 64 -44 0 -10 -6 -20
-12 -23 -17 -5 -128 24 -197 52 -29 12 -56 20 -58 17 -7 -6 58 -46 75 -46 24
0 72 -30 72 -46 0 -8 -7 -17 -16 -21 -28 -11 -119 25 -157 62 -20 19 -40 35
-45 35 -12 0 -96 -89 -111 -119 -24 -44 -41 -117 -41 -178 0 -294 341 -417
542 -195 105 116 123 277 47 411 -28 49 -89 103 -135 121 -38 15 -122 27 -134
20z m-56 -215 c3 -9 3 -43 -1 -75 -5 -49 -9 -60 -24 -60 -27 0 -30 13 -23 85
6 53 10 65 24 65 10 0 21 -7 24 -15z m114 -69 c-3 -63 -5 -71 -23 -71 -18 0
-20 8 -23 63 -3 66 8 95 34 85 12 -4 14 -21 12 -77z m-241 -73 c4 -9 -3 -22
-16 -32 -19 -15 -21 -20 -11 -46 50 -131 258 -155 358 -41 33 38 40 60 22 71
-5 3 -10 15 -10 26 0 16 7 19 55 19 49 0 55 -2 55 -20 0 -11 -7 -23 -15 -27
-9 -3 -22 -20 -29 -38 -63 -149 -273 -202 -409 -102 -35 26 -77 95 -77 126 0
13 -10 31 -22 41 -17 14 -20 21 -11 31 16 19 102 12 110 -8z" id="node8" class="node"></path>
<path d="M1240 2495 c0 -21 28 -31 43 -16 9 9 8 14 -3 21 -22 14 -40 12 -40
-5z" id="node9" class="node"></path>
<path d="M2035 2430 c-3 -5 -4 -14 0 -20 8 -13 35 -1 35 16 0 16 -26 19 -35 4z" id="node10" class="node"></path>
<path d="M1523 1913 c-13 -2 -23 -10 -23 -16 1 -20 85 -132 102 -135 19 -4 74
43 120 100 25 32 28 42 17 49 -14 9 -173 10 -216 2z" id="node11" class="node"></path>
<path d="M1756 1824 c-80 -106 -142 -142 -191 -110 -13 9 -39 38 -57 66 -18
27 -36 50 -39 50 -4 0 -9 -20 -11 -44 -4 -37 1 -56 28 -111 50 -99 43 -184
-23 -272 -19 -26 -23 -44 -23 -98 l0 -65 193 2 192 3 3 323 c2 254 0 322 -10
322 -7 -1 -35 -30 -62 -66z" id="node12" class="node"></path>

<path d="M1173 1773 c-15 -6 -17 -32 -3 -53 8 -13 14 -10 35 15 13 17 24 33
25 38 0 8 -38 8 -57 0z" id="node14" class="node"></path>
<path d="M1241 1715 c-36 -39 -40 -48 -31 -66 6 -11 17 -22 24 -25 15 -6 121
100 121 120 0 6 -16 12 -36 14 -31 3 -41 -3 -78 -43z" id="node15" class="node"></path>
<path d="M1090 1735 c-10 -12 -7 -25 16 -72 40 -79 110 -148 190 -185 78 -36
154 -49 154 -25 0 9 -14 17 -37 22 -107 20 -233 120 -274 219 -24 60 -30 64
-49 41z" id="node16" class="node"></path>
<path d="M1337 1656 c-31 -36 -57 -67 -57 -70 0 -10 64 -46 81 -46 19 0 59 84
59 124 0 29 -9 56 -19 56 -4 0 -33 -29 -64 -64z" id="node17" class="node"></path>
<path d="M1030 1675 c-10 -11 -9 -24 4 -61 24 -70 77 -134 155 -186 32 -22
155 -61 177 -56 35 6 23 24 -28 42 -119 42 -216 124 -262 221 -14 30 -27 55
-30 55 -2 0 -9 -7 -16 -15z" id="node18" class="node"></path>
<path d="M1450 1617 c0 -7 -9 -30 -20 -52 -11 -21 -18 -40 -17 -42 2 -1 18 -6
35 -9 l32 -6 0 45 c0 25 -3 52 -6 61 -7 19 -24 21 -24 3z" id="node19" class="node"></path>
<path d="M999 1566 c-3 -3 -3 -21 -1 -41 3 -29 7 -33 18 -24 8 6 14 17 14 23
0 16 -24 49 -31 42z" id="node20" class="node"></path>
<path d="M1046 1464 c-10 -26 -7 -34 20 -59 31 -29 49 -32 58 -8 4 11 -4 28
-26 50 -36 37 -43 40 -52 17z" id="node21" class="node"></path>
<path d="M1156 1373 c-8 -20 10 -33 46 -33 14 0 33 -3 42 -6 9 -3 16 -1 16 4
0 9 -80 52 -95 52 -2 0 -6 -8 -9 -17z" id="node22" class="node"></path>
<path d="M1480 262 c-62 -9 -129 -35 -160 -61 -33 -27 -34 -29 -18 -53 22 -34
72 -64 130 -78 86 -22 120 2 120 85 0 40 -22 99 -39 107 -5 2 -19 2 -33 0z" id="node23" class="node"></path>
<path d="M1813 258 c-34 -40 -31 -150 3 -175 36 -26 127 -6 191 43 52 39 44
71 -27 107 -67 33 -150 46 -167 25z" id="node24" class="node"></path>
</g>
</svg>