<!--?xml version="1.0" standalone="no"?--><svg version="1.0" xmlns="http://www.w3.org/2000/svg" width="300.000000pt" height="300.000000pt" viewBox="0 0 300.000000 300.000000" preserveAspectRatio="xMidYMid meet">
<metadata>
  <rdf:rdf xmlns:rdf="http://www.w3.org/1999/02/22-rdf-syntax-ns#" xmlns:rdfs="http://www.w3.org/2000/01/rdf-schema#" xmlns:dc="http://purl.org/dc/elements/1.1/">
    <rdf:description dc:title="family sticker teen age girl" dc:publisher="Hiox" dc:date="2015-05-21" dc:format="image/svg+xml" dc:language="en">
      <dc:creator>
        <rdf:bag>
          <rdf:li>svgimages.com</rdf:li>
        </rdf:bag>
      </dc:creator>
    </rdf:description>
  </rdf:rdf>
</metadata>
<g transform="translate(0.000000,300.000000) scale(0.100000,-0.100000)" fill="#3B3A3A" stroke="none">
<path d="M1790 2990 c0 -6 -19 -20 -42 -31 -24 -11 -61 -31 -83 -44 -22 -14
-50 -25 -62 -25 -12 0 -25 -4 -28 -10 -9 -15 -40 -12 -138 11 -78 19 -97 20
-156 11 -105 -18 -194 -63 -236 -120 -24 -33 -34 -56 -33 -76 4 -45 20 -41 53
14 16 28 45 61 65 74 51 35 131 61 163 52 37 -9 34 -22 -6 -30 -40 -8 -140
-79 -186 -133 -18 -22 -47 -73 -63 -114 -26 -65 -29 -83 -25 -149 2 -42 14
-100 26 -131 27 -71 101 -152 171 -187 65 -32 85 -73 57 -116 -14 -20 -27 -25
-84 -31 -37 -4 -86 -15 -109 -25 -46 -20 -135 -17 -169 6 -11 8 -26 14 -35 14
-8 1 -30 14 -49 30 -35 29 -35 30 -35 118 -1 108 9 127 65 118 49 -8 71 14 39
41 -12 10 -26 26 -31 36 -8 15 -5 20 20 28 37 13 40 36 6 45 -14 3 -25 12 -25
19 0 21 -17 27 -39 13 -16 -10 -23 -10 -33 0 -18 18 -25 15 -37 -18 -8 -23
-16 -30 -36 -30 l-27 0 33 -42 33 -41 -2 -131 -3 -131 42 -42 c51 -52 118 -76
219 -80 41 -1 81 -2 88 -2 17 -1 15 -31 -5 -53 -16 -18 -16 -23 0 -81 69 -246
71 -353 10 -498 -19 -46 -40 -102 -47 -124 -7 -22 -18 -53 -24 -68 -7 -15 -15
-40 -18 -55 -4 -15 -13 -39 -20 -53 -19 -38 -5 -46 99 -59 98 -12 113 -16 120
-34 6 -16 -15 -109 -38 -171 -20 -50 -17 -109 10 -212 8 -31 15 -79 15 -106
l0 -49 -32 7 c-68 15 -134 22 -158 15 -41 -11 -75 -90 -73 -168 2 -75 20 -107
71 -129 82 -34 236 17 283 94 l22 36 -22 66 c-13 36 -34 118 -47 181 -14 63
-29 133 -33 155 -8 34 -4 57 26 150 20 61 40 116 46 123 6 8 37 12 88 12 116
0 111 16 107 -284 l-3 -251 -27 -38 c-54 -76 -49 -185 11 -248 34 -37 39 -39
97 -39 44 0 63 4 67 14 3 8 25 24 49 35 52 24 67 36 97 79 30 42 23 71 -31
122 -30 30 -59 46 -112 61 -39 12 -77 28 -83 37 -14 18 -19 468 -5 488 4 6 20
14 37 18 43 11 46 23 19 84 -13 30 -24 60 -24 66 0 6 -7 24 -15 40 -8 16 -29
70 -46 119 -16 50 -34 96 -39 102 -4 5 -16 40 -26 77 -16 59 -17 77 -6 137 6
39 23 95 37 125 44 96 52 149 30 207 -15 42 -15 53 -4 59 13 9 39 -5 39 -21 0
-4 10 -20 23 -34 12 -14 38 -44 57 -66 57 -66 72 -78 140 -117 55 -30 75 -37
130 -38 36 -1 68 -2 72 -3 3 0 24 -20 46 -43 43 -44 75 -48 65 -7 -4 14 0 26
11 35 28 20 37 79 18 117 -8 18 -17 34 -18 36 -2 2 -13 -8 -25 -22 -26 -34
-52 -34 -67 -2 -17 37 -39 31 -49 -12 l-9 -38 -60 -3 c-56 -3 -65 0 -120 37
-75 50 -141 115 -232 231 -17 21 -31 25 -102 31 -90 8 -100 14 -100 66 0 35
21 53 62 53 48 0 156 47 206 90 51 42 77 77 117 155 15 31 28 41 53 46 93 19
97 126 5 153 -15 5 -27 23 -39 59 -9 29 -25 66 -35 83 -54 89 9 121 125 63
124 -62 156 -127 156 -315 0 -124 12 -157 65 -174 43 -14 65 -8 65 19 0 12
-11 23 -29 29 -44 16 -54 45 -56 162 0 58 -7 125 -14 149 -23 80 -77 146 -136
165 -11 3 -31 15 -45 26 -21 17 -23 21 -10 30 81 53 290 -89 290 -198 0 -10 9
-31 20 -45 11 -14 20 -32 20 -40 0 -25 68 -77 99 -77 35 0 77 32 67 49 -5 7
-22 11 -40 10 -68 -5 -86 15 -123 135 -20 67 -53 117 -105 158 -59 48 -98 61
-203 67 -81 5 -90 8 -90 26 0 15 12 24 52 36 78 25 139 8 283 -80 70 -42 165
-82 189 -79 40 5 31 28 -19 54 -25 13 -67 35 -95 49 -27 14 -87 44 -132 66
-46 22 -83 44 -83 49 0 6 -34 10 -75 10 -45 0 -75 -4 -75 -10z m-132 -174 c6
-13 8 -27 5 -30 -12 -12 -54 -6 -59 9 -17 43 35 63 54 21z m-300 -54 c2 -6
-16 -16 -39 -22 -43 -12 -68 -33 -69 -57 0 -15 34 -17 60 -3 24 13 47 4 53
-21 3 -10 13 -22 22 -25 24 -9 91 15 132 48 20 15 42 28 49 28 24 0 73 -51 85
-88 6 -20 18 -46 25 -57 22 -31 18 -157 -6 -202 -11 -21 -20 -45 -20 -54 0
-20 -84 -108 -136 -142 -54 -35 -134 -50 -208 -37 -201 33 -304 243 -215 439
29 63 110 161 135 161 6 0 19 9 28 19 25 27 96 36 104 13z m40 -858 c15 -4 22
-14 22 -30 0 -31 -21 -36 -139 -32 -78 2 -96 6 -105 21 -20 32 16 47 113 47
47 0 96 -3 109 -6z m-136 -200 c29 -15 34 -15 59 0 38 22 54 20 78 -10 26 -33
26 -72 0 -104 -11 -14 -36 -49 -55 -77 -21 -32 -43 -53 -54 -53 -27 0 -123
146 -124 187 0 34 27 73 51 73 8 0 28 -7 45 -16z m-109 -1430 c47 -16 107 -63
107 -83 0 -20 -59 -74 -101 -93 -23 -10 -63 -18 -89 -18 -41 0 -52 4 -69 26
-28 36 -28 105 0 150 18 30 26 34 63 34 23 0 63 -7 89 -16z m391 7 c3 -4 23
-11 45 -14 56 -7 127 -45 140 -75 10 -21 9 -28 -11 -49 -37 -39 -99 -71 -155
-78 -48 -6 -54 -4 -79 20 -24 24 -26 32 -22 90 3 50 9 70 28 90 24 26 45 32
54 16z" id="node1" class="node" stroke-width="20"></path>
<path d="M1288 2564 c-3 -5 -8 -30 -12 -55 -5 -34 -3 -49 8 -58 30 -25 50 66
23 104 -8 10 -16 14 -19 9z" id="node2" class="node" stroke-width="20"></path>
<path d="M1395 2547 c-11 -41 -2 -102 15 -102 22 0 27 97 6 114 -13 11 -16 9
-21 -12z" id="node3" class="node" stroke-width="20"></path>
<path d="M1111 2431 c-11 -7 -11 -12 2 -32 8 -13 24 -49 37 -79 15 -38 32 -62
53 -75 95 -59 232 -60 307 -3 40 31 130 163 118 173 -2 1 -20 5 -40 9 l-38 7
0 -41 c0 -53 -12 -74 -62 -110 -38 -28 -47 -30 -132 -30 -100 0 -121 9 -170
67 -28 34 -29 60 -1 83 34 28 -33 57 -74 31z" id="node4" class="node" stroke-width="20"></path>
</g>
<g transform="translate(0.000000,300.000000) scale(0.100000,-0.100000)" fill="#A0A0A0" stroke="none">






<path d="M1184 1896 c-15 -12 -17 -18 -8 -33 9 -15 27 -19 105 -21 118 -4 139
1 139 32 0 30 -20 36 -131 36 -59 0 -91 -4 -105 -14z m136 -13 c45 -5 50 -8
30 -14 -37 -10 -128 -10 -134 0 -12 19 24 24 104 14z" id="node11" class="node" stroke-width="20"></path>
<path d="M1185 1700 c-32 -36 -23 -78 34 -162 33 -50 59 -78 71 -78 11 0 33
21 54 53 19 28 44 63 55 77 26 32 26 71 0 104 -24 30 -40 32 -78 10 -25 -15
-30 -15 -59 0 -41 21 -55 20 -77 -4z m77 -16 c28 -15 33 -14 65 3 34 18 35 18
54 -6 27 -32 24 -65 -9 -103 -16 -18 -39 -48 -52 -67 l-24 -34 -34 39 c-46 52
-82 110 -82 131 0 18 28 53 42 53 5 0 23 -7 40 -16z" id="node12" class="node" stroke-width="20"></path>


</g>
<g transform="translate(0.000000,300.000000) scale(0.100000,-0.100000)" fill="#FFFFFF" stroke="none">





<path d="M1222 1883 c-46 -18 68 -31 128 -14 20 6 15 9 -30 14 -62 8 -79 8
-98 0z" id="node20" class="node" stroke-width="20"></path>
<path d="M1197 1682 c-10 -10 -17 -26 -17 -35 0 -21 36 -79 82 -131 l34 -39
24 34 c13 19 36 49 52 67 33 38 36 71 9 103 -19 24 -20 24 -54 6 -32 -17 -37
-18 -65 -3 -39 20 -45 20 -65 -2z" id="node21" class="node" stroke-width="20"></path>



</g>
</svg>