<!--?xml version="1.0" standalone="no"?--><svg version="1.0" xmlns="http://www.w3.org/2000/svg" width="188.000000pt" height="300.000000pt" viewBox="0 0 188.000000 300.000000" preserveAspectRatio="xMidYMid meet">
<metadata>
  <rdf:rdf xmlns:rdf="http://www.w3.org/1999/02/22-rdf-syntax-ns#" xmlns:rdfs="http://www.w3.org/2000/01/rdf-schema#" xmlns:dc="http://purl.org/dc/elements/1.1/">
    <rdf:description dc:title="family stickers kid" dc:publisher="Hiox" dc:date="2015-05-21" dc:format="image/svg+xml" dc:language="en">
      <dc:creator>
        <rdf:bag>
          <rdf:li>svgimages.com</rdf:li>
        </rdf:bag>
      </dc:creator>
    </rdf:description>
  </rdf:rdf>
</metadata>
<g transform="translate(0.000000,300.000000) scale(0.100000,-0.100000)" fill="#2C2826" stroke="none">
<path d="M175 2963 c-56 -40 -145 -128 -145 -143 0 -6 -7 -10 -15 -10 -24 0
-18 -37 7 -44 19 -4 33 6 76 54 108 121 203 142 276 61 31 -34 9 -45 -56 -31
-103 23 -174 -21 -235 -145 -22 -45 -24 -56 -13 -69 17 -21 31 -9 65 57 36 68
44 78 83 94 33 14 72 10 72 -8 0 -5 -15 -15 -32 -23 -73 -33 -98 -74 -98 -159
0 -69 23 -141 43 -134 8 3 11 29 9 91 -4 84 -3 89 23 116 47 49 149 52 161 5
3 -13 21 -37 40 -54 43 -39 36 -61 -18 -61 -52 0 -75 -14 -83 -50 -10 -44 2
-68 43 -89 36 -18 38 -22 49 -93 6 -40 21 -98 32 -129 26 -69 106 -160 166
-189 25 -12 45 -28 45 -35 0 -25 -28 -37 -67 -30 -102 18 -160 17 -201 -4 -22
-11 -50 -32 -61 -47 -27 -35 -28 -100 -1 -134 24 -30 25 -49 6 -92 -8 -18 -32
-73 -52 -123 -49 -119 -55 -126 -110 -118 -36 5 -44 3 -44 -10 0 -9 9 -19 20
-22 11 -3 20 -12 20 -20 0 -18 -28 -45 -46 -45 -21 0 -17 -27 6 -33 12 -3 20
-14 20 -26 0 -22 14 -28 25 -11 3 6 16 10 27 10 12 0 29 7 39 16 13 12 22 13
38 5 11 -6 22 -11 25 -11 13 0 5 34 -14 57 -26 34 -26 42 11 120 17 36 43 97
59 137 16 39 35 75 44 80 18 12 64 -7 72 -29 4 -9 -31 -129 -76 -268 -156
-481 -141 -425 -120 -467 10 -20 26 -43 36 -51 26 -21 123 -16 184 10 64 28
101 25 116 -9 18 -39 28 -514 12 -527 -7 -5 -35 -16 -63 -23 -91 -24 -175 -95
-175 -146 0 -33 82 -121 120 -129 16 -3 34 -13 41 -21 7 -9 31 -14 66 -14 46
0 58 4 82 29 58 60 65 145 19 237 -24 48 -25 57 -29 299 l-4 250 65 -3 c57 -3
72 1 124 28 94 50 93 54 78 -256 -13 -255 -13 -256 -42 -308 -35 -61 -41 -146
-15 -197 27 -51 122 -98 140 -69 3 5 25 15 48 21 56 15 111 56 137 102 l22 37
-21 43 c-26 54 -101 101 -186 116 l-40 7 2 129 c2 72 5 185 9 253 7 136 13
148 64 118 37 -21 55 -20 91 7 41 29 59 67 59 120 0 47 15 63 41 46 25 -15 75
-10 103 12 38 30 57 21 77 -36 25 -71 23 -85 -15 -162 -71 -142 -83 -211 -41
-239 22 -14 26 -14 54 2 17 10 40 40 56 71 19 39 31 53 47 53 18 0 20 -4 15
-36 -9 -52 12 -143 35 -155 25 -14 53 -3 73 27 14 22 17 65 21 286 2 144 6
264 9 267 3 3 20 -1 38 -8 56 -23 84 -24 111 -5 39 29 36 82 -7 110 -17 12
-50 28 -72 35 -66 21 -69 28 -46 88 24 60 26 93 9 156 -10 36 -10 50 0 65 17
28 15 48 -9 81 -25 35 -42 36 -84 5 -28 -22 -39 -24 -87 -19 -39 4 -73 0 -111
-12 l-56 -17 -67 48 c-37 27 -78 59 -91 71 l-23 22 26 50 c31 60 28 85 -18
130 -58 58 -140 76 -214 49 -25 -9 -39 -8 -63 2 -43 17 -39 34 14 60 48 23
143 119 170 172 9 18 25 61 36 95 17 54 24 64 62 85 38 21 42 27 45 67 4 51
-17 81 -58 81 -63 0 -83 51 -40 105 16 21 30 41 30 46 0 4 7 15 16 23 35 36
143 6 165 -45 6 -17 8 -46 5 -71 -12 -76 -11 -111 1 -115 26 -9 45 44 45 125
1 96 -15 128 -78 163 -50 27 -52 43 -7 47 41 4 84 -35 126 -113 32 -60 59 -77
65 -42 7 36 -64 152 -118 193 -27 21 -117 26 -177 11 -27 -7 -33 -6 -33 7 0
23 51 65 87 72 68 13 103 -3 181 -83 45 -45 79 -72 88 -69 30 12 12 48 -59
118 -92 91 -150 115 -219 91 -62 -21 -102 -55 -143 -122 -23 -36 -48 -64 -65
-71 -16 -7 -36 -20 -45 -30 -16 -18 -19 -17 -78 9 -110 49 -191 48 -301 -4
-29 -14 -56 -25 -61 -25 -4 0 -23 14 -42 30 -18 17 -37 30 -42 30 -4 0 -22 21
-38 48 -36 54 -111 132 -129 132 -6 0 -14 7 -18 15 -4 11 -19 15 -53 14 -39 0
-58 -7 -98 -36z m338 -247 c8 -20 -16 -49 -38 -45 -25 5 -29 23 -10 43 20 20
41 21 48 2z m372 -6 c4 -11 6 -48 5 -83 -2 -90 -2 -89 23 -85 20 3 23 10 27
68 5 59 7 65 28 68 29 4 85 -53 128 -130 26 -49 29 -61 28 -153 0 -92 -2 -105
-31 -161 -40 -77 -134 -166 -199 -188 -278 -94 -516 217 -379 496 35 71 88
128 120 128 23 0 25 -4 25 -43 0 -49 16 -73 37 -56 7 7 13 26 13 45 0 43 18
81 40 87 29 7 40 -13 40 -69 0 -29 4 -55 9 -59 18 -11 28 29 23 91 l-5 64 31
0 c22 0 32 -6 37 -20z m253 -2 c21 -21 13 -38 -17 -38 -33 0 -46 13 -37 35 7
18 37 20 54 3z m-712 -209 c10 -17 -13 -36 -27 -22 -12 12 -4 33 11 33 5 0 12
-5 16 -11z m788 -56 c9 -22 -12 -43 -23 -24 -10 15 -4 41 9 41 4 0 11 -8 14
-17z m-663 -555 c10 -15 2 -62 -16 -98 -8 -14 -16 -33 -19 -42 -9 -28 -49 -21
-100 17 -67 52 -62 85 19 129 34 19 103 15 116 -6z m336 6 c9 -26 -33 -57 -83
-61 -77 -7 -126 20 -110 62 5 13 22 15 98 13 55 -2 93 -7 95 -14z m246 -3 c32
-12 67 -50 67 -72 0 -43 -109 -121 -137 -98 -7 6 -22 43 -34 81 -16 54 -18 73
-8 84 13 16 75 19 112 5z m87 -260 c58 -40 72 -70 51 -109 -8 -15 -5 -26 14
-53 18 -23 25 -46 25 -76 0 -42 28 -115 50 -128 20 -12 9 -36 -36 -83 -25 -26
-55 -64 -66 -84 -34 -60 -40 -55 -63 58 -9 43 -23 102 -30 129 -8 28 -24 91
-36 140 -12 50 -25 97 -29 105 -4 8 -10 36 -14 61 -13 87 43 104 134 40z m490
-37 c11 -12 10 -18 -3 -32 -16 -15 -18 -15 -33 0 -19 18 -12 48 9 48 8 0 20
-7 27 -16z m-126 -49 c80 -24 116 -70 116 -147 0 -62 -50 -127 -97 -128 -20 0
-23 5 -23 39 0 45 -10 56 -44 47 -27 -7 -42 -34 -26 -50 5 -5 10 -20 10 -33 0
-31 -32 -30 -83 0 -55 33 -77 72 -77 134 0 47 4 58 36 93 25 27 48 42 77 48
58 13 56 14 111 -3z m-246 -18 c2 -12 -3 -17 -17 -17 -12 0 -21 6 -21 13 0 31
32 34 38 4z m102 -359 c0 -28 -91 -118 -119 -118 -41 0 -36 29 15 82 68 69
104 82 104 36z m184 10 c18 -30 40 -178 33 -229 -7 -50 -22 -69 -56 -69 -58 0
-121 112 -121 213 0 76 7 88 56 97 64 12 73 11 88 -12z m148 6 c32 -7 63 -38
53 -53 -12 -20 -47 -11 -86 20 -44 34 -51 55 -16 45 12 -4 34 -9 49 -12z
m-256 -348 c8 -20 -23 -123 -48 -163 -11 -18 -27 -33 -35 -33 -24 0 -9 81 28
151 32 60 45 70 55 45z m131 -63 c13 -45 9 -161 -4 -174 -23 -23 -37 7 -41 81
-5 81 3 120 23 120 8 0 18 -12 22 -27z m-950 -564 c26 -71 -7 -149 -63 -149
-52 0 -168 62 -181 96 -12 32 49 75 139 98 64 17 87 7 105 -45z m433 28 c29
-15 48 -33 55 -51 8 -25 6 -31 -22 -57 -31 -27 -115 -59 -155 -59 -11 0 -30
11 -43 25 -34 33 -35 110 -3 150 20 25 25 27 72 21 28 -3 71 -16 96 -29z" id="node1" class="node" stroke-width="20"></path>
<path d="M735 2448 c-9 -24 -1 -103 10 -103 14 0 19 95 6 108 -7 7 -12 5 -16
-5z" id="node2" class="node" stroke-width="20"></path>
<path d="M826 2453 c-3 -3 -6 -30 -6 -60 0 -40 4 -53 15 -53 11 0 15 13 15 54
0 51 -9 74 -24 59z" id="node3" class="node" stroke-width="20"></path>
<path d="M560 2341 c0 -25 63 -142 89 -164 28 -23 104 -47 150 -47 39 0 114
34 147 68 30 31 84 112 84 126 0 3 -18 6 -40 6 -28 0 -40 -4 -40 -14 0 -8 5
-18 10 -21 16 -10 12 -21 -17 -56 -73 -86 -220 -92 -298 -12 -35 36 -44 66
-25 78 6 3 10 15 10 26 0 15 -7 19 -35 19 -19 0 -35 -4 -35 -9z" id="node4" class="node" stroke-width="20"></path>


</g>
<g transform="translate(0.000000,300.000000) scale(0.100000,-0.100000)" fill="#827F7E" stroke="none">










































































</g>
<g transform="translate(0.000000,300.000000) scale(0.100000,-0.100000)" fill="#A2A0A0" stroke="none">























































</g>
<g transform="translate(0.000000,300.000000) scale(0.100000,-0.100000)" fill="#FFFFFF" stroke="none">























</g>
</svg>