<!--?xml version="1.0" standalone="no"?-->

<svg xmlns="http://www.w3.org/2000/svg" width="300.000000pt" height="253.000000pt" viewBox="0 0 300.000000 253.000000" preserveAspectRatio="xMidYMid meet">
<g transform="translate(0.000000,253.000000) scale(0.100000,-0.100000)" fill="#0C0C0C" stroke="none">
<path style="position: relative;" class="node" id="node1" d="M1690 2524 c0 -3 5 -14 10 -25 8 -15 7 -19 -4 -19 -8 0 -18 5 -21 10
-3 6 -11 10 -17 10 -6 0 -4 -8 5 -18 10 -10 17 -24 17 -31 0 -7 19 -34 41 -61
l42 -49 3 -262 c2 -193 7 -284 20 -346 16 -84 16 -84 -6 -108 -17 -19 -21 -30
-15 -55 5 -23 3 -35 -6 -41 -7 -4 -10 -11 -6 -15 4 -4 13 -2 19 4 24 24 38 13
38 -32 0 -24 4 -66 10 -94 7 -39 6 -63 -5 -99 -22 -70 -29 -166 -20 -286 l7
-106 31 -3 c27 -3 33 -9 43 -43 21 -74 82 -190 120 -227 l37 -37 1 -203 c1
-199 0 -204 -26 -274 -38 -97 -37 -114 5 -114 17 0 39 5 47 10 18 11 38 120
39 210 1 36 10 115 22 175 20 106 21 175 4 261 -6 29 -2 34 97 113 56 46 130
96 163 111 33 16 78 41 100 57 22 16 53 34 68 41 35 15 28 28 -29 54 -36 15
-50 17 -81 8 -46 -12 -70 -27 -61 -36 4 -3 0 -20 -8 -36 -11 -22 -41 -41 -118
-78 -57 -28 -106 -50 -109 -50 -14 0 -6 58 9 71 13 11 15 33 12 139 -3 110 -7
130 -28 169 -14 24 -31 55 -39 68 -10 20 -11 45 -3 121 9 87 12 98 37 120 23
19 36 23 69 19 93 -10 283 -39 316 -47 19 -5 87 -14 150 -20 97 -9 119 -14
140 -34 40 -36 90 -68 90 -57 0 5 -4 13 -10 16 -16 10 -11 35 7 35 9 0 30 -12
46 -27 26 -25 29 -26 23 -7 -5 15 -1 23 16 31 20 9 18 10 -22 17 -24 4 -49 11
-55 15 -5 5 -44 18 -85 30 -41 12 -124 37 -185 56 -73 22 -139 36 -195 39 -69
5 -98 12 -155 40 -38 18 -87 36 -107 40 -47 8 -47 14 -29 206 11 104 5 119
-53 142 -84 32 -127 1 -184 -133 -24 -56 -35 -64 -53 -43 -10 12 -16 68 -21
193 -10 274 -17 308 -84 407 -51 78 -64 93 -64 78z"></path>
<path style="position: relative;" class="node" id="node2" d="M725 2205 c-53 -13 -95 -30 -95 -40 0 -7 -13 -15 -30 -18 -16 -4 -30
-11 -30 -16 0 -20 35 -20 112 -1 l80 20 48 -35 c26 -19 60 -53 75 -75 27 -39
27 -42 14 -82 -7 -22 -21 -50 -29 -61 -16 -19 -17 -17 -23 46 -3 37 -11 76
-17 88 -13 24 -74 53 -108 51 -70 -5 -120 -95 -133 -236 -7 -85 -9 -91 -42
-120 -41 -37 -59 -67 -76 -125 -14 -49 -40 -88 -111 -167 -25 -28 -64 -87 -88
-130 -69 -129 -102 -152 -217 -155 l-50 -1 53 -10 c53 -10 53 -10 35 -31 -18
-20 -17 -20 2 -12 11 4 37 11 59 15 50 10 154 112 276 270 48 63 101 130 117
149 l29 34 39 -45 c22 -25 51 -67 64 -93 l24 -47 -22 -82 c-12 -44 -31 -116
-43 -158 l-20 -77 28 -38 c16 -21 40 -52 54 -69 21 -24 31 -55 49 -161 26
-145 31 -120 -42 -256 -21 -38 -37 -81 -37 -95 -1 -43 -45 -203 -69 -250 -12
-24 -21 -53 -19 -65 3 -21 6 -22 118 -18 114 3 171 13 140 24 -143 50 -142 49
-134 96 7 36 56 142 79 171 6 8 20 35 29 60 10 25 35 73 57 107 30 46 42 75
46 117 5 47 8 54 20 44 28 -23 70 -93 78 -128 12 -58 54 -130 121 -209 35 -42
74 -96 85 -121 12 -25 27 -58 35 -75 7 -16 20 -47 28 -67 15 -39 44 -62 89
-73 26 -7 27 -6 27 30 0 38 -9 55 -104 202 -29 44 -62 115 -82 175 -19 54 -45
120 -58 146 -12 26 -33 74 -46 107 -13 33 -54 105 -92 160 -58 86 -69 109 -76
162 -9 66 -7 76 21 86 9 3 17 16 17 27 0 40 -30 216 -45 268 -15 48 -15 58 -1
98 17 52 12 71 -35 141 l-32 45 42 79 c44 82 104 246 96 260 -3 4 -33 29 -67
54 -81 61 -188 116 -213 110z m115 -339 c0 -3 -4 -8 -10 -11 -5 -3 -10 -1 -10
4 0 6 5 11 10 11 6 0 10 -2 10 -4z"></path>
</g>
<g transform="translate(0.000000,253.000000) scale(0.100000,-0.100000)" fill="#A0A0A0" stroke="none">

<path style="position: relative;" class="node" id="node4" d="M820 1859 c0 -5 5 -7 10 -4 6 3 10 8 10 11 0 2 -4 4 -10 4 -5 0 -10
-5 -10 -11z"></path>


</g>
</svg>