<!--?xml version="1.0" standalone="no"?-->

<svg version="1.0" xmlns="http://www.w3.org/2000/svg" width="300.000000pt" height="300.000000pt" viewBox="0 0 300.000000 300.000000" preserveAspectRatio="xMidYMid meet">
<g transform="translate(0.000000,300.000000) scale(0.100000,-0.100000)" fill="#121212" stroke="none">
<path class="node" id="node1" d="M1688 2430 c-65 -19 -128 -98 -128 -160 0 -41 38 -107 70 -120 45
-19 97 -5 115 30 24 47 17 54 -20 21 -42 -36 -39 -36 -76 -14 -55 33 -50 100
10 140 69 47 153 14 186 -72 15 -41 16 -52 5 -86 -7 -22 -18 -43 -24 -48 -6
-4 -56 -16 -111 -26 -106 -19 -234 -70 -300 -121 -19 -15 -38 -24 -42 -21 -3
4 -6 64 -7 134 -1 121 -2 130 -29 174 -76 127 -239 145 -347 39 -51 -50 -68
-105 -51 -168 7 -26 19 -54 27 -63 20 -22 19 -24 -30 -53 -111 -65 -129 -227
-36 -311 l23 -20 -17 32 c-41 81 -6 195 78 251 42 28 57 32 113 32 58 0 67 3
94 29 23 23 29 39 29 70 0 44 -26 81 -57 81 -16 -1 -16 -2 -2 -13 26 -20 41
-57 34 -84 -7 -29 -58 -53 -97 -46 -59 11 -116 102 -101 162 8 34 20 48 67 83
76 55 184 30 226 -53 24 -47 27 -144 5 -215 -8 -27 -15 -68 -15 -91 l0 -43
-45 35 c-80 61 -157 68 -221 19 -101 -75 -76 -255 35 -258 47 -1 81 25 81 62
l0 24 -18 -22 c-25 -31 -80 -30 -105 2 -25 30 -16 75 23 111 24 22 40 27 79
27 41 0 53 -5 80 -32 17 -17 31 -37 31 -44 0 -7 -13 -32 -29 -56 -35 -53 -81
-139 -81 -153 0 -6 -45 -10 -118 -10 l-117 1 -86 47 c-53 29 -99 47 -119 47
-41 0 -105 -35 -119 -67 -14 -31 -14 -115 0 -147 13 -28 64 -56 103 -56 22 0
26 -5 26 -27 0 -40 35 -92 74 -108 51 -22 224 -6 261 24 16 12 32 18 36 14 3
-4 9 -41 11 -81 l5 -72 -60 -37 c-34 -20 -76 -51 -93 -67 -71 -68 -111 -200
-85 -279 16 -47 82 -107 119 -107 15 0 33 -4 41 -9 11 -7 9 -10 -9 -16 -37
-12 -86 4 -124 41 -39 38 -42 37 -25 -11 35 -97 176 -98 225 -2 l16 31 25 -52
c30 -64 72 -92 138 -92 61 0 119 32 140 77 9 19 20 33 23 31 200 -100 249
-112 462 -112 155 -1 183 2 245 22 120 39 232 106 313 189 29 30 32 39 32 93
l0 59 -57 -58 c-89 -89 -188 -161 -221 -161 -6 0 -13 17 -17 38 -11 63 -30 82
-77 82 -41 0 -42 0 -20 -16 12 -8 22 -20 22 -25 0 -6 -12 -1 -27 11 -24 19
-28 19 -36 5 -15 -28 2 -64 44 -94 46 -34 41 -41 -41 -48 -70 -7 -98 1 -81 21
14 17 45 105 77 216 30 108 30 121 -2 45 -45 -110 -80 -173 -136 -247 l-29
-37 -52 15 c-29 9 -71 26 -93 39 -52 30 -128 107 -144 146 -16 38 -27 37 -38
-5 -13 -46 -46 -81 -92 -96 -117 -39 -235 117 -153 202 46 48 123 26 123 -36
-1 -26 -2 -28 -11 -14 -18 32 -48 41 -75 23 -32 -21 -32 -65 0 -102 20 -24 32
-28 70 -27 64 1 96 32 96 90 0 34 -6 48 -32 73 -56 54 -146 63 -196 18 -45
-42 -48 -129 -5 -179 17 -20 9 -38 -16 -38 -26 0 -43 -24 -39 -57 2 -19 9 -29
23 -30 11 -2 14 0 8 3 -22 10 -14 43 12 60 23 15 29 15 52 3 79 -42 26 -147
-69 -135 -78 9 -135 89 -110 153 19 47 24 97 13 125 -22 58 -112 82 -153 41
-25 -26 -31 -104 -9 -125 11 -11 12 -9 7 8 -16 53 36 100 82 75 47 -25 34 -96
-23 -131 -45 -28 -63 -25 -101 16 -29 30 -34 42 -34 85 0 70 42 131 144 207
40 30 50 28 65 -15 20 -57 54 -123 63 -123 4 0 8 10 8 21 0 12 18 40 41 62 58
59 72 91 77 184 4 81 4 83 -26 113 -49 49 -112 33 -112 -29 0 -33 16 -51 47
-51 19 0 23 5 23 28 0 15 -5 33 -12 40 -9 9 -8 12 4 12 19 0 58 -45 58 -67 0
-25 -47 -63 -78 -63 -49 0 -87 59 -98 153 -7 58 10 87 60 107 21 8 26 15 21
30 -4 11 1 32 11 49 46 78 163 62 180 -25 4 -24 -1 -57 -16 -105 -19 -57 -21
-75 -11 -95 6 -14 11 -48 11 -75 0 -44 4 -55 31 -80 65 -61 179 -25 179 56 0
38 -35 75 -71 75 -53 0 -67 -54 -21 -82 l27 -17 -27 -1 c-59 0 -79 71 -32 115
38 35 75 40 122 16 38 -19 72 -69 72 -105 0 -31 -43 -102 -74 -124 -45 -31
-112 -30 -156 3 -19 14 -38 31 -42 37 -6 10 -12 8 -23 -6 -20 -26 -19 -46 3
-46 44 0 97 -25 139 -66 26 -24 48 -44 49 -44 1 0 21 33 44 73 69 116 57 110
186 102 106 -7 113 -6 123 13 6 11 11 34 11 50 0 16 9 39 19 51 11 13 17 29
15 36 -3 7 4 18 15 25 12 6 21 21 21 34 0 17 11 30 35 45 19 11 35 26 35 32 0
7 -26 35 -57 64 l-58 53 3 83 2 83 -37 -36 c-39 -37 -69 -52 -203 -103 -41
-16 -82 -35 -91 -42 -20 -17 -29 -16 -29 1 0 17 28 40 123 102 38 25 79 57 93
72 27 31 64 122 63 155 0 16 -4 12 -14 -16 -31 -83 -91 -140 -210 -198 -27
-13 -71 -39 -97 -57 -34 -23 -48 -28 -48 -18 0 43 27 130 62 203 63 130 176
223 315 259 195 51 438 -59 487 -219 17 -55 17 -61 1 -103 -23 -61 -55 -84
-120 -84 -57 0 -87 22 -99 72 -7 29 8 78 27 90 40 26 91 -4 89 -53 -1 -32 0
-33 14 -15 17 24 18 40 3 69 -17 31 -28 37 -73 37 -55 0 -100 -36 -116 -93
-17 -63 10 -125 66 -152 67 -32 123 -31 177 1 53 32 57 39 66 112 3 29 10 54
16 55 5 1 19 -26 30 -60 17 -52 24 -63 43 -63 l22 0 -2 258 c-3 246 -4 257
-22 257 -13 0 -22 -10 -27 -29 -14 -51 -47 -76 -100 -76 -63 0 -70 15 -17 38
l43 18 -25 14 c-14 7 -35 24 -47 37 -12 12 -30 23 -40 23 -18 -1 -75 -29 -59
-30 5 0 2 -7 -5 -17 -8 -9 -13 -19 -11 -22 7 -12 -15 -11 -32 2 -17 13 -16 15
16 34 42 25 64 69 71 146 7 75 -7 73 -22 -3 -14 -71 -52 -120 -110 -143 -32
-13 -49 -14 -109 -4 -77 13 -90 20 -75 39 16 20 24 82 17 127 -15 93 -151 186
-236 161z m-942 -816 c61 -41 94 -84 65 -84 -5 0 -19 -17 -31 -37 -27 -45 -33
-140 -11 -167 22 -27 7 -28 -18 -2 -33 35 -38 93 -12 144 18 35 20 46 10 65
-7 12 -17 25 -23 29 -15 11 -54 10 -60 -1 -4 -5 3 -7 13 -4 19 5 61 -27 61
-47 0 -6 -11 -22 -25 -35 -35 -36 -96 -35 -124 1 -30 38 -28 94 5 133 34 41
93 43 150 5z m308 -104 c22 -8 25 -14 20 -42 -10 -61 -12 -62 -43 -29 -19 21
-39 31 -58 31 -36 0 -93 -35 -93 -56 0 -16 1 -16 18 -1 57 52 136 -19 82 -73
-32 -32 -94 -27 -132 10 -32 33 -33 60 -2 108 35 54 136 80 208 52z"></path>
<path class="node" id="node2" d="M1530 2385 c-14 -8 -42 -14 -62 -15 -53 0 -66 -8 -79 -47 -13 -41 -6
-52 19 -30 31 28 35 19 7 -15 -24 -28 -25 -32 -10 -41 23 -12 79 -1 97 21 26
29 59 102 56 122 -3 17 -5 17 -28 5z"></path>
<path class="node" id="node3" d="M2025 2334 c12 -90 16 -104 42 -124 51 -40 90 -20 62 32 -18 34 -1
32 20 -3 l21 -34 0 45 c0 25 -4 50 -8 56 -4 6 -34 24 -67 39 -33 16 -64 31
-68 33 -5 2 -6 -18 -2 -44z"></path>
<path class="node" id="node4" d="M2281 2334 c-28 -35 -28 -59 -2 -44 36 19 46 10 12 -11 -31 -19 -33
-22 -18 -37 22 -22 83 -19 116 6 28 21 96 112 83 112 -4 0 -13 -5 -20 -12 -9
-9 -21 -9 -50 0 -64 19 -98 15 -121 -14z"></path>
<path class="node" id="node5" d="M1668 1863 c-28 -17 -38 -48 -38 -115 0 -22 -5 -48 -11 -60 -10 -19
-9 -20 20 -13 45 10 117 52 141 82 23 30 26 71 6 98 -14 19 -16 18 -50 -18
-41 -44 -49 -34 -10 12 l26 31 -29 0 c-15 0 -40 -8 -55 -17z"></path>
<path class="node" id="node6" d="M1240 1517 c-47 -24 -35 -97 16 -97 19 0 24 5 24 28 1 25 1 26 15 8
10 -13 11 -24 4 -37 -8 -16 -22 -19 -78 -19 -57 0 -71 -4 -87 -21 l-19 -22 32
17 c41 20 92 21 121 0 29 -20 47 -7 63 47 14 47 -1 94 -34 103 -29 8 -28 8
-57 -7z"></path>
<path class="node" id="node7" d="M2357 1505 c-4 -17 -22 -40 -40 -52 -18 -13 -25 -23 -17 -23 9 0 26
7 38 16 19 13 22 13 22 1 0 -8 11 -22 25 -31 23 -15 26 -15 31 -1 9 22 -12 65
-30 65 -8 0 -16 12 -18 28 l-4 27 -7 -30z"></path>
<path class="node" id="node8" d="M2233 1488 c27 -36 63 -43 80 -16 18 27 -9 48 -61 48 l-45 0 26 -32z"></path>
<path class="node" id="node9" d="M2277 1393 c-10 -9 -8 -38 4 -70 l11 -28 19 24 c10 13 19 36 19 52 0
24 -4 29 -23 29 -13 0 -27 -3 -30 -7z"></path>
<path class="node" id="node10" d="M2035 1230 c-29 -56 -15 -113 26 -103 34 9 42 39 23 89 -9 24 -20 44
-25 44 -5 0 -15 -13 -24 -30z"></path>
<path class="node" id="node11" d="M1925 1138 c-8 -50 6 -92 34 -107 33 -18 44 -13 38 16 -5 25 -4 26 8
9 13 -17 14 -17 25 4 12 22 5 60 -10 60 -5 0 -25 14 -43 30 -19 17 -37 30 -40
30 -3 0 -9 -19 -12 -42z"></path>
<path class="node" id="node12" d="M2145 1113 c-37 -3 -55 -10 -67 -26 -21 -26 -23 -51 -5 -44 10 4 13
-2 9 -19 -4 -21 -1 -24 25 -24 30 0 69 33 92 77 13 25 14 44 4 41 -5 -1 -30
-3 -58 -5z"></path>
<path class="node" id="node13" d="M1845 1009 c-22 -11 -50 -18 -62 -15 -32 5 -28 -4 16 -41 65 -54 118
-66 159 -37 18 13 21 19 11 30 -6 8 -20 14 -30 14 -11 0 -19 5 -19 11 0 8 11
9 32 5 l32 -6 -29 30 c-33 34 -54 36 -110 9z"></path>
<path class="node" id="node14" d="M2066 963 c-16 -4 -12 -9 20 -24 l39 -19 -42 5 c-37 5 -43 3 -43 -13
0 -27 42 -62 81 -68 21 -3 55 3 89 15 30 11 48 20 38 20 -9 1 -34 21 -56 46
-40 46 -65 53 -126 38z"></path>
<path class="node" id="node15" d="M1783 824 c-60 -64 -58 -67 48 -68 75 -1 96 11 101 54 3 23 0 25 -32
23 -35 -2 -35 -2 -7 9 22 8 26 13 16 24 -6 8 -26 14 -43 14 -25 0 -42 -11 -83
-56z"></path>
</g>
<g transform="translate(0.000000,300.000000) scale(0.100000,-0.100000)" fill="#A1A1A1" stroke="none">



</g>
</svg>