<!--?xml version="1.0" standalone="no"?-->

<svg version="1.0" xmlns="http://www.w3.org/2000/svg" width="300.000000pt" height="300.000000pt" viewBox="0 0 300.000000 300.000000" preserveAspectRatio="xMidYMid meet">
<g transform="translate(0.000000,300.000000) scale(0.100000,-0.100000)" fill="#1D1D1D" stroke="none">
<path class="node" id="node1" d="M455 2289 c-10 -15 0 -22 37 -26 43 -4 156 -42 163 -54 4 -5 10 -9
16 -9 14 0 11 26 -6 40 -8 7 -15 23 -15 36 0 24 -2 24 -94 24 -56 0 -97 -4
-101 -11z"></path>
<path class="node" id="node2" d="M680 2281 c0 -35 69 -67 85 -40 4 5 4 21 1 35 -5 20 -12 24 -46 24
-33 0 -40 -3 -40 -19z"></path>
<path class="node" id="node3" d="M790 2279 c16 -28 -11 -68 -51 -76 -29 -5 -46 -19 -36 -29 3 -3 16 1
29 9 12 9 40 19 61 22 32 6 37 11 37 35 0 42 -10 60 -31 60 -17 0 -18 -3 -9
-21z"></path>
<path class="node" id="node4" d="M864 2270 c3 -16 8 -42 11 -58 3 -15 18 -36 34 -46 15 -10 38 -34 51
-53 24 -35 55 -53 91 -53 12 0 19 4 17 10 -1 5 -43 59 -92 120 -91 113 -123
136 -112 80z"></path>
<path stroke-width="20" class="node" id="node5" d="M1640 2286 c0 -9 18 -15 55 -20 112 -13 165 -66 165 -165 0 -60 9
-91 25 -91 18 0 45 -28 45 -46 0 -8 -13 -23 -30 -32 -37 -21 -41 -65 -9 -84
11 -7 29 -30 40 -51 18 -34 18 -39 4 -67 -14 -27 -18 -29 -37 -19 -18 10 -20
9 -15 -5 4 -9 1 -15 -6 -13 -7 1 -10 -5 -8 -13 3 -8 4 -62 4 -120 -1 -58 1
-99 4 -92 8 22 43 14 44 -10 1 -17 2 -19 6 -5 6 23 21 21 44 -5 25 -31 24 -57
-7 -102 -15 -21 -30 -50 -33 -64 l-7 -26 -27 39 -27 40 0 -89 c0 -77 2 -87 15
-76 12 10 16 7 25 -16 8 -20 8 -35 1 -51 -11 -24 -31 -31 -31 -12 0 5 -4 8 -9
4 -6 -3 -15 5 -22 17 -16 31 -62 88 -71 88 -3 0 -9 -18 -13 -40 -10 -57 -25
-40 -25 28 -1 60 -7 76 -55 135 -37 45 -78 56 -128 32 -47 -22 -64 -63 -48
-115 8 -28 19 -41 40 -48 55 -19 96 42 55 82 -14 15 -14 16 5 16 47 0 67 -64
33 -106 -9 -12 -34 -27 -55 -34 -27 -9 -36 -15 -28 -23 7 -7 22 -7 50 1 51 16
81 2 110 -49 23 -41 20 -45 -26 -29 -26 9 -27 9 -8 -5 48 -35 49 -37 26 -56
-11 -9 -21 -20 -21 -23 0 -13 33 -5 57 14 14 11 33 20 42 20 21 -1 57 -28 48
-36 -4 -4 -2 -13 3 -19 15 -19 -25 -50 -61 -47 -19 2 -28 -2 -24 -8 3 -5 17
-10 31 -10 36 0 57 -24 50 -58 -5 -21 1 -35 25 -62 17 -19 37 -45 46 -57 8
-13 24 -23 34 -23 16 0 19 8 19 45 0 25 -5 45 -10 45 -6 0 -22 11 -35 25 -28
27 -33 65 -10 65 8 0 15 5 15 10 0 6 10 11 23 11 20 1 20 2 2 6 -26 7 -55 33
-55 50 0 7 8 13 18 14 11 0 12 2 4 6 -18 7 4 33 29 33 11 0 19 7 19 15 0 12
-5 11 -30 -3 -27 -15 -32 -15 -40 -2 -23 36 -7 74 34 81 10 2 22 11 26 19 26
57 80 156 118 214 l44 68 47 -6 c25 -4 80 -9 122 -13 74 -5 76 -5 97 22 14 17
22 42 22 65 0 21 7 43 15 50 8 7 15 22 15 34 0 12 8 26 19 33 10 6 21 24 24
40 4 18 20 36 46 52 22 13 37 29 35 35 -3 7 -27 30 -55 51 -27 22 -59 59 -70
82 -18 37 -19 47 -8 107 13 78 8 106 -18 85 -11 -9 -45 -14 -103 -14 -86 -1
-89 -2 -133 -38 -54 -44 -191 -120 -200 -110 -4 3 -7 30 -7 58 0 43 -4 56 -26
76 -44 40 -72 137 -45 154 10 6 16 -9 26 -67 4 -20 16 -44 26 -54 18 -16 19
-16 19 3 0 11 -9 28 -20 38 -34 30 -25 59 38 123 47 49 66 61 110 72 29 6 62
10 72 7 15 -4 20 0 20 14 0 18 -11 19 -270 19 -221 0 -270 -2 -270 -14z m644
-333 l-7 -28 22 25 21 25 20 -24 c44 -52 12 -129 -81 -196 l-52 -37 6 28 c3
16 0 54 -5 85 -14 72 -6 102 34 127 44 27 50 27 42 -5z m-174 -125 c0 -24 -9
-63 -20 -87 -23 -51 -24 -54 -7 -48 6 2 33 -6 59 -19 26 -13 56 -24 68 -24 33
0 23 -17 -32 -55 -63 -42 -123 -48 -153 -15 -15 16 -15 22 -5 35 9 11 9 15 1
15 -7 0 -6 9 5 25 16 25 16 25 -15 25 -35 0 -38 10 -15 46 9 13 14 27 11 30
-3 3 -8 -3 -11 -14 -4 -11 -13 -23 -21 -26 -12 -4 -15 4 -15 34 0 43 28 74 80
85 16 3 34 13 41 21 20 24 29 16 29 -28z m-145 -163 c17 -16 25 -35 25 -59 0
-115 -68 -114 -99 1 -16 57 -6 75 42 82 4 0 19 -10 32 -24z m-71 -120 c3 -8 1
-15 -4 -15 -6 0 -10 7 -10 15 0 8 2 15 4 15 2 0 6 -7 10 -15z m191 -1 c9 -4
25 -24 35 -45 11 -21 30 -45 42 -54 33 -23 9 -35 -70 -35 -57 0 -67 3 -93 29
-36 36 -39 71 -6 71 13 0 28 -5 35 -12 9 -9 12 -9 12 0 0 6 -12 15 -27 18 -25
7 -25 8 -8 20 20 15 53 18 80 8z m-258 -455 c24 -9 42 -51 24 -57 -6 -2 -11
-10 -11 -18 0 -8 -6 -14 -14 -14 -26 0 -55 35 -62 74 -7 42 -8 42 63 15z m51
-274 c1 -13 -4 -7 -14 14 -8 19 -12 42 -8 50 5 12 9 8 14 -14 4 -16 8 -39 8
-50z"></path>
<path class="node" id="node6" d="M2272 1900 c0 -14 2 -19 5 -12 2 6 2 18 0 25 -3 6 -5 1 -5 -13z"></path>
<path class="node" id="node7" d="M2053 1633 c9 -2 23 -2 30 0 6 3 -1 5 -18 5 -16 0 -22 -2 -12 -5z"></path>
<path class="node" id="node8" d="M2337 2245 c-3 -18 2 -30 16 -40 12 -8 23 -13 25 -10 5 4 -26 75 -32
75 -2 0 -6 -11 -9 -25z"></path>
<path class="node" id="node9" d="M766 2137 c-15 -11 -17 -17 -7 -35 6 -11 11 -32 11 -46 0 -19 5 -26
19 -26 54 0 69 37 26 60 -31 17 -32 30 -2 30 31 0 67 -35 67 -66 0 -35 -42
-74 -80 -74 l-30 0 0 -82 c0 -46 5 -90 10 -98 7 -12 10 -8 10 15 l1 30 17 -33
c13 -27 14 -39 5 -63 -11 -27 -10 -30 5 -24 9 4 25 7 35 7 24 -1 23 44 -2 60
-15 9 -17 16 -10 30 7 14 6 16 -6 12 -23 -9 -18 14 10 40 17 16 25 34 25 57
l0 34 42 -43 c49 -51 60 -43 48 36 -10 60 -55 148 -86 169 -33 21 -86 27 -108
10z"></path>
<path class="node" id="node10" d="M2339 2101 l34 -30 -27 -7 c-14 -3 -40 -4 -56 -2 -29 4 -60 -15 -47
-28 11 -12 113 7 144 26 25 15 30 23 25 46 -5 27 -5 27 -13 6 -10 -27 -15 -27
-59 -2 l-35 21 34 -30z"></path>
<path class="node" id="node11" d="M1006 2004 c10 -44 12 -45 47 -24 18 11 41 20 51 20 29 0 8 15 -22
16 -15 0 -40 4 -55 9 -27 7 -28 6 -21 -21z"></path>
<path class="node" id="node12" d="M1073 1942 c-45 -24 -73 -64 -73 -104 1 -25 11 -45 44 -80 51 -55 72
-65 181 -83 44 -7 100 -22 125 -33 79 -35 160 -135 160 -198 0 -22 3 -25 23
-20 12 3 28 6 35 6 23 0 12 20 -59 108 -40 48 -101 124 -138 169 l-65 83 -32
-31 c-34 -33 -97 -48 -149 -35 -33 8 -81 59 -88 93 -6 32 8 72 31 89 23 18 67
17 86 -2 25 -24 19 -30 -24 -26 -34 4 -41 1 -48 -19 -12 -32 -4 -56 26 -79 37
-29 84 -26 121 9 39 36 39 47 0 91 -17 19 -37 45 -46 58 -19 27 -64 29 -110 4z"></path>
<path class="node" id="node13" d="M778 1774 c-5 -4 -8 -16 -8 -28 0 -14 3 -17 11 -9 6 6 9 19 7 28 -1
9 -6 13 -10 9z"></path>
<path class="node" id="node14" d="M788 1696 c-12 -9 -18 -27 -18 -55 0 -39 13 -55 23 -28 4 8 6 7 7 -3
0 -8 16 -33 35 -54 l35 -39 0 71 0 71 -32 3 c-27 2 -33 7 -32 26 0 12 0 22 0
22 -1 0 -9 -7 -18 -14z"></path>
<path class="node" id="node15" d="M1147 1636 c18 -31 116 -146 121 -142 2 3 -5 23 -17 46 -24 45 -21
46 56 26 60 -16 118 -49 127 -72 3 -9 6 -33 6 -55 0 -47 -15 -50 -62 -12 -21
18 -28 21 -18 8 8 -11 23 -26 33 -33 18 -14 14 -34 -6 -30 -23 6 -22 -9 5 -41
27 -31 48 -34 48 -6 0 7 12 27 26 44 37 45 27 94 -33 161 -54 60 -76 72 -168
93 -104 23 -125 26 -118 13z"></path>
<path class="node" id="node16" d="M837 1469 c-23 -24 -32 -27 -48 -19 -17 10 -19 7 -19 -36 0 -40 2
-45 15 -34 19 16 19 0 0 -26 -19 -25 -19 -113 1 -139 15 -19 15 -19 8 9 -6 27
-6 28 17 16 13 -7 28 -19 32 -26 11 -18 27 -18 27 1 0 8 -13 21 -30 30 -31 16
-47 53 -36 81 4 10 12 14 22 10 12 -4 15 -2 10 9 -4 10 1 15 14 15 20 0 27 14
12 24 -10 6 -8 41 2 79 11 38 6 40 -27 6z"></path>
<path class="node" id="node17" d="M858 1140 c-4 -8 -9 -32 -10 -53 l-3 -37 -37 25 -38 26 0 -36 c0 -24
5 -35 14 -35 8 0 29 -12 46 -26 17 -15 33 -24 36 -21 3 2 4 42 2 88 -2 46 -6
77 -10 69z"></path>
<path class="node" id="node18" d="M770 959 c0 -23 5 -32 21 -36 11 -3 25 -17 30 -30 11 -28 -9 -61 -53
-86 -32 -18 -54 -58 -45 -81 6 -14 32 -16 187 -16 167 0 180 1 180 18 0 15
-14 20 -76 29 -95 14 -121 36 -152 131 -17 52 -29 72 -51 85 -39 23 -41 22
-41 -14z"></path>
<path class="node" id="node19" d="M760 880 c0 -41 7 -49 28 -28 18 18 15 42 -8 56 -19 11 -20 10 -20
-28z"></path>
<path class="node" id="node20" d="M588 753 c-30 -3 -38 -8 -38 -24 0 -18 6 -20 63 -17 56 3 62 5 65 26
4 24 0 24 -90 15z"></path>
</g>
<g transform="translate(0.000000,300.000000) scale(0.100000,-0.100000)" fill="#9F9F9F" stroke="none">








</g>
</svg>