<!--?xml version="1.0" standalone="no"?-->

<svg version="1.0" xmlns="http://www.w3.org/2000/svg" width="300.000000pt" height="300.000000pt" viewBox="0 0 300.000000 300.000000" preserveAspectRatio="xMidYMid meet">
<g transform="translate(0.000000,300.000000) scale(0.100000,-0.100000)" fill="#1A1A1A" stroke="none">
<path class="node" id="node1" d="M417 2391 c-7 -28 -1 -31 67 -31 46 0 71 -6 105 -25 51 -30 51 -30
51 -7 0 9 9 32 20 50 l20 32 -129 0 c-119 0 -129 -1 -134 -19z"></path>
<path class="node" id="node2" d="M727 2390 c-54 -43 -39 -167 23 -188 59 -21 130 19 130 73 0 43 -28
61 -71 46 -35 -12 -39 2 -5 24 56 37 106 -10 107 -102 1 -70 17 -121 18 -58 1
23 11 61 24 85 31 62 87 90 179 90 66 0 69 1 66 23 -3 19 -10 22 -60 25 -46 2
-63 -1 -87 -19 -33 -24 -77 -23 -146 4 -59 24 -146 22 -178 -3z"></path>
<path class="node" id="node3" d="M1520 2385 c0 -21 5 -25 28 -25 15 0 43 11 62 25 l34 25 -62 0 c-59
0 -62 -1 -62 -25z"></path>
<path class="node" id="node4" d="M1766 2386 c5 -23 3 -26 -22 -27 -24 -1 -25 -2 -6 -6 25 -5 28 -13
10 -32 -11 -11 -8 -12 15 -7 41 10 70 -2 64 -25 -3 -10 -1 -19 4 -19 18 0 8
-31 -17 -57 -25 -25 -26 -31 -25 -127 1 -55 4 -103 7 -105 2 -3 10 1 16 7 21
21 28 13 28 -34 0 -33 -5 -51 -17 -60 -16 -12 -15 -13 14 -14 20 0 42 -10 60
-26 22 -20 23 -24 8 -19 -11 4 -41 10 -67 12 l-47 5 -3 -143 -3 -144 -45 -5
c-31 -3 -40 -7 -27 -12 24 -10 21 -21 -12 -41 -38 -22 -61 -13 -61 24 0 33 -6
36 -31 14 -17 -16 -69 -12 -69 6 0 5 -4 9 -10 9 -5 0 -10 -4 -10 -9 0 -16 -54
-71 -70 -71 -12 1 -12 3 3 11 20 12 23 29 3 29 -8 0 -16 7 -20 15 -7 18 -27
20 -23 3 1 -7 -3 -12 -9 -11 -7 1 -10 -6 -7 -17 4 -17 0 -20 -26 -20 -26 0
-36 7 -52 35 -19 31 -25 35 -64 35 -42 0 -43 -1 -57 -45 l-15 -45 96 -1 c53
-1 101 0 106 1 6 2 45 2 87 1 68 -2 79 0 90 19 17 27 64 27 78 0 9 -16 21 -20
68 -20 32 0 63 -5 70 -12 7 -7 12 -32 12 -56 0 -33 6 -49 23 -63 l22 -20 -25
7 c-24 6 -24 6 -8 -13 13 -14 16 -29 11 -56 -3 -20 -9 -34 -14 -31 -5 3 -9
-44 -9 -104 0 -96 2 -111 20 -127 10 -9 24 -32 30 -50 l11 -33 62 5 c57 5 65
3 95 -21 l31 -27 -10 33 c-6 18 -13 39 -15 46 -3 10 -8 10 -25 1 -32 -17 -101
6 -128 41 -73 100 -38 223 75 260 48 16 93 9 187 -29 47 -19 96 -31 123 -31
40 0 45 -2 39 -19 -8 -26 7 -33 66 -33 68 0 89 20 89 83 0 38 4 51 20 59 12 6
20 21 20 35 0 14 9 30 20 37 12 8 20 24 20 40 0 21 9 32 40 49 22 13 40 30 40
38 0 9 -24 34 -53 57 -61 47 -90 98 -85 152 l3 37 48 -3 47 -3 -1 53 c0 29 -9
76 -18 103 -15 42 -21 49 -41 47 -31 -5 -72 7 -65 18 3 6 21 10 40 10 19 0 37
4 40 10 4 6 -6 7 -24 4 -37 -8 -57 7 -70 50 -5 17 -12 40 -17 50 -6 16 -4 18
19 14 15 -3 27 -2 27 1 0 11 -53 65 -88 89 -45 33 -152 73 -174 66 -10 -3 -29
-27 -43 -54 -50 -98 -42 -176 23 -230 46 -38 82 -39 123 -2 39 34 52 108 24
135 -38 38 -95 13 -95 -42 0 -29 -18 -26 -26 3 -13 52 22 106 69 106 131 0
174 -215 56 -284 -21 -12 -53 -19 -89 -20 -47 -1 -63 4 -92 26 -39 30 -68 82
-75 137 -6 45 19 133 52 183 34 51 32 58 -15 58 -25 0 -40 5 -40 13 1 17 30
51 61 71 35 22 46 76 16 76 -11 0 -29 -7 -39 -17 -17 -15 -18 -15 -18 0 0 25
-46 21 -64 -5 -9 -12 -16 -30 -16 -39 0 -21 -46 -59 -71 -59 -24 0 -35 20 -18
32 11 8 10 8 -4 4 -10 -3 -23 -6 -28 -6 -4 0 -5 -8 -2 -17 4 -10 -15 7 -42 37
-61 70 -78 81 -69 46z m276 -136 c38 -35 32 -44 -34 -54 -51 -8 -78 7 -76 42
2 39 5 42 43 42 24 0 44 -9 67 -30z m-149 -26 c27 -10 33 -51 10 -82 -11 -15
-22 -35 -26 -45 -10 -26 -23 -14 -41 39 -14 41 -14 49 0 76 8 16 20 27 27 24
7 -3 20 -9 30 -12z m102 -85 c7 -21 -4 -89 -14 -89 -15 0 -61 64 -61 85 0 20
5 23 35 23 25 0 36 -5 40 -19z m45 -188 c0 -5 -12 -29 -26 -55 -22 -39 -30
-46 -56 -46 -24 0 -29 3 -24 16 4 12 2 15 -9 11 -8 -4 -17 -1 -21 4 -11 19 18
59 50 68 41 12 86 13 86 2z m452 -65 c14 -26 -8 -72 -47 -96 -18 -11 -35 -20
-39 -20 -3 0 -6 27 -6 60 0 45 4 61 17 69 25 13 64 7 75 -13z m-642 -63 c0 24
15 21 39 -9 19 -24 19 -27 3 -72 -9 -26 -18 -49 -19 -51 -1 -2 -16 9 -32 25
-36 33 -47 74 -30 105 11 22 12 22 25 4 12 -17 14 -17 14 -2z m340 -120 c0
-31 -6 -48 -22 -63 -23 -22 -48 -27 -48 -9 0 5 -4 8 -9 5 -12 -8 -28 13 -36
45 -5 21 0 34 23 60 16 19 35 45 42 59 l13 25 18 -40 c10 -22 19 -59 19 -82z
m-185 27 c44 -27 68 -72 55 -104 -11 -31 -17 -32 -44 -8 -20 16 -20 16 -7 -1
19 -24 10 -29 -26 -17 -36 13 -53 43 -51 90 2 19 -1 45 -5 58 -8 21 -7 21 20
11 15 -6 41 -19 58 -29z m303 -77 c23 -3 42 -11 42 -17 0 -15 -56 -69 -88 -86
l-24 -12 21 -19 c12 -11 21 -26 21 -33 0 -7 12 -25 27 -40 14 -14 23 -29 20
-32 -12 -13 -121 -4 -144 11 -32 21 -40 61 -18 85 10 11 24 20 32 20 20 0 16
13 -9 29 -21 13 -21 14 -3 27 17 12 17 14 2 14 -24 0 -21 15 9 45 19 19 33 25
48 20 11 -3 40 -9 64 -12z m-170 -55 c30 -30 5 -100 -46 -127 -31 -17 -42 -6
-42 42 0 32 -3 38 -11 27 -8 -12 -9 -11 -6 5 2 11 9 19 16 17 7 -1 10 2 7 7
-7 12 32 41 54 41 9 0 21 -5 28 -12z m-154 -26 c44 -50 -26 -125 -83 -89 -14
9 -44 25 -65 36 l-39 19 49 26 c59 30 114 33 138 8z m39 -122 c18 -21 22 -66
9 -87 -4 -7 -26 -20 -47 -29 -22 -9 -47 -23 -57 -31 -25 -23 -30 0 -14 69 20
89 69 124 109 78z m142 -21 c8 -9 26 -139 19 -147 -6 -9 -77 33 -104 61 -30
31 -36 51 -24 81 9 23 30 20 48 -6 18 -26 21 -17 5 14 -10 19 -9 20 17 14 16
-4 33 -12 39 -17z m-260 -19 c8 -13 -21 -66 -40 -74 -15 -5 -55 21 -55 36 0
10 61 48 77 48 6 0 15 -4 18 -10z"></path>
<path class="node" id="node5" d="M1832 2368 l32 -41 11 32 c6 18 16 35 22 39 7 5 -12 8 -42 9 l-55 1
32 -40z"></path>
<path class="node" id="node6" d="M2214 2383 c9 -18 19 -23 47 -23 42 0 49 5 42 31 -4 16 -13 19 -52
17 -45 -2 -47 -3 -37 -25z"></path>
<path class="node" id="node7" d="M675 2145 c4 -33 9 -62 11 -64 1 -1 13 4 26 13 13 9 43 16 72 16 88
0 147 -72 131 -158 -6 -34 -43 -110 -68 -140 -8 -10 -13 -166 -8 -268 1 -5 16
-26 34 -46 l33 -36 85 5 c73 4 87 8 107 29 12 14 22 34 22 45 0 17 -7 19 -60
19 -49 0 -58 -3 -54 -15 9 -22 -25 -19 -56 5 l-25 19 4 248 c3 244 3 249 -19
268 -12 11 -28 35 -35 53 -14 33 -15 33 -44 17 -50 -25 -88 -18 -139 29 l-24
21 7 -60z"></path>
<path class="node" id="node8" d="M722 2050 c-42 -39 -19 -130 32 -130 26 0 41 15 48 45 5 19 5 19 13
2 11 -25 -13 -66 -43 -74 -14 -3 -39 1 -58 10 -19 10 -34 12 -34 6 0 -5 19
-18 43 -29 23 -11 50 -25 59 -32 14 -10 20 -8 38 13 32 37 60 95 60 124 0 16
-12 38 -29 56 -37 36 -95 40 -129 9z"></path>
<path class="node" id="node9" d="M680 1785 c0 -14 5 -25 11 -25 5 0 16 -15 24 -34 16 -38 7 -90 -20
-110 -13 -9 -15 -28 -13 -101 l3 -90 38 77 c51 103 61 198 27 252 -19 32 -47
56 -64 56 -3 0 -6 -11 -6 -25z"></path>
<path class="node" id="node10" d="M786 1459 c-10 -22 -17 -41 -15 -43 2 -2 26 -8 53 -15 27 -7 61 -21
75 -32 45 -36 37 1 -8 39 -23 19 -48 47 -57 63 -8 16 -18 29 -22 29 -4 0 -15
-19 -26 -41z"></path>
<path class="node" id="node11" d="M703 1350 c-16 -6 -23 -18 -23 -36 0 -22 2 -25 15 -14 22 19 88 17
118 -3 30 -19 57 -91 40 -108 -7 -7 -14 -1 -22 19 -12 30 -47 52 -80 52 -25 0
-51 -32 -56 -69 -14 -106 115 -177 209 -116 25 17 26 21 26 106 0 79 -2 91
-22 109 -54 51 -157 81 -205 60z"></path>
<path class="node" id="node12" d="M1910 1183 c-40 -36 -49 -87 -25 -138 22 -45 54 -59 105 -45 52 14
76 51 59 92 -11 28 -15 30 -53 24 l-41 -6 24 20 c30 26 44 25 78 -4 24 -21 28
-31 26 -73 l-1 -48 51 -25 c43 -21 67 -25 137 -25 75 0 91 3 132 28 59 34 69
49 26 36 -85 -24 -159 1 -242 83 -66 65 -148 108 -204 108 -31 0 -49 -7 -72
-27z"></path>
<path class="node" id="node13" d="M680 1022 c0 -19 17 -51 54 -98 88 -113 116 -185 121 -304 l1 -35
169 0 c149 0 170 2 173 16 2 13 -8 18 -45 23 -96 13 -140 28 -172 56 l-31 29
-22 -29 c-23 -32 -38 -38 -38 -17 0 7 -9 29 -20 50 -19 35 -19 39 -4 62 10 15
26 25 40 25 15 0 24 6 24 15 0 11 -5 12 -25 5 -16 -6 -25 -6 -25 1 0 5 8 13
18 16 18 7 32 22 32 36 0 5 -7 1 -16 -7 -8 -9 -24 -16 -34 -16 -21 0 -90 67
-90 88 0 19 104 19 128 0 9 -8 12 -2 12 26 0 29 -4 36 -19 36 -11 0 -23 -4
-26 -10 -15 -24 -141 0 -160 30 -3 5 -15 15 -26 20 -17 9 -19 7 -19 -18z"></path>
<path class="node" id="node14" d="M1791 879 c-1 -47 -14 -130 -26 -161 -8 -20 18 -35 85 -53 105 -27
177 22 166 115 -4 33 -14 52 -36 73 -36 32 -57 34 -104 6 -39 -23 -51 -48 -41
-86 6 -24 9 -25 50 -21 41 5 44 4 34 -13 -14 -27 -73 -25 -100 2 -19 19 -21
29 -16 83 3 33 2 70 -3 81 -7 15 -9 9 -9 -26z"></path>
<path class="node" id="node15" d="M672 828 c-2 -35 -5 -71 -8 -81 -5 -16 -2 -18 15 -12 26 8 91 -15 91
-32 0 -7 -6 -13 -14 -13 -7 0 -19 -7 -26 -15 -18 -22 -46 -18 -64 7 -16 22
-16 22 -31 3 -8 -11 -15 -24 -15 -29 0 -6 -12 -22 -27 -38 -34 -36 -24 -40
108 -36 l104 3 -2 68 c-2 45 -10 81 -24 110 -23 45 -86 127 -97 127 -4 0 -9
-28 -10 -62z"></path>
<path class="node" id="node16" d="M2037 674 c-43 -54 -78 -67 -161 -61 -39 3 -94 12 -122 20 -44 13
-61 13 -115 2 -35 -7 -75 -12 -89 -11 -19 1 -26 -5 -28 -21 l-3 -23 390 0
c341 0 391 2 391 15 0 26 -4 29 -43 31 -70 4 -134 25 -164 54 l-29 29 -27 -35z"></path>
<path class="node" id="node17" d="M434 622 c-16 -2 -20 -8 -17 -23 5 -16 14 -19 67 -19 70 0 80 5 65
31 -9 18 -52 22 -115 11z"></path>
</g>
<g transform="translate(0.000000,300.000000) scale(0.100000,-0.100000)" fill="#A4A4A4" stroke="none">

<path class="node" id="node19" d="M1937 2273 c-12 -24 -5 -63 13 -73 20 -11 87 -4 111 11 24 14 -45 69
-86 69 -19 0 -36 -3 -38 -7z"></path>
<path class="node" id="node20" d="M1836 2212 c-14 -27 -14 -35 0 -76 18 -53 31 -65 41 -39 4 10 15 30
26 45 23 31 17 72 -10 82 -10 3 -23 9 -30 12 -7 3 -19 -8 -27 -24z"></path>
<path class="node" id="node21" d="M1920 2135 c0 -21 46 -85 61 -85 10 0 21 68 14 89 -4 14 -15 19 -40
19 -30 0 -35 -3 -35 -23z"></path>
<path class="node" id="node22" d="M1954 1949 c-32 -9 -61 -49 -50 -68 4 -5 13 -8 21 -4 11 4 13 1 9
-11 -5 -13 0 -16 24 -16 26 0 34 7 56 46 14 26 26 50 26 55 0 11 -45 10 -86
-2z"></path>

<path class="node" id="node24" d="M1811 1821 c-17 -31 -6 -72 30 -105 16 -16 31 -27 32 -25 1 2 10 25
19 51 16 45 16 48 -3 72 -24 30 -39 33 -39 9 0 -15 -2 -15 -14 2 -13 18 -14
18 -25 -4z"></path>
<path class="node" id="node25" d="M2140 1800 c-7 -14 -26 -40 -42 -59 -23 -26 -28 -39 -23 -60 8 -32
24 -53 36 -45 5 3 9 0 9 -5 0 -18 25 -13 48 9 28 26 29 88 3 145 l-18 40 -13
-25z"></path>
<path class="node" id="node26" d="M1927 1748 c4 -13 7 -39 5 -58 -2 -47 15 -77 51 -90 36 -12 45 -7 26
17 -13 17 -13 17 7 1 27 -24 33 -23 44 8 18 46 -30 102 -113 133 -27 10 -28
10 -20 -11z"></path>
<path class="node" id="node27" d="M2196 1645 c-30 -30 -33 -45 -9 -45 15 0 15 -2 -2 -14 -18 -13 -18
-14 3 -27 25 -16 29 -29 9 -29 -8 0 -22 -9 -32 -20 -22 -24 -14 -64 18 -85 23
-15 132 -24 144 -11 3 3 -6 18 -20 32 -15 15 -27 33 -27 40 0 7 -9 22 -21 33
l-21 19 24 12 c32 17 88 71 88 86 0 6 -19 14 -42 17 -24 3 -53 9 -64 12 -15 5
-29 -1 -48 -20z"></path>
<path class="node" id="node28" d="M2072 1594 c-12 -8 -20 -20 -16 -25 3 -5 0 -8 -7 -7 -7 2 -14 -6 -16
-17 -3 -16 -2 -17 6 -5 8 11 11 5 11 -27 0 -48 11 -59 42 -42 35 19 57 51 58
85 0 52 -34 69 -78 38z"></path>
<path class="node" id="node29" d="M1846 1564 l-49 -26 39 -19 c21 -11 51 -27 65 -36 37 -24 84 -4 93
39 14 68 -58 88 -148 42z"></path>
<path class="node" id="node30" d="M1950 1452 c-14 -11 -27 -40 -36 -80 -16 -69 -11 -92 14 -69 10 8 35
22 57 31 21 9 43 22 47 29 13 21 9 66 -9 87 -21 25 -44 25 -73 2z"></path>
<path class="node" id="node31" d="M2109 1432 c16 -31 13 -40 -5 -14 -18 26 -39 29 -48 6 -12 -30 -6
-50 24 -81 27 -28 98 -70 104 -61 7 8 -11 138 -19 147 -6 5 -23 13 -39 17 -26
6 -27 5 -17 -14z"></path>
<path class="node" id="node32" d="M1843 1400 c-38 -23 -40 -30 -13 -53 25 -21 46 -13 66 25 25 49 2 62
-53 28z"></path>
</g>
</svg>