<!--?xml version="1.0" standalone="no"?-->

<svg version="1.0" xmlns="http://www.w3.org/2000/svg" width="300.000000pt" height="300.000000pt" viewBox="0 0 300.000000 300.000000" preserveAspectRatio="xMidYMid meet">
<g transform="translate(0.000000,300.000000) scale(0.100000,-0.100000)" fill="#171717" stroke="none">
<path class="node" id="node1" d="M1400 2462 c-15 -3 -55 -51 -48 -56 1 -2 22 -6 45 -9 42 -5 43 -5 37
21 -9 39 -17 48 -34 44z"></path>
<path class="node" id="node2" d="M1480 2444 c0 -36 17 -64 41 -64 16 0 18 3 9 19 -5 11 -10 31 -10 45
0 19 -5 26 -20 26 -15 0 -20 -7 -20 -26z"></path>
<path class="node" id="node3" d="M1570 2454 c1 -33 25 -54 62 -54 37 0 96 36 81 51 -4 4 -38 11 -75
15 -63 6 -68 5 -68 -12z"></path>
<path class="node" id="node4" d="M2140 2448 c0 -31 -36 -88 -55 -88 -8 0 -15 -9 -15 -19 0 -11 -11
-28 -25 -39 l-25 -20 29 -12 c29 -12 98 -76 90 -84 -2 -2 -23 9 -46 24 -46 32
-113 50 -113 31 0 -13 16 -21 53 -25 15 -1 36 -11 47 -21 20 -18 27 -59 11
-69 -5 -3 8 -38 29 -78 21 -40 45 -94 55 -120 15 -40 22 -48 42 -48 23 0 25 3
19 33 -7 39 -25 221 -26 259 0 22 -6 29 -27 34 -71 17 -81 89 -15 109 35 10
38 21 26 109 -6 40 -10 46 -30 46 -18 0 -24 -6 -24 -22z"></path>
<path class="node" id="node5" d="M1285 2443 c-73 -16 -234 -81 -235 -95 -1 -19 60 -11 105 14 28 14
68 30 90 34 39 6 75 28 75 46 0 8 -2 9 -35 1z"></path>
<path class="node" id="node6" d="M1742 2400 l-33 -40 28 0 c20 0 34 9 51 33 27 40 27 47 5 47 -10 0
-33 -18 -51 -40z"></path>
<path class="node" id="node7" d="M1837 2377 l-27 -35 66 -37 c51 -27 73 -35 95 -30 31 7 40 25 13 25
-13 0 -16 7 -12 38 5 34 3 39 -21 50 -14 6 -40 14 -57 18 -26 5 -34 1 -57 -29z"></path>
<path class="node" id="node8" d="M1232 2323 c-22 -3 -47 -18 -73 -44 -33 -33 -39 -46 -39 -80 0 -63
56 -98 111 -69 25 14 24 32 -4 58 -28 27 -36 27 -53 5 -12 -17 -13 -16 -13 7
1 44 14 61 74 96 33 18 53 33 45 32 -8 -1 -30 -3 -48 -5z"></path>
<path class="node" id="node9" d="M932 2265 c-64 -48 -75 -71 -46 -99 19 -19 74 -21 96 -3 44 34 22 93
-30 80 -24 -6 -26 -5 -13 10 7 10 23 17 36 17 23 0 55 -28 55 -48 0 -7 5 -12
10 -12 6 0 10 8 10 18 0 9 3 27 6 38 4 15 0 23 -13 26 -10 3 -25 9 -34 12 -10
5 -37 -9 -77 -39z"></path>
<path class="node" id="node10" d="M1033 2159 c6 -43 42 -89 69 -89 7 0 5 6 -4 13 -25 20 -48 60 -48 84
0 12 -5 25 -12 29 -8 5 -9 -5 -5 -37z"></path>
<path class="node" id="node11" d="M811 2149 c-11 -12 -32 -39 -46 -59 l-25 -36 40 -43 c47 -49 55 -91
25 -134 -13 -18 -14 -18 -34 2 l-22 22 7 -26 c3 -14 2 -25 -2 -25 -14 0 -63
35 -78 55 -13 18 -14 18 -25 -3 -10 -18 -9 -22 4 -22 25 0 65 -46 65 -75 0
-27 -18 -32 -52 -14 -11 6 -22 9 -24 6 -3 -2 10 -11 27 -20 l32 -15 -33 -17
c-18 -9 -42 -14 -55 -11 -19 5 -25 0 -34 -26 -14 -40 -7 -47 22 -20 52 49 148
23 102 -28 -10 -11 -13 -20 -7 -20 6 0 14 5 17 10 14 23 23 8 13 -22 -19 -57
-34 -67 -107 -70 l-66 -3 -3 -90 c-2 -78 0 -87 10 -66 7 14 28 34 46 44 32 19
36 19 67 4 39 -19 60 -53 70 -117 4 -28 18 -57 34 -75 15 -16 38 -45 50 -62
20 -30 27 -33 71 -33 42 0 52 4 74 31 33 39 33 73 0 104 -46 42 -94 28 -94
-27 0 -23 4 -28 26 -28 31 0 28 -23 -3 -28 -28 -4 -66 44 -57 72 12 38 38 66
67 73 27 5 28 8 21 49 -8 53 12 62 22 9 9 -47 79 -105 127 -105 38 0 77 36 77
70 0 32 -40 71 -69 68 -32 -4 -41 -41 -15 -69 16 -18 16 -19 -3 -19 -23 0 -53
29 -53 52 0 8 9 27 21 42 17 22 28 26 67 26 55 -1 76 -14 96 -60 12 -29 12
-39 -1 -77 -17 -49 -71 -93 -114 -93 -27 0 -46 -24 -28 -36 5 -3 52 -8 103
-11 89 -6 94 -5 109 18 10 13 17 42 17 65 0 28 6 46 20 59 11 10 20 28 20 39
0 12 9 27 20 34 11 7 20 23 20 37 0 18 11 32 40 51 22 15 40 31 40 37 0 6 -29
38 -64 71 -50 47 -66 70 -71 99 -9 45 4 63 48 73 48 10 50 13 17 41 -17 14
-29 27 -28 29 2 2 24 -4 48 -12 49 -17 87 -13 150 15 l41 18 -56 7 c-55 6
-127 35 -140 56 -9 14 10 12 53 -6 20 -8 80 -18 132 -21 l95 -5 -110 56 c-136
70 -170 90 -217 127 -42 33 -51 35 -67 15 -7 -8 -47 -29 -88 -46 -69 -29 -80
-31 -114 -21 -34 10 -72 44 -81 73 -3 9 -13 8 -36 -1 -39 -16 -82 -2 -112 36
l-18 24 -21 -22z m180 -229 c-6 -20 -20 -46 -31 -58 -21 -22 -14 -32 7 -11 9
9 29 3 78 -20 37 -17 75 -31 84 -31 38 -1 -106 -100 -145 -100 -15 0 -15 -3 4
-20 12 -11 28 -33 37 -49 8 -16 27 -38 42 -49 l28 -21 -28 -10 c-46 -18 -128
-13 -164 9 -63 38 -70 96 -11 86 30 -5 31 -5 11 6 -13 6 -23 15 -23 19 0 10
49 24 68 21 6 -2 12 2 12 8 0 5 -6 10 -13 10 -8 0 -22 9 -33 21 -18 20 -18 22
-1 34 21 15 22 25 0 25 -15 0 -15 1 0 18 24 26 21 32 -13 32 -35 0 -40 21 -14
58 8 12 11 22 6 22 -5 0 -14 -11 -20 -25 -18 -38 -32 -30 -32 19 0 52 15 71
68 86 20 5 48 19 62 30 l25 19 3 -47 c2 -26 -1 -63 -7 -82z m-154 -85 c44 -31
51 -126 12 -161 -25 -23 -42 -13 -68 38 l-21 43 0 -32 c0 -17 5 -35 10 -38 6
-3 10 -11 10 -17 0 -20 -29 13 -40 46 -9 27 -7 41 9 78 25 59 49 70 88 43z
m-35 -262 l1 -48 4 43 c4 45 17 53 40 25 26 -34 34 -63 22 -86 -7 -12 -15 -24
-19 -27 -14 -10 -40 -69 -40 -91 0 -21 -1 -21 -19 -5 -32 29 -74 134 -67 169
8 38 33 67 58 67 15 0 18 -9 20 -47z"></path>
<path class="node" id="node12" d="M1730 1546 c0 -23 4 -24 73 -27 60 -4 78 -9 109 -32 21 -16 40 -38
43 -48 5 -14 12 -18 26 -14 13 5 28 -3 49 -24 30 -29 40 -61 19 -61 -5 0 -7
-5 -4 -11 4 -6 13 -8 21 -5 12 5 12 2 0 -22 -73 -143 -86 -191 -85 -317 l0
-90 22 27 c12 14 40 34 62 43 51 21 103 6 146 -42 l29 -34 0 141 0 140 -31 0
c-65 0 -136 54 -127 97 2 10 11 17 21 17 9 -1 17 4 17 12 0 19 54 18 74 -1 9
-9 20 -34 26 -56 6 -23 13 -39 14 -38 2 2 6 37 9 77 l6 72 -22 -15 c-26 -18
-73 -20 -84 -2 -17 28 -13 56 12 76 22 17 25 23 15 41 -6 11 -8 29 -5 40 6 19
15 23 73 35 l33 7 -16 -39 c-9 -21 -26 -46 -38 -55 -21 -16 -21 -17 -2 -24 11
-4 23 -9 27 -11 4 -2 14 12 23 31 28 59 58 79 125 84 55 4 60 6 60 28 l0 24
-360 0 -360 0 0 -24z m410 -97 c0 -41 -57 -71 -84 -44 -20 21 -20 65 -1 112
l15 36 35 -44 c19 -24 35 -51 35 -60z m-64 -271 c-11 33 17 28 48 -8 22 -26
24 -34 14 -60 -5 -17 -8 -44 -6 -60 3 -19 0 -30 -7 -30 -20 0 -92 68 -105 100
-11 26 -10 34 5 57 l18 27 20 -25 c19 -23 20 -24 13 -1z"></path>
<path class="node" id="node13" d="M602 1408 c-27 -27 -8 -88 28 -88 27 0 42 21 27 38 -10 12 -9 14 3
10 22 -7 25 -40 4 -55 -16 -12 -15 -13 14 -13 30 0 32 2 32 38 0 52 -23 82
-64 82 -17 0 -37 -5 -44 -12z"></path>
<path class="node" id="node14" d="M560 1310 c0 -19 3 -21 12 -12 9 9 9 15 0 24 -9 9 -12 7 -12 -12z"></path>
<path class="node" id="node15" d="M2013 1296 c-32 -10 -33 -12 -33 -65 0 -30 2 -52 4 -50 8 7 67 122
64 123 -2 1 -18 -3 -35 -8z"></path>
<path class="node" id="node16" d="M590 1269 c-7 -11 -9 -23 -6 -26 3 -3 9 2 12 11 4 10 16 22 28 26 21
9 21 9 -1 9 -13 1 -27 -8 -33 -20z"></path>
<path class="node" id="node17" d="M660 1240 c-48 -11 -35 -105 14 -98 26 4 35 45 12 54 -22 8 -20 24 2
24 20 0 62 -39 62 -57 0 -6 -9 -22 -21 -37 -23 -29 -62 -34 -93 -11 -30 23
-39 18 -22 -12 8 -16 26 -52 41 -82 48 -96 123 -192 218 -279 23 -22 28 -23
62 -11 28 11 40 11 55 1 27 -16 40 -15 56 6 18 24 17 32 -5 32 -35 0 -151 48
-190 79 -52 41 -68 87 -51 147 15 53 8 120 -19 172 -32 62 -69 85 -121 72z"></path>
<path class="node" id="node18" d="M855 1109 c10 -33 11 -33 45 -19 33 14 40 30 13 30 -10 0 -29 3 -42
7 -21 5 -23 3 -16 -18z"></path>
<path class="node" id="node19" d="M902 1049 c-40 -15 -61 -50 -62 -98 0 -68 39 -99 174 -135 58 -16
108 -27 110 -25 2 2 -11 21 -29 42 -29 33 -36 37 -54 28 -52 -28 -132 1 -162
60 -18 36 -18 42 -5 68 16 31 34 41 72 41 17 0 22 4 18 15 -7 17 -28 18 -62 4z"></path>
<path class="node" id="node20" d="M917 993 c-15 -14 -6 -63 15 -83 23 -21 63 -26 87 -11 15 10 3 40
-32 79 -20 21 -56 29 -70 15z"></path>
<path class="node" id="node21" d="M2032 877 c-27 -29 -28 -49 -2 -72 14 -13 28 -16 55 -11 34 7 36 6
26 -12 -20 -37 -65 -42 -105 -11 l-26 20 0 -37 c0 -21 -7 -45 -15 -55 -15 -15
-13 -17 28 -23 67 -10 121 2 156 36 74 72 37 188 -59 188 -25 0 -43 -7 -58
-23z"></path>
<path class="node" id="node22" d="M1066 714 c-35 -34 -7 -94 29 -64 8 7 15 8 15 2 0 -15 -26 -33 -35
-24 -4 4 -6 0 -3 -8 14 -43 88 0 88 51 0 48 -61 76 -94 43z"></path>
<path class="node" id="node23" d="M1242 663 c18 -36 28 -68 25 -86 -3 -23 1 -28 22 -33 14 -3 38 -10
54 -14 22 -7 27 -6 27 8 1 9 7 34 14 55 13 34 12 39 -2 44 -35 11 -108 47
-134 65 -14 10 -28 18 -30 18 -3 0 8 -26 24 -57z"></path>
<path class="node" id="node24" d="M2210 693 c-52 -53 -153 -69 -244 -38 -43 15 -47 14 -147 -18 l-102
-33 47 -39 47 -38 67 13 c85 16 208 58 295 100 54 27 67 38 67 57 0 27 2 27
-30 -4z"></path>
<path class="node" id="node25" d="M935 700 c-5 -7 103 -75 110 -68 3 2 -8 18 -23 35 -25 29 -77 49 -87
33z"></path>
<path class="node" id="node26" d="M1190 669 c0 -15 -10 -38 -21 -53 -12 -15 -20 -28 -18 -30 14 -12 51
-26 68 -26 29 0 28 44 -4 95 -23 38 -24 38 -25 14z"></path>
<path class="node" id="node27" d="M1437 595 c-4 -9 -7 -29 -7 -45 0 -23 5 -29 31 -34 59 -12 139 -7
139 8 0 18 -20 33 -50 38 -24 3 -24 4 -4 15 27 15 64 -3 82 -40 11 -22 20 -27
48 -27 18 0 34 2 34 5 0 3 -11 23 -25 45 -25 39 -27 40 -83 40 -31 0 -80 3
-108 6 -42 5 -52 4 -57 -11z"></path>
</g>
<g transform="translate(0.000000,300.000000) scale(0.100000,-0.100000)" fill="#A0A0A0" stroke="none">

<path class="node" id="node29" d="M970 2030 c-14 -11 -42 -25 -62 -30 -53 -15 -68 -34 -68 -86 0 -49
14 -57 32 -19 6 14 15 25 20 25 5 0 2 -10 -6 -22 -26 -37 -21 -58 14 -58 34 0
37 -6 13 -32 -15 -17 -15 -18 0 -18 22 0 21 -10 0 -25 -17 -12 -17 -14 1 -34
11 -12 25 -21 33 -21 7 0 13 -5 13 -10 0 -6 -6 -10 -12 -8 -19 3 -68 -11 -68
-21 0 -4 10 -13 23 -19 20 -11 19 -11 -11 -6 -59 10 -52 -48 11 -86 36 -22
118 -27 164 -9 l28 10 -28 21 c-15 11 -34 33 -42 49 -9 16 -25 38 -37 49 -19
17 -19 20 -4 20 39 0 183 99 145 100 -9 0 -47 14 -84 31 -49 23 -69 29 -78 20
-21 -21 -28 -11 -7 11 28 30 42 83 38 140 l-3 47 -25 -19z"></path>
<path class="node" id="node30" d="M782 1843 c-8 -3 -22 -26 -33 -51 -16 -37 -18 -51 -9 -78 11 -33 40
-66 40 -46 0 6 -4 14 -10 17 -5 3 -10 21 -10 38 l0 32 21 -43 c26 -51 43 -61
68 -38 63 57 6 199 -67 169z"></path>
<path class="node" id="node31" d="M747 1602 c-31 -34 -31 -75 -2 -140 15 -34 36 -69 46 -78 18 -16 19
-16 19 5 0 22 26 81 40 91 4 3 12 15 19 27 12 23 4 52 -22 86 -23 28 -36 20
-40 -25 l-4 -43 -1 48 c-2 38 -5 47 -20 47 -11 0 -26 -8 -35 -18z"></path>


</g>
</svg>