<!--?xml version="1.0" standalone="no"?-->

<svg version="1.0" xmlns="http://www.w3.org/2000/svg" width="300.000000pt" height="300.000000pt" viewBox="0 0 300.000000 300.000000" preserveAspectRatio="xMidYMid meet">
<g transform="translate(0.000000,300.000000) scale(0.100000,-0.100000)" fill="#567660" stroke="none">
<path stroke-width="20" class="node" id="node1" d="M1475 2390 l-50 -37 -30 23 c-17 12 -42 27 -57 33 -26 10 -27 9 -23
-17 2 -15 6 -46 9 -68 l6 -42 -55 -4 c-60 -5 -78 -14 -55 -28 8 -4 32 -23 52
-41 l36 -32 -31 -16 c-17 -9 -42 -31 -54 -50 -19 -28 -23 -30 -23 -13 0 27
-15 36 -30 17 -6 -8 -33 -17 -58 -21 -49 -7 -82 -27 -82 -51 0 -7 -5 -13 -11
-13 -8 0 -9 15 -4 48 6 45 6 46 -11 30 -13 -12 -19 -39 -22 -97 -2 -45 -6 -81
-8 -81 -3 0 -13 5 -23 12 -15 9 -26 7 -55 -10 -21 -12 -46 -22 -57 -22 -27 0
-24 -13 12 -39 60 -45 139 -38 139 12 0 18 5 16 39 -18 l40 -38 -36 -19 c-76
-41 -123 -109 -122 -178 0 -94 62 -160 150 -160 63 0 111 25 144 75 22 33 25
47 21 84 l-6 44 41 -6 c50 -7 99 -49 99 -87 0 -43 -26 -66 -105 -95 -134 -49
-158 -110 -84 -216 l42 -59 -28 -62 c-15 -35 -36 -83 -47 -108 -11 -25 -25
-58 -32 -75 -118 -271 -155 -333 -193 -321 -27 9 -80 62 -86 87 -6 22 8 26 17
4 9 -24 71 -19 96 8 25 26 47 73 56 124 l7 37 -28 -22 c-18 -14 -42 -22 -66
-22 -49 0 -79 -28 -80 -72 0 -31 -1 -32 -10 -9 -5 13 -7 32 -4 42 4 11 3 28 0
40 -13 39 -35 -26 -35 -102 l0 -69 -25 12 c-18 8 -32 8 -55 -2 -16 -7 -30 -16
-30 -21 0 -5 -12 -9 -27 -9 l-26 0 22 -24 c25 -27 93 -50 122 -41 11 4 24 18
30 32 l9 24 25 -29 c30 -36 31 -42 4 -42 -15 0 -20 -5 -17 -22 l3 -23 230 0
c222 0 230 1 230 20 0 15 -9 21 -43 27 -59 10 -94 29 -111 59 -14 24 -12 34
14 113 16 48 33 89 37 92 4 3 8 -18 8 -46 0 -131 115 -238 265 -248 91 -5 164
21 224 80 63 63 75 91 75 178 0 78 -11 112 -60 177 -13 17 -24 34 -24 36 0 8
142 -1 150 -10 16 -17 119 -280 126 -319 3 -24 2 -50 -5 -61 -13 -26 -70 -53
-111 -53 -27 0 -31 -3 -28 -22 l3 -23 290 0 290 0 1 26 c0 14 13 42 29 63 41
53 47 136 13 185 -12 19 -37 41 -55 50 -29 15 -31 20 -31 67 1 54 -9 74 -72
154 -50 64 -62 88 -76 154 -11 52 -10 64 6 101 19 43 34 55 75 55 42 0 72 -69
48 -113 -18 -36 -49 -35 -68 3 -19 37 -35 31 -35 -13 0 -49 24 -77 66 -77 47
0 69 13 88 51 35 69 2 179 -61 208 -75 34 -163 -18 -186 -111 -8 -32 -15 -34
-42 -14 -19 14 -19 15 9 43 16 15 35 42 42 60 19 44 17 120 -4 163 -20 41 -75
80 -112 80 -100 0 -164 -128 -108 -217 26 -43 79 -68 109 -52 33 17 33 3 1
-20 -55 -39 -106 -21 -142 49 -30 59 -25 99 26 210 25 55 46 113 46 128 1 46
-29 97 -72 121 l-40 22 30 31 c17 17 32 29 33 27 1 -2 7 -13 12 -23 23 -41 84
-37 140 8 28 23 29 25 10 31 -11 3 -33 13 -48 21 -33 16 -73 18 -82 4 -15 -24
-20 -5 -20 68 -1 59 -5 84 -19 102 l-18 25 7 -47 c7 -52 -8 -67 -24 -24 -11
27 -21 32 -85 41 -25 4 -49 11 -52 16 -9 16 -24 10 -24 -10 0 -28 36 -107 59
-130 24 -24 79 -28 100 -8 9 7 7 0 -3 -20 -20 -40 -45 -57 -121 -83 -32 -11
-59 -20 -60 -20 -1 0 -10 19 -19 43 -29 68 -32 72 -57 72 -19 0 -26 -7 -33
-38 -8 -31 -6 -47 13 -90 13 -29 31 -72 40 -97 10 -25 25 -61 34 -80 8 -19 46
-109 83 -200 65 -161 240 -585 290 -705 14 -33 29 -68 35 -77 13 -26 11 -30
-13 -26 -25 4 -30 15 -203 438 -101 246 -124 302 -136 322 -5 10 -9 22 -9 27
0 5 -13 38 -28 73 -16 35 -50 115 -76 178 -26 63 -50 121 -54 127 -5 7 -51 16
-109 22 -113 10 -155 28 -174 72 -26 63 33 147 95 135 55 -11 95 -83 64 -114
-17 -17 -57 -15 -64 3 -8 21 -24 19 -24 -3 0 -26 20 -42 53 -42 44 0 65 17 77
59 14 54 42 85 90 101 37 12 45 12 85 -8 25 -12 45 -19 45 -16 0 31 -76 84
-120 84 -12 0 -35 -7 -52 -16 l-31 -16 7 29 c10 36 14 39 28 25 22 -22 63 -13
101 22 33 30 53 67 28 51 -5 -3 -30 0 -55 7 l-45 12 -3 62 -3 61 -50 -37z
m-35 -100 c0 -5 -4 -10 -10 -10 -5 0 -10 5 -10 10 0 6 5 10 10 10 6 0 10 -4
10 -10z m-50 -66 c0 -47 -3 -55 -16 -50 -9 3 -21 6 -27 6 -7 0 -4 7 7 15 14
11 17 22 13 50 -4 26 -2 35 9 35 10 0 14 -14 14 -56z m100 41 c0 -8 -4 -15 -9
-15 -5 0 -14 7 -21 15 -10 13 -9 15 9 15 12 0 21 -6 21 -15z m-40 -120 c0 -8
-4 -15 -10 -15 -5 0 -10 7 -10 15 0 8 5 15 10 15 6 0 10 -7 10 -15z m-251
-107 c-4 -46 2 -67 26 -97 37 -43 72 -59 165 -75 94 -16 96 -22 45 -131 -34
-73 -47 -87 -61 -64 -3 6 -26 20 -49 30 -36 16 -59 18 -136 14 -99 -5 -113
-12 -125 -59 -5 -22 -4 -27 6 -21 9 6 10 3 0 -15 -17 -32 -9 -32 39 1 50 33
59 35 67 14 11 -28 -6 -65 -39 -85 -45 -28 -81 -25 -119 9 -29 26 -33 35 -33
83 0 106 75 160 222 160 77 0 85 2 68 14 -18 14 -35 17 -126 29 -49 6 -79 31
-115 92 -20 36 -14 54 11 29 36 -36 103 -5 126 59 15 39 31 47 28 13z m622
-160 c43 -23 71 -68 62 -97 -10 -31 -67 -166 -73 -174 -6 -7 -130 268 -130
287 0 16 102 4 141 -16z m-220 -342 c33 -76 56 -142 53 -147 -3 -5 -16 -6 -29
-3 -32 8 -64 -12 -80 -48 -11 -28 -10 -33 8 -54 30 -35 59 -30 101 16 20 22
36 35 36 29 0 -5 11 -34 24 -62 14 -29 28 -64 31 -80 4 -15 11 -30 16 -33 5
-3 9 -12 9 -20 0 -11 -15 -14 -67 -14 -62 1 -66 2 -49 15 11 8 18 16 15 17
-52 32 -101 50 -111 40 -21 -21 -25 -13 -30 64 -6 89 -28 126 -29 49 0 -44 -2
-47 -10 -24 -11 28 -46 49 -84 49 -14 0 -25 4 -25 10 0 8 45 117 91 218 11 24
27 61 36 83 8 22 20 38 26 36 5 -1 36 -65 68 -141z m-486 124 c-3 -5 -11 -10
-16 -10 -6 0 -7 5 -4 10 3 6 11 10 16 10 6 0 7 -4 4 -10z m928 -70 c30 -24 45
-81 29 -113 l-11 -22 0 23 c-1 26 -28 72 -43 72 -6 0 -7 -7 -4 -15 3 -8 9 -21
12 -29 3 -7 -2 -21 -11 -30 -13 -12 -21 -14 -36 -5 -44 23 -48 107 -6 127 32
15 41 14 70 -8z m-753 -184 c0 -19 -39 -106 -48 -106 -13 0 -43 60 -36 71 7
12 65 49 77 49 4 0 7 -6 7 -14z m745 -125 c52 -23 64 -35 96 -95 35 -65 8
-146 -47 -146 -31 0 -58 42 -50 76 5 19 12 25 29 22 17 -2 23 -11 27 -37 5
-31 6 -33 19 -17 19 22 4 84 -25 102 -17 12 -25 11 -59 -6 -21 -11 -39 -19
-40 -17 -12 19 -55 132 -55 142 0 16 30 9 105 -24z m-632 -70 c11 -9 30 -12
53 -8 35 6 35 6 21 -16 -22 -33 -94 -67 -144 -67 -23 0 -43 4 -43 9 0 5 9 31
21 58 11 26 25 59 30 72 l10 25 18 -30 c10 -16 25 -35 34 -43z m117 -81 c0 -5
-4 -10 -10 -10 -5 0 -10 5 -10 10 0 6 5 10 10 10 6 0 10 -4 10 -10z m728 -103
c40 -41 51 -87 26 -111 -18 -19 -62 -15 -76 7 -10 15 -10 19 1 36 8 12 14 13
35 3 23 -10 26 -9 26 6 0 10 -5 23 -12 30 -15 15 -64 16 -73 2 -3 -5 -11 -10
-16 -10 -5 0 3 16 18 35 15 19 30 35 34 35 3 0 19 -15 37 -33z m-894 4 c3 -4
-11 -13 -32 -19 -20 -7 -51 -25 -69 -42 -36 -34 -43 -36 -43 -15 0 8 16 30 35
50 27 26 44 35 70 35 18 0 36 -4 39 -9z m217 -14 c51 -34 96 -100 109 -160 11
-48 10 -58 -10 -104 -38 -90 -105 -133 -206 -133 -76 0 -125 21 -172 74 -104
119 -30 276 129 276 119 0 203 -137 133 -219 -48 -58 -154 -51 -193 13 -26 42
-26 57 0 90 25 32 70 35 99 6 32 -32 19 -78 -15 -50 -22 19 -61 9 -57 -15 6
-33 28 -48 72 -48 46 0 75 21 85 63 10 41 -39 106 -89 119 -125 34 -223 -87
-153 -190 82 -121 264 -113 326 14 18 38 20 51 11 96 -5 28 -14 59 -19 69 -16
30 -64 69 -108 88 -24 10 -43 21 -43 26 0 17 69 7 101 -15z m559 -46 c0 -13
-27 -21 -45 -15 -8 4 -12 10 -9 15 7 12 54 12 54 0z m41 -92 c28 -30 29 -33
14 -55 -8 -13 -15 -30 -15 -39 0 -44 -48 29 -66 102 -9 35 31 30 67 -8z m164
-65 c37 -15 56 -93 34 -137 -33 -63 -74 -81 -117 -51 -30 21 -28 30 8 38 19 3
34 15 42 31 13 29 1 49 -13 22 -16 -27 -63 -22 -77 8 -14 31 6 80 35 88 28 7
70 8 88 1z"></path>
<path stroke-width="20" class="node" id="node2" d="M2080 2260 c-8 -5 -40 -10 -71 -10 -40 0 -61 -5 -70 -17 -19 -22 -18
-101 1 -113 26 -16 66 -11 92 13 48 42 90 154 48 127z"></path>
<path stroke-width="20" class="node" id="node3" d="M780 2169 c0 -8 14 -38 30 -67 53 -91 138 -108 155 -31 12 53 -19 83
-91 90 -32 3 -67 9 -76 13 -12 6 -18 4 -18 -5z"></path>
<path stroke-width="20" class="node" id="node4" d="M860 1475 c0 -13 -7 -43 -16 -65 -9 -22 -14 -47 -10 -55 3 -8 4 -15
3 -15 -1 0 -20 7 -42 15 -40 14 -115 20 -115 9 0 -3 9 -17 20 -31 11 -14 20
-34 20 -44 0 -28 36 -59 68 -59 39 0 66 31 60 70 -5 35 -4 36 27 12 l22 -18
-23 -28 c-26 -29 -31 -74 -13 -108 9 -17 13 -18 20 -7 6 10 9 11 9 2 0 -7 9
-13 21 -13 15 0 19 -4 15 -16 -3 -9 -6 -17 -6 -20 0 -2 -12 1 -26 6 -37 14
-47 13 -73 -12 -21 -19 -23 -27 -17 -76 4 -29 13 -66 20 -80 l14 -26 15 30 c8
16 29 42 46 58 17 17 31 37 31 45 0 10 3 12 8 6 11 -16 55 -33 106 -40 39 -6
46 -5 46 9 0 9 -4 16 -9 16 -8 0 -41 81 -41 99 0 3 15 7 33 8 33 2 107 33 107
45 0 3 -12 11 -27 17 -16 5 -43 24 -62 40 -32 28 -33 32 -19 48 17 19 52 112
45 119 -2 2 -20 -3 -40 -11 -20 -8 -47 -15 -61 -15 -14 0 -28 -4 -31 -10 -11
-17 -22 -11 -34 18 -12 28 -73 102 -84 102 -4 0 -7 -11 -7 -25z m124 -203 c21
-16 22 -20 9 -38 -9 -12 -12 -31 -8 -51 5 -31 4 -33 -21 -33 -20 0 -24 3 -17
13 29 36 20 127 -12 127 -20 0 -19 10 3 26 14 11 17 10 20 -6 2 -11 14 -28 26
-38z"></path>

<path stroke-width="20" class="node" id="node6" d="M590 915 c30 -80 72 -125 114 -125 43 0 56 11 63 53 8 50 -30 89 -84
86 -21 -1 -53 1 -71 5 -32 7 -32 7 -22 -19z"></path>
</g>
<g transform="translate(0.000000,300.000000) scale(0.100000,-0.100000)" fill="#B57FF2" stroke="none">





















</g>
</svg>