<!--?xml version="1.0" standalone="no"?-->

<svg version="1.0" xmlns="http://www.w3.org/2000/svg" width="300.000000pt" height="300.000000pt" viewBox="0 0 300.000000 300.000000" preserveAspectRatio="xMidYMid meet">
<g transform="translate(0.000000,300.000000) scale(0.100000,-0.100000)" fill="#1C1C1C" stroke="none">
<path class="node" id="node1" d="M700 2271 c0 -15 12 -21 62 -30 66 -11 78 -7 78 32 0 15 -10 17 -70
17 -62 0 -70 -2 -70 -19z"></path>
<path class="node" id="node2" d="M891 2277 c-16 -20 -26 -77 -13 -77 6 0 37 -21 68 -46 50 -41 59 -45
80 -35 50 22 56 116 9 147 -31 21 -61 5 -73 -39 l-9 -32 -8 28 c-5 18 -3 33 4
40 6 6 11 15 11 19 0 13 -57 9 -69 -5z"></path>
<path class="node" id="node3" d="M1080 2276 c25 -25 104 -25 136 -1 17 13 11 14 -66 15 -73 0 -82 -2
-70 -14z"></path>
<path class="node" id="node4" d="M1276 2272 c-11 -32 -67 -66 -115 -68 -41 -2 -44 -4 -46 -32 -3 -33
-42 -92 -62 -92 -16 0 -17 -36 -2 -46 7 -4 22 7 36 25 34 43 73 61 134 61 46
0 51 2 46 19 -6 23 24 76 50 89 10 5 40 13 66 16 38 6 47 11 45 24 -3 14 -17
18 -75 20 -62 2 -72 0 -77 -16z"></path>
<path class="node" id="node5" d="M1757 2276 c-7 -19 1 -26 31 -26 18 0 23 4 18 16 -3 9 -6 18 -6 20 0
11 -39 2 -43 -10z"></path>
<path class="node" id="node6" d="M1851 2274 c24 -29 58 -36 95 -18 19 9 34 20 34 25 0 5 -32 9 -71 9
-64 0 -70 -2 -58 -16z"></path>
<path class="node" id="node7" d="M2022 2270 c-7 -11 -34 -30 -60 -41 -44 -19 -48 -24 -44 -50 2 -16 1
-40 -2 -53 -6 -25 -114 -173 -168 -231 -37 -40 -35 -45 10 -29 67 24 85 17 57
-20 -8 -11 -15 -35 -15 -53 0 -42 -30 -73 -70 -73 -16 0 -30 4 -30 10 0 5 -6
7 -14 4 -9 -3 -17 3 -21 15 -10 32 -23 16 -23 -26 0 -28 2 -33 8 -18 7 19 7
19 19 -3 7 -13 10 -37 8 -55 l-4 -32 -1 33 c-2 37 -22 44 -22 8 0 -37 -10 -56
-30 -56 -21 0 -60 45 -60 69 -1 28 -25 50 -48 44 -28 -7 -28 -17 1 -31 12 -6
16 -11 10 -11 -21 -1 -15 -18 9 -24 21 -6 21 -7 3 -33 l-17 -27 30 6 c38 8 51
-8 26 -30 -13 -10 -10 -10 10 2 23 14 30 15 37 4 31 -49 -33 -117 -125 -133
-34 -7 -38 -5 -28 7 7 8 15 36 18 63 4 27 10 54 15 59 5 6 -17 10 -60 10 l-68
0 24 -38 c13 -21 22 -41 19 -46 -3 -4 -23 -16 -45 -25 -53 -24 -97 -15 -146
29 -21 20 -40 33 -42 31 -8 -8 69 -86 86 -86 11 -1 8 -7 -11 -21 -16 -12 -28
-30 -28 -43 0 -12 -5 -27 -12 -34 -20 -20 -2 -23 41 -6 50 20 72 51 47 69 -24
18 -20 23 24 30 22 4 42 11 46 16 3 5 12 9 20 9 12 0 12 -4 -2 -25 -9 -14 -15
-28 -12 -30 2 -3 28 -6 57 -9 35 -2 56 -10 65 -22 11 -14 25 -17 62 -16 52 3
114 -25 114 -51 0 -28 21 -36 56 -21 44 19 44 19 95 -16 33 -22 56 -30 91 -30
57 0 78 23 78 86 0 28 6 46 20 59 11 10 20 28 20 39 0 12 9 27 19 33 11 7 21
25 23 40 2 21 13 33 40 48 21 11 38 27 38 35 0 9 -25 37 -55 64 -70 61 -89 96
-86 164 l2 52 -38 -21 c-21 -11 -44 -27 -51 -34 -15 -13 -18 -69 -7 -104 9
-30 -19 -17 -34 15 -17 37 -13 78 8 101 19 20 19 21 1 38 -59 54 -5 168 81
168 35 0 36 10 4 62 -44 71 -24 133 52 167 34 15 42 22 32 29 -22 13 -33 11
-47 -11z m-217 -574 c37 -16 105 -66 105 -78 0 -5 -10 -8 -23 -8 -12 0 -39 -9
-60 -20 -47 -26 -65 -25 -94 2 -30 28 -29 38 5 39 l27 2 -27 4 c-19 3 -28 10
-28 23 0 11 12 26 28 34 34 19 26 19 67 2z m-85 -123 c14 -9 28 -22 32 -27 10
-15 10 -156 0 -156 -5 0 -18 10 -29 23 -11 12 -34 30 -52 39 -28 15 -31 22
-31 63 0 32 4 45 14 45 8 0 16 -6 19 -12 2 -7 3 -4 1 8 -6 37 9 42 46 17z"></path>
<path class="node" id="node8" d="M2148 2275 c13 -9 40 -19 60 -22 30 -4 41 0 57 17 l20 23 -25 -8
c-29 -10 -39 -10 -95 0 -40 7 -40 7 -17 -10z"></path>
<path class="node" id="node9" d="M2039 2211 c-31 -31 -36 -59 -18 -93 11 -20 11 -19 40 8 19 18 25 30
18 35 -18 11 0 29 29 29 15 0 34 5 42 10 13 8 12 11 -5 24 -32 25 -73 19 -106
-13z"></path>
<path class="node" id="node10" d="M1755 2191 c-3 -6 -28 -11 -55 -11 -40 0 -52 -4 -69 -26 -23 -29 -20
-46 7 -37 14 5 15 3 5 -8 -7 -7 -13 -19 -13 -26 0 -19 66 -17 82 2 7 9 19 22
26 30 16 18 36 74 29 81 -3 3 -8 1 -12 -5z"></path>
<path class="node" id="node11" d="M1419 2100 c26 -67 56 -100 93 -100 31 0 33 3 18 30 -8 15 -7 17 11
13 19 -5 20 -3 14 18 -12 40 -36 59 -72 59 -18 0 -45 7 -59 16 l-25 17 20 -53z"></path>
<path class="node" id="node12" d="M1576 2081 c7 -34 -11 -97 -35 -125 -9 -10 -36 -29 -61 -42 -25 -13
-39 -23 -32 -24 20 0 112 41 112 51 0 20 29 7 32 -13 2 -16 11 -24 29 -26 29
-3 99 22 99 36 0 11 -65 42 -90 42 -10 0 -22 -4 -25 -10 -12 -19 -26 -11 -15
9 17 33 9 131 -11 131 -5 0 -6 -13 -3 -29z"></path>
<path class="node" id="node13" d="M1178 2058 c-36 -31 -60 -82 -52 -113 11 -46 49 -75 97 -75 49 0 67
13 67 50 0 34 -17 50 -53 50 -34 0 -32 23 2 28 67 10 103 -38 82 -108 -11 -36
-30 -58 -77 -86 -18 -11 -16 -16 30 -85 75 -112 74 -111 102 -93 13 9 26 23
29 33 2 9 17 24 31 32 26 16 27 17 7 27 -20 11 -83 100 -83 118 0 5 21 8 46 6
l46 -4 -16 28 c-9 16 -45 70 -79 119 -62 89 -64 90 -108 93 -34 2 -50 -3 -71
-20z"></path>
<path class="node" id="node14" d="M1936 1969 c-26 -20 -34 -60 -18 -86 12 -18 60 -27 77 -13 19 16 19
25 -2 46 -17 17 -16 17 10 10 26 -6 27 -5 21 21 -4 16 -9 31 -11 36 -8 14 -51
7 -77 -14z"></path>

<path class="node" id="node16" d="M1246 1600 c-25 -50 -27 -59 -15 -78 17 -27 26 -28 32 -4 4 13 5 11
6 -5 0 -13 7 -23 14 -23 41 0 49 74 14 131 l-22 35 -29 -56z"></path>
<path class="node" id="node17" d="M1070 1485 c-19 -19 -41 -35 -49 -36 -26 -1 21 -17 73 -24 38 -6 51
-4 66 10 25 22 26 45 3 46 -12 0 -13 2 -5 6 10 4 10 8 1 19 -19 24 -53 16 -89
-21z"></path>
<path class="node" id="node18" d="M1336 1361 c-10 -16 5 -41 26 -41 10 0 16 -4 13 -10 -8 -13 -52 -13
-61 1 -4 7 -10 7 -16 1 -18 -18 2 -32 42 -32 46 0 72 22 68 59 -2 21 -9 27
-35 29 -17 2 -34 -1 -37 -7z"></path>
<path class="node" id="node19" d="M1540 1326 c0 -10 153 -239 165 -248 5 -4 29 -8 53 -8 33 0 49 6 69
26 22 22 25 32 20 72 -9 79 -80 110 -132 57 -43 -42 -23 -94 31 -81 19 5 25 3
22 -6 -3 -7 -20 -14 -38 -16 -46 -5 -69 26 -70 90 0 38 -6 54 -27 78 -25 27
-93 53 -93 36z"></path>
<path class="node" id="node20" d="M1254 1252 c-5 -4 -27 -28 -48 -55 -38 -46 -38 -48 -21 -67 22 -24
58 -26 80 -4 23 23 15 48 -18 52 -31 4 -35 17 -8 31 14 8 25 6 44 -9 l25 -20
22 30 21 30 -26 0 c-14 0 -34 4 -44 9 -9 5 -21 7 -27 3z"></path>
<path class="node" id="node21" d="M1899 1167 c-14 -76 -55 -125 -111 -134 -21 -3 -41 -10 -44 -15 -7
-11 57 -38 91 -38 14 0 37 -11 50 -25 28 -27 35 -71 10 -61 -17 6 -19 -2 -6
-23 5 -8 14 -10 21 -6 7 4 -5 -16 -26 -46 -69 -94 -77 -109 -59 -109 8 0 15 7
15 15 0 21 30 31 41 14 6 -10 9 -10 9 -1 0 18 17 15 40 -8 11 -11 30 -20 43
-19 14 0 17 2 7 6 -8 3 -25 15 -37 26 -27 24 -33 87 -8 87 8 0 15 4 15 9 0 9
67 -2 78 -14 4 -3 9 -30 12 -58 5 -51 6 -52 40 -55 27 -2 31 0 20 8 -13 9 -12
12 4 25 30 23 61 18 76 -10 15 -27 18 -29 38 -17 9 7 10 15 3 35 -11 29 -21
33 -38 16 -15 -15 -43 16 -43 49 0 15 -7 35 -15 46 -13 18 -15 18 -59 -3 -36
-18 -49 -20 -65 -11 -39 21 -19 89 27 93 18 1 18 2 -1 37 -20 34 -115 181
-123 189 -2 2 -5 1 -5 -2z m61 -101 c0 -7 9 -25 20 -39 11 -14 20 -34 20 -45
0 -23 -40 -63 -41 -41 0 10 -2 11 -6 2 -7 -18 -24 -16 -39 5 -19 24 -17 44 8
91 22 41 38 53 38 27z"></path>
<path class="node" id="node22" d="M1117 1086 c-5 -12 17 -87 29 -105 5 -6 53 53 54 65 0 11 -54 54 -69
54 -5 0 -11 -6 -14 -14z"></path>
<path class="node" id="node23" d="M1052 1005 c-18 -24 -49 -61 -69 -82 l-37 -38 27 -3 c59 -7 127 64
127 132 0 39 -13 37 -48 -9z"></path>
<path class="node" id="node24" d="M1051 851 c-12 -8 -12 -15 3 -46 14 -28 15 -43 7 -66 l-10 -29 90 0
c105 0 116 15 30 40 -66 21 -91 42 -91 80 0 31 -6 36 -29 21z"></path>
<path class="node" id="node25" d="M1858 852 c-19 -2 -28 -9 -28 -21 0 -30 -45 -69 -86 -76 -62 -11 -74
-16 -74 -31 0 -11 15 -14 63 -14 62 0 63 0 82 37 11 21 33 52 49 71 32 37 32
39 -6 34z"></path>
<path class="node" id="node26" d="M894 826 c-3 -13 -1 -34 6 -45 9 -17 8 -21 -4 -21 -9 0 -21 10 -27
23 -16 31 -15 30 -38 17 -24 -12 -28 -47 -8 -74 10 -14 26 -16 97 -14 l85 3 3
44 c4 55 -25 91 -75 91 -26 0 -34 -5 -39 -24z"></path>
<path class="node" id="node27" d="M698 749 c-49 -19 -35 -39 27 -39 52 0 54 1 46 23 -9 25 -34 30 -73
16z"></path>
<path class="node" id="node28" d="M2274 736 c32 -28 76 -35 76 -12 0 19 -6 22 -60 31 l-45 7 29 -26z"></path>
</g>
<g transform="translate(0.000000,300.000000) scale(0.100000,-0.100000)" fill="#A2A2A2" stroke="none">




</g>
</svg>