<!--?xml version="1.0" standalone="no"?-->

<svg version="1.0" xmlns="http://www.w3.org/2000/svg" width="300.000000pt" height="300.000000pt" viewBox="0 0 300.000000 300.000000" preserveAspectRatio="xMidYMid meet">
<g transform="translate(0.000000,300.000000) scale(0.100000,-0.100000)" fill="#1C1C1C" stroke="none">
<path class="node" id="node1" d="M560 2320 c0 -15 7 -20 27 -20 30 0 152 -65 159 -85 3 -7 -8 -32 -24
-54 -98 -135 8 -325 171 -308 29 3 61 8 73 12 18 6 28 -4 68 -66 25 -40 46
-75 46 -79 0 -3 -13 -13 -29 -23 -16 -9 -39 -32 -50 -51 -27 -43 -65 -54 -100
-28 -32 23 -38 55 -17 88 19 28 51 31 80 7 20 -18 20 -18 5 7 -22 33 -70 38
-108 11 -16 -12 -40 -21 -53 -21 -48 0 -76 -62 -42 -91 15 -12 16 -11 9 10 -5
16 -3 26 6 32 25 15 38 10 45 -18 11 -44 34 -73 76 -94 21 -11 38 -21 38 -23
0 -1 -9 -13 -20 -26 -32 -37 -27 -92 11 -124 22 -19 38 -25 53 -20 52 16 74
67 39 95 -15 13 -15 12 -4 -8 18 -36 -2 -65 -42 -61 -24 2 -34 9 -41 31 -12
33 -1 55 35 76 23 13 31 11 89 -18 72 -35 88 -36 145 -16 36 13 41 13 57 -5
10 -11 18 -23 18 -27 0 -4 11 -21 24 -38 27 -33 48 -27 26 8 -8 12 -89 141
-180 287 -206 330 -303 474 -386 578 l-65 82 -70 0 c-62 0 -69 -2 -69 -20z
m240 -171 c9 -16 8 -30 -5 -61 -31 -77 11 -138 95 -138 35 0 48 -5 58 -21 18
-28 5 -40 -50 -46 -55 -6 -116 22 -150 69 -33 47 -33 139 0 186 27 37 37 40
52 11z m320 -479 c0 -6 9 -24 21 -39 25 -34 19 -68 -14 -74 -12 -2 -3 -2 20 0
47 5 66 -12 38 -34 -25 -17 -85 -17 -112 2 -31 22 -48 78 -32 107 7 13 19 28
28 35 20 15 51 17 51 3z"></path>
<path class="node" id="node2" d="M820 2328 c0 -22 108 -226 183 -348 115 -187 262 -391 366 -510 33
-37 42 -43 57 -34 48 29 44 37 -87 171 -210 214 -289 347 -289 484 0 98 42
167 124 205 28 13 61 24 74 24 12 0 22 5 22 10 0 6 -82 10 -225 10 -173 0
-225 -3 -225 -12z"></path>
<path class="node" id="node3" d="M1760 2332 c0 -5 17 -14 38 -20 62 -19 121 -68 144 -119 17 -38 19
-60 15 -122 -5 -90 -31 -152 -108 -261 -50 -70 -300 -329 -451 -467 l-68 -61
0 -66 c0 -56 3 -67 22 -80 28 -20 57 -20 83 0 18 13 18 14 -11 8 -26 -5 -35
-1 -57 26 -31 37 -33 56 -11 103 19 41 60 67 104 67 21 0 38 8 55 28 20 22 27
25 42 16 25 -15 28 -42 8 -64 -14 -16 -15 -25 -7 -49 12 -35 -1 -95 -26 -125
-10 -10 -36 -29 -60 -43 -40 -23 -42 -27 -28 -41 14 -15 19 -13 51 18 31 30
43 35 85 35 33 0 54 -6 68 -19 21 -18 21 -18 24 30 3 48 4 49 38 52 55 4 91
22 142 69 53 49 65 51 102 22 32 -25 34 -61 5 -88 -17 -16 -26 -18 -45 -9 -29
14 -38 36 -22 56 11 13 10 14 -2 10 -25 -8 -24 -54 2 -72 32 -23 65 -20 93 9
36 35 33 76 -9 119 l-35 34 35 37 c29 31 34 43 34 86 0 46 2 49 25 49 20 0 25
-5 25 -26 0 -14 4 -23 10 -19 15 10 12 52 -6 70 -10 9 -32 15 -58 15 -22 0
-57 2 -76 5 -27 5 -42 2 -60 -13 -14 -11 -22 -24 -18 -28 5 -4 17 1 27 10 24
22 55 14 77 -20 22 -32 11 -70 -26 -89 -34 -17 -53 -12 -98 27 -18 15 -44 28
-57 28 -13 0 -26 4 -29 8 -3 5 14 38 37 73 l42 64 66 -3 c103 -6 173 32 210
113 10 22 19 56 19 75 0 47 -33 140 -54 152 -15 8 -14 13 6 51 36 66 121 179
164 218 46 41 123 80 174 89 22 3 35 11 35 20 0 13 -48 15 -342 18 -189 1
-343 -2 -343 -6z m520 -32 c0 -27 -19 -35 -38 -16 -16 16 -16 18 2 31 22 17
36 11 36 -15z m-62 -43 c4 -20 -25 -34 -40 -19 -15 15 -1 44 19 40 10 -2 19
-11 21 -21z m-48 -67 c0 -10 -6 -20 -12 -23 -21 -7 -38 4 -38 23 0 10 6 20 13
23 20 7 37 -4 37 -23z m-62 -66 c2 -12 -4 -24 -12 -27 -19 -7 -40 18 -32 39 8
22 40 13 44 -12z m-59 -63 c19 -12 6 -41 -19 -41 -13 0 -20 7 -20 18 0 31 14
39 39 23z m-33 -110 c-10 -16 -43 -13 -50 4 -8 21 25 37 43 20 7 -7 10 -18 7
-24z m39 -65 c46 -69 37 -147 -24 -207 -28 -28 -48 -39 -83 -44 -52 -8 -88 0
-88 19 0 19 30 42 51 38 32 -5 80 28 96 66 12 29 13 43 3 74 -20 68 12 106 45
54z m-87 -19 c4 -20 -25 -34 -40 -19 -15 15 -1 44 19 40 10 -2 19 -11 21 -21z
m-68 -73 c11 -12 10 -18 -3 -32 -16 -15 -18 -15 -34 0 -13 14 -14 20 -3 32 7
9 16 16 20 16 4 0 13 -7 20 -16z m-50 -79 c15 -17 5 -35 -20 -35 -22 0 -33 23
-17 39 15 15 22 14 37 -4z m-66 -84 c33 -36 -18 -83 -52 -49 -23 23 -7 68 23
68 7 0 20 -9 29 -19z m-59 -101 c4 -12 1 -27 -5 -35 -27 -33 -78 -5 -65 35 4
14 15 20 35 20 20 0 31 -6 35 -20z m-77 -72 c32 -32 -8 -80 -48 -58 -21 11
-25 27 -14 54 7 19 45 21 62 4z m153 -57 c32 -33 36 -58 15 -100 -24 -46 -92
-66 -131 -37 -26 19 -13 51 14 36 25 -13 61 -13 61 0 0 6 -11 10 -24 10 -32 0
-48 22 -44 62 2 23 10 36 28 45 37 19 48 16 81 -16z"></path>
<path class="node" id="node4" d="M2385 2259 c-8 -12 14 -31 30 -26 6 2 10 10 10 18 0 17 -31 24 -40 8z"></path>
<path class="node" id="node5" d="M1644 2253 c-33 -4 -73 -37 -115 -93 l-26 -34 -26 42 c-30 47 -83 80
-100 63 -8 -8 -7 -11 5 -11 24 0 41 -27 34 -55 -4 -17 -13 -25 -29 -25 -22 0
-22 -1 3 -20 21 -16 23 -22 14 -37 -8 -12 -22 -17 -41 -16 -19 2 -37 -4 -48
-16 -18 -21 -42 -18 -63 8 -8 10 -15 12 -20 5 -4 -6 -15 -13 -25 -17 -24 -9
-46 35 -28 56 9 12 7 16 -11 20 -41 11 -48 -30 -22 -120 24 -81 72 -158 167
-264 90 -100 181 -189 194 -189 5 0 31 23 58 51 44 44 48 51 33 60 -10 6 -18
17 -18 26 0 12 -3 13 -15 3 -21 -18 -55 -3 -55 25 0 13 6 25 12 27 9 3 8 9 -5
22 -22 23 -22 52 2 73 11 9 18 20 15 25 -3 4 -2 17 1 29 10 32 56 22 68 -15 8
-24 6 -32 -8 -42 -15 -11 -16 -16 -4 -30 11 -14 10 -17 -5 -26 -13 -7 -15 -13
-5 -24 6 -7 8 -22 4 -31 -4 -12 3 -9 23 10 l29 27 11 -25 c11 -24 14 -25 27
-11 10 10 13 24 9 40 -4 19 -2 28 10 32 9 3 16 10 16 14 0 15 -41 22 -55 10
-12 -10 -17 -7 -25 15 -22 59 0 97 45 77 14 -7 25 -16 25 -22 0 -7 8 -9 19 -5
45 14 66 -21 34 -57 -9 -10 -11 -18 -6 -18 15 0 57 58 94 131 43 83 47 176 11
227 -50 69 -119 98 -208 85z"></path>
<path class="node" id="node6" d="M2317 2236 c-8 -19 15 -37 32 -26 17 10 7 40 -13 40 -7 0 -16 -6 -19
-14z"></path>
<path class="node" id="node7" d="M1294 2219 c-16 -18 -18 -18 -36 -2 -17 15 -19 15 -32 -2 -12 -17
-12 -21 2 -31 15 -11 15 -14 -1 -31 -21 -24 -22 -37 -3 -30 8 3 17 1 19 -6 3
-8 10 -7 23 5 15 15 20 15 33 4 13 -10 21 -10 40 0 l23 12 -27 18 -27 18 21
15 c21 16 21 17 2 33 -18 15 -20 15 -37 -3z"></path>
<path class="node" id="node8" d="M2250 2180 c0 -15 5 -20 18 -18 9 2 17 10 17 18 0 8 -8 16 -17 18
-13 2 -18 -3 -18 -18z"></path>
<path class="node" id="node9" d="M2194 2129 c-3 -6 -2 -15 4 -21 13 -13 32 -2 32 18 0 16 -26 19 -36
3z"></path>
<path class="node" id="node10" d="M1331 2094 c0 -11 3 -14 6 -6 3 7 2 16 -1 19 -3 4 -6 -2 -5 -13z"></path>
<path class="node" id="node11" d="M2150 2070 c-11 -7 -12 -12 -3 -21 16 -16 44 -4 37 16 -7 17 -13 18
-34 5z"></path>
<path class="node" id="node12" d="M2106 1993 c-9 -22 10 -41 25 -26 13 13 5 43 -10 43 -5 0 -12 -8 -15
-17z"></path>
<path class="node" id="node13" d="M1416 1274 c-21 -20 -20 -68 0 -85 14 -11 19 -9 34 11 24 32 37 18
22 -23 l-11 -32 24 28 c29 32 32 63 9 95 -18 26 -56 29 -78 6z"></path>
<path class="node" id="node14" d="M2046 1252 c14 -69 -45 -133 -196 -217 -95 -52 -133 -84 -151 -127
-13 -32 -29 -22 -29 20 l0 24 -31 -26 c-62 -53 -140 -12 -113 58 9 24 32 19
36 -6 5 -34 49 -31 66 5 18 37 -2 81 -39 85 -34 4 -89 -48 -90 -86 -4 -106 38
-208 66 -162 11 18 91 11 117 -10 38 -30 53 -73 38 -110 -7 -16 -17 -30 -22
-30 -5 0 -7 -4 -4 -8 2 -4 55 -9 118 -10 92 -2 119 0 148 15 58 30 85 109 56
162 -13 24 -14 24 -21 -20 -5 -31 -17 -53 -42 -76 -29 -28 -42 -33 -84 -33
-37 0 -49 4 -49 15 0 10 11 15 35 15 24 0 44 9 67 29 32 28 33 32 33 105 0 65
3 77 18 82 22 7 87 63 87 74 0 4 -17 -1 -37 -11 -39 -20 -103 -26 -103 -9 0 5
15 17 33 26 118 60 178 165 131 232 -22 32 -45 29 -38 -6z m-165 -341 c31 -31
36 -64 18 -104 -32 -70 -139 -52 -139 22 0 16 7 34 15 41 19 16 68 16 73 1 2
-6 9 -11 15 -11 27 1 -38 40 -66 40 -29 0 -30 0 -12 20 26 28 62 25 96 -9z"></path>
<path class="node" id="node15" d="M1332 1033 c3 -53 5 -58 28 -61 14 -2 31 -9 38 -14 16 -14 15 -53 -2
-67 -12 -10 -15 -7 -18 16 -4 38 -35 43 -44 7 -14 -53 37 -83 75 -45 45 45 35
124 -23 186 -48 50 -58 46 -54 -22z"></path>
<path class="node" id="node16" d="M1416 815 c-20 -15 -20 -15 1 -15 19 0 53 -28 53 -44 0 -4 -13 -5
-29 -1 -34 7 -46 -6 -31 -35 8 -15 19 -20 37 -18 37 4 51 49 29 94 -17 37 -31
41 -60 19z"></path>
<path class="node" id="node17" d="M1320 802 c0 -10 41 -24 49 -17 6 7 0 11 -26 19 -13 4 -23 3 -23 -2z"></path>
<path class="node" id="node18" d="M1571 754 c-25 -31 -27 -62 -7 -90 11 -14 18 -16 26 -8 8 8 9 14 1
18 -6 4 -11 17 -11 28 0 19 2 19 21 -6 11 -14 28 -26 37 -26 27 1 52 25 52 52
0 58 -82 80 -119 32z"></path>
<path class="node" id="node19" d="M1291 746 c-22 -26 -80 -47 -137 -47 -39 -1 -57 -5 -61 -16 -3 -8 0
-19 7 -23 18 -11 320 -10 320 1 0 5 -4 9 -9 9 -18 0 -41 32 -41 56 0 17 -6 24
-19 24 -11 0 -26 2 -34 5 -7 3 -19 -1 -26 -9z"></path>
<path class="node" id="node20" d="M1465 660 c3 -5 8 -10 11 -10 2 0 4 5 4 10 0 6 -5 10 -11 10 -5 0 -7
-4 -4 -10z"></path>
</g>
<g transform="translate(0.000000,300.000000) scale(0.100000,-0.100000)" fill="#A0A0A0" stroke="none">

<path class="node" id="node22" d="M748 2138 c-33 -47 -33 -139 0 -186 34 -47 95 -75 150 -69 55 6 68
18 50 46 -10 16 -23 21 -58 21 -84 0 -126 61 -95 138 13 31 14 45 5 61 -15 29
-25 26 -52 -11z"></path>
<path class="node" id="node23" d="M1069 1667 c-9 -7 -21 -22 -28 -35 -16 -29 1 -85 32 -107 27 -19 87
-19 112 -2 28 22 9 39 -38 34 -23 -2 -32 -2 -20 0 33 6 39 40 14 74 -12 15
-21 33 -21 39 0 14 -31 12 -51 -3z"></path>
<path class="node" id="node24" d="M2244 2315 c-18 -13 -18 -15 -2 -31 19 -19 38 -11 38 16 0 26 -14 32
-36 15z"></path>
<path class="node" id="node25" d="M2174 2265 c-4 -9 -2 -21 4 -27 15 -15 44 -1 40 19 -4 23 -36 29 -44
8z"></path>
<path class="node" id="node26" d="M2133 2213 c-7 -3 -13 -13 -13 -23 0 -19 17 -30 38 -23 6 3 12 13 12
23 0 19 -17 30 -37 23z"></path>
<path class="node" id="node27" d="M2064 2136 c-8 -21 13 -46 32 -39 20 8 13 47 -9 51 -9 2 -20 -4 -23
-12z"></path>
<path class="node" id="node28" d="M2017 2063 c-4 -3 -7 -15 -7 -25 0 -23 38 -25 47 -2 8 21 -24 43 -40
27z"></path>
<path class="node" id="node29" d="M1978 1979 c-21 -12 -12 -39 12 -39 26 0 35 19 19 35 -10 10 -19 11
-31 4z"></path>
<path class="node" id="node30" d="M2005 1890 c-3 -10 -1 -36 5 -58 10 -31 9 -45 -3 -74 -16 -38 -64
-71 -96 -66 -21 4 -51 -19 -51 -38 0 -19 36 -27 88 -19 87 13 155 114 132 194
-20 71 -61 104 -75 61z"></path>
<path class="node" id="node31" d="M1924 1875 c-4 -9 -2 -21 4 -27 15 -15 44 -1 40 19 -4 23 -36 29 -44
8z"></path>
<path class="node" id="node32" d="M1860 1794 c-11 -12 -10 -18 3 -32 16 -15 18 -15 34 0 13 14 14 20 3
32 -7 9 -16 16 -20 16 -4 0 -13 -7 -20 -16z"></path>
<path class="node" id="node33" d="M1813 1719 c-16 -16 -5 -39 17 -39 25 0 35 18 20 35 -15 18 -22 19
-37 4z"></path>
<path class="node" id="node34" d="M1732 1638 c-25 -25 -6 -68 30 -68 9 0 22 9 28 21 9 16 8 25 -6 40
-20 22 -35 24 -52 7z"></path>
<path class="node" id="node35" d="M1655 1530 c-4 -12 -1 -27 5 -35 27 -33 78 -5 65 35 -4 14 -15 20
-35 20 -20 0 -31 -6 -35 -20z"></path>
<path class="node" id="node36" d="M1586 1454 c-11 -27 -7 -43 14 -54 40 -22 80 26 48 58 -17 17 -55 15
-62 -4z"></path>
<path class="node" id="node37" d="M1720 1417 c-18 -9 -26 -22 -28 -45 -4 -40 12 -62 44 -62 13 0 24 -4
24 -10 0 -13 -36 -13 -61 0 -27 15 -40 -17 -14 -36 55 -40 145 14 145 86 0 24
-51 80 -72 80 -7 0 -24 -6 -38 -13z"></path>
<path class="node" id="node38" d="M1785 920 c-18 -20 -17 -20 12 -20 28 0 93 -39 66 -40 -6 0 -13 5
-15 11 -5 15 -54 15 -73 -1 -8 -7 -15 -25 -15 -41 0 -74 107 -92 139 -22 18
40 13 73 -18 104 -34 34 -70 37 -96 9z"></path>
</g>
</svg>