<!--?xml version="1.0" standalone="no"?-->

<svg version="1.0" xmlns="http://www.w3.org/2000/svg" width="300.000000pt" height="300.000000pt" viewBox="0 0 300.000000 300.000000" preserveAspectRatio="xMidYMid meet">
<g transform="translate(0.000000,300.000000) scale(0.100000,-0.100000)" fill="#141414" stroke="none">
<path class="node" id="node1" d="M916 2295 c-22 -33 -20 -72 3 -85 27 -14 30 -13 41 14 9 24 -6 96
-21 96 -3 0 -14 -11 -23 -25z"></path>
<path stroke-width="20" class="node" id="node2" d="M1505 2300 c-16 -10 -37 -29 -47 -42 l-17 -23 -26 25 c-23 21 -36 25
-90 25 -57 0 -67 -3 -94 -29 -34 -33 -46 -73 -12 -42 26 24 80 37 120 30 39
-8 101 -58 101 -84 0 -26 36 -67 66 -74 34 -9 74 17 74 46 l0 22 -16 -22 c-15
-22 -48 -29 -71 -14 -36 23 -22 107 23 137 65 42 164 -18 164 -101 0 -71 -64
-117 -191 -139 l-36 -7 -6 47 c-7 64 -47 105 -110 112 -41 5 -49 2 -77 -25
-61 -61 -17 -169 58 -141 12 5 22 16 22 25 0 16 -1 16 -19 0 -18 -16 -20 -16
-47 8 l-29 24 21 29 c38 50 106 43 130 -13 19 -46 6 -92 -36 -122 -28 -21 -39
-22 -257 -22 l-228 -1 31 -28 c17 -16 53 -37 80 -47 27 -10 52 -23 56 -28 4
-6 8 -44 8 -84 0 -71 -1 -73 -22 -66 -78 24 -201 127 -247 207 -36 64 -61 132
-61 172 l0 30 -18 -30 c-50 -82 -65 -145 -66 -280 -1 -146 -7 -160 -89 -219
-20 -15 -37 -34 -37 -42 0 -7 18 -25 40 -39 29 -18 40 -32 40 -50 0 -14 8 -29
20 -35 11 -6 20 -21 20 -34 0 -13 7 -29 15 -36 8 -7 15 -25 15 -41 0 -45 17
-78 44 -85 14 -3 69 -1 123 5 l98 11 27 -32 c15 -17 35 -45 44 -62 9 -17 25
-47 35 -66 15 -27 19 -56 19 -127 0 -60 -4 -93 -11 -93 -6 0 -32 15 -57 32
-26 18 -49 34 -51 35 -2 1 10 16 27 32 66 61 66 137 1 196 -79 71 -179 33
-179 -69 0 -29 6 -48 18 -59 34 -31 92 -16 92 22 0 11 -3 11 -13 -4 -20 -26
-65 -13 -73 21 -9 35 28 74 72 74 24 0 39 -8 58 -31 34 -40 34 -88 2 -126 -25
-29 -25 -29 -130 -28 -105 2 -105 2 -149 38 -24 19 -63 46 -87 58 -40 21 -46
21 -83 8 -76 -27 -107 -107 -65 -169 13 -19 34 -37 48 -40 19 -4 26 -13 28
-35 7 -72 47 -115 104 -115 21 0 20 2 -8 16 -58 28 -83 106 -45 141 11 10 24
30 30 44 12 33 -10 69 -42 68 l-22 0 23 -9 c36 -15 39 -40 8 -67 -32 -27 -53
-29 -84 -7 -17 11 -22 25 -22 57 0 63 21 87 77 87 40 0 50 -5 94 -47 45 -44
61 -73 41 -73 -4 0 -16 -22 -26 -50 -20 -55 -16 -91 14 -130 16 -21 28 -25 94
-28 69 -4 77 -2 100 21 51 51 23 137 -43 137 -16 0 -39 -9 -52 -20 l-24 -19
35 5 c27 5 39 1 54 -15 17 -19 18 -22 3 -45 -22 -33 -50 -40 -87 -21 -42 22
-56 55 -39 90 36 72 114 87 211 41 68 -33 139 -92 132 -110 -8 -21 -71 -46
-115 -46 -28 0 -39 -4 -37 -12 4 -10 70 -14 276 -16 150 -1 272 1 272 5 0 5
-18 16 -40 26 -21 10 -56 29 -76 43 -75 51 -195 40 -258 -23 -39 -38 -43 -21
-5 21 45 52 84 69 154 70 48 1 72 -5 113 -26 29 -15 52 -23 52 -18 0 5 7 7 15
4 8 -4 15 -12 15 -20 0 -18 76 -56 115 -57 51 -1 92 35 104 94 22 101 10 177
-36 232 -28 35 -30 26 -3 -19 62 -99 17 -225 -80 -224 -63 1 -103 55 -80 110
15 37 44 46 76 25 20 -13 24 -22 20 -41 -4 -13 -2 -24 3 -24 15 0 22 49 11 70
-24 46 -112 35 -145 -17 -11 -18 -23 -32 -27 -33 -5 0 -8 23 -8 50 0 47 -11
63 -26 39 -9 -15 -91 -49 -119 -49 -42 0 -93 31 -111 68 -34 72 3 154 77 169
23 4 28 10 24 24 -7 22 16 78 41 101 11 9 40 20 64 24 l45 6 -47 -30 c-37 -24
-48 -38 -53 -66 -8 -40 0 -72 26 -100 36 -38 14 -96 -37 -96 -30 0 -32 18 -1
22 17 2 22 10 22 32 0 24 -5 31 -30 38 -39 10 -92 -7 -100 -33 -11 -33 4 -87
28 -104 45 -31 108 -15 162 42 l35 37 0 122 c0 69 4 125 10 129 18 11 198 -13
225 -31 25 -16 27 -16 55 11 37 35 53 83 48 141 -3 38 -1 42 9 28 7 -10 16
-32 19 -51 4 -23 12 -33 25 -33 20 0 35 16 19 22 -5 1 -12 17 -16 33 -9 48 22
80 76 78 24 -1 52 3 62 8 29 16 32 5 10 -40 -11 -23 -17 -41 -13 -41 21 0 90
86 101 126 7 25 16 47 21 50 5 2 4 15 0 27 -5 12 -14 48 -21 79 -15 76 -34 92
-54 45 -34 -82 -116 -87 -106 -7 3 24 31 40 71 40 50 0 55 12 20 47 -82 80
-148 103 -322 110 -71 3 -129 9 -129 13 0 4 37 20 83 35 100 33 140 58 166
106 45 80 15 170 -71 215 -57 29 -84 30 -123 4z m18 -456 c30 -10 65 -35 99
-69 40 -40 62 -54 87 -57 40 -4 56 -25 47 -62 -8 -32 -32 -44 -57 -28 -28 18
-29 16 -29 -34 0 -42 2 -45 23 -39 40 12 77 61 77 105 0 41 14 61 24 34 26
-67 -29 -146 -109 -158 -8 -1 -27 -23 -41 -49 l-25 -47 21 -22 c20 -21 28 -68
12 -68 -4 0 -14 6 -21 13 -10 9 -10 7 0 -11 12 -19 12 -24 -1 -32 -29 -20 -72
1 -98 47 -5 9 -18 9 -47 3 -22 -5 -64 -10 -92 -10 l-53 0 0 248 c0 137 3 252
8 256 10 11 121 -1 175 -20z m-294 -212 c133 -65 67 -295 -88 -310 -91 -8
-180 58 -230 172 -21 48 -29 122 -12 112 5 -3 12 -22 16 -43 7 -40 47 -103 89
-142 20 -19 40 -26 86 -29 57 -4 61 -3 95 31 28 28 35 43 35 75 0 59 -38 102
-91 102 -34 0 -41 -4 -50 -27 -14 -39 -4 -70 28 -81 24 -8 25 -11 10 -17 -76
-32 -120 82 -54 143 48 43 98 47 166 14z"></path>
<path class="node" id="node3" d="M780 2249 c0 -47 26 -89 55 -89 14 0 25 -5 25 -12 0 -29 14 7 17 45
l4 43 -51 21 -50 21 0 -29z"></path>
<path class="node" id="node4" d="M1002 2252 c-23 -43 20 -57 56 -19 29 31 28 34 -13 35 -24 1 -37 -4
-43 -16z"></path>
<path class="node" id="node5" d="M1938 2230 c-26 -36 -24 -88 5 -99 13 -5 27 -5 35 1 16 14 15 53 -2
68 -8 6 -16 21 -18 33 -3 22 -3 22 -20 -3z"></path>
<path class="node" id="node6" d="M2055 2210 c-24 -4 -30 -10 -30 -30 0 -34 30 -38 50 -6 22 33 17 43
-20 36z"></path>
<path class="node" id="node7" d="M951 2178 c-18 -49 20 -63 82 -32 30 16 30 17 10 25 -11 4 -24 12
-28 18 -12 20 -55 12 -64 -11z"></path>
<path class="node" id="node8" d="M660 2177 c0 -5 15 -24 34 -43 43 -43 82 -46 97 -8 16 43 -11 65 -78
62 -29 -2 -53 -7 -53 -11z"></path>
<path class="node" id="node9" d="M1798 2146 c16 -67 88 -110 112 -67 23 43 -1 72 -67 81 -47 6 -50 5
-45 -14z"></path>
<path class="node" id="node10" d="M815 2100 c-16 -16 -27 -31 -24 -33 2 -2 17 11 32 30 36 41 31 43 -8
3z"></path>
<path class="node" id="node11" d="M914 2121 c4 -5 -3 -7 -14 -4 -17 5 -20 0 -20 -26 0 -25 8 -37 42
-61 22 -16 44 -30 47 -30 14 0 -1 106 -17 118 -18 14 -46 16 -38 3z"></path>
<path class="node" id="node12" d="M1997 2123 c-11 -10 -8 -51 3 -58 16 -10 74 13 87 34 10 17 8 19 -19
25 -40 8 -63 8 -71 -1z"></path>
<path class="node" id="node13" d="M1911 2053 c-10 -26 -10 -27 4 -9 8 11 15 23 15 28 0 15 -7 8 -19
-19z"></path>
<path class="node" id="node14" d="M812 2058 c-19 -19 -14 -76 10 -108 l21 -29 25 46 c19 37 22 50 13
69 -13 30 -28 31 -34 2 -4 -20 -4 -19 -6 5 -1 29 -10 34 -29 15z"></path>
<path class="node" id="node15" d="M1747 2052 c-37 -17 -38 -18 -20 -33 46 -41 92 -50 114 -22 11 13 11
17 1 20 -6 3 -9 9 -6 14 8 14 -15 39 -35 38 -9 0 -33 -8 -54 -17z"></path>
<path class="node" id="node16" d="M1965 2040 c3 -6 -1 -7 -9 -4 -20 8 -22 -34 -3 -58 11 -15 84 -44 92
-36 8 8 -14 91 -26 99 -19 12 -62 11 -54 -1z"></path>
<path class="node" id="node17" d="M1876 2005 c-9 -26 -7 -32 5 -12 6 10 9 21 6 23 -2 3 -7 -2 -11 -11z"></path>
<path class="node" id="node18" d="M1887 1963 c-18 -17 -5 -70 24 -100 26 -29 58 -46 45 -25 -3 4 -1 25
4 45 4 21 6 46 3 57 -6 24 -34 35 -45 18 -6 -10 -8 -10 -8 0 0 13 -13 16 -23
5z"></path>
<path class="node" id="node19" d="M2000 1819 c0 -54 33 -117 66 -125 34 -9 52 9 34 33 -12 15 -12 16 0
6 22 -20 30 -15 30 16 0 31 -22 61 -44 61 -7 0 -30 11 -50 25 l-36 24 0 -40z"></path>
<path class="node" id="node20" d="M2222 1818 c-29 -32 -29 -51 1 -43 l22 6 -23 -18 c-29 -23 -13 -43
34 -43 24 0 43 10 73 40 23 23 41 45 41 49 0 5 -17 11 -37 14 -21 4 -49 9 -63
13 -19 4 -31 -1 -48 -18z"></path>
<path class="node" id="node21" d="M2162 1789 c-6 -88 -48 -150 -117 -174 l-40 -14 33 -1 c18 0 46 7 63
15 21 11 34 13 47 6 16 -10 16 -10 0 -11 -21 0 -24 -20 -6 -38 15 -15 82 -16
109 -2 21 12 26 30 8 30 -6 0 -24 11 -41 25 -21 18 -36 23 -54 19 -23 -6 -23
-6 -8 25 10 20 14 50 11 88 -2 32 -4 46 -5 32z"></path>
<path stroke-width="20" class="node" id="node22" d="M2286 1391 c-3 -4 -26 -14 -51 -21 -76 -21 -114 -86 -84 -143 16 -30
28 -37 66 -37 22 0 38 8 52 26 30 38 27 59 -4 29 -29 -30 -39 -31 -65 -5 -26
26 -25 36 5 65 26 26 63 32 96 14 56 -30 36 -125 -34 -161 -93 -47 -235 -29
-289 37 -15 18 -48 45 -74 60 -41 24 -47 25 -62 12 -34 -30 -91 -47 -118 -35
-25 12 -28 34 -8 82 5 14 4 17 -4 12 -7 -4 -12 -14 -12 -21 0 -8 -16 -31 -36
-50 l-36 -36 20 -22 c41 -45 65 -110 68 -182 4 -82 15 -91 66 -47 58 50 81 62
119 62 97 0 123 -155 31 -184 -15 -5 -22 -15 -22 -32 0 -14 -5 -34 -11 -45 -9
-19 -9 -19 10 -10 29 16 89 80 96 102 9 27 19 23 36 -13 8 -17 31 -45 52 -62
35 -28 46 -31 107 -31 59 0 72 3 94 24 52 49 59 149 13 192 -48 46 -103 45
-131 -2 -25 -42 -11 -52 24 -18 28 29 30 29 60 14 58 -30 44 -106 -26 -140
-34 -16 -38 -16 -75 1 -82 36 -102 132 -45 207 23 30 36 37 74 42 26 3 68 16
94 27 42 19 53 20 104 9 101 -20 149 -15 186 18 29 26 33 35 32 80 0 42 -6 57
-30 82 -26 28 -34 30 -77 26 -43 -4 -49 -2 -57 18 -17 43 -50 65 -101 65 -26
0 -50 -4 -53 -9z m89 -27 c25 -10 48 -65 46 -113 -2 -63 38 -103 68 -67 9 11
7 12 -12 9 -34 -7 -53 20 -39 52 25 55 100 58 127 5 22 -43 19 -68 -14 -101
-33 -33 -72 -38 -124 -15 -58 26 -61 30 -43 64 22 43 20 80 -9 130 -13 23 -22
42 -20 42 2 0 11 -3 20 -6z m-275 -291 c0 -10 -42 -53 -52 -53 -4 0 -8 14 -8
30 0 27 3 30 30 30 17 0 30 -3 30 -7z"></path>
<path class="node" id="node23" d="M1830 965 l-34 -35 21 -22 c30 -34 43 -63 44 -100 0 -32 1 -32 12 -9
9 19 7 30 -12 63 -25 43 -23 81 5 92 25 10 30 -1 10 -22 -24 -27 -11 -52 28
-52 40 0 56 16 56 55 0 71 -74 88 -130 30z"></path>
<path class="node" id="node24" d="M1692 878 c-18 -18 -15 -30 7 -23 20 6 71 -13 71 -26 0 -4 -15 -9
-32 -11 -41 -4 -52 -40 -18 -58 44 -24 99 25 81 72 -5 13 -15 29 -22 35 -23
18 -73 25 -87 11z"></path>
<path class="node" id="node25" d="M1640 725 c-6 -19 -19 -40 -28 -46 -29 -18 122 -1 175 20 l48 20 -69
-1 c-59 -1 -72 2 -87 20 -23 29 -25 28 -39 -13z"></path>
</g>
<g transform="translate(0.000000,300.000000) scale(0.100000,-0.100000)" fill="#9F9F9F" stroke="none">





</g>
</svg>