<!--?xml version="1.0" standalone="no"?-->

<svg version="1.0" xmlns="http://www.w3.org/2000/svg" width="300.000000pt" height="300.000000pt" viewBox="0 0 300.000000 300.000000" preserveAspectRatio="xMidYMid meet">
<g transform="translate(0.000000,300.000000) scale(0.100000,-0.100000)" fill="#191919" stroke="none">
<path class="node" id="node1" d="M1024 2516 c-51 -23 -74 -61 -74 -122 0 -52 -1 -54 -27 -54 -99 0
-163 -62 -163 -157 0 -40 -6 -62 -22 -84 -31 -41 -32 -150 -4 -192 22 -32 84
-67 119 -67 23 0 24 -3 19 -48 -5 -54 10 -92 52 -131 20 -19 39 -25 83 -28 49
-2 53 -1 28 7 -43 13 -93 65 -106 110 -13 42 -5 102 15 122 38 39 48 107 20
146 -16 23 -77 32 -89 12 -4 -6 5 -10 20 -10 45 0 65 -17 65 -55 0 -73 -120
-100 -176 -40 -33 36 -33 106 0 156 61 90 165 66 273 -63 32 -39 34 -45 28
-87 l-7 -46 30 28 c34 33 92 49 140 41 l33 -6 -20 33 c-36 63 -44 126 -26 203
9 38 23 82 31 97 18 36 18 122 0 157 -8 15 -28 40 -45 57 -28 26 -40 30 -99
32 -42 2 -79 -2 -98 -11z m170 -59 c28 -26 46 -66 46 -101 0 -31 -42 -108 -91
-166 -30 -36 -41 -58 -42 -84 -1 -20 -5 -36 -9 -36 -5 0 -33 20 -62 44 -66 53
-132 71 -203 56 -25 -6 -48 -8 -51 -5 -10 10 31 72 63 94 50 34 94 37 168 10
55 -19 69 -21 91 -11 32 14 51 52 42 86 -9 38 -22 32 -22 -10 0 -39 -15 -54
-56 -54 -76 0 -104 137 -36 184 14 10 43 16 80 16 46 0 62 -5 82 -23z"></path>
<path class="node" id="node2" d="M1520 2360 c-104 -15 -202 -59 -220 -99 -22 -47 -24 -125 -5 -174 50
-131 221 -159 284 -47 26 47 27 86 1 127 -49 80 -166 34 -140 -55 12 -43 -13
-44 -36 -1 -31 62 11 137 86 154 45 10 128 -32 162 -81 71 -105 32 -231 -89
-290 -46 -22 -166 -25 -202 -5 -22 12 -23 12 -15 -5 5 -11 9 -46 9 -79 0 -54
-5 -68 -48 -140 -56 -95 -59 -120 -15 -156 28 -24 31 -29 18 -44 -22 -26 -86
-55 -124 -55 -19 0 -38 -5 -42 -11 -7 -13 110 -8 140 6 16 7 17 6 7 -13 -16
-31 -13 -57 9 -77 11 -10 20 -27 20 -37 0 -26 22 -18 37 13 18 35 17 108 -2
115 -8 4 -22 1 -29 -5 -16 -13 -16 -5 -2 37 10 29 23 28 80 -9 27 -16 49 -29
50 -27 1 2 10 13 20 26 19 22 19 23 -2 38 -33 23 -54 71 -47 105 8 35 60 99
80 99 32 0 21 19 -30 56 -59 42 -62 49 -40 78 14 18 20 19 73 8 32 -7 77 -12
100 -12 36 0 44 4 57 30 8 16 15 35 15 43 0 16 30 80 41 87 4 3 12 18 18 33 6
15 22 32 36 39 35 16 31 38 -11 73 -44 37 -66 77 -62 113 3 24 7 27 38 24 19
-1 64 -16 99 -33 55 -26 68 -29 87 -19 12 7 34 10 48 6 20 -5 26 -13 26 -34 0
-15 -6 -34 -12 -41 -11 -11 -9 -11 9 -2 39 20 71 -35 41 -69 -11 -12 -10 -12
2 -3 18 13 45 12 60 -3 7 -7 6 -21 -3 -42 -7 -18 -16 -29 -20 -25 -11 11 -8
-12 9 -58 8 -24 21 -73 27 -109 10 -55 16 -65 35 -68 l22 -3 0 171 0 171 -38
-2 c-49 -3 -62 5 -62 42 0 23 4 29 22 29 12 0 35 -12 50 -27 l28 -27 0 72 c0
40 -2 72 -4 72 -2 0 -15 -18 -30 -40 -17 -26 -34 -40 -48 -40 -23 0 -47 26
-48 52 0 25 56 51 97 45 l34 -6 -3 57 c-3 48 -6 57 -22 57 -12 0 -24 -14 -35
-42 -22 -57 -34 -67 -77 -65 -38 2 -37 4 -16 -47 3 -9 1 -12 -6 -7 -7 4 -12
12 -12 18 0 5 -9 21 -20 35 -19 25 -20 25 -20 4 0 -13 -6 -21 -17 -21 -15 0
-16 -2 -3 -10 13 -9 13 -11 0 -20 -25 -16 -43 -11 -85 25 l-40 34 48 12 c26 7
47 16 47 19 0 4 -42 19 -92 33 -103 29 -214 40 -298 27z"></path>
<path class="node" id="node3" d="M1158 1894 c-61 -33 -41 -144 26 -144 28 0 51 24 43 45 -9 23 11 28
23 5 9 -17 7 -26 -10 -50 -17 -24 -29 -30 -59 -30 -20 0 -42 5 -49 12 -6 6
-14 9 -17 6 -8 -7 43 -99 71 -128 22 -23 24 -23 24 -5 0 11 13 36 28 55 52 64
82 119 82 152 -1 77 -90 122 -162 82z"></path>
<path class="node" id="node4" d="M1496 1619 c-51 -40 -23 -139 39 -139 11 0 26 5 33 12 17 17 15 55
-4 66 -11 6 -13 12 -6 16 15 9 52 -29 52 -54 0 -22 -41 -66 -70 -75 -26 -8
-53 -75 -30 -75 6 0 10 6 10 14 0 21 77 84 111 91 33 7 32 5 18 65 -20 89 -93
126 -153 79z"></path>
<path class="node" id="node5" d="M1686 1563 c9 -21 21 -50 27 -65 6 -15 28 -35 51 -47 23 -11 61 -39
85 -61 38 -34 51 -40 88 -40 42 0 103 22 103 38 0 10 -71 48 -83 44 -28 -9
-67 12 -91 49 -15 21 -31 39 -36 39 -6 0 -42 18 -81 40 -39 22 -73 40 -75 40
-2 0 3 -17 12 -37z"></path>
<path class="node" id="node6" d="M1085 1580 c-3 -4 2 -13 10 -20 8 -7 17 -28 21 -49 10 -54 20 -68 54
-73 31 -5 49 5 30 17 -5 3 -10 11 -10 18 0 8 3 8 12 -1 7 -7 20 -12 30 -12 26
0 23 43 -4 74 -24 26 -133 61 -143 46z"></path>
<path class="node" id="node7" d="M1637 1400 c-31 -10 -56 -36 -56 -60 0 -17 57 -57 95 -66 17 -4 26
-1 31 11 7 21 -28 55 -58 55 -27 0 -23 17 6 24 32 8 91 -17 99 -41 3 -10 5
-41 4 -69 -1 -49 -2 -50 -44 -68 -59 -24 -85 -63 -64 -96 8 -13 12 -12 25 5
16 19 16 12 0 -27 -9 -24 19 -34 51 -19 26 12 54 64 54 103 0 48 14 52 65 19
27 -17 50 -29 52 -28 7 8 -26 95 -51 135 -34 54 -103 122 -125 122 -9 0 -25 2
-36 5 -11 2 -33 0 -48 -5z"></path>
<path class="node" id="node8" d="M1089 1339 c-18 -18 -20 -30 -16 -67 3 -25 1 -56 -3 -68 -8 -21 -7
-21 22 -10 41 15 108 83 108 110 0 12 -6 31 -14 41 -14 19 -15 19 -36 -5 -21
-24 -21 -25 -15 -2 8 29 -17 30 -46 1z"></path>
<path class="node" id="node9" d="M2055 1322 c-17 -10 -53 -17 -82 -17 -29 0 -53 -4 -53 -8 0 -4 7 -22
16 -38 l15 -30 32 23 c45 34 100 58 132 58 23 0 26 2 15 15 -15 19 -36 18 -75
-3z"></path>
<path class="node" id="node10" d="M2077 1248 c-43 -11 -112 -83 -120 -124 -3 -20 4 -38 27 -69 18 -23
38 -56 45 -73 7 -17 21 -34 31 -37 47 -15 140 -24 183 -19 l47 7 0 39 0 40
-37 -24 c-28 -16 -53 -23 -93 -23 -94 1 -160 59 -160 143 0 71 81 116 138 76
32 -22 27 -29 -19 -29 -33 0 -46 -5 -61 -26 -20 -26 -20 -28 -3 -57 21 -36 53
-52 100 -52 49 0 79 17 99 55 18 33 18 35 0 80 -11 25 -31 59 -46 75 -29 33
-60 37 -131 18z"></path>
<path class="node" id="node11" d="M1505 1177 c0 -45 5 -80 13 -89 16 -20 55 -31 49 -15 -2 7 -7 23 -11
37 -7 23 -6 23 13 -5 29 -42 45 -38 49 11 2 33 -2 48 -24 73 -21 26 -72 61
-86 61 -2 0 -3 -33 -3 -73z"></path>
<path class="node" id="node12" d="M1110 902 l0 -188 51 -66 c51 -67 73 -81 142 -93 34 -5 41 -3 67 26
29 30 38 58 23 72 -4 4 -12 -6 -19 -22 -16 -39 -57 -65 -88 -57 -37 9 -81 51
-92 88 -12 38 -2 82 27 113 18 20 17 23 -15 105 -19 47 -37 108 -41 135 -8 54
-20 75 -41 75 -11 0 -14 -35 -14 -188z"></path>
<path class="node" id="node13" d="M1345 1071 c-3 -5 3 -16 14 -23 10 -7 29 -30 41 -51 20 -34 26 -37
66 -37 50 0 56 13 17 34 -28 14 -27 14 16 9 42 -6 43 -5 36 18 -13 45 -41 59
-116 59 -37 0 -70 -4 -74 -9z"></path>
<path class="node" id="node14" d="M1580 1028 c-15 -16 -20 -34 -18 -67 1 -37 2 -40 5 -13 4 33 23 35
23 2 0 -10 11 -31 24 -46 l23 -28 16 25 c17 25 21 47 19 85 -2 24 -37 64 -57
64 -8 0 -23 -10 -35 -22z"></path>
<path class="node" id="node15" d="M1726 1034 c-25 -24 -19 -34 22 -35 l37 -1 -31 -7 c-50 -13 -58 -20
-38 -42 9 -10 25 -21 35 -24 23 -8 117 35 143 64 19 21 19 21 -2 21 -12 0 -39
9 -59 20 -45 24 -86 26 -107 4z"></path>
<path class="node" id="node16" d="M1442 913 c-12 -10 -34 -42 -51 -70 l-30 -53 47 7 c26 3 56 13 67 22
11 10 32 22 48 29 15 6 27 16 27 22 0 13 -17 13 -25 0 -3 -5 -11 -10 -17 -10
-6 0 -1 11 12 26 21 21 22 27 10 34 -24 15 -66 11 -88 -7z"></path>
<path class="node" id="node17" d="M1713 910 c-26 -10 -31 -30 -9 -30 8 0 18 -4 21 -10 4 -6 -4 -6 -21
0 -15 6 -31 7 -36 2 -14 -14 11 -70 35 -76 28 -7 142 -8 149 -1 3 3 -7 20 -23
38 -16 18 -40 44 -53 60 -27 29 -30 30 -63 17z"></path>
<path class="node" id="node18" d="M2060 875 c0 -16 5 -23 13 -19 8 3 17 -10 24 -38 10 -39 10 -45 -9
-65 -12 -12 -25 -20 -30 -17 -12 8 -58 -23 -58 -39 0 -11 -36 -42 -124 -106
-11 -8 -16 -9 -12 -3 10 17 -9 15 -23 -2 -8 -9 -8 -16 -2 -20 6 -4 5 -23 -4
-52 -12 -40 -12 -45 2 -40 8 3 23 6 34 6 15 0 17 5 13 30 -13 65 20 105 66 80
12 -6 27 -25 34 -42 7 -17 16 -26 20 -20 3 6 -3 26 -15 46 -16 28 -18 39 -9
56 7 12 18 19 25 16 8 -3 17 -1 20 4 3 5 16 5 30 -2 18 -8 25 -19 25 -40 0
-36 9 -35 48 5 l32 32 -39 -3 c-50 -5 -75 18 -59 53 14 31 55 33 86 5 12 -11
27 -20 34 -20 17 0 52 53 77 118 32 82 32 82 -57 82 -42 0 -92 4 -110 9 -30 9
-32 8 -32 -14z m155 -96 c10 -16 -35 -59 -62 -59 -13 0 -24 5 -24 10 -1 6 -2
16 -3 23 -4 22 16 37 50 37 18 0 36 -5 39 -11z"></path>
<path class="node" id="node19" d="M1630 836 c0 -2 8 -23 19 -46 12 -26 20 -36 24 -27 3 8 -3 28 -14 46
-16 27 -29 39 -29 27z"></path>
<path class="node" id="node20" d="M1550 767 c0 -46 23 -76 47 -61 10 6 19 19 21 28 5 25 -25 66 -48 66
-16 0 -20 -7 -20 -33z"></path>
<path class="node" id="node21" d="M1246 738 c-23 -33 -20 -83 6 -108 35 -32 88 -21 88 18 0 16 -61 112
-72 112 -4 0 -14 -10 -22 -22z"></path>
<path class="node" id="node22" d="M1597 674 c-3 -3 -3 -13 0 -21 5 -12 7 -12 14 -1 15 23 4 40 -14 22z"></path>
<path class="node" id="node23" d="M1110 568 c0 -91 1 -98 20 -98 14 0 22 11 30 40 6 21 15 42 21 46 7
4 -1 18 -19 38 -16 17 -34 40 -40 51 -9 16 -11 -1 -12 -77z"></path>
<path class="node" id="node24" d="M1440 569 c-34 -11 -53 -27 -45 -39 5 -7 116 -34 118 -28 25 49 70
64 94 32 19 -26 16 -36 -6 -23 -22 14 -51 6 -51 -15 0 -15 71 -32 90 -21 17
11 11 42 -14 71 -20 24 -32 28 -87 31 -35 1 -80 -3 -99 -8z"></path>
<path class="node" id="node25" d="M1680 563 c0 -5 5 -15 10 -23 9 -13 12 -13 21 3 5 9 20 17 32 16 l22
0 -22 -11 c-28 -13 -29 -29 -5 -51 37 -34 72 -10 72 47 0 25 -2 26 -65 26 -36
0 -65 -3 -65 -7z"></path>
<path class="node" id="node26" d="M1690 485 c0 -8 5 -15 10 -15 6 0 10 7 10 15 0 8 -4 15 -10 15 -5 0
-10 -7 -10 -15z"></path>
</g>
<g transform="translate(0.000000,300.000000) scale(0.100000,-0.100000)" fill="#A1A1A1" stroke="none">



</g>
</svg>