<!--?xml version="1.0" standalone="no"?-->

<svg version="1.0" xmlns="http://www.w3.org/2000/svg" width="300.000000pt" height="300.000000pt" viewBox="0 0 300.000000 300.000000" preserveAspectRatio="xMidYMid meet">
<g transform="translate(0.000000,300.000000) scale(0.100000,-0.100000)" fill="#191919" stroke="none">
<path class="node" id="node1" d="M731 2447 c-6 -8 -11 -37 -12 -65 -2 -41 2 -56 17 -67 50 -39 116
-24 122 28 3 23 -2 30 -30 41 -27 12 -30 16 -15 21 44 18 107 -38 91 -79 -3
-9 -1 -16 4 -16 35 0 23 76 -17 119 -26 28 -35 31 -89 31 -37 0 -64 -5 -71
-13z"></path>
<path class="node" id="node2" d="M932 2453 c3 -5 11 -23 18 -40 17 -38 17 -38 48 -15 l23 18 -41 22
c-45 24 -54 26 -48 15z"></path>
<path class="node" id="node3" d="M1040 2450 c0 -5 9 -10 20 -10 11 0 20 5 20 10 0 6 -9 10 -20 10 -11
0 -20 -4 -20 -10z"></path>
<path class="node" id="node4" d="M1260 2452 c0 -5 9 -17 21 -28 11 -10 27 -32 34 -49 11 -25 14 -26
14 -9 1 12 -5 27 -13 33 -8 7 -17 23 -20 36 -6 23 -36 36 -36 17z"></path>
<path class="node" id="node5" d="M1323 2444 c-7 -18 20 -44 44 -44 18 0 55 39 48 50 -11 17 -85 12
-92 -6z"></path>
<path class="node" id="node6" d="M1453 2448 c-4 -7 -13 -22 -18 -33 -6 -11 -25 -27 -42 -35 l-33 -15
0 -116 0 -116 44 -17 c54 -21 95 -51 106 -80 8 -20 9 -20 9 3 1 13 19 43 42
68 46 50 46 62 0 39 -40 -21 -56 -20 -101 5 -40 23 -60 54 -60 94 0 49 17 75
103 153 49 44 48 62 -2 62 -22 0 -43 -6 -48 -12z"></path>
<path class="node" id="node7" d="M1579 2458 c0 -2 -2 -16 -4 -33 -2 -19 -15 -39 -36 -55 -86 -67 -101
-85 -102 -123 -1 -39 17 -61 61 -73 54 -15 97 39 73 92 -13 30 -44 31 -64 2
-15 -22 -16 -22 -16 -2 -2 45 62 61 97 24 20 -22 67 -38 93 -33 9 2 22 23 29
46 14 49 58 107 94 127 14 7 26 17 26 22 0 7 -249 13 -251 6z"></path>
<path class="node" id="node8" d="M1918 2444 c-99 -31 -155 -118 -129 -203 17 -57 53 -86 109 -86 64 0
102 33 102 87 0 68 -65 88 -109 32 -16 -20 -20 -21 -25 -8 -3 8 1 28 9 43 25
49 57 52 162 18 86 -29 135 -64 174 -125 39 -61 38 -101 -2 -147 -38 -43 -32
-58 8 -21 32 30 47 29 51 -2 3 -16 10 -22 29 -22 l26 0 -8 103 c-4 56 -11 156
-14 222 l-6 120 -165 2 c-121 1 -177 -2 -212 -13z"></path>
<path class="node" id="node9" d="M1083 2390 c-23 -12 -48 -29 -55 -37 -12 -14 -8 -16 36 -11 29 4 55
13 61 22 20 27 68 31 89 7 19 -20 46 -29 46 -13 -2 48 -107 68 -177 32z"></path>
<path class="node" id="node10" d="M1174 2353 c10 -11 36 -12 36 -2 0 5 -10 9 -22 9 -12 0 -18 -3 -14
-7z"></path>
<path class="node" id="node11" d="M712 2264 c2 -10 21 -23 45 -31 38 -13 45 -13 65 1 22 16 22 16 -15
16 -21 0 -52 7 -68 16 -29 14 -31 14 -27 -2z"></path>
<path stroke-width="20" class="node" id="node12" d="M1020 2223 c-57 -51 -52 -130 14 -229 32 -49 33 -56 39 -170 5 -108
3 -122 -15 -149 -31 -46 -66 -68 -120 -73 -117 -11 -184 114 -104 194 42 42
67 43 100 3 31 -37 32 -39 5 -73 -27 -35 -17 -46 19 -19 32 23 38 53 21 94
-34 85 -188 77 -238 -11 -47 -84 -7 -191 91 -241 80 -41 180 -10 233 73 17 26
33 47 37 47 8 1 48 -63 48 -77 0 -5 -22 -15 -49 -22 -93 -22 -193 -160 -176
-246 14 -76 104 -154 177 -154 51 0 119 39 151 87 56 85 28 214 -50 229 -69
13 -123 -27 -123 -90 l1 -41 15 30 c9 17 23 36 32 43 24 19 70 14 93 -9 29
-29 23 -108 -11 -144 -40 -43 -136 -54 -181 -22 -25 18 -51 76 -51 113 0 75
93 158 189 171 54 6 121 -30 151 -82 43 -75 19 -170 -76 -298 -26 -34 -63 -96
-84 -137 -35 -69 -38 -81 -38 -161 0 -106 28 -179 87 -228 46 -38 63 -41 28
-4 -60 64 -70 91 -73 203 -4 119 2 137 96 267 27 37 63 96 80 130 26 49 38 63
66 73 67 22 157 -39 172 -115 13 -71 -34 -124 -97 -110 -36 8 -64 49 -50 73
10 16 10 16 11 0 0 -44 83 -47 94 -4 8 31 -11 84 -34 96 -31 17 -86 11 -114
-11 -22 -17 -26 -28 -26 -67 1 -53 11 -71 60 -101 44 -26 95 -27 138 -1 37 23
52 54 52 108 0 46 -13 65 -112 170 -124 129 -151 218 -103 335 5 12 2 17 -10
17 -14 0 -16 6 -11 34 16 86 73 143 116 116 13 -8 13 -13 1 -32 -10 -18 -10
-20 0 -10 19 18 29 15 29 -11 0 -33 -28 -67 -54 -67 -29 0 -46 -36 -53 -111
-9 -90 15 -144 98 -225 39 -38 83 -89 100 -113 l29 -44 0 72 c0 40 5 82 11 93
9 17 9 20 -4 15 -8 -3 -23 0 -32 6 -13 10 -14 18 -6 40 10 27 13 28 55 22 38
-6 45 -4 50 13 11 33 28 40 84 32 49 -6 54 -5 62 15 4 12 20 35 35 53 31 37
42 90 23 114 -22 29 -72 34 -97 9 -26 -26 -27 -45 -1 -71 16 -16 25 -18 40
-10 12 7 17 16 13 28 -5 13 -3 14 7 6 15 -15 5 -50 -16 -58 -9 -3 -33 -1 -54
5 -55 17 -86 5 -109 -39 l-20 -37 -1 38 c0 42 24 73 65 83 16 4 25 13 25 26 0
11 13 33 29 49 41 40 91 40 132 0 38 -38 38 -80 -1 -151 -16 -30 -29 -58 -30
-62 0 -12 58 -10 81 2 14 8 19 21 19 54 0 30 6 48 20 61 11 10 20 28 20 39 0
12 9 27 20 34 11 7 20 23 20 37 0 19 9 29 35 42 19 9 35 22 35 29 0 7 -23 32
-50 55 -71 59 -84 91 -75 179 4 38 4 70 0 70 -4 0 -18 -9 -32 -20 -14 -11 -42
-24 -62 -30 -68 -18 -175 37 -209 107 -15 32 -21 35 -64 38 -41 2 -47 0 -52
-20 -3 -12 2 -37 11 -56 9 -18 17 -56 17 -85 1 -49 2 -51 21 -38 11 8 29 14
40 14 11 0 32 6 47 14 15 8 28 12 31 10 11 -11 -26 -111 -50 -137 -16 -16 -21
-26 -12 -22 11 4 26 -5 45 -26 16 -18 39 -43 52 -57 13 -13 20 -27 17 -31 -4
-3 -38 -6 -77 -6 -65 0 -72 2 -91 27 -18 24 -19 30 -7 53 7 14 20 25 29 25 10
1 5 7 -12 16 -27 15 -28 16 -12 40 8 13 11 24 6 24 -5 0 -12 -7 -15 -16 -9
-23 -26 -7 -26 24 0 20 -3 23 -12 14 -15 -15 -48 -16 -48 -1 0 5 -5 7 -10 4
-6 -3 -13 1 -16 9 -8 20 -24 21 -24 1 0 -15 -37 -35 -66 -35 -8 0 -26 11 -39
25 -19 18 -25 35 -25 67 0 24 -5 50 -10 58 -7 11 -10 7 -10 -18 l0 -34 -31 31
c-24 24 -39 31 -70 31 -37 0 -39 2 -39 30 0 42 -25 86 -52 94 -13 3 -44 6 -70
6 -38 0 -54 -6 -78 -27z m139 -19 c38 -32 41 -72 7 -111 -21 -24 -26 -26 -50
-15 -19 8 -26 19 -27 39 0 27 -1 27 -9 5 -20 -50 28 -81 87 -57 41 17 106 20
134 5 34 -19 20 -25 -54 -25 -65 0 -78 -3 -111 -28 -36 -28 -38 -29 -58 -10
-35 31 -68 91 -68 123 0 43 16 69 53 85 46 20 62 18 96 -11z m139 -247 c27
-41 28 -81 2 -107 -24 -24 -53 -26 -74 -4 -20 20 -20 43 0 72 22 31 0 28 -25
-4 -24 -30 -27 -81 -8 -108 8 -11 31 -20 60 -23 43 -5 49 -3 76 26 24 25 32
45 37 92 6 52 9 59 28 59 12 0 31 -7 43 -15 42 -30 7 -105 -49 -105 l-28 0 0
-160 c0 -88 -3 -160 -6 -160 -3 0 -19 11 -36 25 -16 14 -36 25 -43 25 -50 0
-145 183 -145 278 0 74 55 141 115 142 23 0 35 -8 53 -33z m306 -28 c14 -11
26 -27 26 -34 0 -14 -8 -17 -70 -31 l-35 -8 40 -7 40 -6 -38 -2 c-30 -1 -44 5
-67 29 -34 35 -34 34 -20 61 15 27 88 26 124 -2z m53 -167 c3 -14 1 -33 -5
-42 -6 -10 -14 -34 -17 -54 -4 -20 -11 -36 -15 -36 -13 0 -65 64 -79 98 -12
28 -11 35 3 57 18 27 41 33 49 13 3 -8 6 -6 6 5 1 16 3 16 26 1 14 -9 28 -28
32 -42z m-84 -196 c31 -25 33 -52 5 -69 -26 -17 -48 9 -48 54 0 45 5 47 43 15z
m27 -102 c-14 -36 -12 -64 5 -99 l15 -30 -28 30 c-16 17 -35 29 -45 27 -21 -4
-57 24 -57 44 0 14 46 14 69 0 6 -4 11 -2 11 5 0 11 28 49 36 49 2 0 -1 -12
-6 -26z"></path>
<path class="node" id="node13" d="M706 2139 c-3 -34 -6 -77 -6 -96 0 -30 3 -34 23 -31 18 2 24 13 34
62 6 33 16 70 22 83 9 19 7 24 -9 33 -44 24 -57 14 -64 -51z"></path>
<path class="node" id="node14" d="M2094 2120 c-37 -15 -35 -26 8 -54 28 -18 49 -25 65 -21 27 6 30 22
6 28 -14 4 -12 5 5 6 26 1 31 35 6 45 -22 8 -65 6 -90 -4z"></path>
<path class="node" id="node15" d="M2210 1983 c0 -14 -2 -15 -9 -4 -7 11 -11 10 -20 -7 -17 -31 -13 -44
23 -85 l33 -37 13 45 c10 36 10 51 0 75 -13 33 -40 41 -40 13z"></path>
<path class="node" id="node16" d="M1599 1031 c-29 -24 -40 -45 -58 -106 -16 -53 -21 -87 -16 -112 8
-43 57 -93 91 -93 23 0 24 3 24 60 0 46 -3 60 -15 60 -23 0 -38 -36 -25 -61
16 -29 6 -35 -19 -10 -41 41 -15 111 41 111 16 0 18 10 18 90 0 50 -1 90 -3
90 -1 0 -18 -13 -38 -29z"></path>
<path class="node" id="node17" d="M1360 1030 c0 -5 15 -16 33 -24 17 -8 45 -26 60 -41 32 -30 33 -30
42 8 6 24 4 27 -17 27 -13 0 -41 9 -63 20 -44 22 -55 24 -55 10z"></path>
<path class="node" id="node18" d="M1360 936 c0 -14 13 -38 30 -54 17 -17 30 -38 30 -47 0 -9 -13 -30
-30 -47 -17 -17 -30 -40 -30 -54 0 -35 -23 -85 -51 -110 -32 -29 -109 -54
-164 -54 -41 0 -45 -2 -45 -25 l0 -25 192 0 c184 0 191 1 175 18 -23 26 -21
90 4 148 19 42 20 53 10 97 -6 27 -11 63 -11 80 -1 35 -12 54 -50 80 -36 25
-60 22 -60 -7z"></path>
<path class="node" id="node19" d="M1360 840 c0 -18 4 -29 10 -25 6 3 10 15 10 25 0 10 -4 22 -10 25 -6
4 -10 -7 -10 -25z"></path>
<path class="node" id="node20" d="M1501 664 c-36 -61 -24 -123 26 -126 62 -5 92 27 74 76 -13 33 -61
38 -61 6 0 -11 -4 -20 -10 -20 -19 0 -10 39 15 58 l24 19 -24 11 c-21 10 -26
8 -44 -24z"></path>
<path class="node" id="node21" d="M1590 660 c0 -5 13 -10 29 -10 17 0 33 5 36 10 4 6 -8 10 -29 10 -20
0 -36 -4 -36 -10z"></path>
<path class="node" id="node22" d="M1659 623 c-10 -2 -19 -18 -21 -36 -3 -18 -8 -40 -13 -49 -7 -17 4
-18 139 -18 l146 0 0 24 c0 21 -5 24 -71 29 -48 4 -84 14 -116 31 -25 15 -46
25 -47 25 0 -1 -8 -3 -17 -6z"></path>
</g>
<g transform="translate(0.000000,300.000000) scale(0.100000,-0.100000)" fill="#A1A1A1" stroke="none">







</g>
</svg>