<!--?xml version="1.0" standalone="no"?-->

<svg version="1.0" xmlns="http://www.w3.org/2000/svg" width="300.000000pt" height="300.000000pt" viewBox="0 0 300.000000 300.000000" preserveAspectRatio="xMidYMid meet">
<g transform="translate(0.000000,300.000000) scale(0.100000,-0.100000)" fill="#191919" stroke="none">
<path class="node" id="node1" d="M600 2385 c0 -31 35 -35 43 -6 6 24 0 31 -25 31 -13 0 -18 -7 -18
-25z"></path>
<path class="node" id="node2" d="M693 2403 c-7 -2 -13 -13 -13 -23 0 -13 10 -20 40 -25 22 -4 51 -16
65 -27 34 -27 55 -17 55 26 0 50 -32 67 -66 35 l-24 -22 0 21 c0 22 -25 28
-57 15z"></path>
<path class="node" id="node3" d="M860 2404 c0 -13 24 -49 44 -66 29 -24 94 -23 126 2 36 28 44 25 24
-9 -17 -29 -51 -51 -79 -51 -21 0 -20 -3 30 -52 38 -38 45 -51 45 -85 0 -21
-7 -48 -15 -59 -15 -18 -16 -18 -40 11 -14 17 -25 36 -25 44 0 8 -3 11 -7 7
-4 -4 1 -22 12 -41 10 -20 16 -37 13 -40 -7 -8 -62 22 -83 45 -17 19 -18 26
-7 79 12 57 9 83 -11 108 -7 10 -14 7 -28 -11 -17 -21 -18 -32 -9 -102 7 -57
15 -82 27 -89 36 -21 73 -64 73 -86 0 -20 -4 -21 -42 -16 l-43 5 33 -17 33
-17 -38 -19 -38 -18 43 -9 c50 -11 62 -30 36 -60 -19 -21 -19 -21 4 -9 20 11
22 9 22 -12 0 -34 -35 -74 -70 -82 l-30 -7 0 -156 0 -155 23 21 c34 32 105 31
137 -3 33 -35 32 -98 -3 -158 -24 -41 -27 -56 -27 -141 0 -94 0 -95 33 -125
19 -19 43 -31 60 -31 23 0 27 4 27 28 0 21 -7 32 -25 40 -50 23 -52 79 -4 115
l29 21 0 118 0 118 95 0 c99 0 99 0 137 -53 12 -16 15 -14 41 18 23 29 26 38
17 56 -6 11 -8 34 -5 51 6 27 5 30 -11 24 -11 -5 -75 -10 -143 -13 -119 -6
-123 -5 -113 13 6 10 19 28 30 40 21 22 22 22 174 -1 42 -6 50 -4 72 18 18 18
26 37 26 60 0 19 7 40 15 47 8 7 15 21 15 31 0 11 9 28 20 39 11 11 20 29 20
39 0 11 15 28 35 40 19 11 35 26 35 34 0 7 -20 30 -45 51 -74 61 -76 68 -78
221 l-2 136 25 -6 c14 -3 47 -19 73 -35 27 -17 50 -30 53 -30 2 0 4 17 4 39 0
24 9 51 25 75 17 25 21 38 12 40 -42 13 -110 26 -137 26 -25 0 -31 -4 -26 -15
3 -8 9 -22 12 -30 9 -21 -69 -21 -86 0 -11 13 -17 8 -41 -30 -33 -52 -58 -62
-33 -13 9 17 20 44 24 60 7 22 5 28 -12 33 -21 7 -41 -5 -20 -12 6 -3 12 -11
12 -19 0 -8 -6 -14 -12 -14 -9 0 -8 -4 2 -10 13 -9 11 -13 -9 -31 -13 -11 -29
-18 -35 -15 -6 3 -28 10 -48 17 -21 7 -38 16 -38 20 0 5 14 18 30 31 17 12 30
25 30 30 0 4 -88 8 -195 8 -107 0 -195 -3 -195 -6z m550 -134 c15 -15 20 -33
20 -70 0 -27 -3 -50 -6 -50 -3 0 -26 14 -50 32 -34 24 -44 38 -44 60 0 18 5
28 15 28 8 0 15 5 15 10 0 17 29 11 50 -10z m-167 -52 c-6 -82 -18 -120 -46
-146 -27 -25 -67 -36 -87 -23 -12 8 -12 13 0 38 21 43 22 43 17 43 -3 0 -14
-14 -25 -32 l-20 -32 -7 38 c-11 57 6 83 77 115 35 15 69 35 77 44 7 10 15 17
16 17 2 0 1 -28 -2 -62z m51 -183 c27 -14 61 -25 75 -25 25 -1 25 -2 -14 -36
-42 -37 -108 -74 -134 -74 -11 0 -9 -5 7 -20 12 -11 28 -33 37 -49 8 -16 28
-40 44 -54 l31 -25 -51 -11 c-63 -14 -90 -14 -126 0 -44 16 -73 49 -73 82 0
31 -5 31 75 11 11 -2 2 5 -20 17 -36 20 -38 23 -20 30 11 4 32 8 48 8 26 1 40
21 14 21 -8 0 -23 11 -36 23 -19 21 -20 25 -6 37 8 7 30 16 48 21 29 8 29 8
-10 5 -24 -2 -43 -1 -43 2 1 24 73 74 95 66 6 -3 32 -15 59 -29z m-213 -6 c22
-23 29 -41 29 -71 0 -44 -24 -98 -43 -98 -20 0 -56 37 -61 63 -12 55 -15 59
-12 17 1 -25 6 -54 11 -65 8 -18 7 -19 -8 -6 -42 34 -36 135 11 171 33 26 39
25 73 -11z m-50 -226 c0 -11 3 -13 6 -5 8 20 28 14 51 -18 30 -41 28 -67 -13
-124 -19 -27 -35 -60 -35 -73 0 -37 -13 -27 -47 35 -38 70 -49 121 -32 153 24
45 68 65 70 32z"></path>
<path class="node" id="node4" d="M1688 2329 c-40 -30 -53 -78 -33 -126 26 -61 52 -83 99 -83 43 1 74
20 95 57 34 65 -28 124 -81 76 -16 -14 -18 -14 -18 0 0 8 12 25 27 36 29 24
30 23 -14 45 -40 20 -42 20 -75 -5z"></path>
<path class="node" id="node5" d="M1899 2225 c-8 -66 15 -122 63 -158 41 -30 45 -14 14 51 -29 60 -75
124 -77 107z"></path>
<path class="node" id="node6" d="M1820 2080 c-40 -22 -82 -25 -112 -9 -18 10 -20 9 -14 -7 5 -11 12
-49 18 -86 6 -37 14 -65 19 -63 4 3 28 -5 53 -17 39 -19 46 -26 46 -51 0 -21
-4 -28 -14 -24 -8 3 -13 -1 -12 -11 1 -12 -5 -16 -19 -14 -29 5 -55 40 -56 76
0 26 -2 28 -8 11 -5 -11 -13 -39 -18 -62 l-10 -41 34 5 c24 4 39 1 53 -12 22
-20 26 -65 8 -83 -17 -17 -67 -15 -102 3 -29 15 -31 15 -52 -12 -12 -15 -43
-43 -68 -62 l-46 -35 30 -29 c17 -16 33 -40 36 -53 3 -13 10 -24 14 -24 11 0
129 45 174 66 38 18 38 20 33 64 -6 52 1 102 14 94 5 -3 9 -29 9 -59 l0 -54
26 24 c15 14 31 25 37 25 5 0 -2 12 -17 26 -26 27 -34 54 -16 54 6 0 10 7 10
15 0 8 5 15 10 15 6 0 10 5 10 10 0 6 -6 10 -14 10 -20 0 -31 57 -15 76 11 13
11 18 -2 28 -25 18 -32 52 -14 68 9 7 24 21 32 30 9 9 20 15 25 12 14 -9 9
-82 -8 -98 -14 -15 -13 -16 11 -16 14 0 35 5 47 11 17 9 19 8 14 -8 -3 -10 -8
-30 -12 -46 -3 -15 -18 -36 -31 -47 l-26 -20 25 0 c13 0 29 -5 36 -12 22 -22
46 57 46 156 l1 90 -31 6 c-41 9 -80 39 -95 73 -13 32 -14 32 -59 7z m-73
-421 c22 -8 24 -12 13 -19 -13 -8 -12 -10 3 -10 21 0 22 -29 3 -56 -12 -15
-27 -19 -80 -19 -35 0 -68 4 -72 8 -4 4 4 18 17 31 13 14 34 36 47 50 26 29
30 30 69 15z"></path>
<path class="node" id="node7" d="M1440 1525 c-20 -22 -22 -27 -10 -55 10 -24 19 -30 41 -30 24 0 29 4
29 25 0 14 5 25 10 25 6 0 10 -13 10 -30 0 -32 -22 -50 -64 -50 -28 0 -66 -31
-66 -54 0 -9 11 -3 29 15 25 24 38 29 79 29 43 0 50 3 56 23 12 46 6 83 -17
105 -31 29 -68 28 -97 -3z"></path>
<path class="node" id="node8" d="M902 1438 c-15 -15 -15 -61 0 -76 19 -19 49 -14 55 9 4 16 8 17 14 7
14 -21 11 -27 -21 -47 -29 -17 -29 -18 -12 -35 18 -15 20 -15 45 16 33 39 39
96 15 126 -13 15 -80 16 -96 0z"></path>
<path class="node" id="node9" d="M1590 1404 c0 -17 9 -42 21 -55 11 -13 30 -43 40 -67 19 -41 71 -78
91 -66 4 3 -25 48 -64 102 -91 125 -88 121 -88 86z"></path>
<path class="node" id="node10" d="M1458 1337 c-26 -20 -23 -72 4 -91 30 -21 45 -20 58 4 8 16 6 24 -11
41 -26 26 -18 36 16 21 52 -24 52 -83 -1 -114 l-33 -20 47 -63 c26 -35 50 -64
53 -65 3 0 11 11 17 25 26 57 5 190 -37 236 -30 35 -86 47 -113 26z"></path>
<path class="node" id="node11" d="M870 1330 c20 -13 43 -13 35 0 -3 6 -16 10 -28 10 -18 0 -19 -2 -7
-10z"></path>
<path class="node" id="node12" d="M860 1260 c0 -5 11 -20 25 -34 14 -14 25 -36 25 -50 0 -14 -10 -33
-25 -44 -22 -18 -25 -27 -25 -88 1 -65 2 -68 16 -49 33 41 56 107 57 165 2 49
-2 62 -22 84 -24 26 -51 34 -51 16z"></path>
<path class="node" id="node13" d="M860 1195 c0 -15 4 -24 10 -20 6 3 10 12 10 20 0 8 -4 17 -10 20 -6
4 -10 -5 -10 -20z"></path>
<path class="node" id="node14" d="M1680 1165 c0 -33 1 -34 26 -25 14 6 42 10 62 11 l37 1 -35 10 c-19
5 -47 16 -62 23 -28 14 -28 14 -28 -20z"></path>
<path class="node" id="node15" d="M1084 1135 c-7 -28 0 -55 16 -55 5 0 10 18 10 40 0 44 -16 54 -26 15z"></path>
<path class="node" id="node16" d="M1705 1092 c-48 -22 -63 -39 -71 -78 -4 -24 3 -40 46 -95 46 -61 57
-68 127 -95 43 -16 99 -46 125 -66 54 -43 64 -47 46 -18 -7 10 -10 21 -8 23 3
2 32 1 65 -2 52 -5 61 -9 75 -35 11 -21 12 -30 3 -33 -7 -2 -9 -11 -7 -18 10
-26 -44 -30 -76 -7 l-28 21 21 -49 c16 -38 26 -50 42 -50 33 0 57 34 63 88 4
47 3 50 -52 108 -31 32 -73 82 -93 111 -37 50 -63 67 -63 40 0 -8 -10 -23 -22
-34 -82 -74 -213 -27 -225 80 -4 36 -1 49 16 66 29 29 85 28 105 -1 22 -31 20
-45 -2 -25 -61 56 -115 -31 -56 -90 22 -22 32 -25 67 -20 49 7 87 44 87 86 0
17 -12 42 -32 64 -42 47 -94 56 -153 29z"></path>
<path class="node" id="node17" d="M952 1014 c-7 -14 -12 -26 -12 -28 0 -1 17 -9 39 -16 38 -12 95 -59
118 -96 10 -17 12 -14 12 21 1 38 -1 42 -36 54 -21 8 -54 31 -74 52 l-36 39
-11 -26z"></path>
<path class="node" id="node18" d="M867 923 c-4 -3 -7 -15 -7 -26 0 -19 1 -19 18 -4 10 10 31 17 46 17
32 0 76 -40 76 -70 0 -26 -8 -25 -32 5 -23 30 -49 32 -71 7 -46 -50 4 -132 80
-132 34 0 46 6 68 32 22 26 26 39 21 67 -7 42 -33 81 -67 98 -25 13 -121 18
-132 6z"></path>
<path class="node" id="node19" d="M1780 784 c0 -3 22 -35 49 -72 94 -128 88 -122 136 -122 l44 0 -11
30 c-18 54 -87 118 -155 144 -35 14 -63 22 -63 20z"></path>
<path class="node" id="node20" d="M1111 768 c-2 -28 -57 -83 -97 -96 -48 -14 -103 7 -144 56 -29 35
-30 36 -30 12 0 -14 21 -53 47 -87 l46 -63 219 0 c211 0 218 1 218 20 0 17 -7
20 -40 20 -112 0 -187 43 -208 120 -6 19 -11 27 -11 18z"></path>
<path class="node" id="node21" d="M2160 679 c0 -26 2 -29 19 -19 17 9 64 -4 100 -27 2 -1 -7 -11 -20
-22 l-24 -20 88 -1 c63 0 87 3 87 13 0 25 -16 34 -67 40 -50 6 -91 20 -155 52
-27 14 -28 13 -28 -16z"></path>
<path class="node" id="node22" d="M775 659 c-19 -11 -60 -21 -103 -25 -61 -6 -72 -10 -72 -25 0 -18 10
-19 140 -19 l141 0 -31 45 c-17 25 -34 45 -38 44 -4 0 -21 -9 -37 -20z"></path>
<path class="node" id="node23" d="M2137 610 c-16 -19 -16 -20 3 -20 13 0 20 7 20 20 0 11 -1 20 -3 20
-1 0 -10 -9 -20 -20z"></path>
</g>
<g transform="translate(0.000000,300.000000) scale(0.100000,-0.100000)" fill="#A1A1A1" stroke="none">


<path class="node" id="node26" d="M1229 2263 c-8 -9 -42 -29 -77 -44 -71 -32 -88 -58 -77 -115 l7 -38
20 32 c11 18 22 32 25 32 5 0 4 0 -17 -43 -12 -25 -12 -30 0 -38 35 -22 102
20 119 75 9 30 22 156 16 156 -1 0 -9 -7 -16 -17z"></path>
<path class="node" id="node27" d="M1195 2052 c-29 -15 -54 -40 -55 -54 0 -3 19 -4 43 -2 39 3 39 3 10
-5 -18 -5 -40 -14 -48 -21 -14 -12 -13 -16 6 -37 13 -12 28 -23 36 -23 26 0
12 -20 -14 -21 -16 0 -37 -4 -48 -8 -18 -7 -16 -10 20 -30 22 -12 31 -19 20
-17 -80 20 -75 20 -75 -11 0 -33 29 -66 73 -82 36 -14 63 -14 126 0 l51 11
-31 25 c-16 14 -36 38 -44 54 -9 16 -25 38 -37 49 -16 15 -18 20 -7 20 26 0
92 37 134 74 39 34 39 35 14 36 -14 0 -48 11 -75 25 -69 35 -67 34 -99 17z"></path>
<path class="node" id="node28" d="M1008 2040 c-47 -36 -53 -137 -11 -171 15 -13 16 -12 8 6 -5 11 -10
40 -11 65 -3 42 0 38 12 -17 5 -26 41 -63 61 -63 19 0 43 54 43 98 0 30 -7 48
-29 71 -34 36 -40 37 -73 11z"></path>
<path class="node" id="node29" d="M989 1807 c-49 -37 -47 -95 4 -189 34 -62 47 -72 47 -35 0 13 16 46
35 73 41 57 43 83 13 124 -23 32 -43 38 -51 18 -3 -8 -6 -6 -6 5 -1 20 -19 22
-42 4z"></path>

</g>
</svg>