<!--?xml version="1.0" standalone="no"?-->

<svg version="1.0" xmlns="http://www.w3.org/2000/svg" width="300.000000pt" height="300.000000pt" viewBox="0 0 300.000000 300.000000" preserveAspectRatio="xMidYMid meet">
<g transform="translate(0.000000,300.000000) scale(0.100000,-0.100000)" fill="#1D1D1D" stroke="none">
<path class="node" id="node1" d="M923 2262 c-36 -2 -53 -7 -53 -16 0 -8 -3 -27 -6 -44 l-6 -31 38 19
c21 11 51 20 66 20 23 0 28 4 28 24 0 31 -3 32 -67 28z"></path>
<path class="node" id="node2" d="M1040 2260 c-14 -9 1 -58 25 -80 21 -20 26 -21 52 -8 21 11 28 20 26
41 -1 15 2 27 7 27 12 0 31 -36 28 -52 -2 -7 3 -13 10 -12 6 1 21 2 32 3 16 1
20 8 20 41 l0 40 -42 1 c-24 0 -67 1 -96 2 -30 1 -58 0 -62 -3z"></path>
<path class="node" id="node3" d="M1284 2255 c-3 -7 -4 -28 -2 -47 4 -43 32 -45 36 -3 2 17 8 35 13 41
7 8 1 13 -17 17 -15 3 -27 0 -30 -8z"></path>
<path class="node" id="node4" d="M1441 2247 c-5 -14 -10 -17 -15 -9 -10 17 -51 15 -66 -3 -16 -20 -3
-54 23 -59 57 -9 87 -5 102 17 24 34 19 64 -11 70 -19 3 -27 0 -33 -16z"></path>
<path class="node" id="node5" d="M1768 2264 c-4 -3 -4 -13 -1 -21 5 -12 1 -14 -18 -9 -20 6 -21 5 -6
-4 29 -18 21 -50 -13 -57 -21 -4 -40 -19 -58 -45 -15 -22 -37 -52 -49 -68 -30
-37 -29 -42 13 -65 43 -23 100 -87 109 -122 7 -29 -17 -73 -41 -73 -8 0 -19
10 -24 23 -8 18 -9 16 -4 -11 l6 -33 -40 20 c-22 11 -42 27 -46 36 -3 9 -3 49
1 90 7 82 -3 96 -34 48 -10 -16 -37 -54 -60 -87 -24 -32 -43 -61 -43 -65 0 -3
22 -4 49 -3 76 6 131 -31 131 -88 0 -19 -4 -21 -32 -16 -30 5 -31 5 -10 -6 30
-15 28 -22 -12 -36 -46 -17 -79 -3 -110 47 -45 71 -43 73 -158 -94 l-61 -90
47 46 c56 55 121 84 157 70 l24 -10 -24 0 c-51 -2 -144 -80 -176 -148 -13 -26
-17 -69 -18 -174 -2 -128 -1 -138 13 -118 57 87 90 117 176 159 49 24 97 47
106 51 27 14 43 11 64 -12 10 -11 27 -25 37 -31 17 -9 17 -8 4 19 -29 57 -31
91 -5 128 12 19 31 35 41 35 14 0 17 -10 19 -52 l1 -53 6 44 c3 25 11 46 16
48 12 4 55 -57 55 -78 0 -8 -13 -33 -29 -55 -54 -73 -48 -112 22 -129 25 -7
34 -2 71 39 27 28 52 46 66 46 13 0 24 8 27 20 4 14 14 20 34 20 18 0 34 8 41
20 10 15 24 20 61 20 58 0 66 13 42 73 -9 23 -17 68 -18 99 0 51 3 61 39 105
22 26 48 60 57 75 30 48 64 151 71 218 l7 65 -45 -46 c-71 -74 -188 -131 -290
-141 -23 -2 -32 -10 -39 -33 -5 -16 -19 -40 -31 -53 l-21 -24 25 7 c18 4 39
-2 70 -19 25 -14 57 -26 71 -26 43 0 41 -11 -11 -52 -76 -61 -146 -71 -186
-27 -21 23 -6 46 34 52 20 3 17 4 -12 6 l-39 1 23 25 23 25 -36 0 c-41 0 -45
9 -22 55 l15 30 -23 -27 c-12 -16 -26 -28 -30 -28 -4 0 -7 19 -7 42 0 34 10
56 56 125 47 69 55 85 44 98 -7 8 -16 12 -22 9 -5 -3 -4 -11 2 -19 15 -18 -2
-51 -30 -60 -25 -8 -130 15 -130 28 0 5 9 11 20 14 11 3 20 9 20 13 0 5 14 19
31 31 25 18 35 20 55 10 28 -12 30 -9 9 23 -9 13 -16 51 -18 86 -2 58 -13 81
-29 64z m-1 -506 c28 -30 37 -80 23 -122 -13 -39 -33 -51 -61 -36 -10 6 -19
12 -19 13 0 1 -7 20 -15 42 l-14 40 -1 -34 c0 -19 7 -43 17 -53 9 -10 11 -18
6 -18 -6 0 -18 11 -27 25 -38 57 -2 165 54 165 9 0 26 -10 37 -22z m-143 -124
c24 -9 19 -31 -9 -50 -14 -9 -23 -19 -21 -22 3 -2 17 3 32 12 14 10 28 16 30
13 6 -6 -27 -81 -40 -89 -6 -4 -39 -8 -74 -8 -35 0 -72 -5 -83 -10 -26 -14
-25 -1 6 59 41 81 101 117 159 95z m278 -16 c8 -7 25 -29 38 -48 12 -19 34
-45 48 -57 15 -12 23 -25 19 -29 -4 -4 -45 -8 -91 -8 -91 -1 -118 11 -137 63
-15 38 5 54 43 35 16 -9 32 -13 34 -11 3 2 -9 10 -26 17 -36 15 -38 23 -7 38
30 15 60 14 79 0z"></path>
<path class="node" id="node6" d="M1818 2265 c-7 -7 7 -81 21 -115 6 -14 20 -36 31 -50 l22 -24 19 24
c24 32 24 43 -2 35 -34 -11 -71 38 -67 88 3 36 -9 57 -24 42z"></path>
<path class="node" id="node7" d="M1993 2253 c-3 -10 -8 -21 -10 -25 -2 -5 0 -8 4 -8 14 0 34 38 23 45
-6 4 -13 -2 -17 -12z"></path>
<path class="node" id="node8" d="M2086 2223 c9 -68 31 -110 63 -121 43 -15 58 0 37 35 l-17 28 19 -22
c22 -25 32 -21 32 14 0 39 -16 58 -60 73 -22 7 -45 19 -51 27 -21 25 -29 13
-23 -34z"></path>
<path class="node" id="node9" d="M1555 2218 l1 -43 45 -1 c24 0 47 1 50 3 10 4 -69 83 -84 83 -9 0
-13 -13 -12 -42z"></path>
<path class="node" id="node10" d="M2339 2243 c-8 -2 -23 -17 -33 -33 l-17 -30 33 5 c27 5 29 4 12 -4
-30 -13 -38 -29 -24 -46 18 -22 63 -18 96 8 32 24 73 68 74 78 0 3 -21 9 -47
12 -27 3 -55 8 -63 10 -8 3 -22 3 -31 0z"></path>
<path class="node" id="node11" d="M1876 2194 c-9 -24 -2 -26 12 -4 7 11 8 20 3 20 -5 0 -12 -7 -15 -16z"></path>
<path class="node" id="node12" d="M2241 2148 c-20 -90 -69 -129 -176 -139 l-70 -6 79 -2 c68 -1 85 3
122 24 34 20 45 34 57 72 17 55 21 103 8 103 -4 0 -13 -24 -20 -52z"></path>
<path class="node" id="node13" d="M903 2131 c-38 -35 -63 -111 -63 -193 0 -50 3 -58 19 -58 14 0 20 10
25 43 14 91 46 157 99 198 l49 39 -49 0 c-40 0 -54 -5 -80 -29z"></path>
<path class="node" id="node14" d="M1305 2015 c-55 -19 -129 -101 -150 -166 -19 -57 -20 -86 -9 -264 6
-112 5 -123 -15 -163 -43 -84 -123 -105 -202 -52 -53 34 -79 83 -79 145 0 59
50 115 102 115 70 0 133 -71 120 -136 -5 -29 -49 -74 -72 -74 -28 0 -63 45
-58 75 7 34 -13 27 -25 -9 -13 -39 5 -72 48 -93 33 -16 37 -16 70 0 131 62 76
287 -70 287 -83 0 -155 -74 -155 -158 0 -56 28 -128 61 -160 16 -15 29 -29 29
-32 0 -7 -55 -40 -68 -40 -5 0 -12 26 -15 57 -7 65 -29 100 -78 125 -68 35
-154 16 -205 -45 -24 -28 -26 -37 -21 -87 5 -45 12 -60 37 -83 27 -24 38 -28
82 -25 42 2 55 8 71 30 17 23 19 31 9 53 -16 34 -29 32 -29 -5 0 -31 -25 -59
-54 -60 -8 0 -25 10 -37 23 -55 58 -5 157 79 157 32 0 46 -7 79 -40 35 -35 40
-46 40 -86 0 -36 -6 -54 -30 -84 -17 -21 -36 -55 -43 -76 -10 -29 -25 -43 -68
-67 -30 -16 -66 -41 -81 -55 -75 -70 -25 -186 79 -186 29 0 42 7 64 34 23 27
32 31 41 22 7 -7 29 -12 50 -12 36 0 37 -1 28 -26 -21 -53 -4 -130 29 -136 53
-11 103 40 81 82 -19 35 -70 19 -70 -22 0 -10 -4 -18 -10 -18 -5 0 -10 17 -10
38 0 74 76 98 125 41 25 -31 26 -31 43 -13 29 32 103 146 99 151 -3 2 -29 5
-59 6 -42 2 -66 -4 -107 -26 -57 -29 -75 -29 -48 1 10 10 17 22 17 27 0 5 9
19 21 31 16 17 18 26 10 40 -5 11 -12 32 -16 47 -4 20 -16 33 -42 43 -34 14
-38 14 -62 -4 -19 -14 -27 -30 -29 -60 -2 -23 1 -42 5 -42 5 0 9 9 10 21 4 51
52 65 79 24 21 -33 8 -67 -35 -90 -82 -42 -138 84 -74 166 38 49 117 109 160
121 43 12 133 17 133 7 0 -3 -8 -17 -18 -30 -32 -42 -44 -83 -33 -111 21 -56
89 -40 111 26 9 29 8 40 -6 68 -9 18 -24 39 -33 46 -14 11 -14 13 3 27 27 21
32 19 57 -16 68 -96 -3 -244 -108 -224 -24 4 -40 15 -51 36 -20 33 -27 36 -37
12 -4 -13 4 -27 29 -50 31 -29 43 -33 89 -33 47 0 57 4 85 33 40 41 51 96 51
243 -1 86 4 121 20 164 20 53 20 54 1 32 -11 -13 -28 -36 -39 -50 l-20 -27 1
90 c1 50 -2 131 -6 181 -8 86 -7 94 16 145 33 71 90 135 133 150 19 7 35 17
35 21 0 11 -8 10 -55 -7z m-593 -1002 c8 -33 44 -64 93 -83 37 -14 25 -24 -19
-16 -24 5 -44 19 -66 46 -18 22 -40 40 -50 40 -20 0 -46 -27 -36 -37 3 -3 6
-1 6 6 0 18 51 10 63 -10 25 -40 -28 -107 -76 -95 -67 17 -89 92 -39 138 28
27 77 48 101 45 8 -1 18 -16 23 -34z"></path>
<path class="node" id="node15" d="M2380 1321 c-64 -6 -65 -7 -83 -45 -22 -46 -18 -53 20 -30 l28 18
-24 -26 c-28 -33 -21 -48 25 -48 25 0 41 8 60 30 34 37 68 111 51 108 -7 -1
-41 -4 -77 -7z"></path>
<path class="node" id="node16" d="M2050 1277 c0 -17 38 -108 54 -129 16 -23 27 -28 63 -28 36 0 41 3
36 18 -4 9 -14 22 -22 29 -9 7 -11 13 -5 13 5 0 15 -5 22 -12 19 -19 25 -2 13
35 -13 39 -26 47 -75 47 -18 0 -41 7 -52 15 -18 13 -34 19 -34 12z"></path>
<path class="node" id="node17" d="M2241 1198 c-1 -75 -12 -105 -46 -130 -22 -16 -151 -49 -159 -41 -2
2 -2 22 1 44 5 35 3 39 -16 39 -12 0 -21 -6 -21 -16 0 -8 -13 -46 -29 -84
l-29 -68 26 -5 c16 -3 34 1 43 9 8 8 22 14 31 14 8 0 41 9 74 20 98 34 145 95
143 187 -2 82 -17 108 -18 31z"></path>
<path class="node" id="node18" d="M2287 1089 c-26 -15 -40 -58 -26 -75 17 -21 73 -17 113 7 37 22 47
39 21 39 -8 0 -29 9 -47 20 -38 23 -37 23 -61 9z m10 -35 c-3 -3 -12 -4 -19
-1 -8 3 -5 6 6 6 11 1 17 -2 13 -5z"></path>
<path class="node" id="node19" d="M1878 810 c-3 -57 -2 -59 20 -53 13 3 33 -2 47 -11 28 -18 26 -20 44
49 17 63 15 67 -24 44 -29 -17 -38 -19 -50 -9 -8 7 -15 19 -15 26 0 8 -4 14
-9 14 -5 0 -11 -27 -13 -60z"></path>
<path class="node" id="node20" d="M1841 822 c0 -13 -5 -21 -10 -18 -5 3 -8 -2 -7 -12 1 -23 -40 -28
-63 -8 -13 11 -28 13 -66 8 -49 -7 -50 -8 -56 -47 -4 -22 -5 -43 -3 -46 6 -11
137 2 165 16 31 17 52 62 46 101 -3 23 -4 24 -6 6z"></path>
<path class="node" id="node21" d="M990 771 c0 -9 -6 -28 -14 -43 -8 -15 -12 -28 -11 -30 2 -2 22 -2 45
0 36 4 43 9 60 43 11 21 20 40 20 42 0 2 -22 4 -50 4 -40 1 -50 -2 -50 -16z"></path>
<path class="node" id="node22" d="M1364 783 c-6 -2 -9 -15 -6 -29 9 -51 85 -59 111 -12 9 15 13 29 10
32 -7 7 -100 14 -115 9z"></path>
<path class="node" id="node23" d="M1499 781 c-1 -3 0 -18 1 -33 1 -14 -4 -29 -10 -33 -20 -12 -1 -21
38 -17 33 3 42 9 52 32 18 43 9 55 -38 56 -23 0 -42 -2 -43 -5z"></path>
<path class="node" id="node24" d="M712 760 c-10 -17 -10 -20 5 -20 9 0 27 -10 40 -22 13 -12 23 -16 23
-10 0 6 -4 14 -10 17 -5 3 -10 17 -10 31 0 30 -30 33 -48 4z"></path>
<path class="node" id="node25" d="M1155 757 c-16 -8 -39 -24 -49 -36 -19 -21 -19 -21 15 -22 109 -2
221 -1 225 4 3 3 -10 17 -29 31 -42 33 -118 43 -162 23z"></path>
<path class="node" id="node26" d="M1844 716 c-10 -8 -15 -18 -11 -22 4 -4 15 0 24 9 22 21 12 31 -13
13z"></path>
<path class="node" id="node27" d="M695 710 c-7 -11 -8 -11 23 -14 13 -2 22 3 22 11 0 15 -36 18 -45 3z"></path>
</g>
<g transform="translate(0.000000,300.000000) scale(0.100000,-0.100000)" fill="#A1A1A1" stroke="none">

<path class="node" id="node29" d="M1697 1768 c-20 -16 -37 -60 -37 -99 0 -32 26 -79 43 -79 5 0 3 8 -6
18 -10 10 -17 34 -17 53 l1 34 14 -40 c8 -22 15 -41 15 -42 0 -1 9 -7 19 -13
28 -15 48 -3 61 36 14 42 5 92 -23 122 -23 25 -45 28 -70 10z"></path>


<path class="node" id="node32" d="M645 1038 c-49 -17 -85 -57 -85 -94 0 -36 29 -71 67 -80 48 -12 101
55 76 95 -12 20 -63 28 -63 10 0 -7 -3 -9 -6 -6 -10 10 16 37 36 37 10 0 32
-18 50 -40 22 -27 42 -41 66 -46 44 -8 56 2 19 16 -49 19 -85 50 -93 83 -9 36
-23 41 -67 25z"></path>
<path class="node" id="node33" d="M2278 1053 c7 -3 16 -2 19 1 4 3 -2 6 -13 5 -11 0 -14 -3 -6 -6z"></path>
</g>
</svg>