<!--?xml version="1.0" standalone="no"?-->

<svg version="1.0" xmlns="http://www.w3.org/2000/svg" width="300.000000pt" height="300.000000pt" viewBox="0 0 300.000000 300.000000" preserveAspectRatio="xMidYMid meet">
<g transform="translate(0.000000,300.000000) scale(0.100000,-0.100000)" fill="#181818" stroke="none">
<path class="node" id="node1" d="M670 2311 c0 -15 11 -19 71 -24 80 -7 143 -41 161 -87 6 -14 10 -108
9 -224 l-2 -198 27 31 c19 23 34 31 59 31 29 0 34 4 40 30 7 34 45 63 84 66
14 2 28 3 30 3 2 1 -8 10 -23 22 -14 11 -31 30 -37 41 -9 18 -9 18 10 9 11 -6
23 -16 27 -22 10 -17 86 -49 116 -49 59 0 98 38 98 96 0 32 -42 74 -74 74 -34
0 -64 -43 -46 -65 7 -8 21 -15 31 -15 11 0 19 -7 19 -15 0 -10 -10 -15 -29
-15 -31 0 -61 34 -61 69 0 31 47 80 85 87 110 20 175 -108 104 -208 -26 -36
-11 -36 23 0 58 62 63 114 18 181 -17 24 -30 53 -30 65 1 39 47 78 81 69 25
-7 24 -23 0 -23 -25 0 -51 -26 -51 -51 0 -11 14 -28 32 -39 30 -18 44 -19 100
-3 28 7 42 70 26 118 -16 50 -48 67 -112 62 -46 -4 -53 -9 -116 -76 -56 -60
-72 -71 -99 -71 -34 0 -71 15 -71 29 0 4 17 13 38 19 20 7 60 32 87 57 l50 44
-115 -1 c-63 0 -103 -3 -88 -5 35 -5 28 -23 -22 -58 -33 -23 -37 -29 -25 -41
7 -8 16 -27 20 -44 4 -16 11 -32 16 -35 25 -16 6 -27 -37 -22 -75 8 -121 70
-76 103 9 7 26 14 37 14 17 0 17 2 5 10 -18 11 -22 50 -8 68 13 16 -2 16 -36
1 -20 -10 -29 -9 -43 2 -18 15 -18 16 4 -38 5 -12 2 -15 -10 -10 -21 8 -21 3
-1 -18 15 -14 14 -21 -12 -82 -16 -37 -30 -60 -32 -50 -2 9 8 39 22 67 14 27
21 50 16 50 -5 0 -11 -4 -15 -9 -12 -20 -62 10 -90 54 l-28 45 -78 0 c-70 0
-79 -2 -79 -19z m368 -199 c10 -21 3 -122 -9 -122 -4 0 -27 18 -49 39 -33 31
-41 45 -38 67 6 53 73 64 96 16z"></path>
<path class="node" id="node2" d="M1600 2311 c0 -6 4 -12 9 -16 6 -3 13 -25 16 -49 5 -33 2 -52 -13
-83 -26 -50 -44 -65 -89 -72 -36 -6 -36 -7 -38 -58 -4 -100 -67 -145 -190
-136 -38 3 -79 10 -89 15 -17 9 -17 7 3 -26 20 -31 21 -40 11 -70 -6 -19 -25
-54 -43 -78 -22 -31 -34 -60 -40 -103 -19 -142 -19 -138 9 -169 21 -24 36 -30
78 -34 44 -3 54 -1 73 20 36 39 35 100 -2 124 -49 32 -103 -24 -63 -64 16 -16
1 -29 -20 -16 -51 32 -32 102 32 124 45 15 97 -8 126 -55 37 -59 18 -123 -52
-175 -63 -48 -162 -21 -202 54 -11 20 -22 36 -25 36 -3 0 -14 -11 -23 -24 -17
-23 -16 -24 23 -41 78 -35 129 -125 114 -201 -3 -19 -20 -47 -38 -64 l-32 -30
26 0 c14 0 30 5 37 12 21 21 25 -1 7 -39 -40 -85 -88 -122 -140 -109 -31 8
-32 30 -3 50 26 18 17 21 -14 5 -28 -15 -32 -6 -14 29 15 30 7 52 -19 52 -14
0 -58 47 -74 77 -27 53 5 147 55 159 58 15 113 -32 99 -84 -5 -18 -9 -22 -13
-12 -8 25 -45 60 -63 60 -23 0 -39 -22 -46 -64 -5 -30 -1 -40 25 -66 25 -24
39 -30 74 -30 62 0 88 29 88 97 0 46 -4 54 -35 82 -46 40 -105 56 -151 41 -50
-17 -64 -44 -64 -120 0 -53 5 -75 30 -120 89 -162 93 -172 93 -240 0 -66 -19
-128 -50 -162 -14 -15 -14 -18 -1 -18 30 0 88 72 104 129 26 87 28 90 32 32 4
-70 -10 -103 -67 -152 l-46 -41 35 7 c72 14 110 29 131 51 13 13 18 24 11 24
-29 0 -42 32 -40 102 1 68 3 74 62 171 34 55 69 105 78 111 12 7 54 6 141 -2
170 -17 197 -4 197 97 0 25 7 44 19 55 10 10 22 33 25 52 4 19 11 34 16 34 18
0 40 33 40 61 0 16 5 29 13 29 6 0 28 14 47 29 l35 29 -83 80 c-45 44 -83 89
-83 99 -1 10 -2 88 -3 173 -1 85 -5 163 -10 173 -16 33 25 18 70 -26 50 -50
61 -84 42 -124 -10 -21 -21 -28 -41 -28 -29 1 -35 -13 -15 -33 42 -42 108 23
108 105 0 50 -34 137 -69 177 -12 14 -13 20 -3 23 6 3 12 12 12 21 1 23 29 56
61 69 19 8 39 8 79 -3 29 -8 55 -12 57 -10 7 7 -115 46 -207 66 -105 22 -130
24 -130 11z m-60 -595 c0 -8 -9 -34 -19 -59 -30 -71 -102 -113 -118 -69 -4 9
-12 20 -18 24 -19 11 -6 56 23 78 15 12 40 20 63 20 21 0 41 5 44 10 9 15 25
12 25 -4z m-120 -356 c11 -6 25 -29 31 -53 7 -23 17 -48 22 -54 12 -16 -13
-17 -65 -3 -61 17 -102 86 -58 97 11 3 17 9 14 14 -7 12 33 11 56 -1z"></path>
<path class="node" id="node3" d="M1405 1630 c-3 -6 1 -7 9 -4 18 7 21 14 7 14 -6 0 -13 -4 -16 -10z"></path>
<path class="node" id="node4" d="M1782 2208 c-18 -18 -14 -63 7 -82 14 -13 24 -14 45 -7 30 12 35 44
9 61 -16 9 -15 10 7 8 23 -3 25 -8 30 -57 3 -33 10 -56 18 -59 11 -3 12 0 3
16 -13 25 -14 72 -1 92 19 31 -89 57 -118 28z"></path>
<path class="node" id="node5" d="M1954 2169 c-20 -40 -11 -77 22 -85 43 -11 88 47 48 63 -9 3 -25 1
-35 -6 -31 -19 -24 14 9 38 l27 20 -27 1 c-21 0 -31 -8 -44 -31z"></path>
<path class="node" id="node6" d="M2080 2127 c0 -8 16 -25 35 -37 27 -17 35 -28 35 -51 0 -16 -5 -29
-11 -29 -7 0 -17 -8 -24 -17 -11 -15 -15 -14 -39 10 -14 14 -26 35 -26 47 0
20 -1 20 -32 4 -18 -10 -54 -18 -79 -18 l-46 -1 42 -60 c24 -33 54 -85 67
-115 21 -46 60 -195 70 -265 2 -15 12 -21 38 -23 19 -2 40 -10 46 -17 9 -12
17 -6 42 35 40 65 60 65 27 0 -14 -27 -25 -57 -25 -66 0 -22 27 -77 51 -103
19 -20 21 -21 44 -4 28 21 45 54 45 87 0 22 -2 23 -39 13 -50 -13 -72 2 -67
44 2 17 5 31 7 32 2 2 12 8 21 15 14 11 22 10 47 -3 l31 -16 -1 28 c0 47 -26
165 -47 223 -22 58 -22 58 -88 44 -21 -4 -34 -1 -44 11 -11 13 -11 18 -1 24
10 6 9 9 -2 14 -20 8 -27 -1 -27 -34 0 -30 29 -99 41 -99 4 0 9 -7 13 -15 13
-34 -53 29 -70 66 -15 36 -40 58 -28 25 3 -7 -2 -16 -11 -20 -19 -7 -75 44
-75 68 0 21 57 22 80 1 15 -13 19 -11 38 24 23 40 63 70 42 31 -15 -29 -12
-32 15 -14 13 8 29 13 35 9 42 -26 -56 108 -113 154 -15 11 -17 11 -17 -2z
m70 -355 c0 -4 18 -18 40 -32 33 -21 40 -30 40 -57 0 -22 -5 -33 -14 -33 -8 0
-17 -7 -20 -15 -5 -14 -9 -14 -35 -1 -15 8 -31 26 -35 38 -8 31 -8 93 1 101 9
9 23 9 23 -1z"></path>
<path class="node" id="node7" d="M1082 1891 c-21 -13 -11 -85 12 -90 11 -2 26 5 33 15 7 10 16 15 19
11 11 -11 -2 -32 -29 -46 -22 -12 -28 -11 -55 9 -25 19 -37 21 -69 14 l-38 -8
35 -3 c59 -6 76 -12 101 -37 23 -23 25 -23 44 -8 54 45 71 105 37 135 -20 18
-68 22 -90 8z"></path>
<path class="node" id="node8" d="M960 1711 c-17 -32 -12 -69 11 -81 29 -16 52 5 45 42 -7 37 9 36 29
-2 18 -35 9 -60 -30 -86 -27 -18 -52 -13 -83 17 l-22 20 0 -106 c0 -58 2 -105
5 -105 19 0 87 44 103 67 64 92 80 178 41 227 -26 33 -83 37 -99 7z"></path>
<path class="node" id="node9" d="M2157 1500 c-3 -12 -14 -20 -27 -20 -11 0 -19 -4 -15 -10 3 -5 -2
-40 -11 -78 -28 -117 -3 -172 77 -172 40 0 84 28 94 60 8 26 -24 79 -52 86
-43 11 -58 1 -57 -39 1 -36 1 -37 -17 -21 -24 22 -24 35 2 68 15 19 29 26 56
26 l36 0 -20 23 c-11 12 -27 39 -37 60 -20 43 -22 44 -29 17z"></path>
<path class="node" id="node10" d="M2309 1377 c-14 -11 -14 -16 2 -52 13 -29 18 -34 18 -19 1 12 4 36 7
53 7 33 -1 38 -27 18z"></path>
<path class="node" id="node11" d="M2040 1255 c0 -8 9 -19 20 -25 18 -10 19 -9 8 15 -12 27 -28 33 -28
10z"></path>
<path class="node" id="node12" d="M2279 1217 c-35 -40 -38 -42 -96 -42 -54 0 -59 -1 -50 -17 8 -12 8
-24 0 -41 -9 -19 -18 -23 -42 -22 -42 2 -49 11 -53 67 l-3 46 -32 -74 -31 -74
24 6 c18 5 24 2 24 -10 0 -9 7 -16 15 -16 17 0 20 -23 5 -50 -10 -19 -107 -57
-117 -46 -4 3 -1 18 6 32 16 36 8 41 -17 9 l-21 -26 25 -36 c13 -20 24 -50 24
-67 0 -34 -33 -96 -52 -96 -6 0 -9 -3 -6 -6 12 -11 67 26 87 60 23 37 95 107
130 125 16 9 21 21 21 49 0 21 5 43 12 50 9 9 5 12 -20 12 -27 0 -92 23 -92
33 0 1 31 1 69 -1 l69 -4 46 48 c45 47 46 47 35 16 -6 -18 -29 -48 -52 -67
-34 -29 -37 -35 -20 -35 12 0 24 -7 27 -16 5 -14 9 -13 24 7 30 40 108 216
100 224 -2 2 -19 -16 -39 -38z"></path>
<path class="node" id="node13" d="M910 970 c-1 -167 -15 -210 -82 -240 l-43 -20 71 0 c82 0 94 8 125
89 35 92 24 151 -51 274 l-20 32 0 -135z"></path>
<path class="node" id="node14" d="M1825 897 c-49 -53 -50 -127 -2 -127 58 0 91 64 62 119 -18 36 -32
38 -60 8z"></path>
<path class="node" id="node15" d="M2088 895 c-21 -14 -43 -35 -49 -47 -7 -14 6 -6 40 22 46 39 57 50
48 50 -1 0 -19 -11 -39 -25z"></path>
<path class="node" id="node16" d="M1733 833 c-17 -6 -16 -38 2 -73 19 -36 40 -48 72 -42 l25 5 -30 13
c-43 17 -67 56 -52 83 11 21 7 24 -17 14z"></path>
<path class="node" id="node17" d="M1655 790 c3 -5 13 -10 21 -10 8 0 12 5 9 10 -3 6 -13 10 -21 10 -8
0 -12 -4 -9 -10z"></path>
<path class="node" id="node18" d="M1219 744 c-23 -28 -93 -57 -154 -64 -48 -6 -33 -8 73 -9 l132 -1 0
26 c0 14 5 34 10 45 9 17 7 19 -18 19 -16 0 -35 -7 -43 -16z"></path>
<path class="node" id="node19" d="M1312 738 c-7 -7 -12 -25 -12 -40 0 -27 2 -28 45 -28 49 0 63 22 23
35 -21 7 -22 7 -4 12 12 3 25 -2 33 -13 12 -17 14 -17 27 1 13 18 11 21 -16
32 -38 16 -80 17 -96 1z"></path>
<path class="node" id="node20" d="M1509 725 c-26 -14 -45 -43 -34 -53 3 -3 15 4 28 16 27 25 75 29 83
7 7 -18 71 -20 109 -3 36 16 31 24 -19 37 -61 15 -135 13 -167 -4z"></path>
<path class="node" id="node21" d="M670 686 c0 -14 18 -16 158 -14 150 1 153 2 67 9 -49 4 -120 11 -157
14 -59 6 -68 5 -68 -9z"></path>
<path class="node" id="node22" d="M1528 673 c7 -3 16 -2 19 1 4 3 -2 6 -13 5 -11 0 -14 -3 -6 -6z"></path>
</g>
<g transform="translate(0.000000,300.000000) scale(0.100000,-0.100000)" fill="#A2A2A2" stroke="none">

<path class="node" id="node24" d="M969 2137 c-41 -21 -37 -62 11 -108 22 -21 45 -39 49 -39 12 0 19
101 9 122 -14 28 -41 38 -69 25z"></path>
<path class="node" id="node25" d="M1515 1720 c-3 -5 -23 -10 -44 -10 -23 0 -48 -8 -63 -20 -29 -22 -42
-67 -23 -78 6 -4 14 -15 18 -24 16 -44 88 -2 118 69 10 25 19 51 19 59 0 16
-16 19 -25 4z m-85 -84 c0 -2 -7 -7 -16 -10 -8 -3 -12 -2 -9 4 6 10 25 14 25
6z"></path>
<path class="node" id="node26" d="M1364 1361 c3 -5 -3 -11 -14 -14 -44 -11 -3 -80 58 -97 52 -14 77
-13 65 3 -5 6 -15 31 -22 54 -6 24 -20 47 -31 53 -23 12 -63 13 -56 1z"></path>
<path class="node" id="node27" d="M2127 1773 c-9 -8 -9 -70 -1 -101 4 -12 20 -30 35 -38 26 -13 30 -13
35 1 3 8 12 15 20 15 9 0 14 11 14 33 0 27 -7 36 -40 57 -22 14 -40 28 -40 32
0 10 -14 10 -23 1z"></path>
</g>
</svg>