<!--?xml version="1.0" standalone="no"?-->

<svg version="1.0" xmlns="http://www.w3.org/2000/svg" width="300.000000pt" height="300.000000pt" viewBox="0 0 300.000000 300.000000" preserveAspectRatio="xMidYMid meet">
<g transform="translate(0.000000,300.000000) scale(0.100000,-0.100000)" fill="#141414" stroke="none">
<path class="node" id="node1" d="M940 2455 c0 -14 -4 -25 -9 -25 -17 0 -145 -133 -203 -210 -52 -70
-78 -103 -110 -140 -8 -8 -20 -23 -27 -33 -12 -15 -12 -17 5 -11 10 4 45 24
77 46 31 21 57 33 57 28 0 -6 -21 -33 -46 -60 -38 -41 -43 -50 -27 -50 24 0
102 58 132 97 14 20 20 23 21 12 0 -9 -20 -39 -45 -67 -43 -48 -44 -50 -22
-56 36 -10 59 -7 78 9 15 15 17 13 23 -19 4 -22 1 -48 -7 -68 -12 -28 -31 -48
-115 -119 -19 -16 -11 -31 31 -58 25 -17 37 -32 37 -48 0 -13 9 -31 20 -40 11
-10 20 -25 20 -34 0 -9 9 -28 20 -42 12 -14 20 -40 20 -61 0 -23 7 -43 21 -57
23 -23 14 -23 209 -3 l55 5 38 -59 37 -59 0 -134 0 -134 56 0 c51 0 58 -3 88
-36 18 -20 36 -42 38 -50 5 -11 9 -10 22 6 23 30 19 43 -14 50 -37 8 -92 57
-114 102 -21 43 -20 81 4 120 35 59 92 80 163 60 24 -7 27 -5 27 18 0 14 -11
43 -25 65 -54 86 -56 206 -5 282 17 25 30 56 30 75 0 25 13 45 68 100 37 38
87 86 112 107 58 48 32 35 -43 -22 -32 -24 -72 -63 -90 -87 -18 -25 -35 -44
-39 -45 -5 0 -8 25 -8 55 0 54 1 55 29 55 16 0 34 6 40 14 9 11 5 19 -19 40
-34 28 -28 36 8 10 13 -9 26 -14 29 -10 11 11 -33 70 -57 76 -25 6 -25 7 -32
160 -4 85 -10 181 -13 213 l-7 58 -76 -3 -76 -3 -8 -39 c-12 -55 -24 -67 -69
-64 -35 3 -39 6 -39 30 0 17 11 35 31 52 18 15 25 26 16 26 -8 0 -20 -7 -27
-15 -7 -8 -25 -15 -40 -15 -16 0 -30 7 -34 15 -4 12 -26 15 -111 15 l-105 0 0
-25z m239 -42 c34 -33 -1 -15 -44 22 -26 22 -27 24 -6 14 14 -6 36 -23 50 -36z
m-58 10 c12 -14 12 -17 0 -21 -11 -4 -11 -6 0 -13 19 -13 -28 -53 -50 -43 -9
4 -31 12 -48 18 -18 6 -33 14 -33 18 0 13 74 58 96 58 12 0 28 -7 35 -17z m63
-69 c34 -34 8 -84 -44 -84 -16 0 -35 -3 -44 -6 -24 -9 -20 24 7 63 19 28 32
37 59 42 4 0 14 -6 22 -15z m184 -11 l24 -15 -36 -19 c-48 -26 -65 -24 -77 8
-8 22 -7 30 7 40 19 14 45 10 82 -14z m-98 -52 c8 -15 6 -29 -7 -55 -9 -20
-20 -36 -24 -36 -25 0 -51 84 -32 103 14 14 53 6 63 -12z m68 -33 c16 -16 15
-68 -1 -68 -22 0 -57 30 -57 50 0 28 37 39 58 18z m-137 -207 c53 -52 52 -91
-2 -104 -44 -11 -70 23 -67 88 4 67 16 70 69 16z m157 -28 c-3 -27 -8 -55 -11
-63 -5 -11 4 -20 36 -32 23 -10 48 -18 55 -18 23 0 12 -25 -21 -47 -40 -27
-99 -30 -118 -6 -10 12 -11 17 -2 20 7 2 9 11 6 20 -3 8 0 19 8 24 10 6 6 9
-15 9 -23 0 -27 4 -23 19 3 14 1 18 -10 14 -11 -4 -14 2 -11 28 2 28 8 36 36
45 17 5 37 15 44 22 22 22 30 12 26 -35z m-216 -75 c9 -7 19 -23 23 -35 5 -19
2 -23 -17 -23 -17 0 -19 -3 -9 -9 13 -9 10 -13 -22 -24 -14 -5 -31 5 -63 39
-24 25 -42 49 -39 55 9 13 109 11 127 -3z m113 -28 c23 -26 25 -85 3 -106 -15
-15 -18 -15 -34 5 -10 11 -21 16 -24 11 -3 -5 -5 13 -4 42 2 45 14 67 35 68 3
0 14 -9 24 -20z m-68 -62 c-3 -8 -6 -5 -6 6 -1 11 2 17 5 13 3 -3 4 -12 1 -19z
m-22 -38 c0 -8 4 -18 10 -22 6 -4 1 -18 -11 -35 -18 -24 -29 -28 -78 -31 -31
-2 -56 1 -56 6 0 12 49 85 64 95 19 13 71 3 71 -13z m217 -39 c36 -48 36 -49
15 -55 -39 -10 -82 -6 -106 10 -22 16 -23 16 -17 -3 4 -12 -1 -29 -12 -44 -11
-13 -23 -37 -29 -54 l-9 -29 -27 39 c-48 71 -25 149 37 125 35 -13 36 -13 30
4 -8 21 27 56 56 56 19 0 35 -13 62 -49z"></path>
<path class="node" id="node2" d="M1540 2450 c0 -17 7 -44 15 -60 15 -28 19 -30 74 -30 43 0 62 5 74
18 25 28 21 69 -8 88 -31 20 -52 13 -66 -23 -8 -22 -12 -24 -19 -13 -5 8 -7
23 -4 33 4 14 -1 17 -30 17 -33 0 -36 -2 -36 -30z"></path>
<path class="node" id="node3" d="M1756 2448 c4 -18 7 -45 6 -59 -1 -23 4 -28 35 -34 20 -3 59 -17 87
-31 45 -22 52 -23 65 -9 14 13 12 15 -14 15 -17 0 -39 7 -49 15 -17 13 -15 14
28 13 41 0 52 4 82 33 23 22 34 28 34 18 0 -9 -11 -26 -25 -39 -25 -23 -25
-24 -6 -44 10 -12 22 -31 26 -43 5 -20 3 -23 -20 -23 l-27 0 31 -35 c17 -20
31 -41 31 -48 1 -7 7 3 15 21 8 18 28 40 45 50 16 9 30 25 30 34 0 23 50 68
75 68 15 0 12 5 -15 23 -19 13 -44 27 -55 30 -16 6 -16 4 4 -12 l24 -19 -31
-16 c-17 -9 -39 -16 -50 -16 -39 0 -56 46 -27 70 19 15 11 25 -27 34 -25 6
-28 3 -28 -17 0 -15 -9 -29 -26 -38 -23 -12 -27 -12 -41 6 -8 11 -12 30 -10
42 4 19 -2 23 -45 32 -27 6 -67 11 -89 11 l-41 0 8 -32z"></path>
<path class="node" id="node4" d="M2172 2308 c-34 -34 5 -92 40 -61 10 9 18 12 18 6 0 -5 -9 -18 -20
-28 -19 -17 -19 -20 -4 -28 32 -18 66 55 45 99 -12 27 -57 34 -79 12z"></path>
<path class="node" id="node5" d="M2280 2260 c0 -17 -9 -49 -20 -71 -16 -31 -19 -47 -12 -72 5 -18 7
-46 5 -63 -6 -40 36 -84 81 -84 69 0 104 82 50 117 -19 12 -30 14 -43 6 -21
-13 -27 -43 -10 -54 7 -4 10 -11 6 -15 -4 -5 -18 2 -30 14 -20 21 -21 24 -7
50 11 19 28 30 58 36 23 6 42 14 42 18 0 22 -95 148 -112 148 -4 0 -8 -14 -8
-30z"></path>
<path class="node" id="node6" d="M1776 2180 c-27 -30 -36 -49 -36 -74 0 -39 14 -53 35 -36 12 10 15 9
15 -4 0 -21 13 -20 35 4 13 14 16 28 11 57 -4 21 -8 50 -9 66 -1 15 -5 27 -8
27 -4 0 -23 -18 -43 -40z"></path>
<path class="node" id="node7" d="M1570 2143 c1 -21 9 -60 18 -88 15 -42 22 -50 51 -58 43 -11 54 1 36
37 -22 41 -18 45 9 11 l24 -30 7 27 c11 45 -3 67 -60 92 -29 13 -56 29 -59 35
-14 22 -26 10 -26 -26z"></path>
<path class="node" id="node8" d="M2112 2158 c-17 -17 -15 -53 3 -68 23 -19 48 6 40 39 -5 21 -4 23 9
12 41 -34 19 -91 -35 -91 l-27 0 5 -62 c3 -35 7 -64 8 -66 2 -2 13 1 24 8 56
30 90 194 47 226 -24 17 -58 18 -74 2z"></path>
<path class="node" id="node9" d="M1894 2123 c-30 -22 -19 -83 16 -83 20 0 99 64 90 73 -10 10 -95 17
-106 10z"></path>
<path class="node" id="node10" d="M1810 2023 l-25 -18 30 -6 30 -7 -27 -1 c-55 -2 -25 -51 30 -51 38 0
112 20 112 30 0 11 -90 70 -108 70 -10 0 -29 -8 -42 -17z"></path>
<path class="node" id="node11" d="M2226 1974 c-4 -9 -5 -18 -4 -19 2 -1 23 -12 48 -24 57 -28 90 -74
90 -127 -1 -42 -11 -60 -50 -87 -50 -35 -126 -7 -157 58 -16 33 -16 37 0 70
20 42 56 54 92 31 14 -9 25 -26 25 -38 0 -20 -1 -20 -19 -4 -29 26 -65 17 -69
-16 -4 -38 13 -65 46 -73 63 -13 113 37 94 94 -11 33 -66 71 -104 71 -36 0
-83 -24 -92 -45 -20 -54 0 -109 67 -180 15 -16 41 -54 58 -82 17 -29 32 -53
34 -53 9 0 49 48 77 90 40 63 78 188 78 261 0 60 -8 71 -30 44 -17 -21 -74
-29 -101 -14 -13 6 -34 23 -46 36 -26 27 -29 28 -37 7z"></path>
<path class="node" id="node12" d="M1755 1933 c4 -10 9 -27 11 -38 4 -19 4 -19 -5 0 -12 28 -38 48 -51
40 -15 -9 -12 -77 5 -102 14 -20 104 -83 120 -83 4 0 2 7 -5 15 -9 11 -11 32
-6 69 7 66 2 82 -35 101 -36 19 -43 19 -34 -2z"></path>
<path class="node" id="node13" d="M1590 1848 c-11 -12 -20 -31 -20 -43 0 -32 28 -106 50 -135 18 -23
20 -23 20 -5 0 11 14 40 30 64 35 51 38 80 11 112 l-19 24 -10 -35 -10 -35 -1
38 c-1 43 -19 49 -51 15z"></path>
<path class="node" id="node14" d="M2071 1708 c-14 -29 -26 -56 -28 -59 -2 -4 17 -9 42 -11 25 -3 55
-14 67 -24 25 -23 48 -74 48 -109 0 -26 0 -26 25 -8 37 26 27 60 -42 148 -32
41 -65 83 -73 95 -15 21 -16 21 -39 -32z"></path>
<path class="node" id="node15" d="M1476 1639 c-10 -52 -7 -152 7 -178 10 -20 27 -27 100 -42 49 -10
116 -19 149 -20 61 -3 61 -3 75 32 15 38 70 79 107 79 13 0 26 6 29 14 10 25
-3 25 -47 0 -66 -37 -135 -46 -249 -34 -150 17 -147 15 -147 105 0 77 -13 100
-24 44z"></path>
<path class="node" id="node16" d="M2007 1582 c-32 -35 -16 -122 23 -122 34 0 50 12 50 38 0 19 3 23 11
15 17 -17 2 -62 -26 -75 -19 -9 -34 -7 -68 6 -23 9 -55 16 -70 16 -47 0 -97
-34 -97 -66 0 -2 35 -1 78 2 98 8 212 39 235 66 45 53 -2 138 -78 138 -28 0
-47 -6 -58 -18z"></path>
<path class="node" id="node17" d="M944 1387 c-40 -35 -39 -91 5 -168 27 -49 30 -60 21 -84 -6 -16 -8
-47 -4 -70 8 -55 -14 -97 -61 -119 -39 -19 -63 -15 -106 15 -48 33 -46 88 4
132 24 21 27 21 55 1 26 -18 28 -50 5 -76 -19 -21 -5 -24 22 -4 11 8 18 26 18
46 0 44 -32 70 -85 70 -32 0 -47 -7 -75 -35 -33 -33 -35 -39 -29 -81 7 -54 30
-88 73 -109 62 -30 132 -12 173 45 24 34 35 37 44 13 3 -10 8 -23 11 -28 3 -6
-12 -17 -32 -24 -57 -20 -91 -48 -113 -91 -39 -76 -14 -157 57 -186 99 -42
205 54 174 157 -7 21 -20 43 -31 49 -50 27 -111 -5 -109 -57 0 -27 1 -27 11
-7 15 33 51 49 77 35 45 -25 35 -103 -18 -134 -42 -25 -76 -21 -113 12 -28 24
-33 36 -32 71 2 69 65 120 150 120 39 0 51 -5 80 -34 28 -28 34 -41 34 -77 -1
-48 -15 -79 -75 -157 -38 -50 -41 -52 -88 -52 -44 0 -48 -2 -45 -23 l3 -22
418 -3 417 -2 0 25 c0 24 -3 25 -58 25 -75 0 -117 13 -163 50 -44 35 -49 36
-49 11 0 -33 -11 -51 -41 -66 -37 -20 -64 -19 -100 2 -56 33 -57 90 -3 174 24
38 28 55 30 131 2 84 1 89 -26 118 -23 25 -36 30 -72 30 -64 0 -69 -7 -66 -81
3 -58 5 -64 26 -67 46 -7 67 35 35 70 -15 17 -15 18 5 18 12 0 29 -11 37 -24
15 -22 15 -27 0 -55 -12 -24 -27 -34 -60 -43 -46 -12 -54 -25 -55 -83 0 -49
-26 -107 -59 -137 -49 -44 -67 -37 -34 15 31 49 53 117 53 162 0 55 -18 89
-64 116 -49 30 -95 113 -104 186 -11 97 100 168 136 88 14 -31 1 -71 -27 -80
-31 -10 -43 4 -39 41 4 38 -6 44 -22 14 -19 -35 -8 -73 23 -84 66 -23 105 25
106 130 1 60 -25 101 -66 106 -22 2 -29 10 -34 37 -9 44 -28 61 -76 68 -32 4
-45 1 -69 -20z m106 -22 c20 -21 22 -30 14 -53 -10 -30 -51 -43 -65 -21 -4 8
-11 11 -14 7 -12 -12 28 -40 49 -33 46 15 67 17 91 11 41 -10 28 -22 -24 -22
-29 0 -59 -7 -74 -17 -37 -24 -43 -22 -72 26 -31 54 -31 72 0 102 31 32 65 32
95 0z"></path>
<path class="node" id="node18" d="M1366 1254 c-43 -43 -33 -118 21 -158 30 -22 113 -35 113 -17 0 6
-11 11 -25 11 -30 0 -75 41 -75 68 0 32 13 33 32 1 13 -22 25 -29 41 -27 19 3
22 10 25 60 3 49 0 58 -20 72 -35 25 -81 20 -112 -10z"></path>
<path class="node" id="node19" d="M1471 935 c-13 -27 -26 -68 -28 -90 -4 -34 -1 -46 22 -73 35 -42 43
-34 20 19 -18 39 -18 42 -1 73 11 21 16 48 14 77 l-4 44 -23 -50z"></path>
<path class="node" id="node20" d="M1386 701 c-53 -55 -33 -130 35 -131 28 0 59 27 59 51 0 18 -28 59
-40 59 -5 0 -16 -12 -24 -27 l-15 -28 -1 26 c0 17 8 30 25 39 19 10 22 16 14
27 -16 18 -22 17 -53 -16z"></path>
<path class="node" id="node21" d="M1480 680 c8 -5 22 -10 30 -10 13 0 13 1 0 10 -8 5 -22 10 -30 10
-13 0 -13 -1 0 -10z"></path>
</g>
<g transform="translate(0.000000,300.000000) scale(0.100000,-0.100000)" fill="#A3A3A3" stroke="none">

<path class="node" id="node23" d="M1135 2435 c43 -37 78 -55 44 -22 -14 13 -36 30 -50 36 -21 10 -20 8
6 -14z"></path>
<path class="node" id="node24" d="M1027 2415 c-20 -14 -37 -29 -37 -33 0 -4 15 -12 33 -18 17 -6 39
-14 48 -18 22 -10 69 30 50 43 -11 7 -11 9 0 13 12 4 12 7 0 21 -19 24 -50 21
-94 -8z"></path>
<path class="node" id="node25" d="M1140 2364 c-8 -3 -25 -19 -37 -37 -27 -39 -31 -72 -7 -63 9 3 28 6
44 6 33 0 60 23 60 50 0 10 -7 26 -16 34 -16 16 -18 17 -44 10z"></path>
<path class="node" id="node26" d="M1286 2357 c-14 -10 -15 -18 -7 -40 12 -32 29 -34 77 -8 l36 19 -24
15 c-37 24 -63 28 -82 14z"></path>
<path class="node" id="node27" d="M1207 2303 c-19 -19 7 -103 32 -103 4 0 15 16 24 36 13 26 15 40 7
55 -10 18 -49 26 -63 12z"></path>
<path class="node" id="node28" d="M1293 2263 c-20 -8 -15 -40 9 -57 33 -24 48 -20 48 12 0 42 -23 59
-57 45z"></path>
<path class="node" id="node29" d="M1132 2035 c-3 -65 23 -99 67 -88 54 13 55 52 2 104 -53 54 -65 51
-69 -16z"></path>
<path class="node" id="node30" d="M1332 2058 c-7 -7 -27 -17 -44 -22 -28 -9 -34 -17 -36 -45 -3 -26 0
-32 11 -28 11 4 13 0 10 -14 -4 -15 0 -19 23 -19 21 0 25 -3 15 -9 -8 -5 -11
-16 -8 -24 3 -9 1 -18 -6 -20 -9 -3 -8 -8 2 -20 19 -24 78 -21 118 6 33 22 44
47 21 47 -7 0 -32 8 -55 18 -32 12 -41 21 -36 32 11 24 16 110 6 110 -5 0 -14
-5 -21 -12z"></path>
<path class="node" id="node31" d="M1015 1951 c-3 -6 15 -30 39 -55 32 -34 49 -44 63 -39 32 11 35 15
22 24 -10 6 -8 9 9 9 19 0 22 4 17 23 -4 12 -14 28 -23 35 -18 14 -118 16
-127 3z"></path>
<path class="node" id="node32" d="M1212 1931 c-8 -4 -14 -30 -16 -59 -1 -29 1 -47 4 -42 3 5 14 0 24
-11 16 -20 19 -20 34 -5 22 21 20 80 -3 106 -20 22 -24 23 -43 11z"></path>
<path class="node" id="node33" d="M1181 1864 c0 -11 3 -14 6 -6 3 7 2 16 -1 19 -3 4 -6 -2 -5 -13z"></path>
<path class="node" id="node34" d="M1094 1833 c-15 -10 -64 -83 -64 -95 0 -5 25 -8 56 -6 49 3 60 7 78
31 12 17 17 31 11 35 -6 4 -10 14 -10 22 0 16 -52 26 -71 13z"></path>
<path class="node" id="node35" d="M1277 1809 c-10 -11 -16 -27 -13 -35 6 -17 5 -17 -30 -4 -62 24 -85
-54 -37 -125 l27 -39 9 29 c6 17 18 41 29 54 11 15 16 32 12 44 -6 19 -5 19
17 3 24 -16 67 -20 106 -10 21 6 21 7 -15 55 -41 55 -75 64 -105 28z"></path>
<path class="node" id="node36" d="M955 1365 c-31 -30 -31 -48 0 -102 29 -48 35 -50 72 -26 15 10 45 17
74 17 52 0 65 12 24 22 -24 6 -45 4 -91 -11 -21 -7 -61 21 -49 33 3 4 10 1 14
-7 14 -22 55 -9 65 21 8 23 6 32 -14 53 -30 32 -64 32 -95 0z"></path>
</g>
</svg>