<!--?xml version="1.0" standalone="no"?-->

<svg version="1.0" xmlns="http://www.w3.org/2000/svg" width="300.000000pt" height="293.000000pt" viewBox="0 0 300.000000 293.000000" preserveAspectRatio="xMidYMid meet">
<g transform="translate(0.000000,293.000000) scale(0.100000,-0.100000)" fill="#0D0D0D" stroke="none">
<path class="node" id="node1" d="M1446 2449 c-27 -10 -52 -22 -55 -27 -3 -4 -21 -18 -38 -31 -36 -24
-43 -57 -15 -65 9 -2 54 -8 100 -11 45 -4 82 -10 82 -14 0 -4 -12 -14 -27 -21
-28 -13 -27 -14 32 -22 106 -14 254 -71 301 -116 29 -27 68 -92 60 -99 -3 -4
-17 -1 -30 5 -13 6 -45 13 -72 16 l-49 6 50 -25 c28 -14 56 -25 63 -25 27 0
133 -61 173 -100 43 -41 48 -65 7 -36 -40 28 -39 17 2 -21 23 -20 59 -66 80
-102 58 -98 117 -152 173 -158 24 -3 53 0 63 6 16 9 14 10 -17 11 -30 0 -43 8
-73 40 -35 39 -47 62 -97 180 -30 73 -61 113 -106 142 -34 20 -35 23 -16 26
12 2 35 -4 52 -12 39 -21 45 -20 29 2 -23 33 -113 106 -187 152 -39 24 -71 48
-71 52 0 4 18 8 39 8 70 0 79 12 21 27 -29 7 -84 28 -124 47 -116 55 -146 66
-202 72 -82 10 -66 27 21 22 41 -2 75 0 75 4 0 10 -133 38 -181 38 -51 0 -43
11 21 34 l45 15 -40 0 c-22 -1 -62 -9 -89 -20z"></path>
<path class="node" id="node2" d="M1175 2438 c-30 -96 -47 -159 -43 -163 7 -7 158 21 168 31 4 5 1 31
-7 57 -10 35 -23 53 -46 67 -37 23 -66 26 -72 8z"></path>
<path class="node" id="node3" d="M800 2380 c-14 -20 -24 -52 -27 -90 -7 -68 -16 -73 -63 -34 -42 36
-46 26 -10 -24 24 -34 110 -92 135 -92 2 0 -6 25 -20 56 -14 31 -25 62 -25 70
0 22 20 27 39 10 24 -22 31 -20 31 8 0 14 5 37 11 52 10 27 9 27 -9 11 -29
-26 -38 -20 -34 23 2 22 2 40 -1 40 -3 0 -15 -14 -27 -30z"></path>
<path class="node" id="node4" d="M935 2385 c-22 -24 -45 -113 -45 -173 0 -29 -8 -28 -43 6 -31 28 -28
20 13 -43 11 -16 27 -45 36 -63 16 -36 60 -82 77 -82 6 0 2 10 -9 21 -16 18
-19 35 -17 117 1 87 4 99 30 135 15 22 48 50 73 63 41 22 42 24 17 24 -15 0
-46 -12 -68 -26 -48 -30 -60 -24 -37 17 21 36 5 38 -27 4z"></path>
<path class="node" id="node5" d="M1043 2283 c-21 -38 -34 -143 -17 -143 3 0 24 16 47 35 22 19 61 41
86 49 l46 15 -67 -2 -67 -2 -3 44 -3 44 -22 -40z"></path>
<path class="node" id="node6" d="M1339 2226 c65 -70 262 -177 409 -221 84 -26 37 7 -110 75 -27 12
-48 25 -48 30 0 11 26 20 58 20 l27 1 -25 13 c-14 7 -50 19 -80 26 -129 28
-181 43 -217 62 l-38 20 24 -26z"></path>
<path class="node" id="node7" d="M668 2153 c6 -11 25 -26 42 -33 38 -16 38 -25 0 -45 -48 -25 -35 -33
32 -19 34 7 75 10 91 7 70 -14 -21 64 -98 84 -22 6 -48 14 -59 18 -16 7 -17 5
-8 -12z"></path>
<path class="node" id="node8" d="M1107 2100 c-34 -30 -50 -54 -60 -88 -10 -36 -17 -46 -31 -44 -23 4
-85 -17 -118 -40 -25 -17 -28 -26 -28 -74 0 -61 -2 -61 79 -28 68 28 125 7
176 -66 l28 -40 38 34 c21 19 52 42 68 51 17 8 31 18 31 22 0 3 -27 32 -60 64
-47 44 -60 64 -60 87 0 41 28 92 61 111 16 9 29 18 29 21 0 9 -63 30 -87 30
-11 0 -41 -18 -66 -40z"></path>
<path class="node" id="node9" d="M1413 2077 c4 -10 7 -23 7 -29 0 -6 31 -41 69 -77 67 -64 69 -68 76
-126 3 -33 11 -73 16 -89 5 -16 9 -43 10 -60 0 -26 2 -28 9 -11 5 11 9 39 9
61 1 23 10 73 22 110 20 64 20 69 4 79 -65 39 -147 94 -184 124 -31 25 -43 30
-38 18z"></path>
<path class="node" id="node10" d="M1248 2053 c-28 -32 -40 -65 -33 -90 5 -20 9 -23 18 -14 6 6 21 11
34 11 19 0 23 5 23 28 0 15 -5 33 -12 40 -8 8 -8 15 2 27 19 22 -12 20 -32 -2z"></path>
<path class="node" id="node11" d="M696 2023 c-16 -3 -39 -10 -50 -18 -12 -7 -33 -15 -48 -19 -43 -10
-37 -45 17 -95 60 -55 91 -55 139 1 43 49 50 110 17 128 -20 10 -24 10 -75 3z"></path>
<path class="node" id="node12" d="M1680 1987 c0 -3 9 -24 19 -48 19 -43 34 -189 19 -189 -4 0 -14 10
-23 23 -16 21 -16 17 -10 -66 4 -49 13 -100 21 -115 21 -41 18 -59 -6 -37 -24
22 -25 17 -5 -32 22 -59 36 -157 30 -215 l-5 -53 20 40 c11 22 20 54 20 70 1
27 2 28 14 13 42 -56 33 9 -37 244 -13 43 -3 60 17 32 23 -31 29 1 16 97 -14
115 -13 156 2 141 29 -29 27 -9 -2 28 -27 34 -90 80 -90 67z"></path>
<path class="node" id="node13" d="M1852 1888 c-47 -60 -62 -179 -43 -343 10 -85 17 -109 52 -172 47
-84 90 -122 156 -134 42 -8 79 -27 70 -36 -2 -2 -23 4 -47 12 -84 30 -411 1
-490 -42 -67 -37 -80 -51 -116 -129 -20 -44 -45 -81 -65 -97 l-34 -26 29 -30
c24 -25 32 -28 49 -19 31 16 96 3 126 -26 l28 -26 18 20 c23 26 89 44 135 36
30 -5 37 -2 45 17 6 12 26 31 46 41 l36 19 84 -41 c75 -37 96 -43 194 -52 61
-5 160 -10 221 -10 92 0 116 3 134 18 l22 18 -22 127 c-12 71 -28 147 -36 169
-8 22 -14 49 -14 59 0 71 -92 208 -295 438 -55 63 -110 128 -122 144 -44 60
-135 96 -161 65z"></path>
<path class="node" id="node14" d="M1336 1841 c-19 -21 -19 -22 -1 -35 19 -13 19 -15 1 -54 -10 -22 -15
-48 -12 -58 9 -30 -8 -47 -40 -41 -16 3 -49 1 -73 -5 -34 -9 -46 -8 -49 0 -6
18 -27 15 -45 -6 -27 -29 -22 -98 8 -127 20 -21 34 -25 84 -25 51 0 64 -4 85
-25 14 -14 32 -25 41 -25 17 0 20 16 5 25 -25 16 -8 54 49 108 33 32 62 57 66
57 3 0 19 -7 35 -15 28 -14 30 -14 30 1 0 10 -7 25 -15 34 -9 10 -19 50 -24
95 -5 45 -15 84 -24 92 -8 9 -35 17 -58 20 -36 4 -48 1 -63 -16z"></path>
<path class="node" id="node15" d="M636 1812 c-17 -39 -21 -61 -17 -102 l2 -25 11 25 c10 24 11 23 20
-20 5 -25 15 -51 23 -58 10 -11 13 2 17 70 5 80 0 108 -27 135 -10 9 -16 4
-29 -25z"></path>
<path class="node" id="node16" d="M935 1782 c-42 -13 -46 -16 -25 -20 14 -2 33 -13 43 -23 22 -24 38
-21 52 9 5 12 17 22 25 22 12 1 11 4 -4 15 -24 18 -28 18 -91 -3z"></path>
<path class="node" id="node17" d="M1256 1761 c-69 -55 -101 -112 -53 -95 12 4 41 7 65 7 42 -1 43 0 37
28 -4 17 0 39 10 58 15 29 14 31 -3 31 -11 0 -36 -13 -56 -29z"></path>
<path class="node" id="node18" d="M722 1688 c-11 -57 -10 -77 3 -127 8 -32 15 -68 15 -80 0 -19 10 -45
50 -136 l18 -40 8 44 7 44 22 -59 c26 -73 64 -133 105 -167 33 -29 56 -35 47
-14 -9 21 -44 110 -68 172 -18 46 -81 153 -116 195 -2 2 -8 -2 -13 -10 -14
-22 -41 54 -54 155 l-12 90 -12 -67z"></path>
<path class="node" id="node19" d="M854 1626 c12 -19 28 -58 34 -88 6 -29 24 -84 41 -122 26 -56 34 -67
49 -60 9 4 63 10 120 12 89 3 103 6 100 20 -3 13 -20 18 -81 23 -100 8 -132
32 -183 134 -41 82 -67 115 -89 115 -11 0 -9 -9 9 -34z"></path>
<path class="node" id="node20" d="M1550 1525 c0 -26 -44 -82 -92 -117 -26 -18 -34 -19 -50 -9 -30 19
-33 6 -9 -33 14 -22 41 -45 76 -61 l54 -27 42 24 c56 30 80 65 82 116 1 37 -4
47 -43 87 -51 52 -60 55 -60 20z"></path>
<path class="node" id="node21" d="M1134 1271 c16 -17 38 -33 48 -37 23 -7 24 -24 1 -24 -23 0 -170 55
-188 70 -8 7 -15 8 -15 3 0 -19 32 -52 84 -87 68 -45 109 -94 126 -149 7 -23
22 -62 33 -87 l22 -45 6 47 c9 56 37 117 61 132 13 8 24 7 39 -2 11 -7 23 -11
27 -8 12 13 -22 90 -51 117 -28 26 -130 75 -197 94 l-25 7 29 -31z"></path>
<path class="node" id="node22" d="M1798 885 c-8 -19 -7 -36 5 -77 9 -29 18 -66 19 -83 2 -20 9 -31 22
-33 25 -5 44 14 28 30 -15 15 -16 84 -2 93 6 4 22 0 35 -9 35 -23 38 -20 30
22 -10 53 -40 82 -87 82 -31 0 -41 -5 -50 -25z"></path>
<path class="node" id="node23" d="M1278 888 c-24 -19 -25 -37 -4 -90 11 -29 16 -59 13 -77 -4 -17 -2
-33 3 -36 18 -11 60 42 62 77 6 113 -24 164 -74 126z"></path>
<path class="node" id="node24" d="M1653 844 c-45 -19 -53 -40 -53 -143 0 -82 2 -91 22 -105 12 -9 31
-16 41 -16 16 0 18 5 12 28 -16 61 -16 117 -2 137 15 20 15 20 37 0 30 -27 43
-53 50 -100 l6 -40 17 32 c19 35 23 117 7 157 -10 27 -65 66 -90 65 -8 0 -29
-7 -47 -15z"></path>
<path class="node" id="node25" d="M1418 834 c-48 -26 -72 -112 -46 -169 14 -32 28 -32 28 -1 0 42 18
78 38 74 20 -4 60 -73 61 -105 1 -28 22 -30 44 -5 26 29 22 107 -8 158 -38 64
-67 76 -117 48z"></path>
<path class="node" id="node26" d="M1214 754 c-13 -46 -14 -61 -3 -87 17 -45 29 -55 29 -26 0 13 7 37
16 54 13 25 13 37 3 72 -6 24 -15 43 -20 43 -5 0 -16 -25 -25 -56z"></path>
<path class="node" id="node27" d="M1880 768 c0 -18 9 -46 20 -63 11 -16 20 -46 20 -65 1 -42 14 -24 24
33 8 42 -15 101 -45 118 -17 9 -19 6 -19 -23z"></path>
<path class="node" id="node28" d="M1687 723 c-12 -11 -8 -64 8 -96 8 -18 16 -50 17 -72 l4 -40 12 28
c30 69 -4 218 -41 180z"></path>
<path class="node" id="node29" d="M1426 683 c-13 -84 -1 -160 29 -170 17 -5 17 144 0 177 -9 17 -17 30
-19 30 -2 0 -6 -17 -10 -37z"></path>
</g>
<g transform="translate(0.000000,293.000000) scale(0.100000,-0.100000)" fill="#A1A1A1" stroke="none">

</g>
</svg>