<!--?xml version="1.0" standalone="no"?-->

<svg version="1.0" xmlns="http://www.w3.org/2000/svg" width="185.000000pt" height="300.000000pt" viewBox="0 0 185.000000 300.000000" preserveAspectRatio="xMidYMid meet">
<g transform="translate(0.000000,300.000000) scale(0.100000,-0.100000)" fill="#101010" stroke="none">
<path class="node" id="node1" d="M715 2913 c-55 -77 -203 -365 -285 -556 -23 -53 -47 -100 -53 -104
-5 -3 -16 2 -23 11 -11 16 -13 16 -20 -6 -4 -13 -7 -90 -7 -173 1 -155 13
-244 53 -393 l22 -83 22 20 c52 49 163 2 195 -81 8 -20 17 -28 36 -28 32 0 32
5 -6 48 -43 48 -71 114 -79 187 -4 33 -19 86 -32 118 -27 61 -46 88 -34 47 4
-14 10 -48 13 -77 5 -46 3 -54 -21 -78 -25 -25 -29 -26 -49 -12 -39 25 -71
121 -75 224 -3 82 -1 98 22 148 16 35 33 59 46 62 11 3 20 13 20 23 0 30 66
242 108 345 49 122 128 288 177 373 20 34 34 62 31 62 -3 0 -30 -35 -61 -77z"></path>
<path class="node" id="node2" d="M1158 2825 c91 -184 175 -395 209 -525 20 -78 33 -110 51 -124 77
-61 84 -246 13 -383 -27 -54 -50 -62 -80 -27 -20 25 -23 35 -18 83 3 31 9 67
12 81 3 14 -5 3 -19 -25 -13 -27 -33 -91 -44 -142 -26 -110 -54 -175 -93 -207
-30 -26 -28 -36 7 -36 18 0 28 11 43 45 32 73 130 108 183 65 l25 -19 21 77
c36 133 52 248 53 395 1 152 -7 212 -23 183 -5 -9 -14 -16 -21 -16 -7 0 -59
104 -116 231 -101 223 -192 392 -246 454 -17 20 -3 -15 43 -110z"></path>
<path class="node" id="node3" d="M473 2792 c-100 -76 -240 -221 -300 -314 -44 -67 -112 -217 -113
-245 0 -9 8 -9 31 -1 26 9 35 7 57 -9 35 -26 45 -71 39 -170 -9 -145 -56 -199
-117 -133 -30 32 -30 32 -30 8 0 -95 107 -266 232 -374 66 -57 94 -73 85 -50
-10 25 26 20 92 -14 32 -16 79 -34 103 -40 40 -10 48 -9 81 12 20 13 36 26 37
31 0 4 -24 7 -53 7 -145 0 -296 89 -393 230 -47 69 -52 100 -17 100 16 0 18
11 15 123 -2 95 1 144 17 217 12 51 19 95 17 97 -2 3 -7 -4 -10 -15 -9 -27
-32 -34 -47 -16 -18 22 -5 86 34 169 57 119 155 252 286 388 30 31 50 57 44
57 -6 0 -47 -26 -90 -58z"></path>
<path class="node" id="node4" d="M1322 2803 c227 -236 388 -519 324 -572 -11 -9 -18 -8 -30 4 -9 9
-16 21 -16 26 0 5 -4 9 -10 9 -5 0 -3 -17 4 -39 25 -68 38 -184 34 -294 -3
-94 -1 -107 13 -107 73 0 -48 -171 -185 -263 -55 -36 -155 -67 -222 -67 -30 0
-54 -3 -54 -7 1 -5 17 -18 37 -31 43 -28 65 -25 176 26 66 30 82 34 98 24 17
-11 26 -8 62 17 63 44 141 128 182 196 36 61 75 172 75 216 0 23 -1 22 -19 -8
-34 -56 -91 -56 -111 0 -6 18 -14 77 -16 132 -6 110 3 139 47 164 22 12 29 12
57 -2 l32 -15 -6 41 c-14 92 -73 207 -161 313 -64 79 -315 284 -347 284 -6 0
10 -21 36 -47z"></path>
<path class="node" id="node5" d="M757 2059 c-82 -101 -106 -202 -67 -288 l20 -44 28 26 c34 32 51 34
86 6 21 -16 26 -17 26 -5 0 20 -48 56 -74 56 -12 0 -31 -7 -42 -15 -24 -18
-31 -18 -38 0 -9 24 12 68 29 61 11 -4 15 2 15 27 0 41 22 122 44 165 28 53
13 59 -27 11z"></path>
<path class="node" id="node6" d="M1055 2074 c36 -88 47 -126 48 -172 2 -40 5 -51 16 -47 18 7 31 -12
31 -47 0 -32 -6 -34 -34 -13 -30 23 -70 18 -100 -11 -36 -37 -33 -50 8 -25 42
27 48 26 84 -4 l30 -25 17 36 c26 55 29 106 11 162 -20 60 -62 126 -96 149
-22 16 -23 16 -15 -3z"></path>
<path class="node" id="node7" d="M745 1709 c-48 -28 -70 -91 -45 -129 8 -12 10 -10 8 10 -4 38 27 38
48 -1 37 -73 37 -127 -2 -112 -25 9 -15 -12 24 -49 20 -20 51 -42 67 -48 44
-17 135 -16 171 3 26 13 104 89 104 101 0 2 -11 1 -24 -1 -36 -7 -40 22 -12
83 27 59 52 70 58 27 4 -26 5 -25 12 11 10 44 3 60 -38 90 -27 21 -64 24 -186
16 -19 -1 -64 1 -100 4 -43 4 -72 3 -85 -5z m151 -80 l23 -21 29 21 c62 44 86
22 80 -74 -3 -46 -27 -77 -29 -38 -1 10 -5 -4 -9 -30 -5 -27 -16 -57 -26 -68
-41 -45 -103 -1 -105 75 -1 22 -3 33 -6 23 -10 -37 -28 -9 -31 47 -4 84 26
110 74 65z"></path>
<path class="node" id="node8" d="M1644 1495 c-103 -103 -234 -139 -357 -97 l-58 19 27 -28 c55 -57
207 -119 294 -119 33 0 35 2 35 33 0 26 4 33 23 35 88 13 181 -116 153 -210
-11 -36 -19 -43 -48 -39 -8 1 -13 -11 -13 -34 0 -61 -29 -182 -64 -263 -38
-91 -88 -172 -162 -263 -30 -36 -54 -69 -54 -72 0 -3 10 -7 23 -9 19 -3 22 -8
21 -49 -2 -44 -51 -160 -74 -174 -6 -4 -22 -23 -35 -43 -13 -21 -34 -50 -46
-67 l-23 -30 35 30 c112 98 213 262 321 520 26 63 38 81 56 83 22 3 27 -7 24
-53 l-2 -20 16 20 c28 34 72 139 90 211 21 91 21 275 -1 369 -19 83 -46 158
-79 223 -44 85 -44 85 -102 27z"></path>
<path class="node" id="node9" d="M117 1498 c-73 -128 -110 -275 -110 -443 1 -140 21 -232 77 -344 35
-68 54 -93 41 -51 -8 24 11 60 30 60 17 0 35 -32 69 -124 41 -108 133 -279
195 -362 59 -79 127 -151 135 -143 2 2 -29 48 -70 102 -99 131 -134 247 -76
255 12 2 22 5 22 8 0 2 -21 30 -47 62 -64 78 -129 181 -164 258 -35 76 -69
211 -69 273 0 33 -3 42 -14 38 -23 -9 -46 16 -53 56 -8 52 19 118 68 162 33
30 47 36 77 33 34 -3 37 -5 37 -35 0 -32 1 -33 41 -33 78 0 220 58 291 119 33
28 28 34 -9 14 -25 -13 -56 -18 -123 -18 -81 0 -96 3 -150 32 -34 17 -84 52
-112 77 -28 25 -53 46 -56 46 -3 0 -16 -19 -30 -42z"></path>
<path class="node" id="node10" d="M535 1307 c-217 -197 -282 -286 -293 -400 -5 -57 -4 -61 11 -48 23
18 71 8 113 -24 46 -35 135 -174 173 -271 24 -61 31 -93 29 -130 -3 -48 -4
-49 -35 -49 -18 0 -33 -5 -33 -11 0 -5 28 -52 63 -103 63 -92 154 -193 212
-234 l30 -22 -23 30 c-12 17 -47 62 -77 100 -54 68 -69 101 -81 177 -6 34 -4
38 14 38 12 0 30 -14 43 -32 32 -45 34 -23 5 80 -48 170 -109 315 -190 453
-38 65 -39 66 -65 53 -40 -21 -65 1 -69 59 -4 56 10 85 48 99 22 7 33 21 46
59 17 45 57 103 152 219 52 62 26 47 -73 -43z"></path>
<path class="node" id="node11" d="M1235 1360 c5 -8 36 -49 70 -91 34 -41 72 -101 85 -133 17 -40 31
-58 46 -62 52 -13 75 -122 35 -158 -18 -17 -22 -17 -50 -3 l-31 15 -39 -66
c-53 -93 -73 -133 -115 -239 -42 -107 -96 -279 -96 -308 1 -17 5 -15 28 13 37
45 52 42 52 -12 0 -56 -45 -144 -116 -225 -30 -34 -54 -65 -54 -67 0 -3 18 9
40 26 66 52 157 159 215 251 l53 86 -36 -1 -37 -1 0 65 c1 52 8 80 34 140 40
90 118 207 161 243 37 31 94 45 115 27 13 -11 15 -7 15 24 0 49 -31 134 -68
188 -16 24 -59 73 -95 109 -74 74 -226 202 -212 179z"></path>
<path class="node" id="node12" d="M720 1343 c-96 -33 -141 -92 -161 -209 -11 -61 -10 -84 5 -159 32
-164 87 -266 210 -390 94 -96 130 -108 204 -71 28 14 82 57 119 94 111 110
173 250 194 433 11 98 10 107 -10 161 -15 39 -35 69 -64 93 -38 33 -117 65
-159 65 -29 0 -21 -15 15 -28 77 -28 167 -135 167 -200 0 -44 -16 -72 -40 -72
-24 0 -75 68 -86 113 l-8 32 -7 -45 c-4 -25 -8 -79 -8 -121 -2 -146 -40 -276
-106 -364 -35 -45 -35 -45 -10 -39 19 5 25 2 25 -9 0 -26 -50 -77 -75 -77 -25
0 -75 51 -75 77 0 11 6 14 27 9 l26 -7 -33 37 c-67 76 -109 216 -111 362 -1
99 -13 175 -23 147 -17 -48 -45 -91 -69 -105 -66 -38 -78 70 -17 159 36 52 97
98 143 108 15 3 27 9 27 14 0 14 -50 10 -100 -8z"></path>
<path class="node" id="node13" d="M843 1313 c-36 -5 -41 -18 -19 -49 34 -47 43 -161 13 -151 -6 2 -17
23 -23 48 l-12 44 -1 -65 c-1 -159 41 -347 94 -417 22 -28 29 -32 42 -22 21
18 59 96 77 159 17 63 40 271 34 315 -4 28 -5 27 -13 -13 -8 -47 -22 -62 -37
-41 -14 21 -1 96 24 140 12 21 19 41 16 45 -8 8 -154 13 -195 7z"></path>
</g>
<g transform="translate(0.000000,300.000000) scale(0.100000,-0.100000)" fill="#A8A8A8" stroke="none">

<path class="node" id="node15" d="M831 1636 c-15 -18 -10 -128 6 -133 6 -2 13 4 16 14 3 10 5 -1 6 -23
2 -76 64 -120 105 -75 10 11 21 41 26 68 4 26 8 40 9 30 2 -39 26 -8 29 38 6
96 -18 118 -80 74 l-29 -21 -23 21 c-26 24 -49 27 -65 7z"></path>
</g>
</svg>