<!--?xml version="1.0" standalone="no"?-->

<svg version="1.0" xmlns="http://www.w3.org/2000/svg" width="300.000000pt" height="300.000000pt" viewBox="0 0 300.000000 300.000000" preserveAspectRatio="xMidYMid meet">
<g transform="translate(0.000000,300.000000) scale(0.100000,-0.100000)" fill="#1A1A1A" stroke="none">
<path class="node" id="node1" d="M1535 2722 c-140 -92 -331 -286 -450 -455 -139 -198 -149 -211 -178
-225 -41 -20 -65 -7 -78 41 -11 40 -8 115 7 167 15 52 -24 1 -51 -68 -21 -51
-28 -90 -32 -167 -5 -82 -9 -104 -26 -122 -40 -44 -97 -22 -97 36 0 12 -4 21
-10 21 -17 0 -22 -68 -9 -119 11 -44 10 -55 -5 -89 -14 -31 -16 -52 -11 -91 6
-43 3 -57 -21 -101 -35 -64 -115 -140 -147 -140 -29 0 -44 16 -63 67 -14 36
-14 32 -8 -59 7 -109 -2 -138 -42 -138 -19 0 -29 7 -37 30 -6 17 -15 30 -20
30 -18 0 1 -89 32 -152 37 -76 37 -82 11 -131 -36 -67 -22 -248 17 -224 6 4
16 27 23 52 10 37 24 54 75 94 51 40 64 56 70 87 13 73 20 77 64 33 21 -21 48
-39 60 -39 21 0 21 1 6 30 -8 16 -15 38 -15 50 0 15 -6 20 -26 20 -22 0 -25 2
-14 15 7 8 23 15 36 15 13 0 34 5 48 11 20 10 28 8 47 -10 28 -26 42 -27 35
-3 -22 78 -21 82 33 132 28 26 86 66 130 89 43 22 81 48 85 56 3 8 15 15 26
15 22 0 25 -17 21 -100 -2 -45 -37 -176 -51 -195 -4 -5 -10 -34 -14 -63 -4
-30 -18 -84 -32 -120 -14 -37 -30 -85 -35 -107 -11 -43 -53 -115 -76 -128 -7
-4 -13 -17 -13 -28 0 -21 0 -21 33 -1 17 11 46 23 63 26 45 10 61 32 89 127
14 46 41 115 59 154 19 38 37 86 41 105 12 60 42 99 171 223 69 66 123 125
121 131 -6 18 -75 25 -82 8 -5 -13 -8 -12 -23 2 -27 23 -46 21 -30 -4 18 -28
2 -37 -25 -13 -24 22 -96 63 -111 63 -5 0 7 -12 26 -27 37 -28 68 -71 68 -93
0 -7 -16 2 -35 19 -46 40 -59 39 -36 -1 19 -33 35 -88 27 -88 -3 0 -17 12 -31
27 l-25 28 10 -34 c11 -39 7 -66 -20 -131 -10 -25 -25 -63 -33 -85 -84 -225
-112 -291 -127 -300 -14 -9 -13 0 6 43 36 83 96 273 115 361 34 166 18 296
-41 326 -88 45 -248 -11 -365 -128 -71 -71 -175 -216 -175 -244 0 -8 -6 -13
-12 -10 -9 2 -14 27 -14 70 l-2 67 58 35 c54 33 150 126 150 145 0 5 14 11 31
15 47 10 89 60 147 176 102 199 232 362 359 449 47 33 51 38 56 85 11 97 90
219 237 366 58 58 118 115 135 127 16 11 28 23 25 25 -3 3 -50 -24 -105 -61z
m-281 -294 c-5 -7 -27 -38 -50 -68 -23 -31 -55 -83 -70 -118 -26 -57 -54 -82
-54 -49 0 45 140 247 171 247 6 0 7 -6 3 -12z m-490 -684 c-21 -49 -56 -102
-73 -109 -9 -4 -11 0 -7 11 3 8 6 30 6 47 1 25 9 38 38 59 49 35 54 34 36 -8z
m184 -191 c20 -40 -19 -83 -113 -127 -57 -26 -84 -47 -139 -109 -38 -42 -78
-79 -89 -83 -31 -10 -65 -12 -77 -4 -17 10 7 53 25 46 10 -3 15 6 17 32 2 29
8 38 25 40 15 2 23 -4 29 -20 7 -22 7 -22 15 -3 4 11 8 35 8 53 2 72 63 124
77 65 7 -25 8 -25 20 -8 8 11 14 30 14 43 0 30 53 84 74 76 10 -4 16 -18 16
-36 0 -36 15 -29 35 18 16 38 48 46 63 17z m-549 -376 c13 -61 9 -80 -27 -119
-34 -37 -46 -35 -27 2 12 23 14 46 9 94 -12 112 21 129 45 23z"></path>
<path class="node" id="node2" d="M1885 2419 c-16 -6 -66 -21 -110 -36 -90 -29 -188 -78 -289 -147 -38
-25 -75 -47 -82 -47 -8 -1 -20 -2 -26 -3 -7 0 -13 -14 -13 -30 0 -46 48 -69
154 -74 76 -4 89 -2 113 18 l28 21 -26 38 c-22 34 -23 41 -13 65 19 41 134
122 221 156 43 17 84 30 92 30 8 0 18 5 21 10 8 12 -30 12 -70 -1z m-295 -189
c-5 -17 -4 -44 1 -66 6 -20 8 -39 4 -42 -9 -9 -114 -9 -147 1 -16 4 -28 13
-28 20 0 11 155 116 172 117 4 0 3 -13 -2 -30z"></path>
<path class="node" id="node3" d="M1280 2213 c-201 -136 -310 -252 -310 -329 0 -40 13 -51 78 -64 l51
-11 3 -47 c3 -41 7 -49 34 -62 29 -14 31 -18 26 -56 -3 -34 -1 -43 19 -56 13
-8 47 -17 76 -20 118 -11 232 -106 334 -278 l51 -85 -6 55 c-21 211 -14 309
25 380 23 41 64 70 101 71 l23 0 -25 11 c-14 6 -43 17 -65 26 -77 30 -125 66
-146 109 -36 74 -5 141 84 178 20 8 37 16 37 18 0 1 -45 1 -99 -1 -115 -5
-188 13 -221 55 -28 36 -25 71 10 126 16 26 26 47 22 46 -4 0 -50 -30 -102
-66z m57 -144 c13 -15 42 -35 64 -44 25 -12 36 -22 30 -28 -25 -25 -161 78
-161 122 0 31 14 33 28 4 8 -15 25 -40 39 -54z m-107 16 c0 -53 -8 -56 -38
-16 l-22 30 22 15 c33 24 38 20 38 -29z m46 -13 c8 -20 31 -54 51 -74 39 -40
39 -54 -2 -44 -32 8 -71 69 -80 125 -9 52 7 49 31 -7z m-98 -1 c17 -10 42 -95
42 -142 0 -61 -17 -54 -23 9 -2 32 -14 77 -26 100 -21 41 -19 50 7 33z m-31
-109 l12 -87 -3 77 c-3 87 7 93 24 15 17 -73 12 -90 -29 -98 -32 -7 -34 -5
-57 45 -28 59 -30 88 -9 106 8 7 16 11 16 9 1 -2 7 -35 14 -74 l13 -70 -5 90
c-7 112 8 104 24 -13z m228 36 c14 -6 25 -15 25 -20 0 -15 -27 -8 -45 12 -21
23 -16 25 20 8z m-97 -85 c-37 -16 -48 -6 -48 43 0 47 11 48 47 7 l33 -37 -32
-13z m226 45 c-4 -18 -7 -44 -6 -58 2 -31 32 -100 44 -100 4 0 8 -4 8 -10 0
-17 -25 0 -47 33 -29 42 -48 134 -32 153 6 8 18 14 26 14 11 0 13 -7 7 -32z
m-442 -68 c7 0 7 5 -1 13 -6 8 -8 17 -5 20 4 3 17 -10 31 -30 24 -36 23 -64
-2 -30 -8 11 -15 13 -17 7 -6 -18 -38 0 -44 26 -9 35 8 54 19 21 5 -15 13 -27
19 -27z m357 -11 c8 -33 22 -77 32 -97 22 -43 22 -42 7 -42 -18 1 -44 39 -68
99 -28 72 -26 95 10 100 3 1 12 -26 19 -60z m64 -71 c23 -52 25 -68 7 -68 -12
0 -47 92 -53 140 -6 45 -6 45 8 15 7 -16 25 -56 38 -87z m-123 70 c-1 -31 -1
-32 -15 -14 -19 25 -19 46 0 46 10 0 15 -10 15 -32z m-68 -78 c2 -47 0 -65 -9
-65 -7 0 -13 3 -13 8 0 4 0 37 0 74 0 86 18 72 22 -17z m-62 35 c0 -9 -8 -30
-17 -48 l-18 -32 -3 39 c-2 24 2 42 10 47 20 13 28 11 28 -6z m116 -79 c5 -22
3 -26 -15 -26 -19 0 -21 5 -20 58 1 57 1 57 14 26 8 -17 17 -43 21 -58z m-96
24 c0 -43 -3 -50 -20 -50 -11 0 -20 3 -20 7 0 9 34 93 38 93 1 0 2 -22 2 -50z
m-75 -38 c-3 -3 -13 2 -22 11 -14 14 -15 20 -3 44 l13 28 9 -39 c4 -21 6 -41
3 -44z m214 39 c17 -21 31 -42 31 -45 0 -12 -51 -6 -54 7 -2 6 -8 27 -14 45
-14 43 0 41 37 -7z m151 -16 c10 -12 10 -15 -3 -15 -8 0 -17 7 -21 15 -3 8 -2
15 3 15 5 0 14 -7 21 -15z m110 -54 c0 -5 -12 -29 -26 -55 -20 -35 -27 -66
-31 -126 -9 -127 -23 -93 -21 50 1 72 6 130 10 130 4 0 9 -12 9 -27 1 -21 2
-23 6 -8 7 30 53 61 53 36z m-120 -21 c0 -24 17 -27 22 -3 2 9 4 -47 4 -125 1
-78 -2 -142 -7 -142 -20 0 -29 45 -25 128 2 48 1 67 -3 42 -5 -39 -7 -42 -13
-20 -4 14 -8 51 -8 83 0 44 3 57 15 57 8 0 15 -9 15 -20z m-177 -14 c-17 -30
-55 -76 -63 -76 -11 0 19 82 33 92 15 9 38 -2 30 -16z m130 -53 c2 -43 3 -79
2 -81 -2 -2 -13 27 -25 65 -13 37 -25 74 -28 81 -2 7 5 12 21 12 23 0 25 -3
30 -77z m-243 61 c0 -3 -9 -17 -20 -31 l-20 -26 0 25 c0 14 3 28 7 31 8 9 33
9 33 1z m50 -8 c0 -36 -19 -63 -44 -63 -29 0 -33 9 -11 27 12 10 15 10 16 -1
0 -8 5 1 10 19 10 32 29 44 29 18z m154 -83 c9 -36 15 -68 12 -71 -3 -2 -17 3
-31 12 -23 15 -25 22 -25 89 1 63 2 70 14 54 8 -10 21 -47 30 -84z m-54 17 c0
-46 -11 -63 -25 -41 -8 14 6 91 16 91 5 0 9 -22 9 -50z m-30 16 c0 -20 -29
-48 -42 -40 -5 4 0 16 13 30 26 28 29 29 29 10z"></path>
<path class="node" id="node4" d="M1980 2243 c-87 -14 -229 -79 -291 -133 l-24 -21 45 6 c25 3 132 8
239 11 178 6 192 7 162 20 -92 39 43 100 229 105 l55 2 -50 7 c-52 9 -321 10
-365 3z m73 -30 c4 -3 3 -11 -2 -17 -5 -6 -11 -20 -13 -31 -3 -18 -12 -20 -86
-21 -45 -1 -98 -5 -117 -8 -20 -4 -35 -3 -35 2 0 18 134 63 241 81 3 1 9 -2
12 -6z"></path>
<path class="node" id="node5" d="M1890 2074 c-216 -42 -265 -58 -305 -106 -36 -42 -29 -88 19 -137 33
-33 36 -34 53 -19 36 32 179 96 263 116 108 26 251 36 360 24 69 -7 89 -6 108
6 26 17 86 20 187 10 52 -5 63 -5 45 3 -41 17 -231 67 -295 78 -33 6 -73 13
-90 16 -39 8 -313 15 -345 9z m320 -34 c47 -6 103 -16 124 -21 38 -10 39 -11
20 -29 -17 -17 -26 -18 -84 -10 -174 25 -359 -5 -539 -88 -53 -25 -106 -31
-121 -15 -4 4 -11 18 -14 30 -29 93 320 169 614 133z"></path>
<path class="node" id="node6" d="M2030 1920 c-90 -11 -190 -42 -285 -88 l-80 -39 30 -15 c17 -8 53
-21 81 -27 45 -11 61 -9 160 16 93 24 129 28 244 28 156 0 241 -20 345 -83 67
-40 158 -121 187 -167 l20 -30 -7 29 c-21 96 -245 340 -336 366 -47 14 -282
20 -359 10z m308 -40 c35 -6 81 -22 101 -34 40 -26 104 -86 98 -92 -2 -2 -30
7 -63 20 -61 25 -240 56 -322 56 -26 0 -99 -9 -162 -21 -153 -27 -202 -32
-220 -20 -22 15 -5 27 79 56 134 47 337 62 489 35z"></path>
<path class="node" id="node7" d="M907 1823 c-22 -36 -97 -187 -97 -196 0 -2 24 2 53 10 73 20 141 12
175 -19 32 -30 125 -51 102 -23 -8 9 -10 29 -7 50 5 30 3 35 -13 35 -26 0 -50
38 -50 77 0 20 -5 33 -12 33 -39 0 -90 23 -100 46 -15 33 -24 30 -51 -13z"></path>
<path class="node" id="node8" d="M2028 1760 c-69 -12 -152 -41 -161 -56 -4 -8 -25 -14 -45 -14 -52 0
-109 -18 -116 -36 -5 -12 1 -14 32 -8 20 3 39 7 42 7 3 1 29 -2 58 -6 42 -6
60 -15 87 -43 40 -41 49 -79 43 -175 -8 -101 -59 -200 -152 -294 -128 -129
-265 -203 -536 -290 -255 -81 -383 -137 -527 -232 -88 -58 -248 -207 -293
-273 -13 -19 17 6 67 56 138 139 297 243 444 293 68 23 114 27 124 11 13 -22
-8 -50 -81 -105 -103 -79 -215 -203 -258 -285 -50 -94 -45 -98 13 -10 129 196
384 385 626 463 146 47 205 45 205 -8 0 -22 -41 -65 -62 -65 -29 0 -201 -112
-266 -174 -65 -62 -152 -165 -152 -180 0 -3 37 33 81 79 98 102 233 194 379
258 131 58 195 75 218 61 23 -15 26 -47 9 -81 -27 -52 -137 -162 -213 -213
-42 -27 -73 -50 -70 -50 13 0 132 63 186 98 30 20 106 87 167 149 91 91 118
113 141 113 34 0 52 -16 52 -46 0 -23 -39 -114 -67 -154 l-17 -25 24 20 c90
76 231 248 310 378 57 94 73 112 90 102 32 -19 -22 -204 -78 -268 -13 -14 -13
-17 -1 -12 24 10 80 102 114 188 34 85 69 244 80 360 8 77 27 90 51 32 11 -28
33 -142 34 -179 0 -6 5 -5 12 2 8 8 14 64 16 170 4 141 2 164 -18 222 -32 97
-95 153 -216 193 -106 34 -263 46 -376 27z m237 -81 c81 -38 137 -94 177 -178
28 -59 32 -78 35 -171 2 -61 -2 -130 -9 -165 -13 -60 -13 -60 -50 -62 -21 -1
-38 -1 -38 0 0 31 -25 186 -36 227 -43 154 -139 275 -269 340 l-70 35 35 7
c65 12 158 -1 225 -33z m190 -21 c22 -11 51 -30 63 -41 31 -28 68 -102 78
-152 6 -34 5 -37 -10 -32 -10 4 -28 7 -41 7 -19 0 -30 13 -59 73 -19 40 -53
93 -75 119 -23 25 -41 49 -41 53 0 9 37 -3 85 -27z m-350 -53 c136 -79 226
-266 225 -469 -1 -84 -14 -135 -54 -203 -38 -64 -90 -126 -98 -117 -3 3 -1 22
5 42 6 20 11 122 11 227 1 168 -2 199 -22 272 -29 103 -63 164 -129 231 -29
30 -53 55 -53 57 0 8 79 -19 115 -40z m-48 -87 c30 -33 50 -76 75 -165 32
-113 32 -327 0 -428 -29 -92 -47 -112 -103 -116 -35 -3 -43 -1 -40 11 2 8 12
45 22 82 10 37 26 109 35 160 9 51 18 96 20 100 3 4 5 38 5 75 0 62 -16 125
-37 146 -10 10 -14 157 -4 157 3 0 16 -10 27 -22z m-29 -285 c5 -161 -42 -340
-117 -440 -28 -39 -61 -57 -61 -34 0 16 -59 31 -84 21 -13 -5 -26 -6 -29 -3
-3 2 25 44 62 91 100 128 151 235 151 320 0 37 50 143 65 138 6 -1 11 -43 13
-93z m-123 -105 c-19 -63 -84 -176 -141 -242 -82 -96 -98 -106 -125 -72 -11
14 -28 26 -37 26 -10 0 0 16 31 45 26 24 47 53 47 63 0 13 32 45 88 90 48 38
96 79 106 91 25 27 39 27 31 -1z m-305 -216 c0 -4 -15 -22 -32 -39 -23 -21
-63 -40 -133 -62 -55 -17 -139 -50 -188 -74 l-88 -43 -14 30 c-8 16 -13 31
-12 33 2 2 64 23 138 47 141 47 287 101 297 110 8 9 32 7 32 -2z"></path>
<path class="node" id="node9" d="M965 1424 c-11 -9 -44 -28 -74 -42 -47 -22 -52 -27 -38 -37 34 -24
21 -70 -36 -132 -30 -32 -65 -78 -79 -103 -28 -49 -63 -174 -53 -190 12 -19
22 -10 35 33 28 95 100 181 182 217 45 20 47 23 72 98 24 72 35 172 19 172 -5
0 -17 -8 -28 -16z"></path>
<path class="node" id="node10" d="M498 1368 c-17 -6 -28 -17 -28 -28 0 -10 -3 -25 -6 -34 -13 -33 12
-14 38 29 15 25 26 45 25 44 -1 0 -14 -5 -29 -11z"></path>
<path class="node" id="node11" d="M435 960 c-10 -11 -25 -20 -33 -20 -11 0 -13 -8 -7 -36 10 -57 53
-116 102 -143 33 -17 34 -15 8 42 -14 28 -28 78 -31 110 -4 31 -10 59 -14 62
-4 2 -15 -4 -25 -15z"></path>
<path class="node" id="node12" d="M830 971 l-35 -7 37 -13 c40 -13 58 -9 58 15 0 15 -4 15 -60 5z"></path>
<path class="node" id="node13" d="M691 874 c31 -34 95 -66 122 -62 12 2 27 14 34 28 12 25 12 25 -46
32 -33 4 -76 11 -97 17 l-37 10 24 -25z"></path>
<path class="node" id="node14" d="M671 795 c-29 -127 -103 -228 -206 -277 -47 -23 -53 -28 -28 -24 18
3 52 15 75 26 23 11 44 18 46 15 3 -2 -26 -37 -64 -77 -56 -58 -61 -67 -29
-44 121 87 204 231 222 383 8 69 -1 68 -16 -2z"></path>
</g>
<g transform="translate(0.000000,300.000000) scale(0.100000,-0.100000)" fill="#A1A1A1" stroke="none">

<path class="node" id="node16" d="M1191 2383 c-49 -56 -111 -161 -111 -190 0 -33 28 -8 54 49 15 35 47
87 70 118 54 71 59 80 47 80 -5 0 -32 -26 -60 -57z"></path>
<path class="node" id="node17" d="M728 1752 c-29 -21 -37 -34 -38 -59 0 -17 -3 -39 -6 -47 -11 -28 19
-8 43 28 27 42 55 106 45 105 -4 0 -24 -13 -44 -27z"></path>
<path class="node" id="node18" d="M885 1536 c-20 -47 -35 -54 -35 -18 0 18 -6 32 -16 36 -21 8 -74 -46
-74 -76 0 -13 -6 -32 -14 -43 -12 -17 -13 -17 -20 8 -14 59 -75 7 -77 -65 0
-18 -4 -42 -8 -53 -8 -19 -8 -19 -15 3 -6 16 -14 22 -29 20 -17 -2 -23 -11
-25 -40 -2 -26 -7 -35 -17 -32 -18 7 -42 -36 -25 -46 12 -8 46 -6 77 4 11 4
51 41 89 83 55 62 82 83 139 109 94 44 133 87 113 127 -15 29 -47 21 -63 -17z"></path>
<path class="node" id="node19" d="M354 1235 c-4 -9 -4 -45 0 -81 5 -48 3 -71 -9 -94 -19 -37 -7 -39 27
-2 36 39 40 58 27 119 -14 59 -34 86 -45 58z"></path>
<path class="node" id="node20" d="M1503 2207 c-46 -28 -83 -58 -83 -64 0 -7 12 -16 28 -20 33 -10 138
-10 147 -1 4 3 2 22 -4 42 -5 22 -6 49 -1 66 5 17 6 30 2 30 -4 0 -44 -24 -89
-53z"></path>
<path class="node" id="node21" d="M1277 2144 c-15 -15 -6 -45 23 -78 36 -41 117 -83 131 -69 6 6 -5 16
-30 28 -44 19 -81 55 -103 98 -8 15 -17 25 -21 21z"></path>
<path class="node" id="node22" d="M1192 2114 l-22 -15 22 -30 c30 -40 38 -37 38 16 0 49 -5 53 -38 29z"></path>
<path class="node" id="node23" d="M1245 2079 c9 -56 48 -117 80 -125 41 -10 41 4 2 44 -20 20 -43 54
-51 74 -24 56 -40 59 -31 7z"></path>
<path class="node" id="node24" d="M1171 2038 c12 -23 24 -68 26 -100 6 -63 23 -70 23 -9 0 47 -25 132
-42 142 -26 17 -28 8 -7 -33z"></path>
<path class="node" id="node25" d="M1123 1975 l5 -90 -13 70 c-7 39 -13 72 -14 74 0 2 -8 -2 -16 -9 -21
-18 -19 -47 9 -106 23 -50 25 -52 57 -45 41 8 46 25 29 98 -17 78 -27 72 -24
-15 l3 -77 -12 87 c-16 117 -31 125 -24 13z"></path>
<path class="node" id="node26" d="M1355 1990 c18 -20 45 -27 45 -12 0 8 -43 32 -57 32 -3 0 2 -9 12
-20z"></path>
<path class="node" id="node27" d="M1237 1994 c-10 -10 -9 -66 1 -82 7 -10 15 -10 40 1 l32 13 -33 37
c-18 21 -36 34 -40 31z"></path>
<path class="node" id="node28" d="M1471 1976 c-16 -19 3 -111 32 -153 22 -33 47 -50 47 -33 0 6 -4 10
-8 10 -12 0 -42 69 -44 100 -1 14 2 40 6 58 6 25 4 32 -7 32 -8 0 -20 -6 -26
-14z"></path>
<path class="node" id="node29" d="M1026 1931 c-12 -18 1 -58 21 -65 10 -4 19 -2 21 4 2 6 9 4 17 -7 25
-34 26 -6 2 30 -14 20 -27 33 -31 30 -3 -3 -1 -12 5 -20 8 -8 8 -13 1 -13 -6
0 -14 12 -19 27 -7 19 -12 23 -17 14z"></path>
<path class="node" id="node30" d="M1383 1933 c-18 -7 -16 -35 7 -94 24 -60 50 -98 68 -99 15 0 15 -1
-7 42 -10 20 -24 64 -32 97 -7 34 -16 61 -19 60 -3 0 -11 -3 -17 -6z"></path>
<path class="node" id="node31" d="M1437 1880 c6 -48 41 -140 53 -140 22 0 14 27 -45 155 -14 30 -14 30
-8 -15z"></path>
<path class="node" id="node32" d="M1330 1897 c0 -7 7 -22 15 -33 14 -18 14 -17 15 14 0 22 -5 32 -15
32 -8 0 -15 -6 -15 -13z"></path>
<path class="node" id="node33" d="M1270 1817 c0 -37 0 -70 0 -74 0 -5 6 -8 13 -8 9 0 11 18 9 65 -4 89
-22 103 -22 17z"></path>
<path class="node" id="node34" d="M1202 1841 c-8 -5 -12 -23 -10 -47 l3 -39 18 32 c27 50 22 75 -11 54z"></path>
<path class="node" id="node35" d="M1311 1788 c-1 -53 1 -58 20 -58 18 0 20 4 15 26 -4 15 -13 41 -21
58 -13 31 -13 31 -14 -26z"></path>
<path class="node" id="node36" d="M1228 1787 c-23 -53 -22 -57 2 -57 17 0 20 7 20 50 0 28 -1 50 -2 50
-2 0 -11 -19 -20 -43z"></path>
<path class="node" id="node37" d="M1150 1797 c-12 -24 -11 -30 3 -44 23 -23 29 -13 19 33 l-9 39 -13
-28z"></path>
<path class="node" id="node38" d="M1352 1788 c6 -18 12 -39 14 -45 3 -13 54 -19 54 -7 0 11 -61 84 -70
84 -5 0 -3 -15 2 -32z"></path>
<path class="node" id="node39" d="M1516 1765 c4 -8 13 -15 21 -15 13 0 13 3 3 15 -7 8 -16 15 -21 15
-5 0 -6 -7 -3 -15z"></path>
<path class="node" id="node40" d="M1618 1708 c-9 -7 -18 -22 -21 -33 -4 -15 -5 -13 -6 8 0 15 -5 27 -9
27 -4 0 -9 -58 -10 -130 -2 -143 12 -177 21 -50 4 60 11 91 31 126 35 63 33
82 -6 52z"></path>
<path class="node" id="node41" d="M1500 1653 c0 -32 4 -69 8 -83 6 -22 8 -19 13 20 4 25 5 6 3 -42 -4
-83 5 -128 25 -128 5 0 8 64 7 142 0 78 -2 134 -4 125 -5 -24 -22 -21 -22 3 0
11 -7 20 -15 20 -12 0 -15 -13 -15 -57z"></path>
<path class="node" id="node42" d="M1323 1692 c-14 -10 -44 -92 -33 -92 8 0 46 46 63 76 8 14 -15 25
-30 16z"></path>
<path class="node" id="node43" d="M1432 1688 c3 -7 15 -44 28 -81 12 -38 23 -67 25 -65 1 2 0 38 -2 81
-5 74 -7 77 -30 77 -16 0 -23 -5 -21 -12z"></path>
<path class="node" id="node44" d="M1207 1683 c-4 -3 -7 -17 -7 -31 l0 -25 20 26 c11 14 20 28 20 31 0
8 -25 8 -33 -1z"></path>
<path class="node" id="node45" d="M1261 1658 c-5 -18 -10 -27 -10 -19 -1 11 -4 11 -16 1 -22 -18 -18
-27 11 -27 25 0 44 27 44 63 0 26 -19 14 -29 -18z"></path>
<path class="node" id="node46" d="M1400 1623 c0 -67 2 -74 25 -89 14 -9 28 -14 31 -12 8 8 -26 135 -42
155 -12 16 -13 9 -14 -54z"></path>
<path class="node" id="node47" d="M1366 1619 c-7 -41 -2 -59 15 -59 5 0 9 23 9 50 0 60 -15 66 -24 9z"></path>
<path class="node" id="node48" d="M1331 1616 c-13 -14 -18 -26 -13 -30 13 -8 42 20 42 40 0 19 -3 18
-29 -10z"></path>
<path class="node" id="node49" d="M1970 2204 c-77 -17 -170 -53 -170 -66 0 -5 15 -6 35 -2 19 3 72 7
117 8 74 1 83 3 86 21 2 11 8 25 13 31 8 10 2 25 -10 23 -3 -1 -35 -7 -71 -15z"></path>
<path class="node" id="node50" d="M1875 2039 c-111 -14 -236 -55 -263 -85 -22 -25 -23 -55 -2 -77 15
-16 68 -10 121 15 180 83 365 113 539 88 58 -8 67 -7 84 10 19 18 18 19 -20
29 -110 29 -315 38 -459 20z"></path>
<path class="node" id="node51" d="M2006 1883 c-84 -12 -221 -54 -241 -74 -17 -17 16 -30 65 -25 25 2
97 14 160 25 63 12 136 21 162 21 82 0 261 -31 322 -56 33 -13 61 -22 63 -20
6 6 -58 66 -98 92 -69 43 -268 60 -433 37z"></path>
<path class="node" id="node52" d="M2040 1712 l-35 -7 70 -35 c130 -65 226 -186 269 -340 11 -41 36
-196 36 -227 0 -1 17 -1 38 0 37 2 37 2 50 62 7 35 11 104 9 165 -3 93 -7 112
-35 171 -40 84 -96 140 -177 178 -67 32 -160 45 -225 33z"></path>
<path class="node" id="node53" d="M2370 1685 c0 -4 18 -28 41 -53 22 -26 56 -79 75 -119 29 -60 40 -73
59 -73 13 0 31 -3 41 -7 15 -5 16 -2 10 32 -10 50 -47 124 -78 152 -37 34
-148 85 -148 68z"></path>
<path class="node" id="node54" d="M1990 1645 c0 -2 24 -27 53 -57 66 -67 100 -128 129 -231 20 -73 23
-104 22 -272 0 -105 -5 -207 -11 -227 -6 -20 -8 -39 -5 -42 8 -9 60 53 98 117
40 68 53 119 54 203 1 203 -89 390 -225 469 -36 21 -115 48 -115 40z"></path>
<path class="node" id="node55" d="M2024 1466 c1 -41 5 -78 10 -83 21 -21 37 -84 37 -146 0 -37 -2 -71
-5 -75 -2 -4 -11 -49 -20 -100 -9 -51 -25 -123 -35 -160 -10 -37 -20 -74 -22
-82 -3 -12 5 -14 40 -11 56 4 74 24 103 116 32 101 32 315 0 428 -12 44 -30
93 -38 110 -18 34 -53 77 -64 77 -4 0 -7 -33 -6 -74z"></path>
<path class="node" id="node56" d="M1978 1275 c-16 -30 -28 -69 -28 -87 0 -85 -51 -192 -151 -320 -37
-47 -65 -89 -62 -91 3 -3 16 -2 29 3 25 10 84 -5 84 -21 0 -23 33 -5 61 34 48
64 76 136 99 248 22 106 25 279 5 285 -5 2 -22 -21 -37 -51z"></path>
<path class="node" id="node57" d="M1874 1129 c-10 -12 -58 -53 -106 -91 -56 -45 -88 -77 -88 -90 0 -10
-21 -39 -47 -63 -31 -29 -41 -45 -31 -45 9 0 26 -12 37 -26 27 -34 43 -24 125
72 57 66 122 179 141 242 8 28 -6 28 -31 1z"></path>
<path class="node" id="node58" d="M1568 914 c-10 -9 -156 -63 -297 -110 -74 -24 -136 -45 -138 -47 -1
-2 4 -17 12 -33 l14 -30 88 43 c49 24 133 57 188 74 70 22 110 41 133 62 17
17 32 35 32 39 0 9 -24 11 -32 2z"></path>
</g>
</svg>