<!--?xml version="1.0" standalone="no"?-->

<svg version="1.0" xmlns="http://www.w3.org/2000/svg" width="300.000000pt" height="300.000000pt" viewBox="0 0 300.000000 300.000000" preserveAspectRatio="xMidYMid meet">
<g transform="translate(0.000000,300.000000) scale(0.100000,-0.100000)" fill="#161616" stroke="none">
<path stroke-width="20" class="node" id="node1" d="M1612 2425 c-12 -25 -39 -57 -63 -75 -59 -42 -90 -40 -51 3 17 19 16
20 -12 13 -16 -4 -54 -27 -85 -50 -31 -24 -67 -49 -80 -56 -23 -12 -23 -11
-17 14 9 36 -10 34 -75 -10 -70 -47 -130 -105 -186 -179 -42 -56 -47 -59 -84
-56 l-39 3 0 -64 c0 -46 6 -72 21 -97 23 -38 36 -32 41 19 3 33 5 35 42 38 28
2 47 12 67 33 23 25 34 29 82 29 52 0 55 1 60 29 4 18 14 32 27 36 27 9 72
-20 68 -43 -5 -27 -90 -63 -152 -65 l-55 -1 2 -36 2 -35 -47 1 c-42 0 -46 -2
-37 -18 14 -27 63 -48 109 -48 36 0 40 2 40 25 0 28 21 41 121 74 89 29 115
57 112 123 l-2 50 30 -6 c47 -9 84 -30 82 -46 -1 -8 -8 -33 -16 -54 -12 -32
-22 -42 -61 -57 -26 -10 -81 -43 -121 -73 -62 -47 -81 -56 -116 -56 -33 0 -51
-8 -90 -39 -40 -32 -63 -41 -136 -56 -48 -9 -108 -23 -132 -31 -48 -15 -61
-12 -61 16 0 22 23 37 76 48 37 7 37 8 40 63 2 41 -2 63 -16 87 -24 39 -72 72
-78 54 -2 -8 -15 -11 -37 -6 -66 12 -143 -49 -202 -161 -15 -30 -25 -56 -23
-59 3 -2 24 0 46 6 51 14 74 6 74 -25 0 -23 -40 -69 -114 -130 -42 -34 -30
-57 30 -57 52 0 50 5 17 -82 -17 -46 -17 -50 1 -118 35 -138 34 -135 77 -160
37 -20 40 -24 23 -33 -42 -22 -64 -51 -64 -83 0 -42 18 -53 40 -24 11 15 23
21 34 17 23 -9 20 -22 -8 -35 -23 -10 -24 -13 -14 -54 12 -48 26 -70 39 -62 5
3 9 15 9 28 0 27 18 46 42 46 22 0 24 -23 3 -40 -8 -7 -15 -18 -15 -26 0 -17
58 -61 93 -70 27 -6 28 -5 16 14 -11 17 -9 24 13 51 14 16 28 35 30 40 1 6 39
14 83 20 64 8 83 14 98 32 18 23 18 23 -33 68 l-52 46 123 0 c108 0 130 3 175
23 30 14 65 40 83 62 25 31 46 43 110 65 86 28 107 45 121 96 9 32 17 37 121
77 124 47 144 50 159 22 13 -24 -4 -34 -103 -59 -72 -19 -72 -19 -89 -65 l-18
-47 25 -24 c17 -18 35 -25 61 -25 31 0 35 2 24 15 -21 26 -4 28 40 5 25 -13
55 -20 77 -18 41 3 55 23 23 31 -24 6 -27 35 -5 44 9 3 24 -2 34 -11 19 -18
58 -21 80 -7 13 8 13 12 0 27 -18 22 -13 48 22 110 32 57 29 66 -29 79 -25 5
-37 15 -47 38 -17 44 -26 117 -13 117 10 0 86 -23 134 -40 15 -6 25 -26 38
-73 16 -60 16 -68 2 -118 -9 -29 -16 -62 -16 -73 0 -23 -81 -93 -162 -140 -57
-33 -116 -37 -309 -22 -117 9 -175 4 -164 -14 3 -6 19 -10 35 -10 40 0 47 -18
13 -31 -20 -8 -332 -67 -360 -69 -2 0 -3 -4 -3 -10 0 -5 11 -10 25 -10 35 0
31 -14 -9 -28 -48 -18 -126 -89 -147 -137 -19 -42 -24 -101 -11 -123 6 -9 14
0 27 28 28 62 49 50 56 -33 5 -55 11 -74 35 -104 32 -38 127 -96 179 -109 l30
-7 -22 25 c-34 36 -29 41 29 35 45 -6 58 -3 88 17 25 17 55 25 104 30 73 6 89
12 67 26 -38 23 51 78 143 87 36 4 61 12 72 24 19 22 16 23 -20 9 -56 -21 -34
35 26 66 31 16 84 19 93 4 3 -5 -1 -25 -9 -44 -16 -38 -61 -72 -111 -81 -70
-15 -105 -26 -105 -35 0 -14 157 -12 183 1 12 7 48 36 79 66 57 54 78 60 78
22 0 -23 13 -25 30 -4 24 29 14 65 -30 110 -45 46 -42 61 12 57 31 -3 36 9 13
28 -27 23 -129 13 -208 -20 -39 -16 -75 -30 -79 -30 -14 0 -8 33 9 52 14 16
14 18 0 18 -38 0 -68 -23 -113 -87 -66 -94 -94 -123 -121 -123 -25 0 -29 11
-13 41 20 37 -12 20 -75 -40 -76 -73 -133 -94 -174 -63 -14 10 -30 34 -35 52
-9 32 -8 35 52 91 104 98 196 134 262 104 l38 -17 75 41 c76 42 121 50 159 30
16 -9 31 -5 79 20 75 39 104 41 95 6 -9 -35 19 -33 70 3 47 34 85 77 143 160
56 80 91 82 91 6 0 -34 13 -30 37 14 36 64 38 110 9 194 -40 115 -32 183 14
126 28 -35 35 -15 15 44 -24 73 -66 131 -131 177 -52 37 -86 51 -190 80 -50
13 -86 48 -64 61 8 5 24 16 35 25 19 16 17 16 -33 11 -81 -8 -136 -41 -257
-156 -111 -105 -179 -148 -211 -136 -12 5 -15 14 -10 36 3 17 2 30 -3 30 -8 0
-64 -59 -158 -168 -37 -41 -67 -66 -98 -77 -55 -22 -75 -15 -75 25 0 16 -4 30
-8 30 -13 0 -46 -39 -85 -101 -35 -57 -70 -89 -95 -89 -7 0 -24 11 -37 25 -44
43 -27 105 30 105 12 0 14 -6 9 -27 l-7 -27 26 20 c14 11 48 46 77 77 67 74
115 104 136 86 11 -9 14 -22 10 -41 -4 -18 -1 -28 6 -28 7 0 57 47 113 104
103 108 153 146 193 146 21 0 23 -3 17 -30 -18 -80 91 12 120 102 27 82 63
146 85 153 13 4 31 0 45 -9 24 -16 25 -16 25 6 0 45 -42 110 -101 156 -60 46
-73 74 -47 100 27 27 -9 37 -120 35 -79 -1 -100 1 -82 8 35 14 69 48 90 89 16
31 16 39 5 68 -8 17 -16 32 -18 32 -1 0 -13 -20 -25 -45z m-418 -270 c-7 -16
-44 -41 -44 -29 0 11 32 44 41 44 5 0 6 -7 3 -15z"></path>
</g>
<g transform="translate(0.000000,300.000000) scale(0.100000,-0.100000)" fill="#A0A0A0" stroke="none">


</g>
</svg>