<!--?xml version="1.0" standalone="no"?-->

<svg version="1.0" xmlns="http://www.w3.org/2000/svg" width="240.000000pt" height="300.000000pt" viewBox="0 0 240.000000 300.000000" preserveAspectRatio="xMidYMid meet">
<g transform="translate(0.000000,300.000000) scale(0.100000,-0.100000)" fill="#232324" stroke="none">
<path class="node" id="node1" d="M1320 2874 c79 -16 207 -61 198 -70 -3 -2 -26 5 -52 17 -36 15 -57
19 -85 14 l-36 -8 35 -12 c47 -18 62 -17 25 1 l-30 15 30 -6 c88 -18 191 -114
231 -216 23 -59 26 -78 22 -151 -4 -81 -6 -88 -74 -213 -92 -172 -94 -179 -94
-242 0 -99 48 -154 139 -161 70 -5 108 12 147 65 40 55 48 62 31 27 -9 -17
-44 -55 -78 -85 -59 -51 -89 -98 -89 -136 1 -14 4 -11 15 8 8 15 44 50 79 78
78 63 109 98 143 165 39 78 42 161 9 256 -15 41 -31 89 -36 105 -7 23 -8 14
-5 -35 l5 -65 -14 53 c-15 59 -61 138 -92 159 -19 12 -18 7 9 -47 40 -79 49
-216 22 -316 l-18 -65 -26 24 c-14 13 -34 27 -43 30 -16 6 -16 3 2 -31 29 -53
26 -85 -11 -116 -37 -31 -58 -33 -93 -5 -35 27 -35 71 0 106 22 22 24 29 14
52 -13 32 -9 45 50 166 63 128 74 254 30 365 -31 81 -32 86 -1 30 16 -30 33
-75 37 -100 5 -34 16 -54 43 -80 20 -19 44 -46 53 -60 l17 -25 0 28 c1 16 -15
57 -34 91 -47 85 -44 91 11 20 53 -67 66 -95 66 -141 0 -18 4 -33 9 -33 14 0
30 74 23 111 -5 30 -4 32 7 14 15 -22 17 -107 6 -205 l-7 -65 18 40 c23 49 49
74 57 54 11 -32 35 -228 35 -289 0 -72 -23 -267 -41 -342 -6 -26 -17 -52 -24
-58 -10 -8 -9 7 4 62 31 127 41 190 32 207 -4 9 -9 61 -10 116 -1 55 -6 138
-10 185 l-7 85 -16 -35 c-8 -19 -21 -82 -27 -140 -11 -105 -47 -210 -71 -210
-6 0 -9 -4 -5 -9 3 -5 0 -13 -6 -17 -8 -4 -9 -3 -5 4 14 23 -8 11 -80 -43 -70
-53 -104 -95 -104 -130 0 -9 -4 -14 -9 -11 -17 11 -20 65 -7 115 13 52 11 60
-15 39 -31 -27 -52 -59 -58 -90 l-7 -33 -27 52 c-15 29 -27 56 -27 60 1 4 10
-9 21 -30 l20 -38 33 48 33 48 -38 17 c-21 9 -44 26 -51 37 -21 34 -31 24 -24
-26 5 -41 4 -45 -6 -23 -6 14 -12 70 -12 125 -1 108 1 112 103 303 46 86 61
146 61 243 0 49 -4 89 -8 89 -4 0 -8 -33 -8 -72 0 -69 -19 -166 -30 -155 -3 3
-1 22 5 44 16 58 13 181 -7 234 -20 53 -44 86 -89 117 -48 34 -47 26 1 -18
120 -111 122 -285 5 -495 -51 -91 -62 -105 -86 -105 -24 0 -53 30 -53 54 0 9
7 30 15 45 l14 28 -45 -5 c-62 -7 -88 17 -80 71 6 35 5 37 -13 27 -11 -5 -23
-15 -26 -20 -3 -6 -22 -10 -40 -10 -39 0 -55 20 -55 72 l-1 33 -23 -26 c-63
-72 -126 -63 -126 18 0 27 -1 26 -21 -12 -25 -48 -65 -92 -89 -98 -16 -4 -15
1 5 52 28 69 48 205 40 269 -10 73 -26 142 -35 142 -4 0 -10 -36 -13 -80 -8
-129 -83 -265 -236 -432 -80 -88 -111 -142 -111 -192 0 -29 -9 -44 -44 -80
-25 -24 -54 -63 -66 -86 -20 -40 -30 -114 -16 -128 4 -3 47 35 96 86 53 56 96
92 109 92 11 0 27 7 36 16 12 12 26 15 55 10 34 -5 43 -2 70 24 32 31 52 41
30 15 -7 -8 -9 -15 -5 -15 5 0 -11 -13 -33 -30 -23 -16 -49 -41 -57 -54 -9
-14 -33 -30 -53 -37 -20 -6 -48 -18 -62 -26 -14 -8 1 10 33 40 31 30 57 57 57
61 0 20 -33 -6 -127 -100 l-105 -106 -52 7 c-47 5 -49 5 -31 -9 11 -8 32 -27
46 -42 32 -32 70 -28 87 11 18 39 94 117 129 131 18 8 45 14 60 14 20 0 36 10
56 35 15 19 50 46 77 60 57 29 80 65 80 126 0 33 -6 47 -34 75 -19 19 -39 34
-44 34 -6 0 3 -13 19 -29 38 -39 41 -106 6 -139 -13 -12 -27 -22 -31 -22 -5 0
3 9 18 21 20 16 26 29 26 59 0 21 -3 46 -6 55 -10 25 -62 48 -93 40 -28 -7
-81 -52 -81 -70 0 -6 -16 -35 -36 -65 -20 -31 -31 -56 -25 -58 21 -7 11 -20
-19 -26 -18 -3 -55 -28 -86 -57 -30 -29 -57 -50 -60 -47 -12 13 22 92 56 131
30 34 38 52 42 93 6 63 29 95 140 192 46 40 97 91 113 112 17 22 33 39 37 40
10 0 -19 -94 -47 -157 -13 -29 -23 -53 -22 -53 2 0 20 9 42 20 54 27 146 27
222 -2 42 -15 75 -38 119 -82 55 -56 75 -90 100 -175 3 -10 14 -5 39 19 37 36
37 37 -11 121 -65 110 -169 176 -299 188 l-69 6 28 18 c25 17 29 17 45 3 22
-20 70 -20 99 0 18 12 22 13 22 1 0 -28 37 -50 75 -44 29 5 35 3 35 -12 0 -28
43 -61 79 -61 31 0 32 -1 26 -30 -5 -25 -1 -35 23 -60 17 -16 38 -30 46 -30 9
0 16 -5 16 -10 0 -24 -254 -261 -370 -345 -228 -165 -287 -243 -297 -393 -6
-103 14 -170 73 -243 l36 -44 -45 48 c-63 66 -80 122 -75 248 l4 99 -63 -65
c-35 -35 -63 -63 -63 -61 0 2 13 32 30 68 43 92 51 144 29 195 -46 109 -180
99 -244 -19 -26 -47 -29 -62 -28 -138 0 -51 6 -95 14 -110 13 -23 14 -15 14
82 0 62 4 112 10 116 6 4 19 24 30 45 11 20 25 37 32 37 18 0 16 -20 -7 -58
-22 -36 -36 -112 -20 -112 6 0 10 13 10 29 0 17 5 33 10 36 6 3 10 14 10 24 0
20 40 61 59 61 8 0 5 -13 -10 -40 -13 -22 -25 -40 -28 -40 -3 0 -7 -10 -7 -23
-1 -12 -3 -26 -4 -32 -1 -5 -1 -21 0 -35 1 -19 7 -11 20 30 12 39 25 59 44 70
25 14 28 13 42 -5 26 -33 9 -95 -61 -233 -36 -71 -65 -135 -65 -144 0 -9 -5
-20 -10 -23 -6 -4 -8 -10 -5 -15 3 -5 0 -18 -6 -28 -9 -14 -9 -24 -1 -38 10
-17 11 -16 12 11 0 17 18 67 40 110 45 88 45 84 3 -15 -25 -61 -27 -74 -25
-190 2 -148 13 -202 60 -295 26 -51 61 -95 126 -160 104 -103 169 -142 295
-175 72 -20 100 -22 200 -17 120 5 166 18 301 80 34 16 167 152 202 206 40 63
107 242 114 304 15 138 -70 341 -205 485 l-31 33 28 24 c15 13 37 39 47 59 19
34 19 35 0 57 -11 12 -44 33 -73 46 -49 24 -74 43 -54 43 14 0 90 -39 97 -50
3 -5 21 -17 40 -26 19 -9 35 -19 35 -23 0 -6 -12 -25 -65 -104 l-25 -37 43
-48 c24 -26 56 -65 70 -86 l26 -40 20 45 c23 50 25 87 11 177 -19 115 19 204
126 297 31 26 65 67 75 89 12 27 19 34 19 21 0 -26 -37 -81 -117 -172 -34 -40
-65 -84 -69 -99 -4 -14 -4 -72 -1 -128 4 -55 3 -118 -2 -139 -9 -38 -9 -38 10
-21 24 22 95 149 104 187 4 15 11 27 16 27 5 0 9 9 9 19 0 11 5 23 10 26 16
10 12 -8 -18 -83 -32 -78 -105 -192 -151 -236 -33 -32 -39 -46 -18 -46 21 0
113 106 158 182 24 40 47 75 51 76 5 2 8 13 8 25 0 11 11 52 24 91 45 131 68
263 73 417 6 155 -5 239 -47 366 -92 282 -379 519 -640 529 -47 1 -74 1 -60
-2z m270 -120 c0 -2 -9 0 -20 6 -11 6 -20 13 -20 16 0 2 9 0 20 -6 11 -6 20
-13 20 -16z m279 -620 c1 -30 -37 -170 -44 -162 -2 1 3 28 11 58 8 30 15 86
15 125 1 53 3 63 9 40 4 -16 8 -44 9 -61z m-406 -21 c-93 -157 -143 -286 -143
-369 0 -50 6 -55 98 -74 34 -7 65 -17 69 -23 4 -6 -4 -7 -22 -3 -15 4 -41 10
-59 13 -27 6 -29 4 -18 -9 10 -13 10 -17 -4 -22 -8 -3 -26 -6 -38 -6 -12 0
-26 -3 -32 -7 -5 -5 -1 0 9 10 11 9 26 17 34 17 8 0 12 4 9 9 -13 21 -236 64
-236 45 1 -5 18 -21 40 -36 52 -36 126 -132 145 -188 21 -60 29 -174 17 -230
-6 -24 -9 -46 -7 -49 3 -2 15 3 28 11 25 17 27 26 30 134 2 77 16 104 51 103
21 0 21 -1 -2 -11 -26 -13 -29 -25 -35 -126 -5 -83 -9 -84 85 7 l58 55 23 -23
c44 -41 98 -129 123 -200 36 -103 40 -173 15 -250 -12 -35 -21 -77 -21 -93 0
-19 -11 -43 -30 -65 -16 -18 -30 -38 -30 -43 0 -14 -60 -100 -70 -100 -5 0
-24 -12 -42 -28 -35 -29 -112 -68 -193 -97 -31 -12 -87 -20 -151 -22 -85 -4
-109 -1 -158 18 -80 29 -129 77 -174 167 -36 74 -37 79 -37 187 0 98 3 116 27
165 42 87 40 85 86 57 78 -50 135 -62 292 -62 120 0 158 4 223 23 90 26 191
70 227 100 43 35 16 34 -65 -4 -122 -55 -229 -77 -355 -72 -85 3 -115 9 -155
28 -62 30 -130 97 -155 153 -24 52 -26 153 -5 204 21 50 27 37 15 -29 -18 -95
20 -202 91 -262 28 -24 34 -25 52 -13 31 20 75 78 82 107 5 23 1 27 -45 43
-63 22 -90 61 -90 129 0 48 16 75 22 36 3 -25 32 -35 111 -40 l52 -3 0 87 c0
76 1 86 14 74 14 -15 17 -123 4 -174 -5 -21 -10 -23 -37 -17 -68 14 -131 23
-138 18 -31 -18 29 -85 93 -104 24 -7 45 -14 47 -15 5 -3 -28 -67 -46 -87 -8
-9 -12 -20 -8 -25 14 -13 84 78 107 136 21 57 22 143 3 197 -5 15 -4 17 5 9 6
-6 17 -38 23 -70 10 -54 8 -68 -11 -126 -25 -74 -78 -142 -135 -173 -20 -11
-35 -24 -33 -30 7 -20 84 -33 182 -32 l100 1 -85 6 -85 6 70 2 c39 2 87 7 109
11 24 6 45 6 55 0 18 -12 164 39 202 70 20 16 21 19 5 48 -8 17 -38 55 -65 85
l-50 53 -53 -51 c-48 -46 -145 -114 -161 -114 -4 0 -7 12 -7 28 0 53 -14 55
-49 7 -39 -55 -50 -59 -18 -7 37 58 47 99 47 183 0 139 -56 237 -172 299 -56
29 -76 24 -153 -37 -45 -36 -68 -65 -93 -113 -28 -55 -32 -59 -27 -30 3 19 25
59 49 90 79 100 188 155 335 169 l64 6 14 60 c16 71 74 194 137 289 25 38 46
74 46 79 0 6 3 7 6 4 4 -3 -11 -37 -33 -74z m-728 -45 c-11 -6 -29 -18 -40
-27 -12 -9 -8 -4 7 12 16 15 34 27 41 27 6 0 3 -6 -8 -12z m52 -4 c-3 -3 -12
-4 -19 -1 -8 3 -5 6 6 6 11 1 17 -2 13 -5z m1188 -156 c-11 -49 -49 -94 -123
-143 -86 -56 -109 -81 -126 -136 l-14 -44 -1 38 c-1 21 5 52 13 70 14 33 86
126 86 110 0 -5 -5 -14 -11 -20 -6 -6 -10 -16 -8 -22 2 -6 36 13 74 42 48 35
76 65 90 94 24 51 29 53 20 11z m-867 -269 c18 -18 30 -34 27 -38 -3 -3 -17 8
-30 24 -22 28 -25 29 -56 18 -42 -16 -49 -9 -12 11 37 20 34 21 71 -15z m352
-56 c-1 -9 -66 -43 -83 -43 -15 0 54 49 71 50 6 0 12 -3 12 -7z m-300 -22 c5
-11 10 -28 9 -38 0 -12 -4 -9 -11 10 -11 31 -23 34 -37 10 -9 -15 -10 -15 -11
-2 0 16 18 39 32 39 4 0 12 -9 18 -19z m385 -6 c16 -15 25 -35 24 -52 -1 -31
-16 -86 -18 -65 -1 7 -13 25 -28 39 l-28 27 28 -17 c27 -17 27 -17 27 10 0 16
-11 39 -27 55 -33 34 -12 38 22 3z m-585 7 c0 -4 -9 -13 -20 -20 -22 -13 -27
-3 -8 16 14 14 28 16 28 4z m70 -12 c0 -5 -5 -10 -11 -10 -5 0 -7 5 -4 10 3 6
8 10 11 10 2 0 4 -4 4 -10z m40 -9 c-5 -11 -15 -23 -21 -27 -6 -3 -8 -18 -5
-33 3 -14 3 -20 0 -13 -3 6 -10 10 -15 6 -21 -12 -7 32 18 58 32 33 38 35 23
9z m-83 -12 c-9 -6 -15 -14 -12 -19 8 -13 -13 -50 -27 -50 -6 0 -3 9 7 20 24
26 11 39 -15 15 -11 -10 -23 -16 -25 -13 -9 9 55 58 73 58 15 -1 15 -2 -1 -11z
m193 -44 c0 -8 -2 -15 -4 -15 -2 0 -6 7 -10 15 -3 8 -1 15 4 15 6 0 10 -7 10
-15z m298 -26 c27 -28 43 -109 22 -109 -5 0 -10 11 -10 24 0 13 -7 29 -15 36
-13 11 -13 15 -3 22 10 6 8 13 -11 28 -13 11 -18 20 -12 20 5 0 19 -9 29 -21z
m-594 -16 c-28 -43 -54 -100 -54 -120 0 -12 -3 -14 -11 -6 -7 7 -8 31 -4 67 7
56 25 88 25 44 0 -22 2 -21 26 10 31 39 43 42 18 5z m92 -29 c-8 -21 -15 -31
-15 -22 -1 18 20 70 26 65 2 -2 -3 -21 -11 -43z m154 14 c14 -2 30 4 37 12 11
13 12 12 13 -8 0 -21 -4 -23 -47 -20 -43 3 -48 6 -51 28 -3 22 -2 23 10 8 7
-9 24 -18 38 -20z m-129 -20 c-3 -21 -6 -26 -9 -15 -3 17 3 47 11 47 2 0 1
-15 -2 -32z m-15 -174 c23 -48 67 -78 94 -64 22 12 27 40 8 40 -30 1 -98 85
-98 120 1 8 7 2 15 -15 20 -43 45 -70 83 -89 17 -9 32 -19 32 -22 0 -14 -23
-45 -40 -54 -16 -9 -26 -4 -60 26 -42 38 -71 109 -69 168 1 21 4 14 10 -23 5
-29 16 -69 25 -87z m-285 -158 c-14 -59 -7 -71 13 -25 l14 34 1 -65 c1 -83
-21 -177 -60 -256 -17 -33 -36 -83 -43 -110 -13 -46 -14 -48 -21 -21 -5 21 1
45 30 105 28 59 38 92 40 142 l4 65 -8 -61 c-8 -63 -65 -192 -76 -174 -3 6 -2
34 4 63 6 28 13 79 16 112 8 75 35 195 44 195 4 0 8 42 7 93 0 57 5 103 14
122 13 29 14 26 23 -70 6 -70 6 -115 -2 -149z m881 140 c15 -21 28 -47 28 -56
0 -18 -83 -64 -135 -75 -17 -3 -4 5 29 19 99 43 105 56 53 113 l-34 36 -51
-41 c-49 -38 -160 -98 -167 -90 -2 2 26 19 62 38 37 19 87 54 112 77 52 46 54
45 103 -21z m-292 -71 c0 -19 -4 -35 -10 -35 -5 0 -7 7 -4 15 9 21 -3 19 -40
-10 -18 -14 -37 -25 -42 -25 -5 0 5 9 23 21 17 11 39 31 47 44 22 33 26 31 26
-10z m-526 -28 c32 -47 32 -88 1 -147 l-24 -45 -1 65 c0 36 -3 90 -6 120 -7
61 -6 61 30 7z m-186 -52 c1 -24 7 -56 12 -70 12 -33 13 -185 1 -185 -15 0
-43 82 -48 141 -5 54 12 159 25 159 4 0 8 -20 10 -45z m599 9 c-3 -3 -12 -4
-19 -1 -8 3 -5 6 6 6 11 1 17 -2 13 -5z m593 -174 c-11 -38 -59 -115 -67 -107
-5 6 5 28 48 104 28 49 32 49 19 3z m-50 -190 c-11 -21 -98 -89 -114 -90 -14
0 16 31 69 71 59 45 59 45 45 19z m-1028 -148 l-8 -37 -17 26 c-20 29 -24 77
-12 129 l8 35 18 -58 c13 -41 16 -69 11 -95z m59 32 c-6 -23 -11 -60 -12 -81
l-1 -38 -14 30 c-16 36 -10 105 14 150 16 29 16 30 20 6 2 -13 -1 -43 -7 -67z
m46 -16 c-3 -20 -4 -21 -11 -5 -5 9 -5 29 0 45 7 25 8 26 11 5 3 -13 3 -33 0
-45z m45 -15 c9 -10 37 -60 62 -111 48 -95 45 -102 -15 -50 -34 29 -67 95 -72
142 -5 40 2 45 25 19z m706 -15 c-3 -7 -15 -14 -29 -16 -23 -2 -23 -2 -5 13
24 18 39 20 34 3z m-778 -52 c0 -7 14 -33 31 -57 l32 -44 -30 28 c-27 25 -64
105 -42 91 5 -3 9 -11 9 -18z m739 -2 c-11 -10 -30 -14 -60 -12 -42 4 -43 4
-19 15 14 7 41 12 60 12 31 1 33 0 19 -15z m71 6 c-8 -5 -22 -9 -30 -9 -10 0
-8 3 5 9 27 12 43 12 25 0z m-130 -54 c-25 -14 -75 -20 -135 -16 l-30 2 30 13
c17 8 59 14 95 14 61 0 63 -1 40 -13z m-410 -24 c46 -17 150 -79 150 -89 0
-11 -83 8 -118 26 -38 20 -103 81 -86 81 5 0 29 -8 54 -18z m200 -38 c58 -29
62 -33 35 -34 -42 0 -92 16 -131 42 -76 52 -9 46 96 -8z m107 31 c58 0 60 -1
36 -14 -31 -16 -103 -11 -153 12 l-35 16 45 -7 c25 -4 73 -7 107 -7z"></path>
<path class="node" id="node2" d="M1150 1725 l-45 -13 51 -1 c28 -1 72 -4 98 -7 42 -6 46 -5 46 15 0
19 -5 21 -52 20 -29 -1 -73 -7 -98 -14z"></path>
<path class="node" id="node3" d="M1400 1060 l-25 -8 28 -1 c15 -1 27 4 27 9 0 6 -1 10 -2 9 -2 -1 -14
-5 -28 -9z"></path>
<path class="node" id="node4" d="M671 1015 c0 -46 2 -56 10 -42 7 11 7 32 1 60 l-10 42 -1 -60z"></path>

<path class="node" id="node6" d="M1715 2385 c-16 -89 -38 -163 -66 -221 -35 -74 -35 -74 -7 -74 12 0
41 -10 65 -21 24 -12 47 -18 51 -14 4 4 7 68 7 143 0 119 -3 143 -21 182 l-21
45 -8 -40z"></path>
<path class="node" id="node7" d="M699 2194 c-13 -14 -41 -35 -61 -45 -47 -24 -64 -51 -72 -111 -8 -66
8 -61 44 13 16 34 50 83 75 110 40 43 52 59 42 59 -2 0 -14 -12 -28 -26z"></path>
<path class="node" id="node8" d="M890 2154 c19 -30 22 -45 17 -95 l-5 -59 31 16 c40 21 99 20 133 -2
35 -23 62 -85 57 -129 -2 -19 0 -35 4 -35 5 0 27 19 51 41 l42 41 -22 40 c-43
76 -138 128 -203 112 -16 -4 -25 -2 -25 5 0 14 -79 101 -92 101 -5 0 0 -16 12
-36z"></path>
<path class="node" id="node9" d="M1640 2050 c14 -26 13 -30 -9 -30 -28 0 -51 -27 -51 -59 0 -34 17
-51 50 -51 55 0 77 63 43 121 -20 33 -50 51 -33 19z"></path>
<path class="node" id="node10" d="M422 678 c-13 -7 -27 -27 -34 -50 -31 -104 58 -246 199 -317 67 -34
72 -24 7 15 -32 19 -72 47 -88 62 -46 43 -86 112 -86 149 0 47 14 41 28 -12
14 -53 77 -122 141 -154 61 -31 62 -25 3 14 -66 45 -112 107 -112 151 0 18 5
36 10 39 6 3 10 -3 10 -15 0 -36 49 -110 73 -110 6 0 1 10 -11 23 -20 21 -42
67 -42 88 0 24 40 5 65 -32 46 -66 135 -140 213 -177 84 -40 111 -37 31 4
-101 51 -172 118 -264 249 -54 77 -93 97 -143 73z"></path>



























</g>
<g transform="translate(0.000000,300.000000) scale(0.100000,-0.100000)" fill="#FFFFFF" stroke="none">

<path class="node" id="node39" d="M1550 2776 c0 -3 9 -10 20 -16 11 -6 20 -8 20 -6 0 3 -9 10 -20 16
-11 6 -20 8 -20 6z"></path>
<path class="node" id="node40" d="M1851 2155 c0 -39 -7 -95 -15 -125 -20 -78 -11 -74 13 5 22 69 24
108 11 160 -6 23 -8 13 -9 -40z"></path>
<path class="node" id="node41" d="M1490 2183 c0 -5 -21 -41 -46 -79 -63 -95 -121 -218 -137 -289 l-14
-60 -64 -6 c-147 -14 -256 -69 -335 -169 -24 -31 -46 -71 -49 -90 -5 -29 -1
-25 27 30 25 48 48 77 93 113 77 61 97 66 153 37 116 -62 172 -160 172 -299 0
-84 -10 -125 -47 -183 -32 -52 -21 -48 18 7 35 48 49 46 49 -7 0 -16 3 -28 7
-28 16 0 113 68 161 114 l53 51 50 -53 c27 -30 57 -68 65 -85 16 -29 15 -32
-5 -48 -38 -31 -184 -82 -202 -70 -10 6 -31 6 -55 0 -22 -4 -70 -9 -109 -11
l-70 -2 85 -6 85 -6 -100 -1 c-98 -1 -175 12 -182 32 -2 6 13 19 33 30 57 31
110 99 135 173 19 58 21 72 11 126 -6 32 -17 64 -23 70 -9 8 -10 6 -5 -9 19
-54 18 -140 -3 -197 -23 -58 -93 -149 -107 -136 -4 5 0 16 8 25 18 20 51 84
46 87 -2 1 -23 8 -47 15 -64 19 -124 86 -93 104 7 5 70 -4 138 -18 27 -6 32
-4 37 17 13 51 10 159 -4 174 -13 12 -14 2 -14 -74 l0 -87 -52 3 c-79 5 -108
15 -111 40 -6 39 -22 12 -22 -36 0 -68 27 -107 90 -129 46 -16 50 -20 45 -43
-7 -29 -51 -87 -82 -107 -18 -12 -24 -11 -52 13 -71 60 -109 167 -91 262 12
66 6 79 -15 29 -21 -51 -19 -152 5 -204 25 -56 93 -123 155 -153 40 -19 70
-25 155 -28 126 -5 233 17 355 72 81 38 108 39 65 4 -36 -30 -137 -74 -227
-100 -65 -19 -103 -23 -223 -23 -157 0 -214 12 -292 62 -46 28 -44 30 -86 -57
-24 -49 -27 -67 -27 -165 0 -108 1 -113 37 -187 45 -90 94 -138 174 -167 49
-19 73 -22 158 -18 64 2 120 10 151 22 81 29 158 68 193 97 18 16 37 28 42 28
10 0 70 86 70 100 0 5 14 25 30 43 19 22 30 46 30 65 0 16 9 58 21 93 25 77
21 147 -15 250 -25 71 -79 159 -123 200 l-23 23 -58 -55 c-94 -91 -90 -90 -85
-7 6 101 9 113 35 126 23 10 23 11 2 11 -35 1 -49 -26 -51 -103 -3 -108 -5
-117 -30 -134 -13 -8 -25 -13 -28 -11 -2 3 1 25 7 49 12 56 4 170 -17 230 -19
56 -93 152 -145 188 -22 15 -39 31 -40 36 0 19 223 -24 236 -45 3 -5 -1 -9 -9
-9 -8 0 -23 -8 -34 -17 -10 -10 -14 -15 -9 -10 6 4 20 7 32 7 12 0 30 3 38 6
14 5 14 9 4 22 -11 13 -9 15 18 9 18 -3 44 -9 59 -13 18 -4 26 -3 22 3 -4 6
-35 16 -69 23 -92 19 -98 24 -98 74 0 83 50 212 143 369 22 37 37 71 33 74 -3
3 -6 2 -6 -4z m-190 -464 c0 -20 -4 -21 -46 -15 -26 3 -70 6 -98 7 l-51 1 45
13 c25 7 69 13 98 14 47 1 52 -1 52 -20z m130 -659 c0 -5 -12 -10 -27 -9 l-28
1 25 8 c14 4 26 8 28 9 1 1 2 -3 2 -9z"></path>
<path class="node" id="node42" d="M702 2053 c-15 -16 -19 -21 -7 -12 11 9 29 21 40 27 11 6 14 12 8 12
-7 0 -25 -12 -41 -27z"></path>
<path class="node" id="node43" d="M768 2063 c7 -3 16 -2 19 1 4 3 -2 6 -13 5 -11 0 -14 -3 -6 -6z"></path>
<path class="node" id="node44" d="M1955 1897 c-14 -29 -42 -59 -90 -94 -38 -29 -72 -48 -74 -42 -2 6 2
16 8 22 6 6 11 15 11 20 0 16 -72 -77 -86 -110 -8 -18 -14 -49 -13 -70 l1 -38
14 44 c17 55 40 80 126 136 74 49 112 94 123 143 9 42 4 40 -20 -11z"></path>
<path class="node" id="node45" d="M1037 1654 c-37 -20 -30 -27 12 -11 31 11 34 10 56 -18 13 -16 27
-27 30 -24 6 6 -54 69 -64 69 -3 -1 -19 -8 -34 -16z"></path>
<path class="node" id="node46" d="M1400 1565 c-19 -14 -29 -25 -23 -25 17 0 82 34 83 43 0 14 -25 6
-60 -18z"></path>
<path class="node" id="node47" d="M1122 1568 c-7 -7 -12 -19 -12 -27 1 -13 2 -13 11 2 14 24 26 21 37
-10 7 -19 11 -22 11 -10 1 21 -16 57 -27 57 -5 0 -13 -5 -20 -12z"></path>
<path class="node" id="node48" d="M1523 1552 c16 -16 27 -39 27 -55 0 -27 0 -27 -27 -10 l-28 17 28
-27 c15 -14 27 -32 28 -39 2 -21 17 34 18 65 1 17 -8 37 -24 52 -34 35 -55 31
-22 -3z"></path>
<path class="node" id="node49" d="M932 1558 c-19 -19 -14 -29 8 -16 20 13 27 28 12 28 -4 0 -13 -5 -20
-12z"></path>
<path class="node" id="node50" d="M1015 1550 c-3 -5 -1 -10 4 -10 6 0 11 5 11 10 0 6 -2 10 -4 10 -3 0
-8 -4 -11 -10z"></path>
<path class="node" id="node51" d="M1047 1532 c-25 -26 -39 -70 -18 -58 5 4 12 0 15 -6 3 -7 3 -1 0 13
-3 15 -1 30 5 33 11 7 35 46 28 46 -2 0 -15 -13 -30 -28z"></path>
<path class="node" id="node52" d="M940 1514 c-17 -15 -28 -29 -25 -32 2 -3 14 3 25 13 26 24 39 11 15
-15 -10 -11 -13 -20 -7 -20 14 0 35 37 27 50 -3 5 3 13 12 19 16 9 16 10 1 11
-9 0 -31 -12 -48 -26z"></path>
<path class="node" id="node53" d="M1166 1485 c4 -8 8 -15 10 -15 2 0 4 7 4 15 0 8 -4 15 -10 15 -5 0
-7 -7 -4 -15z"></path>
<path class="node" id="node54" d="M1461 1460 c19 -15 21 -22 11 -28 -10 -7 -10 -11 3 -22 8 -7 15 -23
15 -36 0 -13 5 -24 10 -24 12 0 13 15 4 58 -7 32 -37 72 -55 72 -6 0 -1 -9 12
-20z"></path>
<path class="node" id="node55" d="M866 1438 c-24 -31 -26 -32 -26 -10 0 44 -18 12 -25 -44 -4 -36 -3
-60 4 -67 8 -8 11 -6 11 6 0 20 26 77 54 120 25 37 13 34 -18 -5z"></path>
<path class="node" id="node56" d="M972 1435 c-7 -14 -12 -34 -11 -43 0 -9 7 1 15 22 16 45 13 59 -4 21z"></path>
<path class="node" id="node57" d="M1082 1440 c3 -22 8 -25 51 -28 43 -3 47 -1 47 20 -1 20 -2 21 -13 8
-15 -19 -58 -14 -75 8 -12 15 -13 14 -10 -8z"></path>
<path class="node" id="node58" d="M994 1426 c-3 -8 -4 -23 -2 -33 3 -11 6 -6 9 15 6 34 2 42 -7 18z"></path>
<path class="node" id="node59" d="M951 1344 c-2 -59 27 -130 69 -168 34 -30 44 -35 60 -26 17 9 40 40
40 54 0 3 -15 13 -32 22 -38 19 -63 46 -83 89 -8 17 -14 23 -15 15 0 -35 68
-119 98 -120 19 0 14 -28 -8 -40 -16 -9 -26 -7 -49 9 -35 25 -58 72 -70 142
-6 37 -9 44 -10 23z"></path>
<path class="node" id="node60" d="M680 1295 c-9 -19 -14 -65 -14 -122 1 -51 -3 -93 -7 -93 -9 0 -36
-120 -44 -195 -3 -33 -10 -84 -16 -112 -6 -29 -7 -57 -4 -63 11 -18 68 111 76
174 l8 61 -4 -65 c-2 -50 -12 -83 -40 -142 -29 -60 -35 -84 -30 -105 7 -27 8
-25 21 21 7 27 26 77 43 110 39 79 61 173 60 256 l-1 65 -14 -34 c-20 -46 -27
-34 -13 25 8 34 8 79 2 149 -9 96 -10 99 -23 70z m1 -322 c-8 -14 -10 -4 -10
42 l1 60 10 -42 c6 -28 6 -49 -1 -60z"></path>
<path class="node" id="node61" d="M1479 1237 c-25 -23 -75 -58 -112 -77 -36 -19 -64 -36 -62 -38 7 -8
118 52 167 90 l51 41 34 -36 c52 -57 46 -70 -53 -113 -33 -14 -46 -22 -29 -19
52 11 135 57 135 75 0 17 -46 86 -71 107 -11 9 -23 3 -60 -30z"></path>
<path class="node" id="node62" d="M1264 1155 c-8 -13 -30 -33 -47 -44 -18 -12 -28 -21 -23 -21 5 0 24
11 42 25 37 29 49 31 40 10 -3 -8 -1 -15 4 -15 6 0 10 16 10 35 0 41 -4 43
-26 10z"></path>
<path class="node" id="node63" d="M734 1110 c3 -30 6 -84 6 -120 l1 -65 24 45 c31 59 31 100 -1 147
-36 54 -37 54 -30 -7z"></path>
<path class="node" id="node64" d="M550 1059 c-7 -28 -10 -77 -7 -108 5 -59 33 -141 48 -141 12 0 11
152 -1 185 -5 14 -11 46 -12 70 -2 25 -6 45 -10 45 -3 0 -12 -23 -18 -51z"></path>
<path class="node" id="node65" d="M1158 1073 c7 -3 16 -2 19 1 4 3 -2 6 -13 5 -11 0 -14 -3 -6 -6z"></path>
<path class="node" id="node66" d="M1751 897 c-43 -76 -53 -98 -48 -104 8 -8 56 69 67 107 13 46 9 46
-19 -3z"></path>
<path class="node" id="node67" d="M1675 691 c-53 -40 -83 -71 -69 -71 16 1 103 69 114 90 14 26 14 26
-45 -19z"></path>
<path class="node" id="node68" d="M655 680 c-12 -52 -8 -100 12 -129 l17 -26 8 37 c5 26 2 54 -11 95
l-18 58 -8 -35z"></path>
<path class="node" id="node69" d="M738 655 c-24 -45 -30 -114 -14 -150 l14 -30 1 38 c1 21 6 58 12 81
6 24 9 54 7 67 -4 24 -4 23 -20 -6z"></path>
<path class="node" id="node70" d="M786 618 c-5 -16 -5 -36 0 -45 7 -16 8 -15 11 5 3 12 3 32 0 45 -3
21 -4 20 -11 -5z"></path>
<path class="node" id="node71" d="M817 544 c5 -47 38 -113 72 -142 60 -52 63 -45 15 50 -64 130 -95
162 -87 92z"></path>
<path class="node" id="node72" d="M1514 545 c-18 -15 -18 -15 5 -13 14 2 26 9 29 16 5 17 -10 15 -34
-3z"></path>
<path class="node" id="node73" d="M762 485 c6 -19 25 -47 41 -62 l30 -28 -32 44 c-17 24 -31 50 -31 57
0 7 -4 15 -9 18 -5 4 -4 -10 1 -29z"></path>
<path class="node" id="node74" d="M1430 497 c-24 -11 -23 -11 19 -15 30 -2 49 2 60 12 14 15 12 16 -19
15 -19 0 -46 -5 -60 -12z"></path>
<path class="node" id="node75" d="M1555 500 c-13 -6 -15 -9 -5 -9 8 0 22 4 30 9 18 12 2 12 -25 0z"></path>
<path class="node" id="node76" d="M1315 445 l-30 -13 30 -2 c60 -4 110 2 135 16 23 12 21 13 -40 13
-36 0 -78 -6 -95 -14z"></path>
<path class="node" id="node77" d="M1006 409 c16 -17 45 -39 66 -50 35 -18 118 -37 118 -26 0 17 -172
107 -204 107 -6 0 3 -14 20 -31z"></path>
<path class="node" id="node78" d="M1110 423 c0 -26 108 -73 165 -73 27 1 23 5 -35 34 -68 35 -130 54
-130 39z"></path>
<path class="node" id="node79" d="M1230 413 c50 -23 122 -28 153 -12 24 13 22 14 -36 14 -34 0 -82 3
-107 7 l-45 7 35 -16z"></path>
</g>
</svg>