<!--?xml version="1.0" standalone="no"?-->

<svg version="1.0" xmlns="http://www.w3.org/2000/svg" width="270.000000pt" height="300.000000pt" viewBox="0 0 270.000000 300.000000" preserveAspectRatio="xMidYMid meet">
<g transform="translate(0.000000,300.000000) scale(0.100000,-0.100000)" fill="#080808" stroke="none">
<path class="node" id="node1" d="M1560 2605 c-119 -55 -188 -92 -245 -132 -59 -40 -75 -53 -145 -111
-34 -28 -37 -29 -132 -24 -103 5 -136 -6 -183 -58 l-18 -20 36 15 c20 8 51 15
69 15 35 0 78 -23 78 -42 0 -12 -75 -81 -126 -116 -19 -12 -48 -25 -65 -29
-20 -4 -37 -16 -48 -34 -18 -32 -84 -68 -140 -76 -44 -7 -68 -27 -87 -72 -21
-49 -18 -66 17 -95 44 -38 74 -34 129 18 70 65 127 80 254 65 179 -21 231 -4
273 87 13 30 28 54 33 54 11 0 57 -56 77 -94 21 -40 29 -18 14 41 -14 53 -11
59 20 43 l22 -12 -22 35 c-28 45 -14 55 45 32 112 -43 116 -161 8 -238 -124
-88 -321 -126 -513 -101 -58 8 -113 14 -120 14 -22 0 60 -57 92 -65 15 -4 26
-12 25 -17 -4 -12 -101 -44 -153 -51 -57 -7 -146 -67 -240 -161 -86 -87 -115
-136 -141 -236 -21 -81 -14 -140 28 -256 l33 -89 10 68 c5 37 15 68 20 69 31
4 92 -202 80 -271 -3 -20 -8 -49 -10 -66 -7 -52 -33 -135 -47 -152 -12 -15
-10 -15 13 0 47 31 95 104 143 219 19 46 39 82 44 81 5 -1 58 -29 117 -62 59
-33 129 -67 154 -75 l46 -16 -35 29 c-19 16 -33 32 -30 35 3 2 37 -9 75 -26
260 -112 412 -219 472 -332 27 -50 29 -5 3 73 -35 103 -99 184 -214 271 -31
23 -56 46 -56 50 0 4 18 10 39 13 22 3 55 12 73 22 33 16 33 16 53 -12 35 -49
89 -96 135 -117 37 -17 70 -21 185 -24 80 -2 151 1 165 7 20 8 7 10 -62 10
-69 1 -99 6 -141 25 -76 33 -80 46 -15 46 61 0 101 17 106 44 3 15 0 17 -14
11 -49 -21 -73 -18 -104 13 -35 36 -36 38 -10 79 35 58 148 77 280 47 117 -26
173 -76 206 -179 l12 -40 13 33 c8 17 19 32 25 32 7 0 23 -21 35 -47 34 -70
39 -218 10 -288 l-21 -50 36 40 c20 22 52 73 71 113 34 70 35 76 31 160 -5 92
-18 129 -75 217 -78 122 -406 319 -638 385 -16 4 -51 15 -77 23 -52 16 -64 9
-20 -14 57 -29 189 -119 232 -159 l45 -41 -60 7 c-153 17 -185 20 -185 14 0
-3 16 -12 35 -19 19 -7 35 -16 35 -21 0 -4 -34 -15 -75 -25 l-75 -16 -27 26
c-36 34 -100 71 -137 79 l-29 7 31 -36 c45 -50 45 -106 0 -152 -63 -65 -221
-90 -348 -55 -90 25 -92 37 -7 46 34 4 80 15 102 26 l40 18 -38 1 c-75 2 -183
24 -227 46 -71 36 -102 75 -108 135 -2 28 0 50 5 50 5 0 24 -18 41 -40 38 -46
87 -85 122 -95 24 -8 23 -7 -8 29 -17 20 -34 47 -38 61 -9 35 12 88 50 127 54
56 107 76 294 113 47 10 41 -12 -10 -35 l-43 -20 52 0 c63 0 188 23 228 43 17
8 87 43 157 76 124 61 202 120 252 191 17 25 17 25 32 5 46 -62 81 -275 53
-327 -6 -11 -8 -22 -5 -26 11 -10 83 68 112 122 27 47 29 59 29 157 l0 106
-47 94 c-26 52 -68 122 -94 157 -25 34 -44 65 -41 69 8 8 146 -58 210 -101 48
-33 67 -48 140 -115 l28 -26 -10 26 c-31 82 -181 263 -258 310 -18 12 -33 24
-33 29 0 10 77 26 170 36 90 10 47 21 -118 29 -70 4 -134 9 -142 12 -17 6 -4
11 130 48 47 12 110 30 140 38 30 8 76 18 103 22 26 4 50 12 54 18 10 17 -488
-11 -577 -32 -88 -22 -88 -22 -92 -2 -3 17 -9 17 -123 -9 -66 -16 -122 -26
-125 -23 -13 12 23 40 69 53 51 15 68 30 32 30 -11 0 -22 4 -25 9 -7 10 61 81
134 140 78 63 76 61 60 61 -8 0 -40 -12 -70 -25z m-450 -442 c0 -5 -25 -29
-54 -55 -46 -41 -61 -48 -95 -48 -23 0 -41 4 -41 8 0 12 57 52 110 79 46 22
80 29 80 16z"></path>
</g>
<g transform="translate(0.000000,300.000000) scale(0.100000,-0.100000)" fill="#A0A0A0" stroke="none">

<path class="node" id="node3" d="M1030 2147 c-53 -27 -110 -67 -110 -79 0 -4 18 -8 41 -8 34 0 49 7
95 48 29 26 54 50 54 55 0 13 -34 6 -80 -16z"></path>
</g>
</svg>