<!--?xml version="1.0" standalone="no"?-->

<svg version="1.0" xmlns="http://www.w3.org/2000/svg" width="243.000000pt" height="300.000000pt" viewBox="0 0 243.000000 300.000000" preserveAspectRatio="xMidYMid meet">
<g transform="translate(0.000000,300.000000) scale(0.100000,-0.100000)" fill="#202020" stroke="none">
<path class="node" id="node1" d="M1415 2989 c-149 -127 -270 -265 -333 -379 -36 -66 -51 -112 -31 -92
7 6 32 12 54 12 l42 0 59 117 c68 135 111 204 178 286 43 53 57 78 31 56z"></path>
<path class="node" id="node2" d="M1614 2934 c-184 -111 -343 -260 -422 -397 -27 -47 -27 -51 -1 -87
l22 -29 27 57 c61 126 224 314 377 434 56 44 70 58 60 58 -2 0 -30 -16 -63
-36z"></path>
<path class="node" id="node3" d="M1905 2910 c-139 -16 -317 -83 -404 -152 l-26 -20 85 4 c79 3 90 6
154 45 82 50 207 104 258 111 21 2 35 8 32 13 -6 10 -9 10 -99 -1z"></path>
<path class="node" id="node4" d="M1890 2821 c-64 -7 -147 -36 -181 -62 l-24 -19 43 0 c23 0 94 14 158
30 63 17 150 33 192 37 75 7 76 7 32 14 -53 9 -143 9 -220 0z"></path>
<path class="node" id="node5" d="M1855 2740 c-30 -11 -44 -20 -35 -23 68 -24 81 -25 131 -12 28 8 88
17 133 20 44 3 92 9 106 12 l25 6 -25 7 c-14 5 -83 8 -155 8 -101 0 -141 -4
-180 -18z"></path>
<path class="node" id="node6" d="M1478 2707 c-21 -7 -58 -29 -83 -50 -47 -40 -61 -68 -22 -44 12 8 55
20 94 26 40 7 83 21 95 30 13 10 37 25 53 34 l30 16 -65 0 c-36 0 -82 -6 -102
-12z"></path>
<path class="node" id="node7" d="M1682 2700 c-19 -4 -46 -19 -60 -33 -15 -13 -59 -41 -97 -61 -76 -39
-120 -88 -89 -100 12 -4 14 -14 9 -38 -8 -44 -36 -108 -47 -108 -10 0 -11 -3
8 59 21 72 12 74 -17 5 -25 -64 -71 -121 -106 -135 -19 -7 -22 -13 -17 -36 4
-16 10 -32 14 -36 9 -10 78 57 105 103 21 36 124 100 161 100 29 0 40 16 49
70 13 82 56 141 135 189 19 11 30 21 23 21 -6 0 -17 2 -25 4 -7 2 -28 0 -46
-4z"></path>
<path class="node" id="node8" d="M1750 2672 c-34 -23 -41 -30 -83 -85 -20 -27 -37 -54 -37 -61 0 -9
23 -15 73 -19 140 -10 218 -72 273 -221 13 -34 23 -56 23 -49 1 18 36 34 90
42 41 5 46 9 49 33 3 25 6 27 35 21 28 -6 30 -4 19 9 -18 22 -50 29 -56 12 -7
-18 -56 -18 -56 0 0 7 -11 30 -25 51 -15 20 -24 40 -21 42 3 3 23 -9 46 -27
46 -37 49 -34 16 18 -53 84 -180 170 -277 187 -31 6 -38 3 -52 -18 -16 -24
-15 -25 11 -32 38 -9 132 -68 163 -102 29 -30 89 -122 89 -135 0 -16 -29 -8
-34 10 -28 87 -141 181 -242 202 -30 6 -54 13 -54 16 0 11 48 58 73 71 46 23
142 -4 242 -69 17 -11 9 -1 -19 26 -50 46 -155 96 -199 95 -12 0 -33 -8 -47
-17z"></path>
<path class="node" id="node9" d="M1940 2681 c-8 -5 -12 -11 -10 -13 30 -19 53 -28 60 -23 6 3 69 6
142 6 130 1 132 1 93 16 -48 18 -263 29 -285 14z"></path>
<path class="node" id="node10" d="M2016 2621 c-3 -5 2 -15 11 -22 12 -10 52 -14 150 -14 119 0 130 1
102 13 -69 29 -250 44 -263 23z"></path>
<path class="node" id="node11" d="M1407 2606 c-31 -9 -63 -27 -89 -52 -39 -39 -78 -101 -78 -126 0 -8
-9 -31 -20 -53 -11 -21 -17 -41 -14 -44 11 -11 81 78 113 144 34 68 77 107
134 120 32 8 46 25 20 24 -10 0 -40 -6 -66 -13z"></path>
<path class="node" id="node12" d="M1402 2554 c-18 -15 -44 -51 -57 -81 -13 -29 -50 -81 -82 -115 -61
-64 -55 -69 27 -28 50 25 65 46 90 120 12 36 30 80 40 98 11 17 18 32 17 32
-1 0 -17 -12 -35 -26z"></path>
<path class="node" id="node13" d="M892 2552 c-1 -13 -8 -30 -14 -37 -30 -34 -38 -45 -38 -55 0 -6 -4
-8 -10 -5 -5 3 -10 -1 -10 -9 0 -9 -9 -25 -20 -36 -11 -11 -20 -17 -20 -12 0
4 -14 -18 -32 -48 -26 -46 -31 -65 -31 -115 0 -33 7 -77 16 -97 13 -31 13 -39
2 -48 -21 -17 -12 -93 13 -118 11 -11 22 -26 24 -33 3 -8 8 -12 11 -9 4 3 0
18 -8 33 -13 25 -13 27 8 27 29 0 43 -10 51 -37 4 -13 12 -23 17 -23 6 0 5 8
-1 21 -16 28 -4 36 20 14 21 -19 29 -8 8 13 -8 8 -8 15 2 27 13 15 5 20 -27
16 -18 -2 -36 37 -29 64 3 13 20 33 36 45 26 18 30 19 30 5 0 -9 4 -14 10 -10
5 3 17 -6 26 -21 14 -21 15 -30 6 -45 -9 -14 -9 -17 1 -13 8 3 19 -7 27 -23 8
-17 14 -23 17 -15 3 7 -2 21 -11 31 -15 17 -13 21 37 69 35 32 69 55 96 62 59
15 51 21 -20 14 -55 -5 -60 -4 -57 12 2 16 -3 18 -29 16 -28 -3 -33 0 -33 18
0 19 -4 21 -27 15 -16 -3 -39 -20 -53 -36 -14 -16 -31 -29 -38 -29 -7 0 -12
-7 -12 -15 0 -8 -6 -15 -14 -15 -7 0 -19 -7 -26 -15 -20 -24 -26 -18 -38 36
-22 95 -19 105 58 183 76 76 94 115 87 181 -2 22 -4 30 -5 17z"></path>
<path class="node" id="node14" d="M2080 2552 c0 -5 6 -16 13 -25 9 -12 33 -17 95 -19 45 -2 82 0 82 4
0 4 -25 16 -55 27 -55 21 -135 28 -135 13z"></path>
<path class="node" id="node15" d="M1070 2486 c-6 -6 -10 -6 -10 -2 0 5 -7 3 -16 -5 -13 -10 -17 -10
-24 0 -5 10 -15 3 -34 -25 -22 -33 -25 -45 -20 -86 5 -33 3 -48 -5 -48 -6 0
-11 11 -11 25 0 43 -18 27 -29 -25 -6 -28 -11 -53 -11 -56 0 -2 11 -1 26 2 17
4 29 1 37 -10 11 -15 14 -15 35 -1 12 9 22 22 22 30 0 26 54 78 105 101 39 18
44 23 26 23 -24 1 -24 1 -5 16 18 14 18 14 0 15 -12 0 -16 5 -12 15 3 9 0 15
-10 15 -10 0 -14 6 -11 14 6 16 -38 17 -53 2z"></path>
<path class="node" id="node16" d="M1616 2466 c-3 -13 -8 -31 -12 -39 -4 -11 5 -16 33 -22 20 -4 50 -13
65 -21 27 -14 28 -13 62 33 l35 48 -37 12 c-20 6 -60 12 -88 12 -47 1 -52 -1
-58 -23z"></path>
<path class="node" id="node17" d="M2112 2468 c3 -22 8 -23 87 -25 96 -3 98 8 6 31 -83 22 -97 21 -93
-6z"></path>
<path class="node" id="node18" d="M1790 2415 c-19 -25 -38 -45 -44 -45 -5 0 8 -16 30 -35 35 -32 44
-35 87 -32 26 2 47 1 47 -3 0 -4 -21 -12 -47 -18 -44 -10 -50 -9 -72 11 -21
19 -23 20 -18 4 4 -10 7 -29 7 -41 0 -20 6 -24 53 -30 28 -3 70 -9 91 -13 l39
-6 -5 46 c-7 62 -46 134 -95 174 l-40 33 -33 -45z"></path>
<path class="node" id="node19" d="M2132 2408 c4 -12 88 -42 95 -34 7 6 -64 46 -82 46 -9 0 -15 -6 -13
-12z"></path>
<path class="node" id="node20" d="M1106 2351 c-27 -18 -55 -55 -56 -73 0 -9 57 1 80 13 13 7 23 79 10
79 -3 0 -18 -9 -34 -19z"></path>
<path class="node" id="node21" d="M1452 2345 c-17 -14 -44 -47 -61 -74 -38 -59 -69 -81 -136 -97 l-50
-12 43 -1 c68 -1 225 90 207 120 -4 5 0 12 9 15 8 3 13 11 10 19 -3 7 3 15 14
17 21 6 26 38 6 38 -7 0 -26 -11 -42 -25z"></path>
<path class="node" id="node22" d="M2327 2303 c-19 -27 -38 -59 -42 -73 -9 -25 -14 -189 -8 -202 2 -4
20 -1 40 7 47 20 50 19 27 -6 -15 -17 -27 -20 -61 -15 -29 4 -45 1 -53 -9 -8
-10 -32 -15 -71 -15 -48 0 -59 -3 -64 -19 -6 -19 -73 -77 -80 -69 -6 6 9 23
38 41 15 10 27 24 27 32 0 24 -30 17 -53 -11 -11 -15 -36 -33 -56 -42 l-36
-15 34 -9 c24 -7 31 -12 23 -20 -8 -8 -15 -8 -25 1 -12 9 -16 8 -21 -5 -11
-28 -5 -168 9 -204 13 -35 13 -35 14 33 1 37 8 83 16 103 8 19 12 41 9 49 -4
8 -1 15 5 15 6 0 11 -8 12 -17 1 -12 4 -9 8 7 6 21 13 25 41 25 27 0 37 -5 45
-22 11 -25 31 -32 22 -9 -3 8 -1 31 4 50 8 30 15 36 36 36 15 0 34 6 42 14 20
17 81 29 81 16 0 -6 -14 -13 -30 -17 -33 -6 -60 -36 -60 -65 0 -10 -7 -18 -16
-18 -15 0 -16 -12 -11 -97 5 -93 30 -193 50 -193 4 0 3 9 -3 19 -12 23 -13
150 -2 168 4 6 16 11 27 10 18 -2 20 3 17 65 l-2 66 55 16 54 16 0 98 c-1 100
12 154 43 180 14 12 14 16 1 43 -9 18 -13 42 -9 60 5 26 3 29 -18 29 -17 0
-34 -14 -59 -47z m-1 -85 c-3 -13 -6 -28 -6 -34 0 -6 -7 -11 -15 -11 -18 0
-19 8 -3 42 14 31 33 33 24 3z m-101 -388 c28 -31 9 -37 -21 -7 -18 19 -22 27
-12 27 8 0 23 -9 33 -20z"></path>
<path class="node" id="node23" d="M2274 2312 c-24 -17 -53 -27 -70 -26 -16 1 -41 -5 -56 -12 -15 -8
-39 -14 -53 -14 -66 0 -120 -64 -96 -116 9 -21 17 -25 44 -22 26 2 34 9 43 36
5 17 16 38 23 45 10 10 11 5 6 -25 -6 -30 -4 -39 10 -44 22 -9 85 22 85 41 0
9 11 20 24 25 13 5 26 20 30 36 4 15 21 45 38 66 35 45 28 48 -28 10z"></path>
<path class="node" id="node24" d="M1140 2271 c-8 -6 -35 -13 -61 -16 -35 -5 -46 -10 -42 -21 3 -8 9
-11 14 -8 5 3 9 -1 9 -8 0 -8 14 -13 38 -14 20 0 65 -4 100 -9 l63 -8 -7 29
c-4 16 -14 37 -22 47 -16 18 -68 23 -92 8z"></path>
<path class="node" id="node25" d="M1530 2245 c-14 -8 -34 -14 -46 -15 -11 0 -29 -7 -40 -15 -18 -14
-17 -14 13 -15 22 0 36 -6 44 -21 11 -21 11 -21 32 -1 12 11 32 25 44 31 20
10 21 14 10 31 -14 23 -23 24 -57 5z"></path>
<path class="node" id="node26" d="M1600 2201 c-44 -25 -45 -27 -28 -43 20 -20 24 -53 8 -63 -5 -3 -10
1 -10 9 0 9 -4 16 -10 16 -5 0 -7 7 -4 15 7 18 3 19 -30 3 -29 -12 -60 -73
-71 -133 l-7 -40 31 42 c33 46 75 78 89 69 13 -8 38 14 59 53 22 40 43 51 43
24 0 -11 5 -24 11 -30 15 -15 52 28 43 51 -5 14 -65 58 -75 55 -2 -1 -24 -13
-49 -28z"></path>
<path class="node" id="node27" d="M1775 2171 c7 -41 -9 -85 -39 -110 -21 -18 -20 -6 5 46 27 57 20 75
-11 27 -14 -21 -39 -48 -55 -58 l-31 -20 71 -69 70 -69 54 58 c30 32 68 87 84
123 29 60 29 65 13 77 -20 14 -103 34 -142 34 -24 0 -25 -2 -19 -39z"></path>
<path class="node" id="node28" d="M1436 2175 c-9 -9 -20 -35 -26 -58 -6 -23 -15 -57 -20 -74 -12 -47 3
-49 29 -3 12 22 34 54 48 71 23 27 24 33 13 55 -16 28 -23 30 -44 9z"></path>
<path class="node" id="node29" d="M1168 2173 c6 -2 18 -2 25 0 6 3 1 5 -13 5 -14 0 -19 -2 -12 -5z"></path>
<path class="node" id="node30" d="M1370 2165 c-10 -12 -10 -15 0 -15 9 0 10 -3 1 -14 -15 -17 -26 -100
-16 -123 5 -12 12 7 21 61 9 51 21 84 32 92 16 12 15 13 -4 14 -12 0 -27 -7
-34 -15z"></path>
<path class="node" id="node31" d="M1081 2145 c-31 -14 -33 -17 -27 -50 5 -27 2 -40 -14 -57 -11 -12
-20 -28 -20 -35 0 -7 -5 -13 -11 -13 -5 0 -7 -5 -4 -10 4 -6 15 -8 26 -5 10 4
19 2 19 -3 0 -11 -47 -22 -91 -22 -44 0 -76 -19 -104 -65 -32 -49 -71 -75
-114 -75 -41 0 -40 -18 2 -22 l32 -4 -25 -11 c-21 -10 -22 -12 -5 -12 44 0 79
26 115 85 42 68 66 84 133 84 48 0 84 20 73 39 -9 14 13 63 25 56 6 -4 13 2
16 14 3 12 12 21 19 21 15 0 18 37 8 78 -7 26 -8 26 -53 7z"></path>
<path class="node" id="node32" d="M1157 2110 c4 -29 1 -42 -16 -59 -11 -11 -21 -28 -21 -36 0 -8 -6
-15 -14 -15 -9 0 -12 -7 -9 -20 3 -12 0 -20 -6 -20 -7 0 -11 -6 -9 -14 5 -22
-53 -70 -71 -59 -26 15 -76 1 -76 -22 0 -11 6 -21 13 -21 6 -1 21 -2 33 -3 12
0 17 -5 13 -12 -3 -6 -15 -9 -25 -6 -15 4 -19 0 -19 -21 0 -35 9 -47 39 -55
53 -13 78 2 104 62 14 31 30 72 36 91 10 33 44 88 115 189 16 23 27 43 25 45
-2 2 -29 6 -60 9 l-57 5 5 -38z"></path>
<path class="node" id="node33" d="M856 2101 c-35 -39 -2 -77 39 -47 20 14 20 15 -2 34 -13 10 -20 22
-16 26 3 3 4 6 1 6 -3 0 -13 -9 -22 -19z"></path>
<path class="node" id="node34" d="M1277 2102 c-19 -20 -23 -62 -7 -62 6 0 10 8 10 18 0 10 7 28 16 40
18 27 4 29 -19 4z"></path>
<path class="node" id="node35" d="M1948 2076 c-16 -24 -63 -79 -105 -123 -58 -58 -72 -78 -55 -75 29 6
28 -9 -5 -49 -29 -35 -85 -63 -145 -74 -56 -11 -50 16 16 67 30 23 54 44 52
45 -8 9 -147 -78 -188 -118 -58 -55 -63 -74 -13 -53 19 7 57 14 85 14 37 0 69
9 113 31 84 41 132 90 159 162 19 48 30 62 60 78 21 11 45 33 53 49 12 23 22
30 46 30 20 0 29 -4 26 -12 -2 -7 -10 -13 -18 -14 -8 0 -33 -19 -55 -42 -23
-23 -51 -42 -62 -42 -16 0 -21 -9 -26 -43 -4 -23 -15 -57 -25 -74 -19 -31
-122 -110 -173 -134 -16 -7 -28 -16 -28 -21 0 -4 8 -4 18 1 9 5 48 21 86 37
97 39 142 84 151 152 6 46 11 55 38 68 18 9 46 30 63 46 23 22 38 28 53 23 17
-5 24 1 43 40 22 45 22 47 5 60 -15 11 -23 10 -48 -2 -26 -13 -33 -13 -61 1
-17 9 -32 16 -32 16 -1 0 -13 -20 -28 -44z"></path>
<path class="node" id="node36" d="M980 2061 c0 -6 5 -13 10 -16 6 -3 10 1 10 9 0 9 -4 16 -10 16 -5 0
-10 -4 -10 -9z"></path>
<path class="node" id="node37" d="M1303 2000 c-6 -16 -16 -30 -22 -30 -14 0 -14 17 -1 25 6 3 10 11 10
17 0 6 -18 -6 -40 -26 -22 -20 -49 -36 -60 -36 -18 0 -26 -13 -57 -90 -6 -14
-11 -28 -11 -33 -1 -4 -9 -21 -17 -37 -24 -46 -10 -36 37 26 23 31 67 73 98
94 54 36 87 84 78 110 -2 6 -8 -3 -15 -20z"></path>
<path class="node" id="node38" d="M1565 1998 c-78 -47 -182 -93 -278 -123 -78 -25 -91 -33 -118 -70
-53 -73 -128 -99 -212 -70 -42 14 -50 14 -83 0 -31 -13 -34 -17 -24 -30 10
-12 3 -25 -46 -78 -33 -34 -73 -89 -91 -122 -17 -33 -39 -69 -47 -80 -14 -18
-14 -16 -1 23 16 48 72 147 117 207 20 26 8 17 -35 -27 -103 -105 -177 -252
-177 -351 0 -24 3 -28 18 -22 9 5 63 10 120 13 l102 4 0 27 c0 15 -5 32 -12
39 -9 9 -8 15 4 24 20 15 41 89 32 112 -4 11 0 16 13 16 25 0 43 19 43 46 0
16 5 21 18 17 24 -6 56 31 49 57 -6 23 5 26 23 5 16 -19 50 -2 50 25 0 21 15
27 24 11 10 -16 46 0 46 21 0 14 5 18 16 14 27 -10 64 4 64 26 0 14 5 18 16
14 8 -3 35 -1 60 5 37 10 44 15 44 36 0 21 2 23 15 13 8 -7 12 -16 9 -21 -7
-12 13 -11 38 2 16 9 19 17 14 42 l-6 32 24 -29 c24 -29 25 -29 51 -12 22 14
25 22 20 47 -8 36 0 37 18 4 l13 -26 28 22 c22 17 26 26 21 50 -8 37 8 38 24
2 12 -26 11 -30 -25 -60 -20 -18 -34 -33 -30 -33 13 0 170 81 185 95 19 18 7
45 -42 92 l-42 41 -50 -30z"></path>
<path class="node" id="node39" d="M932 2000 c14 -22 24 -19 15 5 -4 8 -11 15 -17 15 -6 0 -6 -7 2 -20z"></path>
<path class="node" id="node40" d="M890 1991 c0 -6 5 -13 10 -16 6 -3 10 1 10 9 0 9 -4 16 -10 16 -5 0
-10 -4 -10 -9z"></path>
<path class="node" id="node41" d="M799 1952 c16 -30 33 -38 22 -11 -4 13 -14 25 -20 27 -10 3 -10 0 -2
-16z"></path>
<path class="node" id="node42" d="M2042 1868 c-16 -16 -15 -69 3 -147 23 -96 33 -105 30 -26 -2 39 2
86 9 105 13 38 10 74 -5 65 -5 -4 -9 -1 -9 4 0 14 -13 14 -28 -1z"></path>
<path class="node" id="node43" d="M1700 1829 c-34 -21 -52 -40 -45 -47 4 -4 74 32 100 52 l20 15 -20 1
c-11 0 -36 -10 -55 -21z"></path>
<path class="node" id="node44" d="M1451 1733 c-22 -21 -51 -57 -64 -81 -18 -36 -31 -47 -81 -67 -33
-14 -62 -22 -65 -19 -8 7 79 82 111 95 15 6 28 16 28 21 0 21 -141 -67 -198
-124 -67 -65 -80 -65 -33 -1 43 59 132 128 201 155 74 28 79 42 8 22 -68 -19
-170 -68 -207 -99 -39 -33 -73 -117 -79 -195 l-5 -65 35 35 c62 63 101 87 223
134 164 63 289 128 270 139 -22 12 -60 5 -134 -24 -13 -5 -26 -8 -28 -5 -7 6
22 58 47 84 37 39 16 35 -29 -5z"></path>
<path class="node" id="node45" d="M1050 1579 c-60 -36 -150 -131 -183 -194 -28 -53 -32 -70 -31 -140 0
-69 4 -90 31 -147 51 -110 117 -132 227 -78 71 36 105 70 125 128 22 58 16 64
-23 25 -14 -14 -29 -23 -33 -19 -4 3 -1 12 5 18 23 23 12 27 -20 8 -18 -11
-42 -20 -53 -20 -18 0 -18 2 5 20 l25 20 -42 0 c-43 0 -57 12 -28 24 24 9 17
21 -17 31 -21 6 -34 18 -36 30 -3 16 -1 18 9 8 7 -7 22 -13 32 -13 17 0 17 3
-6 29 -13 16 -28 47 -32 67 l-7 38 -19 -24 c-26 -34 -59 -143 -59 -196 0 -53
-16 -58 -26 -9 -14 78 21 189 86 268 32 38 54 49 44 22 -8 -21 4 -99 19 -119
10 -13 12 1 13 76 0 63 5 105 17 131 9 20 15 37 14 37 -1 0 -18 -9 -37 -21z"></path>
<path class="node" id="node46" d="M1658 1374 c-57 -13 -172 -65 -182 -82 -3 -5 16 -5 42 -2 26 4 52 5
59 3 7 -3 43 13 81 35 37 22 76 45 87 51 19 10 19 10 -5 10 -14 0 -51 -7 -82
-15z"></path>
<path class="node" id="node47" d="M1473 1337 c-40 -18 -85 -42 -100 -55 l-28 -23 39 6 c22 4 58 22 86
43 26 20 56 42 66 49 32 20 12 14 -63 -20z"></path>
<path class="node" id="node48" d="M1795 1355 c-63 -13 -135 -44 -135 -56 0 -4 33 -7 73 -7 57 0 84 6
132 28 33 15 71 32 85 38 21 9 16 11 -35 11 -33 -1 -87 -6 -120 -14z"></path>
<path class="node" id="node49" d="M1315 1291 c-40 -25 -88 -77 -62 -68 10 4 24 7 31 7 7 0 27 18 45 40
35 44 32 50 -14 21z"></path>
<path class="node" id="node50" d="M1870 1293 c-45 -9 -43 -21 5 -42 57 -25 68 -26 165 -5 43 9 92 13
115 9 46 -7 38 6 -15 24 -37 13 -227 23 -270 14z"></path>
<path class="node" id="node51" d="M1434 1255 c-39 -7 -93 -23 -120 -34 -44 -19 -51 -27 -67 -71 -20
-55 -77 -111 -151 -149 -26 -12 -45 -25 -43 -27 10 -10 104 20 140 44 21 14
50 45 64 69 30 52 44 55 36 9 -3 -18 0 -44 7 -57 12 -21 10 -26 -21 -52 -38
-32 -15 -27 44 10 40 25 43 33 26 62 -16 24 -4 67 25 96 l24 24 -27 4 c-25 3
-25 4 13 21 46 21 136 33 136 19 0 -6 -10 -18 -22 -27 l-23 -17 25 6 c14 4 45
9 70 12 57 6 146 48 128 59 -22 14 -190 14 -264 -1z"></path>
<path class="node" id="node52" d="M1712 1227 l-44 -32 34 -7 c18 -3 45 -4 59 -1 34 6 100 -12 133 -38
23 -18 24 -22 11 -36 -9 -8 -22 -28 -30 -44 -28 -54 -48 -24 -24 37 l10 28
-22 -19 c-25 -23 -64 -103 -54 -113 3 -4 18 -7 33 -8 15 -1 37 -4 49 -8 19 -6
25 -2 34 21 15 40 48 73 93 92 l39 17 -45 37 c-59 48 -173 107 -206 107 -15
-1 -47 -15 -70 -33z"></path>
<path class="node" id="node53" d="M640 1237 l-55 -12 1 -43 c1 -38 7 -60 35 -114 11 -22 11 -28 1 -28
-5 0 -16 16 -25 35 -11 24 -23 35 -38 35 -14 0 -19 5 -16 14 6 16 -28 51 -59
60 -15 5 -31 -1 -52 -19 -16 -14 -41 -25 -54 -25 -13 0 -33 -7 -44 -15 -18
-15 -17 -16 12 -10 37 7 70 -22 61 -55 -7 -28 -1 -25 42 20 21 22 46 40 57 40
14 0 3 -15 -41 -56 -49 -46 -55 -55 -34 -50 37 8 59 -12 61 -57 1 -20 4 -37 8
-37 15 0 30 28 24 43 -6 16 21 77 34 77 33 -1 86 -32 110 -66 35 -48 96 -102
129 -115 19 -7 32 -6 49 6 21 14 60 73 52 79 -2 2 -24 12 -49 24 -25 12 -58
36 -75 54 -29 31 -28 32 24 11 7 -3 -2 17 -20 45 -18 28 -38 58 -43 68 -10 15
-14 15 -33 3 -12 -8 -22 -17 -22 -22 0 -24 48 -103 91 -147 43 -45 54 -70 30
-70 -12 0 -63 51 -94 93 -37 49 -80 144 -74 161 3 7 31 18 63 24 74 15 74 15
74 -7 0 -31 59 -134 97 -168 36 -33 69 -47 38 -16 -35 35 -70 101 -91 173
l-22 75 -48 2 c-27 1 -74 -4 -104 -10z"></path>
<path class="node" id="node54" d="M1970 1202 c0 -12 82 -76 100 -78 8 -1 46 -5 85 -8 38 -4 89 -16 112
-26 24 -10 43 -16 43 -12 0 10 -94 67 -145 88 -84 35 -195 55 -195 36z"></path>
<path class="node" id="node55" d="M1513 1165 c-17 -12 -26 -13 -40 -4 -14 8 -27 8 -55 -4 -30 -12 -38
-22 -43 -50 -13 -69 38 -103 109 -73 38 16 43 25 24 44 -22 22 1 24 28 3 35
-28 62 -27 86 4 28 36 41 31 18 -7 -11 -18 -20 -39 -20 -47 0 -8 -32 -48 -71
-88 -40 -41 -69 -76 -66 -79 2 -3 22 4 43 15 48 26 52 26 56 -1 3 -20 6 -19
22 15 17 35 36 49 36 27 0 -5 27 11 60 36 52 39 62 52 75 99 9 29 22 59 30 65
8 7 15 16 15 20 0 14 -73 21 -108 11 -27 -8 -33 -7 -29 3 11 28 -134 37 -170
11z"></path>
<path class="node" id="node56" d="M2082 1091 c2 -3 14 -23 27 -43 21 -35 26 -38 70 -38 26 0 70 -7 97
-15 27 -8 51 -15 53 -15 14 0 -62 55 -104 75 -48 24 -149 49 -143 36z"></path>
<path class="node" id="node57" d="M268 1069 c-17 -12 -25 -26 -21 -35 4 -12 0 -14 -21 -8 -16 4 -26 2
-26 -5 0 -6 13 -11 29 -11 34 0 51 -18 30 -31 -9 -6 -15 -4 -17 6 -4 18 -14
19 -30 3 -16 -16 -14 -143 3 -188 l13 -35 1 38 c1 42 25 107 45 122 10 8 32
166 23 165 -1 0 -14 -10 -29 -21z"></path>
<path class="node" id="node58" d="M321 1068 c-15 -41 -21 -122 -13 -173 l9 -50 11 45 c7 25 25 75 41
112 31 71 28 88 -16 88 -15 0 -27 -8 -32 -22z"></path>
<path class="node" id="node59" d="M2017 1063 c-32 -62 -31 -69 18 -129 26 -31 51 -68 56 -82 5 -13 12
-22 15 -19 4 3 -11 42 -32 87 -27 58 -34 84 -27 91 22 22 90 -135 103 -236 14
-108 0 -102 -67 28 -26 51 -67 111 -90 135 -24 23 -43 46 -43 51 0 4 14 27 30
49 37 52 26 54 -24 5 -57 -57 -56 -69 13 -143 62 -67 121 -163 121 -197 0 -11
12 -30 26 -44 14 -13 36 -42 47 -64 l22 -40 3 119 c2 107 0 129 -24 204 -26
82 -95 202 -121 210 -6 2 -18 -9 -26 -25z"></path>
<path class="node" id="node60" d="M1233 1025 c-18 -19 -48 -41 -68 -51 -59 -28 -32 -27 39 2 74 29 79
34 69 62 -8 20 -10 19 -40 -13z"></path>
<path class="node" id="node61" d="M1526 1035 c-4 -11 2 -15 24 -15 36 0 48 16 17 24 -32 8 -34 8 -41
-9z"></path>
<path class="node" id="node62" d="M416 978 c-17 -26 -20 -55 -17 -153 l2 -70 18 57 c10 31 28 70 40 86
23 33 27 72 9 90 -18 18 -36 15 -52 -10z"></path>
<path class="node" id="node63" d="M1372 990 c-43 -10 -52 -20 -19 -20 111 0 -170 -102 -319 -116 -39
-3 -74 -2 -77 3 -3 5 3 20 13 33 18 24 19 24 33 6 12 -17 22 -18 79 -12 35 3
102 20 149 36 46 17 73 28 59 24 -69 -16 -197 -15 -267 3 l-72 19 -11 -26 c-6
-15 -27 -43 -47 -64 -52 -53 -38 -61 100 -60 121 1 112 -2 402 114 44 17 103
40 130 50 l50 19 -85 0 c-47 -1 -100 -5 -118 -9z"></path>
<path class="node" id="node64" d="M2155 973 c4 -10 11 -30 17 -44 7 -21 20 -30 55 -38 25 -7 59 -19 75
-27 15 -8 28 -12 28 -9 0 16 -81 90 -122 111 -57 29 -62 29 -53 7z"></path>
<path class="node" id="node65" d="M1537 847 c-16 -37 -16 -37 -71 -35 -72 3 -81 -7 -88 -95 -2 -21 -7
-27 -20 -24 -9 3 -19 -2 -22 -10 -8 -21 -7 -25 4 -18 12 8 70 -4 69 -13 -1 -4
-1 -24 0 -44 1 -30 5 -38 20 -38 17 0 18 6 14 64 -6 70 1 116 18 116 6 0 8 -7
5 -16 -4 -11 -2 -15 8 -11 8 3 30 9 49 12 20 4 45 16 56 26 27 25 28 65 2 72
-11 2 -21 15 -23 28 -4 22 -6 20 -21 -14z"></path>
<path class="node" id="node66" d="M1308 815 c-25 -30 -48 -52 -51 -49 -3 3 -18 -2 -34 -10 l-28 -16 28
6 c16 4 33 1 42 -6 20 -17 19 -69 -2 -92 -13 -15 -14 -18 -2 -18 23 0 39 21
39 53 0 15 4 26 9 22 6 -3 15 4 22 16 9 18 13 19 21 8 8 -11 9 -10 4 3 -6 19
17 69 39 88 10 8 32 11 60 8 27 -4 48 -1 54 6 7 8 -7 12 -47 13 -31 2 -60 7
-66 13 -20 20 -43 9 -88 -45z"></path>
<path class="node" id="node67" d="M2190 866 c0 -28 24 -56 57 -66 21 -7 44 -17 51 -23 27 -21 24 5 -4
34 -31 34 -104 72 -104 55z"></path>
<path class="node" id="node68" d="M1180 800 c-6 -11 -29 -32 -50 -45 -46 -29 -53 -49 -14 -39 21 5 31
2 45 -17 l18 -24 7 42 c6 37 11 45 45 60 47 20 49 29 8 37 -45 9 -47 8 -59
-14z"></path>
<path class="node" id="node69" d="M2210 759 c0 -17 10 -33 31 -48 l31 -23 -7 23 c-4 13 -18 35 -31 49
l-24 25 0 -26z"></path>
<path class="node" id="node70" d="M1222 723 c-39 -14 -71 -148 -54 -233 l8 -45 12 64 c6 35 25 87 42
117 29 52 39 91 21 79 -5 -3 -11 1 -13 8 -2 8 -9 12 -16 10z"></path>
<path class="node" id="node71" d="M1092 688 c-15 -18 -42 -130 -42 -169 l1 -34 14 39 c7 21 30 55 49
75 39 39 45 64 22 87 -18 17 -30 18 -44 2z"></path>
<path class="node" id="node72" d="M2210 678 c0 -15 24 -48 36 -48 10 0 3 20 -16 41 -15 19 -19 21 -20
7z"></path>
<path class="node" id="node73" d="M1306 610 c-10 -26 -16 -69 -15 -123 l0 -82 20 44 c10 24 33 61 51
83 32 41 47 113 21 103 -7 -2 -13 0 -13 5 0 6 -11 10 -24 10 -19 0 -27 -9 -40
-40z"></path>
<path class="node" id="node74" d="M2093 577 c0 -40 -8 -91 -16 -113 -13 -35 -13 -48 -3 -78 7 -19 15
-38 18 -42 9 -9 56 87 67 137 9 37 6 50 -16 96 -41 82 -48 82 -50 0z"></path>
<path class="node" id="node75" d="M645 484 c-59 -14 -151 -14 -190 0 -11 4 5 -8 35 -28 30 -20 62 -36
72 -36 12 0 18 -7 18 -21 0 -21 0 -21 33 -2 31 19 121 53 139 53 4 0 8 -7 8
-15 0 -12 4 -13 19 -5 11 5 45 10 76 10 47 0 56 -3 51 -15 -4 -12 5 -15 51
-15 l56 0 -39 26 c-90 61 -201 77 -329 48z"></path>
<path class="node" id="node76" d="M800 411 c-19 -4 -45 -11 -57 -15 -15 -5 -23 -3 -23 4 0 30 -128 -38
-150 -80 -14 -27 -30 -25 -30 2 0 20 -2 19 -23 -10 -13 -17 -32 -50 -42 -72
-15 -34 -22 -40 -40 -36 -15 4 -29 -1 -41 -15 -32 -36 -95 -61 -164 -67 -64
-5 -64 -6 -35 -18 41 -18 141 -17 202 1 28 8 79 36 113 61 134 98 232 146 338
163 64 10 99 5 277 -43 49 -14 91 -23 93 -21 2 2 -28 22 -67 45 -72 43 -187
80 -249 80 -26 0 -33 3 -28 15 6 17 -13 18 -74 6z"></path>
<path class="node" id="node77" d="M2035 374 c-10 -16 -35 -50 -57 -75 -36 -45 -49 -91 -29 -103 5 -4
34 18 65 47 48 45 56 58 55 87 0 19 -4 43 -8 54 -6 17 -9 16 -26 -10z"></path>
<path class="node" id="node78" d="M455 366 c-28 -12 -65 -39 -82 -59 -37 -42 -43 -45 -43 -17 0 27 -10
25 -45 -11 -28 -29 -30 -30 -33 -10 -3 21 -4 21 -46 -4 -49 -29 -60 -31 -52
-10 7 19 -7 19 -42 1 -36 -19 -65 -52 -92 -106 l-22 -44 23 17 c60 43 81 49
182 51 114 3 147 15 192 68 18 20 30 28 32 21 7 -20 20 -15 27 10 3 12 21 41
41 64 19 23 35 44 35 47 0 12 -26 6 -75 -18z"></path>
<path class="node" id="node79" d="M918 303 c6 -2 18 -2 25 0 6 3 1 5 -13 5 -14 0 -19 -2 -12 -5z"></path>
<path class="node" id="node80" d="M995 285 c22 -7 119 -44 216 -83 248 -99 376 -125 399 -82 8 15 8 20
-2 20 -7 0 -44 5 -81 10 -68 10 -109 21 -242 65 -160 53 -274 85 -301 84 -27
-1 -26 -2 11 -14z"></path>
<path class="node" id="node81" d="M735 266 c-63 -20 -99 -42 -188 -114 -45 -37 -108 -81 -140 -98 l-59
-31 32 -7 c18 -3 76 -6 129 -6 91 1 95 2 69 16 -41 22 -34 29 30 29 31 0 74 4
96 8 l38 8 -21 23 -22 23 72 7 71 7 -21 23 c-12 12 -21 25 -21 28 0 16 74 28
169 28 93 0 133 -5 216 -26 11 -2 4 4 -17 15 -20 12 -85 34 -144 51 -118 33
-218 38 -289 16z"></path>
<path class="node" id="node82" d="M1892 217 c-6 -7 -34 -24 -62 -37 -33 -16 -50 -30 -50 -42 0 -25 24
-23 88 7 46 21 52 28 52 55 0 32 -11 38 -28 17z"></path>
<path class="node" id="node83" d="M1674 143 c-21 -3 -34 -11 -37 -24 -5 -17 0 -19 48 -19 66 0 85 7 85
31 0 20 -17 22 -96 12z"></path>
</g>
<g transform="translate(0.000000,300.000000) scale(0.100000,-0.100000)" fill="#BE4FDA" stroke="none">

<path class="node" id="node85" d="M2302 2215 c-16 -34 -15 -42 3 -42 8 0 15 5 15 11 0 6 3 21 6 34 9
30 -10 28 -24 -3z"></path>
<path class="node" id="node86" d="M2204 1823 c14 -14 29 -23 33 -20 9 10 -27 47 -45 47 -10 0 -6 -8 12
-27z"></path>
</g>
</svg>