<!--?xml version="1.0" standalone="no"?-->

<svg version="1.0" xmlns="http://www.w3.org/2000/svg" width="300.000000pt" height="300.000000pt" viewBox="0 0 300.000000 300.000000" preserveAspectRatio="xMidYMid meet">
<g transform="translate(0.000000,300.000000) scale(0.100000,-0.100000)" fill="#171717" stroke="none">
<path class="node" id="node1" d="M495 2971 c-9 -29 18 -81 64 -126 27 -26 41 -48 41 -65 0 -36 39
-148 66 -190 56 -87 125 -140 182 -140 l35 0 -42 45 c-44 48 -111 147 -111
165 0 7 10 6 28 -4 65 -36 129 -57 193 -62 46 -5 69 -3 69 4 0 5 -30 27 -67
47 -104 56 -254 172 -388 297 -27 26 -53 48 -57 48 -4 0 -9 -9 -13 -19z"></path>
<path class="node" id="node2" d="M449 2903 c-5 -134 18 -242 71 -342 54 -101 144 -192 205 -207 l29
-7 -30 29 c-127 124 -203 292 -175 386 12 37 11 41 -19 75 -17 19 -39 51 -48
69 -21 44 -32 43 -33 -3z"></path>
<path class="node" id="node3" d="M2797 2864 c-28 -37 -112 -89 -202 -124 -185 -72 -213 -85 -280 -135
-19 -13 -24 -12 -58 10 -130 89 -298 148 -484 171 -135 17 -146 17 -275 0
-140 -19 -249 -50 -321 -92 -23 -14 -33 -23 -22 -21 161 39 184 42 375 41 170
0 207 -3 290 -23 199 -49 359 -126 490 -236 38 -32 45 -34 53 -20 5 9 7 28 4
42 -12 62 37 110 131 127 43 8 42 -5 -13 -89 -57 -89 -58 -102 -2 -74 89 46
159 102 222 180 36 45 65 85 65 90 0 5 5 9 10 9 13 0 12 -72 0 -128 -13 -54
-75 -215 -97 -251 -28 -45 -84 -111 -94 -111 -17 0 -9 27 20 66 30 43 46 85
55 152 4 25 2 42 -4 42 -5 0 -10 -4 -10 -9 0 -15 -82 -92 -119 -111 -27 -14
-31 -19 -16 -20 11 0 37 9 58 20 35 19 37 19 37 2 0 -11 -13 -37 -29 -59 -16
-22 -31 -48 -34 -59 -6 -21 23 -89 38 -89 19 0 142 165 177 237 55 114 78 208
78 325 0 101 -7 163 -19 163 -3 0 -14 -12 -24 -26z"></path>
<path class="node" id="node4" d="M1384 2659 c-95 -9 -152 -23 -179 -43 -18 -14 -10 -15 85 -16 80 0
115 -5 146 -19 23 -10 44 -23 48 -29 3 -5 -4 -52 -15 -103 -11 -52 -30 -148
-41 -214 -11 -66 -24 -139 -28 -162 -4 -24 -15 -52 -24 -62 -10 -11 -15 -25
-11 -30 6 -11 155 -16 155 -6 0 4 -7 19 -14 34 -23 43 -29 119 -17 201 29 202
43 276 54 299 25 54 178 106 332 114 l50 2 -45 14 c-95 28 -321 37 -496 20z"></path>
<path class="node" id="node5" d="M810 2582 c0 -14 77 -82 93 -82 20 0 51 37 38 44 -6 4 -30 13 -53 20
-24 8 -51 17 -60 21 -10 4 -18 3 -18 -3z"></path>
<path class="node" id="node6" d="M1280 2551 c-15 -30 -12 -104 6 -129 38 -55 110 -48 139 14 18 39 11
80 -16 95 -17 9 -19 6 -19 -25 0 -32 -20 -66 -40 -66 -19 0 -40 46 -40 87 0
46 -13 56 -30 24z"></path>
<path class="node" id="node7" d="M2433 2554 c-34 -17 -47 -41 -37 -68 12 -31 24 -19 78 72 10 16 -2
15 -41 -4z"></path>
<path class="node" id="node8" d="M1062 2551 c-19 -11 -17 -102 2 -138 l14 -28 7 40 c4 22 18 60 31 84
13 24 24 45 24 47 0 8 -65 3 -78 -5z"></path>
<path class="node" id="node9" d="M1716 2522 c-3 -21 -15 -47 -26 -57 -19 -17 -21 -17 -40 0 -11 10
-20 29 -20 42 0 31 -18 29 -30 -3 -14 -37 -12 -52 10 -74 58 -58 157 19 136
105 -9 37 -23 31 -30 -13z"></path>
<path class="node" id="node10" d="M1177 2526 c-28 -42 -57 -129 -57 -169 0 -75 56 -147 113 -147 34 0
89 40 97 70 10 40 -3 74 -33 84 -33 12 -42 4 -27 -24 29 -55 -40 -87 -75 -34
-26 40 -31 122 -10 183 19 59 16 74 -8 37z"></path>
<path class="node" id="node11" d="M2010 2464 c-30 -94 -103 -208 -170 -264 -58 -49 -191 -120 -224
-120 -33 0 -46 -19 -46 -66 0 -67 -16 -76 -127 -72 -107 3 -123 14 -123 78 0
42 -14 57 -78 85 -86 37 -165 153 -217 320 l-25 80 3 -80 c7 -147 104 -319
240 -423 44 -34 56 -50 59 -75 l3 -32 78 -9 c46 -5 104 -5 145 0 63 8 67 11
70 36 4 31 26 49 127 98 118 59 232 192 276 324 18 53 43 185 36 192 -2 2 -14
-30 -27 -72z"></path>
<path class="node" id="node12" d="M1840 2470 c-21 -88 -99 -170 -161 -170 -15 0 -30 7 -33 16 -8 21 -8
20 10 38 14 15 13 16 -8 16 -33 0 -63 -23 -78 -61 -13 -30 -12 -33 14 -55 20
-18 39 -24 73 -24 112 0 189 85 209 232 9 64 -11 70 -26 8z"></path>
<path class="node" id="node13" d="M1908 2410 c-32 -65 -65 -116 -102 -156 -31 -32 -56 -60 -56 -61 0
-1 13 3 30 8 70 25 185 200 178 273 -3 29 -7 23 -50 -64z"></path>
<path class="node" id="node14" d="M912 2417 c-35 -37 -62 -108 -62 -164 0 -66 6 -80 41 -98 57 -30 139
-9 139 36 0 17 -5 18 -38 13 -35 -5 -41 -3 -65 26 -32 38 -34 68 -7 145 11 32
19 60 17 62 -2 1 -13 -7 -25 -20z"></path>
<path class="node" id="node15" d="M2140 2419 c0 -8 4 -29 10 -47 20 -73 -21 -142 -85 -142 -41 0 -44
-11 -12 -40 31 -30 83 -21 120 20 34 39 37 106 6 165 -26 49 -39 64 -39 44z"></path>
<path class="node" id="node16" d="M2263 2393 c8 -16 18 -46 22 -66 5 -24 25 -58 52 -90 24 -29 62 -88
85 -132 22 -44 44 -84 49 -89 16 -17 10 28 -15 112 -48 158 -120 274 -179 288
l-29 7 15 -30z"></path>

<path class="node" id="node18" d="M2060 2356 c-15 -19 -9 -56 12 -69 34 -22 66 41 36 71 -16 16 -33 15
-48 -2z"></path>
<path class="node" id="node19" d="M936 2305 c-9 -24 4 -45 29 -45 29 0 38 13 30 40 -8 24 -50 27 -59 5z"></path>
<path class="node" id="node20" d="M698 2244 c-25 -62 -48 -185 -48 -257 0 -113 50 -323 81 -342 4 -3
45 21 90 54 45 33 86 62 93 64 6 2 -2 22 -22 48 -18 24 -46 70 -61 101 l-28
57 -16 -37 c-15 -34 -21 -67 -18 -100 1 -8 8 -11 20 -7 40 12 55 -64 15 -79
-36 -14 -62 20 -84 114 -35 145 -37 189 -14 310 18 99 15 131 -8 74z"></path>
<path class="node" id="node21" d="M1361 2237 c-8 -15 -34 -36 -57 -48 -40 -19 -42 -22 -32 -44 11 -26
72 -60 88 -50 13 8 22 62 18 119 -3 49 -3 49 -17 23z"></path>
<path class="node" id="node22" d="M1522 2190 c3 -80 15 -98 61 -86 46 11 80 66 42 66 -9 0 -36 21 -61
46 l-45 47 3 -73z"></path>
<path class="node" id="node23" d="M2260 2240 c-1 -3 -3 -16 -5 -30 -27 -203 -44 -260 -100 -345 -39
-58 -63 -72 -95 -55 -36 19 -19 50 28 50 12 0 26 22 45 71 15 40 25 74 23 77
-6 5 -217 -193 -217 -205 -1 -9 158 -73 181 -73 48 0 143 161 162 273 11 67 4
198 -12 225 -5 9 -10 15 -10 12z"></path>
<path class="node" id="node24" d="M2307 2163 c13 -45 7 -204 -10 -266 -18 -67 -27 -64 80 -25 35 13 65
28 67 33 5 15 -39 152 -65 200 -41 75 -87 112 -72 58z"></path>
<path class="node" id="node25" d="M1955 2131 c-22 -11 -78 -56 -125 -100 -47 -45 -105 -91 -130 -104
l-45 -22 43 -3 c29 -2 54 3 75 15 28 17 35 17 60 5 40 -19 84 -7 107 31 21 34
13 57 -20 57 -26 0 -32 -12 -12 -26 13 -9 14 -16 6 -24 -20 -20 -49 -7 -52 22
-3 22 5 33 37 56 47 34 99 57 108 49 11 -12 -17 -122 -42 -159 -34 -52 -15
-56 30 -7 46 51 74 112 75 160 0 33 3 37 33 44 l32 8 -45 8 c-69 12 -92 10
-135 -10z"></path>
<path class="node" id="node26" d="M838 2093 c-88 -21 -89 -32 -4 -45 13 -2 22 -17 31 -53 9 -33 24 -59
45 -78 38 -34 46 -31 25 9 -19 36 -19 74 -2 99 11 14 22 17 56 12 23 -3 48
-11 56 -17 19 -16 19 -44 0 -60 -19 -16 -38 -3 -32 22 4 14 1 18 -11 16 -11
-2 -18 -15 -20 -35 -4 -43 32 -70 72 -52 14 7 26 15 26 19 0 3 6 15 14 25 13
17 15 17 48 -8 19 -15 50 -30 69 -34 34 -6 33 -6 -41 77 -41 45 -90 89 -108
97 -51 21 -148 24 -224 6z"></path>
<path class="node" id="node27" d="M2725 1900 c-204 -25 -615 -184 -905 -351 -75 -43 -89 -48 -116 -40
-24 7 -40 4 -74 -13 -57 -29 -83 -64 -83 -115 0 -23 -3 -44 -7 -46 -14 -9 -90
91 -90 118 0 42 10 57 40 57 16 0 36 3 45 6 15 6 55 73 55 92 0 5 -63 9 -142
9 -79 0 -158 3 -176 7 -32 7 -32 7 -32 -29 0 -43 13 -71 41 -85 15 -8 24 -8
34 0 10 8 19 5 39 -17 38 -40 42 -69 18 -111 -28 -49 -38 -50 -46 -4 -10 66
-111 152 -178 152 -21 0 -20 -2 8 -19 65 -40 114 -132 92 -175 -33 -65 -126
-116 -211 -116 -40 0 -108 19 -149 41 -33 18 -20 29 27 22 30 -4 45 -2 45 5 0
18 -44 42 -86 49 -44 7 -64 19 -64 39 0 11 20 14 88 14 93 0 138 13 89 25 -15
4 -44 5 -65 3 -20 -3 -56 2 -79 10 -34 11 -43 19 -43 37 0 24 1 24 36 9 89
-37 125 12 42 56 -27 14 -48 28 -48 31 0 8 40 49 48 49 4 0 13 -13 20 -30 21
-47 69 -70 145 -70 84 0 96 15 13 16 -81 2 -123 24 -145 75 -9 21 -21 39 -27
39 -6 0 -29 -16 -52 -36 l-42 -36 -48 16 c-170 56 -408 92 -541 82 -164 -12
-157 -22 19 -29 192 -7 314 -34 498 -109 45 -19 52 -25 52 -50 0 -33 -12 -35
-86 -14 -125 36 -283 42 -421 15 -81 -16 -70 -24 27 -21 115 5 444 -48 471
-75 18 -18 1 -33 -37 -33 -94 0 -234 -50 -279 -100 -23 -25 -13 -25 70 1 80
25 241 52 265 44 9 -3 52 -41 95 -85 75 -78 78 -80 101 -65 13 8 26 15 29 15
3 0 5 -23 5 -51 0 -38 8 -66 31 -109 46 -86 59 -85 52 5 l-6 73 49 49 c27 26
81 67 121 90 39 24 89 63 111 88 42 48 56 44 39 -12 -12 -40 -4 -63 24 -63 20
0 21 3 14 60 -4 33 -4 60 -1 60 4 0 29 -22 56 -49 54 -54 133 -103 198 -122
23 -7 46 -17 51 -23 20 -26 51 -131 51 -174 l1 -47 29 32 c31 34 50 88 50 141
0 20 6 35 16 39 13 5 26 1 76 -25 21 -11 141 156 160 223 6 22 18 47 25 57 16
18 223 95 358 132 50 13 106 29 125 34 l35 10 -31 1 c-52 2 -368 -83 -426
-115 -49 -26 -88 -9 -88 38 0 14 207 118 310 156 30 11 84 32 120 47 64 25 64
26 20 19 -113 -16 -280 -68 -388 -120 -110 -53 -163 -36 -73 23 123 81 359
175 620 249 34 9 61 21 61 25 0 5 -3 8 -7 8 -5 -1 -35 -5 -68 -9z m-1425 -330
c6 -11 18 -20 26 -20 8 0 12 -4 9 -10 -17 -27 -65 2 -65 39 0 18 19 12 30 -9z
m705 -49 c3 -5 -15 -26 -40 -46 -77 -64 -45 -106 38 -49 40 26 72 29 72 5 0
-8 -21 -26 -46 -40 -69 -39 -92 -58 -84 -70 10 -18 40 -13 79 14 40 27 56 31
56 15 0 -19 -45 -72 -74 -87 -35 -18 -128 -43 -161 -43 -49 0 -138 42 -183 87
-42 42 -44 47 -38 86 10 64 49 95 122 96 33 0 74 -5 91 -11 28 -10 39 -9 77
11 25 12 48 26 51 32 8 12 32 12 40 0z"></path>
<path class="node" id="node28" d="M1674 1394 c-8 -32 15 -59 44 -50 43 14 33 76 -13 76 -18 0 -26 -7
-31 -26z"></path>
<path class="node" id="node29" d="M1752 1308 c2 -15 10 -23 23 -23 30 0 27 39 -3 43 -20 3 -23 0 -20
-20z"></path>
<path class="node" id="node30" d="M1837 1284 c-8 -8 1 -24 14 -24 5 0 9 7 9 15 0 15 -12 20 -23 9z"></path>
<path class="node" id="node31" d="M260 1831 c80 -27 183 -65 230 -86 47 -20 91 -39 98 -42 8 -3 12 4
12 19 0 21 -7 27 -42 37 -24 7 -56 19 -73 26 -97 41 -291 95 -342 95 -16 -1
35 -22 117 -49z"></path>
<path class="node" id="node32" d="M1130 1870 c-8 -5 -25 -10 -37 -10 -26 0 -31 -15 -7 -24 19 -7 66 13
72 32 4 14 -7 15 -28 2z"></path>
<path class="node" id="node33" d="M1790 1865 c0 -25 45 -40 77 -26 32 15 21 26 -34 35 -35 5 -43 3 -43
-9z"></path>
<path class="node" id="node34" d="M1300 1842 c0 -4 13 -23 30 -42 16 -19 29 -45 30 -56 0 -20 -4 -21
-32 -15 -18 5 -47 15 -65 24 -36 19 -57 22 -48 7 7 -12 2 -12 -50 -1 -22 5
-60 6 -85 2 l-45 -6 70 -18 c39 -10 120 -34 181 -53 61 -19 131 -34 156 -34
51 0 140 23 283 74 55 20 117 36 138 36 20 0 37 5 37 10 0 19 -96 15 -163 -6
-52 -17 -83 -13 -73 11 3 8 9 23 13 32 5 13 -1 11 -26 -8 -126 -94 -189 -91
-100 6 l42 45 -147 0 c-80 0 -146 -4 -146 -8z m164 -51 c7 -10 -16 -61 -27
-61 -11 0 -28 50 -21 61 7 11 41 12 48 0z"></path>
<path class="node" id="node35" d="M1760 1698 c-36 -11 -71 -25 -77 -30 -15 -12 -45 -107 -38 -119 5 -7
39 4 100 31 11 5 35 12 53 15 46 9 29 29 -19 21 -30 -5 -39 -3 -39 8 0 18 51
41 123 56 31 6 57 15 57 19 0 8 -62 22 -85 20 -5 0 -39 -10 -75 -21z"></path>
<path class="node" id="node36" d="M930 1693 c0 -5 28 -15 63 -21 73 -14 117 -32 117 -49 0 -8 -14 -13
-37 -14 -21 0 -47 -4 -58 -9 -16 -7 -14 -9 14 -9 19 -1 61 -8 93 -17 32 -9 61
-14 65 -10 3 3 6 23 5 43 -2 42 -18 59 -72 73 -56 14 -190 24 -190 13z"></path>
<path class="node" id="node37" d="M2495 1615 c-100 -29 -195 -65 -195 -75 0 -4 28 1 63 13 34 11 112
35 172 53 77 23 99 33 75 32 -19 0 -71 -10 -115 -23z"></path>

<path class="node" id="node39" d="M1140 1430 c-16 -31 4 -62 38 -58 19 2 28 10 30 26 7 47 -47 72 -68
32z"></path>

<path class="node" id="node41" d="M1130 1330 c-12 -7 -12 -13 -4 -27 16 -26 39 -22 39 6 0 27 -13 35
-35 21z"></path>
<path class="node" id="node42" d="M1060 1265 c0 -8 7 -15 15 -15 8 0 15 7 15 15 0 8 -7 15 -15 15 -8 0
-15 -7 -15 -15z"></path>
<path class="node" id="node43" d="M1251 1177 c-16 -20 -27 -87 -14 -87 6 0 16 7 23 15 19 23 67 19 81
-6 l11 -21 12 23 c16 34 40 35 55 3 l12 -28 25 30 24 29 21 -25 c15 -16 23
-21 26 -12 6 16 44 15 69 -3 12 -8 24 -11 28 -8 11 11 6 59 -8 79 -13 17 -30
19 -183 22 -140 3 -172 1 -182 -11z"></path>
<path class="node" id="node44" d="M1397 956 c-19 -30 -43 -52 -73 -66 -50 -25 -64 -44 -64 -90 0 -57
78 -110 161 -110 128 0 250 119 210 206 -13 30 -31 31 -31 3 0 -34 -59 -85
-107 -93 -73 -13 -103 23 -68 84 15 26 21 110 8 110 -5 0 -21 -20 -36 -44z"></path>

<path class="node" id="node46" d="M1141 838 c-14 -40 -14 -110 0 -141 6 -14 22 -30 35 -37 12 -7 24
-22 26 -34 3 -19 12 -22 123 -29 66 -4 175 -5 243 -2 111 6 123 9 134 28 6 12
21 30 34 39 31 25 47 79 39 131 -12 69 -21 76 -39 33 -9 -21 -16 -41 -16 -45
0 -3 -18 -29 -41 -56 -39 -48 -44 -51 -113 -62 -39 -6 -123 -12 -187 -12 -107
-1 -117 1 -136 22 -32 34 -73 123 -73 156 0 42 -16 47 -29 9z"></path>

</g>
<g transform="translate(0.000000,300.000000) scale(0.100000,-0.100000)" fill="#A1A1A1" stroke="none">

<path class="node" id="node49" d="M1270 1579 c0 -37 48 -66 65 -39 3 6 -1 10 -9 10 -8 0 -20 9 -26 20
-11 21 -30 27 -30 9z"></path>

<path class="node" id="node51" d="M1416 1791 c-7 -11 10 -61 21 -61 11 0 34 51 27 61 -7 12 -41 11 -48
0z"></path>
</g>
</svg>