<!--?xml version="1.0" standalone="no"?-->

<svg version="1.0" xmlns="http://www.w3.org/2000/svg" width="300.000000pt" height="300.000000pt" viewBox="0 0 300.000000 300.000000" preserveAspectRatio="xMidYMid meet">
<g transform="translate(0.000000,300.000000) scale(0.100000,-0.100000)" fill="#080808" stroke="none">
<path class="node" id="node1" d="M2412 2430 c94 -16 185 -57 167 -74 -2 -3 -40 4 -84 15 -136 34 -349
20 -411 -26 -15 -11 -11 -13 30 -19 57 -9 70 -30 35 -57 -30 -23 -143 -26
-194 -5 -19 8 -35 11 -35 5 0 -22 52 -90 80 -104 39 -20 38 -32 -2 -40 -106
-19 -190 -50 -225 -80 -21 -18 -35 -36 -31 -40 4 -4 29 -2 57 5 93 22 168 -25
141 -90 -23 -56 -103 -113 -175 -125 l-40 -6 44 23 c45 23 127 95 119 103 -2
3 -36 -10 -74 -29 -168 -82 -273 -99 -407 -67 -134 32 -327 30 -427 -4 -85
-29 -130 -61 -167 -117 -27 -40 -91 -76 -251 -141 -163 -67 -304 -87 -368 -54
-73 38 -114 104 -114 186 0 42 5 56 32 87 41 46 83 64 150 64 88 0 152 -58
150 -135 -2 -57 -77 -76 -129 -30 l-28 24 26 51 c22 40 24 50 12 50 -26 0 -83
-41 -98 -70 -14 -27 -21 -110 -10 -110 3 0 15 10 27 22 l23 23 3 -45 c2 -32
11 -53 30 -72 28 -30 48 -37 38 -13 -5 13 11 75 20 75 2 0 20 -11 40 -25 24
-16 51 -25 77 -25 l39 0 -22 18 c-24 20 -26 34 -15 137 6 53 4 63 -16 89 -57
72 -189 97 -277 52 -123 -63 -162 -178 -97 -291 31 -53 60 -79 120 -107 69
-31 240 -31 365 1 89 23 193 56 222 72 14 7 22 0 42 -41 14 -28 37 -70 52 -95
17 -30 21 -43 12 -40 -16 6 -48 46 -85 105 -12 19 -23 30 -23 23 0 -24 41
-115 80 -175 38 -59 39 -62 25 -95 -16 -39 -47 -84 -70 -103 -22 -18 -19 -43
16 -112 37 -74 34 -111 -16 -164 -19 -19 -26 -33 -17 -29 52 22 55 20 37 -14
-26 -51 -17 -58 82 -64 48 -3 100 -8 114 -12 20 -5 32 -1 48 16 30 32 24 69
-14 89 -16 8 -33 19 -36 24 -4 4 -20 5 -37 1 -42 -9 -52 13 -52 116 l0 83 50
47 c28 26 50 54 50 63 0 24 17 19 24 -7 10 -38 7 -84 -10 -133 l-16 -47 34
-26 c62 -47 117 -107 124 -135 4 -17 1 -37 -7 -53 -20 -37 7 -53 90 -53 96 0
141 9 141 29 -1 35 -51 71 -99 71 -18 0 -39 9 -51 22 -29 32 -53 121 -48 179
4 43 12 56 56 101 28 28 63 74 77 101 37 72 57 199 45 289 -12 91 -12 88 -2
88 16 0 43 -84 49 -150 10 -114 -25 -220 -99 -305 -22 -25 -36 -45 -31 -45 4
0 36 21 71 48 60 45 122 120 122 149 0 19 13 17 95 -16 108 -44 201 -61 265
-49 48 9 54 7 87 -18 19 -14 41 -41 49 -58 l13 -31 1 37 c0 21 -9 52 -20 70
-11 18 -20 47 -20 63 l0 30 19 -24 c34 -44 54 -118 48 -179 -3 -31 -1 -84 5
-118 13 -75 5 -121 -27 -156 -29 -31 -31 -38 -11 -38 11 0 13 -10 9 -39 -5
-34 -3 -39 18 -44 13 -4 45 -7 70 -7 111 0 151 29 102 75 -15 14 -35 25 -45
25 -9 0 -20 5 -24 11 -13 22 -5 115 15 173 12 33 21 74 21 91 0 18 7 52 16 76
9 24 19 66 22 92 8 58 24 62 35 8 12 -61 28 -68 92 -42 30 13 73 25 95 28 35
5 41 3 51 -20 15 -32 6 -67 -27 -106 -19 -23 -22 -31 -10 -31 8 0 18 5 21 10
3 6 10 10 16 10 17 0 9 -27 -20 -64 -37 -46 -46 -94 -27 -140 17 -40 22 -42
63 -24 54 25 64 46 57 121 -4 50 -2 76 9 100 32 68 47 110 47 132 0 15 -31 53
-100 119 -55 52 -100 99 -100 103 0 5 8 13 18 20 26 16 52 74 52 117 0 20 -9
59 -20 88 -11 28 -18 53 -16 56 6 5 46 -40 62 -71 23 -43 20 -130 -5 -178 -12
-23 -20 -44 -17 -46 10 -11 103 19 141 45 61 43 88 88 81 140 -3 23 -2 42 3
42 16 0 34 -70 27 -103 l-6 -32 20 25 c39 50 16 111 -84 219 -34 38 -70 85
-79 104 -23 47 -21 103 4 143 21 35 47 48 33 17 -4 -10 -9 -39 -12 -65 -8 -93
59 -156 152 -143 77 10 107 7 127 -11 24 -21 26 -18 35 33 5 35 3 42 -13 47
-16 5 -43 43 -43 60 0 10 60 24 65 15 8 -13 25 -11 25 2 0 7 7 17 17 24 10 8
16 27 17 55 l1 43 -65 24 c-86 31 -110 44 -110 58 0 6 -20 26 -45 44 -43 30
-45 35 -45 80 0 61 -24 84 -117 117 -53 19 -87 24 -153 23 -77 -1 -81 -2 -38
-9z"></path>
</g>
<g transform="translate(0.000000,300.000000) scale(0.100000,-0.100000)" fill="#A0A0A0" stroke="none">

</g>
</svg>