<!--?xml version="1.0" standalone="no"?-->

<svg version="1.0" xmlns="http://www.w3.org/2000/svg" width="248.000000pt" height="300.000000pt" viewBox="0 0 248.000000 300.000000" preserveAspectRatio="xMidYMid meet">
<g transform="translate(0.000000,300.000000) scale(0.100000,-0.100000)" fill="#2B2B2B" stroke="none">
<path class="node" id="node1" d="M1623 2935 c-74 -24 -84 -28 -257 -129 -86 -50 -100 -56 -108 -42 -8
15 -16 12 -61 -20 l-51 -37 -18 23 c-14 17 -21 20 -32 11 -10 -9 -16 -8 -26 3
-6 8 -33 28 -58 43 -41 24 -58 27 -129 28 -111 0 -112 -12 -5 -57 33 -13 31
-14 -89 -32 -86 -12 -150 -28 -214 -54 -104 -42 -134 -61 -111 -74 8 -4 26 -4
41 2 29 11 128 14 138 4 4 -4 -15 -19 -41 -33 -26 -14 -77 -42 -112 -61 -82
-44 -224 -184 -270 -265 -32 -57 -90 -229 -90 -266 0 -26 21 -35 33 -14 29 52
198 197 213 183 2 -3 -13 -56 -35 -119 -22 -63 -47 -154 -56 -204 -9 -49 -19
-98 -21 -108 -3 -10 1 -20 11 -23 11 -4 28 7 54 35 42 46 67 54 55 19 -8 -27
-7 -181 1 -209 10 -29 32 -22 50 15 9 19 31 51 48 71 l32 37 1 -154 c1 -207
23 -256 69 -159 20 40 84 116 92 108 2 -3 -1 -17 -7 -32 -8 -20 -8 -43 0 -81
10 -46 9 -58 -9 -96 -27 -60 -43 -158 -35 -217 7 -56 18 -49 -106 -71 -165
-29 -337 -135 -357 -219 -3 -14 -15 -41 -26 -60 -15 -26 -21 -52 -21 -100 -1
-115 43 -170 227 -286 93 -58 112 -75 144 -126 19 -33 41 -59 47 -59 19 0 64
103 77 175 15 78 3 142 -37 207 -39 63 -70 94 -159 156 -44 30 -82 57 -84 59
-10 7 28 38 76 59 60 28 224 64 289 64 52 0 112 -32 120 -65 14 -58 95 -91
153 -62 26 13 32 13 42 1 17 -21 85 -18 106 6 19 19 19 19 48 0 20 -14 47 -20
84 -20 48 0 57 4 85 33 l32 34 31 -24 c29 -22 36 -24 66 -14 27 9 40 8 63 -4
38 -20 93 -19 116 2 16 14 24 15 52 5 47 -17 76 -15 112 10 45 31 57 60 44
106 -5 20 -14 43 -19 51 -6 9 3 32 30 74 45 70 54 104 53 212 0 67 -4 89 -28
135 -16 30 -39 69 -52 87 -37 49 -30 68 14 37 28 -19 45 -9 38 22 -7 25 0 29
23 15 25 -16 41 -1 41 40 0 46 17 51 33 9 10 -27 36 -42 38 -22 0 4 2 16 4 27
1 11 6 57 10 103 4 45 11 82 15 82 18 0 101 -74 127 -114 42 -64 53 -47 53 84
0 96 -3 110 -30 168 -17 35 -30 65 -30 67 0 10 80 -30 113 -57 28 -22 42 -27
49 -20 8 8 8 15 0 25 -7 8 -21 40 -32 72 -21 61 -51 117 -83 153 l-20 22 61 0
c34 0 80 -7 102 -16 23 -9 44 -14 47 -10 11 11 -50 91 -126 164 -57 55 -69 70
-48 62 46 -16 70 -31 100 -59 22 -20 30 -23 36 -12 6 9 3 24 -8 41 -29 47
-154 200 -163 200 -5 0 -7 12 -4 28 6 23 -1 34 -41 74 -88 86 -206 133 -327
131 l-69 -1 50 28 c61 35 145 57 238 63 38 3 71 9 73 15 16 48 -327 74 -440
34 -32 -11 -58 -17 -58 -12 0 5 25 30 55 57 30 26 55 51 55 56 0 12 -30 7
-107 -18z m-27 -72 c-30 -47 -40 -79 -27 -88 6 -3 39 9 73 27 62 32 65 33 213
35 147 2 149 2 90 -12 -128 -29 -282 -120 -260 -154 3 -5 22 -5 42 0 58 14
173 11 225 -5 46 -14 132 -59 142 -74 2 -4 -20 -5 -50 -4 -75 5 -73 -18 5 -47
64 -23 132 -78 193 -154 41 -52 43 -67 5 -49 -71 34 -191 54 -210 35 -11 -10
14 -33 37 -33 42 -1 103 -39 186 -119 l85 -81 -52 6 c-67 8 -143 -3 -150 -22
-3 -9 9 -28 34 -49 42 -36 103 -138 90 -151 -4 -4 -32 3 -61 15 -86 35 -166
16 -98 -24 16 -10 41 -38 57 -64 26 -40 30 -57 32 -136 3 -88 3 -89 -14 -66
-10 14 -44 42 -77 63 -47 30 -62 35 -78 27 -16 -8 -18 -17 -13 -52 3 -25 0
-57 -8 -80 -12 -33 -15 -36 -27 -22 -19 23 -50 19 -50 -7 0 -13 -3 -33 -6 -45
-6 -20 -8 -21 -28 -8 -26 17 -36 11 -36 -22 0 -24 -14 -31 -25 -13 -10 16 -45
12 -45 -5 0 -17 -16 -20 -26 -4 -4 8 -9 8 -17 0 -6 -6 -19 -11 -29 -11 -13 0
-18 -8 -18 -25 0 -14 -4 -25 -9 -25 -5 0 -12 11 -15 25 -8 33 -24 32 -37 -2
l-10 -28 -19 25 -18 24 -13 -28 c-12 -26 -13 -27 -21 -7 -9 25 -26 27 -35 6
-5 -14 -8 -14 -24 1 -17 16 -19 15 -30 -10 -15 -31 -20 -32 -37 -5 -18 28 -42
8 -42 -35 0 -31 0 -31 -20 12 -20 43 -36 53 -46 27 -5 -12 -10 -13 -19 -5 -10
9 -17 6 -26 -11 -11 -21 -13 -21 -24 -6 -7 10 -19 15 -29 11 -9 -3 -16 -1 -16
5 0 23 -28 10 -35 -16 l-7 -28 -11 25 c-16 37 -17 37 -37 10 -19 -25 -19 -25
-35 -5 -15 20 -15 20 -35 -3 l-20 -24 -17 36 c-9 20 -20 36 -23 36 -4 0 -37
-29 -75 -65 -37 -36 -71 -65 -76 -65 -14 0 -22 67 -10 88 8 14 8 23 1 27 -13
8 -96 -39 -104 -60 -3 -8 -10 -15 -16 -15 -15 0 -12 55 5 97 17 41 19 63 5 63
-17 0 -115 -79 -135 -110 -11 -16 -23 -30 -26 -30 -20 0 -16 275 5 309 4 6 4
15 1 21 -10 16 -56 -13 -103 -64 -23 -25 -45 -46 -47 -46 -10 0 -4 118 9 168
7 29 9 55 4 58 -8 5 -68 -27 -100 -54 -16 -13 -18 -13 -18 1 0 67 83 333 122
389 25 36 23 48 -7 48 -23 0 -71 -23 -85 -41 -3 -3 -16 -12 -30 -19 -14 -7
-49 -33 -77 -58 -29 -24 -53 -41 -53 -36 0 5 13 43 28 85 34 90 85 162 178
249 102 95 337 219 391 205 16 -4 23 -1 23 9 0 24 -20 30 -115 36 -85 6 -88 7
-60 19 45 19 218 51 278 51 29 0 69 -5 90 -11 45 -12 56 -6 39 21 -19 30 2 24
36 -11 17 -17 35 -28 41 -25 5 4 12 2 16 -4 10 -15 21 -12 54 16 29 24 31 25
31 5 0 -23 16 -36 25 -20 19 30 334 210 383 219 1 0 -9 -17 -22 -37z m-612
-93 c16 -6 27 -12 25 -15 -6 -5 -109 25 -109 32 0 7 46 -2 84 -17z m743 -1382
c-3 -8 -6 -5 -6 6 -1 11 2 17 5 13 3 -3 4 -12 1 -19z m119 -71 c27 -48 29 -60
29 -157 0 -110 -10 -145 -58 -198 l-21 -22 -48 47 c-57 56 -59 73 -23 184 13
42 27 109 30 149 3 40 8 77 11 82 9 14 48 -27 80 -85z m-832 26 c10 -30 24
-29 38 3 l12 25 18 -23 c17 -21 19 -22 32 -6 15 21 26 13 26 -18 0 -13 7 -27
16 -32 14 -8 15 -19 5 -92 -13 -102 -14 -225 -2 -249 6 -10 38 -32 73 -49 94
-47 126 -118 72 -161 -50 -39 -144 -17 -144 34 0 24 -30 17 -40 -9 -11 -29
-43 -48 -73 -44 -18 2 -22 9 -19 36 3 42 -20 43 -45 2 -22 -38 -55 -47 -98
-27 -80 38 -39 120 94 187 l44 22 -6 161 c-3 92 -12 188 -21 222 -8 33 -15 64
-16 70 0 14 26 -26 34 -52z m605 -8 c5 -3 15 10 22 30 l13 35 20 -31 c18 -29
20 -30 33 -13 24 33 15 -75 -17 -199 -16 -64 -30 -119 -30 -122 0 -3 30 -37
66 -76 112 -119 125 -196 34 -211 -32 -5 -70 12 -70 32 0 30 -26 24 -40 -9
-13 -33 -35 -42 -82 -32 -26 5 -34 12 -36 34 -4 34 -17 34 -38 1 -36 -54 -117
-7 -100 59 6 27 67 94 118 132 l27 20 -20 125 c-29 176 -35 255 -19 245 8 -5
18 -1 25 9 11 15 14 13 24 -14 11 -33 31 -33 31 0 0 10 3 26 7 36 6 15 8 13
15 -13 5 -18 12 -35 17 -38z m-829 20 c0 -34 20 -75 38 -75 7 0 38 21 68 46
30 26 56 45 59 43 13 -14 35 -197 35 -293 l0 -111 -54 -33 c-30 -18 -66 -46
-80 -62 -13 -17 -34 -30 -46 -30 -34 0 -113 82 -133 137 -23 63 -22 164 2 228
11 28 25 67 33 87 14 38 54 88 70 88 4 0 8 -11 8 -25z m575 -45 c7 -27 17 -45
26 -45 9 0 16 15 19 45 5 42 9 47 39 42 5 -1 11 -32 14 -69 2 -38 12 -116 22
-175 l16 -106 -64 -65 c-36 -35 -68 -74 -72 -86 -6 -21 -8 -20 -29 11 -12 18
-49 49 -83 68 -48 27 -64 42 -69 64 -9 39 4 206 23 289 13 59 18 68 34 64 11
-3 26 1 33 9 20 19 26 18 26 -6 0 -30 29 -24 37 7 7 30 9 27 28 -47z m-697
-400 c31 -41 28 -50 -17 -50 -100 0 -277 -57 -332 -107 -23 -21 -31 -23 -74
-16 l-49 8 32 36 c42 48 157 107 262 135 121 32 151 31 178 -6z m-367 -225
c16 -9 67 -43 113 -75 167 -120 211 -251 141 -417 l-16 -38 -19 25 c-11 14
-29 38 -41 53 -12 15 -71 61 -133 101 -134 88 -161 113 -186 168 -22 49 -24
68 -9 121 20 72 81 97 150 62z"></path>
<path class="node" id="node2" d="M1565 2493 c-68 -17 -106 -117 -70 -187 16 -30 14 -43 -4 -31 -6 3
-11 15 -11 26 0 20 -24 26 -35 9 -3 -5 -12 -7 -19 -4 -9 3 -18 -6 -24 -25 -12
-35 -33 -42 -29 -10 1 12 -4 24 -10 26 -7 3 -13 -2 -13 -9 0 -8 -7 -23 -15
-34 -14 -18 -15 -16 -9 19 8 49 -14 50 -40 2 -20 -37 -31 -43 -39 -22 -4 10
-7 10 -18 0 -28 -27 -39 -15 -23 24 39 91 -42 179 -140 152 -40 -11 -120 -79
-141 -120 -23 -44 -19 -111 8 -136 31 -29 86 -55 98 -47 7 4 8 -16 4 -63 -6
-52 -3 -78 9 -106 l15 -38 -44 7 c-70 10 -59 -16 16 -39 14 -5 15 -11 5 -41
-10 -32 -15 -35 -51 -38 -57 -4 -55 -32 3 -36 30 -2 42 -8 42 -19 0 -8 8 -28
18 -45 17 -29 17 -30 -10 -50 -16 -11 -28 -28 -28 -39 0 -25 9 -24 40 6 l26
25 42 -20 c47 -23 73 -24 124 -6 36 13 38 12 54 -11 15 -23 21 -25 83 -21 47
2 75 10 96 25 24 16 44 20 96 20 48 -1 77 5 112 22 l46 22 34 -25 c19 -14 39
-26 45 -26 25 0 11 29 -24 51 -28 17 -34 26 -29 43 4 11 9 32 11 46 15 77 12
73 55 67 34 -4 39 -2 39 14 0 16 -7 19 -49 19 -46 0 -61 9 -61 39 0 4 32 13
70 20 48 9 70 17 70 27 0 18 -39 18 -107 0 -48 -13 -53 -13 -69 5 -17 19 -17
21 -1 48 21 36 22 129 2 177 -14 35 -14 37 9 55 32 25 56 79 56 126 0 57 -49
112 -110 123 -49 10 -74 10 -105 3z m90 -33 c84 -19 116 -121 56 -181 -16 -16
-37 -29 -45 -29 -22 0 -20 -17 9 -74 14 -27 25 -59 25 -70 0 -32 -20 -96 -30
-96 -4 0 -6 9 -3 20 9 34 -7 89 -28 101 -37 19 -69 2 -91 -47 -20 -46 -18 -79
4 -72 6 2 16 22 23 44 11 41 40 58 56 32 14 -21 10 -32 -6 -18 -19 15 -45 -3
-45 -31 0 -27 19 -33 42 -12 21 17 21 17 15 0 -4 -10 -7 -23 -7 -28 0 -5 -15
-9 -32 -9 -18 0 -44 -6 -58 -13 -22 -11 -26 -10 -35 8 -9 17 -22 20 -94 23
-68 2 -87 0 -103 -15 -19 -17 -19 -16 -13 32 6 42 3 54 -15 78 -43 54 -121 21
-138 -60 -6 -25 -8 -52 -5 -59 8 -22 -39 -36 -54 -16 -18 22 -16 131 2 162 25
44 28 51 21 57 -4 4 -20 -1 -35 -10 -39 -23 -58 -21 -98 9 -50 38 -44 91 21
157 58 60 113 73 160 36 33 -26 36 -89 6 -134 -26 -39 -25 -45 6 -45 15 0 32
-7 39 -17 11 -15 15 -14 47 10 32 25 35 26 52 9 16 -16 18 -16 31 2 12 16 17
17 31 5 14 -11 18 -11 29 4 11 15 13 15 18 2 8 -19 34 -9 40 17 6 19 7 19 40
-6 27 -21 36 -24 45 -13 13 16 9 82 -7 101 -18 22 -17 90 2 119 14 22 32 31
72 35 6 1 28 -3 50 -8z m-407 -372 c7 -7 12 -36 12 -65 0 -40 4 -53 15 -53 8
0 15 -7 15 -15 0 -14 -3 -14 -22 -1 -13 8 -42 17 -65 21 -46 7 -48 11 -32 68
6 24 19 41 32 47 30 12 31 12 45 -2z m423 -153 c0 -5 -28 -16 -63 -24 -72 -15
-72 -15 -65 -34 5 -13 17 -12 83 3 80 19 94 18 94 -4 0 -9 -20 -13 -62 -15
-69 -2 -85 -8 -69 -24 6 -6 11 -19 11 -28 0 -9 21 -36 46 -59 43 -40 46 -44
29 -56 -55 -40 -192 -19 -239 37 -20 23 -26 41 -26 77 1 43 4 50 45 84 27 24
49 36 59 32 8 -3 23 1 32 10 12 13 31 16 70 14 30 -2 54 -7 55 -13z m-396 -8
c11 -1 37 -15 58 -31 32 -25 37 -34 37 -71 0 -83 -97 -175 -184 -175 -25 0
-48 6 -55 14 -10 11 -2 20 39 47 27 18 50 36 50 40 0 21 -33 13 -76 -17 -53
-38 -66 -34 -79 18 l-7 27 83 3 c73 3 84 5 87 22 4 18 -1 19 -82 12 -47 -4
-86 -5 -86 -3 0 2 5 18 11 36 13 36 17 36 151 1 37 -10 70 -15 73 -12 13 13 3
32 -18 32 -23 0 -156 36 -165 44 -12 13 47 25 93 20 28 -2 59 -6 70 -7z m465
-136 c0 -58 -19 -67 -63 -30 -21 17 -42 39 -47 50 -10 18 -7 19 50 19 l60 0 0
-39z m-342 -73 c19 -19 14 -28 -13 -28 -27 0 -28 1 -19 24 7 19 16 20 32 4z
m56 -75 c-23 -17 -118 -17 -132 0 -8 9 7 12 70 13 69 0 78 -1 62 -13z"></path>
<path class="node" id="node3" d="M1211 2050 c-7 -4 -11 -18 -9 -31 5 -35 42 -33 46 2 3 28 -16 43 -37
29z"></path>
</g>
<g transform="translate(0.000000,300.000000) scale(0.100000,-0.100000)" fill="#FFFFFF" stroke="none">

<path class="node" id="node5" d="M1580 2886 c-61 -22 -331 -183 -345 -205 -9 -16 -25 -3 -25 20 0 20
-2 19 -31 -5 -33 -28 -44 -31 -54 -16 -4 6 -11 8 -16 4 -6 -3 -24 8 -41 25
-34 35 -55 41 -36 11 17 -27 6 -33 -39 -21 -21 6 -61 11 -90 11 -60 0 -233
-32 -278 -51 -28 -12 -25 -13 60 -19 95 -6 115 -12 115 -36 0 -10 -7 -13 -23
-9 -54 14 -289 -110 -391 -205 -93 -87 -144 -159 -178 -249 -15 -42 -28 -80
-28 -85 0 -5 24 12 53 36 28 25 63 51 77 58 14 7 27 16 30 19 14 18 62 41 85
41 30 0 32 -12 7 -48 -39 -56 -122 -322 -122 -389 0 -14 2 -14 18 -1 32 27 92
59 100 54 5 -3 3 -29 -4 -58 -13 -50 -19 -168 -9 -168 2 0 24 21 47 46 47 51
93 80 103 64 3 -6 3 -15 -1 -21 -21 -34 -25 -309 -5 -309 3 0 15 14 26 30 20
31 118 110 135 110 14 0 12 -22 -5 -63 -17 -42 -20 -97 -5 -97 6 0 13 7 16 15
8 21 91 68 104 60 7 -4 7 -13 -1 -27 -12 -21 -4 -88 10 -88 5 0 39 29 76 65
38 36 71 65 75 65 3 0 14 -16 23 -36 l17 -36 20 24 c20 23 20 23 35 3 16 -20
16 -20 35 5 20 27 21 27 37 -10 l11 -25 7 28 c7 26 35 39 35 16 0 -6 7 -8 16
-5 10 4 22 -1 29 -11 11 -15 13 -15 24 6 9 17 16 20 26 11 9 -8 14 -7 19 5 10
26 26 16 46 -27 20 -43 20 -43 20 -12 0 43 24 63 42 35 17 -27 22 -26 37 5 11
25 13 26 30 10 16 -15 19 -15 24 -1 9 21 26 19 35 -6 8 -20 9 -19 21 7 l13 28
18 -24 19 -25 10 28 c13 34 29 35 37 2 3 -14 10 -25 15 -25 5 0 9 11 9 25 0
17 5 25 18 25 10 0 23 5 29 11 8 8 13 8 17 0 10 -16 26 -13 26 4 0 17 35 21
45 5 11 -18 25 -11 25 13 0 33 10 39 36 22 20 -13 22 -12 28 8 3 12 6 32 6 45
0 26 31 30 50 7 12 -14 15 -11 27 22 8 23 11 55 8 80 -5 35 -3 44 13 52 16 8
31 3 78 -27 33 -21 67 -49 77 -63 17 -23 17 -22 14 66 -2 79 -6 96 -32 136
-16 26 -41 54 -57 64 -68 40 12 59 98 24 29 -12 57 -19 61 -15 13 13 -48 115
-90 151 -25 21 -37 40 -34 49 7 19 83 30 150 22 l52 -6 -85 81 c-83 80 -144
118 -186 119 -23 0 -48 23 -37 33 19 19 139 -1 210 -35 38 -18 36 -3 -5 49
-61 76 -129 131 -193 154 -78 29 -80 52 -5 47 30 -1 52 0 50 4 -10 15 -96 60
-142 74 -52 16 -167 19 -225 5 -20 -5 -39 -5 -42 0 -22 34 132 125 260 154 59
14 57 14 -90 12 -148 -2 -151 -3 -213 -35 -34 -18 -67 -30 -73 -27 -13 9 -3
41 27 88 13 20 23 37 22 37 -2 -1 -19 -7 -38 -14z m90 -396 c61 -11 110 -66
110 -123 0 -47 -24 -101 -56 -126 -23 -18 -23 -20 -9 -55 20 -48 19 -141 -2
-177 -16 -27 -16 -29 1 -48 16 -18 21 -18 69 -5 68 18 107 18 107 0 0 -10 -22
-18 -70 -27 -38 -7 -70 -16 -70 -20 0 -30 15 -39 61 -39 42 0 49 -3 49 -19 0
-16 -5 -18 -39 -14 -43 6 -40 10 -55 -67 -2 -14 -7 -35 -11 -46 -5 -17 1 -26
29 -43 35 -22 49 -51 24 -51 -6 0 -26 12 -45 26 l-34 25 -46 -22 c-35 -17 -64
-23 -112 -22 -52 0 -72 -4 -96 -20 -21 -15 -49 -23 -96 -25 -62 -4 -68 -2 -83
21 -16 23 -18 24 -54 11 -51 -18 -77 -17 -124 6 l-42 20 -26 -25 c-31 -30 -40
-31 -40 -6 0 11 12 28 28 39 27 20 27 21 10 50 -10 17 -18 37 -18 45 0 11 -12
17 -42 19 -58 4 -60 32 -3 36 36 3 41 6 51 38 10 30 9 36 -5 41 -75 23 -86 49
-16 39 l44 -7 -15 38 c-12 28 -15 54 -9 106 4 47 3 67 -4 63 -12 -8 -67 18
-98 47 -27 25 -31 92 -8 136 21 41 101 109 141 120 98 27 179 -61 140 -152
-16 -39 -5 -51 23 -24 11 10 14 10 18 0 8 -21 19 -15 39 22 26 48 48 47 40 -2
-6 -35 -5 -37 9 -19 8 11 15 26 15 34 0 7 6 12 13 9 6 -2 11 -14 10 -26 -4
-32 17 -25 29 10 6 19 15 28 24 25 7 -3 16 -1 19 4 11 17 35 11 35 -9 0 -11 5
-23 11 -26 18 -12 20 1 4 31 -28 54 -14 125 31 165 31 28 72 33 144 19z"></path>
<path class="node" id="node6" d="M1572 2463 c-12 -2 -30 -16 -39 -30 -19 -29 -20 -97 -2 -119 16 -19
20 -85 7 -101 -9 -11 -18 -8 -45 13 -33 25 -34 25 -40 6 -6 -26 -32 -36 -40
-17 -5 13 -7 13 -18 -2 -11 -15 -15 -15 -29 -4 -14 12 -19 11 -31 -5 -13 -18
-15 -18 -31 -2 -17 17 -20 16 -52 -9 -32 -24 -36 -25 -47 -10 -7 10 -24 17
-39 17 -31 0 -32 6 -6 45 30 45 27 108 -6 134 -47 37 -102 24 -160 -36 -65
-66 -71 -119 -21 -157 40 -30 59 -32 98 -9 15 9 31 14 35 10 7 -6 4 -13 -21
-57 -18 -31 -20 -140 -2 -162 15 -20 62 -6 54 16 -3 7 -1 34 5 59 17 81 95
114 138 60 18 -24 21 -36 15 -78 -6 -48 -6 -49 13 -32 16 15 35 17 103 15 72
-3 85 -6 94 -23 9 -18 13 -19 35 -8 14 7 40 13 58 13 17 0 32 4 32 9 0 5 3 18
7 28 6 17 6 17 -15 0 -23 -21 -42 -15 -42 12 0 28 26 46 45 31 16 -14 20 -3 6
18 -16 26 -45 9 -56 -32 -7 -22 -17 -42 -23 -44 -22 -7 -24 26 -4 72 22 49 54
66 91 47 21 -12 37 -67 28 -101 -3 -11 -1 -20 3 -20 10 0 30 64 30 96 0 11
-11 43 -25 70 -29 57 -31 74 -9 74 8 0 29 13 45 29 60 60 28 162 -56 181 -42
10 -46 10 -83 3z"></path>
<path class="node" id="node7" d="M1203 2090 c-13 -6 -26 -23 -32 -47 -16 -57 -14 -61 32 -68 23 -4 52
-13 65 -21 19 -13 22 -13 22 1 0 8 -7 15 -15 15 -11 0 -15 13 -15 53 0 29 -5
58 -12 65 -14 14 -15 14 -45 2z m45 -69 c-4 -35 -41 -37 -46 -2 -4 26 13 42
35 34 8 -3 13 -16 11 -32z"></path>
<path class="node" id="node8" d="M1546 1934 c-9 -9 -24 -13 -32 -10 -10 4 -32 -8 -59 -32 -41 -34 -44
-41 -45 -84 0 -36 6 -54 26 -77 47 -56 184 -77 239 -37 17 12 14 16 -29 56
-25 23 -46 50 -46 59 0 9 -5 22 -11 28 -16 16 0 22 69 24 42 2 62 6 62 15 0
22 -14 23 -94 4 -66 -15 -78 -16 -83 -3 -7 19 -7 19 65 34 35 8 63 19 63 24
-1 6 -25 11 -55 13 -39 2 -58 -1 -70 -14z"></path>
<path class="node" id="node9" d="M1131 1930 c-13 -6 -22 -13 -19 -16 9 -8 142 -44 165 -44 21 0 31
-19 18 -32 -3 -3 -36 2 -73 12 -134 35 -138 35 -151 -1 -6 -18 -11 -34 -11
-36 0 -2 39 -1 86 3 81 7 86 6 82 -12 -3 -17 -14 -19 -87 -22 l-83 -3 7 -27
c13 -52 26 -56 79 -18 43 30 76 38 76 17 0 -4 -23 -22 -50 -40 -41 -27 -49
-36 -39 -47 7 -8 30 -14 55 -14 87 0 184 92 184 175 0 37 -5 46 -37 71 -21 16
-47 30 -58 31 -11 1 -42 5 -70 7 -27 3 -61 1 -74 -4z"></path>
<path class="node" id="node10" d="M1630 1811 c5 -11 26 -33 47 -50 44 -37 63 -28 63 30 l0 39 -60 0
c-57 0 -60 -1 -50 -19z"></path>
<path class="node" id="node11" d="M1366 1714 c-9 -23 -8 -24 19 -24 27 0 32 9 13 28 -16 16 -25 15 -32
-4z"></path>
<path class="node" id="node12" d="M1322 1643 c14 -17 109 -17 132 0 16 12 7 13 -62 13 -63 -1 -78 -4
-70 -13z"></path>
<path class="node" id="node13" d="M900 2787 c0 -7 103 -37 109 -32 5 5 -44 24 -81 32 -16 3 -28 3 -28
0z"></path>
<path class="node" id="node14" d="M1721 1394 c0 -11 3 -14 6 -6 3 7 2 16 -1 19 -3 4 -6 -2 -5 -13z"></path>
<path class="node" id="node15" d="M1766 1402 c-3 -5 -8 -42 -11 -82 -3 -40 -17 -107 -30 -149 -36 -111
-34 -128 23 -184 l48 -47 21 22 c48 53 58 88 58 198 0 97 -2 109 -29 157 -32
58 -71 99 -80 85z"></path>
<path class="node" id="node16" d="M980 1395 c1 -6 8 -37 16 -70 9 -34 18 -130 21 -222 l6 -161 -44 -22
c-95 -48 -147 -107 -134 -151 9 -26 66 -53 97 -46 13 4 31 20 41 37 25 41 48
40 45 -2 -3 -27 1 -34 19 -36 30 -4 62 15 73 44 10 26 40 33 40 9 0 -51 94
-73 144 -34 54 43 22 114 -72 161 -35 17 -67 39 -73 49 -12 24 -11 147 2 249
10 73 9 84 -5 92 -9 5 -16 19 -16 32 0 31 -11 39 -26 18 -13 -16 -15 -15 -32
6 l-18 23 -12 -25 c-14 -32 -28 -33 -38 -3 -8 26 -34 66 -34 52z"></path>
<path class="node" id="node17" d="M1587 1386 c-4 -10 -7 -26 -7 -36 0 -33 -20 -33 -31 0 -10 27 -13 29
-24 14 -7 -10 -17 -14 -25 -9 -16 10 -10 -69 19 -245 l20 -125 -27 -20 c-51
-38 -112 -105 -118 -132 -17 -66 64 -113 100 -59 21 33 34 33 38 -1 2 -22 10
-29 36 -34 47 -10 69 -1 82 32 14 33 40 39 40 9 0 -20 38 -37 70 -32 91 15 78
92 -34 211 -36 39 -66 73 -66 76 0 3 14 58 30 122 32 124 41 232 17 199 -13
-17 -15 -16 -33 13 l-20 31 -13 -35 c-14 -40 -27 -38 -39 8 -7 26 -9 28 -15
13z"></path>
<path class="node" id="node18" d="M750 1355 c-13 -14 -30 -42 -38 -63 -8 -20 -22 -59 -33 -87 -24 -64
-25 -165 -2 -228 20 -55 99 -137 133 -137 12 0 33 13 46 30 14 16 50 44 80 62
l54 33 0 111 c0 96 -22 279 -35 293 -3 2 -29 -17 -59 -43 -30 -25 -61 -46 -68
-46 -18 0 -38 41 -38 75 0 32 -10 31 -40 0z"></path>
<path class="node" id="node19" d="M1337 1357 c-8 -31 -37 -37 -37 -7 0 24 -6 25 -26 6 -7 -8 -22 -12
-33 -9 -16 4 -21 -5 -34 -64 -19 -83 -32 -250 -23 -289 5 -22 21 -37 69 -64
34 -19 71 -50 83 -68 21 -31 23 -32 29 -11 4 12 36 51 72 86 l64 65 -16 106
c-10 59 -20 137 -22 175 -3 37 -9 68 -14 69 -30 5 -34 0 -39 -42 -3 -30 -10
-45 -19 -45 -9 0 -19 18 -26 45 -19 74 -21 77 -28 47z"></path>
<path class="node" id="node20" d="M490 916 c-105 -28 -220 -87 -262 -135 l-32 -36 49 -8 c43 -7 51 -5
74 16 55 50 232 107 332 107 45 0 48 9 17 50 -27 37 -57 38 -178 6z"></path>
<path class="node" id="node21" d="M182 680 c-21 -20 -42 -77 -42 -115 1 -32 37 -103 67 -131 15 -15 78
-60 139 -100 62 -40 121 -86 133 -101 12 -15 30 -39 41 -53 l19 -25 16 38 c70
166 26 297 -141 417 -46 32 -97 66 -113 75 -42 21 -93 19 -119 -5z"></path>
</g>
</svg>