<!--?xml version="1.0" standalone="no"?-->

<svg version="1.0" xmlns="http://www.w3.org/2000/svg" width="300.000000pt" height="250.000000pt" viewBox="0 0 300.000000 250.000000" preserveAspectRatio="xMidYMid meet">
<g transform="translate(0.000000,250.000000) scale(0.100000,-0.100000)" fill="#AC6128" stroke="none">
<path stroke-width="20" class="node" id="node1" d="M1778 1948 c-20 -5 -54 -24 -75 -42 -21 -18 -48 -36 -61 -40 -27 -9
-99 -97 -109 -133 -3 -15 -1 -35 6 -46 16 -25 10 -30 -83 -62 -43 -14 -87 -32
-97 -38 -25 -16 -24 -38 2 -44 13 -4 18 -11 14 -21 -3 -8 -1 -20 5 -27 6 -7
11 -30 13 -51 6 -83 34 -93 174 -61 4 1 9 -10 10 -25 1 -23 -2 -28 -22 -28
-13 0 -40 -14 -60 -31 -19 -17 -35 -27 -35 -21 0 5 -21 20 -47 32 -36 17 -60
21 -103 18 -59 -4 -101 -27 -229 -127 -92 -71 -163 -104 -233 -109 -101 -8
-139 23 -124 102 6 33 89 126 135 150 47 26 140 127 166 181 40 81 39 169 -1
223 -16 20 -38 45 -49 55 -77 67 -234 97 -250 47 -3 -11 -21 -24 -40 -30 -43
-14 -105 -82 -105 -115 0 -33 22 -41 70 -26 37 11 44 9 111 -26 57 -30 82 -37
125 -37 52 0 54 -1 54 -28 0 -45 -41 -99 -144 -187 -106 -90 -139 -133 -157
-203 -10 -36 -10 -55 0 -87 24 -81 87 -115 206 -109 69 4 93 10 180 50 61 28
101 42 102 35 1 -7 4 -40 6 -75 3 -62 3 -63 -19 -58 -87 22 -245 -189 -248
-331 l-1 -57 71 -19 c65 -17 75 -17 108 -3 30 13 36 20 36 45 0 18 -9 40 -21
52 -26 26 -22 66 12 135 35 69 42 71 87 25 38 -39 79 -58 105 -48 19 7 66 105
76 160 10 58 18 68 35 44 18 -23 9 -61 -20 -88 -41 -38 -26 -84 56 -177 45
-50 62 -76 74 -114 6 -20 79 -33 124 -23 82 18 76 76 -15 140 -72 51 -123 95
-123 105 0 5 7 16 16 24 14 15 18 13 48 -19 19 -19 42 -35 54 -35 13 0 22 -9
27 -27 4 -16 33 -55 65 -88 65 -68 104 -143 98 -187 -6 -35 19 -55 85 -70 129
-30 171 -18 169 46 -2 64 -60 155 -192 302 l-28 31 35 36 c40 43 49 45 56 16
3 -12 12 -19 19 -17 18 6 23 39 6 49 -10 7 -9 9 5 9 22 0 23 -48 2 -76 -25
-33 -19 -70 18 -98 40 -30 63 -32 112 -9 41 20 75 81 75 136 0 36 -39 129 -60
142 -6 4 -1 21 13 43 38 60 57 119 57 172 0 48 1 50 29 50 23 0 31 -6 40 -30
11 -33 22 -37 41 -15 9 11 11 34 7 73 -4 39 -3 50 3 35 9 -21 40 -33 40 -15
-2 49 -23 138 -39 160 l-20 29 20 54 c25 66 44 88 61 71 17 -17 47 -15 54 3
12 30 -20 89 -81 151 -44 44 -59 64 -49 68 22 8 17 23 -17 47 l-32 22 -18 -21
c-22 -28 -27 -28 -22 2 4 18 -2 29 -23 43 -23 15 -48 18 -144 18 -96 0 -118 3
-132 18 -20 19 -35 20 -90 5z m-13 -50 c-3 -7 -16 -18 -29 -24 -19 -9 -23 -9
-20 1 4 10 32 28 51 34 1 1 0 -5 -2 -11z m-1015 -92 c0 -2 -7 -6 -15 -10 -8
-3 -15 -1 -15 4 0 6 7 10 15 10 8 0 15 -2 15 -4z m700 -296 c0 -5 -4 -10 -9
-10 -6 0 -13 5 -16 10 -3 6 1 10 9 10 9 0 16 -4 16 -10z m20 -24 c0 -11 -19
-15 -25 -6 -3 5 1 10 9 10 9 0 16 -2 16 -4z m20 -26 c0 -5 -5 -10 -11 -10 -5
0 -7 5 -4 10 3 6 8 10 11 10 2 0 4 -4 4 -10z"></path>




</g>
<g transform="translate(0.000000,250.000000) scale(0.100000,-0.100000)" fill="#9EDCF9" stroke="none">






</g>
</svg>