<!--?xml version="1.0" standalone="no"?-->

<svg version="1.0" xmlns="http://www.w3.org/2000/svg" width="273.000000pt" height="300.000000pt" viewBox="0 0 273.000000 300.000000" preserveAspectRatio="xMidYMid meet">
<g transform="translate(0.000000,300.000000) scale(0.100000,-0.100000)" fill="#191919" stroke="none">
<path d="M1351 2895 c-7 -22 -14 -46 -17 -53 -3 -10 -13 -6 -37 14 -17 15 -46
33 -64 41 -38 15 -193 18 -193 3 0 -5 16 -10 35 -10 49 0 123 -40 170 -92 44
-47 76 -111 101 -202 18 -65 26 -62 45 19 35 148 156 275 264 275 19 0 35 5
35 10 0 15 -155 12 -193 -3 -18 -8 -46 -26 -63 -40 -32 -27 -44 -26 -44 2 -1
9 -7 30 -14 46 l-13 30 -12 -40z" id="node1" class="node"></path>
<path d="M903 2852 c10 -10 17 -28 17 -40 0 -42 -102 -70 -131 -36 -11 14 -10
18 6 30 10 8 24 14 29 15 6 1 0 4 -14 8 -31 10 -76 -11 -85 -38 -9 -30 4 -68
31 -85 34 -23 92 -20 176 11 40 14 98 28 129 30 52 4 58 2 87 -27 39 -39 50
-88 28 -131 -20 -40 -20 -36 7 -43 43 -10 119 -69 151 -118 l34 -49 26 45 c28
49 66 81 133 115 l42 21 -16 30 c-20 42 -10 92 28 130 40 39 99 41 189 4 78
-31 161 -42 194 -24 24 12 46 49 46 75 0 28 -38 55 -77 55 l-38 -1 28 -15 c62
-33 -5 -72 -74 -43 -36 14 -50 56 -25 74 23 17 20 25 -8 25 -14 0 -33 -11 -45
-26 -19 -25 -22 -25 -73 -15 -131 26 -222 -45 -223 -175 -1 -56 -4 -65 -39
-105 -21 -24 -43 -54 -49 -66 -5 -13 -16 -23 -22 -23 -6 0 -17 10 -22 23 -6
12 -28 42 -49 66 -35 40 -38 49 -39 105 -1 129 -92 201 -222 175 -48 -9 -52
-9 -77 15 -14 15 -35 26 -47 26 -21 0 -21 -1 -6 -18z" id="node2" class="node"></path>
<path d="M580 2767 c-11 -30 -21 -39 -50 -47 -44 -12 -106 -54 -121 -81 -10
-19 -7 -19 34 5 25 15 72 31 105 37 l59 11 -4 46 c-7 69 -8 71 -23 29z" id="node3" class="node"></path>
<path d="M2131 2763 c-1 -23 -3 -48 -7 -56 -4 -11 10 -17 58 -26 35 -7 82 -24
106 -37 23 -14 42 -21 42 -16 0 21 -93 84 -140 95 -17 4 -31 19 -42 44 l-16
38 -1 -42z" id="node4" class="node"></path>
<path d="M640 2735 c0 -14 7 -39 15 -55 9 -17 12 -30 8 -31 -5 0 -29 0 -54 1
-164 5 -277 -121 -248 -277 5 -27 23 -67 39 -90 17 -23 30 -44 30 -47 0 -3
-15 -6 -33 -6 -80 0 -146 -44 -190 -125 -19 -35 -22 -57 -24 -184 -1 -79 -4
-154 -7 -167 -8 -31 -42 -50 -62 -33 -22 18 -13 53 14 57 25 4 28 12 10 30
-32 32 -98 -11 -98 -65 0 -107 125 -129 177 -30 11 22 19 73 24 162 11 184 43
249 148 297 33 15 56 19 93 15 26 -3 48 -4 48 -2 0 2 -9 19 -19 37 -35 61 -31
112 11 138 28 17 34 17 59 5 28 -15 45 -47 34 -65 -8 -14 -38 -13 -53 2 -9 9
-12 9 -12 0 0 -24 40 -52 74 -52 43 0 66 22 66 64 0 74 -79 141 -158 133 -50
-5 -77 -26 -94 -73 -17 -48 -28 -42 -28 15 0 61 13 97 48 135 38 40 81 56 152
56 97 0 174 -45 212 -125 l19 -40 -4 63 c-3 36 -1 60 4 56 22 -13 42 -73 43
-126 1 -47 -3 -61 -23 -82 -41 -44 -82 -29 -106 39 l-14 40 -1 -55 c0 -58 19
-100 46 -100 25 0 15 -28 -19 -54 -45 -35 -112 -62 -170 -71 l-47 -6 20 -26
c11 -14 20 -40 20 -57 l1 -31 15 28 c9 16 13 39 10 52 -5 21 -2 23 45 29 62 8
153 41 170 62 10 12 14 13 28 0 40 -35 81 -48 116 -36 70 23 121 120 83 158
-19 19 -73 14 -102 -9 -31 -24 -37 -56 -7 -38 21 14 51 6 51 -14 0 -20 -38
-57 -60 -57 -26 0 -50 27 -50 55 0 34 58 105 109 132 54 28 102 29 150 3 57
-33 85 -84 85 -155 l-1 -60 15 35 c17 41 20 99 9 155 l-9 40 36 -34 c19 -19
45 -54 56 -78 11 -23 22 -43 24 -43 2 0 14 19 25 43 11 24 37 58 57 77 l36 35
-9 -40 c-12 -58 -8 -115 11 -155 l16 -35 -6 41 c-10 76 52 173 122 190 84 21
224 -73 224 -151 0 -24 -29 -55 -52 -55 -22 0 -62 46 -55 64 7 19 38 21 55 4
9 -9 12 -8 12 4 0 42 -98 76 -128 46 -38 -38 13 -135 83 -158 35 -12 76 1 117
37 11 10 18 11 23 4 11 -18 92 -51 158 -64 55 -12 62 -16 59 -35 -2 -11 4 -34
12 -49 l15 -28 1 31 c0 17 9 43 20 57 l20 26 -47 6 c-58 9 -125 36 -170 71
-31 24 -44 54 -23 54 5 0 18 10 30 22 15 17 20 35 20 77 l-1 56 -14 -40 c-23
-65 -67 -84 -104 -44 -35 37 -37 117 -5 181 24 48 32 40 27 -24 l-4 -63 19 40
c21 45 70 91 119 112 39 16 140 17 180 2 69 -26 113 -95 113 -179 0 -59 -11
-64 -29 -14 -24 66 -101 92 -171 56 -68 -34 -103 -128 -62 -165 26 -24 77 -21
102 5 21 23 29 51 8 30 -15 -15 -45 -16 -53 -2 -11 18 6 50 33 64 23 12 31 12
55 -1 49 -25 54 -85 12 -149 -8 -13 -15 -25 -15 -27 0 -3 20 -2 45 1 88 9 175
-46 216 -137 15 -33 22 -75 25 -151 7 -145 19 -194 56 -225 63 -53 148 -14
148 68 0 54 -66 97 -98 65 -19 -19 -14 -35 11 -34 27 1 36 -34 13 -53 -20 -17
-54 1 -62 33 -3 12 -6 90 -7 172 -2 145 -3 150 -31 194 -40 65 -97 103 -163
108 -29 2 -53 6 -53 8 0 2 14 24 32 49 27 38 33 57 36 114 5 85 -8 128 -54
175 -53 54 -89 70 -174 73 -41 1 -76 3 -78 3 -1 0 4 13 13 30 8 16 15 41 15
55 l0 27 -26 -31 c-14 -17 -53 -47 -87 -67 -122 -73 -187 -139 -187 -191 0
-12 -4 -24 -9 -28 -8 -4 -62 5 -121 22 -9 2 8 16 40 34 70 38 100 71 100 112
-1 58 -40 87 -120 87 -41 0 -56 -5 -75 -25 -30 -29 -32 -56 -7 -78 19 -18 40
-21 66 -11 21 8 20 22 -1 20 -12 0 -19 7 -21 21 -5 33 41 50 74 28 33 -22 31
-59 -5 -84 -16 -12 -32 -21 -36 -21 -4 0 -49 -20 -100 -45 -100 -48 -167 -106
-187 -161 -15 -43 -31 -43 -46 -1 -19 52 -89 115 -177 158 -44 21 -85 39 -91
39 -5 0 -26 11 -47 25 -45 31 -50 66 -12 91 21 14 31 15 51 5 30 -13 31 -57 1
-55 -21 2 -22 -12 -1 -20 28 -11 50 -6 67 12 24 26 21 49 -8 77 -19 20 -34 25
-75 25 -55 0 -104 -20 -114 -45 -3 -9 -6 -32 -6 -50 0 -38 35 -73 107 -108 24
-12 43 -24 43 -28 0 -3 -19 -9 -42 -12 -24 -3 -53 -9 -65 -12 -19 -6 -23 -2
-33 35 -15 57 -68 111 -166 170 -45 28 -94 64 -108 81 l-26 31 0 -27z" id="node5" class="node"></path>
<path d="M286 2408 c-3 -13 -6 -41 -6 -63 0 -36 -5 -45 -46 -79 -49 -41 -94
-122 -93 -166 0 -21 4 -18 24 21 31 59 98 117 152 131 40 11 41 12 26 34 -18
27 -44 124 -37 136 3 4 1 8 -4 8 -5 0 -12 -10 -16 -22z" id="node6" class="node"></path>
<path d="M2420 2392 c0 -21 -10 -59 -23 -84 l-23 -45 41 -11 c52 -14 127 -79
154 -134 18 -36 21 -39 21 -18 0 45 -46 126 -94 166 -41 34 -46 43 -46 79 0
49 -9 85 -21 85 -5 0 -9 -17 -9 -38z" id="node7" class="node"></path>
<path d="M404 2121 c-64 -39 -87 -95 -98 -236 -10 -135 -50 -231 -106 -260
-16 -8 -52 -15 -81 -15 -47 0 -50 -2 -38 -17 22 -26 90 -53 138 -53 134 0 212
81 210 220 l-1 65 -9 -48 c-12 -61 -50 -122 -92 -147 -42 -26 -53 -25 -33 3
37 50 54 124 58 240 2 98 4 102 41 71 71 -60 176 10 138 92 -16 37 -57 49 -90
27 l-26 -18 28 -3 c24 -3 28 -7 25 -30 -4 -33 -32 -41 -59 -16 -33 29 -21 89
25 126 28 23 9 23 -30 -1z" id="node8" class="node"></path>
<path d="M2303 2116 c47 -44 49 -120 2 -132 -31 -8 -45 2 -45 31 0 18 6 24 28
27 l27 3 -26 18 c-51 34 -107 -12 -94 -79 6 -36 44 -64 85 -64 28 0 80 27 81
43 2 36 16 -48 18 -110 2 -87 24 -175 52 -214 27 -39 5 -38 -42 1 -41 33 -66
79 -78 143 -9 41 -9 41 -10 -21 -2 -136 76 -222 203 -222 34 0 67 8 96 23 62
31 63 47 3 47 -63 0 -105 26 -132 83 -24 50 -51 163 -51 219 0 105 -46 194
-111 217 l-32 11 26 -24z" id="node9" class="node"></path>
<path d="M945 2075 c-38 -14 -81 -25 -94 -25 -18 0 -22 -3 -14 -11 14 -14 85
-14 160 1 47 10 69 10 97 0 37 -12 78 -57 91 -99 l7 -23 18 29 c9 16 32 41 49
56 37 31 35 33 -14 13 -34 -15 -34 -14 -56 20 -42 69 -123 82 -244 39z" id="node10" class="node"></path>
<path d="M1588 2085 c-14 -8 -36 -30 -47 -49 l-22 -35 -37 16 -37 15 43 -46
c23 -25 42 -51 42 -58 0 -7 11 7 24 32 12 25 38 56 57 68 36 25 27 25 194 3
40 -6 67 -5 80 3 19 10 19 11 -5 14 -14 2 -57 14 -97 28 -80 27 -155 30 -195
9z" id="node11" class="node"></path>
<path d="M674 2041 c-43 -26 -67 -68 -66 -117 0 -48 33 -119 62 -134 30 -16
54 -68 39 -86 -17 -21 -35 -17 -59 14 l-21 27 4 -43 c4 -29 19 -63 44 -99 76
-112 85 -126 99 -165 8 -22 14 -59 14 -82 l0 -41 -25 43 c-13 23 -44 68 -69
100 -24 31 -54 77 -66 100 -12 24 -23 42 -26 40 -7 -8 25 -101 51 -148 63
-113 95 -189 103 -240 l8 -55 34 65 c32 60 35 72 35 150 -1 76 -5 94 -38 170
-43 99 -44 106 -18 120 24 12 51 4 73 -24 l18 -21 0 28 c0 28 -37 117 -49 117
-3 0 -12 4 -20 9 -12 7 -10 14 8 36 54 70 0 187 -73 159 -19 -7 -22 -69 -4
-80 6 -4 8 -3 5 2 -3 6 -2 16 3 24 7 11 11 11 24 1 41 -34 -1 -95 -50 -72 -61
27 -77 133 -28 186 31 34 27 40 -12 16z" id="node12" class="node"></path>
<path d="M2045 2024 c51 -55 29 -169 -36 -189 -27 -9 -59 12 -59 39 0 28 31
59 37 39 8 -24 23 -13 23 16 0 47 -42 55 -84 16 -34 -31 -37 -99 -5 -139 l21
-27 -26 -20 c-30 -24 -56 -79 -56 -118 1 -22 2 -24 13 -10 20 26 50 37 75 28
12 -5 22 -14 22 -21 0 -7 -17 -51 -37 -98 -34 -76 -37 -94 -37 -170 0 -77 3
-91 34 -150 l33 -65 13 68 c8 41 28 95 50 135 55 100 81 153 93 197 15 54 7
55 -20 3 -12 -23 -42 -69 -66 -100 -24 -32 -55 -77 -68 -100 l-25 -43 0 41 c0
23 6 60 14 82 14 39 23 53 99 165 25 35 40 71 44 99 l5 43 -25 -30 c-21 -25
-29 -28 -44 -19 -29 18 -26 40 11 78 57 56 76 95 76 153 0 45 -4 56 -34 87
-18 20 -40 36 -49 36 -12 0 -11 -6 8 -26z" id="node13" class="node"></path>
<path d="M970 1990 c-19 -5 -59 -11 -89 -12 -47 -1 -51 -3 -35 -15 10 -7 21
-13 25 -13 4 0 10 -13 14 -29 12 -57 87 -101 137 -82 22 10 22 10 -5 10 -34 1
-87 50 -87 80 0 16 6 21 29 21 24 0 28 -4 24 -22 -2 -13 1 -30 6 -38 9 -13 12
-12 25 5 12 17 18 18 35 8 15 -10 20 -9 25 2 15 39 46 -16 46 -81 0 -39 2 -38
-37 -19 -79 40 -155 -60 -87 -114 34 -26 64 -13 63 27 0 15 -3 21 -6 15 -9
-23 -35 -15 -31 9 4 29 34 35 59 12 15 -14 19 -31 20 -93 0 -42 4 -94 8 -116
6 -36 8 -33 13 40 7 90 42 197 82 249 34 45 33 52 -3 27 -37 -27 -41 -26 -41
4 0 35 -23 86 -48 109 -25 21 -92 29 -142 16z" id="node14" class="node"></path>
<path d="M1655 1993 c-44 -11 -85 -73 -85 -128 0 -30 -4 -31 -41 -4 -36 25
-37 18 -3 -27 39 -51 74 -157 81 -248 6 -74 8 -77 14 -41 5 22 8 74 8 116 1
62 5 79 20 93 25 23 55 17 59 -12 4 -24 -22 -32 -31 -9 -3 6 -6 0 -6 -15 -1
-40 29 -53 63 -27 68 54 -8 154 -87 114 -17 -8 -32 -15 -34 -15 -10 0 -1 76
13 108 15 35 16 36 26 15 9 -18 13 -20 30 -10 16 10 22 9 32 -6 12 -15 15 -15
26 -2 7 8 10 24 7 35 -4 17 0 20 24 20 23 0 29 -5 29 -21 0 -30 -53 -79 -87
-80 l-28 -1 25 -8 c14 -4 36 -5 50 -2 32 6 80 50 80 73 0 18 8 28 45 54 19 13
19 14 -9 11 -16 -2 -61 3 -100 10 -73 14 -87 15 -121 7z" id="node15" class="node"></path>
<path d="M510 1885 c10 -12 10 -18 0 -30 -7 -8 -18 -15 -25 -15 -9 0 -14 -28
-17 -97 -5 -112 -23 -164 -90 -250 l-41 -54 -28 31 c-15 16 -35 30 -44 30 -15
0 -15 -1 -1 -16 64 -63 -66 -162 -142 -108 -37 25 -24 84 19 84 25 0 41 -24
27 -38 -9 -9 -7 -12 8 -12 44 0 58 46 24 80 -24 24 -70 26 -110 5 -86 -45 -61
-168 41 -195 66 -18 157 15 233 84 22 20 41 36 43 36 5 0 -15 -47 -53 -121
-60 -121 -58 -216 6 -274 l23 -20 -22 42 c-34 68 -28 104 40 237 99 196 104
212 104 359 0 125 1 128 23 134 45 11 58 81 20 107 -30 21 -55 22 -38 1z" id="node16" class="node"></path>
<path d="M2182 1884 c-37 -26 -28 -84 18 -107 22 -11 23 -17 21 -117 -2 -89 2
-118 24 -188 14 -45 44 -114 66 -153 84 -148 94 -191 58 -268 l-20 -45 22 20
c67 61 66 152 -5 293 -26 51 -45 95 -42 98 3 3 22 -12 43 -32 71 -70 165 -103
235 -84 73 19 109 84 82 148 -22 54 -105 78 -152 45 -38 -26 -24 -84 21 -84
15 0 17 3 8 13 -13 16 4 37 30 37 45 0 51 -65 8 -89 -76 -42 -191 55 -133 113
9 9 11 16 4 16 -22 0 -51 -21 -59 -43 -8 -21 -10 -20 -45 18 -21 22 -51 69
-69 104 -27 56 -32 77 -35 163 -4 86 -7 98 -22 98 -23 0 -34 28 -19 46 16 20
-10 19 -39 -2z" id="node17" class="node"></path>
<path d="M549 1638 c-15 -52 -17 -135 -6 -205 8 -46 7 -53 -7 -53 -18 0 -66
-28 -66 -39 0 -3 20 -6 44 -6 79 0 126 -67 126 -180 0 -63 -2 -69 -34 -101
-26 -26 -42 -34 -71 -34 -49 0 -105 53 -105 99 0 31 37 81 59 81 12 0 41 -28
41 -40 0 -36 -51 -58 -63 -27 -3 7 -6 5 -6 -5 -1 -24 34 -58 59 -58 12 0 32
11 45 25 38 37 35 112 -4 154 -68 73 -171 1 -171 -119 0 -162 180 -248 280
-133 75 85 64 215 -28 364 -49 78 -72 153 -74 240 0 43 -2 79 -4 79 -2 0 -9
-19 -15 -42z" id="node18" class="node"></path>
<path d="M2161 1605 c0 -91 -31 -184 -92 -279 -60 -92 -74 -218 -34 -295 47
-91 169 -114 244 -47 75 67 80 211 10 270 -41 35 -83 34 -120 -3 -24 -25 -29
-38 -29 -79 0 -59 28 -102 66 -102 28 0 64 33 63 58 0 10 -3 12 -6 5 -8 -21
-51 -15 -58 8 -7 20 18 59 37 59 22 0 58 -51 58 -81 0 -46 -56 -99 -105 -99
-29 0 -45 8 -71 34 -32 32 -34 38 -34 100 0 112 48 181 126 181 24 0 44 3 44
6 0 10 -48 39 -65 39 -18 0 -18 8 -4 84 7 42 7 77 -1 125 -17 100 -28 107 -29
16z" id="node19" class="node"></path>
<path d="M870 1560 c-11 -11 -20 -30 -20 -43 0 -28 26 -67 46 -67 18 0 18 -9
-3 -56 -25 -59 -22 -212 6 -286 24 -61 91 -133 135 -144 30 -7 32 -16 10 -35
-55 -46 -58 -147 -5 -248 34 -67 38 -107 8 -105 -23 2 -22 -13 2 -26 32 -17
58 -11 81 17 l21 27 54 -59 c30 -32 57 -56 60 -53 3 3 -2 21 -10 41 -29 70
-18 75 38 17 28 -31 57 -64 63 -75 10 -19 12 -18 27 10 8 17 36 50 61 75 37
35 46 40 46 25 0 -11 -9 -39 -20 -63 -10 -23 -15 -42 -10 -42 4 0 33 28 64 62
l56 61 21 -26 c22 -28 48 -34 80 -17 24 13 25 28 2 26 -29 -2 -27 35 8 102 53
103 51 205 -5 251 -23 19 -20 26 17 39 44 16 99 76 125 137 38 92 37 197 -3
321 -5 16 -2 23 14 27 11 3 26 16 32 30 25 56 -18 108 -78 92 -26 -7 -26 -8
-8 -15 12 -4 26 -15 34 -23 17 -21 -2 -57 -29 -57 -23 0 -24 -4 -10 -30 19
-35 29 -152 20 -226 -11 -84 -45 -148 -98 -185 -30 -20 -47 -24 -112 -24 -69
0 -81 3 -119 29 -61 42 -95 105 -88 162 2 25 13 54 23 65 11 12 19 35 19 51 0
41 46 78 70 58 9 -7 14 -19 11 -27 -10 -26 15 -12 59 32 25 24 45 49 45 54 0
5 -17 11 -37 15 -21 3 -54 8 -74 12 -24 4 -46 1 -67 -10 -17 -9 -47 -16 -67
-16 -20 0 -50 7 -67 16 -21 11 -43 14 -67 10 -20 -4 -53 -9 -73 -12 -21 -4
-38 -10 -38 -15 0 -12 87 -99 99 -99 5 0 7 8 4 19 -7 28 26 36 57 13 17 -13
25 -29 25 -50 0 -16 9 -39 19 -51 11 -12 21 -41 23 -68 4 -41 0 -55 -24 -91
-43 -62 -96 -95 -164 -100 -92 -7 -149 22 -197 100 -39 64 -48 248 -16 327 18
42 18 41 -5 41 -47 0 -51 65 -4 76 18 5 21 9 11 15 -23 15 -57 10 -78 -11z
m662 -600 c61 -22 113 -72 124 -116 8 -33 -2 -134 -15 -147 -7 -7 -12 0 -17
19 -4 16 -11 38 -17 49 -9 17 -13 12 -26 -39 -20 -74 -36 -82 -45 -22 -4 25
-16 55 -27 68 -17 19 -20 20 -15 4 11 -34 -15 -97 -58 -145 -24 -25 -49 -57
-56 -71 l-13 -24 -16 24 c-9 14 -35 46 -58 72 -40 46 -71 118 -58 138 3 6 2
10 -4 10 -15 0 -29 -31 -37 -79 -9 -56 -25 -47 -45 25 -18 64 -14 66 -47 -16
l-10 -25 -12 30 c-6 17 -10 56 -8 88 7 90 50 136 159 168 84 25 219 20 301
-11z" id="node20" class="node"></path>
<path d="M1043 1327 c-23 -7 -45 -15 -49 -19 -9 -10 76 -9 136 1 l45 8 -28 11
c-33 14 -48 14 -104 -1z" id="node21" class="node"></path>
<path d="M1580 1328 c-24 -11 -23 -12 20 -19 62 -10 130 -11 130 -1 0 8 -89
33 -113 31 -7 0 -23 -5 -37 -11z" id="node22" class="node"></path>
<path d="M235 1269 c-27 -10 -70 -18 -94 -19 -58 0 -46 -11 29 -24 l61 -11 2
-90 c2 -81 6 -96 37 -154 47 -88 151 -174 293 -243 31 -15 57 -29 57 -31 0 -2
-7 -18 -16 -36 -20 -39 -11 -96 16 -111 43 -23 90 -6 90 33 0 16 -2 17 -15 7
-19 -16 -39 -1 -33 26 3 20 60 31 104 20 34 -9 95 -65 110 -103 20 -46 18
-106 -5 -134 -17 -21 -22 -22 -46 -11 -30 14 -30 39 0 56 11 6 22 12 24 13 2
2 -2 9 -9 18 -28 33 -93 7 -103 -41 -14 -75 52 -126 134 -104 42 12 77 49 86
92 3 16 10 31 15 34 13 8 241 -224 261 -266 l18 -35 -7 40 c-10 58 -50 138
-97 191 l-41 46 22 17 c13 10 25 32 29 54 l6 38 -30 -30 c-27 -27 -34 -29 -63
-21 -52 15 -73 34 -105 91 -28 50 -30 62 -30 154 0 81 4 109 21 146 l22 47
-40 38 c-52 50 -87 121 -96 192 l-8 57 -7 -60 c-12 -101 6 -162 78 -261 14
-19 13 -25 -5 -67 -13 -28 -21 -69 -21 -106 -1 -34 -3 -61 -5 -61 -2 0 -20 9
-41 19 -21 11 -58 28 -83 39 -134 58 -170 75 -170 81 0 6 92 51 104 51 3 0 6
-9 6 -21 0 -30 53 -79 85 -79 57 0 94 36 95 92 0 29 -6 41 -25 54 -23 15 -27
15 -50 0 -30 -20 -33 -36 -5 -29 29 8 38 -24 13 -49 -17 -17 -24 -18 -42 -8
-41 21 -44 55 -15 142 29 89 27 123 -4 62 -45 -88 -145 -143 -237 -131 -162
23 -271 200 -222 360 8 26 12 46 9 46 -4 -1 -29 -10 -57 -20z" id="node23" class="node"></path>
<path d="M2446 1243 c38 -127 -14 -260 -130 -328 -116 -68 -265 -24 -327 97
-32 63 -34 37 -5 -57 23 -74 25 -89 14 -112 -21 -43 -44 -51 -69 -26 -26 26
-19 58 11 50 28 -7 25 17 -4 31 -39 17 -70 -5 -74 -53 -8 -110 153 -131 175
-24 3 16 8 29 10 29 12 0 103 -45 103 -51 0 -6 -36 -23 -170 -81 -25 -11 -62
-28 -83 -39 -21 -10 -40 -19 -42 -19 -3 0 -5 28 -5 63 0 40 -7 77 -20 106 -19
40 -19 46 -5 65 72 99 90 160 78 261 l-7 60 -8 -57 c-9 -71 -44 -142 -96 -192
l-40 -38 21 -47 c17 -36 21 -66 22 -142 0 -86 -3 -101 -29 -153 -34 -66 -70
-96 -119 -96 -27 0 -41 7 -58 28 l-22 27 6 -38 c3 -22 15 -46 28 -56 l23 -18
-41 -47 c-47 -53 -87 -133 -97 -191 l-7 -40 18 35 c20 41 249 274 262 266 4
-3 11 -18 14 -34 9 -43 44 -80 86 -92 82 -22 148 29 134 104 -9 46 -72 73
-101 44 -16 -16 -15 -28 2 -28 7 0 19 -7 26 -15 10 -13 10 -19 -5 -35 -23 -25
-30 -25 -55 0 -24 24 -27 85 -6 133 15 38 76 94 110 103 44 11 101 0 104 -20
6 -27 -14 -42 -33 -26 -13 10 -15 9 -15 -7 0 -39 47 -56 90 -33 27 15 36 72
16 111 -9 18 -16 34 -16 36 0 2 26 16 59 32 84 40 195 117 237 163 20 22 49
68 65 102 25 52 29 73 29 142 l0 82 53 6 c81 10 87 22 13 29 -36 3 -79 13 -95
22 -17 8 -32 15 -35 15 -2 0 2 -21 10 -47z" id="node24" class="node"></path>
<path d="M1060 1250 c-25 -4 -52 -5 -60 -3 -13 4 -13 4 0 -6 9 -7 65 -10 149
-9 115 1 130 3 110 14 -26 14 -125 16 -199 4z" id="node25" class="node"></path>
<path d="M1472 1247 c-20 -11 -6 -13 110 -15 74 -1 140 2 148 8 11 7 8 9 -15
8 -16 0 -73 3 -125 6 -71 5 -101 3 -118 -7z" id="node26" class="node"></path>
<path d="M1090 1170 c-74 -17 -75 -17 -37 -25 38 -7 82 -2 151 18 31 9 35 12
20 18 -28 11 -50 9 -134 -11z" id="node27" class="node"></path>
<path d="M1505 1181 l-20 -8 20 -6 c63 -18 142 -28 174 -22 35 7 34 8 -39 26
-82 20 -105 22 -135 10z" id="node28" class="node"></path>
<path d="M370 803 c0 -12 70 -85 114 -118 21 -16 36 -38 40 -58 4 -18 14 -42
24 -54 17 -22 17 -21 17 47 l-1 69 -59 32 c-33 17 -77 45 -97 61 -21 16 -38
26 -38 21z" id="node29" class="node"></path>
<path d="M2304 770 c-22 -16 -63 -40 -89 -55 l-49 -26 -1 -69 c0 -68 0 -69 17
-47 10 12 20 36 24 54 4 22 21 44 60 74 52 42 103 99 87 99 -4 -1 -26 -14 -49
-30z" id="node30" class="node"></path>
<path d="M1186 503 c-11 -11 -7 -69 8 -111 8 -22 34 -66 58 -99 41 -56 89
-143 103 -188 6 -16 11 -10 31 34 13 29 50 92 82 140 63 92 82 136 82 186 0
45 -9 49 -34 12 -12 -18 -36 -41 -53 -52 -39 -24 -43 -38 -7 -25 60 23 58 8
-11 -69 -30 -34 -58 -73 -61 -86 -8 -32 -30 -32 -38 0 -3 13 -31 52 -61 86
-30 34 -55 65 -55 70 0 11 -2 11 38 0 41 -12 41 -2 -1 24 -17 11 -41 34 -53
52 -12 18 -24 29 -28 26z" id="node31" class="node"></path>
<path d="M968 359 c-28 -39 -24 -49 10 -28 15 10 29 5 78 -27 32 -21 69 -47
82 -58 12 -11 22 -15 22 -10 0 9 -101 110 -145 146 -19 15 -21 14 -47 -23z" id="node32" class="node"></path>
<path d="M1652 324 c-78 -72 -113 -120 -54 -74 15 12 52 37 81 57 47 29 58 33
78 24 13 -6 26 -11 28 -11 4 0 -39 68 -49 77 -1 1 -39 -32 -84 -73z" id="node33" class="node"></path>
</g>
<g transform="translate(0.000000,300.000000) scale(0.100000,-0.100000)" fill="#A1A1A1" stroke="none">


</g>
</svg>