<!--?xml version="1.0" standalone="no"?-->

<svg version="1.0" xmlns="http://www.w3.org/2000/svg" width="300.000000pt" height="200.000000pt" viewBox="0 0 300.000000 200.000000" preserveAspectRatio="xMidYMid meet">
<g transform="translate(0.000000,200.000000) scale(0.100000,-0.100000)" fill="#020202" stroke="none">


<path class="node" id="node3" d="M1456 1908 c4 -69 3 -71 -10 -43 -14 28 -86 106 -86 92 0 -3 11 -23
25 -43 28 -41 27 -51 -3 -35 -43 23 -104 7 -139 -37 -28 -35 -12 -43 22 -13
41 36 76 40 105 11 24 -24 25 -45 5 -84 -20 -37 -11 -45 18 -18 24 23 51 32
29 10 -7 -7 -12 -19 -12 -27 0 -10 10 -5 30 14 l30 29 -6 -45 c-5 -37 -2 -49
20 -78 14 -19 26 -44 26 -55 0 -31 20 2 20 34 l1 25 19 -23 c22 -27 34 -14 20
22 -14 37 2 32 43 -14 28 -30 38 -51 43 -89 8 -64 24 -56 24 12 0 67 -24 115
-77 150 -24 16 -43 35 -43 43 0 20 100 65 156 72 24 2 44 9 44 13 0 14 -121 9
-165 -6 -22 -8 -41 -15 -42 -15 -2 0 23 81 32 103 13 33 -15 17 -41 -23 l-27
-40 -23 56 c-34 85 -42 85 -38 2z"></path>
<path class="node" id="node4" d="M1896 1798 c-11 -6 -73 -13 -138 -16 -65 -3 -118 -9 -118 -13 0 -5
10 -9 23 -9 44 0 98 -22 134 -53 46 -41 91 -139 100 -217 3 -34 10 -63 14 -66
13 -8 11 110 -2 162 -16 61 -3 74 47 50 20 -9 39 -15 41 -12 8 8 -47 54 -106
88 l-53 31 43 21 c24 12 45 27 47 34 5 15 -7 15 -32 0z"></path>
<path class="node" id="node5" d="M1294 1781 c17 -19 17 -20 -6 -35 -12 -8 -42 -19 -66 -24 -53 -12
-105 -51 -122 -91 -7 -19 -38 -48 -81 -77 -38 -26 -69 -51 -69 -55 0 -18 135
78 162 115 33 46 51 58 90 63 36 4 124 -35 110 -49 -7 -7 -21 -7 -43 1 -49 17
-94 14 -114 -9 -10 -11 -26 -22 -36 -25 -11 -4 -19 -13 -19 -20 0 -9 6 -12 15
-9 8 3 28 1 45 -4 28 -10 54 -7 104 14 29 11 11 -13 -28 -38 -28 -18 -28 -19
-6 -14 76 19 81 19 105 -4 14 -13 25 -29 25 -37 0 -7 5 -13 11 -13 11 0 9 35
-6 86 -6 18 -1 22 29 28 50 10 55 26 8 26 l-40 0 5 41 6 40 -36 -6 c-19 -4
-46 -4 -58 0 -22 7 -21 8 13 26 20 10 40 28 43 39 8 26 -10 50 -38 50 -19 0
-19 -1 -3 -19z"></path>
<path class="node" id="node6" d="M1630 1721 c0 -5 12 -16 26 -26 55 -36 68 -118 33 -213 -35 -95 -49
-154 -42 -180 5 -22 8 -18 23 30 18 58 66 152 86 169 9 7 19 -4 38 -43 14 -29
28 -69 31 -88 l5 -35 -12 32 c-24 59 -35 59 -41 -1 -7 -67 -47 -138 -138 -241
-72 -82 -143 -200 -164 -269 -22 -72 -19 -191 6 -272 22 -74 57 -126 45 -69
-23 118 -29 215 -17 269 14 61 77 196 92 196 5 0 9 -24 9 -52 1 -77 31 -198
49 -198 4 0 5 41 3 90 -6 113 11 199 50 270 17 30 41 75 53 99 20 39 24 42 33
25 5 -10 15 -38 21 -61 12 -43 38 -62 28 -20 -3 12 -9 55 -13 95 -5 58 -4 76
9 90 12 14 13 29 6 82 -21 150 -64 234 -152 294 -54 37 -67 42 -67 27z"></path>
<path class="node" id="node7" d="M1596 1560 c-4 -30 -15 -59 -26 -70 -21 -21 -26 -40 -11 -40 6 0 13
5 16 10 3 6 10 10 16 10 20 0 7 -23 -40 -73 -26 -29 -53 -61 -59 -72 -22 -39
-13 25 13 100 48 135 27 157 -25 27 -29 -73 -35 -99 -35 -164 0 -74 1 -79 33
-110 27 -27 40 -33 76 -33 52 0 99 30 104 65 l4 23 -27 -22 c-69 -54 -128 6
-94 96 6 15 29 52 51 81 32 40 42 64 46 101 4 48 -12 121 -27 121 -5 0 -11
-23 -15 -50z"></path>
<path class="node" id="node8" d="M1949 1478 c0 -68 -4 -141 -8 -163 l-8 -40 -25 54 c-14 30 -27 50
-30 45 -3 -5 3 -43 13 -84 21 -80 19 -139 -7 -214 -16 -45 -16 -46 -6 -46 18
0 71 63 77 93 4 18 10 36 12 40 7 12 34 -30 49 -77 l13 -41 0 42 c1 23 -6 87
-15 142 -19 123 -16 150 11 93 18 -38 35 -54 35 -34 0 4 -11 53 -25 109 -24
98 -58 187 -76 199 -5 3 -9 -49 -10 -118z"></path>
<path class="node" id="node9" d="M1437 1550 c-21 -24 -25 -37 -20 -67 5 -32 2 -39 -22 -59 -21 -16
-30 -34 -34 -66 l-6 -43 -47 -1 c-27 0 -48 -4 -49 -8 -1 -3 2 -35 5 -70 6 -49
3 -75 -12 -119 -19 -57 -10 -79 15 -38 6 10 28 22 49 25 21 4 50 20 67 37 30
30 30 31 24 120 -6 93 3 143 29 153 10 4 14 22 14 58 0 32 6 62 15 75 24 34 0
37 -28 3z m-67 -318 c0 -62 -13 -84 -56 -94 -19 -5 -20 -1 -16 56 5 88 2 83
65 95 4 0 7 -25 7 -57z"></path>
<path class="node" id="node10" d="M1063 1464 c-16 -24 -18 -34 -9 -34 15 0 30 16 39 42 11 31 -8 26
-30 -8z"></path>
<path class="node" id="node11" d="M1320 1464 c0 -48 -18 -57 -102 -49 -68 6 -76 5 -112 -20 l-39 -27
17 26 c19 29 4 36 -24 11 -25 -23 -90 -32 -90 -13 0 8 5 19 12 26 6 6 8 15 4
19 -4 4 -17 -6 -30 -21 -18 -23 -27 -27 -47 -21 l-24 7 23 -24 c12 -13 22 -35
22 -49 0 -17 18 -43 58 -82 32 -31 61 -57 64 -57 4 0 0 16 -8 37 l-16 36 32
-26 c17 -15 36 -27 41 -27 14 0 11 16 -5 29 -20 17 -29 77 -15 103 16 32 50
58 77 58 12 0 41 -9 64 -21 45 -23 72 -20 106 11 25 24 28 58 7 86 -14 18 -14
17 -15 -12z m-261 -121 c-23 -31 -42 -43 -67 -43 -36 0 -22 20 28 41 56 22 55
22 39 2z"></path>
<path class="node" id="node12" d="M1120 1361 c-8 -6 -12 -11 -10 -13 3 -2 19 -10 35 -18 60 -31 38
-137 -32 -155 -29 -7 -43 -21 -43 -42 0 -32 85 5 127 56 l22 26 2 -25 c1 -15
5 -6 9 20 10 61 2 105 -24 129 -26 24 -66 34 -86 22z"></path>
<path class="node" id="node13" d="M1450 1161 c0 -4 12 -25 26 -46 l26 -38 -33 -71 c-21 -46 -34 -90
-36 -126 l-3 -55 19 50 c21 58 61 137 90 180 24 35 27 55 8 55 -8 0 -33 14
-55 30 -23 17 -42 26 -42 21z"></path>
<path class="node" id="node14" d="M1218 1123 c-8 -29 -35 -40 -59 -25 -24 15 -30 15 -26 0 3 -20 -52
-23 -59 -4 -11 28 -24 17 -24 -19 0 -19 5 -35 10 -35 6 0 10 5 10 10 0 16 66
12 80 -5 32 -39 84 6 78 67 -3 28 -4 30 -10 11z"></path>
<path class="node" id="node15" d="M1333 1090 c-18 -11 -33 -26 -33 -35 0 -8 -11 -17 -25 -21 -14 -3
-29 -12 -33 -19 -15 -25 -56 -25 -86 0 -34 30 -66 33 -66 7 0 -34 25 -54 72
-59 39 -5 50 -11 74 -44 16 -21 33 -39 38 -39 8 0 3 29 -10 63 -4 12 2 13 45
4 27 -5 63 -6 78 -2 26 8 25 9 -21 16 -59 9 -85 29 -39 29 30 0 59 21 46 33
-3 4 -17 7 -30 7 -32 0 -29 20 9 52 39 32 27 37 -19 8z"></path>
<path class="node" id="node16" d="M1755 1048 c-24 -44 -30 -68 -33 -138 -2 -47 1 -118 7 -158 11 -72
47 -162 64 -162 5 0 6 8 2 18 -45 102 -41 382 5 382 5 0 17 -23 28 -52 28 -76
47 -76 37 -2 -7 58 -49 154 -71 161 -6 2 -23 -20 -39 -49z"></path>
<path class="node" id="node17" d="M1577 813 c-4 -3 -7 -43 -7 -89 0 -62 9 -116 36 -221 51 -199 53
-206 68 -333 l14 -115 1 105 c1 92 -11 215 -35 360 l-7 44 39 -31 c53 -41 151
-103 164 -103 5 0 -24 32 -65 71 -87 83 -138 156 -175 251 -15 37 -30 65 -33
61z"></path>
</g>
<g transform="translate(0.000000,200.000000) scale(0.100000,-0.100000)" fill="#7C8A7D" stroke="none">

<path class="node" id="node19" d="M1332 1283 c-28 -5 -30 -10 -34 -89 -4 -57 -3 -61 16 -56 43 10 56
32 56 94 0 32 -3 57 -7 57 -5 -1 -18 -4 -31 -6z"></path>
<path class="node" id="node20" d="M1020 1341 c-50 -21 -64 -41 -28 -41 25 0 44 12 67 43 16 20 17 20
-39 -2z"></path>
</g>
</svg>