<!--?xml version="1.0" standalone="no"?-->

<svg version="1.0" xmlns="http://www.w3.org/2000/svg" width="300.000000pt" height="300.000000pt" viewBox="0 0 300.000000 300.000000" preserveAspectRatio="xMidYMid meet">
<g transform="translate(0.000000,300.000000) scale(0.100000,-0.100000)" fill="#0C0C0C" stroke="none">
<path class="node" id="node1" d="M1330 2784 c-98 -34 -147 -100 -136 -182 12 -88 118 -254 241 -378
152 -152 309 -235 539 -284 83 -18 123 -21 250 -18 135 4 157 7 205 29 l55 25
-130 -4 c-111 -4 -142 -1 -209 18 -275 75 -473 216 -572 408 -46 88 -54 121
-54 229 -1 96 -16 134 -62 156 -43 21 -68 21 -127 1z"></path>
<path class="node" id="node2" d="M913 2659 c-46 -29 -70 -106 -53 -169 23 -85 185 -228 366 -321 81
-42 221 -89 262 -89 26 1 26 1 -8 16 -124 54 -227 184 -325 409 -48 111 -66
141 -94 158 -40 23 -108 22 -148 -4z"></path>
<path class="node" id="node3" d="M1620 2597 c-22 -12 -25 -19 -24 -68 1 -79 61 -187 146 -263 91 -83
230 -156 296 -156 l27 0 -31 18 c-99 56 -146 134 -199 333 -18 69 -46 106 -99
130 -48 22 -82 24 -116 6z"></path>
<path class="node" id="node4" d="M632 2542 c-42 -37 -56 -126 -28 -180 64 -124 346 -261 561 -272 60
-4 58 1 -20 40 -161 81 -265 181 -331 318 -20 40 -45 82 -57 92 -27 26 -96 27
-125 2z"></path>
<path class="node" id="node5" d="M346 2467 c-65 -112 -48 -319 37 -441 108 -155 287 -298 506 -405 94
-46 196 -82 232 -81 8 1 1 8 -16 17 -46 25 -135 91 -184 137 -124 117 -250
331 -286 486 -10 41 -22 84 -27 95 -8 16 -226 235 -234 235 -1 0 -14 -20 -28
-43z m54 -79 c1 -21 41 -64 99 -107 60 -45 58 -48 -15 -26 -27 8 -51 15 -53
15 -8 0 9 -161 19 -179 6 -11 6 -22 1 -25 -29 -18 -81 137 -81 242 0 43 3 82
7 85 10 11 23 8 23 -5z"></path>
<path class="node" id="node6" d="M244 2040 c-40 -15 -59 -75 -59 -185 0 -125 14 -157 99 -224 129
-103 379 -250 466 -276 14 -4 39 -13 55 -20 65 -29 291 -84 350 -85 5 0 -39
27 -98 60 -112 62 -172 103 -297 204 -195 157 -420 399 -460 495 -14 34 -27
41 -56 31z"></path>
<path class="node" id="node7" d="M1046 1931 l-50 -6 47 -42 c57 -49 113 -65 215 -61 40 2 72 4 72 5 0
2 -16 21 -36 43 -48 53 -137 75 -248 61z"></path>
<path class="node" id="node8" d="M1882 1843 c-1 -43 -7 -105 -11 -138 -5 -33 -5 -69 -1 -80 4 -11 32
-43 63 -72 144 -137 521 -336 677 -359 l45 -6 -70 44 c-188 118 -377 280 -505
433 -77 92 -111 136 -149 193 -23 34 -43 62 -44 62 -1 0 -3 -35 -5 -77z"></path>
<path class="node" id="node9" d="M1678 1875 c-11 -11 5 -54 27 -75 22 -20 24 -20 64 -4 51 20 52 39 4
54 -21 7 -42 16 -47 21 -11 10 -40 12 -48 4z"></path>
<path class="node" id="node10" d="M2036 1829 c95 -135 220 -273 280 -310 69 -42 213 -35 382 21 l87 29
-63 0 c-96 1 -256 38 -347 80 -79 37 -197 108 -265 161 -19 14 -52 37 -74 50
l-38 23 38 -54z"></path>
<path class="node" id="node11" d="M1363 1787 c-7 -15 -13 -41 -13 -57 0 -44 26 -69 193 -182 55 -38 59
-48 55 -147 -3 -84 10 -72 -166 -155 -108 -51 -97 -55 -168 64 -26 45 -51 83
-56 86 -18 11 -6 46 30 86 l37 41 -51 -36 c-79 -57 -79 -56 -49 -129 15 -34
35 -81 45 -103 10 -22 22 -52 25 -67 6 -25 3 -29 -39 -49 -42 -21 -46 -27 -66
-90 -11 -37 -20 -77 -20 -89 0 -13 26 -55 57 -94 31 -39 58 -73 59 -75 2 -1
40 24 86 57 87 62 165 102 202 102 27 0 101 -46 136 -84 14 -15 33 -31 42 -36
15 -9 15 -6 6 28 -19 67 -14 200 11 264 12 31 28 62 36 68 23 19 19 26 -40 65
-30 21 -57 40 -60 44 -2 4 1 52 6 107 10 91 14 106 60 188 28 48 48 90 45 93
-31 31 -311 28 -299 -3 9 -25 -36 -16 -62 12 -17 18 -25 40 -27 72 -3 46 -3
46 -15 19z m297 -110 c0 -33 -23 -126 -31 -122 -4 3 -11 27 -14 53 -4 26 -9
55 -12 65 -3 13 2 17 26 17 19 0 31 -5 31 -13z m-326 -644 c4 -4 15 2 23 15
14 20 24 22 91 22 56 0 80 -4 94 -16 17 -16 19 -14 38 27 11 24 20 53 20 64 1
19 1 19 14 2 16 -20 29 -118 20 -151 -6 -27 -48 -43 -68 -27 -18 15 -217 16
-226 2 -4 -7 -23 -11 -46 -9 -35 3 -39 6 -42 34 -3 30 29 126 51 153 10 11 13
2 17 -47 3 -33 9 -64 14 -69z"></path>
<path class="node" id="node12" d="M105 1545 c-19 -18 -25 -35 -25 -66 0 -83 50 -144 168 -203 169 -84
496 -138 725 -120 l92 7 -55 12 c-145 32 -280 83 -443 167 -107 55 -291 173
-321 207 -29 32 -108 30 -141 -4z"></path>
<path class="node" id="node13" d="M1840 1507 c0 -69 -32 -124 -100 -170 l-24 -17 24 -17 c47 -34 92
-57 235 -123 37 -18 160 -58 239 -79 185 -50 276 -63 489 -68 213 -6 262 3
140 24 -346 59 -734 237 -943 431 -14 13 -33 28 -42 33 -15 8 -18 6 -18 -14z"></path>
<path class="node" id="node14" d="M60 1259 c-32 -13 -40 -26 -40 -68 0 -85 66 -184 151 -224 57 -26
214 -50 289 -43 205 20 356 50 495 98 106 37 101 46 -27 45 -316 -1 -641 70
-773 168 -39 30 -64 36 -95 24z"></path>
<path class="node" id="node15" d="M1784 1118 c-11 -24 -19 -65 -19 -96 l0 -55 110 -23 c242 -51 530
-56 707 -12 l93 23 -105 8 c-162 12 -474 74 -539 107 -9 5 -54 22 -101 40 -47
18 -89 36 -94 41 -19 18 -33 9 -52 -33z"></path>
<path class="node" id="node16" d="M920 944 c-47 -14 -107 -31 -134 -39 -26 -8 -59 -15 -72 -15 -13 0
-24 -4 -24 -10 0 -5 10 -10 22 -10 24 0 116 -28 218 -67 75 -29 170 -79 253
-135 31 -21 57 -36 57 -32 0 4 -33 52 -72 108 -40 55 -85 119 -100 141 -15 22
-36 50 -45 61 l-18 22 -85 -24z"></path>
<path class="node" id="node17" d="M140 867 c-33 -17 -51 -35 -69 -70 -27 -54 -24 -80 14 -125 30 -36
72 -47 235 -61 262 -24 355 -33 361 -37 3 -2 39 -8 80 -15 278 -42 597 -171
748 -303 26 -23 23 -15 -23 54 -47 71 -204 223 -285 275 -210 136 -455 220
-801 274 -218 34 -211 34 -260 8z"></path>
<path class="node" id="node18" d="M1441 842 c-30 -20 -75 -63 -99 -95 l-45 -57 16 -33 c68 -130 256
-380 307 -407 20 -11 20 -10 1 32 -11 24 -28 61 -37 83 -13 29 -18 66 -19 130
0 105 18 151 85 207 22 19 40 39 40 44 0 12 -87 95 -122 117 -40 25 -67 21
-127 -21z"></path>
<path class="node" id="node19" d="M1770 832 c0 -76 26 -151 56 -162 36 -14 186 -11 274 5 82 14 213 49
245 64 11 5 49 23 85 40 36 17 81 40 100 51 l35 21 -40 -6 c-22 -4 -56 -11
-75 -16 -98 -25 -508 -1 -615 37 -62 21 -65 19 -65 -34z"></path>
<path class="node" id="node20" d="M2445 714 c-129 -68 -282 -104 -470 -111 -82 -3 -155 -10 -162 -15
-9 -7 -1 -30 30 -91 81 -157 202 -246 361 -264 75 -9 112 -2 59 12 -81 20
-218 165 -211 224 4 28 11 32 103 61 102 31 230 97 283 146 51 46 54 62 7 38z"></path>
<path class="node" id="node21" d="M1672 657 c-34 -35 -62 -102 -62 -149 0 -39 25 -95 52 -119 33 -28
117 -65 177 -78 83 -18 90 -15 48 20 -93 76 -157 199 -157 299 0 71 -11 76
-58 27z"></path>
<path class="node" id="node22" d="M323 521 c-120 -31 -94 -141 54 -237 28 -19 74 -43 102 -54 l51 -20
14 33 c18 43 41 61 106 83 106 36 408 21 628 -33 35 -8 65 -13 68 -10 8 8
-178 94 -271 126 -215 72 -404 110 -580 116 -77 2 -155 1 -172 -4z"></path>
</g>
<g transform="translate(0.000000,300.000000) scale(0.100000,-0.100000)" fill="#A1A1A1" stroke="none">

<path class="node" id="node24" d="M377 2393 c-4 -3 -7 -42 -7 -85 0 -105 52 -260 81 -242 5 3 5 14 -1
25 -10 18 -27 179 -19 179 2 0 26 -7 53 -15 73 -22 75 -19 15 26 -58 43 -98
86 -99 107 0 13 -13 16 -23 5z"></path>
<path class="node" id="node25" d="M1603 1673 c3 -10 8 -39 12 -65 9 -67 20 -67 34 -1 16 80 15 83 -20
83 -24 0 -29 -4 -26 -17z"></path>
<path class="node" id="node26" d="M1303 1149 c-22 -27 -54 -123 -51 -153 3 -28 7 -31 42 -34 23 -2 42
2 46 9 9 14 208 13 226 -2 20 -16 62 0 68 27 9 33 -4 131 -20 151 -13 17 -13
17 -14 -2 0 -11 -9 -40 -20 -64 -19 -41 -21 -43 -38 -27 -14 12 -38 16 -94 16
-67 0 -77 -2 -91 -22 -21 -32 -31 -16 -37 54 -4 49 -7 58 -17 47z"></path>
</g>
</svg>