<!--?xml version="1.0" encoding="utf-8"?-->
<!-- Generator: Adobe Illustrator 15.0.0, SVG Export Plug-In . SVG Version: 6.00 Build 0)  -->

<svg xmlns="http://www.w3.org/2000/svg" xmlns:xlink="http://www.w3.org/1999/xlink" width="200px" height="200px" viewBox="0 0 200 200">
<g>
	<path fill="#FFA500" d="M155.633,98.683c0,0,21.227,12.7,24.771,26.887c3.548,14.188-10.302-19.23-19.19-19.96
		C152.321,104.881,154.505,100.462,155.633,98.683z" id="path-0"></path>
	<g>
		<g>
			<g>
				<path fill="#202020" d="M155.633,98.683c3.201,2.292,5.304,3.926,8.963,6.854c1.948,1.586,7.9,6.517,11.787,12.326
					c1.965,2.873,3.288,5.938,3.792,8.325c0.143,0.595,0.261,1.141,0.34,1.616c0.04,0.238,0.069,0.459,0.082,0.653
					c0.025,0.17-0.021,0.415,0,0.344c0.011-0.027,0.11-0.103,0.18-0.096c0.066-0.001,0.068,0.012,0.064,0.006
					c-0.014-0.007-0.059-0.036-0.097-0.073c-0.079-0.071-0.151-0.15-0.208-0.215l-0.172-0.208c-0.01,0.021-0.929-1.245-2.209-3.364
					c-1.296-2.102-3.016-4.983-4.953-7.923c-1.938-2.936-4.1-5.94-6.303-8.203c-1.1-1.128-2.217-2.067-3.294-2.68
					c-0.538-0.306-1.063-0.53-1.551-0.658c-0.491-0.141-0.932-0.151-1.231-0.184c-2.268-0.246-4.145-0.646-5.329-1.764
					c-0.577-0.559-0.841-1.357-0.754-2.2C154.816,100.396,155.159,99.542,155.633,98.683c-0.572,0.797-1.023,1.615-1.202,2.514
					c-0.194,0.888,0.022,1.899,0.666,2.611c0.63,0.719,1.504,1.165,2.451,1.489c0.958,0.323,2.015,0.518,3.208,0.641
					c0.332,0.036,0.697,0.043,1.106,0.163c0.416,0.109,0.884,0.309,1.377,0.588c0.988,0.562,2.061,1.458,3.129,2.556
					c2.144,2.199,4.29,5.177,6.216,8.093c1.927,2.921,3.643,5.795,4.942,7.902c1.279,2.115,2.235,3.437,2.26,3.433l0.194,0.235
					c0.067,0.077,0.151,0.171,0.275,0.283c0.063,0.056,0.135,0.118,0.261,0.184c0.065,0.028,0.146,0.072,0.297,0.067
					c0.152,0.002,0.334-0.119,0.392-0.224c0.197-0.385,0.12-0.557,0.128-0.808c-0.016-0.233-0.049-0.473-0.091-0.726
					c-0.084-0.505-0.205-1.062-0.35-1.669c-0.518-2.46-1.893-5.643-3.896-8.566c-3.967-5.927-9.969-10.886-11.938-12.484
					C161.365,102.022,159.086,100.577,155.633,98.683z" id="path-1"></path>
			</g>
		</g>
	</g>
</g>
<g>
	<path fill="#FFA500" d="M144.64,141.088c0,0-1.184,27.204,5.32,36.504c0.752,1.073-15.92,1.459-15.964,10.642
		c-0.016,3.547,14.188,3.268,20.396,2.372c6.205-0.896-0.295-22.816-1.181-27.671c-0.891-4.852,1.479-18.446,2.361-21.847
		C156.461,137.688,144.523,138.566,144.64,141.088z" id="path-2" style="position: relative;"></path>
	<g>
		<g>
			<g>
				<path fill="#202020" d="M144.64,141.088c-0.292,3.361-0.413,6.197-0.435,9.199c-0.007,3.002,0.083,6.176,0.493,10.209
					c0.262,2.173,0.652,6.578,2.213,11.769c0.41,1.29,0.899,2.628,1.578,3.943c0.168,0.329,0.348,0.657,0.547,0.979
					c0.096,0.162,0.196,0.322,0.305,0.479l0.159,0.238c-0.108-0.199,0.011,0.037-0.048-0.086c-0.027-0.071-0.035-0.161-0.019-0.236
					c0.022-0.085,0.02-0.078,0.038-0.119c0.042-0.072,0.057-0.083,0.067-0.096c0.023-0.019,0.021-0.017,0.018-0.016
					c-0.112,0.073-0.545,0.2-0.864,0.279l-1.073,0.253c-2.912,0.649-5.981,1.384-8.747,2.808c-1.373,0.713-2.679,1.613-3.68,2.807
					c-1.009,1.18-1.626,2.682-1.724,4.146c-0.008,0.366-0.096,0.684,0.09,1.236c0.173,0.448,0.482,0.771,0.786,1.003
					c0.62,0.467,1.264,0.699,1.879,0.898c1.237,0.377,2.404,0.545,3.475,0.673c4.284,0.436,7.035,0.233,7.035,0.269
					c0-0.021,2.755,0.022,7.01-0.472c0.499-0.078,1.16-0.082,1.81-0.484c0.623-0.372,1.054-0.984,1.328-1.604
					c0.548-1.262,0.675-2.632,0.715-4.021c0.046-2.789-0.357-5.735-0.875-8.714c-0.526-2.979-1.206-5.989-1.895-8.902
					c-0.34-1.454-0.696-2.891-0.985-4.271c-0.29-1.332-0.282-2.699-0.257-4.013c0.207-5.266,0.97-9.587,1.292-11.729
					c0.326-1.98,0.639-3.746,0.971-5.364l0.129-0.598c0.038-0.195,0.101-0.364,0.128-0.663c0.062-0.59-0.271-1.157-0.654-1.444
					c-0.775-0.583-1.586-0.72-2.354-0.839c-1.549-0.189-3.038-0.08-4.537,0.199c-0.749,0.146-1.502,0.343-2.241,0.649
					c-0.367,0.155-0.734,0.337-1.065,0.589C144.932,140.283,144.601,140.647,144.64,141.088c0.01-0.438,0.356-0.739,0.685-0.94
					c0.339-0.207,0.709-0.346,1.077-0.46c0.741-0.225,1.488-0.346,2.225-0.422c1.471-0.14,2.925-0.126,4.338,0.139
					c0.689,0.138,1.422,0.354,1.881,0.751c0.224,0.199,0.306,0.412,0.28,0.635c-0.006,0.104-0.075,0.322-0.126,0.525l-0.151,0.609
					c-0.387,1.641-0.729,3.411-1.062,5.409c-0.329,2.167-1.1,6.486-1.313,11.878c-0.026,1.344-0.04,2.788,0.278,4.265
					c0.298,1.424,0.652,2.848,0.993,4.304c0.687,2.905,1.361,5.896,1.882,8.84c0.513,2.939,0.905,5.846,0.86,8.496
					c-0.03,1.313-0.175,2.592-0.616,3.591c-0.219,0.495-0.523,0.896-0.894,1.113c-0.336,0.229-0.833,0.259-1.37,0.332
					c-4.167,0.485-6.9,0.445-6.895,0.466c0.008-0.033-2.731,0.161-6.887-0.264c-1.03-0.122-2.157-0.29-3.271-0.631
					c-0.549-0.173-1.111-0.396-1.529-0.717c-0.21-0.158-0.36-0.341-0.427-0.517c-0.062-0.077-0.048-0.454-0.023-0.759
					c0.088-1.251,0.595-2.49,1.469-3.52c0.867-1.036,2.053-1.867,3.341-2.533c2.6-1.341,5.574-2.064,8.481-2.71l1.102-0.26
					l0.563-0.156c0.198-0.068,0.372-0.105,0.656-0.284c0.035-0.024,0.071-0.047,0.125-0.101c0.045-0.044,0.093-0.086,0.152-0.202
					c0.027-0.063,0.044-0.073,0.064-0.182c0.017-0.098,0.011-0.211-0.017-0.306c-0.035-0.111-0.018-0.049-0.029-0.082l-0.007-0.016
					l-0.063-0.113l-0.145-0.218c-0.1-0.144-0.191-0.291-0.28-0.441c-0.184-0.296-0.352-0.602-0.509-0.91
					c-0.637-1.232-1.109-2.519-1.506-3.767c-1.517-5.033-1.916-9.407-2.177-11.551c-0.413-3.989-0.603-7.134-0.78-10.115
					C144.852,147.283,144.7,144.46,144.64,141.088z" id="path-3" style="position: relative;"></path>
			</g>
		</g>
	</g>
</g>
<g>
	<path fill="#FFA500" d="M92.8,135.268c0,0-0.114,0.451-0.325,1.229c-1.132,4.212-6.396,17.337-8.243,22.77
		c-1.252,3.668,1.773,16.538,4.284,19.648c2.511,3.109-14.736-5.758-16.293,6.953c-0.724,5.887,2.845,2.954,8.755,2.658
		c5.91-0.293,18.622-2.362,18.622-2.362s0.295-20.069-2.958-23.778c-3.25-3.711,2.364-20.856,7.095-24.107
		c4.729-3.249-11.051-2.56-11.051-2.56L92.8,135.268z" id="path-4" style="position: relative;"></path>
	<g>
		<g>
			<g>
				<path fill="#202020" d="M92.743,135.493c-0.542,1.821-1.197,3.435-1.82,5.007l-1.88,4.647c-1.262,3.126-2.587,6.426-4.17,10.688
					l-0.782,2.153c-0.15,0.442-0.314,0.851-0.475,1.412c-0.146,0.575-0.198,1.141-0.221,1.74c-0.063,2.38,0.34,5.119,0.982,8.081
					c0.328,1.479,0.726,3.013,1.221,4.57c0.509,1.555,1.06,3.144,1.947,4.684c0.117,0.192,0.235,0.384,0.374,0.572
					c0.14,0.186,0.291,0.378,0.294,0.408c0.011,0.01-0.008,0-0.007-0.081c-0.008-0.063,0.071-0.235,0.134-0.271
					c0.124-0.083,0.07-0.032,0.011-0.037c-0.134,0.011-0.337-0.004-0.531-0.026c-0.798-0.096-1.65-0.267-2.498-0.402
					c-1.701-0.278-3.447-0.492-5.202-0.421c-1.741,0.071-3.545,0.432-5.039,1.414c-1.507,0.965-2.498,2.525-2.962,4.065
					c-0.244,0.771-0.383,1.552-0.47,2.3c-0.077,0.759-0.132,1.507,0.03,2.308c0.087,0.395,0.253,0.832,0.602,1.177
					c0.349,0.347,0.811,0.502,1.194,0.553c0.78,0.096,1.42-0.026,2.027-0.119c2.382-0.471,4.236-0.806,5.582-0.841
					c1.38-0.077,2.149-0.161,2.149-0.157c0.009,0.031,7.159-0.691,16.454-2.205l0.462-0.075l0.003-0.465
					c0.029-3.837-0.061-8.029-0.377-12.27c-0.165-2.118-0.385-4.248-0.754-6.339c-0.19-1.046-0.414-2.082-0.738-3.098
					c-0.165-0.508-0.351-1.011-0.603-1.501c-0.126-0.246-0.272-0.487-0.442-0.723c-0.203-0.252-0.322-0.396-0.412-0.551
					c-0.412-0.718-0.542-1.668-0.584-2.566c-0.036-0.91,0.025-1.818,0.13-2.693c0.213-1.754,0.585-3.389,0.987-4.853
					c0.811-2.933,1.751-5.191,2.374-6.552c0.935-2.027,1.915-3.783,3.058-5.172c0.287-0.343,0.587-0.659,0.903-0.928
					c0.278-0.247,0.729-0.503,1.076-0.944c0.163-0.213,0.362-0.547,0.287-0.972c-0.092-0.419-0.374-0.636-0.588-0.777
					c-0.456-0.28-0.891-0.391-1.321-0.499c-1.718-0.367-3.365-0.402-5.065-0.427C96.385,135.302,94.637,135.361,92.743,135.493
					c1.898,0.045,3.64,0.142,5.321,0.283c1.672,0.155,3.318,0.314,4.882,0.743c0.38,0.112,0.77,0.253,1.036,0.441
					c0.137,0.092,0.197,0.196,0.187,0.213c0.003,0.012-0.02,0.104-0.125,0.228c-0.207,0.252-0.552,0.44-0.971,0.767
					c-0.384,0.306-0.73,0.651-1.056,1.02c-1.286,1.485-2.315,3.291-3.285,5.379c-0.644,1.401-1.608,3.71-2.44,6.718
					c-0.413,1.504-0.797,3.182-1.021,5.016c-0.109,0.917-0.175,1.875-0.137,2.872c0.057,0.991,0.16,2.052,0.735,3.082
					c0.16,0.276,0.37,0.513,0.479,0.652c0.124,0.173,0.24,0.362,0.345,0.567c0.211,0.409,0.382,0.865,0.534,1.333
					c0.301,0.94,0.519,1.939,0.702,2.952c0.359,2.032,0.578,4.134,0.74,6.229c0.313,4.191,0.405,8.375,0.376,12.169l0.465-0.54
					c-9.273,1.513-16.379,2.233-16.374,2.2c0-0.003-0.762,0.079-2.11,0.154c-1.395,0.033-3.413,0.398-5.709,0.853
					c-0.565,0.093-1.174,0.184-1.683,0.115c-0.511-0.077-0.735-0.293-0.872-0.871c-0.119-0.559-0.086-1.255-0.011-1.944
					c0.083-0.702,0.209-1.403,0.426-2.091c0.419-1.374,1.249-2.659,2.512-3.471c1.253-0.828,2.854-1.169,4.477-1.233
					c1.633-0.066,3.308,0.134,4.977,0.408c0.841,0.134,1.665,0.302,2.557,0.41c0.229,0.023,0.45,0.05,0.741,0.029
					c0.149-0.025,0.317-0.004,0.612-0.216c0.147-0.098,0.28-0.377,0.267-0.545c0.005-0.185-0.044-0.303-0.078-0.386
					c-0.171-0.359-0.318-0.478-0.422-0.635c-0.112-0.152-0.216-0.319-0.318-0.487c-0.798-1.38-1.353-2.945-1.843-4.452
					c-0.482-1.519-0.874-3.022-1.195-4.473c-0.63-2.895-1.019-5.601-0.958-7.802c0.018-0.543,0.074-1.067,0.182-1.489
					c0.12-0.428,0.308-0.922,0.448-1.332l0.775-2.142c1.57-4.253,2.803-7.593,3.893-10.787c0.545-1.597,1.06-3.155,1.563-4.774
					C91.859,139.037,92.372,137.356,92.743,135.493z" id="path-5" style="position: relative;"></path>
			</g>
		</g>
	</g>
</g>
<g>
	<path fill="#FFA500" stroke="#000000" stroke-miterlimit="10" d="M97.643,90.396c0,0,33.399,15.369,47.881,7.389
		c14.484-7.979,25.125,25.124,20.395,39.313c-4.728,14.187-7.979,23.646-7.979,23.646s7.299,15.963,9.116,19.213
		c1.82,3.252,1.336,9.459,0.791,10.64c-0.545,1.184-23.799,1.184-26.754,1.184c-2.957,0-0.297-13.008,13.301-11.232
		c5.272,0.687-4.729-11.822-7.685-15.369c-2.958-3.547,2.658-16.615,4.14-19.244c1.474-2.631-24.83,14.517-45.523,0
		c-1.763-1.239,2.039,35.024-2.953,42.592c-1.527,2.315-22.762,2.662-26.898,2.367c-4.138-0.297-1.418-13.706,16.316-11.935
		c5.656,0.564-2.423-36.658-3.904-43.691c-1.476-7.038-7.979-18.563-2.953-30.979C89.957,91.875,97.643,90.396,97.643,90.396z" id="path-6" style="position: relative;"></path>
</g>
<g>
	<path fill="#A52A2A" d="M49.353,17.69c0,0-25.977-8.102-32.403,10.84c0,0,5.024-4.047,9.158,0c0,0-14.776,9.55-15.366,19.894
		c0,0,2.268-3.059,12.708-3.84c0,0-12.831,11.233-12.783,23.349c0,0,18.337-6.978,11.897-5.911
		c-1.835,0.303-11.897,16.258-9.754,25.418c0,0,1.478-5.979,9.458-1.51c0,0-4.729,6.832,1.478,15.991
		c3.419,5.039,28.323,13.441,26.642,23.649c-1.035,6.295-5.325,7.347-4.4,7.096c51.358-14.073,50.176-46.997,59.928-42.269
		c0,0,2.396-4.682,0-10.676c-0.889-2.233,1.983-8.456,6.132-1.98c3,4.682,0.949-11.235-8.495-17.087
		c-1.614-0.998,3.152-4.843,7.516,0c2.031,2.254-3.381-12.82-10.175-14.887c0,0,4.138-4.463,7.388-1.776
		c3.252,2.689-5.319-13.3-20.098-18.916c-3.223-1.224,10.185-2.405,11.822-1.181C105.004,27.62,66.198-10.39,49.353,17.69z" id="path-7" style="position: relative;"></path>
	<g>
		<g>
			<g>
				<path fill="#202020" d="M49.353,17.69c-3.337-1.007-6.633-1.565-9.848-1.805c-3.215-0.223-6.376-0.087-9.414,0.596
					c-3.027,0.678-5.943,1.965-8.337,4.013c-2.405,2.034-4.171,4.813-5.236,7.89l-0.475,1.372l1.192-0.87
					c1.208-0.88,2.73-1.553,4.27-1.652c1.551-0.121,3.094,0.497,4.243,1.664l0.081-0.797c-2.414,1.608-4.748,3.459-7.042,5.612
					c-2.271,2.161-4.519,4.625-6.299,7.672c-0.961,1.698-2.1,4.011-2.3,7.008l-0.112,1.667l1.109-1.306
					c0.192-0.227,0.602-0.548,0.979-0.784c0.395-0.25,0.826-0.478,1.281-0.686c0.912-0.417,1.918-0.757,2.985-1.042
					c2.138-0.568,4.519-0.914,7.059-1.105l-0.407-0.971c-2.969,2.731-5.844,6.013-8.352,9.928c-1.239,1.96-2.365,4.089-3.217,6.405
					c-0.847,2.311-1.409,4.827-1.404,7.435l0.001,0.808l0.752-0.29c3.229-1.244,6.523-2.538,9.844-3.999
					c0.83-0.371,1.658-0.747,2.488-1.189c0.208-0.111,0.416-0.229,0.629-0.368c0.108-0.07,0.217-0.146,0.341-0.253
					c0.061-0.056,0.133-0.119,0.223-0.26c0.048-0.106,0.119-0.183,0.089-0.459c-0.009-0.204-0.257-0.435-0.316-0.445
					c-0.047-0.027-0.104-0.053-0.147-0.068l-0.088-0.022c-0.064-0.016-0.117-0.023-0.154-0.025c-0.091-0.01-0.165-0.01-0.234-0.009
					c-0.142,0.002-0.269,0.012-0.392,0.025c-0.271,0.031-0.431,0.046-0.768,0.115c-0.435,0.142-0.583,0.326-0.797,0.495
					c-0.194,0.173-0.363,0.35-0.526,0.53c-0.325,0.36-0.622,0.73-0.906,1.107c-0.569,0.754-1.091,1.535-1.593,2.329
					c-1.986,3.187-3.665,6.6-4.931,10.202c-0.625,1.803-1.137,3.659-1.432,5.57c-0.288,1.906-0.37,3.891,0.075,5.838l0.471,2.062
					l0.61-2.055c0.219-0.736,0.718-1.51,1.354-1.99c0.64-0.501,1.451-0.741,2.294-0.754c1.708-0.016,3.431,0.72,5,1.586
					l-0.186-0.801c-1.435,2.358-1.93,5.014-1.798,7.622c0.147,2.608,1,5.101,2.224,7.293c0.305,0.55,0.634,1.083,0.982,1.6
					c0.031,0.051,0.101,0.15,0.144,0.207l0.141,0.188c0.114,0.137,0.23,0.275,0.342,0.389c0.225,0.24,0.462,0.453,0.701,0.662
					c0.963,0.817,1.979,1.487,2.995,2.132c2.035,1.277,4.079,2.419,6.063,3.563c3.963,2.278,7.744,4.507,10.908,7.081
					c1.57,1.287,2.994,2.668,4.02,4.206c1.031,1.524,1.59,3.258,1.316,4.869c-0.266,1.688-0.837,3.249-1.704,4.494
					c-0.431,0.622-0.932,1.168-1.483,1.606c-0.275,0.22-0.562,0.415-0.853,0.572l-0.111,0.059l-0.067,0.035l-0.023,0.012
					c0.167-0.25-0.576,0.503-0.2,0.814c0.074,0.188,0.518,0.279,0.596,0.216l0.024-0.006l0.277-0.076l0.521-0.146
					c2.77-0.774,5.143-1.539,7.076-2.208c3.864-1.346,5.975-2.274,5.978-2.266c-0.003-0.006,1.617-0.638,4.46-1.976
					c2.834-1.346,6.901-3.418,11.545-6.591c4.633-3.166,9.817-7.511,14.564-13.233c2.386-2.845,4.631-6.038,6.85-9.375
					c1.123-1.653,2.228-3.375,3.541-4.885c0.658-0.739,1.393-1.43,2.226-1.771c0.826-0.354,1.739-0.235,2.609,0.195l0.515,0.255
					l0.222-0.501c1.304-2.951,1.43-6.25,0.612-9.36c-0.104-0.387-0.225-0.77-0.356-1.149l-0.211-0.564
					c-0.069-0.178-0.091-0.264-0.118-0.438c-0.086-0.626,0.046-1.357,0.302-1.999c0.255-0.641,0.67-1.238,1.186-1.525
					c0.507-0.292,1.1-0.217,1.675,0.139c0.571,0.351,1.083,0.9,1.532,1.494c0.232,0.304,0.423,0.602,0.654,0.949
					c0.121,0.175,0.261,0.369,0.44,0.546c0.09,0.09,0.199,0.186,0.353,0.276c0.152,0.084,0.452,0.198,0.78,0.053
					c0.308-0.151,0.408-0.379,0.467-0.515c0.064-0.155,0.089-0.283,0.112-0.409c0.04-0.247,0.046-0.468,0.046-0.688
					c-0.007-0.434-0.05-0.849-0.109-1.257c-0.122-0.816-0.308-1.609-0.526-2.39c-0.897-3.112-2.302-6.073-4.212-8.696
					c-0.957-1.308-2.055-2.521-3.305-3.567c-0.602-0.513-1.333-1.027-1.932-1.405c-0.009-0.018-0.013-0.003-0.012-0.039
					c-0.001-0.042,0.037-0.15,0.113-0.255c0.152-0.218,0.414-0.43,0.701-0.588c1.187-0.657,2.729-0.552,3.969,0.104
					c0.629,0.325,1.206,0.766,1.721,1.278l0.392,0.411c0.055,0.052,0.153,0.177,0.355,0.292c0.067,0.033,0.146,0.067,0.254,0.084
					c0.155,0.016,0.313-0.002,0.475-0.122c0.151-0.115,0.179-0.205,0.229-0.303c0.021-0.06,0.042-0.14,0.048-0.188
					c0.034-0.363-0.021-0.544-0.058-0.765c-0.044-0.208-0.095-0.407-0.15-0.601c-0.961-3.03-2.39-5.743-4.066-8.274
					c-0.851-1.255-1.791-2.444-2.877-3.499c-1.086-1.042-2.338-1.978-3.838-2.445l0.246,0.911c0.815-0.83,1.813-1.578,2.846-2.037
					c1.035-0.466,2.16-0.589,3.078-0.139c0.23,0.106,0.446,0.248,0.65,0.409c0.123,0.096,0.225,0.187,0.433,0.311
					c0.102,0.051,0.188,0.115,0.415,0.15c0.085,0.019,0.3,0.01,0.468-0.096c0.202-0.137,0.263-0.287,0.305-0.422
					c0.067-0.405-0.018-0.543-0.056-0.731c-0.051-0.171-0.108-0.326-0.17-0.475c-0.124-0.296-0.26-0.573-0.402-0.842
					c-0.573-1.071-1.225-2.045-1.898-2.98c-2.719-3.716-5.8-6.75-8.877-9.161c-3.083-2.411-6.193-4.16-9.042-5.313l-0.532-0.209
					c-0.193-0.074-0.327-0.131-0.362-0.162c-0.044-0.019,0.083,0.008,0.083,0.277c-0.047,0.23-0.111,0.2-0.074,0.19
					c0.056-0.04,0.202-0.105,0.34-0.152c0.586-0.196,1.244-0.311,1.851-0.408c1.229-0.188,2.36-0.284,3.354-0.347
					c1.705-0.096,3.4-0.14,4.955,0.054c0.371,0.05,0.78,0.138,0.983,0.249l0.21,0.148l0.159,0.104
					c0.039,0.021,0.053,0.033,0.112,0.061l0.091,0.039c0.037,0.012,0.075,0.021,0.114,0.028c0.026-0.006,0.049,0.041,0.303-0.033
					c0.209-0.094,0.294-0.219,0.339-0.391c0.037-0.221-0.012-0.301-0.008-0.298c-0.019-0.065-0.057-0.141-0.064-0.149
					c-0.031-0.054-0.058-0.093-0.077-0.118l-0.121-0.15l-0.222-0.245c-0.584-0.605-1.177-1.135-1.773-1.661
					c-2.389-2.077-4.799-3.873-7.194-5.494c-4.797-3.221-9.562-5.733-14.498-7.395c-4.906-1.62-10.15-2.439-15.269-1.134
					c-2.537,0.653-4.969,1.871-7.066,3.61C52.574,12.965,50.807,15.183,49.353,17.69c1.529-2.462,3.355-4.614,5.485-6.261
					c2.12-1.657,4.532-2.779,7.022-3.351c5.02-1.14,10.106-0.229,14.894,1.446c4.814,1.718,9.476,4.255,14.185,7.475
					c2.349,1.619,4.723,3.413,7.057,5.46c0.578,0.512,1.166,1.045,1.694,1.598l0.183,0.202l0.068,0.085l0.012,0.015l-0.003-0.003
					l0.137-0.081c0.195-0.128,0.359-0.148,0.334-0.153c0.009-0.011,0.005-0.133,0.046-0.181c0.033-0.085,0.085-0.228,0.129-0.304
					c0.012,0.008-0.015-0.009-0.021-0.012l-0.095-0.063c-0.075-0.048-0.126-0.098-0.29-0.199c-0.521-0.268-0.937-0.313-1.375-0.387
					c-1.718-0.216-3.417-0.166-5.175-0.07c-1.02,0.064-2.173,0.161-3.457,0.356c-0.645,0.105-1.309,0.212-2.046,0.456
					c-0.189,0.07-0.375,0.133-0.614,0.294c-0.104,0.092-0.315,0.193-0.389,0.605c-0.017,0.456,0.257,0.634,0.355,0.717
					c0.259,0.186,0.479,0.246,0.628,0.31l0.513,0.202c2.752,1.114,5.771,2.81,8.775,5.161c2.998,2.347,6.018,5.325,8.661,8.938
					c0.652,0.905,1.284,1.854,1.815,2.848c0.133,0.248,0.255,0.5,0.358,0.747c0.051,0.124,0.096,0.246,0.129,0.358
					c0.016,0.054,0.029,0.108,0.034,0.146c0.007,0.026,0.002,0.026,0.005,0.037c0.011,0.015,0.209-0.012,0.301,0.037
					c0.198,0.051,0.085,0.122,0.113-0.12c0.009-0.039,0.091-0.332,0.071-0.255c0.003,0.005-0.025-0.015-0.037-0.02
					c-0.049-0.024-0.179-0.125-0.29-0.214c-0.265-0.209-0.554-0.399-0.869-0.545c-1.284-0.63-2.813-0.419-4.001,0.127
					c-1.223,0.553-2.259,1.333-3.213,2.298l-0.632,0.64l0.878,0.271c1.241,0.383,2.381,1.21,3.389,2.181
					c1.01,0.98,1.91,2.115,2.728,3.322c1.61,2.419,3.026,5.132,3.919,7.957c0.05,0.174,0.094,0.349,0.129,0.516
					c0.018,0.083,0.031,0.164,0.04,0.238c0.032,0.068-0.046,0.141,0.063,0.149c0.114,0.018,0.18,0.02,0.267,0.062
					c0.054,0.005,0.113,0.063,0.114,0.063c0.012,0.058-0.019-0.1,0.083-0.235c0.152-0.273,0.106-0.152,0.102-0.189
					c0.002,0.009-0.058-0.057-0.083-0.082l-0.406-0.426c-0.579-0.576-1.244-1.089-1.996-1.478c-1.487-0.783-3.424-0.964-5.018-0.085
					c-0.394,0.223-0.771,0.5-1.073,0.925c-0.146,0.215-0.286,0.474-0.311,0.827c-0.032,0.358,0.148,0.771,0.454,0.992
					c0.726,0.467,1.284,0.861,1.886,1.368c1.17,0.979,2.21,2.126,3.122,3.372c1.82,2.497,3.182,5.363,4.038,8.341
					c0.209,0.745,0.385,1.499,0.496,2.249c0.055,0.375,0.093,0.749,0.099,1.106c0,0.176-0.007,0.351-0.031,0.495
					c-0.012,0.068-0.028,0.136-0.041,0.162c-0.004,0.028-0.039-0.015,0.101,0.086c0.079,0.05,0.125,0.123,0.13,0.131
					c0.009,0.021-0.006,0,0.006-0.081c-0.004-0.008,0.091-0.272,0.08-0.218c-0.016-0.012-0.061-0.042-0.108-0.092
					c-0.102-0.101-0.197-0.227-0.3-0.376c-0.206-0.31-0.442-0.677-0.69-1c-0.502-0.656-1.071-1.295-1.843-1.774
					c-0.383-0.236-0.837-0.422-1.337-0.47c-0.499-0.052-1.027,0.068-1.454,0.31c-0.86,0.498-1.351,1.292-1.677,2.082
					c-0.313,0.806-0.487,1.656-0.369,2.574c0.024,0.212,0.108,0.502,0.184,0.685l0.196,0.525c0.123,0.353,0.234,0.708,0.331,1.068
					c0.772,2.849,0.605,6.005-0.527,8.566l0.736-0.247c-0.521-0.25-1.095-0.446-1.708-0.501c-0.611-0.058-1.247,0.046-1.802,0.276
					c-1.119,0.47-1.928,1.274-2.64,2.065c-1.404,1.618-2.503,3.344-3.631,5.002c-2.217,3.336-4.428,6.479-6.78,9.284
					c-4.675,5.637-9.771,9.909-14.339,13.031c-4.576,3.127-8.591,5.174-11.392,6.505c-2.809,1.321-4.412,1.947-4.409,1.953
					c-0.003-0.009-2.09,0.909-5.917,2.242c-1.915,0.662-4.267,1.42-7.012,2.187l-0.521,0.146l-0.251,0.069l-0.01,0.002
					c0.199,0.421,0.219,0.414,0.122,0.534c0.207-0.12,0.074,0.26,0.271,0.482l0.007-0.004l0.056-0.028l0.134-0.071
					c0.359-0.194,0.695-0.424,1.016-0.681c0.643-0.511,1.214-1.136,1.702-1.84c0.981-1.411,1.6-3.129,1.889-4.956
					c0.332-1.946-0.361-3.998-1.488-5.65c-1.125-1.684-2.62-3.12-4.241-4.452c-3.264-2.653-7.084-4.898-11.057-7.185
					c-1.986-1.145-4.027-2.286-6.023-3.539c-0.992-0.629-1.983-1.286-2.863-2.035c-0.215-0.189-0.43-0.381-0.618-0.584
					c-0.102-0.103-0.179-0.198-0.261-0.293c-0.041-0.047-0.089-0.118-0.133-0.177c-0.049-0.064-0.066-0.09-0.117-0.168
					c-0.331-0.493-0.644-1-0.933-1.521c-1.16-2.079-1.95-4.408-2.085-6.817c-0.141-2.378,0.381-4.923,1.603-6.927l0.32-0.525
					l-0.506-0.276c-1.661-0.906-3.491-1.734-5.564-1.728c-1.023,0.012-2.106,0.32-2.952,0.985c-0.85,0.671-1.436,1.542-1.754,2.604
					l1.081,0.007c-0.399-1.74-0.335-3.602-0.058-5.417c0.281-1.822,0.775-3.619,1.383-5.373c1.231-3.505,2.884-6.866,4.822-9.974
					c0.489-0.774,0.997-1.533,1.539-2.251c0.271-0.358,0.551-0.708,0.843-1.03c0.145-0.16,0.294-0.315,0.443-0.448
					c0.074-0.066,0.148-0.127,0.216-0.175c0.036-0.029,0.062-0.038,0.092-0.06c0.002,0-0.005,0.004-0.009,0.002
					c-0.025-0.023,0.034,0.045,0.029-0.083l0.004-0.066l0.002-0.033c0,0.077,0.005-0.22-0.001,0.165l0.041-0.006l0.081-0.013
					l0.163-0.025l0.317-0.039c0.104-0.011,0.205-0.018,0.292-0.019c0.045-0.001,0.085,0,0.108,0.003
					c0.022-0.006,0.021,0.016,0.018-0.013c0.015-0.07,0.036-0.139,0.063-0.207c0.012-0.051,0.019-0.086,0.043-0.127
					c0.108-0.164,0.093-0.028-0.101-0.158c-0.031-0.026-0.111-0.066-0.158-0.107l-0.076-0.066l0.004-0.004l-0.025,0.023
					c-0.048,0.042-0.125,0.099-0.209,0.152c-0.167,0.109-0.356,0.217-0.548,0.32c-0.775,0.413-1.596,0.788-2.412,1.152
					c-3.28,1.443-6.578,2.739-9.788,3.975l0.754,0.518c0.009-4.922,2.064-9.45,4.448-13.241c2.43-3.803,5.287-7.06,8.144-9.688
					l1.188-1.092l-1.595,0.121c-2.59,0.196-5.032,0.549-7.262,1.141c-1.114,0.298-2.175,0.655-3.161,1.105
					c-0.493,0.226-0.966,0.475-1.414,0.759c-0.457,0.305-0.849,0.56-1.275,1.059l0.998,0.361c0.177-2.716,1.233-4.902,2.152-6.52
					c1.693-2.906,3.873-5.317,6.086-7.439c2.228-2.111,4.538-3.965,6.854-5.536l0.519-0.352l-0.439-0.445
					c-1.308-1.326-3.222-2.078-5.026-1.904c-1.808,0.153-3.399,0.885-4.777,1.915l0.718,0.501c0.982-2.967,2.612-5.628,4.867-7.616
					c2.244-1.999,5.024-3.311,7.97-4.048c2.954-0.742,6.073-0.964,9.27-0.833C42.687,16.328,45.988,16.785,49.353,17.69z" id="path-8" style="position: relative;"></path>
			</g>
		</g>
	</g>
</g>
<g>
	<path fill="#FFA500" d="M35.569,63.45c0,0-7.981-22.464,8.867-29.857c16.849-7.389,26.306-2.658,32.221,6.504
		c5.91,9.165,2.067,20.177,2.067,20.177s8.571-1.159,12.119,4.652c3.547,5.812-2.082,33.625-30.503,40.79
		c-7.037,1.773-11.269-9.485-13.761-10.048C30.208,91.961,26.614,78.361,26.7,76.159C27.085,66.681,32.175,63.043,35.569,63.45z" id="path-9" style="position: relative;"></path>
	<g>
		<g>
			<g>
				<path fill="#202020" d="M35.569,63.45c-0.743-2.549-1.145-4.962-1.376-7.303c-0.221-2.342-0.244-4.626,0.01-6.937
					c0.26-2.304,0.792-4.654,1.887-6.965c1.088-2.302,2.792-4.553,5.318-6.322c0.869-0.608,2.063-1.333,3.631-1.986
					c1.572-0.677,3.433-1.401,5.549-2.033c2.115-0.623,4.494-1.161,7.058-1.334c2.556-0.171,5.311,0.035,7.96,0.945
					c5.34,1.75,9.803,6.567,12.171,11.92c2.26,5.48,1.921,11.714,0.422,16.657l-0.248,0.815l0.845-0.083
					c2.92-0.287,5.823,0.141,8.02,1.22c1.104,0.539,2.027,1.25,2.727,2.05c0.346,0.395,0.66,0.827,0.887,1.232
					c0.23,0.417,0.364,0.827,0.479,1.271c0.414,1.753,0.333,3.281,0.286,4.293c-0.066,1.023-0.153,1.579-0.149,1.579
					c-0.036-0.037-0.303,4.309-3.083,10.319c-1.386,2.982-3.411,6.335-6.196,9.513c-2.772,3.182-6.324,6.149-10.397,8.448
					c-2.031,1.156-4.19,2.143-6.407,2.959c-1.108,0.41-2.235,0.766-3.366,1.094c-0.564,0.15-1.144,0.319-1.694,0.441
					c-0.505,0.097-1.062,0.135-1.586,0.077c-2.155-0.218-3.98-1.733-5.45-3.328c-1.499-1.624-2.698-3.436-4.038-5.111
					c-0.343-0.418-0.693-0.83-1.136-1.208c-0.225-0.187-0.478-0.372-0.825-0.498c-0.345-0.099-0.518-0.128-0.783-0.195
					c-0.948-0.234-1.865-0.506-2.736-0.809c-1.744-0.604-3.309-1.335-4.667-2.117c-2.725-1.562-4.591-3.31-5.735-4.534
					c-2.119-2.273-3.584-4.678-4.598-7.034c-0.499-1.18-0.898-2.362-1.113-3.515c-0.049-0.281-0.09-0.582-0.085-0.81l0.038-0.903
					c0.039-0.581,0.088-1.162,0.166-1.736c0.311-2.286,0.938-4.501,2.199-6.457c0.636-0.966,1.432-1.865,2.439-2.552
					C32.994,63.835,34.235,63.346,35.569,63.45c-1.326-0.194-2.634,0.217-3.707,0.853c-1.085,0.644-1.971,1.528-2.69,2.497
					c-1.43,1.961-2.201,4.244-2.616,6.601c-0.104,0.591-0.178,1.191-0.239,1.806l-0.068,0.904c-0.018,0.379,0.024,0.687,0.068,1.012
					c0.2,1.272,0.589,2.507,1.088,3.757c1.014,2.485,2.522,5.013,4.736,7.395c1.193,1.282,3.147,3.112,5.989,4.743
					c1.416,0.815,3.046,1.576,4.855,2.204c0.905,0.314,1.852,0.596,2.843,0.84l0.681,0.166c0.129,0.046,0.303,0.156,0.47,0.298
					c0.338,0.287,0.668,0.666,0.989,1.059c1.282,1.6,2.514,3.462,4.082,5.162c0.783,0.85,1.65,1.67,2.666,2.352
					c1.01,0.676,2.202,1.205,3.492,1.331c0.647,0.066,1.282,0.029,1.94-0.099c0.606-0.136,1.167-0.301,1.754-0.457
					c1.156-0.336,2.31-0.699,3.446-1.12c2.271-0.836,4.486-1.849,6.571-3.036c4.183-2.361,7.835-5.413,10.684-8.684
					c2.862-3.268,4.941-6.712,6.365-9.777c2.856-6.171,3.138-10.68,3.175-10.648c-0.003,0,0.087-0.577,0.157-1.649
					c0.045-1.071,0.146-2.65-0.317-4.633c-0.121-0.481-0.305-1.034-0.584-1.535c-0.288-0.509-0.623-0.966-1.023-1.427
					c-0.797-0.911-1.847-1.717-3.069-2.313c-2.464-1.192-5.47-1.633-8.657-1.325l0.598,0.732c0.833-2.656,1.252-5.506,1.259-8.493
					c-0.005-2.974-0.503-6.072-1.702-8.955c-0.591-1.442-1.372-2.813-2.261-4.082c-0.882-1.271-1.858-2.484-2.946-3.585
					c-2.161-2.21-4.81-3.936-7.632-4.882c-2.819-0.968-5.729-1.18-8.394-1.001c-2.675,0.182-5.128,0.739-7.3,1.379
					c-2.172,0.649-4.071,1.39-5.671,2.08c-1.624,0.676-2.912,1.455-3.83,2.101c-2.692,1.888-4.507,4.335-5.61,6.794
					c-1.114,2.47-1.59,4.941-1.765,7.322c-0.167,2.389-0.025,4.715,0.333,7.069C34.098,58.556,34.658,60.955,35.569,63.45z" id="path-10" style="position: relative;"></path>
			</g>
		</g>
	</g>
</g>
<g>
	<g>
		<path fill="#FFFFFF" d="M49.288,59.976c0,0-6.893,9.839-10.916,2.451c-4.021-7.39-2.031-24.532,12.532-17.143
			c0,0,6.503-6.502,12.089,0.311C68.301,52.068,64.913,75.928,49.288,59.976z" id="path-11" style="position: relative;"></path>
		<g>
			<g>
				<g>
					<path fill="#202020" d="M49.288,59.976c-1.435,1.627-2.812,2.853-4.401,3.811c-0.795,0.459-1.679,0.843-2.613,0.873
						c-0.931,0.041-1.863-0.394-2.618-1.31c-0.698-0.789-1.697-2.674-2.188-5.233c-0.498-2.534-0.58-5.764,0.396-8.745
						c0.491-1.474,1.282-2.868,2.402-3.834c1.109-0.978,2.526-1.453,3.885-1.498c1.364-0.053,2.655,0.228,3.753,0.587
						c1.104,0.354,2.027,0.791,2.75,1.151l0.346,0.172l0.296-0.274c0.884-0.821,1.562-1.199,1.546-1.201
						c0.001,0.003,0.348-0.24,1.009-0.575c0.659-0.324,1.657-0.75,2.914-0.846c1.248-0.105,2.746,0.233,4.062,1.216
						c0.66,0.479,1.276,1.098,1.831,1.792c0.516,0.666,0.922,1.496,1.229,2.365c1.2,3.529,1.107,7.685,0.208,10.854
						c-0.454,1.59-1.149,2.939-1.953,3.839c-0.796,0.916-1.671,1.338-2.265,1.512c-1.11,0.329-2.203,0.201-3.17-0.069
						c-0.973-0.277-1.844-0.691-2.665-1.148C52.401,62.485,50.937,61.395,49.288,59.976c1.398,1.666,2.702,2.987,4.321,4.126
						c0.813,0.561,1.713,1.077,2.795,1.44c1.07,0.352,2.385,0.557,3.787,0.148c0.746-0.21,1.85-0.759,2.781-1.835
						c0.943-1.059,1.7-2.559,2.189-4.266c0.956-3.416,1.064-7.697-0.228-11.533c-0.34-0.954-0.777-1.871-1.407-2.685
						c-0.611-0.763-1.29-1.448-2.047-1.999c-1.501-1.131-3.331-1.557-4.795-1.424c-1.478,0.116-2.594,0.603-3.327,0.961
						c-0.734,0.372-1.111,0.639-1.113,0.635c0.002,0.016-0.692,0.384-1.73,1.348l0.641-0.102c-0.756-0.377-1.725-0.837-2.908-1.218
						c-1.177-0.384-2.585-0.701-4.144-0.642c-1.548,0.046-3.26,0.612-4.564,1.767c-1.317,1.14-2.192,2.717-2.729,4.321
						c-1.057,3.246-0.957,6.621-0.433,9.314c0.525,2.712,1.583,4.76,2.436,5.731c0.455,0.543,1.008,0.992,1.623,1.279
						c0.616,0.288,1.285,0.384,1.892,0.339c1.227-0.104,2.188-0.641,3.002-1.215C46.94,63.268,48.129,61.817,49.288,59.976z" id="path-12" style="position: relative;"></path>
				</g>
			</g>
		</g>
	</g>
	<circle fill="#231F20" cx="45.99" cy="57.292" r="3.363" id="circle-0" style="position: relative;"></circle>
	<circle fill="#231F20" cx="52.715" cy="57.292" r="3.362" id="circle-1" style="position: relative;"></circle>
</g>
<path stroke="#000000" stroke-miterlimit="10" d="M33.663,70.707c6.506-5.843,25.707-8.481,30.039,1.365
	c0.909,2.069-7.626,5.321-10.987,9.389C48.019,87.144,27.158,76.548,33.663,70.707z" id="path-13" style="position: relative;"></path>
<g>
	<path fill="#A52A2A" d="M175.237,120.81c0,0-4.292,2.312,0.732,8.264c5.024,5.956,8.276,8.451,7.686,10.896
		c-0.59,2.45,3.844-11.547,1.182-15.34C182.179,120.841,174.926,114.216,175.237,120.81z" id="path-14" style="position: relative;"></path>
	<g>
		<g>
			<g>
				<path fill="#202020" d="M175.237,120.81c-1.135,0.567-1.836,1.629-1.969,2.819c-0.134,1.2,0.248,2.472,1.047,3.799
					c0.813,1.535,4.247,5.075,7.163,8.461c0.704,0.853,1.371,1.723,1.698,2.594c0.16,0.434,0.215,0.857,0.149,1.242l-0.065,0.313
					l-0.02,0.101l-0.009,0.086l-0.001,0.026c0.001,0.05,0.014,0.117,0.049,0.18c0.091,0.135,0.172,0.185,0.31,0.191
					c0.159,0.029,0.349-0.166,0.338-0.185l0.013-0.023c0.057-0.114,0.061-0.144,0.084-0.206l0.192-0.608
					c0.446-1.54,0.661-2.544,0.666-2.543c-0.003-0.001,0.248-0.999,0.545-2.568c0.285-1.569,0.644-3.713,0.637-6.013
					c-0.021-1.145-0.101-2.35-0.595-3.474c-0.265-0.582-0.642-1.002-0.966-1.437c-0.338-0.428-0.681-0.83-1.018-1.206
					c-1.347-1.508-2.616-2.587-3.284-3.09c-0.612-0.468-1.199-0.844-1.793-1.123c-0.592-0.27-1.203-0.479-1.861-0.396
					c-0.323,0.04-0.652,0.194-0.872,0.437c-0.228,0.237-0.344,0.533-0.418,0.82C175.119,119.589,175.156,120.184,175.237,120.81
					c0.034-0.629,0.11-1.214,0.316-1.706c0.201-0.5,0.578-0.821,1.046-0.816c0.961,0.022,1.996,0.698,3.155,1.566
					c0.634,0.481,1.867,1.53,3.179,3c0.328,0.366,0.661,0.758,0.988,1.172c0.316,0.419,0.678,0.841,0.873,1.284
					c0.417,0.935,0.514,2.082,0.528,3.173c0.009,2.207-0.34,4.326-0.621,5.87c-0.291,1.547-0.539,2.534-0.536,2.534
					c-0.004-0.002-0.22,0.996-0.657,2.503l-0.181,0.574l-0.024,0.066l-0.011,0.027l-0.005,0.012
					c0.018,0.006-0.047-0.035,0.095,0.039l0.142,0.084c0.038,0.019,0.074,0.003,0.082,0.039c-0.009,0.051,0.008-0.023,0.042-0.01
					c0.025,0.008,0.053,0.031,0.123,0.022l0.173,0.01c0.053,0.005,0.014,0.004,0.025,0.006c-0.001,0.006,0,0.002,0.001-0.004
					l0.013-0.063l0.072-0.351c0.09-0.524,0.009-1.097-0.185-1.615c-0.396-1.04-1.104-1.934-1.822-2.813
					c-2.953-3.424-6.374-6.969-7.104-8.369c-0.753-1.246-1.136-2.336-1.138-3.383C173.813,122.632,174.23,121.587,175.237,120.81z" id="path-15" style="position: relative;"></path>
			</g>
		</g>
	</g>
</g>
<g>
	<path fill="#A52A2A" stroke="#000000" stroke-miterlimit="10" d="M37.869,37.157c0,0,9.134-8.151,10.982-6.081
		c1.844,2.069,0,6.081,0,6.081s-9.916,0.732-10.982,3.236C36.803,42.899,37.162,39.098,37.869,37.157z" id="path-16" style="position: relative;"></path>
	<path fill="#A52A2A" stroke="#000000" stroke-miterlimit="10" d="M64.013,36.326c0,0-9.133-8.147-10.979-6.078
		c-1.849,2.069,0,6.078,0,6.078s9.913,0.736,10.979,3.242C65.076,42.072,64.722,38.271,64.013,36.326z" id="path-17" style="position: relative;"></path>
</g>
<path fill="none" stroke="#000000" stroke-miterlimit="10" d="M45.627,95c0,0,5.139,1.413,6.043-4.327
	c0,0,26.868,9.327,26.868-19.679" id="path-18" style="position: relative;"></path>
<path fill="none" stroke="#000000" stroke-miterlimit="10" d="M49.333,83.074c0,0-1.24,5.926,3,8.092" id="path-19" style="position: relative;"></path>
</svg>
