<!--?xml version="1.0" standalone="no"?-->

<svg version="1.0" xmlns="http://www.w3.org/2000/svg" width="224.000000pt" height="300.000000pt" viewBox="0 0 224.000000 300.000000" preserveAspectRatio="xMidYMid meet">
<g transform="translate(0.000000,300.000000) scale(0.100000,-0.100000)" fill="#201F1E" stroke="none">
<path class="node" id="node1" d="M520 2983 c-71 -12 -154 -48 -191 -82 -33 -32 -39 -44 -39 -79 0 -37
3 -42 23 -42 28 0 64 34 48 45 -6 3 -20 3 -31 0 -30 -10 -25 18 10 58 56 65
194 100 290 74 51 -14 64 -42 33 -72 -16 -17 -18 -16 -26 9 -11 32 -35 34 -91
6 -46 -22 -86 -74 -86 -111 0 -14 11 -36 26 -50 23 -22 33 -24 108 -22 45 1
117 6 160 12 109 15 208 14 231 -3 18 -13 17 -15 -15 -35 -136 -83 -347 -102
-580 -52 -139 29 -229 73 -265 128 -16 25 -16 26 15 54 30 28 31 31 17 52 -17
26 -67 34 -109 16 -33 -13 -54 -44 -37 -54 6 -4 11 -5 13 -4 1 2 10 16 19 32
20 30 38 34 57 12 11 -13 9 -20 -13 -43 -15 -16 -27 -33 -27 -38 0 -16 70 -69
141 -108 146 -79 311 -111 524 -102 77 4 161 9 188 12 58 7 60 -3 10 -52 -47
-46 -109 -74 -176 -81 -56 -6 -95 7 -156 52 -79 58 -221 9 -221 -75 0 -41 22
-64 53 -56 35 8 35 34 0 38 -37 4 -40 29 -9 64 21 25 32 29 74 29 74 0 106
-27 110 -91 6 -80 -16 -157 -76 -277 l-57 -112 0 -95 c1 -81 4 -103 26 -150
74 -158 252 -292 424 -320 180 -29 215 -40 257 -83 22 -23 51 -61 65 -85 36
-61 28 -114 -44 -292 l-58 -145 0 -140 0 -140 36 -75 c64 -132 128 -173 268
-171 49 0 90 -4 98 -10 20 -17 16 -82 -8 -113 -25 -32 -64 -36 -56 -6 6 25
-15 27 -38 4 -27 -27 -15 -58 22 -62 26 -3 41 4 74 36 36 33 42 45 46 88 6 70
-8 86 -83 88 -72 3 -107 24 -136 79 -32 64 -34 140 -7 233 30 104 69 191 105
233 30 35 107 77 124 66 28 -17 4 -92 -89 -287 -72 -150 -81 -248 -26 -284 34
-22 58 -11 136 62 102 95 127 84 116 -53 -10 -133 -126 -301 -249 -363 -34
-16 -74 -30 -90 -30 -41 0 -93 24 -112 51 -18 26 -22 69 -6 69 6 0 10 -7 10
-16 0 -22 22 -12 40 18 12 22 12 29 1 42 -20 24 -47 20 -70 -10 -43 -55 -16
-131 55 -154 57 -19 121 -7 217 40 108 52 196 135 247 230 31 59 35 75 38 162
4 97 4 97 -26 128 -51 50 -82 43 -142 -34 -53 -67 -76 -82 -110 -71 -15 5 -20
15 -20 38 1 58 34 130 115 249 145 213 169 258 148 279 -15 15 -36 2 -61 -36
-26 -41 -34 -43 -47 -13 -8 19 -20 24 -70 28 -52 4 -60 8 -63 27 -4 29 21 76
71 131 59 63 147 97 147 55 0 -27 -47 -97 -79 -118 -30 -19 -40 -35 -23 -35
22 0 226 145 295 211 169 157 270 361 299 602 14 118 -1 301 -28 342 -22 34
-58 31 -62 -5 -3 -24 -2 -25 13 -5 14 17 17 18 25 5 21 -34 32 -124 25 -218
-20 -281 -98 -457 -230 -518 -49 -23 -50 -24 -53 -4 -5 28 33 89 108 178 70
82 99 140 100 195 0 31 -3 38 -17 35 -10 -2 -19 -12 -21 -22 -3 -11 0 -16 7
-12 14 9 14 -19 0 -47 -17 -32 -61 -77 -76 -77 -17 0 -17 1 15 68 40 83 53
142 53 241 -1 107 -14 155 -69 244 l-23 38 30 28 c37 34 51 69 51 122 0 38
-23 109 -35 109 -3 0 2 -16 10 -36 39 -93 -3 -194 -79 -194 -37 0 -39 -14 -6
-45 47 -45 100 -187 100 -268 0 -45 -24 -97 -46 -97 -13 0 -14 8 -7 48 11 65
8 161 -6 205 -13 39 -61 97 -81 97 -9 0 -11 -11 -7 -35 3 -19 4 -35 2 -35 -3
0 -14 18 -25 40 -38 74 -138 149 -201 150 -14 0 -51 -13 -82 -30 -31 -16 -58
-26 -61 -21 -3 4 10 23 29 41 43 42 46 59 5 29 -51 -38 -47 -11 6 36 27 24 52
44 57 45 12 0 7 -44 -8 -64 -22 -29 -18 -39 7 -22 37 26 175 17 164 -10 -3 -9
2 -14 14 -14 11 0 20 -4 20 -9 0 -5 10 -11 23 -13 12 -2 22 -10 23 -18 2 -33
4 -40 13 -40 5 0 11 8 13 18 3 10 26 24 56 35 58 20 69 40 57 105 -8 42 -21
62 -42 62 -10 0 -11 -4 -3 -19 17 -32 11 -66 -15 -91 -14 -13 -28 -20 -32 -17
-3 4 1 13 11 20 21 15 13 67 -10 67 -16 0 -19 16 -4 25 6 3 10 10 10 15 0 14
-32 0 -62 -28 -15 -14 -31 -22 -35 -19 -9 9 78 90 120 111 29 16 29 17 5 12
-14 -3 -33 -9 -42 -12 -11 -4 -16 0 -16 12 0 33 -58 142 -99 186 -77 84 -234
142 -418 154 -110 7 -189 -14 -414 -112 -208 -90 -280 -114 -370 -121 -88 -7
-119 4 -119 43 0 37 15 60 50 74 28 12 33 11 51 -9 27 -29 55 -26 89 8 31 31
32 59 1 95 -35 40 -89 53 -171 39z m1023 -128 c58 -15 153 -72 194 -117 29
-31 49 -81 58 -143 5 -45 4 -53 -17 -72 -36 -34 -65 -14 -110 78 -23 49 -49
86 -70 101 -103 77 -246 128 -357 128 -74 0 -55 16 34 28 108 15 205 13 268
-3z m-173 -92 c30 -8 83 -31 117 -51 91 -53 108 -113 41 -148 -60 -31 -140 -4
-290 97 -31 22 -62 39 -67 39 -6 0 -11 5 -11 10 0 22 119 7 208 -27 48 -18 55
-33 15 -33 -22 0 -25 -2 -13 -10 19 -12 77 -13 84 -1 18 29 -47 76 -155 112
-43 14 -76 29 -73 32 8 7 80 -2 144 -20z m-110 -183 c122 -73 183 -86 270 -55
54 19 53 19 34 -9 -8 -14 -35 -32 -59 -42 -80 -30 -197 4 -295 85 -55 46 -82
61 -112 62 -21 0 -22 1 -3 8 31 12 94 -7 165 -49z m-109 -38 c14 -9 43 -36 63
-59 l38 -43 -27 -10 c-15 -6 -58 -31 -96 -56 -74 -50 -87 -51 -139 -7 -34 28
-60 72 -60 100 0 30 52 84 90 93 44 11 97 3 131 -18z m-283 -129 c44 -21 82
-88 89 -158 12 -116 -55 -258 -151 -323 -41 -27 -58 -32 -95 -30 -39 3 -48 7
-65 37 -29 50 -26 135 6 197 49 94 108 96 108 5 0 -54 13 -71 51 -71 65 0 118
84 119 188 0 59 -3 66 -31 93 -39 36 -102 40 -143 8 -34 -27 -36 -69 -2 -69
32 0 56 28 35 41 -12 8 -12 10 1 19 24 15 56 12 81 -9 22 -17 24 -27 24 -101
0 -80 -1 -82 -33 -111 -20 -18 -42 -29 -55 -27 -19 3 -22 9 -23 58 0 81 0 80
-44 80 -45 0 -99 -40 -127 -94 -24 -44 -24 -170 0 -213 48 -89 183 -96 262
-13 35 37 53 38 61 5 9 -38 -22 -109 -61 -139 -47 -36 -81 -48 -146 -48 -64
-1 -124 27 -158 73 -48 64 -64 206 -36 314 34 128 137 270 218 298 44 16 61
14 115 -10z m576 -23 c58 -54 73 -91 57 -137 -14 -38 -10 -49 13 -40 9 4 19
24 22 46 4 23 10 38 15 35 5 -3 14 5 20 18 11 25 87 78 111 78 18 0 72 -76 87
-123 9 -26 9 -41 1 -57 -12 -22 -36 -27 -43 -7 -5 17 -77 -17 -77 -37 0 -9 -8
-31 -17 -51 -12 -25 -23 -35 -41 -35 -36 0 -62 18 -77 53 l-14 32 -1 -27 c0
-16 -10 -38 -22 -50 -20 -20 -22 -20 -35 -3 -7 11 -13 44 -13 78 0 43 -3 57
-12 54 -8 -2 -13 -22 -14 -48 0 -24 -1 -50 -2 -56 -3 -18 -22 -16 -22 2 0 56
-60 97 -113 77 -17 -6 -33 -9 -36 -6 -4 4 2 36 26 142 8 32 -13 27 -33 -7 -22
-37 -37 -30 -28 12 13 64 64 97 147 97 53 0 61 -3 101 -40z m-274 -54 c0 -8
-13 -36 -30 -63 -57 -92 -87 -227 -64 -287 10 -27 27 -18 21 12 -14 69 31 231
68 245 22 9 19 -34 -6 -77 -18 -30 -20 -49 -18 -153 2 -101 0 -125 -18 -164
-20 -45 -57 -80 -100 -93 -33 -10 -38 12 -6 26 23 9 25 12 10 15 -21 5 -57
-23 -57 -44 0 -17 48 -16 80 2 14 8 38 14 54 15 27 0 28 -2 23 -35 -15 -93
-66 -135 -163 -135 -49 0 -64 3 -64 15 0 10 17 16 60 21 62 7 86 23 76 50 -7
19 -57 16 -64 -5 -3 -10 3 -12 29 -6 26 5 31 4 23 -5 -15 -15 -78 -29 -130
-30 -51 0 -72 -20 -46 -43 31 -28 89 -47 144 -47 73 0 126 28 166 90 18 27 38
50 45 50 40 0 51 -81 17 -121 -21 -26 -26 -15 -11 24 6 14 6 29 0 38 -7 11
-19 3 -56 -38 -52 -57 -71 -67 -148 -77 -104 -14 -234 33 -342 122 -66 55
-102 102 -67 87 61 -27 162 -55 196 -55 34 0 46 7 92 53 62 62 81 109 96 247
18 160 30 213 61 270 41 75 129 141 129 96z m723 -97 c14 -25 22 -30 41 -25
20 5 25 0 37 -37 25 -74 16 -207 -20 -316 -42 -127 -41 -143 6 -99 26 24 32
61 8 52 -20 -8 -19 3 6 37 22 31 59 39 59 14 0 -26 -28 -85 -56 -118 -14 -18
-60 -69 -102 -115 -120 -131 -192 -236 -192 -277 0 -20 19 -19 42 2 23 20 24
48 2 39 -35 -13 24 59 80 98 94 67 86 22 -18 -91 -89 -97 -350 -287 -385 -281
-25 5 -24 43 1 82 27 41 95 83 110 68 9 -9 -8 -27 -58 -59 -18 -11 -18 -12 2
-12 74 -2 242 224 305 410 13 38 28 69 33 69 8 0 6 -14 -9 -80 -11 -45 63 48
100 125 81 173 76 312 -22 533 -11 26 13 10 30 -19z m-54 -41 c30 -100 23
-201 -18 -244 -10 -11 -24 -37 -32 -58 -17 -48 -34 -62 -54 -46 -21 17 -19 49
5 88 26 43 11 41 -19 -3 -13 -19 -27 -35 -32 -35 -4 0 -24 19 -43 42 -37 43
-42 44 -27 6 5 -13 12 -32 16 -43 5 -16 8 -17 15 -5 15 24 33 -3 32 -46 -1
-31 0 -34 14 -23 13 10 17 10 25 -2 15 -24 10 -48 -16 -71 -13 -11 -22 -25
-19 -30 3 -4 -3 -8 -13 -8 -15 0 -15 -3 5 -18 l24 -18 -27 -18 c-21 -14 -39
-17 -72 -12 -25 3 -49 9 -55 12 -24 15 14 134 43 134 8 0 7 -5 -1 -15 -10 -12
-9 -15 4 -15 23 0 66 45 66 69 0 18 -2 19 -27 5 -38 -19 -182 -19 -208 0 -19
14 -19 15 3 83 25 77 26 83 14 83 -5 0 -16 -16 -25 -36 -10 -19 -21 -32 -27
-29 -19 11 14 56 63 86 61 38 101 35 158 -11 21 -16 40 -30 44 -30 3 0 -4 17
-17 39 l-22 39 27 35 c25 33 91 67 104 53 10 -9 -16 -34 -42 -40 -27 -7 -33
-33 -15 -67 13 -22 32 -26 24 -4 -4 9 8 31 30 55 20 22 36 49 36 61 0 24 27
79 39 79 4 0 13 -19 20 -42z m-499 -38 c0 -5 -9 -10 -19 -10 -11 0 -23 5 -26
10 -4 6 5 10 19 10 14 0 26 -4 26 -10z m363 3 c-7 -2 -21 -2 -30 0 -10 3 -4 5
12 5 17 0 24 -2 18 -5z m-398 -17 c32 -11 40 -19 41 -40 1 -14 9 -37 18 -51
16 -25 16 -28 -10 -75 -15 -28 -31 -50 -36 -50 -12 0 -11 4 14 55 12 24 18 48
14 52 -10 10 -76 -65 -76 -85 0 -22 -35 12 -50 49 -15 34 -7 48 15 29 10 -8
19 -10 25 -4 9 9 1 31 -30 81 -11 18 -12 24 -1 37 16 19 25 20 76 2z m16 -356
c34 -18 40 -19 45 -5 5 13 8 13 27 0 27 -19 38 -19 31 0 -8 21 19 19 38 -2 9
-10 18 -37 21 -61 5 -39 3 -44 -19 -53 -37 -14 -142 -23 -125 -11 11 8 8 11
-15 14 -23 2 -29 7 -27 26 2 13 -4 25 -12 28 -28 11 -15 24 18 17 34 -6 32 3
-5 21 -13 6 -24 19 -26 29 -4 22 0 21 49 -3z m409 -54 c0 -3 -4 -8 -10 -11 -5
-3 -10 -1 -10 4 0 6 5 11 10 11 6 0 10 -2 10 -4z m-156 -103 l68 -6 -6 -35
c-7 -44 -32 -74 -45 -54 -7 11 -9 11 -14 -2 -4 -9 -12 -16 -19 -16 -7 0 -25
-14 -40 -32 -14 -18 -30 -30 -34 -26 -4 4 -1 14 5 22 10 12 7 14 -23 12 -34
-3 -35 -2 -42 41 -7 46 -24 69 -24 32 0 -17 -3 -19 -14 -10 -11 9 -15 9 -18
-1 -4 -10 -8 -10 -21 1 -22 17 -21 34 1 53 30 27 97 34 226 21z m-156 -579
c32 -22 28 -53 -22 -152 -62 -125 -97 -234 -103 -322 -5 -66 -2 -85 22 -144
15 -37 25 -69 23 -71 -12 -11 -52 22 -82 67 -50 76 -70 154 -70 273 -1 117 17
183 69 267 54 86 114 117 163 82z"></path>
</g>
<g transform="translate(0.000000,300.000000) scale(0.100000,-0.100000)" fill="#F7C5D4" stroke="none">


<path class="node" id="node4" d="M1275 2858 c-89 -12 -108 -28 -34 -28 111 0 254 -51 357 -128 21 -15
47 -52 70 -101 45 -92 74 -112 110 -78 21 19 22 27 17 72 -14 99 -41 141 -137
206 -95 65 -204 81 -383 57z"></path>
<path class="node" id="node5" d="M1226 2783 c-3 -3 30 -18 73 -32 108 -36 173 -83 155 -112 -7 -12
-65 -11 -84 1 -12 8 -9 10 13 10 40 0 33 15 -15 33 -89 34 -208 49 -208 27 0
-5 5 -10 11 -10 5 0 36 -17 67 -39 150 -101 230 -128 290 -97 67 35 50 95 -41
148 -34 20 -87 43 -117 51 -64 18 -136 27 -144 20z"></path>
<path class="node" id="node6" d="M1095 2629 c-19 -7 -18 -8 3 -8 30 -1 57 -16 112 -62 62 -52 116 -78
189 -90 52 -10 69 -9 106 5 24 10 51 28 59 42 19 28 20 28 -34 9 -87 -31 -148
-18 -270 55 -71 42 -134 61 -165 49z"></path>
<path class="node" id="node7" d="M1020 2560 c-38 -9 -90 -63 -90 -93 0 -28 26 -72 60 -100 52 -44 65
-43 139 7 38 25 81 50 96 56 l27 10 -38 43 c-65 73 -120 95 -194 77z"></path>
<path class="node" id="node8" d="M753 2423 c-81 -28 -184 -170 -218 -298 -28 -108 -12 -250 36 -314
34 -46 94 -74 158 -73 65 0 99 12 146 48 39 30 70 101 61 139 -8 33 -26 32
-61 -5 -79 -83 -214 -76 -262 13 -24 43 -24 169 0 213 28 54 82 94 127 94 44
0 44 1 44 -80 1 -49 4 -55 23 -58 13 -2 35 9 55 27 32 29 33 31 33 111 0 74
-2 84 -24 101 -25 21 -57 24 -81 9 -13 -9 -13 -11 -1 -19 21 -13 -3 -41 -35
-41 -34 0 -32 42 2 69 41 32 104 28 143 -8 28 -27 31 -34 31 -93 -1 -104 -54
-188 -119 -188 -38 0 -51 17 -51 71 0 91 -59 89 -108 -5 -32 -62 -35 -147 -6
-197 17 -30 26 -34 65 -37 125 -8 263 189 246 353 -13 127 -105 203 -204 168z"></path>
<path class="node" id="node9" d="M1255 2412 c-39 -24 -51 -40 -59 -79 -9 -42 6 -49 28 -12 20 34 41
39 33 7 -24 -106 -30 -138 -26 -142 3 -3 19 0 36 6 53 20 113 -21 113 -77 0
-18 19 -20 22 -2 1 6 2 32 2 56 1 26 6 46 14 48 9 3 12 -11 12 -54 0 -34 6
-67 13 -78 13 -17 15 -17 35 3 12 12 22 34 22 50 l1 27 14 -32 c15 -35 41 -53
77 -53 18 0 29 10 41 35 9 20 17 42 17 51 0 20 72 54 77 37 7 -20 31 -15 43 7
8 16 8 31 -1 57 -15 47 -69 123 -87 123 -24 0 -100 -53 -111 -78 -6 -13 -15
-21 -20 -18 -5 3 -11 -12 -15 -35 -3 -22 -13 -42 -22 -46 -23 -9 -27 2 -13 40
16 46 1 83 -57 137 -40 37 -48 40 -101 40 -39 0 -68 -6 -88 -18z"></path>
<path class="node" id="node10" d="M1107 2323 c-72 -56 -102 -139 -127 -353 -15 -138 -34 -185 -96 -247
-46 -46 -58 -53 -92 -53 -34 0 -135 28 -196 55 -35 15 1 -32 67 -87 108 -89
238 -136 342 -122 77 10 96 20 148 77 37 41 49 49 56 38 6 -9 6 -24 0 -38 -15
-39 -10 -50 11 -24 34 40 23 121 -17 121 -7 0 -27 -23 -45 -50 -40 -62 -93
-90 -166 -90 -55 0 -113 19 -144 47 -26 23 -5 43 46 43 52 1 115 15 130 30 8
9 3 10 -23 5 -26 -6 -32 -4 -29 6 7 21 57 24 64 5 10 -27 -14 -43 -76 -50 -43
-5 -60 -11 -60 -21 0 -12 15 -15 64 -15 97 0 148 42 163 135 5 33 4 35 -23 35
-16 -1 -40 -7 -54 -15 -32 -18 -80 -19 -80 -2 0 21 36 49 57 44 15 -3 13 -6
-10 -15 -32 -14 -27 -36 6 -26 43 13 80 48 100 93 18 39 20 63 18 164 -2 104
0 123 18 153 25 43 28 86 6 77 -37 -14 -82 -176 -68 -245 6 -30 -11 -39 -21
-12 -23 60 7 195 64 287 49 79 34 101 -33 50z"></path>
<path class="node" id="node11" d="M1863 2258 c98 -221 103 -360 22 -533 -37 -77 -111 -170 -100 -125
15 66 17 80 9 80 -5 0 -20 -31 -33 -69 -63 -186 -231 -412 -305 -410 -20 0
-20 1 -2 12 50 32 67 50 58 59 -15 15 -83 -27 -110 -68 -25 -39 -26 -77 -1
-82 35 -6 296 184 385 281 104 113 112 158 18 91 -56 -39 -115 -111 -80 -98
22 9 21 -19 -2 -39 -23 -21 -42 -22 -42 -2 0 41 72 146 192 277 42 46 88 97
102 115 28 33 56 92 56 118 0 25 -37 17 -59 -14 -25 -34 -26 -45 -6 -37 24 9
18 -28 -8 -52 -47 -44 -48 -28 -6 99 36 109 45 242 20 316 -12 37 -17 42 -37
37 -19 -5 -27 0 -41 25 -17 29 -41 45 -30 19z"></path>
<path class="node" id="node12" d="M1795 2210 c-8 -16 -15 -38 -15 -49 0 -12 -16 -39 -36 -61 -22 -24
-34 -46 -30 -55 8 -22 -11 -18 -24 4 -18 34 -12 60 15 67 26 6 52 31 42 40
-13 14 -79 -20 -104 -53 l-27 -35 22 -39 c13 -22 20 -39 17 -39 -4 0 -23 14
-44 30 -57 46 -97 49 -158 11 -49 -30 -82 -75 -63 -86 6 -3 17 10 27 29 9 20
20 36 25 36 12 0 11 -6 -14 -83 -22 -68 -22 -69 -3 -83 26 -19 170 -19 208 0
25 14 27 13 27 -5 0 -24 -43 -69 -66 -69 -13 0 -14 3 -4 15 8 10 9 15 1 15
-29 0 -67 -119 -43 -134 6 -3 30 -9 55 -12 33 -5 51 -2 72 12 l27 18 -24 18
c-20 15 -20 18 -5 18 10 0 16 4 13 8 -3 5 6 19 19 30 26 23 31 47 16 71 -8 12
-12 12 -25 2 -14 -11 -15 -8 -14 23 1 43 -17 70 -32 46 -7 -12 -10 -11 -15 5
-4 11 -11 30 -16 43 -15 38 -10 37 27 -6 19 -23 39 -42 43 -42 5 0 19 16 32
35 30 44 45 46 19 3 -24 -39 -26 -71 -5 -88 20 -16 37 -2 54 46 8 21 22 47 32
58 41 43 48 144 18 244 -14 50 -23 52 -44 12z"></path>
<path class="node" id="node13" d="M1295 2160 c3 -5 15 -10 26 -10 10 0 19 5 19 10 0 6 -12 10 -26 10
-14 0 -23 -4 -19 -10z"></path>
<path class="node" id="node14" d="M1673 2163 c9 -2 23 -2 30 0 6 3 -1 5 -18 5 -16 0 -22 -2 -12 -5z"></path>
<path class="node" id="node15" d="M1229 2144 c-11 -13 -10 -19 1 -37 31 -50 39 -72 30 -81 -6 -6 -15
-4 -25 4 -22 19 -30 5 -15 -29 15 -37 50 -71 50 -49 0 20 66 95 76 85 4 -4 -2
-28 -14 -52 -25 -51 -26 -55 -14 -55 5 0 21 22 36 50 26 47 26 50 10 75 -9 14
-17 37 -18 51 -1 21 -9 29 -41 40 -51 18 -60 17 -76 -2z"></path>
<path class="node" id="node16" d="M1272 1793 c2 -10 13 -23 26 -29 37 -18 39 -27 5 -21 -33 7 -46 -6
-18 -17 8 -3 14 -15 12 -28 -2 -19 4 -24 27 -26 23 -3 26 -6 15 -14 -17 -12
88 -3 125 11 22 9 24 14 19 53 -3 24 -12 51 -21 61 -19 21 -46 23 -38 2 7 -19
-4 -19 -31 0 -19 13 -22 13 -27 0 -5 -14 -11 -13 -45 5 -49 24 -53 25 -49 3z"></path>
<path class="node" id="node17" d="M1710 1729 c0 -5 5 -7 10 -4 6 3 10 8 10 11 0 2 -4 4 -10 4 -5 0 -10
-5 -10 -11z"></path>
<path class="node" id="node18" d="M1385 1633 c-25 -6 -55 -32 -55 -48 0 -7 7 -19 17 -26 13 -11 17 -11
21 -1 3 10 7 10 18 1 11 -9 14 -7 14 10 0 37 17 14 24 -32 7 -43 8 -44 42 -41
30 2 33 0 23 -12 -6 -8 -9 -18 -5 -22 4 -4 20 8 34 26 15 18 33 32 40 32 7 0
15 7 19 16 5 13 7 13 14 2 13 -20 38 10 45 54 l6 35 -68 6 c-76 8 -158 7 -189
0z"></path>
<path class="node" id="node19" d="M1323 1049 c-41 -26 -98 -117 -121 -189 -23 -75 -22 -235 2 -315 21
-71 78 -163 109 -174 12 -5 24 -7 25 -6 2 2 -8 34 -23 71 -24 59 -27 78 -22
144 6 88 41 197 103 322 50 99 54 130 22 152 -30 21 -57 20 -95 -5z"></path>
</g>
</svg>