<!--?xml version="1.0" standalone="no"?-->

<svg version="1.0" xmlns="http://www.w3.org/2000/svg" width="300.000000pt" height="300.000000pt" viewBox="0 0 300.000000 300.000000" preserveAspectRatio="xMidYMid meet">
<g transform="translate(0.000000,300.000000) scale(0.100000,-0.100000)" fill="#040404" stroke="none">
<path class="node" id="node1" d="M2400 2646 c0 -7 7 -19 15 -26 20 -17 10 -30 -23 -30 -15 0 -37 -3
-50 -6 -17 -5 -20 -9 -11 -20 19 -24 -1 -34 -67 -34 -68 0 -76 -6 -44 -35 27
-24 19 -32 -40 -40 -46 -6 -49 -8 -39 -27 6 -11 9 -21 7 -22 -2 -1 -29 -10
-61 -21 -32 -10 -66 -24 -75 -31 -19 -14 -21 -11 35 -30 26 -8 2 -20 -79 -40
-38 -9 -68 -20 -68 -24 0 -4 17 -12 38 -18 l37 -9 -40 -18 c-22 -9 -60 -27
-85 -39 l-45 -21 40 -3 c49 -4 65 -17 34 -27 -13 -4 -62 -33 -108 -64 l-85
-56 -125 0 c-91 0 -142 5 -183 18 -128 39 -432 12 -535 -48 -166 -98 -269
-294 -328 -625 -13 -71 -58 -180 -91 -219 -56 -65 -147 -79 -195 -28 -51 54
-64 96 -63 207 0 120 12 163 60 221 37 45 43 79 17 104 -34 35 -114 -1 -148
-66 -29 -56 -55 -187 -55 -281 0 -111 26 -192 86 -265 38 -47 137 -103 181
-103 79 0 214 93 268 185 14 25 27 45 29 45 2 0 2 -53 -1 -118 -4 -95 -1 -138
16 -227 12 -60 22 -140 22 -177 0 -52 4 -72 21 -93 11 -14 18 -34 15 -45 -8
-33 15 -49 96 -66 86 -17 117 -14 147 16 27 27 25 46 -10 81 -25 26 -34 29
-65 23 -72 -13 -77 14 -46 268 21 164 35 207 89 270 16 18 41 51 55 72 17 26
28 35 31 25 2 -8 7 -72 10 -144 15 -358 17 -375 43 -392 15 -10 23 -25 23 -43
0 -16 7 -36 15 -44 36 -36 164 -46 200 -16 18 15 20 71 3 88 -7 7 -31 12 -55
12 -31 0 -49 6 -64 21 -20 20 -21 29 -16 102 12 149 53 291 111 387 19 30 42
81 51 113 11 38 20 55 28 50 7 -4 31 -20 54 -35 94 -64 151 -82 253 -82 86 0
101 3 164 32 38 18 71 30 73 28 12 -11 33 -124 42 -221 7 -78 20 -139 45 -211
18 -56 37 -121 41 -145 15 -97 45 -179 72 -196 36 -24 165 -25 189 -1 16 15
16 19 -2 50 -13 22 -37 42 -72 58 -66 32 -73 52 -70 196 2 60 -3 189 -11 287
-16 189 -13 209 27 215 26 4 38 -36 46 -165 3 -51 15 -134 26 -185 11 -51 24
-134 29 -185 15 -139 34 -157 186 -170 59 -5 74 -3 88 11 24 25 21 43 -12 77
-20 19 -40 29 -60 29 -20 0 -36 8 -50 26 -19 24 -21 40 -21 163 1 75 5 181 9
236 10 115 35 174 101 238 22 20 47 52 57 70 22 41 28 19 14 -55 -5 -29 -7
-55 -4 -58 3 -3 16 9 29 25 21 26 49 102 68 188 10 41 22 26 36 -45 l13 -63
18 65 c30 101 35 197 14 259 -17 51 -14 88 5 76 24 -15 19 30 -10 90 -17 35
-30 71 -28 80 3 13 6 13 31 0 15 -8 39 -22 55 -30 15 -8 46 -15 69 -15 52 0
78 29 88 100 4 27 13 54 21 61 8 6 14 24 14 40 0 23 -12 38 -65 80 -36 28 -79
70 -94 93 -16 22 -41 52 -55 65 -14 14 -26 34 -26 45 -2 45 -34 89 -73 100
-21 6 -64 32 -96 58 -59 48 -97 68 -132 68 -10 0 -19 -6 -19 -14z"></path>
</g>
<g transform="translate(0.000000,300.000000) scale(0.100000,-0.100000)" fill="#A1A1A1" stroke="none">

</g>
</svg>