<!--?xml version="1.0" standalone="no"?-->

<svg version="1.0" xmlns="http://www.w3.org/2000/svg" width="300.000000pt" height="225.000000pt" viewBox="0 0 300.000000 225.000000" preserveAspectRatio="xMidYMid meet">
<g transform="translate(0.000000,225.000000) scale(0.100000,-0.100000)" fill="#2B2B2D" stroke="none">
<path class="node" id="node1" d="M2090 1913 c-8 -3 -31 -12 -50 -20 l-35 -14 60 -34 c65 -37 98 -46
71 -19 -24 24 -19 37 11 31 16 -3 40 2 58 11 l30 16 -25 4 c-13 2 -33 10 -44
18 -21 14 -49 17 -76 7z"></path>
<path class="node" id="node2" d="M1949 1887 c-27 -21 -49 -61 -49 -90 0 -54 74 -125 118 -114 12 3 7
9 -19 20 -37 17 -59 51 -59 93 0 22 4 25 28 22 21 -2 29 -10 36 -35 8 -26 14
-31 30 -27 33 7 86 -32 103 -76 18 -45 33 -52 33 -16 0 36 -40 87 -110 139
-35 26 -71 59 -80 72 -12 19 -18 21 -31 12z"></path>
<path class="node" id="node3" d="M2475 1886 c-11 -7 -42 -20 -70 -28 -58 -16 -61 -30 -8 -40 21 -3 48
-9 61 -13 16 -6 22 -3 22 9 0 26 27 18 54 -16 14 -18 27 -30 30 -27 15 15 -40
129 -63 129 -3 0 -15 -6 -26 -14z"></path>
<path class="node" id="node4" d="M2235 1844 l-39 -35 65 3 c35 1 70 -1 77 -6 19 -11 14 19 -5 36 -43
38 -56 38 -98 2z"></path>
<path class="node" id="node5" d="M2464 1769 c-18 -20 -18 -20 6 -17 36 4 40 -16 4 -23 l-29 -5 35 -16
c30 -13 32 -17 17 -23 -12 -5 -28 0 -48 14 -22 16 -29 18 -29 7 0 -8 -6 -16
-12 -19 -19 -6 -58 14 -58 30 0 8 -12 13 -32 13 -18 0 -44 3 -58 7 -19 4 -15
-2 21 -30 26 -20 49 -43 53 -52 19 -50 -5 -90 -61 -101 -37 -7 -148 39 -164
68 -13 24 -29 23 -29 -2 0 -10 -5 -31 -12 -45 -11 -24 -8 -29 37 -75 27 -28
53 -50 57 -50 4 0 5 15 2 33 l-5 32 18 -35 c12 -23 44 -52 91 -83 39 -26 72
-52 72 -58 0 -6 5 -7 10 -4 20 12 9 38 -35 82 -26 25 -45 53 -45 66 0 20 2 19
29 -11 17 -17 32 -32 35 -32 3 0 2 15 -1 33 -3 23 0 37 11 46 24 20 78 2 93
-30 17 -35 58 -28 79 12 13 26 13 33 -2 64 -21 45 -34 53 -34 21 0 -36 -25
-46 -71 -28 -28 11 -39 21 -39 36 0 38 16 51 62 49 103 -4 149 63 90 130 -20
22 -35 22 -58 -4z"></path>
<path class="node" id="node6" d="M1836 1694 c-36 -47 -68 -122 -80 -185 -5 -30 0 -45 39 -106 38 -59
52 -73 90 -87 68 -27 124 -101 153 -206 l10 -35 1 39 c1 44 -31 162 -60 218
-17 33 -23 37 -47 32 -24 -5 -34 1 -65 35 -52 57 -47 111 9 111 31 0 73 -58
113 -155 18 -44 55 -112 81 -152 31 -46 53 -93 61 -129 12 -55 12 -60 -16
-128 -8 -18 -7 -18 21 0 49 30 91 74 109 113 l16 37 -35 53 c-45 66 -70 149
-63 208 4 41 2 45 -25 59 -17 9 -50 34 -74 56 -47 43 -54 39 -27 -17 20 -43
13 -53 -21 -28 -57 41 -68 114 -24 175 l19 27 -34 14 c-32 14 -87 69 -87 88 0
23 -32 5 -64 -37z"></path>
<path class="node" id="node7" d="M874 1665 c-93 -20 -210 -84 -200 -110 2 -7 -1 -18 -7 -24 -8 -8 -4
-11 15 -11 38 0 43 -16 14 -45 -29 -29 -51 -32 -64 -9 -8 14 -13 13 -44 -6
-31 -18 -68 -58 -68 -74 0 -2 18 3 41 12 33 13 47 14 72 4 26 -10 33 -9 40 3
4 9 29 25 54 37 52 24 79 69 61 102 -8 15 -18 17 -54 13 -24 -2 -44 -3 -44 -1
0 8 58 32 93 38 39 7 87 -12 87 -34 0 -5 -18 -33 -40 -62 -79 -103 -91 -139
-100 -305 -9 -147 -18 -191 -59 -271 -20 -40 -21 -42 -3 -42 17 0 107 55 153
92 28 23 69 90 69 112 0 21 0 21 -18 -1 -9 -12 -28 -24 -42 -25 -21 -3 -29 5
-48 42 -20 38 -23 55 -18 110 8 95 31 160 72 208 37 44 63 52 84 28 11 -15 18
-165 7 -183 -2 -4 -1 -17 4 -28 7 -18 8 -18 8 5 1 35 35 86 68 104 53 27 95
29 158 7 32 -11 61 -19 63 -16 2 2 -12 18 -32 35 -21 19 -36 41 -36 54 0 28
33 64 65 72 42 11 129 -6 191 -35 102 -49 145 -107 207 -281 3 -8 6 10 6 40 2
62 29 131 69 173 l26 27 -46 -6 c-62 -9 -120 19 -222 105 -107 91 -200 138
-297 151 -101 13 -212 11 -285 -5z"></path>
<path class="node" id="node8" d="M2357 1494 c-19 -19 54 -161 97 -189 40 -27 77 -82 94 -144 l17 -59
17 34 c16 31 16 34 -3 57 -12 17 -19 41 -19 70 0 44 -1 47 -62 89 -43 29 -66
53 -72 73 -9 30 -58 79 -69 69z"></path>
<path class="node" id="node9" d="M1739 1389 c-34 -54 -52 -115 -50 -177 1 -67 15 -103 62 -163 26 -32
34 -37 87 -41 32 -3 78 -16 102 -28 59 -30 133 -102 155 -149 14 -32 29 -45
80 -70 87 -43 200 -155 245 -244 34 -66 36 -68 68 -62 73 13 164 -58 134 -106
-19 -29 -15 -36 23 -41 41 -5 47 -2 62 33 27 62 -27 128 -111 132 -50 3 -74
20 -102 72 -10 19 -26 35 -35 35 -20 0 -115 102 -164 176 -19 28 -44 75 -55
105 -28 71 -35 76 -55 45 -20 -30 -50 -33 -83 -10 -25 17 -28 48 -7 84 8 14
14 43 15 65 l0 40 -31 -38 c-17 -20 -36 -37 -43 -37 -24 0 -68 57 -73 97 -4
33 -10 42 -37 51 -68 25 -136 115 -160 211 l-12 44 -15 -24z"></path>
<path class="node" id="node10" d="M539 1365 c-36 -19 -64 -70 -90 -160 -20 -67 -21 -81 -10 -129 17
-74 30 -91 62 -76 20 9 24 17 21 39 -3 20 -9 27 -25 27 -16 -1 -23 7 -29 34
-11 51 2 130 25 153 20 20 20 20 38 -4 17 -23 18 -23 24 -4 19 56 31 80 53
106 l24 29 -34 0 c-18 -1 -45 -7 -59 -15z"></path>
<path class="node" id="node11" d="M2240 1286 c0 -24 10 -75 21 -112 20 -62 23 -67 32 -46 14 30 38 24
50 -12 15 -45 -8 -126 -48 -174 -19 -22 -35 -43 -35 -46 0 -16 62 -2 125 27
71 32 71 32 56 58 -17 31 -9 88 19 121 l20 23 18 -23 c21 -27 32 -20 32 21 0
43 -36 109 -86 158 l-44 43 0 -52 c0 -40 -4 -54 -16 -59 -20 -8 -49 9 -49 28
0 14 -75 89 -89 89 -3 0 -6 -20 -6 -44z"></path>
<path class="node" id="node12" d="M1111 1183 c-6 -21 -11 -44 -11 -51 0 -21 -90 -181 -122 -218 -31
-35 -88 -60 -115 -50 -12 5 -14 15 -9 46 3 22 4 40 1 40 -3 0 -31 -20 -62 -44
-66 -50 -108 -66 -169 -66 -115 0 -9 -59 121 -67 59 -4 97 -1 140 12 53 15 69
27 151 110 51 52 104 97 118 101 31 7 31 6 6 96 -11 40 -20 85 -20 100 0 40
-17 34 -29 -9z"></path>
<path class="node" id="node13" d="M1397 1161 c58 -59 90 -116 102 -182 4 -24 12 -43 19 -42 18 4 52
-47 52 -78 0 -32 -13 -36 -55 -17 -31 14 -55 56 -55 96 0 45 -67 167 -117 213
-49 45 -72 46 -31 1 33 -34 54 -76 69 -135 6 -26 17 -47 24 -47 7 0 20 -11 29
-25 13 -19 14 -30 6 -45 -6 -11 -16 -20 -23 -20 -39 1 -97 65 -97 106 0 13
-20 37 -51 64 -27 23 -62 60 -76 81 -14 22 -28 37 -31 35 -14 -14 78 -177 135
-241 102 -114 334 -216 488 -214 69 0 70 0 45 17 -51 35 -98 83 -104 108 -4
13 -2 42 4 64 10 36 8 43 -25 94 -34 54 -115 132 -178 170 -28 18 -25 13 19
-36 52 -58 84 -126 84 -180 0 -18 5 -28 14 -28 39 0 64 -104 29 -117 -28 -11
-73 50 -73 100 -1 81 -65 176 -175 257 -78 57 -84 57 -28 1z"></path>
<path class="node" id="node14" d="M1805 963 c17 -41 16 -53 -5 -80 -17 -24 -19 -34 -11 -55 12 -31 31
-46 31 -24 0 9 6 16 14 16 16 0 26 -21 26 -54 0 -21 27 -56 44 -56 4 0 6 8 4
18 -2 13 5 18 30 20 39 4 79 -19 92 -52 5 -14 20 -25 38 -29 16 -3 49 -22 73
-42 24 -19 60 -49 81 -65 20 -16 54 -56 75 -89 21 -32 57 -79 81 -105 l42 -46
76 0 c68 0 75 2 83 22 19 52 -22 98 -87 98 l-26 0 22 -20 c43 -41 21 -68 -45
-55 -47 9 -90 55 -104 112 -7 26 -20 48 -33 55 -39 21 -126 111 -126 131 0 17
5 19 32 13 l32 -6 -29 31 c-46 47 -85 67 -150 74 -33 4 -72 13 -86 21 -28 14
-89 79 -89 94 0 12 46 24 59 15 18 -10 12 11 -6 27 -31 27 -81 48 -114 48 -26
0 -30 -3 -24 -17z"></path>
<path class="node" id="node15" d="M1212 958 c-8 -10 -7 -22 3 -43 26 -55 45 -138 45 -192 0 -47 4 -58
35 -91 l35 -37 -22 53 c-21 49 -21 55 -7 80 20 37 55 41 71 8 15 -34 20 -33
41 12 l17 37 -32 25 c-18 14 -65 55 -104 93 -56 53 -73 65 -82 55z"></path>
<path class="node" id="node16" d="M472 920 c-12 -16 -29 -46 -36 -67 -7 -21 -28 -71 -47 -112 -30 -67
-31 -74 -15 -83 16 -9 16 -12 2 -33 -18 -27 -22 -70 -6 -60 6 4 19 -4 30 -17
l19 -23 1 29 c0 17 9 40 21 52 17 18 19 26 10 42 -19 36 -13 130 11 173 25 44
48 55 77 38 25 -16 44 -2 72 54 l20 39 -23 -8 c-28 -10 -55 -10 -88 -2 -20 5
-30 0 -48 -22z"></path>
<path class="node" id="node17" d="M536 653 c-5 -82 -4 -138 3 -155 10 -27 11 -27 39 -11 20 11 39 14
65 9 41 -8 60 -33 59 -78 0 -21 5 -29 23 -34 58 -14 61 38 7 96 -36 37 -43 40
-90 40 l-51 0 -15 50 c-13 43 -13 57 -1 96 7 25 19 52 26 61 11 13 10 18 -10
34 -44 36 -48 28 -55 -108z"></path>
<path class="node" id="node18" d="M650 762 c0 -10 33 -40 79 -72 l34 -24 15 22 c19 29 54 28 122 -4 61
-28 92 -52 84 -65 -10 -17 -43 -9 -108 26 -36 19 -66 32 -66 29 0 -16 33 -65
60 -88 35 -29 60 -34 60 -11 0 30 43 6 59 -33 10 -25 21 -31 62 -39 27 -6 49
-8 49 -6 0 2 -14 16 -32 32 -30 27 -32 51 -3 51 19 0 74 -48 96 -85 22 -34 24
-20 7 37 -8 26 -21 44 -39 54 -16 8 -39 29 -54 47 -18 25 -33 34 -55 35 -69 2
-96 33 -42 47 l27 8 -25 7 c-38 12 -96 11 -124 -1 -19 -9 -40 -8 -98 6 -40 10
-81 22 -90 27 -10 5 -18 5 -18 0z"></path>
<path class="node" id="node19" d="M1178 718 c-16 -17 -28 -34 -28 -39 0 -4 36 -44 80 -88 44 -45 92
-100 106 -124 31 -50 64 -87 76 -87 5 0 1 11 -10 25 -33 41 -10 86 45 87 66 2
109 -27 119 -78 7 -41 12 -44 42 -33 50 19 3 129 -50 116 -12 -3 -33 0 -48 8
-30 16 -120 111 -120 128 0 6 -2 8 -5 5 -3 -3 2 -24 11 -47 9 -23 14 -44 11
-47 -10 -10 -79 15 -114 42 -47 35 -73 81 -73 127 0 44 -6 45 -42 5z"></path>
<path class="node" id="node20" d="M1730 693 c0 -5 15 -20 34 -35 37 -29 86 -118 86 -155 0 -25 11 -29
41 -12 44 23 139 -32 139 -82 0 -27 3 -30 28 -27 21 2 28 9 30 30 4 30 -21 74
-51 90 -11 6 -39 10 -63 10 -33 -1 -48 5 -68 25 -32 32 -40 61 -32 119 l6 44
-75 0 c-41 0 -75 -3 -75 -7z"></path>
<path class="node" id="node21" d="M1670 608 c0 -29 6 -64 13 -77 15 -31 37 -40 30 -13 -2 11 0 23 6 26
19 12 51 -14 58 -45 3 -16 11 -28 17 -26 13 4 20 50 12 83 -6 23 -102 104
-124 104 -8 0 -12 -19 -12 -52z"></path>
<path class="node" id="node22" d="M446 485 c-9 -34 10 -101 30 -109 9 -3 53 -6 99 -6 73 0 84 2 90 19
13 42 -28 94 -66 84 -24 -7 -24 -12 -1 -29 24 -18 4 -50 -29 -46 -33 4 -69 30
-69 50 0 9 -11 27 -24 40 l-24 22 -6 -25z"></path>
<path class="node" id="node23" d="M1464 469 c-3 -6 -1 -16 5 -22 16 -16 14 -43 -5 -62 -15 -15 -13 -16
32 -13 42 3 49 6 52 26 2 15 -7 32 -28 52 -35 32 -45 36 -56 19z"></path>
<path class="node" id="node24" d="M1925 448 c11 -42 -15 -54 -74 -34 -28 9 -52 16 -54 16 -3 0 3 -15
12 -34 18 -37 40 -46 122 -46 39 0 50 4 60 21 9 17 7 26 -8 47 -10 14 -29 32
-41 40 -22 15 -23 14 -17 -10z"></path>
</g>
<g transform="translate(0.000000,225.000000) scale(0.100000,-0.100000)" fill="#E9776E" stroke="none">

</g>
</svg>