<!--?xml version="1.0" standalone="no"?-->

<svg version="1.0" xmlns="http://www.w3.org/2000/svg" width="251.000000pt" height="300.000000pt" viewBox="0 0 251.000000 300.000000" preserveAspectRatio="xMidYMid meet">
<g transform="translate(0.000000,300.000000) scale(0.100000,-0.100000)" fill="#24201F" stroke="none">
<path class="node" id="node1" d="M920 2986 c0 -2 24 -18 54 -35 47 -26 106 -84 106 -104 0 -12 -30 -7
-61 9 -56 29 -43 5 44 -81 84 -81 120 -135 56 -80 -17 14 -33 24 -35 22 -2 -2
2 -22 10 -43 7 -22 17 -64 21 -94 4 -30 16 -70 27 -87 11 -19 15 -33 9 -33 -7
0 -14 6 -17 14 -3 8 -17 22 -31 31 -20 14 -16 4 22 -49 26 -37 45 -69 43 -72
-10 -9 -118 134 -133 176 -16 47 -11 66 10 37 21 -29 25 -5 9 59 -17 64 -74
166 -128 229 -39 44 -51 44 -34 -2 15 -39 -5 -143 -27 -143 -23 0 -29 64 -12
115 9 25 12 45 7 45 -12 0 -89 -89 -106 -122 -8 -16 -17 -28 -21 -28 -6 0 2
56 12 83 4 9 3 17 -3 17 -5 0 -27 -43 -47 -95 l-38 -95 -86 0 c-70 0 -96 -5
-138 -25 -55 -25 -76 -53 -27 -34 44 16 39 2 -8 -21 -40 -20 -148 -123 -148
-142 0 -4 22 6 49 22 56 35 81 38 81 11 0 -27 -30 -61 -99 -111 -33 -24 -59
-45 -58 -47 2 -1 23 7 47 19 63 32 133 30 192 -5 49 -28 105 -90 87 -95 -5 -2
-7 -18 -3 -37 8 -43 -8 -70 -54 -94 l-37 -20 38 -1 c21 0 37 -5 37 -11 0 -14
-81 -95 -125 -126 -42 -30 -26 -39 24 -14 87 45 82 19 -16 -80 -43 -43 -81
-86 -84 -96 -16 -39 -8 -42 22 -8 31 35 67 60 75 53 2 -2 -14 -40 -35 -84 -35
-71 -68 -181 -57 -191 2 -2 18 26 37 62 49 99 75 113 44 25 -18 -51 -19 -181
-1 -229 14 -40 21 -34 30 31 7 47 28 78 41 59 3 -6 9 -84 14 -173 7 -146 11
-168 34 -213 14 -28 37 -61 52 -75 l28 -25 -8 30 c-17 64 -11 122 14 149 33
35 84 50 144 43 l50 -6 -6 57 c-6 65 -49 172 -70 172 -7 0 -18 -17 -24 -37
l-10 -38 -8 53 c-8 52 -20 67 -28 35 -6 -22 -11 44 -9 107 2 34 -1 41 -8 30
-8 -11 -9 6 -4 57 8 86 0 123 -25 123 -14 0 -21 -13 -30 -56 -8 -35 -16 -53
-22 -47 -6 6 -6 26 0 54 14 58 14 129 0 129 -6 0 -19 -5 -30 -10 -38 -21 -21
22 43 106 43 57 50 81 19 64 -37 -20 -32 -10 26 44 57 54 58 55 33 64 -22 8
-18 11 43 31 50 17 67 27 67 41 0 10 -6 20 -12 23 -8 3 1 17 24 36 24 21 39
44 44 66 3 20 12 35 20 35 18 0 18 4 -2 41 -22 43 -12 46 21 7 15 -18 34 -37
43 -42 16 -9 16 -10 -26 57 -13 22 -21 41 -18 44 14 14 87 -26 138 -77 31 -32
59 -56 61 -54 2 3 -2 28 -10 57 -18 72 -12 78 28 25 41 -57 58 -66 51 -30 -5
27 -5 27 16 9 11 -11 25 -16 31 -13 5 3 17 -15 27 -41 23 -64 32 -72 39 -37
25 106 25 107 134 224 35 38 61 100 61 148 0 78 -90 216 -170 261 -46 26 -45
12 2 -28 27 -22 65 -81 53 -81 -3 0 -29 18 -57 41 -29 22 -77 53 -107 69 -77
38 -241 83 -241 66z m-63 -330 c24 -21 83 -120 83 -141 0 -4 -20 10 -44 29
-44 37 -68 48 -46 21 16 -19 3 -19 -30 0 -30 17 -115 19 -159 4 -35 -12 -40
-25 -13 -33 29 -10 61 -49 68 -84 6 -28 4 -32 -14 -32 -31 0 -52 -11 -52 -26
0 -7 -10 -20 -22 -28 -18 -13 -19 -16 -6 -16 22 0 34 -20 18 -30 -7 -4 -12
-19 -12 -34 0 -36 -24 -33 -37 5 -13 37 -14 168 -2 219 6 28 52 102 86 138 2
2 21 10 42 17 60 22 107 19 140 -9z"></path>
<path class="node" id="node2" d="M1512 2833 c60 -62 98 -123 76 -123 -7 0 -45 32 -85 72 -69 69 -105
89 -63 35 25 -32 25 -40 -1 -32 -20 7 -20 6 4 -37 32 -54 41 -97 32 -150 -6
-33 -22 -56 -85 -122 -46 -47 -85 -99 -95 -124 -22 -54 -14 -64 15 -18 21 35
65 76 81 76 4 0 2 -15 -5 -32 -7 -18 -16 -46 -20 -62 l-7 -28 40 34 c43 36
148 94 157 86 8 -8 -16 -62 -33 -75 -34 -26 0 -26 47 0 64 36 106 23 60 -18
-29 -26 -25 -35 16 -35 28 0 35 -3 30 -15 -4 -11 1 -15 19 -15 13 0 27 -4 30
-10 3 -5 1 -10 -4 -10 -17 0 -13 -30 9 -60 21 -30 149 -100 181 -100 11 0 16
-5 13 -13 -2 -7 9 -23 25 -35 16 -12 30 -30 29 -39 0 -10 3 -34 7 -53 l7 -35
-26 31 c-40 49 -64 50 -82 3 -17 -42 -30 -50 -36 -21 -2 10 -14 -5 -31 -42
-16 -33 -48 -85 -73 -117 -49 -64 -98 -162 -91 -182 2 -6 13 6 25 28 21 41 71
99 78 92 3 -2 -11 -37 -30 -78 -46 -97 -66 -177 -66 -264 0 -87 15 -117 23
-46 13 107 58 191 102 191 15 0 17 -8 13 -53 -3 -32 -13 -64 -26 -82 -22 -31
-39 -85 -27 -85 27 0 212 128 254 176 17 19 31 30 31 24 0 -17 -30 -73 -53
-97 -13 -15 -16 -23 -7 -23 19 0 171 157 217 225 74 110 84 250 25 324 -18 22
-32 45 -32 50 0 16 85 13 127 -4 20 -8 38 -13 41 -10 12 12 -38 61 -93 91
l-59 33 44 19 c25 11 54 22 64 26 45 16 1 16 -88 1 -127 -22 -146 -17 -76 19
51 27 110 66 98 66 -3 0 -25 -8 -49 -17 -56 -21 -249 -23 -294 -2 -29 13 -27
13 51 19 137 9 194 64 194 189 0 33 -4 63 -10 66 -6 4 -10 -6 -10 -22 0 -32
-34 -93 -51 -93 -7 0 -9 9 -5 23 28 104 30 137 12 228 -17 90 -44 160 -67 175
-9 5 -10 -3 -5 -32 10 -61 20 -194 13 -194 -3 0 -19 25 -36 55 -54 95 -158
186 -312 273 -31 18 -60 32 -64 32 -4 0 7 -16 24 -35 38 -44 40 -63 4 -39 -56
36 -136 74 -156 74 -18 0 -12 -10 35 -57z m298 -162 c62 -43 102 -140 114
-273 5 -49 2 -77 -8 -103 -14 -33 -45 -52 -32 -20 3 8 1 15 -5 15 -6 0 -9 6
-6 14 8 20 -3 27 -23 16 -23 -13 -33 0 -16 19 19 21 33 77 17 67 -8 -5 -11 9
-11 46 0 53 0 53 -18 30 l-18 -24 -13 42 c-14 48 -62 132 -77 137 -6 2 -14
-10 -18 -27 -3 -17 -19 -45 -35 -61 -32 -32 -75 -41 -64 -13 5 14 3 15 -16 4
-44 -23 -35 10 21 83 58 73 143 93 208 48z"></path>
<path class="node" id="node3" d="M295 2294 c-56 -28 -105 -71 -105 -92 0 -13 3 -12 18 1 26 24 78 32
98 16 21 -17 11 -54 -30 -104 -44 -53 -106 -148 -102 -153 2 -2 30 14 63 36
32 22 99 60 149 85 77 39 94 51 103 78 23 68 3 118 -59 143 -53 21 -75 20
-135 -10z"></path>
<path class="node" id="node4" d="M1034 2234 c22 -56 20 -61 -30 -73 -36 -9 -44 -15 -34 -22 8 -5 26
-9 41 -9 32 0 81 -50 109 -110 l20 -45 -5 78 c-5 81 -17 114 -61 166 -27 33
-50 42 -40 15z"></path>
<path class="node" id="node5" d="M1345 2187 c-15 -32 -27 -81 -31 -127 l-6 -75 29 55 c31 56 77 96
122 106 52 11 57 16 26 25 -16 5 -43 8 -60 7 -31 -2 -32 1 -20 40 5 18 2 22
-15 22 -16 0 -27 -13 -45 -53z"></path>
<path class="node" id="node6" d="M680 2028 c-11 -24 -20 -65 -20 -93 l0 -50 20 25 c15 20 21 23 32 12
10 -10 10 -21 0 -57 -17 -64 -16 -70 24 -151 23 -47 39 -96 44 -140 5 -36 14
-71 20 -78 9 -8 11 -3 5 22 -8 40 3 41 41 1 35 -37 129 -92 147 -86 6 2 -13
16 -44 31 -107 50 -175 156 -119 186 16 9 22 6 35 -20 22 -42 27 -37 10 9 -20
58 -4 76 61 68 43 -4 47 -4 29 9 -31 23 -74 17 -119 -17 l-41 -31 44 41 c71
66 139 71 205 13 22 -20 19 -11 -13 41 -20 32 -28 37 -59 37 -21 0 -61 -11
-91 -25 -30 -14 -62 -23 -72 -20 -29 9 -47 49 -53 114 -3 33 -15 79 -26 100
-11 22 -20 51 -20 65 0 42 -19 39 -40 -6z"></path>
<path class="node" id="node7" d="M758 2050 c10 -11 24 -38 30 -59 13 -42 89 -123 133 -141 22 -10 38
-9 78 5 59 19 82 11 101 -35 7 -16 16 -30 21 -30 15 0 10 39 -8 68 -34 52
-144 154 -186 171 -50 22 -107 34 -107 23 0 -16 59 -100 81 -115 33 -23 38
-10 7 16 -28 23 -48 57 -48 79 1 7 18 -6 38 -30 33 -37 43 -42 73 -40 28 3 34
0 34 -17 0 -14 -9 -22 -30 -26 l-30 -7 30 -1 c32 -1 63 -16 54 -25 -3 -3 -27
-9 -52 -12 -66 -9 -114 24 -156 107 -17 34 -31 68 -31 76 0 7 -11 13 -25 13
-25 0 -26 0 -7 -20z"></path>
<path class="node" id="node8" d="M1622 2042 c1 -47 -44 -124 -88 -149 -39 -22 -114 -31 -114 -14 0 5
28 25 63 43 89 49 143 138 84 138 -30 0 -40 -10 -27 -25 20 -24 -8 -70 -56
-93 -56 -28 -64 -27 -64 1 0 20 4 23 28 19 30 -4 55 16 66 56 8 26 -3 28 -48
9 -19 -8 -39 -31 -56 -62 -15 -28 -38 -56 -52 -63 -15 -7 -33 -29 -42 -52 -21
-53 -21 -54 10 -23 24 24 30 25 97 20 53 -5 79 -2 104 10 42 19 91 85 105 141
6 23 13 42 17 42 4 0 16 7 27 15 18 13 17 14 -18 15 -34 0 -37 -2 -36 -28z"></path>
<path class="node" id="node9" d="M330 2037 c-39 -16 -76 -43 -128 -95 -74 -73 -90 -103 -34 -63 31 21
62 28 62 13 0 -5 -22 -28 -50 -51 -63 -53 -78 -96 -61 -177 19 -96 15 -117
-39 -211 -52 -91 -74 -145 -67 -166 2 -6 13 6 25 28 25 47 79 111 87 103 3 -2
-8 -23 -25 -46 -59 -82 -100 -219 -100 -332 l1 -45 22 66 c24 70 64 125 111
153 38 22 41 16 16 -26 -11 -19 -31 -66 -44 -104 -13 -38 -35 -96 -50 -128
-14 -33 -24 -61 -21 -64 11 -11 78 54 140 135 91 121 120 135 92 46 -9 -26
-21 -84 -27 -128 -16 -106 -28 -133 -85 -183 -26 -23 -43 -42 -37 -42 20 0
113 52 148 82 29 26 34 28 34 11 0 -84 -96 -288 -165 -352 -71 -66 -29 -50 79
28 49 36 58 53 137 231 13 30 40 72 59 94 37 41 131 109 168 120 23 8 22 9
-26 60 -48 50 -50 56 -67 150 -16 90 -21 101 -55 135 -42 42 -60 90 -60 166
-1 78 -17 33 -25 -70 l-8 -90 -20 65 c-11 37 -22 105 -24 157 -4 79 -1 97 17
133 29 57 19 62 -19 9 -23 -32 -31 -37 -31 -22 0 41 29 114 68 173 40 59 40
70 1 50 -10 -6 -19 -7 -19 -3 0 17 80 137 109 164 17 15 31 33 31 38 0 18 -61
11 -120 -12z"></path>
<path class="node" id="node10" d="M1701 1993 c-11 -38 -26 -90 -31 -117 -24 -109 -57 -128 -155 -86
-26 11 -64 20 -85 20 -35 0 -43 -5 -75 -46 -48 -64 -44 -77 8 -26 34 33 50 42
78 42 47 0 96 -34 135 -94 18 -26 36 -48 40 -48 5 0 30 39 56 88 41 76 48 97
48 147 0 44 3 57 15 57 8 0 15 -9 15 -21 0 -11 5 -17 10 -14 25 15 -1 165 -28
165 -5 0 -19 -30 -31 -67z"></path>
<path class="node" id="node11" d="M1227 2040 c-3 -8 -11 -32 -17 -53 -7 -21 -24 -47 -40 -58 -27 -20
-27 -22 -10 -39 23 -23 40 -101 41 -193 l2 -72 8 75 c11 93 33 154 66 180 l26
20 -27 29 c-18 19 -30 45 -35 77 -4 27 -10 42 -14 34z"></path>
<path class="node" id="node12" d="M2288 1813 c-2 -4 -5 -45 -7 -89 -2 -74 0 -84 21 -106 81 -84 131
-169 168 -280 12 -38 24 -68 27 -68 10 0 -7 123 -28 201 -11 43 -32 92 -45
110 -30 41 -20 54 11 14 13 -16 27 -27 30 -23 3 3 -23 43 -57 89 -35 46 -75
101 -89 122 -15 21 -29 35 -31 30z"></path>
<path class="node" id="node13" d="M1440 1728 c-16 -7 -20 -12 -12 -15 8 -3 19 0 25 6 6 6 19 11 29 11
28 0 34 -47 13 -105 -28 -79 -28 -82 -6 -55 11 14 25 46 32 73 6 26 15 47 20
47 5 0 9 -4 9 -10 0 -5 4 -10 10 -10 17 0 0 25 -33 48 -37 24 -50 26 -87 10z"></path>
<path class="node" id="node14" d="M1581 1612 c-2 -51 -56 -115 -135 -162 -22 -13 -34 -26 -27 -28 16
-5 55 22 119 81 53 51 61 48 41 -14 -13 -38 -63 -96 -92 -105 -17 -5 -17 -6
-1 -19 16 -11 15 -14 -16 -30 -50 -26 -148 -32 -188 -11 -25 13 -32 23 -32 46
0 26 7 33 61 61 34 17 72 41 85 54 29 29 33 61 7 50 -10 -4 -38 -11 -63 -15
-25 -5 -62 -16 -82 -25 -30 -15 -43 -16 -75 -7 -53 15 -165 56 -180 65 -35 22
7 -46 57 -91 14 -13 42 -35 63 -48 29 -19 37 -31 37 -54 0 -25 -5 -30 -37 -39
-106 -27 -128 -24 -208 28 l-50 32 35 -4 34 -4 -23 16 c-13 9 -41 32 -63 52
-21 20 -38 33 -38 29 0 -5 13 -37 30 -72 16 -34 30 -74 30 -88 0 -14 9 -63 19
-110 11 -47 22 -116 26 -155 4 -38 15 -82 23 -97 15 -25 22 -28 72 -29 30 0
107 -4 170 -8 178 -11 228 11 237 106 3 26 16 75 29 109 13 34 26 88 30 120 6
56 17 80 76 166 10 15 26 49 36 75 17 42 17 54 7 98 -7 28 -13 40 -14 27z
m-306 -302 c13 -6 -8 -9 -65 -9 -58 -1 -80 2 -70 9 18 12 107 12 135 0z m-269
-33 c11 -13 7 -117 -5 -117 -3 0 -17 28 -31 62 -14 35 -27 67 -29 72 -5 12 52
-3 65 -17z m424 5 c0 -24 -42 -105 -57 -110 -10 -3 -13 13 -13 56 0 63 5 70
48 71 15 1 22 -5 22 -17z m-81 -77 l10 -69 -34 -47 c-24 -32 -44 -48 -65 -52
-18 -4 -30 -13 -30 -23 0 -13 -7 -15 -39 -9 -23 4 -48 2 -60 -5 -12 -6 -21 -7
-21 -2 0 17 25 30 65 35 37 4 36 5 -10 5 -110 1 -105 -1 -125 45 -15 34 -18
57 -13 120 5 62 9 77 20 73 8 -4 36 -6 63 -6 54 0 50 5 71 -95 l13 -60 7 57
c3 32 12 65 19 73 15 18 102 46 112 36 4 -3 12 -38 17 -76z m-369 -46 c0 -11
-4 -17 -10 -14 -5 3 -10 15 -10 26 0 11 5 17 10 14 6 -3 10 -15 10 -26z m420
-8 c0 -6 -4 -13 -10 -16 -5 -3 -10 1 -10 9 0 9 5 16 10 16 6 0 10 -4 10 -9z
m-366 -85 c22 -67 20 -76 -9 -76 -30 0 -45 31 -45 94 0 76 25 68 54 -18z m332
3 c-9 -56 -23 -79 -46 -79 -33 0 -23 56 18 103 25 29 35 20 28 -24z m-269 -65
c-9 -9 -28 6 -21 18 4 6 10 6 17 -1 6 -6 8 -13 4 -17z m168 5 c-10 -15 -25
-10 -19 6 4 8 10 12 15 9 5 -3 7 -10 4 -15z"></path>
<path class="node" id="node15" d="M2201 1506 c-84 -116 -215 -229 -290 -251 -25 -8 -25 -11 -5 54 3 11
-19 -5 -51 -36 -56 -55 -141 -103 -182 -103 -18 0 -23 7 -29 46 l-7 46 -20
-60 c-20 -62 -57 -113 -89 -125 -19 -7 -25 -27 -8 -27 6 0 22 -11 35 -25 35
-34 35 -114 0 -180 -14 -26 -24 -49 -22 -52 3 -2 25 24 50 59 60 84 116 136
153 144 44 9 59 -15 59 -95 0 -54 -6 -76 -30 -119 -16 -30 -42 -65 -58 -78
-45 -38 -23 -41 46 -7 59 29 184 131 214 173 30 43 31 17 1 -32 -60 -99 -202
-227 -367 -329 -82 -52 -147 -97 -145 -100 2 -3 29 2 61 11 32 10 112 30 178
45 190 42 283 79 366 143 71 55 72 55 65 26 -10 -40 -61 -121 -105 -168 -53
-56 -6 -29 69 40 73 68 119 144 161 264 35 101 59 131 85 109 28 -23 13 -111
-31 -192 -21 -37 -35 -70 -32 -73 9 -9 60 61 88 122 53 114 77 359 45 472 -8
28 -10 50 -5 46 17 -10 47 -79 64 -145 24 -93 39 -100 30 -14 -8 84 -44 210
-89 308 -37 79 -112 187 -132 187 -6 0 -39 -38 -73 -84z"></path>
<path class="node" id="node16" d="M1572 1405 c-45 -59 -51 -73 -56 -128 -12 -133 -13 -167 -6 -167 11
0 49 98 57 144 3 23 12 46 19 51 12 10 48 154 40 162 -2 2 -27 -25 -54 -62z"></path>
<path class="node" id="node17" d="M2501 1244 c0 -11 3 -14 6 -6 3 7 2 16 -1 19 -3 4 -6 -2 -5 -13z"></path>
<path class="node" id="node18" d="M641 1125 c-46 -53 -41 -76 30 -148 71 -72 99 -124 99 -187 0 -83
-15 -115 -94 -211 -81 -99 -92 -129 -23 -62 42 41 128 93 153 93 20 0 17 -22
-13 -95 -14 -36 -24 -68 -20 -71 12 -12 64 15 169 88 83 59 125 81 191 102 47
14 88 26 91 26 16 0 -13 -36 -66 -80 -33 -28 -54 -50 -47 -50 13 0 164 80 214
114 119 81 188 167 207 258 12 56 11 58 -19 100 -16 24 -35 57 -41 73 l-10 30
-1 -37 c-1 -20 -5 -40 -11 -43 -5 -3 -10 -24 -10 -46 0 -21 -4 -39 -8 -39 -5
0 -12 -19 -18 -42 -9 -42 -34 -65 -34 -31 0 11 -8 4 -23 -21 -26 -46 -53 -62
-42 -25 7 22 5 22 -26 -7 -34 -32 -89 -64 -109 -64 -6 0 -3 11 6 25 18 28 9
32 -23 10 -11 -8 -33 -19 -47 -25 -25 -9 -26 -8 -19 17 l6 27 -26 -17 c-34
-22 -41 -21 -34 3 7 26 -1 25 -30 -2 -19 -18 -26 -20 -32 -9 -7 10 -13 11 -30
2 -20 -11 -21 -10 -21 36 l-1 48 -25 -30 -26 -30 5 35 c3 19 8 46 13 59 6 21
5 23 -11 18 -14 -6 -16 -4 -9 10 4 10 9 37 12 61 3 35 0 48 -19 68 -12 13 -28
24 -35 24 -8 0 -11 6 -8 14 3 8 -3 16 -15 19 -24 6 -28 27 -5 27 8 0 12 5 9
10 -3 6 -37 10 -75 10 -65 0 -69 -1 -99 -35z"></path>
<path class="node" id="node19" d="M560 875 c-83 -50 -163 -139 -185 -205 -30 -92 -65 -157 -109 -205
-23 -25 -39 -45 -34 -45 28 0 80 34 121 80 57 63 61 56 8 -14 -80 -106 -107
-192 -98 -325 3 -47 10 -97 15 -111 9 -21 11 -14 11 43 1 104 48 185 155 265
71 54 71 9 0 -102 -64 -101 -61 -114 11 -37 60 64 144 102 230 104 103 3 108
-21 20 -86 l-40 -29 40 7 c101 18 330 79 390 105 60 25 129 68 208 128 36 27
57 38 57 29 0 -14 -52 -65 -116 -115 l-29 -23 34 6 c78 12 209 88 369 213 77
61 104 92 65 78 -9 -4 -36 -10 -60 -13 l-43 -6 0 35 c0 21 14 62 35 101 19 36
35 68 35 71 0 3 -21 -16 -47 -43 -52 -53 -94 -71 -125 -52 -10 6 -18 7 -18 2
0 -5 -21 -32 -46 -60 -68 -75 -188 -150 -312 -195 -120 -43 -132 -36 -64 38
18 20 29 36 24 36 -11 0 -91 -53 -117 -78 -137 -127 -292 -131 -215 -4 11 17
17 32 14 32 -4 0 -27 -15 -53 -34 -50 -36 -114 -61 -131 -51 -24 15 -9 58 39
111 72 82 103 144 104 212 1 33 -5 68 -13 82 -14 24 -14 23 -22 -34 -12 -91
-58 -150 -98 -126 -27 17 1 147 47 215 30 44 16 44 -57 0z"></path>
</g>
<g transform="translate(0.000000,300.000000) scale(0.100000,-0.100000)" fill="#F6CF61" stroke="none">

<path class="node" id="node21" d="M717 2665 c-21 -7 -40 -15 -42 -17 -34 -36 -80 -110 -86 -138 -12
-51 -11 -182 2 -219 13 -38 37 -41 37 -5 0 15 5 30 12 34 16 10 4 30 -18 30
-13 0 -12 3 6 16 12 8 22 21 22 28 0 15 21 26 52 26 43 0 -3 100 -54 116 -27
8 -22 21 13 33 44 15 129 13 159 -4 33 -19 46 -19 30 0 -22 27 2 16 46 -21 24
-19 44 -33 44 -29 0 3 -12 31 -27 61 -48 99 -102 123 -196 89z"></path>
<path class="node" id="node22" d="M1705 2690 c-46 -10 -70 -26 -103 -67 -56 -73 -65 -106 -21 -83 19
11 21 10 16 -4 -11 -28 32 -19 64 13 16 16 32 44 35 61 4 17 12 29 18 27 15
-5 63 -89 77 -137 l13 -42 18 24 c18 23 18 23 18 -30 0 -37 3 -51 11 -46 16
10 2 -46 -17 -67 -17 -19 -7 -32 16 -19 20 11 31 4 23 -16 -3 -8 0 -14 6 -14
6 0 8 -7 5 -15 -13 -32 18 -13 32 20 10 26 13 54 8 103 -18 204 -105 319 -219
292z"></path>
<path class="node" id="node23" d="M1140 1310 c-10 -7 12 -10 70 -9 57 0 78 3 65 9 -28 12 -117 12 -135
0z"></path>
<path class="node" id="node24" d="M941 1294 c2 -5 15 -37 29 -72 14 -34 28 -62 31 -62 12 0 16 104 5
117 -13 14 -70 29 -65 17z"></path>
<path class="node" id="node25" d="M1373 1293 c-9 -3 -13 -26 -13 -65 0 -43 3 -59 13 -56 15 5 57 86 57
110 0 18 -28 23 -57 11z"></path>
<path class="node" id="node26" d="M1279 1274 c-59 -18 -70 -32 -78 -102 l-7 -57 -13 60 c-21 100 -17
95 -71 95 -27 0 -55 2 -63 6 -11 4 -15 -11 -20 -73 -5 -63 -2 -86 13 -120 20
-46 15 -44 125 -45 46 0 47 -1 10 -5 -40 -5 -65 -18 -65 -35 0 -5 9 -4 21 2
12 7 37 9 60 5 32 -6 39 -4 39 9 0 10 12 19 30 23 21 4 41 20 65 52 l34 47
-10 69 c-5 38 -13 73 -17 76 -4 4 -28 1 -53 -7z"></path>
<path class="node" id="node27" d="M960 1171 c0 -11 5 -23 10 -26 6 -3 10 3 10 14 0 11 -4 23 -10 26 -5
3 -10 -3 -10 -14z"></path>
<path class="node" id="node28" d="M1380 1144 c0 -8 5 -12 10 -9 6 3 10 10 10 16 0 5 -4 9 -10 9 -5 0
-10 -7 -10 -16z"></path>
<path class="node" id="node29" d="M987 1134 c-10 -11 -8 -89 3 -118 7 -19 17 -26 35 -26 29 0 31 9 9
76 -18 52 -36 79 -47 68z"></path>
<path class="node" id="node30" d="M1338 1093 c-41 -47 -51 -103 -18 -103 23 0 37 23 46 79 7 44 -3 53
-28 24z"></path>
<path class="node" id="node31" d="M1076 1022 c-3 -6 -1 -14 5 -17 15 -10 25 3 12 16 -7 7 -13 7 -17 1z"></path>
<path class="node" id="node32" d="M1246 1015 c-3 -8 -1 -15 4 -15 13 0 22 18 11 24 -5 3 -11 -1 -15 -9z"></path>
</g>
</svg>