<!--?xml version="1.0" standalone="no"?-->

<svg version="1.0" xmlns="http://www.w3.org/2000/svg" width="300.000000pt" height="272.000000pt" viewBox="0 0 300.000000 272.000000" preserveAspectRatio="xMidYMid meet">
<g transform="translate(0.000000,272.000000) scale(0.100000,-0.100000)" fill="#111111" stroke="none">
<path class="node" id="node1" d="M913 2709 c-30 -11 -55 -52 -55 -91 0 -18 7 -61 16 -94 9 -34 16 -83
16 -109 0 -115 -132 -142 -215 -43 -20 23 -25 41 -25 81 0 29 7 65 15 81 9 16
13 31 10 34 -7 7 -71 -44 -94 -76 -24 -34 -61 -166 -61 -217 0 -41 -15 -45
-55 -13 -32 25 -75 111 -75 150 0 47 -16 39 -33 -16 -34 -107 -13 -206 55
-258 56 -43 159 -72 229 -65 171 18 293 120 319 265 11 59 10 80 -9 178 -24
123 -19 164 20 164 17 0 19 3 10 14 -16 19 -42 25 -68 15z"></path>
<path class="node" id="node2" d="M1965 2690 c-19 -21 -19 -21 8 -15 22 6 28 3 39 -19 10 -22 8 -45
-12 -131 -33 -149 -19 -236 50 -324 45 -57 130 -104 222 -123 46 -10 71 -9
120 1 177 36 248 143 203 306 -17 66 -35 86 -35 40 0 -43 -40 -133 -71 -160
-46 -38 -56 -33 -63 35 -15 128 -54 211 -119 250 -17 11 -32 18 -34 16 -2 -2
3 -16 12 -32 8 -16 15 -52 15 -80 0 -61 -22 -94 -81 -124 -56 -29 -95 -26
-131 10 -28 28 -29 35 -26 88 3 31 11 90 18 130 13 69 13 76 -5 110 -17 31
-26 38 -56 40 -26 2 -40 -3 -54 -18z"></path>
<path class="node" id="node3" d="M960 2625 c0 -56 61 -76 230 -74 129 2 172 -13 234 -82 24 -27 47
-49 51 -49 4 0 27 22 51 49 62 69 105 84 234 82 138 -1 208 13 222 45 15 32 5
39 -26 19 -42 -28 -129 -30 -249 -5 -78 16 -124 20 -160 16 -29 -4 -61 -7 -72
-7 -11 0 -43 3 -72 7 -36 4 -82 0 -160 -16 -128 -26 -206 -23 -253 10 -26 18
-30 19 -30 5z"></path>
<path class="node" id="node4" d="M1288 2451 c22 -17 54 -50 71 -74 58 -85 73 -147 108 -437 8 -69 19
-30 33 115 20 210 64 318 159 392 l46 36 -43 -6 c-59 -7 -117 -48 -155 -109
-27 -44 -33 -48 -42 -33 -51 88 -125 145 -189 145 l-29 0 41 -29z"></path>
<path class="node" id="node5" d="M1128 2362 c-49 -83 -84 -159 -147 -322 -71 -181 -67 -237 25 -317
31 -26 68 -68 82 -93 l27 -45 3 39 c2 28 -3 48 -22 76 -14 21 -22 40 -19 44 9
9 60 -22 82 -50 26 -33 29 -117 6 -171 -8 -20 -14 -38 -12 -40 2 -2 16 6 30
18 42 32 78 102 84 161 7 73 -22 122 -117 201 -41 34 -81 74 -89 89 -14 24
-14 28 3 47 27 29 54 27 67 -6 l11 -28 19 24 c24 29 25 76 2 209 -16 98 -16
107 0 169 9 36 16 68 14 69 -2 2 -24 -31 -49 -74z m-73 -482 c36 -22 111 -108
102 -117 -8 -7 -93 34 -134 64 -22 16 -33 32 -33 49 0 30 21 31 65 4z"></path>
<path class="node" id="node6" d="M1774 2420 c24 -96 26 -126 11 -223 -20 -135 -19 -179 4 -208 l19
-24 11 28 c13 34 45 36 67 2 15 -23 15 -27 1 -49 -9 -13 -50 -52 -91 -86 -93
-77 -121 -128 -113 -202 7 -56 44 -126 84 -157 14 -12 28 -20 29 -18 2 2 -6
28 -17 58 -32 83 -14 148 53 189 44 26 52 16 23 -28 -16 -24 -25 -51 -25 -76
l0 -39 29 44 c16 24 52 63 79 86 55 47 82 94 82 142 0 78 -154 449 -230 556
-21 28 -22 29 -16 5z m184 -543 c2 -10 -3 -26 -12 -36 -20 -22 -145 -86 -152
-78 -9 9 57 87 96 113 39 27 63 27 68 1z"></path>
<path class="node" id="node7" d="M1239 2225 c-35 -78 -43 -139 -29 -217 13 -71 65 -177 115 -235 l32
-38 0 55 c-1 40 7 71 26 114 16 35 27 75 26 100 l-1 41 -12 -35 c-7 -19 -20
-36 -30 -38 -47 -9 -87 80 -95 213 l-6 100 -26 -60z"></path>
<path class="node" id="node8" d="M1679 2189 c-4 -80 -9 -105 -34 -155 -24 -48 -35 -59 -54 -59 -19 0
-27 8 -37 35 l-12 35 -1 -43 c-1 -27 8 -61 24 -92 19 -37 25 -66 25 -112 l1
-63 35 40 c19 22 53 78 76 124 40 79 42 87 42 170 -1 76 -5 96 -31 152 l-30
64 -4 -96z"></path>
<path class="node" id="node9" d="M2013 2137 c8 -18 33 -63 55 -100 129 -212 313 -383 516 -477 111
-53 182 -70 301 -76 l100 -4 -45 16 c-137 47 -238 91 -288 125 -66 44 -92 64
-92 71 0 3 25 18 55 32 65 32 135 108 164 178 11 26 16 48 11 48 -6 0 -30 -15
-54 -34 -69 -52 -128 -71 -223 -71 -50 1 -87 5 -95 13 -9 9 -7 13 8 17 132 42
224 144 224 250 0 25 -3 45 -7 45 -5 0 -26 -18 -47 -40 -46 -47 -124 -86 -197
-100 -103 -20 -246 22 -352 103 l-47 37 13 -33z"></path>
<path class="node" id="node10" d="M290 1994 c0 -79 59 -157 149 -197 59 -26 41 -42 -47 -41 -71 1 -123
21 -191 73 l-34 25 8 -24 c23 -74 86 -146 155 -176 l42 -19 -36 -31 c-44 -38
-134 -83 -235 -118 -41 -14 -77 -29 -80 -32 -13 -14 146 8 223 30 97 29 129
44 219 104 126 84 277 254 346 390 21 41 16 57 -9 27 -23 -28 -116 -74 -180
-89 -103 -24 -190 -2 -277 71 l-53 45 0 -38z"></path>
<path class="node" id="node11" d="M802 1866 c-44 -50 -59 -83 -73 -157 -10 -55 -9 -78 5 -149 19 -93
81 -221 144 -299 l36 -43 24 28 c13 16 38 58 54 94 55 117 48 249 -16 309
l-24 23 -7 -50 c-9 -67 -24 -87 -59 -78 -20 5 -33 20 -52 59 -29 63 -33 182
-8 242 22 54 13 63 -24 21z"></path>
<path class="node" id="node12" d="M2110 1894 c0 -6 7 -31 15 -54 38 -107 2 -280 -61 -296 -35 -9 -50
11 -59 77 -4 27 -10 49 -15 49 -4 0 -20 -19 -36 -42 -27 -40 -29 -50 -29 -138
0 -91 2 -98 38 -167 21 -39 47 -79 56 -87 17 -15 20 -14 53 26 138 171 189
393 123 532 -19 40 -84 116 -85 100z"></path>
<path class="node" id="node13" d="M1332 1682 c9 -24 7 -37 -16 -83 -14 -30 -42 -79 -61 -109 -38 -59
-46 -112 -21 -145 13 -18 14 -17 21 13 3 17 27 62 52 99 78 116 92 176 52 227
-27 34 -40 33 -27 -2z"></path>
<path class="node" id="node14" d="M1591 1684 c-25 -32 -28 -92 -6 -134 8 -16 33 -55 55 -87 22 -31 45
-75 51 -97 10 -38 12 -39 25 -21 29 39 14 106 -41 180 -45 60 -67 116 -60 151
7 41 3 42 -24 8z"></path>
<path class="node" id="node15" d="M662 1581 c-7 -21 -12 -69 -12 -107 0 -81 10 -103 105 -231 87 -118
123 -190 137 -273 7 -39 15 -70 19 -70 4 0 12 23 18 50 19 87 -11 174 -107
317 -33 48 -71 112 -86 140 -29 58 -60 178 -52 199 3 8 2 14 -3 14 -4 0 -13
-17 -19 -39z"></path>
<path class="node" id="node16" d="M2257 1554 c-8 -80 -34 -138 -122 -274 -95 -147 -118 -201 -118 -280
-1 -38 5 -75 13 -90 14 -25 14 -24 21 26 14 106 42 168 141 303 92 125 108
160 108 240 0 63 -17 141 -30 141 -4 0 -10 -30 -13 -66z"></path>
<path class="node" id="node17" d="M385 1511 c-103 -40 -191 -89 -246 -138 -48 -44 -134 -161 -124 -171
2 -3 20 7 39 21 18 15 87 54 152 88 167 87 229 132 260 191 25 47 20 48 -81 9z"></path>
<path class="node" id="node18" d="M2470 1535 c0 -16 32 -64 62 -91 48 -45 79 -64 213 -134 66 -34 134
-74 153 -88 18 -13 34 -23 37 -21 2 3 -13 32 -34 64 -68 109 -180 189 -348
249 -74 27 -83 29 -83 21z"></path>
<path class="node" id="node19" d="M1078 1419 c4 -51 0 -62 -44 -144 l-47 -88 19 -35 c26 -49 79 -74
146 -70 l53 3 -37 23 c-43 27 -78 78 -78 114 0 14 7 45 15 68 22 63 19 120 -9
154 l-23 30 5 -55z"></path>
<path class="node" id="node20" d="M1843 1433 c-21 -32 -21 -93 1 -145 9 -21 16 -49 16 -64 0 -39 -36
-90 -83 -119 l-42 -25 58 0 c96 0 157 40 157 103 0 16 -17 62 -39 101 -46 84
-54 116 -41 150 13 35 -4 34 -27 -1z"></path>
<path class="node" id="node21" d="M498 1382 c-30 -65 -87 -151 -193 -292 -97 -129 -110 -153 -136 -245
-23 -85 -22 -177 2 -260 l11 -40 25 85 c31 107 76 211 143 325 100 171 116
200 138 254 24 60 45 165 40 204 -3 23 -6 19 -30 -31z"></path>
<path class="node" id="node22" d="M2424 1373 c10 -116 40 -190 163 -397 88 -148 146 -285 168 -395 11
-51 23 -21 36 90 11 87 10 100 -10 174 -24 85 -57 141 -203 338 -43 57 -96
139 -119 183 l-41 79 6 -72z"></path>
<path class="node" id="node23" d="M1255 1297 c-49 -29 -49 -29 23 -63 72 -33 166 -110 177 -145 8 -25
32 -24 40 1 11 33 107 112 179 146 l70 32 -35 21 c-41 25 -132 28 -194 6 -34
-12 -45 -12 -83 0 -50 17 -148 18 -177 2z"></path>
<path class="node" id="node24" d="M620 1216 c0 -26 -73 -156 -163 -293 -106 -160 -128 -214 -130 -308
-2 -78 10 -165 22 -165 4 0 16 28 25 62 22 80 59 161 148 321 38 70 78 154 89
187 23 75 36 210 20 210 -6 0 -11 -7 -11 -14z"></path>
<path class="node" id="node25" d="M2310 1190 c0 -90 30 -193 88 -300 108 -202 153 -296 174 -368 28
-95 41 -81 46 49 6 131 -13 181 -130 359 -49 74 -107 172 -130 218 -22 45 -42
82 -44 82 -2 0 -4 -18 -4 -40z"></path>
<path class="node" id="node26" d="M1220 1186 c0 -39 46 -109 105 -159 79 -67 85 -75 85 -115 0 -78 -60
-126 -158 -127 -58 0 -66 3 -88 28 -25 29 -32 71 -14 82 22 14 8 23 -22 14
-59 -16 -75 -67 -39 -125 50 -82 242 -86 362 -8 26 16 28 16 58 -6 69 -49 219
-67 295 -35 87 37 102 162 21 177 -26 5 -43 -6 -25 -17 17 -10 11 -51 -10 -78
-43 -54 -152 -48 -212 13 -63 63 -52 117 39 189 60 47 113 122 113 157 0 19
-14 9 -78 -55 -93 -93 -141 -115 -213 -97 -54 14 -104 51 -170 125 -35 40 -49
51 -49 37z"></path>
<path class="node" id="node27" d="M1895 1040 c-30 -33 -62 -47 -138 -58 -70 -11 -127 -37 -135 -61 -3
-9 3 -8 22 4 17 11 58 20 120 24 122 10 163 34 154 91 l-3 22 -20 -22z"></path>
<path class="node" id="node28" d="M1032 1023 c5 -46 46 -65 151 -73 93 -7 130 -18 141 -42 3 -7 5 -4 3
6 -3 29 -56 56 -134 68 -72 11 -111 26 -132 52 -20 24 -33 19 -29 -11z"></path>
<path class="node" id="node29" d="M726 938 c-17 -38 -104 -170 -152 -233 -46 -60 -64 -116 -64 -197 0
-117 8 -122 45 -26 17 46 58 133 92 194 73 132 106 218 101 266 l-3 35 -19
-39z"></path>
<path class="node" id="node30" d="M2203 924 c5 -63 25 -111 123 -294 28 -52 62 -125 75 -162 28 -80 37
-70 38 42 1 92 -11 120 -107 256 -40 56 -86 128 -103 160 l-31 59 5 -61z"></path>
<path class="node" id="node31" d="M960 942 c0 -37 -50 -133 -107 -205 -98 -124 -115 -157 -121 -238 -5
-68 12 -159 29 -159 5 0 9 20 9 45 0 69 72 225 104 225 7 0 12 -30 13 -83 3
-117 50 -236 113 -284 21 -16 22 -11 5 25 -39 77 -39 178 0 360 21 100 19 166
-6 243 -21 62 -39 96 -39 71z"></path>
<path class="node" id="node32" d="M1974 935 c-4 -11 -16 -42 -27 -70 -22 -57 -26 -161 -9 -215 6 -19
19 -77 28 -129 17 -105 13 -171 -17 -240 -11 -24 -18 -46 -16 -48 3 -2 20 14
39 35 52 58 90 165 92 263 1 91 11 98 50 38 36 -53 56 -111 65 -179 6 -54 7
-55 21 -30 10 17 15 54 15 110 0 100 -16 138 -101 245 -70 87 -91 123 -114
187 -15 43 -20 49 -26 33z"></path>
<path class="node" id="node33" d="M1320 677 c-117 -35 -192 -91 -224 -169 -18 -42 -22 -153 -6 -163 6
-3 10 2 10 13 0 39 62 143 102 173 22 16 44 26 49 24 4 -3 2 -22 -4 -43 -32
-95 -6 -143 148 -276 84 -73 171 -168 181 -198 10 -32 24 -9 24 39 0 64 -28
114 -110 203 -65 69 -89 105 -104 155 -7 25 24 78 59 101 26 17 29 17 59 0 18
-9 40 -31 50 -47 15 -25 16 -35 6 -67 -7 -20 -26 -54 -42 -76 l-31 -38 36 -36
36 -35 59 51 c88 77 115 144 88 222 -8 24 -13 46 -10 49 10 10 77 -34 102 -68
15 -18 36 -63 48 -99 l21 -66 7 52 c19 146 -81 258 -275 306 -90 22 -188 20
-279 -7z"></path>
<path class="node" id="node34" d="M1376 175 c-21 -33 -31 -112 -17 -145 6 -17 10 -19 10 -8 1 10 22 43
48 74 l46 57 -27 24 c-34 29 -40 29 -60 -2z"></path>
</g>
<g transform="translate(0.000000,272.000000) scale(0.100000,-0.100000)" fill="#A1A1A1" stroke="none">

<path class="node" id="node36" d="M990 1876 c0 -17 11 -33 33 -49 41 -30 126 -71 134 -64 9 9 -66 95
-102 117 -44 27 -65 26 -65 -4z"></path>
<path class="node" id="node37" d="M1890 1876 c-39 -26 -105 -104 -96 -113 7 -8 132 56 152 78 19 21 15
53 -6 57 -8 1 -31 -8 -50 -22z"></path>
</g>
</svg>