<!--?xml version="1.0" standalone="no"?-->

<svg version="1.0" xmlns="http://www.w3.org/2000/svg" width="219.000000pt" height="300.000000pt" viewBox="0 0 219.000000 300.000000" preserveAspectRatio="xMidYMid meet">
<g transform="translate(0.000000,300.000000) scale(0.100000,-0.100000)" fill="#1A1A1A" stroke="none">
<path class="node" id="node1" d="M1135 2819 c-20 -18 -48 -53 -62 -78 -15 -25 -28 -48 -30 -50 -2 -3
-17 9 -35 25 -24 23 -29 25 -23 9 4 -11 16 -41 25 -68 9 -26 19 -50 22 -52 3
-3 22 31 42 76 20 44 55 101 78 125 47 51 36 59 -17 13z"></path>
<path class="node" id="node2" d="M1265 2734 c-21 -8 -50 -24 -63 -37 l-25 -22 6 33 c4 18 2 32 -3 32
-26 0 -90 -75 -121 -142 -30 -66 -34 -82 -34 -163 0 -81 3 -95 30 -144 17 -30
37 -57 45 -59 11 -4 10 1 -4 23 -37 57 -28 206 21 312 l17 38 3 -30 c7 -58 12
-60 47 -22 41 45 60 49 45 10 -47 -120 -69 -199 -69 -250 0 -62 10 -62 30 2 7
22 52 119 101 215 48 96 90 185 94 198 6 20 3 22 -37 21 -24 0 -61 -7 -83 -15z"></path>
<path class="node" id="node3" d="M813 2647 c-11 -12 -26 -32 -32 -44 -6 -13 -21 -23 -32 -23 -19 0
-104 -39 -97 -44 1 -2 42 -6 89 -10 l87 -6 4 73 c3 39 4 73 3 74 -1 2 -11 -7
-22 -20z"></path>
<path class="node" id="node4" d="M936 2637 c-12 -13 -34 -51 -47 -85 -22 -58 -26 -62 -49 -56 -67 18
-99 20 -126 9 l-29 -12 53 -11 c70 -16 154 -74 231 -161 35 -39 66 -71 70 -71
4 0 -11 37 -33 82 l-41 81 0 124 c0 67 -1 123 -3 123 -2 0 -13 -10 -26 -23z"></path>
<path class="node" id="node5" d="M1515 2586 c-61 -19 -105 -44 -162 -93 -51 -43 -133 -155 -133 -182
0 -7 30 16 66 52 36 37 86 78 112 92 46 26 65 28 37 5 -28 -24 -12 -50 31 -50
20 0 144 -61 144 -71 0 -5 -32 -26 -72 -46 -39 -21 -93 -57 -119 -81 l-47 -43
-40 20 c-70 36 -124 45 -165 27 -49 -20 -49 -38 0 -24 60 16 126 5 173 -30 91
-67 182 -201 196 -290 13 -85 -25 -199 -62 -185 -14 5 -16 17 -10 80 3 40 3
73 1 73 -11 0 -55 -115 -65 -172 -13 -68 -9 -94 22 -156 20 -40 23 -42 35 -26
19 26 72 166 84 225 16 73 7 226 -15 267 -25 47 -103 149 -129 167 -11 8 -19
16 -16 18 30 26 282 79 444 93 44 3 83 8 88 11 13 8 -142 146 -201 180 -32 18
-71 33 -89 33 -18 0 -33 2 -33 4 0 2 16 21 36 42 64 70 64 74 -8 73 -35 0 -81
-6 -103 -13z m-48 -956 c10 0 13 -5 8 -17 -4 -10 -10 -26 -12 -35 -8 -27 -22
-22 -29 10 -3 15 -8 33 -10 40 -7 22 8 37 18 18 5 -9 16 -16 25 -16z"></path>
<path class="node" id="node6" d="M455 2468 c-44 -13 -90 -35 -122 -59 -49 -37 -91 -85 -82 -93 2 -2
45 9 94 24 115 37 306 64 413 59 45 -2 82 -1 82 3 0 14 -57 45 -121 66 -81 27
-168 27 -264 0z"></path>
<path class="node" id="node7" d="M590 2337 c-82 -19 -313 -138 -297 -153 2 -3 58 13 123 35 155 51
205 61 344 68 98 5 124 2 173 -14 31 -11 57 -17 57 -13 0 15 -49 50 -90 65
-61 22 -239 28 -310 12z"></path>
<path class="node" id="node8" d="M1390 2341 c-41 -6 -120 -44 -120 -58 0 -3 28 -3 63 0 62 5 195 55
150 56 -12 1 -27 3 -35 5 -7 2 -33 0 -58 -3z"></path>
<path class="node" id="node9" d="M568 2235 c-102 -37 -130 -51 -186 -98 -50 -41 -109 -114 -100 -123
3 -2 60 33 129 77 68 45 154 97 192 116 37 19 67 35 67 37 0 14 -49 10 -102
-9z"></path>
<path class="node" id="node10" d="M718 2236 c-47 -17 -133 -71 -176 -110 -50 -46 -91 -115 -161 -270
-66 -144 -138 -275 -174 -313 -11 -13 -15 -23 -9 -23 26 0 140 137 192 231 34
61 36 61 16 -2 -8 -24 -24 -89 -36 -144 -47 -211 -73 -312 -96 -374 -13 -35
-22 -66 -19 -69 11 -11 57 32 108 105 31 43 69 96 85 118 89 124 142 220 142
258 0 16 -7 10 -28 -24 -26 -41 -120 -129 -137 -129 -4 0 -6 38 -3 84 4 80 8
92 64 203 32 64 76 144 96 176 21 32 38 60 38 62 0 14 -23 0 -69 -41 -86 -77
-57 -32 47 72 73 74 118 110 179 144 46 25 83 48 83 53 0 12 -102 7 -142 -7z"></path>
<path class="node" id="node11" d="M973 2213 c15 -2 37 -2 50 0 12 2 0 4 -28 4 -27 0 -38 -2 -22 -4z"></path>
<path class="node" id="node12" d="M845 2190 c-45 -15 -75 -33 -121 -77 -75 -71 -104 -138 -111 -258 -4
-70 -1 -93 26 -180 18 -55 38 -109 45 -121 18 -27 105 -114 115 -114 10 0 36
146 35 200 -1 47 -36 130 -55 130 -7 0 -8 -7 -4 -17 21 -50 16 -113 -8 -113
-29 0 -86 81 -101 143 -42 174 64 359 237 412 23 8 33 14 22 14 -11 0 -47 -9
-80 -19z m-52 -612 c-11 -59 -17 -63 -46 -28 -35 41 -34 48 6 53 17 2 35 5 39
5 4 1 5 -13 1 -30z"></path>
<path class="node" id="node13" d="M1590 2190 c0 -5 4 -10 10 -10 12 0 82 -61 77 -67 -3 -2 -37 5 -78
16 -40 12 -75 19 -77 16 -7 -7 -14 -3 118 -65 63 -30 129 -65 147 -78 43 -31
49 -15 22 58 -25 69 -68 113 -126 129 -48 14 -93 14 -93 1z"></path>
<path class="node" id="node14" d="M985 2163 c10 -16 31 -45 47 -65 55 -70 80 -151 86 -272 5 -113 -6
-173 -34 -196 -12 -11 -18 -11 -31 2 -13 13 -13 22 -4 50 17 51 21 101 11 118
-7 11 -10 8 -10 -15 0 -29 -17 -63 -47 -93 -15 -15 -26 -70 -21 -103 4 -32 65
-48 111 -31 21 8 35 8 41 2 26 -26 121 -3 132 32 7 25 -4 77 -24 108 -9 14
-19 48 -22 75 -6 46 -7 48 -14 21 -6 -17 -4 -49 4 -81 18 -76 6 -101 -36 -71
-17 13 -19 27 -18 143 1 148 27 262 75 338 16 25 29 48 29 50 0 12 -72 3 -98
-12 -28 -16 -32 -16 -82 5 -29 12 -66 22 -82 22 l-30 0 17 -27z m117 -48 c31
-12 38 -12 57 2 33 22 35 10 7 -31 -13 -20 -28 -51 -31 -68 l-7 -32 -19 48
c-10 27 -28 59 -40 72 -26 28 -16 30 33 9z"></path>
<path class="node" id="node15" d="M1486 2118 c4 -7 20 -31 34 -53 67 -99 175 -364 221 -540 45 -171 49
-185 61 -185 7 0 9 43 6 143 -5 121 -9 154 -33 222 -15 44 -32 86 -37 93 -8 8
-6 12 6 12 9 0 37 -21 62 -46 25 -25 48 -43 51 -40 12 12 -74 158 -136 227
-70 80 -264 217 -235 167z"></path>
<path class="node" id="node16" d="M821 2084 c-12 -15 -21 -30 -21 -34 0 -5 -16 -24 -35 -43 -43 -43
-50 -80 -9 -48 14 11 41 23 60 27 33 6 34 7 28 44 -4 21 -1 47 5 59 16 30 -3
26 -28 -5z"></path>
<path class="node" id="node17" d="M1353 2083 c3 -10 8 -39 12 -65 5 -41 10 -48 28 -48 12 0 35 -7 51
-15 16 -9 31 -13 33 -11 8 8 -22 46 -40 52 -10 3 -25 23 -34 45 -16 42 -60 78
-50 42z"></path>
<path class="node" id="node18" d="M916 2054 c-9 -8 -16 -22 -16 -30 0 -22 28 -84 37 -84 11 0 35 109
27 121 -8 14 -31 11 -48 -7z"></path>
<path class="node" id="node19" d="M1285 2050 c-8 -13 26 -111 35 -105 4 3 10 19 14 36 9 47 -29 101
-49 69z"></path>
<path class="node" id="node20" d="M1012 2038 c-19 -19 -13 -41 23 -82 l35 -39 0 28 c0 40 -21 105 -35
105 -6 0 -16 -5 -23 -12z"></path>
<path class="node" id="node21" d="M1204 2005 c-7 -19 -14 -49 -13 -67 0 -18 3 -26 6 -18 3 8 19 29 35
46 25 27 28 35 19 53 -17 30 -30 26 -47 -14z"></path>
<path class="node" id="node22" d="M317 1964 c-44 -68 -69 -133 -82 -206 -11 -71 11 -47 109 112 25 41
46 79 46 84 0 6 -19 -8 -41 -29 -37 -36 -41 -37 -34 -15 4 14 18 44 32 68 41
71 18 60 -30 -14z"></path>
<path class="node" id="node23" d="M820 1923 c-14 -10 -34 -25 -44 -35 -19 -17 -19 -18 12 -24 17 -3 33
-12 36 -20 3 -8 20 -14 41 -14 20 0 43 -7 52 -16 24 -23 33 -4 21 44 -11 44
-47 82 -77 82 -9 0 -28 -8 -41 -17z m79 -27 c14 -16 4 -46 -14 -46 -37 0 -60
32 -38 53 11 12 40 8 52 -7z"></path>
<path class="node" id="node24" d="M1320 1920 c-13 -13 -20 -33 -20 -59 0 -40 13 -61 25 -41 3 5 15 10
26 10 11 0 30 10 43 23 12 12 33 27 47 33 l24 11 -35 22 c-44 26 -84 27 -110
1z m55 -20 c8 -27 -1 -40 -30 -40 -27 0 -41 26 -24 46 17 20 47 17 54 -6z"></path>
<path class="node" id="node25" d="M988 1894 c15 -19 30 -34 35 -34 23 0 -14 55 -42 63 -18 4 -17 1 7
-29z"></path>
<path class="node" id="node26" d="M1247 1912 c-16 -18 -23 -42 -12 -42 14 0 64 44 59 52 -9 14 -30 9
-47 -10z"></path>
<path class="node" id="node27" d="M1872 1831 c31 -29 67 -68 78 -87 30 -47 42 -43 24 8 -28 79 -47 97
-134 123 -18 6 -10 -6 32 -44z"></path>
<path class="node" id="node28" d="M702 1795 c6 -66 19 -95 44 -95 20 0 17 40 -7 105 -28 75 -43 72 -37
-10z"></path>
<path class="node" id="node29" d="M1385 1810 c-33 -28 -60 -55 -60 -58 0 -4 9 -34 19 -67 l19 -60 12
50 c16 64 30 101 56 136 37 53 14 52 -46 -1z"></path>
<path class="node" id="node30" d="M1495 1850 c-4 -6 -9 -36 -12 -67 -5 -45 -3 -55 8 -51 15 5 26 43 28
96 1 31 -11 43 -24 22z"></path>
<path class="node" id="node31" d="M825 1769 c14 -24 25 -58 25 -75 0 -50 12 -47 32 8 24 70 24 72 -19
87 -21 8 -44 16 -51 18 -6 3 -1 -14 13 -38z"></path>
<path class="node" id="node32" d="M1567 1663 c-4 -70 -11 -129 -15 -132 -5 -3 -19 -27 -31 -53 -22 -47
-44 -61 -54 -35 -3 7 -6 5 -6 -5 -1 -23 29 -98 39 -98 9 0 40 79 41 105 0 20
0 20 8 0 8 -19 8 -18 21 5 39 74 81 266 66 306 -6 16 -8 16 -20 -2 -14 -18
-15 -18 -21 9 -14 54 -22 25 -28 -100z"></path>
<path class="node" id="node33" d="M476 1711 c-30 -68 -43 -121 -29 -121 19 0 113 133 113 159 l0 25
-31 -30 -31 -29 7 28 c11 44 0 31 -29 -32z"></path>
<path class="node" id="node34" d="M1067 1688 c-7 -27 2 -45 14 -27 11 18 11 49 0 49 -5 0 -11 -10 -14
-22z"></path>
<path class="node" id="node35" d="M1170 1690 c0 -11 7 -20 15 -20 17 0 18 2 9 24 -9 23 -24 20 -24 -4z"></path>
<path class="node" id="node36" d="M929 1658 c-7 -13 -29 -44 -49 -69 -20 -26 -43 -68 -50 -93 -24 -87
3 -222 50 -247 74 -40 87 -42 160 -24 84 21 195 13 186 -12 -3 -8 -6 -16 -6
-19 0 -2 -7 -1 -15 2 -8 4 -22 1 -30 -6 -13 -11 -18 -10 -29 6 -14 18 -15 18
-33 1 -24 -21 -39 -22 -47 -1 -5 13 -9 14 -21 4 -12 -10 -15 -10 -15 0 0 10
-3 10 -15 0 -8 -7 -15 -23 -15 -36 0 -22 2 -23 25 -12 22 10 28 9 41 -11 l16
-22 25 23 25 23 18 -23 19 -23 17 26 16 25 33 -20 c34 -21 45 -18 45 12 0 11
5 16 10 13 6 -3 10 -1 10 4 0 6 -4 11 -8 11 -5 0 -17 7 -28 16 -18 15 -18 15
7 10 42 -9 120 34 147 82 44 79 25 157 -74 293 -18 25 -38 57 -44 70 -10 22
-10 22 -5 -6 4 -16 20 -51 37 -78 23 -35 29 -55 25 -76 -5 -23 -2 -30 13 -34
28 -7 25 -27 -4 -27 -64 0 -76 -29 -13 -32 l42 -1 -37 -4 c-59 -6 -43 -33 20
-33 26 -1 27 -1 7 -16 -12 -9 -34 -14 -52 -12 -27 3 -30 2 -20 -11 7 -8 25
-20 42 -28 30 -14 30 -14 -17 -11 -42 3 -47 1 -42 -15 5 -15 1 -17 -23 -11
-45 11 -82 33 -99 59 -16 24 -15 27 10 60 15 19 49 46 75 60 47 23 61 43 61
89 0 17 -2 17 -23 3 -18 -12 -51 -14 -153 -12 -71 1 -134 -2 -141 -7 -7 -5
-14 -5 -18 2 -10 17 -25 11 -25 -10 0 -25 22 -46 94 -89 81 -49 90 -102 22
-135 -48 -24 -137 -35 -118 -15 20 21 14 28 -17 16 -30 -11 -66 -3 -56 12 3 6
26 13 50 17 54 8 50 24 -6 24 -21 0 -39 5 -39 10 0 7 13 8 34 4 34 -6 106 11
106 24 0 4 -27 5 -59 4 -57 -4 -101 9 -101 28 0 5 19 10 42 12 59 4 60 24 2
24 -26 -1 -49 4 -51 10 -2 6 11 9 34 7 l38 -3 -32 15 c-42 19 -41 36 1 106 34
57 52 99 42 99 -3 0 -11 -10 -17 -22z m288 -203 c-4 -8 -11 -15 -17 -15 -6 0
-6 7 2 20 14 22 24 19 15 -5z m-132 -5 c3 -5 2 -10 -4 -10 -5 0 -13 5 -16 10
-3 6 -2 10 4 10 5 0 13 -4 16 -10z"></path>
<path class="node" id="node37" d="M598 1528 c-14 -31 -29 -67 -33 -80 -4 -12 -19 -45 -34 -73 -22 -42
-26 -66 -29 -152 -10 -259 64 -488 208 -643 23 -25 52 -63 65 -85 30 -51 75
-190 75 -232 0 -18 4 -33 9 -33 14 0 41 76 41 114 0 18 10 80 21 137 27 132
22 252 -14 356 -21 63 -74 150 -84 140 -2 -2 3 -21 10 -43 8 -21 17 -72 21
-111 7 -69 6 -74 -18 -98 -34 -33 -72 -32 -128 5 -39 26 -51 42 -86 124 -23
51 -47 118 -54 147 -18 82 -16 254 4 314 42 128 59 197 56 232 l-3 38 -27 -57z"></path>
<path class="node" id="node38" d="M275 1494 c-22 -38 -53 -83 -69 -101 -22 -27 -25 -33 -11 -33 27 0
84 31 100 54 19 26 19 36 0 36 -12 0 -11 8 6 47 31 73 17 71 -26 -3z"></path>
<path class="node" id="node39" d="M1860 1425 c0 -151 -2 -154 -63 -104 -82 67 -13 -40 102 -160 45 -46
81 -81 81 -78 0 3 -5 18 -11 34 -18 45 -28 92 -39 188 -10 80 -54 255 -66 255
-2 0 -4 -61 -4 -135z"></path>
<path class="node" id="node40" d="M1626 1450 c-20 -43 -36 -86 -36 -94 0 -27 -17 -26 -31 2 l-14 27 -3
-42 c-4 -51 22 -105 76 -163 50 -51 68 -53 47 -4 -19 47 -19 158 0 249 28 132
14 141 -39 25z"></path>
<path class="node" id="node41" d="M652 1425 c-1 -16 -13 -73 -27 -125 -14 -52 -25 -122 -25 -154 0 -64
29 -162 62 -209 34 -48 101 -117 113 -117 22 0 6 157 -31 302 -19 75 -35 140
-35 145 -4 23 -17 -60 -18 -112 -1 -47 -4 -57 -13 -47 -9 9 -15 66 -19 180 -3
92 -6 154 -7 137z"></path>
<path class="node" id="node42" d="M734 1392 c3 -19 13 -49 22 -67 19 -40 89 -120 79 -90 -4 11 -16 44
-26 72 -11 29 -19 63 -20 75 -1 23 -1 23 -8 -1 -7 -25 -7 -25 -30 10 l-23 34
6 -33z"></path>
<path class="node" id="node43" d="M468 1333 c-54 -62 -82 -207 -57 -297 17 -61 28 -32 44 110 7 71 19
144 24 163 13 41 10 47 -11 24z"></path>
<path class="node" id="node44" d="M1225 1340 c3 -5 15 -10 26 -10 11 0 17 5 14 10 -3 6 -15 10 -26 10
-11 0 -17 -4 -14 -10z"></path>
<path class="node" id="node45" d="M1690 1318 c0 -31 29 -145 64 -250 13 -42 8 -66 -9 -38 -3 5 -36 24
-73 42 -40 20 -95 60 -139 102 -40 38 -73 65 -73 61 0 -20 155 -216 260 -331
59 -63 99 -127 129 -203 l18 -44 7 139 c5 108 3 152 -8 195 -16 60 -156 357
-168 358 -5 1 -8 -14 -8 -31z"></path>
<path class="node" id="node46" d="M1020 1314 l-45 -14 45 5 c25 4 49 10 55 16 11 11 3 10 -55 -7z"></path>
<path class="node" id="node47" d="M745 1210 c8 -29 55 -101 165 -251 76 -103 134 -280 159 -487 5 -41
12 -76 15 -79 11 -12 29 55 34 124 4 64 1 78 -26 136 -17 35 -45 100 -61 143
-41 104 -75 162 -158 262 -37 46 -83 105 -101 130 -24 33 -32 40 -27 22z"></path>
<path class="node" id="node48" d="M911 1173 c-6 -13 -11 -35 -11 -49 0 -21 4 -24 20 -19 17 5 20 2 20
-22 0 -29 33 -93 49 -93 5 0 12 8 16 18 5 15 10 13 33 -14 15 -18 42 -36 60
-42 31 -11 33 -10 49 26 15 33 17 35 20 14 6 -29 22 -24 49 16 23 34 34 32 34
-5 0 -13 4 -23 10 -23 13 0 70 79 70 98 0 12 3 12 15 2 12 -10 19 -10 27 -2
14 14 -4 83 -27 102 -13 10 -15 8 -15 -13 0 -21 -4 -24 -22 -19 -16 4 -20 2
-15 -10 3 -9 0 -24 -8 -34 -13 -18 -14 -18 -34 0 -20 18 -20 18 -38 -18 l-17
-36 -21 26 c-25 32 -38 27 -64 -23 l-18 -37 -31 43 c-17 23 -33 48 -35 54 -2
8 -12 6 -30 -6 l-27 -17 0 52 c0 49 -2 53 -24 54 -16 1 -27 -6 -35 -23z"></path>
<path class="node" id="node49" d="M325 1117 c-11 -55 -1 -157 20 -197 44 -86 174 -234 191 -217 2 2 -8
30 -22 62 -17 37 -29 84 -33 134 l-7 76 -17 -39 c-9 -21 -17 -43 -17 -48 0
-22 -31 17 -60 75 -17 35 -30 77 -31 101 -1 23 -4 52 -9 66 -7 23 -8 23 -15
-13z"></path>
<path class="node" id="node50" d="M1460 1035 c0 -4 18 -28 40 -53 44 -50 94 -147 104 -202 6 -30 5 -32
-5 -15 -41 67 -95 127 -129 145 -53 27 -55 26 -26 -13 28 -36 71 -128 92 -197
23 -72 28 -224 11 -305 -8 -38 -13 -72 -11 -74 2 -2 32 25 68 61 56 57 67 73
87 138 18 59 21 87 16 150 -11 146 -68 257 -162 318 -79 51 -85 54 -85 47z"></path>
<path class="node" id="node51" d="M1240 952 c0 -4 5 -13 12 -20 16 -16 -5 -17 -33 -2 -42 23 -15 -9 41
-48 33 -22 60 -39 60 -36 0 13 -33 81 -47 96 -17 19 -33 24 -33 10z"></path>
<path class="node" id="node52" d="M1150 907 c0 -29 46 -96 110 -162 75 -76 103 -128 123 -227 l13 -63
24 74 c14 44 24 99 24 135 0 53 -6 74 -48 160 -48 100 -66 119 -47 49 13 -47
14 -126 2 -121 -5 2 -52 40 -105 86 -53 45 -96 76 -96 69z"></path>
<path class="node" id="node53" d="M1091 852 c42 -48 74 -121 89 -209 11 -61 11 -84 -4 -165 -20 -108
-44 -155 -115 -221 -28 -26 -51 -50 -51 -52 0 -14 45 -2 78 20 72 48 128 143
151 257 15 68 1 188 -29 253 -22 50 -102 141 -130 148 -17 4 -16 0 11 -31z"></path>
<path class="node" id="node54" d="M1760 733 c0 -10 7 -40 15 -67 8 -27 15 -71 15 -98 0 -58 12 -55 35
7 21 54 14 103 -21 145 -29 34 -44 38 -44 13z"></path>
<path class="node" id="node55" d="M594 645 c18 -46 46 -171 46 -204 1 -34 2 -35 15 -17 23 31 18 105
-10 163 -27 53 -67 99 -51 58z"></path>
<path class="node" id="node56" d="M1298 532 c-4 -103 -5 -110 -48 -196 -53 -105 -135 -196 -224 -245
-32 -18 -56 -34 -54 -36 2 -2 37 4 79 14 121 28 172 69 228 180 65 128 88 270
57 345 -26 62 -34 50 -38 -62z"></path>
<path class="node" id="node57" d="M1490 564 c0 -86 -81 -276 -148 -346 -34 -37 -23 -44 30 -20 91 40
141 117 159 250 9 63 8 82 -6 119 -22 56 -35 55 -35 -3z"></path>
<path class="node" id="node58" d="M961 449 c0 -125 -35 -218 -118 -310 -69 -76 12 -32 88 48 47 49 59
69 70 117 15 67 3 168 -25 207 -15 22 -16 18 -15 -62z"></path>
<path class="node" id="node59" d="M1461 231 c-13 -10 -20 -21 -15 -23 15 -9 54 10 54 27 0 20 -10 19
-39 -4z"></path>
</g>
<g transform="translate(0.000000,300.000000) scale(0.100000,-0.100000)" fill="#A0A0A0" stroke="none">

<path class="node" id="node61" d="M1426 1652 c-3 -6 -4 -16 -2 -24 2 -7 7 -25 10 -40 7 -32 21 -37 29
-10 2 9 8 25 12 35 5 12 2 17 -8 17 -9 0 -20 7 -25 16 -6 10 -12 13 -16 6z"></path>
<path class="node" id="node62" d="M753 1603 c-40 -5 -41 -12 -6 -53 19 -23 28 -28 33 -18 11 21 20 78
12 76 -4 0 -22 -3 -39 -5z"></path>
<path class="node" id="node63" d="M1069 2106 c12 -13 30 -45 40 -72 l19 -48 7 32 c3 17 18 48 31 68 28
41 26 53 -7 31 -19 -14 -26 -14 -57 -2 -49 21 -59 19 -33 -9z"></path>
<path class="node" id="node64" d="M847 1903 c-13 -12 -7 -41 9 -47 26 -10 42 -7 48 10 11 30 -35 60
-57 37z"></path>
<path class="node" id="node65" d="M1321 1906 c-17 -20 -3 -46 24 -46 29 0 38 13 30 40 -7 23 -37 26
-54 6z"></path>
<path class="node" id="node66" d="M1202 1460 c-8 -13 -8 -20 -2 -20 6 0 13 7 17 15 9 24 -1 27 -15 5z"></path>
<path class="node" id="node67" d="M1065 1450 c3 -5 11 -10 16 -10 6 0 7 5 4 10 -3 6 -11 10 -16 10 -6
0 -7 -4 -4 -10z"></path>
</g>
</svg>