<!--?xml version="1.0" standalone="no"?-->

<svg version="1.0" xmlns="http://www.w3.org/2000/svg" width="300.000000pt" height="258.000000pt" viewBox="0 0 300.000000 258.000000" preserveAspectRatio="xMidYMid meet">
<g transform="translate(0.000000,258.000000) scale(0.100000,-0.100000)" fill="#181818" stroke="none">
<path class="node" id="node1" d="M2316 2289 c-21 -5 -50 -15 -65 -23 -14 -8 -37 -19 -51 -24 l-25 -11
25 0 c14 0 45 9 70 20 71 33 95 38 142 28 30 -7 56 -21 78 -44 61 -63 56 -158
-15 -256 -29 -40 -41 -68 -46 -109 -7 -51 -12 -59 -65 -106 -48 -44 -56 -56
-50 -77 6 -27 31 -57 47 -57 13 0 47 58 59 101 5 19 22 46 36 60 35 32 54 71
54 109 0 17 14 57 30 90 35 70 39 134 11 195 -25 54 -57 82 -117 100 -55 17
-63 17 -118 4z"></path>
<path class="node" id="node2" d="M518 2273 c7 -3 16 -2 19 1 4 3 -2 6 -13 5 -11 0 -14 -3 -6 -6z"></path>
<path class="node" id="node3" d="M441 2232 c-26 -25 -44 -55 -55 -90 -14 -48 -14 -58 0 -99 9 -26 27
-63 40 -82 14 -22 27 -62 32 -97 5 -38 19 -79 38 -109 16 -26 41 -72 56 -101
22 -42 33 -54 51 -54 19 0 27 9 39 39 17 43 14 55 -20 66 -32 9 -80 87 -88
142 -4 30 -21 64 -51 105 -78 106 -84 174 -23 261 45 66 37 74 -19 19z"></path>
<path class="node" id="node4" d="M584 2249 c17 -13 46 -23 74 -25 l47 -3 -40 7 c-22 4 -52 15 -65 25
-35 24 -48 21 -16 -4z"></path>
<path class="node" id="node5" d="M738 2213 c7 -3 16 -2 19 1 4 3 -2 6 -13 5 -11 0 -14 -3 -6 -6z"></path>
<path class="node" id="node6" d="M2235 2210 c-119 -23 -228 -51 -263 -69 -41 -21 -92 -74 -92 -95 0
-19 33 -45 150 -120 58 -38 114 -76 125 -86 11 -9 34 -26 50 -36 l30 -18 -22
25 c-31 34 -29 39 15 40 35 1 34 2 -13 10 -44 7 -57 15 -106 67 -31 33 -59 72
-63 88 -7 25 -3 33 24 56 89 74 250 51 250 -36 0 -53 -63 -91 -109 -67 -16 9
-19 9 -15 -2 6 -16 67 -47 90 -47 27 0 91 41 105 68 18 32 15 101 -5 141 -20
37 -4 42 31 9 l23 -21 0 22 c0 12 -13 36 -29 52 -26 25 -36 29 -83 28 -29 -1
-71 -5 -93 -9z"></path>
<path class="node" id="node7" d="M585 2185 c-5 -2 -22 -6 -36 -9 -30 -6 -52 -36 -63 -81 l-6 -30 21
28 c11 15 27 27 34 27 12 0 11 -6 -1 -36 -43 -102 68 -211 147 -144 l24 19
-37 1 c-78 0 -85 80 -10 116 38 18 91 15 138 -7 32 -16 51 -68 41 -111 -11
-41 -51 -92 -91 -114 -23 -13 -33 -23 -25 -26 11 -4 10 -12 -4 -44 -17 -34 -6
-26 85 63 56 57 122 117 146 135 27 21 42 40 42 54 0 28 -59 76 -137 110 -77
35 -229 62 -268 49z"></path>
<path class="node" id="node8" d="M1862 2160 c-68 -17 -80 -17 -149 -4 -121 23 -153 20 -207 -22 l-47
-36 -48 31 c-40 26 -58 31 -108 31 -33 0 -82 -7 -109 -15 -63 -19 -142 -19
-187 0 -20 8 -38 15 -41 15 -3 0 17 -22 44 -50 26 -27 55 -69 63 -92 21 -61
47 -206 48 -275 1 -50 2 -53 8 -23 15 74 115 222 176 260 93 57 177 -18 110
-98 -14 -17 -22 -33 -18 -35 14 -8 169 -6 183 3 9 6 8 9 -7 14 -22 7 -53 56
-53 85 0 28 41 54 74 45 37 -9 103 -86 158 -185 l48 -84 0 138 c0 94 4 148 14
171 17 41 72 104 111 128 36 21 32 21 -63 -2z"></path>
<path class="node" id="node9" d="M1854 1978 c110 -77 244 -198 219 -198 -6 0 -27 7 -47 15 -20 8 -36
13 -36 11 0 -3 23 -27 51 -53 64 -60 108 -123 125 -179 18 -60 -2 -123 -61
-200 -50 -64 -53 -82 -28 -160 16 -51 16 -53 -8 -101 -43 -86 -140 -132 -240
-113 -29 6 -54 8 -56 6 -2 -2 19 -18 47 -35 59 -36 126 -41 206 -15 66 22 101
57 121 121 14 46 15 62 3 137 -11 69 -11 88 0 101 7 8 16 15 20 15 12 0 42
-214 35 -246 -4 -16 -10 -38 -15 -49 -28 -65 -51 -113 -66 -135 -9 -14 7 0 36
30 74 78 108 151 125 268 8 53 15 113 15 132 0 52 19 76 21 25 0 -32 2 -36 9
-20 23 52 2 191 -44 290 -41 90 -192 234 -316 302 -95 52 -157 79 -116 51z"></path>
<path class="node" id="node10" d="M959 1932 c-111 -89 -174 -152 -224 -227 -86 -126 -134 -292 -119
-405 l7 -55 9 40 c13 61 32 71 25 13 -8 -62 6 -133 45 -232 43 -109 70 -154
114 -196 20 -19 35 -30 32 -25 -2 6 -16 35 -31 67 -59 124 -81 301 -48 383
l13 30 19 -24 c16 -19 19 -39 19 -115 0 -123 26 -180 102 -221 72 -39 175 -46
241 -17 26 12 47 25 47 29 0 4 -25 6 -55 5 -48 -3 -63 1 -117 31 -63 36 -116
83 -137 124 -6 12 -11 65 -11 117 0 92 -1 97 -30 129 -42 48 -70 114 -70 166
0 50 29 107 92 184 45 54 32 62 -30 17 -23 -17 -42 -27 -42 -24 0 8 41 66 55
79 18 16 148 165 144 164 -2 0 -25 -17 -50 -37z"></path>
<path class="node" id="node11" d="M1317 1896 c-36 -47 -77 -139 -77 -173 0 -39 11 -73 22 -73 6 0 7 7
4 16 -7 18 10 54 25 54 6 0 8 -9 4 -20 -10 -30 2 -24 20 10 l16 30 37 -15 c53
-22 71 -44 87 -105 12 -46 12 -60 -1 -112 -15 -58 -15 -61 12 -146 l28 -87 13
60 c17 85 16 133 -7 198 -23 66 -24 77 -9 127 9 29 21 42 53 58 74 36 85 37
98 5 11 -27 12 -27 15 -5 7 35 33 27 34 -10 l1 -33 10 28 c5 16 7 47 4 70 -8
50 -56 131 -88 148 -20 11 -20 9 5 -20 54 -64 29 -123 -61 -142 -31 -7 -67
-21 -80 -33 l-22 -20 -15 21 c-9 13 -31 24 -57 28 -81 13 -98 55 -53 133 29
50 18 56 -18 8z"></path>
<path class="node" id="node12" d="M1900 1822 c0 -5 7 -24 17 -42 15 -31 15 -37 -5 -97 -23 -72 -14 -91
17 -37 31 51 37 113 17 152 -15 29 -46 45 -46 24z"></path>
<path class="node" id="node13" d="M971 1769 c-6 -18 -11 -47 -11 -65 0 -44 28 -114 46 -114 19 0 18 25
-2 55 -16 25 -16 101 0 138 6 12 4 17 -7 17 -8 0 -20 -14 -26 -31z"></path>
<path class="node" id="node14" d="M860 1645 c-19 -20 -24 -37 -25 -78 0 -49 2 -52 23 -50 44 5 62 -13
62 -63 0 -37 5 -50 29 -72 16 -15 37 -49 46 -77 10 -31 31 -64 56 -87 21 -21
39 -44 39 -53 0 -11 7 -15 23 -13 16 2 23 11 25 34 3 27 -2 33 -31 48 -39 18
-97 79 -97 101 0 23 15 18 52 -19 27 -27 46 -36 86 -42 78 -10 87 -25 87 -149
0 -57 3 -107 8 -111 4 -4 7 4 7 19 0 14 9 47 21 74 28 66 22 125 -20 187 l-32
46 -26 -20 c-34 -27 -55 -25 -92 6 -41 34 -43 74 -3 74 21 0 24 -2 12 -10 -13
-9 -12 -13 9 -30 27 -23 39 -24 64 -6 17 13 17 15 -5 35 -28 27 -60 35 -96 26
-70 -18 -103 -17 -123 1 -18 17 -21 29 -19 109 3 112 3 110 -16 129 -22 22
-37 20 -64 -9z"></path>
<path class="node" id="node15" d="M2038 1649 c-14 -8 -18 -24 -18 -78 0 -168 -17 -197 -98 -160 -26 11
-56 21 -67 21 -37 1 -91 -41 -117 -90 -39 -72 -41 -95 -18 -178 11 -41 21 -87
21 -102 2 -53 27 71 28 140 1 76 12 88 74 88 28 0 42 8 67 36 21 25 35 33 42
26 17 -17 -16 -65 -62 -91 -39 -21 -42 -26 -36 -54 8 -39 18 -49 39 -41 10 4
17 17 17 34 0 20 9 35 29 50 23 15 31 31 36 64 6 36 12 46 31 50 20 5 24 13
26 44 0 20 1 44 0 54 -2 26 22 40 51 29 29 -11 47 2 47 34 -1 46 -27 119 -46
126 -25 10 -26 10 -46 -2z m-133 -269 c0 -28 -55 -70 -91 -70 -29 0 -59 42
-47 65 8 14 11 13 28 -5 10 -11 31 -20 47 -20 24 0 30 5 35 30 7 35 28 35 28
0z"></path>
<path class="node" id="node16" d="M1740 1609 c0 -6 16 -39 35 -74 34 -61 37 -63 68 -58 22 3 44 -2 67
-16 41 -24 66 -15 55 19 -5 15 -30 33 -78 55 -40 18 -83 44 -96 59 -25 27 -51
34 -51 15z"></path>
<path class="node" id="node17" d="M1159 1584 c-13 -14 -58 -43 -99 -63 -53 -26 -76 -43 -78 -58 -4 -30
24 -36 68 -13 22 11 49 20 60 20 24 0 61 -17 73 -34 4 -6 5 6 1 26 -5 29 -1
47 20 84 14 25 23 50 20 55 -10 17 -41 9 -65 -17z"></path>
<path class="node" id="node18" d="M1530 1573 c0 -14 14 -48 31 -75 36 -56 42 -124 15 -176 -9 -18 -13
-32 -8 -32 29 0 77 107 66 144 -4 12 -24 47 -45 78 -22 32 -39 65 -39 73 0 8
-4 15 -10 15 -5 0 -10 -12 -10 -27z"></path>
<path class="node" id="node19" d="M1390 1570 c0 -11 -13 -44 -30 -73 -44 -79 -42 -128 9 -178 49 -49
86 -55 47 -8 -60 71 -62 98 -17 200 18 40 18 79 0 79 -5 0 -9 -9 -9 -20z"></path>
<path class="node" id="node20" d="M1252 1488 c-17 -17 -15 -90 2 -114 20 -27 29 -12 12 20 -14 27 -11
61 5 72 11 7 12 34 1 34 -4 0 -13 -5 -20 -12z"></path>
<path class="node" id="node21" d="M1680 1495 c0 -3 7 -17 17 -31 15 -23 15 -28 0 -60 -17 -35 -6 -49
13 -15 19 37 6 111 -20 111 -6 0 -10 -2 -10 -5z"></path>
<path class="node" id="node22" d="M956 1174 c-10 -27 87 -104 132 -104 35 0 26 16 -23 40 -25 12 -54
35 -66 51 -23 33 -34 36 -43 13z"></path>
<path class="node" id="node23" d="M1942 1130 c-18 -22 -42 -40 -53 -40 -10 0 -19 -7 -19 -15 0 -19 23
-19 66 1 38 18 64 49 64 76 0 29 -23 20 -58 -22z"></path>
<path class="node" id="node24" d="M1672 1038 c-13 -13 -16 -96 -4 -125 5 -13 8 -3 12 32 3 33 9 49 18
48 16 -4 16 32 -1 46 -10 8 -17 7 -25 -1z"></path>
<path class="node" id="node25" d="M1276 1004 c-11 -28 -7 -44 10 -37 20 7 34 -13 34 -49 0 -16 5 -28
10 -28 15 0 12 67 -5 100 -17 33 -39 39 -49 14z"></path>
<path class="node" id="node26" d="M889 858 c52 -88 78 -112 67 -61 l-7 29 68 0 c69 0 116 16 143 49 19
22 9 26 -36 14 -60 -17 -178 -4 -232 26 -24 14 -46 25 -48 25 -2 0 18 -37 45
-82z"></path>
<path class="node" id="node27" d="M2050 917 c-52 -24 -170 -29 -207 -9 -29 16 -30 1 -2 -24 18 -16 36
-19 105 -18 l85 1 -21 -22 c-24 -25 -25 -35 -6 -35 8 0 35 26 60 58 64 79 62
85 -14 49z"></path>
<path class="node" id="node28" d="M1748 845 c-4 -50 -15 -104 -29 -140 -22 -54 -28 -61 -69 -77 l-45
-17 42 0 c52 -1 62 -15 32 -47 -16 -17 -25 -21 -30 -12 -6 9 -13 7 -28 -7 -12
-10 -31 -23 -43 -29 -27 -14 -34 -65 -10 -82 38 -30 225 -7 271 32 48 40 57
77 36 137 -10 29 -23 59 -30 67 -29 35 -68 127 -79 189 l-12 66 -6 -80z m32
-166 c-16 -28 -32 -24 -18 6 6 13 15 22 19 19 5 -3 4 -14 -1 -25z m50 -43 c0
-15 -65 -77 -99 -96 -40 -21 -23 12 32 61 55 51 67 57 67 35z m20 -77 c0 -29
-162 -140 -174 -120 -6 9 149 130 167 131 4 0 7 -5 7 -11z"></path>
<path class="node" id="node29" d="M1235 828 c-8 -45 -59 -178 -82 -213 -35 -52 0 -145 67 -180 33 -17
225 -21 250 -5 8 5 15 21 15 36 1 20 -8 32 -37 50 -41 26 -53 30 -43 14 13
-20 -17 -9 -42 16 -26 26 -26 27 -8 40 10 8 30 14 44 15 21 1 19 3 -11 11 -21
5 -49 23 -63 39 -25 31 -65 143 -65 184 0 42 -18 36 -25 -7z m33 -187 c15 -22
15 -23 -2 -20 -10 2 -26 15 -34 28 -15 22 -15 23 2 20 10 -2 26 -15 34 -28z
m52 -127 c0 -2 -6 -4 -14 -4 -19 0 -106 79 -106 97 0 9 24 -6 60 -38 33 -29
60 -54 60 -55z m-58 -18 c62 -44 82 -81 27 -49 -42 25 -109 82 -109 94 0 12 9
7 82 -45z"></path>
<path class="node" id="node30" d="M1888 673 c7 -3 16 -2 19 1 4 3 -2 6 -13 5 -11 0 -14 -3 -6 -6z"></path>
<path class="node" id="node31" d="M1950 656 c42 -17 58 -20 45 -7 -6 5 -26 12 -45 15 l-35 6 35 -14z"></path>
<path class="node" id="node32" d="M2020 640 c0 -6 7 -10 15 -10 8 0 15 2 15 4 0 2 -7 6 -15 10 -8 3
-15 1 -15 -4z"></path>
<path class="node" id="node33" d="M985 589 c-60 -20 -102 -38 -93 -38 16 -1 198 56 207 65 15 14 -18 7
-114 -27z"></path>
<path class="node" id="node34" d="M2068 623 c7 -3 16 -2 19 1 4 3 -2 6 -13 5 -11 0 -14 -3 -6 -6z"></path>
<path class="node" id="node35" d="M1928 603 c7 -3 16 -2 19 1 4 3 -2 6 -13 5 -11 0 -14 -3 -6 -6z"></path>
<path class="node" id="node36" d="M2055 570 c17 -4 44 -8 60 -8 l30 0 -30 8 c-16 4 -43 8 -60 8 l-30 0
30 -8z"></path>
<path class="node" id="node37" d="M2188 553 c7 -3 16 -2 19 1 4 3 -2 6 -13 5 -11 0 -14 -3 -6 -6z"></path>
<path class="node" id="node38" d="M945 499 c-61 -21 -92 -36 -70 -32 46 7 175 51 190 64 15 15 -3 10
-120 -32z"></path>
<path class="node" id="node39" d="M1985 519 c22 -4 51 -8 65 -7 23 0 22 1 -5 8 -16 4 -46 8 -65 8 l-35
0 40 -9z"></path>
<path class="node" id="node40" d="M2125 495 c65 -18 93 -18 35 1 -25 7 -54 13 -65 13 -11 0 3 -7 30
-14z"></path>
<path class="node" id="node41" d="M1910 471 c8 -5 33 -12 55 -15 l40 -6 -45 15 c-50 16 -73 19 -50 6z"></path>
<path class="node" id="node42" d="M2233 473 c9 -2 25 -2 35 0 9 3 1 5 -18 5 -19 0 -27 -2 -17 -5z"></path>
<path class="node" id="node43" d="M1038 451 c-25 -10 -62 -21 -81 -25 -43 -8 -246 -74 -231 -75 11 -1
163 40 297 80 37 12 67 25 67 30 0 11 5 12 -52 -10z"></path>
<path class="node" id="node44" d="M2318 463 c6 -2 18 -2 25 0 6 3 1 5 -13 5 -14 0 -19 -2 -12 -5z"></path>
<path class="node" id="node45" d="M2058 423 c6 -2 18 -2 25 0 6 3 1 5 -13 5 -14 0 -19 -2 -12 -5z"></path>
<path class="node" id="node46" d="M1043 388 c-40 -18 -71 -33 -69 -35 4 -5 109 33 142 51 51 27 1 16
-73 -16z"></path>
<path class="node" id="node47" d="M1460 395 l-55 -24 85 0 c47 1 96 4 110 8 l24 7 -29 12 c-58 22 -79
22 -135 -3z"></path>
<path class="node" id="node48" d="M1860 416 c0 -2 7 -7 16 -10 8 -3 12 -2 9 4 -6 10 -25 14 -25 6z"></path>
<path class="node" id="node49" d="M2118 413 c6 -2 18 -2 25 0 6 3 1 5 -13 5 -14 0 -19 -2 -12 -5z"></path>
<path class="node" id="node50" d="M1168 369 c-21 -11 -38 -21 -38 -24 0 -8 59 17 71 31 15 18 12 17
-33 -7z"></path>





</g>
<g transform="translate(0.000000,258.000000) scale(0.100000,-0.100000)" fill="#A1A1A1" stroke="none">


<path class="node" id="node58" d="M1762 685 c-7 -15 -8 -25 -2 -25 13 0 32 38 21 44 -4 3 -13 -6 -19
-19z"></path>
<path class="node" id="node59" d="M1763 601 c-55 -49 -72 -82 -32 -61 34 19 99 81 99 96 0 22 -12 16
-67 -35z"></path>
<path class="node" id="node60" d="M1752 509 c-45 -33 -80 -65 -76 -70 12 -20 174 91 174 120 0 19 -12
12 -98 -50z"></path>
<path class="node" id="node61" d="M1232 649 c8 -13 24 -26 34 -28 17 -3 17 -2 2 20 -8 13 -24 26 -34
28 -17 3 -17 2 -2 -20z"></path>
<path class="node" id="node62" d="M1200 607 c0 -18 87 -97 106 -97 8 0 14 2 14 4 0 1 -27 26 -60 55
-36 32 -60 47 -60 38z"></path>
<path class="node" id="node63" d="M1180 541 c0 -12 67 -69 109 -94 55 -32 35 5 -27 49 -73 52 -82 57
-82 45z"></path>
</g>
</svg>