<!--?xml version="1.0" standalone="no"?-->

<svg version="1.0" xmlns="http://www.w3.org/2000/svg" width="300.000000pt" height="225.000000pt" viewBox="0 0 300.000000 225.000000" preserveAspectRatio="xMidYMid meet">
<g transform="translate(0.000000,225.000000) scale(0.100000,-0.100000)" fill="#272626" stroke="none">
<path class="node" id="node1" d="M1710 2226 c0 -8 6 -19 13 -23 48 -28 154 -217 177 -313 14 -55 16
-239 4 -294 l-6 -29 27 21 c15 12 35 22 45 22 22 0 61 -42 63 -69 1 -11 5 -21
11 -21 5 0 6 26 2 63 -4 44 -15 76 -36 111 -17 27 -28 51 -24 55 4 3 9 0 11
-6 3 -7 9 -13 15 -13 23 0 -5 90 -67 217 -53 107 -78 146 -132 203 -73 78
-103 100 -103 76z"></path>
<path class="node" id="node2" d="M1400 2159 c-82 -50 -180 -132 -233 -195 -80 -95 -165 -262 -107
-209 21 19 50 14 50 -8 0 -8 -8 -21 -17 -28 -15 -12 -16 -12 -10 3 12 33 -23
6 -48 -37 -17 -28 -25 -56 -24 -86 0 -38 2 -41 11 -22 6 12 16 24 24 27 10 4
9 -2 -2 -29 -23 -55 -12 -145 17 -145 6 0 9 7 5 15 -3 9 0 15 8 15 8 0 17 -7
20 -16 8 -22 8 -24 -6 -22 -19 4 -10 -31 20 -79 31 -50 42 -54 42 -15 0 15 7
37 15 49 14 20 12 24 -20 56 -25 25 -35 44 -35 66 0 37 20 41 43 9 16 -22 16
-22 16 20 1 29 -5 48 -19 62 -11 11 -16 20 -11 20 6 0 13 -4 16 -10 15 -25 20
-4 16 77 -3 89 2 116 47 236 29 78 100 163 186 222 31 21 56 40 56 42 0 9 -29
0 -60 -18z"></path>
<path class="node" id="node3" d="M917 1928 c-41 -55 -76 -133 -85 -192 -11 -71 -5 -108 17 -104 13 3
17 21 22 91 5 73 12 99 42 159 20 40 34 74 32 76 -1 2 -14 -12 -28 -30z"></path>
<path class="node" id="node4" d="M2130 1915 c0 -6 7 -32 15 -58 8 -27 16 -92 17 -145 2 -88 9 -111 31
-112 14 0 7 137 -12 207 -16 61 -51 136 -51 108z"></path>
<path class="node" id="node5" d="M1477 1730 c-52 -16 -188 -102 -211 -134 -34 -45 -50 -124 -42 -207
8 -72 -2 -89 -23 -42 -10 22 -14 24 -22 12 -5 -7 -9 -30 -9 -51 0 -31 5 -39
34 -56 30 -18 34 -25 33 -56 -2 -44 -16 -45 -62 -5 -42 37 -56 30 -58 -24 -1
-52 -17 -34 -17 20 0 46 -17 72 -50 73 -11 0 -11 -3 -2 -12 16 -16 15 -38 -1
-38 -9 0 -14 13 -15 35 -2 44 -31 110 -67 150 l-26 30 6 -32 c9 -47 -1 -41
-30 17 -25 49 -55 67 -55 33 0 -10 10 -38 21 -63 12 -28 16 -46 10 -48 -22 -7
-6 -108 23 -147 12 -16 17 -18 27 -7 29 28 105 2 130 -45 10 -18 20 -23 36
-20 13 2 23 1 23 -2 0 -4 29 -5 65 -3 51 3 65 1 65 -10 0 -7 -13 -19 -30 -25
-30 -11 -70 -65 -70 -95 0 -22 4 -22 55 -3 43 15 105 20 105 8 0 -5 -16 -19
-35 -33 -18 -14 -39 -35 -44 -48 -13 -26 -15 -112 -3 -112 13 0 34 84 26 105
-7 20 -6 20 8 1 19 -25 52 -15 43 13 -3 11 -1 22 4 25 13 8 18 -1 25 -49 8
-47 50 -111 96 -142 26 -18 47 -23 101 -23 59 0 72 3 100 27 41 35 89 110 89
139 0 17 5 22 20 21 16 -1 20 -8 20 -34 0 -19 8 -41 18 -51 13 -13 21 -40 25
-90 3 -40 9 -78 14 -84 4 -7 8 -29 9 -49 3 -50 13 -81 25 -73 5 3 7 15 3 27
-4 15 -3 19 4 12 6 -5 14 -35 19 -65 6 -38 13 -55 23 -55 12 0 15 13 13 65 -2
89 -21 143 -53 150 -19 5 -21 7 -9 12 22 9 36 -2 53 -42 11 -28 16 -31 21 -18
9 23 -12 85 -42 126 -20 26 -28 31 -39 21 -11 -9 -14 -7 -14 14 0 14 4 28 10
32 10 6 -8 55 -21 55 -4 0 -10 -10 -12 -22 -2 -13 -5 -2 -6 25 -1 38 -7 53
-31 79 -32 33 -40 68 -15 68 9 0 33 -9 55 -20 22 -11 42 -20 45 -20 12 0 4 35
-15 65 -22 35 -52 49 -69 32 -8 -8 -11 -6 -11 5 0 34 31 51 82 45 46 -6 49 -5
59 21 6 15 11 35 12 44 1 9 4 15 8 12 4 -2 5 -22 2 -44 -3 -22 -2 -40 2 -40 4
0 21 12 38 26 23 20 39 25 71 22 37 -2 42 0 55 27 8 16 16 52 18 80 3 27 15
71 29 96 13 26 24 56 24 67 0 12 4 23 9 26 13 8 20 97 10 125 -16 41 -33 8
-34 -63 0 -35 -3 -62 -6 -60 -3 2 -11 -14 -18 -36 -6 -21 -23 -53 -38 -70 -28
-34 -41 -34 -23 -1 21 40 -5 21 -38 -27 -35 -51 -54 -122 -33 -122 7 0 35 21
63 48 43 39 48 41 30 15 -47 -67 -132 -94 -118 -37 6 23 5 24 -14 14 -11 -6
-20 -16 -20 -23 0 -7 -5 -4 -11 6 -10 18 -13 16 -41 -17 -16 -20 -34 -36 -39
-36 -16 0 -10 23 14 48 l22 24 -34 -7 c-23 -5 -31 -4 -27 4 4 6 13 11 21 11
20 0 45 40 45 72 0 34 -12 36 -33 6 -23 -36 -31 -15 -31 85 -1 87 -3 96 -34
148 -19 30 -48 64 -65 75 -18 11 -59 38 -91 58 -62 40 -112 51 -159 36z m121
-45 c26 -14 62 -34 80 -44 37 -21 100 -87 106 -111 20 -73 27 -123 19 -131 -5
-5 -6 -32 -2 -62 3 -28 4 -56 2 -60 -3 -4 -5 -27 -5 -51 0 -31 -7 -51 -24 -72
l-24 -29 6 30 c4 17 11 33 17 36 12 8 -1 31 -14 24 -5 -4 -9 -14 -9 -23 0 -35
-25 -67 -49 -64 -33 5 -61 -25 -61 -65 0 -37 -18 -44 -45 -16 -14 14 -18 14
-26 2 -7 -12 -9 -12 -9 1 -1 12 -3 11 -11 -3 -8 -14 -14 -16 -25 -6 -11 9 -14
9 -14 -2 0 -8 -6 -5 -15 7 -13 17 -14 17 -15 2 0 -10 -6 -18 -14 -18 -8 0 -22
-3 -31 -6 -13 -5 -15 -2 -9 20 5 22 1 33 -21 56 -22 23 -32 27 -42 19 -17 -15
-43 6 -43 35 -1 11 -7 32 -14 45 -12 21 -14 22 -20 5 -4 -9 -3 -20 2 -23 11
-8 22 -51 13 -51 -11 0 -52 46 -46 51 3 3 0 67 -6 142 -11 154 1 232 43 273
33 33 197 114 230 114 16 0 50 -11 76 -25z m-667 -392 c13 -16 12 -17 -3 -4
-10 7 -18 15 -18 17 0 8 8 3 21 -13z m339 -245 c0 -16 -3 -19 -11 -11 -6 6 -8
16 -5 22 11 17 16 13 16 -11z m246 -39 c7 -12 -12 -29 -33 -29 -7 0 -13 7 -13
16 0 10 5 14 16 10 8 -3 12 -2 9 4 -3 6 -2 10 4 10 5 0 13 -5 17 -11z m77 3
c4 8 6 7 6 -4 1 -12 -6 -18 -19 -18 -12 0 -20 7 -20 16 0 13 3 14 14 5 11 -9
15 -9 19 1z m-228 -33 c9 -17 15 -42 13 -57 -3 -24 -5 -22 -16 16 -7 24 -16
50 -19 58 -10 26 6 14 22 -17z m95 12 c0 -14 -5 -18 -20 -14 -21 5 -25 15 -13
26 13 14 33 6 33 -12z m178 8 c-2 -6 -8 -10 -13 -10 -5 0 -11 4 -13 10 -2 6 4
11 13 11 9 0 15 -5 13 -11z m67 -115 c-3 -24 -10 -44 -15 -44 -9 0 -4 81 7
110 10 26 16 -18 8 -66z m-310 -44 c7 -22 6 -23 -9 -11 -9 7 -16 25 -16 40 1
29 11 17 25 -29z m95 40 c0 -5 -2 -10 -4 -10 -3 0 -8 5 -11 10 -3 6 -1 10 4
10 6 0 11 -4 11 -10z m176 -17 c-10 -10 -19 5 -10 18 6 11 8 11 12 0 2 -7 1
-15 -2 -18z m-232 -9 c-5 -21 -3 -25 12 -22 11 2 22 7 26 13 4 5 10 2 14 -8 8
-22 24 -22 25 1 1 15 2 15 6 0 5 -21 43 -19 43 2 0 13 1 13 10 0 9 -13 12 -12
25 4 8 11 15 15 15 10 0 -5 12 -10 28 -9 43 0 42 -36 -2 -71 -29 -23 -47 -29
-96 -31 -56 -2 -63 0 -97 30 -33 30 -35 37 -29 70 4 20 11 37 17 37 5 0 7 -11
3 -26z"></path>
<path class="node" id="node6" d="M1664 1540 c23 -28 56 -114 56 -145 0 -7 10 -36 22 -65 19 -45 23
-50 34 -36 15 21 3 82 -16 78 -8 -2 -11 5 -6 21 7 29 -36 144 -61 163 -10 7
-26 14 -36 14 -17 0 -16 -4 7 -30z"></path>
<path class="node" id="node7" d="M1321 1491 c-11 -32 -21 -69 -21 -83 0 -13 -4 -28 -9 -33 -19 -19
-23 -81 -8 -94 13 -10 16 -7 22 18 3 16 13 35 21 42 8 6 14 17 14 24 0 8 5 15
11 17 15 5 18 168 3 168 -6 0 -21 -26 -33 -59z"></path>
<path class="node" id="node8" d="M1556 1405 c-9 -13 -16 -30 -16 -37 0 -7 -13 3 -28 22 -20 23 -34 31
-45 27 -16 -6 -16 -8 2 -26 10 -10 25 -35 32 -55 8 -21 20 -36 29 -36 9 0 21
15 29 36 7 20 22 45 32 55 11 11 17 24 14 29 -11 17 -32 11 -49 -15z m-16 -85
c0 -5 -4 -10 -10 -10 -5 0 -10 5 -10 10 0 6 5 10 10 10 6 0 10 -4 10 -10z"></path>
<path class="node" id="node9" d="M1373 1355 c-61 -26 -77 -106 -31 -154 32 -35 75 -28 120 20 33 34
38 46 35 76 -7 64 -57 87 -124 58z"></path>
<path class="node" id="node10" d="M1585 1350 c-56 -62 13 -168 101 -158 22 2 34 12 48 42 19 39 19 40
-1 75 -35 61 -111 82 -148 41z"></path>
<path class="node" id="node11" d="M1507 1217 c-32 -37 -35 -76 -7 -100 24 -20 31 -21 29 -4 -1 6 -1 19
0 27 1 13 3 13 10 1 5 -8 8 -19 7 -25 -2 -6 -1 -8 1 -3 3 4 11 7 18 7 8 0 16
8 20 19 7 22 -10 71 -25 71 -5 0 -10 6 -10 14 0 27 -16 25 -43 -7z"></path>
<path class="node" id="node12" d="M1427 1173 c-13 -12 -7 -22 12 -20 15 1 17 4 9 14 -12 15 -13 15 -21
6z"></path>
<path class="node" id="node13" d="M1617 1173 c-11 -11 -8 -20 8 -20 8 0 15 6 15 14 0 14 -12 17 -23 6z"></path>
<path class="node" id="node14" d="M1606 1118 c3 -4 9 -8 15 -8 5 0 9 4 9 8 0 5 -7 9 -15 9 -8 0 -12 -4
-9 -9z"></path>
<path class="node" id="node15" d="M1440 1110 c0 -5 5 -10 10 -10 6 0 10 5 10 10 0 6 -4 10 -10 10 -5 0
-10 -4 -10 -10z"></path>
<path class="node" id="node16" d="M1471 774 c0 -11 3 -14 6 -6 3 7 2 16 -1 19 -3 4 -6 -2 -5 -13z"></path>
<path class="node" id="node17" d="M1600 779 c0 -5 5 -7 10 -4 6 3 10 8 10 11 0 2 -4 4 -10 4 -5 0 -10
-5 -10 -11z"></path>
<path class="node" id="node18" d="M835 1558 c10 -65 15 -78 30 -78 23 0 26 16 13 69 -9 40 -16 51 -31
51 -17 0 -18 -5 -12 -42z"></path>
<path class="node" id="node19" d="M1920 1548 c-27 -44 -27 -67 0 -43 20 18 20 17 20 -17 0 -21 -10 -50
-25 -72 -19 -29 -23 -41 -15 -56 5 -10 10 -28 10 -39 0 -29 15 -26 39 8 25 35
41 98 22 86 -9 -5 -12 -1 -9 16 4 29 28 38 28 10 0 -28 16 -27 24 2 28 106
-44 187 -94 105z"></path>
<path class="node" id="node20" d="M1133 1050 c-13 -5 -23 -16 -23 -25 0 -8 -7 -15 -16 -15 -8 0 -12 5
-9 10 9 14 -35 12 -61 -3 -12 -7 -37 -25 -55 -40 -19 -16 -50 -38 -69 -50 -19
-13 -39 -33 -45 -45 -5 -12 -15 -22 -22 -22 -6 0 -22 -26 -34 -57 -34 -86 -37
-217 -9 -339 12 -52 27 -94 32 -94 6 0 7 10 4 23 -29 94 -30 294 -2 333 30 41
47 -30 22 -88 -12 -28 11 -22 30 7 9 14 17 39 18 55 1 17 7 30 14 30 21 0 14
16 -23 53 -41 41 -52 86 -12 49 30 -29 62 -30 47 -3 -15 28 -12 64 5 87 15 18
16 17 10 -12 -3 -16 -1 -41 4 -55 9 -23 10 -23 10 8 1 22 9 38 27 52 49 39 89
17 44 -24 -30 -27 -24 -34 17 -22 58 18 99 64 107 120 4 27 14 51 22 54 17 6
19 23 2 22 -7 0 -23 -4 -35 -9z"></path>
<path class="node" id="node21" d="M1870 1023 c11 -21 20 -47 20 -58 1 -30 23 -64 56 -86 38 -25 60 -25
34 1 -24 24 -25 39 -5 47 25 9 51 -24 64 -82 7 -30 17 -57 22 -60 5 -4 6 -18
2 -33 -6 -25 -5 -26 11 -13 16 13 17 12 11 -10 -4 -17 1 -35 17 -58 30 -45 53
-53 32 -12 -17 34 -15 82 3 88 41 14 59 -179 27 -299 -15 -58 -12 -87 6 -58
15 24 40 182 40 252 0 114 -33 228 -65 228 -8 0 -15 -8 -15 -18 0 -19 -21 -42
-50 -56 -8 -4 -7 -1 3 7 29 24 33 77 7 110 -12 15 -25 27 -29 27 -5 0 -29 20
-53 45 -42 42 -78 58 -78 35 0 -5 -4 -10 -10 -10 -5 0 -10 9 -10 19 0 19 -18
31 -46 31 -11 0 -10 -8 6 -37z m192 -176 c-9 -19 -11 -13 -10 33 0 53 1 54 10
22 8 -23 8 -39 0 -55z"></path>
<path class="node" id="node22" d="M1171 823 c-11 -23 -10 -29 4 -39 13 -10 14 -17 5 -33 -11 -21 -22
-29 -17 -12 4 16 -13 13 -37 -7 -29 -23 -66 -81 -66 -104 0 -24 9 -22 32 7 24
31 62 32 82 4 8 -12 19 -19 24 -15 24 15 21 215 -4 223 -6 2 -16 -9 -23 -24z"></path>
<path class="node" id="node23" d="M1111 627 c-37 -45 -54 -143 -26 -153 21 -9 45 14 45 42 0 13 5 24
11 24 6 0 8 -9 4 -20 -11 -33 12 -22 24 11 12 36 14 69 5 93 -7 19 -47 21 -63
3z"></path>
<path class="node" id="node24" d="M1020 451 c0 -42 27 -94 45 -87 19 7 30 -13 17 -26 -8 -8 -16 -7 -27
2 -46 38 23 -98 90 -179 42 -50 156 -144 164 -135 3 3 -15 22 -40 44 -92 78
-139 188 -139 322 0 62 -9 84 -25 58 -10 -17 -37 -11 -62 12 l-23 21 0 -32z"></path>
<path class="node" id="node25" d="M1945 440 c-16 -18 -27 -21 -56 -16 l-37 6 0 -58 c1 -139 -46 -250
-141 -328 -29 -24 -49 -44 -45 -44 45 0 209 163 252 249 32 64 35 84 9 63 -16
-14 -27 -6 -27 20 0 14 5 18 19 13 14 -4 22 3 35 30 10 20 16 47 14 62 l-3 25
-20 -22z"></path>
</g>
<g transform="translate(0.000000,225.000000) scale(0.100000,-0.100000)" fill="#8EC273" stroke="none">

<path class="node" id="node27" d="M1404 1665 c-111 -57 -131 -77 -150 -149 -12 -47 -13 -80 -5 -193 6
-75 9 -139 6 -142 -6 -5 35 -51 46 -51 9 0 -2 43 -13 51 -5 3 -6 14 -2 23 6
17 8 16 20 -5 7 -13 13 -34 14 -45 0 -29 26 -50 43 -35 10 8 20 4 42 -19 22
-23 26 -34 21 -56 -6 -22 -4 -25 9 -20 9 3 23 6 31 6 8 0 14 8 14 18 1 15 2
15 15 -2 9 -12 15 -15 15 -7 0 11 3 11 14 2 11 -10 17 -8 25 6 8 14 10 15 11
3 0 -13 2 -13 9 -1 8 12 12 12 26 -2 27 -28 45 -21 45 16 0 40 28 70 61 65 24
-3 49 29 49 64 0 9 4 19 9 23 13 7 26 -16 14 -24 -6 -3 -13 -19 -17 -36 l-6
-30 24 29 c17 21 24 41 24 72 0 24 2 47 5 51 2 4 1 32 -2 60 -4 30 -3 57 2 62
8 8 1 58 -19 131 -6 24 -69 90 -106 111 -89 51 -130 69 -156 69 -15 0 -68 -20
-118 -45z m289 -109 c25 -19 68 -134 61 -163 -5 -16 -2 -23 6 -21 19 4 31 -57
16 -78 -11 -14 -15 -9 -34 36 -12 29 -22 58 -22 65 0 31 -33 117 -56 145 -23
26 -24 30 -7 30 10 0 26 -7 36 -14z m-329 -88 c-1 -50 -6 -84 -13 -86 -6 -2
-11 -9 -11 -17 0 -7 -6 -18 -14 -24 -8 -7 -18 -26 -21 -42 -6 -25 -9 -28 -22
-18 -15 13 -11 75 8 94 5 5 9 20 9 33 0 35 41 142 54 142 7 0 11 -28 10 -82z
m241 -48 c3 -5 -3 -18 -14 -29 -10 -10 -25 -35 -32 -55 -8 -21 -20 -36 -29
-36 -9 0 -21 15 -29 36 -7 20 -22 45 -32 55 -18 18 -18 20 -2 26 11 4 25 -4
45 -27 15 -19 28 -29 28 -22 0 7 7 24 16 37 17 26 38 32 49 15z m-135 -68 c14
-12 24 -33 27 -55 3 -30 -2 -42 -35 -76 -29 -31 -47 -41 -70 -41 -37 0 -67 29
-76 71 -16 81 92 151 154 101z m219 5 c13 -6 33 -28 44 -48 20 -35 20 -36 1
-75 -14 -30 -26 -40 -48 -42 -88 -10 -157 96 -101 158 21 23 68 26 104 7z
m-139 -133 c0 -8 5 -14 10 -14 15 0 32 -49 25 -71 -4 -11 -12 -19 -20 -19 -7
0 -15 -3 -18 -7 -2 -5 -3 -3 -1 3 1 6 -2 17 -7 25 -7 12 -9 12 -10 -1 -1 -8
-1 -21 0 -27 2 -17 -5 -16 -29 4 -28 24 -25 63 7 100 27 32 43 34 43 7z m-102
-57 c8 -10 6 -13 -9 -14 -19 -2 -25 8 -12 20 8 9 9 9 21 -6z m192 0 c0 -8 -7
-14 -15 -14 -16 0 -19 9 -8 20 11 11 23 8 23 -6z m-10 -49 c0 -4 -4 -8 -9 -8
-6 0 -12 4 -15 8 -3 5 1 9 9 9 8 0 15 -4 15 -9z m-170 -8 c0 -5 -4 -10 -10
-10 -5 0 -10 5 -10 10 0 6 5 10 10 10 6 0 10 -4 10 -10z"></path>
<path class="node" id="node28" d="M1520 1320 c0 -5 5 -10 10 -10 6 0 10 5 10 10 0 6 -4 10 -10 10 -5 0
-10 -4 -10 -10z"></path>
<path class="node" id="node29" d="M910 1306 c0 -2 8 -10 18 -17 15 -13 16 -12 3 4 -13 16 -21 21 -21
13z"></path>
<path class="node" id="node30" d="M1254 1059 c-3 -6 -1 -16 5 -22 8 -8 11 -5 11 11 0 24 -5 28 -16 11z"></path>
<path class="node" id="node31" d="M1495 1010 c3 -6 -1 -7 -9 -4 -11 4 -16 0 -16 -10 0 -18 17 -21 39
-7 14 9 7 31 -10 31 -6 0 -7 -4 -4 -10z"></path>
<path class="node" id="node32" d="M1560 1006 c0 -9 8 -16 20 -16 13 0 20 6 19 18 0 11 -2 12 -6 4 -4
-10 -8 -10 -19 -1 -11 9 -14 8 -14 -5z"></path>
<path class="node" id="node33" d="M1343 996 c3 -8 12 -34 19 -58 11 -38 13 -40 16 -16 2 15 -4 40 -13
57 -16 31 -32 43 -22 17z"></path>
<path class="node" id="node34" d="M1427 1003 c-12 -11 -8 -21 13 -26 15 -4 20 0 20 14 0 18 -20 26 -33
12z"></path>
<path class="node" id="node35" d="M1612 999 c2 -6 8 -10 13 -10 5 0 11 4 13 10 2 6 -4 11 -13 11 -9 0
-15 -5 -13 -11z"></path>
<path class="node" id="node36" d="M1697 950 c-11 -29 -16 -110 -7 -110 10 0 24 79 18 106 -4 15 -6 16
-11 4z"></path>
<path class="node" id="node37" d="M1370 869 c0 -15 7 -33 16 -40 15 -12 16 -11 9 11 -14 46 -24 58 -25
29z"></path>
<path class="node" id="node38" d="M1475 880 c3 -5 8 -10 11 -10 2 0 4 5 4 10 0 6 -5 10 -11 10 -5 0 -7
-4 -4 -10z"></path>
<path class="node" id="node39" d="M1656 881 c-4 -7 -5 -15 -2 -18 9 -9 19 4 14 18 -4 11 -6 11 -12 0z"></path>
<path class="node" id="node40" d="M1414 843 c-6 -33 -4 -40 29 -70 34 -30 41 -32 97 -30 49 2 67 8 96
31 44 35 45 71 2 71 -16 -1 -28 4 -28 9 0 5 -7 1 -15 -10 -13 -16 -16 -17 -25
-4 -9 13 -10 13 -10 0 0 -21 -38 -23 -43 -2 -4 15 -5 15 -6 0 -1 -23 -17 -23
-25 -1 -4 10 -10 13 -14 8 -4 -6 -15 -11 -26 -13 -15 -3 -17 1 -12 22 4 15 2
26 -3 26 -6 0 -13 -17 -17 -37z m63 -75 c-3 -8 -6 -5 -6 6 -1 11 2 17 5 13 3
-3 4 -12 1 -19z m143 18 c0 -3 -4 -8 -10 -11 -5 -3 -10 -1 -10 4 0 6 5 11 10
11 6 0 10 -2 10 -4z"></path>
<path class="node" id="node41" d="M2052 880 c-1 -46 1 -52 10 -33 8 16 8 32 0 55 -9 32 -10 31 -10 -22z"></path>
</g>
</svg>