<!--?xml version="1.0" standalone="no"?-->

<svg version="1.0" xmlns="http://www.w3.org/2000/svg" width="283.000000pt" height="300.000000pt" viewBox="0 0 283.000000 300.000000" preserveAspectRatio="xMidYMid meet">
<g transform="translate(0.000000,300.000000) scale(0.100000,-0.100000)" fill="#2B2A2A" stroke="none">
<path class="node" id="node1" d="M1587 2979 c-109 -37 -191 -108 -242 -209 -38 -75 -66 -218 -63 -320
2 -73 -1 -92 -22 -130 -45 -87 -61 -189 -39 -247 24 -66 115 -130 214 -151 89
-19 107 -20 139 -7 17 7 72 23 121 35 93 23 197 71 250 115 25 21 15 18 -50
-14 -94 -46 -209 -85 -279 -94 -42 -6 -47 -5 -36 8 17 21 114 78 178 105 47
20 56 21 80 9 15 -7 30 -15 34 -17 4 -2 15 15 24 37 9 22 24 43 34 46 23 7
115 93 108 100 -3 3 -34 -14 -69 -38 -35 -23 -122 -66 -194 -96 -137 -56 -212
-96 -257 -139 -24 -22 -33 -24 -77 -19 -113 13 -204 97 -203 186 1 47 26 119
63 182 27 46 29 57 29 148 0 191 38 300 139 394 34 31 68 57 74 57 7 0 26 8
42 17 49 27 214 24 288 -5 83 -32 155 -80 210 -142 87 -97 100 -135 127 -385
22 -195 35 -251 81 -333 l30 -54 -45 -46 c-62 -65 -79 -88 -109 -153 -49 -104
-66 -197 -73 -388 -5 -152 -5 -154 -36 -200 -71 -103 -148 -165 -302 -242
l-144 -72 -62 59 c-65 62 -108 128 -136 209 -25 71 -23 212 4 283 53 138 148
245 276 312 l83 44 45 -34 c108 -83 154 -216 124 -360 -21 -100 -68 -188 -143
-270 -56 -61 -158 -139 -168 -129 -2 2 3 19 10 36 9 20 34 45 67 67 60 38 94
73 128 129 26 45 19 62 -11 24 -21 -28 -49 -36 -49 -14 0 6 9 25 20 42 11 16
25 54 31 84 9 45 8 60 -6 97 -15 40 -46 74 -68 74 -5 0 0 -11 11 -25 40 -50
35 -152 -9 -196 -24 -24 -70 -25 -100 0 l-23 18 27 32 c32 38 50 97 37 120 -8
14 -9 14 -10 -1 0 -10 -9 -22 -19 -27 -22 -12 -31 2 -31 50 0 45 15 66 68 94
46 25 46 25 12 20 -19 -4 -59 -18 -88 -32 -40 -19 -57 -34 -73 -66 -20 -39
-21 -41 -3 -54 10 -7 21 -13 26 -13 16 0 7 -42 -21 -103 -15 -34 -31 -69 -34
-77 -3 -8 -3 8 0 37 3 28 3 63 -1 77 -8 34 -35 35 -28 1 3 -16 -9 -53 -32
-101 -41 -86 -45 -128 -16 -183 21 -42 145 -161 167 -161 21 0 85 43 162 109
75 66 147 166 189 263 23 56 26 76 27 178 0 125 -14 172 -72 240 -36 44 -101
90 -126 90 -37 0 -210 -112 -277 -180 -69 -70 -140 -194 -159 -280 -27 -117
-9 -235 55 -367 35 -71 63 -110 125 -175 l79 -83 17 25 c38 55 140 152 187
179 28 16 77 37 108 47 51 17 59 23 69 53 13 39 59 120 95 168 22 29 24 41 24
148 0 255 54 417 187 556 29 31 53 61 53 66 0 6 -11 31 -25 54 -42 73 -64 167
-79 337 -23 246 -61 348 -166 445 -61 57 -179 121 -250 137 -75 16 -189 11
-253 -11z"></path>
<path class="node" id="node2" d="M1791 2644 c-46 -39 -61 -117 -45 -238 7 -46 7 -46 45 -46 22 0 39 5
39 10 0 6 -13 10 -29 10 -27 0 -29 4 -36 48 -11 64 -10 90 4 138 13 47 24 59
63 69 63 16 143 -120 108 -183 -9 -15 -29 -30 -48 -36 -40 -11 -52 -1 -82 69
l-21 50 5 -44 c11 -102 86 -132 165 -65 17 14 31 34 31 45 0 36 -41 126 -74
162 -41 45 -80 49 -125 11z"></path>
<path class="node" id="node3" d="M1824 2528 c3 -64 24 -98 61 -98 35 0 49 24 41 76 -3 25 -10 53 -15
62 -7 12 -8 3 -4 -28 6 -40 5 -44 -10 -32 -13 11 -16 10 -20 -10 -3 -15 -5 -9
-7 17 l-2 40 -9 -34 c-12 -40 -20 -34 -30 22 -7 39 -8 37 -5 -15z"></path>
<path class="node" id="node4" d="M73 2081 c7 -60 31 -109 94 -193 74 -98 98 -139 117 -194 16 -50 16
-54 -3 -110 -32 -90 -101 -150 -101 -87 0 23 -2 25 -13 13 -7 -8 -19 -32 -26
-54 -11 -32 -11 -40 0 -47 11 -6 9 -12 -5 -28 -22 -24 -41 -27 -50 -8 -4 6 -4
1 -2 -12 4 -17 -7 -35 -39 -70 l-44 -47 25 -82 c26 -86 48 -112 93 -112 25 0
25 0 -8 34 -73 75 -48 182 73 317 96 105 118 146 124 230 7 99 -9 142 -94 254
-41 54 -74 102 -74 107 0 4 37 -16 83 -45 68 -44 88 -63 117 -112 19 -33 72
-96 116 -141 98 -98 118 -131 111 -191 -2 -23 -3 -43 -1 -43 1 0 15 5 30 10
l27 11 -5 -94 c-4 -75 -10 -104 -29 -138 -28 -51 -99 -107 -164 -130 l-46 -17
6 32 c4 17 18 52 31 79 22 42 22 47 7 47 -50 -1 -176 -89 -205 -144 -10 -19
-10 -20 9 -6 11 8 47 36 79 62 33 27 62 48 66 48 3 0 -7 -24 -23 -52 -16 -29
-29 -65 -29 -80 0 -24 4 -28 30 -28 39 0 137 37 180 69 49 36 97 90 117 131
18 37 19 74 8 176 -5 38 -3 69 4 81 14 28 2 36 -26 18 -22 -15 -22 -15 -11 10
17 39 -3 70 -75 115 -35 22 -73 54 -86 70 -28 39 -81 150 -81 171 0 11 -12 18
-39 22 -52 7 -114 50 -194 137 -35 38 -68 70 -72 70 -4 0 -5 -22 -2 -49z"></path>
<path class="node" id="node5" d="M1435 2070 c3 -5 8 -10 11 -10 2 0 4 5 4 10 0 6 -5 10 -11 10 -5 0
-7 -4 -4 -10z"></path>
<path class="node" id="node6" d="M2394 1834 c19 -27 76 -91 126 -143 103 -107 126 -136 135 -173 8
-30 -20 -98 -40 -98 -18 0 -202 92 -265 132 -30 20 -79 54 -108 78 -30 23 -55
40 -58 38 -7 -8 87 -143 133 -190 l45 -46 -4 -99 c-2 -73 -8 -107 -21 -126
-22 -33 -34 -34 -81 -2 -20 13 -36 23 -36 21 0 -2 11 -57 24 -122 75 -365 25
-567 -174 -696 l-45 -30 35 7 c48 9 108 46 152 92 54 56 114 181 129 266 15
94 7 227 -20 294 -16 41 -17 52 -6 56 21 9 55 112 70 216 23 147 22 151 -29
186 -24 17 -49 38 -55 48 -6 9 11 1 38 -18 27 -19 63 -40 80 -46 28 -10 31
-15 31 -51 0 -61 13 -79 52 -67 18 5 38 15 46 23 12 12 21 9 66 -25 68 -52 76
-50 76 11 l0 51 28 -14 c40 -21 82 -29 82 -17 0 6 -7 25 -16 42 -16 30 -16 31
15 55 38 30 39 39 4 46 -97 19 -208 99 -335 241 -99 111 -129 135 -74 60z"></path>
<path stroke-width="20" class="node" id="node7" d="M1520 1769 c-58 -50 -147 -131 -198 -181 l-93 -91 -35 11 c-28 8 -35
8 -31 -2 3 -7 1 -19 -3 -26 -7 -11 -11 -11 -24 -1 -9 8 -16 20 -16 27 0 8 -4
14 -10 14 -5 0 -10 -21 -10 -46 l0 -47 38 6 c20 4 44 15 52 25 11 14 25 17 52
14 34 -4 38 -1 81 60 25 35 56 73 68 83 12 11 1 -11 -25 -49 -27 -38 -53 -83
-58 -100 -6 -17 -14 -36 -19 -41 -23 -30 -51 -176 -50 -265 0 -251 127 -438
351 -516 105 -36 109 -34 135 61 27 98 60 156 121 215 l48 45 -43 -50 c-68
-79 -93 -137 -98 -231 -5 -73 -3 -88 20 -138 33 -71 70 -120 112 -146 49 -30
51 -24 6 26 -104 119 -131 263 -72 387 34 72 85 127 154 167 36 21 44 29 32
34 -81 31 -216 -77 -293 -236 -23 -47 -42 -91 -42 -97 0 -12 -27 -8 -95 16
-203 71 -307 278 -275 549 7 55 15 104 19 109 4 6 13 30 20 55 21 75 90 196
147 261 30 33 52 64 49 69 -3 4 9 20 25 34 38 31 85 86 73 85 -4 0 -55 -41
-113 -90z m4 -43 c-3 -7 -17 -19 -32 -25 -27 -12 -27 -12 3 13 35 30 36 30 29
12z m-74 -60 c0 -2 -8 -10 -17 -17 -16 -13 -17 -12 -4 4 13 16 21 21 21 13z"></path>
<path class="node" id="node8" d="M1134 1732 c-5 -23 -13 -30 -50 -40 -50 -14 -56 -32 -20 -59 l24 -18
-32 -27 c-26 -23 -29 -29 -16 -38 25 -16 60 -12 60 8 0 9 9 23 21 30 19 12 20
15 5 31 -23 25 -20 32 10 21 29 -11 77 -13 87 -4 3 4 0 16 -8 28 -8 11 -15 24
-15 28 0 12 78 10 101 -2 28 -15 24 -35 -17 -80 -20 -22 -32 -40 -28 -40 22 1
114 104 114 128 0 6 -24 13 -52 17 -29 4 -75 16 -103 26 -66 25 -74 24 -81 -9z"></path>
<path class="node" id="node9" d="M367 1661 c3 -10 0 -44 -7 -75 -9 -44 -26 -75 -88 -157 -128 -168
-127 -167 -127 -225 0 -42 5 -58 22 -76 12 -12 24 -20 26 -17 18 23 44 79 37
79 -5 0 -14 -9 -20 -20 -19 -35 -30 -22 -30 35 0 35 6 66 17 83 16 26 93 119
142 172 27 29 61 93 61 115 0 36 21 9 50 -67 36 -93 50 -224 32 -292 -11 -37
-11 -38 8 -21 73 67 44 265 -62 422 -42 61 -71 83 -61 44z"></path>
<path class="node" id="node10" d="M1201 1339 c-101 -101 -181 -287 -181 -422 0 -164 112 -301 245 -300
51 0 101 19 124 47 17 20 4 20 -42 1 -46 -19 -98 -19 -144 0 -70 30 -97 70
-128 192 -16 63 -17 80 -6 140 19 103 70 219 147 336 30 45 25 47 -15 6z"></path>
<path class="node" id="node11" d="M298 1153 c-69 -82 -120 -224 -143 -400 -15 -117 39 -306 111 -392
96 -114 397 -211 654 -211 67 0 239 20 310 37 142 33 324 117 437 201 85 64
104 93 84 130 -11 20 -83 82 -95 82 -4 0 -26 9 -49 19 -48 22 -119 31 -124 16
-1 -6 17 -18 42 -28 55 -23 95 -68 95 -108 0 -68 -138 -159 -325 -214 -359
-104 -801 -50 -971 121 -68 67 -82 121 -42 164 l21 23 -27 48 c-57 101 -69
198 -41 313 20 78 33 110 67 169 27 46 25 63 -4 30z"></path>
<path class="node" id="node12" d="M283 987 c-8 -16 -13 -67 -13 -120 1 -107 24 -176 84 -250 40 -49
143 -124 216 -156 39 -17 47 -18 61 -6 17 17 179 75 206 75 13 0 14 3 6 11 -7
7 -19 8 -30 4 -28 -12 -51 -15 -156 -22 -92 -5 -99 -4 -135 20 -74 50 -159
156 -184 229 -6 18 -15 38 -20 45 -6 7 -13 54 -16 105 -6 84 -8 90 -19 65z"></path>
<path class="node" id="node13" d="M1045 626 c-33 -19 -76 -51 -95 -72 l-35 -37 34 7 c18 3 40 6 48 6
13 0 13 3 2 16 -11 13 -8 19 17 39 42 35 85 48 118 35 46 -17 52 -11 14 15
-20 14 -38 25 -40 25 -2 0 -30 -16 -63 -34z"></path>
<path class="node" id="node14" d="M1287 584 c-4 -4 -35 -9 -69 -11 -152 -9 -182 -22 -218 -94 -19 -36
-27 -109 -14 -121 3 -4 28 10 55 30 46 35 48 37 24 40 -20 3 -25 9 -25 31 0
15 9 36 20 46 17 16 20 16 26 2 3 -9 35 -35 70 -58 35 -23 78 -57 95 -76 16
-19 32 -33 35 -31 2 3 7 25 10 51 l7 46 -34 -5 c-45 -7 -72 14 -72 55 0 37 21
56 81 73 23 7 42 16 42 20 0 10 -24 11 -33 2z"></path>
<path class="node" id="node15" d="M1834 383 c-4 -16 -18 -53 -31 -82 -25 -57 -43 -184 -27 -194 9 -5
94 67 94 80 0 3 -10 3 -21 0 -26 -7 -59 12 -59 34 0 19 47 65 80 77 14 5 63
13 110 16 91 8 167 35 197 69 18 20 17 20 -2 13 -120 -47 -243 -72 -291 -60
-36 9 -29 24 9 18 l32 -6 -35 30 c-43 38 -48 39 -56 5z"></path>
<path class="node" id="node16" d="M2220 358 c0 -48 -19 -62 -64 -50 -25 7 -38 7 -45 -2 -8 -10 -29 -83
-56 -201 l-7 -30 -15 40 c-10 30 -11 46 -3 64 6 13 9 26 6 28 -9 9 -28 -10
-41 -40 -11 -27 -10 -35 14 -76 15 -25 31 -55 35 -66 7 -19 8 -19 21 -2 7 10
23 71 35 135 12 64 25 122 29 129 9 17 104 -31 121 -61 21 -40 7 -60 -40 -53
-36 5 -39 3 -30 -13 6 -10 18 -21 29 -25 10 -3 26 -14 36 -25 27 -30 33 -25
40 35 9 68 -16 176 -52 230 -12 18 -13 17 -13 -17z"></path>
</g>
<g transform="translate(0.000000,300.000000) scale(0.100000,-0.100000)" fill="#56F5BD" stroke="none">



</g>
</svg>