<!--?xml version="1.0" standalone="no"?-->

<svg version="1.0" xmlns="http://www.w3.org/2000/svg" width="225.000000pt" height="300.000000pt" viewBox="0 0 225.000000 300.000000" preserveAspectRatio="xMidYMid meet">
<g transform="translate(0.000000,300.000000) scale(0.100000,-0.100000)" fill="#6A1515" stroke="none">
<path class="node" id="node1" d="M661 2785 c-2 -187 54 -512 124 -717 60 -176 234 -498 269 -498 6 0
22 20 35 43 l24 44 -58 89 c-32 49 -66 100 -75 114 -27 40 -105 206 -143 305
-48 126 -112 357 -137 500 -38 211 -38 210 -39 120z"></path>
<path class="node" id="node2" d="M1577 2815 c-65 -401 -156 -680 -310 -956 -20 -36 -37 -71 -37 -78 0
-18 44 -81 56 -81 18 0 128 224 173 355 72 204 140 606 129 760 l-3 50 -8 -50z"></path>
<path class="node" id="node3" d="M544 2378 c3 -13 19 -75 36 -138 56 -218 158 -463 258 -621 l39 -61
32 46 c32 47 32 47 14 76 -142 229 -251 435 -324 612 -24 59 -48 108 -53 108
-4 0 -6 -10 -2 -22z"></path>
<path class="node" id="node4" d="M1661 2317 c-88 -214 -212 -449 -349 -657 -41 -63 -77 -122 -79 -131
-4 -14 40 -99 51 -99 3 0 96 138 140 209 92 146 191 388 246 601 16 63 32 125
36 138 3 12 2 22 -2 22 -5 0 -24 -38 -43 -83z"></path>
<path class="node" id="node5" d="M1034 2053 c-26 -56 -30 -136 -9 -184 10 -21 23 -39 29 -39 6 0 22
20 34 44 l24 44 -21 40 c-12 24 -21 60 -21 87 0 55 -12 57 -36 8z"></path>
<path class="node" id="node6" d="M1180 2050 c0 -52 -16 -91 -79 -186 -28 -42 -51 -78 -51 -81 0 -9 54
-83 61 -83 11 0 101 136 118 178 17 41 10 125 -13 175 -24 48 -36 47 -36 -3z"></path>
<path class="node" id="node7" d="M1165 1743 c-14 -21 -25 -41 -25 -46 0 -9 80 -137 85 -137 2 0 18 20
35 45 l32 46 -43 64 c-24 36 -46 65 -51 65 -4 0 -19 -17 -33 -37z"></path>
<path class="node" id="node8" d="M938 1618 c-71 -94 -202 -308 -248 -404 -29 -60 -56 -117 -62 -128
-22 -41 -91 -256 -114 -353 -25 -107 -32 -176 -12 -118 6 17 23 58 39 93 16
35 29 66 29 68 0 10 142 290 183 361 23 40 93 150 155 245 61 94 112 176 112
181 0 14 -43 87 -51 87 -3 0 -18 -15 -31 -32z"></path>
<path class="node" id="node9" d="M1091 1589 c-23 -34 -41 -63 -41 -65 0 -2 13 -24 29 -49 l30 -47 35
49 c61 83 61 84 30 131 -15 23 -31 42 -35 42 -4 0 -26 -28 -48 -61z"></path>
<path class="node" id="node10" d="M990 1479 c-14 -22 -24 -45 -22 -50 6 -23 76 -119 86 -119 6 0 22 20
35 43 l24 44 -42 61 c-23 34 -45 62 -49 62 -4 0 -18 -18 -32 -41z"></path>
<path class="node" id="node11" d="M1166 1479 c-15 -22 -25 -47 -22 -54 3 -8 42 -69 87 -137 181 -269
294 -546 365 -888 13 -63 26 -143 30 -178 4 -34 11 -65 15 -68 22 -13 2 231
-37 451 -37 214 -95 392 -183 567 -46 92 -209 347 -222 348 -4 0 -19 -18 -33
-41z"></path>
<path class="node" id="node12" d="M1337 1476 l-28 -44 69 -104 c124 -186 284 -492 356 -679 32 -83 33
-47 1 84 -58 244 -160 487 -288 685 -37 56 -70 102 -74 102 -5 0 -21 -20 -36
-44z"></path>
<path class="node" id="node13" d="M904 1305 c-151 -232 -256 -562 -294 -927 -12 -119 -13 -239 -1 -218
5 8 12 42 16 75 9 83 47 257 84 390 57 206 152 421 257 583 30 45 54 87 54 93
0 15 -44 89 -53 89 -4 0 -32 -38 -63 -85z"></path>
<path class="node" id="node14" d="M1057 1275 c-42 -63 -77 -120 -77 -126 0 -17 134 -209 146 -209 10 0
136 183 142 207 3 12 -58 113 -69 113 -15 0 -60 -82 -54 -99 8 -25 -18 -46
-34 -27 -9 11 -1 30 39 91 28 42 50 79 48 83 -8 18 -54 82 -58 82 -3 0 -40
-52 -83 -115z"></path>



</g>
<g transform="translate(0.000000,300.000000) scale(0.100000,-0.100000)" fill="#FFFFFF" stroke="none">

</g>
</svg>