<!--?xml version="1.0" standalone="no"?-->

<svg version="1.0" xmlns="http://www.w3.org/2000/svg" width="162.000000pt" height="300.000000pt" viewBox="0 0 162.000000 300.000000" preserveAspectRatio="xMidYMid meet">
<g transform="translate(0.000000,300.000000) scale(0.100000,-0.100000)" fill="#111111" stroke="none">
<path class="node" id="node1" d="M595 2908 c-119 -148 -220 -326 -291 -508 -55 -145 -104 -362 -104
-468 0 -48 2 -54 28 -64 15 -7 44 -23 64 -35 44 -27 56 -29 38 -8 -7 9 -10 18
-7 21 9 10 123 -55 153 -88 l29 -30 -24 -19 c-34 -27 -218 -28 -291 0 -27 11
-50 15 -50 10 0 -5 -9 -9 -20 -9 -22 0 -60 53 -60 83 0 22 19 22 35 1 9 -14
13 8 19 109 11 218 64 478 140 691 20 55 36 102 36 105 -1 15 -69 -106 -115
-204 -64 -134 -102 -237 -121 -329 -38 -182 -61 -428 -47 -506 l8 -45 70 -3
c84 -4 136 4 132 21 -1 6 8 13 20 15 38 6 195 -26 212 -43 15 -15 14 -18 -8
-34 -46 -35 -94 -42 -235 -35 -74 4 -146 4 -161 0 l-28 -7 6 -117 c8 -156 67
-498 121 -713 58 -227 95 -330 62 -172 -46 218 -89 617 -85 778 3 84 2 90 -16
90 -28 0 -31 37 -5 60 14 13 33 18 55 16 18 -1 86 9 150 24 167 37 252 21 204
-38 -11 -15 -34 -34 -49 -42 -33 -17 -105 -21 -95 -5 9 15 -8 12 -69 -10 -63
-24 -61 -20 -72 -195 -14 -237 33 -561 118 -810 45 -131 145 -352 155 -342 2
3 -8 44 -23 93 -122 409 -174 716 -159 952 6 108 6 113 -16 131 -20 16 -21 20
-8 47 12 23 21 29 46 29 18 0 41 9 55 21 36 34 79 52 154 65 55 9 64 14 46 20
-26 10 -28 22 -6 40 13 11 27 7 87 -24 67 -35 117 -47 117 -29 0 4 -29 20 -63
35 -65 28 -101 64 -113 111 -9 36 5 33 68 -16 29 -22 60 -46 68 -52 8 -6 -5
12 -28 40 -40 48 -62 96 -62 136 0 27 16 21 39 -14 l21 -33 -7 83 c-11 148 37
85 63 -81 7 -49 16 -92 20 -96 11 -10 -6 217 -22 294 -8 39 -22 94 -31 123
l-17 54 -11 -33 c-16 -45 -38 -58 -63 -36 -18 16 -20 17 -26 1 -5 -13 -9 -14
-22 -3 -22 18 -15 84 9 83 11 -1 17 5 17 20 0 11 13 58 28 104 16 45 25 82 21
82 -17 0 -110 -115 -134 -167 -33 -68 -48 -187 -22 -165 20 17 31 0 23 -34 -5
-19 -13 -24 -39 -24 -43 0 -86 28 -132 86 -22 27 -42 53 -47 58 -4 5 -13 4
-22 -3 -11 -10 -17 -8 -30 11 -29 41 -15 95 22 86 18 -5 20 1 25 106 9 200 82
381 314 784 14 23 23 42 20 42 -2 0 -30 -33 -62 -72z m69 -1080 c9 -35 7 -88
-3 -88 -5 0 -14 23 -20 50 -14 63 -14 60 3 60 7 0 16 -10 20 -22z m-78 -123
c16 -38 18 -65 6 -65 -10 0 -42 65 -42 85 0 27 21 15 36 -20z m-16 -175 c-1
-10 -9 -6 -25 13 -14 15 -25 36 -25 45 1 13 7 9 25 -13 14 -16 25 -37 25 -45z"></path>
<path class="node" id="node2" d="M994 2920 c13 -25 56 -101 95 -170 139 -244 211 -457 211 -619 l0
-87 28 1 c22 0 28 -5 30 -27 5 -38 -14 -68 -43 -68 -16 0 -40 -19 -80 -64 -77
-88 -145 -108 -160 -49 -8 32 11 55 26 33 24 -34 1 111 -26 166 -25 52 -118
164 -135 164 -5 0 2 -27 15 -59 14 -33 27 -77 31 -99 4 -28 12 -42 25 -45 14
-4 19 -14 19 -40 0 -43 -23 -67 -39 -40 -10 17 -12 17 -25 1 -23 -30 -44 -21
-58 23 l-12 42 -18 -54 c-37 -107 -70 -390 -48 -404 6 -4 10 8 10 28 0 81 40
217 63 217 6 0 8 -30 4 -82 -4 -66 -3 -79 6 -64 7 10 20 28 29 40 17 21 17 21
18 -12 0 -44 -20 -90 -60 -135 -18 -20 -30 -37 -27 -37 2 0 31 20 63 45 81 64
95 58 49 -20 -20 -35 -37 -48 -90 -71 -36 -16 -65 -32 -65 -36 0 -18 49 -6
118 28 69 34 75 35 90 20 16 -16 15 -18 -8 -36 l-25 -20 49 0 c68 0 120 -18
165 -56 26 -23 41 -30 48 -23 15 15 45 -3 63 -36 13 -25 13 -29 -8 -45 -22
-18 -22 -23 -16 -137 13 -249 -36 -543 -160 -953 -38 -126 -28 -124 34 5 104
218 185 518 211 785 11 119 7 375 -7 427 -4 16 -22 28 -60 43 -61 22 -78 25
-69 10 11 -17 -54 -11 -93 9 -20 10 -45 28 -56 40 -16 18 -17 23 -5 37 19 23
189 14 279 -14 55 -18 66 -19 80 -7 11 10 20 11 35 3 47 -26 60 -74 23 -83
-23 -6 -23 -8 -24 -198 -2 -151 -8 -230 -29 -372 -22 -149 -55 -326 -80 -430
-3 -11 2 -4 11 15 40 87 160 627 188 848 22 172 21 269 -1 276 -29 9 -101 9
-209 1 -96 -7 -104 -6 -158 18 -31 14 -56 31 -56 37 0 21 84 48 162 52 48 2
77 -1 77 -7 0 -5 10 -13 23 -17 35 -9 161 -9 177 1 11 7 13 44 8 202 -8 287
-54 468 -178 709 -83 160 -109 191 -68 80 85 -232 149 -555 149 -755 0 -62 1
-65 19 -55 37 19 39 -32 3 -72 -16 -20 -48 -24 -54 -8 -2 6 -26 1 -58 -12
-103 -41 -290 -24 -290 26 0 19 52 62 111 92 60 30 78 31 53 3 -22 -25 -20
-25 64 19 61 32 62 33 62 75 0 66 -28 233 -56 337 -61 226 -209 503 -349 655
l-46 50 25 -45z m-4 -1081 c0 -25 -23 -99 -31 -99 -12 0 -11 52 1 84 9 26 30
36 30 15z m80 -115 c0 -22 -30 -84 -41 -84 -14 0 -11 26 8 65 18 37 33 46 33
19z m30 -138 c0 -19 -49 -76 -50 -58 0 11 39 72 47 72 2 0 3 -6 3 -14z"></path>
<path class="node" id="node3" d="M630 1353 c-117 -42 -190 -165 -190 -318 0 -80 34 -214 74 -294 38
-74 141 -223 177 -256 18 -16 27 -22 20 -12 -21 27 -5 32 25 8 34 -27 97 -28
147 -1 36 20 49 16 25 -8 -6 -6 -9 -14 -6 -17 14 -15 165 203 213 308 51 114
68 192 63 294 -8 161 -78 267 -198 297 -23 6 -23 5 -6 -6 44 -30 88 -73 103
-102 36 -70 47 -155 27 -218 -13 -44 -39 -7 -55 79 -11 58 -72 193 -88 193 -4
0 5 -48 20 -107 20 -77 28 -133 29 -195 0 -94 -5 -118 -26 -118 -15 0 -20 15
-33 120 -10 71 -48 216 -56 208 -2 -2 1 -39 7 -83 10 -76 4 -321 -8 -393 -17
-91 -40 7 -55 228 -15 234 -24 311 -32 280 -8 -31 -37 -371 -37 -438 0 -55
-18 -118 -31 -105 -26 27 -36 392 -13 483 5 17 3 22 -4 15 -16 -15 -52 -148
-52 -191 0 -47 -17 -111 -31 -120 -23 -14 -30 24 -25 131 3 75 13 138 30 198
15 53 21 87 14 85 -19 -7 -56 -87 -83 -178 -28 -96 -38 -116 -54 -106 -16 11
-13 135 5 189 17 49 87 137 109 137 8 0 17 5 20 10 7 11 -1 12 -25 3z m-40
-544 c0 -28 -4 -48 -9 -45 -12 8 -23 70 -15 90 11 29 24 6 24 -45z m467 8 c-8
-58 -27 -72 -27 -20 0 50 8 75 22 67 6 -4 8 -24 5 -47z m-373 -74 c13 -46 18
-113 8 -113 -13 0 -32 62 -32 103 0 30 16 37 24 10z m272 -40 c-8 -73 -26 -94
-26 -32 0 54 9 89 23 89 6 0 7 -21 3 -57z m-112 -86 c12 -49 -2 -91 -32 -95
-23 -4 -42 28 -42 68 0 75 57 96 74 27z"></path>
</g>
<g transform="translate(0.000000,300.000000) scale(0.100000,-0.100000)" fill="#A9A9A9" stroke="none">

<path class="node" id="node5" d="M960 1824 c-12 -32 -13 -84 -1 -84 8 0 31 74 31 99 0 21 -21 11 -30
-15z"></path>
<path class="node" id="node6" d="M1037 1705 c-19 -39 -22 -65 -8 -65 11 0 41 62 41 84 0 27 -15 18
-33 -19z"></path>
<path class="node" id="node7" d="M1072 1570 c-12 -16 -22 -35 -22 -42 1 -18 50 39 50 58 0 20 -3 18
-28 -16z"></path>
<path class="node" id="node8" d="M566 854 c-8 -20 3 -82 15 -90 5 -3 9 17 9 45 0 51 -13 74 -24 45z"></path>
<path class="node" id="node9" d="M1036 854 c-3 -9 -6 -34 -6 -57 0 -52 19 -38 27 20 5 41 -10 67 -21
37z"></path>
<path class="node" id="node10" d="M660 733 c0 -41 19 -103 32 -103 10 0 5 67 -8 113 -8 27 -24 20 -24
-10z"></path>
<path class="node" id="node11" d="M936 738 c-10 -38 -7 -113 4 -102 14 14 25 124 13 124 -6 0 -13 -10
-17 -22z"></path>
<path class="node" id="node12" d="M780 635 c-21 -56 -3 -118 32 -113 49 7 49 129 1 136 -17 3 -26 -3
-33 -23z"></path>
<path class="node" id="node13" d="M630 1845 c0 -2 5 -27 11 -55 12 -56 29 -67 29 -17 0 47 -10 77 -26
77 -8 0 -14 -2 -14 -5z"></path>
<path class="node" id="node14" d="M550 1725 c0 -20 32 -85 42 -85 12 0 10 27 -6 65 -15 35 -36 47 -36
20z"></path>
<path class="node" id="node15" d="M520 1588 c0 -9 11 -30 25 -45 33 -38 33 -8 0 32 -18 22 -24 26 -25
13z"></path>
</g>
</svg>