<!--?xml version="1.0" standalone="no"?-->

<svg version="1.0" xmlns="http://www.w3.org/2000/svg" width="300.000000pt" height="300.000000pt" viewBox="0 0 300.000000 300.000000" preserveAspectRatio="xMidYMid meet">
<g transform="translate(0.000000,300.000000) scale(0.100000,-0.100000)" fill="#161515" stroke="none">

<path class="node" id="node2" d="M1334 2727 c-152 -90 -228 -257 -190 -421 17 -70 37 -107 90 -164 35
-37 38 -32 -69 -106 -165 -115 -323 -186 -414 -186 -39 -1 -34 6 -89 -120 -50
-114 -94 -274 -112 -405 -7 -44 -14 -90 -17 -102 -3 -13 -1 -23 5 -23 5 0 12
19 16 41 13 82 103 275 172 369 84 114 213 220 331 271 69 30 186 70 191 65 2
-3 -8 -40 -22 -83 -78 -237 -17 -480 148 -592 73 -49 71 -52 72 73 l2 112 -39
22 c-62 36 -92 98 -97 202 -9 191 86 352 199 337 86 -11 164 -130 175 -269 11
-131 -22 -222 -98 -269 l-37 -23 2 -112 2 -112 38 21 c42 23 116 95 147 142
44 66 64 153 63 270 -1 95 -5 121 -31 193 -16 45 -27 84 -23 86 8 6 134 -36
201 -67 159 -72 304 -212 397 -387 43 -79 103 -243 103 -279 0 -11 5 -21 11
-21 6 0 9 7 5 15 -3 8 -10 54 -16 102 -17 139 -71 331 -131 461 -37 80 -39 82
-72 82 -52 0 -162 37 -247 82 -82 44 -260 165 -260 177 0 4 13 20 29 35 15 15
41 53 57 84 27 52 29 66 29 162 0 96 -3 110 -29 161 -38 77 -124 163 -181 183
-17 6 -16 3 6 -21 93 -101 122 -230 82 -365 -18 -62 -37 -74 -47 -33 -7 26
-61 85 -79 85 -5 0 -6 -10 -2 -22 25 -81 28 -109 16 -148 -16 -54 -50 -71 -93
-47 -27 15 -32 15 -51 2 -78 -54 -138 58 -91 170 8 20 13 39 10 42 -10 11 -69
-42 -82 -73 -8 -19 -18 -34 -23 -34 -18 0 -41 95 -41 171 0 97 25 169 81 233
41 46 42 56 3 33z"></path>
<path class="node" id="node3" d="M1160 1850 c-8 -6 -69 -43 -135 -83 -188 -116 -194 -121 -202 -147
-11 -43 -7 -470 5 -560 40 -273 134 -505 282 -690 28 -35 25 -24 -15 57 -62
125 -106 265 -136 433 -24 129 -34 428 -21 594 l9 120 34 25 c18 15 65 53 104
87 60 52 71 66 77 103 4 24 13 49 19 57 13 16 2 18 -21 4z"></path>
<path class="node" id="node4" d="M1824 1834 c4 -14 10 -39 13 -55 6 -31 79 -104 165 -166 45 -33 47
-36 54 -101 15 -128 9 -488 -10 -602 -33 -202 -85 -368 -162 -522 -30 -60 -24
-56 33 22 139 192 224 419 253 668 11 95 13 465 4 524 -6 34 -16 44 -93 96
-47 33 -112 75 -144 93 -33 19 -72 42 -89 52 l-30 18 6 -27z"></path>
<path class="node" id="node5" d="M1068 1561 c-26 -14 -49 -35 -52 -46 -12 -43 -5 -322 10 -424 38
-264 129 -470 319 -728 33 -45 61 -80 62 -79 2 1 -19 47 -46 102 -116 231
-163 478 -137 709 7 59 6 61 -30 100 -77 83 -109 204 -85 326 7 33 11 62 9 64
-2 1 -24 -9 -50 -24z"></path>
<path class="node" id="node6" d="M1883 1554 c19 -118 19 -152 3 -208 -19 -66 -55 -128 -97 -168 -28
-27 -28 -30 -18 -78 12 -58 7 -253 -10 -355 -15 -93 -72 -257 -127 -369 -49
-97 -45 -97 32 4 41 54 81 116 154 240 27 44 65 136 94 225 53 159 71 282 71
493 0 204 5 188 -78 237 l-29 18 5 -39z"></path>



</g>
<g transform="translate(0.000000,300.000000) scale(0.100000,-0.100000)" fill="#A39E9E" stroke="none">

</g>
</svg>