<!--?xml version="1.0" standalone="no"?-->

<svg version="1.0" xmlns="http://www.w3.org/2000/svg" width="300.000000pt" height="278.000000pt" viewBox="0 0 300.000000 278.000000" preserveAspectRatio="xMidYMid meet">
<g transform="translate(0.000000,278.000000) scale(0.100000,-0.100000)" fill="#131213" stroke="none">
<path class="node" id="node1" d="M1988 2770 c-14 -4 -39 -15 -55 -24 -110 -61 -229 -102 -340 -117
-48 -6 -105 -18 -126 -27 -43 -18 -213 -190 -200 -203 12 -12 223 13 223 26 0
15 37 46 80 67 53 27 200 58 200 44 0 -29 -122 -152 -170 -173 -63 -26 -41
-32 112 -28 150 4 151 4 61 -7 -51 -5 -93 -13 -93 -17 0 -8 110 -31 181 -38
51 -5 88 9 151 60 21 17 40 28 44 25 3 -3 -6 -15 -20 -26 -15 -11 -26 -23 -26
-26 0 -13 67 -5 193 24 73 17 150 35 173 40 48 11 184 72 184 83 0 18 -250 -7
-314 -32 -29 -12 -29 -11 -13 11 21 30 81 138 90 161 3 9 2 17 -3 17 -27 0
-298 -158 -361 -211 -26 -21 -49 -39 -52 -39 -3 0 5 19 18 43 13 23 29 65 36
92 6 28 16 57 20 67 9 17 42 209 37 213 -2 1 -15 -1 -30 -5z"></path>
<path class="node" id="node2" d="M2945 2525 c-65 -51 -230 -119 -405 -167 -122 -33 -141 -37 -232 -42
-84 -5 -187 -32 -233 -63 -17 -11 -11 -13 46 -13 75 0 213 -31 272 -62 22 -11
62 -40 89 -66 l49 -45 104 71 c58 40 107 72 109 72 9 0 -18 -65 -62 -150 -61
-118 -127 -208 -158 -216 -14 -4 -66 -1 -116 5 -96 12 -127 5 -90 -21 87 -60
227 -229 247 -298 8 -24 7 -24 -16 -7 -54 38 -199 99 -199 84 0 -14 137 -138
169 -153 63 -30 153 -126 191 -203 18 -39 38 -67 43 -64 21 13 -18 216 -67
355 -17 47 -40 85 -75 125 l-52 58 68 6 c149 14 188 48 235 208 71 242 112
404 127 499 19 122 13 133 -44 87z"></path>
<path class="node" id="node3" d="M1615 2448 c-16 -6 -39 -19 -51 -29 -14 -14 -36 -19 -75 -19 -30 -1
-102 -7 -161 -14 -84 -11 -117 -20 -155 -42 -26 -15 -109 -49 -183 -74 -217
-74 -204 -65 -298 -203 -45 -67 -125 -168 -177 -224 -99 -105 -110 -129 -80
-169 13 -17 14 -17 15 -1 0 14 3 15 19 5 18 -11 14 -14 -40 -33 -77 -26 -138
-75 -257 -205 -101 -112 -152 -182 -152 -213 0 -10 8 -37 19 -60 10 -23 21
-49 25 -57 3 -8 15 -30 27 -49 11 -19 17 -37 12 -41 -4 -3 -27 -21 -51 -39
-24 -19 -41 -35 -38 -38 2 -2 27 8 56 22 62 31 94 27 63 -8 -26 -29 -55 -77
-47 -77 3 0 23 14 44 30 21 17 42 30 48 30 5 0 29 -21 53 -46 87 -90 175 -138
231 -126 16 3 16 6 3 39 -8 19 -15 60 -15 89 l0 54 44 0 c39 0 45 -3 56 -30
19 -45 117 -137 166 -156 51 -19 74 -9 74 35 0 29 32 105 48 115 17 10 62 -79
62 -123 0 -34 -3 -41 -19 -41 -26 0 -33 -25 -25 -87 6 -49 5 -53 -14 -53 -13
0 -29 -14 -44 -37 -20 -33 -23 -51 -23 -133 0 -67 6 -111 19 -150 11 -34 20
-92 22 -149 2 -52 7 -98 11 -102 5 -5 26 -4 48 2 78 18 262 12 388 -14 64 -13
117 -23 117 -22 0 2 -9 22 -20 46 -46 103 -14 188 119 320 158 154 327 213
593 206 79 -2 162 -9 186 -16 23 -8 46 -11 49 -7 12 12 -110 115 -173 147 -33
16 -92 36 -130 44 -38 8 -78 19 -89 24 -27 13 -146 61 -167 68 -48 15 11 -39
177 -162 18 -13 15 -14 -40 -15 -34 0 -87 -7 -118 -15 -32 -8 -81 -15 -110
-14 -50 0 -51 1 -22 12 17 7 44 20 62 30 18 9 41 17 52 17 29 0 35 17 8 24
-103 28 -212 -21 -349 -155 l-73 -71 55 31 c45 24 167 56 178 46 1 -1 -29 -25
-67 -54 -147 -109 -242 -247 -245 -356 -1 -45 -4 -54 -16 -49 -75 32 -176 44
-279 34 l-44 -5 -17 75 c-9 41 -20 85 -24 98 l-7 22 170 0 c195 0 169 -14 238
120 53 103 105 186 172 277 15 20 29 60 37 109 14 82 9 116 -11 68 l-12 -29
-7 32 c-4 18 -12 35 -17 38 -5 4 -9 13 -9 21 0 28 -93 238 -118 267 -8 9 -13
19 -10 22 9 9 127 -124 134 -150 3 -14 10 -23 14 -20 13 8 -58 140 -102 190
-37 42 -84 75 -106 75 -5 0 -45 -33 -88 -72 -44 -40 -92 -82 -108 -93 -15 -11
-53 -40 -85 -65 -31 -25 -75 -57 -96 -71 l-40 -27 -245 7 c-235 6 -245 7 -248
26 -2 14 10 28 42 48 49 31 131 51 109 26 -18 -18 -16 -42 2 -36 42 17 167
109 240 179 79 74 83 81 78 113 -7 42 18 84 87 149 27 25 47 46 44 46 -38 0
-174 -107 -174 -136 0 -8 -4 -14 -10 -14 -16 0 -23 -49 -10 -65 24 -29 -2 -44
-150 -82 -138 -36 -269 -65 -316 -70 -33 -4 -49 1 -88 27 l-47 32 28 32 c15
17 77 82 138 144 l110 112 55 0 c30 -1 84 -7 120 -15 36 -8 72 -14 81 -15 17
0 112 70 105 78 -3 2 -28 -7 -55 -22 l-50 -26 -62 20 c-34 11 -76 20 -93 20
-28 1 -24 4 38 35 68 34 114 45 101 25 -4 -7 8 -10 32 -9 32 1 117 -17 132
-28 3 -2 -7 -16 -21 -31 -14 -15 -36 -45 -48 -67 l-22 -40 25 26 c40 42 108
94 161 123 l49 26 144 -36 143 -35 32 22 c66 46 158 123 153 127 -5 6 -126
-52 -167 -80 -53 -36 -48 -17 9 36 33 30 67 70 77 88 l18 34 127 12 c69 7 187
12 261 13 103 1 127 3 102 10 -40 12 -35 24 13 33 34 7 40 26 9 26 -16 0 -172
59 -189 71 -31 23 -185 68 -285 84 -109 17 -119 17 -193 0 -42 -9 -77 -20 -77
-25 0 -4 51 -10 113 -14 113 -6 217 -32 301 -76 l37 -18 -53 -6 c-29 -3 -84
-8 -123 -11 -151 -13 -300 -72 -456 -181 l-81 -56 -46 12 c-153 41 -175 59
-131 106 12 13 20 27 17 30 -11 10 -87 -47 -90 -68 -2 -16 -15 -24 -50 -33
-48 -12 -68 -6 -68 20 0 11 133 155 142 155 2 0 2 -16 0 -37 l-5 -36 32 23
c61 42 98 90 129 163 17 39 28 74 26 76 -3 3 -19 -13 -37 -34 -58 -70 -69 -82
-64 -64 8 23 94 136 109 142 82 34 190 77 193 77 2 0 -6 -23 -16 -51 -11 -28
-17 -54 -14 -57 3 -3 36 24 73 60 64 62 74 68 167 97 55 16 134 35 175 42 99
16 113 24 59 35 l-44 8 66 4 c64 3 67 4 112 52 61 64 61 69 2 48z m-404 -675
c-5 -10 -23 -31 -39 -46 -25 -24 -36 -28 -78 -25 l-49 3 80 42 c92 47 99 49
86 26z m48 -635 c11 -17 34 -64 52 -105 l32 -73 -67 -69 c-58 -61 -66 -73 -66
-108 1 -36 2 -37 15 -19 8 11 15 25 15 31 0 11 111 105 123 105 3 0 13 -20 22
-45 18 -45 18 -45 -8 -78 -23 -30 -33 -35 -83 -40 -31 -3 -61 -12 -66 -19 -5
-7 -7 -47 -3 -89 8 -114 2 -120 -59 -61 -28 27 -59 52 -69 55 -25 9 -57 -26
-57 -62 0 -16 -3 -38 -7 -48 -9 -24 -52 214 -52 292 0 47 6 72 29 115 l29 55
1 -53 c0 -59 14 -63 23 -6 3 19 15 54 26 77 10 23 27 59 36 80 24 51 68 97 94
97 13 0 29 -12 40 -32z m-193 -34 c-14 -27 -26 -55 -26 -61 0 -9 -16 -13 -47
-13 l-48 0 70 64 c39 35 71 62 73 61 2 -2 -8 -25 -22 -51z m-825 -8 c31 -24
48 -94 27 -107 -14 -9 -34 5 -50 34 -8 15 -7 18 4 11 8 -5 7 1 -4 19 -10 15
-26 39 -35 53 -17 26 -17 27 7 19 14 -4 37 -17 51 -29z m162 -213 c5 -64 -3
-66 -67 -16 l-47 37 23 18 c31 23 43 23 56 -4 10 -22 11 -22 11 -2 1 21 14 42
17 27 2 -4 4 -32 7 -60z m323 50 c13 -13 19 -14 22 -5 2 6 10 12 18 12 11 0
10 -9 -5 -48 -11 -26 -21 -58 -23 -71 -3 -22 -9 -18 -70 43 -38 36 -68 70 -68
76 0 18 107 12 126 -7z m171 -270 c-3 -10 -5 -2 -5 17 0 19 2 27 5 18 2 -10 2
-26 0 -35z m413 10 c0 -5 -9 -19 -20 -33 l-20 -25 0 33 c0 25 4 32 20 32 11 0
20 -3 20 -7z m-166 -153 c20 -22 36 -46 36 -53 -1 -6 -7 -1 -15 13 -17 30 -18
26 -6 -18 9 -31 8 -33 -26 -47 -19 -8 -37 -15 -39 -15 -2 0 -4 36 -4 80 0 44
4 80 9 80 5 0 25 -18 45 -40z m-252 -77 c16 -29 25 -53 19 -53 -5 0 -13 9 -16
20 -4 11 -11 18 -16 14 -6 -3 -8 -13 -5 -21 5 -12 1 -14 -16 -9 -13 3 -27 6
-32 6 -9 0 -1 95 11 126 6 16 8 15 16 -7 6 -13 23 -48 39 -76z m145 25 c-3 -8
-6 -5 -6 6 -1 11 2 17 5 13 3 -3 4 -12 1 -19z"></path>
<path class="node" id="node4" d="M1470 2182 c0 -7 10 -12 23 -12 54 -1 244 -53 356 -99 64 -26 76 -28
95 -17 28 18 157 58 164 52 2 -3 -1 -12 -8 -21 -17 -21 -1 -19 56 5 26 11 68
25 93 31 74 16 80 22 26 30 -27 3 -77 12 -110 19 -76 15 -177 8 -235 -17 l-45
-20 -68 24 c-53 18 -98 25 -207 30 -103 4 -140 3 -140 -5z"></path>
<path class="node" id="node5" d="M2679 2123 c-5 -12 -120 -103 -165 -131 -38 -24 -53 -24 -111 -1
l-28 11 30 13 30 13 -25 6 c-14 3 -45 7 -70 10 -75 9 -249 -23 -271 -50 -10
-12 -1 -14 60 -14 43 0 93 -7 128 -19 32 -11 72 -22 90 -26 18 -4 50 -15 72
-26 63 -30 80 -25 143 39 55 56 134 169 125 178 -3 3 -7 1 -8 -3z"></path>
<path class="node" id="node6" d="M1040 2050 c-47 -24 -129 -109 -157 -163 -28 -51 -30 -72 -5 -62 116
49 269 92 420 119 l124 22 -44 15 c-63 21 -249 19 -311 -4 -26 -9 -50 -17 -53
-17 -7 0 18 35 55 75 35 39 25 44 -29 15z"></path>
<path class="node" id="node7" d="M1594 2041 c4 -6 17 -11 29 -11 12 0 75 -13 140 -29 86 -21 127 -37
153 -58 20 -15 45 -36 57 -45 18 -14 29 -16 62 -8 22 5 88 10 147 10 59 0 109
4 112 9 7 10 -104 32 -209 40 -44 3 -93 13 -110 22 -92 51 -170 72 -279 77
-80 3 -107 2 -102 -7z"></path>
<path class="node" id="node8" d="M2318 1893 c7 -3 16 -2 19 1 4 3 -2 6 -13 5 -11 0 -14 -3 -6 -6z"></path>
<path class="node" id="node9" d="M1980 1826 c0 -9 30 -14 35 -6 4 6 -3 10 -14 10 -12 0 -21 -2 -21 -4z"></path>
<path class="node" id="node10" d="M2026 1812 c-3 -5 4 -13 17 -16 12 -3 33 -15 47 -26 l25 -19 -36 9
c-57 16 -375 18 -390 3 -11 -11 -10 -13 1 -14 28 -1 -145 -38 -182 -38 -25 -1
-38 -6 -38 -14 0 -15 58 -100 72 -105 4 -2 8 -7 8 -12 0 -5 -15 -4 -32 1 -41
11 -188 12 -206 0 -16 -10 -18 -9 138 -40 58 -12 119 -26 135 -31 46 -15 205
-38 205 -30 0 4 -52 45 -116 91 l-115 84 58 7 c32 3 94 16 137 27 124 33 284
29 466 -9 78 -17 144 -29 146 -27 4 4 -171 120 -211 140 -40 20 -121 32 -129
19z"></path>
<path class="node" id="node11" d="M2060 1683 c0 -5 25 -33 56 -63 62 -61 184 -207 184 -221 0 -5 -11
-9 -25 -9 -38 0 -195 38 -248 61 -27 11 -53 19 -58 17 -6 -2 9 -28 32 -57 46
-57 91 -82 190 -105 107 -25 158 -64 241 -184 35 -51 128 -231 128 -248 0 -7
7 -14 15 -18 13 -4 15 8 15 82 -1 110 -27 242 -77 382 -30 85 -55 126 -98 162
-32 27 -279 168 -294 168 -4 0 -20 9 -35 21 -14 11 -26 17 -26 12z"></path>
<path class="node" id="node12" d="M1787 1634 c-4 -4 -35 -7 -69 -7 -70 0 -68 0 92 -32 80 -15 161 -48
307 -122 l63 -31 -68 74 c-103 115 -120 124 -228 124 -50 0 -94 -3 -97 -6z"></path>
<path class="node" id="node13" d="M429 1509 c-24 -17 -54 -43 -67 -57 -33 -40 -84 -133 -76 -141 4 -3
9 1 12 9 6 20 159 169 202 198 l35 22 -31 0 c-19 0 -49 -13 -75 -31z"></path>
<path class="node" id="node14" d="M950 1415 c-52 -52 -89 -95 -83 -95 6 0 54 24 107 54 l95 54 83 -9
c46 -5 95 -12 111 -15 30 -6 38 13 10 23 -10 3 -25 12 -34 20 -18 15 -151 63
-177 63 -9 0 -60 -43 -112 -95z"></path>
<path class="node" id="node15" d="M1520 1464 c0 -17 98 -145 120 -155 24 -12 23 -13 -32 -23 -32 -5
-58 -12 -58 -16 0 -12 80 -39 145 -50 33 -5 90 -15 128 -22 104 -18 100 2 -13
61 -64 34 -202 135 -244 180 -28 29 -46 39 -46 25z"></path>
<path class="node" id="node16" d="M1880 1397 c47 -56 125 -142 207 -226 56 -59 100 -107 100 -108 -1
-1 -34 7 -72 18 -38 10 -84 19 -102 19 -18 0 -65 11 -105 24 -82 27 -188 42
-188 26 0 -5 12 -13 28 -16 15 -4 68 -29 119 -56 73 -38 102 -48 140 -48 98 0
241 -63 331 -146 l47 -43 -75 26 c-66 23 -91 26 -205 27 -71 0 -141 -5 -155
-11 -25 -10 -43 -5 -80 24 -21 17 -118 51 -165 58 l-40 6 25 -20 c14 -12 56
-37 93 -56 37 -19 94 -52 125 -73 l58 -38 90 4 c108 5 224 -11 279 -39 99 -51
198 -150 252 -251 18 -33 24 -38 29 -24 14 37 -20 208 -63 320 -56 144 -180
354 -243 411 -10 9 -66 33 -126 54 -109 38 -201 79 -271 122 -21 12 -36 20
-33 16z"></path>
<path class="node" id="node17" d="M912 1245 c-12 -7 -33 -22 -45 -34 -13 -11 -41 -30 -63 -41 -39 -21
-39 -21 -6 -15 17 4 32 4 32 2 0 -3 -15 -14 -32 -25 -26 -15 -46 -19 -93 -16
-58 4 -59 4 -30 -11 53 -25 104 -19 162 20 54 36 126 105 119 113 -3 2 -22 -9
-43 -24 l-38 -28 34 37 c38 40 38 42 3 22z"></path>
<path class="node" id="node18" d="M930 1153 c-14 -10 -29 -21 -35 -25 -5 -5 -32 -23 -58 -40 -45 -29
-53 -30 -115 -25 -58 4 -64 3 -48 -9 23 -17 97 -28 125 -19 25 8 142 100 154
121 10 18 7 18 -23 -3z"></path>
<path class="node" id="node19" d="M2086 761 c-4 -6 1 -14 11 -17 10 -3 55 -21 100 -40 45 -19 85 -34
89 -34 4 0 22 -11 40 -25 18 -14 36 -25 40 -25 10 0 -4 61 -21 87 -19 28 -61
53 -52 31 4 -11 -4 -10 -34 5 -47 23 -163 35 -173 18z"></path>



</g>
<g transform="translate(0.000000,278.000000) scale(0.100000,-0.100000)" fill="#BCD15D" stroke="none">




<path class="node" id="node27" d="M1125 1747 l-80 -42 49 -3 c42 -3 53 1 78 25 32 30 54 64 41 62 -4 0
-44 -20 -88 -42z"></path>
<path class="node" id="node28" d="M1170 1140 c-15 -16 -35 -46 -45 -67 -9 -21 -26 -57 -36 -80 -11 -23
-23 -58 -26 -77 -9 -57 -23 -53 -23 6 l-1 53 -29 -55 c-23 -43 -29 -68 -29
-115 0 -78 43 -316 52 -292 4 10 7 32 7 48 0 36 32 71 57 62 10 -3 41 -28 69
-55 61 -59 67 -53 59 61 -4 42 -2 82 3 89 5 7 35 16 66 19 50 5 60 10 83 40
26 33 26 33 8 78 -9 25 -19 45 -22 45 -12 0 -123 -94 -123 -105 0 -6 -7 -20
-15 -31 -13 -18 -14 -17 -15 19 0 35 8 47 66 108 l67 69 -32 73 c-64 146 -87
164 -141 107z"></path>
<path class="node" id="node29" d="M1015 1094 l-70 -64 48 0 c31 0 47 4 47 13 0 6 12 34 26 61 14 26 24
49 22 51 -2 1 -34 -26 -73 -61z"></path>
<path class="node" id="node30" d="M183 1106 c9 -14 25 -38 35 -53 11 -18 12 -24 4 -19 -11 7 -12 4 -4
-11 30 -56 66 -48 56 13 -7 41 -38 75 -84 89 -24 8 -24 7 -7 -19z"></path>
<path class="node" id="node31" d="M387 944 c-4 -4 -7 -17 -8 -28 0 -20 -1 -20 -11 2 -13 27 -25 27 -56
4 l-23 -18 47 -37 c64 -50 72 -48 67 16 -6 66 -7 70 -16 61z"></path>
<path class="node" id="node32" d="M600 940 c0 -6 30 -40 68 -76 61 -61 67 -65 70 -43 2 13 12 45 23 71
15 39 16 48 5 48 -8 0 -16 -6 -18 -12 -3 -9 -9 -8 -22 5 -19 19 -126 25 -126
7z"></path>
<path class="node" id="node33" d="M892 680 c0 -19 2 -27 5 -17 2 9 2 25 0 35 -3 9 -5 1 -5 -18z"></path>
<path class="node" id="node34" d="M1270 648 l0 -33 20 25 c25 32 25 40 0 40 -16 0 -20 -7 -20 -32z"></path>
<path class="node" id="node35" d="M1090 480 c0 -44 2 -80 4 -80 2 0 20 7 39 15 34 14 35 16 26 47 -12
44 -11 48 6 18 8 -14 14 -19 15 -13 0 15 -68 93 -81 93 -5 0 -9 -36 -9 -80z"></path>
<path class="node" id="node36" d="M837 526 c-12 -31 -20 -126 -11 -126 5 0 19 -3 32 -6 17 -5 21 -3 16
9 -3 8 -1 18 5 21 5 4 12 -3 16 -14 3 -11 11 -20 16 -20 6 0 -3 24 -19 53 -16
28 -33 63 -39 76 -8 22 -10 23 -16 7z"></path>
<path class="node" id="node37" d="M1031 474 c0 -11 3 -14 6 -6 3 7 2 16 -1 19 -3 4 -6 -2 -5 -13z"></path>
</g>
</svg>