<!--?xml version="1.0" standalone="no"?-->

<svg version="1.0" xmlns="http://www.w3.org/2000/svg" width="300.000000pt" height="258.000000pt" viewBox="0 0 300.000000 258.000000" preserveAspectRatio="xMidYMid meet">
<g transform="translate(0.000000,258.000000) scale(0.100000,-0.100000)" fill="#211B18" stroke="none">
<path class="node" id="node1" d="M1000 2390 c-55 -55 -129 -175 -116 -187 11 -11 37 21 66 81 16 34
52 85 79 114 70 73 44 65 -29 -8z"></path>
<path class="node" id="node2" d="M1937 2394 c23 -26 56 -74 72 -108 27 -58 56 -95 66 -84 12 12 -60
135 -109 183 -66 67 -89 73 -29 9z"></path>
<path class="node" id="node3" d="M1437 2325 c-25 -59 -74 -102 -187 -161 -160 -83 -236 -183 -246
-319 l-4 -50 21 47 c11 26 27 49 35 52 23 9 54 -30 54 -66 0 -60 -90 -186
-124 -175 -14 5 -35 124 -35 202 0 39 6 76 19 105 l20 45 -29 -33 c-47 -55
-56 -99 -53 -280 3 -182 -5 -228 -43 -238 -55 -14 -85 27 -70 96 9 42 0 37
-31 -16 -31 -53 -34 -51 -65 50 -17 53 -20 83 -16 136 8 90 29 132 65 128 22
-2 30 -11 40 -45 12 -38 12 -54 -5 -133 -11 -50 -16 -87 -12 -83 19 19 100
196 113 247 18 69 41 255 32 263 -17 18 -45 -38 -59 -121 -18 -101 -30 -122
-53 -91 -19 25 -13 82 15 147 14 31 45 67 93 109 80 71 127 120 128 132 0 5
-21 -10 -47 -31 -27 -22 -70 -51 -98 -65 -71 -35 -204 -137 -255 -194 -43 -48
-90 -134 -89 -163 0 -8 8 1 19 20 26 49 84 103 106 98 28 -5 29 -51 2 -91 -13
-19 -58 -80 -100 -135 -82 -108 -101 -160 -80 -219 l10 -28 1 32 c1 44 21 83
42 83 22 0 29 -20 29 -83 -1 -66 -14 -126 -34 -145 -13 -13 -17 -13 -32 -1 -9
8 -23 27 -30 44 l-13 30 -1 -36 c0 -60 43 -132 106 -173 81 -54 113 -120 129
-265 6 -51 5 -63 -6 -59 -19 6 -37 73 -38 141 -1 34 -8 71 -18 90 l-17 32 -7
-30 c-18 -80 -5 -223 27 -283 7 -14 12 -28 10 -30 -8 -8 -63 28 -99 64 -43 43
-41 24 4 -42 39 -58 79 -89 162 -127 75 -35 103 -59 92 -77 -15 -24 -101 -6
-203 42 -103 49 -213 177 -197 229 8 25 26 24 59 -2 34 -26 33 -20 -6 55 -31
59 -98 131 -276 299 -40 37 -81 86 -92 107 -11 22 -22 40 -24 40 -2 0 2 -23 9
-51 17 -63 42 -101 135 -204 86 -96 117 -156 101 -192 -16 -36 -59 -28 -88 16
l-23 34 0 -32 c0 -52 45 -133 108 -193 74 -71 123 -98 257 -144 119 -41 169
-70 197 -112 24 -36 23 -50 -6 -63 -39 -18 -123 5 -184 52 l-54 40 31 -45 c44
-63 103 -111 172 -136 51 -19 87 -23 252 -29 178 -6 196 -8 242 -31 59 -30 80
-69 52 -98 -19 -19 -107 -24 -162 -9 l-30 8 30 -25 c32 -28 131 -69 205 -85
128 -29 355 -5 462 50 43 22 116 77 88 67 -55 -20 -132 -29 -164 -18 -92 30
-24 114 112 140 26 5 115 8 197 8 193 -1 240 14 333 108 72 73 81 99 18 50
-78 -59 -196 -73 -196 -22 0 56 70 106 222 155 200 66 332 194 352 341 l7 45
-17 -30 c-40 -72 -85 -88 -105 -37 -15 38 11 85 112 197 84 95 110 135 128
199 15 56 7 55 -25 -4 -19 -35 -66 -85 -151 -161 -132 -118 -190 -186 -222
-261 -22 -53 -21 -58 12 -28 27 26 51 22 55 -9 5 -30 -54 -118 -110 -164 -67
-55 -173 -101 -233 -102 -43 0 -50 3 -50 20 0 15 20 30 81 60 100 49 133 76
173 139 35 56 41 82 11 43 -20 -25 -88 -73 -94 -66 -2 2 5 38 16 79 19 73 22
220 4 237 -16 17 -31 -25 -37 -105 -6 -84 -23 -142 -41 -142 -12 0 0 110 18
173 20 71 46 107 113 160 68 53 89 86 97 154 5 47 5 48 -9 18 -32 -68 -67 -67
-87 4 -11 40 -13 140 -4 165 16 41 70 -12 62 -59 -6 -28 6 -34 16 -9 20 53 -3
114 -80 214 -124 159 -125 162 -122 194 2 21 9 32 22 34 21 4 80 -48 103 -91
25 -50 25 -22 -1 36 -13 31 -46 79 -71 106 -53 56 -187 157 -255 191 -25 12
-63 37 -85 54 -101 82 -50 14 67 -88 76 -66 115 -128 124 -199 4 -29 1 -48
-10 -62 -22 -30 -34 -11 -52 90 -15 85 -43 140 -61 122 -4 -4 0 -67 9 -140 12
-98 24 -151 47 -206 32 -76 91 -185 97 -179 2 2 -3 26 -12 53 -19 63 -21 189
-4 210 7 8 23 15 36 15 38 0 57 -50 57 -150 1 -91 -12 -151 -41 -188 l-18 -23
-32 52 c-31 49 -56 64 -32 18 14 -26 6 -89 -12 -101 -23 -14 -54 -9 -74 13
-17 19 -19 36 -17 193 3 195 -8 255 -58 309 l-30 32 21 -40 c15 -30 20 -58 20
-115 -1 -71 -21 -194 -34 -207 -9 -9 -85 75 -107 119 -22 43 -24 67 -8 102 25
53 61 40 81 -28 18 -65 31 -68 23 -6 -22 167 -87 246 -290 354 -84 45 -118 76
-145 130 -20 41 -20 41 -20 11 0 -35 39 -119 72 -156 13 -14 55 -47 94 -72 39
-26 84 -63 98 -82 36 -46 45 -99 21 -125 -23 -25 -43 -15 -67 34 l-19 41 6
-50 c4 -27 18 -68 31 -91 14 -24 24 -56 24 -80 l0 -39 -31 55 c-29 54 -85 120
-101 120 -4 0 -8 -14 -8 -31 0 -42 -14 -66 -73 -124 -29 -27 -57 -59 -63 -70
-12 -19 -12 -19 -22 5 -6 14 -31 42 -56 63 -54 45 -79 89 -74 128 3 16 1 29
-4 29 -16 0 -84 -79 -108 -126 l-25 -49 -3 32 c-2 21 8 55 27 95 17 34 31 76
31 93 l0 30 -18 -35 c-20 -40 -50 -50 -69 -24 -36 50 14 130 127 203 81 53
102 75 137 146 18 35 40 125 31 125 -1 0 -11 -20 -21 -45z m335 -678 c21 -27
38 -45 38 -40 1 4 8 -4 16 -19 8 -16 18 -28 23 -28 8 0 31 -44 31 -61 0 -16
-54 2 -85 30 -53 46 -95 73 -95 59 0 -7 15 -37 33 -67 17 -29 39 -67 47 -83 9
-16 19 -25 24 -21 4 4 11 8 14 9 4 0 14 4 22 7 28 12 63 12 67 0 3 -8 -4 -13
-15 -13 -11 0 -25 -6 -31 -14 -7 -8 -22 -17 -35 -20 -13 -3 -34 -21 -47 -41
-25 -36 -38 -44 -40 -22 -2 43 -35 125 -45 114 -2 -2 1 -27 8 -56 10 -44 9
-56 -5 -86 -21 -44 -32 -44 -33 -2 0 18 -7 46 -16 62 -65 125 -75 149 -71 168
10 47 10 47 42 31 17 -8 33 -19 36 -25 4 -5 10 -9 15 -9 8 0 -4 48 -21 82 -16
32 -7 94 12 82 5 -3 9 0 9 6 0 7 7 10 15 6 9 -3 15 1 15 11 0 13 2 14 17 2 9
-8 34 -36 55 -62z m-503 48 c11 6 51 -29 51 -44 0 -4 -9 -31 -19 -61 -21 -59
-15 -71 21 -46 32 22 47 20 54 -8 7 -30 -11 -91 -41 -131 -26 -37 -47 -101
-43 -135 3 -24 36 -60 55 -60 12 0 33 -44 33 -69 0 -18 -34 -61 -49 -61 -5 0
-16 26 -25 58 -9 31 -22 68 -29 82 -17 34 -88 58 -153 52 -35 -3 -60 1 -82 12
-35 18 -41 29 -14 25 9 -2 31 1 49 5 32 7 83 -9 196 -62 5 -2 1 10 -8 28 -17
33 -17 95 -1 133 5 10 4 17 -2 17 -19 0 -44 -68 -40 -105 4 -33 3 -34 -15 -17
-10 9 -26 29 -35 44 -9 15 -28 30 -43 33 -15 4 -33 13 -40 21 -6 8 -18 14 -26
14 -8 0 -13 6 -10 13 4 12 39 12 67 0 37 -15 46 -10 80 45 39 64 62 113 56
119 -4 4 -18 -6 -81 -59 -29 -25 -75 -48 -95 -48 -4 0 -6 9 -3 20 3 11 9 20
14 20 5 0 9 5 9 10 0 6 7 18 15 28 99 112 129 141 136 131 4 -6 12 -8 18 -4z
m-571 -280 c21 -26 26 -40 62 -152 12 -39 39 -96 59 -126 20 -30 53 -80 73
-111 21 -31 40 -67 44 -82 4 -14 14 -28 23 -30 9 -3 41 -17 71 -32 30 -15 60
-26 67 -24 6 1 14 -2 18 -8 3 -5 -1 -10 -10 -10 -11 0 -15 -5 -11 -15 4 -11
-3 -15 -27 -16 -18 -1 -43 -4 -57 -8 -14 -4 -34 -4 -45 0 -11 4 -29 11 -40 15
-11 4 -27 8 -35 8 -8 1 -16 11 -18 24 -2 12 -8 22 -13 22 -5 0 -9 6 -9 14 0 8
-3 16 -7 18 -21 9 -54 73 -62 120 l-9 53 -1 -75 c-1 -93 19 -140 90 -215 29
-30 48 -55 44 -55 -5 0 -39 10 -75 22 l-67 21 -6 107 c-6 121 -32 211 -96 338
-49 94 -62 173 -36 202 24 27 50 25 73 -5z m1637 5 c22 -24 16 -89 -14 -147
-75 -146 -105 -231 -121 -341 -7 -45 -10 -100 -6 -121 6 -38 5 -38 -37 -51
-23 -7 -55 -16 -71 -21 -39 -12 -45 -4 -14 20 14 11 42 44 62 74 41 60 63 158
47 212 -9 29 -9 29 -10 -11 -1 -30 -12 -58 -41 -102 -22 -34 -45 -62 -51 -62
-7 0 -9 -10 -5 -26 6 -21 4 -25 -8 -21 -8 3 -28 0 -43 -8 -23 -11 -111 -14
-172 -6 -3 1 3 7 14 14 10 8 15 18 12 24 -7 11 43 39 92 50 26 7 36 16 46 46
7 20 42 81 78 134 78 118 88 138 116 230 22 76 61 133 90 133 10 0 26 -9 36
-20z m-731 -66 c3 -8 2 -12 -4 -9 -6 3 -10 -2 -11 -12 0 -11 -3 -13 -6 -5 -5
13 2 42 11 42 2 0 7 -7 10 -16z m-234 -29 c0 -37 -13 -47 -24 -19 -8 20 2 54
15 54 5 0 9 -16 9 -35z m556 -18 c8 3 14 1 14 -4 0 -15 -67 -32 -142 -36 -66
-5 -92 5 -45 16 12 3 40 12 61 20 26 10 49 12 68 6 16 -4 36 -5 44 -2z m-339
-39 c-3 -7 -5 -2 -5 12 0 14 2 19 5 13 2 -7 2 -19 0 -25z m105 -26 c-7 -5 -22
-43 -33 -85 -22 -81 -36 -93 -63 -55 -34 48 -8 103 62 134 31 14 53 18 34 6z
m-478 -43 c-8 -13 -24 -1 -24 18 0 13 3 13 15 3 8 -7 12 -16 9 -21z m-134 9
c0 -22 45 -77 71 -88 14 -6 44 -10 67 -9 23 2 44 0 47 -3 14 -14 7 -99 -10
-118 -25 -27 -37 -25 -29 5 12 49 -2 73 -48 80 -34 6 -53 18 -89 57 -32 34
-45 56 -42 69 6 21 33 27 33 7z m690 2 c0 -5 -7 -10 -15 -10 -8 0 -15 5 -15
10 0 6 7 10 15 10 8 0 15 -4 15 -10z m140 -11 c0 -50 -98 -129 -161 -129 -18
0 -20 -5 -18 -47 2 -48 -9 -58 -36 -32 -10 10 -13 105 -3 115 3 3 31 6 62 7
46 2 60 7 86 32 16 16 30 36 30 45 0 20 9 30 27 30 7 0 13 -9 13 -21z m-738
-24 c13 -23 15 -24 41 -10 21 11 27 11 27 1 0 -18 -41 -35 -65 -26 -27 10 -48
36 -40 50 10 17 24 12 37 -15z m651 17 c8 -11 -26 -48 -49 -54 -27 -7 -54 8
-54 29 0 13 3 14 12 5 19 -19 49 -14 55 8 5 20 27 27 36 12z m-923 -102 c0 -5
-2 -10 -4 -10 -3 0 -8 5 -11 10 -3 6 -1 10 4 10 6 0 11 -4 11 -10z m56 -50
c13 0 24 -5 24 -10 0 -6 -11 -8 -25 -6 -34 6 -47 15 -38 29 5 8 8 8 11 -1 2
-7 15 -12 28 -12z m1059 -10 c-3 -5 -15 -10 -26 -10 -11 0 -17 5 -14 10 3 6
15 10 26 10 11 0 17 -4 14 -10z m-1000 -10 c-3 -5 -10 -10 -16 -10 -5 0 -9 5
-9 10 0 6 7 10 16 10 8 0 12 -4 9 -10z m90 -90 c3 -5 2 -10 -4 -10 -5 0 -13 5
-16 10 -3 6 -2 10 4 10 5 0 13 -4 16 -10z m335 -47 c0 -26 -3 -34 -11 -26 -9
9 -3 63 7 63 2 0 4 -17 4 -37z m91 -1 c-18 -35 -14 -80 9 -87 12 -4 20 -15 20
-28 0 -18 -2 -19 -10 -7 -8 11 -9 9 -5 -11 4 -17 1 -30 -9 -38 -13 -11 -16 -9
-20 11 -3 12 -5 37 -5 53 1 17 -2 42 -6 57 -5 19 -2 34 11 51 22 29 31 28 15
-1z m-94 -123 c2 -39 1 -41 -8 -19 -6 14 -17 29 -25 33 -12 7 -13 12 -3 23 20
24 34 10 36 -37z m56 -31 c2 -18 3 -35 0 -38 -7 -8 -23 24 -23 48 0 34 17 26
23 -10z m-264 -63 c9 -1 21 2 28 7 15 12 33 2 33 -17 0 -17 48 -75 63 -75 21
0 107 -65 107 -81 0 -20 -27 -44 -69 -62 -31 -13 -77 -14 -158 -1 -55 8 -37
20 28 18 36 -1 55 2 47 7 -7 5 -29 9 -48 9 -35 0 -110 39 -80 41 8 1 -3 7 -25
14 -22 8 -34 14 -26 14 7 1 11 7 7 16 -8 21 13 19 49 -5 30 -20 81 -28 71 -11
-8 13 -103 61 -121 61 -8 0 -15 7 -15 15 0 11 -12 15 -44 15 -25 0 -48 5 -51
10 -11 18 80 11 121 -9 48 -24 58 -18 38 20 -15 30 -15 31 7 24 12 -4 29 -8
38 -10z m477 4 c6 -11 32 -9 68 6 18 8 18 7 1 -19 -23 -34 -13 -44 28 -26 18
7 61 15 97 16 46 2 58 0 40 -6 -14 -4 -42 -8 -62 -9 -21 -1 -38 -5 -38 -10 0
-5 -31 -24 -70 -42 -38 -17 -70 -36 -70 -42 0 -13 60 0 80 18 18 16 45 21 35
6 -3 -6 3 -14 12 -20 16 -9 15 -10 -7 -11 -29 0 -66 -19 -40 -20 8 0 1 -9 -16
-20 -20 -13 -52 -21 -91 -22 -34 -2 -56 -6 -48 -10 7 -4 40 -6 74 -4 61 3 82
-7 37 -18 -58 -14 -152 -8 -193 13 -40 20 -61 50 -48 71 4 6 -5 10 -19 10 -15
0 -26 6 -26 13 0 8 12 14 30 14 22 0 30 -5 30 -18 0 -29 142 71 157 110 12 32
27 40 39 20z m-211 -29 c4 -12 15 -20 28 -20 22 -1 22 -1 2 -15 -11 -8 -27
-20 -35 -27 -13 -12 -19 -10 -45 14 -28 27 -29 28 -7 28 15 0 22 6 22 20 0 11
6 20 14 20 8 0 18 -9 21 -20z m-115 -10 c13 -8 13 -10 -2 -10 -9 0 -18 -6 -21
-12 -3 -10 -7 -10 -17 -1 -25 23 9 43 40 23z m240 -9 c0 -19 -20 -22 -36 -7
-14 15 -13 16 10 16 14 0 26 -4 26 -9z m-75 -220 c22 -12 49 -21 61 -21 11 0
31 -11 43 -24 l22 -23 -21 -6 c-12 -3 -19 -10 -15 -16 8 -14 -20 -14 -45 -1
-14 7 -20 6 -24 -6 -5 -13 -9 -14 -20 -5 -9 8 -22 8 -39 2 -14 -5 -28 -7 -31
-3 -12 11 -40 11 -54 -1 -11 -8 -16 -7 -23 6 -8 13 -14 14 -33 6 -20 -9 -28
-7 -47 12 -14 14 -18 24 -11 27 7 2 12 11 12 19 0 9 6 13 14 10 15 -6 131 46
141 64 5 6 11 5 18 -5 7 -8 30 -24 52 -35z"></path>
<path class="node" id="node4" d="M667 1278 c-2 -18 -1 -40 4 -48 5 -10 8 1 9 33 0 55 -6 61 -13 15z"></path>
<path class="node" id="node5" d="M2271 1315 c-1 -61 10 -97 23 -76 4 6 4 16 0 22 -3 6 -10 34 -14 63
l-8 51 -1 -60z"></path>
<path class="node" id="node6" d="M1220 611 c0 -10 24 -21 43 -21 7 0 3 7 -7 15 -22 17 -36 19 -36 6z"></path>
<path class="node" id="node7" d="M1200 505 c0 -9 72 -23 88 -17 13 5 10 8 -13 13 -37 8 -75 10 -75 4z"></path>
<path class="node" id="node8" d="M1704 604 c-17 -14 -17 -15 -1 -10 10 3 23 6 28 6 5 0 9 5 9 10 0 14
-13 12 -36 -6z"></path>
<path class="node" id="node9" d="M1680 501 l-35 -7 27 -7 c17 -5 40 -2 60 7 30 13 31 14 8 14 -14 0
-41 -4 -60 -7z"></path>
<path class="node" id="node10" d="M144 1910 c18 -79 17 -100 -9 -196 -48 -171 -32 -306 46 -395 l29
-34 -21 42 c-27 54 -23 88 11 88 30 0 68 -52 76 -107 9 -51 20 -48 28 8 12 92
-3 183 -39 229 -14 19 -15 17 -9 -22 5 -35 3 -44 -11 -50 -24 -9 -62 39 -70
88 -4 22 1 73 10 121 19 92 12 152 -26 218 -16 28 -19 30 -15 10z"></path>
<path class="node" id="node11" d="M2792 1903 c-6 -10 -18 -44 -27 -76 -16 -55 -16 -63 1 -145 11 -54
15 -101 10 -124 -9 -49 -47 -94 -71 -85 -14 6 -16 15 -11 50 7 41 6 42 -10 19
-28 -41 -46 -131 -39 -197 9 -83 21 -101 30 -43 4 25 15 60 26 77 20 34 66 52
79 31 9 -14 -3 -65 -21 -86 -7 -8 -9 -17 -6 -20 8 -8 58 73 75 121 30 88 26
150 -23 333 -13 49 -14 73 -6 110 11 51 8 64 -7 35z"></path>
</g>
<g transform="translate(0.000000,258.000000) scale(0.100000,-0.100000)" fill="#AFAA9F" stroke="none">

<path class="node" id="node13" d="M1700 1707 c0 -10 -6 -14 -15 -11 -8 4 -15 1 -15 -6 0 -6 -4 -9 -9
-6 -19 12 -28 -50 -12 -82 17 -34 29 -82 21 -82 -5 0 -11 4 -15 9 -3 6 -19 17
-36 25 -32 16 -32 16 -42 -31 -4 -19 6 -43 71 -168 9 -16 16 -44 16 -62 1 -42
12 -42 33 2 14 30 15 42 5 86 -7 29 -10 54 -8 56 10 11 43 -71 45 -114 2 -22
15 -14 40 22 13 20 34 38 47 41 13 3 28 12 35 20 6 8 20 14 31 14 11 0 18 5
15 13 -4 12 -39 12 -67 0 -8 -3 -18 -7 -22 -7 -3 -1 -10 -5 -14 -9 -5 -4 -15
5 -24 21 -8 16 -30 54 -47 83 -18 30 -33 60 -33 67 0 14 42 -13 95 -59 31 -28
85 -46 85 -30 0 17 -23 61 -31 61 -5 0 -15 12 -23 28 -8 15 -15 23 -16 19 0
-5 -17 13 -38 40 -21 26 -46 54 -55 62 -15 12 -17 11 -17 -2z"></path>
<path class="node" id="node14" d="M1187 1648 c-86 -97 -87 -97 -87 -108 0 -5 -4 -10 -9 -10 -5 0 -11
-9 -14 -20 -3 -11 -1 -20 3 -20 20 0 66 23 95 48 63 53 77 63 81 59 6 -6 -17
-55 -56 -119 -34 -55 -43 -60 -80 -45 -28 12 -63 12 -67 0 -3 -7 2 -13 10 -13
8 0 20 -6 26 -14 7 -8 25 -17 40 -21 15 -3 34 -18 43 -33 9 -15 25 -35 35 -44
18 -17 19 -16 15 17 -4 37 21 105 40 105 6 0 7 -7 2 -17 -16 -38 -16 -100 1
-133 9 -18 13 -30 8 -28 -113 53 -164 69 -196 62 -18 -4 -40 -7 -49 -5 -27 4
-21 -7 14 -25 22 -11 47 -15 82 -12 65 6 136 -18 153 -52 7 -14 20 -51 29 -82
9 -32 20 -58 25 -58 15 0 49 43 49 61 0 25 -21 69 -33 69 -19 0 -52 36 -55 60
-4 34 17 98 43 135 30 40 48 101 41 131 -7 28 -22 30 -54 8 -36 -25 -42 -13
-21 46 10 30 19 57 19 61 0 15 -40 50 -51 44 -6 -4 -14 -2 -18 4 -5 7 -28 -12
-64 -51z"></path>
<path class="node" id="node15" d="M625 1420 c-26 -29 -13 -108 36 -202 64 -127 90 -217 96 -338 l6
-107 67 -21 c36 -12 70 -22 75 -22 4 0 -15 25 -44 55 -71 75 -91 122 -90 215
l1 75 9 -53 c8 -47 41 -111 62 -120 4 -2 7 -10 7 -18 0 -8 4 -14 9 -14 5 0 11
-10 13 -22 2 -13 10 -23 18 -24 8 0 24 -4 35 -8 11 -4 29 -11 40 -15 11 -4 31
-4 45 0 14 4 39 7 57 8 24 1 31 5 27 16 -4 10 0 15 11 15 9 0 13 5 10 10 -4 6
-12 9 -18 8 -7 -2 -37 9 -67 24 -30 15 -62 29 -71 32 -9 2 -19 16 -23 30 -4
15 -23 51 -44 82 -20 31 -53 81 -73 111 -20 30 -47 87 -59 126 -36 112 -41
126 -62 152 -23 30 -49 32 -73 5z m55 -157 c-1 -32 -4 -43 -9 -33 -8 14 -4 80
5 80 2 0 4 -21 4 -47z"></path>
<path class="node" id="node16" d="M2256 1409 c-14 -17 -36 -63 -47 -102 -28 -92 -38 -112 -116 -230
-36 -53 -71 -114 -78 -134 -10 -30 -20 -39 -46 -46 -49 -11 -99 -39 -92 -50 3
-6 -2 -16 -12 -24 -11 -7 -17 -13 -14 -14 61 -8 149 -5 172 6 15 8 35 11 43 8
12 -4 14 0 8 21 -4 16 -2 26 5 26 6 0 29 28 51 62 29 44 40 72 41 102 1 40 1
40 10 11 16 -54 -6 -152 -47 -212 -20 -30 -48 -63 -62 -74 -31 -24 -25 -32 14
-20 16 5 48 14 71 21 42 13 43 13 37 51 -4 21 -1 76 6 121 16 110 46 195 121
341 30 58 36 123 14 147 -25 28 -49 25 -79 -11z m38 -148 c4 -6 4 -16 0 -22
-13 -21 -24 15 -23 76 l1 60 8 -51 c4 -29 11 -57 14 -63z"></path>
<path class="node" id="node17" d="M1584 1355 c-3 -8 -4 -20 -1 -27 3 -8 6 -6 6 5 1 10 5 15 11 12 6 -3
7 1 4 9 -8 20 -13 20 -20 1z"></path>
<path class="node" id="node18" d="M1345 1341 c-6 -21 3 -51 16 -51 5 0 9 16 9 35 0 37 -15 47 -25 16z"></path>
<path class="node" id="node19" d="M1814 1303 c-21 -8 -49 -17 -61 -20 -47 -11 -21 -21 45 -16 75 4 142
21 142 36 0 5 -6 7 -14 4 -8 -3 -28 -2 -44 2 -19 6 -42 4 -68 -6z"></path>
<path class="node" id="node20" d="M1582 1280 c0 -14 2 -19 5 -12 2 6 2 18 0 25 -3 6 -5 1 -5 -13z"></path>
<path class="node" id="node21" d="M1658 1236 c-70 -31 -96 -86 -62 -134 27 -38 41 -26 63 55 11 42 26
80 33 85 19 12 -3 8 -34 -6z"></path>
<path class="node" id="node22" d="M1190 1217 c0 -19 16 -31 24 -18 3 5 -1 14 -9 21 -12 10 -15 10 -15
-3z"></path>
<path class="node" id="node23" d="M1047 1201 c-3 -13 10 -35 42 -69 36 -39 55 -51 89 -57 46 -7 60 -31
48 -80 -8 -30 4 -32 29 -5 17 19 24 104 10 118 -3 3 -24 5 -47 3 -23 -1 -53 3
-67 9 -26 11 -71 66 -71 88 0 20 -27 14 -33 -7z"></path>
<path class="node" id="node24" d="M1740 1210 c0 -5 7 -10 15 -10 8 0 15 5 15 10 0 6 -7 10 -15 10 -8 0
-15 -4 -15 -10z"></path>
<path class="node" id="node25" d="M1877 1213 c-4 -3 -7 -14 -7 -23 0 -9 -14 -29 -30 -45 -26 -25 -40
-30 -86 -32 -31 -1 -59 -4 -62 -7 -10 -10 -7 -105 3 -115 27 -26 38 -16 36 32
-2 42 0 47 18 47 63 0 161 79 161 129 0 20 -19 28 -33 14z"></path>
<path class="node" id="node26" d="M1135 1190 c-8 -14 13 -40 40 -50 24 -9 65 8 65 26 0 10 -6 10 -27
-1 -26 -14 -28 -13 -41 10 -13 27 -27 32 -37 15z"></path>
<path class="node" id="node27" d="M1787 1180 c-6 -22 -36 -27 -55 -8 -9 9 -12 8 -12 -5 0 -21 27 -36
54 -29 23 6 57 43 49 54 -9 15 -31 8 -36 -12z"></path>
<path class="node" id="node28" d="M885 1090 c3 -5 8 -10 11 -10 2 0 4 5 4 10 0 6 -5 10 -11 10 -5 0 -7
-4 -4 -10z"></path>
<path class="node" id="node29" d="M917 1053 c-9 -14 4 -23 38 -29 14 -2 25 0 25 6 0 5 -11 10 -24 10
-13 0 -26 5 -28 12 -3 9 -6 9 -11 1z"></path>
<path class="node" id="node30" d="M1975 1030 c-3 -5 3 -10 14 -10 11 0 23 5 26 10 3 6 -3 10 -14 10
-11 0 -23 -4 -26 -10z"></path>
<path class="node" id="node31" d="M990 1020 c0 -5 4 -10 9 -10 6 0 13 5 16 10 3 6 -1 10 -9 10 -9 0
-16 -4 -16 -10z"></path>
<path class="node" id="node32" d="M1085 930 c3 -5 11 -10 16 -10 6 0 7 5 4 10 -3 6 -11 10 -16 10 -6 0
-7 -4 -4 -10z"></path>
<path class="node" id="node33" d="M1426 894 c-4 -15 -2 -32 3 -37 8 -8 11 0 11 26 0 44 -5 47 -14 11z"></path>
<path class="node" id="node34" d="M1516 883 c-13 -17 -16 -32 -11 -51 4 -15 7 -40 6 -57 0 -16 2 -41 5
-53 4 -20 7 -22 20 -11 10 8 13 21 9 38 -4 20 -3 22 5 11 8 -12 10 -11 10 7 0
13 -8 24 -20 28 -23 7 -27 52 -9 87 16 29 7 30 -15 1z"></path>
<path class="node" id="node35" d="M1401 796 c-10 -11 -9 -16 3 -23 8 -4 19 -19 25 -33 9 -22 10 -20 8
19 -2 47 -16 61 -36 37z"></path>
<path class="node" id="node36" d="M1470 738 c0 -24 16 -56 23 -48 3 3 2 20 0 38 -6 36 -23 44 -23 10z"></path>
<path class="node" id="node37" d="M1184 651 c20 -38 10 -44 -38 -20 -41 20 -132 27 -121 9 3 -5 26 -10
51 -10 32 0 44 -4 44 -15 0 -8 7 -15 15 -15 18 0 113 -48 121 -61 10 -17 -41
-9 -71 11 -36 24 -57 26 -49 5 4 -9 0 -15 -7 -16 -8 0 4 -6 26 -14 22 -7 33
-13 25 -14 -30 -2 45 -41 80 -41 19 0 41 -4 48 -9 8 -5 -11 -8 -47 -7 -65 2
-83 -10 -28 -18 81 -13 127 -12 158 1 42 18 69 42 69 62 0 16 -86 81 -107 81
-15 0 -63 58 -63 75 0 19 -18 29 -33 17 -12 -10 -29 -9 -66 3 -22 7 -22 6 -7
-24z m72 -46 c10 -8 14 -15 7 -15 -19 0 -43 11 -43 21 0 13 14 11 36 -6z m19
-104 c23 -5 26 -8 13 -13 -16 -6 -88 8 -88 17 0 6 38 4 75 -4z"></path>
<path class="node" id="node38" d="M1667 649 c-15 -39 -157 -139 -157 -110 0 13 -8 18 -30 18 -18 0 -30
-6 -30 -14 0 -7 11 -13 26 -13 14 0 23 -4 19 -10 -13 -21 8 -51 48 -71 41 -21
135 -27 193 -13 45 11 24 21 -37 18 -34 -2 -67 0 -74 4 -8 4 14 8 48 10 39 1
71 9 91 22 17 11 24 20 16 20 -26 1 11 20 40 20 22 1 23 2 7 11 -9 6 -15 14
-12 20 10 15 -17 10 -35 -6 -20 -18 -80 -31 -80 -18 0 6 32 25 70 42 39 18 70
37 70 42 0 5 17 9 38 10 20 1 48 5 62 9 18 6 6 8 -40 6 -36 -1 -79 -9 -97 -16
-41 -18 -51 -8 -28 26 17 26 17 27 -1 19 -36 -15 -62 -17 -68 -6 -12 20 -27
12 -39 -20z m73 -39 c0 -5 -4 -10 -9 -10 -5 0 -18 -3 -28 -6 -16 -5 -16 -4 1
10 23 18 36 20 36 6z m-8 -116 c-20 -9 -43 -12 -60 -7 l-27 7 35 7 c19 3 46 7
60 7 23 0 22 -1 -8 -14z"></path>
<path class="node" id="node39" d="M1460 640 c0 -14 -7 -20 -22 -20 -22 0 -21 -1 7 -28 26 -24 32 -26
45 -14 8 7 24 19 35 27 20 14 20 14 -2 15 -13 0 -24 8 -28 20 -3 11 -13 20
-21 20 -8 0 -14 -9 -14 -20z"></path>
<path class="node" id="node40" d="M1334 629 c-3 -6 -1 -16 6 -22 10 -9 14 -9 17 1 3 6 12 12 21 12 15
0 15 2 2 10 -20 13 -37 12 -46 -1z"></path>
<path class="node" id="node41" d="M1584 614 c9 -8 20 -12 26 -9 19 12 10 25 -16 25 -23 0 -24 -1 -10
-16z"></path>
<path class="node" id="node42" d="M1475 441 c-10 -18 -126 -70 -141 -64 -8 3 -14 -1 -14 -10 0 -8 -5
-17 -12 -19 -7 -3 -3 -13 11 -27 19 -19 27 -21 47 -12 19 8 25 7 33 -6 7 -13
12 -14 23 -6 14 12 42 12 54 1 3 -4 17 -2 31 3 17 6 30 6 39 -2 11 -9 15 -8
20 5 4 12 10 13 24 6 25 -13 53 -13 45 1 -4 6 3 13 15 16 l21 6 -22 23 c-12
13 -32 24 -43 24 -25 0 -96 36 -113 56 -7 10 -13 11 -18 5z"></path>
</g>
</svg>