<!--?xml version="1.0" standalone="no"?-->

<svg version="1.0" xmlns="http://www.w3.org/2000/svg" width="240.000000pt" height="300.000000pt" viewBox="0 0 240.000000 300.000000" preserveAspectRatio="xMidYMid meet">
<g transform="translate(0.000000,300.000000) scale(0.100000,-0.100000)" fill="#0F0F0F" stroke="none">
<path class="node" id="node1" d="M97 2984 c-3 -3 10 -34 28 -68 19 -34 44 -101 55 -149 23 -94 67
-207 82 -207 5 0 4 9 -2 19 -16 31 -12 69 9 81 32 16 50 12 132 -30 63 -33 88
-40 133 -40 59 0 75 14 29 23 -72 14 -143 98 -143 167 0 26 6 33 33 45 32 13
43 13 127 -11 37 -10 -62 53 -145 92 -114 55 -315 101 -338 78z"></path>
<path class="node" id="node2" d="M2118 2965 c-82 -23 -178 -65 -276 -122 -24 -14 -41 -27 -39 -29 1
-2 25 3 52 12 59 18 89 12 111 -20 34 -53 -32 -155 -120 -187 -51 -18 -45 -29
17 -29 42 0 71 9 136 41 64 31 89 39 113 34 36 -8 45 -28 30 -68 -6 -17 -10
-33 -8 -35 11 -10 67 133 81 208 13 63 37 124 66 166 15 23 25 44 22 48 -13
13 -101 4 -185 -19z"></path>
<path class="node" id="node3" d="M828 2903 c-30 -5 -36 -21 -16 -41 9 -9 -6 -12 -67 -13 -44 0 -89 -4
-100 -8 l-20 -8 20 -6 c11 -3 47 -11 80 -17 140 -24 225 -139 119 -161 l-29
-6 30 -7 c86 -20 114 -31 166 -66 31 -22 76 -63 99 -92 64 -77 63 -77 55 -38
-12 60 -82 193 -130 248 l-47 52 47 0 c31 0 65 -10 104 -30 l59 -29 59 29 c71
35 143 48 143 25 0 -8 -4 -15 -9 -15 -32 0 -161 -229 -161 -285 1 -30 1 -30
14 -7 21 39 108 122 156 151 25 14 74 36 110 48 36 12 56 22 44 22 -50 2 -60
62 -16 104 36 34 83 53 157 62 33 4 64 10 69 13 18 11 -30 21 -106 21 -77 1
-89 6 -66 29 19 19 5 23 -78 24 -69 0 -111 -6 -186 -28 -13 -4 -16 -1 -12 10
5 14 2 14 -32 2 -22 -8 -51 -19 -66 -26 -19 -9 -31 -10 -40 -3 -24 19 -90 36
-97 25 -4 -7 -22 -6 -56 2 -59 16 -159 25 -197 19z"></path>
<path class="node" id="node4" d="M1680 2649 l-45 -41 50 38 c28 21 52 40 54 41 2 2 0 3 -5 3 -5 0 -29
-18 -54 -41z"></path>
<path class="node" id="node5" d="M710 2647 c0 -2 15 -16 33 -33 l32 -29 -29 33 c-28 30 -36 37 -36 29z"></path>
<path class="node" id="node6" d="M1595 2550 c-77 -121 -97 -150 -139 -197 -26 -28 -68 -62 -94 -75
l-47 -23 33 -3 c48 -5 111 31 155 89 21 27 48 55 61 60 18 9 22 18 22 58 0 28
9 65 21 89 26 53 21 54 -12 2z"></path>
<path class="node" id="node7" d="M792 2539 c11 -23 18 -57 17 -77 -2 -34 5 -44 69 -110 75 -76 119
-102 174 -102 l33 1 -45 24 c-65 33 -123 95 -196 208 -35 53 -65 97 -68 97 -2
0 5 -18 16 -41z"></path>
<path class="node" id="node8" d="M304 2504 c-96 -64 -162 -152 -174 -231 l-7 -44 24 22 c28 27 31 8 4
-29 -19 -28 -51 -123 -51 -151 0 -9 11 1 24 22 33 54 65 86 109 109 44 22 45
34 2 18 -15 -6 -31 -8 -34 -4 -14 13 48 101 93 132 54 36 35 45 -26 13 -19
-11 -38 -17 -41 -14 -18 17 65 122 133 167 23 15 23 16 4 16 -12 0 -39 -12
-60 -26z"></path>
<path class="node" id="node9" d="M2035 2515 c11 -9 33 -26 49 -38 32 -24 86 -103 86 -124 0 -10 -11
-8 -41 7 -61 32 -79 21 -27 -16 40 -28 106 -119 95 -130 -2 -3 -16 0 -31 6
-41 15 -55 11 -21 -7 39 -20 81 -58 116 -107 21 -29 29 -34 29 -20 0 34 -21
97 -47 137 -26 41 -26 59 0 32 34 -33 36 -9 5 72 -32 86 -126 175 -208 197
-24 7 -24 7 -5 -9z"></path>
<path class="node" id="node10" d="M480 2392 c49 -25 108 -87 95 -100 -3 -3 -36 -4 -74 -3 -79 3 -143
-7 -135 -20 3 -5 18 -9 34 -9 36 0 80 -16 80 -30 0 -5 -10 -10 -22 -10 -72 0
-201 -98 -246 -187 -43 -83 -51 -232 -17 -308 l13 -30 1 42 c2 92 60 194 138
243 42 27 118 48 130 37 3 -3 -6 -21 -20 -39 -27 -35 -60 -108 -50 -108 4 0
19 12 34 26 39 38 48 25 32 -48 -13 -62 -11 -106 8 -180 12 -47 21 -48 38 -3
20 57 89 152 133 184 59 44 71 41 53 -10 -27 -74 -14 -80 34 -16 31 42 77 77
100 77 8 0 10 -12 5 -35 l-6 -34 36 34 c48 45 104 62 158 48 39 -10 39 -10 34
13 -4 13 -2 24 3 24 16 0 82 -87 97 -127 13 -35 14 -27 8 87 -3 69 -8 128 -10
132 -3 4 -11 5 -19 2 -17 -7 -30 34 -21 64 4 12 -1 25 -13 36 -18 16 -22 16
-50 2 -16 -9 -48 -16 -70 -16 -101 0 -251 81 -251 136 0 21 4 24 37 24 36 0
36 0 18 20 -33 36 -137 79 -229 95 -135 23 -152 20 -86 -13z m240 -254 c34 -7
68 -22 88 -39 18 -16 46 -36 62 -44 17 -9 30 -19 30 -23 0 -5 -21 -16 -47 -25
-38 -13 -57 -15 -92 -7 -85 20 -121 51 -140 118 -11 36 -4 45 24 37 11 -3 45
-11 75 -17z"></path>
<path class="node" id="node11" d="M730 2078 c0 -19 36 -48 62 -48 28 0 31 20 8 46 -27 27 -70 29 -70 2z"></path>
<path class="node" id="node12" d="M1815 2404 c-98 -21 -235 -87 -235 -113 0 -3 17 -6 37 -6 50 0 54
-23 11 -65 -71 -71 -235 -114 -293 -76 -38 25 -63 5 -67 -54 -2 -34 -7 -44
-19 -42 -13 2 -17 -18 -27 -112 -16 -149 -15 -159 7 -110 20 43 86 124 103
124 5 0 4 -9 -2 -21 -15 -26 -7 -34 18 -20 44 23 118 3 172 -45 l39 -35 -6 35
c-3 20 -3 36 1 36 21 0 69 -35 106 -77 41 -47 42 -47 37 -18 -3 17 -8 40 -12
53 -13 40 23 25 84 -36 37 -37 70 -83 93 -130 l35 -73 14 33 c15 36 19 171 6
231 -9 44 0 47 42 11 17 -14 31 -24 31 -21 0 13 -34 83 -52 108 -12 16 -19 32
-15 35 11 11 96 -15 135 -41 54 -36 99 -109 120 -195 l19 -75 13 53 c19 82 9
195 -25 265 -49 103 -141 178 -234 193 -67 11 -52 32 33 44 l51 7 -30 12 c-18
8 -60 11 -107 9 -55 -2 -78 0 -78 9 0 22 52 74 99 98 l46 24 -40 0 c-22 0 -71
-7 -110 -15z m-35 -268 c0 -32 -39 -86 -78 -109 -57 -34 -118 -40 -168 -17
-50 22 -53 27 -21 39 12 5 42 24 67 43 27 19 71 40 110 49 88 23 90 22 90 -5z"></path>
<path class="node" id="node13" d="M1590 2073 c-21 -27 -15 -42 18 -43 15 0 62 45 62 60 0 22 -58 10
-80 -17z"></path>
<path class="node" id="node14" d="M156 2057 c-55 -82 -94 -175 -123 -288 -71 -281 2 -584 189 -791 34
-38 106 -98 117 -98 3 0 4 29 3 65 -2 36 0 65 5 65 5 0 26 -18 47 -39 21 -22
71 -61 110 -88 169 -115 250 -187 287 -258 13 -25 27 -45 31 -45 13 0 8 82 -6
123 -21 59 -66 116 -111 142 -22 14 -53 37 -69 54 l-28 29 36 27 c42 32 47 49
10 35 -166 -64 -340 160 -248 320 l26 45 -27 -25 c-31 -29 -50 -64 -75 -134
l-18 -51 -23 50 c-19 41 -24 66 -24 135 1 75 5 94 37 168 20 45 33 82 29 82
-13 0 -96 -57 -119 -82 -12 -14 -37 -53 -56 -87 l-33 -63 -22 48 c-49 103 -63
269 -36 411 14 75 67 198 115 271 12 17 20 32 17 32 -3 0 -22 -24 -41 -53z"></path>
<path class="node" id="node15" d="M2266 1991 c90 -184 103 -430 29 -596 l-22 -50 -27 53 c-34 68 -98
138 -149 164 -27 13 -38 16 -34 6 63 -143 62 -140 62 -243 0 -83 -4 -107 -22
-140 -15 -28 -23 -35 -27 -25 -3 8 -14 40 -26 70 -11 31 -33 71 -50 90 l-31
35 21 -42 c28 -58 27 -154 -1 -208 -52 -98 -124 -136 -222 -117 -28 6 -54 9
-55 7 -4 -4 17 -23 53 -49 25 -18 14 -42 -34 -71 -56 -34 -118 -94 -135 -130
-21 -44 -34 -116 -26 -140 6 -18 9 -16 24 13 28 54 144 164 238 225 48 31 114
82 148 113 33 31 64 54 67 50 4 -4 6 -34 5 -66 -1 -33 0 -60 4 -60 17 0 122
100 162 155 105 143 161 304 169 490 4 94 1 127 -21 225 -25 109 -93 276 -122
301 -7 6 3 -21 22 -60z"></path>
<path class="node" id="node16" d="M942 1830 c-18 -11 -47 -41 -65 -67 -17 -26 -42 -58 -55 -71 -21 -22
-24 -23 -41 -8 -10 9 -20 16 -23 16 -10 0 -48 -98 -64 -167 -29 -123 -4 -302
57 -412 22 -39 21 -35 -7 72 -24 89 0 185 26 110 30 -84 87 -123 181 -123 62
0 147 27 189 60 24 19 23 19 -30 -1 -74 -28 -215 -24 -258 8 -33 25 -40 52
-16 70 25 18 54 16 77 -4 19 -17 20 -17 9 4 -7 11 -34 37 -61 57 -61 45 -95
97 -87 131 7 27 60 60 83 51 11 -5 13 -1 6 17 -23 66 9 122 65 114 31 -6 32
-5 17 16 -30 43 -14 110 31 127 39 15 80 -14 121 -84 11 -18 12 -19 13 -3 0
27 -71 96 -105 102 -20 4 -41 -1 -63 -15z"></path>
<path class="node" id="node17" d="M1343 1825 c-25 -17 -68 -83 -60 -91 3 -3 12 8 21 24 8 16 29 41 46
56 34 28 29 36 -7 11z"></path>
<path class="node" id="node18" d="M1420 1827 c49 -25 60 -88 23 -129 -14 -16 -13 -17 19 -11 28 4 39 1
57 -18 25 -27 28 -75 5 -107 -15 -22 -15 -22 11 -10 36 16 79 -15 83 -61 3
-29 -5 -41 -74 -107 -64 -61 -72 -71 -45 -61 41 15 66 1 66 -39 0 -23 -7 -33
-35 -47 -50 -26 -205 -20 -274 11 -31 14 -44 17 -37 8 19 -22 92 -53 158 -67
116 -24 213 17 248 103 12 32 19 39 26 27 15 -24 10 -107 -11 -166 -24 -68
-19 -80 9 -25 79 156 81 377 3 550 -16 36 -20 40 -25 23 -9 -35 -43 -25 -76
22 -41 59 -107 117 -134 117 -22 0 -22 -1 3 -13z"></path>
<path class="node" id="node19" d="M985 1560 c-11 -12 -20 -41 -23 -74 -4 -48 -1 -57 21 -80 33 -33 57
-25 57 18 0 30 1 30 30 -21 39 -69 62 -83 131 -83 53 0 59 3 88 35 17 19 38
49 46 65 19 37 27 38 23 3 -2 -24 1 -28 23 -31 38 -4 53 21 53 85 -1 44 -6 60
-26 79 l-24 25 -45 -20 c-63 -29 -223 -30 -279 -1 -49 25 -53 25 -75 0z"></path>
<path class="node" id="node20" d="M849 1063 c-15 -48 -6 -151 26 -273 18 -71 25 -122 26 -205 0 -60 3
-118 7 -127 4 -10 7 20 7 65 1 77 18 157 34 157 4 0 12 -36 19 -81 15 -107 72
-209 72 -131 0 15 4 34 10 42 9 14 11 11 36 -59 7 -20 21 -3 31 38 13 50 29
48 42 -4 6 -25 19 -49 28 -52 22 -9 53 31 53 68 0 45 26 35 40 -16 7 -25 16
-45 20 -45 5 0 12 17 17 37 10 45 33 56 33 16 0 -50 15 -59 38 -21 27 44 42
102 42 161 0 33 4 47 14 47 19 0 36 -74 37 -157 0 -56 2 -64 11 -43 6 15 7 63
3 120 -5 86 -3 102 20 170 29 83 43 222 29 286 -7 32 -9 19 -14 -76 -4 -81
-11 -126 -24 -152 -10 -21 -21 -38 -25 -38 -3 0 -7 36 -9 81 -3 80 -22 156
-48 194 -13 17 -14 12 -14 -48 0 -37 -3 -67 -7 -67 -5 0 -17 17 -28 38 -31 58
-57 51 -75 -21 -8 -31 -19 -56 -24 -54 -6 2 -14 23 -19 46 -10 50 -18 47 -27
-12 l-7 -42 -15 34 -15 33 -8 -33 -8 -34 -11 47 c-14 59 -26 71 -26 27 0 -20
-6 -44 -14 -54 -13 -18 -15 -14 -31 43 -21 73 -37 77 -74 19 -21 -31 -26 -35
-34 -22 -5 9 -7 36 -5 61 2 24 1 44 -3 44 -3 0 -16 -21 -28 -47 -14 -32 -24
-80 -30 -143 l-8 -95 -24 50 c-20 43 -24 65 -24 158 0 59 -1 107 -2 107 -1 0
-7 -17 -14 -37z"></path>
<path class="node" id="node21" d="M817 407 c-28 -101 -36 -207 -17 -207 6 0 10 5 10 10 0 6 5 10 10 10
6 0 10 -9 10 -20 0 -50 79 -140 123 -140 19 1 20 2 5 11 -39 22 -42 123 -6
156 20 18 21 17 69 -35 28 -30 56 -74 66 -102 20 -57 33 -64 33 -19 0 60 45
122 65 89 4 -6 13 -5 26 3 17 10 23 9 39 -11 10 -12 22 -48 26 -80 l7 -57 18
53 c26 75 96 172 126 172 19 0 43 -54 43 -95 0 -25 -8 -43 -25 -60 -21 -22
-22 -25 -6 -25 10 0 36 13 59 30 30 21 46 43 59 80 18 51 32 65 34 33 0 -15 2
-15 9 2 18 42 11 92 -37 255 l-16 55 -13 -30 c-7 -16 -18 -61 -25 -98 -10 -56
-15 -67 -28 -61 -36 16 -92 16 -117 -1 -21 -13 -31 -14 -56 -6 -41 15 -190 14
-222 -1 -21 -9 -33 -7 -69 12 -42 22 -45 23 -77 7 -46 -23 -50 -22 -50 16 0
34 -26 136 -38 149 -4 4 -20 -39 -35 -95z"></path>
</g>
<g transform="translate(0.000000,300.000000) scale(0.100000,-0.100000)" fill="#F9785A" stroke="none">

<path class="node" id="node23" d="M618 2155 c-3 -4 -2 -20 3 -37 19 -67 55 -98 140 -118 35 -8 54 -6
92 7 26 9 47 20 47 25 0 4 -13 14 -30 23 -16 8 -44 28 -62 44 -20 17 -54 32
-88 39 -30 6 -64 14 -75 17 -11 4 -23 3 -27 0z m182 -79 c23 -26 20 -46 -8
-46 -26 0 -62 29 -62 48 0 27 43 25 70 -2z"></path>
<path class="node" id="node24" d="M1690 2141 c-39 -9 -83 -30 -110 -49 -25 -19 -55 -38 -67 -43 -32
-12 -29 -17 21 -39 50 -23 111 -17 168 17 39 23 78 77 78 109 0 27 -2 28 -90
5z m-20 -51 c0 -15 -47 -60 -62 -60 -33 1 -39 16 -18 43 22 27 80 39 80 17z"></path>
</g>
</svg>