<!--?xml version="1.0" standalone="no"?-->

<svg xmlns="http://www.w3.org/2000/svg" width="300.000000pt" height="300.000000pt" viewBox="0 0 300.000000 300.000000" preserveAspectRatio="xMidYMid meet">
<g transform="translate(0.000000,300.000000) scale(0.100000,-0.100000)" fill="#212121" stroke="none">
<path transform="scale(1) translate(-5,-5) rotate(0 202.24497558593748,118.21665954589844)" style="position: relative;" class="node" id="node1" d="M1105 2948 c-11 -6 -29 -20 -40 -31 -35 -33 -98 -73 -170 -108 -125
-60 -179 -128 -205 -259 -7 -36 -20 -76 -29 -90 -8 -14 -22 -37 -31 -51 -8
-15 -27 -44 -42 -66 -17 -24 -33 -68 -44 -118 -9 -44 -27 -98 -39 -120 -38
-67 -40 -84 -12 -113 14 -15 27 -38 29 -52 2 -20 13 -28 54 -41 28 -9 62 -24
75 -32 41 -27 108 -39 173 -32 64 7 96 23 100 48 1 8 7 21 13 29 7 8 8 19 3
28 -5 8 -6 27 -3 42 3 17 -1 37 -11 54 -14 20 -15 32 -7 55 8 23 7 37 -5 63
-15 30 -15 36 0 64 12 23 28 34 68 47 29 10 64 28 78 41 l25 23 42 -24 c29
-18 45 -36 53 -61 7 -19 9 -38 6 -41 -3 -4 -1 -12 5 -19 7 -9 7 -24 0 -51 -30
-106 2 -249 79 -355 28 -39 50 -79 50 -94 0 -35 23 -84 54 -117 14 -15 26 -36
26 -46 0 -10 14 -37 30 -59 41 -57 40 -94 -5 -136 -19 -19 -35 -31 -36 -27 0
3 0 34 1 68 l1 62 -54 58 c-192 203 -265 276 -287 288 -14 7 -64 22 -112 34
l-87 22 -34 -23 c-70 -49 -254 -195 -305 -243 l-53 -50 -6 -171 -6 -171 81
-89 c44 -49 112 -122 150 -163 69 -73 71 -73 109 -66 44 9 221 7 235 -2 6 -3
8 -25 4 -50 -6 -48 -8 -45 82 -123 21 -18 22 -27 22 -143 l0 -125 91 -103 c51
-57 122 -135 158 -172 36 -38 68 -72 69 -78 2 -5 97 -9 227 -9 l222 0 64 51
c103 82 230 208 239 237 12 36 30 172 30 230 0 26 4 52 8 57 4 6 40 35 81 65
40 29 91 77 112 104 21 28 57 74 80 102 l42 50 2 195 c0 107 5 219 9 249 7 49
5 64 -18 122 -23 57 -26 74 -20 135 6 68 5 72 -42 177 -54 121 -92 161 -185
191 -37 13 -50 22 -54 41 -3 13 -7 35 -10 48 -3 14 4 45 15 71 25 58 25 58 -4
51 -20 -5 -23 -3 -18 19 3 18 0 25 -12 25 -19 0 -20 10 -4 45 15 33 5 42 -27
21 -23 -15 -25 -15 -25 0 0 9 -10 24 -22 34 -20 15 -21 20 -8 35 9 11 14 47
16 103 3 108 -1 122 -31 122 -13 0 -27 5 -31 12 -5 8 -14 3 -28 -14 -12 -14
-37 -33 -56 -43 -19 -10 -41 -22 -48 -28 -7 -6 -47 -10 -89 -9 l-77 0 -57 69
c-36 42 -79 79 -113 99 -32 17 -72 52 -95 81 -47 59 -79 76 -178 96 -39 8 -97
27 -128 41 -63 29 -80 31 -110 14z m59 -50 c-7 -37 -45 -79 -53 -57 -2 7 6 20
18 30 24 20 28 44 6 35 -9 -3 -15 0 -15 9 0 9 10 15 25 15 22 0 24 -3 19 -32z
m126 -28 c0 -11 -48 -25 -56 -17 -4 3 -3 10 1 16 8 14 55 14 55 1z m-228 -46
c-6 -27 19 -94 35 -94 9 0 13 13 13 40 0 52 26 56 32 5 4 -33 1 -37 -41 -61
-51 -28 -61 -22 -61 37 0 19 -7 44 -15 55 -19 25 -19 32 3 37 27 7 37 1 34
-19z m368 16 c12 -8 10 -10 -10 -9 -14 0 -34 4 -45 9 -17 7 -16 9 10 9 17 0
37 -4 45 -9z m-210 -21 c0 -6 -5 -19 -11 -31 -16 -31 -6 -31 52 -4 58 29 108
36 77 12 -27 -20 -22 -26 23 -26 22 0 38 -4 34 -9 -3 -5 5 -12 17 -14 13 -3
-17 -4 -66 -3 l-90 1 -3 -65 c-6 -124 -10 -145 -37 -185 -15 -22 -31 -40 -34
-40 -23 1 -121 78 -132 105 -18 45 19 114 77 144 25 12 41 26 38 34 -5 15 33
92 46 92 5 0 9 -5 9 -11z m-255 -83 c8 -19 19 -37 25 -41 15 -9 12 -22 -5 -29
-26 -10 -63 14 -69 45 -12 63 26 82 49 25z m549 28 c17 -7 20 -22 8 -41 -6 -9
-17 -9 -47 2 l-40 14 35 1 c33 1 34 1 16 15 -16 12 -17 15 -4 15 9 0 23 -3 32
-6z m-684 -52 c0 -12 -23 -32 -37 -32 -19 0 -16 28 5 33 28 8 32 7 32 -1z
m735 -40 c-3 -3 -11 0 -18 7 -9 10 -8 11 6 5 10 -3 15 -9 12 -12z m-664 -18
c30 -15 30 -16 13 -35 -20 -22 -32 -23 -57 -5 -16 12 -16 17 -5 35 15 25 12
25 49 5z m644 -3 l70 -19 -94 1 c-61 1 -95 -2 -98 -9 -2 -7 13 -14 37 -17 22
-3 48 -11 57 -19 9 -7 32 -18 52 -24 30 -10 32 -12 11 -13 -14 0 -43 11 -65
24 -22 14 -53 25 -70 25 l-30 0 38 -31 c20 -17 37 -35 37 -40 0 -11 -25 -12
-48 0 -52 26 -91 39 -98 32 -14 -13 -64 -22 -64 -12 0 19 31 39 70 46 47 8 49
27 4 35 l-29 6 40 16 c52 22 95 22 180 -1z m-775 -42 c0 -4 -7 -6 -15 -3 -8 4
-15 10 -15 15 0 4 7 6 15 3 8 -4 15 -10 15 -15z m1320 -28 c-5 -11 -10 -29
-10 -41 0 -13 -8 -24 -19 -27 -11 -3 -22 -11 -25 -19 -8 -21 -30 -17 -55 10
l-23 24 24 15 c12 9 35 21 51 28 15 7 27 16 27 21 0 4 9 8 20 8 17 0 19 -3 10
-19z m26 -49 c-11 -10 -14 3 -8 33 l7 30 3 -28 c2 -16 1 -31 -2 -35z m-1267
21 l21 -18 -27 -55 c-24 -50 -27 -53 -36 -34 -5 12 -27 30 -48 40 -39 19 -46
28 -31 38 13 8 82 -13 82 -24 0 -6 5 -10 10 -10 15 0 12 36 -5 50 -8 7 -15 16
-15 21 0 15 26 10 49 -8z m247 -67 c25 -8 80 -63 71 -72 -8 -9 -104 53 -122
79 -22 32 -18 43 8 20 12 -11 31 -24 43 -27z m314 30 c70 -27 100 -40 100 -46
0 -3 4 -11 9 -19 8 -12 15 -8 40 18 17 18 31 37 31 41 0 12 61 24 69 13 3 -5
24 -17 45 -27 31 -14 54 -17 105 -13 l66 5 -37 -15 c-21 -9 -38 -20 -38 -24 0
-5 -29 -9 -65 -9 -36 0 -65 -3 -65 -6 0 -14 31 -34 52 -34 30 -1 107 -36 136
-62 28 -27 31 -3 2 27 l-19 21 43 10 c43 10 44 9 35 -13 -13 -34 4 -28 41 13
40 46 30 57 -39 44 -30 -5 -68 -10 -85 -10 l-31 1 40 16 c66 27 172 14 160
-20 -3 -6 10 -19 27 -27 37 -17 49 -40 20 -40 -10 0 -27 -9 -36 -19 -10 -11
-31 -25 -48 -32 -29 -12 -33 -11 -46 9 -20 30 -29 28 -29 -8 0 -22 5 -30 18
-30 41 0 118 -116 93 -140 -20 -18 -71 -18 -109 0 l-40 18 35 2 35 1 -28 15
c-17 9 -39 13 -53 10 -39 -10 -27 4 22 26 35 15 43 22 33 29 -25 15 -45 10
-74 -21 -16 -17 -36 -30 -44 -29 -12 0 -10 3 4 9 11 5 33 22 48 39 16 17 33
31 38 31 5 0 9 4 9 8 0 5 -13 7 -29 4 -16 -2 -63 8 -106 23 -77 26 -103 26
-130 -1 -13 -13 -11 -18 18 -43 33 -29 40 -31 107 -34 52 -3 52 -17 0 -17 -29
0 -38 -4 -34 -14 3 -7 -2 -16 -10 -19 -32 -13 -14 -22 36 -20 l53 3 -50 -16
c-56 -18 -92 -46 -98 -78 -3 -12 -5 -6 -6 15 -1 23 7 46 20 63 12 15 19 29 16
32 -10 10 -45 -6 -72 -34 -27 -27 -27 -28 -21 -117 4 -49 10 -94 15 -100 4 -5
13 -23 19 -40 l12 -30 -25 30 c-32 38 -44 83 -44 167 0 59 3 70 30 105 33 41
25 53 -24 34 -45 -17 -59 -60 -53 -159 3 -48 5 -88 5 -88 1 -1 19 -23 41 -50
22 -26 37 -50 34 -53 -6 -7 -94 81 -94 95 0 6 -11 28 -25 48 -14 21 -25 43
-23 49 4 24 -14 127 -22 127 -14 0 -23 -65 -18 -124 4 -54 33 -104 88 -153 16
-15 20 -22 11 -23 -8 0 -52 39 -98 88 -45 48 -83 82 -83 76 0 -5 6 -16 13 -24
6 -8 2 -6 -10 4 -13 11 -23 28 -23 39 0 12 -10 31 -22 44 -17 18 -19 26 -10
32 16 9 5 71 -14 78 -21 8 -6 23 21 23 14 0 29 9 35 21 7 11 14 19 16 16 3 -3
-4 -20 -15 -38 -12 -19 -21 -43 -21 -55 0 -36 32 -115 49 -122 9 -3 20 -11 24
-19 17 -28 23 -11 19 53 -4 63 2 99 33 187 16 45 9 47 -33 6 -23 -23 -32 -27
-32 -15 0 9 5 16 10 16 6 0 10 7 10 15 0 9 11 28 25 43 14 15 25 21 25 14 0
-18 27 -15 34 4 4 9 4 26 0 37 -5 16 -3 19 10 14 27 -11 18 20 -11 41 -16 11
-52 25 -81 33 -46 11 -55 11 -63 -1 -5 -8 -6 -22 -3 -30 11 -24 22 -102 14
-93 -16 17 -41 114 -35 133 16 50 58 62 125 36z m465 4 c-11 -5 -47 -8 -80 -8
l-60 1 65 7 c94 9 97 9 75 0z m49 -9 c3 -5 -5 -11 -19 -13 -26 -5 -35 6 -12
15 19 8 25 8 31 -2z m196 -42 c0 -15 -9 -37 -20 -50 -22 -28 -27 -14 -5 16 10
12 13 31 9 55 -4 26 -3 31 5 20 6 -8 11 -27 11 -41z m-876 -5 c-11 -16 -14
-28 -7 -32 5 -4 15 -17 22 -29 9 -18 9 -23 -1 -23 -7 0 -26 -7 -42 -15 l-29
-15 6 39 c2 21 15 53 28 70 27 37 46 42 23 5z m-344 -9 c0 -4 -41 -95 -47
-104 -2 -3 -8 0 -14 6 -11 11 4 55 29 86 14 16 32 23 32 12z m191 -18 c42 -19
69 -55 69 -92 0 -30 -4 -31 -41 -4 -36 25 -101 132 -71 117 4 -2 23 -11 43
-21z m-308 -14 c23 -11 28 -19 23 -38 -4 -14 0 -27 10 -35 8 -7 24 -27 35 -44
l21 -31 -24 25 c-13 14 -34 34 -47 45 l-25 20 16 -24 c9 -13 14 -29 12 -35 -3
-7 7 -23 21 -36 20 -19 25 -33 25 -71 0 -30 -5 -49 -14 -52 -15 -6 -29 -47
-16 -47 5 0 12 5 15 10 7 12 45 -30 68 -76 15 -30 15 -32 -1 -27 -10 2 -27 -6
-41 -21 -27 -28 -53 -33 -68 -13 -18 22 -34 82 -24 85 6 2 2 16 -9 30 -22 31
-62 140 -55 152 2 4 16 5 31 2 19 -3 25 -1 22 8 -5 16 -20 24 -75 41 -24 7
-43 15 -43 17 0 3 10 21 23 39 23 35 39 39 81 23 15 -5 28 -6 31 0 9 14 -32
50 -65 57 -16 3 -27 10 -24 15 7 11 58 1 97 -19z m567 8 c0 -11 5 -23 10 -26
6 -3 10 3 10 14 0 12 5 21 10 21 6 0 10 -8 10 -18 0 -10 7 -27 15 -39 14 -19
13 -21 -17 -27 -35 -7 -48 4 -48 41 0 12 -3 28 -6 37 -3 9 -1 16 5 16 6 0 11
-9 11 -19z m-704 -77 c-9 -8 -16 -22 -16 -30 0 -8 -7 -14 -15 -14 -8 0 -15 3
-15 7 0 10 42 53 52 53 5 0 2 -7 -6 -16z m407 -26 c-19 -21 -75 -48 -100 -48
-27 0 -8 22 31 35 22 8 46 21 54 29 22 22 37 8 15 -16z m1067 11 c0 -6 -4 -7
-10 -4 -5 3 -10 11 -10 16 0 6 5 7 10 4 6 -3 10 -11 10 -16z m-819 -11 c28
-35 24 -48 -17 -48 -31 0 -35 -2 -29 -21 6 -18 5 -19 -14 -7 -27 16 -27 38 0
72 25 32 35 33 60 4z m782 -13 c7 2 22 -11 34 -30 l22 -35 -25 16 c-35 24 -39
12 -9 -31 14 -21 25 -45 24 -54 0 -10 -3 -8 -9 7 -10 23 -36 39 -47 28 -4 -3
-1 -12 5 -18 20 -20 14 -28 -11 -17 -17 8 -24 19 -24 40 0 37 -8 45 -29 28
-16 -13 -16 -12 -5 9 7 13 20 21 29 20 13 -2 18 6 21 32 2 19 6 27 8 18 2 -9
10 -15 16 -13z m90 -31 c-4 -11 -9 -12 -19 -3 -20 16 -17 28 5 22 12 -3 17
-11 14 -19z m-168 6 c-3 -5 -11 -10 -16 -10 -6 0 -7 5 -4 10 3 6 11 10 16 10
6 0 7 -4 4 -10z m-240 -30 c3 -5 -3 -10 -14 -10 -11 0 -23 5 -26 10 -3 6 3 10
14 10 11 0 23 -4 26 -10z m-888 -32 c-3 -8 -6 -5 -6 6 -1 11 2 17 5 13 3 -3 4
-12 1 -19z m1323 2 c0 -11 -30 -34 -36 -27 -12 11 7 46 22 40 7 -3 14 -9 14
-13z m-1516 -17 c3 -11 9 -29 13 -39 7 -18 7 -18 -44 3 -20 8 -15 -21 8 -46
l21 -22 -26 -20 c-14 -11 -26 -25 -26 -31 0 -7 5 -6 14 1 19 16 31 -3 31 -51
0 -44 18 -56 23 -16 3 23 28 58 35 47 13 -20 37 -83 37 -97 0 -10 -6 -26 -13
-35 -11 -16 -15 -16 -62 -1 -28 9 -57 22 -65 29 -8 7 -32 18 -52 24 -47 15
-82 62 -74 97 6 23 8 24 29 9 22 -15 57 -21 57 -8 0 3 -8 15 -17 26 -20 22
-22 85 -4 129 10 26 14 28 60 25 42 -2 51 -6 55 -24z m660 -15 c-4 -6 -7 -31
-5 -54 1 -23 -3 -45 -9 -49 -6 -4 -10 8 -10 32 0 48 9 83 22 83 5 0 6 -5 2
-12z m874 -16 c6 -18 -15 -14 -22 4 -4 10 -1 14 6 12 6 -2 14 -10 16 -16z
m-86 -122 c-7 -18 -8 -11 -7 31 3 71 8 83 12 34 2 -23 0 -52 -5 -65z m-26 26
c-3 -14 -12 -23 -19 -21 -12 5 -63 -32 -55 -40 2 -2 16 2 31 10 22 11 27 11
27 0 0 -7 -11 -16 -25 -19 -14 -4 -25 -11 -25 -17 0 -6 9 -8 20 -4 24 7 27
-10 4 -19 -23 -9 -94 -7 -94 2 0 13 47 73 80 104 17 15 30 35 30 45 0 16 1 16
16 1 11 -11 14 -25 10 -42z m-313 -1 c18 -22 39 -36 61 -41 19 -3 42 -15 52
-25 9 -10 26 -19 36 -19 14 0 18 -6 16 -21 -2 -15 -22 -28 -76 -50 l-74 -29
-41 18 c-56 25 -74 47 -87 107 -11 49 -10 51 17 72 39 32 64 29 96 -12z m-517
-117 c63 -126 61 -124 71 -115 3 4 1 25 -6 48 -7 22 -10 43 -8 46 9 8 46 -17
90 -60 40 -40 75 -57 190 -93 48 -15 55 -34 14 -34 -21 -1 -21 -1 3 -15 14 -8
19 -14 11 -15 -10 0 -7 -8 10 -26 19 -20 31 -25 63 -22 25 2 41 -2 43 -9 3 -9
-6 -13 -24 -13 l-28 -1 34 -14 c23 -11 31 -20 27 -31 -3 -9 -6 -23 -6 -32 -1
-9 -10 0 -21 21 -11 20 -22 37 -25 37 -7 0 0 -41 11 -75 4 -11 -5 -3 -20 18
-16 20 -30 35 -32 33 -2 -2 3 -22 10 -45 8 -22 11 -41 7 -41 -4 0 -26 20 -49
45 -33 36 -41 41 -41 24 0 -11 7 -36 15 -57 10 -24 12 -38 5 -40 -5 -2 -10
-15 -10 -28 0 -24 -15 -31 -35 -16 -17 12 -63 84 -100 157 -33 65 -36 67 -30
30 4 -21 13 -52 21 -67 l15 -28 -53 20 c-29 11 -54 20 -54 20 -4 0 -17 37 -24
68 -7 27 -5 32 10 32 9 0 25 -9 35 -20 20 -22 27 -20 32 10 2 14 -7 22 -34 31
-34 11 -35 13 -18 25 22 16 25 13 -43 44 -51 23 -92 60 -92 83 0 6 8 3 18 -6
17 -16 52 -24 52 -12 0 3 -13 27 -30 53 -16 27 -30 56 -30 63 0 8 -9 32 -20
54 -19 38 -26 65 -15 65 3 0 30 -51 61 -112z m841 30 c-3 -7 -5 -2 -5 12 0 14
2 19 5 13 2 -7 2 -19 0 -25z m156 -2 c47 -20 48 -42 1 -81 -31 -26 -33 -30
-17 -36 39 -16 96 -9 120 13 22 21 24 21 41 4 16 -17 15 -19 -23 -53 -52 -45
-80 -56 -132 -48 -24 3 -43 4 -43 1 0 -15 74 -46 123 -52 31 -4 57 -11 57 -16
0 -5 -7 -22 -15 -38 -18 -35 -71 -52 -130 -43 l-40 6 57 -56 c31 -31 53 -59
48 -62 -5 -3 -11 -1 -15 5 -3 5 -11 10 -17 10 -7 0 0 -13 15 -28 15 -15 27
-31 27 -35 0 -3 -20 0 -44 7 -25 8 -47 12 -49 10 -2 -2 13 -22 35 -44 45 -48
52 -77 8 -35 -52 50 -52 20 1 -63 25 -38 16 -58 -10 -25 -19 23 -52 25 -59 4
-2 -7 -29 -23 -61 -37 -31 -14 -77 -43 -103 -64 l-46 -40 -17 71 c-9 39 -15
91 -14 115 4 61 -7 65 -15 5 -4 -31 0 -79 10 -131 18 -90 17 -95 -38 -118 -35
-14 -39 5 -8 33 24 22 25 41 4 91 -12 29 -15 59 -12 118 4 70 3 77 -9 60 -11
-14 -14 -41 -11 -106 2 -48 0 -84 -4 -82 -5 3 -18 24 -29 47 -29 56 -22 140
17 221 38 78 59 87 52 22 -5 -41 -4 -44 8 -29 7 10 14 32 14 50 0 25 4 31 15
27 11 -5 15 -22 15 -63 0 -40 3 -52 10 -41 5 8 10 32 10 53 0 44 17 81 57 124
23 25 33 29 52 22 12 -5 26 -7 30 -4 4 2 29 -2 56 -10 60 -19 108 -20 103 -2
-2 6 -31 26 -65 42 -33 17 -76 46 -94 65 -19 19 -43 41 -54 48 -19 12 -18 12
5 6 14 -3 60 -10 102 -14 42 -4 81 -11 87 -15 6 -3 11 0 11 8 0 18 -123 97
-151 97 -10 0 -19 5 -19 10 0 6 9 10 19 10 11 0 23 5 26 10 3 6 1 10 -4 10
-18 0 -13 28 7 39 9 6 13 11 9 11 -5 0 -5 5 -1 11 7 13 43 7 97 -15z m-1369
-31 c18 -27 10 -32 -19 -12 -10 8 -15 19 -11 25 10 16 11 16 30 -13z m-275
-51 c3 -3 -8 -3 -24 1 -48 11 -55 14 -55 25 0 9 65 -12 79 -26z m1342 -21
c-12 -20 -14 -14 -5 12 4 9 9 14 11 11 3 -2 0 -13 -6 -23z m-1124 -15 c-3 -7
-5 -2 -5 12 0 14 2 19 5 13 2 -7 2 -19 0 -25z m894 0 l23 -33 -27 24 c-15 14
-27 28 -27 33 0 15 8 8 31 -24z m-951 -8 c0 -5 -7 -10 -16 -10 -8 0 -12 5 -9
10 3 6 10 10 16 10 5 0 9 -4 9 -10z m1024 -5 c10 -7 15 -18 11 -24 -9 -16 -25
-13 -25 4 0 8 -4 15 -10 15 -5 0 -10 5 -10 10 0 14 11 12 34 -5z m215 -28 c1
-5 -3 -5 -9 -2 -5 3 -10 16 -9 28 0 21 1 21 9 2 5 -11 9 -24 9 -28z m-224 -77
c21 -41 47 -45 108 -16 29 13 65 27 80 30 80 17 77 18 77 -6 0 -34 -23 -88
-37 -88 -7 0 -17 -9 -23 -20 -19 -36 -124 -47 -150 -15 -6 8 -17 12 -24 9 -14
-5 -86 61 -86 78 0 7 6 3 14 -8 25 -33 28 -8 4 29 -26 40 -43 48 -35 16 4 -16
3 -19 -5 -11 -6 6 -12 29 -14 52 l-4 41 41 -31 c22 -18 46 -45 54 -60z m129
75 c42 0 60 -4 64 -14 3 -9 0 -12 -10 -8 -9 3 -21 0 -27 -6 -7 -7 -22 -13 -34
-14 -12 -1 -37 -4 -54 -7 -27 -4 -33 -2 -33 14 0 30 11 50 24 42 6 -4 38 -7
70 -7z m-1003 -85 c33 -27 63 -50 67 -50 3 0 -16 23 -43 51 -53 54 -52 54 37
25 50 -17 72 -35 205 -169 123 -124 143 -148 118 -143 -73 17 -137 58 -212
136 -41 44 -80 80 -84 80 -19 0 -8 -22 19 -37 29 -17 102 -104 102 -122 0 -5
-42 -44 -92 -85 -51 -42 -133 -109 -183 -151 -49 -41 -95 -75 -101 -75 -6 0
-47 42 -90 92 -44 51 -103 119 -131 150 -29 32 -53 62 -53 66 0 5 33 34 73 65
39 32 117 93 172 136 55 44 108 80 118 80 10 1 45 -21 78 -49z m1539 5 c0 -8
-7 -15 -15 -15 -16 0 -20 12 -8 23 11 12 23 8 23 -8z m-756 -17 c18 -25 13
-38 -14 -38 -25 0 -36 20 -19 31 12 8 12 11 -1 19 -13 8 -13 10 2 10 9 0 24
-10 32 -22z m96 -103 c7 -8 8 -15 2 -15 -5 0 -15 7 -22 15 -7 8 -8 15 -2 15 5
0 15 -7 22 -15z m669 -47 c1 -11 -60 -21 -70 -11 -16 16 1 42 29 45 24 3 39
-9 41 -34z m-103 3 c-5 -8 -56 -3 -56 5 0 2 14 4 31 4 16 0 28 -4 25 -9z
m-486 -10 c0 -6 -4 -13 -10 -16 -5 -3 -10 1 -10 9 0 9 5 16 10 16 6 0 10 -4
10 -9z m581 -82 c63 -19 69 -23 69 -47 0 -21 -2 -24 -10 -12 -6 10 -10 11 -10
3 0 -18 -51 -16 -74 2 -11 8 -32 15 -48 15 -26 0 -48 23 -48 49 0 17 45 13
121 -10z m-779 -69 c13 -10 20 -22 16 -26 -11 -11 -68 55 -68 80 0 18 2 18 15
-7 8 -16 25 -37 37 -47z m807 -65 c2 -3 0 -10 -6 -16 -8 -8 -17 -8 -31 0 -11
6 -38 11 -59 11 -21 0 -45 5 -53 11 -11 8 7 9 64 5 44 -3 82 -8 85 -11z m31
-30 c-6 -15 -13 -26 -16 -23 -2 3 0 18 6 33 6 15 13 26 16 23 2 -3 0 -18 -6
-33z m-1298 -11 c11 -25 9 -29 -32 -65 -26 -23 -52 -37 -62 -35 -12 3 -18 -2
-18 -14 0 -10 -6 -23 -13 -29 -10 -8 -18 -4 -33 17 -35 47 -38 58 -11 33 15
-14 29 -22 32 -19 8 7 -5 38 -16 38 -5 0 -7 11 -3 25 5 20 3 24 -10 19 -9 -3
-16 -1 -16 5 0 11 98 42 163 50 4 1 13 -11 19 -25z m72 1 c16 -24 16 -25 -4
-25 -11 0 -20 6 -20 13 0 8 -4 7 -10 -3 -8 -12 -10 -11 -10 6 0 40 21 45 44 9z
m1074 -43 c23 -8 41 -20 39 -26 -6 -18 -70 -6 -94 17 -27 24 -30 42 -5 32 9
-4 36 -15 60 -23z m-128 -20 c0 -15 7 -37 15 -48 18 -26 74 -54 109 -54 19 0
26 -5 26 -20 0 -23 -22 -27 -39 -6 -17 20 -101 50 -112 39 -5 -5 9 -28 32 -56
23 -27 37 -52 33 -58 -5 -8 -16 -1 -34 21 -29 35 -59 35 -40 0 5 -10 10 -26
10 -35 0 -14 -6 -13 -41 7 -23 13 -57 37 -75 55 -19 18 -54 38 -79 45 l-45 13
62 42 c65 43 143 82 166 83 7 0 12 -12 12 -28z m-892 -13 c22 -9 29 -24 14
-33 -5 -3 -16 4 -25 15 -9 10 -27 19 -39 19 l-21 0 23 -25 c23 -24 23 -26 5
-39 -10 -7 -52 -31 -94 -52 -42 -21 -92 -55 -112 -75 l-35 -35 -19 25 -19 25
85 80 c54 52 101 87 130 98 42 16 57 15 107 -3z m150 -66 c43 -20 32 -33 -72
-85 -117 -58 -181 -109 -211 -168 -15 -29 -32 -50 -41 -50 -13 0 -14 3 -4 15
10 12 9 16 -4 21 -8 3 -21 21 -28 40 -6 19 -15 34 -19 34 -4 0 -11 9 -14 20
-9 28 19 50 129 105 49 25 94 50 101 55 22 18 90 38 110 33 11 -3 35 -12 53
-20z m178 -74 c86 -70 112 -73 35 -3 -28 26 -50 49 -47 52 3 2 39 -6 80 -18
72 -22 80 -28 187 -134 133 -131 241 -247 236 -252 -4 -4 -28 6 -153 62 -17 7
-74 57 -127 111 -53 53 -99 94 -103 91 -3 -4 31 -43 75 -88 45 -46 81 -88 81
-95 0 -7 -42 -46 -92 -86 -51 -40 -124 -101 -163 -135 -38 -33 -79 -68 -90
-77 -74 -60 -100 -77 -109 -74 -17 5 -316 348 -316 362 0 16 88 91 235 203 66
50 134 102 150 116 17 14 34 25 38 26 5 0 42 -27 83 -61z m383 8 c50 -17 48
-31 -6 -49 -27 -8 -63 -21 -81 -29 -31 -13 -33 -12 -63 20 -33 37 -31 45 21
59 47 14 88 13 129 -1z m387 -52 c2 -51 -8 -57 -32 -20 -14 21 -14 30 -4 56
17 40 35 23 36 -36z m47 8 c3 -5 8 -33 11 -63 6 -51 6 -54 -9 -35 -10 12 -13
29 -10 46 4 15 1 30 -4 34 -6 3 -11 10 -11 16 0 11 17 12 23 2z m-1138 -49
c-68 -59 -104 -81 -53 -31 43 42 76 66 88 66 3 0 -13 -16 -35 -35z m-321 1
c-4 -8 -10 -12 -15 -9 -11 6 -2 24 11 24 5 0 7 -7 4 -15z m1091 -15 c4 -6 -17
-21 -46 -34 l-52 -25 -28 22 c-16 11 -29 24 -29 28 0 17 145 25 155 9z m212
-64 l-21 -30 -8 39 c-12 57 -4 70 26 44 l25 -22 -22 -31z m-97 -6 c-9 -70 -20
-74 -20 -7 0 41 4 57 13 57 10 0 12 -12 7 -50z m-82 -17 c-5 -21 -12 -48 -15
-60 -3 -13 -8 -23 -12 -23 -12 0 -58 54 -65 76 -5 17 1 23 41 36 27 8 51 13
54 12 4 -2 3 -21 -3 -41z m250 -1 c2 -7 -3 -12 -12 -12 -9 0 -16 7 -16 16 0
17 22 14 28 -4z m22 -45 c0 -15 -41 -37 -68 -37 -10 0 -4 9 18 25 40 28 50 30
50 12z m-193 -29 c-3 -8 -6 -5 -6 6 -1 11 2 17 5 13 3 -3 4 -12 1 -19z m153
-42 c0 -3 -4 -8 -10 -11 -5 -3 -10 -1 -10 4 0 6 5 11 10 11 6 0 10 -2 10 -4z
m-354 -27 c27 -11 67 -29 89 -39 22 -9 51 -21 63 -25 25 -7 25 -5 1 -97 -12
-46 -18 -47 -129 -8 -47 16 -95 30 -107 30 -13 0 -50 -25 -90 -60 l-68 -61 -7
36 c-7 30 -3 45 18 80 14 25 23 49 20 54 -6 9 101 101 118 101 5 0 6 -22 4
-50 -3 -27 -1 -50 3 -50 9 0 29 64 29 93 0 21 -3 21 56 -4z m234 -44 c0 -14
-7 -28 -15 -32 -19 -6 -20 -5 -29 24 -6 17 -2 22 16 26 13 2 24 5 26 6 1 0 2
-10 2 -24z m-258 -131 c33 -8 67 -19 76 -23 10 -5 29 -14 45 -20 33 -13 34
-26 2 -84 -41 -73 -93 -112 -187 -142 -69 -22 -94 -26 -146 -21 -35 4 -72 12
-82 18 -14 9 -22 9 -35 -2 -22 -18 -42 1 -29 28 5 11 63 65 129 120 66 56 129
111 139 122 23 24 15 23 88 4z m-425 -222 c25 -12 33 -22 33 -41 -1 -37 -27
-251 -31 -256 -2 -1 -31 -5 -64 -7 l-59 -3 2 45 c1 25 7 100 14 168 l11 123
31 -7 c17 -4 46 -14 63 -22z"></path>
<path transform="scale(1) translate(0,10) rotate(0 709.4499893188477 202.82500457763672)" style="position: relative; fill: rgb(33, 33, 33); stroke: none;" class="node" id="node2" d="M1555 2440 c-27 -27 -46 -52 -43 -55 3 -3 29 10 58 30 46 31 59 35
116 35 35 0 64 3 64 8 0 6 -110 32 -138 32 -4 0 -30 -22 -57 -50z"></path>
<path style="position: relative;" class="node" id="node3" d="M1562 2381 c-29 -10 -64 -28 -77 -41 -28 -26 -59 -99 -53 -126 3 -15
8 -11 27 19 13 21 35 46 50 55 14 9 38 29 53 44 16 14 45 32 65 38 21 7 42 16
48 21 16 16 -58 9 -113 -10z"></path>
<path style="position: relative;" class="node" id="node4" d="M1515 2252 c-45 -38 -65 -74 -65 -117 0 -26 6 -48 15 -55 13 -11 15
-7 15 27 0 39 7 52 68 133 21 27 22 30 5 30 -10 -1 -27 -8 -38 -18z"></path>
<path style="position: relative;" class="node" id="node5" d="M595 2170 c-4 -12 -5 -24 -2 -27 3 -2 8 5 12 17 4 12 5 24 2 27 -3 2
-8 -5 -12 -17z"></path>
<path style="position: relative;" class="node" id="node6" d="M1750 2022 c0 -18 30 -35 65 -36 41 -1 47 16 8 26 -15 3 -38 10 -50
13 -13 4 -23 3 -23 -3z"></path>
<path style="position: relative;" class="node" id="node7" d="M1740 1973 c0 -6 15 -18 33 -27 28 -16 38 -16 77 -5 l45 13 -60 7
c-33 3 -68 10 -77 14 -10 4 -18 3 -18 -2z"></path>
<path style="position: relative;" class="node" id="node8" d="M2100 1637 c5 -5 122 -67 127 -67 2 0 3 4 3 9 0 13 -68 51 -104 58
-17 3 -29 3 -26 0z"></path>
</g>
<g transform="translate(0.000000,300.000000) scale(0.100000,-0.100000)" fill="#FFFFFF" stroke="none">

<path style="position: relative;" class="node" id="node10" d="M1120 2915 c0 -9 6 -12 15 -9 22 9 18 -15 -6 -35 -12 -10 -20 -23
-18 -30 8 -22 46 20 53 57 5 29 3 32 -19 32 -15 0 -25 -6 -25 -15z"></path>
<path style="position: relative;" class="node" id="node11" d="M1235 2869 c-4 -6 -5 -13 -1 -16 8 -8 56 6 56 17 0 13 -47 13 -55 -1z"></path>
<path style="position: relative;" class="node" id="node12" d="M1028 2843 c-22 -5 -22 -12 -3 -37 8 -11 15 -36 15 -55 0 -59 10 -65
61 -37 42 24 45 28 41 61 -6 51 -32 47 -32 -5 0 -27 -4 -40 -13 -40 -16 0 -41
67 -35 94 3 20 -7 26 -34 19z"></path>
<path style="position: relative;" class="node" id="node13" d="M1375 2840 c11 -5 31 -9 45 -9 20 -1 22 1 10 9 -8 5 -28 9 -45 9 -26
0 -27 -2 -10 -9z"></path>
<path style="position: relative;" class="node" id="node14" d="M1181 2790 c-11 -22 -18 -45 -16 -52 3 -8 -13 -22 -38 -34 -58 -30
-95 -99 -77 -144 11 -27 109 -104 132 -105 3 0 19 18 34 40 27 40 31 61 37
185 l3 65 90 -1 c49 -1 79 0 66 3 -12 2 -20 9 -17 14 4 5 -12 9 -34 9 -45 0
-50 6 -23 26 31 24 -19 17 -77 -12 -58 -27 -68 -27 -52 4 13 25 14 42 2 42 -5
0 -18 -18 -30 -40z"></path>
<path style="position: relative;" class="node" id="node15" d="M916 2755 c-10 -28 5 -72 30 -84 35 -16 74 5 44 24 -6 4 -17 22 -25
41 -15 35 -39 45 -49 19z"></path>
<path style="position: relative;" class="node" id="node16" d="M1486 2755 c18 -14 17 -14 -16 -15 l-35 -1 40 -14 c30 -11 41 -11 47
-2 18 28 1 47 -40 47 -13 0 -12 -3 4 -15z"></path>
<path style="position: relative;" class="node" id="node17" d="M798 2713 c-21 -5 -24 -33 -5 -33 14 0 37 20 37 32 0 8 -4 9 -32 1z"></path>
<path style="position: relative;" class="node" id="node18" d="M1547 2679 c7 -7 15 -10 18 -7 3 3 -2 9 -12 12 -14 6 -15 5 -6 -5z"></path>
<path style="position: relative;" class="node" id="node19" d="M852 2649 c-11 -18 -11 -23 5 -35 25 -18 37 -17 57 5 17 19 17 20
-13 35 -37 20 -34 20 -49 -5z"></path>
<path style="position: relative;" class="node" id="node20" d="M1365 2652 l-40 -16 29 -6 c45 -8 43 -27 -4 -35 -39 -7 -70 -27 -70
-46 0 -10 50 -1 64 12 7 7 46 -6 98 -32 23 -12 48 -11 48 0 0 5 -17 23 -37 40
l-38 31 30 0 c17 0 48 -11 70 -25 22 -13 51 -24 65 -24 21 1 19 3 -11 13 -20
6 -43 17 -52 24 -9 8 -35 16 -57 19 -24 3 -39 10 -37 17 3 7 37 10 98 9 l94
-1 -70 19 c-85 23 -128 23 -180 1z"></path>
<path style="position: relative;" class="node" id="node21" d="M740 2621 c0 -5 7 -11 15 -15 8 -3 15 -1 15 3 0 5 -7 11 -15 15 -8 3
-15 1 -15 -3z"></path>
<path style="position: relative;" class="node" id="node22" d="M2060 2592 c0 -5 -12 -14 -27 -21 -16 -7 -39 -19 -51 -28 l-24 -15
23 -24 c25 -27 47 -31 55 -10 3 8 14 16 25 19 11 3 19 14 19 27 0 12 5 30 10
41 9 16 7 19 -10 19 -11 0 -20 -4 -20 -8z"></path>
<path style="position: relative;" class="node" id="node23" d="M2108 2565 c-6 -30 -3 -43 8 -33 3 4 4 19 2 35 l-3 28 -7 -30z"></path>
<path style="position: relative;" class="node" id="node24" d="M800 2561 c0 -5 7 -14 15 -21 17 -14 20 -50 5 -50 -5 0 -10 4 -10 10
0 11 -69 32 -82 24 -15 -10 -8 -19 31 -38 21 -10 43 -28 48 -40 9 -19 12 -16
36 34 l27 55 -21 18 c-23 18 -49 23 -49 8z"></path>
<path style="position: relative;" class="node" id="node25" d="M1030 2524 c0 -29 121 -126 137 -110 9 9 -46 64 -71 72 -12 3 -31 16
-43 27 -13 11 -23 16 -23 11z"></path>
<path style="position: relative;" class="node" id="node26" d="M1306 2515 c-25 -26 -28 -53 -11 -108 10 -28 21 -56 25 -60 8 -9 -3
69 -14 93 -3 8 -2 22 3 30 19 29 171 -28 171 -65 0 -9 -6 -12 -16 -8 -13 5
-15 2 -10 -14 4 -11 4 -28 0 -37 -7 -19 -34 -22 -34 -4 0 7 -11 1 -25 -14 -14
-15 -25 -34 -25 -43 0 -8 -4 -15 -10 -15 -5 0 -10 -7 -10 -16 0 -12 9 -8 32
15 42 41 49 39 33 -6 -31 -88 -37 -124 -33 -187 4 -64 -2 -81 -19 -53 -4 8
-15 16 -24 19 -17 7 -49 86 -49 122 0 12 9 36 21 55 11 18 18 35 15 38 -2 3
-9 -5 -16 -16 -6 -12 -21 -21 -35 -21 -27 0 -42 -15 -21 -23 19 -7 30 -69 14
-78 -9 -6 -7 -14 10 -32 12 -13 22 -32 22 -44 0 -11 10 -28 23 -39 12 -10 16
-12 10 -4 -7 8 -13 19 -13 24 0 6 38 -28 83 -76 46 -49 90 -88 98 -88 9 1 5 8
-11 23 -55 49 -84 99 -88 153 -5 59 4 124 18 124 8 0 26 -103 22 -127 -2 -6 9
-28 23 -49 14 -20 25 -42 25 -48 0 -14 88 -102 94 -95 3 3 -12 27 -34 53 -22
27 -40 49 -41 50 0 0 -2 40 -5 88 -6 99 8 142 53 159 49 19 57 7 24 -34 -27
-35 -30 -46 -30 -105 0 -84 12 -129 44 -167 l25 -30 -12 30 c-6 17 -15 35 -19
40 -5 6 -11 51 -15 100 -6 89 -6 90 21 117 27 28 62 44 72 34 3 -3 -4 -17 -16
-32 -13 -17 -21 -40 -20 -63 1 -21 3 -27 6 -15 6 32 42 60 98 78 l50 16 -53
-3 c-50 -2 -68 7 -36 20 8 3 13 12 10 19 -4 10 5 14 34 14 52 0 52 14 0 17
-67 3 -74 5 -107 34 -29 25 -31 30 -18 43 27 27 53 27 130 1 43 -15 90 -25
106 -23 16 3 29 1 29 -4 0 -4 -4 -8 -9 -8 -5 0 -22 -14 -38 -31 -15 -17 -37
-34 -48 -39 -14 -6 -16 -9 -4 -9 8 -1 28 12 44 29 29 31 49 36 74 21 10 -7 2
-14 -33 -29 -49 -22 -61 -36 -22 -26 14 3 36 -1 53 -10 l28 -15 -35 -1 -35 -2
40 -18 c38 -18 89 -18 109 0 25 24 -52 140 -93 140 -13 0 -18 8 -18 30 0 36 9
38 29 8 13 -20 17 -21 46 -9 17 7 38 21 48 32 9 10 26 19 36 19 29 0 17 23
-20 40 -17 8 -30 21 -27 27 12 34 -94 47 -160 20 l-40 -16 31 -1 c17 0 55 5
85 10 69 13 79 2 39 -44 -37 -41 -54 -47 -41 -13 9 22 8 23 -35 13 l-43 -10
19 -21 c29 -30 26 -54 -2 -27 -29 26 -106 61 -136 62 -21 0 -52 20 -52 34 0 3
29 6 65 6 36 0 65 4 65 9 0 4 17 15 38 24 l37 15 -66 -5 c-51 -4 -74 -1 -105
13 -21 10 -42 22 -45 27 -8 11 -69 -1 -69 -13 0 -4 -14 -23 -31 -41 -25 -26
-32 -30 -40 -18 -5 8 -9 16 -9 19 0 3 -15 12 -32 19 -110 46 -146 51 -172 26z
m379 -37 c36 -7 65 -16 65 -20 0 -5 -29 -8 -64 -8 -57 0 -70 -4 -116 -35 -29
-20 -55 -33 -58 -30 -7 6 88 105 100 105 5 0 38 -6 73 -12z m-10 -87 c-6 -5
-27 -14 -48 -21 -20 -6 -49 -24 -65 -38 -15 -15 -39 -35 -53 -44 -15 -9 -37
-34 -50 -55 -19 -30 -24 -34 -27 -19 -6 27 25 100 53 126 13 13 48 31 77 41
55 19 129 26 113 10z m-127 -151 c-61 -81 -68 -94 -68 -133 0 -34 -2 -38 -15
-27 -23 19 -19 92 7 126 33 41 60 63 81 64 17 0 16 -3 -5 -30z"></path>
<path style="position: relative;" class="node" id="node27" d="M1800 2520 l-65 -7 60 -1 c33 0 69 3 80 8 22 9 19 9 -75 0z"></path>
<path style="position: relative;" class="node" id="node28" d="M1893 2513 c-23 -9 -14 -20 12 -15 14 2 22 8 19 13 -6 10 -12 10 -31
2z"></path>
<path style="position: relative;" class="node" id="node29" d="M2104 2490 c4 -24 1 -43 -9 -55 -22 -30 -17 -44 5 -16 22 25 26 67 9
91 -8 11 -9 6 -5 -20z"></path>
<path style="position: relative;" class="node" id="node30" d="M1221 2459 c-13 -17 -26 -49 -28 -70 l-6 -39 29 15 c16 8 35 15 42
15 10 0 10 5 1 23 -7 12 -17 25 -22 29 -7 4 -4 16 7 32 23 37 4 32 -23 -5z"></path>
<path style="position: relative;" class="node" id="node31" d="M868 2443 c-25 -31 -40 -75 -29 -86 6 -6 12 -9 14 -6 6 9 47 100 47
104 0 11 -18 4 -32 -12z"></path>
<path style="position: relative;" class="node" id="node32" d="M1040 2454 c0 -19 53 -95 79 -113 37 -27 41 -26 41 4 0 37 -27 73
-69 92 -20 10 -39 19 -43 21 -5 2 -8 0 -8 -4z"></path>
<path style="position: relative;" class="node" id="node33" d="M686 2442 c-3 -5 8 -12 24 -15 33 -7 74 -43 65 -57 -3 -6 -16 -5 -31
0 -42 16 -58 12 -81 -23 -13 -18 -23 -36 -23 -39 0 -2 19 -10 43 -17 55 -17
70 -25 75 -41 3 -9 -3 -11 -22 -8 -15 3 -29 2 -31 -2 -7 -12 33 -121 55 -152
11 -14 15 -28 9 -30 -10 -3 6 -63 24 -85 15 -20 41 -15 68 13 14 15 31 23 41
21 16 -5 16 -3 1 27 -23 46 -61 88 -68 76 -3 -5 -10 -10 -15 -10 -13 0 1 41
16 47 9 3 14 22 14 52 0 38 -5 52 -25 71 -14 13 -24 29 -21 36 2 6 -3 22 -12
35 l-16 24 25 -20 c13 -11 34 -31 47 -45 l24 -25 -21 31 c-11 17 -27 37 -35
44 -10 8 -14 21 -10 35 5 19 0 27 -23 38 -39 20 -90 30 -97 19z"></path>
<path style="position: relative;" class="node" id="node34" d="M1334 2434 c3 -9 6 -25 6 -37 0 -37 13 -48 48 -41 30 6 31 8 17 27
-8 12 -15 29 -15 39 0 10 -4 18 -10 18 -5 0 -10 -9 -10 -21 0 -11 -4 -17 -10
-14 -5 3 -10 15 -10 26 0 10 -5 19 -11 19 -6 0 -8 -7 -5 -16z"></path>
<path style="position: relative;" class="node" id="node35" d="M622 2347 c-26 -27 -28 -37 -7 -37 8 0 15 6 15 14 0 8 7 22 16 30 8
9 11 16 6 16 -4 0 -18 -10 -30 -23z"></path>
<path style="position: relative;" class="node" id="node36" d="M1038 2344 c-8 -8 -32 -21 -54 -29 -39 -13 -58 -35 -31 -35 25 0 81
27 100 48 22 24 7 38 -15 16z"></path>
<path style="position: relative;" class="node" id="node37" d="M2100 2351 c0 -5 5 -13 10 -16 6 -3 10 -2 10 4 0 5 -4 13 -10 16 -5
3 -10 2 -10 -4z"></path>
<path style="position: relative;" class="node" id="node38" d="M1241 2324 c-27 -34 -27 -56 0 -72 19 -12 20 -11 14 7 -6 19 -2 21
29 21 41 0 45 13 17 48 -25 29 -35 28 -60 -4z"></path>
<path style="position: relative;" class="node" id="node39" d="M2059 2310 c-3 -26 -8 -34 -21 -32 -9 1 -22 -7 -29 -20 -11 -21 -11
-22 5 -9 21 17 29 9 29 -28 0 -21 7 -32 24 -40 25 -11 31 -3 11 17 -6 6 -9 15
-5 18 11 11 37 -5 47 -28 6 -15 9 -17 9 -7 1 9 -10 33 -24 54 -30 43 -26 55 9
31 l25 -16 -22 35 c-12 19 -27 32 -34 30 -6 -2 -14 4 -16 13 -2 9 -6 1 -8 -18z"></path>
<path style="position: relative;" class="node" id="node40" d="M2140 2300 c0 -4 6 -13 14 -19 10 -9 15 -8 19 3 3 8 -2 16 -14 19
-10 3 -19 2 -19 -3z"></path>
<path style="position: relative;" class="node" id="node41" d="M1985 2290 c-3 -5 -2 -10 4 -10 5 0 13 5 16 10 3 6 2 10 -4 10 -5 0
-13 -4 -16 -10z"></path>
<path style="position: relative;" class="node" id="node42" d="M1725 2260 c3 -5 15 -10 26 -10 11 0 17 5 14 10 -3 6 -15 10 -26 10
-11 0 -17 -4 -14 -10z"></path>
<path style="position: relative;" class="node" id="node43" d="M871 2234 c0 -11 3 -14 6 -6 3 7 2 16 -1 19 -3 4 -6 -2 -5 -13z"></path>
<path style="position: relative;" class="node" id="node44" d="M2165 2229 c-9 -27 0 -35 20 -19 19 16 19 26 1 33 -9 4 -17 -2 -21
-14z"></path>
<path style="position: relative;" class="node" id="node45" d="M569 2212 c-18 -44 -16 -107 4 -129 9 -11 17 -23 17 -26 0 -13 -35
-7 -57 8 -21 15 -23 14 -29 -9 -8 -35 27 -82 74 -97 20 -6 44 -17 52 -24 8 -7
37 -20 65 -29 47 -15 51 -15 62 1 7 9 13 25 13 35 0 14 -24 77 -37 97 -7 11
-32 -24 -35 -47 -5 -40 -23 -28 -23 16 0 48 -12 67 -31 51 -9 -7 -14 -8 -14
-1 0 6 12 20 26 31 l26 20 -21 22 c-23 25 -28 54 -8 46 51 -21 51 -21 44 -3
-4 10 -10 28 -13 39 -4 18 -13 22 -55 24 -46 3 -50 1 -60 -25z m36 -52 c-4
-12 -9 -19 -12 -17 -3 3 -2 15 2 27 4 12 9 19 12 17 3 -3 2 -15 -2 -27z"></path>
<path style="position: relative;" class="node" id="node46" d="M1326 2188 c-10 -38 -7 -100 4 -93 6 4 10 26 9 49 -2 23 1 48 5 54 4
7 3 12 -2 12 -5 0 -12 -10 -16 -22z"></path>
<path style="position: relative;" class="node" id="node47" d="M2196 2186 c3 -9 11 -16 16 -16 13 0 5 23 -10 28 -7 2 -10 -2 -6 -12z"></path>
<path style="position: relative;" class="node" id="node48" d="M2131 2155 c-2 -5 -4 -35 -6 -64 -1 -42 0 -49 7 -31 5 13 7 42 5 65
-2 22 -5 36 -6 30z"></path>
<path style="position: relative;" class="node" id="node49" d="M2080 2127 c0 -10 -13 -30 -30 -45 -33 -31 -80 -91 -80 -104 0 -9 71
-11 94 -2 23 9 20 26 -4 19 -11 -4 -20 -2 -20 4 0 6 11 13 25 17 14 3 25 12
25 19 0 11 -5 11 -27 0 -15 -8 -29 -12 -31 -10 -8 8 43 45 55 40 21 -7 28 44
9 63 -15 15 -16 15 -16 -1z"></path>
<path style="position: relative;" class="node" id="node50" d="M1697 2097 c-27 -21 -28 -23 -17 -72 13 -60 31 -82 87 -107 l41 -18
74 29 c54 22 74 35 76 50 2 15 -2 21 -16 21 -10 0 -27 9 -36 19 -10 10 -33 22
-52 25 -22 5 -43 19 -61 41 -32 41 -57 44 -96 12z m126 -85 c15 -4 28 -11 27
-17 -1 -14 -67 -10 -85 5 -23 19 -18 33 8 25 12 -3 35 -10 50 -13z m12 -51
l60 -7 -45 -13 c-39 -11 -49 -11 -77 5 -34 18 -47 42 -15 29 9 -4 44 -11 77
-14z"></path>
<path style="position: relative;" class="node" id="node51" d="M1210 2067 c0 -7 9 -30 20 -52 11 -22 20 -46 20 -54 0 -7 14 -36 30
-63 17 -26 30 -50 30 -53 0 -12 -35 -4 -52 12 -10 9 -18 12 -18 6 0 -23 41
-60 92 -83 68 -31 65 -28 43 -44 -17 -12 -16 -14 18 -25 27 -9 36 -17 34 -31
-5 -30 -12 -32 -32 -10 -10 11 -26 20 -35 20 -15 0 -17 -5 -10 -32 7 -31 20
-68 24 -68 0 0 25 -9 54 -20 l53 -20 -15 28 c-8 15 -17 46 -21 67 -6 37 -3 35
30 -30 37 -73 83 -145 100 -157 20 -15 35 -8 35 16 0 13 5 26 10 28 7 2 5 16
-5 40 -8 21 -15 46 -15 57 0 17 8 12 41 -24 23 -25 45 -45 49 -45 4 0 1 19 -7
41 -7 23 -12 43 -10 45 2 2 16 -13 32 -33 15 -21 24 -29 20 -18 -11 34 -18 75
-11 75 3 0 14 -17 25 -37 11 -21 20 -30 21 -21 0 9 3 23 6 32 4 11 -4 20 -27
31 l-34 14 28 1 c18 0 27 4 24 13 -2 7 -18 11 -43 9 -32 -3 -44 2 -63 22 -17
18 -20 26 -10 26 8 1 3 7 -11 15 -24 14 -24 14 -3 15 41 0 34 19 -14 34 -115
36 -150 53 -190 93 -44 43 -81 68 -90 60 -2 -3 1 -24 8 -46 7 -23 9 -44 6 -48
-10 -9 -8 -11 -71 115 -55 109 -66 126 -66 99z"></path>
<path style="position: relative;" class="node" id="node52" d="M2112 2010 c0 -14 2 -19 5 -12 2 6 2 18 0 25 -3 6 -5 1 -5 -13z"></path>
<path style="position: relative;" class="node" id="node53" d="M2176 2011 c-4 -6 -4 -11 1 -11 4 0 0 -5 -9 -11 -20 -11 -25 -39 -7
-39 5 0 7 -4 4 -10 -3 -5 -15 -10 -26 -10 -10 0 -19 -4 -19 -10 0 -5 9 -10 19
-10 28 0 151 -79 151 -97 0 -8 -5 -11 -11 -8 -6 4 -45 11 -87 15 -42 4 -88 11
-102 14 -23 6 -24 6 -5 -6 11 -7 35 -29 54 -48 18 -19 61 -48 94 -65 34 -16
63 -36 65 -42 5 -18 -43 -17 -103 2 -27 8 -52 12 -56 10 -4 -3 -18 -1 -30 4
-19 7 -29 3 -52 -22 -40 -43 -57 -80 -57 -124 0 -21 -5 -45 -10 -53 -7 -11
-10 1 -10 41 0 41 -4 58 -15 63 -11 4 -15 -2 -15 -27 0 -18 -7 -40 -14 -50
-12 -15 -13 -12 -8 29 7 65 -14 56 -52 -22 -39 -81 -46 -165 -17 -221 11 -23
24 -44 29 -47 4 -2 6 34 4 82 -3 65 0 92 11 106 12 17 13 10 9 -60 -3 -59 0
-89 12 -118 21 -50 20 -69 -4 -91 -31 -28 -27 -47 8 -33 55 23 56 28 38 118
-10 52 -14 100 -10 131 8 60 19 56 15 -5 -1 -24 5 -76 14 -115 l17 -71 46 40
c26 21 72 50 103 64 32 14 59 30 61 37 7 21 40 19 59 -4 26 -33 35 -13 10 25
-53 83 -53 113 -1 63 44 -42 37 -13 -8 35 -22 22 -37 42 -35 44 2 2 24 -2 49
-10 24 -7 44 -10 44 -7 0 4 -12 20 -27 35 -15 15 -22 28 -15 28 6 0 14 -5 17
-10 4 -6 10 -8 15 -5 5 3 -17 31 -48 62 l-57 56 40 -6 c59 -9 112 8 130 43 8
16 15 33 15 38 0 5 -26 12 -57 16 -49 6 -123 37 -123 52 0 3 19 2 43 -1 52 -8
80 3 132 48 38 34 39 36 23 53 -17 17 -19 17 -41 -4 -24 -22 -81 -29 -120 -13
-16 6 -14 10 17 36 20 17 36 38 36 47 0 28 -120 72 -134 49z m17 -401 c21 -12
37 -26 37 -31 0 -5 -1 -9 -3 -9 -5 0 -122 62 -127 67 -12 14 60 -8 93 -27z"></path>
<path style="position: relative;" class="node" id="node54" d="M874 1978 c-4 -6 1 -17 11 -25 29 -20 37 -15 19 12 -19 29 -20 29
-30 13z"></path>
<path style="position: relative;" class="node" id="node55" d="M550 1940 c0 -11 7 -14 55 -25 37 -8 30 0 -18 20 -23 9 -37 11 -37 5z"></path>
<path style="position: relative;" class="node" id="node56" d="M1966 1905 c-9 -26 -7 -32 5 -12 6 10 9 21 6 23 -2 3 -7 -2 -11 -11z"></path>
<path style="position: relative;" class="node" id="node57" d="M842 1890 c0 -14 2 -19 5 -12 2 6 2 18 0 25 -3 6 -5 1 -5 -13z"></path>
<path style="position: relative;" class="node" id="node58" d="M1710 1902 c0 -5 12 -19 27 -33 l27 -24 -23 33 c-23 32 -31 39 -31
24z"></path>
<path style="position: relative;" class="node" id="node59" d="M765 1870 c-3 -5 1 -10 9 -10 9 0 16 5 16 10 0 6 -4 10 -9 10 -6 0
-13 -4 -16 -10z"></path>
<path style="position: relative;" class="node" id="node60" d="M1780 1870 c0 -5 5 -10 10 -10 6 0 10 -7 10 -15 0 -17 16 -20 25 -4
4 6 -1 17 -11 24 -23 17 -34 19 -34 5z"></path>
<path style="position: relative;" class="node" id="node61" d="M2011 1863 c-1 -12 4 -25 9 -28 12 -7 12 2 0 30 -8 19 -9 19 -9 -2z"></path>
<path style="position: relative;" class="node" id="node62" d="M1714 1810 c2 -23 8 -46 14 -52 8 -8 9 -5 5 11 -8 32 9 24 35 -16 24
-37 21 -62 -4 -29 -8 11 -14 15 -14 8 0 -17 72 -83 86 -78 7 3 18 -1 24 -9 26
-32 131 -21 150 15 6 11 16 20 23 20 14 0 37 54 37 88 0 24 3 23 -77 6 -15 -3
-51 -17 -80 -30 -61 -29 -87 -25 -108 16 -8 15 -32 42 -54 60 l-41 31 4 -41z"></path>
<path style="position: relative;" class="node" id="node63" d="M1846 1834 c-3 -9 -6 -24 -6 -34 0 -16 6 -18 33 -14 17 3 42 6 54 7
12 1 27 7 34 14 6 6 18 9 27 6 10 -4 13 -1 10 8 -4 10 -22 14 -64 14 -32 0
-64 3 -70 7 -7 5 -15 1 -18 -8z"></path>
<path style="position: relative;" class="node" id="node64" d="M735 1719 c-55 -43 -133 -104 -172 -136 -40 -31 -73 -60 -73 -65 0
-4 24 -34 53 -66 28 -31 87 -99 131 -150 43 -50 84 -92 90 -92 6 0 52 34 101
75 50 42 132 109 183 151 50 41 92 80 92 85 0 18 -73 105 -102 122 -27 15 -38
37 -19 37 4 0 43 -36 84 -80 75 -78 139 -119 212 -136 25 -5 5 19 -118 143
-133 134 -155 152 -205 169 -89 29 -90 29 -37 -25 27 -28 46 -51 43 -51 -4 0
-34 23 -67 50 -33 28 -68 50 -78 49 -10 0 -63 -36 -118 -80z"></path>
<path style="position: relative;" class="node" id="node65" d="M2447 1763 c-12 -11 -8 -23 8 -23 8 0 15 7 15 15 0 16 -12 20 -23 8z"></path>
<path style="position: relative;" class="node" id="node66" d="M1680 1750 c13 -8 13 -11 1 -19 -7 -5 -10 -14 -7 -20 8 -13 42 -15
50 -3 8 14 -23 52 -42 52 -15 0 -15 -2 -2 -10z"></path>
<path style="position: relative;" class="node" id="node67" d="M1790 1635 c7 -8 17 -15 22 -15 6 0 5 7 -2 15 -7 8 -17 15 -22 15 -6
0 -5 -7 2 -15z"></path>
<path style="position: relative;" class="node" id="node68" d="M2438 1622 c-28 -3 -45 -29 -29 -45 10 -10 71 0 70 11 -2 25 -17 37
-41 34z"></path>
<path style="position: relative;" class="node" id="node69" d="M2320 1596 c0 -8 51 -13 56 -5 3 5 -9 9 -25 9 -17 0 -31 -2 -31 -4z"></path>
<path style="position: relative;" class="node" id="node70" d="M1870 1574 c0 -8 5 -12 10 -9 6 3 10 10 10 16 0 5 -4 9 -10 9 -5 0
-10 -7 -10 -16z"></path>
<path style="position: relative;" class="node" id="node71" d="M2350 1509 c0 -26 22 -49 48 -49 16 0 37 -7 48 -15 23 -18 74 -20 74
-2 0 8 4 7 10 -3 8 -12 10 -9 10 12 0 24 -6 28 -69 47 -76 23 -121 27 -121 10z"></path>
<path style="position: relative;" class="node" id="node72" d="M1640 1484 c0 -25 57 -91 68 -80 4 4 -3 16 -16 26 -12 10 -29 31 -37
47 -13 25 -15 25 -15 7z"></path>
<path style="position: relative;" class="node" id="node73" d="M2350 1371 c8 -6 32 -11 53 -11 21 0 48 -5 59 -11 14 -8 23 -8 31 0
17 17 6 21 -79 27 -57 4 -75 3 -64 -5z"></path>
<path style="position: relative;" class="node" id="node74" d="M2520 1345 c-6 -15 -8 -30 -6 -33 3 -3 10 8 16 23 6 15 8 30 6 33 -3
3 -10 -8 -16 -23z"></path>
<path style="position: relative;" class="node" id="node75" d="M1165 1339 c-78 -17 -115 -30 -115 -40 0 -6 7 -8 16 -5 13 5 15 1 10
-19 -4 -14 -2 -25 3 -25 11 0 24 -31 16 -38 -3 -3 -17 5 -32 19 -27 25 -24 14
11 -33 15 -21 23 -25 33 -17 7 6 13 19 13 29 0 12 6 17 18 14 10 -2 36 12 62
35 41 36 43 40 32 65 -6 14 -15 26 -19 25 -5 -1 -26 -5 -48 -10z"></path>
<path style="position: relative;" class="node" id="node76" d="M1267 1343 c-4 -3 -7 -16 -7 -27 0 -17 2 -18 10 -6 6 10 10 11 10 3
0 -7 9 -13 20 -13 20 0 20 1 4 25 -17 26 -26 30 -37 18z"></path>
<path style="position: relative;" class="node" id="node77" d="M2300 1303 c0 -20 46 -51 79 -55 50 -5 49 17 -1 34 -24 8 -51 19 -60
23 -10 4 -18 3 -18 -2z"></path>
<path style="position: relative;" class="node" id="node78" d="M2180 1269 c-25 -11 -73 -39 -108 -62 l-62 -42 45 -13 c25 -7 60 -27
79 -45 18 -18 52 -42 75 -55 35 -20 41 -21 41 -7 0 9 -5 25 -10 35 -19 35 11
35 40 0 18 -22 29 -29 34 -21 4 6 -10 31 -33 58 -23 28 -37 51 -32 56 11 11
95 -19 112 -39 17 -21 39 -17 39 6 0 15 -7 20 -26 20 -35 0 -91 28 -109 54 -8
11 -15 33 -15 48 0 33 -10 34 -70 7z"></path>
<path style="position: relative;" class="node" id="node79" d="M1251 1252 c-29 -11 -76 -46 -130 -98 l-85 -80 19 -25 19 -25 35 35
c20 20 70 54 112 75 42 21 84 45 94 52 18 13 18 15 -5 39 l-23 25 21 0 c12 0
30 -9 39 -19 16 -20 33 -19 33 0 0 9 -22 20 -65 32 -11 3 -40 -2 -64 -11z"></path>
<path style="position: relative;" class="node" id="node80" d="M1396 1194 c-21 -8 -44 -18 -51 -24 -7 -5 -52 -30 -101 -55 -110 -55
-138 -77 -129 -105 3 -11 10 -20 14 -20 4 0 13 -15 19 -34 7 -19 20 -37 28
-40 13 -5 14 -9 4 -21 -10 -12 -9 -15 4 -15 9 0 26 21 41 50 30 59 94 110 211
168 104 52 115 65 72 85 -54 24 -71 26 -112 11z"></path>
<path style="position: relative;" class="node" id="node81" d="M1565 1144 c-16 -14 -84 -66 -150 -116 -147 -112 -235 -187 -235
-203 0 -14 299 -357 316 -362 9 -3 35 14 109 74 11 9 52 44 90 77 39 34 112
95 163 135 50 40 92 79 92 86 0 7 -36 49 -81 95 -44 45 -78 84 -75 88 4 3 50
-38 103 -91 53 -54 110 -104 127 -111 125 -56 149 -66 153 -62 5 5 -103 121
-236 252 -107 106 -115 112 -187 134 -41 12 -77 20 -80 18 -3 -3 19 -26 47
-52 77 -70 51 -67 -35 3 -41 34 -78 61 -83 61 -4 -1 -21 -12 -38 -26z"></path>
<path style="position: relative;" class="node" id="node82" d="M1940 1118 c-52 -14 -54 -22 -21 -59 30 -32 32 -33 63 -20 18 8 54
21 81 29 54 18 56 32 6 49 -41 14 -82 15 -129 1z"></path>
<path style="position: relative;" class="node" id="node83" d="M2420 1101 c-10 -26 -10 -35 4 -56 24 -37 34 -31 32 20 -1 59 -19 76
-36 36z"></path>
<path style="position: relative;" class="node" id="node84" d="M2480 1071 c0 -6 5 -13 11 -16 5 -4 8 -19 4 -34 -3 -17 0 -34 10 -46
15 -19 15 -16 9 35 -3 30 -8 58 -11 63 -6 10 -23 9 -23 -2z"></path>
<path style="position: relative;" class="node" id="node85" d="M1377 1049 c-10 -6 -39 -31 -65 -56 -51 -50 -15 -28 53 31 41 36 45
44 12 25z"></path>
<path style="position: relative;" class="node" id="node86" d="M1025 1031 c-3 -5 -1 -12 4 -15 5 -3 11 1 15 9 6 16 -9 21 -19 6z"></path>
<path style="position: relative;" class="node" id="node87" d="M2003 1013 c-30 -6 -29 -15 6 -40 l28 -22 52 25 c29 13 50 28 46 34
-6 10 -87 12 -132 3z"></path>
<path style="position: relative;" class="node" id="node88" d="M2314 1007 c-2 -7 -1 -30 4 -52 l8 -39 21 30 22 31 -25 22 c-18 16
-26 18 -30 8z"></path>
<path style="position: relative;" class="node" id="node89" d="M2230 933 c0 -67 11 -63 20 7 5 38 3 50 -7 50 -9 0 -13 -16 -13 -57z"></path>
<path style="position: relative;" class="node" id="node90" d="M2117 952 c-40 -13 -46 -19 -41 -36 7 -22 53 -76 65 -76 4 0 9 10 12
23 3 12 10 39 15 60 6 20 7 39 3 41 -3 1 -27 -4 -54 -12z"></path>
<path style="position: relative;" class="node" id="node91" d="M2390 926 c0 -9 7 -16 16 -16 9 0 14 5 12 12 -6 18 -28 21 -28 4z"></path>
<path style="position: relative;" class="node" id="node92" d="M2390 865 c-22 -16 -28 -25 -18 -25 27 0 68 22 68 37 0 18 -10 16
-50 -12z"></path>
<path style="position: relative;" class="node" id="node93" d="M2241 854 c0 -11 3 -14 6 -6 3 7 2 16 -1 19 -3 4 -6 -2 -5 -13z"></path>
<path style="position: relative;" class="node" id="node94" d="M2380 799 c0 -5 5 -7 10 -4 6 3 10 8 10 11 0 2 -4 4 -10 4 -5 0 -10
-5 -10 -11z"></path>
<path style="position: relative;" class="node" id="node95" d="M1990 783 c0 -29 -20 -93 -29 -93 -4 0 -6 23 -3 50 2 28 1 50 -4 50
-17 0 -124 -92 -118 -101 3 -5 -6 -29 -20 -54 -21 -35 -25 -50 -18 -80 l7 -36
68 61 c40 35 77 60 90 60 12 0 60 -14 107 -30 111 -39 117 -38 129 8 24 92 24
90 -1 97 -12 4 -41 16 -63 25 -66 30 -137 60 -141 60 -2 0 -4 -8 -4 -17z"></path>
<path style="position: relative;" class="node" id="node96" d="M2252 753 c-18 -4 -22 -9 -16 -26 9 -29 10 -30 29 -24 8 4 15 18 15
32 0 14 -1 24 -2 24 -2 -1 -13 -4 -26 -6z"></path>
<path style="position: relative;" class="node" id="node97" d="M1934 600 c-10 -11 -73 -66 -139 -122 -66 -55 -124 -109 -129 -120
-13 -27 7 -46 29 -28 13 11 21 11 35 2 10 -6 47 -14 82 -18 52 -5 77 -1 146
21 94 30 146 69 187 142 32 58 31 71 -2 84 -16 6 -35 15 -45 20 -14 7 -128 39
-140 39 -3 0 -13 -9 -24 -20z"></path>
<path style="position: relative;" class="node" id="node98" d="M1492 288 c-7 -68 -13 -143 -14 -168 l-2 -45 59 3 c33 2 62 6 64 7 4
5 30 219 31 256 0 27 -34 49 -96 63 l-31 7 -11 -123z"></path>
</g>
</svg>