<!--?xml version="1.0" standalone="no"?-->

<svg version="1.0" xmlns="http://www.w3.org/2000/svg" width="293.000000pt" height="300.000000pt" viewBox="0 0 293.000000 300.000000" preserveAspectRatio="xMidYMid meet">
<g transform="translate(0.000000,300.000000) scale(0.100000,-0.100000)" fill="#191919" stroke="none">
<path class="node" id="node1" d="M2130 2845 c-7 -8 -19 -45 -26 -82 -8 -37 -16 -69 -18 -71 -3 -2 -51
4 -108 14 -56 9 -125 20 -153 25 -27 4 -149 13 -271 19 -225 12 -618 1 -709
-19 -140 -32 -176 -44 -265 -90 -26 -13 -44 -16 -70 -10 -19 5 -47 6 -63 3
-24 -5 -27 -10 -27 -46 0 -38 -6 -47 -103 -143 -103 -102 -170 -190 -222 -295
-28 -55 -85 -214 -85 -237 0 -23 18 -13 24 13 19 75 138 289 203 366 61 72
179 178 197 178 19 0 -5 -30 -93 -119 -109 -109 -180 -208 -230 -316 -18 -38
-36 -77 -41 -86 -4 -8 -18 -55 -31 -105 -31 -117 -34 -338 -5 -454 57 -236
159 -433 327 -635 67 -80 208 -218 279 -273 202 -156 404 -251 587 -274 115
-15 118 -12 104 68 -27 145 -5 325 51 421 51 85 195 207 223 187 7 -5 39 -29
71 -54 88 -67 187 -118 304 -157 88 -30 123 -36 217 -41 96 -4 122 -1 184 18
178 54 290 186 349 413 22 82 26 90 59 107 43 22 83 60 114 109 18 30 22 50
22 126 0 80 -3 96 -29 145 -54 105 -65 123 -94 160 l-30 37 31 49 c77 123 32
256 -126 369 l-28 20 26 62 c42 105 29 185 -37 219 -25 13 -48 15 -100 11 -61
-5 -68 -4 -68 12 0 10 -11 28 -24 41 -14 12 -28 35 -31 51 -16 74 -94 168
-195 237 -68 47 -72 48 -90 27z m96 -133 c43 -81 42 -82 -18 -61 -29 10 -53
21 -53 26 0 4 4 25 8 46 11 50 33 46 63 -11z m96 -84 c4 -10 4 -18 -1 -18 -5
0 -14 13 -21 30 -7 16 -18 35 -26 41 -8 6 -14 17 -14 23 0 13 52 -50 62 -76z
m-522 46 c133 -14 282 -40 315 -54 11 -5 38 -14 60 -20 77 -23 164 -72 206
-117 l41 -45 -4 -88 c-3 -71 -9 -98 -31 -140 -15 -29 -21 -50 -14 -48 25 9 86
111 98 164 10 45 18 57 46 74 41 24 96 26 114 4 13 -15 16 -90 5 -102 -3 -3
-14 2 -24 11 -28 25 -65 21 -95 -11 -15 -15 -27 -32 -27 -36 0 -4 -12 -33 -26
-64 -32 -68 -86 -138 -114 -147 -11 -4 -20 -11 -20 -16 0 -15 33 -10 65 11 19
12 47 20 76 20 37 0 50 5 74 30 15 16 31 46 35 67 7 37 8 37 9 7 0 -17 -5 -50
-13 -72 -12 -32 -12 -40 -2 -36 7 3 18 16 24 30 7 13 16 24 21 24 5 0 34 -27
64 -60 89 -95 91 -162 5 -168 -45 -3 -127 26 -172 60 -18 14 -17 16 15 27 36
13 89 58 89 76 0 8 -19 3 -51 -12 -28 -14 -75 -27 -105 -30 -30 -3 -54 -9 -53
-12 0 -3 34 -31 76 -61 173 -125 303 -275 276 -319 -28 -46 -160 -74 -308 -64
-128 8 -180 36 -242 129 -54 82 -65 69 -41 -49 11 -54 11 -60 -6 -73 -22 -16
-17 -48 19 -108 40 -68 133 -154 188 -175 25 -10 27 -9 18 7 -6 10 -16 24 -24
30 -8 7 -22 30 -32 52 -15 32 -15 42 -5 55 31 37 119 -4 173 -81 33 -48 43
-130 17 -145 -38 -22 -112 -50 -185 -71 -69 -20 -102 -23 -245 -22 -150 0
-171 2 -235 25 -143 51 -222 104 -288 192 -43 56 -87 148 -87 179 0 10 -4 16
-10 13 -26 -16 8 -169 57 -252 29 -50 97 -112 160 -147 64 -37 197 -74 288
-81 44 -4 85 -11 91 -16 5 -4 80 -18 166 -31 141 -20 163 -21 234 -9 44 7 103
23 132 36 70 32 57 14 -21 -29 l-62 -34 -155 7 c-227 11 -310 3 -310 -29 0
-15 66 -50 118 -62 29 -6 52 -15 52 -20 0 -5 5 -6 11 -2 7 4 -7 18 -35 35 -25
16 -46 32 -46 36 0 8 185 -4 225 -15 l30 -8 -28 -28 c-87 -87 -237 -71 -470
52 -105 55 -263 161 -325 219 -34 32 -48 29 -23 -5 61 -86 233 -222 371 -295
124 -65 214 -90 325 -91 91 0 105 2 154 28 30 16 71 43 90 62 20 19 39 34 44
34 33 0 -49 -77 -118 -110 -45 -22 -63 -25 -170 -25 -145 0 -218 19 -378 101
-136 70 -318 226 -377 324 -14 23 -33 51 -43 63 -18 22 -18 21 -13 -46 5 -67
5 -68 -22 -78 -15 -5 -36 -14 -47 -19 -40 -20 -172 -43 -277 -47 -87 -4 -126
-1 -205 17 -54 12 -102 26 -108 30 -5 3 -26 13 -45 20 -48 18 -116 75 -148
122 -22 33 -26 52 -26 107 0 94 33 151 156 272 l98 96 -41 18 c-80 36 -139
128 -139 215 0 62 42 179 78 218 6 7 17 23 23 34 39 73 -74 -28 -135 -121
-104 -158 -176 -397 -176 -584 0 -109 35 -245 82 -318 80 -124 190 -189 368
-216 58 -9 106 -17 108 -18 1 -1 -1 -10 -4 -20 -6 -16 -16 -17 -89 -11 -148
12 -291 80 -384 182 -61 66 -94 125 -123 218 -30 95 -33 321 -4 436 23 95 67
242 76 255 10 14 51 138 47 142 -5 4 -70 -127 -101 -203 -98 -239 -133 -443
-105 -613 34 -214 138 -363 330 -476 74 -43 206 -85 269 -85 55 0 49 10 65
-110 3 -24 9 -49 13 -55 4 -5 14 -28 21 -50 16 -47 67 -126 111 -173 56 -58
160 -130 160 -109 0 1 -26 30 -58 64 -155 166 -203 389 -119 555 35 69 34 69
158 90 l77 14 -37 -42 c-80 -91 -127 -230 -118 -349 5 -71 33 -175 48 -175 4
0 5 33 2 73 -7 93 10 198 42 266 30 61 127 164 164 174 21 5 19 1 -16 -36 -61
-64 -109 -146 -139 -233 -24 -72 -26 -89 -21 -184 4 -68 13 -126 26 -164 12
-33 21 -63 21 -69 0 -15 -110 1 -193 27 -334 107 -653 394 -838 751 -106 207
-151 378 -152 585 0 107 4 154 22 225 12 50 26 99 30 110 5 11 20 45 34 76 13
30 45 87 70 125 53 81 183 224 202 224 34 0 23 -26 -32 -84 -161 -164 -249
-350 -279 -588 -15 -117 -15 -135 0 -250 40 -291 165 -537 388 -760 154 -154
299 -259 494 -357 101 -51 117 -53 39 -4 -356 217 -574 435 -715 715 -42 83
-100 243 -100 276 0 10 -5 23 -12 30 -15 15 -23 319 -10 392 34 186 127 365
254 491 54 53 58 54 123 38 70 -18 193 17 244 69 15 15 14 15 -2 9 -10 -4 -45
-14 -78 -22 -55 -15 -64 -14 -114 1 -31 10 -67 30 -82 47 l-28 29 40 -21 c31
-16 58 -21 117 -21 89 0 104 14 26 24 -57 8 -139 45 -176 79 -30 28 -66 86
-58 94 9 9 73 5 94 -6 48 -25 235 -63 337 -68 125 -6 136 9 20 27 -73 12 -124
26 -243 67 l-73 26 28 17 c74 44 284 79 478 80 157 0 353 -17 373 -33 9 -7 16
-7 24 1 9 9 8 12 -4 12 -9 0 -29 7 -44 15 -27 14 -22 15 71 9 55 -3 156 -12
225 -20z m701 -527 c-10 -9 -11 -8 -5 6 3 10 9 15 12 12 3 -3 0 -11 -7 -18z
m371 -770 c-24 -127 -109 -191 -231 -171 -49 8 -51 19 -20 106 28 74 94 148
134 148 27 0 28 -1 22 -45 -4 -25 -14 -57 -23 -70 -28 -42 -4 -43 32 -1 35 40
57 92 70 161 l8 40 9 -54 c7 -36 7 -72 -1 -114z m-234 -232 c9 -8 -26 -46 -59
-65 -47 -26 -189 -46 -244 -35 l-40 8 50 14 c78 22 185 62 208 78 17 12 70 12
85 0z"></path>
<path class="node" id="node2" d="M1780 2587 c19 -6 37 -13 40 -16 3 -3 28 -19 57 -34 105 -56 176
-143 249 -305 42 -94 38 -108 -25 -96 -30 5 -33 4 -23 -9 32 -38 170 -41 193
-5 14 21 11 26 -15 21 -22 -5 -29 4 -72 88 -81 163 -146 240 -255 304 -54 31
-148 66 -173 64 -6 -1 5 -6 24 -12z"></path>
<path class="node" id="node3" d="M1295 2556 c-27 -13 -48 -25 -45 -26 3 -1 43 -2 90 -3 111 -3 130
-14 277 -179 154 -172 242 -240 328 -252 17 -2 24 -1 18 1 -7 2 -13 9 -13 14
0 5 -6 9 -13 9 -7 0 -40 20 -73 44 -58 42 -127 113 -266 276 -86 100 -133 132
-200 137 -41 3 -64 -2 -103 -21z"></path>
<path class="node" id="node4" d="M1970 2531 c0 -5 30 -28 66 -52 74 -48 99 -78 139 -164 34 -75 69
-113 111 -121 74 -14 105 29 105 146 0 84 -15 117 -77 165 -73 55 -75 53 -68
-77 6 -112 17 -148 49 -148 18 0 38 51 25 64 -7 7 -10 6 -10 -2 0 -7 -5 -12
-10 -12 -7 0 -10 20 -9 50 3 58 15 60 42 9 12 -25 16 -49 13 -88 -10 -113 -79
-89 -143 51 -36 78 -37 80 -117 127 -91 53 -116 64 -116 52z"></path>
<path class="node" id="node5" d="M1630 2515 c0 -12 81 -157 106 -190 37 -49 128 -118 197 -150 54 -24
58 -25 93 -10 20 8 43 23 50 33 22 28 16 83 -14 134 -33 57 -115 154 -144 169
-24 13 -24 13 39 -78 53 -75 73 -121 73 -167 0 -29 -4 -37 -24 -42 -51 -13
-205 97 -241 172 -20 43 -15 51 22 32 15 -8 50 -25 76 -38 49 -24 73 -52 61
-71 -3 -6 -17 -8 -32 -4 -26 6 -26 6 -8 -13 23 -26 64 -36 82 -21 8 6 14 26
14 44 0 61 -83 120 -249 176 -86 29 -101 33 -101 24z"></path>
<path class="node" id="node6" d="M1229 2306 c-40 -28 -79 -82 -114 -162 -28 -64 -24 -84 9 -39 25 35
81 90 115 113 15 10 45 16 85 16 82 0 90 -6 65 -49 -11 -18 -21 -47 -21 -63
-1 -31 30 -90 59 -113 15 -12 16 -12 9 6 -27 73 -30 102 -10 135 10 19 26 36
34 38 12 4 13 2 4 -9 -36 -44 -22 -139 27 -188 l30 -30 -25 -7 c-13 -3 -69 -6
-124 -7 -55 -1 -103 -5 -106 -8 -12 -12 100 -39 184 -45 56 -4 130 0 215 11
212 28 223 29 269 9 22 -10 53 -29 69 -43 15 -13 27 -19 27 -12 0 18 -26 65
-44 80 -27 22 -18 31 29 31 56 0 145 19 145 31 0 5 -36 9 -79 9 -136 0 -254
48 -483 196 -147 95 -211 124 -278 124 -42 0 -64 -6 -91 -24z m327 -215 c-12
-19 5 -38 30 -33 26 5 31 -7 12 -26 -22 -22 46 -14 70 8 30 29 40 25 12 -5
-35 -37 -97 -35 -140 5 -27 25 -30 33 -20 45 13 16 45 21 36 6z m234 -81 c12
-8 9 -10 -13 -10 -16 0 -26 4 -22 10 8 12 16 12 35 0z"></path>
<path class="node" id="node7" d="M965 2150 c-91 -94 -155 -204 -155 -267 0 -69 66 -147 156 -184 l53
-22 -97 -47 c-241 -116 -327 -296 -206 -430 112 -124 342 -150 659 -76 19 5
20 14 21 173 0 97 5 179 12 194 6 15 9 29 6 31 -10 11 -135 -14 -199 -39 -62
-24 -165 -84 -219 -128 -26 -20 -17 -27 71 -54 81 -26 103 -23 151 22 41 39
42 19 1 -28 -46 -52 -89 -61 -185 -40 -44 9 -90 23 -104 30 -14 7 -49 18 -78
25 -28 6 -54 16 -57 20 -7 11 95 98 148 127 97 52 237 105 312 118 22 4 45 11
50 15 6 4 80 18 165 30 85 12 156 23 158 25 4 4 -137 23 -228 30 -100 9 -284
48 -341 73 -65 28 -113 74 -134 128 -16 43 -16 49 0 107 10 34 37 99 61 145
24 45 42 82 40 82 -2 0 -30 -27 -61 -60z"></path>
<path class="node" id="node8" d="M1560 1556 c0 -14 57 -84 105 -129 60 -57 106 -72 261 -87 56 -5 113
-12 128 -16 14 -3 26 -2 26 3 0 20 -80 46 -179 59 -129 16 -226 60 -296 135
-25 26 -45 42 -45 35z"></path>
<path class="node" id="node9" d="M1540 1490 c0 -6 33 -43 73 -84 90 -92 138 -111 293 -122 60 -3 121
-13 137 -21 38 -19 35 2 -4 26 -31 19 -83 31 -218 51 -84 12 -167 56 -233 122
-40 40 -48 45 -48 28z"></path>
<path class="node" id="node10" d="M1541 1418 c23 -44 83 -110 127 -140 54 -37 165 -68 248 -68 33 0 83
-7 110 -15 62 -19 61 -19 33 4 -42 33 -99 51 -193 61 -113 13 -196 51 -275
126 -30 30 -57 54 -59 54 -1 0 3 -10 9 -22z"></path>
<path class="node" id="node11" d="M691 729 c73 -103 133 -141 167 -107 18 18 15 27 -7 21 -18 -4 -61
30 -61 49 0 22 64 -15 93 -54 23 -31 53 -125 43 -135 -8 -8 -170 106 -226 158
-132 124 -133 125 -117 93 44 -86 427 -400 427 -350 0 2 -9 40 -20 85 -38 152
-73 204 -169 253 -34 18 -136 48 -161 48 -6 0 8 -27 31 -61z"></path>








</g>
<g transform="translate(0.000000,300.000000) scale(0.100000,-0.100000)" fill="#F4D07B" stroke="none">

<path class="node" id="node21" d="M2163 2723 c-4 -21 -8 -42 -8 -46 0 -5 24 -16 53 -26 60 -21 61 -20
18 61 -30 57 -52 61 -63 11z"></path>
<path class="node" id="node22" d="M2260 2704 c0 -6 6 -17 14 -23 8 -6 19 -25 26 -41 7 -17 16 -30 21
-30 5 0 5 8 1 18 -10 26 -62 89 -62 76z"></path>
<path class="node" id="node23" d="M1504 2685 c15 -8 35 -15 44 -15 12 0 13 -3 4 -12 -8 -8 -15 -8 -24
-1 -20 16 -216 33 -373 33 -194 -1 -404 -36 -478 -80 l-28 -17 73 -26 c119
-41 170 -55 243 -67 116 -18 105 -33 -20 -27 -102 5 -289 43 -337 68 -21 11
-85 15 -94 6 -8 -8 28 -66 58 -94 37 -34 119 -71 176 -79 78 -10 63 -24 -26
-24 -59 0 -86 5 -117 21 l-40 21 28 -29 c15 -17 51 -37 82 -47 50 -15 59 -16
114 -1 33 8 68 18 78 22 16 6 17 6 2 -9 -51 -52 -174 -87 -244 -69 -65 16 -69
15 -123 -38 -127 -126 -220 -305 -254 -491 -13 -73 -5 -377 10 -392 7 -7 12
-20 12 -30 0 -33 58 -193 100 -276 141 -280 359 -498 715 -715 78 -49 62 -47
-39 4 -195 98 -340 203 -494 357 -223 223 -348 469 -388 760 -15 115 -15 133
0 250 30 238 118 424 279 588 55 58 66 84 32 84 -19 0 -149 -143 -202 -224
-25 -38 -57 -95 -70 -125 -14 -31 -29 -65 -34 -76 -4 -11 -18 -60 -30 -110
-18 -71 -22 -118 -22 -225 1 -207 46 -378 152 -585 185 -357 504 -644 838
-751 83 -26 193 -42 193 -27 0 6 -9 36 -21 69 -13 38 -22 96 -26 164 -5 95 -3
112 21 184 30 87 78 169 139 233 35 37 37 41 16 36 -37 -10 -134 -113 -164
-174 -32 -68 -49 -173 -42 -266 3 -40 2 -73 -2 -73 -15 0 -43 104 -48 175 -9
119 38 258 118 349 l37 42 -77 -14 c-124 -21 -123 -21 -158 -90 -84 -166 -36
-389 119 -555 32 -34 58 -63 58 -64 0 -21 -104 51 -160 109 -44 47 -95 126
-111 173 -7 22 -17 45 -21 50 -4 6 -10 31 -13 55 -16 120 -10 110 -65 110
-147 0 -370 122 -471 257 -56 74 -73 104 -98 179 -70 210 -47 441 75 738 31
76 96 207 101 203 4 -4 -37 -128 -47 -142 -9 -13 -53 -160 -76 -255 -29 -115
-26 -341 4 -436 29 -93 62 -152 123 -218 93 -102 236 -170 384 -182 73 -6 83
-5 89 11 3 10 5 19 4 20 -2 1 -50 9 -108 18 -178 27 -288 92 -368 216 -47 73
-82 209 -82 318 0 187 72 426 176 584 61 93 174 194 135 121 -6 -11 -17 -27
-23 -34 -36 -39 -78 -156 -78 -218 0 -87 59 -179 139 -215 l41 -18 -98 -96
c-123 -121 -156 -178 -156 -272 0 -55 4 -74 26 -107 32 -47 100 -104 148 -122
19 -7 40 -17 45 -20 6 -4 54 -18 108 -30 79 -18 118 -21 205 -17 105 4 237 27
277 47 11 5 32 14 47 19 27 10 27 11 22 78 -5 67 -5 68 13 46 10 -12 29 -40
43 -63 59 -98 241 -254 377 -324 160 -82 233 -101 378 -101 107 0 125 3 170
25 69 33 151 110 118 110 -5 0 -24 -15 -44 -34 -19 -19 -60 -46 -90 -62 -49
-26 -63 -28 -154 -28 -111 1 -201 26 -325 91 -138 73 -310 209 -371 295 -25
34 -11 37 23 5 62 -58 220 -164 325 -219 233 -123 383 -139 470 -52 l28 28
-30 8 c-40 11 -225 23 -225 15 0 -4 21 -20 46 -36 28 -17 42 -31 35 -35 -6 -4
-11 -3 -11 2 0 5 -23 14 -52 20 -52 12 -118 47 -118 62 0 32 83 40 310 29
l155 -7 62 34 c78 43 91 61 21 29 -29 -13 -88 -29 -132 -36 -71 -12 -93 -11
-234 9 -86 13 -161 27 -166 31 -6 5 -47 12 -91 16 -91 7 -224 44 -288 81 -63
35 -131 97 -160 147 -49 83 -83 236 -57 252 6 3 10 -3 10 -13 0 -31 44 -123
87 -179 66 -88 145 -141 288 -192 64 -23 85 -25 235 -25 174 -1 253 13 370 65
75 33 75 33 73 85 -4 104 -153 229 -203 169 -10 -13 -10 -23 5 -55 10 -22 24
-45 32 -52 8 -6 18 -20 24 -30 9 -16 7 -17 -18 -7 -55 21 -148 107 -188 175
-36 60 -41 92 -19 108 17 13 17 19 6 73 -24 118 -13 131 41 49 62 -93 114
-121 242 -129 148 -10 280 18 308 64 27 44 -103 194 -276 319 -42 30 -76 58
-76 61 -1 3 23 9 53 12 30 3 77 16 105 30 32 15 51 20 51 12 0 -18 -53 -63
-89 -76 -32 -11 -33 -13 -15 -27 45 -34 127 -63 172 -60 86 6 84 73 -5 168
-30 33 -59 60 -64 60 -5 0 -14 -11 -21 -24 -6 -14 -17 -27 -24 -30 -10 -4 -10
4 2 36 8 22 13 55 13 72 -1 30 -2 30 -9 -7 -4 -21 -20 -51 -35 -67 -24 -25
-37 -30 -74 -30 -29 0 -57 -8 -76 -20 -32 -21 -65 -26 -65 -11 0 5 9 12 20 16
28 9 82 79 114 147 14 31 26 60 26 64 0 4 12 21 27 36 30 32 67 36 95 11 10
-9 21 -14 24 -11 11 12 8 87 -5 102 -18 22 -73 20 -114 -4 -28 -17 -36 -29
-46 -74 -12 -53 -73 -155 -98 -164 -7 -2 -1 19 14 48 22 42 28 69 31 140 l4
88 -41 45 c-42 45 -129 94 -206 117 -22 6 -49 15 -60 20 -55 24 -327 61 -540
74 -93 6 -98 5 -71 -9z m314 -100 c108 -32 221 -117 289 -215 16 -25 52 -87
77 -139 43 -84 50 -93 72 -88 26 5 29 0 15 -21 -23 -36 -161 -33 -193 5 -10
13 -7 14 23 9 63 -12 67 2 25 96 -73 162 -144 249 -249 305 -29 15 -54 31 -57
34 -3 3 -21 10 -40 16 -19 6 -30 11 -24 12 6 1 34 -6 62 -14z m-326 -41 c23
-16 70 -63 106 -104 139 -163 208 -234 266 -276 33 -24 66 -44 73 -44 7 0 13
-4 13 -9 0 -5 6 -12 13 -14 6 -2 -1 -3 -18 -1 -86 12 -174 80 -328 252 -147
165 -166 176 -277 179 -47 1 -87 2 -90 3 -3 1 18 13 45 26 68 34 139 29 197
-12z m594 -65 c80 -47 81 -49 117 -127 64 -140 133 -164 143 -51 3 39 -1 63
-13 88 -27 51 -39 49 -42 -9 -1 -30 2 -50 9 -50 5 0 10 5 10 12 0 8 3 9 10 2
13 -13 -7 -64 -25 -64 -32 0 -43 36 -49 148 -7 130 -5 132 68 77 62 -48 77
-81 77 -165 0 -117 -31 -160 -105 -146 -42 8 -77 46 -111 121 -40 86 -65 116
-139 164 -36 24 -66 47 -66 52 0 12 25 1 116 -52z m-355 12 c166 -56 249 -115
249 -176 0 -18 -6 -38 -14 -44 -18 -15 -59 -5 -82 21 -18 19 -18 19 8 13 15
-4 29 -2 32 4 12 19 -12 47 -61 71 -26 13 -61 30 -76 38 -37 19 -42 11 -22
-32 36 -75 190 -185 241 -172 20 5 24 13 24 42 0 46 -20 92 -73 167 -63 91
-63 91 -39 78 29 -15 111 -112 144 -169 30 -51 36 -106 14 -134 -7 -10 -30
-25 -50 -33 -35 -15 -39 -14 -93 10 -69 32 -160 101 -197 150 -25 33 -106 178
-106 190 0 9 15 5 101 -24z m-296 -189 c33 -16 107 -59 163 -96 229 -148 347
-196 483 -196 43 0 79 -4 79 -9 0 -12 -89 -31 -145 -31 -47 0 -56 -9 -29 -31
18 -15 44 -62 44 -80 0 -7 -12 -1 -27 12 -16 14 -47 33 -69 43 -46 20 -57 19
-269 -9 -85 -11 -159 -15 -215 -11 -84 6 -196 33 -184 45 3 3 51 7 106 8 55 1
111 4 124 7 l25 7 -30 30 c-49 49 -63 144 -27 188 9 11 8 13 -4 9 -8 -2 -24
-19 -34 -38 -20 -33 -17 -62 10 -135 7 -18 6 -18 -9 -6 -29 23 -60 82 -59 113
0 16 10 45 21 63 25 43 17 49 -65 49 -40 0 -70 -6 -85 -16 -34 -23 -90 -78
-115 -113 -56 -78 -16 47 43 136 62 94 154 115 268 61z m-449 -174 c-24 -46
-51 -111 -61 -145 -16 -58 -16 -64 0 -107 21 -54 69 -100 134 -128 57 -25 241
-64 341 -73 91 -7 232 -26 228 -30 -2 -2 -73 -13 -158 -25 -85 -12 -159 -26
-165 -30 -5 -4 -28 -11 -50 -15 -75 -13 -215 -66 -312 -118 -53 -29 -155 -116
-148 -127 3 -4 29 -14 57 -20 29 -7 64 -18 78 -25 14 -7 60 -21 104 -30 96
-21 139 -12 185 40 41 47 40 67 -1 28 -48 -45 -70 -48 -151 -22 -88 27 -97 34
-71 54 54 44 157 104 219 128 64 25 189 50 199 39 3 -2 0 -16 -6 -31 -7 -15
-12 -97 -12 -194 -1 -159 -2 -168 -21 -173 -263 -61 -444 -55 -592 20 -47 25
-100 89 -113 138 -35 126 58 255 252 348 l97 47 -53 22 c-90 37 -156 115 -156
184 0 33 31 107 66 160 28 43 140 167 150 167 2 0 -16 -37 -40 -82z m737 -692
c60 -31 93 -40 178 -50 99 -13 179 -39 179 -59 0 -5 -12 -6 -26 -3 -15 4 -72
11 -128 16 -187 18 -224 35 -328 159 -53 63 -47 80 7 22 27 -29 74 -63 118
-85z m-135 26 c66 -66 149 -110 233 -122 135 -20 187 -32 218 -51 39 -24 42
-45 4 -26 -16 8 -77 18 -137 21 -155 11 -203 30 -293 122 -64 64 -85 94 -68
94 3 0 22 -17 43 -38z m3 -76 c79 -75 162 -113 275 -126 94 -10 151 -28 193
-61 28 -23 29 -23 -33 -4 -27 8 -77 15 -110 15 -135 1 -255 53 -328 142 -32
40 -63 88 -56 88 2 0 29 -24 59 -54z m-862 -611 c113 -29 179 -76 214 -149 20
-42 67 -198 67 -222 0 -50 -383 264 -427 350 -16 32 -15 31 117 -93 56 -52
218 -166 226 -158 10 10 -20 104 -43 135 -29 39 -93 76 -93 54 0 -19 43 -53
61 -49 22 6 25 -3 7 -21 -20 -20 -56 -13 -91 17 -42 37 -122 151 -107 151 7 0
38 -7 69 -15z"></path>
<path class="node" id="node24" d="M1520 2085 c-10 -12 -7 -20 20 -45 43 -40 105 -42 140 -5 28 30 18
34 -12 5 -24 -22 -92 -30 -70 -8 19 19 14 31 -12 26 -25 -5 -42 14 -30 33 9
15 -23 10 -36 -6z"></path>
<path class="node" id="node25" d="M1755 2010 c-4 -6 6 -10 22 -10 22 0 25 2 13 10 -19 12 -27 12 -35 0z"></path>
<path class="node" id="node26" d="M2496 2153 c-6 -14 -5 -15 5 -6 7 7 10 15 7 18 -3 3 -9 -2 -12 -12z"></path>
<path class="node" id="node27" d="M2856 1505 c-13 -69 -35 -121 -70 -161 -36 -42 -60 -41 -32 1 9 13
19 45 23 70 6 44 5 45 -22 45 -56 0 -155 -146 -155 -227 0 -37 114 -41 181 -7
67 34 111 162 92 265 l-9 54 -8 -40z"></path>
<path class="node" id="node28" d="M2553 1145 c-23 -16 -130 -56 -208 -78 l-50 -14 40 -8 c55 -11 197 9
244 35 33 19 68 57 59 65 -15 12 -68 12 -85 0z"></path>
</g>
</svg>