<!--?xml version="1.0" standalone="no"?-->

<svg version="1.0" xmlns="http://www.w3.org/2000/svg" width="288.000000pt" height="300.000000pt" viewBox="0 0 288.000000 300.000000" preserveAspectRatio="xMidYMid meet">
<g transform="translate(0.000000,300.000000) scale(0.100000,-0.100000)" fill="#121212" stroke="none">

<path class="node" id="node2" d="M1210 2674 c-372 -81 -668 -326 -799 -662 -139 -355 -83 -788 142
-1087 213 -284 561 -455 927 -455 92 0 303 30 345 49 11 5 38 15 60 22 22 6
60 20 83 31 69 30 60 14 -10 -21 -209 -102 -505 -139 -743 -91 -335 68 -582
230 -761 502 -232 351 -266 759 -94 1125 68 144 147 247 300 387 53 48 62 59
30 37 -61 -43 -172 -152 -224 -220 -243 -316 -300 -770 -147 -1154 159 -396
503 -661 941 -723 571 -81 1102 214 1299 723 51 132 66 219 66 400 0 109 4
168 10 162 15 -15 26 -10 17 9 -5 9 -23 67 -40 127 -17 61 -42 135 -55 166
-32 70 -132 203 -200 265 -58 52 -163 124 -182 124 -7 0 -16 -12 -20 -27 -5
-20 -2 -29 12 -36 41 -22 140 -135 166 -191 44 -93 46 -135 2 -49 -41 83 -115
168 -173 200 l-39 22 -33 -34 -32 -33 29 -15 c71 -37 157 -166 169 -254 5 -36
3 -34 -32 30 -34 63 -131 167 -156 167 -5 0 8 -20 30 -45 57 -65 91 -156 99
-265 4 -63 3 -90 -5 -90 -6 0 -14 17 -17 38 -27 159 -117 292 -236 344 -16 7
-29 17 -29 23 1 5 24 21 53 34 72 34 140 101 167 164 25 56 38 174 24 200 -8
15 -15 13 -54 -13 -59 -39 -185 -93 -292 -126 -84 -25 -88 -28 -88 -55 0 -23
6 -30 33 -38 l32 -9 -31 -1 c-46 -1 -66 18 -58 57 8 38 12 41 121 73 46 13 83
27 83 30 0 10 -82 19 -222 26 -111 5 -133 4 -168 -12 -41 -19 -49 -30 -27 -38
6 -2 -43 -7 -109 -12 l-121 -7 -37 -43 c-57 -68 -75 -106 -65 -132 9 -26 19
-29 37 -11 9 9 14 4 23 -20 11 -32 23 -40 33 -23 3 5 -1 11 -9 15 -8 3 -15 12
-15 21 0 26 155 24 328 -5 119 -20 106 -24 -41 -11 -91 9 -104 7 -193 -18 -84
-24 -98 -32 -121 -64 -34 -48 -32 -77 10 -145 58 -94 65 -97 230 -97 139 0
144 1 226 34 l83 35 45 -24 c47 -25 118 -110 160 -194 14 -27 36 -92 49 -144
73 -289 -33 -641 -264 -869 -41 -40 -70 -73 -65 -73 4 0 39 11 77 25 340 123
542 351 603 678 21 117 21 310 -1 439 -19 117 -19 146 -1 96 38 -104 58 -233
58 -383 0 -82 -3 -165 -7 -182 -5 -19 -4 -33 2 -33 14 0 52 193 52 268 0 37 5
74 10 82 16 25 12 -219 -5 -302 -55 -262 -298 -527 -603 -656 -151 -64 -220
-77 -422 -77 -174 0 -191 2 -280 29 -174 51 -301 121 -415 228 -368 344 -448
910 -186 1311 144 219 390 387 667 457 119 29 115 40 -6 14z m905 -206 c-25
-82 -101 -171 -224 -262 l-63 -48 -64 32 c-35 17 -66 34 -68 39 -7 10 133 93
147 88 7 -2 -6 -13 -28 -25 -51 -27 -94 -61 -77 -62 23 0 161 85 151 94 -2 2
-24 13 -48 26 -24 12 -39 25 -35 29 5 4 45 15 88 24 43 9 109 32 145 51 80 41
84 42 76 14z m-872 -185 c-13 -2 -35 -2 -50 0 -16 2 -5 4 22 4 28 0 40 -2 28
-4z m120 -148 c21 -11 40 -12 85 -5 31 6 59 10 61 10 2 0 -2 -7 -9 -15 -16
-19 -145 -59 -165 -51 -25 9 -17 34 13 39 19 3 14 4 -15 6 -41 1 -57 14 -30
24 20 9 31 7 60 -8z m207 -44 c0 -4 -26 -20 -57 -34 -53 -24 -55 -26 -31 -32
15 -4 32 -4 37 0 6 3 11 2 11 -3 0 -12 -61 -37 -111 -46 -28 -5 -38 -3 -43 9
-3 10 1 18 12 22 14 6 13 8 -8 13 -14 3 -26 13 -28 21 -2 11 17 19 75 32 143
30 143 30 143 18z"></path>
<path class="node" id="node3" d="M1418 2023 c7 -3 16 -2 19 1 4 3 -2 6 -13 5 -11 0 -14 -3 -6 -6z"></path>
<path class="node" id="node4" d="M2232 2433 l-43 -15 38 -24 c50 -31 59 -30 67 7 11 57 11 57 -62 32z"></path>
<path class="node" id="node5" d="M1044 2234 c-32 -19 -66 -43 -75 -52 -9 -9 -31 -64 -49 -122 -17 -58
-40 -114 -51 -126 -10 -11 -19 -24 -19 -28 0 -13 66 -118 90 -144 l21 -22 47
32 c62 43 151 88 173 88 17 0 59 44 59 62 0 6 -9 12 -20 15 -11 3 -17 9 -14
14 10 17 -19 9 -63 -16 -57 -34 -56 -15 2 22 24 15 44 31 45 36 0 15 -27 6
-83 -28 -32 -19 -61 -35 -64 -35 -13 0 32 42 74 68 23 15 43 30 43 34 0 8 -36
-4 -71 -22 -34 -19 -21 7 15 28 26 15 34 28 39 59 4 21 18 53 31 72 28 38 24
61 -9 61 -14 0 -25 7 -28 20 -7 28 -25 25 -93 -16z"></path>
<path class="node" id="node6" d="M1307 2263 c-4 -3 -7 -10 -7 -14 0 -9 39 1 46 12 6 10 -29 12 -39 2z"></path>
<path class="node" id="node7" d="M852 2077 c-29 -29 -52 -56 -52 -60 0 -10 42 -67 49 -67 13 0 68 166
59 176 -2 2 -28 -20 -56 -49z"></path>
<path class="node" id="node8" d="M1730 1951 c0 -5 16 -39 35 -74 87 -165 95 -351 24 -537 -29 -76
-115 -223 -169 -289 -16 -19 -27 -37 -24 -40 7 -8 151 137 199 201 23 31 45
55 48 52 8 -8 -28 -108 -63 -179 -44 -90 -113 -166 -225 -251 -11 -8 -3 -6 20
5 168 82 330 310 376 529 14 68 13 223 -1 287 -19 85 -78 194 -136 252 -48 48
-84 67 -84 44z"></path>
<path class="node" id="node9" d="M1647 1923 c-27 -13 -47 -27 -45 -31 2 -4 22 -45 46 -92 91 -182 95
-385 10 -600 -12 -30 -26 -61 -31 -68 -6 -7 -8 -15 -5 -17 8 -8 86 113 123
190 61 129 80 294 50 423 -15 64 -75 205 -91 215 -5 3 -31 -6 -57 -20z"></path>
<path class="node" id="node10" d="M1236 1879 c-20 -29 -20 -39 -1 -39 49 0 181 -84 206 -132 15 -27
-24 -67 -94 -98 -29 -12 -60 -26 -70 -31 -23 -12 -100 39 -128 84 -10 18 -19
27 -19 21 0 -13 53 -82 77 -99 10 -8 14 -19 10 -30 -6 -13 -3 -16 8 -11 10 3
13 2 10 -5 -14 -22 -57 -30 -80 -15 -22 14 -24 13 -35 -15 -11 -25 -10 -32 5
-49 11 -12 31 -20 49 -20 32 0 96 33 96 49 0 5 35 27 78 48 86 42 144 90 162
133 10 24 8 35 -14 78 -23 46 -82 105 -131 130 -11 5 -41 13 -66 17 -41 6 -48
4 -63 -16z"></path>
<path class="node" id="node11" d="M1462 1838 c87 -84 111 -143 109 -272 -1 -94 -33 -198 -92 -301 -50
-86 -18 -62 43 32 23 35 45 63 50 63 14 0 -2 -81 -28 -139 -40 -90 -91 -148
-213 -242 -35 -27 -61 -49 -58 -49 22 0 161 96 223 153 84 79 141 163 175 262
20 58 24 89 23 175 -1 122 -24 207 -83 305 l-36 60 -85 3 -84 3 56 -53z"></path>
<path class="node" id="node12" d="M1138 1818 c-14 -11 -32 -58 -23 -58 2 0 19 9 37 19 18 10 49 23 68
27 34 7 34 8 10 15 -40 11 -75 10 -92 -3z"></path>
<path class="node" id="node13" d="M1033 1759 c-18 -12 -33 -23 -33 -26 0 -3 12 2 26 12 30 20 54 14 48
-12 -3 -10 2 -38 9 -63 l14 -45 -1 77 c-1 88 -7 93 -63 57z"></path>
<path class="node" id="node14" d="M980 1720 c0 -8 14 -31 31 -50 l31 -35 -23 40 c-28 51 -39 63 -39 45z"></path>
<path class="node" id="node15" d="M1350 1678 c-24 -28 -58 -57 -75 -64 -22 -10 -25 -13 -10 -13 30 -1
106 36 137 66 22 21 25 30 17 44 -5 11 -13 19 -17 19 -4 -1 -27 -24 -52 -52z"></path>
<path class="node" id="node16" d="M1531 1649 c-2 -27 -63 -75 -154 -118 -48 -23 -94 -53 -103 -66 -16
-25 -61 -45 -100 -45 -21 0 -24 -5 -24 -36 0 -39 37 -174 47 -174 3 0 3 30 -1
68 -5 62 -5 65 9 42 8 -14 15 -32 15 -40 0 -8 9 -33 20 -55 l20 -40 -6 65 c-3
36 -8 77 -9 92 -6 51 12 38 23 -17 11 -54 56 -135 74 -135 6 0 7 8 3 18 -15
34 -25 105 -19 131 16 74 62 156 108 192 42 33 96 20 96 -24 0 -10 5 -15 10
-12 12 7 12 122 0 150 -6 14 -9 16 -9 4z"></path>


</g>
<g transform="translate(0.000000,300.000000) scale(0.100000,-0.100000)" fill="#A1A1A1" stroke="none">

<path class="node" id="node20" d="M2039 2454 c-36 -19 -102 -42 -145 -51 -43 -9 -83 -20 -88 -24 -4 -4
11 -17 35 -29 24 -13 46 -24 48 -26 10 -9 -128 -94 -151 -94 -17 1 26 35 77
62 22 12 35 23 28 25 -14 5 -154 -78 -147 -88 2 -5 33 -22 68 -39 l64 -32 63
48 c123 91 199 180 224 262 8 28 4 27 -76 -14z"></path>
<path class="node" id="node21" d="M1193 2283 c15 -2 37 -2 50 0 12 2 0 4 -28 4 -27 0 -38 -2 -22 -4z"></path>
<path class="node" id="node22" d="M1303 2143 c-27 -10 -11 -23 30 -24 29 -2 34 -3 15 -6 -30 -5 -38
-30 -13 -39 20 -8 149 32 165 51 7 8 11 15 9 15 -2 0 -30 -4 -61 -10 -45 -7
-64 -6 -85 5 -29 15 -40 17 -60 8z"></path>
<path class="node" id="node23" d="M1525 2094 c-152 -32 -176 -39 -173 -53 2 -8 14 -18 28 -21 21 -5 22
-7 8 -13 -11 -4 -15 -12 -12 -22 5 -12 15 -14 43 -9 50 9 111 34 111 46 0 5
-5 6 -11 3 -5 -4 -22 -4 -37 0 -24 6 -22 8 31 32 72 33 78 50 12 37z m-88 -70
c-3 -3 -12 -4 -19 -1 -8 3 -5 6 6 6 11 1 17 -2 13 -5z"></path>
</g>
</svg>