<!--?xml version="1.0" standalone="no"?-->

<svg version="1.0" xmlns="http://www.w3.org/2000/svg" width="242.000000pt" height="300.000000pt" viewBox="0 0 242.000000 300.000000" preserveAspectRatio="xMidYMid meet">
<g transform="translate(0.000000,300.000000) scale(0.100000,-0.100000)" fill="#0D0D0D" stroke="none">
<path class="node" id="node1" d="M598 2848 c-71 -107 -178 -309 -178 -336 0 -12 8 -26 18 -31 24 -13
21 -94 -6 -148 -30 -61 -65 -185 -66 -232 -1 -35 3 -44 17 -47 10 -1 35 -14
56 -27 98 -65 238 -115 286 -103 14 4 27 18 34 37 9 26 8 35 -8 55 -24 31 -89
85 -145 120 -42 26 -45 32 -55 89 -6 37 -7 83 -1 120 17 120 40 228 52 243 7
8 13 52 15 100 1 48 11 121 22 162 10 41 18 76 16 78 -1 1 -27 -35 -57 -80z"></path>
<path class="node" id="node2" d="M1764 2905 c20 -53 36 -158 36 -232 0 -46 4 -83 9 -83 14 0 28 -48
47 -165 19 -118 20 -145 9 -216 -7 -42 -12 -49 -59 -78 -77 -46 -160 -126
-152 -146 3 -9 6 -23 6 -30 0 -62 174 -23 310 68 29 20 58 33 65 31 44 -17 18
117 -56 291 -18 43 -21 135 -4 135 32 0 26 41 -21 132 -59 118 -149 267 -176
293 l-21 20 7 -20z"></path>
<path class="node" id="node3" d="M82 2592 c-25 -58 -60 -214 -63 -277 0 -22 11 -78 27 -125 25 -78 27
-96 26 -226 -2 -159 2 -171 60 -160 18 4 56 7 83 8 l50 1 1 -79 c1 -43 2 -85
3 -91 1 -15 35 -17 60 -3 10 5 83 11 161 12 129 2 143 4 156 22 35 51 6 99
-74 122 -61 17 -153 64 -188 96 -12 11 -41 25 -65 32 -40 12 -46 19 -81 87
-41 80 -75 170 -88 234 -4 22 -14 56 -21 75 -7 19 -15 100 -18 180 l-6 145
-23 -53z"></path>
<path class="node" id="node4" d="M2308 2498 c-3 -102 -9 -154 -21 -182 -10 -21 -17 -50 -17 -65 0 -14
-9 -43 -20 -64 -11 -20 -20 -44 -20 -52 0 -8 -19 -55 -41 -105 -41 -87 -43
-90 -90 -105 -27 -9 -51 -21 -54 -26 -12 -19 -124 -77 -191 -99 -78 -25 -94
-40 -94 -85 0 -54 19 -61 175 -64 77 -1 144 -6 149 -12 14 -12 53 -11 62 2 3
6 7 48 8 92 1 46 6 81 11 81 6 -1 44 -4 86 -8 97 -8 104 -2 95 91 -3 38 -6 77
-6 88 0 11 0 40 1 65 0 25 9 69 19 98 11 29 20 64 20 77 0 13 5 27 10 30 15 9
12 62 -10 175 -17 83 -52 195 -65 208 -1 1 -5 -62 -7 -140z"></path>
<path class="node" id="node5" d="M977 2588 c-43 -31 -77 -98 -77 -151 0 -49 10 -79 48 -140 19 -31 22
-46 16 -82 -5 -39 -12 -48 -56 -76 -66 -43 -78 -56 -78 -85 0 -14 -9 -37 -21
-53 -14 -19 -25 -60 -35 -122 -15 -98 -12 -108 30 -122 8 -3 8 -13 -1 -36 -9
-25 -9 -37 0 -52 9 -15 8 -25 -7 -49 -22 -39 -16 -81 24 -159 77 -149 196
-211 401 -211 134 0 239 40 316 121 65 70 117 205 91 237 -7 8 -13 36 -14 61
0 25 -4 53 -8 63 -5 12 1 21 22 34 27 15 30 22 25 53 -12 91 -26 149 -44 179
-10 18 -19 43 -19 56 0 25 -24 50 -86 90 -28 18 -44 38 -52 62 -9 31 -7 41 23
99 61 117 53 196 -27 273 l-35 33 -6 -63 c-7 -82 -29 -123 -84 -158 -82 -52
-175 -47 -248 12 -45 37 -57 65 -64 145 l-6 62 -28 -21z m263 -508 c0 -38 2
-40 30 -40 19 0 33 7 40 20 18 33 33 24 26 -16 -4 -19 -9 -41 -12 -48 -3 -8 7
-18 23 -25 23 -9 36 -9 66 4 42 17 57 19 57 5 0 -5 -20 -19 -45 -30 -43 -20
-59 -39 -32 -41 6 -1 49 0 95 1 55 1 82 -2 82 -9 0 -13 -5 -15 -88 -32 -37 -7
-61 -16 -59 -23 2 -6 34 -14 72 -18 37 -4 72 -11 78 -17 13 -13 5 -15 -83 -16
l-65 0 -2 -38 c-1 -38 15 -56 81 -93 54 -29 10 -47 -46 -18 -50 26 -57 2 -12
-46 22 -23 39 -47 39 -53 0 -26 -26 -13 -78 39 -32 32 -60 55 -63 52 -3 -4 13
-38 35 -78 23 -39 41 -76 41 -81 0 -18 -15 -9 -35 21 -23 35 -36 37 -53 10
-16 -26 -26 -25 -56 5 -29 29 -40 20 -51 -42 -9 -56 -22 -63 -30 -16 -4 21
-11 49 -16 62 l-10 25 -25 -27 c-29 -32 -54 -35 -61 -7 -8 29 -28 25 -54 -12
-39 -54 -32 -14 10 65 23 41 41 78 41 83 0 5 -29 -20 -64 -55 -57 -56 -86 -70
-86 -40 0 5 19 30 41 54 34 37 38 46 25 51 -9 3 -27 -1 -41 -10 -27 -18 -65
-21 -65 -6 0 5 22 24 49 41 39 26 50 39 55 67 3 19 3 39 -1 45 -3 5 -33 7 -73
3 -42 -4 -71 -3 -74 3 -9 14 5 20 70 27 33 3 65 8 73 10 28 9 -8 28 -76 39
-37 6 -69 17 -71 24 -3 10 16 12 89 10 106 -4 123 8 60 41 -23 11 -41 25 -41
30 0 14 13 12 59 -6 31 -12 44 -13 60 -4 19 10 21 17 15 61 -7 52 6 66 26 28
8 -14 19 -19 38 -17 23 3 27 7 24 30 -5 38 4 48 39 48 27 0 29 -2 29 -40z"></path>
<path class="node" id="node6" d="M1155 1963 c-33 -9 -67 -35 -96 -77 -25 -33 -29 -48 -29 -100 1 -50
6 -68 28 -101 39 -55 85 -80 152 -79 74 0 129 34 164 102 16 30 15 32 -9 57
-22 21 -35 25 -80 25 -30 0 -55 4 -55 8 0 4 30 27 66 51 64 42 65 43 47 63
-39 44 -123 67 -188 51z"></path>
<path class="node" id="node7" d="M600 1605 c-14 -8 -36 -14 -50 -15 -36 0 -88 -35 -111 -74 -22 -38
-59 -66 -86 -66 -28 -1 -66 -34 -61 -56 6 -31 72 -61 150 -67 63 -5 74 -3 109
19 21 13 51 42 65 64 15 22 30 40 34 40 11 0 50 99 50 126 0 41 -53 56 -100
29z"></path>
<path class="node" id="node8" d="M1732 1604 c-12 -8 -22 -21 -22 -28 0 -25 43 -111 71 -144 16 -18 29
-37 29 -41 0 -5 22 -23 48 -40 48 -31 86 -39 96 -22 3 5 24 7 45 4 38 -5 84
12 119 44 20 19 5 49 -31 63 -18 6 -42 16 -54 21 -13 4 -38 30 -57 57 -36 49
-69 72 -109 72 -12 1 -33 7 -47 15 -33 19 -60 19 -88 -1z"></path>
<path class="node" id="node9" d="M758 1281 c-60 -63 -81 -106 -57 -123 8 -5 38 -7 67 -4 89 8 60 -41
-38 -64 -70 -17 -110 -54 -110 -104 0 -46 19 -134 31 -141 9 -6 125 13 149 24
35 17 69 115 81 231 5 47 11 108 15 135 5 42 2 55 -16 78 -32 41 -57 34 -122
-32z"></path>
<path class="node" id="node10" d="M1541 1313 c-31 -39 -35 -69 -17 -116 9 -24 16 -71 16 -105 0 -66 27
-159 58 -202 14 -19 35 -27 92 -38 40 -7 77 -9 81 -5 15 15 31 124 24 159 -8
43 -39 67 -109 84 -55 13 -101 43 -91 60 3 5 29 6 58 3 41 -4 56 -2 66 11 19
22 3 52 -65 123 -58 60 -83 66 -113 26z"></path>
<path class="node" id="node11" d="M208 1258 c-23 -37 -37 -79 -49 -153 -9 -52 -18 -74 -35 -88 -13 -10
-28 -35 -33 -55 -46 -176 -69 -335 -51 -357 18 -22 26 -19 49 20 11 19 27 35
36 35 18 0 16 -15 21 120 l5 114 53 81 c29 44 61 104 71 132 17 49 76 123 96
123 5 0 9 6 9 13 0 9 -12 11 -40 9 -26 -3 -49 2 -65 12 -33 22 -50 20 -67 -6z"></path>
<path class="node" id="node12" d="M2140 1264 c-14 -7 -42 -14 -62 -14 -21 0 -38 -2 -38 -5 0 -3 17 -20
38 -39 23 -21 48 -60 66 -103 16 -37 48 -98 71 -134 37 -57 44 -77 52 -150 6
-47 8 -99 5 -117 -3 -27 0 -33 23 -44 14 -6 33 -25 41 -40 27 -52 48 -30 45
46 -1 28 -11 94 -23 146 -11 52 -24 112 -28 133 -4 21 -19 50 -33 65 -18 20
-29 50 -42 111 -17 88 -27 113 -53 144 -18 20 -28 20 -62 1z"></path>
<path class="node" id="node13" d="M1108 1195 c-52 -48 -50 -94 7 -167 33 -42 37 -53 49 -160 13 -108
27 -158 45 -158 17 0 33 59 42 148 9 98 32 164 68 196 16 14 21 31 21 67 0 40
-4 51 -31 73 -27 23 -40 26 -102 26 -63 0 -76 -3 -99 -25z"></path>
<path class="node" id="node14" d="M802 754 c-13 -9 -35 -19 -50 -23 -36 -10 -37 -24 -1 -40 38 -16 35
-45 -4 -49 -59 -7 -47 -64 22 -110 44 -28 57 -45 102 -135 28 -56 55 -106 59
-112 4 -5 29 -52 56 -104 44 -85 107 -171 119 -160 2 3 -12 56 -32 119 -19 63
-39 129 -43 145 -18 65 -63 223 -83 288 -19 64 -90 186 -112 194 -6 2 -21 -4
-33 -13z"></path>
<path class="node" id="node15" d="M1550 728 c-52 -71 -77 -129 -108 -249 -17 -63 -44 -159 -61 -214
-35 -111 -57 -187 -66 -225 -11 -43 75 58 115 135 171 334 167 327 206 349 51
29 82 71 68 94 -6 9 -22 19 -35 22 -34 8 -37 38 -5 50 37 14 32 26 -21 52 -27
12 -51 24 -55 26 -4 2 -21 -16 -38 -40z"></path>
</g>
<g transform="translate(0.000000,300.000000) scale(0.100000,-0.100000)" fill="#A0A0A0" stroke="none">

<path class="node" id="node17" d="M1175 2110 c-4 -6 -5 -23 -3 -38 3 -23 -1 -27 -24 -30 -19 -2 -30 3
-38 17 -20 38 -33 24 -26 -28 6 -44 4 -51 -15 -61 -16 -9 -29 -8 -60 4 -46 18
-59 20 -59 6 0 -5 18 -19 41 -30 63 -33 46 -45 -60 -41 -73 2 -92 0 -89 -10 2
-7 34 -18 71 -24 68 -11 104 -30 76 -39 -8 -2 -40 -7 -73 -10 -65 -7 -79 -13
-70 -27 3 -6 32 -7 74 -3 40 4 70 2 73 -3 4 -6 4 -26 1 -45 -5 -28 -16 -41
-55 -67 -27 -17 -49 -36 -49 -41 0 -15 38 -12 65 6 14 9 32 13 41 10 13 -5 9
-14 -25 -51 -22 -24 -41 -49 -41 -54 0 -30 29 -16 86 40 35 35 64 60 64 55 0
-5 -18 -42 -41 -83 -42 -79 -49 -119 -10 -65 26 37 46 41 54 12 7 -28 32 -25
61 7 l25 27 10 -25 c5 -13 12 -41 16 -62 8 -47 21 -40 30 16 11 62 22 71 51
42 30 -30 40 -31 56 -5 17 27 30 25 53 -10 20 -30 35 -39 35 -21 0 5 -18 42
-41 81 -22 40 -38 74 -35 78 3 3 31 -20 63 -52 52 -52 78 -65 78 -39 0 6 -17
30 -39 53 -45 48 -38 72 12 46 56 -29 100 -11 46 18 -66 37 -82 55 -81 93 l2
38 65 0 c88 1 96 3 83 16 -6 6 -41 13 -78 17 -38 4 -70 12 -72 18 -2 7 22 16
59 23 83 17 88 19 88 32 0 7 -27 10 -82 9 -46 -1 -89 -2 -95 -1 -27 2 -11 21
32 41 25 11 45 25 45 30 0 14 -15 12 -57 -5 -30 -13 -43 -13 -66 -4 -16 7 -26
17 -23 25 3 7 8 29 12 48 7 40 -8 49 -26 16 -7 -13 -21 -20 -40 -20 -28 0 -30
2 -30 40 0 38 -2 40 -29 40 -17 0 -33 -5 -36 -10z m110 -159 c22 -10 48 -27
58 -39 18 -20 17 -21 -47 -63 -36 -24 -66 -47 -66 -51 0 -4 25 -8 55 -8 45 0
58 -4 80 -25 24 -25 25 -27 9 -57 -35 -68 -90 -102 -164 -102 -67 -1 -113 24
-152 79 -22 33 -27 51 -28 101 0 52 4 67 29 100 58 81 140 105 226 65z"></path>
</g>
</svg>