<!--?xml version="1.0" standalone="no"?-->

<svg version="1.0" xmlns="http://www.w3.org/2000/svg" width="250.000000pt" height="300.000000pt" viewBox="0 0 250.000000 300.000000" preserveAspectRatio="xMidYMid meet">
<g transform="translate(0.000000,300.000000) scale(0.100000,-0.100000)" fill="#383838" stroke="none">
<path d="M518 2840 c-57 -10 -122 -61 -152 -119 -34 -65 -67 -178 -73 -249 -6
-72 -7 -73 -42 -92 -61 -30 -114 -91 -140 -157 -29 -75 -23 -109 17 -96 15 4
60 8 99 8 72 0 73 0 114 -42 l42 -41 -42 -105 c-91 -230 -104 -276 -105 -372
-1 -81 2 -95 27 -137 27 -47 52 -63 80 -53 11 5 20 -6 33 -41 51 -134 177
-277 326 -368 92 -57 118 -68 209 -86 40 -8 64 -19 84 -40 25 -26 27 -34 23
-83 -2 -31 -12 -67 -21 -81 -17 -26 -19 -26 -147 -26 -138 0 -199 -14 -255
-59 -23 -17 -36 -20 -85 -14 -38 4 -60 2 -64 -6 -5 -7 7 -11 38 -11 50 0 76
-7 76 -21 0 -6 -32 -7 -77 -4 -66 5 -75 4 -58 -7 12 -7 69 -15 145 -18 103 -4
119 -7 90 -14 l-35 -10 43 -4 c26 -2 45 -9 49 -18 7 -19 33 -18 84 5 24 11 45
19 46 17 2 -1 -4 -21 -13 -44 -28 -70 5 -96 63 -49 61 49 58 49 58 1 0 -70 53
-87 107 -34 26 27 36 30 91 30 62 0 70 14 12 23 -16 2 2 5 40 6 88 3 60 19
-35 20 -40 1 -60 5 -55 10 6 6 57 6 135 1 69 -5 157 -9 195 -9 113 0 42 19
-102 26 -67 3 -123 9 -123 12 0 3 10 12 21 19 19 12 21 20 15 63 l-7 49 34 0
c64 0 77 47 22 82 -40 26 -62 77 -46 105 14 27 81 87 122 110 20 12 76 37 124
57 48 19 102 46 120 60 19 15 38 26 42 26 5 0 22 -14 39 -31 35 -37 120 -83
140 -75 8 3 19 16 25 29 10 22 13 23 51 13 35 -9 42 -8 54 9 8 10 14 29 14 42
0 22 3 23 35 17 45 -8 61 6 70 57 7 38 18 49 30 29 3 -5 22 -10 40 -10 25 0
39 6 49 22 14 21 33 103 28 120 -1 4 18 5 43 2 42 -6 44 -5 51 20 6 26 2 66
-11 112 -6 18 -1 22 24 27 27 6 31 11 31 40 0 18 -6 42 -14 53 -13 16 -12 21
1 36 14 16 14 20 0 42 -21 31 -3 76 29 76 26 0 54 30 54 57 0 12 -18 45 -40
74 l-40 53 25 15 c46 28 40 63 -20 130 -34 37 -36 42 -22 61 25 36 -9 107 -66
136 -23 12 -26 18 -17 34 26 49 4 105 -46 115 -78 16 -75 15 -64 34 6 13 6 29
-1 49 -12 36 -49 52 -120 52 -49 0 -49 0 -49 33 0 18 -7 43 -16 56 -14 19 -23
22 -58 19 -22 -3 -48 -8 -57 -12 -13 -5 -18 0 -23 25 -15 75 -81 92 -153 40
l-41 -29 -17 39 c-30 65 -62 63 -136 -9 -42 -40 -48 -42 -53 -25 -11 35 -51
65 -82 61 -26 -3 -60 -39 -78 -81 -3 -9 -7 -9 -13 -1 -15 20 -53 35 -73 29
-26 -8 -60 -53 -60 -79 0 -11 -5 -28 -10 -36 -9 -13 -12 -13 -21 3 -26 44 -79
3 -86 -68 l-6 -45 -37 6 c-45 7 -60 -11 -60 -70 0 -24 -5 -36 -14 -36 -7 0
-25 -9 -40 -21 -30 -24 -34 -64 -11 -108 l14 -29 -65 -38 c-36 -21 -81 -55
-100 -76 -31 -35 -34 -36 -44 -18 -23 43 2 110 65 170 130 124 178 281 130
425 -15 47 -33 74 -80 120 -84 85 -153 111 -247 95z m148 -44 c55 -26 97 -72
139 -155 22 -45 27 -69 28 -130 1 -101 -35 -180 -123 -271 -73 -75 -100 -115
-101 -150 0 -27 -24 31 -59 150 -25 80 -25 83 0 68 10 -7 23 -8 27 -4 4 5 3
11 -3 13 -6 2 -20 10 -30 18 -18 14 -17 14 9 15 31 0 67 16 67 29 0 5 -16 5
-36 1 l-36 -8 24 25 c39 42 33 112 -22 222 -24 50 -48 91 -52 91 -4 0 -8 -12
-8 -27 0 -16 -7 -37 -15 -47 -14 -19 -15 -19 -21 0 -12 40 -25 66 -29 62 -2
-2 -25 -35 -51 -73 -52 -79 -51 -64 4 45 35 72 38 75 70 72 31 -2 43 10 22 23
-17 11 -11 21 23 38 47 23 114 21 173 -7z m944 -153 c8 -23 19 -45 23 -49 4
-4 24 9 45 29 46 45 99 59 119 32 7 -11 13 -38 13 -61 0 -47 13 -63 34 -41 25
25 77 41 94 30 23 -14 32 -59 20 -94 -14 -40 -6 -45 38 -24 42 20 96 15 125
-11 25 -23 24 -40 -6 -70 -36 -36 -31 -44 19 -38 24 4 59 1 80 -6 32 -10 36
-15 36 -46 0 -25 -6 -38 -26 -51 -25 -16 -25 -17 -8 -30 10 -7 26 -13 35 -13
10 0 31 -12 48 -26 40 -34 43 -81 6 -90 -36 -9 -30 -25 20 -56 24 -14 51 -41
60 -58 15 -30 15 -33 -1 -51 -11 -12 -30 -19 -52 -19 -35 0 -35 0 -16 -21 10
-11 31 -28 45 -36 31 -18 65 -84 56 -107 -4 -10 -19 -16 -42 -16 -28 0 -35 -4
-35 -20 0 -15 -7 -20 -24 -20 -37 0 -40 -16 -6 -40 34 -24 40 -50 11 -50 -35
0 -33 -19 4 -55 20 -19 35 -40 33 -47 -5 -14 -43 -15 -91 -3 l-27 7 35 -52
c26 -38 35 -63 35 -92 0 -44 7 -42 -75 -22 -24 6 -25 5 -19 -38 7 -54 -15
-113 -46 -123 -15 -5 -32 1 -58 19 -43 30 -55 26 -46 -19 11 -63 -23 -100 -56
-60 -23 28 -37 16 -44 -35 -7 -55 -17 -60 -67 -35 -36 19 -45 15 -52 -25 -6
-27 -27 -43 -27 -20 0 6 -6 10 -13 10 -25 0 -97 59 -97 79 0 25 14 34 58 35
30 1 37 5 42 26 6 22 11 25 46 23 37 -1 41 1 50 30 7 25 15 33 38 35 16 2 33
-1 39 -7 19 -19 27 -12 27 25 0 55 15 75 50 67 23 -4 30 -2 30 10 0 9 -4 19
-10 22 -13 8 -13 51 0 76 7 12 21 19 40 19 29 0 42 21 20 35 -5 3 -14 22 -19
42 -12 43 -1 63 35 63 29 0 30 14 4 47 -11 14 -20 36 -20 49 0 31 33 64 65 64
35 0 31 16 -10 42 -57 38 -70 99 -24 113 31 10 22 31 -18 41 -24 6 -43 18 -52
36 -14 24 -14 28 2 46 23 26 22 29 -17 36 -59 11 -76 52 -41 95 34 39 31 51
-9 51 -48 0 -63 22 -47 66 16 44 11 50 -28 30 -41 -22 -65 -20 -97 7 -23 20
-25 26 -15 45 19 36 3 45 -31 17 -57 -48 -114 -23 -103 46 8 46 1 48 -37 12
-34 -33 -58 -24 -73 25 -12 40 -25 40 -47 2 -12 -21 -25 -30 -42 -30 -25 0
-30 7 -38 64 -5 33 -27 29 -42 -8 -25 -61 -95 -74 -104 -20 -9 47 -41 38 -42
-12 0 -11 -6 -29 -14 -39 -13 -19 -15 -18 -45 14 -17 18 -35 30 -41 26 -5 -3
-10 -25 -10 -49 0 -65 -45 -92 -68 -41 -6 14 -18 25 -27 25 -12 0 -13 -9 -9
-44 5 -36 3 -47 -15 -65 -21 -21 -24 -21 -46 -7 -25 17 -37 10 -49 -30 -10
-34 -51 -67 -75 -59 -27 8 -46 67 -31 96 10 18 18 20 50 15 l38 -6 -5 59 c-7
70 6 83 48 52 15 -11 30 -21 33 -21 2 0 8 26 11 58 11 99 23 113 60 72 28 -31
49 -21 51 22 4 57 25 92 56 96 21 3 30 -3 43 -28 9 -17 20 -30 25 -28 5 2 22
28 37 58 23 44 33 55 53 55 22 0 38 -17 81 -85 8 -13 12 -11 27 9 9 13 32 39
51 58 45 45 71 41 91 -14z m-1070 -53 c23 -45 25 -71 8 -89 -11 -10 -10 -15 5
-25 23 -18 22 -42 -5 -60 -28 -20 -55 -5 -75 42 -16 39 -12 90 12 149 17 40
28 37 55 -17z m-106 24 c11 -28 6 -45 -16 -64 -20 -16 -21 -22 -11 -38 14 -24
-4 -46 -34 -40 -27 5 -22 65 11 116 28 45 40 51 50 26z m-103 -172 c-2 -9 -7
-10 -14 -3 -6 6 -6 28 -1 58 l8 48 6 -45 c3 -25 4 -51 1 -58z m119 28 c0 -5
-4 -10 -10 -10 -5 0 -10 5 -10 10 0 6 5 10 10 10 6 0 10 -4 10 -10z m-19 -40
c40 -22 101 -173 150 -375 30 -124 31 -136 26 -285 -6 -182 -25 -257 -80 -317
-45 -50 -127 -7 -144 75 -12 57 -7 207 12 312 54 312 56 394 9 484 -14 28 -35
59 -45 69 -10 9 -16 24 -13 32 7 17 56 20 85 5z m1041 -15 c22 -28 54 -32 84
-11 17 13 21 12 41 -6 16 -15 31 -19 53 -16 26 4 33 1 40 -18 13 -32 46 -47
92 -41 35 5 40 2 48 -19 10 -26 46 -44 92 -47 19 -1 29 -9 33 -24 3 -12 19
-31 35 -43 24 -17 28 -25 20 -40 -17 -31 -11 -58 18 -92 16 -18 32 -46 36 -61
4 -16 20 -41 36 -57 24 -24 28 -33 21 -52 -10 -27 2 -64 31 -96 l22 -22 -26
-28 c-33 -36 -39 -54 -28 -93 8 -26 6 -36 -10 -57 -22 -28 -26 -63 -9 -94 9
-17 8 -23 -4 -30 -33 -18 -47 -41 -47 -77 0 -30 -6 -42 -30 -59 -19 -15 -30
-31 -30 -47 0 -21 -5 -25 -31 -25 -20 0 -40 -10 -59 -29 -30 -29 -64 -43 -112
-43 -19 -1 -44 -17 -81 -53 -29 -29 -82 -69 -117 -89 -60 -35 -259 -122 -264
-114 -1 2 -9 19 -18 39 l-16 36 68 5 c107 8 146 44 99 94 l-21 22 34 6 c64 13
126 47 139 78 12 28 11 33 -19 89 -1 4 13 14 33 23 28 14 35 23 35 46 0 34
-49 80 -87 80 -35 0 -24 -20 17 -34 27 -8 36 -17 38 -37 3 -27 -15 -39 -80
-53 -38 -8 -35 -24 6 -41 93 -39 28 -113 -106 -123 -38 -3 -68 -9 -68 -15 0
-5 17 -25 38 -43 36 -33 37 -34 17 -50 -16 -13 -36 -15 -107 -10 -49 3 -88 2
-88 -2 0 -4 12 -25 25 -47 33 -53 32 -83 -2 -96 -57 -22 -188 36 -269 119 -56
58 -141 212 -164 300 -6 23 -15 42 -20 42 -43 0 67 -249 152 -344 25 -29 62
-63 82 -77 20 -13 36 -28 36 -32 0 -16 -125 -3 -201 20 -157 47 -310 159 -401
291 -41 60 -86 152 -88 183 -4 47 -1 49 37 23 27 -18 45 -23 63 -19 33 8 79
52 96 91 27 64 54 218 54 309 0 80 -4 111 -26 204 -4 21 -3 23 10 12 22 -19
53 -91 61 -144 9 -59 25 -61 26 -4 1 42 1 42 13 14 11 -24 14 -26 25 -13 10
12 6 21 -23 54 -20 22 -36 46 -36 54 0 16 67 82 112 112 57 37 154 66 255 76
114 11 157 5 293 -36 240 -73 395 -209 436 -382 24 -99 12 -339 -22 -452 -13
-43 21 -6 40 44 l17 44 62 -4 62 -3 -54 13 c-29 8 -58 19 -63 24 -5 5 -7 29
-3 55 l7 46 57 6 c87 10 93 20 14 23 l-73 3 0 40 c0 38 2 41 53 65 l52 25 -51
-6 -52 -7 -5 34 c-6 39 4 53 53 78 38 19 70 50 52 50 -5 0 -30 -11 -53 -25
-55 -31 -67 -31 -79 1 -9 22 -4 32 41 86 27 33 47 63 44 66 -3 3 -27 -15 -53
-41 -26 -26 -50 -47 -54 -47 -3 0 -17 17 -31 39 l-26 39 35 53 c57 90 34 85
-33 -6 l-21 -30 -26 24 c-32 30 -32 45 -1 96 13 22 25 46 25 53 0 26 -16 10
-45 -43 -16 -30 -31 -55 -34 -55 -2 0 -24 12 -49 26 -47 28 -47 27 -26 109 11
45 -19 25 -32 -20 -13 -47 -23 -51 -69 -30 -30 15 -35 22 -36 54 -1 20 -4 47
-8 61 -6 20 -8 15 -13 -28 -3 -29 -7 -54 -10 -57 -2 -2 -20 1 -40 7 -27 8 -38
18 -45 41 -4 17 -14 32 -21 35 -9 3 -10 -2 -3 -20 l9 -23 -153 0 c-142 0 -151
1 -141 18 7 11 23 17 48 17 33 0 38 4 55 40 15 34 22 39 42 35 28 -7 81 37 81
68 0 14 4 17 18 12 43 -19 60 -17 72 7 7 12 14 24 15 26 1 1 14 -4 30 -12 31
-16 79 -5 89 20 8 20 15 18 38 -11z m-1113 -64 c23 -28 33 -56 42 -110 15 -91
11 -96 -70 -80 -34 6 -95 9 -136 7 -51 -3 -75 -1 -75 6 0 20 57 131 76 147 20
17 114 69 126 69 3 0 20 -17 37 -39z m31 -241 c8 -5 11 -12 7 -16 -4 -4 -15 0
-24 9 -18 18 -8 23 17 7z m-18 -232 c-12 -57 -23 -141 -27 -188 -6 -77 -3
-103 21 -203 5 -21 1 -34 -16 -52 -28 -30 -55 -19 -76 30 -30 73 -13 193 52
365 19 52 40 110 46 127 20 60 20 26 0 -79z m851 -1004 c42 -7 44 -10 20 -36
-22 -24 -58 -23 -83 4 -28 30 -27 52 3 44 12 -3 39 -9 60 -12z m-122 -14 l24
-19 -33 -1 c-36 0 -72 15 -72 30 0 18 57 11 81 -10z m44 -77 c26 -38 10 -77
-30 -78 -26 0 -30 -4 -33 -30 -6 -54 -28 -67 -107 -65 -120 3 -131 1 -185 -36
-55 -38 -102 -43 -108 -12 -7 37 100 68 239 68 56 0 69 3 87 23 25 27 42 76
42 124 0 32 2 33 39 33 31 0 42 -5 56 -27z m79 -28 c5 -27 17 -43 46 -63 22
-15 39 -30 40 -34 0 -4 -19 -8 -42 -10 l-43 -3 0 -53 c0 -59 -11 -72 -61 -72
-43 0 -81 -33 -96 -81 -14 -49 -54 -85 -75 -67 -18 15 -9 61 23 110 13 21 24
42 24 48 0 20 -27 10 -38 -15 -6 -13 -26 -32 -44 -41 -18 -9 -47 -28 -64 -40
-64 -49 -47 21 19 78 53 46 45 64 -13 29 -8 -5 -45 -18 -82 -29 -53 -16 -68
-17 -68 -7 0 44 122 88 216 79 53 -6 69 -3 116 18 61 28 92 68 103 133 13 67
29 76 39 20z m-94 -84 c0 -6 -4 -13 -10 -16 -5 -3 -10 1 -10 9 0 9 5 16 10 16
6 0 10 -4 10 -9z m-476 -100 c-16 -32 -43 -39 -51 -14 -4 11 56 57 64 49 2 -1
-4 -17 -13 -35z" id="node1" class="node"></path>
<path d="M508 2796 c-17 -13 -25 -46 -11 -46 3 0 14 7 24 16 29 26 45 10 63
-63 9 -37 26 -92 36 -121 11 -29 20 -62 20 -72 0 -40 20 -19 21 23 2 40 2 41
8 9 7 -38 27 -40 23 -2 -2 21 -57 143 -108 240 -14 29 -51 36 -76 16z" id="node2" class="node"></path>
<path d="M730 2439 c0 -5 5 -7 10 -4 6 3 10 8 10 11 0 2 -4 4 -10 4 -5 0 -10
-5 -10 -11z" id="node3" class="node"></path>
<path d="M1210 1498 c0 -8 14 -30 31 -51 37 -45 33 -72 -10 -64 -38 8 -44 -1
-21 -31 40 -50 14 -86 -54 -75 -40 6 -41 5 -24 -33 11 -23 10 -28 -11 -45 -30
-25 -63 -24 -86 1 -10 11 -22 20 -27 20 -14 0 -9 -26 10 -43 48 -44 137 -23
149 33 4 22 11 30 27 30 40 0 60 24 59 69 -2 30 2 41 13 41 8 0 19 11 26 24 9
21 6 32 -16 70 -28 47 -66 78 -66 54z" id="node4" class="node"></path>
<path d="M1407 1454 c-4 -4 2 -19 13 -34 38 -54 19 -100 -43 -100 -35 0 -38
-9 -14 -42 16 -22 19 -33 11 -46 -14 -21 -60 -28 -80 -11 -24 19 -29 1 -11
-34 32 -59 -7 -89 -60 -47 -33 26 -44 17 -37 -30 5 -30 2 -42 -15 -59 -12 -12
-28 -21 -36 -21 -16 0 -65 46 -65 61 0 5 -4 9 -10 9 -18 0 -11 -28 16 -59 43
-51 113 -39 139 23 12 29 18 32 45 28 39 -6 70 21 70 59 0 24 4 28 33 31 31 3
32 4 33 52 1 41 5 51 22 57 35 13 53 60 41 105 -15 54 -34 75 -52 58z" id="node5" class="node"></path>
</g>
<g transform="translate(0.000000,300.000000) scale(0.100000,-0.100000)" fill="#FFFFFF" stroke="none">

<path d="M493 2803 c-34 -17 -40 -27 -23 -38 21 -13 9 -25 -22 -23 -32 3 -35
0 -70 -72 -55 -109 -56 -124 -4 -45 26 38 49 71 51 73 4 4 17 -22 29 -62 6
-19 7 -19 21 0 8 10 15 31 15 47 0 15 4 27 8 27 4 0 28 -41 52 -91 55 -110 61
-180 22 -222 l-24 -25 36 8 c20 4 36 4 36 -1 0 -13 -36 -29 -67 -29 -26 -1
-27 -1 -9 -15 10 -8 24 -16 30 -18 6 -2 7 -8 3 -13 -4 -4 -17 -3 -27 4 -25 15
-25 12 0 -68 35 -119 59 -177 59 -150 1 35 28 75 101 150 88 91 124 170 123
271 -1 82 -25 145 -86 223 -59 74 -178 106 -254 69z m91 -23 c51 -97 106 -219
108 -240 4 -38 -16 -36 -23 2 -6 32 -6 31 -8 -9 -1 -42 -21 -63 -21 -23 0 10
-9 43 -20 72 -10 29 -27 84 -36 121 -18 73 -34 89 -63 63 -22 -20 -31 -20 -31
0 0 45 73 56 94 14z m166 -334 c0 -3 -4 -8 -10 -11 -5 -3 -10 -1 -10 4 0 6 5
11 10 11 6 0 10 -2 10 -4z" id="node7" class="node"></path>
<path d="M1519 2657 c-19 -19 -42 -45 -51 -58 -15 -20 -19 -22 -27 -9 -43 68
-59 85 -81 85 -20 0 -30 -11 -53 -55 -15 -30 -32 -56 -37 -58 -5 -2 -16 11
-25 28 -13 25 -22 31 -43 28 -31 -4 -52 -39 -56 -96 -2 -43 -23 -53 -51 -22
-37 41 -49 27 -60 -72 -3 -32 -9 -58 -11 -58 -3 0 -18 10 -33 21 -42 31 -55
18 -48 -52 l5 -59 -38 6 c-32 5 -40 3 -50 -15 -15 -29 4 -88 31 -96 24 -8 65
25 75 59 12 40 24 47 49 30 22 -14 25 -14 46 7 18 18 20 29 15 65 -4 35 -3 44
9 44 9 0 21 -11 27 -25 23 -51 68 -24 68 41 0 24 5 46 10 49 6 4 24 -8 41 -26
30 -32 32 -33 45 -14 8 10 14 28 14 39 1 50 33 59 42 12 9 -54 79 -41 104 20
15 37 37 41 42 8 8 -57 13 -64 38 -64 17 0 30 9 42 30 22 38 35 38 47 -2 15
-49 39 -58 73 -25 38 36 45 34 37 -12 -11 -69 46 -94 103 -46 34 28 50 19 31
-17 -10 -19 -8 -25 15 -45 32 -27 56 -29 97 -7 39 20 44 14 28 -30 -16 -44 -1
-66 47 -66 40 0 43 -12 9 -51 -35 -43 -18 -84 41 -95 39 -7 40 -10 17 -36 -16
-18 -16 -22 -2 -46 9 -18 28 -30 52 -36 40 -10 49 -31 18 -41 -46 -14 -33 -75
24 -113 41 -26 45 -42 10 -42 -32 0 -65 -33 -65 -64 0 -13 9 -35 20 -49 26
-33 25 -47 -4 -47 -36 0 -47 -20 -35 -63 5 -20 14 -39 19 -42 22 -14 9 -35
-20 -35 -19 0 -33 -7 -40 -19 -13 -25 -13 -68 0 -76 6 -3 10 -13 10 -22 0 -12
-7 -14 -30 -10 -35 8 -50 -12 -50 -67 0 -37 -8 -44 -27 -25 -6 6 -23 9 -39 7
-23 -2 -31 -10 -38 -35 -9 -29 -13 -31 -50 -30 -35 2 -40 -1 -46 -23 -5 -21
-12 -25 -42 -26 -44 -1 -58 -10 -58 -35 0 -20 72 -79 97 -79 7 0 13 -4 13 -10
0 -23 21 -7 27 20 7 40 16 44 52 25 50 -25 60 -20 67 35 7 51 21 63 44 35 33
-40 67 -3 56 60 -9 45 3 49 46 19 26 -18 43 -24 58 -19 31 10 53 69 46 123 -6
43 -5 44 19 38 82 -20 75 -22 75 22 0 29 -9 54 -35 92 l-35 52 27 -7 c48 -12
86 -11 91 3 2 7 -13 28 -33 47 -37 36 -39 55 -4 55 29 0 23 26 -11 50 -34 24
-31 40 6 40 17 0 24 5 24 20 0 16 7 20 35 20 23 0 38 6 42 16 9 23 -25 89 -56
107 -14 8 -35 25 -45 36 -19 21 -19 21 16 21 22 0 41 7 52 19 16 18 16 21 1
51 -9 17 -36 44 -60 58 -50 31 -56 47 -20 56 37 9 34 56 -6 90 -17 14 -38 26
-48 26 -9 0 -25 6 -35 13 -17 13 -17 14 8 30 20 13 26 26 26 51 0 31 -4 36
-36 46 -21 7 -56 10 -80 6 -50 -6 -55 2 -19 38 30 30 31 47 6 70 -29 26 -83
31 -125 11 -44 -21 -52 -16 -38 24 12 35 3 80 -20 94 -17 11 -69 -5 -94 -30
-21 -22 -34 -6 -34 41 0 23 -6 50 -13 61 -20 27 -73 13 -119 -32 -21 -20 -41
-33 -45 -29 -4 4 -15 26 -23 49 -20 55 -46 59 -91 14z" id="node8" class="node"></path>
<path d="M485 2607 c-24 -59 -28 -110 -12 -149 20 -47 47 -62 75 -42 27 18 28
42 5 60 -15 10 -16 15 -5 25 17 18 15 44 -8 89 -27 54 -38 57 -55 17z" id="node9" class="node"></path>
<path d="M384 2588 c-33 -51 -38 -111 -11 -116 30 -6 48 16 34 40 -10 16 -9
22 11 38 22 19 27 36 16 64 -10 25 -22 19 -50 -26z" id="node10" class="node"></path>
<path d="M316 2497 c-5 -30 -5 -52 1 -58 15 -15 20 8 13 61 l-6 45 -8 -48z" id="node11" class="node"></path>
<path d="M430 2470 c0 -5 5 -10 10 -10 6 0 10 5 10 10 0 6 -4 10 -10 10 -5 0
-10 -4 -10 -10z" id="node12" class="node"></path>
<path d="M346 2425 c-3 -8 3 -23 13 -32 10 -10 31 -41 45 -69 47 -90 45 -172
-9 -484 -19 -105 -24 -255 -12 -312 17 -82 99 -125 144 -75 55 60 74 135 80
317 5 149 4 161 -26 285 -49 202 -110 353 -150 375 -29 15 -78 12 -85 -5z" id="node13" class="node"></path>
<path d="M1434 2426 c-10 -25 -58 -36 -89 -20 -16 8 -29 13 -30 12 -1 -2 -8
-14 -15 -26 -12 -24 -29 -26 -72 -7 -14 5 -18 2 -18 -12 0 -31 -53 -75 -81
-68 -20 4 -27 -1 -42 -35 -17 -36 -22 -40 -55 -40 -25 0 -41 -6 -48 -17 -10
-17 -1 -18 141 -18 l153 0 -9 23 c-7 18 -6 23 3 20 7 -3 17 -18 21 -35 7 -23
18 -33 45 -41 20 -6 38 -9 40 -7 3 3 7 28 10 57 5 43 7 48 13 28 4 -14 7 -41
8 -61 1 -32 6 -39 36 -54 46 -21 56 -17 69 30 13 45 43 65 32 20 -21 -82 -21
-81 26 -109 25 -14 47 -26 49 -26 3 0 18 25 34 55 29 53 45 69 45 43 0 -7 -12
-31 -25 -53 -31 -51 -31 -66 1 -96 l26 -24 21 30 c67 91 90 96 33 6 l-35 -53
26 -39 c14 -22 28 -39 31 -39 4 0 28 21 54 47 26 26 50 44 53 41 3 -3 -17 -33
-44 -66 -45 -54 -50 -64 -41 -86 12 -32 24 -32 79 -1 23 14 48 25 53 25 18 0
-14 -31 -52 -50 -49 -25 -59 -39 -53 -78 l5 -34 52 7 51 6 -52 -25 c-51 -24
-53 -27 -53 -65 l0 -40 73 -3 c79 -3 73 -13 -14 -23 l-57 -6 -7 -46 c-4 -26
-2 -50 3 -55 5 -5 34 -16 63 -24 l54 -13 -62 3 -62 4 -17 -44 c-19 -50 -53
-87 -40 -44 19 64 26 115 32 245 9 202 -16 293 -110 394 -99 107 -278 194
-474 231 -112 21 -321 -18 -410 -76 -45 -30 -112 -96 -112 -112 0 -8 16 -32
36 -54 29 -33 33 -42 23 -54 -11 -13 -14 -11 -25 13 -12 28 -12 28 -13 -14 -1
-57 -17 -55 -26 4 -8 53 -39 125 -61 144 -13 11 -14 9 -10 -12 22 -93 26 -124
26 -204 0 -91 -27 -245 -54 -309 -17 -39 -63 -83 -96 -91 -18 -4 -36 1 -63 19
-38 26 -41 24 -37 -23 2 -31 47 -123 88 -183 91 -132 244 -244 401 -291 76
-23 201 -36 201 -20 0 4 -16 19 -36 32 -20 14 -57 48 -82 77 -85 95 -195 344
-152 344 5 0 14 -19 20 -42 23 -88 108 -242 164 -300 81 -83 212 -141 269
-119 34 13 35 43 2 96 -13 22 -25 43 -25 47 0 4 39 5 88 2 71 -5 91 -3 107 10
20 16 19 17 -17 50 -21 18 -38 38 -38 43 0 6 30 12 68 15 134 10 199 84 106
123 -41 17 -44 33 -6 41 65 14 83 26 80 53 -2 20 -11 29 -38 37 -41 14 -52 34
-17 34 38 0 87 -46 87 -80 0 -23 -7 -32 -35 -46 -20 -9 -34 -19 -33 -23 30
-56 31 -61 19 -89 -13 -31 -75 -65 -139 -78 l-34 -6 21 -22 c47 -50 8 -86 -99
-94 l-68 -5 16 -36 c9 -20 17 -37 18 -39 5 -8 204 79 264 114 35 20 88 60 117
89 37 36 62 52 81 53 48 0 82 14 112 43 19 19 39 29 59 29 26 0 31 4 31 25 0
16 11 32 30 47 24 17 30 29 30 59 0 36 14 59 47 77 12 7 13 13 4 30 -17 31
-13 66 9 94 16 21 18 31 10 57 -11 39 -5 57 28 93 l26 28 -22 22 c-29 32 -41
69 -31 96 7 19 3 28 -21 52 -16 16 -32 41 -36 57 -4 15 -20 43 -36 61 -29 34
-35 61 -18 92 8 15 4 23 -20 40 -16 12 -32 31 -35 43 -4 15 -14 23 -33 24 -46
3 -82 21 -92 47 -8 21 -13 24 -48 19 -46 -6 -79 9 -92 41 -7 19 -14 22 -40 18
-22 -3 -37 1 -53 16 -20 18 -24 19 -41 6 -30 -21 -62 -17 -84 11 -23 29 -30
31 -38 11z m-158 -982 c22 -38 25 -49 16 -70 -7 -13 -18 -24 -26 -24 -11 0
-15 -11 -13 -41 1 -45 -19 -69 -59 -69 -16 0 -23 -8 -27 -30 -12 -56 -101 -77
-149 -33 -19 17 -24 43 -10 43 5 0 17 -9 27 -20 23 -25 56 -26 86 -1 21 17 22
22 11 45 -17 38 -16 39 24 33 68 -11 94 25 54 75 -23 30 -17 39 21 31 43 -8
47 19 10 64 -36 44 -42 69 -11 53 11 -6 31 -31 46 -56z m162 4 c5 -7 15 -30
21 -52 12 -45 -6 -92 -41 -105 -17 -6 -21 -16 -22 -57 -1 -48 -2 -49 -33 -52
-29 -3 -33 -7 -33 -31 0 -38 -31 -65 -70 -59 -27 4 -33 1 -45 -28 -26 -62 -96
-74 -139 -23 -27 31 -34 59 -16 59 6 0 10 -4 10 -9 0 -15 49 -61 65 -61 8 0
24 9 36 21 17 17 20 29 15 59 -7 47 4 56 37 30 53 -42 92 -12 60 47 -18 35
-13 53 11 34 20 -17 66 -10 80 11 8 13 5 24 -11 46 -24 33 -21 42 14 42 62 0
81 46 43 100 -24 34 -8 59 18 28z" id="node14" class="node"></path>
<path d="M265 2364 c-28 -15 -59 -34 -69 -43 -19 -16 -76 -127 -76 -147 0 -7
24 -9 75 -6 41 2 102 -1 136 -7 81 -16 85 -11 70 80 -9 54 -19 82 -42 110 -17
22 -34 39 -37 39 -4 0 -30 -12 -57 -26z" id="node15" class="node"></path>
<path d="M373 2103 c9 -9 20 -13 24 -9 4 4 1 11 -7 16 -25 16 -35 11 -17 -7z" id="node16" class="node"></path>
<path d="M372 1957 c-6 -17 -27 -75 -46 -127 -65 -172 -82 -292 -52 -365 21
-49 48 -60 76 -30 17 18 21 31 16 52 -24 100 -27 126 -21 203 4 47 15 131 27
188 20 105 20 139 0 79z" id="node17" class="node"></path>
<path d="M1140 878 c0 -23 39 -58 64 -58 20 0 56 27 56 42 0 3 -17 8 -37 12
-21 3 -48 9 -60 12 -16 4 -23 2 -23 -8z" id="node18" class="node"></path>
<path d="M1020 870 c0 -15 36 -30 72 -30 l33 1 -24 19 c-24 21 -81 28 -81 10z" id="node19" class="node"></path>
<path d="M1050 777 c0 -48 -17 -97 -42 -124 -18 -20 -31 -23 -87 -23 -139 0
-246 -31 -239 -68 6 -31 53 -26 108 12 54 37 65 39 185 36 79 -2 101 11 107
65 3 26 7 30 33 30 40 1 56 40 30 78 -14 22 -25 27 -56 27 -37 0 -39 -1 -39
-33z" id="node20" class="node"></path>
<path d="M1197 783 c-2 -5 -8 -26 -12 -48 -11 -65 -42 -105 -103 -133 -47 -21
-63 -24 -116 -18 -94 9 -216 -35 -216 -79 0 -10 15 -9 68 7 37 11 74 24 82 29
58 35 66 17 13 -29 -66 -57 -83 -127 -19 -78 17 12 46 31 64 40 18 9 38 28 44
41 11 25 38 35 38 15 0 -6 -11 -27 -24 -48 -32 -49 -41 -95 -23 -110 21 -18
61 18 75 67 15 48 53 81 96 81 50 0 61 13 61 72 l0 53 43 3 c23 2 42 6 42 10
-1 4 -18 19 -40 34 -29 20 -41 36 -46 63 -6 33 -17 45 -27 28z" id="node21" class="node"></path>
<path d="M1110 664 c0 -8 5 -12 10 -9 6 3 10 10 10 16 0 5 -4 9 -10 9 -5 0
-10 -7 -10 -16z" id="node22" class="node"></path>
<path d="M631 589 c-33 -20 -37 -42 -9 -47 14 -3 54 55 45 64 -2 2 -18 -6 -36
-17z" id="node23" class="node"></path>
</g>
</svg>