<!--?xml version="1.0" standalone="no"?-->

<svg version="1.0" xmlns="http://www.w3.org/2000/svg" width="300.000000pt" height="300.000000pt" viewBox="0 0 300.000000 300.000000" preserveAspectRatio="xMidYMid meet">
<g transform="translate(0.000000,300.000000) scale(0.100000,-0.100000)" fill="#101010" stroke="none">
<path class="node" id="node1" d="M20 2198 c0 -33 56 -121 105 -166 56 -51 195 -129 293 -164 114 -40
296 -87 460 -117 156 -30 180 -51 222 -196 15 -54 27 -76 50 -93 52 -39 199
-55 284 -31 35 10 42 9 53 -7 12 -17 14 -17 26 -1 11 16 18 16 67 6 71 -15
199 -6 247 18 44 21 66 56 88 138 27 105 65 137 192 161 413 80 643 168 781
298 55 51 78 86 93 139 7 26 1 22 -46 -30 -110 -122 -313 -194 -750 -267 -333
-56 -384 -83 -409 -216 -15 -75 -32 -102 -75 -115 -20 -6 -32 2 -77 50 -30 31
-70 86 -90 121 -39 70 -54 85 -54 56 0 -20 -40 -102 -83 -170 -38 -59 -65 -70
-114 -46 -36 18 -39 22 -50 88 -28 156 -54 168 -528 253 -353 62 -565 148
-652 262 -18 23 -33 36 -33 29z"></path>
<path class="node" id="node2" d="M1467 2183 c-3 -10 -16 -58 -30 -108 -36 -127 -116 -407 -122 -424
-5 -12 -3 -12 11 0 22 18 93 128 129 199 25 49 29 53 39 36 65 -109 178 -256
184 -238 1 5 -13 50 -31 98 -19 49 -49 127 -65 174 -39 107 -103 274 -107 278
-1 1 -5 -5 -8 -15z"></path>
<path class="node" id="node3" d="M2915 1969 c-105 -108 -344 -197 -750 -279 -151 -31 -158 -34 -183
-85 -30 -62 -29 -78 6 -71 15 3 56 10 92 16 164 27 400 99 546 165 168 77 292
182 327 278 9 24 6 22 -38 -24z"></path>
<path class="node" id="node4" d="M50 1994 c0 -23 61 -103 111 -146 146 -123 478 -253 764 -298 39 -6
80 -14 93 -17 18 -4 22 -1 22 18 0 13 -11 42 -23 64 -25 45 -15 41 -252 90
-337 70 -567 160 -677 264 -21 19 -38 31 -38 25z"></path>
<path class="node" id="node5" d="M80 1812 c0 -19 52 -91 97 -133 102 -97 289 -197 491 -263 28 -10 52
-23 52 -30 0 -20 -41 -53 -100 -80 l-55 -26 55 0 c67 0 159 23 212 52 43 25
53 21 39 -15 -16 -42 -80 -97 -155 -133 l-71 -34 65 6 c141 13 258 63 338 145
63 64 70 83 45 117 -17 23 -36 29 -139 49 -420 78 -724 194 -841 323 -18 19
-33 29 -33 22z"></path>
<path class="node" id="node6" d="M2888 1786 c-72 -99 -450 -250 -764 -305 -153 -27 -198 -39 -211 -57
-26 -36 -16 -65 46 -125 88 -86 189 -130 331 -144 l65 -6 -65 33 c-77 39 -160
115 -160 146 0 23 10 28 26 13 21 -22 165 -61 221 -61 l58 1 -63 30 c-53 26
-104 72 -91 83 2 1 51 20 109 41 181 65 320 142 419 231 53 48 111 118 111
136 0 15 -15 8 -32 -16z"></path>
<path class="node" id="node7" d="M1165 1370 c-75 -146 -212 -261 -353 -297 l-67 -18 46 -3 c63 -4 166
21 239 58 33 17 95 63 137 103 80 76 83 74 38 -26 -46 -104 -118 -183 -208
-229 -49 -25 -42 -33 14 -18 49 13 118 50 164 88 45 37 116 130 150 195 17 31
33 57 38 57 7 0 8 -8 10 -62 2 -49 -16 -156 -33 -208 l-19 -55 29 34 c59 69
130 266 130 361 l0 37 -119 -5 c-73 -3 -131 0 -150 6 -29 10 -32 9 -46 -18z"></path>
<path class="node" id="node8" d="M1530 1340 c0 -97 44 -230 107 -329 38 -59 52 -63 29 -7 -27 65 -47
258 -27 270 5 4 27 -27 49 -66 72 -132 167 -219 279 -257 81 -27 99 -26 43 3
-62 33 -132 96 -168 153 -36 57 -77 151 -69 159 3 3 24 -15 48 -41 99 -107
255 -176 393 -174 39 0 36 2 -39 27 -45 15 -104 42 -133 60 -63 41 -139 123
-180 193 l-30 52 -151 1 -151 1 0 -45z"></path>
<path class="node" id="node9" d="M1497 1180 c-3 -8 -11 -35 -17 -60 -7 -25 -25 -73 -41 -108 -16 -35
-29 -67 -29 -72 0 -4 13 -36 29 -71 17 -34 38 -97 47 -140 16 -76 34 -97 34
-41 0 42 28 141 55 198 l25 52 -24 48 c-13 27 -32 74 -41 104 -33 108 -32 106
-38 90z"></path>
</g>
<g transform="translate(0.000000,300.000000) scale(0.100000,-0.100000)" fill="#A1A1A1" stroke="none">

</g>
</svg>