<!--?xml version="1.0" standalone="no"?-->

<svg version="1.0" xmlns="http://www.w3.org/2000/svg" width="293.000000pt" height="300.000000pt" viewBox="0 0 293.000000 300.000000" preserveAspectRatio="xMidYMid meet">
<g transform="translate(0.000000,300.000000) scale(0.100000,-0.100000)" fill="#4A3559" stroke="none">
<path d="M910 2991 c0 -5 -18 -12 -40 -16 -60 -10 -130 -62 -156 -116 -32 -64
-41 -199 -20 -299 25 -118 106 -217 206 -252 24 -8 30 -16 30 -38 0 -23 -9
-33 -52 -58 -118 -67 -313 -250 -405 -381 -49 -69 -51 -75 -37 -96 8 -13 21
-26 29 -29 12 -4 12 -12 1 -48 -22 -70 -34 -128 -47 -223 -11 -78 -16 -92 -41
-113 -19 -16 -35 -46 -49 -94 -28 -92 -29 -140 -3 -175 37 -50 137 -40 170 16
16 28 16 9 -3 -216 l-6 -73 35 0 c19 0 60 -5 90 -11 l55 -11 6 -122 c4 -66 10
-166 13 -222 5 -71 3 -103 -5 -108 -6 -4 -11 -2 -11 3 0 6 -18 22 -40 36 -51
32 -125 34 -162 5 -29 -23 -58 -78 -58 -112 0 -16 -16 -35 -55 -63 -58 -43
-72 -62 -56 -78 7 -7 16 -6 28 5 10 8 34 15 54 15 33 1 35 -1 31 -29 l-4 -29
38 16 c20 8 44 21 51 27 11 9 16 9 23 -1 10 -17 38 -7 75 26 22 21 41 28 72
28 26 1 50 8 61 19 13 11 22 14 27 7 8 -15 45 -14 78 2 36 16 36 40 0 31 -19
-5 -30 -2 -40 12 -11 15 -17 16 -32 7 -16 -10 -20 -8 -25 15 -3 15 -9 133 -13
263 l-6 236 81 -1 c75 -1 83 1 109 26 l28 27 99 -9 c55 -6 101 -12 103 -14 11
-11 -56 -310 -109 -483 -7 -24 -23 -40 -59 -60 -52 -30 -68 -60 -25 -49 18 4
25 1 29 -15 6 -24 24 -21 91 12 31 16 44 18 71 9 27 -9 31 -15 27 -35 -3 -18
0 -25 12 -25 11 0 16 -9 16 -26 0 -24 3 -25 27 -19 15 3 49 22 75 41 55 39
121 47 143 17 8 -11 18 -14 31 -9 36 15 93 15 105 0 13 -16 63 -11 87 9 9 7
20 7 35 -1 40 -19 98 -22 135 -6 20 8 42 12 50 9 7 -3 21 -1 30 4 9 4 33 11
53 15 32 6 37 4 42 -15 5 -19 12 -21 56 -18 35 3 51 0 51 -8 0 -6 4 -14 9 -17
7 -5 152 42 221 72 14 6 87 14 163 18 107 5 137 9 137 20 0 20 -48 29 -85 15
-41 -14 -77 -14 -107 2 l-25 13 23 17 c26 19 40 81 26 117 -16 41 -59 80 -87
80 -34 0 -40 19 -20 65 98 236 24 464 -132 404 -23 -8 -30 -7 -40 7 -19 26
-16 36 6 24 32 -17 66 -11 91 15 34 36 25 103 -23 175 -35 52 -37 61 -43 160
-7 113 -23 157 -60 166 -16 4 -23 16 -28 44 -7 45 -67 104 -116 115 -17 4 -34
13 -37 21 -8 21 -57 44 -92 44 -17 0 -48 -7 -70 -16 -38 -15 -45 -14 -193 22
-117 29 -162 44 -190 66 -33 26 -36 32 -25 49 10 17 9 22 -3 32 -9 7 -49 53
-89 104 -74 93 -181 190 -283 258 -70 46 -79 79 -25 89 49 9 110 76 144 154
25 62 28 77 28 202 0 128 -1 138 -28 192 -30 61 -81 112 -133 134 -37 16 -114
19 -114 5z m123 -61 c47 -28 82 -83 101 -156 21 -81 20 -153 -3 -242 -22 -85
-58 -144 -104 -172 -42 -26 -78 -25 -135 4 -118 61 -180 188 -169 347 7 89 19
124 55 163 36 38 81 56 141 56 27 0 53 5 56 10 9 14 20 13 58 -10z m-34 -833
c22 -46 41 -87 41 -91 0 -5 6 -22 14 -39 37 -80 103 -310 133 -458 l5 -26
-189 -1 c-111 0 -233 -6 -298 -15 -60 -8 -111 -14 -113 -13 -11 12 86 306 128
384 51 97 119 214 139 242 36 48 83 100 91 100 4 0 26 -37 49 -83z m181 -54
c87 -79 180 -191 180 -216 0 -17 -23 -38 -70 -63 -19 -10 -42 -24 -50 -30 -8
-6 -24 -14 -35 -18 -18 -5 -23 1 -34 42 -39 135 -97 295 -135 367 -9 17 -16
34 -16 38 0 14 73 -41 160 -120z m-362 45 c-35 -47 -128 -212 -156 -278 -13
-30 -30 -72 -39 -92 -9 -21 -21 -38 -27 -38 -14 0 -113 57 -120 69 -14 22 186
247 299 334 32 25 61 44 63 42 3 -2 -6 -19 -20 -37z m583 -339 c40 -35 71 -47
210 -83 l134 -34 7 -44 c7 -49 -9 -98 -33 -98 -45 0 -81 -88 -103 -253 -13
-99 -17 -111 -50 -152 -46 -56 -48 -93 -5 -129 18 -15 43 -26 61 -26 23 0 29
-4 26 -17 -3 -13 -11 -17 -28 -15 -94 13 -130 -5 -170 -84 -31 -60 -33 -140
-7 -259 9 -44 17 -84 17 -90 0 -5 -18 -21 -40 -34 -45 -28 -51 -38 -59 -105
-7 -54 -27 -72 -37 -32 -8 31 -65 83 -101 92 -17 5 -45 1 -72 -9 -25 -9 -47
-14 -50 -12 -2 3 6 42 17 87 12 46 31 128 42 183 11 55 23 110 25 122 4 15 15
23 37 28 45 9 87 28 91 40 10 29 -36 364 -69 502 -9 36 -12 78 -8 97 3 20 -1
70 -11 118 -10 46 -18 91 -19 100 -1 11 29 37 79 71 44 30 83 55 86 56 3 0 17
-8 30 -20z m-846 -101 c29 -13 32 -36 10 -98 -8 -23 -16 -56 -17 -74 -1 -17
-6 -37 -12 -44 -7 -10 -4 -18 12 -30 19 -15 20 -22 12 -57 -5 -22 -12 -53 -15
-70 l-7 -30 -13 26 c-8 14 -28 32 -45 39 -39 16 -39 15 4 240 24 124 22 121
71 98z m1360 2 c18 -7 19 -8 2 -15 -9 -4 -28 -4 -42 -1 -32 8 -44 -17 -21 -43
22 -24 20 -31 -7 -31 -13 0 -32 9 -42 20 -18 20 -18 21 5 45 20 21 42 31 75
33 6 0 19 -3 30 -8z m114 -69 c64 -33 73 -57 67 -173 -4 -79 -8 -103 -22 -112
-16 -12 -15 -16 10 -52 30 -45 35 -107 10 -142 -27 -39 -112 -76 -174 -76 -60
1 -91 15 -147 68 -43 39 -45 93 -7 150 20 29 23 41 14 49 -9 9 -20 3 -45 -27
-36 -44 -47 -84 -34 -130 5 -18 5 -43 -1 -61 -5 -16 -12 -47 -15 -68 l-6 -37
-44 4 c-24 2 -48 7 -54 11 -21 12 -11 50 24 85 34 35 37 43 60 181 23 138 39
189 57 189 11 0 10 -87 -1 -109 -6 -10 -6 -23 0 -32 18 -28 47 25 53 99 10
111 14 117 70 117 50 1 76 20 76 56 0 33 53 38 109 10z m-855 -163 c7 -10 18
-50 25 -90 7 -40 19 -98 26 -128 8 -30 21 -122 31 -204 14 -125 14 -150 3
-158 -15 -10 -281 -4 -298 7 -6 3 -11 43 -12 93 0 124 -15 292 -28 326 -9 21
-14 26 -24 17 -14 -11 -13 -65 3 -189 20 -152 8 -272 -30 -292 -26 -14 -97
-12 -225 8 l-110 17 3 70 c2 39 10 106 17 150 8 44 19 127 26 185 6 57 17 120
24 140 l12 35 99 17 c140 23 440 21 458 -4z m990 -5 c7 -16 17 -69 21 -120 6
-82 11 -99 47 -159 29 -51 38 -77 36 -103 -4 -43 -29 -52 -61 -23 -12 10 -29
22 -38 25 -21 7 -29 48 -22 114 4 40 1 64 -13 95 -14 31 -15 43 -6 46 8 2 12
28 12 78 0 41 2 74 5 74 2 0 11 -12 19 -27z m-1704 -138 c36 -19 41 -55 9 -55
-18 0 -20 -4 -14 -27 18 -73 17 -91 -4 -112 -39 -39 -111 -15 -111 37 0 30 32
122 51 146 24 30 30 31 69 11z m70 -117 c0 -32 0 -32 -16 -10 -15 22 -12 42 7
42 5 0 9 -15 9 -32z m1359 -173 c63 -9 139 10 183 45 l36 29 22 -72 c12 -39
28 -85 35 -102 41 -91 67 -168 82 -247 17 -87 17 -89 -5 -157 -13 -38 -28 -74
-35 -79 -17 -15 -97 -3 -97 14 0 7 9 36 20 64 11 28 23 81 26 118 5 60 3 71
-18 101 -31 46 -88 68 -129 51 -16 -7 -37 -25 -45 -41 -24 -47 -36 -176 -31
-326 4 -130 3 -143 -14 -159 -11 -9 -22 -14 -26 -10 -4 4 -1 11 6 15 11 7 13
49 12 199 -2 233 -12 279 -61 306 -46 24 -102 15 -137 -22 -23 -25 -25 -32
-20 -102 3 -56 13 -92 36 -142 17 -37 31 -70 31 -72 0 -2 -15 -8 -32 -11 -18
-4 -41 -14 -51 -23 -20 -18 -18 -20 -45 38 -74 158 -70 212 34 442 29 65 55
132 59 150 14 71 11 69 66 33 30 -20 70 -36 98 -40z m429 -105 c17 -11 32 -21
32 -23 0 -3 5 -28 10 -58 14 -74 -3 -192 -41 -276 -29 -64 -54 -85 -29 -23 19
45 6 170 -26 255 -39 104 -40 119 -12 132 31 15 29 16 66 -7z m-719 -34 c10
-11 10 -20 1 -37 -26 -48 -60 -165 -60 -207 0 -24 7 -71 16 -104 8 -33 14 -62
12 -64 -2 -1 -15 2 -28 9 -44 22 -82 195 -66 301 13 82 90 145 125 102z m223
-147 c43 -23 65 -139 53 -282 l-7 -85 -33 22 c-19 11 -34 28 -35 38 0 9 -14
47 -31 85 -19 42 -33 91 -36 129 -5 57 -4 62 22 82 32 25 38 26 67 11z m266
-9 c32 -30 36 -62 19 -132 -30 -120 -51 -166 -91 -193 -48 -33 -50 -27 -43
133 4 117 17 179 43 205 14 13 50 7 72 -13z m297 -275 c56 -23 71 -80 30 -120
-26 -26 -72 -33 -103 -15 -9 5 -29 14 -44 20 -40 14 -48 55 -16 87 14 14 41
29 59 33 19 4 35 8 37 9 1 1 18 -6 37 -14z m-804 -55 c29 -29 49 -58 47 -67
-2 -9 -5 -15 -8 -12 -3 2 -18 -6 -34 -18 -21 -17 -42 -23 -78 -23 -41 0 -54 5
-79 29 -37 38 -38 76 -2 113 20 21 36 28 65 28 33 0 46 -7 89 -50z m596 -22
c66 -73 22 -151 -74 -133 -38 7 -123 51 -123 64 0 4 12 19 28 33 64 60 133 75
169 36z m-394 -2 c18 -8 45 -26 62 -40 l29 -25 -24 -26 c-49 -52 -160 -59
-182 -10 -14 32 6 81 41 100 33 18 35 18 74 1z m-538 -2 c25 -10 49 -63 35
-79 -26 -31 -145 -31 -186 0 -18 13 -18 14 6 40 14 15 34 31 45 35 24 11 77
12 100 4z m-608 -48 c18 -19 33 -39 33 -44 0 -11 -67 -47 -105 -57 -97 -26
-149 43 -88 115 25 30 30 32 77 27 41 -4 55 -11 83 -41z m723 -58 c0 -5 -9 -8
-20 -8 -23 0 -26 10 -8 28 9 9 14 9 20 -1 4 -6 8 -15 8 -19z m33 2 c16 -19 16
-20 -5 -20 -12 0 -18 3 -15 7 4 3 2 12 -4 20 -6 7 -7 13 -2 13 5 0 16 -9 26
-20z m891 11 c3 -5 -1 -11 -9 -15 -9 -3 -15 0 -15 9 0 16 16 20 24 6z m-654
-19 c0 -9 -52 -33 -58 -27 -7 7 42 44 50 38 5 -2 8 -7 8 -11z m330 -2 c0 -5
-4 -10 -10 -10 -5 0 -10 5 -10 10 0 6 5 10 10 10 6 0 10 -4 10 -10z" id="node1" class="node"></path>
<path d="M1017 2785 c-4 -8 -2 -17 4 -21 6 -3 9 -18 7 -32 -2 -21 1 -27 17
-27 15 0 21 8 23 33 5 49 -36 87 -51 47z" id="node2" class="node"></path>
<path d="M814 2743 c3 -53 20 -67 38 -29 9 21 8 31 -2 51 -22 42 -39 31 -36
-22z" id="node3" class="node"></path>
<path d="M1063 2602 c-6 -4 -13 -24 -17 -45 -9 -47 -51 -94 -93 -102 -26 -5
-37 -2 -57 18 -14 14 -28 38 -31 54 -12 56 -37 75 -43 33 -9 -58 46 -135 104
-146 60 -11 119 24 149 89 14 28 25 62 25 73 0 23 -20 37 -37 26z" id="node4" class="node"></path>
<path d="M1997 1493 c-13 -12 -7 -51 9 -57 21 -8 34 1 34 23 0 28 -28 50 -43
34z" id="node5" class="node"></path>
<path d="M1830 1475 c-14 -17 -4 -55 16 -55 21 0 39 51 22 62 -18 11 -24 10
-38 -7z" id="node6" class="node"></path>
<path d="M1882 1374 c-28 -19 -28 -44 -1 -78 39 -49 129 -22 129 39 0 49 -79
73 -128 39z m83 -44 c0 -8 -10 -16 -22 -18 -25 -4 -26 -2 -17 23 8 19 39 16
39 -5z" id="node7" class="node"></path>
<path d="M1801 1240 c-11 -6 -11 -15 1 -51 19 -59 64 -89 131 -89 44 0 53 4
88 39 29 28 39 47 39 70 0 39 -24 42 -39 4 -24 -65 -72 -91 -124 -69 -34 14
-67 54 -67 80 0 20 -13 27 -29 16z" id="node8" class="node"></path>










</g>
<g transform="translate(0.000000,300.000000) scale(0.100000,-0.100000)" fill="#8BE4DD" stroke="none">

<path d="M975 2940 c-3 -5 -29 -10 -56 -10 -60 0 -105 -18 -141 -56 -36 -39
-48 -74 -55 -163 -11 -159 51 -286 169 -347 57 -29 93 -30 135 -4 46 28 82 87
104 172 43 168 2 339 -98 398 -38 23 -49 24 -58 10z m84 -154 c7 -8 11 -30 9
-48 -2 -25 -8 -33 -23 -33 -16 0 -19 6 -17 27 2 14 -1 29 -7 32 -13 9 -3 36
14 36 7 0 18 -6 24 -14z m-209 -21 c10 -20 11 -30 2 -51 -18 -38 -35 -24 -38
29 -3 53 14 64 36 22z m250 -189 c0 -11 -11 -45 -25 -73 -56 -123 -205 -120
-246 4 -12 36 -9 73 6 75 12 1 22 -18 30 -55 3 -16 17 -40 31 -54 20 -20 31
-23 57 -18 42 8 84 55 93 102 4 21 11 41 17 45 17 11 37 -3 37 -26z" id="node20" class="node"></path>
<path d="M914 2147 c-57 -63 -102 -135 -194 -309 -42 -78 -139 -372 -128 -384
2 -1 53 5 113 13 65 9 187 15 298 15 l189 1 -5 26 c-30 148 -96 378 -133 458
-8 17 -14 34 -14 39 0 14 -83 174 -90 174 -4 0 -20 -15 -36 -33z" id="node21" class="node"></path>
<path d="M1020 2163 c0 -4 7 -21 16 -38 38 -72 96 -232 135 -367 11 -41 16
-47 34 -42 11 4 27 12 35 18 8 6 31 20 50 30 47 25 70 46 70 63 0 25 -93 137
-180 216 -87 79 -160 134 -160 120z" id="node22" class="node"></path>
<path d="M775 2083 c-113 -87 -313 -312 -299 -334 7 -12 106 -69 120 -69 6 0
18 17 27 38 9 20 26 62 39 92 28 66 121 231 156 278 14 18 23 35 20 37 -2 2
-31 -17 -63 -42z" id="node23" class="node"></path>


<path d="M1854 1653 c-12 -2 -32 -15 -44 -28 -23 -24 -23 -25 -5 -45 10 -11
29 -20 42 -20 27 0 29 7 7 31 -23 26 -11 51 21 43 14 -3 33 -3 42 1 17 7 16 8
-2 15 -22 9 -29 10 -61 3z" id="node26" class="node"></path>
<path d="M1933 1593 c-7 -2 -13 -12 -13 -22 0 -36 -26 -55 -76 -56 -56 0 -60
-6 -70 -117 -6 -74 -35 -127 -53 -99 -6 9 -6 22 0 32 11 22 12 109 1 109 -18
0 -34 -51 -57 -189 -23 -138 -26 -146 -60 -181 -35 -35 -45 -73 -24 -85 6 -4
30 -9 54 -11 l44 -4 6 37 c3 21 10 52 15 68 6 18 6 43 1 61 -13 46 -2 86 34
130 25 30 36 36 45 27 9 -8 6 -20 -14 -49 -38 -57 -36 -111 7 -150 56 -53 87
-67 147 -68 62 0 147 37 174 76 25 35 20 97 -10 142 -25 36 -26 40 -10 52 26
19 34 203 10 239 -30 45 -109 76 -151 58z m95 -105 c14 -14 16 -44 3 -52 -17
-11 -41 6 -41 28 0 35 16 46 38 24z m-160 -6 c17 -11 -1 -62 -22 -62 -20 0
-30 38 -16 55 14 17 20 18 38 7z m124 -109 c41 -37 4 -103 -57 -103 -36 0 -75
36 -75 71 0 43 94 66 132 32z m-162 -149 c0 -26 33 -66 67 -80 52 -22 100 4
124 69 15 38 39 35 39 -4 0 -23 -10 -42 -39 -70 -35 -35 -44 -39 -88 -39 -67
0 -112 30 -131 89 -12 36 -12 45 -1 51 16 11 29 4 29 -16z" id="node27" class="node"></path>
<path d="M1926 1335 c-9 -25 -8 -27 17 -23 12 2 22 10 22 18 0 21 -31 24 -39
5z" id="node28" class="node"></path>
<path d="M716 1422 l-99 -17 -12 -35 c-7 -20 -18 -83 -24 -140 -7 -58 -18
-141 -26 -185 -7 -44 -15 -111 -17 -150 l-3 -70 110 -17 c128 -20 199 -22 225
-8 38 20 50 140 30 292 -16 124 -17 178 -3 189 10 9 15 4 24 -17 13 -34 28
-202 28 -326 1 -50 6 -90 12 -93 17 -11 283 -17 298 -7 11 8 11 33 -3 158 -10
82 -23 174 -31 204 -7 30 -19 88 -26 128 -19 112 -9 107 -211 109 -123 1 -202
-3 -272 -15z" id="node29" class="node"></path>
<path d="M2140 1366 c0 -50 -4 -76 -12 -78 -9 -3 -8 -15 6 -46 14 -31 17 -55
13 -95 -7 -66 1 -107 22 -114 9 -3 26 -15 38 -25 32 -29 57 -20 61 23 2 26 -7
52 -36 103 -36 60 -41 77 -47 159 -6 80 -25 147 -40 147 -3 0 -5 -33 -5 -74z" id="node30" class="node"></path>
<path d="M391 1264 c-19 -24 -51 -116 -51 -146 0 -52 72 -76 111 -37 21 21 22
39 4 112 -6 23 -4 27 14 27 32 0 27 36 -9 55 -39 20 -45 19 -69 -11z" id="node31" class="node"></path>

<path d="M1736 1042 c-2 -10 -7 -32 -11 -50 -4 -18 -30 -85 -59 -150 -104
-230 -108 -284 -34 -442 27 -58 25 -56 45 -38 10 9 33 19 51 23 17 3 32 9 32
11 0 2 -14 35 -31 72 -23 50 -33 86 -36 142 -5 70 -3 77 20 102 35 37 91 46
137 22 49 -27 59 -73 61 -306 1 -150 -1 -192 -12 -199 -7 -4 -10 -11 -6 -15 4
-4 15 1 26 10 17 16 18 29 14 159 -5 150 7 279 31 326 8 16 29 34 45 41 41 17
98 -5 129 -51 21 -30 23 -41 18 -101 -3 -37 -15 -90 -26 -118 -11 -28 -20 -57
-20 -64 0 -17 80 -29 97 -14 7 5 22 41 35 79 22 68 22 70 5 157 -15 79 -41
156 -82 247 -7 17 -23 63 -35 102 l-22 72 -36 -29 c-76 -60 -193 -62 -281 -5
-43 28 -51 31 -55 17z" id="node33" class="node"></path>
<path d="M2252 887 c-28 -13 -27 -28 12 -132 32 -85 45 -210 26 -255 -25 -62
0 -41 29 23 38 84 55 202 41 276 -5 30 -10 55 -10 58 0 4 -63 43 -70 42 -3 0
-16 -5 -28 -12z" id="node34" class="node"></path>
<path d="M1512 825 c-20 -22 -33 -50 -38 -81 -16 -106 22 -279 66 -301 13 -7
26 -10 28 -9 2 2 -4 31 -12 64 -9 33 -16 80 -16 104 0 42 34 159 60 207 9 17
9 26 -1 37 -20 24 -55 16 -87 -21z" id="node35" class="node"></path>
<path d="M1755 688 c-26 -20 -27 -25 -22 -82 3 -38 17 -87 36 -129 17 -38 31
-76 31 -85 1 -10 16 -27 35 -38 l33 -22 7 85 c12 143 -10 259 -53 282 -29 15
-35 14 -67 -11z" id="node36" class="node"></path>
<path d="M2016 703 c-26 -26 -39 -88 -43 -205 -7 -160 -5 -166 43 -133 27 18
42 40 56 78 31 83 51 175 44 202 -12 47 -75 83 -100 58z" id="node37" class="node"></path>
<path d="M2311 420 c-18 -4 -45 -19 -59 -33 -32 -32 -24 -73 16 -87 15 -6 35
-15 44 -20 31 -18 77 -11 103 15 41 40 26 97 -30 120 -19 8 -36 15 -37 14 -2
-1 -18 -5 -37 -9z" id="node38" class="node"></path>
<path d="M1427 382 c-36 -37 -35 -75 2 -113 25 -24 38 -29 79 -29 36 0 57 6
78 23 16 12 31 20 34 18 3 -3 6 3 8 12 2 9 -18 38 -47 67 -43 43 -56 50 -89
50 -29 0 -45 -7 -65 -28z" id="node39" class="node"></path>
<path d="M2065 343 c-33 -17 -85 -62 -85 -74 0 -13 85 -57 123 -64 96 -18 140
60 74 133 -24 26 -68 28 -112 5z" id="node40" class="node"></path>
<path d="M1709 335 c-35 -19 -55 -68 -41 -100 22 -49 133 -42 182 10 l24 26
-29 25 c-29 24 -86 54 -102 54 -4 -1 -20 -7 -34 -15z" id="node41" class="node"></path>
<path d="M1145 330 c-11 -4 -31 -20 -45 -35 -24 -26 -24 -27 -6 -40 41 -31
160 -31 186 0 14 16 -10 69 -35 79 -23 8 -76 7 -100 -4z" id="node42" class="node"></path>
<path d="M477 300 c-61 -72 -9 -141 88 -115 38 10 105 46 105 57 0 5 -15 25
-33 44 -28 30 -42 37 -83 41 -47 5 -52 3 -77 -27z" id="node43" class="node"></path>
<path d="M1332 248 c-18 -18 -15 -28 8 -28 21 0 25 7 12 27 -6 10 -11 10 -20
1z" id="node44" class="node"></path>
<path d="M1369 237 c6 -8 8 -17 4 -20 -3 -4 3 -7 15 -7 21 0 21 1 5 20 -10 11
-21 20 -26 20 -5 0 -4 -6 2 -13z" id="node45" class="node"></path>
<path d="M2260 235 c0 -9 6 -12 15 -9 8 4 12 10 9 15 -8 14 -24 10 -24 -6z" id="node46" class="node"></path>
<path d="M1591 219 c-13 -11 -22 -22 -19 -24 6 -6 58 18 58 27 0 16 -17 15
-39 -3z" id="node47" class="node"></path>
<path d="M1940 220 c0 -5 5 -10 10 -10 6 0 10 5 10 10 0 6 -4 10 -10 10 -5 0
-10 -4 -10 -10z" id="node48" class="node"></path>
</g>
</svg>