<!--?xml version="1.0" standalone="no"?-->

<svg version="1.0" xmlns="http://www.w3.org/2000/svg" width="300.000000pt" height="258.000000pt" viewBox="0 0 300.000000 258.000000" preserveAspectRatio="xMidYMid meet">
<g transform="translate(0.000000,258.000000) scale(0.100000,-0.100000)" fill="#050505" stroke="none">
<path class="node" id="node1" d="M2041 2560 c-56 -20 -120 -60 -143 -88 -11 -13 -10 -15 4 -9 12 4 15
2 11 -9 -3 -7 -8 -14 -12 -14 -5 0 -27 -18 -49 -41 -42 -41 -52 -64 -30 -71 7
-3 1 -20 -19 -49 -65 -94 -80 -148 -28 -99 29 27 42 22 25 -9 -10 -20 -9 -21
12 -16 23 6 24 3 36 -75 26 -179 162 -310 340 -327 51 -5 62 -9 62 -24 0 -10
-6 -19 -14 -21 -8 -2 -60 -43 -115 -92 -90 -79 -99 -91 -87 -105 13 -14 5 -31
-69 -146 l-83 -130 -63 -8 c-35 -4 -65 -4 -66 0 -2 4 -16 31 -33 59 -72 127
-241 170 -373 97 -57 -32 -109 -99 -127 -161 -34 -125 27 -262 143 -325 55
-29 184 -31 236 -3 74 39 129 106 155 188 3 10 19 19 38 22 75 13 320 37 325
33 8 -8 -151 -238 -259 -374 -6 -8 5 -20 36 -38 25 -15 46 -30 46 -34 0 -4
-29 -36 -66 -71 -47 -48 -64 -70 -60 -85 2 -11 32 -90 66 -175 84 -211 81
-194 32 -185 -52 9 -143 -10 -177 -37 -20 -15 -25 -28 -23 -51 8 -87 224 -113
306 -37 25 23 29 62 8 79 -8 6 -26 51 -41 99 -15 48 -43 134 -61 191 l-34 105
48 54 c66 76 73 79 110 53 18 -11 46 -30 63 -42 17 -12 34 -17 39 -13 4 5 36
64 70 132 34 67 65 120 70 117 4 -3 11 -38 15 -77 11 -130 10 -128 61 -128 41
0 44 -2 39 -22 -9 -40 -25 -152 -25 -175 0 -25 5 -26 270 -94 91 -23 169 -45
174 -50 6 -5 0 -20 -15 -36 -39 -43 -58 -78 -65 -120 -5 -31 -2 -42 15 -57 43
-39 130 1 196 92 56 78 55 162 -3 162 -12 0 -111 23 -220 51 -108 28 -214 56
-234 61 -21 5 -38 15 -38 22 0 17 37 167 43 172 2 3 33 9 68 16 35 6 65 12 67
13 3 2 -37 249 -63 389 -8 44 -12 83 -9 88 4 5 28 8 55 7 27 -2 51 0 54 3 4 3
-22 55 -56 114 -108 188 -163 288 -203 372 -29 59 -46 82 -63 87 -16 4 -23 13
-23 28 0 19 11 29 52 48 71 33 144 109 181 187 26 55 30 76 30 146 -1 72 -8
109 -38 180 -7 16 -5 18 9 13 16 -6 17 -3 11 20 -3 16 -13 38 -21 50 -14 23
-15 40 -1 35 16 -5 6 16 -19 41 -14 15 -42 29 -60 33 -41 8 -52 20 -24 29 11
4 18 11 15 16 -9 14 -86 11 -141 -6 -41 -12 -51 -12 -64 -1 -20 19 -104 46
-138 46 -15 -1 -51 -10 -81 -20z m318 -583 c-13 -47 -42 -82 -72 -85 -28 -3
-107 32 -107 48 0 6 1 10 3 10 2 0 41 15 87 34 46 19 87 33 91 30 4 -2 3 -19
-2 -37z m-233 -551 c8 -20 -33 -152 -59 -192 -22 -33 -50 -44 -113 -44 l-33 0
87 125 c82 120 106 142 118 111z"></path>
<path class="node" id="node2" d="M188 1098 c-68 -62 -80 -157 -28 -213 19 -20 19 -21 -5 -70 -14 -28
-29 -85 -35 -130 -15 -110 -16 -113 -71 -166 -52 -51 -58 -72 -34 -119 9 -18
14 -51 13 -83 -3 -73 19 -107 64 -103 18 2 41 6 51 9 9 4 24 9 32 12 32 10 28
52 -9 101 -42 55 -43 64 -13 91 47 43 97 54 97 20 0 -7 12 -24 26 -38 15 -13
34 -42 44 -64 20 -46 49 -75 76 -77 21 -2 104 49 104 64 0 5 5 6 10 3 6 -3 10
-30 10 -58 0 -64 25 -117 65 -136 17 -8 36 -23 43 -33 11 -15 23 -18 69 -13
31 3 62 10 70 17 14 11 14 45 -1 78 -5 12 3 15 43 15 39 0 54 -5 71 -23 12
-13 29 -21 38 -18 9 3 34 8 55 12 62 11 74 66 21 100 -13 9 -24 20 -24 24 0 4
26 11 58 15 67 8 94 27 86 61 -4 17 -1 26 10 30 31 12 48 60 36 104 -12 46
-23 55 -50 40 -23 -12 -63 4 -95 40 -50 56 -142 74 -227 43 l-47 -17 -53 37
c-29 20 -71 62 -93 94 -53 76 -131 154 -177 176 -45 21 -123 22 -162 2 -36
-19 -46 -8 -46 49 0 30 7 45 34 72 21 21 44 34 60 34 32 0 26 22 -10 39 -41
18 -69 13 -106 -21z m222 -652 c0 -5 -7 -3 -15 4 -8 7 -12 17 -9 22 7 10 24
-9 24 -26z m288 -160 c8 -26 11 -51 7 -54 -13 -13 -45 40 -45 75 0 49 22 37
38 -21z"></path>


</g>
<g transform="translate(0.000000,258.000000) scale(0.100000,-0.100000)" fill="#A1A1A1" stroke="none">


<path class="node" id="node7" d="M2270 1984 c-46 -19 -85 -34 -87 -34 -2 0 -3 -4 -3 -10 0 -16 79 -51
107 -48 14 2 34 14 45 28 21 29 40 88 29 94 -4 3 -45 -11 -91 -30z"></path>


<path class="node" id="node10" d="M386 472 c-3 -5 1 -15 9 -22 16 -14 20 -3 6 19 -5 8 -11 9 -15 3z"></path>

</g>
</svg>