<!--?xml version="1.0" standalone="no"?--><svg version="1.0" xmlns="http://www.w3.org/2000/svg" width="300.000000pt" height="300.000000pt" viewBox="0 0 300.000000 300.000000" preserveAspectRatio="xMidYMid meet">
<metadata>
  <rdf:rdf xmlns:rdf="http://www.w3.org/1999/02/22-rdf-syntax-ns#" xmlns:rdfs="http://www.w3.org/2000/01/rdf-schema#" xmlns:dc="http://purl.org/dc/elements/1.1/">
    <rdf:description dc:title="bulldog horror head" dc:publisher="Hiox" dc:date="2015-06-09" dc:format="image/svg+xml" dc:language="en">
      <dc:creator>
        <rdf:bag>
          <rdf:li>svgimages.com</rdf:li>
        </rdf:bag>
      </dc:creator>
    </rdf:description>
  </rdf:rdf>
</metadata>
<g transform="translate(0.000000,300.000000) scale(0.100000,-0.100000)" fill="#121212" stroke="none">
<path d="M2180 2801 c-69 -15 -117 -49 -166 -117 -47 -65 -47 -66 -83 -57 -20
4 -102 8 -184 8 l-147 0 0 32 c0 70 -75 113 -198 113 -127 -1 -183 -39 -233
-159 -39 -93 -71 -144 -105 -168 -14 -10 -62 -47 -107 -82 -44 -35 -111 -79
-148 -99 -87 -45 -166 -113 -174 -151 -7 -31 21 -98 56 -137 19 -20 19 -21
-12 -43 -16 -12 -34 -33 -39 -47 -5 -13 -22 -29 -37 -35 -76 -30 -97 -42 -137
-79 -47 -44 -73 -88 -92 -160 l-12 -45 -12 30 c-6 17 -14 51 -17 78 -3 26 -9
47 -14 47 -16 0 -72 -93 -85 -144 -8 -28 -14 -75 -14 -105 l0 -54 -93 -96
c-103 -107 -134 -163 -124 -227 10 -59 50 -109 111 -139 54 -26 54 -27 71 -93
22 -91 62 -160 110 -194 85 -58 313 -114 510 -124 106 -6 117 -9 325 -85 118
-44 222 -83 230 -88 9 -5 22 -43 32 -91 10 -46 20 -85 22 -87 3 -3 42 21 88
53 l83 57 180 2 c106 0 205 6 241 14 l61 13 88 -46 c48 -25 89 -46 91 -46 2 0
4 47 4 105 l0 105 46 28 c125 73 208 135 297 224 98 96 99 97 175 114 42 10
81 21 87 26 5 5 -15 32 -50 68 l-59 60 23 77 c41 135 61 244 67 363 l6 115 75
76 75 77 -80 26 c-74 25 -80 29 -86 59 -10 50 -71 192 -121 281 l-46 81 20 60
c11 33 23 68 26 78 7 15 -1 17 -85 17 -96 0 -101 2 -130 52 -9 14 1 20 66 39
61 18 85 31 120 66 42 43 65 98 49 122 -3 6 -37 11 -74 11 -93 0 -171 39 -241
120 -80 92 -142 120 -230 101z m152 -68 c13 -12 34 -44 48 -70 33 -65 67 -111
89 -123 16 -8 18 -7 14 11 -5 19 -3 21 28 14 19 -5 61 -11 93 -14 106 -11 97
-68 -19 -123 -84 -39 -189 -43 -258 -9 -64 31 -121 92 -148 156 -12 30 -26 55
-31 55 -11 0 -10 -38 3 -61 8 -15 6 -25 -10 -46 -20 -24 -28 -53 -15 -53 3 0
14 10 25 23 l19 22 22 -30 c12 -16 36 -44 53 -62 31 -31 31 -33 28 -115 -5
-96 5 -122 36 -94 17 16 18 21 6 50 -25 60 -2 61 51 3 100 -110 211 -307 246
-439 14 -57 4 -110 -40 -197 -31 -63 -125 -167 -141 -157 -6 4 -12 24 -12 44
-1 20 -5 51 -9 67 -5 21 -8 3 -9 -60 -2 -100 -17 -225 -30 -238 -4 -4 -20 16
-36 45 -101 191 -210 329 -341 435 -97 78 -152 142 -203 235 -35 64 -38 84
-15 109 15 16 14 17 -5 12 -24 -6 -25 -3 -10 31 9 20 9 29 -2 42 -30 36 -154
3 -371 -99 -159 -75 -112 -24 56 62 138 70 256 110 336 114 37 2 46 -2 56 -21
l11 -23 27 31 c31 38 32 51 5 76 -15 14 -40 20 -92 22 -67 3 -78 0 -152 -36
-83 -40 -159 -86 -370 -222 -122 -79 -181 -105 -225 -98 -34 4 -38 44 -10 98
35 69 165 192 245 233 78 40 73 49 -8 15 -68 -29 -123 -64 -169 -107 -21 -19
-40 -32 -44 -29 -3 4 4 28 15 53 27 60 26 63 -3 28 -35 -43 -55 -87 -75 -166
l-17 -72 -50 -17 c-67 -22 -140 -22 -191 2 -57 26 -59 61 -5 114 46 47 167
115 207 117 17 1 22 3 12 6 -25 7 -21 23 16 55 173 151 416 244 695 263 98 7
292 -3 292 -14 0 -4 -16 -26 -36 -50 -20 -23 -34 -44 -31 -47 15 -15 53 15
109 88 85 110 139 169 163 179 11 5 50 8 87 6 53 -2 72 -7 90 -24z m-842 -15
c43 -22 82 -70 68 -83 -3 -4 -44 -15 -90 -25 -45 -10 -103 -26 -127 -34 -55
-20 -54 -20 -47 8 10 41 -10 38 -38 -5 -16 -23 -42 -47 -61 -55 -49 -20 -52
-18 -23 14 15 15 39 58 54 96 24 60 32 71 68 87 58 26 140 25 196 -3z m1145
-537 c-15 -38 -34 -72 -42 -75 -52 -20 -120 99 -78 134 18 15 126 29 139 19 4
-4 -4 -39 -19 -78z m-979 -47 c4 -15 3 -43 -2 -63 -9 -35 -11 -36 -49 -33 -22
2 -69 -6 -105 -17 -80 -25 -97 -27 -81 -7 10 11 10 20 1 36 -6 12 -10 23 -8
25 2 2 33 18 68 36 117 58 166 64 176 23z m-618 -176 c44 -31 53 -33 157 -38
l110 -5 -50 -18 c-27 -10 -90 -21 -140 -24 -83 -5 -94 -3 -138 21 -62 33 -122
34 -224 1 -42 -13 -80 -22 -83 -19 -7 8 57 64 73 64 6 0 34 11 61 25 39 19 65
25 118 25 62 0 74 -3 116 -32z m603 14 c30 -19 70 -65 88 -101 20 -38 71 -189
72 -213 0 -13 7 -41 15 -63 14 -40 14 -40 9 32 -3 39 -8 78 -11 87 -18 48 75
-24 145 -112 28 -35 51 -59 51 -55 0 18 -90 133 -154 197 -59 59 -84 106 -57
106 28 0 181 -118 276 -214 123 -123 167 -184 220 -304 51 -117 69 -193 69
-302 0 -78 -4 -105 -24 -150 -85 -196 -279 -370 -446 -401 -117 -22 -227 13
-269 83 -28 48 -45 127 -45 214 0 87 2 97 80 514 27 148 33 268 20 395 -6 61
-12 117 -12 125 -1 23 -18 30 -80 30 -125 0 -245 -66 -394 -217 -93 -94 -124
-111 -143 -75 -5 9 -14 43 -21 75 -7 31 -17 57 -21 57 -15 0 -79 -87 -100
-136 -12 -27 -27 -52 -33 -56 -6 -4 -34 -8 -62 -8 -62 0 -140 37 -173 81 l-23
31 -26 -31 c-20 -23 -44 -35 -94 -48 -64 -17 -69 -17 -85 0 -56 56 48 227 179
293 58 29 70 25 57 -19 -5 -17 -9 -48 -9 -68 l0 -37 79 47 c81 49 116 65 165
76 19 4 32 15 39 35 13 34 21 35 97 15 30 -8 70 -15 88 -15 39 0 41 -14 5 -34
-24 -13 -25 -15 -8 -16 24 0 121 45 195 91 62 39 88 52 175 85 72 28 131 30
166 6z m-342 -1 c24 -16 -7 -22 -71 -15 -45 5 -57 9 -43 15 27 10 97 11 114 0z
m1567 -272 c35 -11 64 -23 64 -27 0 -9 -102 -99 -139 -124 -35 -24 -48 -23
-75 7 -41 44 -42 114 -4 155 23 25 43 23 154 -11z m-2551 -66 c10 -61 46 -165
71 -209 13 -22 21 -44 17 -47 -15 -15 -82 -6 -114 16 -33 22 -34 26 -37 92 -2
52 2 83 19 127 12 32 25 58 30 58 4 0 11 -17 14 -37z m1225 17 c15 -15 20 -33
20 -78 0 -49 -5 -66 -36 -115 -19 -31 -39 -57 -44 -57 -4 0 -31 30 -59 66 -44
57 -51 73 -51 111 0 62 34 93 101 93 36 0 54 -5 69 -20z m-215 -55 c8 -26 10
-47 4 -65 -12 -32 -105 -104 -125 -96 -15 6 -54 64 -54 82 0 5 30 41 66 78 74
76 83 76 109 1z m333 -34 c3 -103 -5 -112 -45 -51 -30 43 -30 96 -1 127 12 13
27 22 32 20 7 -2 12 -43 14 -96z m-603 -129 c14 -30 24 -57 22 -59 -2 -2 -36
2 -75 9 -68 11 -72 14 -82 44 -17 50 8 126 59 187 14 17 17 13 33 -54 10 -40
29 -97 43 -127z m-361 57 c59 -34 62 -93 7 -101 -58 -9 -119 48 -107 98 8 31
51 32 100 3z m464 -52 c18 -29 32 -62 32 -74 0 -25 -25 -47 -44 -40 -26 10
-84 146 -68 161 3 3 15 6 27 6 14 0 30 -16 53 -53z m214 26 c42 -45 68 -95 68
-131 0 -42 -41 -86 -97 -102 -36 -11 -44 -10 -66 6 -37 27 -57 67 -57 110 0
33 8 46 52 91 29 29 57 53 63 53 6 0 23 -12 37 -27z m-838 -15 c-5 -18 -8 -48
-8 -65 1 -49 -31 -55 -68 -14 -50 56 -28 111 44 111 l40 0 -8 -32z m2006 1 c0
-48 -30 -140 -60 -184 -32 -46 -68 -81 -76 -73 -9 10 18 219 30 229 28 24 82
58 94 59 7 0 12 -13 12 -31z m-921 -10 c20 -26 23 -38 19 -94 -3 -55 -8 -69
-33 -95 -16 -16 -37 -32 -47 -36 -49 -15 -104 77 -77 128 21 39 93 128 104
127 5 0 21 -14 34 -30z m-731 -6 c4 -27 -14 -30 -40 -6 -26 23 -22 35 10 31
19 -2 28 -9 30 -25z m-260 -58 c-3 -3 -22 -9 -42 -12 l-36 -6 0 40 c0 22 3 43
7 47 4 4 23 -9 42 -28 19 -20 32 -38 29 -41z m176 60 c23 -17 21 -21 -17 -30
-24 -6 -27 -5 -27 19 0 29 15 33 44 11z m-531 -70 c20 -8 65 -15 101 -15 39 0
68 -5 72 -12 4 -6 3 -13 -2 -15 -33 -11 -139 -91 -155 -117 -26 -42 -24 -65 2
-32 28 35 96 81 157 105 132 52 432 86 556 62 83 -15 126 -39 241 -131 164
-132 242 -158 311 -105 18 14 35 25 38 25 2 0 -4 -30 -14 -67 -31 -114 -45
-286 -31 -384 7 -46 19 -95 26 -110 8 -15 11 -29 8 -33 -15 -14 -275 -5 -386
14 -194 33 -322 89 -414 181 -24 23 -43 37 -43 30 0 -26 33 -88 62 -118 18
-18 29 -35 26 -39 -9 -8 -123 43 -186 84 -28 19 -70 55 -93 80 -46 52 -102
155 -97 179 2 8 30 25 64 38 33 12 79 32 102 44 23 11 57 21 76 21 75 0 199
-36 286 -83 l35 -19 -40 37 c-22 20 -57 46 -77 58 -21 11 -38 24 -38 29 0 4
55 9 123 10 l122 3 -75 25 c-67 22 -91 25 -230 25 -153 -1 -156 -1 -260 -38
-189 -68 -232 -79 -315 -80 -93 -2 -135 15 -155 62 -26 63 23 176 111 255 28
25 52 46 54 46 1 0 19 -7 38 -15z m2442 -416 c36 -34 64 -67 62 -72 -4 -13
-42 -24 -131 -36 -91 -13 -116 -3 -116 44 0 65 47 125 97 125 14 0 48 -24 88
-61z m-2319 -71 c67 -110 148 -184 270 -248 l59 -31 -65 6 c-122 10 -306 75
-359 125 -29 28 -57 90 -66 148 l-7 42 34 1 c18 1 44 5 58 9 14 4 28 8 32 9 4
1 24 -27 44 -61z m1805 -367 c4 -3 10 -50 14 -103 5 -79 4 -98 -7 -98 -13 0
-120 62 -151 89 -25 20 -20 54 12 85 42 40 106 53 132 27z m-676 -55 c23 -10
41 -28 52 -51 20 -42 29 -29 -77 -115 -61 -50 -68 -53 -74 -33 -14 48 -26 146
-21 164 4 12 21 27 38 34 40 18 41 18 82 1z" id="node1" class="node"></path>
<path d="M915 1740 c-3 -6 1 -13 10 -16 19 -8 30 0 20 15 -8 14 -22 14 -30 1z" id="node2" class="node"></path>
<path d="M1180 1730 c0 -5 5 -10 10 -10 6 0 10 5 10 10 0 6 -4 10 -10 10 -5 0
-10 -4 -10 -10z" id="node3" class="node"></path>
<path d="M507 1684 c-8 -8 1 -24 14 -24 5 0 9 7 9 15 0 15 -12 20 -23 9z" id="node4" class="node"></path>
<path d="M1100 1674 c0 -17 22 -14 28 4 2 7 -3 12 -12 12 -9 0 -16 -7 -16 -16z" id="node5" class="node"></path>
<path d="M817 1673 c-4 -3 -7 -15 -7 -25 0 -13 7 -18 25 -18 27 0 33 18 13 38
-14 14 -22 15 -31 5z" id="node6" class="node"></path>
<path d="M490 1600 c0 -5 5 -10 10 -10 6 0 10 5 10 10 0 6 -4 10 -10 10 -5 0
-10 -4 -10 -10z" id="node7" class="node"></path>
</g>
<g transform="translate(0.000000,300.000000) scale(0.100000,-0.100000)" fill="#A1A1A1" stroke="none">

<path d="M2155 2751 c-24 -10 -78 -69 -163 -179 -56 -73 -94 -103 -109 -88 -3
3 11 24 31 47 20 24 36 46 36 50 0 11 -194 21 -292 14 -279 -19 -522 -112
-695 -263 -37 -32 -41 -48 -16 -55 10 -3 5 -5 -12 -6 -40 -2 -161 -70 -207
-117 -54 -53 -52 -88 5 -114 51 -24 124 -24 191 -2 l50 17 17 72 c20 79 40
123 75 166 29 35 30 32 3 -28 -11 -25 -18 -49 -15 -53 4 -3 23 10 44 29 46 43
101 78 169 107 81 34 86 25 8 -15 -80 -41 -210 -164 -245 -233 -28 -54 -24
-94 10 -98 44 -7 103 19 225 98 211 136 287 182 370 222 74 36 85 39 152 36
52 -2 77 -8 92 -22 27 -25 26 -38 -5 -76 l-27 -31 -11 23 c-10 19 -19 23 -56
21 -80 -4 -198 -44 -336 -114 -168 -86 -215 -137 -56 -62 217 102 341 135 371
99 11 -13 11 -22 2 -42 -15 -34 -14 -37 10 -31 19 5 20 4 5 -12 -23 -25 -20
-45 15 -109 51 -93 106 -157 203 -235 131 -106 240 -244 341 -435 16 -29 32
-49 36 -45 13 13 28 138 30 238 1 63 4 81 9 60 4 -16 8 -47 9 -67 0 -20 6 -40
12 -44 16 -10 110 94 141 157 44 87 54 140 40 197 -35 132 -146 329 -246 439
-53 58 -76 57 -51 -3 12 -29 11 -34 -6 -50 -31 -28 -41 -2 -36 94 3 82 3 84
-28 115 -17 18 -41 46 -53 62 l-22 30 -19 -22 c-11 -13 -22 -23 -25 -23 -13 0
-5 29 15 53 16 21 18 31 10 46 -13 23 -14 61 -3 61 5 0 19 -25 31 -55 27 -64
84 -125 148 -156 69 -34 174 -30 258 9 116 55 125 112 19 123 -32 3 -74 9 -93
14 -31 7 -33 5 -28 -14 4 -18 2 -19 -14 -11 -22 12 -56 58 -89 123 -40 77 -60
91 -138 94 -37 2 -76 -1 -87 -6z" id="node9" class="node"></path>
<path d="M1294 2721 c-36 -16 -44 -27 -68 -87 -15 -38 -39 -81 -54 -96 -29
-32 -26 -34 23 -14 19 8 45 32 61 55 28 43 48 46 38 5 -7 -28 -8 -28 47 -8 24
8 82 24 127 34 46 10 87 21 90 25 14 13 -25 61 -68 83 -56 28 -138 29 -196 3z" id="node10" class="node"></path>
<path d="M2588 2259 c-66 -7 -88 -21 -88 -56 0 -47 60 -110 93 -97 18 7 72
143 61 153 -5 4 -35 4 -66 0z" id="node11" class="node"></path>
<path d="M1570 2151 c-23 -7 -150 -68 -158 -76 -2 -2 2 -13 8 -25 9 -16 9 -25
-1 -36 -16 -20 1 -18 81 7 36 11 83 19 105 17 38 -3 40 -2 49 33 14 56 2 89
-32 88 -15 0 -38 -4 -52 -8z" id="node12" class="node"></path>
<path d="M804 1965 c-27 -14 -55 -25 -61 -25 -16 0 -80 -56 -73 -64 3 -3 41 6
83 19 102 33 162 32 224 -1 44 -24 55 -26 138 -21 50 3 113 14 140 24 l50 18
-110 5 c-104 5 -113 7 -157 38 -42 29 -54 32 -116 32 -53 0 -79 -6 -118 -25z" id="node13" class="node"></path>
<path d="M1475 1966 c-87 -33 -113 -46 -175 -85 -74 -46 -171 -91 -195 -91
-17 1 -16 3 8 16 36 20 34 34 -5 34 -18 0 -58 7 -88 15 -76 20 -84 19 -97 -15
-7 -20 -20 -31 -39 -35 -49 -11 -84 -27 -165 -76 l-79 -47 0 37 c0 20 4 51 9
68 13 44 1 48 -57 19 -131 -66 -235 -237 -179 -293 16 -17 21 -17 85 0 50 13
74 25 94 48 l26 31 23 -31 c33 -44 111 -81 173 -81 28 0 56 4 62 8 6 4 21 29
33 56 21 49 85 136 100 136 4 0 14 -26 21 -57 7 -32 16 -66 21 -75 19 -36 50
-19 143 75 149 151 269 217 394 217 62 0 79 -7 80 -30 0 -8 6 -64 12 -125 13
-127 7 -247 -20 -395 -78 -417 -80 -427 -80 -514 0 -87 17 -166 45 -214 42
-70 152 -105 269 -83 167 31 361 205 446 401 20 45 24 72 24 150 0 109 -18
185 -69 302 -53 120 -97 181 -220 304 -95 96 -248 214 -276 214 -27 0 -2 -47
57 -106 64 -64 154 -179 154 -197 0 -4 -23 20 -51 55 -70 88 -163 160 -145
112 3 -9 8 -48 11 -87 5 -72 5 -72 -9 -32 -8 22 -15 50 -15 63 -1 24 -52 175
-72 213 -18 36 -58 82 -88 101 -35 24 -94 22 -166 -6z m-530 -227 c10 -15 -1
-23 -20 -15 -9 3 -13 10 -10 16 8 13 22 13 30 -1z m255 -9 c0 -5 -4 -10 -10
-10 -5 0 -10 5 -10 10 0 6 5 10 10 10 6 0 10 -4 10 -10z m-670 -55 c0 -8 -4
-15 -9 -15 -13 0 -22 16 -14 24 11 11 23 6 23 -9z m598 3 c-6 -18 -28 -21 -28
-4 0 9 7 16 16 16 9 0 14 -5 12 -12z m-280 -10 c20 -20 14 -38 -13 -38 -18 0
-25 5 -25 18 0 32 17 41 38 20z m-338 -68 c0 -5 -4 -10 -10 -10 -5 0 -10 5
-10 10 0 6 5 10 10 10 6 0 10 -4 10 -10z" id="node14" class="node"></path>
<path d="M1185 1971 c-14 -6 -2 -10 43 -15 64 -7 95 -1 71 15 -17 11 -87 10
-114 0z" id="node15" class="node"></path>
<path d="M2712 1710 c-38 -41 -37 -111 4 -155 27 -30 40 -31 75 -7 37 25 139
115 139 124 0 8 -107 43 -163 53 -28 6 -38 3 -55 -15z" id="node16" class="node"></path>
<path d="M271 1612 c-17 -44 -21 -75 -19 -127 3 -66 4 -70 37 -92 32 -22 99
-31 114 -16 4 3 -4 25 -17 47 -25 44 -61 148 -71 209 -3 20 -10 37 -14 37 -5
0 -18 -26 -30 -58z" id="node17" class="node"></path>
<path d="M1396 1645 c-20 -19 -26 -33 -26 -68 0 -38 7 -54 51 -111 28 -36 55
-66 59 -66 5 0 25 26 44 57 31 49 36 66 36 115 0 76 -20 98 -89 98 -37 0 -54
-5 -75 -25z" id="node18" class="node"></path>
<path d="M1216 1594 c-36 -37 -66 -73 -66 -78 0 -18 39 -76 54 -82 20 -8 113
64 125 96 10 29 -7 93 -32 118 -13 12 -23 6 -81 -54z" id="node19" class="node"></path>
<path d="M1612 1637 c-29 -31 -29 -84 1 -127 40 -61 48 -52 45 51 -2 53 -7 94
-14 96 -5 2 -20 -7 -32 -20z" id="node20" class="node"></path>
<path d="M979 1613 c-51 -61 -76 -137 -59 -187 10 -30 14 -33 82 -44 39 -7 73
-11 75 -9 2 2 -8 29 -22 59 -14 30 -33 87 -43 127 -16 67 -19 71 -33 54z" id="node21" class="node"></path>
<path d="M594 1486 c-12 -50 49 -107 107 -98 83 12 19 122 -71 122 -23 0 -31
-6 -36 -24z" id="node22" class="node"></path>
<path d="M1078 1484 c-16 -15 42 -151 68 -161 19 -7 44 15 44 40 0 36 -61 127
-85 127 -12 0 -24 -3 -27 -6z" id="node23" class="node"></path>
<path d="M1272 1437 c-44 -45 -52 -58 -52 -91 0 -43 20 -83 57 -110 22 -16 30
-17 66 -6 88 26 120 97 76 170 -26 44 -69 90 -84 90 -6 0 -34 -24 -63 -53z" id="node24" class="node"></path>
<path d="M447 1462 c-25 -27 -21 -57 11 -93 37 -41 69 -35 68 14 0 17 3 47 8
65 l8 32 -40 0 c-25 0 -45 -6 -55 -18z" id="node25" class="node"></path>
<path d="M2480 1455 c-19 -13 -40 -28 -46 -34 -12 -10 -39 -219 -30 -229 8 -8
44 27 76 73 46 67 79 216 48 215 -7 -1 -29 -12 -48 -25z" id="node26" class="node"></path>
<path d="M1534 1418 c-62 -80 -66 -92 -54 -138 12 -44 48 -75 78 -66 10 4 31
20 47 36 25 26 30 40 33 95 4 56 1 68 -19 94 -13 16 -29 30 -34 30 -6 1 -29
-23 -51 -51z" id="node27" class="node"></path>
<path d="M830 1452 c0 -13 34 -42 49 -42 7 0 11 10 9 23 -2 16 -11 23 -30 25
-16 2 -28 -1 -28 -6z" id="node28" class="node"></path>
<path d="M557 1444 c-4 -4 -7 -25 -7 -47 l0 -40 36 6 c20 3 39 9 42 12 3 3
-10 21 -29 41 -19 19 -38 32 -42 28z" id="node29" class="node"></path>
<path d="M760 1424 c0 -24 3 -25 27 -19 38 9 40 13 17 30 -29 22 -44 18 -44
-11z" id="node30" class="node"></path>
<path d="M181 1334 c-88 -79 -137 -192 -111 -255 20 -47 62 -64 155 -62 83 1
126 12 315 80 104 37 107 37 260 38 139 0 163 -3 230 -25 l75 -25 -122 -3
c-68 -1 -123 -6 -123 -10 0 -5 17 -18 38 -29 20 -12 55 -38 77 -58 l40 -37
-35 19 c-87 47 -211 83 -286 83 -19 0 -53 -10 -76 -21 -23 -12 -69 -32 -102
-44 -34 -13 -62 -30 -64 -38 -5 -24 51 -127 97 -179 23 -25 65 -61 93 -80 63
-41 177 -92 186 -84 3 4 -8 21 -26 39 -29 30 -62 92 -62 118 0 7 19 -7 43 -30
92 -92 220 -148 414 -181 111 -19 371 -28 386 -14 3 4 0 18 -8 33 -7 15 -19
64 -26 110 -14 98 0 270 31 384 10 37 16 67 14 67 -3 0 -20 -11 -38 -25 -69
-53 -147 -27 -311 105 -115 92 -158 116 -241 131 -124 24 -424 -10 -556 -62
-61 -24 -129 -70 -157 -105 -26 -33 -28 -10 -2 32 16 26 122 106 155 117 5 2
6 9 2 15 -4 7 -33 12 -72 12 -36 0 -81 7 -101 15 -19 8 -37 15 -38 15 -2 0
-26 -21 -54 -46z" id="node31" class="node"></path>
<path d="M2582 994 c-30 -21 -52 -66 -52 -109 0 -47 25 -57 116 -44 89 12 127
23 131 36 2 5 -26 38 -62 72 -69 64 -94 73 -133 45z" id="node32" class="node"></path>
<path d="M320 930 c-14 -4 -40 -8 -58 -9 l-34 -1 7 -42 c9 -58 37 -120 66
-148 53 -50 237 -115 359 -125 l65 -6 -59 31 c-122 64 -203 138 -270 248 -20
34 -40 62 -44 61 -4 -1 -18 -5 -32 -9z" id="node33" class="node"></path>
<path d="M2126 520 c-39 -12 -86 -59 -86 -86 0 -25 11 -36 94 -86 89 -55 89
-55 81 60 -4 53 -10 100 -14 103 -12 13 -47 17 -75 9z" id="node34" class="node"></path>
<path d="M1443 455 c-17 -7 -34 -22 -38 -34 -5 -18 7 -116 21 -164 6 -20 13
-17 74 33 106 86 97 73 77 115 -11 23 -29 41 -52 51 -41 17 -42 17 -82 -1z" id="node35" class="node"></path>
</g>
</svg>