<!--?xml version="1.0" standalone="no"?--><svg version="1.0" xmlns="http://www.w3.org/2000/svg" width="300.000000pt" height="291.000000pt" viewBox="0 0 300.000000 291.000000" preserveAspectRatio="xMidYMid meet">
<metadata>
  <rdf:rdf xmlns:rdf="http://www.w3.org/1999/02/22-rdf-syntax-ns#" xmlns:rdfs="http://www.w3.org/2000/01/rdf-schema#" xmlns:dc="http://purl.org/dc/elements/1.1/">
    <rdf:description dc:title="meta-title" dc:publisher="Hiox" dc:date="2015-06-09" dc:format="image/svg+xml" dc:language="en">
      <dc:creator>
        <rdf:bag>
          <rdf:li>svgimages.com</rdf:li>
        </rdf:bag>
      </dc:creator>
    </rdf:description>
  </rdf:rdf>
</metadata>
<g transform="translate(0.000000,291.000000) scale(0.100000,-0.100000)" fill="#0C0C0C" stroke="none">
<path d="M1195 2898 c-16 -6 -42 -22 -57 -35 -15 -15 -47 -29 -74 -34 -77 -15
-130 -52 -158 -112 -40 -84 -66 -173 -66 -222 0 -41 -2 -45 -24 -45 -13 0 -29
-7 -36 -15 -20 -24 -37 -19 -163 45 -94 48 -117 56 -117 42 1 -9 18 -68 40
-131 l39 -114 -47 -56 c-60 -71 -59 -70 -136 -176 -93 -130 -79 -121 -195
-128 -56 -3 -106 -9 -112 -13 -7 -4 25 -43 76 -94 84 -85 88 -90 77 -117 -12
-31 -27 -104 -37 -173 -4 -25 -6 -122 -6 -216 l1 -170 -37 -18 c-21 -10 -67
-33 -101 -53 -74 -40 -72 -43 38 -82 132 -47 160 -62 166 -90 45 -198 100
-309 217 -439 86 -94 83 -81 43 -161 -20 -39 -36 -73 -36 -76 0 -11 49 -3 146
24 l101 27 59 -28 c126 -62 264 -105 400 -123 l118 -17 38 -43 c21 -24 48 -47
59 -50 25 -8 63 24 89 76 18 34 23 37 77 43 58 6 82 13 228 61 122 41 115 41
214 -10 49 -26 94 -44 99 -41 7 4 0 134 -10 193 -6 34 80 63 236 77 83 9 160
22 188 33 67 26 174 106 201 150 48 79 73 224 47 273 -15 29 -2 50 32 50 41 0
85 23 135 70 47 44 57 70 50 132 -9 88 -39 150 -99 209 -55 54 -56 55 -40 81
14 23 14 31 2 69 -16 47 -61 98 -102 116 -23 10 -27 9 -32 -10 -4 -18 -9 -14
-31 28 -26 52 -107 135 -130 135 -7 0 -23 20 -35 45 -12 24 -37 58 -55 74 -34
30 -34 30 -28 98 6 62 10 72 50 117 58 65 76 109 69 165 -7 55 -34 85 -94 105
-57 20 -102 20 -172 1 l-55 -15 -30 34 c-37 43 -94 82 -154 106 -40 15 -46 22
-46 46 0 24 5 29 38 36 83 17 148 70 200 165 14 26 24 73 14 73 -1 0 -20 -9
-42 -20 -60 -31 -195 -28 -289 6 -97 35 -120 29 -193 -49 -32 -35 -72 -84 -88
-110 -28 -44 -33 -47 -71 -47 -23 0 -55 -3 -71 -6 -26 -5 -31 -2 -55 43 -14
26 -33 80 -42 119 -24 100 -45 129 -112 159 -62 28 -66 28 -109 13z m88 -60
c14 -14 36 -62 56 -123 43 -130 65 -177 102 -219 l30 -35 -30 -15 c-43 -22
-121 -20 -198 7 -56 19 -73 31 -122 87 -31 36 -65 77 -74 93 -59 93 -38 -67
25 -191 12 -24 39 -58 60 -77 35 -32 43 -35 101 -35 63 0 181 32 255 68 69 34
186 55 265 47 150 -14 289 -57 351 -109 25 -21 28 -27 17 -40 -16 -19 -9 -20
60 -5 38 8 72 8 133 -1 106 -15 128 -25 150 -62 16 -27 17 -35 5 -70 l-13 -40
-12 41 c-12 42 -30 71 -44 71 -12 0 -101 -96 -132 -141 l-27 -40 -21 49 c-12
28 -33 60 -46 73 -22 21 -24 21 -24 3 1 -10 7 -30 15 -44 17 -30 19 -109 3
-161 -17 -59 -34 -49 -41 24 -6 62 -34 141 -65 180 -52 64 -80 90 -91 83 -8
-5 -4 -16 14 -38 50 -59 58 -87 63 -214 3 -81 1 -128 -7 -142 -16 -31 -35 -28
-27 4 17 67 -64 225 -156 305 -61 52 -78 63 -139 83 -71 23 -116 28 -158 16
-79 -21 -65 -43 54 -85 44 -15 100 -38 125 -51 50 -25 127 -99 112 -107 -5 -4
-22 8 -38 25 -41 43 -97 64 -210 79 -55 6 -119 20 -143 31 -24 10 -47 16 -50
12 -9 -9 58 -62 121 -94 56 -29 57 -30 46 -60 -15 -45 5 -146 40 -195 22 -32
38 -43 80 -54 29 -8 52 -18 52 -22 0 -5 -44 -9 -98 -9 -59 0 -119 -6 -148 -15
-49 -15 -94 -20 -94 -10 0 12 54 112 77 143 14 18 23 35 21 38 -3 2 -23 -9
-45 -25 -49 -35 -133 -145 -133 -174 0 -14 -13 -30 -33 -43 -294 -194 -320
-213 -392 -296 -28 -32 -53 -57 -56 -58 -3 0 -11 41 -17 91 -10 82 -23 119
-41 119 -3 0 -7 -62 -9 -138 -2 -117 -5 -144 -24 -184 -13 -27 -26 -48 -30
-48 -12 0 -65 123 -77 178 -24 114 -10 333 28 457 36 116 133 270 264 417 24
27 24 29 10 80 -30 105 -44 203 -38 257 11 106 100 240 173 261 30 8 36 5 71
-29 22 -21 46 -52 55 -70 9 -17 21 -31 28 -31 14 0 3 53 -22 105 -20 42 -25
76 -13 88 14 14 53 6 76 -15z m683 -139 c37 -17 85 -34 106 -37 28 -3 36 -8
28 -16 -17 -17 -91 -36 -146 -36 -55 0 -100 -18 -129 -50 -19 -21 -79 -28 -90
-10 -12 20 18 85 63 132 54 58 74 60 168 17z m-6 -141 c0 -27 -18 -39 -51 -36
l-34 3 25 23 c26 24 60 30 60 10z m-1362 -102 c21 -13 72 -41 112 -61 85 -43
99 -57 100 -101 0 -22 -10 -40 -35 -64 -29 -28 -42 -34 -82 -34 -48 -1 -48 -1
-64 44 -9 25 -19 52 -22 60 -3 8 -17 44 -31 80 -13 36 -27 73 -31 83 -10 24 8
22 53 -7z m338 -198 c4 -7 -7 -24 -28 -42 -33 -29 -119 -140 -180 -231 -41
-61 -84 -172 -118 -302 -40 -151 -12 -420 59 -562 47 -96 39 -179 -9 -91 -29
53 -80 169 -80 183 0 6 -8 32 -17 57 -19 53 -22 306 -5 380 24 101 40 157 50
175 5 11 20 45 32 75 29 75 121 210 204 297 71 75 80 81 92 61z m1465 -138
c27 -15 24 -27 -12 -35 -38 -9 -44 -3 -27 24 15 24 14 24 39 11z m-701 -75 c0
-3 -9 -14 -20 -25 -11 -11 -20 -29 -20 -40 0 -11 -4 -20 -10 -20 -5 0 -10 7
-10 15 0 26 30 75 45 75 8 0 15 -2 15 -5z m690 -30 c13 -16 6 -47 -16 -66 -19
-16 -30 -4 -37 44 -5 34 -4 37 17 37 13 0 29 -7 36 -15z m-547 -103 c9 -45
-25 -72 -89 -72 -59 0 -77 14 -45 36 12 8 21 24 21 35 0 12 10 23 25 29 14 5
28 17 32 25 5 14 9 13 28 -5 13 -12 25 -34 28 -48z m106 -61 c13 -39 13 -38
-12 -43 -16 -3 -19 5 -20 49 -3 58 11 56 32 -6z m-1462 19 c29 -56 8 -152 -40
-183 -56 -37 -83 -25 -199 87 -60 56 -108 106 -108 109 0 5 247 14 320 12 8 0
20 -11 27 -25z m1938 -20 c31 -19 51 -47 41 -57 -2 -2 -23 5 -47 17 -34 18
-55 21 -111 18 -76 -4 -87 9 -22 29 59 17 103 15 139 -7z m-715 -130 c0 -5
-33 -28 -72 -51 -253 -146 -300 -192 -402 -393 -48 -94 -67 -142 -64 -162 3
-29 4 -28 27 16 66 125 201 283 301 353 25 17 54 40 65 50 11 11 36 30 55 42
19 13 60 42 90 64 62 46 127 81 148 81 8 0 -18 -30 -59 -67 -110 -103 -121
-114 -165 -178 -60 -88 -127 -256 -108 -274 4 -3 8 -1 10 4 26 70 245 309 356
388 34 25 112 67 171 93 106 46 110 47 155 36 45 -12 83 -42 81 -66 0 -6 -27
-33 -60 -60 -56 -45 -240 -274 -283 -351 -9 -17 -20 -37 -25 -45 -28 -45 -141
-250 -141 -255 0 -3 -21 -40 -47 -83 -53 -88 -168 -229 -217 -267 -96 -73
-235 -112 -372 -103 -177 12 -300 141 -331 348 -23 154 7 250 129 416 95 129
160 187 323 289 17 11 80 44 140 74 182 90 295 129 295 101z m885 -25 c35 -29
30 -39 -13 -23 -20 8 -32 19 -32 30 0 24 9 22 45 -7z m42 -87 c55 -57 66 -113
36 -179 -20 -43 -37 -48 -67 -21 -30 27 -100 52 -146 52 l-40 0 0 45 c0 25 5
45 10 45 6 0 10 -7 10 -15 0 -8 9 -15 20 -15 23 0 80 82 80 116 0 11 3 23 6
27 10 10 56 -18 91 -55z m-263 -47 c13 -21 -16 -110 -48 -147 -28 -33 -34 -36
-54 -25 -12 6 -26 20 -32 30 -8 16 -2 25 35 55 24 20 52 50 62 66 18 31 28 36
37 21z m432 -53 c16 -32 19 -111 4 -138 -18 -33 -47 -43 -86 -30 -50 17 -57
44 -24 97 15 23 33 63 40 88 12 44 13 45 32 28 11 -10 26 -30 34 -45z m-601
-118 c9 -27 56 -50 104 -50 31 0 44 6 60 26 22 28 81 41 116 26 11 -5 42 -15
70 -21 57 -14 124 -64 169 -128 16 -24 36 -43 44 -43 12 0 12 4 -2 23 -16 22
-56 93 -56 100 0 1 15 1 34 -1 20 -2 44 2 58 12 23 15 26 15 45 -6 61 -67 85
-163 58 -233 -14 -39 -22 -46 -58 -56 -70 -19 -120 -4 -185 53 -61 54 -148
116 -197 140 -76 38 -188 28 -299 -27 -67 -33 -174 -121 -162 -133 3 -2 54 17
113 44 101 46 113 49 188 49 58 0 91 -6 120 -20 50 -24 115 -75 115 -89 -1 -6
-27 -24 -59 -40 -71 -35 -108 -62 -98 -72 4 -4 36 -2 71 4 35 7 89 12 121 12
l57 0 -7 -27 c-3 -16 -12 -35 -20 -43 -7 -8 -20 -29 -29 -47 -9 -18 -47 -64
-86 -103 -56 -57 -87 -79 -156 -111 -48 -22 -89 -37 -92 -34 -3 3 2 21 11 40
9 20 17 40 17 45 0 16 -62 -22 -185 -114 -87 -65 -177 -116 -204 -116 -9 0
-21 -4 -27 -9 -15 -14 -96 -30 -185 -37 -90 -7 -229 17 -229 40 0 6 35 36 76
66 75 54 173 154 218 221 12 19 47 76 77 127 30 51 59 100 64 110 6 9 30 51
54 92 87 149 238 350 261 350 5 0 12 -9 15 -20z m-1787 -253 c46 -49 50 -134
9 -189 -28 -37 -47 -42 -98 -23 -62 23 -178 64 -217 77 -17 6 -32 14 -32 17 0
3 39 24 87 46 48 22 112 52 143 67 69 33 81 34 108 5z m2281 -238 c6 -18 11
-62 11 -99 0 -70 -26 -137 -71 -186 -44 -47 -252 -124 -335 -124 -23 0 -17 6
38 34 166 85 253 184 314 359 9 26 20 47 24 47 5 0 13 -14 19 -31z m-1918
-408 c41 -34 69 -103 52 -129 -5 -10 -45 -30 -89 -46 -43 -16 -103 -38 -131
-49 -29 -11 -55 -18 -57 -16 -9 9 119 258 134 262 36 11 58 5 91 -22z m1274
-116 c7 -22 18 -70 24 -107 6 -37 14 -75 17 -83 8 -21 -18 -19 -47 4 -13 10
-53 34 -87 52 l-64 33 7 41 c9 58 58 107 103 103 30 -3 36 -8 47 -43z m-620
14 c5 -5 -20 -9 -63 -9 -66 0 -91 10 -59 24 17 7 110 -4 122 -15z m73 -103
c18 -9 32 -22 32 -30 0 -25 -99 -216 -112 -216 -33 0 -117 177 -103 219 3 10
26 28 52 39 49 21 71 19 131 -12z" id="node1" class="node"></path>
<path d="M2062 1648 c6 -18 28 -21 28 -4 0 9 -7 16 -16 16 -9 0 -14 -5 -12
-12z" id="node2" class="node"></path>
<path d="M2123 1633 c-21 -7 -15 -33 7 -33 11 0 20 6 20 14 0 18 -11 25 -27
19z" id="node3" class="node"></path>
<path d="M2004 1606 c-22 -17 -11 -35 13 -20 19 12 29 34 16 34 -5 0 -18 -6
-29 -14z" id="node4" class="node"></path>
<path d="M1925 1589 c-10 -15 1 -23 20 -15 9 3 13 10 10 16 -8 13 -22 13 -30
-1z" id="node5" class="node"></path>
<path d="M2005 1530 c-3 -5 3 -10 14 -10 12 0 21 5 21 10 0 6 -6 10 -14 10 -8
0 -18 -4 -21 -10z" id="node6" class="node"></path>
<path d="M1920 1505 c-18 -21 -3 -32 16 -13 10 9 12 18 6 22 -5 3 -15 -1 -22
-9z" id="node7" class="node"></path>
<path d="M2577 1593 c-12 -11 -8 -23 8 -23 8 0 15 7 15 15 0 16 -12 20 -23 8z" id="node8" class="node"></path>
<path d="M2587 1523 c-4 -3 -7 -12 -7 -20 0 -15 26 -18 34 -4 7 11 -18 33 -27
24z" id="node9" class="node"></path>
<path d="M2645 1510 c3 -5 11 -10 16 -10 6 0 7 5 4 10 -3 6 -11 10 -16 10 -6
0 -7 -4 -4 -10z" id="node10" class="node"></path>
</g>
<g transform="translate(0.000000,291.000000) scale(0.100000,-0.100000)" fill="#A0A0A0" stroke="none">


<path d="M1207 2853 c-12 -12 -7 -46 13 -88 25 -52 36 -105 22 -105 -7 0 -19
14 -28 31 -9 18 -33 49 -55 70 -35 34 -41 37 -71 29 -73 -21 -162 -155 -173
-261 -6 -54 8 -152 38 -257 14 -51 14 -53 -10 -80 -131 -147 -228 -301 -264
-417 -38 -124 -52 -343 -28 -457 12 -55 65 -178 77 -178 4 0 17 21 30 48 19
40 22 67 24 184 2 76 6 138 9 138 18 0 31 -37 41 -119 6 -50 14 -91 17 -91 3
1 28 26 56 58 72 83 98 102 392 296 20 13 33 29 33 43 0 29 84 139 133 174 22
16 42 27 45 25 2 -3 -7 -20 -21 -38 -23 -31 -77 -131 -77 -143 0 -10 45 -5 94
10 29 9 89 15 148 15 54 0 98 4 98 9 0 4 -23 14 -52 22 -42 11 -58 22 -80 54
-35 49 -55 150 -40 195 11 30 10 31 -46 60 -63 32 -130 85 -121 94 3 4 26 -2
50 -12 24 -11 88 -25 143 -31 113 -15 169 -36 210 -79 16 -17 33 -29 38 -25
15 8 -62 82 -112 107 -25 13 -81 36 -125 51 -119 42 -133 64 -54 85 42 12 87
7 158 -16 61 -20 78 -31 139 -83 92 -80 173 -238 156 -305 -8 -32 11 -35 27
-4 8 14 10 61 7 142 -5 127 -13 155 -63 214 -18 22 -22 33 -14 38 11 7 39 -19
91 -83 31 -39 59 -118 65 -180 7 -73 24 -83 41 -24 16 52 14 131 -3 161 -8 14
-14 34 -15 44 0 18 2 18 24 -3 13 -13 34 -45 46 -73 l21 -49 27 40 c31 45 120
141 132 141 14 0 32 -29 44 -71 l12 -41 13 40 c12 35 11 43 -5 70 -22 37 -44
47 -150 62 -61 9 -95 9 -133 1 -69 -15 -76 -14 -60 5 11 13 8 19 -17 40 -62
52 -201 95 -351 109 -79 8 -196 -13 -265 -47 -74 -36 -192 -68 -255 -68 -58 0
-66 3 -101 35 -56 50 -106 158 -118 252 -6 50 7 56 33 16 9 -16 43 -57 74 -93
49 -56 66 -68 122 -87 77 -27 155 -29 198 -7 l30 15 -30 35 c-37 42 -59 89
-102 219 -20 61 -42 109 -56 123 -23 21 -62 29 -76 15z" id="node13" class="node"></path>
<path d="M1798 2682 c-45 -47 -75 -112 -63 -132 11 -18 71 -11 90 10 29 32 74
50 129 50 55 0 129 19 146 36 8 8 0 13 -28 16 -21 3 -69 20 -106 37 -94 43
-114 41 -168 -17z" id="node14" class="node"></path>
<path d="M1900 2548 l-25 -23 34 -3 c33 -3 51 9 51 36 0 20 -34 14 -60 -10z" id="node15" class="node"></path>
<path d="M545 2463 c4 -10 18 -47 31 -83 14 -36 28 -72 31 -80 3 -8 13 -35 22
-60 16 -45 16 -45 64 -44 40 0 53 6 82 34 25 24 35 42 35 64 -1 44 -15 58
-100 101 -40 20 -91 48 -112 61 -45 29 -63 31 -53 7z" id="node16" class="node"></path>
<path d="M844 2197 c-83 -87 -175 -222 -204 -297 -12 -30 -27 -64 -32 -75 -10
-18 -26 -74 -50 -175 -17 -74 -14 -327 5 -380 9 -25 17 -51 17 -57 0 -14 51
-130 80 -183 48 -88 56 -5 9 91 -43 86 -71 220 -76 362 -6 143 16 239 94 427
27 65 166 257 221 306 21 18 32 35 28 42 -12 20 -21 14 -92 -61z" id="node17" class="node"></path>
<path d="M2362 2109 c-17 -27 -11 -33 27 -24 36 8 39 20 12 35 -25 13 -24 13
-39 -11z" id="node18" class="node"></path>
<path d="M1655 2020 c-17 -33 -20 -60 -5 -60 6 0 10 9 10 20 0 11 9 29 20 40
24 24 25 30 5 30 -8 0 -21 -13 -30 -30z" id="node19" class="node"></path>
<path d="M2337 1993 c7 -48 18 -60 37 -44 38 32 26 81 -20 81 -21 0 -22 -3
-17 -37z" id="node20" class="node"></path>
<path d="M1787 1965 c-4 -8 -18 -20 -32 -25 -15 -6 -25 -17 -25 -29 0 -11 -9
-27 -21 -35 -32 -22 -14 -36 45 -36 42 0 57 5 73 23 26 27 21 66 -12 97 -19
18 -23 19 -28 5z" id="node21" class="node"></path>
<path d="M1917 1857 c1 -44 4 -52 20 -49 25 5 25 4 12 43 -21 62 -35 64 -32 6z" id="node22" class="node"></path>
<path d="M293 1893 c-84 -2 -153 -6 -153 -10 0 -3 48 -53 108 -109 90 -87 112
-103 140 -104 65 0 112 57 112 137 0 45 -20 88 -40 88 -8 1 -84 -1 -167 -2z" id="node23" class="node"></path>
<path d="M2286 1857 c-65 -20 -54 -33 22 -29 56 3 77 0 111 -18 24 -12 45 -19
47 -17 10 10 -10 38 -41 57 -36 22 -80 24 -139 7z" id="node24" class="node"></path>
<path d="M1595 1701 c-75 -30 -271 -125 -320 -156 -163 -102 -228 -160 -323
-289 -122 -166 -152 -262 -129 -416 31 -207 154 -336 331 -348 137 -9 276 30
372 103 49 38 164 179 217 267 26 43 47 80 47 83 0 5 113 210 141 255 5 8 16
28 25 45 43 77 227 306 283 351 33 27 60 54 60 60 2 24 -36 54 -81 66 -45 11
-49 10 -155 -36 -59 -26 -137 -68 -171 -93 -111 -79 -330 -318 -356 -388 -2
-5 -6 -7 -10 -4 -19 18 48 186 108 274 44 64 55 75 165 178 41 37 67 67 59 67
-21 0 -86 -35 -148 -81 -30 -22 -71 -51 -90 -64 -19 -12 -44 -31 -55 -42 -11
-10 -40 -33 -65 -50 -100 -70 -235 -228 -301 -353 -23 -44 -24 -45 -27 -16 -3
20 16 68 64 162 102 201 149 247 402 393 112 65 87 83 -43 32z m495 -57 c0 -9
-5 -14 -12 -12 -18 6 -21 28 -4 28 9 0 16 -7 16 -16z m60 -30 c0 -8 -9 -14
-20 -14 -22 0 -28 26 -7 33 16 6 27 -1 27 -19z m-112 -6 c-6 -17 -36 -34 -45
-24 -4 4 1 14 11 22 24 17 39 18 34 2z m-83 -18 c3 -6 -1 -13 -10 -16 -19 -8
-30 0 -20 15 8 14 22 14 30 1z m85 -60 c0 -5 -9 -10 -21 -10 -11 0 -17 5 -14
10 3 6 13 10 21 10 8 0 14 -4 14 -10z m-104 -38 c-8 -9 -19 -13 -22 -9 -10 9
16 38 28 31 6 -4 4 -13 -6 -22z" id="node25" class="node"></path>
<path d="M2550 1702 c0 -17 58 -48 69 -36 6 5 -49 53 -61 54 -5 0 -8 -8 -8
-18z" id="node26" class="node"></path>
<path d="M2546 1663 c-3 -4 -6 -16 -6 -27 0 -34 -57 -116 -80 -116 -11 0 -20
7 -20 15 0 8 -4 15 -10 15 -5 0 -10 -20 -10 -45 l0 -45 40 0 c46 0 116 -25
146 -52 30 -27 47 -22 67 21 30 66 19 122 -36 179 -35 37 -81 65 -91 55z m54
-78 c0 -8 -7 -15 -15 -15 -16 0 -20 12 -8 23 11 12 23 8 23 -8z m14 -86 c-8
-14 -34 -11 -34 4 0 8 3 17 7 20 9 9 34 -13 27 -24z m51 11 c3 -5 2 -10 -4
-10 -5 0 -13 5 -16 10 -3 6 -2 10 4 10 5 0 13 -4 16 -10z" id="node27" class="node"></path>
<path d="M2337 1540 c-10 -16 -38 -46 -62 -66 -37 -30 -43 -39 -35 -55 6 -10
20 -24 32 -30 20 -11 26 -8 54 25 43 50 67 156 36 156 -4 0 -16 -13 -25 -30z" id="node28" class="node"></path>
<path d="M2740 1525 c-7 -25 -25 -65 -40 -88 -33 -53 -26 -80 24 -97 62 -20
96 14 96 95 0 49 -16 89 -48 118 -19 17 -20 16 -32 -28z" id="node29" class="node"></path>
<path d="M2132 1353 c-58 -68 -142 -188 -203 -293 -24 -41 -48 -83 -54 -92 -5
-10 -34 -59 -64 -110 -30 -51 -65 -108 -77 -127 -45 -67 -143 -167 -218 -221
-41 -30 -76 -60 -76 -66 0 -23 139 -47 229 -40 89 7 170 23 185 37 6 5 18 9
27 9 27 0 117 51 204 116 123 92 185 130 185 114 0 -5 -8 -25 -17 -45 -9 -19
-14 -37 -11 -40 3 -3 44 12 92 34 69 32 100 54 156 111 39 39 77 85 86 103 9
18 22 39 29 47 8 8 17 27 20 43 l7 27 -57 0 c-32 0 -86 -5 -121 -12 -35 -6
-67 -8 -71 -4 -10 10 27 37 98 72 32 16 58 34 59 40 0 14 -65 65 -115 89 -29
14 -62 20 -120 20 -75 0 -87 -3 -188 -49 -59 -27 -110 -46 -113 -44 -12 12 95
100 162 133 111 55 223 65 299 27 49 -24 136 -86 197 -140 65 -57 115 -72 185
-53 36 10 44 17 58 56 27 70 3 166 -58 233 -19 21 -22 21 -45 6 -14 -10 -38
-14 -58 -12 -19 2 -34 2 -34 1 0 -7 40 -78 56 -100 14 -19 14 -23 2 -23 -8 0
-28 19 -44 43 -45 64 -112 114 -169 128 -28 6 -59 16 -70 21 -35 15 -94 2
-116 -26 -16 -20 -29 -26 -60 -26 -48 0 -95 23 -104 50 -3 11 -10 20 -15 20
-4 0 -30 -26 -58 -57z" id="node30" class="node"></path>
<path d="M310 1132 c-31 -15 -95 -45 -143 -67 -48 -22 -87 -43 -87 -46 0 -3
15 -11 32 -17 39 -13 155 -54 217 -77 51 -19 70 -14 98 23 41 55 37 140 -9
189 -27 29 -39 28 -108 -5z" id="node31" class="node"></path>


<path d="M2656 883 c-61 -175 -148 -274 -314 -359 -55 -28 -61 -34 -38 -34 83
0 291 77 335 124 45 49 71 116 71 186 0 66 -15 130 -30 130 -4 0 -15 -21 -24
-47z" id="node34" class="node"></path>
<path d="M690 513 c-15 -4 -143 -253 -134 -262 2 -2 28 5 57 16 28 11 88 33
131 49 95 35 105 47 86 104 -22 68 -84 109 -140 93z" id="node35" class="node"></path>
<path d="M1943 388 c-21 -21 -34 -47 -38 -73 l-7 -41 64 -33 c34 -18 74 -42
87 -52 29 -23 55 -25 47 -4 -3 8 -11 46 -17 83 -6 37 -17 85 -24 107 -11 35
-17 40 -47 43 -27 2 -39 -4 -65 -30z" id="node36" class="node"></path>
<path d="M1313 404 c-32 -14 -7 -24 59 -24 43 0 68 4 63 9 -12 11 -105 22
-122 15z" id="node37" class="node"></path>
<path d="M1377 298 c-26 -11 -49 -29 -52 -39 -14 -42 70 -219 103 -219 13 0
112 191 112 216 0 8 -14 21 -32 30 -60 31 -82 33 -131 12z" id="node38" class="node"></path>
</g>
</svg>