<!--?xml version="1.0" standalone="no"?-->

<svg version="1.0" xmlns="http://www.w3.org/2000/svg" width="300.000000pt" height="288.000000pt" viewBox="0 0 300.000000 288.000000" preserveAspectRatio="xMidYMid meet">
<g transform="translate(0.000000,288.000000) scale(0.100000,-0.100000)" fill="#161616" stroke="none">
<path class="node" id="node1" d="M506 2768 c27 -53 192 -209 274 -259 41 -25 131 -69 200 -99 69 -29
150 -66 180 -82 92 -48 192 -130 244 -198 53 -70 54 -53 2 45 -55 106 -169
204 -312 270 -91 42 -317 154 -339 168 -11 7 -42 25 -70 42 -27 16 -83 55
-123 87 -69 56 -72 57 -56 26z"></path>
<path class="node" id="node2" d="M1870 2746 c0 -46 -71 -168 -145 -245 -39 -42 -81 -89 -92 -106 -28
-42 -61 -148 -67 -220 l-6 -60 15 50 c25 88 92 208 162 290 85 99 116 152 137
233 19 74 19 82 6 82 -5 0 -10 -11 -10 -24z"></path>
<path class="node" id="node3" d="M2611 2705 c-65 -52 -203 -130 -321 -180 -47 -20 -94 -40 -105 -45
-11 -5 -56 -23 -100 -39 -165 -60 -267 -124 -345 -218 -38 -46 -88 -125 -90
-143 0 -3 37 31 83 75 96 93 199 151 372 210 219 74 350 149 471 271 59 58
106 117 92 113 -2 0 -27 -20 -57 -44z"></path>
<path class="node" id="node4" d="M452 2520 c-2 -149 8 -240 39 -345 34 -118 68 -187 133 -273 96 -129
208 -209 371 -266 300 -105 472 -28 445 200 -17 142 -143 292 -289 344 -66 23
-58 23 -263 4 -93 -9 -203 42 -252 116 -37 57 -41 81 -16 113 49 61 161 8 206
-98 l12 -30 7 37 c21 110 -137 204 -258 153 -40 -16 -47 -30 -47 -87 0 -92
115 -218 253 -277 l45 -19 4 -69 c3 -54 10 -77 32 -110 28 -43 55 -59 41 -25
-17 40 -17 123 0 168 47 124 205 123 344 -3 143 -129 161 -322 36 -383 -25
-12 -48 -21 -50 -18 -2 2 9 30 25 63 40 83 28 175 -32 232 -45 42 -70 53 -118
53 -109 0 -186 -94 -132 -160 l18 -22 12 39 c22 74 103 93 157 38 39 -38 40
-67 8 -132 -28 -58 -28 -58 -78 -61 -108 -7 -254 64 -365 178 -163 166 -265
426 -283 725 -2 28 -4 -11 -5 -85z"></path>
<path class="node" id="node5" d="M2672 2518 c-4 -74 -56 -276 -88 -336 -7 -15 -14 -30 -14 -33 0 -4
-21 -44 -46 -90 -121 -219 -274 -338 -482 -376 -106 -19 -113 -16 -143 55 -26
60 -24 95 7 131 52 62 164 29 164 -49 0 -16 4 -30 8 -30 12 0 42 56 42 78 0
48 -88 112 -155 112 -78 0 -138 -50 -165 -136 -20 -66 -16 -103 17 -167 19
-37 13 -41 -29 -24 -108 45 -103 237 7 350 69 70 147 109 227 115 56 4 72 1
101 -17 19 -12 42 -37 51 -55 20 -42 20 -137 1 -190 l-13 -38 29 28 c39 38 69
102 69 150 0 50 7 58 53 73 189 62 332 261 243 338 -15 13 -41 23 -59 24 -140
5 -214 -37 -224 -125 -3 -25 -2 -46 3 -46 5 0 19 18 32 41 30 53 75 79 134 79
40 0 50 -4 65 -26 16 -25 16 -28 -8 -72 -28 -55 -93 -107 -152 -123 -49 -14
-129 -13 -210 2 -140 28 -266 -11 -369 -113 -79 -79 -120 -164 -126 -260 -4
-69 -2 -81 21 -121 53 -90 190 -117 367 -73 319 80 517 272 609 591 25 86 44
241 39 315 -3 38 -5 43 -6 18z"></path>
<path class="node" id="node6" d="M1487 1972 c-10 -10 -17 -25 -17 -33 0 -20 27 -57 51 -70 19 -9 19
-9 10 10 -17 31 -13 41 14 41 19 0 25 5 25 23 0 46 -52 64 -83 29z"></path>
<path class="node" id="node7" d="M1490 1741 c0 -16 7 -45 15 -65 14 -33 14 -42 -5 -113 -15 -58 -20
-105 -19 -192 2 -112 2 -114 9 -44 9 85 37 175 53 170 13 -4 44 -113 47 -167
2 -26 5 -18 12 30 11 83 2 213 -19 253 -13 26 -14 39 -4 80 6 27 11 55 11 63
0 24 -15 15 -27 -16 -6 -16 -16 -30 -22 -30 -6 0 -17 14 -26 30 -19 38 -25 38
-25 1z"></path>
<path class="node" id="node8" d="M864 1581 c-103 -74 -156 -187 -214 -456 -75 -347 -102 -431 -196
-597 -83 -147 -216 -299 -317 -362 -55 -35 -55 -49 0 -16 154 92 255 192 344
342 85 142 170 368 199 528 24 128 49 197 81 224 56 47 103 25 80 -38 -9 -23
-8 -26 9 -26 11 0 30 10 41 21 17 17 20 29 15 58 -9 60 -58 85 -120 61 -23 -9
-26 -7 -26 14 0 27 49 125 78 156 67 72 129 88 176 45 35 -32 34 -60 -3 -76
-36 -16 -31 -29 13 -29 49 0 78 36 74 91 -4 61 -46 89 -133 89 -52 0 -68 -4
-101 -29z"></path>
<path class="node" id="node9" d="M2061 1570 c-49 -12 -76 -43 -76 -89 0 -56 26 -81 84 -81 l46 0 -38
25 c-42 29 -43 32 -18 62 45 54 105 47 168 -17 38 -38 82 -124 90 -175 l6 -35
-37 15 c-20 9 -47 13 -61 9 -55 -14 -85 -94 -47 -126 16 -14 62 -34 62 -26 0
2 -4 17 -9 35 -13 45 7 72 42 56 52 -24 78 -75 92 -180 63 -467 218 -788 462
-957 29 -20 56 -36 60 -36 4 0 -26 30 -66 66 -40 37 -97 100 -127 141 -50 67
-140 230 -171 308 -56 142 -56 143 -103 465 -46 312 -110 474 -209 525 -35 18
-109 26 -150 15z"></path>
<path class="node" id="node10" d="M1280 1500 c-39 -39 -120 -87 -193 -115 -66 -25 -68 -35 -5 -28 61 7
127 33 147 57 20 23 34 20 27 -7 -10 -43 -56 -115 -96 -151 -47 -42 -63 -46
-54 -12 10 42 -11 66 -60 66 -87 0 -112 -79 -47 -149 24 -25 37 -31 72 -31 39
0 48 5 97 56 76 78 162 267 150 330 -3 17 -8 15 -38 -16z"></path>
<path class="node" id="node11" d="M1770 1486 c0 -95 88 -293 158 -353 40 -35 93 -44 122 -20 32 25 60
71 60 98 0 35 -41 69 -84 69 -52 0 -73 -30 -56 -75 9 -23 8 -25 -9 -16 -26 14
-75 72 -104 123 -24 42 -42 98 -32 98 3 0 24 -13 46 -30 41 -29 127 -60 170
-60 23 0 23 0 4 13 -11 8 -35 19 -53 25 -50 17 -153 90 -189 134 l-33 40 0
-46z"></path>
<path class="node" id="node12" d="M1416 1452 c-3 -5 -21 -39 -41 -76 -106 -200 -269 -367 -446 -456
-79 -40 -89 -39 -89 9 0 48 31 91 67 91 23 0 25 -3 19 -34 -6 -31 -5 -34 14
-29 49 13 67 96 30 133 -31 31 -101 27 -141 -8 -28 -25 -32 -35 -36 -97 -4
-46 -15 -92 -34 -132 -22 -49 -25 -63 -13 -63 41 0 287 122 361 180 107 82
194 191 253 315 41 87 83 210 56 167z"></path>
<path class="node" id="node13" d="M1680 1380 c25 -97 72 -199 133 -289 76 -112 224 -230 382 -305 44
-21 88 -42 97 -47 10 -5 20 -9 23 -9 4 0 -22 64 -46 112 -5 10 -9 47 -9 83 0
105 -32 145 -115 145 -47 0 -79 -29 -79 -73 0 -40 27 -77 56 -77 16 0 17 3 7
21 -7 14 -8 24 -1 31 17 17 58 1 70 -27 13 -29 16 -105 4 -105 -4 0 -43 21
-86 46 -157 92 -300 258 -400 464 -25 51 -48 95 -50 97 -3 3 4 -27 14 -67z"></path>
<path class="node" id="node14" d="M1504 1125 c10 -45 27 -85 37 -85 12 0 26 30 35 75 l7 40 -22 -25
-21 -25 -21 25 -22 25 7 -30z"></path>
</g>
<g transform="translate(0.000000,288.000000) scale(0.100000,-0.100000)" fill="#A1A1A1" stroke="none">

</g>
</svg>