<!--?xml version="1.0" standalone="no"?-->

<svg version="1.0" xmlns="http://www.w3.org/2000/svg" width="300.000000pt" height="293.000000pt" viewBox="0 0 300.000000 293.000000" preserveAspectRatio="xMidYMid meet">
<g transform="translate(0.000000,293.000000) scale(0.100000,-0.100000)" fill="#232221" stroke="none">
<path class="node" id="node1" d="M2610 2907 c-14 -7 -41 -19 -60 -27 -19 -8 -76 -37 -125 -65 -50 -27
-112 -61 -138 -75 -75 -39 -175 -118 -254 -199 -263 -268 -387 -668 -313
-1004 24 -108 30 -122 93 -247 27 -53 44 -96 38 -98 -35 -12 28 -80 191 -211
195 -156 346 -233 573 -291 104 -27 311 -48 325 -34 8 8 -14 13 -72 18 -115 9
-197 30 -292 75 -83 39 -166 94 -166 110 0 5 12 11 28 14 54 11 246 156 229
173 -4 4 -12 2 -19 -4 -7 -6 -34 -16 -59 -22 -62 -16 -119 0 -154 42 -23 27
-26 39 -22 76 7 63 49 103 114 109 44 5 60 0 152 -47 57 -28 105 -49 108 -47
5 6 -116 94 -177 129 -73 42 -172 68 -264 68 -80 1 -81 1 -51 17 117 62 285
239 338 353 32 70 55 140 47 145 -5 3 -11 1 -15 -5 -19 -31 -85 18 -85 63 0
29 34 96 70 136 16 18 30 35 30 36 0 1 -18 -3 -39 -8 -58 -16 -86 0 -95 51
-11 72 7 127 72 216 28 38 31 46 15 37 -35 -18 -94 -92 -124 -156 -35 -73 -39
-147 -10 -204 16 -31 18 -45 10 -79 -14 -63 5 -126 49 -162 l36 -29 -17 -36
c-23 -48 -75 -72 -115 -53 -26 13 -27 16 -27 98 0 73 -4 93 -28 144 -26 53
-28 65 -22 130 11 118 53 210 138 304 47 51 162 130 231 158 25 11 46 22 46
27 0 4 -24 4 -53 1 -121 -14 -237 58 -237 148 0 50 41 132 93 185 44 46 46 60
7 40z m-113 -104 c-64 -90 -69 -169 -15 -238 26 -33 89 -65 128 -65 16 0 30
-4 30 -9 0 -11 -83 -61 -100 -61 -7 0 -26 -6 -43 -14 -18 -7 -75 -28 -127 -45
-52 -18 -126 -44 -165 -57 -86 -30 -108 -26 -129 25 -14 36 -14 45 0 98 8 32
32 82 52 112 42 60 139 153 192 182 19 11 58 34 85 51 52 32 117 68 123 68 2
0 -12 -21 -31 -47z m-493 -384 c-9 -24 -29 -59 -43 -77 -14 -19 -38 -52 -53
-75 -30 -45 -37 -35 -12 16 21 42 117 187 121 183 2 -2 -4 -23 -13 -47z m340
-132 c-150 -101 -138 -95 -130 -61 14 54 75 102 161 124 81 21 75 8 -31 -63z
m-271 -16 c15 -6 27 -14 26 -18 -1 -13 -108 -94 -143 -108 -18 -8 -51 -33 -74
-56 -23 -23 -42 -35 -42 -28 0 37 64 145 116 195 51 50 58 54 73 40 9 -8 28
-19 44 -25z m302 -7 c-11 -17 -20 -63 -26 -133 -7 -73 -17 -118 -31 -146 -25
-48 -67 -95 -85 -95 -18 0 -16 25 3 41 36 30 51 134 27 182 -13 25 -12 31 7
61 20 33 103 116 116 116 3 0 -1 -12 -11 -26z m-170 -3 c3 -5 1 -12 -5 -16 -5
-3 -10 -19 -10 -34 0 -21 -10 -36 -35 -56 -54 -40 -79 -22 -55 40 20 51 87 94
105 66z m-135 -130 c7 -27 5 -35 -21 -61 -43 -42 -53 -39 -46 17 3 33 12 51
28 64 28 21 27 21 39 -20z m-115 -56 c-22 -34 -28 -51 -39 -119 -6 -32 -32
-76 -46 -76 -16 0 -30 37 -30 78 0 60 74 152 122 152 15 0 15 -4 -7 -35z m305
-40 c0 -29 -6 -47 -20 -60 -20 -18 -20 -17 -20 52 0 38 3 73 7 77 14 13 33
-28 33 -69z m-279 -22 c-5 -10 -19 -27 -30 -37 -20 -18 -21 -18 -21 -1 0 10
10 33 21 52 18 29 23 32 31 19 5 -9 5 -23 -1 -33z m164 -283 c0 -153 -9 -182
-99 -316 -50 -74 -58 -74 -25 3 22 50 22 104 3 301 -7 68 6 135 38 191 30 54
12 49 -53 -15 -51 -49 -58 -54 -45 -28 8 18 39 57 67 89 l53 57 30 -74 c29
-69 30 -81 31 -208z m210 218 c-4 -18 -17 -45 -28 -60 -27 -36 -94 -81 -102
-68 -11 17 4 44 35 65 16 11 42 37 57 57 34 46 47 48 38 6z m-555 -87 c15 -29
12 -100 -6 -161 -12 -42 -18 -50 -25 -38 -16 29 -22 131 -10 176 13 46 25 53
41 23z m550 -42 c-20 -47 -111 -111 -126 -88 -13 22 7 55 49 81 24 15 52 37
63 49 17 19 19 19 22 4 2 -9 -2 -30 -8 -46z m64 -14 c7 -27 -25 -100 -53 -123
-43 -34 -63 -44 -103 -48 l-44 -5 4 34 c3 26 11 38 38 52 44 24 52 15 25 -31
-22 -36 -22 -52 -2 -39 11 6 61 105 61 120 0 12 54 72 61 69 4 -2 10 -15 13
-29z m143 -172 c-22 -41 -95 -107 -152 -137 -69 -36 -82 -34 -56 8 11 18 31
60 44 94 18 48 26 59 37 52 21 -13 70 -11 105 4 17 7 31 12 33 11 2 -2 -3 -16
-11 -32z m-603 -37 c9 -27 16 -67 16 -89 0 -52 -38 -203 -60 -240 l-18 -29
-16 25 c-9 13 -21 40 -26 58 -14 48 -12 167 4 211 20 55 67 131 76 121 4 -4
15 -30 24 -57z m406 45 c0 -28 -170 -145 -186 -128 -3 3 2 21 11 41 14 30 26
38 81 56 35 12 66 26 69 31 8 11 25 12 25 0z m-200 -261 c-31 -44 -146 -116
-171 -108 -17 6 58 76 114 108 68 39 85 39 57 0z m224 -66 c25 -4 46 -11 46
-15 0 -5 -6 -9 -13 -9 -24 0 -97 -55 -118 -89 l-19 -32 -33 25 c-17 13 -55 34
-82 46 l-50 22 28 15 c26 13 137 40 178 42 9 1 37 -2 63 -5z m-304 -104 c35
-9 179 -100 230 -144 39 -34 105 -76 119 -76 7 0 11 -6 9 -12 -12 -35 -162
-66 -231 -47 -46 12 -101 39 -132 63 -19 16 -19 16 5 7 75 -26 240 -24 240 3
0 8 -14 13 -37 14 -46 2 -94 35 -158 108 -29 34 -69 67 -100 81 -45 22 -47 24
-16 19 19 -4 51 -11 71 -16z"></path>
<path class="node" id="node2" d="M1305 2123 c4 -10 15 -49 25 -87 l17 -70 66 -35 c37 -20 74 -46 82
-57 30 -44 63 -162 75 -264 6 -58 20 -140 31 -183 20 -81 52 -146 63 -129 4 6
2 13 -2 16 -20 12 -52 171 -67 326 -22 238 -38 286 -128 390 -62 72 -182 140
-162 93z"></path>
<path class="node" id="node3" d="M705 1501 c43 -84 189 -195 285 -217 19 -4 125 -6 235 -5 180 2 206
0 265 -19 118 -38 121 -39 115 -29 -4 5 -12 9 -20 9 -7 0 -15 3 -17 8 -1 4
-34 20 -73 36 -66 27 -79 29 -245 33 -249 6 -328 36 -362 137 -14 43 -1 37
-166 72 l-34 7 17 -32z"></path>
<path class="node" id="node4" d="M1690 1240 c-19 -12 -10 -20 34 -27 32 -5 36 -3 36 16 0 16 -6 21
-27 21 -16 0 -35 -4 -43 -10z"></path>
<path class="node" id="node5" d="M1670 1199 c0 -18 43 -94 76 -136 40 -49 45 -66 9 -33 -24 22 -25 23
-45 5 -18 -17 -21 -17 -62 0 -324 131 -578 144 -837 45 -253 -97 -502 -313
-664 -575 -61 -99 -144 -281 -133 -292 3 -3 23 10 45 30 50 45 70 56 126 66
114 21 203 -43 223 -162 l7 -41 27 44 c78 134 221 241 362 270 69 14 191 6
249 -17 23 -10 49 -13 70 -9 66 14 77 12 94 -16 15 -24 15 -30 2 -54 -13 -26
-83 -84 -101 -84 -4 0 -8 12 -8 26 0 78 -91 103 -176 47 -21 -13 -26 -12 -64
14 -75 49 -173 32 -273 -48 -41 -32 -107 -104 -107 -115 0 -10 13 -1 66 46 80
70 153 104 206 97 48 -6 78 -32 83 -73 2 -16 4 -31 4 -33 1 -2 19 13 40 32 51
46 73 57 117 59 50 2 67 -22 61 -84 l-4 -47 38 19 c20 11 57 37 82 58 25 22
66 49 91 62 112 54 243 213 289 350 3 8 3 -19 0 -60 -10 -145 32 -264 127
-362 56 -58 99 -81 66 -36 -48 67 -70 107 -78 143 -18 76 27 155 89 157 82 2
173 -118 160 -213 -4 -35 -3 -38 10 -28 31 26 103 204 103 256 0 30 4 29 46
-9 74 -67 164 -222 199 -343 26 -92 33 -106 29 -60 -19 231 -204 596 -398 785
-46 44 -67 82 -23 43 28 -26 221 -155 265 -177 l33 -17 -12 23 c-35 66 -235
294 -310 353 -82 65 -199 120 -199 94z m-482 -128 c39 -24 -145 -54 -216 -35
-30 9 -23 27 14 35 44 10 187 10 202 0z m418 -62 l48 -22 -27 -22 c-48 -38
-138 -58 -263 -59 -168 -1 -175 23 -29 95 51 25 72 29 141 29 61 0 93 -5 130
-21z m-646 -79 c-32 -24 -65 -40 -81 -40 -32 0 -96 -25 -123 -48 -18 -16 -18
-16 -8 3 34 65 141 124 226 125 l40 0 -54 -40z m-155 12 c-39 -25 -93 -80
-101 -105 -3 -11 -21 -33 -39 -49 -19 -16 -37 -43 -40 -61 -12 -54 -19 -54
-36 3 -11 37 -14 61 -7 73 13 25 110 99 171 131 58 30 98 36 52 8z m-181 -53
c-27 -17 -65 -44 -85 -60 -20 -16 -45 -29 -55 -29 -24 1 24 41 105 87 72 42
100 43 35 2z m385 -38 c-69 -69 -91 -106 -46 -77 40 27 110 38 287 45 126 6
186 13 214 25 47 20 52 20 36 1 -26 -31 -158 -105 -232 -129 -89 -30 -168 -33
-273 -11 -38 8 -85 12 -102 9 -18 -3 -33 -3 -33 1 0 17 80 102 143 151 38 30
70 54 72 54 2 0 -28 -31 -66 -69z m772 -81 c90 -82 119 -121 119 -162 0 -42
25 -34 38 11 15 48 15 121 2 157 -9 24 -9 25 5 14 42 -35 57 -198 24 -266 -19
-39 -34 -40 -49 -4 -11 27 -52 78 -156 192 -50 55 -94 129 -94 157 l1 26 14
-25 c7 -14 50 -59 96 -100z m-906 90 c-3 -5 -10 -10 -16 -10 -5 0 -9 5 -9 10
0 6 7 10 16 10 8 0 12 -4 9 -10z m735 0 c0 -23 -52 -135 -72 -157 -31 -34 -37
-29 -26 24 14 61 98 176 98 133z m-780 -24 c0 -19 -4 -23 -20 -19 -25 7 -26
19 -2 32 23 14 22 14 22 -13z m-33 -34 c9 -6 6 -15 -11 -33 -19 -20 -34 -26
-77 -28 l-53 -2 19 22 c34 37 95 58 122 41z m936 -144 c36 -45 37 -48 16 -48
-32 0 -86 -45 -110 -93 -22 -41 -22 -41 -31 -17 -14 37 -3 199 16 235 9 17 16
37 16 45 0 8 12 -5 27 -30 14 -25 44 -66 66 -92z m-1219 62 c15 -5 32 -24 41
-47 17 -40 13 -66 -31 -188 -8 -23 -14 -63 -14 -90 -1 -38 -9 -64 -35 -110
-28 -48 -35 -55 -35 -35 0 38 -41 102 -79 124 -66 38 -176 15 -263 -55 l-37
-29 12 27 c29 66 82 162 113 205 50 67 144 151 205 182 57 28 83 32 123 16z
m236 3 c-1 -19 -78 -92 -102 -98 -25 -6 -28 -4 -28 17 0 29 22 51 70 72 39 17
60 20 60 9z m660 -13 c0 -38 -124 -210 -150 -210 -5 0 4 31 20 69 17 39 30 77
30 85 0 8 19 26 43 40 46 28 57 31 57 16z m-130 -66 c0 -21 -63 -84 -84 -84
-15 0 -15 3 -1 37 19 44 15 40 45 52 35 14 40 13 40 -5z m-90 -18 c0 -12 -53
-95 -72 -113 -28 -25 -97 -63 -116 -63 -8 0 7 23 33 52 26 29 55 69 66 90 17
33 24 38 54 38 19 0 35 -2 35 -4z m-270 -14 c0 -29 -69 -56 -119 -46 -46 9
-38 20 27 37 68 18 92 20 92 9z m60 1 c0 -18 -40 -66 -72 -88 -37 -25 -98 -45
-139 -45 -37 0 -149 -38 -184 -63 l-30 -22 19 30 c29 47 67 84 120 121 43 29
52 32 65 20 43 -37 131 -25 178 24 27 29 43 37 43 23z m65 -30 c-4 -21 -13
-46 -22 -55 -23 -25 -77 -48 -115 -48 l-33 0 30 19 c36 21 81 72 90 101 4 13
15 20 32 20 24 0 25 -2 18 -37z m39 22 c-4 -8 -8 -15 -10 -15 -2 0 -4 7 -4 15
0 8 4 15 10 15 5 0 7 -7 4 -15z m-471 -77 c-20 -35 -45 -74 -55 -87 l-18 -24
0 24 c0 33 44 125 67 138 39 23 41 9 6 -51z m630 7 c-40 -72 -118 -120 -158
-98 -14 8 -9 16 30 50 25 23 58 44 74 48 16 3 37 15 47 26 30 33 34 21 7 -26z
m173 -32 c-22 -63 -60 -117 -110 -153 -49 -37 -56 -37 -56 -2 0 15 -6 39 -14
53 -13 26 -13 26 50 57 35 18 81 49 101 70 21 21 40 34 41 30 2 -5 -3 -29 -12
-55z"></path>
<path class="node" id="node6" d="M1626 1168 c-10 -41 -7 -48 24 -48 34 0 37 10 14 45 -20 31 -30 31
-38 3z"></path>
</g>
<g transform="translate(0.000000,293.000000) scale(0.100000,-0.100000)" fill="#AA85A3" stroke="none">

<path class="node" id="node8" d="M2490 2831 c-19 -10 -57 -32 -85 -49 -27 -17 -66 -40 -85 -51 -53
-29 -150 -122 -192 -182 -20 -30 -44 -80 -52 -112 -14 -53 -14 -62 0 -98 21
-51 43 -55 129 -25 39 13 113 39 165 57 52 17 109 38 127 45 17 8 36 14 43 14
17 0 100 50 100 61 0 5 -14 9 -30 9 -39 0 -102 32 -128 65 -54 69 -49 148 15
238 19 26 33 47 31 47 -2 0 -19 -8 -38 -19z"></path>
<path class="node" id="node9" d="M1963 2392 c-56 -84 -83 -134 -83 -154 0 -6 12 7 28 29 15 23 39 56
53 75 25 31 64 117 56 124 -1 2 -26 -31 -54 -74z"></path>
<path class="node" id="node10" d="M2375 2350 c-86 -22 -147 -70 -161 -124 -8 -34 -20 -40 130 61 106
71 112 84 31 63z"></path>
<path class="node" id="node11" d="M1956 2256 c-52 -50 -116 -158 -116 -195 0 -7 19 5 42 28 23 23 56
48 74 56 35 14 142 95 143 108 1 4 -11 12 -26 18 -16 6 -35 17 -44 25 -15 14
-22 10 -73 -40z"></path>
<path class="node" id="node12" d="M2335 2249 c-25 -23 -54 -56 -65 -75 -19 -30 -20 -36 -7 -61 24 -48
9 -152 -27 -182 -19 -16 -21 -41 -3 -41 18 0 60 47 85 95 14 28 24 73 31 146
6 70 15 116 26 133 25 37 11 32 -40 -15z"></path>
<path class="node" id="node13" d="M2136 2245 c-26 -24 -46 -63 -46 -91 0 -27 29 -26 65 1 25 20 35 35
35 56 0 15 5 31 10 34 6 4 8 11 5 16 -11 16 -42 10 -69 -16z"></path>
<path class="node" id="node14" d="M2031 2151 c-16 -13 -25 -31 -28 -64 -7 -56 3 -59 46 -17 26 26 28
34 21 61 -12 41 -11 41 -39 20z"></path>
<path class="node" id="node15" d="M1922 2094 c-44 -30 -82 -94 -82 -136 0 -41 14 -78 30 -78 14 0 40
44 46 76 11 68 17 85 39 119 22 31 22 35 7 35 -10 0 -28 -7 -40 -16z"></path>
<path class="node" id="node16" d="M2227 2104 c-4 -4 -7 -39 -7 -77 0 -69 0 -70 20 -52 14 13 20 31 20
60 0 41 -19 82 -33 69z"></path>
<path class="node" id="node17" d="M1951 2027 c-11 -19 -21 -42 -21 -52 0 -17 1 -17 21 1 31 28 41 52
31 70 -8 13 -13 10 -31 -19z"></path>
<path class="node" id="node18" d="M2031 1955 c-28 -32 -59 -71 -67 -89 -13 -26 -6 -21 45 28 65 64 83
69 53 15 -32 -56 -45 -123 -38 -191 19 -197 19 -251 -3 -301 -33 -77 -25 -77
25 -3 90 134 99 163 99 316 -1 127 -2 139 -31 208 l-30 74 -53 -57z"></path>
<path class="node" id="node19" d="M2317 1942 c-15 -20 -41 -46 -57 -57 -31 -21 -46 -48 -35 -65 8 -13
75 32 102 68 22 30 40 92 26 92 -4 0 -20 -17 -36 -38z"></path>
<path class="node" id="node20" d="M1759 1838 c-12 -45 -6 -147 10 -176 7 -12 13 -4 25 38 18 61 21 132
6 161 -16 30 -28 23 -41 -23z"></path>
<path class="node" id="node21" d="M2336 1861 c-11 -12 -39 -34 -63 -49 -42 -26 -62 -59 -49 -81 9 -13
33 -4 77 30 38 30 63 75 57 104 -3 15 -5 15 -22 -4z"></path>
<path class="node" id="node22" d="M2368 1805 c-16 -18 -28 -36 -28 -40 0 -15 -50 -114 -61 -120 -20
-13 -20 3 2 39 27 46 19 55 -25 31 -27 -14 -35 -26 -38 -52 l-4 -34 44 5 c40
4 60 14 103 48 28 23 60 96 53 123 -9 36 -16 36 -46 0z"></path>
<path class="node" id="node23" d="M2535 1654 c-35 -15 -84 -17 -105 -4 -11 7 -19 -4 -37 -52 -13 -34
-33 -76 -44 -94 -15 -25 -17 -34 -7 -34 25 0 113 53 156 94 39 37 79 94 70
101 -2 1 -16 -4 -33 -11z"></path>
<path class="node" id="node24" d="M1895 1615 c-42 -71 -54 -113 -55 -190 0 -76 10 -124 36 -162 l16
-25 18 29 c22 37 60 188 60 240 0 39 -25 130 -40 146 -5 5 -20 -12 -35 -38z"></path>
<path class="node" id="node25" d="M2335 1641 c-3 -5 -34 -19 -69 -31 -55 -18 -67 -26 -81 -56 -9 -20
-14 -38 -11 -41 16 -17 186 100 186 128 0 12 -17 11 -25 0z"></path>
<path class="node" id="node26" d="M2103 1380 c-56 -32 -131 -102 -114 -108 25 -8 140 64 171 108 28 39
11 39 -57 0z"></path>
<path class="node" id="node27" d="M2238 1305 c-36 -7 -79 -20 -95 -28 l-28 -15 50 -22 c27 -12 65 -33
82 -46 l33 -25 19 32 c21 34 94 89 118 89 7 0 13 4 13 9 0 8 -75 22 -109 20
-9 0 -46 -7 -83 -14z"></path>
<path class="node" id="node28" d="M2025 1207 c31 -14 71 -47 100 -81 64 -73 112 -106 158 -108 23 -1
37 -6 37 -14 0 -27 -165 -29 -240 -3 -24 9 -24 9 -5 -7 31 -24 86 -51 132 -63
69 -19 219 12 231 47 2 6 -2 12 -9 12 -14 0 -80 42 -119 76 -14 12 -63 47
-109 78 -81 54 -115 68 -192 82 -31 5 -29 3 16 -19z"></path>
<path class="node" id="node29" d="M986 1071 c-37 -8 -44 -26 -14 -35 71 -19 255 11 216 35 -15 10 -158
10 -202 0z"></path>
<path class="node" id="node30" d="M1335 1001 c-146 -72 -139 -96 29 -95 125 1 215 21 263 59 l27 22
-48 22 c-37 16 -69 21 -130 21 -69 0 -90 -4 -141 -29z"></path>
<path class="node" id="node31" d="M882 951 c-52 -18 -113 -66 -134 -106 -10 -19 -10 -19 8 -3 27 23 91
48 123 48 16 0 49 16 81 40 l54 40 -40 0 c-21 -1 -63 -9 -92 -19z"></path>
<path class="node" id="node32" d="M753 934 c-61 -32 -158 -106 -171 -131 -7 -12 -4 -36 7 -73 17 -57
24 -57 36 -3 3 18 21 45 40 61 18 16 36 38 39 49 8 25 62 80 101 105 46 28 6
22 -52 -8z"></path>
<path class="node" id="node33" d="M589 887 c-81 -46 -129 -86 -105 -87 10 0 35 13 55 29 20 16 58 43
85 60 65 41 37 40 -35 -2z"></path>
<path class="node" id="node34" d="M1003 866 c-63 -49 -143 -134 -143 -151 0 -4 15 -4 33 -1 17 3 64 -1
102 -9 105 -22 184 -19 273 11 74 24 206 98 232 129 16 19 11 19 -36 -1 -28
-12 -88 -19 -214 -25 -177 -7 -247 -18 -287 -45 -45 -29 -23 8 46 77 38 38 68
69 66 69 -2 0 -34 -24 -72 -54z"></path>
<path class="node" id="node35" d="M1670 869 c0 -28 44 -102 94 -157 104 -114 145 -165 156 -192 39 -95
90 87 56 202 -9 30 -23 61 -31 68 -14 11 -14 10 -5 -14 13 -36 13 -109 -2
-157 -13 -45 -38 -53 -38 -11 0 41 -29 80 -119 162 -46 41 -89 86 -96 100
l-14 25 -1 -26z"></path>
<path class="node" id="node36" d="M850 860 c0 -5 4 -10 9 -10 6 0 13 5 16 10 3 6 -1 10 -9 10 -9 0 -16
-4 -16 -10z"></path>
<path class="node" id="node37" d="M1558 822 c-32 -44 -66 -142 -49 -142 17 0 53 51 76 108 40 98 30
110 -27 34z"></path>
<path class="node" id="node38" d="M808 849 c-24 -13 -23 -25 2 -32 16 -4 20 0 20 19 0 27 1 27 -22 13z"></path>
<path class="node" id="node39" d="M725 796 c-16 -7 -39 -23 -50 -35 l-19 -22 53 2 c43 2 58 8 77 28 36
38 0 54 -61 27z"></path>
<path class="node" id="node40" d="M1640 780 c0 -8 -7 -28 -16 -45 -19 -36 -30 -198 -16 -235 9 -24 9
-24 31 17 24 48 78 93 110 93 21 0 20 3 -16 48 -22 26 -52 67 -66 92 -15 25
-27 38 -27 30z"></path>
<path class="node" id="node41" d="M391 704 c-61 -31 -155 -115 -205 -182 -31 -43 -84 -139 -113 -205
l-12 -27 37 29 c87 70 197 93 263 55 38 -22 79 -86 79 -124 0 -20 7 -13 35 35
26 46 34 72 35 110 0 27 6 67 14 90 44 122 48 148 31 188 -26 63 -80 73 -164
31z"></path>
<path class="node" id="node42" d="M690 714 c-48 -21 -70 -43 -70 -72 0 -21 3 -23 28 -17 24 6 101 79
102 98 0 11 -21 8 -60 -9z"></path>
<path class="node" id="node43" d="M1353 694 c-24 -14 -43 -32 -43 -40 0 -8 -13 -46 -30 -85 -16 -38
-25 -69 -20 -69 15 0 101 103 126 152 38 76 33 82 -33 42z"></path>
<path class="node" id="node44" d="M1240 649 c-30 -12 -26 -8 -45 -52 -14 -34 -14 -37 1 -37 21 0 84 63
84 84 0 18 -5 19 -40 5z"></path>
<path class="node" id="node45" d="M1101 592 c-11 -21 -40 -61 -66 -90 -26 -29 -41 -52 -33 -52 19 0 88
38 116 63 19 18 72 101 72 113 0 2 -16 4 -35 4 -30 0 -37 -5 -54 -38z"></path>
<path class="node" id="node46" d="M828 603 c-65 -17 -73 -28 -27 -37 38 -7 78 1 102 22 39 34 16 39
-75 15z"></path>
<path class="node" id="node47" d="M937 590 c-47 -49 -135 -61 -178 -24 -13 12 -22 9 -65 -20 -53 -37
-91 -74 -120 -121 l-19 -30 30 22 c35 25 147 63 184 63 70 0 158 44 192 97 34
51 19 59 -24 13z"></path>
<path class="node" id="node48" d="M995 600 c-9 -29 -54 -80 -90 -101 l-30 -19 33 0 c38 0 92 23 115 48
9 9 18 34 22 55 7 35 6 37 -18 37 -17 0 -28 -7 -32 -20z"></path>
<path class="node" id="node49" d="M1070 605 c0 -8 2 -15 4 -15 2 0 6 7 10 15 3 8 1 15 -4 15 -6 0 -10
-7 -10 -15z"></path>
<path class="node" id="node50" d="M607 579 c-23 -13 -67 -105 -67 -138 l0 -24 18 24 c10 13 35 52 55
87 35 60 33 74 -6 51z"></path>
<path class="node" id="node51" d="M1236 561 c-10 -11 -31 -23 -47 -26 -16 -4 -49 -25 -74 -48 -39 -34
-44 -42 -30 -50 40 -22 118 26 158 98 27 47 23 59 -7 26z"></path>
<path class="node" id="node52" d="M1387 528 c-20 -21 -66 -52 -101 -70 -63 -31 -63 -31 -50 -57 8 -14
14 -38 14 -53 0 -16 4 -28 8 -28 18 0 90 62 115 98 27 39 61 125 55 140 -1 4
-20 -9 -41 -30z"></path>
</g>
</svg>