<!--?xml version="1.0" standalone="no"?-->

<svg version="1.0" xmlns="http://www.w3.org/2000/svg" width="300.000000pt" height="300.000000pt" viewBox="0 0 300.000000 300.000000" preserveAspectRatio="xMidYMid meet">
<g transform="translate(0.000000,300.000000) scale(0.100000,-0.100000)" fill="#151515" stroke="none">
<path class="node" id="node1" d="M48 2244 c-80 -15 -53 -79 97 -230 68 -69 143 -133 198 -169 100 -65
113 -91 41 -81 -26 3 -62 16 -82 28 l-35 22 7 -43 c14 -87 81 -164 195 -221
39 -19 42 -24 27 -32 -10 -6 -37 -8 -60 -4 l-41 6 35 -31 c19 -17 64 -45 100
-62 55 -27 77 -32 140 -32 68 0 80 3 136 36 169 101 367 106 489 13 19 -14 35
-23 35 -19 0 17 -98 166 -194 295 -112 151 -213 256 -300 314 -64 42 -225 126
-241 125 -5 0 17 -15 51 -32 34 -18 79 -42 101 -54 45 -25 189 -140 218 -174
11 -13 42 -50 69 -82 27 -32 47 -59 45 -62 -2 -2 -48 38 -101 88 -113 107
-155 136 -164 113 -8 -22 29 -78 79 -119 105 -87 113 -104 17 -41 -65 42 -90
64 -239 203 -147 137 -201 174 -201 139 0 -7 56 -68 124 -135 115 -115 142
-147 87 -105 -65 49 -149 119 -176 146 -35 36 -85 70 -92 63 -10 -10 28 -66
79 -117 72 -71 217 -178 311 -231 43 -24 74 -45 68 -47 -13 -4 -128 42 -233
94 -48 24 -90 44 -93 44 -7 0 83 -80 115 -102 38 -26 0 -23 -44 3 -48 28 -46
16 2 -15 20 -13 75 -32 120 -42 67 -14 93 -25 129 -54 42 -36 114 -61 243 -86
19 -3 51 -15 70 -26 19 -10 27 -17 17 -14 -52 16 -155 28 -195 22 -25 -3 -99
-31 -163 -61 -117 -55 -200 -77 -213 -57 -4 6 15 15 49 22 45 9 56 16 61 36
12 47 -39 71 -82 39 -29 -22 -37 -18 -17 10 26 35 98 58 143 45 48 -14 50 -12
10 10 -49 27 -148 27 -201 -1 -23 -11 -44 -18 -47 -15 -12 13 53 65 96 77 l47
13 -60 7 c-80 9 -90 14 -119 62 -13 23 -45 67 -71 97 -51 58 -48 70 10 46 74
-31 55 -9 -52 60 -47 30 -84 57 -81 59 2 2 39 -14 82 -36 43 -21 90 -39 104
-39 23 0 21 3 -20 29 -60 38 -81 62 -128 146 -37 68 -75 102 -128 119 -12 4
-22 12 -22 18 0 12 140 6 173 -7 9 -4 17 -3 17 3 0 5 -21 12 -47 16 -65 9
-262 16 -295 10z"></path>
<path class="node" id="node2" d="M2765 2245 c-11 -2 -51 -7 -89 -10 -37 -4 -64 -11 -60 -15 5 -5 29
-5 54 0 56 11 130 13 130 3 0 -5 -25 -21 -56 -37 -48 -25 -60 -38 -94 -100
-46 -84 -67 -108 -128 -147 -40 -25 -43 -29 -21 -29 13 0 58 16 98 35 41 20
76 34 78 31 2 -2 -35 -29 -83 -60 -89 -59 -105 -83 -34 -51 22 10 42 16 45 13
3 -3 -20 -36 -50 -73 -31 -37 -62 -80 -70 -95 -18 -34 -34 -42 -110 -50 -59
-6 -59 -12 -1 -25 32 -7 97 -66 79 -72 -6 -2 -26 5 -44 16 -46 28 -149 28
-199 1 l-35 -19 35 6 c19 3 36 7 38 8 10 9 81 -21 105 -43 36 -34 35 -49 -2
-23 -48 35 -91 23 -91 -26 0 -25 18 -37 73 -47 40 -7 51 -26 15 -26 -41 0
-101 21 -190 65 -138 69 -203 76 -353 39 -11 -2 -4 4 15 15 19 11 53 23 75 26
107 17 194 48 233 81 31 26 60 39 129 55 48 11 105 31 126 45 52 34 46 38 -13
7 -59 -30 -76 -26 -28 8 34 23 121 99 114 99 -3 0 -44 -20 -93 -44 -107 -53
-221 -98 -234 -94 -6 2 25 23 68 47 96 54 240 161 311 231 52 52 89 107 78
117 -6 6 -70 -40 -101 -73 -27 -28 -184 -154 -192 -154 -4 0 48 56 115 123
111 113 138 147 114 147 -19 0 -96 -61 -203 -161 -137 -128 -160 -147 -230
-193 -95 -63 -87 -46 18 41 50 41 87 97 79 119 -9 23 -51 -6 -164 -113 -53
-50 -99 -90 -101 -88 -6 6 83 110 151 177 69 67 196 154 299 203 41 20 63 33
49 29 -40 -10 -193 -88 -257 -130 -87 -58 -187 -163 -299 -314 -96 -129 -194
-278 -194 -295 0 -4 15 4 33 17 125 94 322 90 489 -10 59 -35 68 -37 143 -37
73 1 86 4 151 39 40 20 82 48 94 61 l22 23 -40 -5 c-22 -3 -48 -1 -57 5 -15 8
-9 14 42 41 107 57 166 126 179 211 l7 44 -35 -22 c-42 -26 -128 -41 -128 -22
0 14 32 40 114 93 82 52 276 250 300 305 28 62 15 71 -104 76 -52 3 -104 3
-115 1z"></path>
<path class="node" id="node3" d="M1120 2090 c0 -29 119 -260 216 -420 8 -14 20 -37 25 -52 6 -16 15
-28 19 -28 16 0 -172 426 -212 481 -31 43 -48 50 -48 19z"></path>
<path class="node" id="node4" d="M1849 2078 c-17 -28 -153 -304 -194 -393 -8 -16 -32 -70 -55 -119
-22 -49 -39 -90 -37 -92 2 -3 32 46 66 108 34 62 68 124 76 138 85 143 185
339 185 362 0 37 -16 35 -41 -4z"></path>
<path class="node" id="node5" d="M1129 1453 c-1 -5 -2 -24 -3 -42 -1 -27 -7 -39 -28 -50 -23 -13 -36
-14 -100 -2 -161 30 -189 26 -214 -36 -15 -35 -13 -63 8 -131 10 -33 28 -35
28 -2 0 28 20 68 38 75 9 3 27 -6 45 -22 30 -29 97 -151 97 -178 0 -31 55 -73
124 -96 93 -29 142 -75 158 -146 7 -29 16 -53 20 -53 14 0 9 129 -6 164 -8 19
-30 52 -50 73 -20 22 -44 60 -55 83 -17 39 -18 47 -6 71 16 30 33 39 76 39 87
0 150 -102 103 -168 -9 -13 -14 -25 -11 -28 7 -8 55 14 77 36 28 28 28 120 -1
175 -50 93 -174 205 -258 234 -40 13 -41 13 -42 4z m65 -97 c-15 -50 -67 -76
-151 -76 -24 0 -43 -3 -43 -6 0 -13 50 -114 57 -114 5 0 21 16 36 35 56 70
178 106 227 67 l24 -20 -69 5 c-64 4 -74 2 -112 -23 -60 -40 -71 -72 -44 -125
12 -23 20 -44 17 -46 -6 -7 -77 36 -93 57 -7 8 -31 49 -54 90 -23 41 -53 87
-67 102 -14 15 -23 31 -19 34 3 4 35 -1 71 -11 115 -31 196 -7 196 59 1 29 1
30 15 12 9 -12 12 -29 9 -40z"></path>
<path class="node" id="node6" d="M1829 1445 c-55 -20 -109 -57 -167 -115 -73 -74 -103 -130 -109 -201
-6 -56 -5 -59 30 -94 19 -19 44 -35 56 -35 l20 0 -21 36 c-18 31 -19 40 -10
73 15 50 51 81 101 88 48 7 87 -14 97 -51 7 -30 -25 -94 -75 -149 -45 -49 -63
-98 -60 -161 4 -63 16 -78 24 -30 16 86 63 132 170 165 68 21 115 55 115 83 0
9 13 44 29 79 34 74 91 140 114 131 19 -7 47 -63 48 -96 1 -42 38 63 38 110 1
35 -5 49 -28 73 -35 35 -70 37 -181 10 -107 -26 -156 -5 -143 60 6 34 -4 39
-48 24z m4 -58 c-3 -13 3 -33 15 -46 25 -32 108 -40 186 -17 67 20 83 14 51
-18 -13 -13 -33 -43 -45 -67 -46 -90 -92 -150 -132 -170 -22 -11 -42 -19 -44
-16 -2 2 6 22 18 43 30 55 20 87 -40 125 -44 29 -52 30 -116 25 -65 -5 -68 -4
-52 12 23 23 109 22 156 -2 19 -10 54 -37 77 -59 24 -22 44 -39 45 -36 10 15
48 101 48 109 0 6 -17 10 -39 10 -61 0 -99 11 -126 36 -32 29 -35 94 -5 94 4
0 5 -10 3 -23z"></path>
<path class="node" id="node7" d="M1482 1130 c5 -225 8 -263 24 -247 7 7 21 403 16 455 -3 25 -8 32
-24 32 -21 0 -21 -2 -16 -240z"></path>
</g>
<g transform="translate(0.000000,300.000000) scale(0.100000,-0.100000)" fill="#A1A1A1" stroke="none">

<path class="node" id="node9" d="M1170 1384 c0 -66 -81 -90 -196 -59 -36 10 -68 15 -71 11 -4 -3 5
-19 19 -34 14 -15 44 -61 67 -102 23 -41 47 -82 54 -90 16 -21 87 -64 93 -57
3 2 -5 23 -17 46 -27 53 -16 85 44 125 38 25 48 27 112 23 l69 -5 -24 20 c-49
39 -171 3 -227 -67 -15 -19 -31 -35 -36 -35 -7 0 -57 101 -57 114 0 3 19 6 43
6 56 0 110 16 129 38 25 27 29 56 13 78 -14 18 -14 17 -15 -12z"></path>
<path class="node" id="node10" d="M1817 1403 c-4 -3 -7 -19 -7 -35 0 -54 58 -88 151 -88 22 0 39 -4 39
-10 0 -8 -38 -94 -48 -109 -1 -3 -21 14 -45 36 -23 22 -58 49 -77 59 -47 24
-133 25 -156 2 -16 -16 -13 -17 52 -12 64 5 72 4 116 -25 60 -38 70 -70 40
-125 -12 -21 -20 -41 -18 -43 2 -3 22 5 44 16 40 20 86 80 132 170 12 24 32
54 45 67 32 32 16 38 -51 18 -78 -23 -161 -15 -186 17 -12 13 -18 33 -15 46 4
22 -3 30 -16 16z"></path>
</g>
</svg>