<!--?xml version="1.0" standalone="no"?-->

<svg version="1.0" xmlns="http://www.w3.org/2000/svg" width="300.000000pt" height="195.000000pt" viewBox="0 0 300.000000 195.000000" preserveAspectRatio="xMidYMid meet">
<g transform="translate(0.000000,195.000000) scale(0.100000,-0.100000)" fill="#101010" stroke="none">
<path class="node" id="node1" d="M340 1908 c0 -25 29 -89 68 -147 24 -36 35 -64 34 -83 -5 -61 54
-146 141 -203 21 -13 24 -21 17 -43 -4 -16 -13 -25 -21 -23 -114 31 -138 24
-81 -24 97 -83 107 -215 28 -349 -93 -158 -304 -201 -486 -100 l-45 25 39 -40
c67 -68 191 -111 324 -111 l53 0 -21 -29 c-64 -91 -98 -231 -80 -329 12 -68
33 -92 88 -99 34 -5 44 -1 66 20 47 47 29 117 -29 117 l-35 0 0 68 c0 70 21
176 43 218 11 22 13 11 13 -83 -1 -100 1 -111 27 -155 36 -62 78 -91 141 -96
44 -3 54 -1 74 21 19 20 23 34 20 73 -2 40 -8 51 -29 63 -23 12 -29 12 -59 -2
-18 -10 -35 -17 -36 -17 -2 0 -13 19 -25 42 -26 50 -30 133 -10 191 16 48 27
47 34 -3 9 -69 44 -128 93 -156 63 -37 120 -30 235 28 l89 46 0 -46 0 -46 28
26 c88 83 192 74 192 -17 0 -70 -53 -146 -112 -160 -24 -6 -29 -3 -39 21 -25
66 -63 81 -104 39 -34 -33 -35 -103 -1 -141 20 -24 32 -28 89 -32 113 -7 195
48 252 172 l32 68 20 -28 c47 -67 113 -227 113 -276 0 -37 16 -16 33 45 19 66
105 238 122 244 6 2 21 -24 33 -57 27 -68 93 -143 147 -166 40 -17 148 -19
177 -3 45 24 57 119 20 162 -33 37 -76 20 -118 -49 -12 -18 -13 -18 -50 1
-100 52 -115 225 -19 225 37 0 86 -23 115 -53 30 -31 40 -26 40 17 l0 33 97
-48 c121 -61 148 -67 206 -41 65 29 117 109 117 179 0 67 47 -22 49 -93 1 -35
-23 -110 -44 -138 -14 -18 -16 -18 -33 -3 -45 41 -112 8 -112 -55 0 -87 74
-122 166 -78 81 39 120 134 112 266 -3 48 -2 72 5 65 20 -20 47 -148 47 -224
l0 -79 -25 6 c-39 10 -79 -34 -71 -77 8 -43 40 -67 88 -67 119 0 141 202 42
391 -16 30 -30 57 -32 62 -2 4 37 7 86 7 128 0 234 40 299 112 17 20 16 20
-26 -2 -67 -34 -187 -52 -258 -39 -31 6 -73 19 -93 29 -45 23 -107 85 -130
131 -30 58 -52 159 -45 204 9 55 48 119 90 145 19 12 35 24 35 27 0 3 -31 3
-69 1 -67 -5 -70 -4 -76 20 -3 13 -5 25 -3 27 2 1 26 17 53 35 79 54 114 104
115 164 0 27 10 51 34 85 41 57 61 94 75 146 l11 40 -25 -32 c-27 -33 -174
-128 -290 -186 -86 -43 -261 -145 -377 -219 -141 -92 -266 -230 -361 -400 -36
-65 -57 -84 -57 -53 0 22 -59 85 -80 85 -17 0 -61 -44 -87 -86 -11 -19 -11
-19 -19 1 -4 11 -37 70 -73 130 -50 84 -90 134 -166 211 -85 86 -128 118 -290
220 -104 66 -221 137 -260 158 -93 51 -182 110 -227 154 -26 25 -38 31 -38 20z
m271 -244 c48 -40 107 -114 91 -114 -30 0 -137 42 -167 65 -36 27 -44 52 -23
73 21 21 55 13 99 -24z m1897 -11 c14 -27 -2 -58 -40 -76 -76 -36 -152 -59
-162 -49 -8 7 50 72 98 109 46 36 90 43 104 16z m-1579 -232 c133 -86 177
-201 100 -265 -54 -46 -167 -26 -257 45 -86 66 -100 219 -21 219 17 0 54 -14
68 -26 2 -2 -6 -15 -18 -30 -11 -15 -21 -34 -21 -44 0 -48 91 -111 130 -90 38
20 20 150 -27 202 -24 26 -6 22 46 -11z m1169 -47 c-37 -74 -38 -137 -4 -159
28 -19 51 -11 99 33 33 31 35 67 5 99 l-21 23 37 15 c46 20 70 13 86 -24 23
-55 -9 -136 -73 -185 -39 -30 -137 -66 -179 -66 -43 0 -83 25 -102 64 -21 45
-21 53 9 113 20 39 41 62 92 97 37 25 70 46 73 46 4 0 -6 -25 -22 -56z m-893
-209 c52 -64 105 -167 105 -202 0 -19 -7 -15 -50 27 -33 32 -73 58 -119 77
l-69 28 29 33 c23 26 29 42 29 79 0 54 -3 56 75 -42z m665 30 c0 -42 22 -90
45 -99 20 -7 10 -26 -14 -26 -30 0 -141 -61 -178 -97 -19 -19 -36 -33 -38 -31
-7 6 33 106 56 140 38 56 113 147 122 148 4 0 7 -16 7 -35z m-1083 -81 c50
-26 60 -44 25 -44 -9 0 -54 -16 -100 -35 l-83 -34 21 34 c11 18 25 58 32 89
l11 57 21 -20 c12 -10 44 -31 73 -47z m1561 -111 c16 -29 12 -29 -46 1 -26 13
-71 31 -101 41 l-54 18 59 27 c32 15 68 35 79 43 19 15 21 13 35 -46 9 -34 21
-72 28 -84z m-1257 17 c18 -12 -1 -69 -46 -141 -42 -68 -115 -120 -199 -144
-69 -19 -104 -13 -138 23 -32 34 -39 65 -26 103 12 35 35 49 78 49 27 0 31 -3
25 -17 -19 -44 -12 -58 31 -61 104 -8 144 135 43 155 -47 9 -21 21 66 31 103
11 149 12 166 2z m1044 -31 l40 -12 -34 -8 c-44 -9 -64 -31 -63 -68 1 -42 19
-71 54 -85 57 -24 106 3 80 45 -17 26 -15 29 13 29 84 0 123 -85 69 -149 -37
-44 -82 -50 -169 -20 -54 18 -81 35 -121 74 -49 48 -95 129 -109 189 l-6 29
103 -6 c57 -4 121 -12 143 -18z m-857 -97 c24 -24 57 -72 74 -107 32 -69 34
-110 3 -57 -38 64 -142 115 -213 104 -18 -2 -32 -2 -32 2 0 3 14 35 32 70 l32
65 30 -17 c16 -9 50 -36 74 -60z m576 -4 c14 -35 26 -65 26 -68 0 -3 -22 -3
-50 -2 -71 5 -117 -14 -173 -71 -52 -54 -56 -45 -16 33 39 76 132 170 170 170
10 0 26 -23 43 -62z"></path>
<path class="node" id="node2" d="M1177 1609 c-10 -6 -17 -22 -17 -38 0 -22 9 -35 40 -56 70 -48 148
-157 186 -257 19 -53 23 -58 23 -32 2 61 -21 150 -55 220 -52 106 -137 185
-177 163z"></path>
<path class="node" id="node3" d="M1764 1578 c-46 -36 -71 -68 -108 -138 -38 -71 -51 -117 -60 -200 -5
-55 -5 -55 8 -20 44 116 118 220 197 277 44 31 50 39 47 67 -4 41 -41 47 -84
14z"></path>
<path class="node" id="node4" d="M1615 466 c-11 -70 1 -252 19 -313 19 -60 69 -118 110 -129 36 -9 93
17 107 50 17 38 4 69 -60 143 -72 82 -116 153 -146 236 l-23 62 -7 -49z m154
-300 c50 -48 37 -97 -22 -82 -31 7 -56 63 -63 139 l-6 62 30 -45 c17 -25 44
-58 61 -74z"></path>
<path class="node" id="node5" d="M1350 485 c0 -39 -80 -169 -150 -245 -69 -73 -80 -91 -80 -125 0 -25
8 -40 31 -59 83 -70 183 13 209 174 13 84 13 270 0 270 -5 0 -10 -7 -10 -15z
m-64 -310 c-18 -62 -38 -85 -70 -85 -57 0 -57 53 0 96 18 14 44 43 56 63 l23
36 3 -28 c2 -15 -4 -52 -12 -82z"></path>
</g>
<g transform="translate(0.000000,195.000000) scale(0.100000,-0.100000)" fill="#A1A1A1" stroke="none">

<path class="node" id="node7" d="M1684 223 c7 -76 32 -132 63 -139 59 -15 72 34 22 82 -17 16 -44 49
-61 74 l-30 45 6 -62z"></path>
<path class="node" id="node8" d="M1272 249 c-12 -20 -38 -49 -56 -63 -40 -30 -53 -61 -36 -81 16 -20
55 -19 74 1 20 20 48 116 44 151 l-3 28 -23 -36z"></path>
<path class="node" id="node9" d="M512 1688 c-21 -21 -13 -46 23 -73 30 -23 137 -65 167 -65 16 0 -43
74 -91 114 -44 37 -78 45 -99 24z"></path>
<path class="node" id="node10" d="M2404 1637 c-48 -37 -106 -102 -98 -109 10 -10 86 13 162 49 38 18
54 49 40 76 -14 27 -58 20 -104 -16z"></path>
<path class="node" id="node11" d="M883 1432 c47 -52 65 -182 27 -202 -39 -21 -130 42 -130 90 0 10 10
29 21 44 12 15 20 28 18 30 -2 2 -14 8 -26 15 -111 58 -130 -124 -21 -208 14
-12 50 -32 80 -46 178 -83 290 64 155 203 -51 53 -168 123 -124 74z"></path>
<path class="node" id="node12" d="M2047 1384 c-51 -35 -72 -58 -92 -97 -30 -60 -30 -68 -9 -113 19 -39
59 -64 102 -64 42 0 140 36 179 66 64 49 96 130 73 185 -16 37 -40 44 -86 24
l-37 -15 21 -23 c30 -32 28 -68 -5 -99 -48 -44 -71 -52 -99 -33 -34 22 -33 85
4 159 16 31 26 56 22 56 -3 0 -36 -21 -73 -46z"></path>
<path class="node" id="node13" d="M1130 1207 c0 -37 -6 -53 -29 -79 l-29 -33 69 -28 c46 -19 86 -45
119 -77 43 -42 50 -46 50 -27 0 35 -53 138 -105 202 -78 98 -75 96 -75 42z"></path>
<path class="node" id="node14" d="M1810 1173 c-25 -31 -56 -72 -69 -91 -23 -34 -63 -134 -56 -140 2 -2
19 12 38 31 37 36 148 97 178 97 24 0 34 19 14 26 -23 9 -45 57 -45 99 0 19
-3 35 -7 35 -5 -1 -28 -26 -53 -57z"></path>
<path class="node" id="node15" d="M682 1124 c-7 -31 -21 -71 -32 -89 l-21 -34 83 34 c46 19 91 35 100
35 35 0 25 18 -25 44 -29 16 -61 37 -73 47 l-21 20 -11 -57z"></path>
<path class="node" id="node16" d="M2285 1133 c-11 -8 -47 -28 -79 -43 l-59 -27 54 -18 c30 -10 75 -28
101 -41 58 -30 62 -30 46 -1 -7 12 -19 50 -28 84 -14 59 -16 61 -35 46z"></path>
<path class="node" id="node17" d="M925 1018 c-87 -10 -113 -22 -66 -31 101 -20 61 -163 -43 -155 -43 3
-50 17 -31 61 6 14 2 17 -25 17 -43 0 -66 -14 -78 -49 -13 -38 -6 -69 26 -103
34 -36 69 -42 138 -23 116 33 212 126 246 238 18 58 0 63 -167 45z"></path>
<path class="node" id="node18" d="M1895 984 c14 -60 60 -141 109 -189 40 -39 67 -56 121 -74 87 -30
132 -24 169 20 54 64 15 149 -69 149 -28 0 -30 -3 -13 -29 26 -42 -23 -69 -80
-45 -35 14 -53 43 -54 85 -1 37 19 59 63 68 l34 8 -40 12 c-22 6 -86 14 -143
18 l-103 6 6 -29z"></path>
<path class="node" id="node19" d="M1142 904 c-18 -35 -32 -67 -32 -70 0 -4 14 -4 32 -2 71 11 175 -40
213 -104 31 -53 29 -12 -3 57 -31 65 -94 136 -148 167 l-30 17 -32 -65z"></path>
<path class="node" id="node20" d="M1751 915 c-63 -50 -114 -123 -136 -195 -6 -19 3 -13 42 27 56 57
102 76 173 71 28 -1 50 -1 50 2 0 3 -12 33 -26 68 -17 39 -33 62 -43 62 -9 0
-36 -16 -60 -35z"></path>
</g>
</svg>