<!--?xml version="1.0" standalone="no"?-->

<svg version="1.0" xmlns="http://www.w3.org/2000/svg" width="300.000000pt" height="278.000000pt" viewBox="0 0 300.000000 278.000000" preserveAspectRatio="xMidYMid meet">
<g transform="translate(0.000000,278.000000) scale(0.100000,-0.100000)" fill="#121212" stroke="none">
<path class="node" id="node1" d="M246 2559 c-24 -41 -46 -124 -46 -177 0 -48 27 -187 42 -215 9 -17
11 -16 29 7 13 17 30 26 47 26 33 0 45 -8 61 -38 15 -28 6 -59 -25 -92 -35
-38 -54 -93 -54 -160 0 -71 15 -112 60 -163 39 -45 118 -72 177 -61 l37 7 -44
14 c-55 16 -71 28 -99 73 -25 41 -28 117 -7 158 28 54 62 75 125 80 92 7 124
-9 227 -113 114 -116 163 -149 272 -187 48 -17 107 -41 132 -53 46 -23 134
-94 127 -101 -2 -2 -43 16 -91 40 -80 41 -194 76 -246 76 -20 0 -19 -3 12 -40
39 -45 64 -110 44 -110 -17 0 -98 62 -120 92 -16 22 -17 21 -12 -48 3 -39 13
-88 21 -108 18 -43 8 -46 -28 -8 -35 37 -72 131 -86 217 -23 149 -64 226 -144
266 -53 28 -127 22 -162 -11 -50 -47 -21 -140 48 -156 17 -4 27 -2 27 5 0 6
-6 11 -13 11 -21 0 -47 34 -47 62 0 35 34 62 75 61 49 -1 100 -37 130 -91 38
-68 42 -117 14 -198 -18 -54 -23 -91 -23 -174 -1 -58 5 -123 11 -145 18 -58
72 -134 121 -172 57 -44 77 -42 25 1 -53 46 -94 138 -100 225 l-5 66 26 -52
c24 -50 100 -143 117 -143 4 0 5 16 2 35 -6 36 8 65 32 65 6 0 20 -17 29 -39
21 -44 54 -72 110 -91 40 -13 112 -8 146 10 35 19 73 80 85 138 11 56 12 56
25 32 7 -14 16 -60 18 -102 4 -63 1 -84 -17 -120 -28 -59 -63 -78 -143 -78
-48 0 -77 6 -111 24 -51 25 -57 22 -27 -16 l19 -25 -58 -12 c-101 -20 -161
-80 -196 -196 l-13 -40 -12 45 c-7 24 -10 62 -7 82 3 21 2 38 -2 38 -8 0 -61
-87 -61 -100 0 -6 -6 -10 -13 -10 -32 0 -49 139 -21 178 19 28 38 28 59 0 36
-50 4 76 -46 179 -73 151 -83 239 -39 353 23 59 32 137 21 180 l-9 35 -1 -34
c-1 -18 -18 -72 -40 -120 -21 -47 -41 -98 -45 -113 -3 -16 -11 -28 -17 -28 -6
0 -41 20 -77 44 -60 39 -123 97 -182 166 l-21 25 19 -40 c32 -66 110 -165 192
-245 69 -68 103 -120 79 -120 -18 0 -74 32 -118 68 -33 27 -41 30 -32 14 23
-44 114 -143 180 -199 l69 -58 -33 -30 c-18 -16 -38 -45 -44 -64 -17 -52 -13
-149 8 -226 22 -77 72 -177 79 -154 10 40 36 89 47 89 7 0 15 -18 19 -41 14
-89 61 -149 117 -149 31 0 45 7 75 38 34 34 36 35 31 12 -12 -46 -20 -187 -12
-216 7 -26 9 -24 20 32 21 96 94 228 186 335 27 31 49 65 49 76 0 10 -9 36
-20 58 -28 55 -26 59 19 33 l40 -23 26 25 c15 14 45 51 67 83 41 60 128 233
128 255 0 21 22 13 28 -10 20 -77 174 -332 208 -345 7 -3 30 5 50 16 39 23 55
21 35 -3 -7 -8 -19 -36 -26 -61 l-14 -46 50 -55 c90 -99 164 -234 194 -352
l15 -57 -3 135 -2 136 28 -33 c23 -26 37 -33 66 -33 60 1 97 44 122 143 6 26
15 47 20 47 12 0 39 -55 39 -80 0 -37 18 -21 49 45 40 83 53 142 54 235 0 91
-19 142 -62 165 l-32 16 33 26 c60 48 169 157 204 204 39 54 45 74 10 36 -29
-31 -114 -87 -133 -87 -31 0 -7 38 85 133 86 90 200 242 190 253 -2 2 -21 -16
-41 -41 -38 -45 -119 -111 -194 -158 l-42 -26 -17 52 c-9 29 -28 74 -42 100
-14 27 -27 72 -30 99 -4 39 -7 47 -14 33 -16 -27 -11 -105 12 -175 28 -88 36
-177 21 -237 -7 -26 -33 -90 -57 -142 -27 -55 -48 -115 -51 -145 l-6 -51 19
23 c54 66 96 -57 52 -153 -6 -14 -15 -25 -19 -25 -5 0 -20 22 -33 48 -36 70
-52 81 -48 31 5 -49 -7 -135 -17 -123 -4 5 -15 34 -24 66 -25 83 -78 131 -167
155 -39 9 -70 20 -70 24 0 3 9 14 20 24 33 30 22 38 -17 13 -32 -19 -51 -23
-125 -23 -77 0 -89 3 -112 24 -53 50 -69 156 -36 246 19 53 23 50 35 -20 18
-107 114 -165 223 -136 53 15 109 63 117 101 8 35 25 38 50 10 17 -18 17 -32
-1 -74 -6 -17 -3 -16 25 5 41 30 97 105 106 142 14 53 28 43 22 -15 -9 -88
-37 -156 -90 -214 -58 -64 -32 -63 35 1 110 105 142 271 87 454 -26 86 -24
141 6 201 39 78 113 122 169 100 54 -20 53 -99 -1 -122 -21 -8 -24 -12 -11
-15 22 -6 75 22 88 46 38 71 -18 141 -112 141 -104 0 -187 -100 -208 -252 -14
-98 -44 -186 -81 -236 -31 -43 -57 -57 -44 -24 11 27 35 144 35 171 0 22 -6
18 -59 -32 -63 -61 -98 -74 -86 -34 15 47 39 88 63 107 22 18 23 20 5 20 -73
0 -216 -47 -294 -95 -56 -36 -69 -31 -25 10 50 46 129 88 226 120 104 35 179
85 272 184 89 94 137 120 218 121 69 0 112 -24 140 -79 25 -50 25 -94 1 -147
-22 -49 -62 -79 -116 -90 l-40 -7 35 -10 c85 -22 189 34 231 126 37 83 13 215
-50 271 -25 22 -27 63 -5 94 21 30 68 29 98 -3 l22 -24 18 49 c40 112 38 240
-6 337 l-23 52 0 -104 c0 -121 -12 -147 -43 -96 l-20 32 -20 -33 c-23 -36 -69
-76 -120 -102 -17 -9 -32 -23 -32 -31 0 -26 -44 -105 -58 -105 -11 0 -13 11
-10 50 6 63 -10 54 -48 -29 -30 -65 -51 -91 -72 -91 -12 0 -14 11 -10 52 l6
53 -28 -34 c-16 -18 -33 -52 -39 -75 -10 -42 -43 -86 -63 -86 -7 0 -9 18 -6
50 l5 51 -24 -23 c-14 -13 -38 -51 -55 -85 -29 -63 -74 -111 -89 -96 -5 5 -2
30 6 56 13 45 13 47 -4 37 -36 -19 -340 -326 -395 -398 -30 -40 -67 -97 -82
-127 -14 -30 -29 -55 -33 -55 -3 1 -19 29 -36 62 -43 89 -170 243 -304 368
-151 141 -187 171 -178 147 4 -10 10 -37 13 -59 7 -38 6 -40 -13 -29 -31 16
-70 67 -78 99 -3 16 -19 45 -36 65 -33 40 -57 50 -39 18 11 -22 14 -74 3 -84
-13 -14 -52 37 -69 89 -9 29 -27 62 -39 74 l-23 22 5 -40 c10 -78 -41 -59 -79
29 -11 26 -28 55 -39 65 -19 17 -19 16 -13 -29 6 -38 4 -47 -8 -47 -21 0 -48
43 -55 86 -5 28 -14 38 -58 63 -29 17 -70 51 -91 77 -38 46 -38 46 -47 21 -7
-23 -37 -46 -37 -29 0 4 -4 35 -9 69 -6 37 -6 78 0 103 12 53 8 58 -15 19z
m935 -1089 c29 -16 52 -68 45 -104 -9 -42 -26 -63 -68 -80 -31 -13 -38 -13
-75 4 -31 14 -44 27 -53 54 -14 44 0 98 33 121 25 17 89 20 118 5z m750 -19
c23 -24 29 -38 29 -74 0 -38 -5 -49 -31 -71 -69 -59 -169 -15 -169 74 0 33 6
48 29 71 23 23 38 29 71 29 33 0 48 -6 71 -29z m-866 -543 c15 -12 36 -35 46
-51 l18 -30 -30 -39 c-17 -21 -34 -38 -38 -38 -4 0 -13 18 -20 40 -32 108
-141 72 -141 -47 0 -43 -1 -45 -15 -27 -19 25 -19 107 0 144 36 69 123 93 180
48z m1009 -18 c33 -37 36 -45 36 -99 0 -64 -6 -91 -22 -91 -5 0 -7 12 -3 29 8
38 -20 105 -50 119 -38 17 -63 4 -88 -49 l-23 -49 -33 34 c-32 33 -33 37 -21
66 21 51 64 80 120 80 43 0 51 -4 84 -40z"></path>
<path class="node" id="node2" d="M1402 1018 c-18 -29 -46 -69 -62 -89 l-31 -35 21 -47 c34 -76 4 -115
-61 -81 -36 18 -37 17 -99 -67 l-20 -27 33 -6 c41 -8 85 -51 93 -92 11 -55
-58 -108 -94 -72 -15 15 -15 51 0 66 9 9 8 12 -5 12 -20 0 -37 -30 -37 -65 0
-36 42 -75 79 -75 73 0 116 48 115 128 l-1 53 20 -33 c25 -40 34 -141 18 -191
-13 -39 -72 -104 -105 -116 -11 -5 -38 -11 -59 -15 l-38 -7 6 45 c10 62 -12
96 -59 96 -36 0 -53 -13 -56 -45 -4 -35 2 -51 9 -25 10 37 55 35 59 -3 3 -21
-5 -36 -31 -62 -29 -29 -42 -35 -77 -35 -105 0 -154 87 -127 225 l7 40 -22
-40 c-32 -58 -30 -150 5 -229 15 -32 27 -63 27 -68 0 -6 -22 -34 -49 -63 -66
-73 -82 -134 -17 -66 15 15 56 43 92 61 36 18 76 47 90 65 31 41 37 43 146 55
100 10 154 35 206 95 48 53 63 90 69 164 7 83 -9 154 -48 215 -27 44 -28 46
-9 56 13 7 27 7 46 0 37 -15 38 -9 4 31 -34 40 -35 46 -13 71 15 17 14 18 -15
24 -18 4 -32 9 -32 13 0 4 20 26 45 49 25 23 45 49 45 57 0 16 -26 85 -32 85
-2 0 -18 -24 -36 -52z"></path>
<path class="node" id="node3" d="M1530 1041 c-22 -43 -12 -77 35 -115 51 -42 56 -56 21 -56 -32 0 -41
-16 -22 -36 21 -21 21 -23 -16 -61 -33 -34 -33 -52 0 -34 18 9 62 5 62 -7 0
-3 -11 -24 -24 -46 -29 -50 -56 -138 -56 -184 0 -55 29 -139 63 -184 47 -61
117 -96 218 -109 105 -13 131 -23 158 -60 12 -16 48 -42 80 -59 32 -16 73 -43
90 -61 18 -17 34 -29 37 -26 10 9 -27 71 -67 113 l-40 40 28 60 c23 48 28 73
28 134 0 47 -6 85 -15 102 -14 25 -15 22 -15 -63 l0 -90 -37 -35 c-32 -29 -45
-34 -88 -34 -43 0 -54 4 -85 36 -27 26 -35 43 -33 62 4 37 47 38 65 2 l13 -25
0 31 c0 39 -27 64 -68 64 -27 0 -35 -6 -49 -35 -13 -28 -14 -39 -5 -60 7 -14
12 -31 12 -36 0 -12 -73 -3 -105 13 -31 16 -75 60 -92 92 -29 55 -16 205 20
234 9 8 12 -4 12 -49 0 -50 4 -62 26 -85 16 -16 41 -28 67 -31 36 -5 45 -2 72
25 16 17 30 39 30 50 0 24 -35 70 -46 59 -4 -4 -2 -13 4 -19 16 -16 15 -34 -4
-52 -37 -38 -94 -1 -94 60 0 42 45 91 92 101 15 3 28 8 28 12 0 4 -19 28 -42
54 l-43 48 -34 -17 c-25 -12 -38 -14 -50 -7 -19 12 -20 65 -1 109 13 29 11 33
-29 84 -23 29 -49 66 -57 82 -17 33 -29 35 -44 9z"></path>
</g>
<g transform="translate(0.000000,278.000000) scale(0.100000,-0.100000)" fill="#A1A1A1" stroke="none">





</g>
</svg>