<!--?xml version="1.0" standalone="no"?-->

<svg version="1.0" xmlns="http://www.w3.org/2000/svg" width="300.000000pt" height="286.000000pt" viewBox="0 0 300.000000 286.000000" preserveAspectRatio="xMidYMid meet">
<g transform="translate(0.000000,286.000000) scale(0.100000,-0.100000)" fill="#1B1B1B" stroke="none">
<path class="node" id="node1" d="M2057 2819 c-73 -60 -97 -152 -56 -210 29 -41 52 -52 84 -37 21 9 25
18 23 42 -2 23 -9 32 -25 34 -16 2 -23 -2 -25 -15 0 -10 -2 -22 -3 -28 -2 -5
-3 -14 -4 -19 0 -5 -13 1 -27 15 -23 21 -25 30 -21 71 7 58 23 84 63 103 76
36 148 0 160 -81 14 -94 -33 -283 -112 -451 l-34 -73 -55 0 c-31 0 -68 -6 -84
-14 -42 -22 -101 -92 -103 -124 -2 -51 4 -87 19 -111 15 -23 14 -25 -16 -48
-19 -15 -31 -33 -31 -49 0 -32 5 -30 41 11 17 19 37 35 45 35 8 0 13 4 11 9
-1 5 21 37 49 72 28 35 67 87 88 114 21 28 42 50 48 50 6 0 20 -13 32 -28 34
-46 28 -144 -14 -227 -67 -132 -163 -232 -309 -320 -77 -46 -79 -48 -56 -60
20 -11 29 -9 72 21 131 89 281 231 348 330 70 103 348 443 392 480 11 9 42 28
69 42 154 83 258 75 284 -22 14 -52 4 -93 -35 -138 -35 -41 -108 -83 -144 -83
-25 0 -62 17 -73 34 -16 24 -8 42 19 41 34 0 43 29 14 45 -17 8 -25 6 -42 -11
-29 -29 -20 -85 17 -118 24 -20 35 -23 95 -19 57 3 75 9 111 35 63 46 117 128
118 179 0 75 -70 147 -155 159 -54 9 -143 -16 -201 -55 -57 -40 -201 -195
-287 -310 -75 -100 -139 -170 -157 -170 -5 0 -10 22 -10 50 0 56 -34 155 -57
169 -14 8 -12 14 16 50 79 100 189 173 234 156 24 -10 38 -51 26 -82 -20 -53
-79 -74 -79 -28 0 16 -6 25 -15 25 -24 0 -17 -38 10 -56 39 -25 76 -5 109 59
31 63 32 81 6 107 -40 40 -119 13 -202 -68 -53 -51 -57 -47 -28 30 44 114 73
242 74 323 1 68 -3 86 -23 119 -50 80 -129 99 -194 45z m-7 -695 c0 -6 -97
-135 -138 -183 -36 -42 -46 -30 -37 39 8 60 38 107 85 131 32 18 90 26 90 13z"></path>

<path class="node" id="node3" d="M1688 2673 c-13 -16 -38 -46 -54 -68 -16 -22 -34 -46 -41 -53 -20
-21 -128 -252 -156 -332 -66 -195 -82 -289 -75 -439 6 -120 30 -178 100 -243
51 -49 45 -67 -8 -26 -40 31 -50 44 -83 108 -74 142 -112 382 -92 568 12 111
48 255 61 247 5 -3 13 -35 20 -73 6 -37 19 -85 29 -107 16 -35 20 -37 26 -20
4 11 18 43 30 71 25 56 26 45 -15 217 -7 26 -10 74 -8 107 1 33 0 60 -5 60
-11 0 -73 -100 -100 -162 -13 -29 -34 -98 -48 -153 -21 -87 -24 -124 -24 -275
0 -149 4 -188 23 -264 13 -49 30 -102 38 -117 11 -23 12 -30 1 -41 -43 -42
-48 -99 -13 -143 22 -27 22 -31 9 -63 -23 -55 -20 -195 6 -271 14 -39 23 -92
24 -137 2 -70 2 -72 17 -46 12 21 15 64 15 195 0 93 3 160 6 150 4 -10 15 -45
24 -78 24 -85 70 -228 101 -310 64 -172 78 -233 78 -362 1 -68 2 -123 3 -123
2 0 47 74 66 110 42 80 77 182 79 235 3 52 4 55 26 50 18 -4 22 -1 22 19 0 14
5 28 11 32 20 12 51 95 45 119 -3 12 1 37 10 55 26 52 16 193 -19 252 -25 43
-75 95 -114 117 -17 9 -16 11 7 28 45 31 87 83 99 122 17 58 14 115 -8 143
-13 16 -18 33 -14 47 6 24 -19 124 -48 188 -28 61 -42 138 -37 199 3 40 1 54
-8 54 -11 0 -10 8 1 40 13 37 12 47 -6 107 -28 89 -24 110 48 281 10 22 -23
12 -49 -15z m-62 -278 c9 -51 -3 -100 -46 -185 -40 -80 -75 -178 -67 -187 3
-2 14 19 24 47 21 60 83 137 101 126 26 -16 5 -101 -42 -170 -14 -21 -26 -43
-26 -49 0 -5 10 5 23 24 46 68 107 40 107 -49 0 -40 -5 -48 -64 -105 -74 -72
-136 -151 -136 -175 0 -9 16 6 34 34 72 106 144 140 185 88 44 -56 9 -116 -75
-129 -53 -8 -95 -32 -135 -78 -28 -32 -48 -30 -50 6 0 12 -3 16 -6 10 -9 -23
-22 -13 -32 25 -14 48 -14 160 -1 256 14 98 90 329 156 473 8 17 14 37 14 45
0 16 9 28 21 28 5 0 11 -16 15 -35z m134 -786 c0 -3 -6 -13 -12 -22 -15 -20
-41 -22 -119 -12 -35 5 -63 3 -75 -3 -15 -8 -10 -9 23 -5 41 5 103 -11 103
-27 0 -4 -15 -15 -34 -25 -39 -21 -113 -16 -132 9 -6 9 -14 13 -17 9 -4 -3 -7
-2 -7 4 0 13 39 49 74 67 21 11 55 14 113 13 46 -1 83 -5 83 -8z m-135 -170
c106 -50 180 -215 129 -288 -18 -25 -71 -51 -103 -51 -18 0 -19 3 -11 26 24
61 3 177 -43 237 -34 46 -49 76 -42 87 9 14 20 13 70 -11z m-108 -28 c83 -66
113 -110 113 -164 0 -20 -1 -20 -27 5 -21 19 -43 27 -88 32 -69 7 -92 26 -114
94 -11 33 -12 44 -1 57 22 26 65 18 117 -24z m69 -159 c30 -26 44 -56 44 -96
0 -46 -16 -47 -24 -1 -8 42 -18 49 -75 50 -30 0 -47 5 -54 17 -27 42 64 67
109 30z m2 -140 c2 -19 -1 -47 -7 -64 -6 -17 -9 -34 -6 -37 3 -3 8 4 11 16 6
23 91 67 119 62 52 -11 69 -95 24 -120 -18 -9 -27 -6 -62 22 -23 18 -34 23
-24 12 10 -11 22 -36 28 -56 18 -67 -24 -114 -63 -69 -20 21 -50 82 -53 102
-1 8 -7 29 -14 45 -17 40 -25 90 -17 110 4 11 15 15 33 13 24 -2 29 -8 31 -36z"></path>
<path class="node" id="node4" d="M1502 1990 c0 -14 2 -19 5 -12 2 6 2 18 0 25 -3 6 -5 1 -5 -13z"></path>
<path class="node" id="node5" d="M1491 1924 c0 -11 3 -14 6 -6 3 7 2 16 -1 19 -3 4 -6 -2 -5 -13z"></path>
<path class="node" id="node6" d="M1478 1790 c-11 -38 -10 -56 3 -43 6 6 9 23 7 39 l-3 29 -7 -25z"></path>
<path class="node" id="node7" d="M1462 1675 c0 -16 2 -22 5 -12 2 9 2 23 0 30 -3 6 -5 -1 -5 -18z"></path>
<path class="node" id="node8" d="M1491 1634 c0 -11 3 -14 6 -6 3 7 2 16 -1 19 -3 4 -6 -2 -5 -13z"></path>





<path class="node" id="node14" d="M2007 1933 c-4 -3 -7 -19 -7 -35 0 -26 -3 -28 -42 -28 -35 -1 -40 -3
-25 -11 37 -22 117 22 117 63 0 18 -29 25 -43 11z"></path>
<path class="node" id="node15" d="M831 1657 c-21 -27 -3 -37 65 -37 45 0 77 -6 103 -20 22 -11 59 -22
83 -25 l43 -5 -35 14 c-20 7 -60 28 -89 46 -64 40 -148 53 -170 27z"></path>
<path class="node" id="node16" d="M2064 1591 c-58 -21 -122 -60 -144 -86 -14 -17 -13 -17 20 0 26 14
67 21 158 25 91 5 126 10 133 21 13 21 11 27 -11 39 -37 20 -103 20 -156 1z"></path>
<path class="node" id="node17" d="M863 1453 c-30 -6 -63 -49 -63 -83 0 -37 27 -67 75 -84 l40 -13 -35
-16 c-19 -8 -62 -25 -95 -37 -178 -66 -312 -157 -350 -236 -9 -20 -17 -61 -17
-92 -1 -48 3 -59 26 -79 15 -13 39 -23 54 -23 27 1 27 1 -5 15 -43 18 -49 49
-27 133 14 56 25 74 64 112 52 50 194 124 305 160 193 62 302 108 406 173 20
12 35 44 26 54 -3 3 -25 -8 -49 -24 -99 -68 -241 -115 -301 -99 -31 7 -87 53
-87 71 0 26 37 58 76 65 32 6 34 8 9 7 -16 0 -40 -2 -52 -4z"></path>
<path class="node" id="node18" d="M954 1442 c5 -8 1 -18 -10 -26 -20 -15 -5 -30 20 -20 21 8 20 28 -1
45 -13 11 -15 11 -9 1z"></path>


<path class="node" id="node21" d="M1246 1262 c-5 -9 -90 -59 -316 -187 -92 -52 -165 -103 -246 -172
-28 -24 -53 -43 -56 -43 -2 0 -2 16 0 35 4 37 -11 65 -34 65 -21 0 -17 -41 5
-47 16 -4 18 -9 10 -36 -5 -18 -21 -44 -36 -60 -16 -15 -39 -39 -53 -52 -32
-32 -129 -97 -250 -168 -139 -82 -202 -151 -241 -264 -37 -109 -12 -237 58
-290 49 -38 142 -44 200 -14 61 31 133 128 133 180 0 34 -18 33 -29 -2 -26
-77 -105 -147 -168 -147 -17 0 -52 9 -77 19 -37 16 -50 29 -71 71 -50 98 -32
207 52 317 29 38 122 102 266 182 109 61 118 61 96 5 -14 -40 12 -95 57 -119
34 -18 35 -18 79 3 42 20 84 66 72 78 -3 3 -8 -3 -11 -13 -8 -26 -58 -53 -98
-53 -45 0 -78 34 -78 80 0 47 67 155 125 204 132 109 219 168 373 250 174 93
262 145 262 154 -1 16 -18 34 -24 24z"></path>
<path class="node" id="node22" d="M1163 1128 c-17 -18 -35 -42 -41 -53 -23 -47 -35 -140 -37 -280 -1
-182 -12 -224 -70 -282 -34 -35 -49 -43 -78 -43 -52 0 -66 8 -87 51 -24 46
-26 128 -5 169 19 37 28 38 43 5 13 -28 40 -33 49 -9 9 24 -30 58 -59 51 -39
-10 -63 -69 -63 -156 0 -64 4 -82 25 -113 28 -42 57 -58 101 -58 61 0 108 40
155 130 l29 55 0 220 c0 239 3 253 63 318 14 15 21 27 16 27 -6 0 -24 -15 -41
-32z"></path>
<path class="node" id="node23" d="M1401 1135 c0 -16 8 -83 20 -148 20 -114 20 -121 4 -215 -9 -53 -25
-117 -36 -141 -25 -56 -25 -56 12 -30 40 28 106 130 115 176 4 18 1 55 -7 81
l-13 46 -8 -32 c-12 -45 -28 -40 -28 9 0 23 -11 87 -24 143 -14 55 -27 110
-29 121 -3 13 -5 10 -6 -10z"></path>
<path class="node" id="node24" d="M647 703 c-4 -3 -7 -17 -7 -30 0 -16 6 -23 20 -23 21 0 45 34 35 50
-7 11 -38 13 -48 3z"></path>
<path class="node" id="node25" d="M1825 680 c3 -5 11 -10 16 -10 6 0 7 5 4 10 -3 6 -11 10 -16 10 -6 0
-7 -4 -4 -10z"></path>

<path class="node" id="node27" d="M312 328 c-28 -28 3 -83 33 -58 8 7 15 19 15 26 0 17 17 18 23 2 4
-9 6 -10 6 -1 2 33 -53 55 -77 31z"></path>
<path class="node" id="node28" d="M391 264 c0 -11 3 -14 6 -6 3 7 2 16 -1 19 -3 4 -6 -2 -5 -13z"></path>

</g>
<g transform="translate(0.000000,286.000000) scale(0.100000,-0.100000)" fill="#A1A6DF" stroke="none">

<path class="node" id="node31" d="M1960 2111 c-47 -24 -77 -71 -85 -131 -9 -69 1 -81 37 -39 41 48 138
177 138 183 0 13 -58 5 -90 -13z"></path>
<path class="node" id="node32" d="M1597 2423 c-4 -3 -7 -13 -7 -21 0 -8 -6 -28 -14 -45 -66 -144 -142
-375 -156 -473 -13 -96 -13 -208 1 -256 10 -38 23 -48 32 -25 3 6 6 2 6 -10 2
-36 22 -38 50 -6 40 46 82 70 135 78 84 13 119 73 75 129 -41 52 -113 18 -185
-88 -18 -28 -34 -43 -34 -34 0 24 62 103 136 175 59 57 64 65 64 105 0 89 -61
117 -107 49 -13 -19 -23 -29 -23 -24 0 6 12 28 26 49 47 69 68 154 42 170 -18
11 -80 -66 -101 -126 -10 -28 -21 -49 -24 -47 -8 9 27 107 67 187 43 85 55
134 46 185 -7 34 -15 42 -29 28z m-90 -445 c-3 -7 -5 -2 -5 12 0 14 2 19 5 13
2 -7 2 -19 0 -25z m-10 -60 c-3 -8 -6 -5 -6 6 -1 11 2 17 5 13 3 -3 4 -12 1
-19z m-16 -171 c-13 -13 -14 5 -3 43 l7 25 3 -29 c2 -16 -1 -33 -7 -39z m-14
-84 c-3 -10 -5 -4 -5 12 0 17 2 24 5 18 2 -7 2 -21 0 -30z m30 -35 c-3 -8 -6
-5 -6 6 -1 11 2 17 5 13 3 -3 4 -12 1 -19z"></path>
<path class="node" id="node33" d="M1564 1604 c-35 -18 -74 -54 -74 -67 0 -6 3 -7 7 -4 3 4 11 0 17 -9
19 -25 93 -30 132 -9 19 10 34 21 34 25 0 16 -62 32 -103 27 -33 -4 -38 -3
-23 5 12 6 40 8 75 3 78 -10 104 -8 119 12 6 9 12 19 12 22 0 3 -37 7 -83 8
-58 1 -92 -2 -113 -13z"></path>
<path class="node" id="node34" d="M1555 1450 c-7 -11 8 -41 42 -87 46 -60 67 -176 43 -237 -8 -23 -7
-26 11 -26 32 0 85 26 103 51 51 73 -23 238 -129 288 -50 24 -61 25 -70 11z"></path>
<path class="node" id="node35" d="M1400 1435 c-11 -13 -10 -24 1 -57 22 -68 45 -87 114 -94 45 -5 67
-13 88 -32 26 -25 27 -25 27 -5 0 54 -30 98 -113 164 -52 42 -95 50 -117 24z"></path>
<path class="node" id="node36" d="M1479 1254 c-22 -27 1 -49 52 -49 57 -1 67 -8 75 -50 8 -46 24 -45
24 1 0 66 -42 113 -101 114 -22 0 -42 -7 -50 -16z"></path>
<path class="node" id="node37" d="M1524 1135 c-8 -20 0 -70 17 -110 7 -16 13 -37 14 -45 3 -20 33 -81
53 -102 39 -45 81 2 63 69 -6 20 -18 45 -28 56 -10 11 1 6 24 -12 35 -28 44
-31 62 -22 45 25 28 109 -24 120 -28 5 -113 -39 -119 -62 -3 -12 -8 -19 -11
-16 -3 3 0 20 6 37 6 17 9 45 7 64 -2 28 -7 34 -31 36 -18 2 -29 -2 -33 -13z"></path>
</g>
</svg>