<!--?xml version="1.0" standalone="no"?--><svg version="1.0" xmlns="http://www.w3.org/2000/svg" width="201.000000pt" height="300.000000pt" viewBox="0 0 201.000000 300.000000" preserveAspectRatio="xMidYMid meet">
<metadata>
  <rdf:rdf xmlns:rdf="http://www.w3.org/1999/02/22-rdf-syntax-ns#" xmlns:rdfs="http://www.w3.org/2000/01/rdf-schema#" xmlns:dc="http://purl.org/dc/elements/1.1/">
    <rdf:description dc:title="disney cuties dog with bone" dc:publisher="Hiox" dc:date="2015-05-19" dc:format="image/svg+xml" dc:language="en">
      <dc:creator>
        <rdf:bag>
          <rdf:li>svgimages.com</rdf:li>
        </rdf:bag>
      </dc:creator>
    </rdf:description>
  </rdf:rdf>
</metadata>
<g transform="translate(0.000000,300.000000) scale(0.100000,-0.100000)" fill="#1E1E1F" stroke="none">
<path d="M1366 2841 c-54 -56 -68 -157 -41 -298 16 -84 20 -243 7 -243 -13 0
-30 40 -41 98 -17 81 -68 154 -132 186 -29 14 -68 26 -86 26 -40 0 -99 -28
-148 -71 l-35 -31 -41 37 c-97 88 -204 87 -277 -1 -34 -40 -72 -129 -72 -166
0 -11 -18 -50 -41 -86 -45 -71 -74 -146 -85 -219 -7 -54 -95 -234 -174 -358
-128 -201 -163 -334 -125 -478 30 -114 87 -194 161 -225 16 -7 36 -27 44 -45
21 -45 106 -87 176 -87 75 0 157 33 194 78 16 20 30 32 30 26 0 -6 -9 -19 -20
-29 -25 -23 -49 -88 -53 -145 -2 -25 -9 -55 -15 -67 -12 -21 -12 -21 -49 -2
-20 10 -43 19 -51 19 -26 0 -88 -39 -102 -64 -16 -31 -20 -32 -70 -6 -56 29
-103 73 -142 133 l-33 52 -3 -52 c-6 -101 68 -207 185 -267 34 -17 54 -35 63
-55 18 -44 82 -99 125 -107 20 -3 52 -4 72 -1 24 4 43 1 61 -11 33 -21 172
-24 219 -3 28 12 41 11 98 -4 72 -20 172 -16 206 9 13 9 35 12 64 8 59 -6 88
2 130 40 92 80 108 220 34 289 -40 37 -79 45 -124 24 -48 -23 -62 -9 -71 67
-4 33 -17 81 -30 106 -13 25 -22 47 -21 49 10 9 45 -13 59 -37 9 -16 35 -41
59 -57 36 -24 53 -28 109 -28 56 0 73 4 108 28 77 50 102 145 56 215 -14 21
-13 26 15 64 18 25 31 54 31 72 0 49 -45 113 -99 141 -44 22 -49 28 -55 67 -4
24 -20 62 -36 84 l-30 42 27 123 c30 142 38 359 14 438 -9 33 -10 59 -2 110 6
36 15 124 20 194 5 71 13 133 19 139 6 6 34 -8 80 -42 117 -85 230 -111 317
-71 50 22 64 40 72 84 8 52 -24 80 -133 112 -152 45 -205 78 -300 189 -40 46
-78 48 -118 7z m107 -60 c28 -42 94 -99 142 -124 17 -8 68 -27 115 -41 85 -26
150 -58 150 -74 0 -17 -46 -50 -81 -60 -79 -21 -218 35 -312 126 -39 39 -49
44 -57 32 -12 -18 -40 -111 -41 -137 -3 -40 -30 96 -31 157 -2 85 28 160 65
160 17 0 32 -11 50 -39z m-686 -241 c29 -17 83 -81 97 -113 3 -8 9 -6 17 7 23
37 83 98 110 112 38 19 98 18 139 -5 42 -22 100 -125 100 -177 0 -24 10 -47
30 -72 78 -98 115 -253 100 -418 -5 -55 -21 -152 -36 -216 l-26 -118 32 -36
c48 -55 69 -123 33 -110 -9 4 -40 2 -69 -4 -51 -11 -97 -42 -120 -81 -6 -10
-29 -19 -65 -23 -53 -7 -56 -6 -55 15 2 37 -22 32 -48 -10 -28 -43 -88 -81
-131 -81 -42 0 -90 25 -122 65 -32 38 -63 43 -63 10 0 -9 -9 -15 -24 -15 -18
0 -25 7 -29 30 -4 16 -14 42 -24 56 -24 37 -107 74 -165 74 -60 0 -63 17 -13
67 l35 35 -24 86 c-42 151 -50 204 -50 332 0 105 3 136 23 195 25 73 42 105
73 141 10 11 27 54 37 96 25 98 44 134 84 158 42 26 112 26 154 0z m-397 -805
c7 -38 22 -96 32 -129 l19 -59 -25 -26 c-14 -14 -33 -44 -43 -66 -20 -45 -79
-122 -88 -114 -3 3 -9 30 -15 59 -13 68 -2 132 53 313 45 150 44 150 67 22z
m-125 -50 c-34 -105 -49 -207 -41 -274 8 -63 59 -197 87 -227 19 -20 19 -21
-6 -44 -13 -12 -29 -38 -35 -56 -13 -39 -13 -39 -46 -17 -66 43 -114 160 -114
277 0 100 19 158 90 282 101 175 102 175 65 59z m267 -297 c47 -14 85 -56 94
-102 6 -33 8 -34 64 -41 40 -5 64 -13 77 -27 29 -32 69 -48 120 -49 59 -1 99
14 138 51 23 22 45 31 100 39 64 9 76 15 117 54 71 68 168 74 249 15 76 -55
83 -124 20 -185 -31 -30 -34 -36 -20 -46 56 -43 64 -109 19 -160 -41 -47 -78
-60 -151 -55 -56 4 -65 8 -93 39 -17 20 -36 44 -41 53 -16 27 -82 36 -341 43
l-231 6 -21 -36 c-32 -51 -81 -71 -172 -71 -117 1 -160 31 -160 114 0 48 23
93 57 111 l23 13 -30 31 c-43 44 -49 92 -19 145 13 23 35 48 49 56 31 17 100
18 152 2z m488 -404 l32 -7 -32 -13 c-51 -22 -207 -18 -250 6 l-35 19 126 1
c70 0 141 -3 159 -6z m-260 -59 c56 -20 208 -20 284 0 32 8 62 12 68 9 6 -4
19 -27 30 -51 26 -60 26 -140 -2 -231 l-22 -72 31 -35 c34 -39 41 -84 16 -105
-12 -10 -15 -9 -15 7 0 27 -31 54 -50 43 -11 -7 -12 -13 -2 -35 7 -15 10 -31
7 -36 -12 -19 -31 -8 -40 23 -12 39 -39 58 -57 40 -9 -9 -9 -15 0 -24 7 -7 12
-20 12 -31 0 -16 -5 -18 -32 -12 -68 15 -69 16 -66 123 l3 96 32 7 c43 8 103
55 103 79 0 32 -17 32 -55 -1 -24 -22 -49 -33 -80 -36 -59 -7 -88 1 -129 37
-30 26 -35 28 -46 15 -11 -13 -8 -21 21 -51 18 -19 50 -40 71 -46 l38 -11 0
-98 0 -98 -41 -11 c-49 -13 -56 -9 -40 26 8 19 9 30 1 38 -16 16 -43 -5 -54
-43 -5 -17 -16 -31 -24 -31 -11 0 -13 8 -8 40 6 36 4 40 -14 40 -14 0 -25 -11
-34 -32 -13 -30 -14 -30 -25 -10 -17 31 -14 44 20 91 l32 42 -23 84 c-27 99
-24 169 9 234 24 47 23 46 81 26z m-509 -232 c19 -17 53 -41 77 -53 27 -14 42
-29 42 -41 0 -23 -12 -24 -51 -3 -70 36 -132 110 -154 184 -6 19 -1 16 23 -15
16 -22 45 -54 63 -72z m295 -10 c23 -25 25 -25 44 -8 24 22 24 22 39 -37 10
-44 9 -50 -14 -84 -16 -24 -25 -51 -25 -75 l0 -39 -45 0 c-37 0 -50 5 -79 35
-44 44 -66 127 -46 175 26 62 84 78 126 33z m828 -4 c70 -83 -2 -239 -110
-239 -41 0 -44 2 -39 23 7 28 -9 74 -36 103 -18 19 -19 26 -8 70 15 61 15 61
39 39 19 -17 20 -16 50 9 42 35 72 33 104 -5z" id="node1" class="node"></path>
<path d="M669 2176 c-80 -54 -121 -221 -101 -409 11 -99 39 -257 47 -265 2 -2
27 4 56 12 80 24 90 22 76 -14 -26 -68 46 -125 154 -124 108 0 174 56 149 127
-5 17 -10 31 -10 33 0 1 26 -4 58 -12 31 -7 62 -13 68 -14 21 0 54 186 60 335
4 120 -7 179 -52 267 -63 124 -191 114 -259 -21 l-17 -33 -34 51 c-61 90 -127
113 -195 67z m111 -1 c35 -18 72 -65 95 -120 15 -38 17 -39 31 -21 8 11 14 25
14 31 0 22 59 94 89 110 44 22 66 19 106 -17 76 -66 100 -157 93 -349 -3 -74
-13 -167 -23 -207 -17 -72 -18 -74 -44 -68 -14 3 -57 13 -96 22 -95 21 -198
29 -222 15 -11 -5 -51 -17 -89 -25 -38 -8 -77 -17 -86 -21 -23 -9 -33 14 -51
125 -43 261 -18 424 79 509 39 35 61 38 104 16z" id="node2" class="node"></path>
<path d="M766 1798 c-29 -47 -29 -67 -2 -80 32 -14 33 -22 1 -36 -29 -14 -30
-22 -9 -67 21 -46 42 -51 73 -20 23 23 26 34 26 98 0 53 -5 80 -18 100 -21 33
-52 35 -71 5z" id="node3" class="node"></path>
<path d="M956 1791 c-22 -41 -20 -58 6 -72 l22 -12 -22 -17 c-25 -20 -28 -41
-11 -73 41 -78 103 -27 102 84 -1 73 -20 113 -55 117 -21 3 -30 -3 -42 -27z" id="node4" class="node"></path>
<path d="M476 654 c-8 -20 11 -54 30 -54 20 0 28 24 14 49 -13 25 -35 27 -44
5z m34 -25 c0 -11 -4 -17 -10 -14 -5 3 -10 13 -10 21 0 8 5 14 10 14 6 0 10
-9 10 -21z" id="node5" class="node"></path>
<path d="M436 624 c-7 -18 10 -54 25 -54 16 0 21 27 9 49 -13 25 -26 27 -34 5z
m21 -26 c-3 -8 -6 -5 -6 6 -1 11 2 17 5 13 3 -3 4 -12 1 -19z" id="node6" class="node"></path>
<path d="M485 560 c-12 -19 6 -69 27 -76 39 -12 47 45 10 74 -19 15 -29 15
-37 2z m40 -31 c4 -11 4 -23 1 -26 -8 -9 -36 17 -36 33 0 22 28 16 35 -7z" id="node7" class="node"></path>
<path d="M1306 664 c-30 -30 -12 -80 19 -54 12 10 15 9 15 -9 0 -27 36 -29 43
-2 6 26 -7 45 -27 38 -11 -5 -16 -1 -16 13 0 26 -15 33 -34 14z m24 -16 c0 -7
-4 -19 -9 -27 -11 -17 -25 3 -17 24 7 18 26 20 26 3z m40 -43 c-7 -9 -15 -13
-17 -11 -7 7 7 26 19 26 6 0 6 -6 -2 -15z" id="node8" class="node"></path>
<path d="M1292 558 c-19 -25 -23 -55 -8 -67 20 -17 46 12 46 50 0 31 -19 39
-38 17z m28 -15 c-1 -26 -26 -57 -33 -41 -6 17 10 58 23 58 5 0 10 -8 10 -17z" id="node9" class="node"></path>
<path d="M1540 2223 c-18 -23 -21 -38 -18 -78 4 -51 43 -144 64 -152 19 -7
142 48 174 77 35 33 38 67 9 104 -15 19 -30 26 -56 26 -25 0 -43 7 -59 25 -33
36 -85 34 -114 -2z m77 -21 c6 -4 15 -20 18 -35 6 -24 11 -27 29 -22 55 17 64
17 75 -3 10 -18 6 -24 -22 -46 -18 -14 -52 -32 -74 -40 l-41 -14 -21 48 c-24
55 -27 90 -9 108 14 14 28 15 45 4z" id="node10" class="node"></path>



</g>
<g transform="translate(0.000000,300.000000) scale(0.100000,-0.100000)" fill="#FFFFFF" stroke="none">

<path d="M1378 2773 c-16 -35 -21 -66 -20 -113 1 -61 28 -197 31 -157 1 26 29
119 41 137 8 12 18 7 57 -32 94 -91 233 -147 312 -126 35 10 81 43 81 60 0 16
-65 48 -150 74 -47 14 -98 33 -115 41 -48 25 -114 82 -142 124 -37 57 -68 54
-95 -8z" id="node15" class="node"></path>
<path d="M633 2540 c-40 -24 -59 -60 -84 -158 -10 -42 -27 -85 -37 -96 -31
-36 -48 -68 -73 -141 -20 -59 -23 -90 -23 -195 0 -128 8 -181 50 -332 l24 -86
-35 -35 c-50 -50 -47 -67 13 -67 58 0 141 -37 165 -74 10 -14 20 -40 24 -56 4
-23 11 -30 29 -30 15 0 24 6 24 15 0 33 31 28 63 -10 32 -40 80 -65 122 -65
43 0 103 38 131 81 26 42 50 47 48 10 -1 -21 2 -22 55 -15 36 4 59 13 65 23
23 39 69 70 120 81 29 6 60 8 69 4 36 -13 15 55 -33 110 l-32 36 26 118 c15
64 31 161 36 216 15 165 -22 320 -100 418 -20 25 -30 48 -30 72 0 52 -58 155
-100 177 -41 23 -101 24 -139 5 -27 -14 -87 -75 -110 -112 -8 -13 -14 -15 -17
-7 -14 32 -68 96 -97 113 -42 26 -112 26 -154 0z m164 -360 c17 -10 47 -42 67
-71 l34 -51 17 33 c68 135 196 145 259 21 45 -88 56 -147 52 -267 -6 -149 -39
-335 -60 -335 -6 1 -37 7 -68 14 -32 8 -58 13 -58 12 0 -2 5 -16 10 -33 25
-71 -41 -127 -149 -127 -108 -1 -180 56 -154 124 14 36 4 38 -76 14 -29 -8
-54 -14 -56 -12 -8 8 -36 166 -47 265 -30 289 86 500 229 413z" id="node16" class="node"></path>
<path d="M676 2159 c-97 -85 -122 -248 -79 -509 18 -111 28 -134 51 -125 9 4
48 13 86 21 38 8 78 20 89 25 24 14 127 6 222 -15 39 -9 82 -19 96 -22 26 -6
27 -4 44 68 10 40 20 133 23 207 7 192 -17 283 -93 349 -40 36 -62 39 -106 17
-30 -16 -89 -88 -89 -110 0 -6 -6 -20 -14 -31 -14 -18 -16 -17 -31 21 -34 80
-92 135 -144 135 -11 0 -36 -14 -55 -31z m161 -366 c13 -20 18 -47 18 -100 0
-64 -3 -75 -26 -98 -31 -31 -52 -26 -73 20 -21 45 -20 53 9 67 32 14 31 22 -1
36 -20 10 -24 17 -19 35 21 68 62 86 92 40z m201 -7 c20 -40 19 -134 -2 -173
-23 -45 -60 -44 -85 4 -17 32 -14 53 11 73 l22 17 -22 12 c-26 14 -28 31 -6
72 20 40 62 38 82 -5z" id="node17" class="node"></path>

<path d="M273 1752 c-65 -105 -138 -245 -149 -286 -30 -114 -11 -259 46 -342
25 -35 69 -74 84 -74 2 0 9 15 16 34 6 18 22 44 35 56 25 23 25 24 6 44 -28
30 -79 164 -87 227 -8 67 7 169 41 274 25 81 27 97 8 67z" id="node19" class="node"></path>
<path d="M380 1386 c-14 -8 -36 -33 -49 -56 -30 -53 -24 -101 19 -145 l30 -31
-23 -13 c-34 -18 -57 -63 -57 -111 0 -83 43 -113 160 -114 91 0 140 20 172 71
l21 36 231 -6 c259 -7 325 -16 341 -43 5 -9 24 -33 41 -53 28 -31 37 -35 93
-39 73 -5 110 8 151 55 45 51 37 117 -19 160 -14 10 -11 16 20 46 63 61 56
130 -20 185 -81 59 -178 53 -249 -15 -41 -39 -53 -45 -117 -54 -55 -8 -77 -17
-100 -39 -39 -37 -79 -52 -138 -51 -51 1 -91 17 -120 49 -13 14 -37 22 -77 27
-56 7 -58 8 -64 41 -14 72 -80 114 -177 114 -24 -1 -55 -7 -69 -14z" id="node20" class="node"></path>
<path d="M770 970 c43 -24 199 -28 250 -6 l32 13 -32 7 c-18 3 -89 6 -159 6
l-126 -1 35 -19z" id="node21" class="node"></path>
<path d="M679 899 c-33 -65 -36 -135 -9 -234 l23 -84 -32 -42 c-34 -47 -37
-60 -20 -91 11 -20 12 -20 25 10 9 21 20 32 34 32 18 0 20 -4 14 -40 -5 -32
-3 -40 8 -40 8 0 19 14 24 31 11 38 38 59 54 43 8 -8 7 -19 -1 -38 -16 -35 -9
-39 40 -26 l41 11 0 98 0 98 -38 11 c-21 6 -53 27 -71 46 -29 30 -32 38 -21
51 11 13 16 11 46 -15 41 -36 70 -44 129 -37 31 3 56 14 80 36 38 33 55 33 55
1 0 -24 -60 -71 -103 -79 l-32 -7 -3 -96 c-3 -107 -2 -108 66 -123 27 -6 32
-4 32 12 0 11 -5 24 -12 31 -9 9 -9 15 0 24 18 18 45 -1 57 -40 9 -31 28 -42
40 -23 3 5 0 21 -7 36 -10 22 -9 28 2 35 19 11 50 -16 50 -43 0 -16 3 -17 15
-7 25 21 18 66 -16 105 l-31 35 22 72 c28 91 28 171 2 231 -11 24 -24 47 -30
51 -6 3 -36 -1 -68 -9 -76 -20 -228 -20 -284 0 -58 20 -57 21 -81 -26z" id="node22" class="node"></path>
<path d="M165 780 c22 -74 84 -148 154 -184 39 -21 51 -20 51 3 0 12 -15 27
-42 41 -50 25 -98 68 -140 125 -24 31 -29 34 -23 15z" id="node23" class="node"></path>
<path d="M454 695 c-59 -41 -52 -156 12 -220 29 -30 42 -35 79 -35 l45 0 0 39
c0 24 9 51 25 75 23 34 24 40 14 84 -15 59 -15 59 -39 37 -19 -17 -21 -17 -44
8 -28 30 -61 34 -92 12z m66 -46 c14 -25 6 -49 -14 -49 -19 0 -38 34 -30 54 9
22 31 20 44 -5z m-50 -30 c12 -22 7 -49 -9 -49 -15 0 -32 36 -25 54 8 22 21
20 34 -5z m52 -61 c37 -29 29 -86 -10 -74 -31 10 -42 86 -13 86 4 0 14 -6 23
-12z" id="node24" class="node"></path>
<path d="M490 636 c0 -8 5 -18 10 -21 6 -3 10 3 10 14 0 12 -4 21 -10 21 -5 0
-10 -6 -10 -14z" id="node25" class="node"></path>
<path d="M451 604 c0 -11 3 -14 6 -6 3 7 2 16 -1 19 -3 4 -6 -2 -5 -13z" id="node26" class="node"></path>
<path d="M490 536 c0 -16 28 -42 36 -33 3 3 3 15 -1 26 -7 23 -35 29 -35 7z" id="node27" class="node"></path>
<path d="M1270 684 c-30 -25 -31 -26 -50 -9 -24 22 -24 22 -39 -39 -11 -44
-10 -51 8 -70 27 -29 43 -75 36 -103 -5 -21 -2 -23 39 -23 108 0 180 156 110
239 -32 38 -62 40 -104 5z m70 -34 c0 -14 5 -18 16 -13 20 7 33 -12 27 -38 -7
-27 -43 -25 -43 2 0 18 -3 19 -15 9 -31 -26 -49 24 -19 54 19 19 34 12 34 -14z
m-10 -109 c0 -38 -26 -67 -46 -50 -9 7 -12 20 -8 33 16 52 54 64 54 17z" id="node28" class="node"></path>
<path d="M1304 645 c-8 -21 6 -41 17 -24 12 19 11 39 -1 39 -6 0 -13 -7 -16
-15z" id="node29" class="node"></path>
<path d="M1355 609 c-11 -17 1 -21 15 -4 8 9 8 15 2 15 -6 0 -14 -5 -17 -11z" id="node30" class="node"></path>
<path d="M1291 538 c-12 -33 -2 -53 15 -31 16 21 18 53 4 53 -6 0 -14 -10 -19
-22z" id="node31" class="node"></path>
<path d="M1572 2198 c-18 -18 -15 -53 9 -108 l21 -48 41 14 c22 8 56 26 74 40
28 22 32 28 22 46 -11 20 -20 20 -75 3 -18 -5 -23 -2 -29 22 -10 41 -39 55
-63 31z" id="node32" class="node"></path>
</g>
</svg>