<!--?xml version="1.0" standalone="no"?--><svg version="1.0" xmlns="http://www.w3.org/2000/svg" width="225.000000pt" height="300.000000pt" viewBox="0 0 225.000000 300.000000" preserveAspectRatio="xMidYMid meet">
<metadata>
  <rdf:rdf xmlns:rdf="http://www.w3.org/1999/02/22-rdf-syntax-ns#" xmlns:rdfs="http://www.w3.org/2000/01/rdf-schema#" xmlns:dc="http://purl.org/dc/elements/1.1/">
    <rdf:description dc:title="disney funny dog" dc:publisher="Hiox" dc:date="2015-05-19" dc:format="image/svg+xml" dc:language="en">
      <dc:creator>
        <rdf:bag>
          <rdf:li>svgimages.com</rdf:li>
        </rdf:bag>
      </dc:creator>
    </rdf:description>
  </rdf:rdf>
</metadata>
<g transform="translate(0.000000,300.000000) scale(0.100000,-0.100000)" fill="#1E1E1E" stroke="none">
<path d="M1056 2765 c-75 -21 -100 -44 -104 -95 -4 -56 19 -80 117 -121 l76
-32 83 13 c56 9 86 10 93 3 11 -11 38 -100 46 -150 6 -37 -2 -40 -36 -17 -32
23 -122 22 -157 0 -14 -10 -33 -30 -42 -46 -9 -15 -32 -33 -51 -40 -20 -7 -50
-26 -67 -42 l-31 -29 -64 30 c-35 17 -95 55 -134 85 -113 88 -185 130 -221
129 -44 -1 -127 -48 -171 -96 -76 -84 -111 -219 -74 -286 11 -21 18 -23 58
-18 54 6 82 30 148 131 67 103 97 114 188 71 29 -13 83 -37 121 -53 65 -26 96
-52 64 -52 -18 -1 -50 -29 -74 -64 -15 -24 -20 -55 -24 -165 -5 -126 -4 -137
14 -152 19 -15 18 -16 -18 -23 -93 -18 -118 -123 -44 -187 10 -9 25 -40 34
-68 26 -89 110 -161 189 -161 39 0 40 -3 24 -70 -8 -35 -7 -57 7 -107 l17 -63
-47 -68 c-84 -120 -80 -117 -126 -98 -61 24 -92 20 -142 -19 -51 -38 -68 -75
-68 -146 l0 -49 -42 0 c-96 0 -170 -40 -205 -110 -29 -56 -29 -93 1 -150 26
-52 91 -97 152 -107 21 -3 41 -9 44 -13 16 -22 75 -40 132 -40 70 0 153 32
200 77 l26 25 61 -21 c74 -25 155 -27 264 -5 l80 16 38 -45 c50 -58 95 -85
167 -102 65 -16 130 -6 172 24 14 10 43 21 65 25 46 9 64 21 76 53 4 12 24 29
43 37 45 19 56 66 31 132 -35 91 -101 129 -215 122 l-57 -3 5 92 c3 62 1 102
-8 123 -17 42 -72 88 -115 96 -19 3 -35 8 -35 11 0 2 11 24 25 47 38 65 63
147 86 280 24 141 37 172 92 223 53 49 117 71 158 56 16 -6 31 -8 34 -4 9 16
-25 48 -64 60 -55 16 -108 0 -167 -52 -58 -51 -88 -112 -114 -228 -40 -179
-73 -269 -139 -368 l-35 -54 -13 49 c-11 44 -10 51 6 69 29 31 41 61 43 102 1
40 -15 158 -25 183 -4 10 7 24 33 42 61 42 75 71 74 153 0 50 -7 84 -23 120
-28 63 -29 85 -1 165 19 55 21 81 18 175 -3 94 -7 116 -28 153 l-24 42 20 93
c27 128 27 326 0 380 -23 47 -120 114 -191 133 -63 17 -165 16 -229 -1z m266
-421 l33 -15 1 -77 c1 -149 22 -214 64 -192 10 5 22 20 26 32 6 21 7 21 22 -7
25 -48 21 -225 -6 -298 -27 -71 -27 -100 -1 -157 29 -61 36 -154 16 -202 -24
-57 -132 -113 -182 -94 -14 5 -14 9 -1 33 8 16 26 39 41 53 34 31 75 120 75
163 0 18 -9 52 -20 76 -11 24 -20 45 -20 47 0 2 14 4 30 4 17 0 30 4 30 10 0
15 -36 30 -74 30 -38 0 -76 -30 -76 -61 0 -29 22 -35 38 -11 20 30 27 28 46
-12 49 -105 -16 -244 -129 -276 -64 -18 -159 -6 -208 26 -22 14 -41 24 -43 22
-8 -8 37 -48 61 -54 62 -15 2 -40 -73 -30 -65 9 -113 44 -145 106 -15 28 -27
55 -27 59 0 4 26 5 58 3 50 -3 60 -1 79 20 12 12 23 39 25 58 3 33 5 35 45 38
23 2 51 -2 63 -8 16 -8 20 -8 20 4 0 20 -30 28 -93 25 -40 -2 -53 0 -55 12 -8
42 118 52 191 15 l47 -23 38 53 c39 54 117 124 140 124 7 0 10 5 7 10 -11 17
-31 11 -78 -25 l-47 -36 6 68 c8 92 -23 202 -71 250 -28 28 -40 33 -80 33 -39
0 -52 -5 -74 -29 -27 -29 -50 -88 -52 -132 -1 -21 -2 -20 -10 7 -19 65 -77 73
-116 16 l-22 -33 6 38 c12 78 52 123 111 125 24 1 35 10 58 46 35 56 88 92
133 92 50 0 115 -70 136 -147 24 -84 28 -93 32 -61 10 66 -47 171 -113 210
-43 25 -43 43 -1 68 39 24 94 26 139 4z m-158 -255 c14 -17 29 -43 32 -57 3
-15 8 -33 10 -41 4 -11 -6 -13 -49 -8 -33 4 -73 2 -105 -7 l-52 -13 0 33 c0
75 39 124 99 124 32 0 44 -6 65 -31z m-234 -90 c7 -11 13 -44 14 -72 l2 -52
-46 -17 c-25 -10 -46 -18 -47 -18 -11 0 0 127 12 150 18 35 49 39 65 9z m207
-37 c9 -5 9 -18 0 -50 -15 -58 4 -96 51 -100 26 -3 32 -8 32 -26 0 -13 -10
-36 -22 -52 -12 -16 -22 -30 -23 -32 -2 -2 -67 19 -121 38 -17 7 -23 24 -36
96 -9 50 -12 93 -8 98 5 5 30 15 57 22 59 16 56 15 70 6z m-133 -169 c11 -43
11 -53 0 -53 -15 0 -34 84 -33 148 l1 47 10 -45 c5 -25 15 -69 22 -97z m-110
-5 c4 -15 16 -37 28 -48 25 -23 19 -35 -15 -26 -17 4 -30 19 -42 48 -16 40
-16 43 2 55 10 8 19 10 20 6 0 -4 4 -20 7 -35z m-35 -122 c14 -15 19 -26 12
-31 -16 -9 -65 17 -69 38 -5 26 30 22 57 -7z m411 -291 c0 -3 -10 -20 -22 -36
-27 -36 -67 -59 -103 -59 -29 0 -65 32 -65 58 1 15 2 14 12 -3 25 -45 58 -46
99 -5 40 40 79 62 79 45z m-90 -25 c0 -13 -38 -32 -50 -25 -22 14 -10 35 20
35 17 0 30 -4 30 -10z m168 -59 c2 -13 -2 -36 -9 -52 -30 -74 -114 -92 -168
-37 -17 17 -31 35 -31 39 0 3 13 9 29 12 17 4 45 20 63 37 27 25 40 29 73 26
33 -2 41 -7 43 -25z m52 -41 c0 -45 -59 -110 -117 -130 -79 -27 -185 56 -218
170 -6 20 -2 18 25 -15 17 -22 39 -52 48 -67 9 -15 36 -37 60 -48 38 -18 48
-19 79 -8 56 20 93 70 93 126 1 46 1 46 15 22 8 -14 14 -36 15 -50z m-282 -94
c42 -45 106 -69 159 -61 34 5 53 16 81 46 20 21 41 39 46 39 16 0 0 -97 -22
-126 -11 -16 -41 -40 -67 -53 -54 -27 -109 -23 -179 11 -86 41 -136 165 -109
267 5 21 9 17 35 -35 16 -33 41 -72 56 -88z m-30 -135 c74 -61 156 -80 221
-50 24 10 45 19 46 19 2 0 7 -21 10 -47 3 -27 13 -68 22 -93 17 -49 89 -172
135 -232 28 -36 28 -37 8 -48 -11 -6 -20 -17 -20 -25 0 -19 14 -19 30 0 6 8
37 24 68 36 67 25 204 29 249 7 60 -29 99 -127 69 -173 -22 -34 -43 -31 -51 6
-9 40 -59 96 -103 114 -41 18 -52 19 -52 5 0 -5 7 -10 16 -10 28 0 84 -40 100
-72 9 -17 16 -51 17 -76 0 -36 -5 -49 -23 -64 -36 -29 -62 -20 -74 28 -6 22
-18 50 -26 61 -19 26 -113 58 -137 48 -13 -6 -4 -10 32 -16 83 -13 137 -89
105 -149 -24 -45 -160 -51 -238 -11 -122 63 -222 268 -239 489 -8 104 -23 118
-23 20 1 -101 32 -236 75 -316 22 -43 31 -68 24 -73 -6 -3 -58 -12 -116 -19
-106 -13 -138 -11 -215 19 l-27 10 50 91 c36 66 55 115 70 183 31 144 37 176
31 182 -14 14 -21 0 -27 -52 -18 -153 -80 -310 -156 -397 -46 -52 -87 -76
-172 -101 -54 -15 -60 -15 -102 0 -66 26 -79 44 -65 94 16 59 54 100 102 107
25 4 36 10 30 16 -14 14 -66 1 -97 -24 -31 -24 -65 -88 -65 -123 0 -29 -15
-32 -63 -11 -37 15 -67 55 -67 88 0 34 56 117 82 123 13 2 39 6 58 8 l35 3
-28 12 c-24 10 -36 9 -73 -7 -48 -21 -78 -62 -89 -119 -9 -47 -25 -24 -25 36
0 86 42 136 137 162 64 19 130 1 209 -56 64 -45 86 -48 40 -5 -23 22 -24 24
-9 58 8 20 33 65 55 102 42 67 198 281 206 281 2 0 24 -17 50 -39z m490 -115
c60 -31 77 -61 80 -145 5 -92 -13 -146 -53 -161 -15 -6 -30 -8 -34 -5 -5 2
-31 37 -58 77 -101 146 -112 180 -68 223 28 29 89 34 133 11z m-723 -9 c17
-13 17 -16 -12 -58 -16 -24 -46 -74 -67 -111 -20 -38 -40 -68 -43 -68 -3 0
-20 9 -39 20 -61 38 -53 132 18 195 31 29 46 35 81 35 24 0 51 -6 62 -13z" id="node1" class="node"></path>


</g>
<g transform="translate(0.000000,300.000000) scale(0.100000,-0.100000)" fill="#FFFFFF" stroke="none">

<path d="M1183 2340 c-42 -25 -42 -43 1 -68 66 -39 123 -144 113 -210 -4 -32
-8 -23 -32 61 -21 77 -86 147 -136 147 -45 0 -98 -36 -133 -92 -23 -36 -34
-45 -58 -46 -59 -2 -99 -47 -111 -125 l-6 -38 22 33 c39 57 97 49 116 -16 8
-27 9 -28 10 -7 2 44 25 103 52 132 22 24 35 29 74 29 40 0 52 -5 80 -33 48
-48 79 -158 71 -250 l-6 -68 47 36 c47 36 67 42 78 25 3 -5 0 -10 -7 -10 -23
0 -101 -70 -140 -124 l-38 -53 -47 23 c-73 37 -199 27 -191 -15 2 -12 15 -14
55 -12 63 3 93 -5 93 -25 0 -12 -4 -12 -20 -4 -12 6 -40 10 -63 8 -40 -3 -42
-5 -45 -38 -2 -19 -13 -46 -25 -58 -19 -21 -29 -23 -79 -20 -32 2 -58 1 -58
-3 0 -4 12 -31 27 -59 32 -62 80 -97 145 -106 75 -10 135 15 73 30 -24 6 -69
46 -61 54 2 2 21 -8 43 -22 49 -32 144 -44 208 -26 113 32 178 171 129 276
-19 40 -26 42 -46 12 -16 -24 -38 -18 -38 11 0 31 38 61 76 61 38 0 74 -15 74
-30 0 -6 -13 -10 -30 -10 -16 0 -30 -2 -30 -4 0 -2 9 -23 20 -47 11 -24 20
-58 20 -76 0 -43 -41 -132 -75 -163 -15 -14 -33 -37 -41 -53 -13 -24 -13 -28
1 -33 50 -19 158 37 182 94 20 48 13 141 -16 202 -26 57 -26 86 1 157 27 73
31 250 6 298 -15 28 -16 28 -22 7 -4 -12 -16 -27 -26 -32 -42 -22 -63 43 -64
192 l-1 77 -33 15 c-45 22 -100 20 -139 -4z" id="node5" class="node"></path>
<path d="M1040 2100 c-26 -26 -40 -62 -40 -104 l0 -33 52 13 c32 9 72 11 105
7 43 -5 53 -3 49 8 -2 8 -7 26 -10 41 -3 14 -18 40 -32 57 -21 25 -33 31 -65
31 -26 0 -46 -7 -59 -20z" id="node6" class="node"></path>
<path d="M865 1990 c-12 -23 -23 -150 -12 -150 1 0 22 8 47 18 l46 17 -2 52
c-1 28 -7 61 -14 72 -16 30 -47 26 -65 -9z" id="node7" class="node"></path>
<path d="M1067 1956 c-27 -7 -52 -17 -57 -22 -4 -5 -1 -48 8 -98 13 -72 19
-89 36 -96 54 -19 119 -40 121 -38 1 2 11 16 23 32 12 16 22 39 22 52 0 18 -6
23 -32 26 -47 4 -66 42 -51 100 9 32 9 45 0 50 -14 9 -11 10 -70 -6z" id="node8" class="node"></path>
<path d="M971 1888 c-1 -64 18 -148 33 -148 11 0 11 10 0 53 -7 28 -17 72 -22
97 l-10 45 -1 -47z" id="node9" class="node"></path>
<path d="M867 1817 c-18 -12 -18 -15 -2 -55 12 -29 25 -44 42 -48 34 -9 40 3
15 26 -12 11 -24 33 -28 48 -3 15 -7 31 -7 35 -1 4 -10 2 -20 -6z" id="node10" class="node"></path>
<path d="M802 1673 c4 -21 53 -47 69 -38 7 5 2 16 -12 31 -27 29 -62 33 -57 7z" id="node11" class="node"></path>
<path d="M1238 1370 c-9 -6 -30 -24 -47 -40 -41 -41 -74 -40 -99 5 -10 17 -11
18 -12 3 0 -26 36 -58 65 -58 36 0 76 23 103 59 31 42 28 52 -10 31z" id="node12" class="node"></path>
<path d="M1120 1346 c0 -22 17 -28 40 -16 29 16 25 30 -10 30 -19 0 -30 -5
-30 -14z" id="node13" class="node"></path>
<path d="M1232 1290 c-18 -17 -46 -33 -63 -37 -16 -3 -29 -9 -29 -12 0 -4 14
-22 31 -39 54 -55 138 -37 168 37 7 16 11 39 9 52 -2 18 -10 23 -43 25 -33 3
-46 -1 -73 -26z" id="node14" class="node"></path>
<path d="M1370 1278 c0 -56 -37 -106 -93 -126 -31 -11 -41 -10 -79 8 -24 11
-51 33 -60 48 -9 15 -31 45 -48 67 -27 33 -31 35 -25 15 4 -14 17 -43 30 -65
65 -113 166 -142 245 -72 59 52 73 98 45 147 -14 24 -14 24 -15 -22z" id="node15" class="node"></path>
<path d="M1027 1279 c-27 -102 23 -226 109 -267 70 -34 125 -38 179 -11 26 13
56 37 67 53 22 29 38 126 22 126 -5 0 -26 -18 -46 -39 -48 -51 -105 -62 -169
-33 -56 25 -90 62 -127 136 -26 52 -30 56 -35 35z" id="node16" class="node"></path>
<path d="M954 953 c-89 -120 -155 -222 -177 -276 -15 -34 -14 -36 9 -58 46
-43 24 -40 -40 5 -79 57 -145 75 -209 56 -95 -26 -137 -76 -137 -162 0 -60 16
-83 25 -36 11 57 41 98 89 119 37 16 49 17 73 7 l28 -12 -35 -3 c-19 -2 -45
-6 -58 -8 -26 -6 -82 -89 -82 -123 0 -33 30 -73 67 -88 48 -21 63 -18 63 11 0
35 34 99 65 123 31 25 83 38 97 24 6 -6 -5 -12 -30 -16 -48 -7 -86 -48 -102
-107 -14 -50 -1 -68 65 -94 42 -15 48 -15 102 0 85 25 126 49 172 101 76 87
138 244 156 397 6 52 13 66 27 52 6 -6 0 -38 -31 -182 -15 -68 -34 -117 -70
-183 l-50 -91 27 -10 c77 -30 109 -32 215 -19 58 7 110 16 116 19 7 5 -2 30
-24 73 -43 80 -74 215 -75 316 0 98 15 84 23 -20 10 -130 40 -236 92 -325 79
-134 136 -178 243 -189 136 -15 196 58 120 142 -26 27 -44 37 -83 43 -36 6
-45 10 -32 16 24 10 118 -22 137 -48 8 -11 20 -39 26 -61 12 -48 38 -57 74
-28 18 15 23 28 23 64 -1 25 -8 59 -17 76 -16 32 -72 72 -100 72 -9 0 -16 5
-16 10 0 14 11 13 52 -5 44 -18 94 -74 103 -114 8 -37 29 -40 51 -6 30 46 -9
144 -69 173 -45 22 -182 18 -249 -7 -31 -12 -62 -28 -68 -36 -16 -19 -30 -19
-30 0 0 8 9 19 20 25 20 11 20 12 -8 48 -46 60 -118 183 -135 232 -9 25 -19
66 -22 93 -3 26 -8 47 -10 47 -1 0 -22 -9 -46 -19 -65 -30 -147 -11 -221 50
-26 22 -48 39 -50 39 -3 0 -40 -48 -84 -107z" id="node17" class="node"></path>
<path d="M1445 895 c-44 -43 -33 -77 68 -223 27 -40 53 -75 58 -77 4 -3 19 -1
34 5 40 15 58 69 53 161 -3 66 -7 81 -28 104 -56 61 -142 74 -185 30z" id="node18" class="node"></path>
<path d="M712 875 c-71 -63 -79 -157 -18 -195 19 -11 36 -20 39 -20 3 0 23 30
43 68 21 37 51 87 67 111 29 42 29 45 12 58 -11 7 -38 13 -62 13 -35 0 -50 -6
-81 -35z" id="node19" class="node"></path>
</g>
</svg>