<!--?xml version="1.0" standalone="no"?-->

<svg version="1.0" xmlns="http://www.w3.org/2000/svg" width="300.000000pt" height="300.000000pt" viewBox="0 0 300.000000 300.000000" preserveAspectRatio="xMidYMid meet">
<g transform="translate(0.000000,300.000000) scale(0.100000,-0.100000)" fill="#424242" stroke="none">
<path class="node" id="node1" d="M1440 2820 c-7 -16 -16 -30 -20 -30 -4 0 -11 -12 -15 -27 -3 -16 -13
-41 -20 -58 -8 -16 -18 -52 -24 -80 l-9 -50 -1 48 c0 26 -8 61 -16 78 -9 16
-13 34 -10 39 12 20 -6 50 -29 50 -30 0 -69 -37 -96 -91 -12 -24 -32 -57 -45
-74 -12 -16 -25 -40 -29 -52 -4 -13 -14 -23 -22 -23 -8 0 -28 -7 -44 -15 l-29
-15 -12 38 c-6 21 -9 66 -7 100 3 68 -3 79 -19 30 -10 -36 -9 -72 6 -132 5
-22 7 -44 4 -49 -3 -5 -1 -12 5 -16 10 -6 122 -195 122 -205 0 -25 -127 146
-133 180 -2 10 -11 35 -20 54 -8 19 -18 58 -21 85 -4 28 -9 66 -13 85 -5 34
-5 35 -15 10 -21 -54 26 -224 86 -312 14 -21 30 -47 37 -59 l11 -22 -30 22
c-37 26 -92 91 -92 107 0 7 6 14 13 17 6 2 9 8 5 12 -4 4 -14 3 -22 -4 -21
-18 -60 87 -58 159 1 64 -5 93 -20 84 -16 -10 -2 -139 22 -204 24 -66 24 -70
5 -70 -8 0 -15 -4 -15 -10 0 -5 -17 -11 -37 -11 -32 -2 -33 -3 -10 -6 16 -3
42 0 59 6 29 10 33 8 104 -66 41 -41 74 -80 74 -86 0 -6 -11 0 -25 13 -30 28
-46 19 -19 -12 l19 -22 -32 23 c-23 16 -33 18 -33 9 0 -31 90 -56 110 -30 3 4
13 7 23 8 53 2 57 4 57 28 0 13 -8 34 -18 47 -37 48 -103 173 -98 185 3 7 39
20 80 29 82 18 122 12 179 -27 22 -16 27 -17 27 -5 0 9 -6 18 -12 21 -7 3 -2
4 12 3 14 -1 26 -9 27 -17 1 -8 5 -36 8 -63 4 -28 16 -58 30 -75 31 -36 41
-23 15 20 -11 19 -23 56 -26 81 -6 41 -5 47 10 41 12 -4 16 -19 16 -54 0 -33
6 -55 21 -74 27 -35 39 -33 39 6 l0 32 28 -26 c15 -14 41 -33 57 -41 41 -21
81 -64 101 -112 16 -36 18 -38 22 -16 6 36 -44 99 -118 148 -36 24 -72 52 -81
63 -39 47 17 207 103 293 26 26 42 47 36 47 -18 0 -128 -121 -135 -149 -3 -14
-9 -30 -13 -36 -5 -5 -13 -26 -18 -45 l-10 -35 -1 32 c-1 36 33 131 65 183 11
19 40 52 64 73 51 45 50 54 -3 20 -65 -41 -121 -143 -151 -275 -4 -18 -11 -25
-20 -22 -17 7 -29 63 -17 78 5 6 12 33 16 61 8 52 47 149 64 160 13 8 14 25 2
25 -5 0 -14 -13 -21 -30z m-152 -73 c-34 -29 -48 -58 -48 -102 0 -53 -25 -85
-67 -85 l-35 0 21 33 c12 17 30 51 41 74 29 60 68 103 93 103 21 0 21 -1 -5
-23z"></path>
<path class="node" id="node2" d="M538 2513 c12 -2 34 -11 49 -18 25 -13 24 -14 -20 -12 -31 1 -51 -4
-64 -16 -11 -9 -23 -14 -26 -10 -4 3 -7 -8 -7 -25 0 -17 -4 -34 -10 -37 -19
-12 -12 -159 10 -208 19 -44 20 -53 9 -158 -9 -88 -9 -119 1 -152 7 -23 12
-62 11 -87 -2 -44 0 -50 50 -108 7 -8 9 -30 5 -57 -5 -29 -3 -51 6 -65 11 -18
11 -23 -4 -31 -10 -5 -27 -42 -39 -81 -19 -65 -20 -101 -4 -168 15 -65 78
-190 111 -221 36 -34 29 -6 -14 59 -62 92 -87 165 -86 252 0 82 23 147 55 159
17 6 17 9 4 35 -8 15 -15 44 -15 63 l0 34 43 -26 c50 -29 57 -30 57 -11 0 7
-13 19 -29 26 -33 13 -79 53 -104 90 -21 31 -22 70 -2 70 20 0 19 4 -11 67
-26 53 -27 55 -14 143 l13 89 24 -50 c14 -27 43 -64 64 -81 21 -17 39 -39 39
-47 0 -9 9 -22 20 -29 44 -27 8 41 -55 104 -17 17 -53 69 -80 115 -45 77 -49
90 -51 159 -2 65 -2 69 5 30 14 -71 59 -174 93 -209 16 -17 49 -36 71 -42 23
-6 57 -24 75 -40 39 -34 62 -37 80 -9 10 16 10 30 1 63 -8 31 -8 42 1 45 35
12 50 46 50 113 0 67 0 68 -37 90 -47 29 -103 78 -103 90 0 5 17 -2 39 -16 41
-28 111 -45 111 -27 0 6 -17 13 -38 17 -21 3 -67 26 -102 51 -44 30 -70 42
-84 38 -17 -4 -18 -3 -6 5 12 8 8 13 -22 26 -21 8 -50 14 -65 14 -24 -2 -25
-2 -5 -6z m26 -249 c4 -10 14 -14 26 -11 12 3 20 0 20 -8 0 -7 7 -18 16 -25 8
-8 22 -29 30 -48 9 -23 19 -32 28 -29 8 3 20 0 26 -8 9 -11 4 -16 -28 -26 -64
-19 -92 -4 -129 70 -18 35 -33 72 -33 83 0 23 35 25 44 2z"></path>
<path class="node" id="node3" d="M1150 2362 c0 -17 51 -72 66 -72 8 0 14 5 14 10 0 6 -5 10 -11 10 -6
0 -24 14 -40 31 -16 17 -29 26 -29 21z"></path>
<path class="node" id="node4" d="M1450 2325 c0 -55 66 -145 106 -145 26 0 57 27 48 42 -4 6 -10 6 -17
-1 -17 -17 -53 -13 -68 7 -10 13 -10 14 0 6 13 -12 51 -7 51 6 0 4 -7 10 -15
14 -8 3 -15 12 -15 21 0 23 -30 18 -39 -7 -4 -13 -10 -17 -14 -11 -10 15 1 40
20 47 9 4 26 0 39 -9 33 -21 39 -1 8 24 -32 25 -42 26 -66 4 -17 -15 -18 -15
-18 5 0 12 -4 22 -10 22 -5 0 -10 -11 -10 -25z"></path>
<path stroke-width="20" class="node" id="node5" d="M2015 2308 c-11 -6 -22 -14 -25 -18 -3 -3 -22 -16 -43 -29 -21 -13
-43 -28 -50 -35 -6 -7 -43 -30 -81 -51 -57 -32 -67 -35 -64 -19 3 19 -50 79
-61 68 -3 -3 2 -12 12 -19 30 -22 17 -50 -21 -48 -23 2 -30 -1 -26 -11 3 -8 1
-17 -5 -20 -6 -4 -7 -14 -4 -23 4 -11 3 -14 -5 -9 -7 4 -12 2 -12 -3 0 -6 11
-11 25 -11 25 0 33 -14 15 -25 -16 -10 -12 -25 8 -25 18 -1 52 -23 52 -35 0
-4 -7 -5 -15 -1 -19 7 -19 1 0 -18 14 -14 13 -16 -10 -22 -14 -3 -32 -3 -40 0
-25 9 -48 75 -49 141 -1 33 -5 66 -9 72 -12 19 -64 -5 -86 -40 -22 -35 -19
-51 10 -42 14 5 24 -2 39 -27 24 -40 25 -56 3 -109 -15 -38 -17 -40 -24 -21
-13 35 -29 26 -18 -10 5 -21 5 -36 -1 -42 -7 -7 -10 0 -10 19 0 37 -14 23 -14
-15 -1 -52 -21 -37 -27 20 l-7 55 2 -64 c1 -44 -3 -66 -11 -68 -9 -3 -13 8
-15 34 -2 69 3 98 23 125 l19 28 -48 -5 c-45 -4 -152 -49 -160 -67 -2 -5 -9
-8 -16 -8 -7 0 -29 -11 -49 -24 -49 -33 -77 -41 -89 -25 -7 10 -8 8 -4 -6 5
-17 -4 -25 -52 -48 -31 -15 -68 -28 -82 -29 -21 -3 -26 2 -31 32 -6 32 -14 19
-11 -20 1 -22 -17 -30 -70 -30 -29 0 -48 -5 -48 -11 0 -8 22 -10 67 -7 58 4
72 1 102 -19 47 -32 63 -29 23 5 -36 30 -40 42 -14 42 9 0 41 11 70 25 30 14
56 25 58 25 13 0 1 -40 -17 -56 -54 -48 -113 -184 -90 -207 8 -8 11 -2 11 20
0 18 4 34 9 37 5 3 12 18 15 33 9 35 75 133 90 133 6 0 24 -12 39 -26 l29 -25
-27 -67 c-30 -73 -46 -202 -26 -202 6 0 11 15 11 35 0 51 19 134 42 183 19 40
23 43 50 37 18 -4 35 -2 45 7 15 12 16 10 10 -12 -14 -49 -21 -297 -8 -304 8
-5 11 18 11 84 0 104 18 231 34 242 20 14 26 8 26 -22 0 -81 45 -204 89 -244
35 -31 36 -10 2 33 -42 53 -71 136 -75 216 -1 23 3 30 18 30 13 0 24 -17 42
-65 28 -77 50 -118 76 -143 10 -10 18 -16 18 -14 0 1 -20 42 -45 90 -25 48
-45 99 -45 112 0 14 -5 25 -11 25 -8 0 -7 5 2 16 12 15 14 15 20 -2 4 -11 13
-35 21 -54 36 -95 111 -229 149 -267 59 -60 69 -42 12 21 -46 50 -153 244
-153 277 0 8 -5 20 -11 26 -8 8 -7 17 2 34 12 23 12 22 25 -19 19 -66 49 -123
87 -167 46 -52 56 -41 15 16 -60 81 -106 185 -89 202 5 5 14 -8 21 -30 20 -60
82 -143 107 -143 9 0 -2 19 -25 48 -41 48 -82 121 -82 144 0 7 10 26 23 42 20
25 26 27 45 17 17 -9 22 -21 22 -51 0 -22 5 -40 10 -40 9 0 14 26 11 61 -1 8
10 21 24 27 19 9 25 9 25 0 0 -25 -35 -104 -57 -132 -31 -38 -20 -47 15 -13
25 24 48 79 66 159 5 20 11 26 24 21 13 -4 13 -3 -3 10 -35 27 -8 30 57 6 130
-48 234 -106 299 -168 64 -61 88 -74 51 -26 -28 35 -114 105 -129 105 -7 0
-13 3 -13 8 0 4 -21 17 -47 29 -116 54 -163 73 -175 73 -8 0 -23 7 -34 15 -19
14 -19 14 3 15 12 0 24 -4 27 -9 3 -5 18 -12 33 -16 16 -3 42 -13 58 -20 59
-27 254 -69 289 -62 13 3 8 5 -12 6 -18 0 -40 5 -50 10 -9 5 -48 15 -87 22
-38 6 -77 16 -85 20 -29 17 -153 59 -171 59 -11 0 -19 7 -19 15 0 20 51 20
127 0 72 -19 209 -29 245 -18 19 5 -2 8 -65 8 -50 1 -101 5 -112 10 -11 5 -49
14 -85 21 l-65 11 118 2 c171 2 148 20 -30 23 l-148 3 40 24 c78 47 234 153
246 167 14 17 11 17 -16 2z m-285 -174 c0 -8 -4 -12 -10 -9 -5 3 -10 10 -10
16 0 5 5 9 10 9 6 0 10 -7 10 -16z m-35 -14 c-3 -5 -14 -10 -23 -10 -15 0 -15
2 -2 10 20 13 33 13 25 0z m35 -60 c0 -5 -9 -10 -20 -10 -11 0 -20 5 -20 10 0
6 9 10 20 10 11 0 20 -4 20 -10z m-284 -72 c5 -7 3 -8 -5 -4 -7 5 -21 0 -33
-10 -11 -10 -34 -19 -51 -20 -30 -1 -29 0 18 22 58 27 61 28 71 12z m-18 -32
c-14 -14 -52 -86 -83 -159 -10 -24 -22 -37 -30 -34 -7 3 -17 1 -21 -3 -5 -5
-15 -5 -23 -1 -11 7 -11 13 -1 32 18 33 88 118 125 151 31 28 58 39 33 14z
m-78 -18 c30 18 24 6 -15 -35 -19 -20 -49 -58 -66 -84 -17 -27 -34 -49 -38
-49 -3 0 -17 9 -31 20 -32 25 -23 41 57 96 35 24 58 46 55 55 -3 11 -1 11 7
-1 9 -12 14 -13 31 -2z m-70 -21 c-26 -12 -39 -21 -69 -47 -41 -36 -49 -41
-55 -31 -8 12 112 90 139 90 6 0 -1 -6 -15 -12z m155 -54 c0 -58 -3 -68 -19
-71 -17 -4 -18 1 -11 43 5 37 23 95 29 95 1 0 1 -30 1 -67z m-40 -30 c-10 -58
-14 -68 -26 -56 -6 6 -4 19 6 39 8 16 15 35 15 42 0 6 2 12 5 12 3 0 3 -17 0
-37z"></path>
<path class="node" id="node6" d="M1813 2224 c-20 -18 -22 -22 -7 -15 21 10 52 41 41 41 -3 0 -19 -12
-34 -26z"></path>
<path class="node" id="node7" d="M950 2232 c0 -13 23 -32 39 -32 11 0 10 4 -4 20 -19 21 -35 26 -35
12z"></path>
<path stroke-width="20" class="node" id="node8" d="M1220 2223 c-64 -24 -88 -107 -39 -134 19 -9 19 -9 10 10 -16 29 -13
56 7 74 25 23 35 21 20 -3 -24 -38 25 -76 62 -49 10 7 11 12 4 15 -26 11 -48
33 -41 40 11 11 40 -8 54 -37 10 -19 9 -28 -3 -46 -12 -20 -13 -23 0 -23 18 0
43 24 51 50 17 54 -67 124 -125 103z"></path>
<path class="node" id="node9" d="M945 2190 c10 -11 20 -18 23 -15 7 6 -18 35 -31 35 -5 0 -2 -9 8 -20z"></path>
<path class="node" id="node10" d="M1400 2157 c0 -2 11 -16 24 -30 13 -14 26 -32 29 -39 2 -7 8 -10 12
-6 10 10 -20 54 -45 68 -11 6 -20 9 -20 7z"></path>
<path class="node" id="node11" d="M1063 2078 c-13 -6 -23 -15 -23 -21 0 -5 5 -5 13 1 7 6 24 16 38 21
13 5 17 10 9 10 -8 0 -25 -5 -37 -11z"></path>
<path class="node" id="node12" d="M1905 1900 c66 -39 120 -93 157 -158 36 -63 46 -63 19 -1 -29 66
-166 189 -210 189 -9 0 7 -14 34 -30z"></path>
<path class="node" id="node13" d="M560 1906 c0 -20 52 -76 70 -76 6 0 9 4 5 9 -3 5 -1 12 4 15 10 7 -9
56 -22 56 -5 0 -5 -15 -2 -32 l7 -33 -31 39 c-21 26 -31 33 -31 22z"></path>
<path class="node" id="node14" d="M540 1860 c12 -16 31 -37 43 -46 22 -16 22 -16 -8 -10 -28 6 -29 5
-11 -9 11 -8 23 -15 28 -15 4 0 8 -6 8 -12 0 -16 106 -48 152 -47 32 0 32 1 9
10 -14 5 -30 8 -37 5 -14 -5 -74 51 -74 70 0 7 -6 11 -13 9 -6 -3 -34 13 -61
35 -26 22 -50 40 -53 40 -2 0 5 -13 17 -30z m97 -66 c-3 -3 -12 -4 -19 -1 -8
3 -5 6 6 6 11 1 17 -2 13 -5z"></path>
<path class="node" id="node15" d="M1740 1620 c49 -45 126 -85 235 -120 39 -12 84 -28 100 -35 17 -7 40
-16 52 -20 119 -35 280 -201 363 -374 64 -132 89 -290 56 -357 -8 -16 -17 -41
-21 -55 -6 -23 -2 -27 34 -41 60 -24 85 -79 86 -186 0 -83 0 -83 -35 -112 -35
-29 -37 -50 -3 -32 60 33 87 110 71 204 -14 77 -60 139 -121 161 -5 1 0 23 10
47 50 124 -3 334 -131 513 -37 53 -128 146 -190 195 -29 23 -110 59 -196 87
-169 55 -234 84 -320 143 -30 21 -29 18 10 -18z"></path>
<path class="node" id="node16" d="M1385 1549 c-4 -6 -5 -13 -2 -16 7 -7 27 6 27 18 0 12 -17 12 -25 -2z"></path>
<path class="node" id="node17" d="M1220 1500 c0 -5 11 -10 25 -10 14 0 25 5 25 10 0 6 -11 10 -25 10
-14 0 -25 -4 -25 -10z"></path>
<path class="node" id="node18" d="M832 1471 c7 -11 21 -22 31 -25 17 -4 17 -2 -4 20 -27 29 -44 32 -27
5z"></path>
<path class="node" id="node19" d="M960 1483 c0 -15 47 -33 85 -33 49 0 43 16 -7 23 -24 2 -51 8 -60 12
-10 4 -18 3 -18 -2z"></path>
<path class="node" id="node20" d="M1110 1403 c0 -7 75 -33 96 -33 47 0 23 17 -36 27 -33 5 -60 8 -60 6z"></path>
<path class="node" id="node21" d="M1880 1392 c0 -6 7 -18 16 -26 8 -9 26 -48 40 -87 23 -66 25 -83 22
-213 -4 -146 -13 -193 -71 -348 -13 -36 -28 -83 -32 -104 -4 -21 -13 -51 -21
-66 -17 -33 -1 -38 20 -5 8 12 26 64 41 116 14 52 32 106 39 120 64 126 62
432 -4 560 -20 39 -50 71 -50 53z"></path>
<path class="node" id="node22" d="M1020 1380 c0 -5 17 -12 38 -16 20 -4 43 -11 50 -17 9 -7 16 -7 24 1
7 7 -5 15 -43 26 -61 19 -69 19 -69 6z"></path>
<path class="node" id="node23" d="M1505 1319 c-38 -28 -72 -55 -74 -61 -2 -7 2 -8 10 -3 30 18 159 108
159 111 0 13 -34 -4 -95 -47z"></path>
<path class="node" id="node24" d="M810 1232 c38 -30 174 -56 243 -48 32 4 57 10 57 14 0 4 -46 7 -103
7 -74 0 -112 5 -137 16 -19 9 -46 20 -60 24 l-25 7 25 -20z"></path>
<path class="node" id="node25" d="M2068 1218 c-31 -43 -58 -101 -58 -127 0 -40 17 -21 29 33 7 30 19
60 27 66 7 7 14 18 14 26 0 7 8 18 18 23 9 6 12 11 6 11 -7 0 -23 -15 -36 -32z"></path>
<path class="node" id="node26" d="M1862 1215 c-23 -51 4 -193 31 -166 7 7 7 14 -1 24 -6 7 -12 49 -14
92 -3 76 -4 78 -16 50z"></path>
<path class="node" id="node27" d="M509 1134 c-14 -35 -13 -202 1 -255 6 -22 9 -43 6 -47 -3 -5 -7 -28
-10 -53 -3 -24 -10 -71 -16 -104 -12 -73 -13 -188 -1 -181 4 3 11 47 15 98 4
51 12 131 18 177 9 63 8 108 -1 186 -8 75 -9 116 -1 150 12 55 6 71 -11 29z"></path>
<path class="node" id="node28" d="M2148 1126 c-21 -12 -49 -33 -63 -46 -27 -26 -75 -102 -75 -119 0
-21 18 -10 28 17 18 49 68 107 115 132 26 14 47 28 47 32 0 12 -11 8 -52 -16z"></path>
<path class="node" id="node29" d="M950 1051 c0 -5 12 -11 28 -13 15 -3 44 -13 64 -22 29 -12 36 -13 32
-3 -3 8 -29 21 -58 30 -61 20 -66 20 -66 8z"></path>
<path class="node" id="node30" d="M1365 1021 c5 -15 0 -21 -25 -26 -44 -10 -38 -27 8 -19 20 4 42 10
47 14 6 5 26 10 45 13 31 3 32 5 13 12 -13 4 -20 11 -17 16 3 5 -13 9 -36 9
-36 0 -41 -2 -35 -19z"></path>
<path class="node" id="node31" d="M2066 965 c-11 -8 -16 -15 -10 -15 5 0 18 7 28 15 11 8 16 15 10 15
-5 0 -18 -7 -28 -15z"></path>
<path class="node" id="node32" d="M905 953 c10 -3 30 -12 42 -20 21 -14 23 -14 17 0 -5 15 -36 28 -64
26 -9 -1 -7 -3 5 -6z"></path>
<path class="node" id="node33" d="M2062 911 c-54 -35 -112 -100 -112 -125 0 -5 28 20 63 56 34 37 77
73 95 82 31 16 40 26 24 26 -5 0 -36 -18 -70 -39z"></path>
<path class="node" id="node34" d="M1877 878 c5 -65 -1 -84 -66 -208 -10 -19 -26 -69 -34 -111 -9 -42
-30 -105 -47 -142 l-32 -66 -56 29 c-31 16 -60 26 -65 23 -13 -8 3 -19 44 -32
43 -14 96 -66 102 -101 2 -14 2 -19 0 -12 -3 6 -8 12 -12 12 -11 0 -41 -35
-41 -48 0 -6 -8 -15 -17 -21 -25 -14 -9 -25 16 -12 17 9 24 8 41 -9 11 -11 32
-20 48 -21 15 0 36 -2 47 -5 37 -7 309 16 415 36 230 44 316 64 330 76 18 17
6 18 -55 4 -267 -59 -467 -88 -630 -93 -100 -2 -145 6 -145 28 0 15 38 28 118
40 24 4 56 13 70 21 15 8 32 14 38 14 17 0 127 52 142 67 17 17 2 17 -23 0
-29 -19 -98 -43 -202 -70 l-91 -24 -26 40 -26 39 17 50 c24 67 68 98 139 98
59 0 94 -21 114 -71 11 -26 15 -28 22 -14 7 12 2 26 -18 52 l-27 36 44 -6 c40
-6 42 -6 25 8 -11 8 -28 15 -37 15 -10 0 -21 5 -24 10 -4 6 16 10 52 11 45 0
53 2 35 9 -32 13 -93 9 -119 -8 -19 -12 -23 -12 -23 -1 0 21 52 154 62 157 10
4 11 22 1 22 -12 0 -59 -90 -74 -142 -12 -44 -17 -48 -49 -54 -19 -3 -43 -9
-53 -15 -16 -9 -17 -5 -12 43 9 73 22 111 67 196 30 58 38 84 38 127 0 56 -7
85 -20 85 -4 0 -5 -28 -3 -62z"></path>
<path class="node" id="node35" d="M787 860 c39 -29 75 -76 103 -135 10 -22 14 -26 17 -13 5 20 -31 93
-61 126 -23 26 -67 52 -87 52 -7 0 5 -13 28 -30z"></path>
<path class="node" id="node36" d="M1655 880 c-11 -5 -55 -9 -97 -9 -82 -1 -104 -15 -40 -25 43 -8 130
7 170 28 22 13 24 15 7 15 -11 0 -29 -4 -40 -9z"></path>
<path class="node" id="node37" d="M2187 879 c-20 -5 -54 -17 -75 -28 -38 -20 -113 -91 -96 -91 5 0 2
-4 -6 -10 -30 -19 -2 -19 38 0 47 23 57 35 16 19 -40 -15 -39 -5 2 29 36 30
98 58 174 80 28 8 30 10 10 10 -14 0 -42 -4 -63 -9z"></path>
<path class="node" id="node38" d="M685 796 c66 -18 114 -40 149 -70 34 -28 56 -24 29 6 -28 31 -113 66
-173 72 l-55 5 50 -13z"></path>
<path class="node" id="node39" d="M937 778 c4 -7 6 -43 4 -79 -1 -40 2 -70 8 -74 7 -4 11 17 11 64 0
73 -6 101 -22 101 -5 0 -6 -6 -1 -12z"></path>
<path class="node" id="node40" d="M1423 775 c-6 -11 -13 -49 -17 -84 -12 -129 -66 -273 -122 -332 l-35
-35 -67 20 c-59 18 -76 30 -142 96 -53 53 -87 98 -115 154 -40 78 -63 109 -50
65 12 -37 65 -140 96 -186 62 -89 148 -153 230 -168 27 -5 34 -11 35 -31 2
-26 30 -64 47 -64 5 0 18 -11 28 -24 18 -23 25 -24 109 -24 50 1 90 3 90 5 0
2 -14 9 -31 15 -28 10 -30 14 -25 42 4 18 3 35 0 39 -13 13 -34 -15 -34 -44 0
-28 -2 -29 -44 -29 -54 0 -62 10 -41 50 9 18 11 30 5 30 -6 0 -13 -7 -16 -15
-8 -20 -40 -19 -48 1 -12 31 -6 61 17 83 33 30 96 61 127 62 l25 0 -23 10
c-15 6 -31 5 -44 -2 -29 -16 -32 -6 -10 48 32 78 50 143 62 230 13 88 10 121
-7 88z"></path>
<path class="node" id="node41" d="M2279 578 c-16 -18 -35 -51 -41 -73 -6 -22 -25 -55 -42 -72 -16 -18
-25 -33 -19 -33 6 0 27 19 47 42 l36 41 40 -12 c41 -12 64 -30 87 -67 11 -18
12 -17 12 8 1 17 -9 35 -28 51 -17 14 -27 28 -23 32 4 4 -14 6 -40 4 -44 -4
-47 -3 -42 16 16 49 24 64 46 79 12 9 17 16 10 16 -7 0 -27 -15 -43 -32z"></path>
<path class="node" id="node42" d="M827 573 c-5 -7 -6 -17 -2 -22 3 -5 1 -12 -4 -15 -4 -3 -11 -33 -15
-65 -4 -33 -11 -63 -15 -65 -5 -3 -11 -20 -15 -37 -10 -53 -65 -126 -105 -142
-32 -13 -40 -13 -65 0 -64 33 -100 101 -70 134 10 11 14 22 10 26 -12 13 -46
-40 -46 -72 0 -16 9 -45 20 -63 l20 -32 -34 0 c-41 0 -98 37 -110 73 -8 22 -6
33 13 58 29 40 20 50 -13 14 -33 -35 -34 -82 -4 -121 19 -24 20 -27 4 -21 -10
4 -21 7 -26 7 -4 0 -14 10 -22 23 -23 34 2 118 53 182 39 48 38 48 -15 -8 -43
-46 -57 -70 -65 -108 -20 -91 16 -122 141 -121 185 1 235 6 258 27 52 46 89
131 110 257 12 70 11 113 -3 91z"></path>
<path class="node" id="node43" d="M1600 236 c0 -42 -3 -47 -36 -64 -22 -11 -33 -22 -26 -26 16 -9 69
20 82 45 14 25 9 81 -7 87 -9 2 -13 -10 -13 -42z"></path>
</g>
<g transform="translate(0.000000,300.000000) scale(0.100000,-0.100000)" fill="#FFFFFF" stroke="none">






<path class="node" id="node50" d="M1375 1976 c-47 -22 -48 -23 -18 -22 17 1 40 10 51 20 12 10 26 15
33 10 8 -4 10 -3 5 4 -10 16 -13 15 -71 -12z"></path>





<path class="node" id="node56" d="M618 1793 c7 -3 16 -2 19 1 4 3 -2 6 -13 5 -11 0 -14 -3 -6 -6z"></path>
</g>
</svg>