<!--?xml version="1.0" standalone="no"?-->

<svg version="1.0" xmlns="http://www.w3.org/2000/svg" width="214.000000pt" height="300.000000pt" viewBox="0 0 214.000000 300.000000" preserveAspectRatio="xMidYMid meet">
<g transform="translate(0.000000,300.000000) scale(0.100000,-0.100000)" fill="#55A283" stroke="none">

<path stroke-width="20" class="node" id="node2" d="M1135 2990 c28 -4 43 -8 34 -8 -9 -1 -24 -14 -34 -28 -20 -31 -15
-90 13 -136 19 -32 34 -32 39 1 2 12 8 31 14 42 8 16 13 18 25 8 22 -18 17
-43 -23 -95 -20 -27 -37 -50 -39 -52 -1 -2 -21 15 -43 37 -48 48 -72 51 -100
15 -19 -24 -21 -35 -15 -108 4 -45 12 -84 18 -89 17 -12 68 1 91 23 47 44 48
8 2 -45 l-33 -38 -77 13 c-42 7 -92 10 -110 7 -30 -5 -39 -1 -73 35 -46 47
-141 116 -225 164 -66 37 -81 41 -77 22 1 -7 -3 -23 -10 -36 -7 -12 -15 -44
-19 -70 -7 -64 13 -278 31 -329 14 -40 14 -41 -7 -47 -12 -3 -46 -6 -74 -6
-40 0 -53 -4 -53 -15 0 -8 -9 -19 -20 -25 -25 -13 -26 -35 -2 -52 10 -7 23
-29 29 -48 7 -19 21 -60 31 -90 11 -30 18 -58 15 -62 -2 -4 -31 -5 -63 -1 -70
7 -84 -11 -16 -21 l43 -7 -20 -42 c-12 -23 -25 -45 -30 -48 -5 -4 -7 -11 -3
-17 3 -6 -8 -53 -25 -104 -31 -89 -32 -100 -33 -253 l-1 -160 25 1 c14 0 37 4
51 8 l26 7 -23 -68 c-14 -40 -24 -92 -24 -127 0 -59 0 -60 52 -109 29 -27 70
-60 90 -74 21 -14 40 -35 44 -47 10 -33 70 -119 129 -185 l54 -61 -21 -37
c-38 -64 -29 -129 34 -247 13 -25 23 -67 27 -123 5 -68 11 -88 27 -101 11 -9
28 -29 37 -44 32 -51 142 -62 182 -18 12 13 16 30 13 54 -3 31 0 37 27 52 32
17 105 13 105 -5 0 -5 -16 -28 -35 -52 -39 -49 -44 -78 -17 -102 27 -24 167
-6 239 32 50 27 61 29 126 24 104 -8 176 10 234 58 66 55 76 77 81 199 4 103
5 106 40 149 26 32 37 55 37 80 2 53 25 213 36 238 8 21 15 23 74 23 37 0 75
-5 86 -11 26 -13 49 4 49 36 0 49 -117 145 -177 145 -27 0 -30 3 -26 21 6 20
3 21 -36 15 -22 -3 -59 -9 -81 -12 -47 -7 -54 -17 -69 -99 -6 -32 -16 -64 -21
-69 -6 -6 -10 -44 -10 -85 l-1 -76 -21 30 c-11 17 -105 113 -209 215 -192 189
-203 204 -253 335 -15 39 -31 79 -36 90 -20 47 -10 -23 14 -91 42 -121 71
-160 264 -349 125 -122 193 -197 214 -235 17 -30 43 -75 59 -100 60 -97 72
-287 24 -380 -21 -40 -70 -78 -118 -91 -23 -6 -53 -15 -66 -20 -34 -14 -118 6
-227 52 -50 22 -106 39 -123 39 -18 0 -30 3 -28 8 3 4 17 65 32 136 29 145 37
163 99 240 47 57 51 84 6 41 l-27 -26 -14 33 c-14 34 -73 112 -146 191 -47 51
-91 137 -102 201 -7 46 -23 56 -38 24 -9 -20 -11 -16 -18 34 -7 53 -5 59 28
110 19 29 47 82 61 118 93 238 93 243 41 260 -19 6 -35 14 -35 16 0 10 33 70
48 87 33 37 78 9 157 -98 16 -22 60 -75 97 -118 71 -83 117 -167 125 -228 6
-42 -17 -123 -53 -186 -26 -44 -28 -53 -16 -53 14 0 60 85 76 139 9 30 16 71
16 90 0 51 -48 146 -111 220 -85 100 -112 141 -97 145 36 11 262 27 297 21 23
-4 41 -4 41 -1 0 3 -16 31 -35 63 -27 45 -32 59 -20 61 19 4 19 7 -1 36 -15
24 -14 25 46 57 72 38 119 87 159 168 31 61 37 86 46 203 4 62 3 69 -18 83
-42 27 -146 54 -254 66 -126 13 -145 20 -237 84 -71 50 -106 94 -106 134 0 21
4 18 35 -23 61 -79 115 -59 141 51 18 78 18 138 -2 157 -20 21 -16 22 -86 -19
-42 -25 -59 -31 -54 -20 3 9 6 20 6 24 0 4 15 25 34 46 37 41 50 81 40 123
-15 63 -63 88 -169 89 -71 0 -74 -1 -30 -7z m156 -49 c43 -44 38 -87 -18 -155
-13 -15 -30 -44 -38 -63 -13 -30 -17 -33 -35 -23 -21 11 -21 11 6 43 39 47 56
91 45 121 -6 13 -14 27 -20 30 -19 12 -50 -13 -59 -47 l-9 -32 -11 39 c-14 50
-5 95 22 106 44 18 86 11 117 -19z m-183 -197 c25 -21 42 -44 42 -57 0 -31
-58 -87 -91 -87 -26 0 -27 2 -32 68 -4 64 9 112 31 112 5 0 27 -16 50 -36z
m275 -24 c7 -32 -7 -128 -25 -172 -19 -50 -67 -30 -121 52 -19 27 -23 75 -6
65 6 -4 21 3 34 15 25 23 95 69 106 70 4 0 9 -13 12 -30z m-799 -60 c45 -73
75 -209 59 -263 l-10 -32 -22 48 c-12 26 -26 47 -31 47 -15 0 -12 -12 15 -55
33 -54 32 -77 -2 -32 -16 20 -34 36 -42 37 -9 0 -4 -12 13 -34 31 -41 33 -62
6 -76 -17 -9 -20 -6 -30 27 -20 71 -32 289 -20 349 6 30 15 52 19 50 4 -3 24
-32 45 -66z m91 4 c101 -66 166 -131 145 -144 -27 -17 -1 -22 48 -11 35 9 66
9 113 2 35 -6 68 -11 73 -11 5 0 1 -9 -9 -20 -15 -17 -16 -20 -3 -20 8 0 36
22 62 50 25 27 46 47 46 45 0 -2 -7 -25 -16 -51 -8 -25 -13 -49 -9 -52 10 -11
23 19 36 85 7 35 16 63 21 63 4 0 8 -7 8 -15 0 -42 51 -114 112 -157 100 -72
136 -86 239 -97 111 -11 230 -37 254 -55 15 -11 6 -18 -76 -58 -95 -46 -211
-126 -232 -160 -11 -17 -13 -17 -29 4 -14 18 -18 20 -18 7 0 -30 39 -142 78
-221 21 -43 34 -78 30 -78 -16 0 -8 -26 22 -70 16 -25 30 -48 30 -52 0 -5 -24
-8 -52 -9 -29 0 -102 -6 -163 -13 l-110 -14 -49 54 c-57 63 -93 71 -136 29
-18 -17 -45 -29 -83 -35 -63 -10 -88 -5 -171 36 l-58 28 -19 -23 c-30 -37 -56
-24 -137 72 -41 48 -73 89 -71 92 3 2 41 7 85 11 l80 7 50 -51 c50 -50 71 -60
155 -69 41 -4 48 -2 68 23 l21 27 58 -22 c31 -12 101 -47 156 -77 54 -30 101
-53 104 -49 3 3 -3 12 -14 20 -28 21 -227 123 -271 140 -21 7 -30 14 -21 14
22 1 216 -54 280 -80 27 -10 48 -15 48 -11 0 16 -99 55 -220 86 -100 26 -127
37 -136 55 -17 34 -27 39 -21 10 6 -22 3 -28 -16 -34 l-22 -7 25 -7 25 -7 -27
-7 c-16 -4 -28 -12 -28 -17 0 -6 11 -8 25 -4 30 7 32 -6 6 -30 -25 -22 -70
-14 -109 19 -16 13 -40 27 -55 30 -33 9 -44 24 -26 36 11 7 10 11 -6 23 -11 9
-15 16 -10 16 10 0 17 60 7 60 -3 0 -13 -7 -22 -15 -13 -11 -24 -13 -41 -6
-14 5 -68 12 -122 16 -57 4 -101 12 -107 20 -6 7 -22 53 -36 101 -17 56 -34
95 -48 106 l-21 17 28 10 c16 6 35 11 43 11 8 0 14 4 14 9 0 4 21 11 46 14 91
10 174 94 174 177 0 67 -32 180 -69 239 -47 77 -51 77 74 -5z m523 -13 c-4
-38 -38 -42 -38 -3 0 34 7 43 27 35 8 -3 13 -16 11 -32z m609 -501 c-5 -79
-10 -99 -41 -154 -19 -35 -54 -80 -76 -100 -43 -38 -125 -80 -140 -71 -10 6
-70 161 -70 181 0 27 27 14 60 -31 19 -25 37 -45 42 -45 18 0 6 23 -38 70 -62
66 -26 81 43 17 13 -11 26 -17 30 -13 8 8 -54 66 -69 66 -22 0 -1 21 70 67 61
41 167 97 191 102 2 1 1 -40 -2 -89z m-1328 -229 c12 -16 21 -33 21 -39 0 -9
-100 -26 -108 -18 -9 10 43 86 59 86 4 0 17 -13 28 -29z m224 10 c47 -18 30
-28 -61 -34 -48 -3 -93 -7 -100 -9 -6 -2 -22 12 -34 31 l-22 34 95 -6 c51 -3
106 -10 122 -16z m-142 -113 c19 -24 36 -45 39 -48 3 -3 23 -26 44 -53 29 -36
36 -50 27 -60 -6 -7 -15 -36 -21 -63 -8 -37 -18 -54 -38 -66 -15 -9 -52 -39
-82 -65 -54 -48 -143 -104 -187 -117 -20 -6 -21 -3 -28 78 -9 103 7 227 44
340 l26 81 50 6 c93 11 92 11 126 -33z m323 -167 c42 -20 59 -22 113 -17 l63
7 -12 -26 c-11 -24 -16 -26 -47 -20 -20 4 -74 8 -120 10 -80 3 -84 4 -101 32
-25 42 -11 67 28 49 15 -7 49 -23 76 -35z m-121 -23 c19 -25 19 -26 -1 -71
-22 -49 -53 -67 -79 -46 -17 15 -14 82 5 131 10 23 15 26 34 19 12 -4 31 -19
41 -33z m299 -59 c20 -5 40 -14 43 -19 9 -15 -49 -181 -96 -277 -38 -76 -95
-145 -156 -188 -21 -15 -22 -13 -48 55 -36 93 -75 255 -75 308 0 29 5 44 15
49 9 3 25 22 35 43 11 21 25 41 32 44 18 8 205 -3 250 -15z m-385 -74 c28 -17
33 -27 38 -75 11 -94 35 -203 54 -245 11 -22 24 -57 31 -77 19 -61 30 -63 88
-12 l51 45 7 -61 c7 -66 20 -83 41 -55 10 14 13 15 13 4 0 -35 72 -159 130
-224 73 -82 117 -144 131 -184 9 -24 6 -36 -20 -76 -28 -44 -45 -102 -72 -248
-8 -46 -14 -57 -27 -53 -9 2 -44 7 -77 11 -51 6 -57 5 -47 -8 10 -11 9 -17 -2
-26 -11 -10 -19 -7 -35 10 -16 17 -35 24 -81 27 -54 4 -60 3 -60 -15 0 -21
-36 -60 -46 -50 -4 3 -9 39 -11 79 -4 59 -13 89 -44 153 -27 56 -40 94 -40
125 -1 53 15 100 33 100 15 0 171 -141 268 -242 36 -37 69 -68 73 -68 19 0 0
24 -90 111 -411 399 -453 458 -453 624 0 49 -4 75 -11 75 -8 0 -10 29 -7 100
3 55 1 100 -4 100 -4 0 -8 15 -8 34 0 30 8 42 66 91 36 31 69 54 73 53 3 -2
20 -12 38 -23z m-193 -243 c1 -74 6 -136 13 -143 12 -16 26 -139 15 -139 -4 1
-38 29 -76 64 l-70 63 2 59 c3 73 55 208 86 222 12 5 22 8 24 7 2 -2 4 -62 6
-133z m1391 -232 c5 -15 15 -20 39 -20 56 0 166 -85 166 -128 0 -10 -7 -13
-22 -8 -13 3 -53 6 -90 6 -56 0 -66 3 -62 15 4 8 1 15 -5 15 -12 0 -41 -90
-41 -129 0 -14 -9 -64 -20 -110 -10 -47 -17 -88 -14 -93 5 -8 -36 -68 -47 -68
-3 0 -9 17 -13 38 -3 21 -19 56 -36 77 -28 38 -29 45 -30 141 0 61 4 104 11
111 7 7 17 42 23 79 l11 68 55 12 c30 6 58 12 62 13 4 0 10 -8 13 -19z m-899
-826 c14 -14 24 -37 24 -55 0 -38 -16 -38 -23 1 -4 17 -12 30 -18 30 -6 0 -8
-7 -5 -16 3 -9 9 -27 12 -40 6 -22 3 -24 -31 -24 -35 0 -37 2 -33 25 3 14 1
28 -3 31 -5 3 -9 -4 -9 -15 0 -33 -22 -36 -47 -6 -30 35 -27 53 17 83 42 28
82 24 116 -14z m326 -35 c37 -18 68 -35 68 -39 0 -14 -95 -49 -150 -56 l-55
-7 19 22 c11 11 25 21 33 21 7 0 13 5 13 10 0 20 -28 9 -58 -21 -41 -42 -63
-34 -27 9 15 18 24 36 20 40 -4 4 -20 -9 -36 -28 -33 -39 -39 -30 -9 15 26 40
60 65 89 65 14 0 55 -14 93 -31z"></path>
<path class="node" id="node3" d="M773 2430 c-36 -14 -27 -29 13 -23 28 5 38 2 50 -16 17 -24 34 -28
34 -7 0 16 -47 56 -64 55 -6 0 -21 -4 -33 -9z"></path>
<path class="node" id="node4" d="M621 2293 c-10 -11 -10 -18 -2 -26 6 -6 11 -38 11 -70 0 -42 6 -69
20 -92 37 -60 115 -71 138 -20 29 63 5 114 -77 167 -36 24 -40 29 -19 24 14
-3 34 -9 43 -13 13 -4 16 -2 13 8 -3 9 -20 14 -52 14 -26 0 -50 5 -54 11 -5 9
-11 8 -21 -3z m88 -65 c48 -29 52 -37 30 -59 -19 -19 -17 -41 8 -71 20 -23 -1
-33 -37 -18 -58 24 -98 170 -47 170 5 0 26 -10 46 -22z m71 -94 c0 -31 -23
-28 -28 4 -2 15 2 22 12 22 11 0 16 -9 16 -26z"></path>
<path class="node" id="node5" d="M1196 2293 c-3 -4 8 -12 26 -17 23 -8 35 -20 42 -41 18 -61 29 -85
37 -85 16 0 10 50 -11 91 -23 44 -73 72 -94 52z"></path>
<path class="node" id="node6" d="M1155 2131 c-15 -6 -6 -9 35 -13 30 -2 57 -3 59 -1 17 12 -68 25 -94
14z"></path>
<path class="node" id="node7" d="M1151 2087 c-45 -14 -121 -87 -121 -115 0 -16 12 -28 43 -43 40 -20
49 -20 114 -9 81 13 114 39 115 89 1 23 6 31 19 31 10 0 21 5 24 10 3 6 -1 10
-9 10 -9 0 -16 6 -16 14 0 9 -8 12 -24 9 -13 -3 -27 0 -30 6 -9 14 -70 13
-115 -2z m54 -27 c-9 -15 27 -42 52 -37 18 3 23 0 23 -17 0 -42 -22 -57 -98
-67 -117 -16 -162 19 -101 79 43 42 145 77 124 42z m59 -5 c4 -10 -1 -15 -14
-15 -11 0 -20 7 -20 15 0 8 6 15 14 15 8 0 16 -7 20 -15z"></path>
<path class="node" id="node8" d="M853 2003 c4 -6 19 -14 34 -18 16 -3 36 -14 46 -22 25 -23 35 -6 11
18 -21 21 -102 41 -91 22z"></path>
<path class="node" id="node9" d="M800 1968 c1 -13 6 -47 13 -77 11 -46 15 -51 26 -37 7 9 19 16 27 16
24 0 68 46 61 63 -9 24 -67 57 -99 57 -22 0 -28 -5 -28 -22z m80 -15 c14 -9
27 -18 29 -20 9 -7 -33 -43 -50 -43 -21 0 -39 28 -39 59 0 26 26 28 60 4z"></path>
<path class="node" id="node10" d="M780 1751 c0 -14 34 -31 61 -31 20 0 21 2 9 14 -19 17 -70 30 -70 17z"></path>

<path class="node" id="node12" d="M1503 2993 c115 -2 299 -2 410 0 111 1 18 2 -208 2 -225 0 -316 -1
-202 -2z"></path>











</g>
<g transform="translate(0.000000,300.000000) scale(0.100000,-0.100000)" fill="#7FEA81" stroke="none">

<path class="node" id="node25" d="M1174 2960 c-27 -11 -36 -56 -22 -106 l11 -39 9 32 c9 34 40 59 59
47 6 -3 14 -17 20 -30 11 -30 -6 -74 -45 -121 -27 -32 -27 -32 -6 -43 18 -10
22 -7 35 23 8 19 25 48 38 63 56 68 61 111 18 155 -31 30 -73 37 -117 19z"></path>
<path class="node" id="node26" d="M1037 2758 c-10 -16 -13 -43 -10 -90 5 -66 6 -68 32 -68 33 0 91 56
91 87 0 20 -72 93 -92 93 -4 0 -14 -10 -21 -22z"></path>
<path class="node" id="node27" d="M1327 2726 c-21 -13 -48 -33 -62 -46 -13 -12 -28 -19 -34 -15 -17 10
-13 -38 6 -65 32 -48 67 -80 89 -80 25 0 38 27 53 113 10 55 6 117 -8 117 -3
0 -23 -11 -44 -24z"></path>


<path class="node" id="node30" d="M647 2243 c-28 -27 17 -144 63 -163 36 -15 57 -5 37 18 -25 30 -27
52 -8 71 22 22 18 30 -30 59 -38 23 -51 26 -62 15z"></path>
<path class="node" id="node31" d="M752 2138 c5 -32 28 -35 28 -4 0 17 -5 26 -16 26 -10 0 -14 -7 -12
-22z"></path>
<path class="node" id="node32" d="M1154 2063 c-48 -16 -106 -69 -102 -92 6 -32 52 -43 130 -32 76 10
98 25 98 67 0 17 -5 20 -23 17 -25 -5 -61 22 -52 37 10 16 -10 17 -51 3z"></path>
<path class="node" id="node33" d="M1230 2055 c0 -8 9 -15 20 -15 13 0 18 5 14 15 -4 8 -12 15 -20 15
-8 0 -14 -7 -14 -15z"></path>
<path class="node" id="node34" d="M820 1949 c0 -31 18 -59 39 -59 17 0 59 36 50 43 -52 41 -89 48 -89
16z"></path>
<path class="node" id="node35" d="M1166 2683 c-3 -4 -6 -19 -6 -35 0 -39 34 -35 38 3 3 25 -18 46 -32
32z"></path>

<path class="node" id="node37" d="M428 1933 c-20 -23 -41 -64 -36 -69 8 -8 108 9 108 18 0 14 -40 68
-49 68 -4 0 -15 -8 -23 -17z"></path>
<path class="node" id="node38" d="M508 1919 c12 -19 28 -33 34 -31 7 2 52 6 100 9 141 9 102 40 -61 50
l-95 6 22 -34z"></path>
<path class="node" id="node39" d="M435 1851 l-50 -6 -26 -81 c-37 -113 -53 -237 -44 -340 7 -81 8 -84
28 -78 44 13 133 69 187 117 30 26 67 56 82 65 20 12 30 29 38 66 6 27 15 56
21 63 9 10 2 24 -27 60 -21 27 -41 50 -44 53 -3 3 -20 24 -39 48 -34 44 -33
44 -126 33z"></path>

<path class="node" id="node41" d="M688 1642 c-19 -49 -22 -116 -5 -131 26 -21 57 -3 79 46 20 45 20 46
1 71 -10 14 -29 29 -41 33 -19 7 -24 4 -34 -19z"></path>
<path class="node" id="node42" d="M812 1584 c-7 -3 -21 -23 -32 -44 -10 -21 -26 -40 -35 -43 -10 -5
-15 -20 -15 -49 0 -53 39 -215 75 -308 26 -68 27 -70 48 -55 61 43 118 112
156 188 47 96 105 262 96 277 -3 5 -23 14 -43 19 -45 12 -232 23 -250 15z"></path>


<path class="node" id="node45" d="M1800 1026 l-55 -12 -11 -68 c-6 -37 -16 -72 -23 -79 -7 -7 -11 -50
-11 -111 1 -96 2 -103 30 -141 17 -21 33 -56 36 -77 4 -21 10 -38 13 -38 11 0
52 60 47 68 -3 5 4 46 14 93 11 46 20 96 20 110 0 39 29 129 41 129 6 0 9 -7
5 -15 -4 -12 6 -15 62 -15 37 0 77 -3 90 -6 15 -5 22 -2 22 8 0 43 -110 128
-166 128 -24 0 -34 5 -39 20 -3 11 -9 19 -13 19 -4 -1 -32 -7 -62 -13z"></path>
<path class="node" id="node46" d="M860 208 c-44 -30 -47 -48 -17 -83 25 -30 47 -27 47 6 0 11 4 18 9
15 4 -3 6 -17 3 -31 -4 -23 -2 -25 33 -25 34 0 37 2 31 24 -3 13 -9 31 -12 40
-3 9 -1 16 5 16 6 0 14 -13 18 -30 7 -39 23 -39 23 -1 0 37 -37 79 -76 87 -21
4 -39 -1 -64 -18z"></path>
<path class="node" id="node47" d="M1162 172 c-25 -19 -62 -71 -62 -87 0 -5 13 6 29 25 16 19 32 32 36
28 4 -4 -5 -22 -20 -40 -36 -43 -14 -51 27 -9 30 30 58 41 58 21 0 -5 -6 -10
-13 -10 -8 0 -22 -10 -33 -21 l-19 -22 55 7 c55 7 150 42 150 56 0 12 -134 70
-161 70 -13 0 -34 -8 -47 -18z"></path>
</g>
</svg>