<!--?xml version="1.0" standalone="no"?--><svg version="1.0" xmlns="http://www.w3.org/2000/svg" width="121.000000pt" height="300.000000pt" viewBox="0 0 121.000000 300.000000" preserveAspectRatio="xMidYMid meet">
<metadata>
  <rdf:rdf xmlns:rdf="http://www.w3.org/1999/02/22-rdf-syntax-ns#" xmlns:rdfs="http://www.w3.org/2000/01/rdf-schema#" xmlns:dc="http://purl.org/dc/elements/1.1/">
    <rdf:description dc:title="christmas emu " dc:publisher="Hiox" dc:date="2016-02-20" dc:format="image/svg+xml" dc:language="en">
      <dc:creator>
        <rdf:bag>
          <rdf:li>svgimages.com</rdf:li>
        </rdf:bag>
      </dc:creator>
    </rdf:description>
  </rdf:rdf>
</metadata>
<g transform="translate(0.000000,300.000000) scale(0.100000,-0.100000)" fill="#4336C4" stroke="none">
<path d="M714 2943 c6 -57 6 -57 -9 -26 -16 36 -30 47 -46 38 -7 -5 -6 -12 4
-23 28 -33 26 -37 -12 -34 -31 3 -45 -2 -72 -26 -19 -17 -42 -44 -52 -61 -16
-27 -16 -31 -3 -31 9 0 16 5 16 10 0 24 41 50 80 50 49 0 64 -24 57 -86 -2
-24 -2 -44 2 -44 4 0 24 20 44 45 31 37 44 45 71 45 48 0 60 -19 51 -85 -3
-30 -4 -55 -1 -55 14 0 38 68 40 111 1 38 -4 53 -24 74 -21 22 -22 28 -10 35
8 5 23 10 33 10 18 0 23 25 7 35 -6 4 -27 -3 -47 -15 -19 -11 -38 -19 -40 -16
-6 5 76 66 89 66 4 0 8 9 8 20 0 35 -40 24 -87 -25 l-43 -45 0 45 c0 44 -1 45
-31 45 l-30 0 5 -57z" id="node1" class="node"></path>
<path d="M456 2653 c-9 -21 -23 -46 -31 -56 -13 -17 -15 -18 -39 -2 -28 19
-82 17 -78 -2 1 -9 -10 -13 -34 -13 -45 0 -42 -24 4 -28 39 -4 43 -22 5 -22
-42 0 -74 -11 -70 -24 2 -6 15 -11 30 -11 33 0 41 -9 22 -25 -19 -15 -20 -41
-1 -34 7 3 20 -6 29 -20 11 -16 37 -31 73 -43 65 -20 80 -40 65 -86 -83 -259
-132 -401 -162 -463 -10 -22 -19 -43 -19 -47 0 -9 -77 -193 -98 -234 -9 -18
-20 -33 -24 -33 -18 0 -109 -106 -118 -139 -15 -55 -14 -66 7 -50 15 13 16 12
9 -11 -5 -14 -10 -57 -13 -97 -5 -71 -5 -72 31 -108 20 -19 36 -41 36 -48 0
-23 61 -78 80 -72 10 3 41 -4 69 -15 29 -11 60 -20 70 -20 28 0 47 -37 66
-129 13 -63 14 -89 6 -113 -15 -43 -14 -51 9 -76 17 -18 19 -26 10 -43 -7 -11
-22 -62 -35 -112 l-23 -92 -78 -5 c-81 -6 -112 -17 -151 -53 -27 -24 -21 -37
18 -37 37 0 37 -11 -1 -48 -17 -17 -30 -38 -30 -47 0 -21 15 -18 113 19 37 14
86 26 108 26 53 0 119 -22 119 -39 0 -10 8 -12 33 -7 105 21 100 23 151 -35
25 -30 55 -76 65 -104 27 -72 50 -68 76 13 l20 63 55 -3 55 -3 3 38 c4 43 -24
96 -66 125 -33 22 -146 57 -160 49 -18 -12 -44 77 -49 171 -5 76 -3 100 12
132 14 32 16 45 7 64 -9 21 -6 33 18 78 44 81 70 101 150 114 38 7 90 22 116
35 59 29 204 166 238 223 35 60 56 151 56 243 0 137 -42 229 -133 292 -50 34
-141 71 -174 71 -15 0 -28 10 -38 29 -8 17 -25 37 -37 45 -29 21 -91 20 -131
0 -21 -11 -61 -18 -117 -19 -48 -2 -104 -10 -129 -19 -24 -9 -45 -15 -47 -14
-6 7 29 136 57 206 35 87 110 235 138 271 18 24 19 24 60 8 23 -10 48 -17 55
-17 27 0 74 50 83 88 l10 37 9 -34 c15 -54 35 -52 28 3 -7 51 -1 55 36 26 14
-11 29 -20 33 -20 10 0 -11 40 -37 69 l-21 24 38 -7 c21 -4 37 -3 37 2 0 10
-41 28 -75 34 -17 3 -13 9 22 32 24 16 40 32 38 36 -6 10 -61 -4 -81 -21 -21
-17 -26 -7 -13 30 6 18 9 34 6 38 -12 11 -27 -10 -44 -63 -16 -52 -16 -57 -1
-68 11 -8 15 -20 11 -34 l-5 -22 -28 20 c-15 11 -39 24 -53 29 -17 7 -33 28
-50 66 -21 45 -32 56 -56 61 -26 6 -29 9 -21 30 11 28 3 54 -16 54 -16 0 -54
-39 -54 -56 0 -7 -3 -19 -6 -27 -3 -8 2 -22 11 -31 21 -20 14 -22 -80 -30 -55
-4 -65 -3 -45 5 14 6 31 14 39 18 12 6 61 120 61 142 0 21 -18 6 -34 -28z
m187 -158 c21 -43 35 -58 64 -70 75 -32 91 -69 52 -119 -26 -33 -68 -34 -129
-1 l-45 23 29 7 c20 6 37 3 57 -9 27 -16 29 -16 38 3 14 24 -9 51 -43 51 -36
0 -114 -38 -156 -76 l-38 -34 -11 77 c-12 84 -34 117 -75 111 -34 -5 -32 -37
3 -49 17 -6 31 -14 31 -18 0 -13 -89 14 -107 32 -16 16 -16 18 4 39 18 17 37
22 102 26 l81 5 2 -29 c1 -16 1 -39 1 -50 -1 -16 6 -23 22 -26 18 -4 33 5 61
33 35 36 38 59 9 59 -8 0 -20 -9 -28 -21 -14 -19 -15 -18 -20 18 -4 31 -1 42
19 60 13 12 30 20 37 17 7 -2 25 -29 40 -59z m-50 -201 c3 -3 -10 -26 -29 -50
-62 -82 -170 -346 -203 -499 -8 -33 -17 -76 -22 -95 -13 -51 -11 -144 3 -158
21 -21 38 -13 38 18 0 19 7 33 19 40 26 13 167 13 193 -1 29 -16 37 0 11 21
-13 10 -23 21 -23 25 0 7 82 0 128 -12 12 -3 22 -1 22 6 0 16 -39 34 -90 42
-32 6 -20 7 40 4 47 -2 96 -7 109 -11 19 -6 22 -4 19 12 -5 28 -46 44 -113 44
-58 0 -61 2 -75 33 -8 17 -22 33 -32 35 -14 3 -15 -3 -11 -37 5 -36 3 -42 -18
-49 -20 -8 -25 -5 -39 22 -17 35 -37 36 -32 3 4 -30 -6 -67 -18 -67 -5 0 -16
15 -24 34 -8 18 -19 36 -24 40 -12 7 -27 -48 -18 -63 8 -12 -3 -41 -15 -41
-10 0 -12 83 -3 116 6 24 30 37 119 65 81 25 149 25 175 -1 27 -27 50 -26 50
4 0 27 14 35 50 27 43 -10 62 -27 69 -62 6 -31 10 -34 37 -31 82 8 223 -76
268 -159 57 -104 40 -295 -36 -407 -38 -56 -167 -168 -206 -180 -15 -4 -79 -6
-142 -6 -75 1 -117 -3 -122 -10 -5 -8 -22 -6 -58 7 -40 14 -55 16 -65 7 -11
-9 -19 -6 -39 17 -22 24 -27 26 -45 16 -18 -11 -23 -10 -37 12 -13 20 -25 25
-55 25 -31 0 -47 8 -79 36 -23 21 -46 34 -54 31 -8 -3 -34 4 -58 17 l-43 23 3
94 c3 93 3 93 -16 75 -11 -9 -26 -31 -32 -47 -7 -16 -14 -28 -16 -27 -7 8 19
94 36 119 21 29 26 59 10 59 -34 0 20 59 82 91 33 17 37 22 32 48 -4 20 5 56
29 117 77 194 135 355 177 494 16 52 29 89 29 83 1 -23 27 -13 58 22 29 32 69
46 86 29z m-173 -1394 l55 -19 -2 -94 c-1 -52 -6 -104 -12 -115 -15 -28 -14
-52 4 -72 13 -14 11 -25 -21 -98 -38 -89 -49 -166 -24 -168 8 0 25 -2 38 -2
12 -1 22 -6 22 -11 0 -18 -45 -80 -58 -81 -7 0 -27 7 -44 16 -28 15 -38 15
-120 -1 -49 -10 -91 -15 -94 -13 -10 11 72 51 114 56 26 3 42 10 42 18 0 19
-31 17 -90 -5 -45 -17 -54 -18 -77 -6 l-27 14 39 18 c26 11 67 17 115 17 l75
1 18 70 c10 39 23 89 29 112 5 23 16 47 24 54 20 16 17 36 -6 49 -22 12 -26
40 -10 70 12 22 -3 102 -31 167 -10 24 -17 43 -16 43 1 -1 27 -9 57 -20z m206
-36 l21 -6 -24 -60 c-18 -44 -23 -69 -18 -98 6 -33 2 -42 -25 -73 -17 -20 -27
-38 -22 -41 5 -3 10 -34 10 -68 0 -61 33 -191 51 -203 5 -3 36 -9 69 -13 76
-11 123 -42 151 -100 l22 -45 -23 7 c-13 3 -33 6 -45 6 -13 0 -31 9 -40 19
-70 75 -87 91 -99 91 -24 0 -25 -20 -1 -29 54 -21 98 -114 81 -173 l-9 -32
-39 75 c-65 125 -91 145 -162 124 -26 -8 -51 -12 -54 -9 -5 5 41 49 73 69 13
9 14 26 7 132 -8 116 -10 125 -39 162 -37 47 -38 51 -6 89 13 16 22 32 19 34
-7 8 35 110 53 131 18 19 19 19 49 11z m-109 -46 c-7 -27 -13 -36 -15 -25 -5
24 6 67 17 67 5 0 4 -19 -2 -42z m2 -351 c6 -35 11 -76 11 -91 0 -24 -3 -27
-22 -22 -13 3 -35 6 -51 6 -25 0 -27 3 -21 28 9 40 55 142 64 142 5 0 13 -28
19 -63z" id="node2" class="node"></path>
<path d="M860 1613 c1 -5 22 -18 48 -31 85 -41 181 -208 182 -315 0 -54 24
-43 28 12 4 57 -32 169 -71 220 -42 56 -130 121 -162 121 -14 0 -25 -3 -25 -7z" id="node3" class="node"></path>
<path d="M766 1571 c-4 -5 12 -23 33 -41 88 -69 149 -188 156 -304 2 -32 6
-60 8 -63 3 -2 11 13 18 34 30 92 0 197 -84 288 -48 53 -122 101 -131 86z" id="node4" class="node"></path>
<path d="M709 1468 c83 -81 132 -158 162 -252 24 -76 34 -91 41 -58 12 54 -35
172 -99 250 -39 48 -132 122 -154 122 -7 0 15 -28 50 -62z" id="node5" class="node"></path>
<path d="M470 1496 c0 -7 12 -19 26 -27 56 -30 199 -220 268 -356 61 -122 75
-84 20 57 -45 117 -103 203 -176 263 -53 44 -138 83 -138 63z" id="node6" class="node"></path>
<path d="M240 1370 c0 -8 27 -62 60 -120 33 -58 60 -108 60 -112 0 -5 4 -8 9
-8 16 0 -1 84 -25 125 -32 54 -104 134 -104 115z" id="node7" class="node"></path>
<path d="M230 1242 c0 -45 79 -182 105 -182 29 0 23 20 -31 101 -69 103 -74
109 -74 81z" id="node8" class="node"></path>
<path d="M690 2605 c-7 -8 -15 -35 -18 -60 -4 -41 -3 -45 16 -45 29 0 54 41
50 82 -3 37 -27 48 -48 23z" id="node9" class="node"></path>
</g>
<g transform="translate(0.000000,300.000000) scale(0.100000,-0.100000)" fill="#E4C93F" stroke="none">










</g>
</svg>