<!--?xml version="1.0" encoding="utf-8"?-->

<svg xmlns="http://www.w3.org/2000/svg" xmlns:xlink="http://www.w3.org/1999/xlink" width="190.949px" height="149.292px" viewBox="0 0 190.949 149.292">

	<g>
		<g>
			<path fill="#C89E6F" stroke="#0D0607" stroke-width="1.5" d="M2.276,123.391c0,0-4.209-17.587,0.388-32
				c0,0,0.643-18.023-0.217-24.383c-0.859-6.36-0.171-22.004,0.172-24.753c0.344-2.751,2.235-9.111,9.455-13.237
				c7.22-4.125,13.581-10.83,21.488-10.142s22.519,5.157,30.082,5.673c7.564,0.516,10.143,0.688,10.143,0.688
				s21.659-2.063,28.363-3.61c6.705-1.547,11.002-2.063,19.598-1.203c8.594,0.859,15.471,0.859,15.471,0.859l1.375-0.859
				c0,0-1.074-0.745-0.465-1.737c0.611-0.992,2.014-0.842,4.936-1.702c2.922-0.859,3.683-1.169,4.644-1.031
				c0.959,0.138,3.92-2.284,3.92-2.284s-4.092-6.999-1.342-11.124c0,0,0.932,8.188,6.911,8.649c0,0,1.513-0.227,2.371-0.227
				c0.857,0,2.496-0.754,2.496-0.754l3.336-0.75c0,0-0.461-6.273,5.363-8.487c0,0-3.588,6.604,0.191,10.497
				c0,0,4.084,1.836,4.771,3.244c0,0-0.076-0.692,1.944-1.031s4.908-0.569,6.524-0.223c1.617,0.346,3.64,0.289,3.64,0.289
				s-0.461,0.116-1.385,1.791c-0.927,1.675-1.216,3.003-1.966,4.159c-0.75,1.156-0.924,2.022-1.905,2.483
				c-0.979,0.462-0.867,0.52-1.906,0.52s-1.789,0-1.789,0s0.519,3.87,1.615,5.718c1.099,1.849,3.467,4.101,4.91,5.487
				c1.442,1.386,2.6,0.809,3.754,2.079c1.155,1.271,1.551,2.228,1.063,4.263c-0.485,2.033-0.834,2.206-1.586,4.229
				c-0.75,2.021-0.229,3.292-2.192,3.581c-1.966,0.289-4.572,1.435-6.906-0.062c-2.336-1.499-5.397-2.711-8.17-3.635
				c-2.771-0.923-3.644-0.635-6.588-1.387c-2.945-0.75-3.466-0.924-3.466-0.924s-0.928,2.252-5.664,6.065
				c-4.735,3.812-7.854,7.682-8.778,9.298c-0.924,1.618-1.155,8.086-3.467,13.112c-2.312,5.024-3.063,6.93-7.339,10.627
				c-4.274,3.695-4.793,4.215-4.909,4.619c-0.115,0.404-2.483,12.247-3.697,16.637c-1.213,4.391-1.562,9.644-1.764,14.104
				c-0.203,4.46,0.258,11.773,0.43,14.098c0.173,2.319,0.603,3.438,0.603,3.438s0.289,1.332,1.578,2.558
				c1.291,1.226,3.289,3.353,3.03,4.222c-0.258,0.871-2.547,2.258-3.514,2.354c-0.968,0.097-5.804-0.129-6.576-1.999
				c-0.772-1.869-1.289-1.966-0.869-3.189c0.418-1.226,1.32-1.74,0.548-2.451c-0.773-0.709-1.449-1.029-1.611-1.448
				c-0.16-0.421-1.578-2.417-0.676-4.286c0.901-1.87,1.096-2.807,1.127-3.997c0.033-1.19,0.063-3.868,0.063-3.868
				s-0.289-6.123-0.354-6.832c-0.064-0.709-1.354-5.932-1.354-5.932l-0.354-0.646c0,0-1.739,6.93-2.516,9.154
				c-0.771,2.225-1.867,7.93-2.063,9.572c-0.193,1.643-0.064,4.094-0.033,5.189c0.033,1.096-0.645,3.836-0.676,4.865
				c-0.033,1.031,0,2.258,1.354,3.996c1.354,1.741,4.545,4.643,4.576,5.385c0.033,0.739-0.191,1.127-1.385,1.547
				c-1.193,0.418-3.482,0.676-4.996,0.449c-1.516-0.227-3.418-0.646-4.127-1.48c-0.709-0.838-1.354-2.514-0.934-4.577
				c0.418-2.063,0.516-3.609,0.321-4.125c-0.194-0.517-1.481-4.255-1.646-5.126c-0.159-0.869,0.291-2.385,0.871-4.028
				s1.48-6.155,1.48-7.06c0-0.901-0.387-7.832-0.42-9.346c-0.03-1.517-0.321-9.154-0.225-11.152
				c0.096-1.998,0.322-4.223,0.192-4.641c-0.129-0.42-0.741-1.613-1.225-2.418c-0.484-0.808-0.937-1.451-0.937-1.451
				s-9.348,0.278-12.786,0.967c-3.438,0.688-9.11,2.148-15.643,2.923s-10.252-0.366-14.065-1.429
				c-3.813-1.063-5.704-1.063-7.681-1.235c-1.977-0.173-3.427-0.367-3.427-0.367s-1.988,3.462-3.793,4.923
				c-1.805,1.463-1.687,1.633-3.169,2.504c-1.482,0.869-2.804,1.159-3.449,1.256c-0.645,0.099-0.612,0.193-0.548,0.774
				c0.064,0.58,0,2.675-0.387,3.353c-0.387,0.676-0.302,1.111-0.715,1.313s-1.058-0.313-1.219-1.28
				c-0.161-0.968-0.097-1.838-0.064-2.416c0.033-0.58,0.064-1.259,0.064-1.259l-1.224,0.185c0,0-0.646,4.006-1.161,5.037
				c-0.515,1.03-0.903,1.226-1.064,1.226c-0.161,0-0.709-0.451-0.709-1.74s0.064-2.675,0.064-3.126s-0.069-0.938-0.069-0.938
				s-1.091-0.225-1.414-0.225c-0.323,0-0.871-0.129-0.871-0.129s-0.29,0.611-0.548,2.127c-0.258,1.516-0.129,2.127-0.902,2.676
				c0,0-0.575,1.926-0.677,3.25c-0.102,1.321,0.127,2.926,0.712,4.527s1.068,3.359,1.984,5.697c0.916,2.342,1.577,4.07,2.213,5.472
				c0.636,1.399,0.789,1.577,1.018,2.724c0.229,1.146,0.198,2.797,0.812,3.422c0.613,0.625,1.53,1.516,2.344,2.125
				s2.696,2.619,3.358,3.357s0.866,0.864,0.356,1.653c-0.51,0.788-1.832,1.22-2.544,1.424c-0.712,0.205-1.832,0.255-2.849,0.255
				c-1.018,0-2.57-0.178-3.486-0.482c-0.916-0.306-1.603-1.244-1.552-2.289c0.051-1.043,0.331-2.926,0.077-3.332
				c-0.254-0.407-0.28-0.738-0.636-0.738c-0.356,0-1.628,0.865-1.807,0.482c-0.179-0.381-0.687-3.992-1.145-5.443
				c-0.458-1.45-1.425-6.817-1.959-8.064c-0.534-1.246-2.264-4.963-2.875-6.184c-0.611-1.221-2.646-5.215-2.85-5.547
				c-0.203-0.329-0.636-0.991-0.636-0.991s-2.723,5.142-3.283,6.412c-0.56,1.272-1.017,3.026-0.966,4.376
				c0.051,1.35,0.33,4.757,0.508,7.301c0.178,2.545,0.917,8.498,1.043,9.107c0.127,0.611,0.305,0.992,1.297,1.959
				c0.992,0.968,2.875,1.91,3.715,2.724c0.839,0.813,2.06,2.163,1.653,2.672c-0.407,0.509-1.958,1.146-3.078,1.552
				c-1.12,0.407-2.01,0.688-3.358,0.28c-1.348-0.407-3.537-4.047-3.104-2.696c0.343,1.068-0.081-0.412-1.285-2.52
				c-0.305-0.534-0.444-0.38-0.825-0.329c-0.381,0.05-0.613-1.224-0.842-0.866c-0.229,0.356-1.476-0.128-1.476-1.324
				c0-1.193,0.025-9.412,0.025-9.488s-0.814-8.192-1.17-10.024S7.97,108,7.97,108s-0.378-3.551,0.073-5.808
				c0.451-2.256,5.415-6.444,5.995-7.931c0.58-1.481,3.481-7.799,2.708-11.73s-3.094-12.248-4.899-15.471
				c-1.805-3.223-5.025-11.866-5.863-13.22s-2.708-9.476-2.708-9.476S4.758,58.03,5.532,62.092c0.774,4.061,1.096,9.54,1.161,15.342
				c0.064,5.801-0.902,10.7-0.451,12.183c0.451,1.483,1.482,5.223,1.547,7.092c0.064,1.869-0.064,10.379-0.773,14.568
				s-1.225,5.674-1.031,8.639c0.194,2.965,0.129,4.771,0.129,4.771l-1.676-4.835c0,0,0.387,6.513,0.451,6.704
				s-1.225-4.448-1.225-4.448l-0.838,5.415c0,0-0.016-2.354-0.436-3.835C1.98,122.199,2.276,123.391,2.276,123.391z" id="path-0" style="position: relative;"></path>
			<path fill="#C89E6F" stroke="#0D0607" stroke-width="1.5" d="M160.803,21.507c0,0,3.092-1.946,4.553-0.667
				c1.463,1.277,3.651,2.373,3.744,2.647c0.092,0.274-1.369,0.548-1.918,0.64c-0.548,0.091-4.291,1.645-5.752-1.917
				c0,0-0.322-0.606-0.599-0.623" id="path-1" style="position: relative;"></path>
			<path fill="#C89E6F" stroke="#0D0607" stroke-width="1.5" d="M164.039,21.25c0,0,0.809,0.564,0.855,0.822
				c0.047,0.258-0.162,0.871-0.162,0.871s0.098,0.274-0.193,0.371c-0.289,0.097-0.805,0.258-1.016,0.177
				c-0.209-0.081-0.627-0.354-0.74-0.612c-0.113-0.258-0.193-0.742-0.193-0.919c0-0.177,0.26-0.403,0.26-0.403
				S163.701,21.137,164.039,21.25z" id="path-2" style="position: relative;"></path>
			<polygon fill="#C89E6F" stroke="#0D0607" stroke-width="1.5" points="157.48,20.9 154.96,18.877 152.367,17.198 150.496,16.397 
				148.664,16.091 146.451,16.206 144.199,16.74 142.406,17.427 140.191,17.503 138.74,17.694 138.128,18.686 138.512,19.87 
				141.068,22.007 144.083,23.496 149.811,24.564 153.587,24.259 155.923,23.095 			"></polygon>
			<polygon fill="#C89E6F" stroke="#0D0607" stroke-width="1.5" points="152.596,23.458 149.656,21.74 148.32,20.29 146.755,19.488 
				145.305,19.106 142.52,19.259 144.848,19.908 143.74,20.328 147.061,21.396 145.611,21.549 146.832,22.389 145.878,22.732 
				149.083,23.114 149.083,23.648 153.055,23.839 			"></polygon>
			<path fill="#C89E6F" stroke="#0D0607" stroke-width="1.5" d="M151.479,14.064c0,0,2.188,1.128,2.471,1.482
				c0.279,0.353,0.986-0.917,1.904-2.046c0.916-1.129,0.422-1.129,0.916-1.129" id="path-3" style="position: relative;"></path>
			<path fill="#C89E6F" stroke="#0D0607" stroke-width="1.5" d="M164.46,9.591c0,0,1.744,0.071,3.701,0.817" id="path-4" style="position: relative;"></path>
			<path fill="#C89E6F" stroke="#0D0607" stroke-width="1.5" d="M175.936,15.388c0,0,2.268,3.212,2.268,4.724
				c0,1.512,0.553,0.848,0.553,0.848" id="path-5" style="position: relative;"></path>
			<path fill="#C89E6F" stroke="#0D0607" stroke-width="1.5" d="M188.486,42.039c0,0-0.902-1.16-0.902-1.934
				s-0.258-1.16,0.129-1.418c0.389-0.258,0.902-0.387,0.902-0.387h0.904" id="path-6" style="position: relative;"></path>
			<path fill="#C89E6F" stroke="#0D0607" stroke-width="1.5" d="M180.365,41.523c0,0,2.191,0.774,2.578,0.387
				c0.387-0.387,0,0.645,0.387-0.387c0.387-1.031,0.129-1.031-0.387-1.676s0.387-0.258-0.517-0.645
				c-0.901-0.387-1.805-0.387-1.805-0.387l-0.388,0.774" id="path-7" style="position: relative;"></path>
			<path fill="#C89E6F" stroke="#0D0607" stroke-width="1.5" d="M176.755,44.102c0,0,1.677,1.547,3.353,2.192
				c1.678,0.645,2.19,1.418,2.707,1.16c0.518-0.258,0.901-0.645,1.289-0.902c0.389-0.257,1.289,0.129,1.676-0.258
				c0.389-0.387,2.063-0.258,2.063-0.258" id="path-8" style="position: relative;"></path>
			<path fill="#C89E6F" stroke="#0D0607" stroke-width="1.5" d="M146.328,34.862c0,0,6.361,6.705,14.271,6.705" id="path-9" style="position: relative;"></path>
			<path fill="#C89E6F" stroke="#0D0607" stroke-width="1.5" d="M109.197,51.88c0,0-11.688,27.504-1.717,38.506" id="path-10" style="position: relative;"></path>
			<path fill="#C89E6F" stroke="#0D0607" stroke-width="1.5" d="M61.41,48.786c0,0-2.063,13.065-6.876,23.722
				c-4.813,10.658-14.44,12.378-16.503,16.16c-2.063,3.781-5.844,8.596-5.844,8.596" id="path-11" style="position: relative;"></path>
			<path fill="#C89E6F" stroke="#0D0607" stroke-width="1.5" d="M108.762,143.777c0,0,0.973-0.09,2.213,0.088
				c1.239,0.178,2.037-0.178,3.455,0.266c1.416,0.443,2.036-0.528,2.743,0.621" id="path-12" style="position: relative;"></path>
			<path fill="#C89E6F" stroke="#0D0607" stroke-width="1.5" d="M120.716,138.108c0.531-0.53,1.15-0.708,2.037-0.974
				c0.888-0.266,1.063-0.266,1.949-0.266c0.885,0,1.771,0,2.215,0" id="path-13" style="position: relative;"></path>
			<path fill="#C89E6F" stroke="#0D0607" stroke-width="1.5" d="M32.417,135.628c0.708,0,1.24-0.176,2.568,0
				c1.329,0.178,2.569,0.619,2.569,0.619" id="path-14" style="position: relative;"></path>
			<path fill="#C89E6F" stroke="#0D0607" stroke-width="1.5" d="M12.464,138.521c0.22,0,0.88,0.221,1.65,0.221
				c0.77,0,1.54,0.055,1.87,0.055s0.88,0.057,0.88,0.057l0.055-0.771" id="path-15" style="position: relative;"></path>
			<path fill="#C89E6F" stroke="#0D0607" stroke-width="1.5" d="M22.044,108.435c0,0,3.868-4.125,5.157-5.673
				s3.868-4.125,3.868-4.125" id="path-16" style="position: relative;"></path>
			<path fill="#C89E6F" stroke="#0D0607" stroke-width="1.5" d="M129.826,75.171c0,0,0.516,0.259-1.805,5.674
				c-2.32,5.414-2.578,6.962-4.642,11.088c-2.063,4.125-2.063,5.932-3.096,8.251c-1.033,2.319-2.063,5.673-2.063,5.673" id="path-17" style="position: relative;"></path>
		</g>
	</g>
</svg>
