<!--?xml version="1.0" standalone="no"?-->

<svg version="1.0" xmlns="http://www.w3.org/2000/svg" width="232.000000pt" height="300.000000pt" viewBox="0 0 232.000000 300.000000" preserveAspectRatio="xMidYMid meet">
<g transform="translate(0.000000,300.000000) scale(0.100000,-0.100000)" fill="#3D3D3D" stroke="none">
<path class="node" id="node1" d="M1437 2791 c-11 -90 -62 -160 -161 -218 -81 -47 -128 -63 -149 -51
-10 5 -27 28 -38 51 -28 55 -78 107 -103 107 -65 -1 -146 -69 -167 -140 -9
-31 -18 -40 -40 -45 -16 -4 -42 -20 -60 -36 l-31 -29 21 -28 20 -29 -39 -43
c-21 -23 -51 -72 -66 -108 -24 -58 -28 -82 -28 -172 -1 -122 14 -177 100 -355
30 -60 56 -129 60 -152 l7 -43 -55 0 c-30 0 -77 -7 -104 -15 -27 -8 -54 -15
-61 -15 -19 0 -105 92 -120 128 -8 20 -14 63 -13 101 2 90 2 91 -14 91 -26 0
-79 -54 -102 -105 -29 -61 -31 -138 -6 -211 l18 -50 -23 4 c-17 3 -23 0 -23
-13 0 -28 33 -75 62 -88 23 -10 28 -18 28 -47 0 -31 12 -56 52 -112 15 -21 -2
-116 -27 -155 -20 -30 -73 -63 -102 -63 -13 0 -23 -4 -23 -9 0 -15 42 -41 66
-41 22 0 22 0 7 -58 -22 -82 -13 -168 24 -234 32 -56 31 -55 113 -89 99 -40
289 -36 359 8 18 12 49 15 121 14 77 -2 101 1 113 13 9 9 22 16 31 16 19 0 31
-39 17 -53 -6 -6 -11 -14 -11 -17 0 -10 50 -31 60 -25 5 3 20 1 34 -5 19 -7
39 -6 71 6 41 14 47 13 72 -3 35 -23 204 -25 243 -3 14 8 66 17 115 20 74 4
97 10 124 29 31 22 33 27 28 68 -6 57 -36 88 -99 104 -42 11 -53 20 -73 54
-13 22 -27 54 -31 70 l-7 30 39 -37 c22 -20 59 -46 84 -56 64 -28 273 -44 333
-26 17 5 17 7 2 18 -9 7 -16 19 -14 27 1 7 -1 22 -6 32 -17 39 2 114 58 227
78 159 92 231 62 315 -11 31 -11 41 -2 47 43 26 43 26 -6 68 -32 28 -59 66
-82 114 -48 100 -49 184 -3 329 41 130 45 254 11 329 -21 47 -21 47 -2 98 22
58 25 113 7 128 -14 10 -66 28 -110 37 -21 4 -28 11 -28 29 0 37 -59 144 -93
170 -51 38 -158 76 -214 76 -36 0 -67 -8 -109 -30 -32 -16 -60 -30 -61 -30 -2
0 -3 13 -3 30 0 30 -28 100 -40 100 -4 0 -10 -22 -13 -49z m33 -62 c0 -25 -11
-43 -50 -81 -27 -27 -50 -51 -50 -54 0 -11 20 -1 51 26 52 45 172 110 215 116
28 4 35 3 25 -4 -11 -8 1 -11 42 -11 96 0 175 -51 223 -143 l16 -31 -43 35
c-51 41 -88 62 -97 54 -3 -3 -3 -7 -1 -9 61 -45 93 -76 118 -114 28 -42 31
-54 30 -117 l-2 -71 -7 58 c-11 83 -29 96 -28 21 0 -32 -5 -78 -12 -102 -13
-43 -86 -132 -108 -132 -7 0 -12 17 -12 43 0 72 -47 156 -120 211 -34 26 -64
46 -66 44 -1 -2 26 -34 62 -72 36 -37 63 -70 61 -73 -8 -8 -140 100 -181 148
-40 47 -56 47 -32 0 24 -46 19 -58 -11 -29 -52 48 -123 73 -138 48 -3 -6 4
-10 17 -10 35 0 83 -34 120 -84 35 -48 47 -56 49 -31 1 8 3 20 4 25 1 6 3 13
4 17 0 4 16 -7 34 -24 17 -16 52 -44 77 -61 87 -59 93 -68 87 -134 -5 -59 -5
-60 18 -54 32 8 66 23 87 38 14 10 21 9 37 -6 25 -23 30 -2 6 24 -14 15 -13
19 4 34 18 16 19 16 30 -15 16 -47 13 -103 -14 -204 -17 -65 -25 -85 -31 -71
-4 10 -2 27 4 37 15 24 15 29 -2 29 -9 0 -12 7 -9 20 6 21 -11 28 -23 9 -3 -6
-22 -17 -40 -25 -43 -18 -61 -47 -69 -109 -10 -86 28 -123 96 -95 18 8 32 23
36 38 5 22 8 18 25 -34 20 -62 17 -116 -7 -165 -21 -40 -102 -109 -161 -136
-67 -30 -198 -41 -299 -24 l-70 12 -22 48 c-12 26 -43 73 -68 104 -25 31 -52
72 -60 92 -21 48 -19 129 6 238 20 90 22 213 4 260 -6 15 -4 16 16 8 58 -21
151 79 135 144 -8 33 -79 73 -157 89 l-62 12 74 36 c110 52 196 137 223 221 8
27 16 20 16 -14z m-453 -101 c37 -40 56 -88 42 -104 -16 -19 -23 -18 -68 10
-21 13 -57 30 -80 37 l-42 12 21 21 c19 19 70 43 96 45 6 1 20 -9 31 -21z
m-72 -97 c22 -10 46 -25 54 -34 12 -15 10 -17 -25 -17 -76 0 -146 32 -129 60
10 15 55 12 100 -9z m178 -42 c8 -13 6 -21 -6 -33 -14 -14 -20 -15 -37 -4 -11
7 -20 20 -20 30 0 30 45 35 63 7z m-238 -23 l40 -12 -53 -24 c-29 -12 -62 -34
-73 -48 l-20 -26 -24 29 c-31 38 -28 53 15 76 40 22 59 22 115 5z m1167 -15
c41 -16 47 -31 31 -83 -7 -27 -17 -48 -21 -48 -22 0 -70 68 -76 109 -6 42 -6
43 18 37 14 -3 36 -10 48 -15z m-787 -19 c80 -22 97 -58 59 -119 -18 -29 -30
-29 -49 1 -9 13 -44 43 -78 67 -34 23 -64 44 -66 46 -3 2 4 9 14 17 18 13 32
12 120 -12z m-192 -4 c15 -12 13 -19 -20 -86 -31 -62 -37 -86 -41 -155 -4 -83
7 -148 30 -180 11 -14 19 -15 53 -6 22 6 52 21 67 33 l26 23 -29 59 c-26 51
-29 67 -27 131 2 40 8 74 13 74 6 1 21 -20 35 -47 36 -69 39 -181 10 -296 -15
-59 -21 -107 -18 -152 1 -36 1 -66 -2 -66 -3 0 -18 20 -35 45 -16 24 -33 45
-38 45 -17 0 38 -85 98 -155 122 -140 162 -236 152 -370 -5 -76 -30 -161 -54
-185 -13 -13 -13 -12 0 15 21 43 30 99 22 141 -8 47 -17 37 -21 -27 -4 -50
-55 -170 -104 -239 -64 -92 -92 -220 -67 -303 8 -26 12 -49 8 -51 -14 -9 -107
15 -147 39 -81 48 -153 156 -154 234 -1 9 -8 27 -16 41 -14 24 -15 22 -10 -35
3 -33 8 -71 12 -85 11 -37 -61 50 -93 114 -22 42 -26 66 -27 131 -1 103 15
151 58 169 38 16 86 70 86 97 0 28 -12 22 -45 -23 -42 -58 -58 -58 -28 -1 22
43 24 57 21 138 -4 87 -7 95 -71 232 -84 178 -101 241 -95 354 6 99 40 188 91
237 l32 31 21 -24 c18 -20 20 -27 9 -42 -20 -29 -45 -114 -44 -147 1 -21 3
-25 6 -11 15 60 92 206 126 239 64 62 170 94 210 64z m131 -79 c54 -48 75 -79
52 -79 -16 0 -90 69 -106 100 -17 31 3 24 54 -21z m-91 -11 c-14 -79 -8 -180
15 -231 l21 -47 -29 -15 c-46 -24 -57 -19 -69 29 -22 89 -9 210 30 273 28 46
41 42 32 -9z m916 -32 c81 -118 88 -199 35 -385 -51 -174 -51 -239 0 -345 21
-42 55 -95 78 -118 22 -22 37 -42 34 -46 -4 -3 -24 11 -45 32 -29 28 -50 40
-78 42 -30 3 -34 2 -20 -7 9 -5 29 -33 44 -62 26 -49 27 -60 26 -182 0 -126 0
-128 14 -85 17 55 19 161 4 216 -6 23 -22 59 -36 80 -25 39 -25 39 18 -8 62
-66 81 -149 56 -243 -5 -22 -36 -92 -67 -155 -45 -91 -57 -124 -57 -162 0 -26
-3 -48 -7 -48 -14 0 -30 84 -26 141 4 74 -8 86 -17 17 -12 -83 -7 -129 20
-183 30 -61 23 -67 -60 -59 -100 11 -161 54 -221 158 -15 27 -29 45 -31 39 -6
-16 24 -78 62 -128 20 -26 35 -49 32 -51 -9 -9 -101 62 -131 102 -31 40 -34
50 -40 144 -5 71 -4 106 4 115 7 8 9 27 5 44 -6 27 -3 31 29 45 20 8 36 19 36
23 0 4 -18 19 -40 32 -26 16 -40 33 -42 49 -2 18 -10 26 -25 27 -34 2 -35 8
-11 52 20 37 27 41 82 51 203 38 335 202 282 352 -21 59 -20 85 3 172 29 109
35 194 17 252 -14 47 -14 52 6 88 12 21 25 38 29 38 5 0 22 -20 38 -44z m-185
-352 c22 -22 20 -41 -2 -21 -29 26 -35 20 -11 -12 12 -16 19 -35 16 -43 -4 -9
-6 -7 -6 5 -1 10 -9 17 -22 17 -16 0 -20 5 -16 20 3 11 0 20 -6 21 -8 0 -8 2
1 6 6 2 10 9 6 14 -9 15 24 10 40 -7z m-1469 -272 c1 -68 38 -144 97 -197 l38
-35 -34 -45 c-25 -32 -39 -67 -51 -120 -9 -41 -19 -75 -21 -75 -12 0 -34 63
-28 84 5 19 -2 29 -35 52 -46 32 -54 50 -16 32 36 -16 40 -5 17 44 -31 64 -45
154 -34 206 9 39 49 112 62 112 3 0 5 -26 5 -58z m385 -239 c-1 -43 -36 -112
-65 -125 -25 -11 -34 -33 -15 -40 7 -2 5 -26 -6 -68 -21 -81 -13 -163 21 -239
20 -42 54 -84 138 -166 96 -94 122 -114 173 -133 34 -12 68 -22 78 -22 16 0
23 -34 9 -43 -18 -11 -113 37 -165 83 -62 56 -79 63 -53 24 9 -14 14 -28 12
-31 -7 -6 -47 6 -47 15 0 4 -12 25 -26 47 l-25 40 5 -39 c3 -21 17 -56 31 -77
27 -41 21 -53 -9 -20 -10 11 -28 21 -40 23 -18 3 -21 10 -21 50 0 65 -11 69
-24 8 -14 -64 -35 -106 -62 -121 l-21 -11 20 29 c21 29 38 73 28 73 -3 0 -22
-17 -41 -39 -39 -43 -108 -77 -176 -87 l-44 -6 35 19 c68 37 106 67 133 104
42 59 32 68 -19 16 -26 -26 -67 -59 -93 -73 -25 -15 -56 -36 -68 -47 -13 -11
-26 -18 -29 -14 -15 15 -16 126 0 179 18 64 19 68 8 68 -12 0 -42 -67 -42 -95
0 -13 -4 -27 -10 -30 -27 -16 3 197 32 233 15 18 3 26 -20 13 -12 -6 -29 -11
-39 -10 -13 0 -12 3 7 10 63 25 95 85 103 189 10 132 35 218 76 262 43 47 121
77 199 78 50 0 52 -1 52 -27z m708 -4 c14 -6 22 -17 22 -33 0 -25 -21 -36 -73
-36 -29 0 -32 4 -41 58 l-6 33 38 -7 c20 -4 47 -11 60 -15z m82 -12 c0 -7 -7
-22 -15 -33 -14 -18 -14 -17 -15 14 0 22 5 32 15 32 8 0 15 -6 15 -13z m-20
-87 c0 -5 -4 -10 -10 -10 -5 0 -10 5 -10 10 0 6 5 10 10 10 6 0 10 -4 10 -10z
m-100 -10 c0 -5 -7 -10 -15 -10 -8 0 -18 0 -22 -1 -4 0 -9 4 -11 10 -2 6 8 11
22 11 14 0 26 -4 26 -10z m160 -21 c0 -13 -25 -39 -38 -39 -5 0 -15 7 -23 16
-10 13 -10 17 2 25 20 12 59 11 59 -2z m-85 -9 c-3 -5 -10 -10 -16 -10 -5 0
-9 5 -9 10 0 6 7 10 16 10 8 0 12 -4 9 -10z m-35 -13 c0 -7 -6 -19 -12 -26
-11 -10 -10 -11 3 -6 11 4 18 -1 22 -15 6 -25 37 -24 45 0 4 12 3 13 -10 3
-17 -15 -28 -7 -28 19 0 21 16 23 53 6 34 -16 30 -28 -14 -50 -39 -20 -93 -12
-95 13 -4 52 -4 52 -18 40 -16 -13 -32 2 -21 19 9 15 75 12 75 -3z m175 -33
c17 -13 18 -16 5 -24 -21 -14 -36 -12 -50 5 -10 12 -9 15 4 15 10 0 14 5 11
10 -9 15 7 12 30 -6z m-254 -16 c11 -21 11 -22 -4 -9 -10 7 -17 17 -17 22 0
15 9 10 21 -13z m-11 -26 c0 -15 50 -32 94 -32 35 0 51 -6 77 -31 l33 -30 -33
-62 c-81 -157 -89 -169 -101 -148 -5 11 -21 61 -35 112 -13 50 -27 94 -31 98
-16 14 9 -131 35 -210 35 -103 49 -131 96 -194 20 -26 34 -49 31 -52 -2 -3
-19 2 -36 10 -30 16 -31 15 -65 -21 -37 -41 -51 -40 -35 3 19 50 3 37 -45 -35
-26 -40 -66 -85 -88 -101 -51 -37 -86 -39 -39 -3 17 14 32 32 32 40 0 11 -8 9
-32 -10 -18 -13 -46 -28 -62 -32 l-29 -7 25 34 c35 47 101 180 85 173 -6 -3
-35 -39 -62 -81 -56 -85 -75 -99 -75 -56 0 41 11 73 24 73 6 0 17 4 25 9 11 7
11 13 -3 32 -23 33 -20 55 14 128 17 35 29 66 26 68 -2 2 -18 -13 -36 -34
l-32 -38 7 35 c13 63 43 119 94 172 28 29 68 86 89 125 33 65 52 89 52 65z
m211 -11 c0 16 17 -19 18 -38 1 -18 -13 -16 -39 5 -14 11 -20 24 -16 31 6 9
11 9 22 0 11 -9 14 -8 15 2z m-3 -215 c-8 -99 11 -178 70 -288 1 -3 -11 -9
-28 -13 -27 -6 -37 -2 -67 26 -40 39 -93 137 -85 158 3 8 27 48 53 89 27 41
49 78 49 83 0 5 3 9 6 9 4 0 4 -29 2 -64z m147 -324 c6 -4 19 -26 29 -48 19
-44 15 -78 -9 -88 -12 -4 -15 3 -15 33 0 27 -7 44 -25 61 -27 25 -32 16 -14
-24 18 -38 4 -76 -27 -76 -24 0 -26 3 -21 33 2 17 -2 47 -9 66 -8 18 -14 35
-14 36 0 12 90 18 105 7z m-171 -29 c33 2 71 -38 64 -69 -4 -17 -6 -16 -15 6
-12 29 -40 56 -49 47 -3 -3 -1 -14 5 -25 11 -20 16 -82 7 -82 -2 0 -12 -3 -22
-7 -14 -5 -16 -2 -12 15 7 24 -25 82 -46 82 -11 0 -10 -7 5 -37 27 -54 10 -77
-61 -81 -53 -3 -110 12 -110 30 0 24 46 68 77 74 21 4 42 17 55 34 17 24 24
27 47 19 14 -5 39 -8 55 -6z m-770 -9 c9 -8 16 -27 15 -42 0 -25 -1 -25 -12 7
-15 42 -41 56 -31 17 7 -29 -2 -76 -15 -76 -9 0 -22 90 -14 102 8 13 41 9 57
-8z m167 -1 c50 -30 33 -53 -39 -53 -76 0 -106 21 -57 40 14 5 25 14 25 20 0
16 39 12 71 -7z m-251 -58 c0 -14 -8 -29 -19 -35 -32 -17 -201 -9 -201 9 0 10
86 33 150 41 30 4 58 8 63 9 4 0 7 -10 7 -24z m330 21 c0 -3 -4 -8 -10 -11 -5
-3 -10 -1 -10 4 0 6 5 11 10 11 6 0 10 -2 10 -4z"></path>
<path class="node" id="node2" d="M1357 2210 c-15 -12 -24 -26 -21 -31 3 -6 11 -5 20 2 8 7 31 15 50
18 44 7 49 25 8 29 -19 2 -40 -5 -57 -18z"></path>
<path class="node" id="node3" d="M1396 2061 c-4 -5 -31 -21 -62 -35 -62 -29 -84 -64 -84 -139 0 -62
31 -89 108 -95 50 -3 60 -1 80 20 32 35 41 115 16 156 -14 26 -15 33 -5 46 12
14 10 16 -8 16 -15 0 -21 5 -19 16 3 19 -17 30 -26 15z m23 -97 c28 -36 29
-106 1 -134 -29 -29 -45 -24 -21 6 33 42 24 109 -18 141 -15 11 -14 12 1 13 9
0 26 -12 37 -26z m-53 -2 c29 -23 47 -59 37 -75 -5 -8 -9 -3 -13 13 -4 16 -13
25 -25 25 -13 0 -20 7 -20 19 0 10 -9 23 -20 27 -20 8 -20 8 0 8 11 0 30 -7
41 -17z m15 -115 c-10 -9 -11 -8 -5 6 3 10 9 15 12 12 3 -3 0 -11 -7 -18z"></path>
<path class="node" id="node4" d="M1588 1803 c-16 -2 -28 -9 -28 -15 0 -6 10 -8 23 -4 12 3 47 6 77 7
40 0 50 3 35 9 -21 9 -60 10 -107 3z"></path>
<path class="node" id="node5" d="M1605 1738 c-11 -6 -21 -12 -23 -13 -12 -9 15 -58 39 -70 35 -19 68
-6 93 35 16 28 16 29 -6 44 -26 18 -74 20 -103 4z m85 -18 c0 -5 -13 -10 -30
-10 -16 0 -30 5 -30 10 0 6 14 10 30 10 17 0 30 -4 30 -10z"></path>
<path class="node" id="node6" d="M1478 1654 c-15 -15 -13 -19 17 -45 18 -16 36 -29 40 -29 4 0 20 -11
36 -25 29 -24 59 -24 59 0 0 7 18 15 39 19 26 4 47 15 60 33 27 33 20 41 -14
15 -25 -20 -45 -23 -154 -22 -33 0 -60 26 -54 51 6 23 -7 25 -29 3z m132 -84
c0 -5 -2 -10 -4 -10 -3 0 -8 5 -11 10 -3 6 -1 10 4 10 6 0 11 -4 11 -10z"></path>
<path class="node" id="node7" d="M1618 1522 c-10 -2 -18 -8 -18 -13 0 -13 27 -11 35 2 9 13 4 16 -17
11z"></path>
<path class="node" id="node8" d="M1011 1773 c17 -46 56 -90 139 -159 53 -43 85 -78 98 -107 45 -98 43
-96 37 -43 -7 68 -31 102 -136 191 -50 42 -100 92 -111 111 -24 41 -42 45 -27
7z"></path>






</g>
<g transform="translate(0.000000,300.000000) scale(0.100000,-0.100000)" fill="#FFFFFF" stroke="none">

<path class="node" id="node16" d="M1454 2743 c-27 -84 -113 -169 -223 -221 l-74 -36 62 -12 c78 -16
149 -56 157 -89 16 -65 -77 -165 -135 -144 -20 8 -22 7 -16 -8 18 -47 16 -170
-4 -260 -25 -109 -27 -190 -6 -238 8 -20 35 -61 60 -92 25 -31 56 -78 68 -104
l22 -48 70 -12 c101 -17 232 -6 299 24 59 27 140 96 161 136 24 49 27 103 7
165 -17 52 -20 56 -25 34 -4 -15 -18 -30 -36 -38 -68 -28 -106 9 -96 95 8 62
26 91 69 109 18 8 37 19 40 25 12 19 29 12 23 -9 -3 -13 0 -20 9 -20 17 0 17
-5 2 -29 -6 -10 -8 -27 -4 -37 6 -14 14 6 31 71 27 101 30 157 14 204 -11 31
-12 31 -30 15 -17 -15 -18 -19 -4 -34 24 -26 19 -47 -6 -24 -16 15 -23 16 -37
6 -21 -15 -55 -30 -87 -38 -23 -6 -23 -5 -18 54 6 66 0 75 -87 134 -25 17 -60
45 -77 61 -18 17 -34 28 -34 24 -1 -4 -3 -11 -4 -17 -1 -5 -3 -17 -4 -25 -2
-25 -14 -17 -49 31 -37 50 -85 84 -120 84 -13 0 -20 4 -17 10 15 25 86 0 138
-48 30 -29 35 -17 11 29 -24 47 -8 47 32 0 41 -48 173 -156 181 -148 2 3 -25
36 -61 73 -36 38 -63 70 -62 72 2 2 32 -18 66 -44 73 -55 120 -139 120 -211 0
-26 5 -43 12 -43 22 0 95 89 108 132 7 24 12 70 12 102 -1 75 17 62 28 -21 l7
-58 2 71 c1 63 -2 75 -30 117 -25 38 -57 69 -118 114 -2 2 -2 6 1 9 9 8 46
-13 97 -54 l43 -35 -16 31 c-48 92 -127 143 -223 143 -41 0 -53 3 -42 11 10 7
3 8 -25 4 -43 -6 -163 -71 -215 -116 -31 -27 -51 -37 -51 -26 0 3 23 27 50 54
39 38 50 56 50 81 0 34 -8 41 -16 14z m-11 -528 c-1 -5 -18 -13 -37 -16 -19
-3 -42 -11 -50 -18 -9 -7 -17 -8 -20 -2 -11 17 46 52 78 49 17 -2 30 -7 29
-13z m-21 -169 c-2 -11 4 -16 19 -16 18 0 20 -2 8 -16 -10 -13 -9 -20 5 -46
25 -41 16 -121 -16 -156 -20 -21 -30 -23 -80 -20 -77 6 -108 33 -108 95 0 75
22 110 84 139 31 14 58 30 62 35 9 15 29 4 26 -15z m273 -246 c15 -6 5 -9 -35
-9 -30 -1 -65 -4 -77 -7 -13 -4 -23 -2 -23 4 0 18 100 27 135 12z m13 -66 c22
-15 22 -16 6 -44 -25 -41 -58 -54 -93 -35 -24 12 -51 61 -39 70 36 28 93 32
126 9z m-201 -83 c-6 -25 21 -51 54 -51 109 -1 129 2 154 22 34 26 41 18 14
-15 -13 -18 -34 -29 -60 -33 -21 -4 -39 -12 -39 -19 0 -24 -30 -24 -59 0 -16
14 -32 25 -36 25 -4 0 -22 13 -40 29 -30 26 -32 30 -17 45 22 22 35 20 29 -3z
m128 -140 c-8 -13 -35 -15 -35 -2 0 5 8 11 18 13 21 5 26 2 17 -11z"></path>
<path class="node" id="node17" d="M1381 1977 c42 -32 51 -99 18 -141 -24 -30 -8 -35 21 -6 41 41 13
161 -38 160 -15 -1 -16 -2 -1 -13z"></path>
<path class="node" id="node18" d="M1325 1971 c11 -4 20 -17 20 -27 0 -12 7 -19 20 -19 12 0 21 -9 25
-25 4 -16 8 -21 13 -13 17 27 -40 93 -78 92 -20 0 -20 0 0 -8z"></path>
<path class="node" id="node19" d="M1376 1853 c-6 -14 -5 -15 5 -6 7 7 10 15 7 18 -3 3 -9 -2 -12 -12z"></path>
<path class="node" id="node20" d="M1630 1720 c0 -5 14 -10 30 -10 17 0 30 5 30 10 0 6 -13 10 -30 10
-16 0 -30 -4 -30 -10z"></path>
<path class="node" id="node21" d="M1595 1570 c3 -5 8 -10 11 -10 2 0 4 5 4 10 0 6 -5 10 -11 10 -5 0
-7 -4 -4 -10z"></path>
<path class="node" id="node22" d="M943 2637 c-18 -7 -42 -21 -53 -33 l-21 -21 42 -12 c23 -7 59 -24 80
-37 45 -28 52 -29 68 -10 14 16 -5 64 -42 104 -23 25 -29 25 -74 9z"></path>
<path class="node" id="node23" d="M845 2540 c-17 -28 53 -60 129 -60 35 0 37 2 25 17 -32 38 -139 68
-154 43z"></path>
<path class="node" id="node24" d="M1073 2503 c-20 -7 -15 -37 7 -51 17 -11 23 -10 37 4 27 27 -7 63
-44 47z"></path>
<path class="node" id="node25" d="M770 2461 c-43 -23 -46 -38 -15 -76 l24 -29 20 26 c11 14 44 36 73
48 l53 24 -40 12 c-56 17 -75 17 -115 -5z"></path>
<path class="node" id="node26" d="M1986 2429 c6 -41 54 -109 76 -109 4 0 14 21 21 48 19 62 7 77 -79
98 -24 6 -24 5 -18 -37z"></path>
<path class="node" id="node27" d="M1145 2444 c-10 -8 -17 -15 -14 -17 2 -2 32 -23 66 -46 34 -24 69
-54 78 -67 19 -30 31 -30 49 -1 47 74 21 101 -130 137 -20 5 -37 3 -49 -6z"></path>
<path class="node" id="node28" d="M965 2428 c-29 -11 -79 -41 -102 -64 -34 -33 -111 -179 -126 -239 -3
-14 -5 -10 -6 11 -1 33 24 118 44 147 11 15 9 22 -9 42 l-21 24 -32 -31 c-51
-49 -85 -138 -91 -237 -6 -113 11 -176 95 -354 64 -137 67 -145 71 -232 3 -81
1 -95 -21 -138 -30 -57 -14 -57 28 1 33 45 45 51 45 23 0 -27 -48 -81 -86 -97
-43 -18 -59 -66 -58 -169 1 -65 5 -89 27 -131 32 -64 104 -151 93 -114 -4 14
-9 52 -12 85 -5 57 -4 59 10 35 8 -14 15 -32 16 -41 1 -78 73 -186 154 -234
40 -24 133 -48 147 -39 4 2 0 25 -8 51 -25 83 3 211 67 303 49 69 100 189 104
239 4 64 13 74 21 27 8 -42 -1 -98 -22 -141 -13 -27 -13 -28 0 -15 24 24 49
109 54 185 10 134 -30 230 -152 370 -60 70 -115 155 -98 155 5 0 22 -21 38
-45 17 -25 32 -45 35 -45 3 0 3 30 2 66 -3 45 3 93 18 152 29 115 26 227 -10
296 -14 27 -29 48 -35 47 -5 0 -11 -34 -13 -74 -2 -64 1 -80 27 -131 l29 -59
-26 -23 c-15 -12 -45 -27 -67 -33 -34 -9 -42 -8 -53 6 -23 32 -34 97 -30 180
4 69 10 93 41 155 33 67 35 74 20 86 -20 14 -66 15 -108 0z m73 -662 c11 -19
61 -69 111 -111 105 -89 129 -123 136 -191 6 -53 8 -55 -37 43 -13 29 -45 64
-98 107 -83 69 -122 113 -139 159 -15 38 3 34 27 -7z"></path>
<path class="node" id="node29" d="M1150 2370 c16 -31 90 -100 106 -100 23 0 2 31 -52 79 -51 45 -71 52
-54 21z"></path>
<path class="node" id="node30" d="M1081 2347 c-39 -63 -52 -184 -30 -273 12 -48 23 -53 69 -29 l29 15
-21 47 c-23 51 -29 152 -15 231 9 51 -4 55 -32 9z"></path>
<path class="node" id="node31" d="M1962 2312 c-20 -36 -20 -41 -6 -88 18 -58 12 -143 -17 -252 -23 -87
-24 -113 -3 -172 53 -150 -79 -314 -282 -352 -55 -10 -62 -14 -82 -51 -24 -44
-23 -50 11 -52 15 -1 23 -9 25 -27 2 -16 16 -33 42 -49 22 -13 40 -28 40 -32
0 -4 -16 -15 -36 -23 -32 -14 -35 -18 -29 -45 4 -17 2 -36 -5 -44 -8 -9 -9
-44 -4 -115 6 -94 9 -104 40 -144 30 -40 122 -111 131 -102 3 2 -12 25 -32 51
-38 50 -68 112 -62 128 2 6 16 -12 31 -39 60 -104 121 -147 221 -158 83 -8 90
-2 60 59 -27 54 -32 100 -20 183 9 69 21 57 17 -17 -4 -57 12 -141 26 -141 4
0 7 22 7 48 0 38 12 71 57 162 31 63 62 133 67 155 25 94 6 177 -56 243 -43
47 -43 47 -18 8 14 -21 30 -57 36 -80 15 -55 13 -161 -4 -216 -14 -43 -14 -41
-14 85 1 122 0 133 -26 182 -15 29 -35 57 -44 62 -14 9 -10 10 20 7 28 -2 49
-14 78 -42 21 -21 41 -35 45 -32 3 4 -12 24 -34 46 -23 23 -57 76 -78 118 -51
106 -51 171 0 345 42 146 46 214 16 290 -22 54 -76 139 -89 139 -4 0 -17 -17
-29 -38z"></path>
<path class="node" id="node32" d="M1804 1961 c4 -5 0 -12 -6 -14 -9 -4 -9 -6 -1 -6 6 -1 9 -10 6 -21
-4 -15 0 -20 16 -20 13 0 21 -7 22 -17 0 -12 2 -14 6 -5 3 8 -4 27 -16 43 -24
32 -18 38 11 12 22 -20 24 -1 2 21 -16 17 -49 22 -40 7z"></path>
<path class="node" id="node33" d="M342 1705 c-49 -71 -49 -180 0 -283 23 -49 19 -60 -17 -44 -38 18
-30 0 16 -32 33 -23 40 -33 35 -52 -6 -21 16 -84 28 -84 2 0 12 34 21 75 12
53 26 88 51 120 l34 45 -38 35 c-59 53 -96 129 -97 197 0 32 -2 58 -5 58 -3 0
-16 -16 -28 -35z"></path>
<path class="node" id="node34" d="M600 1450 c-81 -28 -123 -77 -145 -171 -9 -41 -19 -108 -22 -149 -8
-104 -40 -164 -103 -189 -19 -7 -20 -10 -7 -10 10 -1 27 4 39 10 23 13 35 5
20 -13 -29 -36 -59 -249 -32 -233 6 3 10 17 10 30 0 28 30 95 42 95 11 0 10
-4 -8 -68 -16 -53 -15 -164 0 -179 3 -4 16 3 29 14 12 11 43 32 68 47 26 14
67 47 93 73 51 52 61 43 19 -16 -27 -37 -65 -67 -133 -104 l-35 -19 44 6 c68
10 137 44 176 87 19 22 38 39 41 39 10 0 -7 -44 -28 -73 l-20 -29 21 11 c27
15 48 57 62 121 13 61 24 57 24 -8 0 -40 3 -47 21 -50 12 -2 30 -12 40 -23 30
-33 36 -21 9 20 -14 21 -28 56 -31 77 l-5 39 25 -40 c14 -22 26 -43 26 -47 0
-9 40 -21 47 -15 2 3 -3 17 -12 31 -26 39 -9 32 53 -24 52 -46 147 -94 165
-83 14 9 7 43 -9 43 -10 0 -44 10 -78 22 -51 19 -77 39 -173 133 -84 82 -118
124 -138 166 -34 76 -42 158 -21 239 11 42 13 66 6 68 -19 7 -10 29 15 40 29
13 64 82 65 125 0 26 -2 27 -52 27 -29 -1 -78 -9 -108 -20z"></path>
<path class="node" id="node35" d="M1376 1428 c9 -54 12 -58 41 -58 52 0 73 11 73 36 0 26 -17 36 -82
48 l-38 7 6 -33z"></path>
<path class="node" id="node36" d="M1520 1408 c1 -31 1 -32 15 -14 19 25 19 46 0 46 -10 0 -15 -10 -15
-32z"></path>
<path class="node" id="node37" d="M1510 1340 c0 -5 5 -10 10 -10 6 0 10 5 10 10 0 6 -4 10 -10 10 -5 0
-10 -4 -10 -10z"></path>
<path class="node" id="node38" d="M1382 1329 c2 -6 7 -10 11 -10 4 1 14 1 22 1 8 0 15 5 15 10 0 6 -12
10 -26 10 -14 0 -24 -5 -22 -11z"></path>
<path class="node" id="node39" d="M1531 1311 c-12 -8 -12 -12 -2 -25 8 -9 18 -16 23 -16 13 0 38 26 38
39 0 13 -39 14 -59 2z"></path>
<path class="node" id="node40" d="M1480 1300 c0 -5 4 -10 9 -10 6 0 13 5 16 10 3 6 -1 10 -9 10 -9 0
-16 -4 -16 -10z"></path>
<path class="node" id="node41" d="M1395 1290 c-11 -17 5 -32 21 -19 14 12 14 12 18 -40 2 -25 56 -33
95 -13 44 22 48 34 14 50 -37 17 -53 15 -53 -6 0 -26 11 -34 28 -19 13 10 14
9 10 -3 -8 -24 -39 -25 -45 0 -4 14 -11 19 -22 15 -13 -5 -14 -4 -3 6 22 24
14 39 -22 39 -19 0 -38 -4 -41 -10z"></path>
<path class="node" id="node42" d="M1615 1260 c3 -5 -1 -10 -11 -10 -13 0 -14 -3 -4 -15 14 -17 29 -19
50 -5 13 8 12 11 -5 24 -23 18 -39 21 -30 6z"></path>
<path class="node" id="node43" d="M1370 1251 c0 -5 7 -15 17 -22 15 -13 15 -12 4 9 -12 23 -21 28 -21
13z"></path>
<path class="node" id="node44" d="M1328 1147 c-21 -39 -61 -96 -89 -125 -51 -53 -81 -109 -94 -172 l-7
-35 32 38 c18 21 34 36 36 34 3 -2 -9 -33 -26 -68 -34 -73 -37 -95 -14 -128
14 -19 14 -25 3 -32 -8 -5 -19 -9 -25 -9 -13 0 -24 -32 -24 -73 0 -43 19 -29
75 56 27 42 56 78 62 81 16 7 -50 -126 -85 -173 l-25 -34 29 7 c16 4 44 19 62
32 24 19 32 21 32 10 0 -8 -15 -26 -32 -40 -47 -36 -12 -34 39 3 22 16 62 61
88 101 48 72 64 85 45 35 -16 -43 -2 -44 35 -3 34 36 35 37 65 21 17 -8 34
-13 36 -10 3 3 -11 26 -31 52 -47 63 -61 91 -96 194 -26 79 -51 224 -35 210 4
-4 18 -48 31 -98 14 -51 30 -101 35 -112 12 -21 20 -9 101 148 l33 62 -33 30
c-26 25 -42 31 -77 31 -44 0 -94 17 -94 32 0 24 -19 0 -52 -65z"></path>
<path class="node" id="node45" d="M1554 1199 c-4 -7 2 -20 16 -31 26 -21 40 -23 39 -5 -1 19 -18 54
-18 38 -1 -10 -4 -11 -15 -2 -11 9 -16 9 -22 0z"></path>
<path class="node" id="node46" d="M1580 1041 c0 -5 -22 -42 -49 -83 -26 -41 -50 -81 -53 -89 -8 -21 45
-119 85 -158 30 -28 40 -32 67 -26 17 4 29 10 28 13 -59 110 -78 189 -70 288
2 35 2 64 -2 64 -3 0 -6 -4 -6 -9z"></path>
<path class="node" id="node47" d="M1648 663 c-21 -5 -21 -3 -4 -44 7 -19 11 -49 9 -66 -5 -30 -3 -33
21 -33 31 0 45 38 27 76 -18 40 -13 49 14 24 18 -17 25 -34 25 -61 0 -30 3
-37 15 -33 24 10 28 44 9 88 -10 22 -23 44 -29 48 -11 8 -59 9 -87 1z"></path>
<path class="node" id="node48" d="M1462 620 c-13 -17 -34 -30 -55 -34 -31 -6 -77 -50 -77 -74 0 -18 57
-33 110 -30 71 4 88 27 61 81 -15 30 -16 37 -5 37 21 0 53 -58 46 -82 -4 -17
-2 -20 12 -15 10 4 20 7 22 7 9 0 4 62 -7 82 -6 11 -8 22 -5 25 9 9 37 -18 49
-47 9 -22 11 -23 15 -6 7 31 -31 71 -64 69 -16 -2 -41 1 -55 6 -23 8 -30 5
-47 -19z"></path>
<path class="node" id="node49" d="M737 632 c-8 -12 5 -102 14 -102 13 0 22 47 15 76 -10 39 16 25 31
-17 11 -32 12 -32 12 -7 1 15 -6 34 -15 42 -16 17 -49 21 -57 8z"></path>
<path class="node" id="node50" d="M890 630 c0 -6 -11 -15 -25 -20 -49 -19 -19 -40 57 -40 72 0 89 23
39 53 -32 19 -71 23 -71 7z"></path>
<path class="node" id="node51" d="M640 580 c-64 -8 -150 -31 -150 -41 0 -18 169 -26 201 -9 18 10 28
62 12 59 -5 -1 -33 -5 -63 -9z"></path>
<path class="node" id="node52" d="M1020 579 c0 -5 5 -7 10 -4 6 3 10 8 10 11 0 2 -4 4 -10 4 -5 0 -10
-5 -10 -11z"></path>
<path class="node" id="node53" d="M1047 334 c-4 -4 -7 -15 -7 -25 0 -9 -9 -19 -19 -22 -24 -6 -31 0
-31 25 0 10 -4 18 -9 18 -17 0 -21 -33 -9 -66 13 -36 34 -48 25 -14 -4 16 0
20 19 20 16 0 24 -6 24 -17 0 -24 18 -4 23 27 5 29 -5 64 -16 54z"></path>
<path class="node" id="node54" d="M1110 250 c0 -26 3 -30 28 -29 27 0 27 0 3 10 -17 7 -22 15 -18 29 3
11 1 20 -4 20 -5 0 -9 -13 -9 -30z"></path>
<path class="node" id="node55" d="M1233 272 c-17 -2 -23 -10 -23 -28 0 -30 16 -32 23 -3 4 16 11 20 26
16 12 -3 21 -2 21 3 0 11 -21 17 -47 12z"></path>
<path class="node" id="node56" d="M1380 274 c0 -5 7 -18 15 -28 12 -16 15 -17 15 -4 0 8 -7 21 -15 28
-8 7 -15 9 -15 4z"></path>
<path class="node" id="node57" d="M1330 245 c0 -32 12 -32 27 0 10 22 9 25 -8 25 -14 0 -19 -7 -19 -25z"></path>
<path class="node" id="node58" d="M1480 262 c17 -6 21 -10 12 -16 -6 -4 -16 -4 -22 -1 -5 3 -10 2 -10
-4 0 -16 20 -23 34 -12 7 6 16 7 21 3 4 -4 6 2 3 13 -2 14 -12 21 -33 22 -28
2 -28 1 -5 -5z"></path>
</g>
</svg>