<!--?xml version="1.0" standalone="no"?--><svg version="1.0" xmlns="http://www.w3.org/2000/svg" width="300.000000pt" height="300.000000pt" viewBox="0 0 300.000000 300.000000" preserveAspectRatio="xMidYMid meet">
<metadata>
  <rdf:rdf xmlns:rdf="http://www.w3.org/1999/02/22-rdf-syntax-ns#" xmlns:rdfs="http://www.w3.org/2000/01/rdf-schema#" xmlns:dc="http://purl.org/dc/elements/1.1/">
    <rdf:description dc:title="disney cuties dog" dc:publisher="Hiox" dc:date="2015-05-19" dc:format="image/svg+xml" dc:language="en">
      <dc:creator>
        <rdf:bag>
          <rdf:li>svgimages.com</rdf:li>
        </rdf:bag>
      </dc:creator>
    </rdf:description>
  </rdf:rdf>
</metadata>
<g transform="translate(0.000000,300.000000) scale(0.100000,-0.100000)" fill="#1A1A1A" stroke="none">
<path d="M1391 2991 c-35 -10 -99 -80 -118 -129 -24 -63 -7 -122 53 -182 43
-44 44 -48 44 -108 0 -54 -2 -62 -19 -62 -10 0 -24 7 -31 15 -15 18 -142 105
-188 129 -32 16 -52 15 -52 -4 0 -6 17 -17 38 -25 42 -18 100 -57 149 -99 22
-20 33 -39 33 -57 0 -47 -17 -50 -115 -18 -107 35 -230 59 -247 47 -16 -10 7
-28 34 -28 45 0 225 -53 286 -83 43 -21 60 -51 48 -83 -5 -12 -13 -15 -34 -9
-59 15 -198 17 -245 3 -27 -8 -48 -18 -48 -23 1 -5 55 -8 125 -6 87 2 126 -1
131 -9 5 -7 -14 -34 -47 -68 -30 -32 -66 -75 -80 -97 -29 -43 -68 -147 -68
-179 0 -17 -15 -54 -71 -171 -10 -22 -49 -80 -86 -129 -38 -49 -72 -96 -78
-105 -5 -9 -19 -30 -31 -46 -11 -17 -24 -37 -28 -45 -3 -8 -18 -35 -31 -60
-54 -94 -70 -235 -39 -330 27 -82 115 -145 159 -112 37 27 40 44 46 261 6 226
7 235 66 391 13 36 32 82 42 103 l19 39 16 -94 c8 -51 20 -122 27 -158 21
-123 22 -130 6 -148 -47 -54 -60 -141 -32 -209 20 -48 88 -117 153 -154 28
-17 52 -35 52 -40 0 -11 -28 -23 -77 -34 -28 -6 -34 -3 -42 17 -26 67 -87 73
-123 13 -23 -39 -51 -50 -104 -40 -71 13 -117 -55 -68 -100 30 -28 30 -28 -1
-59 -44 -45 -23 -91 44 -98 28 -2 36 -8 42 -31 11 -41 28 -57 59 -57 29 0 80
48 80 75 0 17 37 40 75 48 48 9 55 0 43 -61 -14 -83 -9 -103 32 -117 38 -13
36 -6 56 -167 8 -65 10 -63 -66 -48 -99 19 -190 -32 -206 -115 -18 -96 20
-118 206 -123 210 -6 242 -4 270 17 20 15 24 26 22 57 -4 54 17 171 33 184 21
18 47 -63 48 -153 0 -74 2 -79 27 -92 36 -19 115 -22 134 -6 13 11 25 11 60 2
102 -26 243 -5 266 40 16 29 11 92 -10 126 -35 57 -100 75 -230 61 -28 -3 -27
-9 -14 139 5 57 8 63 39 82 32 18 34 22 27 58 -4 21 -7 56 -7 78 0 40 0 40 34
37 40 -4 81 -28 81 -47 0 -19 46 -72 68 -77 30 -8 61 10 68 39 10 42 23 53 60
53 53 0 72 55 35 102 -19 24 -19 25 0 54 26 39 24 59 -8 84 -23 18 -35 20 -79
14 -37 -4 -54 -2 -63 8 -6 7 -22 28 -37 46 -15 19 -35 32 -48 32 -23 0 -66
-37 -66 -57 0 -27 -85 -19 -109 11 -10 11 -1 20 42 45 63 36 129 100 154 150
28 58 22 134 -16 187 -35 50 -37 65 -17 137 8 29 19 93 26 142 7 50 15 101 19
115 8 24 8 24 28 -15 11 -22 37 -88 57 -146 42 -125 57 -240 53 -419 -2 -104
1 -130 16 -158 15 -28 23 -32 59 -32 35 0 46 6 77 39 49 53 64 110 59 224 -3
73 -10 104 -31 150 -37 81 -110 194 -214 329 -51 68 -106 182 -128 268 -29
110 -79 201 -150 273 -36 35 -65 71 -65 78 0 8 11 32 25 54 34 55 32 78 -11
113 l-36 30 17 45 c16 42 19 45 62 51 99 13 152 84 123 166 -28 79 -84 104
-170 76 -60 -20 -81 -12 -100 36 -22 55 -68 115 -104 137 -34 21 -112 27 -165
12z m158 -50 c14 -11 46 -54 71 -98 51 -89 67 -96 151 -69 44 15 52 15 79 1
17 -9 36 -31 45 -51 13 -31 13 -39 0 -64 -22 -42 -53 -60 -107 -60 -34 0 -50
-5 -57 -17 -9 -16 -14 -16 -58 -4 -26 8 -95 19 -152 25 -89 9 -105 14 -112 31
-4 11 -24 36 -44 55 -21 19 -46 52 -57 73 -16 33 -17 44 -8 73 37 110 166 165
249 105z m135 -496 c78 -39 87 -55 60 -103 -31 -53 -43 -58 -105 -39 -30 8
-79 18 -109 22 -50 5 -58 10 -80 43 -13 20 -35 50 -47 65 -13 16 -23 33 -23
39 0 6 43 9 123 6 111 -3 127 -6 181 -33z m-317 -22 c7 -10 23 -31 35 -47 l22
-29 -30 7 c-39 10 -64 34 -64 63 0 27 17 30 37 6z m3 -103 c0 -5 -4 -10 -10
-10 -5 0 -10 5 -10 10 0 6 5 10 10 10 6 0 10 -4 10 -10z m55 -208 c11 -5 31
-22 44 -36 14 -14 28 -26 32 -26 4 0 23 16 43 35 113 110 261 32 316 -166 37
-134 19 -378 -38 -509 -17 -39 -17 -39 -47 -26 -36 17 -172 42 -270 51 -87 8
-223 -14 -287 -46 -25 -13 -43 20 -69 126 -32 133 -32 324 -1 420 55 169 164
238 277 177z m200 -713 c91 -13 95 -14 130 -28 16 -7 38 -10 49 -7 25 7 90
-44 124 -98 74 -118 -20 -260 -213 -319 -191 -59 -432 -30 -567 70 -95 69
-123 164 -73 248 28 48 84 95 114 95 12 0 40 9 64 19 23 11 56 22 72 24 61 8
232 6 300 -4z m-545 -541 c3 -27 11 -53 18 -60 17 -17 15 -84 -3 -112 -9 -13
-28 -29 -43 -35 -17 -7 -35 -28 -47 -54 -13 -28 -27 -43 -42 -45 -29 -4 -38
29 -18 68 14 28 14 31 0 36 -9 4 -27 2 -41 -5 -35 -16 -71 -14 -78 4 -7 19 25
52 59 61 36 9 31 29 -12 51 -68 32 -47 89 22 63 22 -8 37 -7 72 7 24 10 43 25
43 34 0 22 22 40 45 37 16 -2 21 -13 25 -50z m907 22 c6 -13 29 -33 49 -43 33
-17 42 -18 76 -6 34 11 41 10 56 -5 16 -16 15 -19 -11 -42 -15 -13 -34 -24
-41 -24 -8 0 -16 -7 -20 -15 -4 -10 5 -19 27 -28 39 -17 61 -42 53 -62 -7 -19
-55 -20 -82 -1 -33 23 -49 6 -34 -37 15 -41 8 -67 -18 -67 -23 0 -37 16 -46
52 -3 15 -16 33 -29 39 -12 6 -34 23 -49 37 -34 31 -37 83 -8 127 11 17 17 38
14 47 -7 24 14 60 34 56 9 -2 22 -14 29 -28z m-613 4 c22 -8 21 -70 0 -82 -9
-5 -12 -12 -7 -15 6 -4 7 -24 1 -54 -5 -26 -14 -88 -19 -138 -5 -49 -12 -96
-14 -102 -6 -18 -41 -15 -95 5 -38 15 -45 22 -42 42 2 24 18 88 30 120 3 8 6
21 8 28 1 7 12 28 23 48 12 19 21 39 21 45 0 9 69 109 75 109 2 0 10 -3 19 -6z
m299 -26 c57 -77 115 -214 131 -310 l7 -36 -55 -16 c-92 -27 -91 -29 -101 89
-3 39 -10 88 -15 110 -29 131 -33 165 -20 180 18 22 26 19 53 -17z m-110 -19
c4 -19 12 -47 17 -64 15 -52 34 -214 26 -222 -4 -5 -47 -9 -94 -11 -123 -5
-129 1 -113 104 13 90 41 204 52 219 4 6 29 10 56 10 46 -1 48 -3 56 -36z
m-337 -61 c-30 -60 -47 -83 -61 -83 -16 0 -19 8 -20 50 0 28 -3 56 -5 63 -3 8
2 18 10 22 22 13 104 37 112 33 3 -2 -13 -40 -36 -85z m624 52 c8 -4 14 -16
12 -26 -2 -11 -5 -39 -6 -64 -2 -36 -6 -45 -21 -45 -13 0 -30 24 -60 83 -23
45 -40 84 -38 86 4 4 91 -22 113 -34z m-228 -359 c8 -30 10 -31 68 -31 l60 0
0 -33 c0 -49 -21 -145 -34 -156 -6 -5 -39 -13 -73 -16 -70 -8 -62 -18 -94 114
-10 40 -20 75 -23 78 -16 17 -35 -14 -51 -84 -10 -43 -22 -86 -27 -95 -10 -21
-64 -23 -118 -5 -34 12 -35 13 -47 97 -6 47 -9 88 -5 92 4 4 27 8 51 10 40 3
46 6 53 33 l7 30 113 -1 112 -1 8 -32z m-374 -284 c41 -20 45 -20 56 -5 14 19
77 22 110 6 15 -8 17 -17 12 -53 -5 -27 -3 -46 4 -50 8 -5 8 -11 -1 -21 -16
-19 -79 -18 -94 2 -11 15 -16 15 -67 0 -72 -21 -189 -21 -228 -1 -36 19 -40
54 -10 102 18 30 28 35 85 46 34 6 88 -4 133 -26z m685 23 c33 0 77 -54 77
-94 0 -29 -5 -38 -30 -51 -40 -21 -171 -20 -227 1 -40 16 -45 16 -62 0 -13
-12 -32 -16 -58 -14 -32 2 -37 6 -35 23 5 30 5 48 -2 70 -10 32 7 45 62 52 42
5 53 3 58 -11 8 -21 28 -20 60 1 30 19 90 33 119 27 11 -2 28 -4 38 -4z" id="node1" class="node"></path>
<path d="M1377 1682 c-23 -25 -21 -59 3 -72 11 -6 20 -15 20 -21 0 -6 -9 -13
-20 -16 -26 -7 -26 -43 -1 -74 16 -20 23 -22 38 -13 45 27 60 123 29 183 -19
35 -45 40 -69 13z" id="node2" class="node"></path>
<path d="M1573 1693 c-7 -2 -15 -20 -19 -39 -5 -30 -3 -38 16 -51 l23 -16 -24
-18 c-20 -15 -22 -21 -14 -45 16 -43 40 -53 67 -26 20 19 23 33 23 98 0 63 -3
78 -19 90 -20 14 -32 16 -53 7z" id="node3" class="node"></path>
<path d="M1415 1375 c-49 -19 -75 -48 -75 -86 0 -59 55 -89 161 -89 116 0 187
54 157 118 -28 57 -160 88 -243 57z" id="node4" class="node"></path>
<path d="M1497 1016 c-10 -26 4 -47 27 -44 15 2 21 10 21 28 0 29 -38 41 -48
16z" id="node5" class="node"></path>
</g>
<g transform="translate(0.000000,300.000000) scale(0.100000,-0.100000)" fill="#FFFFFF" stroke="none">


<path d="M1405 2952 c-48 -22 -89 -68 -105 -116 -9 -29 -8 -40 8 -73 11 -21
36 -54 57 -73 20 -19 40 -44 44 -55 7 -17 23 -22 112 -31 57 -6 126 -17 152
-25 44 -12 49 -12 58 4 7 12 23 17 57 17 54 0 85 18 107 60 13 25 13 33 0 64
-9 20 -28 42 -45 51 -27 14 -35 14 -79 -1 -84 -27 -100 -20 -151 69 -25 44
-57 87 -71 98 -40 28 -97 33 -144 11z" id="node8" class="node"></path>
<path d="M1380 2472 c0 -6 10 -23 23 -39 12 -15 34 -45 47 -65 22 -33 30 -38
80 -43 30 -4 79 -14 109 -22 62 -19 74 -14 105 39 27 48 18 64 -60 103 -54 27
-70 30 -181 33 -80 3 -123 0 -123 -6z" id="node9" class="node"></path>
<path d="M1330 2417 c0 -29 25 -53 64 -63 l30 -7 -22 29 c-42 56 -49 64 -61
64 -6 0 -11 -11 -11 -23z" id="node10" class="node"></path>
<path d="M1350 2320 c0 -5 5 -10 10 -10 6 0 10 5 10 10 0 6 -4 10 -10 10 -5 0
-10 -4 -10 -10z" id="node11" class="node"></path>
<path d="M1311 2129 c-71 -15 -126 -81 -163 -194 -31 -96 -31 -287 1 -420 26
-106 44 -139 69 -126 64 32 200 54 287 46 98 -9 234 -34 270 -51 30 -13 30
-13 47 26 57 131 75 375 38 509 -55 198 -203 276 -316 166 -20 -19 -39 -35
-43 -35 -4 0 -18 12 -32 26 -43 46 -100 65 -158 53z m135 -460 c31 -60 16
-156 -29 -183 -15 -9 -22 -7 -38 13 -25 31 -25 67 1 74 11 3 20 10 20 16 0 6
-9 15 -20 21 -24 13 -26 47 -3 72 24 27 50 22 69 -13z m180 17 c16 -12 19 -27
19 -90 0 -65 -3 -79 -23 -98 -27 -27 -51 -17 -67 26 -8 24 -6 30 14 45 l24 18
-23 16 c-19 13 -21 21 -16 51 9 46 36 58 72 32z" id="node12" class="node"></path>
<path d="M1325 1403 c-16 -2 -49 -13 -72 -24 -24 -10 -52 -19 -64 -19 -30 0
-86 -47 -114 -95 -50 -84 -22 -179 73 -248 65 -48 133 -73 248 -92 105 -17
219 -9 319 22 193 59 287 201 213 319 -34 54 -99 105 -124 98 -11 -3 -33 0
-49 7 -78 31 -308 48 -430 32z m280 -39 c77 -37 79 -106 3 -145 -41 -21 -157
-26 -202 -9 -62 23 -85 85 -48 129 42 51 167 63 247 25z m-60 -364 c0 -18 -6
-26 -21 -28 -23 -3 -37 18 -27 44 10 25 48 13 48 -16z" id="node13" class="node"></path>
<path d="M1022 898 c-6 -6 -12 -19 -12 -27 0 -9 -19 -24 -43 -34 -35 -14 -50
-15 -72 -7 -69 26 -90 -31 -22 -63 43 -22 48 -42 12 -51 -34 -9 -66 -42 -59
-61 7 -18 43 -20 78 -4 14 7 32 9 41 5 14 -5 14 -8 0 -36 -20 -39 -11 -72 18
-68 15 2 29 17 42 45 12 26 30 47 47 54 15 6 34 22 43 35 18 28 20 95 3 112
-7 7 -15 33 -18 60 -4 37 -9 48 -25 50 -11 1 -26 -3 -33 -10z" id="node14" class="node"></path>
<path d="M1930 890 c-6 -11 -9 -28 -6 -38 3 -9 -3 -30 -14 -47 -29 -44 -26
-96 8 -127 15 -14 37 -31 49 -37 13 -6 26 -24 29 -39 9 -36 23 -52 46 -52 26
0 33 26 18 67 -15 43 1 60 34 37 27 -19 75 -18 82 1 8 20 -14 45 -53 62 -22 9
-31 18 -27 28 4 8 12 15 20 15 7 0 26 11 41 24 26 23 27 26 11 42 -15 15 -22
16 -56 5 -34 -12 -43 -11 -76 6 -20 10 -43 30 -49 43 -16 32 -43 37 -57 10z" id="node15" class="node"></path>
<path d="M1316 840 c-20 -28 -36 -54 -36 -59 0 -6 -9 -26 -21 -45 -11 -20 -22
-41 -23 -48 -2 -7 -5 -20 -8 -28 -12 -32 -28 -96 -30 -120 -3 -20 4 -27 42
-42 54 -20 89 -23 95 -5 2 6 9 53 14 102 5 50 14 112 19 138 6 30 5 50 -1 54
-5 3 -2 10 7 15 21 12 22 74 0 82 -9 3 -17 6 -19 6 -2 0 -19 -23 -39 -50z" id="node16" class="node"></path>
<path d="M1620 875 c-13 -15 -9 -49 20 -180 5 -22 12 -71 15 -110 10 -118 9
-116 101 -89 l55 16 -7 36 c-16 96 -74 233 -131 310 -27 36 -35 39 -53 17z" id="node17" class="node"></path>
<path d="M1451 865 c-11 -15 -39 -129 -52 -219 -16 -103 -10 -109 113 -104 47
2 90 6 94 11 8 8 -11 170 -26 222 -5 17 -13 45 -17 64 -8 33 -10 35 -56 36
-27 0 -52 -4 -56 -10z" id="node18" class="node"></path>
<path d="M1210 853 c-60 -19 -76 -29 -70 -45 2 -7 5 -35 5 -63 1 -42 4 -50 20
-50 14 0 31 23 61 83 23 45 39 83 36 85 -4 2 -27 -3 -52 -10z" id="node19" class="node"></path>
<path d="M1737 864 c-2 -2 15 -41 38 -86 30 -59 47 -83 60 -83 15 0 19 9 21
45 1 25 4 53 6 64 2 10 -4 22 -12 26 -22 12 -109 38 -113 34z" id="node20" class="node"></path>
<path d="M1382 475 c-7 -27 -13 -30 -53 -33 -24 -2 -47 -6 -51 -10 -4 -4 -1
-45 5 -92 12 -84 13 -85 47 -97 54 -18 108 -16 118 5 5 9 17 52 27 95 16 70
35 101 51 84 3 -3 13 -38 23 -78 32 -132 24 -122 94 -114 34 3 67 11 73 16 13
11 34 107 34 156 l0 33 -60 0 c-58 0 -60 1 -68 31 l-8 32 -112 1 -113 1 -7
-30z" id="node21" class="node"></path>

<path d="M1115 213 c-57 -11 -67 -16 -85 -46 -30 -48 -26 -83 10 -102 39 -20
156 -20 228 1 51 15 56 15 67 0 15 -20 78 -21 94 -2 9 10 9 16 1 21 -7 4 -9
23 -4 50 5 36 3 45 -12 53 -33 16 -96 13 -110 -6 -11 -15 -15 -15 -56 5 -45
22 -99 32 -133 26z" id="node23" class="node"></path>
<path d="M1838 211 c-20 -4 -48 -15 -62 -24 -32 -21 -52 -22 -60 -1 -5 14 -16
16 -58 11 -55 -7 -72 -20 -62 -52 7 -22 7 -40 2 -70 -2 -17 3 -21 35 -23 26
-2 45 2 58 14 17 16 22 16 62 0 56 -21 187 -22 227 -1 25 13 30 22 30 51 0 40
-44 94 -77 94 -10 0 -27 2 -38 4 -11 2 -36 1 -57 -3z" id="node24" class="node"></path>
</g>
</svg>