<!--?xml version="1.0" standalone="no"?--><svg version="1.0" xmlns="http://www.w3.org/2000/svg" width="224.000000pt" height="300.000000pt" viewBox="0 0 224.000000 300.000000" preserveAspectRatio="xMidYMid meet">
<metadata>
  <rdf:rdf xmlns:rdf="http://www.w3.org/1999/02/22-rdf-syntax-ns#" xmlns:rdfs="http://www.w3.org/2000/01/rdf-schema#" xmlns:dc="http://purl.org/dc/elements/1.1/">
    <rdf:description dc:title="disney cutie dog" dc:publisher="Hiox" dc:date="2015-05-19" dc:format="image/svg+xml" dc:language="en">
      <dc:creator>
        <rdf:bag>
          <rdf:li>svgimages.com</rdf:li>
        </rdf:bag>
      </dc:creator>
    </rdf:description>
  </rdf:rdf>
</metadata>
<g transform="translate(0.000000,300.000000) scale(0.100000,-0.100000)" fill="#111111" stroke="none">
<path d="M1015 2958 c-27 -21 -27 -24 -22 -97 5 -79 34 -174 117 -381 46 -115
56 -150 45 -150 -21 0 -78 56 -99 98 -14 26 -44 66 -68 89 -132 129 -311 105
-390 -52 -27 -52 -25 -51 -47 -31 -27 25 -88 45 -137 46 -78 0 -107 -11 -159
-64 -65 -66 -85 -124 -85 -244 0 -60 -6 -104 -17 -133 -14 -36 -17 -85 -19
-264 -2 -233 -6 -260 -63 -475 -62 -231 -63 -333 -6 -500 64 -188 234 -313
345 -255 23 12 30 22 30 46 0 36 -15 66 -91 184 -120 187 -158 307 -159 505
-1 69 -5 158 -9 198 -4 40 -3 72 2 72 5 0 11 -10 15 -22 10 -38 102 -222 139
-275 l35 -51 -18 -54 c-24 -71 -23 -151 2 -208 43 -93 158 -169 293 -192 39
-7 71 -16 71 -20 0 -4 -9 -24 -19 -44 -11 -20 -23 -61 -27 -90 l-6 -54 -67 0
c-127 0 -223 -42 -282 -123 -63 -86 -44 -169 47 -212 31 -15 54 -32 54 -41 0
-28 33 -72 69 -92 77 -43 232 -49 357 -13 16 5 63 5 104 2 139 -13 230 14 260
76 l15 32 110 4 c61 2 122 7 136 11 23 7 27 5 32 -22 9 -43 60 -89 119 -107
61 -18 211 -20 259 -3 94 32 183 131 221 247 16 51 22 102 27 226 11 314 3
384 -53 467 -23 34 -23 38 -10 89 18 70 11 102 -43 196 -24 43 -47 90 -50 106
-7 36 20 106 63 163 43 56 28 57 -29 1 -85 -83 -107 -168 -67 -262 34 -79 22
-206 -18 -190 -9 4 -45 12 -80 18 -79 14 -136 3 -265 -52 -53 -23 -99 -41
-102 -41 -4 0 4 13 18 30 79 93 109 239 68 324 -21 42 -112 136 -132 136 -5 0
-9 33 -9 73 0 176 -51 414 -117 542 -19 39 -39 74 -44 79 -5 6 -9 18 -9 28 0
10 -21 118 -46 239 -26 121 -44 223 -40 226 4 4 37 -10 75 -30 129 -70 264
-72 379 -6 89 51 115 121 60 162 -22 16 -50 21 -155 28 -158 9 -191 16 -348
79 -69 28 -127 50 -129 50 -2 0 -16 -10 -31 -22z m-163 -420 c55 -16 116 -74
162 -152 21 -36 42 -66 46 -66 18 0 105 -82 142 -134 94 -133 158 -377 158
-605 l0 -87 62 -49 c100 -81 126 -157 88 -258 -44 -117 -149 -216 -315 -298
-299 -147 -659 -125 -775 48 -21 31 -25 48 -25 112 0 61 4 83 22 112 l23 36
-23 34 c-91 137 -161 283 -205 428 -22 71 -26 106 -27 201 0 98 3 122 23 164
18 40 22 66 22 148 0 105 13 153 53 196 66 71 178 70 263 -1 47 -39 59 -35 83
31 32 88 97 146 170 151 7 1 31 -4 53 -11z m1065 -1516 c65 -34 110 -78 139
-138 24 -50 26 -61 21 -142 -3 -48 -7 -150 -9 -227 -3 -116 -8 -150 -27 -197
-54 -139 -145 -218 -248 -218 -29 0 -53 3 -53 7 0 4 10 17 21 29 26 28 19 54
-16 54 -19 0 -34 -12 -57 -44 -31 -44 -31 -45 -60 -30 -34 18 -35 28 -3 70 29
38 32 59 9 68 -17 6 -38 -5 -61 -33 -11 -13 -13 -12 -13 8 0 35 17 59 62 87
26 17 59 28 87 29 25 1 49 3 54 4 15 2 6 36 -19 72 -37 55 -44 145 -15 195 38
65 -5 106 -48 45 -35 -49 -45 -120 -27 -191 9 -34 16 -63 16 -64 0 -2 -18 -8
-39 -15 -42 -12 -115 -76 -125 -109 -10 -30 -54 -44 -152 -50 -108 -6 -129 3
-139 55 -11 58 -42 113 -66 113 -31 0 -34 -27 -10 -85 65 -157 23 -204 -173
-191 -74 4 -113 2 -147 -8 -25 -8 -76 -17 -112 -21 -57 -6 -67 -5 -67 8 0 9 9
21 20 27 24 13 26 33 5 50 -21 17 -55 -1 -79 -41 -13 -21 -24 -29 -39 -27 -32
4 -33 40 -2 76 43 51 5 87 -44 41 -27 -26 -38 -18 -25 18 11 32 61 68 118 85
36 11 128 13 231 5 30 -2 30 -2 36 63 3 36 9 79 13 96 8 33 -8 49 -39 38 -16
-7 -35 -63 -35 -106 0 -21 -5 -28 -20 -28 -47 0 -66 227 -21 255 5 2 25 -4 46
-15 81 -41 187 -34 301 19 83 39 138 91 173 165 34 70 54 85 169 121 44 14
106 37 139 51 92 42 143 54 218 50 47 -2 84 -10 112 -24z m-713 -227 c-23 -35
-137 -100 -203 -115 -65 -15 -150 -8 -191 16 -16 10 -30 21 -30 25 0 3 42 9
93 12 112 8 190 27 276 70 37 18 67 29 69 25 2 -4 -4 -18 -14 -33z m-524 -341
c18 -46 13 -51 -47 -57 -32 -3 -75 -11 -96 -17 -44 -13 -103 -62 -113 -93 -7
-24 -24 -38 -36 -31 -15 10 -8 35 18 59 32 30 28 58 -9 65 l-29 5 24 20 c12
12 30 26 39 33 26 19 120 41 182 41 53 1 58 -1 67 -25z" id="node1" class="node"></path>
<path d="M815 2121 c-43 -18 -85 -98 -85 -162 0 -32 -11 -37 -31 -13 -32 39
-101 76 -152 81 -52 5 -53 5 -91 -37 -55 -61 -67 -97 -67 -208 -1 -84 4 -111
34 -202 19 -58 41 -118 48 -135 10 -23 114 -217 125 -233 1 -2 35 12 76 32
l73 35 3 -37 c4 -44 24 -68 71 -88 71 -30 172 -3 239 63 49 49 56 94 21 132
-12 12 -19 24 -17 27 3 2 40 7 82 11 50 4 80 11 83 19 7 19 -16 219 -32 285
-8 31 -34 110 -59 177 -69 193 -136 263 -248 261 -29 0 -62 -4 -73 -8z m163
-29 c53 -33 105 -115 137 -215 15 -45 30 -91 35 -102 19 -42 39 -133 49 -220
18 -153 27 -139 -91 -153 -57 -7 -125 -12 -153 -12 -55 0 -125 -28 -165 -64
-14 -12 -55 -35 -93 -50 -37 -16 -70 -32 -73 -37 -9 -16 -22 -10 -30 14 -3 12
-15 34 -25 48 -23 33 -109 203 -109 216 0 5 -14 52 -31 104 -29 85 -31 102
-26 176 6 83 20 122 64 181 20 27 30 32 64 32 55 0 104 -25 153 -77 48 -51 68
-56 60 -14 -8 39 22 134 51 161 45 42 128 48 183 12z" id="node2" class="node"></path>
<path d="M890 1654 c-6 -14 -10 -39 -10 -55 0 -25 5 -30 30 -36 41 -8 46 -20
20 -48 -22 -23 -22 -25 -6 -50 47 -71 108 -48 108 42 -1 57 -14 96 -48 140
-32 43 -79 46 -94 7z" id="node3" class="node"></path>
<path d="M680 1600 c-12 -12 -20 -33 -20 -54 0 -30 4 -36 35 -46 40 -13 43
-20 15 -45 -25 -23 -25 -30 0 -65 25 -35 54 -43 81 -21 47 38 17 179 -47 230
-33 26 -39 26 -64 1z" id="node4" class="node"></path>
<path d="M1142 1108 c-6 -6 -12 -18 -12 -25 0 -21 -63 -85 -97 -99 -52 -22
-122 -17 -172 11 -27 16 -48 22 -54 16 -34 -34 56 -93 145 -94 106 -1 225 86
231 168 2 32 -20 44 -41 23z" id="node5" class="node"></path>
</g>
<g transform="translate(0.000000,300.000000) scale(0.100000,-0.100000)" fill="#A1A1A1" stroke="none">

<path d="M753 2539 c-47 -14 -100 -73 -124 -141 -24 -66 -36 -70 -83 -31 -85
71 -197 72 -263 1 -40 -43 -53 -91 -53 -196 0 -82 -4 -108 -22 -148 -20 -42
-23 -66 -23 -164 1 -95 5 -130 27 -201 44 -145 114 -291 205 -428 l23 -34 -23
-36 c-18 -29 -22 -51 -22 -112 0 -64 4 -81 25 -112 116 -173 476 -195 775 -48
166 82 271 181 315 298 38 101 12 177 -88 258 l-62 49 0 87 c0 228 -64 472
-158 605 -37 52 -124 134 -142 134 -4 0 -25 30 -46 66 -46 78 -107 136 -162
152 -45 14 -55 14 -99 1z m225 -428 c59 -31 110 -108 158 -243 25 -67 51 -146
59 -177 16 -66 39 -266 32 -285 -3 -8 -33 -15 -83 -19 -42 -4 -79 -9 -82 -11
-2 -3 5 -15 17 -27 35 -38 28 -83 -21 -132 -67 -66 -168 -93 -239 -63 -47 20
-67 44 -71 88 l-3 37 -73 -35 c-41 -20 -75 -34 -76 -32 -11 16 -115 210 -125
233 -7 17 -29 77 -48 135 -30 91 -35 118 -34 202 0 111 12 147 67 208 38 42
39 42 91 37 51 -5 120 -42 152 -81 20 -24 31 -19 31 13 0 64 42 144 85 162 38
15 124 10 163 -10z m205 -1026 c-6 -82 -125 -169 -231 -168 -89 1 -179 60
-145 94 6 6 27 0 54 -16 50 -28 120 -33 172 -11 34 14 97 78 97 99 0 19 22 38
40 34 10 -2 14 -13 13 -32z" id="node7" class="node"></path>
<path d="M846 2110 c-16 -5 -39 -18 -51 -30 -29 -27 -59 -122 -51 -161 8 -42
-12 -37 -60 14 -49 52 -98 77 -153 77 -34 0 -44 -5 -64 -32 -44 -59 -58 -98
-64 -181 -5 -74 -3 -91 26 -176 17 -52 31 -99 31 -104 0 -13 86 -183 109 -216
10 -14 22 -36 25 -48 8 -24 21 -30 30 -14 3 5 36 21 73 37 38 15 79 38 93 50
40 36 110 64 165 64 28 0 96 5 153 12 118 14 109 0 91 153 -10 87 -30 178 -49
220 -5 11 -20 57 -35 102 -23 73 -46 116 -95 179 -37 48 -116 72 -174 54z
m138 -463 c34 -44 47 -83 48 -140 0 -64 -27 -97 -66 -79 -14 6 -33 23 -42 37
-16 25 -16 27 6 50 26 28 21 40 -20 48 -25 6 -30 11 -30 36 0 54 16 81 49 81
22 0 37 -9 55 -33z m-240 -48 c64 -51 94 -192 47 -230 -27 -22 -56 -14 -81 21
-25 35 -25 42 0 65 28 25 25 32 -15 45 -31 10 -35 16 -35 46 0 32 28 74 49 74
4 0 20 -9 35 -21z" id="node8" class="node"></path>
<path d="M1690 1036 c-25 -7 -71 -25 -103 -40 -33 -14 -95 -37 -139 -51 -115
-36 -135 -51 -169 -121 -35 -74 -90 -126 -173 -165 -114 -53 -220 -60 -301
-19 -21 11 -41 17 -46 15 -17 -11 -31 -80 -25 -129 10 -87 25 -126 46 -126 15
0 20 7 20 28 0 43 19 99 35 106 31 11 47 -5 39 -38 -4 -17 -10 -60 -13 -96 -6
-65 -6 -65 -36 -63 -103 8 -195 6 -231 -5 -57 -17 -107 -53 -118 -85 -13 -36
-2 -44 25 -18 49 46 87 10 44 -41 -31 -36 -30 -72 2 -76 15 -2 26 6 39 27 24
40 58 58 79 41 21 -17 19 -37 -5 -50 -11 -6 -20 -18 -20 -27 0 -13 10 -14 67
-8 36 4 87 13 112 21 34 10 73 12 147 8 196 -13 238 34 173 191 -24 58 -21 85
10 85 24 0 55 -55 66 -113 10 -52 31 -61 139 -55 98 6 142 20 152 50 10 33 83
97 125 109 21 7 39 13 39 15 0 1 -7 30 -16 64 -18 71 -8 142 27 191 43 61 86
20 48 -45 -29 -50 -22 -140 15 -195 25 -36 34 -70 19 -72 -5 -1 -29 -3 -54 -4
-28 -1 -61 -12 -87 -29 -45 -28 -62 -52 -62 -87 0 -20 2 -21 13 -8 23 28 44
39 61 33 23 -9 20 -30 -9 -68 -32 -42 -31 -52 3 -70 29 -15 29 -14 60 30 23
32 38 44 57 44 35 0 42 -26 16 -54 -11 -12 -21 -25 -21 -29 0 -4 24 -7 53 -7
103 0 194 79 248 218 19 47 24 81 27 197 2 77 6 179 9 227 5 81 3 92 -21 142
-29 60 -74 104 -139 138 -52 26 -162 33 -227 14z" id="node9" class="node"></path>
<path d="M1149 803 c-86 -43 -164 -62 -276 -70 -51 -3 -93 -9 -93 -12 0 -16
65 -43 114 -48 73 -8 148 12 227 58 60 35 105 80 97 97 -2 4 -32 -7 -69 -25z" id="node10" class="node"></path>
<path d="M501 464 c-55 -15 -66 -21 -109 -59 l-24 -20 29 -5 c37 -7 41 -35 9
-65 -26 -24 -33 -49 -18 -59 12 -7 29 7 36 31 10 31 69 80 113 93 21 6 64 14
96 17 60 6 65 11 47 57 -9 24 -14 26 -67 25 -32 0 -82 -7 -112 -15z" id="node11" class="node"></path>
</g>
</svg>