<!--?xml version="1.0" standalone="no"?-->

<svg version="1.0" xmlns="http://www.w3.org/2000/svg" width="293.000000pt" height="300.000000pt" viewBox="0 0 293.000000 300.000000" preserveAspectRatio="xMidYMid meet">
<g transform="translate(0.000000,300.000000) scale(0.100000,-0.100000)" fill="#454545" stroke="none">
<path class="node" id="node1" d="M714 2990 c-26 -10 -72 -65 -79 -93 -3 -12 -9 -53 -14 -90 -11 -78
-16 -85 -91 -141 -30 -22 -79 -64 -109 -93 l-54 -53 5 -67 c7 -102 46 -166
122 -205 43 -22 95 -19 147 7 15 8 32 15 37 15 7 0 135 -161 153 -194 23 -41
42 -86 38 -90 -2 -3 -45 4 -94 15 -111 24 -157 24 -177 2 -29 -34 -47 -81 -64
-168 -14 -70 -15 -96 -6 -129 21 -78 51 -133 102 -187 30 -32 44 -40 67 -37
52 6 78 93 90 295 6 110 7 115 31 124 13 5 46 6 73 3 46 -6 49 -9 59 -43 5
-20 10 -41 10 -47 0 -28 117 -388 141 -437 l20 -39 -33 3 c-66 4 -78 1 -78
-25 0 -15 13 -37 34 -56 18 -18 39 -49 46 -70 13 -40 12 -56 -14 -155 -31
-118 -47 -243 -53 -418 -7 -200 -8 -197 63 -197 39 0 43 -3 78 -59 20 -32 36
-61 36 -64 0 -2 -30 -7 -66 -9 -62 -4 -69 -7 -100 -41 -26 -28 -34 -45 -34
-75 0 -35 4 -40 54 -71 46 -28 65 -33 128 -35 83 -3 162 15 196 47 l22 20 23
-21 c13 -12 49 -31 80 -42 48 -17 63 -18 99 -9 24 6 62 13 85 16 33 4 50 13
73 39 16 19 30 45 30 58 0 31 -57 81 -109 97 l-40 12 25 31 c14 17 55 71 92
119 55 74 69 87 86 82 76 -25 126 -35 166 -35 118 0 283 50 347 105 21 17 51
35 68 39 41 10 55 24 55 53 0 13 6 26 14 29 24 9 50 69 38 89 -7 14 -5 25 10
45 28 38 20 72 -20 90 -27 11 -32 18 -27 35 18 56 17 63 -7 71 -31 10 -126 6
-225 -9 -75 -12 -83 -12 -83 3 0 9 -5 21 -11 27 -8 8 -7 16 2 31 10 17 10 23
-1 37 -10 12 -10 19 -2 27 33 33 -4 88 -60 88 -37 0 -36 17 2 25 50 11 65 44
51 112 -16 81 -56 116 -93 81 -41 -39 -46 -41 -69 -19 -13 12 -28 21 -34 21
-23 0 -105 -94 -111 -127 -10 -52 0 -65 48 -63 24 1 47 1 52 1 14 -1 -25 -41
-41 -41 -18 0 -16 -42 4 -85 21 -45 11 -55 -20 -19 l-24 28 -49 -31 c-27 -17
-89 -50 -139 -73 -49 -23 -100 -46 -112 -52 -29 -14 -49 -5 -55 27 -4 19 4 38
34 76 45 55 44 74 -3 86 l-31 9 83 51 c98 60 249 190 305 264 86 113 147 248
165 364 9 60 18 85 34 100 33 29 85 135 85 172 0 50 -37 73 -117 73 -79 0
-119 -18 -175 -76 -25 -27 -58 -48 -87 -58 -80 -26 -313 -73 -388 -79 l-73 -6
0 53 c0 95 -34 148 -105 164 -59 12 -97 -2 -128 -47 l-16 -25 -16 38 c-33 79
-37 165 -10 229 9 21 3 20 55 2 54 -19 153 -19 189 -1 73 38 123 135 102 198
-31 95 -371 330 -546 377 -47 13 -131 13 -161 1z m151 -32 c56 -14 272 -119
340 -166 82 -57 159 -134 180 -182 l19 -42 -24 -45 c-52 -98 -122 -115 -280
-67 -47 14 -93 28 -102 31 -31 9 -19 -13 17 -33 25 -13 33 -23 29 -34 -30 -70
-19 -193 25 -279 12 -23 17 -41 12 -41 -5 0 -12 4 -15 9 -11 17 -117 61 -147
61 -20 0 -40 -10 -59 -28 l-28 -28 -64 90 -63 91 36 37 c21 22 42 56 49 83 11
38 19 48 56 65 58 29 91 56 109 91 20 38 7 37 -30 -3 -38 -40 -102 -68 -171
-75 -67 -7 -77 -19 -24 -28 36 -6 40 -9 34 -28 -29 -95 -133 -177 -223 -177
-35 0 -83 41 -109 93 -53 106 -36 179 56 248 31 23 72 56 90 72 l32 31 1 -35
1 -34 14 32 c7 18 18 74 24 125 13 110 40 162 92 177 33 9 49 7 123 -11z m423
-804 c26 -28 32 -42 32 -79 0 -53 -24 -109 -55 -125 -32 -17 -69 -9 -73 16 -2
12 -19 40 -38 62 -38 45 -42 68 -18 117 29 62 97 66 152 9z m862 15 c10 -15
-2 -54 -31 -104 -35 -61 -61 -83 -121 -104 -48 -16 -58 -17 -86 -5 -42 17 -47
34 -31 91 15 55 72 117 121 132 41 13 139 6 148 -10z m-1157 -40 c46 -24 119
-85 138 -115 25 -40 24 -46 -5 -38 -13 3 -27 1 -30 -5 -4 -6 -2 -11 3 -11 6 0
11 -4 11 -10 0 -5 -7 -10 -16 -10 -19 0 -14 -20 10 -34 14 -9 21 -6 37 13 l19
23 0 -31 c0 -104 -167 -50 -261 86 -31 45 -39 109 -17 131 15 15 82 16 111 1z
m842 -96 c-4 -17 0 -38 12 -60 23 -43 88 -65 154 -52 24 4 47 8 51 9 10 0 -3
-70 -19 -100 -7 -14 -13 -30 -13 -36 0 -6 -14 -39 -31 -74 -88 -183 -218 -325
-423 -464 -91 -62 -139 -86 -173 -86 -58 0 -223 68 -223 91 0 6 -27 83 -60
171 -60 159 -130 386 -130 420 0 16 3 15 44 -3 59 -26 129 -17 156 20 36 47
41 51 65 51 13 0 40 14 60 31 29 26 42 31 68 26 49 -8 228 24 382 67 77 22 88
21 80 -11z m-1084 -53 c30 -6 72 -13 93 -16 38 -4 66 -19 66 -33 0 -4 -29 -5
-64 -3 l-63 4 -6 -33 c-3 -19 -13 -95 -22 -169 -17 -141 -39 -220 -60 -220
-15 0 -62 51 -93 102 -38 61 -64 149 -53 178 5 14 15 49 22 79 6 30 21 70 31
88 17 28 26 33 58 33 20 0 62 -5 91 -10z m1373 -559 c10 -11 20 -38 23 -62 5
-36 3 -44 -18 -60 -32 -25 -58 -24 -68 3 -5 13 -10 17 -14 11 -4 -6 -3 -23 3
-38 15 -40 13 -45 -19 -45 -25 0 -32 6 -42 35 -13 35 -13 35 -61 29 -47 -6
-48 -6 -48 20 0 38 15 62 57 90 42 29 67 20 57 -20 -9 -34 6 -30 51 16 44 45
55 48 79 21z m-988 -122 c16 -13 19 -39 5 -39 -6 0 -13 5 -16 10 -8 13 -25 13
-25 0 0 -15 73 -58 132 -78 l52 -17 -2 -60 c-2 -39 4 -79 17 -117 11 -31 17
-59 14 -62 -4 -3 -24 -6 -45 -6 -22 0 -38 -5 -38 -11 0 -20 185 -4 270 24 89
28 214 88 288 136 29 19 54 32 55 30 2 -2 9 -35 16 -73 7 -38 19 -82 27 -98 9
-17 14 -31 12 -33 -9 -7 -151 -45 -204 -55 -83 -14 -235 -17 -371 -6 -83 6
-113 6 -113 -3 0 -6 9 -11 19 -11 32 0 33 -17 5 -39 -45 -35 -18 -35 31 0 27
19 49 29 54 23 18 -19 70 -338 57 -351 -13 -13 -126 -20 -227 -14 l-104 6 -3
62 c-4 92 34 397 63 508 14 53 24 104 21 113 -2 9 -7 27 -11 40 -7 23 -6 23
24 7 53 -27 34 -2 -39 53 -85 63 -92 88 -24 78 26 -3 53 -11 60 -17z m830 -85
c-9 -23 2 -35 22 -25 42 21 94 32 127 25 45 -8 56 -31 27 -55 -25 -20 -29 -39
-7 -39 22 0 19 -28 -5 -42 -18 -11 -18 -14 -4 -30 15 -16 14 -19 -17 -37 -46
-28 -103 -28 -123 0 -13 19 -21 21 -60 15 -44 -7 -46 -6 -46 18 0 19 6 26 31
31 39 9 43 20 25 80 -11 35 -12 52 -4 62 15 19 42 17 34 -3z m-443 -47 c25
-13 26 -15 9 -38 -9 -13 -24 -33 -34 -43 -10 -11 -18 -23 -18 -26 0 -4 -12 -5
-26 -2 -16 3 -29 -1 -35 -9 -9 -15 -2 -57 12 -75 10 -12 2 -24 -16 -24 -6 0
-11 16 -12 36 -2 63 -56 87 -71 31 -6 -22 -6 -22 -13 3 -4 14 -7 51 -8 84 l-1
58 28 -6 c15 -4 56 -8 92 -11 36 -2 55 -2 42 1 -19 5 -21 8 -11 20 14 18 30
18 62 1z m-53 -175 c0 -26 -25 -5 -28 24 -2 28 -2 28 13 10 8 -11 15 -26 15
-34z m1010 19 c0 -4 -13 -24 -30 -42 -16 -19 -30 -37 -30 -41 0 -12 15 -9 28
4 7 7 12 8 12 3 0 -17 -14 -32 -36 -39 -36 -11 -55 -41 -59 -95 -3 -28 -11
-64 -20 -81 -20 -38 -19 -53 4 -74 11 -10 17 -24 14 -32 -7 -19 -116 -71 -178
-85 -27 -6 -58 -15 -67 -20 -10 -5 -54 -9 -98 -9 -72 0 -88 4 -151 36 -91 46
-148 105 -203 212 l-17 32 31 0 c28 0 33 -5 51 -47 29 -69 42 -93 46 -89 6 5
-18 99 -28 112 -15 19 3 24 96 24 107 0 185 9 185 21 0 5 -67 7 -152 3 -90 -3
-170 -2 -193 4 -31 8 2 10 150 11 202 1 259 9 400 56 80 26 171 68 190 86 17
17 -16 29 -81 29 -74 0 -124 -9 -124 -22 0 -6 30 -7 80 -3 44 4 80 4 80 1 0
-16 -204 -91 -220 -81 -10 6 -24 84 -16 92 8 8 233 41 289 42 26 1 47 -3 47
-8z m-1102 -37 c2 -28 2 -28 -13 -10 -18 24 -20 49 -2 44 6 -3 13 -18 15 -34z
m592 11 c10 -13 9 -15 -9 -15 -12 0 -21 6 -21 15 0 8 4 15 9 15 5 0 14 -7 21
-15z m-63 -32 c-3 -10 -5 -4 -5 12 0 17 2 24 5 18 2 -7 2 -21 0 -30z m207 -28
c4 -25 4 -49 1 -55 -10 -16 -33 -12 -38 8 -16 59 -17 76 -5 83 26 17 36 8 42
-36z m-80 13 c3 -13 6 -37 6 -54 0 -31 -1 -31 -61 -38 -78 -8 -184 -8 -176 0
3 3 36 14 74 23 63 16 68 19 65 43 -2 22 3 27 35 36 21 5 41 10 44 11 4 1 9
-9 13 -21z m480 -34 c26 -10 18 -40 -19 -73 -39 -34 -75 -40 -96 -15 -11 14
-10 20 14 40 16 13 34 24 41 24 8 0 19 7 26 15 14 17 13 17 34 9z m-937 -110
c26 -4 38 -15 64 -62 18 -31 61 -87 96 -123 l64 -67 -34 -21 c-37 -23 -251
-71 -316 -71 l-40 0 -10 53 c-5 28 -13 68 -16 87 -11 52 -31 210 -28 214 4 4
183 -4 220 -10z m933 -17 c0 -34 -67 -65 -100 -47 -32 17 -25 40 13 41 17 0
41 4 52 9 29 12 35 12 35 -3z m-78 -84 c23 -5 26 -8 17 -24 -10 -20 -53 -25
-78 -10 -20 13 -4 54 17 46 10 -4 29 -9 44 -12z m-692 -227 c0 -16 -80 -117
-125 -158 -16 -15 -45 -35 -62 -45 -18 -10 -33 -23 -33 -30 0 -17 9 -16 53 6
30 15 45 17 84 10 53 -10 96 -37 101 -63 3 -15 0 -14 -30 4 -35 21 -74 27 -63
10 4 -6 22 -17 41 -25 39 -16 44 -37 12 -59 -30 -21 -48 -20 -48 3 0 24 -47
81 -66 81 -21 0 -17 -9 18 -42 l31 -29 -22 -22 c-35 -35 -108 -31 -158 9 -37
31 -38 34 -35 85 2 30 8 71 13 91 9 35 11 37 64 43 30 4 62 14 72 22 16 13 15
14 -16 9 -18 -3 -78 -6 -132 -6 -100 0 -133 -13 -58 -23 22 -3 42 -7 43 -9 2
-1 -2 -38 -7 -82 -10 -74 -12 -79 -47 -102 -39 -26 -147 -51 -174 -41 -21 8
-21 35 1 59 9 10 13 21 9 26 -12 11 -56 -46 -56 -74 0 -27 0 -27 -34 -14 -19
7 -26 17 -26 38 0 35 25 72 49 72 10 0 24 7 31 15 10 12 9 15 -4 15 -51 0
-128 -62 -111 -90 3 -5 -1 -10 -9 -10 -11 0 -16 10 -16 34 0 26 8 41 32 61 29
24 38 27 97 23 43 -2 81 -11 110 -26 24 -13 46 -21 49 -18 8 8 -18 36 -49 51
-25 13 -109 126 -109 146 0 5 39 9 86 9 47 0 95 5 106 11 17 9 24 8 33 -4 10
-14 22 -14 106 -2 112 16 198 34 219 46 22 12 30 11 30 -5z"></path>
<path class="node" id="node2" d="M873 2238 c-5 -7 -13 -20 -18 -28 -6 -12 -5 -13 6 -2 7 6 21 12 32
12 10 0 17 5 15 12 -6 17 -24 20 -35 6z"></path>
<path class="node" id="node3" d="M1160 2095 c0 -8 -4 -15 -10 -15 -16 0 -11 -20 6 -27 23 -9 48 25 33
44 -15 17 -29 17 -29 -2z"></path>
<path class="node" id="node4" d="M1156 1779 c-14 -11 -26 -27 -26 -35 0 -19 17 -18 28 2 12 22 28 11
36 -23 20 -83 150 -313 221 -392 37 -41 39 -61 5 -61 -18 0 -36 -17 -28 -26 3
-2 23 4 46 14 41 17 53 34 32 47 -6 4 14 31 46 63 l57 57 68 0 c89 0 93 18 7
27 -37 3 -84 12 -103 18 -99 33 -230 136 -297 236 -46 68 -46 69 -22 72 36 5
29 22 -10 22 -19 0 -45 -9 -60 -21z m143 -194 c0 -5 -6 -1 -14 9 -8 11 -15 24
-15 30 0 5 7 1 15 -10 8 -10 14 -23 14 -29z m51 -40 c10 -13 11 -18 1 -28 -10
-9 -15 -8 -26 7 -23 31 1 50 25 21z m73 -49 c22 -17 22 -25 -5 -53 -27 -29
-34 -29 -54 2 -16 24 -16 27 1 45 21 23 33 24 58 6z m106 -62 c-4 -16 -71
-104 -78 -104 -4 0 -18 14 -30 31 l-23 31 37 38 c35 36 39 37 67 26 16 -7 28
-17 27 -22z"></path>
<path class="node" id="node5" d="M2070 809 c0 -5 5 -7 10 -4 6 3 10 8 10 11 0 2 -4 4 -10 4 -5 0 -10
-5 -10 -11z"></path>
<path class="node" id="node6" d="M1810 640 c0 -13 -5 -18 -15 -14 -8 4 -15 2 -15 -4 0 -11 24 -22 50
-22 10 0 20 -6 23 -14 3 -8 23 -15 45 -18 l40 -3 -21 20 c-12 12 -29 19 -38
17 -11 -2 -24 8 -35 27 -21 36 -34 40 -34 11z"></path>
<path class="node" id="node7" d="M1955 550 c-3 -5 -1 -10 4 -10 6 0 11 5 11 10 0 6 -2 10 -4 10 -3 0
-8 -4 -11 -10z"></path>
<path class="node" id="node8" d="M1512 758 c-16 -16 -15 -41 2 -83 30 -71 94 -61 82 13 -10 67 -52
102 -84 70z m48 -37 c12 -23 13 -61 2 -61 -17 0 -32 25 -32 52 0 32 15 37 30
9z"></path>
<path class="node" id="node9" d="M1416 734 c-20 -20 -20 -47 0 -89 19 -41 38 -49 60 -28 21 22 14 101
-12 120 -23 17 -29 16 -48 -3z m38 -40 c3 -9 6 -27 6 -41 0 -39 -25 -22 -28
20 -3 37 11 50 22 21z"></path>
<path class="node" id="node10" d="M1135 2270 c-17 -7 -16 -9 11 -9 16 -1 36 -7 43 -13 10 -11 12 -9 9
7 -4 22 -32 29 -63 15z"></path>









</g>
<g transform="translate(0.000000,300.000000) scale(0.100000,-0.100000)" fill="#FFFFFF" stroke="none">

<path class="node" id="node21" d="M742 2969 c-52 -15 -79 -67 -92 -177 -6 -51 -17 -107 -24 -125 l-14
-32 -1 34 -1 35 -32 -31 c-18 -16 -59 -49 -90 -72 -92 -69 -109 -142 -56 -248
26 -52 74 -93 109 -93 90 0 194 82 223 177 6 19 2 22 -34 28 -53 9 -43 21 24
28 69 7 133 35 171 75 37 40 50 41 30 3 -18 -35 -51 -62 -109 -91 -37 -17 -45
-27 -56 -65 -7 -27 -28 -61 -49 -83 l-36 -37 63 -91 64 -90 28 28 c19 18 39
28 59 28 30 0 136 -44 147 -61 3 -5 10 -9 15 -9 5 0 0 18 -12 41 -44 86 -55
209 -25 279 4 11 -4 21 -29 34 -36 20 -48 42 -17 33 9 -3 55 -17 102 -31 158
-48 228 -31 280 67 l24 45 -19 42 c-39 87 -169 188 -358 280 -154 74 -228 94
-285 79z m166 -737 c2 -7 -5 -12 -15 -12 -11 0 -25 -6 -32 -12 -11 -11 -12
-10 -6 2 22 41 43 50 53 22z"></path>
<path class="node" id="node22" d="M1178 2188 c-28 -10 -58 -61 -58 -98 0 -12 16 -40 34 -62 19 -22 36
-50 38 -62 4 -25 41 -33 73 -16 31 16 55 72 55 125 0 37 -6 51 -32 79 -37 38
-70 49 -110 34z m11 -91 c15 -19 -10 -53 -33 -44 -17 7 -22 27 -6 27 6 0 10 7
10 15 0 19 14 19 29 2z"></path>
<path class="node" id="node23" d="M2002 2179 c-49 -15 -106 -77 -121 -132 -16 -57 -11 -74 31 -91 28
-12 38 -11 86 5 60 21 86 43 121 104 29 50 41 89 31 104 -9 16 -107 23 -148
10z"></path>
<path class="node" id="node24" d="M882 2128 c-22 -22 -14 -86 17 -131 50 -72 102 -112 180 -136 47 -15
81 7 81 50 l0 31 -19 -23 c-16 -19 -23 -22 -37 -13 -24 14 -29 34 -10 34 9 0
16 5 16 10 0 6 -5 10 -11 10 -5 0 -7 5 -3 11 3 6 17 8 30 5 29 -8 30 -2 5 38
-19 30 -92 91 -138 115 -29 15 -96 14 -111 -1z"></path>
<path class="node" id="node25" d="M1755 2044 c-154 -43 -333 -75 -382 -67 -26 5 -39 0 -68 -26 -20 -17
-47 -31 -60 -31 -24 0 -29 -4 -65 -51 -27 -37 -97 -46 -156 -20 -41 18 -44 19
-44 3 0 -34 70 -261 130 -420 33 -88 60 -165 60 -171 0 -23 165 -91 223 -91
34 0 82 24 173 86 205 139 335 281 423 464 17 35 31 68 31 74 0 6 6 22 13 36
16 30 29 100 19 100 -4 -1 -27 -5 -51 -9 -66 -13 -131 9 -154 52 -12 22 -16
43 -12 60 8 32 -3 33 -80 11z m-505 -253 c0 -5 -11 -11 -24 -13 -24 -3 -24 -4
22 -72 67 -100 198 -203 297 -236 19 -6 66 -15 103 -18 86 -9 82 -27 -7 -27
l-68 0 -57 -57 c-32 -32 -52 -59 -46 -63 21 -13 9 -30 -32 -47 -23 -10 -43
-16 -46 -14 -8 9 10 26 28 26 34 0 32 20 -5 61 -71 79 -201 309 -221 392 -8
34 -24 45 -36 23 -11 -20 -28 -21 -28 -2 0 24 50 56 86 56 19 0 34 -4 34 -9z"></path>
<path class="node" id="node26" d="M1270 1624 c0 -6 7 -19 15 -30 8 -10 14 -14 14 -9 0 6 -6 19 -14 29
-8 11 -15 15 -15 10z"></path>
<path class="node" id="node27" d="M1316 1551 c-3 -4 1 -17 9 -27 11 -15 16 -16 26 -7 10 10 9 15 -1 28
-14 17 -26 19 -34 6z"></path>
<path class="node" id="node28" d="M1365 1490 c-17 -18 -17 -21 -1 -45 20 -31 27 -31 54 -2 27 28 27 36
5 53 -25 18 -37 17 -58 -6z"></path>
<path class="node" id="node29" d="M1435 1430 l-37 -38 23 -31 c12 -17 26 -31 30 -31 7 0 74 88 78 104
1 5 -11 15 -27 22 -28 11 -32 10 -67 -26z"></path>
<path class="node" id="node30" d="M602 1957 c-10 -18 -25 -58 -31 -88 -7 -30 -17 -65 -22 -79 -11 -29
15 -117 53 -178 31 -51 78 -102 93 -102 21 0 43 79 60 220 9 74 19 150 22 169
l6 33 63 -4 c35 -2 64 -1 64 3 0 14 -28 29 -66 33 -21 3 -63 10 -93 16 -29 5
-71 10 -91 10 -32 0 -41 -5 -58 -33z"></path>
<path class="node" id="node31" d="M2045 1400 c-45 -46 -60 -50 -51 -16 10 40 -15 49 -57 20 -42 -28
-57 -52 -57 -90 0 -26 1 -26 48 -20 48 6 48 6 61 -29 10 -29 17 -35 42 -35 32
0 34 5 19 45 -6 15 -7 32 -3 38 4 6 9 2 14 -11 10 -27 36 -28 68 -3 21 16 23
24 18 60 -5 43 -30 81 -52 81 -6 0 -29 -18 -50 -40z"></path>
<path class="node" id="node32" d="M1030 1307 c0 -9 32 -40 70 -69 73 -55 92 -80 39 -53 -30 16 -31 16
-24 -7 4 -13 9 -31 11 -40 3 -9 -7 -60 -21 -113 -29 -111 -67 -416 -63 -508
l3 -62 104 -6 c101 -6 214 1 227 14 13 13 -39 332 -57 351 -5 6 -27 -4 -54
-23 -49 -35 -76 -35 -31 0 28 22 27 39 -5 39 -10 0 -19 5 -19 11 0 9 30 9 113
3 136 -11 288 -8 371 6 53 10 195 48 204 55 2 2 -3 16 -12 33 -8 16 -20 60
-27 98 -7 38 -14 71 -16 73 -1 2 -26 -11 -55 -30 -74 -48 -199 -108 -288 -136
-85 -28 -270 -44 -270 -24 0 6 16 11 38 11 21 0 41 3 45 6 3 3 -3 31 -14 62
-13 38 -19 78 -17 117 l2 60 -52 17 c-59 20 -132 63 -132 78 0 13 17 13 25 0
9 -15 25 -12 25 4 0 22 -24 36 -74 42 -38 6 -46 4 -46 -9z"></path>
<path class="node" id="node33" d="M1932 1217 c-8 -10 -7 -27 4 -62 18 -60 14 -71 -25 -80 -25 -5 -31
-12 -31 -31 0 -24 2 -25 46 -18 39 6 47 4 60 -15 20 -28 77 -28 123 0 31 18
32 21 17 37 -14 16 -14 19 4 30 24 14 27 42 5 42 -22 0 -18 19 7 39 66 54 -59
78 -154 30 -20 -10 -31 2 -22 25 8 20 -19 22 -34 3z"></path>
<path class="node" id="node34" d="M1461 1166 c-10 -12 -8 -15 11 -20 13 -3 -6 -3 -42 -1 -36 3 -77 7
-92 11 l-28 6 1 -58 c1 -33 4 -70 8 -84 7 -25 7 -25 13 -3 15 56 69 32 71 -31
1 -20 6 -36 12 -36 18 0 26 12 16 24 -14 18 -21 60 -12 75 6 8 19 12 35 9 14
-3 26 -2 26 2 0 3 8 15 18 26 10 10 25 30 34 43 17 23 16 25 -9 38 -32 17 -48
17 -62 -1z"></path>
<path class="node" id="node35" d="M1442 1016 c2 -16 9 -31 16 -34 17 -5 15 20 -3 44 -15 18 -15 18 -13
-10z"></path>
<path class="node" id="node36" d="M2267 1000 c-65 -9 -120 -20 -123 -23 -8 -8 6 -86 16 -92 16 -10 220
65 220 81 0 3 -36 3 -80 -1 -50 -4 -80 -3 -80 3 0 13 50 22 124 22 65 0 98
-12 81 -29 -19 -18 -110 -60 -190 -86 -141 -47 -198 -55 -400 -56 -148 -1
-181 -3 -150 -11 23 -6 103 -7 193 -4 85 4 152 2 152 -3 0 -12 -78 -21 -185
-21 -93 0 -111 -5 -96 -24 10 -13 34 -107 28 -112 -4 -4 -17 20 -46 89 -18 42
-23 47 -51 47 l-31 0 17 -32 c55 -107 112 -166 203 -212 63 -32 79 -36 151
-36 44 0 88 4 98 9 9 5 40 14 67 20 62 14 171 66 178 85 3 8 -3 22 -14 32 -23
21 -24 36 -4 74 9 17 17 53 20 81 4 54 23 84 59 95 22 7 36 22 36 39 0 5 -5 4
-12 -3 -13 -13 -28 -16 -28 -4 0 4 14 22 30 41 17 18 30 38 30 42 0 13 -81 9
-213 -11z m-177 -184 c0 -3 -4 -8 -10 -11 -5 -3 -10 -1 -10 4 0 6 5 11 10 11
6 0 10 -2 10 -4z m-246 -187 c11 -19 24 -29 35 -27 9 2 26 -5 38 -17 l21 -20
-40 3 c-22 3 -42 10 -45 18 -3 8 -13 14 -23 14 -26 0 -50 11 -50 22 0 6 7 8
15 4 10 -4 15 1 15 14 0 29 13 25 34 -11z m126 -79 c0 -5 -5 -10 -11 -10 -5 0
-7 5 -4 10 3 6 8 10 11 10 2 0 4 -4 4 -10z"></path>
<path class="node" id="node37" d="M1350 998 c0 -8 7 -23 15 -34 15 -18 15 -18 13 10 -3 29 -28 50 -28
24z"></path>

<path class="node" id="node39" d="M1902 965 c0 -16 2 -22 5 -12 2 9 2 23 0 30 -3 6 -5 -1 -5 -18z"></path>
<path class="node" id="node40" d="M2072 961 c-12 -7 -11 -24 5 -83 5 -20 28 -24 38 -8 10 16 -6 100
-19 100 -6 0 -17 -4 -24 -9z"></path>
<path class="node" id="node41" d="M1977 948 c-32 -9 -37 -14 -35 -36 3 -24 -2 -27 -65 -43 -38 -9 -71
-20 -74 -23 -8 -8 98 -8 176 0 60 7 61 7 61 38 0 37 -10 76 -19 75 -3 -1 -23
-6 -44 -11z"></path>
<path class="node" id="node42" d="M2480 895 c-7 -8 -18 -15 -26 -15 -7 0 -25 -11 -41 -24 -24 -20 -25
-26 -14 -40 21 -25 57 -19 96 15 37 33 45 63 19 73 -21 8 -20 8 -34 -9z"></path>
<path class="node" id="node43" d="M1357 804 c-3 -4 17 -162 28 -214 3 -19 11 -59 16 -87 l10 -53 40 0
c65 0 279 48 316 71 l34 21 -64 67 c-35 36 -78 92 -96 123 -26 47 -38 58 -64
62 -37 6 -216 14 -220 10z m218 -58 c40 -61 22 -141 -27 -115 -21 11 -48 66
-48 97 0 44 50 56 75 18z m-111 -9 c26 -19 33 -98 12 -120 -22 -21 -41 -13
-60 28 -20 42 -20 69 0 89 19 19 25 20 48 3z"></path>
<path class="node" id="node44" d="M1530 712 c0 -27 15 -52 32 -52 11 0 10 38 -2 61 -15 28 -30 23 -30
-9z"></path>
<path class="node" id="node45" d="M1432 673 c3 -42 28 -59 28 -20 0 32 -9 57 -22 57 -5 0 -8 -17 -6
-37z"></path>
<path class="node" id="node46" d="M2475 780 c-11 -5 -35 -9 -52 -9 -38 -1 -45 -24 -13 -41 33 -18 100
13 100 47 0 15 -6 15 -35 3z"></path>
<path class="node" id="node47" d="M2365 689 c-8 -25 7 -39 47 -39 17 0 31 7 37 19 9 16 6 19 -17 24
-15 3 -34 8 -44 12 -11 4 -18 0 -23 -16z"></path>
<path class="node" id="node48" d="M1710 471 c-21 -12 -107 -30 -219 -46 -84 -12 -96 -12 -106 2 -9 12
-16 13 -33 4 -11 -6 -59 -11 -106 -11 -47 0 -86 -4 -86 -9 0 -20 84 -133 109
-146 31 -15 57 -43 49 -51 -3 -3 -25 5 -49 18 -29 15 -67 24 -110 26 -59 4
-68 1 -97 -23 -24 -20 -32 -35 -32 -61 0 -24 5 -34 16 -34 8 0 12 5 9 10 -17
28 60 90 111 90 13 0 14 -3 4 -15 -7 -8 -21 -15 -31 -15 -24 0 -49 -37 -49
-72 0 -21 7 -31 26 -38 34 -13 34 -13 34 14 0 28 44 85 56 74 4 -5 0 -16 -9
-26 -22 -24 -22 -51 -1 -59 27 -10 135 15 174 41 35 23 37 28 47 102 5 44 9
81 7 82 -1 2 -21 6 -43 9 -75 10 -42 23 58 23 54 0 114 3 132 6 31 5 32 4 16
-9 -10 -8 -42 -18 -72 -22 -53 -6 -55 -8 -64 -43 -5 -20 -11 -61 -13 -91 -3
-51 -2 -54 35 -85 50 -40 123 -44 158 -9 l22 22 -31 29 c-35 33 -39 42 -18 42
19 0 66 -57 66 -81 0 -23 18 -24 48 -3 32 22 27 43 -12 59 -19 8 -37 19 -41
25 -11 17 28 11 63 -10 30 -18 33 -19 30 -4 -5 26 -48 53 -101 63 -39 7 -54 5
-84 -10 -44 -22 -53 -23 -53 -6 0 7 15 20 33 30 43 24 83 61 140 131 56 69 64
103 17 77z"></path>
</g>
</svg>