<!--?xml version="1.0" standalone="no"?-->

<svg xmlns="http://www.w3.org/2000/svg" width="293.000000pt" height="300.000000pt" viewBox="0 0 293.000000 300.000000" preserveAspectRatio="xMidYMid meet">
<g transform="translate(0.000000,300.000000) scale(0.100000,-0.100000)" fill="#C58F35" stroke="none">
<path style="position: relative;" class="node" id="node1" d="M2575 2771 c-6 -5 -39 -17 -75 -26 -36 -9 -82 -20 -103 -26 -42 -10
-113 -52 -119 -69 -3 -11 -85 -35 -178 -51 -38 -7 -60 -16 -70 -32 -31 -45
-50 -57 -89 -57 -36 0 -40 3 -50 33 -21 62 -116 126 -163 111 -48 -15 -97 -54
-124 -101 -29 -47 -30 -48 -80 -48 -44 -1 -58 -6 -95 -36 -24 -19 -63 -41 -85
-47 -59 -17 -157 -114 -189 -186 -14 -31 -25 -63 -25 -70 0 -10 -13 -7 -47 10
-103 53 -182 20 -257 -106 -55 -91 -112 -203 -124 -240 -14 -42 -18 -136 -8
-167 5 -17 3 -23 -7 -23 -8 0 -21 -8 -30 -18 -22 -24 -63 -151 -77 -237 -6
-38 -18 -102 -26 -142 -8 -40 -14 -126 -14 -192 0 -66 -4 -121 -9 -123 -5 -2
-5 -25 0 -57 5 -36 5 -59 -2 -67 -7 -9 -5 -21 8 -40 9 -15 13 -25 8 -23 -6 3
-32 16 -60 29 -60 28 -155 40 -155 19 0 -8 21 -23 48 -33 65 -26 119 -65 171
-121 54 -59 45 -73 -12 -18 -48 47 -67 57 -145 84 -58 19 -113 24 -125 12 -4
-3 32 -26 80 -50 85 -43 147 -82 141 -88 -2 -2 -36 3 -77 11 -53 10 -77 11
-81 3 -5 -7 -19 -6 -45 5 -40 17 -115 22 -115 7 0 -5 12 -12 27 -16 27 -6 106
-55 100 -61 -2 -2 -25 3 -52 11 -61 19 -188 20 -183 2 3 -6 20 -13 39 -15 19
-2 38 -7 44 -11 5 -5 24 -12 40 -16 27 -6 28 -8 10 -15 -11 -4 -47 -10 -80
-14 -94 -11 -115 -17 -115 -32 0 -11 19 -14 88 -14 96 -1 95 -13 -2 -25 -73
-8 -86 -13 -86 -31 0 -11 15 -12 74 -7 41 3 83 3 93 -1 16 -7 16 -9 -7 -26
-14 -11 -23 -20 -20 -21 3 0 30 -2 60 -4 65 -4 92 8 35 16 l-40 5 28 12 c42
18 32 32 -24 32 -73 0 -51 18 32 26 l71 7 -38 14 c-22 8 -50 18 -64 23 -18 7
-1 9 58 7 91 -2 92 7 3 39 -25 9 -59 23 -76 31 l-30 14 42 -5 c41 -6 94 -26
174 -67 20 -11 40 -19 45 -19 12 0 -55 68 -100 101 -21 16 -36 29 -33 29 13 0
85 -46 121 -79 44 -38 64 -27 25 15 -41 44 -12 36 39 -11 28 -26 54 -46 58
-46 10 1 10 43 0 59 -11 19 1 27 18 13 8 -7 17 -8 20 -3 7 11 -63 77 -129 121
-30 20 -40 30 -25 26 47 -14 100 -45 148 -88 l48 -43 -16 -37 c-15 -33 -19
-36 -30 -22 -7 8 -15 13 -18 11 -2 -3 7 -19 21 -36 26 -30 26 -30 37 -9 l12
21 14 -20 c13 -19 17 -19 41 -7 18 10 31 11 39 4 8 -6 30 0 70 21 32 16 60 27
63 24 3 -3 -1 -9 -9 -14 -8 -5 -11 -12 -7 -16 8 -8 28 1 97 44 52 32 121 55
142 47 8 -3 43 8 77 26 34 17 65 29 68 25 8 -8 10 -7 -81 -49 -43 -21 -82 -35
-85 -32 -3 4 1 10 9 15 8 6 10 10 5 10 -15 0 -118 -71 -112 -77 3 -3 32 5 64
16 88 31 107 26 44 -11 -30 -18 -49 -34 -43 -36 7 -2 18 1 25 6 25 20 135 72
153 72 11 0 -16 -20 -59 -44 -116 -64 -131 -89 -29 -47 44 18 201 35 184 20
-4 -4 -32 -14 -62 -24 -30 -10 -59 -21 -65 -25 -5 -4 -27 -13 -47 -19 -21 -7
-38 -17 -38 -23 0 -6 7 -7 18 -2 9 5 53 8 97 7 150 -5 177 -4 194 2 33 13 -19
27 -97 27 -83 -1 -82 10 3 29 51 11 93 34 83 44 -9 9 -141 10 -183 2 -36 -7
-38 -7 -22 6 9 8 57 22 105 32 118 23 122 25 92 37 -14 6 -35 15 -47 21 -17 7
-36 6 -77 -7 -31 -10 -61 -16 -68 -13 -21 8 49 34 155 58 53 13 94 26 90 30
-9 9 -121 12 -200 7 -32 -2 -62 -11 -80 -24 -15 -11 -45 -23 -65 -27 -20 -3
-66 -19 -103 -36 -74 -34 -90 -38 -60 -15 14 11 16 18 8 21 -37 14 22 65 145
127 55 28 83 28 44 0 -12 -8 -22 -24 -22 -35 0 -18 1 -19 37 -3 60 25 123 43
123 34 0 -4 -11 -11 -25 -14 -14 -4 -25 -11 -25 -17 0 -7 7 -8 18 -4 9 5 44
17 76 29 33 12 61 27 64 34 5 17 -69 16 -138 -3 -62 -16 -71 -14 -35 9 38 25
32 39 -13 31 -49 -9 -136 -49 -195 -92 -27 -19 -51 -33 -53 -30 -2 2 6 19 19
38 15 22 35 37 63 45 133 38 209 162 181 293 -7 32 -6 69 3 126 20 130 27 139
149 197 115 56 191 100 320 187 46 31 90 61 99 66 68 42 192 145 269 222 81
82 99 94 142 104 31 6 64 23 92 47 41 35 96 62 130 62 19 0 61 44 83 87 9 18
16 56 16 88 0 62 -8 58 108 55 35 -1 69 3 75 8 7 5 45 6 91 1 49 -5 87 -4 98
2 47 25 78 146 78 305 0 102 -18 175 -51 210 -26 28 -52 30 -102 9 -20 -8 -54
-15 -75 -15 -23 0 -45 6 -52 15 -14 17 -61 20 -75 6z m59 -19 c3 -5 -8 -7 -23
-4 -26 4 -30 0 -42 -35 -7 -21 -15 -105 -18 -188 -6 -148 -6 -149 -14 -70 -8
89 4 215 27 270 12 27 21 35 40 35 14 0 27 -4 30 -8z m229 -9 c8 -10 18 -31
22 -48 7 -29 6 -29 -12 5 -13 26 -25 35 -43 35 -36 0 -62 -59 -68 -152 -5 -84
-22 -99 -22 -20 0 74 25 151 57 176 32 26 45 26 66 4z m-336 -50 c-6 -21 -11
-101 -11 -178 1 -135 4 -156 39 -237 7 -17 -2 -18 -102 -18 -101 0 -111 2
-130 23 -41 43 -58 105 -57 202 2 159 50 203 266 244 3 0 1 -16 -5 -36z m223
35 c0 -2 -6 -20 -14 -42 l-13 -39 -17 33 c-20 41 -20 38 7 43 36 7 37 7 37 5z
m95 -18 c3 -5 1 -10 -4 -10 -6 0 -11 5 -11 10 0 6 2 10 4 10 3 0 8 -4 11 -10z
m-146 -95 c22 -68 29 -199 11 -210 -6 -4 -10 21 -10 67 -1 68 -7 115 -25 181
-14 54 4 26 24 -38z m198 13 c-3 -7 -5 -2 -5 12 0 14 2 19 5 13 2 -7 2 -19 0
-25z m-1062 -32 c42 -41 45 -62 9 -61 -55 0 -89 -140 -49 -201 14 -22 14 -25
-10 -40 -13 -9 -42 -18 -63 -21 -35 -5 -44 -1 -77 29 -35 32 -37 37 -41 111
-3 62 -1 85 15 115 33 65 84 101 143 102 29 0 45 -7 73 -34z m846 -118 c0 -51
-6 -95 -17 -126 -25 -67 -35 -74 -19 -13 16 61 21 175 12 246 l-7 50 15 -40
c9 -23 16 -73 16 -117z m-425 115 c-3 -10 -8 -30 -12 -45 -7 -31 -21 -37 -84
-36 -48 1 -81 -14 -134 -61 l-28 -26 7 35 c12 60 33 100 57 109 20 8 149 36
186 40 8 0 11 -6 8 -16z m613 -35 c3 -50 -4 -48 -13 5 -4 20 -3 37 2 37 4 0 9
-19 11 -42z m37 -55 c-2 -16 -8 -57 -11 -93 -6 -68 -38 -139 -65 -148 -11 -4
-10 -1 3 12 33 34 46 74 53 165 4 50 11 91 16 91 5 0 7 -12 4 -27z m-1053 11
c3 -4 -3 -18 -13 -32 -27 -33 -26 -96 0 -122 18 -18 19 -21 4 -27 -30 -11 -46
25 -42 93 4 71 28 111 51 88z m-293 -34 c39 -39 22 -175 -28 -231 -39 -43 -89
-49 -124 -15 -14 15 -28 38 -31 52 -12 62 41 162 102 194 46 24 57 24 81 0z
m422 -30 c-2 -25 -7 -48 -11 -52 -3 -4 -32 -10 -64 -14 l-57 -7 0 39 c0 50 7
59 55 72 71 18 80 14 77 -38z m178 41 c0 -6 -9 -26 -21 -45 -23 -39 -37 -140
-21 -150 6 -3 13 17 17 52 8 66 36 127 66 143 28 15 39 -1 39 -58 0 -23 9 -66
21 -95 11 -28 18 -61 15 -72 -4 -15 3 -27 21 -42 26 -21 27 -22 10 -48 -10
-14 -39 -38 -66 -53 -26 -16 -70 -55 -98 -88 -88 -105 -295 -308 -382 -375
-246 -189 -439 -298 -626 -357 -62 -19 -69 -23 -58 -34 5 -5 31 0 61 11 29 11
57 20 62 20 12 0 4 -40 -16 -85 -22 -47 -34 -129 -33 -220 1 -94 -12 -144 -47
-192 -46 -62 -222 -121 -280 -94 -25 11 -30 10 -46 -11 -9 -13 -38 -73 -64
-135 -25 -61 -53 -114 -60 -117 -8 -3 -21 5 -30 18 -14 22 -13 29 11 88 14 34
30 72 35 83 27 56 39 106 27 109 -72 21 -109 41 -122 66 -30 57 -13 143 37
196 34 36 111 79 126 70 5 -3 17 14 26 37 15 35 19 39 25 23 7 -17 9 -16 30
10 12 16 75 82 139 147 l116 119 23 -27 c26 -29 26 -29 133 12 223 86 434 240
731 534 78 77 169 194 158 203 -2 1 -29 15 -60 29 -44 21 -59 34 -68 58 -15
44 -14 59 10 133 21 65 59 118 59 83 0 -9 -4 -19 -10 -22 -5 -3 -10 -30 -10
-60 0 -30 5 -57 10 -60 6 -4 10 13 10 45 0 58 20 105 58 137 29 25 42 29 42
14z m690 -125 c-6 -30 -17 -60 -25 -66 -24 -20 -27 7 -5 47 11 21 23 60 27 88
7 44 8 46 11 17 2 -18 -2 -57 -8 -86z m-88 27 c2 -38 11 -84 21 -103 17 -35
17 -35 -2 -12 -30 35 -56 182 -32 182 5 0 11 -30 13 -67z m-1402 -24 c-19 -66
-13 -106 24 -146 28 -31 41 -38 73 -38 46 0 91 32 119 85 10 19 20 37 21 39 2
3 16 -8 32 -23 36 -35 93 -44 144 -23 20 9 37 21 37 26 0 6 8 11 18 11 10 0
31 13 47 30 26 28 91 58 101 47 2 -2 0 -16 -6 -31 -15 -39 -12 -98 5 -141 12
-28 27 -41 63 -57 26 -11 48 -22 50 -23 10 -9 -36 -72 -104 -144 l-77 -82 -99
2 c-97 1 -99 2 -93 23 36 124 31 159 -24 164 -64 7 -142 -105 -126 -179 4 -18
2 -36 -5 -44 -15 -19 -13 -19 40 0 53 19 60 14 23 -15 -134 -105 -285 -257
-325 -328 -33 -58 -41 -59 -105 -18 -31 20 -44 58 -24 70 4 3 14 39 21 81 17
101 8 276 -20 375 -31 109 -12 189 66 279 34 39 123 106 131 98 1 -2 -2 -19
-7 -38z m1338 -16 c-10 -39 -35 -93 -42 -93 -3 0 -13 -3 -23 -7 -11 -4 -8 2 9
16 15 12 32 38 38 59 6 20 13 43 15 50 3 6 6 12 9 12 2 0 0 -17 -6 -37z m-141
-5 c-3 -8 -6 -5 -6 6 -1 11 2 17 5 13 3 -3 4 -12 1 -19z m182 -60 c1 -12 -6
-18 -19 -18 -24 0 -23 -2 -8 40 10 30 12 32 19 14 4 -10 8 -27 8 -36z m-159 7
c14 -19 14 -19 -2 -6 -10 7 -18 18 -18 24 0 6 1 8 3 6 1 -2 9 -13 17 -24z
m-120 -101 c0 -96 -50 -176 -118 -190 l-32 -6 19 43 c20 45 37 119 28 119 -2
0 -15 -28 -27 -62 -30 -83 -78 -140 -142 -172 -46 -23 -128 -36 -128 -20 0 3
32 43 72 88 47 53 90 91 126 111 70 38 99 74 83 104 -11 20 -10 21 54 21 l65
0 0 -36z m-1388 -46 c26 -12 50 -28 53 -36 4 -10 1 -12 -12 -7 -41 18 -71 17
-89 -3 -11 -10 -25 -21 -32 -23 -11 -4 -15 -43 -17 -174 -4 -221 -18 -373 -39
-413 -14 -27 -22 -32 -52 -32 -47 0 -83 38 -132 139 -31 63 -37 87 -37 138 0
56 7 74 67 195 74 147 112 199 166 228 40 21 54 19 124 -12z m55 -72 c7 -6 22
-54 34 -106 23 -103 22 -225 -1 -327 -11 -48 -14 -52 -43 -55 -31 -3 -32 -5
-32 -46 -1 -31 -6 -47 -18 -54 -11 -6 -17 -19 -15 -31 3 -25 -20 -54 -147
-184 -49 -51 -96 -93 -104 -93 -19 0 -51 -30 -51 -47 0 -7 -11 -18 -24 -23
-14 -5 -48 -25 -76 -45 -29 -20 -54 -34 -57 -32 -8 9 27 286 42 331 8 22 26
91 41 153 l27 111 24 -46 c35 -66 91 -132 122 -143 46 -18 89 -3 110 39 26 52
31 97 36 348 4 213 5 223 27 248 19 22 29 26 58 21 19 -4 41 -12 47 -19z m582
-20 c8 -10 6 -29 -9 -80 -24 -78 -50 -91 -50 -25 0 24 -4 38 -10 34 -5 -3 -10
-23 -10 -45 0 -40 -25 -63 -42 -38 -28 44 10 135 64 155 43 15 44 15 57 -1z
m147 -188 c8 -13 -39 -57 -174 -160 -52 -39 -101 -78 -110 -87 -34 -34 -229
-151 -252 -151 -24 0 -7 40 44 101 51 62 105 114 261 248 l70 60 77 0 c48 1
80 -3 84 -11z m204 -1 c0 -28 -229 -220 -380 -318 -145 -94 -139 -86 23 35 80
60 194 161 277 247 44 45 80 62 80 36z m-936 -311 c-6 -16 45 -67 93 -93 18
-10 33 -20 33 -23 0 -3 -27 -16 -60 -29 l-61 -24 -29 28 c-17 16 -30 33 -30
39 0 5 10 0 23 -12 29 -28 46 -29 22 -1 -16 16 -17 25 -8 48 6 17 7 35 2 42
-13 21 -11 39 6 39 8 0 12 -6 9 -14z m-472 -33 c-7 -15 -23 -84 -38 -153 -28
-136 -40 -168 -30 -78 10 89 62 276 73 264 3 -3 1 -18 -5 -33z m897 -59 c-7
-9 -42 -31 -78 -50 -36 -19 -85 -45 -108 -58 -43 -25 -104 -48 -109 -43 -2 2
39 24 90 50 52 26 121 62 153 81 67 40 70 42 52 20z m-972 -266 c-3 -7 -5 -2
-5 12 0 14 2 19 5 13 2 -7 2 -19 0 -25z m-50 -480 c29 -18 53 -36 53 -40 0 -4
7 -8 15 -8 19 0 19 4 -1 41 -8 17 -14 32 -12 34 2 2 20 -12 41 -31 l38 -35
-17 -45 c-9 -25 -21 -47 -25 -50 -4 -2 -21 15 -38 40 -17 24 -51 62 -77 85
-56 49 -49 52 23 9z m250 -186 c-18 -35 -29 -46 -43 -44 -10 2 -20 5 -22 6 -1
2 15 41 35 88 l38 86 8 -44 c6 -37 4 -53 -16 -92z m99 52 c-3 -9 -9 -26 -12
-38 -3 -12 -18 -27 -35 -33 -16 -6 -29 -10 -29 -9 0 1 7 23 16 49 13 39 20 47
41 47 19 0 24 -4 19 -16z m-417 -25 c17 -6 31 -17 31 -25 0 -21 -15 -17 -47
11 -32 28 -29 30 16 14z m741 -179 c0 -5 -8 -10 -17 -10 -15 0 -16 2 -3 10 19
12 20 12 20 0z"></path>
<path style="position: relative;" class="node" id="node2" d="M1633 2434 c-3 -8 1 -22 9 -30 13 -13 16 -13 28 0 10 13 10 19 0 31
-16 19 -29 19 -37 -1z"></path>
<path style="position: relative;" class="node" id="node3" d="M1537 2414 c-16 -16 -7 -44 14 -44 15 0 20 5 17 22 -3 22 -19 33 -31
22z"></path>
<path style="position: relative;" class="node" id="node4" d="M1120 1506 c0 -2 8 -10 18 -17 15 -13 16 -12 3 4 -13 16 -21 21 -21
13z"></path>

<path style="position: relative;" class="node" id="node6" d="M1198 333 c6 -2 18 -2 25 0 6 3 1 5 -13 5 -14 0 -19 -2 -12 -5z"></path>
<path style="position: relative;" class="node" id="node7" d="M1115 320 l-30 -8 33 -2 c30 -2 41 -4 60 -10 4 -1 -4 -6 -18 -10 -18
-6 -7 -8 43 -9 38 -1 67 3 67 9 0 6 -10 10 -22 10 -13 0 -36 7 -52 15 -31 16
-36 17 -81 5z"></path>





</g>
<g transform="translate(0.000000,300.000000) scale(0.100000,-0.100000)" fill="#82B29B" stroke="none">

<path style="position: relative;" class="node" id="node14" d="M2564 2725 c-23 -55 -35 -181 -27 -270 8 -79 8 -78 14 70 3 83 11
167 18 188 12 35 16 39 42 35 15 -3 26 -1 23 4 -3 4 -16 8 -30 8 -19 0 -28 -8
-40 -35z"></path>
<path style="position: relative;" class="node" id="node15" d="M2797 2739 c-32 -25 -57 -102 -57 -176 0 -79 17 -64 22 20 6 93 32
152 68 152 18 0 30 -9 43 -35 18 -34 19 -34 12 -5 -7 33 -32 65 -50 65 -7 0
-24 -9 -38 -21z"></path>
<path style="position: relative;" class="node" id="node16" d="M2454 2711 c-85 -19 -140 -53 -167 -101 -28 -49 -30 -196 -4 -260 35
-84 45 -90 170 -90 100 0 109 1 102 18 -35 81 -38 102 -39 237 0 77 5 157 11
178 6 20 8 36 5 36 -4 -1 -39 -9 -78 -18z"></path>
<path style="position: relative;" class="node" id="node17" d="M2713 2723 c-27 -5 -27 -2 -7 -43 l17 -33 13 39 c8 22 14 40 14 42 0
2 -1 2 -37 -5z"></path>
<path style="position: relative;" class="node" id="node18" d="M2830 2710 c0 -5 5 -10 11 -10 5 0 7 5 4 10 -3 6 -8 10 -11 10 -2 0
-4 -4 -4 -10z"></path>
<path style="position: relative;" class="node" id="node19" d="M2675 2653 c18 -66 24 -113 25 -181 0 -46 4 -71 10 -67 18 11 11 142
-11 210 -20 64 -38 92 -24 38z"></path>
<path style="position: relative;" class="node" id="node20" d="M2892 2640 c0 -14 2 -19 5 -12 2 6 2 18 0 25 -3 6 -5 1 -5 -13z"></path>
<path style="position: relative;" class="node" id="node21" d="M1705 2618 c-35 -19 -66 -52 -86 -90 -16 -30 -18 -53 -15 -115 4 -74
6 -79 41 -111 33 -30 42 -34 77 -29 21 3 50 12 63 21 24 15 24 18 10 40 -40
61 -6 201 49 201 36 -1 33 20 -9 61 -28 27 -44 34 -73 34 -20 0 -46 -6 -57
-12z m-35 -183 c10 -12 10 -18 0 -31 -12 -13 -15 -13 -28 0 -15 15 -10 46 6
46 5 0 15 -7 22 -15z"></path>
<path style="position: relative;" class="node" id="node22" d="M2657 2585 c9 -71 4 -185 -12 -246 -16 -61 -6 -54 19 13 22 60 23
188 1 243 l-15 40 7 -50z"></path>
<path style="position: relative;" class="node" id="node23" d="M2160 2593 c-41 -8 -85 -19 -98 -24 -24 -9 -45 -49 -57 -109 l-7 -35
28 26 c53 47 86 62 134 61 63 -1 77 5 84 36 4 15 9 35 12 45 6 20 7 20 -96 0z"></path>
<path style="position: relative;" class="node" id="node24" d="M2856 2563 c9 -53 16 -55 13 -5 -2 23 -7 42 -11 42 -5 0 -6 -17 -2
-37z"></path>
<path style="position: relative;" class="node" id="node25" d="M2886 2439 c-7 -91 -20 -131 -53 -165 -13 -13 -14 -16 -3 -12 27 9
59 80 65 148 3 36 9 77 11 93 3 15 1 27 -4 27 -5 0 -12 -41 -16 -91z"></path>
<path style="position: relative;" class="node" id="node26" d="M1819 2504 c-20 -24 -24 -134 -6 -158 9 -12 20 -17 31 -13 15 6 14 9
-4 27 -26 26 -27 89 0 122 27 35 7 55 -21 22z"></path>
<path style="position: relative;" class="node" id="node27" d="M1479 2480 c-61 -32 -114 -132 -102 -194 3 -14 17 -37 31 -52 35 -34
85 -28 124 15 50 56 67 192 28 231 -24 24 -35 24 -81 0z m89 -88 c3 -17 -2
-22 -17 -22 -14 0 -21 6 -21 18 0 38 33 41 38 4z"></path>
<path style="position: relative;" class="node" id="node28" d="M1905 2488 c-48 -13 -55 -22 -55 -72 l0 -39 57 7 c32 4 61 10 64 14
4 4 9 27 11 52 3 52 -6 56 -77 38z"></path>
<path style="position: relative;" class="node" id="node29" d="M2118 2477 c-38 -32 -58 -79 -58 -137 0 -32 -4 -49 -10 -45 -5 3 -10
30 -10 60 0 30 5 57 10 60 6 3 10 13 10 22 0 35 -38 -18 -59 -83 -24 -74 -25
-89 -10 -133 9 -24 24 -37 68 -58 31 -14 58 -28 60 -29 11 -9 -80 -126 -158
-203 -297 -294 -508 -448 -731 -534 -107 -41 -107 -41 -133 -12 l-23 27 -116
-119 c-64 -65 -127 -131 -139 -147 -21 -26 -23 -27 -30 -10 -6 16 -10 12 -25
-23 -9 -23 -21 -40 -26 -37 -15 9 -92 -34 -126 -70 -50 -53 -67 -139 -37 -196
13 -25 50 -45 122 -66 12 -3 0 -53 -27 -109 -5 -11 -21 -49 -35 -83 -24 -59
-25 -66 -11 -88 9 -13 22 -21 30 -18 7 3 35 56 60 117 26 62 55 122 64 135 16
21 21 22 46 11 58 -27 234 32 280 94 35 48 48 98 47 192 -1 91 11 173 33 220
20 45 28 85 16 85 -5 0 -33 -9 -62 -20 -30 -11 -56 -16 -61 -11 -11 11 -4 15
58 34 187 59 380 168 626 357 87 67 294 270 382 375 28 33 72 72 98 88 27 15
56 39 66 53 17 26 16 27 -10 48 -18 15 -25 27 -21 42 3 11 -4 44 -15 72 -12
29 -21 72 -21 95 0 57 -11 73 -39 58 -30 -16 -58 -77 -66 -143 -4 -35 -11 -55
-17 -52 -16 10 -2 111 21 150 34 57 26 70 -21 31z"></path>
<path style="position: relative;" class="node" id="node30" d="M2847 2435 c-4 -28 -16 -67 -27 -88 -22 -40 -19 -67 5 -47 17 14 37
108 33 152 -3 29 -4 27 -11 -17z"></path>
<path style="position: relative;" class="node" id="node31" d="M2740 2430 c0 -51 21 -129 41 -152 19 -23 19 -23 2 12 -10 19 -19 65
-21 103 -4 65 -22 96 -22 37z"></path>

<path style="position: relative;" class="node" id="node33" d="M1319 2381 c-84 -53 -151 -150 -165 -239 -4 -24 2 -64 16 -112 28
-99 37 -274 20 -375 -7 -42 -17 -78 -21 -81 -20 -12 -7 -50 24 -70 64 -41 72
-40 105 18 40 71 191 223 325 328 37 29 30 34 -23 15 -53 -19 -55 -19 -40 0 7
8 9 26 5 44 -10 46 10 99 54 143 33 32 47 39 72 36 55 -5 60 -40 24 -164 -6
-21 -4 -22 93 -23 l99 -2 77 82 c68 72 114 135 104 144 -2 1 -24 12 -50 23
-36 16 -51 29 -63 57 -17 43 -20 102 -5 141 6 15 8 29 6 31 -10 11 -75 -19
-101 -47 -16 -17 -37 -30 -47 -30 -10 0 -18 -5 -18 -11 0 -5 -17 -17 -37 -26
-51 -21 -108 -12 -144 23 -16 15 -30 26 -32 23 -1 -2 -11 -20 -21 -39 -28 -53
-73 -85 -119 -85 -32 0 -45 7 -73 38 -37 40 -43 80 -24 146 5 19 8 36 7 38 -2
1 -24 -10 -48 -26z"></path>
<path style="position: relative;" class="node" id="node34" d="M2695 2378 c-2 -7 -9 -30 -15 -50 -6 -21 -23 -47 -38 -59 -17 -14
-20 -20 -9 -16 10 4 20 7 23 7 2 0 10 12 18 28 16 31 37 102 30 102 -3 0 -6
-6 -9 -12z"></path>
<path style="position: relative;" class="node" id="node35" d="M2551 2354 c0 -11 3 -14 6 -6 3 7 2 16 -1 19 -3 4 -6 -2 -5 -13z"></path>
<path style="position: relative;" class="node" id="node36" d="M2712 2310 c-15 -42 -16 -40 8 -40 21 0 25 19 11 54 -7 18 -9 16 -19
-14z"></path>
<path style="position: relative;" class="node" id="node37" d="M2560 2313 c0 -6 8 -17 18 -24 16 -13 16 -13 2 6 -8 11 -16 22 -17
24 -2 2 -3 0 -3 -6z"></path>
<path style="position: relative;" class="node" id="node38" d="M2341 2209 c16 -30 -13 -66 -83 -104 -36 -20 -79 -58 -126 -111 -40
-45 -72 -85 -72 -88 0 -16 82 -3 128 20 64 32 112 89 142 172 12 34 25 62 27
62 9 0 -8 -74 -28 -119 l-19 -43 32 6 c68 14 118 94 118 190 l0 36 -65 0 c-64
0 -65 -1 -54 -21z"></path>
<path style="position: relative;" class="node" id="node39" d="M948 2160 c-54 -29 -92 -81 -166 -228 -60 -121 -67 -139 -67 -195 0
-51 6 -75 37 -138 49 -101 85 -139 132 -139 30 0 38 5 52 32 21 40 35 192 39
413 2 131 6 170 17 174 7 2 21 13 32 23 18 20 48 21 89 3 13 -5 16 -3 12 7 -6
14 -78 51 -120 62 -11 3 -36 -4 -57 -14z"></path>

<path style="position: relative;" class="node" id="node41" d="M1652 2057 c-54 -20 -92 -111 -64 -155 17 -25 42 -2 42 38 0 22 5 42
10 45 6 4 10 -10 10 -34 0 -66 26 -53 50 25 15 51 17 70 9 80 -13 16 -14 16
-57 1z"></path>

<path style="position: relative;" class="node" id="node43" d="M1980 1831 c-83 -86 -197 -187 -277 -247 -162 -121 -168 -129 -23
-35 151 98 380 290 380 318 0 26 -36 9 -80 -36z"></path>
<path style="position: relative;" class="node" id="node44" d="M1100 1558 c0 -7 4 -19 9 -27 5 -7 4 -25 -2 -42 -9 -23 -8 -32 8 -48
24 -28 7 -27 -22 1 -13 12 -23 17 -23 12 0 -6 13 -23 30 -39 l29 -28 61 24
c33 13 60 26 60 29 0 3 -15 13 -33 23 -48 26 -99 77 -93 93 3 8 -1 14 -9 14
-8 0 -15 -6 -15 -12z m41 -65 c13 -16 12 -17 -3 -4 -10 7 -18 15 -18 17 0 8 8
3 21 -13z"></path>
<path style="position: relative;" class="node" id="node45" d="M636 1513 c-26 -80 -46 -160 -52 -221 -10 -90 2 -58 30 78 15 69 31
138 38 153 6 15 8 30 5 33 -3 3 -12 -16 -21 -43z"></path>
<path style="position: relative;" class="node" id="node46" d="M1497 1444 c-32 -19 -101 -55 -153 -81 -51 -26 -92 -48 -90 -50 5 -5
66 18 109 43 23 13 72 39 108 58 36 19 71 41 78 50 18 22 15 20 -52 -20z"></path>
<path style="position: relative;" class="node" id="node47" d="M572 1210 c0 -14 2 -19 5 -12 2 6 2 18 0 25 -3 6 -5 1 -5 -13z"></path>


<path style="position: relative;" class="node" id="node50" d="M816 553 c-9 -26 -16 -48 -16 -49 0 -1 13 3 29 9 17 6 32 21 35 33 3
12 9 29 12 38 5 12 0 16 -19 16 -21 0 -28 -8 -41 -47z"></path>



</g>
</svg>