<!--?xml version="1.0" standalone="no"?-->

<svg version="1.0" xmlns="http://www.w3.org/2000/svg" width="242.000000pt" height="300.000000pt" viewBox="0 0 242.000000 300.000000" preserveAspectRatio="xMidYMid meet">
<g transform="translate(0.000000,300.000000) scale(0.100000,-0.100000)" fill="#141516" stroke="none">
<path class="node" id="node1" d="M733 2954 c-22 -27 -62 -85 -88 -129 -62 -104 -80 -122 -196 -201
-100 -67 -122 -95 -143 -186 -3 -15 -33 -67 -66 -116 -68 -100 -70 -114 -43
-229 16 -70 16 -74 -6 -171 -21 -91 -21 -106 -10 -179 7 -44 10 -87 6 -95 -3
-8 -18 -18 -34 -21 -16 -3 -41 -15 -55 -27 l-27 -21 30 -59 c28 -51 32 -71 36
-162 2 -57 13 -158 24 -225 l20 -122 -61 -82 c-60 -80 -100 -149 -114 -196
l-7 -23 149 0 150 0 41 -70 c60 -100 141 -183 238 -242 57 -35 85 -59 89 -75
4 -13 -1 -61 -9 -106 -27 -138 -30 -173 -17 -197 10 -19 17 -21 53 -16 50 8
143 54 212 105 28 21 55 40 61 44 6 3 30 -1 55 -10 59 -20 264 -13 329 11 25
10 77 24 116 31 39 8 88 24 108 36 42 25 80 23 211 -12 102 -26 258 -49 268
-39 15 14 -12 83 -68 178 l-56 93 38 42 c55 60 82 108 114 200 18 53 35 84 47
88 10 4 78 13 150 20 84 8 132 17 132 24 0 23 -73 96 -156 156 -74 53 -85 65
-80 85 12 45 26 211 26 303 l0 93 55 60 c30 32 55 67 55 77 0 11 -23 28 -69
51 l-69 33 5 73 c4 51 0 101 -13 164 -17 88 -17 93 0 164 25 99 18 138 -36
218 -37 53 -46 76 -52 127 -4 35 -11 73 -16 86 -5 13 -49 51 -98 84 -87 60
-130 106 -151 164 -28 74 -132 197 -167 197 -25 0 -62 -99 -89 -230 -13 -68
-29 -128 -35 -134 -6 -6 -52 -14 -103 -17 -51 -4 -135 -10 -187 -14 -74 -6
-109 -4 -158 9 -35 9 -92 20 -128 23 -88 8 -94 18 -94 150 0 127 -13 191 -48
233 l-28 33 -41 -49z m39 -227 c-4 -110 -3 -118 23 -165 l26 -49 -23 -39 -23
-39 25 18 c39 27 83 45 97 40 22 -9 -7 -44 -68 -82 -43 -26 -48 -32 -24 -26
16 3 62 22 102 40 56 26 73 38 73 54 0 25 11 26 51 5 30 -15 30 -16 12 -36
-10 -12 -54 -45 -98 -74 -84 -56 -162 -121 -154 -129 3 -2 41 19 85 47 43 28
97 59 119 69 49 22 145 26 145 5 0 -26 -39 -63 -80 -75 -42 -13 -122 -77 -142
-115 -7 -13 5 -6 31 17 43 39 102 69 159 82 30 6 32 5 32 -22 0 -22 -15 -44
-65 -93 -71 -70 -81 -89 -35 -65 16 8 31 15 33 15 3 0 7 -23 9 -51 8 -78 28
-87 28 -12 0 39 7 78 20 108 13 29 20 69 20 108 0 62 12 133 25 145 10 10 35
-28 35 -52 1 -32 42 -115 47 -93 3 12 15 17 42 17 41 0 89 -27 151 -84 79 -74
127 -90 54 -18 -27 26 -60 62 -74 80 -21 29 -33 35 -83 41 -67 9 -112 38 -112
72 0 13 -6 34 -13 46 -19 34 -15 43 23 43 44 0 81 -17 100 -47 14 -20 14 -23
0 -23 -26 0 -17 -19 13 -26 98 -22 109 -27 167 -84 50 -48 96 -78 170 -107 15
-6 -72 72 -135 121 -30 24 -82 57 -115 74 -55 27 -105 76 -105 101 0 15 44 24
70 16 12 -4 58 -36 101 -72 73 -59 131 -93 159 -93 6 0 -2 11 -17 25 -23 20
-26 26 -13 34 12 8 11 11 -5 17 -61 22 -122 53 -134 67 -12 15 -9 17 33 17 30
0 46 4 46 13 0 6 14 32 30 57 28 43 30 50 30 148 0 82 3 102 14 102 20 0 46
-28 46 -49 0 -9 6 -39 14 -66 58 -208 62 -216 145 -310 30 -33 32 -40 18 -43
-10 -2 -32 1 -50 7 l-31 11 34 -35 c19 -19 32 -35 29 -35 -2 0 -19 4 -37 9
-17 5 -32 7 -32 3 0 -4 29 -40 64 -80 35 -40 70 -86 76 -103 9 -22 16 -27 25
-19 7 6 20 8 29 4 10 -4 18 0 22 10 3 9 17 16 31 16 23 0 24 -1 18 -57 -5 -42
-1 -82 14 -146 29 -121 27 -150 -14 -236 -33 -68 -46 -131 -27 -131 5 0 14 10
19 23 11 22 11 22 23 -8 38 -98 60 -273 46 -369 -7 -47 -48 -108 -62 -93 -5 4
0 29 10 55 10 26 20 59 23 73 7 37 -14 104 -41 130 -30 29 -108 59 -135 52
-33 -9 -25 -21 20 -28 29 -5 38 -10 28 -16 -8 -5 -24 -9 -36 -9 -43 0 -23 -17
27 -24 70 -9 110 -45 110 -97 0 -22 -11 -61 -25 -89 -27 -54 -31 -96 -14 -145
25 -68 -26 -165 -86 -165 -25 0 -27 3 -21 27 8 32 31 53 60 53 19 0 19 1 -2
23 -17 18 -19 26 -10 35 6 6 9 14 7 17 -3 2 -19 -10 -37 -28 -22 -22 -36 -52
-47 -97 -9 -36 -24 -72 -32 -80 -25 -25 -11 85 19 147 14 29 23 53 21 53 -3 0
-16 -9 -30 -20 -37 -29 -43 -25 -43 29 0 62 31 102 96 127 49 19 44 34 -11 34
-35 0 -57 -12 -53 -29 2 -6 -9 -19 -23 -28 -26 -16 -27 -15 -64 23 -20 21 -34
31 -31 22 3 -10 8 -40 12 -68 4 -30 12 -50 19 -50 23 0 39 -100 38 -235 l-1
-130 -45 -41 c-25 -22 -67 -49 -93 -59 -43 -16 -48 -17 -59 -2 -7 9 -14 14
-17 11 -11 -10 -185 18 -252 41 -89 31 -121 61 -121 115 0 53 21 74 34 34 25
-70 34 -78 116 -106 86 -28 185 -45 185 -31 0 4 -35 16 -77 26 -85 19 -156 54
-161 78 -3 14 4 14 60 3 60 -13 187 -19 176 -9 -2 3 -46 13 -96 24 -92 18
-148 44 -137 61 4 6 16 10 29 10 35 0 37 10 8 36 l-27 24 45 40 c58 51 75 52
67 3 l-6 -36 35 34 c37 35 80 107 70 117 -3 3 -16 -4 -29 -16 -30 -28 -37 -28
-37 3 0 18 -4 23 -15 19 -18 -7 -18 -5 0 71 8 32 12 61 10 63 -2 2 -14 -4 -28
-13 -23 -15 -28 -15 -64 0 -21 9 -67 18 -103 20 l-65 5 70 -19 c94 -25 107
-31 103 -49 -4 -19 -37 -30 -98 -31 -51 -1 -76 11 -65 29 6 10 -15 12 -93 8
-111 -4 -135 -16 -147 -69 -8 -36 -25 -38 -25 -4 0 44 28 85 73 105 l42 19
-41 0 c-53 1 -87 -25 -109 -84 -17 -42 -17 -45 3 -77 25 -39 58 -62 75 -51 7
4 32 8 57 8 41 0 45 2 45 24 0 35 -29 50 -54 27 -11 -10 -25 -15 -30 -11 -34
21 20 72 65 61 27 -7 54 -56 54 -101 0 -41 19 -29 31 20 18 69 33 44 25 -42
-3 -41 -8 -79 -11 -83 -5 -9 -119 34 -140 52 -16 14 -25 9 -25 -13 0 -14 -5
-19 -14 -16 -26 10 -86 19 -86 13 0 -12 77 -44 135 -56 55 -11 58 -13 40 -27
-65 -47 -65 -44 -5 -39 30 2 64 7 76 10 19 7 22 3 28 -33 8 -50 -13 -96 -47
-105 -12 -3 -91 -8 -175 -12 -129 -6 -160 -11 -200 -30 -41 -20 -44 -23 -20
-23 36 -1 45 -18 15 -32 -47 -21 -140 48 -187 141 -11 22 -39 107 -61 188 -23
81 -44 154 -46 164 -3 10 7 25 26 39 38 28 40 41 4 33 -37 -9 -67 -37 -88 -84
-17 -38 -17 -39 9 -73 14 -18 26 -37 26 -40 0 -16 -51 -5 -70 15 -24 26 -25
51 -5 108 8 23 15 59 15 79 0 25 11 53 35 89 32 47 34 52 15 52 -37 0 -97 -31
-109 -56 -14 -32 -14 -34 3 -34 23 0 27 -15 15 -49 l-11 -32 -23 21 c-60 56
-88 204 -66 336 12 64 47 164 59 164 2 0 11 -8 18 -17 12 -17 13 -17 14 -1 0
10 -11 52 -25 95 -30 94 -31 156 -5 254 11 41 20 84 20 97 0 13 7 36 15 52 17
33 11 38 -16 14 -16 -14 -18 -14 -27 3 -6 10 -13 34 -17 53 -6 31 0 44 46 110
29 41 71 98 94 125 44 52 70 94 62 101 -2 2 -12 -5 -22 -16 -20 -22 -35 -26
-35 -9 0 17 57 67 145 125 44 29 89 67 99 84 10 17 20 29 23 26 12 -12 -11
-66 -49 -116 -23 -30 -57 -80 -77 -110 -34 -52 -36 -54 -39 -27 -2 15 -6 27
-10 27 -10 0 -135 -191 -129 -196 3 -3 23 4 46 16 56 28 56 4 -1 -43 l-41 -35
31 -16 c31 -16 32 -16 69 17 21 18 67 54 104 79 62 44 99 78 85 78 -4 0 -40
-18 -81 -41 -41 -22 -80 -39 -86 -37 -6 2 16 34 49 71 86 97 148 229 162 343
12 93 24 128 43 121 9 -3 11 -37 9 -120z m1018 -112 c23 -40 45 -62 78 -81
108 -61 109 -63 120 -131 8 -49 22 -80 62 -139 28 -42 48 -79 45 -82 -3 -3
-11 0 -17 6 -16 16 -28 15 -28 -3 0 -33 -97 -6 -106 30 -7 29 2 46 21 38 24
-9 17 7 -12 31 l-27 21 28 5 28 5 -56 58 c-42 44 -56 65 -56 87 0 22 -14 45
-50 86 -46 50 -70 89 -70 115 0 18 9 8 40 -46z m-660 -179 c-21 -23 -75 -44
-86 -34 -2 3 7 17 20 31 17 19 35 27 57 27 l32 0 -23 -24z m1068 -855 c8 -5 3
-14 -19 -30 -34 -26 -49 -18 -49 27 0 19 4 22 28 16 15 -4 33 -10 40 -13z
m-1978 -52 c0 -18 -2 -19 -15 -9 -8 7 -15 16 -15 21 0 5 7 9 15 9 9 0 15 -9
15 -21z m1181 -490 c-18 -53 -83 -127 -135 -154 -27 -13 -51 -23 -54 -21 -9 9
12 29 45 42 l34 15 -30 28 c-36 34 -39 66 -9 98 26 27 64 30 91 6 18 -17 20
-17 40 11 24 33 34 20 18 -25z m769 -134 l55 -30 -74 -3 c-40 -2 -76 -1 -78 2
-6 6 29 67 37 64 3 -2 30 -17 60 -33z m-1837 -6 c22 -18 37 -39 37 -53 0 -20
-7 -23 -111 -35 -61 -7 -113 -11 -115 -8 -7 7 123 127 138 127 7 0 30 -14 51
-31z m204 -268 c15 -20 40 -51 57 -68 63 -68 -29 -20 -107 55 -85 84 -118 185
-65 205 8 3 27 -25 51 -75 21 -44 50 -97 64 -117z m1483 189 c0 -20 -52 -145
-82 -198 -40 -70 -129 -159 -197 -195 -29 -16 -54 -27 -57 -25 -2 3 28 27 67
54 62 42 155 141 144 152 -2 2 -21 -8 -42 -22 -49 -34 -54 -17 -18 61 37 82
51 95 99 91 39 -2 39 -2 53 45 7 26 18 47 23 47 6 0 10 -4 10 -10z m-939 -263
c22 -15 33 -30 31 -42 -5 -24 15 -35 66 -35 48 0 56 15 12 24 -38 7 -38 18 1
50 25 22 41 26 89 26 49 0 61 -3 70 -20 6 -11 17 -20 25 -20 54 0 -51 -62
-145 -86 -53 -13 -73 -14 -124 -4 -125 23 -156 44 -156 102 0 27 2 28 49 28
34 0 58 -7 82 -23z m-161 -101 c0 -14 -37 -29 -52 -20 -4 3 -8 26 -8 52 l1 47
29 -33 c17 -18 30 -38 30 -46z m550 47 c0 -22 -22 -83 -30 -83 -19 0 -40 13
-40 25 0 19 39 65 56 65 8 0 14 -3 14 -7z m66 -158 c-36 -46 -82 -60 -149 -44
-64 15 -101 14 -152 -5 l-40 -15 68 0 c37 -1 67 -5 67 -10 0 -15 -98 -34 -153
-29 -35 3 -66 14 -95 33 -47 31 -46 36 13 56 l40 14 -33 3 c-21 2 -54 -7 -96
-27 -86 -42 -116 -41 -165 8 -34 34 -61 94 -49 107 3 2 19 -17 36 -41 36 -52
69 -70 106 -61 32 8 33 22 4 30 l-23 6 25 15 c14 8 38 14 54 15 16 0 58 5 93
12 72 13 191 1 277 -28 46 -16 47 -17 29 -37 -18 -20 -18 -20 25 -13 57 9 83
27 113 78 l24 43 3 -38 c3 -29 -3 -47 -22 -72z m299 47 c58 -70 98 -132 91
-139 -8 -8 -81 10 -134 33 -35 16 -36 17 -14 23 l24 6 -21 19 c-25 23 -27 53
-4 78 22 24 23 24 58 -20z m-1028 -132 c31 24 42 25 72 4 l23 -16 -29 -30
c-32 -35 -152 -122 -158 -116 -7 6 25 120 43 153 16 28 17 29 20 7 l3 -22 26
20z"></path>
<path class="node" id="node2" d="M715 2113 c-78 -41 -184 -158 -162 -180 3 -3 49 38 102 92 53 54 94
99 93 100 -2 2 -16 -4 -33 -12z"></path>
<path class="node" id="node3" d="M1800 2075 c0 -11 14 -47 30 -79 17 -33 29 -60 27 -62 -1 -1 -29 15
-62 37 -33 21 -64 39 -69 39 -6 0 22 -31 61 -69 67 -65 93 -109 93 -160 0 -34
-153 31 -236 99 -27 22 -58 40 -69 40 -20 0 -138 -70 -149 -89 -8 -12 13 -111
24 -111 4 0 11 11 14 25 3 13 23 43 45 65 32 33 44 40 77 40 40 0 124 -32 124
-47 -1 -25 -24 -37 -87 -44 -51 -7 -72 -14 -85 -30 -23 -28 -25 -57 -3 -39 23
19 30 4 17 -33 -7 -19 -12 -43 -12 -55 0 -14 -6 -22 -17 -22 -13 0 -14 -3 -5
-12 16 -16 147 5 181 29 14 11 36 39 49 63 21 43 22 43 22 15 0 -47 -33 -90
-89 -116 -27 -13 -50 -28 -51 -33 0 -12 80 -2 115 15 18 9 40 34 57 67 28 54
28 54 38 27 5 -14 10 -32 10 -40 0 -57 48 23 69 116 15 63 13 174 -3 212 -22
51 -116 175 -116 152z m-90 -400 c0 -28 -39 -56 -72 -53 -37 4 -61 34 -38 48
22 14 40 12 40 -5 0 -21 13 -19 35 5 22 24 35 26 35 5z"></path>
<path class="node" id="node4" d="M1360 1920 c-24 -33 -49 -60 -56 -60 -7 0 -15 22 -19 53 -6 40 -10
47 -16 32 -9 -24 -10 -240 0 -275 7 -24 7 -24 20 8 16 39 28 41 37 5 4 -15 36
-58 71 -95 68 -72 81 -105 38 -94 -14 4 -25 4 -25 1 0 -23 112 -165 131 -165
4 0 -2 17 -12 37 -22 44 -24 73 -5 73 33 0 142 -91 178 -148 30 -49 49 -55
120 -41 66 13 62 21 -14 34 -21 3 -38 10 -38 16 0 5 11 32 25 59 35 68 31 82
-10 38 -18 -21 -39 -38 -45 -38 -24 0 -171 88 -185 111 -4 5 7 9 24 9 51 0 43
15 -24 44 -81 35 -92 48 -71 78 23 32 21 35 -25 41 -65 9 -81 32 -87 124 -3
65 0 89 21 146 13 37 21 67 17 67 -3 0 -26 -27 -50 -60z"></path>
<path class="node" id="node5" d="M775 1909 c-83 -56 -168 -100 -188 -97 -18 2 -22 9 -21 36 2 44 -16
42 -66 -8 -52 -52 -58 -79 -29 -120 l24 -31 25 31 c30 37 40 38 40 5 0 -14 12
-54 26 -90 19 -48 34 -70 55 -80 40 -21 42 -19 19 25 -23 45 -16 49 32 20 44
-26 178 -29 178 -4 0 10 -6 14 -14 11 -9 -4 -15 5 -19 31 -3 20 -8 46 -13 57
-7 19 -7 19 13 3 27 -25 32 -23 24 9 -11 43 -50 64 -130 71 -39 4 -72 11 -72
15 0 5 17 22 37 38 68 54 119 37 189 -66 33 -48 41 -54 53 -41 8 8 15 36 16
67 l1 54 -53 3 c-50 3 -53 5 -72 43 -11 21 -21 39 -23 39 -1 0 -15 -9 -32 -21z
m-49 -227 c7 -10 19 -13 37 -8 31 7 36 -8 8 -24 -44 -23 -101 1 -101 42 0 15
5 18 22 12 13 -4 28 -14 34 -22z"></path>
<path class="node" id="node6" d="M1050 1817 c0 -22 -13 -63 -30 -96 l-29 -59 26 -17 c22 -15 25 -22
20 -58 -4 -30 -14 -49 -34 -65 -38 -31 -113 -75 -118 -70 -3 3 15 31 40 63 46
58 60 92 27 62 -24 -22 -32 -21 -32 3 0 28 -13 25 -39 -10 -12 -17 -61 -56
-109 -87 -119 -77 -128 -80 -151 -59 -18 17 -19 15 -26 -56 -4 -40 -14 -97
-22 -126 -8 -30 -13 -56 -10 -59 6 -5 146 167 147 180 0 5 -10 5 -22 1 -21 -6
-20 -4 7 26 27 30 111 77 121 68 2 -2 -8 -31 -21 -64 -14 -32 -25 -68 -25 -79
0 -16 6 -13 38 17 33 32 127 102 242 180 l40 28 0 75 c0 87 -17 215 -31 230
-5 5 -9 -6 -9 -28z"></path>
<path class="node" id="node7" d="M1186 1691 c-10 -16 2 -119 15 -126 11 -7 11 91 0 119 -6 15 -10 16
-15 7z"></path>
<path class="node" id="node8" d="M360 1399 c-30 -16 -62 -36 -70 -44 -12 -13 -12 -15 8 -15 22 0 22
-1 7 -37 -8 -20 -13 -38 -10 -41 2 -3 19 9 38 25 21 18 59 36 103 47 93 25
101 36 25 36 l-62 0 21 30 c28 39 12 39 -60 -1z"></path>
<path class="node" id="node9" d="M620 1019 c13 -44 27 -57 72 -70 34 -9 62 -6 47 4 -2 2 -26 21 -54
43 -73 59 -75 60 -65 23z"></path>
<path class="node" id="node10" d="M564 952 c5 -53 51 -172 67 -172 5 0 4 12 -1 26 -15 37 -13 57 5 50
20 -7 20 -7 -20 60 -56 95 -56 95 -51 36z"></path>
<path class="node" id="node11" d="M1632 959 c-13 -23 -22 -42 -20 -44 10 -10 53 24 56 44 6 41 -12 41
-36 0z"></path>
<path class="node" id="node12" d="M1267 1033 c-4 -3 -7 -19 -7 -35 0 -26 3 -28 41 -28 38 0 41 2 35 23
-3 12 -6 28 -6 35 0 12 -51 17 -63 5z"></path>
</g>
<g transform="translate(0.000000,300.000000) scale(0.100000,-0.100000)" fill="#856457" stroke="none">


<path class="node" id="node15" d="M741 2832 c-5 -10 -15 -58 -21 -106 -14 -114 -76 -246 -162 -343 -33
-37 -55 -69 -49 -71 6 -2 45 15 86 37 41 23 77 41 81 41 14 0 -23 -34 -85 -78
-37 -25 -83 -61 -104 -79 -37 -33 -38 -33 -69 -17 l-31 16 41 35 c57 47 57 71
1 43 -23 -12 -43 -19 -46 -16 -6 5 119 196 129 196 4 0 8 -12 10 -27 3 -27 5
-25 39 27 20 30 54 80 77 110 38 50 61 104 49 116 -3 3 -13 -9 -23 -26 -10
-17 -55 -55 -99 -84 -88 -58 -145 -108 -145 -125 0 -17 15 -13 35 9 10 11 20
18 22 16 8 -7 -18 -49 -62 -101 -23 -27 -65 -84 -94 -125 -46 -66 -52 -79 -46
-110 4 -19 11 -43 17 -53 9 -17 11 -17 27 -3 27 24 33 19 16 -14 -8 -16 -15
-39 -15 -52 0 -13 -9 -56 -20 -97 -26 -98 -25 -160 5 -254 14 -43 25 -85 25
-95 -1 -16 -2 -16 -14 1 -7 9 -16 17 -18 17 -12 0 -47 -100 -59 -164 -22 -132
6 -280 66 -336 l23 -21 11 32 c12 34 8 49 -15 49 -17 0 -17 2 -3 34 12 25 72
56 109 56 19 0 17 -5 -15 -52 -24 -36 -35 -64 -35 -89 0 -20 -7 -56 -15 -79
-20 -57 -19 -82 5 -108 19 -20 70 -31 70 -15 0 3 -12 22 -26 40 -26 34 -26 35
-9 73 21 47 51 75 88 84 36 8 34 -5 -4 -33 -19 -14 -29 -29 -26 -39 2 -10 23
-83 46 -164 22 -81 50 -166 61 -188 47 -93 140 -162 187 -141 30 14 21 31 -15
32 -24 0 -21 3 20 23 40 19 71 24 200 30 84 4 163 9 175 12 34 9 55 55 47 105
-6 36 -9 40 -28 33 -12 -3 -46 -8 -76 -10 -60 -5 -60 -8 5 39 18 14 15 16 -40
27 -58 12 -135 44 -135 56 0 6 60 -3 86 -13 9 -3 14 2 14 16 0 22 9 27 25 13
21 -18 135 -61 140 -52 3 4 8 42 11 83 8 86 -7 111 -25 42 -12 -49 -31 -61
-31 -20 0 45 -27 94 -54 101 -45 11 -99 -40 -65 -61 5 -4 19 1 30 11 25 23 54
8 54 -27 0 -22 -4 -24 -45 -24 -25 0 -50 -4 -57 -8 -17 -11 -50 12 -75 51 -20
32 -20 35 -3 77 22 59 56 85 109 84 l41 0 -42 -19 c-45 -20 -73 -61 -73 -105
0 -34 17 -32 25 4 12 53 36 65 147 69 78 4 99 2 93 -8 -11 -18 14 -30 65 -29
61 1 94 12 98 31 4 18 -9 24 -103 49 l-70 19 65 -5 c36 -2 82 -11 103 -20 36
-15 41 -15 64 0 14 9 26 15 28 13 2 -2 -2 -31 -10 -63 -18 -76 -18 -78 0 -71
11 4 15 -1 15 -19 0 -31 7 -31 37 -3 13 12 26 19 29 16 10 -10 -33 -82 -70
-117 l-35 -34 6 36 c8 49 -9 48 -67 -3 l-45 -40 27 -24 c29 -26 27 -36 -8 -36
-13 0 -25 -4 -29 -10 -11 -17 45 -43 137 -61 50 -11 94 -21 96 -24 11 -10
-116 -4 -176 9 -56 11 -63 11 -60 -3 5 -24 76 -59 161 -78 42 -10 77 -22 77
-26 0 -14 -99 3 -185 31 -82 28 -91 36 -116 106 -13 40 -34 19 -34 -34 0 -54
32 -84 121 -115 67 -23 241 -51 252 -41 3 3 10 -2 17 -11 11 -15 16 -14 59 2
26 10 68 37 93 59 l45 41 1 130 c1 135 -15 235 -38 235 -7 0 -15 20 -19 50 -4
28 -9 58 -12 68 -3 9 11 -1 31 -22 37 -38 38 -39 64 -23 14 9 25 22 23 28 -4
17 18 29 53 29 55 0 60 -15 11 -34 -65 -25 -96 -65 -96 -127 0 -54 6 -58 43
-29 14 11 27 20 30 20 2 0 -7 -24 -21 -53 -30 -62 -44 -172 -19 -147 8 8 23
44 32 80 11 45 25 75 47 97 18 18 34 30 37 28 2 -3 -1 -11 -7 -17 -9 -9 -7
-17 10 -35 21 -22 21 -23 2 -23 -29 0 -52 -21 -60 -53 -6 -24 -4 -27 21 -27
60 0 111 97 86 165 -17 49 -13 91 14 145 14 28 25 67 25 89 0 52 -40 88 -110
97 -50 7 -70 24 -27 24 12 0 28 4 36 9 10 6 1 11 -28 16 -45 7 -53 19 -20 28
27 7 105 -23 135 -52 27 -26 48 -93 41 -130 -3 -14 -13 -47 -23 -73 -10 -26
-15 -51 -10 -55 14 -15 55 46 62 93 14 96 -8 271 -46 369 -12 30 -12 30 -23 8
-5 -13 -14 -23 -19 -23 -19 0 -6 63 27 131 41 86 43 115 14 236 -15 64 -19
104 -14 146 6 56 5 57 -18 57 -14 0 -28 -7 -31 -16 -4 -10 -12 -14 -22 -10 -9
4 -22 2 -29 -4 -9 -8 -16 -3 -25 19 -6 17 -41 63 -76 103 -35 40 -64 76 -64
80 0 4 15 2 32 -3 18 -5 35 -9 37 -9 3 0 -10 16 -29 35 l-34 35 31 -11 c18 -6
40 -9 50 -7 14 3 12 10 -18 43 -83 94 -87 102 -145 310 -8 27 -14 57 -14 66 0
21 -26 49 -46 49 -11 0 -14 -20 -14 -102 0 -98 -2 -105 -30 -148 -16 -25 -30
-51 -30 -57 0 -9 -16 -13 -46 -13 -42 0 -45 -2 -33 -17 12 -14 73 -45 134 -67
16 -6 17 -9 5 -17 -13 -8 -10 -14 13 -34 15 -14 23 -25 17 -25 -28 0 -86 34
-159 93 -43 36 -89 68 -101 72 -26 8 -70 -1 -70 -16 0 -25 50 -74 105 -101 33
-17 85 -50 115 -74 63 -49 150 -127 135 -121 -74 29 -120 59 -170 107 -58 57
-69 62 -167 84 -30 7 -39 26 -13 26 14 0 14 3 0 23 -19 30 -56 47 -100 47 -38
0 -42 -9 -23 -43 7 -12 13 -33 13 -46 0 -34 45 -63 112 -72 50 -6 62 -12 83
-41 14 -18 47 -54 74 -80 73 -72 25 -56 -54 18 -62 57 -110 84 -151 84 -27 0
-39 -5 -42 -17 -5 -22 -46 61 -47 93 0 24 -25 62 -35 52 -13 -12 -25 -83 -25
-145 0 -39 -7 -79 -20 -108 -13 -30 -20 -69 -20 -108 0 -75 -20 -66 -28 12 -2
28 -6 51 -9 51 -2 0 -17 -7 -33 -15 -46 -24 -36 -5 35 65 50 49 65 71 65 93 0
27 -2 28 -32 22 -57 -13 -116 -43 -159 -82 -26 -23 -38 -30 -31 -17 20 38 100
102 142 115 41 12 80 49 80 75 0 21 -96 17 -145 -5 -22 -10 -76 -41 -119 -69
-44 -28 -82 -49 -85 -47 -8 8 70 73 154 129 44 29 88 62 98 74 18 20 18 21
-12 36 -40 21 -51 20 -51 -5 0 -16 -17 -28 -73 -54 -40 -18 -86 -37 -102 -40
-24 -6 -19 0 24 26 61 38 90 73 68 82 -14 5 -58 -13 -97 -40 l-25 -18 23 39
23 39 -26 49 c-26 47 -27 55 -23 165 2 83 0 117 -9 120 -6 2 -16 -4 -22 -15z
m-86 -807 c-53 -54 -99 -95 -102 -92 -14 14 23 71 76 116 51 44 112 83 119 76
1 -1 -40 -46 -93 -100z m1261 -102 c16 -38 18 -149 3 -212 -21 -93 -69 -173
-69 -116 0 8 -5 26 -10 40 -10 27 -10 27 -38 -27 -17 -33 -39 -58 -57 -67 -35
-17 -115 -27 -115 -15 1 5 24 20 51 33 56 26 89 69 89 116 0 28 -1 28 -22 -15
-13 -24 -35 -52 -49 -63 -34 -24 -165 -45 -181 -29 -9 9 -8 12 5 12 11 0 17 8
17 22 0 12 5 36 12 55 13 37 6 52 -17 33 -22 -18 -20 11 3 39 13 16 34 23 85
30 63 7 86 19 87 44 0 15 -84 47 -124 47 -33 0 -45 -7 -77 -40 -22 -22 -42
-52 -45 -65 -3 -14 -10 -25 -14 -25 -11 0 -32 99 -24 111 11 19 129 89 149 89
11 0 42 -18 69 -40 83 -68 236 -133 236 -99 0 51 -26 95 -93 160 -39 38 -67
69 -61 69 5 0 36 -18 69 -39 33 -22 61 -38 62 -37 2 2 -10 29 -27 62 -48 94
-37 109 21 29 28 -39 58 -84 65 -102z m-523 -10 c-21 -57 -24 -81 -21 -146 6
-92 22 -115 87 -124 46 -6 48 -9 25 -41 -21 -30 -10 -43 71 -78 67 -29 75 -44
24 -44 -17 0 -28 -4 -24 -9 14 -23 161 -111 185 -111 6 0 27 17 45 38 41 44
45 30 10 -38 -14 -27 -25 -54 -25 -59 0 -6 17 -13 38 -16 76 -13 80 -21 14
-34 -71 -14 -90 -8 -120 41 -36 57 -145 148 -178 148 -19 0 -17 -29 5 -73 10
-20 16 -37 12 -37 -19 0 -131 142 -131 165 0 3 11 3 25 -1 43 -11 30 22 -38
94 -35 37 -67 80 -71 95 -9 36 -21 34 -37 -5 -13 -32 -13 -32 -20 -8 -10 35
-9 251 0 275 6 15 10 8 16 -32 4 -31 12 -53 19 -53 7 0 32 27 56 60 24 33 47
60 50 60 4 0 -4 -30 -17 -67z m-563 -22 c19 -38 22 -40 72 -43 l53 -3 -1 -54
c-1 -31 -8 -59 -16 -67 -12 -13 -20 -7 -53 41 -70 103 -121 120 -189 66 -20
-16 -37 -33 -37 -38 0 -4 33 -11 72 -15 80 -7 119 -28 130 -71 8 -32 3 -34
-24 -9 -20 16 -20 16 -13 -3 5 -11 10 -37 13 -57 4 -26 10 -35 19 -31 8 3 14
-1 14 -11 0 -25 -134 -22 -178 4 -48 29 -55 25 -32 -20 23 -44 21 -46 -19 -25
-21 10 -36 32 -55 80 -14 36 -26 76 -26 90 0 33 -10 32 -40 -5 l-25 -31 -24
31 c-29 41 -23 68 29 120 50 50 68 52 66 8 -1 -27 3 -34 21 -36 20 -3 105 41
188 97 17 12 31 21 32 21 2 0 12 -18 23 -39z m249 -128 c6 -39 11 -106 11
-148 l0 -75 -40 -28 c-115 -78 -209 -148 -242 -180 -32 -30 -38 -33 -38 -17 0
11 11 47 25 79 13 33 23 62 21 64 -10 9 -94 -38 -121 -68 -27 -30 -28 -32 -7
-26 12 4 22 4 22 -1 -1 -13 -141 -185 -147 -180 -3 3 2 29 10 59 8 29 18 86
22 126 7 71 8 73 26 56 23 -21 32 -18 151 59 48 31 97 70 109 87 26 35 39 38
39 10 0 -24 8 -25 32 -3 33 30 19 -4 -27 -62 -25 -32 -43 -60 -40 -63 5 -5 80
39 118 70 20 16 30 35 34 65 5 36 2 43 -20 58 l-26 17 29 59 c17 33 30 74 30
96 0 58 17 27 29 -54z m130 -151 c1 -30 -3 -51 -8 -47 -13 7 -25 110 -15 126
12 19 22 -17 23 -79z m-789 -212 l-21 -30 62 0 c76 0 68 -11 -25 -36 -44 -11
-82 -29 -103 -47 -19 -16 -36 -28 -38 -25 -3 3 2 21 10 41 15 36 15 37 -7 37
-20 0 -20 2 -8 15 20 19 122 75 138 75 9 0 7 -9 -8 -30z m265 -404 c28 -22 52
-41 54 -43 15 -10 -13 -13 -47 -4 -45 13 -59 26 -72 70 -10 37 -8 36 65 -23z
m-70 -80 c40 -67 40 -67 20 -60 -18 7 -20 -13 -5 -50 5 -14 6 -26 1 -26 -16 0
-62 119 -67 172 -5 59 -5 59 51 -36z m1053 43 c-3 -20 -46 -54 -56 -44 -2 2 7
21 20 44 24 41 42 41 36 0z"></path>
<path class="node" id="node16" d="M1675 1670 c-22 -24 -35 -26 -35 -5 0 17 -18 19 -40 5 -23 -14 1 -44
38 -48 33 -3 72 25 72 53 0 21 -13 19 -35 -5z"></path>
<path class="node" id="node17" d="M670 1692 c0 -41 57 -65 101 -42 28 16 23 31 -8 24 -18 -5 -30 -2
-37 8 -6 8 -21 18 -34 22 -17 6 -22 3 -22 -12z"></path>
<path class="node" id="node18" d="M1750 2661 c0 -26 24 -65 70 -115 36 -41 50 -64 50 -86 0 -22 14 -43
56 -87 l56 -58 -28 -5 -28 -5 27 -21 c29 -24 36 -40 12 -31 -19 8 -28 -9 -21
-38 9 -36 106 -63 106 -30 0 18 12 19 28 3 6 -6 14 -9 17 -6 3 3 -17 40 -45
82 -40 59 -54 90 -62 139 -11 68 -12 70 -120 131 -33 19 -55 41 -78 81 -31 54
-40 64 -40 46z"></path>
<path class="node" id="node19" d="M1064 2433 c-13 -14 -22 -28 -20 -31 11 -10 65 11 86 34 l23 24 -32
0 c-22 0 -40 -8 -57 -27z"></path>
<path class="node" id="node20" d="M2130 1578 c0 -45 15 -53 49 -27 33 24 30 31 -21 43 -24 6 -28 3 -28
-16z"></path>
<path class="node" id="node21" d="M190 1541 c0 -5 7 -14 15 -21 13 -10 15 -9 15 9 0 12 -6 21 -15 21
-8 0 -15 -4 -15 -9z"></path>
<path class="node" id="node22" d="M1383 1064 c-20 -28 -22 -28 -40 -11 -27 24 -65 21 -91 -6 -30 -32
-27 -64 9 -98 l30 -28 -34 -15 c-33 -13 -54 -33 -45 -42 3 -2 27 8 54 21 52
27 117 101 135 154 16 45 6 58 -18 25z m-53 -36 c0 -7 3 -23 6 -35 6 -21 3
-23 -35 -23 -38 0 -41 2 -41 28 0 16 3 32 7 35 12 12 63 7 63 -5z"></path>
<path class="node" id="node23" d="M2086 909 c-10 -17 -16 -33 -13 -35 2 -3 38 -4 78 -2 l74 3 -55 30
c-30 16 -57 31 -60 33 -3 1 -14 -12 -24 -29z"></path>
<path class="node" id="node24" d="M204 868 c-35 -34 -62 -63 -60 -65 2 -3 54 1 115 8 104 12 111 15
111 35 0 24 -64 84 -88 84 -8 0 -43 -28 -78 -62z"></path>
<path class="node" id="node25" d="M422 823 c-53 -20 -20 -121 65 -205 78 -75 170 -123 107 -55 -51 55
-82 101 -121 185 -24 50 -43 78 -51 75z"></path>
<path class="node" id="node26" d="M1987 783 c-14 -47 -14 -47 -53 -45 -48 4 -62 -9 -99 -91 -36 -78
-31 -95 18 -61 21 14 40 24 42 22 11 -11 -82 -110 -144 -152 -39 -27 -69 -51
-67 -54 11 -10 114 58 166 109 63 62 107 133 145 233 27 73 30 86 15 86 -5 0
-16 -21 -23 -47z"></path>

<path class="node" id="node28" d="M950 552 c0 -58 31 -79 156 -102 51 -10 71 -9 124 4 94 24 199 86
145 86 -8 0 -19 9 -25 20 -9 17 -21 20 -70 20 -48 0 -64 -4 -89 -26 -39 -32
-39 -43 -1 -50 44 -9 36 -24 -12 -24 -51 0 -71 11 -66 35 5 30 -56 65 -113 65
-47 0 -49 -1 -49 -28z"></path>
<path class="node" id="node29" d="M860 488 c0 -52 6 -60 38 -51 30 7 28 27 -8 65 l-29 33 -1 -47z"></path>
<path class="node" id="node30" d="M1421 484 c-12 -15 -21 -32 -21 -39 0 -12 21 -25 40 -25 8 0 30 61
30 83 0 17 -30 5 -49 -19z"></path>
<path class="node" id="node31" d="M1531 412 c-30 -51 -56 -69 -113 -78 -43 -7 -43 -7 -25 13 18 20 17
21 -29 37 -86 29 -205 41 -277 28 -35 -7 -77 -12 -93 -12 -16 -1 -40 -7 -54
-15 l-25 -15 23 -6 c29 -8 28 -22 -4 -30 -37 -9 -70 9 -106 61 -17 24 -33 43
-36 41 -12 -13 15 -73 49 -107 49 -49 79 -50 165 -8 42 20 75 29 96 27 l33 -3
-40 -14 c-59 -20 -60 -25 -13 -56 29 -19 60 -30 95 -33 55 -5 153 14 153 29 0
5 -30 9 -67 10 l-68 0 40 15 c51 19 88 20 152 5 67 -16 113 -2 149 44 19 25
25 43 22 72 l-3 38 -24 -43z"></path>
<path class="node" id="node32" d="M1777 412 c-23 -25 -21 -55 4 -78 l21 -19 -24 -6 c-22 -6 -21 -7 14
-23 53 -23 126 -41 134 -33 10 10 -110 176 -127 177 -3 0 -13 -8 -22 -18z"></path>
<path class="node" id="node33" d="M758 255 c-18 -33 -50 -147 -43 -153 6 -6 126 81 158 116 l29 30 -23
16 c-30 21 -41 20 -72 -4 l-26 -20 -3 22 c-3 22 -4 21 -20 -7z"></path>
</g>
</svg>