<!--?xml version="1.0" standalone="no"?-->

<svg version="1.0" xmlns="http://www.w3.org/2000/svg" width="300.000000pt" height="300.000000pt" viewBox="0 0 300.000000 300.000000" preserveAspectRatio="xMidYMid meet">
<g transform="translate(0.000000,300.000000) scale(0.100000,-0.100000)" fill="#282828" stroke="none">
<path class="node" id="node1" d="M1351 2756 c-18 -6 -50 -26 -70 -42 -28 -24 -50 -33 -96 -38 -33 -4
-90 -16 -128 -28 -66 -21 -69 -21 -156 -5 -122 24 -293 23 -347 -2 -79 -36
-136 -181 -137 -346 -1 -99 15 -150 60 -197 30 -32 84 -52 116 -44 21 5 22 3
22 -87 0 -74 5 -103 24 -149 21 -53 22 -62 11 -108 -10 -40 -18 -54 -39 -63
-54 -24 -133 -79 -196 -138 -89 -84 -153 -183 -206 -317 l-9 -23 -40 32 c-114
92 -205 -20 -136 -166 13 -27 47 -76 76 -108 l53 -59 -18 -56 c-26 -84 -31
-181 -11 -220 23 -44 54 -57 186 -76 161 -23 313 -21 368 4 23 10 42 24 42 30
0 5 14 10 32 10 23 0 39 -8 57 -30 22 -26 37 -33 93 -41 106 -16 472 7 526 34
14 6 34 25 46 40 37 50 22 156 -33 234 -25 35 -29 47 -21 70 37 119 89 440 90
560 l0 51 109 0 c130 0 205 14 287 54 116 56 192 154 213 275 15 78 6 133 -33
206 -30 59 -48 78 -106 110 l-32 17 22 36 c20 31 22 46 18 117 -2 45 -9 91
-15 102 -5 11 -23 46 -39 79 -37 74 -98 145 -141 163 -38 15 -88 6 -152 -28
-20 -10 -40 -19 -44 -19 -21 0 -67 43 -67 63 0 32 -48 94 -82 106 -38 13 -54
13 -97 -3z m92 -58 c-1 -23 2 -28 23 -28 15 0 24 -6 24 -16 0 -13 -7 -15 -39
-9 -22 4 -48 2 -58 -4 -20 -11 -22 -10 61 -30 61 -15 145 -70 196 -130 22 -25
65 -97 95 -159 31 -61 71 -128 90 -147 19 -19 35 -36 35 -38 0 -1 -10 -3 -22
-4 -56 -4 -110 -27 -138 -60 -39 -44 -38 -68 5 -108 34 -32 100 -55 160 -55
25 0 25 -1 25 -87 -1 -149 -31 -227 -111 -280 -38 -25 -47 -26 -157 -26 -98
-1 -127 3 -182 23 -132 48 -210 115 -228 198 -9 38 -8 42 8 42 32 0 31 17 0
30 -25 10 -34 10 -55 -4 -27 -18 -34 -39 -11 -30 25 10 25 -64 0 -116 -74
-153 -94 -294 -51 -347 13 -15 31 -53 41 -84 21 -70 46 -92 113 -97 49 -4 55
-2 84 29 25 26 30 40 27 67 -4 28 0 35 19 43 21 8 23 14 23 89 0 88 13 104 31
38 18 -67 -14 -301 -72 -529 -11 -43 -10 -48 11 -70 37 -39 60 -99 60 -161 0
-48 -4 -59 -22 -72 -37 -26 -43 -20 -43 46 0 38 -4 63 -12 65 -8 3 -10 -11 -6
-49 6 -70 -6 -85 -78 -90 l-57 -4 -4 66 c-4 55 -11 76 -43 125 -30 47 -35 62
-26 75 37 50 71 138 71 185 0 36 -3 46 -10 35 -5 -8 -10 -26 -10 -40 0 -29
-49 -132 -81 -172 l-21 -26 25 -34 c43 -58 67 -115 67 -163 0 -40 -3 -47 -26
-55 -14 -6 -27 -10 -29 -10 -2 0 -3 25 -2 54 1 33 -3 60 -10 67 -11 10 -13 2
-13 -42 0 -82 0 -82 -131 -77 -157 6 -159 7 -159 116 0 71 -4 92 -20 112 -11
14 -20 31 -20 38 0 6 -4 12 -10 12 -15 0 -12 -44 5 -66 9 -11 14 -42 15 -76
l0 -58 -33 0 c-30 0 -34 4 -50 51 -15 41 -27 56 -62 77 -25 15 -45 30 -45 33
0 4 16 30 35 59 161 239 139 456 -49 484 -85 13 -173 -20 -201 -74 -20 -39 -7
-44 21 -10 70 83 229 74 285 -16 19 -31 21 -46 17 -114 -5 -85 -30 -147 -104
-261 l-36 -56 -68 5 c-44 3 -70 1 -74 -7 -5 -7 3 -11 22 -11 44 0 163 -39 193
-64 15 -11 33 -40 39 -64 11 -37 11 -45 -5 -62 -26 -29 -45 -25 -45 9 0 16 -3
36 -6 45 -12 31 -22 15 -21 -31 l2 -48 -120 1 c-155 1 -287 20 -320 46 -22 17
-25 27 -25 78 0 33 8 83 19 112 11 29 22 89 25 133 24 309 176 564 404 681 68
34 73 39 83 81 l12 44 36 -34 c36 -35 79 -62 87 -55 2 2 -17 23 -41 47 -52 50
-86 107 -110 185 -30 96 -9 236 36 236 47 0 329 323 329 376 0 38 -16 28 -60
-36 -102 -150 -244 -294 -323 -328 -15 -7 -48 -12 -73 -12 -86 0 -119 70 -111
235 5 113 31 197 77 248 27 30 31 31 128 35 163 7 336 -24 370 -66 6 -9 12
-28 12 -44 0 -30 14 -38 24 -12 11 28 6 71 -9 84 -8 7 -15 16 -15 20 0 11 123
40 172 40 34 0 49 7 71 29 38 39 85 62 122 59 26 -3 30 -7 28 -30z m359 -114
c76 -53 168 -250 155 -331 -6 -36 -32 -83 -45 -83 -27 1 -33 18 -20 63 11 42
10 51 -10 91 -24 51 -50 71 -104 80 -24 4 -39 13 -43 26 -4 11 -11 20 -16 20
-5 0 -9 5 -9 10 0 14 103 13 117 -1 18 -18 27 28 13 62 -24 57 -138 62 -156 6
-6 -20 -7 -20 -25 4 -10 13 -19 27 -19 30 0 8 90 48 109 49 8 0 32 -12 53 -26z
m28 -234 c29 -31 45 -85 34 -114 -10 -25 -20 -19 -19 12 0 20 -5 28 -20 30
-17 2 -55 67 -55 95 0 17 34 5 60 -23z m144 -270 c32 -12 34 -36 4 -46 -65
-20 -198 -2 -198 27 0 26 140 40 194 19z m103 -137 c5 -16 7 -57 6 -93 -3
-111 -66 -212 -168 -270 -60 -34 -87 -40 -63 -12 48 54 81 181 75 296 l-2 50
39 8 c21 5 50 17 65 28 34 26 39 25 48 -7z m-839 -621 c6 -9 12 -28 12 -44 0
-15 5 -28 10 -28 6 0 10 16 10 35 0 76 61 47 75 -35 5 -30 2 -47 -10 -66 -14
-22 -22 -25 -67 -22 -63 4 -84 27 -96 111 -8 48 -6 59 6 66 19 11 43 4 60 -17z
m-1094 -158 c34 -26 46 -41 41 -52 -4 -10 -12 -54 -18 -99 -6 -46 -14 -83 -18
-83 -10 0 -65 74 -88 117 -26 52 -28 120 -3 139 25 20 35 17 86 -22z"></path>
<path class="node" id="node2" d="M1167 2570 c-14 -11 -29 -29 -32 -40 -8 -25 12 -63 28 -53 7 4 39 10
72 13 59 5 60 6 63 37 6 58 -77 85 -131 43z"></path>
<path class="node" id="node3" d="M1176 2395 c-40 -14 -46 -19 -71 -67 -44 -80 9 -190 98 -205 80 -13
147 52 147 140 0 104 -81 166 -174 132z m113 -47 c26 -27 31 -39 31 -81 0 -42
-5 -54 -34 -83 -53 -53 -116 -42 -151 26 -26 50 -19 98 19 136 46 46 91 47
135 2z"></path>
<path class="node" id="node4" d="M1234 2226 c-8 -21 3 -36 27 -36 15 0 20 6 17 22 -4 27 -35 37 -44
14z"></path>
<path class="node" id="node5" d="M2079 1025 c-15 -8 -29 -21 -33 -30 -3 -8 -17 -15 -33 -15 -16 0 -37
-6 -48 -14 -11 -7 -40 -16 -65 -20 -62 -9 -161 -43 -186 -64 -15 -12 -45 -90
-98 -249 -42 -128 -76 -243 -76 -256 0 -91 283 -150 725 -151 434 -1 721 59
727 151 1 10 -34 125 -77 257 -63 190 -84 241 -102 254 -34 21 -129 52 -185
59 -35 4 -49 11 -54 25 -8 25 -62 58 -94 58 -14 -1 -36 -7 -50 -15 -14 -8 -38
-15 -55 -15 -16 0 -37 -5 -45 -10 -10 -6 -20 -4 -30 4 -18 16 -130 46 -168 46
-15 -1 -39 -7 -53 -15z m141 -38 c35 -4 70 -25 70 -42 0 -19 34 -19 50 0 7 8
27 15 44 15 18 0 41 7 52 15 43 32 104 7 104 -44 1 -31 21 -61 42 -61 9 0 26
-9 39 -19 38 -31 13 -43 -113 -53 -117 -10 -540 -4 -571 8 -23 9 -22 51 3 66
11 7 20 21 20 30 0 21 29 38 67 38 21 0 36 9 52 31 21 29 26 30 69 25 26 -4
58 -8 72 -9z m-382 -104 c-20 -8 -39 -22 -42 -30 -20 -51 78 -84 272 -91 72
-2 132 -9 132 -13 0 -12 -26 -11 -173 2 -128 11 -243 37 -284 65 -24 15 -24
16 -7 35 10 11 38 26 63 34 61 18 86 17 39 -2z m889 2 c27 -8 57 -23 66 -33
16 -18 16 -20 0 -35 -23 -20 -161 -57 -210 -56 -31 1 -26 3 27 13 73 14 115
29 125 45 13 23 -7 50 -48 65 -55 19 -25 20 40 1z m-847 -45 c0 -21 -8 -24
-34 -14 -29 11 -17 26 27 33 4 0 7 -8 7 -19z m820 0 c0 -5 -4 -10 -10 -10 -5
0 -10 5 -10 10 0 6 5 10 10 10 6 0 10 -4 10 -10z m-824 -109 c32 -6 140 -17
238 -23 271 -17 558 9 665 60 22 11 43 17 45 14 14 -25 135 -406 130 -413 -44
-72 -512 -124 -894 -100 -292 18 -480 64 -480 116 0 12 95 309 125 392 3 9 19
6 58 -12 30 -13 81 -28 113 -34z m594 19 c-119 -12 -262 -11 -255 0 4 6 69 9
168 8 135 -1 149 -2 87 -8z"></path>
</g>
<g transform="translate(0.000000,300.000000) scale(0.100000,-0.100000)" fill="#C4D36E" stroke="none">

<path class="node" id="node7" d="M1353 2714 c-17 -9 -44 -29 -60 -45 -22 -22 -37 -29 -71 -29 -49 0
-172 -29 -172 -40 0 -4 7 -13 15 -20 15 -13 20 -56 9 -84 -10 -26 -24 -18 -24
12 0 16 -6 35 -12 44 -34 42 -207 73 -370 66 -97 -4 -101 -5 -128 -35 -46 -51
-72 -135 -77 -248 -8 -165 25 -235 111 -235 25 0 58 5 73 12 79 34 221 178
323 328 44 64 60 74 60 36 0 -53 -282 -376 -329 -376 -45 0 -66 -140 -36 -236
24 -78 58 -135 110 -185 24 -24 43 -45 41 -47 -8 -7 -51 20 -87 55 l-36 34
-12 -44 c-10 -42 -15 -47 -83 -81 -228 -117 -380 -372 -404 -681 -3 -44 -14
-104 -25 -133 -11 -29 -19 -79 -19 -112 0 -51 3 -61 25 -78 33 -26 165 -45
320 -46 l120 -1 -2 48 c-1 46 9 62 21 31 3 -9 6 -29 6 -45 0 -34 19 -38 45 -9
16 17 16 25 5 62 -6 24 -24 53 -39 64 -30 25 -149 64 -193 64 -19 0 -27 4 -22
11 4 8 30 10 74 7 l68 -5 36 56 c74 114 99 176 104 261 4 68 2 83 -17 114 -56
90 -215 99 -285 16 -28 -34 -41 -29 -21 10 28 54 116 87 201 74 188 -28 210
-245 49 -484 -19 -29 -35 -55 -35 -59 0 -3 20 -18 45 -33 35 -21 47 -36 62
-77 16 -47 20 -51 50 -51 l33 0 0 58 c-1 34 -6 65 -15 76 -17 22 -20 66 -5 66
6 0 10 -6 10 -12 0 -7 9 -24 20 -38 16 -20 20 -41 20 -112 0 -109 2 -110 159
-116 131 -5 131 -5 131 77 0 44 2 52 13 42 7 -7 11 -34 10 -67 -1 -29 0 -54 2
-54 2 0 15 4 29 10 50 19 30 124 -41 218 l-25 34 21 26 c32 40 81 143 81 172
0 14 5 32 10 40 7 11 10 1 10 -35 0 -47 -34 -135 -71 -185 -9 -13 -4 -28 26
-75 32 -49 39 -70 43 -125 l4 -66 57 4 c72 5 84 20 78 90 -4 38 -2 52 6 49 8
-2 12 -27 12 -65 0 -66 6 -72 43 -46 45 31 22 170 -38 233 -21 22 -22 27 -11
70 58 228 90 462 72 529 -18 66 -31 50 -31 -38 0 -75 -2 -81 -23 -89 -19 -8
-23 -15 -19 -43 3 -27 -2 -41 -27 -67 -29 -31 -35 -33 -84 -29 -67 5 -92 27
-113 97 -10 31 -28 69 -41 84 -43 53 -23 194 51 347 25 52 25 126 0 116 -23
-9 -16 12 11 30 21 14 30 14 55 4 31 -13 32 -30 0 -30 -16 0 -17 -4 -8 -42 18
-83 96 -150 228 -198 55 -20 84 -24 182 -23 110 0 119 1 157 26 80 53 110 131
111 280 0 86 0 87 -25 87 -60 0 -126 23 -160 55 -43 40 -44 64 -5 108 28 33
82 56 138 60 12 1 22 3 22 4 0 2 -16 19 -35 38 -19 19 -59 86 -90 147 -30 62
-73 134 -95 159 -51 60 -135 115 -196 130 -83 20 -81 19 -61 30 10 6 36 8 58
4 32 -6 39 -4 39 9 0 10 -9 16 -24 16 -21 0 -24 5 -23 28 2 23 -2 27 -28 30
-16 1 -44 -5 -62 -14z m-75 -140 c17 -12 22 -24 20 -47 -3 -31 -4 -32 -63 -37
-33 -3 -65 -9 -72 -13 -7 -5 -16 0 -23 13 -34 64 74 129 138 84z m19 -193 c55
-41 71 -136 33 -199 -37 -61 -126 -78 -184 -35 -52 37 -72 125 -41 181 25 48
31 53 71 67 43 16 87 11 121 -14z"></path>
<path class="node" id="node8" d="M1154 2346 c-38 -38 -45 -86 -19 -136 35 -68 98 -79 151 -26 29 29
34 41 34 83 0 42 -5 54 -31 81 -44 45 -89 44 -135 -2z m124 -134 c3 -16 -2
-22 -17 -22 -24 0 -35 15 -27 36 9 23 40 13 44 -14z"></path>
<path class="node" id="node9" d="M1688 2588 c-27 -11 -48 -23 -48 -27 0 -3 9 -17 19 -30 18 -24 19
-24 25 -4 18 56 132 51 156 -6 14 -34 5 -80 -13 -62 -14 14 -117 15 -117 1 0
-5 4 -10 9 -10 5 0 12 -9 16 -20 4 -13 19 -22 43 -26 54 -9 80 -29 104 -80 20
-40 21 -49 10 -91 -13 -45 -7 -62 20 -63 13 0 39 47 45 83 13 81 -79 278 -155
331 -45 31 -53 31 -114 4z"></path>
<path class="node" id="node10" d="M1770 2373 c0 -28 38 -93 55 -95 15 -2 20 -10 20 -30 -1 -31 9 -37
19 -12 11 29 -5 83 -34 114 -26 28 -60 40 -60 23z"></path>
<path class="node" id="node11" d="M1803 2080 c-56 -23 -4 -54 87 -53 77 0 110 9 110 29 0 8 -12 19 -26
24 -31 12 -141 12 -171 0z"></path>
<path class="node" id="node12" d="M2029 1950 c-15 -11 -44 -23 -65 -28 l-39 -8 2 -50 c6 -115 -27 -242
-75 -296 -24 -28 3 -22 63 12 102 58 165 159 168 270 2 66 -7 120 -21 120 -4
0 -19 -9 -33 -20z"></path>
<path class="node" id="node13" d="M1178 1339 c-12 -7 -14 -18 -6 -66 12 -84 33 -107 96 -111 45 -3 53
0 67 22 12 19 15 36 10 66 -14 82 -75 111 -75 35 0 -19 -4 -35 -10 -35 -5 0
-10 13 -10 28 0 46 -39 80 -72 61z"></path>
<path class="node" id="node14" d="M58 1186 c-25 -19 -23 -87 3 -139 23 -43 78 -117 88 -117 4 0 12 37
18 83 6 45 14 89 18 99 5 11 -7 26 -41 52 -51 39 -61 42 -86 22z"></path>
<path class="node" id="node15" d="M2079 971 c-16 -22 -31 -31 -52 -31 -38 0 -67 -17 -67 -38 0 -9 -9
-23 -20 -30 -25 -15 -26 -57 -3 -66 31 -12 454 -18 571 -8 126 10 151 22 113
53 -13 10 -30 19 -39 19 -21 0 -41 30 -42 61 0 51 -61 76 -104 44 -11 -8 -34
-15 -52 -15 -17 0 -37 -7 -44 -15 -16 -19 -50 -19 -50 0 0 17 -35 38 -70 42
-14 1 -46 5 -72 9 -43 5 -48 4 -69 -25z"></path>
<path class="node" id="node16" d="M1799 885 c-25 -8 -53 -23 -63 -34 -17 -19 -17 -20 7 -35 41 -28 156
-54 284 -65 147 -13 173 -14 173 -2 0 4 -60 11 -132 13 -194 7 -292 40 -272
91 3 8 22 22 42 30 47 19 22 20 -39 2z"></path>
<path class="node" id="node17" d="M2687 884 c41 -15 61 -42 48 -65 -10 -16 -52 -31 -125 -45 -53 -10
-58 -12 -27 -13 49 -1 187 36 210 56 16 15 16 17 0 35 -9 10 -39 25 -66 33
-65 19 -95 18 -40 -1z"></path>
<path class="node" id="node18" d="M1848 853 c-22 -6 -23 -19 -2 -27 26 -10 34 -7 34 14 0 20 -2 21 -32
13z"></path>
<path class="node" id="node19" d="M2680 840 c0 -5 5 -10 10 -10 6 0 10 5 10 10 0 6 -4 10 -10 10 -5 0
-10 -4 -10 -10z"></path>
<path class="node" id="node20" d="M1705 777 c-30 -83 -125 -380 -125 -392 0 -52 188 -98 480 -116 382
-24 850 28 894 100 5 7 -116 388 -130 413 -2 3 -23 -3 -45 -14 -107 -51 -394
-77 -665 -60 -209 14 -277 25 -351 57 -39 18 -55 21 -58 12z"></path>
<path class="node" id="node21" d="M2215 750 c-7 -11 136 -12 255 0 62 6 48 7 -87 8 -99 1 -164 -2 -168
-8z"></path>
</g>
</svg>