<!--?xml version="1.0" encoding="utf-8"?-->
<!-- Generator: Adobe Illustrator 15.0.0, SVG Export Plug-In . SVG Version: 6.00 Build 0)  -->

<svg xmlns="http://www.w3.org/2000/svg" xmlns:xlink="http://www.w3.org/1999/xlink" width="500px" height="500px" viewBox="0 0 500 500">
<path fill-rule="evenodd" clip-rule="evenodd" fill="#A38B79" d="M218.611,383.535c-6.373,5.388-10.249,10.844-11.629,16.37
	c-0.957,3.828-0.778,6.783,1.714,9.959c3.98,5.077,10.908,4.785,19.048,2.29c7.275,4.125,14.05,4.149,20.092-1.827
	c11.079,3.794,20.166,3.41,23.75-8.526c10.938,0.236,15.286-6.865,6.696-19.485l-10.961-7.914l-34.708-138.223
	c0,0-32.657,5.998-40.899,12.848c-3.699,3.074-9.029,16.988-9.029,16.988s0.881,9.184,1.555,12.178
	C190.321,305.22,218.611,383.535,218.611,383.535z" id="path-0"></path>
<path fill-rule="evenodd" clip-rule="evenodd" fill="none" stroke="#221814" stroke-width="0.216" stroke-miterlimit="2.4142" d="
	M254.438,270.513c17.758,0.329,27.488,9.854,27.488,21.938c0,12.081-12.35,21.936-27.488,21.936
	c-15.142,0-26.121-9.684-27.491-21.936C225.577,280.196,236.68,270.187,254.438,270.513L254.438,270.513z" id="path-1"></path>
<linearGradient id="SVGID_1_" gradientUnits="userSpaceOnUse" x1="0.6416" y1="530.5098" x2="223.8398" y2="530.5098" gradientTransform="matrix(0.7545 0 0 0.7545 178.9672 -241.7677)">
	<stop offset="0" style="stop-color:#826227"></stop>
	<stop offset="1" style="stop-color:#AC802D"></stop>
</linearGradient>
<path fill-rule="evenodd" clip-rule="evenodd" fill="url(#SVGID_1_)" d="M179.528,197.36l166.288,19.752
	c15.694-100.838-62.317-138.073-129.252-106.036C190.491,123.555,178.355,154.616,179.528,197.36L179.528,197.36z" id="path-2" style="position: relative;"></path>
<path fill-rule="evenodd" clip-rule="evenodd" fill="#F7B52B" d="M198.809,282.917l115.514,7.404l29.617-71.086
	c-3.454-21.195-11.724-37.177-27.025-45.539l-18.883-10.736c-7.159-1.851-13.33-1.233-18.512,1.851
	c-8.022,7.159-13.083,16.29-15.179,27.397l-12.589-0.37c-2.592-10.12-8.639-20.732-18.141-31.84
	c-6.047-0.748-12.097-0.875-18.143,3.333c-15.55,7.898-27.644,20.239-36.283,37.022c2.53,14.942,5.416,29.6,11.221,43.161
	C196.399,257.514,197.013,271.791,198.809,282.917L198.809,282.917z" id="path-3" style="position: relative;"></path>
<path fill-rule="evenodd" clip-rule="evenodd" fill="#C9CAC9" stroke="#9F9FA0" d="M255.194,165.534
	c-1.948,17.834-1.816,35.023-3.906,54.905c-1.543,12.327-0.264,11.412-11.001,16.2c-21.809,9.723-36.625,26.931-39.258,52.362
	c-1.058,35.887,26.391,39.073,51.991,27.471c25.288,7.879,45.293,9.715,51.312-2.927c11.65-15.754,9.034-33.827-1.473-53.486
	c-8.129-8.597-14.892-19.079-34.324-24.549c-4.938-4.029-6.384-8.792-6.502-15.753l-3.612-54.219
	C257.456,163.707,257.122,163.458,255.194,165.534L255.194,165.534z" id="path-4" style="position: relative;"></path>
<path fill-rule="evenodd" clip-rule="evenodd" fill="#4F4F4F" d="M254.571,273.168c17.737,0.321,27.457,9.639,27.457,21.46
	c0,11.818-12.333,21.457-27.457,21.457c-15.123,0-26.089-9.471-27.457-21.457C225.745,282.639,236.835,272.848,254.571,273.168
	L254.571,273.168z" id="path-5" style="position: relative;"></path>
<path fill-rule="evenodd" clip-rule="evenodd" fill="#383938" d="M254.984,276.749c14.146,0.253,21.898,7.636,21.898,16.995
	c0,9.36-9.836,16.995-21.898,16.995c-12.06,0-20.808-7.501-21.898-16.995C231.995,284.25,240.839,276.497,254.984,276.749
	L254.984,276.749z" id="path-6" style="position: relative;"></path>
<path fill-rule="evenodd" clip-rule="evenodd" fill="#242424" d="M238.329,300.97c1.743,3.231,4.725,5.979,9.536,8.234
	c5.46-6.384-0.645-11.561-6.81-11.387C237.942,297.904,236.788,298.109,238.329,300.97L238.329,300.97z" id="path-7" style="position: relative;"></path>
<path fill-rule="evenodd" clip-rule="evenodd" fill="#242424" d="M269.45,302.576c-2.048,3.05-5.282,5.492-10.291,7.267
	c-4.813-6.883,1.768-11.439,7.886-10.669C270.137,299.563,271.265,299.884,269.45,302.576L269.45,302.576z" id="path-8" style="position: relative;"></path>
<path fill-rule="evenodd" clip-rule="evenodd" fill="#383938" d="M231.748,322.771c16.228,11.229,32.394,9.517,46.897-0.449
	l-25.046-5.545C247.052,319.379,239.28,321.154,231.748,322.771L231.748,322.771z" id="path-9" style="position: relative;"></path>
<path fill-rule="evenodd" clip-rule="evenodd" fill="#E83B29" d="M238.35,322.929l15.249-4.898l18.021,5.082
	C265.604,343.498,243.895,345.021,238.35,322.929L238.35,322.929z" id="path-10" style="position: relative;"></path>
<path fill-rule="evenodd" clip-rule="evenodd" fill="#19191A" d="M208.9,190.202c8.995,0.468,16.327,9.11,16.327,19.238
	c0,10.129-7.333,18.01-16.327,17.542c-8.992-0.468-16.326-9.11-16.326-19.239C192.574,197.615,199.908,189.735,208.9,190.202
	L208.9,190.202z" id="path-11" style="position: relative;"></path>
<path fill-rule="evenodd" clip-rule="evenodd" fill="#545554" d="M209.748,191.255c8.525,0.451,15.479,8.78,15.479,18.542
	c0,9.764-6.954,17.359-15.479,16.908c-8.525-0.451-15.479-8.781-15.479-18.543S201.223,190.804,209.748,191.255L209.748,191.255z" id="path-12" style="position: relative;"></path>
<path fill-rule="evenodd" clip-rule="evenodd" fill="#0B0B0B" d="M223.934,207.568c0,7.957-5.916,14.149-13.17,13.781
	c-7.252-0.367-13.169-7.158-13.169-15.115C197.594,187.491,223.934,188.826,223.934,207.568L223.934,207.568z" id="path-13" style="position: relative;"></path>
<ellipse fill-rule="evenodd" clip-rule="evenodd" fill="#FAFBFB" cx="202.834" cy="203.266" rx="2.355" ry="2.232" id="ellipse-0" style="position: relative;"></ellipse>
<path fill-rule="evenodd" clip-rule="evenodd" fill="#FAFBFB" d="M199.261,193.07c-9.677,9.5-8.765,19.484-0.607,29.794
	C187.348,218.53,185.658,196.872,199.261,193.07L199.261,193.07z" id="path-14" style="position: relative;"></path>
<path fill-rule="evenodd" clip-rule="evenodd" fill="#7C3B1A" d="M194.854,191.703c26.555-11.683,28.603,3.597,33.139,20.673
	C226.721,187.879,214.415,177.779,194.854,191.703L194.854,191.703z" id="path-15" style="position: relative;"></path>
<path fill-rule="evenodd" clip-rule="evenodd" fill="#DD9527" d="M197.742,192.919c17.412-6.733,26.621,1.209,29.034,23.257
	c0.352-6.908-0.486-14.173-4.898-22.359c-1.622-3.012-3.444-4.12-6.736-5.306C207.577,185.785,200.402,188.164,197.742,192.919
	L197.742,192.919z" id="path-16" style="position: relative;"></path>
<path fill-rule="evenodd" clip-rule="evenodd" fill="#A38B79" d="M321.274,272.939c21.659,25.809,42.982,53.631,56.667,85.821
	c8.193,25.719,32.805,20.926,54.19,20.258c8.64,3.773,16.186,0.994,23.237-4.767c13.743-2.829,3.684-25.714-9.533-25.024
	c-8.143-0.645-16.285-2.532-24.429-7.149c-25.472-33.902-51.685-82.519-76.302-127.516L321.274,272.939L321.274,272.939z" id="path-17" style="position: relative;"></path>
<path fill-rule="evenodd" clip-rule="evenodd" fill="#707071" d="M425.454,367.731c5.75,2.837,8.385,7.094,6.841,12.771
	C436.547,374.115,432.582,368.867,425.454,367.731L425.454,367.731z" id="path-18" style="position: relative;"></path>
<path fill-rule="evenodd" clip-rule="evenodd" fill="#707071" d="M444.439,359.98c6.78,3.345,11.405,8.663,9.583,15.352
	C458.301,367.805,451.956,361.318,444.439,359.98L444.439,359.98z" id="path-19" style="position: relative;"></path>
<path fill-rule="evenodd" clip-rule="evenodd" fill="#A38B79" d="M126.168,256.366c-13.207,11.393-18.79,28.978-18.068,48.395
	c-0.74,10.735,0.988,20.484,5.183,29.249c12.256,7.706,17.08,14.053,14.81,21.475l-6.664,4.073
	c-4.362,3.023-8.536,6.675-15.92-0.371c-3.819,3.841-8.135,6.32-15.92-0.741c-11.477,1.975-17.524-1.975-18.142-11.848
	c0.366-4.566-0.006-9.134,3.333-13.699l-3.703-127.732l53.662,50.611L126.168,256.366z" id="path-20" style="position: relative;"></path>
<path fill-rule="evenodd" clip-rule="evenodd" fill="#785F4E" d="M73.298,277.362l20.363-14.44
	c1.234-3.946-0.987-7.896-6.664-11.847c-2.354-2.838-3.965-5.676-0.371-8.516c3.208-2.837,3.455-5.676,0.741-8.515
	c-10.985-8.7-15.181-20.794-16.291-34.432C69.469,225.529,70.952,251.446,73.298,277.362L73.298,277.362z" id="path-21" style="position: relative;"></path>
<path fill-rule="evenodd" clip-rule="evenodd" fill="#A38B79" d="M70.336,229.047c-7.419,8.505-18.297,14.762-28.694,23.324
	c-4.073,6.603-5.184,13.204-3.332,19.809l-6.85,0.184c-0.836-10.335-0.158-20.455,5.923-29.802
	c4.845-6.665,12.064-12.65,20.364-18.328c6.862-6.889,9.356-15.027,12.588-22.954V229.047L70.336,229.047z" id="path-22" style="position: relative;"></path>
<path fill-rule="evenodd" clip-rule="evenodd" fill="#785F4E" d="M68.115,218.31c0.249,2.529,0.312,5.06-0.926,7.59l-25.732,21.658
	c10.556-6.431,18.963-11.147,28.324-20.733C69.719,222.753,69.164,219.913,68.115,218.31L68.115,218.31z" id="path-23" style="position: relative;"></path>
<path fill-rule="evenodd" clip-rule="evenodd" fill="#A38B79" d="M31.463,271.856c0,0,2.565-0.8,3.455-0.759
	c0.805,0.038,2.835,0.352,3.328,1.074c3.659,5.369,2.988,20.032,0.395,25.989c-0.11,0.253-0.567,0.726-0.814,0.75
	c-0.238,0.021-0.946-0.308-1.126-0.565c-3.787-5.419-4.579-19.343-5.237-25.922C31.449,272.282,31.463,271.856,31.463,271.856z" id="path-24" style="position: relative;"></path>
<path fill-rule="evenodd" clip-rule="evenodd" fill="#9B4122" d="M113.284,235.156c-23.158-42.057-8.59-73.958,19.623-102.185
	c-25.809,7.157-47.005,22.831-59.979,53.684c-9.255,39.936,20.98,47.908,43.318,62.569L113.284,235.156L113.284,235.156z" id="path-25" style="position: relative;"></path>
<path fill-rule="evenodd" clip-rule="evenodd" fill="#FFFFFF" d="M115.69,269.403l27.397,45.17
	c7.405,5.119,15.55,6.538,24.436,4.257l7.034,1.296l5.369-2.038l6.293-1.851c2.098-4.998,0.74-9.255-4.073-12.772l-17.03-3.889
	l-11.848-22.027l-28.693-18.699C120.133,261.382,117.171,264.899,115.69,269.403L115.69,269.403z" id="path-26" style="position: relative;"></path>
<path fill-rule="evenodd" clip-rule="evenodd" fill="#B69C30" d="M282.738,101.863c-13.133,0.759-22.096-1.063-38.401,1.052
	c-17.282,2.243-34.526,10.935-37.066,15.568c-15.855,28.917-34.522,52.563-39.989,74.531c-3.706,14.889-10.326,53.057-13.319,85.588
	l-45.023-33.788c-18.066-48.22-25.01-89.622,17.131-129.393c22.822-21.539,58.745-16.785,87.376-19.252c0,0,44.01,2.258,58.596,3.94
	C274.735,100.419,282.738,101.863,282.738,101.863z" id="path-27" style="position: relative;"></path>
<path fill-rule="evenodd" clip-rule="evenodd" fill="#785F4E" d="M116.276,267.255l27.953,46.281
	c7.404,5.121,14.069,5.245,22.955,2.96l6.294,1.667l4.998-1.667l4.998-1.293c2.098-5.001,1.666-7.407-3.147-10.925l-15.92-4.998
	l-11.848-22.027l-28.952-21.603C119.165,258.181,117.757,262.751,116.276,267.255L116.276,267.255z" id="path-28" style="position: relative;"></path>
<path fill-rule="evenodd" clip-rule="evenodd" fill="#785F4E" d="M407.434,323.21l-24.955-0.614
	c-3.228-2.586-3.589-7.103-1.083-13.55c0.369-3.667,0.12-6.921-4.446-7.271c-4.246-0.563-6.035-2.782-5.367-6.652
	c4.258-13.35,0.989-25.727-5.702-37.662C381.678,278.066,394.913,300.398,407.434,323.21L407.434,323.21z" id="path-29" style="position: relative;"></path>
<path fill-rule="evenodd" clip-rule="evenodd" fill="#9B4122" d="M181.626,181.841c2.691,46.891-1.172,92.939-2.44,138.84h-5.184
	c-27.19-36.181-30.378-82.408-15.968-128.396c5.49-17.521,32.282-74.198,50.597-75.458L181.626,181.841L181.626,181.841z" id="path-30" style="position: relative;"></path>
<polygon fill-rule="evenodd" clip-rule="evenodd" fill="#664D1E" points="183.999,276.623 192.515,249.966 180.667,210.72 
	179.556,262.555 183.999,276.623 "></polygon>
<path fill-rule="evenodd" clip-rule="evenodd" fill="#9B4122" d="M329.501,134.082c13.978,22.398,17.989,53.004,15.182,89.227
	l-12.589,94.041c-0.741,1.851,0,3.702,2.222,5.553c19.351-16.249,37.89-36.111,42.577-78.861
	c3.02-27.534-7.835-55.474-19.254-84.043C346.533,145.31,336.66,134.942,329.501,134.082L329.501,134.082z" id="path-31" style="position: relative;"></path>
<path fill-rule="evenodd" clip-rule="evenodd" fill="#666766" d="M89.1,346.495c3.109,2.083,1.271,11.719,0.185,12.107
	c-0.031-2.019,0.4-4.035,0.37-6.055C89.624,350.531,89.13,348.512,89.1,346.495L89.1,346.495z" id="path-32" style="position: relative;"></path>
<path fill-rule="evenodd" clip-rule="evenodd" fill="#666766" d="M118.025,347.418c2.767,0.565,4.049,1.399,4.436,4.993L122,359.342
	l-0.262-4.714c-0.084-1.521-0.18-2.47-0.974-3.823C119.851,349.254,118.834,348.544,118.025,347.418L118.025,347.418z" id="path-33" style="position: relative;"></path>
<path fill-rule="evenodd" clip-rule="evenodd" fill="#666766" d="M104.266,347.418c3.234,2.083,1.977,11.719,0.914,12.107
	c-0.152-2.017,0.157-4.035,0.005-6.052C105.033,351.454,104.417,349.438,104.266,347.418L104.266,347.418z" id="path-34" style="position: relative;"></path>
<path fill-rule="evenodd" clip-rule="evenodd" fill="#666766" d="M229.968,398.806c-10.48,3.187-3.776,14.59-0.784,14.663
	c0.131-2.442-1.488-4.69-1.362-7.133C227.948,403.894,229.836,401.251,229.968,398.806L229.968,398.806z" id="path-35" style="position: relative;"></path>
<path fill-rule="evenodd" clip-rule="evenodd" fill="#666766" d="M245.559,397.67c6.466,4.723,2.327,15.145,0.481,14.776
	c-0.082-2.461,0.92-4.47,0.841-6.934C246.802,403.052,245.638,400.134,245.559,397.67L245.559,397.67z" id="path-36" style="position: relative;"></path>
<path fill-rule="evenodd" clip-rule="evenodd" fill="#666766" d="M265.772,389.257c7.619,2.45,6.97,13.643,5.101,13.877
	c-0.85-2.313-0.531-4.533-1.381-6.847C268.646,393.977,266.621,391.57,265.772,389.257L265.772,389.257z" id="path-37" style="position: relative;"></path>
<path fill-rule="evenodd" clip-rule="evenodd" fill="#F26922" d="M246.271,326.81c1.653-3.247-6.142-0.907,0,5.561
	c1.262,1.332,3.168,2.982,5.163,2.982c0.2,0,0.734-0.454,0.598-0.597C251.238,333.936,245.966,327.409,246.271,326.81
	L246.271,326.81z" id="path-38" style="position: relative;"></path>
<path fill-rule="evenodd" clip-rule="evenodd" fill="#19191A" d="M298.309,191.624c-8.992,0.468-16.327,9.109-16.327,19.238
	c0,10.129,7.335,18.008,16.327,17.542c8.992-0.468,16.327-9.11,16.327-19.239S307.301,191.158,298.309,191.624L298.309,191.624z" id="path-39" style="position: relative;"></path>
<path fill-rule="evenodd" clip-rule="evenodd" fill="#545554" d="M297.462,192.677c-8.526,0.451-15.48,8.78-15.48,18.542
	c0,9.764,6.954,17.359,15.48,16.908c8.523-0.451,15.478-8.781,15.478-18.543C312.939,199.821,305.985,192.227,297.462,192.677
	L297.462,192.677z" id="path-40" style="position: relative;"></path>
<path fill-rule="evenodd" clip-rule="evenodd" fill="#0B0B0B" d="M283.274,208.989c0,7.958,5.916,14.15,13.17,13.782
	c7.254-0.367,13.17-7.158,13.17-15.115C309.614,188.914,283.274,190.247,283.274,208.989L283.274,208.989z" id="path-41" style="position: relative;"></path>
<ellipse fill-rule="evenodd" clip-rule="evenodd" fill="#FAFBFB" cx="288.844" cy="205.045" rx="2.355" ry="2.232" id="ellipse-1" style="position: relative;"></ellipse>
<path fill-rule="evenodd" clip-rule="evenodd" fill="#FAFBFB" d="M307.947,194.493c9.678,9.5,8.766,19.482,0.607,29.794
	C319.86,219.953,321.551,198.294,307.947,194.493L307.947,194.493z" id="path-42" style="position: relative;"></path>
<path fill-rule="evenodd" clip-rule="evenodd" fill="#7C3B1A" d="M312.356,193.125c-26.555-11.683-28.604,3.597-33.139,20.673
	C280.49,189.301,292.795,179.2,312.356,193.125L312.356,193.125z" id="path-43" style="position: relative;"></path>
<path fill-rule="evenodd" clip-rule="evenodd" fill="#DD9527" d="M309.467,194.34c-17.41-6.732-26.621,1.21-29.034,23.258
	c-0.35-6.91,0.486-14.173,4.898-22.359c1.622-3.012,3.444-4.12,6.735-5.307C299.631,187.207,306.806,189.586,309.467,194.34
	L309.467,194.34z" id="path-44" style="position: relative;"></path>
</svg>
