<!--?xml version="1.0" standalone="no"?-->

<svg version="1.0" xmlns="http://www.w3.org/2000/svg" width="300.000000pt" height="300.000000pt" viewBox="0 0 300.000000 300.000000" preserveAspectRatio="xMidYMid meet">
<g transform="translate(0.000000,300.000000) scale(0.100000,-0.100000)" fill="#030303" stroke="none">
<path class="node" id="node1" d="M1980 2651 c-58 -58 -91 -119 -101 -187 -4 -30 -20 -71 -41 -105 -35
-54 -74 -132 -123 -244 -33 -76 -75 -246 -75 -305 l0 -45 -87 -42 c-244 -115
-461 -309 -544 -486 -48 -105 -62 -178 -56 -297 3 -58 11 -120 18 -137 12 -29
11 -34 -6 -47 -61 -45 -292 -45 -424 -1 -73 24 -198 91 -229 122 -24 23 -30
14 -37 -52 -15 -132 21 -252 95 -318 78 -70 123 -80 318 -74 146 4 176 8 240
31 90 31 135 58 163 97 l21 29 56 -51 c110 -98 84 -94 513 -97 l376 -3 13 30
c29 72 -35 128 -182 157 -49 9 -88 21 -88 26 0 5 9 26 20 48 30 59 62 185 58
232 l-3 42 44 9 c24 5 47 5 51 0 4 -4 20 -39 35 -78 48 -121 144 -318 187
-381 l41 -62 108 -7 c60 -3 113 -4 119 0 26 16 6 51 -79 134 -97 94 -121 135
-148 253 -22 96 -22 332 0 444 24 120 40 337 32 434 -9 130 -25 240 -40 283
-13 38 -13 38 7 20 16 -14 41 -19 114 -21 114 -5 187 19 229 73 14 19 25 36
25 39 0 2 14 18 30 34 41 41 40 76 -2 92 -18 8 -64 28 -103 46 -38 18 -87 39
-107 47 -23 10 -47 31 -63 57 -14 22 -43 53 -65 68 -38 27 -39 27 -37 92 2 93
-3 97 -71 51 -32 -21 -64 -46 -71 -55 -7 -9 -17 -16 -21 -16 -4 0 -13 33 -20
73 -21 118 -20 117 -90 48z"></path>
</g>
<g transform="translate(0.000000,300.000000) scale(0.100000,-0.100000)" fill="#A2A2A2" stroke="none">

</g>
</svg>