<!--?xml version="1.0" standalone="no"?-->

<svg version="1.0" xmlns="http://www.w3.org/2000/svg" width="214.000000pt" height="300.000000pt" viewBox="0 0 214.000000 300.000000" preserveAspectRatio="xMidYMid meet">
<g transform="translate(0.000000,300.000000) scale(0.100000,-0.100000)" fill="#323232" stroke="none">



<path class="node" id="node4" d="M373 2643 c-25 -5 -93 -76 -93 -98 0 -8 -6 -15 -13 -15 -24 0 -86
-60 -104 -101 -12 -28 -29 -46 -53 -58 -36 -17 -52 -53 -31 -74 6 -6 8 -41 4
-92 -7 -96 5 -141 51 -193 17 -19 53 -45 81 -58 67 -29 227 -190 338 -338 34
-44 36 -51 24 -70 -20 -30 -73 -174 -81 -217 -5 -30 -2 -42 19 -67 14 -16 25
-41 25 -54 0 -72 50 -180 126 -274 42 -51 46 -61 59 -152 8 -53 15 -129 15
-168 l0 -72 -47 -7 c-27 -4 -68 -15 -92 -26 -24 -10 -54 -19 -66 -19 -29 0
-85 -52 -85 -78 0 -32 79 -109 120 -117 19 -4 48 -14 64 -22 29 -15 108 -13
150 3 13 5 15 1 10 -23 -5 -23 2 -38 36 -81 41 -51 54 -57 112 -53 15 1 38 -5
52 -14 37 -24 230 -5 303 31 76 36 85 57 84 179 l-1 103 31 6 c57 11 60 9 38
-28 -24 -42 -14 -79 31 -104 16 -9 30 -20 30 -24 0 -10 58 -39 73 -37 6 2 24
-4 39 -11 23 -11 46 -11 123 -2 242 30 294 124 162 291 l-35 45 59 64 c114
125 177 310 166 487 -6 80 -63 320 -112 469 -14 43 -28 105 -32 137 -6 60 -23
92 -23 44 0 -34 33 -180 66 -290 71 -238 88 -372 64 -514 -17 -102 -84 -233
-150 -295 l-50 -47 -41 78 c-22 43 -90 149 -151 235 -145 207 -211 253 -281
198 -31 -25 -47 -74 -48 -150 l0 -55 -23 65 c-48 135 -111 232 -161 244 -14 4
-25 10 -25 14 0 5 -25 45 -55 90 l-55 82 28 0 c17 0 38 10 51 24 33 35 18 54
-91 119 -51 31 -118 77 -148 102 -30 25 -74 60 -97 77 -33 24 -40 35 -32 45
16 19 21 17 76 -26 115 -92 266 -115 307 -48 15 25 -9 41 -92 60 -37 9 -107
33 -157 54 -81 35 -90 42 -96 71 -4 17 -11 38 -17 44 -15 19 -18 116 -4 130
20 20 13 55 -14 77 -15 12 -31 21 -37 21 -5 0 -21 12 -34 26 -22 24 -29 26
-100 22 l-77 -3 -1 42 c-1 22 -7 49 -15 58 -8 10 -15 43 -15 80 -1 41 -8 73
-19 90 -16 24 -16 27 4 54 22 32 27 83 8 99 -18 13 -49 20 -75 15z m-89 -149
c5 -14 16 -16 65 -11 55 6 59 5 72 -20 19 -35 15 -152 -6 -192 -8 -17 -20 -43
-26 -58 -10 -26 -9 -26 9 -10 10 10 25 35 32 57 15 46 25 50 34 16 5 -20 -6
-80 -29 -151 -3 -11 4 -1 17 23 38 68 52 22 24 -73 -13 -41 -13 -49 0 -62 12
-13 14 -13 14 0 0 11 16 17 53 22 79 10 154 33 161 50 7 20 -27 54 -64 61 -18
4 -27 11 -24 19 3 7 1 16 -5 20 -6 3 -11 0 -11 -8 0 -15 -29 -27 -67 -27 -14
0 -23 6 -23 15 0 16 23 23 85 27 33 3 42 -1 50 -19 5 -12 22 -25 36 -28 34 -8
62 -38 57 -61 -2 -10 -19 -29 -38 -42 -35 -24 -35 -25 -6 -18 l29 7 -6 -73
c-4 -55 -3 -67 5 -48 l10 25 10 -28 c13 -36 3 -90 -21 -111 -17 -16 -20 -14
-55 24 -20 22 -36 48 -36 59 0 10 -7 24 -15 31 -13 11 -15 9 -13 -11 2 -18 -1
-23 -14 -21 -10 2 -18 -2 -18 -8 0 -5 4 -10 9 -10 14 0 41 -29 41 -45 0 -13
-37 -31 -80 -38 -21 -4 44 -9 67 -6 4 0 22 -28 40 -63 18 -34 39 -72 47 -83
13 -18 12 -25 -6 -67 -11 -27 -23 -48 -27 -47 -3 0 -37 43 -75 95 -90 122
-290 333 -335 351 -92 39 -153 119 -155 206 -1 82 9 107 44 107 16 0 32 5 35
10 4 6 -8 10 -27 10 -19 0 -43 6 -53 14 -19 14 -19 15 -1 35 10 11 27 23 37
26 11 4 28 23 39 44 18 37 82 101 99 101 5 0 12 -7 15 -16z m363 -365 c30 -10
50 -34 35 -43 -4 -2 -31 -11 -59 -19 l-53 -16 0 28 c0 18 -8 34 -21 43 -20 13
-19 14 22 16 24 1 58 -3 76 -9z m-109 -21 c22 -22 14 -55 -14 -62 -34 -9 -35
-7 -23 37 11 39 18 44 37 25z m145 -389 c27 -39 30 -58 8 -44 -15 8 -54 85
-44 85 5 -1 21 -19 36 -41z m50 -71 c7 -22 -19 -114 -48 -170 -38 -72 -76
-126 -119 -167 -43 -41 -58 -33 -46 24 6 32 8 34 9 13 2 -55 39 -32 104 66 56
83 90 169 85 214 -4 31 6 45 15 20z m65 -77 c18 -22 32 -51 32 -65 0 -45 -31
-119 -76 -183 -74 -104 -114 -123 -179 -83 l-32 20 53 54 c55 56 145 222 148
271 2 35 18 31 54 -14z m-164 -66 c16 -25 16 -28 -10 -75 -14 -27 -39 -61 -55
-76 -26 -25 -29 -26 -29 -8 0 15 69 184 76 184 1 0 9 -11 18 -25z m387 -144
c52 -63 110 -171 130 -241 7 -25 21 -58 32 -73 37 -54 12 -35 -38 28 -30 39
-54 82 -62 111 -6 26 -19 54 -28 63 -16 15 -16 14 -1 -16 22 -44 20 -63 -4
-33 -11 14 -20 20 -20 14 0 -11 64 -103 149 -213 27 -35 47 -69 45 -76 -3 -6
18 -79 46 -162 62 -186 78 -263 86 -425 l7 -127 -29 -29 c-33 -33 -118 -57
-243 -68 -61 -6 -74 -4 -91 11 -27 25 -25 50 7 74 32 26 23 40 -12 17 -14 -9
-28 -30 -32 -46 -5 -27 -9 -30 -44 -30 -42 0 -72 29 -62 59 9 24 35 52 58 62
18 7 18 8 1 8 -10 1 -34 -15 -53 -34 -38 -38 -53 -38 -53 0 0 26 39 62 79 72
14 3 46 16 71 27 35 16 66 20 142 20 53 1 91 4 85 8 -7 4 -22 8 -34 8 -13 0
-23 5 -23 11 0 8 13 10 37 6 35 -6 36 -6 14 9 -13 10 -32 13 -49 9 -27 -5 -28
-5 -24 35 6 56 -34 276 -69 382 -34 104 -97 239 -135 288 -15 19 -24 27 -21
18 4 -12 2 -15 -9 -11 -24 9 -16 -15 12 -33 35 -23 84 -125 132 -274 48 -150
55 -180 44 -180 -18 0 -166 109 -245 180 -145 130 -232 259 -244 361 l-6 51
29 -15 c25 -13 34 -13 61 -2 69 29 162 148 189 243 l15 52 57 -40 c31 -23 78
-67 103 -99z m-470 72 c-12 -20 -14 -14 -5 12 4 9 9 14 11 11 3 -2 0 -13 -6
-23z m651 -272 c30 -36 120 -220 112 -230 -6 -7 -45 32 -91 92 -38 49 -72 129
-73 170 0 17 21 4 52 -32z m308 -80 c78 -62 330 -437 318 -473 -7 -21 -228
260 -228 291 -1 9 -8 30 -16 46 -8 17 -12 21 -9 10 4 -14 -4 -10 -25 15 l-31
35 16 -39 c37 -95 139 -234 280 -387 89 -97 145 -181 145 -220 0 -28 -47 -75
-92 -93 -59 -24 -205 -41 -234 -27 -50 22 -23 91 42 111 26 7 26 8 6 9 -30 1
-78 -24 -86 -44 -3 -9 -6 -28 -6 -41 0 -33 -32 -32 -60 3 -26 34 -20 69 18
100 20 17 23 23 10 23 -20 0 -58 -46 -58 -71 0 -22 -11 -24 -28 -7 -18 18 -15
63 6 81 26 24 90 44 168 53 62 7 65 9 34 15 l-35 6 37 2 c20 0 40 6 43 11 10
16 -71 12 -112 -5 -20 -8 -37 -14 -38 -13 -23 31 -153 273 -171 320 -53 135
-56 257 -8 305 30 30 62 26 114 -16z m-145 -253 c10 -33 106 -222 149 -293 20
-33 36 -65 36 -71 0 -29 -96 -22 -160 11 -22 11 -30 24 -35 57 -12 76 -53 222
-79 282 -14 32 -26 70 -26 85 0 15 -8 43 -18 62 -15 30 -7 24 54 -38 40 -40
76 -83 79 -95z m-530 -68 c11 -12 48 -42 81 -66 52 -37 62 -50 68 -81 8 -49 8
-182 0 -222 -7 -34 -25 -45 -129 -76 -33 -9 -73 -21 -89 -26 -73 -22 -156 -2
-156 38 0 25 39 53 76 53 21 0 33 4 29 10 -3 6 -21 10 -39 10 -38 0 -86 -40
-86 -72 0 -15 -5 -18 -22 -12 -29 8 -58 33 -58 50 0 19 40 53 75 64 28 9 27
10 -10 5 -27 -3 -47 -13 -63 -30 -24 -28 -42 -26 -42 5 0 23 45 60 73 60 11 0
41 10 66 22 38 19 63 23 137 23 51 0 90 3 87 8 -2 4 -14 8 -26 8 -17 1 -15 3
8 9 29 7 29 8 5 10 -14 2 -32 3 -40 4 -12 1 -16 23 -21 111 -3 61 -9 125 -14
144 l-7 35 38 -31 c22 -17 48 -41 59 -53z m210 -142 c29 -13 30 -16 10 -42
-21 -27 -19 -59 6 -89 15 -20 19 -38 17 -69 -3 -42 -4 -43 -41 -46 l-39 -3 9
33 c10 42 10 141 0 191 -9 40 -3 44 38 25z m35 -89 c0 -24 -4 -38 -10 -34 -17
10 -11 75 7 75 2 0 3 -18 3 -41z m324 -90 c-8 -14 -34 -10 -34 5 0 9 7 12 20
9 11 -3 17 -9 14 -14z"></path>
<path class="node" id="node5" d="M226 2430 c-20 -22 -36 -44 -36 -49 0 -5 -13 -11 -30 -14 -18 -4 -30
-13 -30 -22 0 -8 3 -15 8 -15 31 1 54 18 72 54 12 22 31 51 43 64 11 12 18 22
15 22 -3 0 -22 -18 -42 -40z"></path>






</g>
<g transform="translate(0.000000,300.000000) scale(0.100000,-0.100000)" fill="#CACACA" stroke="none">


<path class="node" id="node14" d="M225 2478 c-20 -17 -45 -48 -55 -69 -11 -21 -28 -40 -39 -44 -10 -3
-27 -15 -37 -26 -18 -20 -18 -21 1 -35 10 -8 34 -14 53 -14 19 0 31 -4 27 -10
-3 -5 -19 -10 -35 -10 -35 0 -45 -25 -44 -107 2 -87 63 -167 155 -206 45 -18
245 -229 335 -351 38 -52 72 -95 75 -95 4 -1 16 20 27 47 18 42 19 49 6 67 -8
11 -29 49 -47 83 -18 35 -36 63 -40 63 -23 -3 -88 2 -67 6 43 7 80 25 80 38 0
16 -27 45 -41 45 -5 0 -9 5 -9 10 0 6 8 10 18 8 13 -2 16 3 14 21 -2 20 0 22
13 11 8 -7 15 -21 15 -31 0 -11 16 -37 36 -59 35 -38 38 -40 55 -24 24 21 34
75 21 111 l-10 28 -10 -25 c-8 -19 -9 -7 -5 48 l6 73 -29 -7 c-29 -7 -29 -6 6
18 19 13 36 32 38 42 5 23 -23 53 -57 61 -14 3 -31 16 -36 28 -8 18 -17 22
-50 19 -62 -4 -85 -11 -85 -27 0 -9 9 -15 23 -15 38 0 67 12 67 27 0 8 5 11
11 8 6 -4 8 -13 5 -20 -3 -8 6 -15 24 -19 37 -7 71 -41 64 -61 -7 -17 -82 -40
-161 -50 -37 -5 -53 -11 -53 -22 0 -13 -2 -13 -14 0 -13 13 -13 21 0 62 28 95
14 141 -24 73 -13 -24 -20 -34 -17 -23 23 71 34 131 29 151 -9 34 -19 30 -34
-16 -7 -22 -22 -47 -32 -57 -18 -16 -19 -16 -9 10 6 15 18 41 26 58 21 40 25
157 6 192 -13 25 -17 26 -72 20 -49 -5 -60 -3 -65 11 -9 23 -18 20 -59 -16z
m28 -30 c-12 -13 -31 -42 -43 -64 -18 -36 -41 -53 -72 -54 -5 0 -8 7 -8 15 0
9 12 18 30 22 17 3 30 9 30 14 0 10 69 89 78 89 3 0 -4 -10 -15 -22z"></path>
<path class="node" id="node15" d="M549 2122 c13 -9 21 -25 21 -43 l0 -28 53 16 c65 19 67 20 61 38 -8
20 -61 35 -113 33 -41 -2 -42 -3 -22 -16z"></path>
<path class="node" id="node16" d="M501 2083 c-12 -44 -11 -46 23 -37 28 7 36 40 14 62 -19 19 -26 14
-37 -25z"></path>
<path class="node" id="node17" d="M660 1721 c20 -40 37 -57 46 -48 6 6 -48 86 -59 87 -4 0 2 -18 13
-39z"></path>
<path class="node" id="node18" d="M718 1628 c5 -45 -29 -131 -85 -214 -65 -98 -102 -121 -104 -66 -1
21 -3 19 -9 -13 -12 -57 3 -65 46 -24 69 66 139 186 159 272 12 51 10 77 -4
77 -4 0 -5 -15 -3 -32z"></path>
<path class="node" id="node19" d="M744 1585 c-3 -49 -93 -215 -148 -271 l-53 -54 32 -20 c65 -40 105
-21 179 83 45 64 76 138 76 183 0 26 -55 104 -74 104 -6 0 -12 -11 -12 -25z"></path>
<path class="node" id="node20" d="M577 1448 c-20 -46 -37 -92 -37 -102 0 -18 3 -17 29 8 16 15 41 49
55 76 26 47 26 50 10 75 -9 14 -17 25 -18 25 -1 0 -19 -37 -39 -82z"></path>
<path class="node" id="node21" d="M846 1448 c-27 -95 -120 -214 -189 -243 -27 -11 -36 -11 -61 2 l-29
15 6 -51 c12 -102 99 -231 244 -361 79 -71 227 -180 245 -180 11 0 4 30 -44
180 -48 149 -97 251 -132 274 -28 18 -36 42 -12 33 11 -4 13 -1 9 11 -3 9 6 1
21 -18 38 -49 101 -184 135 -288 35 -106 75 -326 69 -382 -4 -40 -3 -40 24
-35 17 4 36 1 49 -9 22 -15 21 -15 -14 -9 -24 4 -37 2 -37 -6 0 -6 10 -11 23
-11 12 0 27 -4 34 -8 6 -4 -32 -7 -85 -8 -76 0 -107 -4 -142 -20 -25 -11 -57
-24 -71 -27 -40 -10 -79 -46 -79 -72 0 -38 15 -38 53 0 19 19 43 35 53 34 17
0 17 -1 -1 -8 -23 -10 -49 -38 -58 -62 -10 -30 20 -59 62 -59 35 0 39 3 44 30
4 16 18 37 32 46 35 23 44 9 12 -17 -32 -24 -34 -49 -7 -74 17 -15 30 -17 91
-11 125 11 210 35 243 68 l29 29 -7 127 c-8 162 -24 239 -86 425 -28 83 -49
156 -46 162 2 7 -18 41 -45 76 -85 110 -149 202 -149 213 0 6 9 0 20 -14 24
-30 26 -11 4 33 -15 30 -15 31 1 16 9 -9 22 -37 28 -63 8 -29 32 -72 62 -111
50 -63 75 -82 38 -28 -11 15 -25 48 -32 73 -36 125 -136 270 -233 340 l-57 40
-15 -52z"></path>
<path class="node" id="node22" d="M546 1445 c-9 -26 -7 -32 5 -12 6 10 9 21 6 23 -2 3 -7 -2 -11 -11z"></path>
<path class="node" id="node23" d="M1150 1193 c1 -41 35 -121 73 -170 46 -60 85 -99 91 -92 8 10 -82
194 -112 230 -31 36 -52 49 -52 32z"></path>
<path class="node" id="node24" d="M1396 1097 c-48 -48 -45 -170 8 -305 18 -47 148 -289 171 -320 1 -1
18 5 38 13 41 17 122 21 112 5 -3 -5 -23 -11 -43 -11 l-37 -2 35 -6 c31 -6 28
-8 -34 -15 -78 -9 -142 -29 -168 -53 -21 -18 -24 -63 -6 -81 17 -17 28 -15 28
7 0 25 38 71 58 71 13 0 10 -6 -10 -23 -38 -31 -44 -66 -18 -100 28 -35 60
-36 60 -3 0 13 3 32 6 41 8 20 56 45 86 44 20 -1 20 -2 -6 -9 -65 -20 -92 -89
-42 -111 29 -14 175 3 234 27 45 18 92 65 92 93 0 39 -56 123 -145 220 -141
153 -243 292 -280 387 l-16 39 31 -35 c21 -25 29 -29 25 -15 -3 11 1 7 9 -10
8 -16 15 -37 16 -46 0 -31 221 -312 228 -291 8 25 -81 169 -225 366 -96 131
-161 169 -207 123z"></path>
<path class="node" id="node25" d="M1232 961 c10 -19 18 -47 18 -62 0 -15 12 -53 26 -85 26 -60 67 -206
79 -282 5 -33 13 -46 35 -57 64 -33 160 -40 160 -11 0 6 -16 38 -36 71 -43 71
-139 260 -149 293 -3 12 -39 55 -79 95 -61 62 -69 68 -54 38z"></path>
<path class="node" id="node26" d="M745 809 c5 -19 11 -83 14 -144 5 -88 9 -110 21 -111 8 -1 26 -2 40
-4 24 -2 24 -3 -5 -10 -23 -6 -25 -8 -8 -9 12 0 24 -4 26 -8 3 -5 -36 -8 -87
-8 -74 0 -99 -4 -137 -23 -25 -12 -55 -22 -66 -22 -28 0 -73 -37 -73 -60 0
-31 18 -33 42 -5 16 17 36 27 63 30 37 5 38 4 10 -5 -35 -11 -75 -45 -75 -64
0 -17 29 -42 58 -50 17 -6 22 -3 22 12 0 32 48 72 86 72 18 0 36 -4 39 -10 4
-6 -8 -10 -29 -10 -37 0 -76 -28 -76 -53 0 -40 83 -60 156 -38 16 5 56 17 89
26 104 31 122 42 129 76 8 40 8 173 0 222 -6 31 -16 44 -68 81 -33 24 -70 54
-81 66 -11 12 -37 36 -59 53 l-38 31 7 -35z"></path>

<path class="node" id="node28" d="M1067 563 c-11 -10 -8 -61 3 -68 6 -4 10 10 10 34 0 42 -2 46 -13 34z"></path>
<path class="node" id="node29" d="M1370 444 c0 -15 26 -19 34 -5 3 5 -3 11 -14 14 -13 3 -20 0 -20 -9z"></path>
</g>
</svg>