<!--?xml version="1.0" standalone="no"?-->

<svg version="1.0" xmlns="http://www.w3.org/2000/svg" width="300.000000pt" height="300.000000pt" viewBox="0 0 300.000000 300.000000" preserveAspectRatio="xMidYMid meet">
<g transform="translate(0.000000,300.000000) scale(0.100000,-0.100000)" fill="#191D29" stroke="none">
<path class="node" id="node1" d="M2192 2559 c-42 -13 -108 -80 -123 -127 -6 -20 -15 -41 -20 -46 -5
-6 -9 -16 -9 -23 0 -19 -77 -178 -126 -258 -88 -144 -164 -204 -309 -241 -60
-15 -122 -18 -440 -19 -317 -1 -381 -4 -445 -20 -97 -23 -121 -36 -180 -96
-107 -109 -137 -199 -144 -424 -6 -216 -26 -289 -98 -358 -36 -35 -48 -51 -40
-59 30 -30 173 68 230 156 24 38 27 39 30 18 5 -30 -34 -87 -102 -149 -87 -81
-87 -81 -93 -200 -6 -139 3 -229 27 -253 39 -39 170 -37 194 3 9 15 4 24 -31
57 -24 21 -43 47 -43 57 0 33 30 117 54 154 26 39 126 129 197 177 25 17 74
67 110 113 35 45 78 98 95 117 l31 36 194 -17 c107 -9 295 -17 419 -17 253 -1
295 -7 327 -47 53 -65 183 -408 183 -480 0 -7 10 -38 21 -69 l21 -57 50 6 c71
9 113 36 113 72 0 26 -7 33 -47 52 -34 16 -50 30 -55 50 -5 16 -8 145 -8 288
l0 260 32 50 c38 60 58 134 79 292 13 103 24 140 90 305 41 104 74 193 74 199
0 5 11 21 25 34 21 22 33 25 92 25 151 0 183 31 183 172 0 47 -3 93 -6 102 -5
13 -24 16 -101 16 l-94 0 -74 70 c-41 39 -86 75 -100 80 -32 12 -138 12 -183
-1z m-1785 -1521 c-3 -8 -6 -5 -6 6 -1 11 2 17 5 13 3 -3 4 -12 1 -19z"></path>
</g>
<g transform="translate(0.000000,300.000000) scale(0.100000,-0.100000)" fill="#C2C947" stroke="none">

<path class="node" id="node3" d="M401 1044 c0 -11 3 -14 6 -6 3 7 2 16 -1 19 -3 4 -6 -2 -5 -13z"></path>
</g>
</svg>