<!--?xml version="1.0" standalone="no"?-->

<svg version="1.0" xmlns="http://www.w3.org/2000/svg" width="263.000000pt" height="300.000000pt" viewBox="0 0 263.000000 300.000000" preserveAspectRatio="xMidYMid meet">
<g transform="translate(0.000000,300.000000) scale(0.100000,-0.100000)" fill="#3D3D3D" stroke="none">
<path class="node" id="node1" d="M755 2840 c-66 -3 -129 -11 -140 -18 -11 -6 -39 -16 -63 -22 -42 -11
-56 -28 -76 -91 -3 -13 -23 -19 -75 -24 -86 -9 -96 -20 -74 -84 12 -35 13 -53
4 -82 -17 -56 11 -159 43 -159 7 0 21 -9 31 -20 10 -11 24 -20 32 -20 7 0 23
-11 35 -25 27 -32 31 -31 70 5 34 33 39 32 57 -20 7 -19 18 -45 23 -56 7 -15
7 -28 -1 -42 -6 -11 -11 -43 -11 -70 0 -32 -5 -54 -15 -62 -20 -16 -19 -79 1
-131 14 -34 15 -47 4 -82 -6 -23 -16 -46 -20 -52 -4 -5 -15 -34 -25 -64 -21
-65 -17 -126 18 -231 42 -124 65 -210 86 -315 12 -55 33 -140 47 -190 60 -205
75 -264 90 -345 17 -91 14 -138 -10 -175 -11 -17 -28 -24 -75 -29 -34 -4 -61
-11 -61 -16 0 -6 -6 -10 -14 -10 -21 0 -38 -26 -46 -70 -5 -25 -3 -45 4 -54
17 -21 131 -35 210 -25 139 17 157 33 176 155 6 38 17 89 25 114 19 61 12 151
-20 290 -15 63 -30 135 -32 158 -5 43 -5 44 18 32 12 -7 44 -28 70 -46 46 -34
47 -35 48 -92 0 -31 8 -93 16 -137 9 -44 18 -91 21 -105 2 -14 7 -57 10 -96 6
-67 5 -72 -21 -98 -18 -18 -25 -34 -22 -48 4 -14 -2 -27 -21 -43 -38 -32 -66
-89 -58 -117 3 -13 15 -34 25 -48 19 -24 24 -25 134 -25 78 0 119 4 130 13 10
8 17 40 22 92 l7 80 60 0 60 0 -26 -31 c-29 -34 -35 -93 -13 -121 18 -23 176
-39 327 -33 257 9 537 26 591 34 203 32 189 150 -31 257 l-70 34 0 80 c0 85
-17 218 -29 235 -5 6 -14 33 -21 60 -14 52 -37 103 -112 245 -62 117 -154 253
-220 325 -15 17 -37 41 -49 55 -11 14 -39 45 -62 70 -48 51 -119 144 -136 177
-6 13 -50 68 -96 122 -46 55 -95 122 -109 149 -30 60 -71 101 -141 147 -57 36
-58 39 -70 148 -6 57 -6 58 36 105 81 91 90 157 33 243 -26 40 -51 63 -94 87
-32 17 -66 32 -75 32 -9 0 -34 15 -56 33 -39 34 -100 58 -135 55 -11 -1 -73
-4 -139 -8z m10 -30 c3 -5 -3 -10 -15 -10 -31 0 -59 -17 -110 -65 -33 -32 -48
-40 -55 -32 -13 16 -16 67 -4 67 5 0 9 -15 10 -32 0 -18 3 -26 6 -18 22 61
145 127 168 90z m39 -86 c5 -14 4 -15 -9 -4 -17 14 -19 20 -6 20 5 0 12 -7 15
-16z m-134 -34 c0 -5 -7 -10 -15 -10 -8 0 -15 5 -15 10 0 6 7 10 15 10 8 0 15
-4 15 -10z m-94 -29 c18 -7 35 -20 38 -29 21 -57 24 -72 14 -72 -6 0 -8 -7 -4
-15 3 -8 -2 -22 -11 -31 -16 -16 -15 -16 7 -9 14 4 27 11 30 16 3 4 12 -6 19
-23 12 -28 12 -32 -3 -44 -23 -16 1 -25 29 -11 19 10 19 9 5 -8 -9 -11 -10
-16 -2 -11 17 10 38 -4 21 -15 -10 -6 -5 -9 16 -10 17 0 23 -3 15 -6 -8 -3
-24 -14 -35 -24 -13 -11 -25 -15 -34 -10 -7 5 -29 5 -50 0 -55 -13 -71 -11
-71 9 0 13 -2 14 -9 3 -7 -11 -12 -10 -28 5 -11 11 -26 20 -33 22 -19 4 -78
63 -83 83 -6 21 14 51 34 55 35 6 69 25 85 49 15 24 15 38 -1 77 -7 18 1 18
51 -1z m219 -1 c-3 -5 -17 -10 -30 -10 -13 0 -27 5 -30 10 -4 6 8 10 30 10 22
0 34 -4 30 -10z m-367 -7 c-10 -2 -26 -2 -35 0 -10 3 -2 5 17 5 19 0 27 -2 18
-5z m612 -120 c0 -19 -3 -24 -10 -17 -6 6 -8 18 -4 27 9 24 14 21 14 -10z
m-53 -85 c-3 -8 -6 -5 -6 6 -1 11 2 17 5 13 3 -3 4 -12 1 -19z m0 -50 c-3 -8
-6 -5 -6 6 -1 11 2 17 5 13 3 -3 4 -12 1 -19z m-183 -13 c3 -8 11 -15 19 -15
9 0 13 -17 14 -57 0 -32 -2 -50 -4 -41 -2 9 -12 16 -23 15 -20 -1 -16 -22 5
-31 11 -4 12 -12 4 -34 -5 -16 -9 -33 -8 -38 1 -5 1 -17 0 -26 -1 -25 -21 -23
-21 2 0 11 -4 20 -9 20 -6 0 -7 -16 -4 -35 4 -28 2 -35 -10 -35 -12 0 -16 8
-13 28 2 15 1 19 -1 10 -6 -24 -23 -23 -23 2 0 11 -9 25 -20 32 -20 13 -28 38
-12 38 5 0 18 -9 30 -21 12 -11 27 -17 32 -14 5 3 -9 22 -30 42 -22 20 -40 45
-40 57 -1 19 -2 19 -11 4 -7 -12 -6 -24 1 -38 11 -20 6 -40 -9 -40 -5 0 -12
16 -15 35 -4 19 -10 35 -14 35 -4 0 -13 10 -21 21 -12 21 -12 22 18 16 39 -8
68 3 104 39 26 26 30 27 38 11 6 -9 15 -17 20 -17 6 0 3 7 -5 16 -9 8 -16 20
-16 25 0 15 17 10 24 -6z m-374 -5 c0 -5 8 -10 18 -10 10 0 27 -7 38 -15 18
-14 18 -14 -6 -15 -14 0 -36 7 -48 16 -23 16 -29 34 -12 34 6 0 10 -4 10 -10z
m553 -27 c-7 -2 -13 -12 -13 -21 0 -13 -3 -13 -12 -4 -10 10 -10 15 2 22 8 5
20 9 25 9 6 0 4 -3 -2 -6z m-46 -70 c-3 -10 -5 -4 -5 12 0 17 2 24 5 18 2 -7
2 -21 0 -30z m-31 -50 c3 -13 13 -23 21 -23 11 0 14 -8 11 -30 -3 -20 1 -35
11 -43 8 -6 12 -7 9 -2 -4 6 2 11 12 11 18 0 18 -2 3 -18 -9 -10 -26 -18 -39
-18 -15 0 -27 -9 -36 -27 -11 -23 -20 -28 -51 -30 -21 0 -50 -6 -66 -12 -15
-7 -36 -8 -48 -4 -20 7 -20 10 -6 28 11 14 17 16 20 8 9 -24 32 -13 49 25 10
20 27 50 38 67 15 21 20 43 18 77 l-2 49 25 -18 c14 -10 28 -28 31 -40z m154
48 c0 -13 -29 -41 -43 -41 -6 0 0 11 13 24 29 29 30 29 30 17z m-351 -144 c0
-21 -1 -21 -9 -2 -12 28 -12 37 0 30 6 -3 10 -16 9 -28z m-24 3 c3 -5 1 -10
-4 -10 -6 0 -11 5 -11 10 0 6 2 10 4 10 3 0 8 -4 11 -10z m-21 -25 c3 -9 0
-15 -9 -15 -9 0 -12 6 -9 15 4 8 7 15 9 15 2 0 5 -7 9 -15z m286 -25 c0 -5 -8
-10 -17 -10 -15 0 -16 2 -3 10 19 12 20 12 20 0z m-276 -21 c4 6 12 9 17 6 13
-9 11 -32 -3 -32 -23 -1 -43 -8 -51 -18 -5 -6 -6 -2 -3 8 3 10 6 28 6 40 0 20
1 20 13 2 10 -13 16 -15 21 -6z m-64 -49 c0 -5 -4 -10 -10 -10 -5 0 -10 5 -10
10 0 6 5 10 10 10 6 0 10 -4 10 -10z m256 -85 c-17 -13 -56 -9 -56 6 0 9 50
17 64 10 5 -2 1 -10 -8 -16z m44 14 c-11 -8 -12 -12 -2 -16 6 -2 12 -11 12
-19 0 -8 5 -14 11 -14 8 0 10 -17 6 -55 -6 -59 -4 -63 20 -40 20 20 27 13 19
-20 -4 -16 -13 -25 -26 -25 -17 0 -18 -3 -8 -25 6 -14 16 -25 21 -25 6 0 7
-20 4 -50 -4 -31 -2 -50 4 -50 6 0 7 -4 4 -10 -11 -17 7 -11 21 8 7 9 14 12
14 6 0 -5 -9 -20 -20 -32 -19 -20 -18 -58 1 -46 5 3 9 -4 9 -15 0 -15 5 -19
16 -14 12 4 15 2 12 -8 -3 -8 4 -22 15 -31 11 -10 17 -18 12 -18 -4 0 -2 -7 5
-15 7 -8 9 -15 6 -15 -4 0 2 -10 14 -22 11 -12 20 -28 20 -35 0 -7 4 -13 9
-13 5 0 12 -13 16 -29 4 -21 11 -28 21 -24 8 3 14 2 12 -3 -2 -5 2 -10 7 -12
22 -7 15 32 -12 61 l-28 32 33 -29 c17 -17 32 -39 32 -50 0 -17 2 -18 9 -6 6
8 7 18 5 22 -3 4 0 8 7 8 6 0 9 -8 6 -19 -3 -12 0 -18 7 -15 6 2 22 -12 35
-31 19 -29 21 -38 11 -50 -7 -9 -9 -19 -5 -23 4 -4 10 -1 12 6 11 29 20 8 22
-50 1 -35 6 -101 11 -147 5 -46 6 -90 1 -98 -4 -9 -8 6 -9 37 -1 50 -53 180
-72 180 -10 0 5 -66 30 -131 23 -58 21 -73 -4 -34 -9 14 -23 25 -31 25 -7 0
-17 10 -21 23 -4 12 -12 25 -18 30 -8 5 -6 10 4 17 8 5 11 10 5 10 -5 0 -4 4
3 9 9 5 3 8 -17 7 -20 -1 -30 -5 -27 -13 3 -7 0 -15 -6 -19 -7 -4 -5 -10 6
-16 11 -6 15 -16 11 -28 -3 -10 -1 -21 5 -25 5 -3 10 -17 10 -31 0 -15 4 -23
11 -19 7 5 9 -3 7 -21 -2 -16 -8 -28 -14 -27 -15 3 -13 -25 3 -31 15 -6 18
-36 3 -36 -5 0 -13 8 -19 17 -5 10 -13 15 -16 11 -10 -9 15 -81 32 -93 10 -8
12 -17 5 -35 -10 -28 -4 -102 9 -111 5 -3 4 -20 -2 -38 -7 -18 -9 -52 -5 -78
8 -59 -6 -110 -42 -149 -16 -17 -38 -43 -49 -58 -15 -19 -24 -23 -29 -14 -4 6
-2 14 4 16 7 2 12 9 12 15 0 6 8 19 17 29 32 36 77 181 67 217 -4 14 -9 33
-11 41 -11 37 -22 131 -24 190 -1 55 -7 92 -25 155 -17 56 -54 256 -54 289 0
2 -16 23 -35 47 -19 24 -35 51 -35 59 0 8 -6 26 -13 40 -7 14 -14 43 -15 64
-2 23 -10 45 -20 52 -14 10 -15 15 -4 25 6 7 12 17 12 21 0 4 -6 7 -12 6 -9
-2 -14 13 -16 45 -2 33 -7 47 -18 47 -7 0 -14 -6 -14 -14 0 -12 -28 -25 -52
-26 -10 0 -74 60 -65 61 4 1 11 2 16 3 20 2 19 12 -1 13 -27 2 -50 23 -25 23
9 0 17 5 17 10 0 6 -11 10 -24 10 -14 0 -28 5 -32 11 -5 8 1 10 19 5 14 -3 29
-2 32 4 3 5 16 10 28 10 12 0 37 13 56 29 19 17 38 28 42 25 4 -2 10 0 14 6 3
5 2 10 -4 10 -6 0 -6 11 -1 30 5 17 6 30 3 30 -3 0 0 6 6 14 10 12 8 19 -8 35
-26 26 -28 61 -3 61 15 0 15 -2 2 -11z m-159 -36 c-12 -20 -14 -14 -5 12 4 9
9 14 11 11 3 -2 0 -13 -6 -23z m289 -13 c-21 -29 -40 -46 -40 -36 0 7 51 66
57 66 3 0 -5 -13 -17 -30z m350 20 c0 -5 -4 -10 -10 -10 -5 0 -10 5 -10 10 0
6 5 10 10 10 6 0 10 -4 10 -10z m-570 -24 c0 -3 -4 -8 -10 -11 -5 -3 -10 -1
-10 4 0 6 5 11 10 11 6 0 10 -2 10 -4z m45 -66 c0 -9 -7 -14 -20 -12 -26 5
-29 8 -20 22 10 16 40 8 40 -10z m-31 -44 c-8 -21 -18 -20 -35 1 -8 9 -9 14
-4 11 6 -4 17 -3 25 2 18 11 22 7 14 -14z m-184 -41 c0 -5 9 -16 20 -23 11 -7
20 -19 20 -28 0 -8 4 -13 9 -9 5 3 13 0 17 -6 3 -6 1 -15 -6 -19 -10 -6 -9
-15 4 -40 9 -18 16 -37 16 -41 0 -4 11 -19 23 -33 19 -20 32 -56 21 -56 -1 0
-19 16 -40 35 -22 19 -45 33 -51 30 -7 -2 -13 2 -13 11 0 8 -7 17 -15 20 -8 4
-15 13 -15 21 0 8 5 11 12 7 7 -4 8 -3 4 5 -4 6 -3 17 3 24 6 7 6 18 1 26 -4
8 -6 20 -3 28 4 9 0 11 -11 7 -8 -3 -18 -15 -22 -26 -3 -11 -12 -17 -19 -14
-9 3 -11 -2 -8 -17 7 -29 -12 -11 -21 20 -5 15 -1 28 15 44 20 20 26 35 29 69
0 12 4 11 15 -4 8 -11 15 -25 15 -31z m129 29 c9 -8 -10 -34 -25 -34 -10 0
-14 3 -11 6 3 4 2 15 -4 26 -10 18 -8 19 13 13 12 -4 25 -9 27 -11z m286 -83
c-16 -16 -35 -6 -35 18 0 27 10 31 29 13 15 -14 16 -20 6 -31z m491 32 c11
-25 13 -53 4 -53 -4 0 -10 8 -13 18 -2 9 -8 25 -12 35 -4 9 -3 17 3 17 5 0 13
-8 18 -17z m-191 -3 c3 -5 1 -10 -4 -10 -6 0 -11 5 -11 10 0 6 2 10 4 10 3 0
8 -4 11 -10z m-745 -155 c8 0 14 -6 12 -13 -1 -7 5 -26 13 -42 8 -16 11 -31 7
-34 -17 -10 -12 -67 8 -88 11 -12 20 -34 20 -50 0 -15 4 -28 10 -28 5 0 7 -6
4 -14 -3 -7 2 -20 10 -29 9 -9 16 -21 16 -27 0 -7 11 -25 25 -42 14 -16 28
-47 31 -69 4 -21 10 -39 15 -39 16 0 10 -18 -16 -48 -14 -17 -25 -34 -24 -39
1 -4 1 -17 0 -28 -2 -40 -49 83 -66 176 -21 114 -59 268 -80 328 -15 44 -21
114 -7 96 4 -5 14 -10 22 -10z m278 -58 c3 -13 -3 -17 -25 -16 -16 1 -21 3
-11 6 11 3 15 10 11 20 -4 11 -2 14 8 11 8 -3 15 -12 17 -21z m485 -84 c-2
-31 -7 -61 -12 -67 -5 -6 -14 -29 -21 -50 -12 -37 -14 -38 -26 -21 -19 26 -17
53 3 57 14 3 17 12 15 46 -3 34 0 42 13 42 10 0 15 5 12 14 -4 10 9 36 18 36
1 0 0 -26 -2 -57z m58 17 c5 -3 10 -17 12 -30 2 -13 9 -26 15 -28 7 -2 12 -15
12 -29 0 -21 2 -23 15 -13 16 13 35 6 34 -13 0 -9 -2 -9 -6 1 -8 21 -21 13
-19 -13 1 -17 7 -25 19 -25 9 0 17 -4 17 -10 0 -5 -4 -10 -10 -10 -5 0 -10 -7
-10 -15 0 -10 11 -15 35 -15 36 0 48 -15 18 -23 -16 -4 -16 -5 -1 -6 9 0 24 6
33 15 15 16 16 16 13 -2 -2 -15 4 -20 35 -22 20 -2 37 -7 37 -12 0 -4 9 -6 20
-3 12 3 22 -1 26 -11 3 -9 15 -16 25 -16 10 0 19 -2 19 -4 0 -2 3 -11 6 -20 4
-11 1 -16 -10 -16 -9 0 -19 7 -22 15 -6 16 -74 17 -74 2 0 -5 -5 -5 -10 -2 -6
4 -8 11 -5 16 4 5 2 9 -2 9 -15 0 -32 -38 -26 -59 4 -17 2 -20 -13 -14 -14 5
-16 3 -11 -12 6 -15 5 -16 -8 -5 -8 7 -15 10 -15 7 0 -3 -3 -13 -6 -21 -4 -12
-1 -15 12 -14 11 2 20 -1 22 -7 1 -5 -2 -10 -7 -10 -5 0 -12 -3 -16 -7 -4 -4
-12 -5 -19 -2 -15 6 -62 -43 -52 -53 4 -4 12 -1 17 7 9 12 10 12 5 -3 -3 -10
-6 -23 -6 -28 0 -6 -5 -7 -12 -3 -8 5 -9 -3 -5 -30 5 -33 4 -36 -14 -31 -15 5
-19 1 -20 -17 0 -16 -4 -11 -13 17 -8 24 -9 45 -4 52 10 13 -7 27 -22 18 -5
-3 -10 2 -10 11 0 10 -3 14 -7 11 -3 -4 0 -18 7 -32 7 -14 10 -28 7 -32 -4 -3
-7 2 -7 12 0 18 -1 18 -17 2 -15 -15 -16 -19 -3 -27 8 -5 17 -7 21 -4 4 2 5
-13 2 -35 -4 -32 -2 -39 14 -43 11 -3 23 -15 26 -28 3 -12 3 -19 0 -16 -4 3
-13 0 -21 -7 -12 -9 -14 -9 -9 0 9 15 -26 53 -48 53 -9 0 -27 11 -40 24 -13
13 -26 22 -29 19 -12 -12 9 44 22 60 8 9 12 20 9 24 -4 3 2 12 13 20 11 8 20
20 20 26 0 7 -4 6 -10 -3 -8 -12 -10 -11 -10 8 0 39 -18 24 -28 -25 l-10 -48
-2 50 c-4 85 -10 159 -14 172 -3 6 10 45 28 87 18 42 42 114 52 161 10 47 21
80 23 73 2 -7 8 -15 12 -18z m-611 5 c19 -22 8 -25 -12 -3 -10 10 -14 18 -9
18 5 0 14 -7 21 -15z m-40 -46 c0 -6 5 -7 11 -3 8 4 9 -1 4 -17 -6 -20 -5 -22
6 -11 20 19 31 14 24 -9 -5 -15 -4 -19 4 -15 6 4 11 1 11 -8 0 -10 6 -13 15
-10 14 6 20 -10 16 -43 -2 -14 35 -70 59 -90 13 -11 13 -12 -2 -7 -25 9 -22
-1 8 -31 16 -16 32 -24 42 -20 8 3 19 0 24 -7 12 -20 10 -28 -9 -28 -15 0 -15
-2 -4 -9 8 -5 11 -16 8 -26 -4 -9 -12 -13 -19 -9 -8 5 -9 2 -5 -9 10 -26 -19
-9 -31 19 -7 13 -18 24 -26 24 -30 0 -88 89 -122 187 -19 53 -39 102 -44 108
-5 6 -14 23 -19 39 l-11 27 30 -21 c16 -12 30 -26 30 -31z m399 -53 c-2 -2
-13 8 -23 22 l-19 27 24 -22 c12 -12 21 -24 18 -27z m98 22 c-3 -8 -6 -5 -6 6
-1 11 2 17 5 13 3 -3 4 -12 1 -19z m43 8 c0 -16 -18 -31 -27 -22 -8 8 5 36 17
36 5 0 10 -6 10 -14z m511 -99 c-6 -14 -20 -28 -33 -32 -13 -4 -31 -9 -40 -11
-25 -7 -23 13 1 21 11 3 19 11 17 18 -1 7 -1 9 1 5 9 -16 21 -7 33 25 9 27 13
29 21 15 6 -10 6 -26 0 -41z m78 1 c11 -18 11 -20 -3 -15 -12 5 -15 -1 -12
-28 1 -19 -2 -35 -6 -35 -5 0 -6 -5 -2 -12 4 -6 -1 -17 -10 -24 -11 -8 -13
-14 -7 -19 6 -3 11 -1 11 4 0 6 5 11 10 11 6 0 10 -9 10 -20 0 -22 -28 -40
-49 -32 -10 3 -11 0 -5 -9 6 -11 5 -12 -8 -2 -8 7 -18 9 -23 5 -4 -4 -2 3 4
16 7 12 9 27 6 32 -3 5 0 8 7 5 12 -4 25 15 46 65 5 13 4 13 -12 0 -21 -16
-45 -22 -65 -15 -9 4 0 20 30 53 47 51 57 54 78 20z m-585 -43 c-7 -16 -24
-21 -24 -6 0 8 7 13 27 20 1 1 0 -6 -3 -14z m360 -9 c-3 -8 -13 -12 -27 -8
-20 5 -20 6 -1 13 29 11 34 10 28 -5z m229 -130 c4 -10 1 -13 -9 -9 -7 3 -14
9 -14 14 0 14 17 10 23 -5z m-273 -36 c0 -5 -5 -10 -11 -10 -5 0 -7 5 -4 10 3
6 8 10 11 10 2 0 4 -4 4 -10z m253 -19 c37 -14 34 -30 -5 -29 -42 1 -65 -5
-80 -20 -7 -7 -18 -12 -25 -12 -7 0 -13 -5 -13 -12 0 -6 -3 -9 -6 -5 -9 9 -43
-35 -37 -49 2 -7 -1 -15 -8 -20 -8 -4 -10 -3 -5 4 4 7 4 17 1 23 -4 6 -13 -1
-21 -16 -17 -32 -17 -38 -4 -30 6 3 10 -1 10 -9 0 -8 -9 -18 -20 -21 -16 -5
-19 -13 -15 -36 5 -29 -9 -41 -18 -16 -3 6 -6 -3 -6 -21 -1 -30 1 -32 19 -22
17 9 20 8 20 -9 0 -11 6 -22 13 -25 10 -5 10 -7 0 -12 -7 -3 -13 -10 -13 -15
0 -6 5 -7 10 -4 6 3 10 2 10 -4 0 -5 -5 -13 -10 -16 -7 -4 -7 -13 0 -26 6 -11
8 -23 6 -28 -3 -5 2 -12 11 -15 9 -4 20 -2 23 4 5 8 9 6 13 -5 4 -9 3 -13 -2
-10 -5 3 -13 0 -17 -6 -9 -16 18 -30 33 -17 9 7 13 7 13 -1 0 -7 4 -10 8 -7 5
3 7 -9 6 -27 -2 -18 -1 -24 2 -15 5 15 7 15 25 -3 11 -11 24 -17 28 -14 11 6
23 -24 14 -37 -3 -6 -2 -8 4 -5 5 4 10 -7 10 -23 0 -19 -5 -30 -14 -30 -8 0
-12 -4 -9 -9 3 -5 17 -8 32 -8 26 0 52 -18 42 -28 -3 -4 -15 -7 -27 -8 -11 -1
-21 -4 -21 -7 0 -3 -12 -5 -27 -5 -16 1 -36 -5 -45 -13 -16 -14 -18 -13 -19 4
0 10 -3 14 -5 8 -6 -13 -44 -7 -44 7 0 5 11 9 25 9 14 0 25 4 25 10 0 5 -32
44 -71 85 -49 52 -69 80 -65 91 5 12 2 15 -10 10 -11 -4 -19 3 -27 24 -6 16
-15 30 -20 30 -5 0 -4 7 4 16 10 13 10 17 -2 25 -8 5 -9 9 -4 9 6 0 2 7 -9 15
-10 7 -16 20 -14 27 3 7 -1 31 -7 53 -12 44 -10 75 7 75 6 0 8 13 4 35 -5 23
-3 35 4 35 6 0 8 5 5 10 -13 21 77 140 115 153 25 8 173 0 203 -12z m-1103
-32 c0 -6 -4 -7 -10 -4 -5 3 -10 11 -10 16 0 6 5 7 10 4 6 -3 10 -11 10 -16z
m780 -9 c0 -5 -7 -10 -16 -10 -8 0 -12 5 -9 10 3 6 10 10 16 10 5 0 9 -4 9
-10z m464 -42 c-6 -9 -53 22 -54 35 0 5 13 0 29 -9 17 -10 28 -21 25 -26z
m-1201 8 c9 -7 17 -22 17 -32 0 -10 6 -31 14 -46 8 -15 17 -41 21 -58 5 -21
11 -30 21 -26 15 6 19 -28 8 -58 -10 -27 -23 -18 -34 24 -6 22 -15 40 -21 40
-5 0 -9 8 -7 18 2 13 -3 16 -19 14 -26 -4 -31 15 -8 24 17 7 20 40 5 49 -6 4
-18 1 -27 -7 -9 -7 -14 -8 -10 -2 3 6 0 20 -8 30 -13 19 -14 19 -30 -1 -16
-20 -16 -19 -9 5 9 34 9 34 40 13 27 -18 28 -17 22 5 -7 25 -1 27 25 8z m394
-91 c-4 -8 -2 -17 2 -19 12 -8 22 -63 15 -80 -3 -8 -12 -12 -20 -9 -10 4 -11
10 -3 25 12 22 -6 72 -23 62 -12 -8 -10 5 5 21 16 19 31 19 24 0z m-437 -42
c0 -8 7 -21 15 -29 8 -8 12 -21 9 -29 -4 -8 -2 -15 4 -15 6 0 15 -13 21 -30 6
-17 6 -30 1 -30 -13 0 -6 -70 9 -99 7 -12 11 -40 10 -61 -2 -22 0 -43 5 -47 4
-4 7 -3 6 2 -5 21 1 24 24 15 20 -7 27 -5 40 13 8 12 15 17 15 11 1 -6 -5 -17
-13 -24 -8 -6 -13 -17 -10 -25 3 -7 1 -16 -5 -20 -6 -3 -11 -14 -11 -24 0 -16
-70 -71 -90 -71 -4 0 -8 -6 -7 -12 1 -49 -3 -59 -22 -48 -11 5 -27 7 -35 4
-12 -4 -16 0 -16 15 0 15 13 27 45 43 25 12 45 28 45 35 0 7 7 10 15 7 26 -10
16 12 -10 24 -33 15 -34 15 -28 -6 3 -14 -10 -26 -62 -52 -38 -19 -72 -44 -80
-59 -12 -23 -14 -23 -14 -6 -1 32 14 47 70 69 29 12 56 28 60 36 10 20 22 53
24 65 1 6 4 17 8 25 21 56 20 68 -30 252 -28 104 -29 115 -8 98 8 -7 15 -19
15 -27z m497 15 c-3 -8 -6 -5 -6 6 -1 11 2 17 5 13 3 -3 4 -12 1 -19z m200
-40 c-3 -8 -6 -5 -6 6 -1 11 2 17 5 13 3 -3 4 -12 1 -19z m-191 -22 c2 -14 0
-26 -6 -26 -5 0 -10 14 -10 32 0 36 9 33 16 -6z m881 -28 c-3 -8 -6 -5 -6 6
-1 11 2 17 5 13 3 -3 4 -12 1 -19z m-880 -40 c-3 -7 -5 -2 -5 12 0 14 2 19 5
13 2 -7 2 -19 0 -25z m-37 -18 c0 -5 -4 -10 -10 -10 -5 0 -10 5 -10 10 0 6 5
10 10 10 6 0 10 -4 10 -10z m37 -52 c-3 -7 -5 -2 -5 12 0 14 2 19 5 13 2 -7 2
-19 0 -25z m92 -68 c48 -77 59 -100 45 -100 -13 0 -89 23 -95 29 -11 10 -20
151 -10 151 5 0 32 -36 60 -80z m-429 49 c0 -18 -2 -19 -15 -9 -15 12 -12 30
6 30 5 0 9 -10 9 -21z m350 -89 c0 -33 -4 -60 -10 -60 -6 0 -10 27 -10 60 0
33 4 60 10 60 6 0 10 -27 10 -60z m760 40 c0 -11 -4 -20 -8 -20 -4 0 -8 9 -8
20 0 11 4 20 8 20 4 0 8 -9 8 -20z m-1104 -17 c-10 -10 -19 5 -10 18 6 11 8
11 12 0 2 -7 1 -15 -2 -18z m1221 -5 c-3 -7 -5 -2 -5 12 0 14 2 19 5 13 2 -7
2 -19 0 -25z m-177 -4 c0 -21 3 -24 14 -15 25 21 65 9 76 -23 20 -57 15 -66
-35 -66 -29 0 -45 4 -45 13 0 8 -4 7 -11 -3 -8 -11 -9 -4 -5 27 4 24 2 44 -4
48 -13 8 -13 45 0 45 6 0 10 -12 10 -26z m-546 -30 c3 -9 6 -23 6 -32 -1 -12
-5 -10 -15 8 -8 14 -14 28 -15 33 0 13 18 7 24 -9z m682 -24 c12 0 12 -4 2
-20 -14 -23 -14 -23 -21 15 -4 17 -4 24 -1 18 3 -7 12 -13 20 -13z m-520 -24
c8 -8 14 -18 14 -22 0 -4 8 -17 18 -28 16 -20 16 -20 -1 -7 -21 17 -61 71 -52
71 4 0 13 -6 21 -14z m284 -30 c0 -2 3 -12 6 -21 6 -15 4 -15 -15 -4 -25 16
-27 29 -6 29 8 0 15 -2 15 -4z m-550 -10 c0 -2 -7 -9 -15 -16 -12 -10 -15 -10
-15 4 0 9 7 16 15 16 8 0 15 -2 15 -4z m577 -28 c-3 -8 -6 -5 -6 6 -1 11 2 17
5 13 3 -3 4 -12 1 -19z m-1267 -20 c-45 -23 -62 -20 -40 7 7 8 29 15 48 15
l36 0 -44 -22z m570 -1 c0 -7 -16 -36 -35 -65 -20 -28 -38 -66 -42 -83 l-6
-31 -20 21 -21 20 47 60 c26 33 47 66 47 75 0 9 7 16 15 16 8 0 15 -6 15 -13z
m420 -25 c48 -14 59 -20 43 -24 -12 -3 -23 -2 -25 3 -2 6 -35 12 -74 16 -78 6
-74 8 -142 -77 -35 -44 -32 -17 4 32 22 31 45 51 66 57 47 13 56 13 128 -7z
m-380 -2 c0 -5 -5 -10 -11 -10 -5 0 -7 5 -4 10 3 6 8 10 11 10 2 0 4 -4 4 -10z
m-199 -38 c-5 -10 -18 -25 -28 -33 -12 -10 -11 -5 6 19 24 35 38 43 22 14z
m184 -7 c-1 -14 -5 -28 -8 -32 -4 -3 -7 -14 -7 -24 0 -10 -9 -23 -19 -29 -26
-13 -31 -13 -31 3 0 12 56 107 63 107 1 0 2 -11 2 -25z m365 15 c0 -5 -3 -9
-7 -8 -22 4 -61 -25 -78 -58 -11 -22 -21 -41 -22 -43 -1 -1 -8 3 -16 10 -14
14 -12 44 6 67 23 29 117 55 117 32z m-900 -16 c0 -8 -4 -12 -10 -9 -5 3 -10
10 -10 16 0 5 5 9 10 9 6 0 10 -7 10 -16z m185 6 c-3 -5 -13 -10 -21 -10 -8 0
-14 5 -14 10 0 6 9 10 21 10 11 0 17 -4 14 -10z m1385 -24 c0 -2 -7 -7 -16
-10 -8 -3 -12 -2 -9 4 6 10 25 14 25 6z m-1513 -12 c-3 -3 -12 -4 -19 -1 -8 3
-5 6 6 6 11 1 17 -2 13 -5z m913 -3 c0 -6 -4 -13 -10 -16 -5 -3 -10 1 -10 9 0
9 5 16 10 16 6 0 10 -4 10 -9z m506 -10 c-1 -18 -32 -40 -56 -41 -9 0 -21 -5
-27 -11 -10 -10 -56 -16 -173 -23 -25 -2 -80 -7 -122 -11 -56 -6 -78 -5 -78 4
0 6 5 11 11 11 5 0 7 5 4 10 -3 6 0 10 8 10 7 0 33 10 57 21 49 24 182 44 301
45 64 1 76 -2 75 -15z m-536 -5 c0 -8 -9 -18 -20 -21 -11 -3 -20 -15 -20 -26
0 -12 -7 -19 -20 -19 -58 0 -12 75 48 79 6 1 12 -5 12 -13z"></path>
<path class="node" id="node2" d="M560 2490 c0 -5 4 -10 9 -10 6 0 13 5 16 10 3 6 -1 10 -9 10 -9 0
-16 -4 -16 -10z"></path>
<path class="node" id="node3" d="M525 2480 c3 -5 8 -10 11 -10 2 0 4 5 4 10 0 6 -5 10 -11 10 -5 0 -7
-4 -4 -10z"></path>
<path class="node" id="node4" d="M601 2461 c-13 -13 -21 -16 -24 -8 -2 7 -7 9 -11 6 -3 -3 1 -14 9
-25 14 -18 15 -18 40 8 14 15 25 30 25 33 0 11 -21 4 -39 -14z"></path>
<path class="node" id="node5" d="M515 2420 c-3 -5 -1 -10 4 -10 6 0 11 5 11 10 0 6 -2 10 -4 10 -3 0
-8 -4 -11 -10z"></path>
<path class="node" id="node6" d="M611 2417 c-8 -11 -9 -17 -3 -17 6 0 9 -7 6 -15 -8 -19 3 -19 22 0 8
8 22 12 32 9 16 -5 15 -5 -1 6 -9 6 -21 9 -26 5 -5 -3 -11 2 -13 11 -3 16 -4
16 -17 1z"></path>
<path class="node" id="node7" d="M732 2260 c0 -14 2 -19 5 -12 2 6 2 18 0 25 -3 6 -5 1 -5 -13z"></path>
<path class="node" id="node8" d="M770 2235 c-7 -9 -10 -18 -7 -22 4 -3 10 2 13 11 5 12 9 14 14 6 5
-8 9 -7 13 4 8 21 -16 21 -33 1z"></path>
<path class="node" id="node9" d="M810 2095 c-8 -9 -8 -15 -2 -15 12 0 26 19 19 26 -2 2 -10 -2 -17
-11z"></path>
<path class="node" id="node10" d="M884 1629 c-19 -22 -19 -22 6 -14 32 10 36 13 24 25 -7 7 -17 3 -30
-11z"></path>
<path class="node" id="node11" d="M1186 1261 c-4 -7 -5 -15 -2 -18 9 -9 19 4 14 18 -4 11 -6 11 -12 0z"></path>
<path class="node" id="node12" d="M1143 1161 c-1 -14 4 -17 25 -13 17 3 21 7 12 10 -8 3 -20 8 -25 13
-7 5 -11 1 -12 -10z"></path>
<path class="node" id="node13" d="M750 1063 c0 -29 12 -24 17 7 2 11 -2 20 -7 20 -6 0 -10 -12 -10 -27z"></path>
<path class="node" id="node14" d="M1515 1165 c-11 -8 -16 -15 -11 -15 5 0 -1 -11 -14 -25 -24 -25 -16
-36 9 -12 10 8 12 8 7 0 -4 -7 1 -11 13 -10 20 1 38 37 18 37 -6 0 -7 3 -3 7
4 5 14 -1 22 -11 7 -11 17 -16 21 -12 4 3 -4 18 -18 31 -23 23 -27 24 -44 10z"></path>
<path class="node" id="node15" d="M1587 1153 c3 -7 6 -13 8 -13 2 0 5 6 8 13 3 8 -1 14 -8 14 -7 0 -11
-6 -8 -14z"></path>
<path class="node" id="node16" d="M1500 1080 c0 -5 5 -10 10 -10 6 0 10 5 10 10 0 6 -4 10 -10 10 -5 0
-10 -4 -10 -10z"></path>
<path class="node" id="node17" d="M1390 1009 c0 -5 5 -7 10 -4 6 3 10 8 10 11 0 2 -4 4 -10 4 -5 0 -10
-5 -10 -11z"></path>
<path class="node" id="node18" d="M1487 923 c-5 -26 -2 -42 7 -32 9 11 15 59 7 59 -5 0 -11 -12 -14
-27z"></path>
<path class="node" id="node19" d="M1650 625 c0 -14 4 -25 9 -25 5 0 9 11 9 25 0 14 -4 25 -9 25 -5 0
-9 -11 -9 -25z"></path>
<path class="node" id="node20" d="M831 724 c0 -11 3 -14 6 -6 3 7 2 16 -1 19 -3 4 -6 -2 -5 -13z"></path>
<path class="node" id="node21" d="M874 464 c3 -9 6 -21 6 -27 0 -16 20 14 20 31 0 6 -7 12 -16 12 -11
0 -14 -5 -10 -16z"></path>
</g>
<g transform="translate(0.000000,300.000000) scale(0.100000,-0.100000)" fill="#FFFFFF" stroke="none">

<path class="node" id="node23" d="M685 2806 c-31 -14 -79 -60 -88 -86 -3 -8 -6 0 -6 18 -1 17 -5 32
-10 32 -12 0 -9 -51 4 -67 7 -8 22 0 55 32 51 48 79 65 110 65 12 0 18 5 15
10 -8 14 -44 12 -80 -4z"></path>
<path class="node" id="node24" d="M780 2736 c0 -2 7 -9 15 -16 13 -11 14 -10 9 4 -5 14 -24 23 -24 12z"></path>
<path class="node" id="node25" d="M640 2690 c0 -5 7 -10 15 -10 8 0 15 5 15 10 0 6 -7 10 -15 10 -8 0
-15 -4 -15 -10z"></path>
<path class="node" id="node26" d="M525 2662 c16 -39 16 -53 1 -77 -16 -24 -50 -43 -85 -49 -20 -4 -40
-34 -34 -55 5 -20 64 -79 83 -83 7 -2 22 -11 33 -22 16 -15 21 -16 28 -5 7 11
9 10 9 -3 0 -20 16 -22 71 -9 21 5 43 5 50 0 9 -5 21 -1 34 10 11 10 27 21 35
24 8 3 2 6 -15 6 -21 1 -26 4 -16 10 17 11 -4 25 -21 15 -8 -5 -7 0 2 11 14
17 14 18 -5 8 -28 -14 -52 -5 -29 11 15 12 15 16 3 44 -7 17 -16 27 -19 23 -3
-5 -16 -12 -30 -16 -22 -7 -23 -7 -7 9 9 9 14 23 11 31 -4 8 -2 15 4 15 10 0
7 15 -14 72 -3 9 -20 22 -38 29 -50 19 -58 19 -51 1z m60 -172 c-3 -5 -10 -10
-16 -10 -5 0 -9 5 -9 10 0 6 7 10 16 10 8 0 12 -4 9 -10z m-45 -10 c0 -5 -2
-10 -4 -10 -3 0 -8 5 -11 10 -3 6 -1 10 4 10 6 0 11 -4 11 -10z m100 -5 c0 -3
-11 -18 -25 -33 -25 -26 -26 -26 -40 -8 -8 11 -12 22 -9 25 4 3 9 1 11 -6 3
-8 11 -5 24 8 18 18 39 25 39 14z m-110 -55 c0 -5 -5 -10 -11 -10 -5 0 -7 5
-4 10 3 6 8 10 11 10 2 0 4 -4 4 -10z m111 -15 c5 4 17 1 26 -5 16 -11 17 -11
1 -6 -10 3 -24 -1 -32 -9 -19 -19 -30 -19 -22 0 3 8 0 15 -6 15 -6 0 -5 6 3
17 13 15 14 15 17 -1 2 -9 8 -14 13 -11z"></path>
<path class="node" id="node27" d="M735 2660 c3 -5 17 -10 30 -10 13 0 27 5 30 10 4 6 -8 10 -30 10 -22
0 -34 -4 -30 -10z"></path>
<path class="node" id="node28" d="M393 2653 c9 -2 25 -2 35 0 9 3 1 5 -18 5 -19 0 -27 -2 -17 -5z"></path>
<path class="node" id="node29" d="M1026 2543 c-4 -9 -2 -21 4 -27 7 -7 10 -2 10 17 0 31 -5 34 -14 10z"></path>
<path class="node" id="node30" d="M981 2454 c0 -11 3 -14 6 -6 3 7 2 16 -1 19 -3 4 -6 -2 -5 -13z"></path>
<path class="node" id="node31" d="M981 2404 c0 -11 3 -14 6 -6 3 7 2 16 -1 19 -3 4 -6 -2 -5 -13z"></path>
<path class="node" id="node32" d="M780 2391 c0 -5 7 -17 16 -25 8 -9 11 -16 5 -16 -5 0 -14 8 -20 17
-8 16 -12 15 -38 -11 -36 -36 -65 -47 -104 -39 -30 6 -30 5 -18 -16 8 -11 17
-21 21 -21 4 0 10 -16 14 -35 3 -19 10 -35 15 -35 15 0 20 20 9 40 -7 14 -8
26 -1 38 9 15 10 15 11 -4 0 -12 18 -37 40 -57 21 -20 35 -39 30 -42 -5 -3
-20 3 -32 14 -12 12 -25 21 -30 21 -16 0 -8 -25 12 -38 11 -7 20 -21 20 -32 0
-25 17 -26 23 -2 2 9 3 5 1 -10 -3 -20 1 -28 13 -28 12 0 14 7 10 35 -3 19 -2
35 4 35 5 0 9 -9 9 -20 0 -25 20 -27 21 -2 1 9 1 21 0 26 -1 5 3 22 8 38 8 22
7 30 -4 34 -21 9 -25 30 -5 31 11 1 21 -6 23 -15 2 -9 4 9 4 41 -1 40 -5 57
-14 57 -8 0 -16 7 -19 15 -7 16 -24 21 -24 6z m-43 -143 c-3 -7 -5 -2 -5 12 0
14 2 19 5 13 2 -7 2 -19 0 -25z m66 -14 c-4 -11 -8 -12 -13 -4 -5 8 -9 6 -14
-6 -3 -9 -9 -14 -13 -11 -8 9 17 37 33 37 8 0 11 -6 7 -16z"></path>
<path class="node" id="node33" d="M410 2381 c0 -16 43 -41 70 -41 24 1 24 1 6 15 -11 8 -28 15 -38 15
-10 0 -18 5 -18 10 0 6 -4 10 -10 10 -5 0 -10 -4 -10 -9z"></path>
<path class="node" id="node34" d="M960 2350 c-12 -7 -12 -12 -2 -22 9 -9 12 -9 12 4 0 9 6 19 13 21 6
3 8 6 2 6 -5 0 -17 -4 -25 -9z"></path>
<path class="node" id="node35" d="M932 2295 c0 -16 2 -22 5 -12 2 9 2 23 0 30 -3 6 -5 -1 -5 -18z"></path>
<path class="node" id="node36" d="M852 2242 c2 -34 -3 -56 -18 -77 -11 -17 -28 -47 -38 -67 -17 -38
-40 -49 -49 -25 -3 8 -9 6 -20 -8 -14 -18 -14 -21 6 -28 12 -4 33 -3 48 4 16
6 45 12 66 12 31 2 40 7 51 30 9 18 21 27 36 27 13 0 30 8 39 18 15 16 15 18
-3 18 -10 0 -16 -5 -12 -11 3 -5 -1 -4 -9 2 -10 8 -14 23 -11 43 3 22 0 30
-11 30 -8 0 -18 10 -21 23 -3 12 -17 30 -31 40 l-25 18 2 -49z m-27 -151 c-3
-6 -11 -11 -17 -11 -6 0 -6 6 2 15 14 17 26 13 15 -4z"></path>
<path class="node" id="node37" d="M1030 2264 c-13 -13 -19 -24 -13 -24 14 0 43 28 43 41 0 12 -1 12
-30 -17z"></path>
<path class="node" id="node38" d="M691 2163 c0 -4 4 -17 9 -28 8 -19 9 -19 9 2 1 12 -3 25 -9 28 -5 3
-10 3 -9 -2z"></path>
<path class="node" id="node39" d="M670 2140 c0 -5 5 -10 11 -10 5 0 7 5 4 10 -3 6 -8 10 -11 10 -2 0
-4 -4 -4 -10z"></path>
<path class="node" id="node40" d="M646 2115 c-3 -9 0 -15 9 -15 9 0 12 6 9 15 -4 8 -7 15 -9 15 -2 0
-5 -7 -9 -15z"></path>
<path class="node" id="node41" d="M930 2090 c-13 -8 -12 -10 3 -10 9 0 17 5 17 10 0 12 -1 12 -20 0z"></path>
<path class="node" id="node42" d="M640 2073 c0 -12 -3 -30 -6 -40 -3 -10 -2 -14 3 -8 8 10 28 17 51 18
14 0 16 23 3 32 -5 3 -13 0 -17 -6 -5 -9 -11 -7 -21 6 -12 18 -13 18 -13 -2z"></path>
<path class="node" id="node43" d="M590 2020 c0 -5 5 -10 10 -10 6 0 10 5 10 10 0 6 -4 10 -10 10 -5 0
-10 -4 -10 -10z"></path>
<path class="node" id="node44" d="M838 1952 c-16 -2 -28 -7 -28 -11 0 -15 39 -19 56 -6 21 15 9 22 -28
17z"></path>
<path class="node" id="node45" d="M890 1940 c0 -11 9 -29 21 -41 16 -16 18 -23 8 -35 -6 -8 -9 -14 -6
-14 3 0 2 -13 -3 -30 -5 -19 -5 -30 1 -30 6 0 7 -5 4 -10 -4 -6 -10 -8 -14 -6
-4 3 -23 -8 -42 -25 -19 -16 -44 -29 -56 -29 -12 0 -25 -5 -28 -10 -3 -6 -18
-7 -32 -4 -18 5 -24 3 -19 -5 4 -6 18 -11 32 -11 13 0 24 -4 24 -10 0 -5 -8
-10 -17 -10 -25 0 -2 -21 25 -23 20 -1 21 -11 1 -13 -5 -1 -12 -2 -16 -3 -9
-1 55 -61 65 -61 24 1 52 14 52 26 0 8 7 14 14 14 11 0 16 -14 18 -47 2 -32 7
-47 16 -45 6 1 12 -2 12 -6 0 -4 -6 -14 -12 -21 -11 -10 -10 -15 4 -25 10 -7
18 -29 20 -52 1 -21 8 -50 15 -64 7 -14 13 -32 13 -40 0 -8 16 -35 35 -59 19
-24 35 -45 35 -47 0 -33 37 -233 54 -289 18 -63 24 -100 25 -155 2 -59 13
-153 24 -190 2 -8 7 -27 11 -41 10 -36 -35 -181 -67 -217 -9 -10 -17 -23 -17
-29 0 -6 -5 -13 -12 -15 -6 -2 -8 -10 -4 -16 5 -9 14 -5 29 14 11 15 33 41 49
58 36 39 50 90 42 149 -4 26 -2 60 5 78 6 18 7 35 2 38 -13 9 -19 83 -9 111 7
18 5 27 -5 35 -17 12 -42 84 -32 93 3 4 11 -1 16 -11 6 -9 14 -17 19 -17 15 0
12 30 -3 36 -16 6 -18 34 -3 31 6 -1 12 11 14 27 2 18 0 26 -7 21 -7 -4 -11 4
-11 19 0 14 -5 28 -10 31 -6 4 -8 15 -5 25 4 12 0 22 -11 28 -11 6 -13 12 -6
16 6 4 9 12 6 19 -3 8 7 12 27 13 20 1 26 -2 17 -7 -7 -5 -8 -9 -3 -9 6 0 3
-5 -5 -10 -10 -7 -12 -12 -4 -17 6 -5 14 -18 18 -30 4 -13 14 -23 21 -23 8 0
22 -11 31 -25 25 -39 27 -24 4 34 -25 65 -40 131 -30 131 19 0 71 -130 72
-180 1 -31 5 -46 9 -37 5 8 4 52 -1 98 -5 46 -10 112 -11 147 -2 58 -11 79
-22 50 -2 -7 -8 -10 -12 -6 -4 4 -2 14 5 23 10 12 8 21 -11 50 -13 19 -29 33
-35 31 -7 -3 -10 3 -7 15 3 11 0 19 -6 19 -7 0 -10 -4 -7 -8 2 -4 1 -14 -5
-22 -7 -12 -9 -11 -9 6 0 11 -15 33 -32 50 l-33 29 28 -32 c27 -29 34 -68 12
-61 -5 2 -9 7 -7 12 2 5 -4 6 -12 3 -10 -4 -17 3 -21 24 -4 16 -11 29 -16 29
-5 0 -9 6 -9 13 0 7 -9 23 -20 35 -12 12 -18 22 -14 22 3 0 1 7 -6 15 -7 8 -9
15 -5 15 5 0 -1 8 -12 18 -11 9 -18 23 -15 31 3 10 0 12 -12 8 -11 -5 -16 -1
-16 14 0 11 -4 18 -9 15 -19 -12 -20 26 -1 46 11 12 20 27 20 32 0 6 -7 3 -14
-6 -14 -19 -32 -25 -21 -8 3 6 2 10 -4 10 -6 0 -8 19 -4 50 3 30 2 50 -4 50
-5 0 -15 11 -21 25 -10 22 -9 25 8 25 13 0 22 9 26 25 8 33 1 40 -19 20 -24
-23 -26 -19 -20 40 4 38 2 55 -6 55 -6 0 -11 6 -11 14 0 8 -6 17 -12 19 -10 4
-9 8 2 16 13 9 13 11 -2 11 -11 0 -18 -8 -18 -20z m29 -314 c-2 -2 -15 -7 -29
-11 -25 -8 -25 -8 -6 14 13 14 23 18 30 11 5 -5 8 -11 5 -14z m277 -383 c-10
-10 -19 5 -10 18 6 11 8 11 12 0 2 -7 1 -15 -2 -18z m-16 -85 c9 -3 5 -7 -12
-10 -21 -4 -26 -1 -25 13 1 11 5 15 12 10 5 -5 17 -10 25 -13z"></path>
<path class="node" id="node46" d="M746 1925 c-9 -26 -7 -32 5 -12 6 10 9 21 6 23 -2 3 -7 -2 -11 -11z"></path>
<path class="node" id="node47" d="M1027 1900 c-27 -30 -35 -46 -17 -35 11 7 53 65 47 65 -2 0 -16 -13
-30 -30z"></path>
<path class="node" id="node48" d="M1370 1920 c0 -5 5 -10 10 -10 6 0 10 5 10 10 0 6 -4 10 -10 10 -5 0
-10 -4 -10 -10z"></path>
<path class="node" id="node49" d="M800 1889 c0 -5 5 -7 10 -4 6 3 10 8 10 11 0 2 -4 4 -10 4 -5 0 -10
-5 -10 -11z"></path>
<path class="node" id="node50" d="M825 1840 c-9 -14 -6 -17 20 -22 13 -2 20 3 20 12 0 18 -30 26 -40
10z"></path>
<path class="node" id="node51" d="M820 1800 c-8 -5 -19 -6 -25 -2 -5 3 -4 -2 4 -11 17 -21 27 -22 35
-1 8 21 4 25 -14 14z"></path>
<path class="node" id="node52" d="M620 1780 c-3 -34 -9 -49 -29 -69 -16 -16 -20 -29 -15 -44 9 -31 28
-49 21 -20 -3 15 -1 20 8 17 7 -3 16 3 19 14 4 11 14 23 22 26 11 4 15 2 11
-7 -3 -8 -1 -20 3 -28 5 -8 5 -19 -1 -26 -6 -7 -7 -18 -3 -24 4 -8 3 -9 -4 -5
-7 4 -12 1 -12 -7 0 -8 7 -17 15 -21 8 -3 15 -12 15 -20 0 -9 6 -13 13 -11 6
3 29 -11 51 -30 21 -19 39 -35 40 -35 11 0 -2 36 -21 56 -12 14 -23 29 -23 33
0 4 -7 23 -16 41 -13 25 -14 34 -4 40 7 4 9 13 6 19 -4 6 -12 9 -17 6 -5 -4
-9 1 -9 9 0 9 -9 21 -20 28 -11 7 -20 18 -20 23 0 6 -7 20 -15 31 -11 15 -15
16 -15 4z"></path>
<path class="node" id="node53" d="M739 1772 c6 -11 7 -22 4 -26 -3 -3 1 -6 11 -6 9 0 19 7 23 15 7 19
5 20 -25 30 -21 6 -23 5 -13 -13z"></path>
<path class="node" id="node54" d="M1036 1733 c-10 -10 -7 -41 5 -49 6 -3 17 0 24 7 10 11 9 17 -6 31
-9 9 -20 14 -23 11z"></path>
<path class="node" id="node55" d="M1535 1723 c4 -10 10 -26 12 -35 3 -10 9 -18 13 -18 4 0 6 8 5 18 -2
26 -16 52 -27 52 -6 0 -7 -8 -3 -17z"></path>
<path class="node" id="node56" d="M1350 1720 c0 -5 5 -10 11 -10 5 0 7 5 4 10 -3 6 -8 10 -11 10 -2 0
-4 -4 -4 -10z"></path>
<path class="node" id="node57" d="M590 1554 c0 -17 7 -51 15 -75 21 -60 59 -214 80 -328 17 -93 64
-216 66 -176 1 11 1 24 0 28 -1 5 10 22 24 39 26 30 32 48 16 48 -5 0 -11 18
-15 39 -3 22 -17 53 -31 69 -14 17 -25 35 -25 42 0 6 -7 18 -16 27 -8 9 -13
22 -10 29 3 8 1 14 -4 14 -6 0 -10 13 -10 28 0 16 -9 38 -20 50 -20 21 -25 78
-8 88 4 3 1 18 -7 34 -8 16 -14 35 -13 42 2 7 -4 13 -12 13 -8 0 -18 5 -22 10
-4 6 -8 -4 -8 -21z m177 -484 c-5 -31 -17 -36 -17 -7 0 15 4 27 10 27 5 0 9
-9 7 -20z"></path>
<path class="node" id="node58" d="M873 1517 c4 -10 0 -17 -11 -20 -10 -3 -5 -5 11 -6 22 -1 28 3 25 16
-2 9 -9 18 -17 21 -10 3 -12 0 -8 -11z"></path>
<path class="node" id="node59" d="M1373 1469 c-6 -6 -9 -18 -6 -25 3 -9 -2 -14 -12 -14 -13 0 -16 -8
-13 -42 2 -34 -1 -43 -15 -46 -20 -4 -22 -31 -3 -57 12 -17 14 -16 26 21 7 21
16 44 21 50 7 8 20 124 14 124 0 0 -6 -5 -12 -11z"></path>
<path class="node" id="node60" d="M1406 1385 c-10 -47 -34 -119 -52 -161 -18 -42 -31 -81 -28 -87 4
-13 10 -87 14 -172 l2 -50 10 48 c10 49 28 64 28 25 0 -19 2 -20 10 -8 6 9 10
10 10 3 0 -6 -9 -18 -20 -26 -11 -8 -17 -17 -13 -20 3 -4 -1 -15 -9 -24 -13
-16 -34 -72 -22 -60 3 3 16 -6 29 -19 13 -13 31 -24 40 -24 22 0 57 -38 48
-53 -5 -9 -3 -9 9 0 8 7 17 10 21 7 3 -3 3 4 0 16 -3 13 -15 25 -26 28 -16 4
-18 11 -14 43 3 22 2 37 -2 35 -4 -3 -13 -1 -21 4 -13 8 -12 12 3 27 16 16 17
16 17 -2 0 -10 3 -15 7 -12 3 4 0 18 -7 32 -7 14 -10 28 -7 32 4 3 7 -1 7 -11
0 -9 5 -14 10 -11 15 9 32 -5 22 -18 -5 -7 -4 -28 4 -52 9 -28 13 -33 13 -17
1 18 5 22 20 17 18 -5 19 -2 14 31 -4 27 -3 35 5 30 7 -4 12 -3 12 3 0 5 3 18
6 28 5 15 4 15 -5 3 -5 -8 -13 -11 -17 -7 -10 10 37 59 52 53 7 -3 15 -2 19 2
4 4 11 7 16 7 5 0 8 5 7 10 -2 6 -11 9 -22 7 -13 -1 -16 2 -12 14 3 8 6 18 6
21 0 3 7 0 15 -7 13 -11 14 -10 8 5 -5 15 -3 17 11 12 15 -6 17 -3 13 14 -6
21 11 59 26 59 4 0 6 -4 2 -9 -3 -5 -1 -12 5 -16 5 -3 10 -3 10 2 0 15 68 14
74 -2 3 -8 13 -15 22 -15 11 0 14 5 10 16 -3 9 -6 18 -6 20 0 2 -9 4 -19 4
-10 0 -22 7 -25 16 -4 10 -14 14 -26 11 -11 -3 -20 -1 -20 3 0 5 -17 10 -37
12 -31 2 -37 7 -35 22 3 18 2 18 -13 2 -9 -9 -24 -15 -33 -15 -15 1 -15 2 1 6
30 8 18 23 -18 23 -24 0 -35 5 -35 15 0 8 5 15 10 15 6 0 10 5 10 10 0 6 -8
10 -17 10 -12 0 -18 8 -19 25 -2 26 11 34 19 13 4 -10 6 -10 6 -1 1 19 -18 26
-34 13 -13 -10 -15 -8 -15 13 0 14 -5 27 -12 29 -6 2 -13 15 -15 28 -2 13 -7
27 -12 30 -4 3 -10 11 -12 18 -2 7 -13 -26 -23 -73z m171 -261 c-4 -4 -14 1
-21 12 -8 10 -18 16 -22 11 -4 -4 -3 -7 3 -7 20 0 2 -36 -18 -37 -12 -1 -17 3
-13 10 5 8 3 8 -7 0 -25 -24 -33 -13 -9 12 13 14 19 25 14 25 -5 0 0 7 11 15
17 14 21 13 44 -10 14 -13 22 -28 18 -31z m26 29 c-3 -7 -6 -13 -8 -13 -2 0
-5 6 -8 13 -3 8 1 14 8 14 7 0 11 -6 8 -14z m-83 -73 c0 -5 -4 -10 -10 -10 -5
0 -10 5 -10 10 0 6 5 10 10 10 6 0 10 -4 10 -10z m-110 -64 c0 -3 -4 -8 -10
-11 -5 -3 -10 -1 -10 4 0 6 5 11 10 11 6 0 10 -2 10 -4z m94 -93 c-7 -31 -12
-38 -18 -32 -7 7 6 59 15 59 5 0 6 -12 3 -27z"></path>
<path class="node" id="node61" d="M818 1442 c9 -10 19 -17 21 -16 6 5 -20 34 -30 34 -5 0 -1 -8 9 -18z"></path>
<path class="node" id="node62" d="M741 1424 c5 -16 14 -33 19 -39 5 -6 25 -55 44 -108 34 -98 92 -187
122 -187 8 0 19 -11 26 -24 12 -28 41 -45 31 -19 -4 11 -3 14 5 9 7 -4 15 0
19 9 3 10 0 21 -8 26 -11 7 -11 9 4 9 19 0 21 8 9 28 -5 7 -16 10 -24 7 -10
-4 -26 4 -42 20 -30 30 -33 40 -8 31 15 -5 15 -4 2 7 -24 20 -61 76 -59 90 4
33 -2 49 -16 43 -9 -3 -15 0 -15 10 0 9 -5 12 -11 8 -8 -4 -9 0 -4 15 7 23 -4
28 -24 9 -11 -11 -12 -9 -6 11 5 16 4 21 -4 17 -6 -4 -11 -3 -11 3 0 5 -14 19
-30 31 l-30 21 11 -27z"></path>
<path class="node" id="node63" d="M1166 1368 c10 -14 21 -24 23 -22 3 3 -6 15 -18 27 l-24 22 19 -27z"></path>
<path class="node" id="node64" d="M1281 1374 c0 -11 3 -14 6 -6 3 7 2 16 -1 19 -3 4 -6 -2 -5 -13z"></path>
<path class="node" id="node65" d="M1303 1375 c-3 -9 -3 -18 0 -21 9 -9 27 6 27 22 0 19 -19 18 -27 -1z"></path>
<path class="node" id="node66" d="M1820 1303 c-12 -32 -24 -41 -33 -25 -2 4 -2 2 -1 -5 2 -7 -6 -15
-17 -18 -24 -8 -26 -28 -1 -21 9 2 27 7 40 11 28 8 46 49 33 73 -8 14 -12 12
-21 -15z"></path>
<path class="node" id="node67" d="M1841 1258 c-30 -33 -39 -49 -30 -53 20 -7 44 -1 65 15 16 13 17 13
12 0 -21 -50 -34 -69 -46 -65 -7 3 -10 0 -7 -5 3 -5 1 -20 -6 -32 -6 -13 -8
-20 -4 -16 5 4 15 2 23 -5 13 -10 14 -9 8 2 -6 9 -5 12 5 9 21 -8 49 10 49 32
0 11 -4 20 -10 20 -5 0 -10 -5 -10 -11 0 -5 -5 -7 -11 -4 -6 5 -4 11 7 19 9 7
14 18 10 24 -4 7 -3 12 2 12 4 0 7 16 6 35 -3 27 0 33 12 28 14 -5 14 -3 3 15
-21 34 -31 31 -78 -20z"></path>
<path class="node" id="node68" d="M1323 1243 c-15 -5 -17 -23 -4 -23 5 0 11 7 15 15 3 8 4 15 3 14 -1
0 -8 -3 -14 -6z"></path>
<path class="node" id="node69" d="M1666 1231 c-19 -7 -19 -8 1 -13 14 -4 24 0 27 8 6 15 1 16 -28 5z"></path>
<path class="node" id="node70" d="M1900 1101 c0 -5 7 -11 14 -14 10 -4 13 -1 9 9 -6 15 -23 19 -23 5z"></path>
<path class="node" id="node71" d="M1635 1060 c-3 -5 -1 -10 4 -10 6 0 11 5 11 10 0 6 -2 10 -4 10 -3 0
-8 -4 -11 -10z"></path>
<path class="node" id="node72" d="M1700 1053 c-38 -13 -128 -132 -115 -153 3 -5 1 -10 -5 -10 -7 0 -9
-12 -4 -35 4 -22 2 -35 -4 -35 -17 0 -19 -31 -7 -75 6 -22 10 -46 7 -53 -2 -7
4 -20 14 -27 11 -8 15 -15 9 -15 -5 0 -4 -4 4 -9 12 -8 12 -12 2 -25 -8 -9 -9
-16 -4 -16 5 0 14 -14 20 -30 8 -21 16 -28 27 -24 12 5 15 2 10 -10 -4 -11 16
-39 65 -91 39 -41 71 -80 71 -85 0 -6 -11 -10 -25 -10 -14 0 -25 -4 -25 -9 0
-14 38 -20 44 -7 2 6 5 2 5 -8 1 -17 3 -18 19 -4 9 8 29 14 45 13 15 0 27 2
27 5 0 3 10 6 21 7 12 1 24 4 27 8 10 10 -16 28 -42 28 -15 0 -29 3 -32 8 -3
5 1 9 9 9 9 0 14 11 14 30 0 16 -5 27 -10 23 -6 -3 -7 -1 -4 5 9 13 -3 43 -14
37 -4 -3 -17 3 -28 14 -18 18 -20 18 -25 3 -3 -9 -4 -3 -2 15 1 18 -1 30 -6
27 -4 -3 -8 0 -8 7 0 8 -4 8 -13 1 -15 -13 -42 1 -33 17 4 6 12 9 17 6 5 -3 6
1 2 10 -4 11 -8 13 -13 5 -3 -6 -14 -8 -23 -4 -9 3 -14 10 -11 15 2 5 0 17 -6
28 -7 13 -7 22 0 26 5 3 10 11 10 16 0 6 -4 7 -10 4 -5 -3 -10 -2 -10 4 0 5 6
12 13 15 10 5 10 7 0 12 -7 3 -13 14 -13 25 0 17 -3 18 -20 9 -18 -10 -20 -8
-19 22 0 18 3 27 6 21 9 -25 23 -13 18 16 -4 23 -1 31 15 36 11 3 20 13 20 21
0 8 -4 12 -10 9 -13 -8 -13 -2 4 30 8 15 17 22 21 16 3 -6 3 -16 -1 -23 -5 -7
-3 -8 5 -4 7 5 10 13 8 20 -6 14 28 58 37 49 3 -4 6 -1 6 5 0 7 6 12 13 12 7
0 18 5 25 12 15 15 38 21 80 20 39 -1 42 15 5 29 -30 12 -178 20 -203 12z
m-32 -428 c0 -14 -4 -25 -9 -25 -5 0 -9 11 -9 25 0 14 4 25 9 25 5 0 9 -11 9
-25z"></path>
<path class="node" id="node73" d="M780 1021 c0 -5 5 -13 10 -16 6 -3 10 -2 10 4 0 5 -4 13 -10 16 -5 3
-10 2 -10 -4z"></path>
<path class="node" id="node74" d="M1555 1000 c-3 -5 1 -10 9 -10 9 0 16 5 16 10 0 6 -4 10 -9 10 -6 0
-13 -4 -16 -10z"></path>
<path class="node" id="node75" d="M1990 993 c1 -13 48 -44 54 -35 3 5 -8 16 -25 26 -16 9 -29 14 -29 9z"></path>
<path class="node" id="node76" d="M818 958 c6 -22 5 -23 -22 -5 -31 21 -31 21 -40 -13 -7 -24 -7 -25 9
-5 16 20 17 20 30 1 8 -10 11 -24 8 -30 -4 -6 1 -5 10 2 9 8 21 11 27 7 15 -9
12 -42 -5 -49 -23 -9 -18 -28 8 -24 16 2 21 -1 19 -14 -2 -10 2 -18 7 -18 6 0
15 -18 21 -40 11 -42 24 -51 34 -24 11 30 7 64 -8 58 -10 -4 -16 5 -21 26 -4
17 -13 43 -21 58 -8 15 -14 36 -14 46 0 17 -25 45 -42 46 -3 0 -4 -10 0 -22z"></path>
<path class="node" id="node77" d="M1213 875 c-15 -16 -17 -29 -5 -21 17 10 35 -40 23 -62 -8 -15 -7
-21 3 -25 8 -3 17 1 20 9 7 17 -3 72 -15 80 -4 2 -6 11 -2 19 7 19 -8 19 -24
0z"></path>
<path class="node" id="node78" d="M770 861 c0 -7 11 -51 23 -99 50 -184 51 -196 30 -252 -4 -8 -7 -19
-8 -25 -2 -12 -14 -45 -24 -65 -4 -8 -31 -24 -60 -36 -56 -22 -71 -37 -70 -69
0 -17 2 -17 14 6 8 15 42 40 80 59 52 26 65 38 62 52 -6 21 -5 21 28 6 26 -12
36 -34 10 -24 -8 3 -15 0 -15 -7 0 -7 -20 -23 -45 -35 -32 -16 -45 -28 -45
-43 0 -15 4 -19 16 -15 8 3 24 1 35 -4 19 -11 23 -1 22 48 -1 6 3 12 7 12 20
0 90 55 90 71 0 10 5 21 11 24 6 4 8 13 5 20 -3 8 2 19 10 25 8 7 14 18 13 24
0 6 -7 1 -15 -11 -13 -18 -20 -20 -40 -13 -23 9 -29 6 -24 -15 1 -5 -2 -6 -6
-2 -5 4 -7 25 -5 47 1 21 -3 49 -10 61 -15 29 -22 99 -9 99 5 0 5 13 -1 30 -6
17 -15 30 -21 30 -6 0 -8 7 -4 15 3 8 -1 21 -9 29 -8 8 -15 21 -15 29 0 8 -7
20 -15 27 -11 9 -15 9 -15 1z m67 -143 c-3 -8 -6 -5 -6 6 -1 11 2 17 5 13 3
-3 4 -12 1 -19z m63 -250 c0 -17 -20 -47 -20 -31 0 6 -3 18 -6 27 -4 11 -1 16
10 16 9 0 16 -6 16 -12z"></path>
<path class="node" id="node79" d="M1291 854 c0 -11 3 -14 6 -6 3 7 2 16 -1 19 -3 4 -6 -2 -5 -13z"></path>
<path class="node" id="node80" d="M1491 814 c0 -11 3 -14 6 -6 3 7 2 16 -1 19 -3 4 -6 -2 -5 -13z"></path>
<path class="node" id="node81" d="M1290 792 c0 -18 5 -32 10 -32 6 0 8 12 6 26 -7 39 -16 42 -16 6z"></path>
<path class="node" id="node82" d="M2181 764 c0 -11 3 -14 6 -6 3 7 2 16 -1 19 -3 4 -6 -2 -5 -13z"></path>
<path class="node" id="node83" d="M1302 730 c0 -14 2 -19 5 -12 2 6 2 18 0 25 -3 6 -5 1 -5 -13z"></path>
<path class="node" id="node84" d="M1250 700 c0 -5 5 -10 10 -10 6 0 10 5 10 10 0 6 -4 10 -10 10 -5 0
-10 -4 -10 -10z"></path>
<path class="node" id="node85" d="M1302 660 c0 -14 2 -19 5 -12 2 6 2 18 0 25 -3 6 -5 1 -5 -13z"></path>
<path class="node" id="node86" d="M1336 588 c4 -40 9 -76 13 -79 6 -6 82 -29 95 -29 3 0 6 4 6 10 0 15
-101 170 -111 170 -5 0 -6 -31 -3 -72z"></path>
<path class="node" id="node87" d="M946 641 c-3 -5 1 -14 9 -21 13 -10 15 -9 15 9 0 21 -14 28 -24 12z"></path>
<path class="node" id="node88" d="M1300 540 c0 -33 4 -60 10 -60 6 0 10 27 10 60 0 33 -4 60 -10 60 -6
0 -10 -27 -10 -60z"></path>
<path class="node" id="node89" d="M2064 580 c0 -11 4 -20 8 -20 4 0 8 9 8 20 0 11 -4 20 -8 20 -4 0 -8
-9 -8 -20z"></path>
<path class="node" id="node90" d="M966 581 c-4 -7 -5 -15 -2 -18 9 -9 19 4 14 18 -4 11 -6 11 -12 0z"></path>
<path class="node" id="node91" d="M2192 570 c0 -14 2 -19 5 -12 2 6 2 18 0 25 -3 6 -5 1 -5 -13z"></path>
<path class="node" id="node92" d="M2000 561 c0 -11 5 -23 10 -26 6 -4 8 -24 4 -48 -4 -31 -3 -38 5 -27
7 10 11 11 11 3 0 -9 16 -13 45 -13 50 0 55 9 35 66 -11 32 -51 44 -76 23 -11
-9 -14 -6 -14 15 0 14 -4 26 -10 26 -5 0 -10 -9 -10 -19z"></path>
<path class="node" id="node93" d="M1450 533 c1 -5 7 -19 15 -33 10 -18 14 -20 15 -8 0 23 -11 48 -21
48 -5 0 -9 -3 -9 -7z"></path>
<path class="node" id="node94" d="M2137 495 c7 -38 7 -38 21 -15 10 16 10 20 -2 20 -8 0 -17 6 -20 13
-3 6 -3 -1 1 -18z"></path>
<path class="node" id="node95" d="M1629 462 c11 -16 28 -35 38 -43 17 -13 17 -13 1 7 -10 11 -18 24
-18 28 0 9 -26 36 -35 36 -3 0 3 -13 14 -28z"></path>
<path class="node" id="node96" d="M1890 442 c0 -4 10 -13 21 -21 19 -11 21 -11 15 4 -3 9 -6 19 -6 21
0 2 -7 4 -15 4 -8 0 -15 -3 -15 -8z"></path>
<path class="node" id="node97" d="M1340 424 c0 -14 3 -14 15 -4 8 7 15 14 15 16 0 2 -7 4 -15 4 -8 0
-15 -7 -15 -16z"></path>
<path class="node" id="node98" d="M1941 414 c0 -11 3 -14 6 -6 3 7 2 16 -1 19 -3 4 -6 -2 -5 -13z"></path>
<path class="node" id="node99" d="M640 395 c-22 -27 -5 -30 40 -7 l44 22 -36 0 c-19 0 -41 -7 -48 -15z"></path>
<path class="node" id="node100" d="M1220 384 c0 -9 -21 -42 -47 -75 l-47 -60 21 -20 20 -21 6 31 c4 17
22 55 42 83 38 57 43 78 20 78 -8 0 -15 -7 -15 -16z"></path>
<path class="node" id="node101" d="M1542 369 c-21 -6 -44 -26 -66 -57 -36 -49 -39 -76 -4 -32 68 85 64
83 142 77 39 -4 72 -10 74 -16 2 -5 13 -6 25 -3 16 4 5 10 -43 24 -72 20 -81
20 -128 7z"></path>
<path class="node" id="node102" d="M1275 360 c-3 -5 -1 -10 4 -10 6 0 11 5 11 10 0 6 -2 10 -4 10 -3 0
-8 -4 -11 -10z"></path>
<path class="node" id="node103" d="M1069 308 c-17 -24 -18 -29 -6 -19 18 14 42 51 33 51 -3 0 -15 -15
-27 -32z"></path>
<path class="node" id="node104" d="M1240 293 c-28 -44 -38 -73 -24 -73 17 0 44 23 44 39 0 10 3 21 7 24
6 7 12 57 6 57 -2 0 -17 -21 -33 -47z"></path>
<path class="node" id="node105" d="M1564 325 c-50 -22 -73 -69 -47 -94 8 -7 15 -11 16 -10 1 2 11 21 22
43 17 33 56 62 78 58 4 -1 7 3 7 8 0 14 -39 11 -76 -5z"></path>
<path class="node" id="node106" d="M720 321 c0 -6 5 -13 10 -16 6 -3 10 1 10 9 0 9 -4 16 -10 16 -5 0
-10 -4 -10 -9z"></path>
<path class="node" id="node107" d="M890 320 c0 -5 6 -10 14 -10 8 0 18 5 21 10 3 6 -3 10 -14 10 -12 0
-21 -4 -21 -10z"></path>
<path class="node" id="node108" d="M2285 290 c-3 -6 1 -7 9 -4 18 7 21 14 7 14 -6 0 -13 -4 -16 -10z"></path>
<path class="node" id="node109" d="M778 283 c7 -3 16 -2 19 1 4 3 -2 6 -13 5 -11 0 -14 -3 -6 -6z"></path>
<path class="node" id="node110" d="M1690 274 c0 -8 5 -12 10 -9 6 3 10 10 10 16 0 5 -4 9 -10 9 -5 0
-10 -7 -10 -16z"></path>
<path class="node" id="node111" d="M1975 274 c-50 -6 -110 -21 -135 -33 -24 -11 -50 -21 -57 -21 -8 0
-11 -4 -8 -10 3 -5 1 -10 -4 -10 -6 0 -11 -5 -11 -11 0 -9 22 -10 78 -4 42 4
97 9 122 11 117 7 163 13 173 23 6 6 18 11 27 11 24 1 55 23 56 41 1 13 -11
16 -75 15 -42 -1 -117 -6 -166 -12z"></path>
<path class="node" id="node112" d="M1640 273 c-25 -10 -52 -43 -46 -59 8 -22 46 -18 46 5 0 11 9 23 20
26 11 3 20 13 20 21 0 14 -13 17 -40 7z"></path>
</g>
</svg>