<!--?xml version="1.0" standalone="no"?-->

<svg version="1.0" xmlns="http://www.w3.org/2000/svg" width="276.000000pt" height="300.000000pt" viewBox="0 0 276.000000 300.000000" preserveAspectRatio="xMidYMid meet">
<g transform="translate(0.000000,300.000000) scale(0.100000,-0.100000)" fill="#6D4C4B" stroke="none">
<path class="node" id="node1" d="M2249 2976 c-3 -3 -61 -12 -129 -22 -155 -20 -279 -49 -298 -68 -10
-9 -18 -48 -22 -104 -8 -93 -34 -192 -51 -192 -5 0 -26 7 -47 16 -51 22 -185
23 -233 1 -20 -9 -46 -13 -58 -10 -37 9 -143 -17 -195 -49 -42 -26 -57 -29
-93 -24 -79 11 -169 75 -188 135 -3 12 -9 21 -13 21 -4 0 -62 -50 -129 -110
-131 -118 -132 -121 -112 -194 16 -57 37 -82 99 -119 52 -30 60 -32 153 -32
l99 0 -7 -40 c-3 -21 -14 -58 -24 -81 l-19 -42 -53 25 c-64 31 -121 39 -174
24 -26 -7 -43 -7 -49 -1 -26 26 -99 -1 -133 -49 -20 -30 -53 -162 -53 -216 0
-122 121 -211 296 -217 22 0 49 -9 62 -19 53 -41 196 -32 273 17 42 26 43 27
103 12 48 -12 57 -17 41 -23 -11 -4 -38 -25 -60 -46 -59 -55 -141 -80 -303
-89 -112 -7 -138 -5 -164 8 -80 39 -192 20 -244 -41 -22 -26 -25 -37 -20 -69
4 -25 1 -56 -9 -85 -18 -53 -9 -96 25 -120 12 -9 20 -25 20 -44 0 -103 119
-154 195 -83 24 22 27 31 22 65 -4 34 0 48 24 84 31 46 57 59 145 71 61 9 79
-5 75 -59 -3 -63 14 -119 53 -171 l34 -44 -36 -7 c-20 -4 -41 -10 -47 -15 -5
-4 -26 -13 -45 -19 -68 -23 -141 -91 -184 -171 -39 -72 -41 -79 -41 -165 0
-54 5 -103 14 -122 l13 -33 28 58 c33 68 52 87 145 137 39 20 85 50 102 66 75
65 195 129 244 129 19 0 129 -103 129 -120 0 -6 -7 -10 -15 -10 -9 0 -38 -11
-66 -25 -38 -20 -58 -24 -84 -19 -53 10 -102 -4 -141 -38 -48 -42 -64 -77 -64
-141 0 -37 -8 -72 -25 -110 -51 -110 -43 -216 22 -282 55 -56 86 -68 167 -62
39 3 97 1 128 -4 44 -7 66 -6 100 6 24 9 55 20 69 25 63 19 98 43 113 75 21
43 20 82 -2 124 -22 45 -65 69 -123 70 -45 1 -99 29 -99 52 0 5 24 9 53 9 136
1 262 52 370 150 34 31 87 73 117 92 142 91 225 248 224 423 0 115 -27 206
-90 300 -45 69 -46 71 -40 132 13 125 56 230 155 373 84 122 113 146 221 181
52 17 159 73 206 107 46 33 94 118 94 164 0 34 -20 76 -49 102 -12 11 -21 24
-21 31 0 20 -54 64 -86 71 -19 3 -45 -1 -70 -11 -21 -10 -55 -19 -74 -22 -73
-9 -154 -85 -189 -177 -11 -31 -21 -67 -21 -80 0 -16 -19 -37 -72 -77 -41 -31
-114 -105 -172 -173 -56 -65 -113 -125 -128 -132 -16 -8 -28 -12 -28 -9 0 3
22 49 49 103 27 54 60 136 72 182 19 70 29 89 61 118 41 37 120 135 156 192
12 19 44 80 71 135 91 189 132 352 96 388 -16 16 -37 22 -46 13z m24 -91 c0
-33 -11 -89 -23 -125 -30 -87 -121 -269 -176 -352 -47 -70 -142 -164 -181
-179 -54 -20 -52 -6 12 64 179 198 291 391 302 525 5 49 3 62 -8 62 -45 0
-216 -32 -244 -46 -37 -17 -41 -24 -50 -99 -24 -187 -145 -400 -254 -449 -39
-18 -41 -18 -73 1 -42 25 -84 86 -98 145 -21 86 15 92 91 16 l52 -52 -27 -23
c-31 -27 -27 -29 13 -8 38 19 113 104 150 168 38 68 69 177 72 252 2 33 6 67
10 76 9 19 109 43 263 64 60 8 112 17 115 20 3 3 17 5 31 3 24 -3 25 -6 23
-63z m-95 -83 c-11 -118 -135 -322 -317 -522 l-59 -64 -53 2 c-30 1 -69 7 -87
13 l-34 11 50 29 c115 65 226 271 257 477 5 28 14 48 28 57 17 10 160 47 211
54 5 0 6 -25 4 -57z m-1145 -281 c24 -12 53 -21 65 -21 28 0 37 -18 19 -38
-24 -27 -55 -95 -68 -148 -7 -27 -17 -52 -23 -56 -17 -12 -146 -9 -190 3 -57
16 -113 74 -128 132 l-13 48 105 99 105 98 42 -48 c24 -27 62 -58 86 -69z
m674 54 c33 -14 34 -15 19 -42 -8 -15 -30 -46 -48 -67 l-35 -40 -34 22 c-19
11 -43 35 -54 51 -26 40 -65 42 -95 4 -24 -31 -22 -50 16 -131 58 -122 155
-183 293 -183 44 0 91 3 105 7 14 3 26 5 26 3 0 -2 -8 -33 -19 -69 -22 -78
-56 -154 -115 -258 -24 -43 -45 -89 -46 -102 -4 -48 0 -100 8 -100 4 0 7 15 7
33 -1 61 13 85 66 109 40 17 70 45 143 133 100 118 168 185 229 225 22 14 40
36 43 50 17 89 41 137 89 186 50 50 105 75 105 48 0 -21 14 -17 40 10 28 31
73 41 109 26 33 -13 51 -46 52 -98 1 -20 3 -29 6 -19 7 26 36 17 47 -14 13
-39 -1 -93 -37 -141 -25 -33 -56 -55 -132 -93 -55 -27 -113 -55 -130 -62 -89
-34 -124 -53 -135 -73 -7 -12 -31 -48 -54 -79 -122 -162 -176 -300 -181 -461
-2 -58 -2 -95 1 -82 8 32 15 28 50 -25 56 -85 79 -166 78 -273 0 -137 -44
-251 -132 -343 -36 -38 -137 -97 -166 -97 -8 0 -18 -5 -22 -12 -4 -6 -3 -8 4
-4 6 3 13 2 16 -3 8 -13 -89 -97 -146 -127 -71 -36 -165 -55 -275 -53 -54 0
-106 -2 -116 -6 -9 -4 -25 -1 -35 6 -16 12 -16 12 0 -6 10 -10 31 -18 48 -18
22 0 30 -5 28 -15 -4 -19 -52 -33 -88 -27 -16 4 -13 0 10 -8 35 -14 83 -7 95
14 7 10 35 0 35 -12 0 -5 -11 -9 -25 -9 -14 0 -36 -7 -50 -16 -18 -12 -28 -13
-44 -5 -43 24 -116 -2 -142 -51 -11 -21 -10 -20 20 5 24 20 43 27 74 27 50 0
59 -5 80 -45 l16 -30 1 37 c0 34 3 38 36 47 19 5 41 8 47 6 7 -2 24 -6 39 -9
19 -4 30 -16 39 -41 17 -45 33 -45 25 0 -8 40 5 45 53 20 82 -42 56 -170 -38
-191 -14 -4 -46 -15 -70 -27 -40 -18 -51 -19 -110 -10 -36 6 -89 9 -118 6 -67
-7 -95 1 -137 38 -71 62 -84 167 -32 273 17 35 26 73 28 120 4 66 6 70 46 107
32 30 49 39 77 39 40 0 45 -7 13 -20 -19 -8 -18 -9 9 -4 18 3 70 21 115 40
101 41 132 43 154 9 9 -14 26 -31 37 -36 19 -11 19 -10 3 12 -23 33 -21 36 31
44 69 10 134 56 171 122 17 32 34 160 27 208 l-6 40 25 -30 c37 -44 32 -19
-13 57 l-39 66 29 28 c64 61 76 135 30 186 -27 30 -33 32 -89 30 -42 -1 -64 3
-72 13 -7 8 -28 17 -49 21 -20 3 -53 17 -74 30 -56 37 -82 44 -156 45 -53 1
-79 -4 -122 -25 -67 -31 -151 -104 -180 -155 l-21 -38 -82 -6 c-98 -7 -154
-24 -162 -49 -3 -10 -17 -32 -31 -48 -19 -23 -23 -36 -18 -60 9 -42 -1 -66
-34 -80 -36 -15 -76 -4 -101 27 -25 33 -25 78 0 128 25 49 20 55 -13 15 -30
-35 -42 -37 -58 -9 -21 39 -2 90 53 142 52 49 53 57 4 32 -36 -19 -51 -7 -42
30 14 55 145 84 224 48 27 -12 61 -16 122 -14 183 4 317 38 365 91 54 60 234
107 256 67 14 -25 30 -21 24 6 -5 18 3 28 46 57 29 20 55 42 57 50 3 9 -9 4
-31 -12 -41 -32 -130 -58 -199 -58 -26 0 -84 7 -128 16 l-79 16 -43 -25 c-54
-31 -148 -51 -204 -42 -55 8 -56 21 -3 30 58 10 193 80 223 116 38 45 31 52
-11 12 -73 -68 -211 -113 -344 -113 -163 1 -264 80 -257 202 3 52 3 53 40 59
55 9 95 45 133 123 l20 41 71 0 c62 0 77 -4 121 -31 47 -30 52 -31 67 -15 13
12 36 16 104 16 95 -1 124 -11 187 -66 19 -17 35 -27 35 -21 0 12 -49 65 -73
78 -16 9 -16 14 8 72 33 81 33 129 0 165 -20 21 -35 27 -66 27 -60 0 -92 -36
-113 -130 -18 -77 -29 -100 -51 -100 -10 0 -9 9 2 43 8 23 23 85 33 139 21
110 55 183 102 223 54 46 132 76 221 85 45 5 98 14 117 19 44 13 152 5 197
-14z m-471 -293 c40 -26 41 -99 3 -174 -18 -35 -23 -39 -47 -33 -35 9 -34 8
-24 36 5 13 6 33 2 45 -9 24 -36 38 -45 24 -15 -24 -22 -7 -12 26 20 66 81
104 123 76z m-139 -179 c-3 -10 -5 -2 -5 17 0 19 2 27 5 18 2 -10 2 -26 0 -35z
m-435 -28 c0 -14 -29 -31 -38 -22 -9 8 16 39 28 35 5 -2 10 -8 10 -13z m781
-612 c46 -17 60 -36 33 -46 -7 -3 -33 1 -57 9 -35 13 -52 13 -93 3 -108 -25
-148 -68 -154 -165 -4 -65 7 -98 55 -161 13 -18 20 -33 15 -33 -9 0 -92 67
-104 85 -5 6 -8 5 -8 -3 0 -18 115 -128 150 -144 30 -13 44 -38 53 -93 3 -16
9 -38 12 -47 14 -35 -15 -17 -49 30 -26 36 -46 51 -83 64 -72 25 -113 57 -147
111 -26 42 -30 58 -30 125 0 65 3 83 24 118 32 52 80 93 154 133 70 37 151 42
229 14z m-48 -66 c38 -10 55 -21 73 -47 12 -18 22 -39 22 -47 0 -20 -64 -83
-83 -83 -8 0 -28 -7 -43 -16 l-29 -15 45 7 c24 3 61 17 82 30 51 32 57 63 32
150 -5 19 -1 23 35 29 90 15 135 -74 75 -152 -24 -31 -23 -42 2 -25 23 14 54
78 54 108 0 25 5 33 24 38 27 7 76 -9 88 -27 34 -53 -27 -155 -102 -172 -31
-7 -41 -25 -15 -25 12 0 13 -4 5 -19 -5 -11 -10 -36 -10 -56 l0 -36 -43 6
c-57 9 -117 -8 -148 -41 l-24 -26 37 22 c73 42 189 21 228 -42 43 -71 8 -164
-80 -210 -76 -41 -139 -39 -184 5 -36 33 -76 127 -76 174 0 37 -32 99 -81 158
-54 65 -79 119 -79 175 0 57 27 103 71 119 19 7 41 17 49 21 20 11 17 12 75
-3z m319 -280 c3 -13 8 -49 12 -82 l7 -59 -31 24 c-29 23 -31 28 -26 69 10 73
26 94 38 48z m-522 -177 c74 -33 91 -56 52 -70 -14 -6 -30 -10 -36 -10 -6 0
-31 -11 -55 -25 -45 -27 -50 -26 -33 5 20 37 -14 10 -62 -50 -35 -43 -69 -71
-129 -104 -45 -26 -84 -45 -86 -43 -2 2 8 16 22 31 35 37 31 42 -9 11 -18 -14
-48 -51 -65 -83 l-32 -57 4 81 c4 64 11 93 35 141 56 110 179 188 318 202 6 1
41 -12 76 -29z"></path>
<path class="node" id="node2" d="M1165 2400 c-20 -39 -20 -40 15 -40 41 0 89 -25 122 -64 26 -30 27
-30 21 -6 -15 61 -89 140 -130 140 -7 0 -19 -13 -28 -30z"></path>
<path class="node" id="node3" d="M2433 2389 c-20 -20 -23 -21 -38 -5 -22 21 -58 20 -78 -2 -22 -24
-21 -27 5 -52 18 -17 19 -20 5 -20 -28 0 -57 -37 -57 -73 0 -61 55 -107 128
-107 47 0 82 32 82 76 0 35 -48 91 -87 100 -21 6 -22 8 -7 18 13 10 21 7 45
-17 21 -20 37 -28 53 -25 21 4 22 3 12 -23 -8 -23 -7 -32 9 -48 24 -28 47 -26
84 5 51 43 34 101 -27 92 -26 -4 -27 -2 -24 28 8 62 -61 97 -105 53z m77 -17
c20 -16 21 -21 9 -40 -16 -26 -60 -30 -79 -7 -10 12 -9 20 4 40 20 30 36 31
66 7z m-131 -5 c13 -16 5 -27 -20 -27 -21 0 -33 15 -24 30 9 14 31 12 44 -3z
m47 -111 c39 -39 42 -58 14 -86 -24 -24 -60 -26 -100 -5 -37 19 -54 50 -45 83
8 33 21 42 64 42 24 0 42 -9 67 -34z m169 24 c12 -19 -24 -60 -50 -60 -32 0
-34 33 -3 54 26 19 44 20 53 6z"></path>
<path class="node" id="node4" d="M1220 1875 c0 -17 27 -56 42 -61 28 -9 36 5 13 22 -11 8 -28 21 -37
29 -10 8 -18 13 -18 10z"></path>
<path class="node" id="node5" d="M1746 1551 c-9 -15 23 -36 36 -23 5 5 7 15 4 21 -9 13 -33 14 -40 2z"></path>
<path class="node" id="node6" d="M1580 1486 c0 -22 19 -30 35 -16 22 18 18 30 -10 30 -15 0 -25 -6
-25 -14z"></path>
<path class="node" id="node7" d="M1900 1115 c0 -18 5 -25 20 -25 15 0 20 7 20 25 0 18 -5 25 -20 25
-15 0 -20 -7 -20 -25z"></path>






</g>
<g transform="translate(0.000000,300.000000) scale(0.100000,-0.100000)" fill="#40F87A" stroke="none">

<path class="node" id="node15" d="M2219 2945 c-3 -3 -55 -12 -115 -20 -154 -21 -254 -45 -263 -64 -4
-9 -8 -43 -10 -76 -3 -75 -34 -184 -72 -252 -37 -64 -112 -149 -150 -168 -40
-21 -44 -19 -13 8 l27 23 -52 52 c-76 76 -112 70 -91 -16 14 -59 56 -120 98
-145 32 -19 34 -19 73 -1 109 49 230 262 254 449 9 75 13 82 50 99 28 14 199
46 244 46 11 0 13 -13 8 -62 -11 -134 -123 -327 -302 -525 -64 -70 -66 -84
-12 -64 39 15 134 109 181 179 55 83 146 265 176 352 12 36 23 92 23 125 2 57
1 60 -23 63 -14 2 -28 0 -31 -3z"></path>
<path class="node" id="node16" d="M2075 2838 c-114 -25 -131 -36 -140 -90 -31 -206 -142 -412 -257
-477 l-50 -29 34 -11 c18 -6 57 -12 87 -13 l53 -2 59 64 c182 200 306 404 317
522 2 32 1 57 -4 57 -5 -1 -49 -10 -99 -21z"></path>
<path class="node" id="node17" d="M800 2540 l-105 -99 13 -48 c15 -58 71 -116 128 -132 44 -12 173 -15
190 -3 6 4 16 29 23 56 13 53 44 121 68 148 18 20 9 38 -19 38 -39 0 -107 41
-151 90 l-42 48 -105 -98z"></path>
<path class="node" id="node18" d="M1510 2589 c-19 -5 -72 -14 -117 -19 -89 -9 -167 -39 -221 -85 -47
-40 -81 -113 -102 -223 -10 -54 -25 -116 -33 -139 -11 -34 -12 -43 -2 -43 22
0 33 23 51 100 21 94 53 130 113 130 31 0 46 -6 66 -27 33 -36 33 -84 0 -165
-24 -58 -24 -63 -8 -72 24 -13 73 -66 73 -78 0 -6 -16 4 -35 21 -63 55 -92 65
-187 66 -68 0 -91 -4 -104 -16 -15 -16 -20 -15 -67 15 -44 27 -59 31 -121 31
l-71 0 -20 -41 c-38 -78 -78 -114 -133 -123 -37 -6 -37 -7 -40 -59 -7 -122 94
-201 257 -202 133 0 271 45 344 113 42 40 49 33 11 -12 -30 -36 -165 -106
-223 -116 -53 -9 -52 -22 3 -30 56 -9 150 11 204 42 l43 25 79 -16 c44 -9 102
-16 128 -16 69 0 158 26 199 58 22 16 34 21 31 12 -2 -8 -28 -30 -57 -50 -43
-29 -51 -39 -46 -57 6 -27 -10 -31 -24 -6 -22 40 -202 -7 -256 -67 -48 -53
-182 -87 -365 -91 -61 -2 -95 2 -122 14 -79 36 -210 7 -224 -48 -9 -37 6 -49
42 -30 49 25 48 17 -4 -32 -55 -52 -74 -103 -53 -142 16 -28 28 -26 58 9 33
40 38 34 13 -15 -25 -50 -25 -95 0 -128 25 -31 65 -42 101 -27 33 14 43 38 34
80 -5 24 -1 37 18 60 14 16 28 38 31 48 8 25 64 42 162 49 l82 6 21 38 c29 51
113 124 180 155 43 21 69 26 122 25 74 -1 100 -8 156 -45 21 -13 54 -27 74
-30 21 -4 42 -13 49 -21 8 -10 30 -14 72 -13 56 2 62 0 89 -30 46 -51 34 -125
-30 -186 l-29 -28 39 -66 c45 -76 50 -101 13 -57 l-25 30 6 -40 c7 -48 -10
-176 -27 -208 -37 -66 -102 -112 -171 -122 -52 -8 -54 -11 -31 -44 16 -22 16
-23 -3 -12 -11 5 -28 22 -37 36 -22 34 -53 32 -154 -9 -45 -19 -97 -37 -115
-40 -27 -5 -28 -4 -9 4 32 13 27 20 -13 20 -28 0 -45 -9 -77 -39 -40 -37 -42
-41 -46 -107 -2 -47 -11 -85 -28 -120 -52 -106 -39 -211 32 -273 42 -37 70
-45 137 -38 29 3 82 0 118 -6 59 -9 70 -8 110 10 24 12 56 23 70 27 94 21 120
149 38 191 -48 25 -61 20 -53 -20 8 -45 -8 -45 -25 0 -9 25 -20 37 -39 41 -15
3 -32 7 -39 9 -6 2 -28 -1 -47 -6 -33 -9 -36 -13 -36 -47 l-1 -37 -16 30 c-21
40 -30 45 -80 45 -31 0 -50 -7 -74 -27 -30 -25 -31 -26 -20 -5 26 49 99 75
142 51 16 -8 26 -7 44 5 14 9 36 16 50 16 14 0 25 4 25 9 0 12 -28 22 -35 12
-12 -21 -60 -28 -95 -14 -23 8 -26 12 -10 8 36 -6 84 8 88 27 2 10 -6 15 -28
15 -17 0 -38 8 -48 18 -16 18 -16 18 0 6 10 -7 26 -10 35 -6 10 4 62 6 116 6
110 -2 204 17 275 53 57 30 154 114 146 127 -3 5 -10 6 -16 3 -7 -4 -8 -2 -4
4 4 7 14 12 22 12 29 0 130 59 166 97 88 92 132 206 132 343 1 107 -22 188
-78 273 -35 53 -42 57 -50 25 -3 -13 -3 24 -1 82 5 161 59 299 181 461 23 31
47 67 54 79 11 20 46 39 135 73 17 7 75 35 130 62 76 38 107 60 132 93 36 48
50 102 37 141 -11 31 -40 40 -47 14 -3 -10 -5 -1 -6 19 -1 52 -19 85 -52 98
-36 15 -81 5 -109 -26 -26 -27 -40 -31 -40 -10 0 27 -55 2 -105 -48 -48 -49
-72 -97 -89 -186 -3 -14 -21 -36 -43 -50 -61 -40 -129 -107 -229 -225 -73 -88
-103 -116 -143 -133 -53 -24 -67 -48 -66 -109 0 -18 -3 -33 -7 -33 -8 0 -12
52 -8 100 1 13 22 59 46 102 59 104 93 180 115 258 11 36 19 67 19 69 0 2 -12
0 -26 -3 -14 -4 -61 -7 -105 -7 -138 0 -235 61 -293 183 -38 81 -40 100 -16
131 30 38 69 36 95 -4 11 -16 35 -40 54 -51 l34 -22 35 40 c18 21 40 52 48 67
15 27 14 28 -19 42 -45 19 -153 27 -197 14z m-273 -179 c34 -21 76 -79 86
-120 6 -24 5 -24 -21 6 -33 39 -81 64 -122 64 -35 0 -35 1 -15 40 18 35 29 37
72 10z m1284 -21 c15 -15 20 -30 17 -53 -3 -30 -2 -32 24 -28 61 9 78 -49 27
-92 -37 -31 -60 -33 -84 -5 -16 16 -17 25 -9 48 10 26 9 27 -12 23 -16 -3 -32
5 -53 25 -24 24 -32 27 -45 17 -15 -10 -14 -12 7 -18 39 -9 87 -65 87 -100 0
-44 -35 -76 -82 -76 -73 0 -128 46 -128 107 0 36 29 73 57 73 14 0 13 3 -5 20
-26 25 -27 28 -5 52 20 22 56 23 78 2 15 -16 18 -15 38 5 27 27 61 27 88 0z
m-1246 -553 c11 -8 17 -17 13 -21 -12 -13 -45 5 -56 31 -16 34 -15 36 6 19 9
-8 26 -21 37 -29z m511 -287 c3 -6 1 -16 -4 -21 -13 -13 -45 8 -36 23 7 12 31
11 40 -2z m-156 -58 c0 -14 -28 -33 -40 -26 -20 12 -10 35 15 35 14 0 25 -4
25 -9z m310 -376 c0 -18 -5 -25 -20 -25 -15 0 -20 7 -20 25 0 18 5 25 20 25
15 0 20 -7 20 -25z"></path>
<path class="node" id="node19" d="M2444 2365 c-13 -20 -14 -28 -4 -40 19 -23 63 -19 79 7 12 19 11 24
-9 40 -30 24 -46 23 -66 -7z"></path>
<path class="node" id="node20" d="M2335 2370 c-9 -15 3 -30 24 -30 25 0 33 11 20 27 -13 15 -35 17 -44
3z"></path>
<path class="node" id="node21" d="M2313 2282 c-18 -11 -26 -58 -14 -81 14 -26 61 -51 96 -51 28 0 65
32 65 56 0 9 -15 31 -34 50 -34 34 -83 45 -113 26z"></path>
<path class="node" id="node22" d="M2542 2274 c-12 -8 -22 -24 -22 -35 0 -29 45 -25 66 6 27 41 -1 60
-44 29z"></path>
<path class="node" id="node23" d="M1146 2266 c-24 -26 -50 -96 -36 -96 5 0 11 4 15 10 9 14 36 0 45
-24 4 -12 3 -32 -2 -45 -10 -28 -11 -27 24 -36 24 -6 29 -2 47 33 38 75 37
148 -3 174 -23 16 -67 8 -90 -16z"></path>
<path class="node" id="node24" d="M1092 2120 c0 -19 2 -27 5 -17 2 9 2 25 0 35 -3 9 -5 1 -5 -18z"></path>
<path class="node" id="node25" d="M630 2075 c-7 -8 -10 -19 -6 -22 9 -9 38 8 38 22 -1 16 -18 16 -32 0z"></path>
<path class="node" id="node26" d="M1214 1449 c-74 -40 -122 -81 -154 -133 -21 -35 -24 -53 -24 -118 0
-67 4 -83 30 -125 34 -54 75 -86 147 -111 37 -13 57 -28 83 -64 34 -47 63 -65
49 -30 -3 9 -9 31 -12 47 -9 55 -23 80 -53 93 -35 16 -150 126 -150 144 0 8 3
9 8 3 12 -18 95 -85 104 -85 5 0 -2 15 -15 33 -48 63 -59 96 -55 161 6 97 46
140 154 165 41 10 58 10 93 -3 24 -8 50 -12 57 -9 51 19 -47 63 -142 63 -49 0
-73 -6 -120 -31z"></path>
<path class="node" id="node27" d="M1320 1400 c-8 -4 -30 -14 -49 -21 -44 -16 -71 -62 -71 -119 0 -56
25 -110 79 -175 49 -59 81 -121 81 -158 0 -47 40 -141 76 -174 45 -44 108 -46
184 -5 88 46 123 139 80 210 -39 63 -155 84 -228 42 l-37 -22 24 26 c31 33 91
50 148 41 l43 -6 0 36 c0 20 5 45 10 56 8 15 7 19 -5 19 -26 0 -16 18 15 25
75 17 136 119 102 172 -12 18 -61 34 -88 27 -19 -5 -24 -13 -24 -38 0 -30 -31
-94 -54 -108 -25 -17 -26 -6 -2 25 38 50 36 108 -4 137 -25 18 -38 20 -71 15
-36 -6 -40 -10 -35 -29 25 -87 19 -118 -32 -150 -21 -13 -58 -27 -82 -30 l-45
-7 29 15 c15 9 35 16 43 16 19 0 83 63 83 83 0 8 -10 29 -22 47 -18 26 -35 37
-73 47 -58 15 -55 14 -75 3z"></path>
<path class="node" id="node28" d="M1687 1126 c-3 -7 -8 -33 -11 -57 -5 -41 -3 -46 26 -69 l31 -24 -7
59 c-9 75 -16 105 -26 105 -4 0 -10 -6 -13 -14z"></path>
<path class="node" id="node29" d="M1060 959 c-111 -22 -214 -97 -262 -192 -24 -48 -31 -77 -35 -141
l-4 -81 32 57 c17 32 47 69 65 83 40 31 44 26 9 -11 -14 -15 -24 -29 -22 -31
2 -2 41 17 86 43 60 33 94 61 129 104 48 60 82 87 62 50 -17 -31 -12 -32 33
-5 24 14 49 25 55 25 29 0 61 20 56 35 -6 16 -127 76 -148 74 -6 -1 -31 -5
-56 -10z"></path>
</g>
</svg>