<!--?xml version="1.0" standalone="no"?-->

<svg version="1.0" xmlns="http://www.w3.org/2000/svg" width="300.000000pt" height="300.000000pt" viewBox="0 0 300.000000 300.000000" preserveAspectRatio="xMidYMid meet">
<g transform="translate(0.000000,300.000000) scale(0.100000,-0.100000)" fill="#252218" stroke="none">
<path class="node" id="node1" d="M1437 2935 c-16 -8 -318 -304 -671 -658 -557 -558 -644 -649 -650
-680 -16 -85 -33 -66 659 -757 438 -438 656 -649 679 -659 83 -32 50 -60 764
652 700 700 682 679 666 765 -6 33 -83 114 -654 684 -356 356 -659 652 -674
658 -38 14 -86 12 -119 -5z m724 -702 c351 -351 640 -649 644 -662 6 -21 -61
-91 -631 -662 -352 -352 -647 -642 -657 -645 -9 -3 -32 4 -50 15 -50 31 -1264
1253 -1272 1280 -6 21 61 92 636 667 508 508 649 644 669 644 19 0 159 -135
661 -637z"></path>
<path class="node" id="node2" d="M1870 2139 c-65 -106 -140 -216 -164 -238 -14 -14 -26 -29 -26 -35 0
-15 127 -171 139 -171 5 0 24 22 43 50 41 62 73 79 117 64 40 -14 53 -9 86 35
36 47 35 80 -2 119 -17 18 -38 46 -48 63 -10 18 -32 39 -50 47 -26 12 -35 25
-44 61 -6 25 -15 46 -19 46 -4 0 -19 -18 -32 -41z m140 -165 c0 -14 -21 -19
-33 -7 -9 9 13 34 24 27 5 -3 9 -12 9 -20z"></path>
<path class="node" id="node3" d="M1566 1814 c-21 -7 -77 -21 -125 -29 -92 -16 -150 -32 -245 -64 -37
-13 -84 -21 -128 -21 -52 0 -68 -3 -68 -14 0 -13 37 -49 59 -58 10 -4 -4 -102
-31 -226 -18 -80 -27 -99 -62 -139 l-41 -47 -7 -110 c-7 -121 -1 -139 41 -134
28 3 27 -5 15 114 l-6 51 57 54 c62 59 79 86 89 139 7 39 59 110 81 110 22 0
-3 -74 -41 -119 -38 -43 -43 -78 -23 -156 14 -54 30 -69 64 -61 40 10 42 34 6
66 -49 45 -43 70 41 156 54 56 73 83 77 110 9 56 32 64 91 32 26 -15 91 -37
143 -50 l95 -22 6 -36 c3 -19 6 -58 6 -87 0 -70 29 -265 42 -280 11 -14 60
-18 71 -7 4 4 -5 20 -18 36 -18 22 -25 41 -25 74 0 24 2 44 4 44 3 0 12 -22
21 -49 18 -54 29 -63 63 -50 30 11 28 27 -10 66 -32 33 -32 33 -36 155 -2 68
-8 133 -14 146 -9 18 -8 26 9 45 37 40 50 90 44 171 -1 21 -178 206 -195 205
-6 0 -28 -7 -50 -15z"></path>
</g>
<g transform="translate(0.000000,300.000000) scale(0.100000,-0.100000)" fill="#DFCF3D" stroke="none">



</g>
</svg>