<!--?xml version="1.0" standalone="no"?-->

<svg version="1.0" xmlns="http://www.w3.org/2000/svg" width="300.000000pt" height="241.000000pt" viewBox="0 0 300.000000 241.000000" preserveAspectRatio="xMidYMid meet">
<g transform="translate(0.000000,241.000000) scale(0.100000,-0.100000)" fill="#050505" stroke="none">
<path class="node" id="node1" d="M2426 2295 c-22 -34 -46 -125 -46 -175 0 -47 -14 -51 -34 -11 -8 15
-30 41 -48 57 -18 16 -45 48 -60 70 -26 41 -62 61 -74 42 -3 -5 2 -15 12 -22
13 -10 17 -28 18 -79 1 -36 -4 -71 -9 -76 -6 -6 -33 -15 -60 -20 -27 -5 -54
-16 -61 -25 -6 -9 -18 -16 -26 -16 -23 0 -117 -73 -118 -91 0 -9 -10 -19 -22
-23 -22 -5 -75 -73 -70 -89 1 -4 -6 -10 -15 -14 -10 -3 -51 -38 -92 -76 -90
-85 -102 -90 -306 -138 -77 -18 -273 -18 -350 0 -137 32 -208 52 -231 67 -18
12 -41 15 -91 12 -58 -3 -77 -10 -133 -45 -36 -22 -93 -58 -127 -78 -43 -27
-67 -49 -79 -74 -9 -20 -20 -38 -23 -41 -15 -12 -51 -139 -51 -180 0 -25 -6
-65 -14 -90 -8 -25 -20 -65 -27 -89 -7 -23 -33 -73 -59 -110 -25 -36 -51 -86
-59 -111 -7 -25 -19 -52 -27 -61 -13 -15 -13 -17 1 -23 12 -4 14 -10 5 -25
-15 -29 -24 -132 -15 -177 l7 -39 15 47 c9 26 20 46 26 45 14 -3 36 105 37
183 0 60 4 71 50 145 28 44 50 85 50 91 0 7 7 25 15 40 8 16 22 62 31 103 11
49 19 69 25 60 5 -8 9 -24 9 -35 0 -21 49 -100 93 -150 29 -33 36 -60 29 -109
-7 -55 -53 -112 -104 -127 -28 -8 -43 -20 -50 -37 -13 -34 -3 -90 17 -105 24
-17 32 -190 14 -271 -17 -75 -15 -91 18 -138 14 -21 29 -55 32 -75 6 -37 6
-37 60 -40 l54 -3 -6 37 c-3 20 -18 54 -32 75 -21 33 -25 50 -25 116 0 116 17
157 40 97 6 -14 19 -28 30 -31 27 -7 25 -20 -7 -47 -25 -22 -26 -25 -15 -62 7
-22 17 -46 22 -54 9 -13 12 -13 21 4 14 23 43 52 58 57 16 6 24 117 11 149 -6
15 -22 32 -35 38 -38 17 -88 98 -80 130 9 41 26 58 86 85 72 33 131 86 179
161 21 33 47 69 56 78 21 21 95 27 149 12 22 -7 58 -16 80 -22 22 -5 63 -16
90 -23 28 -7 117 -15 199 -18 l150 -6 4 -125 c6 -203 4 -251 -19 -376 -12 -65
-24 -131 -26 -145 -4 -20 0 -27 16 -32 14 -3 21 -13 21 -30 0 -29 24 -57 48
-57 9 0 34 -3 54 -6 l38 -7 -33 64 c-31 61 -32 69 -31 174 1 102 4 115 33 173
20 40 31 77 31 105 0 36 23 142 58 261 l8 30 40 -35 c53 -46 91 -71 139 -93
114 -51 134 -63 139 -80 11 -43 -25 -138 -70 -181 -25 -24 -63 -95 -58 -109 4
-11 -2 -14 -26 -13 -29 2 -33 -2 -51 -47 -10 -28 -17 -51 -16 -52 1 -1 35 0
75 3 62 5 77 10 102 33 24 22 30 36 30 69 0 45 53 170 96 226 32 43 31 90 -3
143 -15 23 -32 42 -38 42 -13 0 -55 46 -55 60 0 6 -4 10 -8 10 -5 0 -22 19
-40 43 -17 23 -41 53 -52 67 l-20 25 24 50 c13 28 30 83 37 124 11 60 19 78
44 100 16 14 50 51 75 81 25 30 47 57 50 60 7 7 67 130 79 163 17 43 58 36
118 -20 16 -16 56 -41 87 -57 45 -23 58 -35 63 -58 7 -37 44 -62 75 -52 13 4
35 7 50 6 41 -1 47 14 38 105 -6 69 -14 97 -55 180 -26 54 -52 109 -57 123
-23 61 -48 97 -86 125 -22 17 -41 34 -41 39 -1 6 10 21 23 35 22 23 25 37 28
126 3 85 1 100 -13 103 -9 2 -24 -9 -33 -23z"></path>
</g>
<g transform="translate(0.000000,241.000000) scale(0.100000,-0.100000)" fill="#A0A0A0" stroke="none">

</g>
</svg>