<!--?xml version="1.0" standalone="no"?--><svg version="1.0" xmlns="http://www.w3.org/2000/svg" width="300.000000pt" height="296.000000pt" viewBox="0 0 300.000000 296.000000" preserveAspectRatio="xMidYMid meet">
<metadata>
  <rdf:rdf xmlns:rdf="http://www.w3.org/1999/02/22-rdf-syntax-ns#" xmlns:rdfs="http://www.w3.org/2000/01/rdf-schema#" xmlns:dc="http://purl.org/dc/elements/1.1/">
    <rdf:description dc:title="Dora fish" dc:publisher="Hiox" dc:date="2015-05-19" dc:format="image/svg+xml" dc:language="en">
      <dc:creator>
        <rdf:bag>
          <rdf:li>svgimages.com</rdf:li>
        </rdf:bag>
      </dc:creator>
    </rdf:description>
  </rdf:rdf>
</metadata>
<g transform="translate(0.000000,296.000000) scale(0.100000,-0.100000)" fill="#3E3C3C" stroke="none">
<path d="M1490 2938 c-51 -24 -179 -148 -228 -220 -36 -53 -43 -58 -35 -28 3
11 2 31 -1 45 -8 32 -47 34 -77 3 -21 -23 -82 -145 -91 -184 -4 -16 -6 -15
-16 9 -22 53 -76 24 -114 -63 -26 -59 -58 -203 -58 -263 0 -45 -2 -49 -32 -59
-71 -24 -237 -116 -310 -171 -131 -99 -234 -225 -312 -384 -45 -92 -96 -228
-96 -260 0 -10 -14 -43 -30 -73 -86 -162 -85 -157 -85 -270 0 -124 16 -176 79
-254 23 -28 60 -86 83 -128 23 -42 60 -100 82 -128 23 -29 41 -55 41 -58 -1
-4 -35 -23 -78 -42 -87 -39 -162 -106 -162 -143 0 -13 6 -31 13 -41 11 -16 18
-17 53 -7 21 6 51 11 66 11 26 0 27 -2 21 -32 -3 -18 -10 -37 -14 -42 -39 -42
31 -98 148 -118 63 -10 74 -10 97 6 33 21 43 46 57 139 15 102 11 99 71 68
155 -80 324 -109 535 -91 112 10 147 15 213 31 9 3 14 -2 11 -11 -14 -54 -13
-72 10 -97 41 -43 104 -74 165 -80 48 -5 59 -3 70 12 16 22 18 76 5 123 l-10
33 37 -29 c52 -41 79 -54 142 -68 46 -11 65 -11 122 2 56 13 76 23 118 63 41
39 50 53 50 82 0 18 -4 39 -8 45 -16 24 -82 54 -162 74 -47 12 -86 24 -88 25
-2 2 25 20 59 40 116 71 254 197 335 307 l43 59 18 -28 c79 -126 231 -301 285
-329 57 -29 121 -14 181 44 129 123 246 350 296 572 6 25 11 76 11 113 0 101
-23 135 -116 169 -52 20 -77 22 -224 21 -152 0 -186 -4 -292 -31 -41 -11 -40
-12 -53 61 -5 34 -4 37 17 37 13 0 65 -11 116 -25 51 -14 110 -25 130 -25 45
0 117 32 143 62 95 110 118 411 43 575 -8 17 -14 34 -14 37 0 3 -17 32 -37 63
-57 90 -141 165 -241 214 -85 43 -89 44 -189 44 -94 0 -103 -2 -128 -25 -41
-39 -64 -81 -101 -192 -38 -113 -70 -188 -81 -188 -4 0 -17 10 -29 21 l-23 21
24 38 c65 103 101 254 81 335 -13 52 -120 85 -177 54 -11 -5 -51 -13 -88 -16
-67 -6 -69 -5 -87 21 -15 25 -16 37 -6 114 5 48 16 114 22 147 6 33 10 97 8
143 -3 80 -4 85 -36 113 -41 37 -105 40 -172 7z m102 -80 c8 -15 13 -59 12
-123 0 -102 -9 -135 -79 -290 -37 -83 -53 -126 -65 -173 -14 -53 -18 -56 -56
-46 -21 6 -20 8 21 107 23 56 61 140 84 186 43 85 51 123 11 54 -12 -21 -25
-45 -30 -53 -22 -37 -103 -209 -119 -252 -9 -23 -16 -28 -46 -28 -19 0 -35 2
-35 5 0 6 40 104 65 160 38 87 72 156 102 206 38 66 58 113 43 104 -6 -3 -10
-12 -10 -20 0 -7 -3 -15 -7 -17 -22 -9 -160 -268 -206 -385 -15 -37 -21 -43
-46 -43 l-30 0 13 43 c26 79 49 142 56 152 4 6 11 21 15 35 4 14 30 71 56 127
27 56 49 105 49 109 0 35 -141 -238 -170 -331 -7 -22 -16 -44 -20 -50 -4 -5
-13 -26 -19 -46 -11 -36 -46 -58 -62 -41 -4 4 -1 39 7 77 13 67 18 148 7 100
-3 -11 -9 -24 -13 -30 -5 -5 -14 -39 -20 -75 -15 -79 -21 -87 -65 -92 l-35 -4
0 48 c0 61 -16 63 -23 2 -6 -54 -12 -61 -55 -70 -32 -6 -32 -6 -27 27 24 145
55 240 89 268 27 22 36 2 36 -77 0 -42 4 -72 9 -66 4 5 24 61 45 124 38 121
71 190 95 198 12 4 13 -10 8 -84 l-6 -89 24 40 c63 106 199 258 275 306 56 36
104 38 122 7z m13 -411 c3 -20 19 -52 35 -70 l28 -33 -28 -58 c-16 -32 -33
-71 -39 -86 l-9 -29 -47 14 c-25 8 -50 17 -54 20 -11 6 10 101 34 160 34 81
70 149 72 135 1 -8 4 -32 8 -53z m338 -116 c26 -26 33 -113 14 -187 -15 -59
-52 -134 -66 -134 -5 0 -40 21 -60 36 -2 2 13 26 33 55 21 28 35 53 33 55 -2
3 -23 -16 -46 -41 -44 -48 -56 -52 -83 -31 -15 11 -11 20 42 92 32 43 64 85
70 92 7 7 7 12 1 12 -12 0 -141 -148 -141 -162 0 -12 -33 -9 -52 6 -10 7 -14
17 -9 22 18 18 83 155 77 161 -3 4 -6 1 -6 -5 0 -6 -6 -17 -13 -24 -17 -18
-62 -89 -70 -110 -3 -10 -16 -18 -27 -18 -17 0 -19 4 -14 28 4 15 21 59 39 97
l32 71 74 2 c40 2 76 5 78 8 10 10 76 -8 94 -25z m304 -83 c-38 -52 -92 -156
-84 -164 4 -4 8 -5 10 -3 1 2 29 44 60 92 32 48 65 91 73 94 13 5 83 -25 107
-47 4 -4 -8 -27 -28 -51 -42 -52 -40 -50 -88 -115 -20 -29 -37 -56 -37 -62 0
-6 -6 -12 -12 -15 -7 -2 -10 -7 -7 -11 3 -3 54 46 114 110 l109 116 42 -46
c73 -78 75 -73 -29 -151 -129 -97 -189 -147 -183 -153 3 -3 11 0 18 6 17 14
278 172 284 172 6 0 54 -102 54 -115 0 -10 -129 -87 -233 -139 -20 -11 -35
-21 -33 -23 5 -6 148 43 215 74 30 13 59 22 66 19 14 -5 29 -107 17 -117 -12
-12 -184 -59 -217 -60 -30 0 -30 0 -5 -10 22 -9 136 6 213 27 15 5 17 -2 17
-48 0 -29 -4 -59 -9 -66 -11 -19 -74 -31 -153 -32 -38 0 -68 -4 -68 -9 0 -13
97 -23 156 -15 60 7 62 5 39 -49 -27 -64 -69 -70 -251 -36 -97 18 -112 24
-128 47 l-17 27 5 -26 c21 -100 28 -180 16 -194 -16 -19 -6 -19 85 1 81 18
326 30 409 20 72 -9 105 -36 113 -91 l5 -40 -89 7 c-48 3 -140 6 -203 6 -102
-1 -108 -2 -50 -8 141 -16 325 -43 333 -49 4 -4 2 -36 -6 -72 -9 -47 -17 -63
-27 -60 -48 12 -188 45 -265 63 -189 43 -211 46 -199 27 3 -6 15 -9 25 -6 11
3 19 2 19 -2 0 -4 21 -12 48 -18 150 -34 362 -109 362 -129 0 -32 -46 -124
-62 -124 -21 0 -137 46 -300 120 -71 32 -126 54 -123 50 7 -11 228 -135 328
-184 42 -21 77 -41 77 -44 0 -17 -86 -132 -98 -132 -8 0 -66 39 -129 86 -63
47 -116 84 -119 81 -4 -4 131 -132 196 -186 l25 -21 -25 -20 c-26 -22 -55 -36
-94 -46 -19 -4 -34 3 -66 33 -48 42 -169 183 -220 255 -18 27 -35 48 -36 48
-2 0 -19 -25 -39 -55 -19 -30 -37 -55 -39 -55 -3 0 10 30 28 67 68 139 81 200
80 378 0 150 -2 164 -28 229 -43 110 -127 270 -156 296 -3 3 -16 21 -29 40
-93 133 -273 292 -411 362 -74 37 -3 16 84 -25 125 -60 199 -109 280 -186 53
-52 67 -60 61 -41 -4 14 -14 32 -22 41 -12 15 -10 22 17 62 16 25 46 89 65
142 60 166 75 185 141 185 l45 0 -24 -32z m-892 -84 c211 -61 410 -199 578
-402 112 -135 175 -241 234 -389 24 -63 26 -80 26 -218 1 -138 -2 -157 -27
-234 -43 -131 -125 -258 -229 -357 -48 -46 -93 -84 -98 -84 -6 0 5 15 23 33
130 125 219 302 253 502 21 124 19 210 -6 291 -64 208 -295 521 -498 675 -131
99 -359 189 -481 189 -22 0 -40 5 -40 10 0 21 172 11 265 -16z m-199 -39 c106
-17 195 -49 285 -101 234 -137 475 -400 605 -662 44 -89 52 -156 35 -296 -29
-247 -157 -458 -380 -627 -77 -58 -264 -152 -336 -169 -448 -104 -783 -38
-1016 201 -61 63 -156 195 -146 205 3 3 21 1 41 -6 19 -6 69 -11 111 -11 165
0 305 82 383 226 24 44 27 61 27 145 0 89 -2 99 -32 150 -56 97 -148 172 -248
203 -109 33 -185 29 -278 -17 -26 -12 -47 -21 -47 -20 0 2 12 38 26 80 133
385 441 670 764 707 73 8 118 6 206 -8z m-713 -760 c81 -21 132 -49 192 -106
70 -66 98 -126 103 -216 4 -61 0 -80 -22 -130 -81 -177 -304 -267 -492 -199
-37 14 -81 39 -99 56 -118 114 -119 363 -4 494 49 56 90 81 160 100 70 19 93
19 162 1z m-102 -961 l27 -26 -34 -30 c-44 -39 -81 -102 -89 -153 l-6 -40 28
55 c24 47 28 52 31 30 4 -33 33 -100 44 -100 11 0 10 2 -7 44 -14 34 -14 36 4
36 11 0 33 -12 50 -26 33 -28 40 -22 16 13 -8 12 -31 27 -50 33 -28 9 -35 17
-35 38 0 25 44 82 63 82 5 0 29 -14 53 -32 35 -25 44 -37 44 -61 0 -37 -28
-148 -42 -164 -20 -25 -141 -9 -206 26 -18 9 -19 15 -10 51 16 61 8 70 -62 70
-53 0 -60 2 -60 20 0 34 62 92 135 127 38 18 72 33 74 33 3 0 17 -12 32 -26z
m1465 -75 c32 -7 64 -15 69 -19 6 -4 24 -11 41 -14 18 -4 40 -16 50 -27 17
-19 16 -21 -13 -57 -16 -20 -49 -50 -72 -67 -38 -27 -50 -30 -119 -30 -88 0
-124 17 -186 85 -68 76 -38 83 41 10 55 -50 113 -88 113 -73 0 5 -34 35 -75
68 -41 33 -75 63 -75 67 0 21 26 17 63 -10 59 -42 184 -104 203 -100 8 2 -37
30 -100 62 -64 33 -116 63 -116 67 0 23 43 16 125 -21 34 -15 99 -30 130 -29
34 1 33 1 -122 50 -71 22 -86 32 -60 42 20 9 40 8 103 -4z m-281 -115 c8 -19
17 -57 21 -84 6 -46 5 -50 -19 -61 -53 -24 -176 19 -185 65 -5 24 17 76 32 76
8 0 10 -13 8 -36 -6 -47 13 -38 22 11 4 21 13 35 21 35 11 0 15 -13 15 -52 0
-29 5 -60 10 -68 7 -10 10 9 10 63 0 42 4 77 8 77 4 0 16 -27 25 -60 10 -33
22 -60 28 -60 12 0 11 10 -6 60 -25 71 -17 98 10 34z" id="node1" class="node" stroke-width="20"></path>
<path d="M2328 1093 c6 -2 18 -2 25 0 6 3 1 5 -13 5 -14 0 -19 -2 -12 -5z" id="node2" class="node"></path>
<path d="M1235 1970 c-12 -4 -27 -16 -35 -26 -14 -16 -13 -17 3 -11 72 27 168
11 235 -39 17 -14 32 -21 32 -15 0 18 -50 69 -84 85 -36 17 -117 20 -151 6z" id="node3" class="node"></path>
<path d="M418 1790 c-36 -20 -85 -76 -75 -87 4 -3 20 6 37 20 37 32 101 51
141 42 40 -9 37 9 -5 29 -43 20 -52 20 -98 -4z" id="node4" class="node"></path>
<path d="M1192 1753 c-81 -19 -177 -83 -219 -146 -59 -88 -75 -149 -71 -263 2
-56 8 -108 14 -115 7 -8 15 -25 19 -39 4 -14 19 -41 34 -60 118 -160 324 -205
519 -113 66 31 169 129 196 186 42 90 38 225 -10 319 -34 67 -126 158 -192
192 -54 28 -160 56 -202 55 -14 0 -53 -7 -88 -16z m204 -33 c113 -39 200 -114
255 -220 21 -39 24 -59 24 -145 0 -111 -9 -136 -72 -206 -81 -90 -197 -141
-317 -141 -132 0 -241 58 -304 162 -42 70 -52 109 -52 198 0 166 84 293 231
347 80 30 157 31 235 5z" id="node5" class="node"></path>
<path d="M1310 1554 c-55 -19 -116 -76 -131 -122 -15 -44 -14 -120 0 -165 13
-38 76 -102 117 -117 39 -15 132 -12 170 6 84 40 132 140 113 239 -23 121
-156 199 -269 159z m160 -44 c26 -26 25 -46 -5 -75 -29 -30 -35 -31 -69 -4
-30 23 -33 45 -10 77 19 28 57 29 84 2z" id="node6" class="node"></path>
<path d="M1401 816 c-6 -40 -21 -90 -32 -112 -59 -111 -195 -190 -366 -213
-29 -4 -55 -10 -59 -14 -14 -14 39 -55 99 -78 90 -34 278 -39 359 -11 140 49
190 141 153 280 -22 81 -49 138 -84 175 -51 55 -56 53 -70 -27z m70 -8 c14
-24 33 -64 41 -89 l16 -46 -44 -22 c-30 -14 -54 -37 -75 -68 -27 -43 -30 -55
-27 -110 5 -75 8 -73 -144 -73 -87 0 -122 5 -188 26 -45 14 -80 27 -78 29 2 2
48 13 103 24 55 11 120 30 145 43 115 55 185 144 203 258 6 38 13 70 16 70 4
0 18 -19 32 -42z m69 -205 c0 -21 -9 -56 -19 -78 -19 -43 -73 -95 -97 -95 -15
0 -19 44 -7 100 7 39 74 110 103 110 16 0 20 -7 20 -37z" id="node7" class="node"></path>
<path d="M382 1213 c-13 -3 -45 -26 -72 -51 -74 -72 -90 -158 -45 -248 98
-197 398 -124 398 96 0 84 -68 179 -141 200 -37 10 -96 11 -140 3z m182 -66
c19 -26 19 -30 5 -55 -20 -37 -71 -42 -93 -10 -22 30 -20 54 5 79 26 26 57 21
83 -14z" id="node8" class="node"></path>
</g>
<g transform="translate(0.000000,296.000000) scale(0.100000,-0.100000)" fill="#FFFFFF" stroke="none">


<path d="M1470 2851 c-76 -48 -212 -200 -275 -306 l-24 -40 6 89 c5 74 4 88
-8 84 -24 -8 -57 -77 -95 -198 -21 -63 -41 -119 -45 -124 -5 -6 -9 24 -9 66 0
79 -9 99 -36 77 -34 -28 -65 -123 -89 -268 -5 -33 -5 -33 27 -27 43 9 49 16
55 70 7 61 23 59 23 -2 l0 -48 35 4 c44 5 50 13 65 92 6 36 15 70 20 75 4 6
10 19 13 30 11 48 6 -33 -7 -100 -8 -38 -11 -73 -7 -77 16 -17 51 5 62 41 6
20 15 41 19 46 4 6 13 28 20 50 29 93 170 366 170 331 0 -4 -22 -53 -49 -109
-26 -56 -52 -113 -56 -127 -4 -14 -11 -29 -15 -35 -7 -10 -30 -73 -56 -152
l-13 -43 30 0 c25 0 31 6 46 43 46 117 184 376 206 385 4 2 7 10 7 17 0 8 4
17 10 20 15 9 -5 -38 -43 -104 -30 -50 -64 -119 -102 -206 -25 -56 -65 -154
-65 -160 0 -3 16 -5 35 -5 30 0 37 5 46 28 16 43 97 215 119 252 5 8 18 32 30
53 40 69 32 31 -11 -54 -23 -46 -61 -130 -84 -186 -41 -99 -42 -101 -21 -107
38 -10 42 -7 56 46 12 47 28 90 65 173 70 155 79 188 79 290 1 119 -9 145 -57
145 -18 0 -52 -13 -77 -29z" id="node11" class="node"></path>
<path d="M1568 2460 c-57 -119 -95 -244 -77 -255 4 -3 29 -12 54 -20 l47 -14
9 29 c6 15 23 54 39 86 l28 58 -28 33 c-25 28 -34 54 -43 123 -1 8 -14 -10
-29 -40z" id="node12" class="node"></path>
<path d="M1849 2356 c-2 -3 -38 -6 -78 -8 l-74 -2 -32 -71 c-18 -38 -35 -82
-39 -97 -5 -24 -3 -28 14 -28 11 0 24 8 27 18 8 21 53 92 70 110 7 7 13 18 13
24 0 6 3 9 6 5 6 -6 -59 -143 -77 -161 -5 -5 -1 -15 9 -22 19 -15 52 -18 52
-6 0 14 129 162 141 162 6 0 6 -5 -1 -12 -6 -7 -38 -49 -70 -92 -53 -72 -57
-81 -42 -92 27 -21 39 -17 83 31 23 25 44 44 46 41 2 -2 -12 -27 -33 -55 -20
-29 -35 -53 -33 -55 20 -15 55 -36 60 -36 14 0 51 75 66 134 19 74 12 161 -14
187 -18 17 -84 35 -94 25z" id="node13" class="node"></path>
<path d="M2165 2264 c-23 -23 -41 -61 -80 -169 -19 -53 -49 -117 -65 -142 -27
-40 -29 -47 -17 -62 8 -9 18 -27 22 -41 6 -19 -8 -11 -61 41 -81 77 -155 126
-280 186 -87 41 -158 62 -84 25 138 -70 318 -229 411 -362 13 -19 26 -37 29
-40 29 -26 113 -186 156 -296 26 -65 28 -79 28 -229 1 -178 -12 -239 -80 -378
-18 -37 -31 -67 -28 -67 2 0 20 25 39 55 20 30 37 55 39 55 1 0 18 -21 36 -48
51 -72 172 -213 220 -255 32 -30 47 -37 66 -33 39 10 68 24 94 46 l25 20 -25
21 c-65 54 -200 182 -196 186 3 3 56 -34 119 -81 63 -47 121 -86 129 -86 12 0
98 115 98 132 0 3 -35 23 -77 44 -100 49 -321 173 -328 184 -3 4 52 -18 123
-50 163 -74 279 -120 300 -120 16 0 62 92 62 124 0 20 -212 95 -362 129 -27 6
-48 14 -48 18 0 4 -8 5 -19 2 -10 -3 -22 0 -25 6 -12 19 10 16 199 -27 77 -18
217 -51 265 -63 10 -3 18 13 27 60 8 36 10 68 6 72 -8 6 -192 33 -333 49 -58
6 -52 7 50 8 63 0 155 -3 203 -6 l89 -7 -5 40 c-8 55 -41 82 -113 91 -83 10
-328 -2 -409 -20 -91 -20 -101 -20 -85 -1 12 14 5 94 -16 194 l-5 26 17 -27
c16 -23 31 -29 128 -47 182 -34 224 -28 251 36 23 54 21 56 -39 49 -59 -8
-156 2 -156 15 0 5 30 9 68 9 79 1 142 13 153 32 5 7 9 37 9 66 0 46 -2 53
-17 48 -77 -21 -191 -36 -213 -27 -25 10 -25 10 5 10 33 1 205 48 217 60 12
10 -3 112 -17 117 -7 3 -36 -6 -66 -19 -67 -31 -210 -80 -215 -74 -2 2 13 12
33 23 104 52 233 129 233 139 0 13 -48 115 -54 115 -6 0 -267 -158 -284 -172
-7 -6 -15 -9 -18 -6 -6 6 54 56 183 153 104 78 102 73 29 151 l-42 46 -109
-116 c-60 -64 -111 -113 -114 -110 -3 4 0 9 7 11 6 3 12 9 12 15 0 6 17 33 37
62 48 65 46 63 88 115 20 24 32 47 28 51 -24 22 -94 52 -107 47 -8 -3 -41 -46
-73 -94 -31 -48 -59 -90 -60 -92 -2 -2 -6 -1 -10 3 -8 8 46 112 84 164 l24 32
-45 0 c-27 0 -51 -6 -61 -16z m188 -1171 c-7 -2 -19 -2 -25 0 -7 3 -2 5 12 5
14 0 19 -2 13 -5z" id="node14" class="node"></path>
<path d="M1090 2180 c0 -5 18 -10 40 -10 122 0 350 -90 481 -189 203 -154 434
-467 498 -675 25 -81 27 -167 6 -291 -34 -200 -123 -377 -253 -502 -18 -18
-29 -33 -23 -33 5 0 50 38 98 84 104 99 186 226 229 357 25 77 28 96 27 234 0
138 -2 155 -26 218 -59 148 -122 254 -234 389 -220 266 -507 428 -755 428 -52
0 -88 -4 -88 -10z" id="node15" class="node"></path>
<path d="M950 2133 c-273 -31 -552 -252 -700 -554 -30 -61 -90 -217 -90 -233
0 -1 21 8 47 20 93 46 169 50 278 17 100 -31 192 -106 248 -203 30 -51 32 -61
32 -150 0 -84 -3 -101 -27 -145 -78 -144 -218 -226 -383 -226 -42 0 -92 5
-111 11 -20 7 -38 9 -41 6 -10 -10 85 -142 146 -205 233 -239 568 -305 1016
-201 72 17 259 111 336 169 223 169 351 380 380 627 17 140 9 207 -35 296
-158 318 -468 623 -735 724 -107 40 -252 59 -361 47z m436 -169 c34 -16 84
-67 84 -85 0 -6 -15 1 -32 15 -67 50 -163 66 -235 39 -16 -6 -17 -5 -3 11 8
10 23 22 35 26 34 14 115 11 151 -6z m-870 -170 c42 -20 45 -38 5 -29 -40 9
-104 -10 -141 -42 -17 -14 -33 -23 -37 -20 -10 11 39 67 75 87 46 24 55 24 98
4z m852 -39 c34 -8 86 -27 114 -41 66 -34 158 -125 192 -192 48 -94 52 -229
10 -319 -27 -57 -130 -155 -196 -186 -195 -92 -401 -47 -519 113 -15 19 -30
46 -34 60 -4 14 -12 31 -19 39 -6 7 -12 59 -14 115 -4 114 12 175 71 263 42
63 138 127 219 146 81 20 100 20 176 2z m103 -912 c35 -37 62 -94 84 -175 37
-139 -13 -231 -153 -280 -81 -28 -269 -23 -359 11 -60 23 -113 64 -99 78 4 4
30 10 59 14 171 23 307 102 366 213 11 22 26 72 32 112 14 80 19 82 70 27z" id="node16" class="node"></path>
<path d="M1161 1715 c-147 -54 -231 -181 -231 -347 0 -89 10 -128 52 -198 125
-208 442 -219 621 -21 63 70 72 95 72 206 0 86 -3 106 -24 145 -55 106 -142
181 -255 220 -78 26 -155 25 -235 -5z m313 -178 c117 -66 147 -224 61 -325
-44 -51 -90 -72 -158 -72 -70 0 -96 10 -146 55 -45 41 -63 85 -63 155 0 68 17
111 60 152 71 69 162 82 246 35z" id="node17" class="node"></path>
<path d="M1386 1508 c-23 -32 -20 -54 10 -77 34 -27 40 -26 69 4 30 29 31 49
5 75 -27 27 -65 26 -84 -2z" id="node18" class="node"></path>
<path d="M1423 780 c-18 -114 -88 -203 -203 -258 -25 -13 -90 -32 -145 -43
-55 -11 -101 -22 -103 -24 -2 -2 33 -15 78 -29 66 -21 101 -26 188 -26 152 0
149 -2 144 73 -3 55 0 67 27 110 21 31 45 54 75 68 l44 22 -16 46 c-16 48 -62
131 -73 131 -3 0 -10 -32 -16 -70z" id="node19" class="node"></path>
<path d="M1462 602 c-39 -39 -52 -74 -52 -138 0 -42 17 -44 61 -7 39 33 68 95
69 146 0 30 -4 37 -20 37 -11 0 -37 -17 -58 -38z" id="node20" class="node"></path>
<path d="M281 1364 c-70 -19 -111 -44 -160 -100 -87 -100 -112 -276 -56 -401
35 -80 78 -119 159 -149 188 -68 411 22 492 199 22 50 26 69 22 130 -5 90 -33
150 -103 216 -60 57 -111 85 -192 106 -69 18 -92 18 -162 -1z m241 -154 c73
-21 141 -116 141 -200 0 -88 -63 -178 -138 -199 -115 -32 -212 7 -260 103 -45
90 -29 176 45 248 27 25 59 48 72 51 44 8 103 7 140 -3z" id="node21" class="node"></path>
<path d="M481 1161 c-25 -25 -27 -49 -5 -79 22 -32 73 -27 93 10 14 25 14 29
-5 55 -26 35 -57 40 -83 14z" id="node22" class="node"></path>


<path d="M235 397 c-73 -35 -135 -93 -135 -127 0 -18 7 -20 60 -20 70 0 78 -9
62 -70 -9 -36 -8 -42 10 -51 65 -35 186 -51 206 -26 14 16 42 127 42 164 0 24
-9 36 -44 61 -24 18 -48 32 -53 32 -19 0 -63 -57 -63 -82 0 -21 7 -29 35 -38
19 -6 42 -21 50 -33 24 -35 17 -41 -16 -13 -17 14 -39 26 -50 26 -18 0 -18 -2
-4 -36 17 -42 18 -44 7 -44 -11 0 -40 67 -44 100 -3 22 -7 17 -31 -30 l-28
-55 6 40 c8 51 45 114 89 153 l34 30 -27 26 c-15 14 -29 26 -32 26 -2 0 -36
-15 -74 -33z" id="node25" class="node"></path>
<path d="M1703 333 c-26 -10 -11 -20 60 -42 155 -49 156 -49 122 -50 -31 -1
-96 14 -130 29 -82 37 -125 44 -125 21 0 -4 52 -34 116 -67 63 -32 108 -60
100 -62 -19 -4 -144 58 -203 100 -37 27 -63 31 -63 10 0 -4 34 -34 75 -67 41
-33 75 -63 75 -68 0 -15 -58 23 -113 73 -79 73 -109 66 -41 -10 62 -68 98 -85
186 -85 69 0 81 3 119 30 23 17 56 47 72 67 29 36 30 38 13 57 -10 11 -32 23
-50 27 -17 3 -35 10 -41 14 -11 8 -120 30 -144 29 -9 0 -22 -3 -28 -6z" id="node26" class="node"></path>
<path d="M1500 236 c0 -7 7 -33 15 -56 17 -50 18 -60 6 -60 -6 0 -18 27 -28
60 -9 33 -21 60 -25 60 -4 0 -8 -35 -8 -77 0 -54 -3 -73 -10 -63 -5 8 -10 39
-10 68 0 39 -4 52 -15 52 -8 0 -17 -14 -21 -35 -9 -49 -28 -58 -22 -11 2 23 0
36 -8 36 -15 0 -37 -52 -32 -76 9 -46 132 -89 185 -65 24 11 25 15 19 61 -9
68 -46 154 -46 106z" id="node27" class="node"></path>
</g>
</svg>