<!--?xml version="1.0" standalone="no"?-->

<svg version="1.0" xmlns="http://www.w3.org/2000/svg" width="205.000000pt" height="300.000000pt" viewBox="0 0 205.000000 300.000000" preserveAspectRatio="xMidYMid meet">
<g transform="translate(0.000000,300.000000) scale(0.100000,-0.100000)" fill="#101010" stroke="none">
<path class="node" id="node1" d="M1257 2835 c-4 -84 -14 -147 -32 -210 -23 -81 -47 -286 -40 -350 1
-11 3 -47 4 -80 l2 -60 19 42 c10 23 25 75 33 115 8 40 40 146 71 234 31 89
56 176 56 195 0 62 -31 148 -70 191 l-37 42 -6 -119z"></path>
<path class="node" id="node2" d="M1092 2568 c2 -271 6 -378 15 -393 8 -13 12 -15 13 -6 0 8 10 25 22
38 20 21 23 38 29 171 5 107 14 173 33 245 14 54 26 107 26 119 0 38 -106 198
-132 198 -6 0 -9 -124 -6 -372z"></path>
<path class="node" id="node3" d="M1443 2848 c-11 -69 -44 -174 -126 -398 -23 -63 -36 -122 -41 -175
l-6 -80 33 85 c18 47 42 99 53 115 63 90 137 225 149 273 25 96 16 171 -28
225 l-22 28 -12 -73z"></path>
<path class="node" id="node4" d="M1641 2860 c-3 -54 -24 -101 -107 -230 -108 -171 -178 -315 -209
-437 -14 -52 -25 -100 -25 -105 0 -6 18 25 40 68 22 44 91 147 153 231 147
196 167 237 166 334 0 74 -15 187 -18 139z"></path>
<path class="node" id="node5" d="M653 2757 c-17 -20 -48 -70 -69 -112 -37 -74 -38 -80 -38 -183 0
-115 11 -167 46 -222 l23 -35 6 145 c8 165 20 255 50 353 11 38 19 73 17 79
-2 6 -18 -6 -35 -25z"></path>
<path class="node" id="node6" d="M500 2724 c-72 -114 -75 -126 -75 -284 l0 -145 49 -90 c28 -49 60
-119 72 -155 l23 -65 0 80 c1 44 -10 156 -24 249 -27 183 -31 299 -14 390 6
32 8 60 5 63 -3 3 -19 -17 -36 -43z"></path>
<path class="node" id="node7" d="M1765 2702 c-24 -44 -188 -263 -260 -347 -36 -42 -60 -83 -79 -134
-14 -40 -24 -76 -21 -79 6 -6 -14 -32 -26 -32 -5 0 -4 12 1 26 17 44 11 41
-19 -11 -44 -79 -121 -190 -121 -176 0 7 4 20 10 30 10 19 50 194 43 187 -3
-2 -12 -19 -22 -37 -26 -47 -41 -48 -41 -2 l-1 38 -23 -45 -24 -44 -7 42 c-9
52 -19 47 -35 -18 -7 -27 -16 -50 -21 -50 -13 0 -39 97 -40 149 -1 25 -4 57
-8 71 -7 21 -9 18 -15 -25 -20 -146 -37 -236 -55 -285 -11 -30 -17 -57 -15
-59 2 -3 19 12 38 32 l34 37 8 -102 9 -103 34 85 c44 113 45 114 51 50 7 -77
-6 -172 -30 -227 -11 -25 -18 -48 -15 -51 2 -3 27 5 56 17 28 12 53 20 56 17
7 -6 -44 -116 -64 -138 -20 -22 -11 -23 29 -2 24 12 30 13 26 3 -3 -8 -14 -34
-24 -59 -10 -25 -29 -60 -42 -78 l-25 -33 28 11 c36 14 41 8 26 -39 -8 -28
-30 -56 -81 -101 -39 -34 -70 -67 -70 -73 0 -7 4 -7 12 1 18 18 63 15 80 -5
52 -61 2 -145 -69 -114 l-28 11 30 -25 c73 -60 278 -15 419 94 37 28 77 56 88
62 21 11 21 12 -12 23 -18 6 -35 16 -37 22 -3 9 116 54 145 54 6 0 12 3 12 8
0 4 -24 8 -53 8 -28 1 -65 7 -82 14 -30 13 -30 13 36 25 38 6 80 21 100 36
l34 24 -80 8 c-107 10 -121 27 -24 27 40 1 83 6 95 13 24 14 74 53 74 58 0 2
-46 3 -102 2 l-103 -2 70 18 c69 17 168 62 180 80 3 6 -16 1 -42 -11 -32 -14
-76 -23 -131 -26 -101 -6 -134 12 -42 22 80 9 134 29 198 72 60 42 71 64 15
31 -35 -20 -51 -22 -218 -23 -99 0 -189 -4 -200 -8 -11 -3 -36 -27 -54 -52
-33 -43 -77 -82 -85 -73 -2 2 23 51 54 109 31 58 56 107 54 109 -2 2 -10 -2
-19 -9 -9 -7 -18 -10 -21 -7 -4 3 19 34 49 69 57 64 66 82 25 54 -39 -27 -41
-18 -6 25 18 23 42 53 53 67 l20 27 -39 -24 -38 -24 7 24 c4 13 16 39 26 58
30 51 17 46 -25 -10 -21 -28 -39 -49 -42 -47 -2 3 14 48 36 102 44 107 45 110
30 101 -5 -3 -10 -2 -10 3 0 5 68 78 150 161 178 181 231 260 238 353 6 74 -7
90 -33 40z"></path>
<path class="node" id="node8" d="M788 2683 c-36 -38 -116 -178 -129 -228 -13 -48 -13 -169 0 -210 5
-16 10 -24 10 -17 1 6 35 109 77 227 41 118 74 224 72 236 -3 20 -4 19 -30 -8z"></path>
<path class="node" id="node9" d="M877 2589 c-86 -65 -166 -255 -151 -357 l7 -46 18 23 c11 13 19 40
19 60 1 53 21 99 73 173 26 36 47 71 47 77 0 7 9 30 20 51 23 46 12 52 -33 19z"></path>
<path class="node" id="node10" d="M1816 2545 c-16 -27 -96 -115 -177 -195 -137 -135 -148 -149 -164
-202 -9 -32 -21 -60 -26 -63 -5 -4 -9 -12 -9 -18 0 -7 8 -3 18 9 9 11 35 33
57 49 38 27 72 55 184 149 25 21 61 60 79 85 37 51 75 165 70 208 -3 27 -4 26
-32 -22z"></path>
<path class="node" id="node11" d="M970 2510 c-47 -24 -114 -90 -151 -147 -25 -40 -29 -56 -28 -112 1
-37 4 -77 8 -91 7 -22 10 -18 26 35 10 33 46 103 80 155 82 127 108 170 104
175 -2 2 -20 -5 -39 -15z"></path>
<path class="node" id="node12" d="M1870 2384 c-30 -31 -84 -80 -120 -109 -88 -70 -310 -284 -310 -298
0 -6 12 1 28 15 15 14 54 33 87 43 72 20 192 96 257 162 51 52 122 188 116
223 -3 18 -10 14 -58 -36z"></path>
<path class="node" id="node13" d="M1009 2382 c-90 -67 -110 -87 -133 -135 -13 -29 -28 -68 -32 -87 l-7
-35 38 50 c21 28 42 51 46 53 4 2 30 21 58 44 37 30 51 49 56 77 4 20 11 42
17 49 17 20 -5 12 -43 -16z"></path>
<path class="node" id="node14" d="M970 2239 c-78 -77 -100 -116 -99 -173 1 -46 2 -48 9 -19 13 57 71
132 123 159 20 11 27 22 27 44 0 17 -4 30 -9 30 -5 0 -28 -19 -51 -41z"></path>
<path class="node" id="node15" d="M1885 2188 c-194 -119 -415 -273 -415 -288 0 -10 22 -5 125 27 96 30
225 81 246 97 18 13 109 168 109 184 0 17 -9 14 -65 -20z"></path>
<path class="node" id="node16" d="M674 2175 c-8 -47 -20 -52 -29 -12 -5 22 -9 27 -12 14 -3 -9 -8 -15
-12 -12 -5 2 -8 -29 -9 -70 0 -42 3 -73 8 -70 4 3 11 -12 15 -33 l7 -37 12 30
13 30 12 -24 c19 -34 61 -161 61 -183 0 -20 20 -25 21 -5 0 6 6 -6 13 -28 l12
-40 13 53 c7 28 16 52 21 52 10 0 40 -118 41 -162 1 -21 3 -26 6 -13 13 52 23
33 23 -40 0 -43 2 -76 5 -73 3 2 10 54 16 114 7 73 22 145 45 218 41 127 41
156 2 100 l-28 -39 0 50 -1 50 -19 -45 c-10 -25 -22 -58 -25 -75 l-8 -30 -13
30 c-7 17 -14 53 -15 80 l-1 50 -16 -50 c-15 -49 -16 -49 -22 -20 -5 29 -6 29
-18 10 -11 -17 -12 -13 -8 30 l6 50 -14 -35 c-8 -19 -18 -44 -22 -55 -14 -36
-17 44 -4 118 7 38 9 71 6 74 -3 3 -18 -20 -32 -52 -25 -54 -28 -57 -36 -36
-4 13 -5 46 -2 72 8 56 -2 67 -12 14z"></path>
<path class="node" id="node17" d="M1010 2187 c-23 -18 -80 -87 -80 -96 0 -5 10 -7 21 -4 18 5 20 3 14
-16 -8 -26 8 -28 34 -2 15 15 39 117 29 126 -2 2 -10 -2 -18 -8z"></path>
<path class="node" id="node18" d="M1914 2031 c-27 -16 -133 -64 -234 -106 -174 -73 -222 -95 -175 -82
11 3 70 13 130 22 210 30 207 29 276 112 34 41 59 76 57 78 -2 2 -26 -9 -54
-24z"></path>
<path class="node" id="node19" d="M618 1955 c-17 -49 -19 -181 -5 -251 17 -80 70 -194 90 -194 20 0 96
-68 113 -103 15 -28 17 -29 27 -12 5 11 12 44 13 74 2 31 6 72 9 91 l7 35 -26
-24 c-14 -14 -28 -22 -32 -19 -3 3 -1 32 5 64 6 31 9 59 7 61 -2 3 -12 -9 -22
-26 -10 -17 -21 -31 -25 -31 -4 0 -10 22 -14 48 -8 61 -25 91 -25 45 0 -60
-18 -43 -35 35 -9 42 -23 100 -30 127 l-14 50 0 -77 c-2 -143 -28 -94 -34 62
-1 40 -5 57 -9 45z"></path>
<path class="node" id="node20" d="M992 1871 c-32 -28 -34 -32 -43 -132 -19 -208 -42 -282 -119 -394
-18 -26 -30 -49 -27 -52 7 -6 47 15 74 40 13 11 26 18 29 14 8 -7 -36 -83 -67
-116 l-22 -23 24 7 c13 4 43 18 67 30 23 13 42 21 42 18 0 -29 -46 -149 -66
-173 -14 -16 -23 -30 -19 -30 24 0 72 40 119 98 30 38 69 81 88 97 18 15 37
35 42 44 8 14 7 14 -6 3 -19 -15 -78 -33 -78 -24 0 4 9 13 19 19 11 7 34 43
52 80 17 37 38 76 47 86 24 27 7 20 -48 -19 -31 -22 -50 -31 -50 -22 0 17 34
72 65 106 32 34 31 43 -2 36 -48 -8 -57 6 -39 60 28 81 16 119 -19 65 -25 -37
-39 -37 -31 -1 12 48 19 212 10 212 -5 -1 -24 -14 -42 -29z"></path>
<path class="node" id="node21" d="M1877 1884 c-9 -10 -85 -24 -254 -49 -134 -20 -169 -28 -200 -49
l-38 -26 35 0 c19 0 118 9 218 19 l184 19 39 38 c21 21 39 42 39 46 0 9 -14
11 -23 2z"></path>
<path class="node" id="node22" d="M1815 1773 c-33 -7 -138 -19 -232 -26 -140 -11 -176 -17 -193 -32
-11 -10 -20 -21 -20 -25 0 -10 242 -3 352 9 93 11 141 29 158 60 14 27 4 29
-65 14z"></path>
<path class="node" id="node23" d="M452 1510 c-42 -30 -79 -91 -67 -109 3 -6 22 -11 41 -11 38 0 41 -5
17 -32 -15 -17 -15 -18 5 -18 11 0 27 -3 36 -6 11 -4 16 -1 16 10 0 20 13 20
52 0 29 -15 31 -15 23 2 -4 11 -9 30 -10 42 -1 13 -7 27 -15 32 -17 10 -4 30
21 30 25 0 141 -49 152 -64 6 -8 10 -8 14 2 8 20 22 14 43 -20 19 -32 20 -32
20 -8 0 37 -33 84 -82 118 -75 51 -104 62 -166 62 -49 0 -66 -5 -100 -30z m18
-75 c0 -15 -38 -40 -47 -31 -7 7 26 46 39 46 4 0 8 -7 8 -15z"></path>
<path class="node" id="node24" d="M590 1396 c0 -18 7 -47 15 -62 16 -32 19 -54 7 -54 -4 0 -25 14 -45
31 -32 26 -38 28 -35 13 2 -13 -3 -19 -14 -18 -14 1 -15 -2 -8 -17 8 -13 4
-33 -16 -76 -35 -78 -41 -148 -19 -206 l17 -45 -59 -115 c-38 -75 -53 -112
-42 -106 26 14 169 179 189 220 10 19 26 41 34 48 9 8 16 19 16 25 0 7 23 34
51 61 54 54 129 147 129 160 0 5 -5 4 -12 -3 -20 -20 -31 -14 -26 16 3 15 2
38 -2 52 -5 16 -8 19 -9 8 -1 -25 -7 -23 -43 18 -17 19 -53 46 -80 60 l-48 24
0 -34z"></path>
<path class="node" id="node25" d="M363 1373 c-14 -5 -17 -51 -5 -69 5 -8 16 -5 37 7 17 11 25 19 18 19
-7 0 -10 7 -6 16 5 14 3 15 -15 5 -14 -7 -23 -8 -27 -1 -3 5 1 10 9 10 9 0 16
5 16 10 0 11 -7 12 -27 3z"></path>
<path class="node" id="node26" d="M818 1161 c-71 -45 -124 -97 -207 -201 -95 -120 -240 -270 -261 -270
-9 0 -38 23 -65 51 -28 28 -63 57 -78 65 -28 15 -67 11 -67 -7 0 -5 -11 -14
-25 -19 -24 -9 -37 -50 -15 -50 6 0 10 7 10 15 0 28 56 18 84 -16 14 -17 26
-34 26 -39 0 -12 -27 -20 -65 -20 -38 0 -58 -23 -48 -58 5 -21 6 -21 33 8 32
35 81 40 118 14 13 -9 25 -14 27 -12 12 12 -47 109 -80 131 -37 25 -37 41 1
27 23 -9 88 -92 99 -128 9 -30 -3 -115 -20 -138 -7 -10 -26 -18 -41 -19 -39 0
-42 -39 -3 -43 20 -2 35 7 64 39 35 39 37 40 31 15 -6 -24 -5 -26 13 -17 12 7
22 26 26 53 3 24 13 58 21 76 12 26 19 31 37 26 16 -3 29 2 41 15 22 25 36 27
36 6 0 -21 23 -19 53 5 14 11 33 20 42 20 20 0 128 101 155 146 11 17 29 58
40 90 l20 58 -25 -24 c-14 -13 -27 -21 -30 -18 -7 7 24 126 41 159 7 15 25 41
40 58 14 17 24 31 22 31 -2 0 -25 -13 -50 -29z"></path>
<path class="node" id="node27" d="M926 1034 c-15 -22 -24 -25 -51 -21 l-32 5 -6 -57 c-7 -81 -38 -135
-126 -218 -55 -53 -72 -76 -64 -84 8 -8 19 -6 41 5 17 9 38 16 46 16 8 0 28
23 45 50 17 28 36 50 42 50 18 0 4 -78 -25 -141 -34 -72 -34 -87 0 -64 l26 16
-3 -50 c-3 -57 4 -72 21 -42 17 32 30 25 31 -16 l0 -38 14 37 c7 20 16 61 20
92 11 84 34 70 36 -22 0 -26 7 -69 14 -97 l13 -50 1 46 c0 25 4 67 7 93 9 60
24 49 56 -40 12 -35 31 -74 41 -86 15 -20 15 -16 -3 31 -12 30 -23 58 -26 62
-7 11 -34 173 -29 177 2 2 16 -16 31 -40 15 -23 39 -60 53 -82 14 -21 41 -62
58 -90 23 -35 33 -45 33 -31 0 23 -23 69 -63 124 -26 36 -62 139 -52 149 2 3
16 -3 30 -12 26 -17 26 -17 15 3 -10 20 -9 20 37 15 l48 -7 -41 31 c-57 42
-88 85 -124 172 -29 70 -73 140 -88 140 -4 0 -15 -12 -26 -26z"></path>
<path class="node" id="node28" d="M1030 991 c0 -5 4 -12 10 -16 5 -3 23 -31 40 -63 41 -76 79 -116 150
-158 57 -33 109 -88 96 -102 -4 -3 -28 0 -54 7 -80 22 -88 23 -51 2 40 -22
109 -97 109 -117 0 -26 -22 -25 -58 2 l-37 27 27 -29 c27 -29 48 -73 48 -99 0
-22 -31 -7 -68 34 -30 32 -33 33 -26 11 12 -37 11 -103 -3 -107 -21 -7 -80 56
-112 122 -18 37 -35 64 -38 61 -3 -3 6 -29 21 -57 27 -55 37 -149 15 -149 -6
0 -24 14 -40 31 l-29 31 0 -30 c0 -49 -12 -92 -25 -92 -21 0 -75 69 -75 95 0
14 -4 25 -10 25 -5 0 -10 -6 -10 -14 0 -7 -7 -19 -15 -26 -21 -17 -36 -2 -41
41 -5 40 -10 45 -29 29 -26 -21 -48 6 -42 52 5 35 4 37 -14 27 -34 -18 -34 17
0 103 17 44 30 82 29 84 -6 5 -103 -116 -130 -164 -29 -50 -37 -109 -16 -130
7 -7 25 -12 40 -12 26 0 28 -3 28 -40 0 -45 25 -66 65 -56 18 5 25 1 30 -13
14 -44 45 -71 84 -71 28 0 44 -7 62 -26 34 -38 78 -55 104 -41 20 11 74 21
199 36 57 7 74 13 92 35 19 21 32 26 67 26 28 0 49 6 58 16 7 8 30 24 51 35
21 10 44 32 52 48 9 16 26 31 40 35 14 3 31 18 38 34 9 18 22 28 42 30 43 5
78 31 74 56 -6 39 -323 195 -478 236 -117 30 -161 65 -190 149 -15 44 -80 120
-80 92z"></path>
<path class="node" id="node29" d="M1140 676 c0 -2 8 -10 18 -17 15 -13 16 -12 3 4 -13 16 -21 21 -21
13z"></path>
<path class="node" id="node30" d="M1180 645 c0 -2 13 -11 28 -19 16 -8 43 -30 62 -48 l33 -33 -21 31
c-12 17 -27 36 -34 42 -16 13 -68 34 -68 27z"></path>
<path class="node" id="node31" d="M1180 546 c0 -2 8 -10 18 -17 15 -13 16 -12 3 4 -13 16 -21 21 -21
13z"></path>
<path class="node" id="node32" d="M1255 500 c10 -11 20 -20 23 -20 3 0 -3 9 -13 20 -10 11 -20 20 -23
20 -3 0 3 -9 13 -20z"></path>
</g>
<g transform="translate(0.000000,300.000000) scale(0.100000,-0.100000)" fill="#ECCDBA" stroke="none">

<path class="node" id="node34" d="M435 1430 c-10 -11 -16 -23 -12 -26 9 -9 47 16 47 31 0 21 -14 19
-35 -5z"></path>
</g>
</svg>