<!--?xml version="1.0" encoding="utf-8"?-->

<svg xmlns="http://www.w3.org/2000/svg" xmlns:xlink="http://www.w3.org/1999/xlink" width="197.439px" height="150.242px" viewBox="0 0 197.439 150.242">

	<g>
		<path fill="#8C6339" stroke="#080406" stroke-width="1.5" d="M44.18,94.055c0,0-6,2.801-5.4,7.801c0,0-5.8-7,0.2-12
			c0,0-2-10.601,7.2-14l0.199,1.199c0,0,1.399,1,2.601-0.399c1.2-1.399,3.2-2.6,3.2-2.6l0.399,1.6c0,0,1-0.399,2.399-0.399
			s1.8,0,1.8,0l0.601-1.4c0,0-13.8-9.6-30.8-9.8c0,0-8.2-4.2-11.601-13.4l1.2-1c0,0-9.4-15.8-15.4-19.4c0,0,5.801-6.4,17,9.8
			c0,0-1.399-11.2-10.199-17c0,0,10.199,1.8,18.399,14.8c0,0,2-15.2-3.8-23.4c0,0,10.6,13.8,12.399,17.2l0.899,2.534
			c0,0,4.167-14,2-19.5c0,0,5.333,6.333,4.667,15.333c0,0-1.833,7.333-2,8c-0.167,0.668,17.333-10.666,17.667-19
			c0,0,0.167,9.333-2.667,15.167c-2.833,5.832-3.833,6.332-3.833,6.332l-3.667,3.334c0,0,5.667-3.834,13.333-6.334
			s3.384-0.704,3.384-0.704s-5.884,4.538-7.717,5.704c-1.833,1.168,7.333-0.832,9.333-1.166s0,1.5-0.5,2.334c-0.5,0.832,4.167,1,6,1
			s1,3,1,3l5.167-0.5l0.5,3.666l7.667-1.166l0.833,5.332l4-0.666L90.48,56.69c0,0,3.833-1.5,4-0.834s0.167,2.334,0.167,2.334
			s1.5-0.834,2.167-2c0.667-1.168,1.833,2,1.833,2s-0.332-4.668,1.834-4c2.167,0.666,5.667,1,9.167-2s6.333-4.834,7.666-5.834
			c1.334-1,2.167,0,2.834,0.166c0.666,0.168,7.5-4.666,12.833-10c5.333-5.333,19.333-14.5,21.5-21s3.833-6,4.333-3.167s0,8.5,0,8.5
			s7.167-12.833,8.5-15.667c1.334-2.833,1.167-0.333,1.167,6.333c0,6.667-1,11-1,11s12.833-11.833,13.5-17.667
			s1.667-5.667,1.5-0.333c-0.167,5.333-3.333,18-6,21.667s7.5-4,10.5-9s6-8.5,6.167-7.667c0.166,0.833-3.834,15-7.834,19.5s-5,6-5,6
			s14.334-3.166,16.167-8.833c-0.667,0.5-3.333,9-8.333,12.833c-5,3.834-8.5,9.834-15.667,11.168
			c-7.167,1.332-8.833,1.832-7.833,2.166s6,1,11.333,1s13.667,0.834,13.667,0.834s-8.834,5.166-11.334,5.166s4.834,6.166,5.5,6.166
			c0.667,0-9.666,1-12,1c-2.333,0-0.5,3.334,0.667,4.168c1.167,0.832-4.5,3.832-12.167,1.166c-7.666-2.666-9.666-2.666-7.666-1.666
			s4,1.5,2,1.666s-3.834-0.666-3,0.166c0.833,0.834,1.166,1.334,1.166,1.334l-2.166,0.166l-1,0.668l-3.5,1.5c0,0-1.167,1-2.167,1
			s-2.333-1-1.167-0.168c1.167,0.834,3,1.168,2.334,2.168c-0.667,1-1.334,1.166-1.334,1.166s3.167,0.834,1.5,1
			c-1.666,0.166-3,0.166-3,0.166s2.667-0.332,1.334,0.334c-1.334,0.666-3.5,0.166-2.5,1c1,0.832,3,0.332,1.5,1.166s-2.667,0.166-2,1
			c0.666,0.834,2,0.166,0.833,1.166s-3.167,0.834-2.833,1.5c0.333,0.668,1,0.5,1,1.168c0,0.666,0,0.5,0,1.166
			s-1.334,0.666-1.167,1.334c0.167,0.666,1.333,0.666,0.333,1.332c-1,0.668-1.5,1.168-1.5,1.168l-3.333,1.666l-1,0.5
			c0,0-9.5,1-1.167,0.834c8.334-0.168,13.167-4.168,11.5-1.334c-1.666,2.834-6.5,3.666-0.5,3.666s10.167-1.666,9.667-0.666
			s-10.167,3.666-3.333,4c6.833,0.334,15.833,0.834,15.833,0.834l-7.167,5.166l8.167,5.834l-9,0.832c0,0,7.667,5,5,4.668
			c-2.667-0.334-14.833-0.334-12.5,1c2.333,1.332,14.833,5.832,7.833,5.166s-15.666-1.166-15.666-1.166l2.166,4.166
			c0,0-15.833-3.834-17-4.334c-1.166-0.5-3.166,5.168-3.166,5.168l-6.334-7.334c0,0-0.333,6.166-1.333,2.834
			c-1-3.334-2.667-5.834-2.667-5.834s-0.666,2.166-1,0.5c-0.333-1.666-0.666-2.334-0.666-2.334s-0.834-1.166-2.5,0.334
			c-1.667,1.5-1.334,0.5-2.5,3c-1.167,2.5-0.834,3.666-2.667,4s-4.5-0.166-5.334,0.5c-0.833,0.666-1.333,1.5-2.5,2s-2,0.5-2,0.5
			s-1.508-1.166-1.922,0.244c-0.415,1.409-0.664,2.403-1.079,2.321c-0.415-0.084-1.162-1.742-2.074-2.321
			c-0.912-0.582-1.078-0.83-1.907-0.83s-1.327-0.498-2.405,0.332s-1.658,0.498-2.156,1.325c-0.498,0.83-0.498,0.83-0.995,1.742
			s-0.664,1.328-0.664,1.328s8.378,3.979,1.41,9.789c0,0,2.24-3.152-0.747-4.813c-2.986-1.66-3.234-2.406-3.732-2.406
			s-1.327,0-1.825,0c-0.497,0-0.663-0.496-0.994,0c-0.332,0.498-0.664,0.914-0.913,1.742c-0.249,0.83,0.249,1.08-0.664,1.326
			c-0.913,0.25-1.659,0.084-1.659,0.084s0-0.662-0.498-0.58c-0.498,0.084-1.078,0.332-1.078,0.332s-0.664-0.58,0.331-1.244
			s0.249-0.332,1.493-0.912c1.244-0.582,1.493-0.912,1.493-0.912s-0.664-0.332-1.659-0.25c-0.995,0.084-1.162,0.084-1.492,0.084
			c-0.332,0-0.415-0.581-0.913,0.662c-0.498,1.244-0.166,0.664-0.747,1.742s-0.415,1.658-1.161,1.244
			c-0.747-0.414-1.162-1.742-1.162-1.742l-0.497-0.496c0,0-0.664,0.58-1.244,0c-0.581-0.582-0.498-1.576-1.328-1.08
			c-0.829,0.498-0.249-0.164-2.157,1.41c-1.907,1.578-3.814,0.996-2.57,3.4c1.244,2.406,4.812,3.65,4.479,5.145
			s-2.405,4.146-3.981,5.062l-0.913,0.166c0,0,2.737-2.322,2.82-3.399c0.083-1.08-1.161-1.08-2.073-1.162
			c-0.912-0.084-1.244-0.664-2.156-1.576c-0.913-0.912-0.83-0.912-1.742-1.824c-0.913-0.912-1.825-1.824-1.825-1.824
			s-2.902-2.156-3.898-2.24c-0.995-0.082-2.653-0.662-3.98-0.164c-1.327,0.496-2.074,0.082-2.738,0.91
			c-0.663,0.83-0.911,1.078-0.911,1.078l1.575-2.902c0,0-0.498,0-1.492,0.664c-0.996,0.662-1.659,0.498-1.659,0.498
			s1.244-1.99,3.151-3.236c1.908-1.243,3.733-2.819,5.31-3.067c1.577-0.248,3.234-0.082,4.646,1.244
			c1.411,1.327,0.996,2.405,2.323,2.405s4.146-2.239,8.461-6.637c4.313-4.396,9.457-12.11,10.867-15.514
			c1.409-3.4,2.239-4.895,1.741-5.725c-0.498-0.829-0.166-2.322-1.493-2.322s-2.322,0.83-3.898-0.414
			c-1.575-1.244-2.902-2.322-3.815-2.902c-0.912-0.58-1.492-0.996-1.492-0.996l-1.244,0.664c0,0,0.664,2.238-1.411-0.166
			c-2.074-2.404-3.4-3.483-4.146-4.063c-0.747-0.58-1.409-0.83-1.409-0.83s0.249,1.493,0.332,1.908s-0.332,0.663-1.576-0.746
			c-1.245-1.41-2.489-2.24-2.489-2.24v0.664l-2.322-1.576c0,0,0.414,0.332-1.244-0.332s-2.156-0.911-2.985-0.911
			s-0.996,0.247-1.493,0.331C45.437,93.091,44.926,93.143,44.18,94.055z" id="path-0" style="position: relative;"></path>
		<path fill="#8C6339" stroke="#080406" stroke-width="1.5" d="M136.146,63.021c0,0,1.667,4.333,0,4.833
			c-1.666,0.5-2.832,0.834-2.166,2.334s2.666,2.833,3,3.833s0.833,3.499-0.334,4.333c-1.166,0.834-4.833,0.834-5.5,1.168
			c-0.666,0.332,0,2,0.5,3s1.168,1.334-0.166,3.166c-1.334,1.834-2.333,2.5-4.666,2.666c-2.334,0.168-4-0.332-4,0.334
			s0,2.166,0,3.834c0,1.666-0.167,3-2,4.5c-1.834,1.5-4.5,1.498-6,1.832s-4.501,0.5-7.168,0.668
			c-2.666,0.166-4.832,0.166-5.666,0.166s-3-0.834-3-0.834" id="path-1" style="position: relative;"></path>
		<path fill="#8C6339" stroke="#080406" stroke-width="1.5" d="M159.646,19.854l-21.334,18.667 M166.979,24.188l-26.333,18
			c0,0-1.893,2.004-2.854,2.325c-0.961,0.321-3.845,1.922-3.845,1.922 M163.646,52.188c-0.782-0.224-2.396-0.222-4.372-0.172
			L163.646,52.188z M159.274,52.017l-12.628-0.496C149.972,52.408,155.352,52.116,159.274,52.017z M136.992,54.124l6.986,1.73
			c7.667,5.334,33,4,34.667,4 M143.979,59.854c6.334,4.667,25.667,6,25.667,6 M154.646,68.188l-10.334-6
			C147.979,65.188,154.646,68.188,154.646,68.188z" id="path-2" style="position: relative;"></path>
		<path fill="#8C6339" stroke="#080406" stroke-width="1.5" d="M126.313,54.021c0,0,1.667,4.333,0,4.833s-2.833,0.834-2.167,2.334
			c0.667,1.5,2.667,2.833,3,3.833c0.334,1,0.834,3.499-0.333,4.333s-4.833,0.834-5.5,1.167s-1.999,8.667-4.333,8.833
			c-2.334,0.168-4-0.332-4,0.334s0,2.166,0,3.834c0,1.666-0.166,3-2,4.5s-4.5,1.498-6,1.832s-4.5,0.5-7.167,0.668
			c-2.667,0.166-4.833,0.166-5.667,0.166s-3-0.834-3-0.834" id="path-3" style="position: relative;"></path>
		<path fill="#8C6339" stroke="#080406" stroke-width="1.5" d="M91.979,96.188c0,0,4.667,3.832,7.5,6.666
			c2.834,2.834,3,4.168,4.834,5.168c1.832,1,1.832,4.5,6.166,5.166" id="path-4" style="position: relative;"></path>
		<path fill="#8C6339" stroke="#080406" stroke-width="1.5" d="M120.479,125.354c0,0,1.834-6,4-5.332
			c2.166,0.666,12.5,1.666,12.5,1.666l-1-4.834c0,0,0.166-0.832,2.166-0.832s3.834,0,3.168-1c-0.668-1-2-4.5-2-4.5l4.832-2l-0.5-1.5
			l1.834-1.334l-1.334-1.5l0.668-1.334h-1.5c0,0,2.332-0.332,1.166-1.332s-3.334-1.668-3.334-1.668l-0.666-1.5" id="path-5" style="position: relative;"></path>
		<path fill="#8C6339" stroke="#080406" stroke-width="1.5" d="M82.979,78.354c0,0,8.5,1.75,5.25,3.25s-7,1.5-6.5,2.75
			s3.75,3.5,2,3.75s-8-1.5-6.25,0.5s4,3,4,3s-0.5,1.75-2,1.75s-3,1-3,1" id="path-6" style="position: relative;"></path>
		<path fill="#8C6339" stroke="#080406" stroke-width="1.5" d="M61.229,72.104c0.75,0.25,8.5-1.25,8.75-2s-2,4-3,4.75s1.75,1,1.75,1
			l-4.75,3l1.75,2l-4.25,1l3.75,4.75l-6-0.75l6,5.25c0,0-6.75-1-6.25,0s5.75,2,4,2.25s-4,0.25-4,0.25l4.5,1" id="path-7" style="position: relative;"></path>
		<path fill="#8C6339" stroke="#080406" stroke-width="1.5" d="M72.729,64.604c1,0,6.75-1.5,6.75-1.5l-3,6.25h3.5
			c0,0-0.75,2-2.25,3.5s-3,2.5-2.25,2.5s4.5-1,4.5-1l-3,3.25l-1,0.5" id="path-8" style="position: relative;"></path>
		<path fill="#8C6339" stroke="#080406" stroke-width="1.5" d="M57.379,73.854c0,0,7.101-3.75,8.851-5.5s4-4.75,7.25-6.25
			s7.25-1.5,10.5-1.5s7.25,0.75,8.5,0s4.5-2.25,4.5-3s2.25-2.5,2.25-2.5" id="path-9" style="position: relative;"></path>
		<path fill="#8C6339" stroke="#080406" stroke-width="1.5" d="M40.646,90.688c0,0,2.833-1.498,3.833-0.498s1.456,2.815,1.456,2.815
			" id="path-10" style="position: relative;"></path>
		<path fill="#8C6339" stroke="#080406" stroke-width="1.5" d="M44.813,85.355c0,0-1.834-0.666,1.833-2.666s1.5-0.334,1.5-0.334
			l-1.5,1.5" id="path-11" style="position: relative;"></path>
		<path fill="#8C6339" stroke="#080406" stroke-width="1.5" d="M65.635,133.169h0.752l0.751-0.377l0.751-0.75l0.876-0.877
			l1.377-0.125l1.377,0.125l0.25,0.5c0,0,0.375-0.5,0.876-1.502s1.252-0.25,1.252-0.25s2.754,1.377,3.63,0.627
			c0.876-0.752,14.397-16.651,14.397-16.651s-3.631-2.755-5.884-3.255s-4.131,0.375-4.131,0.375s-3.632,7.263-5.76,10.517
			c-1.767,2.701-6.461,7.471-8.009,9.018c-0.317,0.316-0.504,0.498-0.504,0.498s-0.888,1.234-1.05,1.371
			C66.426,132.548,65.251,132.896,65.635,133.169z" id="path-12" style="position: relative;"></path>
		<path fill="#8C6339" stroke="#080406" stroke-width="1.5" d="M175.009,36.807c0,0-11.976,7.544-20.598,8.383
			s-11.976,2.156-11.976,2.156s-2.722,0.851-4.002,1.652c-1.281,0.801-3.524,1.442-3.524,1.442" id="path-13" style="position: relative;"></path>
		<path fill="#8C6339" stroke="#080406" stroke-width="1.5" d="M173.093,28.784c0,0-5.147,2.754-9.221,4.79
			c-4.073,2.036-6.468,4.191-9.82,5.868c-3.352,1.677-7.064,3.113-9.221,3.832c-2.156,0.719-3.354,1.557-3.354,1.557" id="path-14" style="position: relative;"></path>
	</g>
</svg>
