<!--?xml version="1.0" standalone="no"?-->

<svg version="1.0" xmlns="http://www.w3.org/2000/svg" width="282.000000pt" height="300.000000pt" viewBox="0 0 282.000000 300.000000" preserveAspectRatio="xMidYMid meet">
<g transform="translate(0.000000,300.000000) scale(0.100000,-0.100000)" fill="#111111" stroke="none">
<path class="node" id="node1" d="M1410 2691 c0 -5 7 -14 15 -21 13 -11 7 -16 -39 -35 -30 -12 -89 -45
-131 -73 -83 -56 -117 -66 -194 -61 -54 4 -55 -9 -1 -31 17 -7 30 -15 30 -19
0 -4 -22 -24 -49 -45 -106 -80 -227 -258 -307 -451 -25 -60 -49 -119 -54 -130
-121 -276 -163 -324 -293 -335 l-72 -6 40 -19 c27 -12 65 -18 118 -19 l79 -1
-7 -30 c-38 -179 -21 -366 45 -495 29 -56 36 -44 14 22 -15 41 -19 82 -19 188
0 154 11 195 89 322 48 79 60 89 75 60 8 -15 4 -27 -16 -57 -39 -57 -72 -147
-78 -212 l-6 -58 21 60 c21 61 66 135 87 142 7 3 15 -22 23 -68 7 -40 21 -102
31 -138 43 -149 34 -297 -21 -385 -24 -36 -26 -45 -11 -37 57 31 123 144 142
247 22 115 -7 342 -58 457 l-16 38 35 37 c52 55 76 93 104 169 24 63 25 77 21
188 -3 66 -10 153 -16 194 -9 65 -9 79 7 115 49 109 177 156 262 96 40 -28 38
-43 -7 -64 -98 -47 -176 -127 -202 -208 -17 -52 -15 -173 4 -254 l16 -68 -30
-56 c-60 -112 -63 -258 -8 -365 l22 -44 0 132 c0 116 3 137 22 173 38 71 48
73 78 15 61 -121 70 -158 70 -286 0 -104 -3 -128 -24 -180 -13 -33 -29 -66
-34 -72 -5 -7 -6 -13 -2 -13 9 0 89 86 118 127 12 18 26 33 31 33 15 0 0 -111
-28 -200 -14 -47 -50 -133 -79 -192 -30 -60 -50 -108 -46 -108 13 0 111 113
150 173 21 32 52 92 70 135 33 75 34 80 34 222 0 135 -2 149 -27 208 -31 71
-98 186 -105 178 -3 -2 2 -36 11 -75 17 -76 21 -151 7 -136 -4 6 -41 73 -81
150 l-72 140 56 84 c30 46 58 92 61 102 10 31 22 22 28 -21 6 -48 59 -162 112
-246 117 -182 168 -342 145 -457 -22 -116 -92 -245 -213 -394 -52 -66 -56 -73
-35 -73 35 1 150 53 215 97 86 59 128 99 205 196 39 48 73 85 76 83 6 -7 -178
-352 -204 -380 -11 -13 -49 -31 -90 -43 -38 -11 -85 -25 -104 -31 l-35 -10 50
-1 c28 0 70 4 93 8 l44 9 -9 -37 c-4 -20 -8 -70 -8 -111 0 -64 5 -82 29 -123
26 -43 99 -117 117 -117 4 0 -4 26 -19 57 -24 52 -27 70 -27 163 0 85 4 113
21 150 19 40 27 47 78 64 74 25 127 72 176 156 48 83 66 92 102 51 l26 -30 16
40 c23 58 19 114 -15 209 -41 114 -45 142 -24 174 22 33 42 33 77 -1 38 -36
38 -11 -2 66 -21 42 -54 82 -115 137 -58 54 -85 85 -85 101 0 30 29 45 69 33
23 -6 31 -5 31 4 0 16 -46 43 -149 88 -97 42 -121 60 -121 89 0 18 5 21 30 17
29 -4 30 -3 30 32 0 59 53 95 66 45 l6 -24 36 19 c45 24 77 25 178 4 96 -20
186 -14 247 15 24 11 47 21 51 21 11 0 46 -82 46 -109 0 -37 24 -11 65 71 45
91 49 181 11 257 -30 59 -114 137 -190 177 -41 21 -54 33 -49 44 11 25 14 124
4 139 -8 12 -12 12 -25 2 -9 -8 -16 -9 -16 -5 0 17 -90 112 -141 149 -45 32
-51 34 -46 16 7 -27 1 -26 -64 3 -75 35 -170 48 -338 48 -102 -1 -154 3 -178
13 -18 8 -33 10 -33 6z m186 -52 c32 -6 64 -14 69 -18 6 -4 23 -13 39 -19 26
-12 28 -11 23 8 -5 18 -1 20 47 20 65 0 166 -32 223 -71 77 -53 112 -146 81
-214 -16 -35 -24 -31 -32 13 -7 49 -37 87 -87 112 -49 26 -74 26 -33 1 41 -25
64 -59 64 -94 0 -115 -130 -81 -301 80 l-36 34 -47 -33 -48 -33 -151 -6 c-160
-6 -196 -14 -282 -65 -25 -14 -48 -24 -51 -21 -8 8 78 78 116 94 19 8 87 39
150 70 82 40 131 58 170 61 44 4 50 7 30 13 -14 4 -46 7 -72 8 -26 1 -49 5
-52 10 -6 9 40 21 80 21 17 0 24 6 24 20 0 23 -1 23 76 9z m537 -168 c40 -51
55 -107 36 -138 -16 -29 -174 -113 -259 -139 -67 -21 -236 -30 -307 -16 -76
14 -135 -16 -235 -119 l-78 -80 0 66 c0 114 53 180 168 207 29 7 52 15 52 18
0 3 -19 11 -42 17 -24 7 -86 33 -138 58 l-95 46 120 -7 c164 -11 212 -8 253
17 33 19 62 20 62 1 0 -16 -96 -52 -137 -52 -67 0 -72 -17 -8 -25 48 -6 63
-13 87 -41 16 -18 45 -38 65 -45 47 -15 134 -6 184 20 25 13 59 21 92 21 117
0 174 40 161 115 -3 22 -17 61 -30 87 -13 26 -24 50 -24 53 0 11 46 -29 73
-64z m-434 -143 c-5 -41 28 -56 38 -18 3 11 10 20 15 20 18 0 48 -21 48 -34 0
-42 -86 -52 -126 -15 -32 30 -32 59 1 59 15 0 25 -5 24 -12z m-743 -57 c-32
-61 -46 -175 -46 -371 0 -133 -11 -201 -42 -249 -38 -61 -63 11 -63 179 0 138
20 234 74 353 30 65 89 152 97 144 3 -3 -6 -28 -20 -56z m1310 -61 c131 -60
194 -150 194 -277 0 -57 -3 -73 -14 -73 -8 0 -17 9 -21 20 -3 11 -18 29 -32
40 -22 17 -40 20 -128 20 -93 0 -105 2 -136 25 -98 72 -80 67 -236 60 -93 -4
-144 -2 -148 5 -3 5 3 10 14 10 52 0 129 42 211 116 47 42 94 80 105 85 33 14
126 0 191 -31z m-330 -59 c-27 -29 -111 -58 -216 -74 -118 -18 -183 -47 -221
-100 -32 -45 -59 -123 -59 -174 0 -33 -13 -45 -23 -20 -3 7 -11 48 -17 91 -23
141 16 226 117 256 21 6 110 15 198 21 88 5 176 13 195 18 43 10 48 6 26 -18z
m-736 -160 c0 -25 -5 -63 -11 -84 -13 -49 -60 -127 -76 -127 -18 0 -26 100
-13 164 8 38 22 69 43 93 29 33 32 34 44 17 7 -10 13 -38 13 -63z m535 28 c35
-18 51 -19 132 -13 97 7 177 -10 204 -42 28 -34 87 -54 160 -54 83 0 85 -6 9
-20 -66 -13 -146 0 -224 36 -38 17 -87 28 -153 35 -117 12 -166 24 -188 46
-13 13 -14 18 -3 24 18 12 19 12 63 -12z m-27 -81 c23 -6 42 -14 42 -17 0 -4
-15 -21 -34 -38 -45 -39 -76 -91 -76 -126 0 -43 23 -78 119 -186 142 -158 191
-261 191 -396 0 -167 -52 -299 -157 -402 -73 -73 -107 -85 -69 -25 104 165
161 387 137 533 -18 112 -53 168 -196 319 -95 100 -113 128 -127 197 l-12 58
-12 -30 c-38 -88 1 -180 139 -333 98 -108 142 -180 151 -247 l6 -40 -28 55
c-31 63 -82 139 -107 160 -16 13 -16 11 0 -25 29 -69 35 -98 35 -177 0 -89
-26 -168 -72 -220 -28 -31 -29 -31 -23 -8 18 75 27 176 21 259 -6 100 -19 135
-95 259 -98 160 -110 363 -24 419 49 32 97 35 191 11z"></path>
</g>
<g transform="translate(0.000000,300.000000) scale(0.100000,-0.100000)" fill="#A2A2A2" stroke="none">

<path class="node" id="node3" d="M1520 2630 c0 -14 -7 -20 -24 -20 -40 0 -86 -12 -80 -21 3 -5 26 -9
52 -10 26 -1 58 -4 72 -8 20 -6 14 -9 -30 -13 -39 -3 -88 -21 -170 -61 -63
-31 -131 -62 -150 -70 -38 -16 -124 -86 -116 -94 3 -3 26 7 51 21 86 51 122
59 282 65 l151 6 48 33 47 33 36 -34 c171 -161 301 -195 301 -80 0 35 -23 69
-64 94 -41 25 -16 25 33 -1 50 -25 80 -63 87 -112 8 -44 16 -48 32 -13 31 68
-4 161 -81 214 -57 39 -158 71 -223 71 -48 0 -52 -2 -47 -20 5 -19 3 -20 -23
-8 -16 6 -33 15 -39 19 -9 6 -116 29 -137 29 -4 0 -8 -9 -8 -20z"></path>
<path class="node" id="node4" d="M2060 2535 c0 -3 11 -27 24 -53 13 -26 27 -65 30 -87 13 -75 -44
-115 -161 -115 -33 0 -67 -8 -92 -21 -50 -26 -137 -35 -184 -20 -20 7 -49 27
-65 45 -24 28 -39 35 -87 41 -64 8 -59 25 8 25 41 0 137 36 137 52 0 19 -29
18 -62 -1 -41 -25 -89 -28 -253 -17 l-120 7 95 -46 c52 -25 114 -51 138 -58
23 -6 42 -14 42 -17 0 -3 -23 -11 -52 -18 -115 -27 -168 -93 -168 -207 l0 -66
78 80 c100 103 159 133 235 119 71 -14 240 -5 307 16 85 26 243 110 259 139
19 31 4 87 -36 138 -27 35 -73 75 -73 64z"></path>
<path class="node" id="node5" d="M1650 2322 c0 -31 44 -64 84 -64 59 0 88 39 47 62 -28 15 -38 13 -44
-10 -10 -38 -43 -23 -38 18 1 7 -9 12 -24 12 -18 0 -25 -5 -25 -18z"></path>
<path class="node" id="node6" d="M940 2288 c-43 -58 -84 -149 -112 -250 -18 -66 -23 -108 -23 -208 0
-168 25 -240 63 -179 31 48 42 116 42 249 0 196 14 310 46 371 14 28 23 53 20
56 -2 3 -19 -15 -36 -39z"></path>
<path class="node" id="node7" d="M2075 2241 c-11 -5 -58 -43 -105 -85 -82 -74 -159 -116 -211 -116
-11 0 -17 -5 -14 -10 4 -7 55 -9 148 -5 156 7 138 12 236 -60 31 -23 43 -25
136 -25 88 0 106 -3 128 -20 14 -11 29 -29 32 -40 4 -11 13 -20 21 -20 11 0
14 16 14 73 0 127 -63 217 -194 277 -65 31 -158 45 -191 31z"></path>
<path class="node" id="node8" d="M1910 2169 c-19 -5 -107 -13 -195 -18 -88 -6 -177 -15 -198 -21 -101
-30 -140 -115 -117 -256 6 -43 14 -84 17 -91 10 -25 23 -13 23 20 0 51 27 129
59 174 38 53 103 82 221 100 105 16 189 45 216 74 22 24 17 28 -26 18z"></path>
<path class="node" id="node9" d="M1143 2037 c-21 -24 -35 -55 -43 -93 -13 -64 -5 -164 13 -164 16 0
63 78 76 127 15 52 14 126 -2 147 -12 17 -15 16 -44 -17z"></path>
<path class="node" id="node10" d="M1672 2031 c-11 -6 -10 -11 3 -24 22 -22 71 -34 188 -46 66 -7 115
-18 153 -35 78 -36 158 -49 224 -36 76 14 74 20 -9 20 -73 0 -132 20 -160 54
-27 32 -107 49 -204 42 -81 -6 -97 -5 -132 13 -44 24 -45 24 -63 12z"></path>
<path class="node" id="node11" d="M1573 1950 c-81 -19 -113 -70 -113 -179 0 -86 28 -176 81 -263 76
-124 89 -159 95 -259 6 -83 -3 -184 -21 -259 -6 -23 -5 -23 23 8 46 52 72 131
72 220 0 79 -6 108 -35 177 -16 36 -16 38 0 25 25 -21 76 -97 107 -160 l28
-55 -6 40 c-9 67 -53 139 -151 247 -138 153 -177 245 -139 333 l12 30 12 -58
c14 -69 32 -97 127 -197 143 -151 178 -207 196 -319 24 -146 -33 -368 -137
-533 -38 -60 -4 -48 69 25 105 103 157 235 157 402 0 135 -49 238 -191 396
-96 108 -119 143 -119 186 0 35 31 87 76 126 19 17 34 34 34 38 0 7 -64 25
-115 33 -16 2 -45 1 -62 -4z"></path>
</g>
</svg>