<!--?xml version="1.0" standalone="no"?-->

<svg version="1.0" xmlns="http://www.w3.org/2000/svg" width="300.000000pt" height="300.000000pt" viewBox="0 0 300.000000 300.000000" preserveAspectRatio="xMidYMid meet">
<g transform="translate(0.000000,300.000000) scale(0.100000,-0.100000)" fill="#0B0B0B" stroke="none">
<path class="node" id="node1" d="M1130 2693 c-223 -46 -636 -403 -861 -743 -104 -157 -219 -409 -236
-516 -5 -33 2 -24 44 56 57 109 156 257 254 381 102 129 318 333 434 411 114
76 259 151 283 146 10 -2 19 -18 24 -42 25 -120 149 -274 264 -329 64 -29 77
-32 164 -31 75 1 108 6 155 25 l60 23 -88 8 c-149 13 -272 90 -329 207 -35 69
-33 180 4 242 26 45 90 96 135 108 36 10 31 25 -12 40 -40 14 -248 24 -295 14z"></path>
<path class="node" id="node2" d="M2135 2601 c-126 -21 -264 -80 -403 -172 -87 -59 -266 -231 -260
-251 6 -19 95 -47 150 -48 26 0 80 5 120 11 l74 11 34 66 c46 92 162 206 252
250 96 46 225 74 321 70 63 -3 74 -1 61 9 -58 42 -243 71 -349 54z"></path>
<path class="node" id="node3" d="M2400 2450 c0 -55 32 -153 75 -226 40 -69 170 -196 233 -228 30 -15
56 -25 58 -23 3 3 -21 30 -53 60 -99 94 -162 223 -185 376 -6 42 -16 79 -22
83 -6 4 -32 8 -58 8 l-48 0 0 -50z"></path>
<path class="node" id="node4" d="M2225 2475 c-22 -8 -41 -15 -43 -15 -6 0 11 -77 31 -135 109 -328
335 -581 599 -669 42 -14 89 -26 105 -26 25 0 22 3 -27 31 -251 143 -503 506
-535 772 l-7 57 -42 0 c-22 -1 -59 -7 -81 -15z"></path>
<path class="node" id="node5" d="M2084 2404 c-82 -40 -99 -100 -64 -216 102 -335 463 -735 718 -794
81 -19 84 -13 12 28 -98 56 -235 204 -342 368 -93 144 -207 384 -247 520 -12
41 -24 83 -27 93 -6 21 -10 21 -50 1z"></path>
<path class="node" id="node6" d="M940 2333 c-306 -215 -579 -509 -702 -757 -37 -74 -88 -206 -88 -229
0 -5 23 26 51 69 215 330 512 607 809 754 36 18 66 33 67 34 1 1 -11 28 -27
61 -16 33 -30 67 -30 75 -1 39 -16 38 -80 -7z"></path>
<path class="node" id="node7" d="M1907 2230 c-14 -16 -31 -46 -38 -67 -12 -37 -12 -37 32 -76 42 -37
137 -93 145 -85 2 2 -14 40 -36 84 -21 43 -44 100 -50 127 -7 26 -16 47 -20
47 -5 0 -19 -13 -33 -30z"></path>
<path class="node" id="node8" d="M1050 2137 c-306 -185 -556 -415 -672 -617 -50 -88 -38 -87 54 4 209
206 497 399 741 497 50 20 74 39 49 39 -5 0 -32 23 -60 50 -28 28 -57 50 -64
49 -7 0 -29 -10 -48 -22z"></path>
<path class="node" id="node9" d="M1790 2079 c-75 -60 -213 -109 -307 -109 -51 0 -164 31 -191 53 -17
14 -112 -84 -146 -151 -60 -118 -106 -300 -106 -420 -1 -57 -1 -57 -50 -90
-94 -64 -237 -228 -289 -330 -43 -87 -36 -89 40 -16 68 65 116 101 124 92 2
-2 -11 -28 -29 -58 -43 -74 -83 -182 -96 -256 -10 -60 -10 -134 0 -134 4 0 12
28 19 62 7 35 30 100 52 144 38 81 120 186 134 172 4 -4 -1 -29 -12 -55 -35
-82 -56 -190 -50 -253 8 -94 20 -93 33 2 14 96 59 198 117 271 31 38 35 51 41
125 8 88 30 177 46 187 7 4 8 -37 4 -121 -7 -119 -6 -127 10 -121 10 4 40 7
67 7 45 0 49 2 49 23 0 38 41 149 75 202 37 59 118 139 178 175 73 45 214 93
302 102 23 2 31 8 33 28 8 57 63 66 88 15 23 -49 32 -51 40 -10 11 60 34 37
34 -35 0 -42 11 -55 57 -63 55 -11 67 21 71 178 2 115 0 138 -21 195 -22 63
-24 65 -65 72 -51 8 -121 49 -175 100 -22 21 -43 38 -46 38 -3 0 -17 -10 -31
-21z m-174 -234 c115 -24 213 -66 222 -94 4 -10 0 -12 -14 -6 -106 43 -259 31
-392 -32 -75 -35 -198 -157 -237 -237 -19 -38 -31 -53 -33 -42 -10 48 77 236
150 325 58 72 133 124 166 116 13 -3 75 -17 138 -30z"></path>
<path class="node" id="node10" d="M1030 1903 c-181 -93 -355 -326 -404 -542 -17 -76 -15 -106 4 -55 19
50 71 147 113 208 40 59 183 216 197 216 4 0 7 -46 7 -102 0 -99 17 -189 32
-171 4 4 13 54 20 111 14 115 56 259 96 327 14 25 22 45 16 45 -5 0 -42 -17
-81 -37z"></path>
<path class="node" id="node11" d="M1870 1594 c0 -9 10 -47 21 -86 17 -54 20 -84 15 -131 -5 -48 -4 -59
6 -49 7 7 14 44 16 82 2 39 8 70 12 70 5 0 13 -23 19 -51 13 -58 0 -126 -24
-136 -23 -8 -7 -23 25 -23 81 0 141 85 124 176 -6 30 -10 34 -38 34 -38 0 -92
37 -120 83 -30 47 -56 62 -56 31z"></path>
<path class="node" id="node12" d="M1645 1496 c-74 -27 -159 -73 -181 -97 -16 -17 -16 -25 0 -117 9 -54
16 -104 16 -111 0 -17 -57 -7 -80 14 -9 8 -20 15 -24 15 -8 0 55 -100 97 -153
16 -21 27 -40 24 -43 -3 -3 -22 -1 -44 5 -52 15 -58 14 -42 -6 37 -44 233
-172 245 -160 3 2 0 15 -5 29 -5 13 -15 67 -21 119 -11 80 -10 113 4 219 16
124 41 222 71 280 18 35 19 35 -60 6z"></path>
<path class="node" id="node13" d="M1142 1045 c-12 -9 -31 -33 -41 -53 -23 -45 -65 -181 -58 -188 2 -3
23 25 45 61 23 36 45 65 50 65 5 0 12 -37 16 -82 4 -46 12 -101 18 -123 l11
-40 8 30 c5 17 12 74 15 128 4 53 10 97 14 97 8 0 55 -52 78 -86 11 -17 12
-14 8 23 -4 44 -33 111 -64 150 -23 30 -71 39 -100 18z"></path>
<path class="node" id="node14" d="M1570 809 c-41 -16 -90 -71 -101 -112 -9 -35 -2 -69 8 -40 3 7 13 23
23 35 27 34 50 10 50 -54 0 -56 -19 -99 -63 -145 -38 -41 -25 -42 34 -4 53 33
83 69 99 117 13 39 25 40 53 2 27 -37 34 -117 13 -168 -17 -42 -10 -52 17 -22
62 68 60 205 -4 343 -17 37 -28 48 -51 53 -38 8 -47 7 -78 -5z"></path>
</g>
<g transform="translate(0.000000,300.000000) scale(0.100000,-0.100000)" fill="#A1A1A1" stroke="none">

<path class="node" id="node16" d="M1407 1849 c-88 -58 -186 -205 -232 -346 -26 -80 -15 -96 20 -27 39
80 162 202 237 237 133 63 286 75 392 32 14 -6 18 -4 14 6 -9 28 -107 70 -222
94 -63 13 -125 27 -138 30 -16 4 -38 -4 -71 -26z"></path>
</g>
</svg>