<!--?xml version="1.0" standalone="no"?-->

<svg version="1.0" xmlns="http://www.w3.org/2000/svg" width="300.000000pt" height="213.000000pt" viewBox="0 0 300.000000 213.000000" preserveAspectRatio="xMidYMid meet">
<g transform="translate(0.000000,213.000000) scale(0.100000,-0.100000)" fill="#272423" stroke="none">
<path class="node" id="node1" d="M0 2126 c0 -2 7 -21 16 -42 22 -53 81 -137 153 -217 57 -63 78 -98
49 -81 -55 32 -110 75 -145 113 -24 25 -43 41 -43 34 0 -23 91 -133 159 -192
81 -69 72 -81 -15 -22 -33 22 -61 37 -64 34 -3 -3 38 -46 90 -95 81 -76 90
-88 65 -83 -16 4 -49 18 -72 31 -23 13 -45 24 -49 24 -22 0 72 -78 149 -123
48 -28 87 -55 87 -59 0 -13 -26 -9 -76 12 -26 11 -49 18 -52 15 -11 -11 24
-36 96 -65 80 -34 102 -47 102 -61 0 -14 -48 -10 -80 6 -17 9 -31 11 -35 6 -9
-15 55 -58 118 -78 32 -10 58 -23 57 -28 0 -6 -24 -9 -52 -8 -48 3 -51 1 -36
-13 9 -9 45 -24 79 -34 62 -17 63 -18 37 -29 -16 -6 -28 -13 -28 -15 0 -3 28
-15 62 -28 50 -18 58 -23 40 -28 -39 -9 -27 -23 44 -51 l67 -27 -43 -9 -44 -8
35 -22 c20 -11 54 -27 75 -34 55 -19 60 -26 25 -34 -17 -4 -31 -10 -31 -14 0
-11 119 -71 141 -71 10 0 21 -4 24 -10 4 -6 -5 -10 -19 -10 -14 0 -26 -4 -26
-8 0 -13 100 -60 149 -71 58 -13 60 -18 11 -26 -39 -7 -40 -8 -25 -25 19 -21
87 -40 146 -40 36 0 40 -2 29 -15 -11 -13 -6 -15 33 -15 25 0 58 5 74 10 l28
11 -26 -23 c-37 -31 -62 -75 -55 -93 3 -8 -12 -41 -34 -73 -45 -69 -80 -87
-145 -79 -25 4 -45 4 -45 1 0 -8 83 -44 103 -44 11 0 35 8 54 17 28 13 41 29
59 72 13 31 31 69 39 85 15 28 15 28 -7 23 -23 -6 -23 -6 -3 9 11 9 52 32 90
52 l70 36 -38 6 c-49 9 -52 13 -33 51 21 41 21 39 -16 39 -54 0 -143 25 -191
53 -98 58 -121 141 -26 91 17 -8 34 -13 37 -10 15 16 -74 82 -188 141 -138 71
-170 97 -173 141 -2 23 2 30 21 32 34 5 22 24 -28 47 -131 59 -165 80 -168
104 -4 23 -2 24 44 17 l48 -6 -25 26 c-13 14 -57 44 -98 67 -41 22 -95 61
-120 86 l-46 45 28 4 c35 4 34 12 -4 48 -63 60 -96 144 -57 144 48 0 241 -122
253 -161 11 -33 -1 -33 -60 0 -106 60 -49 -6 75 -85 51 -33 69 -50 57 -52 -9
-2 -38 8 -64 22 -25 15 -48 24 -51 21 -8 -8 66 -73 145 -126 69 -47 93 -72 80
-85 -3 -3 -19 2 -37 11 -18 9 -35 14 -38 10 -11 -11 59 -63 143 -106 103 -52
114 -63 55 -56 -25 2 -54 8 -65 12 -17 7 -17 5 5 -19 14 -15 77 -53 140 -84
72 -34 108 -57 97 -60 -10 -2 -31 1 -47 7 -46 16 -35 -2 22 -36 61 -36 116
-53 173 -53 44 0 38 12 -15 29 -41 14 -76 38 -67 47 3 4 36 -1 73 -10 68 -17
99 -15 50 4 -115 43 -232 128 -209 151 12 12 55 -12 83 -46 25 -30 31 -14 9
23 -51 84 -78 109 -145 136 -134 54 -299 189 -292 239 5 33 48 34 110 0 55
-30 85 -59 197 -189 49 -58 86 -90 122 -108 29 -14 55 -23 58 -20 3 4 1 9 -6
11 -28 10 -102 75 -108 94 -12 38 9 39 90 2 76 -35 87 -37 220 -44 159 -8 145
-6 145 -20 0 -21 30 -40 67 -43 52 -5 56 -31 6 -32 -21 -1 -66 -13 -100 -28
-34 -14 -77 -26 -95 -26 l-33 -1 25 -14 c18 -10 41 -13 81 -9 37 4 59 2 63 -5
11 -17 25 -4 19 19 -4 15 1 21 23 26 22 6 31 2 46 -16 10 -13 17 -29 14 -36
-3 -7 -1 -16 4 -19 16 -10 42 55 36 89 -8 37 -53 87 -73 79 -8 -3 -27 7 -43
22 -27 26 -36 28 -157 36 -120 8 -133 11 -200 45 -40 20 -116 72 -170 115
-105 84 -195 136 -283 164 -66 21 -186 81 -255 129 -27 19 -99 64 -160 102
-148 91 -228 156 -310 253 -63 75 -75 87 -75 77z"></path>
<path class="node" id="node2" d="M2880 2017 c-111 -108 -268 -234 -385 -309 -72 -47 -176 -98 -376
-188 -90 -40 -140 -70 -215 -130 -55 -44 -125 -94 -157 -112 -92 -52 -100 -60
-52 -53 36 6 112 30 158 50 31 13 18 -14 -33 -67 -27 -28 -48 -53 -46 -55 2
-2 24 5 49 17 44 21 89 64 214 207 87 99 189 148 223 108 10 -12 9 -19 -2 -37
-45 -69 -189 -176 -288 -214 -67 -26 -95 -49 -129 -104 -38 -62 -40 -82 -3
-48 40 37 69 51 78 36 15 -24 -111 -112 -216 -152 -8 -3 16 -3 54 1 56 4 68 3
64 -8 -3 -8 -23 -21 -46 -29 -64 -24 -63 -33 3 -27 40 4 82 17 124 40 66 34
98 67 46 47 -34 -13 -58 -13 -50 0 3 6 52 32 108 59 94 45 155 86 144 98 -3 2
-15 -1 -27 -7 -11 -6 -38 -10 -58 -8 l-37 4 59 27 c61 29 170 99 181 118 12
19 -3 21 -35 4 -18 -9 -34 -15 -36 -12 -12 12 14 40 74 79 70 45 162 124 162
139 0 5 -25 -5 -55 -22 -30 -17 -62 -29 -72 -27 -12 3 10 20 65 53 72 42 129
91 119 101 -2 2 -21 -5 -42 -16 -40 -20 -75 -26 -75 -12 2 38 205 172 263 172
37 0 9 -71 -55 -139 -21 -22 -38 -42 -38 -45 0 -3 11 -6 25 -6 14 0 25 -4 25
-9 0 -20 -66 -74 -154 -126 -50 -29 -100 -63 -110 -74 l-19 -21 45 6 c47 7 63
-2 52 -29 -6 -15 -39 -34 -156 -86 -70 -31 -87 -51 -43 -51 20 0 25 -5 25 -24
0 -43 -48 -84 -168 -146 -123 -62 -192 -112 -192 -136 0 -13 4 -12 30 1 39 20
60 19 60 -4 0 -57 -159 -141 -269 -141 -27 0 -32 -3 -23 -12 7 -7 12 -23 12
-36 0 -30 51 -52 122 -52 46 0 50 2 33 14 -16 12 -10 14 52 18 64 5 133 30
133 49 0 4 -19 11 -42 15 l-43 7 60 18 c124 37 187 79 119 79 -14 0 -22 4 -19
10 3 6 14 10 24 10 22 0 141 59 141 69 0 5 -15 13 -32 18 -29 9 -31 11 -13 17
71 26 145 59 145 66 0 4 -19 11 -42 14 l-43 7 50 18 c69 25 97 40 90 52 -4 5
-16 9 -28 10 -17 0 -14 4 13 15 19 8 49 21 65 28 l30 14 -30 12 -30 12 64 18
c34 10 70 25 80 35 15 16 13 17 -26 10 -23 -4 -50 -2 -59 3 -20 11 -14 15 56
35 30 9 71 30 90 47 32 28 33 31 10 24 -38 -10 -84 -10 -90 1 -3 5 32 26 76
45 45 19 89 41 98 49 19 16 21 35 4 28 -7 -3 -29 -12 -49 -20 -20 -9 -41 -12
-48 -7 -10 5 10 22 66 54 73 42 159 113 149 124 -3 2 -24 -7 -48 -21 -24 -14
-56 -28 -73 -31 -27 -7 -24 -2 30 45 81 72 137 130 131 136 -3 3 -27 -10 -53
-30 -26 -19 -59 -38 -73 -41 -19 -6 -8 9 42 56 68 64 162 178 153 186 -2 2
-26 -15 -53 -39 -51 -46 -152 -107 -152 -91 0 4 31 42 68 83 96 105 189 240
165 239 -5 -1 -55 -47 -113 -103z"></path>
<path class="node" id="node3" d="M1312 1162 c-23 -22 -42 -41 -42 -43 0 -2 -4 -19 -9 -37 -13 -43 5
-42 23 2 20 48 39 57 31 14 -4 -22 2 -56 20 -107 31 -93 31 -125 0 -187 -14
-27 -25 -50 -25 -52 0 -13 64 46 77 71 l17 32 9 -37 c5 -23 5 -55 -1 -85 -6
-26 -9 -50 -7 -52 8 -7 55 104 55 129 0 30 -26 87 -69 155 -52 82 -56 113 -26
213 10 32 -6 27 -53 -16z"></path>
<path class="node" id="node4" d="M1430 1160 c19 -16 39 -30 43 -30 5 0 5 -9 2 -20 -8 -26 -4 -25 53 5
26 14 54 25 62 25 10 1 6 9 -13 25 -25 22 -37 25 -105 25 l-77 -1 35 -29z m90
-4 c0 -2 -7 -6 -15 -10 -8 -3 -15 -1 -15 4 0 6 7 10 15 10 8 0 15 -2 15 -4z"></path>
<path class="node" id="node5" d="M1380 1035 c0 -11 21 -56 47 -100 50 -86 56 -118 39 -222 -6 -35 -5
-53 1 -53 6 0 13 12 16 28 3 15 13 45 23 67 15 35 18 38 25 20 4 -11 8 -41 8
-67 1 -52 17 -64 27 -20 3 15 8 33 10 41 3 8 0 39 -7 69 -10 48 -20 64 -87
133 -42 44 -82 89 -89 101 -11 22 -12 22 -13 3z"></path>
<path class="node" id="node6" d="M1545 966 c-6 -42 -3 -63 13 -99 19 -43 53 -81 39 -43 -4 10 -10 36
-14 58 -5 32 -3 39 6 33 18 -11 41 -69 41 -105 0 -16 4 -30 9 -30 15 0 23 37
16 70 -8 35 -84 170 -96 170 -4 0 -11 -24 -14 -54z"></path>
<path class="node" id="node7" d="M1620 621 l-35 -7 65 -33 c36 -19 77 -42 93 -53 31 -22 34 -11 12 33
-16 29 -70 70 -90 68 -5 -1 -26 -5 -45 -8z"></path>
<path class="node" id="node8" d="M1353 571 c-23 -16 -52 -45 -66 -63 -24 -33 -123 -305 -114 -314 7
-7 75 37 115 75 37 34 37 33 17 -33 -16 -51 -20 -146 -7 -146 4 0 17 18 29 39
25 44 71 101 82 101 11 0 40 -98 47 -163 4 -32 10 -59 14 -62 6 -4 43 103 55
163 6 28 9 31 21 21 9 -7 27 -32 41 -56 13 -24 29 -40 34 -37 12 7 11 106 -1
140 -6 15 -8 29 -6 32 8 7 68 -33 100 -67 16 -17 33 -28 38 -25 14 9 9 127 -8
184 -9 30 -31 77 -48 105 -33 51 -108 125 -126 125 -15 0 -12 -16 7 -31 45
-38 108 -167 101 -209 -2 -17 -11 -10 -46 38 -45 62 -109 129 -116 121 -3 -2
4 -31 15 -64 11 -33 22 -78 25 -100 6 -42 -1 -40 -32 12 -10 16 -13 12 -24
-29 -15 -57 -30 -62 -30 -10 0 45 -9 82 -20 82 -5 0 -19 -17 -32 -37 -35 -58
-34 -19 1 73 17 43 29 79 28 81 -2 1 -34 -27 -72 -62 -38 -35 -71 -62 -73 -60
-10 10 32 103 68 151 46 61 41 67 -17 25z"></path>
<path class="node" id="node9" d="M1000 572 c-54 -34 -70 -55 -70 -92 0 -20 6 -45 14 -55 12 -16 14
-13 18 34 3 29 10 57 17 64 9 9 11 7 10 -8 -4 -36 1 -56 11 -50 6 3 10 14 10
24 0 11 9 29 20 42 l20 24 -6 -27 c-10 -43 6 -53 24 -16 13 25 24 34 49 36 18
2 42 -2 53 -8 32 -17 37 -4 10 24 -20 22 -31 25 -89 24 -42 0 -75 -6 -91 -16z"></path>
<path class="node" id="node10" d="M1810 565 c-27 -29 -22 -42 10 -25 11 6 35 10 53 8 25 -2 35 -10 47
-35 20 -43 34 -42 27 3 -7 43 13 42 27 -2 5 -16 11 -36 13 -44 4 -10 10 -2 18
20 12 34 13 34 19 10 3 -14 7 -41 9 -60 l3 -35 13 27 c22 43 3 97 -44 129 -33
23 -51 27 -106 28 -58 0 -69 -3 -89 -24z"></path>
<path class="node" id="node11" d="M1848 519 c-48 -27 -42 -95 9 -118 35 -16 41 -6 15 22 -24 25 -29 66
-10 85 16 16 7 23 -14 11z"></path>
<path class="node" id="node12" d="M1137 482 c4 -32 1 -43 -18 -60 -27 -26 -19 -40 15 -24 31 14 48 62
33 92 -20 40 -36 36 -30 -8z"></path>
<path class="node" id="node13" d="M1741 483 c10 -21 28 -60 38 -86 33 -78 102 -95 191 -45 l35 19 -52
-5 c-82 -8 -108 7 -159 85 -24 38 -50 69 -58 69 -12 0 -11 -7 5 -37z"></path>
</g>
<g transform="translate(0.000000,213.000000) scale(0.100000,-0.100000)" fill="#CF4E5A" stroke="none">

<path class="node" id="node15" d="M1490 1150 c0 -5 7 -7 15 -4 8 4 15 8 15 10 0 2 -7 4 -15 4 -8 0 -15
-4 -15 -10z"></path>
</g>
</svg>