<!--?xml version="1.0" standalone="no"?-->

<svg version="1.0" xmlns="http://www.w3.org/2000/svg" width="283.000000pt" height="300.000000pt" viewBox="0 0 283.000000 300.000000" preserveAspectRatio="xMidYMid meet">
<g transform="translate(0.000000,300.000000) scale(0.100000,-0.100000)" fill="#0E0C09" stroke="none">
<path stroke-width="20" class="node" id="node1" d="M1895 2988 c-71 -26 -142 -85 -151 -126 -3 -15 -7 -32 -9 -39 -5 -16
11 -117 34 -218 11 -44 22 -105 25 -136 l6 -56 -58 -12 c-90 -17 -99 -17 -121
3 -11 10 -41 21 -66 24 -44 5 -48 3 -90 -42 l-43 -47 -43 16 c-62 21 -73 19
-110 -19 -28 -27 -50 -37 -127 -55 -51 -12 -104 -21 -119 -19 -26 3 -28 6 -39
88 -29 207 -55 290 -106 337 -36 33 -76 44 -161 45 -69 0 -87 -4 -145 -34 -45
-22 -77 -47 -100 -78 -34 -44 -34 -45 -30 -135 l4 -91 -21 40 c-30 60 -73 79
-164 72 -90 -6 -153 -40 -184 -99 l-20 -38 22 -80 c12 -44 24 -107 27 -142 l6
-62 -54 -26 c-52 -25 -53 -27 -53 -69 0 -26 5 -45 13 -47 8 -3 12 7 12 30 0
39 31 67 73 67 23 0 26 -6 41 -91 9 -50 15 -93 13 -96 -3 -2 -21 -7 -41 -10
-42 -7 -76 16 -76 51 0 18 -2 19 -15 5 -12 -12 -14 -22 -6 -41 13 -35 24 -40
95 -47 l61 -6 17 -75 c9 -41 22 -101 28 -133 22 -112 91 -153 208 -122 50 14
73 27 112 65 31 30 50 58 52 76 3 23 6 17 17 -31 13 -58 60 -154 84 -173 24
-18 112 -42 157 -42 91 0 198 50 251 116 30 38 31 41 24 114 -4 41 -11 95 -16
120 -31 150 -49 257 -44 267 2 7 15 13 27 13 13 0 77 11 143 25 66 13 123 21
126 17 3 -4 13 -32 22 -62 8 -30 29 -103 46 -161 17 -59 31 -117 31 -130 0
-24 -71 -95 -147 -146 -40 -27 -46 -28 -63 -8 -29 34 -70 -28 -70 -106 0 -25
-8 -47 -25 -67 -41 -49 -46 -74 -30 -159 18 -95 49 -159 85 -178 15 -8 30 -11
33 -8 4 3 13 0 22 -7 26 -22 79 -2 152 55 76 61 104 73 49 21 -25 -23 -36 -42
-36 -62 0 -52 -11 -73 -40 -79 -26 -6 -28 -10 -34 -78 l-7 -72 41 -35 c40 -34
40 -36 40 -101 0 -72 -5 -80 -60 -98 -19 -6 -66 -31 -105 -56 -38 -25 -81 -45
-95 -45 -14 0 -90 -11 -170 -24 -301 -50 -440 -112 -440 -197 0 -95 171 -163
565 -221 108 -17 912 -17 1015 -1 41 7 120 19 175 27 240 36 403 124 382 207
-28 110 -233 174 -707 219 -174 17 -160 7 -160 111 0 96 -1 94 67 119 l28 11
-29 -27 c-25 -24 -28 -32 -23 -71 7 -66 39 -95 101 -92 40 2 52 -1 66 -19 24
-29 68 -28 114 3 20 14 42 25 49 25 17 0 79 38 95 58 6 9 12 34 12 57 0 47
-34 87 -84 99 -27 7 -96 70 -96 88 0 17 74 89 89 86 8 -2 18 -17 22 -33 19
-78 44 -127 80 -160 47 -42 85 -45 127 -10 62 52 57 119 -17 290 l-42 94 76
88 c76 88 135 188 135 227 0 31 -47 95 -74 102 -37 9 -78 -18 -156 -106 -40
-44 -77 -80 -81 -80 -5 0 -21 19 -35 43 -139 224 -283 338 -462 368 -40 7 -77
18 -83 25 -10 12 -69 217 -69 240 0 7 18 19 40 28 25 10 49 30 65 55 25 37 48
51 86 51 23 0 36 -38 54 -165 25 -165 48 -236 92 -279 43 -42 80 -52 182 -49
62 1 85 7 138 34 72 37 98 63 115 121 10 34 7 54 -25 176 -38 145 -55 262 -38
262 5 0 13 -26 17 -57 11 -91 40 -200 64 -237 32 -53 94 -73 177 -59 69 12
132 47 158 87 30 45 30 123 1 236 -29 114 -30 113 37 141 23 10 27 17 27 54 0
29 -7 50 -21 66 l-20 24 5 -56 c6 -55 6 -55 -29 -72 -40 -19 -36 -25 -60 91
-20 97 -21 94 22 90 28 -2 41 -9 50 -28 13 -25 13 -25 13 11 0 29 -5 38 -25
47 -14 7 -39 12 -54 12 -25 0 -29 5 -34 33 -16 110 -40 212 -54 233 -55 84
-241 83 -323 -1 -29 -30 -33 -40 -31 -86 0 -28 8 -87 16 -131 8 -44 15 -90 14
-102 -1 -40 -28 54 -49 168 -40 227 -45 237 -122 277 -42 22 -180 26 -233 7z
m435 -550 c15 -45 25 -158 14 -158 -10 0 -45 138 -44 173 0 28 17 19 30 -15z
m-750 -38 c10 -5 28 -24 40 -40 19 -27 20 -34 10 -65 -19 -59 -92 -83 -137
-46 -46 38 -38 111 15 144 31 19 46 21 72 7z m244 -82 c36 -126 34 -134 -31
-148 -31 -7 -37 -5 -70 30 -19 22 -45 40 -57 42 -13 2 -20 9 -17 18 2 8 5 32
8 52 5 34 9 38 42 44 20 3 41 7 46 9 6 2 22 4 37 4 25 1 29 -4 42 -51z m-1357
10 c-3 -8 -6 -5 -6 6 -1 11 2 17 5 13 3 -3 4 -12 1 -19z m937 -13 c52 -48 24
-126 -51 -141 -24 -5 -35 -1 -53 18 -45 48 -50 88 -15 123 32 33 83 33 119 0z
m-911 -87 c7 -38 10 -68 6 -68 -9 0 -17 32 -23 100 -7 68 -1 56 17 -32z m756
-4 c15 -40 62 -74 104 -74 28 0 72 34 94 74 10 18 12 18 58 1 44 -17 46 -20
41 -48 -3 -16 -6 -35 -6 -42 0 -7 -41 -21 -102 -34 -57 -12 -143 -31 -193 -41
-49 -11 -115 -23 -146 -26 l-57 -6 -10 48 c-6 27 -13 70 -17 96 l-7 46 59 12
c32 6 72 15 88 20 63 17 80 13 94 -26z m446 -20 c35 -35 46 -61 36 -85 -12
-33 -42 -58 -77 -65 -24 -5 -36 0 -62 24 -18 17 -32 40 -32 52 0 26 25 76 42
83 28 11 77 6 93 -9z m-1167 -120 c2 -16 9 -57 17 -92 7 -34 9 -65 5 -67 -13
-8 -20 10 -31 77 -5 35 -12 76 -15 92 -5 21 -3 27 7 24 8 -3 15 -18 17 -34z
m1073 -80 c40 -82 78 -205 79 -251 0 -15 -6 -23 -17 -23 -9 0 -45 -12 -80 -26
-36 -14 -69 -24 -75 -22 -12 4 -107 328 -108 365 0 15 7 24 23 27 12 3 31 7
42 9 11 3 37 5 57 6 37 1 38 1 79 -85z m-1025 -231 c8 -59 12 -109 9 -111 -2
-2 -11 20 -19 49 -16 51 -23 189 -9 176 3 -4 12 -55 19 -114z m1239 -58 c33
-9 85 -28 115 -43 79 -39 221 -184 294 -301 l60 -94 25 30 c14 17 48 58 75 92
55 69 93 95 131 85 30 -8 55 -40 55 -72 0 -38 -44 -112 -124 -207 -41 -49 -76
-97 -76 -106 0 -9 14 -49 31 -90 48 -115 72 -197 65 -225 -10 -39 -42 -64 -80
-64 -47 0 -77 40 -112 150 -15 47 -31 89 -35 94 -4 5 -32 -15 -62 -43 -30 -28
-61 -51 -70 -51 -9 0 -28 17 -42 37 -14 21 -25 32 -25 26 0 -6 28 -53 63 -104
56 -83 66 -94 105 -105 56 -16 82 -40 82 -76 0 -41 -51 -92 -86 -85 -18 3 -33
-3 -54 -24 -42 -42 -91 -34 -111 18 l-10 26 -22 -21 c-20 -19 -28 -20 -58 -12
-69 19 -78 94 -15 124 42 20 41 23 -27 126 -57 87 -56 85 -61 79 -3 -2 11 -29
30 -59 19 -30 34 -61 34 -70 0 -10 -20 -26 -49 -39 -55 -26 -61 -41 -61 -163
l0 -68 60 -30 c83 -42 134 -97 159 -172 32 -93 29 -106 -21 -113 -24 -3 -162
-5 -308 -3 l-265 3 3 45 c4 54 38 132 78 179 15 19 52 45 81 57 62 28 63 34
35 152 l-18 73 -90 43 c-84 41 -134 76 -134 96 0 4 19 11 43 15 81 14 130 55
151 126 34 114 -48 222 -169 222 -66 0 -106 -24 -153 -91 l-32 -46 -29 65
c-72 160 -69 188 37 306 149 167 290 270 417 303 87 23 97 24 170 5z m-365
-573 c0 -22 -144 -117 -161 -107 -10 7 -12 45 -3 70 4 10 21 23 38 31 34 15
126 19 126 6z m99 -83 c20 -58 15 -64 -61 -83 -26 -6 -28 -4 -28 25 0 20 10
40 29 60 37 37 46 36 60 -2z m1 -115 c0 -48 -128 -118 -151 -83 -20 32 -5 51
61 74 79 28 90 30 90 9z m-15 -256 c17 -6 38 -19 48 -30 19 -23 23 -79 6 -110
-9 -16 -7 -24 11 -43 l22 -23 -45 -27 c-53 -30 -104 -84 -137 -143 -20 -35
-29 -42 -54 -43 -30 0 -30 -1 -8 -11 18 -9 22 -19 22 -59 0 -42 3 -49 23 -54
12 -3 159 -4 327 -3 l305 3 -1 55 c-1 70 -30 135 -86 196 l-43 47 80 -7 c44
-4 141 -16 215 -27 306 -44 477 -118 443 -192 -17 -37 -151 -98 -281 -128
-170 -39 -301 -51 -639 -56 -372 -6 -529 2 -768 42 -225 36 -342 79 -374 137
-14 25 -14 29 5 55 27 36 109 77 209 102 101 26 347 63 357 53 4 -4 1 -19 -6
-34 -8 -15 -17 -40 -21 -56 -7 -33 -4 -34 89 -48 32 -4 47 -3 43 3 -4 6 -30
13 -58 17 l-51 7 4 44 c9 76 86 145 209 184 l67 22 7 67 c8 78 11 86 34 77 9
-4 30 -12 46 -17z"></path>
<path class="node" id="node2" d="M1352 1427 c-27 -28 -42 -77 -42 -132 1 -108 67 -73 91 49 9 42 9 63
1 81 -14 31 -23 31 -50 2z"></path>
<path class="node" id="node3" d="M1328 273 c7 -3 16 -2 19 1 4 3 -2 6 -13 5 -11 0 -14 -3 -6 -6z"></path>
<path class="node" id="node4" d="M921 1129 c-138 -27 -255 -142 -268 -262 l-6 -54 55 -37 c103 -68
160 -44 262 107 55 82 97 204 83 241 -7 18 -52 20 -126 5z m89 -39 c0 -35 -52
-174 -82 -218 -33 -48 -89 -89 -133 -97 -42 -9 -115 39 -115 75 0 36 52 141
83 167 57 48 124 74 240 92 4 0 7 -8 7 -19z"></path>
</g>
<g transform="translate(0.000000,300.000000) scale(0.100000,-0.100000)" fill="#6DA6FF" stroke="none">



<path class="node" id="node8" d="M1508 2393 c-53 -33 -61 -106 -15 -144 45 -37 118 -13 137 46 10 31
9 38 -10 65 -37 52 -67 61 -112 33z"></path>



<path class="node" id="node12" d="M1285 2315 c-35 -35 -30 -75 15 -123 18 -19 29 -23 53 -18 75 15 103
93 51 141 -36 33 -87 33 -119 0z"></path>


<path class="node" id="node15" d="M1602 2213 c-17 -7 -42 -57 -42 -83 0 -12 14 -35 32 -52 26 -24 38
-29 62 -24 59 12 98 71 72 111 -27 41 -47 55 -79 54 -18 0 -38 -3 -45 -6z"></path>

<path class="node" id="node17" d="M1465 2083 c-11 -2 -30 -6 -42 -9 -16 -3 -23 -12 -23 -27 1 -37 96
-361 108 -365 6 -2 39 8 75 22 35 14 71 26 80 26 11 0 17 8 17 23 -1 46 -39
169 -79 251 -41 86 -42 86 -79 85 -20 -1 -46 -3 -57 -6z"></path>

<path class="node" id="node19" d="M942 1099 c-57 -10 -137 -46 -179 -82 -31 -26 -83 -131 -83 -167 0
-36 73 -84 115 -75 44 8 100 49 133 97 45 67 100 241 75 237 -5 -1 -32 -5 -61
-10z"></path>

<path class="node" id="node21" d="M1645 1710 c-127 -33 -268 -136 -417 -303 -106 -118 -109 -146 -37
-306 l29 -65 32 46 c47 67 87 91 153 91 121 0 203 -108 169 -222 -21 -71 -70
-112 -151 -126 -24 -4 -43 -11 -43 -15 0 -20 50 -55 134 -96 l90 -43 18 -73
c28 -118 27 -124 -35 -152 -29 -12 -66 -38 -81 -57 -40 -47 -74 -125 -78 -179
l-3 -45 265 -3 c146 -2 284 0 308 3 50 7 53 20 21 113 -25 75 -76 130 -159
172 l-60 30 0 68 c0 122 6 137 61 163 29 13 49 29 49 39 0 9 -15 40 -34 70
-19 30 -33 57 -30 59 5 6 4 8 61 -79 68 -103 69 -106 27 -126 -63 -30 -54
-105 15 -124 30 -8 38 -7 58 12 l22 21 10 -26 c20 -52 69 -60 111 -18 21 21
36 27 54 24 35 -7 86 44 86 85 0 36 -26 60 -82 76 -39 11 -49 22 -105 105 -35
51 -63 98 -63 104 0 6 11 -5 25 -26 14 -20 33 -37 42 -37 9 0 40 23 70 51 30
28 58 48 62 43 4 -5 20 -47 35 -94 35 -110 65 -150 112 -150 38 0 70 25 80 64
7 28 -17 110 -65 225 -17 41 -31 81 -31 90 0 9 35 57 76 106 80 95 124 169
124 207 0 32 -25 64 -55 72 -38 10 -76 -16 -131 -85 -27 -34 -61 -75 -75 -92
l-25 -30 -60 94 c-73 117 -215 262 -294 301 -57 28 -159 58 -195 57 -11 0 -52
-8 -90 -19z m-243 -285 c21 -47 -18 -176 -59 -192 -49 -19 -43 139 9 194 27
29 36 29 50 -2z"></path>
<path class="node" id="node22" d="M1324 1136 c-17 -8 -34 -21 -38 -31 -9 -25 -7 -63 3 -70 17 -10 161
85 161 107 0 13 -92 9 -126 -6z"></path>
<path class="node" id="node23" d="M1489 1061 c-19 -20 -29 -40 -29 -60 0 -29 2 -31 28 -25 76 19 81 25
61 83 -14 38 -23 39 -60 2z"></path>
<path class="node" id="node24" d="M1460 935 c-66 -23 -81 -42 -61 -74 23 -35 151 35 151 83 0 21 -11
19 -90 -9z"></path>
<path class="node" id="node25" d="M1467 703 c-3 -4 -8 -38 -12 -75 l-7 -67 -67 -22 c-123 -39 -200
-108 -209 -184 l-4 -44 51 -7 c28 -4 54 -11 58 -17 4 -6 -11 -7 -43 -3 -93 14
-96 15 -89 48 4 16 13 41 21 56 7 15 10 30 6 34 -10 10 -256 -27 -357 -53
-100 -25 -182 -66 -209 -102 -19 -26 -19 -30 -5 -55 32 -58 149 -101 374 -137
239 -40 396 -48 768 -42 338 5 469 17 639 56 130 30 264 91 281 128 34 74
-137 148 -443 192 -74 11 -171 23 -215 27 l-80 7 43 -47 c56 -61 85 -126 86
-196 l1 -55 -305 -3 c-168 -1 -315 0 -327 3 -20 5 -23 12 -23 54 0 40 -4 50
-22 59 -22 10 -22 11 8 11 25 1 34 8 54 43 33 59 84 113 137 143 l45 27 -22
23 c-18 19 -20 27 -11 43 17 31 13 87 -6 110 -10 11 -31 24 -48 30 -16 5 -37
13 -46 17 -10 3 -19 3 -22 -2z m-120 -429 c-3 -3 -12 -4 -19 -1 -8 3 -5 6 6 6
11 1 17 -2 13 -5z"></path>
</g>
</svg>