<!--?xml version="1.0" standalone="no"?--><svg xmlns="http://www.w3.org/2000/svg" width="300.000000pt" height="195.000000pt" viewBox="0 0 300.000000 195.000000" preserveAspectRatio="xMidYMid meet">
<metadata>
  <rdf:rdf xmlns:rdf="http://www.w3.org/1999/02/22-rdf-syntax-ns#" xmlns:rdfs="http://www.w3.org/2000/01/rdf-schema#" xmlns:dc="http://purl.org/dc/elements/1.1/">
    <rdf:description dc:title="fish blue" dc:publisher="Hiox" dc:date="2015-04-28" dc:format="image/svg+xml" dc:language="en">
      <dc:creator>
        <rdf:bag>
          <rdf:li>svgimages.com</rdf:li>
        </rdf:bag>
      </dc:creator>
    </rdf:description>
  </rdf:rdf>
</metadata>
<g transform="translate(0.000000,195.000000) scale(0.100000,-0.100000)" fill="#164C8C" stroke="none">
<path style="position: relative;" d="M1620 1939 c-280 -24 -514 -90 -625 -175 -20 -15 -47 -46 -61 -69
-23 -41 -27 -42 -97 -54 -148 -24 -344 -107 -462 -196 -77 -58 -86 -68 -194
-207 -33 -42 -81 -93 -108 -113 -75 -56 -93 -117 -47 -160 22 -20 24 -26 12
-44 -9 -14 -9 -28 -3 -48 8 -22 31 -38 110 -78 55 -27 141 -76 190 -108 126
-81 194 -112 336 -151 173 -47 275 -60 410 -53 216 11 359 74 564 252 139 120
282 218 351 239 20 6 22 1 33 -98 15 -133 38 -216 97 -347 68 -150 184 -339
289 -472 44 -56 46 -57 69 -42 32 22 73 82 96 144 40 104 53 213 54 461 l1
235 91 90 c191 191 291 389 269 531 -7 52 -21 56 -166 43 -215 -18 -457 -113
-679 -267 -35 -24 -66 -40 -68 -34 -10 31 -71 109 -121 153 -114 102 -259 186
-394 226 -47 14 -48 15 -42 46 17 79 96 187 185 252 28 20 50 41 50 46 0 10
-3 10 -140 -2z m30 -59 c-29 -25 -55 -39 -73 -40 -105 -1 -439 -101 -416 -124
3 -3 39 8 81 24 41 16 108 38 149 49 79 22 202 42 197 32 -2 -3 -19 -30 -37
-58 l-34 -53 -98 0 c-62 0 -100 -4 -105 -11 -5 -9 20 -10 96 -4 l103 7 -7 -33
c-3 -18 -8 -35 -11 -37 -3 -3 -37 1 -77 8 -40 6 -162 15 -270 17 -126 4 -198
9 -198 16 0 17 86 95 127 115 93 47 309 100 488 120 140 16 136 18 85 -28z
m-385 -250 c215 -18 386 -73 537 -172 224 -147 304 -277 252 -407 -14 -36 -22
-42 -68 -55 -75 -22 -221 -121 -361 -245 -278 -245 -526 -300 -914 -200 -151
39 -244 80 -386 172 -64 42 -142 86 -174 97 -67 26 -91 45 -91 76 0 29 11 36
67 39 26 2 52 10 62 20 15 15 13 16 -24 9 -56 -11 -81 -9 -110 10 -24 16 -32
47 -19 80 3 8 30 34 60 57 30 23 86 83 124 134 102 136 174 197 317 269 201
101 443 139 728 116z m1705 -192 c-1 -137 -82 -287 -251 -462 l-109 -114 -3
-258 c-3 -273 -14 -353 -57 -452 -23 -50 -66 -112 -80 -112 -26 0 -240 324
-300 454 -107 232 -149 451 -103 539 9 18 19 59 22 92 l6 59 85 57 c231 157
504 255 718 258 l72 1 0 -62z" id="node1" class="node" stroke-width="20"></path>
<path style="position: relative;" d="M740 1496 c0 -2 24 -17 53 -34 64 -36 132 -108 160 -170 30 -64 32
-258 3 -342 -22 -66 -67 -149 -112 -209 -38 -49 -45 -74 -13 -45 30 27 75 94
108 162 70 140 81 330 28 447 -32 68 -81 124 -146 166 -39 25 -81 38 -81 25z" id="node2" class="node" stroke-width="20"></path>
<path style="position: relative;" d="M498 1300 c-108 -33 -151 -167 -80 -251 90 -108 264 -56 279 82 6 64
-28 127 -87 157 -47 23 -68 26 -112 12z m112 -30 c47 -24 70 -64 70 -122 0
-83 -58 -142 -140 -142 -80 0 -140 59 -140 137 0 115 108 179 210 127z" id="node3" class="node" stroke-width="20"></path>
<path style="position: relative;" d="M461 1215 c-32 -37 -38 -66 -21 -109 11 -30 65 -66 98 -66 57 0 112
56 112 114 0 14 -14 41 -31 61 -27 31 -37 35 -79 35 -42 0 -52 -4 -79 -35z
m63 -31 c10 -27 7 -43 -13 -54 -11 -5 -26 -7 -35 -4 -21 8 -30 42 -16 59 16
20 56 19 64 -1z" id="node4" class="node" stroke-width="20"></path>
<path style="position: relative;" d="M1395 920 c-3 -5 14 -20 37 -32 l43 -23 -43 -3 c-24 -2 -66 4 -95 12
-29 9 -56 11 -60 7 -10 -10 111 -39 178 -43 38 -3 40 -5 48 -47 5 -26 5 -47
-1 -53 -13 -13 -128 15 -235 58 -49 20 -91 33 -94 30 -18 -18 232 -106 300
-106 28 0 32 -6 19 -27 -6 -10 -28 -10 -102 2 -216 33 -324 91 -339 182 -8 46
-26 42 -25 -5 4 -99 164 -180 411 -208 l63 -7 15 36 c24 59 14 142 -23 186
-21 26 -89 54 -97 41z" id="node5" class="node" stroke-width="20"></path>
<path style="position: relative;" d="M2680 1308 c-214 -46 -481 -125 -487 -145 -2 -6 63 11 144 37 134 44
369 100 421 100 12 0 24 5 27 10 8 12 -43 11 -105 -2z" id="node6" class="node" stroke-width="20"></path>
<path style="position: relative;" d="M2273 1103 c-44 -2 -73 -8 -73 -15 0 -7 13 -8 38 -4 20 3 134 6 252
7 121 1 202 5 185 9 -30 8 -265 9 -402 3z" id="node7" class="node" stroke-width="20"></path>
<path style="position: relative;" d="M2160 1011 c0 -14 164 -159 240 -212 89 -63 157 -102 172 -97 6 2
-15 19 -48 37 -93 53 -179 118 -269 203 -82 77 -95 87 -95 69z" id="node8" class="node" stroke-width="20"></path>
<path style="position: relative;" d="M2099 928 c36 -95 238 -443 341 -589 63 -89 59 -84 65 -77 3 3 -32
61 -78 129 -103 151 -226 363 -278 475 -21 46 -43 84 -49 84 -6 0 -6 -9 -1
-22z" id="node9" class="node" stroke-width="20"></path>
</g>
<g transform="translate(0.000000,195.000000) scale(0.100000,-0.100000)" fill="#3390FE" stroke="none">




<path style="position: relative;" d="M1565 1908 c-179 -20 -395 -73 -488 -120 -41 -20 -127 -98 -127 -115
0 -7 72 -12 198 -16 108 -2 230 -11 270 -17 40 -7 74 -11 77 -8 3 2 8 19 11
37 l7 33 -103 -7 c-76 -6 -101 -5 -96 4 5 7 43 11 105 11 l98 0 34 53 c18 28
35 55 37 58 5 10 -118 -10 -197 -32 -41 -11 -108 -33 -149 -49 -42 -16 -78
-27 -81 -24 -23 23 311 123 416 124 18 1 44 15 73 40 51 46 55 44 -85 28z" id="node14" class="node" stroke-width="20"></path>











<path style="position: relative;" d="M1000 1633 c-174 -13 -332 -53 -463 -119 -143 -72 -215 -133 -317
-269 -38 -51 -94 -111 -124 -134 -30 -23 -57 -49 -60 -57 -13 -33 -5 -64 19
-80 29 -19 54 -21 110 -10 37 7 39 6 24 -9 -10 -10 -36 -18 -62 -20 -56 -3
-67 -10 -67 -39 0 -31 24 -50 91 -76 32 -11 110 -55 174 -97 142 -92 235 -133
386 -172 388 -100 636 -45 914 200 140 124 286 223 361 245 46 13 54 19 68 55
52 130 -28 260 -252 407 -206 135 -493 198 -802 175z m-179 -162 c65 -42 114
-98 146 -166 53 -117 42 -307 -28 -447 -33 -68 -78 -135 -108 -162 -32 -29
-25 -4 13 45 45 60 90 143 112 209 29 84 27 278 -3 342 -28 62 -96 134 -160
170 -29 17 -53 32 -53 34 0 13 42 0 81 -25z m-211 -183 c33 -17 51 -35 68 -68
87 -168 -138 -316 -260 -171 -71 84 -28 218 80 251 44 14 65 11 112 -12z m882
-409 c37 -44 47 -127 23 -186 l-15 -36 -63 7 c-247 28 -407 109 -411 208 -1
47 17 51 25 5 15 -91 123 -149 339 -182 74 -12 96 -12 102 -2 13 21 9 27 -19
27 -68 0 -318 88 -300 106 3 3 45 -10 94 -30 107 -43 222 -71 235 -58 6 6 6
27 1 53 -8 42 -10 44 -48 47 -67 4 -188 33 -178 43 4 4 31 2 60 -7 29 -8 71
-14 95 -12 l43 3 -43 23 c-23 12 -40 27 -37 32 8 13 76 -15 97 -41z" id="node26" class="node" stroke-width="20"></path>





















<path style="position: relative;" d="M2754 1485 c-186 -33 -396 -123 -574 -244 l-85 -57 -6 -59 c-3 -33
-13 -74 -22 -92 -46 -88 -4 -307 103 -539 60 -130 274 -454 300 -454 14 0 57
62 80 112 43 99 54 179 57 452 l3 258 109 114 c169 175 250 325 251 462 l0 62
-72 -1 c-40 0 -105 -7 -144 -14z m31 -175 c-3 -5 -15 -10 -27 -10 -52 0 -287
-56 -421 -100 -81 -26 -146 -43 -144 -37 6 20 273 99 487 145 62 13 113 14
105 2z m-110 -210 c17 -4 -64 -8 -185 -9 -118 -1 -232 -4 -252 -7 -25 -4 -38
-3 -38 4 0 7 29 13 73 15 137 6 372 5 402 -3z m-420 -158 c90 -85 176 -150
269 -203 33 -18 54 -35 48 -37 -28 -9 -196 106 -324 221 -78 70 -101 97 -82
97 4 0 44 -35 89 -78z m-106 -76 c52 -112 175 -324 278 -475 46 -68 81 -126
78 -129 -6 -7 -2 -12 -65 77 -80 114 -175 271 -258 426 -84 159 -96 185 -82
185 6 0 28 -38 49 -84z" id="node48" class="node" stroke-width="20"></path>










































</g>
<g transform="translate(0.000000,195.000000) scale(0.100000,-0.100000)" fill="#FFFFFF" stroke="none">



<path style="position: relative;" d="M464 1261 c-56 -34 -79 -113 -49 -171 82 -158 326 -46 249 115 -23
48 -67 75 -124 75 -26 0 -58 -8 -76 -19z m126 -16 c41 -21 60 -53 60 -101 0
-48 -38 -98 -83 -110 -68 -16 -137 39 -137 111 0 88 83 140 160 100z" id="node94" class="node" stroke-width="20"></path>
<path style="position: relative;" d="M464 1175 c-9 -23 3 -45 25 -45 22 0 41 27 34 48 -6 17 -52 15 -59
-3z" id="node95" class="node" stroke-width="20"></path>

</g>
</svg>