<!--?xml version="1.0" encoding="utf-8"?-->
<!-- Generator: Adobe Illustrator 15.0.0, SVG Export Plug-In . SVG Version: 6.00 Build 0)  -->

<svg xmlns="http://www.w3.org/2000/svg" xmlns:xlink="http://www.w3.org/1999/xlink" width="200px" height="200px" viewBox="0 0 200 200">
<g>
	<g>
		
			<path fill="#009790" stroke="#020202" stroke-width="3.3561" stroke-linecap="round" stroke-linejoin="round" stroke-miterlimit="10" d="
			M166.252,104.023c0,0-4.986-11.303-18.614-12.964c-13.628-1.662-19.111,7.811-19.111,7.811s-4.82-9.472-15.623-9.972
			c-10.802-0.498-14.957,8.975-14.957,8.975s-13.13-6.482-22.77,0.333c-9.64,6.815-8.477,16.121-8.477,16.121
			s-16.12-2.328-21.77,8.974c-5.652,11.302,4.818,22.271,4.818,22.271s-4.653,12.298,6.315,19.113
			c10.969,6.812,23.103,1.494,23.103,1.494s0.996,13.131,12.132,16.62c11.136,3.491,21.938-2.99,21.938-2.99
			s6.647,10.803,22.271,6.813c15.622-3.99,18.281-14.46,18.281-14.46s13.296,5.152,20.276-3.989
			c6.98-9.14,3.821-15.622,3.821-15.622s10.971,0.168,13.961-8.975c2.992-9.139-2.493-13.794-2.493-13.794
			s7.979-10.802,1.662-20.275C184.701,100.033,166.252,104.023,166.252,104.023z" id="path-0"></path>
	</g>
	
		<path fill="#C05D82" stroke="#020202" stroke-width="2.7307" stroke-linecap="round" stroke-linejoin="round" stroke-miterlimit="10" d="
		M195.381,72.28c0,0,0.735-19.411-9.705-34.116c-10.442-14.707-26.82-25.594-54.117-24.119
		c-23.381,1.265-38.458,11.419-50.587,29.117c-10.01,14.608-13.53,38.087-22.793,42.205c-9.265,4.117-20,0.295-22.794-9.853
		c-2.793-10.148,5.293-19.117,5.293-19.117s-8.822-1.029-14.705,3.676c-5.882,4.706-3.824,10.587-3.824,10.587
		s-6.324-2.5-11.324-0.293c-5,2.205-5.882,6.323-5.882,6.323s7.059-1.029,13.676,8.089c6.618,9.117,31.028,36.029,50.587,45.587
		s53.675,14.854,80,5.588c26.322-9.265,38.528-29.117,42.498-40.881C195.676,83.308,195.381,72.28,195.381,72.28z" id="path-1" style="position: relative;"></path>
	<g>
		<path fill="#4D2E57" stroke="#020202" stroke-miterlimit="10" d="M174.621,70.608c2.779,2.17,7.042,1.957,8.949-1.354
			c0.909-1.579,1.171-3.124,0.914-4.525c0-0.026,0.011-0.045,0.007-0.073c-0.38-3.261-3.223-6.307-6.596-5.782
			c-0.525-0.087-1.072-0.105-1.644-0.036c-1.755,0.212-3.203,1.681-3.933,3.201C170.986,64.821,172.255,68.761,174.621,70.608z" id="path-2" style="position: relative;"></path>
	</g>
	
		<path fill="#FFFFFF" stroke="#020202" stroke-width="1.9419" stroke-linecap="round" stroke-linejoin="round" stroke-miterlimit="10" d="
		M193.466,89.315c0,0-6.351,4.856-16.063,4.93c-9.711,0.075-18.229-4.183-21.367-9.413c-3.139-5.231-2.54-12.776-3.512-14.196
		c-0.971-1.419-2.634,1.111-1.345,9.639c1.345,8.889,8.724,17.052,21.145,18.229c14.195,1.345,18.977-2.691,18.977-2.691" id="path-3" style="position: relative;"></path>
	<g>
		<path fill="#B01D22" stroke="#020202" stroke-miterlimit="10" d="M155.399,75.704c-0.521-0.519-0.982-1.088-1.334-1.754
			c-1.183-2.237-0.669-4.736,0.358-6.92c0.234-0.87,0.68-1.616,1.269-2.23c0.016-0.024,0.032-0.05,0.05-0.075
			c0.061-0.091,0.136-0.146,0.214-0.184c2.057-1.881,5.551-2.369,8.209-1.297c5.054,2.036,6.886,8.94,4.99,13.642
			c-1.736,4.312-6.831,3.648-10.135,1.906C157.522,78.001,156.286,76.94,155.399,75.704z" id="path-4" style="position: relative;"></path>
	</g>
</g>
<circle fill="#F2E9D1" stroke="#020202" stroke-miterlimit="10" cx="178.385" cy="65.115" r="2.76" id="circle-0" style="position: relative;"></circle>
</svg>
