<!--?xml version="1.0" standalone="no"?-->

<svg version="1.0" xmlns="http://www.w3.org/2000/svg" width="300.000000pt" height="300.000000pt" viewBox="0 0 300.000000 300.000000" preserveAspectRatio="xMidYMid meet">
<g transform="translate(0.000000,300.000000) scale(0.100000,-0.100000)" fill="#252525" stroke="none">
<path class="node" id="node1" d="M1107 2966 c-38 -13 -93 -41 -123 -62 -63 -42 -160 -145 -206 -216
-17 -27 -37 -48 -44 -48 -7 0 -29 -14 -48 -30 -50 -45 -69 -110 -64 -220 4
-80 8 -97 46 -174 23 -46 70 -122 104 -168 72 -98 263 -295 366 -380 l72 -59
-47 -33 c-92 -63 -122 -137 -86 -213 15 -33 27 -41 104 -71 18 -7 36 -29 54
-65 14 -30 38 -65 51 -78 l26 -24 -39 -7 c-98 -18 -99 -17 -220 100 -140 135
-185 202 -190 280 -6 76 -19 100 -63 113 -31 10 -43 8 -77 -9 -95 -49 -177
-153 -214 -272 -21 -66 -24 -95 -24 -240 0 -149 3 -177 29 -284 l30 -120 -18
-85 c-28 -135 -31 -226 -11 -317 39 -178 145 -272 315 -282 l75 -4 0 68 c0 85
18 117 88 165 86 58 173 146 227 230 28 43 54 79 58 80 16 1 76 7 135 13 l62
7 27 -50 c35 -64 89 -94 165 -93 128 1 211 62 265 194 32 77 34 80 113 133
134 90 247 207 321 333 13 23 37 41 77 59 60 27 117 81 117 111 0 10 12 34 26
53 37 49 64 109 64 146 0 18 14 54 33 84 40 65 43 131 8 196 l-22 42 21 48
c45 98 28 183 -52 261 l-34 32 10 65 c12 86 -3 134 -62 189 -25 22 -57 52 -72
66 -20 19 -29 39 -34 78 -10 77 -51 119 -130 133 -33 6 -73 8 -90 5 -29 -6
-38 0 -96 59 -97 98 -209 169 -336 214 -133 46 -240 63 -434 67 -175 4 -189 3
-253 -20z m508 -70 c117 -25 257 -81 327 -130 87 -61 74 -162 -37 -284 -50
-55 -87 -84 -187 -145 -19 -12 -33 -37 -53 -99 -37 -112 -58 -152 -121 -229
-84 -104 -202 -197 -290 -231 -46 -18 -58 -19 -84 -8 -65 27 -342 343 -423
482 -41 72 -42 74 -42 168 0 162 36 183 180 110 97 -49 111 -62 120 -108 6
-30 9 -34 18 -22 7 8 19 15 27 15 26 0 23 36 -7 67 -15 16 -47 41 -70 56 -24
15 -43 32 -43 39 0 6 -13 11 -28 11 -33 -1 -72 18 -72 35 0 23 107 152 165
199 32 26 86 59 119 72 58 24 68 25 241 22 121 -2 206 -9 260 -20z m537 -324
c31 -35 77 -93 102 -130 45 -68 106 -180 106 -194 0 -16 -38 -7 -61 15 l-24
22 -10 -40 c-13 -52 -44 -59 -86 -19 l-29 28 6 -30 c7 -39 -12 -56 -55 -48
-17 4 -31 9 -32 13 -2 15 -8 37 -14 53 -6 15 -2 16 29 11 22 -3 42 -1 51 7 20
17 19 64 -2 81 -15 13 -16 11 -10 -13 5 -18 2 -32 -9 -42 -18 -19 -24 -19 -59
-6 -26 10 -26 9 -20 -20 4 -16 3 -39 0 -51 -6 -17 -13 -20 -38 -17 -18 3 -41
8 -52 12 -11 5 -15 4 -9 -1 6 -4 14 -22 17 -40 8 -42 -11 -57 -63 -49 -38 6
-40 5 -29 -12 7 -11 9 -31 5 -47 -7 -26 -10 -27 -51 -23 -42 5 -44 4 -34 -14
6 -11 8 -31 5 -44 -5 -20 -13 -24 -41 -24 l-35 0 6 -45 c6 -41 5 -45 -19 -56
-36 -16 -23 -32 19 -24 30 5 34 3 40 -20 9 -38 -2 -55 -36 -55 -36 0 -40 -15
-6 -24 41 -10 76 9 76 42 0 15 -5 33 -12 40 -9 9 -5 12 18 12 37 0 69 31 61
60 -4 16 0 20 18 20 33 0 49 24 42 65 -5 33 5 47 18 25 10 -15 42 -12 60 7 12
12 15 25 10 51 -5 29 -4 34 9 28 9 -3 22 -9 30 -12 8 -3 24 4 36 16 21 21 22
32 5 73 -7 16 -5 16 18 6 31 -14 77 -4 77 16 0 23 19 18 43 -11 47 -57 67 -74
86 -74 24 0 44 32 38 63 -3 21 -4 21 -15 -5 -14 -33 -50 -38 -76 -10 -15 18
-15 20 4 37 11 10 20 31 20 47 l0 29 29 -22 c16 -12 37 -19 45 -16 21 8 38
-33 67 -161 30 -137 15 -183 -49 -151 -15 7 -30 15 -34 17 -5 2 -8 -7 -8 -21
0 -13 -9 -32 -20 -42 -20 -18 -21 -18 -50 4 -17 12 -30 20 -30 17 0 -18 17
-39 42 -52 27 -14 31 -14 49 2 10 9 19 28 19 41 0 27 3 28 36 7 20 -14 29 -15
51 -5 l26 12 -6 -148 c-7 -160 -41 -364 -77 -461 -46 -124 -135 -257 -237
-353 -156 -148 -295 -211 -573 -258 -197 -34 -222 -35 -249 -14 l-23 19 17 71
c24 99 17 127 -50 193 -79 78 -72 101 35 115 109 14 210 132 210 245 0 16 9
53 20 82 25 65 49 160 55 213 2 22 4 42 4 45 1 2 6 -1 13 -8 19 -19 45 -14 62
10 18 25 21 68 6 68 -5 0 -10 -8 -10 -18 0 -23 -19 -42 -42 -42 -9 0 -33 16
-52 35 -20 19 -40 35 -46 35 -5 0 -10 5 -10 11 0 7 11 9 27 6 42 -8 63 8 63
48 0 38 -17 48 -22 14 -5 -33 -32 -46 -67 -32 -29 11 -30 10 -25 -17 6 -25 2
-29 -32 -41 -22 -7 -43 -12 -48 -11 -5 2 -12 -1 -15 -5 -7 -10 -58 -33 -71
-33 -22 0 -7 21 28 39 51 26 126 94 172 156 38 52 90 146 90 164 0 6 13 32 28
58 16 27 41 87 56 133 30 90 36 98 135 169 134 96 211 201 211 290 l0 45 32
-34 c18 -19 58 -63 90 -98z m177 -15 c30 -15 47 -68 31 -97 -15 -28 -27 -25
-46 12 -13 24 -14 36 -5 50 16 26 14 29 -13 18 -23 -8 -46 3 -46 22 0 12 52 9
79 -5z m90 -181 c19 -21 20 -24 6 -30 -28 -10 -34 -7 -50 24 -15 28 -14 30 3
30 10 0 29 -11 41 -24z m87 -70 c34 -34 45 -66 22 -66 -7 0 -30 -3 -50 -6 -35
-6 -37 -5 -53 32 -16 38 -15 40 6 56 29 24 36 23 75 -16z m26 -132 c-2 -36 -9
-54 -25 -67 -21 -19 -21 -18 -33 15 -19 52 -16 72 14 90 39 23 47 17 44 -38z
m-505 -2 c37 3 38 2 41 -35 2 -27 -1 -39 -14 -44 -31 -12 -65 10 -80 52 -17
50 -17 50 0 35 8 -6 32 -10 53 -8z m-45 -127 c-7 -24 -15 -31 -39 -33 -33 -3
-47 9 -57 52 -7 28 -6 28 28 22 21 -4 37 -2 41 5 14 22 35 -14 27 -46z m588
-5 c38 -27 70 -81 69 -116 0 -16 -10 -49 -22 -74 -18 -36 -28 -46 -57 -51 -19
-4 -36 -6 -38 -4 -2 2 -6 30 -9 64 l-6 60 39 17 39 18 -40 5 c-41 6 -50 20
-54 84 -1 24 43 22 79 -3z m-676 -46 c17 -45 -8 -79 -51 -68 -31 8 -30 71 1
77 39 8 44 7 50 -9z m-394 -109 c-49 -71 -109 -128 -178 -168 -63 -37 -71 -38
-105 -9 -16 15 -14 17 40 37 71 27 137 71 212 140 31 29 58 52 59 50 2 -2 -10
-24 -28 -50z m325 11 c8 -23 6 -30 -10 -42 -30 -22 -52 -17 -58 14 -3 15 -8
34 -11 42 -5 12 2 15 31 15 32 0 39 -4 48 -29z m748 -136 c16 -1 28 -14 45
-49 12 -26 22 -60 22 -74 0 -32 -59 -97 -88 -97 -30 0 -36 -17 -8 -24 24 -6
42 -44 28 -58 -10 -10 -82 10 -82 23 0 6 5 42 12 81 10 64 14 71 40 80 34 12
37 28 4 28 -38 0 -40 18 -4 34 l33 14 -27 1 c-23 1 -28 5 -28 27 0 20 4 25 16
20 9 -3 25 -6 37 -6z m-1043 -116 c13 -32 6 -72 -27 -183 -31 -103 -87 -215
-121 -241 -23 -19 -26 -19 -44 -4 -10 10 -18 24 -18 31 0 13 57 137 127 276
47 94 2 44 -74 -83 -43 -71 -82 -129 -86 -130 -22 -1 -17 39 11 96 37 74 41
97 11 63 -75 -87 -86 -96 -118 -91 -60 9 -56 25 26 88 157 122 161 136 15 50
-51 -30 -92 -52 -92 -50 0 20 29 49 89 88 38 25 72 46 75 46 4 0 23 8 44 17
127 58 168 64 182 27z m-750 -147 c0 -29 12 -65 38 -117 32 -63 53 -88 130
-155 50 -44 117 -112 149 -151 32 -39 76 -92 98 -120 22 -27 51 -59 65 -72 35
-33 32 -103 -9 -201 -32 -80 -122 -218 -184 -285 -52 -55 -40 -25 24 63 28 39
50 74 47 76 -2 3 -48 -48 -101 -113 -53 -64 -112 -133 -132 -152 -44 -42 -72
-94 -81 -150 -7 -40 -8 -41 -38 -34 -43 9 -86 32 -118 62 -35 32 -34 40 0 72
15 14 80 75 145 134 64 60 117 113 117 118 0 5 -70 -47 -155 -116 -86 -70
-158 -126 -160 -126 -6 0 -25 71 -25 92 0 19 82 85 185 148 77 47 94 57 208
119 42 24 77 47 77 52 0 6 -7 6 -17 1 -10 -5 -54 -26 -98 -47 -44 -20 -102
-47 -130 -60 -178 -83 -225 -103 -229 -96 -14 22 11 54 63 80 65 33 273 117
314 126 15 4 27 12 27 17 0 10 -36 5 -110 -17 -147 -44 -268 -74 -274 -68 -2
2 4 25 13 51 22 62 12 58 406 142 201 43 195 48 -31 26 -82 -8 -190 -18 -240
-22 -90 -6 -91 -6 -123 23 -23 20 -37 45 -47 83 -7 29 -12 56 -9 58 3 3 31 -2
62 -11 118 -32 146 -38 231 -52 92 -15 237 -18 287 -5 25 6 22 8 -24 9 -63 1
-311 45 -367 64 -21 8 -57 17 -79 21 -22 4 -59 14 -82 23 -40 15 -43 18 -43
53 l0 38 70 -29 c39 -15 103 -35 143 -43 39 -9 88 -20 107 -25 19 -5 60 -12
90 -15 l55 -6 -35 14 c-19 7 -66 24 -105 36 -72 23 -160 58 -230 90 -22 11
-52 24 -67 29 -23 9 -28 17 -28 43 0 63 8 63 121 10 57 -27 127 -60 154 -72
28 -12 74 -33 103 -47 29 -14 56 -23 59 -20 3 3 -23 24 -58 46 -35 22 -117 75
-183 117 -65 41 -130 81 -143 87 -21 9 -24 16 -19 41 4 16 13 41 22 54 14 21
17 22 32 9 33 -27 247 -184 269 -195 12 -7 25 -12 29 -12 4 0 -53 61 -127 135
-74 75 -135 139 -137 144 -4 12 66 71 83 71 11 0 15 -12 15 -43z m1790 -66 c0
-22 -39 -54 -68 -56 -34 -2 -40 11 -22 46 8 14 21 19 50 19 22 0 40 -4 40 -9z
m-74 -93 c-3 -13 -6 -31 -6 -40 0 -20 -34 -58 -51 -58 -6 0 -8 8 -5 18 3 9 10
36 16 60 8 32 15 42 32 42 16 0 19 -4 14 -22z m-616 -677 c0 -35 -77 -151
-101 -151 -5 0 -14 20 -20 45 -17 68 -32 67 -27 -1 l3 -59 -39 -3 c-59 -5 -83
5 -111 45 -31 47 -32 63 -1 63 20 0 37 -17 40 -42 1 -3 4 -10 9 -14 4 -4 7 9
7 29 0 29 4 37 18 37 10 0 41 6 70 14 53 13 53 13 67 -13 l14 -26 6 31 c4 18
16 36 29 42 27 13 36 14 36 3z"></path>
<path class="node" id="node2" d="M1145 2856 c-33 -15 -112 -92 -103 -101 3 -3 19 6 36 20 17 14 56 38
86 54 72 36 55 60 -19 27z"></path>
<path class="node" id="node3" d="M1365 2846 c-92 -43 -142 -98 -170 -192 -19 -63 -19 -103 1 -167 59
-185 274 -269 440 -172 122 72 179 242 123 372 -64 151 -250 227 -394 159z
m193 -35 c50 -15 110 -68 139 -124 22 -45 25 -60 21 -128 -5 -76 -6 -79 -52
-133 -102 -120 -253 -127 -365 -17 -56 55 -77 120 -68 203 18 148 172 242 325
199z"></path>
<path class="node" id="node4" d="M1484 2762 c-17 -55 -61 -70 -88 -30 l-16 23 -30 -35 c-44 -51 -57
-100 -41 -158 15 -59 61 -107 121 -127 42 -14 50 -14 100 3 43 15 61 28 85 61
26 37 30 52 30 105 0 55 -4 67 -33 103 -39 50 -119 84 -128 55z"></path>
<path class="node" id="node5" d="M1677 2630 c4 -69 2 -79 -27 -128 -18 -31 -48 -63 -73 -79 -37 -24
-52 -28 -124 -28 -70 0 -86 3 -113 23 -43 32 -49 21 -9 -16 34 -32 93 -52 151
-52 157 0 273 175 209 315 l-18 40 4 -75z"></path>
<path class="node" id="node6" d="M1132 2419 c-18 -46 -3 -114 36 -160 70 -82 183 -110 276 -69 60 27
59 39 -3 26 -130 -26 -251 52 -287 184 -11 44 -12 44 -22 19z"></path>
<path class="node" id="node7" d="M2004 2387 c3 -10 3 -29 0 -43 -5 -19 -13 -24 -38 -24 -18 0 -38 6
-45 13 -11 10 -12 5 -6 -29 8 -50 -10 -70 -56 -60 -26 5 -29 4 -20 -8 17 -21
58 -25 82 -8 17 12 20 22 16 48 -4 25 -2 34 8 34 8 0 17 -4 20 -10 17 -27 65
6 65 43 0 12 -8 31 -17 42 -14 18 -15 18 -9 2z"></path>
<path class="node" id="node8" d="M2213 2078 c11 -41 -36 -63 -83 -38 -17 9 -18 7 -10 -21 18 -60 -16
-83 -82 -55 -15 7 -16 4 -5 -23 21 -55 -14 -79 -82 -57 -20 7 -22 6 -14 -9 13
-22 4 -75 -14 -82 -8 -3 -25 -1 -39 5 -27 13 -31 4 -13 -29 16 -31 -16 -63
-55 -55 -29 6 -29 6 -11 -8 43 -32 101 -6 92 41 -4 20 0 23 24 23 35 0 53 29
44 73 -6 26 -5 30 6 20 7 -7 28 -13 46 -13 26 0 34 5 39 25 3 14 3 32 0 41 -5
14 -1 15 28 10 44 -8 70 15 64 56 -4 27 -3 28 27 22 49 -9 78 30 59 80 -9 24
-27 19 -21 -6z"></path>
<path class="node" id="node9" d="M2202 1825 c-14 -31 -52 -33 -77 -5 -26 29 -33 25 -37 -17 -2 -31 -7
-39 -26 -41 -15 -2 -34 6 -49 20 l-26 23 17 -32 c30 -60 106 -49 106 15 l0 25
23 -21 c40 -37 77 -27 90 25 7 32 -8 37 -21 8z"></path>
<path class="node" id="node10" d="M2400 1812 c0 -37 -51 -57 -78 -30 -21 21 -22 2 -2 -20 38 -41 90
-18 90 39 0 16 -2 29 -5 29 -3 0 -5 -8 -5 -18z"></path>
<path class="node" id="node11" d="M2041 1685 c-2 -28 -25 -55 -47 -55 -10 0 -31 12 -46 27 l-28 27 0
-36 c0 -50 -23 -67 -61 -46 -35 21 -38 10 -5 -21 16 -15 31 -21 44 -17 21 7
46 52 37 67 -11 16 3 9 30 -15 16 -15 33 -22 46 -19 24 7 42 46 36 82 -3 19
-4 21 -6 6z"></path>
<path class="node" id="node12" d="M2321 1659 c-3 -46 -73 -61 -86 -18 -8 25 -28 24 -40 -3 -6 -12 -18
-26 -28 -32 -15 -9 -23 -6 -42 17 -13 15 -26 27 -29 27 -8 0 6 -32 26 -59 21
-30 60 -22 77 16 l12 27 23 -29 c18 -23 27 -27 50 -21 28 7 50 46 43 75 -4 14
-5 14 -6 0z"></path>
<path class="node" id="node13" d="M1983 1551 c-13 -37 -38 -49 -65 -32 -30 19 -37 2 -9 -20 13 -11 34
-19 45 -17 24 3 49 48 44 79 -3 18 -5 17 -15 -10z"></path>
<path class="node" id="node14" d="M2130 1553 c0 -5 9 -23 20 -40 14 -23 27 -33 44 -33 28 0 56 33 56
65 0 18 -2 17 -13 -5 -18 -36 -63 -40 -79 -6 -10 24 -28 36 -28 19z"></path>
<path class="node" id="node15" d="M1681 1485 c-2 -51 -54 -83 -81 -50 -22 26 -31 16 -15 -15 26 -49 95
-32 95 23 0 19 3 18 20 -10 14 -23 27 -33 44 -33 31 0 56 25 55 53 l0 22 -16
-22 c-8 -13 -23 -23 -32 -23 -18 0 -55 34 -64 60 -4 11 -6 9 -6 -5z"></path>
<path class="node" id="node16" d="M2106 1375 c-9 -36 -43 -51 -67 -29 -27 24 -35 11 -12 -20 23 -33 46
-33 72 1 12 14 22 24 24 22 1 -2 7 -13 13 -24 6 -11 21 -21 32 -23 23 -4 70
33 59 45 -4 4 -13 1 -19 -5 -7 -7 -19 -12 -28 -12 -19 0 -50 34 -50 55 0 24
-17 17 -24 -10z"></path>
<path class="node" id="node17" d="M1995 1375 c-12 -30 -36 -55 -54 -55 -8 0 -26 12 -38 27 -29 33 -29
22 -2 -27 20 -35 20 -39 5 -69 -18 -34 -45 -40 -71 -15 -21 21 -30 12 -16 -15
18 -33 61 -39 83 -11 10 12 18 30 18 39 1 10 6 6 16 -11 20 -38 62 -48 85 -20
l17 22 16 -25 c21 -32 51 -32 81 1 23 25 25 25 25 7 0 -23 29 -53 52 -53 19 0
64 48 54 57 -4 5 -13 0 -20 -10 -22 -29 -55 -21 -71 18 l-15 34 -25 -24 c-13
-14 -30 -25 -38 -25 -18 0 -47 32 -47 53 0 9 -4 17 -10 17 -5 0 -10 -6 -10
-13 0 -16 -32 -47 -48 -47 -12 0 -52 39 -52 51 0 4 10 9 23 11 24 3 62 68 54
91 -3 7 -7 5 -12 -8z"></path>
<path class="node" id="node18" d="M1715 1360 c-3 -11 -16 -25 -28 -31 -18 -10 -24 -8 -43 15 -25 29
-34 32 -34 13 0 -17 48 -67 64 -67 18 0 43 30 51 63 8 31 0 37 -10 7z"></path>
<path class="node" id="node19" d="M2238 1374 c-8 -7 1 -61 14 -86 18 -37 72 -17 99 35 11 21 11 21 -14
-1 -37 -35 -69 -26 -82 21 -6 21 -14 35 -17 31z"></path>
<path class="node" id="node20" d="M1600 1188 c0 -63 44 -87 87 -46 l23 21 6 -32 c9 -45 39 -59 72 -34
38 28 40 46 3 26 -31 -18 -32 -18 -51 7 -11 14 -20 33 -20 43 0 16 -3 16 -29
-4 -36 -26 -57 -20 -76 23 l-14 33 -1 -37z"></path>
<path class="node" id="node21" d="M1965 1145 c11 -67 41 -83 86 -46 28 23 20 38 -11 21 -29 -15 -43 -8
-64 32 l-17 33 6 -40z"></path>
<path class="node" id="node22" d="M2077 1157 c-9 -23 14 -87 35 -98 22 -12 50 1 72 33 26 36 18 44 -12
15 -19 -18 -35 -25 -45 -21 -10 3 -17 7 -17 8 0 0 -6 18 -14 39 -9 26 -15 34
-19 24z"></path>
<path class="node" id="node23" d="M1601 1088 c-1 -39 19 -68 47 -68 22 1 69 37 59 46 -4 4 -13 2 -19
-4 -25 -25 -55 -14 -71 26 l-16 37 0 -37z"></path>
<path class="node" id="node24" d="M1428 1093 c-26 -31 -29 -52 -8 -73 11 -11 32 -20 46 -20 24 0 24 -1
10 -22 -20 -28 -20 -45 -1 -64 17 -17 41 -20 69 -9 19 8 19 8 3 -15 -35 -50
-13 -90 50 -90 l28 0 -32 16 c-37 18 -43 46 -18 81 16 22 16 22 35 3 11 -11
31 -20 45 -20 25 0 25 -1 10 -30 -14 -27 -14 -30 7 -50 23 -22 54 -26 78 -10
12 8 9 10 -11 10 -14 0 -34 9 -43 19 -16 18 -16 22 -2 50 21 40 21 41 -11 35
-16 -3 -36 1 -47 9 -16 12 -17 18 -8 45 15 44 -5 42 -23 -2 -11 -26 -21 -35
-46 -38 -63 -9 -87 43 -41 89 16 16 16 16 -7 10 -26 -6 -81 16 -81 34 0 6 5
19 11 31 14 26 6 33 -13 11z"></path>
<path class="node" id="node25" d="M1977 1054 c-3 -5 1 -24 10 -42 23 -48 64 -41 98 17 5 9 -1 8 -18 -4
-31 -20 -60 -13 -74 17 -5 12 -12 17 -16 12z"></path>
<path class="node" id="node26" d="M1361 1018 c-32 -34 -25 -79 14 -90 40 -10 54 7 16 20 -35 12 -40 36
-14 64 9 10 14 21 11 24 -3 3 -16 -5 -27 -18z"></path>





</g>
<g transform="translate(0.000000,300.000000) scale(0.100000,-0.100000)" fill="#FFFFFF" stroke="none">


<path class="node" id="node34" d="M702 1828 c-18 -18 -15 -46 7 -57 14 -8 22 -6 35 8 17 19 12 31 -13
30 -12 0 -11 -3 4 -10 l20 -9 -20 3 c-14 2 -19 9 -18 25 3 25 1 26 -15 10z"></path>
<path class="node" id="node35" d="M315 1670 c3 -5 8 -10 11 -10 2 0 4 5 4 10 0 6 -5 10 -11 10 -5 0 -7
-4 -4 -10z"></path>

<path class="node" id="node37" d="M2330 910 c0 -5 5 -10 11 -10 5 0 7 5 4 10 -3 6 -8 10 -11 10 -2 0
-4 -4 -4 -10z"></path>

<path class="node" id="node39" d="M2217 773 l-38 -16 53 -18 c68 -24 114 -24 122 -2 4 9 0 23 -7 31
-12 12 -15 10 -21 -12 -3 -14 -10 -26 -15 -26 -15 0 -33 29 -27 45 7 19 -17
19 -67 -2z"></path>
<path class="node" id="node40" d="M2297 773 c-12 -11 -8 -23 8 -23 8 0 15 7 15 15 0 16 -12 20 -23 8z"></path>
<path class="node" id="node41" d="M1114 2894 c-33 -13 -87 -46 -119 -72 -58 -47 -165 -176 -165 -199 0
-17 39 -36 72 -35 15 0 28 -5 28 -11 0 -7 19 -24 43 -39 23 -15 55 -40 70 -56
30 -31 33 -67 7 -67 -8 0 -20 -7 -27 -15 -9 -12 -12 -8 -18 22 -9 46 -23 59
-120 108 -144 73 -180 52 -180 -110 0 -94 1 -96 42 -168 81 -139 358 -455 423
-482 26 -11 38 -10 84 8 88 34 206 127 290 231 63 77 84 117 121 229 20 62 34
87 53 99 100 61 137 90 187 145 90 99 116 181 76 241 -22 34 -42 49 -120 87
-157 78 -270 102 -506 106 -173 3 -183 2 -241 -22z m99 -31 c4 -3 -18 -19 -49
-34 -30 -16 -69 -40 -86 -54 -46 -39 -47 -21 -2 26 51 54 116 83 137 62z m390
-17 c108 -50 177 -155 177 -272 0 -189 -161 -325 -351 -295 -134 22 -249 158
-249 293 0 43 24 121 50 164 73 118 246 169 373 110z m-417 -523 c51 -81 158
-126 255 -107 62 13 63 1 3 -26 -93 -41 -206 -13 -276 69 -39 46 -54 114 -36
160 10 25 11 25 22 -19 7 -25 21 -59 32 -77z"></path>
<path class="node" id="node42" d="M1375 2801 c-112 -51 -165 -166 -135 -292 10 -41 23 -63 61 -100 112
-110 263 -103 365 17 46 54 47 57 52 133 4 68 1 83 -21 128 -29 56 -89 109
-139 124 -53 15 -139 10 -183 -10z m237 -94 c29 -36 33 -48 33 -103 0 -53 -4
-68 -30 -105 -24 -33 -42 -46 -85 -61 -50 -17 -58 -17 -100 -3 -60 20 -106 68
-121 127 -16 58 -3 107 41 158 l30 35 16 -23 c27 -40 71 -25 88 30 9 29 89 -5
128 -55z m98 -127 c0 -92 -77 -196 -162 -221 -75 -21 -168 -3 -217 43 -40 37
-34 48 9 16 27 -20 43 -23 113 -23 72 0 87 4 124 28 25 16 55 48 73 79 29 49
31 59 27 128 l-4 75 18 -40 c10 -22 19 -60 19 -85z"></path>
<path class="node" id="node43" d="M2030 2659 c0 -89 -77 -194 -211 -290 -99 -71 -105 -79 -135 -169
-15 -46 -40 -106 -56 -133 -15 -26 -28 -52 -28 -58 0 -18 -52 -112 -90 -164
-46 -62 -121 -130 -172 -156 -35 -18 -50 -39 -28 -39 13 0 64 23 71 33 3 4 10
7 15 5 5 -1 26 4 48 11 34 12 38 16 32 41 -5 27 -4 28 25 17 35 -14 62 -1 67
32 5 34 22 24 22 -14 0 -40 -21 -56 -63 -48 -16 3 -27 1 -27 -6 0 -6 5 -11 10
-11 6 0 26 -16 46 -35 19 -19 43 -35 52 -35 23 0 42 19 42 42 0 10 5 18 10 18
15 0 12 -43 -6 -68 -17 -24 -43 -29 -62 -10 -7 7 -12 10 -13 8 0 -3 -2 -23 -4
-45 -6 -53 -30 -148 -55 -213 -11 -29 -20 -66 -20 -82 0 -113 -101 -231 -210
-245 -107 -14 -114 -37 -35 -115 67 -66 74 -94 50 -193 l-17 -71 23 -19 c27
-21 52 -20 249 14 278 47 417 110 573 258 102 96 191 229 237 353 36 97 70
301 77 461 l6 148 -26 -12 c-22 -10 -31 -9 -51 5 -33 21 -36 20 -36 -7 0 -13
-9 -32 -19 -41 -18 -16 -22 -16 -49 -2 -25 13 -42 34 -42 52 0 3 13 -5 30 -17
29 -22 30 -22 50 -4 11 10 20 29 20 42 0 14 3 23 8 21 4 -2 19 -10 34 -17 64
-32 79 14 49 151 -29 128 -46 169 -67 161 -8 -3 -29 4 -45 16 l-29 22 0 -29
c0 -16 -9 -37 -20 -47 -19 -17 -19 -19 -4 -37 26 -28 62 -23 76 10 11 26 12
26 15 5 6 -31 -14 -63 -38 -63 -19 0 -39 17 -86 74 -24 29 -43 34 -43 11 0
-20 -46 -30 -77 -16 -23 10 -25 10 -18 -6 17 -41 16 -52 -5 -73 -12 -12 -28
-19 -36 -16 -8 3 -21 9 -30 12 -13 6 -14 1 -9 -28 5 -26 2 -39 -10 -51 -18
-19 -50 -22 -60 -7 -13 22 -23 8 -18 -25 7 -41 -9 -65 -42 -65 -18 0 -22 -4
-18 -20 8 -29 -24 -60 -61 -60 -23 0 -27 -3 -18 -12 7 -7 12 -25 12 -40 0 -33
-35 -52 -76 -42 -34 9 -30 24 6 24 34 0 45 17 36 55 -6 23 -10 25 -40 20 -42
-8 -55 8 -19 24 24 11 25 15 19 56 l-6 45 35 0 c28 0 36 4 41 24 3 13 1 33 -5
44 -10 18 -8 19 34 14 41 -4 44 -3 51 23 4 16 2 36 -5 47 -11 17 -9 18 29 12
52 -8 71 7 63 49 -3 18 -11 36 -17 40 -6 5 -2 6 9 1 11 -4 34 -9 52 -12 25 -3
32 0 38 17 3 12 4 35 0 51 -6 29 -6 30 20 20 35 -13 41 -13 59 6 11 10 14 24
9 42 -6 24 -5 26 10 13 21 -17 22 -64 2 -81 -9 -8 -29 -10 -51 -7 -31 5 -35 4
-29 -11 6 -16 12 -38 14 -53 1 -4 15 -9 32 -13 43 -8 62 9 55 48 l-6 30 29
-28 c42 -40 73 -33 86 19 l10 40 24 -22 c23 -22 61 -31 61 -15 0 14 -61 126
-106 194 -40 59 -75 101 -192 228 l-32 34 0 -45z m0 -316 c0 -37 -48 -70 -65
-43 -3 6 -12 10 -20 10 -10 0 -12 -9 -8 -34 4 -26 1 -36 -16 -48 -24 -17 -65
-13 -82 8 -9 12 -6 13 20 8 46 -10 64 10 56 60 -6 34 -5 39 6 29 7 -7 27 -13
45 -13 25 0 33 5 38 24 3 14 3 33 0 43 -6 16 -5 16 9 -2 9 -11 17 -30 17 -42z
m204 -259 c19 -50 -10 -89 -59 -80 -30 6 -31 5 -27 -22 6 -41 -20 -64 -64 -56
-29 5 -33 4 -28 -10 3 -9 3 -27 0 -41 -5 -20 -13 -25 -39 -25 -18 0 -39 6 -46
13 -11 10 -12 6 -6 -20 9 -44 -9 -73 -44 -73 -24 0 -28 -3 -24 -23 9 -47 -49
-73 -92 -41 -18 14 -18 14 11 8 39 -8 71 24 55 55 -18 33 -14 42 13 29 14 -6
31 -8 39 -5 18 7 27 60 14 82 -8 15 -6 16 14 9 68 -22 103 2 82 57 -11 27 -10
30 5 23 66 -28 100 -5 82 55 -8 28 -7 30 10 21 47 -25 94 -3 83 38 -6 25 12
30 21 6z m-11 -267 c-13 -52 -50 -62 -90 -25 l-23 21 0 -25 c0 -64 -76 -75
-106 -15 l-17 32 26 -23 c15 -14 34 -22 49 -20 19 2 24 10 26 41 4 42 11 46
37 17 25 -28 63 -26 77 5 13 29 28 24 21 -8z m187 -16 c0 -57 -52 -80 -90 -39
-20 22 -19 41 2 20 27 -27 78 -7 78 30 0 10 2 18 5 18 3 0 5 -13 5 -29z m-369
-173 c-14 -36 -45 -41 -76 -12 -27 24 -41 31 -30 15 9 -15 -16 -60 -37 -67
-13 -4 -28 2 -44 17 -33 31 -30 42 5 21 38 -21 61 -4 61 46 l0 36 28 -27 c15
-15 36 -27 46 -27 22 0 45 27 47 55 2 15 3 13 6 -6 2 -14 0 -37 -6 -51z m280
-11 c-6 -16 -21 -29 -37 -33 -23 -6 -32 -2 -50 21 l-23 29 -12 -27 c-17 -38
-56 -46 -77 -16 -20 27 -34 59 -26 59 3 0 16 -12 29 -27 19 -23 27 -26 42 -17
10 6 22 20 28 32 12 27 32 28 40 3 13 -43 83 -28 86 18 1 14 2 14 6 0 2 -8 -1
-27 -6 -42z m-333 -104 c-16 -35 -47 -40 -79 -14 -28 22 -21 39 9 20 27 -17
52 -5 65 32 10 27 12 28 15 10 2 -11 -3 -33 -10 -48z m170 21 c16 -34 61 -30
79 6 11 22 13 23 13 5 0 -32 -28 -65 -56 -65 -17 0 -30 10 -44 33 -22 35 -25
47 -12 47 5 0 14 -12 20 -26z m-445 -81 c11 -13 28 -23 38 -23 9 0 24 10 32
23 l16 22 0 -22 c1 -28 -24 -53 -55 -53 -17 0 -30 10 -44 33 -17 28 -20 29
-20 10 0 -55 -69 -72 -95 -23 -16 31 -7 41 15 15 27 -33 79 -1 81 50 0 14 2
16 6 5 3 -8 15 -25 26 -37z m417 -68 c0 -21 31 -55 50 -55 9 0 21 5 28 12 6 6
15 9 19 5 11 -12 -36 -49 -59 -45 -11 2 -26 12 -32 23 -6 11 -12 22 -13 24 -2
2 -12 -8 -24 -22 -26 -34 -49 -34 -72 -1 -23 31 -15 44 12 20 24 -22 58 -7 67
29 7 27 24 34 24 10z m-137 -52 c-11 -25 -26 -39 -40 -41 -13 -2 -23 -7 -23
-11 0 -12 40 -51 52 -51 16 0 48 31 48 47 0 7 5 13 10 13 6 0 10 -8 10 -17 0
-21 29 -53 47 -53 8 0 25 11 38 25 l25 24 15 -34 c16 -39 49 -47 71 -18 7 10
16 15 20 10 10 -9 -35 -57 -54 -57 -23 0 -52 30 -52 53 0 18 -2 18 -25 -7 -30
-33 -60 -33 -81 -1 l-16 25 -17 -22 c-23 -28 -65 -18 -85 20 -10 17 -15 21
-16 11 0 -9 -8 -27 -18 -39 -22 -28 -65 -22 -83 11 -14 27 -5 36 16 15 26 -25
53 -19 71 15 15 30 15 34 -5 69 -27 49 -27 60 2 27 12 -15 30 -27 38 -27 18 0
42 25 54 55 5 13 9 15 12 8 3 -7 -4 -30 -14 -50z m-268 20 c-8 -33 -33 -63
-51 -63 -16 0 -64 50 -64 67 0 19 9 16 34 -13 19 -23 25 -25 43 -15 12 6 25
20 28 31 10 30 18 24 10 -7z m564 -51 c14 -2 33 6 48 20 25 22 25 22 14 1 -18
-35 -41 -53 -66 -53 -26 0 -39 17 -48 66 -9 46 6 51 18 7 8 -28 17 -39 34 -41z
m-644 -149 c9 -3 29 4 46 16 26 20 29 20 29 4 0 -10 9 -29 20 -43 19 -25 20
-25 51 -7 37 20 35 2 -3 -26 -33 -25 -63 -11 -72 34 l-6 32 -23 -21 c-43 -41
-87 -17 -87 46 l1 37 14 -33 c8 -18 21 -35 30 -39z m361 -40 c7 -2 22 1 34 7
31 17 39 2 11 -21 -45 -37 -75 -21 -86 46 l-6 40 17 -33 c10 -19 23 -36 30
-39z m104 -19 c0 -1 7 -5 17 -8 10 -4 26 3 45 21 30 29 38 21 12 -15 -38 -54
-82 -49 -101 13 -16 52 -4 78 13 28 8 -21 14 -39 14 -39z m-456 -44 c12 0 27
5 34 12 6 6 15 8 19 4 10 -9 -37 -45 -59 -46 -28 0 -48 29 -47 68 l0 37 16
-37 c11 -28 21 -38 37 -38z m-213 32 c-6 -12 -11 -25 -11 -31 0 -18 55 -40 81
-34 23 6 23 6 7 -10 -46 -46 -22 -98 41 -89 25 3 35 12 46 38 18 44 38 46 23
2 -9 -27 -8 -33 8 -45 11 -8 31 -12 47 -9 32 6 32 5 11 -35 -14 -28 -14 -32 2
-50 9 -10 29 -19 43 -19 20 0 23 -2 11 -10 -24 -16 -55 -12 -78 10 -21 20 -21
23 -7 50 15 29 15 30 -10 30 -14 0 -34 9 -45 20 -19 19 -19 19 -35 -3 -25 -35
-19 -63 18 -81 l32 -16 -28 0 c-63 0 -85 40 -50 90 16 23 16 23 -3 15 -28 -11
-52 -8 -69 9 -19 19 -19 36 1 64 14 21 14 22 -10 22 -33 0 -68 34 -59 57 8 22
35 55 40 49 3 -2 0 -13 -6 -24z m581 -68 c11 -3 30 2 45 11 17 12 23 13 18 4
-34 -58 -75 -65 -98 -17 -9 18 -13 37 -10 42 4 5 11 0 16 -12 6 -12 18 -24 29
-28z m-645 -2 c-26 -28 -21 -52 14 -64 38 -13 24 -30 -16 -20 -39 11 -46 56
-14 90 11 13 24 21 27 18 3 -3 -2 -14 -11 -24z"></path>
<path class="node" id="node44" d="M2250 2562 c0 -19 23 -30 46 -22 27 11 29 8 13 -18 -9 -14 -8 -26 5
-50 19 -37 31 -40 46 -12 16 29 -1 82 -31 97 -27 14 -79 17 -79 5z"></path>
<path class="node" id="node45" d="M2375 2370 c16 -31 22 -34 50 -24 14 6 13 9 -6 30 -12 13 -31 24 -41
24 -17 0 -18 -2 -3 -30z"></path>
<path class="node" id="node46" d="M2431 2322 c-21 -16 -22 -18 -6 -56 16 -37 18 -38 53 -32 20 3 43 6
50 6 23 0 12 32 -22 66 -39 39 -46 40 -75 16z"></path>
<path class="node" id="node47" d="M2488 2212 c-30 -18 -33 -38 -14 -90 12 -33 12 -34 33 -15 16 13 23
31 25 67 3 55 -5 61 -44 38z"></path>
<path class="node" id="node48" d="M1960 2189 c1 -31 33 -86 53 -93 41 -15 59 -2 55 41 -3 37 -4 38 -41
35 -21 -2 -45 2 -53 8 -7 7 -14 11 -14 9z"></path>
<path class="node" id="node49" d="M1955 2091 c-4 -7 -20 -9 -41 -5 -34 6 -35 6 -28 -22 10 -43 24 -55
57 -52 24 2 32 9 39 33 8 32 -13 68 -27 46z"></path>
<path class="node" id="node50" d="M2491 2043 c4 -64 13 -78 54 -84 l40 -5 -39 -18 -39 -17 6 -60 c3
-34 7 -62 9 -64 2 -2 19 0 38 4 29 5 39 15 57 51 12 25 22 58 22 74 2 58 -69
136 -123 136 -19 0 -26 -5 -25 -17z"></path>
<path class="node" id="node51" d="M1844 2003 c-31 -6 -32 -69 -1 -77 43 -11 68 23 51 68 -6 16 -11 17
-50 9z"></path>
<path class="node" id="node52" d="M1469 1885 c-75 -69 -141 -113 -212 -140 -54 -20 -56 -22 -40 -37 10
-8 23 -18 30 -22 17 -9 131 61 180 110 43 44 108 133 101 139 -1 2 -28 -21
-59 -50z"></path>
<path class="node" id="node53" d="M1746 1910 c3 -8 8 -27 11 -42 6 -31 28 -36 58 -14 16 12 18 19 10
42 -9 25 -16 29 -48 29 -29 0 -36 -3 -31 -15z"></path>
<path class="node" id="node54" d="M2520 1746 c0 -22 5 -26 28 -27 l27 -1 -33 -14 c-36 -16 -34 -34 4
-34 33 0 30 -16 -4 -28 -26 -9 -30 -16 -40 -80 -7 -39 -12 -75 -12 -81 0 -13
72 -33 82 -23 14 14 -4 52 -28 58 -28 7 -22 24 8 24 29 0 88 65 88 97 0 14
-10 48 -22 74 -17 35 -29 48 -45 49 -12 0 -28 3 -37 6 -12 5 -16 0 -16 -20z"></path>
<path class="node" id="node55" d="M1430 1651 c-25 -10 -62 -25 -82 -34 -21 -9 -40 -17 -44 -17 -3 0
-37 -21 -75 -46 -60 -39 -89 -68 -89 -88 0 -2 41 20 92 50 146 86 142 72 -15
-50 -82 -63 -86 -79 -26 -88 32 -5 43 4 118 91 30 34 26 11 -11 -63 -28 -57
-33 -97 -11 -96 4 1 43 59 86 130 76 127 121 177 74 83 -70 -139 -127 -263
-127 -276 0 -7 8 -21 18 -31 18 -15 21 -15 44 4 34 26 90 138 121 241 33 111
40 151 27 183 -11 30 -32 32 -100 7z"></path>
<path class="node" id="node56" d="M715 1509 c-20 -18 -34 -35 -33 -40 2 -5 63 -69 137 -144 172 -172
165 -177 -39 -27 -63 47 -123 91 -132 99 -15 13 -18 12 -32 -9 -9 -13 -18 -38
-22 -54 -5 -25 -2 -32 19 -41 13 -6 78 -46 143 -87 66 -42 148 -95 183 -117
35 -22 61 -43 58 -46 -3 -3 -30 6 -59 20 -29 14 -75 35 -103 47 -27 12 -97 45
-154 72 -113 53 -121 53 -121 -10 0 -26 5 -34 28 -43 15 -5 45 -18 67 -29 70
-32 158 -67 230 -90 39 -12 86 -29 105 -36 l35 -14 -55 6 c-30 3 -71 10 -90
15 -19 5 -68 16 -107 25 -40 8 -104 28 -143 43 l-70 29 0 -38 c0 -35 3 -38 43
-53 23 -9 60 -19 82 -23 22 -4 58 -13 79 -21 56 -19 304 -63 367 -64 46 -1 49
-3 24 -9 -50 -13 -195 -10 -287 5 -85 14 -113 20 -231 52 -31 9 -59 14 -62 11
-3 -2 2 -29 9 -58 10 -38 24 -63 47 -83 32 -29 33 -29 123 -23 50 4 158 14
240 22 226 22 232 17 31 -26 -250 -53 -294 -63 -340 -79 -45 -15 -51 -20 -66
-63 -9 -26 -15 -49 -13 -51 6 -6 127 24 274 68 74 22 110 27 110 17 0 -5 -12
-13 -27 -17 -41 -9 -249 -93 -314 -126 -36 -18 -58 -36 -62 -50 -12 -46 -12
-46 228 66 28 13 86 40 130 60 44 21 88 42 98 47 10 5 17 5 17 -1 0 -5 -35
-28 -77 -52 -114 -62 -131 -72 -208 -119 -103 -63 -185 -129 -185 -148 0 -21
19 -92 25 -92 2 0 74 56 160 126 85 69 155 121 155 116 0 -5 -53 -58 -117
-118 -65 -59 -130 -120 -145 -134 -34 -32 -35 -40 0 -72 32 -30 75 -53 118
-62 30 -7 31 -6 38 34 9 56 37 108 81 150 20 19 79 88 132 152 53 65 99 116
101 113 3 -2 -19 -37 -47 -76 -64 -88 -76 -118 -24 -63 62 67 152 205 184 285
41 98 44 168 9 201 -14 13 -43 45 -65 72 -22 28 -66 81 -98 120 -32 39 -99
107 -149 151 -77 67 -98 92 -130 155 -26 52 -38 88 -38 117 0 53 -15 56 -65
12z"></path>
<path class="node" id="node57" d="M2480 1421 c-18 -35 -12 -48 22 -46 29 2 68 34 68 56 0 5 -18 9 -40
9 -29 0 -42 -5 -50 -19z"></path>
<path class="node" id="node58" d="M2450 1318 c-6 -24 -13 -51 -16 -60 -3 -10 -1 -18 5 -18 17 0 51 38
51 58 0 9 3 27 6 40 5 18 2 22 -14 22 -17 0 -24 -10 -32 -42z"></path>
<path class="node" id="node59" d="M1844 658 c-13 -6 -25 -24 -29 -42 l-6 -31 -14 26 c-14 26 -14 26
-67 13 -29 -8 -60 -14 -70 -14 -14 0 -18 -8 -18 -37 0 -20 -3 -33 -7 -29 -5 4
-8 11 -9 14 -3 25 -20 42 -40 42 -31 0 -30 -16 1 -63 28 -40 52 -50 111 -45
l39 3 -3 59 c-5 68 10 69 27 1 6 -25 15 -45 20 -45 15 0 70 69 86 107 23 55
20 61 -21 41z"></path>
</g>
</svg>