<!--?xml version="1.0" standalone="no"?-->

<svg version="1.0" xmlns="http://www.w3.org/2000/svg" width="300.000000pt" height="276.000000pt" viewBox="0 0 300.000000 276.000000" preserveAspectRatio="xMidYMid meet">
<g transform="translate(0.000000,276.000000) scale(0.100000,-0.100000)" fill="#252527" stroke="none">
<path class="node" id="node1" d="M1310 2209 c-12 -8 -11 -9 6 -4 13 3 28 0 37 -10 18 -17 37 -20 37
-5 0 6 -7 10 -15 10 -8 0 -15 5 -15 10 0 13 -31 13 -50 -1z"></path>
<path class="node" id="node2" d="M1420 2210 c-32 -10 -32 -10 73 -14 l88 -3 47 -52 c33 -36 56 -52 77
-55 17 -2 23 -1 15 1 -28 9 -80 54 -95 82 -8 16 -28 34 -46 40 -36 12 -121 13
-159 1z"></path>
<path class="node" id="node3" d="M1290 2145 c-5 -14 -7 -40 -4 -57 l5 -33 -15 25 c-8 14 -15 35 -16
47 0 53 -55 32 -66 -25 -4 -20 -9 -31 -11 -24 -10 27 -22 9 -46 -65 -26 -80
-38 -133 -30 -133 3 0 23 15 46 33 44 35 110 77 121 77 3 0 6 -11 6 -25 0 -39
25 -40 94 -6 35 17 68 31 74 31 6 0 12 5 14 11 2 6 12 0 23 -13 11 -13 13 -17
5 -10 -22 19 -30 14 -30 -17 0 -39 13 -45 52 -25 25 13 138 120 138 131 0 1
-21 4 -47 6 -39 3 -44 5 -25 11 29 11 28 17 -8 51 l-30 29 -31 -30 c-26 -23
-29 -25 -20 -7 19 38 14 44 -36 41 l-46 -3 -15 -52 c-17 -61 -37 -72 -29 -15
3 20 8 45 12 55 6 14 1 17 -34 17 -35 0 -43 -4 -51 -25z m167 -35 c-7 -17 -13
-26 -15 -21 -3 10 15 51 22 51 3 0 -1 -14 -7 -30z"></path>
<path class="node" id="node4" d="M1765 2100 c-16 -7 -17 -9 -3 -9 9 -1 20 4 23 9 7 11 7 11 -20 0z"></path>
<path class="node" id="node5" d="M1374 1923 c-40 -26 -42 -29 -48 -92 -11 -119 -8 -156 14 -176 24
-21 24 -75 1 -83 -10 -3 -12 3 -7 26 7 27 5 29 -18 25 -29 -6 -32 -26 -20
-117 6 -39 10 -46 29 -46 12 0 27 -6 32 -12 17 -22 43 -136 43 -186 0 -42 -24
-145 -45 -194 -5 -14 -2 -18 13 -18 16 0 22 9 27 43 3 23 16 75 27 115 l21 73
-20 52 c-31 76 -34 98 -23 163 25 142 24 131 1 110 -27 -24 -40 -13 -16 14 16
18 17 22 3 38 -9 9 -21 33 -28 53 -11 30 -10 43 3 80 8 24 16 36 16 26 2 -30
21 -8 21 24 0 29 -14 40 -23 17 -4 -10 -6 -10 -6 -1 -1 7 13 28 29 46 48 55
39 62 -26 20z"></path>
<path class="node" id="node6" d="M1185 1892 l-40 -38 5 -96 c4 -83 8 -100 28 -121 13 -14 25 -33 27
-43 2 -11 4 -21 4 -23 1 -2 9 7 20 20 18 23 18 23 -15 71 -34 48 -39 65 -28
105 7 27 23 21 25 -10 1 -12 5 1 9 28 4 28 11 59 15 70 8 17 6 17 -15 -3 -30
-28 -40 -12 -11 17 17 17 30 62 19 61 -2 0 -21 -17 -43 -38z"></path>
<path class="node" id="node7" d="M1595 1911 c-6 -5 -27 -14 -48 -21 -24 -8 -37 -17 -33 -25 2 -7 -7
-48 -20 -91 -23 -73 -24 -81 -10 -114 8 -19 16 -43 18 -53 3 -16 5 -16 26 -1
17 12 21 19 13 27 -6 6 -11 19 -11 29 0 10 -5 27 -12 37 -9 15 -9 25 0 46 7
14 16 24 21 21 5 -3 11 2 14 12 4 9 13 31 21 49 13 29 13 31 -2 26 -9 -3 -2 7
16 22 31 25 41 45 24 45 -4 0 -12 -4 -17 -9z"></path>
<path class="node" id="node8" d="M1007 1846 c-35 -42 -37 -48 -28 -83 5 -21 12 -61 16 -89 4 -31 14
-60 26 -70 10 -11 27 -27 38 -38 19 -17 41 -15 41 4 0 5 -12 22 -26 37 -46 49
-54 66 -47 106 3 20 9 35 12 33 4 -3 8 14 8 36 2 37 1 39 -12 22 -19 -26 -19
-5 1 35 26 52 11 56 -29 7z"></path>
<path class="node" id="node9" d="M1723 1833 c-26 -9 -43 -21 -43 -30 0 -9 -12 -40 -26 -69 -20 -42
-25 -62 -20 -91 10 -58 9 -84 -4 -97 -10 -8 -11 -5 -8 17 4 23 2 27 -17 27
-19 0 -24 -8 -34 -57 -14 -73 -14 -83 3 -83 7 0 19 -7 26 -15 21 -25 30 -18
60 48 36 75 39 98 10 72 -11 -10 -20 -13 -20 -8 0 6 7 16 15 23 10 8 13 24 11
47 -3 21 1 45 10 58 8 12 13 31 12 41 -3 33 21 78 52 96 17 9 30 22 30 28 0
13 -5 12 -57 -7z m-39 -137 c-3 -9 -10 -16 -15 -16 -6 0 -5 9 1 21 13 24 24
20 14 -5z"></path>
<path class="node" id="node10" d="M1877 1740 c-20 -4 -39 -9 -40 -11 -2 -2 -9 -15 -15 -29 -7 -14 -23
-43 -37 -65 -31 -51 -33 -140 -3 -124 10 5 18 21 18 35 0 14 4 22 10 19 6 -3
10 4 10 18 0 14 7 30 15 37 9 7 13 15 10 18 -3 3 -15 -3 -27 -14 -18 -14 -17
-12 3 11 15 17 32 40 38 53 6 12 20 22 29 22 19 0 42 18 42 32 0 9 1 9 -53 -2z"></path>
<path stroke-width="20" class="node" id="node11" d="M694 1621 c-59 -10 -74 -17 -74 -35 0 -8 -7 -19 -15 -26 -15 -13 -21
-2 -7 16 4 5 0 1 -10 -8 -9 -10 -22 -18 -30 -18 -28 -1 -243 -116 -246 -131
-2 -13 3 -15 22 -12 14 3 23 10 20 17 -3 7 7 18 21 24 38 18 40 15 13 -20 -14
-18 -28 -45 -31 -59 -4 -14 -20 -43 -37 -64 -17 -22 -30 -49 -29 -64 0 -14 -7
-48 -17 -76 l-18 -49 -8 29 c-9 31 -5 106 7 138 13 31 -12 18 -39 -22 -25 -36
-28 -47 -27 -127 0 -64 -4 -95 -15 -112 -28 -43 -4 -126 55 -190 17 -18 30
-36 28 -40 -1 -4 7 -16 18 -27 11 -11 30 -34 42 -50 23 -33 27 -32 37 5 5 17
4 21 -2 11 -8 -11 -17 -6 -46 23 -20 20 -32 36 -27 36 5 0 13 -5 17 -11 4 -7
22 -9 48 -5 45 7 39 7 182 0 81 -4 109 -2 140 11 22 10 55 19 74 22 19 3 47
17 63 31 26 25 36 21 18 -7 -5 -8 -3 -24 5 -40 8 -14 14 -34 14 -44 0 -29 19
-57 38 -57 10 0 24 -6 31 -12 7 -7 3 11 -8 40 l-21 53 31 -23 c17 -13 39 -37
50 -55 39 -63 47 -29 13 55 -19 47 -1 39 41 -18 20 -27 38 -50 40 -50 6 0 38
70 34 73 -2 2 -28 18 -56 37 -59 40 -67 55 -23 45 30 -7 43 8 18 19 -13 6 28
-3 48 -11 8 -3 34 36 34 52 0 3 -22 5 -49 5 -26 0 -63 5 -80 11 -24 9 -39 9
-58 0 -46 -21 -36 -2 11 20 42 21 45 24 30 40 -15 16 -14 19 6 36 25 21 50 65
50 88 0 12 -4 14 -19 5 -31 -16 -51 -12 -51 11 0 15 5 19 19 14 26 -8 47 2 75
40 39 51 42 77 11 113 -25 30 -25 33 -11 54 9 12 16 30 16 39 0 21 24 31 56
23 28 -7 28 -4 17 108 l-6 68 -32 -35 c-35 -36 -45 -36 -45 2 0 21 -2 22 -21
12 -17 -9 -20 -17 -15 -42 6 -28 5 -29 -11 -15 -10 8 -26 18 -36 21 -10 4 -16
11 -13 16 8 12 -21 41 -39 41 -7 0 -22 11 -32 25 -15 21 -28 26 -78 29 -33 3
-83 1 -111 -3z m-143 -101 c-13 -11 -31 -20 -40 -20 -10 0 -6 7 14 20 39 26
57 25 26 0z m323 -44 c-33 -59 -133 -151 -173 -159 -36 -8 -119 2 -127 14 -2
4 12 7 33 5 61 -6 66 0 58 60 -6 51 -5 54 19 60 28 7 36 24 11 24 -8 0 -15 -4
-15 -10 0 -5 -6 -10 -14 -10 -29 0 -38 -27 -21 -60 11 -21 13 -36 7 -42 -10
-10 -32 40 -32 73 0 28 53 60 103 61 56 1 67 -6 67 -43 0 -39 14 -37 41 9 42
70 81 87 43 18z m-277 -53 c-3 -10 -5 -2 -5 17 0 19 2 27 5 18 2 -10 2 -26 0
-35z m-191 -110 c-11 -11 -17 4 -9 23 7 18 8 18 11 1 2 -10 1 -21 -2 -24z
m144 5 c0 -16 -3 -19 -11 -11 -6 6 -8 16 -5 22 11 17 16 13 16 -11z m405 -27
c60 -27 70 -43 44 -75 -14 -18 -30 -26 -52 -26 -33 -1 -38 -7 -77 -108 -15
-39 -76 -93 -138 -124 -44 -21 -45 -21 -58 -3 -8 10 -14 29 -14 41 0 13 -4 26
-10 29 -5 3 -10 -1 -10 -10 0 -9 -9 -34 -21 -56 -15 -31 -25 -40 -42 -37 -20
3 -22 8 -21 64 2 86 54 163 54 80 0 -47 16 -54 24 -11 5 26 12 35 26 35 15 0
20 -7 20 -30 0 -43 24 -29 48 30 20 49 54 75 122 95 112 33 119 70 15 90 l-40
8 35 12 c46 18 48 18 95 -4z m-589 -98 c-8 -80 -23 -143 -35 -143 -11 0 -31
70 -31 109 0 19 4 30 10 26 6 -3 10 4 10 16 0 23 26 59 43 59 6 0 7 -25 3 -67z
m99 -33 c-5 -28 -10 -38 -15 -29 -9 14 -14 -1 -24 -75 -7 -52 -25 -70 -25 -25
0 19 -1 55 -2 80 -2 40 2 51 27 77 36 37 48 27 39 -28z m72 -71 c-6 -76 -25
-129 -46 -129 -4 0 -6 11 -4 24 3 12 0 40 -6 61 -8 30 -7 42 6 64 20 32 44 61
51 61 3 0 2 -37 -1 -81z m176 74 c-7 -2 -21 -2 -30 0 -10 3 -4 5 12 5 17 0 24
-2 18 -5z m24 -269 c-5 -5 -57 13 -57 20 0 3 14 0 31 -6 16 -6 28 -12 26 -14z
m217 -73 c4 -5 -3 -7 -14 -4 -23 6 -26 13 -6 13 8 0 17 -4 20 -9z"></path>
<path stroke-width="20" class="node" id="node12" d="M1436 1608 c-3 -7 -7 -43 -10 -80 -6 -63 -5 -67 15 -70 17 -2 25 -15
36 -53 26 -89 27 -163 4 -229 -22 -62 -22 -72 4 -63 10 5 15 20 15 50 0 24 5
48 10 53 6 6 13 33 17 61 4 41 1 61 -17 97 -17 36 -19 50 -11 60 11 13 60 151
61 170 0 6 -6 3 -12 -6 -13 -16 -78 -35 -78 -23 0 3 5 15 10 26 9 16 7 19 -15
19 -14 0 -27 -6 -29 -12z m61 -100 c-3 -8 -6 -5 -6 6 -1 11 2 17 5 13 3 -3 4
-12 1 -19z"></path>
<path class="node" id="node13" d="M1911 1575 c-22 -24 -42 -50 -43 -57 -9 -77 8 -90 35 -28 9 22 17 43
17 48 0 14 69 62 89 62 12 0 21 5 21 10 0 6 -17 10 -39 10 -33 0 -44 -7 -80
-45z"></path>
<path class="node" id="node14" d="M1231 1573 c-29 -28 -36 -31 -43 -18 -5 8 -6 20 -3 25 3 6 -3 10 -14
10 -30 0 -31 -10 -15 -83 14 -59 18 -66 42 -69 21 -2 28 -10 34 -41 4 -21 15
-51 23 -68 36 -68 39 -197 9 -306 -5 -18 -3 -21 14 -17 16 5 20 19 28 92 13
131 10 198 -8 219 -21 24 -58 103 -49 103 8 0 26 179 19 185 -2 1 -18 -13 -37
-32z"></path>
<path class="node" id="node15" d="M1687 1486 c-18 -54 -17 -54 6 -80 l24 -26 19 23 c11 12 32 39 47 59
l28 37 -41 -3 c-38 -3 -52 6 -30 19 18 11 11 25 -13 25 -19 0 -26 -9 -40 -54z"></path>
<path class="node" id="node16" d="M1981 1487 c-38 -45 -52 -89 -33 -101 12 -7 44 52 36 66 -4 7 -3 8 4
4 7 -4 12 -2 12 4 0 16 42 49 63 50 28 0 19 17 -12 22 -24 3 -35 -3 -70 -45z"></path>
<path class="node" id="node17" d="M1795 1446 c-25 -43 -26 -46 -9 -71 l16 -25 43 37 c24 21 44 41 44
46 1 4 -12 7 -29 7 -29 0 -41 15 -18 22 13 5 2 28 -12 28 -5 0 -21 -20 -35
-44z"></path>
<path class="node" id="node18" d="M2041 1405 c-30 -34 -42 -85 -21 -85 6 0 10 7 10 15 0 8 5 15 11 15
6 0 9 7 5 15 -3 10 8 24 34 41 22 15 40 28 40 30 0 2 -11 4 -24 4 -15 0 -36
-13 -55 -35z"></path>
<path class="node" id="node19" d="M1590 1415 c-1 -5 -1 -34 0 -63 1 -51 -27 -145 -54 -181 -8 -10 -6
-12 8 -10 12 3 24 20 33 44 7 22 20 54 28 72 8 17 15 37 15 45 0 18 -28 105
-30 93z"></path>
<path class="node" id="node20" d="M1876 1376 c-14 -27 -16 -38 -7 -55 16 -28 21 -27 60 13 l34 35 -27
7 c-21 5 -24 9 -15 20 9 11 8 14 -8 14 -11 0 -26 -14 -37 -34z"></path>
<path class="node" id="node21" d="M1678 1394 c-5 -4 -8 -24 -8 -44 0 -21 -13 -62 -30 -96 -16 -32 -27
-60 -25 -63 6 -6 6 -6 44 61 26 46 32 67 29 104 -2 25 -6 42 -10 38z"></path>
<path class="node" id="node22" d="M1100 1371 c0 -7 11 -37 24 -69 13 -31 27 -82 31 -113 6 -50 -6 -173
-21 -212 -4 -11 1 -13 18 -10 22 4 23 10 27 91 9 173 7 196 -14 227 -11 17
-25 43 -31 59 -10 30 -34 48 -34 27z"></path>
<path stroke-width="20" class="node" id="node23" d="M1750 1325 c-7 -24 -28 -60 -46 -79 -19 -19 -34 -42 -34 -51 0 -8 -5
-15 -12 -15 -6 0 -26 -12 -45 -26 -21 -16 -42 -24 -54 -21 -14 4 -34 -10 -73
-49 -29 -30 -50 -54 -47 -54 16 -1 -27 -20 -44 -20 -11 0 -39 -18 -63 -39 -41
-37 -43 -42 -38 -83 2 -24 5 -46 5 -51 1 -4 4 -6 9 -5 4 1 20 -4 35 -10 46
-19 53 -15 72 48 23 75 40 79 31 8 l-7 -53 23 23 c24 21 44 30 34 14 -3 -5 8
-7 23 -4 32 4 56 25 106 93 18 25 47 52 64 59 17 7 37 24 44 39 11 24 18 26
110 34 113 10 166 4 173 -21 3 -9 10 -25 16 -36 7 -13 6 -21 -2 -26 -14 -9 12
-37 47 -51 13 -5 27 -19 32 -33 5 -13 26 -33 45 -46 20 -12 36 -27 36 -34 0
-7 16 -20 35 -29 20 -9 39 -27 44 -40 16 -40 41 -222 42 -298 1 -58 3 -67 9
-41 10 42 35 70 69 75 21 3 20 4 -4 2 -16 -1 -38 -5 -47 -10 -16 -6 -18 0 -18
57 0 159 -70 335 -125 315 -10 -5 -21 6 -35 35 -11 22 -17 45 -14 49 3 5 -1 9
-8 9 -9 0 -14 12 -14 35 0 23 -8 44 -26 62 -14 16 -28 36 -31 45 -3 9 -17 24
-31 33 -20 13 -29 14 -46 5 -25 -13 -60 -10 -204 16 -76 13 -102 15 -115 6 -9
-7 -29 -19 -46 -28 l-30 -16 30 26 c17 14 38 28 48 31 9 4 17 11 17 17 0 6 18
30 40 54 24 26 40 53 40 68 0 13 3 31 6 40 3 9 2 16 -4 16 -5 0 -15 -20 -22
-45z m-210 -409 c0 -5 -7 -3 -15 4 -8 7 -15 20 -15 28 0 13 3 12 15 -4 8 -10
15 -23 15 -28z m-208 -38 c-6 -6 -15 -8 -19 -4 -4 4 -1 11 7 16 19 12 27 3 12
-12z"></path>
<path class="node" id="node24" d="M2116 1335 c-31 -29 -34 -50 -5 -52 15 -1 19 3 17 19 -2 15 7 26 32
39 33 18 33 19 9 19 -14 0 -38 -11 -53 -25z"></path>
<path class="node" id="node25" d="M1954 1315 c-17 -33 -17 -36 -1 -52 16 -16 18 -15 47 12 28 27 29 30
12 40 -11 5 -17 16 -15 23 10 28 -25 9 -43 -23z"></path>
<path class="node" id="node26" d="M1821 1279 c-18 -22 -44 -42 -57 -45 -13 -3 -21 -10 -19 -15 9 -14
102 49 108 73 4 12 5 23 4 24 -1 1 -17 -16 -36 -37z"></path>
<path class="node" id="node27" d="M2032 1260 c-26 -34 -27 -40 -8 -66 14 -18 15 -18 45 10 37 35 38 42
9 51 -14 4 -18 8 -10 12 12 5 7 23 -7 23 -4 0 -17 -13 -29 -30z"></path>
<path class="node" id="node28" d="M2185 1245 c-24 -23 -33 -45 -17 -45 13 0 28 15 35 33 4 9 17 22 29
27 l23 9 -23 0 c-13 1 -34 -10 -47 -24z"></path>
<path class="node" id="node29" d="M1905 1240 c-10 -11 -36 -25 -57 -32 -21 -6 -38 -15 -38 -20 0 -11 3
-10 37 4 30 12 38 15 52 17 12 1 44 51 33 51 -5 0 -17 -9 -27 -20z"></path>
<path class="node" id="node30" d="M2645 1220 c-16 -4 -48 -8 -71 -9 -22 0 -44 -4 -48 -8 -4 -5 -22 -14
-39 -21 l-32 -12 30 5 c17 3 59 10 95 15 91 14 110 19 110 30 0 11 -2 11 -45
0z"></path>
<path class="node" id="node31" d="M2097 1185 c-31 -65 5 -87 57 -35 l29 30 -27 0 c-23 0 -26 3 -21 20
11 35 -20 23 -38 -15z"></path>
<path class="node" id="node32" d="M1715 1190 c-3 -5 1 -10 9 -10 9 0 16 5 16 10 0 6 -4 10 -9 10 -6 0
-13 -4 -16 -10z"></path>
<path class="node" id="node33" d="M1956 1171 c-15 -6 -16 -10 -7 -15 8 -5 20 -2 29 8 17 17 9 19 -22 7z"></path>
<path class="node" id="node34" d="M2515 1165 c-27 -8 -90 -34 -140 -59 -49 -25 -97 -47 -106 -49 -8 -3
-21 -23 -27 -45 -7 -22 -19 -45 -27 -52 -21 -17 -19 -25 14 -73 42 -61 87
-155 106 -219 21 -74 55 -124 81 -120 31 6 31 12 -2 40 -18 16 -38 48 -47 76
-26 77 -20 77 18 1 20 -38 44 -79 55 -89 19 -20 20 -20 45 4 14 13 25 29 25
35 0 6 -46 67 -102 136 -56 68 -91 117 -78 108 14 -9 45 -40 68 -70 24 -30 66
-78 94 -108 l50 -54 26 27 27 27 -45 42 c-25 23 -72 66 -105 95 l-60 54 50
-28 c59 -33 144 -94 164 -117 19 -23 33 -21 54 9 13 17 16 29 9 37 -6 7 -63
37 -126 66 -64 30 -114 57 -111 59 3 3 15 0 28 -6 12 -6 45 -18 72 -27 28 -9
78 -32 112 -50 l63 -35 15 37 c9 20 14 42 11 48 -2 7 -33 20 -68 30 -59 16
-141 53 -93 41 11 -3 49 -10 85 -16 36 -6 73 -13 83 -16 9 -3 17 -1 17 5 0 21
-125 74 -220 92 l-95 19 105 -6 c58 -2 128 -7 156 -10 48 -5 54 -3 83 25 17
17 36 31 41 31 6 0 10 5 10 10 0 6 -33 10 -77 11 -43 1 -116 4 -163 8 -90 8
-92 8 80 17 36 2 78 7 94 12 l29 8 -54 23 c-66 29 -157 35 -224 16z m82 -21
c-3 -3 -12 -4 -19 -1 -8 3 -5 6 6 6 11 1 17 -2 13 -5z m30 -100 c-3 -3 -12 -4
-19 -1 -8 3 -5 6 6 6 11 1 17 -2 13 -5z m-115 -107 c-12 -6 -27 -5 -38 1 -15
8 -11 10 20 9 32 -1 35 -3 18 -10z"></path>
<path class="node" id="node35" d="M2162 1122 c-30 -26 -45 -51 -20 -36 7 5 8 3 4 -5 -11 -18 1 -72 23
-101 l19 -24 19 34 c21 39 62 85 82 91 23 8 -4 46 -36 51 -16 3 -35 8 -43 11
-9 4 -29 -5 -48 -21z"></path>
<path class="node" id="node36" d="M2790 905 l25 -13 -35 -4 c-20 -2 -34 -8 -33 -15 2 -6 -4 -28 -12
-47 -8 -19 -15 -43 -14 -53 1 -16 2 -15 8 2 4 11 15 37 26 58 15 29 24 37 47
37 36 0 38 27 2 40 -36 14 -43 12 -14 -5z"></path>
<path class="node" id="node37" d="M1280 795 c0 -11 11 -15 38 -15 21 0 50 -9 67 -21 17 -11 44 -27 60
-35 l30 -16 -30 26 c-51 44 -90 66 -128 70 -28 4 -37 1 -37 -9z"></path>
</g>
<g transform="translate(0.000000,276.000000) scale(0.100000,-0.100000)" fill="#FFFFFF" stroke="none">





















</g>
</svg>