<!--?xml version="1.0" standalone="no"?-->

<svg version="1.0" xmlns="http://www.w3.org/2000/svg" width="300.000000pt" height="300.000000pt" viewBox="0 0 300.000000 300.000000" preserveAspectRatio="xMidYMid meet">
<g transform="translate(0.000000,300.000000) scale(0.100000,-0.100000)" fill="#1C1C1C" stroke="none">
<path class="node" id="node1" d="M931 2885 c-94 -60 -181 -64 -245 -14 -15 12 -29 19 -31 17 -10 -10
28 -136 55 -182 33 -59 93 -132 120 -146 14 -7 10 5 -15 46 -36 59 -61 122
-52 130 3 3 21 -19 41 -48 38 -56 91 -118 102 -118 4 0 1 6 -5 13 -16 20 -62
148 -58 161 2 6 20 -14 40 -44 20 -30 48 -68 62 -85 l26 -30 -16 40 c-54 130
-55 194 -2 98 14 -27 37 -61 50 -77 23 -29 25 -29 68 -18 24 6 70 16 103 23
l58 11 -5 34 c-3 19 0 58 8 87 7 28 12 53 11 55 -5 5 -41 -52 -52 -82 -6 -17
-16 -32 -23 -34 -10 -3 -12 7 -6 49 4 30 12 62 17 72 5 10 7 21 4 24 -7 7 -45
-57 -52 -87 -3 -14 -9 -38 -13 -55 l-8 -30 -13 30 c-6 17 -13 63 -14 103 -1
56 -4 69 -12 57 -16 -22 -26 -109 -18 -161 7 -51 -9 -59 -43 -21 -44 48 -55
109 -32 176 6 18 10 34 8 36 -3 2 -28 -12 -58 -30z"></path>
<path class="node" id="node2" d="M1655 2684 c-127 -31 -267 -102 -355 -180 -58 -53 -55 -63 20 -64 25
0 74 -7 110 -15 36 -8 140 -16 235 -18 152 -3 178 -7 245 -30 71 -25 76 -26
124 -12 27 8 65 15 83 15 58 0 36 16 -54 38 -122 31 -226 43 -382 42 -74 0
-132 3 -129 6 12 12 133 34 216 40 66 5 95 12 122 29 19 12 44 28 55 34 16 8
1 10 -67 11 -150 0 -285 -25 -408 -75 -77 -32 -100 -38 -100 -27 0 20 202 104
280 117 27 4 63 21 90 42 24 19 57 37 72 40 15 3 25 9 22 14 -8 13 -111 9
-179 -7z"></path>
<path class="node" id="node3" d="M1205 2623 c-256 -59 -405 -134 -582 -291 -40 -35 -73 -59 -73 -53 0
6 19 34 43 63 37 46 71 76 169 151 15 11 5 9 -28 -7 -28 -14 -96 -65 -151
-114 -94 -85 -162 -132 -190 -132 -36 0 -63 -156 -62 -353 2 -178 12 -175 40
16 25 160 47 217 83 217 14 0 26 -6 26 -12 0 -7 -18 -64 -40 -126 -47 -132
-56 -211 -11 -92 62 163 121 246 286 398 185 173 372 272 610 326 l60 14 -80
0 c-44 0 -89 -2 -100 -5z"></path>
<path class="node" id="node4" d="M1210 2546 c-107 -39 -278 -126 -340 -176 -20 -15 -3 -12 75 16 55
19 132 40 171 47 67 11 75 16 138 75 77 71 68 79 -44 38z"></path>
<path class="node" id="node5" d="M1218 2413 c-37 -4 -48 -15 -28 -28 12 -7 80 16 80 27 0 4 -3 7 -7 6
-5 -1 -25 -3 -45 -5z"></path>
<path class="node" id="node6" d="M1090 2390 c-33 -33 -24 -72 20 -95 28 -14 29 -14 60 25 l32 40 -26
0 c-18 0 -30 8 -38 25 -14 30 -22 31 -48 5z"></path>
<path class="node" id="node7" d="M1275 2381 c-41 -25 -76 -67 -99 -121 -10 -25 -29 -69 -42 -97 -13
-29 -18 -53 -13 -53 5 0 32 20 58 45 26 25 51 45 55 45 3 0 6 -18 6 -40 0 -22
4 -40 9 -40 18 0 107 77 132 116 38 55 54 111 39 129 -18 22 -54 18 -84 -10
-34 -31 -35 -53 -1 -31 51 34 63 -17 14 -58 -37 -31 -60 -33 -85 -5 -18 20
-18 21 4 62 12 24 35 50 50 60 23 14 24 16 7 17 -11 0 -34 -8 -50 -19z"></path>
<path class="node" id="node8" d="M1003 2378 c-57 -19 -55 -58 3 -58 27 0 34 4 34 19 0 11 3 26 6 35 7
18 2 18 -43 4z"></path>
<path class="node" id="node9" d="M1570 2372 c0 -4 20 -18 44 -31 59 -31 167 -143 198 -206 46 -92 61
-152 54 -219 -14 -132 -61 -213 -221 -376 -108 -110 -175 -197 -175 -228 0 -8
13 3 28 24 42 57 127 138 212 201 41 31 101 81 134 112 62 59 149 182 160 225
8 31 32 34 41 6 14 -43 27 -7 22 57 -5 70 -2 72 55 48 16 -6 17 -3 12 26 -5
28 -27 84 -52 132 -2 4 12 7 32 7 20 0 36 4 36 8 0 4 -19 26 -42 49 -99 94
-183 135 -328 159 -92 15 -210 19 -210 6z m282 -93 c58 -12 168 -64 168 -78 0
-21 -29 -16 -90 14 -36 18 -82 38 -102 44 -21 7 -38 17 -38 22 0 11 -2 11 62
-2z m131 -172 c37 -23 67 -45 67 -48 0 -4 -12 -9 -27 -12 -22 -4 -36 2 -65 28
-20 18 -48 41 -62 50 -14 10 -26 22 -26 27 0 15 40 -1 113 -45z m-33 -95 c27
-23 41 -43 36 -50 -15 -25 -42 -11 -68 38 -16 28 -24 50 -19 50 5 0 28 -17 51
-38z"></path>
<path class="node" id="node10" d="M1460 2345 c0 -16 6 -25 16 -25 32 0 140 -66 201 -123 90 -84 116
-134 123 -231 3 -45 10 -81 16 -83 32 -10 18 129 -20 212 -37 81 -162 204
-247 245 -78 36 -89 37 -89 5z"></path>
<path class="node" id="node11" d="M887 2338 c-35 -13 -25 -28 19 -28 27 0 34 4 34 20 0 22 -11 24 -53
8z"></path>
<path class="node" id="node12" d="M2066 2301 c59 -36 157 -172 134 -186 -5 -3 -21 -3 -36 1 -25 6 -27
5 -20 -17 24 -77 34 -179 18 -179 -4 0 -18 7 -30 16 -12 8 -22 14 -23 12 0 -2
-2 -16 -4 -33 -5 -35 -34 -115 -42 -115 -3 0 -12 8 -19 17 -7 10 -14 16 -17
13 -2 -3 -21 -32 -43 -65 -21 -33 -73 -94 -115 -136 -41 -43 -68 -74 -60 -71
32 11 158 101 234 166 86 74 133 132 174 218 15 32 31 58 35 58 12 0 20 -78
12 -127 -9 -65 -21 -93 -38 -93 -23 0 -29 -18 -12 -41 14 -20 13 -26 -9 -70
-17 -32 -32 -49 -47 -51 -20 -3 -23 -8 -20 -44 1 -32 -3 -47 -23 -68 -13 -14
-31 -26 -41 -26 -12 0 -15 -6 -10 -24 9 -36 -2 -55 -41 -71 -30 -13 -33 -17
-23 -36 9 -17 7 -30 -14 -72 -14 -29 -33 -74 -42 -102 -9 -27 -25 -60 -36 -71
-13 -14 -16 -24 -9 -29 6 -3 11 -24 11 -45 0 -29 -5 -42 -20 -50 -23 -13 -26
-33 -6 -49 8 -7 20 -44 27 -84 l14 -72 6 125 c9 187 44 285 184 515 138 228
188 342 205 473 14 110 -27 245 -102 336 -42 51 -114 96 -152 96 l-31 0 31
-19z"></path>
<path class="node" id="node13" d="M708 2238 c-66 -64 -157 -185 -191 -253 -13 -27 -40 -88 -58 -135
-23 -59 -45 -96 -73 -122 -21 -21 -37 -40 -35 -41 17 -11 80 -36 104 -41 l30
-6 0 87 c1 72 6 99 28 152 43 102 95 163 173 202 71 36 101 70 128 147 19 53
6 55 -18 2 -17 -38 -58 -80 -79 -80 -18 0 2 61 34 101 44 56 21 48 -43 -13z"></path>
<path class="node" id="node14" d="M909 2283 l-46 -4 -17 -54 c-9 -30 -33 -76 -53 -102 -26 -34 -32 -48
-22 -52 24 -8 68 -57 75 -85 17 -69 -26 -143 -101 -172 -42 -16 -45 -19 -45
-55 0 -21 5 -41 11 -44 5 -4 50 1 98 11 l88 18 0 50 c-1 37 7 65 26 101 29 55
51 85 61 85 11 0 6 -36 -9 -56 -39 -52 7 -33 66 28 24 25 39 35 39 25 0 -28
-65 -102 -110 -124 l-44 -23 32 0 c97 0 222 143 248 283 l6 38 -33 -31 c-49
-44 -179 -104 -179 -82 0 5 18 23 40 41 42 34 50 51 24 51 -8 0 -29 14 -46 30
-28 29 -30 34 -24 80 6 48 6 50 -16 48 -13 -1 -44 -3 -69 -5z m62 -204 c-27
-25 -46 -62 -61 -119 -7 -24 -19 -54 -27 -65 -15 -19 -15 -19 -10 5 4 14 11
59 17 100 12 79 24 120 49 159 l15 23 19 -41 20 -42 -22 -20z"></path>
<path class="node" id="node15" d="M1030 2265 c-17 -45 0 -83 42 -98 20 -7 42 20 53 63 5 23 1 27 -32
40 -21 8 -41 16 -45 18 -5 2 -12 -8 -18 -23z"></path>
<path class="node" id="node16" d="M1432 2266 c-18 -39 -16 -42 35 -71 85 -47 263 -113 263 -96 0 4 -24
30 -52 58 -65 62 -158 123 -202 130 -27 4 -34 1 -44 -21z"></path>
<path class="node" id="node17" d="M293 2201 c14 -37 5 -55 -62 -130 -67 -73 -74 -117 -28 -168 23 -26
73 -31 100 -10 26 19 6 43 -23 27 -55 -30 -103 29 -76 94 7 17 28 44 46 59 60
51 80 118 45 147 -11 10 -12 6 -2 -19z"></path>
<path class="node" id="node18" d="M1433 2159 c23 -30 66 -71 147 -138 15 -12 20 -20 11 -21 -24 0 -119
60 -176 112 -30 27 -55 47 -55 44 0 -23 103 -185 163 -259 22 -26 37 -51 34
-54 -17 -16 -168 149 -209 229 -22 42 -28 47 -28 28 0 -44 49 -209 80 -272 38
-77 34 -96 -9 -38 -52 71 -101 190 -114 280 -2 14 -7 -5 -11 -43 -12 -99 8
-216 59 -339 4 -11 3 -18 -4 -18 -14 0 -75 121 -91 179 -12 47 -15 149 -5 181
4 11 2 20 -4 20 -14 0 -41 -130 -41 -202 1 -82 13 -135 52 -214 32 -65 113
-174 136 -182 8 -2 12 8 12 30 0 124 87 204 165 152 35 -23 31 -6 -13 57 -50
72 -112 178 -112 191 0 6 37 -25 83 -68 75 -72 177 -144 206 -144 13 0 -56
134 -104 201 -19 27 -35 54 -35 59 0 12 17 13 24 1 7 -11 155 -45 163 -38 11
11 19 74 15 110 -5 41 -8 44 -92 68 -57 17 -138 51 -214 91 l-59 31 26 -34z"></path>
<path class="node" id="node19" d="M707 2026 c-4 -10 1 -16 16 -18 27 -4 29 -27 4 -42 -15 -9 -22 -6
-43 19 l-24 30 0 -27 c0 -30 31 -68 54 -68 27 0 47 13 61 39 11 22 11 32 2 52
-14 28 -61 38 -70 15z"></path>
<path class="node" id="node20" d="M580 1943 c-36 -61 -58 -126 -66 -192 -5 -43 -3 -61 5 -61 6 0 11 6
11 13 0 22 60 87 99 106 20 11 54 23 75 26 41 8 96 49 96 72 0 11 -6 10 -26
-6 -39 -31 -89 -28 -125 8 -16 16 -29 39 -29 50 0 32 -16 25 -40 -16z"></path>
<path class="node" id="node21" d="M2212 1881 c-35 -61 -26 -104 12 -65 13 13 24 104 13 104 -2 0 -13
-17 -25 -39z"></path>
<path class="node" id="node22" d="M1640 1875 c0 -2 18 -33 40 -67 22 -35 40 -68 40 -74 0 -6 6 -17 14
-23 11 -9 18 -6 35 18 12 16 28 48 36 70 l14 41 -27 5 c-15 3 -53 12 -84 20
-63 16 -68 17 -68 10z"></path>
<path class="node" id="node23" d="M2335 1784 c-8 -20 -15 -41 -15 -46 0 -19 -62 -151 -96 -204 -19 -30
-32 -54 -29 -54 3 0 25 18 48 39 l43 40 -4 -63 c-3 -42 2 -84 13 -122 l17 -59
18 62 c9 35 29 80 43 102 14 22 29 51 33 65 3 15 10 29 15 32 19 11 7 -55 -22
-125 -18 -42 -32 -97 -35 -130 l-4 -56 15 44 c8 25 33 81 56 125 44 86 62 167
52 229 -7 46 -55 114 -100 140 l-32 18 -16 -37z m45 -136 c0 -41 -48 -178 -62
-178 -15 0 -8 51 17 116 14 36 25 75 25 85 0 11 5 19 10 19 6 0 10 -19 10 -42z"></path>
<path class="node" id="node24" d="M2122 1760 c-39 -47 -36 -72 8 -95 37 -19 35 -19 54 10 15 23 15 28
1 55 -8 16 -15 38 -15 50 0 29 -11 25 -48 -20z"></path>
<path class="node" id="node25" d="M627 1775 c-16 -12 -17 -18 -8 -47 31 -92 85 -138 165 -138 59 0 111
28 175 94 82 87 176 69 202 -39 7 -29 7 -29 8 -4 1 34 -37 90 -73 107 -43 21
-88 7 -153 -47 -101 -84 -150 -98 -210 -61 -37 22 -52 46 -61 102 -8 46 -18
54 -45 33z"></path>
<path class="node" id="node26" d="M572 1718 c-6 -8 -15 -26 -21 -41 -9 -23 -8 -27 7 -27 10 0 26 6 36
13 17 12 17 16 4 41 -12 22 -16 25 -26 14z"></path>
<path class="node" id="node27" d="M2021 1660 c-18 -15 -30 -33 -27 -39 10 -15 67 -13 88 2 15 12 15 15
-5 40 l-22 26 -34 -29z"></path>
<path class="node" id="node28" d="M1642 1619 l-1 -42 30 29 c30 29 29 37 -7 48 -20 6 -22 3 -22 -35z"></path>
<path class="node" id="node29" d="M1917 1584 c-28 -19 -37 -32 -37 -54 0 -16 5 -32 11 -36 18 -11 67
-7 87 8 18 13 18 15 -3 60 l-22 47 -36 -25z"></path>
<path class="node" id="node30" d="M2077 1588 c-11 -5 -32 -8 -48 -6 -38 6 -38 -13 2 -46 53 -45 92 -28
73 34 -8 24 -12 27 -27 18z"></path>
<path class="node" id="node31" d="M1793 1524 c-24 -10 -33 -21 -33 -38 0 -47 66 -67 96 -30 8 10 8 23
0 49 -12 39 -16 40 -63 19z"></path>
<path class="node" id="node32" d="M1659 1465 c-49 -37 -108 -109 -151 -185 -25 -44 -63 -158 -55 -166
2 -2 21 31 43 73 27 55 62 102 117 158 74 75 107 120 107 145 0 16 -12 11 -61
-25z"></path>
<path class="node" id="node33" d="M2016 1481 c-3 -5 -22 -12 -41 -15 -40 -8 -38 -6 -25 -40 7 -18 17
-26 34 -26 45 0 56 10 56 51 0 36 -12 51 -24 30z"></path>
<path class="node" id="node34" d="M1725 1414 c-8 -45 -4 -49 25 -26 20 16 21 21 9 40 -19 30 -26 28
-34 -14z"></path>
<path class="node" id="node35" d="M1873 1428 c-35 -21 -41 -39 -20 -55 26 -21 47 -21 69 -3 18 15 21
21 11 31 -7 7 -13 21 -13 31 0 22 -6 22 -47 -4z"></path>
<path class="node" id="node36" d="M1794 1386 c-5 -6 -21 -18 -34 -27 l-24 -15 22 -22 c27 -27 43 -28
70 -4 l21 17 -22 31 c-16 23 -25 28 -33 20z"></path>
<path class="node" id="node37" d="M1609 1302 c-69 -86 -119 -199 -132 -302 l-6 -45 19 53 c32 88 81
180 120 225 20 23 40 51 43 62 3 11 8 30 12 43 10 36 -7 25 -56 -36z"></path>
<path class="node" id="node38" d="M1935 1338 c-32 -20 -34 -35 -8 -55 25 -20 38 -16 49 15 8 21 8 33 0
44 -10 13 -15 12 -41 -4z"></path>
<path class="node" id="node39" d="M1690 1314 c-23 -60 -4 -82 41 -46 22 19 22 19 3 45 -24 33 -32 33
-44 1z"></path>
<path class="node" id="node40" d="M1850 1295 c-7 -8 -21 -15 -31 -15 -24 0 -24 -22 -1 -43 25 -22 55
-21 76 2 17 19 17 21 -1 45 -21 30 -26 31 -43 11z"></path>
<path class="node" id="node41" d="M1738 1242 c-33 -20 -35 -33 -10 -55 23 -21 56 -22 71 -3 10 11 9 21
-4 45 -18 35 -20 35 -57 13z"></path>
<path class="node" id="node42" d="M1907 1214 c-24 -20 -27 -27 -17 -39 18 -22 29 -18 41 12 16 44 7 54
-24 27z"></path>
<path class="node" id="node43" d="M1665 1177 c-8 -43 -1 -56 22 -41 24 15 25 26 4 54 l-19 24 -7 -37z"></path>
<path class="node" id="node44" d="M1594 1159 c-46 -74 -116 -289 -93 -289 5 0 9 8 9 18 0 20 75 179 95
202 14 15 32 110 21 110 -3 0 -17 -19 -32 -41z"></path>
<path class="node" id="node45" d="M1807 1159 c-27 -20 -27 -22 -11 -40 21 -23 67 -25 89 -3 15 15 14
18 -6 40 -27 29 -36 29 -72 3z"></path>
<path class="node" id="node46" d="M1706 1116 c-32 -26 -29 -39 15 -61 26 -14 32 -14 59 0 l31 16 -37
34 c-20 19 -37 35 -38 35 -1 -1 -14 -11 -30 -24z"></path>
<path class="node" id="node47" d="M1822 1045 l-33 -24 25 -16 c17 -11 35 -15 52 -11 21 6 25 11 22 39
-4 40 -22 43 -66 12z"></path>
<path class="node" id="node48" d="M1660 1025 c0 -22 5 -35 13 -35 15 0 54 27 47 32 -3 2 -17 12 -32 21
l-28 17 0 -35z"></path>
<path class="node" id="node49" d="M1604 1019 c-20 -27 -48 -94 -66 -163 -26 -100 -22 -111 13 -33 17
37 39 83 50 102 22 37 25 122 3 94z"></path>
<path class="node" id="node50" d="M2263 997 c33 -12 76 -40 97 -61 58 -58 75 -99 74 -183 0 -65 -3 -76
-36 -126 -68 -102 -167 -123 -292 -61 -33 16 -81 49 -108 73 -75 67 -69 41 9
-36 128 -128 241 -162 361 -108 101 45 143 108 150 225 4 63 1 85 -18 128 -39
91 -135 158 -243 168 l-52 5 58 -24z"></path>
<path class="node" id="node51" d="M1735 990 c-10 -11 -24 -20 -32 -20 -26 0 -3 -19 31 -26 68 -12 100
18 51 50 -30 20 -28 20 -50 -4z"></path>
<path class="node" id="node52" d="M1982 932 c64 -116 184 -218 298 -253 21 -6 19 -7 -15 -8 -79 -2
-213 81 -282 173 -34 44 -28 16 6 -31 35 -48 123 -126 172 -152 53 -28 136
-53 166 -49 20 2 34 14 50 43 37 65 33 72 -48 77 -128 10 -248 84 -352 219
-12 15 -9 7 5 -19z"></path>
<path class="node" id="node53" d="M1665 941 c-5 -8 5 -51 12 -51 10 0 43 21 43 28 0 11 -49 31 -55 23z"></path>
<path class="node" id="node54" d="M1795 927 c-41 -15 -41 -15 -19 -32 25 -19 83 -19 90 0 6 15 -17 46
-33 44 -4 -1 -21 -6 -38 -12z"></path>
<path class="node" id="node55" d="M1701 873 l-24 -16 23 -19 c26 -21 40 -22 75 -6 32 14 32 19 -6 41
-38 21 -39 21 -68 0z"></path>
<path class="node" id="node56" d="M1588 808 c-84 -273 93 -581 385 -669 78 -23 229 -38 302 -30 47 6
43 7 -55 19 -171 20 -265 56 -373 140 -104 82 -199 232 -214 337 l-6 50 44
-45 c67 -69 131 -117 183 -141 26 -11 50 -19 52 -16 2 2 -21 21 -51 41 -59 41
-124 113 -174 191 -34 54 -51 104 -53 160 -2 54 -15 42 -40 -37z"></path>
<path class="node" id="node57" d="M1845 851 c-3 -6 3 -15 14 -20 27 -15 31 -14 31 9 0 21 -33 29 -45
11z"></path>
<path class="node" id="node58" d="M1793 808 c-29 -14 -29 -24 2 -44 23 -15 27 -15 50 0 14 9 25 20 25
25 0 6 -46 33 -53 30 -1 0 -12 -5 -24 -11z"></path>
<path class="node" id="node59" d="M1680 798 c0 -20 20 -37 36 -31 16 6 19 33 5 33 -5 0 -16 3 -25 6
-10 4 -16 1 -16 -8z"></path>
<path class="node" id="node60" d="M1963 777 c4 -10 2 -27 -3 -37 -8 -15 -2 -25 38 -60 26 -22 79 -57
118 -76 59 -30 79 -35 125 -32 l54 3 -56 17 c-85 27 -148 66 -218 138 -36 36
-62 57 -58 47z"></path>
<path class="node" id="node61" d="M1873 753 c-15 -16 -18 -23 -8 -23 24 0 45 12 45 25 0 23 -14 22 -37
-2z"></path>
<path class="node" id="node62" d="M1730 750 c-13 -9 -13 -11 0 -20 8 -5 31 -10 50 -10 l35 0 -33 20
c-38 23 -33 22 -52 10z"></path>
<path class="node" id="node63" d="M1863 693 c-13 -3 -23 -10 -23 -17 0 -13 71 -85 142 -143 26 -21 79
-67 119 -103 101 -91 69 -41 -64 98 -62 65 -121 129 -132 143 -14 17 -27 24
-42 22z"></path>
<path class="node" id="node64" d="M1761 639 c25 -30 100 -94 165 -144 65 -49 138 -109 162 -132 23 -23
42 -38 42 -32 0 10 -145 158 -272 276 -49 45 -89 74 -110 78 l-33 8 46 -54z"></path>
<path class="node" id="node65" d="M1681 545 c51 -123 169 -252 289 -315 94 -48 123 -53 54 -8 -27 18
-72 54 -100 81 -28 26 -60 54 -70 62 -34 25 -5 29 76 10 44 -10 82 -16 85 -13
3 3 -23 15 -57 28 -82 29 -180 82 -236 128 -25 20 -43 32 -41 27z"></path>
<path class="node" id="node66" d="M1960 325 c0 -12 114 -88 186 -124 92 -46 136 -56 59 -13 -69 38
-135 85 -164 116 -15 16 -35 26 -53 26 -15 0 -28 -2 -28 -5z"></path>

</g>
<g transform="translate(0.000000,300.000000) scale(0.100000,-0.100000)" fill="#A0A0A0" stroke="none">






</g>
</svg>