<!--?xml version="1.0" standalone="no"?-->

<svg version="1.0" xmlns="http://www.w3.org/2000/svg" width="225.000000pt" height="300.000000pt" viewBox="0 0 225.000000 300.000000" preserveAspectRatio="xMidYMid meet">
<g transform="translate(0.000000,300.000000) scale(0.100000,-0.100000)" fill="#4F52F7" stroke="none">
<path d="M1456 2970 c-19 -17 -58 -38 -88 -46 -41 -12 -66 -29 -108 -72 -101
-103 -118 -166 -115 -412 3 -155 23 -285 61 -393 21 -58 83 -326 90 -390 8
-66 -17 -167 -53 -220 -60 -87 -196 -159 -407 -217 -55 -15 -137 -37 -181 -49
-44 -12 -122 -41 -172 -63 -76 -33 -102 -50 -144 -96 -82 -90 -109 -145 -109
-224 0 -53 3 -68 14 -68 8 0 18 5 22 11 5 8 8 8 14 0 5 -9 14 -9 34 -1 47 18
86 11 144 -24 68 -41 136 -64 215 -72 69 -7 67 -13 -23 -70 -59 -38 -71 -59
-48 -82 14 -14 120 -15 193 -2 87 16 218 31 223 25 3 -3 -2 -19 -12 -36 -17
-29 -17 -32 3 -79 28 -66 39 -140 20 -141 -88 -7 -103 -19 -25 -19 l58 0 -4
-37 -3 -38 54 -3 c30 -2 58 1 62 5 5 5 -5 65 -22 133 -26 110 -29 130 -19 166
l12 42 64 7 c120 13 184 -11 184 -67 0 -52 -51 -136 -92 -151 -18 -6 3 -41 28
-45 10 -2 29 -8 42 -14 18 -9 30 -8 57 5 20 9 41 17 48 17 20 0 74 61 92 104
24 57 13 96 -46 160 -61 67 -96 80 -216 81 -51 0 -93 1 -93 1 0 1 6 14 14 29
10 20 31 33 79 50 212 74 373 301 354 498 -4 34 -18 97 -32 140 -30 94 -31
113 -4 120 19 5 19 7 6 34 -8 15 -17 60 -21 98 -7 81 -16 112 -90 330 -76 223
-100 365 -89 507 l6 67 60 18 c50 15 73 17 133 9 47 -6 98 -5 146 1 66 10 75
9 93 -8 17 -16 20 -32 19 -89 -1 -39 1 -70 5 -70 19 0 74 45 97 80 22 33 28
56 32 118 6 105 -10 157 -62 208 -42 39 -127 74 -184 74 -22 0 -48 35 -44 58
5 23 -19 82 -37 92 -10 5 -27 7 -38 4 -11 -3 -35 4 -54 15 -50 31 -101 27
-143 -9z m147 -28 c9 -9 19 -30 23 -47 l7 -30 -25 35 c-46 67 -143 47 -180
-36 -16 -38 -18 -51 -8 -77 7 -21 7 -33 0 -35 -5 -2 -20 -13 -32 -24 l-23 -20
25 7 c66 18 134 18 166 0 35 -18 44 -39 44 -97 0 -30 -6 -41 -32 -61 -56 -42
-101 -60 -147 -60 -38 0 -49 4 -73 33 -15 19 -31 31 -34 27 -12 -11 27 -59 57
-70 16 -6 29 -14 29 -17 0 -3 2 -72 4 -155 3 -116 8 -167 25 -225 12 -41 24
-91 27 -110 3 -19 16 -58 29 -86 39 -85 103 -306 108 -374 l6 -65 -27 33 c-29
35 -42 34 -42 -5 0 -20 -4 -23 -20 -18 -27 9 -26 -11 2 -26 17 -9 24 -9 33 5
16 22 25 20 25 -4 0 -11 16 -82 36 -159 l36 -139 -16 -64 c-34 -132 -122 -261
-223 -326 -57 -37 -165 -76 -247 -91 -81 -15 -81 -15 -42 20 19 16 38 38 41
48 3 11 36 34 73 52 76 38 169 125 196 182 20 43 35 136 36 213 0 78 -36 182
-56 162 -2 -3 3 -22 12 -44 24 -57 24 -192 -1 -274 -15 -53 -29 -75 -74 -121
-61 -60 -149 -108 -241 -130 -119 -28 -290 -9 -399 44 -37 18 -51 33 -73 77
-14 30 -25 57 -23 59 2 2 15 -10 29 -25 20 -23 25 -25 26 -11 0 9 6 17 14 17
7 0 16 10 20 22 5 22 6 22 20 3 13 -17 15 -17 16 -4 0 9 -9 27 -19 40 -18 22
-20 22 -26 6 -5 -12 -14 -16 -26 -12 -14 5 -19 1 -20 -12 0 -15 -2 -14 -11 5
-28 57 -56 -4 -32 -70 31 -88 91 -133 216 -163 71 -17 236 -20 286 -6 41 12
41 3 0 -36 -40 -37 -80 -58 -130 -67 -30 -6 -38 -4 -38 8 0 9 -6 13 -14 10 -8
-3 -16 4 -20 18 -7 22 -8 22 -15 4 -7 -18 -8 -18 -14 -3 -3 9 -13 17 -22 17
-8 0 -15 7 -15 15 0 24 -14 18 -40 -17 l-23 -31 -28 31 c-31 35 -45 41 -35 16
4 -12 1 -14 -14 -9 -23 7 -26 -4 -7 -24 10 -11 2 -13 -44 -8 -41 4 -84 19
-155 55 -73 37 -106 49 -126 45 -21 -4 -28 -1 -28 11 0 22 -22 20 -55 -6 l-28
-22 6 51 c7 60 24 97 80 170 71 95 152 133 471 218 54 14 106 30 115 35 9 5
41 17 71 26 129 40 237 115 285 198 30 53 49 171 40 250 -8 76 -44 247 -55
261 -12 15 -88 323 -94 380 -3 28 -2 115 3 195 7 130 11 151 35 200 33 65 96
134 148 161 45 23 48 23 48 4 0 -25 17 -17 39 18 40 66 119 79 164 29z m95
-41 l3 -33 -30 21 c-40 28 -41 54 -3 49 23 -2 28 -8 30 -37z m-109 -12 c17
-30 9 -88 -17 -117 -14 -15 -27 -18 -70 -14 -45 3 -53 7 -58 28 -9 36 4 73 36
106 38 37 87 36 109 -3z m76 -28 c3 -5 1 -12 -5 -16 -5 -3 -10 1 -10 9 0 18 6
21 15 7z m223 -108 c33 -15 61 -38 73 -57 19 -31 25 -98 12 -132 -6 -16 -7
-16 -14 2 -6 14 -8 8 -9 -21 l-1 -40 -13 30 c-8 19 -15 25 -20 17 -4 -7 -4
-16 -1 -22 3 -5 2 -10 -4 -10 -5 0 -12 6 -15 13 -4 6 -4 -4 -1 -23 l5 -35 -19
31 c-29 47 -81 82 -131 89 -75 10 -85 13 -108 35 -39 37 -22 83 51 137 28 21
39 24 87 18 30 -3 79 -18 108 -32z m-161 -185 c37 -5 77 -15 88 -21 18 -10 15
-12 -25 -18 -62 -10 -188 -11 -194 -1 -2 4 5 22 16 40 15 25 23 30 33 22 7 -6
44 -16 82 -22z m-860 -1927 c11 -17 9 -23 -13 -40 -13 -10 -42 -22 -64 -26
-69 -12 -47 -28 28 -21 149 14 215 17 392 19 174 2 188 1 226 -20 48 -26 101
-83 110 -118 9 -35 -3 -85 -26 -115 -24 -30 -25 -24 -5 23 17 40 20 93 6 101
-5 3 -11 -13 -15 -35 -12 -78 -71 -159 -114 -159 -11 0 -7 10 15 32 53 55 91
166 63 183 -6 4 -10 -6 -10 -22 -1 -69 -78 -173 -128 -173 l-27 1 28 20 c32
25 72 91 82 137 9 44 -14 78 -62 91 -60 17 -332 12 -531 -9 -100 -11 -189 -17
-197 -14 -23 9 -18 20 14 34 16 6 60 38 98 70 73 63 109 74 130 41z m343 -1
c0 -25 -45 -50 -93 -50 -44 0 -47 1 -33 16 9 8 38 21 64 29 62 17 62 17 62 5z
m-256 -39 c5 -8 -38 -21 -71 -21 -13 0 -13 3 -3 15 13 16 65 21 74 6z m150
-128 c-12 -59 -6 -118 23 -205 26 -79 26 -81 7 -95 -36 -26 -49 -13 -56 63 -4
39 -19 102 -33 139 -24 64 -24 68 -8 96 15 24 27 31 67 38 4 0 5 -16 0 -36z" id="node1" class="node"></path>
<path d="M1475 2854 c-25 -25 -15 -58 17 -62 22 -3 29 2 34 22 6 25 -9 56 -27
56 -4 0 -15 -7 -24 -16z" id="node2" class="node"></path>
<path d="M1208 333 c6 -2 18 -2 25 0 6 3 1 5 -13 5 -14 0 -19 -2 -12 -5z" id="node3" class="node"></path>

<path d="M848 293 c7 -3 16 -2 19 1 4 3 -2 6 -13 5 -11 0 -14 -3 -6 -6z" id="node5" class="node"></path>

<path d="M768 283 c6 -2 18 -2 25 0 6 3 1 5 -13 5 -14 0 -19 -2 -12 -5z" id="node7" class="node"></path>


<path d="M898 223 c6 -2 18 -2 25 0 6 3 1 5 -13 5 -14 0 -19 -2 -12 -5z" id="node10" class="node"></path>
<path d="M1649 207 c19 -7 41 -23 48 -34 13 -19 10 -24 -28 -57 -24 -20 -58
-41 -76 -48 -18 -7 -33 -16 -33 -20 0 -11 1 -11 56 13 124 54 138 132 29 153
-28 6 -28 5 4 -7z" id="node11" class="node"></path>
<path d="M1240 191 c0 -5 10 -11 22 -13 32 -5 33 -25 1 -36 -19 -7 -22 -11
-10 -11 22 -1 57 16 57 29 0 5 -7 16 -16 24 -17 17 -54 22 -54 7z" id="node12" class="node"></path>
<path d="M1410 191 c0 -5 9 -13 20 -16 11 -3 25 -15 31 -26 9 -18 6 -22 -20
-32 -31 -12 -42 -27 -18 -27 20 0 57 30 57 46 0 8 -11 26 -25 39 -25 26 -45
32 -45 16z" id="node13" class="node"></path>
<path d="M610 156 c-9 -12 -4 -18 31 -35 48 -24 59 -25 59 -11 0 6 -6 10 -14
10 -8 0 -27 5 -41 10 -23 9 -25 13 -15 25 7 9 8 15 2 15 -5 0 -15 -6 -22 -14z" id="node14" class="node"></path>
<path d="M945 161 c-7 -12 27 -31 52 -30 12 0 9 4 -10 11 -15 5 -25 14 -21 19
3 5 1 9 -5 9 -5 0 -12 -4 -16 -9z" id="node15" class="node"></path>
<path d="M1043 123 c9 -2 23 -2 30 0 6 3 -1 5 -18 5 -16 0 -22 -2 -12 -5z" id="node16" class="node"></path>
<path d="M444 92 c14 -17 83 -45 111 -47 6 0 15 -4 22 -8 7 -4 42 -10 79 -14
50 -5 65 -3 60 5 -4 7 -24 12 -45 12 -51 0 -190 36 -211 55 -24 21 -36 19 -16
-3z" id="node17" class="node"></path>
<path d="M718 93 c7 -3 16 -2 19 1 4 3 -2 6 -13 5 -11 0 -14 -3 -6 -6z" id="node18" class="node"></path>
<path d="M1368 83 c7 -3 16 -2 19 1 4 3 -2 6 -13 5 -11 0 -14 -3 -6 -6z" id="node19" class="node"></path>
<path d="M1520 40 c0 -5 7 -10 15 -10 8 0 15 5 15 10 0 6 -7 10 -15 10 -8 0
-15 -4 -15 -10z" id="node20" class="node"></path>
<path d="M790 21 c-49 -7 214 -22 345 -20 l70 2 -65 7 c-104 12 -301 19 -350
11z" id="node21" class="node"></path>
<path d="M1468 23 c7 -3 16 -2 19 1 4 3 -2 6 -13 5 -11 0 -14 -3 -6 -6z" id="node22" class="node"></path>
</g>
<g transform="translate(0.000000,300.000000) scale(0.100000,-0.100000)" fill="#E2CE9F" stroke="none">

<path d="M1520 2973 c-37 -11 -62 -29 -81 -60 -22 -35 -39 -43 -39 -18 0 19
-3 19 -48 -4 -52 -27 -115 -96 -148 -161 -24 -49 -28 -70 -35 -200 -5 -80 -6
-167 -3 -195 6 -57 82 -365 94 -380 11 -14 47 -185 55 -261 9 -79 -10 -197
-40 -250 -48 -83 -156 -158 -285 -198 -30 -9 -62 -21 -71 -26 -9 -5 -61 -21
-115 -35 -319 -85 -400 -123 -471 -218 -56 -73 -73 -110 -80 -170 l-6 -51 28
22 c33 26 55 28 55 6 0 -12 7 -15 28 -11 20 4 53 -8 126 -45 71 -36 114 -51
155 -55 46 -5 54 -3 44 8 -19 20 -16 31 7 24 15 -5 18 -3 14 9 -10 25 4 19 35
-16 l28 -31 23 31 c26 35 40 41 40 17 0 -8 7 -15 15 -15 9 0 19 -8 22 -17 6
-15 7 -15 14 3 7 18 8 18 15 -4 4 -14 12 -21 20 -18 8 3 14 -1 14 -10 0 -12 8
-14 38 -8 50 9 90 30 130 67 41 39 41 48 0 36 -50 -14 -215 -11 -286 6 -125
30 -185 75 -216 163 -24 66 4 127 32 70 9 -19 11 -20 11 -5 1 13 6 17 20 12
12 -4 21 0 26 12 6 16 8 16 26 -6 10 -13 19 -31 19 -40 -1 -13 -3 -13 -16 4
-14 19 -15 19 -20 -3 -4 -12 -13 -22 -20 -22 -8 0 -14 -8 -14 -17 -1 -14 -6
-12 -26 11 -14 15 -27 27 -29 25 -2 -2 9 -29 23 -59 22 -44 36 -59 73 -77 109
-53 280 -72 399 -44 92 22 180 70 241 130 45 46 59 68 74 121 25 82 25 217 1
274 -9 22 -14 41 -12 44 20 20 56 -84 56 -162 -1 -77 -16 -170 -36 -213 -27
-57 -120 -144 -196 -182 -37 -18 -70 -41 -73 -52 -3 -10 -22 -32 -41 -48 -39
-35 -39 -35 42 -20 82 15 190 54 247 91 101 65 189 194 223 326 l16 64 -36
139 c-20 77 -36 148 -36 159 0 24 -9 26 -25 4 -9 -14 -16 -14 -33 -5 -28 15
-29 35 -2 26 16 -5 20 -2 20 18 0 39 13 40 42 5 l27 -33 -6 65 c-5 68 -69 289
-108 374 -13 28 -26 67 -29 86 -3 19 -15 69 -27 110 -17 58 -22 109 -25 225
-2 83 -4 152 -4 155 0 3 -13 11 -29 17 -30 11 -69 59 -57 70 3 4 19 -8 34 -27
24 -29 35 -33 73 -33 46 0 91 18 147 60 26 20 32 31 32 61 0 58 -9 79 -44 97
-32 18 -100 18 -166 0 l-25 -7 23 20 c12 11 27 22 32 24 7 2 7 14 0 35 -10 26
-8 39 8 77 37 83 134 103 180 36 l25 -35 -7 30 c-4 17 -14 38 -23 47 -18 20
-62 37 -83 31z" id="node24" class="node"></path>
<path d="M1640 2926 c0 -8 14 -24 31 -37 l30 -21 -3 33 c-2 29 -7 35 -30 37
-20 2 -28 -1 -28 -12z" id="node25" class="node"></path>
<path d="M1480 2892 c-32 -33 -45 -70 -36 -106 5 -21 13 -25 58 -28 62 -6 83
10 94 70 16 82 -57 122 -116 64z m40 -37 c7 -9 10 -25 6 -41 -5 -20 -12 -25
-34 -22 -32 4 -42 37 -17 62 20 20 29 20 45 1z" id="node26" class="node"></path>
<path d="M1650 2854 c0 -8 5 -12 10 -9 6 4 8 11 5 16 -9 14 -15 11 -15 -7z" id="node27" class="node"></path>
<path d="M1693 2767 c-73 -54 -90 -100 -51 -137 23 -22 33 -25 108 -35 50 -7
102 -42 131 -89 l19 -31 -5 35 c-3 19 -3 29 1 23 3 -7 10 -13 15 -13 6 0 7 5
4 10 -3 6 -3 15 1 22 5 8 12 2 20 -17 l13 -30 1 40 c1 29 3 35 9 21 7 -18 8
-18 14 -2 13 34 7 101 -12 132 -24 40 -108 81 -181 89 -48 6 -59 3 -87 -18z" id="node28" class="node"></path>
<path d="M1612 2568 c-11 -18 -18 -36 -16 -40 6 -10 132 -9 194 1 40 6 43 8
25 18 -11 6 -51 16 -88 21 -38 6 -75 16 -82 22 -10 8 -18 3 -33 -22z" id="node29" class="node"></path>
<path d="M737 600 c-38 -32 -82 -64 -98 -70 -32 -14 -37 -25 -14 -34 8 -3 97
3 197 14 199 21 471 26 531 9 48 -13 71 -47 62 -91 -10 -46 -50 -112 -82 -137
l-28 -20 27 -1 c50 0 127 104 128 173 0 16 4 26 10 22 28 -17 -10 -128 -63
-183 -22 -22 -26 -32 -15 -32 43 0 102 81 114 159 4 22 10 38 15 35 14 -8 11
-61 -6 -101 -20 -47 -19 -53 5 -23 23 30 35 80 26 115 -9 35 -62 92 -110 118
-38 21 -52 22 -226 20 -177 -2 -243 -5 -392 -19 -75 -7 -97 9 -28 21 22 4 51
16 64 26 22 17 24 23 13 40 -21 33 -57 22 -130 -41z" id="node30" class="node"></path>
<path d="M1148 635 c-26 -8 -55 -21 -64 -29 -14 -15 -11 -16 33 -16 48 0 93
25 93 50 0 12 0 12 -62 -5z" id="node31" class="node"></path>
<path d="M880 595 c-10 -12 -10 -15 3 -15 33 0 76 13 71 21 -9 15 -61 10 -74
-6z" id="node32" class="node"></path>
<path d="M1074 503 c-11 -2 -28 -17 -37 -32 -16 -28 -16 -32 8 -96 14 -37 29
-100 33 -139 7 -76 20 -89 56 -63 19 14 19 16 -7 95 -29 87 -35 146 -23 205 5
20 4 36 0 36 -5 -1 -18 -4 -30 -6z" id="node33" class="node"></path>
</g>
</svg>