<!--?xml version="1.0" standalone="no"?-->

<svg version="1.0" xmlns="http://www.w3.org/2000/svg" width="300.000000pt" height="246.000000pt" viewBox="0 0 300.000000 246.000000" preserveAspectRatio="xMidYMid meet">
<g transform="translate(0.000000,246.000000) scale(0.100000,-0.100000)" fill="#141414" stroke="none">
<path class="node" id="node1" d="M815 2113 c6 -115 49 -263 113 -388 12 -23 -1 -15 -56 37 -66 62
-167 137 -202 150 -8 3 14 -25 50 -62 36 -37 83 -93 105 -126 22 -32 70 -102
107 -155 38 -54 68 -100 68 -104 0 -4 -21 12 -47 37 -87 80 -221 158 -298 173
-25 4 -23 2 12 -14 93 -43 197 -137 356 -322 91 -105 115 -122 252 -178 232
-96 355 -242 355 -423 0 -47 -20 -118 -33 -118 -1 0 -2 42 -2 92 0 81 -4 101
-29 156 -30 65 -56 88 -30 27 31 -74 11 -88 -26 -18 -36 68 -154 183 -220 215
-30 15 -83 43 -117 62 -35 20 -63 34 -63 31 0 -3 37 -29 83 -59 84 -54 147
-115 147 -141 0 -10 -17 -4 -57 22 -85 53 -136 96 -248 208 -92 92 -269 226
-298 225 -7 -1 6 -10 28 -22 54 -28 184 -164 218 -228 16 -28 25 -50 20 -48
-49 25 -93 41 -122 45 -34 4 -33 3 20 -24 30 -15 80 -49 110 -74 30 -26 73
-56 96 -68 59 -29 61 -40 6 -30 -53 10 -193 57 -208 70 -24 19 -199 79 -228
78 l-32 -1 38 -9 c50 -12 122 -49 201 -104 81 -57 157 -89 274 -114 50 -11
112 -31 139 -44 45 -23 140 -113 130 -123 -7 -7 -85 24 -163 65 -41 21 -74 35
-74 30 0 -12 74 -65 130 -94 40 -20 103 -75 87 -75 -3 0 -36 7 -74 16 -79 18
-162 55 -253 113 -147 93 -291 158 -370 167 -42 4 -39 3 33 -25 89 -34 166
-77 252 -138 190 -138 262 -173 350 -173 47 0 177 -17 205 -26 13 -5 12 -7 -3
-18 -15 -12 -10 -15 40 -25 32 -6 81 -22 108 -34 l50 -24 3 148 c3 144 2 150
-27 222 -16 42 -34 101 -40 133 -14 72 -14 215 -1 283 14 76 63 191 118 279
83 132 101 167 127 257 30 105 32 125 4 65 -21 -48 -109 -180 -118 -180 -3 0
-7 24 -8 53 -3 58 -21 147 -31 147 -4 0 -7 -55 -7 -123 -1 -99 -5 -134 -23
-187 -65 -191 -102 -229 -67 -70 8 36 14 85 13 110 0 25 -2 34 -4 20 -23 -157
-36 -193 -50 -132 -13 62 -27 93 -64 150 -50 79 -62 84 -29 14 40 -84 59 -147
65 -216 l5 -61 -20 40 c-11 22 -20 46 -21 54 0 22 -124 137 -161 150 -33 11
-33 11 11 -26 114 -97 147 -157 166 -311 8 -59 17 -120 20 -137 l6 -30 -24 34
c-61 87 -125 155 -190 201 -39 27 -75 50 -79 50 -4 0 22 -28 58 -62 190 -182
346 -500 315 -643 -8 -39 -8 -38 -15 33 -9 87 -55 227 -99 294 -17 27 -83 95
-147 151 -190 167 -260 242 -371 401 -104 150 -190 344 -240 541 -8 34 -9 27
-5 -42z"></path>
<path class="node" id="node2" d="M2462 2074 c-66 -67 -269 -204 -301 -204 -6 0 -2 22 9 50 13 33 20
72 19 113 -1 34 -4 53 -6 43 -8 -32 -75 -148 -117 -205 -108 -143 -296 -429
-296 -448 0 -5 13 6 28 23 15 17 53 52 84 79 33 27 72 71 90 103 44 78 91 126
157 164 128 73 224 141 299 212 41 39 88 103 81 110 -2 2 -23 -16 -47 -40z"></path>
<path class="node" id="node3" d="M2639 1975 c-51 -82 -163 -154 -311 -200 -83 -25 -100 -21 -43 9 38
21 155 138 155 155 0 6 -27 -11 -60 -37 -33 -27 -97 -70 -143 -95 -169 -94
-188 -109 -233 -178 -23 -37 -80 -104 -126 -150 -135 -134 -174 -225 -166
-388 3 -68 11 -110 26 -143 23 -54 39 -66 18 -15 -33 78 -31 197 3 238 17 21
17 21 14 -17 -3 -37 -2 -36 15 16 41 123 145 259 268 350 39 29 133 86 209
127 213 115 321 204 378 311 35 65 32 76 -4 17z"></path>
<path class="node" id="node4" d="M1842 1162 c-21 -95 -29 -89 116 -94 70 -3 136 -9 147 -12 12 -5 10
-2 -5 7 -14 8 -58 22 -98 31 -87 19 -129 45 -140 89 -9 32 -9 32 -20 -21z"></path>
<path class="node" id="node5" d="M2060 1184 c0 -7 163 -125 215 -155 28 -16 61 -38 75 -50 l25 -21
-25 6 c-209 52 -394 75 -454 58 -28 -8 -26 -9 35 -24 35 -9 112 -26 170 -37
199 -38 223 -70 39 -51 -111 11 -206 38 -302 86 -26 13 -52 24 -57 24 -5 0 1
-19 14 -43 36 -64 41 -137 16 -234 -29 -112 -35 -180 -22 -230 16 -59 29 -61
23 -4 -11 117 104 221 294 267 73 18 297 25 346 11 l27 -7 -17 31 c-17 30 -17
31 8 51 l25 22 -61 58 c-51 49 -374 258 -374 242z"></path>
<path class="node" id="node6" d="M2285 1150 c15 -54 45 -88 155 -177 130 -105 210 -184 210 -207 0 -9
-11 -21 -25 -28 -35 -16 -21 -28 31 -28 111 0 51 85 -205 295 -72 58 -131 109
-131 113 0 4 -10 18 -21 32 l-20 25 6 -25z"></path>
<path class="node" id="node7" d="M2510 822 c0 -11 45 -32 68 -32 14 0 14 2 2 14 -18 16 -70 30 -70 18z"></path>
<path class="node" id="node8" d="M2137 740 c-65 -12 -177 -55 -217 -85 -41 -30 -36 -31 24 -5 78 35
189 51 351 51 83 0 181 -5 220 -10 38 -6 71 -8 74 -6 2 3 -23 17 -55 32 -55
25 -69 28 -204 30 -80 1 -166 -2 -193 -7z"></path>
<path class="node" id="node9" d="M2731 715 c2 -11 0 -26 -4 -32 -10 -15 -51 -17 -77 -3 -15 8 -17 6
-13 -10 4 -16 0 -20 -23 -21 -27 -2 -27 -2 -4 -6 86 -14 149 -53 170 -102 7
-17 16 -31 21 -31 18 0 8 52 -23 128 -33 80 -52 112 -47 77z"></path>
<path class="node" id="node10" d="M620 685 c0 -11 142 -45 214 -51 l78 -7 -38 -13 c-22 -7 -59 -18 -84
-24 -56 -15 -135 -54 -231 -116 -90 -58 -217 -124 -237 -124 -9 0 -13 -3 -9
-6 3 -4 109 29 234 72 l228 79 137 0 c92 0 141 -4 149 -12 9 -9 3 -13 -27 -18
-74 -12 -209 -57 -286 -96 -43 -22 -78 -41 -78 -44 0 -6 40 9 82 31 75 39 100
40 819 48 127 1 134 2 94 13 -23 7 -49 20 -56 29 -13 16 -11 17 21 11 19 -3
53 -9 75 -12 l40 -6 -29 17 c-21 11 -25 18 -16 24 34 21 -131 60 -258 61 -79
0 -90 3 -327 89 -82 30 -102 33 -230 36 -77 3 -164 9 -194 14 -62 11 -71 12
-71 5z"></path>
<path class="node" id="node11" d="M2023 620 c-74 -15 -143 -51 -159 -83 -39 -74 29 -138 163 -153 56
-6 123 -36 123 -55 0 -5 5 -9 11 -9 7 0 5 10 -6 26 -9 14 -14 28 -12 31 14 14
75 -14 117 -53 43 -40 47 -42 42 -19 -3 16 0 25 9 25 8 0 5 6 -7 15 -19 14
-19 14 1 15 74 0 193 -59 220 -109 l14 -26 1 30 1 30 26 -30 c25 -28 25 -28
18 -5 -4 14 -16 40 -27 58 -19 32 -19 32 0 32 11 0 31 -9 45 -20 35 -28 45
-25 17 5 -36 38 -134 64 -288 75 -185 14 -259 27 -312 53 -38 18 -46 27 -48
54 -3 28 2 35 39 60 23 15 71 35 108 45 l66 17 -60 -1 c-33 0 -79 -4 -102 -8z"></path>
</g>
<g transform="translate(0.000000,246.000000) scale(0.100000,-0.100000)" fill="#A1A1A1" stroke="none">

</g>
</svg>