<!--?xml version="1.0" standalone="no"?-->

<svg version="1.0" xmlns="http://www.w3.org/2000/svg" width="224.000000pt" height="300.000000pt" viewBox="0 0 224.000000 300.000000" preserveAspectRatio="xMidYMid meet">
<g transform="translate(0.000000,300.000000) scale(0.100000,-0.100000)" fill="#171717" stroke="none">
<path class="node" id="node1" d="M1933 2930 c-6 -30 -24 -82 -39 -114 l-27 -59 -65 72 c-57 64 -138
131 -157 131 -4 0 7 -16 24 -35 40 -46 77 -120 96 -192 15 -57 22 -293 8 -293
-3 0 -21 18 -40 40 -19 22 -40 40 -46 40 -7 0 -23 -37 -37 -82 -71 -239 -187
-365 -292 -317 -33 14 -69 71 -75 117 -11 85 52 209 139 272 40 29 40 30 14
30 -35 0 -87 -22 -130 -55 -32 -24 -39 -26 -108 -19 -74 6 -75 6 -111 -26 -23
-19 -44 -51 -54 -81 -25 -69 -60 -99 -140 -120 l-68 -18 60 0 c33 0 78 6 100
14 77 27 46 -9 -44 -52 -60 -28 -29 -29 68 -2 59 16 80 18 101 9 41 -17 70
-77 70 -145 0 -105 -38 -124 -105 -54 -48 49 -107 80 -223 119 -120 39 -192
81 -251 146 -47 51 -51 53 -51 30 0 -14 7 -46 16 -72 8 -25 13 -48 10 -51 -8
-8 -78 50 -133 111 -113 123 -158 270 -136 443 6 48 10 89 9 90 -5 5 -77 -132
-93 -176 -19 -55 -29 -229 -15 -288 7 -32 7 -43 -2 -43 -20 0 -111 87 -151
144 -21 31 -40 54 -42 52 -8 -8 58 -164 95 -225 51 -85 138 -179 228 -246 41
-31 73 -59 71 -61 -5 -5 -118 18 -152 30 -35 13 87 -96 165 -146 41 -27 77
-52 80 -55 3 -3 -25 -3 -62 -1 -53 3 -65 1 -57 -9 23 -27 108 -72 177 -94 l72
-23 -43 -27 c-41 -25 -111 -98 -103 -107 2 -2 18 4 35 13 37 19 123 22 281 11
93 -6 125 -5 165 8 27 8 51 13 54 11 18 -19 -144 -125 -191 -125 -11 0 -16 -5
-13 -10 14 -22 72 -42 155 -55 108 -16 147 -35 166 -82 19 -45 29 -128 17
-136 -6 -4 -16 11 -23 32 -7 21 -23 52 -36 67 l-23 29 16 -45 c19 -57 28 -194
15 -240 -6 -22 -11 -29 -15 -20 -3 8 -8 24 -12 35 -5 15 -15 -6 -39 -81 -18
-56 -50 -132 -70 -170 -94 -173 -259 -342 -405 -416 -55 -28 -76 -33 -134 -33
-65 0 -70 2 -98 33 -35 39 -39 92 -9 122 40 40 100 13 100 -46 1 -28 1 -28 15
-10 16 21 20 74 7 92 -15 22 -58 44 -85 44 -70 0 -123 -61 -114 -131 12 -91
88 -143 207 -143 93 1 163 25 263 90 80 54 232 203 262 258 11 20 24 36 28 36
15 0 -1 -49 -45 -139 -74 -155 -217 -266 -443 -347 l-70 -24 50 6 c75 9 201
52 282 95 128 70 226 178 295 325 31 65 33 67 36 37 5 -51 -15 -137 -47 -207
-22 -45 -55 -89 -112 -148 -85 -86 -112 -131 -111 -183 2 -92 162 -103 162
-11 l0 27 -29 -22 c-29 -21 -31 -21 -57 -4 -23 15 -26 22 -21 58 5 33 15 50
49 81 24 21 62 56 86 78 95 87 148 208 188 433 15 83 37 178 49 213 24 67 19
69 -33 12 l-23 -25 6 30 c12 59 59 140 115 197 31 32 54 58 52 58 -9 0 -49
-25 -69 -43 -63 -57 -21 43 46 112 58 58 137 100 273 145 117 38 194 74 220
102 16 18 15 19 -35 19 -38 0 -61 6 -84 23 -35 25 -45 53 -15 46 26 -7 97 21
204 82 102 58 166 76 193 54 19 -16 19 -1 0 27 -21 29 -106 55 -156 47 -22 -4
-39 -4 -39 -1 0 3 25 22 55 42 65 44 158 141 186 197 12 23 28 64 36 92 16 55
33 196 23 196 -4 0 -13 -15 -22 -32 -25 -51 -82 -112 -142 -152 -59 -39 -90
-48 -63 -18 24 27 82 150 107 227 27 82 53 138 87 183 13 17 21 32 18 32 -19
0 -115 -75 -145 -114 -37 -47 -55 -59 -46 -28 11 32 24 207 19 235 -5 26 -7
24 -29 -29 -13 -32 -30 -65 -39 -73 -15 -15 -16 -12 -8 34 10 60 7 262 -5 325
l-8 45 -11 -55z m-82 -276 l16 -79 7 59 c10 76 22 106 41 106 12 0 15 -14 14
-77 0 -43 -4 -99 -8 -125 -4 -27 -4 -48 0 -48 4 0 20 16 36 36 42 56 39 25 -8
-68 -74 -147 -161 -257 -281 -356 -43 -36 -64 -58 -54 -60 21 -5 143 34 196
63 l45 24 -31 1 c-40 0 -59 21 -45 48 16 31 80 82 102 82 25 0 36 -27 20 -51
-36 -59 68 27 112 91 16 24 16 24 3 -16 -31 -91 -86 -159 -174 -215 -98 -62
-316 -128 -430 -130 l-57 -1 70 -15 c113 -24 275 -22 365 6 70 21 166 68 158
76 -2 2 -22 -2 -43 -10 -90 -32 -123 0 -37 36 120 51 151 67 211 112 35 26 65
46 68 44 7 -8 -35 -106 -67 -157 -39 -61 -97 -114 -190 -176 l-72 -48 26 -19
c29 -21 35 -61 10 -71 -26 -10 -54 -7 -59 7 -4 8 -33 12 -98 12 -84 0 -98 3
-158 32 -36 18 -87 49 -114 70 -36 27 -47 32 -41 17 23 -59 36 -139 37 -224 0
-52 3 -89 6 -82 6 16 57 42 83 42 28 0 61 -35 53 -57 -11 -33 -47 -65 -107
-95 -106 -53 -177 -146 -248 -323 l-28 -70 8 50 c4 28 7 97 7 154 l0 103 -35
30 c-19 16 -46 31 -60 35 -61 14 -90 59 -58 91 16 16 51 15 67 0 14 -15 29 0
61 63 28 53 54 239 34 239 -3 0 -26 -18 -52 -39 -150 -125 -419 -170 -476 -79
-22 36 66 110 96 80 9 -9 7 -17 -8 -33 l-19 -22 80 7 c135 11 228 46 325 125
53 42 46 49 -20 16 -14 -7 -56 -21 -95 -31 -85 -23 -345 -26 -410 -5 -82 26
-205 76 -205 82 0 4 27 10 61 14 33 4 73 11 87 15 26 7 25 8 -18 19 -62 17
-165 80 -223 136 -27 26 -46 49 -44 51 2 2 24 -4 48 -15 24 -10 69 -22 99 -25
36 -3 45 -2 25 3 -67 17 -159 79 -168 111 -6 24 15 42 39 34 11 -4 32 -19 48
-33 25 -22 27 -23 18 -5 -6 12 -26 39 -45 61 -72 87 -99 140 -104 207 -4 41
-2 66 6 70 6 4 13 1 15 -6 1 -7 11 -44 20 -83 40 -164 188 -324 406 -435 41
-21 71 -22 33 -1 -11 5 -32 28 -48 51 -39 56 -24 70 43 36 60 -31 112 -90 112
-128 0 -24 -4 -28 -27 -28 -16 1 -52 9 -80 19 -29 10 -53 14 -53 10 0 -9 64
-59 112 -87 51 -29 139 -43 215 -36 l63 7 -48 22 c-59 27 -98 71 -81 91 17 21
35 17 101 -22 34 -19 73 -38 88 -41 64 -12 97 46 87 153 -10 101 -48 154 -111
154 l-29 0 23 25 c19 20 20 25 7 25 -20 0 -39 33 -31 54 7 19 47 31 65 21 7
-5 9 -22 6 -47 -4 -31 -1 -44 14 -59 28 -28 51 -25 43 5 -3 13 -1 27 6 31 19
12 50 -25 50 -61 0 -223 183 -293 330 -127 55 63 104 155 65 123 -34 -28 -31
28 3 70 30 37 46 17 39 -49 -5 -52 -5 -54 8 -30 18 33 38 156 31 186 -11 40
13 34 25 -7 7 -22 15 -40 19 -40 4 0 16 30 26 68 14 49 19 101 19 194 0 148
12 161 36 42z m-601 -268 c-38 -56 -47 -62 -55 -37 -4 15 3 28 27 50 49 45 64
38 28 -13z m-112 -1505 c3 -16 -7 -34 -29 -57 -18 -19 -28 -34 -23 -34 6 0 14
4 20 10 15 15 37 -5 37 -36 0 -29 -33 -64 -61 -64 -23 0 -62 40 -62 63 0 11
19 38 43 59 23 22 38 39 32 38 -24 -5 -35 1 -35 19 0 39 73 41 78 2z"></path>
<path class="node" id="node2" d="M772 2327 c8 -23 71 -57 105 -57 19 0 52 9 73 20 45 23 53 35 14 20
-40 -16 -105 -11 -152 10 -29 13 -42 15 -40 7z"></path>
</g>
<g transform="translate(0.000000,300.000000) scale(0.100000,-0.100000)" fill="#CCC1C3" stroke="none">

<path class="node" id="node4" d="M1815 2612 c0 -93 -5 -145 -19 -194 -10 -38 -22 -68 -26 -68 -4 0
-12 18 -19 40 -12 41 -36 47 -25 7 7 -30 -13 -153 -31 -186 -13 -24 -13 -22
-8 30 7 66 -9 86 -39 49 -34 -42 -37 -98 -3 -70 39 32 -10 -60 -65 -123 -147
-166 -330 -96 -330 127 0 36 -31 73 -50 61 -7 -4 -9 -18 -6 -31 8 -30 -15 -33
-43 -5 -15 15 -18 28 -14 59 3 25 1 42 -6 47 -18 10 -58 -2 -65 -21 -8 -21 11
-54 31 -54 13 0 12 -5 -7 -25 l-23 -25 29 0 c63 0 101 -53 111 -154 10 -107
-23 -165 -87 -153 -15 3 -54 22 -88 41 -66 39 -84 43 -101 22 -17 -20 22 -64
81 -91 l48 -22 -63 -7 c-76 -7 -164 7 -215 36 -48 28 -112 78 -112 87 0 4 24
0 53 -10 28 -10 64 -18 80 -19 68 0 8 109 -85 156 -67 34 -82 20 -43 -36 16
-23 37 -46 48 -51 38 -21 8 -20 -33 1 -218 111 -366 271 -406 435 -9 39 -19
76 -20 83 -2 7 -9 10 -15 6 -8 -4 -10 -29 -6 -70 5 -67 32 -120 104 -207 19
-22 39 -49 45 -61 9 -18 7 -17 -18 5 -16 14 -37 29 -48 33 -24 8 -45 -10 -39
-34 9 -32 101 -94 168 -111 20 -5 11 -6 -25 -3 -30 3 -75 15 -99 25 -24 11
-46 17 -48 15 -2 -2 17 -25 44 -51 58 -56 161 -119 223 -136 43 -11 44 -12 18
-19 -14 -4 -54 -11 -87 -15 -34 -4 -61 -10 -61 -14 0 -6 123 -56 205 -82 65
-21 325 -18 410 5 39 10 81 24 95 31 66 33 73 26 20 -16 -97 -79 -190 -114
-325 -125 l-80 -7 19 22 c15 16 17 24 8 33 -30 30 -118 -44 -96 -80 57 -91
326 -46 476 79 26 21 49 39 52 39 20 0 -6 -186 -34 -239 -32 -63 -47 -78 -61
-63 -16 15 -51 16 -67 0 -32 -32 -3 -77 58 -91 14 -4 41 -19 60 -35 l35 -30 0
-103 c0 -57 -3 -126 -7 -154 l-8 -50 28 70 c71 177 142 270 248 323 60 30 96
62 107 95 8 22 -25 57 -53 57 -26 0 -77 -26 -83 -42 -3 -7 -6 30 -6 82 -1 85
-14 165 -37 224 -6 15 5 10 41 -17 27 -21 78 -52 114 -70 60 -29 74 -32 158
-32 65 0 94 -4 98 -12 5 -14 33 -17 59 -7 25 10 19 50 -10 71 l-26 19 72 48
c93 62 151 115 190 176 32 51 74 149 67 157 -3 2 -33 -18 -68 -44 -60 -45 -91
-61 -211 -112 -86 -36 -53 -68 37 -36 21 8 41 12 43 10 8 -8 -88 -55 -158 -76
-90 -28 -252 -30 -365 -6 l-70 15 57 1 c114 2 332 68 430 130 88 56 143 124
174 215 13 40 13 40 -3 16 -44 -64 -148 -150 -112 -91 16 24 5 51 -20 51 -22
0 -86 -51 -102 -82 -14 -27 5 -48 45 -48 l31 -1 -45 -24 c-53 -29 -175 -68
-196 -63 -10 2 11 24 54 60 120 99 207 209 281 356 47 93 50 124 8 68 -16 -20
-32 -36 -36 -36 -4 0 -4 21 0 48 4 26 8 82 8 125 1 63 -2 77 -14 77 -19 0 -31
-30 -41 -106 l-7 -59 -16 79 c-24 119 -36 106 -36 -42z"></path>
<path class="node" id="node5" d="M1222 2399 c-24 -22 -31 -35 -27 -50 8 -25 17 -19 55 37 36 51 21 58
-28 13z"></path>
<path class="node" id="node6" d="M1073 904 c-7 -3 -13 -14 -13 -25 0 -18 11 -24 35 -19 6 1 -9 -16
-32 -38 -24 -21 -43 -48 -43 -59 0 -23 39 -63 62 -63 28 0 61 35 61 64 0 31
-22 51 -37 36 -6 -6 -14 -10 -20 -10 -5 0 5 15 23 34 40 41 40 80 1 83 -14 1
-31 -1 -37 -3z"></path>
</g>
</svg>