<!--?xml version="1.0" standalone="no"?--><svg version="1.0" xmlns="http://www.w3.org/2000/svg" width="288.000000pt" height="300.000000pt" viewBox="0 0 288.000000 300.000000" preserveAspectRatio="xMidYMid meet">
<metadata>
  <rdf:rdf xmlns:rdf="http://www.w3.org/1999/02/22-rdf-syntax-ns#" xmlns:rdfs="http://www.w3.org/2000/01/rdf-schema#" xmlns:dc="http://purl.org/dc/elements/1.1/">
    <rdf:description dc:title="goat clipart" dc:publisher="Hiox" dc:date="2015-06-11" dc:format="image/svg+xml" dc:language="en">
      <dc:creator>
        <rdf:bag>
          <rdf:li>svgimages.com</rdf:li>
        </rdf:bag>
      </dc:creator>
    </rdf:description>
  </rdf:rdf>
</metadata>
<g transform="translate(0.000000,300.000000) scale(0.100000,-0.100000)" fill="#393939" stroke="none">
<path class="node" id="node1" d="M2045 2742 c-35 -5 -50 -12 -50 -22 0 -11 17 -17 65 -21 36 -4 79
-12 95 -19 l30 -12 -27 -10 c-43 -15 -62 -74 -65 -207 -2 -100 -5 -120 -29
-166 -53 -107 -127 -156 -201 -136 -43 12 -195 13 -263 2 -33 -5 -59 -3 -95
10 -250 86 -516 141 -690 143 -66 0 -131 -1 -144 -4 -20 -4 -28 3 -53 50 -40
73 -76 109 -149 148 -82 43 -124 43 -183 -3 -26 -19 -53 -35 -61 -35 -26 0
-16 -29 13 -36 47 -10 48 -12 14 -24 -36 -13 -40 -24 -15 -39 17 -9 17 -10 0
-28 -29 -32 -21 -40 33 -35 41 4 53 1 64 -13 7 -10 18 -15 24 -11 7 4 12 1 12
-8 0 -31 18 -24 48 19 43 61 77 63 92 4 6 -23 17 -50 23 -61 10 -16 6 -24 -30
-59 -59 -56 -107 -116 -132 -167 -18 -35 -23 -67 -28 -175 -6 -150 9 -381 33
-486 l16 -71 -25 -20 c-32 -25 -55 -79 -38 -89 6 -4 14 -34 17 -67 2 -32 9
-84 14 -114 5 -30 14 -95 20 -145 6 -49 15 -115 20 -146 6 -30 10 -72 10 -93
0 -67 86 -123 137 -90 12 8 31 14 43 14 12 0 20 7 20 16 0 26 -40 133 -73 194
-26 49 -30 67 -34 165 -5 127 4 185 33 200 10 5 36 21 57 34 34 21 41 22 53 9
12 -11 12 -20 3 -47 -15 -42 1 -62 32 -43 12 8 23 11 25 9 3 -3 12 -85 19
-183 11 -135 19 -182 30 -190 8 -6 15 -26 15 -45 0 -47 9 -57 76 -84 53 -22
61 -23 81 -9 12 7 29 14 38 14 35 0 -4 111 -59 170 -42 44 -57 99 -64 226 l-5
101 56 55 55 56 54 -14 c37 -10 99 -14 211 -12 134 3 157 1 157 -12 0 -8 10
-61 22 -118 16 -75 25 -101 35 -98 15 6 18 -20 3 -29 -17 -11 -12 -38 6 -31
14 5 15 4 5 -8 -14 -16 -1 -29 21 -21 24 9 41 -98 37 -239 -3 -99 -1 -126 9
-126 10 0 12 -11 6 -45 -5 -38 -4 -45 10 -45 9 0 16 -7 16 -15 0 -19 71 -55
109 -55 18 0 34 7 39 17 6 10 16 14 26 10 40 -16 59 20 31 57 -25 33 -18 41
31 37 25 -2 51 2 57 8 6 6 19 11 28 11 10 0 21 4 24 10 7 11 -26 77 -66 133
-33 45 -35 71 -18 194 10 77 49 209 73 248 7 11 30 63 51 115 23 58 49 105 66
120 37 33 65 102 91 223 16 76 27 105 49 128 32 35 69 109 94 189 9 30 26 79
38 107 l20 52 19 -40 c27 -61 57 -99 78 -99 11 0 25 -12 32 -27 21 -42 38 -41
38 3 0 38 0 38 16 16 8 -12 18 -22 22 -22 4 0 7 31 7 68 0 75 14 104 49 101
44 -3 55 2 105 47 l51 46 -6 56 c-4 43 -12 63 -31 80 -13 12 -22 22 -19 22 3
0 -6 17 -20 37 -13 20 -27 47 -30 60 -9 32 14 83 37 83 24 0 110 89 139 143
29 55 22 82 -18 72 -15 -3 -34 -13 -42 -20 -20 -17 -86 -35 -132 -35 -57 0
-92 27 -124 93 -16 33 -40 68 -54 79 -32 24 -96 27 -117 5 -14 -14 -18 -14
-38 -1 -26 17 -128 25 -200 16z m300 -58 c14 -15 25 -35 25 -45 0 -9 3 -26 6
-36 4 -10 -8 4 -26 30 -18 27 -39 51 -47 54 -18 7 -17 23 2 23 9 0 27 -12 40
-26z m-126 -95 c22 -55 26 -95 12 -119 -6 -8 -7 -18 -4 -24 9 -14 21 23 22 67
1 31 6 39 27 48 41 15 183 5 223 -16 51 -26 152 -17 215 20 48 28 63 28 53 1
-4 -9 -13 -13 -21 -10 -9 3 -42 -10 -74 -30 -33 -20 -66 -36 -75 -36 -13 0
-13 -5 -2 -37 11 -31 11 -41 -1 -57 -25 -37 -16 -118 17 -160 5 -6 20 -25 34
-42 25 -32 33 -68 16 -78 -13 -9 -64 12 -78 31 -7 9 -16 13 -20 9 -11 -11 11
-41 33 -44 43 -7 65 -25 62 -51 -3 -23 -8 -26 -51 -29 -37 -2 -59 3 -94 22
-53 30 -63 32 -63 11 0 -8 6 -15 13 -15 7 0 29 -11 49 -25 20 -14 50 -25 65
-25 23 -1 25 -2 11 -10 -28 -17 -123 -1 -152 26 -19 18 -37 24 -70 24 -32 0
-64 10 -113 35 -102 54 -108 62 -106 145 2 39 -1 70 -6 70 -10 0 -21 -59 -21
-116 0 -35 5 -45 33 -66 51 -38 127 -74 187 -88 84 -19 152 -52 144 -70 -4 -8
-10 -35 -14 -60 -4 -25 -8 -37 -9 -26 -2 32 -31 -2 -31 -38 0 -43 -17 -15 -26
42 -8 55 -21 62 -30 16 l-7 -36 -18 29 c-11 15 -24 46 -30 68 -18 70 -17 70
-39 50 -11 -10 -25 -34 -31 -54 -6 -20 -15 -40 -19 -46 -4 -5 -13 -32 -20 -60
-22 -79 -66 -160 -105 -192 -27 -23 -37 -39 -39 -64 -9 -106 -68 -272 -105
-297 -61 -40 -226 -106 -246 -98 -7 2 -10 17 -7 35 6 40 -5 81 -21 81 -10 0
-14 -24 -14 -92 -1 -99 -15 -195 -40 -268 -10 -32 -15 -93 -16 -216 l-2 -171
33 -37 c28 -32 52 -74 52 -92 0 -2 -9 -4 -19 -4 -11 0 -23 -9 -27 -22 -6 -21
-7 -21 -21 -3 -11 16 -17 17 -33 7 -16 -10 -18 -9 -13 4 5 14 1 15 -25 9 -37
-8 -38 -5 -16 36 14 29 14 31 -4 36 -18 4 -19 12 -14 92 3 60 -1 118 -12 181
-10 51 -15 108 -11 126 3 18 1 35 -5 39 -5 3 -10 -1 -10 -9 0 -9 -4 -16 -9
-16 -5 0 -7 10 -4 22 4 19 3 20 -6 8 -8 -12 -11 -8 -11 18 0 17 -4 32 -10 32
-5 0 -10 -5 -10 -12 0 -7 -3 -8 -8 -2 -25 27 -39 216 -21 284 3 11 -4 14 -26
12 -26 -2 -28 -1 -14 10 26 21 69 89 69 109 0 22 -4 23 -32 8 -20 -11 -20 -9
-14 26 4 20 10 43 13 51 3 8 -1 14 -11 14 -14 0 -20 -11 -17 -32 0 -3 -6 -28
-14 -53 l-14 -47 25 5 c33 6 30 -3 -17 -57 -23 -26 -39 -49 -37 -51 3 -3 17
-6 31 -7 34 -3 36 -32 5 -49 -37 -20 -284 -25 -346 -6 -67 19 -239 117 -277
157 -25 26 -30 39 -29 78 0 26 10 68 22 94 23 48 24 109 3 116 -17 6 -13 30 7
41 16 10 16 12 0 24 -20 16 -6 37 25 37 10 0 15 5 12 10 -10 16 -28 12 -60
-15 -28 -23 -29 -26 -12 -36 18 -10 18 -12 1 -30 -10 -11 -19 -32 -20 -47 -1
-15 -5 -34 -9 -43 -7 -19 10 -35 20 -19 15 24 22 7 9 -20 -22 -43 -33 -126
-22 -172 17 -76 -20 -146 -110 -207 -97 -66 -94 -58 -90 -228 l3 -148 38 -71
c20 -39 37 -73 37 -76 0 -13 -34 -18 -41 -6 -6 9 -13 8 -28 -6 -19 -17 -21
-17 -21 -3 0 10 -8 17 -19 17 -16 0 -21 10 -26 58 -3 31 -13 104 -21 162 -24
160 -28 235 -15 270 9 29 9 31 -7 25 -14 -5 -15 -4 -4 6 18 19 15 29 -8 29
-29 0 -25 13 19 53 l38 35 -20 73 c-17 65 -20 107 -21 349 l-1 275 47 71 c55
82 169 194 230 225 37 19 53 21 147 16 205 -10 404 -50 632 -128 105 -36 121
-39 160 -30 59 14 210 14 264 0 32 -8 53 -8 79 1 56 18 128 112 166 214 l11
29 24 -23 25 -23 0 22 c0 13 -11 32 -24 42 -14 11 -27 33 -31 50 -10 45 4 142
26 178 28 47 52 40 78 -20z m-1767 -114 c62 -28 104 -69 147 -143 l32 -54 -28
-21 c-15 -12 -32 -22 -37 -22 -6 0 -18 23 -28 50 -16 46 -48 85 -69 85 -4 0
-24 -14 -44 -31 -34 -30 -35 -30 -35 -8 0 21 -1 22 -20 4 -18 -17 -20 -17 -20
-1 0 13 -4 15 -19 6 -33 -17 -46 -12 -26 10 18 20 17 20 -11 20 l-29 0 31 25
c17 13 34 33 37 44 4 18 1 19 -27 14 l-31 -6 24 27 c32 34 80 34 153 1z m2228
-29 c0 -2 -7 -7 -16 -10 -8 -3 -12 -2 -9 4 6 10 25 14 25 6z m-1832 -1229 c34
-17 62 -35 62 -40 0 -17 -69 -76 -92 -79 -17 -2 -25 -13 -32 -40 -12 -49 -26
-48 -26 1 0 32 -4 41 -22 47 -17 5 -28 0 -46 -22 l-24 -28 7 42 c4 27 3 48 -4
56 -9 11 -5 28 20 75 l32 61 31 -21 c17 -11 59 -34 94 -52z m1066 -19 c-3 -13
-22 -61 -41 -108 -85 -208 -103 -280 -103 -419 0 -64 3 -73 32 -108 18 -21 26
-32 18 -25 -20 17 -30 15 -30 -8 0 -23 -15 -27 -24 -5 -7 18 -36 20 -36 3 0
-10 -3 -9 -9 1 -5 8 -16 11 -29 7 -27 -9 -36 8 -18 36 19 31 29 120 27 257 0
62 4 121 9 131 7 12 5 28 -7 50 -12 26 -14 43 -7 78 9 43 11 45 69 66 33 12
78 31 100 43 53 27 58 27 49 1z m-1177 -155 c-3 -10 -5 -4 -5 12 0 17 2 24 5
18 2 -7 2 -21 0 -30z m103 -232 c8 -35 24 -65 51 -93 36 -39 54 -78 28 -62 -6
3 -15 1 -19 -6 -6 -10 -13 -9 -31 3 -15 11 -26 13 -35 7 -15 -13 -44 -2 -44
16 0 7 -6 17 -14 21 -10 6 -17 48 -25 142 -6 74 -11 145 -11 160 l0 25 16 -22
c13 -18 19 -21 30 -11 8 6 15 21 15 33 1 11 7 -20 14 -70 7 -50 18 -114 25
-143z m838 111 c-7 -36 -8 -64 -1 -86 13 -41 -8 -242 -27 -259 -17 -16 -7 320
11 376 18 54 29 32 17 -31z"></path>
<path class="node" id="node2" d="M2144 2583 c-26 -56 -24 -126 6 -158 25 -27 45 -33 37 -12 -2 6 6 31
20 53 13 23 22 50 20 60 -7 39 -36 94 -50 94 -8 0 -23 -17 -33 -37z"></path>
<path class="node" id="node3" d="M2488 2421 c20 -47 23 -47 15 2 -3 21 -11 37 -19 37 -10 0 -9 -9 4
-39z"></path>
<path class="node" id="node4" d="M2283 2408 c-45 -10 -56 -30 -25 -47 19 -10 119 -12 104 -2 -5 3 -15
18 -23 32 -13 23 -17 25 -56 17z m25 -20 c15 -15 15 -28 1 -28 -5 0 -8 4 -4 9
3 6 -3 14 -12 20 -10 6 -13 11 -7 11 5 0 15 -5 22 -12z"></path>
<path class="node" id="node5" d="M2447 2307 c57 -46 67 -50 34 -14 -19 20 -41 37 -49 37 -7 0 -1 -10
15 -23z"></path>
<path class="node" id="node6" d="M2220 2315 c0 -14 52 -85 74 -103 28 -21 34 -60 14 -80 -9 -9 -9 -15
-1 -23 8 -8 13 0 18 30 4 23 11 41 16 41 5 0 9 5 9 10 0 6 -6 10 -14 10 -16 0
-72 61 -88 96 -10 21 -28 33 -28 19z"></path>
<path class="node" id="node7" d="M860 2183 c0 -3 7 -15 17 -25 15 -17 14 -18 -23 -19 -21 -1 -45 -2
-53 -3 -20 -2 -26 -26 -7 -26 24 0 19 -15 -10 -29 -18 -8 -24 -17 -20 -27 4
-9 1 -23 -6 -31 -15 -18 -20 -45 -7 -37 5 3 9 11 9 18 0 8 10 21 23 29 18 13
19 18 8 26 -11 7 -7 13 19 26 25 13 30 19 19 26 -9 6 4 9 39 9 l52 0 -17 27
-17 26 39 -6 c37 -6 38 -5 21 8 -20 15 -86 21 -86 8z"></path>
<path class="node" id="node8" d="M1531 2014 c-18 -13 -20 -18 -10 -25 11 -7 4 -18 -28 -50 -49 -46
-52 -53 -21 -43 22 7 22 6 5 -17 -24 -34 -67 -116 -67 -129 0 -7 8 -9 19 -5
18 5 19 2 14 -32 -7 -41 -7 -43 -5 -90 1 -21 6 -31 15 -28 8 4 12 27 12 68 0
34 4 72 8 85 7 18 5 22 -12 22 -12 0 -21 4 -21 8 0 5 21 39 46 77 29 43 42 70
35 75 -7 4 -2 15 14 30 13 12 22 27 19 32 -3 5 0 15 6 23 17 20 0 19 -29 -1z"></path>
<path class="node" id="node9" d="M740 1963 c0 -4 5 -15 10 -23 8 -13 10 -13 10 2 0 9 -4 20 -10 23 -5
3 -10 3 -10 -2z"></path>
<path class="node" id="node10" d="M2001 1900 c-14 -28 -29 -50 -33 -50 -19 0 -6 -19 15 -22 20 -3 22
-9 25 -77 2 -41 -1 -94 -6 -118 -7 -32 -7 -43 1 -40 19 6 30 84 28 200 -1 40
-5 50 -21 54 -25 7 -25 5 5 49 26 38 31 54 18 54 -5 0 -19 -23 -32 -50z"></path>
<path class="node" id="node11" d="M1712 1805 c-12 -15 -20 -30 -17 -33 9 -9 48 35 43 49 -3 8 -12 2
-26 -16z"></path>
<path class="node" id="node12" d="M1663 1756 c-7 -10 18 -27 29 -20 4 3 8 -14 8 -36 0 -33 3 -41 15
-37 11 5 13 0 9 -21 -4 -19 1 -35 15 -52 19 -24 20 -25 34 -6 14 19 15 17 22
-22 8 -48 25 -57 25 -13 0 16 6 32 13 34 7 4 6 6 -4 6 -9 1 -19 10 -22 21 -6
22 -37 28 -37 8 0 -9 -4 -8 -10 2 -5 8 -10 30 -10 49 0 25 -4 32 -15 27 -21
-8 -19 16 4 45 l19 24 -45 0 c-25 0 -47 -4 -50 -9z"></path>






































</g>
<g transform="translate(0.000000,300.000000) scale(0.100000,-0.100000)" fill="#FFFFFF" stroke="none">

<path class="node" id="node52" d="M2290 2701 c0 -5 6 -11 13 -14 8 -3 29 -27 47 -54 18 -26 30 -40 26
-30 -3 10 -6 27 -6 36 0 23 -44 71 -65 71 -8 0 -15 -4 -15 -9z"></path>

<path class="node" id="node54" d="M2293 2389 c9 -6 15 -14 12 -20 -4 -5 -1 -9 4 -9 6 0 11 4 11 8 0 12
-22 32 -34 32 -6 0 -3 -5 7 -11z"></path>
<path class="node" id="node55" d="M299 2474 l-24 -27 31 6 c28 5 31 4 27 -14 -3 -11 -20 -31 -37 -44
l-31 -25 29 0 c28 0 29 0 11 -20 -20 -22 -7 -27 26 -10 15 9 19 7 19 -6 0 -16
2 -16 20 1 19 18 20 17 20 -4 0 -22 1 -22 35 8 20 17 40 31 44 31 21 0 53 -39
69 -85 10 -27 22 -50 28 -50 5 0 22 10 37 22 l28 21 -32 54 c-43 74 -85 115
-147 143 -73 33 -121 33 -153 -1z"></path>
<path class="node" id="node56" d="M2655 2440 c-3 -6 1 -7 9 -4 18 7 21 14 7 14 -6 0 -13 -4 -16 -10z"></path>
<path class="node" id="node57" d="M691 1229 c-25 -47 -29 -64 -20 -75 7 -8 8 -29 4 -56 l-7 -42 24 28
c18 22 29 27 46 22 18 -6 22 -15 22 -47 0 -49 14 -50 26 -1 7 27 15 38 32 40
23 3 92 62 92 79 0 5 -28 23 -62 40 -35 18 -77 41 -94 52 l-31 21 -32 -61z"></path>
<path class="node" id="node58" d="M1865 1197 c-22 -12 -67 -31 -100 -43 -58 -21 -60 -23 -69 -66 -7
-35 -5 -52 7 -78 12 -22 14 -38 7 -50 -5 -10 -9 -69 -9 -131 2 -137 -8 -226
-27 -257 -18 -28 -9 -45 18 -36 13 4 24 1 29 -7 6 -10 9 -11 9 -1 0 17 29 15
36 -3 9 -22 24 -18 24 5 0 23 10 25 30 8 8 -7 0 4 -18 25 -29 35 -32 44 -32
108 0 139 18 211 103 419 59 144 59 141 -8 107z"></path>
<path class="node" id="node59" d="M732 1055 c0 -16 2 -22 5 -12 2 9 2 23 0 30 -3 6 -5 -1 -5 -18z"></path>
<path class="node" id="node60" d="M801 1024 c0 -12 -7 -27 -15 -33 -11 -10 -17 -7 -30 11 l-16 22 0
-25 c0 -15 5 -86 11 -160 8 -94 15 -136 25 -142 8 -4 14 -14 14 -21 0 -18 29
-29 44 -16 9 6 20 4 35 -7 18 -12 25 -13 31 -3 4 7 13 9 19 6 26 -16 8 23 -28
62 -43 46 -56 85 -76 236 -7 50 -13 81 -14 70z"></path>


</g>
</svg>