<!--?xml version="1.0" standalone="no"?-->

<svg version="1.0" xmlns="http://www.w3.org/2000/svg" width="300.000000pt" height="278.000000pt" viewBox="0 0 300.000000 278.000000" preserveAspectRatio="xMidYMid meet">
<g transform="translate(0.000000,278.000000) scale(0.100000,-0.100000)" fill="#0F100F" stroke="none">
<path class="node" id="node1" d="M1695 2747 c-168 -48 -283 -136 -349 -267 -34 -69 -54 -135 -43 -146
6 -6 103 -27 207 -44 41 -7 86 -19 100 -27 l25 -14 -25 6 c-14 3 -88 16 -165
30 -266 46 -277 50 -367 121 -45 35 -83 62 -86 59 -12 -11 68 -113 156 -197
91 -87 104 -95 195 -130 53 -21 102 -38 107 -38 6 0 10 -4 10 -9 0 -11 -203
61 -227 81 -17 14 -68 -33 -120 -110 -31 -46 -36 -61 -35 -110 0 -46 -1 -52
-8 -29 -5 16 -14 34 -20 42 -7 8 -7 15 -1 19 5 4 24 32 42 64 17 31 50 76 73
100 l41 43 -33 30 c-18 16 -37 29 -42 29 -18 0 -41 -48 -47 -99 -6 -49 -30
-96 -83 -162 -12 -14 -22 -38 -24 -53 -2 -15 -15 -37 -29 -49 -14 -12 -67 -71
-117 -132 -79 -96 -88 -110 -70 -113 18 -3 14 -8 -23 -32 -67 -43 -77 -62 -77
-155 0 -94 14 -125 48 -106 31 16 37 13 17 -9 -33 -36 -6 -57 65 -51 13 1 30
-5 37 -14 9 -14 21 -16 55 -11 99 15 101 14 123 -29 27 -56 32 -145 10 -201
-9 -25 -15 -47 -12 -50 3 -3 21 21 41 53 l37 58 -7 -40 c-9 -62 -58 -159 -106
-211 -33 -36 -37 -44 -18 -34 75 38 151 150 178 261 16 71 17 72 20 33 5 -66
-35 -200 -90 -304 -49 -92 -49 -94 -18 -65 18 17 50 56 72 88 22 32 42 56 45
54 11 -12 -60 -133 -131 -220 -21 -26 -37 -50 -34 -52 2 -2 33 14 69 37 178
116 265 272 276 496 l6 114 29 -51 c28 -49 70 -91 90 -91 6 0 -4 17 -22 37
-34 39 -60 90 -60 120 0 13 6 8 19 -13 28 -46 41 -49 25 -6 -18 52 -17 100 5
148 18 39 25 44 126 85 l106 44 -6 65 c-8 75 -47 205 -77 256 -38 65 -11 45
78 -57 177 -201 251 -316 296 -459 34 -112 32 -265 -7 -375 -42 -121 -97 -221
-202 -364 -51 -70 79 49 207 189 l31 35 -40 -80 c-57 -113 -88 -146 -178 -192
-161 -83 -284 -108 -492 -100 -125 4 -160 9 -245 35 -304 94 -544 300 -671
575 -35 77 -73 194 -85 267 -8 45 -8 45 -9 8 -2 -82 47 -244 112 -368 102
-194 274 -364 473 -467 163 -85 338 -120 547 -110 136 6 194 16 312 54 316
102 529 281 632 532 69 169 86 431 45 690 -12 74 -21 136 -19 137 8 8 47 -139
58 -215 11 -79 7 -372 -6 -486 -8 -61 50 113 70 214 13 62 16 116 13 215 -3
72 -9 140 -13 150 -7 16 -5 18 8 13 22 -8 21 -1 -5 41 l-22 35 23 -6 c21 -5
22 -4 7 16 -9 12 -35 58 -57 102 -23 44 -61 111 -85 148 -24 37 -44 70 -44 72
0 3 8 5 18 5 10 0 5 6 -14 16 -17 8 -58 38 -90 65 -58 49 -110 78 -169 94 -16
4 -24 10 -17 12 24 9 11 19 -20 15 -17 -3 -76 3 -130 13 l-99 19 -21 -22 -21
-21 29 -6 c16 -4 65 -18 109 -32 212 -68 316 -153 373 -306 12 -33 22 -73 22
-90 0 -30 -2 -29 -25 22 -32 67 -92 140 -154 186 -27 19 -52 35 -56 35 -3 0
14 -24 40 -52 57 -66 100 -155 115 -239 6 -35 17 -84 25 -109 25 -82 45 -215
45 -306 0 -99 -29 -268 -60 -350 -24 -65 -82 -181 -104 -209 -15 -19 -16 -18
-4 10 7 17 18 39 25 51 24 39 61 159 77 249 41 233 1 490 -104 666 -41 69 -87
129 -98 129 -4 0 -5 -48 -4 -106 4 -118 -11 -163 -23 -68 -17 136 -81 282
-167 378 l-51 57 39 -16 c93 -39 173 -93 243 -164 79 -81 79 -65 -1 36 -68 86
-131 140 -227 194 l-82 46 35 31 c38 33 118 62 171 62 131 0 285 -70 396 -180
161 -159 239 -381 239 -680 0 -336 -112 -620 -335 -845 -236 -239 -549 -367
-895 -367 -438 0 -822 229 -1018 604 -258 495 -99 1127 373 1482 74 56 94 89
61 102 -33 13 -233 -116 -349 -225 -193 -182 -308 -380 -374 -641 -23 -93 -26
-126 -27 -280 -1 -160 2 -186 28 -295 15 -66 32 -124 35 -130 4 -5 13 -30 20
-55 17 -59 102 -219 159 -300 112 -158 293 -311 474 -403 126 -64 142 -70 248
-102 459 -137 970 -53 1383 227 200 136 409 380 508 594 98 211 133 369 133
604 0 246 -39 420 -144 636 -122 251 -321 454 -545 554 -119 54 -214 73 -380
76 -132 3 -160 1 -230 -19z m225 -2 c0 -2 -5 -15 -11 -29 -10 -22 -19 -25 -88
-31 -86 -7 -215 -39 -248 -61 -33 -21 -49 -18 -28 6 31 34 157 92 230 105 71
13 145 19 145 10z m117 -1 l23 -6 -21 -29 c-17 -25 -27 -29 -65 -29 -47 0 -55
11 -34 51 11 20 52 25 97 13z m130 -25 c22 -8 22 -8 -8 -40 -25 -27 -34 -30
-64 -25 -44 9 -49 18 -30 55 13 27 19 30 48 24 17 -3 42 -10 54 -14z m192 -75
c74 -39 251 -174 251 -192 0 -4 19 -27 42 -52 77 -83 198 -295 183 -320 -3 -5
-1 -10 5 -10 11 0 28 -37 37 -82 4 -23 2 -28 -13 -29 -14 0 -12 -3 7 -10 18
-7 29 -20 33 -41 10 -51 8 -58 -21 -59 -27 -2 -27 -2 -3 -6 33 -6 37 -11 48
-60 l10 -43 -38 0 c-35 0 -39 3 -45 33 -9 44 -45 167 -55 192 -5 11 -21 49
-37 85 -47 110 -136 252 -187 299 -14 14 -26 29 -26 35 0 6 -21 26 -45 45 -39
29 -43 36 -33 49 11 13 10 15 -6 9 -12 -5 -30 0 -52 15 -36 25 -41 37 -22 56
7 7 8 12 2 12 -5 0 -15 -5 -22 -12 -10 -10 -22 -7 -56 12 l-45 24 16 29 15 30
-32 -23 c-28 -20 -34 -21 -63 -9 -47 18 -48 21 -27 56 18 30 20 31 57 21 21
-6 76 -30 122 -54z m-1128 -598 c-7 -8 -10 -20 -6 -26 3 -5 1 -10 -4 -10 -14
0 -14 -36 0 -61 10 -19 9 -20 -11 -9 -16 9 -25 8 -36 -1 -19 -16 -18 -5 7 44
30 58 51 89 57 83 3 -3 -1 -12 -7 -20z m114 -65 c3 -6 -5 -15 -17 -22 -20 -11
-21 -10 -11 3 7 8 10 18 6 21 -3 4 -1 7 5 7 6 0 13 -4 17 -9z m-68 -57 c-3 -3
-12 -4 -19 -1 -8 3 -5 6 6 6 11 1 17 -2 13 -5z m-152 -154 c4 -6 -5 -10 -19
-10 -14 0 -26 5 -26 10 0 6 9 10 19 10 11 0 23 -4 26 -10z m-5 -39 c0 -8 -79
-3 -89 5 -2 2 17 4 42 4 26 0 47 -4 47 -9z m1814 -20 c2 -3 7 -25 11 -49 l7
-43 -39 3 c-37 3 -38 4 -43 51 -4 26 -5 49 -3 51 5 5 63 -6 67 -13z m-1820
-21 c46 -17 26 -20 -57 -7 -43 7 -75 16 -70 21 10 10 87 2 127 -14z m1811 -92
c20 -9 25 -18 25 -50 0 -38 -1 -39 -32 -36 -32 3 -33 5 -36 51 -3 50 1 54 43
35z m-2175 -77 c0 -17 -46 -76 -60 -76 -27 0 -23 34 5 45 14 5 28 17 31 25 6
16 24 21 24 6z m2193 -88 c-7 -47 -12 -53 -40 -42 -19 7 -23 16 -23 52 0 54 5
60 41 42 25 -13 27 -19 22 -52z m-2853 -277 c18 -116 78 -289 132 -379 15 -26
28 -54 28 -62 0 -8 4 -15 9 -15 15 0 63 -78 55 -91 -5 -8 -3 -9 5 -4 14 8 81
-51 81 -72 0 -7 6 -13 13 -13 8 0 24 -12 38 -26 13 -14 65 -53 114 -85 50 -32
95 -62 100 -66 15 -11 112 -58 160 -78 125 -52 382 -105 511 -105 44 0 45 -1
42 -28 -3 -25 -6 -27 -47 -26 -30 1 -48 7 -58 19 -13 18 -13 18 -13 1 0 -17
-6 -18 -47 -12 -27 4 -64 9 -83 12 -19 2 -46 7 -60 10 -14 4 -34 8 -45 9 -79
11 -297 97 -400 159 -154 92 -307 237 -388 368 -123 196 -201 500 -180 698 l7
65 8 -105 c4 -58 12 -136 18 -174z m2821 204 c16 -9 18 -18 13 -53 -8 -52 -8
-51 -33 -37 -16 8 -21 20 -21 49 0 51 7 58 41 41z m-1692 -65 c14 -38 21 -77
20 -123 l-1 -67 -13 80 c-7 44 -20 97 -29 119 -19 45 -19 46 -7 46 5 0 19 -25
30 -55z m-138 3 c8 -15 8 -23 -2 -32 -9 -8 -10 -8 -4 2 4 8 -2 23 -16 38 -18
19 -19 24 -6 18 10 -3 22 -15 28 -26z m198 -188 c0 -47 -7 -101 -14 -120 -13
-33 -13 -32 -7 30 8 82 8 108 0 195 l-7 70 14 -45 c8 -26 14 -82 14 -130z
m-182 128 c-3 -8 -6 -5 -6 6 -1 11 2 17 5 13 3 -3 4 -12 1 -19z m1794 -4 c13
-12 15 -22 8 -46 -11 -38 -12 -40 -33 -32 -17 6 -20 32 -10 72 7 26 12 27 35
6z m-32 -118 c14 -17 -5 -76 -24 -76 -19 0 -23 20 -12 57 11 36 19 40 36 19z
m-43 -138 c-10 -39 -24 -54 -36 -42 -8 8 -7 22 5 49 11 28 18 36 26 28 7 -7 9
-22 5 -35z m-52 -87 c7 -11 -30 -58 -39 -50 -7 8 15 59 26 59 4 0 10 -4 13 -9z
m-54 -90 c0 -11 -83 -123 -104 -140 -8 -7 8 23 37 68 48 74 67 94 67 72z
m-455 -407 c-40 -33 -65 -47 -65 -35 0 8 78 60 90 60 3 0 -8 -11 -25 -25z
m-105 -64 c0 -10 -32 -30 -49 -30 -19 0 -12 17 12 28 28 14 37 14 37 2z m-90
-50 c0 -12 -69 -42 -81 -34 -16 9 -10 20 19 31 35 14 62 16 62 3z m-113 -47
c5 -13 -49 -36 -73 -31 -32 6 -25 26 13 36 43 11 55 10 60 -5z m-119 -25 c19
-19 14 -26 -25 -37 -26 -7 -41 -7 -50 1 -21 17 -15 27 20 37 43 13 41 13 55
-1z m-108 -38 c12 -22 9 -24 -47 -34 -25 -4 -35 -1 -43 14 -14 26 -13 28 13
33 49 9 67 6 77 -13z m-115 -25 c0 -16 -9 -21 -42 -26 -36 -4 -45 -2 -57 15
l-15 21 0 -21 c-1 -18 -8 -23 -41 -26 -43 -4 -60 5 -60 34 0 14 11 18 63 21
124 7 152 4 152 -18z"></path>
<path class="node" id="node2" d="M1158 2408 c40 -58 52 -67 93 -70 29 -3 34 0 37 20 2 14 -3 24 -15
28 -10 3 -43 17 -73 32 -30 15 -59 28 -64 31 -5 2 5 -16 22 -41z"></path>
<path class="node" id="node3" d="M1640 1775 c0 -6 6 -31 14 -56 8 -25 17 -80 21 -122 l7 -76 -58 -27
-59 -27 55 -8 c64 -10 95 -39 138 -129 35 -75 37 -188 4 -273 -12 -32 -22 -60
-22 -64 0 -12 38 44 66 97 l29 55 3 -90 c3 -81 -9 -189 -24 -230 -4 -8 -2 -15
3 -15 11 0 63 102 89 175 14 39 18 79 18 175 0 114 -3 132 -31 210 -45 123
-108 233 -197 345 -56 70 -56 70 -56 60z"></path>

</g>
<g transform="translate(0.000000,278.000000) scale(0.100000,-0.100000)" fill="#7B9384" stroke="none">

<path class="node" id="node6" d="M1775 2735 c-73 -13 -199 -71 -230 -105 -21 -24 -5 -27 28 -6 33 22
162 54 248 61 69 6 78 9 88 31 6 14 11 27 11 29 0 9 -74 3 -145 -10z"></path>
<path class="node" id="node7" d="M1940 2731 c-21 -40 -13 -51 34 -51 38 0 48 4 65 29 l21 29 -23 6
c-45 12 -86 7 -97 -13z"></path>
<path class="node" id="node8" d="M2065 2709 c-19 -37 -14 -46 30 -55 30 -5 39 -2 64 25 30 32 30 32 8
40 -12 4 -37 11 -54 14 -29 6 -35 3 -48 -24z"></path>
<path class="node" id="node9" d="M2180 2677 c-21 -35 -20 -38 27 -56 29 -12 35 -11 63 9 l32 23 -15
-30 -16 -29 45 -24 c34 -19 46 -22 56 -12 7 7 17 12 22 12 6 0 5 -5 -2 -12
-19 -19 -14 -31 22 -56 22 -15 40 -20 52 -15 16 6 17 4 6 -9 -10 -13 -6 -20
33 -49 24 -19 45 -39 45 -45 0 -6 12 -21 26 -35 51 -47 140 -189 187 -299 16
-36 32 -74 37 -85 10 -25 46 -148 55 -192 6 -30 10 -33 45 -33 l38 0 -10 43
c-11 49 -15 54 -48 60 -24 4 -24 4 3 6 29 1 31 8 21 59 -4 21 -15 34 -33 41
-19 7 -21 10 -7 10 15 1 17 6 13 29 -9 45 -26 82 -37 82 -6 0 -8 5 -5 10 15
25 -106 237 -183 320 -23 25 -42 48 -42 52 0 4 -38 39 -84 78 -84 70 -218 149
-289 168 -37 10 -39 9 -57 -21z"></path>
<path class="node" id="node10" d="M1218 2048 c-20 -30 -58 -105 -58 -114 0 -3 6 -1 14 5 11 9 20 10 36
1 20 -11 21 -10 11 9 -14 25 -14 61 0 61 5 0 7 5 4 10 -4 6 -1 18 6 26 6 8 10
17 7 20 -3 2 -12 -6 -20 -18z"></path>
<path class="node" id="node11" d="M1323 1983 c4 -3 1 -13 -6 -21 -10 -13 -9 -14 11 -3 22 12 22 31 0
31 -6 0 -8 -3 -5 -7z"></path>
<path class="node" id="node12" d="M1258 1923 c7 -3 16 -2 19 1 4 3 -2 6 -13 5 -11 0 -14 -3 -6 -6z"></path>
<path class="node" id="node13" d="M1080 1770 c0 -5 12 -10 26 -10 14 0 23 4 19 10 -3 6 -15 10 -26 10
-10 0 -19 -4 -19 -10z"></path>
<path class="node" id="node14" d="M1031 1736 c10 -8 89 -13 89 -5 0 5 -21 9 -47 9 -25 0 -44 -2 -42 -4z"></path>
<path class="node" id="node15" d="M2867 1724 c-2 -2 -1 -25 3 -51 5 -47 6 -48 43 -51 l39 -3 -7 43 c-4
24 -9 46 -11 49 -4 7 -62 18 -67 13z"></path>
<path class="node" id="node16" d="M987 1704 c-5 -5 27 -14 70 -21 83 -13 103 -10 57 7 -40 16 -117 24
-127 14z"></path>
<path class="node" id="node17" d="M2882 1563 c3 -46 4 -48 36 -51 31 -3 32 -2 32 36 0 32 -5 41 -25 50
-42 19 -46 15 -43 -35z"></path>
<path class="node" id="node18" d="M726 1515 c-3 -8 -17 -20 -31 -25 -28 -11 -32 -45 -5 -45 14 0 60 59
60 76 0 15 -18 10 -24 -6z"></path>
<path class="node" id="node19" d="M2886 1493 c-3 -4 -6 -26 -6 -50 0 -36 4 -45 23 -52 28 -11 33 -5 40
42 5 33 3 39 -22 52 -16 8 -31 11 -35 8z"></path>
<path class="node" id="node20" d="M57 1370 c-21 -198 57 -502 180 -698 81 -131 234 -276 388 -368 103
-62 321 -148 400 -159 11 -1 31 -5 45 -9 14 -3 41 -8 60 -10 19 -3 56 -8 83
-12 41 -6 47 -5 47 12 0 17 0 17 13 -1 10 -12 28 -18 58 -19 41 -1 44 1 47 26
3 27 2 28 -42 28 -129 0 -386 53 -511 105 -48 20 -145 67 -160 78 -5 4 -50 34
-100 66 -49 32 -101 71 -114 85 -14 14 -30 26 -38 26 -7 0 -13 6 -13 13 0 21
-67 80 -81 72 -8 -5 -10 -4 -5 4 8 13 -40 91 -55 91 -5 0 -9 7 -9 15 0 8 -13
36 -28 62 -30 50 -80 172 -106 259 -20 66 -35 164 -44 294 l-8 105 -7 -65z"></path>

<path class="node" id="node22" d="M2877 1363 c-4 -3 -7 -23 -7 -44 0 -29 5 -41 21 -49 25 -14 25 -15
33 37 5 35 3 44 -13 53 -23 12 -26 12 -34 3z"></path>
<path class="node" id="node23" d="M1180 1346 c0 -2 7 -21 16 -42 9 -22 22 -75 29 -119 l13 -80 1 67 c1
68 -30 178 -50 178 -5 0 -9 -2 -9 -4z"></path>
<path class="node" id="node24" d="M1059 1306 c14 -15 20 -30 16 -38 -6 -10 -5 -10 4 -2 16 15 0 48 -26
58 -13 6 -12 1 6 -18z"></path>
<path class="node" id="node25" d="M1258 1215 c8 -87 8 -113 0 -195 -6 -62 -6 -63 7 -30 18 47 18 194 0
250 l-14 45 7 -70z"></path>
<path class="node" id="node26" d="M1091 1244 c0 -11 3 -14 6 -6 3 7 2 16 -1 19 -3 4 -6 -2 -5 -13z"></path>
<path class="node" id="node27" d="M2856 1228 c-10 -40 -7 -66 10 -72 21 -8 22 -6 33 32 7 24 5 34 -8
46 -23 21 -28 20 -35 -6z"></path>
<path class="node" id="node28" d="M2823 1097 c-11 -37 -7 -57 12 -57 19 0 38 59 24 76 -17 21 -25 17
-36 -19z"></path>
<path class="node" id="node29" d="M2785 985 c-12 -27 -13 -41 -5 -49 8 -8 13 -7 21 4 17 26 22 61 10
73 -8 8 -15 0 -26 -28z"></path>
<path class="node" id="node30" d="M2731 874 c-6 -15 -9 -29 -6 -33 9 -8 46 39 39 50 -9 16 -20 10 -33
-17z"></path>
<path class="node" id="node31" d="M2643 729 c-29 -45 -45 -75 -37 -68 21 17 104 129 104 140 0 22 -19
2 -67 -72z"></path>
<path class="node" id="node32" d="M2233 394 c-24 -14 -43 -30 -43 -35 0 -12 25 2 65 35 38 32 31 32
-22 0z"></path>
<path class="node" id="node33" d="M2113 328 c-24 -11 -31 -28 -12 -28 17 0 49 20 49 30 0 12 -9 12 -37
-2z"></path>
<path class="node" id="node34" d="M1998 277 c-16 -6 -28 -14 -28 -18 0 -17 20 -18 54 -4 63 26 37 47
-26 22z"></path>
<path class="node" id="node35" d="M1887 238 c-38 -10 -45 -30 -13 -36 24 -5 78 18 73 31 -5 15 -17 16
-60 5z"></path>
<path class="node" id="node36" d="M1773 209 c-35 -10 -41 -20 -20 -37 9 -8 24 -8 50 -1 39 11 44 18 25
37 -14 14 -12 14 -55 1z"></path>
<path class="node" id="node37" d="M1643 183 c-26 -5 -27 -7 -13 -33 8 -15 18 -18 43 -14 56 10 59 12
47 34 -10 19 -28 22 -77 13z"></path>
<path class="node" id="node38" d="M1453 163 c-52 -3 -63 -7 -63 -21 0 -29 17 -38 60 -34 33 3 40 8 41
26 l0 21 15 -21 c12 -17 21 -19 57 -15 33 5 42 10 42 26 0 22 -28 25 -152 18z"></path>
</g>
</svg>