<!--?xml version="1.0" standalone="no"?--><svg version="1.0" xmlns="http://www.w3.org/2000/svg" width="300.000000pt" height="240.000000pt" viewBox="0 0 300.000000 240.000000" preserveAspectRatio="xMidYMid meet">
<metadata>
  <rdf:rdf xmlns:rdf="http://www.w3.org/1999/02/22-rdf-syntax-ns#" xmlns:rdfs="http://www.w3.org/2000/01/rdf-schema#" xmlns:dc="http://purl.org/dc/elements/1.1/">
    <rdf:description dc:title="goat" dc:publisher="Hiox" dc:date="2015-06-11" dc:format="image/svg+xml" dc:language="en">
      <dc:creator>
        <rdf:bag>
          <rdf:li>svgimages.com</rdf:li>
        </rdf:bag>
      </dc:creator>
    </rdf:description>
  </rdf:rdf>
</metadata>
<g transform="translate(0.000000,240.000000) scale(0.100000,-0.100000)" fill="#2A2A2A" stroke="none">
<path class="node" id="node1" d="M762 2276 c-29 -17 -64 -45 -78 -61 -57 -65 -89 -182 -81 -295 5 -76
4 -79 -24 -106 -46 -44 -69 -102 -78 -202 -4 -51 -13 -98 -20 -105 -16 -20
-41 -106 -41 -143 0 -56 29 -78 106 -84 67 -5 68 -5 75 -37 3 -17 18 -45 32
-62 14 -17 27 -36 29 -42 6 -17 28 -1 28 20 0 9 7 26 15 37 10 14 13 35 8 84
-4 53 -2 68 11 79 14 12 19 11 37 -5 16 -15 19 -26 15 -54 -4 -19 -8 -51 -11
-71 -3 -19 -18 -68 -35 -108 -20 -49 -27 -78 -21 -89 5 -8 33 -23 62 -32 38
-11 55 -21 57 -35 2 -11 10 -27 18 -36 11 -12 14 -37 11 -95 -4 -79 -12 -104
-50 -156 -12 -16 -24 -53 -28 -85 -7 -59 -66 -223 -100 -279 -40 -66 -14 -123
51 -111 24 5 27 3 23 -17 -6 -28 11 -42 71 -58 l49 -13 46 53 c28 31 54 52 67
52 11 0 31 11 44 25 20 22 23 33 21 108 -1 46 3 95 8 110 6 14 13 61 17 104 5
56 14 88 30 113 13 19 30 55 39 80 22 66 48 110 63 110 7 0 27 -8 45 -17 47
-24 431 -39 464 -17 12 8 35 14 51 14 16 0 41 9 55 20 38 30 69 25 133 -25 60
-46 94 -88 94 -115 0 -28 -61 -163 -95 -211 -18 -26 -44 -67 -56 -91 -12 -23
-37 -60 -55 -80 -38 -42 -52 -83 -37 -107 12 -18 80 -33 138 -29 34 3 40 7 43
28 7 64 11 70 46 70 38 0 66 25 66 61 0 37 50 156 77 181 20 19 25 20 33 8 5
-8 10 -25 10 -38 0 -34 -67 -163 -108 -208 -63 -69 -83 -156 -39 -170 35 -12
137 -6 160 9 11 7 26 31 32 53 8 30 16 40 35 42 44 7 50 20 50 102 0 87 15
139 79 270 49 100 48 105 -16 210 -51 83 -56 121 -28 204 31 92 37 146 19 193
-14 36 -15 51 -6 81 6 20 14 48 18 62 3 14 22 44 40 67 23 28 34 52 34 75 0
18 12 51 25 73 30 48 31 74 6 106 -10 13 -22 35 -26 49 -13 45 -56 98 -88 109
-16 6 -32 9 -35 6 -3 -2 -4 -40 -3 -82 2 -76 -5 -105 -44 -197 -15 -35 -17
-37 -33 -22 -59 53 -217 67 -367 33 -49 -11 -123 -21 -162 -22 -40 -1 -79 -8
-87 -14 -35 -29 -101 -40 -182 -30 -43 6 -84 15 -90 20 -9 7 -25 6 -52 -1 -34
-11 -44 -10 -80 9 -23 12 -52 21 -64 21 -15 1 -35 16 -58 45 -23 30 -43 45
-58 45 -31 0 -62 17 -62 34 0 8 -9 24 -19 37 -19 24 -19 24 15 70 55 75 43
161 -20 145 -13 -3 -52 -22 -87 -42 -53 -29 -67 -34 -86 -25 -18 8 -23 19 -23
50 0 85 58 184 127 220 12 6 42 11 67 11 56 0 65 13 31 44 -38 36 -97 42 -164
17 -30 -12 -56 -19 -58 -17 -3 2 10 20 27 40 19 21 30 42 26 51 -9 25 -67 16
-124 -19z m78 -5 c0 -5 -6 -14 -14 -20 -8 -6 -20 -26 -27 -44 -16 -38 -102
-127 -123 -127 -20 0 -26 12 -19 38 4 16 13 22 34 22 16 0 29 5 29 10 0 6 -7
10 -15 10 -8 0 -15 6 -15 14 0 23 26 37 54 30 16 -4 26 -2 26 5 0 6 -5 11 -11
11 -20 0 -3 23 31 42 38 20 50 22 50 9z m147 -67 c31 -8 19 -24 -18 -24 -38 0
-103 -58 -134 -119 -35 -70 -49 -149 -37 -205 11 -55 -3 -79 -46 -74 -30 3
-72 58 -72 92 0 19 5 21 35 18 44 -5 46 11 3 23 -26 8 -34 16 -36 39 -3 25 -1
28 15 21 55 -23 81 -16 31 9 -25 13 -33 34 -19 55 7 11 15 11 40 3 38 -13 54
4 17 18 -30 11 -32 22 -10 44 18 19 20 19 45 6 26 -15 48 -1 25 15 -15 12 -15
13 0 26 18 15 113 58 129 58 6 1 20 -2 32 -5z m-319 -176 c-14 -44 -26 -55
-34 -35 -10 28 4 67 26 67 17 0 18 -3 8 -32z m-18 -115 c0 -31 -3 -54 -6 -50
-9 9 -23 90 -18 99 14 22 24 2 24 -49z m394 -19 c9 -23 -15 -62 -77 -126 -50
-53 -57 -78 -14 -56 28 14 50 1 81 -48 l29 -46 -33 -82 c-44 -110 -81 -166
-135 -204 l-45 -32 -14 33 c-7 17 -23 40 -34 51 l-21 18 43 43 c43 41 65 93
50 116 -8 13 -43 -26 -44 -48 0 -7 -18 -27 -41 -45 -23 -18 -57 -57 -76 -86
-36 -54 -59 -73 -80 -65 -15 5 11 72 36 89 14 11 14 13 1 18 -34 12 -55 11
-52 -3 5 -23 -9 -70 -25 -86 -15 -16 -73 -21 -73 -7 0 4 5 13 11 19 20 20 -1
36 -22 17 -11 -9 -22 -14 -25 -11 -8 8 14 101 38 155 10 24 18 65 18 90 0 60
16 116 46 163 33 53 63 59 102 20 53 -54 130 -36 148 34 3 14 10 25 15 25 12
0 11 -7 -2 -32 -7 -13 -8 -23 -1 -30 7 -7 15 -1 25 18 19 37 42 57 98 88 53
29 65 31 73 10z m1411 -106 c29 -43 37 -94 20 -134 -19 -46 -11 -60 22 -38
l26 16 -26 -47 c-18 -32 -25 -55 -21 -72 5 -20 -2 -33 -34 -66 -23 -23 -45
-53 -50 -67 -10 -27 -8 -118 3 -191 5 -34 1 -68 -19 -141 -31 -115 -32 -147
-6 -181 11 -14 20 -28 20 -31 0 -3 14 -27 30 -53 17 -26 30 -54 30 -62 0 -8
-22 -61 -50 -118 -57 -117 -69 -162 -70 -250 0 -63 0 -63 -29 -63 -16 0 -31
-6 -35 -15 -8 -21 -39 -19 -67 4 l-24 19 19 33 c74 126 77 136 70 254 -7 123
-18 162 -60 228 -31 48 -55 64 -147 98 -43 15 -64 30 -80 55 -25 39 -42 43
-57 14 -6 -11 -17 -20 -25 -20 -8 0 -15 -9 -15 -20 0 -13 -5 -18 -14 -14 -8 3
-25 -6 -37 -20 -13 -14 -31 -26 -41 -26 -11 0 -33 -7 -49 -16 -19 -9 -41 -13
-58 -9 -15 3 -103 6 -194 7 -153 1 -170 3 -216 26 -44 20 -51 28 -51 52 0 28
-15 48 -27 36 -3 -3 -8 -28 -11 -56 -3 -35 -9 -50 -19 -50 -9 0 -13 -6 -10
-14 7 -17 -26 -106 -66 -181 -17 -30 -27 -66 -27 -90 0 -22 -5 -56 -11 -75 -6
-19 -14 -82 -18 -138 l-6 -104 -40 -14 c-36 -12 -41 -12 -60 6 -12 11 -29 20
-38 20 -14 0 -14 4 3 43 11 23 20 50 20 60 0 10 10 36 21 59 17 33 20 52 15
92 -3 27 -2 54 3 60 30 40 52 207 32 244 -6 9 -12 28 -15 42 -4 14 -26 40 -51
59 l-46 34 26 27 c30 31 30 34 8 128 l-17 73 92 86 c51 47 106 106 124 132 74
110 112 130 180 95 21 -11 46 -15 74 -11 23 2 47 0 51 -4 5 -5 57 -11 115 -14
100 -4 109 -2 163 24 44 22 67 27 96 24 34 -5 109 8 235 39 27 6 48 7 60 0 11
-5 42 -8 69 -6 62 4 111 -11 142 -44 29 -32 47 -24 79 32 24 42 55 164 57 220
1 42 9 45 32 14z m-1295 -229 c0 -4 -6 -14 -12 -21 -7 -7 -21 -29 -31 -49 -10
-20 -39 -60 -65 -89 -46 -53 -172 -163 -179 -156 -10 9 22 54 52 75 37 25 85
93 110 156 9 22 22 54 30 70 7 17 18 43 25 60 l12 29 29 -33 c16 -19 29 -37
29 -42z m-452 -291 c10 -26 9 -36 -4 -56 -15 -23 -16 -23 -35 -6 -11 10 -19
30 -19 50 0 30 4 35 40 43 3 0 11 -13 18 -31z m129 -40 c-3 -8 -6 -5 -6 6 -1
11 2 17 5 13 3 -3 4 -12 1 -19z m-9 -119 l0 -71 -27 7 c-14 4 -27 8 -28 9 -6
6 40 126 47 126 5 0 9 -32 8 -71z m57 -66 c-12 -32 -25 -8 -24 45 l1 57 14
-45 c8 -25 12 -51 9 -57z m1180 -173 c71 -24 98 -50 134 -130 32 -70 28 -98
-24 -159 -25 -29 -45 -57 -45 -62 0 -6 -9 -31 -21 -56 -11 -25 -23 -61 -26
-79 -5 -32 -6 -33 -52 -30 -72 5 -75 6 -89 15 -14 8 -11 13 58 131 5 8 22 38
38 66 36 62 67 164 59 196 -8 28 -66 90 -124 129 -24 17 -43 33 -43 38 0 21
15 17 41 -9 16 -16 57 -38 94 -50z m-1119 -47 c17 -47 11 -115 -16 -187 -15
-40 -20 -70 -16 -95 4 -27 -1 -49 -19 -86 -13 -28 -25 -60 -25 -73 0 -30 -28
-95 -37 -90 -5 3 -23 11 -40 18 -18 8 -33 17 -33 21 0 3 19 55 41 115 23 61
42 129 43 155 2 34 9 55 29 78 31 37 47 88 47 150 0 50 8 48 26 -6z m1022
-492 c15 -9 6 -61 -12 -73 -21 -15 -36 -8 -36 16 0 35 -18 42 -30 12 -5 -14
-14 -26 -19 -26 -21 0 -19 17 5 48 26 32 63 42 92 23z m-1180 -47 c30 -21 28
-38 -4 -30 -15 4 -32 2 -40 -5 -19 -15 -31 15 -14 36 16 19 30 19 58 -1z
m1396 -29 c11 -8 28 -15 38 -15 10 0 21 -7 24 -15 9 -22 -14 -45 -46 -45 -21
0 -29 6 -34 25 -7 29 -26 24 -26 -6 0 -11 -7 -19 -16 -19 -12 0 -14 7 -9 33
13 57 33 69 69 42z m-1273 -21 c11 -13 11 -20 -1 -42 -21 -37 -40 -39 -40 -5
l-1 28 -20 -24 c-14 -17 -23 -21 -30 -14 -8 8 -4 20 12 42 25 34 59 40 80 15z"></path>
<path class="node" id="node2" d="M942 1831 c-23 -21 -42 -44 -42 -50 0 -17 14 -13 28 9 14 23 37 27
28 5 -10 -28 14 -15 34 18 38 61 11 72 -48 18z"></path>
<path class="node" id="node3" d="M697 1703 c-50 -6 -72 -37 -56 -81 12 -35 36 -41 79 -19 21 11 25 20
25 60 1 26 -2 46 -5 45 -3 -1 -22 -3 -43 -5z m17 -29 c17 -7 22 -34 6 -34 -5
0 -10 7 -10 16 0 9 -7 14 -17 12 -11 -2 -18 -12 -17 -25 0 -12 -3 -20 -8 -17
-13 8 -9 42 5 47 18 8 23 8 41 1z"></path>
<path class="node" id="node4" d="M1000 1581 c0 -6 5 -13 10 -16 6 -3 10 1 10 9 0 9 -4 16 -10 16 -5 0
-10 -4 -10 -9z"></path>
<path class="node" id="node5" d="M954 1556 c-8 -22 3 -33 18 -18 9 9 9 15 0 24 -9 9 -13 7 -18 -6z"></path>
<path class="node" id="node6" d="M1871 1497 c-21 -24 -29 -43 -12 -32 5 3 12 1 16 -5 3 -5 15 -10 25
-10 22 0 39 22 22 28 -7 2 -12 10 -12 17 0 24 -17 25 -39 2z"></path>
<path class="node" id="node7" d="M2140 1505 c-8 -9 -8 -15 -2 -15 12 0 26 19 19 26 -2 2 -10 -2 -17
-11z"></path>
<path class="node" id="node8" d="M1990 1495 c-10 -12 -10 -15 3 -15 8 0 17 7 21 15 3 8 2 15 -3 15 -5
0 -14 -7 -21 -15z"></path>
<path class="node" id="node9" d="M2050 1495 c-7 -8 -8 -15 -2 -15 5 0 15 7 22 15 7 8 8 15 2 15 -5 0
-15 -7 -22 -15z"></path>
<path class="node" id="node10" d="M2400 1485 c-5 -14 -16 -25 -25 -25 -8 0 -15 -4 -15 -10 0 -15 26
-12 40 4 6 8 21 16 33 18 12 2 23 12 26 23 3 17 1 18 -13 6 -10 -9 -16 -10
-16 -2 0 21 -20 11 -30 -14z"></path>
<path class="node" id="node11" d="M2241 1486 c-8 -9 -11 -19 -7 -23 9 -9 29 13 24 27 -2 8 -8 7 -17 -4z"></path>
<path class="node" id="node12" d="M1330 1462 c0 -7 69 -32 90 -32 22 0 8 19 -21 29 -37 13 -69 14 -69
3z"></path>
<path class="node" id="node13" d="M1489 1447 c7 -9 27 -17 44 -17 40 0 24 17 -23 26 -32 7 -34 6 -21
-9z"></path>
<path class="node" id="node14" d="M1681 1449 c-13 -5 -21 -12 -18 -15 9 -9 57 5 57 16 0 12 -7 12 -39
-1z"></path>
<path class="node" id="node15" d="M1765 1440 c-15 -17 -16 -20 -3 -20 19 0 42 26 30 34 -5 3 -17 -3
-27 -14z"></path>
<path class="node" id="node16" d="M2296 1435 c-3 -9 0 -15 8 -15 8 0 16 7 20 15 3 9 0 15 -8 15 -8 0
-16 -7 -20 -15z"></path>
<path class="node" id="node17" d="M1555 1390 c3 -5 15 -10 26 -10 10 0 19 5 19 10 0 6 -12 10 -26 10
-14 0 -23 -4 -19 -10z"></path>
<path class="node" id="node18" d="M2057 974 c-12 -13 -8 -23 18 -40 35 -23 40 -13 12 20 -13 14 -26 23
-30 20z"></path>
<path class="node" id="node19" d="M2110 966 c0 -8 31 -36 41 -36 5 0 4 9 -3 20 -11 17 -38 28 -38 16z"></path>
<path class="node" id="node20" d="M1420 930 c11 -21 70 -56 70 -42 0 12 -57 62 -70 62 -7 0 -7 -6 0
-20z"></path>
<path class="node" id="node21" d="M1510 915 c7 -8 22 -15 34 -15 21 1 21 1 2 15 -27 21 -53 20 -36 0z"></path>
<path class="node" id="node22" d="M1116 898 c-11 -41 -8 -52 9 -38 16 13 21 60 6 60 -5 0 -11 -10 -15
-22z"></path>
<path class="node" id="node23" d="M1595 910 c3 -5 13 -10 21 -10 8 0 14 5 14 10 0 6 -9 10 -21 10 -11
0 -17 -4 -14 -10z"></path>
<path class="node" id="node24" d="M2366 705 c-8 -23 -8 -35 3 -35 13 0 23 32 13 42 -6 6 -12 3 -16 -7z"></path>
<path class="node" id="node25" d="M2400 680 c0 -5 5 -10 10 -10 6 0 10 5 10 10 0 6 -4 10 -10 10 -5 0
-10 -4 -10 -10z"></path>
<path class="node" id="node26" d="M670 1256 c0 -14 5 -28 10 -31 6 -3 10 5 10 19 0 14 -4 28 -10 31 -6
3 -10 -5 -10 -19z"></path>
</g>
<g transform="translate(0.000000,240.000000) scale(0.100000,-0.100000)" fill="#FFFFFF" stroke="none">

<path class="node" id="node28" d="M790 2262 c-34 -19 -51 -42 -31 -42 6 0 11 -5 11 -11 0 -7 -10 -9
-26 -5 -28 7 -54 -7 -54 -30 0 -8 7 -14 15 -14 8 0 15 -4 15 -10 0 -5 -13 -10
-29 -10 -21 0 -30 -6 -34 -22 -7 -26 -1 -38 19 -38 21 0 107 89 123 127 7 18
19 38 27 44 15 12 19 29 6 29 -4 0 -23 -8 -42 -18z"></path>
<path class="node" id="node29" d="M894 2187 c-28 -12 -58 -28 -68 -36 -15 -13 -15 -14 0 -26 23 -16 1
-30 -25 -15 -25 13 -27 13 -45 -6 -22 -22 -20 -33 10 -44 37 -14 21 -31 -17
-18 -25 8 -33 8 -40 -3 -14 -21 -6 -42 19 -55 50 -25 24 -32 -31 -9 -16 7 -18
4 -15 -21 2 -23 10 -31 36 -39 43 -12 41 -28 -3 -23 -30 3 -35 1 -35 -18 0
-34 42 -89 72 -92 43 -5 57 19 46 74 -12 56 2 135 37 205 31 61 96 119 134
119 37 0 49 16 18 24 -32 8 -37 8 -93 -17z"></path>
<path class="node" id="node30" d="M634 2035 c-7 -29 3 -63 15 -49 5 5 13 24 19 42 10 29 9 32 -8 32
-13 0 -22 -9 -26 -25z"></path>
<path class="node" id="node31" d="M626 1962 c-5 -9 9 -90 18 -99 3 -4 6 19 6 50 0 51 -10 71 -24 49z"></path>
<path class="node" id="node32" d="M971 1884 c-56 -31 -79 -51 -98 -88 -10 -19 -18 -25 -25 -18 -7 7 -6
17 1 30 13 25 14 32 2 32 -5 0 -12 -11 -15 -25 -18 -70 -95 -88 -148 -34 -39
39 -69 33 -102 -20 -30 -47 -46 -103 -46 -163 0 -25 -8 -66 -18 -90 -24 -54
-46 -147 -38 -155 3 -3 14 2 25 11 21 19 42 3 22 -17 -6 -6 -11 -15 -11 -19 0
-14 58 -9 73 7 16 16 30 63 25 86 -3 14 18 15 52 3 13 -5 13 -7 -1 -18 -25
-17 -51 -84 -36 -89 21 -8 44 11 80 65 19 29 53 68 76 86 23 18 41 38 41 45 1
22 36 61 44 48 15 -23 -7 -75 -50 -116 l-43 -43 21 -18 c11 -11 27 -34 34 -51
l14 -33 45 32 c54 38 91 94 135 204 l33 82 -29 46 c-31 49 -53 62 -81 48 -43
-22 -36 3 14 56 62 64 86 103 77 126 -8 21 -20 19 -73 -10z m36 -30 c4 -12
-34 -74 -47 -74 -5 0 -7 7 -4 15 9 22 -14 18 -28 -5 -14 -22 -28 -26 -28 -9 0
15 82 90 94 86 6 -2 11 -7 13 -13z m-262 -191 c0 -40 -4 -49 -25 -60 -43 -22
-67 -16 -79 19 -16 44 6 75 56 81 21 2 40 4 43 5 3 1 6 -19 5 -45z m275 -89
c0 -8 -4 -12 -10 -9 -5 3 -10 10 -10 16 0 5 5 9 10 9 6 0 10 -7 10 -16z m-48
-36 c-15 -15 -26 -4 -18 18 5 13 9 15 18 6 9 -9 9 -15 0 -24z"></path>
<path class="node" id="node33" d="M673 1673 c-14 -5 -18 -39 -5 -47 5 -3 8 5 8 17 -1 13 6 23 17 25 10
2 17 -3 17 -12 0 -9 5 -16 10 -16 16 0 11 27 -6 34 -18 7 -23 7 -41 -1z"></path>
<path class="node" id="node34" d="M2423 1774 c-2 -56 -33 -178 -57 -220 -32 -56 -50 -64 -79 -32 -31
33 -80 48 -142 44 -27 -2 -58 1 -69 6 -12 7 -33 6 -60 0 -126 -31 -201 -44
-235 -39 -29 3 -52 -2 -96 -24 -54 -26 -63 -28 -163 -24 -58 3 -110 9 -115 14
-4 4 -28 6 -51 4 -28 -4 -53 0 -74 11 -68 35 -106 15 -180 -95 -18 -26 -73
-85 -124 -132 l-92 -86 17 -73 c22 -94 22 -97 -8 -128 l-26 -27 46 -34 c25
-19 47 -45 51 -59 3 -14 9 -33 15 -42 20 -37 -2 -204 -32 -244 -5 -6 -6 -33
-3 -60 5 -40 2 -59 -15 -92 -11 -23 -21 -49 -21 -59 0 -10 -9 -37 -20 -60 -17
-39 -17 -43 -3 -43 9 0 26 -9 38 -20 19 -18 24 -18 60 -6 l40 14 6 104 c4 56
12 119 18 138 6 19 11 53 11 75 0 24 10 60 27 90 40 75 73 164 66 181 -3 8 1
14 10 14 10 0 16 15 19 50 3 28 8 53 11 56 12 12 27 -8 27 -36 0 -24 7 -32 51
-52 46 -23 63 -25 216 -26 91 -1 179 -4 194 -7 17 -4 39 0 58 9 16 9 38 16 49
16 10 0 28 12 41 26 12 14 29 23 37 20 9 -4 14 1 14 14 0 11 7 20 15 20 8 0
19 9 25 20 15 29 32 25 57 -14 16 -25 37 -40 80 -55 92 -34 116 -50 147 -98
42 -66 53 -105 60 -228 7 -118 4 -128 -70 -254 l-19 -33 24 -19 c28 -23 59
-25 67 -4 4 9 19 15 35 15 29 0 29 0 29 63 1 88 13 133 70 250 28 57 50 110
50 118 0 8 -13 36 -30 62 -16 26 -30 50 -30 53 0 3 -9 17 -20 31 -26 34 -25
66 6 181 20 73 24 107 19 141 -11 73 -13 164 -3 191 5 14 27 44 50 67 32 33
39 46 34 66 -4 17 3 40 21 72 l26 47 -26 -16 c-33 -22 -41 -8 -22 38 17 40 9
91 -20 134 -23 31 -31 28 -32 -14z m-513 -279 c0 -7 5 -15 12 -17 17 -6 0 -28
-22 -28 -10 0 -22 5 -25 10 -4 6 -11 8 -16 5 -17 -11 -9 8 12 32 22 23 39 22
39 -2z m245 6 c-3 -6 -11 -11 -17 -11 -6 0 -6 6 2 15 14 17 26 13 15 -4z
m-141 -6 c-4 -8 -13 -15 -21 -15 -13 0 -13 3 -3 15 7 8 16 15 21 15 5 0 6 -7
3 -15z m56 0 c-7 -8 -17 -15 -22 -15 -6 0 -5 7 2 15 7 8 17 15 22 15 6 0 5 -7
-2 -15z m360 4 c0 -8 6 -7 16 2 14 12 16 11 13 -6 -3 -11 -14 -21 -26 -23 -12
-2 -27 -10 -33 -18 -14 -16 -40 -19 -40 -4 0 6 7 10 15 10 9 0 20 11 25 25 10
25 30 35 30 14z m-179 -32 c-16 -16 -26 0 -10 19 9 11 15 12 17 4 2 -6 -1 -17
-7 -23z m-852 -8 c29 -10 43 -29 21 -29 -21 0 -90 25 -90 32 0 11 32 10 69 -3z
m155 -19 c7 -7 -1 -10 -21 -10 -17 0 -37 8 -44 17 -13 15 -11 16 21 9 19 -3
39 -11 44 -16z m166 10 c0 -11 -48 -25 -57 -16 -3 3 5 10 18 15 32 13 39 13
39 1z m69 -16 c-6 -8 -18 -14 -27 -14 -13 0 -12 3 3 20 20 22 43 17 24 -6z
m535 1 c-4 -8 -12 -15 -20 -15 -8 0 -11 6 -8 15 4 8 12 15 20 15 8 0 11 -6 8
-15z m-724 -45 c0 -5 -9 -10 -19 -10 -11 0 -23 5 -26 10 -4 6 5 10 19 10 14 0
26 -4 26 -10z m505 -468 c-6 -6 -55 26 -55 37 0 21 16 19 37 -5 13 -15 21 -29
18 -32z m43 28 c15 -24 0 -27 -22 -4 -19 19 -20 24 -3 24 7 0 18 -9 25 -20z
m-688 -27 c17 -14 30 -30 30 -35 0 -14 -59 21 -70 42 -15 29 4 26 40 -7z m86
-8 c19 -14 19 -14 -2 -15 -12 0 -27 7 -34 15 -17 20 9 21 36 0z m-406 -19 c0
-13 -7 -29 -15 -36 -17 -14 -20 -3 -9 38 8 29 24 28 24 -2z m490 14 c0 -5 -6
-10 -14 -10 -8 0 -18 5 -21 10 -3 6 3 10 14 10 12 0 21 -4 21 -10z m754 -223
c-7 -18 -24 -23 -24 -8 0 22 13 42 22 33 5 -5 6 -16 2 -25z m36 -7 c0 -5 -4
-10 -10 -10 -5 0 -10 5 -10 10 0 6 5 10 10 10 6 0 10 -4 10 -10z"></path>
<path class="node" id="node35" d="M1090 1605 c-7 -17 -18 -43 -25 -60 -8 -16 -21 -48 -30 -70 -25 -63
-73 -131 -110 -156 -30 -21 -62 -66 -52 -75 7 -7 133 103 179 156 26 29 55 69
65 89 10 20 24 42 31 49 17 19 16 25 -17 63 l-29 33 -12 -29z"></path>
<path class="node" id="node36" d="M668 1293 c-25 -6 -24 -65 1 -87 19 -17 20 -17 35 6 13 20 14 30 4
56 -7 18 -15 31 -18 31 -3 -1 -13 -3 -22 -6z m22 -49 c0 -14 -4 -22 -10 -19
-5 3 -10 17 -10 31 0 14 4 22 10 19 6 -3 10 -17 10 -31z"></path>
<path class="node" id="node37" d="M831 1234 c0 -11 3 -14 6 -6 3 7 2 16 -1 19 -3 4 -6 -2 -5 -13z"></path>
<path class="node" id="node38" d="M791 1118 c-11 -34 -20 -63 -18 -64 1 -1 14 -5 28 -9 l27 -7 0 71 c1
39 -3 71 -8 71 -4 0 -18 -28 -29 -62z"></path>
<path class="node" id="node39" d="M861 1088 c-1 -34 3 -58 9 -58 19 0 21 24 6 70 l-14 45 -1 -57z"></path>
<path class="node" id="node40" d="M1936 943 c-12 -13 -5 -23 37 -52 58 -39 116 -101 124 -129 8 -32
-23 -134 -59 -196 -16 -28 -33 -58 -38 -66 -69 -118 -72 -123 -58 -131 14 -9
17 -10 89 -15 46 -3 47 -2 52 30 3 18 15 54 26 79 12 25 21 50 21 56 0 5 20
33 45 62 52 61 56 89 24 159 -36 80 -63 106 -134 130 -37 12 -78 34 -94 50
-16 16 -31 26 -35 23z"></path>
<path class="node" id="node41" d="M920 829 c0 -62 -16 -113 -47 -150 -20 -23 -27 -44 -29 -78 -1 -26
-20 -94 -43 -155 -22 -60 -41 -112 -41 -115 0 -4 15 -13 33 -21 17 -7 35 -15
40 -18 9 -5 37 60 37 90 0 13 12 45 25 73 18 37 23 59 19 86 -4 25 1 55 16 95
27 72 33 140 16 187 -18 54 -26 56 -26 6z"></path>
<path class="node" id="node42" d="M1876 308 c-24 -31 -26 -48 -5 -48 5 0 14 12 19 26 12 30 30 23 30
-12 0 -43 42 -27 54 20 14 56 -57 66 -98 14z"></path>
<path class="node" id="node43" d="M730 285 c-17 -21 -5 -51 14 -36 8 7 25 9 40 5 32 -8 34 9 4 30 -28
20 -42 20 -58 1z"></path>
<path class="node" id="node44" d="M2132 258 c-5 -7 -13 -28 -17 -45 -5 -26 -3 -33 9 -33 9 0 16 8 16
19 0 30 19 35 26 6 5 -19 13 -25 34 -25 32 0 55 23 46 45 -3 8 -14 15 -24 15
-10 0 -27 7 -38 15 -24 18 -39 19 -52 3z"></path>
<path class="node" id="node45" d="M831 219 c-16 -22 -20 -34 -12 -42 7 -7 16 -3 30 14 l20 24 1 -28 c0
-34 19 -32 40 5 12 22 12 29 1 42 -21 25 -55 19 -80 -15z"></path>
</g>
</svg>