<!--?xml version="1.0" standalone="no"?-->

<svg version="1.0" xmlns="http://www.w3.org/2000/svg" width="225.000000pt" height="300.000000pt" viewBox="0 0 225.000000 300.000000" preserveAspectRatio="xMidYMid meet">
<g transform="translate(0.000000,300.000000) scale(0.100000,-0.100000)" fill="#343434" stroke="none">

<path class="node" id="node2" d="M1109 2935 c-20 -13 -53 -43 -73 -67 -24 -30 -36 -38 -36 -25 0 41
-48 8 -73 -52 -8 -19 -17 -29 -21 -23 -22 36 -72 -46 -82 -133 l-7 -57 -53
-24 c-147 -65 -257 -194 -307 -359 -8 -27 -26 -72 -41 -99 -38 -72 -32 -159
14 -208 12 -13 31 -41 42 -63 11 -22 30 -53 40 -68 11 -16 19 -30 17 -31 -2
-2 -22 -13 -45 -24 -49 -25 -67 -45 -62 -69 3 -14 12 -17 42 -15 41 3 40 5 19
-45 -7 -16 35 -41 82 -48 50 -8 65 6 72 68 l5 43 82 -29 c74 -26 90 -28 176
-24 52 3 105 8 118 12 19 6 22 4 22 -18 0 -32 48 -69 93 -71 30 -1 32 1 35 36
l3 37 32 -19 c63 -39 160 -19 186 36 10 24 10 30 -7 46 -10 11 -40 25 -66 31
l-48 12 51 33 c27 18 76 61 108 97 l59 63 34 -49 c49 -72 114 -129 147 -129
39 0 108 78 156 178 34 70 41 97 45 162 l4 79 -33 20 c-19 12 -47 21 -64 21
-16 0 -40 3 -53 6 l-23 7 22 15 c58 40 77 182 39 284 -28 74 -70 122 -142 157
-107 54 -170 36 -204 -57 -38 -104 -44 -116 -55 -105 -6 6 -3 25 11 57 27 65
35 118 20 146 -11 21 -16 22 -92 15 l-81 -7 8 94 c11 122 9 147 -11 169 -23
26 -62 24 -105 -6z m72 -49 c10 -38 -5 -117 -35 -180 -14 -29 -28 -64 -31 -79
-4 -15 -14 -27 -22 -27 -16 0 -12 22 17 83 9 20 14 37 10 37 -4 0 -18 -27 -33
-60 -19 -46 -29 -59 -42 -54 -9 4 -14 9 -12 13 1 3 15 33 30 66 15 33 34 73
42 89 9 16 14 31 11 33 -2 3 -26 -40 -53 -96 -26 -55 -54 -100 -60 -101 -16 0
-17 -4 7 65 11 32 18 60 17 62 -2 2 -17 -26 -32 -62 -31 -70 -54 -86 -48 -32
l3 32 -14 -35 c-10 -28 -18 -35 -40 -35 -14 1 -26 -3 -26 -7 0 -4 -7 -8 -15
-8 -19 0 -19 23 1 89 16 55 34 63 45 20 l6 -24 12 28 c6 16 11 33 11 38 0 17
30 69 40 69 5 0 7 -13 4 -30 -9 -43 6 -36 46 21 40 56 117 121 139 117 8 -2
18 -16 22 -32z m23 -222 c11 -4 10 -13 -5 -41 -10 -20 -20 -40 -22 -46 -2 -6
-11 -5 -26 2 -25 14 -24 28 7 110 l16 45 8 -33 c5 -17 15 -34 22 -37z m152
-30 c16 -24 16 -29 0 -79 -18 -58 -31 -74 -48 -57 -8 8 -6 19 7 39 l18 28 -26
-24 c-37 -33 -54 -17 -24 22 41 55 40 64 -2 19 -45 -49 -70 -49 -45 -1 8 17
13 33 11 35 -2 3 -10 -9 -17 -26 -7 -16 -16 -30 -21 -30 -13 0 -11 16 5 55 11
25 22 35 43 38 68 10 82 7 99 -19z m146 -10 c4 -3 -5 -22 -18 -41 -23 -34 -30
-53 -19 -53 2 0 18 20 35 45 28 41 33 44 53 34 12 -7 24 -13 26 -15 2 -2 -7
-18 -21 -36 -48 -64 -51 -85 -4 -35 24 26 48 47 53 47 5 0 20 -11 32 -24 l22
-23 -65 -52 c-95 -74 -85 -78 22 -10 25 16 49 29 52 29 6 0 30 -45 30 -55 0
-3 -27 -19 -61 -36 -76 -38 -71 -49 9 -16 l60 24 5 -26 c7 -35 2 -40 -44 -47
-22 -4 -41 -10 -44 -14 -5 -8 59 -5 74 4 15 9 24 -12 17 -40 -6 -21 -12 -24
-54 -24 -38 -1 -43 -3 -29 -11 10 -6 24 -9 30 -6 7 2 20 1 30 -2 18 -7 18 -8
-1 -31 -20 -24 -21 -24 -93 -12 -40 7 -76 17 -79 23 -4 5 -6 -15 -6 -45 l1
-55 40 7 c22 4 86 7 143 7 105 0 121 -6 122 -44 0 -11 -14 -12 -70 -7 -100 10
-113 -6 -15 -19 l80 -10 -3 -30 c-2 -16 -5 -31 -6 -32 -1 -2 -49 9 -105 23
-57 14 -108 23 -114 20 -7 -2 -3 -5 8 -5 12 -1 25 -5 30 -10 6 -4 39 -16 75
-26 98 -26 102 -29 84 -65 -9 -16 -20 -30 -26 -30 -5 0 -46 16 -90 35 -44 20
-82 34 -85 32 -2 -3 32 -23 76 -46 44 -23 83 -46 86 -51 8 -12 -24 -60 -40
-60 -7 0 -33 16 -59 36 -65 49 -69 36 -6 -17 l52 -44 -22 -17 c-12 -10 -30
-18 -39 -18 -17 0 -89 77 -125 133 -10 15 -24 27 -32 27 -10 0 -10 8 3 38 11
25 17 67 17 127 0 76 -4 99 -26 147 -49 107 -131 207 -234 286 l-29 22 45 -21
c25 -12 67 -40 94 -63 33 -27 48 -35 43 -22 -4 11 -2 28 6 40 8 12 24 48 36
81 25 67 54 99 73 79z m-367 -88 c159 -74 307 -255 335 -408 12 -65 0 -156
-29 -223 -10 -23 -44 -68 -76 -100 -31 -33 -43 -42 -25 -20 18 21 47 69 64
105 29 60 31 73 31 171 l0 105 -50 82 c-101 168 -245 287 -374 312 -75 14 -79
24 -6 16 34 -4 90 -21 130 -40z m-99 -11 c143 -54 278 -184 359 -345 25 -49
27 -62 22 -130 -10 -148 -76 -254 -214 -345 -103 -68 -287 -107 -403 -85 -67
13 -163 57 -209 96 -32 27 -91 100 -91 113 0 3 27 4 59 3 79 -5 139 22 180 78
37 51 47 97 31 144 -15 46 -67 101 -113 121 -42 17 -129 20 -159 4 -18 -10
-19 -8 -13 13 3 12 18 49 32 80 21 45 35 62 65 78 21 11 47 20 58 20 11 0 20
5 20 11 0 7 -14 10 -35 7 -19 -2 -35 -1 -35 3 0 11 102 95 139 114 104 53 202
60 307 20z m579 -349 l50 -13 -40 -6 c-22 -3 -48 -7 -59 -9 -12 -2 -21 5 -27
20 -10 26 1 28 76 8z m-970 -14 c55 -27 84 -55 100 -94 20 -51 19 -73 -6 -124
-16 -35 -32 -49 -81 -74 -68 -33 -83 -35 -139 -19 -124 37 -145 220 -35 299
46 34 108 38 161 12z m-80 -461 c3 -5 -6 -21 -20 -35 -14 -14 -25 -33 -25 -43
0 -13 -3 -14 -12 -5 -7 7 -25 12 -40 12 -34 0 -35 10 -5 37 43 39 89 55 102
34z m48 -39 c9 -10 14 -27 12 -37 -15 -76 -15 -75 -45 -75 -38 0 -80 19 -80
37 0 8 4 12 9 8 5 -3 13 5 17 17 l7 23 9 -25 c7 -19 11 -21 18 -10 7 11 11 11
24 1 11 -10 16 -10 16 -2 0 6 -8 15 -17 18 -26 9 -33 24 -22 45 12 23 31 23
52 0z m719 -10 c39 -16 41 -28 8 -55 -54 -46 -115 -43 -167 5 -13 12 -23 17
-23 11 0 -6 -3 -19 -7 -29 -4 -12 -3 -15 5 -10 8 5 12 0 12 -14 0 -19 -5 -21
-41 -18 -46 3 -67 24 -55 54 6 16 9 16 16 4 9 -13 10 -13 11 0 1 8 5 2 9 -15
l8 -30 1 33 c0 17 6 32 11 32 6 0 10 -4 10 -10 0 -5 9 -1 20 10 25 25 35 25
74 1 17 -10 42 -22 56 -25 14 -4 1 5 -29 20 l-54 27 23 17 c23 18 52 16 112
-8z"></path>
<path class="node" id="node3" d="M1036 2774 c-9 -24 -2 -26 12 -4 7 11 8 20 3 20 -5 0 -12 -7 -15 -16z"></path>
<path class="node" id="node4" d="M1136 2755 c-9 -14 -13 -25 -8 -25 5 0 14 11 20 25 6 14 10 25 8 25
-2 0 -11 -11 -20 -25z"></path>
<path class="node" id="node5" d="M1003 2474 c-22 -10 -14 -26 10 -21 12 3 40 -1 62 -8 46 -16 52 -14
26 9 -19 18 -77 29 -98 20z"></path>
<path class="node" id="node6" d="M993 2369 c-51 -10 -96 -42 -128 -90 -25 -37 -30 -54 -30 -106 0 -52
5 -68 30 -105 70 -100 211 -117 310 -36 107 88 75 257 -60 318 -50 23 -82 28
-122 19z m134 -45 c54 -31 96 -101 96 -159 0 -103 -128 -186 -240 -157 -117
31 -165 163 -101 270 50 82 151 101 245 46z"></path>
<path class="node" id="node7" d="M1002 2245 c-79 -66 -22 -194 81 -181 73 9 110 73 82 143 -27 66
-107 85 -163 38z m117 -3 c11 -20 -2 -42 -25 -42 -18 0 -26 30 -13 46 16 19
26 18 38 -4z"></path>
<path class="node" id="node8" d="M1083 1897 c-7 -23 -22 -56 -34 -71 -27 -35 -112 -76 -156 -76 -23 0
-33 -5 -33 -16 0 -45 185 -66 250 -28 51 29 65 65 51 127 -11 47 -44 107 -60
107 -4 0 -12 -19 -18 -43z m53 -32 c10 -17 6 -24 -24 -51 -29 -25 -36 -38 -36
-67 0 -34 -3 -37 -34 -43 -38 -7 -141 11 -157 28 -7 8 -5 9 7 5 27 -9 119 26
155 59 20 19 37 48 45 77 13 48 12 48 44 -8z m14 -69 c0 -24 -34 -76 -51 -76
-17 0 -9 47 12 74 25 32 39 33 39 2z"></path>
<path class="node" id="node9" d="M573 2096 c-52 -23 -77 -90 -52 -139 19 -38 51 -57 97 -57 35 0 49 6
73 29 80 81 -14 213 -118 167z m97 -31 c15 -18 5 -35 -20 -35 -20 0 -30 17
-22 38 6 16 27 15 42 -3z"></path>
<path class="node" id="node10" d="M1230 1650 c0 -5 5 -10 10 -10 6 0 10 5 10 10 0 6 -4 10 -10 10 -5 0
-10 -4 -10 -10z"></path>
<path class="node" id="node11" d="M1265 1640 c-5 -8 53 -26 60 -18 2 2 -9 9 -25 15 -17 6 -32 7 -35 3z"></path>
<path class="node" id="node12" d="M1174 1621 c4 -6 22 -18 39 -27 30 -14 31 -14 12 1 -30 25 -59 39
-51 26z"></path>
<path class="node" id="node13" d="M993 1344 c-50 -25 -62 -54 -73 -166 -12 -111 -24 -160 -44 -177 -7
-6 -40 -16 -72 -22 -86 -16 -130 -41 -144 -84 -18 -54 -5 -100 42 -151 l41
-45 -24 -26 c-41 -44 -110 -83 -148 -83 -22 0 -70 17 -125 45 -49 25 -97 45
-107 45 -72 0 -124 -221 -84 -356 18 -61 66 -137 100 -160 32 -21 49 -14 125
52 61 52 133 89 197 99 l42 7 -29 -54 c-37 -66 -41 -137 -10 -168 28 -28 116
-27 173 1 47 24 142 118 152 150 6 18 12 20 44 15 20 -3 72 -6 116 -6 75 0 78
-1 57 -16 -53 -37 -49 -76 12 -113 48 -30 88 -27 125 10 l31 31 0 -26 c0 -48
46 -46 105 5 40 35 45 67 20 126 -18 42 -18 43 -4 43 5 0 29 8 52 19 23 10 65
28 92 40 76 33 185 111 185 132 0 4 -21 21 -47 37 -27 17 -64 47 -83 67 l-35
36 40 -17 c51 -23 184 -25 209 -5 15 12 17 30 15 115 -2 65 1 109 9 123 7 12
12 44 12 72 0 38 -6 56 -25 80 -14 16 -34 32 -44 36 -9 3 -25 23 -34 44 -25
55 -83 128 -116 145 -63 33 -194 27 -329 -16 -30 -9 -37 -7 -80 27 -114 88
-264 128 -339 89z m234 -51 c29 -14 67 -38 85 -54 32 -27 33 -28 13 -43 -28
-21 -59 -20 -80 4 -10 12 -35 30 -54 42 -20 12 -38 25 -41 29 -3 3 -21 14 -40
23 l-35 17 27 -23 c15 -13 54 -43 87 -67 34 -25 61 -48 61 -52 0 -5 -15 -15
-34 -24 l-35 -17 -53 40 c-29 22 -73 49 -98 61 -43 21 -39 14 10 -19 13 -8 47
-33 76 -54 49 -35 52 -40 36 -52 -26 -20 -43 -17 -95 16 -51 32 -57 34 -57 22
0 -5 23 -21 50 -36 28 -15 50 -28 50 -30 0 -1 -18 -17 -40 -35 l-40 -32 -43
33 -42 33 10 75 c11 76 31 126 59 149 45 37 141 35 223 -6z m423 -59 c0 -3
-11 -15 -25 -26 -14 -11 -25 -24 -25 -30 0 -5 18 4 39 21 38 30 61 38 74 25 4
-4 -14 -22 -38 -41 -58 -44 -57 -50 2 -13 26 17 52 30 59 30 7 0 28 -19 48
-41 67 -79 126 -284 126 -440 0 -67 0 -67 -31 -74 -54 -12 -151 13 -215 56
-33 21 -61 34 -62 29 -11 -31 114 -175 176 -203 12 -6 22 -13 22 -17 0 -13
-64 -57 -123 -86 l-55 -27 -41 32 c-54 43 -137 136 -156 177 -20 43 -19 119 5
256 20 118 80 329 101 354 6 8 20 14 31 14 15 0 18 -5 13 -22 -5 -21 -4 -20
15 5 19 23 60 38 60 21z m-161 -51 c-20 -53 -71 -249 -85 -328 -8 -44 -14
-114 -14 -156 0 -67 3 -80 31 -125 18 -27 64 -82 104 -121 l73 -73 -38 -11
c-36 -11 -40 -10 -65 17 -60 66 -124 175 -136 232 -18 88 1 305 43 479 19 81
25 94 47 102 45 17 52 14 40 -16z m-118 -126 c-28 -142 -44 -298 -39 -382 5
-82 42 -166 112 -260 25 -33 42 -63 38 -66 -4 -4 -50 -17 -102 -29 -69 -15
-120 -20 -185 -18 -88 3 -90 4 -99 31 -8 22 -6 34 7 55 23 35 87 160 87 168 0
4 -23 -29 -51 -72 -69 -107 -86 -124 -124 -124 -17 0 -35 3 -38 7 -4 3 14 31
40 62 48 56 40 55 -30 -6 -20 -18 -40 -33 -45 -33 -4 0 -20 10 -35 23 l-28 22
89 58 c100 64 146 107 63 57 -30 -17 -80 -44 -112 -61 -56 -28 -59 -28 -69
-10 -5 11 -10 24 -10 30 0 11 157 91 178 91 7 0 10 4 7 10 -4 6 -13 6 -23 1
-9 -5 -53 -23 -96 -40 -61 -24 -82 -28 -88 -19 -19 31 -8 45 55 63 34 10 67
19 72 21 44 13 68 22 58 23 -12 1 -145 -26 -176 -35 -15 -5 -18 -1 -15 17 6
43 48 54 218 55 l155 1 3 31 c4 38 -40 126 -98 196 -22 27 -40 51 -40 55 1 27
330 215 338 192 2 -6 -6 -57 -17 -114z m-387 -46 c20 -21 19 -22 -24 -66 l-44
-45 -17 35 c-17 35 -17 36 8 75 28 42 40 42 77 1z m953 -25 c11 -23 13 -45 9
-70 -10 -53 -30 -46 -23 8 5 35 3 47 -12 60 -11 10 -21 26 -24 36 -8 32 31 5
50 -34z m-1065 -43 c22 -26 28 -61 12 -74 -13 -10 -46 -1 -96 28 -5 2 -8 2 -8
0 0 -2 19 -17 41 -32 37 -24 40 -28 26 -42 -14 -14 -19 -14 -56 5 -22 12 -43
17 -46 13 -2 -5 13 -16 36 -25 49 -20 47 -41 -5 -40 -39 1 -49 -10 -16 -19 13
-3 18 -10 14 -21 -3 -9 -10 -16 -15 -16 -16 0 -50 45 -59 81 -19 70 15 117
105 145 52 17 50 17 67 -3z m246 -117 c18 -36 32 -77 32 -91 0 -22 -3 -25 -21
-20 -12 4 -66 8 -119 8 l-97 1 4 65 c5 63 7 68 57 119 l51 53 31 -35 c17 -19
45 -65 62 -100z m-226 -65 c-7 -41 -10 -45 -50 -57 -60 -17 -82 -40 -82 -82 0
-52 61 -169 121 -232 61 -63 57 -66 -46 -48 -66 12 -71 15 -88 50 -24 48 -40
153 -32 206 5 37 19 56 93 133 48 49 88 86 89 82 2 -4 0 -28 -5 -52z m-446
-152 c35 -17 84 -34 109 -36 l45 -6 0 -51 c0 -28 7 -80 14 -116 8 -36 13 -65
12 -65 -18 -3 -114 -57 -152 -86 -51 -39 -68 -45 -98 -33 -16 6 -23 34 -8 34
4 1 23 15 42 31 l35 31 -53 -27 c-51 -25 -54 -25 -68 -8 -7 10 -14 21 -14 24
0 4 28 21 63 38 69 34 65 39 -13 14 -44 -14 -53 -15 -61 -2 -20 32 -10 47 36
54 25 3 63 13 83 20 l37 14 -50 -5 c-27 -3 -65 -7 -83 -9 -33 -4 -33 -3 -30
33 l3 37 65 -2 c47 -2 58 0 40 6 -14 5 -36 10 -50 10 -43 2 -56 16 -42 46 11
24 16 26 55 21 l42 -6 -32 15 c-36 16 -40 24 -21 43 17 17 23 16 94 -19z m258
-139 c3 -14 12 -46 19 -71 l14 -47 -41 -5 c-22 -3 -42 -4 -45 -2 -9 10 -31
124 -31 166 0 47 11 69 45 87 19 10 20 7 27 -46 3 -31 9 -68 12 -82z m380
-146 c9 -23 8 -24 -24 -24 -34 0 -38 7 -12 26 22 18 29 17 36 -2z m-315 -31
c-14 -16 -31 -37 -39 -48 -11 -16 -8 -15 15 5 17 13 38 33 47 43 10 10 22 17
28 15 5 -1 -13 -32 -40 -68 -27 -36 -49 -69 -50 -74 0 -16 30 16 77 80 42 57
73 80 73 55 0 -5 -23 -47 -50 -93 -40 -64 -44 -75 -20 -48 17 19 45 59 61 88
17 28 37 52 45 52 19 0 18 -14 -6 -60 -23 -45 -25 -54 -9 -44 6 3 20 27 31 51
13 29 25 43 35 41 28 -5 25 -23 -11 -70 -65 -85 -204 -128 -240 -76 -21 30
-20 56 5 123 18 47 24 55 47 55 l26 0 -25 -27z m725 -17 c22 -48 20 -63 -13
-97 -41 -41 -66 -39 -57 4 4 17 9 50 13 72 5 36 17 54 34 55 4 0 14 -15 23
-34z m-99 -18 c-17 -82 -69 -127 -121 -107 -58 21 -58 58 -2 99 54 40 64 28
13 -16 -22 -18 -35 -34 -28 -34 6 0 30 18 54 40 23 21 46 37 50 34 4 -2 10 0
14 6 14 23 26 9 20 -22z"></path>
<path class="node" id="node14" d="M1653 1100 c-41 -25 -53 -48 -53 -104 0 -57 14 -88 50 -109 57 -34
125 -12 154 50 30 63 10 140 -43 167 -40 21 -69 20 -108 -4z m121 -33 c77
-101 -47 -242 -128 -146 -46 54 -46 94 1 149 20 24 33 30 63 30 32 0 43 -6 64
-33z"></path>
<path class="node" id="node15" d="M1658 1029 c-22 -12 -24 -62 -4 -78 26 -22 69 -9 80 22 18 50 -30 84
-76 56z m52 -14 c0 -8 -4 -15 -9 -15 -13 0 -22 16 -14 24 11 11 23 6 23 -9z"></path>
<path class="node" id="node16" d="M1553 764 c2 -25 10 -51 16 -57 9 -9 10 -2 5 31 -7 43 -6 43 20 36
34 -8 34 7 -1 24 -42 19 -46 15 -40 -34z"></path>
<path class="node" id="node17" d="M1040 620 c0 -5 5 -10 10 -10 6 0 10 5 10 10 0 6 -4 10 -10 10 -5 0
-10 -4 -10 -10z"></path>
<path class="node" id="node18" d="M1478 227 c-3 -19 -2 -25 4 -19 6 6 8 18 6 28 -3 14 -5 12 -10 -9z"></path>
<path class="node" id="node19" d="M1451 220 c0 -15 -6 -31 -13 -38 -6 -6 -9 -14 -6 -18 10 -10 30 36
25 59 -4 20 -4 19 -6 -3z"></path>
<path class="node" id="node20" d="M1316 226 c-20 -24 -36 -48 -36 -52 0 -10 39 26 62 59 33 46 14 41
-26 -7z"></path>
<path class="node" id="node21" d="M1345 212 c-29 -38 -37 -52 -28 -52 10 0 58 69 52 74 -2 2 -13 -8
-24 -22z"></path>
</g>
<g transform="translate(0.000000,300.000000) scale(0.100000,-0.100000)" fill="#FFFFFF" stroke="none">

<path class="node" id="node23" d="M1100 2886 c-25 -20 -61 -58 -80 -85 -40 -57 -55 -64 -46 -21 3 17 1
30 -4 30 -10 0 -40 -52 -40 -69 0 -5 -5 -22 -11 -38 l-12 -28 -6 24 c-11 43
-29 35 -45 -20 -20 -66 -20 -89 -1 -89 8 0 15 4 15 8 0 4 12 8 26 7 22 0 30 7
40 35 l14 35 -3 -32 c-6 -54 17 -38 48 32 15 36 30 64 32 62 1 -2 -6 -30 -17
-62 -24 -69 -23 -65 -7 -65 6 1 34 46 60 101 27 56 51 99 53 96 3 -2 -2 -17
-11 -33 -8 -16 -27 -56 -42 -89 -15 -33 -29 -63 -30 -66 -2 -4 3 -9 12 -13 13
-5 23 8 42 54 15 33 29 60 33 60 4 0 -1 -17 -10 -37 -29 -61 -33 -83 -17 -83
8 0 18 12 22 27 3 15 17 50 31 79 44 94 51 204 13 212 -8 1 -35 -13 -59 -32z
m-52 -116 c-7 -10 -14 -18 -15 -16 -6 6 9 36 18 36 5 0 4 -9 -3 -20z m100 -15
c-6 -14 -15 -25 -20 -25 -5 0 -1 11 8 25 9 14 18 25 20 25 2 0 -2 -11 -8 -25z"></path>
<path class="node" id="node24" d="M1158 2689 c-31 -82 -32 -96 -7 -110 15 -7 24 -8 26 -2 2 6 12 26 22
46 15 28 16 37 5 41 -7 3 -17 20 -22 37 l-8 33 -16 -45z"></path>
<path class="node" id="node25" d="M1257 2653 c-21 -3 -32 -13 -43 -38 -16 -39 -18 -55 -5 -55 5 0 14
14 21 30 7 17 15 29 17 26 2 -2 -3 -18 -11 -35 -25 -48 0 -48 45 1 42 45 43
36 2 -19 -30 -39 -13 -55 24 -22 l26 24 -18 -28 c-13 -20 -15 -31 -7 -39 17
-17 30 -1 48 57 16 50 16 55 0 79 -17 26 -31 29 -99 19z"></path>
<path class="node" id="node26" d="M1467 2618 c-9 -7 -26 -40 -38 -73 -12 -33 -28 -69 -36 -81 -8 -12
-10 -29 -6 -40 5 -13 -10 -5 -43 22 -27 23 -69 51 -94 63 l-45 21 29 -22 c103
-79 185 -179 234 -286 22 -48 26 -71 26 -147 0 -60 -6 -102 -17 -127 -13 -30
-13 -38 -3 -38 8 0 22 -12 32 -27 36 -56 108 -133 125 -133 9 0 27 8 39 18
l22 17 -52 44 c-63 53 -59 66 6 17 26 -20 52 -36 59 -36 16 0 48 48 40 60 -3
5 -42 28 -86 51 -44 23 -78 43 -76 46 3 2 41 -12 85 -32 44 -19 85 -35 90 -35
6 0 17 14 26 30 18 36 14 39 -84 65 -36 10 -69 22 -75 26 -5 5 -18 9 -30 10
-11 0 -15 3 -8 5 6 3 57 -6 114 -20 56 -14 104 -25 105 -23 1 1 4 16 6 32 l3
30 -80 10 c-98 13 -85 29 15 19 56 -5 70 -4 70 7 -1 38 -17 44 -122 44 -57 0
-121 -3 -143 -7 l-40 -7 -1 55 c0 30 2 50 6 45 3 -6 39 -16 79 -23 72 -12 73
-12 93 12 19 23 19 24 1 31 -10 3 -23 4 -30 2 -6 -3 -20 0 -30 6 -14 8 -9 10
29 11 42 0 48 3 54 24 7 28 -2 49 -17 40 -15 -9 -79 -12 -74 -4 3 4 22 10 44
14 46 7 51 12 44 47 l-5 26 -60 -24 c-80 -33 -85 -22 -9 16 34 17 61 33 61 36
0 10 -24 55 -30 55 -3 0 -27 -13 -52 -29 -107 -68 -117 -64 -22 10 l65 52 -22
23 c-12 13 -27 24 -32 24 -5 0 -29 -21 -53 -47 -47 -50 -44 -29 4 35 14 18 23
34 21 36 -2 2 -14 8 -26 15 -20 10 -25 7 -53 -34 -17 -25 -33 -45 -35 -45 -11
0 -4 19 19 53 30 44 21 63 -17 35z"></path>
<path class="node" id="node27" d="M951 2576 c3 -3 30 -10 60 -16 129 -25 273 -144 374 -312 l50 -82 0
-105 c0 -98 -2 -111 -31 -171 -17 -36 -46 -84 -64 -105 -18 -22 -6 -13 25 20
65 67 88 112 105 203 26 148 -51 310 -217 454 -64 55 -173 105 -248 114 -33 3
-57 4 -54 0z"></path>
<path class="node" id="node28" d="M799 2535 c-20 -7 -51 -21 -70 -30 -37 -19 -139 -103 -139 -114 0 -4
16 -5 35 -3 21 3 35 0 35 -7 0 -6 -9 -11 -20 -11 -11 0 -37 -9 -58 -20 -30
-16 -44 -33 -65 -78 -14 -31 -29 -68 -32 -80 -6 -21 -5 -23 13 -13 30 16 117
13 159 -4 46 -20 98 -75 113 -121 16 -47 6 -93 -31 -144 -41 -56 -101 -83
-180 -78 -32 1 -59 0 -59 -3 0 -13 59 -86 91 -113 46 -39 142 -83 209 -96 116
-22 300 17 403 85 138 91 204 197 214 345 5 68 3 81 -22 130 -110 219 -313
371 -493 369 -37 0 -83 -6 -103 -14z m302 -81 c26 -23 20 -25 -26 -9 -22 7
-50 11 -62 8 -24 -5 -32 11 -10 21 21 9 79 -2 98 -20z m14 -104 c135 -61 167
-230 60 -318 -99 -81 -240 -64 -310 36 -25 37 -30 53 -30 105 0 52 5 69 30
106 32 48 77 80 128 90 40 9 72 4 122 -19z m14 -439 c12 -16 26 -51 32 -78 14
-62 0 -98 -51 -127 -65 -38 -250 -17 -250 28 0 11 10 16 33 16 44 0 129 41
156 76 12 15 27 48 34 71 6 24 14 43 18 43 4 0 17 -13 28 -29z"></path>
<path class="node" id="node29" d="M983 2351 c-128 -32 -174 -208 -80 -299 83 -80 227 -60 298 40 82
115 -70 295 -218 259z m141 -92 c36 -17 60 -82 46 -124 -15 -44 -41 -66 -87
-71 -103 -13 -160 115 -81 181 32 27 80 33 122 14z"></path>
<path class="node" id="node30" d="M1081 2246 c-13 -16 -5 -46 13 -46 23 0 36 22 25 42 -12 22 -22 23
-38 4z"></path>
<path class="node" id="node31" d="M1092 1873 c-8 -29 -25 -58 -45 -77 -36 -33 -128 -68 -155 -59 -12 4
-14 3 -7 -5 16 -17 119 -35 157 -28 31 6 34 9 34 43 0 29 7 42 36 67 30 27 34
34 24 51 -32 56 -31 56 -44 8z"></path>
<path class="node" id="node32" d="M1111 1794 c-21 -27 -29 -74 -12 -74 17 0 51 52 51 76 0 31 -14 30
-39 -2z"></path>
<path class="node" id="node33" d="M1539 2168 c6 -15 15 -22 27 -20 11 2 37 6 59 9 l40 6 -50 13 c-75
20 -86 18 -76 -8z"></path>
<path class="node" id="node34" d="M484 2150 c-110 -79 -89 -262 35 -299 56 -16 71 -14 139 19 49 25 65
39 81 74 25 51 26 73 6 124 -25 61 -99 108 -175 110 -35 1 -54 -4 -86 -28z
m209 -80 c61 -68 17 -170 -75 -170 -86 1 -132 76 -92 151 32 63 117 73 167 19z"></path>
<path class="node" id="node35" d="M628 2068 c-8 -21 2 -38 22 -38 25 0 35 17 20 35 -15 18 -36 19 -42
3z"></path>
<path class="node" id="node36" d="M505 1698 c-27 -15 -65 -50 -65 -60 0 -4 13 -8 28 -8 15 0 33 -5 40
-12 9 -9 12 -8 12 5 0 10 11 29 25 43 38 38 10 60 -40 32z"></path>
<path class="node" id="node37" d="M561 1662 c-11 -21 -4 -36 22 -45 9 -3 17 -12 17 -18 0 -8 -5 -8 -16
2 -13 10 -17 10 -24 -1 -7 -11 -11 -9 -18 10 l-9 25 -7 -23 c-4 -12 -12 -20
-17 -17 -5 4 -9 0 -9 -8 0 -18 42 -37 80 -37 30 0 30 -1 45 75 5 21 -21 55
-41 55 -7 0 -18 -8 -23 -18z"></path>
<path class="node" id="node38" d="M1220 1660 l-23 -17 54 -27 c30 -15 43 -24 29 -20 -14 3 -39 15 -56
25 -39 24 -49 24 -74 -1 -11 -11 -20 -15 -20 -10 0 6 -4 10 -10 10 -5 0 -11
-15 -11 -32 l-1 -33 -8 30 c-4 17 -8 23 -9 15 -1 -13 -2 -13 -11 0 -7 12 -10
12 -16 -4 -12 -30 9 -51 55 -54 36 -3 41 -1 41 18 0 14 -4 19 -12 14 -8 -5 -9
-2 -5 10 4 10 7 23 7 29 0 6 10 1 23 -11 52 -48 113 -51 167 -5 33 27 31 39
-8 55 -60 24 -89 26 -112 8z m30 -10 c0 -5 -4 -10 -10 -10 -5 0 -10 5 -10 10
0 6 5 10 10 10 6 0 10 -4 10 -10z m75 -28 c-7 -8 -65 10 -60 18 3 4 18 3 35
-3 16 -6 27 -13 25 -15z m-100 -27 c19 -15 18 -15 -12 -1 -17 9 -35 21 -39 27
-8 13 21 -1 51 -26z"></path>
<path class="node" id="node39" d="M1047 1320 c-60 -19 -86 -62 -102 -170 l-10 -75 42 -33 43 -33 40 32
c22 18 40 34 40 35 0 2 -22 15 -50 30 -27 15 -50 31 -50 36 0 12 6 10 57 -22
52 -33 69 -36 95 -16 16 12 13 17 -36 52 -29 21 -63 46 -76 54 -49 33 -53 40
-10 19 25 -12 69 -39 98 -61 l53 -40 35 17 c19 9 34 19 34 24 0 4 -27 27 -61
52 -33 24 -72 54 -87 67 l-27 23 35 -17 c19 -9 37 -20 40 -23 3 -4 21 -17 41
-29 19 -12 44 -30 54 -42 21 -24 52 -25 80 -4 20 15 19 16 -13 43 -77 66 -198
103 -265 81z"></path>
<path class="node" id="node40" d="M1590 1213 c-19 -25 -20 -26 -15 -5 5 17 2 22 -13 22 -11 0 -25 -6
-31 -14 -21 -25 -81 -236 -101 -354 -24 -137 -25 -213 -5 -256 19 -41 102
-134 156 -177 l41 -32 55 27 c59 29 123 73 123 86 0 4 -10 11 -22 17 -62 28
-187 172 -176 203 1 5 29 -8 62 -29 64 -43 161 -68 215 -56 31 7 31 7 31 74 0
156 -59 361 -126 440 -20 22 -41 41 -48 41 -7 0 -33 -13 -59 -30 -59 -37 -60
-31 -2 13 24 19 42 37 38 41 -13 13 -36 5 -74 -25 -21 -17 -39 -26 -39 -21 0
6 11 19 25 30 30 24 31 32 6 32 -11 0 -29 -12 -41 -27z m171 -109 c53 -27 73
-104 43 -167 -29 -62 -97 -84 -154 -50 -36 21 -50 52 -50 109 0 56 12 79 53
104 39 24 68 25 108 4z m-168 -306 c35 -17 35 -32 1 -24 -26 7 -27 7 -20 -36
5 -33 4 -40 -5 -31 -14 14 -25 103 -12 103 5 0 21 -6 36 -12z"></path>
<path class="node" id="node41" d="M1647 1070 c-47 -55 -47 -95 -1 -149 81 -96 205 45 128 146 -21 27
-32 33 -64 33 -30 0 -43 -6 -63 -30z m87 -52 c17 -28 -4 -72 -37 -76 -16 -2
-35 2 -43 9 -20 16 -18 66 4 78 24 15 63 9 76 -11z"></path>
<path class="node" id="node42" d="M1687 1024 c-8 -8 1 -24 14 -24 5 0 9 7 9 15 0 15 -12 20 -23 9z"></path>
<path class="node" id="node43" d="M1449 1199 c-22 -8 -28 -21 -47 -102 -42 -174 -61 -391 -43 -479 12
-57 76 -166 136 -232 25 -27 29 -28 65 -17 l38 11 -73 73 c-40 39 -86 94 -104
121 -28 45 -31 58 -31 125 0 42 6 112 14 156 14 79 65 275 85 328 12 30 5 33
-40 16z"></path>
<path class="node" id="node44" d="M1275 1126 c-101 -51 -225 -132 -225 -147 0 -4 18 -28 40 -55 58 -70
102 -158 98 -196 l-3 -31 -155 -1 c-170 -1 -212 -12 -218 -55 -3 -18 0 -22 15
-17 31 9 164 36 176 35 10 -1 -14 -10 -58 -23 -5 -2 -38 -11 -72 -21 -63 -18
-74 -32 -55 -63 6 -9 27 -5 88 19 43 17 87 35 96 40 10 5 19 5 23 -1 3 -6 0
-10 -7 -10 -21 0 -178 -80 -178 -91 0 -6 5 -19 10 -30 10 -18 13 -18 69 10 32
17 82 44 112 61 83 50 37 7 -63 -57 l-89 -58 28 -22 c15 -13 31 -23 35 -23 5
0 25 15 45 33 70 61 78 62 30 6 -26 -31 -44 -59 -40 -62 3 -4 21 -7 38 -7 38
0 55 17 124 124 28 43 51 76 51 72 0 -8 -64 -133 -87 -168 -13 -21 -15 -33 -7
-55 9 -27 11 -28 99 -31 65 -2 116 3 185 18 52 12 98 25 102 29 4 3 -13 33
-38 66 -70 94 -107 178 -112 260 -5 84 11 240 39 382 11 57 19 108 17 114 -2
6 -53 -15 -113 -45z m-215 -506 c0 -5 -4 -10 -10 -10 -5 0 -10 5 -10 10 0 6 5
10 10 10 6 0 10 -4 10 -10z"></path>
<path class="node" id="node45" d="M907 1010 c-25 -39 -25 -40 -8 -75 l17 -35 44 45 c43 44 44 45 24 66
-37 41 -49 41 -77 -1z"></path>
<path class="node" id="node46" d="M1887 1020 c3 -10 13 -26 24 -36 15 -13 17 -25 12 -60 -7 -54 13 -61
23 -8 8 42 -14 97 -45 113 -16 9 -18 8 -14 -9z"></path>
<path class="node" id="node47" d="M805 946 c-90 -28 -124 -75 -105 -145 9 -36 43 -81 59 -81 5 0 12 7
15 16 4 11 -1 18 -14 21 -33 9 -23 20 16 19 52 -1 54 20 5 40 -23 9 -38 20
-36 25 3 4 24 -1 46 -13 37 -19 42 -19 56 -5 14 14 11 18 -26 42 -22 15 -41
30 -41 32 0 2 3 2 8 0 50 -29 83 -38 96 -28 16 13 10 48 -12 74 -17 20 -15 20
-67 3z"></path>
<path class="node" id="node48" d="M974 908 c-50 -51 -52 -56 -57 -119 l-4 -65 97 -1 c53 0 107 -4 119
-8 18 -5 21 -2 21 20 0 34 -56 147 -94 191 l-31 35 -51 -53z"></path>
<path class="node" id="node49" d="M808 731 c-74 -77 -88 -96 -93 -133 -8 -53 8 -158 32 -206 17 -35 22
-38 88 -50 103 -18 107 -15 46 48 -60 63 -121 180 -121 232 0 42 22 65 82 82
40 12 43 16 50 57 5 24 7 48 5 52 -1 4 -41 -33 -89 -82z"></path>
<path class="node" id="node50" d="M352 628 c-19 -19 -15 -27 21 -43 l32 -15 -42 6 c-39 5 -44 3 -55
-21 -14 -30 -1 -44 42 -46 14 0 36 -5 50 -10 18 -6 7 -8 -40 -6 l-65 2 -3 -37
c-3 -36 -3 -37 30 -33 18 2 56 6 83 9 l50 5 -37 -14 c-20 -7 -58 -17 -83 -20
-46 -7 -56 -22 -36 -54 8 -13 17 -12 61 2 78 25 82 20 13 -14 -35 -17 -63 -34
-63 -38 0 -3 7 -14 14 -24 14 -17 17 -17 68 8 l53 27 -35 -31 c-19 -16 -38
-30 -42 -31 -15 0 -8 -28 8 -34 30 -12 47 -6 98 33 38 29 134 83 152 86 1 0
-4 29 -12 65 -7 36 -14 88 -14 116 l0 51 -45 6 c-25 2 -74 19 -109 36 -71 35
-77 36 -94 19z"></path>
<path class="node" id="node51" d="M665 598 c-34 -18 -45 -40 -45 -87 0 -42 22 -156 31 -166 3 -2 23 -1
45 2 l41 5 -14 47 c-18 62 -23 86 -31 153 -7 53 -8 56 -27 46z"></path>
<path class="node" id="node52" d="M1048 326 c-26 -19 -22 -26 12 -26 32 0 33 1 24 24 -7 19 -14 20 -36
2z"></path>
<path class="node" id="node53" d="M721 265 c-25 -67 -26 -93 -5 -123 36 -52 175 -9 240 76 36 47 39 65
11 70 -10 2 -22 -12 -35 -41 -11 -24 -25 -48 -31 -51 -16 -10 -14 -1 9 44 24
46 25 60 6 60 -8 0 -28 -24 -45 -52 -16 -29 -44 -69 -61 -88 -24 -27 -20 -16
20 48 27 46 50 88 50 93 0 25 -31 2 -73 -55 -47 -64 -77 -96 -77 -80 1 5 23
38 50 74 27 36 45 67 40 68 -6 2 -18 -5 -28 -15 -9 -10 -30 -30 -47 -43 -23
-20 -26 -21 -15 -5 8 11 25 32 39 48 l25 27 -26 0 c-23 0 -29 -8 -47 -55z"></path>
<path class="node" id="node54" d="M1454 302 c-6 -4 -14 -25 -17 -47 -4 -22 -9 -55 -13 -72 -9 -43 16
-45 57 -4 33 34 35 49 13 97 -17 35 -22 39 -40 26z m28 -94 c-6 -6 -7 0 -4 19
5 21 7 23 10 9 2 -10 0 -22 -6 -28z m-32 -28 c-6 -12 -14 -19 -18 -16 -3 4 0
12 6 18 7 7 13 23 13 38 2 22 2 23 6 3 2 -12 -1 -32 -7 -43z"></path>
<path class="node" id="node55" d="M1375 280 c-4 -6 -10 -8 -14 -6 -4 3 -27 -13 -50 -34 -24 -22 -48
-40 -54 -40 -7 0 6 16 28 34 51 44 41 56 -13 16 -56 -41 -56 -78 2 -99 52 -20
104 25 121 107 6 31 -6 45 -20 22z m-33 -47 c-23 -33 -62 -69 -62 -59 0 12 72
97 78 92 2 -3 -5 -17 -16 -33z m7 -38 c-13 -19 -28 -35 -32 -35 -9 0 -1 14 28
52 29 38 32 25 4 -17z"></path>
</g>
</svg>