<!--?xml version="1.0" standalone="no"?-->

<svg version="1.0" xmlns="http://www.w3.org/2000/svg" width="300.000000pt" height="231.000000pt" viewBox="0 0 300.000000 231.000000" preserveAspectRatio="xMidYMid meet">
<g transform="translate(0.000000,231.000000) scale(0.100000,-0.100000)" fill="#0E0E0E" stroke="none">
<path class="node" id="node1" d="M1335 2299 c-76 -6 -154 -22 -254 -52 -40 -12 -29 -13 115 -9 92 3
196 0 246 -7 104 -14 261 -63 423 -132 161 -68 300 -108 418 -120 95 -10 140
-7 81 6 -103 22 -225 69 -404 155 -299 143 -422 174 -625 159z"></path>
<path class="node" id="node2" d="M900 2255 c-150 -24 -318 -96 -440 -190 -114 -88 -227 -235 -277
-360 -13 -33 -46 -105 -74 -160 -28 -58 -52 -121 -56 -150 l-6 -50 44 55 c56
68 137 126 206 146 49 14 59 14 150 -5 359 -77 397 -83 483 -78 113 6 156 23
329 125 265 158 344 189 511 199 87 5 232 -11 296 -33 44 -15 -23 24 -95 56
-229 100 -490 108 -661 20 -19 -10 -75 -52 -125 -94 -150 -126 -251 -165 -341
-131 -61 23 -84 50 -84 98 0 31 7 46 34 73 50 50 113 45 85 -7 -11 -21 -10
-22 22 -15 38 7 79 47 79 76 0 11 -10 29 -22 40 -18 17 -20 23 -9 29 8 5 28 5
45 0 17 -5 32 -9 33 -9 1 0 10 -14 19 -31 15 -30 14 -33 -8 -78 -44 -84 -151
-119 -204 -66 -19 19 -26 22 -30 10 -19 -48 32 -88 110 -87 70 0 129 31 221
116 179 162 347 226 560 213 l90 -5 -75 25 c-150 49 -298 53 -523 13 -67 -12
-97 -2 -97 34 0 25 29 56 78 80 61 31 30 31 -72 0 -75 -23 -150 -80 -272 -207
-148 -153 -224 -192 -224 -115 0 43 37 96 89 128 22 14 41 28 41 32 0 8 -84
-14 -130 -35 -46 -20 -94 -67 -154 -147 -82 -109 -167 -190 -201 -190 -12 0
-3 27 30 97 53 112 97 175 187 269 130 136 270 220 483 290 108 35 96 41 -45
19z m-162 -686 c61 -16 92 -28 92 -38 0 -12 -18 -13 -102 -8 -57 4 -119 11
-138 16 -19 5 -68 15 -108 21 -86 14 -91 33 -11 40 74 7 157 -3 267 -31z"></path>
<path class="node" id="node3" d="M2000 1901 c80 -25 198 -83 261 -127 30 -21 99 -81 154 -134 192
-184 301 -260 412 -286 29 -7 53 -11 53 -9 0 2 -20 15 -44 29 -58 34 -138 107
-244 225 -123 136 -184 187 -287 237 -96 47 -238 84 -315 83 l-45 -1 55 -17z"></path>
<path class="node" id="node4" d="M1772 1699 c-87 -11 -240 -60 -342 -109 -97 -47 -290 -160 -290 -170
0 -14 85 -52 231 -103 159 -56 211 -82 339 -171 111 -78 193 -120 310 -160
180 -61 357 -69 485 -22 l40 15 -91 0 c-119 1 -259 37 -374 97 -67 34 -114 70
-206 155 -122 114 -202 172 -264 194 -19 7 -35 18 -35 25 0 19 164 98 251 120
135 35 195 36 319 5 62 -15 145 -45 190 -67 76 -38 79 -39 55 -13 -41 44 -180
131 -261 163 -73 30 -197 53 -262 51 -18 -1 -61 -5 -95 -10z"></path>
<path class="node" id="node5" d="M1845 1514 c-11 -3 -31 -7 -44 -10 -23 -5 -22 -6 17 -39 22 -19 71
-81 110 -138 81 -119 115 -155 195 -208 63 -41 162 -69 243 -69 58 0 54 6 -20
25 -113 30 -198 86 -242 161 -49 84 -8 139 59 77 22 -20 28 -23 24 -10 -4 10
-7 25 -7 32 0 7 -12 28 -26 45 -32 38 -26 47 17 26 18 -9 34 -15 35 -13 11 10
-42 70 -83 94 -44 25 -58 28 -153 30 -58 1 -114 0 -125 -3z"></path>
<path class="node" id="node6" d="M311 1493 c-22 -15 -23 -17 -7 -29 15 -10 27 -10 64 2 26 7 81 14
122 15 l75 1 -40 13 c-60 20 -185 19 -214 -2z"></path>
<path class="node" id="node7" d="M2351 1404 c41 -44 121 -144 176 -224 112 -161 179 -241 255 -305 49
-42 174 -115 197 -115 7 0 -14 22 -46 48 -74 62 -106 102 -231 287 -143 210
-214 281 -356 352 l-71 35 76 -78z"></path>
<path class="node" id="node8" d="M394 1434 c-65 -23 -119 -80 -138 -143 -16 -56 -21 -117 -10 -145 4
-11 14 -3 37 32 40 58 85 89 143 98 61 9 79 -9 34 -33 -168 -92 -248 -209
-258 -375 -2 -48 -9 -85 -14 -82 -15 9 -55 96 -77 167 -44 143 -35 295 24 425
l26 57 -45 -44 c-31 -30 -56 -68 -76 -117 -27 -65 -30 -84 -30 -176 0 -87 5
-119 30 -200 44 -142 146 -304 178 -284 5 3 12 54 15 113 10 178 51 281 156
383 82 80 188 142 346 204 66 26 138 55 160 65 l40 19 -50 6 c-27 3 -88 15
-134 26 -56 13 -88 17 -96 10 -7 -6 -24 -6 -46 0 -49 14 -167 11 -215 -6z"></path>
<path class="node" id="node9" d="M905 1350 c-301 -90 -500 -228 -585 -405 -42 -88 -56 -135 -40 -135
5 0 10 4 10 9 0 15 181 200 256 262 86 70 255 178 374 239 47 23 87 44 89 46
11 10 -51 0 -104 -16z"></path>
<path class="node" id="node10" d="M1115 1359 c-10 -15 4 -131 22 -193 18 -61 73 -171 140 -281 83 -137
113 -230 113 -354 0 -75 -40 -244 -84 -360 -20 -52 -35 -96 -32 -98 6 -7 102
128 139 197 61 113 82 198 81 330 -1 102 -5 128 -37 230 -20 63 -49 146 -66
183 -17 38 -31 71 -31 74 0 14 85 -13 175 -56 305 -145 493 -426 592 -886 l28
-130 3 104 c7 269 -89 566 -248 765 -162 201 -342 322 -624 417 -33 11 -81 31
-107 45 -55 28 -56 28 -64 13z"></path>
<path class="node" id="node11" d="M883 1131 c80 -75 112 -150 112 -261 0 -91 -21 -160 -73 -245 -39
-61 -121 -144 -186 -187 -65 -42 -55 -48 35 -22 148 44 282 147 344 266 33 62
39 85 43 151 4 71 2 82 -27 142 -19 38 -49 79 -74 100 -48 41 -145 92 -195
101 l-34 7 55 -52z"></path>
<path class="node" id="node12" d="M1582 899 c-13 -5 -30 -26 -39 -46 -13 -33 -14 -50 -4 -123 20 -143
20 -150 10 -233 -11 -90 -54 -205 -105 -281 -19 -28 -31 -52 -28 -55 3 -4 36
26 73 65 135 140 187 296 151 451 -19 83 21 119 74 67 25 -26 56 -106 56 -148
0 -17 2 -18 10 -6 13 20 13 97 0 158 -22 98 -127 179 -198 151z"></path>
<path class="node" id="node13" d="M2080 854 c0 -4 20 -26 45 -51 24 -25 77 -100 117 -166 40 -66 91
-144 115 -172 44 -55 119 -109 168 -121 l29 -7 -35 49 c-19 27 -57 90 -83 139
-88 163 -155 243 -245 289 -43 23 -111 47 -111 40z"></path>
<path class="node" id="node14" d="M1847 634 c6 -68 -13 -183 -48 -280 -26 -75 -37 -212 -19 -254 19
-46 56 -70 106 -70 36 0 51 6 82 34 35 32 37 38 36 93 0 32 -6 69 -14 83 l-14
25 -7 -35 c-7 -32 -48 -80 -70 -80 -18 0 -49 40 -49 63 0 13 9 75 21 138 25
136 22 233 -9 299 l-21 45 6 -61z"></path>
<path class="node" id="node15" d="M1179 500 c-25 -26 -68 -57 -95 -69 -105 -47 -146 -89 -158 -167 -8
-47 12 -177 25 -168 5 3 9 13 9 23 0 39 59 131 135 211 88 92 119 137 128 188
4 17 5 32 4 31 -1 -1 -23 -23 -48 -49z"></path>
</g>
<g transform="translate(0.000000,231.000000) scale(0.100000,-0.100000)" fill="#A0A0A0" stroke="none">

<path class="node" id="node17" d="M471 1600 c-80 -7 -75 -26 11 -40 40 -6 89 -16 108 -21 19 -5 81 -12
138 -16 84 -5 102 -4 102 8 0 10 -31 22 -92 38 -110 28 -193 38 -267 31z"></path>
</g>
</svg>