<!--?xml version="1.0" standalone="no"?-->

<svg version="1.0" xmlns="http://www.w3.org/2000/svg" width="300.000000pt" height="300.000000pt" viewBox="0 0 300.000000 300.000000" preserveAspectRatio="xMidYMid meet">
<g transform="translate(0.000000,300.000000) scale(0.100000,-0.100000)" fill="#363636" stroke="none">
<path class="node" id="node1" d="M2212 2968 c4 -28 56 -63 122 -83 28 -8 96 -28 151 -44 133 -40 322
-71 429 -71 79 0 86 2 86 20 0 17 -7 20 -39 20 -21 0 -119 9 -217 21 -160 19
-191 25 -294 65 -63 24 -124 44 -136 44 -12 0 -38 11 -58 25 -45 31 -48 31
-44 3z"></path>
<path class="node" id="node2" d="M2040 2829 c0 -11 25 -49 55 -82 30 -34 55 -67 55 -73 0 -7 -16 -36
-37 -65 -81 -120 -150 -227 -225 -351 -29 -48 -58 -90 -64 -92 -6 -2 -55 17
-108 44 -202 101 -407 146 -616 136 -143 -8 -299 -29 -378 -52 -124 -36 -244
-131 -289 -230 -13 -30 -28 -54 -33 -54 -5 0 -85 -66 -177 -147 -92 -82 -180
-158 -196 -169 -34 -27 -37 -58 -4 -49 12 4 32 14 45 22 13 8 28 13 34 11 6
-2 -13 -20 -43 -38 -53 -34 -54 -35 -24 -38 34 -4 211 80 318 152 37 25 89 53
115 62 l47 17 95 -38 c66 -26 116 -39 165 -43 90 -6 130 -25 119 -55 -5 -12
-8 -58 -9 -102 0 -69 6 -94 40 -185 38 -102 42 -108 130 -195 49 -50 122 -111
161 -137 132 -87 336 -177 513 -227 41 -12 76 -23 78 -25 2 -2 -13 -39 -35
-82 -22 -44 -52 -108 -67 -144 -15 -36 -33 -78 -40 -95 -69 -154 -113 -290
-121 -372 -6 -63 -4 -73 15 -92 26 -26 57 -27 100 0 33 20 34 20 47 1 7 -11
22 -22 33 -25 37 -9 58 16 97 118 7 17 8 16 11 -10 2 -16 11 -49 19 -73 15
-40 19 -43 47 -40 32 3 45 18 68 83 l11 30 12 -37 c14 -46 50 -88 76 -88 20 0
50 45 50 75 0 22 8 19 40 -15 36 -39 86 -41 119 -6 21 22 25 23 49 10 36 -19
49 -18 68 5 13 14 26 18 53 14 47 -6 86 23 95 73 6 29 11 34 24 28 32 -13 70
-16 77 -5 3 6 1 28 -6 49 -12 38 -347 629 -406 717 -24 37 -30 51 -19 53 8 2
17 22 21 47 3 25 10 47 16 50 5 4 6 11 3 17 -5 8 -1 9 12 3 33 -14 84 -18 84
-6 0 6 8 11 19 11 23 0 37 16 46 52 6 23 11 27 31 22 26 -7 33 3 38 52 3 24 8
30 35 32 30 3 31 5 31 48 0 42 1 44 30 44 34 0 46 28 37 85 -5 32 -4 34 26 37
30 3 32 5 31 44 0 28 -9 52 -27 76 -68 88 -350 296 -527 387 -47 24 -86 45
-88 46 -5 4 87 135 156 222 86 107 196 209 268 246 85 43 162 57 325 57 163 0
209 6 209 26 0 11 -32 14 -167 14 -274 -1 -337 -16 -467 -114 -103 -78 -200
-188 -311 -351 -100 -149 -90 -142 -140 -97 -23 20 -49 42 -59 47 -15 9 -10
21 46 115 35 58 113 178 172 268 72 108 114 183 127 223 25 79 24 99 -1 99
-12 0 -20 -7 -20 -17 0 -10 -4 -24 -9 -32 -7 -10 -21 -1 -62 43 -30 31 -57 56
-61 56 -5 0 -8 -9 -8 -21z m-647 -535 c101 -19 215 -60 298 -106 74 -42 99
-65 78 -72 -8 -2 -38 -12 -67 -21 -65 -21 -77 -43 -67 -134 6 -62 5 -65 -27
-98 -26 -27 -37 -32 -63 -28 -36 6 -98 -26 -129 -68 -16 -22 -21 -41 -19 -82
2 -47 -2 -57 -33 -94 l-36 -41 21 -26 c25 -31 55 -55 105 -84 56 -31 118 -21
163 26 17 19 39 34 47 34 8 0 21 10 27 23 6 12 13 24 15 26 2 2 34 -21 71 -51
110 -89 213 -126 213 -77 0 11 -5 29 -10 40 -10 17 -100 90 -125 100 -24 9
-115 74 -115 81 0 5 13 27 30 50 16 22 30 46 30 52 0 6 9 22 20 36 l20 25 23
-26 c41 -49 57 -69 57 -74 0 -8 102 -137 128 -162 56 -55 90 -1 53 83 -12 26
-41 71 -66 100 -25 29 -45 55 -45 58 0 11 50 6 89 -10 24 -9 43 -24 46 -37 4
-12 22 -59 41 -103 44 -104 69 -255 60 -347 -6 -48 -12 -67 -22 -67 -17 0 -18
-12 -2 -28 9 -9 9 -12 -1 -12 -8 0 -10 -7 -6 -19 3 -11 1 -22 -5 -26 -8 -5 -7
-11 2 -23 10 -12 10 -16 1 -19 -7 -3 -13 -13 -13 -24 0 -10 -5 -19 -10 -19 -7
0 -9 13 -5 33 5 24 2 37 -9 47 -10 7 -14 20 -11 31 11 35 -38 67 -113 74 -273
29 -621 182 -1027 454 -121 81 -166 101 -231 101 -83 0 -294 83 -294 116 0 8
-2 14 -5 14 -11 0 -114 -55 -230 -123 -66 -38 -124 -72 -129 -75 -49 -28 131
136 272 247 24 18 51 50 61 70 44 85 127 162 220 202 43 19 275 64 376 72 80
7 263 -3 348 -19z m482 -250 c20 -20 35 -38 33 -40 -2 -2 -28 6 -58 17 -31 12
-70 19 -94 17 -35 -3 -41 -6 -44 -28 -2 -15 -13 -30 -27 -37 -24 -11 -25 -10
-25 27 0 21 7 43 15 50 19 16 68 28 122 29 36 1 48 -4 78 -35z m210 -54 c17
-10 57 -33 90 -50 33 -18 78 -45 100 -61 22 -16 58 -41 80 -56 169 -117 255
-194 286 -254 10 -21 19 -41 19 -44 0 -16 -53 -1 -91 26 -149 103 -306 202
-387 244 -56 29 -97 57 -102 69 -4 12 -26 42 -49 68 -44 50 -47 58 -29 76 14
14 40 8 83 -18z m-217 -10 c42 -20 65 -37 72 -55 11 -28 25 -33 34 -10 3 8 11
12 18 10 12 -5 78 -97 78 -109 0 -9 -132 72 -151 93 -11 12 -24 21 -28 21 -5
0 -23 13 -41 30 -18 16 -46 34 -64 39 -28 8 -29 9 -6 10 14 1 53 -12 88 -29z
m-58 -25 c17 -9 30 -20 30 -25 0 -7 -55 18 -79 37 -13 10 25 1 49 -12z m-82
-100 c-7 -7 -58 71 -58 87 0 7 14 -9 31 -35 18 -26 30 -50 27 -52z m33 80 c76
-27 95 -73 46 -113 -12 -10 -21 -2 -56 53 -22 37 -41 68 -41 71 0 6 4 5 51
-11z m-1297 -64 c4 -5 -27 -27 -66 -49 -40 -23 -98 -57 -128 -76 -30 -20 -59
-36 -65 -36 -5 1 -1 6 10 13 12 7 47 32 80 57 57 44 143 98 157 99 4 1 9 -3
12 -8z m1256 -43 c27 -28 50 -57 50 -64 0 -6 -8 -22 -19 -35 l-18 -23 -39 40
c-22 22 -49 46 -61 54 l-23 15 21 33 c12 17 25 32 30 32 5 0 31 -23 59 -52z
m273 -5 c-19 -7 -83 25 -83 41 0 11 11 9 47 -12 26 -14 42 -27 36 -29z m-25
-77 c65 -67 94 -105 103 -135 27 -91 -22 -53 -116 90 -35 52 -71 101 -79 108
-17 15 -21 31 -7 31 4 0 49 -42 99 -94z m-358 32 c25 -11 40 -22 33 -25 -7 -2
-21 0 -32 6 -25 14 -81 14 -81 1 0 -5 17 -21 38 -36 30 -21 32 -25 12 -20
-102 27 -132 17 -124 -42 l5 -37 -21 24 c-32 36 -7 107 48 139 39 23 50 22
122 -10z m563 -12 c12 -7 60 -38 107 -67 47 -30 95 -59 105 -66 129 -80 186
-121 194 -141 11 -23 15 -72 7 -72 -19 0 -67 27 -105 58 -59 49 -194 142 -250
173 -30 17 -50 38 -67 71 -33 64 -32 69 9 44z m-484 -80 c7 -8 10 -20 6 -26
-8 -13 -27 1 -57 43 l-21 29 30 -15 c16 -9 35 -23 42 -31z m-106 -16 c54 -26
101 -65 96 -79 -2 -6 -31 10 -64 34 -62 47 -92 55 -101 30 -6 -15 30 -80 69
-122 l20 -23 -22 -24 c-13 -13 -34 -27 -48 -31 -31 -7 -99 24 -135 62 l-26 28
29 35 29 34 52 -52 c34 -35 55 -49 62 -42 6 6 4 16 -8 29 -17 18 -46 100 -46
128 0 19 44 16 93 -7z m-580 -16 c18 -9 41 -24 52 -34 46 -40 337 -207 425
-243 239 -98 415 -153 534 -167 97 -12 117 -26 50 -36 -81 -12 -298 27 -417
75 -167 67 -246 109 -429 232 -111 75 -138 89 -138 71 0 -12 238 -177 312
-216 35 -18 84 -45 109 -59 110 -62 361 -126 548 -141 63 -5 96 -20 85 -38
-10 -16 -242 13 -349 43 -166 48 -391 150 -558 253 -43 27 -80 46 -83 43 -6
-5 94 -84 147 -116 210 -126 480 -222 692 -246 129 -15 177 -28 177 -48 0 -42
-284 19 -555 119 -55 20 -118 43 -140 51 -68 25 -197 93 -272 144 -44 30 -73
44 -73 36 0 -21 38 -52 130 -105 167 -95 277 -138 645 -247 33 -10 93 -24 133
-31 118 -20 169 -72 59 -58 -137 16 -280 54 -427 111 -36 14 -94 37 -129 50
-55 22 -164 81 -266 144 -16 10 -37 22 -45 26 -8 4 -36 19 -61 35 -48 29 -69
35 -69 18 0 -5 21 -21 48 -35 26 -14 59 -33 74 -43 71 -45 197 -119 228 -134
204 -98 429 -170 620 -198 117 -17 128 -24 41 -28 -84 -3 -222 23 -361 68
-211 69 -486 207 -607 304 -48 38 -100 85 -116 103 -16 18 -34 33 -41 33 -18
0 -58 135 -64 213 l-5 67 32 0 c18 0 46 -7 64 -16z m601 -63 c11 -12 25 -21
31 -21 7 0 18 -7 25 -15 10 -12 9 -16 -5 -21 -17 -7 -76 42 -97 79 -8 16 -7
17 9 9 10 -6 27 -20 37 -31z m680 -2 c115 -78 227 -171 237 -196 5 -13 9 -35
9 -47 0 -40 -48 -20 -123 51 -38 35 -91 78 -118 94 -27 17 -49 32 -49 34 0 3
-9 27 -20 55 -12 31 -16 50 -9 50 7 0 39 -19 73 -41z m-447 -46 c74 -48 130
-100 119 -110 -12 -12 -70 18 -157 83 -95 71 -107 83 -93 97 8 8 30 -3 131
-70z m474 -104 c73 -52 120 -102 140 -147 25 -58 24 -65 -7 -58 -24 6 -167
106 -178 125 -11 17 -18 111 -9 111 6 0 30 -14 54 -31z m-1193 -211 c37 -30
94 -70 127 -90 108 -65 339 -165 510 -222 87 -28 303 -76 348 -76 15 0 27 -5
27 -11 0 -7 -14 -9 -37 -5 -21 3 -65 8 -98 12 -181 19 -451 102 -620 192 -143
75 -316 208 -363 279 -31 46 -27 50 8 9 17 -19 61 -58 98 -88z m1197 62 c54
-37 75 -66 75 -102 0 -38 -17 -36 -79 10 -47 34 -51 40 -51 80 0 23 3 42 6 42
3 0 25 -14 49 -30z m13 -148 c6 -18 -12 -14 -42 9 -14 11 -26 27 -26 36 0 12
7 10 32 -9 18 -14 34 -30 36 -36z m-117 -198 c7 -9 17 -42 21 -73 4 -31 10
-70 13 -87 5 -24 3 -33 -11 -38 -9 -4 -22 -2 -28 4 -5 5 -18 10 -28 10 -14 0
-18 -8 -18 -33 0 -18 -6 -41 -13 -52 -14 -19 -37 -13 -37 9 0 7 -9 21 -20 31
-19 17 -20 17 -30 -9 -5 -15 -10 -33 -10 -41 0 -20 -17 -28 -27 -13 -4 7 -8
33 -8 57 0 27 -5 46 -12 48 -7 3 -13 -3 -13 -14 0 -27 -39 -85 -51 -77 -7 4
-8 23 -4 50 8 53 -7 58 -32 12 -17 -33 -17 -33 -21 -8 -10 70 -42 42 -41 -35
1 -53 -116 -480 -149 -543 -18 -35 -75 -92 -93 -92 -45 0 -14 158 71 362 28
68 76 184 107 258 31 74 59 138 62 142 4 4 56 1 116 -7 61 -8 129 -15 153 -15
38 0 42 2 42 24 0 17 7 26 25 30 18 5 25 13 25 32 0 13 -6 27 -13 30 -8 3 -14
10 -14 17 0 7 -3 23 -7 35 -7 21 -6 23 11 13 11 -5 26 -17 34 -27z m226 -394
c19 -36 69 -124 109 -195 41 -72 74 -136 74 -143 0 -27 -27 -8 -104 71 -65 68
-98 114 -169 238 -48 85 -92 161 -99 170 -9 13 -6 21 12 39 19 19 21 29 16 69
-6 44 -4 42 60 -69 36 -63 82 -144 101 -180z m-185 95 c23 -45 125 -224 148
-259 8 -13 39 -54 68 -91 54 -71 65 -112 42 -156 -15 -26 -61 -25 -88 4 -50
53 -243 507 -234 552 4 25 5 25 24 8 11 -10 29 -36 40 -58z m-357 -96 c-21
-136 -52 -277 -81 -364 -41 -127 -80 -171 -78 -89 0 54 131 556 146 565 26 16
28 -10 13 -112z m211 19 c18 -104 51 -202 114 -336 28 -58 50 -115 50 -128 0
-29 -33 -49 -58 -35 -27 15 -39 46 -67 176 -14 66 -37 173 -51 237 -17 75 -23
128 -19 148 4 17 9 29 12 26 3 -2 11 -42 19 -88z m-139 25 c-1 -27 4 -91 11
-144 12 -97 6 -198 -18 -303 -12 -54 -36 -106 -49 -106 -25 0 -36 122 -22 240
7 52 18 149 25 214 11 93 18 123 32 133 10 7 19 13 19 13 1 0 2 -21 2 -47z
m243 -65 c49 -124 158 -368 171 -382 14 -16 10 -46 -7 -53 -53 -20 -165 193
-234 447 -19 70 -19 76 -3 88 9 6 19 12 22 12 4 0 26 -51 51 -112z m-170 77
c0 -3 8 -45 19 -93 10 -48 28 -141 40 -207 22 -118 22 -121 4 -189 -43 -165
-65 -72 -88 372 -6 107 -5 122 9 122 9 0 16 -2 16 -5z"></path>
<path class="node" id="node3" d="M642 2164 c-18 -7 -39 -28 -51 -51 -10 -21 -40 -58 -65 -83 -25 -24
-46 -48 -46 -52 0 -18 38 -6 74 24 33 27 41 30 58 19 11 -7 42 -15 69 -18 56
-7 75 4 96 55 12 29 18 32 54 32 48 0 50 21 3 31 -16 3 -45 14 -64 24 -54 28
-93 34 -128 19z m96 -46 c30 -30 -3 -88 -50 -88 -17 0 -17 2 -2 25 9 14 23 25
30 25 8 0 14 7 14 15 0 10 -10 15 -29 15 -17 0 -33 5 -36 10 -9 14 58 13 73
-2z m-84 -77 c-7 -8 -34 22 -34 39 0 32 15 31 26 -2 6 -18 10 -35 8 -37z"></path>
</g>
<g transform="translate(0.000000,300.000000) scale(0.100000,-0.100000)" fill="#FFFFFF" stroke="none">


<path class="node" id="node6" d="M1045 2313 c-101 -8 -333 -53 -376 -72 -93 -40 -176 -117 -220 -202
-10 -20 -37 -52 -61 -70 -141 -111 -321 -275 -272 -247 5 3 63 37 129 75 116
68 219 123 230 123 3 0 5 -6 5 -14 0 -33 211 -116 294 -116 65 0 110 -20 231
-101 231 -155 474 -288 655 -358 103 -41 281 -86 372 -96 75 -7 124 -39 113
-74 -3 -11 1 -24 11 -31 11 -10 14 -23 9 -47 -4 -20 -2 -33 5 -33 5 0 10 9 10
19 0 11 6 21 13 24 9 3 9 7 -1 19 -9 12 -10 18 -2 23 6 4 8 15 5 26 -4 12 -2
19 6 19 10 0 10 3 1 12 -16 16 -15 28 2 28 10 0 16 19 22 67 9 92 -16 243 -60
347 -19 44 -37 91 -41 103 -3 13 -22 28 -46 37 -39 16 -89 21 -89 10 0 -3 20
-29 45 -58 25 -29 54 -74 66 -100 37 -84 3 -138 -53 -83 -26 25 -128 154 -128
162 0 5 -16 25 -57 74 l-23 26 -20 -25 c-11 -14 -20 -30 -20 -36 0 -6 -14 -30
-30 -52 -17 -23 -30 -45 -30 -50 0 -7 91 -72 115 -81 25 -10 115 -83 125 -100
5 -11 10 -29 10 -40 0 -49 -103 -12 -213 77 -37 30 -69 53 -71 51 -2 -2 -9
-14 -15 -26 -6 -13 -19 -23 -27 -23 -8 0 -30 -15 -47 -34 -45 -47 -107 -57
-163 -26 -50 29 -80 53 -105 84 l-21 26 36 41 c31 37 35 47 33 94 -2 41 3 60
19 82 31 42 93 74 129 68 26 -4 37 1 63 28 32 33 33 36 27 98 -10 91 2 113 67
134 29 9 59 19 67 21 21 7 -4 30 -78 72 -83 46 -197 87 -298 106 -85 16 -268
26 -348 19z m-275 -168 c19 -10 48 -21 64 -24 47 -10 45 -31 -3 -31 -36 0 -42
-3 -54 -32 -21 -51 -40 -62 -96 -55 -27 3 -58 11 -69 18 -17 11 -25 8 -58 -19
-36 -30 -74 -42 -74 -24 0 4 21 28 46 52 25 25 55 62 65 83 34 66 94 76 179
32z"></path>
<path class="node" id="node7" d="M665 2120 c3 -5 19 -10 36 -10 19 0 29 -5 29 -15 0 -8 -6 -15 -14
-15 -7 0 -21 -11 -30 -25 -15 -23 -15 -25 2 -25 47 0 80 58 50 88 -15 15 -82
16 -73 2z"></path>
<path class="node" id="node8" d="M627 2104 c-12 -12 -8 -41 8 -54 9 -7 17 -11 19 -9 7 8 -20 70 -27
63z"></path>
<path class="node" id="node9" d="M1723 2070 c-48 -11 -63 -28 -63 -70 0 -37 1 -38 25 -27 14 7 25 22
27 37 3 22 9 25 44 28 24 2 63 -5 94 -17 30 -11 56 -19 58 -17 2 2 -13 20 -33
40 -30 31 -42 36 -78 35 -23 -1 -57 -5 -74 -9z"></path>
<path class="node" id="node10" d="M2002 2008 c-18 -18 -15 -26 29 -76 23 -26 45 -56 49 -68 5 -12 46
-40 102 -69 81 -42 238 -141 387 -244 38 -27 91 -42 91 -26 0 3 -9 23 -19 44
-31 60 -117 137 -286 254 -22 15 -58 40 -80 56 -22 16 -67 43 -100 61 -33 17
-73 40 -90 50 -43 26 -69 32 -83 18z"></path>
<path class="node" id="node11" d="M1786 1999 c18 -5 46 -23 64 -39 18 -17 36 -30 41 -30 4 0 17 -9 28
-21 19 -21 151 -102 151 -93 0 12 -66 104 -78 109 -7 2 -15 -2 -18 -10 -9 -23
-23 -18 -34 10 -11 29 -119 86 -160 84 -23 -1 -22 -2 6 -10z"></path>
<path class="node" id="node12" d="M1761 1967 c24 -19 79 -44 79 -37 0 11 -52 40 -71 40 -7 0 -10 -1 -8
-3z"></path>
<path class="node" id="node13" d="M1670 1942 c0 -16 51 -94 58 -87 3 2 -9 26 -27 52 -17 26 -31 42 -31
35z"></path>
<path class="node" id="node14" d="M1710 1946 c0 -3 19 -34 41 -71 35 -55 44 -63 56 -53 28 23 35 57 15
78 -20 22 -112 59 -112 46z"></path>
<path class="node" id="node15" d="M399 1852 c-25 -15 -72 -47 -104 -72 -33 -25 -68 -50 -80 -57 -11 -7
-15 -12 -10 -13 6 0 35 16 65 36 30 19 88 53 128 76 39 22 70 44 66 49 -8 13
-14 11 -65 -19z"></path>
<path class="node" id="node16" d="M1631 1848 l-21 -33 23 -15 c12 -8 39 -32 61 -54 l39 -40 18 23 c11
13 19 29 19 35 0 14 -96 116 -109 116 -5 0 -18 -15 -30 -32z"></path>
<path class="node" id="node17" d="M1910 1864 c0 -8 16 -22 36 -30 56 -23 63 -11 11 18 -36 21 -47 23
-47 12z"></path>
<path class="node" id="node18" d="M1860 1831 c0 -5 7 -14 16 -22 8 -7 44 -56 79 -108 94 -143 143 -181
116 -90 -9 30 -38 68 -103 135 -86 88 -108 106 -108 85z"></path>

<path class="node" id="node20" d="M1488 1788 c-55 -32 -80 -103 -48 -139 l21 -24 -5 37 c-8 59 22 69
124 42 20 -5 18 -1 -12 20 -21 15 -38 31 -38 36 0 13 56 13 81 -1 11 -6 25 -8
32 -6 11 4 -54 38 -98 51 -12 3 -36 -4 -57 -16z"></path>
<path class="node" id="node21" d="M2140 1775 c0 -3 11 -27 24 -53 17 -33 37 -54 67 -71 56 -31 191
-124 250 -173 38 -31 86 -58 105 -58 8 0 4 49 -7 72 -8 20 -65 61 -194 141
-10 7 -58 36 -105 66 -127 80 -129 81 -135 81 -3 0 -5 -2 -5 -5z"></path>
<path class="node" id="node22" d="M1638 1703 c30 -42 49 -56 57 -43 9 14 -11 37 -48 57 l-30 15 21 -29z"></path>
<path class="node" id="node23" d="M1490 1677 c0 -28 29 -110 46 -128 12 -13 14 -23 8 -29 -7 -7 -28 7
-62 42 l-52 52 -29 -34 -29 -35 26 -28 c36 -38 104 -69 135 -62 14 4 35 18 48
31 l22 24 -20 23 c-39 42 -75 107 -69 122 9 25 39 17 101 -30 60 -44 93 -44
39 1 -64 52 -164 83 -164 51z"></path>
<path class="node" id="node24" d="M912 1603 c6 -78 46 -213 64 -213 7 0 25 -15 41 -33 152 -173 571
-384 909 -456 66 -15 126 -21 175 -19 87 4 76 11 -41 28 -191 28 -416 100
-620 198 -31 15 -157 89 -228 134 -15 10 -48 29 -74 43 -27 14 -48 30 -48 35
0 17 21 11 69 -18 25 -16 53 -31 61 -35 8 -4 29 -16 45 -26 102 -63 211 -122
266 -144 35 -13 93 -36 129 -50 147 -57 290 -95 427 -111 110 -14 59 38 -59
58 -40 7 -100 21 -133 31 -368 109 -478 152 -645 247 -92 53 -130 84 -130 105
0 8 29 -6 73 -36 75 -51 204 -119 272 -144 22 -8 85 -31 140 -51 271 -100 555
-161 555 -119 0 20 -48 33 -177 48 -212 24 -482 120 -692 246 -53 32 -153 111
-147 116 3 3 40 -16 83 -43 167 -103 392 -205 558 -253 107 -30 339 -59 349
-43 11 18 -22 33 -85 38 -187 15 -438 79 -548 141 -25 14 -74 41 -109 59 -74
39 -312 204 -312 216 0 18 27 4 138 -71 183 -123 262 -165 429 -232 119 -48
336 -87 417 -75 67 10 47 24 -50 36 -119 14 -295 69 -534 167 -88 36 -379 203
-425 243 -33 29 -82 50 -116 50 l-32 0 5 -67z"></path>
<path class="node" id="node25" d="M1558 1613 c21 -37 80 -86 97 -79 14 5 15 9 5 21 -7 8 -18 15 -25 15
-6 0 -20 9 -31 21 -10 11 -27 25 -37 31 -16 8 -17 7 -9 -9z"></path>
<path class="node" id="node26" d="M2220 1580 c11 -28 20 -52 20 -55 0 -2 22 -17 49 -34 27 -16 80 -59
118 -94 75 -71 123 -91 123 -51 0 46 -20 73 -102 136 -104 81 -202 148 -217
148 -7 0 -3 -19 9 -50z"></path>
<path class="node" id="node27" d="M1706 1613 c-14 -14 -2 -26 93 -97 87 -65 145 -95 157 -83 11 10 -45
62 -119 110 -101 67 -123 78 -131 70z"></path>
<path class="node" id="node28" d="M2254 1418 c4 -28 9 -55 12 -59 2 -4 37 -32 78 -63 71 -54 126 -79
126 -58 0 28 -42 101 -76 133 -46 44 -123 99 -137 99 -6 0 -7 -20 -3 -52z"></path>
<path class="node" id="node29" d="M990 1345 c0 -3 10 -20 22 -38 47 -71 220 -204 363 -279 169 -90 439
-173 620 -192 33 -4 77 -9 98 -12 23 -4 37 -2 37 5 0 6 -12 11 -27 11 -45 0
-261 48 -348 76 -171 57 -402 157 -510 222 -73 44 -184 132 -225 178 -16 19
-30 32 -30 29z"></path>
<path class="node" id="node30" d="M2260 1278 c0 -40 4 -46 51 -80 29 -21 58 -38 65 -38 19 0 18 50 -1
78 -15 20 -97 82 -109 82 -3 0 -6 -19 -6 -42z"></path>
<path class="node" id="node31" d="M2260 1187 c0 -16 45 -57 62 -57 17 0 3 23 -30 48 -25 19 -32 21 -32
9z"></path>
<path class="node" id="node32" d="M2166 958 c4 -12 7 -28 7 -35 0 -7 6 -14 14 -17 7 -3 13 -17 13 -30
0 -19 -7 -27 -25 -32 -18 -4 -25 -13 -25 -30 0 -22 -4 -24 -42 -24 -24 0 -92
7 -153 15 -60 8 -112 11 -116 7 -3 -4 -31 -68 -62 -142 -31 -74 -79 -190 -107
-258 -64 -153 -103 -302 -90 -337 5 -14 14 -25 19 -25 18 0 75 57 93 92 33 63
150 490 149 543 -1 77 31 105 41 35 4 -25 4 -25 21 8 25 46 40 41 32 -12 -4
-27 -3 -46 4 -50 12 -8 51 50 51 77 0 11 6 17 13 14 7 -2 12 -21 12 -48 0 -24
4 -50 8 -57 10 -15 27 -7 27 13 0 8 5 26 10 41 10 26 11 26 30 9 11 -10 20
-24 20 -31 0 -22 23 -28 37 -9 7 11 13 34 13 52 0 25 4 33 18 33 10 0 23 -5
28 -10 6 -6 19 -8 28 -4 14 5 16 14 11 38 -3 17 -9 56 -13 87 -8 58 -21 82
-55 100 -17 10 -18 8 -11 -13z"></path>
<path class="node" id="node33" d="M2276 799 c5 -40 3 -50 -16 -69 -18 -18 -21 -26 -12 -39 7 -9 51 -85
99 -170 71 -124 104 -170 169 -238 77 -79 104 -98 104 -71 0 7 -33 71 -74 143
-40 71 -90 159 -109 195 -19 36 -65 117 -101 180 -64 111 -66 113 -60 69z"></path>
<path class="node" id="node34" d="M2188 695 c-9 -45 184 -499 234 -552 27 -29 73 -30 88 -4 23 44 12
85 -42 156 -29 37 -60 78 -68 91 -23 35 -125 214 -148 259 -11 22 -29 48 -40
58 -19 17 -20 17 -24 -8z"></path>
<path class="node" id="node35" d="M1882 661 c-15 -9 -146 -511 -146 -565 -2 -82 37 -38 78 89 45 137
105 460 89 476 -5 5 -14 5 -21 0z"></path>
<path class="node" id="node36" d="M2075 630 c-4 -20 2 -73 19 -148 14 -64 37 -171 51 -237 28 -130 40
-161 67 -176 25 -14 58 6 58 35 0 13 -22 70 -50 128 -63 134 -96 232 -114 336
-8 46 -16 86 -19 88 -3 3 -8 -9 -12 -26z"></path>
<path class="node" id="node37" d="M1946 627 c-14 -10 -21 -40 -32 -133 -7 -65 -18 -162 -25 -214 -14
-118 -3 -240 22 -240 13 0 37 52 49 106 24 105 30 206 18 303 -7 53 -12 117
-11 144 0 26 -1 47 -2 47 0 0 -9 -6 -19 -13z"></path>
<path class="node" id="node38" d="M2137 628 c-16 -12 -16 -18 3 -88 34 -124 62 -200 127 -336 29 -61
85 -119 107 -111 17 7 21 37 7 53 -13 14 -122 258 -171 382 -25 61 -47 112
-51 112 -3 0 -13 -6 -22 -12z"></path>
<path class="node" id="node39" d="M2015 488 c18 -346 32 -454 59 -445 6 2 19 35 29 73 18 68 18 71 -4
189 -12 66 -30 159 -40 207 -11 48 -19 90 -19 93 0 3 -7 5 -16 5 -14 0 -15
-15 -9 -122z"></path>
</g>
</svg>