<!--?xml version="1.0" standalone="no"?-->

<svg version="1.0" xmlns="http://www.w3.org/2000/svg" width="260.000000pt" height="300.000000pt" viewBox="0 0 260.000000 300.000000" preserveAspectRatio="xMidYMid meet">
<g transform="translate(0.000000,300.000000) scale(0.100000,-0.100000)" fill="#1A1B1B" stroke="none">
<path class="node" id="node1" d="M1805 2993 c-127 -18 -293 -109 -370 -203 -98 -119 -79 -232 51 -296
97 -47 195 -22 222 56 16 43 -5 75 -48 75 -31 0 -35 -3 -38 -27 -2 -19 3 -30
19 -39 l23 -12 -23 -18 c-13 -11 -34 -19 -48 -19 -32 0 -98 35 -117 62 -53 75
34 208 137 208 70 0 143 -66 167 -151 15 -53 12 -131 -6 -158 -26 -37 -90 -61
-165 -61 -163 0 -282 96 -283 229 -1 31 2 70 7 86 l7 30 -30 -35 c-42 -49 -77
-170 -50 -170 6 0 10 7 10 16 0 24 25 11 28 -15 2 -12 -4 -33 -12 -46 -18 -28
-20 -44 -7 -64 14 -22 40 4 34 32 -4 20 -3 20 21 -6 28 -30 34 -65 14 -85 -10
-10 -8 -17 8 -33 20 -19 22 -19 38 -4 18 19 21 41 6 50 -14 9 -12 25 3 25 29
0 61 -50 67 -103 5 -50 6 -52 35 -52 25 0 30 4 33 28 2 16 -2 34 -8 42 -22 27
11 27 46 0 37 -28 54 -60 54 -100 0 -31 33 -42 65 -21 30 20 32 50 5 73 -26
22 -25 33 0 33 51 0 120 -61 120 -106 0 -21 5 -24 35 -24 25 0 35 4 35 15 0
50 70 115 124 115 32 0 32 -3 2 -33 -41 -41 -12 -92 44 -78 19 5 26 14 28 40
4 44 27 78 65 97 33 18 58 6 32 -16 -36 -30 -3 -88 40 -68 19 9 22 16 18 43
-6 37 17 89 48 106 27 14 34 6 19 -21 -10 -19 -9 -26 8 -42 17 -18 21 -18 35
-4 11 11 14 27 10 56 -4 29 -1 47 13 67 l18 28 6 -29 c6 -36 25 -44 40 -16 9
17 7 25 -9 47 -25 30 -26 52 -6 79 14 19 14 18 15 -3 0 -13 5 -23 10 -23 6 0
10 12 10 28 0 50 -20 98 -56 138 -20 22 -32 30 -28 19 4 -11 10 -45 12 -76 7
-98 -42 -173 -143 -220 -81 -39 -182 -41 -253 -5 -75 38 -91 104 -52 208 24
62 45 89 91 117 71 43 166 12 207 -69 37 -71 18 -121 -60 -161 -44 -23 -77
-24 -104 -5 -19 14 -19 15 4 36 25 23 28 40 10 58 -18 18 -53 15 -71 -6 -21
-23 -21 -45 -2 -82 67 -129 325 -34 325 119 0 120 -149 260 -340 320 -70 21
-147 31 -195 24z"></path>
<path class="node" id="node2" d="M381 2931 c-81 -31 -161 -100 -245 -215 -16 -21 -48 -52 -72 -69 -46
-32 -70 -81 -59 -117 3 -11 25 -32 48 -48 l42 -28 7 -129 c4 -72 11 -147 16
-167 7 -28 6 -40 -4 -49 -8 -6 -11 -21 -8 -38 5 -22 0 -31 -21 -45 -23 -15
-26 -22 -21 -51 4 -18 1 -45 -6 -60 -9 -20 -9 -31 0 -45 6 -11 9 -33 6 -49 -5
-24 -2 -35 16 -49 20 -16 21 -21 10 -41 -8 -17 -9 -26 -1 -34 6 -6 11 -21 11
-34 0 -15 9 -27 24 -35 35 -15 37 -28 21 -105 -8 -37 -14 -79 -14 -93 1 -14 7
6 15 44 7 38 15 71 18 73 3 3 17 1 32 -4 20 -7 31 -19 36 -42 6 -20 18 -35 33
-41 14 -5 25 -12 25 -15 0 -2 -11 -47 -25 -99 -13 -52 -29 -134 -36 -182 -15
-113 -3 -384 18 -404 3 -3 3 22 -1 55 -16 154 -17 197 -6 290 13 113 47 272
60 280 11 7 63 -13 72 -28 4 -7 8 -21 8 -32 0 -12 13 -27 31 -38 28 -15 30
-21 25 -50 -5 -27 -2 -34 16 -42 17 -7 23 -19 23 -41 1 -18 7 -40 15 -49 23
-28 15 -183 -11 -211 -12 -12 -19 -35 -19 -58 0 -31 -5 -40 -30 -54 -25 -14
-30 -23 -30 -54 0 -29 -6 -41 -25 -54 -17 -11 -25 -25 -25 -44 0 -16 -3 -35
-6 -44 -7 -19 -30 -21 -37 -3 -3 6 -4 1 -3 -13 3 -39 15 -53 32 -39 8 6 14 17
14 24 0 7 11 20 25 29 17 11 25 26 25 45 0 20 8 34 25 45 15 10 25 26 25 41 0
15 10 31 25 41 19 12 25 25 25 53 0 25 7 42 21 54 15 14 19 25 15 43 -4 14 -1
41 6 60 10 28 10 39 0 55 -9 14 -9 25 -2 39 15 27 12 56 -6 71 -9 7 -13 21
-10 33 3 12 -2 30 -10 40 -8 11 -14 32 -14 47 0 16 -7 32 -16 37 -15 8 -14 16
9 83 14 41 28 90 32 109 4 19 12 44 17 54 9 17 11 18 20 3 5 -10 5 -24 0 -34
-17 -32 -7 -103 18 -126 l23 -22 -17 28 c-17 28 -17 29 4 34 13 4 19 11 16 22
-3 9 -2 22 3 29 18 29 128 -136 160 -242 47 -155 7 -380 -94 -515 -32 -44 -33
-55 0 -16 45 55 85 141 111 241 22 81 25 113 21 174 -10 137 -39 204 -173 390
-19 26 -24 43 -20 65 4 17 6 35 6 40 -2 61 -8 94 -23 117 -12 17 -18 43 -17
75 0 26 -2 70 -6 96 -7 48 -6 50 63 150 74 108 143 229 143 253 0 8 16 32 36
54 27 29 44 40 65 40 40 0 51 31 32 85 -8 22 -21 73 -28 114 -30 152 -118 275
-235 328 -78 35 -195 41 -269 14z m12 -50 c-29 -16 -70 -43 -91 -60 -45 -35
-77 -91 -61 -106 7 -7 26 7 57 43 50 56 77 71 41 23 -23 -31 -20 -57 6 -67 21
-9 45 14 65 61 17 40 46 72 55 63 3 -3 -1 -18 -10 -34 -25 -48 -20 -61 27 -67
47 -6 68 5 68 37 0 11 5 28 10 36 7 11 10 -1 10 -40 l0 -55 44 -2 c37 -1 45 2
49 19 9 31 29 10 25 -25 -2 -24 1 -33 15 -35 13 -3 17 3 17 23 0 23 2 26 15
15 8 -7 15 -23 15 -36 0 -19 7 -24 36 -30 32 -6 35 -9 29 -33 -9 -36 -13 -38
-31 -13 -11 17 -25 22 -58 22 -33 0 -47 6 -65 26 -16 18 -29 24 -44 21 -88
-20 -85 -20 -109 5 -34 37 -55 40 -99 18 -36 -19 -41 -19 -69 -5 -38 20 -52
19 -84 -6 -33 -26 -70 -22 -74 8 -8 55 110 175 207 209 58 21 60 16 4 -15z
m64 -225 c-3 -8 -11 -34 -17 -58 -18 -70 -21 -76 -30 -53 -4 11 -1 34 7 52 7
18 13 42 13 53 0 12 7 20 16 20 10 0 14 -6 11 -14z m-176 -49 c-10 -29 -22
-77 -26 -106 -7 -51 -8 -52 -38 -49 -46 4 -64 41 -51 104 8 43 14 51 46 66 20
10 39 22 43 28 3 5 15 10 25 10 18 0 18 -1 1 -53z m-161 -49 c-19 -71 -43 -83
-70 -35 -15 27 -14 28 30 66 25 21 48 37 51 35 4 -2 -1 -32 -11 -66z m398 25
c0 -45 -15 -72 -42 -73 -12 0 1 89 15 106 19 24 26 16 27 -33z m-174 -8 c4
-14 3 -31 -1 -38 -4 -7 -8 -32 -8 -57 0 -39 -3 -45 -22 -48 -26 -4 -30 17 -14
78 5 19 12 47 15 63 8 34 22 35 30 2z m311 15 c3 -6 18 -7 32 -4 25 7 26 6 20
-30 -3 -20 -17 -60 -30 -89 -20 -44 -30 -55 -62 -64 -31 -10 -42 -9 -61 4 -29
19 -31 43 -4 50 22 6 33 32 24 57 -4 10 5 29 22 50 30 36 48 44 59 26z m123
-85 c2 -22 1 -53 -2 -71 -6 -27 -12 -32 -43 -37 -20 -4 -38 -5 -40 -3 -2 2 7
25 21 52 13 27 28 62 31 77 10 39 29 28 33 -18z m80 -4 c2 -13 14 -26 28 -32
19 -6 25 -15 22 -32 -3 -19 -10 -22 -45 -23 -48 -2 -49 2 -37 79 7 40 27 45
32 8z m-438 -26 c0 -26 -3 -33 -15 -29 -18 7 -20 35 -3 52 17 17 18 16 18 -23z
m52 -17 c-9 -9 -12 -7 -12 12 0 19 3 21 12 12 9 -9 9 -15 0 -24z m-256 -65
c31 -26 34 -32 34 -83 0 -44 -4 -58 -20 -68 -11 -7 -20 -18 -20 -26 0 -17 -47
-49 -54 -37 -9 14 -20 207 -13 225 9 23 34 20 73 -11z m110 -26 c6 -18 -13
-67 -26 -67 -16 0 -23 26 -16 55 7 27 33 34 42 12z m244 -32 c24 15 7 -23 -28
-64 l-38 -44 -12 41 c-8 27 -9 48 -3 66 10 24 11 24 40 10 17 -9 35 -13 41 -9z
m180 -9 c-1 -31 -152 -293 -179 -310 -4 -3 -18 33 -31 80 -25 95 -29 80 54
181 48 58 49 59 102 59 34 1 54 -3 54 -10z m-289 -81 c16 -54 16 -57 -3 -78
l-19 -22 5 26 c4 18 0 32 -14 44 -20 18 -25 41 -14 69 12 31 29 15 45 -39z
m-80 -81 c25 -23 25 -77 -2 -120 -11 -19 -25 -34 -30 -34 -4 0 -15 24 -23 53
-27 97 -28 107 -11 113 8 4 15 14 15 23 0 9 6 23 13 30 10 10 13 6 15 -17 2
-17 12 -38 23 -48z m-78 -112 c25 -77 26 -85 12 -112 -29 -57 -39 -51 -95 53
-21 39 -29 62 -22 70 5 7 12 23 15 37 6 24 46 52 58 41 3 -3 18 -43 32 -89z
m210 26 c25 -98 29 -128 19 -128 -18 0 -33 28 -27 52 4 17 0 29 -14 42 -28 26
-29 96 -1 96 4 0 14 -28 23 -62z m-83 -47 c0 -10 9 -30 20 -44 11 -14 20 -40
20 -60 0 -20 4 -39 10 -42 9 -6 -24 -85 -36 -85 -3 0 -23 38 -45 85 l-41 84
28 40 c32 45 44 51 44 22z m-210 -108 c38 -58 42 -69 33 -92 -6 -14 -24 -57
-39 -96 -16 -38 -33 -73 -38 -77 -16 -11 -26 1 -26 32 0 16 -5 32 -11 36 -6 3
-9 22 -7 43 3 20 0 46 -5 58 -8 18 -6 27 8 43 15 17 16 24 6 46 -10 23 -9 30
10 50 13 13 23 24 24 24 1 0 22 -30 45 -67z m172 -69 c41 -74 43 -81 28 -104
-7 -12 -16 -6 -47 29 -70 81 -73 89 -54 122 9 16 20 27 26 26 5 -2 26 -35 47
-73z m125 -41 c-3 -18 1 -36 14 -52 20 -25 27 -115 10 -125 -5 -4 -26 23 -46
59 l-36 65 22 40 c26 46 44 52 36 13z m-172 -48 l57 -65 -20 -32 c-10 -18 -29
-59 -42 -90 -12 -32 -24 -58 -27 -58 -17 0 -63 33 -63 46 0 9 -13 21 -30 27
-18 7 -30 19 -30 30 0 27 82 207 95 207 1 0 28 -29 60 -65z m135 -67 c29 -47
25 -56 -10 -23 -30 29 -39 55 -20 55 6 0 19 -15 30 -32z m-2 -71 l53 -53 -16
-70 c-37 -162 -74 -234 -83 -163 -2 13 -12 33 -22 44 -10 11 -20 31 -22 45 -2
15 -14 30 -30 38 -28 13 -28 13 -13 50 35 85 70 161 75 162 3 0 29 -24 58 -53z"></path>
<path class="node" id="node3" d="M1142 2504 c-24 -17 -29 -53 -10 -72 17 -17 48 -15 48 4 0 11 -6 13
-19 9 -26 -8 -37 13 -18 33 21 20 40 5 69 -52 11 -23 36 -60 54 -83 33 -40 34
-43 34 -136 0 -296 124 -502 378 -631 28 -14 52 -28 52 -31 0 -2 -11 -29 -25
-59 -14 -30 -25 -59 -25 -64 0 -5 -19 -34 -43 -63 -24 -30 -58 -80 -75 -111
-37 -66 -73 -195 -71 -252 2 -34 3 -36 6 -11 14 101 61 219 116 293 l24 32 -4
-162 c-2 -90 0 -183 5 -208 7 -36 9 -18 9 85 -1 134 25 278 61 350 15 31 70
84 87 85 12 0 83 -85 97 -117 9 -17 5 -31 -15 -65 -52 -90 -135 -266 -163
-348 -16 -47 -32 -87 -35 -90 -3 -3 -12 -57 -19 -122 -20 -175 -2 -298 60
-429 32 -68 32 -63 -5 41 -56 156 -53 317 7 510 36 114 199 425 222 425 14 0
73 -102 92 -159 15 -43 15 -57 4 -100 -7 -28 -19 -63 -27 -78 -7 -16 -11 -28
-8 -28 3 0 17 25 31 55 14 30 29 53 34 50 4 -3 13 -43 20 -91 14 -98 7 -206
-20 -304 -10 -36 -21 -76 -25 -90 -3 -14 3 -5 15 20 54 110 73 314 46 466 -8
44 -16 138 -18 211 l-4 132 40 -24 c58 -35 181 -149 218 -203 18 -26 40 -69
50 -97 13 -37 17 -43 18 -24 0 15 -16 58 -35 97 -41 82 -134 182 -248 266 -44
32 -77 64 -77 74 0 9 9 31 19 48 17 28 53 134 66 194 3 16 24 38 56 59 103 70
183 190 209 314 6 31 11 98 11 149 0 87 2 94 30 129 16 20 44 63 62 95 23 41
39 59 52 59 13 0 20 -7 20 -20 0 -13 -7 -20 -19 -20 -11 0 -21 -6 -24 -13 -7
-21 46 -14 58 7 21 41 -23 91 -66 74 -8 -3 -28 -33 -44 -68 -55 -116 -191
-210 -380 -265 -107 -31 -295 -38 -415 -16 -220 42 -415 165 -455 289 -20 64
-47 80 -88 51z m1176 -381 c-3 -58 -12 -107 -26 -143 -24 -61 -110 -175 -132
-175 -9 0 -15 17 -18 54 -3 42 1 60 16 80 30 42 89 162 103 211 14 52 38 85
52 71 5 -5 7 -49 5 -98z m-869 83 c19 -11 28 -28 38 -77 7 -35 33 -104 58
-154 25 -49 45 -100 45 -111 0 -19 34 -131 54 -176 15 -34 -13 -18 -78 43
-103 96 -162 224 -173 376 -8 113 1 130 56 99z m700 -100 c-22 -51 -30 -51
-47 2 -11 32 -10 34 21 47 18 7 35 10 40 6 4 -4 -2 -29 -14 -55z m-524 33 c8
-12 -14 -69 -26 -69 -5 0 -9 4 -9 9 0 5 -3 23 -6 40 -6 27 -4 31 14 31 12 0
24 -5 27 -11z m389 -71 c9 -24 20 -65 26 -93 l9 -50 -95 -92 c-52 -51 -96 -93
-98 -93 -2 0 -42 39 -90 88 l-87 87 6 50 c4 28 15 70 26 94 17 39 21 43 46 36
16 -3 45 -18 67 -32 24 -15 41 -21 45 -15 6 10 109 62 123 62 3 0 14 -19 22
-42z m46 -295 c-1 -47 -2 -49 -61 -92 -58 -42 -61 -43 -79 -26 -11 10 -20 24
-20 30 0 9 144 132 158 135 1 0 2 -21 2 -47z m-296 -42 l47 -48 -19 -32 -20
-32 -19 28 c-40 60 -65 133 -45 133 4 0 29 -22 56 -49z m113 -117 c4 -11 -2
-23 -18 -35 -45 -35 -64 -19 -31 26 20 28 40 32 49 9z m163 1 c0 -19 -27 -85
-34 -85 -3 0 -12 13 -21 29 -14 28 -14 31 11 50 32 25 44 26 44 6z m-86 -102
c14 -20 24 -39 22 -41 -3 -2 -25 8 -51 23 -37 22 -43 30 -34 41 19 23 37 16
63 -23z m-25 -72 c17 -13 22 -24 17 -37 -7 -17 -10 -16 -32 11 -37 47 -30 60
15 26z m115 -113 c22 -78 32 -158 20 -158 -5 0 -26 36 -48 79 -38 76 -38 78
-22 109 9 18 20 32 25 32 4 0 16 -28 25 -62z"></path>
<path class="node" id="node4" d="M958 1941 c-32 -21 -51 -42 -64 -73 -10 -23 -33 -71 -51 -106 -34
-64 -42 -115 -21 -128 6 -4 25 -10 42 -13 35 -7 33 0 53 -241 5 -58 15 -115
21 -127 10 -18 9 -33 -8 -82 -13 -40 -20 -83 -19 -128 l2 -68 7 70 c4 39 15
88 24 110 l17 40 20 -25 c29 -38 33 -66 15 -111 -28 -70 -42 -160 -36 -229 l5
-65 6 100 c5 72 13 116 30 157 13 32 27 58 30 58 3 0 16 -18 28 -41 16 -27 21
-49 17 -67 -5 -20 -4 -23 4 -12 9 13 11 13 20 0 19 -28 50 -148 59 -222 l8
-73 4 92 c2 50 0 91 -5 90 -4 -1 -16 25 -26 58 -9 33 -22 71 -27 84 -7 18 -5
34 9 63 10 21 22 38 27 38 5 0 14 -21 20 -47 7 -27 16 -61 21 -78 l8 -30 0 30
c1 17 -7 60 -16 96 -13 48 -15 73 -8 90 5 13 18 42 27 64 10 22 25 67 34 100
9 33 33 93 52 132 31 63 36 83 37 145 0 50 -5 84 -17 107 -15 31 -15 36 -2 51
8 9 18 30 21 48 5 25 1 35 -19 55 -15 13 -44 29 -66 35 -22 7 -71 28 -110 47
-86 43 -114 43 -173 6z m211 -43 c97 -49 134 -78 119 -93 -3 -4 -24 3 -47 14
-22 12 -46 21 -53 21 -7 -1 3 -9 23 -20 19 -10 42 -26 49 -35 13 -15 11 -20
-9 -37 l-24 -19 -37 36 c-20 19 -40 35 -45 35 -6 0 -3 -6 6 -13 8 -7 23 -24
32 -38 16 -23 16 -28 2 -39 -17 -14 -45 -7 -45 13 0 8 -9 22 -20 32 -20 18
-20 18 -5 -18 20 -47 19 -55 -5 -61 -11 -3 -29 -8 -39 -11 -17 -5 -21 1 -28
42 l-8 48 -5 -50 c-5 -45 -7 -50 -30 -50 -22 0 -26 5 -30 45 -4 39 -6 41 -12
20 -4 -14 -8 -37 -8 -52 0 -23 -4 -28 -24 -28 -33 0 -41 29 -21 75 8 21 15 40
15 44 0 14 -37 -56 -44 -82 -4 -16 -12 -27 -19 -24 -25 8 -18 57 17 124 20 37
36 73 36 79 0 7 12 27 27 44 55 66 99 65 232 -2z m98 -239 c15 -42 16 -106 3
-114 -5 -3 -12 7 -15 22 -4 15 -13 47 -21 70 -16 43 -12 67 9 60 7 -2 17 -19
24 -38z m-147 -74 c0 -33 -11 -66 -43 -126 -23 -46 -47 -84 -52 -86 -6 -1 -21
13 -33 31 l-24 35 32 60 c38 70 98 144 111 135 5 -3 9 -25 9 -49z m-120 23
c-1 -16 -50 -77 -50 -62 0 26 23 74 36 74 8 0 14 -6 14 -12z m207 -34 c6 -21
12 -69 12 -106 1 -66 1 -66 -55 -135 -31 -37 -61 -68 -66 -68 -6 0 -19 16 -31
36 l-20 35 40 60 c54 79 83 145 83 189 0 48 21 42 37 -11z m-217 -265 c-17
-32 -30 -22 -30 24 l1 42 19 -23 c15 -18 17 -28 10 -43z m210 -10 c0 -18 -32
-113 -42 -124 -10 -11 -38 19 -38 41 0 14 61 93 73 93 4 1 7 -4 7 -10z m-146
-41 l24 -32 -19 -38 c-11 -21 -23 -38 -27 -38 -5 0 -18 20 -30 45 -21 43 -21
47 -6 70 21 32 27 31 58 -7z m76 -133 c0 -34 -20 -85 -34 -85 -7 0 -20 18 -30
40 -14 32 -15 44 -5 62 25 48 32 52 51 28 10 -12 18 -32 18 -45z"></path>





</g>
<g transform="translate(0.000000,300.000000) scale(0.100000,-0.100000)" fill="#C07A62" stroke="none">

<path class="node" id="node11" d="M984 1940 c-24 -9 -74 -66 -74 -84 0 -6 -16 -42 -36 -79 -35 -67 -42
-116 -17 -124 7 -3 15 8 19 24 7 26 44 96 44 82 0 -4 -7 -23 -15 -44 -20 -46
-12 -75 21 -75 20 0 24 5 24 28 0 15 4 38 8 52 6 21 8 19 12 -20 4 -40 8 -45
30 -45 23 0 25 5 30 50 l5 50 8 -48 c7 -41 11 -47 28 -42 10 3 28 8 39 11 24
6 25 14 5 61 -15 36 -15 36 5 18 11 -10 20 -24 20 -32 0 -20 28 -27 45 -13 14
11 14 16 -2 39 -9 14 -24 31 -32 38 -9 7 -12 13 -6 13 5 0 25 -16 45 -35 l37
-36 24 19 c20 17 22 22 9 37 -7 9 -30 25 -49 35 -20 11 -30 19 -23 20 7 0 31
-9 53 -21 23 -11 44 -18 47 -14 15 15 -22 44 -119 93 -102 51 -141 60 -185 42z"></path>
<path class="node" id="node12" d="M1225 1690 c-3 -6 0 -29 9 -53 8 -23 17 -55 21 -70 8 -38 25 -24 24
21 -1 69 -35 133 -54 102z"></path>
<path class="node" id="node13" d="M1067 1600 c-19 -23 -49 -68 -67 -101 l-32 -60 24 -35 c12 -18 27
-32 33 -31 5 2 29 40 52 86 32 60 43 93 43 126 0 24 -4 46 -9 49 -5 4 -25 -12
-44 -34z"></path>
<path class="node" id="node14" d="M961 1589 c-17 -50 -13 -57 14 -24 27 34 32 55 11 55 -8 0 -19 -14
-25 -31z"></path>
<path class="node" id="node15" d="M1170 1585 c0 -44 -29 -110 -83 -189 l-40 -60 20 -35 c12 -20 25 -36
31 -36 5 0 35 31 66 68 56 69 56 69 55 135 -1 74 -18 143 -37 150 -8 2 -12 -8
-12 -33z"></path>
<path class="node" id="node16" d="M960 1333 c0 -46 13 -56 30 -24 7 15 5 25 -10 43 l-19 23 -1 -42z"></path>
<path class="node" id="node17" d="M1153 1268 c-37 -45 -39 -56 -19 -84 19 -24 28 -14 50 53 27 87 19
95 -31 31z"></path>
<path class="node" id="node18" d="M996 1265 c-15 -23 -15 -27 6 -70 12 -25 25 -45 30 -45 4 0 16 17 27
38 l19 38 -24 32 c-31 38 -37 39 -58 7z"></path>
<path class="node" id="node19" d="M1083 1179 c-31 -40 -34 -59 -17 -99 21 -48 38 -51 53 -9 16 45 14
73 -7 99 -15 18 -20 20 -29 9z"></path>
<path class="node" id="node20" d="M389 2896 c-97 -34 -215 -154 -207 -209 4 -30 41 -34 74 -8 32 25 46
26 84 6 28 -14 33 -14 69 5 44 22 65 19 99 -18 24 -25 21 -25 109 -5 15 3 28
-3 44 -21 18 -20 32 -26 65 -26 33 0 47 -5 58 -22 18 -25 22 -23 31 13 6 24 3
27 -29 33 -29 6 -36 11 -36 30 0 13 -7 29 -15 36 -13 11 -15 8 -15 -15 0 -20
-4 -26 -17 -23 -14 2 -17 11 -15 35 4 35 -16 56 -25 25 -4 -17 -12 -20 -49
-19 l-44 2 0 55 c0 39 -3 51 -10 40 -5 -8 -10 -25 -10 -36 0 -32 -21 -43 -68
-37 -47 6 -52 19 -27 67 9 16 13 31 10 34 -9 9 -38 -23 -55 -63 -20 -47 -44
-70 -65 -61 -26 10 -29 36 -6 67 36 48 9 33 -41 -23 -31 -36 -50 -50 -57 -43
-16 15 16 71 61 106 21 17 62 44 91 60 56 31 54 36 -4 15z"></path>
<path class="node" id="node21" d="M430 2650 c0 -11 -6 -35 -13 -53 -8 -18 -11 -41 -7 -52 9 -23 12 -17
30 53 6 24 14 50 17 58 3 8 -1 14 -11 14 -9 0 -16 -8 -16 -20z"></path>
<path class="node" id="node22" d="M255 2650 c-4 -6 -23 -18 -43 -28 -32 -15 -38 -23 -46 -66 -13 -63 5
-100 51 -104 30 -3 31 -2 38 49 4 29 16 77 26 106 17 52 17 53 -1 53 -10 0
-22 -5 -25 -10z"></path>
<path class="node" id="node23" d="M80 2589 c-44 -38 -45 -39 -30 -66 27 -48 51 -36 70 35 10 34 15 64
11 66 -3 2 -26 -14 -51 -35z"></path>
<path class="node" id="node24" d="M491 2616 c-14 -17 -27 -106 -15 -106 27 1 42 28 42 73 -1 49 -8 57
-27 33z"></path>
<path class="node" id="node25" d="M314 2573 c-3 -16 -10 -44 -15 -63 -16 -61 -12 -82 14 -78 19 3 22 9
22 48 0 25 4 50 8 57 9 14 -1 63 -14 63 -5 0 -11 -12 -15 -27z"></path>
<path class="node" id="node26" d="M596 2564 c-17 -21 -26 -40 -22 -50 9 -25 -2 -51 -24 -57 -27 -7 -25
-31 4 -50 19 -13 30 -14 61 -4 32 9 42 20 62 64 13 29 27 69 30 89 6 36 5 37
-20 30 -14 -3 -29 -2 -32 4 -11 18 -29 10 -59 -26z"></path>
<path class="node" id="node27" d="M745 2523 c-3 -15 -18 -50 -31 -77 -14 -27 -23 -50 -21 -52 2 -2 20
-1 40 3 31 5 37 10 43 37 14 75 -14 156 -31 89z"></path>
<path class="node" id="node28" d="M826 2493 c-12 -77 -11 -81 37 -79 35 1 42 4 45 23 3 17 -3 26 -22
32 -14 6 -26 19 -28 32 -5 37 -25 32 -32 -8z"></path>
<path class="node" id="node29" d="M402 2498 c-17 -17 -15 -45 3 -52 12 -4 15 3 15 29 0 39 -1 40 -18
23z"></path>
<path class="node" id="node30" d="M460 2470 c0 -19 3 -21 12 -12 9 9 9 15 0 24 -9 9 -12 7 -12 -12z"></path>
<path class="node" id="node31" d="M143 2404 c-7 -18 4 -211 13 -225 7 -12 54 20 54 37 0 8 9 19 20 26
16 10 20 24 20 68 0 51 -3 57 -34 83 -39 31 -64 34 -73 11z"></path>
<path class="node" id="node32" d="M284 2355 c-7 -29 0 -55 16 -55 13 0 32 49 26 67 -9 22 -35 15 -42
-12z"></path>
<path class="node" id="node33" d="M489 2334 c-6 -18 -5 -39 3 -66 l12 -41 38 44 c35 41 52 79 28 64 -6
-4 -24 0 -41 9 -29 14 -30 14 -40 -10z"></path>
<path class="node" id="node34" d="M594 2277 c-83 -101 -79 -86 -54 -181 13 -47 27 -83 31 -80 27 17
178 279 179 310 0 7 -20 11 -54 10 -53 0 -54 -1 -102 -59z"></path>
<path class="node" id="node35" d="M416 2284 c-11 -28 -6 -51 14 -69 14 -12 18 -26 14 -44 l-5 -26 19
22 c19 21 19 24 3 78 -16 54 -33 70 -45 39z"></path>
<path class="node" id="node36" d="M343 2229 c-7 -7 -13 -21 -13 -30 0 -9 -7 -19 -15 -23 -17 -6 -16
-16 11 -113 8 -29 19 -53 23 -53 5 0 19 15 30 34 27 43 27 97 2 120 -11 10
-21 31 -23 48 -2 23 -5 27 -15 17z"></path>
<path class="node" id="node37" d="M2288 2213 c-8 -10 -20 -38 -27 -63 -14 -49 -73 -169 -103 -211 -15
-20 -19 -38 -16 -80 3 -37 9 -54 18 -54 22 0 108 114 132 175 14 36 23 85 26
143 4 94 -4 120 -30 90z"></path>
<path class="node" id="node38" d="M1393 2204 c-12 -31 6 -180 30 -249 36 -103 70 -156 143 -224 65 -61
93 -77 78 -43 -20 45 -54 157 -54 176 0 11 -20 62 -45 111 -25 50 -51 119 -58
154 -10 49 -19 66 -38 77 -32 18 -48 17 -56 -2z"></path>
<path class="node" id="node39" d="M2123 2155 c-31 -13 -32 -15 -21 -47 17 -53 25 -53 47 -2 12 26 18
51 14 55 -5 4 -22 1 -40 -6z"></path>
<path class="node" id="node40" d="M242 2136 c-13 -6 -26 -22 -29 -36 -3 -14 -10 -30 -15 -37 -7 -8 1
-31 22 -70 56 -104 66 -110 95 -53 14 27 13 35 -12 112 -14 46 -29 86 -32 89
-3 3 -16 0 -29 -5z"></path>
<path class="node" id="node41" d="M1584 2119 c3 -17 6 -35 6 -40 0 -20 18 -7 30 20 14 35 7 51 -22 51
-18 0 -20 -4 -14 -31z"></path>
<path class="node" id="node42" d="M477 2133 c-15 -14 -6 -71 14 -89 14 -13 18 -25 14 -42 -6 -24 9 -52
27 -52 10 0 6 30 -19 128 -15 60 -22 70 -36 55z"></path>
<path class="node" id="node43" d="M1930 2084 c-30 -14 -57 -30 -61 -36 -4 -6 -21 0 -45 15 -22 14 -51
29 -67 32 -25 7 -29 3 -46 -36 -11 -24 -22 -66 -26 -94 l-6 -50 87 -87 c48
-49 88 -88 90 -88 2 0 46 42 98 93 l95 92 -9 50 c-11 58 -39 135 -48 135 -4 0
-32 -12 -62 -26z"></path>
<path class="node" id="node44" d="M386 2009 l-28 -40 41 -84 c22 -47 42 -85 45 -85 12 0 45 79 36 85
-6 3 -10 22 -10 42 0 20 -9 46 -20 60 -11 14 -20 34 -20 44 0 29 -12 23 -44
-22z"></path>
<path class="node" id="node45" d="M151 1966 c-19 -20 -20 -27 -10 -50 10 -22 9 -29 -6 -46 -14 -16 -16
-25 -8 -43 5 -12 8 -38 5 -58 -2 -21 1 -40 7 -43 6 -4 11 -20 11 -36 0 -31 10
-43 26 -32 5 4 22 39 38 77 15 39 33 82 39 96 9 23 5 34 -33 92 -23 37 -44 67
-45 67 -1 0 -11 -11 -24 -24z"></path>
<path class="node" id="node46" d="M319 1901 c-19 -33 -16 -41 54 -122 31 -35 40 -41 47 -29 5 8 10 20
10 25 0 16 -75 148 -85 152 -6 1 -17 -10 -26 -26z"></path>
<path class="node" id="node47" d="M481 1800 l-22 -40 36 -65 c20 -36 41 -63 46 -59 17 10 10 100 -10
125 -13 16 -17 34 -14 52 8 39 -10 33 -36 -13z"></path>
<path class="node" id="node48" d="M273 1818 c-18 -24 -83 -177 -83 -195 0 -11 12 -23 30 -30 17 -6 30
-18 30 -27 0 -13 46 -46 63 -46 3 0 15 26 27 58 13 31 32 72 42 90 l20 32 -57
65 c-32 36 -59 65 -60 65 -1 0 -7 -6 -12 -12z"></path>
<path class="node" id="node49" d="M1978 1758 c-43 -33 -78 -66 -78 -73 0 -6 9 -20 20 -30 18 -17 21
-16 79 26 59 43 60 45 61 92 0 26 -1 47 -2 47 -2 -1 -38 -28 -80 -62z"></path>
<path class="node" id="node50" d="M1700 1765 c0 -18 28 -81 53 -118 l19 -28 20 32 19 32 -47 48 c-51
51 -64 59 -64 34z"></path>
<path class="node" id="node51" d="M440 1717 c0 -7 14 -26 30 -42 35 -33 39 -24 10 23 -20 33 -40 42
-40 19z"></path>
<path class="node" id="node52" d="M388 1617 c-63 -142 -61 -134 -30 -149 16 -8 28 -23 30 -38 2 -14 12
-34 22 -45 10 -11 20 -31 22 -44 9 -71 46 1 83 163 l16 70 -53 53 c-29 29 -55
53 -58 53 -3 0 -17 -29 -32 -63z"></path>
<path class="node" id="node53" d="M1828 1605 c-33 -45 -14 -61 31 -26 16 12 22 24 18 35 -9 23 -29 19
-49 -9z"></path>
<path class="node" id="node54" d="M1996 1609 c-25 -19 -25 -22 -11 -50 9 -16 18 -29 21 -29 7 0 34 66
34 85 0 20 -12 19 -44 -6z"></path>
<path class="node" id="node55" d="M1891 1536 c-9 -11 -3 -19 34 -41 26 -15 48 -25 51 -23 7 8 -47 78
-60 78 -8 0 -19 -6 -25 -14z"></path>
<path class="node" id="node56" d="M1890 1453 c0 -5 11 -21 24 -38 22 -27 25 -28 32 -11 5 13 0 24 -17
37 -26 20 -39 24 -39 12z"></path>
<path class="node" id="node57" d="M1994 1358 c-16 -31 -16 -33 22 -109 22 -43 43 -79 48 -79 5 0 6 21
3 48 -7 62 -38 172 -48 172 -5 0 -16 -14 -25 -32z"></path>
</g>
</svg>