<!--?xml version="1.0" standalone="no"?-->

<svg version="1.0" xmlns="http://www.w3.org/2000/svg" width="288.000000pt" height="300.000000pt" viewBox="0 0 288.000000 300.000000" preserveAspectRatio="xMidYMid meet">
<g transform="translate(0.000000,300.000000) scale(0.100000,-0.100000)" fill="#313131" stroke="none">
<path d="M613 2956 c-128 -31 -232 -144 -277 -298 -24 -83 -31 -197 -16 -266
12 -56 11 -60 -21 -136 -31 -75 -32 -78 -16 -111 21 -45 49 -62 133 -82 114
-27 282 -28 383 -3 95 24 208 80 279 138 109 89 254 298 269 387 4 27 0 44
-20 74 -27 40 -72 63 -151 76 -29 5 -55 21 -100 64 -155 147 -301 196 -463
157z m228 -112 c76 -38 111 -69 184 -160 35 -44 84 -97 109 -118 39 -32 46
-43 46 -73 0 -41 -31 -75 -127 -139 -68 -46 -130 -75 -228 -106 -99 -31 -293
-33 -345 -3 -65 38 -71 67 -61 266 10 180 19 219 64 281 22 30 54 51 112 75
51 21 184 9 246 -23z" id="node1" class="node" stroke-width="20"></path>
<path d="M647 2833 c-17 -16 -2 -33 74 -82 74 -49 86 -61 157 -169 65 -99 84
-120 122 -139 33 -15 50 -18 63 -11 45 24 35 63 -43 158 -34 41 -78 98 -99
125 -44 59 -92 97 -140 113 -37 13 -123 16 -134 5z m171 -55 c18 -11 45 -39
61 -61 16 -23 56 -73 90 -111 62 -70 79 -102 64 -116 -19 -20 -73 20 -112 82
-22 35 -52 83 -67 107 -17 27 -49 57 -85 80 -32 20 -58 40 -59 45 0 13 72 -4
108 -26z" id="node2" class="node" stroke-width="20"></path>
<path d="M460 2508 c-46 -49 -16 -167 54 -213 29 -19 86 -36 97 -29 4 2 -5 34
-21 69 -16 36 -35 83 -41 104 -10 33 -51 91 -64 91 -2 0 -13 -10 -25 -22z m78
-118 c36 -95 26 -112 -30 -52 -30 33 -38 49 -38 80 0 21 3 42 7 45 18 18 33 0
61 -73z" id="node3" class="node" stroke-width="20"></path>
<path d="M1275 2266 c-14 -10 -25 -11 -47 -2 -27 10 -31 8 -84 -52 -83 -93
-220 -163 -361 -187 -54 -9 -59 -18 -34 -54 27 -37 26 -82 -1 -149 -20 -49
-21 -56 -7 -80 8 -15 24 -29 34 -31 11 -2 35 -16 53 -32 37 -33 58 -36 90 -13
29 20 28 39 -3 76 -29 34 -31 55 -9 86 32 46 73 10 53 -47 -14 -40 2 -64 38
-55 18 5 32 0 54 -22 25 -24 33 -26 57 -18 17 6 28 18 30 32 2 13 11 26 20 29
39 14 72 45 72 67 0 38 -37 76 -74 76 -66 0 -82 41 -30 75 38 24 99 3 130 -47
26 -41 36 -44 74 -24 14 8 38 12 57 9 44 -7 67 12 59 49 -4 18 2 44 16 74 26
52 18 76 -28 84 -20 4 -30 12 -32 28 -4 29 -30 28 -72 -3 -19 -14 -42 -25 -52
-25 -33 0 -19 28 32 64 35 25 50 43 50 59 0 44 -46 62 -85 33z m-63 -138 c15
-49 96 -118 138 -118 35 0 53 -14 48 -36 -3 -16 -12 -19 -58 -17 -30 0 -58 1
-62 2 -4 1 -14 17 -22 36 l-15 35 -75 0 c-66 0 -78 -3 -105 -26 -25 -21 -31
-33 -31 -66 0 -55 14 -76 68 -101 l47 -21 -35 -4 c-19 -2 -41 -8 -47 -14 -21
-17 -43 -1 -43 31 0 43 -16 78 -44 96 -21 14 -28 14 -59 1 -43 -17 -54 -36
-62 -107 -9 -72 -12 -80 -29 -73 -21 8 -24 33 -9 78 7 21 13 68 13 103 l0 65
59 -7 58 -7 52 46 c37 33 60 46 82 46 44 0 65 15 83 60 9 22 20 40 25 40 5 0
15 -19 23 -42z" id="node4" class="node" stroke-width="20"></path>
<path d="M1494 1878 c16 -80 30 -111 82 -184 63 -88 68 -99 79 -169 9 -64 48
-137 85 -158 15 -9 31 -17 34 -17 10 0 7 102 -5 166 -14 77 -52 145 -108 196
-25 22 -61 54 -79 71 -18 16 -44 51 -58 78 -28 57 -39 63 -30 17z" id="node5" class="node" stroke-width="20"></path>
<path d="M1366 1833 c-16 -17 -1 -73 54 -194 33 -72 60 -138 60 -146 0 -7 11
-45 25 -84 42 -121 95 -168 226 -198 49 -12 102 -27 118 -36 50 -25 103 -106
170 -257 97 -219 267 -292 458 -198 116 57 128 86 17 41 -103 -42 -133 -45
-212 -22 -54 17 -76 30 -113 68 -52 54 -75 99 -114 223 -35 108 -44 125 -98
186 -37 41 -56 53 -118 73 -112 35 -176 71 -202 111 -22 33 -57 142 -57 176 0
29 -74 164 -115 209 -37 40 -84 63 -99 48z" id="node6" class="node" stroke-width="20"></path>
<path d="M1259 1769 c-25 -47 -4 -225 43 -364 17 -49 37 -97 46 -105 13 -13
14 -13 7 5 -4 11 -10 112 -12 225 -2 113 -9 217 -15 233 -13 34 -52 37 -69 6z" id="node7" class="node" stroke-width="20"></path>
<path d="M1110 1655 c-12 -15 -8 -81 11 -157 5 -21 14 -57 19 -80 34 -139 108
-260 202 -331 76 -59 116 -10 55 65 -69 85 -177 287 -177 332 0 8 -4 17 -9 21
-5 3 -15 31 -22 63 -19 91 -48 124 -79 87z" id="node8" class="node" stroke-width="20"></path>
<path d="M942 1638 c-19 -19 -14 -96 13 -225 50 -234 95 -335 187 -418 93 -83
175 -94 333 -43 44 14 96 22 142 22 96 1 116 -17 148 -137 22 -85 51 -138 89
-167 51 -39 103 -61 166 -70 70 -10 193 -3 185 10 -2 4 -37 10 -77 13 -189 17
-261 88 -297 295 -21 119 -138 172 -314 142 -45 -8 -120 -14 -167 -15 -80 0
-87 2 -123 30 -66 53 -128 199 -163 384 -25 138 -50 191 -87 191 -13 0 -28 -5
-35 -12z" id="node9" class="node" stroke-width="20"></path>
<path d="M771 1547 c-12 -45 -48 -133 -79 -196 -53 -107 -57 -120 -60 -196 -4
-85 7 -123 59 -196 41 -58 225 -157 298 -160 9 0 43 -15 76 -32 49 -27 64 -41
84 -80 31 -63 36 -119 17 -191 -9 -33 -14 -62 -11 -64 11 -11 58 117 62 170 8
86 -2 121 -54 178 -49 55 -96 83 -177 107 -53 16 -154 71 -195 107 -75 66 -97
162 -61 261 62 171 80 238 80 300 0 35 -4 66 -8 69 -5 3 -19 -32 -31 -77z" id="node10" class="node" stroke-width="20"></path>
<path d="M848 1527 c3 -62 0 -93 -14 -127 -9 -25 -19 -72 -21 -105 -4 -51 0
-68 24 -115 24 -47 36 -59 85 -84 83 -41 98 -30 49 36 -49 64 -60 112 -59 248
1 92 -2 112 -25 161 -13 31 -29 59 -34 62 -6 4 -8 -27 -5 -76z" id="node11" class="node" stroke-width="20"></path>
<path d="M1790 1543 c0 -5 10 -26 23 -47 32 -58 75 -80 156 -78 172 3 271 -66
271 -190 0 -55 17 -118 38 -142 32 -35 88 -56 151 -56 72 0 89 16 28 25 -59 9
-119 44 -136 80 -8 16 -18 66 -22 111 -12 134 -32 173 -113 210 -44 20 -67 24
-161 24 -114 0 -172 16 -204 53 -14 18 -31 23 -31 10z" id="node12" class="node" stroke-width="20"></path>
<path d="M1437 1463 c-11 -10 -8 -119 4 -187 12 -70 57 -161 79 -161 8 0 23
17 33 38 l19 37 -45 93 c-24 50 -52 113 -62 140 -19 51 -19 50 -28 40z" id="node13" class="node" stroke-width="20"></path>
<path d="M1645 1180 c-15 -24 47 -67 124 -84 72 -17 141 -44 141 -57 0 -4 7
-9 15 -13 24 -9 18 7 -22 58 -51 65 -108 97 -187 103 -45 4 -66 2 -71 -7z" id="node14" class="node" stroke-width="20"></path>
<path d="M2085 1034 c9 -53 23 -70 95 -124 36 -27 90 -74 120 -104 44 -46 60
-56 87 -56 l34 0 -23 41 c-33 58 -162 188 -237 237 -35 23 -68 42 -74 42 -5 0
-6 -15 -2 -36z" id="node15" class="node" stroke-width="20"></path>
<path d="M1475 930 c-4 -7 10 -30 38 -58 44 -45 97 -131 97 -157 0 -7 12 -48
26 -91 60 -179 144 -292 254 -343 76 -35 194 -37 260 -3 73 38 168 140 215
232 14 28 2 19 -61 -45 -101 -102 -164 -135 -255 -135 -157 0 -254 105 -339
370 -37 115 -68 173 -110 208 -33 26 -113 41 -125 22z" id="node16" class="node" stroke-width="20"></path>
<path d="M1330 874 c0 -3 13 -23 29 -43 15 -20 34 -54 41 -76 7 -22 16 -45 21
-51 4 -5 13 -68 19 -139 11 -145 32 -203 94 -267 66 -68 181 -119 296 -132
l55 -6 -60 25 c-157 67 -217 113 -274 209 -20 35 -25 61 -31 166 -7 132 -20
175 -67 237 -32 42 -123 99 -123 77z" id="node17" class="node" stroke-width="20"></path>
<path d="M2448 683 c-20 -5 -24 -28 -8 -38 17 -10 100 -183 131 -270 19 -53
30 -74 34 -63 4 10 4 21 1 27 -3 5 -13 45 -21 89 -15 79 -35 135 -78 220 -22
42 -26 44 -59 35z" id="node18" class="node" stroke-width="20"></path>























</g>
<g transform="translate(0.000000,300.000000) scale(0.100000,-0.100000)" fill="#FFFFFF" stroke="none">

<path d="M595 2867 c-58 -24 -90 -45 -112 -75 -45 -62 -54 -101 -64 -281 -10
-199 -4 -228 61 -266 52 -30 246 -28 345 3 98 31 160 60 228 106 96 64 127 98
127 139 0 30 -7 41 -46 73 -25 21 -74 74 -109 118 -109 138 -187 184 -318 191
-52 3 -93 0 -112 -8z m186 -39 c48 -16 96 -54 140 -113 21 -27 65 -84 99 -125
78 -95 88 -134 43 -158 -13 -7 -30 -4 -63 11 -38 19 -57 40 -122 139 -71 108
-83 120 -157 169 -76 49 -91 66 -74 82 11 11 97 8 134 -5z m-268 -324 c14 -14
30 -44 36 -65 6 -21 25 -68 41 -104 16 -35 25 -67 21 -69 -11 -7 -68 10 -97
29 -70 46 -100 164 -54 213 26 27 24 27 53 -4z" id="node43" class="node" stroke-width="20"></path>
<path d="M710 2804 c1 -5 27 -25 59 -45 36 -23 68 -53 85 -80 15 -24 45 -72
67 -107 39 -62 93 -102 112 -82 15 14 -2 46 -64 116 -34 38 -74 88 -90 111
-16 22 -43 50 -61 61 -36 22 -108 39 -108 26z" id="node44" class="node" stroke-width="20"></path>
<path d="M477 2463 c-4 -3 -7 -24 -7 -45 0 -31 8 -47 38 -80 56 -60 66 -43 30
52 -28 73 -43 91 -61 73z" id="node45" class="node" stroke-width="20"></path>
<path d="M1164 2130 c-18 -45 -39 -60 -83 -60 -22 0 -45 -13 -82 -46 l-52 -46
-58 7 -59 7 0 -65 c0 -35 -6 -82 -13 -103 -15 -45 -12 -70 9 -78 17 -7 20 1
29 73 8 71 19 90 62 107 31 13 38 13 59 -1 28 -18 44 -53 44 -96 0 -32 22 -48
43 -31 6 6 28 12 47 14 l35 4 -47 21 c-54 25 -68 46 -68 101 0 33 6 45 31 66
27 23 39 26 105 26 l75 0 15 -35 c8 -19 18 -35 22 -36 4 -1 32 -2 62 -2 46 -2
55 1 58 17 5 22 -13 36 -48 36 -42 0 -123 69 -138 118 -8 23 -18 42 -23 42 -5
0 -16 -18 -25 -40z" id="node46" class="node" stroke-width="20"></path>




</g>
</svg>