<!--?xml version="1.0" standalone="no"?-->

<svg version="1.0" xmlns="http://www.w3.org/2000/svg" width="283.000000pt" height="300.000000pt" viewBox="0 0 283.000000 300.000000" preserveAspectRatio="xMidYMid meet">
<g transform="translate(0.000000,300.000000) scale(0.100000,-0.100000)" fill="#232323" stroke="none">
<path d="M910 2991 c-75 -18 -142 -60 -227 -143 -70 -68 -103 -126 -110 -195
l-6 -55 -71 -46 c-178 -113 -412 -349 -482 -485 l-15 -28 29 15 c16 8 43 26
58 39 47 39 169 116 221 138 95 41 323 109 367 109 21 0 24 -6 30 -52 6 -52
48 -204 67 -243 17 -37 28 -154 19 -212 -9 -63 -41 -147 -68 -177 -16 -18 -16
-19 13 -12 17 4 46 15 66 25 l37 17 5 -70 c3 -44 13 -88 27 -115 44 -88 170
-186 152 -119 -4 18 5 14 49 -25 29 -26 57 -47 61 -47 5 0 8 -26 8 -57 0 -40
6 -68 20 -90 23 -38 34 -43 24 -10 -6 22 -6 22 20 -2 39 -36 54 -73 76 -184
25 -125 25 -184 0 -292 -23 -100 -40 -135 -76 -164 l-27 -21 -44 41 c-49 45
-40 44 -178 20 -78 -13 -105 -28 -174 -94 -67 -66 -111 -142 -111 -194 0 -42
16 -50 46 -22 l24 22 0 -62 0 -63 71 65 c66 61 74 65 108 60 20 -3 38 -7 40
-9 2 -2 -2 -17 -8 -35 -6 -18 -11 -47 -11 -65 0 -63 38 -110 54 -67 4 10 17
33 29 50 18 27 28 33 60 33 44 0 70 12 112 50 26 24 41 28 113 33 115 9 190
45 212 102 9 23 7 34 -13 69 -54 93 -71 162 -71 291 0 133 14 190 65 270 32
51 35 61 17 68 -7 3 -2 6 12 6 31 1 147 36 163 49 7 5 47 13 89 17 l78 7 41
-36 c48 -41 98 -60 140 -54 25 4 35 -1 59 -32 99 -125 127 -329 65 -468 -38
-85 -44 -88 -90 -52 -51 40 -88 39 -129 -2 -41 -41 -96 -180 -96 -242 0 -78
59 -186 103 -186 15 0 18 5 13 28 -3 15 0 42 7 61 10 29 17 34 51 37 21 2 44
8 52 14 16 14 34 5 34 -16 0 -26 57 -128 88 -157 26 -25 30 -26 42 -12 7 8 15
46 18 84 4 62 7 70 30 80 36 17 87 -3 132 -50 40 -42 64 -49 74 -22 11 28 29
165 28 206 -2 49 -47 132 -90 166 -77 60 -109 195 -99 411 4 69 13 149 20 178
13 50 13 53 -5 63 -24 13 -11 32 42 59 20 10 60 44 88 75 57 62 71 97 21 49
-37 -34 -38 -38 24 91 104 216 151 289 235 365 l67 60 -50 0 c-28 0 -45 4 -40
8 6 4 12 17 12 29 2 23 -5 27 -67 37 -19 3 -48 17 -65 30 -29 24 -29 25 -5 19
32 -8 26 -1 -30 32 -25 14 -35 23 -22 20 13 -4 22 -2 22 5 0 45 -92 138 -194
196 -51 30 -63 40 -47 42 35 6 24 20 -40 52 -70 36 -184 66 -284 75 -112 11
-301 -22 -407 -69 -32 -14 -58 -23 -58 -20 0 2 19 30 41 60 23 30 40 57 37 59
-8 8 -70 -26 -116 -63 -43 -34 -43 -34 -36 -8 8 35 -3 33 -46 -9 l-35 -34 3
126 c4 163 -10 245 -59 342 -72 144 -192 231 -329 237 -36 2 -81 -1 -100 -5z
m211 -73 c201 -94 279 -363 208 -720 -10 -53 -19 -103 -19 -112 0 -31 15 -15
44 47 23 49 30 58 36 43 7 -21 4 -23 56 42 15 18 29 31 32 28 3 -3 -1 -12 -8
-21 -23 -28 -4 -27 61 3 155 71 255 93 419 93 107 0 260 -19 230 -29 -69 -22
-69 -22 22 -52 48 -15 109 -40 135 -56 42 -24 153 -103 153 -108 0 -1 -27 0
-60 2 -61 4 -84 -10 -36 -22 14 -3 69 -44 122 -91 53 -47 102 -85 108 -85 35
-1 36 -18 1 -55 -34 -38 -52 -72 -42 -81 3 -3 23 4 46 15 22 12 45 21 51 21 6
0 -12 -29 -40 -65 -27 -36 -86 -138 -130 -227 -44 -89 -82 -164 -85 -167 -3
-3 -3 21 1 52 5 38 3 57 -4 57 -12 0 -18 -16 -27 -77 -11 -68 -62 -143 -125
-181 -30 -18 -68 -36 -84 -39 l-29 -6 22 -19 23 -18 -50 0 c-45 0 -84 13 -211
67 -11 5 -13 2 -8 -11 13 -33 -17 -11 -64 47 -42 52 -68 98 -115 201 -10 22
-20 34 -22 28 -5 -17 16 -113 33 -145 13 -26 13 -27 -6 -17 -10 6 -19 7 -19 3
1 -14 24 -39 48 -52 31 -17 28 -29 -10 -36 -39 -7 -100 4 -226 39 -95 26 -182
34 -182 16 0 -5 7 -10 16 -10 10 0 73 -19 141 -42 96 -33 119 -44 106 -52 -27
-15 -158 -20 -195 -7 -22 8 -34 8 -36 1 -5 -13 -57 14 -101 53 -30 26 -36 27
-41 13 -5 -16 -7 -16 -22 1 -16 19 -48 77 -48 89 0 4 16 4 35 1 52 -9 43 7
-29 47 -83 46 -157 114 -187 170 -13 25 -27 46 -30 46 -10 0 -21 -68 -14 -80
3 -6 2 -10 -4 -10 -5 0 -25 30 -43 67 -29 60 -33 78 -35 158 -1 49 -2 91 -2
93 -1 2 -18 -10 -38 -25 -32 -24 -36 -25 -29 -8 4 11 14 53 22 93 13 67 12 81
-6 162 -10 49 -23 98 -29 108 -8 16 -61 211 -61 227 0 3 9 1 21 -6 20 -10 79
-124 79 -151 0 -7 9 -26 21 -43 l20 -30 -5 40 c-3 22 -8 68 -12 103 -5 48 -9
62 -20 58 -8 -3 -14 0 -14 6 0 7 -14 27 -32 45 -23 24 -28 34 -17 38 8 2 30
10 49 17 117 43 240 141 240 192 0 34 -7 36 -70 20 -102 -26 -162 -17 -205 33
-25 28 -48 29 -120 2 -31 -12 -58 -19 -61 -16 -13 13 44 123 93 177 55 60 84
78 63 39 -22 -41 0 -31 46 20 59 66 95 85 146 77 21 -3 38 -2 38 3 0 13 58 -2
121 -31z m-350 -294 c7 -8 28 -23 48 -33 l35 -18 -32 -17 c-18 -9 -72 -31
-120 -47 -172 -61 -263 -111 -422 -230 -114 -86 -133 -93 -81 -30 121 144 358
322 496 372 63 22 60 22 76 3z m233 -72 c-73 -66 -194 -121 -399 -180 -38 -11
-114 -34 -167 -50 -54 -16 -98 -29 -98 -27 0 1 37 25 83 53 98 60 165 91 272
128 44 15 84 31 90 36 5 4 15 8 23 8 8 0 37 12 66 26 45 23 108 40 156 42 8 1
-3 -16 -26 -36z m425 -1492 c38 0 40 -20 10 -87 -69 -154 -66 -367 7 -520 19
-39 34 -78 34 -86 0 -9 -25 -28 -55 -42 -45 -22 -71 -28 -139 -29 l-83 -2 -40
-42 c-24 -25 -49 -42 -63 -42 -21 0 -20 2 14 40 40 45 48 91 19 122 -15 17
-14 18 22 18 21 0 53 -5 72 -12 38 -14 56 -3 28 18 -32 24 -91 37 -131 30 -27
-6 -53 -23 -96 -67 -33 -32 -66 -59 -74 -59 -20 0 -17 11 10 43 46 53 42 137
-5 122 -30 -10 -22 3 23 35 53 39 77 38 128 -5 23 -19 47 -35 53 -35 7 0 22
-3 35 -6 17 -5 22 -2 22 12 0 15 3 15 24 -5 27 -25 53 -25 70 1 8 14 7 22 -6
35 -10 9 -21 13 -25 9 -4 -4 0 -12 10 -17 21 -12 13 -29 -14 -29 -29 0 -34 25
-11 57 32 45 64 170 69 268 5 91 -3 156 -30 254 -21 77 -16 82 50 49 31 -15
63 -28 72 -28z m865 -91 c-17 -135 -14 -234 12 -347 8 -37 22 -78 31 -90 13
-22 13 -26 -6 -46 -27 -29 -29 -57 -3 -33 39 35 89 12 124 -56 18 -37 41 -107
33 -107 -1 0 -15 18 -30 41 -62 88 -97 73 -96 -41 0 -57 -3 -70 -12 -61 -7 7
-11 35 -9 74 3 49 0 68 -15 85 -18 23 -18 22 -18 -50 0 -56 -5 -80 -20 -102
l-19 -29 -13 61 c-21 106 -58 138 -103 90 l-21 -23 7 30 c9 40 40 82 65 90 11
4 36 4 55 0 19 -3 34 -3 34 0 0 14 -46 44 -67 45 -28 0 -27 -6 -4 63 11 31 23
76 26 99 9 64 -20 191 -65 283 -21 44 -35 82 -29 83 5 2 7 7 4 12 -2 4 17 10
44 12 27 3 62 14 77 26 16 11 30 19 32 18 1 -2 -5 -59 -14 -127z m-1389 -479
c-3 -5 -14 -10 -23 -10 -15 0 -15 2 -2 10 20 13 33 13 25 0z m1153 -35 c17
-14 35 -25 42 -25 8 0 10 -8 6 -22 -4 -13 -10 -51 -13 -86 -5 -54 -10 -65 -33
-82 -16 -11 -37 -20 -49 -20 -18 0 -20 6 -20 72 0 66 -2 75 -25 95 -32 27 -33
43 -3 43 18 0 19 2 7 10 -13 9 -13 11 0 19 11 8 17 3 27 -17 l12 -27 -6 33
c-7 40 12 43 55 7z m-1263 -92 c-43 -40 -82 -73 -86 -73 -4 0 -2 14 4 32 14
38 69 93 117 118 62 32 47 -1 -35 -77z m175 55 c0 -37 -38 -88 -76 -104 -19
-8 -55 -33 -80 -56 -46 -43 -53 -39 -30 16 19 45 72 104 125 138 54 34 61 35
61 6z m994 -100 c7 -38 5 -59 -16 -124 l-25 -79 -13 30 c-21 46 -19 165 3 199
24 37 40 29 51 -26z m-836 11 c2 -17 -5 -33 -20 -47 -72 -64 -87 -80 -107
-112 l-21 -35 0 38 c0 47 21 97 61 148 25 31 37 39 58 37 20 -2 27 -9 29 -29z
m1080 10 c19 -30 26 -105 17 -203 l-7 -86 -20 25 c-28 36 -58 118 -58 159 0
51 29 126 49 126 3 0 12 -9 19 -21z m216 -21 c31 -56 58 -179 39 -178 -18 1
-65 86 -76 135 -9 46 -6 85 7 85 3 0 16 -19 30 -42z" id="node1" class="node"></path>
<path d="M874 2860 c-29 -11 -71 -64 -78 -97 -19 -87 50 -136 139 -99 50 21
92 119 64 152 -27 33 -94 57 -125 44z m49 -46 c3 -4 -3 -18 -13 -32 -25 -32
-25 -54 1 -78 l20 -18 -22 -8 c-30 -11 -79 0 -79 17 0 19 30 85 49 108 14 17
33 22 44 11z m-90 -42 c-3 -12 -10 -22 -15 -22 -5 0 -7 3 -5 8 2 4 7 16 11 26
9 25 17 16 9 -12z m132 -23 c0 -27 -4 -34 -20 -34 -24 0 -33 38 -14 61 19 23
34 11 34 -27z" id="node2" class="node"></path>
<path d="M1838 1856 c-20 -10 -28 -11 -31 -3 -7 20 -45 -21 -58 -62 -16 -51
-19 -54 -37 -39 -14 11 -15 10 -9 -5 4 -10 7 -36 7 -58 0 -45 15 -52 24 -11
12 49 28 82 41 82 7 0 21 12 30 28 10 15 32 39 49 54 34 30 27 36 -16 14z" id="node3" class="node"></path>
<path d="M697 2603 c-13 -12 -7 -23 12 -23 10 0 24 7 31 15 10 13 9 15 -12 15
-14 0 -28 -3 -31 -7z" id="node4" class="node"></path>
<path d="M2260 560 c0 -5 5 -10 11 -10 5 0 7 5 4 10 -3 6 -8 10 -11 10 -2 0
-4 -4 -4 -10z" id="node5" class="node"></path>
</g>
<g transform="translate(0.000000,300.000000) scale(0.100000,-0.100000)" fill="#FF99B3" stroke="none">


<path d="M1000 2949 c0 -5 -17 -6 -38 -3 -51 8 -87 -11 -146 -77 -46 -51 -68
-61 -46 -20 21 39 -8 21 -63 -39 -49 -54 -106 -164 -93 -177 3 -3 30 4 61 16
72 27 95 26 120 -2 43 -50 103 -59 205 -33 63 16 70 14 70 -20 0 -51 -123
-149 -240 -192 -19 -7 -41 -15 -49 -17 -11 -4 -6 -14 17 -38 18 -18 32 -38 32
-45 0 -6 6 -9 14 -6 11 4 15 -10 20 -58 4 -35 9 -81 12 -103 l5 -40 -20 30
c-12 17 -21 36 -21 43 0 27 -59 141 -79 151 -12 7 -21 9 -21 6 0 -16 53 -211
61 -227 6 -10 19 -59 29 -108 18 -81 19 -95 6 -162 -8 -40 -18 -82 -22 -93 -7
-17 -3 -16 29 8 20 15 37 27 38 25 0 -2 1 -44 2 -93 2 -80 6 -98 35 -158 18
-37 38 -67 43 -67 6 0 7 4 4 10 -7 12 4 80 14 80 3 0 17 -21 30 -46 30 -56
104 -124 187 -170 72 -40 81 -56 29 -47 -19 3 -35 3 -35 -1 0 -12 32 -70 48
-89 15 -17 17 -17 22 -1 5 14 11 13 41 -13 44 -39 96 -66 101 -53 2 7 14 7 36
-1 37 -13 168 -8 195 7 13 8 -10 19 -106 52 -68 23 -131 42 -141 42 -9 0 -16
5 -16 10 0 18 87 10 182 -16 126 -35 187 -46 226 -39 38 7 41 19 10 36 -24 13
-47 38 -48 52 0 4 9 3 19 -3 19 -10 19 -9 6 17 -17 32 -38 128 -33 145 2 6 12
-6 22 -28 47 -103 73 -149 115 -201 47 -58 77 -80 64 -47 -5 13 -3 16 8 11
127 -54 166 -67 211 -67 l50 0 -23 18 -22 19 29 6 c16 3 54 21 84 39 63 38
114 113 125 181 9 61 15 77 27 77 7 0 9 -19 4 -57 -4 -31 -4 -55 -1 -52 3 3
41 78 85 167 44 89 103 191 130 227 28 36 46 65 40 65 -6 0 -29 -9 -51 -21
-23 -11 -43 -18 -46 -15 -10 9 8 43 42 81 35 37 34 54 -1 55 -6 0 -55 38 -108
85 -53 47 -108 88 -122 91 -48 12 -25 26 36 22 33 -2 60 -3 60 -2 0 5 -111 84
-153 108 -26 16 -87 41 -135 56 -91 30 -91 30 -22 52 30 10 -123 29 -230 29
-164 0 -264 -22 -419 -93 -65 -30 -84 -31 -61 -3 7 9 11 18 8 21 -3 3 -17 -10
-32 -28 -52 -65 -49 -63 -56 -42 -6 15 -13 6 -36 -43 -29 -62 -44 -78 -44 -47
0 9 9 59 19 112 71 357 -7 626 -208 720 -63 29 -121 44 -121 31z m-39 -105
c41 -20 52 -39 44 -76 -17 -76 -63 -118 -127 -118 -85 1 -113 97 -50 171 42
50 70 55 133 23z m893 -1002 c-17 -15 -39 -39 -49 -54 -9 -16 -23 -28 -30 -28
-13 0 -29 -33 -41 -82 -9 -41 -24 -34 -24 11 0 22 -3 48 -7 58 -6 15 -5 16 9
5 18 -15 21 -12 37 39 13 41 51 82 58 62 3 -8 11 -7 31 3 43 22 50 16 16 -14z" id="node8" class="node"></path>
<path d="M879 2803 c-19 -23 -49 -89 -49 -108 0 -17 49 -28 79 -17 l22 8 -20
18 c-26 24 -26 46 -1 78 28 37 -2 57 -31 21z" id="node9" class="node"></path>
<path d="M824 2784 c-4 -10 -9 -22 -11 -26 -2 -5 0 -8 5 -8 10 0 24 41 17 48
-3 3 -8 -4 -11 -14z" id="node10" class="node"></path>
<path d="M931 2776 c-19 -23 -10 -61 14 -61 16 0 20 7 20 34 0 38 -15 50 -34
27z" id="node11" class="node"></path>
<path d="M695 2621 c-138 -50 -375 -228 -496 -372 -52 -63 -33 -56 81 30 159
119 250 169 422 230 48 16 102 38 120 47 l32 17 -35 18 c-20 10 -41 25 -48 33
-16 19 -13 19 -76 -3z m45 -26 c-13 -16 -50 -21 -50 -7 0 15 13 22 38 22 21 0
22 -2 12 -15z" id="node12" class="node"></path>
<path d="M970 2580 c-25 -4 -68 -20 -96 -34 -29 -14 -58 -26 -66 -26 -8 0 -18
-4 -23 -8 -6 -5 -46 -21 -90 -36 -107 -37 -174 -68 -272 -128 -46 -28 -83 -52
-83 -53 0 -2 44 11 98 27 53 16 129 39 167 50 205 59 326 114 399 180 43 39
40 41 -34 28z" id="node13" class="node"></path>
<path d="M1296 1105 c-2 -6 3 -36 11 -66 27 -98 35 -163 30 -254 -5 -98 -37
-223 -69 -268 -23 -32 -18 -57 11 -57 27 0 35 17 14 29 -10 5 -14 13 -10 17 4
4 15 0 25 -9 13 -13 14 -21 6 -35 -17 -26 -43 -26 -70 -1 -21 20 -24 20 -24 5
0 -14 -5 -17 -22 -12 -13 3 -28 6 -35 6 -6 0 -30 16 -53 35 -51 43 -75 44
-128 5 -45 -32 -53 -45 -23 -35 47 15 51 -69 5 -122 -27 -32 -30 -43 -10 -43
8 0 41 27 74 59 43 44 69 61 96 67 40 7 99 -6 131 -30 28 -21 10 -32 -28 -18
-19 7 -51 12 -72 12 -36 0 -37 -1 -22 -18 29 -31 21 -77 -19 -122 -34 -38 -35
-40 -14 -40 14 0 39 17 63 42 l40 42 83 2 c68 1 94 7 139 29 30 14 55 33 55
42 0 8 -15 47 -34 86 -73 153 -76 366 -7 520 30 67 28 87 -10 87 -9 0 -41 13
-72 28 -37 19 -58 25 -61 17z" id="node14" class="node"></path>
<path d="M2276 1078 c-15 -12 -50 -23 -77 -26 -27 -2 -46 -8 -44 -12 3 -5 1
-10 -4 -12 -6 -1 8 -39 29 -83 45 -92 74 -219 65 -283 -3 -23 -15 -68 -26 -99
-23 -69 -24 -63 4 -63 21 -1 67 -31 67 -45 0 -3 -15 -3 -34 0 -19 4 -44 4 -55
0 -25 -8 -56 -50 -65 -90 l-7 -30 21 23 c45 48 82 16 103 -90 l13 -61 19 29
c15 22 20 46 20 102 0 72 0 73 18 50 15 -17 18 -36 15 -85 -2 -39 2 -67 9 -74
9 -9 12 4 12 61 -1 114 34 129 96 41 15 -23 29 -41 30 -41 8 0 -15 70 -33 107
-35 68 -85 91 -124 56 -26 -24 -24 4 3 33 19 20 19 24 6 46 -9 12 -23 53 -31
90 -26 113 -29 212 -12 347 9 68 15 125 14 127 -2 1 -16 -7 -32 -18z m-1 -518
c3 -5 1 -10 -4 -10 -6 0 -11 5 -11 10 0 6 2 10 4 10 3 0 8 -4 11 -10z" id="node15" class="node"></path>
<path d="M880 490 c-13 -8 -13 -10 2 -10 9 0 20 5 23 10 8 13 -5 13 -25 0z" id="node16" class="node"></path>
<path d="M2003 448 l6 -33 -12 27 c-10 20 -16 25 -27 17 -13 -8 -13 -10 0 -19
12 -8 11 -10 -7 -10 -30 0 -29 -16 3 -43 23 -20 25 -29 25 -95 0 -66 2 -72 20
-72 12 0 33 9 49 20 23 17 28 28 33 82 3 35 9 73 13 86 4 14 2 22 -6 22 -7 0
-25 11 -42 25 -43 36 -62 33 -55 -7z" id="node17" class="node"></path>
<path d="M830 440 c-48 -25 -103 -80 -117 -118 -6 -18 -8 -32 -4 -32 4 0 43
33 86 73 82 76 97 109 35 77z" id="node18" class="node"></path>
<path d="M909 412 c-53 -34 -106 -93 -125 -138 -23 -55 -16 -59 30 -16 25 23
61 48 80 56 38 16 76 67 76 104 0 29 -7 28 -61 -6z" id="node19" class="node"></path>
<path d="M1913 344 c-22 -34 -24 -153 -3 -199 l13 -30 25 79 c21 65 23 86 16
124 -11 55 -27 63 -51 26z" id="node20" class="node"></path>
<path d="M1041 321 c-40 -51 -61 -101 -61 -148 l0 -38 21 35 c20 32 35 48 107
112 32 29 27 72 -9 76 -21 2 -33 -6 -58 -37z" id="node21" class="node"></path>
<path d="M2173 348 c-16 -21 -33 -79 -33 -114 0 -41 30 -123 58 -159 l20 -25
7 86 c9 98 2 173 -17 203 -15 24 -22 26 -35 9z" id="node22" class="node"></path>
<path d="M2383 343 c-11 -28 14 -118 44 -161 44 -65 52 -55 32 40 -10 48 -52
138 -65 138 -2 0 -8 -8 -11 -17z" id="node23" class="node"></path>
</g>
</svg>