<!--?xml version="1.0" standalone="no"?-->

<svg version="1.0" xmlns="http://www.w3.org/2000/svg" width="300.000000pt" height="288.000000pt" viewBox="0 0 300.000000 288.000000" preserveAspectRatio="xMidYMid meet">
<g transform="translate(0.000000,288.000000) scale(0.100000,-0.100000)" fill="#333333" stroke="none">
<path class="node" id="node1" d="M1029 2848 c-45 -23 -95 -64 -170 -138 -115 -115 -169 -199 -169
-265 l0 -37 -37 7 c-21 4 -40 8 -42 10 -2 2 -3 21 -3 43 1 90 58 163 211 267
39 27 71 54 71 61 0 18 -29 44 -49 44 -36 0 -128 -56 -195 -121 -88 -83 -136
-167 -143 -250 -6 -63 -11 -67 -46 -45 -12 8 -56 19 -97 26 -42 6 -94 22 -118
35 -47 26 -68 25 -53 -3 4 -9 11 -36 14 -60 9 -72 90 -153 167 -169 29 -5 30
-7 24 -47 -10 -74 -14 -80 -90 -141 -159 -125 -259 -245 -294 -349 -7 -22 -10
-65 -8 -99 4 -52 9 -64 36 -88 28 -25 41 -29 91 -29 49 0 65 -5 89 -25 17 -14
41 -25 54 -25 14 0 33 -9 43 -20 27 -30 50 -24 85 19 l32 39 36 -22 c66 -39
119 -98 132 -146 28 -105 -15 -210 -94 -231 -22 -6 -48 -13 -56 -16 -10 -3 -4
-11 19 -26 49 -30 135 -34 184 -8 l39 20 -7 -50 -7 -50 38 6 c54 9 105 26 130
41 19 13 21 11 33 -35 7 -26 24 -70 38 -96 13 -26 36 -77 50 -114 13 -36 28
-70 32 -76 23 -30 61 -162 61 -211 0 -56 -26 -125 -54 -141 -20 -11 -86 -96
-86 -110 0 -9 18 -13 59 -13 59 0 60 0 71 -35 7 -22 18 -35 29 -35 13 0 16 -8
13 -40 -4 -34 -1 -40 14 -40 11 0 28 7 38 15 35 26 53 19 60 -24 3 -22 10 -42
14 -45 16 -10 125 88 166 149 l41 60 0 100 c-1 58 -8 128 -17 165 -30 120 -30
124 -7 149 26 28 59 128 59 179 l0 37 97 -3 c95 -3 99 -4 133 -36 52 -48 89
-71 148 -91 69 -22 83 -17 75 31 -6 34 -4 37 13 30 10 -5 42 -17 69 -27 49
-18 50 -18 66 1 21 25 111 22 154 -5 17 -10 31 -20 33 -21 2 -1 -8 -24 -22
-50 -52 -98 -74 -160 -95 -269 -5 -22 -16 -57 -25 -77 -9 -21 -16 -56 -16 -79
0 -43 3 -45 51 -25 12 5 18 0 23 -18 8 -31 21 -32 62 -7 55 34 87 86 95 156 5
35 15 87 24 117 17 54 85 218 91 218 9 0 121 -64 134 -76 12 -12 11 -20 -8
-59 -12 -25 -22 -50 -22 -56 0 -6 -6 -25 -14 -42 -20 -43 -36 -106 -36 -140 0
-15 -7 -39 -16 -52 -13 -19 -14 -38 -9 -85 8 -65 20 -74 63 -44 20 14 24 14
52 -6 36 -26 46 -21 98 49 l40 53 -5 74 c-9 117 46 297 100 324 16 8 35 26 42
40 7 14 20 40 30 58 14 28 16 49 10 135 -6 102 -21 216 -31 250 -5 17 -4 18
25 3 86 -45 103 -7 104 226 l1 127 -42 83 c-101 200 -297 342 -462 336 -32 -1
-90 7 -139 21 -61 16 -97 20 -135 16 -37 -5 -62 -2 -91 11 -27 11 -90 19 -200
26 -170 10 -164 11 -495 -53 -30 -6 -78 -9 -105 -7 -64 5 -184 63 -259 123
-51 42 -146 148 -146 163 0 4 35 7 78 7 113 0 203 45 261 128 33 48 71 166 71
221 0 43 -12 45 -70 16 -48 -24 -125 -53 -205 -75 -33 -9 -84 -28 -114 -42
-43 -21 -58 -24 -72 -14 -10 6 -30 11 -44 11 -56 0 -13 91 88 186 61 58 87 79
215 170 55 39 61 47 52 64 -17 31 -76 26 -151 -12z m117 -3 c2 -5 -20 -25 -49
-42 -28 -18 -78 -52 -111 -77 -54 -40 -60 -42 -77 -28 -16 14 -15 17 29 53 43
34 48 36 65 22 15 -15 17 -15 17 0 0 8 -5 17 -12 19 -6 2 3 14 21 27 51 36
110 49 117 26z m-283 -41 c9 -10 -81 -67 -93 -59 -6 3 -14 -2 -18 -13 -4 -10
-23 -32 -42 -49 -32 -28 -38 -30 -59 -18 -24 12 -24 13 38 61 96 75 152 100
174 78z m40 -118 c4 -9 -14 -35 -44 -66 -27 -28 -49 -55 -49 -60 0 -15 -16
-12 -30 5 -10 12 -10 15 3 15 9 0 14 6 12 13 -5 13 76 107 93 107 5 0 12 -6
15 -14z m-249 -35 c4 -5 -6 -24 -21 -43 -15 -18 -28 -34 -29 -36 -3 -6 -34 11
-34 18 0 5 12 22 26 39 26 31 48 39 58 22z m-69 -91 c4 -6 4 -24 0 -40 -5 -24
-12 -30 -32 -30 -19 0 -24 4 -19 16 3 9 9 27 12 40 6 25 28 32 39 14z m198
-35 c-1 -11 -7 -41 -13 -67 -10 -41 -15 -48 -36 -48 -31 0 -31 24 -3 91 15 34
27 49 38 47 9 -2 15 -12 14 -23z m487 -15 c0 -29 -142 -100 -199 -100 -23 0
-140 -57 -179 -87 -18 -14 -37 -36 -42 -49 -7 -16 -17 -24 -34 -24 -58 0 -34
-29 37 -45 18 -3 31 -15 38 -32 13 -34 85 -123 130 -160 19 -15 43 -36 54 -46
11 -10 57 -37 102 -59 100 -50 178 -58 293 -33 93 20 296 54 330 54 l25 1 -25
-20 c-30 -23 -21 -37 12 -17 55 36 252 47 282 17 7 -7 4 -10 -7 -10 -27 0 -89
-29 -83 -38 3 -5 47 -1 98 9 110 22 155 23 249 7 l70 -11 -23 -25 -23 -25 30
9 c17 5 68 9 115 9 71 0 93 -4 134 -25 63 -32 174 -135 219 -203 29 -44 77
-147 77 -167 0 -2 -20 16 -45 40 -28 27 -45 38 -45 29 0 -9 12 -26 26 -40 36
-34 71 -106 79 -164 l7 -50 -23 35 c-21 31 -24 33 -27 14 -2 -12 4 -49 12 -82
14 -52 14 -92 -1 -92 -13 0 -61 31 -82 54 -18 19 -22 31 -16 53 18 69 16 119
-5 174 -18 50 -91 175 -109 189 -4 3 -15 18 -25 33 -36 57 -27 17 12 -50 76
-132 102 -204 101 -273 l-1 -35 -17 38 c-39 82 -53 72 -22 -15 42 -120 81
-267 81 -311 0 -6 -9 -2 -20 8 -28 25 -38 10 -17 -23 33 -50 49 -95 53 -151 3
-41 2 -50 -5 -35 -20 45 -28 33 -24 -34 5 -59 3 -69 -16 -86 -18 -17 -21 -17
-15 -3 9 24 -13 21 -26 -4 -11 -19 -13 -18 -39 18 -16 21 -41 49 -56 63 -25
23 -27 23 -24 5 4 -35 -13 -115 -25 -115 -26 1 -92 48 -122 88 -31 39 -52 44
-38 8 24 -62 -102 70 -141 148 -14 28 -25 63 -25 78 0 15 -4 28 -10 28 -15 0
-12 -66 5 -107 18 -43 14 -52 -13 -25 -11 11 -23 18 -26 15 -3 -3 13 -24 35
-46 36 -36 39 -42 22 -48 -54 -22 -136 13 -209 88 -48 49 -57 45 -21 -8 39
-58 39 -58 15 -52 -13 3 -43 22 -68 42 -25 21 -51 41 -57 45 -26 15 -12 -14
27 -55 25 -27 36 -47 31 -52 -13 -13 -87 17 -133 54 -42 33 -53 36 -43 12 5
-10 9 -35 9 -56 1 -36 0 -38 -24 -32 -45 11 -106 53 -173 120 -37 36 -69 65
-71 65 -7 0 6 -40 15 -46 5 -3 9 -10 9 -16 0 -13 -142 -4 -182 11 -14 5 -42
24 -62 41 -49 43 -49 14 0 -40 36 -40 37 -42 31 -100 -8 -71 -32 -133 -49
-128 -7 3 -26 25 -43 51 -34 51 -50 60 -41 21 8 -30 -16 -107 -43 -143 l-19
-25 -20 45 c-11 24 -27 61 -36 82 -16 41 -32 44 -50 11 -6 -10 -12 -21 -14
-23 -8 -14 -66 109 -86 184 -3 11 -4 -2 -2 -30 l4 -50 -20 25 c-36 44 -69 109
-87 168 l-18 58 27 32 c32 39 40 40 40 7 0 -31 11 -31 48 0 30 25 42 24 42 -6
0 -10 4 -20 9 -23 13 -8 69 40 77 67 3 12 15 31 25 42 30 33 49 103 49 179 -1
78 -42 302 -59 319 -6 6 -11 17 -11 25 0 16 -52 123 -73 149 -70 90 -162 143
-251 143 -55 0 -86 -7 -86 -19 0 -3 28 -6 63 -7 51 0 74 -7 125 -34 35 -18 80
-52 99 -74 88 -101 163 -335 163 -509 0 -66 -4 -99 -15 -113 -13 -18 -14 -17
-15 18 0 77 -49 238 -71 238 -12 0 -11 -5 6 -46 19 -46 45 -173 45 -221 0 -39
-27 -104 -45 -110 -6 -2 -18 18 -27 44 -10 27 -33 72 -53 101 -19 30 -35 57
-35 62 0 4 -7 13 -15 20 -10 9 -15 9 -15 1 0 -6 5 -11 10 -11 6 0 10 -5 10
-11 0 -6 16 -43 35 -83 40 -84 40 -84 18 -108 -24 -27 -32 -22 -39 22 -7 46
-24 64 -24 27 0 -47 -119 -137 -200 -152 l-35 -6 0 115 c0 95 -2 111 -12 93
-7 -12 -12 -41 -13 -64 0 -56 -39 -85 -119 -90 -48 -3 -53 -2 -36 9 47 30 84
77 95 119 23 83 -7 203 -63 250 -12 11 -45 34 -74 51 -58 36 -58 31 -22 140
21 64 23 78 11 78 -9 0 -39 -65 -66 -140 -31 -89 -71 -132 -91 -99 -4 5 2 33
13 62 12 29 26 76 31 105 8 39 32 85 85 165 103 157 118 191 124 269 5 78 -6
90 -57 64 -39 -20 -40 -20 -34 5 10 37 -18 17 -35 -25 -13 -32 -13 -44 -1 -79
11 -36 13 -39 16 -17 7 53 13 68 30 73 10 2 26 8 36 12 14 6 17 2 17 -24 0
-50 -33 -130 -88 -216 -74 -114 -108 -183 -120 -240 -23 -107 -55 -152 -91
-127 -9 7 -30 20 -48 29 -30 15 -31 17 -16 40 11 17 14 36 9 71 -13 102 -14
96 24 102 34 5 35 6 12 18 -27 16 -52 9 -92 -25 -35 -29 -40 -50 -7 -28 13 8
27 12 30 8 14 -13 7 -128 -9 -151 -19 -28 -63 -29 -95 -3 -21 17 -24 27 -24
93 1 56 6 83 24 118 38 73 127 174 241 276 l107 94 7 58 c8 70 44 151 81 180
32 25 73 28 159 11 48 -10 66 -9 116 6 32 10 66 15 76 11 16 -6 16 -8 -1 -26
-22 -25 -12 -39 12 -18 24 21 137 78 155 78 8 0 18 4 23 9 6 4 40 15 76 24 36
9 85 25 110 36 24 11 45 20 47 20 1 1 2 -4 2 -9z m5 -79 c-52 -148 -168 -215
-339 -196 -73 7 -79 16 -44 60 20 25 134 85 162 85 33 0 180 54 204 75 15 13
28 22 30 21 1 -2 -4 -22 -13 -45z m-705 14 c0 -20 -5 -25 -25 -25 -18 0 -25 5
-25 18 0 24 8 32 32 32 13 0 18 -7 18 -25z m-215 -25 c44 -7 88 -16 98 -22 18
-9 18 -10 -1 -31 -11 -12 -24 -35 -29 -52 -8 -25 -15 -30 -40 -29 -60 3 -173
104 -173 155 0 16 3 17 33 4 17 -7 68 -18 112 -25z m697 -1725 c32 -62 53 -86
66 -73 7 7 14 -2 22 -33 6 -24 18 -68 26 -97 8 -29 18 -82 21 -117 l6 -65 -27
0 c-15 0 -41 7 -57 16 -27 14 -30 19 -22 42 4 15 7 56 7 92 -1 63 -17 112 -89
275 l-17 40 22 -20 c12 -11 31 -38 42 -60z m1339 43 c20 -25 24 -53 9 -63 -20
-12 -94 -218 -106 -292 -6 -40 -9 -43 -39 -43 -38 0 -95 46 -95 77 1 33 66
213 103 281 13 24 24 32 46 32 16 0 34 7 41 15 16 20 18 19 41 -7z m334 -83
l27 -39 -20 -40 c-34 -71 -65 -214 -58 -268 l7 -48 -64 0 c-92 0 -101 9 -87
95 6 39 25 109 43 158 30 85 32 87 63 87 30 0 33 3 39 43 7 42 14 61 20 55 2
-2 16 -21 30 -43z m-1358 -124 c8 -47 17 -125 20 -173 l5 -88 -29 -11 c-15 -6
-55 -13 -88 -16 l-60 -5 -1 103 c-1 85 -7 122 -31 202 -17 53 -28 97 -26 97 2
0 15 -24 28 -54 13 -30 29 -57 34 -61 12 -7 39 34 74 107 l22 47 19 -31 c11
-17 26 -69 33 -117z m868 -222 c30 -9 34 -13 25 -29 -10 -19 -48 -50 -62 -50
-5 0 -8 16 -8 35 0 41 -12 45 -28 10 -13 -29 -42 -34 -42 -7 0 9 5 34 11 55
l10 38 30 -22 c16 -11 45 -25 64 -30z m-1176 7 c7 -8 34 -22 61 -32 l50 -18
-16 -25 c-18 -28 -52 -61 -64 -61 -4 0 -13 21 -20 46 -11 40 -15 44 -25 30
-11 -15 -75 -24 -75 -10 0 10 61 84 70 84 4 0 13 -6 19 -14z m1477 -81 c16 -8
50 -15 77 -15 26 0 47 -3 47 -7 0 -12 -43 -53 -57 -53 -7 0 -22 9 -33 20 l-20
20 -20 -20 c-11 -11 -24 -20 -30 -20 -11 0 -14 73 -3 83 8 9 6 9 39 -8z
m-1166 -20 c0 -29 -104 -145 -129 -145 -5 0 -13 20 -17 45 -3 25 -10 45 -15
45 -5 0 -9 -4 -9 -10 0 -5 -18 -19 -40 -30 -46 -24 -49 -17 -20 48 l19 43 48
-6 c26 -3 68 -2 93 3 57 12 70 13 70 7z"></path>
<path class="node" id="node2" d="M521 2371 c-12 -8 -12 -12 -2 -25 11 -14 11 -16 -4 -16 -26 0 -75
-58 -75 -90 0 -54 65 -86 138 -69 54 14 60 17 46 27 -6 4 -9 26 -6 49 4 39 6
42 28 37 14 -4 24 -2 24 5 0 16 -51 61 -87 77 -38 16 -43 17 -62 5z m61 -78
c10 -9 18 -23 18 -32 -1 -14 -3 -13 -15 2 -8 11 -23 17 -37 15 -18 -2 -23 -9
-23 -33 0 -23 5 -30 25 -35 22 -5 23 -7 7 -13 -31 -12 -47 -8 -73 18 -23 23
-24 26 -10 54 23 44 74 55 108 24z"></path>
</g>
<g transform="translate(0.000000,288.000000) scale(0.100000,-0.100000)" fill="#FFFFFF" stroke="none">


<path class="node" id="node5" d="M1088 2850 c-37 -11 -94 -53 -80 -58 7 -2 12 -11 12 -19 0 -15 -2
-15 -17 0 -17 14 -22 12 -65 -22 -44 -36 -45 -39 -29 -53 17 -14 23 -12 77 28
33 25 83 59 111 77 68 41 62 69 -9 47z"></path>
<path class="node" id="node6" d="M783 2793 c-17 -10 -60 -40 -94 -67 -62 -48 -62 -49 -38 -61 21 -12
27 -10 59 18 19 17 38 39 42 49 4 11 12 16 18 13 12 -8 102 49 93 59 -12 11
-48 6 -80 -11z"></path>
<path class="node" id="node7" d="M834 2653 c-24 -27 -42 -54 -39 -60 2 -7 -3 -13 -12 -13 -13 0 -13
-3 -3 -15 14 -17 30 -20 30 -5 0 5 22 32 49 60 30 31 48 57 44 66 -9 23 -23
16 -69 -33z"></path>
<path class="node" id="node8" d="M596 2629 c-14 -17 -26 -34 -26 -39 0 -7 31 -24 34 -18 1 2 14 18 29
36 45 55 8 75 -37 21z"></path>
<path class="node" id="node9" d="M546 2546 c-3 -13 -9 -31 -12 -40 -5 -12 0 -16 19 -16 20 0 27 6 32
30 4 16 4 34 0 40 -11 18 -33 11 -39 -14z"></path>
<path class="node" id="node10" d="M731 2501 c-28 -67 -28 -91 3 -91 21 0 26 7 36 48 17 70 17 86 -1 90
-11 2 -23 -13 -38 -47z"></path>
<path class="node" id="node11" d="M1221 2499 c-25 -11 -74 -27 -110 -36 -36 -9 -70 -20 -76 -24 -5 -5
-15 -9 -23 -9 -18 0 -131 -57 -155 -78 -24 -21 -34 -7 -12 18 17 18 17 20 1
26 -10 4 -44 -1 -76 -11 -50 -15 -68 -16 -116 -6 -86 17 -127 14 -159 -11 -37
-29 -73 -110 -81 -180 l-7 -58 -107 -94 c-114 -102 -203 -203 -241 -276 -18
-35 -23 -62 -24 -118 0 -66 3 -76 24 -93 32 -26 76 -25 95 3 16 23 23 138 9
151 -3 4 -17 0 -30 -8 -33 -22 -28 -1 7 28 40 34 65 41 92 25 23 -12 22 -13
-12 -18 -38 -6 -37 0 -24 -102 5 -35 2 -54 -9 -71 -15 -23 -14 -25 16 -40 18
-9 39 -22 48 -29 36 -25 68 20 91 127 12 57 46 126 120 240 55 86 88 166 88
216 0 26 -3 30 -17 24 -10 -4 -26 -10 -36 -12 -17 -5 -23 -20 -30 -73 -3 -22
-5 -19 -16 17 -12 35 -12 47 1 79 17 42 45 62 35 25 -6 -25 -5 -25 34 -5 51
26 62 14 57 -64 -6 -78 -21 -112 -124 -269 -53 -80 -77 -126 -85 -165 -5 -29
-19 -76 -31 -105 -11 -29 -17 -57 -13 -62 20 -33 60 10 91 99 27 75 57 140 66
140 12 0 10 -14 -11 -78 -36 -109 -36 -104 22 -140 29 -17 62 -40 74 -51 56
-47 86 -167 63 -250 -11 -42 -48 -89 -95 -119 -17 -11 -12 -12 36 -9 80 5 119
34 119 90 1 23 6 52 13 64 10 18 12 2 12 -93 l0 -115 35 6 c81 15 200 105 200
152 0 37 17 19 24 -27 7 -44 15 -49 39 -22 22 24 22 24 -18 108 -19 40 -35 77
-35 83 0 6 -4 11 -10 11 -5 0 -10 5 -10 11 0 8 5 8 15 -1 8 -7 15 -16 15 -20
0 -5 16 -32 35 -62 20 -29 43 -74 53 -101 9 -26 21 -46 27 -44 18 6 45 71 45
110 0 48 -26 175 -45 221 -17 41 -18 46 -6 46 22 0 71 -161 71 -238 1 -35 2
-36 15 -18 11 14 15 47 15 113 0 174 -75 408 -163 509 -19 22 -64 56 -99 74
-51 27 -74 34 -125 34 -35 1 -63 4 -63 7 0 12 31 19 86 19 89 0 181 -53 251
-143 21 -26 73 -133 73 -149 0 -8 5 -19 11 -25 17 -17 58 -241 59 -319 0 -76
-19 -146 -49 -179 -10 -11 -22 -30 -25 -42 -8 -27 -64 -75 -77 -67 -5 3 -9 13
-9 23 0 30 -12 31 -42 6 -37 -31 -48 -31 -48 0 0 33 -8 32 -40 -7 l-27 -32 18
-58 c18 -59 51 -124 87 -168 l20 -25 -4 50 c-2 28 -1 41 2 30 20 -75 78 -198
86 -184 2 2 8 13 14 23 18 33 34 30 50 -11 9 -21 25 -58 36 -82 l20 -45 19 25
c27 36 51 113 43 143 -9 39 7 30 41 -21 17 -26 36 -48 43 -51 17 -5 41 57 49
128 6 58 5 60 -31 100 -49 54 -49 83 0 40 20 -17 48 -36 62 -41 40 -15 182
-24 182 -11 0 6 -4 13 -9 16 -9 6 -22 46 -15 46 2 0 34 -29 71 -65 67 -67 128
-109 173 -120 24 -6 25 -4 24 32 0 21 -4 46 -9 56 -10 24 1 21 43 -12 46 -37
120 -67 133 -54 5 5 -6 25 -31 52 -39 41 -53 70 -27 55 6 -4 32 -24 57 -45 25
-20 55 -39 68 -42 24 -6 24 -6 -15 52 -36 53 -27 57 21 8 73 -75 155 -110 209
-88 17 6 14 12 -22 48 -22 22 -38 43 -35 46 3 3 15 -4 26 -15 27 -27 31 -18
13 25 -17 41 -20 107 -5 107 6 0 10 -13 10 -28 0 -15 11 -50 25 -78 39 -78
165 -210 141 -148 -14 36 7 31 38 -8 30 -40 96 -87 122 -88 12 0 29 80 25 115
-3 18 -1 18 24 -5 15 -14 40 -42 56 -63 26 -36 28 -37 39 -18 13 25 35 28 26
4 -6 -14 -3 -14 15 3 19 17 21 27 16 86 -4 67 4 79 24 34 7 -15 8 -6 5 35 -4
56 -20 101 -53 151 -21 33 -11 48 17 23 11 -10 20 -14 20 -8 0 44 -39 191 -81
311 -31 87 -17 97 22 15 l17 -38 1 35 c1 69 -25 141 -101 273 -39 67 -48 107
-12 50 10 -15 21 -30 25 -33 18 -14 91 -139 109 -189 21 -55 23 -105 5 -174
-6 -22 -2 -34 16 -53 21 -23 69 -54 82 -54 15 0 15 40 1 92 -8 33 -14 70 -12
82 3 19 6 17 27 -14 l23 -35 -7 50 c-8 58 -43 130 -79 164 -14 14 -26 31 -26
40 0 9 17 -2 45 -29 25 -24 45 -42 45 -40 0 20 -48 123 -77 167 -45 68 -156
171 -219 203 -41 21 -63 25 -134 25 -47 0 -98 -4 -115 -9 l-30 -9 23 25 23 25
-70 11 c-94 16 -139 15 -249 -7 -51 -10 -95 -14 -98 -9 -6 9 56 38 83 38 11 0
14 3 7 10 -30 30 -227 19 -282 -17 -33 -20 -42 -6 -12 17 l25 20 -25 -1 c-34
0 -237 -34 -330 -54 -115 -25 -193 -17 -293 33 -45 22 -91 49 -102 59 -11 10
-35 31 -54 46 -45 37 -117 126 -130 160 -7 17 -20 29 -38 32 -71 16 -95 45
-37 45 17 0 27 8 34 24 5 13 24 35 42 49 39 30 156 87 179 87 57 0 199 71 199
100 0 5 -1 10 -2 9 -2 0 -23 -9 -47 -20z m-638 -133 c36 -16 87 -61 87 -77 0
-7 -10 -9 -24 -5 -22 5 -24 2 -28 -37 -3 -23 0 -45 6 -49 14 -10 8 -13 -46
-27 -73 -17 -138 15 -138 69 0 32 49 90 75 90 15 0 15 2 4 16 -10 13 -10 17 2
25 19 12 24 11 62 -5z"></path>
<path class="node" id="node12" d="M502 2303 c-7 -3 -19 -18 -28 -34 -14 -28 -13 -31 10 -54 26 -26 42
-30 73 -18 16 6 15 8 -7 13 -20 5 -25 12 -25 35 0 24 5 31 23 33 14 2 29 -4
37 -15 12 -15 14 -16 15 -2 0 35 -55 59 -98 42z"></path>
<path class="node" id="node13" d="M1258 2455 c-24 -21 -171 -75 -204 -75 -28 0 -142 -60 -162 -85 -35
-44 -29 -53 44 -60 143 -16 232 20 302 122 21 29 55 113 50 119 -2 1 -15 -8
-30 -21z"></path>
<path class="node" id="node14" d="M527 2463 c-4 -3 -7 -15 -7 -25 0 -13 7 -18 25 -18 20 0 25 5 25 25
0 18 -5 25 -18 25 -10 0 -22 -3 -25 -7z"></path>
<path class="node" id="node15" d="M210 2441 c0 -51 113 -152 173 -155 25 -1 32 4 40 29 5 17 18 40 29
52 19 21 19 22 1 31 -10 6 -54 15 -98 22 -44 7 -95 18 -112 25 -30 13 -33 12
-33 -4z"></path>

<path class="node" id="node17" d="M2991 1354 c0 -11 3 -14 6 -6 3 7 2 16 -1 19 -3 4 -6 -2 -5 -13z"></path>

<path class="node" id="node19" d="M1005 735 c72 -163 88 -212 89 -275 0 -36 -3 -77 -7 -92 -8 -23 -5
-28 22 -42 16 -9 42 -16 57 -16 l27 0 -6 65 c-3 35 -13 88 -21 117 -8 29 -20
73 -26 97 -8 31 -15 40 -22 33 -13 -13 -34 11 -66 73 -11 22 -30 49 -42 60
l-22 20 17 -40z"></path>
<path class="node" id="node20" d="M2350 745 c-7 -8 -25 -15 -41 -15 -22 0 -33 -8 -46 -32 -37 -68 -102
-248 -103 -281 0 -31 57 -77 95 -77 30 0 33 3 39 43 12 74 86 280 106 292 15
10 11 38 -9 63 -23 26 -25 27 -41 7z"></path>
<path class="node" id="node21" d="M2687 693 c-3 -4 -8 -27 -12 -50 -6 -40 -9 -43 -39 -43 -31 0 -33 -2
-63 -87 -18 -49 -37 -119 -43 -158 -14 -86 -5 -95 87 -95 l64 0 -7 48 c-7 54
24 197 58 268 l20 40 -27 39 c-32 49 -32 48 -38 38z"></path>
<path class="node" id="node22" d="M1293 632 c-35 -73 -62 -114 -74 -107 -5 4 -21 31 -34 61 -13 30 -26
54 -28 54 -2 0 9 -44 26 -97 24 -80 30 -117 31 -202 l1 -103 60 5 c33 3 73 10
88 16 l29 11 -5 88 c-9 132 -31 256 -53 290 l-19 31 -22 -47z"></path>
<path class="node" id="node23" d="M2131 323 c-6 -21 -11 -46 -11 -55 0 -27 29 -22 42 7 16 35 28 31 28
-10 0 -19 3 -35 8 -35 14 0 52 31 62 50 9 16 5 20 -25 29 -19 5 -48 19 -64 30
l-30 22 -10 -38z"></path>
<path class="node" id="node24" d="M1001 291 c-17 -21 -31 -42 -31 -45 0 -14 64 -5 75 10 10 14 14 10
25 -30 7 -25 16 -46 20 -46 12 0 46 33 64 61 l16 25 -50 18 c-27 10 -54 24
-61 32 -17 21 -24 18 -58 -25z"></path>
<path class="node" id="node25" d="M2497 243 c-11 -10 -8 -83 3 -83 6 0 19 9 30 20 l20 20 20 -20 c11
-11 26 -20 33 -20 14 0 57 41 57 53 0 4 -21 7 -47 7 -27 0 -61 7 -77 15 -33
17 -31 17 -39 8z"></path>
<path class="node" id="node26" d="M1300 208 c-25 -5 -67 -6 -93 -3 l-48 6 -19 -43 c-29 -65 -26 -72 20
-48 22 11 40 25 40 30 0 6 4 10 9 10 5 0 12 -20 15 -45 4 -25 12 -45 17 -45
15 0 99 81 115 111 22 44 23 44 -56 27z"></path>
</g>
</svg>