<!--?xml version="1.0" standalone="no"?-->

<svg version="1.0" xmlns="http://www.w3.org/2000/svg" width="225.000000pt" height="300.000000pt" viewBox="0 0 225.000000 300.000000" preserveAspectRatio="xMidYMid meet">
<g transform="translate(0.000000,300.000000) scale(0.100000,-0.100000)" fill="#4246E8" stroke="none">
<path class="node" id="node1" d="M693 2938 c-55 -39 -123 -148 -138 -218 -3 -19 -11 -49 -17 -66 -14
-41 -4 -77 29 -108 26 -24 35 -28 114 -41 34 -5 38 -9 48 -50 16 -64 14 -110
-15 -289 -19 -120 -25 -182 -20 -243 4 -75 3 -83 -14 -88 -29 -9 -60 -54 -60
-85 0 -15 -6 -33 -14 -39 -7 -6 -26 -39 -42 -74 -24 -52 -29 -75 -29 -143 0
-69 3 -85 25 -116 13 -20 37 -43 52 -52 15 -9 36 -36 47 -61 20 -45 62 -82 81
-70 7 4 24 -8 42 -29 16 -20 37 -36 46 -36 39 -1 117 -164 141 -293 9 -52 4
-190 -15 -346 l-7 -53 -71 7 c-102 11 -113 9 -166 -30 -50 -37 -60 -51 -60
-91 0 -21 5 -24 35 -24 39 0 42 -6 19 -38 -8 -12 -14 -32 -12 -45 3 -20 9 -22
73 -25 98 -5 178 21 224 71 20 21 51 45 69 52 71 31 71 33 72 300 2 251 15
390 37 377 7 -4 24 -55 38 -112 23 -96 25 -122 24 -315 -1 -116 -4 -221 -8
-235 -4 -14 -17 -30 -30 -36 -73 -37 -97 -84 -81 -161 19 -90 53 -104 130 -52
56 38 69 61 71 124 1 40 3 45 9 25 4 -14 8 -39 9 -57 1 -26 11 -40 57 -77 72
-59 108 -62 130 -11 17 41 18 114 3 149 -6 13 -31 35 -56 48 -46 24 -50 32
-73 144 -6 27 -13 126 -17 219 -7 194 7 335 36 375 10 15 30 49 45 77 20 40
42 63 98 102 76 53 149 130 180 189 9 19 20 61 24 94 4 32 9 57 13 56 3 -2 22
-12 42 -22 50 -25 86 -15 104 28 8 18 12 42 9 53 -4 14 4 30 25 51 35 34 39
67 16 112 -15 30 -74 80 -93 80 -6 0 -5 11 4 30 25 49 6 89 -59 122 -29 14
-51 18 -78 14 -32 -5 -42 -2 -63 19 -16 16 -36 25 -56 25 -41 0 -96 -24 -111
-49 -13 -19 -13 -19 -41 4 -84 71 -196 21 -168 -75 12 -42 12 -43 1 -36 -5 3
-55 11 -112 17 -82 9 -107 15 -117 30 -16 23 -69 25 -100 3 -20 -14 -23 -14
-29 1 -15 41 24 444 51 521 10 30 19 40 42 45 71 14 125 65 124 116 -1 34 -36
118 -78 188 -49 82 -58 93 -96 123 -26 20 -40 22 -145 22 -105 0 -120 -2 -148
-22z m101 -23 c3 -8 10 -15 15 -15 6 0 8 7 5 15 -5 11 2 15 26 15 24 0 31 -4
26 -15 -3 -8 -1 -15 5 -15 5 0 12 7 15 15 8 20 58 19 90 -1 14 -9 37 -38 51
-63 15 -25 37 -59 50 -74 28 -34 31 -77 6 -77 -10 0 -29 -9 -43 -20 -37 -29
-45 -24 -16 11 31 37 33 76 6 129 -50 97 -141 94 -169 -7 -6 -21 -11 -44 -11
-50 0 -7 -4 -13 -10 -13 -5 0 -10 15 -10 33 0 53 -45 106 -90 107 -35 0 -69
-26 -86 -66 -16 -39 -19 -120 -4 -129 6 -3 10 -11 10 -16 0 -6 -10 -3 -22 5
-12 9 -31 16 -41 16 -16 0 -18 5 -13 28 4 15 15 38 25 52 10 14 26 42 36 63
24 52 69 87 110 87 20 0 35 -6 39 -15z m-18 -53 c32 -21 46 -109 21 -131 -11
-8 -13 -4 -9 21 6 38 -20 63 -49 47 -25 -13 -25 -65 0 -78 10 -6 22 -7 27 -3
5 4 -1 -5 -14 -19 -46 -52 -110 -6 -99 72 9 70 79 121 123 91z m214 -12 c41
-41 52 -109 24 -148 -18 -26 -56 -29 -75 -6 -11 13 -10 17 4 25 23 13 22 65
-1 78 -24 13 -52 -10 -52 -43 0 -17 -4 -25 -11 -20 -18 11 -5 102 17 119 27
21 71 18 94 -5z m-236 -81 c-3 -5 -10 -7 -15 -3 -5 3 -7 10 -3 15 3 5 10 7 15
3 5 -3 7 -10 3 -15z m176 6 c0 -8 -4 -15 -10 -15 -5 0 -10 7 -10 15 0 8 5 15
10 15 6 0 10 -7 10 -15z m-15 -95 c63 -54 83 -58 140 -24 42 24 48 25 62 11
23 -23 19 -66 -9 -93 -17 -17 -43 -28 -88 -35 -51 -8 -72 -17 -103 -46 -34
-30 -44 -34 -75 -29 -19 3 -52 19 -73 36 -30 23 -52 32 -99 37 -94 9 -132 53
-100 114 14 24 37 24 75 -1 45 -30 69 -25 125 25 30 27 60 45 75 45 13 0 44
-17 70 -40z m40 -255 c-8 -38 -22 -150 -31 -248 -17 -167 -17 -182 -1 -248 10
-42 31 -91 52 -122 46 -68 48 -121 6 -161 -23 -22 -38 -28 -75 -28 -84 0 -138
66 -172 209 -22 91 -14 284 16 408 17 69 21 108 17 165 l-5 75 29 -64 c16 -35
29 -68 29 -72 0 -5 5 -9 10 -9 13 0 13 6 -5 40 -9 17 -20 41 -25 55 -9 23 -8
24 18 14 25 -10 48 -8 88 8 17 6 17 5 1 -17 -9 -14 -17 -31 -17 -38 0 -26 28
6 41 46 11 35 29 66 34 60 2 -2 -3 -34 -10 -73z m706 -421 c12 -15 11 -18 -6
-28 -31 -17 -95 -87 -115 -126 -12 -22 -19 -29 -20 -17 0 26 25 82 57 124 25
34 25 36 4 18 -26 -22 -71 -109 -71 -137 0 -10 -5 -18 -11 -18 -16 0 -5 99 15
139 29 54 117 81 147 45z m-204 -28 c21 -25 21 -28 8 -74 -8 -26 -15 -50 -15
-53 0 -14 -99 43 -114 65 -21 33 -20 72 2 86 29 18 94 4 119 -24z m380 -31
c44 -51 23 -80 -72 -100 -38 -8 -94 -27 -125 -42 -76 -39 -78 -39 -50 -9 40
44 124 105 166 120 21 8 32 15 24 15 -29 1 -116 -47 -166 -93 -29 -25 -57 -46
-64 -46 -20 0 43 100 86 136 54 44 80 55 134 50 33 -3 50 -11 67 -31z m-792
-16 c4 -5 1 -24 -5 -40 -7 -16 -11 -31 -9 -34 3 -2 24 1 48 6 70 16 109 -10
53 -36 -31 -14 -27 -22 13 -29 35 -7 69 -41 58 -59 -3 -5 -16 -7 -29 -4 -31 6
-30 2 11 -44 19 -22 35 -49 35 -60 0 -19 -4 -21 -35 -16 -32 5 -34 4 -25 -13
21 -39 6 -120 -22 -120 -7 0 -26 13 -43 30 l-30 29 0 -49 c0 -37 -5 -55 -21
-70 -27 -28 -46 -19 -76 37 l-25 45 -7 -28 c-11 -44 -34 -74 -57 -74 -15 0
-27 15 -48 62 l-28 62 -16 -30 c-24 -46 -43 -59 -63 -43 -13 11 -15 27 -12 86
l5 72 -28 -20 c-16 -11 -34 -17 -40 -13 -17 10 -4 92 20 125 28 37 27 49 -5
49 -25 0 -26 1 -12 22 8 12 24 28 35 35 20 13 22 11 42 -55 39 -131 130 -188
236 -148 35 14 46 25 59 57 9 22 16 48 16 58 0 17 -40 102 -70 148 -13 20 -12
24 10 48 24 26 54 33 65 14z m273 -59 c100 -27 163 -58 236 -117 71 -57 79
-73 38 -73 -28 0 -62 -21 -62 -39 0 -4 -26 -5 -58 -3 -101 7 -224 -66 -247
-148 -6 -22 -4 -21 13 6 42 66 131 114 215 116 41 1 53 -3 68 -21 11 -13 19
-34 19 -47 0 -24 14 -32 25 -14 10 16 45 12 45 -5 0 -8 -11 -17 -25 -21 -30
-8 -33 -24 -4 -24 18 0 20 -4 15 -27 -6 -27 -6 -27 9 -9 8 11 15 23 15 28 0 4
7 8 15 8 23 0 18 -18 -11 -45 -26 -25 -27 -25 -5 -25 20 0 22 -4 16 -30 -9
-40 2 -38 21 3 l15 32 -6 -35 c-9 -55 -56 -122 -103 -148 -113 -63 -283 -25
-329 73 l-14 30 6 -35 c11 -71 105 -130 207 -130 l37 0 -46 -74 c-54 -85 -83
-106 -148 -106 -59 0 -93 18 -139 74 -21 25 -42 46 -48 46 -6 0 -6 -6 2 -15
11 -13 8 -15 -21 -15 -53 0 -109 19 -172 57 -32 19 -64 32 -72 29 -10 -4 -22
8 -36 37 -27 53 -26 52 -44 37 -8 -7 -22 -10 -30 -6 -21 8 -55 86 -57 131 -1
26 -5 34 -17 33 -13 -2 -17 8 -19 51 -4 77 2 96 33 96 23 0 25 -4 25 -43 0
-32 6 -49 25 -67 30 -31 48 -31 76 -2 14 14 23 18 26 10 2 -7 13 -23 24 -37
26 -34 81 -36 103 -5 l15 22 27 -22 c49 -38 99 -20 111 40 5 25 8 27 30 18 15
-6 31 -5 42 1 24 12 45 63 39 95 -4 19 -1 25 13 25 10 0 21 5 25 11 12 21 6
70 -12 90 -13 15 -15 22 -6 31 26 26 2 98 -32 98 -7 0 -11 17 -11 40 0 39 1
40 32 40 19 0 68 -9 111 -20z m592 -87 c37 -33 41 -40 38 -77 l-3 -41 -45 1
c-25 1 -76 11 -115 23 -38 11 -89 21 -112 21 -32 0 -43 4 -43 15 0 8 -8 15
-17 15 -30 0 5 27 72 54 41 17 79 25 122 26 59 0 66 -3 103 -37z m-1278 -95
c-14 -18 -42 -174 -42 -237 0 -42 5 -57 25 -76 13 -14 20 -25 14 -25 -19 0
-59 53 -65 87 -10 55 2 146 26 194 24 46 39 69 47 69 3 0 1 -6 -5 -12z m1191
-40 c66 -24 87 -54 68 -95 -14 -31 -46 -29 -97 5 -60 40 -120 114 -79 99 8 -4
17 -2 20 3 3 5 -3 11 -12 13 -10 2 -5 3 11 1 16 -3 56 -14 89 -26z m-152 -2
c1 -6 1 -36 1 -66 l0 -55 7 45 8 45 1 -50 c0 -53 -15 -123 -17 -77 -1 15 -7
22 -20 22 -17 0 -18 4 -9 42 5 23 6 59 3 80 -6 32 -4 37 9 32 9 -3 17 -11 17
-18z m-55 -21 c3 -13 4 -31 2 -41 -4 -24 -28 -30 -29 -7 0 16 -1 16 -9 -2 -7
-19 -9 -18 -19 8 -14 37 -14 43 4 61 20 19 44 10 51 -19z m111 -120 c-1 -36
-5 -65 -9 -65 -4 0 -5 -6 -2 -13 2 -7 -1 -21 -9 -30 -11 -16 -12 -13 -10 20 2
39 25 153 30 153 2 0 2 -29 0 -65z m-748 -426 c30 -10 72 -19 93 -19 50 0 47
-22 -5 -31 -60 -10 -95 1 -139 43 -26 24 -35 37 -23 33 11 -4 44 -16 74 -26z
m38 -76 c23 -3 56 0 73 6 l32 11 -6 -58 c-4 -31 -9 -169 -11 -307 -3 -137 -8
-260 -11 -273 -2 -12 -17 -28 -32 -34 -15 -7 -48 -31 -74 -55 -46 -42 -71 -56
-122 -69 -21 -5 -25 -1 -31 25 -3 17 -18 40 -33 51 -22 18 -24 23 -12 30 27
18 50 10 71 -23 17 -27 19 -28 13 -7 -4 14 -9 31 -11 38 -9 21 34 13 51 -10
l16 -23 -6 25 c-4 21 0 27 27 37 18 7 30 15 27 19 -4 3 -15 1 -25 -4 -10 -5
-52 -12 -95 -14 -73 -5 -77 -4 -87 19 -6 14 -9 29 -6 34 11 17 35 9 46 -13
l10 -23 -5 23 c-5 26 10 29 36 5 11 -9 18 -11 18 -5 0 7 17 12 44 12 49 0 57
7 66 60 5 30 9 35 30 33 l25 -3 -23 12 c-23 11 -23 14 -15 102 13 149 7 215
-26 311 -25 73 -28 86 -13 80 9 -4 36 -10 59 -12z m336 -90 c-13 -97 -6 -400
10 -483 9 -41 13 -78 10 -83 -2 -4 3 -19 11 -32 14 -21 14 -25 2 -25 -8 0 -18
-4 -21 -10 -4 -6 3 -6 21 0 28 11 29 10 86 -39 35 -30 35 -40 3 -33 -33 6 -83
-15 -90 -39 -9 -26 -24 -24 -29 4 -15 82 -22 102 -35 102 -15 0 -25 -25 -36
-89 l-7 -39 -23 29 c-19 24 -30 28 -69 29 -25 0 -46 4 -46 8 0 4 15 22 33 38
25 23 39 29 65 27 17 -2 32 0 32 4 0 4 -10 8 -22 8 -19 0 -20 2 -6 18 26 29
25 397 -2 532 -11 58 -20 108 -20 112 0 4 28 9 63 11 34 2 65 4 70 5 4 1 4
-24 0 -55z m-605 -561 c3 -20 -1 -22 -39 -22 l-42 0 23 25 c28 30 54 29 58 -3z
m50 -91 c13 -36 8 -41 -40 -41 -44 0 -48 11 -13 45 31 32 41 31 53 -4z m425
-95 c23 -18 22 -35 -5 -63 -28 -30 -56 -29 -68 2 -21 56 26 96 73 61z m271 -8
c14 -23 -4 -72 -28 -76 -20 -4 -66 34 -66 54 0 18 41 45 64 42 10 -2 24 -11
30 -20z"></path>
<path class="node" id="node2" d="M841 2633 c-1 -36 3 -63 9 -63 12 0 12 77 0 105 -6 14 -9 2 -9 -42z"></path>
<path class="node" id="node3" d="M580 2630 c0 -5 9 -19 20 -30 16 -16 33 -20 80 -20 60 0 60 0 92 -45
52 -73 98 -73 148 1 31 44 31 44 90 44 48 0 64 4 84 24 31 28 32 36 5 36 -11
0 -17 -5 -14 -10 10 -16 -45 -31 -90 -24 -41 6 -43 5 -93 -53 -59 -67 -66 -66
-118 8 l-31 44 -67 0 c-53 0 -70 4 -80 18 -15 19 -26 22 -26 7z"></path>
<path class="node" id="node4" d="M1411 1925 c41 -63 39 -61 39 -43 0 8 -16 32 -36 54 l-35 39 32 -50z"></path>
<path class="node" id="node5" d="M1245 1090 l-70 -6 65 -1 c36 -1 76 3 90 7 30 10 18 10 -85 0z"></path>
<path class="node" id="node6" d="M1682 1760 c-18 -4 -36 -11 -40 -15 -4 -4 9 -3 28 1 42 11 142 12
190 2 33 -7 33 -6 -5 7 -44 15 -122 17 -173 5z"></path>
<path class="node" id="node7" d="M1740 1655 c0 -2 23 -16 50 -30 59 -30 65 -26 13 10 -34 23 -63 32
-63 20z"></path>
<path class="node" id="node8" d="M1010 630 c0 -5 5 -10 11 -10 5 0 7 5 4 10 -3 6 -8 10 -11 10 -2 0
-4 -4 -4 -10z"></path>
<path class="node" id="node9" d="M1000 576 c0 -2 7 -6 15 -10 8 -3 15 -1 15 4 0 6 -7 10 -15 10 -8 0
-15 -2 -15 -4z"></path>
<path class="node" id="node10" d="M990 470 c0 -5 10 -10 23 -10 18 0 19 2 7 10 -19 13 -30 13 -30 0z"></path>
<path class="node" id="node11" d="M1298 513 c6 -2 18 -2 25 0 6 3 1 5 -13 5 -14 0 -19 -2 -12 -5z"></path>
<path class="node" id="node12" d="M1300 470 c0 -5 4 -10 9 -10 6 0 13 5 16 10 3 6 -1 10 -9 10 -9 0
-16 -4 -16 -10z"></path>
<path class="node" id="node13" d="M1297 418 c2 -5 10 -8 18 -8 8 0 16 3 18 8 3 4 -5 7 -18 7 -13 0 -21
-3 -18 -7z"></path>
<path class="node" id="node14" d="M1315 370 l-30 -8 27 -1 c15 0 30 4 33 9 3 6 5 9 3 9 -2 -1 -16 -5
-33 -9z"></path>
<path class="node" id="node15" d="M1230 245 c27 -14 36 -13 25 4 -3 6 -16 11 -28 11 -21 -1 -21 -1 3
-15z"></path>
<path class="node" id="node16" d="M1395 240 c-17 -19 -17 -19 13 -8 17 7 29 16 26 20 -8 13 -20 9 -39
-12z"></path>
</g>
<g transform="translate(0.000000,300.000000) scale(0.100000,-0.100000)" fill="#65CFB4" stroke="none">

<path class="node" id="node18" d="M692 2905 c-16 -14 -38 -42 -47 -62 -10 -21 -26 -49 -36 -63 -10 -14
-21 -37 -25 -52 -5 -23 -3 -28 13 -28 10 0 29 -7 41 -16 12 -8 22 -11 22 -5 0
5 -4 13 -10 16 -15 9 -12 90 4 129 17 40 51 66 86 66 45 -1 90 -54 90 -107 0
-18 5 -33 10 -33 6 0 10 6 10 13 0 6 5 29 11 50 28 101 119 104 169 7 27 -53
25 -92 -6 -129 -29 -35 -21 -40 16 -11 14 11 33 20 43 20 25 0 22 43 -6 77
-13 15 -35 49 -50 74 -14 25 -37 54 -51 63 -32 20 -82 21 -90 1 -3 -8 -10 -15
-15 -15 -6 0 -8 7 -5 15 5 11 -2 15 -26 15 -24 0 -31 -4 -26 -15 3 -8 1 -15
-5 -15 -5 0 -12 7 -15 15 -10 24 -68 19 -102 -10z"></path>
<path class="node" id="node19" d="M686 2841 c-53 -56 -43 -152 18 -163 18 -4 31 2 48 21 13 14 19 23
14 19 -5 -4 -17 -3 -27 3 -25 13 -25 65 0 78 29 16 55 -9 49 -47 -4 -25 -2
-29 9 -21 25 22 11 110 -21 131 -24 16 -63 7 -90 -21z"></path>
<path class="node" id="node20" d="M896 2855 c-22 -17 -35 -108 -17 -119 7 -5 11 3 11 20 0 33 28 56 52
43 23 -13 24 -65 1 -78 -14 -8 -15 -12 -4 -25 32 -39 91 -3 91 56 0 88 -76
147 -134 103z"></path>
<path class="node" id="node21" d="M736 2781 c-4 -5 -2 -12 3 -15 5 -4 12 -2 15 3 4 5 2 12 -3 15 -5 4
-12 2 -15 -3z"></path>
<path class="node" id="node22" d="M910 2775 c0 -8 5 -15 10 -15 6 0 10 7 10 15 0 8 -4 15 -10 15 -5 0
-10 -7 -10 -15z"></path>
<path class="node" id="node23" d="M770 2675 c-56 -50 -80 -55 -125 -25 -38 25 -61 25 -75 1 -32 -61 6
-105 100 -114 47 -5 69 -14 99 -37 21 -17 54 -33 73 -36 31 -5 41 -1 75 29 31
29 52 38 103 46 45 7 71 18 88 35 28 27 32 70 9 93 -14 14 -20 13 -62 -11 -57
-34 -77 -30 -140 24 -26 23 -57 40 -70 40 -15 0 -45 -18 -75 -45z m89 -62 c1
-24 -3 -43 -9 -43 -6 0 -10 27 -9 63 1 71 17 53 18 -20z m-253 10 c10 -14 27
-18 80 -18 l67 0 31 -44 c52 -74 59 -75 118 -8 50 58 52 59 93 53 45 -7 100 8
90 24 -3 5 3 10 14 10 27 0 26 -8 -5 -36 -20 -20 -36 -24 -84 -24 -59 0 -59 0
-90 -44 -50 -74 -96 -74 -148 -1 -32 45 -32 45 -92 45 -47 0 -64 4 -80 20 -19
19 -26 40 -14 40 4 0 13 -8 20 -17z"></path>
<path class="node" id="node24" d="M953 2488 c-6 -7 -16 -30 -22 -50 -13 -40 -41 -72 -41 -46 0 7 8 24
17 38 16 22 16 23 -1 17 -40 -16 -63 -18 -88 -8 -26 10 -27 9 -18 -14 5 -14
16 -38 25 -55 18 -34 18 -40 5 -40 -5 0 -10 4 -10 9 0 4 -13 37 -29 72 l-29
64 5 -75 c4 -57 0 -96 -17 -165 -30 -124 -38 -317 -16 -408 34 -143 88 -209
172 -209 37 0 52 6 75 28 42 40 40 93 -6 161 -21 31 -42 80 -52 122 -16 66
-16 81 1 248 9 98 23 210 31 248 14 75 14 83 -2 63z"></path>
<path class="node" id="node25" d="M1558 2004 c-15 -8 -35 -28 -44 -45 -20 -40 -31 -139 -15 -139 6 0
11 8 11 18 0 28 45 115 71 137 21 18 21 16 -4 -18 -32 -42 -57 -98 -57 -124 1
-12 8 -5 20 17 20 39 84 109 115 126 17 10 18 13 6 28 -17 20 -67 20 -103 0z"></path>
<path class="node" id="node26" d="M1338 2000 c-22 -14 -23 -53 -2 -86 15 -22 114 -79 114 -65 0 3 7 27
15 53 13 46 13 49 -8 74 -25 28 -90 42 -119 24z m112 -118 c0 -18 2 -20 -39
43 l-32 50 35 -39 c20 -22 36 -46 36 -54z"></path>
<path class="node" id="node27" d="M1701 1969 c-45 -18 -106 -76 -134 -128 -16 -29 -23 -51 -17 -51 7 0
35 21 64 46 50 46 137 94 166 93 8 0 -3 -7 -24 -15 -42 -15 -126 -76 -166
-120 -28 -30 -26 -30 50 9 31 15 87 34 125 42 95 20 116 49 72 100 -26 30 -94
42 -136 24z"></path>
<path class="node" id="node28" d="M980 1915 c-22 -24 -23 -28 -10 -48 30 -46 70 -131 70 -148 0 -10 -7
-36 -16 -58 -13 -32 -24 -43 -59 -57 -106 -40 -197 17 -236 148 -20 66 -22 68
-42 55 -11 -7 -27 -23 -35 -35 -14 -21 -13 -22 12 -22 32 0 33 -12 5 -49 -24
-33 -37 -115 -20 -125 6 -4 24 2 40 13 l28 20 -5 -72 c-3 -59 -1 -75 12 -86
20 -16 39 -3 63 43 l16 30 28 -62 c21 -47 33 -62 48 -62 23 0 46 30 57 74 l7
28 25 -45 c30 -56 49 -65 76 -37 16 15 21 33 21 70 l0 49 30 -29 c17 -17 36
-30 43 -30 28 0 43 81 22 120 -9 17 -7 18 25 13 31 -5 35 -3 35 16 0 11 -16
38 -35 60 -41 46 -42 50 -11 44 13 -3 26 -1 29 4 11 18 -23 52 -58 59 -40 7
-44 15 -13 29 56 26 17 52 -53 36 -24 -5 -45 -8 -48 -6 -2 3 2 18 9 34 22 54
-18 71 -60 26z"></path>
<path class="node" id="node29" d="M1175 1850 c0 -23 4 -40 11 -40 34 0 58 -72 32 -98 -9 -9 -7 -16 6
-31 18 -20 24 -69 12 -90 -4 -6 -15 -11 -25 -11 -14 0 -17 -6 -13 -25 6 -32
-15 -83 -39 -95 -11 -6 -27 -7 -42 -1 -22 9 -25 7 -30 -18 -12 -60 -62 -78
-111 -40 l-27 22 -15 -22 c-22 -31 -77 -29 -103 5 -11 14 -22 30 -24 37 -3 8
-12 4 -26 -10 -28 -29 -46 -29 -76 2 -19 18 -25 35 -25 67 0 39 -2 43 -25 43
-31 0 -37 -19 -33 -96 2 -43 6 -53 19 -51 12 1 16 -7 17 -33 2 -45 36 -123 57
-131 8 -4 22 -1 30 6 18 15 17 16 44 -37 14 -29 26 -41 36 -37 8 3 40 -10 72
-29 63 -38 119 -57 172 -57 29 0 32 2 21 15 -8 9 -8 15 -2 15 6 0 27 -21 48
-46 46 -56 80 -74 139 -74 65 0 94 21 148 106 l46 74 -37 0 c-102 0 -196 59
-207 130 l-6 35 14 -30 c46 -98 216 -136 329 -73 47 26 94 93 103 148 l6 35
-15 -32 c-19 -41 -30 -43 -21 -3 6 26 4 30 -16 30 -22 0 -21 0 5 25 29 27 34
45 11 45 -8 0 -15 -4 -15 -8 0 -5 -7 -17 -15 -28 -15 -18 -15 -18 -9 9 5 23 3
27 -15 27 -29 0 -26 16 4 24 14 4 25 13 25 21 0 17 -35 21 -45 5 -11 -18 -25
-10 -25 14 0 13 -8 34 -19 47 -15 18 -27 22 -68 21 -84 -2 -173 -50 -215 -116
-17 -27 -19 -28 -13 -6 14 48 54 88 122 120 58 27 76 31 125 28 32 -2 58 -1
58 3 0 18 34 39 62 39 19 0 28 4 26 13 -7 20 -119 106 -173 132 -60 29 -192
65 -238 65 -31 0 -32 -1 -32 -40z m155 -760 c-14 -4 -54 -8 -90 -7 l-65 1 70
6 c103 10 115 10 85 0z"></path>
<path class="node" id="node30" d="M1685 1794 c-67 -27 -102 -54 -72 -54 9 0 17 -7 17 -15 0 -11 11 -15
43 -15 23 0 74 -10 112 -21 39 -12 90 -22 115 -23 l45 -1 3 41 c3 37 -1 44
-38 77 -37 34 -44 37 -103 37 -43 -1 -81 -9 -122 -26z m170 -39 c38 -13 38
-14 5 -7 -48 10 -148 9 -190 -2 -19 -4 -32 -5 -28 -1 23 25 153 30 213 10z"></path>
<path class="node" id="node31" d="M622 1688 c-45 -58 -73 -174 -58 -251 6 -34 46 -87 65 -87 6 0 -1 11
-14 25 -20 19 -25 34 -25 76 0 63 28 219 42 237 6 6 8 12 5 12 -2 0 -9 -6 -15
-12z"></path>
<path class="node" id="node32" d="M1723 1673 c9 -2 15 -8 12 -13 -3 -5 -12 -7 -20 -3 -41 15 19 -59 79
-99 51 -34 83 -36 97 -5 19 41 -2 71 -68 95 -33 12 -73 23 -89 26 -16 2 -21 1
-11 -1z m80 -38 c52 -36 46 -40 -13 -10 -27 14 -50 28 -50 30 0 12 29 3 63
-20z"></path>
<path class="node" id="node33" d="M1645 1632 c3 -21 2 -57 -3 -80 -9 -38 -8 -42 9 -42 13 0 19 -7 20
-22 2 -46 17 24 17 77 l-1 50 -8 -45 -7 -45 0 55 c1 75 0 77 -18 84 -13 5 -15
0 -9 -32z"></path>
<path class="node" id="node34" d="M1565 1644 c-18 -18 -18 -24 -4 -61 10 -26 12 -27 19 -8 8 18 9 18 9
2 1 -23 25 -17 29 7 10 50 -24 88 -53 60z"></path>
<path class="node" id="node35" d="M1712 1513 c-7 -32 -14 -75 -15 -96 -2 -33 -1 -36 10 -20 8 9 11 23
9 30 -3 7 -2 13 2 13 4 0 8 29 9 65 2 36 2 65 0 65 -1 0 -8 -26 -15 -57z"></path>
<path class="node" id="node36" d="M928 1072 c44 -42 79 -53 139 -43 52 9 55 31 5 31 -21 0 -63 9 -93
19 -30 10 -63 22 -74 26 -12 4 -3 -9 23 -33z"></path>
<path class="node" id="node37" d="M971 935 c33 -96 39 -162 26 -311 -8 -88 -8 -91 15 -102 l23 -12 -25
3 c-21 2 -25 -3 -30 -33 -9 -53 -17 -60 -66 -60 -27 0 -44 -5 -44 -12 0 -6 -7
-4 -18 5 -26 24 -41 21 -36 -5 l5 -23 -10 23 c-11 22 -35 30 -46 13 -3 -5 0
-20 6 -34 10 -23 14 -24 87 -19 43 2 85 9 95 14 10 5 21 7 25 4 3 -4 -9 -12
-27 -19 -27 -10 -31 -16 -27 -37 l6 -25 -16 23 c-17 23 -60 31 -51 10 2 -7 7
-24 11 -38 6 -21 4 -20 -13 7 -21 33 -44 41 -71 23 -12 -7 -10 -12 12 -30 15
-11 30 -34 33 -51 6 -26 10 -30 31 -25 51 13 76 27 122 69 26 24 59 48 74 55
15 6 30 22 32 34 3 13 8 136 11 273 2 138 7 276 11 307 l6 58 -32 -11 c-31
-11 -98 -8 -132 6 -15 6 -12 -7 13 -80z m54 -305 c3 -5 1 -10 -4 -10 -6 0 -11
5 -11 10 0 6 2 10 4 10 3 0 8 -4 11 -10z m5 -60 c0 -5 -7 -7 -15 -4 -8 4 -15
8 -15 10 0 2 7 4 15 4 8 0 15 -4 15 -10z m-10 -100 c12 -8 11 -10 -7 -10 -13
0 -23 5 -23 10 0 13 11 13 30 0z"></path>
<path class="node" id="node38" d="M1283 963 c-35 -2 -63 -7 -63 -11 0 -4 9 -54 20 -112 27 -135 28
-503 2 -532 -14 -16 -13 -18 6 -18 12 0 22 -4 22 -8 0 -4 -15 -6 -32 -4 -26 2
-40 -4 -65 -27 -18 -16 -33 -34 -33 -38 0 -4 21 -8 46 -8 39 -1 50 -5 69 -29
l23 -29 7 39 c11 64 21 89 36 89 13 0 20 -20 35 -102 5 -28 20 -30 29 -4 7 24
57 45 90 39 32 -7 32 3 -3 33 -57 49 -58 50 -86 39 -18 -6 -25 -6 -21 0 3 6
13 10 21 10 12 0 12 4 -2 25 -8 13 -13 28 -11 32 3 5 -1 42 -10 83 -16 83 -23
386 -10 483 4 31 4 56 0 55 -5 -1 -36 -3 -70 -5z m40 -450 c-7 -2 -19 -2 -25
0 -7 3 -2 5 12 5 14 0 19 -2 13 -5z m2 -43 c-3 -5 -10 -10 -16 -10 -5 0 -9 5
-9 10 0 6 7 10 16 10 8 0 12 -4 9 -10z m8 -52 c-2 -5 -10 -8 -18 -8 -8 0 -16
3 -18 8 -3 4 5 7 18 7 13 0 21 -3 18 -7z m12 -48 c-3 -5 -18 -9 -33 -9 l-27 1
30 8 c17 4 31 8 33 9 2 0 0 -3 -3 -9z m-90 -121 c11 -17 2 -18 -25 -4 -24 14
-24 14 -3 15 12 0 25 -5 28 -11z m179 3 c3 -4 -9 -13 -26 -20 -30 -11 -30 -11
-13 8 19 21 31 25 39 12z"></path>
<path class="node" id="node39" d="M690 355 l-23 -25 42 0 c38 0 42 2 39 22 -4 32 -30 33 -58 3z"></path>
<path class="node" id="node40" d="M745 265 c-35 -34 -31 -45 13 -45 48 0 53 5 40 41 -12 35 -22 36 -53
4z"></path>
<path class="node" id="node41" d="M1150 155 c-12 -33 3 -75 28 -75 21 0 62 39 62 60 0 18 -31 39 -58
40 -15 0 -26 -8 -32 -25z"></path>
<path class="node" id="node42" d="M1423 165 c-29 -21 -29 -36 1 -64 30 -29 58 -24 70 12 19 52 -26 84
-71 52z"></path>
</g>
</svg>