<!--?xml version="1.0" standalone="no"?-->

<svg version="1.0" xmlns="http://www.w3.org/2000/svg" width="300.000000pt" height="300.000000pt" viewBox="0 0 300.000000 300.000000" preserveAspectRatio="xMidYMid meet">
<g transform="translate(0.000000,300.000000) scale(0.100000,-0.100000)" fill="#363636" stroke="none">
<path class="node" id="node1" d="M706 2598 c-8 -13 -17 -44 -21 -69 l-7 -47 -51 -6 c-39 -6 -53 -4
-56 6 -2 7 -18 25 -34 41 -32 30 -72 35 -103 12 -10 -8 -29 -15 -40 -15 -34 0
-62 -90 -45 -147 9 -31 7 -33 -57 -82 -84 -64 -122 -98 -122 -109 0 -15 73
-19 232 -15 194 6 196 2 83 -141 -30 -38 -72 -103 -92 -145 -35 -71 -38 -82
-37 -161 0 -69 5 -95 26 -140 38 -81 82 -136 138 -172 42 -28 49 -37 47 -63
-2 -22 3 -30 18 -33 11 -2 29 -15 40 -28 19 -22 23 -23 59 -12 36 11 40 11 55
-11 34 -49 96 -113 136 -140 53 -36 152 -81 177 -81 32 0 55 -18 67 -51 17
-49 14 -87 -9 -99 -28 -15 -156 -37 -290 -50 -423 -41 -539 -71 -685 -175
-129 -92 -161 -154 -72 -140 l42 7 -23 -25 c-26 -28 -26 -54 1 -71 24 -15 82
17 177 99 41 35 89 72 106 81 31 17 34 17 82 -4 88 -38 107 -22 51 43 l-31 35
24 9 c72 27 390 66 628 76 73 3 135 7 137 9 2 2 -3 29 -12 62 -15 60 -19 123
-9 160 4 15 25 29 73 48 79 31 81 31 123 7 56 -32 85 -34 102 -9 9 12 16 33
16 45 0 13 2 23 5 23 2 0 30 -16 61 -36 61 -39 125 -54 148 -34 26 21 55 1
113 -77 61 -82 94 -103 167 -103 109 0 302 -66 411 -139 77 -53 207 -155 239
-190 17 -17 34 -31 38 -31 7 0 -19 42 -92 144 -35 49 -55 61 -230 144 -50 24
41 1 115 -29 44 -17 74 -24 79 -18 15 14 36 11 36 -5 0 -8 16 -35 35 -60 19
-25 30 -46 25 -46 -21 0 -8 -27 33 -71 23 -25 62 -70 86 -99 38 -45 41 -51 20
-45 -23 7 -23 7 -7 -16 10 -16 25 -24 44 -24 39 0 42 26 9 69 l-27 35 24 6
c12 3 41 9 63 13 56 11 50 31 -17 52 -81 25 -181 84 -212 124 -14 20 -40 74
-58 121 -17 47 -36 85 -44 85 -11 0 -27 -36 -36 -82 -3 -15 -7 -15 -43 -2 -22
9 -65 21 -96 29 -104 26 -274 87 -341 122 -88 46 -133 95 -147 163 -6 28 -9
55 -6 60 3 5 21 4 41 -2 71 -19 146 14 159 71 8 35 -30 108 -86 166 -33 34
-39 48 -39 82 0 43 -38 103 -65 103 -17 0 -85 78 -85 97 0 8 10 2 23 -13 27
-31 52 -28 65 7 8 20 11 17 46 -30 21 -29 55 -63 74 -76 41 -28 97 -33 110
-10 7 13 16 11 63 -15 29 -16 66 -30 81 -30 46 0 61 55 34 121 -31 77 -31 79
10 72 46 -8 64 13 64 70 0 25 6 44 16 51 29 22 29 87 0 142 -21 40 -42 60
-109 104 -45 30 -101 75 -124 100 -76 82 -180 113 -253 75 -27 -14 -30 -14
-41 6 -9 17 -17 20 -42 15 -40 -8 -72 -47 -94 -113 -14 -46 -20 -53 -43 -53
-19 0 -30 -8 -42 -32 -28 -56 -31 -70 -37 -176 l-6 -102 -115 -4 c-88 -2 -130
-8 -180 -26 -36 -12 -104 -29 -152 -36 -164 -25 -290 -82 -354 -159 -43 -53
-72 -65 -91 -39 -13 17 -15 17 -56 -3 l-42 -20 -39 20 c-57 30 -114 93 -122
134 -9 47 9 128 42 186 14 27 76 101 136 165 179 191 206 288 109 391 -21 23
-30 40 -26 52 8 23 -8 25 -25 4 -34 -41 -55 51 -25 109 18 33 18 36 5 36 -5 0
-16 -10 -24 -22z m-191 -103 c24 -20 29 -31 28 -64 -2 -44 -17 -79 -42 -98
-21 -15 -31 -8 -31 22 0 14 -7 26 -18 29 -16 5 -17 13 -12 55 6 45 23 82 39
81 3 -1 19 -12 36 -25z m-115 -70 c0 -14 -4 -25 -10 -25 -11 0 -14 33 -3 43
11 11 13 8 13 -18z m307 5 c10 -11 28 -20 40 -20 15 0 31 -13 48 -38 61 -93
39 -152 -113 -302 -89 -87 -114 -119 -145 -182 -40 -82 -64 -188 -53 -233 10
-40 89 -118 155 -154 48 -25 58 -35 54 -51 -7 -24 -40 -50 -66 -50 -52 0 -164
96 -205 175 -23 43 -26 62 -27 145 0 109 12 144 82 226 41 50 153 236 153 256
0 6 -22 7 -53 3 l-54 -7 -36 44 -36 43 29 3 c36 4 76 49 90 102 12 46 31 59
83 60 25 0 43 -6 54 -20z m-304 -135 c19 -19 60 -85 56 -89 -2 -2 -55 -6 -117
-9 -129 -5 -128 -6 -30 68 67 50 70 51 91 30z m1500 -56 c3 -12 1 -46 -4 -77
-12 -75 -11 -82 5 -82 18 0 26 22 26 70 0 102 139 136 228 57 30 -28 28 -32
-15 -32 -59 0 -49 -18 20 -36 170 -42 324 -185 278 -257 -12 -20 -93 23 -208
109 -51 38 -97 69 -103 69 -44 0 66 -101 197 -180 73 -45 91 -70 78 -111 -5
-14 -12 -18 -26 -14 -41 13 -106 56 -144 94 -37 39 -65 52 -65 31 0 -5 34 -47
75 -91 61 -67 79 -93 94 -143 17 -53 17 -63 5 -76 -13 -13 -21 -11 -72 15 -34
18 -63 42 -72 59 -8 16 -24 38 -35 50 -11 12 -32 43 -47 69 -26 45 -58 63 -58
33 0 -8 25 -51 55 -97 30 -46 54 -88 52 -94 -19 -55 -148 57 -199 172 -10 24
-22 43 -27 43 -16 0 -19 -13 -10 -38 10 -27 3 -82 -11 -82 -4 0 -17 21 -29 46
-18 38 -24 44 -36 34 -8 -7 -15 -20 -15 -30 0 -9 -10 -29 -21 -44 -33 -41 -68
-33 -96 24 -29 56 -32 193 -7 282 20 72 44 79 44 14 0 -41 13 -66 27 -52 3 3
9 44 14 91 9 87 25 132 62 173 25 27 33 28 40 1z m-233 -476 c4 -4 10 -19 13
-33 l6 -25 -98 3 c-70 3 -113 -1 -152 -13 -30 -9 -96 -25 -148 -35 -75 -15
-101 -25 -125 -48 -17 -16 -52 -43 -78 -61 -86 -58 -105 -99 -70 -156 11 -17
29 -60 41 -96 39 -118 101 -193 145 -176 9 4 16 16 16 27 0 30 12 24 43 -19
33 -48 33 -51 1 -51 -15 0 -54 -5 -88 -11 -93 -17 -154 3 -239 81 -61 56 -89
65 -72 23 10 -29 -32 15 -83 85 -49 66 -57 69 -113 47 -11 -4 -18 0 -22 14 -3
13 -13 21 -26 21 -12 0 -21 5 -21 10 0 6 13 10 28 10 53 0 131 102 108 139 -4
5 -2 12 3 15 5 3 12 -1 15 -10 4 -10 13 -13 26 -9 14 4 20 2 20 -9 0 -8 -4
-18 -10 -21 -11 -7 -14 -45 -3 -45 18 0 53 46 53 71 0 38 84 123 153 154 69
32 186 62 295 75 47 6 93 16 100 23 26 21 115 36 196 32 43 -2 82 -7 86 -12z
m55 -111 c127 -33 187 -58 233 -96 46 -39 43 -69 -7 -86 -51 -16 -123 -8 -220
25 -78 26 -111 31 -111 16 0 -5 52 -26 115 -47 63 -20 115 -41 115 -46 0 -14
-21 -52 -34 -60 -6 -4 -31 -8 -55 -8 -43 0 -101 25 -180 78 -39 26 -51 28 -51
8 0 -15 57 -62 103 -85 34 -18 34 -24 -3 -38 -57 -21 -133 13 -187 83 -40 53
-52 26 -14 -30 37 -53 30 -62 -42 -53 -33 4 -50 14 -78 46 -42 47 -49 50 -49
18 0 -27 -34 -47 -80 -47 -56 0 -140 71 -140 118 0 24 26 47 54 47 13 0 31 16
49 43 32 48 108 92 158 92 17 0 58 -7 91 -16 68 -17 85 -12 48 16 -30 23 -27
26 35 38 85 16 137 13 250 -16z m316 -269 c24 -27 53 -67 63 -91 18 -40 18
-43 1 -62 -44 -49 -133 -33 -202 36 -70 70 -86 56 -28 -26 19 -27 37 -60 41
-74 17 -69 -130 -23 -188 58 -17 25 -35 46 -39 46 -20 0 -18 -23 4 -52 57 -76
72 -148 30 -148 -33 0 -106 46 -158 101 -30 32 -58 53 -61 47 -3 -5 -1 -29 6
-52 16 -58 10 -90 -16 -94 -31 -4 -77 39 -120 113 -38 64 -73 89 -60 43 3 -13
9 -42 12 -64 10 -68 -11 -62 -62 16 -25 39 -51 69 -57 67 -7 -2 -13 -22 -15
-45 -2 -23 -7 -42 -11 -42 -15 0 -70 87 -85 136 -7 22 -6 22 39 5 42 -15 48
-15 95 2 48 17 51 17 88 -2 57 -29 103 -35 144 -18 30 13 39 13 67 1 49 -21
99 -17 159 11 31 14 72 25 97 25 51 0 90 27 98 69 5 23 13 31 34 34 71 11 79
8 124 -40z m-178 -280 c31 -5 44 -14 69 -52 31 -48 98 -105 156 -135 43 -22
38 -28 -13 -16 -22 5 -57 12 -77 15 -27 4 -43 15 -59 38 -12 18 -49 60 -83 95
-61 63 -61 67 7 55z m-663 -146 c0 -39 4 -88 10 -106 5 -19 7 -37 5 -40 -3 -2
-80 -8 -173 -13 -165 -8 -444 -40 -512 -58 -19 -6 -47 -10 -61 -10 -15 0 -32
-7 -39 -15 -11 -13 -8 -21 15 -45 31 -33 23 -38 -21 -15 -16 8 -33 15 -39 15
-5 0 -55 -39 -110 -86 -98 -84 -152 -120 -162 -110 -9 9 12 34 62 71 59 44
135 116 135 127 0 17 -23 7 -62 -26 -42 -37 -137 -86 -165 -86 -14 0 -14 3 3
21 10 12 46 40 79 64 138 97 248 125 620 160 88 8 200 24 250 35 49 11 97 17
107 14 16 -5 18 1 18 50 0 30 -5 67 -10 81 -13 33 -6 45 26 45 23 0 24 -2 24
-73z m1645 -405 c41 -21 46 -27 28 -30 -30 -4 -71 19 -113 64 l-35 38 35 -23
c19 -12 58 -34 85 -49z"></path>
<path class="node" id="node2" d="M290 2230 c0 -5 7 -10 15 -10 8 0 15 5 15 10 0 6 -7 10 -15 10 -8 0
-15 -4 -15 -10z"></path>
</g>
<g transform="translate(0.000000,300.000000) scale(0.100000,-0.100000)" fill="#FFFFFF" stroke="none">

<path class="node" id="node4" d="M459 2504 c-7 -9 -16 -38 -19 -65 -5 -42 -4 -50 12 -55 11 -3 18 -15
18 -29 0 -75 70 -3 73 76 1 33 -4 44 -28 64 -36 29 -39 30 -56 9z"></path>
<path class="node" id="node5" d="M387 2443 c-11 -10 -8 -43 3 -43 6 0 10 11 10 25 0 26 -2 29 -13 18z"></path>
<path class="node" id="node6" d="M598 2439 c-10 -5 -22 -27 -28 -49 -14 -53 -54 -98 -90 -102 l-29 -3
36 -43 36 -44 54 7 c31 4 53 3 53 -3 0 -20 -112 -206 -153 -256 -70 -82 -82
-117 -82 -226 1 -83 4 -102 27 -145 41 -79 153 -175 205 -175 26 0 59 26 66
50 4 16 -6 26 -54 51 -66 36 -145 114 -155 154 -11 45 13 151 53 233 31 63 56
95 145 182 152 150 174 209 113 302 -17 25 -33 38 -48 38 -12 0 -30 9 -40 20
-18 22 -79 27 -109 9z"></path>
<path class="node" id="node7" d="M312 2265 c-98 -74 -99 -73 30 -68 62 3 115 7 117 9 4 4 -37 70 -56
89 -21 21 -24 20 -91 -30z m8 -35 c0 -5 -7 -10 -15 -10 -8 0 -15 5 -15 10 0 6
7 10 15 10 8 0 15 -4 15 -10z"></path>
<path class="node" id="node8" d="M1863 2238 c-37 -41 -53 -86 -62 -173 -5 -47 -11 -88 -14 -91 -14
-14 -27 11 -27 52 0 65 -24 58 -44 -14 -25 -89 -22 -226 7 -282 28 -57 63 -65
96 -24 11 15 21 35 21 44 0 10 7 23 15 30 12 10 18 4 36 -34 12 -25 25 -46 29
-46 14 0 21 55 11 82 -9 25 -6 38 10 38 5 0 17 -19 27 -43 51 -115 180 -227
199 -172 2 6 -22 48 -52 94 -30 46 -55 89 -55 97 0 30 32 12 58 -33 15 -26 36
-57 47 -69 11 -12 27 -34 35 -50 9 -17 38 -41 72 -59 51 -26 59 -28 72 -15 12
13 12 23 -5 76 -15 50 -33 76 -94 143 -41 44 -75 86 -75 91 0 21 28 8 65 -31
38 -38 103 -81 144 -94 14 -4 21 0 26 14 13 41 -5 66 -78 111 -131 79 -241
180 -197 180 6 0 52 -31 103 -69 115 -86 196 -129 208 -109 46 72 -108 215
-278 257 -69 18 -79 36 -20 36 43 0 45 4 15 32 -36 32 -84 46 -135 40 -60 -6
-93 -41 -93 -97 0 -48 -8 -70 -26 -70 -16 0 -17 7 -5 82 9 55 6 98 -8 98 -4 0
-17 -10 -28 -22z"></path>
<path class="node" id="node9" d="M1454 1767 c-28 -7 -58 -17 -66 -24 -7 -7 -53 -17 -100 -23 -109 -13
-226 -43 -295 -75 -69 -31 -153 -116 -153 -154 0 -25 -35 -71 -53 -71 -11 0
-8 38 3 45 6 3 10 13 10 21 0 11 -6 13 -20 9 -13 -4 -22 -1 -26 9 -3 9 -10 13
-15 10 -5 -3 -7 -10 -3 -15 23 -37 -55 -139 -108 -139 -15 0 -28 -4 -28 -10 0
-5 9 -10 21 -10 13 0 23 -8 26 -21 4 -14 11 -18 22 -14 56 22 64 19 113 -47
51 -70 93 -114 83 -85 -17 42 11 33 72 -23 85 -78 146 -98 239 -81 34 6 73 11
88 11 32 0 32 3 -1 51 -31 43 -43 49 -43 19 0 -11 -7 -23 -16 -27 -44 -17
-106 58 -145 176 -12 36 -30 79 -41 96 -35 57 -16 98 70 156 26 18 61 45 78
61 24 23 50 33 125 48 52 10 118 26 148 35 39 12 82 16 152 13 l98 -3 -6 25
c-3 14 -9 29 -13 33 -13 14 -162 17 -216 4z"></path>
<path class="node" id="node10" d="M1475 1668 c-62 -12 -65 -15 -35 -38 37 -28 20 -33 -48 -16 -33 9
-74 16 -91 16 -50 0 -126 -44 -158 -92 -18 -27 -36 -43 -49 -43 -28 0 -54 -23
-54 -47 0 -47 84 -118 140 -118 46 0 80 20 80 47 0 32 7 29 49 -18 28 -32 45
-42 78 -46 72 -9 79 0 42 53 -38 56 -26 83 14 30 54 -70 130 -104 187 -83 37
14 37 20 3 38 -46 23 -103 70 -103 85 0 20 12 18 51 -8 79 -53 137 -78 180
-78 24 0 49 4 55 8 13 8 34 46 34 60 0 5 -52 26 -115 46 -63 21 -115 42 -115
47 0 15 33 10 111 -16 97 -33 169 -41 220 -25 50 17 53 47 7 86 -46 38 -106
63 -233 96 -113 29 -165 32 -250 16z"></path>
<path class="node" id="node11" d="M1917 1423 c-21 -3 -29 -11 -34 -34 -8 -42 -47 -69 -98 -69 -25 0
-66 -11 -97 -25 -60 -28 -110 -32 -159 -11 -28 12 -37 12 -67 -1 -41 -17 -87
-11 -144 18 -37 19 -40 19 -88 2 -47 -17 -53 -17 -95 -2 -45 17 -46 17 -39 -5
15 -49 70 -136 85 -136 4 0 9 19 11 42 2 23 8 43 15 45 6 2 32 -28 57 -67 51
-78 72 -84 62 -16 -3 22 -9 51 -12 64 -13 46 22 21 60 -43 83 -142 174 -155
136 -19 -7 23 -9 47 -6 52 3 6 31 -15 61 -47 52 -55 125 -101 158 -101 42 0
27 72 -30 148 -22 29 -24 52 -4 52 4 0 22 -21 39 -46 58 -81 205 -127 188 -58
-4 14 -22 47 -41 74 -58 82 -42 96 28 26 69 -69 158 -85 202 -36 17 19 17 22
-1 62 -10 24 -39 64 -63 91 -45 48 -53 51 -124 40z"></path>
<path class="node" id="node12" d="M1856 1048 c34 -35 71 -77 83 -95 16 -23 32 -34 59 -38 20 -3 55 -10
77 -15 51 -12 56 -6 13 16 -58 30 -125 87 -156 135 -25 38 -38 47 -69 52 -68
12 -68 8 -7 -55z"></path>
<path class="node" id="node13" d="M1146 1021 c-4 -5 -2 -21 4 -36 5 -14 10 -51 10 -81 0 -49 -2 -55
-18 -50 -10 3 -58 -3 -107 -14 -50 -11 -162 -27 -250 -35 -372 -35 -482 -63
-620 -160 -33 -24 -69 -52 -79 -64 -17 -18 -17 -21 -3 -21 28 0 123 49 165 86
39 33 62 43 62 26 0 -11 -76 -83 -135 -127 -50 -37 -71 -62 -62 -71 10 -10 64
26 162 110 55 47 105 86 110 86 6 0 23 -7 39 -15 44 -23 52 -18 21 15 -23 24
-26 32 -15 45 7 8 24 15 39 15 14 0 42 4 61 10 68 18 347 50 512 58 93 5 170
11 173 13 2 3 0 21 -5 40 -6 18 -10 67 -10 106 0 71 -1 73 -24 73 -14 0 -27
-4 -30 -9z"></path>
<path class="node" id="node14" d="M2760 586 c42 -45 83 -68 113 -64 18 3 13 9 -28 30 -27 15 -66 37
-85 49 l-35 23 35 -38z"></path>
</g>
</svg>