<!--?xml version="1.0" standalone="no"?-->

<svg version="1.0" xmlns="http://www.w3.org/2000/svg" width="300.000000pt" height="300.000000pt" viewBox="0 0 300.000000 300.000000" preserveAspectRatio="xMidYMid meet">
<g transform="translate(0.000000,300.000000) scale(0.100000,-0.100000)" fill="#070707" stroke="none">
<path class="node" id="node1" d="M1345 2885 c-203 -29 -379 -114 -528 -255 -89 -83 -138 -150 -188
-253 -55 -116 -79 -219 -79 -341 0 -552 548 -957 1150 -852 385 68 688 350
755 705 38 194 -6 408 -117 583 -76 118 -212 239 -353 314 -74 40 -219 86
-315 100 -114 16 -205 16 -325 -1z m338 -353 c112 -53 192 -145 215 -250 7
-31 7 -44 -3 -52 -13 -11 -167 -11 -183 -1 -5 3 -12 18 -15 32 -23 92 -151
149 -256 114 -54 -18 -121 -82 -121 -116 0 -10 -9 -23 -20 -29 -21 -11 -162
-11 -180 0 -15 9 6 96 35 145 29 49 96 114 149 144 106 60 268 66 379 13z
m-398 -340 c21 -6 31 -16 37 -39 11 -41 77 -99 130 -113 101 -28 228 35 245
122 6 33 35 40 133 34 65 -3 65 -4 68 -35 7 -66 -70 -187 -151 -238 l-39 -25
43 -30 c86 -60 144 -155 151 -248 l3 -35 -92 -3 -92 -3 -28 58 c-40 81 -85
114 -165 120 -105 9 -186 -43 -213 -137 l-11 -35 -92 -3 c-110 -3 -113 0 -88
91 20 72 71 145 132 189 42 30 55 48 35 48 -17 0 -112 93 -136 134 -30 51 -50
136 -35 146 16 10 131 11 165 2z"></path>
<path stroke-width="20" class="node" id="node2" d="M259 766 c-57 -20 -96 -53 -118 -99 -19 -39 -21 -61 -21 -236 0 -211
2 -221 62 -278 101 -96 315 -77 393 35 l30 44 3 177 c2 115 -1 194 -8 222 -16
59 -81 122 -143 137 -60 16 -153 14 -198 -2z m176 -141 c24 -24 25 -28 25
-184 0 -88 -3 -167 -6 -176 -8 -21 -56 -45 -91 -45 -36 0 -93 35 -94 57 -1 10
-1 88 0 173 2 151 3 156 27 178 36 32 106 31 139 -3z"></path>
<path class="node" id="node3" d="M676 739 c8 -17 49 -89 90 -160 41 -70 74 -134 74 -141 0 -7 -40 -83
-90 -170 -49 -86 -90 -160 -90 -163 0 -3 37 -5 83 -3 l82 3 50 92 c28 51 53
93 57 93 3 0 29 -43 57 -95 l52 -95 79 0 c44 0 80 4 80 9 0 6 -41 80 -91 166
-50 86 -88 163 -85 170 8 21 157 279 167 290 5 5 9 15 9 22 0 11 -19 13 -82
11 l-81 -3 -46 -87 c-25 -48 -51 -88 -58 -88 -6 0 -33 40 -60 90 l-48 90 -83
0 -83 0 17 -31z"></path>
<path class="node" id="node4" d="M1300 435 l0 -335 70 0 69 0 3 133 3 132 113 3 113 3 -3 62 -3 62
-112 3 -113 3 0 69 0 69 133 3 132 3 3 63 3 62 -206 0 -205 0 0 -335z"></path>
<path class="node" id="node5" d="M1875 758 c-2 -7 -29 -101 -60 -208 -31 -107 -72 -248 -91 -312 -19
-65 -34 -122 -34 -128 0 -15 127 -13 137 2 4 7 15 33 24 58 l16 45 101 3 100
3 19 -58 18 -58 68 -3 c55 -2 67 0 67 13 0 8 -23 93 -51 188 -28 94 -70 237
-93 317 l-43 145 -87 3 c-64 2 -87 -1 -91 -10z m130 -311 c14 -48 25 -89 25
-92 0 -3 -28 -5 -61 -5 l-61 0 6 32 c15 75 48 170 56 162 5 -5 21 -49 35 -97z"></path>
<path class="node" id="node6" d="M2320 435 l0 -335 70 0 70 0 0 179 c0 99 4 182 8 185 5 3 28 -31 51
-74 l42 -80 49 0 48 0 41 80 c23 44 46 80 52 80 5 0 9 -75 9 -185 l0 -186 68
3 67 3 0 330 0 330 -75 3 -75 3 -65 -126 c-35 -69 -67 -125 -71 -125 -3 0 -35
55 -71 123 l-65 122 -76 3 -77 3 0 -336z"></path>
</g>
<g transform="translate(0.000000,300.000000) scale(0.100000,-0.100000)" fill="#A0A0A0" stroke="none">

<path class="node" id="node8" d="M1394 2556 c-135 -39 -247 -149 -274 -270 -7 -34 -8 -51 0 -56 18
-11 159 -11 180 0 11 6 20 19 20 29 0 34 67 98 121 116 105 35 233 -22 256
-114 3 -14 10 -29 15 -32 16 -10 170 -10 183 1 10 8 10 21 3 52 -23 105 -103
197 -215 250 -76 36 -207 47 -289 24z"></path>
<path class="node" id="node9" d="M1120 2190 c-15 -10 5 -95 35 -146 24 -41 119 -134 136 -134 20 0 7
-18 -35 -48 -61 -44 -112 -117 -132 -189 -25 -91 -22 -94 88 -91 l92 3 11 35
c16 56 44 89 99 117 43 22 59 25 114 20 80 -6 125 -39 165 -120 l28 -58 92 3
92 3 -3 35 c-7 93 -65 188 -151 248 l-43 30 39 25 c81 51 158 172 151 238 -3
31 -3 32 -68 35 -98 6 -127 -1 -133 -34 -17 -87 -144 -150 -245 -122 -53 14
-119 72 -130 113 -6 23 -16 33 -37 39 -34 9 -149 8 -165 -2z"></path>


</g>
</svg>