<!--?xml version="1.0" standalone="no"?-->

<svg version="1.0" xmlns="http://www.w3.org/2000/svg" width="296.000000pt" height="300.000000pt" viewBox="0 0 296.000000 300.000000" preserveAspectRatio="xMidYMid meet">
<g transform="translate(0.000000,300.000000) scale(0.100000,-0.100000)" fill="#131518" stroke="none">
<path class="node" id="node1" d="M1974 2926 c-88 -21 -170 -89 -188 -156 -6 -20 -3 -18 15 10 13 19
24 37 27 40 2 3 11 -5 20 -18 29 -38 78 -39 163 -3 40 17 90 31 110 31 45 0
115 -49 134 -93 15 -37 40 -174 55 -302 9 -86 28 -151 71 -243 31 -68 70 -190
85 -270 42 -220 -7 -393 -152 -539 -35 -34 -68 -63 -73 -63 -13 0 -25 84 -16
118 17 70 18 95 1 104 -9 5 -14 14 -10 19 9 15 -24 59 -44 58 -16 -1 -16 -2 0
-6 17 -4 36 -48 26 -59 -8 -7 -138 19 -138 28 0 10 55 38 75 38 8 0 15 6 15
14 0 7 7 19 15 26 50 41 -30 116 -85 80 -11 -7 -5 -8 18 -4 24 5 38 2 52 -11
27 -24 25 -36 -7 -67 -25 -23 -113 -74 -113 -65 0 2 11 18 25 37 14 19 25 39
25 44 -1 6 -8 -1 -16 -16 -8 -16 -19 -28 -24 -28 -5 0 -18 -9 -28 -20 -21 -22
-67 -24 -84 -3 -13 17 -90 17 -106 1 -10 -10 -15 -10 -22 2 -17 26 -11 60 15
85 25 26 22 33 -6 12 -8 -7 -21 -27 -27 -46 -15 -42 -15 -37 2 -54 23 -23 9
-62 -27 -73 -34 -10 -49 -46 -28 -67 6 -6 11 -51 11 -107 l0 -95 51 -19 c74
-26 160 -47 178 -44 9 1 37 -18 62 -43 52 -53 127 -85 229 -101 59 -9 184 -4
236 8 19 5 22 -3 42 -113 31 -174 34 -215 22 -360 -8 -105 -16 -146 -39 -202
-30 -74 -68 -143 -98 -178 l-18 -22 -70 24 c-132 46 -279 29 -332 -39 -26 -32
-48 -33 -93 -2 -20 13 -56 30 -81 37 -86 26 -182 160 -265 372 -107 270 -140
441 -130 677 7 182 26 321 55 405 40 114 100 219 167 294 36 40 76 91 90 112
37 60 67 147 61 183 -6 43 1 56 28 56 13 0 35 12 49 28 113 124 124 142 84
142 -34 0 -124 45 -161 80 -17 16 -38 30 -46 30 -26 0 -146 -88 -208 -153 -71
-74 -82 -103 -32 -85 31 11 201 6 247 -8 20 -6 22 -12 22 -78 0 -96 -35 -169
-126 -266 -78 -82 -283 -241 -398 -309 -61 -35 -164 -71 -205 -71 -35 1 -37 2
-100 113 -35 62 -74 139 -87 172 -24 59 -24 60 -20 19 4 -41 40 -119 163 -356
66 -126 112 -260 140 -403 24 -125 24 -370 0 -485 -48 -224 -133 -388 -242
-466 -22 -15 -44 -34 -48 -42 -7 -10 -14 -8 -32 12 -34 36 -95 50 -169 37 -94
-17 -126 -28 -153 -56 -14 -14 -43 -30 -65 -37 l-39 -11 33 -21 c29 -19 48
-21 183 -21 126 0 155 3 183 18 27 15 46 17 100 12 89 -8 251 8 263 26 5 8 8
29 7 48 -4 50 -40 73 -117 74 -33 0 -61 3 -61 6 0 3 11 16 24 30 152 160 227
560 165 885 -11 59 -18 110 -15 113 3 3 26 -4 51 -16 24 -11 48 -21 51 -21 18
0 98 -77 109 -104 7 -17 18 -75 25 -130 30 -252 144 -554 264 -698 l56 -68
-45 0 c-26 0 -56 -5 -68 -11 -90 -47 -125 -157 -54 -171 13 -3 109 -1 213 4
170 8 190 7 201 -8 6 -9 16 -13 21 -10 5 3 107 7 228 10 232 5 260 10 307 54
34 32 164 235 199 312 134 289 198 645 164 910 -20 152 -60 283 -124 410 -27
52 -83 161 -125 241 -84 163 -120 270 -138 404 -30 233 -70 347 -149 426 -56
56 -108 84 -192 104 -75 17 -125 18 -194 1z m-506 -1281 c-20 -60 -58 -267
-58 -318 0 -18 -3 -42 -6 -54 -6 -21 -7 -21 -39 11 -18 19 -57 44 -87 57 -143
64 -151 70 -177 132 -28 67 -26 71 48 82 128 18 251 67 301 120 35 37 39 31
18 -30z m461 -49 c8 -10 9 -16 2 -21 -14 -8 -92 16 -85 26 8 14 71 10 83 -5z
m-75 -31 c-4 -8 -17 -15 -30 -15 -15 0 -24 6 -24 15 0 10 10 15 30 15 22 0 28
-4 24 -15z"></path>
<path class="node" id="node2" d="M1761 2697 c-6 -6 -11 -24 -11 -40 0 -27 2 -28 38 -25 32 3 37 7 40
29 3 22 -2 29 -26 37 -21 7 -33 7 -41 -1z"></path>
<path class="node" id="node3" d="M1936 2658 c-14 -20 -14 -24 1 -40 21 -23 65 -23 94 1 l24 19 -25 21
c-33 27 -75 27 -94 -1z"></path>
<path class="node" id="node4" d="M580 2381 c-134 -41 -227 -150 -260 -306 -7 -33 -17 -67 -21 -76 -5
-9 -13 -79 -19 -155 -13 -171 -41 -309 -84 -417 -81 -204 -108 -303 -132 -481
-17 -136 -16 -197 11 -347 22 -127 72 -225 164 -322 39 -42 131 -122 131 -114
0 2 -14 21 -30 42 -17 22 -42 75 -57 122 -24 78 -25 94 -20 211 6 133 30 239
65 281 16 20 19 20 62 5 32 -11 69 -15 131 -12 93 4 133 21 149 61 8 23 7 27
-56 121 -21 30 -43 89 -64 164 -17 64 -47 164 -65 222 -91 286 -104 502 -43
703 34 114 75 169 155 208 40 20 63 24 135 23 84 0 87 1 72 18 -44 48 -151 71
-224 49z"></path>
<path class="node" id="node5" d="M1025 2310 c-16 -4 -62 -8 -101 -9 -69 -1 -71 -2 -71 -25 0 -14 -21
-50 -47 -83 -58 -75 -59 -99 -6 -121 36 -16 40 -20 41 -57 l2 -40 6 48 c5 34
14 52 31 64 14 10 54 44 90 78 36 33 80 72 98 88 38 32 43 68 10 66 -13 -1
-36 -5 -53 -9z"></path>
<path class="node" id="node6" d="M665 2236 c-8 -6 -18 -26 -21 -43 -6 -31 -5 -33 20 -33 30 0 66 32
66 59 0 22 -43 34 -65 17z"></path>
<path class="node" id="node7" d="M1984 1696 c-3 -8 -4 -25 -2 -38 3 -17 5 -13 9 15 5 38 2 47 -7 23z"></path>
<path class="node" id="node8" d="M2035 1700 c3 -5 13 -10 21 -10 8 0 12 5 9 10 -3 6 -13 10 -21 10 -8
0 -12 -4 -9 -10z"></path>
</g>
<g transform="translate(0.000000,300.000000) scale(0.100000,-0.100000)" fill="#A4A0A3" stroke="none">


<path class="node" id="node11" d="M1846 1601 c-7 -10 71 -34 85 -26 7 5 6 11 -2 21 -12 15 -75 19 -83
5z"></path>
<path class="node" id="node12" d="M1800 1565 c0 -9 9 -15 24 -15 13 0 26 7 30 15 4 11 -2 15 -24 15
-20 0 -30 -5 -30 -15z"></path>
</g>
</svg>