<!--?xml version="1.0" standalone="no"?-->

<svg version="1.0" xmlns="http://www.w3.org/2000/svg" width="225.000000pt" height="300.000000pt" viewBox="0 0 225.000000 300.000000" preserveAspectRatio="xMidYMid meet">
<g transform="translate(0.000000,300.000000) scale(0.100000,-0.100000)" fill="#526A54" stroke="none">
<path d="M1247 2864 c-34 -34 -62 -93 -83 -173 -13 -53 -15 -100 -10 -280 3
-119 8 -237 12 -263 5 -43 4 -48 -14 -48 -18 0 -20 9 -27 103 -10 141 -59 385
-96 473 -64 154 -164 179 -216 56 -21 -50 -29 -225 -13 -304 14 -73 66 -230
106 -318 l28 -62 -30 -21 c-160 -113 -215 -299 -157 -531 32 -131 99 -220 184
-245 31 -9 39 -17 39 -35 0 -19 -7 -24 -37 -30 -21 -3 -57 -6 -80 -6 -37 0
-43 3 -49 25 -8 32 -32 45 -81 45 -45 0 -77 -20 -98 -61 -10 -19 -23 -29 -38
-29 -40 0 -116 -31 -135 -55 -13 -16 -34 -25 -68 -30 -110 -16 -218 -84 -212
-135 4 -32 38 -38 63 -10 10 11 24 20 31 20 8 0 20 14 29 30 20 39 12 38 -41
-5 -43 -36 -64 -44 -64 -24 0 17 62 68 95 78 16 5 55 12 85 16 l55 6 0 -53
c-2 -137 -6 -198 -14 -198 -5 0 -17 21 -27 47 l-18 47 -12 -60 c-15 -79 -24
-100 -36 -82 -10 16 -8 137 3 159 4 8 4 21 0 27 -4 7 -15 -11 -25 -45 -10 -32
-27 -70 -38 -86 -42 -59 -53 12 -13 87 14 26 20 44 14 40 -19 -12 -49 -88 -49
-127 0 -59 47 -60 70 -2 7 15 9 11 9 -21 2 -79 54 -85 76 -8 8 30 12 35 18 22
3 -10 13 -18 20 -18 22 0 37 46 37 110 0 33 2 60 4 60 3 0 21 -10 41 -22 39
-22 111 -26 173 -9 21 6 42 6 62 -2 23 -9 35 -9 50 0 16 11 23 8 48 -17 16
-16 42 -32 58 -35 49 -11 54 -14 48 -29 -3 -8 -37 -24 -75 -36 -159 -48 -213
-167 -129 -283 18 -26 51 -59 73 -74 l40 -28 -93 -3 c-83 -2 -98 -6 -127 -28
-37 -28 -43 -62 -16 -86 32 -27 108 -41 208 -36 83 3 95 2 95 -12 0 -9 10 -26
22 -37 51 -46 64 -48 258 -46 211 2 325 13 451 44 78 19 89 24 89 43 0 12 -13
37 -30 56 -37 44 -37 53 -1 99 15 20 34 46 40 59 l12 23 30 -26 c34 -28 47
-30 82 -14 26 12 47 47 47 77 0 10 10 22 23 27 27 12 35 66 14 99 -14 20 -13
24 4 34 25 16 24 43 -2 76 -39 49 -73 51 -150 9 -4 -2 -10 12 -13 32 -22 115
-88 261 -198 435 -22 36 -54 93 -70 128 -28 61 -29 65 -14 96 9 18 21 65 28
105 28 162 -30 331 -150 441 l-63 58 21 53 c20 49 57 242 82 419 14 105 5 226
-20 276 -38 74 -99 94 -145 48z m95 -31 c39 -41 48 -74 48 -179 0 -192 -28
-352 -101 -581 -11 -36 -3 -65 12 -42 11 18 127 -99 153 -154 28 -61 56 -172
56 -225 0 -95 -45 -205 -113 -279 -49 -53 -90 -75 -188 -103 -93 -25 -159 -25
-243 0 -117 36 -170 107 -202 270 -45 225 27 401 199 485 83 40 205 64 218 43
16 -25 18 0 8 83 -5 46 -14 125 -20 174 -29 238 41 535 126 535 12 0 33 -12
47 -27z m-400 -72 c13 -11 36 -41 50 -68 67 -123 147 -580 104 -596 -21 -8
-26 2 -26 52 0 89 -61 364 -95 432 -38 75 -77 89 -114 43 -38 -49 -28 -117 53
-374 53 -165 59 -190 47 -190 -25 0 -151 414 -151 497 0 21 9 71 19 110 26
107 60 135 113 94z m-21 -141 c37 -20 65 -108 98 -315 29 -178 30 -216 4 -226
-23 -8 -30 7 -111 266 -52 162 -61 225 -38 260 19 28 20 29 47 15z m617 -1365
c39 -71 87 -157 106 -189 20 -33 51 -96 68 -140 31 -77 32 -88 32 -216 0 -153
-11 -190 -85 -274 -21 -24 -39 -48 -39 -54 0 -5 14 -26 30 -47 17 -21 30 -44
30 -52 0 -8 -17 -21 -37 -30 -86 -35 -588 -79 -623 -53 -13 9 -12 13 8 29 13
12 18 22 12 26 -6 3 -23 -7 -40 -23 -26 -27 -31 -28 -50 -15 -25 18 -25 35 0
58 23 21 241 44 428 45 61 0 112 4 112 9 0 4 -28 19 -62 31 -88 32 -178 89
-205 129 -67 99 13 231 184 299 l78 31 -45 0 c-25 1 -65 -8 -89 -19 -53 -25
-51 -25 -51 2 0 12 -7 45 -17 74 -15 50 -15 53 4 84 l20 31 26 -53 c35 -70 61
-98 96 -98 34 0 63 30 89 90 34 80 34 109 -1 39 -40 -83 -54 -99 -82 -99 -31
0 -65 43 -95 118 -14 34 -27 62 -30 62 -3 0 -25 -29 -48 -65 -45 -67 -73 -85
-97 -65 -19 16 -19 58 0 139 17 72 44 115 85 136 66 34 108 11 167 -93 l38
-67 5 35 c3 23 13 38 29 46 23 12 23 12 3 23 -16 8 -24 8 -36 -4 -21 -21 -23
-20 -45 23 -32 62 -57 82 -102 82 -72 0 -118 -36 -148 -116 -15 -39 -25 -50
-47 -55 -43 -8 -68 -24 -103 -64 l-31 -36 0 33 c0 30 5 35 61 62 62 30 102 69
97 95 -4 18 -37 29 -95 30 -36 1 -43 4 -43 21 0 18 7 20 83 20 154 0 261 40
334 124 21 25 41 41 44 38 4 -4 38 -65 77 -137z m-783 -31 c46 -18 66 -174 31
-241 -22 -43 -61 -45 -98 -5 -40 42 -51 72 -52 135 -1 54 2 61 32 88 32 29 55
35 87 23z m285 -80 c0 -14 4 -23 10 -19 6 3 10 15 10 26 0 20 8 23 34 13 46
-17 -3 -51 -155 -108 -108 -40 -124 -43 -115 -20 3 9 6 20 6 25 0 6 5 7 11 3
7 -4 10 4 9 22 -5 70 -3 74 40 74 38 0 40 -1 41 -32 l1 -33 9 33 c10 32 39 45
39 17 0 -22 17 -18 23 5 8 30 37 25 37 -6z m-430 -46 c0 -18 11 -57 25 -86 14
-30 25 -55 25 -57 0 -1 -10 -5 -22 -8 -26 -7 -37 6 -39 48 -1 27 -2 25 -12
-12 -9 -42 -11 -43 -49 -43 -95 0 -122 121 -38 165 l30 16 0 -41 c0 -22 5 -40
10 -40 6 0 10 16 10 35 0 22 6 38 18 44 31 18 42 12 42 -21z m515 -122 c0 -49
4 -69 19 -85 22 -25 53 -27 83 -6 21 15 22 14 33 -42 6 -32 13 -63 15 -69 2
-6 -16 -35 -40 -64 -53 -65 -70 -123 -54 -183 14 -53 61 -112 116 -147 l43
-28 -114 -7 c-132 -8 -134 -7 -218 73 -75 71 -92 120 -86 246 3 83 8 101 52
201 49 111 97 175 133 175 15 0 18 -10 18 -64z m-170 27 c-2 -16 -7 -45 -10
-65 -8 -52 -41 -60 -96 -24 -54 37 -48 54 31 88 36 15 68 28 72 28 4 0 6 -12
3 -27z m-56 -270 c-16 -69 -10 -184 11 -232 26 -56 74 -116 111 -138 38 -23
37 -33 -4 -33 -18 0 -41 -6 -52 -14 -26 -18 -295 -33 -295 -17 0 7 7 14 15 17
8 4 15 10 15 15 0 14 -34 10 -58 -7 -21 -14 -22 -14 -22 10 0 33 39 45 180 56
61 4 114 10 117 13 3 3 -15 16 -39 28 -120 61 -158 108 -158 196 0 42 5 53 33
81 33 32 94 60 133 61 20 1 21 -2 13 -36z m1003 20 c23 -21 23 -34 -3 -67 -11
-14 -16 -26 -9 -26 14 0 31 -46 23 -66 -3 -9 -13 -14 -24 -11 -16 4 -19 -1
-19 -38 0 -70 -43 -96 -89 -54 -19 18 -22 28 -17 58 3 20 9 68 12 106 7 74 15
92 49 105 32 14 57 11 77 -7z" id="node1" class="node"></path>
<path d="M1256 2697 c-43 -43 -59 -147 -52 -325 9 -227 17 -312 28 -312 5 0 7
8 4 18 -3 9 -6 123 -8 252 -2 248 3 293 43 344 27 35 44 22 58 -43 11 -52 -6
-219 -35 -351 -8 -36 -21 -97 -29 -136 -8 -40 -16 -77 -17 -84 -2 -7 2 -14 8
-17 6 -2 19 43 33 119 13 68 30 157 39 198 8 42 16 128 16 196 1 106 -1 124
-18 143 -25 27 -41 27 -70 -2z" id="node2" class="node"></path>
<path d="M1170 1455 c0 -29 28 -45 40 -24 11 17 -6 49 -25 49 -9 0 -15 -10
-15 -25z" id="node3" class="node"></path>
<path d="M860 1382 c0 -19 18 -42 32 -42 12 0 9 35 -4 48 -17 17 -28 15 -28
-6z" id="node4" class="node"></path>
<path d="M1014 1355 c-21 -14 -49 -25 -61 -25 -30 0 -29 -16 2 -36 53 -34 115
-6 115 52 0 34 -12 36 -56 9z" id="node5" class="node"></path>
</g>
<g transform="translate(0.000000,300.000000) scale(0.100000,-0.100000)" fill="#ADCA6A" stroke="none">

<path d="M1258 2843 c-71 -81 -113 -324 -89 -518 6 -49 15 -128 20 -174 10
-83 8 -108 -8 -83 -13 21 -135 -3 -218 -43 -172 -84 -244 -260 -199 -485 32
-163 85 -234 202 -270 84 -25 150 -25 243 0 98 28 139 50 188 103 68 74 113
184 113 279 0 53 -28 164 -56 225 -26 55 -142 172 -153 154 -15 -23 -23 6 -12
42 73 229 101 389 101 581 0 105 -9 138 -48 179 -30 31 -62 35 -84 10z m68
-144 c17 -19 19 -37 18 -143 0 -68 -8 -154 -16 -196 -9 -41 -26 -130 -39 -198
-14 -76 -27 -121 -33 -119 -6 3 -10 10 -8 17 1 7 9 44 17 84 8 39 21 100 29
136 29 132 46 299 35 351 -14 65 -31 78 -58 43 -40 -51 -45 -96 -43 -344 2
-129 5 -243 8 -252 3 -10 1 -18 -4 -18 -11 0 -19 85 -28 312 -6 132 -4 168 11
229 26 105 70 144 111 98z m-117 -1237 c12 -23 -2 -47 -23 -39 -20 8 -22 57
-1 57 8 0 19 -8 24 -18z m-321 -74 c13 -13 16 -48 4 -48 -14 0 -32 23 -32 42
0 21 11 23 28 6z m182 -42 c0 -58 -62 -86 -115 -52 -31 20 -32 36 -2 36 12 0
40 11 61 25 44 27 56 25 56 -9z" id="node7" class="node"></path>
<path d="M865 2760 c-21 -23 -55 -147 -55 -203 0 -83 126 -497 151 -497 12 0
6 25 -47 190 -81 257 -91 325 -53 374 37 46 76 32 114 -43 34 -68 95 -343 95
-432 0 -50 5 -60 26 -52 43 16 -37 473 -104 596 -44 82 -91 106 -127 67z" id="node8" class="node"></path>
<path d="M874 2605 c-23 -35 -14 -98 38 -260 81 -259 88 -274 111 -266 26 10
25 48 -4 226 -33 207 -61 295 -98 315 -27 14 -28 13 -47 -15z" id="node9" class="node"></path>
<path d="M1417 1354 c-73 -84 -180 -124 -334 -124 -76 0 -83 -2 -83 -20 0 -17
7 -20 43 -21 58 -1 91 -12 95 -30 5 -26 -35 -65 -97 -95 -56 -27 -61 -32 -61
-62 l0 -33 31 36 c35 40 60 56 103 64 22 5 32 16 47 55 30 80 76 116 148 116
45 0 70 -20 102 -82 22 -43 24 -44 45 -23 12 12 20 12 36 4 20 -11 20 -11 -3
-23 -16 -8 -26 -23 -29 -46 l-5 -35 -38 67 c-59 104 -101 127 -167 93 -41 -21
-68 -64 -85 -136 -19 -81 -19 -123 0 -139 24 -20 52 -2 97 65 23 36 45 65 48
65 3 0 16 -28 30 -62 30 -75 64 -118 95 -118 28 0 42 16 82 99 35 70 35 41 1
-39 -26 -60 -55 -90 -89 -90 -35 0 -61 28 -96 98 l-26 53 -20 -31 c-19 -31
-19 -34 -4 -84 10 -29 17 -62 17 -74 0 -27 -2 -27 51 -2 24 11 64 20 89 19
l45 0 -78 -31 c-171 -68 -251 -200 -184 -299 27 -40 117 -97 205 -129 34 -12
62 -27 62 -31 0 -5 -51 -9 -112 -9 -187 -1 -405 -24 -428 -45 -25 -23 -25 -40
0 -58 19 -13 24 -12 50 15 17 16 34 26 40 23 6 -4 1 -14 -12 -26 -20 -16 -21
-20 -8 -29 35 -26 537 18 623 53 20 9 37 22 37 30 0 8 -13 31 -30 52 -16 21
-30 42 -30 47 0 6 18 30 39 54 74 84 85 121 85 274 0 128 -1 139 -32 216 -17
44 -48 107 -68 140 -19 32 -67 118 -106 189 -39 72 -73 133 -77 137 -3 3 -23
-13 -44 -38z" id="node10" class="node"></path>
<path d="M668 1201 c-30 -27 -33 -34 -32 -88 1 -63 12 -93 52 -135 37 -40 76
-38 98 5 22 42 23 162 1 204 -27 52 -71 57 -119 14z" id="node11" class="node"></path>
<path d="M1003 1150 c-6 -23 -23 -27 -23 -5 0 28 -29 15 -39 -17 l-9 -33 -1
33 c-1 31 -3 32 -41 32 -43 0 -45 -4 -40 -74 1 -18 -2 -26 -9 -22 -6 4 -11 3
-11 -3 0 -5 -3 -16 -6 -25 -9 -23 7 -20 115 20 152 57 201 91 155 108 -26 10
-34 7 -34 -13 0 -11 -4 -23 -10 -26 -6 -4 -10 5 -10 19 0 31 -29 36 -37 6z" id="node12" class="node"></path>
<path d="M568 1119 c-12 -6 -18 -22 -18 -44 0 -19 -4 -35 -10 -35 -5 0 -10 18
-10 40 l0 41 -30 -16 c-84 -44 -57 -165 38 -165 38 0 40 1 49 43 10 37 11 39
12 12 2 -42 13 -55 39 -48 12 3 22 7 22 8 0 2 -11 27 -25 57 -14 29 -25 68
-25 86 0 33 -11 39 -42 21z" id="node13" class="node"></path>
<path d="M1056 1008 c-22 -21 -51 -73 -82 -143 -44 -100 -49 -118 -52 -201 -6
-126 11 -175 86 -246 84 -80 86 -81 218 -73 l114 7 -43 28 c-55 35 -102 94
-116 147 -16 60 1 118 54 183 24 29 42 58 40 64 -2 6 -9 37 -15 69 -11 56 -12
57 -33 42 -30 -21 -61 -19 -83 6 -15 16 -19 36 -19 85 0 54 -3 64 -18 64 -9 0
-33 -15 -51 -32z" id="node14" class="node"></path>
<path d="M880 1002 c-79 -34 -85 -51 -31 -88 55 -36 88 -28 96 24 3 20 8 49
10 65 3 15 1 27 -3 27 -4 0 -36 -13 -72 -28z" id="node15" class="node"></path>
<path d="M825 754 c-22 -8 -54 -29 -72 -46 -28 -28 -33 -39 -33 -81 0 -88 38
-135 158 -196 24 -12 42 -25 39 -28 -3 -3 -56 -9 -117 -13 -141 -11 -180 -23
-180 -56 0 -24 1 -24 22 -10 24 17 58 21 58 7 0 -5 -7 -11 -15 -15 -8 -3 -15
-10 -15 -17 0 -16 269 -1 295 17 11 8 34 14 52 14 41 0 42 10 4 33 -37 22 -85
82 -111 138 -21 48 -27 163 -11 232 8 34 7 37 -13 36 -11 0 -39 -7 -61 -15z" id="node16" class="node"></path>
<path d="M1825 760 c-34 -13 -42 -31 -49 -105 -3 -38 -9 -86 -12 -106 -5 -30
-2 -40 17 -58 46 -42 89 -16 89 54 0 37 3 42 19 38 11 -3 21 2 24 11 8 20 -9
66 -23 66 -7 0 -2 12 9 26 26 33 26 46 3 67 -20 18 -45 21 -77 7z" id="node17" class="node"></path>
</g>
</svg>