<!--?xml version="1.0" standalone="no"?-->

<svg version="1.0" xmlns="http://www.w3.org/2000/svg" width="300.000000pt" height="225.000000pt" viewBox="0 0 300.000000 225.000000" preserveAspectRatio="xMidYMid meet">
<g transform="translate(0.000000,225.000000) scale(0.100000,-0.100000)" fill="#493B27" stroke="none">
<path class="node" id="node1" d="M1905 2091 c-20 -24 -111 -69 -215 -108 -126 -47 -221 -119 -288
-218 -15 -22 -31 -43 -36 -46 -5 -4 -31 11 -59 32 -91 69 -267 118 -370 105
-95 -13 -287 -74 -287 -91 0 -3 44 -3 98 0 115 8 223 -10 301 -49 58 -30 109
-34 118 -10 14 37 -41 70 -72 44 -10 -8 -23 -6 -54 10 -47 24 -52 37 -15 46
41 10 112 -4 166 -33 82 -45 91 -98 18 -109 l-41 -7 25 -26 c33 -34 32 -37 -3
-44 -23 -5 -30 -12 -33 -34 -2 -22 -9 -29 -33 -33 -25 -4 -30 -10 -33 -38 -3
-28 -7 -32 -33 -32 -27 0 -29 -3 -29 -35 0 -32 -2 -35 -30 -35 -27 0 -30 -3
-30 -34 0 -29 -4 -34 -30 -39 -25 -6 -30 -11 -30 -36 0 -25 -5 -30 -30 -36
-26 -6 -30 -11 -30 -40 0 -28 -4 -33 -31 -39 -29 -5 -31 -9 -25 -36 5 -28 3
-31 -25 -37 -28 -5 -30 -9 -25 -35 5 -26 2 -30 -25 -40 -28 -10 -30 -14 -25
-43 5 -24 1 -39 -13 -56 -25 -30 -43 -21 -74 36 -78 147 -149 257 -197 305
-53 53 -143 111 -155 99 -3 -3 11 -24 31 -45 75 -82 119 -188 159 -387 13 -66
31 -130 40 -143 16 -25 55 -40 80 -30 21 8 35 47 23 68 -13 25 -47 22 -57 -4
l-8 -22 -12 22 c-16 30 -10 82 10 95 48 30 117 -68 92 -132 -9 -25 -7 -32 14
-53 44 -45 40 -158 -6 -158 -11 0 -25 8 -30 18 -13 25 -25 101 -13 84 12 -18
46 -11 50 10 4 21 -39 51 -62 42 -25 -10 -30 -50 -13 -117 9 -34 19 -79 22
-101 8 -51 9 -281 0 -331 -6 -38 -5 -39 10 -20 27 32 71 125 91 190 15 51 18
89 16 252 l-3 192 42 46 c34 36 48 45 76 45 26 0 35 5 43 25 8 21 14 24 39 19
26 -6 31 -3 37 20 6 24 10 26 39 20 28 -5 34 -3 40 16 5 15 12 19 23 15 40
-17 48 -15 61 8 12 22 16 23 42 14 24 -10 31 -8 43 8 12 17 17 18 41 7 24 -11
29 -10 45 10 18 23 18 23 39 4 21 -19 22 -19 44 2 21 20 24 21 46 6 21 -15 24
-15 45 5 22 20 23 20 38 4 8 -10 13 -24 11 -30 -6 -17 7 -16 31 2 29 22 52 18
76 -12 18 -23 21 -36 16 -76 -9 -81 -77 -187 -111 -174 -19 8 -19 32 1 91 13
39 19 46 36 41 43 -14 64 38 28 70 -20 18 -21 18 -48 -2 -22 -16 -30 -35 -44
-104 -26 -124 -67 -234 -121 -323 -26 -44 -46 -84 -44 -89 6 -18 181 166 232
243 64 97 111 208 134 312 l17 83 133 22 c74 12 147 27 164 33 30 10 46 2 47
-24 0 -5 8 -2 18 7 54 49 95 -19 57 -93 -17 -33 -32 -38 -41 -15 -4 9 3 23 16
33 20 16 20 19 6 31 -31 26 -46 6 -46 -62 0 -35 -5 -78 -11 -96 -30 -84 46
-19 97 84 24 49 36 90 41 137 l6 67 52 21 c69 28 161 95 207 152 41 50 158
228 158 240 0 28 -328 -48 -337 -78 -4 -13 98 -74 124 -74 29 0 49 35 32 56
-15 18 -34 18 -53 -2 -15 -14 -16 -14 -16 6 0 30 45 45 76 25 45 -30 21 -101
-43 -126 -38 -14 -46 -12 -103 31 -68 51 -80 51 -78 2 1 -47 -15 -78 -52 -97
-45 -23 -85 -19 -121 13 -27 24 -33 37 -36 83 -5 62 15 104 38 82 21 -21 49
-15 61 12 14 31 -3 55 -40 55 -49 0 -122 -114 -122 -189 0 -68 52 -139 125
-170 l39 -18 -43 -31 c-32 -23 -55 -32 -84 -32 -53 0 -107 33 -107 66 0 22 3
23 20 14 15 -8 24 -6 40 10 33 33 2 80 -52 80 -21 0 -33 -8 -49 -32 -24 -39
-20 -88 11 -130 29 -39 8 -35 -25 4 -25 30 -27 37 -23 104 l5 71 -203 8 c-195
7 -314 -2 -314 -24 0 -5 26 -14 58 -20 55 -11 69 -18 226 -128 42 -29 94 -35
120 -14 23 19 20 77 -4 101 -23 23 -33 24 -61 10 -26 -14 -24 -45 3 -64 l22
-16 -26 0 c-16 0 -33 9 -42 22 -35 50 -7 98 58 98 30 0 45 -7 72 -34 37 -37
42 -62 19 -106 -20 -39 -43 -50 -102 -50 -53 0 -100 21 -178 76 -73 51 -119
73 -176 84 -93 18 -185 -25 -177 -82 2 -18 9 -23 32 -23 31 0 62 34 39 42 -26
9 -12 24 20 21 44 -4 50 -47 11 -83 -47 -43 -125 -29 -147 26 -3 9 -35 -16
-96 -77 -50 -50 -91 -88 -91 -84 0 4 36 50 80 102 175 210 358 342 585 424
l49 17 -61 13 c-66 13 -123 39 -123 54 0 14 7 13 34 -5 30 -20 147 -45 213
-45 44 0 55 4 73 27 22 28 23 54 2 61 -7 2 -10 -2 -6 -12 4 -12 0 -16 -15 -16
-32 0 -28 38 6 46 40 10 58 -7 57 -56 -1 -41 -1 -42 29 -36 41 8 42 10 17 44
-18 24 -20 34 -11 50 21 39 71 40 71 1 0 -23 -16 -25 -28 -3 -7 12 -11 13 -17
5 -13 -21 25 -51 65 -51 62 0 158 83 203 176 18 38 25 44 51 44 l30 0 -45 -47
c-62 -66 -79 -96 -79 -142 0 -32 5 -44 25 -57 21 -14 31 -15 51 -5 35 16 28
46 -11 47 -33 1 -35 12 -9 52 20 30 26 28 45 -16 13 -31 25 -42 64 -57 48 -18
50 -18 84 1 20 10 42 32 49 47 18 38 -5 77 -47 77 -51 0 -68 -55 -21 -67 26
-7 15 -23 -16 -23 -60 0 -87 85 -40 129 33 31 92 37 136 14 33 -17 35 -20 32
-65 -3 -41 0 -49 22 -63 15 -10 33 -14 46 -10 24 8 27 25 4 25 -21 0 -14 34 9
38 45 9 65 -56 25 -82 -43 -26 -65 -28 -71 -6 -8 30 -34 25 -73 -14 -33 -33
-46 -71 -21 -64 6 2 57 18 112 35 55 17 121 34 148 38 26 3 47 10 47 15 0 23
-105 110 -176 147 -87 45 -249 98 -332 109 -69 9 -94 30 -128 109 -16 36 -34
65 -40 65 -6 0 -19 -9 -29 -19z m41 -86 c15 -23 15 -27 0 -50 -16 -24 -94 -55
-140 -55 -40 0 -178 -40 -259 -75 l-82 -34 48 42 c51 47 183 121 232 131 25 5
32 3 40 -16 17 -39 104 -37 125 2 14 26 -3 60 -30 60 -24 0 -37 -20 -19 -31
11 -6 11 -11 2 -20 -17 -17 -43 -3 -43 22 0 30 28 48 72 49 29 0 41 -6 54 -25z
m13 -128 c-19 -12 -35 -33 -37 -45 -4 -28 -26 -28 -46 0 -21 29 -5 56 37 61
80 10 83 9 46 -16z m-125 -39 c6 -28 49 -58 83 -58 10 0 29 7 41 16 21 14 22
17 7 28 -15 11 -15 14 -2 24 19 16 47 5 47 -18 0 -10 -14 -30 -31 -44 -55 -47
-159 -32 -208 30 -12 15 -21 30 -21 34 0 9 74 29 77 21 1 -3 4 -18 7 -33z
m-133 -36 c-25 -92 -165 -177 -232 -142 -23 13 -25 55 -3 64 23 9 43 -11 36
-36 -5 -19 -2 -20 24 -14 50 12 79 50 78 100 l-1 44 51 15 c28 8 52 13 54 12
2 -2 -2 -21 -7 -43z m-131 -31 c0 -9 -7 -26 -15 -37 -14 -18 -16 -18 -26 -1
-5 9 -22 17 -37 17 -24 1 -23 3 18 24 48 26 60 25 60 -3z m190 -25 c-14 -17
-46 -21 -54 -7 -3 5 1 14 9 21 8 7 15 20 15 28 0 13 4 12 22 -5 18 -18 19 -24
8 -37z m190 -10 c0 -2 -15 -13 -34 -24 -33 -19 -34 -20 -39 -2 -4 14 2 20 22
23 44 7 51 7 51 3z m610 -38 c0 -4 -9 -8 -20 -8 -15 0 -20 7 -20 27 0 25 0 26
20 8 11 -10 20 -22 20 -27z m-930 -53 c11 -13 7 -15 -26 -15 -39 1 -39 1 -14
15 14 8 26 14 26 15 1 0 7 -7 14 -15z m-259 -35 c26 -15 24 -25 -11 -50 l-31
-22 6 25 c7 27 -7 42 -32 33 -11 -5 -13 -10 -4 -20 12 -14 5 -26 -16 -26 -22
0 -27 29 -8 50 20 22 65 26 96 10z m1142 -62 c-23 -34 -29 -38 -32 -22 -2 10
-8 25 -14 32 -14 17 7 32 46 32 l27 0 -27 -42z m-1282 -72 c-64 -45 -146 -111
-211 -170 -56 -52 -31 -21 98 120 l102 111 34 -11 34 -10 -57 -40z m1029 -81
c10 -9 37 -19 60 -23 l43 -7 -42 -28 c-51 -34 -113 -57 -152 -57 -37 0 -37 11
0 33 16 9 38 35 48 57 21 45 21 45 43 25z m-221 -76 c30 -11 37 -29 14 -36
-13 -5 -83 54 -83 70 0 5 8 3 18 -6 10 -9 33 -22 51 -28z m-524 4 c-4 -10 -10
-26 -12 -36 -5 -16 -8 -16 -22 -4 -9 8 -34 24 -56 35 l-40 21 69 1 c61 0 67
-2 61 -17z m235 3 c0 -2 -3 -11 -6 -20 -5 -13 -8 -13 -20 -1 -19 19 -18 25 6
25 11 0 20 -2 20 -4z m-378 -122 c42 -27 54 -54 38 -84 -15 -29 -75 -25 -75 5
0 12 9 21 25 25 l25 6 -23 13 c-45 24 -99 -3 -120 -60 -8 -21 -21 -28 -69 -38
-83 -18 -256 -77 -316 -107 l-51 -26 41 48 c75 89 108 121 142 138 30 16 35
16 49 2 13 -12 13 -18 2 -30 -16 -20 -40 -21 -40 -1 0 19 -11 19 -35 1 -12 -8
-16 -19 -11 -31 11 -29 111 -16 193 26 67 34 98 68 107 120 2 13 5 25 5 27 3
10 82 -14 113 -34z m-868 -149 c27 -47 47 -87 45 -89 -2 -2 -19 -6 -36 -9 -26
-5 -33 -3 -33 9 0 8 -16 63 -34 122 -31 96 -33 104 -13 80 12 -15 44 -66 71
-113z m1275 82 c-2 -2 -21 -7 -42 -10 l-38 -6 23 29 c23 27 23 28 42 9 11 -10
18 -20 15 -22z m-260 -24 c24 -11 23 -11 -21 -12 -48 -1 -53 3 -42 33 5 14 9
14 22 4 8 -7 27 -18 41 -25z m-384 -1 c-13 -11 -65 -33 -65 -28 0 22 17 36 43
36 17 0 27 -4 22 -8z m-475 -629 c0 -39 -20 -154 -28 -167 -7 -11 -21 172 -14
187 2 4 12 7 23 7 14 0 19 -7 19 -27z"></path>
<path class="node" id="node2" d="M1946 1668 c-21 -15 -45 -28 -51 -28 -7 0 -17 -6 -23 -13 -9 -10 2
-12 56 -9 37 2 70 7 73 11 3 3 1 20 -5 37 l-11 31 -39 -29z"></path>
<path class="node" id="node3" d="M2125 1615 c-30 -29 -32 -56 -7 -78 24 -22 48 -21 64 1 7 9 20 17 28
17 9 0 16 11 18 27 3 21 -3 30 -27 42 -40 21 -48 20 -76 -9z m64 -14 c17 -11
6 -31 -19 -31 -10 0 -20 -6 -23 -12 -3 -9 -7 -6 -12 6 -6 13 -3 23 10 32 22
16 25 17 44 5z"></path>
<path class="node" id="node4" d="M1790 1593 c-212 -23 -460 -112 -597 -214 -67 -50 -68 -67 -2 -33 84
42 183 57 349 50 80 -3 151 -2 158 2 9 7 10 15 3 35 -22 56 40 127 110 127 21
0 39 -2 39 -4 0 -18 -15 -36 -31 -36 -31 0 -61 -37 -57 -72 4 -43 23 -46 44
-6 9 18 44 61 77 95 l60 63 -59 -2 c-32 0 -75 -3 -94 -5z m-125 -83 c-8 -16
-15 -38 -15 -48 0 -17 -8 -19 -87 -18 -49 1 -117 -2 -153 -7 -45 -5 -60 -4
-49 3 37 22 261 94 312 99 4 1 1 -12 -8 -29z"></path>
<path class="node" id="node5" d="M1883 1502 c-35 -44 -87 -141 -76 -143 5 -1 13 0 18 1 6 1 25 2 43 2
l32 -1 0 52 c0 29 4 68 10 86 5 19 8 36 6 38 -1 2 -16 -14 -33 -35z"></path>
<path class="node" id="node6" d="M2012 1498 c-36 -36 8 -108 65 -108 61 0 108 71 71 108 -17 17 -53
15 -69 -4 -11 -14 -10 -19 11 -36 20 -16 21 -21 9 -29 -20 -12 -43 -11 -57 3
-15 15 -16 45 0 50 6 2 8 10 4 16 -9 15 -19 15 -34 0z"></path>
<path class="node" id="node7" d="M1937 1260 c-3 -12 -15 -24 -27 -27 -29 -8 -20 -25 19 -36 33 -8 101
7 101 23 0 6 -51 43 -81 58 -4 1 -9 -7 -12 -18z"></path>

</g>
<g transform="translate(0.000000,225.000000) scale(0.100000,-0.100000)" fill="#FFFFFF" stroke="none">

<path class="node" id="node10" d="M1838 2016 c-22 -16 -23 -55 -2 -63 21 -8 44 15 25 26 -18 11 -5 31
19 31 27 0 44 -34 30 -60 -21 -39 -108 -41 -125 -2 -8 19 -15 21 -40 16 -49
-10 -181 -84 -232 -131 l-48 -42 82 34 c81 35 219 75 259 75 46 0 124 31 140
55 15 23 15 27 0 50 -13 19 -25 25 -54 25 -20 0 -45 -7 -54 -14z"></path>
<path class="node" id="node11" d="M1913 1893 c-42 -5 -58 -32 -37 -61 20 -28 42 -28 46 0 2 12 18 33
37 45 37 25 34 26 -46 16z"></path>
<path class="node" id="node12" d="M1788 1867 c-44 -10 -45 -15 -17 -51 30 -38 71 -56 128 -56 39 0 56
6 80 26 17 14 31 34 31 44 0 23 -28 34 -47 18 -13 -10 -13 -13 2 -24 15 -11
14 -14 -7 -28 -12 -9 -31 -16 -41 -16 -34 0 -77 30 -83 58 -3 15 -6 30 -7 33
-1 3 -19 1 -39 -4z"></path>
<path class="node" id="node13" d="M1654 1833 l-51 -15 1 -44 c1 -50 -28 -88 -78 -100 -26 -6 -29 -5
-24 14 7 25 -13 45 -36 36 -22 -9 -20 -51 3 -64 67 -35 207 50 232 142 5 22 9
41 7 43 -2 1 -26 -4 -54 -12z"></path>
<path class="node" id="node14" d="M1510 1774 c-41 -21 -42 -23 -18 -24 15 0 32 -8 37 -17 10 -17 12
-17 26 1 16 21 20 52 8 59 -5 3 -28 -6 -53 -19z"></path>
<path class="node" id="node15" d="M1730 1788 c0 -8 -7 -21 -15 -28 -8 -7 -12 -16 -9 -21 8 -14 40 -10
54 7 11 13 10 19 -8 37 -18 17 -22 18 -22 5z"></path>
<path class="node" id="node16" d="M1899 1733 c-20 -3 -26 -9 -22 -23 5 -18 6 -17 39 2 48 28 47 31 -17
21z"></path>
<path class="node" id="node17" d="M2520 1717 c0 -20 5 -27 20 -27 11 0 20 4 20 8 0 5 -9 17 -20 27 -20
18 -20 17 -20 -8z"></path>
<path class="node" id="node18" d="M1590 1645 c-25 -14 -25 -14 14 -15 33 0 37 2 26 15 -7 8 -13 15 -14
15 0 -1 -12 -7 -26 -15z"></path>
<path class="node" id="node19" d="M1275 1600 c-19 -21 -14 -50 8 -50 21 0 28 12 16 26 -9 10 -7 15 4
20 25 9 39 -6 32 -33 l-6 -25 31 22 c35 25 37 35 11 50 -31 16 -76 12 -96 -10z"></path>
<path class="node" id="node20" d="M2471 1581 c-11 -7 -12 -13 -4 -23 6 -7 12 -22 14 -32 3 -16 9 -12
32 22 l27 42 -27 0 c-16 0 -34 -4 -42 -9z"></path>
<path class="node" id="node21" d="M1118 1426 c-129 -141 -154 -172 -98 -120 65 59 147 125 211 170 l57
40 -34 10 -34 11 -102 -111z"></path>
<path class="node" id="node22" d="M2217 1370 c-10 -22 -32 -48 -48 -57 -37 -22 -37 -33 0 -33 39 0 101
23 152 57 l42 28 -43 7 c-23 4 -50 14 -60 23 -22 20 -22 20 -43 -25z"></path>
<path class="node" id="node23" d="M1970 1353 c0 -16 70 -75 83 -70 23 7 16 25 -14 36 -18 6 -41 19 -51
28 -10 9 -18 11 -18 6z"></path>
<path class="node" id="node24" d="M1425 1318 c22 -11 47 -27 56 -35 14 -12 17 -12 22 4 2 10 8 26 12
36 6 15 0 17 -61 17 l-69 -1 40 -21z"></path>
<path class="node" id="node25" d="M1710 1324 c0 -3 6 -12 14 -19 12 -12 15 -12 20 1 9 23 8 24 -14 24
-11 0 -20 -3 -20 -6z"></path>
<path class="node" id="node26" d="M1259 1238 c0 -2 -3 -14 -5 -27 -9 -52 -40 -86 -107 -120 -82 -42
-182 -55 -193 -26 -5 12 -1 23 11 31 24 18 35 18 35 -1 0 -20 24 -19 40 1 11
12 11 18 -2 30 -29 29 -80 -9 -191 -140 l-41 -48 51 26 c60 30 233 89 316 107
48 10 61 17 69 38 21 57 75 84 120 60 l23 -13 -25 -6 c-16 -4 -25 -13 -25 -25
0 -30 60 -34 75 -5 16 30 4 57 -38 84 -31 20 -110 44 -113 34z"></path>
<path class="node" id="node27" d="M446 1088 c18 -59 34 -114 34 -122 0 -12 7 -14 33 -9 17 3 34 7 36 9
5 5 -89 168 -116 202 -20 24 -18 16 13 -80z"></path>
<path class="node" id="node28" d="M1722 1150 l-23 -29 38 6 c49 8 51 10 27 32 -19 19 -19 18 -42 -9z"></path>
<path class="node" id="node29" d="M1456 1134 c-11 -30 -6 -34 42 -33 44 1 45 1 21 12 -14 7 -33 18 -41
25 -13 10 -17 10 -22 -4z"></path>
<path class="node" id="node30" d="M1076 1104 c-9 -24 -8 -24 22 -12 43 19 48 28 15 28 -19 0 -33 -6
-37 -16z"></path>
<path class="node" id="node31" d="M618 503 c-7 -15 7 -198 14 -187 8 13 28 128 28 167 0 20 -5 27 -19
27 -11 0 -21 -3 -23 -7z"></path>
<path class="node" id="node32" d="M2145 1596 c-13 -9 -16 -19 -10 -32 5 -12 9 -15 12 -6 3 6 13 12 23
12 25 0 36 20 19 31 -19 12 -22 11 -44 -5z"></path>
<path class="node" id="node33" d="M1607 1524 c-65 -16 -221 -69 -246 -84 -11 -7 4 -8 49 -3 36 5 104 8
153 7 79 -1 87 1 87 18 0 10 7 32 15 48 9 17 12 30 8 29 -5 0 -34 -7 -66 -15z"></path>
<path class="node" id="node34" d="M2110 463 c0 -13 29 -38 35 -31 3 3 -4 13 -15 23 -11 10 -20 13 -20
8z"></path>
<path class="node" id="node35" d="M2264 362 c-6 -4 -13 -17 -16 -29 -4 -16 -2 -20 9 -16 7 3 12 8 9 11
-3 2 -1 13 5 23 11 21 10 22 -7 11z"></path>
<path class="node" id="node36" d="M2160 329 c0 -5 5 -7 10 -4 6 3 10 8 10 11 0 2 -4 4 -10 4 -5 0 -10
-5 -10 -11z"></path>
</g>
</svg>