<!--?xml version="1.0" standalone="no"?--><svg version="1.0" xmlns="http://www.w3.org/2000/svg" width="300.000000pt" height="227.000000pt" viewBox="0 0 300.000000 227.000000" preserveAspectRatio="xMidYMid meet">
<metadata>
  <rdf:rdf xmlns:rdf="http://www.w3.org/1999/02/22-rdf-syntax-ns#" xmlns:rdfs="http://www.w3.org/2000/01/rdf-schema#" xmlns:dc="http://purl.org/dc/elements/1.1/">
    <rdf:description dc:title="tropical fish clip art" dc:publisher="Hiox" dc:date="2015-04-28" dc:format="image/svg+xml" dc:language="en">
      <dc:creator>
        <rdf:bag>
          <rdf:li>svgimages.com</rdf:li>
        </rdf:bag>
      </dc:creator>
    </rdf:description>
  </rdf:rdf>
</metadata>
<g transform="translate(0.000000,227.000000) scale(0.100000,-0.100000)" fill="#0B0B0B" stroke="none">
<path d="M1528 2254 c-157 -28 -337 -117 -451 -224 -77 -72 -114 -91 -208
-110 -59 -11 -153 -62 -203 -108 -15 -15 -81 -88 -146 -162 -139 -161 -252
-269 -329 -314 -54 -32 -56 -35 -54 -71 2 -21 -1 -43 -7 -49 -6 -8 1 -16 23
-26 17 -7 26 -15 20 -17 -7 -3 -23 3 -36 12 -13 8 -31 13 -39 10 -9 -4 -18 1
-22 10 -6 18 16 30 38 22 10 -4 13 -1 9 9 -7 20 -50 18 -62 -3 -8 -15 -12 -16
-22 -5 -40 38 -52 -21 -24 -116 22 -73 99 -152 242 -247 84 -57 160 -120 265
-222 81 -79 151 -143 157 -143 5 0 16 -6 23 -14 18 -17 73 -46 90 -46 7 0 38
-30 68 -67 58 -71 209 -202 263 -229 17 -9 39 -22 47 -29 20 -17 157 -73 222
-91 80 -22 261 -29 358 -14 114 18 209 66 251 127 44 63 32 70 -76 48 -222
-47 -405 55 -366 203 9 31 18 43 44 53 113 45 291 198 338 291 34 68 82 124
112 134 74 23 148 66 169 99 34 52 33 53 107 -105 55 -118 168 -233 303 -309
75 -43 109 -51 198 -52 95 0 112 6 108 40 -3 23 -12 29 -78 52 -99 33 -117 44
-135 79 -22 42 -19 73 15 151 37 82 67 197 76 282 9 87 -20 257 -60 349 -35
81 29 151 168 183 114 27 99 57 -32 63 -217 10 -370 -75 -537 -301 -41 -56
-82 -112 -90 -124 -22 -32 -29 -29 -51 19 -25 55 -119 182 -175 234 -24 23
-80 67 -124 99 -102 75 -170 145 -185 191 -27 81 13 164 101 214 41 24 54 25
217 28 94 2 172 7 172 11 0 35 -74 83 -207 134 -171 66 -317 82 -485 51z m366
-33 c113 -30 302 -129 282 -148 -3 -4 -35 -1 -70 5 -168 31 -253 8 -361 -99
-53 -52 -65 -59 -100 -59 -22 -1 -58 -7 -80 -15 -38 -14 -45 -13 -145 19 -58
19 -135 37 -172 41 l-66 7 18 52 c10 28 21 62 24 76 5 21 21 31 104 63 99 38
180 62 262 78 68 12 216 3 304 -20z m-621 -281 c37 -6 104 -22 148 -36 l80
-27 -20 -21 c-37 -39 -92 -150 -111 -220 -41 -158 -51 -350 -21 -428 6 -15 19
-82 30 -150 50 -305 128 -452 267 -503 27 -10 53 -22 57 -26 13 -10 -72 -57
-155 -86 -78 -27 -261 -42 -349 -29 -42 6 -48 11 -86 69 -55 84 -67 110 -93
195 -16 54 -21 90 -18 137 2 36 1 62 -2 57 -3 -4 -23 -29 -45 -56 -45 -57 -89
-78 -153 -74 -44 3 -47 5 -72 53 -14 28 -33 73 -43 102 -9 28 -33 75 -52 103
-34 51 -40 74 -29 116 4 17 13 20 54 20 39 0 70 11 166 60 109 55 122 59 185
59 58 0 71 -4 93 -24 14 -14 26 -35 26 -47 0 -31 -46 -159 -76 -211 -14 -24
-21 -43 -17 -43 26 0 113 194 113 252 0 60 -97 114 -171 95 -20 -5 -20 -3 -14
96 8 128 32 321 45 367 21 71 65 144 108 177 48 36 55 37 155 23z m-589 -168
c-40 -119 -43 -340 -4 -452 12 -36 23 -85 24 -110 l1 -45 -53 -3 c-59 -3 -69
-15 -74 -92 -2 -33 3 -46 30 -73 55 -57 72 -110 70 -223 -2 -89 1 -105 26
-159 15 -33 39 -77 53 -98 14 -20 23 -40 20 -43 -16 -17 -98 45 -232 176 -151
147 -206 194 -345 287 -99 67 -144 116 -169 183 -22 57 -27 100 -13 100 5 0
19 -11 31 -24 27 -29 92 -48 168 -50 39 -1 57 3 61 13 3 10 -3 12 -24 7 -33
-7 -39 -4 -77 42 -43 53 -37 75 30 111 64 35 100 34 88 -2 -16 -50 -16 -92 0
-112 l17 -20 -8 20 c-28 71 11 135 82 135 52 0 74 -25 74 -86 0 -43 -12 -59
-65 -87 -41 -22 -5 -23 40 -2 76 37 73 140 -5 180 -21 11 -31 25 -36 49 -10
58 13 104 102 198 46 48 106 117 135 153 28 36 54 65 59 65 4 0 2 -17 -6 -38z
m1153 -104 c250 -214 319 -286 375 -395 35 -66 42 -73 52 -48 10 27 98 159
138 207 22 26 56 61 77 78 l38 30 21 -58 c40 -108 54 -310 32 -467 -10 -74
-65 -282 -81 -306 -8 -11 -20 -3 -58 38 -47 50 -66 83 -126 218 -39 87 -56 94
-82 38 -21 -44 -59 -71 -134 -97 l-55 -18 -70 42 c-121 73 -145 93 -172 139
-14 25 -40 64 -58 86 -17 22 -46 68 -64 103 -56 108 -53 287 7 407 23 45 51
85 60 85 1 0 47 -37 100 -82z m-301 -1283 c-17 -90 48 -181 150 -211 60 -17
177 -22 262 -10 45 7 51 6 46 -8 -9 -22 -119 -94 -163 -106 -184 -49 -416 -30
-482 41 -31 33 -129 218 -129 243 0 22 35 34 149 52 53 8 110 19 126 23 47 14
48 13 41 -24z" id="node1" class="node"></path>
<path d="M1015 909 c-4 -6 -5 -12 -2 -15 2 -3 7 2 10 11 7 17 1 20 -8 4z" id="node2" class="node"></path>
<path d="M370 1313 c-26 -10 -50 -35 -50 -53 0 -22 44 -70 64 -70 24 0 47 30
40 52 -4 13 -2 18 4 14 16 -10 1 37 -16 52 -17 13 -19 13 -42 5z" id="node3" class="node"></path>
</g>
<g transform="translate(0.000000,227.000000) scale(0.100000,-0.100000)" fill="#FFFFFF" stroke="none">


<path d="M1590 2241 c-82 -16 -163 -40 -262 -78 -83 -32 -99 -42 -104 -63 -3
-14 -14 -48 -24 -76 l-18 -52 66 -7 c37 -4 114 -22 172 -41 100 -32 107 -33
145 -19 22 8 58 14 80 15 35 0 47 7 100 59 108 107 193 130 361 99 35 -6 67
-9 70 -5 20 19 -169 118 -282 148 -88 23 -236 32 -304 20z" id="node6" class="node"></path>
<path d="M1118 1917 c-43 -33 -87 -106 -108 -177 -13 -46 -37 -239 -45 -367
-6 -99 -6 -101 14 -96 74 19 171 -35 171 -95 0 -58 -87 -252 -113 -252 -4 0 3
19 17 43 30 52 76 180 76 211 0 12 -12 33 -26 47 -22 20 -35 24 -93 24 -63 0
-76 -4 -185 -59 -96 -49 -127 -60 -166 -60 -41 0 -50 -3 -54 -20 -11 -42 -5
-65 29 -116 19 -28 43 -75 52 -103 10 -29 29 -74 43 -102 25 -48 28 -50 72
-53 64 -4 108 17 153 74 22 27 42 52 45 56 3 5 4 -21 2 -57 -3 -47 2 -83 18
-137 26 -85 38 -111 93 -195 38 -58 44 -63 86 -69 88 -13 271 2 349 29 83 29
168 76 155 86 -4 4 -30 16 -57 26 -139 51 -217 198 -267 503 -11 68 -24 135
-30 150 -30 78 -20 270 21 428 19 70 74 181 111 220 l20 21 -80 27 c-74 24
-184 45 -238 46 -12 0 -41 -15 -65 -33z m-95 -1012 c-3 -9 -8 -14 -10 -11 -3
3 -2 9 2 15 9 16 15 13 8 -4z" id="node7" class="node"></path>
<path d="M631 1745 c-29 -36 -89 -105 -135 -153 -89 -94 -112 -140 -102 -198
5 -24 15 -38 36 -49 78 -40 81 -143 5 -180 -45 -21 -81 -20 -40 2 53 28 65 44
65 87 0 61 -22 86 -74 86 -71 0 -110 -64 -82 -135 l8 -20 -17 20 c-16 20 -16
62 0 112 12 36 -24 37 -88 2 -67 -36 -73 -58 -30 -111 38 -46 44 -49 77 -42
21 5 27 3 24 -7 -4 -10 -22 -14 -61 -13 -76 2 -141 21 -168 50 -12 13 -26 24
-31 24 -14 0 -9 -43 13 -100 25 -67 70 -116 169 -183 139 -93 194 -140 345
-287 134 -131 216 -193 232 -176 3 3 -6 23 -20 43 -14 21 -38 65 -53 98 -25
54 -28 70 -26 159 2 113 -15 166 -70 223 -27 27 -32 40 -30 73 5 77 15 89 74
92 l53 3 -1 45 c-1 25 -12 74 -24 110 -39 112 -36 333 4 452 8 21 10 38 6 38
-5 0 -31 -29 -59 -65z m-219 -437 c17 -15 32 -62 16 -52 -6 4 -8 -1 -4 -14 7
-22 -16 -52 -40 -52 -20 0 -64 48 -64 70 0 18 24 43 50 53 23 8 25 8 42 -5z" id="node8" class="node"></path>
<path d="M1718 1733 c-59 -67 -93 -200 -86 -328 6 -92 37 -168 102 -250 18
-22 44 -61 58 -86 27 -46 51 -66 172 -139 l70 -42 55 18 c75 26 113 53 134 97
26 56 43 49 82 -38 60 -135 79 -168 126 -218 38 -41 50 -49 58 -38 16 24 71
232 81 306 22 157 8 359 -32 467 l-21 58 -38 -30 c-21 -17 -55 -52 -77 -78
-40 -48 -128 -180 -138 -207 -10 -25 -17 -18 -52 48 -39 75 -123 176 -213 254
-108 95 -259 223 -262 223 -2 0 -11 -8 -19 -17z" id="node9" class="node"></path>


<path d="M1495 409 c-16 -4 -73 -15 -126 -23 -114 -18 -149 -30 -149 -52 0
-25 98 -210 129 -243 66 -71 298 -90 482 -41 44 12 154 84 163 106 5 14 -1 15
-46 8 -85 -12 -202 -7 -262 10 -102 30 -167 121 -150 211 7 37 6 38 -41 24z" id="node12" class="node"></path>
</g>
</svg>