<!--?xml version="1.0" standalone="no"?-->

<svg version="1.0" xmlns="http://www.w3.org/2000/svg" width="300.000000pt" height="131.000000pt" viewBox="0 0 300.000000 131.000000" preserveAspectRatio="xMidYMid meet">
<g transform="translate(0.000000,131.000000) scale(0.100000,-0.100000)" fill="#222222" stroke="none">
<path class="node" id="node1" d="M2290 1296 c-210 -81 -303 -106 -391 -106 -21 0 -39 -4 -39 -10 0
-24 64 -80 103 -91 86 -23 206 17 235 77 8 19 13 36 10 39 -3 3 -38 -5 -78
-19 -64 -21 -70 -25 -52 -35 15 -8 29 -8 48 -1 43 17 41 2 -2 -16 -44 -19
-118 -13 -168 13 l-31 16 110 22 c61 12 133 34 162 49 29 14 55 26 58 26 3 0
5 -13 5 -28 0 -27 15 -52 31 -52 5 0 9 19 11 43 2 34 7 42 23 42 17 0 20 -6
18 -35 -6 -98 -8 -105 -28 -108 -19 -4 -19 -3 -2 10 17 13 17 15 3 27 -13 11
-19 11 -31 1 -8 -7 -15 -19 -15 -27 0 -8 -6 -13 -12 -10 -7 2 -13 14 -12 26 1
31 -13 26 -66 -23 -54 -51 -101 -63 -201 -52 -55 5 -61 4 -93 -25 -47 -41 -62
-86 -42 -133 8 -20 19 -36 25 -36 5 0 31 11 58 25 26 14 78 32 116 41 71 18
82 32 45 58 -35 25 -91 20 -128 -10 -17 -15 -29 -28 -26 -31 9 -9 86 21 86 34
0 10 7 12 23 8 40 -13 40 -23 1 -30 -55 -9 -105 -26 -131 -43 -21 -13 -23 -13
-23 6 0 27 34 67 70 82 19 8 57 11 104 8 70 -5 75 -4 85 19 12 25 51 32 51 8
0 -9 -6 -12 -15 -9 -9 4 -15 0 -15 -10 0 -23 10 -20 76 20 53 32 65 35 116 32
47 -4 65 -10 98 -37 42 -33 70 -35 70 -5 0 11 -6 15 -20 11 -22 -6 -26 3 -8
21 19 19 48 -4 48 -38 0 -34 4 -35 40 -15 40 23 121 19 161 -8 37 -25 43 -44
17 -60 -12 -8 -23 -7 -40 1 -12 7 -15 10 -5 8 12 -4 17 0 17 13 0 33 -37 48
-106 43 -21 -2 -64 -36 -64 -51 0 -5 24 -12 53 -16 28 -4 69 -14 90 -23 33
-13 42 -13 64 -1 15 8 35 28 45 44 10 17 18 25 18 18 0 -6 6 -13 13 -16 7 -2
6 -4 -3 -3 -8 1 -32 -15 -52 -36 -31 -30 -35 -38 -23 -48 19 -16 69 1 125 41
62 45 120 188 91 223 -7 8 -39 17 -72 21 -54 6 -61 5 -78 -16 -17 -21 -17 -26
-5 -44 8 -10 14 -29 14 -41 0 -15 6 -20 23 -20 16 1 22 -4 20 -19 -1 -11 4
-23 10 -28 8 -5 5 -7 -8 -5 -12 2 -19 10 -17 21 4 23 -25 22 -30 0 -2 -10 -7
5 -11 34 -4 29 -12 55 -17 58 -5 3 -30 -1 -55 -10 -80 -27 -168 -16 -224 27
-33 25 -59 23 -63 -4 -4 -31 -35 -36 -34 -6 1 14 -6 24 -18 26 -15 3 -18 0
-13 -18 3 -14 1 -20 -6 -17 -7 2 -12 20 -12 40 0 19 -3 39 -7 43 -14 13 -9 74
6 74 21 0 34 -21 38 -59 3 -34 4 -34 21 -17 10 10 16 25 13 32 -7 18 4 18 51
-1 33 -12 87 -27 187 -50 23 -5 27 -8 15 -16 -19 -12 -146 -12 -154 1 -3 6 3
10 14 10 37 0 22 15 -24 26 -53 12 -62 6 -34 -24 68 -74 240 -78 299 -7 7 8
11 17 9 19 -2 2 -58 13 -124 25 -66 11 -174 38 -240 61 -134 45 -127 44 -175
26z m649 -200 c0 -6 -5 -1 -11 12 -6 12 -17 22 -25 22 -8 0 -11 5 -7 12 8 13
45 -26 43 -46z m-11 -31 c12 -14 22 -31 22 -38 0 -6 -9 2 -20 18 -11 17 -32
33 -47 36 l-28 7 26 1 c16 1 34 -8 47 -24z m-245 -75 c17 -20 16 -20 -10 -14
-53 11 -60 16 -33 24 14 5 25 8 25 9 0 1 8 -8 18 -19z m232 -10 c-3 -5 -12
-10 -18 -10 -7 0 -6 4 3 10 19 12 23 12 15 0z"></path>
<path class="node" id="node2" d="M208 1209 c-55 -5 -94 -15 -140 -37 l-63 -30 70 -1 c86 -1 188 -28
297 -80 115 -54 255 -80 274 -50 11 18 -44 65 -116 98 -57 26 -79 31 -126 29
-65 -3 -79 -19 -35 -38 34 -14 66 -7 55 11 -11 19 66 3 95 -19 46 -34 39 -45
-25 -40 -92 7 -275 91 -259 119 16 25 219 0 328 -41 99 -37 160 -108 107 -125
-11 -3 -20 -11 -20 -16 0 -14 37 -11 70 6 16 8 36 12 44 9 69 -26 -104 -214
-185 -202 -37 5 -33 27 14 73 44 45 77 58 77 31 0 -19 -29 -41 -54 -41 -21 0
-30 -25 -11 -32 18 -6 74 35 89 66 14 27 14 31 0 45 -25 26 -55 19 -88 -20
-17 -20 -53 -59 -79 -86 -60 -61 -57 -78 15 -78 92 0 193 66 262 173 10 15 24
27 31 27 6 0 39 -35 72 -77 33 -43 97 -117 141 -164 l81 -86 -37 -14 c-20 -8
-48 -16 -62 -19 l-25 -6 34 -33 c51 -48 103 -71 176 -78 36 -3 70 -12 76 -19
16 -20 23 -18 47 16 l22 30 -34 14 c-79 33 -92 127 -18 126 11 -1 8 -6 -10
-16 -36 -19 -35 -46 3 -78 41 -35 83 -34 120 3 50 50 41 64 -63 98 -58 19
-105 29 -125 26 -26 -4 -39 2 -77 37 -26 24 -44 45 -41 48 3 3 18 -6 33 -20
32 -30 71 -52 80 -44 3 3 3 7 1 9 -2 1 -32 28 -66 60 -53 49 -65 56 -90 51
-20 -4 -33 -1 -42 10 -9 11 -10 16 -2 16 14 0 14 27 0 36 -6 3 -18 -1 -27 -9
-14 -15 -13 -20 12 -55 14 -21 74 -85 132 -142 87 -85 105 -107 102 -129 -3
-25 -6 -26 -60 -26 -42 0 -62 6 -78 20 -20 18 -20 20 -3 26 26 11 81 11 87 0
4 -5 -3 -7 -15 -4 -17 5 -20 2 -17 -13 5 -26 51 -26 56 -1 3 13 -32 55 -105
130 -126 130 -156 168 -173 220 -6 20 -16 37 -21 37 -6 0 -9 7 -7 16 2 12 -6
17 -26 20 -29 3 -96 50 -103 71 -3 9 5 9 29 1 73 -24 83 -29 69 -38 -16 -9 -2
-15 67 -25 39 -6 60 -25 27 -25 -8 0 -15 -4 -15 -10 0 -8 28 -15 89 -22 31 -4
40 -28 11 -28 -19 0 -20 -2 -10 -15 7 -9 29 -15 54 -15 22 0 47 -4 55 -9 17
-11 6 -31 -17 -31 -15 -1 -15 -2 2 -15 11 -8 39 -15 62 -15 24 0 46 -5 50 -11
8 -13 -16 -30 -29 -22 -5 3 -8 0 -5 -8 3 -10 25 -15 67 -17 43 -2 61 -7 58
-15 -2 -7 -14 -12 -26 -11 -12 0 -20 -4 -18 -10 5 -15 69 -19 112 -7 38 10 65
6 65 -11 0 -6 -7 -8 -15 -5 -21 9 -28 -8 -9 -24 12 -10 19 -9 36 8 27 27 18
51 -24 65 -63 22 -223 107 -261 139 -26 21 -50 57 -73 108 -20 42 -47 89 -62
105 -31 32 -96 65 -130 66 -23 0 -22 -1 7 -26 21 -17 31 -35 31 -53 0 -37 26
-71 55 -71 30 0 41 16 24 36 -10 13 -14 12 -30 -2 -18 -16 -19 -16 -19 4 0 16
6 22 24 22 30 0 49 -22 44 -52 -4 -34 -46 -34 -110 -2 -82 41 -110 63 -103 84
5 14 -3 18 -49 24 -30 3 -95 19 -145 36 -165 54 -310 72 -463 59z m1150 -581
c32 -32 0 -84 -37 -61 -19 12 -27 43 -11 43 6 0 8 -5 4 -11 -8 -14 14 -29 33
-22 19 7 16 40 -4 52 -10 6 -13 11 -7 11 5 0 15 -5 22 -12z"></path>
<path class="node" id="node3" d="M1203 1204 c-34 -8 -28 -24 8 -24 67 0 143 -58 185 -143 14 -27 32
-86 40 -130 7 -45 22 -93 32 -107 25 -33 81 -39 106 -11 41 45 10 178 -50 218
-25 16 -27 16 -41 -3 -25 -33 5 -134 39 -134 14 0 19 6 16 23 -2 14 -9 21 -21
21 -10 -1 -17 5 -17 17 0 30 17 31 40 2 15 -20 20 -38 18 -67 -3 -38 -5 -41
-33 -41 -37 0 -50 23 -65 120 -13 84 -37 140 -75 178 -41 40 -27 41 35 4 63
-37 138 -126 181 -214 51 -101 39 -166 -31 -166 -16 0 -30 -4 -30 -9 0 -13 47
-28 91 -28 73 0 102 33 57 64 -12 9 -18 16 -12 16 23 0 55 -33 52 -53 -5 -33
-45 -49 -111 -43 -71 5 -66 -9 10 -24 101 -21 289 7 328 50 10 11 26 20 37 20
13 0 18 7 18 26 0 24 2 26 34 20 33 -6 35 -5 33 21 -2 24 1 28 22 25 13 -2 28
2 32 10 13 20 11 31 -6 24 -22 -8 -19 20 6 61 32 52 17 49 -26 -4 -21 -27 -59
-69 -84 -95 -25 -26 -56 -60 -69 -77 -35 -46 -80 -50 -150 -15 -62 32 -99 75
-177 206 -63 106 -152 200 -221 234 -53 26 -149 39 -201 28z m450 -440 c-3 -9
0 -20 8 -25 11 -6 8 -9 -8 -9 -25 0 -30 19 -11 38 16 16 19 15 11 -4z"></path>
<path class="node" id="node4" d="M1725 1159 c-25 -63 -24 -153 4 -214 25 -57 67 -105 91 -105 27 0 28
8 7 51 -17 35 -18 48 -10 85 8 33 7 46 -3 54 -14 13 -29 -3 -19 -20 11 -18
-22 -11 -36 8 -13 15 -12 16 4 3 15 -12 17 -11 17 9 0 19 4 22 28 17 22 -5 34
0 56 24 l29 30 -22 23 c-11 12 -21 30 -21 39 0 21 -9 26 -63 33 l-44 6 -18
-43z m110 -19 c3 -5 0 -7 -8 -4 -8 3 -29 -7 -48 -22 l-34 -26 33 31 c34 33 47
37 57 21z m-4 -60 l24 -20 -29 14 c-21 11 -35 12 -50 5 -20 -10 -21 -10 -2 5
25 20 29 20 57 -4z m-94 -57 c-3 -10 -5 -4 -5 12 0 17 2 24 5 18 2 -7 2 -21 0
-30z m53 -53 c7 0 11 -3 7 -6 -10 -10 -45 6 -52 23 -5 15 -4 15 13 0 10 -9 25
-17 32 -17z"></path>
<path class="node" id="node5" d="M2280 1049 c-58 -23 -112 -99 -125 -174 l-6 -40 30 35 c25 29 31 32
31 16 0 -11 12 -32 26 -47 l25 -26 -35 -21 c-28 -17 -36 -28 -36 -51 0 -29 14
-42 38 -34 6 3 12 12 12 20 0 9 -6 13 -15 9 -8 -3 -15 -1 -15 5 0 5 12 14 26
19 63 24 145 0 143 -44 0 -11 -3 -15 -6 -8 -7 19 -35 15 -31 -5 4 -22 47 -30
59 -11 14 21 10 60 -7 79 -15 17 -14 18 20 24 41 8 86 48 86 79 1 17 3 16 15
-9 l13 -30 1 42 c2 105 -76 184 -181 182 -24 0 -54 -5 -68 -10z m72 -21 c1 5
23 3 49 -4 49 -15 109 -67 108 -93 0 -11 -4 -9 -11 7 -6 12 -17 22 -23 22 -7
0 -16 7 -19 16 -4 9 -9 14 -13 11 -3 -4 -12 -2 -20 5 -7 6 -16 8 -20 5 -3 -4
-12 -2 -20 5 -10 8 -17 8 -25 0 -8 -8 -15 -9 -25 -1 -9 9 -13 8 -13 0 0 -7 -6
-11 -12 -10 -20 2 -58 -12 -58 -22 0 -5 -5 -9 -10 -9 -6 0 -23 -12 -37 -27
l-25 -28 18 30 c22 37 39 55 53 55 6 0 11 5 11 10 0 6 7 10 15 10 8 0 15 4 15
10 0 5 7 7 15 4 8 -4 15 -1 15 6 0 10 3 10 14 1 8 -7 16 -8 18 -3z m49 -60
c52 -15 72 -38 60 -70 -10 -28 -27 -43 -58 -52 -19 -6 -22 -3 -20 20 3 34 -24
54 -47 35 -9 -8 -16 -22 -16 -32 0 -21 -1 -22 -25 -13 -45 18 -32 107 17 117
41 8 50 7 89 -5z"></path>
<path class="node" id="node6" d="M2580 908 c0 -13 -7 -36 -15 -52 -9 -16 -13 -36 -10 -43 2 -8 -6 -25
-20 -39 -22 -22 -23 -28 -2 -25 15 2 6 -18 -14 -33 -12 -8 -19 -20 -17 -28 3
-7 2 -22 -3 -34 -6 -18 -4 -20 17 -16 13 2 24 11 24 21 1 17 31 108 42 126 13
21 21 145 9 145 -6 0 -11 -10 -11 -22z"></path>
<path class="node" id="node7" d="M2173 824 c-7 -18 11 -39 26 -30 17 11 13 46 -4 46 -9 0 -18 -7 -22
-16z"></path>
<path class="node" id="node8" d="M2433 774 c-3 -8 -1 -20 6 -27 14 -14 47 15 37 32 -10 16 -36 13 -43
-5z"></path>
<path class="node" id="node9" d="M2029 724 c-9 -11 -8 -18 5 -32 22 -25 20 -64 -4 -94 -19 -25 -19
-26 0 -43 10 -9 37 -19 59 -22 35 -5 44 -2 71 25 16 17 30 35 30 41 0 16 -30
41 -50 41 -18 0 -50 -25 -50 -38 1 -31 48 -42 58 -14 2 8 -2 10 -14 5 -12 -4
-15 -2 -12 8 6 17 40 19 45 2 5 -15 -32 -53 -51 -53 -25 0 -47 30 -40 54 9 33
35 47 79 44 37 -3 40 -5 43 -35 9 -92 -113 -134 -200 -70 -46 34 -63 38 -87
20 -33 -23 -24 -58 14 -58 20 0 30 5 30 15 0 8 -8 14 -17 14 -10 -1 -18 2 -18
7 0 13 44 11 58 -3 29 -29 9 -68 -36 -68 -14 0 -17 -8 -14 -43 3 -37 0 -46
-34 -79 -20 -21 -45 -40 -55 -43 -11 -4 -19 -10 -19 -14 0 -20 114 13 206 59
55 27 121 53 145 56 43 6 45 8 41 35 -5 34 17 47 51 31 l22 -11 -23 0 c-17 -1
-23 -6 -20 -18 4 -23 41 -28 57 -9 10 12 6 22 -23 54 -36 40 -45 65 -26 77 6
3 10 -3 10 -14 0 -14 9 -23 26 -27 27 -7 74 9 74 25 0 6 25 29 55 51 64 47 73
74 23 66 -46 -7 -109 9 -128 33 -13 18 -17 18 -40 6 -39 -22 -118 -18 -177 9
-45 21 -53 23 -64 10z m309 -146 c4 -21 -29 -40 -48 -28 -13 8 -13 11 -1 22
10 10 12 10 7 1 -8 -15 10 -18 19 -3 3 6 -4 15 -17 20 -22 9 -21 10 7 7 19 -1
31 -8 33 -19z m-188 -118 c0 -11 -8 -23 -17 -26 -10 -3 -29 -11 -43 -19 -118
-66 -152 -81 -108 -45 14 10 31 33 38 50 7 16 20 30 29 31 9 0 32 6 51 13 48
19 50 19 50 -4z"></path>
<path class="node" id="node10" d="M1944 675 c-8 -19 3 -35 24 -35 14 -1 15 -2 2 -9 -8 -5 -60 -11 -115
-15 -147 -10 -213 -24 -280 -59 -71 -38 -154 -117 -184 -174 -31 -62 -29 -159
5 -230 14 -30 23 -57 20 -60 -9 -9 -54 25 -73 54 -28 43 -25 174 6 237 48 96
168 192 291 231 75 24 84 35 26 35 -26 0 -67 5 -91 11 -56 14 -89 -1 -82 -37
3 -15 0 -24 -8 -24 -15 0 -122 -120 -152 -170 -68 -113 -68 -250 -1 -341 43
-58 129 -108 112 -65 -3 7 -7 51 -9 97 -2 46 -7 106 -11 132 -16 118 113 262
265 296 23 5 41 7 41 5 0 -1 -28 -17 -62 -33 -136 -66 -218 -157 -218 -244 0
-43 12 -48 28 -12 7 14 32 47 57 74 44 47 50 70 13 50 -10 -6 -28 -25 -39 -42
-18 -28 -20 -29 -14 -7 11 44 75 96 135 110 30 7 81 30 114 51 34 21 103 55
154 75 100 39 136 70 112 99 -16 19 -59 19 -66 0z m-384 -45 c0 -19 -36 -47
-47 -36 -3 3 2 8 11 12 9 3 16 13 16 21 0 10 -6 13 -16 9 -8 -3 -12 -2 -9 4
11 18 45 11 45 -10z"></path>
<path class="node" id="node11" d="M2497 613 c-4 -3 -7 -17 -7 -30 0 -31 29 -42 47 -17 14 18 14 17 11
-11 -2 -24 -8 -31 -31 -33 -35 -4 -57 13 -57 44 0 33 -12 30 -35 -8 -10 -18
-51 -65 -90 -103 -82 -82 -170 -132 -300 -170 -116 -34 -256 -36 -394 -6 -52
12 -96 19 -99 17 -7 -8 53 -34 115 -50 36 -10 101 -16 159 -16 217 1 409 74
543 208 80 80 92 83 119 29 10 -20 10 -32 2 -47 -11 -21 -44 -27 -55 -10 -3 6
-2 10 4 10 16 0 31 34 21 50 -6 10 -14 7 -34 -16 -14 -16 -26 -32 -26 -35 0
-4 25 -37 55 -75 62 -78 73 -114 56 -187 -6 -27 -9 -52 -6 -55 2 -3 20 7 40
22 73 56 104 171 81 303 -18 102 -61 193 -91 193 -12 0 -25 -3 -28 -7z m91
-174 c15 -50 11 -140 -9 -183 l-13 -28 -8 27 c-5 19 -2 35 7 49 32 44 10 135
-28 120 -24 -9 -19 -50 6 -48 24 2 21 -13 -5 -22 -33 -10 -52 21 -31 52 8 13
13 35 11 49 -4 18 0 25 16 28 35 7 40 2 54 -44z"></path>
<path class="node" id="node12" d="M1760 479 c-59 -24 -87 -78 -58 -107 32 -32 129 4 115 42 -9 23 -34
31 -52 16 -20 -17 -19 -30 3 -30 14 0 15 -2 2 -10 -16 -10 -40 5 -40 26 0 19
40 44 71 44 62 0 62 -65 1 -106 -58 -39 -181 -53 -151 -18 6 8 9 21 5 30 -8
20 -45 15 -60 -8 -8 -14 -6 -22 12 -40 32 -33 147 -32 215 1 114 55 117 157 5
167 -24 2 -54 -1 -68 -7z"></path>
<path class="node" id="node13" d="M2101 369 c-56 -25 -113 -60 -108 -65 2 -3 26 6 53 20 37 19 52 22
62 13 10 -8 22 -6 47 7 78 42 30 64 -54 25z"></path>
</g>
<g transform="translate(0.000000,131.000000) scale(0.100000,-0.100000)" fill="#CD74E1" stroke="none">

<path class="node" id="node15" d="M1343 629 c20 -12 23 -45 4 -52 -19 -7 -41 8 -33 22 4 6 2 11 -4 11
-16 0 -8 -31 11 -43 24 -15 49 -1 49 26 0 24 -17 47 -34 47 -6 0 -3 -5 7 -11z"></path>
<path class="node" id="node16" d="M1642 768 c-19 -19 -14 -38 11 -38 16 0 19 3 8 9 -8 5 -11 16 -8 25
8 19 5 20 -11 4z"></path>
<path class="node" id="node17" d="M1778 1119 l-33 -31 34 26 c19 15 40 25 48 22 8 -3 11 -1 8 4 -10 16
-23 12 -57 -21z"></path>
<path class="node" id="node18" d="M1774 1084 c-19 -15 -18 -15 2 -5 15 7 29 6 50 -5 l29 -14 -24 20
c-28 24 -32 24 -57 4z"></path>
<path class="node" id="node19" d="M1732 1035 c0 -16 2 -22 5 -12 2 9 2 23 0 30 -3 6 -5 -1 -5 -18z"></path>
<path class="node" id="node20" d="M1745 987 c7 -17 42 -33 52 -23 4 3 0 6 -7 6 -7 0 -22 8 -32 17 -17
15 -18 15 -13 0z"></path>
<path class="node" id="node21" d="M2320 1030 c0 -7 -7 -10 -15 -6 -8 3 -15 1 -15 -4 0 -6 -7 -10 -15
-10 -8 0 -15 -4 -15 -10 0 -5 -5 -10 -11 -10 -14 0 -31 -18 -53 -55 l-18 -30
25 28 c14 15 31 27 37 27 5 0 10 4 10 9 0 10 38 24 58 22 6 -1 12 3 12 10 0 8
4 9 13 0 10 -8 17 -7 25 1 8 8 15 8 25 0 8 -7 17 -9 20 -5 4 3 13 1 20 -5 8
-7 17 -9 20 -5 4 3 9 -2 13 -11 3 -9 12 -16 19 -16 6 0 17 -10 23 -22 7 -16
11 -18 11 -7 1 26 -59 78 -108 93 -26 7 -48 9 -49 4 -2 -5 -10 -4 -18 3 -11 9
-14 9 -14 -1z"></path>
<path class="node" id="node22" d="M2312 973 c-49 -10 -62 -99 -17 -117 24 -9 25 -8 25 13 0 10 7 24 16
32 23 19 50 -1 47 -35 -2 -23 1 -26 20 -20 31 9 48 24 58 52 12 32 -8 55 -60
70 -39 12 -48 13 -89 5z"></path>
<path class="node" id="node23" d="M2298 590 c13 -5 20 -14 17 -20 -9 -15 -27 -12 -19 3 5 9 3 9 -7 -1
-12 -11 -12 -14 1 -22 19 -12 52 7 48 28 -2 11 -14 18 -33 19 -28 3 -29 2 -7
-7z"></path>
<path class="node" id="node24" d="M2100 464 c-19 -7 -42 -13 -51 -13 -9 -1 -22 -15 -29 -31 -7 -17 -24
-40 -38 -50 -44 -36 -10 -21 108 45 14 8 33 16 43 19 9 3 17 15 17 26 0 23 -2
23 -50 4z"></path>
<path class="node" id="node25" d="M2534 483 c-16 -3 -20 -10 -16 -28 2 -14 -3 -36 -11 -49 -21 -31 -2
-62 31 -52 26 9 29 24 5 22 -25 -2 -30 39 -6 48 38 15 60 -76 28 -120 -9 -14
-12 -30 -7 -49 l8 -27 13 28 c20 43 24 133 9 183 -14 46 -19 51 -54 44z"></path>

<path class="node" id="node27" d="M2896 1142 c-4 -7 -1 -12 7 -12 8 0 19 -10 25 -22 6 -13 11 -18 11
-12 2 20 -35 59 -43 46z"></path>
<path class="node" id="node28" d="M2883 1081 c15 -3 36 -19 47 -36 11 -16 20 -24 20 -18 0 25 -43 63
-69 62 l-26 -1 28 -7z"></path>
<path class="node" id="node29" d="M2640 1000 c-27 -8 -20 -13 33 -24 26 -6 27 -6 10 14 -10 11 -18 20
-18 19 0 -1 -11 -4 -25 -9z"></path>
<path class="node" id="node30" d="M2900 980 c-9 -6 -10 -10 -3 -10 6 0 15 5 18 10 8 12 4 12 -15 0z"></path>
<path class="node" id="node31" d="M1515 640 c-3 -6 1 -7 9 -4 10 4 16 1 16 -9 0 -8 -7 -18 -16 -21 -9
-4 -14 -9 -11 -12 11 -11 47 17 47 36 0 21 -34 28 -45 10z"></path>
</g>
</svg>