<!--?xml version="1.0" standalone="no"?-->

<svg version="1.0" xmlns="http://www.w3.org/2000/svg" width="300.000000pt" height="268.000000pt" viewBox="0 0 300.000000 268.000000" preserveAspectRatio="xMidYMid meet">
<g transform="translate(0.000000,268.000000) scale(0.100000,-0.100000)" fill="#080808" stroke="none">
<path class="node" id="node1" d="M805 2673 c-115 -25 -199 -50 -245 -71 -134 -62 -235 -154 -291 -263
-30 -58 -33 -74 -37 -171 -4 -90 -1 -119 18 -180 42 -140 128 -273 279 -431
38 -39 61 -71 55 -76 -5 -4 -58 -50 -119 -102 -273 -234 -388 -386 -440 -581
-30 -111 -31 -190 -6 -285 24 -95 70 -170 141 -236 54 -51 152 -106 225 -129
58 -18 251 -48 305 -48 93 0 340 37 435 65 248 73 448 218 569 413 14 23 30
42 34 42 4 0 40 -29 79 -65 77 -70 202 -220 250 -300 36 -60 78 -165 87 -217
8 -45 33 -51 41 -10 14 64 82 235 136 342 70 139 179 304 355 540 203 272 259
363 300 484 41 121 27 248 -34 312 -106 111 -346 101 -492 -22 -22 -19 -36
-25 -45 -18 -99 74 -129 83 -235 73 -76 -7 -124 -27 -170 -72 -129 -125 -88
-380 89 -558 73 -73 191 -138 266 -147 54 -6 66 12 23 34 -55 28 -134 101
-174 161 -21 31 -51 95 -67 142 -25 72 -29 96 -25 156 6 83 33 136 82 159 64
30 149 11 183 -41 l16 -24 31 30 c115 111 302 85 330 -46 15 -69 -31 -235
-109 -390 -51 -101 -67 -130 -195 -343 -107 -179 -203 -366 -220 -427 -12 -49
-27 -55 -36 -15 -12 51 -104 223 -160 299 -31 42 -95 116 -141 164 l-84 87 -4
149 c-2 107 -9 167 -23 218 -46 168 -134 315 -187 315 -12 0 -24 -3 -28 -6 -3
-3 10 -36 28 -72 18 -37 41 -89 49 -115 36 -109 61 -367 36 -367 -6 0 -57 37
-113 83 -56 46 -185 145 -287 221 -207 156 -320 245 -320 255 0 3 51 59 113
122 219 225 309 410 294 607 -8 106 -32 165 -93 227 -59 60 -129 96 -231 119
-67 15 -191 20 -238 9z m107 -129 c72 -37 122 -87 152 -153 82 -183 16 -414
-181 -630 l-58 -63 -72 73 c-96 97 -148 168 -190 256 -112 233 -32 499 162
543 51 12 136 0 187 -26z m-46 -1275 c91 -69 148 -110 449 -323 55 -39 105
-74 110 -79 6 -4 49 -37 97 -72 47 -35 89 -69 93 -74 16 -27 -101 -206 -191
-292 -153 -145 -342 -219 -557 -219 -180 0 -319 49 -413 146 -97 99 -124 233
-86 421 40 193 120 339 290 530 64 71 65 72 87 55 12 -9 67 -51 121 -93z"></path>
</g>
<g transform="translate(0.000000,268.000000) scale(0.100000,-0.100000)" fill="#A0A0A0" stroke="none">


<path class="node" id="node4" d="M725 2570 c-194 -44 -274 -310 -162 -543 42 -88 94 -159 190 -256
l72 -73 58 63 c197 216 263 447 181 630 -57 126 -212 208 -339 179z"></path>

<path stroke-width="20" class="node" id="node6" d="M658 1307 c-170 -191 -250 -337 -290 -530 -38 -188 -11 -322 86 -421
94 -97 233 -146 413 -146 215 0 404 74 557 219 90 86 207 265 191 292 -4 5
-46 39 -93 74 -48 35 -91 68 -97 72 -5 5 -55 40 -110 79 -301 213 -358 254
-449 323 -54 42 -109 84 -121 93 -22 17 -23 16 -87 -55z"></path>

</g>
</svg>