<!--?xml version="1.0" standalone="no"?-->

<svg version="1.0" xmlns="http://www.w3.org/2000/svg" width="300.000000pt" height="300.000000pt" viewBox="0 0 300.000000 300.000000" preserveAspectRatio="xMidYMid meet">
<g transform="translate(0.000000,300.000000) scale(0.100000,-0.100000)" fill="#AC181E" stroke="none">
<path class="node" id="node1" d="M1451 2981 c-67 -67 -116 -220 -108 -337 6 -95 31 -187 73 -264 52
-94 57 -98 88 -67 31 31 32 51 7 154 -20 84 -17 146 14 266 20 79 19 146 -4
199 -26 62 -44 75 -70 49z"></path>
<path class="node" id="node2" d="M2143 2980 c-104 -47 -190 -107 -270 -188 -46 -46 -83 -88 -83 -92 0
-5 -16 -35 -35 -68 -46 -76 -103 -212 -111 -263 l-7 -39 55 0 c56 0 122 20
198 59 159 83 273 262 315 492 8 47 15 93 15 102 0 22 -25 21 -77 -3z"></path>
<path class="node" id="node3" d="M810 2768 c-19 -5 -51 -13 -70 -18 -20 -5 -44 -16 -55 -24 -20 -14
-20 -15 2 -38 11 -13 37 -53 57 -90 42 -76 104 -137 168 -165 52 -24 154 -47
298 -69 156 -23 146 -24 142 11 -6 51 -66 179 -113 237 -103 130 -285 196
-429 156z"></path>
<path class="node" id="node4" d="M2094 2400 c-163 -37 -333 -138 -480 -285 l-92 -92 -42 54 c-121 151
-273 230 -460 240 -259 14 -518 -91 -655 -265 -106 -134 -153 -278 -162 -488
-6 -138 10 -357 26 -379 5 -5 12 -32 16 -60 16 -112 105 -345 198 -516 79
-145 84 -153 158 -254 130 -179 222 -259 364 -320 68 -28 75 -29 235 -30 l165
0 61 32 c55 29 113 82 140 129 11 18 12 18 45 -7 88 -65 116 -74 239 -74 105
0 120 2 174 28 184 86 356 258 484 483 29 50 61 113 73 140 23 53 47 109 78
176 25 55 95 275 113 353 21 96 18 447 -6 560 -42 203 -106 339 -211 446 -125
128 -279 171 -461 129z m-66 -707 c78 -62 119 -212 102 -378 -16 -159 -82
-279 -235 -423 -81 -77 -250 -200 -359 -262 -20 -11 -52 -29 -72 -40 -20 -12
-37 -20 -38 -18 -2 2 -11 30 -20 63 -28 94 -72 150 -266 343 -99 99 -180 185
-180 191 0 6 -12 30 -27 53 -25 36 -28 51 -28 123 0 78 2 84 37 138 32 48 48
61 110 91 131 63 288 59 394 -10 30 -18 56 -34 57 -34 2 0 35 25 73 56 62 49
197 124 249 138 11 3 53 4 93 2 63 -3 78 -7 110 -33z"></path>
<path class="node" id="node5" d="M1760 1660 c-8 -5 -42 -21 -74 -37 -33 -16 -84 -53 -117 -85 -52 -52
-89 -73 -89 -49 0 16 -83 66 -139 83 -56 18 -152 24 -164 11 -4 -3 -30 -14
-58 -24 -64 -23 -81 -38 -124 -110 -41 -66 -45 -115 -18 -200 33 -105 79 -162
213 -267 139 -109 203 -187 224 -274 6 -28 29 -37 42 -17 3 6 21 17 38 25 33
15 118 73 230 157 75 56 236 205 236 219 0 4 15 29 33 55 38 53 43 64 63 142
20 73 4 194 -35 266 -21 40 -62 85 -77 85 -6 0 -17 7 -24 15 -14 17 -133 21
-160 5z"></path>
</g>
<g transform="translate(0.000000,300.000000) scale(0.100000,-0.100000)" fill="#FFFFFF" stroke="none">

<path class="node" id="node7" d="M1825 1724 c-52 -14 -187 -89 -249 -138 -38 -31 -71 -56 -73 -56 -1
0 -27 16 -57 34 -106 69 -263 73 -394 10 -62 -30 -78 -43 -110 -91 -35 -54
-37 -60 -37 -138 0 -72 3 -87 28 -123 15 -23 27 -47 27 -53 0 -6 81 -92 180
-191 194 -193 238 -249 266 -343 9 -33 18 -61 20 -63 1 -2 18 6 38 18 20 11
52 29 72 40 109 62 278 185 359 262 153 144 219 264 235 423 17 166 -24 316
-102 378 -32 26 -47 30 -110 33 -40 2 -82 1 -93 -2z m95 -69 c7 -8 18 -15 24
-15 15 0 56 -45 77 -85 39 -72 55 -193 35 -266 -20 -78 -25 -89 -63 -142 -18
-26 -33 -51 -33 -55 0 -14 -161 -163 -236 -219 -112 -84 -197 -142 -230 -157
-17 -8 -35 -19 -38 -25 -13 -20 -36 -11 -42 17 -21 87 -85 165 -224 274 -134
105 -180 162 -213 267 -27 85 -23 134 18 200 43 72 60 87 124 110 28 10 54 21
58 24 12 13 108 7 164 -11 56 -17 139 -67 139 -83 0 -24 37 -3 89 49 33 32 84
69 117 85 32 16 66 32 74 37 27 16 146 12 160 -5z"></path>
</g>
</svg>