<!--?xml version="1.0" standalone="no"?-->

<svg version="1.0" xmlns="http://www.w3.org/2000/svg" width="288.000000pt" height="300.000000pt" viewBox="0 0 288.000000 300.000000" preserveAspectRatio="xMidYMid meet">
<g transform="translate(0.000000,300.000000) scale(0.100000,-0.100000)" fill="#414141" stroke="none">
<path d="M1193 2695 c-13 -9 -28 -33 -34 -54 -10 -34 -8 -50 15 -124 36 -115
58 -137 134 -137 68 0 147 24 181 54 34 31 43 62 31 106 -13 50 -55 80 -109
80 -31 0 -43 5 -48 18 -3 9 -17 29 -31 45 -21 22 -34 27 -72 27 -25 0 -55 -7
-67 -15z m135 -67 l24 -47 44 6 c38 5 49 2 69 -17 30 -29 34 -89 8 -112 -40
-36 -158 -58 -218 -42 -33 8 -70 128 -66 211 2 36 29 54 75 51 38 -3 43 -7 64
-50z" id="node1" class="node" stroke-width="20"></path>
<path d="M2154 2533 c-12 -2 -32 -15 -44 -28 -19 -20 -21 -32 -17 -77 5 -63
30 -153 48 -175 11 -12 30 -14 100 -11 73 3 93 8 127 31 48 31 60 69 38 120
-17 41 -41 57 -88 57 -27 0 -37 7 -56 36 -20 30 -60 57 -80 53 -4 -1 -17 -4
-28 -6z m69 -36 c10 -6 21 -26 25 -42 8 -28 12 -30 56 -30 38 0 52 -5 67 -24
26 -32 24 -73 -6 -101 -21 -20 -38 -24 -108 -28 l-84 -4 -20 33 c-43 74 -50
168 -15 197 20 16 63 16 85 -1z" id="node2" class="node" stroke-width="20"></path>
<path d="M1830 2350 c-113 -28 -388 -89 -495 -110 -33 -6 -87 -18 -120 -25
-33 -8 -120 -28 -194 -45 -73 -17 -143 -38 -156 -46 -43 -28 -45 -45 -45 -470
l0 -405 -22 6 c-13 3 -59 17 -103 30 -44 13 -113 33 -152 44 -56 17 -73 26
-73 40 0 10 -14 35 -30 56 -17 21 -30 45 -30 54 0 9 -9 31 -20 49 -15 25 -27
32 -50 32 -31 0 -80 -37 -80 -60 0 -8 -6 -8 -21 0 -11 6 -39 12 -61 12 -53 1
-81 -31 -73 -79 5 -26 2 -33 -10 -33 -24 0 -65 -46 -65 -73 0 -13 9 -36 20
-50 19 -23 19 -27 4 -62 -14 -33 -14 -39 1 -61 26 -41 57 -49 128 -36 34 6 81
11 105 11 56 0 108 17 126 43 16 23 22 23 281 -25 l120 -22 5 -275 c4 -245 7
-279 24 -310 45 -84 75 -108 149 -120 55 -9 88 -4 327 49 52 12 133 30 180 40
47 10 139 31 205 46 123 28 223 50 355 79 41 9 79 21 84 26 6 6 11 138 12 328
1 174 2 319 3 322 0 3 73 41 161 85 147 72 161 77 177 63 30 -27 78 -31 140
-13 59 17 91 23 131 24 29 1 82 52 82 80 0 11 -11 32 -23 47 -22 25 -23 30
-11 53 19 36 18 45 -12 80 -19 23 -34 31 -59 31 -27 0 -32 3 -28 18 6 25 -34
72 -61 72 -13 0 -40 -11 -60 -25 l-36 -24 -24 24 c-28 28 -72 33 -100 12 -13
-9 -20 -33 -25 -78 -4 -35 -11 -70 -15 -78 -5 -8 -9 -28 -8 -45 1 -29 -6 -36
-111 -103 l-112 -72 -5 323 -5 324 -24 26 c-14 15 -36 26 -50 26 -36 0 -103
82 -95 116 7 26 -41 94 -66 93 -8 0 -49 -9 -90 -19z m105 -29 c8 -14 -3 -17
-365 -101 -47 -11 -119 -26 -160 -35 -41 -8 -115 -24 -165 -35 -49 -11 -132
-29 -183 -40 -52 -11 -109 -27 -128 -36 -30 -14 -34 -21 -34 -53 0 -28 9 -48
36 -79 34 -40 38 -42 93 -42 32 0 91 8 132 19 120 30 160 35 154 19 -7 -19
-47 -31 -186 -59 -116 -23 -117 -23 -159 -4 -63 29 -115 111 -108 170 4 38 41
62 123 80 39 8 111 24 160 35 86 19 126 29 345 80 80 19 165 38 289 66 13 3
40 9 60 13 50 12 89 13 96 2z m5 -50 c0 -9 -28 -17 -175 -51 -49 -12 -135 -32
-190 -45 -148 -35 -183 -43 -291 -65 -55 -11 -154 -33 -221 -48 -68 -16 -123
-27 -123 -26 0 10 64 33 120 43 36 7 128 28 205 46 178 43 284 67 410 94 55
12 134 30 175 40 41 10 78 19 83 20 4 0 7 -3 7 -8z m10 -41 c0 -5 -10 -10 -22
-9 -22 0 -22 1 -3 9 11 5 21 9 23 9 1 1 2 -3 2 -9z m-105 -30 c-16 -4 -41 -8
-55 -8 -22 0 -22 1 5 8 17 4 41 8 55 8 22 0 22 -1 -5 -8z m133 4 c-3 -3 -37
-12 -75 -21 -111 -24 -222 -50 -313 -73 -72 -17 -268 -60 -278 -60 -2 0 0 5 3
10 3 6 16 10 28 11 20 1 20 2 -3 8 -41 11 -25 17 244 77 122 27 130 28 122 15
-4 -5 -30 -12 -59 -17 -28 -4 -46 -9 -39 -12 15 -5 201 27 217 37 18 11 163
35 153 25z m-225 -21 c-7 -2 -19 -2 -25 0 -7 3 -2 5 12 5 14 0 19 -2 13 -5z
m244 -9 c-6 -6 -97 -27 -257 -59 -41 -9 -84 -20 -95 -24 -11 -5 -58 -17 -105
-26 -47 -9 -137 -28 -200 -41 -63 -14 -149 -32 -190 -40 -41 -8 -83 -19 -92
-24 -10 -6 -30 -10 -45 -9 l-28 0 25 10 c14 6 59 17 100 25 41 8 138 29 215
48 161 40 286 69 400 92 44 9 116 24 160 34 86 19 122 24 112 14z m-14 -31
c-7 -2 -19 -2 -25 0 -7 3 -2 5 12 5 14 0 19 -2 13 -5z m-70 -20 c-7 -2 -19 -2
-25 0 -7 3 -2 5 12 5 14 0 19 -2 13 -5z m-56 -9 c-3 -3 -12 -4 -19 -1 -8 3 -5
6 6 6 11 1 17 -2 13 -5z m248 -4 c11 -18 -221 -68 -238 -51 -14 14 -15 14 83
38 94 24 146 28 155 13z m-822 -37 c-7 -2 -21 -2 -30 0 -10 3 -4 5 12 5 17 0
24 -2 18 -5z m404 1 c-3 -3 -12 -4 -19 -1 -8 3 -5 6 6 6 11 1 17 -2 13 -5z
m-464 -11 c-7 -2 -19 -2 -25 0 -7 3 -2 5 12 5 14 0 19 -2 13 -5z m387 -8 c-42
-16 -80 -19 -80 -6 0 10 34 17 85 19 l30 0 -35 -13z m220 -5 c18 -13 37 -42
49 -76 33 -87 32 -89 -56 -108 -43 -10 -132 -31 -198 -47 -179 -45 -306 -70
-317 -63 -17 11 -1 121 24 172 45 90 136 126 203 81 19 -13 42 -41 51 -62 10
-21 21 -40 25 -43 4 -2 15 17 24 43 36 108 124 154 195 103z m-544 -2 c-10 -6
-60 -19 -110 -29 -50 -10 -119 -25 -153 -33 -35 -7 -63 -11 -63 -7 0 5 302 77
335 80 6 0 1 -5 -9 -11z m825 -285 c1 -164 2 -470 3 -681 1 -223 -2 -386 -7
-389 -16 -10 -149 -43 -215 -53 -35 -6 -100 -19 -145 -29 -119 -29 -241 -56
-422 -96 -88 -19 -178 -39 -200 -45 -22 -5 -54 -10 -72 -10 l-32 0 2 682 2
683 30 3 c17 1 69 12 116 22 117 27 112 28 105 -23 -15 -96 63 -246 135 -262
57 -13 112 3 153 43 21 20 42 47 47 60 l9 24 40 -36 c53 -48 109 -52 164 -13
47 33 63 56 86 121 24 71 26 138 5 196 -8 24 -13 46 -10 49 5 5 160 44 198 50
4 0 8 -133 8 -296z m-1008 270 c-7 -2 -19 -2 -25 0 -7 3 -2 5 12 5 14 0 19 -2
13 -5z m-60 -10 c-7 -2 -19 -2 -25 0 -7 3 -2 5 12 5 14 0 19 -2 13 -5z m587
-14 c-7 -13 -19 -19 -32 -17 -32 5 -33 26 -1 31 15 2 32 5 36 6 4 0 3 -8 -3
-20z m-633 5 c-3 -3 -12 -4 -19 -1 -8 3 -5 6 6 6 11 1 17 -2 13 -5z m358 -14
c-3 -5 -16 -10 -28 -10 -18 0 -19 2 -7 10 20 13 43 13 35 0z m-72 -17 c-7 -2
-21 -2 -30 0 -10 3 -4 5 12 5 17 0 24 -2 18 -5z m-60 -10 c-7 -2 -19 -2 -25 0
-7 3 -2 5 12 5 14 0 19 -2 13 -5z m-66 -19 c-3 -3 -12 -4 -19 -1 -8 3 -5 6 6
6 11 1 17 -2 13 -5z m-54 -11 c-7 -2 -19 -2 -25 0 -7 3 -2 5 12 5 14 0 19 -2
13 -5z m-163 -94 c39 -22 40 -24 40 -81 0 -50 -2 -57 -17 -51 -54 19 -93 82
-93 150 0 45 1 46 15 26 9 -12 33 -32 55 -44z m960 -13 c0 -63 -55 -156 -106
-181 -61 -29 -114 -3 -154 75 l-22 43 -18 -53 c-38 -113 -136 -168 -210 -118
-32 22 -79 89 -80 114 0 6 34 18 76 27 60 13 79 14 95 4 17 -10 23 -9 37 9 12
16 40 27 100 38 77 16 84 16 99 0 16 -15 18 -15 36 7 11 14 43 31 76 40 75 22
71 22 71 -5z m620 -28 c17 -18 21 -33 19 -73 -2 -28 3 -60 10 -74 8 -14 10
-37 7 -60 -6 -34 -5 -35 9 -17 19 25 19 66 -1 94 -8 12 -12 27 -8 34 4 7 8 23
9 36 1 36 50 74 89 70 27 -3 31 -7 34 -34 3 -26 -4 -39 -34 -68 -35 -34 -38
-35 -56 -20 -26 24 -23 14 18 -52 19 -33 38 -72 41 -89 7 -29 7 -29 13 -6 4
18 17 28 52 39 43 13 50 13 73 -2 50 -33 16 -86 -56 -86 -20 0 -62 -9 -94 -20
-74 -25 -106 -25 -139 1 l-26 20 -152 -75 c-83 -42 -158 -76 -165 -76 -8 0
-13 13 -13 35 0 33 4 37 135 122 131 85 135 89 129 118 -3 18 1 42 10 60 9 17
16 47 16 68 0 24 7 44 20 57 26 26 34 25 60 -2z m-1570 -108 l30 -12 0 -544
c0 -491 -2 -544 -16 -544 -20 0 -50 34 -74 85 -17 35 -20 63 -20 233 0 183 1
192 19 192 19 0 38 17 29 25 -4 5 -139 30 -338 65 -69 11 -135 23 -148 26 -16
3 -25 -2 -33 -20 -15 -32 -49 -46 -114 -46 -29 0 -76 -5 -104 -12 -68 -15
-101 -1 -101 42 0 36 27 50 92 50 31 0 41 -4 45 -20 9 -33 23 -12 23 33 0 24
6 66 14 95 14 54 11 63 -8 36 -16 -21 -57 -10 -91 26 -37 39 -28 70 21 70 67
0 109 -53 104 -133 -2 -43 21 -77 53 -77 18 0 18 2 -7 25 -29 27 -34 56 -11
75 14 12 14 15 0 30 -25 28 -37 74 -26 103 9 22 17 27 45 27 33 0 36 -3 48
-44 7 -25 23 -56 36 -71 12 -14 25 -39 29 -55 6 -33 19 -38 326 -125 70 -19
134 -38 142 -41 33 -13 12 18 -22 32 l-36 16 6 171 c4 95 7 214 7 265 l0 94
25 -30 c13 -16 38 -35 55 -42z m1835 10 c28 -31 7 -63 -60 -95 -54 -25 -57
-26 -70 -8 -22 29 -28 66 -12 74 7 5 25 17 38 28 31 26 81 27 104 1z m-2604
-352 c38 -11 39 -13 39 -55 l0 -43 -40 0 c-49 0 -108 23 -116 45 -4 9 -2 27 4
41 13 28 49 32 113 12z m788 -779 c8 -3 11 -23 9 -63 l-3 -59 -33 28 c-43 36
-72 94 -72 143 l0 40 43 -43 c24 -23 49 -44 56 -46z" id="node3" class="node" stroke-width="20"></path>
<path d="M1510 2123 c-41 -8 -82 -17 -90 -20 -8 -3 -21 -7 -28 -9 -8 -1 -17
-6 -20 -10 -4 -4 7 -4 23 0 17 4 64 14 105 22 41 9 79 20 85 25 5 5 7 8 5 8
-3 -1 -39 -8 -80 -16z" id="node4" class="node" stroke-width="20"></path>
<path d="M1934 1539 c-3 -6 -1 -15 7 -20 14 -8 9 -16 -55 -86 -91 -100 -288
-138 -482 -94 -93 21 -208 77 -200 98 7 16 -16 17 -32 1 -17 -17 -15 -41 3
-35 8 4 52 -14 97 -38 83 -43 200 -75 276 -75 67 0 197 33 262 67 40 20 85 55
118 91 43 46 54 54 62 42 8 -12 10 -11 10 7 0 12 -10 29 -22 37 -27 19 -35 20
-44 5z" id="node5" class="node" stroke-width="20"></path>
<path d="M651 2328 c-26 -7 -36 -18 -49 -49 -13 -33 -20 -39 -44 -39 -40 0
-88 -48 -88 -88 0 -68 68 -105 185 -100 l70 3 25 50 c33 67 40 161 14 193 -24
29 -70 41 -113 30z m85 -43 c21 -32 15 -105 -12 -161 -18 -37 -22 -39 -69 -42
-68 -4 -134 15 -147 44 -24 52 20 100 82 88 28 -6 30 -5 30 25 0 65 82 98 116
46z" id="node6" class="node" stroke-width="20"></path>
























</g>
<g transform="translate(0.000000,300.000000) scale(0.100000,-0.100000)" fill="#FFFFFF" stroke="none">

<path d="M1206 2665 c-27 -27 -24 -94 7 -182 15 -43 28 -63 42 -67 60 -16 178
6 218 42 26 23 22 83 -8 112 -20 19 -31 22 -69 17 l-44 -6 -24 47 c-21 43 -26
47 -64 50 -28 2 -47 -2 -58 -13z" id="node32" class="node" stroke-width="20"></path>
<path d="M2138 2498 c-35 -29 -28 -123 15 -197 l20 -33 84 4 c70 4 87 8 108
28 30 28 32 69 6 101 -15 19 -29 24 -67 24 -44 0 -48 2 -56 30 -4 16 -15 36
-25 42 -22 17 -65 17 -85 1z" id="node33" class="node" stroke-width="20"></path>
<path d="M1839 2319 c-20 -4 -47 -10 -60 -13 -124 -28 -209 -47 -289 -66 -219
-51 -259 -61 -345 -80 -49 -11 -121 -27 -160 -35 -82 -18 -119 -42 -123 -80
-7 -59 45 -141 108 -170 42 -19 43 -19 159 4 139 28 179 40 186 59 6 16 -34
11 -154 -19 -41 -11 -100 -19 -132 -19 -55 0 -59 2 -93 42 -27 31 -36 51 -36
79 0 32 4 39 34 53 19 9 76 25 128 36 51 11 134 29 183 40 50 11 124 27 165
35 41 9 113 24 160 35 362 84 373 87 365 101 -7 11 -46 10 -96 -2z" id="node34" class="node" stroke-width="20"></path>
<path d="M1850 2259 c-41 -10 -120 -28 -175 -40 -126 -27 -232 -51 -410 -94
-77 -18 -169 -39 -205 -46 -56 -10 -120 -33 -120 -43 0 -1 55 10 123 26 67 15
166 37 221 48 108 22 143 30 291 65 55 13 141 33 190 45 147 34 175 42 175 51
0 5 -3 8 -7 8 -5 -1 -42 -10 -83 -20z" id="node35" class="node" stroke-width="20"></path>
<path d="M1925 2230 c-19 -8 -19 -9 3 -9 12 -1 22 4 22 9 0 6 -1 10 -2 9 -2 0
-12 -4 -23 -9z" id="node36" class="node" stroke-width="20"></path>
<path d="M1795 2200 c-27 -7 -27 -8 -5 -8 14 0 39 4 55 8 27 7 27 8 5 8 -14 0
-38 -4 -55 -8z" id="node37" class="node" stroke-width="20"></path>
<path d="M1895 2196 c-33 -6 -64 -14 -70 -17 -16 -10 -202 -42 -217 -37 -7 3
11 8 39 12 29 5 55 12 59 17 8 13 0 12 -122 -15 -269 -60 -285 -66 -244 -77
23 -6 23 -7 3 -8 -12 -1 -25 -5 -28 -11 -3 -5 -5 -10 -3 -10 10 0 206 43 278
60 91 23 202 49 313 73 38 9 72 18 75 21 7 7 -7 6 -83 -8z m-310 -65 c-6 -5
-44 -16 -85 -25 -41 -8 -88 -18 -105 -22 -16 -4 -27 -4 -23 0 3 4 12 9 20 10
7 2 20 6 28 9 8 3 49 12 90 20 41 8 77 15 80 16 2 0 0 -3 -5 -8z" id="node38" class="node" stroke-width="20"></path>
<path d="M1728 2183 c6 -2 18 -2 25 0 6 3 1 5 -13 5 -14 0 -19 -2 -12 -5z" id="node39" class="node" stroke-width="20"></path>
<path d="M1885 2160 c-44 -10 -116 -25 -160 -34 -114 -23 -239 -52 -400 -92
-77 -19 -174 -40 -215 -48 -41 -8 -86 -19 -100 -25 l-25 -10 28 0 c15 -1 35 3
45 9 9 5 51 16 92 24 41 8 127 26 190 40 63 13 153 32 200 41 47 9 94 21 105
26 11 4 54 15 95 24 160 32 251 53 257 59 10 10 -26 5 -112 -14z" id="node40" class="node" stroke-width="20"></path>
<path d="M1958 2143 c6 -2 18 -2 25 0 6 3 1 5 -13 5 -14 0 -19 -2 -12 -5z" id="node41" class="node" stroke-width="20"></path>
<path d="M1888 2123 c6 -2 18 -2 25 0 6 3 1 5 -13 5 -14 0 -19 -2 -12 -5z" id="node42" class="node" stroke-width="20"></path>
<path d="M1838 2113 c7 -3 16 -2 19 1 4 3 -2 6 -13 5 -11 0 -14 -3 -6 -6z" id="node43" class="node" stroke-width="20"></path>
<path d="M1950 2097 c-98 -24 -97 -24 -83 -38 17 -17 249 33 238 51 -9 15 -61
11 -155 -13z" id="node44" class="node" stroke-width="20"></path>
<path d="M1253 2073 c9 -2 23 -2 30 0 6 3 -1 5 -18 5 -16 0 -22 -2 -12 -5z" id="node45" class="node" stroke-width="20"></path>
<path d="M1668 2073 c7 -3 16 -2 19 1 4 3 -2 6 -13 5 -11 0 -14 -3 -6 -6z" id="node46" class="node" stroke-width="20"></path>
<path d="M1198 2063 c6 -2 18 -2 25 0 6 3 1 5 -13 5 -14 0 -19 -2 -12 -5z" id="node47" class="node" stroke-width="20"></path>
<path d="M1558 2063 c-16 -2 -28 -9 -28 -14 0 -13 38 -10 80 6 l35 13 -30 0
c-16 -1 -42 -3 -57 -5z" id="node48" class="node" stroke-width="20"></path>
<path d="M1710 2053 c-39 -27 -58 -54 -75 -106 -9 -26 -20 -45 -24 -43 -4 3
-15 22 -25 43 -9 21 -32 49 -51 62 -67 45 -158 9 -203 -81 -25 -51 -41 -161
-24 -172 11 -7 138 18 317 63 66 16 155 37 198 47 88 19 89 21 56 108 -23 64
-61 96 -111 96 -18 0 -45 -8 -58 -17z" id="node49" class="node" stroke-width="20"></path>
<path d="M1123 2021 c-90 -20 -163 -39 -163 -42 0 -4 28 0 63 7 34 8 103 23
153 33 50 10 100 23 110 29 26 15 21 15 -163 -27z" id="node50" class="node" stroke-width="20"></path>
<path d="M2003 2036 c-50 -11 -94 -24 -98 -27 -3 -3 2 -25 10 -49 21 -58 19
-125 -5 -196 -23 -65 -39 -88 -86 -121 -55 -39 -111 -35 -164 13 l-40 36 -9
-24 c-5 -13 -26 -40 -47 -60 -41 -40 -96 -56 -153 -43 -72 16 -150 166 -135
262 7 51 12 50 -105 23 -47 -10 -99 -21 -116 -22 l-30 -3 -2 -683 -2 -682 32
0 c18 0 50 5 72 10 22 6 112 26 200 45 181 40 303 67 422 96 45 10 110 23 145
29 66 10 199 43 215 53 5 3 8 166 7 389 -1 211 -2 517 -3 681 0 163 -4 296 -8
296 -5 -1 -49 -11 -100 -23z m-25 -502 c12 -8 22 -25 22 -37 0 -18 -2 -19 -10
-7 -8 12 -19 4 -62 -42 -33 -36 -78 -71 -118 -91 -65 -34 -195 -67 -262 -67
-76 0 -193 32 -276 75 -45 24 -89 42 -97 38 -18 -6 -20 18 -3 35 16 16 39 15
32 -1 -8 -21 107 -77 200 -98 194 -44 391 -6 482 94 64 70 69 78 55 86 -8 5
-10 14 -7 20 9 15 17 14 44 -5z" id="node51" class="node" stroke-width="20"></path>
<path d="M1078 2033 c6 -2 18 -2 25 0 6 3 1 5 -13 5 -14 0 -19 -2 -12 -5z" id="node52" class="node" stroke-width="20"></path>
<path d="M1018 2023 c6 -2 18 -2 25 0 6 3 1 5 -13 5 -14 0 -19 -2 -12 -5z" id="node53" class="node" stroke-width="20"></path>
<path d="M1597 2023 c-32 -5 -31 -26 1 -31 13 -2 25 4 32 17 6 12 7 20 3 20
-4 -1 -21 -4 -36 -6z" id="node54" class="node" stroke-width="20"></path>
<path d="M978 2013 c7 -3 16 -2 19 1 4 3 -2 6 -13 5 -11 0 -14 -3 -6 -6z" id="node55" class="node" stroke-width="20"></path>
<path d="M1320 2000 c-12 -8 -11 -10 7 -10 12 0 25 5 28 10 8 13 -15 13 -35 0z" id="node56" class="node" stroke-width="20"></path>
<path d="M1253 1983 c9 -2 23 -2 30 0 6 3 -1 5 -18 5 -16 0 -22 -2 -12 -5z" id="node57" class="node" stroke-width="20"></path>
<path d="M1198 1973 c6 -2 18 -2 25 0 6 3 1 5 -13 5 -14 0 -19 -2 -12 -5z" id="node58" class="node" stroke-width="20"></path>
<path d="M1138 1953 c7 -3 16 -2 19 1 4 3 -2 6 -13 5 -11 0 -14 -3 -6 -6z" id="node59" class="node" stroke-width="20"></path>
<path d="M1078 1943 c6 -2 18 -2 25 0 6 3 1 5 -13 5 -14 0 -19 -2 -12 -5z" id="node60" class="node" stroke-width="20"></path>
<path d="M870 1867 c0 -68 39 -131 93 -150 15 -6 17 1 17 51 0 57 -1 59 -40
81 -22 12 -46 32 -55 44 -14 20 -15 19 -15 -26z" id="node61" class="node" stroke-width="20"></path>
<path d="M1829 1841 c-33 -9 -65 -26 -76 -40 -18 -22 -20 -22 -36 -7 -15 16
-22 16 -99 0 -60 -11 -88 -22 -100 -38 -14 -18 -20 -19 -37 -9 -16 10 -35 9
-95 -4 -42 -9 -76 -21 -76 -27 1 -25 48 -92 80 -114 74 -50 172 5 210 118 l18
53 22 -43 c40 -78 93 -104 154 -75 51 25 106 118 106 181 0 27 4 27 -71 5z" id="node62" class="node" stroke-width="20"></path>
<path d="M2460 1810 c-13 -13 -20 -33 -20 -57 0 -21 -7 -51 -16 -68 -9 -18
-13 -42 -10 -60 6 -29 2 -33 -129 -118 -131 -85 -135 -89 -135 -122 0 -22 5
-35 13 -35 7 0 82 34 165 76 l152 75 26 -20 c33 -26 65 -26 139 -1 32 11 74
20 94 20 72 0 106 53 56 86 -23 15 -30 15 -73 2 -35 -11 -48 -21 -52 -39 -6
-23 -6 -23 -13 6 -3 17 -22 56 -41 89 -41 66 -44 76 -18 52 18 -15 21 -14 56
20 30 29 37 42 34 68 -3 27 -7 31 -34 34 -39 4 -88 -34 -89 -70 -1 -13 -5 -29
-9 -36 -4 -7 0 -22 8 -34 20 -28 20 -69 1 -94 -14 -18 -15 -17 -9 17 3 23 1
46 -7 60 -7 14 -12 46 -10 74 2 40 -2 55 -19 73 -26 27 -34 28 -60 2z" id="node63" class="node" stroke-width="20"></path>
<path d="M870 1678 c0 -51 -3 -170 -7 -265 l-6 -171 36 -16 c34 -14 55 -45 22
-32 -8 3 -72 22 -142 41 -307 87 -320 92 -326 125 -4 16 -17 41 -29 55 -13 15
-29 46 -36 71 -12 41 -15 44 -48 44 -28 0 -36 -5 -45 -27 -11 -29 1 -75 26
-103 14 -15 14 -18 0 -30 -23 -19 -18 -48 11 -75 25 -23 25 -25 7 -25 -32 0
-55 34 -53 77 5 80 -37 133 -104 133 -49 0 -58 -31 -21 -70 34 -36 75 -47 91
-26 19 27 22 18 8 -36 -8 -29 -14 -71 -14 -95 0 -45 -14 -66 -23 -33 -4 16
-14 20 -45 20 -65 0 -92 -14 -92 -50 0 -43 33 -57 101 -42 28 7 75 12 104 12
65 0 99 14 114 46 8 18 17 23 33 20 13 -3 79 -15 148 -26 199 -35 334 -60 338
-65 9 -8 -10 -25 -29 -25 -18 0 -19 -9 -19 -192 0 -170 3 -198 20 -233 24 -51
54 -85 74 -85 14 0 16 53 16 544 l0 544 -30 12 c-17 7 -42 26 -55 42 l-25 30
0 -94z" id="node64" class="node" stroke-width="20"></path>
<path d="M2681 1709 c-13 -11 -31 -23 -38 -28 -16 -8 -10 -45 12 -74 13 -18
16 -17 70 8 67 32 88 64 60 95 -23 26 -73 25 -104 -1z" id="node65" class="node" stroke-width="20"></path>
<path d="M68 1346 c-6 -14 -8 -32 -4 -41 8 -22 67 -45 116 -45 l40 0 0 43 c0
42 -1 44 -39 55 -64 20 -100 16 -113 -12z" id="node66" class="node" stroke-width="20"></path>
<path d="M870 628 c0 -49 29 -107 72 -143 l33 -28 3 59 c2 40 -1 60 -9 63 -7
2 -32 23 -56 46 l-43 43 0 -40z" id="node67" class="node" stroke-width="20"></path>
<path d="M640 2290 c-11 -11 -20 -33 -20 -51 0 -30 -2 -31 -30 -25 -62 12
-106 -36 -82 -88 13 -29 79 -48 147 -44 47 3 51 5 69 42 27 56 33 129 12 161
-20 31 -67 34 -96 5z" id="node68" class="node" stroke-width="20"></path>




</g>
</svg>