<!--?xml version="1.0" standalone="no"?--><svg version="1.0" xmlns="http://www.w3.org/2000/svg" width="300.000000pt" height="202.000000pt" viewBox="0 0 300.000000 202.000000" preserveAspectRatio="xMidYMid meet">
<metadata>
  <rdf:rdf xmlns:rdf="http://www.w3.org/1999/02/22-rdf-syntax-ns#" xmlns:rdfs="http://www.w3.org/2000/01/rdf-schema#" xmlns:dc="http://purl.org/dc/elements/1.1/">
    <rdf:description dc:title="love broken family" dc:publisher="Hiox" dc:date="2015-03-26" dc:format="image/svg+xml" dc:language="en">
      <dc:creator>
        <rdf:bag>
          <rdf:li>svgimages.com</rdf:li>
        </rdf:bag>
      </dc:creator>
    </rdf:description>
  </rdf:rdf>
</metadata>
<g transform="translate(0.000000,202.000000) scale(0.100000,-0.100000)" fill="#2A2A2A" stroke="none">
<path d="M2483 1772 c-33 -16 -53 -53 -53 -101 0 -14 -14 -47 -30 -73 -28 -45
-32 -48 -74 -48 -39 0 -47 -4 -78 -42 -56 -68 -147 -206 -154 -232 -4 -17 5
-40 32 -82 44 -69 131 -164 150 -164 11 0 14 -40 14 -212 l0 -211 -32 -50
c-30 -47 -38 -76 -56 -197 -8 -54 -40 -127 -63 -140 -8 -6 -8 -13 0 -28 6 -11
11 -32 11 -47 0 -40 28 -61 91 -69 31 -3 59 -3 62 1 4 3 -7 21 -23 40 -25 28
-30 42 -30 86 0 70 13 112 71 231 98 202 128 240 114 145 -4 -30 -6 -111 -5
-181 2 -113 -1 -132 -19 -161 -14 -22 -17 -37 -11 -47 6 -8 10 -30 10 -47 0
-18 5 -33 10 -33 6 0 10 12 10 26 0 32 17 23 25 -15 7 -31 32 -41 101 -41 42
0 44 14 5 30 -57 23 -69 117 -37 270 9 41 16 103 16 137 0 84 12 113 47 113
55 0 57 6 50 152 -8 156 -30 308 -51 360 -9 21 -16 52 -16 69 0 26 2 29 14 19
8 -6 25 -10 38 -8 37 5 44 54 23 145 -10 43 -18 107 -17 143 0 40 -5 73 -13
87 -10 15 -12 37 -8 72 5 45 3 55 -17 76 -34 36 -69 45 -107 27z" id="node1" class="node"></path>
<path d="M760 1756 c-19 -6 -45 -18 -56 -26 -24 -17 -41 -60 -25 -60 6 0 11
-21 11 -50 0 -27 4 -50 10 -50 5 0 17 -14 25 -31 11 -19 22 -29 31 -25 8 3 14
3 14 0 0 -11 -75 -134 -81 -134 -19 0 -121 96 -134 126 -8 19 -25 39 -39 45
-19 9 -28 24 -35 61 -6 27 -11 58 -11 69 0 35 -28 32 -98 -9 -101 -60 -184
-129 -199 -163 -7 -17 -13 -32 -13 -33 0 -2 21 -13 48 -25 56 -27 126 -113
143 -175 6 -22 17 -48 24 -56 7 -8 20 -40 30 -70 10 -30 21 -59 25 -63 11 -12
50 10 50 28 0 9 10 15 24 15 12 0 50 3 84 6 l60 7 -4 -44 c-3 -24 -9 -78 -15
-119 -6 -41 -12 -95 -13 -120 -2 -25 -6 -52 -9 -60 -3 -8 -13 -58 -22 -110
l-17 -96 26 -65 c15 -35 57 -116 95 -179 l69 -115 -18 -35 c-10 -19 -34 -44
-54 -54 -39 -21 -47 -41 -18 -50 9 -3 52 -5 95 -4 53 1 81 -3 87 -11 6 -10 14
-10 37 2 16 9 35 22 41 30 14 16 33 97 35 146 2 30 -2 35 -33 46 l-35 12 2 84
c5 162 24 394 38 439 27 90 28 138 5 219 l-22 76 30 100 c27 85 30 108 23 155
-4 30 -15 69 -24 87 -9 18 -17 39 -17 48 0 8 -9 23 -20 32 -16 14 -20 30 -20
73 0 64 -26 115 -66 130 -14 6 -26 10 -27 9 -1 -1 -18 -6 -37 -13z" id="node2" class="node"></path>
<path d="M1538 834 c-15 -8 -30 -25 -32 -37 -14 -66 -13 -84 5 -119 11 -21 18
-38 16 -38 -34 0 -124 28 -189 58 -46 21 -100 46 -121 55 -24 11 -43 29 -54
51 -16 34 -38 42 -26 10 5 -14 3 -15 -23 -1 -22 11 -32 12 -39 3 -13 -13 -8
-46 7 -46 5 0 8 -7 4 -15 -4 -11 2 -15 22 -15 15 -1 77 -26 137 -58 100 -52
110 -60 113 -87 2 -23 10 -34 31 -42 33 -12 41 -44 41 -174 0 -68 -3 -88 -15
-93 -8 -3 -12 -12 -9 -20 3 -8 -9 -43 -26 -78 -27 -53 -30 -67 -21 -91 8 -21
17 -27 41 -27 29 0 51 15 81 56 16 22 68 64 79 64 4 0 35 -25 69 -55 61 -54
93 -70 128 -63 26 5 29 61 5 96 -56 81 -70 124 -75 233 -5 113 0 134 35 142
13 4 28 16 33 29 12 29 201 107 258 108 21 0 44 6 51 13 15 14 17 47 4 47 -5
0 -6 5 -2 11 5 9 -1 10 -19 5 -21 -5 -25 -3 -21 9 10 24 -8 17 -35 -15 -20
-22 -45 -34 -105 -50 -43 -11 -90 -27 -105 -34 -40 -21 -101 -29 -116 -16 -10
8 -19 8 -35 0 -21 -11 -21 -11 -6 19 9 16 16 52 16 79 0 78 -46 117 -102 86z" id="node3" class="node"></path>
</g>
<g transform="translate(0.000000,202.000000) scale(0.100000,-0.100000)" fill="#FFFFFF" stroke="none">

</g>
</svg>