<!--?xml version="1.0" standalone="no"?--><svg version="1.0" xmlns="http://www.w3.org/2000/svg" width="300.000000pt" height="225.000000pt" viewBox="0 0 300.000000 225.000000" preserveAspectRatio="xMidYMid meet">
<metadata>
  <rdf:rdf xmlns:rdf="http://www.w3.org/1999/02/22-rdf-syntax-ns#" xmlns:rdfs="http://www.w3.org/2000/01/rdf-schema#" xmlns:dc="http://purl.org/dc/elements/1.1/">
    <rdf:description dc:title="love broken pair" dc:publisher="Hiox" dc:date="2015-03-26" dc:format="image/svg+xml" dc:language="en">
      <dc:creator>
        <rdf:bag>
          <rdf:li>svgimages.com</rdf:li>
        </rdf:bag>
      </dc:creator>
    </rdf:description>
  </rdf:rdf>
</metadata>
<g transform="translate(0.000000,225.000000) scale(0.100000,-0.100000)" fill="#362F2F" stroke="none">
<path d="M1919 1860 c-70 -21 -110 -76 -108 -149 2 -102 118 -165 207 -111 89
54 97 180 15 238 -35 24 -80 33 -114 22z" id="node1" class="node"></path>
<path d="M1030 1797 c-42 -15 -80 -68 -80 -114 0 -72 56 -133 122 -133 82 0
138 53 138 131 0 94 -87 150 -180 116z" id="node2" class="node"></path>
<path d="M1407 1565 c-39 -37 -34 -63 24 -128 58 -65 58 -65 132 9 55 55 66
84 43 119 -20 30 -45 32 -79 5 l-26 -21 -11 21 c-15 27 -50 25 -83 -5z" id="node3" class="node"></path>
<path d="M1825 1535 c-16 -7 -42 -26 -56 -42 -31 -32 -189 -339 -189 -365 0
-38 39 -15 130 77 84 84 125 117 104 84 -3 -6 -12 -50 -19 -97 -48 -322 -57
-389 -70 -492 -8 -63 -20 -148 -26 -189 -10 -71 -7 -94 10 -75 4 5 41 107 82
227 65 194 76 217 95 217 12 0 25 -7 28 -15 5 -15 30 -226 45 -384 7 -71 27
-93 35 -39 2 18 10 206 16 418 7 212 13 386 15 388 4 4 63 -97 117 -198 58
-108 97 -83 60 38 -12 37 -30 99 -41 137 -59 207 -73 244 -98 269 -48 49 -173
70 -238 41z" id="node4" class="node"></path>
<path d="M1025 1491 c-69 -31 -71 -36 -162 -336 -21 -68 -22 -110 -3 -110 8 0
41 40 74 88 32 49 60 86 63 84 2 -3 -2 -29 -10 -58 -30 -110 -59 -258 -52
-268 3 -6 17 -11 31 -11 14 0 27 -6 29 -12 6 -15 25 -209 32 -315 3 -55 8 -73
19 -73 8 0 18 10 23 23 7 21 25 145 39 276 4 37 12 66 19 68 15 5 26 -19 100
-224 32 -90 61 -163 66 -163 18 0 23 54 16 175 -4 72 -10 147 -14 168 l-7 37
35 0 c42 0 52 18 32 57 -8 15 -15 32 -15 38 0 5 -21 65 -46 133 -25 68 -44
126 -41 128 2 2 25 -25 52 -61 26 -36 53 -65 60 -65 6 0 19 8 28 18 15 17 14
23 -13 91 -16 40 -36 87 -44 104 -9 18 -25 58 -36 89 -25 67 -51 103 -90 123
-40 21 -136 19 -185 -4z" id="node5" class="node"></path>
</g>
<g transform="translate(0.000000,225.000000) scale(0.100000,-0.100000)" fill="#FFFFFF" stroke="none">

</g>
</svg>