<!--?xml version="1.0" standalone="no"?-->

<svg version="1.0" xmlns="http://www.w3.org/2000/svg" width="252.000000pt" height="300.000000pt" viewBox="0 0 252.000000 300.000000" preserveAspectRatio="xMidYMid meet">
<g transform="translate(0.000000,300.000000) scale(0.100000,-0.100000)" fill="#010101" stroke="none">

<path class="node" id="node2" d="M1282 1974 c-34 -23 -44 -59 -32 -105 29 -105 170 -87 170 21 0 77
-79 125 -138 84z m96 -16 c7 -7 12 -16 12 -21 0 -5 -7 -1 -16 7 -22 22 -54 20
-81 -6 -29 -27 -29 -57 -1 -94 l22 -29 -27 24 c-32 29 -37 84 -10 113 19 21
82 25 101 6z m-48 -38 c0 -5 -4 -10 -10 -10 -5 0 -10 5 -10 10 0 6 5 10 10 10
6 0 10 -4 10 -10z m23 -107 c-7 -2 -19 -2 -25 0 -7 3 -2 5 12 5 14 0 19 -2 13
-5z"></path>
<path class="node" id="node3" d="M1496 1649 c-31 -25 -33 -52 -6 -79 19 -19 20 -22 4 -53 -73 -144
-269 -184 -380 -76 -27 26 -31 36 -27 68 6 45 -12 64 -59 59 -25 -2 -35 -9
-42 -31 -13 -36 2 -61 40 -65 16 -2 45 -19 66 -37 60 -55 95 -69 173 -69 39 0
87 6 107 13 46 15 122 87 141 133 8 18 26 39 40 47 47 25 48 78 1 99 -31 15
-27 16 -58 -9z m58 -12 c21 -16 18 -45 -6 -61 -38 -23 -78 35 -42 61 10 7 21
13 24 13 3 0 14 -6 24 -13z m-479 -105 c3 -9 -3 -24 -14 -36 -17 -17 -24 -18
-46 -8 -30 14 -32 36 -4 55 24 17 55 12 64 -11z"></path>
<path class="node" id="node4" d="M1055 1884 c-25 -26 -16 -82 17 -101 24 -15 28 -15 52 0 19 13 26 26
26 51 0 56 -58 87 -95 50z m45 -14 c0 -5 -4 -10 -10 -10 -5 0 -10 5 -10 10 0
6 5 10 10 10 6 0 10 -4 10 -10z"></path>
</g>
<g transform="translate(0.000000,300.000000) scale(0.100000,-0.100000)" fill="#B297BA" stroke="none">
<path class="node" id="node5" d="M1052 2970 c-22 -14 -43 -44 -72 -104 -42 -90 -49 -121 -26 -129 33
-13 180 -29 212 -24 46 8 64 23 64 56 0 43 -26 71 -65 71 l-34 0 6 50 c6 51
-2 72 -37 90 -11 6 -27 3 -48 -10z"></path>
<path class="node" id="node6" d="M1479 2959 c-25 -25 -67 -114 -71 -149 -3 -23 1 -26 67 -37 72 -13
130 -9 153 9 31 26 -6 88 -52 88 -22 0 -24 3 -19 34 11 67 -34 99 -78 55z"></path>
<path class="node" id="node7" d="M494 2882 c-20 -13 -34 -50 -34 -89 0 -46 33 -181 55 -222 13 -26 18
-29 39 -21 69 26 173 86 212 122 55 50 58 84 13 122 -37 31 -63 33 -108 5 -38
-23 -35 -24 -48 16 -16 50 -94 91 -129 67z"></path>
<path class="node" id="node8" d="M1798 2858 c-27 -11 -48 -26 -48 -33 0 -20 79 -115 106 -127 19 -9
28 -8 44 7 25 23 25 33 -1 61 l-21 22 21 7 c27 8 44 40 36 65 -8 27 -73 26
-137 -2z"></path>
<path class="node" id="node9" d="M2046 2754 c-9 -22 23 -151 38 -157 8 -3 24 1 36 10 16 11 20 22 16
39 -6 21 -3 24 23 24 36 0 59 25 44 48 -10 16 -99 50 -134 51 -9 1 -20 -6 -23
-15z"></path>
<path class="node" id="node10" d="M2223 2467 c10 -78 15 -89 46 -85 20 2 27 9 29 29 2 21 10 28 33 33
20 4 29 11 29 25 0 26 -28 41 -92 48 l-51 6 6 -56z"></path>
<path class="node" id="node11" d="M442 2403 c-49 -6 -109 -68 -118 -121 -4 -23 -10 -42 -13 -42 -4 0
-17 11 -29 24 -59 69 -212 53 -251 -26 -18 -37 -18 -42 -3 -86 10 -33 34 -66
77 -108 74 -72 227 -183 273 -197 40 -13 39 -13 120 143 76 146 102 223 102
300 0 51 -4 65 -25 85 -13 14 -32 25 -42 25 -10 0 -27 2 -38 4 -11 2 -35 1
-53 -1z"></path>
<path class="node" id="node12" d="M2371 2303 c-17 -32 -31 -101 -25 -117 9 -23 46 -16 59 11 8 16 15
19 28 12 16 -9 57 3 57 17 0 18 -26 48 -60 69 -47 30 -47 30 -59 8z"></path>
<path class="node" id="node13" d="M1617 2282 c-38 -42 -6 -112 52 -112 67 0 108 80 59 114 -31 22 -91
20 -111 -2z"></path>
<path class="node" id="node14" d="M776 2179 c-42 -33 -30 -105 19 -109 64 -6 105 19 105 65 0 58 -73
84 -124 44z"></path>
<path class="node" id="node15" d="M1571 2115 c-32 -56 -37 -75 -22 -75 12 0 81 117 73 124 -12 13 -21
4 -51 -49z"></path>
<path class="node" id="node16" d="M892 2072 c9 -22 97 -92 103 -82 9 14 -67 90 -90 90 -9 0 -15 -4 -13
-8z"></path>
<path class="node" id="node17" d="M1188 2042 c-60 -22 -63 -26 -28 -39 26 -10 31 -8 61 23 37 38 34 40
-33 16z"></path>
<path class="node" id="node18" d="M1275 2043 c-75 -39 -106 -105 -86 -181 13 -47 66 -96 114 -106 42
-8 115 29 144 73 49 74 15 182 -66 215 -51 20 -68 20 -106 -1z m116 -82 c59
-60 26 -161 -53 -161 -46 0 -75 23 -88 69 -26 98 72 161 141 92z"></path>
<path class="node" id="node19" d="M1277 1952 c-27 -29 -22 -84 10 -113 l27 -24 -22 29 c-28 37 -28 67
1 94 27 26 59 28 81 6 9 -8 16 -12 16 -7 0 35 -85 46 -113 15z"></path>
<path class="node" id="node20" d="M1310 1920 c0 -5 5 -10 10 -10 6 0 10 5 10 10 0 6 -4 10 -10 10 -5 0
-10 -4 -10 -10z"></path>
<path class="node" id="node21" d="M1328 1813 c6 -2 18 -2 25 0 6 3 1 5 -13 5 -14 0 -19 -2 -12 -5z"></path>
<path class="node" id="node22" d="M1439 2025 c77 -88 56 -221 -42 -266 -47 -21 -93 -24 -132 -9 -23 9
-32 6 -60 -19 -40 -34 -97 -47 -153 -32 -50 14 -108 76 -118 127 l-7 36 -28
-49 c-16 -28 -38 -88 -50 -134 -19 -76 -20 -90 -9 -149 34 -173 99 -270 236
-350 40 -23 64 -30 105 -30 31 0 72 -8 96 -20 58 -26 157 -13 222 30 25 17 62
33 82 36 78 13 206 181 230 305 46 231 -84 451 -317 535 -86 32 -92 30 -55
-11z m115 -367 c47 -21 46 -74 -1 -99 -14 -8 -32 -29 -40 -47 -19 -46 -95
-118 -141 -133 -20 -7 -68 -13 -107 -13 -78 0 -113 14 -173 69 -21 18 -50 35
-66 37 -38 4 -53 29 -40 65 7 22 17 29 42 31 47 5 65 -14 59 -59 -4 -32 0 -42
27 -68 62 -60 144 -75 242 -46 53 16 109 66 138 122 16 31 15 34 -4 53 -27 27
-25 54 6 79 31 25 27 24 58 9z"></path>
<path class="node" id="node23" d="M1506 1637 c-36 -26 4 -84 42 -61 24 16 27 45 6 61 -10 7 -21 13 -24
13 -3 0 -14 -6 -24 -13z"></path>
<path class="node" id="node24" d="M1011 1543 c-28 -19 -26 -41 4 -55 22 -10 29 -9 46 8 36 37 -7 78
-50 47z"></path>
<path class="node" id="node25" d="M2386 2017 c-25 -24 -46 -51 -46 -60 0 -21 34 -31 60 -17 15 8 25 7
45 -6 28 -18 55 -13 55 11 0 21 -35 88 -53 104 -13 10 -23 5 -61 -32z"></path>
<path class="node" id="node26" d="M1023 1984 c-41 -20 -73 -71 -75 -117 -1 -43 29 -105 65 -131 41 -30
131 -29 175 2 36 26 37 29 16 57 -14 18 -16 19 -25 3 -31 -56 -102 -67 -143
-23 -44 47 -42 100 5 144 27 25 81 28 99 6 15 -19 27 -9 32 25 6 46 -83 66
-149 34z"></path>
<path class="node" id="node27" d="M1040 1893 c-16 -20 -20 -36 -16 -58 7 -35 48 -75 77 -75 30 0 69 44
69 78 0 75 -86 111 -130 55z m92 -10 c28 -25 24 -79 -8 -100 -24 -15 -28 -15
-52 0 -19 11 -28 25 -30 50 -5 58 48 88 90 50z"></path>
<path class="node" id="node28" d="M1080 1870 c0 -5 5 -10 10 -10 6 0 10 5 10 10 0 6 -4 10 -10 10 -5 0
-10 -4 -10 -10z"></path>
<path class="node" id="node29" d="M2366 1809 c-14 -17 -26 -34 -26 -39 0 -17 20 -21 42 -9 16 9 23 9
26 0 6 -17 42 -13 42 4 0 26 -29 75 -44 75 -8 0 -26 -14 -40 -31z"></path>
<path class="node" id="node30" d="M465 1747 c-51 -23 -92 -79 -105 -144 -35 -168 101 -432 273 -527 57
-32 153 -66 184 -66 7 0 24 21 37 48 13 26 45 75 71 110 l47 62 -40 48 c-76
91 -112 192 -112 316 0 73 -4 77 -99 127 -54 28 -77 33 -145 36 -54 2 -91 -1
-111 -10z"></path>
<path class="node" id="node31" d="M2080 1714 c-45 -8 -106 -28 -156 -53 l-81 -41 -6 -57 c-6 -71 -40
-174 -72 -222 l-25 -35 66 -60 c36 -32 86 -90 111 -127 24 -38 48 -69 52 -69
20 0 135 52 174 78 106 73 208 217 232 327 15 68 15 78 1 128 -25 84 -75 121
-191 140 -16 2 -64 -1 -105 -9z"></path>
<path class="node" id="node32" d="M1683 1240 l-42 -40 42 -11 c54 -14 111 -53 126 -85 10 -23 15 -25
49 -19 20 3 40 10 44 14 17 15 -143 182 -173 181 -2 0 -23 -18 -46 -40z"></path>
<path class="node" id="node33" d="M947 1170 c-37 -43 -85 -126 -77 -133 3 -2 28 -7 55 -10 l50 -6 20
42 c13 27 33 49 58 63 l38 21 -47 32 c-26 17 -51 31 -55 31 -4 0 -23 -18 -42
-40z"></path>
<path class="node" id="node34" d="M1530 1158 c-48 -25 -93 -81 -111 -140 -15 -45 -23 -47 -38 -9 -44
104 -209 163 -306 108 -87 -49 -110 -151 -61 -267 26 -59 39 -67 113 -69 58
-1 92 -38 62 -68 -8 -8 -6 -13 8 -17 25 -8 48 -49 40 -71 -4 -8 -16 -19 -28
-24 -15 -5 -18 -10 -11 -15 7 -4 12 -16 12 -28 0 -23 123 -172 174 -212 l34
-25 59 72 c109 134 135 174 125 194 -5 10 -6 27 -2 38 6 15 2 25 -13 37 -18
14 -20 21 -12 44 6 16 20 33 31 39 17 8 19 14 10 28 -20 32 4 51 74 58 49 5
68 11 82 29 27 33 41 97 36 167 -3 53 -9 68 -33 93 -32 33 -106 60 -165 60
-20 0 -56 -10 -80 -22z"></path>
<path class="node" id="node35" d="M1383 1103 l-41 -4 26 -40 26 -40 23 38 c24 40 28 54 16 51 -5 -1
-27 -3 -50 -5z"></path>
<path class="node" id="node36" d="M1852 1065 c-19 -10 -24 -22 -26 -64 -2 -28 0 -51 3 -51 22 0 131 44
131 52 0 6 -9 26 -21 44 -22 37 -46 42 -87 19z"></path>
<path class="node" id="node37" d="M849 994 c-5 -13 -13 -35 -19 -49 -5 -13 -6 -26 -2 -29 4 -2 40 -7
81 -11 l74 -7 -8 48 c-4 27 -8 50 -10 52 -1 1 -26 7 -55 11 -49 8 -52 7 -61
-15z"></path>
<path class="node" id="node38" d="M1947 974 c-3 -3 -34 -16 -68 -29 -55 -20 -64 -27 -75 -58 -12 -35
-12 -37 19 -56 l32 -20 51 30 c28 16 62 29 74 29 19 0 22 4 17 28 -13 65 -32
94 -50 76z"></path>
<path class="node" id="node39" d="M810 883 c0 -10 -3 -28 -6 -40 -5 -19 -2 -23 16 -23 12 0 47 -14 76
-31 41 -23 57 -28 71 -20 45 26 45 26 33 68 l-12 41 -72 6 c-39 4 -79 9 -88
12 -13 4 -18 0 -18 -13z"></path>
<path class="node" id="node40" d="M1928 833 c-40 -18 -58 -32 -58 -44 0 -11 3 -19 8 -19 14 0 112 70
112 80 0 13 4 14 -62 -17z"></path>
<path class="node" id="node41" d="M1700 821 c-61 -6 -65 -7 -65 -31 0 -18 6 -26 23 -28 27 -4 24 -26
-4 -30 -54 -8 -64 -13 -64 -33 0 -26 24 -34 66 -21 42 13 54 -1 15 -18 -16 -6
-37 -20 -47 -31 -14 -15 -15 -21 -4 -34 15 -18 42 -13 83 17 16 11 31 17 35
14 3 -4 -4 -13 -16 -22 -31 -21 -29 -54 2 -54 53 0 146 114 146 178 0 25 -9
43 -34 68 -19 19 -42 33 -52 32 -11 -1 -48 -4 -84 -7z"></path>
<path class="node" id="node42" d="M1980 815 c-8 -9 -31 -25 -52 -36 -21 -11 -38 -24 -38 -29 0 -13 4
-12 74 1 55 12 57 13 54 42 -4 36 -19 44 -38 22z"></path>
<path class="node" id="node43" d="M820 800 c0 -12 86 -75 102 -75 6 0 13 5 15 12 3 7 -23 26 -56 43
-34 17 -61 26 -61 20z"></path>
<path class="node" id="node44" d="M800 741 c0 -26 5 -41 16 -45 26 -10 104 -7 104 4 0 6 -4 10 -9 10
-5 0 -32 16 -60 35 l-51 35 0 -39z"></path>
<path class="node" id="node45" d="M966 739 c-35 -41 -34 -90 3 -149 15 -25 47 -58 70 -74 39 -27 43
-28 58 -13 16 15 15 18 -7 42 -13 14 -20 28 -16 32 4 5 13 1 19 -8 25 -33 88
-51 102 -29 10 16 -18 50 -52 62 -18 7 -33 16 -33 21 0 5 14 6 33 2 53 -11 59
-11 70 7 16 24 -8 48 -49 48 -44 0 -51 15 -14 29 17 5 30 16 30 23 0 29 -25
38 -106 38 -80 0 -83 -1 -108 -31z"></path>
<path class="node" id="node46" d="M1939 728 c-42 -9 -48 -13 -73 -65 -15 -30 -25 -57 -22 -60 2 -3 38
5 79 18 68 20 76 25 81 52 14 71 13 71 -65 55z"></path>
<path class="node" id="node47" d="M806 672 c-10 -16 14 -81 32 -86 27 -7 112 -18 112 -13 0 2 -7 24
-16 50 -15 45 -18 47 -54 47 -21 0 -45 3 -53 6 -8 3 -18 1 -21 -4z"></path>
<path class="node" id="node48" d="M1895 596 c-44 -12 -98 -32 -120 -44 -43 -24 -70 -28 -80 -12 -3 6
-21 10 -40 10 -30 0 -40 -8 -81 -62 -27 -35 -68 -87 -92 -115 l-44 -53 103 1
c57 1 144 4 194 8 l90 6 67 100 c61 90 108 186 90 184 -4 0 -43 -11 -87 -23z"></path>
<path class="node" id="node49" d="M830 555 c0 -18 113 -175 150 -209 39 -35 42 -36 123 -36 45 0 126 3
180 7 l97 6 -63 66 c-34 36 -74 80 -87 96 -19 24 -33 30 -60 30 -21 0 -40 -7
-48 -17 -23 -31 -71 -20 -122 28 -20 18 -42 25 -98 30 -39 4 -72 3 -72 -1z"></path>
<path class="node" id="node50" d="M1390 300 c-113 -4 -236 -8 -275 -9 l-70 -2 35 -29 c48 -42 236 -161
325 -207 l73 -37 48 39 c85 69 213 187 240 222 l25 33 -98 -2 c-54 -1 -190 -5
-303 -8z"></path>
</g>
</svg>