<!--?xml version="1.0" standalone="no"?-->

<svg version="1.0" xmlns="http://www.w3.org/2000/svg" width="300.000000pt" height="278.000000pt" viewBox="0 0 300.000000 278.000000" preserveAspectRatio="xMidYMid meet">
<g transform="translate(0.000000,278.000000) scale(0.100000,-0.100000)" fill="#792423" stroke="none">
<path class="node" id="node1" d="M687 2680 c-257 -5 -259 -5 -278 -29 -27 -33 -25 -86 6 -116 24 -25
40 -28 127 -25 39 1 52 -3 73 -24 l25 -25 0 -380 c0 -332 -2 -382 -16 -395
-17 -18 -16 -18 -101 -21 -95 -4 -129 -37 -115 -111 10 -55 28 -58 336 -56
l281 3 23 25 c30 34 29 84 -1 112 -19 18 -35 22 -94 22 -55 0 -76 4 -94 19
l-24 19 -5 364 c-5 367 -2 424 22 439 7 5 46 9 86 9 64 0 76 3 97 25 29 28 33
79 10 112 -13 19 -80 47 -95 41 -3 -1 -121 -5 -263 -8z"></path>
<path class="node" id="node2" d="M1525 2676 c-157 -45 -225 -106 -282 -253 -35 -91 -37 -237 -4 -328
88 -247 300 -460 645 -649 l48 -27 98 55 c139 79 210 134 336 260 195 195 269
342 268 531 0 80 -5 111 -23 155 -71 173 -196 261 -373 263 -67 1 -84 -3 -142
-32 -37 -18 -92 -56 -124 -86 l-58 -53 -56 59 c-32 32 -80 70 -108 84 -63 32
-155 41 -225 21z"></path>
<path class="node" id="node3" d="M173 1302 c-26 -4 -73 -56 -73 -81 0 -19 25 -60 48 -78 9 -8 44 -13
85 -13 117 0 107 39 107 -410 0 -340 -2 -391 -16 -404 -17 -18 -23 -19 -112
-20 -57 -1 -66 -4 -88 -29 -29 -34 -32 -85 -6 -117 17 -21 23 -21 302 -24 296
-3 329 1 344 39 13 35 6 76 -19 100 -20 21 -34 25 -83 25 -75 0 -121 16 -127
43 -3 12 -4 180 -3 372 l3 350 57 -136 c32 -75 64 -149 73 -165 8 -16 15 -33
15 -37 0 -9 44 -112 91 -212 15 -33 44 -103 64 -155 52 -134 79 -182 120 -218
32 -29 42 -32 101 -32 55 0 71 4 99 26 19 14 39 40 44 57 6 18 13 222 16 472
4 265 10 444 16 450 6 5 48 12 95 16 74 5 88 8 111 32 36 36 36 92 -1 123 -25
22 -31 22 -308 22 -175 0 -291 -4 -303 -11 -54 -28 -61 -91 -14 -131 27 -23
39 -26 105 -26 121 0 114 24 114 -385 0 -190 -2 -345 -5 -345 -5 0 -19 31 -95
205 -28 66 -60 138 -70 160 -10 22 -28 65 -40 95 -12 30 -30 73 -40 95 -11 22
-41 90 -68 152 -53 121 -83 166 -122 182 -23 9 -368 20 -417 13z"></path>
<path class="node" id="node4" d="M1523 1289 c-27 -10 -43 -39 -43 -79 0 -68 37 -90 155 -90 85 0 124
-20 164 -87 14 -24 88 -142 164 -263 l137 -220 0 -104 c0 -89 -3 -107 -21
-130 -18 -23 -27 -26 -85 -26 -109 0 -159 -45 -129 -116 23 -55 68 -69 168
-53 56 8 124 10 226 4 216 -11 221 -11 254 25 37 41 36 81 -4 114 -27 23 -39
26 -108 26 -108 0 -111 4 -111 151 0 112 1 115 33 164 18 28 61 97 95 155 221
367 215 360 350 360 75 0 85 2 107 25 46 45 24 142 -32 146 -10 1 -142 1 -293
-1 -256 -2 -276 -3 -295 -21 -28 -27 -27 -92 3 -121 17 -17 36 -23 87 -26 36
-2 65 -8 65 -12 0 -5 -16 -36 -35 -70 -19 -34 -35 -63 -35 -65 0 -9 -139 -230
-147 -232 -4 -1 -35 46 -68 104 -33 59 -79 138 -102 177 -24 39 -43 76 -43 82
0 7 25 13 60 16 77 5 105 29 105 89 0 32 -6 46 -27 64 -25 22 -30 22 -299 22
-151 0 -284 -3 -296 -8z"></path>
</g>
<g transform="translate(0.000000,278.000000) scale(0.100000,-0.100000)" fill="#FFFFFF" stroke="none">

</g>
</svg>