<!--?xml version="1.0" standalone="no"?-->

<svg version="1.0" xmlns="http://www.w3.org/2000/svg" width="182.000000pt" height="300.000000pt" viewBox="0 0 182.000000 300.000000" preserveAspectRatio="xMidYMid meet">
<g transform="translate(0.000000,300.000000) scale(0.100000,-0.100000)" fill="#181818" stroke="none">
<path class="node" id="node1" d="M212 2982 c-228 -82 -279 -384 -108 -641 94 -141 249 -253 390 -281
l59 -12 -6 -76 c-4 -43 -10 -137 -13 -210 -7 -127 -6 -133 14 -153 25 -23 29
-61 7 -79 -8 -7 -15 -20 -15 -29 0 -9 -4 -21 -9 -26 -5 -6 -11 -21 -13 -35 -3
-23 -9 -26 -61 -31 -80 -9 -90 -22 -49 -60 17 -16 32 -34 32 -38 0 -12 -26
-21 -56 -21 -31 0 -41 -25 -20 -49 19 -21 12 -29 -42 -51 -18 -7 -35 -16 -38
-21 -6 -10 87 29 101 42 6 6 5 16 -3 29 -19 30 -15 40 17 40 34 0 63 24 55 45
-3 7 -17 21 -31 30 -34 23 -19 35 51 40 l56 5 0 -41 c0 -60 28 -185 61 -268
15 -41 27 -76 26 -77 -1 -1 -54 -23 -118 -47 -64 -25 -135 -55 -157 -66 -55
-28 -60 -27 -71 17 -23 84 -22 86 40 93 95 10 145 62 101 102 -26 24 -68 21
-130 -8 -53 -24 -54 -25 -59 -5 -6 24 -5 24 -48 6 -19 -8 -35 -21 -35 -29 0
-8 17 -30 38 -49 31 -28 42 -49 56 -104 48 -187 107 -313 232 -501 96 -145
175 -229 269 -288 50 -31 75 -53 75 -65 0 -10 10 -31 23 -46 l23 -27 27 33
c20 23 25 36 17 45 -7 9 -6 16 6 26 29 24 74 113 74 147 0 25 -6 35 -25 44
-37 16 -68 -10 -106 -89 -18 -38 -34 -70 -35 -71 -2 -2 -23 10 -47 27 l-45 31
82 82 c45 46 104 108 130 138 44 51 48 54 58 35 36 -65 176 -152 271 -170 21
-4 37 -13 37 -21 0 -7 11 -21 25 -30 13 -9 27 -25 30 -35 9 -26 53 -55 66 -42
6 6 1 14 -15 23 -24 12 -41 38 -32 47 2 2 19 -5 37 -16 48 -28 99 -32 99 -7 0
8 -16 15 -41 19 -23 3 -49 13 -58 22 -15 16 -13 17 22 11 48 -9 97 1 97 19 0
11 -13 13 -65 8 -74 -7 -88 9 -35 39 18 10 30 25 30 38 0 28 -24 25 -44 -5 -9
-14 -26 -25 -39 -25 -12 0 -33 -6 -47 -13 -32 -17 -82 -7 -159 32 -77 40 -173
144 -156 171 12 19 157 112 219 140 96 45 92 46 150 -53 66 -114 105 -160 159
-186 163 -79 301 87 267 323 -14 101 -35 176 -66 238 -13 26 -24 50 -24 53 0
4 16 -3 35 -15 34 -21 73 -21 60 0 -4 6 -35 29 -70 51 -52 32 -75 56 -120 124
-55 83 -98 128 -142 148 -33 15 -23 31 23 37 21 3 45 9 52 13 20 13 14 46 -13
69 -31 27 -32 46 -2 58 20 9 19 9 -8 7 -41 -3 -46 -39 -11 -76 30 -32 20 -51
-26 -51 -15 0 -36 -8 -45 -17 -15 -15 -32 -17 -96 -15 -42 2 -100 -1 -129 -7
-42 -9 -55 -9 -74 4 -61 40 -146 3 -159 -69 -7 -33 -19 -44 -169 -143 -88 -60
-164 -109 -168 -111 -8 -4 -53 134 -67 206 -6 29 -11 79 -11 110 0 45 4 60 19
69 31 19 35 65 11 113 -21 41 -21 92 1 105 5 4 9 15 9 26 0 24 -27 25 -59 2
l-24 -16 6 54 c4 30 9 120 13 202 l6 147 27 6 c121 25 220 78 324 174 166 153
233 310 207 490 -22 156 -109 239 -261 248 -94 5 -141 -13 -223 -87 -38 -35
-61 -49 -71 -44 -7 5 -28 30 -47 58 -61 90 -192 127 -306 87z m188 -74 c34
-17 53 -37 76 -78 68 -119 102 -131 154 -55 70 101 141 135 248 117 81 -13
126 -47 159 -119 23 -49 25 -64 21 -146 -6 -114 -30 -178 -100 -271 -100 -134
-271 -246 -386 -254 -45 -3 -71 1 -118 21 -163 66 -293 202 -356 373 -31 83
-32 220 -2 285 25 54 82 114 127 133 50 22 126 19 177 -6z m728 -1594 c16 -11
22 -25 22 -50 0 -42 23 -43 28 -1 4 36 20 45 93 56 125 17 232 -22 294 -109
l25 -35 -34 -6 c-39 -6 -86 -34 -86 -50 0 -6 -7 -9 -15 -5 -13 4 -15 -8 -14
-77 0 -65 3 -78 12 -65 10 15 14 14 44 -13 27 -23 43 -29 79 -29 39 0 51 5 81
35 19 19 36 35 38 35 10 0 65 -177 75 -243 34 -212 -44 -349 -185 -323 -74 14
-191 179 -241 340 -17 53 -36 77 -50 63 -3 -3 1 -29 10 -59 8 -29 12 -56 8
-59 -4 -4 -29 -14 -56 -22 -60 -20 -159 -75 -223 -124 l-47 -36 -40 44 c-46
52 -166 233 -225 340 l-42 77 48 35 c65 47 223 151 251 166 20 10 27 10 41 -3
22 -20 61 -21 61 -2 0 7 -11 21 -25 30 -38 25 -33 70 10 94 27 15 37 15 63 -4z
m489 -196 c49 -55 56 -106 18 -143 -36 -37 -79 -33 -121 9 -41 41 -46 89 -13
130 27 35 86 36 116 4z m-1233 -14 c32 -12 18 -44 -30 -64 -63 -28 -141 -27
-171 2 -28 26 -29 44 -4 51 13 3 25 -2 33 -15 14 -20 14 -20 53 1 49 26 53 26
58 -1 4 -20 4 -19 6 5 1 28 19 35 55 21z m297 -186 c52 -103 133 -228 209
-321 l72 -88 -28 -42 c-44 -68 -230 -249 -251 -245 -62 12 -382 521 -383 609
0 10 28 29 78 52 92 44 230 96 254 97 12 0 28 -21 49 -62z m273 -664 c7 -19
-3 -64 -15 -64 -5 0 -9 -5 -9 -12 0 -7 -16 -29 -36 -49 -32 -33 -34 -39 -23
-58 16 -25 0 -47 -27 -37 -13 5 -16 16 -12 55 10 104 99 225 122 165z"></path>
<path class="node" id="node2" d="M1204 1105 c12 -50 26 -60 26 -17 -1 24 -20 62 -32 62 -2 0 0 -20 6
-45z"></path>
<path class="node" id="node3" d="M1083 1089 c-90 -35 -143 -106 -143 -192 0 -75 66 -112 150 -83 43
15 44 15 77 -15 53 -46 60 -34 10 19 -60 65 -79 138 -53 207 10 24 29 54 43
65 l26 20 -29 -1 c-16 0 -52 -9 -81 -20z m29 -36 c-25 -64 -24 -121 3 -185 5
-13 1 -20 -16 -27 -35 -14 -70 24 -76 82 -7 56 26 130 65 151 33 18 38 14 24
-21z"></path>
<path class="node" id="node4" d="M1541 1106 c-17 -20 -3 -46 25 -46 19 0 24 5 24 24 0 13 -7 27 -16
30 -21 8 -20 8 -33 -8z"></path>
<path class="node" id="node5" d="M585 890 c5 -14 1 -22 -12 -26 -10 -3 -46 -19 -81 -36 -61 -29 -64
-29 -83 -12 -14 13 -19 14 -18 3 1 -25 44 -104 54 -99 6 3 9 7 9 10 -1 3 -5
15 -8 26 -6 19 2 25 68 53 41 17 80 31 86 31 6 0 16 -11 22 -25 6 -14 15 -25
20 -25 15 0 8 33 -17 77 -27 44 -51 59 -40 23z"></path>
<path class="node" id="node6" d="M570 740 c-15 -16 -38 -55 -50 -86 -23 -55 -23 -57 -5 -70 26 -19 82
-34 128 -34 64 0 101 60 58 97 -14 12 -18 24 -14 48 4 25 0 38 -16 54 -30 30
-68 27 -101 -9z m85 -10 c15 -16 16 -25 7 -44 -9 -21 -8 -27 14 -40 28 -19 30
-33 7 -58 -10 -11 -30 -18 -55 -18 -43 0 -108 23 -108 39 0 22 40 100 61 120
29 26 51 27 74 1z"></path>
<path class="node" id="node7" d="M747 560 c-3 -11 -13 -20 -23 -20 -25 0 -81 -40 -93 -68 -30 -64 5
-132 67 -132 41 0 104 37 123 71 6 12 17 18 25 15 26 -10 29 26 5 46 -32 25
-54 24 -46 -3 13 -39 -74 -106 -121 -95 -26 7 -40 42 -30 80 9 36 63 71 108
70 42 -2 45 2 22 34 -19 27 -30 28 -37 2z"></path>
<path class="node" id="node8" d="M454 1636 c-14 -36 48 -102 82 -89 25 9 14 37 -26 71 -44 36 -48 38
-56 18z"></path>
<path class="node" id="node9" d="M407 1623 c-13 -12 -7 -78 8 -99 17 -26 69 -48 90 -40 25 9 17 33
-20 56 -20 12 -39 35 -47 56 -12 34 -19 40 -31 27z"></path>
<path class="node" id="node10" d="M390 1494 c0 -26 57 -76 82 -72 35 5 35 35 0 43 -17 3 -38 15 -48 26
-21 23 -34 24 -34 3z"></path>
</g>
<g transform="translate(0.000000,300.000000) scale(0.100000,-0.100000)" fill="#A1A1A1" stroke="none">


<path class="node" id="node13" d="M223 2914 c-45 -19 -102 -79 -127 -133 -30 -65 -29 -202 2 -285 63
-171 193 -307 356 -373 47 -20 73 -24 118 -21 115 8 286 120 386 254 70 93 94
157 100 271 4 82 2 97 -21 146 -33 72 -78 106 -159 119 -107 18 -178 -16 -248
-117 -52 -76 -86 -64 -154 55 -23 41 -42 61 -76 78 -51 25 -127 28 -177 6z"></path>

<path class="node" id="node15" d="M1065 1318 c-43 -24 -48 -69 -10 -94 14 -9 25 -23 25 -30 0 -19 -39
-18 -61 2 -14 13 -21 13 -41 3 -28 -15 -186 -119 -251 -166 l-48 -35 42 -77
c59 -107 179 -288 225 -340 l40 -44 47 36 c64 49 163 104 223 124 27 8 52 18
56 22 4 3 0 30 -8 59 -9 30 -13 56 -10 59 14 14 33 -10 50 -63 50 -161 167
-326 241 -340 76 -14 130 16 170 95 39 78 28 236 -27 389 -16 45 -31 82 -33
82 -2 0 -19 -16 -38 -35 -30 -30 -42 -35 -81 -35 -36 0 -52 6 -79 29 -30 27
-34 28 -44 13 -9 -13 -12 0 -12 65 -1 69 1 81 14 77 8 -4 15 -1 15 5 0 16 47
44 86 50 l34 6 -25 35 c-62 87 -169 126 -294 109 -73 -11 -89 -20 -93 -56 -5
-42 -28 -41 -28 1 0 25 -6 39 -22 50 -26 19 -36 19 -63 4z m151 -185 c14 -19
19 -73 6 -73 -4 0 -12 20 -18 45 -11 49 -9 55 12 28z m-49 -43 c-14 -11 -33
-41 -43 -65 -26 -69 -7 -142 53 -207 50 -53 43 -65 -10 -19 -33 30 -34 30 -77
15 -84 -29 -150 8 -150 83 0 55 19 99 60 140 34 35 118 72 164 72 l29 1 -26
-20z"></path>
<path class="node" id="node16" d="M1088 1074 c-39 -21 -72 -95 -65 -151 6 -58 41 -96 76 -82 17 7 21
14 16 27 -27 64 -28 121 -3 185 14 35 9 39 -24 21z"></path>
<path class="node" id="node17" d="M1501 1114 c-33 -41 -28 -89 13 -130 42 -42 85 -46 121 -9 38 37 31
88 -18 143 -30 32 -89 31 -116 -4z m73 0 c9 -3 16 -17 16 -30 0 -19 -5 -24
-24 -24 -28 0 -42 26 -25 46 13 16 12 16 33 8z"></path>
<path class="node" id="node18" d="M329 1083 c-2 -24 -2 -25 -6 -5 -5 27 -9 27 -58 1 -39 -21 -39 -21
-53 -1 -8 13 -20 18 -33 15 -25 -7 -24 -25 4 -51 30 -29 108 -30 171 -2 65 27
62 70 -5 70 -14 0 -19 -8 -20 -27z"></path>

<path class="node" id="node20" d="M535 949 c-133 -49 -235 -101 -235 -118 1 -88 321 -597 383 -609 21
-4 207 177 251 245 l28 42 -72 88 c-76 93 -157 218 -209 321 -21 41 -37 62
-49 62 -9 -1 -53 -14 -97 -31z m90 -82 c25 -44 32 -77 17 -77 -5 0 -14 11 -20
25 -6 14 -16 25 -22 25 -6 0 -45 -14 -86 -31 -66 -28 -74 -34 -68 -53 3 -11 7
-23 8 -26 0 -3 -3 -7 -9 -10 -10 -5 -53 74 -54 99 -1 11 4 10 18 -3 19 -17 22
-17 83 12 35 17 71 33 81 36 13 4 17 12 12 26 -11 36 13 21 40 -23z m46 -118
c16 -16 20 -29 16 -54 -4 -24 0 -36 14 -48 43 -37 6 -97 -58 -97 -46 0 -102
15 -128 34 -18 13 -18 15 5 70 42 105 103 143 151 95z m113 -191 c23 -32 20
-36 -22 -34 -45 1 -99 -34 -108 -70 -10 -38 4 -73 30 -80 47 -11 134 56 121
95 -8 27 14 28 46 3 24 -20 21 -56 -5 -46 -8 3 -19 -3 -25 -15 -19 -34 -82
-71 -123 -71 -62 0 -97 68 -67 132 12 28 68 68 93 68 10 0 20 9 23 20 7 26 18
25 37 -2z"></path>
<path class="node" id="node21" d="M581 729 c-21 -20 -61 -98 -61 -120 0 -16 65 -39 108 -39 25 0 45 7
55 18 23 25 21 39 -7 58 -22 13 -23 19 -14 40 9 19 8 28 -7 44 -23 26 -45 25
-74 -1z"></path>

<path class="node" id="node23" d="M902 252 c-53 -53 -93 -205 -58 -218 27 -10 43 12 27 37 -11 19 -9
25 23 58 20 20 36 42 36 49 0 7 4 12 9 12 12 0 22 45 15 64 -8 21 -30 20 -52
-2z"></path>
</g>
</svg>