<!--?xml version="1.0" standalone="no"?--><svg version="1.0" xmlns="http://www.w3.org/2000/svg" width="300.000000pt" height="111.000000pt" viewBox="0 0 300.000000 111.000000" preserveAspectRatio="xMidYMid meet">
<metadata>
  <rdf:rdf xmlns:rdf="http://www.w3.org/1999/02/22-rdf-syntax-ns#" xmlns:rdfs="http://www.w3.org/2000/01/rdf-schema#" xmlns:dc="http://purl.org/dc/elements/1.1/">
    <rdf:description dc:title="love do not touch me " dc:publisher="Hiox" dc:date="2015-03-26" dc:format="image/svg+xml" dc:language="en">
      <dc:creator>
        <rdf:bag>
          <rdf:li>svgimages.com</rdf:li>
        </rdf:bag>
      </dc:creator>
    </rdf:description>
  </rdf:rdf>
</metadata>
<g transform="translate(0.000000,111.000000) scale(0.100000,-0.100000)" fill="#161211" stroke="none">
<path d="M1805 1025 c-35 -34 -33 -78 4 -116 16 -16 39 -29 51 -29 12 0 18 -4
15 -10 -4 -6 -22 -9 -42 -8 -25 2 -38 9 -48 28 -8 14 -15 22 -16 18 -1 -5 -3
-12 -4 -18 -1 -5 -3 -34 -4 -64 -1 -50 -3 -54 -31 -66 -24 -10 -33 -10 -45 0
-20 17 -41 7 -47 -23 -4 -19 1 -28 19 -36 27 -13 43 -7 43 15 0 7 15 20 32 27
32 13 34 13 76 -32 43 -46 43 -46 38 -16 -3 17 -8 39 -11 51 -5 15 0 23 17 31
21 9 25 6 43 -26 12 -21 30 -37 42 -39 12 -2 36 -22 53 -44 28 -39 29 -43 13
-60 -25 -28 -10 -31 17 -3 l22 24 -37 50 c-45 63 -34 66 25 6 37 -38 41 -46
30 -60 -7 -8 -10 -19 -6 -23 4 -4 16 4 26 18 l19 25 -46 47 c-26 26 -48 55
-49 65 -1 10 -4 25 -8 34 -5 12 12 21 86 45 l93 29 -73 5 -72 5 46 54 47 53
-51 -26 c-28 -14 -54 -26 -57 -26 -3 0 -5 15 -6 33 0 30 -2 28 -21 -23 -26
-68 -24 -65 -42 -51 -8 7 -21 9 -28 5 -7 -4 -6 1 3 12 35 41 31 100 -9 130
-28 22 -80 17 -107 -11z m-13 -204 c2 -20 -2 -36 -9 -38 -9 -3 -13 9 -13 43 0
54 17 50 22 -5z m41 -101 c7 -28 -7 -25 -27 5 -21 32 -20 38 3 26 10 -6 21
-20 24 -31z" id="node1" class="node" stroke-width="20"></path>
<path d="M1237 909 c-29 -17 -46 -67 -35 -101 19 -54 92 -67 127 -22 28 36 26
72 -6 106 -28 29 -56 35 -86 17z" id="node2" class="node" stroke-width="20"></path>
<path d="M1555 824 c-38 -13 -72 -23 -75 -24 -3 0 1 -4 8 -9 25 -15 -146 -51
-245 -51 -120 0 -123 -3 -123 -155 0 -135 5 -157 34 -153 19 3 22 11 27 88 3
50 6 -22 7 -175 1 -143 6 -266 11 -273 5 -8 21 -12 37 -10 l29 3 5 140 6 140
2 -126 c2 -109 5 -130 21 -150 16 -20 23 -22 38 -13 17 10 18 34 21 317 3 348
-7 314 97 341 36 9 63 12 70 6 19 -16 34 4 31 41 -4 34 -2 36 40 47 40 11 55
25 37 35 -5 2 -39 -6 -78 -19z" id="node3" class="node" stroke-width="20"></path>
<path d="M1480 500 l0 -71 38 3 37 3 0 65 0 65 -37 3 -38 3 0 -71z m50 -5 c0
-25 -4 -45 -10 -45 -5 0 -10 20 -10 45 0 25 5 45 10 45 6 0 10 -20 10 -45z" id="node4" class="node" stroke-width="20"></path>
<path d="M1584 556 c-3 -7 -4 -38 -2 -67 3 -49 5 -54 27 -57 15 -3 30 3 38 14
16 21 17 78 3 105 -12 22 -58 26 -66 5z m33 -83 c-2 -16 -4 -3 -4 27 0 30 2
43 4 28 2 -16 2 -40 0 -55z" id="node5" class="node" stroke-width="20"></path>
<path d="M1700 500 c0 -56 3 -70 15 -70 10 0 15 10 16 28 l1 27 10 -27 c5 -16
16 -28 24 -28 11 0 14 16 14 70 0 56 -3 70 -15 70 -9 0 -15 -9 -16 -22 l0 -23
-9 23 c-5 12 -16 22 -25 22 -12 0 -15 -14 -15 -70z" id="node6" class="node" stroke-width="20"></path>
<path d="M1804 556 c-3 -7 -4 -38 -2 -67 3 -48 6 -54 26 -57 13 -2 30 2 38 8
17 15 19 101 2 118 -16 16 -57 15 -64 -2z m33 -83 c-2 -16 -4 -3 -4 27 0 30 2
43 4 28 2 -16 2 -40 0 -55z" id="node7" class="node" stroke-width="20"></path>
<path d="M1890 555 c0 -8 5 -15 10 -15 6 0 10 -25 10 -55 0 -42 3 -55 15 -55
12 0 15 13 15 55 0 30 5 55 10 55 6 0 10 7 10 15 0 10 -11 15 -35 15 -24 0
-35 -5 -35 -15z" id="node8" class="node" stroke-width="20"></path>
<path d="M1380 355 c0 -8 5 -15 10 -15 6 0 10 -25 10 -55 0 -42 3 -55 15 -55
12 0 15 13 15 55 0 30 5 55 10 55 6 0 10 7 10 15 0 10 -11 15 -35 15 -24 0
-35 -5 -35 -15z" id="node9" class="node" stroke-width="20"></path>
<path d="M1477 363 c-11 -19 -18 -75 -12 -102 7 -32 27 -45 57 -35 16 5 19 14
16 72 -3 64 -4 67 -30 70 -14 2 -28 0 -31 -5z m30 -90 c-2 -16 -4 -3 -4 27 0
30 2 43 4 28 2 -16 2 -40 0 -55z" id="node10" class="node" stroke-width="20"></path>
<path d="M1562 304 c3 -74 21 -99 56 -78 24 15 31 144 7 144 -12 0 -15 -13
-15 -60 0 -33 -4 -60 -10 -60 -6 0 -10 27 -10 60 0 47 -3 60 -15 60 -13 0 -15
-12 -13 -66z" id="node11" class="node" stroke-width="20"></path>
<path d="M1659 343 c-21 -54 0 -122 38 -123 16 0 43 28 43 46 0 20 -38 17 -43
-3 -3 -10 -5 7 -4 37 0 30 2 45 4 33 4 -23 43 -34 43 -12 0 51 -63 68 -81 22z" id="node12" class="node" stroke-width="20"></path>
<path d="M1750 300 c0 -56 3 -70 15 -70 9 0 15 9 15 25 0 14 5 25 10 25 6 0
10 -11 10 -25 0 -16 6 -25 15 -25 12 0 15 14 15 70 0 56 -3 70 -15 70 -9 0
-15 -9 -15 -25 0 -14 -4 -25 -10 -25 -5 0 -10 11 -10 25 0 16 -6 25 -15 25
-12 0 -15 -14 -15 -70z" id="node13" class="node" stroke-width="20"></path>
<path d="M1880 300 c0 -54 3 -70 14 -70 8 0 17 12 19 28 l4 27 2 -28 c1 -37
24 -31 32 9 l7 29 1 -32 c1 -22 6 -33 16 -33 12 0 15 15 15 71 0 67 -1 70 -22
67 -14 -2 -24 -12 -28 -28 l-6 -25 -7 28 c-5 18 -14 27 -27 27 -18 0 -20 -7
-20 -70z" id="node14" class="node" stroke-width="20"></path>
<path d="M2009 368 c0 -2 -1 -33 -2 -71 -2 -67 -2 -67 26 -67 15 0 27 5 27 10
0 6 -4 10 -10 10 -14 0 -12 37 3 44 10 5 10 7 0 12 -15 7 -17 34 -3 34 6 0 10
7 10 15 0 9 -9 15 -25 15 -14 0 -25 -1 -26 -2z" id="node15" class="node" stroke-width="20"></path>
</g>
<g transform="translate(0.000000,111.000000) scale(0.100000,-0.100000)" fill="#A8A3A0" stroke="none">







</g>
</svg>