<!--?xml version="1.0" standalone="no"?--><svg version="1.0" xmlns="http://www.w3.org/2000/svg" width="287.000000pt" height="300.000000pt" viewBox="0 0 287.000000 300.000000" preserveAspectRatio="xMidYMid meet">
<metadata>
  <rdf:rdf xmlns:rdf="http://www.w3.org/1999/02/22-rdf-syntax-ns#" xmlns:rdfs="http://www.w3.org/2000/01/rdf-schema#" xmlns:dc="http://purl.org/dc/elements/1.1/">
    <rdf:description dc:title="love symbol black" dc:publisher="Hiox" dc:date="2015-03-26" dc:format="image/svg+xml" dc:language="en">
      <dc:creator>
        <rdf:bag>
          <rdf:li>svgimages.com</rdf:li>
        </rdf:bag>
      </dc:creator>
    </rdf:description>
  </rdf:rdf>
</metadata>
<g transform="translate(0.000000,300.000000) scale(0.100000,-0.100000)" fill="#0C0C0C" stroke="none">

<path d="M845 2163 c-58 -15 -95 -66 -95 -132 0 -31 7 -49 31 -76 l31 -35 -26
0 -26 0 0 -236 0 -235 -41 -142 c-23 -78 -50 -173 -61 -210 -23 -80 -18 -114
19 -128 50 -19 69 9 138 196 56 149 64 167 73 145 5 -14 26 -70 47 -125 20
-55 46 -124 57 -153 22 -58 54 -80 88 -62 46 24 45 40 -19 259 -61 209 -61
209 -61 341 0 128 1 131 18 110 17 -21 21 -21 147 -14 117 6 131 9 153 31 17
17 21 30 17 46 -13 40 -33 47 -147 47 l-109 0 -41 65 c-36 56 -46 65 -71 65
-30 0 -30 0 -12 21 19 20 19 20 -9 42 l-28 23 41 -4 c40 -4 41 -4 41 28 0 53
-29 100 -74 121 -42 19 -48 20 -81 12z" id="node2" class="node" stroke-width="20"></path>
<path d="M1936 2159 c-58 -17 -106 -91 -91 -140 6 -18 12 -20 44 -16 l36 6
-30 -25 -30 -24 25 -20 25 -20 -35 0 c-32 0 -38 -5 -75 -65 l-39 -65 -112 0
c-95 0 -113 -3 -127 -18 -21 -23 -22 -52 -3 -77 11 -16 35 -20 151 -29 l137
-9 19 24 19 24 0 -53 c0 -37 -6 -62 -19 -80 -10 -15 -26 -43 -35 -62 -9 -19
-31 -62 -50 -95 -19 -33 -35 -66 -36 -72 0 -9 17 -13 51 -13 43 0 50 -2 45
-17 -49 -166 -77 -278 -74 -300 2 -17 13 -33 29 -42 50 -28 68 -3 138 188 35
94 65 171 66 171 1 0 31 -77 65 -171 71 -191 89 -216 139 -188 16 9 27 25 29
41 2 15 -15 90 -37 168 -23 78 -41 144 -41 146 0 2 22 4 49 4 28 0 52 3 55 8
2 4 -15 40 -40 80 -24 40 -44 77 -44 83 0 11 -28 57 -47 77 -9 10 -13 59 -13
178 l0 164 -26 0 -25 0 28 29 28 28 11 -46 c6 -25 17 -56 25 -69 17 -28 69
-53 123 -59 l41 -5 -30 20 c-44 29 -60 50 -99 132 -77 162 -108 202 -166 213
-14 3 -38 1 -54 -4z" id="node3" class="node" stroke-width="20"></path>
<path d="M1180 1990 c-29 -29 -25 -54 20 -102 21 -24 46 -52 55 -63 15 -20 15
-20 27 -1 6 11 28 39 50 62 46 50 50 86 12 111 -24 15 -29 16 -54 1 -23 -13
-29 -13 -45 -2 -26 19 -42 17 -65 -6z" id="node4" class="node" stroke-width="20"></path>
<path d="M1490 1990 c-11 -11 -20 -29 -20 -39 0 -18 96 -138 107 -134 2 1 27
27 54 58 56 65 62 96 23 122 -24 15 -29 16 -54 1 -23 -13 -29 -13 -45 -2 -26
19 -42 17 -65 -6z" id="node5" class="node" stroke-width="20"></path>





















</g>
<g transform="translate(0.000000,300.000000) scale(0.100000,-0.100000)" fill="#FFFFFF" stroke="none">







</g>
</svg>