<!--?xml version="1.0" standalone="no"?--><svg version="1.0" xmlns="http://www.w3.org/2000/svg" width="209.000000pt" height="300.000000pt" viewBox="0 0 209.000000 300.000000" preserveAspectRatio="xMidYMid meet">
<metadata>
  <rdf:rdf xmlns:rdf="http://www.w3.org/1999/02/22-rdf-syntax-ns#" xmlns:rdfs="http://www.w3.org/2000/01/rdf-schema#" xmlns:dc="http://purl.org/dc/elements/1.1/">
    <rdf:description dc:title="love broken cry" dc:publisher="Hiox" dc:date="2015-03-26" dc:format="image/svg+xml" dc:language="en">
      <dc:creator>
        <rdf:bag>
          <rdf:li>svgimages.com</rdf:li>
        </rdf:bag>
      </dc:creator>
    </rdf:description>
  </rdf:rdf>
</metadata>
<g transform="translate(0.000000,300.000000) scale(0.100000,-0.100000)" fill="#1C1C1C" stroke="none">
<path d="M446 2985 c-152 -42 -288 -155 -364 -302 -149 -287 -97 -606 161
-991 l76 -113 0 -137 c0 -141 22 -324 46 -393 10 -26 12 -60 8 -103 -6 -64 -5
-65 67 -218 92 -195 98 -201 170 -194 30 4 114 9 185 12 81 4 133 10 137 18
15 22 7 39 -39 83 -44 42 -49 45 -87 39 -23 -4 -60 -16 -84 -28 -47 -22 -47
-23 -56 10 -6 19 -4 22 19 22 35 0 85 50 85 84 0 23 -4 26 -35 26 -38 0 -50 9
-118 93 -27 33 -49 50 -80 58 -23 7 -43 13 -44 14 -2 1 -12 37 -22 81 -24 93
-38 179 -55 326 l-12 107 33 -37 c115 -129 237 -308 277 -406 l23 -57 41 54
c46 62 140 146 227 204 52 35 295 163 310 163 3 0 5 -18 5 -39 0 -52 43 -261
75 -365 13 -46 36 -100 50 -121 15 -21 38 -74 52 -118 23 -70 24 -84 14 -114
-16 -44 0 -67 40 -59 20 4 27 2 24 -7 -2 -7 -13 -51 -24 -99 -38 -159 -23
-261 48 -321 66 -55 169 -27 201 55 8 18 14 34 15 35 0 1 23 -9 50 -22 60 -31
89 -31 145 -2 54 27 80 73 80 142 0 89 -67 176 -212 274 l-47 32 34 45 c19 25
35 50 35 56 0 6 7 20 17 30 22 24 10 47 -48 91 -66 50 -85 58 -134 60 -44 2
-85 -22 -85 -50 0 -16 5 -17 -65 10 -58 22 -60 25 -72 73 -14 53 -33 165 -58
339 -9 61 -18 117 -21 125 -2 10 14 26 44 44 158 99 344 266 421 379 86 126
131 276 131 431 0 177 -53 316 -167 437 -132 140 -247 191 -428 192 -162 0
-272 -37 -370 -126 l-49 -44 -38 48 c-62 78 -160 146 -257 175 -58 17 -209 17
-275 -1z m257 -60 c108 -28 211 -96 269 -177 16 -23 18 -34 10 -57 -6 -16 -8
-32 -4 -35 3 -3 34 23 69 58 78 80 147 120 249 146 89 23 145 25 229 6 130
-28 245 -99 322 -201 146 -192 162 -437 43 -680 -75 -154 -191 -275 -393 -408
-156 -103 -245 -156 -378 -222 -146 -73 -262 -150 -321 -213 l-46 -49 -15 32
c-20 42 -211 295 -274 363 -7 7 -52 65 -100 129 -207 276 -297 477 -310 693
-13 211 84 422 245 538 121 86 265 113 405 77z m-324 -1520 c18 -182 58 -389
87 -446 9 -19 24 -28 51 -32 30 -5 50 -21 103 -77 50 -54 72 -70 93 -70 31 0
35 -15 10 -42 -25 -28 -59 -22 -87 15 -15 19 -26 38 -26 42 0 16 -33 45 -52
45 -10 0 -18 -4 -18 -8 0 -22 119 -227 131 -225 8 1 38 6 68 12 103 21 181 7
169 -29 -3 -9 -32 -13 -103 -14 -55 -1 -123 -6 -152 -10 -86 -14 -96 -7 -149
97 -26 50 -58 113 -71 139 -31 58 -39 118 -23 158 8 20 9 34 3 43 -43 54 -94
575 -53 530 4 -4 13 -62 19 -128z m1031 14 c0 -52 39 -299 61 -384 11 -44 21
-89 23 -100 2 -15 23 -28 84 -53 101 -40 230 -74 254 -66 27 8 22 24 -9 25
-44 1 -146 33 -151 47 -6 19 54 14 137 -11 72 -22 113 -54 83 -64 -7 -3 -21
-21 -31 -41 -11 -21 -31 -48 -46 -62 l-26 -25 -94 50 c-135 71 -206 124 -232
171 -28 49 -66 197 -93 355 -26 149 -25 163 3 177 34 16 37 15 37 -19z m377
-494 c20 -8 34 -18 31 -20 -7 -7 -110 16 -122 27 -17 14 53 9 91 -7z m-197
-218 c0 -71 -12 -97 -46 -97 -21 0 -23 3 -14 19 15 30 12 75 -10 133 -11 29
-20 54 -20 55 0 1 20 -10 45 -25 l45 -27 0 -58z m96 -2 c36 -25 77 -45 91 -45
25 0 108 -57 181 -124 101 -93 124 -196 58 -262 -28 -28 -41 -34 -77 -34 -56
0 -111 28 -120 60 -4 14 -7 18 -8 10 -1 -8 -12 -38 -25 -67 -49 -105 -150
-110 -203 -10 -25 46 -21 153 7 262 16 59 24 118 25 172 0 46 1 83 2 83 1 0
32 -20 69 -45z m-841 -45 c4 -6 -12 -10 -42 -9 -39 1 -43 3 -23 9 36 11 58 11
65 0z" id="node1" class="node" stroke-width="20"></path>
<path d="M750 2738 c-47 -45 -139 -126 -205 -181 -66 -55 -124 -104 -129 -109
-6 -5 -6 -12 0 -18 7 -7 26 -4 59 10 26 11 49 19 51 18 1 -2 -7 -30 -18 -63
-16 -48 -19 -78 -16 -160 2 -55 7 -107 11 -115 5 -11 -9 -22 -53 -42 -33 -15
-60 -31 -60 -36 0 -5 30 -2 67 6 64 14 67 14 82 -5 27 -33 67 -54 118 -63 l48
-8 -50 -1 c-27 0 -62 6 -77 13 -16 8 -28 11 -28 7 0 -16 62 -34 110 -33 27 0
64 8 82 18 53 27 134 100 165 149 15 25 31 45 35 45 3 0 6 -21 6 -47 1 -27 8
-65 17 -86 29 -70 115 -148 162 -147 10 1 3 7 -17 16 -39 17 -86 58 -102 89
-6 11 6 4 28 -17 22 -20 52 -42 67 -47 33 -13 113 -13 142 -1 15 6 27 1 46
-17 30 -27 47 -17 29 17 -9 17 -6 29 20 68 47 71 72 162 78 280 l4 102 35 -31
c23 -20 39 -27 45 -21 12 12 -261 424 -277 419 -24 -8 -14 -47 42 -174 4 -9
-7 -13 -36 -13 -23 0 -57 -6 -75 -14 -73 -31 -145 -136 -168 -248 -16 -78 -38
-78 -38 -1 0 186 -68 309 -180 328 l-40 7 46 51 c54 60 82 113 68 127 -6 6
-41 -21 -94 -72z m70 -165 c68 -40 118 -221 94 -340 -6 -28 -8 -29 -111 -47
-59 -10 -144 -30 -190 -45 -95 -31 -86 -36 -97 59 -26 229 161 458 304 373z
m471 -66 c49 -33 75 -78 89 -154 15 -90 -3 -208 -46 -294 -37 -74 -43 -76
-100 -18 -55 57 -178 160 -212 178 -24 13 -24 16 3 116 42 150 173 235 266
172z m-241 -368 c18 -16 21 -23 11 -27 -7 -2 -22 -13 -33 -24 -25 -25 -30 -20
-36 43 -4 48 -4 50 14 40 11 -6 30 -20 44 -32z m-186 -11 c-10 -13 -30 -35
-43 -51 l-25 -27 -12 30 c-7 16 -19 30 -26 31 -12 1 96 36 116 38 5 1 1 -9
-10 -21z m-219 -78 c0 -22 -5 -40 -10 -40 -6 0 -28 12 -50 27 l-40 27 40 12
c59 18 60 18 60 -26z m125 20 c0 -5 -4 -10 -10 -10 -5 0 -10 5 -10 10 0 6 5
10 10 10 6 0 10 -4 10 -10z m470 -95 c14 -17 5 -23 -40 -26 -54 -4 -62 -1 -49
22 6 12 9 34 7 50 l-4 28 36 -29 c20 -16 43 -36 50 -45z m-110 50 c0 -8 -4
-15 -9 -15 -13 0 -22 16 -14 24 11 11 23 6 23 -9z" id="node2" class="node" stroke-width="20"></path>
<path d="M755 1877 c-43 -24 -85 -78 -85 -110 0 -15 6 -11 29 19 48 67 101 91
163 73 50 -13 84 -57 99 -126 l12 -58 14 33 c51 123 -108 239 -232 169z" id="node3" class="node" stroke-width="20"></path>
<path d="M1192 1867 c-22 -26 -52 -103 -52 -132 0 -62 58 -99 91 -58 18 21 14
121 -6 169 -16 38 -18 40 -33 21z m22 -49 c8 -30 8 -92 0 -112 -8 -22 -31 -20
-44 4 -11 20 -7 53 12 103 13 33 24 35 32 5z" id="node4" class="node" stroke-width="20"></path>


















</g>
<g transform="translate(0.000000,300.000000) scale(0.100000,-0.100000)" fill="#FFFFFF" stroke="none">


<path d="M430 2917 c-232 -79 -393 -338 -377 -607 13 -216 103 -417 310 -693
48 -64 93 -122 100 -129 63 -68 254 -321 274 -363 l15 -32 46 49 c59 63 175
140 321 213 293 146 531 313 669 470 68 77 146 234 166 337 58 285 -67 553
-309 664 -120 55 -227 66 -349 34 -102 -26 -171 -66 -249 -146 -35 -35 -66
-61 -69 -58 -4 3 -2 19 4 35 12 34 -5 61 -75 126 -121 112 -321 154 -477 100z
m408 -149 c-8 -18 -36 -56 -62 -85 l-46 -51 40 -7 c112 -19 180 -142 180 -328
0 -77 22 -77 38 1 23 112 95 217 168 248 18 8 52 14 75 14 29 0 40 4 36 13
-56 127 -66 166 -42 174 16 5 289 -407 277 -419 -6 -6 -22 1 -45 21 l-35 31
-4 -102 c-6 -118 -31 -209 -78 -280 -26 -39 -29 -51 -20 -68 18 -34 1 -44 -29
-17 -19 18 -31 23 -46 17 -29 -12 -109 -12 -142 1 -15 5 -45 27 -67 47 -22 21
-34 28 -28 17 16 -31 63 -72 102 -89 20 -9 27 -15 17 -16 -47 -1 -133 77 -162
147 -9 21 -16 59 -17 86 0 26 -3 47 -6 47 -4 0 -20 -20 -35 -45 -31 -49 -112
-122 -165 -149 -18 -10 -55 -18 -82 -18 -48 -1 -110 17 -110 33 0 4 12 1 28
-7 15 -7 50 -13 77 -13 l50 1 -48 8 c-51 9 -91 30 -118 63 -15 19 -18 19 -82
5 -37 -8 -67 -11 -67 -6 0 5 27 21 60 36 44 20 58 31 53 42 -4 8 -9 60 -11
115 -3 82 0 112 16 160 11 33 19 61 18 63 -2 1 -25 -7 -51 -18 -33 -14 -52
-17 -59 -10 -6 6 -6 13 0 18 5 5 63 54 129 109 66 55 158 136 205 181 87 84
119 94 88 30z m65 -882 c71 -29 111 -113 84 -178 l-14 -33 -12 58 c-15 69 -49
113 -99 126 -62 18 -115 -6 -163 -73 -23 -30 -29 -34 -29 -19 0 32 42 86 85
110 46 26 101 29 148 9z m322 -40 c20 -48 24 -148 6 -169 -33 -41 -91 -4 -91
58 1 40 48 145 67 145 2 0 10 -15 18 -34z" id="node25" class="node" stroke-width="20"></path>
<path d="M685 2573 c-129 -67 -196 -253 -160 -439 4 -20 5 -20 88 7 46 15 131
35 190 45 103 18 105 19 111 47 16 79 -6 217 -45 287 -38 66 -116 89 -184 53z" id="node26" class="node" stroke-width="20"></path>
<path d="M1143 2505 c-66 -40 -108 -116 -137 -247 -5 -22 -1 -30 16 -39 34
-18 157 -121 212 -178 57 -58 63 -56 100 18 43 86 61 204 46 294 -26 148 -131
215 -237 152z" id="node27" class="node" stroke-width="20"></path>
<path d="M992 2131 c6 -63 11 -68 36 -43 11 11 26 22 33 24 14 5 -14 36 -55
59 -18 10 -18 8 -14 -40z" id="node28" class="node" stroke-width="20"></path>
<path d="M805 2130 c-33 -10 -54 -19 -47 -19 7 -1 19 -15 26 -31 l12 -30 25
27 c73 82 74 80 -16 53z" id="node29" class="node" stroke-width="20"></path>
<path d="M585 2076 l-40 -12 40 -27 c22 -15 44 -27 50 -27 5 0 10 18 10 40 0
44 -1 44 -60 26z" id="node30" class="node" stroke-width="20"></path>
<path d="M750 2070 c0 -5 5 -10 10 -10 6 0 10 5 10 10 0 6 -4 10 -10 10 -5 0
-10 -4 -10 -10z" id="node31" class="node" stroke-width="20"></path>
<path d="M1158 2021 c2 -16 -1 -38 -7 -50 -10 -18 -9 -21 6 -23 25 -2 65 2 82
7 17 6 4 23 -49 65 l-36 29 4 -28z" id="node32" class="node" stroke-width="20"></path>
<path d="M1107 2034 c-8 -8 1 -24 14 -24 5 0 9 7 9 15 0 15 -12 20 -23 9z" id="node33" class="node" stroke-width="20"></path>
<path d="M1182 1813 c-19 -50 -23 -83 -12 -103 13 -24 36 -26 44 -4 13 34 3
134 -14 134 -4 0 -12 -12 -18 -27z" id="node34" class="node" stroke-width="20"></path>












<path d="M347 1505 c-15 -89 34 -462 66 -502 6 -9 5 -23 -3 -43 -16 -40 -8
-100 23 -158 13 -26 45 -89 71 -139 53 -104 63 -111 149 -97 29 4 97 9 152 10
71 1 100 5 103 14 12 36 -66 50 -169 29 -30 -6 -60 -11 -68 -12 -12 -2 -131
203 -131 225 0 4 8 8 18 8 19 0 52 -29 52 -45 0 -4 11 -23 26 -42 28 -37 62
-43 87 -15 25 27 21 42 -10 42 -21 0 -43 16 -93 70 -53 56 -73 72 -103 77 -27
4 -42 13 -51 32 -29 57 -69 264 -87 446 -12 127 -22 159 -32 100z" id="node47" class="node" stroke-width="20"></path>
<path d="M1373 1438 c-28 -14 -29 -28 -3 -177 27 -158 65 -306 93 -355 26 -47
97 -100 232 -171 l94 -50 26 25 c15 14 35 41 46 62 10 20 24 38 31 41 30 10
-11 42 -83 64 -83 25 -143 30 -137 11 5 -14 107 -46 151 -47 31 -1 36 -17 9
-25 -24 -8 -153 26 -254 66 -61 25 -82 38 -84 53 -2 11 -12 56 -23 100 -22 85
-61 332 -61 384 0 34 -3 35 -37 19z" id="node48" class="node" stroke-width="20"></path>
<path d="M1696 932 c12 -11 115 -34 122 -27 3 2 -11 12 -31 20 -38 16 -108 21
-91 7z" id="node49" class="node" stroke-width="20"></path>
<path d="M1500 817 c0 -1 9 -26 20 -55 22 -58 25 -103 10 -133 -9 -16 -7 -19
14 -19 34 0 46 26 46 97 l0 58 -45 27 c-25 15 -45 26 -45 25z" id="node50" class="node" stroke-width="20"></path>
<path d="M1615 667 c-1 -54 -9 -113 -25 -172 -28 -109 -32 -216 -7 -262 53
-100 154 -95 203 10 13 29 24 59 25 67 1 8 4 4 8 -10 9 -32 64 -60 120 -60 36
0 49 6 77 34 66 66 43 169 -58 262 -73 67 -156 124 -181 124 -14 0 -55 20 -91
45 -37 25 -68 45 -69 45 -1 0 -2 -37 -2 -83z" id="node51" class="node" stroke-width="20"></path>
<path d="M780 660 c-20 -6 -16 -8 23 -9 30 -1 46 3 42 9 -7 11 -29 11 -65 0z" id="node52" class="node" stroke-width="20"></path>
</g>
</svg>