<!--?xml version="1.0" standalone="no"?--><svg version="1.0" xmlns="http://www.w3.org/2000/svg" width="300.000000pt" height="300.000000pt" viewBox="0 0 300.000000 300.000000" preserveAspectRatio="xMidYMid meet">
<metadata>
  <rdf:rdf xmlns:rdf="http://www.w3.org/1999/02/22-rdf-syntax-ns#" xmlns:rdfs="http://www.w3.org/2000/01/rdf-schema#" xmlns:dc="http://purl.org/dc/elements/1.1/">
    <rdf:description dc:title="love break" dc:publisher="Hiox" dc:date="2015-03-26" dc:format="image/svg+xml" dc:language="en">
      <dc:creator>
        <rdf:bag>
          <rdf:li>svgimages.com</rdf:li>
        </rdf:bag>
      </dc:creator>
    </rdf:description>
  </rdf:rdf>
</metadata>
<g transform="translate(0.000000,300.000000) scale(0.100000,-0.100000)" fill="#030303" stroke="none">
<path d="M829 2550 c-215 -34 -419 -170 -502 -336 -66 -131 -89 -293 -51 -366
20 -39 11 -76 -48 -191 -39 -75 -39 -78 -24 -103 10 -13 31 -27 48 -31 30 -6
30 -7 25 -53 -4 -33 -1 -54 8 -66 8 -11 15 -31 15 -46 0 -27 30 -68 50 -68 6
0 10 -15 10 -34 0 -52 20 -95 51 -111 40 -21 119 -18 185 6 l56 21 32 -23 c17
-13 112 -82 211 -153 319 -229 435 -326 516 -434 24 -31 46 -61 50 -66 5 -5 1
13 -7 40 -8 27 -46 157 -85 289 l-70 240 98 95 c54 52 140 135 191 183 51 49
90 92 88 96 -3 4 -91 59 -196 121 -104 62 -190 116 -190 120 0 4 82 35 183 70
100 34 187 65 194 69 6 3 -65 55 -160 116 -94 61 -176 113 -181 117 -7 4 23
41 73 92 l84 85 -25 38 c-57 86 -195 201 -285 240 -99 42 -240 59 -344 43z" id="node1" class="node"></path>
<path d="M2008 2549 c-166 -22 -322 -122 -444 -284 -29 -38 -77 -99 -107 -135
l-56 -64 27 -16 c15 -9 114 -65 220 -125 105 -60 189 -112 185 -116 -5 -4 -82
-35 -173 -70 -91 -34 -169 -65 -173 -69 -4 -4 74 -56 173 -115 l181 -108 -23
-22 c-13 -12 -93 -84 -178 -160 -85 -76 -174 -156 -197 -176 l-42 -38 49 -213
c27 -117 57 -253 67 -302 l19 -88 38 61 c75 123 206 237 562 492 l221 158 54
-14 c138 -37 209 -2 209 104 0 43 18 61 55 58 24 -2 33 36 14 59 -9 12 -6 16
20 25 33 12 38 27 20 61 -15 27 5 47 57 55 44 7 64 19 64 40 0 8 -27 63 -60
122 -33 59 -60 116 -60 127 0 10 9 33 20 49 24 36 26 94 5 200 -36 187 -157
343 -335 428 -144 69 -277 93 -412 76z" id="node2" class="node"></path>
</g>
<g transform="translate(0.000000,300.000000) scale(0.100000,-0.100000)" fill="#9F9F9F" stroke="none">

</g>
</svg>