<!--?xml version="1.0" standalone="no"?--><svg version="1.0" xmlns="http://www.w3.org/2000/svg" width="300.000000pt" height="224.000000pt" viewBox="0 0 300.000000 224.000000" preserveAspectRatio="xMidYMid meet">
<metadata>
  <rdf:rdf xmlns:rdf="http://www.w3.org/1999/02/22-rdf-syntax-ns#" xmlns:rdfs="http://www.w3.org/2000/01/rdf-schema#" xmlns:dc="http://purl.org/dc/elements/1.1/">
    <rdf:description dc:title="love word red" dc:publisher="Hiox" dc:date="2015-04-11" dc:format="image/svg+xml" dc:language="en">
      <dc:creator>
        <rdf:bag>
          <rdf:li>svgimages.com</rdf:li>
        </rdf:bag>
      </dc:creator>
    </rdf:description>
  </rdf:rdf>
</metadata>
<g transform="translate(0.000000,224.000000) scale(0.100000,-0.100000)" fill="#FB0D0D" stroke="none">
<path d="M1745 1897 c-42 -20 -83 -64 -112 -121 -23 -46 -26 -48 -56 -42 -18
3 -39 15 -49 26 -22 27 -29 25 -18 -5 9 -25 9 -25 -15 -9 -14 9 -25 20 -25 25
0 5 -4 9 -10 9 -20 0 -10 -59 16 -89 19 -24 34 -31 60 -31 38 0 38 0 22 -35
-17 -37 -60 -58 -92 -45 -14 5 -26 14 -26 20 0 5 -4 10 -10 10 -5 0 -10 -7
-10 -15 0 -8 5 -15 12 -15 6 0 9 -3 6 -6 -10 -9 -48 16 -48 31 0 8 -4 15 -10
15 -5 0 -10 -7 -10 -16 0 -28 21 -55 53 -69 l32 -13 -28 -7 c-80 -20 -175 92
-153 180 6 23 11 25 54 22 44 -2 47 0 47 23 0 22 -4 25 -33 23 -78 -3 -123
-101 -87 -193 4 -12 -10 -15 -82 -15 -76 0 -96 -4 -145 -28 -143 -70 -213
-248 -159 -404 l18 -52 -26 -25 c-38 -36 -73 -46 -165 -46 -62 0 -87 4 -96 15
-11 13 -6 15 34 15 80 0 121 66 68 108 -22 17 -52 15 -52 -3 0 -17 16 -21 22
-5 2 6 8 6 18 -1 25 -16 -17 -40 -65 -37 l-40 3 -3 261 c-3 291 -6 275 69 297
24 7 43 17 42 22 -2 6 -76 11 -173 13 -142 2 -170 0 -170 -12 0 -9 15 -17 39
-21 77 -13 76 -8 79 -243 3 -191 1 -215 -18 -272 -12 -35 -20 -79 -18 -99 3
-35 2 -36 -39 -45 -62 -14 -56 -36 10 -36 l52 0 32 -74 c38 -85 44 -165 17
-222 -19 -41 -33 -52 -74 -64 -27 -8 -35 -6 -57 16 -31 31 -29 77 5 82 25 4
30 30 6 39 -9 3 -24 -3 -36 -15 -16 -16 -19 -27 -14 -56 18 -95 101 -126 172
-64 45 39 64 82 64 142 l0 45 32 -6 c22 -4 29 -3 24 5 -4 7 -13 12 -20 12 -17
0 -32 18 -50 62 l-15 35 63 -17 c127 -34 195 -121 136 -175 -22 -20 -50 -14
-50 12 0 12 -3 14 -10 7 -16 -16 -2 -41 30 -54 36 -15 78 3 97 40 12 24 12 24
32 -20 36 -79 23 -167 -31 -204 -19 -14 -23 -14 -33 1 -8 10 -14 12 -19 5 -3
-6 1 -17 9 -26 17 -17 55 -8 87 21 17 15 18 15 18 -3 0 -46 -65 -94 -127 -94
-46 0 -90 34 -104 80 -14 47 -2 73 25 51 10 -8 16 -9 21 -1 10 16 -4 30 -31
30 -18 0 -29 -9 -41 -35 -15 -31 -15 -42 -4 -83 15 -58 34 -79 82 -93 98 -30
209 47 209 144 l0 39 30 -31 c51 -50 140 -51 140 -1 0 18 -5 19 -39 14 -63
-10 -131 43 -131 103 0 12 3 13 14 4 17 -14 50 -1 60 24 4 11 -1 15 -20 15
-29 0 -69 38 -124 118 -21 31 -58 67 -93 89 -32 21 -53 39 -47 41 18 6 112
-19 167 -45 58 -27 91 -66 134 -158 17 -36 35 -65 40 -65 17 0 41 63 37 100
l-3 38 37 -34 c45 -41 73 -48 145 -41 104 11 165 82 167 197 1 32 -2 61 -5 65
-4 3 -22 -3 -40 -14 -19 -11 -52 -22 -74 -26 -37 -6 -36 -5 19 19 100 42 166
122 191 230 l11 49 53 -137 c29 -75 56 -136 60 -136 9 0 10 1 116 245 45 105
92 211 105 238 23 48 43 60 54 31 9 -24 7 -467 -3 -482 -5 -8 -23 -17 -41 -21
-19 -3 -35 -12 -38 -19 -3 -9 43 -12 197 -12 111 0 201 -2 201 -4 0 -2 -12
-24 -26 -49 -31 -57 -41 -140 -24 -202 13 -45 86 -135 110 -135 5 0 10 14 10
30 0 51 27 99 86 154 l56 52 28 -28 c55 -55 152 -34 165 36 9 44 -8 76 -40 76
-28 0 -35 -27 -10 -36 38 -15 -5 -84 -53 -84 -36 0 -59 16 -71 52 -9 26 -9 30
1 20 14 -14 58 -16 58 -3 0 6 -4 13 -10 16 -5 3 -10 19 -10 34 0 15 -7 36 -15
47 -21 28 -18 34 14 34 60 0 122 64 161 166 24 66 26 132 4 205 -22 76 -34 87
-51 51 -8 -17 -32 -37 -60 -51 -102 -50 -145 -110 -128 -180 l7 -26 14 25 15
25 -5 -25 c-3 -14 -9 -36 -13 -50 l-6 -24 34 21 c44 28 87 81 104 129 l14 39
0 -45 c1 -81 -59 -171 -125 -189 -24 -6 -30 -14 -36 -52 -13 -80 -18 -89 -73
-149 -39 -42 -55 -54 -55 -41 0 10 10 30 21 45 29 37 18 43 -28 16 -32 -18
-27 -11 29 42 53 50 68 71 74 102 9 51 -9 85 -57 108 -56 26 -68 71 -43 161 7
23 40 22 71 -3 33 -25 53 -26 53 0 0 22 -46 50 -82 50 -31 0 -65 -24 -83 -60
-25 -48 -19 -76 25 -124 l41 -44 -35 -37 c-30 -32 -37 -35 -56 -25 -13 7 -19
17 -16 27 3 8 6 17 6 20 0 3 7 0 15 -7 19 -16 40 -3 24 16 -17 21 -37 17 -55
-11 -13 -20 -15 -31 -6 -49 10 -22 8 -24 -20 -30 -17 -3 -54 -6 -84 -6 -79 0
-84 9 -84 146 l0 114 68 0 c78 0 97 -10 109 -59 5 -19 14 -36 21 -39 9 -3 12
26 12 113 0 88 -3 116 -12 113 -7 -3 -16 -20 -19 -38 -10 -48 -32 -60 -111
-60 l-68 0 0 104 c0 129 5 136 93 135 34 0 78 -5 97 -12 30 -11 69 -53 83 -90
3 -8 8 -9 14 -2 6 6 4 33 -5 73 l-14 62 -269 0 c-148 0 -269 -4 -269 -9 0 -4
15 -12 33 -17 24 -7 33 -16 35 -35 3 -22 -136 -386 -143 -377 -1 2 -35 90 -75
197 -71 185 -73 194 -55 207 10 8 27 14 37 14 10 0 18 5 18 10 0 6 -14 10 -31
10 l-30 0 22 33 c12 17 24 34 26 36 1 2 12 -4 23 -14 25 -23 70 -23 87 1 23
31 14 94 -13 94 -19 0 -18 -20 2 -35 24 -17 9 -55 -21 -55 -25 0 -55 24 -55
43 0 38 104 152 167 183 53 27 174 26 225 -1 l37 -20 -87 0 c-53 0 -96 -5
-110 -13 -28 -16 -24 -21 20 -33 21 -5 3 -6 -52 -3 -67 4 -89 2 -105 -10 -20
-15 -20 -15 2 -16 13 0 52 -11 89 -25 115 -43 183 -30 245 48 11 15 27 27 35
27 45 0 -30 81 -113 122 -74 36 -152 46 -198 25z m-500 -378 c54 -15 118 -82
141 -150 27 -80 25 -218 -5 -284 -25 -57 -62 -100 -106 -122 l-30 -16 32 30
c62 58 62 123 0 135 -49 9 -95 -28 -68 -55 10 -9 16 -8 26 7 19 25 45 13 45
-20 0 -31 -54 -90 -92 -99 -45 -12 -110 14 -154 60 -56 58 -78 125 -78 236 1
75 5 95 31 151 53 113 144 158 258 127z m-235 -631 c153 -76 164 -80 226 -80
24 0 44 -1 44 -3 0 -3 -18 -9 -40 -15 -49 -13 -141 7 -207 45 -23 14 -44 25
-46 25 -2 0 -2 -12 1 -26 4 -24 0 -22 -39 21 -67 72 -100 85 -221 85 -57 0
-110 5 -118 10 -10 8 28 10 125 8 l141 -3 134 -67z" id="node1" class="node"></path>
</g>
<g transform="translate(0.000000,224.000000) scale(0.100000,-0.100000)" fill="#FFFFFF" stroke="none">


<path d="M610 950 c8 -5 61 -10 118 -10 121 0 154 -13 221 -85 39 -43 43 -45
39 -21 -3 14 -3 26 -1 26 2 0 23 -11 46 -25 66 -38 158 -58 207 -45 22 6 40
12 40 15 0 2 -20 3 -44 3 -62 0 -73 4 -226 80 l-134 67 -141 3 c-97 2 -135 0
-125 -8z" id="node4" class="node"></path>
</g>
</svg>