<!--?xml version="1.0" standalone="no"?-->

<svg version="1.0" xmlns="http://www.w3.org/2000/svg" width="300.000000pt" height="214.000000pt" viewBox="0 0 300.000000 214.000000" preserveAspectRatio="xMidYMid meet">
<g transform="translate(0.000000,214.000000) scale(0.100000,-0.100000)" fill="#171010" stroke="none">
<path class="node" id="node1" d="M1040 2122 c-42 -34 -30 -76 37 -144 l59 -59 62 65 c70 73 78 102 35
135 -27 22 -54 21 -84 -5 -13 -11 -17 -11 -30 0 -25 25 -55 28 -79 8z"></path>
<path class="node" id="node2" d="M1555 1882 c-32 -11 -49 -25 -67 -53 -12 -19 -29 -28 -60 -34 -35 -6
-39 -8 -23 -15 11 -5 34 -9 50 -9 25 -1 34 -9 59 -52 28 -51 28 -51 16 -130
-14 -90 -5 -146 35 -215 25 -43 94 -106 153 -140 17 -10 32 -22 32 -25 0 -4
-18 -15 -40 -25 -45 -20 -36 -36 14 -27 82 14 113 14 127 0 8 -8 24 -17 36
-21 11 -4 29 -16 39 -28 l19 -21 -60 7 c-100 12 -110 12 -108 -1 2 -7 -10 -11
-30 -11 -42 1 -167 -36 -178 -54 -29 -46 8 -49 88 -9 73 37 131 50 234 54 l81
2 54 -60 c29 -33 52 -64 51 -69 -5 -16 -203 -85 -302 -106 -57 -13 -129 -20
-196 -20 l-107 0 -11 61 c-14 83 -45 144 -90 177 -20 15 -38 29 -41 32 -3 3
-32 14 -64 24 -86 26 -192 30 -353 12 -170 -19 -245 -20 -261 -4 -7 7 -12 8
-12 2 0 -5 -23 -10 -50 -12 -56 -3 -66 11 -22 31 15 6 31 17 35 24 4 7 19 13
32 13 14 0 25 6 25 13 1 6 26 28 56 47 104 65 147 155 137 280 -8 92 15 150
58 150 15 0 31 5 34 10 3 6 -4 10 -17 10 -14 0 -35 14 -53 36 -38 45 -96 56
-145 28 -47 -28 -188 -238 -267 -400 -38 -77 -80 -154 -93 -172 -22 -30 -28
-33 -60 -27 -19 4 -60 17 -90 31 l-55 24 30 -27 c17 -16 47 -42 68 -58 l38
-30 -61 -74 c-34 -40 -78 -101 -97 -134 -20 -34 -45 -72 -55 -84 -11 -11 -18
-31 -16 -43 3 -20 15 -11 101 70 53 50 97 89 97 85 0 -4 -18 -46 -40 -94 -40
-85 -40 -85 -11 -51 17 19 30 33 30 30 1 -3 -8 -38 -18 -77 -11 -40 -17 -73
-15 -73 4 0 28 53 65 140 29 71 68 128 143 213 l60 67 126 0 c184 0 270 -30
361 -123 124 -127 123 -281 -2 -372 -51 -38 -21 -30 39 10 107 73 136 172 81
283 -14 29 -24 52 -22 52 3 0 23 -11 46 -25 59 -34 164 -72 222 -80 85 -12 85
-11 85 -64 0 -171 -136 -390 -305 -493 -77 -46 -131 -61 -232 -61 -69 0 -90 4
-137 27 -155 76 -224 218 -228 471 -2 111 -16 135 -31 54 -18 -97 19 -301 70
-388 41 -70 126 -147 189 -171 99 -37 221 -25 358 35 16 7 18 5 13 -9 -12 -32
82 45 149 121 110 126 181 273 199 411 l7 52 97 0 c150 0 248 16 407 68 l146
48 40 -45 c23 -26 72 -112 116 -203 42 -86 78 -156 79 -154 2 2 -8 44 -23 94
-14 51 -24 97 -22 103 2 6 23 -17 47 -52 53 -79 51 -74 -27 78 -34 68 -62 125
-62 129 0 3 33 -26 73 -64 72 -70 181 -162 191 -162 14 0 4 49 -13 64 -11 10
-40 53 -65 96 -25 43 -70 105 -101 138 l-56 61 23 15 c13 8 64 29 114 45 161
54 254 38 294 -52 26 -56 26 -147 -1 -232 -17 -55 -31 -78 -77 -125 -31 -31
-68 -64 -81 -73 -14 -9 -22 -20 -18 -23 9 -10 90 59 134 114 20 26 40 51 44
55 3 5 4 -23 1 -62 -8 -115 33 -152 100 -91 l33 30 -38 -20 c-45 -22 -65 -17
-73 17 -10 39 3 174 21 217 38 90 11 251 -50 304 -75 66 -141 62 -332 -23 -68
-30 -126 -55 -128 -55 -7 0 -121 144 -147 185 -14 22 -57 103 -97 180 -40 77
-89 163 -109 192 -120 171 -178 246 -205 265 -31 23 -114 33 -152 20z m-366
-823 c79 -12 128 -37 169 -83 30 -34 70 -141 58 -153 -11 -12 -135 20 -231 60
-59 25 -121 59 -154 85 -29 25 -50 39 -46 32 4 -6 -19 2 -51 19 -33 16 -72 33
-89 38 -73 20 223 22 344 2z"></path>
<path class="node" id="node3" d="M1255 1436 c-27 -14 -88 -53 -135 -87 -47 -33 -112 -74 -145 -90 -67
-32 -64 -33 38 -18 230 33 314 57 366 105 38 33 69 89 58 100 -3 4 -34 8 -69
11 -53 3 -71 0 -113 -21z"></path>


<path class="node" id="node6" d="M2930 845 c-11 -13 -10 -15 1 -10 28 10 41 -11 38 -59 -4 -39 -2 -44
8 -30 20 27 27 82 13 99 -16 19 -44 19 -60 0z"></path>
<path class="node" id="node7" d="M2889 633 l-24 -28 28 24 c25 23 32 31 24 31 -2 0 -14 -12 -28 -27z"></path>




</g>
<g transform="translate(0.000000,214.000000) scale(0.100000,-0.100000)" fill="#A1A0A0" stroke="none">



</g>
</svg>