<!--?xml version="1.0" standalone="no"?-->

<svg version="1.0" xmlns="http://www.w3.org/2000/svg" width="300.000000pt" height="300.000000pt" viewBox="0 0 300.000000 300.000000" preserveAspectRatio="xMidYMid meet">
<g transform="translate(0.000000,300.000000) scale(0.100000,-0.100000)" fill="#080808" stroke="none">
<path d="M1216 2884 c-7 -19 10 -44 30 -44 19 0 18 -13 -7 -54 -29 -49 -98
-102 -192 -149 -109 -53 -179 -106 -235 -178 -36 -47 -51 -59 -66 -55 -11 3
-27 -1 -36 -9 -13 -12 -21 -10 -55 14 -22 15 -41 36 -43 48 -2 11 -11 28 -22
38 -18 16 -124 49 -140 43 -5 -2 7 -24 25 -50 39 -54 89 -85 109 -69 9 8 24 2
54 -20 l42 -31 -3 -61 c-2 -34 -11 -78 -19 -97 -20 -42 -38 -148 -38 -218 0
-87 -27 -182 -66 -229 -34 -41 -66 -54 -79 -33 -9 15 -42 12 -48 -4 -15 -38
63 -60 107 -31 12 8 54 19 92 25 38 5 119 16 179 24 114 16 215 21 215 10 0
-4 -18 -26 -39 -50 -41 -43 -93 -137 -105 -186 -6 -28 -7 -28 -86 -28 -77 0
-151 -18 -236 -57 -46 -21 -75 -92 -60 -148 4 -16 14 -75 22 -130 8 -55 21
-148 30 -207 17 -106 17 -107 -5 -153 -21 -45 -23 -47 -57 -41 -43 9 -51 -7
-31 -66 15 -43 15 -43 72 -48 64 -6 99 5 134 44 15 16 35 26 52 26 34 0 69 35
69 68 0 13 -8 36 -19 50 -25 37 -33 148 -15 215 10 34 12 72 8 112 l-6 59 23
-17 c24 -17 62 -36 110 -55 22 -9 27 -18 33 -67 7 -62 36 -139 73 -195 14 -21
23 -50 23 -74 0 -37 41 -126 58 -126 9 0 28 -43 42 -100 7 -25 27 -92 46 -150
19 -58 34 -115 34 -127 0 -12 -12 -31 -28 -42 -15 -11 -37 -30 -49 -42 -17
-17 -29 -21 -58 -16 -41 7 -54 -9 -37 -47 6 -13 6 -29 1 -38 -7 -13 2 -16 64
-21 64 -5 77 -3 115 20 31 18 52 23 70 18 76 -18 117 7 109 70 -2 23 -11 56
-20 75 -13 27 -18 85 -24 245 l-8 210 -37 55 c-35 52 -36 55 -22 88 9 22 14
70 14 134 0 90 2 103 23 127 35 42 53 130 39 192 -17 73 -15 87 18 129 27 34
36 38 102 48 53 8 84 19 115 41 24 17 46 31 49 31 3 0 15 -9 27 -21 12 -11 40
-35 61 -52 22 -18 61 -51 86 -75 73 -66 171 -76 201 -21 16 32 5 115 -23 169
-25 48 -224 260 -244 260 -21 0 -44 30 -44 56 0 28 17 32 35 7 8 -11 30 -18
65 -20 45 -2 51 -1 40 12 -6 8 -9 23 -5 36 6 19 12 21 54 15 87 -13 86 -13 89
16 2 16 16 37 33 50 73 55 156 146 162 178 15 73 8 113 -37 205 -25 49 -50
105 -57 123 -7 18 -26 44 -43 56 -36 27 -147 66 -187 66 -18 0 -30 6 -34 19
-3 10 -23 26 -45 36 -60 27 -76 49 -63 86 14 38 -3 39 -45 4 -17 -14 -34 -25
-40 -25 -13 0 -32 -54 -32 -90 0 -20 -9 -31 -41 -49 -45 -26 -79 -73 -79 -111
0 -38 -24 -108 -43 -131 -25 -28 -43 -11 -51 49 -3 26 -13 65 -21 87 -8 22
-19 66 -25 98 -6 31 -15 57 -19 57 -4 0 3 -39 16 -87 48 -178 54 -217 37 -226
-12 -7 -14 -18 -9 -48 4 -26 3 -45 -5 -54 -10 -12 -9 -16 4 -21 18 -7 22 -39
6 -49 -13 -8 -3 -72 16 -102 8 -13 22 -23 32 -23 10 0 23 -5 30 -12 17 -17 16
2 -3 61 -17 55 -46 173 -52 219 -6 40 14 44 22 5 4 -16 12 -50 20 -78 7 -27
25 -102 39 -165 15 -63 31 -132 38 -153 8 -25 8 -41 1 -48 -10 -10 -43 74 -43
110 0 24 -11 33 -24 22 -7 -6 -43 2 -96 21 -47 16 -103 35 -126 41 -22 7 -104
54 -181 106 l-141 95 -12 53 c-13 51 -12 53 16 90 57 75 153 150 304 236 25
15 51 35 58 47 16 26 29 25 35 -2 3 -13 3 11 0 52 -3 41 -11 90 -19 108 -14
34 -38 42 -48 16z m-98 -796 c2 -4 9 -8 16 -8 12 0 96 -57 108 -74 3 -5 32
-11 63 -14 40 -3 55 -8 51 -17 -3 -8 2 -16 11 -19 8 -4 13 -13 9 -21 -4 -10 1
-15 17 -15 19 -1 20 -2 6 -13 -8 -7 -18 -20 -22 -31 -7 -18 -8 -18 -26 -2 -18
17 -20 16 -29 -1 -10 -17 -11 -17 -17 -1 -4 9 -12 15 -19 12 -9 -3 -18 11 -26
40 -11 41 -21 50 -111 113 -55 37 -110 75 -123 83 -69 44 -227 154 -232 161
-3 5 -3 13 1 18 5 10 316 -193 323 -211z m-348 95 c14 -6 37 -16 52 -21 15 -6
38 -29 52 -50 32 -52 104 -110 145 -118 19 -4 39 -17 49 -33 17 -28 67 -77 86
-85 11 -5 6 -10 -54 -57 l-25 -20 55 5 c30 3 100 12 155 20 55 9 118 16 140
16 65 -1 19 -19 -77 -31 -46 -5 -127 -17 -180 -25 -53 -9 -106 -13 -118 -9
-24 7 -330 -22 -427 -41 -29 -6 -30 13 -4 64 10 20 24 71 30 112 7 41 16 89
21 105 5 17 16 53 24 82 24 78 35 105 44 101 4 -2 18 -9 32 -15z" id="node1" class="node"></path>
<path d="M2071 1918 c-5 -13 -6 -43 -1 -67 6 -31 4 -46 -7 -56 -15 -16 -30
-11 -82 28 -15 10 -42 17 -71 17 -31 0 -55 -6 -69 -17 -20 -18 -20 -18 47 -90
88 -94 107 -119 134 -175 28 -58 48 -63 48 -10 l1 37 28 -32 c50 -59 81 -31
45 40 l-17 32 24 -20 c13 -11 32 -28 42 -37 46 -46 72 -4 31 50 -28 36 -28 36
-4 19 56 -39 66 -45 93 -51 37 -9 36 14 -3 54 -52 53 -41 51 42 -7 26 -18 57
-33 68 -33 33 0 23 33 -21 64 -50 35 -45 42 12 16 24 -11 57 -20 73 -20 25 0
27 2 15 16 -7 8 -31 25 -53 37 -30 15 -36 22 -23 25 10 2 32 -1 49 -7 44 -16
93 -14 108 4 19 23 0 37 -57 46 -115 17 -199 50 -301 117 -33 21 -70 36 -97
40 -40 4 -45 2 -54 -20z" id="node2" class="node"></path>
</g>
<g transform="translate(0.000000,300.000000) scale(0.100000,-0.100000)" fill="#A2A2A2" stroke="none">

<path d="M795 2299 c-4 -5 -4 -13 -1 -18 5 -7 163 -117 232 -161 13 -8 68 -46
123 -83 90 -63 100 -72 111 -113 8 -29 17 -43 26 -40 7 3 15 -3 19 -12 6 -16
7 -16 17 1 9 17 11 18 29 1 18 -16 19 -16 26 2 4 11 14 24 22 31 14 11 13 12
-6 13 -16 0 -21 5 -17 15 4 8 -1 17 -9 21 -9 3 -14 11 -11 19 4 9 -11 14 -51
17 -31 3 -60 9 -63 14 -12 17 -96 74 -108 74 -7 0 -14 4 -16 8 -7 18 -318 221
-323 211z" id="node4" class="node"></path>

</g>
</svg>