<!--?xml version="1.0" standalone="no"?--><svg version="1.0" xmlns="http://www.w3.org/2000/svg" width="300.000000pt" height="150.000000pt" viewBox="0 0 300.000000 150.000000" preserveAspectRatio="xMidYMid meet">
<metadata>
  <rdf:rdf xmlns:rdf="http://www.w3.org/1999/02/22-rdf-syntax-ns#" xmlns:rdfs="http://www.w3.org/2000/01/rdf-schema#" xmlns:dc="http://purl.org/dc/elements/1.1/">
    <rdf:description dc:title="love word pink" dc:publisher="Hiox" dc:date="2015-04-11" dc:format="image/svg+xml" dc:language="en">
      <dc:creator>
        <rdf:bag>
          <rdf:li>svgimages.com</rdf:li>
        </rdf:bag>
      </dc:creator>
    </rdf:description>
  </rdf:rdf>
</metadata>
<g transform="translate(0.000000,150.000000) scale(0.100000,-0.100000)" fill="#E51C4F" stroke="none">
<path d="M1240 1358 c-53 -27 -78 -70 -82 -141 -3 -43 -5 -47 -24 -43 -29 8
-82 -12 -94 -34 -6 -10 -10 -30 -10 -45 l0 -26 -32 18 c-52 27 -133 23 -193
-10 -47 -27 -50 -27 -63 -10 -7 10 -12 29 -10 43 2 19 9 25 27 25 32 0 49 28
32 49 -32 38 -75 -3 -76 -70 0 -35 -3 -43 -15 -37 -43 19 -91 15 -124 -11 -34
-26 -35 -26 -41 -5 -4 11 -17 25 -29 31 -17 7 -22 16 -18 33 5 30 -28 49 -68
40 -43 -9 -71 -50 -69 -99 0 -23 -21 -122 -49 -221 -27 -99 -55 -200 -61 -224
l-12 -43 -23 21 c-28 26 -59 33 -92 21 -27 -10 -32 -37 -9 -46 12 -5 10 -11
-8 -35 -20 -28 -20 -32 -6 -57 26 -47 105 -27 86 22 -4 9 -16 16 -27 16 -12 0
-18 5 -15 10 10 16 40 12 57 -7 10 -11 15 -35 15 -61 -1 -35 3 -48 22 -63 21
-17 41 -19 203 -19 140 0 185 3 208 15 29 15 30 15 44 -20 19 -46 70 -77 119
-73 32 3 37 1 37 -18 0 -35 34 -58 76 -51 73 12 117 62 117 133 0 24 1 44 1
44 6 0 95 -38 107 -45 25 -16 49 -58 49 -86 0 -28 -34 -79 -53 -79 -8 0 -7 4
1 12 19 19 14 63 -8 83 -31 28 -79 24 -107 -9 -64 -74 16 -183 116 -156 43 11
73 40 95 90 8 19 15 29 16 23 0 -7 11 -13 24 -13 77 0 59 143 -23 178 l-38 16
53 38 c29 21 63 38 76 38 39 0 68 -27 67 -63 0 -29 -1 -30 -9 -10 -20 50 -100
32 -100 -22 0 -30 30 -66 55 -67 60 -4 93 26 97 89 2 27 5 30 20 22 37 -20 49
-71 24 -104 -12 -16 -16 -17 -30 -6 -13 11 -19 11 -31 1 -20 -17 -19 -27 5
-40 42 -22 89 39 76 100 -5 28 -4 30 25 30 44 0 98 29 119 62 l17 29 5 -52 c7
-69 30 -89 104 -89 70 0 115 19 149 64 34 45 82 50 120 11 27 -26 30 -41 15
-65 -8 -12 -10 -11 -10 5 0 26 -18 45 -42 45 -24 0 -58 -35 -58 -60 0 -28 44
-70 73 -70 56 0 104 79 78 128 -10 18 -8 19 34 15 24 -3 57 -1 74 5 29 10 31
9 31 -13 0 -14 11 -32 26 -44 25 -19 40 -21 201 -21 143 0 181 3 210 17 38 18
73 65 73 98 0 46 53 61 85 25 17 -18 17 -20 2 -14 -26 9 -64 -3 -69 -24 -14
-50 35 -92 83 -71 87 36 51 159 -47 159 -22 0 -45 -5 -52 -12 -9 -9 -12 -9
-12 0 0 25 52 62 87 62 31 0 33 -2 27 -25 -8 -31 20 -45 43 -23 20 21 2 55
-33 64 -54 14 -134 -25 -134 -65 0 -12 -3 -12 -12 -3 -8 8 -52 12 -131 12
-119 0 -119 0 -113 23 3 12 6 25 6 30 0 4 36 7 80 7 91 0 127 13 159 59 21 29
28 86 13 107 -15 23 -53 34 -123 34 -69 0 -71 1 -65 23 3 12 6 25 6 30 0 4 52
7 115 7 124 0 151 7 193 53 12 13 25 40 29 60 4 29 1 40 -20 61 l-26 26 -184
0 c-175 0 -186 -1 -218 -23 -18 -12 -40 -36 -49 -52 -8 -17 -16 -32 -18 -35
-2 -3 -17 10 -33 28 -23 25 -29 42 -27 65 3 27 7 31 33 32 25 0 30 4 30 25 0
20 -6 26 -27 28 -38 4 -62 -35 -55 -88 l5 -40 -26 20 c-69 53 -71 54 -112 41
-36 -10 -100 -69 -100 -91 0 -6 -4 -10 -10 -10 -5 0 -10 9 -10 20 0 11 -15 37
-33 56 -28 31 -42 37 -84 41 -45 5 -55 2 -77 -20 -14 -15 -26 -22 -26 -18 0 5
-13 14 -30 21 -33 14 -79 3 -113 -28 -17 -15 -21 -15 -25 -2 -3 8 -20 30 -38
48 -27 27 -39 32 -77 32 l-46 0 6 35 c10 63 -27 116 -70 100 -10 -4 -17 0 -21
13 -10 31 -59 69 -96 76 -26 4 -47 0 -80 -16z m36 -73 c-42 -39 -30 -93 27
-114 36 -14 84 4 101 38 11 21 21 26 47 25 28 -1 35 -5 37 -25 2 -14 -2 -37
-7 -52 -12 -32 -69 -70 -91 -61 -8 4 -41 8 -73 10 -70 4 -80 11 -103 70 -16
42 -16 47 -1 80 16 32 43 52 76 53 8 1 3 -9 -13 -24z m-831 -145 c-4 -6 -1
-17 5 -25 10 -12 9 -15 -2 -15 -9 0 -32 -11 -52 -25 l-36 -24 0 26 c0 34 36
73 67 73 14 0 22 -4 18 -10z m720 -25 c14 -13 25 -29 25 -35 0 -6 -18 -33 -39
-60 l-39 -49 -16 24 c-21 32 -21 32 13 38 48 10 49 87 0 87 -11 0 -17 5 -14
10 11 18 45 11 70 -15z m452 -9 c28 -24 28 -26 29 -140 l1 -116 -27 0 c-15 0
-36 11 -50 25 -22 24 -23 26 -6 44 34 37 11 65 -36 46 -13 -5 -18 -2 -18 9 0
9 -21 39 -46 66 -37 40 -42 49 -27 52 10 2 25 -5 34 -16 21 -25 51 -15 49 16
-3 36 -2 38 34 38 22 0 45 -9 63 -24z m358 -20 c34 -15 65 -59 65 -95 0 -17
-3 -16 -29 10 -37 36 -94 40 -135 8 l-26 -20 0 20 c0 14 6 21 19 21 23 0 45
25 38 44 -5 13 5 23 26 25 4 1 23 -5 42 -13z m-1259 -39 c26 -23 27 -25 11
-48 -11 -14 -17 -43 -17 -74 0 -41 -5 -56 -23 -73 -34 -32 -78 -38 -100 -14
-17 19 -17 19 8 14 31 -5 65 22 65 52 0 27 -27 66 -46 66 -8 0 -14 8 -14 19 0
10 -7 25 -16 32 -15 12 -14 15 6 31 32 26 93 23 126 -5z m194 8 c0 -8 -7 -15
-15 -15 -8 0 -15 7 -15 15 0 8 7 15 15 15 8 0 15 -7 15 -15z m440 0 c0 -8 -9
-15 -20 -15 -11 0 -20 7 -20 15 0 8 9 15 20 15 11 0 20 -7 20 -15z m-360 -15
c0 -11 -6 -20 -14 -20 -18 0 -29 16 -21 30 11 18 35 11 35 -10z m276 9 c10
-17 -13 -36 -27 -22 -12 12 -4 33 11 33 5 0 12 -5 16 -11z m-426 -19 c0 -21
-24 -28 -35 -10 -8 14 3 30 21 30 8 0 14 -9 14 -20z m580 0 c0 -11 -6 -20 -13
-20 -19 0 -27 10 -20 26 8 21 33 17 33 -6z m889 -16 c23 -29 27 -74 11 -105
-9 -15 -14 -17 -29 -7 -24 14 -51 4 -51 -20 0 -10 -13 -28 -30 -40 -21 -16
-30 -31 -30 -52 0 -48 48 -78 78 -48 9 9 12 9 12 1 0 -16 -40 -43 -62 -43 -10
0 -32 13 -50 29 l-32 28 72 120 c40 66 72 129 72 141 0 29 14 28 39 -4z
m-1365 1 c3 -8 16 -15 30 -15 16 0 25 -7 29 -21 3 -11 14 -23 25 -26 14 -3 18
-11 14 -28 -3 -16 2 -27 17 -35 12 -6 19 -15 16 -21 -10 -16 5 -48 26 -54 25
-8 49 11 49 39 0 12 9 30 21 40 12 10 19 25 16 36 -3 12 2 20 15 23 11 3 22
15 25 26 3 12 13 21 23 21 10 0 23 7 30 15 8 10 17 12 29 5 10 -5 27 -7 38 -4
13 4 22 0 26 -10 4 -9 16 -16 27 -16 13 0 20 -7 20 -19 0 -11 4 -22 8 -25 11
-7 8 -87 -5 -111 -6 -11 -8 -26 -6 -32 3 -7 -3 -20 -12 -29 -9 -10 -15 -25
-12 -34 2 -9 -4 -22 -14 -29 -11 -6 -19 -19 -19 -29 0 -9 -9 -23 -20 -30 -11
-7 -20 -17 -20 -23 0 -6 -11 -20 -25 -31 -14 -11 -25 -26 -25 -34 0 -8 -3 -13
-7 -13 -22 4 -35 -3 -45 -26 -6 -13 -15 -22 -20 -19 -14 9 -47 -6 -53 -25 -4
-13 -13 -16 -35 -13 -17 2 -30 8 -30 13 0 5 -12 15 -27 21 -16 7 -38 23 -50
35 -13 13 -28 20 -37 17 -11 -4 -16 0 -16 15 0 11 -9 26 -20 33 -11 7 -20 18
-20 25 0 7 -9 18 -20 25 -11 7 -20 18 -20 25 0 6 -8 19 -17 29 -9 9 -19 26
-20 37 -2 11 -9 27 -16 35 -6 8 -11 24 -9 34 2 11 -2 25 -8 33 -6 8 -9 23 -5
34 3 11 1 29 -5 41 -7 13 -7 20 -1 20 6 0 13 11 17 25 4 15 13 25 24 25 10 0
21 7 24 16 4 10 14 14 25 11 10 -2 25 -1 32 4 20 12 26 11 33 -6z m112 -16
c10 -17 -13 -36 -27 -22 -12 12 -4 33 11 33 5 0 12 -5 16 -11z m149 -9 c0 -22
-29 -18 -33 3 -3 14 1 18 15 15 10 -2 18 -10 18 -18z m1175 -25 c0 -5 -11 -47
-23 -93 l-23 -83 -22 30 c-19 26 -20 31 -6 42 28 23 46 71 41 105 -5 31 -4 32
14 21 10 -6 19 -16 19 -22z m-1597 18 c9 -9 -13 -34 -24 -27 -14 8 -11 34 4
34 8 0 17 -3 20 -7z m692 -13 c0 -22 -29 -18 -33 3 -3 14 1 18 15 15 10 -2 18
-10 18 -18z m520 -10 c23 -26 19 -39 -56 -161 l-64 -104 -8 94 c-4 52 -6 96
-3 98 2 2 13 -1 24 -8 24 -15 68 0 78 26 9 24 -4 63 -24 68 -11 3 -8 5 9 6 14
0 34 -8 44 -19z m-900 -40 c0 -22 -29 -18 -33 3 -3 14 1 18 15 15 10 -2 18
-10 18 -18z m71 9 c7 -12 -15 -31 -28 -23 -4 3 -8 12 -8 20 0 17 26 19 36 3z
m-393 -34 c1 -5 -6 -11 -15 -13 -11 -2 -18 3 -18 13 0 17 30 18 33 0z m715 3
c-7 -19 -38 -22 -38 -4 0 10 9 16 21 16 12 0 19 -5 17 -12z m54 -64 c-15 -6
-29 -10 -31 -8 -2 2 0 19 3 39 l7 35 23 -27 24 -28 -26 -11z m-412 21 c0 -19
-20 -29 -32 -17 -8 8 -7 16 2 26 14 17 30 12 30 -9z m-553 -68 l31 -9 -24 -36
c-13 -19 -24 -42 -24 -50 0 -13 -3 -12 -20 3 -14 13 -28 16 -51 11 -26 -5 -30
-3 -25 11 4 9 14 45 22 79 l16 64 22 -32 c12 -18 35 -36 53 -41z m209 42 c10
-17 -13 -36 -27 -22 -12 12 -4 33 11 33 5 0 12 -5 16 -11z m689 -9 c0 -8 -8
-16 -17 -18 -13 -2 -18 3 -18 18 0 15 5 20 18 18 9 -2 17 -10 17 -18z m163
-37 c15 -14 21 -36 26 -92 l7 -75 -24 22 c-13 12 -29 22 -35 22 -9 0 -8 8 3
29 11 22 12 37 6 55 -11 26 -43 42 -63 30 -9 -6 -9 -3 1 9 17 22 53 22 79 0z
m-830 -40 c-4 -22 -22 -20 -26 1 -2 10 3 16 13 16 10 0 15 -7 13 -17z m642 2
c0 -8 -9 -15 -20 -15 -20 0 -26 11 -13 23 12 13 33 7 33 -8z m-694 -36 c10
-23 35 -65 55 -94 27 -39 32 -51 19 -48 -26 7 -59 -14 -71 -44 -13 -35 12 -73
47 -73 14 0 22 -4 19 -10 -3 -5 -21 -10 -40 -10 -40 0 -75 37 -75 80 0 15 -7
33 -15 40 -13 11 -11 15 11 33 33 25 44 55 32 88 -8 23 -44 49 -68 49 -5 0
-18 -10 -30 -22 -11 -12 -20 -16 -20 -9 0 25 48 61 83 61 30 0 36 -5 53 -41z
m751 -80 c-31 -43 -4 -109 44 -109 11 0 17 -4 14 -10 -8 -13 -48 -13 -78 1
-50 23 -65 97 -33 167 l18 40 28 -31 28 -31 -21 -27z m-663 56 c3 -9 -1 -18
-10 -22 -19 -7 -28 2 -21 22 8 19 23 19 31 0z m576 -10 c0 -19 -20 -29 -32
-17 -15 15 -2 43 17 36 8 -3 15 -12 15 -19z m868 -55 c-11 -41 -29 -85 -40
-97 -41 -44 -124 -37 -147 14 -16 34 -14 39 9 18 25 -23 65 -22 91 1 17 15 20
27 16 61 -4 35 -1 43 12 43 9 0 30 8 46 19 17 10 31 18 32 17 1 -1 -8 -35 -19
-76z m-1752 -14 c-14 -22 -24 -26 -62 -26 -42 0 -45 1 -38 23 9 30 12 33 26
19 20 -20 56 -14 63 9 5 15 10 18 17 11 8 -8 6 -19 -6 -36z m349 14 c0 -8 -8
-16 -17 -18 -13 -2 -18 3 -18 18 0 15 5 20 18 18 9 -2 17 -10 17 -18z m491 9
c10 -17 -13 -36 -27 -22 -12 12 -4 33 11 33 5 0 12 -5 16 -11z m-1182 -40 c14
-11 26 -27 26 -35 0 -13 -4 -12 -30 1 -16 8 -35 15 -42 15 -8 0 -14 9 -14 20
0 26 26 26 60 -1z m736 -24 c0 -8 -6 -15 -14 -15 -17 0 -28 14 -19 24 12 12
33 6 33 -9z m400 0 c0 -8 -6 -15 -14 -15 -17 0 -28 14 -19 24 12 12 33 6 33
-9z m-340 -49 c0 -8 -5 -18 -11 -22 -14 -8 -33 11 -25 25 10 16 36 13 36 -3z
m280 0 c0 -8 -5 -18 -11 -22 -14 -8 -33 11 -25 25 10 16 36 13 36 -3z m-215
-47 c0 -7 -8 -15 -17 -17 -18 -3 -25 18 -11 32 10 10 28 1 28 -15z m149 -10
c-8 -14 -34 -11 -34 4 0 8 3 17 7 20 9 9 34 -13 27 -24z m-210 -22 c11 -8 20
-31 23 -60 5 -43 3 -49 -30 -82 -35 -35 -92 -51 -81 -21 7 17 -24 49 -42 42
-11 -4 -11 -2 -1 14 9 16 9 24 -2 41 -11 18 -11 23 1 30 9 6 14 2 16 -14 9
-53 63 -74 96 -38 33 37 -3 89 -44 63 -17 -10 -20 -10 -20 2 0 31 53 45 84 23z
m136 -7 c0 -11 -6 -20 -14 -20 -18 0 -29 16 -21 30 11 18 35 11 35 -10z m-390
-35 c16 -8 38 -15 48 -15 13 0 21 -9 24 -25 6 -30 2 -35 -29 -35 -35 0 -74 29
-90 67 -14 36 -7 68 9 39 5 -9 22 -23 38 -31z m535 -27 c28 -33 35 -91 10 -82
-8 4 -22 1 -29 -5 -12 -10 -16 -6 -21 19 -4 17 -20 46 -36 65 -18 20 -25 35
-18 37 28 9 71 -6 94 -34z" id="node1" class="node" stroke-width="20"></path>
<path d="M1002 1237 c-12 -7 -29 -23 -38 -35 -30 -43 6 -100 41 -65 14 14 14
18 1 39 -15 21 -14 24 6 39 28 19 75 19 111 1 15 -8 27 -11 27 -6 0 16 -57 40
-92 40 -18 -1 -43 -6 -56 -13z" id="node2" class="node" stroke-width="20"></path>
</g>
<g transform="translate(0.000000,150.000000) scale(0.100000,-0.100000)" fill="#FFFFFF" stroke="none">




















































</g>
</svg>