<!--?xml version="1.0" standalone="no"?-->

<svg version="1.0" xmlns="http://www.w3.org/2000/svg" width="300.000000pt" height="300.000000pt" viewBox="0 0 300.000000 300.000000" preserveAspectRatio="xMidYMid meet">
<g transform="translate(0.000000,300.000000) scale(0.100000,-0.100000)" fill="#141414" stroke="none">
<path stroke-width="20" class="node" id="node1" d="M774 2967 c-71 -75 -116 -159 -159 -297 -37 -119 -46 -209 -44 -439
l2 -215 -24 -15 c-114 -75 -248 -196 -314 -281 -145 -189 -197 -408 -139 -588
52 -161 149 -273 299 -347 75 -36 106 -46 185 -55 62 -7 119 -8 165 -2 39 5
73 8 76 6 6 -3 21 -53 38 -127 6 -26 11 -100 11 -164 0 -93 -5 -132 -22 -186
-70 -223 -301 -232 -447 -19 -29 42 -22 66 18 57 34 -7 106 20 133 52 47 52
27 166 -36 204 -63 39 -172 8 -208 -59 -23 -43 -16 -178 12 -242 39 -90 110
-163 202 -210 102 -52 153 -53 235 -9 76 41 80 45 119 105 66 102 80 287 40
527 -8 49 -12 95 -10 102 3 7 19 19 35 26 66 27 198 194 199 251 0 9 5 20 10
23 6 3 10 51 10 109 0 95 2 106 26 142 46 68 96 125 107 121 6 -2 10 -40 11
-92 1 -103 19 -144 76 -182 41 -29 118 -30 175 -4 54 24 119 98 151 168 14 32
30 66 35 75 5 10 9 34 9 53 0 25 5 37 18 41 9 3 38 13 64 24 27 10 50 15 53
10 3 -5 -2 -40 -10 -78 -21 -103 -5 -181 50 -238 51 -53 96 -64 163 -39 54 20
136 99 167 160 22 42 54 56 80 35 7 -6 34 -12 59 -14 25 -1 47 -4 49 -7 2 -2
11 -23 22 -47 25 -57 82 -108 132 -117 77 -13 192 35 287 118 36 32 47 48 45
66 -4 23 -5 23 -55 -16 -143 -114 -243 -122 -273 -22 -16 52 -8 60 69 79 62
15 79 23 134 64 46 35 66 78 66 141 0 36 -5 51 -25 69 -67 63 -217 33 -307
-61 -36 -38 -88 -139 -88 -173 0 -10 -8 -28 -19 -41 -17 -21 -21 -22 -57 -11
-69 21 -71 25 -46 76 35 70 48 146 33 195 -10 37 -15 41 -43 41 -23 0 -42 -11
-74 -44 -41 -41 -44 -47 -44 -98 0 -31 7 -73 16 -93 21 -51 12 -92 -33 -151
-50 -65 -73 -83 -105 -84 -99 -1 -104 175 -10 380 37 81 37 90 5 90 -15 -1
-52 -6 -81 -13 -46 -11 -56 -18 -75 -52 -29 -51 -82 -87 -122 -83 -28 3 -30 7
-37 53 -5 36 -14 56 -33 72 -55 48 -164 40 -263 -21 -55 -33 -186 -157 -220
-208 -29 -42 -88 -108 -99 -108 -5 0 -19 23 -31 51 -27 60 -100 141 -157 174
-45 26 -125 45 -190 45 -24 0 -47 4 -50 10 -7 11 -35 192 -35 227 0 13 10 31
22 41 139 111 212 212 269 372 19 55 22 84 22 192 0 71 -5 140 -11 155 -5 16
-20 62 -32 103 -28 94 -116 280 -133 280 -6 -1 -26 -15 -43 -33z m46 -164 c6
-16 14 -37 19 -48 25 -56 36 -130 36 -245 0 -137 -8 -175 -61 -286 -35 -72
-117 -164 -148 -164 -46 0 -23 462 30 612 24 68 84 158 106 158 5 0 13 -12 18
-27z m-200 -1022 c1 -14 7 -59 14 -98 7 -40 10 -76 7 -81 -3 -4 -24 -19 -47
-34 -64 -41 -105 -88 -136 -155 -64 -142 -19 -334 100 -431 45 -35 148 -72
203 -72 36 0 39 -2 45 -36 10 -53 -3 -59 -114 -59 -144 0 -225 35 -315 135
-122 135 -167 349 -110 519 35 105 156 248 277 328 54 36 76 32 76 -16z m1015
-141 c1 -42 27 -99 48 -100 10 0 9 -106 -2 -128 -34 -70 -48 -91 -78 -123 -19
-20 -52 -45 -74 -54 -36 -17 -40 -17 -65 -1 -58 39 -70 145 -29 265 13 40 36
86 50 102 14 17 25 34 25 39 0 16 66 49 95 47 29 -2 30 -4 30 -47z m1139 8
c44 -62 -16 -156 -128 -203 -49 -21 -67 -8 -59 43 9 67 25 104 60 143 29 32
42 39 74 39 28 0 42 -6 53 -22z m-1846 -207 c61 -39 109 -110 122 -183 11 -58
-5 -107 -65 -187 -39 -54 -111 -109 -124 -95 -5 5 -14 34 -19 64 -6 30 -15 73
-21 95 -6 22 -14 58 -20 80 -5 22 -16 67 -24 100 -8 33 -18 84 -22 114 l-7 53
64 -4 c52 -3 75 -10 116 -37z m-240 -46 c14 -50 37 -152 52 -230 7 -33 16 -78
21 -100 5 -22 12 -57 16 -77 6 -38 6 -38 -30 -38 -65 0 -151 50 -191 111 -77
116 -43 286 72 364 41 28 44 26 60 -30z m382 -318 c0 -37 -71 -147 -119 -183
-49 -38 -66 -42 -75 -18 -13 35 -3 53 54 98 32 26 72 64 87 86 31 44 53 51 53
17z"></path>
</g>
<g transform="translate(0.000000,300.000000) scale(0.100000,-0.100000)" fill="#A0A0A0" stroke="none">









</g>
</svg>