<!--?xml version="1.0" standalone="no"?-->

<svg version="1.0" xmlns="http://www.w3.org/2000/svg" width="272.000000pt" height="300.000000pt" viewBox="0 0 272.000000 300.000000" preserveAspectRatio="xMidYMid meet">
<g transform="translate(0.000000,300.000000) scale(0.100000,-0.100000)" fill="#030303" stroke="none">
<path stroke-width="20" class="node" id="node1" d="M1744 2980 c-82 -42 -135 -98 -164 -176 -9 -23 -6 -30 25 -60 34 -31
35 -35 21 -56 -25 -39 -46 -129 -46 -196 0 -69 2 -67 -55 -47 l-20 7 20 -17
c11 -9 27 -21 35 -26 11 -7 12 -12 3 -15 -7 -3 -10 -11 -7 -19 8 -19 -21 -69
-64 -112 -20 -20 -45 -48 -54 -62 -10 -14 -18 -20 -18 -12 0 8 -24 46 -54 85
-67 89 -69 94 -71 191 -1 89 -25 163 -79 255 -19 30 -36 73 -39 95 -4 21 -19
57 -35 79 -55 75 -146 101 -257 72 -32 -9 -98 -16 -145 -16 -110 0 -145 -17
-183 -87 -15 -29 -41 -60 -56 -69 -36 -21 -58 -59 -72 -123 -7 -32 -23 -66
-45 -92 -19 -22 -34 -49 -34 -58 0 -10 16 -51 36 -92 34 -70 36 -78 29 -141
-9 -91 7 -136 67 -195 70 -69 75 -99 37 -198 -17 -44 -37 -100 -46 -123 -8
-24 -32 -61 -53 -83 l-37 -39 -90 0 c-108 0 -146 -13 -197 -71 -56 -61 -88
-139 -94 -224 -6 -90 9 -160 54 -253 75 -155 157 -227 711 -622 381 -272 384
-274 545 -394 l118 -88 107 78 c107 77 364 268 393 291 8 6 60 47 115 90 247
193 458 386 556 509 27 34 64 93 82 130 28 60 32 80 32 149 0 93 -19 142 -90
229 -57 69 -126 101 -199 92 -173 -21 -161 -21 -183 10 -11 16 -24 40 -28 53
-7 22 -5 23 16 17 13 -3 61 -13 107 -21 128 -23 208 0 242 70 22 46 24 93 6
144 -12 34 -24 43 -139 97 -75 35 -80 102 -18 240 33 74 41 103 41 150 0 65
-21 120 -64 171 -31 36 -56 93 -56 125 0 82 -73 183 -139 193 -73 12 -81 16
-124 60 -56 57 -180 117 -251 122 -38 3 -62 -1 -92 -17z m-276 -839 c26 -22
28 -34 7 -51 -14 -12 -14 -15 2 -32 12 -13 14 -21 6 -29 -14 -14 -5 -39 14
-39 11 0 13 -9 8 -43 -10 -65 2 -71 161 -75 l133 -4 15 -32 c8 -17 22 -58 31
-90 16 -56 16 -63 1 -112 -32 -102 -68 -117 -177 -74 -33 13 -88 24 -139 27
-84 5 -86 5 -164 -36 -67 -34 -89 -41 -138 -41 -94 0 -158 47 -158 116 0 32
41 163 71 227 l13 28 97 -7 c90 -6 98 -5 108 13 5 11 8 37 4 57 -5 30 -3 36
12 36 13 0 16 6 12 27 -3 15 0 35 6 45 9 14 8 20 -7 31 -18 13 -18 15 -2 28
10 8 25 22 34 32 20 21 22 21 50 -2z m-420 -653 c104 -37 188 -96 291 -204 50
-52 92 -94 94 -94 2 0 30 26 63 58 112 110 213 177 329 220 59 22 87 26 180
26 101 1 114 -1 161 -26 206 -109 259 -319 140 -556 -75 -148 -162 -237 -386
-392 -308 -213 -416 -310 -461 -415 -13 -30 -27 -55 -31 -55 -3 0 -9 13 -13
30 -21 95 -153 230 -425 434 -265 199 -288 220 -409 372 -23 28 -70 144 -79
194 -30 156 -23 227 31 307 33 50 107 106 161 123 17 5 87 8 156 6 104 -2 137
-7 198 -28z"></path>
<path class="node" id="node2" d="M737 1500 c-87 -15 -179 -86 -213 -165 -21 -48 -23 -177 -3 -258 40
-171 142 -293 419 -501 305 -230 398 -314 450 -405 37 -64 47 -72 57 -43 16
43 100 136 185 204 51 41 167 126 258 189 217 150 326 257 392 385 54 107 72
183 66 274 -6 84 -29 132 -98 201 -94 96 -216 122 -375 80 -130 -34 -219 -89
-356 -218 l-91 -87 -36 44 c-163 202 -317 289 -532 303 -41 3 -96 1 -123 -3z
m348 -123 c100 -29 176 -79 273 -181 l73 -77 79 73 c139 130 249 180 395 182
61 0 91 -5 126 -20 63 -29 116 -78 147 -138 23 -44 27 -62 26 -136 0 -79 -3
-92 -41 -170 -69 -142 -140 -216 -343 -355 -239 -164 -327 -244 -366 -332
l-26 -58 -18 47 c-38 100 -100 164 -328 336 -270 204 -333 268 -395 402 -25
54 -31 82 -35 162 -4 85 -2 102 18 142 63 131 222 178 415 123z"></path>
<path class="node" id="node3" d="M828 1365 c-61 -17 -100 -48 -133 -109 -24 -42 -27 -59 -27 -127 2
-134 61 -257 174 -365 35 -33 135 -114 223 -179 172 -129 323 -270 346 -322
17 -40 23 -41 39 -4 22 55 174 187 343 300 161 108 274 213 326 304 95 166 92
307 -7 410 -65 67 -103 82 -212 81 -80 0 -105 -5 -159 -28 -87 -37 -162 -90
-245 -171 l-68 -67 -31 39 c-57 71 -156 160 -217 192 -100 54 -252 74 -352 46z"></path>
</g>
<g transform="translate(0.000000,300.000000) scale(0.100000,-0.100000)" fill="#A3346F" stroke="none">



<path class="node" id="node7" d="M694 1510 c-54 -17 -128 -73 -161 -123 -54 -80 -61 -151 -31 -307 9
-50 56 -166 79 -194 121 -152 144 -173 409 -372 272 -204 404 -339 425 -434 4
-17 10 -30 13 -30 4 0 18 25 31 55 45 105 153 202 461 415 224 155 311 244
386 392 119 237 66 447 -140 556 -47 25 -60 27 -161 26 -93 0 -121 -4 -180
-26 -116 -43 -217 -110 -329 -220 -33 -32 -61 -58 -63 -58 -2 0 -44 42 -94 94
-103 108 -187 167 -291 204 -61 21 -94 26 -198 28 -69 2 -139 -1 -156 -6z
m300 -26 c68 -17 165 -62 216 -102 47 -37 138 -127 182 -182 l36 -44 91 87
c137 129 226 184 356 218 159 42 281 16 375 -80 69 -69 92 -117 98 -201 6 -91
-12 -167 -66 -274 -66 -128 -175 -235 -392 -385 -91 -63 -207 -148 -258 -189
-85 -68 -169 -161 -185 -204 -10 -29 -20 -21 -57 43 -52 91 -145 175 -450 405
-277 208 -379 330 -419 501 -20 81 -18 210 3 258 34 79 126 150 213 165 61 10
180 3 257 -16z"></path>
<path class="node" id="node8" d="M811 1381 c-63 -25 -115 -72 -141 -127 -20 -40 -22 -57 -18 -142 4
-80 10 -108 35 -162 62 -134 125 -198 395 -402 228 -172 290 -236 328 -336
l18 -47 26 58 c39 88 127 168 366 332 203 139 274 213 343 355 38 78 41 91 41
170 1 74 -3 92 -26 136 -31 60 -84 109 -147 138 -35 15 -65 20 -126 20 -146
-2 -256 -52 -395 -182 l-79 -73 -73 77 c-40 42 -100 95 -133 117 -114 78 -310
110 -414 68z m233 -16 c43 -8 103 -28 136 -46 61 -32 160 -121 217 -192 l31
-39 68 67 c83 81 158 134 245 171 54 23 79 28 159 28 109 1 147 -14 212 -81
77 -80 96 -175 58 -293 -49 -155 -154 -272 -377 -421 -169 -113 -321 -245
-343 -300 -16 -37 -22 -36 -39 4 -23 52 -174 193 -346 322 -88 65 -188 146
-223 179 -113 108 -172 231 -174 365 0 68 3 85 27 127 61 111 168 144 349 109z"></path>


</g>
</svg>