<!--?xml version="1.0" standalone="no"?-->

<svg version="1.0" xmlns="http://www.w3.org/2000/svg" width="293.000000pt" height="300.000000pt" viewBox="0 0 293.000000 300.000000" preserveAspectRatio="xMidYMid meet">
<g transform="translate(0.000000,300.000000) scale(0.100000,-0.100000)" fill="#3E3D3E" stroke="none">
<path d="M1804 2966 c-65 -65 -37 -121 82 -165 l56 -21 33 20 c56 35 115 106
115 139 0 60 -66 77 -145 39 l-45 -22 -23 22 c-13 12 -27 22 -31 22 -4 0 -23
-15 -42 -34z m253 -26 c3 -30 -19 -58 -77 -98 -39 -26 -47 -28 -79 -20 -84 24
-117 81 -70 124 21 19 21 18 46 -10 l24 -29 27 25 c34 32 48 37 92 35 29 -2
35 -6 37 -27z" id="node1" class="node" stroke-width="20"></path>
<path d="M2593 2944 c-17 -9 -37 -29 -43 -45 -16 -37 -3 -71 59 -156 37 -50
50 -62 66 -57 11 3 44 12 73 19 100 25 137 68 108 124 -24 45 -59 65 -106 58
-32 -4 -40 -2 -45 14 -7 21 -52 59 -69 59 -6 0 -25 -7 -43 -16z m77 -43 c5
-11 10 -30 10 -42 0 -18 4 -20 23 -14 62 20 84 18 106 -11 12 -15 20 -35 19
-43 -4 -21 -104 -70 -145 -70 -26 -1 -36 6 -62 45 -55 83 -51 154 9 154 19 0
33 -7 40 -19z" id="node2" class="node" stroke-width="20"></path>
<path d="M1144 2910 c-27 -11 -54 -53 -54 -85 0 -35 66 -96 131 -120 30 -11
57 -21 61 -23 11 -5 118 98 134 130 19 38 18 51 -11 82 -20 21 -33 26 -73 26
-36 0 -54 -5 -67 -20 -15 -17 -20 -17 -39 -6 -31 20 -58 26 -82 16z m235 -39
l24 -18 -31 -45 c-44 -64 -89 -100 -116 -92 -38 11 -124 75 -130 97 -7 30 19
67 49 67 14 0 32 -11 44 -26 l21 -26 29 31 c34 36 73 40 110 12z" id="node3" class="node" stroke-width="20"></path>
<path d="M2130 2743 c-27 -11 -114 -75 -163 -120 -37 -34 -52 -43 -69 -37 -26
8 -91 7 -121 -2 -12 -3 -47 -22 -78 -40 -41 -25 -68 -34 -100 -34 -85 0 -176
-35 -275 -105 -65 -47 -124 -108 -124 -129 0 -34 96 -76 177 -76 71 0 229 41
310 82 30 15 47 6 83 -43 40 -56 49 -90 25 -103 -10 -6 -40 -28 -66 -49 -27
-20 -49 -34 -49 -29 0 4 -14 22 -30 39 -72 74 -255 85 -309 19 -21 -25 -15
-93 13 -143 14 -23 20 -43 15 -43 -24 0 -79 31 -136 76 -151 120 -177 134
-258 134 -73 0 -112 -12 -180 -55 -55 -35 -158 -135 -180 -175 -47 -85 -106
-216 -116 -257 -6 -27 -11 -82 -12 -124 -1 -86 25 -155 71 -188 47 -32 144
-59 242 -66 80 -7 99 -11 118 -31 l23 -23 -48 -21 c-140 -62 -234 -76 -241
-35 -5 27 -31 55 -52 55 -13 0 -19 11 -23 46 -7 64 -37 94 -96 94 -49 0 -90
-20 -131 -63 -30 -32 -41 -33 -66 -6 -27 29 -68 49 -103 49 -41 0 -107 -63
-116 -111 -15 -81 44 -195 146 -283 58 -49 144 -106 161 -106 8 0 35 22 62 49
44 45 51 48 86 44 31 -4 41 -1 64 23 14 16 26 32 26 37 0 4 17 0 38 -9 20 -9
57 -23 82 -31 25 -8 54 -19 65 -23 11 -5 29 -10 40 -12 21 -4 21 -6 5 -83 -12
-59 -5 -104 26 -167 31 -62 91 -112 210 -174 l99 -51 19 -57 c22 -66 19 -72
-53 -100 -46 -18 -111 -63 -111 -77 0 -4 18 -14 41 -20 l41 -13 -26 -13 c-34
-18 -33 -29 7 -50 44 -24 259 -30 335 -10 29 8 55 11 57 7 14 -23 197 -62 285
-61 46 0 132 15 148 24 8 6 9 14 2 26 -11 22 -4 31 27 31 14 0 23 6 23 15 0
16 -85 87 -134 112 -17 8 -32 17 -34 18 -6 5 57 135 65 135 27 0 146 24 188
37 120 38 263 127 286 177 10 22 18 24 103 29 84 4 93 3 112 -18 12 -12 36
-28 54 -35 27 -11 36 -11 66 4 29 13 35 21 32 44 -2 18 -13 32 -34 42 l-31 16
21 27 c30 40 28 123 -3 148 -43 35 -156 15 -182 -32 -5 -11 -7 -36 -3 -56 l7
-36 -33 7 c-19 3 -35 8 -37 9 -1 2 0 33 4 69 l6 65 63 28 c70 30 134 83 134
110 0 21 -59 130 -106 198 -19 26 -34 50 -34 53 0 3 -18 31 -40 61 -22 31 -40
61 -39 67 0 6 22 28 50 49 59 45 109 111 109 144 0 61 -48 104 -222 199 -73
40 -143 80 -155 91 l-23 18 28 45 c29 46 62 131 62 159 0 9 -6 28 -14 43 -14
26 -13 28 32 65 82 68 254 233 289 278 56 74 55 75 -151 105 -60 9 -73 15
-111 52 -77 73 -116 90 -165 71z m92 -54 c74 -48 64 -58 -34 -33 -17 4 -28 2
-28 -4 0 -20 155 -58 280 -68 106 -8 112 -13 70 -66 -39 -49 -153 -158 -252
-243 -51 -43 -72 -55 -88 -50 -21 7 -26 20 -11 30 6 3 24 30 41 60 24 42 43
61 78 79 58 30 89 53 82 60 -3 3 -19 -1 -35 -10 -43 -22 -238 -70 -343 -84
-109 -15 -172 -4 -172 30 0 28 108 149 182 206 79 60 170 124 176 124 3 0 27
-14 54 -31z m-358 -125 c24 -9 20 -17 -34 -75 -55 -59 -65 -79 -56 -114 8 -31
36 -46 100 -54 l51 -6 3 -58 c3 -57 3 -58 -32 -72 -20 -8 -39 -15 -43 -15 -4
0 -19 23 -33 51 -14 28 -38 62 -54 75 -23 20 -26 27 -16 39 23 27 5 26 -51 -4
-136 -72 -318 -108 -414 -81 -32 9 -45 17 -43 28 5 25 133 127 201 160 34 17
80 34 102 38 l40 7 -45 -41 c-52 -48 -42 -54 24 -14 26 15 56 32 66 37 10 6
24 16 31 22 28 22 151 83 169 83 10 0 25 -3 34 -6z m316 -209 c0 -11 -49 -81
-70 -100 -13 -12 -48 -24 -86 -31 l-65 -10 3 50 3 50 100 22 c121 26 115 25
115 19z m8 -178 c35 -28 -12 -154 -98 -262 l-50 -63 -102 -4 c-83 -3 -110 -9
-142 -27 -33 -19 -43 -21 -67 -10 -35 14 -37 31 -6 44 44 20 29 85 -19 85 -66
0 24 123 126 174 144 72 310 101 358 63z m-622 -68 l57 -22 -31 -13 c-72 -30
-40 -136 33 -108 14 6 16 0 13 -32 l-3 -39 -65 -3 c-57 -2 -72 2 -116 27 -38
22 -57 42 -73 74 -31 63 -28 93 12 117 42 26 102 25 173 -1z m-532 -9 c33 -12
74 -75 82 -127 21 -137 -68 -352 -205 -490 -88 -89 -169 -133 -246 -133 -103
0 -139 50 -138 194 2 213 137 435 318 521 97 46 140 54 189 35z m212 -140 c49
-29 108 -55 137 -61 29 -6 75 -17 103 -25 28 -8 71 -14 95 -14 39 0 51 -6 93
-44 41 -39 46 -47 36 -65 -15 -30 1 -26 46 10 47 37 72 48 141 59 54 9 172 -4
207 -22 12 -7 22 -6 29 1 6 6 7 11 2 11 -6 0 -19 7 -29 15 -18 13 -18 16 -2
40 9 14 22 25 29 25 15 0 123 -55 197 -100 86 -53 190 -139 190 -158 0 -45
-109 -151 -191 -187 -26 -11 -29 -15 -14 -16 11 -1 25 -1 30 0 9 0 62 -74 148
-211 20 -33 37 -62 37 -65 0 -2 14 -24 30 -48 17 -24 30 -50 30 -58 0 -19 -26
-40 -85 -70 -90 -44 -89 -45 -103 20 -12 59 -10 75 10 55 7 -7 16 -12 22 -12
15 0 -53 68 -102 102 -59 41 -65 28 -11 -24 l44 -43 0 -145 c0 -87 -5 -161
-12 -186 -28 -89 -109 -175 -213 -226 -108 -53 -266 -91 -281 -67 -11 19 -36
-5 -44 -43 -12 -53 -45 -118 -61 -118 -30 0 -8 -21 65 -63 41 -23 76 -48 79
-54 5 -17 -38 -17 -63 0 -66 45 -75 15 -10 -31 25 -17 45 -36 45 -42 0 -14
-167 -12 -263 4 -116 19 -121 27 -122 174 l0 117 48 -2 c75 -4 46 14 -35 22
-40 4 -93 13 -118 20 -25 7 -76 20 -115 29 -92 22 -218 84 -278 136 -95 84
-123 174 -88 293 11 39 18 47 37 47 13 0 48 9 79 21 51 19 58 19 73 6 9 -9 40
-21 67 -28 38 -9 64 -25 107 -66 75 -70 99 -70 139 3 36 63 70 192 57 217 -11
22 -81 23 -122 2 -39 -20 -63 -19 -76 5 -11 21 -39 26 -56 11 -13 -12 -74 16
-74 34 0 12 14 15 65 15 36 0 65 4 65 8 0 4 -34 14 -76 22 -45 8 -78 19 -81
27 -4 9 -19 13 -47 12 -47 -2 -86 8 -86 22 0 6 39 9 98 9 171 -3 412 36 545
89 35 14 34 14 75 -43 l33 -46 -33 -20 c-27 -16 -29 -20 -12 -20 53 0 205 105
263 183 45 60 91 143 91 165 0 15 11 14 80 -4 l25 -7 -20 22 c-11 11 -46 30
-77 41 -60 21 -158 27 -158 10 0 -5 12 -10 28 -10 50 0 57 -14 22 -48 -165
-166 -568 -288 -945 -287 -111 1 -265 20 -265 34 0 3 21 15 48 25 130 53 244
169 327 333 38 76 48 109 58 182 9 76 8 95 -5 129 -16 40 -12 67 4 37 5 -8 47
-37 94 -65z m392 63 c-4 -22 -22 -20 -26 1 -2 10 3 16 13 16 10 0 15 -7 13
-17z m92 -123 c0 -5 -4 -10 -10 -10 -5 0 -10 5 -10 10 0 6 5 10 10 10 6 0 10
-4 10 -10z m258 -350 c-13 -38 -22 -44 -38 -25 -10 12 -8 18 11 35 33 27 40
25 27 -10z m-62 -98 c-16 -16 -18 -15 -36 8 -17 23 -17 26 -3 42 15 16 17 16
36 -8 18 -24 19 -27 3 -42z m-54 -68 c-22 -30 -26 -30 -52 7 -21 29 -21 31 -4
50 17 19 18 19 45 -7 27 -26 27 -28 11 -50z m-74 -14 l23 -40 -28 -25 c-15
-13 -31 -25 -34 -25 -5 0 -69 87 -69 95 0 7 54 34 70 35 8 0 25 -18 38 -40z
m-1268 -55 c7 -8 15 -35 17 -60 5 -44 5 -44 -37 -61 -47 -19 -65 -50 -50 -89
5 -14 20 -27 35 -31 14 -3 25 -8 25 -10 0 -19 -49 -93 -94 -141 l-53 -57 -58
44 c-87 67 -166 149 -186 195 -10 22 -19 63 -19 92 0 61 27 99 76 109 28 5 38
0 84 -44 l52 -50 37 41 c20 22 50 48 66 59 36 22 88 23 105 3z m460 -125 c0
-5 -4 -10 -9 -10 -5 0 -23 -21 -39 -47 -27 -43 -37 -69 -56 -155 -9 -38 -26
-36 -165 12 l-115 40 -32 -35 c-31 -34 -45 -41 -56 -29 -7 7 30 99 55 136 28
41 16 51 -25 22 -38 -27 -58 -25 -58 5 0 30 36 54 82 55 41 1 42 0 49 -37 3
-20 9 -40 12 -43 15 -16 229 42 305 82 32 16 52 18 52 4z m99 -27 c14 -48 14
-63 1 -63 -5 0 -10 7 -10 15 0 8 -5 15 -10 15 -7 0 -8 -13 -4 -35 4 -26 3 -35
-7 -35 -10 0 -10 -3 -1 -12 30 -30 7 -49 -77 -63 l-43 -7 7 43 c14 81 77 179
116 179 12 0 21 -12 28 -37z m161 -84 c0 -6 -13 -22 -30 -36 -18 -15 -30 -34
-30 -49 0 -19 -5 -24 -24 -24 -13 0 -34 8 -46 18 -26 21 -22 45 11 81 20 21
22 22 40 5 19 -17 21 -17 41 4 21 20 38 21 38 1z m176 -18 c-3 -9 -8 -29 -12
-46 -12 -55 -66 -155 -83 -155 -17 0 -101 79 -101 94 0 5 11 6 25 4 30 -6 35
18 5 27 -32 10 -23 25 16 25 21 0 33 4 29 10 -3 6 -16 10 -28 10 -37 0 -3 21
65 40 69 19 91 17 84 -9z m1217 -208 c14 -8 7 -69 -13 -101 -26 -43 -72 -61
-171 -69 -80 -6 -84 -4 -70 32 7 16 18 19 84 20 66 0 79 3 101 24 14 14 26 34
26 45 0 18 -3 17 -29 -8 -34 -33 -61 -29 -61 7 0 50 79 80 133 50z m12 -183
c23 -9 25 -13 15 -25 -16 -19 -41 -19 -65 -1 -16 12 -17 16 -6 30 7 9 17 14
21 11 4 -2 20 -9 35 -15z m-1302 -254 c42 -7 79 -15 81 -17 2 -2 5 -62 7 -133
l4 -130 -35 -9 c-48 -12 -256 -5 -271 10 -9 9 1 18 40 37 28 15 51 29 51 32 0
3 -21 3 -47 0 -27 -4 -61 -3 -76 2 -27 7 -28 8 -10 23 16 14 92 47 146 63 18
6 24 26 8 26 -5 0 -12 18 -16 40 -4 22 -11 42 -16 46 -5 3 -9 12 -9 21 0 12 7
14 33 9 17 -4 67 -13 110 -20z" id="node4" class="node" stroke-width="20"></path>
<path d="M775 1986 c-67 -29 -183 -198 -200 -290 -22 -114 99 -95 185 29 79
114 118 227 90 260 -15 18 -35 19 -75 1z m49 -24 c3 -4 -17 -27 -44 -50 -71
-61 -112 -127 -118 -187 -4 -46 -21 -75 -45 -75 -31 0 36 177 91 245 46 56
102 88 116 67z m-4 -66 c0 -17 -67 -129 -90 -151 -33 -31 -37 -24 -20 37 13
44 110 146 110 114z" id="node5" class="node" stroke-width="20"></path>
<path d="M949 1850 c-57 -30 -164 -151 -199 -225 -28 -59 -30 -70 -20 -95 47
-114 274 60 310 237 20 96 -11 125 -91 83z m81 -25 c0 -8 -19 -23 -42 -33 -75
-33 -188 -173 -188 -231 0 -25 -27 -35 -34 -13 -10 29 10 76 58 143 71 98 206
186 206 134z m-71 -138 c-36 -67 -89 -127 -113 -127 -15 0 -15 3 -1 38 16 37
138 169 143 154 1 -4 -12 -34 -29 -65z" id="node6" class="node" stroke-width="20"></path>










</g>
<g transform="translate(0.000000,300.000000) scale(0.100000,-0.100000)" fill="#FFFFFF" stroke="none">

<path d="M2589 2899 c-15 -30 -4 -78 32 -133 26 -39 36 -46 62 -45 41 0 141
49 145 70 1 8 -7 28 -19 43 -22 29 -44 31 -106 11 -19 -6 -23 -4 -23 14 0 39
-19 61 -50 61 -20 0 -33 -7 -41 -21z" id="node18" class="node" stroke-width="20"></path>
<path d="M1269 2859 l-29 -31 -21 26 c-12 15 -30 26 -44 26 -30 0 -56 -37 -49
-67 6 -22 92 -86 130 -97 27 -8 72 28 116 92 l31 45 -24 18 c-37 28 -76 24
-110 -12z" id="node19" class="node" stroke-width="20"></path>
<path d="M2109 2682 c-165 -116 -299 -247 -299 -292 0 -34 63 -45 172 -30 105
14 300 62 343 84 16 9 32 13 35 10 7 -7 -24 -30 -82 -60 -35 -18 -54 -37 -78
-79 -17 -30 -35 -57 -41 -60 -15 -10 -10 -23 11 -30 16 -5 37 7 88 50 99 85
213 194 252 243 42 53 36 58 -70 66 -125 10 -280 48 -280 68 0 6 11 8 28 4 98
-25 108 -15 34 33 -27 17 -51 31 -54 31 -2 0 -29 -17 -59 -38z" id="node20" class="node" stroke-width="20"></path>
<path d="M1743 2534 c-37 -20 -74 -41 -82 -47 -7 -6 -21 -16 -31 -22 -10 -5
-40 -22 -66 -37 -66 -40 -76 -34 -24 14 l45 41 -40 -7 c-22 -4 -68 -21 -102
-38 -68 -33 -196 -135 -201 -160 -2 -11 11 -19 43 -28 96 -27 278 9 414 81 56
30 74 31 51 4 -10 -12 -7 -19 16 -39 16 -13 40 -47 54 -75 14 -28 29 -51 33
-51 4 0 23 7 43 15 35 14 35 15 32 72 l-3 58 -51 6 c-64 8 -92 23 -100 54 -9
35 1 55 56 114 54 58 58 66 34 75 -30 11 -53 6 -121 -30z" id="node21" class="node" stroke-width="20"></path>

<path d="M2050 2189 c-54 -8 -151 -41 -220 -75 -45 -22 -86 -57 -122 -101 -35
-45 -37 -73 -4 -73 48 0 63 -65 19 -85 -31 -13 -29 -30 6 -44 24 -11 34 -9 67
10 32 18 59 24 142 27 l102 4 50 63 c86 108 133 234 98 262 -20 16 -77 20
-138 12z" id="node23" class="node" stroke-width="20"></path>
<path d="M1393 2110 c-40 -24 -43 -54 -12 -117 16 -32 35 -52 73 -74 44 -25
59 -29 116 -27 l65 3 3 39 c3 32 1 38 -13 32 -73 -28 -105 78 -33 108 l31 13
-57 22 c-71 26 -131 27 -173 1z" id="node24" class="node" stroke-width="20"></path>
<path d="M935 2103 c-51 -12 -164 -76 -205 -115 -128 -122 -202 -285 -203
-444 -1 -144 35 -194 138 -194 126 0 277 126 376 313 86 162 101 302 43 390
-34 51 -79 67 -149 50z m-85 -118 c28 -33 -11 -146 -90 -260 -64 -92 -154
-134 -181 -84 -15 29 -4 77 37 159 72 142 192 236 234 185z m191 -139 c27 -58
-36 -201 -127 -288 -76 -73 -160 -86 -184 -28 -10 25 -8 36 20 95 19 41 57 93
98 136 97 104 170 136 193 85z" id="node25" class="node" stroke-width="20"></path>
<path d="M763 1948 c-44 -33 -75 -74 -112 -150 -33 -67 -52 -148 -34 -148 24
0 41 29 45 75 6 60 47 126 118 187 46 40 54 58 26 58 -7 0 -26 -10 -43 -22z" id="node26" class="node" stroke-width="20"></path>
<path d="M761 1859 c-58 -58 -89 -169 -31 -114 23 22 90 134 90 151 0 13 -23
-1 -59 -37z" id="node27" class="node" stroke-width="20"></path>
<path d="M928 1797 c-92 -67 -178 -200 -162 -249 7 -22 34 -12 34 13 0 58 113
198 188 231 23 10 42 25 42 33 0 27 -44 15 -102 -28z" id="node28" class="node" stroke-width="20"></path>
<path d="M923 1698 c-68 -69 -106 -138 -77 -138 9 0 31 16 49 35 35 36 97 143
93 157 -2 5 -31 -20 -65 -54z" id="node29" class="node" stroke-width="20"></path>
<path d="M1138 2035 c-3 -4 1 -24 10 -47 13 -34 14 -53 5 -129 -27 -208 -200
-440 -385 -515 -27 -10 -48 -22 -48 -25 0 -14 154 -33 265 -34 377 -1 780 121
945 287 35 34 28 48 -22 48 -16 0 -28 5 -28 10 0 17 98 11 158 -10 31 -11 66
-30 77 -41 l20 -22 -25 7 c-69 18 -80 19 -80 4 0 -22 -46 -105 -91 -165 -58
-78 -210 -183 -263 -183 -17 0 -15 4 12 20 l33 20 -33 46 c-41 57 -40 57 -75
43 -133 -53 -374 -92 -545 -89 -59 0 -98 -3 -98 -9 0 -14 39 -24 86 -22 28 1
43 -3 47 -12 3 -8 36 -19 81 -27 42 -8 76 -18 76 -22 0 -4 -29 -8 -65 -8 -51
0 -65 -3 -65 -15 0 -18 61 -46 74 -34 17 15 45 10 56 -11 13 -24 37 -25 76 -5
41 21 111 20 122 -2 13 -25 -21 -154 -57 -217 -40 -73 -64 -73 -139 -3 -43 41
-69 57 -107 66 -27 7 -58 19 -67 28 -15 13 -22 13 -73 -6 -31 -12 -66 -21 -79
-21 -19 0 -26 -8 -37 -47 -35 -119 -7 -209 88 -293 60 -52 186 -114 278 -136
39 -9 90 -22 115 -29 25 -7 78 -16 118 -20 81 -8 110 -26 35 -22 l-48 2 0
-117 c1 -147 6 -155 122 -174 96 -16 263 -18 263 -4 0 6 -20 25 -45 42 -65 46
-56 76 10 31 25 -17 68 -17 63 0 -3 6 -38 31 -79 54 -73 42 -95 63 -65 63 16
0 49 65 61 118 8 38 33 62 44 43 15 -24 173 14 281 67 104 51 185 137 213 226
7 25 12 99 12 186 l0 145 -44 43 c-54 52 -48 65 11 24 49 -34 117 -102 102
-102 -6 0 -15 5 -22 12 -20 20 -22 4 -10 -55 14 -65 13 -64 103 -20 59 30 85
51 85 70 0 8 -13 34 -30 58 -16 24 -30 46 -30 48 0 3 -17 32 -37 65 -86 137
-139 211 -148 211 -5 -1 -19 -1 -30 0 -15 1 -12 5 14 16 82 36 191 142 191
187 0 19 -104 105 -190 158 -74 45 -182 100 -197 100 -7 0 -20 -11 -29 -25
-16 -24 -16 -27 2 -40 10 -8 23 -15 29 -15 5 0 4 -5 -2 -11 -7 -7 -17 -8 -29
-1 -35 18 -153 31 -207 22 -69 -11 -94 -22 -141 -59 -45 -36 -61 -40 -46 -10
10 18 5 26 -36 65 -42 38 -54 44 -93 44 -24 0 -67 6 -95 14 -28 8 -74 19 -103
25 -53 11 -216 100 -231 126 -4 9 -11 13 -14 10z" id="node30" class="node" stroke-width="20"></path>
<path d="M1612 2024 c4 -21 22 -23 26 -1 2 10 -3 17 -13 17 -10 0 -15 -6 -13
-16z" id="node31" class="node" stroke-width="20"></path>
<path d="M1710 1900 c0 -5 5 -10 10 -10 6 0 10 5 10 10 0 6 -4 10 -10 10 -5 0
-10 -4 -10 -10z" id="node32" class="node" stroke-width="20"></path>
<path d="M1961 1560 c-19 -17 -21 -23 -11 -35 16 -19 25 -13 38 25 13 35 6 37
-27 10z" id="node33" class="node" stroke-width="20"></path>
<path d="M1887 1502 c-14 -16 -14 -19 3 -42 18 -23 20 -24 36 -8 16 15 15 18
-3 42 -19 24 -21 24 -36 8z" id="node34" class="node" stroke-width="20"></path>
<path d="M1816 1441 c-17 -19 -17 -21 4 -50 26 -37 30 -37 52 -7 16 22 16 24
-11 50 -27 26 -28 26 -45 7z" id="node35" class="node" stroke-width="20"></path>
<path d="M1718 1394 c-16 -8 -28 -17 -28 -19 0 -8 64 -95 69 -95 3 0 19 12 34
25 l28 25 -23 40 c-25 43 -38 47 -80 24z" id="node36" class="node" stroke-width="20"></path>
<path d="M425 1312 c-16 -11 -46 -37 -66 -59 l-37 -41 -52 50 c-46 44 -56 49
-84 44 -49 -10 -76 -48 -76 -109 0 -29 9 -70 19 -92 20 -46 99 -128 186 -195
l58 -44 53 57 c45 48 94 122 94 141 0 2 -11 7 -25 10 -15 4 -30 17 -35 31 -15
39 3 70 50 89 42 17 42 17 37 61 -2 25 -10 52 -17 60 -17 20 -69 19 -105 -3z" id="node37" class="node" stroke-width="20"></path>
<path d="M938 1186 c-76 -40 -290 -98 -305 -82 -3 3 -9 23 -12 43 -7 37 -8 38
-49 37 -46 -1 -82 -25 -82 -55 0 -30 20 -32 58 -5 41 29 53 19 25 -22 -25 -37
-62 -129 -55 -136 11 -12 25 -5 56 29 l32 35 115 -40 c139 -48 156 -50 165
-12 19 86 29 112 56 155 16 26 34 47 39 47 5 0 9 5 9 10 0 14 -20 12 -52 -4z" id="node38" class="node" stroke-width="20"></path>
<path d="M1018 1173 c-35 -37 -64 -98 -73 -152 l-7 -43 43 7 c84 14 107 33 77
63 -9 9 -9 12 1 12 10 0 11 9 7 35 -4 22 -3 35 4 35 5 0 10 -7 10 -15 0 -8 5
-15 10 -15 13 0 13 15 -1 63 -12 45 -35 48 -71 10z" id="node39" class="node" stroke-width="20"></path>
<path d="M1212 1078 c-20 -21 -22 -21 -41 -4 -18 17 -20 16 -40 -5 -33 -36
-37 -60 -11 -81 12 -10 33 -18 46 -18 19 0 24 5 24 24 0 15 12 34 30 49 17 14
30 30 30 36 0 20 -17 19 -38 -1z" id="node40" class="node" stroke-width="20"></path>
<path d="M1342 1070 c-68 -19 -102 -40 -65 -40 12 0 25 -4 28 -10 4 -6 -8 -10
-29 -10 -39 0 -48 -15 -16 -25 30 -9 25 -33 -5 -27 -14 2 -25 1 -25 -4 0 -15
84 -94 101 -94 17 0 71 100 83 155 4 17 9 37 12 46 7 26 -15 28 -84 9z" id="node41" class="node" stroke-width="20"></path>
<path d="M2565 863 c-31 -8 -55 -34 -55 -60 0 -36 27 -40 61 -7 26 25 29 26
29 8 0 -11 -12 -31 -26 -45 -22 -21 -35 -24 -101 -24 -66 -1 -77 -4 -84 -20
-14 -36 -10 -38 70 -32 99 8 145 26 171 69 20 32 27 93 13 101 -16 9 -59 14
-78 10z" id="node42" class="node" stroke-width="20"></path>
<path d="M2599 674 c-11 -14 -10 -18 6 -30 24 -18 49 -18 65 1 10 12 8 16 -15
25 -15 6 -31 13 -35 15 -4 3 -14 -2 -21 -11z" id="node43" class="node" stroke-width="20"></path>
<path d="M1210 427 c0 -9 4 -18 9 -21 5 -4 12 -24 16 -46 4 -22 11 -40 16 -40
16 0 10 -20 -8 -26 -54 -16 -130 -49 -146 -63 -18 -15 -17 -16 10 -23 15 -5
49 -6 76 -2 26 3 47 3 47 0 0 -3 -23 -17 -51 -32 -39 -19 -49 -28 -40 -37 15
-15 223 -22 271 -10 l35 9 -4 130 c-2 71 -5 131 -7 133 -2 2 -39 10 -81 17
-43 7 -93 16 -110 20 -26 5 -33 3 -33 -9z" id="node44" class="node" stroke-width="20"></path>

<path d="M1970 2963 c-8 -3 -27 -17 -42 -31 l-27 -25 -24 29 c-25 28 -25 29
-46 10 -47 -43 -14 -100 70 -124 32 -8 40 -6 79 20 58 40 80 68 77 98 -2 21
-8 25 -37 27 -19 1 -42 -1 -50 -4z" id="node46" class="node" stroke-width="20"></path>
</g>
</svg>