<!--?xml version="1.0" standalone="no"?--><svg version="1.0" xmlns="http://www.w3.org/2000/svg" width="300.000000pt" height="300.000000pt" viewBox="0 0 300.000000 300.000000" preserveAspectRatio="xMidYMid meet">
<metadata>
  <rdf:rdf xmlns:rdf="http://www.w3.org/1999/02/22-rdf-syntax-ns#" xmlns:rdfs="http://www.w3.org/2000/01/rdf-schema#" xmlns:dc="http://purl.org/dc/elements/1.1/">
    <rdf:description dc:title="no love symbol" dc:publisher="Hiox" dc:date="2015-03-26" dc:format="image/svg+xml" dc:language="en">
      <dc:creator>
        <rdf:bag>
          <rdf:li>svgimages.com</rdf:li>
        </rdf:bag>
      </dc:creator>
    </rdf:description>
  </rdf:rdf>
</metadata>
<g transform="translate(0.000000,300.000000) scale(0.100000,-0.100000)" fill="#070707" stroke="none">













<path d="M1385 2460 c-257 -37 -520 -210 -683 -452 -70 -104 -99 -165 -126
-267 -48 -179 -43 -339 16 -518 73 -221 299 -470 535 -589 202 -101 509 -106
723 -12 124 56 285 179 377 290 128 155 188 281 219 462 28 156 2 349 -65 492
-100 214 -317 431 -524 523 -138 62 -332 91 -472 71z m301 -248 c34 -11 88
-34 121 -51 62 -33 183 -126 183 -140 0 -5 -32 -33 -71 -62 l-70 -54 -107 0
c-122 -1 -156 -12 -221 -70 l-41 -37 -50 45 c-67 61 -129 81 -229 75 -170 -10
-276 -119 -275 -283 0 -99 30 -170 105 -250 l60 -63 -38 -31 c-110 -90 -179
-141 -188 -138 -19 5 -72 128 -89 203 -20 92 -20 207 -1 299 54 256 312 514
570 570 91 19 257 13 341 -13z m462 -399 c81 -154 95 -365 34 -531 -76 -206
-273 -400 -482 -474 -56 -19 -85 -23 -210 -23 -132 0 -151 3 -218 27 -94 34
-166 78 -243 148 l-62 55 104 81 c167 130 142 125 228 42 40 -39 89 -91 108
-115 19 -24 42 -43 51 -43 8 0 39 27 69 60 30 33 118 111 196 174 249 200 297
266 297 414 0 64 -5 92 -20 123 -12 22 -18 44 -14 50 12 21 99 79 114 76 8 -1
30 -30 48 -64z" id="node14" class="node" stroke-width="20"></path>







































</g>
<g transform="translate(0.000000,300.000000) scale(0.100000,-0.100000)" fill="#FFFFFF" stroke="none">



</g>
</svg>