<!--?xml version="1.0" standalone="no"?--><svg version="1.0" xmlns="http://www.w3.org/2000/svg" width="300.000000pt" height="189.000000pt" viewBox="0 0 300.000000 189.000000" preserveAspectRatio="xMidYMid meet">
<metadata>
  <rdf:rdf xmlns:rdf="http://www.w3.org/1999/02/22-rdf-syntax-ns#" xmlns:rdfs="http://www.w3.org/2000/01/rdf-schema#" xmlns:dc="http://purl.org/dc/elements/1.1/">
    <rdf:description dc:title="no love font" dc:publisher="Hiox" dc:date="2015-03-26" dc:format="image/svg+xml" dc:language="en">
      <dc:creator>
        <rdf:bag>
          <rdf:li>svgimages.com</rdf:li>
        </rdf:bag>
      </dc:creator>
    </rdf:description>
  </rdf:rdf>
</metadata>
<g transform="translate(0.000000,189.000000) scale(0.100000,-0.100000)" fill="#0B0B0B" stroke="none">
<path d="M384 1776 c-54 -17 -127 -68 -159 -111 -56 -73 -65 -117 -65 -330 l0
-195 49 0 49 0 4 193 c3 174 5 196 25 232 41 77 108 118 193 118 95 0 182 -63
209 -152 7 -26 11 -185 11 -507 0 -432 2 -472 19 -509 30 -67 108 -125 167
-125 22 0 24 4 24 48 0 45 -2 48 -40 64 -71 29 -70 25 -70 557 0 448 -1 473
-20 525 -45 119 -153 196 -283 202 -43 2 -89 -2 -113 -10z" id="node1" class="node" stroke-width="20"></path>
<path d="M1143 1776 c-136 -44 -223 -162 -223 -303 0 -95 27 -168 86 -228 120
-124 317 -133 443 -19 215 193 93 547 -193 561 -42 2 -88 -3 -113 -11z m205
-123 c120 -69 143 -239 45 -335 -113 -110 -285 -82 -349 56 -91 196 117 387
304 279z" id="node2" class="node" stroke-width="20"></path>
<path d="M1150 1021 c-83 -26 -160 -91 -202 -171 -31 -61 -37 -177 -12 -252
24 -74 118 -168 193 -193 72 -24 189 -17 249 14 65 33 118 87 149 149 24 49
28 69 28 142 0 70 -4 94 -25 135 -34 70 -108 139 -175 164 -57 21 -155 27
-205 12z m187 -119 c138 -72 158 -255 39 -360 -129 -113 -337 -25 -354 149
-12 129 103 246 230 234 26 -2 64 -13 85 -23z" id="node3" class="node" stroke-width="20"></path>
<path d="M1574 1013 c4 -10 59 -154 124 -321 l117 -302 65 2 64 3 118 300 c65
165 120 308 124 318 5 15 -2 17 -54 17 l-60 0 -94 -235 c-51 -129 -96 -235
-99 -235 -3 0 -47 106 -98 235 l-93 235 -60 0 c-53 0 -59 -2 -54 -17z" id="node4" class="node" stroke-width="20"></path>
<path d="M2404 1009 c-205 -78 -270 -346 -125 -511 49 -55 125 -97 191 -105
l50 -6 0 52 c0 34 -4 51 -12 51 -89 0 -181 86 -203 188 l-7 32 271 0 271 0 0
38 c0 56 -50 151 -105 200 -90 79 -221 104 -331 61z m181 -93 c43 -14 115 -68
115 -88 0 -4 -81 -8 -180 -8 -103 0 -180 4 -180 9 0 18 82 79 118 89 53 14 73
14 127 -2z" id="node5" class="node" stroke-width="20"></path>













</g>
<g transform="translate(0.000000,189.000000) scale(0.100000,-0.100000)" fill="#9B9B9B" stroke="none">












</g>
</svg>