<!--?xml version="1.0" standalone="no"?--><svg version="1.0" xmlns="http://www.w3.org/2000/svg" width="169.000000pt" height="300.000000pt" viewBox="0 0 169.000000 300.000000" preserveAspectRatio="xMidYMid meet">
<metadata>
  <rdf:rdf xmlns:rdf="http://www.w3.org/1999/02/22-rdf-syntax-ns#" xmlns:rdfs="http://www.w3.org/2000/01/rdf-schema#" xmlns:dc="http://purl.org/dc/elements/1.1/">
    <rdf:description dc:title="no love icon" dc:publisher="Hiox" dc:date="2015-03-26" dc:format="image/svg+xml" dc:language="en">
      <dc:creator>
        <rdf:bag>
          <rdf:li>svgimages.com</rdf:li>
        </rdf:bag>
      </dc:creator>
    </rdf:description>
  </rdf:rdf>
</metadata>
<g transform="translate(0.000000,300.000000) scale(0.100000,-0.100000)" fill="#161616" stroke="none">
<path d="M920 2647 c-57 -28 -80 -150 -40 -215 36 -58 96 -63 146 -11 24 25
27 36 27 88 -1 69 -29 126 -70 142 -31 11 -33 11 -63 -4z" id="node1" class="node"></path>
<path d="M616 2354 c-9 -24 6 -38 86 -74 40 -17 112 -50 160 -73 98 -45 87
-27 109 -181 18 -132 16 -130 104 -123 41 4 91 13 110 21 31 13 35 19 35 52 0
43 -62 259 -90 314 -23 44 -42 50 -169 50 -47 0 -121 7 -164 15 -106 20 -173
20 -181 -1z" id="node2" class="node"></path>
<path d="M526 2238 c-24 -34 -20 -94 8 -122 14 -15 25 -41 29 -67 5 -41 34
-79 58 -79 25 0 47 42 54 101 4 35 13 78 20 96 13 31 13 32 -18 38 -18 4 -49
18 -69 31 -46 30 -63 30 -82 2z" id="node3" class="node"></path>
<path d="M985 1831 c-12 -21 -26 -118 -45 -317 -29 -312 -40 -426 -45 -451 -3
-12 2 -29 11 -38 24 -24 38 -4 57 75 19 82 106 420 114 440 11 30 23 -47 38
-250 20 -263 21 -270 50 -270 28 0 29 4 45 380 15 355 14 394 -7 412 -19 17
-209 33 -218 19z" id="node4" class="node"></path>
<path d="M438 1800 c-1 -5 0 -67 3 -138 4 -70 12 -239 19 -377 7 -137 16 -257
21 -265 6 -12 32 -14 156 -11 81 1 150 5 152 7 4 4 49 691 51 762 0 21 -23 31
-34 14 -5 -8 -46 -644 -46 -707 0 -25 0 -25 -92 -24 l-93 0 49 20 c27 11 55
18 61 15 18 -6 7 161 -11 192 -16 25 -55 30 -73 9 -6 -8 -14 -29 -18 -48 -3
-19 -17 -42 -30 -52 -28 -23 -32 -90 -6 -119 15 -17 15 -18 -9 -18 -30 0 -29
-6 -49 370 -15 301 -22 373 -35 377 -7 2 -14 -1 -16 -7z" id="node5" class="node"></path>
<path d="M550 1560 c-10 -6 -17 -35 -21 -87 -3 -43 -9 -85 -13 -94 -6 -13 2
-17 41 -22 26 -3 57 -8 68 -11 29 -9 45 6 52 47 4 29 1 40 -21 62 -14 14 -26
34 -26 44 0 22 -37 71 -53 71 -7 0 -19 -5 -27 -10z" id="node6" class="node"></path>
<path d="M265 598 c-3 -13 -4 -77 -3 -143 3 -112 4 -120 23 -120 18 0 20 8 23
88 l3 88 52 -67 c91 -117 95 -121 107 -104 6 9 9 69 8 145 -3 122 -4 130 -23
130 -18 0 -20 -8 -25 -86 l-5 -86 -65 85 c-36 47 -70 87 -77 89 -7 3 -15 -6
-18 -19z" id="node7" class="node"></path>
<path d="M541 604 c-48 -34 -67 -143 -36 -204 19 -37 62 -70 90 -70 35 0 87
42 101 80 17 49 17 93 -2 140 -26 64 -101 90 -153 54z m101 -61 c22 -26 28
-59 17 -98 -16 -59 -73 -74 -108 -29 -31 40 -24 112 13 136 20 14 63 8 78 -9z" id="node8" class="node"></path>
<path d="M787 614 c-9 -9 -9 -246 -1 -268 4 -11 19 -16 50 -16 42 0 44 1 44
30 0 25 -4 30 -25 30 -24 0 -24 0 -27 112 -2 92 -6 113 -18 116 -9 1 -19 0
-23 -4z" id="node9" class="node"></path>
<path d="M921 604 c-47 -33 -66 -130 -37 -197 20 -48 52 -72 96 -72 66 0 110
61 110 153 0 40 -33 108 -59 122 -29 15 -83 12 -110 -6z m105 -65 c29 -32 26
-105 -5 -130 -13 -10 -31 -19 -41 -19 -10 0 -28 9 -41 19 -19 15 -24 29 -24
64 0 53 25 87 65 87 15 0 35 -9 46 -21z" id="node10" class="node"></path>
<path d="M1100 610 c0 -6 45 -71 101 -145 69 -91 105 -132 115 -128 12 4 14
30 12 142 -3 120 -5 136 -20 139 -16 3 -18 -6 -18 -82 0 -47 -3 -86 -8 -86 -4
0 -36 38 -72 85 -48 63 -71 85 -87 85 -13 0 -23 -5 -23 -10z" id="node11" class="node"></path>
<path d="M1344 607 c-2 -7 -3 -71 -2 -143 l3 -129 45 0 c42 0 45 2 48 28 3 24
0 27 -27 27 -28 0 -31 3 -31 30 0 26 4 30 26 30 22 0 25 4 22 28 -2 19 -9 28
-25 30 -36 5 -32 50 5 54 21 2 28 9 30 31 3 26 2 27 -43 27 -28 0 -48 -5 -51
-13z" id="node12" class="node"></path>
</g>
<g transform="translate(0.000000,300.000000) scale(0.100000,-0.100000)" fill="#FFFFFF" stroke="none">

<path d="M564 552 c-37 -24 -44 -96 -13 -136 35 -45 92 -30 108 29 11 39 5 72
-17 98 -15 17 -58 23 -78 9z" id="node14" class="node"></path>
<path d="M934 539 c-29 -32 -26 -105 5 -130 13 -10 31 -19 41 -19 10 0 28 9
41 19 19 15 24 29 24 64 0 53 -25 87 -65 87 -15 0 -35 -9 -46 -21z" id="node15" class="node"></path>
</g>
</svg>