<!--?xml version="1.0" standalone="no"?--><svg version="1.0" xmlns="http://www.w3.org/2000/svg" width="300.000000pt" height="300.000000pt" viewBox="0 0 300.000000 300.000000" preserveAspectRatio="xMidYMid meet">
<metadata>
  <rdf:rdf xmlns:rdf="http://www.w3.org/1999/02/22-rdf-syntax-ns#" xmlns:rdfs="http://www.w3.org/2000/01/rdf-schema#" xmlns:dc="http://purl.org/dc/elements/1.1/">
    <rdf:description dc:title="no love boy robot" dc:publisher="Hiox" dc:date="2015-03-26" dc:format="image/svg+xml" dc:language="en">
      <dc:creator>
        <rdf:bag>
          <rdf:li>svgimages.com</rdf:li>
        </rdf:bag>
      </dc:creator>
    </rdf:description>
  </rdf:rdf>
</metadata>
<g transform="translate(0.000000,300.000000) scale(0.100000,-0.100000)" fill="#2E2E2E" stroke="none">
<path d="M1261 2920 c-18 -10 -44 -29 -57 -41 -25 -24 -64 -127 -64 -171 0
-37 30 -96 67 -129 40 -38 224 -156 278 -179 49 -21 52 -27 30 -56 -23 -30
-19 -54 10 -54 14 0 25 -1 25 -2 1 -2 3 -163 6 -358 6 -382 3 -430 -41 -553
-24 -66 -31 -76 -54 -79 -18 -2 -31 -13 -43 -38 -20 -40 -34 -62 -65 -99 -17
-22 -31 -27 -67 -28 -44 -1 -47 0 -66 37 -11 22 -20 50 -20 63 0 13 -9 36 -20
50 -25 32 -25 34 7 41 64 17 164 110 203 191 15 32 20 62 20 128 0 77 -4 95
-29 146 -59 116 -202 210 -370 242 -53 11 -111 19 -128 19 -41 0 -45 27 -8 64
31 31 32 50 0 81 -28 29 -51 31 -83 9 -27 -19 -28 -53 -2 -87 27 -34 26 -65
-2 -71 -13 -3 -69 -14 -125 -25 -162 -31 -341 -136 -394 -232 -21 -39 -24 -55
-22 -147 1 -98 3 -106 35 -159 37 -61 80 -100 151 -134 52 -25 60 -39 22 -39
-27 0 -65 -31 -65 -53 0 -8 -11 -23 -24 -36 l-23 -22 1 -274 c1 -151 -2 -275
-7 -275 -4 0 -19 -11 -32 -25 -19 -18 -25 -35 -25 -67 0 -98 82 -124 100 -32
7 38 8 38 9 7 1 -34 23 -63 48 -63 14 0 15 -11 10 -82 -4 -46 -7 -111 -7 -145
l0 -63 -41 0 c-59 0 -79 -14 -79 -55 0 -52 27 -65 134 -65 105 0 159 14 176
46 12 22 11 86 -6 250 l-6 62 93 7 c52 3 137 5 189 3 l95 -3 3 -169 c2 -103 7
-175 14 -183 13 -16 242 -19 282 -3 30 11 43 51 30 89 -8 23 -16 26 -62 29
l-52 3 -2 57 c-1 67 -1 130 4 482 2 179 7 272 15 286 11 19 21 21 87 21 80 0
126 18 126 51 0 20 39 80 76 117 19 20 25 33 21 53 -3 16 6 56 23 102 51 134
53 163 45 563 l-7 367 27 0 c24 0 26 3 21 23 -18 65 -18 65 3 72 25 8 186 100
224 128 127 96 165 157 153 248 -9 68 -26 99 -78 143 l-42 36 -110 0 c-104 0
-114 -2 -151 -27 -22 -15 -45 -34 -52 -42 -10 -14 -15 -13 -40 10 -50 47 -85
59 -175 58 -62 0 -92 -5 -117 -19z m164 -17 c-11 -2 -30 -6 -43 -9 -12 -2 -30
-17 -40 -32 -11 -17 -27 -28 -46 -30 -49 -5 -66 -20 -66 -56 0 -22 8 -40 25
-56 17 -16 23 -30 19 -43 -11 -34 5 -68 39 -82 44 -18 80 -9 101 26 15 26 21
28 54 23 46 -7 92 24 92 62 0 24 -39 74 -58 74 -5 0 -12 18 -15 41 -3 22 -13
49 -23 60 -9 10 -13 19 -8 19 21 0 76 -43 92 -70 21 -38 44 -38 74 -1 61 78
214 108 289 58 60 -40 86 -130 58 -204 -24 -65 -151 -165 -311 -248 l-74 -38
-72 36 c-88 43 -210 120 -261 164 -22 18 -43 50 -51 73 -12 35 -11 48 3 94 10
30 26 65 37 79 31 39 97 67 155 66 28 -1 41 -3 30 -6z m20 -43 c3 -5 -1 -10
-9 -10 -9 0 -16 -7 -16 -15 0 -8 7 -15 16 -15 23 0 14 -47 -26 -135 -26 -57
-34 -66 -40 -50 -4 11 -11 20 -16 21 -19 2 -44 17 -44 26 0 5 9 6 20 3 14 -4
20 -2 20 8 0 9 -5 17 -12 19 -8 3 -7 18 5 53 10 27 17 58 17 69 0 16 3 17 12
8 18 -18 28 -15 28 8 0 21 33 29 45 10z m-134 -103 c-6 -15 -16 -27 -22 -27
-8 0 -8 5 1 16 11 13 10 16 -8 21 -12 3 -19 9 -16 15 3 5 14 6 25 3 14 -5 19
-1 20 12 1 14 2 15 6 2 2 -8 -1 -28 -6 -42z m203 -16 c11 -13 15 -27 11 -40
-10 -34 -75 -41 -75 -8 0 8 3 8 12 -1 16 -16 28 -15 28 3 0 8 -7 15 -15 15
-18 0 -18 5 -5 31 13 24 22 24 44 0z m-181 -104 c15 -6 25 -27 11 -27 -17 0
-44 23 -44 38 0 10 3 13 8 6 4 -6 15 -13 25 -17z m257 -303 c0 -16 -16 -19
-25 -4 -8 13 4 32 16 25 5 -4 9 -13 9 -21z m-734 -183 c-7 -11 -46 -16 -46 -5
0 3 5 15 11 26 10 18 13 19 26 5 9 -8 12 -20 9 -26z m165 -166 c92 -17 187
-67 264 -137 67 -61 78 -94 74 -214 -4 -80 -7 -95 -34 -136 -56 -86 -118 -119
-300 -157 -123 -26 -216 -26 -377 -2 -128 20 -188 41 -270 95 -72 48 -88 84
-88 202 0 114 10 139 81 196 183 148 405 200 650 153z m-431 -690 c36 -9 133
-18 215 -21 139 -6 173 -3 287 22 44 10 63 -31 65 -141 0 -49 4 -219 8 -377
l7 -287 -23 -5 c-13 -3 -118 -8 -234 -10 -116 -3 -260 -8 -322 -12 l-112 -7 1
29 c1 16 -1 193 -6 394 -7 357 -7 366 13 398 24 37 17 36 101 17z m-144 -51
c-9 -28 -12 -31 -14 -14 -4 26 4 50 16 50 5 0 4 -16 -2 -36z m1054 0 c0 -6 -6
-16 -13 -22 -17 -14 -42 1 -34 21 7 18 47 19 47 1z m-1100 -74 c0 -31 -16 -41
-26 -15 -8 19 2 45 16 45 5 0 10 -13 10 -30z m1007 -56 c5 -16 -25 -44 -47
-44 -14 0 -18 5 -13 18 15 39 51 54 60 26z m-999 -60 c-2 -22 -7 -39 -13 -39
-12 0 -19 60 -10 83 10 28 27 -3 23 -44z m902 31 c0 -8 -7 -15 -15 -15 -8 0
-15 7 -15 15 0 8 7 15 15 15 8 0 15 -7 15 -15z m-900 -135 c0 -20 -5 -30 -15
-30 -10 0 -15 10 -15 30 0 20 5 30 15 30 10 0 15 -10 15 -30z m-2 -92 c-3 -36
-30 -46 -36 -15 -5 26 5 47 23 47 12 0 15 -8 13 -32z m4 -93 c3 -29 1 -35 -14
-35 -13 0 -18 8 -18 28 0 53 26 58 32 7z m-2 -75 c0 -5 -4 -10 -10 -10 -5 0
-10 5 -10 10 0 6 5 10 10 10 6 0 10 -4 10 -10z m14 -64 c21 -19 26 -32 26 -75
0 -28 -4 -51 -10 -51 -5 0 -10 14 -10 32 0 33 -24 68 -46 68 -22 0 -44 -30
-44 -61 0 -16 -4 -29 -10 -29 -14 0 -12 84 2 98 7 7 20 12 30 12 10 0 21 7 24
15 8 19 8 19 38 -9z m746 -233 c0 -9 -18 -13 -65 -13 -62 0 -65 1 -65 24 0 23
4 25 53 28 52 3 77 -9 77 -39z m-590 3 c0 -26 -16 -36 -61 -36 -26 0 -29 4
-29 30 0 29 2 30 45 30 41 0 45 -2 45 -24z m588 -87 c3 -22 -2 -27 -29 -33
-17 -3 -47 -6 -65 -6 -32 0 -34 2 -34 35 l0 36 63 -3 c59 -3 62 -4 65 -29z
m-583 -9 c0 -23 -4 -25 -52 -28 -51 -3 -53 -2 -53 22 0 27 19 35 75 32 25 -1
30 -5 30 -26z m583 -91 c-2 -20 -11 -25 -52 -32 -63 -10 -76 -5 -76 32 0 29 1
30 58 33 66 3 75 -1 70 -33z m-568 6 c0 -19 -5 -25 -22 -25 -13 0 -40 -3 -60
-6 -37 -6 -38 -6 -38 25 l0 31 60 0 c57 0 60 -1 60 -25z m0 -81 c0 -29 -43
-44 -130 -44 -93 0 -114 7 -108 36 3 17 16 20 108 24 116 6 130 4 130 -16z
m688 -1 c5 -35 -27 -44 -140 -41 -96 3 -103 4 -106 24 -3 19 4 21 80 31 126
16 162 13 166 -14z" id="node1" class="node" stroke-width="20"></path>



<path d="M1162 1694 c-28 -19 -29 -57 -2 -84 23 -23 39 -25 74 -8 46 20 46 81
-1 99 -33 12 -45 12 -71 -7z m64 -53 c-10 -16 -36 -13 -43 5 -8 22 18 37 36
20 7 -8 10 -19 7 -25z" id="node5" class="node" stroke-width="20"></path>
<path d="M408 1689 c-54 -31 -36 -99 25 -99 44 0 70 20 70 55 0 46 -52 70 -95
44z m47 -45 c0 -10 -8 -20 -17 -22 -18 -3 -26 27 -11 42 12 11 28 0 28 -20z" id="node6" class="node" stroke-width="20"></path>
<path d="M803 1520 c-58 -12 -80 -26 -98 -60 -32 -62 -12 -77 45 -35 44 33
116 34 170 4 43 -24 73 -20 63 8 -10 29 -46 65 -80 79 -36 15 -39 16 -100 4z" id="node7" class="node" stroke-width="20"></path>
<path d="M905 1240 c-4 -6 -2 -17 5 -25 7 -9 8 -15 0 -20 -22 -14 -11 -63 21
-90 28 -23 31 -29 20 -51 -14 -32 -14 -34 3 -34 8 0 21 9 28 19 9 13 19 17 27
12 7 -5 21 -7 30 -4 11 3 24 -5 35 -21 9 -14 23 -26 31 -26 27 0 27 22 0 50
l-27 29 21 34 c25 40 27 70 6 87 -8 7 -12 16 -9 21 3 5 2 14 -2 20 -5 8 -12 5
-23 -9 -9 -11 -25 -22 -36 -23 -30 -4 -82 10 -96 27 -14 17 -25 18 -34 4z m65
-95 c13 -14 21 -27 19 -29 -9 -9 -54 20 -57 37 -5 24 11 21 38 -8z m120 17 c0
-4 -7 -18 -16 -31 -21 -29 -42 -13 -22 18 12 20 38 29 38 13z" id="node8" class="node" stroke-width="20"></path>
<path d="M544 917 c-21 -12 -12 -376 10 -393 10 -7 103 -10 288 -9 150 2 276
3 281 4 4 0 7 89 7 196 0 149 -3 197 -13 200 -22 9 -558 10 -573 2z m541 -79
c3 -29 5 -105 3 -168 l-3 -115 -145 -5 c-80 -3 -193 -3 -252 0 l-107 5 -5 168
-5 167 254 0 254 0 6 -52z" id="node9" class="node" stroke-width="20"></path>
<path d="M994 824 c-16 -24 -16 -26 4 -46 20 -20 22 -20 46 -4 28 18 34 44 14
64 -20 20 -46 14 -64 -14z m41 -14 c3 -5 1 -10 -4 -10 -6 0 -11 5 -11 10 0 6
2 10 4 10 3 0 8 -4 11 -10z" id="node10" class="node" stroke-width="20"></path>














</g>
<g transform="translate(0.000000,300.000000) scale(0.100000,-0.100000)" fill="#FFFFFF" stroke="none">


































































</g>
</svg>