<!--?xml version="1.0" standalone="no"?-->

<svg version="1.0" xmlns="http://www.w3.org/2000/svg" width="291.000000pt" height="300.000000pt" viewBox="0 0 291.000000 300.000000" preserveAspectRatio="xMidYMid meet">
<g transform="translate(0.000000,300.000000) scale(0.100000,-0.100000)" fill="#504936" stroke="none">
<path class="node" id="node1" d="M2076 2966 c-19 -40 -20 -57 -5 -90 26 -56 70 21 51 88 -11 42 -27
42 -46 2z"></path>
<path class="node" id="node2" d="M2004 2905 c-4 -8 -4 -32 -3 -52 l4 -38 -38 4 c-53 5 -64 -10 -35
-44 17 -19 38 -30 70 -35 44 -6 46 -5 42 16 -5 30 14 41 34 20 11 -10 12 -16
4 -16 -7 0 -12 -7 -12 -15 0 -16 55 -45 74 -40 6 2 23 6 39 9 40 9 33 34 -15
56 -24 11 -38 20 -31 20 9 0 53 62 53 76 0 3 -17 4 -37 2 -30 -2 -42 -10 -60
-37 l-23 -34 0 29 c0 32 -33 94 -50 94 -6 0 -13 -7 -16 -15z"></path>
<path class="node" id="node3" d="M1363 2854 c-16 -25 -17 -25 -30 -8 -12 16 -15 17 -23 4 -6 -8 -13
-25 -16 -37 -6 -21 -7 -21 -30 -6 -33 21 -49 6 -33 -30 7 -16 26 -31 45 -37
19 -7 34 -15 34 -19 0 -17 43 -51 65 -51 28 0 33 21 9 40 -13 12 -12 16 12 35
28 22 26 45 -3 45 -15 0 -14 2 0 18 21 23 23 72 2 72 -8 0 -22 -12 -32 -26z
m-3 -63 c0 -5 -7 -11 -14 -14 -10 -4 -13 -1 -9 9 6 15 23 19 23 5z m-30 -41
c0 -5 -5 -10 -11 -10 -5 0 -7 5 -4 10 3 6 8 10 11 10 2 0 4 -4 4 -10z"></path>
<path class="node" id="node4" d="M1230 2688 c-52 -31 -60 -32 -140 -30 -164 6 -235 6 -275 3 -22 -2
-95 4 -163 13 -114 16 -135 16 -280 1 -152 -15 -273 -41 -339 -72 -28 -13 -33
-21 -33 -49 0 -33 1 -34 23 -20 74 46 283 86 487 92 l165 4 -44 -20 c-25 -12
-64 -25 -87 -30 -84 -19 -267 -89 -318 -122 -28 -18 -90 -53 -138 -76 -86 -42
-88 -44 -88 -78 0 -20 3 -34 8 -32 56 26 192 100 245 135 74 48 124 72 231
107 271 90 296 94 373 51 91 -49 180 -156 219 -263 10 -26 21 -52 25 -57 13
-18 4 -43 -24 -65 -15 -12 -27 -31 -27 -42 0 -17 5 -20 29 -15 26 5 31 3 40
-24 12 -35 32 -34 42 2 4 13 7 18 8 11 1 -19 47 -62 66 -62 21 0 19 22 -5 53
-20 25 -20 25 1 30 17 5 19 9 10 26 -6 11 -20 23 -32 26 l-21 7 21 22 c29 30
27 36 -13 36 -41 0 -73 -34 -54 -57 6 -7 8 -16 4 -20 -10 -11 -17 2 -31 64
-17 73 -47 143 -85 199 -16 24 -26 44 -21 44 12 0 182 -139 231 -189 25 -26
62 -67 83 -92 l37 -46 0 -344 c0 -248 -4 -356 -13 -386 -12 -41 -13 -42 -38
-29 -18 9 -32 10 -44 4 -20 -12 -48 -74 -40 -88 4 -6 1 -10 -4 -10 -6 0 -11 4
-11 10 0 5 -7 7 -16 3 -9 -3 -14 -13 -11 -23 3 -11 -6 -23 -27 -35 -68 -40
-136 -107 -162 -161 -19 -40 -23 -58 -15 -68 12 -15 12 -626 0 -626 -4 0 -11
10 -15 23 -4 12 -12 25 -18 29 -19 13 -59 9 -77 -8 -14 -13 -20 -13 -38 -2
-18 11 -23 11 -31 -2 -18 -29 -11 -51 23 -65 17 -7 39 -22 48 -33 9 -11 23
-22 30 -24 12 -4 12 -7 0 -21 -20 -25 -6 -49 26 -45 22 2 29 9 31 31 4 33 15
34 38 5 13 -18 15 -19 10 -4 -5 14 -2 17 9 12 44 -18 48 -17 23 2 -14 12 -31
22 -37 22 -15 0 -14 15 3 29 9 8 63 11 167 9 135 -3 151 -5 128 -16 -20 -11
-24 -19 -21 -43 4 -24 7 -27 18 -18 8 7 18 9 22 5 11 -11 9 -70 -3 -78 -5 -4
0 -8 13 -8 13 0 22 6 22 15 0 8 5 15 10 15 6 0 10 -7 10 -15 0 -8 7 -15 15
-15 15 0 17 7 19 60 1 18 6 24 19 22 9 -2 17 1 17 7 0 5 3 16 6 25 4 10 -2 17
-20 22 -62 15 -15 24 127 24 141 0 155 -2 172 -20 14 -15 15 -20 4 -20 -8 0
-25 -9 -39 -20 -20 -15 -21 -20 -8 -20 9 0 20 5 23 10 4 6 11 8 16 4 5 -3 16
0 24 6 12 10 15 10 16 -1 1 -8 2 -21 3 -29 2 -23 60 -20 64 4 2 10 -2 23 -10
28 -11 8 -11 10 1 15 8 3 24 16 36 29 12 13 28 24 34 24 7 0 10 4 7 9 -3 5 1
8 10 7 9 0 21 7 27 16 9 14 8 21 -6 35 -15 15 -21 16 -38 5 -16 -10 -24 -10
-42 3 -40 28 -82 13 -100 -35 -3 -8 -6 136 -6 320 1 216 -3 345 -10 363 -13
34 -94 116 -149 151 -24 15 -42 34 -42 44 0 10 -11 25 -25 32 -14 7 -25 21
-25 30 0 9 -11 27 -24 39 -23 22 -25 22 -50 6 -25 -17 -26 -17 -36 10 -6 17
-9 156 -8 380 l3 353 95 -115 c147 -178 269 -270 404 -304 33 -8 51 -20 66
-43 l20 -31 -6 31 -6 31 54 -8 c29 -5 87 -7 128 -4 73 6 77 5 154 -34 43 -23
85 -41 93 -41 12 0 62 -70 55 -77 -3 -4 79 -156 94 -174 16 -17 19 -39 6 -39
-11 0 -34 -51 -27 -58 3 -4 15 -1 25 6 25 15 30 15 30 -2 0 -7 7 -19 15 -26
12 -10 16 -9 21 4 4 11 10 13 18 7 6 -4 21 -12 34 -15 28 -9 29 7 2 34 -16 16
-17 20 -5 20 22 0 18 17 -7 35 -20 13 -21 18 -10 35 21 34 -14 38 -48 5 l-28
-27 -18 33 c-9 19 -20 36 -24 39 -7 5 -63 121 -74 154 -6 17 -3 18 31 12 21
-4 72 -9 113 -11 68 -4 71 -4 30 6 -193 43 -216 50 -317 102 -46 23 -55 37
-24 37 39 0 160 71 202 118 66 75 90 140 97 256 3 65 1 97 -5 93 -6 -4 -12
-44 -15 -90 -11 -169 -87 -271 -241 -324 -75 -25 -94 -28 -232 -28 -158 0
-206 9 -300 59 l-40 21 30 2 c57 6 110 25 148 55 48 39 40 50 -11 14 -48 -33
-92 -46 -159 -46 -48 0 -55 3 -109 53 -57 51 -244 273 -244 289 0 13 63 9 121
-8 59 -18 139 -60 152 -81 4 -7 13 -13 19 -13 19 0 -24 40 -81 75 -68 41 -162
69 -206 62 -30 -5 -39 1 -116 82 -46 48 -118 114 -159 147 -77 62 -221 154
-243 154 -7 0 -4 6 7 12 21 12 177 3 205 -12 24 -14 184 -46 326 -65 l49 -7
-27 -16 c-34 -21 -34 -31 1 -44 24 -9 27 -15 24 -44 -5 -38 3 -42 29 -18 17
15 18 14 17 -15 -1 -17 7 -40 17 -51 17 -19 20 -19 28 -4 5 9 6 29 3 46 -5 26
-4 29 15 23 19 -6 21 -4 17 24 -5 37 0 38 38 9 84 -63 195 -202 210 -265 6
-24 24 -32 24 -10 0 6 -11 36 -25 65 -14 30 -25 55 -25 55 0 1 40 2 88 2 61 0
94 4 106 14 24 20 15 23 -39 11 -27 -6 -74 -8 -108 -4 -59 7 -62 9 -139 85
-43 44 -84 79 -89 79 -6 0 -8 9 -4 19 4 13 0 23 -12 30 -15 9 -12 10 18 11 53
0 147 19 209 41 76 28 129 61 170 105 35 38 30 36 -51 -22 -24 -17 -80 -44
-124 -59 -75 -27 -90 -29 -245 -29 -137 -1 -187 3 -292 24 -71 14 -128 27
-128 30 0 3 18 14 40 24 32 16 93 66 79 66 -2 0 -29 -15 -59 -32z m300 -193
c0 -8 -4 -15 -10 -15 -5 0 -10 7 -10 15 0 8 5 15 10 15 6 0 10 -7 10 -15z m10
-56 c0 -5 -4 -9 -10 -9 -5 0 -10 7 -10 16 0 8 5 12 10 9 6 -3 10 -10 10 -16z
m-350 -305 c0 -2 -7 -4 -15 -4 -8 0 -15 4 -15 10 0 5 7 7 15 4 8 -4 15 -8 15
-10z m136 -765 c3 -6 0 -15 -7 -20 -8 -5 -9 -9 -4 -9 8 -1 -51 -30 -61 -30 -3
0 14 35 29 58 10 15 33 16 43 1z m116 -6 c19 -17 24 -43 9 -43 -20 0 -41 13
-35 21 3 5 0 9 -5 9 -6 0 -11 7 -11 15 0 20 19 19 42 -2z m-113 -129 c-6 -32
-12 -81 -14 -107 -3 -53 -14 -71 -41 -65 -24 4 -29 40 -14 81 17 44 73 157 77
154 1 -2 -2 -30 -8 -63z m60 -127 c1 -47 0 -48 -26 -45 -28 3 -28 4 -27 68 2
67 7 107 20 150 7 20 11 11 21 -50 6 -41 12 -97 12 -123z m139 40 c12 -24 22
-54 22 -66 0 -18 -5 -22 -27 -19 -23 2 -29 9 -35 43 -9 42 -25 83 -59 150
l-20 40 48 -52 c27 -28 59 -71 71 -96z m-240 95 c-7 -18 -16 -32 -19 -32 -4 0
-13 -26 -20 -57 -17 -81 -25 -93 -60 -93 -27 0 -29 2 -23 27 4 15 16 43 28 63
23 41 97 132 102 127 2 -2 -2 -18 -8 -35z m135 -5 c24 -45 47 -119 47 -157 0
-17 -5 -21 -27 -18 -27 3 -28 5 -39 99 -6 53 -14 101 -18 107 -4 7 -3 12 3 12
5 0 20 -20 34 -43z m-185 6 c-38 -41 -61 -81 -78 -132 -13 -41 -18 -46 -45
-46 -24 0 -29 4 -27 20 5 28 65 103 119 147 53 45 67 49 31 11z m321 -52 c62
-62 91 -118 66 -127 -27 -11 -49 1 -56 31 -12 44 -47 105 -83 144 -53 58 7 18
73 -48z m-401 22 c-30 -29 -61 -69 -75 -101 -21 -47 -26 -53 -50 -50 -15 2
-28 8 -30 14 -6 17 82 109 140 149 71 48 76 44 15 -12z m440 0 c32 -21 112
-101 112 -113 0 -5 3 -15 6 -24 4 -11 0 -16 -14 -16 -32 0 -52 11 -52 29 0 22
-31 67 -87 125 -48 50 -46 49 35 -1z m-538 -408 l0 -235 -30 0 -30 0 0 235 0
235 30 0 30 0 0 -235z m80 0 l0 -235 -30 0 -30 0 0 235 0 235 30 0 30 0 0
-235z m80 0 l0 -235 -30 0 -30 0 0 235 0 235 30 0 30 0 0 -235z m88 70 c2
-164 -6 -230 -36 -275 -16 -24 -17 -18 -22 146 -3 94 -3 199 -2 233 4 61 4 62
30 59 l27 -3 3 -160z m80 40 c-3 -121 -4 -125 -30 -152 l-28 -28 0 153 0 152
31 0 31 0 -4 -125z m82 11 l0 -114 -29 11 -28 10 -2 104 -1 103 30 0 30 0 0
-114z m87 -123 l3 -233 -30 0 c-29 0 -30 1 -31 53 -1 28 -3 74 -4 100 -1 26 2
50 7 53 5 3 5 11 -1 17 -5 7 -8 28 -7 47 4 50 4 50 24 51 13 0 14 2 2 6 -8 3
-18 10 -21 15 -4 6 -4 108 0 126 1 2 13 2 29 0 l27 -3 2 -232z m84 55 c1 -101
3 -204 5 -229 5 -52 -9 -72 -44 -62 -22 5 -22 7 -22 239 l0 234 30 0 30 0 1
-182z m79 -51 c0 -129 -2 -236 -5 -239 -3 -3 -17 -3 -30 0 l-25 4 0 234 0 234
30 0 30 0 0 -233z m-250 -142 l0 -95 -30 0 c-26 0 -30 4 -30 26 0 14 11 39 25
56 17 20 25 42 25 69 0 21 2 39 5 39 3 0 5 -43 5 -95z m-84 -92 c-11 -11 -19
6 -11 24 8 17 8 17 12 0 3 -10 2 -21 -1 -24z m-32 12 c3 -9 0 -15 -9 -15 -8 0
-15 7 -15 15 0 8 4 15 9 15 5 0 11 -7 15 -15z m-294 -113 l0 -79 -30 5 -30 4
0 74 0 74 30 0 30 0 0 -78z m80 3 l0 -75 -30 0 -30 0 0 75 0 75 30 0 30 0 0
-75z m64 60 c-25 -19 -44 -19 -44 0 0 10 10 15 32 15 30 0 31 -1 12 -15z m106
-60 l0 -75 -30 0 c-28 0 -30 2 -30 39 0 37 34 110 53 111 4 0 7 -34 7 -75z
m80 0 l0 -75 -30 0 -30 0 0 75 0 75 30 0 30 0 0 -75z m80 0 l0 -75 -30 0 -30
0 0 75 0 75 30 0 30 0 0 -75z m90 0 l0 -75 -34 0 -33 0 3 58 c1 31 3 65 3 75
1 12 9 17 31 17 l30 0 0 -75z m86 59 c-3 -9 -6 -42 -6 -75 0 -59 0 -59 -30
-59 l-30 0 0 75 0 75 36 0 c29 0 35 -3 30 -16z m74 -59 l0 -75 -30 0 -30 0 0
75 0 75 30 0 30 0 0 -75z m-500 -40 c0 -32 -2 -35 -30 -35 -28 0 -30 3 -30 35
0 32 2 35 30 35 28 0 30 -3 30 -35z m-277 -5 c10 -10 9 -12 -5 -7 -27 10 -48
-3 -48 -28 0 -26 33 -39 61 -25 21 12 37 -19 17 -32 -39 -24 -98 5 -98 50 0
48 44 74 73 42z m893 3 c18 -24 17 -68 -2 -87 -29 -30 -101 -16 -88 17 4 12
11 14 23 7 29 -15 61 -1 61 26 0 32 -29 43 -46 19 -12 -16 -14 -17 -14 -2 0
15 25 36 44 37 5 0 15 -8 22 -17z m-906 -27 c0 -3 -4 -8 -10 -11 -5 -3 -10 -1
-10 4 0 6 5 11 10 11 6 0 10 -2 10 -4z m885 -6 c3 -5 2 -10 -4 -10 -5 0 -13 5
-16 10 -3 6 -2 10 4 10 5 0 13 -4 16 -10z"></path>
<path class="node" id="node5" d="M1438 893 c7 -3 16 -2 19 1 4 3 -2 6 -13 5 -11 0 -14 -3 -6 -6z"></path>
<path class="node" id="node6" d="M2446 2503 c-11 -11 -6 -73 8 -101 15 -30 61 -60 73 -48 14 14 4 76
-16 102 -27 34 -56 55 -65 47z"></path>
<path class="node" id="node7" d="M2587 2419 c-40 -23 -63 -123 -34 -148 8 -6 16 -8 19 -6 3 3 3 -5 1
-18 -10 -52 92 -33 137 25 30 39 18 52 -41 45 l-49 -6 0 54 c0 58 -6 69 -33
54z"></path>
<path class="node" id="node8" d="M2410 2345 c0 -17 12 -39 34 -61 25 -25 29 -34 18 -34 -25 0 -82 -38
-82 -54 0 -34 97 -38 144 -5 34 23 38 49 8 49 -11 0 -13 3 -5 11 28 28 -27
103 -85 115 -30 6 -32 5 -32 -21z"></path>
<path class="node" id="node9" d="M1996 2094 c-3 -9 -6 -25 -6 -36 0 -17 -2 -19 -16 -7 -13 10 -17 10
-25 -2 -5 -8 -8 -23 -6 -34 1 -15 -4 -20 -22 -20 -37 0 -36 -22 1 -45 l33 -20
17 20 c21 25 28 25 21 0 -6 -21 26 -34 68 -28 32 4 35 26 5 34 -30 7 -32 16
-11 34 21 18 19 40 -5 40 -17 0 -20 7 -20 40 0 41 -21 57 -34 24z m9 -73 c3
-5 1 -12 -5 -16 -5 -3 -10 1 -10 9 0 18 6 21 15 7z"></path>
<path class="node" id="node10" d="M2701 1691 c-22 -41 -7 -99 23 -88 10 4 16 1 16 -8 0 -8 -6 -15 -14
-15 -33 0 -27 -70 8 -99 13 -11 17 -9 26 14 5 14 10 30 10 34 0 4 16 5 35 3
21 -3 35 0 35 7 0 14 -37 51 -51 51 -5 0 -7 5 -4 10 4 6 12 4 22 -6 11 -10 24
-13 42 -9 31 8 63 34 55 46 -8 13 -68 11 -83 -3 -10 -11 -10 -8 -2 15 10 24 8
27 -12 27 -12 0 -33 -7 -45 -16 -21 -14 -22 -14 -22 9 0 14 -6 30 -14 36 -12
10 -17 8 -25 -8z"></path>
<path class="node" id="node11" d="M1960 1624 c0 -8 5 -12 10 -9 6 4 8 11 5 16 -9 14 -15 11 -15 -7z"></path>
<path class="node" id="node12" d="M2001 1589 c-19 -4 -40 -5 -48 -2 -17 7 -66 -25 -58 -37 4 -6 15 -10
26 -10 15 0 18 -5 13 -24 -6 -27 14 -46 27 -25 7 11 9 9 9 -7 0 -12 9 -32 19
-45 18 -22 20 -22 26 -6 4 9 5 28 3 41 -4 18 -1 22 13 19 16 -5 17 -1 10 25
-8 26 -6 31 16 41 45 21 4 43 -56 30z"></path>








<path class="node" id="node21" d="M1921 1007 c-6 -8 -18 -38 -25 -67 -15 -58 -18 -55 59 -65 57 -8 95
-37 95 -73 0 -34 35 -88 71 -109 16 -10 32 -29 35 -43 10 -44 12 -49 39 -66
20 -13 29 -14 34 -6 4 7 31 19 59 27 52 16 73 45 31 45 -32 0 -119 41 -119 56
0 8 10 14 25 14 48 0 91 26 123 75 33 50 38 65 23 65 -5 0 -5 16 0 38 5 20 9
52 9 71 l0 33 -33 -29 c-18 -16 -61 -37 -96 -48 -47 -14 -69 -27 -88 -52 -31
-41 -43 -41 -65 -3 -12 21 -25 30 -43 30 -19 0 -25 5 -25 21 0 12 -8 23 -20
26 -11 3 -20 10 -21 17 -1 6 -2 20 -3 31 -1 25 -47 33 -65 12z"></path>
<path class="node" id="node22" d="M1227 324 c-9 -10 2 -24 19 -24 8 0 14 7 14 15 0 15 -21 21 -33 9z"></path>
<path class="node" id="node23" d="M1460 315 c0 -8 9 -15 20 -15 11 0 20 7 20 15 0 8 -9 15 -20 15 -11
0 -20 -7 -20 -15z"></path>
<path class="node" id="node24" d="M1050 310 c0 -5 7 -10 15 -10 8 0 15 -6 15 -14 0 -26 38 -28 85 -5
33 17 42 26 34 33 -8 8 -13 7 -16 -1 -6 -16 -39 -17 -48 -3 -5 8 -11 7 -20 0
-10 -8 -19 -8 -34 -1 -25 14 -31 14 -31 1z"></path>
<path class="node" id="node25" d="M1515 311 c-3 -5 4 -12 15 -16 11 -3 20 -10 20 -15 0 -12 47 -21 75
-14 14 3 25 12 25 20 0 8 5 14 12 14 6 0 9 2 6 5 -3 3 -17 1 -31 -4 -18 -7
-27 -7 -29 1 -3 7 -11 6 -27 -3 -19 -12 -24 -12 -35 4 -15 19 -22 21 -31 8z"></path>







</g>
<g transform="translate(0.000000,300.000000) scale(0.100000,-0.100000)" fill="#FFFFFF" stroke="none">

<path class="node" id="node34" d="M1337 2786 c-4 -10 -1 -13 9 -9 15 6 19 23 5 23 -5 0 -11 -7 -14 -14z"></path>
<path class="node" id="node35" d="M1315 2750 c-3 -5 -1 -10 4 -10 6 0 11 5 11 10 0 6 -2 10 -4 10 -3 0
-8 -4 -11 -10z"></path>
<path class="node" id="node36" d="M1990 2014 c0 -8 5 -12 10 -9 6 4 8 11 5 16 -9 14 -15 11 -15 -7z"></path>


<path class="node" id="node39" d="M1510 2495 c0 -8 5 -15 10 -15 6 0 10 7 10 15 0 8 -4 15 -10 15 -5 0
-10 -7 -10 -15z"></path>
<path class="node" id="node40" d="M1520 2446 c0 -9 5 -16 10 -16 6 0 10 4 10 9 0 6 -4 13 -10 16 -5 3
-10 -1 -10 -9z"></path>
<path class="node" id="node41" d="M1160 2140 c0 -6 7 -10 15 -10 8 0 15 2 15 4 0 2 -7 6 -15 10 -8 3
-15 1 -15 -4z"></path>
<path class="node" id="node42" d="M1283 1368 c-15 -23 -32 -58 -29 -58 10 0 69 29 61 30 -5 0 -4 4 4 9
16 10 6 31 -14 31 -8 0 -17 -6 -22 -12z"></path>
<path class="node" id="node43" d="M1400 1365 c0 -8 5 -15 11 -15 5 0 8 -4 5 -9 -6 -8 15 -21 35 -21 15
0 10 26 -9 43 -23 21 -42 22 -42 2z"></path>
<path class="node" id="node44" d="M1303 1237 c-59 -120 -67 -168 -29 -175 27 -6 38 12 41 65 2 26 8 75
14 107 6 33 9 61 8 63 -2 1 -17 -26 -34 -60z"></path>
<path class="node" id="node45" d="M1356 1280 c-13 -43 -18 -83 -20 -150 -1 -64 -1 -65 27 -68 26 -3 27
-2 26 45 0 26 -6 82 -12 123 -10 61 -14 70 -21 50z"></path>
<path class="node" id="node46" d="M1429 1255 c34 -67 50 -108 59 -150 6 -34 12 -41 35 -43 22 -3 27 1
27 19 0 35 -41 107 -93 162 l-48 52 20 -40z"></path>
<path class="node" id="node47" d="M1253 1233 c-47 -57 -77 -108 -87 -146 -6 -25 -4 -27 23 -27 35 0 43
12 60 93 7 31 16 57 20 57 7 0 33 62 27 67 -2 2 -21 -18 -43 -44z"></path>
<path class="node" id="node48" d="M1386 1268 c4 -6 12 -54 18 -107 11 -94 12 -96 39 -99 22 -3 27 1 27
18 0 59 -57 200 -81 200 -6 0 -7 -5 -3 -12z"></path>
<path class="node" id="node49" d="M1207 1232 c-54 -44 -114 -119 -119 -147 -2 -16 3 -20 27 -20 27 0
32 5 45 46 17 51 40 91 78 132 36 38 22 34 -31 -11z"></path>
<path class="node" id="node50" d="M1486 1239 c36 -39 71 -100 83 -144 7 -30 29 -42 56 -31 25 9 -4 65
-66 127 -66 66 -126 106 -73 48z"></path>
<path class="node" id="node51" d="M1143 1225 c-58 -40 -146 -132 -140 -149 2 -6 15 -12 30 -14 24 -3
29 3 50 50 14 32 45 72 75 101 61 56 56 60 -15 12z"></path>
<path class="node" id="node52" d="M1563 1214 c56 -58 87 -103 87 -125 0 -18 20 -29 52 -29 14 0 18 5
14 16 -3 9 -6 19 -6 24 0 12 -80 92 -112 113 -81 50 -83 51 -35 1z"></path>
<path class="node" id="node53" d="M1000 805 l0 -235 30 0 30 0 0 235 0 235 -30 0 -30 0 0 -235z"></path>
<path class="node" id="node54" d="M1080 805 l0 -235 30 0 30 0 0 235 0 235 -30 0 -30 0 0 -235z"></path>
<path class="node" id="node55" d="M1160 805 l0 -235 30 0 30 0 0 235 0 235 -30 0 -30 0 0 -235z"></path>
<path class="node" id="node56" d="M1248 979 c-1 -34 -1 -139 2 -233 5 -164 6 -170 22 -146 30 45 38
111 36 275 l-3 160 -27 3 c-26 3 -26 2 -30 -59z"></path>
<path class="node" id="node57" d="M1330 888 l0 -153 28 28 c26 27 27 31 30 152 l4 125 -31 0 -31 0 0
-152z"></path>
<path class="node" id="node58" d="M1411 937 l2 -104 28 -10 29 -11 0 114 0 114 -30 0 -30 0 1 -103z
m46 -43 c-3 -3 -12 -4 -19 -1 -8 3 -5 6 6 6 11 1 17 -2 13 -5z"></path>
<path class="node" id="node59" d="M1499 1038 c-4 -18 -4 -120 0 -126 3 -5 13 -12 21 -15 12 -4 11 -6
-2 -6 -20 -1 -20 -1 -24 -51 -1 -19 2 -40 7 -47 6 -6 6 -14 1 -17 -5 -3 -8
-27 -7 -53 1 -26 3 -72 4 -100 1 -52 2 -53 31 -53 l30 0 -3 233 -2 232 -27 3
c-16 2 -28 2 -29 0z"></path>
<path class="node" id="node60" d="M1580 806 c0 -232 0 -234 22 -239 35 -10 49 10 44 62 -2 25 -4 128
-5 229 l-1 182 -30 0 -30 0 0 -234z"></path>
<path class="node" id="node61" d="M1660 806 l0 -234 25 -4 c13 -3 27 -3 30 0 3 3 5 110 5 239 l0 233
-30 0 -30 0 0 -234z"></path>
<path class="node" id="node62" d="M1460 721 c0 -27 -8 -49 -25 -69 -14 -17 -25 -42 -25 -56 0 -22 4
-26 30 -26 l30 0 0 95 c0 52 -2 95 -5 95 -3 0 -5 -18 -5 -39z"></path>
<path class="node" id="node63" d="M1375 597 c-4 -10 -5 -21 -1 -24 10 -10 18 4 13 24 -4 17 -4 17 -12
0z"></path>
<path class="node" id="node64" d="M1330 585 c0 -8 7 -15 15 -15 9 0 12 6 9 15 -4 8 -10 15 -15 15 -5 0
-9 -7 -9 -15z"></path>
<path class="node" id="node65" d="M1000 476 l0 -74 30 -4 30 -5 0 79 0 78 -30 0 -30 0 0 -74z"></path>
<path class="node" id="node66" d="M1080 475 l0 -75 30 0 30 0 0 75 0 75 -30 0 -30 0 0 -75z"></path>
<path class="node" id="node67" d="M1160 535 c0 -19 19 -19 44 0 19 14 18 15 -12 15 -22 0 -32 -5 -32
-15z"></path>
<path class="node" id="node68" d="M1273 514 c-14 -21 -23 -51 -23 -75 0 -37 2 -39 30 -39 l30 0 0 75
c0 41 -3 75 -7 75 -5 -1 -18 -17 -30 -36z"></path>
<path class="node" id="node69" d="M1330 475 l0 -75 30 0 30 0 0 75 0 75 -30 0 -30 0 0 -75z"></path>
<path class="node" id="node70" d="M1410 475 l0 -75 30 0 30 0 0 75 0 75 -30 0 -30 0 0 -75z"></path>
<path class="node" id="node71" d="M1499 533 c0 -10 -2 -44 -3 -75 l-3 -58 33 0 34 0 0 75 0 75 -30 0
c-22 0 -30 -5 -31 -17z"></path>
<path class="node" id="node72" d="M1580 475 l0 -75 30 0 c30 0 30 0 30 59 0 33 3 66 6 75 5 13 -1 16
-30 16 l-36 0 0 -75z"></path>
<path class="node" id="node73" d="M1660 475 l0 -75 30 0 30 0 0 75 0 75 -30 0 -30 0 0 -75z"></path>
<path class="node" id="node74" d="M1160 435 c0 -32 2 -35 30 -35 28 0 30 3 30 35 0 32 -2 35 -30 35
-28 0 -30 -3 -30 -35z"></path>
<path class="node" id="node75" d="M886 431 c-21 -24 -20 -64 2 -84 33 -30 99 -17 86 16 -4 12 -11 14
-23 7 -28 -14 -61 -1 -61 25 0 25 21 38 48 28 14 -5 15 -3 5 7 -19 20 -40 20
-57 1z"></path>
<path class="node" id="node76" d="M1788 439 c-10 -5 -18 -17 -18 -26 0 -15 2 -14 14 2 17 24 46 13 46
-19 0 -27 -32 -41 -61 -26 -12 7 -19 5 -23 -7 -13 -33 59 -47 88 -17 19 19 20
63 2 87 -15 19 -24 21 -48 6z"></path>
<path class="node" id="node77" d="M910 399 c0 -5 5 -7 10 -4 6 3 10 8 10 11 0 2 -4 4 -10 4 -5 0 -10
-5 -10 -11z"></path>
<path class="node" id="node78" d="M1795 400 c3 -5 11 -10 16 -10 6 0 7 5 4 10 -3 6 -11 10 -16 10 -6 0
-7 -4 -4 -10z"></path>
</g>
</svg>