<!--?xml version="1.0" standalone="no"?--><svg version="1.0" xmlns="http://www.w3.org/2000/svg" width="211.000000pt" height="300.000000pt" viewBox="0 0 211.000000 300.000000" preserveAspectRatio="xMidYMid meet">
<metadata>
  <rdf:rdf xmlns:rdf="http://www.w3.org/1999/02/22-rdf-syntax-ns#" xmlns:rdfs="http://www.w3.org/2000/01/rdf-schema#" xmlns:dc="http://purl.org/dc/elements/1.1/">
    <rdf:description dc:title="valentines day heart clipart" dc:publisher="Hiox" dc:date="2016-02-19" dc:format="image/svg+xml" dc:language="en">
      <dc:creator>
        <rdf:bag>
          <rdf:li>svgimages.com</rdf:li>
        </rdf:bag>
      </dc:creator>
    </rdf:description>
  </rdf:rdf>
</metadata>
<g transform="translate(0.000000,300.000000) scale(0.100000,-0.100000)" fill="#7E5FF6" stroke="none">
<path d="M1445 2779 c-67 -20 -140 -64 -143 -87 -2 -12 -10 -22 -17 -22 -7 0
-15 -10 -17 -22 -2 -19 -9 -23 -32 -21 -16 1 -32 6 -35 11 -11 16 -41 21 -67
12 -18 -7 -31 -7 -40 1 -17 14 -72 18 -101 8 -14 -5 -25 -4 -29 3 -5 8 -11 6
-19 -5 -13 -19 -56 -30 -70 -20 -6 5 -16 20 -22 35 -7 16 -18 25 -25 23 -7 -3
-30 3 -51 14 -36 18 -39 18 -84 1 -26 -10 -49 -23 -51 -29 -2 -6 -9 -11 -16
-11 -18 0 -57 -40 -51 -51 4 -5 2 -9 -4 -9 -17 0 -40 -55 -47 -114 -7 -59 8
-116 31 -116 7 0 15 -10 18 -21 4 -14 11 -20 21 -16 8 3 20 -1 26 -9 7 -8 19
-14 27 -14 17 0 13 -41 -6 -64 -10 -12 -11 -19 -2 -30 9 -10 8 -16 -4 -26 -9
-7 -13 -21 -10 -30 3 -10 0 -30 -7 -46 -6 -16 -12 -33 -13 -39 0 -5 -5 -17
-10 -25 -6 -8 -10 -35 -10 -60 -1 -25 -3 -52 -5 -60 -3 -8 0 -14 6 -13 7 1 14
-10 17 -25 4 -16 20 -37 41 -50 33 -22 34 -26 35 -86 l0 -64 -48 -6 c-27 -4
-54 -13 -61 -21 -7 -8 -21 -15 -32 -15 -18 0 -97 -31 -128 -50 -8 -5 -35 -19
-59 -30 -24 -11 -41 -23 -38 -27 4 -3 -2 -12 -13 -20 -11 -8 -20 -22 -20 -32
0 -9 -5 -22 -10 -27 -23 -23 1 -93 46 -141 49 -51 54 -68 24 -76 -11 -3 -23
-13 -27 -24 -4 -10 -17 -26 -30 -36 -48 -38 -17 -84 63 -93 39 -5 53 -3 63 10
7 9 27 16 43 16 61 0 144 71 135 117 -4 20 0 23 24 23 16 0 29 4 29 9 0 5 10
11 23 13 22 4 22 2 20 -54 -2 -33 1 -58 7 -58 6 0 10 -10 10 -22 1 -13 7 -36
14 -53 11 -26 10 -34 -5 -59 -10 -16 -16 -33 -14 -37 3 -4 -1 -22 -9 -40 -15
-36 -16 -233 -2 -299 4 -19 7 -46 7 -59 -1 -14 6 -35 14 -47 20 -31 20 -31
-22 -53 -43 -21 -66 -50 -107 -133 -31 -62 -29 -93 7 -103 12 -4 41 -16 65
-27 34 -16 45 -18 57 -8 12 10 25 10 61 0 52 -15 254 -7 264 10 4 6 22 19 41
28 28 14 37 27 51 72 21 69 48 191 48 218 0 19 4 20 78 15 42 -3 78 -7 80 -9
2 -1 -1 -12 -7 -23 -8 -14 -8 -41 -1 -93 16 -110 28 -148 45 -142 8 4 15 2 15
-4 0 -13 54 -67 87 -90 57 -36 308 -28 352 12 10 9 25 16 35 16 32 0 55 20 65
58 12 45 -1 121 -23 138 -9 6 -16 16 -16 22 0 16 -58 54 -94 61 -28 6 -31 10
-28 41 2 19 7 40 12 45 4 6 10 24 14 40 4 17 13 37 20 45 8 8 17 44 21 80 15
134 7 230 -20 260 -8 9 -15 21 -15 27 0 6 -7 13 -15 17 -17 6 -21 36 -5 36 6
0 10 19 9 42 -1 24 -1 86 1 139 1 57 -2 105 -9 117 -11 20 -11 47 0 67 5 9 4
126 -2 168 -1 9 -7 17 -12 17 -5 0 -7 6 -4 14 4 9 -3 17 -16 21 -20 6 -18 8
13 17 161 44 190 131 64 194 -33 16 -60 30 -62 30 -2 1 6 29 18 63 38 114 23
158 -50 148 -22 -3 -38 -1 -35 4 3 5 1 18 -5 29 -8 15 -8 20 1 20 7 0 9 8 5
23 -10 32 -17 69 -17 89 0 10 -4 20 -10 23 -5 3 -1 18 9 33 9 14 23 42 31 62
17 41 24 177 11 185 -6 4 -10 13 -10 22 0 25 -59 76 -129 111 -68 34 -78 36
-126 21z m98 -25 c9 -3 17 -10 17 -15 0 -5 9 -9 19 -9 28 0 93 -64 80 -77 -8
-8 -5 -15 11 -23 13 -7 19 -17 16 -27 -3 -8 -3 -20 1 -26 10 -17 13 -87 3 -87
-4 0 -10 -17 -14 -37 -8 -50 -37 -83 -73 -84 -15 0 -37 -4 -48 -9 -15 -6 -6
-9 33 -9 46 -1 53 -4 50 -19 -2 -11 3 -26 10 -35 9 -10 9 -17 3 -22 -7 -4 -5
-14 5 -30 10 -16 12 -25 4 -30 -6 -4 -8 -15 -5 -25 3 -10 1 -21 -5 -25 -7 -4
-7 -12 0 -26 7 -12 7 -19 1 -19 -6 0 -13 -22 -17 -50 -4 -27 -10 -47 -15 -44
-5 3 -9 -6 -9 -20 0 -19 -5 -26 -20 -26 -11 0 -20 -7 -20 -15 0 -8 -4 -15 -10
-15 -5 0 -10 -9 -10 -19 0 -14 -5 -18 -20 -14 -15 4 -20 0 -20 -17 0 -17 -4
-20 -20 -15 -15 5 -20 2 -20 -10 0 -11 -5 -15 -15 -11 -10 4 -19 -2 -24 -15
-5 -16 -18 -22 -51 -25 -25 -3 -48 -11 -52 -19 -5 -8 -23 -17 -41 -20 -21 -4
-38 -16 -48 -33 -9 -15 -31 -36 -50 -46 l-34 -19 24 26 c14 15 21 30 17 34 -4
4 -11 2 -15 -5 -10 -17 -77 -52 -99 -52 -10 0 -23 -5 -29 -11 -19 -19 -108
-16 -130 4 -11 9 -27 17 -36 17 -17 0 -57 37 -57 53 0 4 12 0 28 -11 34 -25
87 -39 132 -37 73 4 129 18 146 36 9 10 22 19 28 19 30 0 80 135 71 191 -9 49
-31 95 -50 103 -12 4 -10 10 10 30 14 14 25 37 25 51 0 32 -41 75 -72 75 -31
0 -67 -26 -78 -56 -10 -26 -40 -23 -41 5 0 12 -2 12 -9 -4 -7 -17 -9 -16 -10
10 -2 30 -2 30 -10 5 -8 -25 -8 -25 -10 5 l-2 30 -8 -30 c-4 -16 -8 -22 -9
-13 0 9 -5 20 -11 23 -6 3 -7 -1 -4 -9 3 -9 1 -16 -5 -16 -6 0 -11 6 -11 13 0
8 -4 7 -10 -3 -5 -8 -10 -10 -10 -5 0 6 -7 2 -15 -9 -13 -17 -15 -16 -29 18
-19 46 -56 57 -94 29 -39 -29 -42 -84 -7 -111 24 -19 24 -21 6 -27 -30 -9 -71
-106 -64 -152 3 -21 10 -43 15 -49 6 -8 -1 -11 -22 -9 -37 3 -89 42 -90 68 0
9 -4 17 -8 17 -11 0 -3 58 9 66 14 9 10 22 -8 26 -16 3 -16 4 0 20 9 9 17 24
17 32 0 9 8 16 20 16 24 0 27 18 5 27 -14 5 -14 8 1 24 16 17 16 19 0 25 -15
6 -15 9 6 31 19 20 20 26 8 34 -13 8 -13 11 3 20 9 6 15 14 12 19 -6 10 8 38
38 79 13 19 15 26 5 32 -8 5 -3 10 15 14 15 4 27 11 27 17 0 14 -42 -1 -68
-25 -16 -15 -19 -23 -10 -28 9 -6 9 -11 -1 -22 -13 -17 -52 -11 -64 9 -4 7
-14 11 -22 8 -11 -5 -15 1 -15 20 0 20 -5 26 -17 24 -22 -4 -35 45 -27 101 8
61 24 91 51 97 24 6 32 24 11 24 -20 1 23 30 43 30 10 0 22 6 26 14 4 7 27 16
50 18 33 5 45 2 59 -13 10 -11 24 -17 31 -15 8 3 17 -2 20 -12 4 -9 17 -27 31
-40 22 -21 25 -22 37 -6 7 10 17 14 25 9 7 -4 16 -2 20 5 5 9 17 9 44 2 29 -8
36 -8 36 4 0 17 12 18 28 2 9 -9 12 -9 12 1 0 11 3 11 15 1 11 -9 22 -9 46 -1
40 14 39 14 33 -4 -4 -10 0 -15 14 -15 12 0 23 -4 26 -9 3 -5 15 -7 26 -4 16
4 23 -2 35 -31 9 -20 20 -34 25 -31 7 4 6 13 0 26 -6 11 -7 25 -3 32 4 6 6 22
4 34 -2 17 1 21 13 17 12 -4 16 0 16 15 0 12 4 21 9 21 5 0 12 12 15 26 5 20
10 23 21 14 10 -8 16 -7 27 7 26 36 83 46 151 27z m-695 -566 c7 -7 11 -26 11
-42 -1 -24 -3 -26 -6 -8 -6 30 -37 46 -63 32 -11 -6 -20 -7 -20 -2 0 15 24 32
45 32 12 0 26 -5 33 -12z m334 -15 c19 -17 24 -58 8 -68 -6 -4 -10 5 -10 20 0
31 -40 51 -71 35 -21 -12 -26 -1 -7 18 17 17 58 15 80 -5z m-382 -47 c0 -3 -4
-8 -10 -11 -5 -3 -10 -1 -10 4 0 6 5 11 10 11 6 0 10 -2 10 -4z m190 -9 c0 -4
9 -5 20 -2 12 4 20 2 20 -5 0 -7 7 -10 15 -7 8 4 17 2 20 -3 4 -6 14 -10 24
-10 10 0 26 -10 37 -21 10 -12 29 -25 41 -30 14 -5 20 -14 17 -22 -3 -8 3 -17
13 -21 15 -6 15 -8 3 -16 -13 -8 -12 -11 4 -23 13 -10 17 -21 13 -38 -7 -32
-30 -93 -38 -99 -4 -3 -9 -15 -13 -27 -4 -13 -15 -23 -26 -23 -10 0 -21 -7
-24 -16 -3 -8 -11 -12 -16 -9 -6 4 -17 2 -24 -4 -17 -14 -115 -21 -123 -8 -3
5 -14 7 -24 4 -11 -3 -26 1 -33 9 -8 8 -21 14 -28 14 -21 1 -89 57 -105 87
-22 41 -27 127 -8 143 8 7 15 17 15 22 0 14 77 86 100 93 11 3 20 10 20 15 0
5 23 8 50 7 28 0 50 -5 50 -10z m130 3 c0 -5 -5 -10 -11 -10 -5 0 -7 5 -4 10
3 6 8 10 11 10 2 0 4 -4 4 -10z m638 -38 c-5 -56 -35 -122 -60 -134 -49 -22
-53 -27 -53 -54 0 -24 -4 -29 -25 -29 -16 0 -26 -7 -28 -18 -3 -15 1 -17 22
-11 20 5 26 2 26 -10 0 -8 11 -23 25 -32 24 -15 28 -15 70 1 57 21 58 52 1
113 l-21 23 27 -10 c52 -20 103 -49 122 -70 19 -21 19 -21 0 -42 -10 -12 -36
-30 -56 -40 -47 -24 -128 -37 -128 -20 0 6 -9 11 -20 11 -11 0 -23 6 -26 14
-6 15 -44 10 -44 -5 0 -13 47 -30 65 -23 10 4 15 0 15 -10 0 -9 7 -16 15 -16
8 0 15 -7 15 -15 0 -8 7 -15 15 -15 8 0 14 -3 13 -7 -1 -5 3 -18 10 -30 6 -12
9 -28 6 -36 -3 -9 -1 -25 6 -36 8 -16 8 -21 -1 -21 -7 0 -9 -9 -5 -26 5 -19 3
-24 -5 -18 -9 5 -10 1 -7 -14 4 -12 2 -22 -4 -22 -6 0 -8 -9 -5 -21 9 -33 -10
-68 -48 -90 -19 -12 -35 -27 -35 -34 0 -8 -5 -17 -12 -21 -8 -5 -9 -2 -5 9 10
27 -12 19 -25 -8 -12 -27 -24 -32 -31 -12 -5 12 -8 5 -22 -38 -2 -8 -11 -12
-18 -9 -8 3 -17 -2 -20 -10 -4 -9 -11 -16 -17 -16 -15 0 -12 26 4 39 8 6 16
22 20 34 5 21 5 21 -13 -2 l-19 -24 -6 34 c-20 103 -31 133 -67 184 -24 34
-33 55 -25 55 8 0 19 14 25 31 8 24 15 29 31 24 17 -5 20 -2 21 27 1 18 1 39
0 46 -1 6 3 12 9 12 6 0 9 -4 5 -9 -3 -5 -1 -12 4 -15 5 -4 12 -2 15 3 4 5 2
12 -4 16 -15 9 -2 25 20 25 13 0 20 10 25 33 4 17 12 47 18 65 9 25 8 37 -1
52 -15 24 -15 33 -2 25 6 -3 13 2 17 11 11 29 39 51 63 50 15 -1 28 7 34 19 6
11 21 30 34 43 29 29 28 47 -4 77 -23 22 -24 24 -7 34 10 6 31 11 47 11 28 0
28 -1 24 -48z m-61 -29 c4 -12 -23 -43 -38 -43 -13 0 -11 34 3 48 14 14 30 11
35 -5z m-51 -80 c-10 -10 -19 5 -10 18 6 11 8 11 12 0 2 -7 1 -15 -2 -18z m80
-87 c39 -39 42 -51 14 -66 -30 -16 -74 -9 -78 13 -3 14 4 17 33 17 22 0 34 4
30 10 -3 6 -15 10 -25 10 -20 0 -44 32 -33 44 12 12 25 6 59 -28z m-190 -41
c12 -30 -2 -35 -25 -11 l-24 26 22 0 c12 0 24 -7 27 -15z m-35 -62 c-9 -35
-25 -39 -50 -12 -27 29 -26 43 2 56 32 15 57 -9 48 -44z m-777 33 c-21 -15
-30 -14 -19 3 3 6 14 11 23 11 13 0 13 -2 -4 -14z m53 -51 c21 -33 21 -35 4
-35 -29 0 -65 34 -58 53 10 26 30 19 54 -18z m646 5 c18 -29 56 -48 76 -36 5
4 12 2 16 -4 3 -5 -3 -10 -14 -10 -11 0 -23 -4 -26 -10 -3 -5 -26 11 -50 37
-50 51 -51 53 -32 53 7 0 21 -13 30 -30z m-48 -6 c42 -20 63 -50 69 -103 4
-36 2 -41 -15 -41 -12 0 -23 -10 -29 -26 -6 -14 -15 -22 -20 -19 -6 3 -13 -1
-16 -9 -3 -9 -10 -14 -15 -11 -4 3 -15 -8 -24 -25 -15 -29 -31 -37 -90 -42
-22 -2 -31 -9 -33 -25 -2 -13 -8 -23 -13 -23 -5 0 -9 -10 -9 -22 0 -18 -23
-37 -114 -91 -62 -38 -123 -71 -134 -74 -16 -4 -41 14 -107 78 -85 82 -127
139 -138 189 -10 41 6 54 26 21 32 -54 117 -63 117 -12 0 10 7 24 16 32 8 7
13 21 11 31 -7 23 10 24 17 0 7 -20 79 -70 114 -79 33 -8 42 6 49 71 5 52 8
57 27 52 117 -29 119 -29 133 -10 7 10 13 30 13 45 0 16 8 34 18 41 10 7 24
22 31 33 10 17 11 10 6 -41 -5 -52 -3 -63 14 -79 24 -21 83 -16 111 10 15 14
17 22 8 46 -11 33 -61 79 -86 80 -14 0 -13 2 3 9 11 5 22 9 23 9 2 1 19 -6 37
-15z m-607 -54 c20 -5 42 -10 49 -10 6 0 32 -10 57 -23 l45 -23 -29 -13 c-26
-11 -36 -9 -90 15 -34 15 -70 38 -81 52 -23 29 -26 50 -4 28 9 -8 32 -20 53
-26z m587 -1 c33 -40 29 -61 -13 -73 -26 -7 -36 -6 -50 8 -13 13 -14 20 -5 35
6 10 9 28 6 40 -9 33 30 27 62 -10z m-575 -67 c21 -8 19 -10 -25 -21 -55 -14
-65 -7 -65 47 l0 33 33 -25 c18 -14 43 -29 57 -34z m-110 16 c0 -18 4 -39 9
-47 5 -7 4 -25 -3 -42 -8 -24 -7 -39 8 -77 18 -46 19 -62 13 -112 -2 -14 -5
-33 -5 -42 -1 -10 -15 -19 -34 -23 -18 -4 -38 -12 -45 -17 -11 -9 -107 -2
-125 8 -3 2 22 35 58 72 35 37 64 69 64 72 0 3 -27 16 -59 29 -51 20 -64 22
-94 12 -20 -7 -47 -28 -62 -47 -26 -34 -26 -36 -9 -55 18 -20 18 -21 -6 -39
-31 -23 -58 -11 -67 31 -3 16 -9 29 -13 29 -5 0 -6 9 -3 20 3 12 0 20 -7 20
-9 0 -8 6 4 19 9 10 14 25 10 34 -4 12 2 20 20 27 14 5 25 15 24 22 -2 8 14
17 40 22 23 6 42 15 42 22 0 7 19 16 45 20 25 3 45 10 45 15 0 4 18 13 40 19
22 6 40 15 40 20 0 5 12 11 28 13 15 2 30 5 35 6 4 0 7 -14 7 -31z m465 22
c-27 -12 -43 -12 -25 0 8 5 22 9 30 9 10 0 8 -3 -5 -9z m55 -9 c0 -28 -12 -37
-45 -33 -42 5 -44 14 -7 29 35 14 52 15 52 4z m-103 -7 c-3 -3 -12 -4 -19 -1
-8 3 -5 6 6 6 11 1 17 -2 13 -5z m-74 -77 c-1 -27 -4 -51 -7 -54 -7 -7 -106
48 -106 59 0 5 9 4 21 -2 11 -6 25 -9 32 -7 7 2 -4 12 -23 22 l-35 19 30 7
c17 4 44 6 60 6 29 -2 30 -3 28 -50z m-178 4 c3 -5 -4 -16 -15 -24 -13 -9 -18
-20 -14 -31 5 -12 0 -16 -17 -16 -13 0 -31 5 -39 10 -13 8 -12 10 4 10 19 0
18 1 -2 23 -12 13 -19 27 -15 30 10 10 91 8 98 -2z m559 -109 c20 -29 27 -45
20 -52 -7 -7 -16 -4 -29 10 -10 11 -25 20 -34 20 -11 0 -6 -10 17 -30 17 -16
32 -36 32 -45 0 -20 -28 -8 -35 16 -4 10 -18 32 -31 49 -25 29 -25 30 -7 54
23 32 31 29 67 -22z m-849 -19 c19 -9 35 -20 35 -24 0 -5 -16 -21 -35 -36 -19
-15 -35 -32 -35 -37 0 -18 -36 -35 -74 -36 -38 0 -38 0 -23 23 14 22 14 25 -4
41 -18 15 -19 18 -4 38 33 48 82 59 140 31z m736 7 c10 -6 19 -17 19 -25 0 -8
9 -19 20 -25 23 -12 45 -85 55 -177 7 -66 5 -70 -43 -64 -8 1 -20 -3 -27 -9
-9 -7 -20 -8 -32 -2 -10 5 -31 14 -47 18 -30 9 -75 59 -63 70 3 3 16 -1 29
-10 25 -18 73 -22 63 -6 -3 6 -13 10 -22 10 -8 0 -28 9 -44 21 -25 18 -28 25
-25 62 2 23 4 44 5 47 1 3 9 -11 20 -30 12 -23 27 -36 42 -38 21 -2 22 -1 6 8
-9 6 -15 15 -12 20 3 4 -2 10 -10 14 -17 6 -20 47 -6 74 5 9 12 25 15 35 6 19
28 22 57 7z m472 -178 c-2 -31 -4 -74 -5 -94 0 -21 -5 -38 -10 -38 -5 0 -8
-10 -6 -22 2 -13 -5 -31 -14 -40 -24 -24 -25 -23 -20 16 3 26 -1 37 -19 50
-13 9 -35 16 -50 16 -15 0 -32 6 -39 14 -6 8 -28 16 -48 18 -31 3 -34 5 -17
13 11 5 22 11 25 14 3 3 23 18 45 34 22 15 65 53 95 85 l55 57 6 -33 c3 -18 4
-59 2 -90z m-861 -41 l27 -24 103 59 c57 33 106 61 110 62 10 4 10 -60 2 -161
-7 -74 -7 -75 -30 -66 -45 17 -103 -26 -88 -65 4 -10 1 -16 -9 -16 -54 0 -97
-103 -65 -152 8 -13 22 -48 31 -78 22 -75 48 -114 99 -149 24 -16 51 -37 61
-45 18 -17 24 -66 8 -66 -5 0 -13 -36 -17 -80 -3 -44 -11 -80 -15 -80 -5 0 -9
-13 -9 -29 0 -30 -39 -81 -63 -81 -7 0 -17 -4 -23 -9 -23 -20 -214 -35 -242
-17 -12 7 -13 94 -1 102 5 3 7 9 4 14 -3 5 4 14 16 20 11 7 18 14 16 17 -3 2
-15 -1 -27 -7 -25 -13 -42 -52 -42 -98 0 -25 -5 -33 -23 -38 -62 -15 -92 17
-64 68 7 13 12 28 11 35 -1 6 8 19 20 27 18 13 19 16 6 16 -27 0 -55 -37 -62
-81 -6 -35 -10 -40 -29 -37 -29 4 -27 46 3 88 12 17 23 37 24 45 4 29 79 85
113 85 11 0 14 6 9 23 -3 12 -6 28 -6 35 0 7 -4 10 -10 7 -5 -3 -10 -3 -11 2
-5 40 -9 93 -9 116 0 15 -4 27 -10 27 -12 0 -12 66 -1 95 5 11 4 25 -1 32 -6
7 -7 25 -3 40 5 16 7 38 6 51 -2 13 4 34 13 47 9 13 13 30 10 38 -11 29 15 27
32 -3 10 -16 21 -30 24 -30 3 0 32 -25 65 -55 68 -63 101 -74 58 -20 -15 19
-33 33 -40 31 -6 -3 -18 10 -27 29 -10 20 -23 32 -33 31 -11 0 -21 10 -27 29
-6 17 -13 32 -16 35 -16 15 -29 51 -24 65 3 8 1 15 -5 15 -6 0 -11 9 -11 19 0
11 -4 22 -9 25 -13 8 -2 140 13 164 4 7 3 19 -3 26 -6 7 -8 16 -4 20 4 4 39
-24 77 -61 39 -38 83 -79 98 -92z m557 86 c16 -93 14 -115 -15 -152 -14 -19
-24 -40 -21 -47 2 -8 12 0 23 19 24 42 34 42 34 -2 0 -19 -4 -35 -8 -35 -5 0
-21 -17 -35 -37 l-27 -38 0 73 c0 45 5 79 13 87 29 33 33 41 32 67 -1 14 -9
37 -17 50 -16 24 -14 78 2 78 4 0 13 -28 19 -63z m-49 -15 c0 -15 -2 -15 -10
-2 -13 20 -13 33 0 25 6 -3 10 -14 10 -23z m-937 -22 c14 -11 36 -20 50 -20
29 0 57 -23 57 -47 0 -22 -63 -79 -95 -87 -33 -8 -52 6 -76 59 -23 49 -24 79
-3 99 21 21 36 20 67 -4z m948 -61 c-5 -13 -10 -17 -11 -9 0 8 -3 26 -6 40 -6
23 -5 24 10 9 13 -12 14 -21 7 -40z m-1031 -45 c29 -66 27 -74 -18 -74 -69 0
-108 49 -57 72 14 6 25 19 25 30 0 34 29 18 50 -28z m800 -9 c7 -8 19 -15 27
-15 9 0 4 -10 -14 -29 -15 -16 -31 -27 -35 -24 -11 6 -10 83 1 83 5 0 14 -7
21 -15z m401 -6 c12 -12 27 -18 36 -15 22 9 63 -20 63 -44 0 -17 -2 -18 -27
-4 -16 7 -35 14 -44 14 -9 0 -22 7 -29 15 -7 8 -27 17 -46 21 -28 5 -32 9 -23
20 17 20 46 17 70 -7z m-19 -50 c9 -11 29 -19 46 -19 51 0 82 -51 49 -79 -18
-14 -145 -43 -157 -36 -11 7 -14 148 -3 158 10 11 46 -3 65 -24z m-276 -4 c6
-8 19 -12 30 -9 10 3 28 -2 39 -10 13 -10 15 -15 7 -16 -8 0 -28 -6 -45 -14
-52 -23 -88 -26 -94 -7 -3 9 -12 23 -20 32 -12 14 -12 19 3 34 19 19 62 13 80
-10z m91 12 c3 -4 4 -9 2 -11 -7 -6 -79 6 -79 13 0 9 68 7 77 -2z m-273 -34
c4 -5 24 -8 43 -8 50 0 63 -23 38 -69 -22 -41 -54 -61 -83 -52 -39 13 -79 106
-55 129 9 9 48 9 57 0z m366 -50 c-1 -44 -2 -47 -15 -29 -18 24 -19 48 -3 64
18 18 18 16 18 -35z m-99 -24 c-1 -24 -5 -47 -8 -51 -2 -5 -42 -8 -89 -8 -72
0 -84 2 -84 17 0 30 31 53 71 53 21 0 41 5 44 11 8 13 46 29 60 25 6 -2 8 -23
6 -47z m384 33 c0 -6 10 -19 23 -27 23 -17 30 -45 10 -45 -6 0 -3 -9 7 -20 20
-23 23 -110 4 -167 -6 -18 -8 -37 -5 -42 4 -5 0 -16 -8 -24 -8 -8 -16 -29 -18
-48 -2 -19 -7 -32 -13 -29 -5 3 -9 12 -8 20 1 8 -8 2 -20 -15 -12 -16 -30 -36
-39 -44 -10 -9 -18 -20 -18 -25 0 -5 13 2 28 17 37 35 42 34 42 -8 0 -19 -5
-35 -11 -35 -6 0 -9 -7 -6 -14 4 -9 -1 -17 -12 -21 -23 -7 -56 -43 -48 -52 4
-3 15 1 24 9 26 23 78 31 105 18 31 -16 91 -81 93 -100 0 -9 4 -21 9 -28 11
-18 -3 -89 -20 -107 -8 -8 -21 -12 -30 -8 -8 3 -20 -1 -27 -9 -17 -21 -73 -42
-92 -34 -14 5 -14 9 -2 33 17 33 11 90 -11 115 -18 22 -38 12 -20 -9 7 -9 14
-26 15 -37 0 -12 4 -30 8 -41 4 -15 -2 -29 -20 -49 -24 -26 -31 -28 -73 -23
-132 17 -138 19 -175 56 -82 80 -97 103 -99 145 -1 23 -3 59 -4 81 -4 76 0 82
61 88 145 15 274 126 299 257 4 19 14 59 23 87 12 42 13 61 5 95 -6 23 -8 46
-6 50 8 12 29 4 29 -10z m-712 -57 c19 -27 13 -31 -28 -15 -23 9 -25 13 -15
25 17 20 22 19 43 -10z m401 0 l16 -25 -35 0 c-31 0 -35 3 -35 25 0 18 5 25
19 25 10 0 26 -11 35 -25z m271 -5 c9 -42 -2 -68 -35 -85 -16 -8 -31 -15 -35
-15 -3 0 -5 24 -5 53 0 49 2 54 28 64 40 16 40 16 47 -17z m-90 -55 c0 -30 -3
-55 -7 -55 -5 0 -8 25 -8 55 0 30 3 55 8 55 4 0 7 -25 7 -55z m-543 -36 c-4
-48 -4 -48 -35 -43 -81 14 -107 41 -93 97 5 23 6 23 68 9 l63 -15 -3 -48z
m508 26 c0 -30 -3 -55 -7 -55 -5 0 -8 25 -8 55 0 30 3 55 8 55 4 0 7 -25 7
-55z m-30 8 c0 -21 -4 -44 -9 -52 -11 -17 -83 -30 -174 -30 l-68 -1 4 48 4 47
82 6 c45 4 85 9 88 13 3 3 21 6 40 6 32 0 33 -2 33 -37z m-354 3 c0 0 -3 -20
-8 -43 -8 -39 -12 -43 -39 -43 -17 0 -28 4 -25 9 9 13 -5 71 -17 71 -6 0 -7
-16 -4 -40 3 -22 1 -40 -4 -40 -10 0 -13 83 -4 92 5 4 98 -1 101 -6z m36 -46
c-3 -36 -8 -50 -19 -50 -14 0 -13 23 3 83 10 34 19 16 16 -33z m54 34 c-3 -9
-6 -31 -6 -51 0 -55 -25 -36 -26 20 -1 40 1 47 18 47 14 0 18 -5 14 -16z m344
-74 c-25 -35 -24 -35 -46 -13 -17 17 -15 18 22 30 21 6 40 12 42 12 2 1 -6
-12 -18 -29z m46 -10 c-7 -44 -35 -110 -47 -110 -5 0 -17 10 -28 21 l-20 22
47 53 c26 29 49 53 51 53 2 1 1 -17 -3 -39z m-620 0 c13 0 24 -5 24 -10 0 -12
-80 -51 -91 -44 -4 2 -9 18 -11 35 -5 30 -4 31 25 25 16 -3 40 -6 53 -6z m513
-14 l22 -23 -54 -42 c-30 -22 -61 -41 -70 -41 -18 0 -97 86 -97 106 0 9 19 14
63 17 34 2 74 4 88 5 16 1 34 -7 48 -22z m-342 -18 c13 -12 23 -25 23 -30 0
-10 -101 -68 -121 -68 -8 0 -26 18 -38 41 -22 38 -22 41 -5 60 25 28 110 27
141 -3z m73 7 c-7 -8 -18 -15 -25 -15 -7 0 -18 7 -25 15 -11 13 -7 15 25 15
32 0 36 -2 25 -15z m130 -94 l31 -18 -23 -15 c-13 -8 -47 -27 -76 -42 l-54
-27 -51 52 -52 51 24 17 c14 9 45 32 70 52 l45 36 28 -43 c15 -24 41 -52 58
-63z m-356 23 c14 -26 26 -48 26 -49 0 -2 -11 -5 -25 -8 -20 -3 -31 3 -50 28
-36 46 -34 53 22 74 1 1 13 -20 27 -45z m520 -10 c28 -25 28 -25 10 -46 -24
-27 -86 -66 -116 -73 -17 -4 -30 1 -46 18 l-23 24 68 51 c37 28 70 51 73 51 3
0 18 -11 34 -25z m-359 -71 c46 -51 44 -63 -11 -63 -27 0 -160 57 -152 65 5 5
101 43 111 44 5 1 28 -20 52 -46z m200 -64 c-9 -13 -132 -22 -151 -10 -14 8
-15 10 -4 11 8 0 38 11 65 24 l50 23 22 -20 c12 -11 20 -23 18 -28z" id="node1" class="node"></path>
<path d="M1420 2660 c-21 -21 -24 -50 -14 -136 l6 -51 52 -9 c64 -12 125 -2
143 22 17 23 9 83 -12 100 -8 6 -11 15 -7 19 4 4 -5 5 -20 3 -20 -4 -28 -1
-28 9 0 23 -47 63 -75 63 -14 0 -34 -9 -45 -20z m64 -1 c15 -7 28 -23 31 -40
5 -20 14 -29 34 -34 19 -4 31 -15 39 -39 16 -44 16 -45 -15 -57 -30 -12 -123
-12 -135 -1 -4 4 -10 37 -14 75 -6 57 -4 70 11 87 21 24 18 23 49 9z" id="node2" class="node"></path>
<path d="M723 2593 c-13 -8 -23 -24 -23 -34 0 -12 -7 -19 -18 -19 -25 0 -54
-33 -46 -53 3 -8 21 -23 41 -32 29 -14 40 -15 64 -5 17 7 32 23 35 36 3 13 13
24 21 24 21 0 10 70 -14 87 -22 16 -33 16 -60 -4z m57 -29 c13 -33 13 -34 -6
-34 -22 0 -45 -26 -38 -43 8 -21 -36 -29 -63 -11 -31 20 -29 28 12 44 22 9 38
23 44 42 12 35 38 36 51 2z" id="node3" class="node"></path>
<path d="M1026 2487 c-14 -19 -26 -40 -26 -48 0 -9 5 -6 12 6 6 11 20 30 31
42 11 13 18 25 15 29 -3 3 -18 -10 -32 -29z" id="node4" class="node"></path>
<path d="M1066 2491 c-20 -20 -25 -34 -20 -44 8 -13 13 -12 37 9 31 27 24 33
-11 8 -31 -22 -27 0 5 25 14 12 24 23 21 26 -2 3 -17 -8 -32 -24z" id="node5" class="node"></path>
<path d="M991 2472 c-17 -31 -13 -40 5 -14 9 13 14 26 11 29 -3 2 -10 -4 -16
-15z" id="node6" class="node"></path>
<path d="M1099 2449 c-16 -14 -19 -19 -7 -15 9 3 18 1 20 -4 2 -5 14 -2 28 6
l25 15 -30 -6 c-28 -5 -29 -4 -11 10 11 8 15 15 9 15 -6 0 -21 -9 -34 -21z" id="node7" class="node"></path>
<path d="M961 2444 c0 -11 3 -14 6 -6 3 7 2 16 -1 19 -3 4 -6 -2 -5 -13z" id="node8" class="node"></path>
<path d="M931 2434 c0 -11 3 -14 6 -6 3 7 2 16 -1 19 -3 4 -6 -2 -5 -13z" id="node9" class="node"></path>
<path d="M1150 2420 c-8 -5 -12 -11 -9 -14 3 -3 14 1 25 9 21 16 8 20 -16 5z" id="node10" class="node"></path>
<path d="M803 2303 c-7 -2 -9 -12 -6 -21 5 -14 3 -15 -8 -4 -19 17 -34 15 -19
-3 11 -13 10 -14 -6 -9 -15 5 -16 4 -8 -5 9 -10 17 -10 32 -2 10 6 23 7 27 3
5 -4 5 2 2 13 -7 20 -7 20 8 1 8 -11 17 -17 20 -14 9 9 -29 46 -42 41z" id="node11" class="node"></path>
<path d="M850 2290 c0 -8 5 -22 10 -30 9 -13 10 -13 10 0 0 8 -5 22 -10 30 -9
13 -10 13 -10 0z" id="node12" class="node"></path>
<path d="M1130 2291 c0 -5 -3 -16 -6 -25 -3 -9 -2 -16 4 -16 5 0 12 11 14 25
3 14 1 25 -3 25 -5 0 -9 -4 -9 -9z" id="node13" class="node"></path>
<path d="M1102 2265 c0 -16 2 -22 5 -12 2 9 2 23 0 30 -3 6 -5 -1 -5 -18z" id="node14" class="node"></path>
<path d="M1155 2269 c-10 -30 0 -33 13 -4 6 14 7 25 2 25 -5 0 -12 -9 -15 -21z" id="node15" class="node"></path>
<path d="M1182 2268 c-14 -14 -16 -32 -3 -24 5 4 11 1 13 -5 2 -6 12 0 23 13
11 13 13 17 5 11 -19 -17 -31 -16 -24 2 7 18 2 19 -14 3z" id="node16" class="node"></path>
<path d="M1215 2230 c-3 -5 -2 -10 4 -10 5 0 13 5 16 10 3 6 2 10 -4 10 -5 0
-13 -4 -16 -10z" id="node17" class="node"></path>
<path d="M1425 2131 c-6 -10 10 -16 70 -25 29 -5 36 -4 25 3 -8 6 -31 11 -50
12 -27 2 -22 4 20 9 l55 7 -57 1 c-31 1 -59 -2 -63 -7z" id="node18" class="node"></path>
<path d="M1470 2080 c14 -4 32 -8 40 -9 13 -1 13 0 0 9 -8 5 -26 9 -40 9 l-25
-1 25 -8z" id="node19" class="node"></path>
<path d="M1470 2053 c8 -3 24 -10 35 -15 20 -9 20 -9 1 6 -11 9 -27 16 -35 15
-14 0 -14 -1 -1 -6z" id="node20" class="node"></path>
<path d="M1470 2020 c14 -11 30 -20 35 -20 6 0 -1 9 -15 20 -14 11 -29 20 -35
20 -5 0 1 -9 15 -20z" id="node21" class="node"></path>
<path d="M1440 2013 c1 -12 50 -46 50 -35 0 6 -11 17 -25 26 -14 9 -25 13 -25
9z" id="node22" class="node"></path>
<path d="M1435 1977 c10 -15 20 -25 23 -22 3 3 -5 16 -17 28 l-23 22 17 -28z" id="node23" class="node"></path>
<path d="M1400 1961 c0 -5 5 -13 10 -16 6 -3 10 -2 10 4 0 5 -4 13 -10 16 -5
3 -10 2 -10 -4z" id="node24" class="node"></path>
<path d="M849 2059 c-29 -29 -23 -58 18 -97 26 -24 37 -42 35 -58 -2 -13 2
-33 8 -44 14 -26 6 -37 -14 -21 -8 7 -20 10 -26 6 -6 -4 -21 4 -35 17 -17 17
-21 26 -13 36 6 7 8 16 4 20 -4 4 -12 -1 -17 -10 -5 -10 -16 -15 -24 -12 -8 4
-15 1 -15 -5 0 -6 7 -11 15 -11 8 0 15 -6 15 -13 0 -18 55 -48 73 -41 9 3 29
-7 48 -25 41 -40 71 -40 99 -1 12 17 29 30 39 30 10 0 26 10 37 21 10 12 30
26 44 32 l25 11 -24 4 c-13 2 -26 12 -28 23 -9 34 -24 20 -18 -15 8 -39 -11
-56 -62 -56 -16 0 -34 -5 -40 -11 -16 -16 -53 -1 -64 28 -14 38 -1 68 37 86
46 22 63 60 43 95 -13 25 -21 27 -78 28 -50 1 -67 -2 -82 -17z m89 -36 c-10
-2 -26 -2 -35 0 -10 3 -2 5 17 5 19 0 27 -2 18 -5z m62 -213 c0 -4 -6 -13 -14
-19 -11 -9 -18 -8 -30 4 -20 21 -21 20 14 21 17 1 30 -2 30 -6z" id="node25" class="node"></path>
<path d="M1565 1740 c4 -6 11 -8 16 -5 14 9 11 15 -7 15 -8 0 -12 -5 -9 -10z" id="node26" class="node"></path>
<path d="M1697 1508 c-2 -24 -8 -52 -12 -63 -4 -12 -1 -11 8 5 18 32 31 100
19 100 -5 0 -12 -19 -15 -42z" id="node27" class="node"></path>
<path d="M1650 1450 c0 -12 -7 -35 -16 -51 -8 -17 -13 -33 -11 -36 3 -2 11 6
18 18 17 33 29 89 18 89 -5 0 -9 -9 -9 -20z" id="node28" class="node"></path>
<path d="M1589 1369 c-11 -36 -12 -46 -2 -38 12 11 29 76 22 84 -2 1 -11 -19
-20 -46z" id="node29" class="node"></path>
<path d="M1547 1333 l-17 -38 20 24 c11 13 20 29 20 37 0 22 -5 17 -23 -23z" id="node30" class="node"></path>
<path d="M1075 1584 c-9 -10 -13 -23 -9 -33 4 -9 6 -30 5 -48 -2 -33 20 -63
45 -63 23 0 66 25 92 53 20 21 22 29 12 47 -27 50 -112 76 -145 44z m105 -30
l31 -27 -23 -24 c-34 -37 -68 -47 -87 -28 -13 13 -14 18 -2 37 10 16 10 23 2
26 -6 2 -11 12 -11 23 0 29 52 25 90 -7z" id="node31" class="node"></path>
<path d="M894 1434 c-58 -29 -70 -92 -20 -102 10 -2 26 -12 37 -23 24 -24 51
-24 73 0 13 14 16 33 14 77 l-3 59 -35 3 c-19 1 -49 -5 -66 -14z m84 -52 c5
-66 -36 -99 -59 -48 -7 16 -17 22 -29 19 -46 -12 -24 47 25 68 43 18 60 7 63
-39z" id="node32" class="node"></path>
<path d="M761 1150 c-1 -28 36 -116 45 -107 3 3 -2 20 -12 39 -10 18 -21 47
-25 63 -6 27 -7 28 -8 5z" id="node33" class="node"></path>
<path d="M820 1081 c0 -18 26 -65 44 -80 9 -8 5 7 -11 35 -32 59 -33 61 -33
45z" id="node34" class="node"></path>
<path d="M882 1018 c6 -18 16 -39 24 -47 8 -9 7 1 -4 33 -19 52 -37 64 -20 14z" id="node35" class="node"></path>
<path d="M736 781 c-4 -6 -9 -34 -11 -63 l-5 -53 14 60 c14 59 14 76 2 56z" id="node36" class="node"></path>
<path d="M748 672 c-2 -15 -1 -38 2 -52 5 -19 8 -12 11 28 4 54 -6 73 -13 24z" id="node37" class="node"></path>
<path d="M776 616 c-4 -18 -2 -44 3 -57 8 -20 10 -13 10 34 1 64 -4 73 -13 23z" id="node38" class="node"></path>
<path d="M1069 616 c6 -8 18 -33 25 -57 9 -28 14 -36 15 -22 1 27 -29 93 -42
93 -5 0 -4 -6 2 -14z" id="node39" class="node"></path>
<path d="M1060 545 c6 -8 18 -34 25 -57 9 -28 14 -35 14 -20 1 31 -25 92 -40
92 -8 0 -8 -4 1 -15z" id="node40" class="node"></path>
<path d="M1060 481 c5 -11 10 -30 10 -42 0 -12 3 -20 6 -16 10 9 -5 77 -17 77
-6 0 -6 -7 1 -19z" id="node41" class="node"></path>
<path d="M1048 380 c2 -22 6 -40 8 -40 2 0 4 18 4 40 0 22 -3 40 -8 40 -4 0
-6 -18 -4 -40z" id="node42" class="node"></path>
<path d="M1737 835 c-9 -19 -13 -35 -8 -35 10 0 36 58 29 65 -2 3 -12 -11 -21
-30z" id="node43" class="node"></path>
<path d="M1723 754 c-12 -19 -18 -34 -14 -34 11 0 43 49 39 59 -2 5 -13 -7
-25 -25z" id="node44" class="node"></path>
<path d="M1715 703 c-21 -26 -33 -44 -25 -41 16 5 76 76 69 82 -2 2 -22 -16
-44 -41z" id="node45" class="node"></path>
<path d="M1667 555 c-52 -48 -50 -63 2 -19 26 22 59 65 49 64 -2 -1 -25 -21
-51 -45z" id="node46" class="node"></path>
<path d="M249 1075 c-13 -8 -41 -22 -62 -31 -69 -30 -73 -80 -9 -113 33 -17
74 -25 109 -22 34 3 59 136 31 158 -25 19 -45 21 -69 8z m49 -17 c15 -15 15
-65 1 -107 -13 -36 -38 -40 -94 -17 -63 27 -69 96 -7 96 16 0 32 8 40 20 14
22 42 26 60 8z" id="node47" class="node"></path>
<path d="M376 1003 c-54 -28 -36 -93 42 -147 35 -25 47 -28 68 -20 63 22 115
132 80 167 -20 19 -152 20 -190 0z m169 -10 c21 -20 14 -62 -16 -104 -33 -46
-55 -54 -89 -29 -93 66 -95 155 -2 136 15 -3 34 -2 42 4 22 14 47 12 65 -7z" id="node48" class="node"></path>
<path d="M392 770 c-12 -5 -27 -22 -33 -37 -15 -40 -4 -134 17 -150 43 -31
168 -1 185 45 11 29 -11 71 -42 79 -10 3 -21 14 -24 24 -6 18 -54 50 -72 48
-4 0 -18 -4 -31 -9z m75 -41 c7 -15 24 -29 36 -33 25 -6 46 -41 40 -66 -8 -36
-112 -64 -145 -38 -24 18 -34 99 -18 138 11 27 17 31 44 28 22 -2 35 -11 43
-29z" id="node49" class="node"></path>
<path d="M270 585 c-7 -8 -29 -15 -49 -15 -48 0 -86 -37 -77 -74 14 -56 107
-133 146 -121 30 10 73 90 74 140 2 68 -58 113 -94 70z m60 -20 c29 -35 3
-140 -42 -168 -20 -13 -80 29 -109 77 -24 39 -24 41 2 67 20 20 32 20 71 4 11
-4 18 0 23 14 7 24 37 28 55 6z" id="node50" class="node"></path>
</g>
<g transform="translate(0.000000,300.000000) scale(0.100000,-0.100000)" fill="#CDE5C7" stroke="none">






<path d="M780 2119 c0 -5 5 -7 10 -4 6 3 10 8 10 11 0 2 -4 4 -10 4 -5 0 -10
-5 -10 -11z" id="node57" class="node"></path>

<path d="M903 2023 c9 -2 25 -2 35 0 9 3 1 5 -18 5 -19 0 -27 -2 -17 -5z" id="node59" class="node"></path>

<path d="M1105 2120 c-3 -5 -1 -10 4 -10 6 0 11 5 11 10 0 6 -2 10 -4 10 -3 0
-8 -4 -11 -10z" id="node61" class="node"></path>


<path d="M1636 1991 c-4 -7 -5 -15 -2 -18 9 -9 19 4 14 18 -4 11 -6 11 -12 0z" id="node64" class="node"></path>

<path d="M1511 1834 c13 -14 25 -20 27 -14 7 20 -7 40 -29 40 l-22 0 24 -26z" id="node66" class="node"></path>

<path d="M705 1819 c-11 -17 -2 -18 19 -3 17 12 17 14 4 14 -9 0 -20 -5 -23
-11z" id="node68" class="node"></path>









<path d="M1110 1680 c-18 -12 -2 -12 25 0 13 6 15 9 5 9 -8 0 -22 -4 -30 -9z" id="node78" class="node"></path>

<path d="M1068 1663 c7 -3 16 -2 19 1 4 3 -2 6 -13 5 -11 0 -14 -3 -6 -6z" id="node80" class="node"></path>








<path d="M1380 1343 c0 -4 5 -15 10 -23 8 -13 10 -13 10 2 0 9 -4 20 -10 23
-5 3 -10 3 -10 -2z" id="node89" class="node"></path>

<path d="M1394 1270 c3 -14 6 -32 6 -40 1 -8 6 -4 11 9 7 19 6 28 -7 40 -15
15 -16 14 -10 -9z" id="node91" class="node"></path>



































</g>
</svg>