<!--?xml version="1.0" standalone="no"?-->

<svg version="1.0" xmlns="http://www.w3.org/2000/svg" width="300.000000pt" height="300.000000pt" viewBox="0 0 300.000000 300.000000" preserveAspectRatio="xMidYMid meet">
<g transform="translate(0.000000,300.000000) scale(0.100000,-0.100000)" fill="#6041F8" stroke="none">
<path class="node" id="node1" d="M717 2898 c-24 -18 -38 -176 -40 -453 -2 -205 8 -449 19 -467 3 -4
12 -49 20 -100 16 -101 42 -197 81 -296 13 -35 22 -66 20 -68 -3 -3 -85 1
-183 9 -150 12 -180 17 -189 32 -5 10 -29 37 -52 60 -24 24 -43 50 -43 58 0
22 -48 57 -77 57 -29 0 -73 -42 -73 -69 0 -19 -6 -21 -54 -18 -41 1 -59 -2
-75 -17 -23 -21 -27 -56 -11 -87 9 -16 7 -21 -14 -29 -54 -20 -63 -94 -16
-134 26 -21 29 -29 20 -45 -17 -32 -12 -61 16 -86 32 -30 67 -32 128 -6 24 11
73 25 107 32 62 12 129 56 129 83 0 10 58 14 231 19 l230 7 77 -79 c114 -116
205 -165 347 -185 l80 -11 2 -381 2 -381 -167 -17 c-235 -25 -316 -56 -310
-120 5 -48 56 -70 221 -96 127 -20 164 -22 411 -17 294 6 425 24 485 67 75 53
37 110 -92 141 -34 8 -298 39 -333 39 -12 0 -14 59 -12 382 l3 382 85 13 c120
19 226 73 313 161 37 37 72 75 79 85 12 16 31 17 246 10 233 -6 234 -6 243
-30 12 -31 62 -60 129 -73 30 -6 76 -20 102 -31 60 -24 89 -24 122 2 19 15 26
30 26 54 0 19 -4 37 -10 40 -16 10 -12 19 19 36 52 30 48 104 -8 136 -27 16
-28 18 -14 40 34 52 -29 111 -102 97 -28 -5 -32 -2 -45 28 -35 77 -108 76
-148 -3 -13 -25 -36 -53 -52 -62 -15 -9 -30 -27 -34 -40 -5 -22 -13 -24 -113
-35 -158 -17 -273 -25 -273 -20 0 3 13 36 28 74 78 188 121 477 122 807 0 231
-17 465 -36 495 l-14 22 -768 0 c-599 0 -772 -3 -785 -12z m1550 -138 c6 -58
12 -207 12 -332 l1 -227 -239 -1 -239 0 -26 45 c-34 57 -74 79 -135 72 -39 -4
-52 -12 -82 -47 l-36 -42 -7 26 c-3 14 -20 42 -38 61 -99 113 -228 79 -293
-77 l-15 -37 -225 -1 -224 0 -7 37 c-10 53 3 476 17 561 l12 72 756 -2 756 -3
12 -105z m-849 -424 c21 -13 46 -36 55 -50 18 -26 44 -122 36 -130 -6 -6 -131
-32 -223 -46 -80 -13 -86 -9 -86 56 0 75 50 159 110 183 40 16 68 13 108 -13z
m314 -73 c29 -28 48 -77 48 -125 0 -34 -15 -35 -128 -12 -129 26 -128 24 -91
102 37 75 113 91 171 35z m-557 -134 c11 -63 32 -106 71 -144 77 -75 172 -66
239 22 l34 44 15 -30 c55 -105 161 -116 231 -25 26 34 51 133 41 160 -5 12 33
14 236 14 l241 0 -7 -32 c-3 -17 -11 -72 -16 -122 -37 -326 -145 -589 -296
-724 -32 -30 -97 -72 -144 -95 l-85 -42 -230 0 c-216 0 -234 1 -289 23 -145
56 -242 144 -323 292 -92 168 -146 369 -169 623 l-7 77 226 0 225 0 7 -41z
m315 -53 c-14 -45 -70 -93 -115 -102 -45 -8 -87 9 -125 53 -32 36 -38 53 -17
54 6 0 48 6 92 13 44 8 82 10 83 5 6 -15 42 -10 42 5 0 15 42 27 48 14 2 -4
-2 -23 -8 -42z m97 28 c6 -15 39 -19 45 -5 2 4 33 4 71 -2 75 -12 81 -20 45
-73 -38 -56 -90 -68 -144 -35 -33 20 -64 75 -64 114 0 21 4 24 21 20 11 -3 23
-12 26 -19z m-1285 -416 c9 -7 23 -29 32 -48 9 -20 30 -44 46 -54 17 -9 30
-25 30 -35 0 -37 28 -44 230 -61 110 -8 201 -18 203 -20 1 -3 10 -17 19 -31
l16 -26 -150 -6 c-83 -4 -189 -7 -234 -7 -81 0 -84 -1 -90 -25 -8 -33 -47 -63
-93 -70 -20 -3 -73 -18 -118 -33 -80 -26 -82 -26 -102 -8 -27 25 -27 48 2 73
23 22 117 40 117 23 0 -6 4 -10 8 -10 5 0 8 43 8 95 -1 90 -8 118 -18 77 -12
-43 -128 6 -128 53 0 55 90 56 141 1 21 -23 29 -41 29 -68 0 -43 28 -78 61
-78 21 0 21 1 -3 20 -28 21 -43 71 -25 82 6 4 -2 18 -21 38 -23 23 -32 41 -32
65 0 53 37 80 72 53z m2443 -2 c28 -20 24 -81 -8 -114 -19 -20 -24 -35 -20
-57 4 -24 -2 -37 -23 -58 -24 -24 -25 -27 -7 -27 29 0 56 35 58 77 2 20 8 39
14 41 6 2 11 9 11 15 0 24 18 39 60 48 34 8 47 6 66 -6 30 -19 30 -27 1 -60
-14 -17 -38 -30 -64 -34 -37 -7 -42 -6 -48 13 -10 29 -13 10 -18 -96 -2 -63 0
-83 7 -73 15 20 114 5 133 -21 21 -29 16 -63 -12 -76 -20 -9 -35 -7 -82 11
-32 13 -82 27 -112 32 -59 9 -111 48 -111 81 0 16 -10 18 -98 18 -187 0 -372
12 -372 25 0 6 10 21 23 32 19 18 45 22 207 33 204 14 230 20 230 49 0 11 14
31 31 43 17 13 40 41 51 63 30 57 48 67 83 41z m-2582 -202 c36 -6 37 -8 37
-49 l0 -43 -55 -7 c-68 -8 -109 8 -113 46 -6 51 36 68 131 53z m2779 -6 c20
-16 30 -49 20 -64 -17 -26 -55 -36 -113 -29 l-60 7 3 41 c3 34 7 42 28 48 42
12 105 10 122 -3z m-1387 -793 l0 -420 -42 2 c-94 2 -83 -51 -83 417 0 322 3
416 13 420 6 3 35 4 62 3 l50 -2 0 -420z m-157 -418 c4 -36 23 -44 110 -42 78
2 92 10 92 53 0 22 3 23 58 18 31 -3 91 -8 132 -11 80 -6 230 -42 230 -55 0
-31 -291 -70 -528 -70 -216 0 -522 42 -522 71 0 14 163 50 265 58 154 12 159
11 163 -22z m642 -62 c0 -13 -91 -43 -160 -53 -184 -27 -387 -36 -548 -23
-165 13 -288 31 -336 50 -46 18 -23 24 30 7 74 -23 309 -46 469 -46 215 0 442
29 543 69 1 1 2 -1 2 -4z"></path>
<path class="node" id="node2" d="M1358 2493 c-26 -17 -56 -68 -45 -79 2 -3 30 2 61 11 31 9 60 14 65
11 18 -12 30 19 18 44 -15 31 -61 37 -99 13z"></path>
<path class="node" id="node3" d="M1640 2461 c-18 -5 -26 -15 -28 -34 -4 -30 1 -33 66 -40 38 -5 42 -3
42 17 0 21 -19 45 -45 58 -5 3 -21 2 -35 -1z"></path>
<path class="node" id="node4" d="M1066 1951 c-10 -15 107 -127 161 -154 78 -39 164 -57 268 -57 161 0
276 41 368 132 29 28 56 51 60 50 5 -2 7 5 5 15 -4 23 -38 30 -38 9 0 -25 -65
-90 -120 -120 -156 -85 -401 -86 -544 -2 -51 30 -126 103 -126 123 0 15 -26
18 -34 4z"></path>
<path class="node" id="node5" d="M2547 2348 c-13 -13 -29 -22 -36 -20 -21 7 -68 -19 -80 -44 -14 -32
-14 -75 2 -94 19 -25 79 -57 118 -64 34 -6 40 -3 73 36 78 90 68 186 -21 204
-25 5 -37 1 -56 -18z m85 -25 c27 -24 22 -72 -12 -127 -30 -47 -32 -48 -68
-41 -88 16 -130 68 -96 119 15 25 22 28 56 23 26 -3 38 -1 38 7 0 35 51 47 82
19z"></path>
<path class="node" id="node6" d="M356 2279 c-31 -36 -33 -72 -8 -144 19 -55 33 -63 117 -63 66 0 89 8
125 41 38 36 39 78 4 124 -21 27 -32 33 -63 33 -25 0 -44 7 -56 20 -29 32 -87
27 -119 -11z m111 -16 c7 -9 14 -20 16 -26 2 -6 12 -5 26 3 20 10 27 9 50 -7
37 -28 40 -75 7 -108 -22 -22 -34 -25 -95 -25 -78 0 -96 11 -106 63 -11 60 -2
100 25 114 28 14 59 8 77 -14z"></path>
<path class="node" id="node7" d="M2396 1939 c-23 -18 -26 -28 -26 -77 0 -67 26 -123 61 -133 76 -22
172 -1 203 42 40 58 -3 149 -70 149 -21 0 -42 8 -54 20 -26 26 -80 26 -114 -1z
m92 -15 c12 -8 22 -22 22 -30 0 -17 5 -17 31 -3 28 15 57 2 75 -34 15 -29 15
-33 -1 -63 -20 -37 -37 -44 -122 -44 -73 0 -89 15 -99 92 -7 53 6 85 38 91 13
2 25 5 28 6 3 0 16 -6 28 -15z"></path>
<path class="node" id="node8" d="M530 1920 c-11 -11 -33 -20 -48 -20 -64 0 -103 -100 -58 -149 25 -28
96 -53 137 -49 27 2 38 11 62 49 16 26 31 65 34 88 5 35 2 44 -25 71 -36 35
-73 39 -102 10z m79 -17 c37 -31 37 -72 -1 -128 -18 -27 -41 -51 -50 -53 -31
-6 -118 39 -124 64 -14 54 25 100 73 88 14 -4 25 3 37 20 19 30 36 33 65 9z"></path>
</g>
<g transform="translate(0.000000,300.000000) scale(0.100000,-0.100000)" fill="#D47AF2" stroke="none">

<path class="node" id="node10" d="M2562 2328 c-7 -7 -12 -17 -12 -24 0 -8 -12 -10 -38 -7 -34 5 -41 2
-56 -23 -34 -51 8 -103 96 -119 36 -7 38 -6 68 41 34 55 39 103 12 127 -22 20
-53 22 -70 5z"></path>
<path class="node" id="node11" d="M390 2277 c-27 -14 -36 -54 -25 -114 10 -52 28 -63 106 -63 61 0 73
3 95 25 33 33 30 80 -7 108 -23 16 -30 17 -50 7 -14 -8 -24 -9 -26 -3 -14 40
-56 59 -93 40z"></path>
<path class="node" id="node12" d="M2432 1933 c-32 -6 -45 -38 -38 -91 10 -77 26 -92 99 -92 85 0 102 7
122 44 16 30 16 34 1 63 -18 36 -47 49 -75 34 -26 -14 -31 -14 -31 3 0 14 -38
48 -50 45 -3 -1 -15 -4 -28 -6z"></path>
<path class="node" id="node13" d="M544 1894 c-12 -17 -23 -24 -37 -20 -48 12 -87 -34 -73 -88 6 -25 93
-70 124 -64 9 2 32 26 50 53 38 56 38 97 1 128 -29 24 -46 21 -65 -9z"></path>
<path class="node" id="node14" d="M731 2798 c-14 -85 -27 -508 -17 -561 l7 -37 224 0 225 1 15 37 c51
121 146 173 234 128 37 -19 89 -80 97 -112 l7 -26 36 42 c30 35 43 43 82 47
61 7 101 -15 135 -72 l26 -45 239 0 239 1 -1 227 c0 125 -6 274 -12 332 l-12
105 -756 3 -756 2 -12 -72z m726 -318 c12 -25 0 -56 -18 -44 -5 3 -34 -2 -65
-11 -31 -9 -59 -14 -61 -11 -3 3 0 18 6 34 25 60 113 81 138 32z m246 -38 c9
-8 17 -25 17 -38 0 -20 -4 -22 -42 -17 -65 7 -70 10 -66 40 2 19 10 29 28 34
27 6 36 4 63 -19z"></path>
<path class="node" id="node15" d="M1310 2349 c-60 -24 -110 -108 -110 -183 0 -65 6 -69 86 -56 92 14
217 40 223 46 8 8 -18 104 -36 130 -21 33 -86 74 -115 73 -13 0 -34 -5 -48
-10z"></path>
<path class="node" id="node16" d="M1614 2286 c-20 -9 -39 -29 -53 -58 -37 -78 -38 -76 91 -102 113 -23
128 -22 128 12 0 110 -84 185 -166 148z"></path>
<path class="node" id="node17" d="M724 2093 c23 -254 77 -455 169 -623 81 -148 178 -236 323 -292 55
-22 73 -23 289 -23 l230 0 85 42 c47 23 112 65 144 95 151 135 259 398 296
724 5 50 13 105 16 122 l7 32 -241 0 c-203 0 -241 -2 -236 -14 10 -27 -15
-126 -41 -160 -70 -91 -176 -80 -231 25 l-15 30 -34 -44 c-67 -88 -162 -97
-239 -22 -39 38 -60 81 -71 144 l-7 41 -225 0 -226 0 7 -77z m376 -146 c0 -20
75 -93 126 -123 143 -84 388 -83 544 2 55 30 120 95 120 120 0 21 34 14 38 -9
2 -10 0 -17 -5 -15 -4 1 -31 -22 -60 -50 -92 -91 -207 -132 -368 -132 -104 0
-190 18 -268 57 -54 27 -171 139 -161 154 8 14 34 11 34 -4z"></path>
<path class="node" id="node18" d="M1473 2122 c-13 -2 -23 -10 -23 -18 0 -15 -36 -20 -42 -5 -1 5 -39 3
-83 -5 -44 -7 -86 -13 -92 -13 -21 -1 -15 -18 17 -54 58 -67 130 -73 195 -16
31 27 61 88 53 107 -2 4 -13 6 -25 4z"></path>
<path class="node" id="node19" d="M1540 2103 c0 -39 31 -94 64 -114 54 -33 106 -21 144 35 36 53 30 61
-45 73 -38 6 -69 6 -71 2 -6 -14 -39 -10 -45 5 -3 7 -15 16 -26 19 -17 4 -21
1 -21 -20z"></path>
<path class="node" id="node20" d="M246 1684 c-27 -27 -20 -78 16 -114 19 -20 27 -34 21 -38 -18 -11 -3
-61 25 -82 24 -19 24 -20 3 -20 -33 0 -61 35 -61 78 0 69 -93 133 -150 102
-49 -26 -5 -92 69 -102 27 -4 35 -1 39 14 10 41 17 13 18 -77 0 -52 -3 -95 -8
-95 -4 0 -8 4 -8 10 0 17 -94 -1 -117 -23 -29 -25 -29 -48 -2 -73 20 -18 22
-18 102 8 45 15 98 30 118 33 46 7 85 37 93 70 6 24 9 25 90 25 45 0 151 3
234 7 l150 6 -16 26 c-9 14 -18 28 -19 31 -2 2 -93 12 -203 20 -202 17 -230
24 -230 61 0 10 -13 26 -30 35 -16 10 -37 34 -46 54 -27 58 -58 74 -88 44z"></path>
<path class="node" id="node21" d="M2694 1692 c-6 -4 -20 -25 -32 -47 -11 -22 -34 -50 -51 -63 -17 -12
-31 -32 -31 -43 0 -29 -26 -35 -230 -49 -162 -11 -188 -15 -207 -33 -13 -11
-23 -26 -23 -32 0 -13 185 -25 372 -25 88 0 98 -2 98 -18 0 -33 52 -72 111
-81 30 -5 80 -19 112 -32 47 -18 62 -20 82 -11 28 13 33 47 12 76 -19 26 -118
41 -133 21 -7 -10 -9 10 -7 73 5 106 8 125 18 96 6 -19 11 -20 48 -13 26 4 50
17 64 34 29 33 29 41 -1 60 -41 27 -125 -1 -126 -42 0 -6 -5 -13 -11 -15 -6
-2 -12 -21 -14 -41 -2 -42 -29 -77 -58 -77 -18 0 -17 3 7 27 21 21 27 34 23
58 -4 22 1 37 20 57 32 33 36 94 8 114 -21 16 -35 17 -51 6z"></path>
<path class="node" id="node22" d="M45 1474 c-9 -9 -15 -28 -13 -43 4 -38 45 -54 113 -46 l55 7 0 43 c0
41 -1 43 -37 49 -63 10 -101 7 -118 -10z"></path>
<path class="node" id="node23" d="M2820 1481 c-21 -6 -25 -14 -28 -48 l-3 -41 60 -7 c58 -7 96 3 113
29 10 15 0 48 -20 64 -17 13 -80 15 -122 3z"></path>

<path class="node" id="node25" d="M1443 1104 c-10 -4 -13 -98 -13 -420 0 -468 -11 -415 83 -417 l42 -2
0 420 0 420 -50 2 c-27 1 -56 0 -62 -3z"></path>
<path class="node" id="node26" d="M1235 289 c-102 -8 -265 -44 -265 -58 0 -29 306 -71 522 -71 237 0
528 39 528 70 0 13 -150 49 -230 55 -41 3 -101 8 -132 11 -55 5 -58 4 -58 -18
0 -43 -14 -51 -92 -53 -87 -2 -106 6 -110 42 -4 33 -9 34 -163 22z"></path>
<path class="node" id="node27" d="M1978 190 c-79 -26 -313 -50 -483 -50 -160 0 -395 23 -469 46 -53 17
-76 11 -30 -7 48 -19 171 -37 336 -50 161 -13 364 -4 548 23 69 10 160 40 160
53 0 3 -1 5 -2 4 -2 -1 -29 -9 -60 -19z"></path>
</g>
</svg>