<!--?xml version="1.0" standalone="no"?--><svg version="1.0" xmlns="http://www.w3.org/2000/svg" width="300.000000pt" height="300.000000pt" viewBox="0 0 300.000000 300.000000" preserveAspectRatio="xMidYMid meet">
<metadata>
  <rdf:rdf xmlns:rdf="http://www.w3.org/1999/02/22-rdf-syntax-ns#" xmlns:rdfs="http://www.w3.org/2000/01/rdf-schema#" xmlns:dc="http://purl.org/dc/elements/1.1/">
    <rdf:description dc:title="badminton icon" dc:publisher="Hiox" dc:date="2015-03-14" dc:format="image/svg+xml" dc:language="en">
      <dc:creator>
        <rdf:bag>
          <rdf:li>svgimages.com</rdf:li>
        </rdf:bag>
      </dc:creator>
    </rdf:description>
  </rdf:rdf>
</metadata>
<g transform="translate(0.000000,300.000000) scale(0.100000,-0.100000)" fill="#070707" stroke="none">

<path d="M1365 2481 c-36 -16 -85 -74 -96 -115 -22 -83 11 -175 77 -215 56
-33 88 -35 148 -8 46 21 59 33 80 76 33 63 34 122 4 178 -34 62 -71 86 -137
90 -31 1 -65 -1 -76 -6z" id="node2" class="node"></path>
<path d="M612 2300 c-51 -31 -77 -97 -77 -195 0 -71 4 -88 33 -148 39 -78 69
-104 172 -148 96 -40 197 -107 236 -156 17 -21 54 -74 84 -118 66 -101 108
-145 135 -145 58 0 241 153 325 273 45 63 49 66 65 51 26 -27 95 -122 95 -132
0 -6 -12 -18 -27 -27 -15 -10 -74 -66 -131 -124 -74 -74 -113 -122 -130 -161
l-25 -54 17 -101 c16 -95 30 -149 78 -310 76 -257 92 -288 155 -293 32 -2 47
2 62 17 33 33 29 99 -28 485 -15 98 -18 142 -11 151 6 7 40 35 76 62 36 26 81
60 101 76 20 15 39 27 44 27 4 0 74 -93 155 -207 309 -434 399 -550 456 -585
60 -38 128 -12 128 47 0 61 -43 144 -333 638 -42 72 -112 197 -154 277 -42 80
-93 177 -113 215 -77 144 -160 313 -160 323 0 15 65 32 125 32 59 0 121 -27
218 -93 104 -72 169 -75 175 -8 6 56 -74 148 -181 209 -113 65 -347 85 -467
40 -57 -22 -68 -31 -93 -74 -35 -59 -42 -64 -89 -64 -30 0 -42 -6 -62 -32 -28
-38 -56 -126 -56 -177 0 -61 -20 -114 -63 -166 -46 -56 -170 -168 -191 -173
-17 -4 -85 93 -121 172 -18 40 -28 85 -35 160 -15 159 -28 249 -39 279 -14 37
-87 115 -140 149 -38 23 -56 28 -110 28 -49 0 -75 -5 -99 -20z m185 -46 c147
-86 209 -314 111 -406 -83 -77 -261 11 -316 157 -46 121 -15 257 63 278 35 10
99 -3 142 -29z m173 -443 c0 -15 5 -42 11 -60 15 -43 6 -49 -31 -18 -16 14
-39 28 -50 32 -28 9 -25 21 10 34 17 5 33 17 36 26 10 25 24 17 24 -14z" id="node3" class="node" stroke-width="20"></path>
<path d="M439 1481 c-32 -32 -39 -46 -39 -78 0 -46 32 -101 70 -121 50 -26
115 0 146 60 40 78 -19 178 -106 178 -24 0 -42 -10 -71 -39z" id="node4" class="node"></path>
</g>
<g transform="translate(0.000000,300.000000) scale(0.100000,-0.100000)" fill="#A0A0A0" stroke="none">

<path d="M655 2283 c-78 -21 -109 -157 -63 -278 55 -146 233 -234 316 -157 76
71 61 223 -34 339 -59 71 -154 113 -219 96z" id="node6" class="node"></path>

</g>
</svg>