<!--?xml version="1.0" standalone="no"?-->

<svg version="1.0" xmlns="http://www.w3.org/2000/svg" width="260.000000pt" height="300.000000pt" viewBox="0 0 260.000000 300.000000" preserveAspectRatio="xMidYMid meet">
<g transform="translate(0.000000,300.000000) scale(0.100000,-0.100000)" fill="#373234" stroke="none">
<path class="node" id="node1" d="M2276 2968 c-16 -16 -51 -38 -77 -50 -93 -39 -189 -177 -189 -270 0
-50 15 -42 24 13 13 83 74 168 151 213 53 32 55 32 55 3 0 -13 5 -28 11 -34 6
-6 12 -19 13 -29 5 -32 26 -28 26 6 0 20 -4 29 -11 24 -6 -3 -4 8 5 24 9 17
16 42 16 55 0 37 20 49 61 36 45 -15 79 -47 79 -74 0 -13 23 -51 51 -86 64
-80 72 -101 65 -165 -3 -28 1 -102 9 -165 18 -134 19 -181 5 -159 -5 8 -10 26
-11 40 -1 35 -6 15 -14 -55 -6 -52 -9 -57 -20 -42 -16 23 -21 15 -30 -48 -7
-46 -9 -48 -18 -25 -10 24 -11 24 -14 3 -3 -17 -10 -20 -29 -17 -21 4 -24 0
-25 -23 0 -24 -1 -25 -8 -8 l-8 20 -5 -20 c-4 -17 -6 -16 -18 10 l-13 30 -7
-25 c-8 -24 -8 -24 -9 6 -1 24 -5 31 -18 30 -10 0 -21 -5 -25 -11 -4 -6 -8 -2
-8 9 0 12 -5 16 -15 13 -11 -5 -16 8 -21 56 -7 60 -8 61 -17 30 -6 -18 -14
-33 -19 -33 -5 0 -6 5 -3 10 4 6 1 18 -6 26 -12 14 -14 14 -21 -3 -4 -10 -5
-1 -2 22 4 29 3 36 -5 25 -7 -10 -13 -11 -20 -5 -9 9 -4 54 15 143 4 19 3 32
-4 32 -11 0 -37 -106 -47 -190 -4 -30 -12 -68 -20 -85 -7 -16 -15 -35 -17 -41
-2 -8 -11 -9 -25 -3 -42 16 -28 94 45 247 42 89 50 172 20 230 -9 18 -15 39
-12 47 3 7 1 16 -5 20 -6 3 -11 -1 -11 -9 0 -9 -7 -16 -15 -16 -8 0 -15 -8
-15 -19 0 -10 7 -38 15 -61 17 -48 19 -62 5 -40 -7 12 -12 12 -28 -4 -16 -14
-19 -27 -16 -72 2 -42 0 -54 -11 -54 -8 0 -15 -4 -15 -10 0 -5 -4 -10 -9 -10
-5 0 -7 9 -4 21 4 12 0 25 -8 30 -10 6 -11 11 -3 17 6 4 14 17 18 28 5 17 -6
34 -58 84 -35 34 -88 78 -118 98 l-53 37 -145 -2 c-150 -3 -201 -15 -214 -49
-5 -14 -4 -15 9 -4 9 7 18 10 22 6 10 -10 -4 -18 -32 -18 -14 0 -26 -3 -27 -7
-4 -19 -9 -67 -14 -159 -5 -89 -4 -105 10 -115 11 -8 18 -31 20 -68 2 -40 10
-66 29 -95 26 -37 27 -44 27 -169 0 -150 -9 -175 -63 -175 -18 0 -52 -5 -76
-11 -39 -9 -46 -7 -76 15 -83 64 -241 88 -309 48 -21 -12 -40 -22 -44 -22 -4
0 -15 21 -26 46 -35 85 -107 144 -177 144 -28 0 -31 2 -24 23 4 12 11 49 16
82 13 86 14 87 69 124 41 28 58 33 101 32 36 0 59 -7 73 -20 37 -33 64 -43 86
-31 11 6 17 17 14 25 -3 8 3 20 15 27 12 7 21 17 21 21 0 5 21 28 47 51 l46
42 -12 45 c-7 24 -17 62 -22 84 -17 65 -15 65 -177 58 -81 -3 -151 -9 -157
-13 -5 -4 -35 -15 -65 -25 -49 -16 -144 -77 -434 -276 -98 -68 -172 -146 -214
-230 -18 -35 -44 -84 -57 -109 -14 -25 -25 -56 -25 -71 0 -37 53 -114 98 -143
22 -13 52 -46 67 -73 39 -66 215 -240 300 -295 81 -54 230 -114 302 -124 l51
-6 7 -47 c8 -53 23 -86 62 -132 25 -29 28 -41 29 -106 1 -61 6 -83 34 -137
l33 -64 -26 -34 c-50 -65 -123 -213 -157 -316 -28 -86 -37 -103 -57 -108 -24
-7 -48 -38 -39 -53 3 -4 -1 -17 -9 -27 -8 -10 -15 -32 -15 -47 0 -15 -9 -40
-19 -55 -24 -33 -38 -112 -21 -112 10 0 9 -4 0 -15 -18 -21 -7 -28 22 -14 19
8 31 8 48 -1 38 -21 31 -5 -10 20 -33 20 -40 30 -40 56 0 18 8 38 20 49 11 10
20 29 20 42 0 20 13 57 26 72 1 1 32 -11 68 -28 68 -32 154 -52 143 -34 -4 6
-27 16 -51 22 -39 9 -98 36 -144 65 -7 4 -10 12 -6 17 3 5 26 -1 52 -16 65
-34 94 -44 182 -61 86 -16 215 -18 280 -3 25 6 162 12 304 14 218 4 262 7 276
20 10 9 21 12 24 7 3 -5 -2 -16 -11 -23 -13 -11 -57 -13 -200 -11 -142 2 -183
-1 -183 -10 0 -10 46 -14 193 -16 218 -2 216 -1 171 -78 -27 -46 -27 -48 -11
-76 9 -16 17 -38 17 -49 0 -10 7 -19 15 -19 19 0 19 10 0 46 -21 41 -19 68 10
102 21 25 25 40 25 91 0 56 -2 61 -25 67 -31 8 -31 17 -1 57 59 78 144 252
161 329 5 21 38 65 97 128 49 52 112 129 140 170 66 94 203 340 224 400 8 25
28 70 43 100 51 99 76 226 75 380 -2 124 -2 240 -2 485 0 200 -10 352 -25 382
-9 16 -37 55 -62 86 -25 31 -52 74 -59 94 -9 29 -23 43 -56 61 -56 28 -78 26
-114 -10z m-590 -261 c4 -4 28 -8 53 -9 41 -1 42 -2 11 -5 -19 -3 -39 -9 -45
-15 -7 -6 -5 -9 5 -8 8 1 29 1 45 0 28 -2 27 -3 -10 -11 -87 -18 -101 -19
-115 -10 -13 9 -12 12 5 25 19 15 18 15 -15 16 -26 0 -31 3 -20 10 22 14 -2
12 -50 -5 -60 -21 -74 -18 -20 4 44 18 141 23 156 8z m-602 -53 c17 -7 22 -34
6 -34 -5 0 -10 -10 -10 -21 0 -18 3 -19 15 -9 17 14 19 11 34 -60 9 -42 2 -70
-19 -70 -14 0 -40 68 -40 106 0 35 -1 37 -16 22 -14 -14 -15 -22 -4 -66 16
-60 9 -82 -25 -82 -28 0 -37 14 -55 88 -6 23 -15 40 -20 37 -5 -3 -5 -17 0
-33 4 -15 11 -44 14 -64 5 -37 4 -38 -25 -38 -28 0 -29 2 -29 44 0 55 -8 76
-27 76 -10 0 -13 -5 -8 -17 4 -10 9 -35 12 -55 4 -29 2 -39 -11 -44 -21 -8
-55 4 -39 14 21 13 -7 76 -35 80 -20 3 -23 0 -17 -18 6 -20 4 -21 -24 -15 -26
5 -30 4 -25 -9 4 -10 1 -16 -9 -16 -19 0 -29 -24 -14 -39 8 -8 7 -11 -5 -11
-9 0 -20 5 -23 10 -3 6 -10 10 -14 10 -13 0 -53 -42 -46 -48 4 -4 13 2 21 13
14 19 15 19 41 -8 15 -15 22 -27 15 -27 -16 0 -42 -24 -42 -38 0 -5 -7 -15
-15 -22 -9 -7 -14 -15 -11 -17 2 -2 27 12 55 32 59 42 67 39 16 -6 -27 -24
-35 -39 -36 -68 -1 -36 -1 -36 -8 -6 l-7 30 -7 -25 c-10 -35 -9 -52 3 -45 6 4
10 -9 9 -32 -1 -34 -2 -36 -10 -13 -7 23 -8 23 -6 -7 1 -22 -6 -40 -22 -57
-33 -35 -45 -33 -26 4 26 51 16 57 -15 9 -17 -25 -41 -52 -55 -59 -26 -14 -33
-30 -14 -30 21 0 -4 -22 -44 -39 -50 -21 -37 -34 16 -16 35 12 38 12 31 -3 -4
-10 -10 -43 -12 -74 -3 -46 1 -65 18 -92 16 -27 82 -89 129 -123 2 -2 -1 -14
-7 -28 -13 -28 -2 -34 18 -10 22 26 31 16 14 -16 -12 -23 -20 -29 -35 -25 -10
3 -28 9 -39 12 -11 4 -20 2 -20 -4 0 -5 26 -17 57 -26 l58 -16 -47 6 c-57 6
-171 43 -253 81 -33 15 -64 29 -69 32 -5 2 -1 -5 10 -16 43 -44 217 -143 252
-143 6 0 12 -6 12 -14 0 -9 22 -21 53 -31 28 -9 58 -19 66 -21 31 -10 3 -12
-44 -3 -39 7 -56 6 -84 -7 -32 -16 -34 -18 -16 -26 15 -6 13 -7 -9 -3 -30 6
-94 45 -92 56 0 4 -21 26 -49 50 -65 58 -84 78 -167 177 -38 45 -74 82 -80 82
-18 0 -108 81 -124 112 -25 47 -11 54 20 9 16 -23 30 -41 32 -41 7 0 -10 37
-31 65 -21 28 -21 33 -8 50 11 15 17 16 20 7 9 -24 45 -50 77 -56 39 -8 139
12 130 25 -3 5 -13 5 -24 -1 -10 -5 -29 -10 -42 -10 -22 1 -22 2 5 16 41 22
28 27 -23 9 -58 -21 -60 -19 -20 16 32 29 30 30 -17 12 -16 -6 -16 -4 1 15 25
29 9 28 -22 0 -14 -13 -22 -17 -18 -11 4 7 9 21 11 30 2 10 7 27 11 38 7 18 6
19 -11 5 -16 -12 -15 -9 3 14 24 31 22 47 -3 26 -9 -8 -15 -8 -15 -2 0 6 4 13
9 16 9 6 33 66 26 66 -2 0 -20 -26 -39 -57 -20 -32 -36 -51 -36 -42 0 25 54
101 111 155 47 44 309 235 435 316 22 14 74 40 115 56 61 25 88 30 158 31 46
0 92 -4 102 -9 12 -7 19 -5 23 5 6 16 24 19 50 9z m361 -14 c-3 -5 -1 -10 5
-10 6 0 8 -5 5 -10 -5 -8 -11 -7 -21 1 -19 15 -18 29 2 29 8 0 12 -4 9 -10z
m180 0 c3 -5 -3 -10 -14 -10 -11 0 -23 5 -26 10 -3 6 3 10 14 10 11 0 23 -4
26 -10z m223 4 c-11 -10 -129 -14 -123 -4 4 6 34 10 67 10 34 0 59 -3 56 -6z
m-168 -35 c81 2 87 1 98 -21 7 -13 26 -30 41 -39 31 -18 51 -73 33 -91 -6 -6
-4 -22 4 -46 7 -20 13 -45 14 -55 0 -10 12 -22 26 -27 14 -6 29 -20 32 -33 6
-22 6 -22 13 3 7 23 7 23 8 3 1 -12 -8 -30 -18 -40 -11 -10 -25 -39 -31 -64
-10 -39 -19 -51 -65 -82 -69 -46 -121 -60 -219 -58 -96 2 -114 10 -121 59 -7
47 -20 101 -30 126 -7 15 -5 18 8 13 14 -5 13 -1 -2 34 -10 22 -23 45 -30 52
-14 14 14 47 42 47 11 0 29 7 39 17 13 11 18 12 18 3 0 -10 3 -10 15 0 16 14
20 56 6 64 -5 3 -32 8 -60 10 -29 2 -55 6 -58 10 -12 12 19 96 36 96 9 1 27 7
41 15 15 9 35 12 50 9 14 -4 63 -6 110 -5z m147 -15 c-3 -3 -12 -4 -19 -1 -8
3 -5 6 6 6 11 1 17 -2 13 -5z m120 -50 c13 -4 20 -10 17 -16 -4 -5 -10 -5 -17
1 -7 5 -23 11 -37 14 -19 3 -20 5 -5 6 11 0 30 -2 42 -5z m-1143 -70 c20 -8
21 -54 2 -54 -20 0 -39 27 -32 45 6 17 8 17 30 9z m1171 -4 c3 -5 -1 -10 -10
-10 -9 0 -13 5 -10 10 3 6 8 10 10 10 2 0 7 -4 10 -10z m-55 -15 c0 -8 -4 -15
-10 -15 -5 0 -10 7 -10 15 0 8 5 15 10 15 6 0 10 -7 10 -15z m-30 -11 c0 -8
-5 -12 -10 -9 -6 4 -8 11 -5 16 9 14 15 11 15 -7z m-1140 -4 c13 -9 13 -10 0
-10 -8 0 -22 5 -30 10 -13 9 -13 10 0 10 8 0 22 -5 30 -10z m1230 -36 c0 -16
-16 -19 -25 -4 -8 13 4 32 16 25 5 -4 9 -13 9 -21z m-1076 10 c22 -9 20 -24
-3 -24 -21 0 -34 13 -24 24 8 7 8 7 27 0z m146 -13 c0 -5 -9 -11 -21 -14 -16
-4 -19 -11 -14 -27 6 -19 3 -21 -22 -18 -22 2 -29 9 -31 30 -3 25 0 27 40 31
24 2 44 4 46 5 1 1 2 -2 2 -7z m988 -326 c-2 -1 -15 -5 -30 -9 -23 -5 -28 -3
-28 11 0 10 12 25 28 34 26 14 27 14 30 -9 2 -13 2 -25 0 -27z m-1258 -22 c45
-37 76 -90 89 -151 16 -78 14 -107 -9 -118 -20 -9 -20 -9 4 -35 31 -34 43 -69
22 -69 -8 0 -17 4 -21 10 -3 5 -12 7 -20 3 -9 -3 -22 0 -30 7 -18 15 -56 4
-49 -15 3 -8 12 -11 19 -9 7 3 16 1 19 -4 3 -5 -2 -9 -12 -8 -11 1 -16 -5 -14
-17 3 -17 2 -17 -22 -1 -14 9 -26 22 -26 29 0 7 -8 16 -17 20 -17 6 -17 7 1
21 19 13 18 14 -10 14 -24 1 -26 2 -11 11 30 18 19 29 -25 24 -39 -4 -40 -4
-10 4 43 11 52 21 20 21 -15 0 -28 5 -30 11 -2 6 -30 16 -63 23 -60 12 -60 12
-63 49 -2 28 1 39 15 44 10 4 24 14 31 22 10 13 14 13 19 3 4 -10 8 -9 19 5
30 40 0 61 -38 26 -10 -9 -18 -13 -18 -10 0 21 48 47 87 47 24 0 43 5 43 10 0
6 -13 10 -30 10 -36 0 -38 13 -8 34 36 26 101 20 138 -11z m1299 -74 c28 -59
33 -77 27 -115 -6 -46 -54 -156 -65 -150 -3 2 -31 -45 -61 -104 -30 -60 -56
-108 -58 -106 -1 2 9 33 23 68 23 58 24 67 12 91 l-14 27 -18 -40 c-10 -22
-19 -58 -20 -79 -3 -78 -15 -91 -159 -166 -121 -62 -135 -68 -151 -55 -10 8
-28 14 -39 13 -12 -1 -15 0 -8 3 10 5 9 10 -4 25 -9 10 -23 19 -29 19 -18 0
-27 44 -15 75 5 14 10 43 10 63 0 42 28 104 50 111 13 4 13 2 1 -13 -24 -29
-4 -29 28 0 36 32 41 50 9 33 -13 -7 24 34 82 90 69 66 130 116 178 142 39 22
72 45 72 50 0 14 -11 11 -69 -21 -68 -38 -89 -39 -36 -3 48 34 196 112 210
112 6 0 25 -31 44 -70z m-2023 25 c-4 -9 -9 -15 -11 -12 -3 3 -3 13 1 22 4 9
9 15 11 12 3 -3 3 -13 -1 -22z m489 16 c3 -5 1 -10 -4 -10 -6 0 -11 5 -11 10
0 6 2 10 4 10 3 0 8 -4 11 -10z m1733 -44 c29 -10 28 -21 -13 -86 -36 -56 -46
-61 -19 -9 8 17 13 38 9 47 -5 13 -10 11 -31 -13 l-25 -30 21 43 c25 52 19 68
-8 23 -18 -30 -20 -31 -25 -11 -3 12 -1 35 5 51 l10 29 26 -19 c15 -10 37 -22
50 -25z m-594 8 c20 -8 20 -23 1 -51 l-15 -21 -40 20 c-38 19 -49 36 -33 51 8
9 66 9 87 1z m880 -35 c9 -45 6 -79 -9 -124 l-14 -40 4 45 c2 25 1 36 -2 26
-5 -19 -53 -96 -59 -96 -2 0 3 15 10 33 20 49 29 107 16 107 -6 0 -9 -3 -7 -7
2 -5 -6 -19 -20 -33 l-24 -25 22 45 c24 49 59 100 70 100 3 0 9 -14 13 -31z
m-215 0 c1 8 4 12 7 9 3 -4 -2 -19 -11 -35 -9 -15 -14 -20 -11 -10 9 29 -12
19 -29 -14 -9 -17 -19 -29 -21 -26 -6 5 21 62 39 85 9 11 12 11 18 -5 5 -11 8
-13 8 -4z m-1279 -19 c0 -5 -16 -10 -36 -10 -21 0 -33 -4 -29 -10 3 -5 25 -10
48 -10 23 0 67 -7 97 -15 67 -18 85 -18 45 0 -20 10 -24 14 -12 15 17 0 167
-114 167 -126 0 -3 -16 4 -35 16 -19 12 -35 17 -35 11 0 -15 59 -44 76 -37 8
3 14 0 15 -7 0 -8 2 -8 6 1 3 7 -3 22 -13 33 -16 18 -16 19 4 19 24 0 161 -48
180 -62 18 -15 15 -42 -9 -72 l-21 -26 -25 20 c-14 11 -40 20 -57 20 -29 -1
-30 -1 -10 -13 47 -27 74 -55 68 -70 -5 -14 -10 -13 -37 4 -46 28 -66 25 -37
-6 13 -13 31 -27 42 -31 14 -4 18 -16 18 -56 l0 -51 -25 23 c-29 27 -31 18 -9
-35 21 -51 11 -80 -36 -111 -29 -20 -46 -25 -66 -20 -18 5 -30 3 -36 -6 -8
-11 -10 -11 -15 0 -4 9 -8 10 -18 2 -11 -9 -12 -6 -7 12 5 22 5 22 -21 5 -24
-16 -26 -16 -20 0 4 9 2 14 -3 11 -11 -7 -35 17 -27 26 6 6 -13 10 -30 7 -5
-1 -6 7 -3 17 5 16 2 19 -18 17 -18 -2 -26 3 -30 19 -7 28 -41 68 -50 59 -3
-3 -6 1 -6 10 0 10 -4 25 -10 35 -5 9 -12 42 -15 72 -6 55 -28 100 -42 86 -4
-4 -3 -10 2 -14 16 -12 16 -39 0 -52 -8 -7 -15 -24 -15 -39 -1 -24 -2 -23 -22
13 -25 48 -41 148 -25 158 6 4 17 2 24 -4 10 -8 12 -4 9 21 -2 17 0 34 5 37 5
3 9 10 9 17 0 6 -15 -4 -34 -22 -30 -29 -34 -30 -40 -14 -4 10 -2 19 4 21 16
6 51 45 45 50 -3 3 -16 -5 -30 -18 -27 -25 -33 -17 -11 15 7 11 13 25 12 30
-2 16 66 45 107 45 20 0 37 -4 37 -10z m47 -6 c-3 -3 -12 -4 -19 -1 -8 3 -5 6
6 6 11 1 17 -2 13 -5z m430 -66 c-3 -8 -6 -5 -6 6 -1 11 2 17 5 13 3 -3 4 -12
1 -19z m748 -35 c-9 -20 -20 -43 -27 -50 -15 -19 -2 -29 17 -13 13 11 14 10 8
-6 -6 -17 -5 -18 12 -4 18 15 18 14 0 -13 -26 -40 -13 -43 25 -5 26 26 30 28
20 10 -6 -13 -9 -26 -6 -29 3 -3 8 2 12 11 3 9 15 16 26 16 10 0 16 -4 13 -10
-11 -18 8 -11 34 13 l26 22 -24 -27 c-29 -33 -21 -49 11 -22 l22 19 -17 -27
c-9 -15 -17 -30 -17 -33 0 -13 32 -3 50 15 32 32 23 8 -14 -41 -35 -45 -66
-130 -66 -180 0 -77 -189 -349 -242 -349 -2 0 20 25 50 57 29 31 63 74 74 97
22 42 33 110 17 100 -5 -3 -9 -9 -9 -14 0 -5 -13 -28 -30 -52 -33 -48 -75
-100 -65 -80 3 7 3 22 0 33 -7 20 -9 19 -42 -12 l-35 -34 23 39 c13 22 17 36
10 32 -10 -7 -11 -3 -6 14 6 18 4 22 -8 17 -11 -4 -13 0 -10 14 6 21 -6 25
-25 9 -6 -6 -10 -7 -7 -4 2 4 -7 26 -20 49 -13 24 -21 46 -18 49 4 3 1 6 -5 6
-8 0 -10 13 -7 38 3 28 2 33 -6 22 -20 -28 1 72 22 106 27 44 95 104 118 104
22 0 82 66 106 116 21 46 29 43 10 -3z m-828 21 c-3 -3 -12 -4 -19 -1 -8 3 -5
6 6 6 11 1 17 -2 13 -5z m243 -9 c0 -3 -15 -21 -34 -40 -19 -18 -41 -44 -50
-56 -8 -13 -19 -20 -23 -16 -4 4 18 32 47 62 54 55 60 60 60 50z m-170 -35 c0
-5 -4 -10 -10 -10 -5 0 -10 5 -10 10 0 6 5 10 10 10 6 0 10 -4 10 -10z m-1250
-170 c21 -25 42 -49 46 -55 5 -5 -10 7 -33 29 -23 21 -56 59 -73 85 -34 50
-23 39 60 -59z m566 3 c-6 -6 -36 9 -36 18 0 5 9 4 20 -3 10 -7 18 -14 16 -15z
m-106 -59 c0 -2 -9 -4 -20 -4 -11 0 -20 4 -20 9 0 5 9 7 20 4 11 -3 20 -7 20
-9z m1083 -160 c-49 -39 -138 -91 -169 -98 -23 -5 -19 0 21 26 129 84 218 127
148 72z m578 -11 c-8 -15 -10 -15 -11 -2 0 17 10 32 18 25 2 -3 -1 -13 -7 -23z
m-581 -17 c0 -2 -17 -16 -37 -31 l-38 -27 33 31 c30 29 42 37 42 27z m187 -18
c33 -31 31 -75 -4 -89 l-28 -10 33 -27 c30 -26 43 -64 24 -76 -19 -11 -73 -16
-67 -6 7 11 0 12 -32 4 -52 -14 -14 -47 50 -44 62 4 86 0 101 -16 9 -8 16 -19
16 -24 0 -13 -48 -36 -92 -44 -21 -4 -38 -11 -38 -15 0 -16 30 -20 75 -12 34
6 45 5 45 -4 0 -8 2 -19 5 -27 3 -7 -2 -22 -11 -33 -14 -18 -15 -18 -10 -2 4
12 2 16 -6 11 -6 -4 -21 -8 -32 -9 -12 -1 -36 -9 -55 -17 l-33 -15 30 -14 c26
-11 29 -15 18 -31 -29 -42 -135 -106 -111 -68 3 6 0 10 -8 10 -10 0 -13 -8 -9
-25 2 -14 8 -22 13 -19 16 9 79 -19 79 -36 0 -28 -23 -95 -27 -82 -3 8 -16 -8
-29 -35 -22 -43 -23 -45 -19 -15 15 96 15 98 0 52 -21 -64 -47 -120 -56 -120
-4 0 -10 -9 -14 -20 -3 -11 -23 -29 -44 -40 -20 -12 -43 -30 -49 -41 -14 -22
0 -26 18 -4 7 8 17 15 22 15 6 0 5 -7 -2 -15 -15 -18 -10 -25 17 -29 10 -2 18
-9 18 -17 0 -8 -8 -13 -20 -11 -11 2 -40 5 -65 6 -25 1 -54 6 -64 13 -19 10
-19 11 2 17 12 4 22 11 22 16 0 13 -92 -20 -112 -40 -19 -20 -91 -36 -109 -24
-7 4 -9 3 -6 -3 4 -5 -6 -10 -23 -10 -28 0 -29 1 -10 14 28 20 15 46 -19 38
-19 -4 -22 -3 -11 5 13 8 13 10 0 10 -10 0 -7 5 8 16 30 21 28 36 -5 28 -27
-6 -26 -5 6 16 19 12 41 29 50 37 14 15 13 16 -13 9 -25 -6 -71 -49 -71 -66 0
-4 -8 -14 -18 -24 -17 -17 -17 -19 -1 -31 11 -7 14 -17 9 -25 -6 -10 -3 -12
13 -8 13 4 20 2 16 -4 -3 -5 2 -18 12 -29 11 -12 13 -19 5 -19 -7 0 -10 -4 -7
-9 8 -13 -12 -19 -110 -33 -70 -10 -87 -10 -93 1 -7 11 -11 9 -20 -5 -12 -19
-12 -16 3 126 2 19 1 27 -1 18 -4 -18 -15 -23 -25 -12 -4 3 0 22 8 42 l15 37
-36 -40 c-46 -51 -57 -79 -53 -135 l2 -45 -54 4 c-77 5 -94 15 -86 54 4 17 15
41 26 52 22 24 27 50 8 39 -8 -4 -7 0 2 12 8 10 24 34 34 53 19 34 12 36 -24
5 -8 -7 -19 -12 -25 -11 -5 1 -22 -22 -37 -52 -27 -58 -71 -100 -83 -81 -4 6
-2 17 4 24 6 7 8 16 5 19 -4 4 0 17 9 30 20 30 7 58 -17 38 -16 -13 -23 -1 -8
13 4 4 7 11 8 14 0 4 8 32 17 62 20 68 43 101 62 94 9 -4 15 0 15 10 0 9 9 25
20 36 12 12 18 25 15 30 -3 5 4 11 15 15 11 4 17 11 14 17 -4 6 0 14 7 19 11
7 9 9 -6 9 -12 0 -16 3 -9 8 12 8 26 39 29 63 2 21 29 49 46 49 7 0 3 -10 -9
-23 -25 -26 -28 -43 -9 -50 9 -4 9 -7 0 -14 -10 -7 -10 -15 0 -36 6 -15 16
-27 20 -27 5 0 5 -4 2 -10 -3 -5 -2 -10 3 -10 19 0 22 33 7 57 -9 13 -13 28
-10 32 3 5 -1 11 -7 14 -10 3 -8 10 6 26 25 28 36 27 36 -3 0 -14 11 -38 24
-53 22 -26 27 -27 56 -16 29 11 32 10 42 -13 6 -13 16 -24 22 -24 6 0 5 -4 -3
-9 -8 -5 -11 -16 -7 -26 6 -17 8 -17 25 -1 10 9 25 14 35 10 11 -4 16 -1 16
10 0 20 29 21 36 1 8 -20 49 -19 70 3 17 16 17 17 -6 20 -18 3 -20 6 -9 13 10
6 2 9 -23 9 -43 0 -48 16 -23 60 8 14 14 37 15 52 0 15 7 43 16 62 14 29 23
34 60 39 27 3 55 14 74 31 30 25 27 31 -12 27 -10 -1 -18 3 -18 9 0 6 -5 8
-12 4 -8 -5 -9 -2 -5 9 3 9 3 16 -1 16 -21 -3 -32 3 -32 18 0 14 -3 14 -22 -3
l-22 -19 17 27 c26 41 21 45 -14 12 l-32 -29 5 28 c3 15 2 27 -2 27 -10 0 -20
-26 -20 -51 0 -26 -53 -26 -80 1 -24 24 -34 25 -53 5 -8 -8 -17 -11 -21 -8 -3
4 -6 -1 -6 -10 0 -19 56 -77 75 -77 7 0 23 -9 36 -20 l24 -20 -24 -20 c-24
-21 -118 -30 -106 -10 13 20 -6 28 -33 14 -35 -18 -48 -18 -33 0 10 12 6 15
-19 21 -29 6 -30 8 -13 21 17 14 16 15 -7 8 -20 -5 -23 -4 -12 7 27 29 11 35
-40 14 -28 -11 -22 16 11 53 17 17 35 32 40 32 6 0 11 5 11 10 0 6 -9 10 -20
10 -14 0 -20 7 -20 23 0 30 24 64 34 49 10 -17 29 -15 22 3 -3 8 2 19 12 24
14 9 12 11 -13 11 -26 1 -27 3 -10 10 26 11 85 12 85 2 0 -5 -11 -19 -25 -32
-33 -31 -24 -38 13 -11 40 28 159 81 183 81 23 0 111 -42 154 -74 50 -37 53
-37 47 -11 -3 17 -11 25 -26 26 -14 1 -11 4 12 10 23 7 32 15 28 25 -7 19 -1
18 61 -11 54 -26 64 -43 38 -65 -8 -7 -15 -19 -15 -27 0 -11 4 -12 23 -2 12 7
47 18 77 25 44 10 49 12 23 13 -38 1 -37 -1 -18 37 20 40 65 83 65 62 0 -16
60 -31 86 -21 25 9 15 23 -17 23 -25 0 -30 3 -25 16 5 13 2 15 -14 11 -30 -8
-24 10 10 28 16 8 34 24 40 35 15 27 67 26 97 -2z m-947 -33 c0 -8 -4 -15 -10
-15 -5 0 -10 7 -10 15 0 8 5 15 10 15 6 0 10 -7 10 -15z m20 -35 c0 -5 -9 -10
-20 -10 -11 0 -20 5 -20 10 0 6 9 10 20 10 11 0 20 -4 20 -10z m-124 -46 c-4
-9 -9 -15 -11 -12 -3 3 -3 13 1 22 4 9 9 15 11 12 3 -3 3 -13 -1 -22z m159 15
c4 -6 5 -13 2 -16 -8 -8 -67 7 -67 18 0 13 57 11 65 -2z m1057 -31 c-7 -7 -12
-8 -12 -2 0 14 12 26 19 19 2 -3 -1 -11 -7 -17z m-467 -6 c-3 -3 -11 0 -18 7
-9 10 -8 11 6 5 10 -3 15 -9 12 -12z m-721 -54 c4 -17 2 -28 -4 -28 -5 0 -10
14 -10 32 0 36 4 35 14 -4z m1176 -12 c0 -2 -7 -9 -15 -16 -12 -10 -15 -10
-15 4 0 9 7 16 15 16 8 0 15 -2 15 -4z m55 -106 c-3 -5 -12 -10 -18 -10 -7 0
-6 4 3 10 19 12 23 12 15 0z m-54 -83 c-8 -8 -11 -5 -11 9 0 27 14 41 18 19 2
-9 -1 -22 -7 -28z m-38 -55 c-3 -12 -9 -22 -14 -22 -12 0 -11 7 3 30 15 24 19
21 11 -8z m-803 -22 c-8 -5 -19 -10 -25 -10 -5 0 -3 5 5 10 8 5 20 10 25 10 6
0 3 -5 -5 -10z m746 -50 c-15 -22 -29 -40 -32 -40 -4 0 1 11 9 24 13 20 14 26
3 35 -7 6 -16 8 -20 4 -4 -4 -4 1 0 10 6 16 8 17 24 2 16 -15 18 -14 24 7 5
15 9 18 13 10 3 -7 -7 -31 -21 -52z m-741 21 c-15 -13 -77 -32 -70 -21 3 5 20
14 38 19 43 12 42 12 32 2z m5 -110 c0 -12 -39 -21 -45 -11 -3 5 1 11 7 13 21
9 38 8 38 -2z m395 -413 c-69 -24 -68 -58 1 -39 54 15 65 13 25 -4 -23 -10
-70 -15 -149 -15 -63 0 -113 2 -110 5 13 13 140 53 156 49 9 -3 28 -1 42 5 14
5 34 10 45 10 14 -1 11 -4 -10 -11z m-598 -90 c-3 -8 -6 -5 -6 6 -1 11 2 17 5
13 3 -3 4 -12 1 -19z"></path>
<path class="node" id="node2" d="M950 2629 c0 -16 20 -49 29 -49 5 0 4 14 -2 30 -11 29 -27 41 -27 19z"></path>
<path class="node" id="node3" d="M882 2608 c3 -7 13 -15 24 -17 16 -3 17 -1 5 13 -16 19 -34 21 -29 4z"></path>
<path class="node" id="node4" d="M810 2597 c0 -8 7 -20 15 -27 12 -10 15 -10 15 3 0 8 -7 20 -15 27
-12 10 -15 10 -15 -3z"></path>
<path class="node" id="node5" d="M1012 2590 c0 -14 2 -19 5 -12 2 6 2 18 0 25 -3 6 -5 1 -5 -13z"></path>
<path class="node" id="node6" d="M630 2495 c-16 -19 -1 -19 24 0 16 12 17 15 4 15 -8 0 -21 -7 -28
-15z"></path>
<path class="node" id="node7" d="M1025 2470 c4 -6 11 -8 16 -5 14 9 11 15 -7 15 -8 0 -12 -5 -9 -10z"></path>
<path class="node" id="node8" d="M300 2029 c0 -13 72 -29 123 -27 26 1 47 6 47 10 0 4 -5 8 -11 8 -5
0 -8 3 -5 8 2 4 -31 8 -75 8 -43 1 -79 -3 -79 -7z"></path>
<path class="node" id="node9" d="M324 1924 c-18 -15 -17 -15 16 -10 43 8 64 26 29 26 -14 0 -34 -7
-45 -16z"></path>
<path class="node" id="node10" d="M457 1898 c-4 -12 -3 -34 0 -48 6 -23 8 -21 14 15 8 43 -4 71 -14 33z"></path>
<path class="node" id="node11" d="M116 1903 c-3 -3 4 -11 17 -17 12 -7 22 -21 22 -33 0 -12 11 -33 24
-47 26 -28 81 -52 81 -35 0 6 5 7 11 3 22 -13 139 -21 139 -9 0 7 15 10 38 9
l37 -3 -38 20 c-24 13 -53 19 -80 17 -67 -4 -174 21 -180 41 -5 21 -61 63 -71
54z"></path>
<path class="node" id="node12" d="M565 1680 c3 -5 12 -7 20 -3 21 7 19 13 -6 13 -11 0 -18 -4 -14 -10z"></path>
<path class="node" id="node13" d="M610 1665 c0 -8 2 -15 4 -15 2 0 6 7 10 15 3 8 1 15 -4 15 -6 0 -10
-7 -10 -15z"></path>
<path class="node" id="node14" d="M1666 2535 c-20 -14 -41 -25 -47 -25 -6 0 -7 -4 -4 -10 3 -5 -3 -10
-15 -10 -12 0 -25 10 -32 25 -12 28 -28 33 -28 10 0 -19 34 -49 85 -75 34 -17
40 -18 48 -5 4 8 14 15 22 15 8 0 33 7 55 16 l41 16 -48 24 c-26 13 -41 24
-32 24 8 0 24 -7 35 -15 22 -17 34 -19 34 -5 0 10 -51 40 -68 40 -5 0 -26 -11
-46 -25z"></path>
<path class="node" id="node15" d="M1575 2540 c-3 -5 -1 -10 4 -10 6 0 11 5 11 10 0 6 -2 10 -4 10 -3 0
-8 -4 -11 -10z"></path>
<path class="node" id="node16" d="M1690 2362 c0 -11 22 -32 32 -32 5 0 4 9 -2 20 -11 20 -30 28 -30 12z"></path>
<path class="node" id="node17" d="M1550 2325 c-7 -8 -16 -12 -21 -9 -5 3 -9 1 -9 -4 0 -13 27 -23 43
-16 8 3 20 -2 27 -11 16 -20 30 -19 30 1 0 13 8 15 40 12 42 -4 45 -2 31 20
-13 21 -125 26 -141 7z"></path>
<path class="node" id="node18" d="M1845 2289 c-4 -6 -5 -12 -2 -15 2 -3 7 2 10 11 7 17 1 20 -8 4z"></path>
<path class="node" id="node19" d="M1800 2282 c0 -7 -5 -10 -10 -7 -9 6 -9 -17 -1 -75 1 -3 10 10 22 29
19 31 19 35 5 50 -11 11 -16 12 -16 3z"></path>
<path class="node" id="node20" d="M1594 2251 c-39 -10 -56 -20 -49 -31 3 -4 24 -4 47 1 23 6 54 7 70 4
38 -9 36 10 -3 24 -18 6 -32 11 -33 10 -1 -1 -15 -4 -32 -8z"></path>
<path class="node" id="node21" d="M1556 2173 c23 -17 75 -17 99 1 17 12 11 13 -49 13 -59 -1 -66 -3
-50 -14z"></path>
<path class="node" id="node22" d="M1527 2130 c-3 -11 -1 -20 4 -20 5 0 9 2 9 4 0 2 3 11 6 20 3 9 2 16
-4 16 -5 0 -12 -9 -15 -20z"></path>
<path class="node" id="node23" d="M1590 2080 c0 -5 5 -10 10 -10 6 0 10 5 10 10 0 6 -4 10 -10 10 -5 0
-10 -4 -10 -10z"></path>
<path class="node" id="node24" d="M620 1940 c0 -5 5 -10 10 -10 6 0 10 5 10 10 0 6 -4 10 -10 10 -5 0
-10 -4 -10 -10z"></path>
<path class="node" id="node25" d="M740 1783 c0 -26 11 -63 19 -63 33 1 34 47 0 68 -16 10 -19 9 -19 -5z"></path>
<path class="node" id="node26" d="M1556 1604 c-16 -17 -24 -34 -21 -45 3 -9 1 -20 -5 -24 -5 -3 -10
-21 -10 -38 l0 -32 24 30 c17 21 23 39 21 60 -3 18 2 37 12 47 26 29 8 31 -21
2z"></path>
<path class="node" id="node27" d="M1300 1761 c0 -10 31 -31 45 -31 11 0 -5 20 -26 30 -12 7 -19 7 -19
1z"></path>
<path class="node" id="node28" d="M1950 1270 c0 -5 5 -10 11 -10 5 0 7 5 4 10 -3 6 -8 10 -11 10 -2 0
-4 -4 -4 -10z"></path>
<path class="node" id="node29" d="M1335 1237 c-39 -10 -72 -33 -62 -43 2 -3 17 -2 33 2 25 6 26 8 9 15
-16 6 -13 8 15 10 19 1 47 2 63 2 30 -1 36 11 11 21 -18 7 -17 7 -69 -7z"></path>
<path class="node" id="node30" d="M1278 1173 c6 -2 18 -2 25 0 6 3 1 5 -13 5 -14 0 -19 -2 -12 -5z"></path>
<path class="node" id="node31" d="M1900 1093 c1 -10 7 -29 15 -43 l14 -25 1 27 c0 32 -9 58 -21 58 -5
0 -9 -8 -9 -17z"></path>
<path class="node" id="node32" d="M1640 1033 c0 -7 9 -13 21 -13 11 0 17 -4 14 -10 -3 -5 1 -10 10 -10
9 0 14 4 10 9 -3 5 4 13 16 16 29 9 17 17 -31 19 -27 2 -40 -2 -40 -11z"></path>
<path class="node" id="node33" d="M1871 963 c-20 -19 -35 -23 -88 -23 -35 0 -63 -4 -63 -10 0 -5 7 -11
15 -11 101 -9 148 4 160 42 9 28 4 29 -24 2z"></path>
<path class="node" id="node34" d="M1621 933 c-20 -22 -31 -44 -28 -55 3 -10 1 -16 -3 -13 -10 6 -35
-34 -26 -42 2 -3 19 5 35 17 33 23 37 20 21 -10 -7 -13 -7 -21 1 -25 7 -5 2
-16 -12 -31 -25 -27 -15 -33 13 -7 17 15 18 15 18 0 0 -19 0 -19 -58 -21 -24
-1 -37 1 -30 6 15 9 -36 11 -69 2 -31 -8 -29 -24 2 -24 16 0 25 -6 25 -16 0
-11 6 -14 23 -9 18 5 17 3 -5 -10 -15 -8 -35 -29 -43 -45 -9 -16 -27 -37 -40
-46 -14 -9 -25 -23 -25 -30 0 -9 17 -1 46 21 26 20 61 43 78 51 l31 16 -30
-26 c-39 -33 -25 -33 23 -1 20 14 43 25 52 25 13 0 13 1 0 10 -12 7 -7 12 23
25 46 19 114 32 82 15 -17 -9 -15 -10 10 -5 17 2 64 10 105 16 90 14 119 32
42 27 -28 -1 -52 0 -52 5 0 4 5 7 11 7 5 0 7 5 3 11 -3 6 -17 8 -31 4 -19 -4
-23 -2 -21 12 2 10 7 21 12 25 6 4 -10 4 -35 2 -29 -4 -40 -2 -30 4 11 8 11
11 0 16 -12 5 -12 7 -1 12 8 4 -8 16 -40 31 -46 22 -50 26 -33 33 17 7 17 9 3
9 -14 1 -16 5 -8 26 13 35 -1 31 -39 -12z"></path>
<path class="node" id="node35" d="M1780 890 c0 -5 9 -10 20 -10 11 0 20 5 20 10 0 6 -9 10 -20 10 -11
0 -20 -4 -20 -10z"></path>
<path class="node" id="node36" d="M1416 861 c-17 -6 -15 -11 18 -47 20 -21 36 -42 36 -46 0 -16 28 4
38 27 13 27 3 38 -25 28 -17 -6 -16 -5 2 17 l20 23 -22 -12 c-30 -15 -38 -14
-23 4 10 12 9 15 -6 14 -11 0 -27 -4 -38 -8z"></path>
<path class="node" id="node37" d="M1851 829 c-13 -5 -21 -12 -18 -15 8 -8 65 5 72 17 8 12 -23 11 -54
-2z"></path>
<path class="node" id="node38" d="M1036 713 c-14 -15 -46 -96 -46 -120 0 -13 -7 -39 -14 -58 -16 -38
-9 -45 17 -17 22 24 39 70 42 112 1 19 6 47 10 63 7 27 5 33 -9 20z"></path>
<path class="node" id="node39" d="M1105 700 c-3 -5 -1 -10 4 -10 6 0 11 5 11 10 0 6 -2 10 -4 10 -3 0
-8 -4 -11 -10z"></path>
<path class="node" id="node40" d="M1215 634 c-41 -21 -42 -23 -9 -24 16 0 48 -1 72 -3 46 -4 58 14 23
33 -27 14 -51 13 -86 -6z"></path>
<path class="node" id="node41" d="M1408 413 c7 -3 16 -2 19 1 4 3 -2 6 -13 5 -11 0 -14 -3 -6 -6z"></path>
<path class="node" id="node42" d="M2425 2828 c3 -18 9 -53 13 -78 l8 -45 7 49 c4 30 3 54 -3 60 -5 5
-10 18 -10 28 0 10 -5 18 -10 18 -7 0 -9 -13 -5 -32z"></path>
<path class="node" id="node43" d="M2460 2730 c0 -19 3 -21 12 -12 9 9 9 15 0 24 -9 9 -12 7 -12 -12z"></path>
<path class="node" id="node44" d="M2212 2634 c-23 -16 -28 -39 -13 -62 6 -10 11 -9 22 4 13 16 12 17
-6 11 -17 -6 -16 -4 4 11 13 11 21 24 17 30 -3 6 0 13 6 15 7 3 8 6 3 6 -6 1
-21 -6 -33 -15z"></path>
<path class="node" id="node45" d="M2526 2514 c-3 -9 -6 -34 -6 -56 0 -33 -2 -38 -14 -29 -11 9 -16 3
-27 -34 -11 -37 -15 -42 -21 -25 -10 26 -28 26 -28 0 0 -11 -4 -20 -10 -20 -5
0 -10 5 -10 11 0 5 -4 7 -10 4 -6 -3 -10 4 -10 17 0 18 -2 20 -9 9 -7 -11 -11
-4 -16 25 -13 71 -24 72 -25 1 l0 -67 45 -28 c26 -16 49 -38 54 -54 14 -41 24
-34 16 11 -6 34 -3 42 14 53 12 7 21 22 21 34 0 17 5 20 25 16 25 -4 25 -4 25
72 0 77 -3 89 -14 60z"></path>
<path class="node" id="node46" d="M1460 30 c-8 -5 -12 -11 -10 -13 3 -2 66 -7 140 -9 78 -3 116 -2 90
2 -191 33 -198 34 -220 20z"></path>
</g>
<g transform="translate(0.000000,300.000000) scale(0.100000,-0.100000)" fill="#FFFFFF" stroke="none">

<path class="node" id="node48" d="M2390 2978 c33 -18 47 -32 56 -61 7 -20 34 -63 60 -95 69 -85 83
-121 77 -206 -2 -39 0 -96 5 -126 7 -42 10 12 11 228 l1 282 -127 0 -127 0 44
-22z"></path>
<path class="node" id="node49" d="M1530 2699 c-54 -22 -40 -25 20 -4 48 17 72 19 50 5 -11 -7 -6 -10
20 -10 33 -1 34 -1 15 -16 -17 -13 -18 -16 -5 -25 14 -9 28 -8 115 10 37 8 38
9 10 11 -16 1 -37 1 -45 0 -10 -1 -12 2 -5 8 6 6 26 12 45 15 31 3 30 4 -11 5
-25 1 -49 5 -53 9 -15 15 -112 10 -156 -8z"></path>
<path class="node" id="node50" d="M1034 2645 c-4 -10 -11 -12 -23 -5 -10 5 -56 9 -102 9 -70 -1 -97 -6
-158 -31 -41 -16 -93 -42 -115 -56 -126 -81 -388 -272 -435 -316 -57 -54 -111
-130 -111 -155 0 -9 16 10 36 42 19 31 37 57 39 57 7 0 -17 -60 -26 -66 -5 -3
-9 -10 -9 -16 0 -6 6 -6 15 2 25 21 27 5 3 -26 -18 -23 -19 -26 -3 -14 17 14
18 13 11 -5 -4 -11 -9 -28 -11 -38 -2 -9 -7 -23 -11 -30 -4 -6 4 -2 18 11 31
28 47 29 22 0 -17 -19 -17 -21 -1 -15 47 18 49 17 17 -12 -40 -35 -38 -37 20
-16 51 18 64 13 23 -9 -27 -14 -27 -15 -5 -16 13 0 32 5 42 10 11 6 21 6 24 1
9 -13 -91 -33 -130 -25 -32 6 -68 32 -77 56 -3 9 -9 8 -20 -7 -13 -17 -13 -22
8 -50 21 -28 38 -65 31 -65 -2 0 -16 18 -32 41 -31 45 -45 38 -20 -9 16 -31
106 -112 124 -112 6 0 42 -37 80 -82 83 -99 102 -119 167 -177 28 -24 49 -46
49 -50 -2 -11 62 -50 92 -56 22 -4 24 -3 9 3 -18 8 -16 10 16 26 28 13 45 14
84 7 47 -9 75 -7 44 3 -8 2 -38 12 -66 21 -31 10 -53 22 -53 31 0 8 -6 14 -12
14 -35 0 -209 99 -252 143 -11 11 -15 18 -10 16 5 -3 36 -17 69 -32 82 -38
196 -75 253 -81 l47 -6 -58 16 c-31 9 -57 21 -57 26 0 6 9 8 20 4 11 -3 29 -9
39 -12 15 -4 23 2 35 25 17 32 8 42 -14 16 -20 -24 -31 -18 -18 10 6 14 9 26
7 28 -47 34 -113 96 -129 123 -17 27 -21 46 -18 92 2 31 8 64 12 74 7 15 4 15
-31 3 -53 -18 -66 -5 -16 16 40 17 65 39 44 39 -19 0 -12 16 14 30 14 7 38 34
55 59 31 48 41 42 15 -9 -19 -37 -7 -39 26 -4 16 17 23 35 22 57 -2 30 -1 30
6 7 8 -23 9 -21 10 13 1 23 -3 36 -9 32 -12 -7 -13 10 -3 45 l7 25 7 -30 c7
-30 7 -30 8 6 1 29 9 44 36 68 51 45 43 48 -16 6 -28 -20 -53 -34 -55 -32 -3
2 2 10 11 17 8 7 15 17 15 22 0 14 26 38 42 38 7 0 0 12 -15 27 -26 27 -27 27
-41 8 -8 -11 -17 -17 -21 -13 -7 6 33 48 46 48 4 0 11 -4 14 -10 3 -5 14 -10
23 -10 12 0 13 3 5 11 -15 15 -5 39 14 39 10 0 13 6 9 16 -5 13 -1 14 25 9 28
-6 30 -5 24 15 -6 18 -3 21 17 18 28 -4 56 -67 35 -80 -16 -10 18 -22 39 -14
13 5 15 15 11 44 -3 20 -8 45 -12 55 -5 12 -2 17 8 17 19 0 27 -21 27 -76 0
-42 1 -44 29 -44 29 0 30 1 25 38 -3 20 -10 49 -14 64 -5 16 -5 30 0 33 5 3
14 -14 20 -37 18 -74 27 -88 55 -88 34 0 41 22 25 82 -11 44 -10 52 4 66 15
15 16 13 16 -22 0 -38 26 -106 40 -106 21 0 28 28 19 70 -15 71 -17 74 -34 60
-12 -10 -15 -9 -15 9 0 11 5 21 10 21 16 0 11 27 -6 34 -26 10 -44 7 -50 -9z
m-57 -35 c6 -16 7 -30 2 -30 -9 0 -29 33 -29 49 0 22 16 10 27 -19z m-66 -6
c12 -14 11 -16 -5 -13 -11 2 -21 10 -24 17 -5 17 13 15 29 -4z m-71 -31 c0
-13 -3 -13 -15 -3 -8 7 -15 19 -15 27 0 13 3 13 15 3 8 -7 15 -19 15 -27z
m177 5 c-3 -7 -5 -2 -5 12 0 14 2 19 5 13 2 -7 2 -19 0 -25z m-363 -83 c-25
-19 -40 -19 -24 0 7 8 20 15 28 15 13 0 12 -3 -4 -15z m396 -19 c0 -11 -19
-15 -25 -6 -3 5 1 10 9 10 9 0 16 -2 16 -4z m-596 -448 c-3 -5 0 -8 5 -8 6 0
11 -4 11 -8 0 -12 -89 -13 -132 -1 -61 16 -44 26 41 25 44 0 77 -4 75 -8z
m-70 -98 c-5 -5 -25 -12 -44 -16 -33 -5 -34 -5 -16 10 22 17 77 23 60 6z m87
-65 c-6 -36 -8 -38 -14 -15 -7 30 2 75 13 63 5 -4 5 -26 1 -48z m-284 -16 c6
-20 113 -45 180 -41 27 2 56 -4 80 -17 l38 -20 -37 3 c-23 1 -38 -2 -38 -9 0
-12 -117 -4 -139 9 -6 4 -11 3 -11 -3 0 -17 -55 7 -81 35 -13 14 -24 35 -24
47 0 12 -10 26 -22 33 -13 6 -20 14 -17 17 10 9 66 -33 71 -54z m413 -163 c0
-9 -30 -14 -35 -6 -4 6 3 10 14 10 12 0 21 -2 21 -4z m24 -21 c-4 -8 -8 -15
-10 -15 -2 0 -4 7 -4 15 0 8 4 15 10 15 5 0 7 -7 4 -15z"></path>
<path class="node" id="node51" d="M1420 2641 c0 -16 28 -33 35 -21 3 5 1 10 -5 10 -6 0 -8 5 -5 10 3 6
-1 10 -9 10 -9 0 -16 -4 -16 -9z"></path>
<path class="node" id="node52" d="M1585 2640 c3 -5 15 -10 26 -10 11 0 17 5 14 10 -3 6 -15 10 -26 10
-11 0 -17 -4 -14 -10z"></path>
<path class="node" id="node53" d="M1725 2640 c-6 -10 112 -6 123 4 3 3 -22 6 -56 6 -33 0 -63 -4 -67
-10z"></path>
<path class="node" id="node54" d="M1520 2605 c-14 -8 -32 -14 -41 -15 -17 0 -48 -84 -36 -96 3 -4 29
-8 58 -10 28 -2 55 -7 60 -10 14 -8 10 -50 -6 -64 -12 -10 -15 -10 -15 0 0 9
-5 8 -18 -3 -10 -10 -28 -17 -39 -17 -28 0 -56 -33 -42 -47 7 -7 20 -30 30
-52 15 -35 16 -39 2 -34 -13 5 -15 2 -8 -13 10 -25 23 -79 30 -126 7 -49 25
-57 121 -59 98 -2 150 12 219 58 46 31 55 43 65 82 6 25 20 54 31 64 10 10 19
28 18 40 -1 20 -1 20 -8 -3 -7 -25 -7 -25 -13 -3 -3 13 -18 27 -32 33 -14 5
-26 17 -26 27 -1 10 -7 35 -14 55 -8 24 -10 40 -4 46 18 18 -2 73 -33 91 -15
9 -34 26 -41 39 -11 22 -17 23 -98 21 -47 -1 -96 1 -110 5 -15 3 -35 0 -50 -9z
m230 -60 c17 -9 30 -20 30 -25 0 -14 -12 -12 -34 5 -11 8 -27 15 -35 15 -9 0
6 -11 32 -24 l48 -24 -41 -16 c-22 -9 -47 -16 -55 -16 -8 0 -18 -7 -22 -15 -8
-13 -14 -12 -48 5 -51 26 -85 56 -85 75 0 23 16 18 28 -10 7 -15 20 -25 32
-25 12 0 18 5 15 10 -3 6 -2 10 4 10 6 0 27 11 47 25 43 29 46 30 84 10z
m-160 -5 c0 -5 -5 -10 -11 -10 -5 0 -7 5 -4 10 3 6 8 10 11 10 2 0 4 -4 4 -10z
m130 -190 c6 -11 7 -20 2 -20 -10 0 -32 21 -32 32 0 16 19 8 30 -12z m-29 -32
c14 -22 11 -24 -31 -20 -32 3 -40 1 -40 -12 0 -20 -14 -21 -30 -1 -7 9 -19 14
-27 11 -16 -7 -43 3 -43 16 0 5 4 7 9 4 5 -3 14 1 21 9 16 19 128 14 141 -7z
m162 -33 c-3 -9 -8 -14 -10 -11 -3 3 -2 9 2 15 9 16 15 13 8 -4z m-42 -56
c-12 -19 -21 -32 -22 -29 -8 58 -8 81 1 75 5 -3 10 0 10 7 0 9 5 8 16 -3 14
-15 14 -19 -5 -50z m-152 20 c39 -14 41 -33 3 -24 -16 3 -47 2 -70 -4 -23 -5
-44 -5 -47 -1 -7 11 10 21 49 31 17 4 31 7 32 8 1 1 15 -4 33 -10z m-4 -75
c-24 -18 -76 -18 -99 -1 -16 11 -9 13 50 14 60 0 66 -1 49 -13z m-109 -40 c-3
-9 -6 -18 -6 -20 0 -2 -4 -4 -9 -4 -5 0 -7 9 -4 20 3 11 10 20 15 20 6 0 7 -7
4 -16z m64 -54 c0 -5 -4 -10 -10 -10 -5 0 -10 5 -10 10 0 6 5 10 10 10 6 0 10
-4 10 -10z"></path>
<path class="node" id="node55" d="M1808 2593 c7 -3 16 -2 19 1 4 3 -2 6 -13 5 -11 0 -14 -3 -6 -6z"></path>
<path class="node" id="node56" d="M1910 2543 c14 -3 30 -9 37 -14 7 -6 13 -6 17 -1 6 11 -28 22 -59 21
-15 -1 -14 -3 5 -6z"></path>
<path class="node" id="node57" d="M774 2465 c-7 -18 12 -45 32 -45 19 0 18 46 -2 54 -22 8 -24 8 -30
-9z"></path>
<path class="node" id="node58" d="M1955 2470 c-3 -5 1 -10 10 -10 9 0 13 5 10 10 -3 6 -8 10 -10 10 -2
0 -7 -4 -10 -10z"></path>
<path class="node" id="node59" d="M1900 2455 c0 -8 5 -15 10 -15 6 0 10 7 10 15 0 8 -4 15 -10 15 -5 0
-10 -7 -10 -15z"></path>
<path class="node" id="node60" d="M1875 2451 c-3 -5 -1 -12 5 -16 5 -3 10 1 10 9 0 18 -6 21 -15 7z"></path>
<path class="node" id="node61" d="M720 2440 c8 -5 22 -10 30 -10 13 0 13 1 0 10 -8 5 -22 10 -30 10
-13 0 -13 -1 0 -10z"></path>
<path class="node" id="node62" d="M1955 2420 c-7 -12 2 -30 16 -30 12 0 12 27 0 35 -5 3 -12 1 -16 -5z"></path>
<path class="node" id="node63" d="M877 2414 c-10 -11 3 -24 24 -24 23 0 25 15 3 24 -19 7 -19 7 -27 0z"></path>
<path class="node" id="node64" d="M1002 2403 c-40 -4 -43 -6 -40 -31 2 -21 9 -28 31 -30 25 -3 28 -1
22 18 -5 16 -2 23 14 27 12 3 21 9 21 14 0 5 -1 8 -2 7 -2 -1 -22 -3 -46 -5z"></path>
<path class="node" id="node65" d="M2589 2253 c-6 -83 -5 -212 2 -232 4 -16 8 30 8 112 1 75 -1 137 -4
137 -3 0 -6 -8 -6 -17z"></path>
<path class="node" id="node66" d="M2008 2111 c-16 -9 -28 -24 -28 -34 0 -14 5 -16 28 -11 35 9 34 8 30
36 -3 23 -4 23 -30 9z"></path>
<path class="node" id="node67" d="M642 2064 c-30 -21 -28 -34 8 -34 17 0 30 -4 30 -10 0 -5 -19 -10
-43 -10 -39 0 -87 -26 -87 -47 0 -3 8 1 18 10 38 35 68 14 38 -26 -11 -14 -15
-15 -19 -5 -5 10 -9 10 -19 -3 -7 -8 -21 -18 -31 -22 -14 -5 -17 -16 -15 -44
3 -37 3 -37 63 -49 33 -7 61 -17 63 -23 2 -6 15 -11 30 -11 32 0 23 -10 -20
-21 -30 -8 -29 -8 10 -4 44 5 55 -6 25 -24 -15 -9 -13 -10 11 -11 28 0 29 -1
10 -14 -18 -14 -18 -15 -1 -21 9 -4 17 -13 17 -20 0 -7 12 -20 26 -29 24 -16
25 -16 22 1 -2 12 3 18 14 17 10 -1 15 3 12 8 -3 5 -12 7 -19 4 -7 -2 -16 1
-19 9 -7 19 31 30 49 15 8 -7 21 -10 30 -7 8 4 17 2 20 -3 4 -6 13 -10 21 -10
21 0 9 35 -22 69 -24 26 -24 26 -4 35 23 11 25 40 9 118 -22 102 -91 178 -163
178 -23 0 -52 -7 -64 -16z m-2 -124 c0 -5 -4 -10 -10 -10 -5 0 -10 5 -10 10 0
6 5 10 10 10 6 0 10 -4 10 -10z m144 -184 c5 -18 -8 -35 -25 -36 -8 0 -19 37
-19 63 0 14 3 15 19 5 11 -7 22 -21 25 -32z"></path>
<path class="node" id="node68" d="M1945 2007 c-88 -47 -166 -97 -149 -97 6 0 35 13 65 30 58 32 69 35
69 21 0 -5 -33 -28 -72 -50 -48 -26 -109 -76 -178 -142 -58 -56 -95 -97 -82
-90 32 17 27 -1 -9 -33 -32 -29 -52 -29 -28 0 12 15 12 17 -1 13 -22 -7 -50
-69 -50 -111 0 -20 -5 -49 -10 -63 -12 -31 -3 -75 15 -75 6 0 20 -9 29 -19 13
-15 14 -20 4 -25 -7 -3 -4 -4 8 -3 11 1 29 -5 39 -13 16 -13 30 -7 151 55 144
75 156 88 159 166 1 21 10 57 20 79 l18 40 14 -27 c12 -24 11 -33 -12 -91 -14
-35 -24 -66 -23 -68 2 -2 28 46 58 106 30 59 58 106 61 104 11 -6 59 104 65
150 6 38 1 56 -27 115 -19 39 -38 70 -44 70 -5 0 -46 -19 -90 -42z m-368 -405
c-10 -10 -15 -29 -12 -47 2 -21 -4 -39 -21 -60 l-24 -30 0 32 c0 17 5 35 10
38 6 4 8 15 5 24 -3 11 5 28 21 45 29 29 47 27 21 -2z"></path>
<path class="node" id="node69" d="M46 2014 c-4 -9 -4 -19 -1 -22 2 -3 7 3 11 12 4 9 4 19 1 22 -2 3 -7
-3 -11 -12z"></path>
<path class="node" id="node70" d="M530 2020 c0 -5 5 -10 11 -10 5 0 7 5 4 10 -3 6 -8 10 -11 10 -2 0
-4 -4 -4 -10z"></path>
<path class="node" id="node71" d="M2192 1991 c-6 -16 -8 -39 -5 -51 5 -20 7 -19 25 11 27 45 33 29 8
-23 l-21 -43 25 30 c21 24 26 26 31 13 4 -9 -1 -30 -9 -47 -27 -52 -17 -47 19
9 41 65 42 76 13 86 -13 3 -35 15 -50 25 l-26 19 -10 -29z"></path>
<path class="node" id="node72" d="M1597 1983 c-16 -15 -5 -32 33 -51 l40 -20 15 21 c19 28 19 43 -1 51
-21 8 -79 8 -87 -1z"></path>
<path class="node" id="node73" d="M2523 1952 c-11 -15 -30 -48 -42 -72 l-22 -45 24 25 c14 14 22 28 20
33 -2 4 1 7 7 7 13 0 4 -58 -16 -107 -7 -18 -12 -33 -10 -33 6 0 54 77 59 96
3 10 4 -1 2 -26 l-4 -45 14 40 c15 45 18 79 9 124 -8 38 -15 39 -41 3z"></path>
<path class="node" id="node74" d="M2323 1958 c-18 -23 -45 -80 -39 -85 2 -3 12 9 21 26 17 33 38 43 29
14 -3 -10 2 -5 11 10 9 16 14 31 11 35 -3 3 -6 -1 -7 -9 0 -9 -3 -7 -8 4 -6
16 -9 16 -18 5z"></path>
<path class="node" id="node75" d="M960 1922 c-19 -9 -34 -21 -34 -27 1 -5 -5 -19 -12 -30 -22 -32 -16
-40 11 -15 14 13 27 21 30 18 6 -5 -29 -44 -45 -50 -6 -2 -8 -11 -4 -21 6 -16
10 -15 40 14 19 18 34 28 34 22 0 -7 -4 -14 -9 -17 -5 -3 -7 -20 -5 -37 3 -25
1 -29 -9 -21 -7 6 -18 8 -24 4 -16 -10 0 -110 25 -158 20 -36 21 -37 22 -13 0
15 7 32 15 39 16 13 16 40 0 52 -5 4 -6 10 -2 14 14 14 36 -31 42 -86 3 -30
10 -63 15 -72 6 -10 10 -25 10 -35 0 -9 3 -13 6 -10 9 9 43 -31 50 -59 4 -16
12 -21 30 -19 20 2 23 -1 18 -17 -3 -10 -2 -18 3 -17 17 3 36 -1 30 -7 -8 -9
16 -33 27 -26 5 3 7 -2 3 -11 -6 -16 -4 -16 20 0 26 17 26 17 21 -5 -5 -18 -4
-21 7 -12 10 8 14 7 18 -2 5 -11 7 -11 15 0 6 9 18 11 36 6 20 -5 37 0 66 20
47 31 57 60 36 111 -22 53 -20 62 9 35 l25 -23 0 51 c0 40 -4 52 -18 56 -11 4
-29 18 -42 31 -29 31 -9 34 37 6 27 -17 32 -18 37 -4 6 15 -21 43 -68 70 -20
12 -19 12 10 13 17 0 43 -9 57 -20 l25 -20 21 26 c24 30 27 57 9 72 -19 14
-156 62 -180 62 -20 0 -20 -1 -4 -19 10 -11 16 -26 13 -33 -4 -9 -6 -9 -6 -1
-1 7 -7 10 -15 7 -17 -7 -76 22 -76 37 0 6 16 1 35 -11 19 -12 35 -19 35 -16
0 12 -150 126 -167 126 -12 -1 -8 -5 12 -15 40 -18 22 -18 -45 0 -30 8 -74 15
-97 15 -23 0 -45 5 -48 10 -4 6 8 10 29 10 20 0 36 5 36 10 0 16 -72 11 -110
-8z m385 -182 c8 -13 -1 -13 -26 0 -10 6 -19 15 -19 21 0 11 35 -5 45 -21z"></path>
<path class="node" id="node76" d="M1098 1923 c7 -3 16 -2 19 1 4 3 -2 6 -13 5 -11 0 -14 -3 -6 -6z"></path>

<path class="node" id="node78" d="M1541 1864 c0 -11 3 -14 6 -6 3 7 2 16 -1 19 -3 4 -6 -2 -5 -13z"></path>
<path class="node" id="node79" d="M2285 1826 c-24 -50 -84 -116 -106 -116 -23 0 -91 -60 -118 -104 -21
-34 -42 -134 -22 -106 8 11 9 6 6 -22 -3 -25 -1 -38 7 -38 6 0 9 -3 5 -6 -3
-3 5 -25 18 -49 13 -23 22 -45 20 -49 -3 -3 1 -2 7 4 19 16 31 12 25 -9 -3
-14 -1 -18 10 -14 12 5 14 1 8 -17 -5 -17 -4 -21 6 -14 7 4 3 -10 -10 -32
l-23 -39 35 34 c33 31 35 32 42 12 3 -11 3 -26 0 -33 -10 -20 32 32 65 80 17
24 30 47 30 52 0 5 4 11 9 14 16 10 5 -58 -17 -100 -11 -23 -45 -66 -74 -97
-30 -32 -52 -57 -50 -57 53 0 242 272 242 349 0 50 31 135 66 180 37 49 46 73
14 41 -18 -18 -50 -28 -50 -15 0 3 8 18 17 33 l17 27 -22 -19 c-32 -27 -40
-11 -11 22 l24 27 -26 -22 c-26 -24 -45 -31 -34 -13 3 6 -3 10 -13 10 -11 0
-23 -7 -26 -16 -4 -9 -9 -14 -12 -11 -3 3 0 16 6 29 10 18 6 16 -20 -10 -38
-38 -51 -35 -25 5 18 27 18 28 0 13 -17 -14 -18 -13 -12 4 6 16 5 17 -8 6 -19
-16 -32 -6 -17 13 14 16 44 87 38 87 -3 0 -12 -15 -21 -34z"></path>
<path class="node" id="node80" d="M1448 1843 c7 -3 16 -2 19 1 4 3 -2 6 -13 5 -11 0 -14 -3 -6 -6z"></path>
<path class="node" id="node81" d="M1650 1785 c-29 -30 -51 -58 -47 -62 4 -4 15 3 23 16 9 12 31 38 50
56 30 30 40 45 31 45 -1 0 -27 -25 -57 -55z"></path>
<path class="node" id="node82" d="M1520 1800 c0 -5 5 -10 10 -10 6 0 10 5 10 10 0 6 -4 10 -10 10 -5 0
-10 -4 -10 -10z"></path>

<path class="node" id="node84" d="M230 1689 c17 -26 50 -64 73 -85 23 -22 38 -34 33 -29 -22 27 -87
103 -111 130 -22 25 -22 23 5 -16z"></path>
<path class="node" id="node85" d="M820 1651 c0 -9 30 -24 36 -18 2 1 -6 8 -16 15 -11 7 -20 8 -20 3z"></path>
<path class="node" id="node86" d="M710 1579 c0 -5 9 -9 20 -9 11 0 20 2 20 4 0 2 -9 6 -20 9 -11 3 -20
1 -20 -4z"></path>
<path class="node" id="node87" d="M1790 1407 c-30 -18 -77 -47 -105 -65 -40 -26 -44 -31 -21 -26 31 7
120 59 169 98 45 35 23 32 -43 -7z"></path>
<path class="node" id="node88" d="M2407 1423 c-4 -3 -7 -13 -7 -22 1 -13 3 -13 11 2 11 19 8 33 -4 20z"></path>
<path class="node" id="node89" d="M1788 1359 l-33 -31 38 27 c20 15 37 29 37 31 0 10 -12 2 -42 -27z"></path>
<path class="node" id="node90" d="M1920 1370 c-6 -11 -24 -27 -40 -35 -34 -18 -40 -36 -10 -28 16 4 19
2 14 -11 -5 -13 0 -16 25 -16 32 0 42 -14 17 -23 -26 -10 -86 5 -86 21 0 21
-45 -22 -65 -62 -19 -38 -20 -36 18 -37 26 -1 21 -3 -23 -13 -30 -7 -65 -18
-77 -25 -19 -10 -23 -9 -23 2 0 8 7 20 15 27 26 22 16 39 -38 65 -62 29 -68
30 -61 11 4 -10 -5 -18 -28 -25 -23 -6 -26 -9 -12 -10 15 -1 23 -9 26 -26 6
-26 3 -26 -47 11 -43 32 -131 74 -154 74 -24 0 -143 -53 -183 -81 -37 -27 -46
-20 -13 11 14 13 25 27 25 32 0 10 -59 9 -85 -2 -17 -7 -16 -9 10 -10 25 0 27
-2 13 -11 -10 -5 -15 -16 -12 -24 7 -18 -12 -20 -22 -3 -10 15 -34 -19 -34
-49 0 -16 6 -23 20 -23 11 0 20 -4 20 -10 0 -5 -5 -10 -11 -10 -5 0 -23 -15
-40 -32 -33 -37 -39 -64 -11 -53 51 21 67 15 40 -14 -11 -11 -8 -12 12 -7 23
7 24 6 7 -8 -17 -13 -16 -15 13 -21 25 -6 29 -9 19 -21 -15 -18 -2 -18 33 0
27 14 46 6 33 -14 -12 -20 82 -11 106 10 l24 20 -24 20 c-13 11 -29 20 -36 20
-19 0 -75 58 -75 77 0 9 3 14 6 10 4 -3 13 0 21 8 19 20 29 19 53 -5 27 -27
80 -27 80 -1 0 25 10 51 20 51 4 0 5 -12 2 -27 l-5 -28 32 29 c35 33 40 29 14
-12 l-17 -27 22 19 c19 17 22 17 22 3 0 -15 11 -21 32 -18 4 0 4 -7 1 -16 -4
-11 -3 -14 5 -9 7 4 12 2 12 -4 0 -6 8 -10 18 -9 39 4 42 -2 12 -27 -19 -17
-47 -28 -74 -31 -37 -5 -46 -10 -60 -39 -9 -19 -16 -47 -16 -62 -1 -15 -7 -38
-15 -52 -25 -44 -20 -60 23 -60 25 0 33 -3 23 -9 -11 -7 -9 -10 9 -13 23 -3
23 -4 6 -20 -21 -22 -62 -23 -70 -3 -7 20 -36 19 -36 -1 0 -11 -5 -14 -16 -10
-10 4 -25 -1 -35 -10 -17 -16 -19 -16 -25 1 -4 10 -1 21 7 26 8 5 9 9 3 9 -6
0 -16 11 -22 24 -10 23 -13 24 -42 13 -29 -11 -34 -10 -56 16 -13 15 -24 39
-24 53 0 30 -11 31 -36 3 -14 -16 -16 -23 -6 -26 6 -3 10 -9 7 -14 -3 -4 1
-19 10 -32 15 -24 12 -57 -7 -57 -5 0 -6 5 -3 10 3 6 3 10 -2 10 -4 0 -14 12
-20 27 -10 21 -10 29 0 36 9 7 9 10 0 14 -19 7 -16 24 9 50 12 13 16 23 9 23
-17 0 -44 -28 -46 -49 -3 -24 -17 -55 -29 -63 -7 -5 -3 -8 9 -8 15 0 17 -2 6
-9 -7 -5 -11 -13 -7 -19 3 -6 -3 -13 -14 -17 -11 -4 -18 -10 -15 -15 3 -5 -3
-18 -15 -30 -11 -11 -20 -27 -20 -36 0 -10 -6 -14 -15 -10 -19 7 -42 -26 -62
-94 -9 -30 -17 -58 -17 -62 -1 -3 -4 -10 -8 -14 -15 -14 -8 -26 8 -13 24 20
37 -8 17 -38 -9 -13 -13 -26 -9 -30 3 -3 1 -12 -5 -19 -6 -7 -8 -18 -4 -24 12
-19 56 23 83 81 15 30 32 53 37 52 6 -1 17 4 25 11 36 31 43 29 24 -5 -10 -19
-26 -43 -34 -53 -9 -12 -10 -16 -2 -12 19 11 14 -15 -8 -39 -11 -11 -22 -35
-26 -52 -8 -39 9 -49 86 -54 l54 -4 -2 45 c-4 56 7 84 53 135 l36 40 -15 -37
c-8 -20 -12 -39 -8 -42 10 -11 21 -6 25 12 2 9 3 1 1 -18 -15 -142 -15 -145
-3 -126 9 14 13 16 20 5 6 -11 23 -11 93 -1 98 14 118 20 110 33 -3 5 0 9 7 9
8 0 6 7 -5 19 -10 11 -15 24 -12 29 4 6 -3 8 -16 4 -16 -4 -19 -2 -13 8 5 8 2
18 -9 25 -16 12 -16 14 1 31 10 10 18 20 18 24 0 17 46 60 71 66 26 7 27 6 13
-9 -9 -8 -31 -25 -50 -37 -32 -21 -33 -22 -6 -16 33 8 35 -7 5 -28 -15 -11
-18 -16 -8 -16 13 0 13 -2 0 -10 -11 -8 -8 -9 11 -5 34 8 47 -18 19 -38 -19
-13 -18 -14 10 -14 17 0 27 5 23 10 -3 6 -1 7 6 3 18 -12 90 4 109 24 20 20
112 53 112 40 0 -5 -10 -12 -22 -16 -21 -6 -21 -7 -2 -17 10 -7 39 -12 64 -13
25 -1 54 -4 65 -6 12 -2 20 3 20 11 0 8 -8 15 -18 17 -27 4 -32 11 -17 29 7 8
8 15 2 15 -5 0 -15 -7 -22 -15 -18 -22 -32 -18 -18 4 6 11 29 29 49 41 21 11
41 29 44 40 4 11 10 20 14 20 9 0 35 56 56 120 15 46 15 44 0 -52 -4 -30 -3
-28 19 15 13 27 26 43 29 35 4 -13 27 54 27 82 0 17 -63 45 -79 36 -5 -3 -11
5 -13 19 -4 17 -1 25 9 25 8 0 11 -4 8 -10 -24 -38 82 26 111 68 11 16 8 20
-18 31 l-30 14 33 15 c19 8 43 16 55 17 11 1 26 5 32 9 8 5 10 1 6 -11 -5 -16
-4 -16 10 2 9 11 14 26 11 33 -3 8 -5 19 -5 27 0 9 -11 10 -45 4 -45 -8 -75
-4 -75 12 0 4 17 11 38 15 44 8 92 31 92 44 0 5 -7 16 -16 24 -15 16 -39 20
-101 16 -64 -3 -102 30 -50 44 32 8 39 7 32 -4 -6 -10 48 -5 67 6 19 12 6 50
-24 76 l-33 27 28 10 c58 22 18 111 -51 111 -21 0 -35 -6 -42 -20z m45 -100
c3 -5 1 -10 -4 -10 -6 0 -11 5 -11 10 0 6 2 10 4 10 3 0 8 -4 11 -10z m-561
-26 c25 -10 19 -22 -11 -21 -16 0 -44 -1 -63 -2 -28 -2 -31 -4 -15 -10 17 -7
16 -9 -9 -15 -16 -4 -31 -5 -33 -2 -10 10 23 33 62 43 52 14 51 14 69 7z
m-101 -71 c-7 -2 -19 -2 -25 0 -7 3 -2 5 12 5 14 0 19 -2 13 -5z m621 -79 c3
-9 6 -28 6 -42 l-1 -27 -14 25 c-16 28 -19 60 -6 60 5 0 12 -7 15 -16z m-198
-57 c3 -3 -4 -8 -15 -12 -12 -3 -19 -11 -16 -16 4 -5 -1 -9 -10 -9 -9 0 -13 5
-10 10 3 6 -3 10 -14 10 -12 0 -21 6 -21 13 0 9 13 13 40 11 23 -1 43 -4 46
-7z m169 -76 c-12 -38 -59 -51 -160 -42 -8 0 -15 6 -15 11 0 6 28 10 63 10 53
0 68 4 88 23 28 27 33 26 24 -2z m-235 -16 c-8 -21 -6 -25 8 -26 14 0 14 -2
-3 -9 -17 -7 -13 -11 33 -33 32 -15 48 -27 40 -31 -11 -5 -11 -7 1 -12 11 -5
11 -8 0 -16 -10 -6 1 -8 30 -4 25 2 41 2 35 -2 -5 -4 -10 -15 -12 -25 -2 -14
2 -16 21 -12 14 4 28 2 31 -4 4 -6 2 -11 -3 -11 -6 0 -11 -3 -11 -7 0 -5 24
-6 52 -5 77 5 48 -13 -42 -27 -41 -6 -88 -14 -105 -16 -25 -5 -27 -4 -10 5 32
17 -36 4 -82 -15 -30 -13 -35 -18 -23 -25 13 -9 13 -10 0 -10 -9 0 -32 -11
-52 -25 -48 -32 -62 -32 -23 1 l30 26 -31 -16 c-17 -8 -52 -31 -78 -51 -29
-22 -46 -30 -46 -21 0 7 11 21 25 30 13 9 31 30 40 46 8 16 28 37 43 45 22 13
23 15 5 10 -17 -5 -23 -2 -23 9 0 10 -9 16 -25 16 -31 0 -33 16 -2 24 33 9 84
7 69 -2 -7 -5 6 -7 30 -6 58 2 58 2 58 21 0 15 -1 15 -18 0 -28 -26 -38 -20
-13 7 14 15 19 26 12 31 -8 4 -8 12 -1 25 16 30 12 33 -21 10 -16 -12 -33 -20
-35 -17 -9 8 16 48 26 42 4 -3 6 3 3 13 -3 11 8 33 28 55 38 43 52 47 39 12z
m160 -55 c0 -5 -9 -10 -20 -10 -11 0 -20 5 -20 10 0 6 9 10 20 10 11 0 20 -4
20 -10z m-360 -35 c-15 -18 -7 -19 23 -4 l22 12 -20 -23 c-18 -22 -19 -23 -2
-17 28 10 38 -1 25 -28 -10 -23 -38 -43 -38 -27 0 4 -16 25 -36 46 -33 36 -35
41 -18 47 11 4 27 8 38 8 15 1 16 -2 6 -14z m445 -24 c-7 -12 -64 -25 -72 -17
-7 7 35 24 60 25 10 1 16 -3 12 -8z m-860 -138 c-4 -16 -9 -44 -10 -63 -3 -42
-20 -88 -42 -112 -26 -28 -33 -21 -17 17 7 19 14 45 14 58 0 24 32 105 46 120
14 13 16 7 9 -20z m75 7 c0 -5 -5 -10 -11 -10 -5 0 -7 5 -4 10 3 6 8 10 11 10
2 0 4 -4 4 -10z m181 -60 c35 -19 23 -37 -23 -33 -24 2 -56 3 -72 3 -33 1 -32
3 9 24 35 19 59 20 86 6z m126 -226 c-3 -3 -12 -4 -19 -1 -8 3 -5 6 6 6 11 1
17 -2 13 -5z"></path>
<path class="node" id="node91" d="M1050 1335 c0 -8 5 -15 10 -15 6 0 10 7 10 15 0 8 -4 15 -10 15 -5 0
-10 -7 -10 -15z"></path>
<path class="node" id="node92" d="M1050 1300 c0 -5 9 -10 20 -10 11 0 20 5 20 10 0 6 -9 10 -20 10 -11
0 -20 -4 -20 -10z"></path>
<path class="node" id="node93" d="M956 1264 c-4 -9 -4 -19 -1 -22 2 -3 7 3 11 12 4 9 4 19 1 22 -2 3
-7 -3 -11 -12z"></path>
<path class="node" id="node94" d="M1060 1271 c0 -11 59 -26 67 -18 3 3 2 10 -2 16 -8 13 -65 15 -65 2z"></path>
<path class="node" id="node95" d="M2177 1253 c-4 -3 -7 -11 -7 -17 0 -6 5 -5 12 2 6 6 9 14 7 17 -3 3
-9 2 -12 -2z"></path>
<path class="node" id="node96" d="M1697 1239 c7 -7 15 -10 18 -7 3 3 -2 9 -12 12 -14 6 -15 5 -6 -5z"></path>
<path class="node" id="node97" d="M980 1182 c0 -18 5 -32 10 -32 6 0 8 11 4 28 -10 39 -14 40 -14 4z"></path>
<path class="node" id="node98" d="M2140 1154 c0 -14 3 -14 15 -4 8 7 15 14 15 16 0 2 -7 4 -15 4 -8 0
-15 -7 -15 -16z"></path>
<path class="node" id="node99" d="M2210 1060 c-9 -6 -10 -10 -3 -10 6 0 15 5 18 10 8 12 4 12 -15 0z"></path>
<path class="node" id="node100" d="M2168 1014 c-5 -4 -8 -16 -8 -28 0 -14 3 -17 11 -9 6 6 9 19 7 28 -1
9 -6 13 -10 9z"></path>
<path class="node" id="node101" d="M2122 930 c-14 -23 -15 -30 -3 -30 8 0 24 41 18 47 -2 1 -8 -7 -15
-17z"></path>
<path class="node" id="node102" d="M1310 900 c-8 -5 -10 -10 -5 -10 6 0 17 5 25 10 8 5 11 10 5 10 -5 0
-17 -5 -25 -10z"></path>
<path class="node" id="node103" d="M2084 892 c-6 -21 -8 -22 -24 -7 -16 15 -18 14 -24 -2 -4 -9 -4 -14
0 -10 4 4 13 2 20 -4 11 -9 10 -15 -3 -35 -8 -13 -13 -24 -9 -24 12 0 58 80
53 92 -4 8 -8 5 -13 -10z"></path>
<path class="node" id="node104" d="M1303 869 c-18 -5 -35 -14 -38 -19 -7 -11 55 8 70 21 10 10 11 10
-32 -2z"></path>
<path class="node" id="node105" d="M1302 763 c-6 -2 -10 -8 -7 -13 6 -10 45 -1 45 11 0 10 -17 11 -38 2z"></path>
<path class="node" id="node106" d="M1700 349 c-14 -6 -33 -8 -42 -5 -16 4 -143 -36 -156 -49 -3 -3 47
-5 110 -5 79 0 126 5 149 15 40 17 29 19 -25 4 -69 -19 -70 15 -1 39 21 7 24
10 10 11 -11 0 -31 -5 -45 -10z"></path>
<path class="node" id="node107" d="M1131 264 c0 -11 3 -14 6 -6 3 7 2 16 -1 19 -3 4 -6 -2 -5 -13z"></path>
</g>
</svg>