<!--?xml version="1.0" standalone="no"?-->

<svg version="1.0" xmlns="http://www.w3.org/2000/svg" width="293.000000pt" height="300.000000pt" viewBox="0 0 293.000000 300.000000" preserveAspectRatio="xMidYMid meet">
<g transform="translate(0.000000,300.000000) scale(0.100000,-0.100000)" fill="#866D39" stroke="none">
<path class="node" id="node1" d="M1472 2990 c-51 -22 -64 -45 -75 -134 -8 -72 -8 -90 7 -119 9 -19 16
-47 16 -62 0 -35 -59 -95 -92 -95 -14 0 -28 -3 -32 -7 -4 -4 -13 -8 -19 -8 -7
0 -37 -8 -68 -18 -63 -19 -139 -80 -159 -127 -7 -16 -31 -44 -53 -60 -40 -29
-182 -208 -173 -218 9 -8 26 10 73 76 25 37 60 82 77 100 29 31 56 42 56 22 0
-27 17 -5 28 35 14 53 82 132 121 142 14 3 31 10 38 15 7 5 17 7 22 4 5 -4 13
-1 16 5 4 6 24 8 49 5 27 -4 33 -3 16 3 -23 7 -23 8 14 15 21 4 50 18 65 32
33 31 41 30 41 -3 1 -25 2 -26 11 -10 6 10 8 25 5 33 -3 8 -1 14 4 14 21 0 50
-42 56 -80 4 -22 11 -40 15 -40 5 0 6 18 3 40 -7 40 -6 40 26 40 29 0 32 -2
27 -25 -3 -16 0 -24 7 -22 6 2 12 13 14 24 2 12 12 29 23 39 17 15 19 15 19 1
0 -9 5 -19 10 -22 6 -4 9 -1 8 6 -4 18 21 23 28 5 6 -16 -47 -111 -107 -191
-16 -22 -40 -56 -53 -75 -13 -19 -38 -48 -54 -64 -28 -26 -38 -29 -95 -29 -75
0 -114 17 -142 60 -25 40 -37 38 -40 -8 -2 -46 -30 -86 -75 -109 -30 -15 -50
-18 -113 -13 -55 4 -77 3 -77 -6 0 -6 17 -11 40 -11 81 0 135 -42 198 -151 30
-52 72 -102 72 -84 0 4 -10 22 -23 39 -13 17 -36 54 -51 81 -16 28 -38 60 -50
73 -21 23 -21 24 -2 38 11 8 25 14 32 14 27 0 117 -221 100 -249 -3 -5 1 -23
10 -40 15 -30 15 -36 -1 -78 -10 -25 -26 -54 -37 -65 -17 -17 -20 -17 -51 -2
-31 16 -32 16 -15 -2 9 -11 29 -21 44 -22 15 -1 29 -4 32 -7 2 -2 -1 -37 -8
-77 -27 -158 -23 -229 21 -363 11 -33 26 -80 33 -105 7 -25 21 -60 30 -78 15
-29 16 -41 5 -106 -10 -58 -10 -101 -1 -197 7 -68 12 -169 12 -223 0 -118 -17
-160 -97 -246 -29 -30 -53 -59 -53 -65 0 -22 18 -36 53 -42 63 -10 106 5 161
56 28 27 60 53 71 59 19 10 20 21 21 154 0 80 5 161 12 184 7 23 19 86 27 140
12 80 13 113 4 172 -10 62 -9 82 6 137 9 35 14 68 11 73 -3 4 1 28 8 52 l13
44 7 -80 c3 -43 9 -99 11 -124 3 -25 -1 -75 -10 -112 -11 -51 -13 -78 -5 -110
5 -24 9 -101 9 -173 0 -120 -5 -167 -24 -251 -5 -25 -3 -35 14 -51 42 -39 155
-82 231 -88 51 -4 64 -1 80 15 11 11 17 25 14 32 -2 7 -35 33 -72 58 -87 60
-97 80 -97 205 1 85 4 108 25 150 21 44 24 65 25 175 2 118 4 130 37 215 59
148 74 329 43 505 -8 47 -15 86 -15 86 0 1 14 4 30 8 17 3 33 14 37 23 21 63
57 123 85 145 18 13 72 43 119 65 110 53 149 91 149 144 0 21 -4 39 -10 39 -5
0 -9 3 -8 8 6 20 -94 165 -159 231 -40 41 -73 79 -73 86 0 19 -55 65 -91 75
-52 15 -80 11 -35 -5 58 -21 89 -46 110 -93 11 -23 26 -42 34 -42 16 0 122
-107 122 -124 0 -6 21 -41 46 -79 26 -37 47 -79 46 -93 0 -37 -44 -78 -144
-135 -87 -49 -118 -70 -145 -99 -25 -28 -83 -110 -83 -119 0 -5 -7 -12 -15
-15 -19 -7 -31 22 -41 92 -6 44 -4 49 19 59 26 12 86 82 106 123 9 18 5 15
-16 -10 -51 -64 -95 -110 -104 -110 -21 0 -6 69 36 166 25 56 45 107 45 113 0
22 21 20 60 -5 22 -15 40 -29 40 -31 0 -2 -11 -24 -25 -49 -13 -24 -20 -44
-15 -44 6 0 10 5 10 10 0 13 80 100 92 100 5 0 7 -4 4 -9 -4 -5 3 -7 13 -4 11
3 22 12 25 20 5 11 2 13 -9 9 -9 -3 -13 -2 -10 3 3 5 1 12 -4 15 -5 4 -12 2
-16 -4 -12 -19 -79 -11 -106 13 -30 25 -50 76 -42 106 8 29 1 27 -45 -19 -45
-45 -72 -52 -73 -17 0 12 -2 33 -4 47 -3 27 -8 180 -6 218 1 17 7 22 27 22 15
0 23 4 19 10 -4 6 -12 10 -18 9 -7 -1 -21 1 -32 5 -11 4 -32 12 -47 18 -15 5
-35 19 -44 29 -17 19 -17 25 -2 107 11 56 14 107 10 143 -6 48 -12 60 -46 89
-33 30 -46 35 -100 37 -33 2 -71 -2 -84 -7z m68 -31 c0 -5 -4 -7 -10 -4 -5 3
-10 1 -10 -6 0 -7 -3 -10 -6 -6 -8 7 4 27 17 27 5 0 9 -5 9 -11z m70 -53 l55
-12 3 -69 c2 -54 0 -71 -13 -77 -8 -5 -15 -14 -15 -20 0 -7 5 -6 15 2 8 7 15
11 16 9 9 -45 7 -51 -31 -89 -40 -40 -90 -54 -105 -30 -3 6 -15 10 -25 10 -29
0 -62 49 -57 84 2 16 -2 41 -9 54 -14 28 -11 109 6 126 8 8 16 5 29 -13 18
-23 41 -22 41 3 0 12 20 36 30 36 3 -1 30 -7 60 -14z m-184 -163 c-7 -7 -26 7
-26 19 0 6 6 6 15 -2 9 -7 13 -15 11 -17z m-61 -523 c36 0 65 -3 65 -7 0 -12
-90 -97 -125 -119 -16 -10 -33 -23 -37 -28 -4 -6 -11 1 -16 15 -6 14 -17 31
-26 38 -18 15 -22 51 -6 51 6 0 10 -8 10 -19 0 -20 27 -48 37 -37 3 3 -2 15
-12 26 -10 11 -13 20 -7 20 6 0 14 -4 17 -10 3 -5 15 -10 26 -10 16 0 12 7
-21 38 -22 22 -40 46 -40 55 0 14 3 15 35 1 19 -7 64 -14 100 -14z m505 -15
c-1 -5 -7 -18 -14 -27 -12 -17 -14 -17 -30 0 -24 28 -20 41 14 39 16 -1 30 -6
30 -12z m-287 -358 c2 -6 4 -23 3 -37 -1 -19 -7 -26 -26 -28 -23 -3 -24 -3 -6
10 28 22 17 52 -22 56 -27 3 -32 0 -32 -19 0 -12 8 -28 18 -36 16 -13 16 -14
-3 -11 -15 2 -21 12 -23 41 l-3 37 44 0 c27 0 47 -5 50 -13z m261 -279 c-3 -5
0 -16 7 -24 14 -17 7 -257 -9 -277 -5 -6 -15 -34 -21 -62 -7 -27 -18 -61 -26
-75 l-14 -25 -1 28 c0 30 -17 37 -22 10 -2 -14 -9 -9 -26 20 -37 58 -46 43
-12 -19 27 -51 42 -133 23 -121 -5 3 -8 -21 -8 -53 0 -33 4 -58 10 -57 18 3 9
-129 -12 -170 -19 -40 -43 -50 -88 -39 -32 8 -48 62 -49 166 -1 72 1 85 15 82
13 -2 15 10 13 78 -2 44 -7 80 -11 80 -15 -1 -23 65 -29 223 l-5 157 75 75
c41 41 79 75 84 75 16 0 32 -85 33 -182 l2 -93 10 88 c6 56 6 110 0 147 -9 54
-8 59 11 68 19 8 23 4 38 -41 10 -27 15 -54 12 -59z m-481 54 l37 -25 1 -121
c1 -88 3 -111 9 -86 11 45 13 138 4 169 -6 21 -5 22 14 12 22 -12 71 -71 92
-110 17 -33 27 -201 11 -201 -6 0 -11 -15 -11 -34 0 -19 -4 -38 -10 -41 -5 -3
-10 -14 -10 -24 0 -10 -9 -28 -20 -41 -11 -13 -18 -25 -15 -28 10 -11 37 10
50 40 19 45 19 10 -1 -49 -16 -45 -15 -55 2 -165 3 -20 -1 -74 -10 -120 -14
-68 -22 -88 -47 -110 -29 -28 -91 -39 -103 -20 -11 18 -28 150 -27 213 0 36 7
84 16 108 13 36 13 45 1 64 -8 12 -36 85 -62 162 l-48 140 1 130 c1 72 6 142
12 157 10 26 12 27 43 16 18 -6 50 -22 71 -36z"></path>
<path class="node" id="node2" d="M1611 2836 c-13 -16 -11 -37 4 -48 17 -13 25 -9 37 18 10 21 9 27 -3
35 -19 12 -25 11 -38 -5z"></path>
<path class="node" id="node3" d="M1485 2830 c-11 -5 -14 -9 -6 -9 7 -1 11 -7 8 -14 -3 -8 5 -14 23
-15 18 -1 30 4 34 14 4 9 5 18 4 19 -11 9 -46 12 -63 5z"></path>
<path class="node" id="node4" d="M1596 2732 c-4 -7 -20 -10 -37 -7 -19 3 -29 1 -29 -7 0 -6 -7 -20
-17 -30 -13 -14 -13 -18 -2 -19 23 -2 33 -5 53 -14 13 -6 21 -5 24 3 2 7 15
12 28 12 25 0 32 14 13 25 -6 4 -14 16 -18 28 -5 14 -10 17 -15 9z"></path>
<path class="node" id="node5" d="M1641 1100 c0 -19 3 -42 9 -50 16 -26 19 -5 5 40 l-14 45 0 -35z"></path>
<path class="node" id="node6" d="M1670 990 c-9 -16 -8 -20 5 -20 8 0 15 9 15 20 0 11 -2 20 -5 20 -2
0 -9 -9 -15 -20z"></path>
<path class="node" id="node7" d="M1650 910 c0 -6 7 -10 15 -10 8 0 15 2 15 4 0 2 -7 6 -15 10 -8 3
-15 1 -15 -4z"></path>
<path class="node" id="node8" d="M1361 1242 c-14 -25 -16 -55 -2 -33 9 14 12 10 25 -51 4 -16 11 -28
17 -28 6 0 8 7 5 16 -3 9 -6 30 -6 48 0 18 -6 41 -14 51 -13 18 -14 18 -25 -3z"></path>
<path class="node" id="node9" d="M1390 1007 c0 -15 4 -27 8 -27 10 0 9 36 -1 46 -4 4 -7 -5 -7 -19z"></path>
<path class="node" id="node10" d="M1460 1001 c0 -11 -9 -26 -20 -34 -11 -8 -17 -17 -13 -20 10 -11 53
34 53 55 0 10 -4 18 -10 18 -5 0 -10 -9 -10 -19z"></path>
<path class="node" id="node11" d="M1477 863 c-7 -43 4 -69 14 -33 10 36 10 70 0 70 -4 0 -11 -16 -14
-37z"></path>
<path class="node" id="node12" d="M1390 2522 c0 -5 27 -16 60 -25 69 -20 70 -20 70 -8 0 12 -74 41
-105 41 -14 0 -25 -4 -25 -8z"></path>
<path class="node" id="node13" d="M1585 2508 c-16 -11 -22 -17 -12 -14 10 3 24 6 31 6 7 0 21 7 32 15
19 14 19 14 -1 14 -11 0 -33 -10 -50 -21z"></path>
<path class="node" id="node14" d="M1448 2454 c13 -9 30 -13 40 -9 15 6 15 8 -3 15 -11 5 -29 9 -40 9
-18 1 -18 0 3 -15z"></path>
<path class="node" id="node15" d="M1530 2452 c0 -19 12 -42 22 -42 14 0 5 43 -9 48 -7 2 -13 -1 -13 -6z"></path>
<path class="node" id="node16" d="M1880 2449 c0 -6 7 -17 15 -25 16 -16 19 -7 9 20 -7 18 -24 22 -24 5z"></path>
<path class="node" id="node17" d="M1206 2414 c-3 -9 -6 -23 -6 -31 0 -13 3 -13 15 -3 16 13 21 50 6 50
-5 0 -12 -7 -15 -16z"></path>
<path class="node" id="node18" d="M1141 2346 c-13 -7 -19 -16 -14 -19 5 -3 22 3 39 14 32 21 12 26 -25
5z"></path>
<path class="node" id="node19" d="M2090 2313 c0 -5 11 -20 25 -33 23 -22 34 -18 17 5 -13 19 -42 38
-42 28z"></path>
<path class="node" id="node20" d="M976 2255 c-11 -16 -12 -23 -3 -20 16 7 40 45 28 45 -5 0 -16 -11
-25 -25z"></path>
<path class="node" id="node21" d="M1096 2241 c-36 -37 -37 -38 -12 -34 35 7 87 73 58 73 -4 0 -25 -17
-46 -39z"></path>
<path class="node" id="node22" d="M1934 2267 c3 -10 6 -20 6 -23 0 -12 84 -44 102 -38 17 5 11 9 -31
24 -28 9 -59 26 -67 36 -15 18 -15 18 -10 1z"></path>
<path class="node" id="node23" d="M1325 2260 c-3 -5 1 -10 10 -10 9 0 13 5 10 10 -3 6 -8 10 -10 10 -2
0 -7 -4 -10 -10z"></path>
<path class="node" id="node24" d="M2154 2118 c-11 -13 -49 -48 -86 -78 -74 -59 -85 -79 -16 -32 52 36
134 119 126 127 -3 3 -14 -4 -24 -17z"></path>
<path class="node" id="node25" d="M802 2118 c-21 -21 -13 -47 18 -63 16 -8 46 -35 66 -60 36 -42 94
-75 132 -75 9 0 -5 11 -33 24 -52 25 -151 128 -140 145 3 5 1 12 -5 16 -5 3
-10 -3 -10 -15 0 -13 -4 -19 -11 -14 -6 3 -9 17 -6 30 5 28 5 28 -11 12z"></path>
<path class="node" id="node26" d="M2202 2093 c-18 -32 -16 -51 4 -31 9 8 14 24 12 34 -4 18 -5 17 -16
-3z"></path>
<path class="node" id="node27" d="M1085 2051 c28 -26 51 -47 53 -46 8 7 -30 64 -52 79 -50 32 -50 15
-1 -33z"></path>
<path class="node" id="node28" d="M2020 2075 c-7 -9 -11 -18 -8 -20 3 -3 11 1 18 10 7 9 11 18 8 20 -3
3 -11 -1 -18 -10z"></path>
<path class="node" id="node29" d="M880 2072 c0 -4 16 -23 35 -42 42 -41 46 -32 8 16 -27 33 -43 43 -43
26z"></path>
<path class="node" id="node30" d="M2108 2010 c-45 -24 -62 -46 -27 -35 32 10 69 35 69 46 0 11 2 12
-42 -11z"></path>
<path class="node" id="node31" d="M1040 1971 c0 -18 106 -88 116 -78 3 3 -22 23 -56 46 -33 23 -60 37
-60 32z"></path>
<path class="node" id="node32" d="M1040 1913 c0 -4 27 -21 60 -37 33 -16 60 -36 60 -43 0 -8 5 -11 10
-8 23 14 6 34 -52 61 -35 15 -66 30 -70 32 -5 2 -8 0 -8 -5z"></path>
<path class="node" id="node33" d="M1916 1891 c-11 -12 -16 -24 -12 -28 9 -9 39 22 34 37 -2 7 -10 4
-22 -9z"></path>
<path class="node" id="node34" d="M1210 1850 c6 -11 15 -20 19 -20 5 0 7 9 4 20 -3 11 -12 20 -20 20
-11 0 -11 -4 -3 -20z"></path>
<path class="node" id="node35" d="M1146 1794 c-9 -24 -7 -46 3 -39 5 3 12 1 16 -5 3 -5 12 -10 19 -10
10 0 11 7 2 35 -11 37 -30 46 -40 19z"></path>
<path class="node" id="node36" d="M1070 536 c-32 -21 -51 -46 -63 -86 -2 -8 -28 -23 -56 -34 -46 -16
-54 -17 -74 -3 -59 39 -117 29 -173 -28 -30 -31 -34 -42 -34 -88 0 -64 24
-107 73 -130 87 -41 143 -14 203 97 5 10 27 25 49 34 22 9 43 19 46 24 3 5 19
2 35 -7 57 -29 130 -8 168 50 37 56 11 142 -54 175 -50 25 -76 25 -120 -4z
m136 -73 c19 -43 11 -56 -10 -16 -8 16 -22 35 -30 42 -23 19 -20 34 5 21 11
-7 27 -27 35 -47z m-348 -110 c15 -16 22 -36 22 -61 l-1 -37 -21 30 c-12 17
-37 44 -55 61 -17 18 -29 34 -26 38 12 11 58 -6 81 -31z"></path>











</g>
<g transform="translate(0.000000,300.000000) scale(0.100000,-0.100000)" fill="#FFFFFF" stroke="none">

<path class="node" id="node49" d="M1150 512 c0 -5 7 -15 16 -23 8 -7 22 -26 30 -42 21 -40 29 -27 10
16 -13 33 -56 69 -56 49z"></path>
<path class="node" id="node50" d="M777 384 c-3 -4 9 -20 26 -38 18 -17 43 -44 55 -61 l21 -30 1 37 c0
25 -7 45 -22 61 -23 25 -69 42 -81 31z"></path>
<path class="node" id="node51" d="M1515 2959 c-4 -6 -4 -13 -1 -16 3 -4 6 -1 6 6 0 7 5 9 10 6 6 -3 10
-1 10 4 0 14 -17 14 -25 0z"></path>
<path class="node" id="node52" d="M1532 2908 c-7 -7 -12 -18 -12 -24 0 -25 -23 -26 -41 -3 -13 18 -21
21 -29 13 -17 -17 -20 -98 -6 -126 7 -13 11 -38 9 -54 -5 -35 28 -84 57 -84
10 0 22 -4 25 -10 15 -24 65 -10 105 30 38 38 40 44 31 89 -1 2 -8 -2 -16 -9
-10 -8 -15 -9 -15 -2 0 6 7 15 15 20 13 6 15 23 13 77 l-3 69 -55 12 c-69 16
-64 16 -78 2z m117 -67 c12 -8 13 -14 3 -35 -12 -27 -20 -31 -37 -18 -15 11
-17 32 -4 48 13 16 19 17 38 5z m-101 -16 c1 -1 0 -10 -4 -19 -4 -10 -16 -15
-34 -14 -18 1 -26 7 -23 15 3 7 -1 13 -8 14 -8 0 -5 4 6 9 17 7 52 4 63 -5z
m81 -130 c19 -11 12 -25 -13 -25 -13 0 -26 -5 -28 -12 -3 -8 -11 -9 -24 -3
-20 9 -30 12 -53 14 -11 1 -11 5 2 19 10 10 17 24 17 30 0 8 10 10 29 7 17 -3
33 0 37 7 5 8 10 5 15 -9 4 -12 12 -24 18 -28z"></path>
<path class="node" id="node53" d="M1400 2762 c0 -12 19 -26 26 -19 2 2 -2 10 -11 17 -9 8 -15 8 -15 2z"></path>
<path class="node" id="node54" d="M1230 2233 c0 -9 18 -33 40 -55 33 -31 37 -38 21 -38 -11 0 -23 5
-26 10 -3 6 -11 10 -17 10 -6 0 -3 -9 7 -20 10 -11 15 -23 12 -26 -10 -11 -37
17 -37 37 0 11 -4 19 -10 19 -16 0 -12 -36 6 -51 9 -7 20 -24 26 -38 5 -14 12
-21 16 -15 4 5 21 18 37 28 35 22 125 107 125 119 0 4 -29 7 -65 7 -36 0 -81
7 -100 14 -32 14 -35 13 -35 -1z"></path>
<path class="node" id="node55" d="M1810 2208 c0 -6 7 -20 16 -30 16 -17 18 -17 30 0 21 27 17 37 -16
39 -17 1 -30 -3 -30 -9z"></path>
<path class="node" id="node56" d="M1492 1823 c2 -29 8 -39 23 -41 19 -3 19 -2 3 11 -10 8 -18 24 -18
36 0 19 5 22 32 19 39 -4 50 -34 22 -56 -18 -13 -17 -13 6 -10 19 2 25 9 26
28 2 42 -6 50 -53 50 l-44 0 3 -37z"></path>
<path class="node" id="node57" d="M1794 1668 c-19 -9 -20 -14 -11 -68 6 -37 6 -91 0 -147 l-10 -88 -2
93 c-1 97 -17 182 -33 182 -5 0 -43 -34 -84 -75 l-75 -75 5 -157 c6 -158 14
-224 29 -223 4 0 9 -36 11 -80 2 -68 0 -80 -13 -78 -14 3 -16 -10 -15 -82 1
-104 17 -158 49 -166 45 -11 69 -1 88 39 21 41 30 173 12 170 -6 -1 -10 24
-10 57 0 32 3 56 8 53 19 -12 4 70 -23 121 -34 62 -25 77 12 19 17 -29 24 -34
26 -20 5 27 22 20 22 -10 l1 -28 14 25 c8 14 19 48 26 75 6 28 16 56 21 62 16
20 23 260 9 277 -7 8 -10 19 -7 24 3 5 -2 32 -12 59 -15 45 -19 49 -38 41z
m-130 -627 c-10 -10 -24 25 -23 59 l0 35 14 -45 c8 -24 12 -47 9 -49z m26 -51
c0 -11 -7 -20 -15 -20 -13 0 -14 4 -5 20 6 11 13 20 15 20 3 0 5 -9 5 -20z
m-10 -86 c0 -2 -7 -4 -15 -4 -8 0 -15 4 -15 10 0 5 7 7 15 4 8 -4 15 -8 15
-10z"></path>
<path class="node" id="node58" d="M1249 1642 c-6 -15 -11 -85 -12 -157 l-1 -130 48 -140 c26 -77 54
-150 62 -162 12 -19 12 -28 -1 -64 -9 -24 -16 -72 -16 -108 -1 -63 16 -195 27
-213 12 -19 74 -8 103 20 25 22 33 42 47 110 9 46 13 100 10 120 -17 110 -18
120 -2 165 20 59 20 94 1 49 -13 -30 -40 -51 -50 -40 -3 3 4 15 15 28 11 13
20 31 20 41 0 10 5 21 10 24 6 3 10 22 10 41 0 19 5 34 11 34 16 0 6 168 -11
201 -21 39 -70 98 -92 110 -19 10 -20 9 -14 -12 9 -31 7 -124 -4 -169 -6 -25
-8 -2 -9 86 l-1 121 -37 25 c-21 14 -53 30 -71 36 -31 11 -33 10 -43 -16z
m151 -448 c0 -18 3 -39 6 -48 3 -9 1 -16 -5 -16 -6 0 -13 12 -17 28 -13 61
-16 65 -25 51 -14 -22 -12 8 2 33 11 21 12 21 25 3 8 -10 14 -33 14 -51z m5
-194 c1 -11 -2 -20 -7 -20 -4 0 -8 12 -8 27 0 30 13 24 15 -7z m75 2 c0 -21
-43 -66 -53 -55 -4 3 2 12 13 20 11 8 20 23 20 34 0 10 5 19 10 19 6 0 10 -8
10 -18z m19 -124 c-2 -38 -14 -74 -22 -62 -8 14 3 84 14 84 5 0 9 -10 8 -22z"></path>
</g>
</svg>