<!--?xml version="1.0" standalone="no"?-->

<svg version="1.0" xmlns="http://www.w3.org/2000/svg" width="300.000000pt" height="300.000000pt" viewBox="0 0 300.000000 300.000000" preserveAspectRatio="xMidYMid meet">
<g transform="translate(0.000000,300.000000) scale(0.100000,-0.100000)" fill="#3AB45B" stroke="none">
<path class="node" id="node1" d="M1413 2976 c-75 -63 -161 -80 -249 -50 -75 25 -175 -3 -197 -55 -31
-72 -103 -112 -211 -117 -66 -3 -85 -8 -113 -30 -36 -27 -57 -61 -67 -111 -9
-41 -76 -117 -118 -133 -90 -33 -113 -47 -140 -84 -24 -34 -28 -48 -28 -106 0
-92 -33 -158 -102 -202 -31 -20 -55 -45 -65 -68 -23 -52 -26 -165 -7 -225 16
-49 16 -53 -4 -95 -12 -25 -32 -58 -44 -73 -20 -25 -23 -39 -23 -125 0 -97 0
-97 43 -166 45 -75 50 -96 28 -138 -19 -36 -19 -158 -1 -200 18 -42 31 -56 78
-91 63 -47 90 -100 95 -187 7 -117 48 -169 154 -194 41 -9 114 -84 128 -131
34 -114 74 -146 191 -152 52 -2 89 -9 107 -20 42 -26 82 -65 98 -95 8 -15 32
-37 54 -48 41 -21 119 -27 136 -10 14 14 96 24 138 16 19 -4 59 -23 88 -43 39
-27 67 -37 105 -41 52 -4 113 11 113 29 0 5 24 20 53 34 62 29 136 33 181 10
61 -32 171 -3 200 53 37 71 104 108 208 114 113 7 154 40 189 152 17 56 87
121 152 140 62 19 76 29 104 76 14 24 22 58 25 110 6 91 34 143 107 195 34 25
53 47 64 77 20 53 20 148 1 208 -19 55 -12 81 34 145 37 50 37 51 37 151 0 99
0 101 -37 155 -47 68 -53 97 -34 143 11 26 15 61 12 114 -5 108 -18 135 -93
186 -24 16 -43 35 -43 42 0 8 -4 14 -9 14 -18 0 -41 82 -41 144 0 53 -4 69
-28 102 -27 37 -50 51 -140 84 -45 17 -105 88 -119 142 -24 89 -73 125 -179
132 -99 6 -158 36 -196 96 -49 78 -132 108 -211 75 -73 -31 -161 -15 -236 42
-27 21 -49 28 -96 31 -54 4 -64 1 -92 -22z m175 -757 c43 -23 89 -50 104 -60
14 -11 28 -19 31 -19 3 0 44 -22 92 -50 48 -27 89 -50 91 -50 2 0 37 -19 77
-43 39 -24 113 -66 162 -94 50 -28 136 -77 193 -109 115 -66 203 -115 340
-189 93 -51 109 -68 70 -81 -12 -3 -64 -32 -117 -64 -53 -31 -148 -85 -211
-120 -63 -34 -119 -65 -125 -70 -5 -4 -37 -22 -70 -40 -54 -30 -266 -150 -530
-299 -150 -85 -181 -101 -198 -101 -9 0 -38 13 -64 28 -26 16 -55 31 -63 35
-8 5 -24 13 -35 20 -11 7 -51 30 -90 51 -38 21 -92 52 -120 69 -63 38 -91 53
-190 107 -44 24 -100 55 -125 70 -41 25 -235 135 -335 190 -141 78 -236 133
-240 140 -6 10 7 20 90 65 71 39 317 177 435 245 36 21 90 51 120 67 30 17 90
51 133 77 43 25 79 46 82 46 2 0 84 45 181 101 170 97 209 117 227 118 5 1 43
-18 85 -40z"></path>
<path class="node" id="node2" d="M1407 1940 c-61 -16 -136 -59 -188 -107 -27 -25 -49 -49 -49 -53 0
-5 28 -11 63 -15 241 -27 494 -158 609 -315 l31 -42 13 23 c8 14 13 58 14 109
0 90 -18 156 -60 225 -34 55 -126 131 -188 155 -64 25 -186 35 -245 20z"></path>
<path class="node" id="node3" d="M1136 1722 c-46 -74 -48 -251 -4 -344 31 -67 102 -147 162 -182 50
-29 148 -56 206 -56 48 0 151 25 193 46 39 20 104 81 138 128 l28 38 -28 42
c-114 163 -314 281 -546 321 -101 17 -141 19 -149 7z"></path>
</g>
<g transform="translate(0.000000,300.000000) scale(0.100000,-0.100000)" fill="#F9EE55" stroke="none">


<path class="node" id="node6" d="M1474 2250 c-11 -4 -100 -54 -198 -109 -97 -56 -179 -101 -181 -101
-3 0 -39 -21 -82 -46 -43 -26 -103 -60 -133 -77 -30 -16 -84 -46 -120 -67
-118 -68 -364 -206 -435 -245 -83 -45 -96 -55 -90 -65 4 -7 99 -62 240 -140
100 -55 294 -165 335 -190 25 -15 81 -46 125 -70 99 -54 127 -69 190 -107 28
-17 82 -48 120 -69 39 -21 79 -44 90 -51 11 -7 27 -15 35 -20 8 -4 37 -19 63
-35 26 -15 55 -28 64 -28 17 0 48 16 198 101 264 149 476 269 530 299 33 18
65 36 70 40 6 5 62 36 125 70 63 35 158 89 211 120 53 32 105 61 117 64 39 13
23 30 -70 81 -137 74 -225 123 -340 189 -57 32 -143 81 -193 109 -49 28 -123
70 -162 94 -40 24 -75 43 -77 43 -2 0 -43 23 -91 50 -48 28 -89 50 -92 50 -3
0 -17 8 -31 19 -38 26 -179 101 -189 100 -4 0 -17 -4 -29 -9z m178 -330 c62
-24 154 -100 188 -155 42 -69 60 -135 60 -225 -1 -51 -6 -95 -14 -109 l-13
-23 -31 42 c-115 157 -368 288 -609 315 -35 4 -63 10 -63 15 0 4 22 28 49 53
52 48 127 91 188 107 59 15 181 5 245 -20z m-367 -205 c232 -40 432 -158 546
-321 l28 -42 -28 -38 c-34 -47 -99 -108 -138 -128 -42 -21 -145 -46 -193 -46
-58 0 -156 27 -206 56 -60 35 -131 115 -162 182 -44 93 -42 270 4 344 8 12 48
10 149 -7z"></path>
</g>
</svg>