<!--?xml version="1.0" standalone="no"?-->

<svg version="1.0" xmlns="http://www.w3.org/2000/svg" width="300.000000pt" height="300.000000pt" viewBox="0 0 300.000000 300.000000" preserveAspectRatio="xMidYMid meet">
<g transform="translate(0.000000,300.000000) scale(0.100000,-0.100000)" fill="#0E0C0E" stroke="none">
<path d="M1401 2636 c-97 -202 -126 -241 -173 -232 -17 3 -47 19 -66 34 -87
68 -82 66 -82 45 1 -10 5 -38 10 -63 6 -25 17 -81 26 -125 9 -44 20 -98 24
-120 54 -259 58 -295 38 -295 -8 0 -69 59 -137 130 -67 72 -127 130 -132 130
-5 0 -9 -26 -9 -59 0 -40 -5 -63 -15 -71 -21 -17 -185 -7 -244 15 -24 9 -52
15 -62 13 -16 -3 -16 -7 -4 -43 47 -145 58 -187 62 -241 5 -61 5 -61 -29 -82
-20 -12 -46 -22 -59 -22 -22 0 -19 -5 27 -48 153 -143 269 -248 313 -283 46
-37 52 -39 120 -39 69 0 71 1 71 25 0 15 7 39 15 55 l15 30 21 -21 c11 -11 24
-17 29 -14 6 4 9 43 9 88 -2 73 1 87 24 124 15 23 52 58 89 82 118 77 140 96
165 145 22 44 25 59 21 128 -3 43 -2 78 2 78 3 0 22 -17 42 -37 59 -62 89
-138 92 -232 1 -19 6 -36 12 -38 17 -6 34 44 34 102 0 30 4 55 8 55 4 0 26
-19 49 -42 57 -60 83 -119 83 -189 0 -60 -9 -89 -47 -151 -28 -46 -29 -65 -3
-73 25 -8 57 9 65 36 4 11 12 18 18 16 25 -8 38 -52 33 -109 l-4 -58 102 0
101 0 198 181 c108 99 197 184 197 189 0 4 -14 10 -32 14 -45 9 -68 33 -68 72
0 34 17 127 27 154 4 8 16 48 28 88 l22 73 -31 -7 c-17 -3 -49 -13 -71 -20
-62 -22 -191 -30 -211 -13 -25 21 -33 51 -24 97 4 23 4 44 1 47 -4 2 -61 -55
-127 -127 -65 -71 -127 -134 -137 -139 -26 -14 -32 12 -19 84 15 82 39 201 52
257 6 25 17 81 26 125 8 44 18 92 21 108 7 37 -5 34 -65 -14 -28 -22 -66 -43
-85 -46 -32 -5 -36 -2 -69 48 -51 77 -111 187 -131 239 -27 68 -51 113 -62
117 -5 1 -48 -76 -94 -171z m289 -499 c0 -20 -13 -54 -35 -87 -19 -30 -35 -65
-35 -78 0 -34 -23 -22 -34 17 -6 22 -6 43 1 60 13 36 86 130 96 124 4 -2 7
-19 7 -36z" id="node1" class="node"></path>
<path d="M1510 1868 c0 -80 -54 -154 -157 -216 -37 -22 -86 -59 -108 -82 l-40
-41 3 -91 c3 -104 -8 -122 -65 -113 -30 5 -33 3 -33 -18 0 -13 7 -32 15 -43
31 -41 23 -44 -136 -44 l-150 0 3 -27 3 -28 100 -6 c97 -5 112 -8 165 -32 35
-15 80 -58 91 -84 l9 -23 290 0 c238 0 290 2 290 14 0 28 46 70 104 96 46 21
85 30 159 35 l98 7 -3 27 -3 26 -178 3 c-136 2 -178 5 -174 15 37 96 41 115
28 131 -12 15 -16 15 -31 1 -36 -33 -110 -6 -110 41 0 14 13 44 28 67 40 59
56 126 41 180 -14 51 -46 117 -58 117 -5 0 -11 -18 -14 -39 -6 -50 -29 -81
-92 -122 -76 -50 -115 -90 -115 -117 0 -36 -24 -21 -30 18 -4 29 -7 31 -18 17
-17 -20 -42 -101 -42 -134 0 -13 14 -52 30 -85 46 -93 34 -116 -14 -26 -59
111 -52 195 24 281 33 38 52 41 43 7 -7 -26 5 -25 31 3 12 12 32 29 46 38 22
15 24 22 24 101 0 62 -5 97 -19 127 -20 45 -35 53 -35 19z" id="node2" class="node"></path>
<path d="M860 953 c-122 -22 -220 -143 -220 -271 0 -128 128 -262 251 -262 38
0 40 1 37 28 -3 23 -8 28 -43 32 -157 21 -235 211 -139 337 30 39 120 83 171
83 55 -1 131 -46 168 -100 26 -39 30 -54 30 -115 0 -63 -4 -75 -33 -117 -18
-26 -38 -51 -45 -55 -8 -4 -17 -17 -20 -27 -4 -10 -10 -16 -13 -13 -13 12 19
79 57 119 38 41 54 98 29 98 -23 0 -110 -94 -126 -136 -24 -64 -16 -195 16
-250 43 -74 138 -124 236 -124 92 0 188 59 229 141 30 59 31 76 5 84 -25 8
-40 -1 -40 -24 0 -26 -78 -111 -117 -127 -51 -22 -141 -18 -188 9 -74 42 -139
187 -83 187 56 0 145 113 154 197 4 27 1 75 -6 107 -10 48 -21 69 -58 108 -26
28 -62 58 -82 68 -37 19 -127 31 -170 23z" id="node3" class="node"></path>
<path d="M1428 951 c-57 -19 -105 -55 -143 -107 -50 -69 -60 -101 -35 -114 31
-16 38 -12 55 34 19 48 49 81 108 114 122 69 297 -42 297 -188 0 -54 -31 -118
-79 -165 -41 -39 -55 -85 -28 -85 27 0 95 59 128 111 31 50 34 60 34 134 0 69
-4 86 -27 125 -53 90 -127 139 -222 145 -33 3 -73 1 -88 -4z" id="node4" class="node"></path>
<path d="M2010 951 c-52 -17 -89 -42 -129 -87 -40 -45 -68 -114 -56 -134 3 -6
-3 -10 -14 -10 -16 0 -21 -6 -21 -28 0 -25 5 -29 45 -40 48 -13 129 -78 140
-113 7 -22 61 -53 69 -41 11 18 -16 82 -53 124 -34 38 -90 75 -141 91 -10 4
-7 6 6 6 15 1 24 10 29 29 12 52 52 99 106 126 94 47 178 29 252 -53 40 -44
52 -87 45 -162 -10 -101 -101 -179 -208 -179 -72 0 -114 23 -166 90 -61 80
-111 90 -80 17 22 -54 83 -114 144 -143 111 -53 258 -13 325 89 52 80 62 128
42 213 -28 125 -119 204 -243 210 -37 2 -78 0 -92 -5z" id="node5" class="node"></path>
<path d="M1194 706 c-10 -26 3 -46 30 -46 14 0 28 -4 31 -10 3 -5 1 -10 -4
-10 -16 0 -13 -36 5 -71 41 -81 142 -149 220 -149 22 0 25 4 22 27 -3 24 -9
29 -46 35 -49 8 -97 44 -129 97 -13 20 -30 42 -40 49 -16 11 -16 12 0 12 26 0
73 -38 104 -84 31 -46 52 -65 71 -66 33 -1 -9 99 -65 151 -48 46 -85 65 -146
74 -38 6 -48 4 -53 -9z" id="node6" class="node"></path>
<path d="M1682 703 c-1 -7 -9 -13 -18 -13 -8 0 -39 -24 -68 -52 -63 -64 -81
-116 -74 -216 13 -178 180 -284 354 -225 98 33 203 174 156 209 -24 19 -27 16
-59 -46 -41 -78 -104 -120 -183 -120 -75 0 -100 10 -149 59 -96 96 -94 201 5
302 39 40 45 51 41 80 -2 19 -5 28 -5 22z" id="node7" class="node"></path>

</g>
<g transform="translate(0.000000,300.000000) scale(0.100000,-0.100000)" fill="#A3A3A3" stroke="none">





</g>
</svg>