<!--?xml version="1.0" standalone="no"?-->

<svg version="1.0" xmlns="http://www.w3.org/2000/svg" width="293.000000pt" height="300.000000pt" viewBox="0 0 293.000000 300.000000" preserveAspectRatio="xMidYMid meet">
<g transform="translate(0.000000,300.000000) scale(0.100000,-0.100000)" fill="#4B4B4B" stroke="none">
<path class="node" id="node1" d="M897 2969 c-26 -17 -60 -47 -77 -67 -41 -50 -97 -168 -105 -224 -8
-55 -25 -64 -25 -14 0 48 -13 52 -44 12 -47 -62 -68 -133 -73 -241 -4 -83 -1
-106 14 -135 19 -37 19 -37 108 -25 40 6 53 4 64 -8 11 -14 8 -23 -20 -62 -35
-49 -43 -95 -27 -170 15 -71 17 -73 42 -42 l22 27 12 -60 c10 -49 19 -64 47
-86 41 -31 71 -29 67 5 l-4 24 30 -22 c23 -16 45 -21 95 -21 58 0 66 -2 72
-21 12 -38 -23 -106 -71 -140 -24 -16 -44 -34 -44 -39 0 -16 57 -40 95 -40
l35 0 -16 -25 -16 -25 38 0 c24 0 45 7 59 20 17 16 38 21 96 24 77 3 120 18
153 55 11 12 24 21 29 21 11 0 3 -288 -8 -327 -5 -14 -20 -24 -49 -32 -36 -9
-59 -7 -139 13 -102 24 -121 22 -131 -18 -7 -30 -22 -33 -148 -26 -93 5 -98 6
-128 37 -31 32 -105 54 -129 39 -6 -4 -17 9 -25 29 -18 43 -38 52 -83 36 -26
-10 -37 -10 -48 -1 -8 6 -19 8 -26 4 -32 -19 -64 -12 -84 19 -39 61 -135 57
-175 -7 -30 -49 -28 -125 5 -160 23 -25 32 -27 79 -24 63 4 140 -27 130 -52
-4 -8 -9 -27 -11 -42 -4 -22 0 -28 29 -41 72 -32 156 -28 184 11 9 12 24 16
54 13 36 -2 45 2 76 34 l35 37 77 -6 c42 -4 92 -10 110 -13 l32 -5 0 -74 0
-74 33 0 c27 0 100 15 185 37 36 9 27 -22 -13 -47 -40 -25 -41 -27 -18 -53 17
-18 17 -20 -10 -39 -20 -15 -26 -25 -21 -43 3 -14 -4 -42 -21 -75 -22 -43 -25
-57 -16 -74 9 -16 8 -33 -3 -70 -14 -46 -14 -53 6 -105 26 -71 25 -98 -7 -198
-19 -63 -29 -81 -40 -76 -9 3 -21 1 -28 -5 -13 -12 -138 -19 -154 -9 -12 8
-53 -3 -53 -13 0 -5 -27 -9 -61 -9 -180 -1 -277 -101 -157 -162 53 -27 174
-34 318 -19 63 7 124 12 135 12 72 -1 279 -24 326 -36 31 -8 77 -16 102 -17
52 -3 61 -7 70 -29 4 -13 6 -12 6 1 1 12 10 17 34 17 56 -1 120 12 144 27 31
21 32 86 3 113 -28 26 -86 42 -151 42 -30 0 -63 6 -74 14 -11 7 -48 16 -82 19
-72 6 -115 31 -106 62 12 44 79 137 135 191 63 60 78 91 78 158 0 23 6 43 15
50 18 13 40 139 29 164 -12 29 -3 76 18 91 17 12 19 21 14 59 l-6 45 44 -5
c24 -3 58 -13 76 -21 17 -9 47 -19 65 -23 31 -6 35 -3 48 27 8 19 17 51 21 72
6 33 10 37 39 38 18 1 89 3 159 5 l127 3 38 -49 c53 -68 66 -71 117 -21 47 46
52 48 77 25 23 -20 76 -12 112 16 32 25 51 81 43 125 -6 30 -12 36 -47 45 -22
6 -53 9 -68 5 -25 -5 -28 -3 -42 42 -12 43 -17 48 -45 51 -18 2 -40 12 -50 23
-19 22 -44 25 -62 7 -6 -6 -29 -12 -49 -12 -29 -1 -40 -6 -47 -22 -8 -18 -16
-21 -47 -17 -81 11 -117 -26 -106 -108 l5 -42 -45 7 c-25 3 -59 6 -75 6 -21 0
-31 6 -35 19 -6 25 -26 29 -78 19 -159 -33 -160 -33 -196 -12 -26 16 -33 26
-31 45 2 13 7 29 12 34 11 14 47 193 59 290 15 116 21 319 12 398 -4 37 -5 67
-2 67 4 0 47 -7 96 -15 106 -18 185 -19 275 -4 167 26 320 124 320 205 0 51
-63 63 -210 39 -58 -9 -125 -21 -150 -26 -99 -22 -311 -59 -340 -59 -27 0 -30
2 -20 19 5 11 10 38 10 61 0 83 -84 119 -149 64 l-31 -25 -37 36 c-49 48 -77
59 -119 45 -48 -16 -63 -69 -42 -145 18 -66 22 -65 -99 -30 -102 30 -119 43
-128 97 -6 33 -3 44 16 64 20 22 21 25 7 41 -8 10 -18 27 -20 38 -3 11 -9 27
-13 37 -5 12 13 30 72 75 43 33 106 77 140 99 34 21 60 44 59 49 -5 16 -129 9
-164 -9 -47 -24 -49 -20 -11 20 34 36 194 124 225 124 33 0 7 33 -41 53 -36
14 -82 21 -162 25 -109 4 -115 3 -169 -24 -32 -16 -75 -50 -100 -79 -24 -27
-44 -47 -44 -43 0 3 14 36 30 73 17 37 30 69 30 71 0 12 -32 0 -73 -27z m466
-14 c27 -11 21 -20 -31 -43 -50 -23 -200 -141 -216 -170 -5 -10 -17 -22 -25
-29 -9 -6 -13 -15 -9 -18 4 -4 29 6 57 23 52 32 150 66 176 60 8 -2 -26 -30
-77 -65 -51 -34 -110 -80 -131 -102 -20 -22 -54 -45 -75 -52 -20 -6 -67 -29
-104 -51 -62 -35 -97 -71 -173 -172 -17 -22 -30 -27 -81 -32 l-61 -7 -6 33
c-21 101 4 280 43 315 17 15 19 14 25 -17 21 -104 33 -93 69 59 10 40 26 89
36 110 20 43 92 128 120 143 17 9 16 4 -6 -49 -13 -33 -27 -86 -30 -118 l-7
-58 22 19 c11 11 21 24 21 31 0 13 50 85 89 129 14 16 49 39 76 53 46 22 59
24 165 20 63 -3 123 -8 133 -12z m-264 -427 c11 -29 9 -30 -61 -52 -63 -18
-136 -71 -183 -131 -67 -84 -63 -81 -77 -67 -32 31 110 199 205 241 83 38 104
39 116 9z m11 -58 c0 -5 -5 -10 -11 -10 -5 0 -7 5 -4 10 3 6 8 10 11 10 2 0 4
-4 4 -10z m-31 -37 c5 -21 13 -55 16 -75 4 -20 15 -44 25 -53 18 -17 198 -75
231 -75 9 0 27 -15 38 -34 42 -68 122 -108 184 -92 27 6 47 48 47 96 0 26 1
26 108 38 115 13 282 39 457 72 61 11 133 19 160 18 44 -3 50 -6 53 -26 4 -28
-16 -53 -76 -94 -117 -80 -283 -110 -463 -83 -57 8 -117 20 -135 27 -17 6 -40
8 -50 3 -17 -7 -16 -8 8 -17 34 -12 39 -26 43 -123 8 -196 -56 -658 -102 -738
-17 -29 -24 -32 -74 -34 -45 -2 -59 1 -84 22 -29 24 -29 25 -13 53 29 49 43
222 30 369 -9 105 -40 243 -58 262 -2 2 -19 -10 -39 -28 -20 -17 -40 -31 -46
-31 -16 0 -28 45 -23 86 4 32 0 44 -20 68 -14 16 -26 36 -26 45 0 21 -79 98
-146 142 -28 19 -87 52 -132 74 -45 22 -81 45 -82 51 0 17 128 113 152 114 4
0 12 -17 17 -37z m392 -30 c81 -73 128 -170 114 -234 -10 -45 -38 -54 -90 -29
-53 26 -90 72 -116 147 -23 69 -24 111 -2 135 24 27 48 22 94 -19z m216 -34
c13 -25 8 -74 -9 -96 -6 -7 -22 -13 -37 -13 -19 0 -22 3 -12 9 19 12 4 33 -19
26 -23 -7 -49 49 -33 74 28 44 87 44 110 0z m-688 -95 c58 -31 136 -80 173
-110 74 -59 88 -90 68 -150 -16 -48 -7 -53 15 -8 l18 38 13 -26 c11 -20 12
-38 4 -79 -12 -63 -12 -68 -1 -50 8 12 12 12 26 -2 20 -21 32 -21 68 -2 27 14
28 13 38 -13 6 -15 15 -48 21 -74 14 -59 4 -85 -48 -124 -30 -23 -49 -29 -105
-32 -42 -3 -69 0 -69 6 0 5 7 26 16 47 8 20 13 39 11 42 -5 5 -47 -60 -47 -73
0 -16 -50 -64 -67 -64 -15 0 -15 2 -1 18 24 27 60 103 52 110 -4 4 -9 1 -12
-7 -2 -7 -17 -27 -32 -45 -23 -25 -35 -31 -69 -30 -54 2 -61 10 -29 37 56 47
85 122 67 174 l-11 33 -73 0 c-77 0 -87 6 -132 76 -10 16 -12 11 -12 -35 -1
-53 -1 -53 -23 -39 -30 19 -57 98 -58 168 l-1 55 -26 -53 c-18 -38 -28 -49
-34 -40 -13 19 -11 116 3 141 12 25 137 167 146 167 3 0 53 -25 111 -56z
m-672 -853 c-29 -53 -31 -63 -20 -90 6 -17 7 -31 2 -31 -15 0 -29 38 -29 80 0
33 6 48 29 71 46 46 53 34 18 -30z m107 27 c8 -13 2 -26 -28 -58 -30 -33 -37
-48 -34 -71 5 -31 -9 -38 -30 -17 -29 29 1 131 46 158 21 12 33 9 46 -12z
m1980 -35 c5 -12 -6 -29 -35 -57 -55 -54 -32 -58 32 -7 29 23 57 41 64 41 23
0 36 -28 33 -72 -3 -46 -8 -48 -76 -37 -19 3 -26 -4 -44 -44 -23 -52 -17 -75
11 -39 15 21 20 22 44 11 35 -16 34 -26 -8 -73 -40 -45 -53 -43 -92 13 l-28
40 -172 1 c-166 0 -173 1 -173 20 0 19 7 20 155 20 l155 0 0 84 c0 84 13 118
40 101 11 -7 9 -27 -7 -80 -10 -34 20 4 41 53 20 44 48 56 60 25z m-1864 0 c0
-3 -11 -21 -26 -40 -14 -18 -28 -52 -32 -74 l-7 -41 -24 19 c-23 19 -24 22
-12 52 19 44 101 113 101 84z m120 -23 c7 -25 -7 -70 -21 -70 -19 0 -39 13
-39 26 0 8 -4 14 -10 14 -5 0 -10 -15 -10 -32 0 -50 -10 -77 -32 -83 -51 -17
-67 64 -20 110 65 66 121 81 132 35z m-217 -7 c-2 -10 -15 -31 -29 -48 -23
-29 -24 -29 -24 -7 0 13 11 34 25 47 29 30 35 31 28 8z m1711 -39 c-10 -14
-14 -36 -12 -54 5 -32 -6 -41 -16 -14 -10 27 -7 59 10 82 21 30 38 17 18 -14z
m96 2 c0 -6 -10 -16 -22 -21 -16 -7 -23 -19 -23 -39 -1 -36 -20 -45 -35 -17
-14 26 -3 68 22 85 21 15 58 10 58 -8z m-1538 -20 c-17 -20 -33 -52 -37 -75
-4 -23 -11 -41 -16 -41 -33 0 -11 99 28 129 43 34 59 26 25 -13z m101 -4 c28
-25 21 -70 -17 -108 -37 -37 -75 -44 -96 -19 -20 24 -3 84 36 123 34 34 41 34
77 4z m469 -8 c36 -8 74 -11 82 -8 18 7 20 -38 7 -189 -10 -111 -23 -131 -35
-53 -4 22 -9 42 -12 45 -2 3 -48 -1 -101 -7 -53 -7 -98 -10 -100 -8 -3 2 3 19
13 38 18 33 31 88 41 166 4 35 8 42 22 37 9 -4 46 -13 83 -21z m-122 1 c0 -8
-7 -15 -15 -15 -9 0 -12 6 -9 15 4 8 10 15 15 15 5 0 9 -7 9 -15z m-537 -47
c-3 -16 -12 -28 -19 -28 -17 0 -17 10 -4 46 13 34 31 20 23 -18z m794 30 c-1
-7 5 -40 12 -73 23 -102 74 -146 146 -127 37 10 65 60 65 116 0 48 10 42 16
-10 3 -22 12 -74 20 -118 l16 -79 -31 -29 c-17 -16 -29 -34 -25 -39 3 -5 0
-17 -7 -26 -11 -13 -10 -17 5 -29 16 -11 18 -22 13 -64 -3 -28 -9 -56 -13 -62
-11 -18 -392 7 -422 27 -8 6 49 116 58 110 5 -3 10 -2 10 4 0 5 -4 11 -9 13
-23 8 -15 32 12 37 l29 6 -22 28 c-22 28 -21 57 2 57 10 0 10 -2 0 -9 -17 -10
1 -26 40 -36 46 -12 58 22 65 179 3 75 9 136 13 136 4 0 7 -6 7 -12z m831 0
c18 -18 14 -38 -8 -38 -15 0 -20 7 -20 25 0 27 9 32 28 13z m308 -19 c-26 -31
-33 -50 -38 -104 l-3 -29 -17 26 c-21 32 -12 64 31 111 35 39 60 36 27 -4z
m84 -34 c0 -43 -44 -97 -74 -93 -42 6 -28 89 22 128 32 25 52 11 52 -35z
m-1572 28 c68 -5 82 -9 80 -22 -3 -14 -21 -16 -143 -12 -77 2 -143 5 -147 7
-4 3 -5 11 -1 19 6 17 71 19 211 8z m856 -95 c0 -123 -6 -131 -77 -111 -28 9
-56 19 -61 24 -6 5 -27 9 -47 9 -42 0 -42 0 -58 94 -14 78 -15 77 12 65 18 -8
46 -7 108 4 131 24 124 29 123 -85z m546 62 c0 -22 -3 -23 -37 -14 -34 9 -29
34 7 34 23 0 30 -4 30 -20z m-850 -12 c0 -69 -48 -126 -95 -114 -29 7 -65 59
-65 94 0 22 3 23 43 17 23 -4 53 -2 67 4 35 14 50 13 50 -1z m-973 -35 c46
-35 30 -53 -46 -52 -73 1 -105 11 -109 32 -6 31 16 45 70 45 40 0 60 -6 85
-25z m486 10 c4 -3 3 -11 -2 -17 -4 -6 -13 -24 -19 -41 l-10 -30 -1 41 c-1 48
12 68 32 47z m184 -175 c-3 -8 -6 -5 -6 6 -1 11 2 17 5 13 3 -3 4 -12 1 -19z
m-1 -333 c54 -8 143 -15 197 -15 l97 0 0 -25 c0 -42 -25 -89 -61 -117 -19 -14
-59 -58 -89 -97 -50 -66 -57 -71 -92 -71 -21 0 -38 2 -38 4 0 2 13 36 29 76
34 83 55 110 80 103 11 -3 22 0 25 6 5 8 -19 11 -76 11 -57 0 -78 -3 -68 -10
8 -5 23 -10 32 -10 29 0 28 -13 -12 -98 -34 -72 -42 -82 -65 -82 -14 0 -35 4
-45 10 -16 8 -17 15 -9 42 15 52 10 120 -11 167 -17 37 -18 49 -8 82 6 22 12
39 13 39 1 0 46 -7 101 -15z m-32 -346 c3 -3 -2 -30 -12 -60 -14 -45 -21 -55
-42 -57 -21 -2 -28 3 -39 33 -10 29 -10 43 -1 65 11 26 17 29 51 27 21 -1 40
-5 43 -8z m81 -1 c16 -7 24 -17 20 -26 -3 -7 -5 -19 -5 -26 0 -6 -14 -17 -31
-23 -26 -10 -29 -14 -20 -32 15 -28 14 -31 -13 -31 -43 0 -50 22 -25 82 19 44
35 67 46 68 1 0 14 -5 28 -12z m-396 -82 c13 -14 21 -30 19 -36 -5 -15 -58 27
-58 46 0 21 13 17 39 -10z m70 -2 c21 -27 20 -44 -2 -44 -14 0 -48 56 -39 64
10 11 21 6 41 -20z m53 9 c19 -17 25 -53 9 -53 -12 0 -41 40 -41 57 0 17 10
16 32 -4z m64 0 c21 -28 16 -35 -11 -16 -13 10 -25 21 -25 26 0 14 23 7 36
-10z m264 -11 c0 -13 -47 -35 -59 -28 -16 10 -13 24 7 29 30 8 52 7 52 -1z
m-530 -15 c-33 -15 -40 -26 -40 -61 l0 -29 -59 6 c-66 7 -111 24 -111 42 0 33
61 52 170 53 57 1 62 -1 40 -11z m612 -20 c-12 -13 -22 -29 -22 -35 0 -7 -4
-12 -10 -12 -19 0 -10 29 16 49 35 28 43 27 16 -2z m-52 5 c0 -16 -41 -52 -52
-46 -7 5 -1 16 18 31 32 26 34 26 34 15z m101 -22 c-19 -16 -37 -27 -40 -25
-8 9 42 55 58 55 11 -1 4 -11 -18 -30z m-603 8 c21 -21 155 -27 178 -7 9 7 19
7 33 0 11 -6 32 -11 46 -11 19 0 26 -5 23 -16 -3 -14 -26 -17 -175 -18 l-173
-2 0 23 c0 15 8 27 23 33 30 12 31 12 45 -2z m831 -34 c22 -9 41 -22 41 -29 0
-24 -82 -40 -179 -36 -34 1 -34 1 -15 22 18 20 18 21 -1 35 -10 8 -25 14 -32
14 -7 0 -13 5 -13 11 0 17 146 4 199 -17z m-493 5 c4 -7 22 -9 45 -6 21 3 39
1 41 -4 5 -16 138 -31 154 -18 19 16 68 7 72 -13 5 -27 -38 -32 -110 -13 -34
9 -102 19 -150 22 -49 3 -88 7 -88 9 0 1 3 9 6 18 7 19 20 21 30 5z m-468 -56
c48 -3 129 0 181 6 56 7 118 9 155 4 l61 -8 -95 -6 c-268 -19 -421 -8 -445 31
-4 7 6 5 25 -5 19 -10 67 -19 118 -22z m670 -24 c39 -16 240 -23 285 -11 36
10 53 0 21 -12 -34 -13 -246 -6 -308 10 -33 9 -83 20 -111 25 -45 7 -43 8 18
3 37 -2 80 -9 95 -15z"></path>
<path class="node" id="node2" d="M2241 2211 c-9 -6 -10 -11 -2 -15 13 -8 31 1 31 15 0 11 -11 11 -29
0z"></path>


<path class="node" id="node5" d="M1558 1709 c-42 -24 -62 -103 -43 -167 9 -30 11 -51 4 -63 -17 -32 5
-28 31 6 13 18 44 43 67 55 23 12 40 27 37 31 -3 5 -10 7 -15 4 -5 -4 -9 12
-9 34 0 44 -15 92 -33 103 -15 10 -18 10 -39 -3z m36 -41 c14 -61 9 -108 -9
-108 -10 0 -15 10 -15 28 -1 24 -2 25 -11 9 -6 -10 -8 -29 -5 -42 3 -13 2 -26
-3 -29 -11 -7 -21 27 -21 72 0 33 32 92 50 92 6 0 12 -10 14 -22z"></path>
<path class="node" id="node6" d="M1480 2330 c0 -15 5 -20 18 -18 9 2 17 10 17 18 0 8 -8 16 -17 18
-13 2 -18 -3 -18 -18z"></path>
<path class="node" id="node7" d="M1292 2538 c-7 -7 -12 -21 -12 -32 0 -20 1 -20 16 2 8 12 22 22 30
22 8 0 12 5 9 10 -8 14 -28 13 -43 -2z"></path>
<path class="node" id="node8" d="M1561 2506 c11 -9 69 -14 69 -6 0 6 -16 10 -37 10 -20 0 -34 -2 -32
-4z"></path>












</g>
<g transform="translate(0.000000,300.000000) scale(0.100000,-0.100000)" fill="#FFFFFF" stroke="none">

<path class="node" id="node22" d="M945 2938 c-41 -96 -41 -97 11 -41 27 29 71 64 98 78 l49 25 -65 0
-65 0 -28 -62z"></path>
<path class="node" id="node23" d="M1065 2947 c-27 -14 -62 -37 -76 -53 -39 -44 -89 -116 -89 -129 0 -7
-10 -20 -21 -31 l-22 -19 7 58 c3 32 17 85 30 118 22 53 23 58 6 49 -28 -15
-100 -100 -120 -143 -10 -21 -26 -70 -36 -110 -36 -152 -48 -163 -69 -59 -6
31 -8 32 -25 17 -39 -35 -64 -214 -43 -315 l6 -33 61 7 c51 5 64 10 81 32 76
101 111 137 173 172 37 22 84 45 104 51 21 7 55 30 75 52 21 22 80 68 131 102
51 35 85 63 77 65 -26 6 -124 -28 -176 -60 -28 -17 -53 -27 -57 -23 -4 3 0 12
9 18 8 7 20 19 25 29 16 29 166 147 216 170 82 37 61 48 -102 55 -106 4 -119
2 -165 -20z"></path>
<path class="node" id="node24" d="M1040 2543 c-91 -31 -209 -128 -251 -207 -19 -37 -21 -48 -11 -58 14
-14 10 -17 77 67 47 60 120 113 183 131 70 22 72 23 61 52 -8 21 -27 26 -59
15z"></path>
<path class="node" id="node25" d="M1095 2470 c-3 -5 -1 -10 4 -10 6 0 11 5 11 10 0 6 -2 10 -4 10 -3 0
-8 -4 -11 -10z"></path>
<path class="node" id="node26" d="M1035 2458 c-42 -23 -125 -91 -125 -102 1 -6 37 -29 82 -51 45 -22
104 -55 132 -74 67 -44 146 -121 146 -142 0 -9 12 -29 26 -45 20 -24 24 -36
20 -68 -5 -41 7 -86 23 -86 6 0 26 14 46 31 20 18 37 30 39 28 18 -19 49 -157
58 -262 13 -147 -1 -320 -30 -369 -16 -28 -16 -29 13 -53 25 -21 39 -24 84
-22 50 2 57 5 74 34 46 80 110 542 102 738 -4 97 -9 111 -43 123 -24 9 -25 10
-8 17 10 5 33 3 50 -3 18 -7 78 -19 135 -27 180 -27 346 3 463 83 60 41 80 66
76 94 -3 20 -9 23 -53 26 -27 1 -99 -7 -160 -18 -175 -33 -342 -59 -457 -72
-107 -12 -108 -12 -108 -38 0 -48 -20 -90 -47 -96 -62 -16 -142 24 -184 92
-11 19 -29 34 -38 34 -33 0 -213 58 -231 75 -10 9 -21 33 -25 53 -11 63 -25
112 -33 112 -4 0 -16 -6 -27 -12z m1235 -247 c0 -14 -18 -23 -31 -15 -8 4 -7
9 2 15 18 11 29 11 29 0z m-75 -40 c-6 -4 -32 -5 -60 -1 l-50 7 60 2 c34 0 55
-3 50 -8z m-120 -21 c3 -5 -1 -10 -10 -10 -9 0 -13 5 -10 10 3 6 8 10 10 10 2
0 7 -4 10 -10z m-478 -438 c18 -11 33 -59 33 -103 0 -22 4 -38 9 -34 5 3 12 1
15 -4 3 -4 -14 -19 -37 -31 -23 -12 -54 -37 -67 -55 -26 -34 -48 -38 -31 -6 7
12 5 33 -4 63 -19 64 1 143 43 167 21 13 24 13 39 3z"></path>
<path class="node" id="node27" d="M1551 1661 c-21 -29 -26 -75 -15 -118 4 -13 10 -20 15 -17 5 3 6 16
3 29 -3 13 -1 32 5 42 9 16 10 15 11 -9 0 -34 29 -39 31 -5 3 54 -7 107 -21
107 -5 0 -18 -13 -29 -29z"></path>
<path class="node" id="node28" d="M1377 2422 c-22 -24 -21 -66 2 -135 26 -75 63 -121 116 -147 52 -25
80 -16 90 29 14 64 -33 161 -114 234 -46 41 -70 46 -94 19z m138 -92 c0 -8 -8
-16 -17 -18 -13 -2 -18 3 -18 18 0 15 5 20 18 18 9 -2 17 -10 17 -18z"></path>
<path class="node" id="node29" d="M1610 2397 c-37 -19 -45 -40 -30 -76 9 -23 17 -30 30 -26 23 7 38
-14 19 -26 -10 -6 -7 -9 12 -9 31 0 44 14 53 55 12 59 -37 106 -84 82z"></path>
<path class="node" id="node30" d="M818 2258 c-81 -91 -88 -104 -88 -170 0 -81 13 -88 43 -26 l26 53 1
-55 c1 -70 28 -149 58 -168 22 -14 22 -14 23 39 0 46 2 51 12 35 45 -70 55
-76 132 -76 l73 0 11 -33 c18 -52 -11 -127 -67 -174 -32 -27 -25 -35 29 -37
34 -1 46 5 69 30 15 18 30 38 32 45 3 8 8 11 12 7 8 -7 -28 -83 -52 -110 -14
-16 -14 -18 1 -18 17 0 67 48 67 64 0 13 42 78 47 73 2 -3 -3 -22 -11 -42 -9
-21 -16 -42 -16 -47 0 -6 27 -9 69 -6 56 3 75 9 105 32 52 39 62 65 48 124 -6
26 -15 59 -21 74 -10 26 -11 27 -38 13 -36 -19 -48 -19 -68 2 -14 14 -18 14
-26 2 -11 -18 -11 -13 1 50 8 41 7 59 -4 79 l-13 26 -18 -38 c-22 -45 -31 -40
-15 8 20 60 6 91 -68 150 -55 44 -263 166 -284 166 -3 0 -35 -33 -70 -72z"></path>
<path class="node" id="node31" d="M309 1451 c-23 -23 -29 -38 -29 -71 0 -42 14 -80 29 -80 5 0 4 14 -2
31 -11 27 -9 37 20 90 35 64 28 76 -18 30z"></path>
<path class="node" id="node32" d="M388 1460 c-45 -27 -75 -129 -46 -158 21 -21 35 -14 30 17 -3 23 4
38 34 71 30 32 36 45 28 58 -13 21 -25 24 -46 12z"></path>
<path class="node" id="node33" d="M2354 1388 c-21 -49 -51 -87 -41 -53 16 53 18 73 7 80 -27 17 -40
-17 -40 -101 l0 -84 -155 0 c-148 0 -155 -1 -155 -20 0 -19 7 -20 173 -20
l172 -1 28 -40 c39 -56 52 -58 92 -13 42 47 43 57 8 73 -24 11 -29 10 -44 -11
-28 -36 -34 -13 -11 39 18 40 25 47 44 44 68 -11 73 -9 76 37 3 44 -10 72 -33
72 -7 0 -35 -18 -64 -41 -64 -51 -87 -47 -32 7 29 28 40 45 35 57 -12 31 -40
19 -60 -25z"></path>
<path class="node" id="node34" d="M497 1390 c-19 -16 -40 -44 -48 -61 -12 -30 -11 -33 12 -52 l24 -19
7 41 c4 22 18 56 32 74 43 56 28 65 -27 17z"></path>
<path class="node" id="node35" d="M595 1402 c-16 -11 -42 -32 -57 -47 -47 -46 -31 -127 20 -110 22 6
32 33 32 83 0 17 5 32 10 32 6 0 10 -6 10 -14 0 -13 20 -26 39 -26 14 0 28 45
21 70 -7 32 -36 36 -75 12z"></path>
<path class="node" id="node36" d="M425 1375 c-14 -13 -25 -34 -25 -47 0 -22 1 -22 24 7 23 28 40 65 30
65 -3 0 -16 -11 -29 -25z"></path>
<path class="node" id="node37" d="M2146 1358 c-17 -23 -20 -55 -10 -82 10 -27 21 -18 16 14 -2 18 2 40
12 54 20 31 3 44 -18 14z"></path>
<path class="node" id="node38" d="M2202 1354 c-25 -17 -36 -59 -22 -85 15 -28 34 -19 35 17 0 20 7 32
23 39 12 5 22 15 22 21 0 18 -37 23 -58 8z"></path>
<path class="node" id="node39" d="M697 1339 c-39 -30 -61 -129 -28 -129 5 0 12 18 16 41 4 23 20 55 37
75 34 39 18 47 -25 13z"></path>
<path class="node" id="node40" d="M746 1318 c-39 -39 -56 -99 -36 -123 21 -25 59 -18 96 19 50 50 45
97 -14 130 -8 5 -26 -6 -46 -26z"></path>
<path class="node" id="node41" d="M1187 1298 c-10 -78 -23 -133 -41 -166 -10 -19 -16 -36 -13 -38 2 -2
47 1 100 8 53 6 99 10 101 7 3 -3 8 -23 12 -45 12 -78 25 -58 35 53 13 151 11
196 -7 189 -14 -6 -129 14 -165 29 -14 5 -18 -2 -22 -37z"></path>
<path class="node" id="node42" d="M1146 1315 c-3 -9 0 -15 9 -15 8 0 15 7 15 15 0 8 -4 15 -9 15 -5 0
-11 -7 -15 -15z"></path>
<path class="node" id="node43" d="M610 1286 c-13 -36 -13 -46 4 -46 16 0 29 51 16 64 -6 6 -13 -2 -20
-18z"></path>
<path class="node" id="node44" d="M1407 1174 c-7 -157 -19 -191 -65 -179 -39 10 -57 26 -40 36 10 7 10
9 0 9 -23 0 -24 -29 -2 -57 l22 -28 -29 -6 c-27 -5 -35 -29 -12 -37 5 -2 9 -8
9 -13 0 -6 -5 -7 -10 -4 -9 6 -66 -104 -58 -110 30 -20 411 -45 422 -27 4 6
10 34 13 62 5 42 3 53 -13 64 -15 12 -16 16 -5 29 7 9 10 21 7 26 -4 5 8 23
25 39 l31 29 -16 79 c-8 44 -17 96 -20 118 -6 52 -16 58 -16 10 0 -56 -28
-106 -65 -116 -72 -19 -123 25 -146 127 -7 33 -13 66 -12 73 0 6 -3 12 -7 12
-4 0 -10 -61 -13 -136z"></path>
<path class="node" id="node45" d="M2230 1285 c0 -18 5 -25 20 -25 22 0 26 20 8 38 -19 19 -28 14 -28
-13z"></path>
<path class="node" id="node46" d="M2539 1283 c-43 -47 -52 -79 -31 -111 l17 -26 3 29 c5 54 12 73 38
104 33 40 8 43 -27 4z"></path>
<path class="node" id="node47" d="M2598 1280 c-50 -39 -64 -122 -22 -128 30 -4 74 50 74 93 0 46 -20
60 -52 35z"></path>
<path class="node" id="node48" d="M867 1265 c-4 -8 -3 -16 1 -19 4 -2 70 -5 147 -7 122 -4 140 -2 143
12 2 13 -12 17 -80 22 -140 11 -205 9 -211 -8z"></path>
<path class="node" id="node49" d="M1811 1263 c-62 -11 -90 -12 -108 -4 -27 12 -26 13 -12 -65 16 -94
16 -94 58 -94 20 0 41 -4 47 -9 5 -5 33 -15 61 -24 71 -20 77 -12 77 111 1
114 8 109 -123 85z"></path>
<path class="node" id="node50" d="M2420 1246 c0 -7 10 -16 23 -20 34 -9 37 -8 37 14 0 16 -7 20 -30 20
-19 0 -30 -5 -30 -14z"></path>
<path class="node" id="node51" d="M1580 1229 c-14 -6 -44 -8 -67 -4 -40 6 -43 5 -43 -17 0 -35 36 -87
65 -94 36 -9 72 18 84 63 19 66 14 73 -39 52z"></path>
<path class="node" id="node52" d="M509 1204 c-17 -20 -7 -47 21 -55 46 -13 137 -10 149 5 9 10 4 19
-22 39 -25 19 -45 25 -85 25 -31 0 -56 -6 -63 -14z"></path>
<path class="node" id="node53" d="M1117 1203 c-4 -3 -7 -25 -6 -47 l1 -41 10 30 c6 17 15 35 19 41 14
17 -9 33 -24 17z"></path>
<path class="node" id="node54" d="M1321 1034 c0 -11 3 -14 6 -6 3 7 2 16 -1 19 -3 4 -6 -2 -5 -13z"></path>
<path class="node" id="node55" d="M1212 671 c-10 -33 -9 -45 8 -82 21 -47 26 -115 11 -167 -8 -27 -7
-34 9 -42 10 -6 31 -10 45 -10 23 0 31 10 65 82 40 85 41 98 12 98 -9 0 -24 5
-32 10 -10 7 11 10 68 10 57 0 81 -3 76 -11 -3 -6 -14 -9 -25 -6 -25 7 -46
-20 -80 -103 -16 -40 -29 -74 -29 -76 0 -2 17 -4 38 -4 35 0 42 5 92 71 30 39
70 83 89 97 36 28 61 75 61 117 l0 25 -97 0 c-54 0 -143 7 -197 15 -55 8 -100
15 -101 15 -1 0 -7 -17 -13 -39z"></path>
<path class="node" id="node56" d="M1200 330 c-9 -22 -9 -36 1 -65 11 -30 18 -35 39 -33 21 2 28 12 42
57 10 30 15 57 12 60 -3 3 -22 7 -43 8 -34 2 -40 -1 -51 -27z"></path>
<path class="node" id="node57" d="M1334 352 c-5 -4 -20 -31 -33 -60 -25 -60 -18 -82 25 -82 27 0 28 3
13 31 -9 18 -6 22 20 32 17 6 31 17 31 23 0 7 2 19 5 26 4 9 -4 19 -20 26 -30
14 -27 14 -41 4z"></path>
<path class="node" id="node58" d="M940 276 c0 -19 53 -61 58 -46 4 12 -36 60 -50 60 -4 0 -8 -6 -8 -14z"></path>
<path class="node" id="node59" d="M1008 284 c-9 -8 25 -64 39 -64 22 0 23 17 2 44 -20 26 -31 31 -41
20z"></path>
<path class="node" id="node60" d="M1070 277 c0 -17 29 -57 41 -57 16 0 10 36 -9 53 -22 20 -32 21 -32
4z"></path>
<path class="node" id="node61" d="M1130 283 c0 -5 12 -16 25 -26 27 -19 32 -12 11 16 -13 17 -36 24
-36 10z"></path>
<path class="node" id="node62" d="M1378 263 c-20 -5 -23 -19 -7 -29 12 -7 59 15 59 28 0 8 -22 9 -52 1z"></path>
<path class="node" id="node63" d="M758 251 c-40 -8 -68 -27 -68 -46 0 -18 45 -35 111 -42 l59 -6 0 29
c0 35 7 46 40 61 22 10 17 12 -40 11 -36 0 -82 -4 -102 -7z"></path>
<path class="node" id="node64" d="M1496 229 c-26 -20 -35 -49 -16 -49 6 0 10 5 10 12 0 6 10 22 22 35
27 29 19 30 -16 2z"></path>
<path class="node" id="node65" d="M1426 217 c-19 -15 -25 -26 -18 -31 11 -6 52 30 52 46 0 11 -2 11
-34 -15z"></path>
<path class="node" id="node66" d="M1540 215 c-34 -36 -20 -40 21 -5 22 19 29 29 18 30 -8 0 -26 -11
-39 -25z"></path>
<path class="node" id="node67" d="M913 220 c-15 -6 -23 -18 -23 -33 l0 -23 173 2 c149 1 172 4 175 18
3 11 -4 16 -23 16 -14 0 -35 5 -46 11 -14 7 -24 7 -33 0 -23 -20 -157 -14
-178 7 -14 14 -15 14 -45 2z"></path>
<path class="node" id="node68" d="M1590 201 c0 -6 6 -11 13 -11 7 0 22 -6 32 -14 19 -14 19 -15 1 -35
-19 -21 -19 -21 15 -22 97 -4 179 12 179 36 0 21 -76 45 -161 52 -56 4 -79 3
-79 -6z"></path>
<path class="node" id="node69" d="M1266 184 c-3 -9 -6 -17 -6 -18 0 -2 39 -6 88 -9 48 -3 116 -13 150
-22 72 -19 115 -14 110 13 -4 20 -53 29 -72 13 -16 -13 -149 2 -154 18 -2 5
-20 7 -41 4 -23 -3 -41 -1 -45 6 -10 16 -23 14 -30 -5z"></path>
<path class="node" id="node70" d="M685 160 c24 -39 177 -50 445 -31 l95 6 -61 8 c-37 5 -99 3 -155 -4
-115 -14 -256 -6 -299 16 -19 10 -29 12 -25 5z"></path>
<path class="node" id="node71" d="M1385 121 c28 -5 78 -16 111 -25 62 -16 274 -23 308 -10 32 12 15 22
-21 12 -45 -12 -246 -5 -285 11 -15 6 -58 13 -95 15 -61 5 -63 4 -18 -3z"></path>
</g>
</svg>