<!--?xml version="1.0" standalone="no"?--><svg xmlns="http://www.w3.org/2000/svg" width="300.000000pt" height="300.000000pt" viewBox="0 0 300.000000 300.000000" preserveAspectRatio="xMidYMid meet">
<metadata>
  <rdf:rdf xmlns:rdf="http://www.w3.org/1999/02/22-rdf-syntax-ns#" xmlns:rdfs="http://www.w3.org/2000/01/rdf-schema#" xmlns:dc="http://purl.org/dc/elements/1.1/">
    <rdf:description dc:title="football shoe icon" dc:publisher="Hiox" dc:date="2015-05-05" dc:format="image/svg+xml" dc:language="en">
      <dc:creator>
        <rdf:bag>
          <rdf:li>svgimages.com</rdf:li>
        </rdf:bag>
      </dc:creator>
    </rdf:description>
  </rdf:rdf>
</metadata>
<g transform="translate(0.000000,300.000000) scale(0.100000,-0.100000)" fill="#0F0F0F" stroke="none">
<path style="position: relative;" d="M1625 1959 c-62 -10 -162 -46 -197 -70 l-26 -19 -29 36 -29 37 -30
-19 c-16 -10 -31 -19 -33 -20 -2 -2 6 -16 18 -32 25 -36 26 -45 5 -63 -14 -11
-20 -10 -40 14 -27 31 -36 33 -69 11 l-25 -16 21 -34 c17 -28 19 -37 9 -49
-13 -16 -40 -20 -40 -7 0 4 -9 18 -19 31 -18 24 -18 24 -50 5 -17 -10 -30 -21
-28 -24 40 -75 42 -80 23 -98 -17 -16 -19 -16 -29 2 -35 56 -42 60 -76 47 -34
-15 -38 -26 -16 -55 8 -11 15 -23 15 -27 0 -4 -84 -9 -187 -11 -163 -4 -194
-7 -234 -25 -60 -27 -107 -76 -137 -142 -50 -108 -14 -264 83 -366 80 -83 181
-114 368 -115 l87 0 0 -46 0 -45 43 3 c42 3 42 3 45 46 l3 42 95 0 94 0 0 -45
0 -45 45 0 45 0 0 45 0 45 94 0 95 0 3 -42 c3 -43 3 -43 46 -46 l42 -3 0 45 0
46 94 0 95 0 3 -42 c3 -43 3 -43 46 -46 l42 -3 0 46 0 46 98 -3 97 -3 3 -42
c3 -43 3 -43 43 -43 l39 0 0 45 0 46 98 -3 97 -3 3 -42 c3 -43 3 -43 42 -43
39 0 39 0 42 43 l3 42 72 7 c93 9 134 27 169 74 l29 38 -3 170 c-4 275 -44
544 -96 646 -30 60 -75 90 -124 83 -53 -7 -110 -36 -178 -90 -85 -66 -133 -85
-234 -91 -133 -7 -184 11 -281 104 -43 41 -84 74 -93 74 -8 0 -20 2 -28 4 -7
2 -35 0 -63 -5z m915 -110 c20 -38 20 -42 5 -59 -10 -11 -47 -37 -84 -58 -289
-170 -603 -173 -791 -9 -45 39 -110 118 -110 134 0 7 25 14 65 18 l66 7 58
-58 c73 -75 129 -103 225 -113 160 -18 291 17 402 109 53 43 100 69 126 70 11
0 26 -17 38 -41z m-1013 -96 c49 -63 128 -132 196 -171 142 -82 421 -83 627
-2 73 28 171 78 192 97 35 31 45 11 58 -124 6 -70 10 -150 9 -178 l-4 -50
-420 -6 c-239 -4 -439 -11 -465 -17 -86 -21 -98 -17 -120 33 -13 30 -28 49
-45 55 -15 6 -148 10 -311 10 -309 0 -332 3 -372 55 -12 15 -22 31 -22 35 0
13 174 18 182 6 30 -49 32 -50 64 -23 23 21 27 28 17 38 -19 19 -16 47 5 52 9
2 29 -7 44 -21 l27 -24 30 21 c30 22 30 22 14 56 -16 33 -15 36 2 55 24 26 33
25 47 -5 13 -29 29 -31 63 -9 l25 16 -21 34 c-17 28 -19 37 -9 49 18 21 31 19
55 -11 21 -26 22 -26 53 -10 37 19 38 23 12 56 -14 18 -16 28 -8 38 16 18 22
14 75 -55z m-758 -292 c29 -57 69 -99 112 -121 35 -19 60 -20 332 -20 276 0
296 -1 318 -19 33 -27 20 -36 -84 -61 -81 -19 -120 -20 -526 -20 -498 0 -451
-10 -451 95 0 56 4 68 33 106 46 61 87 79 174 79 l73 0 19 -39z m1861 -296 c0
-67 -19 -108 -57 -124 -21 -8 -272 -11 -968 -9 -896 3 -942 4 -975 22 -39 21
-80 55 -80 68 0 4 168 8 373 8 388 1 428 4 652 54 118 27 245 33 658 35 l397
1 0 -55z" id="node1" class="node"></path>
</g>
<g transform="translate(0.000000,300.000000) scale(0.100000,-0.100000)" fill="#A0A0A0" stroke="none">

<path style="position: relative;" d="M2454 1874 c-16 -8 -52 -32 -78 -54 -111 -92 -242 -127 -402 -109
-96 10 -152 38 -225 113 l-58 58 -66 -7 c-40 -4 -65 -11 -65 -18 0 -16 65 -95
110 -134 188 -164 502 -161 791 9 37 21 74 47 84 58 15 17 15 21 -5 59 -22 45
-37 49 -86 25z" id="node3" class="node"></path>
<path style="position: relative;" d="M1452 1808 c-8 -10 -6 -20 8 -38 26 -33 25 -37 -12 -56 -31 -16 -32
-16 -53 10 -24 30 -37 32 -55 11 -10 -12 -8 -21 9 -49 l21 -34 -25 -16 c-34
-22 -50 -20 -63 9 -14 30 -23 31 -47 5 -17 -19 -18 -22 -2 -55 16 -34 16 -34
-14 -56 l-30 -21 -27 24 c-15 14 -35 23 -44 21 -21 -5 -24 -33 -5 -52 10 -10
6 -17 -17 -38 -32 -27 -34 -26 -64 23 -8 12 -182 7 -182 -6 0 -4 10 -20 22
-35 40 -52 63 -55 372 -55 163 0 296 -4 311 -10 17 -6 32 -25 45 -55 22 -50
34 -54 120 -33 26 6 226 13 465 17 l420 6 4 50 c1 28 -3 108 -9 178 -13 135
-23 155 -58 124 -21 -19 -119 -69 -192 -97 -206 -81 -485 -80 -627 2 -68 39
-147 108 -196 171 -53 69 -59 73 -75 55z" id="node4" class="node"></path>
<path style="position: relative;" d="M570 1481 c-19 -10 -50 -37 -67 -60 -29 -38 -33 -50 -33 -106 0 -105
-47 -95 451 -95 406 0 445 1 526 20 104 25 117 34 84 61 -22 18 -42 19 -318
19 -272 0 -297 1 -332 20 -43 22 -83 64 -112 121 l-19 39 -73 0 c-51 0 -82 -5
-107 -19z" id="node5" class="node"></path>
<path style="position: relative;" d="M1740 1209 c-52 -5 -126 -16 -165 -25 -224 -50 -264 -53 -652 -54
-205 0 -373 -4 -373 -8 0 -13 41 -47 80 -68 33 -18 79 -19 975 -22 696 -2 947
1 968 9 38 16 57 57 57 124 l0 55 -397 -1 c-219 -1 -441 -6 -493 -10z" id="node6" class="node"></path>
</g>
</svg>