<!--?xml version="1.0" standalone="no"?-->

<svg version="1.0" xmlns="http://www.w3.org/2000/svg" width="300.000000pt" height="300.000000pt" viewBox="0 0 300.000000 300.000000" preserveAspectRatio="xMidYMid meet">
<g transform="translate(0.000000,300.000000) scale(0.100000,-0.100000)" fill="#398622" stroke="none">

<path class="node" id="node2" d="M1350 2720 c-81 -9 -215 -43 -267 -66 -17 -8 -36 -14 -42 -14 -20 0
-166 -77 -235 -125 -258 -176 -425 -418 -507 -730 -21 -80 -24 -111 -23 -285
0 -109 5 -213 11 -235 6 -22 18 -67 27 -100 56 -209 190 -422 361 -574 159
-141 316 -224 535 -283 75 -20 108 -23 290 -23 181 0 214 3 285 23 250 69 420
166 591 340 327 330 435 809 282 1257 -60 176 -150 317 -293 460 -229 229
-496 346 -820 359 -66 3 -154 1 -195 -4z m537 -424 c34 -31 37 -38 37 -89 1
-50 -2 -59 -33 -91 -100 -103 -258 -14 -221 124 16 59 59 90 126 90 48 0 59
-4 91 -34z m39 -306 c32 -12 300 -273 320 -312 21 -40 8 -61 -114 -180 -117
-116 -142 -128 -182 -88 -38 38 -27 68 62 157 l83 83 -70 70 -70 70 -177 -177
-178 -178 -120 120 -119 119 94 94 c52 51 95 95 95 98 0 2 -112 4 -250 4 -237
0 -251 1 -270 20 -24 24 -26 67 -3 92 15 17 42 18 444 18 268 0 438 -4 455
-10z m-671 -610 c-160 -161 -182 -173 -225 -130 -42 42 -30 63 130 224 l150
150 48 -47 47 -47 -150 -150z m-46 -333 c-368 -362 -372 -365 -419 -315 -23
25 -25 40 -8 71 6 12 160 169 342 349 l331 326 48 -46 49 -47 -343 -338z m381
-90 c37 -18 70 -74 70 -117 0 -43 -33 -99 -70 -117 -14 -7 -44 -13 -68 -13
-36 0 -49 6 -84 39 -39 36 -42 42 -42 91 0 49 3 55 42 91 35 33 48 39 84 39
24 0 54 -6 68 -13z"></path>
</g>
<g transform="translate(0.000000,300.000000) scale(0.100000,-0.100000)" fill="#FFFFFF" stroke="none">

<path class="node" id="node4" d="M1711 2304 c-77 -64 -54 -197 39 -225 55 -17 101 -5 141 37 31 32 34
41 33 91 0 51 -3 58 -37 89 -32 30 -43 34 -91 34 -44 0 -60 -5 -85 -26z"></path>
<path class="node" id="node5" d="M1027 1982 c-23 -25 -21 -68 3 -92 19 -19 33 -20 270 -20 138 0 250
-2 250 -4 0 -3 -43 -47 -95 -98 l-94 -94 119 -119 120 -120 178 178 177 177
70 -70 70 -70 -83 -83 c-89 -89 -100 -119 -62 -157 40 -40 65 -28 182 88 122
119 135 140 114 180 -20 39 -288 300 -320 312 -17 6 -187 10 -455 10 -402 0
-429 -1 -444 -18z"></path>
<path class="node" id="node6" d="M1160 1474 c-160 -161 -172 -182 -130 -224 43 -43 65 -31 225 130
l150 150 -47 47 -48 47 -150 -150z"></path>
<path class="node" id="node7" d="M1124 1152 c-182 -180 -336 -337 -342 -349 -17 -31 -15 -46 8 -71 47
-50 51 -47 419 315 l343 338 -49 47 -48 46 -331 -326z"></path>
<path class="node" id="node8" d="M1438 931 c-39 -36 -42 -42 -42 -91 0 -49 3 -55 42 -91 35 -33 48
-39 84 -39 55 0 87 17 115 59 42 62 18 155 -47 188 -14 7 -44 13 -68 13 -36 0
-49 -6 -84 -39z"></path>
</g>
</svg>