<!--?xml version="1.0" standalone="no"?-->

<svg version="1.0" xmlns="http://www.w3.org/2000/svg" width="300.000000pt" height="300.000000pt" viewBox="0 0 300.000000 300.000000" preserveAspectRatio="xMidYMid meet">
<g transform="translate(0.000000,300.000000) scale(0.100000,-0.100000)" fill="#0E2738" stroke="none">
<path class="node" id="node1" d="M1293 2605 c-138 -26 -298 -91 -420 -172 -69 -46 -207 -176 -261
-245 -155 -202 -232 -430 -232 -688 0 -298 98 -549 297 -761 163 -173 358
-287 573 -336 95 -21 304 -28 413 -13 282 38 536 185 718 415 164 207 239 425
239 696 0 325 -118 594 -359 822 -162 152 -346 244 -561 282 -103 18 -307 18
-407 0z m867 -381 c22 -57 30 -55 -227 -52 l-238 3 -3 38 -3 37 231 0 230 0
10 -26z m25 -139 l0 -30 -245 0 c-228 0 -245 1 -248 18 -9 47 -8 48 250 45
l243 -3 0 -30z m12 -198 c-5 -111 -23 -205 -72 -387 -14 -52 -37 -160 -51
-240 -14 -80 -28 -147 -30 -149 -25 -25 -223 47 -224 81 0 27 -21 66 -38 73
-16 6 -61 -39 -62 -62 0 -20 -42 -43 -77 -43 l-34 0 16 30 c8 16 26 40 40 54
l25 25 0 355 c0 195 2 360 5 368 4 10 54 12 256 10 l252 -3 -6 -112z m-1106
66 l-21 -26 57 -33 c32 -18 61 -34 65 -34 5 0 90 49 117 67 3 2 -6 14 -19 28
-22 23 -22 25 -4 24 60 -1 169 -75 225 -152 35 -49 36 -61 5 -53 -21 5 -25 0
-47 -62 l-24 -67 37 -40 c21 -23 38 -51 39 -65 0 -15 3 -19 6 -10 3 8 17 26
31 40 l24 25 -6 -52 c-7 -60 -26 -109 -63 -164 -29 -43 -43 -49 -43 -18 0 19
-5 20 -72 17 l-72 -3 -28 -54 c-15 -29 -28 -55 -28 -58 0 -2 15 -9 33 -16 l32
-11 -40 -12 c-55 -17 -162 -17 -210 1 l-40 14 33 11 c17 7 32 14 32 16 0 2
-10 19 -22 37 -13 19 -27 41 -33 50 -7 10 -32 17 -77 20 -62 4 -68 3 -68 -14
0 -29 -15 -23 -44 19 -33 48 -66 141 -66 184 l1 33 20 -27 20 -27 43 53 43 53
-21 66 c-19 59 -23 65 -43 60 -30 -7 -29 6 5 53 55 75 170 154 225 154 17 0
17 -2 -2 -27z m549 -876 c39 -2 45 -5 42 -22 -6 -30 -53 -80 -94 -98 -95 -42
-172 -45 -257 -11 -48 19 -49 34 -2 47 28 7 35 5 52 -18 26 -32 46 -33 25 0
-9 13 -16 27 -16 30 0 12 25 3 47 -17 17 -16 23 -18 23 -7 0 8 -5 20 -11 26
-6 6 -8 17 -4 24 6 9 14 5 30 -16 13 -15 28 -26 35 -23 8 2 5 12 -9 30 -15 19
-18 29 -10 34 7 4 20 -4 31 -19 11 -15 24 -27 29 -27 14 0 11 22 -7 41 -21 24
-10 40 24 33 15 -3 47 -6 72 -7z m-320 -154 c38 -18 70 -25 104 -24 31 1 53
-3 58 -11 13 -21 9 -28 -14 -27 -121 3 -304 -6 -310 -15 -4 -6 -8 1 -8 15 0
16 13 39 37 62 41 41 42 41 133 0z m128 -147 c-3 -18 -10 -21 -48 -21 -39 0
-45 3 -48 22 -3 24 19 31 71 24 22 -3 27 -8 25 -25z m-174 15 c4 -5 3 -17 0
-26 -5 -12 -17 -15 -53 -13 -39 3 -46 6 -49 26 -3 20 0 22 47 22 27 0 52 -4
55 -9z m344 -13 c-2 -19 -10 -24 -42 -26 -43 -4 -62 8 -53 32 5 11 20 16 52
16 42 0 46 -2 43 -22z m296 13 c13 -21 -7 -41 -40 -41 -30 0 -34 3 -34 25 0
22 4 25 34 25 19 0 37 -4 40 -9z m131 -16 c0 -15 -8 -21 -29 -23 -33 -4 -51
10 -42 33 9 25 71 16 71 -10z"></path>
<path class="node" id="node2" d="M1120 1670 c-36 -27 -64 -53 -64 -57 1 -5 12 -41 24 -80 l23 -73 86
0 87 0 27 81 c15 45 26 83 25 84 -2 1 -33 23 -69 48 -37 26 -68 47 -70 47 -2
0 -33 -23 -69 -50z"></path>
</g>
<g transform="translate(0.000000,300.000000) scale(0.100000,-0.100000)" fill="#BBB3AE" stroke="none">

<path class="node" id="node4" d="M1692 2213 l3 -38 238 -3 c257 -3 249 -5 227 52 l-10 26 -230 0 -231
0 3 -37z"></path>
<path class="node" id="node5" d="M1694 2106 c-3 -8 -4 -23 -2 -33 3 -17 20 -18 248 -18 l245 0 0 30 0
30 -243 3 c-205 2 -243 0 -248 -12z"></path>
<path class="node" id="node6" d="M1695 1992 c-3 -8 -5 -173 -5 -368 l0 -355 -25 -25 c-14 -14 -32 -38
-40 -54 l-16 -30 34 0 c35 0 77 23 77 43 1 23 46 68 62 62 17 -7 38 -46 38
-73 1 -34 199 -106 224 -81 2 2 16 69 30 149 14 80 37 188 51 240 49 182 67
276 72 387 l6 112 -252 3 c-202 2 -252 0 -256 -10z"></path>
<path class="node" id="node7" d="M1024 1956 c-59 -27 -116 -75 -156 -130 -34 -47 -35 -60 -5 -53 20 5
24 -1 43 -60 l21 -66 -43 -53 -43 -53 -20 27 -20 27 -1 -33 c0 -43 33 -136 66
-184 29 -42 44 -48 44 -19 0 17 6 18 68 14 45 -3 70 -10 77 -20 6 -9 20 -31
33 -50 12 -18 22 -35 22 -37 0 -2 -15 -9 -32 -16 l-33 -11 40 -14 c48 -18 155
-18 210 -1 l40 12 -32 11 c-18 7 -33 14 -33 16 0 3 13 29 28 58 l28 54 72 3
c67 3 72 2 72 -17 0 -31 14 -25 43 18 37 55 56 104 63 164 l6 52 -24 -25 c-14
-14 -28 -32 -31 -40 -3 -9 -6 -5 -6 10 -1 14 -18 42 -39 65 l-37 40 24 67 c22
62 26 67 47 62 31 -8 30 4 -5 53 -56 77 -165 151 -225 152 -18 1 -18 -1 4 -24
13 -14 22 -26 19 -28 -27 -18 -112 -67 -117 -67 -4 0 -33 16 -65 34 l-57 33
21 26 c19 25 19 27 2 27 -10 0 -41 -11 -69 -24z m235 -283 c36 -25 67 -47 69
-48 1 -1 -10 -39 -25 -84 l-27 -81 -87 0 -86 0 -23 73 c-12 39 -23 75 -24 80
-1 6 122 106 133 107 2 0 33 -21 70 -47z"></path>
<path class="node" id="node8" d="M1534 1079 c-3 -6 1 -18 10 -28 18 -19 21 -41 7 -41 -5 0 -18 12 -29
27 -11 15 -24 23 -31 19 -8 -5 -5 -15 10 -34 14 -18 17 -28 9 -30 -7 -3 -22 8
-35 23 -16 21 -24 25 -30 16 -4 -7 -2 -18 4 -24 6 -6 11 -18 11 -26 0 -11 -6
-9 -23 7 -22 20 -47 29 -47 17 0 -3 7 -17 16 -30 21 -33 1 -32 -25 0 -17 23
-24 25 -52 18 -47 -13 -46 -28 2 -47 85 -34 162 -31 257 11 41 18 88 68 94 98
3 17 -3 20 -42 22 -25 1 -57 4 -72 7 -15 3 -30 1 -34 -5z"></path>
<path class="node" id="node9" d="M1187 923 c-24 -23 -37 -46 -37 -62 0 -14 4 -21 8 -15 6 9 189 18
310 15 23 -1 27 6 14 27 -5 8 -27 12 -58 11 -34 -1 -66 6 -104 24 -91 41 -92
41 -133 0z"></path>
<path class="node" id="node10" d="M1372 802 c-17 -3 -22 -9 -20 -25 3 -19 9 -22 48 -22 38 0 45 3 48
21 2 17 -3 22 -25 25 -15 2 -38 3 -51 1z"></path>
<path class="node" id="node11" d="M1172 778 c3 -20 10 -23 49 -26 36 -2 48 1 53 13 10 27 -2 35 -55 35
-47 0 -50 -2 -47 -22z"></path>
<path class="node" id="node12" d="M1523 784 c-9 -24 10 -36 53 -32 32 2 40 7 42 26 3 20 -1 22 -43 22
-32 0 -47 -5 -52 -16z"></path>
<path class="node" id="node13" d="M1840 775 c0 -22 4 -25 34 -25 22 0 36 6 40 16 9 24 -2 34 -40 34
-30 0 -34 -3 -34 -25z"></path>
<path class="node" id="node14" d="M1974 785 c-9 -23 9 -37 42 -33 21 2 29 8 29 23 0 26 -62 35 -71 10z"></path>
</g>
</svg>