<!--?xml version="1.0" standalone="no"?--><svg version="1.0" xmlns="http://www.w3.org/2000/svg" width="171.000000pt" height="300.000000pt" viewBox="0 0 171.000000 300.000000" preserveAspectRatio="xMidYMid meet">
<metadata>
  <rdf:rdf xmlns:rdf="http://www.w3.org/1999/02/22-rdf-syntax-ns#" xmlns:rdfs="http://www.w3.org/2000/01/rdf-schema#" xmlns:dc="http://purl.org/dc/elements/1.1/">
    <rdf:description dc:title="golf ball with flag" dc:publisher="Hiox" dc:date="2015-05-25" dc:format="image/svg+xml" dc:language="en">
      <dc:creator>
        <rdf:bag>
          <rdf:li>svgimages.com</rdf:li>
        </rdf:bag>
      </dc:creator>
    </rdf:description>
  </rdf:rdf>
</metadata>
<g transform="translate(0.000000,300.000000) scale(0.100000,-0.100000)" fill="#2A2628" stroke="none">
<path d="M3 2984 c-3 -8 11 -70 31 -137 93 -316 146 -629 176 -1041 19 -267
33 -935 27 -1327 -6 -385 -5 -397 14 -418 15 -16 32 -21 68 -21 58 0 96 25
104 70 7 31 -31 860 -58 1270 -19 283 -52 655 -65 729 -13 70 -13 137 0 161
11 21 109 55 189 66 41 5 52 3 70 -15 11 -11 21 -27 21 -34 0 -22 35 -47 71
-53 50 -8 132 24 235 93 200 135 394 233 543 275 55 16 105 22 178 23 57 0
103 3 103 6 0 10 -71 72 -111 97 -112 69 -279 87 -549 58 -242 -25 -244 -25
-314 -15 -74 10 -140 39 -150 65 -4 9 -1 32 5 51 10 31 9 37 -11 58 -37 39
-98 48 -343 51 -192 2 -229 0 -234 -12z m71 -51 c29 -58 98 -294 126 -433 79
-393 151 -1349 154 -2060 1 -297 0 -325 -16 -328 -9 -2 -21 5 -27 16 -6 12
-14 253 -21 625 -5 333 -15 686 -20 784 -32 571 -98 998 -200 1297 -16 50 -30
98 -30 108 0 27 18 22 34 -9z m434 0 c22 -5 23 -9 17 -64 -7 -55 -5 -60 22
-85 78 -74 219 -90 463 -54 290 42 417 37 538 -20 79 -37 86 -50 25 -50 -26 0
-84 -9 -129 -20 -153 -36 -281 -96 -539 -250 -157 -94 -203 -110 -240 -86 -35
23 -44 50 -66 204 -17 125 -56 253 -58 193 -1 -14 6 -62 14 -107 9 -46 15
-111 13 -146 l-3 -63 -70 -6 c-64 -6 -154 -26 -197 -44 -21 -8 -20 -10 -42
115 -23 127 -60 275 -97 383 -17 49 -28 92 -24 95 19 19 306 24 373 5z" id="node1" class="node"></path>
<path d="M1357 329 c-103 -55 -122 -205 -35 -286 78 -72 219 -51 274 42 53 92
23 204 -68 251 -39 20 -126 17 -171 -7z m169 -28 c103 -63 65 -232 -57 -250
-69 -11 -134 12 -99 34 8 5 7 11 -1 21 -6 7 -16 11 -21 8 -6 -4 -5 -10 3 -15
7 -4 10 -12 5 -16 -12 -13 -44 33 -51 75 -8 52 18 115 58 141 42 27 121 28
163 2z" id="node2" class="node"></path>
<path d="M1437 273 c5 -12 2 -15 -10 -10 -9 3 -17 2 -17 -3 0 -15 37 -12 43 4
6 15 -1 26 -14 26 -5 0 -5 -8 -2 -17z" id="node3" class="node"></path>
<path d="M1500 270 c13 -9 13 -11 0 -19 -8 -6 -11 -13 -7 -17 11 -11 41 22 33
35 -4 6 -15 11 -24 11 -15 0 -15 -2 -2 -10z" id="node4" class="node"></path>
<path d="M1343 244 c-3 -8 -1 -20 4 -25 11 -11 43 -2 43 13 0 6 -7 7 -16 4
-12 -4 -15 -2 -10 9 3 8 1 15 -5 15 -5 0 -12 -7 -16 -16z" id="node5" class="node"></path>
<path d="M1440 206 c0 -15 -3 -16 -15 -6 -12 10 -15 10 -15 -4 0 -9 8 -16 19
-16 25 0 37 18 22 33 -8 8 -11 6 -11 -7z" id="node6" class="node"></path>
<path d="M1556 209 c3 -6 0 -15 -7 -20 -7 -4 -10 -11 -6 -15 11 -11 41 22 33
35 -4 6 -12 11 -17 11 -6 0 -7 -5 -3 -11z" id="node7" class="node"></path>
<path d="M1500 189 c0 -6 -7 -8 -16 -5 -10 4 -14 1 -12 -6 7 -19 42 -15 46 5
2 9 -1 17 -7 17 -6 0 -11 -5 -11 -11z" id="node8" class="node"></path>
<path d="M1324 179 c-8 -13 22 -46 33 -35 4 4 1 11 -6 15 -7 5 -10 14 -7 20 4
6 3 11 -3 11 -5 0 -13 -5 -17 -11z" id="node9" class="node"></path>
<path d="M1387 153 c-9 -15 9 -35 28 -31 10 1 20 9 23 17 3 10 0 12 -13 7 -10
-4 -22 -2 -25 5 -4 6 -10 7 -13 2z" id="node10" class="node"></path>
<path d="M1535 140 c4 -7 2 -16 -6 -22 -11 -7 -9 -8 6 -6 23 4 27 29 6 36 -9
3 -11 0 -6 -8z" id="node11" class="node"></path>
<path d="M1467 115 c-10 -7 -14 -15 -10 -18 12 -8 36 9 32 21 -3 7 -10 6 -22
-3z" id="node12" class="node"></path>
<path d="M1423 70 c-1 -11 2 -18 8 -15 11 7 12 35 1 35 -4 0 -8 -9 -9 -20z" id="node13" class="node"></path>
<path d="M725 139 c-96 -7 -133 -17 -154 -43 -20 -24 -6 -45 44 -67 76 -34
367 -25 412 13 24 20 15 56 -18 73 -27 14 -54 19 -164 28 -16 2 -70 0 -120 -4z" id="node14" class="node"></path>
</g>
<g transform="translate(0.000000,300.000000) scale(0.100000,-0.100000)" fill="#FFFFFF" stroke="none">
<path d="M138 2993 c12 -2 32 -2 45 0 12 2 2 4 -23 4 -25 0 -35 -2 -22 -4z" id="node15" class="node"></path>

<path d="M40 2942 c0 -10 14 -58 30 -108 102 -299 168 -726 200 -1297 5 -98
15 -451 20 -784 7 -372 15 -613 21 -625 6 -11 18 -18 27 -16 16 3 17 31 16
328 -3 711 -75 1667 -154 2060 -28 139 -97 375 -126 433 -16 31 -34 36 -34 9z" id="node17" class="node"></path>
<path d="M193 2942 c-28 -4 -55 -10 -58 -14 -4 -3 7 -46 24 -95 37 -108 74
-256 97 -383 22 -125 21 -123 42 -115 43 18 133 38 197 44 l70 6 3 63 c2 35
-4 100 -13 146 -8 45 -15 93 -14 107 2 60 41 -68 58 -193 22 -154 31 -181 66
-204 37 -24 83 -8 240 86 258 154 386 214 539 250 45 11 103 20 129 20 61 0
54 13 -25 50 -121 57 -248 62 -538 20 -244 -36 -385 -20 -463 54 -27 25 -29
30 -22 85 6 55 5 59 -17 64 -37 11 -258 16 -315 9z" id="node18" class="node"></path>

<path d="M1363 299 c-40 -26 -66 -89 -58 -141 7 -42 39 -88 51 -75 5 4 2 12
-5 16 -8 5 -9 11 -3 15 5 3 15 -1 21 -8 8 -10 9 -16 1 -21 -35 -22 30 -45 99
-34 122 18 160 187 57 250 -42 26 -121 25 -163 -2z m90 -15 c3 -3 3 -12 0 -20
-6 -16 -43 -19 -43 -4 0 5 8 6 17 3 12 -5 15 -2 10 10 -6 16 4 23 16 11z m73
-15 c8 -13 -22 -46 -33 -35 -4 4 -1 11 7 17 13 8 13 10 0 19 -13 8 -13 10 2
10 9 0 20 -5 24 -11z m-162 -24 c-5 -11 -2 -13 10 -9 9 3 16 2 16 -4 0 -15
-32 -24 -43 -13 -11 11 -2 41 12 41 6 0 8 -7 5 -15z m92 -54 c-11 -17 -46 -13
-46 5 0 14 3 14 15 4 12 -10 15 -9 15 6 0 13 3 15 11 7 6 -6 8 -16 5 -22z
m120 18 c8 -13 -22 -46 -33 -35 -4 4 -1 11 6 15 7 5 10 14 7 20 -4 6 -3 11 3
11 5 0 13 -5 17 -11z m-58 -26 c-4 -20 -39 -24 -46 -5 -2 7 2 10 12 6 9 -3 16
-1 16 5 0 6 5 11 11 11 6 0 9 -8 7 -17z m-174 -4 c-3 -6 0 -15 7 -20 7 -4 10
-11 6 -15 -11 -11 -41 22 -33 35 4 6 12 11 17 11 6 0 7 -5 3 -11z m81 -33 c13
5 16 3 13 -7 -3 -8 -13 -16 -23 -17 -19 -4 -37 16 -28 31 3 5 9 4 13 -2 3 -7
15 -9 25 -5z m130 -17 c0 -7 -9 -15 -20 -17 -15 -2 -17 -1 -6 6 8 6 10 15 6
22 -5 8 -3 11 6 8 8 -3 14 -11 14 -19z m-76 -29 c-21 -14 -32 1 -12 15 12 9
19 10 22 3 2 -6 -3 -14 -10 -18z m-39 -24 c0 -8 -4 -17 -9 -21 -6 -3 -9 4 -8
15 1 23 17 28 17 6z" id="node20" class="node"></path>
</g>
</svg>