<!--?xml version="1.0" standalone="no"?-->

<svg version="1.0" xmlns="http://www.w3.org/2000/svg" width="240.000000pt" height="300.000000pt" viewBox="0 0 240.000000 300.000000" preserveAspectRatio="xMidYMid meet">
<g transform="translate(0.000000,300.000000) scale(0.100000,-0.100000)" fill="#080808" stroke="none">
<path class="node" id="node1" d="M2221 2804 c-23 -29 -57 -129 -66 -194 -3 -25 -8 -58 -11 -73 l-6
-28 -236 4 c-238 5 -317 11 -328 28 -10 17 -42 9 -47 -11 -5 -19 -14 -20 -336
-20 -259 0 -331 3 -331 13 0 7 -9 18 -20 25 -17 10 -20 10 -20 -3 0 -11 -11
-15 -36 -15 -19 0 -43 -4 -52 -9 -9 -5 -107 -10 -216 -12 l-200 -4 -12 73
c-16 94 -47 172 -83 206 -23 22 -36 27 -67 24 -36 -3 -41 -7 -64 -53 -23 -47
-25 -59 -24 -215 0 -163 0 -166 33 -254 38 -100 58 -126 99 -126 54 0 99 75
111 183 5 40 6 75 4 80 -2 4 -1 16 2 27 6 19 15 20 188 20 l183 0 10 -29 c7
-18 8 -47 3 -77 -13 -82 -10 -245 6 -309 8 -33 29 -91 45 -130 16 -38 36 -99
45 -135 11 -45 27 -79 53 -110 20 -25 43 -53 51 -63 8 -9 17 -54 22 -100 4
-47 23 -127 43 -189 30 -92 35 -121 36 -210 1 -57 -4 -128 -10 -158 -25 -113
-29 -149 -40 -317 -11 -192 0 -291 41 -346 17 -24 19 -33 10 -59 -14 -40 -14
-123 0 -188 l11 -50 52 0 51 0 24 59 c19 49 22 69 16 119 -9 79 -3 95 45 118
39 19 40 20 34 61 -3 23 -3 61 2 85 l7 43 9 -30 c5 -16 8 -52 7 -80 -1 -73 -1
-72 27 -79 14 -4 37 -18 50 -31 23 -23 24 -30 18 -85 -6 -51 -3 -71 17 -120
l24 -60 61 0 62 0 7 73 c6 58 3 83 -13 130 l-19 58 44 30 c27 19 42 36 39 45
-3 7 1 32 9 55 20 55 19 75 -4 107 -21 31 -51 153 -51 211 0 22 -11 89 -25
148 -22 98 -45 263 -47 338 0 17 6 59 15 95 24 96 37 180 37 233 0 56 15 96
64 167 20 28 40 68 46 88 5 21 28 102 50 180 35 127 40 156 40 250 0 59 -7
134 -14 166 -13 53 -12 62 2 84 15 24 19 24 91 18 40 -3 136 -6 211 -6 l137 0
5 -113 c7 -161 35 -212 111 -205 27 2 36 10 54 48 67 137 71 459 7 593 -22 46
-61 51 -93 11z m-676 -347 c13 -12 31 -28 40 -36 15 -12 16 -25 10 -94 -3 -44
-11 -91 -16 -104 -5 -13 -9 -58 -9 -100 l0 -76 -44 -41 c-36 -33 -48 -54 -62
-104 -16 -57 -22 -65 -70 -97 -29 -19 -54 -40 -56 -47 -2 -6 -12 -9 -21 -5
-27 10 -23 82 8 119 22 26 24 35 19 91 -6 76 -38 142 -76 158 -35 14 -88 18
-110 7 -27 -13 -48 -67 -60 -150 -10 -69 -9 -80 5 -96 19 -21 24 -117 6 -127
-6 -4 -20 2 -32 13 -12 11 -39 28 -60 37 -22 10 -41 25 -44 34 -23 67 -61 136
-90 161 -39 35 -53 66 -53 123 0 23 -7 66 -14 95 -8 29 -18 83 -22 118 l-6 66
40 36 41 37 327 2 327 3 22 -23z"></path>
</g>
<g transform="translate(0.000000,300.000000) scale(0.100000,-0.100000)" fill="#9F9F9F" stroke="none">



</g>
</svg>