<!--?xml version="1.0" standalone="no"?-->

<svg version="1.0" xmlns="http://www.w3.org/2000/svg" width="268.000000pt" height="300.000000pt" viewBox="0 0 268.000000 300.000000" preserveAspectRatio="xMidYMid meet">
<g transform="translate(0.000000,300.000000) scale(0.100000,-0.100000)" fill="#171717" stroke="none">

<path class="node" id="node2" d="M1487 2380 c-58 -15 -92 -36 -131 -82 -51 -59 -70 -130 -64 -239 l5
-88 -51 -12 c-109 -25 -233 -122 -292 -230 -109 -197 -140 -390 -174 -1064 -7
-137 -14 -201 -23 -207 -18 -11 -91 -10 -124 3 -15 6 -60 41 -99 79 -80 78
-120 93 -173 65 -40 -20 -88 -87 -122 -168 l-25 -62 -91 -5 c-54 -3 -97 -11
-107 -19 -24 -20 -22 -95 5 -122 19 -19 30 -21 111 -18 l90 4 18 -70 c27 -109
94 -155 206 -142 109 12 190 132 171 252 l-5 33 61 17 c120 32 110 35 140 -43
29 -72 81 -133 132 -152 34 -13 90 -13 138 1 53 14 62 42 48 145 -6 44 -11 85
-11 90 0 15 52 29 210 58 l135 25 40 -38 c100 -96 268 -144 388 -110 86 23
100 78 37 141 -22 22 -40 42 -40 44 0 2 24 4 53 4 46 0 117 18 178 44 12 5 18
-5 29 -46 10 -42 26 -66 73 -115 52 -54 65 -63 96 -63 109 0 169 52 245 214
30 62 68 129 85 148 17 20 31 43 31 52 0 28 -44 41 -97 29 -56 -13 -63 -10
-63 23 0 31 -12 54 -63 122 l-39 52 -88 0 -89 0 -28 -35 c-16 -19 -47 -80 -68
-135 -22 -54 -42 -96 -46 -92 -8 9 -27 118 -44 262 -61 492 -96 655 -170 806
-35 70 -61 106 -111 154 l-65 62 21 54 c12 33 20 79 20 116 0 72 -19 187 -34
207 -31 40 -158 68 -229 51z m143 -73 c74 -35 58 -316 -24 -442 -13 -19 -25
-25 -52 -25 -37 0 -42 4 -108 85 l-24 30 -11 -28 c-8 -22 -8 -35 1 -55 15 -31
165 -150 190 -151 22 -1 34 22 43 82 4 27 13 47 20 47 35 0 140 -101 174 -168
59 -117 107 -340 136 -627 19 -198 53 -439 66 -473 8 -21 7 -29 -7 -39 -26
-19 -62 -16 -91 7 -14 11 -32 20 -39 20 -19 0 -18 120 2 275 8 66 16 170 16
230 2 129 -15 191 -67 253 -34 39 -102 82 -130 82 -15 0 -18 -1 -200 -106
-141 -81 -184 -88 -245 -43 -44 33 -96 51 -126 43 -30 -8 -31 6 -3 66 51 109
39 135 -23 53 -88 -117 -125 -249 -162 -588 -9 -77 -21 -163 -27 -191 -15 -65
-8 -91 36 -148 26 -35 35 -56 35 -86 l0 -40 -82 0 c-46 0 -89 4 -97 9 -12 8
-12 35 -3 178 7 92 17 260 23 373 19 373 56 574 134 730 72 143 166 210 307
218 70 4 81 7 95 29 14 22 14 28 -6 79 -25 66 -25 64 -6 64 18 0 19 -1 -1 46
-20 49 -14 112 15 153 50 70 160 96 241 58z m172 -1018 c13 -5 35 -26 48 -46
23 -33 25 -46 25 -142 l-1 -106 -67 -126 c-51 -96 -69 -143 -79 -198 -10 -61
-15 -71 -33 -71 -11 -1 -31 -7 -45 -15 -14 -8 -38 -14 -54 -15 l-29 0 8 83
c10 116 51 322 76 385 12 29 19 56 15 59 -4 4 -35 -7 -69 -24 -71 -36 -234
-93 -265 -93 -18 0 -20 3 -11 32 5 18 9 63 9 99 0 54 3 68 18 74 128 50 236
90 272 100 56 16 151 18 182 4z m-582 -49 c11 -6 24 -29 30 -51 21 -76 -5
-179 -145 -574 -19 -55 -35 -102 -35 -105 0 -14 -29 42 -43 84 -53 157 16 596
100 645 23 13 69 14 93 1z m310 -392 c-7 -40 -14 -124 -17 -185 l-5 -113 -112
0 c-101 0 -139 -6 -235 -36 -23 -7 -24 -6 -17 36 4 23 26 81 50 129 49 95 66
147 66 203 l0 36 88 4 c68 2 98 8 137 28 l50 25 3 -27 c2 -15 -2 -60 -8 -100z
m872 -2 c107 -71 139 -297 60 -426 l-28 -45 -84 -3 -85 -2 -32 62 c-53 104
-53 105 11 110 74 6 106 28 106 73 0 43 -24 55 -106 55 -61 0 -60 0 -44 78 6
28 24 65 42 86 31 37 33 38 84 33 29 -3 63 -12 76 -21z m-562 -115 c0 -42 -30
-121 -46 -121 -19 0 -18 20 6 71 11 24 20 54 20 67 0 13 4 20 10 17 6 -3 10
-19 10 -34z m454 -110 c7 -11 -66 -38 -121 -44 -54 -6 -60 17 -10 38 36 16
123 20 131 6z m-1803 -102 c42 -45 64 -126 64 -239 0 -112 -20 -176 -68 -216
-25 -21 -38 -25 -65 -20 -69 11 -126 72 -137 147 l-7 46 55 7 c63 8 88 29 89
76 1 43 -20 60 -85 67 l-55 6 5 36 c11 72 68 120 141 121 25 0 41 -8 63 -31z
m1288 17 c-2 -2 -62 -18 -134 -34 -181 -42 -431 -69 -495 -54 -32 8 -28 9 40
16 41 4 111 14 155 22 44 9 125 24 180 34 87 16 266 27 254 16z m28 -97 c41
-15 73 -49 73 -77 0 -24 -2 -25 -57 -19 -115 10 -198 36 -239 72 l-39 34 117
1 c64 0 129 -5 145 -11z m-1442 -98 c6 -11 -17 -36 -46 -52 -11 -6 -53 -11
-93 -11 -96 -1 -120 12 -73 41 12 8 36 18 52 22 44 10 153 10 160 0z m689 -27
c12 -5 16 -21 16 -70 0 -60 -2 -65 -26 -74 -17 -7 -46 -6 -90 2 l-64 13 0 50
0 51 68 16 c37 8 70 16 74 17 3 0 13 -2 22 -5z"></path>
</g>
<g transform="translate(0.000000,300.000000) scale(0.100000,-0.100000)" fill="#FFFFFF" stroke="none">

<path class="node" id="node4" d="M1505 2321 c-115 -29 -172 -127 -131 -225 20 -47 19 -46 1 -46 -19 0
-19 2 6 -64 20 -51 20 -57 6 -79 -14 -22 -25 -25 -95 -29 -141 -8 -235 -75
-307 -218 -78 -156 -115 -357 -134 -730 -6 -113 -16 -281 -23 -373 -9 -143 -9
-170 3 -178 8 -5 51 -9 97 -9 l82 0 0 40 c0 30 -9 51 -35 86 -44 57 -51 83
-36 148 6 28 18 114 27 191 37 339 74 471 162 588 62 82 74 56 23 -53 -28 -60
-27 -74 3 -66 30 8 82 -10 126 -43 61 -45 104 -38 245 43 182 105 185 106 200
106 28 0 96 -43 130 -82 52 -62 69 -124 67 -253 0 -60 -8 -164 -16 -230 -20
-155 -21 -275 -2 -275 7 0 25 -9 39 -20 29 -23 65 -26 91 -7 14 10 15 18 7 39
-13 34 -47 275 -66 473 -29 287 -77 510 -136 627 -34 67 -139 168 -174 168 -7
0 -16 -20 -20 -47 -9 -60 -21 -83 -43 -82 -25 1 -175 120 -190 151 -9 20 -9
33 -1 55 l11 28 24 -30 c66 -81 71 -85 108 -85 27 0 39 6 52 25 82 126 98 407
24 442 -36 17 -90 23 -125 14z"></path>
<path class="node" id="node5" d="M1620 1285 c-36 -10 -144 -50 -272 -100 -15 -6 -18 -20 -18 -74 0
-36 -4 -81 -9 -99 -9 -29 -7 -32 11 -32 31 0 194 57 265 93 34 17 65 28 69 24
4 -3 -3 -30 -15 -59 -25 -63 -66 -269 -76 -385 l-8 -83 29 0 c16 1 40 7 54 15
14 8 34 14 45 15 18 0 23 10 33 71 10 55 28 102 79 198 l67 126 1 106 c0 96
-2 109 -25 142 -13 20 -35 41 -48 46 -31 14 -126 12 -182 -4z"></path>
<path class="node" id="node6" d="M1127 1239 c-84 -49 -153 -488 -100 -645 14 -42 43 -98 43 -84 0 3
16 50 35 105 140 395 166 498 145 574 -6 22 -19 45 -30 51 -24 13 -70 12 -93
-1z"></path>

<path class="node" id="node8" d="M2242 834 c-18 -21 -36 -58 -42 -86 -16 -78 -17 -78 44 -78 82 0 106
-12 106 -55 0 -45 -32 -67 -106 -73 -64 -5 -64 -6 -11 -110 l32 -62 85 2 84 3
28 45 c61 99 56 293 -9 375 -40 50 -67 66 -127 72 -51 5 -53 4 -84 -33z"></path>


<path class="node" id="node11" d="M2163 615 c-50 -21 -44 -44 10 -38 55 6 128 33 121 44 -8 14 -95 10
-131 -6z"></path>
<path class="node" id="node12" d="M364 536 c-39 -17 -69 -60 -77 -107 l-5 -36 55 -6 c65 -7 86 -24 85
-67 -1 -47 -26 -68 -89 -76 l-55 -7 7 -46 c11 -75 68 -136 137 -147 27 -5 40
-1 65 20 48 40 68 104 68 216 0 113 -22 194 -64 239 -33 35 -73 40 -127 17z"></path>
<path class="node" id="node13" d="M1525 520 c-55 -10 -136 -25 -180 -34 -44 -8 -114 -18 -155 -22 -68
-7 -72 -8 -40 -16 64 -15 314 12 495 54 72 16 132 32 134 34 12 11 -167 0
-254 -16z"></path>
<path class="node" id="node14" d="M1584 415 c41 -36 124 -62 239 -72 55 -6 57 -5 57 19 0 28 -32 62
-73 77 -16 6 -81 11 -145 11 l-117 -1 39 -34z"></path>
<path class="node" id="node15" d="M205 341 c-16 -4 -40 -14 -52 -22 -47 -29 -23 -42 73 -41 40 0 82 5
93 11 29 16 52 41 46 52 -7 10 -116 10 -160 0z"></path>
<path class="node" id="node16" d="M958 302 l-68 -16 0 -51 0 -50 64 -13 c44 -8 73 -9 90 -2 24 9 26 14
26 74 0 49 -4 65 -16 70 -9 3 -19 5 -22 5 -4 -1 -37 -9 -74 -17z"></path>
<path class="node" id="node17" d="M0 125 l0 -125 183 0 c171 0 180 1 151 16 -52 25 -77 60 -95 132
l-17 67 -90 -4 c-81 -3 -92 -1 -111 18 l-21 21 0 -125z"></path>
</g>
</svg>