<!--?xml version="1.0" standalone="no"?-->

<svg version="1.0" xmlns="http://www.w3.org/2000/svg" width="238.000000pt" height="300.000000pt" viewBox="0 0 238.000000 300.000000" preserveAspectRatio="xMidYMid meet">
<g transform="translate(0.000000,300.000000) scale(0.100000,-0.100000)" fill="#181818" stroke="none">
<path class="node" id="node1" d="M421 2898 c-127 -22 -236 -136 -276 -288 l-11 -45 -55 -1 c-63 0 -79
-7 -79 -34 0 -24 10 -30 73 -44 l51 -11 13 -85 c14 -88 47 -171 88 -226 53
-69 213 -119 303 -95 54 15 141 95 182 167 30 54 32 55 51 38 11 -10 19 -30
19 -48 0 -100 63 -281 119 -341 15 -16 47 -66 71 -110 23 -44 58 -102 77 -129
20 -27 48 -87 63 -132 16 -46 42 -103 59 -128 38 -55 56 -131 43 -180 -6 -20
-8 -44 -5 -54 2 -11 -6 -31 -20 -48 -90 -108 -97 -246 -16 -347 l31 -39 -32
-64 c-18 -35 -33 -64 -34 -64 -1 0 -22 11 -48 24 -26 13 -71 27 -100 31 -29 4
-61 15 -72 24 -24 21 -161 28 -222 11 -65 -18 -69 -27 -54 -119 9 -54 10 -90
4 -113 l-10 -33 -84 -5 c-67 -4 -85 -8 -85 -20 0 -12 17 -16 85 -18 65 -2 89
-7 105 -21 11 -10 30 -22 41 -25 32 -10 107 10 126 33 15 19 27 21 140 21 101
-1 130 -4 163 -20 51 -25 92 -25 130 0 26 17 47 20 153 20 l123 0 -3 -52 -3
-53 65 -6 c86 -9 299 -10 328 -3 33 9 31 66 -4 93 l-27 21 57 0 c49 0 57 2 54
17 -3 16 -17 18 -103 21 -87 2 -103 6 -123 25 -36 33 -52 71 -52 121 0 25 -4
47 -9 50 -5 4 -3 28 5 59 7 28 21 102 29 162 9 61 23 130 32 155 20 54 21 201
2 236 -7 15 -31 30 -61 40 -46 15 -49 18 -43 43 13 53 17 243 6 282 -15 49 -8
62 68 138 48 48 66 77 106 168 l48 111 53 -5 c110 -12 199 55 247 185 l25 67
40 -3 c33 -3 43 1 52 18 6 11 8 30 5 40 -6 19 -19 25 -70 32 -16 3 -21 14 -27
63 -17 145 -123 259 -243 259 -94 0 -187 -67 -239 -171 -17 -34 -33 -53 -44
-53 -10 0 -23 -5 -29 -11 -11 -11 -205 3 -428 31 -38 5 -131 14 -205 21 -113
10 -141 15 -171 35 -19 13 -42 24 -50 24 -28 0 -39 17 -58 93 -48 185 -185
292 -340 265z m124 -63 c54 -31 90 -79 119 -157 29 -77 41 -205 27 -270 -34
-151 -159 -290 -258 -287 -23 0 -20 3 17 14 86 27 156 115 190 237 25 91 25
119 -1 232 -28 120 -64 192 -113 228 -48 34 -37 37 19 3z m-291 -139 c-10 -20
-22 -36 -26 -36 -5 0 1 18 13 40 28 49 36 46 13 -4z m1839 -135 c100 -111 87
-339 -25 -451 -32 -32 -95 -66 -105 -56 -3 3 6 8 21 12 14 3 48 30 75 60 60
65 76 122 69 241 -5 87 -39 176 -86 227 -22 23 -23 27 -6 18 11 -6 37 -29 57
-51z m-1722 -1 c10 -6 19 -19 19 -30 0 -10 5 -22 10 -25 6 -4 10 7 10 26 0 27
2 30 15 19 24 -20 20 -93 -6 -116 l-21 -19 7 33 c9 41 -9 43 -30 1 -12 -22
-22 -29 -37 -27 -26 4 -37 28 -13 28 9 0 15 5 13 12 -4 10 -202 45 -265 48 -7
0 -13 7 -13 16 0 10 6 14 18 10 9 -2 70 -8 135 -11 103 -6 117 -5 117 9 0 9
-6 16 -12 16 -9 0 -8 4 2 10 19 12 27 12 51 0z m1443 -54 c-9 -15 -19 -24 -22
-22 -2 3 3 17 12 32 10 14 20 23 23 21 2 -3 -3 -17 -13 -31z m-952 -18 c11
-18 10 -52 -1 -63 -6 -6 -6 -26 -1 -50 5 -22 14 -65 20 -95 6 -30 21 -74 33
-97 12 -22 37 -70 55 -106 21 -43 47 -77 75 -98 23 -18 60 -52 82 -76 31 -34
59 -51 125 -76 83 -32 86 -34 112 -87 30 -59 44 -133 34 -174 -6 -23 -8 -24
-39 -14 -17 6 -39 17 -48 24 -20 17 -42 18 -37 2 2 -7 27 -24 57 -38 51 -24
52 -26 48 -62 -6 -45 -58 -123 -96 -143 -28 -14 -29 -14 -56 27 -60 91 -84
138 -95 191 -10 50 -29 86 -67 125 -7 7 -13 17 -13 22 0 15 -71 132 -117 193
-23 31 -43 66 -43 77 0 11 -13 41 -29 67 -28 47 -61 165 -61 221 0 18 -9 36
-26 51 -17 15 -23 28 -19 39 4 9 12 37 17 62 6 25 14 50 19 56 4 5 6 20 3 32
-6 20 -4 21 27 12 18 -5 36 -15 41 -22z m78 -38 c0 -5 -9 -10 -20 -10 -11 0
-20 5 -20 10 0 6 9 10 20 10 11 0 20 -4 20 -10z m335 -64 c406 -39 384 -36
397 -60 6 -11 17 -27 25 -34 7 -7 13 -23 13 -35 0 -12 7 -43 17 -69 16 -46 16
-49 -8 -120 -31 -95 -100 -168 -157 -168 -17 0 -20 10 -26 102 -5 75 -11 109
-26 133 -11 18 -20 46 -20 63 0 35 -15 46 -76 56 -97 16 -186 -40 -219 -139
-22 -67 -8 -145 37 -204 10 -14 15 -28 10 -33 -16 -16 -79 21 -113 66 -19 25
-45 50 -59 56 -16 7 -35 33 -54 73 -16 34 -40 77 -53 95 -38 50 -70 131 -78
196 l-7 59 69 -6 c37 -4 185 -18 328 -31z m510 22 c3 -7 6 -22 8 -33 2 -11 11
-38 21 -60 48 -109 55 -135 57 -221 3 -78 -1 -98 -25 -159 -42 -102 -58 -125
-130 -179 -20 -15 -42 -39 -48 -52 -11 -24 -12 -23 -49 35 -21 33 -50 68 -66
77 -15 10 -30 19 -32 21 -2 1 2 9 9 18 16 19 54 19 70 0 18 -22 30 -18 30 10
0 36 71 105 109 105 18 0 34 -7 40 -17 14 -27 26 -7 13 22 -8 17 -20 25 -38
25 -24 0 -25 2 -19 33 4 17 16 53 27 80 19 43 19 49 5 65 -9 10 -17 39 -18 66
-2 38 -8 51 -26 63 -21 14 -22 17 -8 33 17 19 20 60 5 60 -5 0 -10 5 -10 10 0
15 70 12 75 -2z m-85 -28 c12 -8 11 -10 -7 -10 -13 0 -23 5 -23 10 0 13 11 13
30 0z m222 -16 c11 -24 13 -25 25 -8 12 16 13 14 13 -18 0 -38 -16 -61 -22
-31 -3 15 -4 16 -20 0 -21 -21 -50 -23 -42 -2 4 9 -3 18 -18 24 -26 10 -57 41
-40 41 6 0 12 -5 14 -11 5 -16 48 -1 48 17 0 24 30 16 42 -12z m-450 -221 c19
-21 24 -37 22 -65 -2 -21 3 -41 11 -48 22 -18 -3 -67 -39 -76 l-31 -8 32 -3
c24 -3 33 -10 38 -30 7 -31 6 -32 -39 -40 -25 -4 -50 0 -76 12 -22 10 -44 15
-48 11 -8 -9 34 -46 53 -46 7 0 18 -7 25 -15 7 -8 28 -17 47 -21 40 -8 118
-79 148 -137 l20 -39 -23 -18 c-29 -24 -45 -18 -59 20 -12 32 -33 41 -33 13 0
-24 -42 17 -89 86 -20 30 -43 58 -51 62 -8 4 -36 18 -62 30 -39 18 -49 28 -54
55 -3 18 -4 39 -1 46 2 7 -2 20 -10 29 -11 13 -11 21 -2 43 7 14 20 26 29 26
22 0 40 20 40 45 0 12 17 38 37 58 45 45 79 48 115 10z m180 -908 c-28 -20
-29 -39 0 -32 32 9 87 -18 98 -48 15 -39 13 -136 -2 -132 -9 1 -15 -25 -19
-93 -7 -105 -44 -309 -57 -322 -5 -5 -29 -8 -53 -6 -40 3 -44 6 -52 38 -5 19
-7 91 -4 160 4 87 3 120 -4 110 -11 -16 -8 15 7 75 12 48 -19 24 -34 -26 -13
-42 -24 -69 -53 -133 -61 -132 -241 -152 -298 -33 -43 89 -14 185 75 253 21
16 50 41 65 55 99 94 202 145 294 148 57 1 59 0 37 -14z m83 -5 c3 -6 -1 -7
-9 -4 -18 7 -21 14 -7 14 6 0 13 -4 16 -10z m-422 -77 c-13 -2 -33 -2 -45 0
-13 2 -3 4 22 4 25 0 35 -2 23 -4z m212 -480 c4 -49 2 -54 -33 -85 -20 -18
-71 -59 -112 -90 -41 -32 -90 -71 -109 -88 -41 -36 -106 -41 -149 -12 -15 10
-49 29 -75 41 -42 20 -157 120 -157 136 0 4 5 15 10 26 9 15 22 19 63 19 67 0
121 -27 125 -64 2 -14 5 -26 6 -26 11 0 76 70 89 96 25 49 44 59 116 61 36 0
98 10 136 21 39 10 74 19 78 18 5 -1 10 -25 12 -53z m-647 -17 c2 -2 -2 -14
-8 -26 -7 -14 -10 -39 -6 -61 4 -24 2 -39 -4 -39 -5 0 -10 5 -10 10 0 6 -10
10 -22 10 -21 0 -21 0 -2 14 18 14 18 15 -6 25 -18 7 -20 10 -7 10 9 1 17 5
17 11 0 5 -8 14 -17 20 -17 11 -17 11 -1 6 24 -7 32 10 11 24 -15 9 -12 10 16
6 19 -4 36 -8 39 -10z m821 -93 c0 -16 -3 -22 -6 -15 -7 18 -23 15 -24 -5 0
-11 -3 -13 -6 -5 -7 18 -23 15 -24 -5 -1 -17 -2 -17 -6 0 -6 22 -23 22 -23 0
0 -15 -2 -14 -15 3 -14 19 -14 19 -15 -1 0 -17 -2 -17 -10 -5 -24 37 -13 49
53 53 34 2 65 4 70 5 4 1 7 -10 6 -25z m-151 -37 c15 -65 8 -102 -21 -110 -32
-9 -187 -7 -187 2 0 4 30 30 68 59 37 28 78 63 91 77 14 14 27 26 30 26 4 0
12 -24 19 -54z m-773 -29 c-8 -21 -18 -37 -21 -37 -9 0 6 52 18 68 18 21 19 7
3 -31z m185 -40 l65 -42 -99 -3 c-55 -1 -106 0 -113 2 -16 7 -17 58 -1 74 25
25 81 13 148 -31z m643 -164 c-13 -2 -33 -2 -45 0 -13 2 -3 4 22 4 25 0 35 -2
23 -4z"></path>
<path class="node" id="node2" d="M1098 1793 c-24 -6 -23 -48 1 -72 15 -15 28 -19 55 -14 24 4 36 2 36
-6 0 -6 7 -11 15 -11 18 0 18 -1 5 36 -6 17 -26 38 -50 52 -21 12 -40 21 -42
21 -2 -1 -11 -3 -20 -6z"></path>
<path class="node" id="node3" d="M1374 2098 c-19 -21 -19 -21 6 -13 14 4 35 7 48 7 12 0 22 6 22 14 0
22 -54 17 -76 -8z"></path>
<path class="node" id="node4" d="M1395 2069 c-10 -15 -2 -19 23 -12 12 3 19 9 16 14 -7 12 -31 11 -39
-2z"></path>
<path class="node" id="node5" d="M1260 1990 c0 -5 5 -10 11 -10 5 0 7 5 4 10 -3 6 -8 10 -11 10 -2 0
-4 -4 -4 -10z"></path>
<path class="node" id="node6" d="M715 99 c-4 -6 -13 -8 -20 -5 -15 5 -27 -16 -17 -30 4 -5 19 -10 35
-9 23 0 27 4 27 28 0 27 -13 36 -25 16z"></path>
<path class="node" id="node7" d="M751 98 c0 -7 4 -22 9 -33 7 -18 8 -19 15 -2 4 9 5 24 1 32 -7 18
-26 20 -25 3z"></path>
<path class="node" id="node8" d="M805 89 c5 -14 2 -25 -6 -30 -11 -7 -10 -9 4 -9 12 0 17 8 17 30 0
17 -5 30 -11 30 -6 0 -8 -9 -4 -21z"></path>
<path class="node" id="node9" d="M845 100 c3 -5 1 -19 -5 -30 -9 -17 -8 -20 8 -20 13 0 18 8 20 30 2
22 -2 30 -13 30 -9 0 -13 -4 -10 -10z"></path>
<path class="node" id="node10" d="M886 102 c-7 -12 5 -52 15 -52 5 0 9 14 9 30 0 28 -13 40 -24 22z"></path>
<path class="node" id="node11" d="M1176 102 c-4 -7 -4 -22 0 -35 7 -21 7 -21 15 -2 6 16 8 17 8 3 1
-13 9 -17 31 -15 16 1 30 6 30 11 0 5 7 3 15 -4 12 -10 19 -10 27 -2 15 15 31
15 22 1 -4 -7 -2 -10 5 -8 7 3 12 8 12 12 -1 4 -1 13 -1 20 0 13 -48 15 -68 3
-7 -4 -12 -3 -12 3 0 5 -16 8 -35 7 -19 -2 -36 2 -38 7 -2 7 -6 7 -11 -1z
m124 -32 c0 -5 -4 -10 -10 -10 -5 0 -10 5 -10 10 0 6 5 10 10 10 6 0 10 -4 10
-10z"></path>
<path class="node" id="node12" d="M1520 77 c1 -29 2 -31 14 -14 14 18 14 18 19 0 3 -12 5 -10 6 8 1 19
-5 28 -19 32 -17 4 -20 0 -20 -26z"></path>
<path class="node" id="node13" d="M637 93 c-14 -13 -7 -43 11 -43 15 0 15 2 2 11 -11 8 -12 12 -2 16 6
2 12 9 12 14 0 11 -14 12 -23 2z"></path>
<path class="node" id="node14" d="M992 92 c-25 -3 -32 -8 -30 -20 5 -24 48 -29 48 -5 1 16 2 16 13 2
15 -20 44 -20 52 0 5 13 7 13 15 1 4 -7 18 -15 29 -17 15 -2 21 3 21 17 0 11
-3 20 -7 21 -5 0 -20 2 -35 4 -17 2 -28 -1 -28 -8 0 -8 -3 -8 -8 -2 -8 11 -19
12 -70 7z"></path>
<path class="node" id="node15" d="M1409 95 c0 0 -2 -10 -5 -22 -3 -18 1 -23 16 -23 12 0 20 7 21 18 0
14 2 14 9 -3 7 -17 9 -17 9 -2 1 26 -2 31 -26 32 -13 0 -23 1 -24 0z"></path>
<path class="node" id="node16" d="M1484 85 c-7 -17 3 -35 19 -35 7 0 6 4 -3 11 -11 8 -12 12 -2 16 15
6 16 23 2 23 -6 0 -13 -7 -16 -15z"></path>
<path class="node" id="node17" d="M1593 88 c-22 -28 -21 -34 5 -36 22 -1 24 0 12 9 -11 8 -12 12 -2 16
14 5 17 23 3 23 -5 0 -13 -6 -18 -12z"></path>
<path class="node" id="node18" d="M1633 83 c-7 -19 4 -28 33 -28 15 -1 24 5 25 15 0 10 3 9 9 -5 8 -19
9 -19 9 -1 1 20 1 20 16 0 15 -18 15 -18 13 6 -3 23 -7 25 -51 26 -33 0 -51
-4 -54 -13z m27 -13 c0 -5 -4 -10 -10 -10 -5 0 -10 5 -10 10 0 6 5 10 10 10 6
0 10 -4 10 -10z"></path>
<path class="node" id="node19" d="M1360 70 c0 -12 7 -20 18 -20 14 0 15 2 2 10 -10 6 -11 10 -2 10 6 0
12 5 12 10 0 6 -7 10 -15 10 -8 0 -15 -9 -15 -20z"></path>
</g>
<g transform="translate(0.000000,300.000000) scale(0.100000,-0.100000)" fill="#8A9362" stroke="none">

<path class="node" id="node21" d="M1280 70 c0 -5 5 -10 10 -10 6 0 10 5 10 10 0 6 -4 10 -10 10 -5 0
-10 -4 -10 -10z"></path>
<path class="node" id="node22" d="M1640 70 c0 -5 5 -10 10 -10 6 0 10 5 10 10 0 6 -4 10 -10 10 -5 0
-10 -4 -10 -10z"></path>
<path class="node" id="node23" d="M526 2832 c49 -36 85 -108 113 -228 26 -113 26 -141 1 -232 -34 -122
-104 -210 -190 -237 -37 -11 -40 -14 -17 -14 99 -3 224 136 258 287 23 104
-15 286 -77 368 -24 31 -98 84 -119 84 -4 0 10 -13 31 -28z"></path>
<path class="node" id="node24" d="M241 2700 c-12 -22 -18 -40 -13 -40 9 0 45 70 39 76 -2 2 -14 -14
-26 -36z"></path>
<path class="node" id="node25" d="M2042 2594 c47 -51 81 -140 86 -227 7 -119 -9 -176 -69 -241 -27 -30
-61 -57 -75 -60 -15 -4 -24 -9 -21 -12 10 -10 73 24 105 56 112 112 125 340
25 451 -20 22 -46 45 -57 51 -17 9 -16 5 6 -18z"></path>
<path class="node" id="node26" d="M320 2560 c-10 -6 -11 -10 -2 -10 6 0 12 -7 12 -16 0 -14 -14 -15
-117 -9 -65 3 -126 9 -135 11 -12 4 -18 0 -18 -10 0 -9 6 -16 13 -16 63 -3
261 -38 265 -48 2 -7 -4 -12 -13 -12 -24 0 -13 -24 13 -28 15 -2 25 5 37 27
21 42 39 40 30 -1 l-7 -33 21 19 c26 23 30 96 6 116 -13 11 -15 8 -15 -19 0
-19 -4 -30 -10 -26 -5 3 -10 15 -10 25 0 11 -9 24 -19 30 -24 12 -32 12 -51 0z"></path>
<path class="node" id="node27" d="M1804 2516 c-9 -15 -14 -29 -12 -32 3 -2 13 7 22 22 10 14 15 28 13
31 -3 2 -13 -7 -23 -21z"></path>
<path class="node" id="node28" d="M794 2498 c3 -12 1 -27 -3 -32 -5 -6 -13 -31 -19 -56 -5 -25 -13 -53
-17 -62 -4 -11 2 -24 19 -39 17 -15 26 -33 26 -51 0 -56 33 -174 61 -221 16
-26 29 -56 29 -67 0 -11 20 -46 43 -77 46 -61 117 -178 117 -193 0 -5 6 -15
13 -22 38 -39 57 -75 67 -125 11 -53 35 -100 95 -191 27 -41 28 -41 56 -27 38
20 90 98 96 143 4 36 3 38 -48 62 -30 14 -55 31 -57 38 -5 16 17 15 37 -2 9
-7 31 -18 48 -24 31 -10 33 -9 39 14 10 41 -4 115 -34 174 -26 53 -29 55 -112
87 -66 25 -94 42 -125 76 -22 24 -59 58 -82 76 -28 21 -54 55 -75 98 -18 36
-43 84 -55 106 -12 23 -27 67 -33 97 -6 30 -15 73 -20 95 -5 24 -5 44 1 50 11
11 12 45 1 63 -5 7 -23 17 -41 22 -31 9 -33 8 -27 -12z m366 -720 c24 -14 44
-35 50 -52 13 -37 13 -36 -5 -36 -8 0 -15 5 -15 11 0 8 -12 10 -36 6 -27 -5
-40 -1 -55 14 -24 24 -25 66 -1 72 9 3 18 5 20 6 2 0 21 -9 42 -21z"></path>
<path class="node" id="node29" d="M900 2450 c0 -5 9 -10 20 -10 11 0 20 5 20 10 0 6 -9 10 -20 10 -11
0 -20 -4 -20 -10z"></path>

<path class="node" id="node31" d="M1710 2410 c0 -5 5 -10 10 -10 15 0 12 -41 -5 -60 -14 -16 -13 -19 8
-33 18 -12 24 -25 26 -63 1 -27 9 -56 18 -66 14 -16 14 -22 -5 -65 -11 -27
-23 -63 -27 -80 -6 -31 -5 -33 19 -33 18 0 30 -8 38 -25 13 -29 1 -49 -13 -22
-6 10 -22 17 -40 17 -38 0 -109 -69 -109 -105 0 -28 -12 -32 -30 -10 -16 19
-54 19 -70 0 -7 -9 -11 -17 -9 -18 2 -2 17 -11 32 -21 16 -9 45 -44 66 -77 37
-58 38 -59 49 -35 6 13 28 37 48 52 72 54 88 77 130 179 24 61 28 81 25 159
-2 86 -9 112 -57 221 -10 22 -19 49 -21 60 -2 11 -5 26 -8 33 -5 14 -75 17
-75 2z"></path>
<path class="node" id="node32" d="M1670 2380 c0 -5 10 -10 23 -10 18 0 19 2 7 10 -19 13 -30 13 -30 0z"></path>
<path class="node" id="node33" d="M1880 2376 c0 -18 -43 -33 -48 -17 -2 6 -8 11 -14 11 -17 0 14 -31
40 -41 15 -6 22 -15 18 -24 -8 -21 21 -19 42 2 16 16 17 15 20 0 6 -30 22 -7
22 31 0 32 -1 34 -13 18 -12 -17 -14 -16 -25 8 -12 28 -42 36 -42 12z"></path>
<path class="node" id="node34" d="M1357 2133 c-20 -20 -37 -46 -37 -58 0 -25 -18 -45 -40 -45 -9 0 -22
-12 -29 -26 -9 -22 -9 -30 2 -43 8 -9 12 -22 10 -29 -3 -7 -2 -28 1 -46 5 -27
15 -37 54 -55 26 -12 54 -26 62 -30 8 -4 31 -32 51 -62 47 -69 89 -110 89 -86
0 28 21 19 33 -13 14 -38 30 -44 59 -20 l23 18 -20 39 c-30 58 -108 129 -148
137 -19 4 -40 13 -47 21 -7 8 -18 15 -25 15 -19 0 -61 37 -53 46 4 4 26 -1 48
-11 26 -12 51 -16 76 -12 45 8 46 9 39 40 -5 20 -14 27 -38 30 l-32 3 31 8
c36 9 61 58 39 76 -8 7 -13 27 -11 48 2 28 -3 44 -22 65 -36 38 -70 35 -115
-10z m93 -27 c0 -8 -10 -14 -22 -14 -13 0 -34 -3 -48 -7 -25 -8 -25 -8 -6 13
22 25 76 30 76 8z m-16 -35 c3 -5 -4 -11 -16 -14 -25 -7 -33 -3 -23 12 8 13
32 14 39 2z m-159 -81 c3 -5 1 -10 -4 -10 -6 0 -11 5 -11 10 0 6 2 10 4 10 3
0 8 -4 11 -10z"></path>
<path class="node" id="node35" d="M1491 1219 c-61 -28 -112 -63 -170 -118 -15 -14 -44 -39 -65 -55 -89
-68 -118 -164 -75 -253 57 -119 237 -99 298 33 29 64 40 91 53 133 15 50 46
74 34 26 -15 -60 -18 -91 -7 -75 7 10 8 -23 4 -110 -3 -69 -1 -141 4 -160 8
-32 12 -35 52 -38 24 -2 48 1 53 6 13 13 50 217 57 322 4 68 10 94 19 93 15
-4 17 93 2 132 -11 30 -66 57 -98 48 -29 -7 -28 12 0 32 22 14 20 15 -37 14
-42 -1 -79 -10 -124 -30z"></path>
<path class="node" id="node36" d="M1710 1236 c0 -2 7 -7 16 -10 8 -3 12 -2 9 4 -6 10 -25 14 -25 6z"></path>
<path class="node" id="node37" d="M1268 1153 c12 -2 32 -2 45 0 12 2 2 4 -23 4 -25 0 -35 -2 -22 -4z"></path>
<path class="node" id="node38" d="M1435 708 c-38 -11 -100 -21 -136 -21 -72 -2 -91 -12 -116 -61 -13
-26 -78 -96 -89 -96 -1 0 -4 12 -6 26 -4 37 -58 64 -125 64 -41 0 -54 -4 -63
-19 -5 -11 -10 -22 -10 -26 0 -16 115 -116 157 -136 26 -12 60 -31 75 -41 43
-29 108 -24 149 12 19 17 68 56 109 88 41 31 92 72 112 90 35 31 37 36 33 85
-2 28 -7 52 -12 53 -4 1 -39 -8 -78 -18z"></path>
<path class="node" id="node39" d="M823 660 c21 -14 13 -31 -11 -24 -16 5 -16 5 1 -6 9 -6 17 -15 17
-20 0 -6 -8 -10 -17 -11 -13 0 -11 -3 7 -10 24 -10 24 -11 6 -25 -19 -14 -19
-14 2 -14 12 0 22 -4 22 -10 0 -5 5 -10 10 -10 6 0 8 15 4 39 -4 22 -1 47 6
61 14 26 13 28 -31 36 -28 4 -31 3 -16 -6z"></path>
<path class="node" id="node40" d="M1623 583 c-66 -4 -77 -16 -53 -53 8 -12 10 -12 10 5 1 20 1 20 15 1
13 -17 15 -18 15 -3 0 22 17 22 23 0 4 -17 5 -17 6 0 1 20 17 23 24 5 3 -8 6
-6 6 5 1 20 17 23 24 5 3 -7 6 -1 6 15 1 15 -2 26 -6 25 -5 -1 -36 -3 -70 -5z"></path>

<path class="node" id="node42" d="M772 528 c-12 -16 -27 -68 -18 -68 7 0 38 72 33 77 -2 2 -9 -2 -15
-9z"></path>

<path class="node" id="node44" d="M1558 293 c12 -2 32 -2 45 0 12 2 2 4 -23 4 -25 0 -35 -2 -22 -4z"></path>
</g>
</svg>