<!--?xml version="1.0" standalone="no"?-->

<svg version="1.0" xmlns="http://www.w3.org/2000/svg" width="263.000000pt" height="300.000000pt" viewBox="0 0 263.000000 300.000000" preserveAspectRatio="xMidYMid meet">
<g transform="translate(0.000000,300.000000) scale(0.100000,-0.100000)" fill="#050505" stroke="none">
<path class="node" id="node1" d="M1693 2977 c3 -12 11 -128 18 -259 l13 -236 27 -6 c63 -12 306 -19
313 -8 4 6 17 71 31 144 13 73 31 171 39 218 25 136 32 126 -81 134 -54 4
-134 11 -178 16 -193 22 -188 22 -182 -3z"></path>
<path class="node" id="node2" d="M1360 2530 c-19 -12 -231 -110 -237 -110 -2 0 -28 -11 -56 -24 -29
-13 -87 -40 -130 -60 -60 -28 -121 -72 -260 -188 -235 -195 -223 -182 -152
-158 33 11 69 24 80 30 18 9 189 74 360 137 69 26 146 48 278 79 l67 16 14 52
c8 28 24 85 35 126 11 41 23 83 26 93 8 19 -1 21 -25 7z"></path>
<path class="node" id="node3" d="M1417 2467 c-10 -39 -27 -106 -36 -147 -21 -86 -43 -173 -71 -280
-10 -41 -30 -119 -43 -173 l-25 -99 222 -108 c121 -60 226 -110 233 -112 6 -2
38 35 70 82 64 92 384 567 397 588 5 8 -5 17 -31 28 -21 9 -56 24 -78 34 -22
10 -96 41 -165 70 -347 146 -406 171 -422 180 -29 16 -32 13 -51 -63z"></path>
<path class="node" id="node4" d="M2149 2095 c-39 -53 -75 -98 -80 -101 -22 -13 -2 -28 112 -84 67 -33
123 -61 125 -63 2 -2 -10 -39 -27 -83 -17 -43 -39 -104 -50 -134 -11 -30 -26
-70 -35 -88 -9 -19 -14 -35 -12 -37 1 -2 102 94 223 213 190 187 217 217 202
226 -10 6 -99 64 -198 129 -99 64 -181 117 -184 117 -2 0 -36 -43 -76 -95z"></path>
<path class="node" id="node5" d="M1095 1607 c-56 -51 -149 -133 -207 -184 l-107 -92 -133 -25 c-73
-14 -191 -37 -263 -51 -71 -14 -172 -33 -223 -43 -99 -18 -120 -32 -47 -32 24
0 88 -4 142 -10 54 -5 217 -17 363 -26 l266 -15 149 71 c82 39 152 69 156 68
4 -2 -13 -97 -36 -213 -41 -196 -58 -274 -122 -545 -13 -58 -33 -143 -43 -190
-10 -47 -28 -121 -39 -165 -12 -44 -21 -89 -21 -100 l1 -20 11 20 c6 11 54 90
106 175 53 85 123 200 157 255 34 55 88 143 121 195 33 52 69 118 81 145 152
359 273 652 273 663 0 6 -5 12 -12 12 -6 0 -30 9 -52 19 -23 11 -108 49 -191
86 -82 36 -162 72 -177 80 -14 8 -32 15 -40 14 -7 0 -58 -42 -113 -92z"></path>
<path class="node" id="node6" d="M460 963 c-8 -3 -42 -19 -76 -34 -57 -27 -62 -33 -93 -98 -30 -65
-31 -71 -22 -131 11 -65 14 -71 73 -132 l37 -38 90 0 89 0 61 46 c34 25 61 51
61 57 1 7 7 38 14 69 13 54 13 60 -13 134 l-27 77 -60 22 c-71 27 -114 36
-134 28z"></path>
</g>
<g transform="translate(0.000000,300.000000) scale(0.100000,-0.100000)" fill="#A1A1A1" stroke="none">

</g>
</svg>