<!--?xml version="1.0" standalone="no"?-->

<svg version="1.0" xmlns="http://www.w3.org/2000/svg" width="155.000000pt" height="300.000000pt" viewBox="0 0 155.000000 300.000000" preserveAspectRatio="xMidYMid meet">
<g transform="translate(0.000000,300.000000) scale(0.100000,-0.100000)" fill="#101010" stroke="none">
<path class="node" id="node1" d="M213 2878 c-13 -6 -23 -14 -23 -18 0 -5 -21 -22 -48 -38 -44 -29
-104 -97 -132 -151 -9 -18 -9 -61 0 -200 7 -97 11 -259 9 -361 l-4 -185 75 -2
c95 -2 469 -68 536 -94 l51 -20 -5 -177 c-3 -155 -1 -197 22 -335 l25 -159
-19 -91 c-10 -51 -26 -155 -35 -232 -9 -77 -25 -196 -36 -265 -13 -85 -19
-178 -19 -292 0 -172 -2 -179 -40 -158 -13 7 -40 2 -101 -19 -115 -40 -149
-54 -149 -62 0 -17 38 -18 115 -2 73 15 88 15 125 3 42 -14 43 -14 69 16 27
30 27 31 40 275 15 303 25 404 57 594 26 152 37 184 49 146 7 -24 115 -120
191 -171 27 -18 66 -49 87 -68 l37 -36 0 -91 c0 -49 -5 -121 -11 -160 -5 -38
-14 -124 -19 -190 -9 -116 -9 -122 17 -193 l26 -73 24 28 c13 15 33 48 44 73
11 24 26 48 32 52 20 13 75 9 114 -7 19 -8 38 -15 42 -15 13 0 43 62 35 70
-15 13 -76 30 -108 30 -42 0 -67 -19 -106 -80 -18 -28 -35 -48 -38 -45 -4 3
-14 27 -24 52 -17 46 -17 49 12 220 31 179 37 292 20 338 -15 38 -60 88 -172
189 -54 49 -114 110 -134 138 -36 48 -37 49 -57 31 -20 -18 -20 -17 -15 4 3
12 -5 86 -18 165 -17 105 -24 183 -24 294 0 172 5 215 26 207 8 -3 49 4 92 15
117 32 494 85 594 84 84 -1 86 0 92 24 4 14 2 62 -5 107 -11 84 -8 225 12 450
6 65 7 132 4 148 -18 79 -204 224 -303 236 -44 5 -53 3 -75 -19 -49 -49 -59
-260 -15 -305 18 -17 111 -34 151 -26 46 9 86 31 118 66 16 17 30 29 33 26 2
-2 -1 -58 -7 -124 -12 -136 -15 -444 -5 -491 l7 -30 -82 4 c-62 3 -136 -5
-303 -32 -121 -20 -229 -36 -240 -36 -10 0 -32 -7 -48 -15 l-28 -15 5 33 c4
17 11 70 17 117 6 47 14 88 18 91 4 4 24 12 44 18 50 16 144 118 190 206 97
187 102 346 12 425 -40 35 -91 40 -151 15 -31 -13 -48 -14 -113 -4 -156 24
-288 -42 -354 -176 -112 -230 -12 -436 239 -488 39 -8 69 -19 68 -25 -1 -5 -8
-52 -14 -103 -6 -52 -13 -96 -15 -98 -2 -2 -9 1 -16 7 -7 5 -89 24 -183 42
-260 50 -276 52 -340 48 l-60 -4 0 236 c-1 129 -4 274 -8 323 -8 89 -1 107 23
62 23 -43 78 -70 140 -69 102 1 115 21 115 174 0 101 -14 154 -46 170 -23 13
-78 12 -106 -2z m62 -55 c4 -10 9 -58 12 -108 5 -94 -6 -145 -31 -145 -25 0
-73 48 -90 90 -9 22 -23 40 -31 40 -22 0 -18 17 11 56 23 30 97 84 115 84 4 0
10 -8 14 -17z m1010 -7 c41 -17 137 -105 129 -117 -3 -5 -13 -9 -23 -9 -10 0
-22 -13 -30 -36 -12 -35 -80 -94 -107 -94 -26 0 -38 44 -38 130 0 76 14 140
29 140 3 0 21 -6 40 -14z m-338 -66 c43 -26 65 -71 71 -146 9 -117 -71 -309
-171 -412 -50 -52 -53 -54 -97 -49 -114 13 -226 83 -273 172 -18 33 -22 57
-22 135 0 84 3 101 29 154 16 32 48 79 72 104 l43 45 78 -6 c43 -3 97 -12 120
-21 39 -14 47 -14 80 1 l38 15 -30 13 -30 13 30 1 c17 1 44 -8 62 -19z"></path>
</g>
<g transform="translate(0.000000,300.000000) scale(0.100000,-0.100000)" fill="#A0A0A0" stroke="none">

<path class="node" id="node3" d="M214 2815 c-41 -24 -94 -84 -94 -104 0 -6 7 -11 15 -11 8 0 22 -18
31 -40 17 -42 65 -90 90 -90 25 0 36 51 31 145 -5 87 -12 125 -26 125 -3 0
-25 -11 -47 -25z"></path>
<path class="node" id="node4" d="M1228 2803 c-6 -16 -12 -66 -12 -113 0 -86 12 -130 38 -130 27 0 95
59 107 94 8 23 20 36 30 36 34 0 28 18 -21 64 -42 40 -102 76 -125 76 -3 0
-11 -12 -17 -27z"></path>


</g>
</svg>