<!--?xml version="1.0" standalone="no"?-->

<svg version="1.0" xmlns="http://www.w3.org/2000/svg" width="300.000000pt" height="300.000000pt" viewBox="0 0 300.000000 300.000000" preserveAspectRatio="xMidYMid meet">
<g transform="translate(0.000000,300.000000) scale(0.100000,-0.100000)" fill="#050505" stroke="none">
<path class="node" id="node1" d="M315 2923 c-37 -6 -73 -37 -92 -81 -14 -33 -12 -57 10 -100 17 -36
340 -291 389 -307 24 -8 117 -28 208 -45 91 -17 179 -34 195 -39 17 -5 49 -12
71 -16 41 -6 42 -7 38 -43 -2 -20 -7 -206 -10 -413 l-6 -377 -39 -62 -39 -61
-53 27 c-28 16 -97 54 -152 85 -111 62 -197 109 -325 177 -72 37 -91 43 -127
39 -80 -9 -143 -78 -143 -156 0 -87 33 -125 170 -197 30 -15 105 -56 165 -90
420 -234 462 -255 514 -256 74 0 105 23 182 137 37 55 71 99 74 98 11 -4 225
-296 225 -307 0 -10 70 -184 106 -263 8 -17 14 -34 14 -38 0 -4 7 -23 16 -43
9 -21 25 -55 34 -77 10 -22 31 -71 45 -110 64 -164 115 -271 141 -296 29 -27
93 -39 147 -27 71 16 117 74 117 148 0 36 -45 164 -104 295 -8 17 -24 55 -36
85 -12 30 -30 73 -41 96 -10 23 -19 45 -19 49 0 4 -6 21 -14 38 -8 18 -26 61
-41 97 -15 36 -33 79 -41 95 -7 17 -23 56 -35 89 -13 37 -55 103 -113 180
-137 180 -127 156 -111 261 8 50 23 140 34 200 10 61 28 169 40 242 22 137 29
166 40 161 3 -2 38 -18 76 -36 39 -18 88 -41 110 -52 325 -156 359 -168 416
-150 43 15 76 54 80 96 8 97 -1 104 -311 246 -30 14 -86 40 -125 58 -38 18
-104 48 -145 67 -41 19 -165 64 -275 100 -110 36 -247 81 -304 100 -57 19
-138 41 -180 49 -416 81 -365 62 -540 202 -84 67 -158 122 -166 122 -7 0 -19
2 -27 3 -7 2 -26 2 -43 0z"></path>
<path class="node" id="node2" d="M1570 2909 c-33 -13 -88 -66 -108 -104 -9 -18 -16 -55 -16 -93 0 -53
5 -68 30 -104 37 -54 81 -83 134 -92 109 -17 192 31 230 131 21 57 26 98 11
107 -4 3 -11 19 -14 34 -8 41 -54 92 -102 113 -43 20 -125 24 -165 8z"></path>
<path class="node" id="node3" d="M2391 710 c-72 -31 -131 -118 -131 -193 0 -49 43 -131 86 -163 34
-26 45 -29 119 -29 70 0 86 3 117 25 20 13 48 42 63 65 23 36 26 48 23 111 -6
121 -70 186 -187 191 -36 2 -77 -2 -90 -7z"></path>
</g>
<g transform="translate(0.000000,300.000000) scale(0.100000,-0.100000)" fill="#FFFFFF" stroke="none">

</g>
</svg>