<!--?xml version="1.0" standalone="no"?--><svg version="1.0" xmlns="http://www.w3.org/2000/svg" width="286.000000pt" height="300.000000pt" viewBox="0 0 286.000000 300.000000" preserveAspectRatio="xMidYMid meet">
<metadata>
  <rdf:rdf xmlns:rdf="http://www.w3.org/1999/02/22-rdf-syntax-ns#" xmlns:rdfs="http://www.w3.org/2000/01/rdf-schema#" xmlns:dc="http://purl.org/dc/elements/1.1/">
    <rdf:description dc:title="sports clipart" dc:publisher="Hiox" dc:date="2015-06-12" dc:format="image/svg+xml" dc:language="en">
      <dc:creator>
        <rdf:bag>
          <rdf:li>svgimages.com</rdf:li>
        </rdf:bag>
      </dc:creator>
    </rdf:description>
  </rdf:rdf>
</metadata>
<g transform="translate(0.000000,300.000000) scale(0.100000,-0.100000)" fill="#383838" stroke="none">
<path class="node" id="node1" d="M1283 2980 c-33 -20 -73 -88 -73 -124 0 -35 39 -100 73 -123 62 -42
160 -23 201 40 9 13 18 43 22 68 14 116 -121 202 -223 139z m101 -9 c3 -5 -19
-19 -49 -32 -30 -13 -55 -27 -55 -32 0 -12 51 4 96 30 24 13 48 21 58 17 37
-14 67 -114 35 -114 -5 0 -7 -11 -3 -24 4 -18 -1 -30 -23 -50 -40 -37 -113
-48 -113 -16 0 9 76 54 92 55 4 0 13 6 20 13 10 10 9 12 -5 12 -19 0 -114 -47
-123 -61 -11 -18 -35 -8 -54 24 -24 38 -26 92 -5 101 8 3 12 11 10 19 -13 33
100 89 119 58z"></path>
<path class="node" id="node2" d="M776 2865 c-74 -28 -143 -92 -182 -168 -35 -68 -37 -181 -5 -257 74
-170 266 -247 426 -171 74 34 160 125 177 186 6 22 11 72 12 110 1 57 -4 81
-26 127 -30 66 -90 128 -151 160 -54 28 -193 35 -251 13z m157 -11 c42 -7 50
-24 12 -24 -42 0 -90 -25 -141 -74 -37 -36 -54 -46 -71 -41 l-23 5 20 51 c10
28 21 54 24 57 8 7 97 31 121 31 11 1 37 -2 58 -5z m156 -80 c41 -36 81 -106
81 -139 0 -16 -2 -17 -17 -3 -10 9 -43 28 -73 44 -66 33 -161 38 -203 11 -23
-15 -28 -15 -56 -1 -17 9 -31 19 -31 24 0 14 77 70 117 85 21 7 62 14 90 14
47 1 57 -3 92 -35z m-391 -17 c-9 -29 -16 -37 -35 -37 -13 0 -23 3 -23 7 0 8
62 74 66 70 2 -2 -2 -20 -8 -40z m-28 -62 c0 -3 -18 -34 -40 -67 -35 -54 -40
-58 -40 -35 0 15 7 45 16 67 13 31 21 40 40 40 13 0 24 -2 24 -5z m70 -8 c0
-2 -9 -30 -21 -63 -25 -70 -36 -204 -21 -256 6 -21 7 -38 2 -38 -14 0 -83 92
-96 129 -21 57 -17 74 31 135 24 31 47 66 50 77 4 12 15 19 31 19 13 0 24 -2
24 -3z m299 -21 c47 -17 138 -75 145 -92 11 -29 -41 -184 -62 -184 -4 0 -19
19 -34 43 -39 62 -123 157 -170 194 -40 33 -40 33 -17 42 36 14 91 13 138 -3z
m-226 -5 c25 -10 25 -10 10 -53 -23 -65 -10 -146 38 -245 21 -44 39 -86 39
-93 0 -14 -78 -4 -127 15 -25 11 -34 22 -43 57 -17 61 -7 232 15 286 19 44 28
48 68 33z m115 -77 c52 -46 122 -131 157 -191 18 -32 18 -33 -1 -54 -20 -22
-112 -69 -137 -69 -24 0 -98 166 -104 231 -7 68 3 129 20 129 7 0 36 -21 65
-46z"></path>
<path class="node" id="node3" d="M1791 2869 c-53 -10 -134 -61 -167 -105 -61 -80 -80 -195 -47 -288
24 -65 95 -143 158 -172 72 -34 187 -34 253 0 155 79 215 249 142 402 -61 126
-197 192 -339 163z m-21 -49 c0 -31 -34 -69 -82 -93 -64 -32 -82 -22 -43 25
50 59 125 100 125 68z m243 -12 c64 -44 107 -108 73 -108 -25 0 -98 47 -117
76 -36 56 -13 72 44 32z m-91 -10 c9 -7 23 -24 32 -38 15 -25 14 -28 -11 -63
-24 -34 -30 -37 -74 -37 -43 0 -50 3 -79 40 -27 34 -30 42 -19 62 22 43 31 48
83 48 29 0 59 -6 68 -12z m-299 -181 c-6 -65 -17 -97 -33 -97 -15 0 -12 97 5
136 21 51 34 34 28 -39z m511 32 c9 -47 7 -127 -3 -134 -19 -11 -41 39 -41 96
0 30 3 59 7 62 15 16 31 5 37 -24z m-201 -42 c35 -43 37 -70 7 -119 -21 -36
-25 -38 -73 -38 -61 0 -69 4 -91 47 -21 42 -21 45 14 97 21 31 39 46 58 48 46
6 55 2 85 -35z m-206 -72 c6 -2 21 -25 32 -50 20 -45 20 -48 4 -76 -19 -32
-18 -32 -61 -23 -34 7 -82 68 -82 104 0 43 17 59 58 54 20 -3 42 -7 49 -9z
m363 -16 c15 -27 6 -63 -27 -105 -20 -27 -33 -34 -59 -34 -27 0 -36 6 -49 30
-15 29 -15 33 11 80 26 48 29 50 70 50 34 0 46 -5 54 -21z m-324 -170 c3 -6
25 -19 48 -29 22 -10 33 -19 23 -19 -33 -2 -102 20 -127 39 l-25 20 37 0 c20
0 40 -5 44 -11z m254 3 c0 -13 -61 -42 -103 -48 -49 -8 -47 -3 13 29 44 23 90
33 90 19z"></path>
<path class="node" id="node4" d="M2121 2279 c-155 -30 -271 -176 -271 -343 0 -148 95 -271 249 -321
114 -37 247 2 340 100 72 76 85 110 85 230 0 89 -2 105 -26 150 -75 141 -224
214 -377 184z m85 -44 c-8 -9 -20 -32 -26 -53 -13 -48 -13 -212 0 -212 6 0 10
19 10 43 0 59 18 177 31 210 10 25 16 27 43 22 40 -9 105 -41 135 -68 91 -84
121 -213 82 -347 -13 -42 -91 -134 -134 -157 -31 -15 -87 -34 -87 -29 0 2 18
15 40 30 40 26 70 70 57 82 -3 4 -18 -8 -33 -25 -28 -34 -92 -71 -121 -71 -21
0 -6 -16 22 -23 11 -3 -1 -5 -26 -6 -124 -3 -255 86 -299 204 -31 83 -25 189
15 258 53 93 157 156 258 157 44 0 47 -2 33 -15z"></path>
<path class="node" id="node5" d="M2020 2174 c-11 -28 -13 -168 -4 -226 4 -23 12 -38 20 -38 11 0 13 9
7 43 -10 56 -10 174 0 215 10 39 -9 45 -23 6z"></path>
<path class="node" id="node6" d="M2274 2159 c-8 -13 -10 -12 66 -38 36 -13 75 -33 87 -44 32 -29 42
-13 12 19 -30 32 -41 38 -106 57 -34 10 -55 12 -59 6z"></path>
<path class="node" id="node7" d="M1919 2065 c-14 -22 -18 -131 -6 -165 11 -33 36 -42 29 -10 -2 8 -7
53 -10 100 -4 47 -10 81 -13 75z"></path>
<path class="node" id="node8" d="M2242 2048 c2 -6 29 -17 59 -23 66 -13 90 -26 145 -77 48 -44 55 -41
24 9 -21 35 -74 73 -129 91 -45 16 -104 16 -99 0z"></path>
<path class="node" id="node9" d="M2216 1941 c-3 -5 23 -23 58 -40 36 -17 85 -52 110 -78 34 -34 46
-42 46 -28 0 26 -72 91 -140 125 -66 33 -67 34 -74 21z"></path>
<path class="node" id="node10" d="M2137 1883 c-27 -19 -78 -46 -115 -61 -68 -27 -89 -50 -42 -44 41 5
163 68 193 100 41 43 20 45 -36 5z"></path>
<path class="node" id="node11" d="M2202 1775 c-35 -29 -83 -60 -108 -70 -52 -20 -60 -40 -11 -30 47 10
106 47 155 98 62 63 39 64 -36 2z"></path>
<path class="node" id="node12" d="M599 2191 c-97 -31 -185 -104 -229 -191 -33 -64 -51 -167 -37 -209
20 -60 62 -76 197 -76 102 1 121 3 171 27 122 56 222 193 235 324 8 79 -8 99
-101 125 -84 23 -161 23 -236 0z m261 -30 c58 -21 63 -50 21 -117 -17 -26 -31
-51 -31 -56 0 -19 -107 -136 -150 -163 -64 -40 -136 -58 -209 -52 -36 3 -76 9
-88 13 -13 3 -23 2 -23 -4 0 -13 77 -32 129 -32 55 0 139 19 181 40 74 38 172
153 204 240 l17 45 -6 -45 c-12 -90 -107 -215 -196 -258 -26 -12 -79 -29 -118
-36 -62 -12 -81 -12 -137 1 -38 9 -73 24 -84 36 -23 24 -24 31 -7 49 7 7 18
27 25 43 8 17 27 52 44 78 23 37 35 46 49 42 20 -7 26 9 9 20 -18 11 2 27 26
21 24 -6 33 7 14 19 -20 12 2 26 31 20 30 -7 37 3 17 23 -13 13 -4 16 39 12
17 -1 21 3 17 14 -7 18 9 21 37 6 13 -8 19 -7 19 0 0 21 51 31 119 21 75 -10
87 -7 45 11 -41 18 -224 19 -224 1 0 -8 -11 -13 -28 -13 -16 0 -32 -8 -40 -20
-6 -11 -18 -17 -26 -14 -8 3 -16 -3 -19 -15 -3 -13 -13 -21 -27 -21 -15 0 -20
-5 -17 -14 7 -18 -12 -36 -31 -28 -11 4 -14 1 -9 -12 4 -10 -3 -31 -17 -54
-14 -20 -32 -56 -42 -80 -24 -62 -30 -43 -9 30 34 123 102 204 204 242 37 14
77 27 91 29 42 8 152 -5 200 -22z"></path>
<path class="node" id="node13" d="M1007 1823 c-8 -10 -17 -29 -19 -43 -3 -22 -8 -25 -38 -24 -19 1 -43
3 -54 5 -25 5 -44 -25 -30 -48 16 -25 34 -27 34 -4 0 18 4 20 25 15 64 -16 83
-9 95 35 16 59 65 70 99 22 27 -37 85 -50 129 -27 16 8 49 17 73 18 40 3 43 1
51 -29 11 -42 20 -46 97 -47 l65 -1 11 -39 c6 -21 21 -49 32 -62 12 -13 17
-24 12 -24 -20 0 -7 -27 26 -53 20 -16 48 -47 63 -70 23 -36 27 -52 27 -117 0
-81 -9 -103 -69 -168 -122 -133 -350 -101 -432 59 -13 27 -29 49 -34 49 -13 0
-13 -36 0 -61 19 -34 -33 -23 -81 17 -39 32 -47 35 -84 29 -55 -8 -73 1 -91
43 -8 19 -13 36 -12 37 2 1 21 5 44 8 35 6 44 3 64 -18 25 -26 92 -50 116 -41
8 3 14 12 14 21 0 11 -11 15 -41 15 -32 0 -49 7 -77 31 -31 27 -41 31 -80 26
-42 -5 -45 -3 -57 27 -16 37 -12 42 43 49 34 4 44 2 52 -13 30 -56 116 -69
174 -25 26 20 42 26 61 21 36 -9 33 18 -5 34 -27 11 -34 9 -78 -19 -27 -17
-58 -31 -68 -31 -11 0 -35 16 -53 34 -33 34 -36 35 -107 33 -76 -2 -82 -5 -63
-24 9 -9 3 -14 -22 -20 -27 -7 -35 -15 -37 -37 -5 -43 -34 -29 -53 26 -8 26
-18 50 -21 54 -6 6 -128 -72 -128 -81 0 -11 39 -146 45 -155 4 -6 38 -26 76
-45 66 -32 71 -33 97 -19 27 16 27 15 102 -58 56 -55 94 -83 148 -108 39 -18
72 -35 72 -38 0 -2 -14 -32 -31 -65 -35 -69 -33 -72 46 -82 27 -3 69 -8 91
-11 l41 -6 7 -56 c4 -31 9 -66 12 -78 5 -21 3 -21 -38 -13 -67 13 -88 11 -88
-7 0 -14 -6 -15 -37 -9 -87 17 -88 16 -91 -48 l-3 -59 -44 40 c-115 107 -217
107 -246 -1 -33 -121 95 -358 231 -427 71 -36 127 -21 155 41 25 54 15 128
-29 224 -30 64 -36 89 -36 143 l0 65 47 -7 c26 -3 53 -12 59 -19 6 -6 19 -43
27 -82 19 -85 33 -125 46 -125 5 0 41 18 80 41 69 39 72 40 139 34 95 -10 200
9 286 50 39 19 109 46 155 60 46 14 86 26 88 28 2 2 -8 34 -22 72 -14 37 -24
69 -23 70 2 2 37 30 78 64 l75 61 3 -113 c1 -61 -1 -146 -6 -187 -10 -94 -1
-138 33 -167 78 -68 222 28 306 203 56 119 61 224 11 277 -63 67 -184 9 -279
-134 l-28 -43 -3 107 c-1 59 -5 107 -8 107 -4 0 -34 -22 -68 -48 -33 -27 -76
-59 -95 -72 l-34 -24 -22 28 -22 28 -42 -30 -41 -30 -40 35 c-22 20 -37 39
-34 44 2 4 40 27 84 51 86 46 93 58 59 103 -18 22 -20 28 -8 36 60 36 138 119
180 189 8 13 10 13 18 1 8 -12 24 -12 102 -2 51 7 98 16 105 22 6 5 32 35 57
67 l46 59 -55 54 -54 53 -38 -37 c-20 -20 -52 -39 -70 -43 -32 -6 -32 -6 -32
35 0 36 -3 41 -27 47 -16 3 -34 7 -41 10 -12 4 -32 -23 -74 -102 l-21 -41 33
-41 c31 -39 32 -43 19 -74 -16 -39 -136 -163 -168 -173 -16 -5 -33 1 -60 19
-20 14 -43 26 -50 26 -7 0 -33 -18 -58 -39 -45 -40 -162 -89 -183 -76 -5 3
-10 17 -10 31 0 19 5 24 26 24 74 0 201 108 224 192 28 96 -2 199 -81 276 -37
36 -40 42 -22 42 12 0 33 -4 48 -10 21 -8 24 -14 19 -36 -6 -22 -4 -25 12 -22
27 5 30 50 5 72 -11 10 -39 22 -62 27 -55 13 -67 23 -75 65 -7 40 -49 77 -79
70 -11 -2 -37 -8 -57 -11 -37 -7 -38 -7 -38 23 0 57 -77 80 -157 47 -52 -22
-78 -19 -111 15 -36 36 -98 42 -125 13z m1083 -403 c0 -36 4 -50 14 -50 29 0
102 32 128 57 l26 25 36 -27 c20 -15 36 -33 36 -40 0 -7 -19 -34 -42 -59 -41
-44 -46 -46 -123 -56 l-80 -11 -42 48 c-24 26 -43 54 -43 61 0 27 52 102 71
102 16 0 19 -7 19 -50z m-1381 -14 c19 -44 70 -84 91 -71 6 3 10 22 10 41 0
26 4 34 18 34 13 0 23 -17 39 -64 24 -74 24 -73 -55 -117 l-43 -23 -62 31
c-60 30 -62 32 -81 92 -15 49 -16 64 -6 76 7 8 18 15 25 15 7 0 18 7 25 15 7
8 14 15 16 15 2 0 12 -20 23 -44z m232 -172 c9 -11 26 -15 58 -12 38 2 52 -2
83 -25 22 -17 55 -31 80 -34 28 -4 53 -15 73 -34 38 -35 120 -72 159 -71 17 0
36 -4 43 -10 15 -12 18 -48 4 -48 -37 0 -186 33 -222 50 l-44 20 -22 -27 -22
-27 -84 42 c-63 31 -99 57 -137 99 l-52 57 22 18 c27 22 44 23 61 2z m898
-227 c12 -14 20 -30 17 -36 -4 -5 -40 -29 -82 -51 -80 -45 -104 -44 -104 6 0
25 -15 40 -25 24 -13 -21 18 -88 54 -115 20 -16 44 -38 53 -50 l17 -22 -74 -6
c-93 -8 -211 -39 -292 -77 -47 -22 -64 -26 -72 -16 -19 23 -32 110 -25 173 5
54 4 63 -10 63 -11 0 -16 -9 -16 -26 0 -25 -1 -25 -57 -19 -83 9 -113 16 -113
24 0 14 59 139 68 145 5 3 32 -4 61 -14 67 -26 185 -38 266 -29 64 8 155 47
205 87 l25 20 40 -28 c22 -15 51 -39 64 -53z m582 -138 c19 -19 21 -30 17 -95
-4 -59 -12 -89 -42 -149 -81 -165 -229 -255 -267 -164 -42 103 56 322 180 400
54 34 84 36 112 8z m-1533 -253 c151 -78 269 -343 188 -424 -24 -25 -25 -25
-68 -9 -60 23 -112 68 -157 137 -52 78 -81 159 -81 225 0 46 4 56 26 74 33 26
35 26 92 -3z"></path>
<path class="node" id="node14" d="M737 1733 c-13 -13 -7 -61 11 -84 19 -23 88 -49 131 -49 14 0 33 7
43 17 16 14 24 15 73 3 55 -13 55 -13 99 18 72 52 111 42 167 -39 14 -20 25
-24 65 -23 27 1 63 5 80 9 26 6 34 3 51 -19 12 -14 26 -26 32 -26 35 0 -21 65
-65 76 -18 5 -38 1 -61 -11 -41 -22 -74 -11 -98 34 -34 66 -132 82 -198 32
-34 -26 -42 -28 -70 -19 -67 21 -78 21 -101 -1 -21 -20 -26 -21 -70 -9 -52 14
-71 37 -62 74 6 23 -11 34 -27 17z"></path>
<path class="node" id="node15" d="M666 1631 c-11 -17 43 -68 94 -90 28 -12 72 -25 98 -28 39 -4 50 -2
66 16 24 26 51 27 99 1 44 -24 63 -25 110 -5 55 23 88 19 180 -20 36 -15 16
15 -24 35 -59 30 -129 36 -183 16 -43 -17 -46 -16 -85 3 -52 27 -102 27 -126
0 -16 -16 -26 -19 -60 -13 -50 8 -111 41 -130 71 -16 24 -30 29 -39 14z"></path>
<path class="node" id="node16" d="M1440 1475 c-7 -8 -10 -22 -6 -30 4 -13 10 -14 26 -5 11 6 20 17 20
24 0 20 -27 27 -40 11z"></path>
<path class="node" id="node17" d="M1507 1464 c-10 -10 12 -44 28 -44 18 0 20 21 3 38 -13 13 -22 15
-31 6z"></path>
<path class="node" id="node18" d="M1351 1378 c12 -24 28 -51 37 -61 22 -25 99 -57 137 -57 60 0 145 50
145 85 0 22 -7 19 -54 -20 -38 -31 -50 -35 -98 -35 -71 0 -124 37 -149 103 -6
15 -17 27 -25 27 -11 0 -10 -9 7 -42z"></path>









































</g>
<g transform="translate(0.000000,300.000000) scale(0.100000,-0.100000)" fill="#FFFFFF" stroke="none">

<path class="node" id="node61" d="M807 2846 c-26 -7 -50 -15 -53 -18 -3 -3 -14 -29 -24 -57 l-20 -51
23 -5 c17 -5 34 5 71 41 51 49 99 74 141 74 38 0 30 17 -12 24 -51 8 -70 7
-126 -8z"></path>
<path class="node" id="node62" d="M907 2795 c-40 -15 -117 -71 -117 -85 0 -5 14 -15 31 -24 28 -14 33
-14 56 1 42 27 137 22 203 -11 30 -16 63 -35 73 -44 15 -14 17 -13 17 3 0 33
-40 103 -81 139 -35 32 -45 36 -92 35 -28 0 -69 -7 -90 -14z"></path>
<path class="node" id="node63" d="M672 2767 c-38 -39 -40 -47 -9 -47 19 0 26 8 35 37 6 20 10 38 8 40
-1 1 -17 -12 -34 -30z"></path>
<path class="node" id="node64" d="M606 2660 c-9 -22 -16 -52 -16 -67 0 -23 5 -19 40 35 22 33 40 64 40
67 0 3 -11 5 -24 5 -19 0 -27 -9 -40 -40z"></path>
<path class="node" id="node65" d="M685 2671 c-3 -11 -26 -46 -50 -77 -48 -61 -52 -78 -31 -135 13 -37
82 -129 96 -129 5 0 4 17 -2 38 -15 52 -4 186 21 256 12 33 21 61 21 63 0 1
-11 3 -24 3 -16 0 -27 -7 -31 -19z"></path>
<path class="node" id="node66" d="M901 2669 c-23 -9 -23 -9 17 -42 47 -37 131 -132 170 -194 15 -24 30
-43 34 -43 21 0 73 155 62 184 -7 17 -98 75 -145 92 -47 16 -102 17 -138 3z"></path>
<path class="node" id="node67" d="M745 2628 c-22 -54 -32 -225 -15 -286 9 -35 18 -46 43 -57 49 -19
127 -29 127 -15 0 7 -18 49 -39 93 -48 99 -61 180 -38 245 15 43 15 43 -10 53
-40 15 -49 11 -68 -33z"></path>
<path class="node" id="node68" d="M844 2594 c-13 -70 2 -145 46 -237 24 -49 49 -87 57 -87 25 0 117 47
137 69 19 21 19 22 1 54 -53 91 -189 237 -222 237 -7 0 -15 -16 -19 -36z"></path>
<path class="node" id="node69" d="M1704 2807 c-45 -32 -89 -86 -78 -97 15 -15 113 39 130 71 7 15 14
33 14 39 0 17 -33 11 -66 -13z"></path>
<path class="node" id="node70" d="M1950 2818 c0 -25 39 -71 80 -94 72 -41 93 -25 42 32 -52 58 -122 94
-122 62z"></path>
<path class="node" id="node71" d="M1793 2798 c-35 -44 -35 -58 -3 -98 29 -37 36 -40 79 -40 44 0 50 3
74 37 25 35 26 38 11 63 -26 41 -45 50 -100 50 -29 0 -56 -5 -61 -12z"></path>
<path class="node" id="node72" d="M1595 2656 c-17 -39 -20 -136 -5 -136 16 0 27 32 33 97 6 73 -7 90
-28 39z"></path>
<path class="node" id="node73" d="M2097 2673 c-14 -13 -7 -118 9 -141 22 -32 34 -19 34 37 0 89 -17
131 -43 104z"></path>
<path class="node" id="node74" d="M1848 2642 c-19 -2 -37 -17 -58 -48 -35 -52 -35 -55 -14 -97 22 -43
30 -47 91 -47 48 0 52 2 73 38 30 49 28 76 -7 119 -30 37 -39 41 -85 35z"></path>
<path class="node" id="node75" d="M1630 2530 c-16 -30 -12 -58 16 -99 17 -26 35 -41 56 -45 43 -9 42
-9 61 23 16 28 16 31 -4 76 -22 49 -24 50 -81 59 -30 4 -40 1 -48 -14z"></path>
<path class="node" id="node76" d="M1966 2490 c-26 -47 -26 -51 -11 -80 13 -24 22 -30 49 -30 26 0 39 7
59 34 56 72 44 126 -27 126 -41 0 -44 -2 -70 -50z"></path>
<path class="node" id="node77" d="M1710 2340 c25 -19 94 -41 127 -39 10 0 -1 9 -23 19 -23 10 -45 23
-48 29 -4 6 -24 11 -44 11 l-37 0 25 -20z"></path>
<path class="node" id="node78" d="M1930 2333 c-24 -13 -46 -26 -49 -29 -12 -13 78 7 108 23 67 38 12
43 -59 6z"></path>
<path class="node" id="node79" d="M2078 2232 c-62 -22 -129 -79 -163 -139 -40 -69 -46 -175 -15 -258
44 -118 175 -207 299 -204 25 1 37 3 26 6 -28 7 -43 23 -22 23 29 0 93 37 121
71 15 17 30 29 33 25 13 -12 -17 -56 -57 -82 -22 -15 -40 -28 -40 -30 0 -5 56
14 87 29 43 23 121 115 134 157 39 134 9 263 -82 347 -30 27 -95 59 -135 68
-27 5 -33 3 -43 -22 -13 -33 -31 -151 -31 -210 0 -24 -4 -43 -10 -43 -13 0
-13 164 0 212 6 21 18 44 26 53 14 13 11 15 -33 15 -26 -1 -69 -9 -95 -18z
m-35 -64 c-10 -41 -10 -159 0 -215 6 -34 4 -43 -7 -43 -17 0 -26 51 -26 157 0
84 11 133 31 133 7 0 8 -10 2 -32z m357 -38 c25 -13 64 -59 57 -67 -4 -3 -17
3 -30 14 -12 11 -51 31 -87 44 -76 26 -74 25 -66 38 6 9 90 -10 126 -29z
m-458 -240 c1 -8 -1 -17 -7 -20 -18 -9 -34 62 -28 125 9 91 17 89 25 -5 3 -47
8 -92 10 -100z m399 158 c55 -18 108 -56 129 -91 31 -50 24 -53 -24 -9 -55 51
-79 64 -145 77 -63 13 -81 35 -28 35 19 0 49 -5 68 -12z m-51 -128 c68 -34
140 -99 140 -125 0 -14 -12 -6 -46 28 -25 26 -74 61 -110 78 -35 17 -61 35
-58 40 7 13 8 12 74 -21z m-117 -42 c-30 -32 -152 -95 -193 -100 -47 -6 -26
17 42 44 37 15 88 42 115 61 56 40 77 38 36 -5z m65 -105 c-49 -51 -108 -88
-155 -98 -49 -10 -41 10 11 30 25 10 73 41 108 70 75 62 98 61 36 -2z"></path>
<path class="node" id="node80" d="M660 2183 c-14 -2 -54 -15 -91 -29 -102 -38 -170 -119 -204 -242 -21
-73 -15 -92 9 -30 10 24 28 60 42 80 14 23 21 44 17 54 -5 13 -2 16 9 12 19
-8 38 10 31 28 -3 9 2 14 17 14 14 0 24 8 27 21 3 12 11 18 19 15 8 -3 20 3
26 14 8 12 24 20 40 20 17 0 28 5 28 13 0 18 183 17 224 -1 42 -18 30 -21 -45
-11 -68 10 -119 0 -119 -21 0 -7 -6 -8 -19 0 -28 15 -44 12 -37 -6 4 -11 0
-15 -17 -14 -43 4 -52 1 -39 -12 20 -20 13 -30 -17 -23 -29 6 -51 -8 -31 -20
19 -12 10 -25 -14 -19 -24 6 -44 -10 -26 -21 17 -11 11 -27 -9 -20 -14 4 -26
-5 -49 -42 -17 -26 -36 -61 -44 -78 -7 -16 -18 -36 -25 -43 -17 -18 -16 -25 7
-49 11 -12 46 -27 84 -36 116 -26 259 15 342 98 54 55 102 140 109 195 l6 45
-17 -45 c-32 -87 -130 -202 -204 -240 -42 -21 -126 -40 -181 -40 -52 0 -129
19 -129 32 0 6 10 7 23 4 12 -4 52 -10 88 -13 73 -6 145 12 209 52 43 27 150
144 150 163 0 5 14 30 31 56 42 67 37 96 -21 117 -48 17 -158 30 -200 22z"></path>
<path class="node" id="node81" d="M2026 1426 c-14 -25 -26 -51 -26 -58 0 -7 19 -35 43 -61 l42 -48 80
11 c77 10 82 12 123 56 23 25 42 52 42 59 0 7 -16 25 -36 40 l-36 27 -26 -25
c-26 -25 -99 -57 -128 -57 -10 0 -14 14 -14 50 0 43 -3 50 -19 50 -12 0 -29
-16 -45 -44z"></path>
<path class="node" id="node82" d="M670 1435 c-7 -8 -18 -15 -25 -15 -7 0 -18 -7 -25 -15 -10 -12 -9
-27 6 -76 19 -60 21 -62 81 -92 l62 -31 43 23 c79 44 79 43 55 117 -16 47 -26
64 -39 64 -14 0 -18 -8 -18 -34 0 -19 -4 -38 -10 -41 -21 -13 -72 27 -91 71
-11 24 -21 44 -23 44 -2 0 -9 -7 -16 -15z"></path>
<path class="node" id="node83" d="M880 1232 l-22 -18 52 -57 c38 -42 74 -68 137 -99 l84 -42 22 27 22
27 44 -20 c36 -17 185 -50 222 -50 14 0 11 36 -4 48 -7 6 -26 10 -43 10 -39
-1 -121 36 -159 71 -20 19 -45 30 -73 34 -25 3 -58 17 -80 34 -31 23 -45 27
-83 25 -32 -3 -49 1 -58 12 -17 21 -34 20 -61 -2z"></path>
<path class="node" id="node84" d="M1710 1068 c-50 -40 -141 -79 -205 -87 -81 -9 -199 3 -266 29 -29 10
-56 17 -61 14 -9 -6 -68 -131 -68 -145 0 -8 30 -15 113 -24 56 -6 57 -6 57 19
0 17 5 26 16 26 14 0 15 -9 10 -63 -7 -63 6 -150 25 -173 8 -10 25 -6 72 16
81 38 199 69 292 77 l74 6 -17 22 c-9 12 -33 34 -53 50 -36 27 -67 94 -54 115
10 16 25 1 25 -24 0 -50 24 -51 104 -6 42 22 78 46 82 51 8 13 -28 52 -81 89
l-40 28 -25 -20z"></path>
<path class="node" id="node85" d="M2309 861 c-124 -78 -222 -297 -180 -400 38 -91 186 -1 267 164 30
60 38 90 42 149 4 65 2 76 -17 95 -28 28 -58 26 -112 -8z"></path>
<path class="node" id="node86" d="M796 619 c-22 -18 -26 -28 -26 -74 0 -66 29 -147 81 -225 45 -69 97
-114 157 -137 43 -16 44 -16 68 9 81 81 -37 346 -188 424 -57 29 -59 29 -92 3z"></path>
<path class="node" id="node87" d="M1325 2973 c-29 -7 -66 -45 -60 -60 2 -8 -2 -16 -10 -19 -21 -9 -19
-63 5 -101 19 -32 43 -42 54 -24 9 14 104 61 123 61 14 0 15 -2 5 -12 -7 -7
-16 -13 -20 -13 -16 -1 -92 -46 -92 -55 0 -32 73 -21 113 16 22 20 27 32 23
50 -4 13 -2 24 3 24 32 0 2 100 -35 114 -10 4 -34 -4 -58 -17 -45 -26 -96 -42
-96 -30 0 5 25 19 55 32 69 29 62 51 -10 34z"></path>
</g>
</svg>