<!--?xml version="1.0" standalone="no"?-->

<svg version="1.0" xmlns="http://www.w3.org/2000/svg" width="300.000000pt" height="260.000000pt" viewBox="0 0 300.000000 260.000000" preserveAspectRatio="xMidYMid meet">
<g transform="translate(0.000000,260.000000) scale(0.100000,-0.100000)" fill="#0D0D0D" stroke="none">
<path d="M1368 2508 c-49 -13 -114 -70 -128 -114 -12 -36 -8 -87 11 -136 14
-34 38 -26 37 13 -2 59 62 92 84 44 l11 -25 43 47 c35 38 47 44 66 38 13 -4
38 -9 57 -12 l34 -6 -6 43 c-7 51 -46 96 -96 110 -42 12 -63 11 -113 -2z" id="node1" class="node"></path>
<path d="M1872 2407 c-47 -25 -82 -69 -82 -105 0 -19 4 -22 20 -17 13 4 25 -1
37 -14 22 -26 35 -26 57 -2 25 28 65 35 86 16 13 -12 23 -13 48 -4 18 6 32 16
32 22 -1 29 -48 93 -80 109 -46 22 -67 22 -118 -5z" id="node2" class="node"></path>
<path d="M1447 2345 c-8 -8 -25 -30 -37 -50 -12 -19 -23 -35 -26 -35 -2 0 -10
16 -18 35 -8 19 -21 35 -29 35 -18 0 -39 -47 -32 -71 4 -11 2 -19 -4 -19 -5 0
-23 -13 -39 -30 l-30 -30 60 -61 c62 -64 62 -64 89 -16 8 14 6 23 -7 38 -29
32 -10 31 21 -1 16 -17 34 -30 39 -30 14 0 96 95 96 110 0 6 7 22 16 35 9 14
19 40 24 59 l7 34 -45 6 c-63 8 -69 8 -85 -9z" id="node3" class="node"></path>
<path d="M1906 2255 l-46 -35 -15 30 c-19 36 -28 37 -45 5 -11 -21 -11 -27 4
-43 15 -18 15 -21 -6 -47 -21 -27 -28 -81 -13 -104 10 -17 67 -44 98 -46 38
-4 47 -15 11 -15 -16 0 -48 10 -72 22 -36 19 -45 30 -55 66 l-11 43 -41 -7
c-22 -3 -48 -10 -57 -15 -9 -5 -55 -13 -102 -18 -56 -6 -93 -15 -113 -28 -15
-11 -36 -23 -47 -26 -16 -7 -17 -9 -4 -30 8 -12 18 -43 22 -68 7 -46 7 -46 53
-53 25 -3 100 -6 167 -6 115 0 123 -1 160 -27 l39 -26 -24 -21 c-32 -27 -127
-29 -179 -3 -28 14 -39 15 -62 6 -24 -10 -26 -15 -21 -43 12 -64 23 -72 116
-79 103 -7 142 -22 185 -71 38 -44 38 -46 10 -70 -22 -19 -22 -19 -64 30 -24
27 -46 45 -51 41 -4 -5 -1 -12 7 -17 26 -16 -2 -33 -34 -20 -15 5 -38 10 -52
10 -14 0 -38 7 -54 15 l-28 15 -7 -40 c-4 -22 -3 -54 1 -72 4 -18 8 -51 8 -73
l1 -40 155 0 c179 1 303 20 308 47 2 10 -9 34 -24 53 -23 31 -25 39 -15 61 8
17 8 31 1 44 -13 23 -13 75 -1 98 5 9 15 32 22 50 6 18 13 31 15 29 3 -2 -3
-23 -11 -47 -21 -58 -20 -104 1 -96 9 3 24 6 34 6 16 0 19 8 19 58 0 35 7 78
20 110 36 92 25 135 -53 202 -62 53 -64 54 -90 24 -20 -25 -25 -26 -40 -13
-58 47 -75 68 -85 103 -15 55 -7 56 13 1 20 -50 57 -85 92 -85 18 0 24 7 30
35 4 24 12 35 24 35 12 0 17 9 18 32 0 20 9 39 20 49 21 16 34 79 17 78 -6 -1
-20 -5 -33 -10 -30 -12 -29 -12 -35 11 -7 29 -29 25 -81 -15z" id="node4" class="node"></path>
<path d="M1127 2139 c-72 -59 -123 -226 -136 -439 -8 -127 -10 -134 -97 -266
-29 -45 -55 -86 -56 -92 -2 -6 42 -34 97 -62 73 -38 115 -53 156 -57 57 -6
129 10 129 28 0 6 19 19 43 29 l44 19 12 128 c7 70 16 134 20 142 11 22 34
171 27 178 -3 3 -32 -2 -64 -11 -32 -9 -64 -16 -71 -16 -20 0 -51 81 -51 136
0 63 23 90 67 79 15 -3 35 -12 43 -19 8 -8 39 -16 68 -19 47 -5 53 -4 48 11
-3 9 -10 37 -16 60 -15 58 -127 177 -179 192 -47 13 -41 14 -84 -21z" id="node5" class="node"></path>
<path d="M1200 1911 c-15 -29 -12 -77 7 -132 17 -48 18 -49 53 -43 19 4 49 12
65 20 27 12 127 40 228 65 41 10 81 4 112 -17 28 -20 51 -19 35 1 -10 12 -10
15 2 15 8 0 19 -5 26 -12 6 -6 15 -8 19 -3 5 4 2 10 -4 12 -7 3 -13 13 -13 24
0 18 2 19 30 4 41 -21 51 -19 15 3 -25 16 -62 20 -210 26 -181 8 -359 21 -317
24 25 2 29 17 6 26 -27 10 -43 7 -54 -13z" id="node6" class="node"></path>
<path d="M1376 1703 c-12 -78 -18 -74 103 -72 88 2 115 -1 135 -14 14 -10 36
-17 50 -17 14 0 36 -4 50 -10 32 -12 34 2 4 23 -13 8 -20 17 -17 21 13 13 74
-16 105 -51 29 -34 32 -35 27 -13 -5 21 -3 23 8 13 29 -28 27 -11 -2 22 -48
52 -78 63 -212 75 -66 6 -129 16 -139 21 -10 5 -18 7 -18 4 0 -3 -18 4 -40 15
-21 11 -41 20 -43 20 -3 0 -7 -17 -11 -37z" id="node7" class="node"></path>
<path d="M2040 1624 c-24 -7 -24 -103 0 -129 10 -11 27 -42 38 -70 33 -83 40
-17 16 158 -6 47 -12 52 -54 41z" id="node8" class="node"></path>
<path d="M2020 1408 c-78 -21 -142 -27 -282 -27 -148 -1 -148 -1 -148 -24 0
-13 -15 -37 -35 -57 -31 -30 -34 -38 -32 -84 1 -28 -2 -61 -6 -73 -7 -21 -5
-23 21 -23 39 0 120 -56 140 -96 12 -27 13 -41 5 -69 l-11 -35 41 31 c23 17
60 51 82 74 l40 43 95 -32 c52 -17 101 -35 108 -39 19 -12 29 -1 36 41 10 67
56 118 131 146 6 2 -2 16 -17 32 -15 16 -34 47 -44 69 -9 22 -27 53 -40 68
-13 16 -24 34 -24 42 0 19 -20 23 -60 13z" id="node9" class="node"></path>
<path d="M814 1298 c-4 -13 -38 -78 -75 -145 -38 -68 -69 -126 -69 -129 0 -3
-9 -19 -21 -35 l-20 -29 39 -42 c38 -40 42 -42 117 -49 l79 -8 66 67 c134 134
193 187 180 163 -7 -13 -8 -26 -3 -30 5 -3 29 -20 53 -37 25 -17 54 -34 65
-37 11 -3 30 -8 43 -12 19 -6 22 -3 22 25 0 17 7 44 15 60 16 31 108 110 128
110 16 1 -34 39 -50 40 -7 0 -25 16 -40 35 -15 19 -36 35 -46 35 -10 0 -39
-14 -63 -32 -35 -25 -57 -33 -105 -36 -67 -5 -114 9 -210 64 -83 47 -96 49
-105 22z" id="node10" class="node"></path>
<path d="M2185 1163 c-32 -8 -73 -53 -91 -98 -24 -65 -17 -84 46 -122 30 -18
94 -71 141 -118 47 -47 91 -85 98 -85 39 0 126 76 116 101 -4 8 -27 31 -53 53
-53 44 -84 83 -127 157 -37 64 -83 119 -99 118 -6 -1 -20 -3 -31 -6z" id="node11" class="node"></path>
<path d="M1365 1107 l-56 -54 3 -59 c3 -57 4 -59 41 -78 28 -13 36 -21 28 -29
-18 -18 -13 -35 25 -77 48 -52 84 -54 137 -5 34 31 37 38 37 88 0 42 -7 67
-32 114 -32 58 -106 153 -120 153 -3 0 -32 -24 -63 -53z" id="node12" class="node"></path>
<path d="M1510 1099 c0 -6 13 -29 30 -52 34 -49 62 -145 53 -188 -6 -30 -73
-99 -96 -99 -8 0 -24 -11 -37 -25 -34 -36 -18 -59 41 -63 59 -4 86 23 92 93 5
55 17 87 59 154 34 54 35 79 7 115 -43 54 -149 101 -149 65z" id="node13" class="node"></path>
<path d="M610 910 c-13 -31 -67 -80 -88 -80 -36 0 -31 -105 7 -143 l21 -22 43
22 c23 12 67 33 97 48 41 19 63 38 88 75 l32 50 -41 0 c-47 0 -72 11 -115 52
l-31 29 -13 -31z" id="node14" class="node"></path>
<path d="M1309 853 c-14 -15 -41 -54 -60 -86 -20 -34 -51 -69 -74 -85 -76 -51
-144 -107 -145 -120 0 -14 73 -51 101 -52 17 0 116 70 248 176 72 58 81 69 64
75 -11 4 -31 21 -44 38 -13 18 -33 43 -44 57 l-20 25 -26 -28z" id="node15" class="node"></path>
<path d="M422 776 c-21 -19 -58 -63 -82 -99 -26 -38 -70 -83 -107 -111 -69
-51 -76 -71 -48 -126 21 -40 70 -42 87 -4 6 14 54 55 106 91 52 36 109 79 127
95 l34 29 -24 35 c-13 19 -27 55 -31 80 -3 24 -10 44 -15 44 -5 0 -26 -15 -47
-34z" id="node16" class="node"></path>
<path d="M2489 794 c-7 -9 -32 -29 -56 -45 -24 -17 -43 -37 -43 -46 0 -8 55
-70 123 -137 67 -66 145 -152 172 -191 l50 -70 3 45 c2 24 8 50 13 57 7 8 2
23 -15 50 -14 21 -32 56 -40 78 -7 22 -24 58 -37 81 -27 46 -141 193 -150 194
-4 0 -12 -7 -20 -16z" id="node17" class="node"></path>
<path d="M1412 672 c-6 -19 -2 -48 16 -107 25 -83 51 -217 51 -270 1 -28 5
-32 48 -43 58 -16 66 -7 55 63 -4 28 -7 118 -7 201 l0 152 -56 -5 c-48 -5 -60
-2 -77 15 l-21 21 -9 -27z" id="node18" class="node"></path>
<path d="M137 567 c-7 -12 -26 -75 -42 -139 l-27 -116 21 -30 c35 -50 81 -83
110 -80 27 3 28 8 15 76 -5 25 -1 39 20 66 34 46 33 56 -9 56 -36 0 -50 15
-65 69 -7 27 13 81 30 81 19 0 10 17 -14 28 -21 9 -26 8 -39 -11z" id="node19" class="node"></path>
<path d="M981 554 c-31 -40 -27 -72 17 -114 20 -20 46 -52 57 -70 22 -37 98
-100 121 -100 26 0 27 30 4 72 -15 27 -23 58 -24 96 -1 54 -2 56 -32 63 -55
11 -109 42 -106 62 4 25 -14 21 -37 -9z" id="node20" class="node"></path>
<path d="M2298 470 c-43 -23 -71 -60 -88 -116 -11 -36 -10 -48 5 -88 19 -50
70 -102 111 -112 82 -21 175 20 209 92 22 47 17 134 -12 172 -50 67 -151 91
-225 52z" id="node21" class="node"></path>
<path d="M2754 386 c-13 -33 1 -134 22 -157 l19 -21 6 63 c6 61 22 88 62 102
21 7 3 15 -51 23 -43 5 -53 4 -58 -10z" id="node22" class="node"></path>
<path d="M2830 328 c-12 -19 -20 -51 -20 -75 0 -59 26 -57 79 3 44 51 46 56
31 85 -18 32 -67 25 -90 -13z" id="node23" class="node"></path>
<path d="M1582 240 c-12 -19 -14 -19 -42 -5 -39 20 -60 19 -60 -4 0 -10 -11
-39 -25 -65 -32 -61 -32 -72 7 -85 27 -10 36 -9 57 7 26 19 33 29 56 82 8 19
20 43 27 52 8 12 9 21 3 27 -7 7 -15 4 -23 -9z" id="node24" class="node"></path>
</g>
<g transform="translate(0.000000,260.000000) scale(0.100000,-0.100000)" fill="#9E9E9E" stroke="none">

</g>
</svg>