<!--?xml version="1.0" standalone="no"?-->

<svg version="1.0" xmlns="http://www.w3.org/2000/svg" width="300.000000pt" height="199.000000pt" viewBox="0 0 300.000000 199.000000" preserveAspectRatio="xMidYMid meet">
<g transform="translate(0.000000,199.000000) scale(0.100000,-0.100000)" fill="#1F1F1F" stroke="none">
<path class="node" id="node1" d="M1410 1977 c-15 -7 -39 -39 -58 -77 -28 -55 -33 -73 -29 -114 2 -27
0 -65 -5 -83 -5 -20 -5 -40 0 -50 7 -12 11 4 16 58 17 186 23 194 148 203 81
6 88 5 115 -18 27 -23 53 -89 53 -136 0 -11 3 -20 8 -20 49 1 35 127 -21 189
-49 53 -166 78 -227 48z"></path>
<path class="node" id="node2" d="M1547 1789 c-10 -6 -24 -8 -32 -5 -10 3 -13 -3 -13 -23 1 -29 12 -32
58 -14 51 21 54 23 23 18 -40 -6 -43 10 -5 23 21 8 22 11 7 11 -11 0 -28 -4
-38 -10z"></path>
<path class="node" id="node3" d="M1423 1773 c26 -7 21 -23 -7 -23 -14 0 -28 -5 -32 -12 -4 -7 -3 -8 4
-4 19 12 60 -5 67 -27 7 -22 8 -22 12 2 9 44 -5 71 -35 70 -17 -1 -20 -3 -9
-6z"></path>
<path class="node" id="node4" d="M1695 1740 c-3 -5 -1 -10 4 -10 6 0 11 5 11 10 0 6 -2 10 -4 10 -3 0
-8 -4 -11 -10z"></path>
<path class="node" id="node5" d="M1670 1708 c0 -7 5 -20 10 -28 8 -12 10 -11 10 7 0 12 -4 25 -10 28
-5 3 -10 0 -10 -7z"></path>
<path class="node" id="node6" d="M1712 1695 c0 -16 2 -22 5 -12 2 9 2 23 0 30 -3 6 -5 -1 -5 -18z"></path>
<path class="node" id="node7" d="M1450 1648 c0 -18 38 -27 64 -15 38 18 32 26 -19 24 -25 -1 -45 -5
-45 -9z"></path>
<path stroke-width="20" class="node" id="node8" d="M1660 1605 c0 -48 -13 -85 -30 -85 -6 0 -10 10 -11 23 -1 16 -4 12
-10 -13 -13 -46 -40 -67 -93 -75 -66 -10 -82 -1 -105 58 -11 29 -20 47 -20 40
-1 -6 3 -23 9 -37 11 -30 4 -33 -23 -8 -19 16 -19 16 -14 -3 21 -71 22 -69
-35 -94 -29 -13 -82 -38 -118 -55 -36 -16 -73 -29 -82 -28 -30 5 -93 -17 -142
-49 -54 -36 -106 -117 -106 -165 0 -22 -11 -43 -36 -70 -20 -22 -48 -55 -62
-74 -14 -19 -33 -41 -41 -48 -14 -12 -14 -13 0 -10 9 1 40 32 69 66 29 35 71
76 95 91 32 20 39 29 30 38 -9 9 -15 9 -24 0 -18 -18 -13 32 8 79 35 77 141
138 219 126 24 -3 39 1 55 16 25 24 97 57 144 67 29 6 34 3 42 -18 16 -43 29
-40 21 5 -8 42 -4 68 10 68 11 0 40 -35 40 -48 0 -12 29 -16 85 -12 30 2 91
29 67 30 -7 0 -22 -5 -33 -10 -14 -8 -19 -7 -19 3 0 7 11 19 24 26 13 7 34 26
45 42 42 57 66 27 36 -44 -19 -45 -19 -54 -1 -54 8 0 20 13 27 29 6 15 15 28
20 28 15 0 172 -59 193 -73 12 -8 48 -17 80 -21 69 -8 128 -32 174 -70 29 -25
46 -56 22 -41 -5 3 -3 -13 5 -36 21 -58 19 -79 -6 -79 -15 0 -4 -13 43 -47 34
-26 83 -64 107 -85 46 -40 64 -48 55 -24 -5 12 2 12 45 -2 33 -10 48 -19 41
-26 -6 -6 -19 -5 -36 3 -32 14 -44 7 -15 -9 l22 -11 -21 -29 c-25 -35 -25 -35
2 -59 15 -15 18 -24 10 -33 -5 -7 -15 -40 -21 -72 -6 -33 -13 -61 -15 -63 -8
-8 -43 20 -65 52 -16 24 -35 36 -68 44 -25 7 -60 19 -76 28 -48 25 -128 105
-148 148 -26 55 -25 132 1 160 l20 22 -48 45 c-54 50 -124 91 -149 86 -9 -2 9
-16 43 -33 99 -50 122 -91 63 -115 -20 -9 -26 -15 -18 -21 10 -6 9 -14 -1 -41
-34 -85 -120 -132 -245 -133 -96 0 -123 7 -167 42 l-33 27 25 -28 c53 -60 111
-67 328 -40 49 6 54 5 50 -12 -2 -10 -14 -21 -28 -25 -25 -7 -25 -7 3 -8 21
-1 28 -5 25 -18 -2 -10 -13 -19 -26 -21 -26 -4 -26 -1 -6 -47 17 -43 8 -103
-24 -153 -16 -26 -16 -26 1 -13 14 11 20 11 33 0 41 -34 58 -126 31 -163 -25
-34 -111 -47 -337 -53 -249 -5 -267 -1 -308 78 -23 45 -16 62 16 38 9 -7 6 -1
-8 14 -20 23 -25 39 -26 90 0 34 -4 83 -9 108 -5 29 -4 49 3 53 6 4 15 -22 22
-66 7 -40 21 -85 31 -100 11 -14 19 -37 19 -50 0 -28 23 -52 60 -63 l25 -7
-25 18 c-50 34 -61 73 -21 74 11 1 7 6 -10 15 -31 17 -59 71 -67 128 l-5 40
24 -16 c13 -10 33 -17 44 -17 16 0 14 4 -11 19 -60 37 -86 101 -41 101 47 0
49 17 2 22 -100 12 -194 104 -203 200 -4 46 -6 49 -15 28 -5 -15 -11 -20 -14
-12 -3 7 -19 20 -36 29 -31 15 -31 15 -17 -2 13 -15 13 -19 1 -23 -9 -3 -2
-10 17 -18 59 -24 88 -109 62 -179 -5 -14 -6 -24 -2 -21 5 3 16 -9 24 -27 9
-18 36 -56 61 -85 57 -65 59 -73 49 -152 -9 -60 -4 -113 12 -139 4 -6 0 -41
-9 -77 -9 -36 -14 -72 -11 -79 8 -22 239 -171 300 -194 31 -11 62 -21 69 -21
18 0 267 150 332 200 46 35 55 48 55 74 0 17 -7 44 -15 59 -8 17 -12 40 -8 58
4 19 -4 54 -21 103 -24 66 -26 77 -14 104 12 27 132 162 145 162 2 0 28 -20
56 -45 29 -25 55 -45 60 -45 5 0 20 -14 34 -31 14 -17 59 -53 99 -80 40 -27
78 -59 85 -70 10 -20 9 -21 -23 -14 -73 15 -81 14 -36 -2 25 -10 55 -25 65
-34 18 -16 86 -34 111 -30 18 3 189 -51 176 -56 -32 -11 -514 126 -514 147 0
4 23 3 51 -2 28 -5 53 -7 56 -5 2 3 -28 10 -67 17 -39 7 -73 10 -75 9 -5 -7
-73 -223 -88 -284 -8 -33 -18 -85 -21 -115 -6 -54 -6 -56 26 -77 128 -85 325
-143 488 -143 80 0 91 17 144 215 66 246 65 228 19 248 -21 10 -72 28 -113 40
-88 27 -100 49 -30 57 54 7 70 15 70 38 0 10 9 23 20 30 11 7 20 21 20 32 0
12 6 31 14 43 15 24 10 91 -6 81 -5 -3 -6 -18 -3 -33 4 -19 1 -32 -10 -41 -8
-7 -15 -25 -15 -41 0 -16 -4 -29 -9 -29 -5 0 -13 -9 -16 -20 -15 -46 -75 -71
-75 -31 0 18 -2 18 -30 5 -26 -13 -32 -13 -60 1 -38 20 -61 62 -40 75 8 5 19
6 25 3 5 -4 2 3 -7 14 -22 25 -23 53 -2 53 13 0 14 3 5 14 -12 14 -5 46 10 46
11 0 12 30 2 30 -5 0 -14 4 -22 9 -20 13 4 42 27 35 14 -5 14 -3 -2 10 -19 15
-14 36 8 36 24 0 41 -30 29 -49 -10 -16 -8 -17 30 -7 31 8 36 12 19 14 -23 4
-29 17 -12 27 17 10 69 -5 64 -19 -3 -7 17 -21 48 -34 l53 -22 -33 30 c-30 28
-31 30 -10 30 13 0 64 -9 114 -21 50 -12 98 -20 106 -17 8 4 39 86 76 203 75
241 78 232 -78 314 -115 60 -228 92 -347 98 l-101 6 -25 -49 c-23 -45 -81
-220 -107 -321 -6 -24 -14 -43 -18 -43 -20 0 -32 28 -32 73 0 63 -22 108 -77
157 -50 44 -117 70 -179 70 -25 0 -57 8 -77 20 -19 11 -66 31 -104 44 -112 38
-109 35 -116 118 -3 40 -2 75 2 78 5 3 3 11 -5 18 -12 11 -14 6 -14 -33z
m1075 -212 c72 -22 105 -41 105 -59 0 -20 -32 -16 -136 15 -115 33 -149 54
-106 64 25 5 80 -2 137 -20z m-13 -69 c42 -13 86 -33 99 -43 22 -18 22 -18 3
-29 -16 -8 -46 -3 -140 25 -122 36 -152 52 -139 73 10 16 76 6 177 -26z m-67
-54 c54 -16 105 -30 114 -30 36 -1 68 -49 42 -64 -9 -6 -229 57 -261 73 -20
11 -26 51 -7 51 8 0 58 -13 112 -30z m-445 -88 c12 -46 13 -82 1 -82 -5 0 -11
21 -13 48 -3 26 -8 56 -13 66 -6 14 -5 17 3 12 6 -4 16 -23 22 -44z m470 11
c86 -28 120 -47 120 -68 0 -21 -21 -19 -145 17 -110 31 -154 56 -140 78 9 15
67 6 165 -27z m-40 -63 c124 -33 155 -50 130 -74 -13 -12 -30 -8 -120 26 -143
53 -150 56 -150 68 0 15 14 13 140 -20z m-35 -50 c84 -22 145 -53 145 -76 0
-26 -25 -25 -118 5 -158 52 -186 75 -111 90 3 0 41 -8 84 -19z m-220 -70 c119
-23 450 -130 428 -137 -20 -7 -148 28 -197 53 -27 15 -66 26 -85 26 -47 0
-190 42 -216 63 -13 11 -14 15 -5 12 9 -3 42 -10 75 -17z m255 -17 c82 -27
106 -41 92 -55 -6 -6 -41 1 -88 16 -43 14 -100 30 -126 37 -30 7 -48 17 -48
26 0 19 69 10 170 -24z m-660 -33 c12 -12 20 -33 20 -54 0 -19 5 -36 12 -38
12 -4 -77 -108 -92 -108 -3 0 13 21 37 46 53 58 57 82 5 31 -21 -20 -40 -37
-43 -37 -2 0 -4 36 -4 80 0 61 4 83 15 90 21 14 28 12 50 -10z m-822 -66 c13
-9 22 -26 22 -40 0 -14 7 -38 15 -54 13 -26 14 -30 1 -30 -17 0 -50 44 -71 93
-20 48 -7 59 33 31z m72 -34 c13 -8 13 -10 -2 -10 -9 0 -20 5 -23 10 -8 13 5
13 25 0z m10 -46 c0 -31 -24 -31 -38 0 -13 28 -8 36 19 29 12 -3 19 -14 19
-29z m668 -22 c2 -7 -3 -12 -12 -12 -9 0 -16 7 -16 16 0 17 22 14 28 -4z m547
-214 c25 -11 34 -41 16 -52 -17 -11 -61 13 -61 32 0 16 8 32 16 32 2 0 15 -5
29 -12z m-6 -91 c111 -32 154 -57 94 -57 -65 1 -243 60 -243 81 0 15 29 10
149 -24z m-54 -38 c108 -25 155 -44 155 -63 0 -23 -47 -27 -113 -10 -112 29
-183 68 -155 86 17 10 9 11 113 -13z m23 -84 c105 -23 130 -34 118 -54 -12
-18 -53 -13 -160 20 -111 34 -135 47 -114 60 7 5 22 6 33 2 11 -3 67 -16 123
-28z m-499 -37 c-13 -10 -61 -41 -106 -68 -45 -27 -99 -61 -121 -77 -21 -16
-58 -37 -81 -47 -56 -26 -89 -15 -225 74 -60 38 -117 72 -127 75 -19 6 -27 35
-9 35 5 0 60 -29 122 -64 62 -35 132 -70 155 -77 41 -12 45 -11 140 38 54 28
136 74 183 102 51 30 87 46 89 39 2 -6 -7 -19 -20 -30z m-99 13 c0 -13 -100
-75 -190 -118 -88 -42 -83 -43 -239 43 -137 76 -123 91 34 35 64 -22 128 -41
143 -41 29 0 94 23 182 64 60 28 70 31 70 17z m623 -45 c85 -26 108 -46 71
-60 -17 -7 -205 36 -249 56 -29 13 -33 45 -7 50 9 2 35 -1 57 -8 22 -7 79 -24
128 -38z m-87 -47 c65 -17 127 -35 137 -40 21 -12 22 -38 2 -46 -17 -6 -264
62 -279 77 -10 10 -1 40 12 40 5 0 63 -14 128 -31z m-6 -69 c104 -31 138 -49
126 -68 -19 -31 -286 48 -286 84 0 22 44 17 160 -16z m-2 -76 c98 -28 102 -30
102 -51 0 -27 -110 -11 -188 29 -79 39 -95 65 -36 54 22 -4 76 -19 122 -32z"></path>
<path class="node" id="node9" d="M1331 1608 c0 -7 7 -29 15 -48 l14 -35 -5 34 c-3 18 -5 40 -5 47 0 8
-4 14 -10 14 -5 0 -10 -6 -9 -12z"></path>
<path class="node" id="node10" d="M1448 1586 c-16 -5 -28 -16 -28 -24 0 -13 3 -12 18 1 13 12 34 16 80
14 34 -1 62 1 62 6 0 6 -10 8 -80 11 -14 1 -37 -3 -52 -8z"></path>
<path class="node" id="node11" d="M1467 1543 c-15 -14 -6 -19 28 -15 19 2 32 8 29 13 -6 10 -48 12 -57
2z"></path>
<path class="node" id="node12" d="M275 1389 c-98 -14 -217 -56 -247 -87 l-27 -27 24 -120 c13 -66 33
-147 43 -180 l18 -60 92 3 91 2 -15 -37 c-32 -76 4 -187 68 -214 28 -12 46
-45 31 -59 -4 -4 -17 -10 -28 -13 -11 -2 -1 -4 21 -4 l41 -1 -7 33 c-6 25 -3
38 9 50 15 16 14 17 -7 5 -20 -10 -27 -9 -43 6 -25 23 -24 30 9 43 18 8 20 10
5 7 -21 -4 -63 18 -63 32 0 4 19 7 43 8 57 1 131 39 122 62 -16 38 -17 53 -5
67 11 14 15 11 32 -16 13 -22 18 -42 14 -61 -3 -16 0 -37 6 -48 9 -15 9 -24
-1 -44 -13 -23 -39 -41 -48 -33 -11 12 -10 47 3 58 27 22 14 30 -15 10 -16
-12 -37 -21 -48 -21 -17 -1 -17 -1 0 -11 24 -14 46 -61 49 -104 2 -27 6 -34
18 -29 48 21 209 52 180 35 -36 -21 -359 -95 -420 -96 -59 -1 -65 -3 -68 -23
-5 -31 24 -170 59 -284 l29 -96 49 -7 c128 -17 324 34 429 112 27 20 32 30 32
66 0 23 -11 87 -25 142 -14 55 -25 109 -24 120 0 22 59 65 90 65 10 0 19 6 19
13 0 8 9 22 20 32 22 20 28 44 6 26 -7 -6 -21 -9 -30 -5 -9 3 -16 1 -16 -5 0
-14 -68 -81 -83 -81 -7 0 0 10 15 23 15 12 32 35 38 51 10 27 7 25 -28 -15
-34 -37 -42 -42 -55 -31 -11 9 -30 11 -61 7 -32 -5 -51 -3 -62 6 -23 19 -33
51 -22 72 7 13 6 28 -3 48 -16 40 -8 44 35 18 20 -12 39 -19 43 -16 3 4 -6 12
-21 18 -14 7 -26 16 -26 20 0 9 77 52 135 77 l30 12 -31 -4 c-18 -3 -53 -19
-80 -36 -26 -16 -56 -30 -65 -30 -11 0 -34 23 -55 56 -41 62 -39 68 27 79 71
12 73 17 54 136 -21 131 -44 241 -54 257 -4 7 -41 16 -82 22 -84 11 -82 11
-164 -1z m35 -20 c0 -6 17 -9 43 -7 63 5 57 -15 -10 -30 -62 -14 -122 -37 -71
-27 15 3 55 8 89 12 56 6 61 5 57 -13 -2 -15 -23 -23 -108 -41 -118 -24 -170
-28 -170 -12 0 5 21 19 46 30 53 24 54 33 1 18 -43 -12 -64 -4 -46 17 6 8 19
14 28 14 13 0 13 2 2 9 -17 11 -3 20 51 30 62 13 88 12 88 0z m120 -124 c0
-21 -32 -31 -153 -49 -128 -19 -127 -19 -127 -1 0 18 76 41 175 54 102 13 105
12 105 -4z m3 -64 c18 -18 -4 -29 -90 -44 -154 -27 -170 -28 -182 -13 -21 26
17 42 144 61 84 13 112 12 128 -4z m7 -60 c0 -19 -29 -29 -123 -45 -122 -20
-147 -20 -147 -1 0 16 8 19 125 39 95 17 145 19 145 7z m8 -58 c-3 -14 -27
-22 -123 -39 -66 -12 -124 -19 -128 -17 -20 12 20 28 120 49 136 28 135 28
131 7z m-3 -54 c10 -15 8 -16 -75 -32 -138 -28 -170 -31 -170 -14 0 10 27 20
98 35 115 24 139 25 147 11z m-1 -78 c3 -5 -3 -19 -13 -32 -16 -20 -21 -21
-35 -10 -12 10 -13 18 -5 32 10 20 44 26 53 10z m-74 -36 c17 -21 4 -35 -34
-35 -37 0 -72 22 -62 38 10 17 81 15 96 -3z m68 -59 c3 -12 0 -16 -8 -11 -6 4
-17 0 -23 -8 -7 -8 -29 -20 -50 -27 -34 -11 -40 -10 -52 7 -24 30 -17 40 33
51 66 14 96 11 100 -12z m72 -170 l23 -25 -26 -6 c-31 -8 -47 0 -47 24 0 37
18 40 50 7z m40 -80 c0 -20 -96 -54 -163 -58 -80 -4 -72 14 15 34 40 10 87 22
103 27 43 13 45 13 45 -3z m17 -52 c7 -20 -43 -43 -131 -61 -67 -14 -88 -15
-98 -5 -19 19 -1 29 86 51 43 11 81 22 84 26 10 10 55 1 59 -11z m13 -59 c0
-9 -19 -24 -42 -35 -47 -21 -43 -24 15 -11 39 9 51 3 41 -22 -6 -17 -217 -72
-234 -62 -19 12 -10 33 18 43 l27 10 -32 1 c-51 1 -40 26 20 44 174 53 187 55
187 32z m30 -109 c9 -12 7 -17 -9 -28 l-21 -13 22 -17 c20 -15 21 -19 8 -28
-52 -35 -257 -67 -248 -39 5 15 40 29 143 55 38 10 65 19 58 21 -6 2 -47 -5
-91 -17 -100 -25 -112 -25 -112 0 0 20 14 25 160 63 73 19 76 19 90 3z m8
-134 c10 -30 -182 -77 -218 -53 -22 15 -10 21 87 46 96 25 124 27 131 7z"></path>
<path class="node" id="node13" d="M268 1353 c6 -2 18 -2 25 0 6 3 1 5 -13 5 -14 0 -19 -2 -12 -5z"></path>
<path class="node" id="node14" d="M213 1343 c9 -2 23 -2 30 0 6 3 -1 5 -18 5 -16 0 -22 -2 -12 -5z"></path>
<path class="node" id="node15" d="M428 403 c7 -3 16 -2 19 1 4 3 -2 6 -13 5 -11 0 -14 -3 -6 -6z"></path>
<path class="node" id="node16" d="M1505 1370 c-19 -8 -19 -9 3 -9 12 -1 22 4 22 9 0 6 -1 10 -2 9 -2 0
-12 -4 -23 -9z"></path>
<path class="node" id="node17" d="M1533 1337 c-15 -31 -28 -34 -42 -9 -9 14 -10 14 -11 2 0 -19 19 -40
37 -40 16 0 35 36 31 57 -2 12 -6 10 -15 -10z"></path>
<path class="node" id="node18" d="M1755 1320 c25 -11 112 -12 118 -2 3 4 -27 8 -67 8 -45 1 -64 -1 -51
-6z"></path>
<path class="node" id="node19" d="M1333 1303 c9 -2 23 -2 30 0 6 3 -1 5 -18 5 -16 0 -22 -2 -12 -5z"></path>
<path class="node" id="node20" d="M1420 1301 c0 -6 6 -11 14 -11 7 0 19 -7 26 -15 16 -19 51 -19 76 0
18 14 17 14 -9 3 -24 -10 -33 -8 -67 11 -22 12 -40 17 -40 12z"></path>
<path class="node" id="node21" d="M1930 1276 c0 -2 25 -20 56 -40 63 -42 64 -31 2 15 -37 26 -58 35
-58 25z"></path>
<path class="node" id="node22" d="M1155 1263 c-27 -7 -108 -64 -101 -71 3 -3 14 2 24 11 10 9 39 26 65
37 59 26 64 36 12 23z"></path>
<path class="node" id="node23" d="M1484 1190 c-4 -22 -8 -40 -9 -40 -1 0 -20 7 -41 15 -23 9 -31 10
-20 2 44 -28 56 -47 56 -89 0 -54 -26 -98 -81 -138 -23 -16 -37 -30 -31 -30 6
0 37 24 68 53 l57 54 39 -39 c22 -22 47 -38 61 -37 21 0 21 1 2 8 -33 14 -82
70 -89 102 -8 40 14 89 53 122 38 31 29 36 -13 8 -37 -24 -49 -18 -41 20 4 16
4 29 1 29 -3 0 -9 -18 -12 -40z"></path>
<path class="node" id="node24" d="M1046 986 c6 -16 -17 -65 -54 -114 -53 -69 -159 -105 -194 -64 -9 9
-23 31 -32 47 l-17 30 5 -35 c7 -42 55 -90 91 -90 62 0 142 55 191 132 25 38
32 92 14 103 -5 3 -7 0 -4 -9z"></path>
<path class="node" id="node25" d="M1762 969 c-13 -5 -20 -13 -17 -19 8 -12 25 -13 45 0 23 14 0 30 -28
19z"></path>
<path class="node" id="node26" d="M2294 958 c18 -26 21 -84 6 -124 -9 -24 -14 -26 -46 -21 -48 8 -125
59 -174 115 -47 53 -53 43 -10 -16 50 -70 163 -129 223 -118 24 5 27 3 22 -13
-3 -11 -1 -22 5 -26 5 -3 10 -5 10 -3 5 34 29 148 35 161 5 13 2 17 -13 17
-11 0 -27 11 -36 25 -9 14 -21 25 -27 25 -5 0 -3 -10 5 -22z"></path>
<path class="node" id="node27" d="M1227 963 c-14 -13 -6 -24 15 -21 27 4 36 28 11 28 -11 0 -23 -3 -26
-7z"></path>
<path class="node" id="node28" d="M1424 929 c-20 -22 -23 -28 -8 -19 18 11 50 50 41 50 -2 0 -16 -14
-33 -31z"></path>
<path class="node" id="node29" d="M780 870 c0 -15 23 -60 30 -60 4 0 2 16 -4 35 -10 32 -26 48 -26 25z"></path>
<path class="node" id="node30" d="M1447 868 c38 -18 50 -88 21 -125 -7 -8 -3 -19 11 -34 14 -15 21 -37
22 -63 0 -31 2 -36 8 -21 8 20 8 20 15 -1 3 -12 4 -28 1 -37 -4 -8 0 -28 9
-44 9 -19 11 -34 5 -44 -12 -18 -11 -39 1 -39 15 0 24 68 10 85 -7 9 -10 27
-7 45 4 16 2 32 -3 35 -12 8 -13 85 -1 104 6 9 3 21 -10 35 -14 15 -19 32 -17
61 3 43 -2 42 83 30 l40 -6 -40 15 c-46 18 -95 21 -95 6 0 -7 -6 -7 -19 0 -11
5 -28 10 -38 9 -15 0 -15 -2 4 -11z"></path>
<path class="node" id="node31" d="M1746 862 c-3 -6 -3 -17 0 -25 5 -15 -14 -39 -52 -65 -18 -12 -18
-13 1 -8 11 3 30 8 41 11 17 5 24 1 33 -22 9 -23 10 -17 5 37 -5 64 -16 91
-28 72z"></path>
<path class="node" id="node32" d="M994 793 c-32 -36 -85 -84 -118 -105 -32 -21 -54 -38 -49 -38 24 0
133 83 175 133 84 99 77 108 -8 10z"></path>
<path class="node" id="node33" d="M740 813 c0 -7 -11 -13 -25 -13 -14 0 -25 -4 -25 -10 0 -5 10 -10 23
-10 13 0 28 -5 35 -12 9 -9 12 -8 12 8 0 21 -20 57 -20 37z"></path>
<path class="node" id="node34" d="M2552 808 c-7 -7 -12 -16 -12 -20 0 -12 78 -10 85 2 4 7 -2 9 -18 5
-17 -5 -28 -2 -34 9 -7 13 -12 13 -21 4z"></path>
<path class="node" id="node35" d="M2540 740 c0 -6 -10 -14 -22 -19 -21 -8 -20 -8 9 -13 27 -4 31 -1 31
19 0 13 -4 23 -9 23 -5 0 -9 -5 -9 -10z"></path>
<path class="node" id="node36" d="M2585 710 c-4 -6 5 -10 20 -10 15 0 24 4 20 10 -3 6 -12 10 -20 10
-8 0 -17 -4 -20 -10z"></path>
<path class="node" id="node37" d="M1769 658 c-24 -31 -30 -33 -115 -39 l-89 -6 83 -1 c74 -2 82 -4 82
-22 0 -10 -14 -35 -31 -55 -21 -24 -26 -35 -16 -35 19 0 35 20 64 83 14 29 31
60 40 69 8 9 13 22 12 27 -2 6 -16 -4 -30 -21z"></path>
<path class="node" id="node38" d="M2513 661 c-10 -16 -9 -20 6 -24 12 -3 17 1 16 14 -2 27 -9 30 -22
10z"></path>
<path class="node" id="node39" d="M1498 550 c2 -30 8 -59 13 -64 14 -15 10 55 -5 89 -12 28 -13 27 -8
-25z"></path>
</g>
<g transform="translate(0.000000,199.000000) scale(0.100000,-0.100000)" fill="#B1874A" stroke="none">

<path class="node" id="node41" d="M2598 1413 c-43 -10 -9 -31 106 -64 104 -31 136 -35 136 -15 0 34
-181 93 -242 79z"></path>
<path class="node" id="node42" d="M222 1369 c-54 -10 -68 -19 -51 -30 11 -7 11 -9 -2 -9 -9 0 -22 -6
-28 -14 -18 -21 3 -29 46 -17 53 15 52 6 -1 -18 -25 -11 -46 -25 -46 -30 0
-16 52 -12 170 12 85 18 106 26 108 41 4 18 -1 19 -57 13 -34 -4 -74 -9 -89
-12 -51 -10 9 13 71 27 67 15 73 35 10 30 -26 -2 -43 1 -43 7 0 12 -26 13 -88
0z m71 -16 c-7 -2 -19 -2 -25 0 -7 3 -2 5 12 5 14 0 19 -2 13 -5z m-50 -10
c-7 -2 -21 -2 -30 0 -10 3 -4 5 12 5 17 0 24 -2 18 -5z"></path>
<path class="node" id="node43" d="M2545 1350 c-13 -21 17 -37 139 -73 94 -28 124 -33 140 -25 19 11 19
11 -3 29 -48 39 -261 92 -276 69z"></path>
<path class="node" id="node44" d="M2532 1279 c2 -12 10 -25 18 -30 32 -16 252 -79 261 -73 26 15 -6 63
-42 64 -9 0 -60 14 -114 30 -117 36 -127 37 -123 9z"></path>
<path class="node" id="node45" d="M325 1249 c-99 -13 -175 -36 -175 -54 0 -18 -1 -18 127 1 121 18 153
28 153 49 0 16 -3 17 -105 4z"></path>


<path class="node" id="node48" d="M2515 1220 c-14 -22 30 -47 140 -78 124 -36 145 -38 145 -17 0 21
-34 40 -120 68 -98 33 -156 42 -165 27z"></path>
<path class="node" id="node49" d="M305 1185 c-127 -19 -165 -35 -144 -61 12 -15 28 -14 182 13 86 15
108 26 90 44 -16 16 -44 17 -128 4z"></path>
<path class="node" id="node50" d="M2500 1150 c0 -12 7 -15 150 -68 90 -34 107 -38 120 -26 25 24 -6 41
-130 74 -126 33 -140 35 -140 20z"></path>
<path class="node" id="node51" d="M295 1114 c-117 -20 -125 -23 -125 -39 0 -19 25 -19 147 1 94 16 123
26 123 45 0 12 -50 10 -145 -7z"></path>
<path class="node" id="node52" d="M2498 1093 c-47 -12 -4 -39 134 -84 51 -16 98 -27 105 -25 23 9 14
34 -21 55 -29 18 -177 63 -195 60 -3 -1 -14 -3 -23 -6z"></path>
<path class="node" id="node53" d="M317 1056 c-100 -21 -140 -37 -120 -49 4 -2 62 5 128 17 96 17 120
25 123 39 4 21 5 21 -131 -7z"></path>
<path class="node" id="node54" d="M2315 1015 c26 -21 169 -63 216 -63 19 0 58 -11 85 -26 49 -25 177
-60 197 -53 22 7 -309 114 -428 137 -33 7 -66 14 -75 17 -9 3 -8 -1 5 -12z"></path>
<path class="node" id="node55" d="M2470 1017 c0 -9 18 -19 48 -26 26 -7 83 -23 126 -37 47 -15 82 -22
88 -16 14 14 -10 28 -92 55 -101 34 -170 43 -170 24z"></path>
<path class="node" id="node56" d="M298 998 c-71 -15 -98 -25 -98 -35 0 -17 32 -14 170 14 83 16 85 17
75 32 -8 14 -32 13 -147 -11z"></path>









<path class="node" id="node66" d="M505 589 c-16 -5 -63 -17 -103 -27 -87 -20 -95 -38 -15 -34 67 4 163
38 163 58 0 16 -2 16 -45 3z"></path>

<path class="node" id="node68" d="M508 545 c-3 -4 -41 -15 -84 -26 -87 -22 -105 -32 -86 -51 10 -10 31
-9 98 5 88 18 138 41 131 61 -4 12 -49 21 -59 11z"></path>
<path class="node" id="node69" d="M2300 511 c0 -21 178 -80 243 -81 60 0 17 25 -94 57 -120 34 -149 39
-149 24z"></path>
<path class="node" id="node70" d="M495 474 c-136 -40 -155 -48 -155 -60 0 -9 12 -14 33 -15 l32 -1 -27
-10 c-28 -10 -37 -31 -18 -43 17 -10 228 45 234 62 10 25 -2 31 -41 22 -58
-13 -62 -10 -15 11 42 19 58 51 25 49 -10 0 -40 -7 -68 -15z m-48 -70 c-3 -3
-12 -4 -19 -1 -8 3 -5 6 6 6 11 1 17 -2 13 -5z"></path>
<path class="node" id="node71" d="M2282 462 c-28 -18 43 -57 155 -86 66 -17 113 -13 113 10 0 19 -47
38 -155 63 -104 24 -96 23 -113 13z"></path>
<path class="node" id="node72" d="M2262 391 c-21 -13 3 -26 114 -60 107 -33 148 -38 160 -20 12 20 -13
31 -118 54 -56 12 -112 25 -123 28 -11 4 -26 3 -33 -2z"></path>
<path class="node" id="node73" d="M520 363 c-146 -38 -160 -43 -160 -63 0 -25 12 -25 112 0 44 12 85
19 91 17 7 -2 -20 -11 -58 -21 -103 -26 -138 -40 -143 -55 -9 -28 196 4 248
39 13 9 12 13 -8 28 l-22 17 21 13 c16 11 18 16 9 28 -14 16 -17 16 -90 -3z"></path>
<path class="node" id="node74" d="M1850 319 c-47 -28 -129 -74 -183 -102 -95 -49 -99 -50 -140 -38 -23
7 -93 42 -155 77 -62 35 -117 64 -122 64 -18 0 -10 -29 9 -35 10 -3 67 -37
127 -75 136 -89 169 -100 225 -74 23 10 60 31 81 47 22 16 76 50 121 77 102
61 131 84 126 98 -2 7 -38 -9 -89 -39z"></path>
<path class="node" id="node75" d="M1750 324 c-88 -41 -153 -64 -182 -64 -15 0 -79 19 -143 41 -157 56
-171 41 -34 -35 156 -86 151 -85 239 -43 90 43 190 105 190 118 0 14 -10 11
-70 -17z"></path>
<path class="node" id="node76" d="M2258 342 c-26 -5 -22 -37 7 -50 44 -20 232 -63 249 -56 37 14 14 34
-71 60 -49 14 -106 31 -128 38 -22 7 -48 10 -57 8z"></path>
<path class="node" id="node77" d="M2213 264 c-3 -8 -2 -19 3 -24 15 -15 262 -83 279 -77 20 8 19 34 -2
46 -18 9 -248 71 -265 71 -5 0 -11 -7 -15 -16z"></path>
<path class="node" id="node78" d="M487 225 c-97 -25 -109 -31 -87 -46 36 -24 228 23 218 53 -7 20 -35
18 -131 -7z"></path>
<path class="node" id="node79" d="M2190 196 c0 -36 267 -115 286 -84 12 19 -22 37 -126 68 -116 33
-160 38 -160 16z"></path>
<path class="node" id="node80" d="M2192 129 c7 -26 132 -80 197 -86 51 -5 61 -3 61 10 0 21 -4 23 -102
51 -122 36 -162 42 -156 25z"></path>
</g>
</svg>