<!--?xml version="1.0" standalone="no"?-->

<svg version="1.0" xmlns="http://www.w3.org/2000/svg" width="288.000000pt" height="300.000000pt" viewBox="0 0 288.000000 300.000000" preserveAspectRatio="xMidYMid meet">
<g transform="translate(0.000000,300.000000) scale(0.100000,-0.100000)" fill="#53575B" stroke="none">


<path stroke-width="20" class="node" id="node3" d="M990 2558 c-19 -5 -51 -14 -71 -19 -46 -11 -104 -74 -118 -126 -6
-22 -11 -60 -12 -86 -2 -44 -5 -49 -43 -71 -23 -13 -54 -36 -71 -50 -30 -26
-82 -46 -121 -46 -11 0 -41 -13 -65 -29 -69 -43 -81 -81 -78 -258 1 -115 -1
-147 -13 -161 -43 -50 -69 -208 -48 -300 19 -90 60 -211 94 -282 80 -169 195
-311 196 -242 1 9 7 80 14 157 9 85 10 147 5 157 -5 9 -9 36 -9 60 0 41 3 45
50 76 28 17 50 37 50 42 0 26 20 5 36 -37 9 -27 27 -73 40 -104 l23 -55 -54
-105 c-87 -172 -125 -250 -125 -263 0 -6 23 -29 51 -51 28 -22 71 -56 95 -76
25 -20 68 -49 97 -64 130 -71 224 -115 255 -121 30 -6 38 -2 77 36 l43 42 73
-69 c41 -37 78 -74 82 -81 12 -18 26 -15 129 18 156 52 356 141 413 186 20 15
20 15 -5 60 -35 62 -140 207 -242 334 -79 98 -88 113 -88 151 0 36 2 40 15 29
8 -7 44 -15 81 -18 39 -3 68 -10 71 -18 17 -44 246 -176 329 -189 43 -7 174
28 174 46 0 5 6 9 13 9 16 0 67 54 94 100 12 19 26 60 33 90 25 114 -19 209
-128 279 -52 33 -133 89 -145 100 -4 4 4 35 18 70 47 121 71 232 90 418 8 71
2 86 -58 144 -102 100 -225 153 -382 166 -38 3 -86 14 -107 24 -125 63 -257
64 -445 4 -6 -2 -23 14 -37 35 -35 53 -65 71 -144 86 -77 15 -85 15 -132 2z
m110 -55 c54 -7 88 -23 116 -55 43 -47 57 -139 28 -183 -12 -19 -14 -37 -9
-75 8 -57 -4 -79 -55 -100 -26 -11 -29 -17 -28 -56 1 -50 16 -59 24 -15 3 16
20 39 36 51 l30 22 -7 -33 c-14 -68 -83 -153 -133 -166 -43 -11 -132 3 -151
23 -31 32 -76 144 -62 153 8 5 5 15 -12 33 -24 26 -42 104 -51 223 -5 58 23
127 60 152 30 19 123 43 149 37 11 -2 40 -7 65 -11z m539 -98 c52 -7 198 -76
236 -111 31 -29 50 -32 36 -6 -5 10 -17 24 -25 32 -9 7 -16 16 -16 21 0 16 84
9 125 -11 l40 -19 -50 5 -50 4 50 -24 c28 -13 71 -42 97 -65 58 -51 70 -39 20
20 l-37 44 41 -25 c23 -14 65 -46 93 -72 l52 -47 -6 -73 c-4 -40 -14 -95 -21
-123 -41 -146 -120 -355 -134 -355 -3 0 -11 24 -16 53 -8 46 -7 58 15 102 23
48 43 105 37 105 -2 0 -21 -27 -42 -60 l-38 -60 -40 37 c-23 21 -42 39 -44 40
-2 1 2 25 9 53 10 39 22 59 49 80 40 32 96 107 87 116 -3 3 -29 -13 -58 -36
-83 -66 -139 -90 -208 -90 -50 0 -66 5 -107 33 -27 18 -69 39 -94 46 -25 7
-58 22 -73 33 -36 26 -43 18 -27 -32 7 -22 11 -42 9 -44 -2 -1 -28 -16 -57
-31 -151 -81 -235 -250 -196 -398 8 -33 13 -62 10 -65 -15 -15 -65 61 -105
158 -8 21 -10 15 -10 -35 -1 -86 34 -135 96 -135 29 0 37 -6 63 -47 16 -26 28
-49 25 -51 -2 -2 -23 3 -47 12 l-43 17 30 -25 c17 -14 49 -35 72 -47 51 -25
63 -57 63 -171 l0 -78 -49 0 c-75 0 -94 10 -152 80 -19 24 -20 24 -16 3 6 -27
-62 -97 -86 -88 -14 6 -47 62 -47 82 0 4 -7 21 -15 37 -9 16 -16 49 -17 73 -2
37 2 48 37 83 41 42 44 62 4 32 -13 -10 -37 -23 -53 -30 -28 -12 -28 -14 -22
-65 4 -29 14 -83 21 -121 8 -38 13 -71 11 -73 -8 -9 -131 64 -131 78 0 9 -15
33 -33 54 -28 32 -52 73 -52 91 0 3 9 0 19 -6 30 -16 48 -12 24 5 -46 32 -68
87 -63 160 1 27 2 28 10 9 4 -12 26 -36 47 -53 36 -31 42 -32 98 -28 33 3 76
12 95 21 l35 15 -45 1 c-25 0 -61 5 -81 10 -50 14 -124 82 -161 147 -17 30
-34 51 -38 46 -3 -4 -12 -48 -19 -98 -22 -162 -87 -221 -211 -191 l-35 8 19
-21 c11 -11 25 -21 32 -21 20 0 25 -51 22 -217 l-3 -153 -23 34 c-17 25 -25
57 -32 127 -6 52 -13 109 -16 128 -9 58 -18 23 -15 -59 1 -44 0 -80 -3 -80
-10 0 -43 72 -70 154 -14 44 -32 86 -39 94 -8 10 -12 52 -12 121 0 88 4 114
22 154 12 26 26 47 31 47 6 0 15 -13 21 -30 5 -16 12 -30 14 -30 2 0 -1 33 -6
73 -4 39 -7 124 -5 187 3 99 7 121 27 156 27 48 84 84 131 84 23 0 46 12 83
44 29 24 62 49 75 55 26 14 28 10 35 -60 4 -44 3 -47 -29 -64 -43 -23 -36 -34
19 -28 41 5 45 3 51 -20 10 -40 74 -144 98 -162 13 -8 29 -15 36 -15 7 0 38
-20 69 -45 52 -42 83 -56 83 -36 0 5 23 32 50 61 28 29 50 54 50 57 0 9 -41
-19 -75 -52 l-37 -34 -47 24 c-26 14 -37 24 -26 23 69 -4 85 2 143 60 48 47
61 66 71 109 7 29 21 69 32 90 10 20 22 58 25 84 6 43 10 49 45 64 41 19 43
36 4 33 -13 -1 -35 4 -50 12 -40 22 -29 49 30 71 49 19 180 39 220 33 11 -1
40 -5 64 -9z m-335 -147 c9 -34 7 -58 -4 -58 -5 0 -10 9 -10 20 0 11 -6 23
-14 26 -17 7 -10 34 9 34 7 0 15 -10 19 -22z m-13 -91 c-10 -9 -11 -8 -5 6 3
10 9 15 12 12 3 -3 0 -11 -7 -18z m441 -248 c86 -44 127 -118 128 -228 0 -64
-5 -83 -35 -146 -40 -81 -79 -121 -155 -160 -45 -23 -61 -26 -109 -21 -31 3
-65 6 -75 6 -20 1 -80 31 -106 52 -9 7 -27 31 -40 53 -22 35 -25 52 -25 135 0
84 3 101 27 145 36 67 94 127 154 158 66 35 175 37 236 6z m188 -33 c0 -24
-16 -27 -35 -6 -18 19 -17 20 8 20 17 0 27 -5 27 -14z m17 -236 c-10 -170
-125 -309 -274 -330 -79 -11 -88 3 -12 19 167 34 279 182 266 350 -2 36 -8 75
-11 86 -4 11 3 2 14 -20 16 -31 20 -54 17 -105z m28 100 c3 -5 1 -10 -4 -10
-6 0 -11 5 -11 10 0 6 2 10 4 10 3 0 8 -4 11 -10z m32 -165 c-13 -123 -83
-232 -181 -282 -53 -27 -166 -44 -166 -25 0 5 8 8 19 5 22 -6 103 21 147 48
50 30 114 106 141 166 20 43 25 71 26 131 0 67 1 73 10 42 5 -19 7 -57 4 -85z
m42 65 c0 -10 -3 -8 -9 5 -12 27 -12 43 0 25 5 -8 9 -22 9 -30z m12 -149 c-7
-35 -20 -80 -31 -100 -45 -89 -163 -171 -247 -171 -24 0 -43 4 -43 9 0 4 11 6
24 4 34 -7 144 48 188 94 62 65 90 127 96 218 5 73 6 77 15 45 6 -23 5 -56 -2
-99z m183 -4 c24 -33 33 -125 17 -183 -23 -87 -117 -175 -202 -189 -64 -11
-113 3 -160 45 l-43 38 37 10 c89 25 197 145 197 220 0 14 16 49 36 79 l36 54
31 -24 c17 -13 40 -36 51 -50z m70 -39 c44 -88 32 -171 -38 -267 -36 -49 -107
-101 -137 -101 -8 0 -1 7 16 16 51 26 96 65 108 93 6 14 17 33 24 42 18 22 31
144 21 194 -5 21 -16 47 -25 57 -9 10 -11 18 -5 18 5 0 22 -23 36 -52z m66
-58 c24 -83 -2 -183 -64 -258 -30 -34 -113 -88 -122 -79 -3 3 12 15 34 26 116
59 175 230 122 351 l-20 45 20 -25 c11 -14 24 -41 30 -60z m41 13 c7 -16 16
-37 21 -49 11 -23 -5 -128 -27 -181 -8 -18 -35 -55 -60 -82 -48 -51 -95 -75
-170 -85 -30 -4 -21 1 38 23 89 33 140 76 178 149 30 59 33 169 6 220 -10 18
-13 32 -7 32 6 0 15 -12 21 -27z m-831 -234 c0 -59 -1 -60 -35 -75 -19 -7 -38
-14 -43 -14 -5 0 -12 33 -15 73 -4 39 -9 86 -13 104 l-6 32 56 -30 56 -31 0
-59z m-302 -90 l24 -29 -46 0 -47 0 16 30 c19 37 24 37 53 -1z m829 -5 c-3 -3
-12 -4 -19 -1 -8 3 -5 6 6 6 11 1 17 -2 13 -5z m56 -31 c-7 -2 -19 -2 -25 0
-7 3 -2 5 12 5 14 0 19 -2 13 -5z"></path>
<path class="node" id="node4" d="M890 2192 c0 -31 97 -63 107 -35 3 8 2 18 -3 23 -13 12 -104 23 -104
12z"></path>
<path class="node" id="node5" d="M1090 2193 c-35 -7 -49 -21 -43 -44 4 -15 9 -17 19 -8 7 6 22 8 34 4
22 -7 45 6 61 37 8 16 6 18 -18 17 -15 -1 -39 -4 -53 -6z"></path>
<path class="node" id="node6" d="M980 2043 c0 -18 45 -27 69 -13 34 18 24 29 -24 27 -28 -1 -45 -7
-45 -14z"></path>
<path class="node" id="node7" d="M980 1990 c0 -6 25 -10 58 -9 41 0 51 3 37 9 -28 12 -95 12 -95 0z"></path>
<path class="node" id="node8" d="M1004 1946 c23 -18 35 -20 56 -6 12 8 12 10 -5 10 -11 0 -31 3 -45 6
-24 5 -24 5 -6 -10z"></path>
<path class="node" id="node9" d="M1621 2074 c61 -61 137 -61 213 0 27 21 17 28 -25 16 -50 -14 -121
-12 -162 5 -57 24 -64 18 -26 -21z"></path>
<path class="node" id="node10" d="M700 1998 c0 -9 4 -19 8 -22 7 -4 30 -91 45 -171 3 -17 6 -16 17 10
19 45 -1 131 -40 170 -23 22 -30 26 -30 13z"></path>
<path class="node" id="node11" d="M734 1601 c-18 -27 -43 -49 -75 -63 -42 -19 -45 -24 -31 -35 10 -7
31 -13 49 -13 35 0 60 31 83 103 17 53 6 56 -26 8z"></path>
<path class="node" id="node12" d="M1206 1371 c-4 -6 -2 -19 3 -29 13 -24 -2 -45 -44 -67 -24 -12 -26
-15 -10 -15 11 0 31 7 44 17 17 12 28 13 40 6 20 -13 81 -27 81 -19 0 3 -17
17 -38 30 -21 13 -46 38 -54 56 -9 18 -18 27 -22 21z"></path>
<path class="node" id="node13" d="M1633 1703 c4 -21 -2 -33 -25 -55 -17 -15 -38 -28 -47 -28 -9 0 -22
-4 -29 -9 -10 -6 -7 -12 13 -25 25 -16 29 -16 61 -1 53 25 83 102 52 133 -20
20 -31 14 -25 -15z"></path>
<path class="node" id="node14" d="M730 1278 c0 -19 -2 -20 -10 -8 -7 11 -10 6 -11 -20 0 -19 -4 -71 -8
-114 -4 -44 -4 -98 -1 -120 l6 -41 43 88 c24 48 47 89 51 92 5 3 2 18 -6 33
-7 15 -14 35 -14 45 0 10 -5 15 -10 12 -6 -4 -13 7 -16 24 -7 36 -24 42 -24 9z"></path>
























</g>
<g transform="translate(0.000000,300.000000) scale(0.100000,-0.100000)" fill="#FFFFFF" stroke="none">


<path class="node" id="node41" d="M425 2380 c-3 -5 1 -10 10 -10 9 0 13 5 10 10 -3 6 -8 10 -10 10 -2
0 -7 -4 -10 -10z"></path>
<path class="node" id="node42" d="M962 2505 c-70 -17 -95 -35 -120 -87 -22 -47 -22 -82 -1 -217 9 -52
19 -81 36 -99 17 -18 20 -28 12 -33 -14 -9 31 -121 62 -153 19 -20 108 -34
151 -23 50 13 119 98 133 166 l7 33 -30 -22 c-16 -12 -33 -35 -36 -51 -8 -44
-23 -35 -24 15 -1 39 2 45 28 56 51 21 63 43 55 100 -5 38 -3 56 9 75 29 44
15 136 -28 183 -28 32 -62 48 -116 55 -25 4 -54 9 -65 11 -11 2 -44 -2 -73 -9z
m32 -325 c5 -5 6 -15 3 -23 -10 -28 -107 4 -107 35 0 11 91 0 104 -12z m167 2
c-16 -31 -39 -44 -61 -37 -12 4 -27 2 -34 -4 -10 -9 -15 -7 -19 8 -8 31 20 46
96 50 24 1 26 -1 18 -17z m-91 -132 c0 -16 -41 -32 -66 -26 -41 11 -28 31 21
33 25 1 45 -3 45 -7z m5 -60 c14 -6 4 -9 -37 -9 -33 -1 -58 3 -58 9 0 12 67
12 95 0z m-20 -40 c17 0 17 -2 5 -10 -21 -14 -33 -12 -56 6 -18 15 -18 15 6
10 14 -3 34 -6 45 -6z"></path>
<path class="node" id="node43" d="M1480 2409 c-94 -10 -174 -40 -178 -66 -3 -23 38 -48 73 -45 39 3 37
-14 -4 -33 -35 -15 -39 -21 -45 -64 -3 -26 -15 -64 -25 -84 -11 -21 -25 -61
-32 -90 -10 -43 -23 -62 -71 -109 -58 -58 -74 -64 -143 -60 -11 1 0 -9 26 -23
l47 -24 37 34 c34 33 75 61 75 52 0 -3 -22 -28 -50 -57 -27 -29 -50 -56 -50
-61 0 -20 -31 -6 -83 36 -31 25 -62 45 -69 45 -7 0 -23 7 -36 15 -24 18 -88
122 -98 162 -6 23 -10 25 -51 20 -55 -6 -62 5 -19 28 32 17 33 20 29 64 -7 70
-9 74 -35 60 -13 -6 -46 -31 -75 -55 -37 -32 -60 -44 -83 -44 -47 0 -104 -36
-131 -84 -20 -35 -24 -57 -27 -156 -2 -63 1 -148 5 -187 5 -40 8 -73 6 -73 -2
0 -9 14 -14 30 -6 17 -15 30 -21 30 -5 0 -19 -21 -31 -47 -18 -40 -22 -66 -22
-154 0 -69 4 -111 12 -121 7 -8 25 -50 39 -94 27 -82 60 -154 70 -154 3 0 4
36 3 80 -3 82 6 117 15 59 3 -19 10 -76 16 -128 7 -70 15 -102 32 -127 l23
-34 3 153 c3 166 -2 217 -22 217 -7 0 -21 10 -32 21 l-19 21 35 -8 c124 -30
189 29 211 191 7 50 16 94 19 98 4 5 21 -16 38 -46 37 -65 111 -133 161 -147
20 -5 56 -10 81 -10 l45 -1 -35 -15 c-19 -9 -62 -18 -95 -21 -56 -4 -62 -3
-98 28 -21 17 -43 41 -47 53 -8 19 -9 18 -10 -9 -5 -73 17 -128 63 -160 24
-17 6 -21 -24 -5 -10 6 -19 9 -19 6 0 -18 24 -59 52 -91 18 -21 33 -45 33 -54
0 -14 123 -87 131 -78 2 2 -3 35 -11 73 -7 38 -17 92 -21 121 -6 51 -6 53 22
65 16 7 40 20 53 30 40 30 37 10 -4 -32 -35 -35 -39 -46 -37 -83 1 -24 8 -57
17 -73 8 -16 15 -33 15 -37 0 -20 33 -76 47 -82 24 -9 92 61 86 88 -4 21 -3
21 16 -3 58 -70 77 -80 152 -80 l49 0 0 78 c0 114 -12 146 -63 171 -23 12 -55
33 -72 47 l-30 25 43 -17 c24 -9 45 -14 47 -12 3 2 -9 25 -25 51 -26 41 -34
47 -63 47 -62 0 -97 49 -96 135 0 50 2 56 10 35 40 -97 90 -173 105 -158 3 3
-2 32 -10 65 -39 148 45 317 196 398 29 15 55 30 57 31 2 2 -2 22 -9 44 -16
50 -9 58 27 32 15 -11 48 -26 73 -33 25 -7 67 -28 94 -46 41 -28 57 -33 107
-33 69 0 125 24 208 90 29 23 55 39 58 36 9 -9 -47 -84 -87 -116 -27 -21 -39
-41 -49 -80 -7 -28 -11 -52 -9 -53 2 -1 21 -19 44 -40 l40 -37 38 60 c21 33
40 60 42 60 6 0 -14 -57 -37 -105 -22 -44 -23 -56 -15 -102 5 -29 13 -53 16
-53 14 0 93 209 134 355 7 28 17 83 21 123 l6 73 -52 47 c-28 26 -70 58 -93
72 l-41 25 37 -44 c50 -59 38 -71 -20 -20 -26 23 -69 52 -97 65 l-50 24 50 -4
50 -5 -40 19 c-41 20 -125 27 -125 11 0 -5 7 -14 16 -21 8 -8 20 -22 25 -32
14 -26 -5 -23 -36 6 -38 35 -184 104 -236 111 -24 4 -53 8 -64 9 -11 2 -54 -1
-95 -5z m167 -314 c41 -17 112 -19 162 -5 42 12 52 5 25 -16 -76 -61 -152 -61
-213 0 -38 39 -31 45 26 21z m-876 -195 c9 -43 8 -62 -1 -85 -11 -26 -14 -27
-17 -10 -15 80 -38 167 -45 171 -4 3 -8 13 -8 22 0 13 7 9 30 -13 21 -21 34
-47 41 -85z m-11 -307 c-23 -72 -48 -103 -83 -103 -18 0 -39 6 -49 13 -14 11
-11 16 31 35 32 14 57 36 75 63 32 48 43 45 26 -8z m522 -299 c21 -13 38 -27
38 -30 0 -8 -61 6 -81 19 -12 7 -23 6 -40 -6 -13 -10 -33 -17 -44 -17 -16 0
-14 3 10 15 42 22 57 43 44 67 -5 10 -7 23 -3 29 4 6 13 -3 22 -21 8 -18 33
-43 54 -56z"></path>
<path class="node" id="node44" d="M1267 2266 c-3 -8 1 -17 9 -20 8 -3 14 -15 14 -26 0 -11 5 -20 10
-20 11 0 13 24 4 58 -7 25 -29 30 -37 8z"></path>
<path class="node" id="node45" d="M1286 2173 c-6 -14 -5 -15 5 -6 7 7 10 15 7 18 -3 3 -9 -2 -12 -12z"></path>
<path class="node" id="node46" d="M1496 1913 c-60 -31 -118 -91 -154 -158 -24 -44 -27 -61 -27 -145 0
-83 3 -100 25 -135 13 -22 31 -46 40 -53 26 -21 86 -51 106 -52 10 0 44 -3 75
-6 48 -5 64 -2 109 21 76 39 115 79 155 160 30 63 35 82 35 146 -1 110 -42
184 -128 228 -61 31 -170 29 -236 -6z m162 -195 c31 -31 1 -108 -52 -133 -32
-15 -36 -15 -61 1 -20 13 -23 19 -13 25 7 5 20 9 29 9 9 0 30 13 47 28 23 22
29 34 25 55 -6 29 5 35 25 15z"></path>
<path class="node" id="node47" d="M1885 1880 c19 -21 35 -18 35 6 0 9 -10 14 -27 14 -25 0 -26 -1 -8
-20z"></path>
<path class="node" id="node48" d="M1906 1775 c3 -11 9 -50 11 -86 13 -168 -99 -316 -266 -350 -76 -16
-67 -30 12 -19 149 21 264 160 274 330 3 51 -1 74 -17 105 -11 22 -18 31 -14
20z"></path>
<path class="node" id="node49" d="M1950 1750 c0 -5 5 -10 11 -10 5 0 7 5 4 10 -3 6 -8 10 -11 10 -2 0
-4 -4 -4 -10z"></path>
<path class="node" id="node50" d="M1983 1628 c-1 -60 -6 -88 -26 -131 -27 -60 -91 -136 -141 -166 -44
-27 -125 -54 -147 -48 -11 3 -19 0 -19 -5 0 -19 113 -2 166 25 27 14 68 45 91
69 67 73 108 216 86 298 -9 31 -10 25 -10 -42z"></path>
<path class="node" id="node51" d="M2021 1685 c1 -19 18 -51 18 -35 0 8 -4 22 -9 30 -5 8 -9 11 -9 5z"></path>
<path class="node" id="node52" d="M2038 1555 c-6 -91 -34 -153 -96 -218 -44 -46 -154 -101 -188 -94
-13 2 -24 0 -24 -4 0 -5 19 -9 43 -9 84 0 202 82 247 171 27 53 44 156 33 199
-9 32 -10 28 -15 -45z"></path>
<path class="node" id="node53" d="M2116 1517 c-20 -30 -36 -65 -36 -79 0 -75 -108 -195 -197 -220 l-37
-10 43 -38 c69 -62 157 -65 245 -10 88 56 132 145 124 253 -5 62 -22 93 -75
134 l-31 24 -36 -54z"></path>
<path class="node" id="node54" d="M2273 1492 c9 -10 20 -36 25 -57 10 -50 -3 -172 -21 -194 -7 -9 -18
-28 -24 -42 -12 -28 -57 -67 -108 -93 -17 -9 -24 -16 -16 -16 30 0 101 52 137
101 70 96 82 179 38 267 -14 29 -31 52 -36 52 -6 0 -4 -8 5 -18z"></path>
<path class="node" id="node55" d="M2340 1440 c53 -121 -6 -292 -122 -351 -22 -11 -37 -23 -34 -26 9 -9
92 45 122 79 81 97 97 239 34 318 l-20 25 20 -45z"></path>
<path class="node" id="node56" d="M2397 1408 c27 -51 24 -161 -6 -220 -38 -73 -89 -116 -178 -149 -59
-22 -68 -27 -38 -23 75 10 122 34 170 85 25 27 52 64 60 82 22 53 38 158 27
181 -5 12 -14 33 -21 49 -6 15 -15 27 -21 27 -6 0 -3 -14 7 -32z"></path>
<path class="node" id="node57" d="M1474 1267 c4 -18 9 -65 13 -104 3 -40 10 -73 15 -73 5 0 24 7 43 14
34 15 35 16 35 75 l0 59 -56 31 -56 30 6 -32z"></path>
<path class="node" id="node58" d="M1225 1090 l-16 -30 47 0 46 0 -24 29 c-29 38 -34 38 -53 1z"></path>
<path class="node" id="node59" d="M2088 1083 c7 -3 16 -2 19 1 4 3 -2 6 -13 5 -11 0 -14 -3 -6 -6z"></path>
<path class="node" id="node60" d="M2138 1053 c6 -2 18 -2 25 0 6 3 1 5 -13 5 -14 0 -19 -2 -12 -5z"></path>
<path class="node" id="node61" d="M2120 80 c0 -5 5 -10 10 -10 6 0 10 5 10 10 0 6 -4 10 -10 10 -5 0
-10 -4 -10 -10z"></path>

<path class="node" id="node63" d="M1264 69 c-3 -6 -1 -16 5 -22 8 -8 11 -5 11 11 0 24 -5 28 -16 11z"></path>
<path class="node" id="node64" d="M1482 60 c0 -14 2 -19 5 -12 2 6 2 18 0 25 -3 6 -5 1 -5 -13z"></path>
</g>
</svg>