<!--?xml version="1.0" standalone="no"?-->

<svg version="1.0" xmlns="http://www.w3.org/2000/svg" width="300.000000pt" height="270.000000pt" viewBox="0 0 300.000000 270.000000" preserveAspectRatio="xMidYMid meet">
<g transform="translate(0.000000,270.000000) scale(0.100000,-0.100000)" fill="#111213" stroke="none">
<path class="node" id="node1" d="M424 2611 c-2 -2 -4 -53 -4 -112 0 -102 -1 -107 -22 -113 -45 -12
-68 -7 -68 14 0 33 -18 23 -22 -12 l-3 -33 -113 0 -112 0 0 -27 0 -27 113 -3
112 -3 3 -32 c4 -36 22 -46 22 -13 0 17 7 20 45 20 l45 0 0 -115 0 -115 100 0
100 0 0 115 c0 102 2 117 20 135 23 23 80 28 80 6 0 -7 20 -44 45 -80 25 -37
45 -72 45 -77 0 -26 67 -103 121 -140 38 -25 73 -60 94 -92 43 -67 91 -111
136 -127 32 -11 37 -18 42 -51 3 -21 23 -77 45 -126 24 -50 46 -118 53 -159
14 -84 1 -135 -60 -244 -83 -147 -105 -207 -125 -345 -2 -16 -13 -66 -24 -110
-26 -103 -39 -201 -47 -347 -5 -86 -11 -118 -21 -122 -8 -3 -14 -12 -14 -20 0
-14 -47 -65 -105 -113 -41 -35 -30 -57 29 -61 38 -3 56 2 85 21 20 13 49 27
66 31 39 10 45 21 38 75 -7 60 19 191 53 266 14 33 30 93 35 132 11 84 52 163
128 247 26 28 65 86 86 129 35 68 43 77 68 77 15 0 27 -6 27 -12 0 -29 51
-118 105 -183 103 -125 127 -171 136 -255 5 -50 18 -95 37 -135 32 -64 51
-159 55 -264 2 -65 2 -65 36 -74 19 -4 42 -18 51 -30 15 -18 29 -22 82 -22 56
0 63 2 66 20 2 15 -16 38 -63 79 -36 31 -65 66 -65 76 0 10 -6 20 -14 23 -9 4
-16 51 -25 179 -7 95 -18 193 -26 218 -7 25 -20 90 -30 145 -24 137 -38 183
-97 305 -28 58 -55 123 -60 145 -35 151 -33 179 14 270 18 33 41 93 53 134 19
69 23 76 51 83 33 8 107 79 168 159 19 26 55 58 79 72 24 14 60 45 79 69 47
58 129 214 122 233 -5 12 2 15 33 15 62 0 72 -20 75 -152 l3 -113 97 -3 97 -3
3 113 3 113 43 3 c37 3 42 1 42 -17 0 -34 18 -24 22 12 l3 32 113 3 c61 1 112
7 112 12 0 4 3 15 6 24 5 14 -8 16 -103 16 -116 0 -133 6 -133 47 0 13 -4 23
-10 23 -5 0 -10 -9 -10 -20 0 -21 -23 -26 -67 -14 -21 6 -23 12 -25 116 l-3
110 -85 0 c-47 0 -91 -1 -97 -1 -10 -1 -13 -31 -13 -116 0 -100 -3 -119 -19
-136 -17 -18 -27 -20 -73 -15 -29 4 -66 6 -83 6 -16 -1 -325 -4 -686 -6 -579
-4 -658 -3 -669 11 -16 19 -57 19 -90 0 -39 -22 -91 -18 -117 9 -21 22 -23 33
-23 135 0 61 -3 111 -7 111 -62 4 -186 4 -189 1z m1735 -327 l24 -25 -44 -45
c-24 -25 -60 -55 -79 -66 -19 -12 -61 -45 -92 -75 -31 -29 -63 -53 -71 -53 -8
0 -37 -20 -65 -45 -36 -32 -58 -45 -80 -45 -16 0 -46 -7 -65 -15 -20 -8 -50
-15 -67 -15 -35 0 -39 19 -14 68 22 46 12 138 -19 170 -51 50 -143 44 -180
-12 -23 -35 -26 -105 -5 -165 10 -30 18 -56 18 -58 0 -9 -45 -1 -72 13 -17 9
-58 20 -91 24 -54 8 -65 14 -104 54 -24 26 -52 46 -61 46 -10 0 -34 16 -53 36
-18 20 -62 54 -96 76 -89 57 -124 113 -91 146 9 9 166 12 648 12 l635 0 24
-26z"></path>
</g>
<g transform="translate(0.000000,270.000000) scale(0.100000,-0.100000)" fill="#A3A3A4" stroke="none">


</g>
</svg>