<!--?xml version="1.0" standalone="no"?-->

<svg version="1.0" xmlns="http://www.w3.org/2000/svg" width="300.000000pt" height="265.000000pt" viewBox="0 0 300.000000 265.000000" preserveAspectRatio="xMidYMid meet">
<g transform="translate(0.000000,265.000000) scale(0.100000,-0.100000)" fill="#4A4A4A" stroke="none">
<path stroke-width="20" class="node" id="node1" d="M325 2625 c-22 -21 -25 -33 -25 -102 0 -72 -2 -79 -22 -88 -13 -6
-24 -20 -26 -31 -3 -20 -11 -22 -128 -29 l-124 -7 0 -34 0 -34 124 0 125 0 3
-27 c2 -17 12 -32 26 -38 20 -9 22 -17 22 -81 0 -57 4 -77 21 -98 23 -30 54
-33 81 -9 14 13 21 14 30 5 15 -15 60 -16 74 -2 6 6 20 6 41 -2 23 -9 38 -9
56 -1 28 13 37 46 37 137 0 55 3 62 25 72 22 11 25 9 34 -18 6 -17 23 -45 38
-63 16 -18 45 -60 65 -93 30 -51 46 -66 95 -91 38 -19 73 -47 98 -78 66 -83
118 -132 150 -143 28 -9 32 -16 44 -72 7 -34 23 -82 36 -107 35 -69 55 -148
55 -213 0 -50 -8 -75 -49 -161 -81 -169 -89 -189 -105 -257 -32 -136 -46 -209
-46 -236 0 -15 -7 -35 -16 -45 -9 -10 -20 -48 -24 -91 -5 -40 -14 -104 -19
-143 -6 -38 -11 -100 -11 -136 0 -37 -6 -77 -13 -90 -7 -13 -43 -53 -80 -88
-72 -69 -84 -101 -46 -122 32 -17 112 -6 144 19 15 12 37 22 49 22 50 0 60 20
67 141 7 115 19 165 58 230 13 22 26 72 34 131 14 101 30 133 117 233 46 54
102 146 119 198 7 20 18 37 25 37 7 0 30 -32 52 -71 21 -39 64 -99 95 -133 46
-50 61 -76 84 -144 19 -57 25 -92 21 -115 -15 -79 -18 -125 -7 -131 7 -5 11
-48 11 -122 0 -108 -1 -114 -20 -114 -19 0 -20 -4 -14 -72 3 -40 10 -77 16
-83 10 -11 45 -14 183 -18 105 -2 117 10 65 63 -24 25 -28 35 -20 45 19 23 8
60 -18 63 -13 2 -29 -1 -36 -7 -7 -6 -16 -8 -19 -4 -11 10 -8 89 4 120 19 50
30 126 30 216 1 48 5 90 10 92 16 11 26 72 18 116 -39 209 -83 329 -172 462
l-60 89 5 98 c5 93 8 105 51 192 25 51 49 112 52 136 4 23 12 42 19 42 25 0
92 39 122 72 17 18 48 59 68 90 23 35 54 66 80 82 57 34 106 89 162 186 26 44
48 80 50 80 1 0 14 -4 27 -9 23 -9 25 -14 26 -92 1 -61 5 -87 18 -101 20 -23
51 -23 75 -1 14 13 21 14 30 5 16 -16 61 -15 76 0 10 10 17 10 32 0 29 -18 57
-15 80 8 17 17 20 33 20 99 0 75 1 80 23 83 16 2 23 11 25 31 l3 27 125 0 124
0 0 34 0 34 -125 7 c-122 7 -125 8 -125 31 0 23 -31 49 -44 37 -3 -3 -6 29 -6
73 0 43 -6 90 -13 104 -14 29 -54 38 -88 20 -15 -9 -24 -9 -32 -1 -16 16 -62
14 -76 -3 -10 -12 -16 -12 -40 2 -26 15 -30 15 -54 -1 -24 -16 -26 -23 -29
-104 -3 -83 -4 -88 -25 -91 -14 -2 -25 -13 -29 -28 -3 -13 -11 -21 -16 -18
-18 11 -111 14 -124 3 -8 -6 -240 -8 -690 -5 -374 3 -695 6 -714 7 -19 1 -44
-1 -56 -5 -18 -6 -22 -3 -27 23 -5 22 -12 31 -27 31 -17 0 -20 7 -21 53 0 28
-2 67 -4 86 -5 53 -49 76 -97 50 -14 -8 -23 -8 -31 0 -16 16 -62 13 -77 -4
-11 -13 -15 -13 -33 0 -30 21 -44 19 -72 -10z m175 -14 c14 -26 14 -506 0
-532 -12 -21 -40 -25 -58 -7 -17 17 -17 529 0 546 18 18 46 14 58 -7z m99 5
c8 -9 11 -91 9 -276 -3 -229 -5 -264 -19 -273 -9 -6 -24 -7 -33 -4 -14 6 -16
36 -16 281 0 210 3 276 13 279 22 9 34 7 46 -7z m1959 2 c17 -17 17 -529 0
-546 -18 -18 -46 -14 -58 7 -6 12 -10 116 -10 270 0 214 2 252 16 265 19 19
36 20 52 4z m100 4 c9 -7 12 -70 10 -283 l-3 -274 -30 0 -30 0 -3 269 c-2 267
1 296 32 296 6 0 17 -4 24 -8z m-2263 -281 c0 -245 -2 -275 -17 -284 -12 -8
-21 -7 -32 2 -14 12 -16 49 -16 281 0 146 3 270 7 274 4 4 19 6 33 4 l25 -3 0
-274z m2065 24 c6 -293 5 -302 -21 -310 -47 -15 -49 -1 -49 285 0 146 3 270 7
274 4 4 19 6 33 4 l25 -3 5 -250z m-1800 -15 c0 -47 -4 -80 -10 -80 -6 0 -10
33 -10 80 0 47 4 80 10 80 6 0 10 -33 10 -80z m-360 -15 c0 -41 -4 -77 -10
-80 -10 -6 -11 1 -12 80 -1 70 2 86 12 80 6 -3 10 -39 10 -80z m2064 68 c2
-10 3 -43 1 -73 -4 -72 -3 -70 -15 -70 -6 0 -10 33 -10 80 0 74 12 105 24 63z
m364 -60 c-2 -50 -7 -78 -15 -81 -10 -3 -13 17 -13 77 0 66 3 81 15 81 13 0
15 -13 13 -77z m-525 27 c-4 -13 0 -20 9 -20 8 0 23 -9 33 -20 10 -11 29 -20
42 -20 12 0 23 -5 23 -10 0 -18 -90 -171 -128 -219 -20 -24 -59 -58 -88 -77
-36 -23 -67 -55 -100 -105 -52 -76 -92 -115 -106 -101 -10 10 -37 116 -38 149
0 26 81 83 120 83 14 0 35 7 46 15 18 14 18 14 -5 15 -21 0 -22 2 -10 17 8 9
44 36 81 60 58 38 148 124 148 143 0 3 -13 16 -30 28 -31 24 -38 50 -18 70 18
18 27 15 21 -8z m-1363 -8 c0 -11 -14 -25 -35 -35 -28 -13 -35 -14 -35 -3 0 8
11 17 25 20 14 4 25 13 25 21 0 8 5 15 10 15 6 0 10 -8 10 -18z m1204 1 c59
-3 105 -10 103 -16 -1 -5 -252 -10 -645 -10 -424 -1 -641 1 -639 8 2 6 37 13
78 16 108 8 977 10 1103 2z m-1320 -9 c25 -9 19 -24 -9 -24 -16 0 -25 6 -25
15 0 16 9 19 34 9z m-474 -13 c0 -12 -62 -21 -152 -21 -63 0 -78 3 -78 15 0
12 19 15 115 15 63 0 115 -4 115 -9z m2727 -3 c-2 -9 -31 -13 -92 -14 -99 -1
-135 4 -135 17 0 5 52 9 116 9 88 0 115 -3 111 -12z m-802 -48 c18 -20 18 -21
-2 -48 -11 -15 -53 -51 -94 -79 -41 -29 -84 -64 -95 -77 -12 -13 -40 -34 -63
-46 -23 -11 -59 -36 -80 -55 -28 -25 -48 -35 -72 -35 -19 0 -46 -6 -60 -14
-42 -22 -79 -28 -80 -14 -3 34 5 64 22 88 18 24 19 34 10 104 -13 108 -52 146
-151 146 -64 0 -111 -19 -138 -57 -25 -36 -30 -174 -6 -194 13 -11 21 -89 9
-89 -3 0 -23 9 -45 20 -22 11 -59 20 -83 20 -28 0 -49 6 -57 15 -7 8 -34 27
-61 42 -27 14 -49 30 -49 34 0 12 -92 98 -112 105 -45 14 -106 64 -110 91 -3
16 -9 36 -13 46 -7 16 28 17 652 17 650 0 660 0 678 -20z m-1357 -2 c5 -7 13
-23 16 -35 6 -19 0 -25 -35 -44 l-43 -21 -18 22 c-27 33 -23 64 10 77 38 15
58 15 70 1z m780 -75 c17 -12 28 -31 30 -49 2 -24 1 -26 -8 -11 -6 9 -18 17
-25 17 -8 0 -15 5 -15 10 0 7 -7 7 -21 0 -14 -8 -24 -8 -33 -1 -9 8 -18 7 -31
-3 -17 -12 -21 -12 -31 2 -15 21 -40 10 -63 -28 -22 -36 -33 -21 -18 24 21 61
153 85 215 39z m-673 -58 c60 -38 125 -93 125 -105 0 -4 -10 -6 -21 -6 -12 1
-24 -4 -26 -10 -2 -7 15 -13 44 -16 53 -5 123 -44 123 -69 0 -24 -31 -112 -45
-127 -12 -14 -28 1 -118 111 -21 26 -59 58 -85 71 -26 13 -59 37 -73 53 -31
32 -69 93 -69 109 0 14 63 43 75 34 6 -4 37 -24 70 -45z m666 -27 c10 -7 8 -8
-7 -4 -11 4 -28 0 -39 -8 -21 -15 -70 -8 -103 16 -19 13 -15 14 38 12 32 0 64
2 71 7 8 4 16 3 20 -3 4 -6 13 -15 20 -20z m-6 -28 c3 -6 -1 -7 -9 -4 -18 7
-21 14 -7 14 6 0 13 -4 16 -10z m-127 -37 c15 6 30 16 33 20 4 5 20 0 36 -12
21 -16 37 -20 56 -16 15 4 27 11 27 16 0 5 5 9 11 9 6 0 9 -7 5 -15 -3 -8 -1
-15 4 -15 6 0 10 -7 10 -15 0 -8 -4 -15 -8 -15 -5 0 -14 -23 -21 -51 -12 -47
-17 -53 -59 -71 l-45 -20 -48 22 c-43 21 -48 27 -54 64 -4 23 -15 50 -24 60
-11 13 -12 20 -5 23 7 2 9 14 6 26 l-5 21 27 -21 c24 -19 31 -20 54 -10z
m-125 -147 c30 -13 37 -21 37 -45 0 -31 39 -77 78 -92 77 -29 191 22 192 86 0
14 13 25 43 37 73 30 97 32 111 13 12 -17 13 -17 20 1 6 15 13 4 28 -46 10
-36 21 -73 24 -82 5 -13 -2 -19 -27 -26 -32 -8 -35 -13 -50 -74 -9 -37 -30
-88 -46 -115 -37 -62 -50 -108 -58 -213 l-7 -86 62 -91 c34 -50 77 -127 96
-170 l34 -78 -46 -7 c-54 -8 -102 -38 -134 -84 -12 -19 -26 -31 -31 -28 -17
10 -86 109 -111 158 l-24 48 28 28 c15 16 28 39 28 52 0 20 -3 19 -25 -14 -41
-60 -86 -59 -124 3 -11 18 -22 26 -25 20 -4 -6 4 -26 18 -44 23 -30 24 -37 15
-73 -13 -45 -53 -118 -83 -152 l-21 -23 -11 33 c-14 42 -62 75 -122 84 -26 3
-50 8 -53 10 -11 6 35 124 99 256 34 70 62 136 62 147 0 49 -36 191 -62 246
-15 33 -33 86 -39 118 -10 48 -17 60 -40 73 -27 14 -28 16 -15 37 8 12 20 44
27 71 l12 48 51 -5 c28 -2 68 -12 89 -21z m112 -36 c45 -25 75 -25 126 -1 36
18 41 18 46 4 3 -9 2 -23 -4 -31 -39 -63 -141 -77 -193 -27 -29 27 -38 54 -23
68 9 9 8 10 48 -13z m-193 -984 c37 -18 58 -51 58 -91 l0 -24 -36 24 c-20 14
-55 30 -78 35 -22 6 -47 13 -53 15 -14 5 -18 47 -5 59 10 11 73 1 114 -18z
m621 7 c3 -5 7 -21 8 -38 4 -29 3 -30 -51 -38 -30 -4 -69 -16 -88 -27 -43 -26
-55 -25 -47 3 10 31 54 77 90 93 33 15 81 18 88 7z m-647 -97 c66 -31 72 -41
41 -74 -13 -15 -31 -40 -38 -57 -13 -26 -20 -30 -57 -30 -23 0 -42 -3 -42 -6
0 -10 28 -19 56 -19 18 0 24 -5 24 -21 0 -44 -18 -59 -69 -59 -62 0 -86 23
-76 72 8 35 44 110 45 92 0 -16 39 -54 55 -54 22 0 18 18 -5 25 -11 3 -23 17
-26 31 -3 13 -13 24 -21 24 -9 0 -12 7 -9 18 2 9 7 32 11 50 5 26 11 32 33 32
15 0 50 -11 78 -24z m683 -40 c15 -61 14 -117 -3 -142 -8 -11 -16 -36 -18 -55
l-3 -34 -62 -3 -63 -3 0 36 c0 34 1 35 40 35 33 0 40 3 40 20 0 11 6 20 13 20
20 0 50 37 42 50 -4 7 -21 -4 -44 -29 -52 -56 -83 -55 -110 4 -28 62 -30 91
-7 105 30 19 96 39 132 39 29 1 32 -2 43 -43z m-753 -252 c31 6 34 5 34 -18 0
-39 -17 -74 -40 -81 -14 -5 -19 -12 -15 -24 13 -40 -29 -70 -77 -55 -19 6 -20
13 -16 93 5 107 9 114 49 94 19 -10 42 -13 65 -9z m729 -78 c-9 -90 -27 -124
-23 -43 2 40 -1 57 -9 57 -7 0 -13 -11 -13 -24 0 -49 -12 -86 -29 -86 -31 0
-45 18 -43 54 2 20 -2 36 -7 36 -13 0 -24 36 -17 58 5 14 19 17 77 18 l71 1
-7 -71z m-25 -140 c0 -37 -51 -106 -79 -106 -23 0 -24 2 -17 53 3 28 6 59 6
67 0 12 10 14 45 12 39 -4 45 -7 45 -26z m-746 -15 c-3 -14 -8 -46 -12 -70 -9
-55 -26 -62 -45 -19 -14 31 -29 113 -21 120 1 2 21 2 43 0 37 -4 40 -6 35 -31z
m-76 -100 c3 -8 -1 -12 -9 -9 -7 2 -15 10 -17 17 -3 8 1 12 9 9 7 -2 15 -10
17 -17z m902 -26 c0 -8 -7 -15 -15 -15 -8 0 -15 7 -15 15 0 8 7 15 15 15 8 0
15 -7 15 -15z m-930 -39 c17 -21 7 -20 -30 2 -16 10 -27 22 -24 25 8 8 36 -7
54 -27z m25 23 c11 -17 -1 -21 -15 -4 -8 9 -8 15 -2 15 6 0 14 -5 17 -11z m69
-22 c-10 -33 -24 -47 -48 -47 -12 0 -27 -5 -34 -12 -18 -18 -14 3 5 24 9 10
22 18 30 18 7 0 13 8 13 18 0 11 8 18 20 19 17 2 20 -2 14 -20z m766 -52 c16
8 37 15 46 15 19 0 54 -27 54 -42 0 -12 -104 -10 -137 3 -15 6 -44 12 -63 12
-30 2 -35 6 -38 30 -2 16 2 34 8 42 9 10 20 4 56 -31 44 -44 45 -44 74 -29z
m44 47 c2 -4 -11 -12 -30 -18 -38 -12 -47 1 -11 16 28 11 35 12 41 2z m-957
-8 c-3 -3 -12 -4 -19 -1 -8 3 -5 6 6 6 11 1 17 -2 13 -5z m24 -50 c9 -11 6
-16 -16 -24 -36 -14 -58 -13 -79 3 -18 13 -18 15 4 34 18 18 27 20 50 11 16
-5 34 -16 41 -24z"></path>
<path class="node" id="node2" d="M1893 1926 c-15 -13 -25 -27 -21 -31 7 -8 68 34 68 47 0 15 -18 8
-47 -16z"></path>
<path class="node" id="node3" d="M1080 1932 c0 -4 14 -16 30 -25 33 -20 43 -4 13 19 -20 15 -43 18
-43 6z"></path>
<path class="node" id="node4" d="M1483 2003 c16 -16 18 -16 34 0 16 16 15 17 -17 17 -32 0 -33 -1 -17
-17z"></path>
<path class="node" id="node5" d="M1437 1993 c-14 -13 -6 -53 12 -63 26 -14 74 -13 89 2 21 21 13 38
-17 38 -16 0 -34 7 -41 15 -13 16 -32 19 -43 8z m38 -33 c3 -5 16 -10 28 -11
12 0 16 -3 9 -6 -18 -7 -62 5 -62 17 0 13 17 13 25 0z"></path>
<path class="node" id="node6" d="M1203 1874 c39 -120 76 -186 62 -109 -7 44 -38 110 -56 121 -8 5 -10
1 -6 -12z"></path>
<path class="node" id="node7" d="M1083 443 c-6 -27 -12 -53 -14 -59 -2 -7 1 -12 6 -11 12 1 35 63 35
95 0 39 -17 23 -27 -25z"></path>














</g>
<g transform="translate(0.000000,265.000000) scale(0.100000,-0.100000)" fill="#FFFFFF" stroke="none">

<path class="node" id="node23" d="M381 2647 c2 -1 11 -8 20 -15 13 -10 19 -9 29 3 11 13 8 15 -20 15
-19 0 -31 -1 -29 -3z"></path>
<path class="node" id="node24" d="M507 2639 c8 -8 16 -8 30 0 16 9 14 10 -11 11 -22 0 -27 -3 -19 -11z"></path>

<path class="node" id="node26" d="M2441 2647 c2 -1 11 -8 20 -15 13 -10 19 -9 29 3 11 13 8 15 -20 15
-19 0 -31 -1 -29 -3z"></path>
<path class="node" id="node27" d="M2567 2639 c8 -8 16 -8 30 0 16 9 14 10 -11 11 -22 0 -27 -3 -19 -11z"></path>

<path class="node" id="node29" d="M442 2618 c-17 -17 -17 -529 0 -546 18 -18 46 -14 58 7 14 26 14 506
0 532 -12 21 -40 25 -58 7z"></path>
<path class="node" id="node30" d="M553 2623 c-10 -3 -13 -69 -13 -279 0 -245 2 -275 16 -281 9 -3 24
-2 33 4 14 9 16 44 19 273 3 290 0 306 -55 283z"></path>
<path class="node" id="node31" d="M2506 2614 c-14 -13 -16 -51 -16 -265 0 -154 4 -258 10 -270 12 -21
40 -25 58 -7 17 17 17 529 0 546 -16 16 -33 15 -52 -4z"></path>
<path class="node" id="node32" d="M2611 2616 c-8 -9 -11 -92 -9 -282 l3 -269 30 0 30 0 3 274 c2 279 1
290 -34 291 -6 0 -17 -6 -23 -14z"></path>
<path class="node" id="node33" d="M337 2614 c-4 -4 -7 -128 -7 -274 0 -232 2 -269 16 -281 11 -9 20
-10 32 -2 15 9 17 39 17 284 l0 274 -25 3 c-14 2 -29 0 -33 -4z"></path>
<path class="node" id="node34" d="M2397 2614 c-4 -4 -7 -128 -7 -274 0 -286 2 -300 49 -285 26 8 27 17
21 310 l-5 250 -25 3 c-14 2 -29 0 -33 -4z"></path>
<path class="node" id="node35" d="M640 2350 c0 -47 4 -80 10 -80 6 0 10 33 10 80 0 47 -4 80 -10 80 -6
0 -10 -33 -10 -80z"></path>
<path class="node" id="node36" d="M279 2398 c-1 -23 -1 -80 0 -126 1 -13 5 -20 11 -17 6 3 10 39 10 80
0 41 -4 77 -10 80 -5 3 -11 -4 -11 -17z"></path>
<path class="node" id="node37" d="M2340 2340 c0 -47 4 -80 10 -80 12 0 11 -2 15 70 4 61 -1 90 -16 90
-5 0 -9 -36 -9 -80z"></path>
<path class="node" id="node38" d="M2700 2339 c0 -60 3 -80 13 -77 8 3 13 31 15 81 2 64 0 77 -13 77
-12 0 -15 -15 -15 -81z"></path>
<path class="node" id="node39" d="M2182 2378 c-20 -20 -13 -46 18 -70 17 -12 30 -25 30 -28 0 -19 -90
-105 -148 -143 -37 -24 -73 -51 -81 -60 -12 -15 -11 -17 10 -17 23 -1 23 -1 5
-15 -11 -8 -32 -15 -46 -15 -39 0 -120 -57 -120 -83 1 -33 28 -139 38 -149 14
-14 54 25 106 101 33 50 64 82 100 105 29 19 68 53 88 77 38 48 128 201 128
219 0 5 -11 10 -23 10 -13 0 -32 9 -42 20 -10 11 -25 20 -33 20 -9 0 -13 7 -9
20 6 23 -3 26 -21 8z m-242 -436 c0 -13 -61 -55 -68 -47 -4 4 6 18 21 31 29
24 47 31 47 16z"></path>
<path class="node" id="node40" d="M820 2365 c0 -8 -11 -17 -25 -21 -14 -3 -25 -12 -25 -20 0 -11 7 -10
35 3 32 15 50 53 25 53 -5 0 -10 -7 -10 -15z"></path>
<path class="node" id="node41" d="M941 2361 c-41 -3 -76 -10 -78 -16 -2 -7 215 -9 639 -8 393 0 644 5
645 10 2 6 -44 13 -103 16 -126 8 -995 6 -1103 -2z"></path>
<path class="node" id="node42" d="M690 2345 c0 -9 9 -15 25 -15 28 0 34 15 9 24 -25 10 -34 7 -34 -9z"></path>
<path class="node" id="node43" d="M20 2335 c0 -12 15 -15 78 -15 42 0 94 3 115 6 73 13 35 24 -78 24
-96 0 -115 -3 -115 -15z"></path>
<path class="node" id="node44" d="M2750 2341 c0 -13 36 -18 135 -17 61 1 90 5 92 14 4 9 -23 12 -111
12 -64 0 -116 -4 -116 -9z"></path>


<path class="node" id="node47" d="M748 2287 c-33 -13 -37 -44 -10 -77 l18 -22 43 21 c35 19 41 25 35
44 -14 48 -33 55 -86 34z"></path>

<path class="node" id="node49" d="M2840 195 c0 -3 5 -15 10 -26 14 -26 50 -25 50 1 0 11 -6 20 -14 20
-8 0 -21 3 -30 6 -9 3 -16 3 -16 -1z"></path>
<path class="node" id="node50" d="M2260 155 c0 -8 5 -15 10 -15 6 0 10 7 10 15 0 8 -4 15 -10 15 -5 0
-10 -7 -10 -15z"></path>
<path class="node" id="node51" d="M2610 155 c0 -10 7 -15 18 -13 21 4 19 22 -2 26 -10 2 -16 -3 -16
-13z"></path>
<path class="node" id="node52" d="M1434 2221 c-28 -12 -45 -28 -51 -47 -15 -45 -4 -60 18 -24 23 38 48
49 63 28 10 -14 14 -14 31 -2 13 10 22 11 31 3 9 -7 19 -7 33 1 14 7 21 7 21
0 0 -5 7 -10 15 -10 7 0 19 -8 25 -17 9 -15 10 -13 8 11 -6 64 -113 95 -194
57z"></path>
<path class="node" id="node53" d="M813 2192 c-39 -18 -40 -25 -12 -72 32 -54 70 -90 121 -116 26 -13
64 -45 85 -71 90 -110 106 -125 118 -111 14 15 45 103 45 127 0 25 -70 64
-123 69 -29 3 -46 9 -44 16 2 6 14 11 26 10 11 0 21 2 21 6 0 12 -65 67 -125
105 -33 21 -64 41 -70 45 -5 4 -25 1 -42 -8z m310 -266 c30 -23 20 -39 -13
-19 -16 9 -30 21 -30 25 0 12 23 9 43 -6z"></path>
<path class="node" id="node54" d="M1551 2151 c-7 -5 -39 -7 -71 -7 -53 2 -57 1 -38 -12 33 -24 82 -31
103 -16 11 8 28 12 39 8 15 -4 17 -3 7 4 -7 5 -16 14 -20 20 -4 6 -12 7 -20 3z"></path>
<path class="node" id="node55" d="M1560 2106 c0 -2 7 -7 16 -10 8 -3 12 -2 9 4 -6 10 -25 14 -25 6z"></path>
<path class="node" id="node56" d="M1382 2073 c3 -12 1 -24 -6 -26 -7 -3 -6 -10 5 -23 9 -10 20 -37 24
-60 6 -37 11 -43 54 -64 l48 -22 45 20 c42 18 47 24 59 71 7 28 16 51 21 51 4
0 8 7 8 15 0 8 -4 15 -10 15 -5 0 -7 7 -4 15 4 8 1 15 -5 15 -6 0 -11 -4 -11
-9 0 -5 -12 -12 -27 -16 -19 -4 -35 0 -56 16 -16 12 -32 17 -36 12 -3 -4 -18
-14 -33 -20 -23 -10 -30 -9 -54 10 l-27 21 5 -21z m135 -70 c-16 -16 -18 -16
-34 0 -16 16 -15 17 17 17 32 0 33 -1 17 -17z m-37 -18 c7 -8 25 -15 41 -15
30 0 38 -17 17 -38 -15 -15 -63 -16 -89 -2 -18 10 -26 50 -12 63 11 11 30 8
43 -8z"></path>
<path class="node" id="node57" d="M1450 1960 c0 -12 44 -24 62 -17 7 3 3 6 -9 6 -12 1 -25 6 -28 11 -8
13 -25 13 -25 0z"></path>
<path class="node" id="node58" d="M1181 1894 c-7 -27 -19 -59 -27 -71 -13 -21 -12 -23 15 -37 23 -13
30 -25 40 -73 6 -32 24 -85 39 -118 26 -55 62 -197 62 -246 0 -11 -28 -77 -62
-147 -64 -132 -110 -250 -99 -256 3 -2 27 -7 53 -10 60 -9 108 -42 122 -84
l11 -33 21 23 c30 34 70 107 83 152 9 36 8 43 -15 73 -14 18 -22 38 -18 44 3
6 14 -2 25 -20 38 -62 83 -63 124 -3 22 33 25 34 25 14 0 -13 -13 -36 -28 -52
l-28 -28 24 -48 c25 -49 94 -148 111 -158 5 -3 19 9 31 28 32 46 80 76 134 84
l46 7 -34 78 c-19 43 -62 120 -96 170 l-62 91 7 86 c8 105 21 151 58 213 16
27 37 78 46 115 15 61 18 66 50 74 25 7 32 13 27 26 -3 9 -14 46 -24 82 -15
50 -22 61 -28 46 -7 -18 -8 -18 -20 -1 -14 19 -38 17 -111 -13 -30 -12 -43
-23 -43 -37 -1 -64 -115 -115 -192 -86 -39 15 -78 61 -78 92 0 24 -7 32 -37
45 -21 9 -61 19 -89 21 l-51 5 -12 -48z m58 -53 c11 -20 23 -55 26 -76 14 -77
-23 -11 -62 109 -10 32 15 9 36 -33z"></path>
<path class="node" id="node59" d="M1397 1893 c-15 -14 -6 -41 23 -68 52 -50 154 -36 193 27 6 8 7 22 4
31 -5 14 -10 14 -46 -4 -51 -24 -81 -24 -126 1 -40 23 -39 22 -48 13z"></path>
<path class="node" id="node60" d="M1138 914 c-13 -12 -9 -54 5 -59 6 -2 31 -9 53 -15 23 -5 58 -21 78
-35 l36 -24 0 24 c0 40 -21 73 -58 91 -41 19 -104 29 -114 18z"></path>
<path class="node" id="node61" d="M1785 896 c-36 -16 -80 -62 -90 -93 -8 -28 4 -29 47 -3 19 11 58 23
88 27 54 8 55 9 51 38 -1 17 -5 33 -8 38 -7 11 -55 8 -88 -7z"></path>
<path class="node" id="node62" d="M1115 798 c-4 -18 -9 -41 -11 -50 -3 -11 0 -18 9 -18 8 0 18 -11 21
-24 3 -14 15 -28 26 -31 23 -7 27 -25 5 -25 -16 0 -55 38 -55 54 -1 18 -37
-57 -45 -92 -10 -49 14 -72 76 -72 51 0 69 15 69 59 0 16 -6 21 -24 21 -28 0
-56 9 -56 19 0 3 19 6 42 6 37 0 44 4 57 30 7 17 25 42 38 57 15 15 22 31 18
38 -11 18 -106 60 -137 60 -22 0 -28 -6 -33 -32z"></path>
<path class="node" id="node63" d="M1795 796 c-69 -22 -83 -35 -75 -70 27 -113 68 -134 131 -65 23 25
40 36 44 29 8 -13 -22 -50 -42 -50 -7 0 -13 -9 -13 -20 0 -17 -7 -20 -40 -20
-39 0 -40 -1 -40 -35 l0 -36 63 3 62 3 3 34 c2 19 10 44 18 55 17 25 18 81 3
142 -11 41 -14 44 -43 43 -17 0 -49 -6 -71 -13z"></path>
<path class="node" id="node64" d="M1053 527 c-4 -6 -9 -51 -11 -98 -4 -80 -3 -87 16 -93 48 -15 90 15
77 55 -4 12 1 19 15 24 23 7 40 42 40 81 0 23 -3 24 -34 18 -23 -4 -46 -1 -65
9 -23 11 -33 12 -38 4z m57 -59 c0 -32 -23 -94 -35 -95 -5 -1 -8 4 -6 11 2 6
8 32 14 59 10 48 27 64 27 25z"></path>
<path class="node" id="node65" d="M1744 488 c-7 -22 4 -58 17 -58 5 0 9 -16 7 -36 -2 -36 12 -54 43
-54 17 0 29 37 29 86 0 13 6 24 13 24 8 0 11 -17 9 -57 -4 -81 14 -47 23 43
l7 71 -71 -1 c-58 -1 -72 -4 -77 -18z"></path>
<path class="node" id="node66" d="M1770 310 c0 -8 -3 -39 -6 -67 -7 -51 -6 -53 17 -53 28 0 79 69 79
106 0 19 -6 22 -45 26 -35 2 -45 0 -45 -12z"></path>
<path class="node" id="node67" d="M1036 312 c-8 -7 7 -89 21 -120 19 -43 36 -36 45 19 4 24 9 56 12 70
5 25 2 27 -35 31 -22 2 -42 2 -43 0z"></path>
<path class="node" id="node68" d="M1012 189 c2 -7 10 -15 17 -17 8 -3 12 1 9 9 -2 7 -10 15 -17 17 -8
3 -12 -1 -9 -9z"></path>
<path class="node" id="node69" d="M1910 155 c0 -8 7 -15 15 -15 8 0 15 7 15 15 0 8 -7 15 -15 15 -8 0
-15 -7 -15 -15z"></path>
<path class="node" id="node70" d="M956 143 c-3 -3 8 -15 24 -25 37 -22 47 -23 30 -2 -18 20 -46 35 -54
27z"></path>
<path class="node" id="node71" d="M1020 135 c7 -9 15 -13 17 -11 7 7 -7 26 -19 26 -6 0 -6 -6 2 -15z"></path>
<path class="node" id="node72" d="M1070 118 c0 -10 -6 -18 -13 -18 -8 0 -21 -8 -30 -18 -19 -21 -23
-42 -5 -24 7 7 22 12 34 12 24 0 38 14 48 47 6 18 3 22 -14 20 -12 -1 -20 -8
-20 -19z"></path>
<path class="node" id="node73" d="M1740 125 c-6 -8 -10 -26 -8 -42 3 -24 8 -28 38 -30 19 0 48 -6 63
-12 33 -13 137 -15 137 -3 0 15 -35 42 -54 42 -9 0 -30 -7 -46 -15 -29 -15
-30 -15 -74 29 -36 35 -47 41 -56 31z"></path>
<path class="node" id="node74" d="M1873 110 c-36 -15 -27 -28 11 -16 19 6 32 14 30 18 -6 10 -13 9 -41
-2z"></path>
<path class="node" id="node75" d="M938 103 c7 -3 16 -2 19 1 4 3 -2 6 -13 5 -11 0 -14 -3 -6 -6z"></path>
<path class="node" id="node76" d="M890 67 c-22 -19 -22 -21 -4 -34 21 -16 43 -17 79 -3 22 8 25 13 16
24 -7 8 -25 19 -41 24 -23 9 -32 7 -50 -11z"></path>
</g>
</svg>