<!--?xml version="1.0" standalone="no"?-->

<svg version="1.0" xmlns="http://www.w3.org/2000/svg" width="300.000000pt" height="300.000000pt" viewBox="0 0 300.000000 300.000000" preserveAspectRatio="xMidYMid meet">
<g transform="translate(0.000000,300.000000) scale(0.100000,-0.100000)" fill="#070707" stroke="none">
<path class="node" id="node1" d="M842 2810 c-73 -33 -151 -158 -173 -277 -23 -120 12 -261 72 -293 42
-23 165 -70 182 -70 54 0 158 85 193 158 8 18 21 35 28 38 24 9 137 -36 162
-64 27 -31 44 -81 44 -132 0 -19 11 -78 24 -130 21 -87 22 -106 14 -206 -8
-101 -7 -116 12 -163 11 -28 20 -67 20 -86 0 -19 9 -74 21 -122 36 -155 30
-236 -23 -326 -64 -109 -61 -167 13 -253 31 -35 48 -62 45 -72 -3 -10 -10 -49
-15 -88 -15 -103 -40 -152 -88 -174 -47 -21 -98 -69 -134 -125 -17 -26 -47
-53 -81 -73 -30 -17 -67 -45 -83 -63 l-27 -33 22 -18 c12 -10 37 -18 55 -18
17 0 66 -3 108 -6 65 -6 77 -5 77 8 0 10 -13 18 -35 22 -19 4 -37 11 -40 16
-7 11 71 69 151 112 86 45 180 123 206 170 38 68 48 61 48 -34 0 -72 -7 -122
-36 -294 -6 -29 -4 -32 28 -37 47 -7 231 -2 246 7 28 17 12 24 -110 50 -36 8
-40 25 -28 142 10 109 35 212 81 340 41 113 39 144 -12 199 l-42 45 6 75 c5
49 19 109 43 171 35 93 53 203 54 316 0 35 7 58 29 90 15 24 34 60 40 80 7 21
17 40 22 43 5 4 9 18 9 33 0 15 5 34 10 42 8 12 12 11 32 -7 34 -31 156 -76
205 -75 97 1 185 99 214 238 17 85 -5 159 -63 208 -23 20 -50 36 -60 36 -11 0
-33 7 -51 16 -43 23 -123 22 -166 0 -19 -10 -54 -39 -78 -64 l-42 -46 -71 37
c-39 20 -81 37 -94 37 -12 0 -26 3 -30 7 -8 8 -50 25 -226 90 -69 26 -128 52
-133 59 -9 16 -65 35 -97 32 -14 -1 -56 9 -93 22 -54 18 -67 26 -61 39 42 101
27 263 -29 309 -21 18 -184 73 -225 76 -18 1 -50 -5 -70 -14z m719 -581 c74
-27 153 -57 177 -66 28 -10 47 -24 52 -39 6 -14 22 -26 42 -32 30 -8 34 -12
41 -61 7 -39 5 -60 -4 -78 -7 -14 -13 -50 -12 -81 0 -41 -5 -65 -19 -84 -11
-15 -22 -44 -25 -63 -3 -19 -11 -35 -17 -35 -6 0 -21 -3 -33 -6 -19 -5 -23 -2
-23 15 0 11 10 31 21 42 19 19 21 30 17 101 -6 100 -28 128 -107 136 -46 4
-53 2 -82 -27 -30 -31 -31 -33 -25 -99 3 -37 8 -84 12 -104 3 -21 2 -38 -2
-38 -26 1 -35 22 -39 88 -2 39 -10 97 -19 129 -8 32 -24 95 -36 139 -11 45
-27 95 -34 110 -14 29 -30 104 -23 104 3 0 65 -23 138 -51z m397 -167 c6 -18
-15 -14 -22 4 -4 10 -1 14 6 12 6 -2 14 -10 16 -16z"></path>
</g>
<g transform="translate(0.000000,300.000000) scale(0.100000,-0.100000)" fill="#A2A2A2" stroke="none">


<path class="node" id="node4" d="M1936 2066 c3 -9 11 -16 16 -16 13 0 5 23 -10 28 -7 2 -10 -2 -6 -12z"></path>
</g>
</svg>