<!--?xml version="1.0" standalone="no"?-->

<svg version="1.0" xmlns="http://www.w3.org/2000/svg" width="300.000000pt" height="220.000000pt" viewBox="0 0 300.000000 220.000000" preserveAspectRatio="xMidYMid meet">
<g transform="translate(0.000000,220.000000) scale(0.100000,-0.100000)" fill="#445679" stroke="none">
<path class="node" id="node1" d="M1398 2102 c-209 -145 -413 -285 -424 -289 -6 -2 -24 15 -40 38 -37
53 -104 105 -148 113 -20 4 -87 -2 -158 -14 -94 -16 -130 -27 -155 -46 -99
-76 -153 -233 -153 -450 0 -87 -2 -102 -18 -110 -48 -24 -252 -170 -249 -178
3 -10 87 -70 272 -196 92 -62 103 -73 135 -134 41 -79 125 -169 178 -192 27
-12 54 -14 103 -10 64 6 67 5 120 -33 30 -21 186 -129 347 -239 l292 -202 403
278 c221 152 412 284 424 292 12 8 73 50 135 93 62 43 196 135 297 205 102 70
186 132 188 137 2 9 -261 198 -324 233 -16 9 -23 22 -23 42 0 24 5 30 31 35
51 11 73 90 49 176 -12 44 -52 83 -77 75 -15 -5 -25 9 -58 77 -29 59 -50 88
-75 105 -19 13 -47 44 -62 70 -40 68 -113 140 -156 152 -38 10 -196 -10 -255
-32 -26 -10 -97 -82 -97 -99 0 -3 -7 -23 -15 -43 l-15 -36 -42 27 c-23 16
-105 72 -183 125 -77 54 -142 98 -145 98 -3 0 -49 -30 -102 -68z m855 -26 c80
-33 166 -175 214 -351 24 -89 27 -119 27 -270 1 -153 -1 -177 -22 -240 -25
-73 -58 -125 -96 -150 -30 -20 -166 -47 -213 -43 l-38 3 40 12 c66 20 103 59
130 140 83 239 22 639 -125 821 -18 23 -41 44 -52 47 -30 10 -21 21 25 32 60
15 73 15 110 -1z m-693 -48 c32 -24 111 -78 173 -120 l115 -78 -6 -65 c-4 -58
-9 -70 -38 -99 l-34 -34 -53 20 c-38 15 -64 18 -97 14 -25 -4 -76 -11 -115
-16 -251 -33 -292 -49 -346 -136 -11 -19 -24 -34 -29 -34 -5 0 -15 -3 -23 -6
-11 -4 -16 5 -22 33 -4 20 -22 78 -41 128 l-34 90 27 23 c16 12 74 54 130 92
213 144 298 203 313 216 8 8 16 14 17 14 2 0 30 -19 63 -42z m-927 -192 c94
-56 183 -224 229 -436 29 -133 31 -383 4 -490 -59 -237 -210 -289 -335 -115
-41 58 -117 222 -123 265 -3 24 1 26 71 40 88 19 94 28 89 137 -2 54 -9 79
-24 100 -23 30 -32 32 -128 19 l-59 -8 6 119 c16 302 126 453 270 369z m1091
-219 c37 -20 41 -28 58 -97 18 -75 18 -75 -3 -133 -23 -62 -66 -107 -104 -107
l-23 0 23 79 c21 77 22 80 5 146 -14 54 -23 72 -51 94 l-34 26 35 6 c19 4 40
7 45 8 6 0 28 -9 49 -22z m159 -45 c25 -32 66 -74 91 -93 53 -40 62 -68 52
-167 -10 -97 -33 -137 -134 -237 l-91 -90 -29 -125 c-17 -69 -49 -207 -73
-307 l-42 -181 -75 -51 c-41 -28 -78 -51 -82 -51 -9 0 -166 104 -188 124 -10
10 -8 23 11 67 40 90 115 345 104 355 -1 2 -43 -74 -91 -169 -49 -95 -93 -176
-97 -182 -11 -11 -69 17 -95 46 -15 17 -11 28 69 181 47 90 103 194 124 232
l38 70 60 -3 60 -3 -40 29 c-35 26 -115 112 -123 132 -1 5 48 11 110 14 62 3
149 11 193 18 78 11 81 13 130 63 28 29 59 69 70 89 14 26 24 35 35 31 8 -4
26 -9 40 -12 22 -5 19 1 -26 54 -61 71 -84 112 -84 154 0 33 15 70 29 70 4 0
29 -26 54 -58z m-274 13 c33 -30 41 -45 51 -98 10 -54 9 -73 -5 -128 -21 -80
-37 -99 -85 -99 l-37 0 18 83 c10 45 19 89 19 98 0 10 -25 50 -56 89 -62 81
-61 90 13 90 35 0 50 -6 82 -35z m501 0 c7 -9 11 -17 9 -19 -2 -2 -39 -13 -81
-24 l-77 -19 -22 23 -21 23 33 6 c19 3 57 10 84 14 28 5 53 9 56 10 4 0 12 -6
19 -14z m-658 -22 c14 -16 38 -47 53 -70 26 -40 27 -46 20 -125 -4 -46 -11
-90 -16 -99 -8 -16 -66 -46 -73 -38 -1 2 2 45 7 96 10 92 10 93 -18 130 -15
21 -44 55 -64 76 -30 31 -33 39 -21 47 31 20 85 11 112 -17z m-111 -30 c51
-59 89 -124 84 -147 -2 -12 -7 -42 -10 -69 -5 -39 -11 -50 -35 -62 -47 -24
-50 -21 -50 63 l0 77 -43 42 c-41 41 -44 42 -81 32 -21 -6 -40 -9 -42 -6 -2 2
11 24 31 48 24 31 44 46 67 50 18 4 36 7 39 8 4 0 22 -16 40 -36z m-101 -118
c18 -19 31 -37 28 -40 -3 -4 -34 -13 -69 -21 -72 -17 -81 -11 -77 46 3 35 14
42 74 49 5 0 25 -15 44 -34z m-826 -120 c37 -77 27 -158 -21 -176 -20 -7 -20
-6 -7 19 20 38 17 99 -6 151 -24 53 -24 50 -1 44 11 -3 27 -20 35 -38z m2290
-55 c53 -36 96 -68 96 -72 0 -6 -134 -101 -405 -287 -44 -30 -103 -71 -131
-90 -28 -20 -100 -70 -160 -111 -60 -40 -169 -116 -241 -167 -102 -70 -133
-88 -133 -74 0 10 11 72 25 137 14 66 37 178 52 249 16 82 32 135 42 143 9 7
46 42 82 77 64 64 66 65 78 43 17 -33 92 -87 129 -94 39 -8 185 13 232 32 19
8 45 25 58 37 29 26 77 119 85 165 4 18 19 49 33 68 23 30 29 33 45 22 10 -7
61 -42 113 -78z m-2429 -38 c2 -33 33 -87 63 -112 20 -16 33 -32 30 -35 -6 -6
-168 103 -168 113 0 10 64 51 70 45 3 -3 5 -8 5 -11z m973 -110 c34 -53 62
-99 62 -103 0 -3 -35 -71 -79 -150 -129 -237 -153 -279 -158 -279 -4 0 -127
85 -143 98 -3 2 4 9 14 16 109 65 168 203 182 428 6 86 10 108 23 111 9 2 21
-3 26 -11 6 -8 38 -57 73 -110z"></path>
<path class="node" id="node2" d="M526 1571 c-3 -4 5 -18 18 -30 36 -34 76 -133 93 -230 12 -69 13
-102 5 -168 -13 -96 -31 -137 -75 -164 l-32 -20 45 7 c99 15 123 36 150 137
17 64 7 211 -21 302 -22 74 -67 148 -99 165 -23 12 -77 13 -84 1z"></path>
<path class="node" id="node3" d="M1060 90 c-13 -9 -13 -11 0 -20 8 -5 20 -9 25 -9 6 0 4 3 -2 6 -7 2
-13 9 -13 15 0 6 7 7 16 4 8 -3 12 -2 9 4 -8 12 -16 12 -35 0z"></path>
<path class="node" id="node4" d="M1945 89 c-4 -6 -5 -12 -2 -15 2 -3 7 2 10 11 7 17 1 20 -8 4z"></path>
<path class="node" id="node5" d="M2016 85 c4 -8 8 -15 10 -15 2 0 4 7 4 15 0 8 -4 15 -10 15 -5 0 -7
-7 -4 -15z"></path>
<path class="node" id="node6" d="M852 65 c0 -16 2 -22 5 -12 2 9 2 23 0 30 -3 6 -5 -1 -5 -18z"></path>
<path class="node" id="node7" d="M1120 61 c0 -17 2 -31 4 -31 8 0 13 51 5 56 -5 3 -9 -9 -9 -25z"></path>
<path class="node" id="node8" d="M1400 74 c0 -8 6 -11 15 -8 9 4 15 0 15 -8 0 -8 6 -15 14 -15 11 0
12 4 3 18 -14 23 -47 32 -47 13z"></path>
<path class="node" id="node9" d="M1506 82 c-3 -6 -14 -9 -24 -7 -9 1 -11 0 -4 -2 6 -3 12 -12 13 -21
0 -14 2 -14 6 -2 3 8 11 18 17 22 6 4 8 10 4 13 -3 4 -9 2 -12 -3z"></path>
<path class="node" id="node10" d="M1858 65 c6 -32 12 -32 12 0 0 14 -4 25 -9 25 -4 0 -6 -11 -3 -25z"></path>
<path class="node" id="node11" d="M1972 65 c0 -16 2 -22 5 -12 2 9 2 23 0 30 -3 6 -5 -1 -5 -18z"></path>
<path class="node" id="node12" d="M2051 74 c0 -11 3 -14 6 -6 3 7 2 16 -1 19 -3 4 -6 -2 -5 -13z"></path>
<path class="node" id="node13" d="M2118 60 c6 -39 12 -39 12 0 0 17 -4 30 -8 30 -5 0 -7 -13 -4 -30z"></path>
<path class="node" id="node14" d="M936 72 c7 -4 14 -16 17 -27 4 -15 5 -14 6 8 1 20 -4 27 -16 27 -12
0 -14 -3 -7 -8z"></path>
<path class="node" id="node15" d="M970 64 c0 -14 3 -15 12 -6 17 17 26 15 31 -8 4 -17 4 -16 3 2 -1 29
-46 40 -46 12z"></path>
<path class="node" id="node16" d="M1168 73 c6 -2 12 -10 12 -17 0 -7 7 -13 15 -13 13 0 13 3 -2 19 -9
10 -21 18 -27 17 -6 0 -6 -3 2 -6z"></path>
<path class="node" id="node17" d="M1552 74 c9 -3 19 -13 22 -22 3 -12 4 -12 3 3 -1 12 -10 21 -22 22
-15 1 -15 0 -3 -3z"></path>
<path class="node" id="node18" d="M1688 73 c7 -3 16 -2 19 1 4 3 -2 6 -13 5 -11 0 -14 -3 -6 -6z"></path>
<path class="node" id="node19" d="M1730 73 c0 -5 7 -17 15 -27 13 -17 15 -18 15 -3 0 9 -6 17 -12 17
-9 0 -8 4 2 10 13 8 12 10 -2 10 -10 0 -18 -3 -18 -7z"></path>
<path class="node" id="node20" d="M1260 61 c0 -6 5 -13 10 -16 6 -3 10 1 10 9 0 9 -4 16 -10 16 -5 0
-10 -4 -10 -9z"></path>
<path class="node" id="node21" d="M1340 59 c0 -5 5 -7 10 -4 6 3 10 8 10 11 0 2 -4 4 -10 4 -5 0 -10
-5 -10 -11z"></path>
<path class="node" id="node22" d="M2215 49 c-4 -6 -5 -12 -2 -15 2 -3 7 2 10 11 7 17 1 20 -8 4z"></path>
<path class="node" id="node23" d="M2155 40 c-3 -5 -1 -10 4 -10 6 0 11 5 11 10 0 6 -2 10 -4 10 -3 0
-8 -4 -11 -10z"></path>
</g>
<g transform="translate(0.000000,220.000000) scale(0.100000,-0.100000)" fill="#C5C1A4" stroke="none">

<path class="node" id="node25" d="M2143 2077 c-46 -11 -55 -22 -25 -32 11 -3 34 -24 52 -47 147 -182
208 -582 125 -821 -27 -81 -64 -120 -130 -140 l-40 -12 38 -3 c47 -4 183 23
213 43 38 25 71 77 96 150 21 63 23 87 22 240 0 151 -3 181 -27 270 -48 176
-134 318 -214 351 -37 16 -50 16 -110 1z"></path>

<path class="node" id="node27" d="M497 1842 c-74 -46 -124 -185 -134 -375 l-6 -119 59 8 c96 13 105 11
128 -19 15 -21 22 -46 24 -100 5 -109 -1 -118 -89 -137 -70 -14 -74 -16 -71
-40 6 -43 82 -207 123 -265 125 -174 276 -122 335 115 27 107 25 357 -4 490
-71 324 -234 523 -365 442z m113 -272 c32 -17 77 -91 99 -165 28 -91 38 -238
21 -302 -27 -101 -51 -122 -150 -137 l-45 -7 32 20 c44 27 62 68 75 164 8 66
7 99 -5 168 -17 97 -57 196 -93 230 -13 12 -21 26 -18 30 7 12 61 11 84 -1z"></path>
<path class="node" id="node28" d="M1630 1631 l-35 -6 34 -26 c28 -22 37 -40 51 -94 17 -66 16 -69 -5
-146 l-23 -79 23 0 c38 0 81 45 104 107 21 58 21 58 3 133 -17 69 -21 77 -58
97 -21 13 -43 22 -49 22 -5 -1 -26 -4 -45 -8z"></path>
<path class="node" id="node29" d="M1810 1611 c-28 -53 -6 -113 74 -205 45 -53 48 -59 26 -54 -14 3 -32
8 -40 12 -11 4 -21 -5 -35 -31 -11 -20 -42 -60 -70 -89 -49 -50 -52 -52 -130
-63 -44 -7 -131 -15 -193 -18 -62 -3 -111 -9 -110 -14 8 -20 88 -106 123 -132
l40 -29 -60 3 -60 3 -38 -70 c-21 -38 -77 -142 -124 -232 -80 -153 -84 -164
-69 -181 26 -29 84 -57 95 -46 4 6 48 87 97 182 48 95 90 171 91 169 11 -10
-64 -265 -104 -355 -19 -44 -21 -57 -11 -67 22 -20 179 -124 188 -124 4 0 41
23 82 51 l75 51 42 181 c24 100 56 238 73 307 l29 125 91 90 c101 100 124 140
134 237 10 99 1 127 -52 167 -25 19 -66 61 -91 93 -25 32 -50 58 -54 58 -5 0
-13 -9 -19 -19z"></path>
<path class="node" id="node30" d="M1472 1611 c-11 -6 -1 -25 42 -81 31 -39 56 -79 56 -89 0 -9 -9 -53
-19 -98 l-18 -83 37 0 c48 0 64 19 85 99 14 55 15 74 5 128 -10 53 -18 68 -51
98 -32 29 -47 35 -82 35 -23 0 -48 -4 -55 -9z"></path>
<path class="node" id="node31" d="M2035 1589 c-27 -4 -65 -11 -84 -14 l-33 -6 21 -23 22 -23 77 19 c42
11 79 22 81 24 5 5 -20 34 -28 33 -3 -1 -28 -5 -56 -10z"></path>
<path class="node" id="node32" d="M1340 1580 c-12 -8 -9 -16 21 -47 20 -21 49 -55 64 -76 28 -37 28
-38 18 -130 -5 -51 -8 -94 -7 -96 7 -8 65 22 73 38 5 9 12 53 16 99 7 79 6 85
-20 125 -49 74 -75 97 -114 97 -20 0 -43 -5 -51 -10z"></path>
<path class="node" id="node33" d="M1262 1561 c-23 -4 -43 -19 -67 -50 -20 -24 -33 -46 -31 -48 2 -3 21
0 42 6 37 10 40 9 81 -32 l43 -42 0 -77 c0 -84 3 -87 50 -63 24 12 30 23 35
62 3 27 8 57 10 69 3 12 -8 40 -24 65 -32 52 -90 120 -100 118 -3 -1 -21 -4
-39 -8z"></path>
<path class="node" id="node34" d="M1155 1441 c-26 -5 -30 -11 -33 -41 -4 -57 5 -63 77 -46 35 8 66 17
69 21 7 7 -59 75 -72 74 -6 -1 -24 -4 -41 -8z"></path>
<path class="node" id="node35" d="M360 1335 c0 -1 9 -22 20 -46 23 -52 26 -113 6 -151 -13 -25 -13 -26
7 -19 12 5 28 19 35 32 25 47 -8 172 -49 182 -10 3 -19 4 -19 2z"></path>



</g>
</svg>