<!--?xml version="1.0" standalone="no"?-->

<svg version="1.0" xmlns="http://www.w3.org/2000/svg" width="300.000000pt" height="226.000000pt" viewBox="0 0 300.000000 226.000000" preserveAspectRatio="xMidYMid meet">
<g transform="translate(0.000000,226.000000) scale(0.100000,-0.100000)" fill="#942C16" stroke="none">
<path class="node" id="node1" d="M1275 2244 c-91 -10 -297 -59 -405 -96 -496 -171 -809 -508 -861
-927 -27 -211 35 -436 173 -631 99 -140 297 -304 478 -395 98 -49 270 -111
380 -135 52 -12 111 -25 130 -30 19 -5 102 -14 183 -21 245 -21 543 17 764 97
54 20 109 39 123 43 72 23 256 131 350 207 178 143 300 309 360 493 175 537
-169 1079 -827 1300 -65 22 -174 52 -243 67 -111 23 -150 27 -345 29 -121 2
-238 1 -260 -1z m480 -129 c117 -17 185 -31 240 -49 22 -8 72 -24 110 -36 97
-31 277 -126 371 -195 259 -192 393 -432 394 -703 0 -219 -76 -401 -240 -576
-129 -137 -363 -283 -535 -334 -275 -81 -382 -96 -651 -89 -280 7 -452 44
-674 145 -322 146 -553 392 -620 660 -27 104 -27 280 -1 379 75 287 313 532
656 675 179 75 274 101 470 127 103 14 373 12 480 -4z"></path>
<path class="node" id="node2" d="M1275 2063 c-78 -9 -257 -48 -322 -69 -131 -43 -335 -151 -423 -225
-20 -17 -21 -20 -5 -14 52 19 128 27 215 22 183 -10 339 -96 364 -201 6 -23
-12 -144 -30 -209 -15 -49 -103 -101 -194 -113 l-50 -7 6 -81 c6 -67 12 -87
33 -113 39 -47 56 -49 97 -14 19 17 40 31 46 31 6 0 34 17 62 39 69 52 115 66
171 52 56 -14 58 -14 51 5 -3 9 -8 48 -11 88 -6 84 5 120 60 184 51 59 87 75
164 74 77 -1 124 -29 180 -106 34 -48 36 -53 35 -131 -1 -44 -4 -91 -8 -103
-8 -25 -5 -26 48 -11 54 15 111 -3 171 -52 26 -21 52 -39 59 -39 6 0 27 -13
46 -30 19 -16 40 -29 45 -29 6 0 25 13 43 30 24 21 35 41 38 67 2 20 6 60 9
88 l6 52 -53 7 c-104 14 -179 65 -197 134 -25 94 -33 170 -21 206 23 71 152
151 285 176 69 13 223 9 262 -8 18 -7 33 -12 33 -9 0 12 -166 115 -258 160
-232 115 -430 156 -742 154 -102 0 -198 -3 -215 -5z"></path>
<path class="node" id="node3" d="M570 1710 c-30 -11 -63 -29 -73 -39 -11 -10 -28 -55 -38 -100 -17
-71 -17 -86 -5 -114 17 -43 59 -77 130 -108 53 -23 56 -26 50 -53 -3 -16 -7
-34 -8 -41 -1 -7 -8 -21 -16 -30 -13 -15 -12 -19 9 -36 20 -16 22 -23 13 -48
-6 -16 -8 -38 -5 -49 9 -37 -59 -55 -77 -21 -7 11 -14 18 -17 16 -2 -3 0 -14
6 -26 9 -15 23 -21 64 -23 38 -2 52 -7 52 -18 0 -11 -14 -16 -52 -18 -29 -2
-53 -6 -53 -10 0 -4 20 -6 45 -4 35 3 45 1 45 -11 0 -15 -29 -27 -68 -27 -15
0 -29 11 -42 33 -21 34 -27 62 -10 52 7 -4 7 3 0 20 -12 32 -13 58 -2 51 5 -3
8 14 8 37 -1 27 3 41 10 40 7 -1 10 6 7 17 -7 27 -22 25 -27 -2 -25 -123 -27
-153 -11 -192 9 -21 15 -39 13 -41 -2 -1 -29 -10 -61 -19 -59 -17 -97 -45 -97
-70 0 -23 79 -84 139 -107 32 -12 91 -23 139 -26 45 -3 82 -10 82 -16 0 -17
-170 -1 -231 22 -54 21 -111 64 -121 92 -9 26 -20 1 -25 -58 -6 -70 12 -99 82
-133 108 -52 237 -64 324 -31 l50 19 18 -24 c9 -13 24 -26 31 -29 28 -10 321
90 337 115 3 5 10 10 15 10 20 0 69 -124 80 -204 l7 -49 -82 -116 c-45 -64
-80 -119 -76 -123 3 -3 31 -9 61 -13 30 -4 75 -10 99 -15 118 -22 510 -3 590
28 16 6 7 23 -70 132 -53 75 -89 135 -89 150 0 39 70 210 86 210 3 0 18 -9 33
-19 35 -25 83 -44 208 -81 56 -16 109 -27 117 -24 8 3 22 16 30 29 l15 23 51
-19 c108 -41 301 -6 377 67 35 34 36 37 30 92 -13 124 -34 151 -136 173 l-51
11 15 28 c17 33 14 159 -5 230 -13 48 -25 52 -26 8 0 -18 -4 -42 -8 -53 l-9
-20 16 20 c15 19 16 19 22 2 7 -18 4 -46 -10 -82 l-8 -20 17 20 c17 20 17 19
12 -7 -3 -14 -9 -34 -13 -44 -4 -12 -3 -15 5 -10 17 10 15 -7 -5 -49 -14 -29
-22 -35 -49 -35 -43 0 -64 9 -64 27 0 12 10 14 45 11 25 -2 45 0 45 4 0 5 -23
8 -50 8 -37 0 -52 4 -57 16 -8 20 11 32 43 26 14 -2 24 0 24 7 0 6 -7 11 -15
11 -8 0 -16 3 -16 8 -1 4 -3 16 -5 27 -2 11 -6 32 -10 47 -5 22 -1 32 17 48
20 17 22 21 9 29 -8 6 -15 21 -16 33 -1 13 -4 34 -8 48 -6 23 -1 27 59 54 85
38 125 82 125 139 0 59 -24 154 -45 177 -25 28 -135 60 -206 60 -110 0 -272
-60 -323 -120 -29 -35 -31 -61 -13 -159 21 -105 73 -140 222 -146 67 -3 70 -4
77 -31 6 -24 3 -32 -20 -52 l-27 -23 33 16 c57 28 96 -11 106 -103 5 -56 4
-63 -11 -60 -10 2 -28 18 -40 37 -29 43 -31 16 -3 -39 26 -51 25 -76 -6 -168
-32 -95 -85 -199 -128 -248 l-33 -38 -64 23 c-143 52 -232 117 -275 203 l-25
49 30 12 c38 14 40 27 4 27 -22 0 -32 -8 -48 -38 -12 -22 -35 -44 -57 -55 -48
-24 -104 -10 -159 40 -37 34 -40 35 -62 19 -86 -63 -99 -69 -142 -69 -47 0
-69 12 -95 56 l-17 27 -12 -42 c-20 -65 -112 -151 -214 -198 -47 -21 -100 -41
-118 -44 -31 -6 -37 -3 -66 39 -18 24 -33 47 -33 50 0 3 -11 22 -24 43 -12 20
-38 80 -57 133 -35 102 -35 107 -4 219 6 23 5 22 -20 -7 -14 -18 -31 -33 -36
-33 -16 0 1 122 20 143 39 46 83 43 99 -6 l10 -32 1 31 c1 24 -5 33 -24 42
-21 10 -24 16 -19 39 4 16 8 30 10 32 2 2 32 5 66 6 83 2 142 20 179 53 25 22
32 41 46 112 14 75 14 90 2 115 -49 104 -327 178 -469 125z m233 -29 c20 -8
24 -16 23 -43 -1 -26 -7 -35 -28 -42 -18 -6 -35 -6 -50 2 -21 10 -21 11 -3 10
40 -2 55 2 55 17 0 10 -10 15 -28 15 -34 0 -68 23 -58 38 9 14 55 16 89 3z
m1490 2 c13 -12 -26 -43 -55 -43 -18 0 -28 -5 -28 -15 0 -15 15 -19 55 -17 18
1 18 0 -3 -10 -38 -19 -76 1 -80 40 -3 26 1 34 20 41 27 11 82 14 91 4z
m-1701 -158 c72 -33 162 -55 222 -55 74 0 163 28 197 62 33 34 39 20 9 -22
-29 -40 -96 -60 -204 -60 -139 0 -251 40 -311 111 -35 42 -32 58 4 20 16 -17
53 -42 83 -56z m44 60 c20 -14 55 -30 78 -36 57 -16 150 -7 176 16 23 21 39
13 20 -10 -45 -55 -222 -40 -293 25 -39 36 -30 38 19 5z m1751 -11 c-53 -45
-176 -67 -246 -43 -31 11 -63 49 -41 49 5 0 10 -4 10 -9 0 -14 59 -31 109 -31
60 0 110 15 152 44 42 29 53 22 16 -10z m127 -2 c-56 -75 -181 -122 -327 -122
-131 0 -217 41 -217 104 0 19 1 19 17 -4 25 -37 42 -48 100 -65 125 -37 323 7
403 91 39 39 53 37 24 -4z m-1904 -664 c0 -13 -5 -30 -10 -38 -14 -23 -32 2
-24 34 8 32 34 35 34 4z m1835 -14 c0 -19 -5 -29 -15 -29 -16 0 -25 28 -16 51
10 25 31 10 31 -22z m-917 -47 c24 -42 76 -67 139 -67 27 0 52 -3 56 -6 11
-11 -21 -61 -55 -88 -28 -22 -30 -26 -12 -26 11 0 25 5 32 12 6 6 14 9 18 6 7
-8 -13 -47 -40 -76 l-21 -24 29 8 c26 6 28 5 21 -17 -14 -47 -42 -93 -69 -113
-23 -18 -42 -21 -121 -21 -79 0 -98 3 -122 21 -31 24 -57 65 -67 108 -7 27 -6
28 21 21 l28 -7 -21 24 c-21 23 -44 61 -44 73 0 3 9 1 21 -5 11 -6 28 -9 37
-7 14 3 12 6 -8 14 -26 11 -75 85 -63 97 3 3 29 6 56 6 63 0 115 25 139 67 11
18 21 33 23 33 2 0 12 -15 23 -33z m1112 -6 c0 -20 -68 -72 -118 -91 -59 -22
-184 -37 -227 -26 -44 11 -22 17 72 20 99 4 203 38 244 82 25 26 29 29 29 15z
m-1416 -88 c-35 -26 -48 -14 -18 16 23 24 30 26 33 14 2 -9 -5 -23 -15 -30z"></path>
<path class="node" id="node4" d="M1500 769 c0 -5 18 -27 41 -50 41 -41 41 -41 30 -84 -6 -24 -10 -61
-10 -82 2 -32 3 -33 6 -8 2 17 11 56 20 89 16 56 16 58 -3 69 -10 6 -34 25
-51 43 -18 17 -33 28 -33 23z"></path>
<path class="node" id="node5" d="M1448 722 c-43 -29 -44 -33 -23 -92 8 -23 16 -59 16 -79 2 -34 2 -34
6 -6 3 17 0 54 -7 83 l-12 54 34 28 c43 36 34 44 -14 12z"></path>
<path class="node" id="node6" d="M1516 665 c9 -14 21 -25 27 -25 6 0 0 11 -13 25 -13 14 -25 25 -27
25 -2 0 4 -11 13 -25z"></path>
<path class="node" id="node7" d="M1477 663 c-4 -3 -7 -11 -7 -17 0 -6 5 -5 12 2 6 6 9 14 7 17 -3 3
-9 2 -12 -2z"></path>
<path class="node" id="node8" d="M1500 625 c1 -16 28 -47 38 -44 5 2 -2 15 -14 29 -13 13 -24 20 -24
15z"></path>
<path class="node" id="node9" d="M1470 595 c-8 -9 -8 -15 -2 -15 12 0 26 19 19 26 -2 2 -10 -2 -17
-11z"></path>
<path class="node" id="node10" d="M1501 575 c0 -14 28 -50 34 -43 3 3 -3 16 -14 29 -11 13 -20 20 -20
14z"></path>
<path class="node" id="node11" d="M1476 545 c-3 -8 -1 -15 4 -15 6 0 10 7 10 15 0 8 -2 15 -4 15 -2 0
-6 -7 -10 -15z"></path>
<path class="node" id="node12" d="M357 1600 c-72 -91 -128 -197 -153 -290 -23 -88 -24 -273 -1 -358 20
-76 65 -174 77 -167 4 3 11 29 15 58 9 69 39 112 97 140 l47 22 1 65 c1 86 33
210 61 233 12 9 16 17 10 17 -17 0 -91 70 -108 104 -18 34 -14 114 10 204 8
28 12 52 11 52 -2 0 -32 -36 -67 -80z"></path>
<path class="node" id="node13" d="M2600 1640 c0 -8 5 -51 12 -96 14 -100 6 -126 -62 -187 -47 -43 -48
-43 -31 -67 23 -32 40 -116 45 -213 l3 -78 49 -23 c67 -32 83 -53 98 -132 l13
-69 17 40 c56 128 71 196 70 320 0 117 -25 219 -79 323 -37 72 -135 204 -135
182z"></path>
<path class="node" id="node14" d="M1450 1454 c-17 -7 -70 -61 -94 -96 -11 -15 -16 -45 -16 -94 0 -58 4
-74 20 -89 11 -10 20 -28 20 -41 0 -34 -64 -50 -129 -33 -60 15 -92 7 -139
-35 -20 -19 -53 -40 -73 -49 -19 -8 -51 -33 -71 -56 l-36 -42 -53 48 c-84 74
-99 87 -99 79 0 -3 26 -35 58 -69 31 -34 72 -80 90 -102 31 -38 32 -39 32 -14
0 54 84 139 137 139 14 0 22 4 18 10 -11 18 23 58 60 70 43 14 89 6 81 -15 -4
-12 2 -12 42 1 64 19 85 18 78 -3 -4 -14 6 -24 39 -40 25 -13 47 -23 49 -23 3
0 -2 14 -11 30 -34 68 15 158 72 132 35 -16 53 -87 32 -124 -11 -19 -12 -28
-5 -28 19 0 78 44 78 58 0 15 21 15 71 1 32 -10 40 -9 54 5 20 20 45 20 90 2
34 -15 61 -49 50 -66 -3 -6 3 -10 15 -10 56 0 126 -67 136 -131 l7 -40 17 28
c9 16 50 64 89 107 40 43 70 80 67 83 -3 3 -37 -24 -76 -61 l-71 -67 -48 51
c-26 28 -56 50 -67 50 -11 0 -33 14 -50 31 -54 57 -104 71 -168 48 -23 -8 -42
-8 -73 0 -49 13 -56 36 -24 77 29 36 27 153 -2 191 -57 74 -71 84 -128 88 -29
3 -61 2 -69 -1z m149 -78 c37 -34 55 -91 52 -163 -1 -22 -4 -23 -61 -18 -33 2
-59 1 -56 -3 3 -5 -11 -8 -30 -8 -19 0 -34 1 -34 3 0 1 12 9 28 18 l27 16 -29
-6 c-15 -3 -41 -9 -57 -12 -17 -3 -35 0 -44 7 -10 9 -15 9 -15 1 0 -6 -4 -11
-10 -11 -16 0 -12 50 5 56 9 4 15 20 15 43 0 44 19 82 47 96 31 16 137 3 162
-19z m-176 -278 c2 -18 3 -35 0 -38 -7 -8 -23 24 -23 48 0 34 17 26 23 -10z"></path>
<path class="node" id="node15" d="M1445 1341 c-6 -11 9 -23 19 -14 9 9 7 23 -3 23 -6 0 -12 -4 -16 -9z"></path>
<path class="node" id="node16" d="M1542 1338 c5 -15 28 -18 29 -3 0 6 -7 12 -17 13 -10 3 -15 -1 -12
-10z"></path>
<path class="node" id="node17" d="M1490 1315 c-11 -13 -9 -15 18 -13 24 2 29 5 20 15 -14 17 -23 16
-38 -2z"></path>
<path class="node" id="node18" d="M530 1245 c0 -8 2 -15 4 -15 2 0 6 7 10 15 3 8 1 15 -4 15 -6 0 -10
-7 -10 -15z"></path>
<path class="node" id="node19" d="M2227 1161 c-4 -18 -7 -48 -6 -65 1 -29 1 -29 10 9 6 22 8 51 7 65
-3 22 -4 21 -11 -9z"></path>
<path class="node" id="node20" d="M570 1132 c0 -12 19 -26 26 -19 2 2 -2 10 -11 17 -9 8 -15 8 -15 2z"></path>
<path class="node" id="node21" d="M2420 1125 c-7 -9 -8 -15 -2 -15 5 0 12 7 16 15 3 8 4 15 2 15 -2 0
-9 -7 -16 -15z"></path>
<path class="node" id="node22" d="M776 1093 c7 -39 14 -42 14 -5 0 18 -4 32 -9 32 -5 0 -7 -12 -5 -27z"></path>
<path class="node" id="node23" d="M2446 1054 c-17 -12 -17 -14 -4 -14 9 0 20 5 23 11 11 17 2 18 -19 3z"></path>
<path class="node" id="node24" d="M718 975 c-3 -4 3 -33 14 -66 26 -77 31 -72 9 9 -9 35 -20 60 -23 57z"></path>
<path class="node" id="node25" d="M2287 960 c-13 -40 -26 -94 -23 -97 6 -7 38 87 33 100 -3 9 -6 8 -10
-3z"></path>
<path class="node" id="node26" d="M1110 600 c-36 -15 -92 -34 -125 -42 -33 -9 -77 -23 -99 -32 -38 -16
-39 -16 -75 13 -31 24 -40 27 -56 18 -34 -20 -211 -12 -280 12 l-59 21 29 -31
c96 -100 324 -233 485 -284 47 -15 95 -31 107 -35 20 -8 30 2 104 108 45 64
84 122 86 129 6 16 -35 153 -45 152 -4 -1 -36 -13 -72 -29z"></path>
<path class="node" id="node27" d="M1812 613 c-5 -10 -15 -39 -22 -65 -12 -46 -12 -49 19 -97 17 -26 56
-82 86 -122 30 -41 56 -78 58 -82 4 -13 186 49 283 97 128 62 257 149 313 210
29 31 26 31 -25 9 -49 -21 -237 -25 -271 -5 -19 11 -26 9 -55 -17 l-33 -29
-155 52 c-85 29 -163 56 -172 60 -11 5 -19 2 -26 -11z"></path>
</g>
<g transform="translate(0.000000,226.000000) scale(0.100000,-0.100000)" fill="#D3AEA2" stroke="none">

<path class="node" id="node29" d="M1275 2119 c-196 -26 -291 -52 -470 -127 -343 -143 -581 -388 -656
-675 -26 -99 -26 -275 1 -379 67 -268 298 -514 620 -660 222 -101 394 -138
674 -145 269 -7 376 8 651 89 172 51 406 197 535 334 164 175 240 357 240 576
-1 271 -135 511 -394 703 -94 69 -274 164 -371 195 -38 12 -88 28 -110 36
-167 54 -519 81 -720 53z m495 -64 c208 -33 300 -61 462 -141 92 -45 258 -148
258 -160 0 -3 -15 2 -33 9 -39 17 -193 21 -262 8 -133 -25 -262 -105 -285
-176 -12 -36 -4 -112 21 -206 18 -69 93 -120 197 -134 l53 -7 -6 -52 c-3 -28
-7 -68 -9 -88 -3 -26 -14 -46 -38 -67 -18 -17 -37 -30 -43 -30 -5 0 -26 13
-45 29 -19 17 -40 30 -46 30 -7 0 -33 18 -59 39 -60 49 -117 67 -171 52 -53
-15 -56 -14 -48 11 4 12 7 59 8 103 1 78 -1 83 -35 131 -56 77 -103 105 -180
106 -77 1 -113 -15 -164 -74 -55 -64 -66 -100 -60 -184 3 -40 8 -79 11 -88 7
-19 5 -19 -51 -5 -56 14 -102 0 -171 -52 -28 -22 -56 -39 -62 -39 -6 0 -27
-14 -46 -31 -41 -35 -58 -33 -97 14 -21 26 -27 46 -33 113 l-6 81 50 7 c91 12
179 64 194 113 18 65 36 186 30 209 -25 105 -181 191 -364 201 -87 5 -163 -3
-215 -22 -16 -6 -15 -3 5 14 88 74 292 182 423 225 65 21 244 60 322 69 84 11
408 5 495 -8z m-908 -354 c81 -26 158 -76 177 -116 12 -25 12 -40 -2 -115 -14
-71 -21 -90 -46 -112 -37 -33 -96 -51 -179 -53 -34 -1 -64 -4 -66 -6 -2 -2 -6
-16 -10 -32 -5 -23 -2 -29 19 -39 19 -9 25 -18 24 -42 l-1 -31 -10 32 c-16 49
-60 52 -99 6 -19 -21 -36 -143 -20 -143 5 0 22 15 36 33 25 29 26 30 20 7 -31
-112 -31 -117 4 -219 19 -53 45 -113 57 -133 13 -21 24 -40 24 -43 0 -3 15
-26 33 -50 29 -42 35 -45 66 -39 18 3 71 23 118 44 102 47 194 133 214 198
l12 42 17 -27 c26 -44 48 -56 95 -56 43 0 56 6 142 69 22 16 25 15 62 -19 55
-50 111 -64 159 -40 22 11 45 33 57 55 16 30 26 38 48 38 36 0 34 -13 -4 -27
l-30 -12 25 -49 c43 -86 132 -151 275 -203 l64 -23 33 38 c43 49 96 153 128
248 31 92 32 117 6 168 -28 55 -26 82 3 39 12 -19 30 -35 40 -37 15 -3 16 4
11 60 -10 92 -49 131 -106 103 l-33 -16 27 23 c23 20 26 28 20 52 -7 27 -10
28 -77 31 -149 6 -201 41 -222 146 -18 98 -16 124 13 159 51 60 213 120 323
120 71 0 181 -32 206 -60 21 -23 45 -118 45 -177 0 -57 -40 -101 -125 -139
-60 -27 -65 -31 -59 -54 4 -14 7 -35 8 -48 1 -12 8 -27 16 -33 13 -8 11 -12
-9 -29 -18 -16 -22 -26 -17 -48 4 -15 8 -36 10 -47 2 -11 4 -23 5 -27 0 -5 8
-8 16 -8 8 0 15 -5 15 -11 0 -7 -10 -9 -24 -7 -32 6 -51 -6 -43 -26 5 -12 20
-16 57 -16 27 0 50 -3 50 -8 0 -4 -20 -6 -45 -4 -35 3 -45 1 -45 -11 0 -18 21
-27 64 -27 27 0 35 6 49 35 20 42 22 59 5 49 -8 -5 -9 -2 -5 10 4 10 10 30 13
44 5 26 5 27 -12 7 l-17 -20 8 20 c14 36 17 64 10 82 -6 17 -7 17 -22 -2 l-16
-20 9 20 c4 11 8 35 8 53 1 44 13 40 26 -8 19 -71 22 -197 5 -230 l-15 -28 51
-11 c102 -22 123 -49 136 -173 6 -55 5 -58 -30 -92 -76 -73 -269 -108 -377
-67 l-51 19 -15 -23 c-8 -13 -22 -26 -30 -29 -8 -3 -61 8 -117 24 -125 37
-173 56 -208 81 -15 10 -30 19 -33 19 -16 0 -86 -171 -86 -210 0 -15 36 -75
89 -150 77 -109 86 -126 70 -132 -80 -31 -472 -50 -590 -28 -24 5 -69 11 -99
15 -30 4 -58 10 -61 13 -4 4 31 59 76 123 l82 116 -7 49 c-11 80 -60 204 -80
204 -5 0 -12 -5 -15 -10 -16 -25 -309 -125 -337 -115 -7 3 -22 16 -31 29 l-18
24 -50 -19 c-87 -33 -216 -21 -324 31 -70 34 -88 63 -82 133 5 59 16 84 25 58
10 -28 67 -71 121 -92 61 -23 231 -39 231 -22 0 6 -37 13 -82 16 -48 3 -107
14 -139 26 -60 23 -139 84 -139 107 0 25 38 53 97 70 32 9 59 18 61 19 2 2 -4
20 -13 41 -16 39 -14 69 11 192 5 27 20 29 27 2 3 -11 0 -18 -7 -17 -7 1 -11
-13 -10 -40 0 -23 -3 -40 -8 -37 -11 7 -10 -19 2 -51 7 -17 7 -24 0 -20 -17
10 -11 -18 10 -52 13 -22 27 -33 42 -33 39 0 68 12 68 27 0 12 -10 14 -45 11
-25 -2 -45 0 -45 4 0 4 24 8 53 10 38 2 52 7 52 18 0 11 -14 16 -52 18 -41 2
-55 8 -64 23 -6 12 -8 23 -6 26 3 2 10 -5 17 -16 18 -34 86 -16 77 21 -3 11
-1 33 5 49 9 25 7 32 -13 48 -21 17 -22 21 -9 36 8 9 15 23 16 30 1 7 5 25 8
41 6 27 3 30 -50 53 -71 31 -113 65 -130 108 -12 28 -12 43 5 114 10 45 27 90
38 100 10 10 43 28 73 39 70 26 195 22 292 -9z m-449 -73 c-24 -90 -28 -170
-10 -204 17 -34 91 -104 108 -104 6 0 2 -8 -10 -17 -28 -23 -60 -147 -61 -233
l-1 -65 -47 -22 c-58 -28 -88 -71 -97 -140 -4 -29 -11 -55 -15 -58 -12 -7 -57
91 -77 167 -23 85 -22 270 1 358 25 93 81 199 153 290 35 44 65 80 67 80 1 0
-3 -24 -11 -52z m2322 -170 c54 -104 79 -206 79 -323 1 -124 -14 -192 -70
-320 l-17 -40 -13 69 c-15 79 -31 100 -98 132 l-49 23 -3 78 c-5 97 -22 181
-45 213 -17 24 -16 24 31 67 68 61 76 87 62 187 -7 45 -12 88 -12 96 0 22 98
-110 135 -182z m-1135 -35 c63 -69 68 -80 68 -153 0 -53 -4 -75 -19 -94 -32
-41 -25 -64 24 -77 31 -8 50 -8 73 0 64 23 114 9 168 -48 17 -17 39 -31 50
-31 11 0 41 -22 67 -50 l48 -51 71 67 c39 37 73 64 76 61 3 -3 -27 -40 -67
-83 -39 -43 -80 -91 -89 -107 l-17 -28 -7 40 c-10 64 -80 131 -136 131 -12 0
-18 4 -15 10 11 17 -16 51 -50 66 -45 18 -70 18 -90 -2 -14 -14 -22 -15 -54
-5 -50 14 -71 14 -71 -1 0 -14 -59 -58 -78 -58 -7 0 -6 9 5 28 21 37 3 108
-32 124 -57 26 -106 -64 -72 -132 9 -16 14 -30 11 -30 -2 0 -24 10 -49 23 -33
16 -43 26 -39 40 7 21 -14 22 -78 3 -40 -13 -46 -13 -42 -1 8 21 -38 29 -81
15 -37 -12 -71 -52 -60 -70 4 -6 -4 -10 -18 -10 -53 0 -137 -85 -137 -139 0
-25 -1 -24 -32 14 -18 22 -59 68 -90 102 -32 34 -58 66 -58 69 0 8 15 -5 99
-79 l53 -48 36 42 c20 23 52 48 71 56 20 9 53 30 73 49 47 42 79 50 139 35 65
-17 129 -1 129 33 0 13 -9 31 -20 41 -16 15 -20 31 -20 89 0 76 5 89 63 150
41 43 51 47 116 41 44 -3 60 -9 81 -32z m-1056 -178 c-4 -8 -8 -15 -10 -15 -2
0 -4 7 -4 15 0 8 4 15 10 15 5 0 7 -7 4 -15z m1687 -140 c-9 -38 -9 -38 -10
-9 -1 17 2 47 6 65 7 30 8 31 11 9 1 -14 -1 -43 -7 -65z m-1635 8 c-7 -7 -26
7 -26 19 0 6 6 6 15 -2 9 -7 13 -15 11 -17z m1838 12 c-4 -8 -11 -15 -16 -15
-6 0 -5 6 2 15 7 8 14 15 16 15 2 0 1 -7 -2 -15z m-1644 -37 c0 -37 -7 -34
-14 5 -2 15 0 27 5 27 5 0 9 -14 9 -32z m1675 -37 c-3 -6 -14 -11 -23 -11 -13
0 -13 2 4 14 21 15 30 14 19 -3z m-1710 -199 c-1 -2 -12 24 -23 57 -11 33 -17
62 -14 66 3 3 14 -22 23 -57 10 -35 16 -64 14 -66z m1529 53 c-20 -55 -28 -54
-12 1 18 66 20 70 25 57 3 -7 -3 -33 -13 -58z m-1073 -345 c11 -39 19 -76 16
-83 -2 -7 -41 -65 -86 -129 -74 -106 -84 -116 -104 -108 -12 4 -60 20 -107 35
-161 51 -389 184 -485 284 l-29 31 59 -21 c69 -24 246 -32 280 -12 16 9 25 6
56 -18 36 -29 37 -29 75 -13 22 9 66 23 99 32 33 8 89 27 125 42 36 16 68 28
72 29 4 1 17 -31 29 -69z m799 4 l155 -52 33 29 c29 26 36 28 55 17 34 -20
222 -16 271 5 51 22 54 22 25 -9 -56 -61 -185 -148 -313 -210 -97 -48 -279
-110 -283 -97 -2 4 -28 41 -58 82 -30 40 -69 96 -86 122 -31 48 -31 51 -19 97
19 70 29 85 48 76 9 -4 87 -31 172 -60z"></path>
<path class="node" id="node30" d="M714 1678 c-10 -15 24 -38 58 -38 18 0 28 -5 28 -15 0 -15 -15 -19
-55 -17 -18 1 -18 0 3 -10 15 -8 32 -8 50 -2 21 7 27 16 28 42 1 27 -3 35 -23
43 -34 13 -80 11 -89 -3z"></path>
<path class="node" id="node31" d="M2202 1679 c-19 -7 -23 -15 -20 -41 4 -39 42 -59 80 -40 21 10 21 11
3 10 -40 -2 -55 2 -55 17 0 10 10 15 28 15 29 0 68 31 55 43 -9 10 -64 7 -91
-4z"></path>
<path class="node" id="node32" d="M480 1602 c0 -17 49 -69 86 -92 61 -38 152 -60 250 -60 108 0 175 20
204 60 30 42 24 56 -9 22 -34 -34 -123 -62 -197 -62 -101 0 -253 55 -305 111
-16 17 -29 26 -29 21z"></path>
<path class="node" id="node33" d="M617 1580 c71 -65 248 -80 293 -25 19 23 3 31 -20 10 -26 -23 -119
-32 -176 -16 -23 6 -58 22 -78 36 -49 33 -58 31 -19 -5z"></path>
<path class="node" id="node34" d="M2371 1584 c-42 -29 -92 -44 -152 -44 -50 0 -109 17 -109 31 0 5 -5
9 -10 9 -22 0 10 -38 41 -49 70 -24 193 -2 246 43 37 32 26 39 -16 10z"></path>
<path class="node" id="node35" d="M2490 1576 c-80 -84 -278 -128 -403 -91 -58 17 -75 28 -100 65 -16
23 -17 23 -17 4 0 -63 86 -104 217 -104 146 0 271 47 327 122 29 41 15 43 -24
4z"></path>
<path class="node" id="node36" d="M576 904 c-8 -32 10 -57 24 -34 15 23 12 60 -4 60 -8 0 -17 -12 -20
-26z"></path>
<path class="node" id="node37" d="M2414 916 c-9 -23 0 -51 16 -51 10 0 15 10 15 29 0 32 -21 47 -31 22z"></path>
<path class="node" id="node38" d="M1482 847 c-24 -42 -76 -67 -139 -67 -27 0 -53 -3 -56 -6 -12 -12 37
-86 63 -97 20 -8 22 -11 8 -14 -9 -2 -26 1 -37 7 -12 6 -21 8 -21 5 0 -12 23
-50 44 -73 l21 -24 -28 7 c-27 7 -28 6 -21 -21 10 -43 36 -84 67 -108 24 -18
43 -21 122 -21 79 0 98 3 121 21 27 20 55 66 69 113 7 22 5 23 -21 17 l-29 -8
21 24 c27 29 47 68 40 76 -4 3 -12 0 -18 -6 -7 -7 -21 -12 -32 -12 -18 0 -16
4 12 26 34 27 66 77 55 88 -4 3 -29 6 -56 6 -63 0 -115 25 -139 67 -11 18 -21
33 -23 33 -2 0 -12 -15 -23 -33z m102 -144 c19 -11 19 -13 3 -69 -9 -33 -18
-72 -20 -89 -3 -25 -4 -24 -6 8 0 21 4 58 10 82 11 43 11 43 -30 84 -23 23
-41 45 -41 50 0 5 15 -6 33 -23 17 -18 41 -37 51 -43z m-122 7 l-34 -28 12
-54 c7 -29 10 -66 7 -83 -4 -28 -4 -28 -6 6 0 20 -8 56 -16 79 -21 59 -20 63
23 92 48 32 57 24 14 -12z m68 -45 c13 -14 19 -25 13 -25 -6 0 -18 11 -27 25
-9 14 -15 25 -13 25 2 0 14 -11 27 -25z m-48 -17 c-7 -7 -12 -8 -12 -2 0 14
12 26 19 19 2 -3 -1 -11 -7 -17z m56 -67 c-10 -3 -37 28 -38 44 0 5 11 -2 24
-15 12 -14 19 -27 14 -29z m-53 10 c-3 -6 -11 -11 -17 -11 -6 0 -6 6 2 15 14
17 26 13 15 -4z m50 -59 c-6 -7 -34 29 -34 43 0 6 9 -1 20 -14 11 -13 17 -26
14 -29z m-45 13 c0 -8 -4 -15 -10 -15 -5 0 -7 7 -4 15 4 8 8 15 10 15 2 0 4
-7 4 -15z"></path>
<path class="node" id="node39" d="M2611 826 c-41 -44 -145 -78 -244 -82 -94 -3 -116 -9 -72 -20 43 -11
168 4 227 26 50 19 118 71 118 91 0 14 -4 11 -29 -15z"></path>
<path class="node" id="node40" d="M1206 769 c-19 -19 -24 -29 -15 -29 24 0 52 25 48 43 -3 12 -10 10
-33 -14z"></path>
<path class="node" id="node41" d="M1437 1395 c-28 -14 -47 -52 -47 -96 0 -23 -6 -39 -15 -43 -17 -6
-21 -56 -5 -56 6 0 10 5 10 11 0 8 5 8 15 -1 9 -7 27 -10 44 -7 16 3 42 9 57
12 l29 6 -27 -16 c-16 -9 -28 -17 -28 -18 0 -2 15 -3 34 -3 19 0 33 3 30 8 -3
4 23 5 56 3 57 -5 60 -4 61 18 3 72 -15 129 -52 163 -25 22 -131 35 -162 19z
m33 -53 c0 -13 -12 -22 -22 -16 -10 6 -1 24 13 24 5 0 9 -4 9 -8z m101 -7 c-1
-15 -24 -12 -29 3 -3 9 2 13 12 10 10 -1 17 -7 17 -13z m-43 -18 c9 -10 4 -13
-20 -15 -27 -2 -29 0 -18 13 15 18 24 19 38 2z"></path>
<path class="node" id="node42" d="M1400 1108 c0 -24 16 -56 23 -48 3 3 2 20 0 38 -6 36 -23 44 -23 10z"></path>


</g>
</svg>