<!--?xml version="1.0" standalone="no"?-->

<svg version="1.0" xmlns="http://www.w3.org/2000/svg" width="300.000000pt" height="300.000000pt" viewBox="0 0 300.000000 300.000000" preserveAspectRatio="xMidYMid meet">
<g transform="translate(0.000000,300.000000) scale(0.100000,-0.100000)" fill="#576B4D" stroke="none">
<path class="node" id="node1" d="M1415 2950 c-156 -23 -240 -122 -252 -297 -5 -72 -8 -83 -24 -83 -16
0 -19 -8 -19 -54 0 -64 34 -183 61 -212 18 -19 19 -34 17 -159 -2 -110 -6
-139 -18 -146 -8 -4 -55 -26 -105 -49 -49 -22 -107 -53 -128 -67 -25 -17 -60
-29 -100 -35 -122 -17 -247 -98 -299 -194 -14 -27 -32 -76 -38 -110 -10 -52
-19 -67 -60 -108 -65 -64 -102 -141 -108 -227 -10 -143 48 -253 175 -335 33
-21 53 -41 53 -52 0 -11 9 -45 20 -77 11 -32 20 -77 20 -101 0 -58 26 -177 51
-233 21 -49 94 -131 116 -131 8 0 31 -18 53 -40 22 -22 46 -40 53 -40 8 0 37
15 63 33 103 71 67 67 556 67 l443 0 51 -33 c29 -17 63 -40 78 -51 32 -23 72
-15 87 18 6 13 28 32 49 41 101 46 158 160 175 355 3 36 16 100 28 143 20 72
25 80 60 98 103 53 177 171 182 287 4 123 -31 208 -117 289 -39 36 -46 49 -52
94 -8 63 -44 136 -92 189 -47 52 -157 107 -231 115 -41 5 -77 18 -123 45 -64
38 -86 49 -185 88 -60 25 -63 31 -71 205 -6 109 -5 130 9 145 31 34 47 91 48
167 1 78 -5 99 -26 92 -9 -4 -14 15 -19 66 -16 170 -68 252 -178 280 -83 21
-142 26 -203 17z m18 -244 c36 -18 38 -18 75 0 22 11 69 19 118 22 l81 4 12
-32 c6 -18 11 -48 11 -65 0 -18 7 -49 16 -70 11 -27 13 -52 8 -94 -8 -65 -31
-103 -74 -121 l-31 -13 7 -61 c4 -33 8 -63 10 -65 9 -10 17 11 22 56 4 34 13
55 33 75 15 16 29 28 32 28 9 0 -12 -110 -28 -141 -29 -54 -125 -145 -164
-152 -49 -10 -126 -8 -156 3 -23 9 -27 15 -23 40 5 36 -14 36 -22 0 l-5 -23
-34 29 c-40 33 -81 115 -81 161 0 25 4 31 15 27 8 -4 15 -18 15 -33 0 -39 19
-101 32 -101 6 0 8 9 4 23 -3 12 -6 45 -6 73 0 48 -2 52 -30 64 -17 7 -37 25
-44 39 -17 34 -30 179 -17 194 5 7 14 38 20 71 6 32 16 65 23 73 17 20 130 13
181 -11z m394 -162 c4 -10 0 -22 -8 -28 -9 -6 -19 -20 -23 -31 -14 -33 -19 1
-6 40 12 38 27 45 37 19z m-667 -23 c5 -11 10 -28 10 -38 0 -13 -6 -8 -20 15
-23 37 -24 42 -10 42 5 0 14 -9 20 -19z m597 -530 c3 -69 7 -128 9 -130 2 -2
11 14 21 35 9 22 18 40 19 42 1 2 23 -2 50 -9 52 -13 124 -46 184 -84 19 -13
64 -31 100 -40 132 -33 218 -93 266 -187 13 -26 24 -59 24 -74 0 -24 -3 -26
-32 -21 -18 3 -97 47 -175 99 -135 89 -143 95 -160 142 -15 41 -26 54 -63 73
-25 13 -49 28 -54 33 -13 13 -73 13 -81 0 -3 -5 -13 -10 -22 -10 -25 0 -101
-39 -116 -59 -6 -10 -22 -23 -33 -29 -37 -20 -49 -65 -34 -128 12 -49 12 -59
-3 -84 -35 -59 -19 -141 44 -221 16 -20 29 -45 29 -55 0 -11 12 -39 26 -64 43
-74 45 -93 32 -269 -10 -141 -10 -181 4 -291 10 -81 23 -141 37 -167 11 -22
17 -43 14 -47 -6 -6 -693 -9 -693 -3 0 2 9 30 21 63 36 104 41 145 38 329 -5
348 -7 314 29 382 17 33 32 69 32 79 0 10 11 29 24 43 61 66 82 155 51 215
-17 33 -19 67 -5 115 6 23 6 40 -2 55 -20 37 -84 92 -134 116 -27 12 -57 26
-66 31 -31 16 -68 10 -116 -18 -70 -39 -92 -63 -98 -105 -4 -21 -10 -38 -15
-38 -5 0 -69 -40 -142 -90 -74 -49 -148 -93 -165 -96 -31 -6 -32 -5 -32 25 0
38 29 98 70 145 39 44 131 92 213 111 34 8 98 35 142 60 44 25 96 50 115 55
85 22 90 23 90 8 0 -8 11 -25 25 -38 l25 -23 0 121 c0 123 9 150 30 88 6 -18
27 -50 47 -70 30 -30 49 -39 115 -53 l78 -16 0 -76 c0 -67 2 -73 14 -56 7 11
24 53 37 93 18 57 31 79 58 99 l34 26 -5 -72 c-5 -60 -3 -70 7 -59 20 20 45
116 45 170 0 27 5 59 11 70 11 20 12 20 21 3 6 -9 13 -74 15 -144z m-643 -140
c3 -5 -12 -21 -34 -36 -22 -15 -38 -30 -36 -33 3 -2 26 10 52 27 44 31 84 38
86 16 0 -5 -23 -25 -53 -42 -35 -21 -47 -33 -34 -33 11 0 40 14 65 31 46 31
83 35 88 9 1 -9 -17 -26 -48 -43 -27 -16 -50 -33 -50 -38 0 -9 17 -2 97 39 30
15 33 15 52 -3 14 -12 21 -30 21 -57 0 -38 -15 -49 -36 -28 -8 8 -20 5 -42 -7
-30 -17 -30 -19 -30 -88 1 -79 -8 -104 -52 -135 -33 -23 -50 -20 -50 11 0 10
-4 19 -10 19 -5 0 -10 -15 -10 -34 0 -54 -41 -84 -61 -45 -11 19 -67 293 -72
351 -2 25 -2 50 2 56 10 15 114 72 133 72 9 0 19 -4 22 -9z m866 -24 l55 -34
-1 -69 c-1 -38 -9 -103 -19 -144 -24 -104 -53 -212 -59 -218 -3 -2 -17 3 -32
13 -21 13 -25 23 -22 46 3 17 1 32 -4 35 -4 3 -8 -1 -8 -8 -1 -34 -16 -40 -53
-18 -44 26 -62 79 -54 152 6 45 5 47 -31 68 -23 14 -38 18 -40 11 -2 -6 -10
-11 -18 -11 -17 0 -19 61 -4 91 14 25 28 24 88 -7 69 -35 90 -25 24 12 -29 16
-52 35 -52 42 0 27 31 22 94 -13 36 -20 66 -33 66 -27 0 5 -22 21 -50 36 -52
28 -61 42 -34 53 17 6 39 -3 97 -42 20 -14 37 -21 37 -17 0 5 -18 22 -40 37
-39 27 -44 45 -12 45 9 0 42 -15 72 -33z m-678 -243 c26 -59 22 -156 -7 -195
-27 -36 -190 -159 -210 -159 -3 0 -5 14 -5 31 0 33 29 64 110 120 66 45 84 73
82 130 0 27 -6 58 -12 69 -13 24 -7 50 10 50 6 0 20 -21 32 -46z m441 33 c3
-8 1 -20 -3 -27 -15 -24 -22 -105 -11 -133 6 -15 45 -52 93 -88 80 -59 95 -78
97 -127 l1 -22 -40 25 c-131 83 -193 147 -206 214 -14 69 48 211 69 158z
m-786 -130 c20 -81 19 -100 -4 -68 -7 11 -36 34 -63 52 -28 18 -50 35 -50 39
0 19 81 74 91 62 4 -4 16 -42 26 -85z m1161 62 c23 -17 42 -34 42 -38 0 -4
-14 -15 -31 -25 -17 -10 -47 -32 -66 -50 l-36 -31 7 40 c17 93 28 135 35 135
4 0 26 -14 49 -31z m-1418 -99 c0 -5 -10 -10 -23 -10 -45 0 -113 -54 -142
-114 -24 -50 -27 -65 -22 -122 6 -77 38 -134 95 -167 33 -19 34 -22 15 -25
-57 -8 -164 86 -184 162 -31 113 39 243 147 276 41 12 114 12 114 0z m1711 -1
c55 -17 104 -62 134 -124 23 -47 26 -61 20 -107 -13 -96 -71 -172 -149 -198
-53 -17 -65 -7 -23 19 21 12 50 44 65 69 22 39 27 59 27 118 0 60 -4 76 -28
112 -33 50 -101 102 -134 102 -12 0 -23 5 -23 10 0 13 64 13 111 -1z m-463
-295 c2 -1 8 -22 13 -46 23 -100 98 -199 185 -239 42 -20 86 -72 99 -119 4
-14 12 -31 18 -38 6 -8 13 -50 15 -95 5 -102 -14 -163 -87 -271 -56 -82 -68
-92 -105 -82 -27 7 -150 130 -173 173 -29 55 -50 129 -52 187 -1 33 -4 63 -7
67 -2 4 -1 22 3 40 l6 32 24 -53 c13 -29 26 -51 29 -47 3 3 -1 32 -10 66 -8
33 -18 91 -21 128 l-6 68 25 -73 c13 -40 36 -97 50 -127 28 -59 50 -82 36 -38
-49 161 -65 219 -100 352 -22 84 -40 158 -40 163 0 7 76 -29 98 -48z m-815
-11 c-30 -126 -90 -343 -119 -432 -8 -24 -13 -46 -11 -48 7 -7 75 139 96 207
l21 65 -6 -65 c-3 -36 -12 -90 -20 -121 -8 -31 -14 -65 -14 -75 0 -17 1 -17
14 2 8 11 18 33 21 47 4 15 12 30 17 33 10 7 5 -192 -6 -203 -3 -3 -6 -13 -6
-22 0 -9 -13 -43 -29 -76 -33 -69 -156 -195 -191 -195 -29 0 -60 18 -60 34 0
7 -9 21 -19 30 -11 10 -38 54 -61 99 -38 76 -41 88 -41 163 0 127 53 244 127
279 89 42 175 153 190 244 5 34 13 45 48 65 61 37 65 35 49 -31z"></path>
<path class="node" id="node2" d="M1299 2561 c-36 -29 -13 -45 67 -46 l65 -1 -3 30 c-3 30 -5 31 -54
34 -39 2 -56 -2 -75 -17z"></path>
<path class="node" id="node3" d="M1511 2533 c0 -43 2 -45 11 -25 8 15 17 21 27 16 35 -15 63 -16 91
-4 61 25 18 60 -75 60 l-55 0 1 -47z"></path>
<path class="node" id="node4" d="M1560 2385 c0 -8 5 -15 10 -15 6 0 10 7 10 15 0 8 -4 15 -10 15 -5 0
-10 -7 -10 -15z"></path>
<path class="node" id="node5" d="M1413 2362 c-19 -14 -12 -23 32 -41 25 -10 38 -9 68 4 20 8 37 20 37
25 0 29 -101 38 -137 12z"></path>
<path class="node" id="node6" d="M1423 2273 c-30 -11 -9 -23 41 -23 65 0 94 8 74 21 -14 9 -95 11
-115 2z"></path>
<path class="node" id="node7" d="M1507 2219 c-15 -4 -42 -6 -59 -4 l-31 4 23 -24 c29 -31 51 -32 86
-2 31 27 23 38 -19 26z"></path>
<path class="node" id="node8" d="M1601 1795 c-35 -19 -72 -42 -82 -51 -17 -15 -20 -15 -46 4 -43 30
-113 64 -125 60 -6 -2 15 -23 47 -47 31 -24 66 -58 77 -77 11 -19 23 -34 27
-34 4 0 15 16 24 35 10 21 42 53 82 82 36 26 65 50 65 55 0 11 3 12 -69 -27z"></path>
<path class="node" id="node9" d="M1480 1352 c-7 -32 -24 -81 -38 -107 -29 -53 -97 -111 -140 -121 -15
-3 -34 -8 -42 -10 -31 -10 15 -24 80 -24 54 0 72 5 103 25 20 14 37 32 37 40
0 8 5 15 11 15 6 0 8 -7 5 -16 -3 -9 -6 -60 -6 -114 0 -91 -2 -101 -25 -129
-14 -16 -42 -35 -63 -41 -67 -21 -69 -22 -37 -31 40 -12 84 -2 118 27 l27 23
24 -24 c29 -29 86 -41 129 -27 26 8 28 10 10 11 -43 2 -104 33 -118 61 -13 25
-45 183 -45 223 0 15 2 15 20 -3 12 -12 32 -25 46 -30 28 -11 124 -13 148 -4
24 9 19 24 -7 24 -26 0 -92 33 -125 64 -35 31 -70 106 -78 165 -4 28 -10 54
-15 56 -4 3 -13 -21 -19 -53z"></path>
<path class="node" id="node10" d="M1261 986 c-33 -74 -33 -74 -21 -145 6 -39 16 -71 21 -71 12 0 11 8
-3 70 -9 41 -9 56 1 72 14 22 51 124 51 140 0 25 -19 -1 -49 -66z"></path>
<path class="node" id="node11" d="M1511 777 c-1 -144 -34 -198 -131 -213 -34 -6 -39 -9 -25 -17 30 -16
113 -2 140 23 l25 23 23 -20 c48 -44 105 -56 142 -29 16 12 14 14 -30 18 -76
9 -90 30 -119 183 l-24 130 -1 -98z"></path>
<path class="node" id="node12" d="M1986 522 c-10 -17 12 -101 34 -124 27 -30 35 -17 14 24 -10 18 -23
51 -29 72 -6 22 -15 34 -19 28z"></path>
<path class="node" id="node13" d="M998 513 c-4 -17 -19 -55 -33 -84 -27 -58 -26 -72 5 -44 25 23 43 79
38 125 l-3 35 -7 -32z"></path>








</g>
<g transform="translate(0.000000,300.000000) scale(0.100000,-0.100000)" fill="#C4C6A5" stroke="none">

<path class="node" id="node23" d="M1252 2717 c-7 -8 -17 -41 -23 -73 -6 -33 -15 -64 -20 -71 -13 -15 0
-160 17 -194 7 -14 27 -32 44 -39 28 -12 30 -16 30 -64 0 -28 3 -61 6 -73 4
-14 2 -23 -4 -23 -13 0 -32 62 -32 101 0 15 -7 29 -15 33 -11 4 -15 -2 -15
-27 0 -46 41 -128 81 -161 l34 -29 5 23 c8 36 27 36 22 0 -4 -25 0 -31 23 -40
30 -11 107 -13 156 -3 39 7 135 98 164 152 16 31 37 141 28 141 -3 0 -17 -12
-32 -28 -20 -20 -29 -41 -33 -75 -5 -45 -13 -66 -22 -56 -2 2 -6 32 -10 65
l-7 61 31 13 c43 18 66 56 74 121 5 42 3 67 -8 94 -9 21 -16 52 -16 70 0 17
-5 47 -11 65 l-12 32 -81 -4 c-49 -3 -96 -11 -118 -22 -37 -18 -39 -18 -75 0
-51 24 -164 31 -181 11z m176 -173 l3 -30 -65 1 c-80 1 -103 17 -67 46 19 15
36 19 75 17 49 -3 51 -4 54 -34z m217 24 c69 -31 -23 -75 -96 -44 -10 5 -19
-1 -27 -16 -9 -20 -11 -18 -11 25 l-1 47 55 0 c30 0 66 -5 80 -12z m-65 -183
c0 -8 -4 -15 -10 -15 -5 0 -10 7 -10 15 0 8 5 15 10 15 6 0 10 -7 10 -15z
m-49 -16 c28 -15 23 -27 -18 -44 -30 -13 -43 -14 -68 -4 -44 18 -51 27 -32 41
22 17 93 21 118 7z m7 -98 c20 -13 -9 -21 -74 -21 -50 0 -71 12 -41 23 20 9
101 7 115 -2z m-12 -78 c-35 -30 -57 -29 -86 2 l-23 24 31 -4 c17 -2 44 0 59
4 42 12 50 1 19 -26z"></path>
<path class="node" id="node24" d="M1790 2525 c-13 -39 -8 -73 6 -40 4 11 14 25 23 31 15 11 9 44 -8 44
-5 0 -15 -16 -21 -35z"></path>
<path class="node" id="node25" d="M1130 2535 c0 -2 9 -19 20 -37 14 -23 20 -28 20 -15 0 23 -18 57 -30
57 -6 0 -10 -2 -10 -5z"></path>
<path class="node" id="node26" d="M1721 2132 c-6 -11 -11 -43 -11 -70 0 -54 -25 -150 -45 -170 -10 -11
-12 -1 -7 59 l5 72 -34 -26 c-27 -20 -40 -42 -58 -99 -13 -40 -30 -82 -37 -93
-12 -17 -14 -11 -14 56 l0 76 -78 16 c-66 14 -85 23 -115 53 -20 20 -41 52
-47 70 -21 62 -30 35 -30 -88 l0 -121 -25 23 c-14 13 -25 30 -25 38 0 15 -5
14 -90 -8 -19 -5 -71 -30 -115 -55 -44 -25 -108 -52 -142 -60 -82 -19 -174
-67 -213 -111 -41 -47 -70 -107 -70 -145 0 -30 1 -31 32 -25 17 3 91 47 165
96 73 50 137 90 142 90 5 0 11 17 15 38 6 42 28 66 98 105 48 28 85 34 116 18
9 -5 39 -19 66 -31 50 -24 114 -79 134 -116 8 -15 8 -32 2 -55 -14 -48 -12
-82 5 -115 31 -60 10 -149 -51 -215 -13 -14 -24 -33 -24 -43 0 -10 -15 -46
-32 -79 -36 -68 -34 -34 -29 -382 3 -184 -2 -225 -38 -329 -12 -33 -21 -61
-21 -63 0 -6 687 -3 693 3 3 4 -3 25 -14 47 -14 26 -27 86 -37 167 -14 110
-14 150 -4 291 13 176 11 195 -32 269 -14 25 -26 53 -26 64 0 10 -13 35 -29
55 -63 80 -79 162 -44 221 15 25 15 35 3 84 -15 63 -3 108 34 128 11 6 27 19
33 29 15 20 91 59 116 59 9 0 19 5 22 10 8 13 68 13 81 0 5 -5 29 -20 54 -33
37 -19 48 -32 63 -73 17 -47 25 -53 160 -142 78 -52 157 -96 175 -99 29 -5 32
-3 32 21 0 15 -11 48 -24 74 -48 94 -134 154 -266 187 -36 9 -81 27 -100 40
-60 38 -132 71 -184 84 -27 7 -49 11 -50 9 -1 -2 -10 -20 -19 -42 -10 -21 -19
-37 -21 -35 -2 2 -6 61 -9 130 -2 70 -9 135 -15 144 -9 17 -10 17 -21 -3z
m-51 -310 c0 -5 -29 -29 -65 -55 -40 -29 -72 -61 -82 -82 -9 -19 -20 -35 -24
-35 -4 0 -16 15 -27 34 -11 19 -46 53 -77 77 -32 24 -53 45 -47 47 12 4 82
-30 125 -60 26 -19 29 -19 46 -4 15 14 139 85 149 86 1 0 2 -4 2 -8z m-156
-473 c8 -59 43 -134 78 -165 33 -31 99 -64 125 -64 26 0 31 -15 7 -24 -24 -9
-120 -7 -148 4 -14 5 -34 18 -46 30 -18 18 -20 18 -20 3 0 -40 32 -198 45
-223 14 -28 75 -59 118 -61 18 -1 16 -3 -10 -11 -43 -14 -100 -2 -129 27 l-24
24 -27 -23 c-34 -29 -78 -39 -118 -27 -32 9 -30 10 37 31 21 6 49 25 63 41 23
28 25 38 25 129 0 54 3 105 6 114 3 9 1 16 -5 16 -6 0 -11 -7 -11 -15 0 -8
-17 -26 -37 -40 -31 -20 -49 -25 -103 -25 -65 0 -111 14 -80 24 8 2 27 7 42
10 43 10 111 68 140 121 14 26 31 75 38 107 6 32 15 56 19 53 5 -2 11 -28 15
-56z m-204 -297 c0 -16 -37 -118 -51 -140 -10 -16 -10 -31 -1 -72 14 -62 15
-70 3 -70 -5 0 -15 32 -21 71 -12 71 -12 71 21 145 30 65 49 91 49 66z m274
-461 c16 -15 40 -25 71 -29 44 -4 46 -6 30 -18 -37 -27 -94 -15 -142 29 l-23
20 -25 -23 c-27 -25 -110 -39 -140 -23 -14 8 -9 11 25 17 97 15 130 69 131
213 l1 98 24 -130 c20 -103 30 -135 48 -154z"></path>
<path class="node" id="node27" d="M1020 1828 c-30 -17 -58 -35 -61 -40 -4 -6 -4 -31 -2 -56 5 -58 61
-332 72 -351 20 -39 61 -9 61 45 0 19 5 34 10 34 6 0 10 -9 10 -19 0 -31 17
-34 50 -11 44 31 53 56 52 135 0 69 0 71 30 88 22 12 34 15 42 7 21 -21 36
-10 36 28 0 27 -7 45 -21 57 -19 18 -22 18 -52 3 -80 -41 -97 -48 -97 -39 0 5
23 22 50 38 31 17 49 34 48 43 -5 26 -42 22 -88 -9 -25 -17 -54 -31 -65 -31
-13 0 -1 12 34 33 30 17 53 37 53 42 -2 22 -42 15 -86 -16 -26 -17 -49 -29
-52 -27 -2 3 14 18 36 33 39 27 44 45 12 45 -9 0 -42 -14 -72 -32z"></path>
<path class="node" id="node28" d="M1886 1851 c-3 -5 12 -21 34 -36 22 -15 40 -32 40 -37 0 -4 -17 3
-37 17 -58 39 -80 48 -97 42 -27 -11 -18 -25 34 -53 28 -15 50 -31 50 -36 0
-6 -30 7 -66 27 -63 35 -94 40 -94 13 0 -7 23 -26 52 -42 66 -37 45 -47 -24
-12 -60 31 -74 32 -88 7 -15 -30 -13 -91 4 -91 8 0 16 5 18 11 2 7 17 3 40
-11 36 -21 37 -23 31 -68 -8 -73 10 -126 54 -152 37 -22 52 -16 53 18 0 7 4
11 8 8 5 -3 7 -18 4 -35 -3 -23 1 -33 22 -46 15 -10 29 -15 32 -13 6 6 35 114
59 218 10 41 18 106 19 144 l1 69 -55 34 c-55 33 -84 41 -94 24z"></path>
<path class="node" id="node29" d="M1254 1616 c-3 -8 0 -24 6 -36 6 -11 12 -42 12 -69 2 -57 -16 -85
-82 -130 -81 -56 -110 -87 -110 -120 0 -17 2 -31 5 -31 20 0 183 123 210 159
29 39 33 136 7 195 -21 46 -38 58 -48 32z"></path>
<path class="node" id="node30" d="M1707 1606 c-23 -35 -40 -111 -33 -147 13 -67 75 -131 206 -214 l40
-25 -1 22 c-2 49 -17 68 -97 127 -48 36 -87 73 -93 88 -11 28 -4 109 11 133 9
14 3 40 -10 40 -4 0 -15 -11 -23 -24z"></path>
<path class="node" id="node31" d="M905 1568 c-25 -13 -65 -49 -65 -58 0 -4 22 -21 50 -39 27 -18 56
-41 63 -52 8 -10 16 -17 19 -14 5 6 -31 157 -41 167 -3 4 -15 2 -26 -4z"></path>
<path class="node" id="node32" d="M2052 1533 c-6 -27 -14 -66 -18 -88 l-7 -40 36 31 c19 18 49 40 66
50 17 10 31 21 31 25 0 8 -80 69 -91 69 -4 0 -12 -21 -17 -47z"></path>
<path class="node" id="node33" d="M586 1450 c-108 -33 -178 -163 -147 -276 20 -76 127 -170 184 -162
19 3 18 6 -15 25 -57 33 -89 90 -95 167 -5 57 -2 72 22 122 29 60 97 114 142
114 13 0 23 5 23 10 0 12 -73 12 -114 0z"></path>
<path class="node" id="node34" d="M2300 1450 c0 -5 11 -10 23 -10 33 0 101 -52 134 -102 24 -36 28 -52
28 -112 0 -59 -5 -79 -27 -118 -15 -25 -44 -57 -65 -69 -42 -26 -30 -36 23
-19 78 26 136 102 149 198 6 46 3 60 -20 107 -30 62 -79 107 -134 124 -47 14
-111 14 -111 1z"></path>
<path class="node" id="node35" d="M1850 1202 c0 -5 18 -79 40 -163 35 -133 51 -191 100 -352 14 -44 -8
-21 -36 38 -14 30 -37 87 -50 127 l-25 73 6 -68 c3 -37 13 -95 21 -128 9 -34
13 -63 10 -66 -3 -4 -16 18 -29 47 l-24 53 -6 -32 c-4 -18 -5 -36 -3 -40 3 -4
6 -34 7 -67 2 -58 23 -132 52 -187 23 -43 146 -166 173 -173 37 -10 49 0 105
82 73 108 92 169 87 271 -2 45 -9 87 -15 95 -6 7 -14 24 -18 38 -13 47 -57 99
-99 119 -87 40 -162 139 -185 239 -5 24 -11 45 -13 46 -22 19 -98 55 -98 48z
m184 -780 c10 -19 15 -36 12 -40 -12 -12 -46 38 -56 83 -13 58 -1 82 15 29 6
-21 19 -54 29 -72z"></path>
<path class="node" id="node36" d="M1084 1174 c-35 -20 -43 -31 -48 -65 -15 -91 -101 -202 -190 -244
-74 -35 -127 -152 -127 -279 0 -75 3 -87 41 -163 23 -45 50 -89 61 -99 10 -9
19 -23 19 -30 0 -16 31 -34 60 -34 35 0 158 126 191 195 16 33 29 67 29 76 0
9 3 19 6 22 11 11 16 210 6 203 -5 -3 -13 -18 -17 -33 -3 -14 -13 -36 -21 -47
-13 -19 -14 -19 -14 -2 0 10 6 44 14 75 8 31 17 85 20 121 l6 65 -21 -65 c-21
-68 -89 -214 -96 -207 -2 2 3 24 11 48 29 89 89 306 119 432 16 66 12 68 -49
31z m-83 -735 c-10 -34 -46 -77 -56 -67 -3 2 7 28 20 57 14 29 29 67 33 84 l7
32 3 -35 c2 -19 -1 -51 -7 -71z"></path>
<path class="node" id="node37" d="M1025 2080 c4 -6 11 -8 16 -5 14 9 11 15 -7 15 -8 0 -12 -5 -9 -10z"></path>
</g>
</svg>