<!--?xml version="1.0" standalone="no"?--><svg version="1.0" xmlns="http://www.w3.org/2000/svg" width="300.000000pt" height="300.000000pt" viewBox="0 0 300.000000 300.000000" preserveAspectRatio="xMidYMid meet">
<metadata>
  <rdf:rdf xmlns:rdf="http://www.w3.org/1999/02/22-rdf-syntax-ns#" xmlns:rdfs="http://www.w3.org/2000/01/rdf-schema#" xmlns:dc="http://purl.org/dc/elements/1.1/">
    <rdf:description dc:title="abraham lincoln beard" dc:publisher="Hiox" dc:date="2015-03-14" dc:format="image/svg+xml" dc:language="en">
      <dc:creator>
        <rdf:bag>
          <rdf:li>svgimages.com</rdf:li>
        </rdf:bag>
      </dc:creator>
    </rdf:description>
  </rdf:rdf>
</metadata>
<g transform="translate(0.000000,300.000000) scale(0.100000,-0.100000)" fill="#060606" stroke="none">
<path d="M1242 2424 c-51 -7 -112 -22 -137 -33 -53 -23 -53 -27 -30 -185 8
-55 22 -144 29 -196 33 -217 48 -349 43 -363 -3 -9 -27 -17 -65 -21 -111 -12
-225 -66 -230 -106 -5 -50 88 -89 303 -126 142 -25 548 -25 690 0 215 37 308
76 303 126 -5 40 -119 94 -230 106 -38 4 -62 12 -65 21 -5 14 10 146 43 363
57 387 57 355 0 381 -103 45 -450 63 -654 33z" id="node1" class="node"></path>
<path d="M1095 1308 c22 -72 18 -125 -19 -229 -20 -57 -36 -119 -36 -138 0
-47 30 -105 92 -178 64 -75 121 -120 208 -165 60 -30 72 -33 160 -33 88 0 100
3 160 33 87 45 144 90 208 165 63 74 92 131 92 180 0 20 -15 78 -34 129 -46
125 -49 146 -31 197 19 56 19 61 -5 61 -19 0 -20 -7 -20 -169 0 -194 -4 -222
-35 -253 -13 -13 -83 -53 -156 -91 -176 -89 -181 -89 -357 0 -73 36 -143 77
-156 90 -32 32 -36 59 -36 254 0 165 0 169 -21 169 -18 0 -20 -4 -14 -22z" id="node2" class="node"></path>
</g>
<g transform="translate(0.000000,300.000000) scale(0.100000,-0.100000)" fill="#A5A5A5" stroke="none">

</g>
</svg>