<!--?xml version="1.0" standalone="no"?--><svg version="1.0" xmlns="http://www.w3.org/2000/svg" width="300.000000pt" height="300.000000pt" viewBox="0 0 300.000000 300.000000" preserveAspectRatio="xMidYMid meet">
<metadata>
  <rdf:rdf xmlns:rdf="http://www.w3.org/1999/02/22-rdf-syntax-ns#" xmlns:rdfs="http://www.w3.org/2000/01/rdf-schema#" xmlns:dc="http://purl.org/dc/elements/1.1/">
    <rdf:description dc:title="angelina jolie vector" dc:publisher="Hiox" dc:date="2015-03-14" dc:format="image/svg+xml" dc:language="en">
      <dc:creator>
        <rdf:bag>
          <rdf:li>svgimages.com</rdf:li>
        </rdf:bag>
      </dc:creator>
    </rdf:description>
  </rdf:rdf>
</metadata>
<g transform="translate(0.000000,300.000000) scale(0.100000,-0.100000)" fill="#0F0F0F" stroke="none">
<path d="M1485 2965 c-174 -25 -333 -64 -440 -107 -126 -51 -335 -270 -335
-350 0 -32 -39 -80 -110 -134 -28 -21 -52 -46 -55 -55 -3 -9 8 -51 25 -93 16
-42 30 -87 30 -100 0 -12 -12 -56 -26 -97 -22 -63 -25 -86 -21 -154 3 -68 10
-93 47 -170 23 -49 58 -112 77 -139 48 -67 57 -91 93 -251 17 -77 37 -151 44
-165 7 -14 34 -65 61 -115 l47 -90 -5 -110 c-6 -130 -36 -236 -94 -334 -53
-89 -206 -232 -322 -301 -51 -30 -94 -57 -97 -61 -2 -4 24 -10 58 -13 35 -3
133 -13 218 -22 225 -23 531 -52 715 -69 88 -8 181 -17 207 -20 54 -6 48 -17
93 165 14 58 31 113 36 123 12 22 15 19 -40 47 -71 36 -152 94 -366 264 -160
127 -204 169 -229 219 -13 27 -16 29 -16 10 0 -25 55 -91 170 -203 42 -41 138
-135 213 -208 145 -142 152 -154 123 -211 -8 -15 -34 -45 -58 -66 -35 -30 -38
-36 -18 -30 56 17 140 87 140 116 0 5 8 27 17 49 19 44 50 52 45 12 -4 -27
-71 -265 -77 -270 -2 -2 -95 6 -207 18 -422 46 -558 60 -723 75 -93 9 -178 20
-189 24 -15 6 -8 13 40 45 81 54 214 186 268 265 73 110 115 242 116 366 0 22
7 58 15 81 7 23 17 76 21 119 l7 77 -39 33 -38 32 12 52 12 52 -67 99 c-70
107 -81 141 -82 255 -1 64 22 129 54 155 43 36 145 -2 198 -72 13 -18 41 -64
62 -103 41 -76 72 -115 90 -115 18 0 87 64 123 114 l33 46 -46 0 c-62 0 -173
41 -262 96 -40 25 -121 91 -179 147 -114 109 -120 114 -174 134 -34 12 -34 12
-7 13 42 0 81 -24 166 -103 103 -96 155 -139 220 -176 73 -43 189 -81 248 -81
46 0 52 3 96 50 l47 50 -34 0 c-100 0 -248 49 -354 116 -89 58 -377 302 -367
312 3 3 18 -6 33 -20 45 -42 301 -238 356 -272 58 -37 140 -71 206 -86 79 -17
280 -10 280 10 0 5 -33 18 -72 29 -143 42 -223 87 -388 220 -219 178 -350 337
-322 394 10 20 11 20 11 -11 1 -44 42 -102 133 -190 149 -144 341 -288 445
-333 45 -20 169 -59 185 -59 5 0 8 26 8 58 l0 57 -76 49 c-171 110 -586 436
-555 436 8 0 52 -32 261 -191 206 -157 366 -266 376 -256 3 2 5 26 7 53 l2 49
-100 95 c-55 52 -148 140 -205 195 -58 55 -127 116 -152 135 -26 19 -48 39
-48 43 -1 25 122 -76 332 -271 94 -86 174 -159 179 -161 6 -1 19 5 29 14 16
14 30 16 77 10 47 -6 55 -5 47 7 -189 246 -425 497 -537 568 -74 48 -83 63
-15 29 104 -52 314 -254 493 -474 58 -71 110 -132 116 -133 5 -2 26 4 46 13
25 12 53 16 94 13 32 -2 56 -2 55 1 -120 209 -228 355 -335 453 -77 72 -144
116 -251 167 -100 47 -90 54 17 11 108 -43 204 -110 303 -208 92 -93 141 -158
240 -317 34 -55 64 -102 66 -104 2 -2 24 16 49 41 l45 46 -30 86 c-63 187
-164 329 -303 427 -87 61 -70 65 21 5 144 -96 238 -225 311 -432 25 -69 31
-77 62 -88 20 -7 46 -20 60 -29 13 -9 26 -17 30 -17 8 0 -42 191 -70 266 -31
81 -84 160 -164 243 -83 85 -57 79 31 -7 111 -109 161 -207 218 -429 23 -93
32 -113 47 -113 34 0 57 19 53 43 -3 12 -8 51 -10 87 -6 75 -23 172 -37 207
-6 16 -5 22 1 18 6 -3 10 -12 10 -18 0 -7 7 -25 15 -41 8 -16 22 -84 29 -152
12 -99 20 -130 40 -161 14 -21 40 -74 58 -118 32 -79 32 -82 36 -273 5 -260 7
-253 -76 -297 -136 -71 -232 -170 -191 -196 23 -15 110 -39 141 -39 15 0 28
-4 28 -10 0 -18 -43 -32 -84 -27 l-41 5 40 -19 c22 -11 50 -17 63 -14 l24 6
-4 -138 c-3 -118 -7 -146 -27 -190 -13 -29 -26 -53 -30 -53 -3 0 -12 -10 -20
-23 -14 -22 -14 -22 7 -3 65 58 92 164 92 365 0 123 7 136 90 161 34 10 39 15
23 18 -38 6 -49 29 -30 62 23 38 21 45 -5 20 -15 -13 -25 -17 -32 -10 -5 5
-23 10 -38 10 -15 0 -28 4 -28 9 0 9 88 41 115 41 14 0 15 13 10 108 -4 59 -8
217 -9 352 -4 284 -5 290 -111 506 -68 141 -145 247 -237 325 -109 94 -233
160 -335 179 -75 13 -276 11 -388 -5z m881 -1550 c-26 -19 -42 -19 -26 0 7 8
20 15 29 15 13 -1 13 -3 -3 -15z m-18 -66 c-2 -6 -8 -10 -13 -10 -5 0 -11 4
-13 10 -2 6 4 11 13 11 9 0 15 -5 13 -11z m127 1 c-3 -5 -10 -10 -16 -10 -5 0
-9 5 -9 10 0 6 7 10 16 10 8 0 12 -4 9 -10z" id="node1" class="node"></path>
<path d="M873 1726 c-26 -23 -28 -29 -31 -120 -3 -83 -1 -101 19 -140 12 -25
24 -45 25 -43 1 1 -7 34 -18 73 -20 69 -21 72 -3 127 18 57 55 104 74 92 6 -3
11 -22 11 -41 0 -36 8 -42 28 -22 18 18 15 42 -9 72 -26 33 -59 33 -96 2z" id="node2" class="node"></path>
<path d="M1730 1615 l-105 -22 120 -1 c216 -2 315 -51 315 -156 0 -25 7 -38
26 -51 31 -20 40 -14 23 16 -10 20 -9 25 6 34 40 23 68 53 63 66 -3 8 -62 42
-131 77 -145 71 -153 72 -317 37z" id="node3" class="node"></path>
<path d="M950 1581 c-41 -15 -45 -20 -48 -54 -2 -20 1 -45 7 -54 9 -16 10 -15
11 7 0 19 13 36 50 64 74 56 67 69 -20 37z" id="node4" class="node"></path>
<path d="M1034 1538 c-4 -13 -18 -41 -32 -62 -21 -35 -22 -40 -8 -48 9 -5 23
-25 31 -44 10 -25 20 -35 32 -32 23 4 28 41 8 58 -20 16 -19 55 2 90 14 24 14
31 4 44 -18 22 -28 20 -37 -6z" id="node5" class="node"></path>
<path d="M1726 1493 c-33 -13 -70 -23 -83 -20 -13 2 -23 1 -23 -2 0 -18 71
-73 125 -97 50 -23 79 -29 175 -34 63 -3 119 -3 123 1 12 10 -11 49 -28 49 -8
0 -15 4 -15 9 0 16 -52 72 -74 81 l-21 9 21 0 c20 1 61 -36 82 -74 16 -29 14
0 -2 40 -20 48 -60 65 -148 64 -54 -1 -89 -7 -132 -26z m171 1 c-3 -3 -12 -4
-19 -1 -8 3 -5 6 6 6 11 1 17 -2 13 -5z m11 -62 c2 -7 -3 -12 -12 -12 -9 0
-16 7 -16 16 0 17 22 14 28 -4z m-99 -21 c6 -10 8 -21 5 -24 -7 -7 -64 22 -64
34 0 17 49 9 59 -10z m155 -17 c4 -9 4 -19 2 -22 -10 -9 -36 8 -36 23 0 20 26
19 34 -1z" id="node6" class="node"></path>
<path d="M1704 1342 c17 -29 100 -54 192 -59 50 -3 94 -2 97 3 3 5 -29 10 -71
10 -76 2 -183 26 -211 48 -12 9 -13 8 -7 -2z" id="node7" class="node"></path>
<path d="M1020 1294 c0 -9 75 -52 82 -48 4 3 8 15 8 27 0 19 -6 22 -45 23 -25
0 -45 0 -45 -2z" id="node8" class="node"></path>
<path d="M1080 1159 c-7 -17 -24 -35 -37 -40 -18 -7 -23 -16 -23 -44 0 -42 8
-44 42 -7 32 34 48 65 48 91 0 33 -17 33 -30 0z" id="node9" class="node"></path>
<path d="M2251 1140 c0 -19 4 -42 9 -50 7 -11 10 -8 9 15 0 17 -4 39 -9 50 -7
16 -9 14 -9 -15z" id="node10" class="node"></path>
<path d="M2272 1035 c0 -16 2 -22 5 -12 2 9 2 23 0 30 -3 6 -5 -1 -5 -18z" id="node11" class="node"></path>
<path d="M1952 970 c0 -19 2 -27 5 -17 2 9 2 25 0 35 -3 9 -5 1 -5 -18z" id="node12" class="node"></path>
<path d="M2280 962 c0 -25 -7 -46 -21 -61 -21 -22 -21 -23 -2 -17 15 5 23 0
31 -19 21 -45 15 -72 -23 -101 -33 -25 -36 -26 -54 -10 -15 13 -29 16 -69 10
-32 -4 -52 -2 -56 5 -5 7 -53 11 -139 11 -88 0 -148 5 -181 15 -27 8 -52 15
-56 15 -3 0 42 -50 100 -110 107 -112 159 -149 253 -177 26 -8 51 -21 54 -29
3 -8 -11 -48 -31 -89 -32 -69 -40 -78 -82 -96 -37 -17 -60 -20 -113 -16 -36 3
-77 8 -91 12 -18 6 -22 5 -15 -3 16 -17 125 -31 178 -22 27 4 60 16 75 27 30
22 77 113 91 175 10 42 65 129 157 244 30 38 50 70 44 72 -5 2 -10 9 -10 15 0
7 -8 26 -17 42 -11 20 -15 49 -14 88 1 31 0 57 -3 57 -3 0 -6 -17 -6 -38z
m-31 -271 c-66 -85 -90 -99 -52 -30 25 46 91 114 101 104 2 -2 -20 -35 -49
-74z m-283 -26 c73 -26 158 -33 169 -15 4 6 11 8 16 4 15 -9 1 -23 -37 -33
-58 -16 -207 33 -274 90 l-25 21 40 -21 c22 -11 72 -32 111 -46z" id="node13" class="node"></path>
<path d="M1864 955 c-17 -13 -62 -40 -101 -59 -76 -38 -87 -48 -97 -86 -6 -25
-6 -25 6 -2 6 13 52 47 102 76 50 30 100 63 110 75 25 28 18 26 -20 -4z" id="node14" class="node"></path>
<path d="M1960 916 c0 -2 16 -11 35 -20 30 -15 43 -15 95 -5 33 6 57 15 54 20
-5 9 -184 13 -184 5z" id="node15" class="node"></path>
<path d="M2102 854 c-12 -8 -22 -20 -22 -26 0 -7 4 -7 13 1 8 6 29 13 48 15
19 3 36 5 39 5 11 2 -26 21 -40 21 -9 0 -26 -7 -38 -16z" id="node16" class="node"></path>
</g>
<g transform="translate(0.000000,300.000000) scale(0.100000,-0.100000)" fill="#A0A0A0" stroke="none">

<path d="M2340 1415 c-16 -19 0 -19 26 0 16 12 16 14 3 15 -9 0 -22 -7 -29
-15z" id="node18" class="node"></path>
<path d="M2322 1349 c2 -6 8 -10 13 -10 5 0 11 4 13 10 2 6 -4 11 -13 11 -9 0
-15 -5 -13 -11z" id="node19" class="node"></path>
<path d="M2450 1350 c0 -5 4 -10 9 -10 6 0 13 5 16 10 3 6 -1 10 -9 10 -9 0
-16 -4 -16 -10z" id="node20" class="node"></path>
<path d="M1878 1493 c7 -3 16 -2 19 1 4 3 -2 6 -13 5 -11 0 -14 -3 -6 -6z" id="node21" class="node"></path>
<path d="M1880 1436 c0 -9 7 -16 16 -16 17 0 14 22 -4 28 -7 2 -12 -3 -12 -12z" id="node22" class="node"></path>
<path d="M1750 1421 c0 -12 57 -41 64 -34 3 3 1 14 -5 24 -10 19 -59 27 -59
10z" id="node23" class="node"></path>
<path d="M1930 1395 c0 -15 26 -32 36 -23 2 3 2 13 -2 22 -8 20 -34 21 -34 1z" id="node24" class="node"></path>

<path d="M1840 711 c67 -57 216 -106 274 -90 38 10 52 24 37 33 -5 4 -12 2
-16 -4 -18 -29 -171 5 -280 61 l-40 21 25 -21z" id="node26" class="node"></path>
</g>
</svg>