<!--?xml version="1.0" standalone="no"?--><svg version="1.0" xmlns="http://www.w3.org/2000/svg" width="300.000000pt" height="300.000000pt" viewBox="0 0 300.000000 300.000000" preserveAspectRatio="xMidYMid meet">
<metadata>
  <rdf:rdf xmlns:rdf="http://www.w3.org/1999/02/22-rdf-syntax-ns#" xmlns:rdfs="http://www.w3.org/2000/01/rdf-schema#" xmlns:dc="http://purl.org/dc/elements/1.1/">
    <rdf:description dc:title="audrey hepburn stencil" dc:publisher="Hiox" dc:date="2015-05-07" dc:format="image/svg+xml" dc:language="en">
      <dc:creator>
        <rdf:bag>
          <rdf:li>svgimages.com</rdf:li>
        </rdf:bag>
      </dc:creator>
    </rdf:description>
  </rdf:rdf>
</metadata>
<g transform="translate(0.000000,300.000000) scale(0.100000,-0.100000)" fill="#0E0D13" stroke="none">
<path d="M2972 2975 c0 -16 2 -22 5 -12 2 9 2 23 0 30 -3 6 -5 -1 -5 -18z" id="node1" class="node"></path>
<path d="M1340 2801 c-151 -49 -308 -163 -378 -274 -62 -98 -97 -173 -137
-294 -36 -109 -37 -114 -27 -190 11 -81 10 -92 -34 -345 -14 -84 -15 -112 -6
-130 6 -13 11 -50 10 -83 0 -33 7 -80 16 -105 8 -25 16 -65 16 -89 0 -85 72
-178 132 -169 19 2 23 9 22 38 -14 487 -14 490 12 559 29 77 37 87 83 110 28
14 61 18 150 19 62 0 127 -4 144 -9 29 -8 30 -8 14 8 -15 15 -130 30 -249 32
-42 1 -34 15 30 49 70 38 170 64 372 97 105 18 204 43 307 77 l153 51 24 -23
c54 -50 116 -230 116 -336 0 -33 5 -86 11 -118 9 -41 9 -74 1 -124 -6 -39 -8
-118 -5 -191 6 -121 6 -123 24 -100 10 13 21 35 24 49 4 14 12 32 19 40 7 8
24 35 37 60 29 55 49 81 59 75 4 -3 14 2 21 11 10 12 10 20 1 35 -17 26 -15
46 4 57 14 8 15 21 11 78 -3 38 -10 92 -16 119 -7 28 -9 79 -5 115 7 79 -10
215 -37 282 -10 27 -19 61 -19 76 -1 44 -34 104 -83 152 -26 24 -49 52 -52 61
-4 10 -15 21 -26 24 -17 6 -19 13 -14 57 l6 51 -41 -7 c-37 -6 -40 -4 -40 17
0 16 -21 40 -72 83 -102 86 -127 96 -243 106 -209 18 -277 18 -335 -1z" id="node2" class="node"></path>
<path d="M1878 1884 c-4 -3 -32 -5 -65 -5 -103 1 -156 -20 -70 -28 64 -5 107
-4 167 4 54 7 56 6 100 -32 l44 -38 -19 34 c-11 18 -36 42 -55 52 -33 18 -90
25 -102 13z" id="node3" class="node"></path>
<path d="M1160 1789 c-14 -9 -72 -31 -77 -30 -2 1 -12 -8 -24 -20 -22 -22 -41
-73 -31 -83 3 -3 43 -6 88 -6 l83 0 7 35 c6 33 9 35 44 35 26 0 48 -8 67 -24
34 -28 73 -49 73 -39 0 12 -79 81 -109 94 -42 19 -27 32 15 14 44 -18 36 -3
-10 19 -37 17 -102 20 -126 5z" id="node4" class="node"></path>
<path d="M1752 1783 c-25 -12 -42 -33 -63 -76 -16 -33 -26 -64 -23 -68 3 -5
27 -9 54 -9 39 0 52 4 60 20 6 11 8 24 5 29 -12 20 8 41 39 41 32 0 96 -33 96
-49 0 -6 -19 -16 -42 -23 -43 -13 -43 -13 51 -16 51 -1 96 0 100 4 3 3 -4 13
-16 21 -13 9 -23 23 -23 33 0 41 -89 100 -160 106 -29 2 -57 -2 -78 -13z" id="node5" class="node"></path>
<path d="M1425 1738 c4 -13 14 -38 22 -56 9 -17 13 -44 10 -58 -3 -19 -2 -23
7 -14 19 19 14 105 -8 129 -25 27 -39 27 -31 -1z" id="node6" class="node"></path>
<path d="M1440 1582 c0 -18 12 -42 21 -42 14 0 11 20 -6 36 -8 9 -15 11 -15 6z" id="node7" class="node"></path>
<path d="M1433 1403 c-26 -28 -37 -34 -57 -29 -29 7 -40 -6 -31 -34 5 -15 15
-20 41 -20 20 0 55 -11 80 -26 l44 -26 48 28 c41 25 44 29 24 32 -12 2 -28 12
-35 23 -6 10 -17 19 -24 19 -7 0 -13 6 -13 13 0 8 -10 23 -22 34 l-23 21 -32
-35z" id="node8" class="node"></path>
<path d="M1592 1378 c-19 -19 -14 -28 13 -28 13 0 35 -5 49 -11 20 -9 29 -9
41 1 22 18 19 25 -18 38 -42 15 -70 15 -85 0z" id="node9" class="node"></path>
<path d="M986 1329 c-16 -82 3 -282 31 -326 35 -56 86 -113 119 -134 43 -26
44 -40 3 -32 -31 6 -32 5 -25 -21 19 -77 36 -234 36 -339 0 -114 -1 -120 -29
-161 -16 -23 -48 -59 -70 -79 -45 -41 -43 -42 42 -25 64 13 70 21 82 90 7 43
49 98 74 98 10 0 44 13 77 29 58 29 205 72 294 86 58 10 110 33 188 83 82 53
99 58 123 36 15 -14 19 -32 20 -88 1 -39 4 -84 8 -101 4 -16 6 28 4 100 -2
117 7 226 23 292 l6 24 -37 -15 c-21 -9 -40 -14 -42 -12 -3 2 17 21 44 41 43
33 93 96 93 119 0 5 -31 -21 -69 -57 -119 -112 -220 -144 -424 -134 -118 6
-214 27 -270 59 -12 7 -35 13 -51 13 -25 0 -41 14 -98 80 -77 91 -96 125 -104
189 -7 51 11 67 22 19 13 -62 39 -102 101 -158 78 -70 69 -39 -14 46 -59 61
-81 117 -63 163 19 52 86 58 73 7 -6 -25 -5 -25 23 9 16 19 44 49 62 67 44 44
40 49 -10 13 -64 -46 -109 -41 -189 21 -20 16 -39 29 -42 29 -2 0 -7 -14 -11
-31z" id="node10" class="node"></path>
<path d="M1790 1352 c0 -5 18 -33 40 -62 22 -29 40 -57 40 -61 0 -16 -36 -26
-103 -32 -74 -5 -87 -11 -68 -30 22 -22 94 -15 132 13 35 27 89 38 89 19 0 -7
10 -5 25 5 33 22 35 21 35 -17 0 -18 -11 -49 -25 -70 -40 -57 -21 -44 30 23
25 33 51 59 58 57 8 -1 13 15 15 46 3 50 -2 55 -32 32 -41 -31 -102 -16 -183
46 -29 22 -53 36 -53 31z" id="node11" class="node"></path>
<path d="M1230 1195 c0 -20 37 -42 84 -51 31 -5 42 -3 52 10 8 12 28 17 63 18
28 1 51 5 51 9 0 9 -48 16 -167 24 -70 5 -83 3 -83 -10z" id="node12" class="node"></path>
<path d="M1551 1181 c-10 -6 -2 -9 23 -9 20 0 36 4 36 9 0 12 -41 11 -59 0z" id="node13" class="node"></path>
<path d="M2107 1081 c-2 -31 -3 -58 -1 -60 4 -4 44 86 44 99 0 4 -8 10 -19 13
-16 4 -19 -3 -24 -52z" id="node14" class="node"></path>
<path d="M1310 1092 c0 -5 12 -12 28 -15 15 -3 54 -13 87 -22 70 -20 216 -18
237 3 10 10 6 11 -22 5 -65 -15 -172 -9 -214 11 -46 22 -116 33 -116 18z" id="node15" class="node"></path>
<path d="M1970 390 c0 -5 5 -10 11 -10 5 0 7 5 4 10 -3 6 -8 10 -11 10 -2 0
-4 -4 -4 -10z" id="node16" class="node"></path>
</g>
<g transform="translate(0.000000,300.000000) scale(0.100000,-0.100000)" fill="#AAA7A8" stroke="none">

</g>
</svg>