<!--?xml version="1.0" standalone="no"?--><svg version="1.0" xmlns="http://www.w3.org/2000/svg" width="217.000000pt" height="300.000000pt" viewBox="0 0 217.000000 300.000000" preserveAspectRatio="xMidYMid meet">
<metadata>
  <rdf:rdf xmlns:rdf="http://www.w3.org/1999/02/22-rdf-syntax-ns#" xmlns:rdfs="http://www.w3.org/2000/01/rdf-schema#" xmlns:dc="http://purl.org/dc/elements/1.1/">
    <rdf:description dc:title="billy mays stencil" dc:publisher="Hiox" dc:date="2015-05-11" dc:format="image/svg+xml" dc:language="en">
      <dc:creator>
        <rdf:bag>
          <rdf:li>svgimages.com</rdf:li>
        </rdf:bag>
      </dc:creator>
    </rdf:description>
  </rdf:rdf>
</metadata>
<g transform="translate(0.000000,300.000000) scale(0.100000,-0.100000)" fill="#0B0D0E" stroke="none">
<path d="M1070 2949 c0 -10 -15 -14 -57 -15 -97 -3 -153 -9 -153 -16 0 -5 -20
-8 -45 -8 -34 0 -48 -5 -57 -20 -8 -12 -24 -20 -41 -20 -38 0 -91 -23 -167
-74 -36 -24 -87 -56 -113 -70 -75 -43 -115 -83 -129 -129 -6 -23 -16 -48 -21
-55 -18 -24 -87 -165 -87 -178 0 -8 -9 -28 -20 -46 -11 -18 -20 -41 -20 -51 0
-10 -7 -34 -16 -55 -23 -51 -25 -62 -33 -182 -4 -58 -11 -114 -16 -124 -6 -14
-5 -17 4 -12 8 5 11 -7 10 -46 -1 -29 1 -97 4 -150 4 -95 4 -98 -17 -98 -50
-1 -76 -46 -76 -132 0 -53 10 -99 45 -209 l46 -142 -7 -121 c-6 -115 -5 -122
16 -149 12 -15 35 -34 51 -42 17 -9 29 -24 29 -35 0 -50 53 -183 93 -233 23
-28 66 -84 95 -123 59 -81 82 -104 82 -84 0 7 30 -16 68 -51 69 -67 209 -159
297 -196 140 -58 295 -54 449 12 14 6 17 5 12 -3 -13 -21 5 -13 56 24 27 19
90 56 139 80 101 52 165 105 241 202 29 37 74 92 101 122 27 30 57 71 67 91
23 44 70 208 70 244 0 16 7 28 18 31 54 18 74 29 85 48 7 12 14 89 18 186 6
139 11 178 33 250 65 204 35 350 -70 350 -26 0 -32 4 -28 15 4 8 -1 34 -11 57
-14 36 -16 63 -10 174 5 89 4 138 -4 152 -8 15 -8 21 2 25 9 3 9 9 1 23 -6 11
-9 33 -7 49 2 20 -8 53 -31 100 -19 38 -30 72 -25 75 5 4 0 24 -11 45 -11 22
-20 47 -20 57 0 9 -13 27 -30 40 -16 12 -30 27 -30 34 0 7 -14 22 -30 34 -17
12 -37 35 -46 52 -20 38 -62 78 -82 78 -8 0 -30 18 -49 39 -19 22 -46 42 -63
46 -16 4 -32 11 -35 16 -4 5 -14 9 -24 9 -10 0 -26 9 -36 20 -10 11 -29 20
-42 20 -13 0 -26 7 -29 15 -6 14 -8 14 -18 -1 -11 -15 -15 -14 -50 4 -26 14
-48 18 -76 15 -29 -4 -46 0 -68 16 -35 24 -45 26 -72 9 -15 -10 -23 -9 -39 6
-16 15 -21 16 -21 5z m-104 -656 c20 -13 49 -16 128 -16 56 0 113 4 126 8 22
7 23 6 11 -9 -17 -20 -8 -21 74 -1 92 23 199 19 266 -9 63 -25 128 -68 112
-73 -6 -2 -2 -21 11 -46 15 -30 22 -66 24 -129 3 -59 8 -91 18 -99 8 -6 14
-25 14 -42 0 -30 -1 -30 -16 -11 -15 18 -15 18 -9 -9 16 -76 16 -114 2 -150
-16 -37 -16 -37 13 -52 32 -17 45 -45 36 -80 -4 -15 -1 -27 8 -32 38 -23 57
-112 36 -168 -7 -19 -7 -45 2 -85 9 -44 9 -68 1 -95 -8 -25 -9 -44 -2 -59 7
-15 7 -31 -1 -51 l-11 -30 -20 25 -20 25 8 -40 c9 -47 9 -156 -1 -182 -6 -13
-9 -15 -15 -4 -6 8 -11 -3 -15 -34 -4 -25 -14 -49 -22 -52 -8 -3 -14 -13 -14
-22 -1 -14 -2 -13 -11 2 -10 16 -14 12 -35 -32 -12 -28 -27 -51 -32 -51 -5 0
-12 -14 -16 -31 -3 -17 -19 -43 -34 -57 -16 -15 -32 -39 -35 -53 -7 -27 -31
-44 -48 -33 -15 9 -10 96 11 171 24 87 17 118 -29 127 -17 3 -44 9 -61 12 -20
4 -30 2 -30 -6 0 -7 -20 0 -47 15 -40 24 -45 25 -39 9 4 -11 -12 0 -35 23 -41
40 -42 43 -26 61 9 10 17 34 17 53 l-1 34 -16 -30 c-21 -39 -30 -45 -74 -45
-45 0 -112 -23 -146 -50 -33 -26 -95 -26 -137 -1 -17 10 -51 22 -76 25 -38 5
-42 4 -22 -6 28 -14 28 -19 -4 -49 l-27 -24 6 23 c5 20 2 22 -16 17 -12 -4
-31 -9 -42 -12 -11 -3 -28 -12 -37 -21 -16 -14 -18 -13 -18 3 0 16 -3 16 -26
-6 -18 -16 -28 -20 -31 -12 -5 14 -49 -4 -77 -32 -10 -10 -16 -12 -16 -5 0 19
143 145 210 185 9 6 15 16 13 22 -4 12 -74 -32 -142 -90 -19 -16 -49 -36 -67
-43 -34 -14 -51 -52 -36 -82 5 -9 13 -39 17 -67 6 -47 33 -103 62 -133 7 -7
13 -19 13 -25 -1 -59 -46 -81 -56 -27 -5 22 -11 29 -27 27 -14 -1 -23 7 -31
31 -6 18 -15 30 -19 26 -9 -10 -37 59 -37 92 0 22 -3 24 -14 15 -12 -10 -16
-4 -22 36 -11 73 -22 97 -24 48 -3 -81 -14 -82 -44 -7 -22 53 -27 79 -22 106
4 21 1 57 -8 88 -9 33 -14 102 -14 183 -1 72 -6 154 -11 184 -17 85 -13 190 8
237 10 23 23 44 27 47 9 5 8 92 -2 189 -4 32 -10 56 -14 53 -8 -5 -1 98 10
143 9 34 3 40 -19 20 -11 -11 -12 -8 -6 12 32 107 147 200 249 200 28 0 29 1
10 15 -14 11 -15 14 -4 14 17 1 72 -12 110 -24 23 -7 24 -7 10 10 -14 17 -13
18 15 11 17 -5 76 -11 133 -15 79 -5 101 -3 98 6 -5 11 30 10 72 -3 15 -4 16
8 0 24 -17 17 -1 15 28 -5z m1142 -658 c23 -67 18 -169 -12 -280 -21 -77 -29
-132 -33 -239 -5 -125 -8 -141 -29 -165 l-23 -26 -20 20 c-15 15 -25 44 -33
102 -14 96 -4 158 25 158 67 0 57 148 -12 185 -25 13 -49 53 -28 44 11 -4 16
11 20 63 4 43 12 72 22 79 8 6 24 32 36 58 18 41 24 47 47 44 21 -2 30 -11 40
-43z m-1989 -85 c29 -15 52 -86 63 -195 5 -55 12 -124 15 -154 3 -36 1 -56 -7
-61 -9 -5 -9 -17 -2 -44 6 -21 8 -83 5 -145 -5 -88 -9 -108 -20 -104 -33 13
-43 60 -41 180 2 79 -2 125 -10 140 -19 34 -72 250 -72 294 0 41 14 78 34 91
14 10 14 10 35 -2z m579 -879 c82 -41 199 -74 175 -50 -7 7 -24 14 -39 15 -34
4 -48 18 -40 39 4 11 12 14 26 10 41 -13 163 -18 300 -12 26 2 35 -2 38 -16 3
-12 -5 -19 -27 -23 -61 -12 -46 -26 20 -19 99 11 148 23 195 51 24 14 54 24
66 22 21 -3 23 -8 25 -71 1 -63 0 -67 -18 -62 -15 5 -19 1 -19 -17 0 -29 -9
-42 -36 -56 -30 -16 -48 7 -39 48 4 16 4 30 2 30 -3 0 -42 -19 -87 -43 l-82
-42 -147 1 c-136 1 -152 3 -204 27 -48 22 -56 23 -62 9 -3 -8 -1 -18 5 -22 7
-4 8 -18 4 -34 -6 -25 -5 -26 21 -16 37 14 64 4 71 -25 5 -20 9 -23 24 -15 30
16 65 11 103 -14 l35 -24 10 22 c9 17 11 18 11 4 1 -21 17 -24 23 -5 3 7 23
12 49 13 26 0 58 9 79 22 38 24 50 27 50 13 0 -5 9 -7 20 -4 12 3 29 -2 40
-12 19 -17 20 -17 20 4 0 27 18 19 30 -14 5 -14 5 -38 -2 -62 l-11 -38 -13 32
c-16 39 -40 57 -31 24 4 -18 3 -20 -9 -10 -11 9 -14 7 -14 -12 -1 -24 -1 -24
-16 4 -19 35 -32 35 -36 0 -2 -22 -8 -28 -26 -27 -20 1 -22 -3 -17 -30 5 -28
5 -29 -8 -13 -18 22 -25 22 -29 -1 -3 -13 -7 -11 -21 13 l-16 30 -1 -26 c0
-43 -12 -41 -33 4 -18 37 -21 39 -25 19 -4 -28 -28 -39 -53 -24 -13 9 -19 8
-23 -1 -3 -9 -7 -8 -15 3 -9 12 -11 10 -11 -11 0 -14 -6 -33 -13 -44 -16 -21
-25 -11 -38 39 -7 29 -8 30 -14 9 -9 -28 -25 -20 -25 12 0 12 -7 26 -16 29 -8
3 -12 10 -9 16 10 16 -21 12 -35 -5 -22 -26 -33 -17 -27 21 5 30 4 34 -8 24
-12 -10 -15 -9 -15 9 0 12 -4 19 -10 16 -6 -3 -10 4 -10 18 0 13 -13 41 -30
63 -16 21 -30 47 -30 57 0 24 -14 21 -33 -5 -16 -22 -16 -22 -16 -2 -1 11 5
29 13 39 12 17 12 23 0 47 -8 15 -14 38 -14 53 0 34 25 33 98 -4z m502 -12 c0
-5 -7 -9 -15 -9 -15 0 -20 12 -9 23 8 8 24 -1 24 -14z" id="node1" class="node"></path>
<path d="M1375 1595 c-16 -8 -54 -14 -83 -15 -29 0 -66 -7 -82 -15 -21 -11
-29 -12 -32 -3 -6 16 -53 -13 -68 -42 -9 -18 -8 -20 14 -20 15 0 30 -8 36 -20
14 -27 87 -27 166 0 109 38 191 25 246 -40 27 -31 39 -37 63 -35 16 2 35 12
42 21 18 25 17 74 -2 74 -8 0 -15 4 -15 8 0 5 -12 9 -28 9 -15 0 -49 15 -77
35 -51 36 -105 59 -134 57 -9 0 -29 -7 -46 -14z" id="node2" class="node"></path>
<path d="M466 1550 c3 -2 -10 -9 -28 -16 -24 -8 -39 -23 -57 -58 -13 -25 -22
-49 -19 -52 10 -9 58 8 58 21 0 29 56 38 170 26 61 -6 122 -16 137 -22 25 -9
42 0 43 24 0 4 7 7 15 7 8 0 15 4 15 8 0 11 -39 47 -67 61 -20 10 -23 9 -23
-5 0 -16 -1 -16 -18 -1 -14 13 -38 15 -124 14 -58 -1 -104 -4 -102 -7z" id="node3" class="node"></path>
<path d="M1303 1443 c-24 -2 -43 -8 -43 -13 0 -5 -14 -17 -31 -26 -23 -11 -28
-19 -20 -27 8 -8 18 -4 37 14 l26 24 15 -22 c9 -13 26 -23 38 -23 43 0 85 13
85 26 0 22 20 27 39 10 10 -9 25 -16 34 -16 9 0 18 -4 21 -9 8 -12 58 -1 53
12 -2 6 -28 21 -58 34 -53 21 -94 25 -196 16z m47 -34 c0 -5 -7 -9 -15 -9 -15
0 -20 12 -9 23 8 8 24 -1 24 -14z" id="node4" class="node"></path>
<path d="M468 1391 l-33 -30 41 3 c23 2 52 11 65 20 31 21 37 20 41 -6 3 -19
9 -22 57 -22 46 -1 55 2 64 22 6 12 15 22 21 23 6 0 2 4 -9 9 -11 5 -64 9
-117 9 -94 1 -99 0 -130 -28z m172 1 c0 -13 -12 -22 -22 -16 -10 6 -1 24 13
24 5 0 9 -4 9 -8z" id="node5" class="node"></path>
<path d="M2031 1602 c-5 -9 -10 -54 -12 -99 -3 -64 0 -86 13 -100 9 -10 18
-27 20 -38 5 -19 5 -19 13 -1 4 10 2 63 -5 117 -10 78 -11 102 -1 112 9 9 14
9 21 -3 5 -8 10 -10 10 -4 0 14 -21 34 -37 34 -7 0 -17 -8 -22 -18z" id="node6" class="node"></path>
<path d="M2023 1171 c-9 -15 -9 -23 2 -37 13 -17 14 -16 15 19 0 43 -1 44 -17
18z" id="node7" class="node"></path>
<path d="M76 1494 c-9 -23 -8 -24 10 -17 26 10 34 -18 28 -97 -6 -71 -5 -76
19 -98 21 -20 25 -21 31 -7 3 9 -1 26 -9 38 -10 14 -15 45 -15 87 0 43 -5 73
-16 88 -18 26 -39 29 -48 6z" id="node8" class="node"></path>
<path d="M920 620 c0 -5 5 -10 11 -10 5 0 7 5 4 10 -3 6 -8 10 -11 10 -2 0 -4
-4 -4 -10z" id="node9" class="node"></path>
<path d="M990 610 c-13 -8 -13 -10 2 -10 9 0 20 5 23 10 8 13 -5 13 -25 0z" id="node10" class="node"></path>
</g>
<g transform="translate(0.000000,300.000000) scale(0.100000,-0.100000)" fill="#A1A2A3" stroke="none">

<path d="M938 2298 c16 -16 15 -28 0 -24 -42 13 -77 14 -72 3 3 -9 -19 -11
-98 -6 -57 4 -116 10 -133 15 -28 7 -29 6 -15 -11 14 -17 13 -17 -10 -10 -38
12 -93 25 -110 24 -11 0 -10 -3 4 -14 19 -14 18 -15 -10 -15 -102 0 -217 -93
-249 -200 -6 -20 -5 -23 6 -12 22 20 28 14 19 -20 -11 -45 -18 -148 -10 -143
4 3 10 -21 14 -53 10 -97 11 -184 2 -189 -4 -3 -17 -24 -27 -47 -21 -47 -25
-152 -8 -237 5 -30 10 -112 11 -184 0 -81 5 -150 14 -183 9 -31 12 -67 8 -88
-5 -27 0 -53 22 -106 30 -75 41 -74 44 7 2 49 13 25 24 -48 6 -40 10 -46 22
-36 11 9 14 7 14 -15 0 -33 28 -102 37 -92 4 4 13 -8 19 -26 8 -24 17 -32 31
-31 16 2 22 -5 27 -27 10 -54 55 -32 56 27 0 6 -6 18 -13 25 -29 30 -56 86
-62 133 -4 28 -12 58 -17 67 -15 30 2 68 36 82 18 7 48 27 67 43 68 58 138
102 142 90 2 -6 -4 -16 -13 -22 -67 -40 -210 -166 -210 -185 0 -7 6 -5 16 5
28 28 72 46 77 32 3 -8 13 -4 31 12 23 22 26 22 26 6 0 -16 2 -17 18 -3 9 9
26 18 37 21 11 3 30 8 42 12 18 5 21 3 16 -17 l-6 -23 27 24 c32 30 32 35 4
49 -20 10 -16 11 22 6 25 -3 59 -15 76 -25 42 -25 104 -25 137 1 34 27 101 50
146 50 44 0 53 6 74 45 l16 30 1 -34 c0 -19 -8 -43 -17 -53 -16 -18 -15 -21
26 -61 23 -23 39 -34 35 -23 -6 16 -1 15 39 -9 27 -15 47 -22 47 -15 0 8 10
10 30 6 17 -3 44 -9 61 -12 46 -9 53 -40 29 -127 -21 -75 -26 -162 -11 -171
17 -11 41 6 48 33 3 14 19 38 35 53 15 14 31 40 34 57 4 17 11 31 16 31 5 0
20 23 32 51 21 44 25 48 35 32 9 -15 10 -16 11 -2 0 9 6 19 14 22 8 3 18 27
22 52 4 31 9 42 15 34 6 -11 9 -9 15 4 10 26 10 135 1 182 l-8 40 20 -25 20
-25 11 30 c8 20 8 36 1 51 -7 15 -6 34 2 59 8 27 8 51 -1 95 -9 40 -9 66 -2
85 21 56 2 145 -36 168 -9 5 -12 17 -8 32 9 35 -4 63 -36 80 -29 15 -29 15
-13 52 14 36 14 74 -2 150 -6 27 -6 27 9 9 15 -19 16 -19 16 11 0 17 -6 36
-14 42 -10 8 -15 40 -18 99 -2 63 -9 99 -24 129 -13 25 -17 44 -11 46 16 5
-49 48 -112 73 -67 28 -174 32 -266 9 -82 -20 -91 -19 -74 1 12 15 11 16 -11
9 -13 -4 -70 -8 -126 -8 -79 0 -108 3 -128 16 -29 20 -45 22 -28 5z m533 -699
c19 -7 56 -28 84 -47 28 -20 62 -35 77 -35 16 0 28 -4 28 -9 0 -4 7 -8 15 -8
19 0 20 -49 2 -74 -7 -9 -26 -19 -42 -21 -24 -2 -36 4 -63 35 -55 65 -137 78
-246 40 -79 -27 -152 -27 -166 0 -6 12 -21 20 -36 20 -22 0 -23 2 -14 20 15
29 62 58 68 42 3 -9 11 -8 32 3 16 8 53 15 82 15 29 1 67 7 83 15 38 17 54 18
96 4z m-779 -56 c17 -15 18 -15 18 1 0 14 3 15 23 5 28 -14 67 -50 67 -61 0
-4 -7 -8 -15 -8 -8 0 -15 -3 -15 -7 -1 -24 -18 -33 -43 -24 -15 6 -76 16 -137
22 -114 12 -170 3 -170 -26 0 -13 -48 -30 -58 -21 -3 3 6 27 19 52 18 35 33
50 57 58 18 7 31 14 28 16 -2 3 44 6 102 7 86 1 110 -1 124 -14z m807 -116
c30 -13 56 -28 58 -34 5 -13 -45 -24 -53 -12 -3 5 -12 9 -21 9 -9 0 -24 7 -34
16 -19 17 -39 12 -39 -10 0 -13 -42 -26 -85 -26 -12 0 -29 10 -38 23 l-15 22
-26 -24 c-19 -18 -29 -22 -37 -14 -8 8 -3 16 20 27 17 9 31 21 31 26 0 5 19
11 43 13 102 9 143 5 196 -16z m-784 -17 c11 -5 15 -9 9 -9 -6 -1 -15 -11 -21
-23 -9 -20 -18 -23 -64 -22 -48 0 -54 3 -57 22 -4 26 -10 27 -41 6 -13 -9 -42
-18 -65 -20 l-41 -3 33 30 c31 28 36 29 130 28 53 0 106 -4 117 -9z" id="node12" class="node"></path>
<path d="M1326 1423 c-11 -11 -6 -23 9 -23 8 0 15 4 15 9 0 13 -16 22 -24 14z" id="node13" class="node"></path>
<path d="M615 1391 c-6 -11 9 -23 19 -14 9 9 7 23 -3 23 -6 0 -12 -4 -16 -9z" id="node14" class="node"></path>
<path d="M2021 1634 c-12 -26 -28 -52 -36 -58 -10 -7 -18 -36 -22 -79 -4 -52
-9 -67 -20 -63 -21 9 3 -31 28 -44 69 -37 79 -185 12 -185 -29 0 -39 -62 -25
-158 8 -58 18 -87 33 -102 l20 -20 23 26 c21 24 24 40 29 165 4 107 12 162 33
239 44 163 31 316 -28 323 -23 3 -29 -3 -47 -44z m57 -26 c7 -7 12 -17 12 -22
0 -6 -5 -4 -10 4 -7 12 -12 12 -21 3 -10 -10 -9 -34 1 -112 7 -54 9 -107 5
-117 -8 -18 -8 -18 -13 1 -2 11 -11 28 -20 38 -13 14 -16 36 -13 100 4 107 23
141 59 105z m-38 -455 c-1 -35 -2 -36 -15 -19 -11 14 -11 22 -2 37 16 26 17
25 17 -18z" id="node15" class="node"></path>
<path d="M84 1552 c-20 -13 -34 -50 -34 -91 0 -44 53 -260 72 -294 8 -15 12
-61 10 -140 -2 -120 8 -167 41 -180 11 -4 15 16 20 104 3 62 1 124 -5 145 -7
27 -7 39 2 44 8 5 10 25 7 61 -3 30 -10 99 -15 154 -11 109 -34 180 -63 195
-21 12 -21 12 -35 2z m40 -64 c11 -15 16 -45 16 -88 0 -42 5 -73 15 -87 8 -12
12 -29 9 -38 -6 -14 -10 -13 -31 7 -24 22 -25 27 -19 98 6 79 -2 107 -28 97
-18 -7 -19 -6 -10 17 9 23 30 20 48 -6z" id="node16" class="node"></path>
<path d="M600 675 c0 -15 6 -38 14 -53 12 -24 12 -30 0 -47 -8 -10 -14 -28
-13 -39 0 -20 0 -20 16 2 19 26 33 29 33 5 0 -10 14 -36 30 -57 17 -22 30 -50
30 -63 0 -14 4 -21 10 -18 6 3 10 -4 10 -16 0 -18 3 -19 15 -9 12 10 13 6 8
-24 -6 -38 5 -47 27 -21 14 17 45 21 35 5 -3 -6 1 -13 9 -16 9 -3 16 -17 16
-29 0 -32 16 -40 25 -12 6 21 7 20 14 -9 13 -50 22 -60 38 -39 7 11 13 30 13
44 0 21 2 23 11 11 8 -11 12 -12 15 -3 4 9 10 10 23 1 25 -15 49 -4 53 24 4
20 7 18 25 -19 21 -45 33 -47 33 -4 l1 26 16 -30 c14 -24 18 -26 21 -13 4 23
11 23 29 1 13 -16 13 -15 8 13 -5 27 -3 31 17 30 18 -1 24 5 26 27 4 35 17 35
36 0 15 -28 15 -28 16 -4 0 19 3 21 14 12 12 -10 13 -8 9 10 -9 33 15 15 31
-24 l13 -32 11 38 c7 24 7 48 2 62 -12 33 -30 41 -30 14 0 -21 -1 -21 -20 -4
-11 10 -28 15 -40 12 -11 -3 -20 -1 -20 4 0 14 -12 11 -50 -13 -21 -13 -53
-22 -79 -22 -26 -1 -46 -6 -49 -13 -6 -19 -22 -16 -23 5 0 14 -2 13 -11 -4
l-10 -22 -35 24 c-38 25 -73 30 -103 14 -15 -8 -19 -5 -24 15 -7 29 -34 39
-71 25 -26 -10 -27 -9 -21 16 4 16 3 30 -4 34 -6 4 -8 14 -5 22 6 14 14 13 62
-9 52 -24 68 -26 204 -27 l147 -1 82 42 c45 24 84 43 87 43 2 0 2 -14 -2 -30
-9 -41 9 -64 39 -48 27 14 36 27 36 56 0 18 4 22 19 17 18 -5 19 -1 18 62 -2
63 -4 68 -25 71 -12 2 -42 -8 -66 -22 -47 -28 -96 -40 -195 -51 -66 -7 -81 7
-20 19 22 4 30 11 27 23 -3 14 -12 18 -38 16 -137 -6 -259 -1 -300 12 -14 4
-22 1 -26 -10 -8 -21 6 -35 40 -39 15 -1 32 -8 39 -15 24 -24 -93 9 -175 50
-73 37 -98 38 -98 4z m335 -55 c3 -5 1 -10 -4 -10 -6 0 -11 5 -11 10 0 6 2 10
4 10 3 0 8 -4 11 -10z m80 -10 c-3 -5 -14 -10 -23 -10 -15 0 -15 2 -2 10 20
13 33 13 25 0z" id="node17" class="node"></path>
<path d="M1176 673 c-11 -11 -6 -23 9 -23 8 0 15 4 15 9 0 13 -16 22 -24 14z" id="node18" class="node"></path>
</g>
</svg>