<!--?xml version="1.0" standalone="no"?--><svg xmlns="http://www.w3.org/2000/svg" width="226.000000pt" height="300.000000pt" viewBox="0 0 226.000000 300.000000" preserveAspectRatio="xMidYMid meet">
<metadata>
  <rdf:rdf xmlns:rdf="http://www.w3.org/1999/02/22-rdf-syntax-ns#" xmlns:rdfs="http://www.w3.org/2000/01/rdf-schema#" xmlns:dc="http://purl.org/dc/elements/1.1/">
    <rdf:description dc:title="brad pitt cartoon" dc:publisher="Hiox" dc:date="2015-05-07" dc:format="image/svg+xml" dc:language="en">
      <dc:creator>
        <rdf:bag>
          <rdf:li>svgimages.com</rdf:li>
        </rdf:bag>
      </dc:creator>
    </rdf:description>
  </rdf:rdf>
</metadata>
<g transform="translate(0.000000,300.000000) scale(0.100000,-0.100000)" fill="#131313" stroke="none">
<path style="position: relative;" d="M749 2964 c-7 -9 -7 -19 1 -34 10 -18 8 -24 -9 -39 -11 -10 -18 -20
-15 -23 7 -8 -56 -29 -67 -22 -5 3 -9 -2 -9 -12 0 -16 -11 -16 -51 0 -13 6
-15 0 -13 -29 3 -30 -1 -37 -26 -50 -25 -13 -33 -13 -70 0 -40 14 -41 14 -35
-5 8 -25 -15 -35 -102 -45 -65 -7 -79 -19 -40 -35 20 -8 21 -9 2 -11 -11 -1
-38 -2 -59 -3 -41 -1 -60 -21 -29 -29 13 -3 11 -5 -7 -6 -48 -3 9 -31 64 -32
l51 -1 -38 -16 c-21 -10 -35 -22 -32 -29 2 -7 0 -15 -6 -18 -15 -10 -2 -22 32
-29 l32 -6 -41 -44 c-41 -44 -64 -79 -61 -93 1 -4 -8 -29 -20 -56 -29 -62 -16
-81 18 -25 l26 43 3 -32 c2 -18 -2 -42 -9 -54 -27 -51 -60 -248 -49 -289 l8
-25 10 25 c9 21 11 22 11 6 1 -11 13 -32 27 -47 36 -38 43 -81 27 -169 -9 -49
-12 -111 -8 -178 4 -87 10 -113 34 -165 24 -49 31 -81 36 -151 6 -98 14 -119
58 -157 27 -23 30 -29 24 -68 -5 -43 14 -195 33 -261 13 -46 56 -106 159 -220
48 -52 108 -123 135 -157 71 -91 121 -120 242 -138 124 -19 172 -19 253 0 99
24 170 68 306 192 194 175 231 223 272 353 15 47 38 102 51 123 17 25 27 57
30 93 4 53 5 54 51 75 63 27 84 50 117 122 25 57 28 73 30 202 2 77 8 174 14
215 16 111 18 153 9 172 -7 13 -4 17 16 20 25 3 25 3 8 28 -9 13 -18 31 -20
40 -1 8 -5 29 -9 46 -3 18 -1 41 5 51 7 14 7 23 0 30 -7 7 -8 20 -3 34 4 13 6
29 4 34 -7 20 -5 135 3 135 13 0 7 68 -8 83 -7 8 -29 17 -47 21 -31 6 -33 9
-36 48 -7 118 -6 113 -32 116 -32 4 -51 29 -44 59 6 21 3 23 -27 24 -19 1 -37
1 -41 1 -17 -3 -29 27 -19 47 6 11 11 24 11 29 0 16 -31 23 -46 11 -10 -8 -24
-2 -59 26 -25 21 -45 43 -45 49 0 7 -20 17 -44 24 -37 10 -46 17 -56 46 -6 18
-19 41 -29 51 -18 15 -20 15 -28 0 -9 -15 -14 -14 -64 4 -61 23 -73 26 -64 11
4 -7 -3 -7 -20 0 -15 6 -36 10 -47 10 -12 0 -36 17 -56 40 -37 44 -92 79 -92
59 0 -7 8 -22 18 -33 17 -21 17 -21 -4 -3 -12 9 -28 15 -37 11 -8 -3 -26 1
-39 9 -13 9 -37 14 -57 11 -23 -3 -41 2 -53 13 -16 14 -18 14 -18 1 0 -11 -11
-16 -37 -16 -77 -1 -83 -2 -83 -18 0 -14 -3 -14 -15 -4 -8 7 -15 9 -15 4 -1
-5 -10 2 -21 16 -17 19 -31 25 -65 26 -25 0 -49 -5 -55 -12z m363 -149 c59
-30 72 -31 66 -7 -4 15 2 14 47 -9 29 -14 62 -35 74 -45 11 -10 30 -27 41 -36
11 -10 25 -18 31 -18 15 0 39 -26 31 -34 -11 -12 22 -26 48 -21 20 4 22 3 10
-5 -13 -9 -9 -16 24 -45 44 -39 42 -45 -6 -15 -18 11 -41 20 -51 20 -9 0 -63
31 -120 69 -56 37 -113 74 -127 81 -14 7 -35 22 -47 33 -13 11 -40 28 -60 38
-21 9 -32 18 -24 18 7 1 35 -10 63 -24z m-305 -25 c41 -36 33 -40 -13 -5 -37
28 -71 32 -100 10 -10 -8 -30 -14 -44 -14 -22 0 -19 3 15 19 61 28 101 25 142
-10z m240 -41 c21 -12 43 -25 48 -29 6 -5 28 -12 50 -16 l40 -8 -35 -6 c-29
-5 -41 -1 -68 23 -19 15 -47 30 -63 34 -16 3 -29 9 -29 14 0 14 17 11 57 -12z
m-249 -110 c69 -32 89 -46 81 -55 -8 -9 -3 -17 18 -28 15 -8 24 -15 20 -16 -5
0 -29 12 -55 27 -25 15 -55 29 -66 30 -11 2 -24 10 -29 18 -5 10 -16 13 -33 9
-15 -4 -24 -2 -24 6 0 8 -9 10 -27 5 -47 -12 -246 -6 -255 8 -10 16 -9 16 63
32 38 9 95 13 140 11 65 -3 91 -11 167 -47z m289 -63 c32 -19 74 -51 93 -72
33 -35 33 -36 5 -15 -16 12 -60 42 -97 67 -61 40 -77 54 -64 54 3 0 31 -15 63
-34z m546 -46 c19 -16 54 -41 78 -54 l44 -26 -40 7 c-53 8 -124 57 -122 83 1
11 2 20 4 20 1 0 18 -13 36 -30z m-889 -11 c26 -7 35 -14 27 -19 -10 -5 -7
-12 10 -25 20 -14 20 -16 4 -10 -45 17 -65 18 -60 3 5 -13 -3 -14 -44 -10 -38
3 -60 -1 -89 -16 -38 -19 -39 -20 -38 -1 1 10 9 28 19 39 9 11 17 23 17 25 0
10 -105 -8 -153 -26 -37 -13 -46 -14 -36 -3 6 8 17 14 25 14 7 0 17 7 21 15
18 32 205 41 297 14z m-336 -136 c-20 -21 -50 -60 -67 -87 -35 -57 -41 -54
-11 4 18 34 95 120 109 120 3 0 -11 -17 -31 -37z m1572 -61 c0 -23 -17 -4 -23
25 -5 26 -4 26 9 8 8 -10 14 -25 14 -33z m-705 2 c11 -1 25 2 30 6 16 12 85
20 85 10 0 -5 10 -6 22 -1 16 6 31 2 56 -16 19 -12 48 -23 63 -23 24 0 29 -4
29 -24 0 -14 11 -38 25 -54 14 -17 28 -44 31 -60 4 -19 11 -29 19 -26 13 5 25
-36 25 -83 0 -19 4 -24 16 -19 14 5 15 -2 9 -58 -8 -72 0 -93 64 -171 23 -27
41 -60 41 -73 0 -30 39 -184 49 -195 5 -5 2 -36 -5 -70 -22 -105 -17 -263 10
-254 15 5 74 125 81 167 11 60 24 84 39 71 16 -13 26 5 26 46 0 23 35 72 52
73 11 0 9 -212 -3 -270 -15 -71 -87 -185 -121 -192 -14 -3 -35 -1 -48 4 -13 5
-25 7 -27 4 -2 -2 -8 -66 -13 -142 -9 -141 -11 -152 -37 -214 -47 -111 -61
-129 -182 -247 l-125 -122 -46 6 c-25 3 -51 9 -59 13 -8 4 -28 -2 -49 -16 -43
-30 -68 -30 -83 -3 -11 21 -12 20 -33 -16 -11 -21 -34 -46 -51 -55 -34 -19
-85 -31 -85 -20 0 4 -13 7 -30 6 -16 -1 -30 -5 -30 -9 0 -5 -13 1 -30 13 -16
12 -34 18 -40 15 -6 -4 -10 5 -10 20 0 20 -4 26 -15 21 -11 -4 -15 1 -15 19 0
18 -5 25 -20 25 -11 0 -20 5 -20 11 0 6 -8 8 -17 5 -26 -8 -41 5 -45 39 l-3
30 -34 -32 c-19 -18 -36 -33 -38 -33 -7 0 -76 72 -154 161 -90 100 -124 171
-138 284 -6 50 -11 114 -11 144 0 50 -3 58 -35 87 -29 26 -35 39 -35 71 0 22
-2 62 -5 89 l-5 49 14 -54 c16 -62 56 -151 68 -151 12 0 10 46 -6 125 -8 39
-15 109 -15 157 1 48 -2 91 -5 97 -4 5 -2 12 3 15 5 4 7 30 4 59 -10 87 -6
124 14 164 11 21 24 53 27 70 4 17 14 37 22 44 8 6 14 21 14 34 0 12 3 25 8
29 10 11 9 80 -2 87 -5 4 -5 15 -1 25 4 11 9 60 11 109 4 139 2 133 54 139 25
3 84 5 131 5 52 0 104 5 131 15 26 8 102 17 179 21 74 3 143 8 154 10 11 2 28
4 38 4 9 1 17 8 17 16 0 13 3 14 23 3 12 -7 31 -13 42 -14z m590 -124 c5 -27
1 -50 -11 -76 -10 -21 -20 -32 -22 -26 -2 6 1 20 7 31 14 25 14 96 0 124 -9
21 -9 21 5 4 8 -11 17 -36 21 -57z m200 -30 c3 -5 1 -10 -4 -10 -6 0 -11 5
-11 10 0 6 2 10 4 10 3 0 8 -4 11 -10z m-54 -62 c7 -13 15 -37 20 -55 5 -26 4
-33 -9 -33 -38 0 -63 50 -46 94 9 22 21 20 35 -6z m-120 -81 c-8 -8 -11 -7
-11 4 0 9 3 19 7 23 4 4 9 2 11 -4 3 -7 -1 -17 -7 -23z m118 -122 c18 5 21 2
21 -24 0 -25 -3 -29 -17 -24 -10 4 -21 11 -25 17 -6 7 -11 6 -18 -4 -7 -11
-10 -5 -10 25 1 36 2 38 15 22 9 -13 20 -17 34 -12z m-1676 -439 l6 -58 -19
34 c-18 35 -23 62 -21 108 l2 25 13 -25 c7 -14 16 -51 19 -84z" id="node1" class="node"></path>
<path style="position: relative;" d="M1285 1730 c-38 -21 -44 -54 -13 -71 13 -8 67 -14 128 -16 140 -4
157 -6 213 -31 58 -26 75 -27 105 -6 22 15 22 17 7 34 -33 37 -136 74 -215 78
-41 2 -84 7 -95 12 -40 17 -99 17 -130 0z" id="node2" class="node"></path>
<path style="position: relative;" d="M707 1719 c-21 -5 -52 -16 -68 -25 -17 -9 -41 -13 -52 -10 -38 10
-137 -59 -137 -96 0 -30 34 -40 60 -18 12 10 56 33 98 50 72 31 77 31 103 16
29 -17 153 -22 178 -7 11 7 10 13 -4 35 -10 15 -20 24 -23 21 -3 -3 -12 1 -21
9 -15 13 -77 37 -90 35 -3 -1 -23 -5 -44 -10z" id="node3" class="node"></path>
<path style="position: relative;" d="M1215 1594 c-89 -46 -90 -49 -90 -177 1 -90 5 -121 20 -152 10 -22
19 -57 18 -77 0 -21 3 -35 8 -32 14 8 10 72 -5 103 -17 32 -30 202 -19 250 7
28 18 38 70 65 35 17 63 34 63 39 0 12 -13 8 -65 -19z" id="node4" class="node"></path>
<path style="position: relative;" d="M935 1556 l47 -45 -7 -68 c-10 -94 -30 -167 -55 -201 -22 -30 -25
-92 -4 -99 6 -2 8 10 6 33 -3 25 2 44 15 62 38 53 71 202 59 267 -5 26 -18 44
-48 65 -61 44 -68 36 -13 -14z" id="node5" class="node"></path>
<path style="position: relative;" d="M1370 1579 c0 -13 -72 -41 -89 -34 -9 3 -12 3 -8 -1 4 -4 -2 -13 -13
-21 -37 -26 -24 -40 48 -48 120 -14 187 -9 203 17 5 7 20 13 35 13 15 0 29 6
31 13 3 7 -4 12 -15 12 -11 0 -31 9 -45 20 -14 11 -38 22 -54 25 -68 12 -93
13 -93 4z m-17 -59 c6 -22 0 -25 -23 -10 -13 9 -13 11 0 20 8 5 16 10 16 10 1
0 4 -9 7 -20z m65 -20 c9 0 23 7 32 15 16 14 17 14 13 -10 -5 -21 -11 -25 -39
-25 -19 0 -34 3 -34 8 0 4 -3 18 -5 32 -5 25 -5 25 6 3 7 -13 19 -23 27 -23z" id="node6" class="node"></path>
<path style="position: relative;" d="M705 1571 c-16 -4 -39 -13 -50 -19 -11 -6 -32 -13 -47 -17 -22 -4
-28 -11 -28 -30 0 -32 13 -31 55 1 l33 25 14 -27 c20 -42 41 -44 34 -3 -5 28
-4 30 4 12 6 -15 18 -23 34 -23 13 0 26 -7 30 -15 3 -8 15 -15 26 -15 27 0
100 23 100 32 0 3 -13 17 -29 31 -17 14 -27 28 -23 32 4 5 2 5 -4 2 -7 -4 -28
0 -48 8 -38 16 -54 17 -101 6z m144 -72 c-24 -15 -37 -10 -32 11 4 16 9 18 25
9 17 -9 18 -13 7 -20z" id="node7" class="node"></path>
<path style="position: relative;" d="M1995 1398 c0 -35 -4 -79 -9 -98 l-8 -35 21 19 c31 28 42 78 28 128
-19 63 -32 56 -32 -14z" id="node8" class="node"></path>
<path style="position: relative;" d="M1906 1295 c-4 -15 -18 -45 -32 -67 -14 -22 -23 -45 -21 -51 5 -17
89 99 85 119 -5 28 -25 27 -32 -1z" id="node9" class="node"></path>
<path style="position: relative;" d="M866 1217 c-55 -72 -55 -123 0 -133 19 -3 37 -10 40 -15 7 -12 34
-11 34 1 0 6 -20 15 -45 22 -54 15 -58 33 -20 108 29 58 26 64 -9 17z" id="node10" class="node"></path>
<path style="position: relative;" d="M1247 1181 c24 -42 26 -51 14 -65 -8 -9 -20 -15 -28 -12 -7 3 -13 1
-13 -3 0 -19 32 -19 50 -1 26 26 25 48 -5 93 -37 54 -50 45 -18 -12z" id="node11" class="node"></path>
<path style="position: relative;" d="M890 1121 c0 -6 10 -16 23 -22 12 -7 35 -23 51 -36 16 -13 31 -22 33
-19 11 11 -21 47 -55 63 -20 9 -40 19 -44 21 -5 2 -8 -1 -8 -7z" id="node12" class="node"></path>
<path style="position: relative;" d="M1133 1100 c-34 -8 -63 -27 -63 -40 0 -7 129 36 139 46 7 6 -40 3
-76 -6z" id="node13" class="node"></path>
<path style="position: relative;" d="M1583 827 c-12 -40 -25 -81 -29 -92 -7 -19 -7 -19 9 -3 28 28 65 152
49 162 -5 3 -18 -27 -29 -67z" id="node14" class="node"></path>
<path style="position: relative;" d="M841 880 c-54 -8 -88 -28 -63 -37 9 -4 10 -8 2 -18 -15 -18 82 -116
149 -149 129 -66 292 -28 369 84 12 19 20 41 17 51 -5 14 1 18 22 21 43 5 33
22 -22 37 -58 15 -391 23 -474 11z m427 -45 c17 -4 32 -11 32 -14 0 -19 -158
-56 -235 -56 -79 0 -225 35 -225 54 0 17 89 26 240 25 85 0 170 -4 188 -9z" id="node15" class="node"></path>










</g>
<g transform="translate(0.000000,300.000000) scale(0.100000,-0.100000)" fill="#FFFFFF" stroke="none">

<path style="position: relative;" d="M1073 2821 c20 -10 47 -27 60 -38 12 -11 33 -26 47 -33 14 -7 71 -44
127 -81 57 -38 111 -69 120 -69 10 0 33 -9 51 -20 48 -30 50 -24 6 15 -33 29
-37 36 -24 45 12 8 10 9 -10 5 -26 -5 -59 9 -48 21 8 8 -16 34 -31 34 -6 0
-20 8 -31 18 -11 9 -30 26 -41 36 -12 10 -45 31 -74 45 -45 23 -51 24 -47 9 6
-24 -7 -23 -66 7 -28 14 -56 25 -63 24 -8 0 3 -9 24 -18z" id="node27" class="node"></path>
<path style="position: relative;" d="M665 2800 c-34 -16 -37 -19 -15 -19 14 0 34 6 44 14 29 22 63 18 100
-10 46 -35 54 -31 13 5 -41 35 -81 38 -142 10z" id="node28" class="node"></path>
<path style="position: relative;" d="M990 2761 c0 -5 13 -11 29 -14 16 -4 44 -19 63 -34 27 -24 39 -28 68
-23 l35 6 -40 8 c-22 4 -44 11 -50 16 -19 15 -86 50 -95 50 -6 0 -10 -4 -10
-9z" id="node29" class="node"></path>
<path style="position: relative;" d="M491 2675 c-72 -16 -73 -16 -63 -32 9 -14 208 -20 255 -8 18 5 27 3
27 -5 0 -8 9 -10 24 -6 17 4 28 1 33 -9 5 -8 18 -16 29 -18 11 -1 41 -15 66
-30 26 -15 50 -27 55 -27 4 1 -5 8 -20 16 -21 11 -26 19 -18 28 8 9 -12 23
-81 55 -76 36 -102 44 -167 47 -45 2 -102 -2 -140 -11z" id="node30" class="node"></path>
<path style="position: relative;" d="M1020 2605 c0 -2 30 -24 68 -49 37 -25 81 -55 97 -67 28 -21 28 -20
-5 15 -40 43 -160 119 -160 101z" id="node31" class="node"></path>
<path style="position: relative;" d="M1593 2540 c-2 -26 69 -75 122 -83 l40 -7 -44 26 c-24 13 -59 38 -78
54 -18 17 -35 30 -36 30 -2 0 -3 -9 -4 -20z" id="node32" class="node"></path>
<path style="position: relative;" d="M515 2530 c-34 -6 -63 -16 -68 -25 -4 -8 -14 -15 -21 -15 -8 0 -19
-6 -25 -14 -10 -11 -1 -10 36 3 48 18 153 36 153 26 0 -2 -8 -14 -17 -25 -10
-11 -18 -29 -19 -39 -1 -19 0 -18 38 1 29 15 51 19 89 16 41 -4 49 -3 44 10
-5 15 15 14 60 -3 16 -6 16 -4 -4 10 -17 13 -20 20 -10 25 36 23 -157 45 -256
30z" id="node33" class="node"></path>
<path style="position: relative;" d="M392 2380 c-23 -23 -51 -58 -62 -80 -30 -58 -24 -61 11 -4 17 27 47
66 67 87 48 49 37 47 -16 -3z" id="node34" class="node"></path>
<path style="position: relative;" d="M1957 2347 c3 -15 9 -30 14 -33 14 -8 10 20 -5 41 -13 18 -14 18 -9
-8z" id="node35" class="node"></path>
<path style="position: relative;" d="M1210 2335 c0 -8 -8 -15 -17 -16 -10 0 -27 -2 -38 -4 -11 -2 -80 -7
-154 -10 -77 -4 -153 -13 -179 -21 -27 -10 -79 -15 -131 -15 -47 0 -106 -2
-131 -5 -52 -6 -50 0 -54 -139 -2 -49 -7 -98 -11 -109 -4 -10 -4 -21 1 -25 11
-7 12 -76 2 -87 -5 -4 -8 -17 -8 -29 0 -13 -6 -28 -14 -34 -8 -7 -18 -27 -22
-44 -3 -17 -16 -49 -27 -70 -20 -40 -24 -77 -14 -164 3 -29 1 -55 -4 -59 -5
-3 -7 -10 -3 -15 3 -6 6 -49 5 -97 0 -48 7 -118 15 -157 16 -79 18 -125 6
-125 -12 0 -52 89 -68 151 l-14 54 5 -49 c3 -27 5 -67 5 -89 0 -32 6 -45 35
-71 32 -29 35 -37 35 -87 0 -30 5 -94 11 -144 14 -113 48 -184 138 -284 78
-89 147 -161 154 -161 2 0 19 15 38 33 l34 32 3 -30 c4 -34 19 -47 45 -39 9 3
17 1 17 -5 0 -6 9 -11 20 -11 15 0 20 -7 20 -25 0 -18 4 -23 15 -19 11 5 15
-1 15 -21 0 -15 4 -24 10 -20 6 3 24 -3 40 -15 17 -12 30 -18 30 -13 0 4 14 8
30 9 17 1 30 -2 30 -6 0 -11 51 1 85 20 17 9 40 34 51 55 21 36 22 37 33 16
15 -27 40 -27 83 3 21 14 41 20 49 16 8 -4 34 -10 59 -13 l46 -6 125 122 c121
118 135 136 182 247 26 62 28 73 37 214 5 76 11 140 13 142 2 3 14 1 27 -4 13
-5 34 -7 48 -4 34 7 106 121 121 192 12 58 14 270 3 270 -17 -1 -52 -50 -52
-73 0 -41 -10 -59 -26 -46 -15 13 -28 -11 -39 -71 -7 -42 -66 -162 -81 -167
-27 -9 -32 149 -10 254 7 34 10 65 5 70 -10 11 -49 165 -49 195 0 13 -18 46
-41 73 -64 78 -72 99 -64 171 6 56 5 63 -9 58 -12 -5 -16 0 -16 19 0 47 -12
88 -25 83 -8 -3 -15 7 -19 26 -3 16 -17 43 -31 60 -14 16 -25 40 -25 54 0 20
-5 24 -29 24 -15 0 -44 11 -63 23 -25 18 -40 22 -56 16 -12 -5 -22 -4 -22 1 0
10 -69 2 -85 -10 -14 -11 -46 -7 -72 8 -20 11 -23 10 -23 -3z m205 -605 c11
-5 54 -10 95 -12 79 -4 182 -41 215 -78 15 -17 15 -19 -7 -34 -30 -21 -47 -20
-105 6 -56 25 -73 27 -213 31 -116 3 -153 16 -148 49 7 46 97 66 163 38z
m-624 -11 c19 -7 41 -18 50 -25 9 -8 18 -12 21 -9 3 3 13 -6 23 -21 14 -22 15
-28 4 -35 -25 -15 -149 -10 -178 7 -26 15 -31 15 -103 -16 -42 -17 -86 -40
-98 -50 -26 -22 -60 -12 -60 18 0 37 99 106 137 96 11 -3 35 1 52 10 24 13 75
29 112 35 3 1 21 -4 40 -10z m489 -106 c0 -5 -28 -22 -63 -39 -52 -27 -63 -37
-70 -65 -11 -48 2 -218 19 -250 15 -31 19 -95 5 -103 -5 -3 -8 11 -8 32 1 20
-8 55 -18 77 -15 31 -19 62 -20 152 0 128 1 131 90 177 52 27 65 31 65 19z
m-332 -43 c30 -21 43 -39 48 -65 12 -65 -21 -214 -59 -267 -13 -18 -18 -37
-15 -62 2 -23 0 -35 -6 -33 -21 7 -18 69 4 99 25 34 45 107 55 201 l7 68 -47
45 c-55 50 -48 58 13 14z m515 5 c16 -3 40 -14 54 -25 14 -11 34 -20 45 -20
11 0 18 -5 15 -12 -2 -7 -16 -13 -31 -13 -15 0 -30 -6 -35 -13 -16 -26 -83
-31 -203 -17 -72 8 -85 22 -48 48 11 8 17 17 13 21 -4 4 -1 4 8 1 17 -7 89 21
89 34 0 9 25 8 93 -4z m-657 -10 c20 -8 41 -12 48 -8 6 3 8 3 4 -2 -4 -4 6
-18 23 -32 16 -14 29 -28 29 -31 0 -9 -73 -32 -100 -32 -11 0 -23 7 -26 15 -4
8 -17 15 -30 15 -16 0 -28 8 -34 23 -8 18 -9 16 -4 -12 7 -41 -14 -39 -34 3
l-14 27 -33 -25 c-42 -32 -55 -33 -55 -1 0 19 6 26 28 30 15 4 36 11 47 17 50
28 105 33 151 13z m1221 -153 c14 -50 3 -100 -28 -128 l-21 -19 8 35 c5 19 9
63 9 98 0 70 13 77 32 14z m-89 -116 c4 -20 -80 -136 -85 -119 -2 6 7 29 21
51 14 22 28 52 32 67 7 28 27 29 32 1z m-1063 -96 c-38 -75 -34 -93 20 -108
25 -7 45 -16 45 -22 0 -12 -27 -13 -34 -1 -3 5 -21 12 -40 15 -55 10 -55 61 0
133 35 47 38 41 9 -17z m390 -7 c30 -45 31 -67 5 -93 -18 -18 -50 -18 -50 1 0
4 6 6 13 3 8 -3 20 3 28 12 12 14 10 23 -14 65 -32 57 -19 66 18 12z m-323
-86 c34 -16 66 -52 55 -63 -2 -3 -17 6 -33 19 -16 13 -39 29 -51 36 -13 6 -23
16 -23 22 0 6 3 9 8 7 4 -2 24 -12 44 -21z m267 -1 c-10 -10 -139 -53 -139
-46 0 13 29 32 63 40 36 9 83 12 76 6z m404 -249 c-10 -54 -31 -107 -50 -125
-16 -16 -16 -16 -9 3 4 11 17 52 29 92 20 71 42 92 30 30z m-298 12 c55 -15
65 -32 22 -37 -21 -3 -27 -7 -22 -21 7 -22 -29 -75 -75 -112 -19 -16 -64 -36
-99 -45 -119 -30 -216 1 -316 102 -43 43 -54 59 -45 69 8 10 7 14 -2 18 -25 9
9 29 63 37 83 12 416 4 474 -11z" id="node36" class="node"></path>
<path style="position: relative;" d="M1330 1530 c-13 -9 -13 -11 0 -20 23 -15 29 -12 23 10 -3 11 -6 20
-7 20 0 0 -8 -5 -16 -10z" id="node37" class="node"></path>
<path style="position: relative;" d="M1385 1520 c2 -14 5 -28 5 -32 0 -5 15 -8 34 -8 28 0 34 4 39 25 4
24 3 24 -13 10 -24 -21 -45 -19 -59 8 -11 22 -11 22 -6 -3z" id="node38" class="node"></path>
<path style="position: relative;" d="M817 1510 c-5 -21 8 -26 32 -11 11 7 10 11 -7 20 -16 9 -21 7 -25 -9z" id="node39" class="node"></path>
<path style="position: relative;" d="M883 836 c-24 -5 -43 -13 -43 -17 0 -19 146 -54 225 -54 77 0 235 37
235 56 0 15 -72 23 -220 23 -85 1 -174 -3 -197 -8z" id="node40" class="node"></path>
<path style="position: relative;" d="M1839 2253 c14 -28 14 -99 0 -124 -6 -11 -9 -25 -7 -31 2 -6 12 5 22
26 20 42 15 101 -10 133 -14 17 -14 17 -5 -4z" id="node41" class="node"></path>
<path style="position: relative;" d="M2050 2170 c0 -5 5 -10 11 -10 5 0 7 5 4 10 -3 6 -8 10 -11 10 -2 0
-4 -4 -4 -10z" id="node42" class="node"></path>
<path style="position: relative;" d="M1976 2114 c-17 -44 8 -94 46 -94 13 0 14 7 9 33 -15 65 -42 95 -55
61z" id="node43" class="node"></path>
<path style="position: relative;" d="M1887 2054 c-4 -4 -7 -14 -7 -23 0 -11 3 -12 11 -4 6 6 10 16 7 23
-2 6 -7 8 -11 4z" id="node44" class="node"></path>
<path style="position: relative;" d="M1960 1895 c0 -30 3 -36 10 -25 7 10 12 11 18 4 4 -6 15 -13 25 -17
14 -5 17 -1 17 24 0 26 -3 29 -21 24 -14 -5 -25 -1 -34 12 -13 16 -14 14 -15
-22z" id="node45" class="node"></path>
<path style="position: relative;" d="M299 1550 c-2 -46 3 -73 21 -108 l19 -34 -6 58 c-3 33 -12 70 -19 84
l-13 25 -2 -25z" id="node46" class="node"></path>
<path style="position: relative;" d="M1938 223 c7 -3 16 -2 19 1 4 3 -2 6 -13 5 -11 0 -14 -3 -6 -6z" id="node47" class="node"></path>



</g>
</svg>