<!--?xml version="1.0" standalone="no"?--><svg version="1.0" xmlns="http://www.w3.org/2000/svg" width="263.000000pt" height="300.000000pt" viewBox="0 0 263.000000 300.000000" preserveAspectRatio="xMidYMid meet">
<metadata>
  <rdf:rdf xmlns:rdf="http://www.w3.org/1999/02/22-rdf-syntax-ns#" xmlns:rdfs="http://www.w3.org/2000/01/rdf-schema#" xmlns:dc="http://purl.org/dc/elements/1.1/">
    <rdf:description dc:title="charlie chaplin stencil" dc:publisher="Hiox" dc:date="2015-05-11" dc:format="image/svg+xml" dc:language="en">
      <dc:creator>
        <rdf:bag>
          <rdf:li>svgimages.com</rdf:li>
        </rdf:bag>
      </dc:creator>
    </rdf:description>
  </rdf:rdf>
</metadata>
<g transform="translate(0.000000,300.000000) scale(0.100000,-0.100000)" fill="#0E0E0E" stroke="none">
<path d="M1170 2859 c-186 -27 -255 -60 -336 -157 -57 -69 -156 -258 -178
-339 -3 -13 -9 -32 -12 -43 -5 -19 -1 -20 79 -20 238 0 697 -117 1335 -342
l63 -22 24 29 c25 31 56 108 75 187 7 28 11 95 8 165 -4 128 -14 157 -92 257
-62 80 -232 180 -396 233 -146 47 -430 73 -570 52z m60 -116 c0 -5 -20 -21
-45 -38 -24 -16 -45 -37 -45 -46 0 -9 -11 -19 -23 -23 -39 -9 -77 -45 -77 -72
0 -13 -5 -24 -10 -24 -18 0 -59 -51 -53 -66 3 -8 0 -14 -5 -14 -6 0 -23 -5
-38 -11 l-28 -10 32 -25 c50 -40 43 -54 -20 -38 -29 8 -65 14 -80 14 -15 0
-28 2 -28 3 0 22 46 125 75 172 80 125 170 183 283 184 34 1 62 -2 62 -6z
m836 -205 c52 -60 74 -105 84 -177 12 -87 -2 -217 -32 -298 -16 -44 -22 -51
-37 -44 -25 14 -201 71 -218 71 -29 0 -2 18 36 24 52 8 74 38 96 126 15 62 20
70 41 70 33 0 31 26 -6 100 -16 33 -30 62 -30 65 0 3 14 5 30 5 29 0 42 21 21
34 -11 7 -21 46 -12 46 4 0 16 -10 27 -22z" id="node1" class="node"></path>

<path d="M400 2267 c-96 -28 -170 -80 -191 -134 -20 -54 -1 -142 38 -175 12
-10 24 -7 67 15 57 30 66 32 66 17 0 -18 -82 -50 -127 -50 -24 0 -43 -3 -43
-6 0 -4 20 -39 45 -78 54 -87 56 -115 14 -150 l-30 -26 31 -45 c29 -42 30 -45
10 -45 -24 0 -25 -2 -3 -43 9 -18 16 -37 15 -44 -1 -6 12 -22 29 -36 30 -23
31 -27 40 -137 8 -102 33 -211 58 -259 12 -21 77 -55 91 -46 5 3 12 -11 16
-32 3 -21 15 -74 26 -118 52 -215 99 -283 272 -400 32 -22 82 -62 110 -88 73
-69 116 -103 159 -123 l37 -18 -32 -15 c-30 -15 -88 -92 -88 -118 0 -10 40
-13 186 -13 l186 0 -64 61 c-34 33 -78 67 -96 75 -29 13 -37 34 -13 34 18 0
269 138 317 174 54 40 118 125 112 150 -2 13 -13 10 -63 -14 -33 -17 -100 -42
-150 -57 -77 -24 -108 -28 -210 -28 -244 0 -412 83 -511 251 -28 47 -29 54
-29 174 0 69 4 154 9 190 6 53 4 79 -13 142 -12 43 -21 92 -21 110 0 36 27 87
68 130 21 23 25 36 24 80 -1 29 1 58 5 65 19 28 88 73 138 88 57 18 86 17 178
-9 70 -19 67 -19 67 -2 0 18 -84 79 -129 95 -71 24 -175 7 -224 -37 -33 -29
19 77 90 183 18 28 40 60 49 73 15 20 15 22 0 22 -23 0 -96 -38 -126 -65 -45
-41 -161 -114 -199 -125 -20 -5 -52 -10 -71 -9 -29 1 -25 3 27 15 53 13 73 25
135 81 40 36 90 72 111 80 50 20 34 41 -36 46 -29 2 13 3 93 2 80 -1 177 -8
215 -14 210 -33 347 -67 550 -136 244 -82 253 -87 279 -179 26 -90 89 -146
163 -146 22 0 25 -2 13 -10 -8 -5 -32 -10 -52 -10 -54 0 -111 55 -153 145 -29
64 -90 135 -115 135 -14 0 -13 -4 9 -42 20 -33 39 -118 27 -118 -4 0 -18 8
-32 17 -17 11 -54 18 -110 21 -77 4 -89 2 -139 -23 -30 -16 -55 -32 -55 -37 0
-4 42 -8 93 -8 61 0 110 -6 142 -17 55 -18 131 -87 141 -127 9 -36 24 -32 24
5 0 28 2 30 16 18 35 -29 66 -93 69 -140 2 -48 10 -69 24 -69 5 0 11 9 14 21
5 17 9 19 26 10 33 -18 53 -14 46 9 -4 14 -2 20 8 20 9 0 13 -9 12 -22 -1 -13
-3 -31 -4 -41 -1 -15 -5 -16 -21 -7 -24 13 -41 5 -33 -15 3 -9 -1 -15 -10 -15
-12 0 -13 -7 -6 -37 13 -57 11 -99 -6 -113 -19 -16 -19 -40 -1 -40 24 0 76 50
97 94 20 38 90 114 127 136 15 8 15 11 2 20 -13 9 -13 12 2 20 9 6 15 17 12
24 -3 8 7 23 22 35 15 12 24 27 21 35 -6 16 18 40 48 50 32 9 93 74 105 111
16 49 -12 99 -93 160 -54 41 -112 66 -347 145 -102 34 -194 66 -205 70 -40 17
-229 78 -470 151 -116 35 -252 60 -465 83 -301 34 -386 38 -440 23z m300 -201
c0 -6 -121 -46 -140 -46 -9 0 -25 6 -35 14 -17 12 -13 15 45 24 72 10 130 14
130 8z m1521 -442 c17 -29 19 -39 10 -57 -17 -33 -35 -61 -44 -68 -5 -3 -1
-13 7 -22 22 -21 20 -24 -14 -32 -16 -4 -30 -13 -30 -20 0 -8 -9 -17 -20 -20
-11 -3 -20 -10 -20 -15 0 -5 -7 -7 -16 -3 -12 4 -13 7 -3 14 8 4 10 11 6 15
-4 4 11 15 33 25 42 19 53 45 23 52 -15 3 -13 6 10 17 27 13 38 40 15 40 -6 0
-3 8 7 20 15 17 16 24 5 49 -6 16 -20 37 -31 47 -30 27 -22 38 10 15 16 -12
39 -37 52 -57z" id="node3" class="node"></path>
<path d="M907 1620 c-72 -28 -186 -120 -149 -120 4 0 48 16 97 36 75 31 96 36
141 31 28 -3 65 -12 82 -21 50 -26 102 -81 102 -108 0 -14 -25 -73 -55 -132
-30 -60 -52 -112 -49 -117 3 -5 13 -9 22 -9 9 0 31 -9 47 -20 17 -11 26 -20
22 -20 -4 0 -19 7 -32 16 -43 28 -64 -15 -25 -51 27 -25 25 -35 -7 -35 -17 0
-51 -18 -86 -44 -61 -47 -62 -57 -2 -72 17 -4 47 -15 68 -26 28 -14 56 -19
100 -17 34 1 90 -2 125 -6 71 -9 74 -4 47 62 -23 56 -43 73 -84 73 -31 1 -39
6 -61 40 -30 49 -29 115 3 175 18 33 22 57 22 135 0 91 -1 97 -34 147 -62 95
-179 128 -294 83z" id="node4" class="node"></path>
<path d="M1525 1550 c-42 -18 -103 -75 -93 -86 4 -3 28 4 53 15 84 37 204 25
244 -23 14 -17 41 -22 41 -8 0 16 -74 84 -112 103 -46 23 -81 23 -133 -1z" id="node5" class="node"></path>
<path d="M885 1533 c-11 -3 -32 -14 -47 -24 -14 -11 -31 -19 -37 -19 -23 0 -9
-30 29 -60 44 -35 110 -52 110 -29 0 8 9 20 20 27 13 8 20 23 20 42 0 38 6 37
53 -1 28 -23 35 -34 27 -43 -16 -21 1 -26 31 -10 16 8 29 17 29 20 0 21 -29
47 -83 73 -60 29 -103 36 -152 24z m-7 -83 c7 -11 11 -20 9 -20 -2 0 -12 9
-22 20 -10 11 -14 20 -9 20 5 0 15 -9 22 -20z" id="node6" class="node"></path>
<path d="M1490 1469 c-25 -10 -80 -57 -80 -69 0 -3 9 -16 20 -28 25 -27 55
-30 46 -5 -6 15 -5 15 13 -1 28 -25 87 -13 95 20 7 27 23 30 52 10 18 -14 18
-15 -11 -26 -16 -6 -43 -14 -58 -17 -33 -7 -18 -23 22 -23 37 0 141 31 141 42
0 11 -28 36 -87 78 -44 32 -102 39 -153 19z m70 -63 c0 -3 -4 -8 -10 -11 -5
-3 -10 -1 -10 4 0 6 5 11 10 11 6 0 10 -2 10 -4z" id="node7" class="node"></path>
<path d="M1905 1297 c-8 -20 -15 -58 -15 -84 0 -26 -7 -77 -14 -113 -8 -36
-10 -69 -6 -74 6 -5 24 2 45 18 33 26 45 51 26 58 -5 2 -6 18 -4 36 4 23 11
32 24 32 31 0 25 66 -11 119 l-30 44 -15 -36z" id="node8" class="node"></path>
<path d="M1298 1107 c-34 -28 -35 -37 -5 -37 24 1 67 32 67 49 0 18 -33 12
-62 -12z" id="node9" class="node"></path>
<path d="M973 1094 c-41 -20 -133 -154 -106 -154 5 0 32 27 61 60 30 33 67 67
83 75 59 31 22 48 -38 19z" id="node10" class="node"></path>
<path d="M1977 1049 c-14 -29 -32 -46 -65 -64 -76 -39 -97 -64 -159 -185 -73
-140 -76 -150 -59 -150 19 0 93 99 130 173 26 50 40 66 85 92 57 34 97 89 103
141 5 42 -15 38 -35 -7z" id="node11" class="node"></path>
<path d="M749 958 c-23 -85 15 -227 67 -250 13 -6 27 -9 30 -6 3 3 -9 35 -27
69 -27 53 -33 79 -37 147 -2 45 -8 82 -13 82 -4 0 -13 -19 -20 -42z" id="node12" class="node"></path>
<path d="M890 921 c0 -24 54 -49 127 -60 42 -6 85 -19 94 -27 13 -12 28 -14
56 -9 35 5 65 2 196 -21 54 -10 47 9 -20 47 -52 30 -65 33 -130 32 -61 -2 -80
2 -115 22 -36 21 -57 25 -125 25 -46 0 -83 -4 -83 -9z" id="node13" class="node"></path>
<path d="M940 839 c0 -16 58 -68 101 -90 51 -26 149 -25 207 1 66 30 53 40
-53 40 -82 0 -105 4 -170 30 -86 34 -85 34 -85 19z" id="node14" class="node"></path>
<path d="M464 673 c-125 -84 -175 -146 -154 -191 16 -36 63 -95 141 -179 71
-75 93 -122 82 -174 l-5 -29 221 0 c121 0 221 4 221 8 0 4 -28 28 -62 52 -106
74 -252 195 -302 251 -60 67 -76 106 -83 202 -3 43 -9 80 -13 82 -4 2 -24 -8
-46 -22z" id="node15" class="node"></path>






<path d="M1701 408 c-7 -68 -19 -154 -27 -191 -8 -38 -14 -79 -14 -93 l0 -24
124 0 124 0 11 44 c20 79 14 141 -19 205 -35 70 -137 181 -166 181 -19 0 -21
-10 -33 -122z" id="node22" class="node"></path>




</g>
<g transform="translate(0.000000,300.000000) scale(0.100000,-0.100000)" fill="#FFFFFF" stroke="none">

<path d="M1054 2726 c-61 -28 -118 -83 -169 -161 -29 -47 -75 -150 -75 -172 0
-1 13 -3 28 -3 15 0 51 -6 80 -14 63 -16 70 -2 20 38 l-32 25 28 10 c15 6 32
11 38 11 5 0 8 6 5 14 -6 15 35 66 53 66 5 0 10 11 10 24 0 27 38 63 77 72 12
4 23 14 23 23 0 9 21 30 45 46 25 17 45 33 45 38 0 17 -126 5 -176 -17z" id="node28" class="node"></path>
<path d="M2037 2540 c3 -11 9 -23 14 -26 21 -13 8 -34 -21 -34 -16 0 -30 -2
-30 -5 0 -3 14 -32 30 -65 37 -74 39 -100 6 -100 -21 0 -26 -8 -41 -70 -22
-88 -44 -118 -96 -126 -38 -6 -65 -24 -36 -24 17 0 193 -57 218 -71 15 -7 21
0 37 44 50 135 48 332 -5 412 -52 77 -87 107 -76 65z" id="node29" class="node"></path>

<path d="M242 2790 c0 -14 2 -19 5 -12 2 6 2 18 0 25 -3 6 -5 1 -5 -13z" id="node31" class="node"></path>
<path d="M293 2720 c0 -36 2 -50 4 -32 2 17 2 47 0 65 -2 17 -4 3 -4 -33z" id="node32" class="node"></path>
<path d="M483 2710 c0 -30 2 -43 4 -27 2 15 2 39 0 55 -2 15 -4 2 -4 -28z" id="node33" class="node"></path>

<path d="M201 2664 c0 -11 3 -14 6 -6 3 7 2 16 -1 19 -3 4 -6 -2 -5 -13z" id="node35" class="node"></path>
<path d="M570 2058 c-58 -9 -62 -12 -45 -24 10 -8 26 -14 35 -14 19 0 140 40
140 46 0 6 -58 2 -130 -8z" id="node36" class="node"></path>
<path d="M2140 1692 c0 -5 9 -17 19 -26 11 -10 25 -31 31 -47 11 -25 10 -32
-5 -49 -10 -12 -13 -20 -7 -20 23 0 12 -27 -15 -40 -23 -11 -25 -14 -10 -17
30 -7 19 -33 -23 -52 -22 -10 -37 -21 -33 -25 4 -4 2 -11 -6 -15 -10 -7 -9
-10 3 -14 9 -4 16 -2 16 3 0 5 9 12 20 15 11 3 20 12 20 20 0 7 14 16 30 20
34 8 36 11 14 32 -8 9 -12 19 -7 22 9 7 27 35 44 68 9 18 7 28 -10 57 -23 36
-81 85 -81 68z" id="node37" class="node"></path>
<path d="M865 1450 c10 -11 20 -20 22 -20 2 0 -2 9 -9 20 -7 11 -17 20 -22 20
-5 0 -1 -9 9 -20z" id="node38" class="node"></path>
<path d="M1540 1399 c0 -5 5 -7 10 -4 6 3 10 8 10 11 0 2 -4 4 -10 4 -5 0 -10
-5 -10 -11z" id="node39" class="node"></path>


<path d="M2268 283 c7 -3 16 -2 19 1 4 3 -2 6 -13 5 -11 0 -14 -3 -6 -6z" id="node42" class="node"></path>




</g>
</svg>