<!--?xml version="1.0" standalone="no"?-->

<svg version="1.0" xmlns="http://www.w3.org/2000/svg" width="300.000000pt" height="300.000000pt" viewBox="0 0 300.000000 300.000000" preserveAspectRatio="xMidYMid meet">
<g transform="translate(0.000000,300.000000) scale(0.100000,-0.100000)" fill="#0E0E10" stroke="none">
<path d="M1488 2635 c-2 -3 -42 -10 -87 -16 -63 -9 -95 -19 -138 -45 -30 -18
-98 -47 -149 -63 -52 -17 -111 -39 -132 -50 -20 -10 -57 -29 -81 -42 -62 -32
-135 -109 -167 -176 -15 -32 -44 -76 -64 -98 -28 -30 -45 -65 -70 -140 -30
-92 -32 -107 -26 -190 3 -49 11 -94 16 -99 15 -15 12 -42 -5 -56 -21 -17 -8
-32 16 -19 12 6 23 8 26 5 10 -9 -45 -84 -74 -103 -16 -10 -34 -23 -41 -30 -7
-7 -19 -13 -25 -13 -7 0 -23 -7 -35 -16 -18 -12 -20 -19 -12 -29 7 -8 9 -19 5
-25 -3 -6 3 -10 16 -10 19 0 21 -4 16 -30 -5 -21 -3 -29 6 -27 9 1 11 -20 8
-83 -3 -93 20 -248 44 -284 19 -28 36 -97 44 -176 3 -36 14 -76 23 -90 9 -14
19 -40 23 -58 4 -18 19 -44 33 -57 32 -30 58 -33 47 -7 -15 36 -17 52 -6 52 6
0 14 -7 17 -15 9 -21 21 -18 27 7 5 18 9 19 21 9 8 -7 16 -27 18 -44 2 -26 11
-36 41 -52 l39 -20 -7 -65 c-13 -128 -19 -115 55 -114 36 0 182 6 325 13 143
7 280 12 305 11 25 -1 50 -2 55 -1 6 0 126 2 268 5 253 3 258 4 283 27 29 27
48 89 39 128 -4 18 1 43 12 67 9 22 18 40 18 41 1 2 21 -6 44 -18 59 -28 73
-20 69 38 l-3 47 54 11 c39 7 56 16 62 30 13 34 10 45 -16 57 -24 11 -35 38
-16 38 5 0 23 14 40 32 50 51 37 110 -15 69 -38 -30 -74 -26 -103 10 -20 26
-22 33 -11 59 7 16 23 36 36 45 22 14 27 14 56 -1 39 -20 110 -14 138 11 26
23 26 39 1 25 -44 -23 -108 -4 -112 33 -1 7 -3 59 -5 117 -2 98 -1 107 23 143
27 38 25 60 -2 37 -12 -10 -18 -10 -29 -1 -13 11 -12 18 2 56 16 44 32 55 80
55 13 0 22 6 22 15 0 8 -8 15 -17 15 -23 0 -160 75 -191 103 -25 24 -64 88
-80 137 -11 31 -7 57 35 192 7 25 -28 120 -43 114 -32 -12 -184 -119 -184
-130 0 -6 7 -22 16 -35 13 -18 14 -27 5 -44 -14 -27 -9 -127 15 -298 l18 -127
-23 -83 c-13 -46 -28 -108 -34 -136 -6 -29 -14 -53 -19 -53 -4 0 -8 -11 -8
-24 0 -13 -6 -27 -12 -30 -10 -5 -10 -7 0 -12 6 -3 12 -10 12 -16 0 -6 -7 -5
-16 3 -13 10 -17 10 -25 -2 -5 -8 -9 -22 -9 -32 0 -14 5 -17 21 -12 28 9 21
-16 -7 -29 -20 -9 -44 -49 -44 -73 0 -7 -4 -13 -8 -13 -16 0 -35 -50 -36 -92
-1 -52 -30 -66 -46 -24 -5 14 -13 26 -18 26 -12 0 -42 -34 -42 -47 0 -13 -57
-63 -63 -56 -3 3 -12 1 -19 -3 -14 -9 -25 -11 -118 -23 -53 -7 -70 -6 -90 7
-14 9 -38 17 -53 18 -15 1 -45 13 -65 28 -21 14 -43 26 -49 26 -19 0 -23 15
-11 46 15 40 94 64 204 64 71 0 83 3 102 23 12 12 18 27 14 34 -4 6 -41 15
-82 19 -41 4 -85 11 -97 15 -24 9 -30 38 -12 56 15 15 198 4 226 -13 34 -21
73 -18 73 6 0 11 -3 20 -7 20 -5 0 -8 15 -8 32 0 18 -4 33 -10 33 -5 0 -9 -12
-9 -27 2 -33 -1 -34 -58 -10 -24 10 -72 25 -108 32 -78 15 -86 21 -69 49 11
16 11 27 2 52 -8 21 -9 38 -3 50 6 10 10 28 10 40 0 21 1 21 18 6 22 -20 43
-22 61 -4 6 6 33 12 59 12 43 0 47 2 47 25 0 22 -4 25 -35 23 -19 -1 -50 -5
-68 -8 -22 -5 -40 -2 -57 9 -49 32 -135 14 -135 -29 0 -14 -4 -25 -10 -25 -5
0 -10 5 -10 10 0 15 -17 12 -24 -5 -8 -22 22 -45 60 -45 22 0 34 -5 34 -14 0
-26 -39 -63 -82 -75 -62 -19 -138 -53 -138 -63 0 -21 -28 -4 -54 33 l-29 41
29 -4 c25 -3 29 1 32 26 6 47 -6 73 -42 96 -19 11 -38 30 -41 40 -4 11 -12 20
-18 20 -12 0 -36 33 -73 97 -17 31 -17 34 -1 50 13 13 35 18 92 18 68 1 76 3
95 28 13 16 31 27 46 27 13 0 24 6 24 13 0 6 12 20 26 30 20 15 30 17 58 7 18
-6 40 -8 49 -4 20 7 22 -8 6 -35 -17 -26 9 -83 33 -75 10 3 18 1 18 -5 0 -18
27 -12 35 7 10 23 6 84 -7 99 -11 14 -13 71 -3 103 8 24 -14 54 -55 75 -14 7
-65 16 -115 20 -49 3 -109 11 -133 16 -38 8 -50 6 -90 -15 -26 -13 -59 -27
-73 -30 -26 -6 -26 -5 -18 38 17 94 32 114 111 150 115 53 184 73 313 90 66 9
133 19 149 21 16 3 68 1 115 -5 196 -24 255 -43 318 -103 l32 -30 61 39 c33
21 81 54 106 73 42 30 45 36 40 66 -4 18 -19 59 -35 91 -15 33 -30 65 -32 72
-3 8 -43 47 -89 88 -96 84 -213 147 -305 164 -33 7 -78 16 -100 21 -43 9 -189
12 -197 4z m172 -199 c-5 -15 -5 -27 3 -35 14 -14 10 -17 -40 -24 -44 -5 -56
5 -26 22 17 9 16 11 -1 30 -19 21 -19 21 11 15 18 -3 33 -1 37 5 13 21 26 11
16 -13z m648 -1786 c7 -11 8 -20 2 -20 -5 0 -14 9 -20 20 -6 11 -7 20 -3 20 5
0 14 -9 21 -20z" id="node1" class="node"></path>
<path d="M1795 1853 c-114 -4 -121 -5 -148 -31 -22 -21 -27 -34 -25 -61 2 -19
10 -37 18 -41 8 -4 25 -12 37 -18 15 -8 30 -9 48 -2 39 15 53 12 60 -10 7 -24
52 -37 68 -21 19 19 35 12 45 -18 9 -25 16 -29 46 -29 19 0 40 6 47 14 16 19
-21 76 -69 106 l-37 23 34 3 c24 2 37 -1 43 -12 16 -28 45 -19 52 16 5 26 2
37 -16 54 -29 27 -53 31 -203 27z" id="node2" class="node"></path>
<path d="M1600 1281 c0 -11 11 -33 24 -48 19 -22 27 -25 37 -16 9 9 7 20 -11
47 -24 39 -50 48 -50 17z" id="node3" class="node"></path>
<path d="M1760 1150 c0 -5 9 -18 21 -29 11 -10 19 -27 18 -37 -4 -27 10 -94
20 -94 37 0 37 89 1 141 -20 27 -60 40 -60 19z" id="node4" class="node"></path>
</g>
<g transform="translate(0.000000,300.000000) scale(0.100000,-0.100000)" fill="#A1A1A1" stroke="none">

<path d="M1644 2449 c-4 -6 -19 -8 -37 -5 -30 6 -30 6 -11 -15 17 -19 18 -21
1 -30 -30 -17 -18 -27 26 -22 50 7 54 10 40 24 -8 8 -8 20 -3 35 10 24 -3 34
-16 13z" id="node6" class="node"></path>
<path d="M2290 650 c6 -11 15 -20 20 -20 6 0 5 9 -2 20 -7 11 -16 20 -21 20
-4 0 -3 -9 3 -20z" id="node7" class="node"></path>
</g>
</svg>