<!--?xml version="1.0" standalone="no"?--><svg version="1.0" xmlns="http://www.w3.org/2000/svg" width="182.000000pt" height="300.000000pt" viewBox="0 0 182.000000 300.000000" preserveAspectRatio="xMidYMid meet">
<metadata>
  <rdf:rdf xmlns:rdf="http://www.w3.org/1999/02/22-rdf-syntax-ns#" xmlns:rdfs="http://www.w3.org/2000/01/rdf-schema#" xmlns:dc="http://purl.org/dc/elements/1.1/">
    <rdf:description dc:title="cristiano ronaldo stencil" dc:publisher="Hiox" dc:date="2015-05-11" dc:format="image/svg+xml" dc:language="en">
      <dc:creator>
        <rdf:bag>
          <rdf:li>svgimages.com</rdf:li>
        </rdf:bag>
      </dc:creator>
    </rdf:description>
  </rdf:rdf>
</metadata>
<g transform="translate(0.000000,300.000000) scale(0.100000,-0.100000)" fill="#292526" stroke="none">
<path d="M604 2956 c-38 -54 -146 -187 -149 -184 -2 2 1 23 5 48 19 98 5 133
-19 47 -7 -24 -21 -49 -32 -55 -24 -15 -25 -4 -4 53 17 49 19 68 3 63 -6 -2
-18 -26 -26 -53 -13 -48 -14 -49 -26 -26 -13 23 -13 23 -20 -15 -10 -53 -44
-127 -45 -97 -1 12 3 33 9 47 5 15 6 36 1 48 -7 19 -9 15 -15 -26 -12 -78 -19
-86 -32 -41 l-11 40 -8 -60 c-13 -108 -33 -156 -106 -260 -39 -55 -74 -102
-79 -105 -5 -3 -11 -32 -13 -63 -2 -31 -9 -63 -15 -69 -16 -16 -15 -23 4 -64
14 -30 15 -39 4 -62 -8 -15 -14 -72 -16 -132 -1 -58 -6 -146 -10 -196 -4 -61
-3 -97 5 -110 9 -16 10 -14 5 12 -8 43 4 46 51 15 39 -26 40 -26 14 -29 -39
-5 -44 -37 -12 -78 21 -28 24 -40 19 -71 -32 -184 -18 -243 133 -553 36 -74
81 -175 102 -225 28 -68 44 -95 69 -112 42 -29 92 -43 156 -43 29 0 56 -5 61
-12 18 -24 112 -348 128 -443 9 -52 37 -89 89 -120 77 -45 216 -31 346 35 127
65 374 281 550 483 113 130 111 121 52 205 -119 167 -219 386 -167 366 18 -7
20 17 3 34 -10 10 -10 15 1 21 7 5 10 14 6 20 -4 7 1 23 10 37 16 25 16 25 -7
22 -14 -2 -22 2 -20 10 1 6 3 17 5 24 1 7 -7 12 -18 13 -18 0 -20 6 -18 50 1
31 12 72 29 108 23 47 31 56 47 51 18 -6 19 -3 13 35 -7 48 2 123 15 115 5 -3
9 24 9 60 0 36 5 68 10 71 13 8 13 52 -2 115 -10 43 -9 53 3 60 12 8 12 13 -2
37 -21 36 -33 87 -19 78 15 -9 12 17 -5 39 -12 15 -12 22 -3 27 9 6 7 20 -9
58 -14 34 -17 51 -9 54 8 3 7 8 -2 20 -8 9 -11 25 -7 36 3 10 1 22 -5 26 -16
10 -12 23 12 31 20 6 19 8 -14 25 -37 19 -55 45 -36 51 7 3 5 15 -6 35 -9 18
-13 38 -10 47 4 10 -2 15 -17 18 -31 4 -36 25 -7 31 20 3 19 5 -10 12 -41 10
-33 18 41 39 61 18 81 43 25 32 -18 -4 -50 -9 -71 -13 l-39 -6 21 39 c12 21
28 49 37 62 30 41 -8 26 -49 -20 -37 -41 -38 -42 -32 -15 5 26 4 27 -16 16
l-22 -11 23 31 c24 34 21 52 -5 31 -9 -7 -42 -15 -73 -16 -31 -2 -51 -1 -44 2
6 3 10 10 6 15 -3 5 17 9 45 9 70 0 73 17 4 25 -87 10 -93 15 -43 32 71 24 73
36 5 28 l-60 -7 28 29 c42 45 33 58 -17 23 -51 -35 -67 -39 -41 -10 24 26 13
36 -17 17 -23 -15 -120 -37 -164 -37 -19 0 -24 7 -30 46 -5 34 -9 42 -15 31
-8 -13 -80 -57 -94 -57 -3 0 -5 7 -5 15 0 18 -14 19 -42 4 -28 -15 -47 4 -30
31 26 41 -10 29 -63 -23 -42 -40 -58 -51 -66 -41 -7 8 -6 14 3 17 8 3 5 6 -6
6 -10 1 -35 -9 -54 -21 -34 -21 -35 -21 -28 -2 11 29 19 74 13 74 -3 0 -20
-25 -37 -55 -17 -30 -33 -55 -35 -55 -2 0 5 26 16 57 23 67 20 87 -7 49z m116
-79 c0 -2 -13 -13 -30 -25 -16 -13 -30 -19 -30 -15 0 5 12 16 28 25 28 18 32
20 32 15z m-106 -683 c3 -9 6 -24 6 -33 0 -23 28 -48 86 -76 27 -13 42 -25 35
-29 -16 -10 -14 -26 4 -26 9 0 15 -9 15 -24 0 -13 7 -29 15 -36 8 -7 15 -21
15 -31 0 -44 93 -96 125 -69 9 8 14 8 17 0 2 -7 19 -15 37 -19 30 -6 36 -13
51 -57 25 -72 48 -114 65 -114 9 0 16 -16 21 -46 5 -33 12 -48 28 -54 11 -5
17 -9 12 -9 -5 -1 -3 -8 5 -17 7 -9 12 -31 11 -50 -2 -19 2 -34 8 -34 6 0 8 5
5 10 -3 6 -1 10 4 10 6 0 11 -4 11 -10 0 -5 12 -10 28 -10 18 0 23 3 14 9 -8
5 -11 21 -8 47 2 21 5 56 5 78 1 33 10 47 74 113 84 88 128 113 194 113 64 0
89 -19 109 -85 17 -52 17 -58 0 -111 -10 -31 -35 -92 -56 -135 -56 -116 -61
-197 -22 -314 6 -16 23 -68 37 -115 31 -98 73 -179 156 -302 32 -48 59 -91 59
-96 0 -18 -188 -228 -294 -329 -212 -203 -359 -292 -493 -301 -39 -2 -87 -2
-106 2 -52 10 -102 64 -117 128 -7 29 -40 137 -75 241 -35 103 -59 187 -55
187 5 0 15 3 24 6 12 4 22 -16 47 -98 37 -120 70 -176 119 -200 42 -21 140
-33 159 -20 7 5 15 31 18 58 7 81 11 91 43 104 37 15 80 48 80 61 0 5 -18 0
-40 -11 -47 -24 -50 -24 -50 -6 0 18 58 75 88 87 25 10 30 29 7 29 -9 0 -29
-7 -45 -15 -40 -21 -164 -65 -182 -65 -8 0 -23 9 -32 19 -17 18 -16 19 17 30
22 8 44 26 61 51 15 22 33 40 41 40 8 0 15 6 15 14 0 16 36 32 60 27 8 -2 12
1 7 5 -7 8 20 44 34 44 11 0 59 41 59 50 0 4 -15 4 -32 2 l-33 -5 59 64 c74
79 117 139 110 150 -8 14 -40 11 -53 -5 -7 -8 -27 -12 -54 -11 -60 4 -79 -7
-120 -63 -23 -31 -54 -58 -84 -73 -27 -13 -75 -49 -108 -80 -33 -30 -80 -67
-105 -82 -92 -53 -262 -74 -329 -39 -35 18 -81 87 -81 121 0 11 -4 21 -8 23
-5 2 -22 30 -38 63 -17 33 -56 110 -86 170 -100 197 -131 321 -111 445 7 40
13 54 24 51 8 -2 21 -5 29 -8 8 -2 26 6 39 19 16 15 26 18 29 10 8 -24 22 0
22 38 0 28 -9 48 -32 78 -18 23 -40 41 -49 41 -8 1 -26 12 -38 25 -12 13 -37
31 -55 41 l-33 18 3 131 c4 153 8 178 41 229 20 31 28 37 46 31 12 -4 26 -13
30 -20 4 -8 14 -14 22 -14 7 0 15 -4 17 -10 2 -5 21 -11 43 -13 22 -1 45 -6
51 -10 6 -3 20 3 30 14 11 12 24 17 33 13 29 -12 66 -4 83 19 10 12 18 16 18
9 0 -14 45 -7 68 11 7 6 12 6 12 0 0 -13 38 -9 52 5 16 16 25 15 32 -4z m-407
-576 c31 -29 29 -35 -10 -40 -32 -3 -33 -2 -33 29 1 39 11 41 43 11z m-91 -55
c-10 -10 -19 5 -10 18 6 11 8 11 12 0 2 -7 1 -15 -2 -18z m672 -994 c13 -28
43 -71 68 -96 48 -51 51 -62 7 -40 -37 20 -64 50 -102 115 -36 61 -38 72 -13
72 11 0 25 -18 40 -51z" id="node1" class="node" stroke-width="20"></path>
<path d="M588 1783 c-10 -9 -27 -18 -40 -19 -13 -1 -58 -6 -101 -10 -84 -8
-111 -22 -121 -64 -4 -19 1 -33 18 -51 12 -13 21 -30 18 -37 -2 -6 3 -12 12
-12 9 0 15 -6 13 -12 -1 -7 4 -12 12 -10 7 1 19 -3 27 -9 11 -9 14 -7 14 12 0
16 3 20 8 11 5 -7 16 -10 25 -6 10 4 19 0 23 -9 8 -23 60 -28 107 -11 23 9 53
17 67 18 14 2 33 4 43 4 9 1 17 8 17 16 0 17 37 28 44 12 3 -8 7 -7 14 2 5 7
16 10 25 6 10 -3 17 -1 17 5 0 6 -10 11 -23 11 -13 0 -28 5 -35 12 -7 7 -12 9
-12 6 0 -3 -26 0 -57 8 -32 7 -76 13 -98 14 -29 0 -44 6 -52 20 -12 17 -9 20
22 26 20 3 83 3 141 -1 86 -6 106 -5 102 6 -3 8 -18 16 -34 20 -16 3 -58 18
-93 33 -76 31 -82 31 -103 9z m51 -162 c11 -7 5 -13 -24 -25 -20 -9 -39 -16
-40 -16 -1 0 0 11 3 25 5 26 33 34 61 16z" id="node2" class="node"></path>
<path d="M1427 1772 c-32 -33 -35 -52 -7 -52 11 0 20 -7 20 -15 0 -11 -7 -14
-25 -9 -22 5 -25 3 -25 -22 l-1 -29 -20 28 c-26 34 -47 35 -55 3 -7 -30 1 -46
26 -46 10 0 20 -6 23 -13 6 -17 -3 -68 -15 -84 -11 -13 -2 -53 12 -53 5 0 18
14 30 30 12 17 30 30 41 30 25 0 24 12 -2 36 -11 10 -26 28 -31 39 -8 15 -3
13 19 -8 29 -27 30 -27 46 -9 12 13 15 28 11 49 -8 41 11 75 39 71 20 -3 22
-10 25 -78 3 -76 3 -76 -34 -113 -41 -41 -39 -62 3 -31 40 30 68 91 69 154 1
30 5 62 8 70 3 8 -3 30 -14 48 -18 29 -24 32 -68 32 -40 0 -53 -5 -75 -28z" id="node3" class="node"></path>
<path d="M221 1524 c0 -11 3 -14 6 -6 3 7 2 16 -1 19 -3 4 -6 -2 -5 -13z" id="node4" class="node"></path>
<path d="M202 1450 c0 -14 2 -19 5 -12 2 6 2 18 0 25 -3 6 -5 1 -5 -13z" id="node5" class="node"></path>
<path d="M1170 1450 c0 -5 5 -10 11 -10 5 0 7 5 4 10 -3 6 -8 10 -11 10 -2 0
-4 -4 -4 -10z" id="node6" class="node"></path>
<path d="M1312 1448 c-19 -24 -25 -88 -12 -129 14 -41 44 -59 73 -42 24 13
109 127 98 131 -6 2 -31 -13 -57 -32 -74 -57 -101 -44 -88 41 7 45 4 52 -14
31z" id="node7" class="node"></path>
<path d="M1210 1444 c0 -3 7 -12 15 -20 16 -17 18 -14 9 10 -6 15 -24 23 -24
10z" id="node8" class="node"></path>
<path d="M1340 1388 c0 -13 7 -18 28 -17 21 1 22 2 7 6 -11 3 -23 10 -27 17
-5 7 -8 5 -8 -6z" id="node9" class="node"></path>
<path d="M1210 1360 c0 -5 5 -10 10 -10 6 0 10 5 10 10 0 6 -4 10 -10 10 -5 0
-10 -4 -10 -10z" id="node10" class="node"></path>
<path d="M395 1350 c-9 -15 3 -30 24 -30 21 0 51 -30 51 -52 0 -22 -24 -29
-70 -22 -23 4 -60 0 -95 -10 -61 -18 -113 -14 -122 10 -3 8 -9 11 -14 8 -5 -3
-2 -16 7 -29 9 -14 13 -33 9 -45 -8 -25 6 -26 22 -1 15 24 53 17 53 -10 0 -12
11 -24 27 -30 24 -9 31 -6 60 24 21 23 45 37 70 41 60 11 72 16 83 36 17 31
-7 78 -51 100 -44 23 -46 23 -54 10z" id="node11" class="node"></path>
<path d="M626 1215 c4 -8 10 -15 15 -15 17 0 70 -58 79 -87 l8 -28 1 27 c1 20
-12 41 -43 73 -45 45 -70 58 -60 30z" id="node12" class="node"></path>
<path d="M620 1100 c-8 -5 -44 -10 -80 -11 -100 -1 -234 -24 -277 -48 -13 -6
-23 -19 -23 -27 0 -13 11 -14 73 -9 39 4 96 15 125 26 29 10 65 19 79 19 26 0
26 0 8 -21 -19 -20 -19 -20 5 -10 14 5 44 19 68 31 23 11 55 25 70 31 25 10
26 12 7 19 -27 11 -37 11 -55 0z" id="node13" class="node"></path>
<path d="M1190 1071 c0 -11 -6 -21 -12 -24 -7 -2 -9 -8 -5 -13 4 -5 13 -2 18
6 8 11 8 8 3 -10 -6 -23 -6 -24 12 -10 23 18 34 32 34 45 0 5 -5 4 -12 -3 -18
-18 -31 -14 -25 8 3 11 1 20 -4 20 -5 0 -9 -9 -9 -19z" id="node14" class="node"></path>
<path d="M509 982 c-62 -51 -185 -82 -204 -52 -3 6 -11 10 -18 10 -6 0 7 -17
29 -37 53 -51 108 -52 179 -3 41 28 46 35 30 40 -16 5 -12 10 20 26 21 10 40
24 42 29 7 22 -45 13 -78 -13z" id="node15" class="node"></path>
<path d="M1100 720 c0 -11 5 -20 10 -20 6 0 10 9 10 20 0 11 -4 20 -10 20 -5
0 -10 -9 -10 -20z" id="node16" class="node"></path>
<path d="M1030 690 c0 -5 5 -10 10 -10 6 0 10 5 10 10 0 6 -4 10 -10 10 -5 0
-10 -4 -10 -10z" id="node17" class="node"></path>
<path d="M1095 670 c-3 -5 -1 -10 4 -10 6 0 11 5 11 10 0 6 -2 10 -4 10 -3 0
-8 -4 -11 -10z" id="node18" class="node"></path>
</g>
<g transform="translate(0.000000,300.000000) scale(0.100000,-0.100000)" fill="#FFFFFF" stroke="none">

<path d="M688 2862 c-16 -9 -28 -20 -28 -25 0 -4 14 2 30 15 26 19 36 29 28
28 -2 0 -15 -8 -30 -18z" id="node20" class="node"></path>
<path d="M582 2198 c-14 -14 -52 -18 -52 -5 0 6 -5 6 -12 0 -23 -18 -68 -25
-68 -11 0 7 -8 3 -18 -9 -17 -23 -54 -31 -83 -19 -9 4 -22 -1 -33 -13 -10 -11
-24 -17 -30 -14 -6 4 -29 9 -51 10 -22 2 -41 8 -43 13 -2 6 -10 10 -17 10 -8
0 -18 6 -22 14 -4 7 -18 16 -30 20 -18 6 -26 0 -46 -31 -33 -51 -37 -76 -41
-229 l-3 -131 33 -18 c18 -10 43 -28 55 -41 12 -13 30 -24 38 -25 9 0 31 -18
49 -41 23 -30 32 -50 32 -78 0 -38 -14 -62 -22 -38 -3 8 -13 5 -29 -10 -13
-13 -31 -21 -39 -19 -8 3 -21 6 -29 8 -11 3 -17 -11 -24 -51 -20 -124 11 -248
111 -445 30 -60 69 -137 86 -170 16 -33 33 -61 38 -63 4 -2 8 -12 8 -23 0 -34
46 -103 81 -121 67 -35 237 -14 329 39 25 15 72 52 105 82 33 31 81 67 108 80
30 15 61 42 84 73 41 56 60 67 120 63 27 -1 47 3 54 11 13 16 45 19 53 5 7
-11 -36 -71 -110 -150 l-59 -64 33 5 c17 2 32 2 32 -2 0 -9 -48 -50 -59 -50
-14 0 -41 -36 -34 -44 5 -4 1 -7 -7 -5 -24 5 -60 -11 -60 -27 0 -8 -7 -14 -15
-14 -8 0 -26 -18 -41 -40 -17 -25 -39 -43 -61 -51 -33 -11 -34 -12 -17 -30 9
-10 24 -19 32 -19 18 0 142 44 182 65 16 8 36 15 45 15 23 0 18 -19 -7 -29
-30 -12 -88 -69 -88 -87 0 -18 3 -18 50 6 22 11 40 16 40 11 0 -13 -43 -46
-80 -61 -32 -13 -36 -23 -43 -104 -3 -27 -11 -53 -18 -58 -19 -13 -117 -1
-159 20 -49 24 -82 80 -119 200 -25 82 -35 102 -47 98 -9 -3 -19 -6 -24 -6 -4
0 20 -84 55 -187 35 -104 68 -212 75 -241 15 -64 65 -118 117 -128 19 -4 67
-4 106 -2 134 9 281 98 493 301 106 101 294 311 294 329 0 5 -27 48 -59 96
-83 123 -125 204 -156 302 -14 47 -31 99 -37 115 -39 117 -34 198 22 314 21
43 46 104 56 135 17 53 17 59 0 111 -20 66 -45 85 -109 85 -66 0 -110 -25
-194 -113 -64 -66 -73 -80 -74 -113 0 -22 -3 -57 -5 -78 -3 -26 0 -42 8 -47 9
-6 4 -9 -14 -9 -16 0 -28 5 -28 10 0 6 -5 10 -11 10 -5 0 -7 -4 -4 -10 3 -5 1
-10 -5 -10 -6 0 -10 15 -8 34 1 19 -4 41 -11 50 -8 9 -10 16 -5 17 5 0 -1 4
-12 9 -16 6 -23 21 -28 54 -5 30 -12 46 -21 46 -17 0 -40 42 -65 114 -15 44
-21 51 -51 57 -18 4 -35 12 -37 19 -3 8 -8 8 -17 0 -32 -27 -125 25 -125 69 0
10 -7 24 -15 31 -8 7 -15 23 -15 36 0 15 -6 24 -15 24 -18 0 -20 16 -4 26 7 4
-8 16 -35 29 -58 28 -86 53 -86 76 0 23 -10 49 -19 49 -4 0 -12 -5 -19 -12z
m109 -424 c35 -15 77 -30 93 -33 16 -4 31 -12 34 -20 4 -11 -16 -12 -102 -6
-58 4 -121 4 -141 1 -31 -6 -34 -9 -22 -26 8 -14 23 -20 52 -20 22 -1 66 -7
98 -14 31 -8 57 -11 57 -8 0 3 5 1 12 -6 7 -7 22 -12 35 -12 13 0 23 -5 23
-11 0 -6 -7 -8 -17 -5 -9 4 -20 1 -25 -6 -7 -9 -11 -10 -14 -2 -7 16 -44 5
-44 -12 0 -8 -8 -15 -17 -16 -10 0 -29 -2 -43 -4 -14 -1 -44 -9 -67 -18 -47
-17 -99 -12 -107 11 -4 9 -13 13 -23 9 -9 -4 -20 -1 -25 6 -5 9 -8 5 -8 -11 0
-19 -3 -21 -14 -12 -8 6 -20 10 -27 9 -8 -2 -13 3 -12 10 2 6 -4 12 -13 12 -9
0 -14 6 -12 12 3 7 -6 24 -18 37 -17 18 -22 32 -18 51 10 42 37 56 121 64 43
4 88 9 101 10 13 1 30 10 40 19 21 22 27 22 103 -9z m879 -6 c11 -18 17 -40
14 -48 -3 -8 -7 -40 -8 -70 -1 -63 -29 -124 -69 -154 -42 -31 -44 -10 -3 31
37 37 37 37 34 113 -3 68 -5 75 -25 78 -28 4 -47 -30 -39 -71 4 -21 1 -36 -11
-49 -16 -18 -17 -18 -46 9 -22 21 -27 23 -19 8 5 -11 20 -29 31 -39 26 -24 27
-36 2 -36 -11 0 -29 -13 -41 -30 -12 -16 -25 -30 -30 -30 -14 0 -23 40 -12 53
12 16 21 67 15 84 -3 7 -13 13 -23 13 -25 0 -33 16 -26 46 8 32 29 31 55 -3
l20 -28 1 29 c0 25 3 27 25 22 18 -5 25 -2 25 9 0 8 -9 15 -20 15 -28 0 -25
19 7 52 22 23 35 28 75 28 44 0 50 -3 68 -32z m-1343 -250 c-3 -8 -6 -5 -6 6
-1 11 2 17 5 13 3 -3 4 -12 1 -19z m-20 -80 c-3 -7 -5 -2 -5 12 0 14 2 19 5
13 2 -7 2 -19 0 -25z m978 12 c3 -5 1 -10 -4 -10 -6 0 -11 5 -11 10 0 6 2 10
4 10 3 0 8 -4 11 -10z m141 -33 c-13 -85 14 -98 88 -41 26 19 51 34 57 32 11
-4 -74 -118 -98 -131 -29 -17 -59 1 -73 42 -13 41 -7 105 12 129 18 21 21 14
14 -31z m-92 17 c9 -24 7 -27 -9 -10 -17 17 -19 26 -6 26 5 0 12 -7 15 -16z
m141 -57 c15 -4 14 -5 -7 -6 -21 -1 -28 4 -28 17 0 11 3 13 8 6 4 -7 16 -14
27 -17z m-145 -17 c0 -5 -4 -10 -10 -10 -5 0 -10 5 -10 10 0 6 5 10 10 10 6 0
10 -4 10 -10z m-781 -20 c44 -22 68 -69 51 -100 -11 -20 -23 -25 -83 -36 -25
-4 -49 -18 -70 -41 -29 -30 -36 -33 -60 -24 -16 6 -27 18 -27 30 0 27 -38 34
-53 10 -16 -25 -30 -24 -22 1 4 12 0 31 -9 45 -9 13 -12 26 -7 29 5 3 11 0 14
-8 9 -24 61 -28 122 -10 35 10 72 14 95 10 46 -7 70 0 70 22 0 22 -30 52 -51
52 -21 0 -33 15 -24 30 8 13 10 13 54 -10z m237 -155 c31 -32 44 -53 43 -73
l-1 -27 -8 28 c-9 29 -62 87 -79 87 -5 0 -11 7 -15 15 -10 28 15 15 60 -30z
m-11 -85 c19 -7 18 -9 -7 -19 -15 -6 -47 -20 -70 -31 -24 -12 -54 -26 -68 -31
-24 -10 -24 -10 -5 10 18 21 18 21 -8 21 -14 0 -50 -9 -79 -19 -29 -11 -86
-22 -125 -26 -62 -5 -73 -4 -73 9 0 8 10 21 23 27 43 24 177 47 277 48 36 1
72 6 80 11 18 11 28 11 55 0z m528 -30 c-6 -22 7 -26 25 -8 7 7 12 8 12 3 0
-13 -11 -27 -34 -45 -18 -14 -18 -13 -12 10 5 18 5 21 -3 10 -5 -8 -14 -11
-18 -6 -4 5 -2 11 5 13 6 3 12 13 12 24 0 10 4 19 9 19 5 0 7 -9 4 -20z m-616
-75 c-2 -5 -21 -19 -42 -29 -32 -16 -36 -21 -20 -26 16 -5 11 -12 -30 -40 -71
-49 -126 -48 -179 3 -22 20 -35 37 -29 37 7 0 15 -4 18 -10 19 -30 142 1 204
52 33 26 85 35 78 13z m533 -275 c0 -11 -4 -20 -10 -20 -5 0 -10 9 -10 20 0
11 5 20 10 20 6 0 10 -9 10 -20z m-70 -30 c0 -5 -4 -10 -10 -10 -5 0 -10 5
-10 10 0 6 5 10 10 10 6 0 10 -4 10 -10z m60 -20 c0 -5 -5 -10 -11 -10 -5 0
-7 5 -4 10 3 6 8 10 11 10 2 0 4 -4 4 -10z" id="node21" class="node"></path>
<path d="M578 1605 c-3 -14 -4 -25 -3 -25 1 0 20 7 40 16 29 12 35 18 24 25
-28 18 -56 10 -61 -16z" id="node22" class="node"></path>

<path d="M164 1607 c0 -31 1 -32 33 -29 39 5 41 11 10 40 -32 30 -42 28 -43
-11z" id="node24" class="node"></path>
<path d="M106 1581 c-4 -7 -5 -15 -2 -18 9 -9 19 4 14 18 -4 11 -6 11 -12 0z" id="node25" class="node"></path>

<path d="M730 610 c0 -14 59 -112 83 -138 23 -25 76 -56 83 -49 2 2 -16 24
-40 50 -25 25 -55 68 -68 96 -15 33 -29 51 -40 51 -10 0 -18 -4 -18 -10z" id="node27" class="node"></path>
</g>
</svg>