<!--?xml version="1.0" standalone="no"?--><svg version="1.0" xmlns="http://www.w3.org/2000/svg" width="300.000000pt" height="300.000000pt" viewBox="0 0 300.000000 300.000000" preserveAspectRatio="xMidYMid meet">
<metadata>
  <rdf:rdf xmlns:rdf="http://www.w3.org/1999/02/22-rdf-syntax-ns#" xmlns:rdfs="http://www.w3.org/2000/01/rdf-schema#" xmlns:dc="http://purl.org/dc/elements/1.1/">
    <rdf:description dc:title="elizabeth taylor stencil" dc:publisher="Hiox" dc:date="2015-05-11" dc:format="image/svg+xml" dc:language="en">
      <dc:creator>
        <rdf:bag>
          <rdf:li>svgimages.com</rdf:li>
        </rdf:bag>
      </dc:creator>
    </rdf:description>
  </rdf:rdf>
</metadata>
<g transform="translate(0.000000,300.000000) scale(0.100000,-0.100000)" fill="#060606" stroke="none">

<path d="M1305 2823 c-239 -53 -322 -82 -394 -135 -13 -10 -32 -18 -42 -18
-23 0 -77 -69 -115 -145 -18 -36 -53 -83 -91 -120 -79 -77 -131 -175 -115
-218 7 -19 8 -37 1 -53 -13 -36 -11 -64 5 -64 24 0 26 -69 3 -133 -11 -33 -26
-61 -34 -64 -7 -3 -13 -13 -13 -22 0 -37 -29 -61 -76 -61 -50 0 -58 16 -22 50
34 31 13 35 -36 6 -117 -68 -121 -149 -21 -361 29 -60 61 -135 70 -165 28 -85
59 -152 89 -187 30 -35 56 -43 56 -17 0 25 24 10 35 -21 8 -23 7 -30 -9 -39
-48 -29 -106 -78 -106 -91 0 -21 57 -64 96 -71 35 -6 83 -2 117 11 14 6 17 1
17 -30 0 -49 35 -109 76 -131 40 -22 52 -13 30 21 -18 27 -11 31 26 15 13 -5
42 -14 65 -20 24 -6 42 -16 40 -23 -1 -7 17 -14 48 -18 28 -4 66 -10 86 -14
29 -6 40 -3 64 17 l28 25 -52 89 c-29 49 -62 103 -73 119 -42 64 -123 214
-164 306 -34 76 -44 112 -49 175 -6 79 2 113 24 99 7 -4 16 -18 21 -31 7 -17
18 -24 37 -25 26 0 44 -3 68 -10 16 -4 85 13 85 21 0 4 -21 12 -46 16 -55 11
-77 35 -52 60 15 15 17 14 30 -12 7 -17 23 -30 36 -32 20 -3 22 0 16 23 -6 25
-5 26 15 16 12 -7 30 -10 39 -7 10 4 35 -3 57 -14 48 -24 69 -26 61 -4 -3 9
-6 28 -6 44 0 27 -2 29 -72 40 -40 7 -78 16 -84 21 -6 5 -28 7 -50 5 -21 -2
-45 1 -51 7 -7 5 -14 6 -14 1 -1 -5 -2 -13 -3 -19 -3 -21 -54 -21 -63 1 -10
25 20 45 78 50 44 5 64 1 109 -20 84 -40 122 -33 99 17 -15 32 -38 42 -147 62
l-90 17 25 60 c51 127 48 183 -16 242 -42 40 -40 72 5 125 60 70 100 84 239
88 200 4 298 10 330 20 17 6 59 11 95 12 58 2 70 -1 113 -30 33 -21 55 -46 67
-73 40 -90 69 -163 79 -200 6 -22 33 -76 61 -122 70 -114 92 -181 92 -279 1
-72 -3 -89 -40 -170 -38 -84 -68 -197 -57 -215 3 -5 14 -6 25 -3 17 4 20 0 20
-24 0 -40 -36 -142 -59 -168 -10 -11 -37 -49 -61 -85 -24 -36 -59 -78 -79 -95
-19 -16 -71 -64 -116 -105 -44 -42 -94 -86 -112 -98 -48 -34 -113 -30 -213 13
-45 19 -84 35 -86 35 -2 0 -1 -31 2 -69 8 -81 -5 -108 -90 -199 l-50 -53 2
-87 c2 -74 6 -90 23 -104 31 -26 96 -41 146 -33 143 21 200 67 286 232 58 113
86 143 218 241 46 33 60 51 75 92 21 60 70 116 107 125 38 10 71 -15 108 -80
26 -45 36 -55 58 -55 15 0 31 4 36 9 6 4 25 13 44 20 51 17 189 112 256 178
56 53 173 224 232 336 29 54 37 106 22 143 l-12 29 -7 -40 c-7 -50 -16 -65
-39 -65 -21 0 -91 28 -91 36 0 3 5 2 10 -1 6 -4 18 -1 26 6 11 9 18 9 26 1 42
-42 51 25 12 84 -35 51 -34 51 -45 34 -8 -13 -10 -13 -19 0 -24 35 -7 64 52
92 91 44 113 103 52 143 l-26 17 7 -32 c4 -19 2 -36 -5 -45 -22 -26 -30 -16
-24 28 7 48 -16 140 -43 169 -9 10 -11 18 -5 18 5 0 31 -23 57 -52 45 -50 48
-52 61 -33 28 38 -4 156 -52 194 -38 30 -41 19 -11 -38 15 -27 27 -61 27 -76
l0 -28 -42 39 c-24 22 -64 50 -90 64 -46 24 -61 40 -38 40 6 0 24 -7 40 -15
38 -20 39 -4 5 41 -20 26 -41 38 -95 54 -39 12 -70 26 -70 34 0 7 14 38 31 70
36 66 38 103 11 168 -38 86 -125 160 -215 182 -20 5 -33 19 -49 52 -43 94
-200 183 -438 250 -75 21 -105 24 -245 23 -88 -1 -169 -3 -180 -6z" id="node2" class="node"></path>
<path d="M1542 1793 l-93 -36 3 -35 c6 -67 31 -64 188 23 43 24 47 24 104 11
32 -8 71 -23 87 -35 47 -35 88 -22 46 16 -62 54 -155 94 -219 93 -13 -1 -65
-17 -116 -37z" id="node3" class="node"></path>
<path d="M1585 1681 c-44 -24 -91 -81 -94 -113 -2 -17 23 -6 62 28 33 28 43
32 45 19 2 -10 10 -14 22 -10 12 4 24 -3 38 -22 l20 -28 19 33 c23 41 33 41
33 -3 0 -40 -1 -40 44 -21 31 13 76 62 76 84 0 6 -16 10 -36 10 -20 0 -40 6
-44 12 -4 7 -13 9 -19 6 -6 -4 -14 -1 -17 7 -3 8 -15 14 -27 14 -12 -1 -33 2
-47 5 -17 4 -41 -2 -75 -21z" id="node4" class="node"></path>
<path d="M1570 1540 c0 -5 5 -10 10 -10 6 0 10 5 10 10 0 6 -4 10 -10 10 -5 0
-10 -4 -10 -10z" id="node5" class="node"></path>
<path d="M1617 1544 c-13 -13 5 -24 37 -24 19 0 39 7 46 15 11 13 6 15 -32 15
-25 0 -48 -3 -51 -6z" id="node6" class="node"></path>
<path d="M1409 1185 c-27 -15 -43 -40 -34 -55 9 -14 84 41 78 56 -6 17 -11 17
-44 -1z" id="node7" class="node"></path>
<path d="M1250 1170 c0 -11 42 -31 49 -24 2 2 -2 10 -9 19 -14 17 -40 20 -40
5z" id="node8" class="node"></path>
<path d="M1465 1160 c-3 -5 -2 -10 4 -10 5 0 13 5 16 10 3 6 2 10 -4 10 -5 0
-13 -4 -16 -10z" id="node9" class="node"></path>
<path d="M1260 1127 c0 -32 43 -49 54 -21 8 20 8 19 -26 28 -20 4 -28 3 -28
-7z" id="node10" class="node"></path>
<path d="M1436 1011 c-4 -5 2 -12 11 -15 10 -3 -21 -3 -68 0 -64 4 -98 1 -135
-12 -70 -23 -81 -35 -51 -50 24 -13 38 -13 302 12 43 4 79 14 93 25 27 21 22
24 -43 33 -27 4 -62 9 -77 12 -14 3 -29 1 -32 -5z" id="node11" class="node"></path>
<path d="M1250 886 c0 -19 78 -56 118 -56 35 0 82 16 82 27 0 5 -25 6 -56 5
-45 -3 -62 0 -85 17 -33 24 -59 27 -59 7z" id="node12" class="node"></path>
</g>
<g transform="translate(0.000000,300.000000) scale(0.100000,-0.100000)" fill="#FFFFFF" stroke="none">

<path d="M2995 1500 c0 -828 1 -1166 2 -752 2 413 2 1091 0 1505 -1 413 -2 75
-2 -753z" id="node14" class="node"></path>
</g>
</svg>