<!--?xml version="1.0" standalone="no"?--><svg xmlns="http://www.w3.org/2000/svg" width="300.000000pt" height="300.000000pt" viewBox="0 0 300.000000 300.000000" preserveAspectRatio="xMidYMid meet">
<metadata>
  <rdf:rdf xmlns:rdf="http://www.w3.org/1999/02/22-rdf-syntax-ns#" xmlns:rdfs="http://www.w3.org/2000/01/rdf-schema#" xmlns:dc="http://purl.org/dc/elements/1.1/">
    <rdf:description dc:title="elvis presley stencil" dc:publisher="Hiox" dc:date="2015-05-07" dc:format="image/svg+xml" dc:language="en">
      <dc:creator>
        <rdf:bag>
          <rdf:li>svgimages.com</rdf:li>
        </rdf:bag>
      </dc:creator>
    </rdf:description>
  </rdf:rdf>
</metadata>
<g transform="translate(0.000000,300.000000) scale(0.100000,-0.100000)" fill="#080808" stroke="none">
<path style="position: relative;" d="M1240 2772 c0 -10 -68 -32 -99 -32 -11 0 -44 -14 -73 -31 -203 -121
-307 -244 -339 -402 -6 -28 -20 -90 -31 -137 -15 -60 -21 -116 -21 -190 0 -94
3 -110 26 -155 19 -36 29 -77 37 -145 26 -229 40 -281 84 -301 32 -15 53 -61
72 -162 13 -68 28 -107 66 -173 l49 -86 -41 -94 c-22 -52 -40 -103 -40 -113 0
-15 -9 -20 -42 -24 -86 -10 -174 -27 -228 -44 -47 -16 -55 -22 -58 -45 -2 -16
2 -28 8 -28 6 0 11 -10 10 -22 -1 -13 -1 -25 0 -28 1 -3 4 -14 5 -25 7 -56 45
-99 57 -64 2 6 19 11 38 12 26 2 35 -2 38 -16 4 -22 -34 -67 -57 -67 -30 -1
-101 -39 -101 -55 0 -12 8 -14 40 -9 43 7 46 4 30 -27 -14 -25 1 -54 37 -71
18 -9 30 -23 33 -42 6 -37 36 -58 51 -36 5 8 7 27 5 43 -7 34 13 36 69 7 28
-14 42 -17 51 -9 10 8 30 3 75 -20 49 -25 75 -31 123 -31 68 0 106 8 106 21 0
6 -8 13 -17 16 -10 4 -34 19 -53 34 -19 15 -62 42 -95 59 -33 18 -81 43 -107
57 -27 15 -59 43 -74 66 -26 39 -26 41 -11 86 8 26 13 58 10 72 -3 17 3 31 22
49 l25 24 65 -64 c49 -49 65 -71 65 -92 0 -29 17 -37 37 -17 7 7 19 -1 41 -29
32 -40 125 -213 135 -251 4 -16 13 -21 41 -21 20 0 36 3 36 6 0 9 -43 68 -52
72 -4 2 -8 14 -8 27 0 13 -16 42 -35 66 -54 64 -59 76 -41 104 22 34 20 47 -6
43 -13 -1 -25 2 -27 7 -5 12 22 26 114 61 73 28 124 59 310 191 149 105 187
134 207 159 10 12 31 24 48 27 24 5 30 12 30 31 0 14 8 31 19 38 10 7 21 23
25 36 6 17 3 22 -11 22 -11 0 -28 7 -39 15 -10 8 -29 15 -41 15 -19 0 -23 -5
-23 -30 0 -25 -6 -32 -36 -45 -30 -12 -34 -18 -24 -30 15 -19 5 -35 -24 -35
-26 0 -46 -17 -46 -40 0 -21 -34 -51 -85 -75 -27 -12 -71 -20 -137 -23 l-98
-4 -32 33 c-18 19 -48 52 -66 74 -21 25 -47 44 -70 50 -35 10 -37 13 -43 63
-4 29 -12 59 -19 67 -10 12 -10 24 0 59 18 66 -13 112 -46 69 -12 -16 -13 -12
-13 32 1 121 0 124 -44 156 -26 19 -46 43 -54 67 -7 20 -24 45 -38 55 -17 13
-25 28 -25 48 0 26 2 29 20 19 13 -7 33 -7 62 0 24 5 59 12 79 15 19 3 44 11
54 19 17 12 17 16 5 30 -11 15 -11 19 4 34 13 14 20 14 36 4 11 -6 26 -12 35
-12 11 0 13 -7 9 -29 -5 -23 -2 -32 15 -40 26 -14 28 -41 2 -41 -15 0 -19 -10
-24 -59 -5 -41 -16 -74 -37 -107 -16 -26 -30 -58 -30 -71 0 -22 3 -27 50 -62
l25 -19 -28 -13 c-40 -18 -38 -71 7 -133 52 -74 85 -89 188 -90 70 -1 91 2
105 16 27 28 6 38 -55 27 -65 -12 -113 1 -142 39 l-21 26 21 8 c11 4 30 17 43
28 17 17 30 20 62 15 22 -4 52 -15 67 -26 21 -15 44 -19 103 -19 41 0 75 4 75
9 0 9 -39 29 -115 61 -16 7 -80 16 -142 19 -62 4 -115 10 -118 13 -12 12 45
60 111 92 61 31 70 33 89 20 28 -19 55 -8 55 21 0 30 -41 38 -97 19 -34 -12
-50 -12 -89 -2 -61 17 -73 41 -48 94 16 33 19 60 17 168 -2 86 -7 134 -15 144
-24 29 -81 44 -199 51 -78 5 -123 12 -135 22 -16 13 -15 14 15 19 38 6 42 24
6 28 -34 4 -32 19 4 27 16 3 35 13 43 22 10 13 8 19 -17 39 l-29 23 27 38 c30
44 34 68 12 77 -23 9 -18 29 20 73 28 33 43 42 77 46 24 3 55 8 69 12 14 4 45
2 68 -5 34 -9 45 -18 58 -48 34 -75 83 -104 113 -67 16 20 41 19 80 -2 30 -18
31 -18 49 5 9 13 24 23 32 22 37 -6 109 1 109 10 0 6 -14 24 -30 42 -17 17
-28 33 -26 35 2 3 25 -7 51 -22 36 -20 50 -23 61 -14 8 6 26 8 43 4 40 -9 91
-82 91 -130 0 -41 25 -98 61 -142 18 -21 32 -57 44 -110 9 -43 25 -106 36
-141 10 -34 19 -71 19 -81 0 -14 6 -17 25 -13 18 3 25 0 25 -11 0 -8 7 -20 15
-27 13 -11 15 -5 15 48 0 58 2 62 45 109 35 36 44 53 40 70 -3 13 2 40 11 60
11 27 17 78 20 173 5 176 -8 222 -125 438 -36 66 -49 82 -68 82 -23 0 -63 31
-63 50 0 17 -76 59 -97 54 -12 -3 -37 6 -64 24 -66 44 -121 72 -144 72 -11 0
-33 7 -49 15 -22 12 -68 15 -207 15 -99 0 -179 -4 -179 -8z m-359 -2119 c-12
-20 -14 -14 -5 12 4 9 9 14 11 11 3 -2 0 -13 -6 -23z" id="node1" class="node"></path>
<path style="position: relative;" d="M1553 1858 c-30 -6 -51 -20 -73 -46 -28 -34 -29 -38 -13 -49 10 -7
33 -26 50 -43 36 -33 55 -37 73 -15 18 21 29 19 42 -11 10 -22 17 -25 43 -20
20 4 38 1 50 -9 19 -14 19 -14 -8 -15 -35 0 -32 -24 4 -28 16 -2 36 8 59 28
18 16 44 30 56 30 20 0 22 3 15 22 -16 44 -50 57 -166 67 l-110 9 117 -1 c107
-2 118 -4 141 -25 29 -28 62 -23 73 10 9 31 -15 66 -63 90 -39 20 -48 21 -91
9 -35 -8 -56 -9 -76 -1 -32 12 -65 11 -123 -2z" id="node2" class="node"></path>
<path style="position: relative;" d="M2010 1381 c0 -12 29 -23 41 -15 5 3 7 10 4 15 -8 12 -45 12 -45 0z" id="node3" class="node"></path>
<path style="position: relative;" d="M1961 1083 c-6 -21 -17 -70 -26 -108 -21 -95 -85 -216 -190 -363 -25
-34 -61 -92 -81 -130 -19 -37 -51 -83 -70 -102 -19 -20 -34 -39 -34 -42 0 -4
-23 -30 -50 -58 -45 -46 -54 -51 -80 -45 -27 6 -30 4 -30 -18 0 -14 -3 -32 -6
-41 -12 -31 27 -16 63 23 19 22 49 45 66 52 54 21 85 48 144 122 32 39 64 78
73 87 8 8 25 29 38 45 13 17 20 24 17 17 -4 -7 -4 -28 -1 -46 8 -42 56 -66
132 -66 35 0 69 -7 94 -20 22 -11 55 -20 74 -20 19 0 81 -15 138 -34 161 -54
155 -28 -27 109 -93 70 -145 98 -237 129 -88 30 -105 32 -128 11 -15 -14 -16
-11 -10 36 4 28 11 54 17 57 21 15 63 88 63 111 0 13 17 50 39 82 35 52 39 66
46 143 4 47 4 90 0 96 -12 19 -24 10 -34 -27z" id="node4" class="node"></path>
</g>
<g transform="translate(0.000000,300.000000) scale(0.100000,-0.100000)" fill="#FFFFFF" stroke="none">

<path style="position: relative;" d="M876 665 c-9 -26 -7 -32 5 -12 6 10 9 21 6 23 -2 3 -7 -2 -11 -11z" id="node6" class="node"></path>
</g>
</svg>