<!--?xml version="1.0" standalone="no"?--><svg version="1.0" xmlns="http://www.w3.org/2000/svg" width="300.000000pt" height="300.000000pt" viewBox="0 0 300.000000 300.000000" preserveAspectRatio="xMidYMid meet">
<metadata>
  <rdf:rdf xmlns:rdf="http://www.w3.org/1999/02/22-rdf-syntax-ns#" xmlns:rdfs="http://www.w3.org/2000/01/rdf-schema#" xmlns:dc="http://purl.org/dc/elements/1.1/">
    <rdf:description dc:title="kendrick lamar stencil" dc:publisher="Hiox" dc:date="2015-05-11" dc:format="image/svg+xml" dc:language="en">
      <dc:creator>
        <rdf:bag>
          <rdf:li>svgimages.com</rdf:li>
        </rdf:bag>
      </dc:creator>
    </rdf:description>
  </rdf:rdf>
</metadata>
<g transform="translate(0.000000,300.000000) scale(0.100000,-0.100000)" fill="#1D1D1D" stroke="none">
<path d="M1248 2970 c-7 -11 -24 -20 -38 -20 -50 0 -100 -21 -132 -56 -18 -20
-53 -47 -77 -61 -62 -37 -106 -86 -120 -135 -7 -24 -17 -50 -22 -58 -5 -8 -11
-19 -13 -25 -1 -5 -11 -32 -21 -60 -10 -27 -23 -77 -30 -110 -6 -33 -16 -69
-22 -80 -36 -70 -49 -191 -52 -475 -1 -89 -4 -111 -13 -102 -7 7 -29 12 -50
12 -51 0 -71 -38 -72 -140 -1 -62 4 -85 25 -130 64 -133 79 -168 79 -182 0
-30 41 -68 79 -74 36 -6 40 -11 71 -76 17 -39 48 -88 69 -111 33 -37 36 -46
42 -121 7 -95 1 -108 -82 -174 -72 -57 -116 -99 -164 -156 -52 -61 -137 -117
-314 -205 -144 -72 -284 -163 -353 -229 -35 -33 -38 -40 -38 -92 0 -55 0 -56
29 -55 32 0 81 36 81 59 0 21 -20 70 -31 76 -5 4 4 19 20 34 l28 27 7 -42 c6
-37 9 -40 29 -35 12 4 35 9 50 13 17 3 32 15 38 29 10 27 49 34 49 9 0 -20 39
-19 68 1 45 31 17 43 -43 18 -17 -7 -15 -3 8 25 15 18 27 37 27 42 0 5 6 9 14
9 8 0 18 9 21 20 4 11 20 27 36 35 20 11 29 23 29 39 0 13 7 26 15 29 11 5 13
0 8 -23 -7 -37 3 -38 38 -4 l27 26 7 -22 c9 -28 -4 -40 -75 -77 -48 -25 -55
-33 -58 -62 -2 -18 2 -38 8 -46 13 -15 40 -9 40 9 0 11 67 42 75 34 2 -1 -16
-41 -39 -88 -42 -83 -44 -85 -86 -92 -43 -7 -90 -32 -90 -47 0 -4 12 -14 26
-21 21 -12 29 -12 46 -1 11 7 23 10 26 7 3 -3 0 -6 -6 -6 -7 0 -12 -6 -12 -13
0 -20 120 -10 141 12 9 9 26 42 38 75 20 54 21 60 5 77 -9 10 -24 19 -34 21
-14 2 -16 8 -9 26 l9 24 34 -21 c18 -12 42 -21 53 -21 28 0 63 41 63 76 0 16
7 38 15 48 20 26 19 55 -2 78 -15 17 -15 19 0 36 10 10 17 29 17 42 0 13 7 31
16 41 23 26 11 53 -21 45 -23 -6 -24 -5 -13 19 6 14 16 25 22 24 27 -3 36 2
36 21 0 17 6 32 27 69 2 2 9 -2 18 -9 8 -7 24 -10 36 -7 15 4 19 2 15 -10 -3
-8 -6 -16 -6 -19 0 -2 -13 -1 -30 3 -34 6 -36 2 -14 -33 18 -27 12 -43 -9 -26
-10 9 -18 8 -32 -2 -16 -12 -17 -16 -6 -30 11 -13 9 -20 -9 -46 -13 -19 -19
-37 -15 -48 5 -14 13 -10 46 25 l39 42 0 -28 c0 -15 -9 -36 -20 -46 -20 -18
-28 -75 -11 -75 5 0 18 16 30 35 21 37 53 49 44 17 -2 -10 5 -26 16 -36 12
-11 21 -24 21 -31 0 -7 9 -20 20 -30 11 -10 20 -25 20 -34 0 -20 -15 -5 -39
40 -22 41 -51 51 -51 17 0 -13 9 -38 20 -56 26 -42 26 -52 0 -19 -11 14 -20
30 -20 36 0 24 -29 9 -33 -17 -3 -23 -4 -22 -11 15 -10 51 -29 71 -51 53 -8
-7 -15 -20 -15 -30 0 -10 -9 -37 -20 -61 -25 -57 -26 -99 -2 -99 27 0 63 29
78 64 l13 31 1 -27 c0 -15 -13 -46 -29 -70 -15 -24 -34 -61 -42 -83 -11 -32
-14 -36 -17 -18 -2 12 2 32 8 44 16 29 -5 53 -23 28 -9 -12 -27 -16 -62 -15
l-50 1 -3 -41 c-3 -37 0 -44 30 -63 l33 -23 -42 6 c-36 5 -44 3 -53 -14 -10
-19 -8 -20 73 -20 45 0 87 4 92 9 6 5 29 12 52 16 34 5 44 4 49 -9 4 -11 19
-16 45 -16 30 0 37 3 33 15 -4 8 -18 15 -34 15 -36 0 -42 17 -18 55 25 41 24
85 -2 92 -14 4 -20 14 -20 34 l0 29 21 -21 c16 -16 28 -20 55 -14 32 6 34 4
34 -22 0 -15 -7 -46 -16 -70 -25 -64 0 -103 29 -47 l14 27 19 -47 c10 -25 25
-46 32 -46 14 0 16 21 4 36 -5 5 -19 34 -31 66 -22 54 -22 65 -16 250 3 106 7
225 8 263 1 64 -15 263 -29 360 l-7 40 54 -45 c131 -110 152 -121 259 -133
215 -25 340 -1 523 103 124 70 145 89 188 170 l23 45 8 -85 c4 -47 12 -106 18
-132 5 -26 12 -89 16 -140 8 -109 -13 -206 -70 -330 -18 -41 -39 -92 -46 -114
-7 -21 -16 -44 -21 -50 -11 -14 -33 -73 -74 -201 -24 -77 -29 -103 -19 -103 7
0 19 19 25 42 25 90 51 162 64 182 13 17 15 18 21 3 3 -9 17 -17 30 -17 15 0
24 -6 24 -15 0 -9 -9 -15 -24 -15 -37 0 -52 -25 -38 -62 10 -28 8 -34 -18 -67
-17 -19 -30 -39 -30 -43 0 -14 19 -9 38 10 9 9 31 27 49 40 18 13 34 35 38 52
4 17 21 44 38 62 17 17 32 38 32 47 0 30 39 18 56 -18 17 -37 49 -57 119 -77
l45 -12 -35 -1 c-47 -2 -64 -14 -56 -39 8 -24 71 -66 86 -57 5 3 10 1 10 -4 0
-16 282 -15 298 1 9 9 15 9 24 0 7 -7 32 -12 56 -12 l44 0 -5 38 c-4 25 -14
43 -33 57 -15 11 -42 34 -59 51 -33 34 -108 74 -136 74 -11 0 -22 14 -32 43
-37 110 -48 151 -54 198 -5 43 -3 52 15 65 26 18 20 40 -20 74 -38 33 -50 95
-20 104 13 4 22 17 24 34 2 18 10 28 23 30 16 3 18 1 8 -9 -7 -7 -13 -23 -13
-36 0 -13 -10 -33 -22 -45 -25 -25 -17 -45 28 -68 17 -9 43 -26 59 -38 36 -29
71 -28 131 4 65 34 70 40 46 53 -15 8 -31 7 -67 -7 -46 -17 -46 -17 -63 6 -10
12 -29 26 -43 30 -23 6 -25 10 -18 31 9 23 10 23 30 5 14 -12 32 -17 58 -15
27 2 40 -2 44 -13 4 -11 19 -16 47 -16 40 0 54 15 25 26 -8 4 -15 10 -15 14 0
13 44 -1 67 -23 19 -17 31 -19 88 -13 55 6 73 3 113 -15 45 -20 46 -22 24 -32
-16 -7 -41 -7 -90 2 -65 12 -69 12 -137 -17 -38 -16 -83 -32 -99 -36 -16 -4
-45 -18 -65 -32 -19 -13 -47 -24 -62 -24 -44 0 -75 -50 -48 -77 9 -9 21 -5 50
13 49 30 60 15 22 -32 -15 -20 -36 -46 -47 -59 -19 -24 -15 -65 7 -65 14 0 91
95 125 155 25 42 69 84 89 85 20 0 4 -62 -22 -87 -13 -12 -26 -36 -30 -53 -4
-19 -25 -45 -56 -72 -27 -22 -49 -45 -49 -49 0 -5 17 -18 39 -28 48 -25 117
-94 142 -144 11 -20 17 -37 14 -37 -3 0 5 -11 17 -25 13 -16 32 -25 50 -25 23
0 28 4 28 25 0 14 -4 25 -10 25 -5 0 -10 9 -10 19 0 11 -11 33 -25 49 -14 17
-25 34 -25 38 0 4 -17 25 -37 46 -41 42 -38 57 10 41 22 -8 67 -9 147 -3 63 5
116 9 118 9 1 1 2 12 2 25 0 18 -7 26 -22 29 l-23 4 23 2 c18 1 23 6 20 24 -3
20 -10 23 -83 30 -89 8 -117 4 -154 -22 -14 -10 -41 -22 -60 -26 l-33 -7 32
47 c18 26 41 70 51 98 23 64 40 81 68 72 22 -7 22 -7 5 -33 -10 -15 -26 -33
-35 -42 -10 -8 -21 -27 -25 -42 -8 -38 14 -45 57 -19 19 12 41 21 50 21 19 0
79 61 79 81 0 8 -17 24 -37 35 l-38 19 63 3 62 3 0 43 0 43 -62 27 c-34 15
-104 33 -157 41 -100 14 -145 26 -346 93 -145 47 -165 57 -165 82 0 12 -21 35
-53 59 -30 22 -70 62 -91 91 -20 28 -48 55 -61 60 -25 9 -25 11 -25 123 0 63
3 116 6 120 4 3 13 0 21 -8 17 -17 56 -19 83 -5 10 5 28 36 40 67 11 32 25 67
30 78 58 128 65 151 65 237 0 73 -3 91 -21 115 -20 26 -26 28 -87 27 l-66 -1
6 111 c5 108 1 148 -32 311 -29 144 -130 366 -197 435 -21 21 -38 42 -38 48 0
6 -11 19 -25 30 -14 11 -25 25 -25 31 0 13 -58 51 -79 51 -7 0 -34 14 -59 31
-36 24 -52 29 -78 24 -26 -4 -35 -2 -43 14 -11 19 -32 24 -178 35 -34 3 -71
10 -82 16 -17 8 -23 7 -33 -10z m330 -254 c62 -31 114 -68 183 -131 90 -81 99
-94 151 -198 68 -139 93 -202 121 -308 20 -78 21 -104 18 -359 -2 -237 -5
-285 -22 -350 -37 -135 -62 -191 -109 -240 -48 -49 -209 -160 -233 -160 -2 0
-17 18 -31 41 -27 39 -28 40 -47 23 -15 -13 -22 -15 -31 -6 -13 13 -42 17 -35
4 3 -4 -17 -5 -44 -4 -27 2 -55 -1 -62 -6 -7 -6 -45 -10 -85 -9 -40 1 -74 -2
-76 -8 -3 -6 -8 -5 -13 2 -5 7 -14 9 -22 4 -7 -5 -31 -6 -51 -4 -35 5 -40 3
-54 -25 -12 -23 -13 -31 -3 -35 6 -2 -1 -4 -17 -4 -24 0 -47 17 -121 92 -139
140 -164 200 -227 545 -18 104 -22 161 -23 335 0 230 7 278 58 410 52 133 144
251 265 338 50 36 101 64 133 72 28 8 54 16 57 19 3 3 56 6 119 6 l113 0 88
-44z m656 -905 c9 -10 21 -46 27 -80 11 -58 9 -67 -14 -124 -14 -34 -37 -93
-52 -132 -48 -127 -53 -135 -84 -135 -41 0 -54 20 -46 74 6 40 11 46 31 46 17
0 25 -7 30 -26 7 -27 7 -27 28 14 12 22 28 53 37 69 17 28 23 73 20 151 -2 71
-21 38 -21 -37 0 -75 -14 -126 -36 -135 -11 -4 -14 8 -14 64 0 68 13 97 31 69
6 -10 9 -6 9 13 0 14 -11 40 -25 57 l-26 30 22 11 c29 16 61 6 80 -26 l16 -27
0 42 c0 36 -4 44 -30 57 -40 21 -64 7 -100 -55 -31 -56 -34 -88 -11 -148 16
-40 15 -43 -5 -69 l-21 -27 -1 79 c0 44 -2 104 -5 135 -4 50 -2 60 21 87 36
43 110 56 139 23z m-1530 -46 c24 -18 15 -30 -12 -16 -20 11 -62 -10 -62 -31
0 -7 4 -7 13 0 8 7 17 7 30 -3 15 -11 15 -14 2 -25 -8 -7 -15 -17 -15 -23 0
-5 9 -2 20 8 11 10 22 16 25 13 7 -6 -46 -88 -56 -88 -4 0 -10 17 -12 38 -3
24 -3 20 -2 -11 1 -26 5 -51 9 -55 7 -6 25 13 44 45 4 6 14 13 22 15 12 2 15
-11 15 -76 0 -54 4 -80 12 -83 9 -3 11 4 6 28 -4 23 -3 30 5 25 19 -12 11 -94
-11 -123 l-20 -25 31 7 c28 6 32 4 38 -22 3 -15 8 -36 11 -45 3 -14 -2 -18
-26 -18 -26 0 -34 6 -45 33 -8 17 -37 84 -65 148 -43 97 -51 125 -51 176 0 85
15 123 48 123 15 0 36 -7 46 -15z m1361 -705 c3 -5 1 -10 -4 -10 -6 0 -11 5
-11 10 0 6 2 10 4 10 3 0 8 -4 11 -10z m90 -104 c13 -12 26 -39 30 -65 4 -24
15 -51 25 -61 10 -10 21 -33 25 -51 l8 -33 -37 32 c-20 18 -46 32 -56 32 -20
0 -20 0 0 20 21 21 26 69 10 99 -5 10 -24 24 -41 31 -28 12 -33 12 -45 -5 -11
-14 -14 -15 -14 -4 0 40 54 43 95 5z m-64 -139 c-8 -8 -11 -5 -11 9 0 27 14
41 18 19 2 -9 -1 -22 -7 -28z m-1135 16 c-4 -9 -3 -19 2 -22 5 -3 11 -24 14
-46 5 -38 4 -40 -23 -41 -33 -1 -34 1 -14 36 18 32 18 41 0 34 -20 -8 -19 2 3
31 20 29 27 32 18 8z m1359 -23 c3 -5 1 -10 -4 -10 -6 0 -11 5 -11 10 0 6 2
10 4 10 3 0 8 -4 11 -10z m-31 -59 c-5 -32 -3 -38 20 -51 34 -18 33 -23 -6
-35 l-33 -10 0 77 c0 61 2 75 12 66 8 -7 11 -23 7 -47z m-192 7 c-7 -7 -12 -8
-12 -2 0 14 12 26 19 19 2 -3 -1 -11 -7 -17z m78 -37 c15 -29 13 -32 -15 -19
-26 11 -30 19 -18 31 11 12 22 8 33 -12z m-5 -84 c1 -1 13 -19 28 -39 21 -28
27 -48 27 -87 0 -28 5 -51 10 -51 6 0 10 25 10 55 0 34 4 55 11 55 7 0 9 -10
5 -25 -7 -27 7 -62 33 -82 19 -15 58 -17 66 -3 10 16 25 11 25 -9 0 -10 -7
-24 -15 -31 -29 -24 -6 -112 32 -124 12 -4 18 -16 18 -36 0 -16 -1 -30 -2 -30
-18 0 -53 23 -53 35 0 12 -6 15 -20 10 -27 -9 -38 20 -16 44 40 44 -4 88 -79
79 -31 -4 -35 -1 -35 19 0 13 -9 27 -22 34 -19 10 -19 12 -5 21 20 11 23 67 5
89 -19 22 -84 42 -110 33 -20 -6 -19 -3 7 25 24 25 35 30 55 26 14 -4 25 -7
25 -8z m-1205 -32 c24 8 27 -11 5 -35 -12 -13 -13 -23 -4 -49 11 -32 5 -101
-10 -101 -4 0 -18 11 -31 25 l-23 25 21 23 c12 13 22 31 22 40 0 22 -36 22
-48 1 -10 -19 -32 -11 -32 12 0 8 9 14 19 14 29 0 34 16 15 44 l-16 25 31 -15
c17 -8 40 -13 51 -9z m1400 -41 c0 -14 -21 -19 -33 -7 -9 9 13 34 24 27 5 -3
9 -12 9 -20z m-1687 -22 c-6 -24 -18 -28 -28 -11 -4 6 1 16 11 24 23 16 25 15
17 -13z m2191 3 c-4 -8 -8 -15 -10 -15 -2 0 -4 7 -4 15 0 8 4 15 10 15 5 0 7
-7 4 -15z m-740 -25 c12 0 42 -68 33 -77 -3 -2 -8 4 -11 14 -3 10 -19 26 -36
35 -31 18 -42 45 -14 34 9 -3 21 -6 28 -6z m-85 -66 c31 -27 94 -46 104 -31 5
7 6 -2 3 -22 l-6 -34 35 6 c33 5 35 5 29 -19 -8 -32 20 -64 56 -64 30 0 56
-23 45 -40 -3 -5 -15 -10 -26 -10 -12 0 -19 -7 -19 -20 0 -26 -8 -25 -53 5
-21 15 -48 47 -62 75 -31 60 -38 65 -75 47 l-29 -15 6 30 c6 30 5 30 -30 26
-21 -2 -37 -2 -37 1 0 7 34 81 37 81 1 0 11 -7 22 -16z m-1365 -23 c7 -10 -18
-34 -27 -25 -7 8 3 34 13 34 5 0 11 -4 14 -9z m-304 -46 c-7 -9 -15 -13 -19
-10 -3 3 1 10 9 15 21 14 24 12 10 -5z m-80 -49 c0 -8 12 -19 28 -24 22 -9 23
-11 7 -11 -12 -1 -25 -5 -31 -11 -5 -5 -31 -14 -57 -19 -61 -11 -62 4 -4 46
48 36 57 39 57 19z m368 -8 c-3 -7 -11 -13 -18 -13 -7 0 -15 6 -17 13 -3 7 4
12 17 12 13 0 20 -5 18 -12z m1332 -34 c0 -8 -4 -12 -10 -9 -5 3 -10 10 -10
16 0 5 5 9 10 9 6 0 10 -7 10 -16z m949 12 c-10 -8 -89 -13 -83 -5 3 5 24 9
46 9 23 0 39 -2 37 -4z m-99 -16 c0 -5 -8 -10 -17 -10 -15 0 -16 2 -3 10 19
12 20 12 20 0z m-476 -82 c-8 -28 -23 -48 -35 -48 -16 0 -9 49 9 59 27 16 34
13 26 -11z m95 -19 c16 -46 15 -49 -26 -49 -34 0 -35 1 -20 18 10 10 17 28 17
40 0 32 16 27 29 -9z m86 -79 l29 -30 -41 0 c-44 0 -62 20 -40 45 17 20 20 19
52 -15z m-2508 -22 c-3 -8 -6 -5 -6 6 -1 11 2 17 5 13 3 -3 4 -12 1 -19z
m2377 -3 c9 -14 23 -25 31 -25 8 0 15 -4 15 -10 0 -5 -10 -10 -22 -10 -12 0
-30 -7 -39 -16 -17 -16 -19 -15 -29 10 -5 15 -10 38 -10 52 0 32 32 32 54 -1z
m-1914 11 c0 -3 -4 -8 -10 -11 -5 -3 -10 -1 -10 4 0 6 5 11 10 11 6 0 10 -2
10 -4z" id="node1" class="node"></path>
<path d="M1595 2310 c-65 -6 -101 -21 -126 -53 -35 -43 -5 -56 88 -37 149 29
158 30 213 9 29 -11 69 -29 90 -39 l38 -19 -5 20 c-7 26 -64 84 -101 103 -32
16 -115 23 -197 16z" id="node2" class="node"></path>
<path d="M994 2295 c-100 -22 -147 -54 -173 -122 -19 -47 -4 -59 26 -22 37 44
63 52 195 58 64 4 120 10 124 14 12 12 -18 58 -48 73 -32 17 -44 17 -124 -1z" id="node3" class="node"></path>
<path d="M1055 2163 c11 -3 23 -10 27 -16 4 -6 10 -8 15 -4 10 11 -17 27 -42
26 l-20 -1 20 -5z" id="node4" class="node"></path>
<path d="M1115 2130 c3 -5 16 -15 28 -21 22 -12 22 -12 3 10 -19 21 -43 30
-31 11z" id="node5" class="node"></path>
<path d="M1495 2099 c-4 -6 -5 -12 -2 -15 2 -3 7 2 10 11 7 17 1 20 -8 4z" id="node6" class="node"></path>
<path d="M993 2063 c15 -2 39 -2 55 0 15 2 2 4 -28 4 -30 0 -43 -2 -27 -4z" id="node7" class="node"></path>
<path d="M1558 2028 c-27 -11 -48 -24 -48 -28 0 -8 47 -16 163 -26 68 -6 157
2 157 14 0 14 -146 62 -185 62 -22 0 -61 -10 -87 -22z m72 -18 c0 -23 -1 -24
-35 -8 -24 11 -25 13 -8 19 31 13 43 10 43 -11z m70 -17 c11 3 18 1 14 -4 -13
-22 -64 -1 -64 26 0 5 7 2 15 -9 9 -12 22 -17 35 -13z m75 6 c10 -15 -1 -23
-20 -15 -9 3 -13 10 -10 16 8 13 22 13 30 -1z" id="node8" class="node"></path>
<path d="M1005 2012 c-51 -23 -105 -55 -105 -64 0 -14 95 -20 144 -9 57 13
136 43 136 52 0 12 -72 39 -103 38 -18 0 -50 -8 -72 -17z m129 -12 c4 -5 -2
-13 -14 -20 -25 -13 -25 -13 -35 18 -6 22 -5 23 17 17 12 -4 27 -11 32 -15z
m-66 -17 c-2 -10 -12 -19 -23 -20 -11 -2 -14 0 -7 3 6 3 12 12 12 20 0 8 5 14
11 14 6 0 9 -8 7 -17z m-98 -29 c0 -9 -5 -14 -12 -12 -18 6 -21 28 -4 28 9 0
16 -7 16 -16z m45 6 c3 -5 2 -10 -4 -10 -5 0 -13 5 -16 10 -3 6 -2 10 4 10 5
0 13 -4 16 -10z" id="node9" class="node"></path>
<path d="M1221 1964 c0 -11 3 -14 6 -6 3 7 2 16 -1 19 -3 4 -6 -2 -5 -13z" id="node10" class="node"></path>
<path d="M1163 1932 c-39 -49 -58 -68 -78 -80 -15 -9 -16 -11 -4 -12 18 0 47
25 85 75 31 41 29 57 -3 17z" id="node11" class="node"></path>
<path d="M1525 1933 c34 -33 115 -83 135 -83 7 0 -9 12 -36 26 -26 14 -66 39
-89 56 l-40 31 30 -30z" id="node12" class="node"></path>
<path d="M1205 1930 c-3 -5 -1 -10 4 -10 6 0 11 5 11 10 0 6 -2 10 -4 10 -3 0
-8 -4 -11 -10z" id="node13" class="node"></path>
<path d="M1688 1933 c18 -2 45 -2 60 0 15 2 0 4 -33 4 -33 0 -45 -2 -27 -4z" id="node14" class="node"></path>
<path d="M1184 1888 c-4 -13 -10 -25 -13 -28 -4 -3 -19 -26 -34 -52 -54 -93
-25 -148 78 -148 70 0 69 8 -3 13 -28 3 -58 10 -67 17 -26 21 -17 70 25 141
43 72 45 79 31 79 -5 0 -13 -10 -17 -22z" id="node15" class="node"></path>
<path d="M988 1813 c12 -2 30 -2 40 0 9 3 -1 5 -23 4 -22 0 -30 -2 -17 -4z" id="node16" class="node"></path>
<path d="M1524 1795 c9 -13 16 -40 16 -60 0 -44 -23 -55 -111 -55 -71 0 -78
-15 -11 -25 81 -11 140 23 137 78 -2 37 -24 87 -38 87 -5 0 -2 -11 7 -25z" id="node17" class="node"></path>
<path d="M1250 1791 c0 -6 4 -13 10 -16 6 -3 7 1 4 9 -7 18 -14 21 -14 7z" id="node18" class="node"></path>
<path d="M1391 1753 c-31 -26 -13 -46 43 -47 57 -1 77 15 51 44 -22 25 -66 26
-94 3z" id="node19" class="node"></path>
<path d="M1170 1745 c-29 -34 25 -63 82 -43 34 12 35 21 3 42 -30 20 -69 21
-85 1z" id="node20" class="node"></path>
<path d="M1345 1629 c-4 -6 -19 -7 -35 -4 -16 3 -43 0 -62 -8 -38 -16 -148
-113 -148 -131 0 -6 -9 -20 -21 -29 -11 -10 -18 -21 -15 -25 4 -3 14 5 23 19
23 33 90 95 141 130 35 24 42 26 42 11 1 -16 1 -16 14 1 14 17 62 24 68 9 2
-5 17 0 33 11 17 10 22 17 13 13 -10 -3 -20 -1 -23 4 -8 13 -22 13 -30 -1z" id="node21" class="node"></path>
<path d="M1436 1622 c-6 -10 122 -87 130 -79 6 5 -45 43 -93 69 -18 10 -34 14
-37 10z" id="node22" class="node"></path>
<path d="M1362 1556 c-20 -12 -19 -13 20 -12 34 1 55 -7 101 -38 31 -21 66
-51 77 -67 l21 -28 -37 15 c-23 10 -59 14 -99 12 -68 -3 -88 -21 -28 -26 62
-4 143 -23 143 -32 0 -5 -20 -24 -45 -43 -43 -33 -48 -34 -161 -41 -110 -7
-119 -6 -161 16 -25 13 -46 28 -46 33 0 20 93 52 173 60 42 3 46 6 20 14 -27
8 -153 -2 -182 -14 -13 -5 -18 -2 -18 9 0 9 -4 16 -10 16 -5 0 -9 -3 -8 -7 1
-5 -4 -21 -10 -36 -7 -16 -12 -32 -12 -36 0 -4 25 -21 55 -38 62 -36 138 -53
233 -53 61 0 69 3 118 40 30 22 58 49 64 60 6 11 17 20 25 20 21 0 19 16 -7
52 -33 46 -66 73 -129 108 -63 33 -64 33 -97 16z" id="node23" class="node"></path>
<path d="M1235 1534 c-34 -17 -95 -73 -95 -87 0 -5 16 6 35 24 51 50 58 55 90
67 17 6 23 11 15 11 -8 1 -28 -6 -45 -15z" id="node24" class="node"></path>
<path d="M1308 1533 c7 -3 16 -2 19 1 4 3 -2 6 -13 5 -11 0 -14 -3 -6 -6z" id="node25" class="node"></path>
<path d="M1320 1170 c8 -5 31 -10 50 -10 19 0 42 5 50 10 11 7 -4 10 -50 10
-46 0 -61 -3 -50 -10z" id="node26" class="node"></path>
<path d="M675 1520 c4 -19 16 -48 27 -65 11 -16 17 -22 14 -12 -3 11 -9 31
-13 45 -3 15 -12 36 -20 47 -14 18 -14 17 -8 -15z" id="node27" class="node"></path>
<path d="M1143 778 c3 -9 9 -34 13 -55 4 -21 10 -42 14 -48 4 -5 11 -24 14
-41 7 -31 64 -119 73 -111 2 2 -14 38 -36 78 -21 41 -42 92 -46 113 -4 22 -14
49 -22 60 -11 15 -14 16 -10 4z" id="node28" class="node"></path>
<path d="M1753 754 c-3 -8 -1 -20 6 -27 8 -8 11 -4 11 16 0 30 -7 35 -17 11z" id="node29" class="node"></path>
<path d="M1741 694 c0 -11 3 -14 6 -6 3 7 2 16 -1 19 -3 4 -6 -2 -5 -13z" id="node30" class="node"></path>
<path d="M2966 485 c-9 -13 -16 -29 -16 -34 0 -19 23 -60 36 -65 11 -4 14 9
14 59 0 70 -8 79 -34 40z" id="node31" class="node"></path>
<path d="M385 200 c5 -14 2 -20 -9 -20 -23 0 -20 -17 9 -45 37 -38 55 -33 55
14 0 30 -6 44 -22 55 -30 21 -41 20 -33 -4z" id="node32" class="node"></path>
<path d="M2780 180 c0 -11 5 -20 10 -20 6 0 19 -20 30 -44 10 -24 24 -47 30
-51 9 -6 9 -10 -1 -16 -10 -6 -11 -9 -1 -9 6 0 12 -9 12 -20 0 -17 7 -20 40
-20 33 0 40 3 40 20 0 11 5 20 10 20 6 0 10 -4 10 -9 0 -5 9 -11 20 -14 17 -4
20 0 20 25 0 30 -1 30 -39 25 -35 -4 -51 4 -51 26 0 1 20 1 45 -1 44 -4 45 -3
45 26 0 29 -2 30 -60 36 -33 4 -60 11 -60 16 0 9 -62 30 -87 30 -7 0 -13 -9
-13 -20z" id="node33" class="node"></path>
<path d="M256 168 c-9 -12 -16 -28 -16 -35 0 -7 -18 -30 -40 -52 -22 -22 -40
-36 -40 -31 0 4 -7 11 -16 14 -17 6 -104 -40 -104 -55 0 -5 23 -9 51 -9 38 0
55 5 65 17 13 17 13 17 14 0 0 -16 8 -18 68 -15 64 3 67 4 70 30 2 18 -4 31
-20 42 l-22 16 31 0 c42 0 59 29 41 68 -18 36 -60 42 -82 10z" id="node34" class="node"></path>
<path d="M179 157 c-63 -28 -80 -67 -30 -67 17 0 33 5 36 10 4 6 10 8 15 5 10
-6 30 26 30 49 0 18 -14 19 -51 3z" id="node35" class="node"></path>
<path d="M2060 146 c0 -37 104 -122 130 -106 16 10 -6 49 -53 93 -31 29 -77
37 -77 13z" id="node36" class="node"></path>
<path d="M2018 41 c-18 -16 -30 -32 -27 -36 4 -3 41 -5 84 -3 l78 3 -33 33
c-42 40 -61 40 -102 3z" id="node37" class="node"></path>
</g>
<g transform="translate(0.000000,300.000000) scale(0.100000,-0.100000)" fill="#FFFFFF" stroke="none">

<path d="M1258 2754 c-3 -3 -29 -11 -57 -19 -32 -8 -83 -36 -133 -72 -121 -87
-213 -205 -265 -338 -51 -132 -58 -180 -58 -410 1 -174 5 -231 23 -335 63
-345 88 -405 227 -545 74 -75 97 -92 121 -92 16 0 23 2 17 4 -10 4 -9 12 3 35
14 28 19 30 54 25 20 -2 44 -1 51 4 8 5 17 3 22 -4 5 -7 10 -8 13 -2 2 6 36 9
76 8 40 -1 78 3 85 9 7 5 35 8 62 6 27 -1 47 0 44 4 -7 13 22 9 35 -4 9 -9 16
-7 31 6 19 17 20 16 47 -23 14 -23 29 -41 31 -41 24 0 185 111 233 160 47 49
72 105 109 240 17 65 20 113 22 350 3 255 2 281 -18 359 -28 106 -53 169 -121
308 -52 104 -61 117 -151 198 -69 63 -121 100 -183 131 l-88 44 -113 0 c-63 0
-116 -3 -119 -6z m534 -460 c37 -19 94 -77 101 -103 l5 -20 -38 19 c-21 10
-61 28 -90 39 -55 21 -64 20 -213 -9 -66 -13 -94 -12 -100 3 -6 17 20 50 53
68 51 27 230 29 282 3z m-674 2 c30 -15 60 -61 48 -73 -4 -4 -60 -10 -124 -14
-132 -6 -158 -14 -195 -58 -30 -37 -45 -25 -26 22 26 68 73 100 173 122 80 18
92 18 124 1z m-28 -136 c8 -5 11 -12 7 -17 -5 -4 -11 -2 -15 4 -4 6 -16 13
-27 16 l-20 5 20 1 c11 0 27 -3 35 -9z m56 -41 c19 -22 19 -22 -3 -10 -24 12
-39 31 -25 31 5 0 17 -10 28 -21z m357 -24 c-3 -9 -8 -14 -10 -11 -3 3 -2 9 2
15 9 16 15 13 8 -4z m-455 -32 c-16 -2 -40 -2 -55 0 -16 2 -3 4 27 4 30 0 43
-2 28 -4z m709 -40 c40 -16 73 -31 73 -35 0 -12 -89 -20 -157 -14 -116 10
-163 18 -163 26 0 14 95 49 135 50 22 0 73 -12 112 -27z m-612 -10 c19 -9 35
-19 35 -22 0 -9 -79 -39 -136 -52 -49 -11 -144 -5 -144 9 0 9 54 41 105 64 51
22 95 22 140 1z m82 -55 c-3 -8 -6 -5 -6 6 -1 11 2 17 5 13 3 -3 4 -12 1 -19z
m-61 -43 c-38 -50 -67 -75 -85 -75 -12 1 -11 3 4 12 20 12 39 31 78 80 32 40
34 24 3 -17z m458 -39 c27 -14 43 -26 36 -26 -20 0 -101 50 -135 83 l-30 30
40 -31 c23 -17 63 -42 89 -56z m-404 54 c0 -5 -5 -10 -11 -10 -5 0 -7 5 -4 10
3 6 8 10 11 10 2 0 4 -4 4 -10z m528 3 c-15 -2 -42 -2 -60 0 -18 2 -6 4 27 4
33 0 48 -2 33 -4z m-538 -29 c0 -3 -18 -36 -40 -73 -42 -71 -51 -120 -25 -141
9 -7 39 -14 67 -17 72 -5 73 -13 3 -13 -103 0 -132 55 -78 148 15 26 30 49 34
52 3 3 9 15 13 28 6 19 26 32 26 16z m-182 -91 c-10 -2 -28 -2 -40 0 -13 2 -5
4 17 4 22 1 32 -1 23 -4z m512 -20 c44 -91 -12 -153 -122 -138 -67 10 -60 25
11 25 88 0 111 11 111 55 0 20 -7 47 -16 60 -9 14 -12 25 -7 25 5 0 16 -12 23
-27z m-276 -9 c3 -8 2 -12 -4 -9 -6 3 -10 10 -10 16 0 14 7 11 14 -7z m221
-34 c26 -29 6 -45 -51 -44 -56 1 -74 21 -43 47 28 23 72 22 94 -3z m-230 -6
c32 -21 31 -30 -3 -42 -57 -20 -111 9 -82 43 16 20 55 19 85 -1z m120 -114 c3
-5 13 -7 23 -4 9 4 4 -3 -13 -13 -16 -11 -31 -16 -33 -11 -6 15 -54 8 -68 -9
-13 -17 -13 -17 -14 -1 0 15 -7 13 -42 -11 -51 -35 -118 -97 -141 -130 -9 -14
-19 -22 -23 -19 -3 4 4 15 15 25 12 9 21 23 21 29 0 18 110 115 148 131 19 8
46 11 62 8 16 -3 31 -2 35 4 8 14 22 14 30 1z m163 -59 c18 -13 31 -25 28 -28
-8 -8 -136 69 -130 79 5 8 51 -14 102 -51z m-79 -31 c63 -35 96 -62 129 -108
26 -36 28 -52 7 -52 -8 0 -19 -9 -25 -20 -6 -11 -34 -38 -64 -60 -49 -37 -57
-40 -118 -40 -95 0 -171 17 -233 53 -30 17 -55 34 -55 38 0 4 5 20 12 36 6 15
11 31 10 36 -1 4 3 7 8 7 6 0 10 -7 10 -16 0 -11 5 -14 18 -9 29 12 155 22
182 14 26 -8 22 -11 -20 -14 -80 -8 -173 -40 -173 -60 0 -5 21 -20 46 -33 42
-22 51 -23 161 -16 113 7 118 8 161 41 25 19 45 38 45 43 0 9 -81 28 -143 32
-60 5 -40 23 28 26 40 2 76 -2 99 -12 l37 -15 -21 28 c-11 16 -46 46 -77 67
-46 31 -67 39 -101 38 -39 -1 -40 0 -20 12 33 17 34 17 97 -16z m-194 -2 c-32
-12 -39 -17 -90 -67 -19 -18 -35 -29 -35 -24 0 26 107 104 140 102 8 0 2 -5
-15 -11z m62 -4 c-3 -3 -12 -4 -19 -1 -8 3 -5 6 6 6 11 1 17 -2 13 -5z m93
-364 c-8 -5 -31 -10 -50 -10 -19 0 -42 5 -50 10 -11 7 4 10 50 10 46 0 61 -3
50 -10z" id="node39" class="node"></path>
<path d="M1587 2021 c-17 -6 -16 -8 8 -19 34 -16 35 -15 35 8 0 21 -12 24 -43
11z" id="node40" class="node"></path>
<path d="M1650 2015 c0 -27 51 -48 64 -26 4 5 -3 7 -14 4 -13 -4 -26 1 -35 13
-8 11 -15 14 -15 9z" id="node41" class="node"></path>
<path d="M1745 2000 c-3 -6 1 -13 10 -16 19 -8 30 0 20 15 -8 14 -22 14 -30 1z" id="node42" class="node"></path>
<path d="M1085 1998 c10 -31 10 -31 35 -18 24 13 18 24 -18 35 -22 6 -23 5
-17 -17z" id="node43" class="node"></path>
<path d="M1050 1986 c0 -8 -6 -17 -12 -20 -7 -3 -4 -5 7 -3 20 2 35 37 16 37
-6 0 -11 -6 -11 -14z" id="node44" class="node"></path>
<path d="M942 1958 c6 -18 28 -21 28 -4 0 9 -7 16 -16 16 -9 0 -14 -5 -12 -12z" id="node45" class="node"></path>
<path d="M995 1960 c3 -5 11 -10 16 -10 6 0 7 5 4 10 -3 6 -11 10 -16 10 -6 0
-7 -4 -4 -10z" id="node46" class="node"></path>
<path d="M2143 1823 c-12 -2 -34 -18 -48 -35 -23 -27 -25 -37 -21 -87 3 -31 5
-91 5 -135 l1 -79 21 27 c20 26 21 29 5 69 -23 60 -20 92 11 148 36 62 60 76
100 55 26 -13 30 -21 30 -57 l0 -42 -16 27 c-19 32 -51 42 -80 26 l-22 -11 26
-30 c14 -17 25 -43 25 -57 0 -19 -3 -23 -9 -13 -18 28 -31 -1 -31 -69 0 -56 3
-68 14 -64 22 9 36 60 36 135 0 75 19 108 21 37 3 -78 -3 -123 -20 -151 -9
-16 -25 -47 -37 -69 -21 -41 -21 -41 -28 -14 -5 19 -13 26 -30 26 -20 0 -25
-6 -31 -46 -8 -54 5 -74 46 -74 31 0 36 8 84 135 15 39 38 98 52 132 23 57 25
66 14 124 -16 91 -37 108 -118 92z" id="node47" class="node"></path>
<path d="M621 1749 c-6 -18 -11 -59 -11 -92 0 -51 8 -79 51 -176 28 -64 57
-131 65 -148 11 -27 19 -33 45 -33 24 0 29 4 26 18 -3 9 -8 30 -11 45 -6 26
-10 28 -38 22 l-31 -7 20 25 c22 29 30 111 11 123 -8 5 -9 -2 -5 -25 5 -24 3
-31 -6 -28 -8 3 -12 29 -12 83 0 65 -3 78 -15 76 -8 -2 -18 -9 -22 -15 -19
-32 -37 -51 -44 -45 -4 4 -8 29 -9 55 -1 31 -1 35 2 11 2 -21 8 -38 12 -38 10
0 63 82 56 88 -3 3 -14 -3 -25 -13 -11 -10 -20 -13 -20 -8 0 6 7 16 15 23 13
11 13 14 -2 25 -13 10 -22 10 -30 3 -9 -7 -13 -7 -13 0 0 21 42 42 62 31 11
-6 22 -8 26 -5 10 10 -32 35 -60 36 -20 0 -28 -7 -37 -31z m82 -261 c4 -14 10
-34 13 -45 3 -10 -3 -4 -14 12 -11 17 -23 46 -27 65 -6 32 -6 33 8 15 8 -11
17 -32 20 -47z" id="node48" class="node"></path>
<path d="M1991 1110 c-43 -81 -64 -100 -188 -170 -183 -104 -308 -128 -523
-103 -107 12 -128 23 -259 133 l-54 45 7 -40 c14 -97 30 -296 29 -360 -1 -38
-5 -158 -8 -265 -7 -210 -10 -189 48 -323 l12 -27 379 2 379 3 47 142 c26 78
52 148 57 155 6 7 16 31 23 52 7 22 28 73 46 114 57 124 78 221 70 330 -4 51
-11 114 -16 140 -6 26 -14 85 -18 132 l-8 85 -23 -45z m-816 -396 c4 -21 25
-72 46 -113 22 -40 38 -76 36 -78 -9 -8 -66 80 -73 111 -3 17 -10 36 -14 41
-4 6 -10 27 -14 48 -4 21 -10 46 -13 55 -4 12 -1 11 10 -4 8 -11 18 -38 22
-60z m595 29 c0 -20 -3 -24 -11 -16 -7 7 -9 19 -6 27 10 24 17 19 17 -11z
m-23 -55 c-3 -8 -6 -5 -6 6 -1 11 2 17 5 13 3 -3 4 -12 1 -19z" id="node49" class="node"></path>
<path d="M2050 1060 c0 -5 5 -10 11 -10 5 0 7 5 4 10 -3 6 -8 10 -11 10 -2 0
-4 -4 -4 -10z" id="node50" class="node"></path>
<path d="M2071 977 c-6 -6 -11 -18 -11 -26 0 -11 3 -10 14 4 12 17 17 17 45 5
17 -7 36 -21 41 -31 16 -30 11 -78 -10 -99 -20 -20 -20 -20 0 -20 10 0 36 -14
56 -32 l37 -32 -8 33 c-4 18 -15 41 -25 51 -10 10 -21 37 -25 61 -4 26 -17 53
-30 65 -27 25 -70 35 -84 21z" id="node51" class="node"></path>
<path d="M2088 854 c-5 -4 -8 -16 -8 -28 0 -14 3 -17 11 -9 6 6 9 19 7 28 -1
9 -6 13 -10 9z" id="node52" class="node"></path>
<path d="M938 825 c-22 -29 -23 -39 -3 -31 18 7 18 -2 0 -34 -20 -35 -19 -37
14 -36 27 1 28 3 23 41 -3 22 -9 43 -14 46 -5 3 -6 13 -2 22 9 24 2 21 -18 -8z" id="node53" class="node"></path>
<path d="M2300 810 c0 -5 5 -10 11 -10 5 0 7 5 4 10 -3 6 -8 10 -11 10 -2 0
-4 -4 -4 -10z" id="node54" class="node"></path>
<path d="M2265 732 l0 -77 33 10 c39 12 40 17 6 35 -23 13 -25 19 -20 51 4 24
1 40 -7 47 -10 9 -12 -5 -12 -66z" id="node55" class="node"></path>
<path d="M2087 773 c-4 -3 -7 -11 -7 -17 0 -6 5 -5 12 2 6 6 9 14 7 17 -3 3
-9 2 -12 -2z" id="node56" class="node"></path>
<path d="M2407 763 c-4 -3 -7 -17 -7 -29 0 -14 -8 -25 -21 -29 -18 -6 -20 -12
-15 -44 3 -22 16 -45 34 -61 40 -34 46 -56 20 -74 -31 -22 -22 -81 39 -263 10
-29 21 -43 32 -43 28 0 103 -40 136 -74 17 -17 44 -40 59 -51 18 -13 29 -32
33 -55 6 -42 6 -42 33 -38 l21 3 -21 23 c-11 12 -18 22 -15 22 3 0 -3 17 -14
38 -25 49 -94 118 -142 143 -22 10 -39 23 -39 28 0 4 22 27 49 49 31 27 52 53
56 72 4 17 17 41 30 53 26 25 42 87 22 87 -20 -1 -64 -43 -89 -85 -34 -60
-111 -155 -125 -155 -22 0 -26 41 -7 65 11 13 32 39 47 59 38 47 27 62 -22 32
-29 -18 -41 -22 -50 -13 -28 28 4 77 50 77 13 0 41 11 60 24 20 14 49 28 65
32 16 4 61 20 99 36 68 29 72 29 137 17 49 -9 74 -9 90 -2 22 10 21 12 -24 32
-40 18 -58 21 -113 15 -57 -6 -69 -4 -88 13 -23 22 -67 36 -67 23 0 -4 7 -10
15 -14 29 -11 15 -26 -25 -26 -28 0 -43 5 -47 16 -4 11 -17 15 -44 13 -26 -2
-44 3 -58 15 -20 18 -21 18 -30 -5 -7 -21 -5 -25 18 -31 14 -4 33 -18 43 -30
17 -23 17 -23 63 -6 36 14 52 15 67 7 24 -13 19 -19 -46 -53 -60 -32 -95 -33
-131 -4 -16 12 -42 29 -59 38 -45 23 -53 43 -28 68 12 12 22 32 22 45 0 13 5
28 12 35 9 9 9 12 -3 12 -9 0 -19 -3 -22 -7z" id="node57" class="node"></path>
<path d="M2137 733 c-12 -12 -8 -20 18 -31 28 -13 30 -10 15 19 -11 20 -22 24
-33 12z" id="node58" class="node"></path>
<path d="M793 683 c-7 -15 -13 -35 -13 -45 0 -17 -10 -22 -36 -19 -6 1 -16
-10 -22 -24 -11 -24 -10 -25 13 -19 32 8 44 -19 21 -45 -9 -10 -16 -28 -16
-41 0 -13 -7 -32 -17 -42 -15 -17 -15 -19 0 -36 21 -23 22 -52 2 -78 -8 -10
-15 -33 -15 -50 0 -34 -35 -74 -64 -74 -10 0 -34 9 -52 21 l-34 21 -9 -24 c-7
-18 -5 -24 9 -26 10 -2 25 -11 34 -21 16 -17 15 -23 -5 -77 -30 -83 -41 -92
-108 -97 -53 -3 -52 -3 16 -5 63 -2 74 1 83 18 9 17 17 19 53 14 l42 -6 -33
23 c-30 19 -33 26 -30 63 l3 41 50 -1 c35 -1 53 3 62 15 18 25 39 1 23 -28 -6
-12 -10 -32 -8 -44 3 -18 6 -14 17 18 8 22 27 59 42 83 16 24 29 55 29 70 l-1
27 -13 -31 c-15 -35 -51 -64 -78 -64 -24 0 -23 42 2 99 11 24 20 51 20 61 0
10 7 23 15 30 22 18 41 -2 51 -53 7 -37 8 -38 11 -14 4 25 33 40 33 16 0 -6 9
-22 20 -36 26 -33 26 -23 0 19 -11 18 -20 43 -20 56 0 34 29 24 51 -17 24 -45
39 -60 39 -40 0 9 -9 24 -20 34 -11 10 -20 23 -20 30 0 7 -9 20 -21 31 -11 10
-18 26 -16 36 9 32 -23 20 -44 -17 -12 -19 -25 -35 -30 -35 -17 0 -9 57 11 75
11 10 20 31 20 46 l0 28 -39 -42 c-33 -35 -41 -39 -46 -25 -4 11 2 29 15 48
18 26 20 33 9 46 -11 14 -10 18 6 30 14 10 22 11 32 2 21 -17 27 -1 9 26 -22
35 -20 39 13 33 21 -4 31 -2 35 9 8 22 9 22 -18 17 -13 -3 -27 0 -30 6 -11 17
-20 13 -33 -16z" id="node59" class="node"></path>
<path d="M2085 619 c-26 -28 -27 -31 -7 -25 26 9 91 -11 110 -33 18 -22 15
-78 -5 -89 -14 -9 -14 -11 5 -21 13 -7 22 -21 22 -34 0 -20 4 -23 35 -19 75 9
119 -35 79 -79 -22 -24 -11 -53 16 -44 14 5 20 2 20 -10 0 -12 35 -35 53 -35
1 0 2 14 2 30 0 20 -6 32 -18 36 -38 12 -61 100 -32 124 8 7 15 21 15 31 0 20
-15 25 -25 9 -8 -14 -47 -12 -66 3 -26 20 -40 55 -33 82 4 15 2 25 -5 25 -7 0
-11 -21 -11 -55 0 -30 -4 -55 -10 -55 -5 0 -10 23 -10 51 0 39 -6 59 -27 87
-15 20 -27 38 -28 39 0 1 -11 4 -25 8 -20 4 -31 -1 -55 -26z" id="node60" class="node"></path>
<path d="M894 604 c19 -28 14 -44 -15 -44 -10 0 -19 -6 -19 -14 0 -23 22 -31
32 -12 12 21 48 21 48 -1 0 -9 -10 -27 -22 -40 l-21 -23 23 -25 c13 -14 27
-25 31 -25 15 0 21 69 10 101 -9 26 -8 36 4 49 22 24 19 43 -5 35 -11 -4 -34
1 -51 9 l-31 15 16 -25z" id="node61" class="node"></path>
<path d="M2331 576 c-12 -14 -5 -26 16 -26 15 0 18 26 4 34 -5 3 -14 0 -20 -8z" id="node62" class="node"></path>
<path d="M656 555 c-17 -13 -15 -35 3 -35 8 0 23 41 18 46 -1 1 -10 -4 -21
-11z" id="node63" class="node"></path>
<path d="M2850 545 c0 -8 2 -15 4 -15 2 0 6 7 10 15 3 8 1 15 -4 15 -6 0 -10
-7 -10 -15z" id="node64" class="node"></path>
<path d="M2884 541 c3 -4 19 -14 36 -21 16 -7 30 -20 30 -29 0 -21 -60 -81
-80 -81 -8 0 -30 -9 -49 -21 -43 -26 -65 -19 -57 19 4 15 15 34 25 42 9 9 25
27 35 42 17 26 17 26 -5 33 -28 9 -45 -8 -68 -72 -10 -28 -33 -72 -51 -98
l-32 -47 33 7 c19 4 46 16 60 26 38 26 65 30 157 21 87 -8 100 -2 62 30 -29
25 -35 62 -15 92 10 14 21 26 26 26 5 0 9 9 9 20 0 18 -7 20 -61 20 -33 0 -58
-4 -55 -9z" id="node65" class="node"></path>
<path d="M2080 521 c0 -7 14 -20 30 -29 17 -9 33 -25 36 -35 3 -10 8 -16 11
-14 9 9 -21 77 -33 77 -7 0 -19 3 -28 6 -9 3 -16 1 -16 -5z" id="node66" class="node"></path>
<path d="M1997 432 c-9 -21 -17 -41 -17 -43 0 -3 16 -3 37 -1 35 4 36 4 30
-26 l-6 -30 29 15 c37 18 44 13 75 -47 14 -28 41 -60 62 -75 45 -30 53 -31 53
-5 0 13 7 20 19 20 11 0 23 5 26 10 11 17 -15 40 -45 40 -36 0 -64 32 -56 64
6 24 4 24 -29 19 l-35 -6 6 34 c3 20 2 29 -3 22 -10 -15 -73 4 -104 31 -11 9
-21 16 -22 16 -2 0 -11 -17 -20 -38z" id="node67" class="node"></path>
<path d="M473 443 c-7 -2 -13 -15 -13 -29 0 -16 -9 -28 -29 -39 -16 -8 -32
-24 -36 -35 -3 -11 -13 -20 -21 -20 -8 0 -14 -4 -14 -9 0 -5 -12 -24 -27 -42
-23 -28 -25 -32 -8 -25 60 25 88 13 43 -18 -29 -20 -68 -21 -68 -1 0 25 -39
18 -49 -9 -6 -14 -21 -26 -38 -29 -15 -4 -38 -9 -50 -13 -20 -5 -23 -2 -29 35
l-7 42 -28 -27 c-16 -15 -25 -30 -20 -34 11 -6 31 -55 31 -76 0 -22 -49 -59
-78 -59 -22 0 -28 -5 -30 -27 -3 -23 1 -28 17 -28 12 0 21 4 21 9 0 15 87 61
104 55 9 -3 16 -10 16 -14 0 -17 66 57 85 95 17 33 25 40 50 40 23 0 33 -7 43
-27 18 -39 1 -68 -41 -68 l-31 0 23 -16 c17 -12 22 -24 19 -45 -5 -29 -4 -29
49 -29 40 0 53 4 53 15 0 8 5 15 12 15 6 0 9 3 6 6 -3 3 -15 0 -26 -7 -17 -11
-25 -11 -46 1 -14 7 -26 17 -26 21 0 15 47 40 90 47 42 7 44 9 86 92 23 47 41
87 39 88 -8 8 -75 -23 -75 -34 0 -18 -27 -24 -40 -9 -6 8 -10 28 -8 46 3 29
10 37 58 62 71 37 84 49 75 77 l-7 22 -27 -26 c-35 -34 -45 -33 -37 4 3 17 4
30 3 29 -1 0 -8 -3 -14 -6z m-55 -239 c16 -11 22 -25 22 -55 0 -47 -18 -52
-55 -14 -29 28 -32 45 -9 45 11 0 14 6 9 20 -8 24 3 25 33 4z m-188 -50 c0
-23 -20 -55 -30 -49 -5 3 -11 1 -15 -5 -3 -5 -19 -10 -36 -10 -50 0 -33 39 30
67 37 16 51 15 51 -3z" id="node68" class="node"></path>
<path d="M647 426 c-3 -8 -3 -17 0 -20 9 -9 34 15 27 25 -8 13 -21 11 -27 -5z" id="node69" class="node"></path>
<path d="M360 390 c-8 -5 -12 -12 -9 -15 4 -3 12 1 19 10 14 17 11 19 -10 5z" id="node70" class="node"></path>
<path d="M233 317 c-58 -42 -57 -57 4 -46 26 5 52 14 57 19 6 6 19 10 31 11
16 0 15 2 -7 11 -16 5 -28 16 -28 24 0 20 -9 17 -57 -19z" id="node71" class="node"></path>
<path d="M623 328 c2 -7 10 -13 17 -13 7 0 15 6 18 13 2 7 -5 12 -18 12 -13 0
-20 -5 -17 -12z" id="node72" class="node"></path>
<path d="M1970 301 c0 -6 5 -13 10 -16 6 -3 10 1 10 9 0 9 -4 16 -10 16 -5 0
-10 -4 -10 -9z" id="node73" class="node"></path>
<path d="M2856 301 c-4 -5 12 -7 36 -4 57 8 61 13 10 13 -22 0 -43 -4 -46 -9z" id="node74" class="node"></path>
<path d="M2968 303 c6 -2 18 -2 25 0 6 3 1 5 -13 5 -14 0 -19 -2 -12 -5z" id="node75" class="node"></path>
<path d="M2820 290 c-13 -8 -12 -10 3 -10 9 0 17 5 17 10 0 12 -1 12 -20 0z" id="node76" class="node"></path>
<path d="M2690 243 c0 -5 16 -24 35 -43 19 -19 35 -38 35 -43 0 -5 11 -22 25
-39 14 -16 25 -38 25 -49 0 -10 5 -19 10 -19 6 0 10 -11 10 -25 0 -16 6 -25
15 -25 8 0 15 9 15 20 0 11 -6 20 -12 20 -10 0 -9 3 1 9 10 6 10 10 1 16 -6 4
-20 27 -30 51 -11 24 -24 44 -30 44 -5 0 -10 9 -10 20 0 11 6 20 13 20 23 0
81 -20 87 -29 3 -6 31 -13 63 -17 l57 -7 0 53 0 52 -37 -6 c-58 -9 -215 -9
-245 -1 -16 4 -28 3 -28 -2z" id="node77" class="node"></path>
<path d="M850 211 c0 -20 6 -30 20 -34 26 -7 27 -51 2 -92 -24 -38 -18 -55 18
-55 16 0 30 -7 34 -15 4 -10 20 -15 51 -15 51 0 54 7 26 58 l-17 33 -12 -25
c-26 -59 -52 -16 -28 47 9 24 16 55 16 70 0 26 -2 28 -34 22 -27 -6 -39 -2
-55 14 l-21 21 0 -29z" id="node78" class="node"></path>
<path d="M1913 221 c-13 -20 -46 -115 -57 -163 -3 -14 -9 -33 -12 -42 -13 -34
32 -14 63 29 29 39 31 47 20 74 -13 36 3 61 39 61 15 0 24 6 24 15 0 9 -9 15
-21 15 -12 0 -27 7 -33 15 -10 13 -13 13 -23 -4z" id="node79" class="node"></path>
<path d="M2078 233 c0 -4 -2 -13 -2 -19 -1 -6 -16 -25 -33 -42 -17 -18 -34
-45 -38 -62 -4 -17 -20 -39 -38 -52 -18 -13 -40 -31 -49 -40 -17 -17 -16 -18
21 -18 31 0 46 7 74 35 44 44 65 44 108 0 33 -33 37 -35 107 -35 44 0 72 4 72
11 0 5 -5 7 -10 4 -15 -9 -78 33 -86 57 -8 25 9 37 56 39 l35 1 -45 12 c-70
20 -102 40 -119 77 -15 31 -49 52 -53 32z m59 -100 c47 -44 69 -83 53 -93 -26
-16 -130 69 -130 106 0 24 46 16 77 -13z" id="node80" class="node"></path>
<path d="M2338 219 c-18 -10 -25 -59 -9 -59 12 0 27 20 35 48 8 24 1 27 -26
11z" id="node81" class="node"></path>
<path d="M2430 198 c0 -12 -7 -30 -17 -40 -15 -17 -14 -18 20 -18 41 0 42 3
26 49 -13 36 -29 41 -29 9z" id="node82" class="node"></path>
<path d="M2493 125 c-22 -25 -4 -45 40 -45 l41 0 -29 30 c-32 34 -35 35 -52
15z" id="node83" class="node"></path>
<path d="M31 94 c0 -11 3 -14 6 -6 3 7 2 16 -1 19 -3 4 -6 -2 -5 -13z" id="node84" class="node"></path>
<path d="M2360 86 c0 -14 5 -37 10 -52 10 -25 12 -26 29 -10 9 9 27 16 39 16
12 0 22 5 22 10 0 6 -7 10 -15 10 -8 0 -22 11 -31 25 -22 33 -54 33 -54 1z" id="node85" class="node"></path>
<path d="M480 89 c0 -5 5 -7 10 -4 6 3 10 8 10 11 0 2 -4 4 -10 4 -5 0 -10 -5
-10 -11z" id="node86" class="node"></path>
<path d="M2910 90 c1 -18 20 -26 53 -22 51 6 47 19 -8 24 -25 2 -45 1 -45 -2z" id="node87" class="node"></path>
<path d="M2940 20 c0 -16 7 -20 31 -20 17 0 28 4 24 10 -3 6 -13 10 -21 10 -8
0 -14 5 -14 10 0 6 -4 10 -10 10 -5 0 -10 -9 -10 -20z" id="node88" class="node"></path>
<path d="M156 21 c-4 -7 -5 -15 -2 -18 9 -9 19 4 14 18 -4 11 -6 11 -12 0z" id="node89" class="node"></path>
<path d="M780 23 c-52 -10 -44 -23 14 -23 42 0 57 3 54 13 -5 13 -30 17 -68
10z" id="node90" class="node"></path>
<path d="M2595 10 c-3 -5 3 -10 15 -10 12 0 18 5 15 10 -3 6 -10 10 -15 10 -5
0 -12 -4 -15 -10z" id="node91" class="node"></path>
</g>
</svg>