<!--?xml version="1.0" standalone="no"?-->

<svg version="1.0" xmlns="http://www.w3.org/2000/svg" width="253.000000pt" height="300.000000pt" viewBox="0 0 253.000000 300.000000" preserveAspectRatio="xMidYMid meet">
<g transform="translate(0.000000,300.000000) scale(0.100000,-0.100000)" fill="#070707" stroke="none">
<path d="M1256 2839 c-17 -4 -34 -15 -38 -24 -12 -20 -35 -19 -46 1 -8 15 -11
15 -33 1 -13 -9 -58 -21 -99 -28 -41 -7 -79 -18 -83 -26 -4 -7 -14 -13 -22
-13 -7 0 -27 -13 -43 -30 -17 -16 -39 -30 -49 -30 -10 0 -23 -10 -28 -21 -6
-12 -13 -21 -17 -20 -5 0 -16 -6 -25 -14 -10 -9 -35 -29 -56 -46 -28 -24 -35
-35 -27 -44 8 -10 8 -20 -2 -36 -23 -40 -34 -47 -74 -47 -58 0 -61 -1 -34 -15
36 -18 37 -42 1 -58 -24 -11 -31 -21 -36 -56 -4 -31 -2 -49 11 -67 18 -29 12
-76 -10 -76 -13 0 -26 -20 -26 -41 0 -5 9 -9 20 -9 28 0 35 -23 18 -58 -11
-21 -12 -35 -5 -53 6 -13 12 -33 13 -44 1 -11 5 -38 9 -60 3 -22 6 -46 7 -52
1 -7 4 -13 8 -13 4 0 7 -21 7 -47 0 -62 7 -88 23 -88 21 0 23 -22 3 -43 -10
-10 -26 -33 -35 -50 -17 -31 -16 -32 5 -29 19 2 22 -3 21 -33 -2 -97 -13 -173
-29 -190 -17 -19 -11 -48 10 -49 6 -1 11 -5 11 -11 3 -25 7 -22 24 18 20 44
40 56 40 22 0 -11 5 -20 10 -20 6 0 10 -11 10 -25 0 -23 -4 -25 -42 -25 -24 0
-69 -7 -101 -14 -33 -8 -77 -11 -98 -9 -34 5 -39 3 -39 -14 0 -10 13 -34 30
-53 16 -19 29 -40 30 -45 0 -6 9 -17 21 -25 48 -35 139 -189 139 -238 0 -12
-7 -34 -16 -47 -16 -24 -21 -25 -108 -23 -79 2 -101 -2 -161 -26 -102 -40
-118 -49 -131 -74 -6 -13 -21 -30 -33 -38 -20 -15 -21 -22 -21 -223 0 -235 -5
-221 79 -221 36 0 66 10 127 41 43 23 90 50 104 59 43 30 70 34 85 13 8 -10
14 -20 15 -23 0 -3 -27 -20 -60 -39 -33 -19 -58 -37 -55 -39 2 -2 28 10 58 27
64 36 67 37 67 12 0 -12 -9 -21 -25 -25 -14 -4 -25 -10 -25 -15 0 -9 278 -13
292 -5 8 5 -18 120 -37 161 -8 17 -15 36 -15 43 0 6 -7 25 -16 41 -16 31 -11
56 6 29 13 -21 13 40 0 74 -11 31 0 39 36 26 34 -13 40 -7 25 26 -14 32 -7 42
16 22 32 -27 150 -86 202 -102 l51 -15 0 24 c0 13 8 28 17 34 16 8 16 13 5 43
-12 32 -11 34 25 65 21 18 41 33 46 33 4 0 7 7 7 16 0 9 14 40 32 69 33 56 60
74 160 111 48 17 166 112 210 169 l23 30 -36 -31 c-20 -17 -77 -47 -127 -67
-49 -20 -105 -45 -124 -57 -37 -22 -155 -28 -204 -10 -18 7 -30 7 -39 0 -8 -6
-25 -8 -42 -4 -34 9 -130 61 -140 77 -17 27 -45 146 -47 202 -1 33 -10 73 -19
90 -9 17 -17 38 -17 48 0 22 -16 54 -42 81 -29 31 -68 119 -68 153 0 42 27 63
82 63 58 0 108 10 108 21 0 5 -16 9 -35 9 -28 0 -35 4 -35 20 0 11 5 20 10 20
6 0 10 -4 10 -9 0 -5 12 -12 27 -16 23 -5 32 -2 50 21 18 23 24 26 37 15 9 -8
16 -19 16 -27 0 -19 19 -27 34 -15 10 8 17 7 26 -4 24 -29 32 -16 28 50 -3 49
-9 70 -26 88 -29 31 -105 68 -167 82 -65 15 -72 42 -22 94 19 20 38 44 43 53
5 9 24 27 43 40 20 13 39 38 46 57 9 27 21 39 53 53 l43 17 22 -26 c12 -14 31
-34 42 -45 20 -19 20 -19 37 1 42 52 70 11 75 -109 5 -124 13 -189 24 -196 6
-3 12 -4 13 -3 2 2 0 60 -4 129 -5 85 -4 127 3 132 8 5 7 14 -1 32 -16 36 4
33 23 -3 13 -26 13 -33 0 -65 -9 -20 -11 -36 -6 -36 8 0 23 31 36 78 4 13 9
21 12 18 4 -3 12 -1 18 4 9 8 21 2 43 -20 17 -16 41 -30 54 -31 13 0 32 -2 43
-4 10 -2 25 1 32 6 9 8 14 4 19 -18 4 -15 22 -55 40 -89 19 -33 34 -68 34 -77
0 -10 4 -17 9 -17 4 0 18 -28 31 -61 27 -75 25 -169 -10 -394 -12 -75 -12 -85
-1 -85 5 0 13 17 18 37 6 26 15 39 30 43 16 3 20 9 14 18 -18 30 14 102 46
102 9 0 13 14 13 45 0 34 5 47 19 55 27 14 31 13 31 -10 0 -23 10 -26 28 -8
20 20 15 -32 -8 -77 -11 -21 -25 -54 -31 -74 -33 -100 -80 -157 -125 -149 -34
6 -48 -73 -48 -292 -1 -216 9 -276 45 -265 12 4 21 1 25 -9 8 -20 24 -21 24
-1 0 12 53 42 107 59 13 4 34 -4 62 -24 l42 -31 -21 -28 c-11 -16 -20 -38 -20
-50 0 -20 -8 -24 -102 -46 -17 -4 -35 -1 -53 11 -26 17 -26 17 -67 -22 -79
-75 -120 -119 -149 -162 -35 -49 -129 -230 -129 -248 0 -9 38 -12 141 -12
l141 1 87 43 c91 47 151 65 151 45 0 -6 -10 -11 -22 -11 -25 0 -130 -52 -135
-67 -3 -8 44 -9 124 -4 13 0 29 15 42 36 21 36 49 50 36 17 -21 -47 -13 -56
49 -57 39 0 60 4 63 12 7 18 39 16 67 -2 29 -19 71 -6 81 26 9 29 74 99 91 99
8 0 37 15 64 32 44 30 50 37 50 70 0 35 -1 37 -50 49 -45 12 -60 26 -44 42 3
3 26 -3 50 -13 l44 -19 0 53 0 54 -37 4 c-21 3 -47 2 -58 -2 -41 -15 -175 95
-175 144 0 38 52 43 155 15 90 -24 88 -24 80 2 -20 63 -115 237 -151 278 l-42
46 -153 -1 c-105 -1 -156 2 -161 10 -12 18 -9 36 6 36 8 0 25 10 38 22 20 20
23 33 23 98 0 41 -4 82 -10 90 -12 18 -7 143 6 151 6 3 3 11 -6 19 -18 15 -20
51 -3 68 18 18 31 14 25 -7 -3 -14 0 -17 13 -14 16 4 18 13 13 72 -4 58 -2 68
16 85 27 25 27 73 0 102 -16 17 -21 37 -23 90 -2 38 -6 81 -10 96 -7 22 -4 27
14 30 l22 3 -22 25 c-14 16 -19 32 -15 47 3 13 -1 33 -11 48 -9 13 -18 52 -21
85 -5 52 -10 64 -34 81 -24 17 -27 25 -22 50 4 23 0 36 -17 54 -13 14 -29 25
-35 25 -18 0 -45 34 -54 66 -6 22 -13 28 -29 27 -18 -2 -22 3 -22 23 0 21 -4
24 -20 19 -17 -5 -21 -1 -26 25 -4 19 -11 29 -19 26 -7 -2 -22 5 -33 17 -12
12 -38 31 -59 42 -21 11 -47 29 -59 41 -28 29 -74 58 -74 47 0 -5 -19 -8 -42
-7 -25 1 -42 7 -40 13 3 13 -15 15 -23 2 -3 -6 -18 -6 -38 0 -17 5 -32 9 -32
8 0 0 -13 -5 -29 -10z" id="node1" class="node"></path>


<path d="M1395 1889 c-83 -11 -130 -25 -150 -46 -20 -19 -20 -82 0 -89 8 -4
15 -14 15 -23 1 -20 25 -53 33 -44 4 3 20 0 37 -7 17 -7 33 -10 37 -7 3 4 -6
11 -21 16 -27 11 -30 18 -20 45 9 22 31 20 39 -4 3 -11 15 -25 26 -30 24 -13
55 1 64 30 7 24 30 26 39 5 9 -24 -5 -46 -38 -61 l-31 -14 40 6 c40 7 95 51
95 78 0 17 -29 42 -63 55 -22 9 -29 8 -33 -4 -7 -17 -50 -20 -60 -4 -3 6 0 15
7 20 8 5 10 9 4 9 -5 0 2 11 17 25 36 33 81 33 126 -2 19 -14 32 -20 30 -12
-3 8 1 22 9 31 13 15 13 16 -5 12 -10 -3 -36 2 -57 10 -41 17 -39 17 -140 5z" id="node4" class="node"></path>
<path d="M1566 1783 c4 -16 16 -39 27 -53 15 -19 18 -20 12 -5 -4 11 -13 35
-19 53 -13 39 -29 43 -20 5z" id="node5" class="node"></path>
<path d="M1036 1601 c-4 -7 -5 -15 -2 -18 9 -9 19 4 14 18 -4 11 -6 11 -12 0z" id="node6" class="node"></path>

<path d="M1035 1519 c-5 -15 -13 -20 -30 -16 -25 4 -35 -8 -35 -43 0 -15 8
-19 38 -20 20 0 48 -1 62 -1 14 0 51 0 82 1 55 3 56 3 46 26 -12 26 -28 30
-46 12 -8 -8 -22 -2 -56 25 -24 21 -47 37 -50 37 -2 0 -8 -9 -11 -21z" id="node8" class="node"></path>
<path d="M886 1313 c-12 -13 -5 -44 14 -60 11 -10 20 -23 20 -29 0 -7 16 -26
36 -43 35 -31 37 -32 126 -29 116 4 130 23 22 31 -76 6 -103 20 -104 55 0 12
7 12 173 14 28 0 64 -3 78 -7 15 -4 38 -5 50 -3 22 4 21 5 -12 20 -54 24 -146
36 -299 41 -41 2 -80 6 -86 10 -6 3 -14 4 -18 0z" id="node9" class="node"></path>

<path d="M453 297 c-40 -23 -72 -46 -73 -50 0 -5 19 3 43 17 23 14 61 35 85
46 23 12 42 23 42 25 0 13 -32 0 -97 -38z" id="node11" class="node"></path>

</g>
<g transform="translate(0.000000,300.000000) scale(0.100000,-0.100000)" fill="#A1A1A1" stroke="none">

</g>
</svg>