<!--?xml version="1.0" standalone="no"?--><svg version="1.0" xmlns="http://www.w3.org/2000/svg" width="300.000000pt" height="266.000000pt" viewBox="0 0 300.000000 266.000000" preserveAspectRatio="xMidYMid meet">
<metadata>
  <rdf:rdf xmlns:rdf="http://www.w3.org/1999/02/22-rdf-syntax-ns#" xmlns:rdfs="http://www.w3.org/2000/01/rdf-schema#" xmlns:dc="http://purl.org/dc/elements/1.1/">
    <rdf:description dc:title="mother teresa stencil" dc:publisher="Hiox" dc:date="2015-05-07" dc:format="image/svg+xml" dc:language="en">
      <dc:creator>
        <rdf:bag>
          <rdf:li>svgimages.com</rdf:li>
        </rdf:bag>
      </dc:creator>
    </rdf:description>
  </rdf:rdf>
</metadata>
<g transform="translate(0.000000,266.000000) scale(0.100000,-0.100000)" fill="#1D1D1D" stroke="none">
<path d="M1420 2555 c-142 -26 -185 -39 -265 -77 -100 -47 -178 -108 -250
-195 -105 -126 -152 -226 -161 -343 -4 -45 -17 -90 -41 -143 -43 -95 -54 -186
-29 -235 15 -28 15 -42 4 -116 -10 -73 -15 -86 -36 -98 -68 -36 -97 -132 -52
-173 24 -22 26 -48 4 -66 -12 -10 -15 -25 -11 -55 4 -42 4 -42 -59 -83 -35
-23 -72 -54 -83 -70 -14 -19 -32 -30 -56 -34 -49 -8 -127 -68 -164 -126 -17
-26 -31 -52 -31 -58 0 -6 -14 -27 -30 -48 -31 -39 -76 -164 -67 -187 2 -7 9 3
15 22 29 95 54 143 99 191 63 67 155 115 348 180 50 17 104 39 120 49 64 39
135 59 187 53 l49 -6 -5 -41 -5 -41 12 40 c16 52 60 144 69 145 4 0 15 -15 24
-33 9 -17 35 -57 58 -87 22 -31 50 -76 62 -100 73 -155 76 -160 166 -241 100
-89 123 -101 186 -98 53 4 60 -5 68 -89 9 -81 -5 -106 -54 -97 -21 4 -50 8
-67 11 -25 3 -23 1 10 -10 43 -16 98 -20 108 -9 4 4 31 6 60 4 36 -1 74 6 122
23 38 14 70 24 72 22 1 -1 -23 -54 -55 -118 -77 -155 -91 -188 -81 -188 4 0
16 12 26 26 10 14 34 45 54 68 20 22 57 73 84 111 26 39 53 77 60 85 7 8 33
53 56 100 63 123 199 257 199 196 0 -8 -33 -47 -74 -88 -69 -69 -74 -76 -80
-128 -5 -33 -18 -73 -35 -100 -16 -25 -44 -73 -64 -106 -19 -34 -43 -75 -53
-90 l-18 -29 31 28 c17 16 55 69 84 119 43 71 65 98 108 126 29 21 86 66 127
102 40 36 102 81 138 100 64 34 65 34 100 17 20 -9 45 -31 57 -49 18 -29 19
-42 14 -103 -10 -101 -7 -153 12 -208 14 -38 15 -55 6 -87 -5 -22 -6 -40 -2
-40 18 0 37 49 54 139 11 57 25 101 36 112 19 19 79 39 119 39 14 0 49 11 78
25 30 14 56 25 58 25 8 0 25 -84 22 -113 -2 -23 1 -32 12 -32 21 0 34 98 20
149 -7 22 -33 61 -62 92 -27 29 -57 66 -67 83 -19 35 -92 95 -144 119 -26 12
-40 26 -45 47 -5 17 -23 40 -43 53 -21 14 -37 36 -42 55 -10 39 -34 67 -56 67
-13 0 -12 -4 5 -18 46 -37 48 -79 7 -124 -9 -10 -12 -18 -7 -18 5 0 15 9 22
21 16 25 58 19 85 -13 27 -32 22 -58 -10 -58 -16 0 -52 -11 -81 -25 -67 -31
-83 -31 -110 0 -27 31 -49 32 -91 1 -31 -23 -64 -25 -77 -5 -3 5 -14 9 -26 9
-17 0 -19 4 -14 25 12 47 68 154 101 193 36 41 55 92 36 92 -6 0 -11 -7 -11
-16 0 -9 -19 -42 -42 -73 -44 -58 -56 -81 -102 -184 -28 -63 -46 -71 -73 -31
-13 20 -18 55 -21 143 -5 129 14 246 71 440 28 98 31 117 30 251 -2 241 -4
280 -13 280 -4 0 -6 -9 -3 -20 12 -44 -14 -16 -41 45 -46 107 -104 150 -266
198 -162 48 -311 58 -480 33 -150 -23 -269 -86 -391 -210 -67 -67 -103 -135
-125 -235 -15 -64 -19 -72 -30 -57 -7 10 -15 43 -19 75 -7 63 8 107 64 180 52
68 192 179 285 225 108 53 139 61 271 76 200 21 433 -17 563 -92 44 -25 125
-123 143 -173 7 -19 17 -35 21 -35 12 0 10 14 -12 74 -52 137 -220 231 -464
258 -200 21 -390 -8 -538 -83 -134 -68 -252 -172 -305 -268 -15 -29 -38 -71
-50 -94 -30 -55 -29 -102 2 -143 14 -18 25 -36 25 -40 0 -4 6 -15 14 -23 11
-12 12 -30 6 -75 -8 -52 -14 -65 -58 -110 l-50 -51 -6 -93 c-4 -51 -16 -123
-27 -160 -18 -58 -29 -75 -84 -128 -49 -48 -91 -75 -196 -127 -73 -36 -135
-65 -136 -63 -2 2 17 27 43 55 49 55 89 81 124 81 11 0 43 21 71 47 28 26 71
61 97 78 28 19 45 37 43 46 -9 29 -3 70 13 87 22 25 20 39 -9 74 -14 16 -25
40 -25 53 0 30 52 90 99 115 20 10 49 30 65 43 25 20 28 28 22 58 -3 19 -25
57 -47 84 -41 49 -41 51 -37 115 7 86 47 173 131 279 37 46 67 91 67 98 0 8
-16 -7 -37 -34 -47 -62 -76 -92 -84 -87 -3 2 0 37 7 79 15 88 66 191 125 255
22 24 52 59 66 77 59 78 236 176 356 199 85 16 234 19 303 5 106 -21 229 -71
291 -118 50 -38 165 -180 210 -258 67 -115 146 -349 158 -470 7 -66 36 -178
91 -353 l36 -113 -10 -154 c-9 -154 -9 -155 -47 -216 -20 -33 -35 -62 -33 -65
5 -4 56 72 81 122 12 23 17 69 19 190 l2 159 -37 110 c-40 115 -80 275 -92
360 -12 93 -70 276 -129 410 -8 17 -17 41 -21 55 -9 30 -49 102 -84 150 -71
97 -147 156 -270 209 -69 29 -247 37 -361 16z m315 -22 c124 -37 287 -166 335
-264 l21 -44 -26 30 c-15 17 -50 57 -78 89 -66 77 -146 127 -254 160 -48 15
-104 34 -123 41 -35 14 -35 14 20 9 30 -3 78 -12 105 -21z m0 -507 c121 -26
228 -79 289 -144 34 -37 91 -191 76 -206 -7 -7 -10 -3 -10 11 0 11 -16 52 -36
91 -74 149 -197 209 -490 243 -120 13 -219 7 -299 -21 -136 -47 -288 -167
-371 -293 -73 -109 -94 -117 -45 -15 36 76 98 144 203 221 106 78 189 114 303
131 59 9 311 -3 380 -18z m15 -225 c86 -23 195 -76 221 -108 13 -15 12 -16 -6
-9 -112 44 -262 66 -453 66 -202 0 -312 -21 -445 -85 l-32 -16 37 33 c51 46
158 98 258 125 73 20 103 23 210 19 86 -2 152 -10 210 -25z m-45 -85 c17 -12
16 -14 -11 -22 -24 -6 -15 -9 51 -14 85 -6 125 -25 204 -99 39 -37 41 -37 34
-11 -3 11 -23 36 -44 55 -22 19 -39 39 -39 44 0 14 52 0 92 -26 46 -28 66 -66
89 -166 15 -70 16 -85 3 -145 -7 -37 -20 -85 -28 -107 -8 -22 -19 -69 -26
-105 -15 -82 -47 -177 -72 -212 -11 -15 -37 -67 -59 -115 -23 -49 -51 -99 -62
-111 -28 -31 -175 -100 -235 -112 -59 -11 -218 5 -249 25 -12 9 -30 26 -38 39
-9 13 -33 35 -54 49 -21 14 -60 58 -86 99 -27 40 -70 102 -97 136 -27 35 -57
81 -68 102 -30 58 -77 193 -90 257 -7 31 -21 76 -31 100 -25 59 -24 71 10 125
39 61 120 119 210 152 39 14 74 26 77 26 14 0 -1 -32 -37 -79 -22 -29 -38 -55
-36 -57 2 -3 24 2 48 10 38 13 45 13 52 1 12 -23 80 -19 102 5 18 19 18 19 46
-1 16 -11 29 -17 29 -12 0 5 -15 16 -32 25 -66 35 -85 38 -140 23 -29 -7 -55
-12 -57 -9 -2 2 16 23 40 47 33 33 55 46 87 51 24 3 48 4 53 0 5 -3 16 -1 23
5 10 8 22 8 41 1 15 -6 30 -8 33 -6 3 3 -3 8 -12 12 -24 9 -19 22 12 27 71 11
249 7 267 -7z m-435 -136 c0 -5 -4 -10 -10 -10 -5 0 -10 5 -10 10 0 6 5 10 10
10 6 0 10 -4 10 -10z m-520 -134 c0 -25 -43 -71 -58 -62 -6 3 -6 24 -1 53 14
77 18 82 40 54 10 -13 19 -33 19 -45z m155 -154 c7 -35 4 -37 -26 -22 -16 9
-19 21 -18 73 l0 62 18 -41 c10 -22 22 -55 26 -72z m-113 47 c-7 -11 -24 -75
-37 -142 -38 -190 -50 -222 -104 -278 -26 -27 -53 -49 -61 -49 -9 0 -4 11 13
28 42 44 75 139 87 249 15 134 15 134 57 186 25 31 41 43 48 36 6 -6 5 -16 -3
-30z m53 -119 c-25 -142 -48 -214 -81 -249 -38 -41 -44 -29 -14 29 11 22 25
80 31 137 7 54 19 111 27 127 14 29 15 29 29 10 9 -12 12 -31 8 -54z m1179
-519 c20 -22 20 -31 0 -31 -22 0 -41 54 -49 142 -11 116 7 120 22 4 7 -60 18
-105 27 -115z m-729 -66 c65 -61 102 -76 201 -83 87 -5 171 13 230 49 17 10
37 19 44 19 7 0 34 16 61 36 48 35 50 36 75 19 34 -22 57 -80 50 -124 -10 -62
-26 -60 -26 4 0 47 -5 64 -22 82 -12 13 -24 23 -28 23 -3 0 -24 -16 -46 -35
-21 -19 -44 -35 -51 -35 -7 0 -27 -13 -46 -30 -19 -16 -46 -34 -62 -40 -15 -6
-25 -13 -22 -16 3 -4 27 6 52 22 26 16 58 36 73 44 15 8 38 23 52 33 34 24 39
22 33 -17 -4 -27 -1 -36 17 -49 l22 -15 -42 -76 c-25 -47 -52 -82 -69 -90 -49
-26 -145 -56 -177 -56 -29 0 -31 3 -42 53 -6 28 -15 71 -18 95 l-7 42 47 0
c25 0 46 4 46 9 0 8 -69 6 -147 -4 -54 -8 -95 10 -159 69 -29 25 -63 55 -77
66 -14 11 -35 35 -46 54 -40 64 -30 58 84 -49z m1295 75 c20 -5 51 -23 70 -38
l34 -29 -51 -6 c-29 -3 -72 -15 -96 -26 -81 -37 -177 -36 -177 2 0 27 70 80
129 98 36 10 51 10 91 -1z m-680 -137 c0 -22 -5 -33 -14 -33 -16 0 -27 24 -21
45 16 51 16 50 25 35 6 -8 10 -30 10 -47z m813 32 c39 -8 34 -27 -5 -20 -24 5
-49 -1 -88 -19 -57 -25 -161 -38 -167 -20 -2 5 32 21 74 34 126 39 123 39 186
25z m-423 -2 c0 -5 -20 -17 -43 -27 -23 -11 -86 -63 -141 -118 -100 -98 -133
-119 -121 -75 13 47 30 68 94 116 36 27 79 63 95 80 24 25 38 31 73 31 24 0
43 -3 43 -7z m467 -55 l28 -11 -35 -7 c-19 -3 -46 -13 -60 -22 -14 -9 -51 -18
-84 -21 -40 -4 -65 -12 -81 -27 l-22 -20 -11 25 c-10 21 -8 26 11 40 12 8 40
15 62 15 22 0 56 9 75 19 41 23 77 26 117 9z" id="node1" class="node" stroke-width="20"></path>
<path d="M1656 1641 c-14 -15 -16 -32 -12 -87 3 -38 5 -77 5 -86 1 -10 6 -18
11 -18 6 0 8 10 5 23 -14 60 -13 145 1 166 19 26 13 27 -10 2z" id="node2" class="node" stroke-width="20"></path>
<path d="M1445 1576 l3 -69 -52 -53 c-29 -30 -51 -54 -49 -54 19 0 87 58 100
85 18 38 33 45 34 18 0 -12 2 -13 6 -5 6 16 -16 44 -28 36 -6 -3 -7 11 -3 34
3 22 2 48 -4 58 -8 14 -10 2 -7 -50z" id="node3" class="node" stroke-width="20"></path>
<path d="M1788 1609 c-32 -8 -99 -60 -92 -71 8 -12 24 -10 22 3 -2 6 5 16 14
22 13 9 21 7 36 -6 10 -9 33 -17 51 -17 25 0 34 5 41 26 10 25 11 25 35 10 13
-9 32 -16 42 -16 23 0 -52 41 -92 50 -16 4 -42 3 -57 -1z" id="node4" class="node" stroke-width="20"></path>
<path d="M1730 1470 c17 -22 35 -40 40 -40 5 0 -8 18 -27 40 -20 22 -38 40
-40 40 -3 0 10 -18 27 -40z" id="node5" class="node" stroke-width="20"></path>

<path d="M1345 1273 c-17 -26 -33 -56 -38 -66 -13 -35 -38 -168 -34 -185 2 -9
9 10 16 43 25 125 31 144 62 194 18 28 30 53 28 56 -3 2 -18 -17 -34 -42z" id="node7" class="node" stroke-width="20"></path>
<path d="M1398 1285 c-12 -60 -10 -73 12 -95 16 -16 28 -19 61 -14 32 5 46 2
69 -14 50 -38 73 -37 124 2 26 19 53 39 60 43 8 5 16 18 18 31 2 19 9 13 37
-38 24 -45 35 -80 41 -133 l7 -72 2 65 c1 58 -4 74 -46 162 -27 53 -54 97 -61
98 -8 0 -11 -7 -8 -17 20 -68 19 -71 -21 -96 -21 -13 -44 -32 -52 -41 -20 -23
-62 -20 -101 9 -27 20 -44 25 -80 23 l-45 -3 -5 65 c-5 63 -5 64 -12 25z" id="node8" class="node" stroke-width="20"></path>

<path d="M1945 1123 c-11 -27 -15 -123 -5 -98 5 11 9 33 9 48 1 16 6 37 11 48
6 11 7 19 1 19 -5 0 -12 -8 -16 -17z" id="node10" class="node" stroke-width="20"></path>

<path d="M1408 986 c-84 -16 -83 -28 2 -22 87 6 192 8 235 6 l30 -2 -30 -8
c-55 -14 13 -11 80 4 l60 13 -85 6 c-171 13 -236 13 -292 3z" id="node12" class="node" stroke-width="20"></path>



<path d="M1170 2410 c-20 -6 -21 -8 -5 -8 11 0 34 4 50 8 27 7 27 8 5 8 -14 0
-36 -4 -50 -8z" id="node16" class="node" stroke-width="20"></path>
<path d="M1970 2156 c0 -2 14 -20 31 -38 41 -45 109 -161 126 -217 7 -25 16
-88 20 -138 3 -51 10 -93 16 -93 14 0 2 151 -18 225 -18 68 -102 208 -146 243
-16 13 -29 21 -29 18z" id="node17" class="node" stroke-width="20"></path>
<path d="M430 527 c0 -8 18 -34 41 -58 22 -23 51 -64 65 -91 14 -28 27 -48 29
-46 7 7 -40 96 -65 125 -14 15 -35 41 -48 57 -14 19 -22 23 -22 13z" id="node18" class="node" stroke-width="20"></path>
</g>
<g transform="translate(0.000000,266.000000) scale(0.100000,-0.100000)" fill="#A1A1A1" stroke="none">





<path d="M1250 1580 c0 -5 5 -10 10 -10 6 0 10 5 10 10 0 6 -4 10 -10 10 -5 0
-10 -4 -10 -10z" id="node24" class="node" stroke-width="20"></path>











</g>
</svg>