<!--?xml version="1.0" standalone="no"?-->

<svg version="1.0" xmlns="http://www.w3.org/2000/svg" width="300.000000pt" height="300.000000pt" viewBox="0 0 300.000000 300.000000" preserveAspectRatio="xMidYMid meet">
<g transform="translate(0.000000,300.000000) scale(0.100000,-0.100000)" fill="#0A0A0A" stroke="none">
<path d="M1425 2630 c-38 -4 -107 -19 -153 -33 -46 -15 -91 -27 -101 -27 -21
0 -99 -49 -125 -78 -11 -12 -22 -22 -27 -22 -10 0 -79 -62 -79 -72 0 -4 8 -8
19 -8 16 0 18 -7 16 -57 -2 -56 -1 -59 29 -73 40 -19 48 -50 13 -50 -20 0 -24
-4 -20 -21 3 -11 1 -30 -5 -42 -28 -55 -42 -102 -42 -138 0 -21 -5 -41 -11
-45 -6 -3 -8 -19 -5 -38 8 -39 -16 -76 -48 -76 -33 0 -43 17 -50 80 -11 107
-18 150 -26 150 -4 0 -19 -26 -33 -57 -29 -68 -48 -253 -27 -278 8 -10 8 -24
0 -54 -10 -38 -5 -111 10 -140 4 -8 10 5 15 35 10 69 21 86 53 82 l27 -3 -4
-102 -3 -103 31 0 c25 0 35 7 54 38 13 20 27 46 31 58 3 11 18 32 32 45 21 20
28 22 45 11 26 -17 59 -6 59 19 0 22 35 39 78 39 43 0 54 -12 43 -43 -10 -25
-8 -27 14 -27 41 0 76 21 69 42 -4 13 0 18 15 18 24 0 29 28 9 48 -18 18 -85
14 -148 -8 -82 -29 -93 -27 -108 20 -6 22 -12 53 -12 69 0 17 -4 33 -10 36
-18 11 -10 44 18 70 l27 26 -27 -7 c-27 -6 -28 -4 -28 30 0 39 35 86 63 86 11
0 15 12 14 43 -1 51 10 115 25 142 8 14 8 20 -1 23 -28 9 0 82 32 82 7 0 21 9
30 21 25 28 50 20 63 -20 8 -26 12 -30 17 -16 4 9 7 32 7 50 0 29 8 39 60 79
33 25 66 46 74 46 7 0 19 6 25 14 19 23 72 25 126 5 28 -11 64 -19 81 -19 19
0 34 -6 38 -15 3 -8 15 -15 26 -15 11 0 20 -3 20 -8 0 -4 10 -12 23 -17 13 -6
23 -21 25 -36 2 -17 11 -29 23 -32 17 -5 19 -9 9 -26 -8 -16 -21 -21 -48 -21
-54 0 -185 -29 -194 -43 -12 -19 -10 -24 17 -41 30 -20 32 -33 4 -41 -28 -9
-10 -29 41 -44 49 -14 54 -25 43 -83 -7 -37 -13 -45 -43 -55 -28 -10 -30 -12
-12 -12 13 -1 35 -10 49 -21 14 -11 32 -20 40 -20 7 0 18 -12 23 -26 12 -31 1
-49 -36 -58 -21 -6 -23 -10 -18 -34 8 -30 20 -42 47 -42 39 0 77 -30 77 -62 0
-15 -8 -17 -65 -11 -38 3 -65 2 -65 -4 0 -18 25 -33 56 -33 38 0 55 -18 30
-32 -23 -13 -21 -48 3 -48 11 0 23 -5 26 -11 14 -21 49 -27 68 -11 16 14 19
14 35 -2 14 -14 17 -32 15 -97 -3 -96 -30 -169 -62 -169 -22 0 -70 39 -138
110 -45 47 -49 60 -33 90 7 13 6 21 -5 30 -22 18 -18 30 8 30 20 0 23 5 24 35
1 29 -4 38 -27 50 -40 21 -59 63 -44 94 11 22 10 25 -24 42 -19 10 -36 18 -37
16 -1 -1 -16 -24 -33 -51 -27 -42 -32 -59 -32 -111 0 -34 9 -95 19 -135 22
-81 19 -120 -11 -147 -16 -15 -35 -17 -111 -15 -135 5 -108 -7 81 -34 50 -8
72 -33 72 -82 0 -29 -5 -35 -47 -54 -27 -12 -51 -24 -54 -26 -4 -1 -15 5 -24
15 -12 11 -30 16 -56 14 -21 -1 -44 1 -50 5 -7 4 -38 6 -70 5 -45 -2 -59 1
-67 15 -13 23 -58 11 -67 -17 -10 -31 39 -79 81 -79 23 0 34 -5 39 -19 9 -29
94 -103 113 -99 9 3 15 11 13 19 -2 8 -7 27 -10 43 -5 20 -18 35 -44 49 -20
10 -37 23 -37 28 0 11 294 5 323 -6 22 -9 17 -29 -9 -34 -23 -4 -34 -19 -34
-48 0 -27 -40 -57 -100 -74 -25 -7 -51 -17 -58 -22 -16 -12 -10 -32 9 -33 32
-2 107 -45 112 -64 3 -11 12 -20 21 -20 27 0 32 -49 7 -73 -19 -20 -32 -22
-119 -21 -87 0 -102 3 -150 29 -64 35 -89 66 -143 181 -68 146 -79 174 -79
207 1 36 2 39 85 132 33 37 68 80 79 96 29 47 -4 26 -60 -37 -56 -64 -89 -84
-136 -84 -42 0 -48 5 -81 62 -32 55 -43 64 -62 48 -14 -11 -11 -74 5 -95 4 -5
23 -47 43 -91 19 -45 48 -101 64 -125 17 -24 38 -59 47 -76 15 -30 15 -35 0
-57 -8 -14 -55 -60 -102 -102 -90 -79 -188 -134 -332 -184 -36 -12 -70 -26
-76 -31 -12 -10 -17 -188 -5 -207 5 -9 77 -15 276 -22 148 -5 271 -8 273 -5
10 10 0 137 -14 183 -19 64 -18 206 2 265 9 26 18 47 21 47 11 0 32 -35 33
-52 0 -9 3 -18 8 -20 4 -2 22 -22 41 -46 59 -76 261 -229 283 -215 16 9 74 5
114 -9 28 -10 36 -7 113 46 45 31 93 59 107 62 42 11 103 -3 146 -32 l40 -28
-6 -103 -7 -103 255 0 255 0 6 33 c3 17 5 86 3 152 l-3 119 -36 21 c-20 11
-70 31 -110 43 -158 51 -223 95 -357 246 l-34 37 40 77 c22 42 50 109 63 147
12 39 32 91 45 116 39 79 74 237 74 338 0 49 5 93 10 96 28 17 1 192 -57 364
-51 155 -102 240 -190 322 -89 82 -162 117 -295 139 -62 11 -117 19 -123 18
-5 0 -41 -4 -80 -8z" id="node1" class="node"></path>
</g>
<g transform="translate(0.000000,300.000000) scale(0.100000,-0.100000)" fill="#A2A2A2" stroke="none">

</g>
</svg>