<!--?xml version="1.0" standalone="no"?-->

<svg version="1.0" xmlns="http://www.w3.org/2000/svg" width="213.000000pt" height="300.000000pt" viewBox="0 0 213.000000 300.000000" preserveAspectRatio="xMidYMid meet">
<g transform="translate(0.000000,300.000000) scale(0.100000,-0.100000)" fill="#090909" stroke="none">
<path d="M1095 2881 c-123 -19 -255 -93 -329 -185 -55 -68 -128 -198 -142
-251 -13 -47 -19 -157 -7 -125 3 8 16 38 28 65 13 28 26 65 30 84 12 58 54
129 88 150 30 18 36 19 72 6 22 -8 58 -14 79 -15 22 0 47 -7 57 -16 14 -13 24
-14 47 -6 25 8 33 7 50 -10 16 -16 23 -18 40 -9 16 9 31 8 64 -5 24 -9 55 -18
71 -21 15 -3 30 -9 33 -14 3 -5 14 -9 25 -9 11 0 24 -11 31 -25 6 -14 19 -25
29 -25 23 0 41 -31 29 -50 -5 -9 -5 -19 1 -27 11 -12 3 -73 -9 -73 -17 -1 -52
-40 -58 -66 -7 -29 -7 -29 14 -11 17 15 28 17 64 10 l43 -8 9 -59 c12 -71 -1
-85 -52 -56 -18 11 -42 20 -53 20 -12 0 -23 10 -29 25 -16 41 -19 29 -13 -45
7 -81 3 -84 -65 -45 -40 23 -174 55 -229 55 -13 0 -34 -9 -46 -20 -29 -28 -15
-36 79 -43 75 -7 126 -23 167 -53 l22 -16 -27 6 c-16 4 -28 2 -28 -3 0 -9 -85
20 -118 40 -12 7 -28 8 -52 1 l-35 -10 34 -1 c33 -1 34 -2 15 -17 -18 -15 -17
-15 14 -10 23 4 32 2 32 -8 0 -16 41 -29 64 -20 14 6 74 -32 75 -48 1 -3 -7
-9 -16 -11 -15 -4 101 -2 117 2 3 1 -3 6 -12 12 -20 11 -24 49 -6 49 16 0 78
-43 78 -54 0 -5 7 -3 15 4 8 7 15 21 15 31 0 27 19 33 41 13 25 -22 24 -50 -1
-64 -15 -8 -20 -21 -20 -56 0 -72 -42 -131 -74 -105 -8 7 -28 -10 -64 -55 -56
-68 -111 -101 -140 -85 -15 8 -17 2 -17 -44 0 -29 3 -51 8 -48 4 2 7 14 7 26
0 33 15 51 35 43 14 -5 17 -15 13 -49 -4 -34 -18 -59 -70 -123 -39 -49 -68
-95 -72 -115 -8 -45 -64 -98 -124 -119 -53 -19 -122 -35 -136 -31 -5 1 -32 6
-59 12 -58 11 -75 22 -93 64 -7 16 -13 24 -14 17 -1 -40 35 -85 87 -109 49
-23 56 -30 84 -91 32 -72 49 -93 121 -153 l46 -39 39 22 c21 13 71 47 112 76
41 29 81 57 90 62 13 7 12 12 -12 30 -15 12 -27 27 -27 33 0 13 50 67 63 67 5
0 36 21 69 46 76 59 90 47 38 -30 -58 -86 -55 -95 17 -44 81 57 161 206 135
248 -9 15 -7 23 7 42 10 13 23 53 29 90 5 36 17 81 25 100 8 18 18 47 21 63
17 85 29 115 46 115 13 0 13 -1 -6 -45 -18 -45 -11 -80 10 -49 7 10 23 49 35
87 19 57 26 67 46 67 31 0 41 16 15 23 -11 3 -20 10 -20 16 0 18 39 51 60 51
18 0 20 -7 20 -79 0 -44 -4 -91 -10 -105 -11 -31 -61 -67 -68 -48 -6 19 -27
14 -48 -10 -10 -13 -12 -17 -4 -10 20 17 30 15 30 -8 0 -25 -37 -66 -65 -73
-14 -3 -10 -5 11 -6 33 -1 74 33 74 61 0 9 19 26 43 38 l42 22 -20 -24 c-11
-13 -5 -9 13 10 19 18 32 39 29 45 -7 18 20 138 33 151 9 8 11 2 10 -24 -3
-49 0 -58 10 -35 12 28 12 77 -1 113 -14 40 -70 53 -103 24 -21 -19 -122 -82
-131 -82 -3 0 -5 9 -5 19 0 14 22 31 75 60 41 23 82 41 93 41 16 0 22 17 40
123 36 201 38 253 12 338 -28 92 -40 118 -101 200 -94 128 -273 205 -494 214
-49 2 -112 0 -140 -4z" id="node1" class="node"></path>
<path d="M592 2212 c-13 -23 -24 -92 -16 -92 3 0 19 8 35 17 27 16 32 16 93 0
107 -28 131 -21 79 27 -17 16 -48 30 -83 36 -30 6 -65 15 -77 20 -18 7 -25 5
-31 -8z" id="node2" class="node"></path>
<path d="M602 2099 c-18 -28 -5 -42 34 -36 19 3 36 1 39 -4 9 -14 20 -11 46
10 l24 19 -25 10 c-14 5 -43 12 -65 15 -34 5 -43 3 -53 -14z" id="node3" class="node"></path>
<path d="M770 2061 c0 -5 5 -13 10 -16 6 -3 10 -2 10 4 0 5 -4 13 -10 16 -5 3
-10 2 -10 -4z" id="node4" class="node"></path>
<path d="M570 1780 c-44 -24 -60 -25 -61 -2 0 9 -3 12 -5 5 -3 -7 -1 -20 5
-31 6 -10 17 -51 25 -90 13 -64 45 -143 46 -116 0 7 -7 25 -15 40 -19 37 -20
114 -2 114 13 0 57 68 57 89 0 15 -9 13 -50 -9z" id="node5" class="node"></path>
<path d="M970 1776 c0 -42 -77 -61 -129 -32 -20 11 -31 11 -72 -3 -27 -9 -49
-19 -49 -22 0 -3 18 -14 41 -24 35 -16 44 -17 62 -5 12 7 45 12 78 11 49 -1
60 2 73 21 18 26 21 54 6 63 -5 3 -10 -1 -10 -9z" id="node6" class="node"></path>
<path d="M660 1766 c0 -2 9 -6 20 -9 11 -3 18 -1 14 4 -5 9 -34 13 -34 5z" id="node7" class="node"></path>
<path d="M610 1662 c0 -11 53 -113 61 -118 5 -3 9 4 9 15 0 42 9 50 43 39 18
-6 37 -15 44 -20 7 -5 17 -7 23 -3 13 8 159 -15 166 -26 3 -5 14 -9 25 -9 14
0 19 -5 17 -17 -2 -11 -11 -17 -22 -15 -9 2 -24 -2 -32 -9 -11 -9 -17 -9 -28
0 -8 7 -17 8 -19 4 -3 -5 -33 -6 -66 -3 -34 3 -61 2 -61 -2 0 -4 22 -8 48 -8
27 0 52 -3 56 -7 4 -5 11 -8 14 -9 4 0 19 -4 34 -8 18 -5 36 -3 55 8 15 8 50
24 77 35 40 18 46 23 36 36 -6 8 -20 17 -30 20 -11 4 -17 12 -13 20 4 12 0 13
-26 4 -22 -8 -45 -8 -79 -1 -26 6 -76 14 -112 17 -36 4 -78 12 -95 19 -50 21
-125 44 -125 38z" id="node8" class="node"></path>
<path d="M715 1510 c3 -5 11 -10 16 -10 6 0 7 5 4 10 -3 6 -11 10 -16 10 -6 0
-7 -4 -4 -10z" id="node9" class="node"></path>
<path d="M710 1416 c28 -27 52 -33 93 -22 48 14 30 28 -27 21 -43 -6 -54 -4
-59 9 -4 9 -12 16 -19 16 -7 0 -1 -11 12 -24z" id="node10" class="node"></path>
<path d="M1038 1373 c-19 -23 -31 -43 -24 -43 2 0 14 14 26 30 23 33 22 40 -2
13z" id="node11" class="node"></path>
<path d="M1520 1352 c0 -6 9 -34 20 -62 11 -28 20 -70 20 -93 0 -47 -48 -157
-144 -327 -84 -150 -236 -440 -236 -451 0 -5 189 -9 445 -9 l445 0 0 245 0
244 -47 21 c-27 12 -66 28 -87 36 -22 8 -83 43 -136 79 -101 67 -99 64 -209
241 -33 54 -71 94 -71 76z" id="node12" class="node"></path>
<path d="M612 1305 c0 -16 2 -22 5 -12 2 9 2 23 0 30 -3 6 -5 -1 -5 -18z" id="node13" class="node"></path>
<path d="M590 1129 c-14 -6 -88 -26 -165 -44 -77 -18 -193 -50 -258 -70 l-117
-38 2 -281 3 -281 274 -3 c213 -2 276 1 283 10 4 7 8 29 8 49 0 21 8 45 20 59
11 13 20 28 20 33 0 6 -7 2 -15 -9 -14 -17 -15 -14 -9 36 3 30 15 105 26 165
10 61 23 166 28 235 8 111 7 126 -7 138 -20 14 -58 15 -93 1z" id="node14" class="node"></path>
<path d="M855 796 c-53 -35 -124 -108 -145 -146 l-13 -23 28 21 c58 46 99 11
71 -59 -18 -45 -21 -73 -6 -49 9 13 11 13 20 0 15 -22 12 -33 -15 -70 -14 -19
-25 -40 -25 -47 0 -16 46 -17 56 -2 4 8 9 8 17 0 6 -6 42 -11 80 -11 67 0 69
1 63 23 -3 12 -11 48 -17 80 -11 55 -11 59 11 82 27 29 35 30 73 11 17 -10 27
-11 27 -4 0 8 -77 111 -120 161 -4 5 -26 -1 -48 -12 -38 -19 -72 -27 -72 -17
0 22 24 58 45 66 14 5 25 14 25 20 0 14 1 14 -55 -24z" id="node15" class="node"></path>
<path d="M701 460 c-26 -47 -26 -50 3 -50 16 0 25 7 29 23 2 12 8 29 11 38 4
10 2 19 -7 22 -9 3 -22 -8 -36 -33z" id="node16" class="node"></path>











</g>
<g transform="translate(0.000000,300.000000) scale(0.100000,-0.100000)" fill="#A3A3A3" stroke="none">

</g>
</svg>