<!--?xml version="1.0" standalone="no"?--><svg version="1.0" xmlns="http://www.w3.org/2000/svg" width="212.000000pt" height="300.000000pt" viewBox="0 0 212.000000 300.000000" preserveAspectRatio="xMidYMid meet">
<metadata>
  <rdf:rdf xmlns:rdf="http://www.w3.org/1999/02/22-rdf-syntax-ns#" xmlns:rdfs="http://www.w3.org/2000/01/rdf-schema#" xmlns:dc="http://purl.org/dc/elements/1.1/">
    <rdf:description dc:title="Tom Cruise stencil" dc:publisher="Hiox" dc:date="2015-05-11" dc:format="image/svg+xml" dc:language="en">
      <dc:creator>
        <rdf:bag>
          <rdf:li>svgimages.com</rdf:li>
        </rdf:bag>
      </dc:creator>
    </rdf:description>
  </rdf:rdf>
</metadata>
<g transform="translate(0.000000,300.000000) scale(0.100000,-0.100000)" fill="#130E0B" stroke="none">
<path d="M1310 2590 c-9 -6 -10 -10 -3 -10 6 0 15 5 18 10 8 12 4 12 -15 0z" id="node1" class="node"></path>
<path d="M1374 2579 c-14 -24 -89 -47 -134 -43 -149 15 -197 16 -232 1 -20 -9
-46 -13 -58 -10 -14 4 -19 1 -15 -8 3 -10 -12 -21 -47 -34 -45 -17 -52 -24
-53 -46 0 -15 -7 -35 -16 -45 -9 -11 -33 -50 -53 -89 -36 -66 -37 -74 -31
-132 3 -34 12 -67 20 -73 7 -6 16 -22 19 -36 4 -14 16 -38 27 -53 11 -15 22
-47 24 -70 5 -51 12 -63 19 -30 26 136 34 194 26 197 -30 10 10 107 40 99 11
-3 24 1 31 9 6 8 16 14 22 14 6 0 2 -10 -9 -22 -24 -27 -56 -78 -50 -78 2 0
21 22 41 50 38 52 53 59 160 77 34 5 66 4 100 -5 28 -7 61 -10 73 -7 17 4 34
-2 57 -19 18 -14 35 -22 39 -19 3 4 6 1 6 -4 0 -6 -6 -13 -12 -16 -10 -4 -10
-7 0 -18 18 -19 15 -39 -7 -39 -10 0 -24 -7 -31 -15 -10 -12 -7 -19 16 -40 15
-14 31 -25 35 -25 5 0 9 -4 9 -8 0 -8 -51 -22 -137 -38 -39 -7 -53 -31 -53
-92 0 -30 5 -70 12 -88 10 -29 9 -35 -20 -70 -34 -41 -40 -56 -19 -49 7 3 29
-3 49 -14 l37 -18 -46 -7 c-25 -3 -65 -6 -89 -6 -23 0 -45 -4 -48 -8 -2 -4 24
-6 59 -4 36 2 73 1 82 -3 17 -6 17 -7 -1 -21 -11 -8 -32 -14 -48 -14 -15 0
-28 -4 -28 -9 0 -14 37 -23 59 -16 26 8 37 -13 15 -29 -10 -8 -15 -20 -11 -29
9 -23 -14 -33 -29 -13 -12 17 -13 16 -23 -3 -15 -26 -66 -23 -108 7 -17 12
-36 22 -42 22 -21 0 -120 107 -129 141 -9 30 -10 31 -11 8 -1 -34 42 -93 115
-154 32 -27 61 -52 64 -55 15 -16 51 -27 95 -29 27 -1 51 -4 54 -6 2 -3 -4
-16 -13 -29 -9 -14 -16 -37 -16 -51 0 -21 -7 -27 -45 -37 l-45 -12 5 -71 c5
-64 3 -72 -20 -100 l-26 -30 -20 24 c-14 17 -18 32 -13 56 5 27 1 34 -20 49
-15 9 -34 15 -43 14 -21 -4 -119 181 -129 242 -4 22 -11 43 -16 46 -15 9 -99
-37 -108 -60 -4 -13 -43 -43 -89 -69 l-82 -48 3 -132 3 -132 310 -2 c172 -2
316 1 324 6 12 8 9 15 -13 41 -15 19 -26 42 -24 54 4 28 34 33 43 7 3 -12 14
-21 24 -21 19 0 51 -31 70 -67 11 -23 15 -23 186 -23 168 0 175 1 175 20 0 23
-72 83 -162 133 -35 20 -71 48 -80 65 -10 16 -34 44 -54 62 l-37 32 19 56 c13
40 36 75 75 118 51 55 57 66 64 118 3 32 12 75 19 95 7 20 11 42 9 49 -4 10 8
16 28 14 4 -1 5 20 3 46 -4 34 -2 43 5 32 14 -20 14 -4 1 21 -8 13 -7 19 0 19
6 0 10 18 10 43 -1 47 14 150 28 188 5 13 7 41 4 62 -4 37 -4 38 24 32 l29 -6
-28 16 c-26 15 -27 18 -12 29 15 10 10 16 -37 41 -67 36 -140 94 -132 106 3 5
15 9 27 8 12 -1 36 -1 52 1 17 2 -6 6 -50 9 l-80 6 45 15 45 14 -33 4 c-33 3
-33 4 -16 23 9 10 14 19 11 19 -3 0 -9 -5 -13 -11z m-97 -141 c-3 -8 -6 -5 -6
6 -1 11 2 17 5 13 3 -3 4 -12 1 -19z m8 -488 c3 -5 -1 -10 -9 -10 -9 0 -16 5
-16 10 0 6 4 10 9 10 6 0 13 -4 16 -10z m55 -5 c-11 -13 -6 -15 38 -12 48 2
52 1 57 -24 4 -19 -1 -37 -19 -64 -15 -21 -26 -47 -26 -57 0 -11 -16 -36 -35
-55 -19 -19 -35 -39 -35 -43 0 -5 -18 1 -39 13 -36 20 -39 24 -34 54 5 30 -10
132 -24 170 -5 13 -2 13 15 4 17 -9 29 -8 59 8 47 24 59 25 43 6z m-30 -315
c0 -5 -4 -10 -9 -10 -6 0 -13 5 -16 10 -3 6 1 10 9 10 9 0 16 -4 16 -10z" id="node2" class="node"></path>
<path d="M930 2001 c0 -6 6 -13 13 -15 53 -16 53 -17 22 -30 -30 -12 -29 -13
20 -13 28 0 54 5 58 11 6 8 11 6 19 -5 10 -14 14 -14 39 -2 42 21 26 39 -39
47 -31 4 -74 9 -94 13 -26 4 -38 2 -38 -6z" id="node3" class="node"></path>
<path d="M1128 1753 c7 -3 16 -2 19 1 4 3 -2 6 -13 5 -11 0 -14 -3 -6 -6z" id="node4" class="node"></path>
</g>
<g transform="translate(0.000000,300.000000) scale(0.100000,-0.100000)" fill="#B8ABA7" stroke="none">

<path d="M1271 2444 c0 -11 3 -14 6 -6 3 7 2 16 -1 19 -3 4 -6 -2 -5 -13z" id="node6" class="node"></path>
<path d="M1260 1950 c0 -5 7 -10 16 -10 8 0 12 5 9 10 -3 6 -10 10 -16 10 -5
0 -9 -4 -9 -10z" id="node7" class="node"></path>

<path d="M1285 1630 c3 -5 10 -10 16 -10 5 0 9 5 9 10 0 6 -7 10 -16 10 -8 0
-12 -4 -9 -10z" id="node9" class="node"></path>
</g>
</svg>