<?xml version="1.0" encoding="UTF-8" standalone="no" ?>
<!DOCTYPE svg PUBLIC "-//W3C//DTD SVG 1.1//EN" "http://www.w3.org/Graphics/SVG/1.1/DTD/svg11.dtd">
<svg xmlns="http://www.w3.org/2000/svg" xmlns:xlink="http://www.w3.org/1999/xlink" version="1.1" width="629.92125985" height="472.44094488749994" viewBox="0 0 765 573.75" xml:space="preserve">
<desc>Created with Fabric.js 2.3.3</desc>
<defs>
</defs>
<g transform="translate(382.5 284.8776143791) scale(0.4 0.39)" style="">
	<path d="M 312 246.9 h -500 v -3.6 h 500 V 246.9 z M -186.8 245.7 h 497.6 v -1.2 h -497.6 V 245.7 z" style="stroke: none; stroke-width: 1; stroke-dasharray: none; stroke-linecap: butt; stroke-linejoin: miter; stroke-miterlimit: 10; fill: rgb(64,71,98); fill-rule: nonzero; opacity: 1;" transform="translate(0 -56.45) translate(-62, -245.10000000000002) " stroke-linecap="round" />
	<path d="M 312 359.9 h -500 v -3.6 h 500 V 359.9 z M -186.8 358.7 h 497.6 v -1.2 h -497.6 V 358.7 z" style="stroke: none; stroke-width: 1; stroke-dasharray: none; stroke-linecap: butt; stroke-linejoin: miter; stroke-miterlimit: 10; fill: rgb(64,71,98); fill-rule: nonzero; opacity: 1;" transform="translate(0 56.55) translate(-62, -358.09999999999997) " stroke-linecap="round" />
</g>
	<g transform="translate(380.5299969482 285.1601143791)">
		<text xml:space="preserve" font-family="Playfair Display" font-size="20" font-style="normal" font-weight="normal" style="stroke: none; stroke-width: 1; stroke-dasharray: none; stroke-linecap: butt; stroke-linejoin: miter; stroke-miterlimit: 10; fill: rgb(64,71,98); fill-rule: nonzero; opacity: 1; white-space: pre;" ><tspan x="-66.8999969482" y="6.2828" >THE NEW YOU</tspan></text>
	</g>
<g transform="translate(382.5 291.53) scale(0.4 0.45)" style="">
</g>
	<g transform="translate(382.476015625 314.9695) scale(0.59 0.59)">
		<text xml:space="preserve" font-family="Hammersmith One" font-size="20" font-style="normal" font-weight="normal" style="stroke: none; stroke-width: 1; stroke-dasharray: none; stroke-linecap: butt; stroke-linejoin: miter; stroke-miterlimit: 10; fill: rgb(64,71,98); fill-rule: nonzero; opacity: 1; white-space: pre;" ><tspan x="-46.6796875" y="6.2828" >SINCE 1611</tspan></text>
	</g>
	<g transform="translate(383.1550097656 277.9295) scale(2.59 2.59)">
		<text xml:space="preserve" font-family="UnifrakturMaguntia" font-size="20" font-style="normal" font-weight="normal" style="stroke: none; stroke-width: 1; stroke-dasharray: none; stroke-linecap: butt; stroke-linejoin: miter; stroke-miterlimit: 10; fill: rgb(64,71,98); fill-rule: nonzero; opacity: 1; white-space: pre;" ><tspan x="-37.4169921875" y="6.2828" >Medieval</tspan></text>
	</g>
<g transform="translate(382.5 286.875)" style="">
	<path id="node1" d="M 1475 2390 l -50 -37 l -30 23 c -17 12 -42 27 -57 33 c -26 10 -27 9 -23 -17 c 2 -15 6 -46 9 -68 l 6 -42 l -55 -4 c -60 -5 -78 -14 -55 -28 c 8 -4 32 -23 52 -41 l 36 -32 l -31 -16 c -17 -9 -42 -31 -54 -50 c -19 -28 -23 -30 -23 -13 c 0 27 -15 36 -30 17 c -6 -8 -33 -17 -58 -21 c -49 -7 -82 -27 -82 -51 c 0 -7 -5 -13 -11 -13 c -8 0 -9 15 -4 48 c 6 45 6 46 -11 30 c -13 -12 -19 -39 -22 -97 c -2 -45 -6 -81 -8 -81 c -3 0 -13 5 -23 12 c -15 9 -26 7 -55 -10 c -21 -12 -46 -22 -57 -22 c -27 0 -24 -13 12 -39 c 60 -45 139 -38 139 12 c 0 18 5 16 39 -18 l 40 -38 l -36 -19 c -76 -41 -123 -109 -122 -178 c 0 -94 62 -160 150 -160 c 63 0 111 25 144 75 c 22 33 25 47 21 84 l -6 44 l 41 -6 c 50 -7 99 -49 99 -87 c 0 -43 -26 -66 -105 -95 c -134 -49 -158 -110 -84 -216 l 42 -59 l -28 -62 c -15 -35 -36 -83 -47 -108 c -11 -25 -25 -58 -32 -75 c -118 -271 -155 -333 -193 -321 c -27 9 -80 62 -86 87 c -6 22 8 26 17 4 c 9 -24 71 -19 96 8 c 25 26 47 73 56 124 l 7 37 l -28 -22 c -18 -14 -42 -22 -66 -22 c -49 0 -79 -28 -80 -72 c 0 -31 -1 -32 -10 -9 c -5 13 -7 32 -4 42 c 4 11 3 28 0 40 c -13 39 -35 -26 -35 -102 l 0 -69 l -25 12 c -18 8 -32 8 -55 -2 c -16 -7 -30 -16 -30 -21 c 0 -5 -12 -9 -27 -9 l -26 0 l 22 -24 c 25 -27 93 -50 122 -41 c 11 4 24 18 30 32 l 9 24 l 25 -29 c 30 -36 31 -42 4 -42 c -15 0 -20 -5 -17 -22 l 3 -23 l 230 0 c 222 0 230 1 230 20 c 0 15 -9 21 -43 27 c -59 10 -94 29 -111 59 c -14 24 -12 34 14 113 c 16 48 33 89 37 92 c 4 3 8 -18 8 -46 c 0 -131 115 -238 265 -248 c 91 -5 164 21 224 80 c 63 63 75 91 75 178 c 0 78 -11 112 -60 177 c -13 17 -24 34 -24 36 c 0 8 142 -1 150 -10 c 16 -17 119 -280 126 -319 c 3 -24 2 -50 -5 -61 c -13 -26 -70 -53 -111 -53 c -27 0 -31 -3 -28 -22 l 3 -23 l 290 0 l 290 0 l 1 26 c 0 14 13 42 29 63 c 41 53 47 136 13 185 c -12 19 -37 41 -55 50 c -29 15 -31 20 -31 67 c 1 54 -9 74 -72 154 c -50 64 -62 88 -76 154 c -11 52 -10 64 6 101 c 19 43 34 55 75 55 c 42 0 72 -69 48 -113 c -18 -36 -49 -35 -68 3 c -19 37 -35 31 -35 -13 c 0 -49 24 -77 66 -77 c 47 0 69 13 88 51 c 35 69 2 179 -61 208 c -75 34 -163 -18 -186 -111 c -8 -32 -15 -34 -42 -14 c -19 14 -19 15 9 43 c 16 15 35 42 42 60 c 19 44 17 120 -4 163 c -20 41 -75 80 -112 80 c -100 0 -164 -128 -108 -217 c 26 -43 79 -68 109 -52 c 33 17 33 3 1 -20 c -55 -39 -106 -21 -142 49 c -30 59 -25 99 26 210 c 25 55 46 113 46 128 c 1 46 -29 97 -72 121 l -40 22 l 30 31 c 17 17 32 29 33 27 c 1 -2 7 -13 12 -23 c 23 -41 84 -37 140 8 c 28 23 29 25 10 31 c -11 3 -33 13 -48 21 c -33 16 -73 18 -82 4 c -15 -24 -20 -5 -20 68 c -1 59 -5 84 -19 102 l -18 25 l 7 -47 c 7 -52 -8 -67 -24 -24 c -11 27 -21 32 -85 41 c -25 4 -49 11 -52 16 c -9 16 -24 10 -24 -10 c 0 -28 36 -107 59 -130 c 24 -24 79 -28 100 -8 c 9 7 7 0 -3 -20 c -20 -40 -45 -57 -121 -83 c -32 -11 -59 -20 -60 -20 c -1 0 -10 19 -19 43 c -29 68 -32 72 -57 72 c -19 0 -26 -7 -33 -38 c -8 -31 -6 -47 13 -90 c 13 -29 31 -72 40 -97 c 10 -25 25 -61 34 -80 c 8 -19 46 -109 83 -200 c 65 -161 240 -585 290 -705 c 14 -33 29 -68 35 -77 c 13 -26 11 -30 -13 -26 c -25 4 -30 15 -203 438 c -101 246 -124 302 -136 322 c -5 10 -9 22 -9 27 c 0 5 -13 38 -28 73 c -16 35 -50 115 -76 178 c -26 63 -50 121 -54 127 c -5 7 -51 16 -109 22 c -113 10 -155 28 -174 72 c -26 63 33 147 95 135 c 55 -11 95 -83 64 -114 c -17 -17 -57 -15 -64 3 c -8 21 -24 19 -24 -3 c 0 -26 20 -42 53 -42 c 44 0 65 17 77 59 c 14 54 42 85 90 101 c 37 12 45 12 85 -8 c 25 -12 45 -19 45 -16 c 0 31 -76 84 -120 84 c -12 0 -35 -7 -52 -16 l -31 -16 l 7 29 c 10 36 14 39 28 25 c 22 -22 63 -13 101 22 c 33 30 53 67 28 51 c -5 -3 -30 0 -55 7 l -45 12 l -3 62 l -3 61 l -50 -37 z m -35 -100 c 0 -5 -4 -10 -10 -10 c -5 0 -10 5 -10 10 c 0 6 5 10 10 10 c 6 0 10 -4 10 -10 z m -50 -66 c 0 -47 -3 -55 -16 -50 c -9 3 -21 6 -27 6 c -7 0 -4 7 7 15 c 14 11 17 22 13 50 c -4 26 -2 35 9 35 c 10 0 14 -14 14 -56 z m 100 41 c 0 -8 -4 -15 -9 -15 c -5 0 -14 7 -21 15 c -10 13 -9 15 9 15 c 12 0 21 -6 21 -15 z m -40 -120 c 0 -8 -4 -15 -10 -15 c -5 0 -10 7 -10 15 c 0 8 5 15 10 15 c 6 0 10 -7 10 -15 z m -251 -107 c -4 -46 2 -67 26 -97 c 37 -43 72 -59 165 -75 c 94 -16 96 -22 45 -131 c -34 -73 -47 -87 -61 -64 c -3 6 -26 20 -49 30 c -36 16 -59 18 -136 14 c -99 -5 -113 -12 -125 -59 c -5 -22 -4 -27 6 -21 c 9 6 10 3 0 -15 c -17 -32 -9 -32 39 1 c 50 33 59 35 67 14 c 11 -28 -6 -65 -39 -85 c -45 -28 -81 -25 -119 9 c -29 26 -33 35 -33 83 c 0 106 75 160 222 160 c 77 0 85 2 68 14 c -18 14 -35 17 -126 29 c -49 6 -79 31 -115 92 c -20 36 -14 54 11 29 c 36 -36 103 -5 126 59 c 15 39 31 47 28 13 z m 622 -160 c 43 -23 71 -68 62 -97 c -10 -31 -67 -166 -73 -174 c -6 -7 -130 268 -130 287 c 0 16 102 4 141 -16 z m -220 -342 c 33 -76 56 -142 53 -147 c -3 -5 -16 -6 -29 -3 c -32 8 -64 -12 -80 -48 c -11 -28 -10 -33 8 -54 c 30 -35 59 -30 101 16 c 20 22 36 35 36 29 c 0 -5 11 -34 24 -62 c 14 -29 28 -64 31 -80 c 4 -15 11 -30 16 -33 c 5 -3 9 -12 9 -20 c 0 -11 -15 -14 -67 -14 c -62 1 -66 2 -49 15 c 11 8 18 16 15 17 c -52 32 -101 50 -111 40 c -21 -21 -25 -13 -30 64 c -6 89 -28 126 -29 49 c 0 -44 -2 -47 -10 -24 c -11 28 -46 49 -84 49 c -14 0 -25 4 -25 10 c 0 8 45 117 91 218 c 11 24 27 61 36 83 c 8 22 20 38 26 36 c 5 -1 36 -65 68 -141 z m -486 124 c -3 -5 -11 -10 -16 -10 c -6 0 -7 5 -4 10 c 3 6 11 10 16 10 c 6 0 7 -4 4 -10 z m 928 -70 c 30 -24 45 -81 29 -113 l -11 -22 l 0 23 c -1 26 -28 72 -43 72 c -6 0 -7 -7 -4 -15 c 3 -8 9 -21 12 -29 c 3 -7 -2 -21 -11 -30 c -13 -12 -21 -14 -36 -5 c -44 23 -48 107 -6 127 c 32 15 41 14 70 -8 z m -753 -184 c 0 -19 -39 -106 -48 -106 c -13 0 -43 60 -36 71 c 7 12 65 49 77 49 c 4 0 7 -6 7 -14 z m 745 -125 c 52 -23 64 -35 96 -95 c 35 -65 8 -146 -47 -146 c -31 0 -58 42 -50 76 c 5 19 12 25 29 22 c 17 -2 23 -11 27 -37 c 5 -31 6 -33 19 -17 c 19 22 4 84 -25 102 c -17 12 -25 11 -59 -6 c -21 -11 -39 -19 -40 -17 c -12 19 -55 132 -55 142 c 0 16 30 9 105 -24 z m -632 -70 c 11 -9 30 -12 53 -8 c 35 6 35 6 21 -16 c -22 -33 -94 -67 -144 -67 c -23 0 -43 4 -43 9 c 0 5 9 31 21 58 c 11 26 25 59 30 72 l 10 25 l 18 -30 c 10 -16 25 -35 34 -43 z m 117 -81 c 0 -5 -4 -10 -10 -10 c -5 0 -10 5 -10 10 c 0 6 5 10 10 10 c 6 0 10 -4 10 -10 z m 728 -103 c 40 -41 51 -87 26 -111 c -18 -19 -62 -15 -76 7 c -10 15 -10 19 1 36 c 8 12 14 13 35 3 c 23 -10 26 -9 26 6 c 0 10 -5 23 -12 30 c -15 15 -64 16 -73 2 c -3 -5 -11 -10 -16 -10 c -5 0 3 16 18 35 c 15 19 30 35 34 35 c 3 0 19 -15 37 -33 z m -894 4 c 3 -4 -11 -13 -32 -19 c -20 -7 -51 -25 -69 -42 c -36 -34 -43 -36 -43 -15 c 0 8 16 30 35 50 c 27 26 44 35 70 35 c 18 0 36 -4 39 -9 z m 217 -14 c 51 -34 96 -100 109 -160 c 11 -48 10 -58 -10 -104 c -38 -90 -105 -133 -206 -133 c -76 0 -125 21 -172 74 c -104 119 -30 276 129 276 c 119 0 203 -137 133 -219 c -48 -58 -154 -51 -193 13 c -26 42 -26 57 0 90 c 25 32 70 35 99 6 c 32 -32 19 -78 -15 -50 c -22 19 -61 9 -57 -15 c 6 -33 28 -48 72 -48 c 46 0 75 21 85 63 c 10 41 -39 106 -89 119 c -125 34 -223 -87 -153 -190 c 82 -121 264 -113 326 14 c 18 38 20 51 11 96 c -5 28 -14 59 -19 69 c -16 30 -64 69 -108 88 c -24 10 -43 21 -43 26 c 0 17 69 7 101 -15 z m 559 -46 c 0 -13 -27 -21 -45 -15 c -8 4 -12 10 -9 15 c 7 12 54 12 54 0 z m 41 -92 c 28 -30 29 -33 14 -55 c -8 -13 -15 -30 -15 -39 c 0 -44 -48 29 -66 102 c -9 35 31 30 67 -8 z m 164 -65 c 37 -15 56 -93 34 -137 c -33 -63 -74 -81 -117 -51 c -30 21 -28 30 8 38 c 19 3 34 15 42 31 c 13 29 1 49 -13 22 c -16 -27 -63 -22 -77 8 c -14 31 6 80 35 88 c 28 7 70 8 88 1 z" style="stroke: none; stroke-width: 20; stroke-dasharray: none; stroke-linecap: butt; stroke-linejoin: miter; stroke-miterlimit: 4; fill: rgb(86,118,96); fill-rule: nonzero; opacity: 1;" transform="translate(3.8049991861 1.8666666667) scale(0.1333333333 0.1333333333) matrix(1 0 0 -1 0 0) translate(-1528.5374938960258, -1486) " stroke-linecap="round" />
	<path id="node2" d="M 2080 2260 c -8 -5 -40 -10 -71 -10 c -40 0 -61 -5 -70 -17 c -19 -22 -18 -101 1 -113 c 26 -16 66 -11 92 13 c 48 42 90 154 48 127 z" style="stroke: none; stroke-width: 20; stroke-dasharray: none; stroke-linecap: butt; stroke-linejoin: miter; stroke-miterlimit: 4; fill: rgb(86,118,96); fill-rule: nonzero; opacity: 1;" transform="translate(68.1659727697 -91.6595367429) scale(0.1333333333 0.1333333333) matrix(1 0 0 -1 0 0) translate(-2011.244795772563, -2187.4465255714067) " stroke-linecap="round" />
	<path id="node3" d="M 780 2169 c 0 -8 14 -38 30 -67 c 53 -91 138 -108 155 -31 c 12 53 -19 83 -91 90 c -32 3 -67 9 -76 13 c -12 6 -18 4 -18 -5 z" style="stroke: none; stroke-width: 20; stroke-dasharray: none; stroke-linecap: butt; stroke-linejoin: miter; stroke-miterlimit: 4; fill: rgb(86,118,96); fill-rule: nonzero; opacity: 1;" transform="translate(-83.4988607993 -79.9767442138) scale(0.1333333333 0.1333333333) matrix(1 0 0 -1 0 0) translate(-873.7585440056179, -2099.8255816036976) " stroke-linecap="round" />
	<path id="node4" d="M 860 1475 c 0 -13 -7 -43 -16 -65 c -9 -22 -14 -47 -10 -55 c 3 -8 4 -15 3 -15 c -1 0 -20 7 -42 15 c -40 14 -115 20 -115 9 c 0 -3 9 -17 20 -31 c 11 -14 20 -34 20 -44 c 0 -28 36 -59 68 -59 c 39 0 66 31 60 70 c -5 35 -4 36 27 12 l 22 -18 l -23 -28 c -26 -29 -31 -74 -13 -108 c 9 -17 13 -18 20 -7 c 6 10 9 11 9 2 c 0 -7 9 -13 21 -13 c 15 0 19 -4 15 -16 c -3 -9 -6 -17 -6 -20 c 0 -2 -12 1 -26 6 c -37 14 -47 13 -73 -12 c -21 -19 -23 -27 -17 -76 c 4 -29 13 -66 20 -80 l 14 -26 l 15 30 c 8 16 29 42 46 58 c 17 17 31 37 31 45 c 0 10 3 12 8 6 c 11 -16 55 -33 106 -40 c 39 -6 46 -5 46 9 c 0 9 -4 16 -9 16 c -8 0 -41 81 -41 99 c 0 3 15 7 33 8 c 33 2 107 33 107 45 c 0 3 -12 11 -27 17 c -16 5 -43 24 -62 40 c -32 28 -33 32 -19 48 c 17 19 52 112 45 119 c -2 2 -20 -3 -40 -11 c -20 -8 -47 -15 -61 -15 c -14 0 -28 -4 -31 -10 c -11 -17 -22 -11 -34 18 c -12 28 -73 102 -84 102 c -4 0 -7 -11 -7 -25 z m 124 -203 c 21 -16 22 -20 9 -38 c -9 -12 -12 -31 -8 -51 c 5 -31 4 -33 -21 -33 c -20 0 -24 3 -17 13 c 29 36 20 127 -12 127 c -20 0 -19 10 3 26 c 14 11 17 10 20 -6 c 2 -11 14 -28 26 -38 z" style="stroke: none; stroke-width: 20; stroke-dasharray: none; stroke-linecap: butt; stroke-linejoin: miter; stroke-miterlimit: 4; fill: rgb(86,118,96); fill-rule: nonzero; opacity: 1;" transform="translate(-76 38.9333333333) scale(0.1333333333 0.1333333333) matrix(1 0 0 -1 0 0) translate(-930, -1208) " stroke-linecap="round" />
	<path id="node6" d="M 590 915 c 30 -80 72 -125 114 -125 c 43 0 56 11 63 53 c 8 50 -30 89 -84 86 c -21 -1 -53 1 -71 5 c -32 7 -32 7 -22 -19 z" style="stroke: none; stroke-width: 20; stroke-dasharray: none; stroke-linecap: butt; stroke-linejoin: miter; stroke-miterlimit: 4; fill: rgb(86,118,96); fill-rule: nonzero; opacity: 1;" transform="translate(-109.8547722712 84.8022846772) scale(0.1333333333 0.1333333333) matrix(1 0 0 -1 0 0) translate(-676.0892079658108, -863.9828649210756) " stroke-linecap="round" />
</g>
</svg>