<!--?xml version="1.0" standalone="no"?-->

<svg version="1.0" xmlns="http://www.w3.org/2000/svg" width="300.000000pt" height="300.000000pt" viewBox="0 0 300.000000 300.000000" preserveAspectRatio="xMidYMid meet">
<g transform="translate(0.000000,300.000000) scale(0.100000,-0.100000)" fill="#151511" stroke="none">
<path class="node" id="node1" d="M850 2115 l-595 -595 85 -85 c46 -47 89 -85 95 -85 7 0 1133 1118
1193 1185 6 6 -160 175 -172 175 -6 0 -279 -268 -606 -595z"></path>
<path class="node" id="node2" d="M1633 2296 c-28 -7 -73 -27 -100 -44 -50 -32 -170 -148 -162 -156 2
-3 44 -46 93 -96 l90 -91 66 66 c62 61 68 65 112 65 40 0 50 -4 77 -35 39 -45
40 -80 3 -131 -32 -43 -166 -173 -206 -199 -37 -25 -83 -12 -134 35 -24 22
-45 40 -48 40 -2 0 -41 -36 -86 -80 l-82 -80 26 -27 c35 -37 68 -94 68 -116 0
-31 -53 -97 -156 -196 -112 -107 -151 -129 -196 -110 -43 17 -68 55 -68 101 0
36 7 47 67 109 l67 70 -89 89 c-49 50 -95 90 -101 90 -20 0 -158 -154 -184
-206 -22 -43 -25 -62 -25 -149 0 -91 3 -105 30 -159 38 -75 111 -147 184 -183
49 -25 67 -28 151 -28 140 0 176 21 361 205 85 84 153 162 164 185 12 26 19
63 19 106 l0 67 71 -1 c65 -1 76 2 123 32 77 49 261 246 297 317 27 54 30 68
30 159 0 86 -3 107 -25 150 -80 163 -256 245 -437 201z"></path>
<path class="node" id="node3" d="M2186 1701 c-28 -28 -46 -55 -43 -63 7 -16 289 -446 311 -473 16 -20
17 -19 56 24 l40 44 -35 48 c-19 27 -35 54 -35 60 0 12 54 69 66 69 4 0 32
-17 61 -37 l54 -37 39 40 c22 21 36 44 32 49 -9 13 -480 325 -490 325 -4 0
-30 -22 -56 -49z m138 -113 c28 -24 75 -59 104 -78 28 -19 51 -39 51 -45 0
-11 -58 -60 -63 -54 -17 20 -156 210 -156 214 0 11 13 3 64 -37z"></path>
<path class="node" id="node4" d="M1965 1479 c-62 -36 -125 -121 -125 -169 0 -50 21 -78 172 -226 157
-156 177 -167 244 -139 46 19 76 46 115 102 46 67 36 113 -40 187 l-41 40 -26
-25 c-47 -44 -49 -58 -15 -93 17 -18 31 -42 31 -53 0 -26 -25 -53 -48 -53 -25
0 -272 251 -272 276 0 23 29 54 51 54 8 0 30 -14 48 -31 l34 -30 33 32 c19 18
34 38 34 44 0 6 -18 28 -39 49 -33 32 -48 39 -88 43 -26 2 -57 -2 -68 -8z"></path>
<path class="node" id="node5" d="M1702 1217 c-18 -18 -32 -36 -32 -41 0 -4 92 -100 205 -214 l204
-207 41 40 c22 22 39 43 38 47 -6 16 -403 408 -413 408 -6 0 -25 -15 -43 -33z"></path>
<path class="node" id="node6" d="M1462 977 c-18 -18 -32 -37 -32 -43 0 -5 92 -101 205 -214 l205 -205
100 100 100 99 -32 33 c-18 18 -37 33 -44 33 -6 0 -32 -22 -58 -50 -26 -27
-50 -50 -54 -50 -4 0 -81 74 -172 165 -91 91 -170 165 -175 165 -6 0 -25 -15
-43 -33z"></path>
<path class="node" id="node7" d="M1335 850 l-39 -40 167 -168 c133 -133 167 -173 167 -194 0 -27 -31
-58 -59 -58 -8 0 -89 74 -181 165 -91 91 -170 165 -176 165 -13 0 -74 -63 -74
-76 0 -17 353 -361 378 -369 48 -14 93 4 153 64 68 69 90 121 69 172 -7 17
-84 102 -170 188 -218 217 -189 198 -235 151z"></path>
</g>
<g transform="translate(0.000000,300.000000) scale(0.100000,-0.100000)" fill="#A0A09F" stroke="none">


</g>
</svg>