<!--?xml version="1.0" standalone="no"?-->

<svg version="1.0" xmlns="http://www.w3.org/2000/svg" width="300.000000pt" height="224.000000pt" viewBox="0 0 300.000000 224.000000" preserveAspectRatio="xMidYMid meet">
<g transform="translate(0.000000,224.000000) scale(0.100000,-0.100000)" fill="#060606" stroke="none">
<path class="node" id="node1" d="M1494 2130 c-33 -47 -116 -165 -185 -263 -340 -487 -833 -1189 -869
-1239 -17 -23 -30 -45 -30 -50 0 -4 198 -8 440 -8 l440 0 2 -277 3 -278 132
-3 133 -3 2 278 3 278 300 3 300 3 88 129 c48 70 87 131 87 134 0 3 -69 6
-153 6 l-154 0 -89 -130 c-49 -71 -92 -129 -96 -130 -5 0 -8 59 -8 130 l0 130
-140 0 -140 0 -2 688 -3 687 -61 -85z m-209 -1257 l-6 -33 -169 0 c-94 0 -170
3 -170 8 0 4 24 41 53 83 28 41 106 153 172 249 l120 173 3 -224 c2 -123 0
-239 -3 -256z"></path>
<path class="node" id="node2" d="M2623 854 c-123 -27 -207 -85 -252 -176 -72 -143 -19 -240 168 -308
111 -41 140 -86 84 -130 -41 -32 -137 -25 -218 15 -33 17 -63 31 -67 33 -7 4
-128 -175 -128 -190 0 -12 98 -57 163 -74 66 -18 207 -18 272 0 126 34 215
100 266 198 33 62 33 162 1 203 -33 42 -97 81 -169 106 -75 25 -113 53 -113
84 0 49 69 70 163 49 34 -8 67 -15 74 -17 6 -1 39 37 71 85 l60 87 -47 16
c-47 15 -192 36 -241 34 -14 -1 -53 -7 -87 -15z"></path>
<path class="node" id="node3" d="M172 241 c-84 -121 -152 -222 -152 -225 0 -3 75 -6 168 -6 l167 1 62
92 c72 109 165 242 211 303 17 24 32 46 32 49 0 3 -76 5 -168 5 l-168 0 -152
-219z"></path>
</g>
<g transform="translate(0.000000,224.000000) scale(0.100000,-0.100000)" fill="#A3A3A3" stroke="none">


</g>
</svg>