<!--?xml version="1.0" standalone="no"?-->

<svg version="1.0" xmlns="http://www.w3.org/2000/svg" width="300.000000pt" height="225.000000pt" viewBox="0 0 300.000000 225.000000" preserveAspectRatio="xMidYMid meet">
<g transform="translate(0.000000,225.000000) scale(0.100000,-0.100000)" fill="#262223" stroke="none">
<path class="node" id="node1" d="M828 1126 c-49 -90 -88 -167 -88 -170 0 -3 77 -6 170 -6 94 0 170 4
170 9 0 4 -10 23 -23 42 -22 32 -26 34 -90 37 l-68 3 42 79 c23 44 45 80 49
80 4 0 37 -56 74 -125 l67 -125 202 0 c300 0 310 5 315 160 4 110 -10 154 -54
170 -14 6 -106 10 -205 10 l-179 0 0 -105 0 -105 55 0 54 0 3 63 3 62 92 -1
c113 -1 123 -7 123 -80 0 -80 -12 -85 -196 -82 l-149 3 -65 122 -65 123 -75 0
-75 -1 -87 -163z"></path>
<path class="node" id="node2" d="M1680 1120 l0 -170 55 0 55 0 0 170 0 170 -55 0 -55 0 0 -170z"></path>
<path class="node" id="node3" d="M1859 1261 c-28 -29 -29 -31 -29 -138 0 -109 0 -109 31 -139 30 -29
32 -29 158 -32 223 -7 246 10 246 176 l0 104 -33 29 -32 29 -156 0 -156 0 -29
-29z m286 -72 c5 -5 9 -34 9 -65 0 -73 -14 -84 -109 -84 -95 0 -109 11 -109
83 0 31 3 59 6 63 24 23 180 26 203 3z"></path>
</g>
<g transform="translate(0.000000,225.000000) scale(0.100000,-0.100000)" fill="#FFFFFF" stroke="none">


</g>
</svg>