<!--?xml version="1.0" standalone="no"?-->

<svg version="1.0" xmlns="http://www.w3.org/2000/svg" width="300.000000pt" height="300.000000pt" viewBox="0 0 300.000000 300.000000" preserveAspectRatio="xMidYMid meet">
<g transform="translate(0.000000,300.000000) scale(0.100000,-0.100000)" fill="#090909" stroke="none">
<path d="M1694 2631 c-30 -13 -71 -66 -79 -100 -6 -29 9 -92 39 -162 12 -28
13 -45 5 -75 -13 -50 -48 -162 -62 -194 -5 -14 -13 -43 -18 -65 -15 -81 -32
-131 -52 -152 -23 -26 -47 -30 -47 -8 0 8 -4 15 -9 15 -5 0 -16 6 -23 13 -59
58 -114 63 -164 13 -28 -28 -34 -41 -34 -77 0 -30 6 -50 21 -65 31 -33 19 -69
-29 -92 -25 -11 -44 -32 -60 -62 -24 -45 -39 -69 -145 -231 -31 -47 -63 -102
-71 -121 -20 -47 -99 -116 -142 -124 -44 -8 -54 -24 -16 -24 26 0 29 -3 24
-22 -4 -18 -2 -20 14 -13 43 18 62 17 66 -2 3 -16 6 -15 27 9 23 27 25 27 52
11 30 -18 51 -11 31 9 -18 18 -14 94 6 127 9 16 41 47 70 70 28 23 58 54 67
70 8 17 31 47 50 68 l35 38 25 -30 c13 -16 24 -37 25 -45 0 -9 4 -20 9 -25 5
-6 12 -29 16 -52 6 -38 4 -44 -24 -69 -25 -22 -31 -35 -31 -70 0 -40 -18 -74
-40 -74 -4 0 -23 -13 -42 -29 -18 -16 -51 -44 -72 -62 -22 -19 -52 -51 -67
-73 -29 -39 -52 -55 -147 -101 -113 -54 -296 -199 -315 -249 -3 -8 -12 -13
-20 -10 -8 3 -20 -2 -27 -11 -17 -20 -27 -19 -35 5 -10 32 -25 23 -15 -9 12
-42 -28 -78 -107 -94 -94 -19 -112 -43 -72 -99 21 -29 24 -30 73 -24 28 4 65
7 81 6 24 0 46 15 104 70 67 64 119 100 143 100 10 0 85 50 123 81 11 9 47 31
80 49 33 17 87 51 120 74 33 23 94 56 135 75 41 19 80 37 85 42 6 4 49 28 97
52 l87 45 84 -28 c47 -16 113 -42 148 -59 35 -16 104 -39 152 -51 106 -24 105
-24 223 -111 51 -38 97 -69 102 -69 5 0 30 -16 55 -35 24 -19 63 -41 84 -50
42 -17 126 -104 143 -150 15 -39 37 -42 73 -8 18 17 54 43 80 58 52 30 136
112 137 133 0 19 -59 14 -87 -8 -27 -21 -50 -24 -102 -14 -36 8 -38 13 -11 42
30 32 24 36 -15 12 -40 -25 -105 -20 -105 9 -1 32 -335 291 -417 322 -16 6
-44 25 -63 43 -47 44 -95 76 -152 103 -40 18 -48 27 -48 49 0 19 -12 38 -36
61 -35 32 -36 33 -27 85 4 29 8 94 7 143 0 76 -4 98 -26 140 -38 74 -44 129
-20 190 11 28 22 79 26 114 4 36 14 77 22 92 8 16 14 38 14 51 0 13 7 37 16
53 10 18 18 66 21 124 8 157 13 173 53 184 101 25 128 147 51 221 -31 30 -91
42 -127 27z" id="node1" class="node"></path>
</g>
<g transform="translate(0.000000,300.000000) scale(0.100000,-0.100000)" fill="#A1A1A1" stroke="none">

</g>
</svg>