<!--?xml version="1.0" standalone="no"?-->

<svg version="1.0" xmlns="http://www.w3.org/2000/svg" width="300.000000pt" height="300.000000pt" viewBox="0 0 300.000000 300.000000" preserveAspectRatio="xMidYMid meet">
<g transform="translate(0.000000,300.000000) scale(0.100000,-0.100000)" fill="#0A0A0A" stroke="none">
<path class="node" id="node1" d="M1058 2566 c-117 -34 -244 -139 -331 -274 -58 -90 -148 -269 -212
-422 -26 -63 -52 -124 -56 -135 -37 -86 -191 -536 -186 -541 2 -2 23 38 47 89
166 355 350 691 483 885 100 145 215 222 333 222 86 0 163 -41 185 -99 9 -24
10 -24 23 -5 22 31 78 204 72 220 -3 8 -32 27 -63 42 -48 21 -75 27 -153 29
-57 1 -113 -3 -142 -11z"></path>
<path class="node" id="node2" d="M1664 2562 c-67 -23 -104 -48 -104 -70 0 -15 27 -93 69 -196 l12 -29
26 41 c53 81 187 105 303 55 58 -26 140 -100 195 -177 96 -135 244 -397 386
-681 82 -165 149 -298 149 -295 0 23 -42 151 -120 365 -109 298 -244 590 -339
732 -90 134 -190 217 -309 253 -82 25 -198 26 -268 2z"></path>
<path class="node" id="node3" d="M1463 2428 c-44 -114 -85 -226 -198 -538 -64 -179 -123 -341 -130
-360 -7 -19 -32 -89 -54 -155 -23 -66 -50 -142 -60 -170 -11 -27 -61 -165
-111 -305 -139 -383 -142 -390 -154 -390 -6 0 -32 23 -56 52 -25 29 -69 79
-98 111 -28 33 -80 97 -115 142 -34 46 -64 82 -66 80 -10 -11 210 -350 273
-420 43 -47 42 -55 -9 -161 -56 -114 -144 -186 -270 -219 -32 -8 -61 -18 -64
-21 -3 -4 52 -4 124 0 171 9 317 9 466 0 91 -5 120 -4 115 4 -4 7 -20 12 -36
12 -40 0 -80 17 -112 48 -24 22 -28 33 -28 84 0 32 4 58 9 58 5 0 35 -12 67
-27 78 -36 197 -43 275 -18 113 37 183 101 233 213 10 23 23 39 27 36 5 -3 23
-35 41 -71 36 -72 89 -122 175 -164 41 -21 63 -24 153 -24 94 0 111 3 165 28
56 26 60 27 72 11 15 -20 26 -74 21 -101 -4 -21 -78 -61 -131 -70 -20 -3 -40
-10 -44 -16 -4 -7 18 -7 68 -1 91 11 283 11 530 -1 135 -6 188 -5 193 3 4 7
-4 14 -21 17 -197 40 -253 84 -351 274 l-61 120 75 108 c78 111 179 276 190
309 5 17 4 17 -7 -1 -54 -85 -277 -347 -290 -340 -5 3 -17 25 -27 48 -203 449
-364 839 -498 1207 -19 52 -38 104 -43 115 -13 30 -64 166 -106 285 -58 164
-97 260 -104 260 -4 0 -17 -24 -28 -52z m36 -475 c12 -43 29 -96 36 -118 8
-22 26 -80 40 -130 15 -49 39 -130 55 -180 15 -49 42 -137 60 -195 17 -58 38
-123 46 -145 8 -23 14 -46 14 -53 0 -9 -69 -12 -290 -12 -166 0 -290 4 -290 9
0 5 24 83 54 173 30 89 84 258 121 373 59 187 97 305 110 343 9 27 21 9 44
-65z m312 -983 c5 -8 19 -44 33 -80 84 -222 130 -338 166 -419 22 -51 40 -95
40 -100 0 -13 -67 -39 -131 -51 -159 -29 -289 42 -381 208 -22 39 -44 72 -49
72 -5 0 -22 -26 -38 -59 -85 -167 -239 -254 -392 -222 -65 14 -137 42 -142 56
-7 18 82 289 166 508 l42 107 339 -2 c289 -3 340 -5 347 -18z"></path>
</g>
<g transform="translate(0.000000,300.000000) scale(0.100000,-0.100000)" fill="#ADADAD" stroke="none">



</g>
</svg>