<!--?xml version="1.0" standalone="no"?--><svg version="1.0" xmlns="http://www.w3.org/2000/svg" width="300.000000pt" height="300.000000pt" viewBox="0 0 300.000000 300.000000" preserveAspectRatio="xMidYMid meet">
<metadata>
  <rdf:rdf xmlns:rdf="http://www.w3.org/1999/02/22-rdf-syntax-ns#" xmlns:rdfs="http://www.w3.org/2000/01/rdf-schema#" xmlns:dc="http://purl.org/dc/elements/1.1/">
    <rdf:description dc:title="amazon logo" dc:publisher="Hiox" dc:date="2015-03-28" dc:format="image/svg+xml" dc:language="en">
      <dc:creator>
        <rdf:bag>
          <rdf:li>svgimages.com</rdf:li>
        </rdf:bag>
      </dc:creator>
    </rdf:description>
  </rdf:rdf>
</metadata>
<g transform="translate(0.000000,300.000000) scale(0.100000,-0.100000)" fill="#A03B5E" stroke="none">
<path d="M1407 2580 c-246 -31 -411 -145 -482 -335 -30 -78 -32 -121 -7 -134
10 -5 82 -17 161 -26 159 -18 162 -17 182 43 32 102 98 152 207 159 107 7 181
-42 202 -133 14 -60 12 -174 -2 -178 -7 -2 -80 -11 -162 -20 -274 -31 -413
-82 -519 -191 -83 -84 -137 -219 -137 -345 0 -63 25 -174 52 -229 72 -149 251
-227 462 -201 130 16 221 59 323 153 l46 42 21 -30 c11 -16 51 -61 88 -98 56
-59 70 -68 90 -61 12 4 76 52 140 107 83 71 118 107 118 122 0 12 -18 46 -39
76 -78 108 -74 88 -81 539 -6 389 -7 407 -28 461 -40 101 -102 169 -200 218
-102 52 -294 79 -435 61z m271 -952 c-7 -147 -29 -218 -92 -286 -50 -55 -88
-72 -159 -72 -96 0 -157 66 -165 180 -13 182 123 298 352 299 l69 1 -5 -122z" id="node1" class="node" stroke-width="20"></path>
</g>
<g transform="translate(0.000000,300.000000) scale(0.100000,-0.100000)" fill="#AF8D4F" stroke="none">






































<path d="M2225 963 c-54 -16 -110 -51 -100 -62 4 -3 62 -4 129 -3 175 5 181
-5 115 -195 -16 -45 -29 -84 -29 -87 0 -17 32 -2 59 29 60 69 101 174 101 262
0 48 -2 52 -31 62 -45 16 -185 12 -244 -6z" id="node40" class="node" stroke-width="20"></path>
<path d="M515 960 c-13 -21 8 -51 96 -134 257 -242 574 -376 889 -376 231 0
477 75 675 206 102 67 155 116 155 143 0 37 -28 35 -128 -12 -447 -207 -936
-204 -1379 8 -96 45 -150 77 -280 162 -14 10 -23 11 -28 3z" id="node41" class="node" stroke-width="20"></path>
</g>
<g transform="translate(0.000000,300.000000) scale(0.100000,-0.100000)" fill="#A733F2" stroke="none">


</g>
</svg>