<!--?xml version="1.0" standalone="no"?-->

<svg version="1.0" xmlns="http://www.w3.org/2000/svg" width="300.000000pt" height="300.000000pt" viewBox="0 0 300.000000 300.000000" preserveAspectRatio="xMidYMid meet">
<g transform="translate(0.000000,300.000000) scale(0.100000,-0.100000)" fill="#0A0A0A" stroke="none">
<path class="node" id="node1" d="M1060 2769 c-68 -27 -120 -118 -120 -210 0 -99 65 -334 200 -722 29
-82 49 -151 47 -154 -3 -3 -31 4 -62 16 -31 12 -67 21 -81 21 -66 0 -185 -96
-219 -176 -21 -50 -19 -79 9 -164 15 -48 19 -73 12 -76 -139 -47 -181 -78
-222 -161 -27 -54 -28 -66 -29 -178 0 -105 4 -129 27 -190 93 -249 298 -432
573 -512 80 -23 107 -26 235 -26 125 1 159 5 245 28 198 54 350 153 473 308
147 185 212 389 212 660 0 156 -15 240 -58 320 -29 55 -104 110 -176 129 -25
7 -46 17 -46 24 0 6 12 43 26 80 66 176 163 489 189 615 30 139 13 230 -51
291 -37 34 -107 51 -157 37 -81 -22 -191 -191 -300 -457 -59 -147 -69 -175
-122 -330 -33 -99 -39 -97 -79 28 -15 47 -34 99 -41 115 -7 17 -18 46 -23 65
-25 84 -88 236 -153 369 -56 114 -82 156 -128 202 -55 57 -59 59 -106 58 -28
0 -61 -5 -75 -10z m129 -122 c42 -40 98 -170 206 -487 20 -58 54 -154 75 -215
51 -141 53 -161 20 -158 -104 8 -161 6 -172 -5 -23 -23 -35 -11 -62 66 -148
408 -199 573 -212 683 -14 122 67 187 145 116z m981 -45 c48 -39 43 -119 -21
-319 -61 -193 -151 -453 -181 -524 -16 -36 -16 -36 -59 -29 -102 17 -179 34
-179 39 0 6 5 20 111 326 34 99 70 204 80 232 34 100 96 219 133 256 41 42 80
48 116 19z m-515 -923 c251 -21 480 -94 538 -171 48 -64 67 -215 48 -390 -23
-209 -96 -373 -232 -522 -135 -148 -281 -222 -486 -247 -236 -29 -468 53 -630
225 -116 121 -193 282 -193 399 1 119 78 227 163 227 53 0 182 -135 284 -298
51 -81 55 -121 17 -151 -73 -57 -176 0 -299 167 -22 28 -43 52 -47 52 -9 0
-12 -29 -9 -73 8 -102 136 -238 263 -279 58 -19 72 -20 108 -9 82 24 135 96
128 176 l-3 36 61 3 61 4 5 -82 c7 -113 45 -193 105 -224 12 -7 26 -12 32 -12
18 0 13 51 -14 140 -31 104 -31 142 0 231 47 136 176 276 302 328 98 40 165
75 170 89 3 6 -2 23 -11 37 -16 24 -22 25 -109 25 -326 2 -500 52 -555 160
-37 72 -17 152 42 163 41 8 142 7 261 -4z m-506 -119 c97 -76 281 -431 281
-541 0 -30 -51 -89 -76 -89 -82 0 -281 216 -385 415 -45 87 -49 130 -17 178
54 83 123 96 197 37z m355 -270 c15 -5 67 -15 116 -21 50 -6 90 -15 90 -19 0
-4 -12 -16 -27 -26 -16 -9 -54 -44 -86 -76 -59 -59 -77 -69 -77 -44 0 12 -40
121 -67 184 -6 14 16 16 51 2z"></path>
</g>
<g transform="translate(0.000000,300.000000) scale(0.100000,-0.100000)" fill="#A0A0A0" stroke="none">

<path class="node" id="node3" d="M1094 2670 c-11 -4 -29 -25 -39 -46 -37 -78 1 -225 201 -776 27 -77
39 -89 62 -66 11 11 68 13 172 5 33 -3 31 17 -20 158 -21 61 -55 157 -75 215
-108 317 -164 447 -206 487 -29 26 -66 35 -95 23z"></path>
<path class="node" id="node4" d="M2054 2583 c-37 -37 -99 -156 -133 -256 -10 -28 -46 -133 -80 -232
-106 -306 -111 -320 -111 -326 0 -5 77 -22 179 -39 50 -8 45 -17 113 175 100
284 166 491 176 558 21 138 -59 205 -144 120z"></path>
<path class="node" id="node5" d="M1394 1683 c-59 -11 -79 -91 -42 -163 55 -108 229 -158 555 -160 87
0 93 -1 109 -25 9 -14 14 -31 11 -37 -5 -14 -72 -49 -170 -89 -126 -52 -255
-192 -302 -328 -31 -89 -31 -127 0 -231 27 -89 32 -140 14 -140 -6 0 -20 5
-32 12 -60 31 -98 111 -105 224 l-5 82 -61 -4 -61 -3 3 -36 c7 -80 -46 -152
-128 -176 -126 -38 -359 144 -371 288 -3 44 0 73 9 73 4 0 25 -24 47 -52 123
-167 226 -224 299 -167 38 30 34 70 -17 151 -102 163 -231 298 -284 298 -85 0
-162 -108 -163 -227 0 -117 77 -278 193 -399 119 -126 256 -195 445 -225 140
-22 353 16 471 84 184 106 329 291 397 505 44 137 55 377 23 497 -28 105 -109
153 -349 209 -147 35 -404 55 -486 39z"></path>
<path class="node" id="node6" d="M1004 1579 c-43 -32 -74 -83 -74 -123 0 -73 136 -289 261 -417 63
-64 130 -109 163 -109 25 0 76 59 76 89 0 70 -101 301 -190 434 -87 131 -169
174 -236 126z"></path>
<path class="node" id="node7" d="M1453 1288 c27 -63 67 -172 67 -184 0 -25 18 -15 77 44 32 32 70 67
86 76 15 10 27 22 27 26 0 4 -40 13 -90 19 -49 6 -101 16 -116 21 -35 14 -57
12 -51 -2z"></path>
</g>
</svg>