<!--?xml version="1.0" standalone="no"?-->

<svg version="1.0" xmlns="http://www.w3.org/2000/svg" width="300.000000pt" height="144.000000pt" viewBox="0 0 300.000000 144.000000" preserveAspectRatio="xMidYMid meet">
<g transform="translate(0.000000,144.000000) scale(0.100000,-0.100000)" fill="#070707" stroke="none">
<path class="node" id="node1" d="M1908 1393 l-68 -25 0 -139 0 -139 -60 0 -60 0 0 -50 0 -50 59 0 60
0 3 -362 c5 -415 6 -426 87 -508 70 -72 136 -94 281 -93 82 0 133 6 180 19
l65 19 3 58 c2 31 1 57 -1 57 -2 0 -30 -9 -63 -21 -32 -11 -91 -23 -129 -26
-135 -11 -228 39 -254 134 -7 24 -11 237 -11 596 0 439 -3 557 -12 556 -7 -1
-43 -13 -80 -26z"></path>
<path class="node" id="node2" d="M305 1099 c-66 -10 -108 -22 -177 -51 l-48 -20 0 -54 c0 -30 3 -54 6
-54 3 0 47 15 98 34 166 63 297 58 367 -13 43 -42 59 -91 59 -178 l0 -63 -48
0 c-79 0 -213 -19 -287 -41 -170 -50 -249 -150 -248 -314 1 -147 61 -237 196
-294 57 -24 73 -26 207 -25 146 0 211 11 304 49 l37 16 -3 387 -3 387 -33 68
c-54 109 -143 161 -297 171 -38 2 -97 0 -130 -5z m303 -723 l2 -227 -37 -16
c-55 -23 -195 -23 -255 0 -95 37 -148 137 -134 254 16 137 104 197 311 213 50
4 95 6 100 5 6 -1 11 -87 13 -229z"></path>
<path class="node" id="node3" d="M1195 1104 c-56 -9 -144 -34 -190 -54 l-45 -19 0 -57 c0 -50 2 -55
18 -49 267 114 452 92 497 -58 8 -28 15 -76 15 -107 l0 -57 -107 -6 c-316 -20
-458 -114 -480 -317 -13 -125 46 -249 144 -302 133 -73 366 -76 546 -8 l58 22
-3 381 c-3 323 -6 389 -20 425 -50 134 -153 199 -323 207 -44 2 -93 1 -110 -1z
m290 -728 l0 -229 -40 -15 c-63 -22 -200 -20 -255 4 -86 39 -130 113 -130 219
0 152 86 226 285 246 39 3 86 6 105 5 l35 -1 0 -229z"></path>
<path class="node" id="node4" d="M2070 1040 l0 -50 195 0 195 0 0 50 0 50 -195 0 -195 0 0 -50z"></path>
<path class="node" id="node5" d="M2072 858 l3 -53 193 -3 192 -2 0 55 0 55 -196 0 -195 0 3 -52z"></path>
<path stroke-width="20" class="node" id="node6" d="M2693 220 c-24 -10 -37 -39 -27 -63 3 -8 26 -25 50 -37 32 -14 44
-26 42 -38 -4 -22 -34 -27 -64 -11 -28 14 -42 6 -25 -15 31 -37 106 -25 117
19 8 31 -7 51 -55 73 -19 9 -36 23 -39 29 -6 20 27 27 54 13 28 -16 44 -6 23
14 -20 20 -50 26 -76 16z"></path>
<path stroke-width="20" class="node" id="node7" d="M2842 137 c-26 -100 -26 -97 -8 -97 7 0 16 9 19 20 7 28 63 28 72 0
3 -11 13 -20 21 -20 11 0 13 6 8 23 -4 12 -15 51 -24 87 -14 56 -19 65 -41 68
-23 3 -26 -2 -47 -81z m58 34 c0 -5 3 -23 6 -40 6 -27 4 -31 -15 -31 -22 0
-26 15 -15 58 6 21 24 31 24 13z"></path>
</g>
<g transform="translate(0.000000,144.000000) scale(0.100000,-0.100000)" fill="#A2A2A2" stroke="none">




</g>
</svg>