<!--?xml version="1.0" standalone="no"?-->

<svg version="1.0" xmlns="http://www.w3.org/2000/svg" width="300.000000pt" height="265.000000pt" viewBox="0 0 300.000000 265.000000" preserveAspectRatio="xMidYMid meet">
<g transform="translate(0.000000,265.000000) scale(0.100000,-0.100000)" fill="#0D0D0D" stroke="none">
<path class="node" id="node1" d="M1280 2594 c-193 -19 -450 -107 -612 -211 -282 -181 -483 -466 -590
-835 -31 -108 -31 -295 1 -398 54 -173 142 -284 265 -333 138 -56 343 -61 471
-12 92 34 128 58 208 134 65 62 67 63 67 36 0 -40 38 -95 76 -111 71 -30 159
-11 253 54 37 25 56 33 59 24 8 -26 52 -70 82 -82 54 -22 164 2 231 51 14 10
21 7 45 -20 62 -69 180 -46 296 58 15 14 30 22 33 19 3 -3 -13 -37 -36 -76
-27 -47 -49 -73 -67 -80 -188 -68 -257 -107 -311 -176 -57 -72 -53 -157 10
-208 49 -40 123 -42 194 -5 75 38 93 60 206 254 45 79 59 95 89 104 56 18 167
79 239 131 75 54 261 236 261 254 0 7 -13 22 -28 33 l-28 19 -78 -84 c-43 -47
-108 -109 -145 -138 -74 -60 -181 -123 -181 -108 0 11 406 714 442 765 l19 28
-87 -3 -88 -3 -97 -170 c-54 -93 -119 -208 -145 -255 -53 -94 -103 -146 -213
-221 -51 -34 -82 -49 -100 -47 -42 5 -38 39 17 136 75 133 281 493 304 530
l20 32 -84 0 -84 0 -39 -67 c-22 -38 -44 -77 -51 -88 -6 -11 -46 -81 -89 -155
-43 -74 -102 -178 -131 -230 -70 -126 -76 -134 -130 -164 -68 -38 -124 -32
-124 13 0 9 67 133 149 276 l150 260 -50 3 c-46 3 -49 5 -49 31 0 15 -13 46
-29 68 -75 104 -224 94 -351 -23 -46 -43 -80 -92 -156 -222 -53 -92 -102 -174
-108 -183 -8 -12 -11 10 -11 95 0 106 -2 115 -33 178 -19 38 -49 80 -69 97
-20 17 -35 32 -32 34 2 2 27 14 54 27 60 28 153 119 180 175 27 57 33 181 10
226 -27 53 -54 77 -112 99 -116 43 -220 14 -316 -89 -29 -32 -68 -83 -84 -112
-124 -217 -459 -795 -487 -841 -19 -32 -41 -58 -49 -58 -24 0 -76 129 -89 218
-38 271 113 642 362 892 442 443 1116 506 1645 152 171 -114 381 -371 444
-544 13 -35 46 -39 35 -5 -12 42 -75 171 -106 222 -198 315 -500 528 -858 605
-94 20 -298 32 -390 24z m-149 -583 c75 -76 4 -235 -133 -296 -60 -27 -198
-48 -198 -30 0 9 90 168 136 240 35 56 55 75 99 98 43 23 63 21 96 -12z m-298
-447 c65 -22 139 -91 167 -155 59 -139 -14 -343 -157 -439 -84 -57 -138 -73
-243 -73 -92 0 -196 25 -223 52 -6 6 9 39 40 88 45 69 180 301 282 481 39 70
51 74 134 46z m875 -18 c31 -31 16 -82 -63 -223 -92 -164 -132 -222 -197 -285
-83 -82 -174 -113 -198 -68 -12 23 -13 22 159 325 106 186 144 237 196 261 33
16 83 11 103 -10z m298 -862 c-3 -8 -24 -46 -46 -85 -43 -72 -75 -94 -105 -69
-35 29 1 96 77 139 59 34 83 39 74 15z"></path>
<path class="node" id="node2" d="M2756 1039 c-33 -39 -33 -62 0 -88 22 -17 35 -20 78 -15 40 5 55 3
65 -10 22 -26 6 -49 -30 -42 -22 4 -31 1 -36 -10 -7 -18 12 -34 43 -34 29 0
74 50 74 83 0 40 -39 61 -99 54 -56 -7 -88 9 -78 38 5 12 15 16 32 13 31 -6
57 19 34 33 -27 17 -57 9 -83 -22z"></path>
<path class="node" id="node3" d="M2626 925 c-14 -13 -26 -34 -26 -46 0 -12 24 -50 56 -85 45 -52 61
-64 85 -64 59 0 98 69 64 114 -12 15 -17 17 -29 7 -14 -11 -14 -15 0 -36 13
-20 13 -24 -1 -39 -20 -19 -33 -11 -89 50 -43 49 -49 71 -23 88 15 9 21 7 31
-7 12 -15 15 -15 26 -2 10 12 10 18 0 30 -19 23 -64 18 -94 -10z"></path>
<path class="node" id="node4" d="M2531 836 c-16 -20 136 -191 155 -175 8 6 14 16 14 21 0 11 -142 168
-151 168 -4 0 -12 -6 -18 -14z"></path>
<path class="node" id="node5" d="M2463 774 c-3 -9 5 -26 21 -43 31 -32 32 -42 7 -65 -17 -16 -20 -15
-54 23 -33 36 -37 38 -51 22 -14 -15 -11 -20 26 -61 22 -25 58 -65 79 -90 36
-42 39 -44 56 -27 16 16 15 19 -16 51 -35 36 -36 61 -5 73 12 4 27 -5 50 -29
28 -31 35 -34 50 -23 17 12 16 14 -3 39 -44 55 -132 146 -143 146 -6 0 -13 -7
-17 -16z"></path>
<path class="node" id="node6" d="M2283 616 c-36 -33 -37 -34 -20 -57 9 -13 43 -53 76 -88 52 -57 61
-63 75 -52 15 12 14 17 -9 47 l-26 34 20 26 c28 35 26 65 -4 98 -33 36 -67 33
-112 -8z m100 -61 c-9 -26 -34 -25 -59 2 -29 31 -30 39 -6 52 13 7 23 4 44
-16 14 -14 24 -31 21 -38z"></path>
<path class="node" id="node7" d="M2161 506 c-11 -12 -21 -26 -21 -31 0 -18 106 -195 117 -195 18 0 25
18 14 38 -8 15 -5 24 13 41 21 20 27 21 45 9 16 -10 23 -10 33 0 15 15 3 28
-103 105 l-77 56 -21 -23z m82 -77 c30 -25 35 -34 26 -45 -23 -28 -36 -17 -77
69 -8 16 16 5 51 -24z"></path>
<path stroke-width="20" class="node" id="node8" d="M2008 371 l-42 -38 79 -87 c68 -75 81 -85 93 -72 13 12 11 19 -13 51
-26 34 -27 37 -12 53 16 15 19 14 52 -18 31 -30 37 -32 50 -19 13 13 13 17 -1
38 -9 13 -32 29 -50 37 -23 9 -34 21 -34 34 0 26 -34 60 -60 60 -12 0 -39 -17
-62 -39z m74 -18 c23 -20 23 -49 1 -58 -13 -4 -25 2 -40 22 -21 26 -22 29 -6
41 21 15 23 15 45 -5z"></path>
<path class="node" id="node9" d="M1882 261 c-18 -16 -32 -38 -32 -49 0 -19 52 -88 101 -134 26 -25 61
-22 93 7 33 31 33 65 0 104 -30 36 -44 38 -67 13 -19 -20 -13 -32 14 -32 25 0
52 -40 37 -57 -6 -7 -18 -13 -27 -13 -16 1 -104 100 -109 124 -4 20 36 30 54
15 21 -18 43 4 28 29 -18 29 -57 26 -92 -7z"></path>
</g>
<g transform="translate(0.000000,265.000000) scale(0.100000,-0.100000)" fill="#9F9F9F" stroke="none">








</g>
</svg>