<!--?xml version="1.0" standalone="no"?-->

<svg version="1.0" xmlns="http://www.w3.org/2000/svg" width="300.000000pt" height="300.000000pt" viewBox="0 0 300.000000 300.000000" preserveAspectRatio="xMidYMid meet">
<g transform="translate(0.000000,300.000000) scale(0.100000,-0.100000)" fill="#0A0A0A" stroke="none">
<path class="node" id="node1" d="M1538 1669 c-106 -110 -194 -205 -196 -210 -2 -5 26 -9 62 -9 36 0
66 -4 66 -9 0 -10 -39 -116 -63 -171 -26 -59 -57 -138 -57 -144 0 -3 83 84
185 194 102 109 190 202 195 205 25 15 5 24 -60 27 l-69 3 50 115 c52 121 79
180 86 193 14 24 -25 -14 -199 -194z"></path>
<path stroke-width="20" class="node" id="node2" d="M316 1798 c-2 -7 -9 -44 -16 -83 -7 -38 -21 -113 -31 -165 -9 -52
-27 -144 -39 -205 -11 -60 -24 -130 -29 -153 l-9 -44 212 4 211 3 60 30 c82
41 118 93 123 178 4 55 1 65 -20 88 -13 14 -33 31 -44 38 -14 9 -16 14 -6 18
26 10 83 66 98 94 7 15 14 51 14 80 0 46 -4 55 -34 84 -19 18 -49 35 -66 39
-18 3 -120 6 -227 6 -146 0 -195 -3 -197 -12z m304 -118 c24 -24 25 -41 5 -79
-16 -32 -59 -51 -113 -51 l-35 0 7 61 c10 88 11 89 67 89 36 0 54 -5 69 -20z
m-37 -272 c26 -32 15 -85 -26 -120 -26 -23 -41 -28 -84 -28 -36 0 -53 4 -53
13 0 21 28 145 35 158 13 20 107 4 128 -23z"></path>
<path class="node" id="node3" d="M960 1790 c0 -20 -26 -157 -86 -456 -19 -94 -34 -174 -34 -178 0 -3
102 -6 228 -6 l227 0 13 53 c6 29 12 58 12 65 0 9 -33 12 -126 12 l-126 0 7
43 c11 71 82 445 91 475 2 9 -22 12 -101 12 -98 0 -105 -1 -105 -20z"></path>
<path class="node" id="node4" d="M1745 1764 c-3 -26 -9 -53 -12 -60 -4 -11 12 -14 77 -14 l83 0 -7
-52 c-8 -56 -47 -266 -71 -382 -24 -113 -30 -106 83 -106 l97 0 24 123 c13 67
34 177 47 245 13 68 24 132 24 142 0 24 19 30 106 30 82 0 75 -6 89 83 l6 37
-269 0 -270 0 -7 -46z"></path>
<path class="node" id="node5" d="M2336 1793 c-2 -10 -8 -37 -11 -60 l-7 -43 114 0 c63 0 118 -3 121
-6 3 -4 -13 -30 -37 -58 -23 -28 -99 -117 -168 -198 -106 -126 -126 -155 -136
-198 -7 -28 -12 -58 -12 -66 0 -12 40 -14 244 -14 274 0 248 -8 261 78 l7 42
-126 0 c-79 0 -127 4 -132 11 -3 6 9 27 28 47 19 21 74 87 123 147 49 61 106
130 127 154 21 24 45 66 53 94 28 94 46 87 -214 87 -210 0 -230 -1 -235 -17z"></path>
</g>
<g transform="translate(0.000000,300.000000) scale(0.100000,-0.100000)" fill="#A0A0A0" stroke="none">



</g>
</svg>