<!--?xml version="1.0" standalone="no"?-->

<svg version="1.0" xmlns="http://www.w3.org/2000/svg" width="300.000000pt" height="118.000000pt" viewBox="0 0 300.000000 118.000000" preserveAspectRatio="xMidYMid meet">
<g transform="translate(0.000000,118.000000) scale(0.100000,-0.100000)" fill="#080808" stroke="none">
<path class="node" id="node1" d="M655 1158 c-37 -20 -55 -51 -55 -99 0 -81 65 -130 145 -108 92 26
105 164 18 208 -27 14 -82 14 -108 -1z"></path>
<path class="node" id="node2" d="M240 897 c-227 -64 -305 -363 -138 -529 69 -69 127 -93 228 -93 74 0
92 4 142 29 32 16 65 37 74 47 15 17 13 22 -22 81 -55 93 -54 92 -78 70 -55
-51 -114 -63 -172 -36 -98 47 -98 201 0 248 19 9 44 16 55 16 30 0 91 -27 117
-51 24 -23 23 -24 78 69 35 59 37 64 22 81 -55 61 -210 95 -306 68z"></path>
<path class="node" id="node3" d="M620 590 l0 -310 90 0 90 0 0 310 0 310 -90 0 -90 0 0 -310z"></path>
<path class="node" id="node4" d="M857 893 c-4 -3 -7 -39 -7 -80 l0 -73 70 0 70 0 0 -230 0 -231 93 3
92 3 3 228 2 227 65 0 65 0 0 80 0 80 -223 0 c-123 0 -227 -3 -230 -7z"></path>
<path class="node" id="node5" d="M1365 889 c-3 -8 -4 -147 -3 -309 l3 -295 90 0 90 0 5 84 5 85 55
-85 55 -84 113 -3 c61 -1 112 1 112 5 0 4 -40 60 -89 123 l-89 114 27 17 c48
29 75 77 79 140 6 76 -1 101 -40 145 -51 58 -83 67 -255 72 -124 4 -154 2
-158 -9z m270 -154 c14 -13 25 -33 25 -43 0 -32 -32 -62 -72 -69 l-38 -6 0 72
0 71 30 0 c19 0 40 -9 55 -25z"></path>
<path class="node" id="node6" d="M1940 590 l0 -310 90 0 90 0 0 310 0 310 -90 0 -90 0 0 -310z"></path>
<path class="node" id="node7" d="M2210 895 c0 -4 41 -66 91 -140 51 -73 89 -139 86 -147 -3 -7 -55
-80 -116 -162 -61 -82 -111 -153 -111 -157 0 -5 47 -9 105 -9 l105 0 67 91 66
90 51 -88 52 -88 107 -3 c59 -1 107 0 107 4 0 9 -27 52 -118 192 -40 63 -76
120 -79 128 -3 7 35 69 87 140 50 69 94 132 97 140 4 12 -14 14 -105 14 l-110
0 -42 -67 -42 -67 -37 65 -37 64 -112 3 c-62 1 -112 0 -112 -3z"></path>





<path class="node" id="node13" d="M1993 229 c-46 -14 -73 -53 -73 -106 0 -38 5 -50 34 -79 27 -27 42
-34 72 -34 88 0 143 76 111 152 -25 58 -82 85 -144 67z"></path>
</g>
<g transform="translate(0.000000,118.000000) scale(0.100000,-0.100000)" fill="#A1A0A0" stroke="none">



</g>
</svg>