<!--?xml version="1.0" standalone="no"?-->

<svg version="1.0" xmlns="http://www.w3.org/2000/svg" width="300.000000pt" height="225.000000pt" viewBox="0 0 300.000000 225.000000" preserveAspectRatio="xMidYMid meet">
<g transform="translate(0.000000,225.000000) scale(0.100000,-0.100000)" fill="#222021" stroke="none">
<path class="node" id="node1" d="M816 1355 c-21 -7 -56 -30 -77 -51 -126 -123 -99 -323 54 -399 159
-79 337 37 337 220 0 171 -157 286 -314 230z m168 -117 c91 -75 59 -228 -55
-258 -51 -14 -83 -4 -129 39 -67 63 -64 163 5 218 60 48 121 49 179 1z"></path>
<path class="node" id="node2" d="M861 1161 c-25 -25 -26 -39 -5 -69 21 -30 59 -29 81 4 15 24 15 29 2
53 -19 33 -52 38 -78 12z"></path>
<path class="node" id="node3" d="M1625 1351 c-59 -27 -97 -63 -125 -117 -46 -93 -27 -207 46 -285 74
-79 201 -92 291 -30 57 39 88 82 104 146 23 91 -8 185 -83 249 -67 58 -157 72
-233 37z m164 -101 c36 -19 61 -70 61 -125 0 -67 -27 -111 -87 -137 -39 -17
-52 -19 -83 -9 -48 14 -98 65 -106 108 -12 63 2 105 46 145 54 48 103 54 169
18z"></path>
<path class="node" id="node4" d="M1676 1164 c-24 -23 -20 -61 8 -79 23 -16 54 -11 68 9 12 17 9 61 -4
74 -17 17 -54 15 -72 -4z"></path>
<path class="node" id="node5" d="M345 1336 c-143 -66 -179 -267 -69 -380 54 -56 89 -70 169 -71 59 0
78 4 117 28 26 15 50 32 53 37 7 11 -34 68 -48 69 -5 1 -22 -8 -38 -20 -48
-34 -102 -36 -147 -6 -91 60 -95 185 -10 251 46 35 102 35 153 0 l38 -25 28
33 c15 18 28 36 29 40 0 4 -24 21 -52 38 -69 39 -148 41 -223 6z"></path>
<path class="node" id="node6" d="M1195 1352 c-3 -3 -5 -108 -5 -234 l0 -228 135 0 135 0 0 45 0 45
-90 0 -90 0 -2 188 -3 187 -37 1 c-21 1 -40 -1 -43 -4z"></path>
<path class="node" id="node7" d="M2018 1354 c-5 -4 -8 -110 -8 -236 l0 -229 48 3 47 3 3 78 3 77 37 0
c35 -1 39 -4 85 -80 l49 -80 55 0 55 0 -23 38 c-13 20 -36 57 -51 81 -15 25
-28 48 -28 51 0 3 14 14 31 24 58 34 76 128 38 196 -33 58 -74 73 -214 78 -66
2 -123 1 -127 -4z m184 -94 c53 0 78 -18 78 -57 0 -47 -25 -63 -102 -63 -37 0
-68 3 -69 8 -1 13 -2 66 0 96 1 24 4 27 24 22 12 -3 43 -6 69 -6z"></path>
<path class="node" id="node8" d="M2516 1341 c-71 -41 -96 -129 -54 -191 19 -29 39 -40 108 -65 103
-36 110 -41 110 -67 0 -52 -78 -63 -154 -22 l-50 26 -27 -33 c-26 -32 -27 -35
-11 -48 74 -58 207 -75 273 -33 44 27 64 71 62 132 -1 38 -7 50 -36 75 -20 17
-69 41 -113 55 -66 21 -80 29 -82 48 -8 53 55 68 130 32 23 -11 42 -19 43 -17
1 1 12 17 25 36 26 37 25 38 -45 71 -51 25 -139 25 -179 1z"></path>
</g>
<g transform="translate(0.000000,225.000000) scale(0.100000,-0.100000)" fill="#A1A0A1" stroke="none">




</g>
</svg>