<!--?xml version="1.0" standalone="no"?-->

<svg version="1.0" xmlns="http://www.w3.org/2000/svg" width="300.000000pt" height="150.000000pt" viewBox="0 0 300.000000 150.000000" preserveAspectRatio="xMidYMid meet">
<g transform="translate(0.000000,150.000000) scale(0.100000,-0.100000)" fill="#090909" stroke="none">
<path class="node" id="node1" d="M1272 1318 c-32 -32 0 -91 74 -134 47 -28 51 -33 32 -52 -18 -18 -49
-14 -73 8 -19 18 -29 20 -71 13 l-49 -8 3 -55 c6 -128 7 -135 31 -132 16 3 24
-3 28 -17 6 -24 8 -24 31 -12 12 6 37 3 77 -12 77 -27 263 -29 445 -4 230 32
349 -3 401 -117 23 -51 24 -118 3 -227 -23 -123 -7 -236 43 -291 34 -37 83
-13 83 41 0 11 -18 54 -40 96 -45 86 -50 131 -28 280 10 69 9 89 -4 128 -15
46 -10 67 18 67 21 0 102 80 154 151 50 68 78 89 124 89 12 0 37 16 56 35 19
19 39 35 46 35 19 0 66 103 51 112 -37 23 -96 -10 -137 -77 -17 -28 -28 -35
-54 -35 -78 0 -212 -51 -318 -121 -77 -51 -119 -50 -230 5 -123 61 -189 73
-288 53 -77 -16 -100 -11 -100 20 0 31 -55 70 -116 83 -120 24 -119 23 -119
55 0 26 -4 30 -30 33 -17 2 -36 -3 -43 -10z"></path>
<path class="node" id="node2" d="M382 774 c-22 -15 -22 -19 -22 -250 0 -294 -12 -274 168 -274 157 0
172 7 172 81 l0 49 -69 0 c-69 0 -70 0 -73 -27 -2 -20 -9 -29 -25 -31 l-23 -3
0 201 0 201 23 -3 c16 -2 23 -11 25 -30 3 -28 4 -28 73 -28 l69 0 0 49 c0 77
-8 81 -163 81 -104 0 -137 -3 -155 -16z"></path>
<path class="node" id="node3" d="M780 770 c-19 -19 -20 -33 -20 -250 0 -293 -14 -273 181 -268 111 2
142 6 149 18 5 8 10 122 10 257 0 229 -1 243 -19 253 -11 5 -78 10 -150 10
-118 0 -133 -2 -151 -20z m178 -249 c-3 -188 -4 -196 -23 -196 -19 0 -20 8
-23 194 -2 198 1 217 35 204 11 -4 13 -43 11 -202z"></path>
<path class="node" id="node4" d="M1187 772 c-15 -16 -17 -50 -17 -270 l0 -252 70 0 70 0 0 228 c0 125
4 233 9 241 5 8 16 11 25 8 14 -5 16 -38 18 -239 l3 -233 73 -3 72 -3 0 235
c0 237 4 262 35 236 12 -10 15 -53 15 -241 l0 -229 70 0 70 0 0 253 c0 233 -1
255 -18 270 -16 15 -49 17 -249 17 -210 0 -231 -2 -246 -18z"></path>
<path class="node" id="node5" d="M1780 770 c-19 -19 -20 -31 -18 -268 l3 -247 73 -3 72 -3 0 66 c0 63
1 65 25 65 24 0 25 -2 25 -65 l0 -66 73 3 72 3 0 253 c0 240 -1 254 -19 268
-15 10 -54 14 -153 14 -120 0 -135 -2 -153 -20z m178 -183 l3 -137 -26 0 -25
0 0 133 c0 74 3 137 7 141 4 4 14 5 23 4 12 -3 15 -26 18 -141z"></path>
</g>
<g transform="translate(0.000000,150.000000) scale(0.100000,-0.100000)" fill="#9E9E9E" stroke="none">



</g>
</svg>