<!--?xml version="1.0" standalone="no"?-->

<svg version="1.0" xmlns="http://www.w3.org/2000/svg" width="300.000000pt" height="300.000000pt" viewBox="0 0 300.000000 300.000000" preserveAspectRatio="xMidYMid meet">
<g transform="translate(0.000000,300.000000) scale(0.100000,-0.100000)" fill="#111011" stroke="none">
<path class="node" id="node1" d="M430 1670 c-18 -18 -20 -33 -20 -170 0 -199 -8 -190 180 -190 188 0
180 -9 180 190 0 199 8 190 -180 190 -127 0 -142 -2 -160 -20z m199 -102 c1
-15 11 -18 61 -18 33 0 60 -3 60 -7 0 -4 -18 -23 -41 -43 l-41 -35 22 -64 c11
-35 19 -66 16 -69 -3 -3 -29 14 -56 37 l-51 43 -55 -42 c-30 -24 -57 -41 -59
-38 -3 3 4 31 15 64 11 32 20 62 20 66 0 4 -20 21 -45 38 -25 17 -45 35 -45
40 0 6 26 10 58 10 53 0 60 2 70 25 7 14 12 30 12 35 0 5 5 21 11 37 l11 28
18 -45 c11 -25 19 -53 19 -62z"></path>
<path class="node" id="node2" d="M116 1658 c-13 -18 -16 -52 -16 -165 0 -187 -4 -183 155 -183 l115 0
0 50 0 50 -85 0 -86 0 3 88 3 87 83 0 82 0 0 48 0 47 -119 0 c-113 0 -121 -1
-135 -22z"></path>
<path class="node" id="node3" d="M820 1495 l0 -185 50 0 49 0 3 138 3 137 40 0 40 0 3 -137 3 -138 54
0 55 0 0 153 c0 134 -2 156 -20 185 l-20 32 -130 0 -130 0 0 -185z"></path>
<path class="node" id="node4" d="M1120 1675 c0 -2 6 -22 14 -42 8 -21 27 -78 41 -128 15 -49 30 -99
35 -110 5 -11 13 -33 18 -50 8 -29 11 -30 74 -33 l65 -3 13 43 c8 24 17 48 21
53 4 6 10 26 14 45 4 19 11 41 16 50 4 8 19 52 32 98 l25 83 -55 -3 -56 -3
-22 -65 c-12 -36 -24 -72 -28 -80 -3 -8 -7 -24 -9 -34 -7 -45 -25 -19 -56 79
l-34 105 -54 0 c-30 0 -54 -2 -54 -5z"></path>
<path class="node" id="node5" d="M1521 1654 c-19 -24 -21 -40 -21 -156 0 -124 7 -162 34 -180 6 -4 64
-8 129 -8 l117 0 0 50 0 50 -90 0 c-73 0 -90 3 -90 15 0 12 17 15 90 15 l90 0
0 50 0 50 -77 0 c-84 0 -109 9 -100 34 5 13 23 16 92 16 l85 0 0 45 0 45 -119
0 c-117 0 -120 -1 -140 -26z"></path>
<path class="node" id="node6" d="M1820 1495 l0 -185 55 0 55 0 0 95 c0 52 3 95 8 95 4 0 25 -42 48
-93 l41 -92 56 -3 57 -3 -31 63 -31 64 26 38 c42 62 30 181 -19 200 -9 3 -73
6 -141 6 l-124 0 0 -185z m194 89 c9 -3 16 -12 16 -19 0 -24 -82 -36 -95 -15
-19 31 32 52 79 34z"></path>
<path class="node" id="node7" d="M2190 1655 c-30 -32 -39 -111 -17 -158 21 -43 53 -57 132 -57 51 0
65 -3 65 -15 0 -12 -18 -15 -105 -15 l-105 0 0 -50 0 -50 133 0 c127 0 135 1
155 23 31 33 32 142 2 180 -18 23 -29 26 -93 29 -64 3 -72 5 -72 23 0 18 7 20
85 21 l85 2 3 46 3 46 -124 0 c-118 0 -124 -1 -147 -25z"></path>
<path class="node" id="node8" d="M2532 1660 c-21 -19 -22 -30 -22 -153 0 -73 3 -142 6 -153 9 -34 47
-44 164 -44 l110 0 0 50 0 50 -90 0 c-73 0 -90 3 -90 15 0 12 17 15 90 15 l90
0 0 50 0 50 -77 0 c-89 0 -114 10 -94 34 10 12 33 16 92 16 l79 0 0 45 0 45
-118 0 c-105 0 -121 -2 -140 -20z"></path>

</g>
<g transform="translate(0.000000,300.000000) scale(0.100000,-0.100000)" fill="#A3A3A3" stroke="none">

<path class="node" id="node11" d="M581 1647 c-6 -16 -11 -32 -11 -37 0 -5 -5 -21 -12 -35 -10 -23 -17
-25 -70 -25 -32 0 -58 -4 -58 -10 0 -5 20 -23 45 -40 25 -17 45 -34 45 -38 0
-4 -9 -34 -20 -66 -11 -33 -18 -61 -15 -64 2 -3 29 14 59 38 l55 42 51 -43
c27 -23 53 -40 56 -37 3 3 -5 34 -16 69 l-22 64 41 35 c23 20 41 39 41 43 0 4
-27 7 -60 7 -50 0 -60 3 -61 18 0 9 -8 37 -19 62 l-18 45 -11 -28z"></path>

</g>
</svg>