<!--?xml version="1.0" standalone="no"?-->

<svg version="1.0" xmlns="http://www.w3.org/2000/svg" width="300.000000pt" height="300.000000pt" viewBox="0 0 300.000000 300.000000" preserveAspectRatio="xMidYMid meet">
<g transform="translate(0.000000,300.000000) scale(0.100000,-0.100000)" fill="#242122" stroke="none">
<path d="M1495 2640 c-392 -41 -744 -296 -913 -662 -112 -241 -132 -507 -61
-793 11 -44 11 -45 60 -155 105 -241 291 -436 527 -554 445 -224 982 -138
1329 213 46 46 82 87 81 91 -6 13 -173 160 -183 160 -5 0 -36 -27 -67 -59
-279 -291 -706 -363 -1063 -181 -391 201 -580 636 -460 1063 69 245 239 445
480 564 113 57 267 92 397 93 125 0 299 -44 407 -104 31 -17 68 -37 83 -45 15
-8 53 -36 83 -64 l56 -49 72 68 c40 37 79 74 87 81 12 11 9 18 -20 49 -42 43
-192 145 -263 178 -197 93 -412 129 -632 106z" id="node1" class="node"></path>
<path d="M1429 2246 c-31 -7 -96 -33 -145 -57 -101 -51 -218 -153 -291 -256
l-46 -64 40 -42 c21 -23 95 -103 163 -177 68 -74 144 -156 168 -181 l44 -46
-2 -199 c0 -109 -3 -200 -5 -202 -7 -8 -129 80 -163 117 -42 47 -101 146 -109
182 l-5 29 -100 0 -100 0 6 -35 c11 -56 91 -204 149 -275 117 -143 281 -240
460 -269 l47 -8 0 251 c0 138 3 308 7 378 l6 128 -169 170 c-93 94 -170 175
-172 179 -5 15 63 96 106 124 43 29 79 30 68 2 -13 -35 4 -45 79 -45 87 0 82
-12 77 183 l-3 127 -27 -1 c-15 -1 -52 -7 -83 -13z" id="node2" class="node"></path>
<path d="M1692 1513 l3 -748 28 3 c16 2 58 13 95 25 l67 22 5 285 5 285 110 0
110 0 3 -30 c5 -43 -13 -96 -54 -156 l-36 -53 69 -63 c37 -34 71 -62 74 -63
24 -1 134 189 166 285 37 111 38 272 4 390 -56 191 -149 327 -298 434 -87 63
-259 131 -330 131 l-23 0 2 -747z m297 410 c84 -85 141 -202 141 -290 l0 -33
-115 0 -115 0 -2 173 c0 94 -2 179 -3 187 -5 48 18 39 94 -37z" id="node3" class="node"></path>
</g>
<g transform="translate(0.000000,300.000000) scale(0.100000,-0.100000)" fill="#A7A6A6" stroke="none">


</g>
</svg>