<!--?xml version="1.0" standalone="no"?-->

<svg version="1.0" xmlns="http://www.w3.org/2000/svg" width="300.000000pt" height="300.000000pt" viewBox="0 0 300.000000 300.000000" preserveAspectRatio="xMidYMid meet">
<g transform="translate(0.000000,300.000000) scale(0.100000,-0.100000)" fill="#0D0D0D" stroke="none">
<path class="node" id="node1" d="M1148 2087 c3 -29 -13 -109 -47 -240 -53 -206 -71 -260 -98 -289 -15
-17 -7 -18 193 -18 119 0 226 5 249 11 46 12 96 56 129 114 65 110 92 324 51
395 -37 63 -65 70 -285 70 l-195 0 3 -43z m321 -39 c14 -24 12 -39 -27 -195
-51 -200 -66 -234 -113 -249 -55 -19 -74 -5 -74 52 1 72 82 374 108 402 30 32
86 27 106 -10z"></path>
<path class="node" id="node2" d="M390 1956 c0 -3 9 -20 20 -38 27 -45 25 -89 -11 -226 -17 -64 -46
-180 -65 -257 -43 -173 -68 -237 -109 -281 -18 -19 -32 -34 -31 -35 7 -4 346
0 346 4 -1 4 -7 22 -15 41 -21 49 -20 62 20 215 47 183 51 196 61 194 5 -1 28
-9 52 -18 24 -8 76 -18 117 -21 60 -5 82 -2 119 14 54 24 99 82 121 157 33
116 12 180 -74 223 -56 27 -57 27 -303 30 -137 2 -248 1 -248 -2z m395 -100
c39 -28 9 -188 -46 -251 -35 -40 -79 -47 -115 -17 l-22 17 28 110 c22 86 33
114 54 132 31 26 73 30 101 9z"></path>
<path class="node" id="node3" d="M1691 1899 c6 -12 9 -31 6 -43 -28 -124 -63 -239 -83 -273 l-25 -43
115 0 116 0 -11 24 c-9 18 -6 44 14 120 34 130 68 165 112 116 15 -17 16 -24
7 -45 -11 -23 -10 -25 14 -25 82 0 143 104 98 168 -12 18 -25 22 -68 22 -30 0
-60 -6 -72 -15 -25 -19 -34 -19 -34 0 0 12 -18 15 -100 15 -99 0 -101 0 -89
-21z"></path>
<path class="node" id="node4" d="M721 1491 c-70 -24 -116 -71 -142 -146 -45 -127 11 -224 133 -233 88
-7 123 4 173 52 55 52 59 71 13 60 -64 -16 -121 -8 -145 21 -32 37 -30 57 5
48 114 -29 212 25 212 118 0 29 -46 75 -88 87 -54 17 -98 14 -161 -7z m119
-76 c30 -36 -21 -108 -73 -103 -46 4 -50 47 -8 88 32 33 62 38 81 15z"></path>
<path class="node" id="node5" d="M2168 1497 c-26 -8 -62 -25 -81 -40 -72 -54 -108 -196 -69 -267 31
-58 74 -80 152 -80 80 0 143 28 178 80 28 42 28 54 0 39 -12 -6 -46 -12 -75
-13 -50 -1 -57 2 -85 33 -36 40 -27 53 27 41 59 -13 129 5 160 42 31 36 35
106 8 130 -48 42 -138 56 -215 35z m110 -106 c6 -57 -48 -96 -102 -75 -40 15
27 117 74 112 20 -2 26 -9 28 -37z"></path>
<path class="node" id="node6" d="M1008 1495 c-3 -3 -3 -25 -1 -48 5 -46 -92 -452 -124 -517 -10 -19
-19 -38 -21 -42 -2 -5 47 -8 108 -8 l112 0 -6 35 c-7 35 18 189 34 216 7 10
16 10 47 -4 56 -23 96 -29 150 -21 89 13 153 112 153 233 -1 84 -34 127 -115
150 -40 11 -327 16 -337 6z m274 -92 c51 -46 -22 -273 -89 -273 -10 0 -30 10
-46 23 l-27 22 29 105 c31 108 52 140 94 140 11 0 29 -7 39 -17z"></path>
<path class="node" id="node7" d="M1514 1485 c17 -45 14 -71 -24 -220 -23 -88 -50 -196 -61 -240 -11
-44 -28 -94 -39 -112 l-19 -33 114 0 c63 0 115 2 115 5 0 2 -5 15 -11 28 -9
19 -6 45 11 122 13 53 29 99 36 102 7 2 24 -3 39 -13 18 -12 48 -17 98 -18 95
-1 135 22 173 101 37 74 40 177 8 220 -45 61 -72 68 -268 71 -165 4 -178 3
-172 -13z m287 -87 c29 -54 -15 -220 -68 -255 -22 -15 -27 -15 -59 0 -20 10
-34 24 -34 34 0 42 50 197 71 219 29 31 74 32 90 2z"></path>
<path class="node" id="node8" d="M2451 1471 c8 -23 4 -54 -21 -153 -18 -67 -43 -140 -56 -160 -13 -21
-24 -40 -24 -43 0 -3 52 -5 115 -5 63 0 115 2 115 4 0 3 -4 16 -10 30 -7 18
-4 47 10 103 28 110 47 143 80 143 39 0 56 -23 41 -57 -16 -34 -10 -38 41 -22
57 19 92 68 85 123 -3 21 -11 44 -17 50 -14 14 -118 12 -133 -3 -16 -16 -37
-14 -37 4 0 12 -18 15 -99 15 l-100 0 10 -29z"></path>
</g>
<g transform="translate(0.000000,300.000000) scale(0.100000,-0.100000)" fill="#A5A6A3" stroke="none">







</g>
</svg>