<!--?xml version="1.0" standalone="no"?-->

<svg version="1.0" xmlns="http://www.w3.org/2000/svg" width="300.000000pt" height="300.000000pt" viewBox="0 0 300.000000 300.000000" preserveAspectRatio="xMidYMid meet">
<g transform="translate(0.000000,300.000000) scale(0.100000,-0.100000)" fill="#0F0F0F" stroke="none">
<path class="node" id="node1" d="M260 1504 l0 -177 104 5 c117 5 155 21 193 78 18 25 23 47 23 92 0
78 -19 121 -69 152 -37 24 -50 26 -146 26 l-105 0 0 -176z m199 70 c28 -36 28
-102 0 -138 -16 -20 -29 -26 -60 -26 l-39 0 0 95 0 95 39 0 c31 0 44 -6 60
-26z"></path>
<path class="node" id="node2" d="M620 1554 c0 -155 10 -181 80 -214 61 -28 123 -24 180 14 50 33 60
68 60 214 l0 113 -52 -3 -53 -3 -3 -125 c-2 -103 -5 -127 -19 -137 -24 -19
-50 -16 -73 7 -18 18 -20 33 -20 140 l0 120 -50 0 -50 0 0 -126z"></path>
<path class="node" id="node3" d="M980 1505 l0 -175 50 0 50 0 0 135 0 135 40 0 c36 0 40 -3 40 -24 0
-14 -11 -37 -25 -52 -32 -35 -31 -46 8 -124 l33 -65 95 -3 c94 -3 96 -2 107
23 11 23 17 25 72 25 55 0 60 -2 66 -25 6 -23 11 -25 66 -25 53 0 59 2 53 18
-4 9 -25 64 -45 122 -20 58 -42 118 -48 133 -7 15 -15 39 -18 52 -6 23 -11 25
-70 25 -74 0 -68 8 -118 -144 -20 -60 -43 -120 -50 -134 -14 -27 -14 -28 -51
43 l-21 40 33 43 c34 45 40 70 23 103 -21 37 -63 49 -180 49 l-110 0 0 -175z
m489 16 c19 -57 15 -71 -18 -71 -41 0 -46 13 -25 70 19 54 25 54 43 1z"></path>
<path class="node" id="node4" d="M1715 1661 c-23 -10 -49 -31 -60 -47 -57 -88 -25 -232 60 -264 15 -6
60 -10 101 -10 l74 0 0 35 0 35 -51 0 c-43 0 -55 5 -80 29 -38 39 -39 87 -3
130 23 28 32 31 80 31 l54 0 0 40 0 40 -67 0 c-44 0 -82 -7 -108 -19z"></path>
<path class="node" id="node5" d="M1930 1510 l0 -170 119 0 119 0 11 31 c6 18 11 34 11 35 0 2 -34 4
-75 4 l-75 0 0 34 c0 34 1 35 48 38 45 3 47 4 47 33 0 29 -2 30 -47 33 -43 3
-48 5 -48 28 0 23 3 24 65 24 l65 0 0 40 0 40 -120 0 -120 0 0 -170z"></path>
<path class="node" id="node6" d="M2220 1510 l0 -171 112 3 112 3 7 32 6 32 -61 3 -61 3 -3 133 -3 132
-54 0 -55 0 0 -170z"></path>
<path class="node" id="node7" d="M2500 1508 l0 -173 110 3 c99 3 110 5 110 22 0 10 3 25 6 34 5 12 -6
16 -58 18 l-63 3 -3 133 -3 132 -49 0 -50 0 0 -172z"></path>



</g>
<g transform="translate(0.000000,300.000000) scale(0.100000,-0.100000)" fill="#A3A3A3" stroke="none">



</g>
</svg>