<!--?xml version="1.0" standalone="no"?--><svg version="1.0" xmlns="http://www.w3.org/2000/svg" width="300.000000pt" height="119.000000pt" viewBox="0 0 300.000000 119.000000" preserveAspectRatio="xMidYMid meet">
<metadata>
  <rdf:rdf xmlns:rdf="http://www.w3.org/1999/02/22-rdf-syntax-ns#" xmlns:rdfs="http://www.w3.org/2000/01/rdf-schema#" xmlns:dc="http://purl.org/dc/elements/1.1/">
    <rdf:description dc:title="ebay brown" dc:publisher="Hiox" dc:date="2015-04-11" dc:format="image/svg+xml" dc:language="en">
      <dc:creator>
        <rdf:bag>
          <rdf:li>svgimages.com</rdf:li>
        </rdf:bag>
      </dc:creator>
    </rdf:description>
  </rdf:rdf>
</metadata>
<g transform="translate(0.000000,119.000000) scale(0.100000,-0.100000)" fill="#A47962" stroke="none">
<path class="node" id="node1" d="M749 943 l0 -248 -28 61 c-55 117 -167 174 -344 174 -251 0 -389
-142 -374 -386 10 -172 72 -250 242 -305 61 -20 239 -18 301 4 90 31 142 71
169 129 13 28 22 55 19 60 -3 4 -37 8 -76 8 l-70 0 -39 -44 c-49 -56 -90 -70
-186 -64 -61 4 -81 10 -116 34 -42 30 -72 79 -84 135 l-5 29 296 0 296 0 0
-140 0 -141 78 3 77 3 3 33 3 32 32 -24 c69 -53 125 -70 232 -70 89 -1 106 2
160 27 69 32 128 85 158 142 l21 40 6 -30 c17 -80 70 -136 154 -165 120 -41
291 -15 376 57 l39 33 3 -37 3 -38 67 -3 68 -3 2 243 3 243 128 -237 c70 -130
127 -242 127 -248 0 -7 -27 -63 -60 -125 -33 -62 -60 -116 -60 -119 0 -3 38
-6 84 -6 l85 0 24 48 c34 67 245 479 340 662 43 85 84 161 90 168 17 22 -8 30
-86 26 l-71 -2 -31 -64 c-98 -200 -220 -426 -227 -422 -4 3 -50 89 -102 192
-52 103 -107 212 -122 242 l-29 55 -87 2 c-49 2 -88 0 -88 -3 0 -3 5 -15 11
-26 6 -11 7 -18 2 -16 -4 2 -35 17 -68 33 -57 29 -66 30 -195 30 -130 0 -137
-1 -201 -31 -67 -32 -97 -63 -124 -128 l-15 -36 79 0 c77 0 80 1 101 30 26 37
46 48 104 59 127 24 235 -34 236 -126 l0 -33 -142 0 c-207 0 -300 -23 -367
-90 l-31 -32 0 34 c0 44 -25 139 -49 186 -88 172 -365 227 -533 107 l-48 -35
0 180 0 180 -80 0 -80 0 -1 -247z m-280 -133 c60 -17 121 -90 121 -145 l0 -25
-215 0 -215 0 6 28 c16 64 54 110 114 136 40 17 139 21 189 6z m777 -14 c85
-40 125 -109 126 -218 0 -84 -24 -139 -84 -195 -52 -47 -103 -60 -191 -50 -95
12 -173 100 -183 207 -13 133 48 238 154 270 53 16 125 11 178 -14z m832 -289
c-8 -93 -74 -160 -177 -179 -115 -22 -205 17 -217 93 -16 100 60 134 305 138
l93 1 -4 -53z"></path>
</g>
<g transform="translate(0.000000,119.000000) scale(0.100000,-0.100000)" fill="#56EB56" stroke="none">







</g>
</svg>