<!--?xml version="1.0" standalone="no"?-->

<svg version="1.0" xmlns="http://www.w3.org/2000/svg" width="300.000000pt" height="300.000000pt" viewBox="0 0 300.000000 300.000000" preserveAspectRatio="xMidYMid meet">
<g transform="translate(0.000000,300.000000) scale(0.100000,-0.100000)" fill="#040404" stroke="none">
<path class="node" id="node1" d="M1361 2454 c-121 -17 -208 -47 -295 -98 -106 -64 -163 -132 -225
-272 -29 -65 -59 -132 -67 -149 -7 -16 -34 -79 -59 -140 -25 -60 -53 -123 -60
-140 -8 -16 -41 -93 -74 -170 -33 -77 -89 -210 -126 -295 -36 -85 -72 -168
-80 -185 -7 -16 -34 -79 -60 -140 -25 -60 -52 -123 -60 -140 -32 -68 -75 -174
-75 -184 0 -17 884 -15 898 2 5 6 21 44 35 82 14 39 37 98 50 132 14 34 22 64
19 67 -3 3 -119 6 -259 6 -179 0 -253 3 -253 11 0 6 29 84 64 173 35 88 81
206 102 261 l39 100 450 5 450 5 21 55 c12 30 27 66 32 80 27 64 52 132 52
140 0 6 -165 10 -440 10 -250 0 -440 4 -440 9 0 5 30 82 66 172 72 179 91 207
185 265 48 29 71 35 150 44 52 5 140 10 195 10 l102 0 12 33 c6 17 20 56 30
85 11 29 28 76 40 105 11 29 20 58 20 65 0 17 -314 14 -439 -4z"></path>
<path class="node" id="node2" d="M1900 2443 c-7 -16 -19 -46 -26 -68 -7 -22 -25 -71 -39 -110 -14 -38
-27 -74 -28 -78 -1 -4 114 -7 255 -7 159 0 259 -3 263 -9 4 -8 -252 -672 -319
-826 -8 -16 -26 -61 -40 -100 -15 -38 -31 -79 -36 -90 -5 -11 -23 -53 -39 -94
-35 -89 -82 -141 -164 -183 -49 -24 -78 -31 -170 -38 -62 -6 -144 -10 -183
-10 -75 0 -86 -5 -99 -50 -4 -14 -13 -38 -21 -55 -25 -57 -64 -167 -64 -183 0
-13 24 -14 198 -8 108 4 229 12 267 18 180 26 360 123 434 233 29 42 45 78
176 385 36 85 72 169 80 185 7 17 34 80 60 140 25 61 52 124 60 140 7 17 35
80 61 140 25 61 52 124 59 140 8 17 34 80 60 140 25 61 52 124 60 140 23 50
115 265 115 270 0 3 -204 5 -453 5 l-454 0 -13 -27z"></path>
</g>
<g transform="translate(0.000000,300.000000) scale(0.100000,-0.100000)" fill="#A0A0A0" stroke="none">

</g>
</svg>