<!--?xml version="1.0" standalone="no"?-->

<svg version="1.0" xmlns="http://www.w3.org/2000/svg" width="300.000000pt" height="151.000000pt" viewBox="0 0 300.000000 151.000000" preserveAspectRatio="xMidYMid meet">
<g transform="translate(0.000000,151.000000) scale(0.100000,-0.100000)" fill="#292627" stroke="none">
<path class="node" id="node1" d="M1204 1441 c-68 -11 -120 -28 -173 -57 l-43 -24 6 24 c3 13 9 31 12
40 6 15 -26 16 -346 14 l-352 -3 -34 -100 c-43 -125 -43 -135 -4 -135 18 0 30
-5 30 -13 0 -12 -56 -183 -75 -229 -5 -13 -18 -18 -44 -18 l-37 0 -35 -112
c-20 -62 -34 -116 -32 -120 2 -5 120 -8 261 -8 l257 0 33 110 c19 60 32 115
30 122 -3 7 -15 12 -29 13 -13 0 -26 5 -29 10 -3 6 34 11 99 13 l103 3 -6 -53
c-12 -107 25 -172 118 -207 l51 -19 7 -56 c16 -128 86 -216 222 -280 91 -44
167 -59 287 -57 176 2 327 46 547 159 81 42 182 94 226 116 70 36 86 40 151
40 63 0 81 -4 149 -38 43 -21 80 -36 82 -33 6 6 -49 110 -83 157 -59 80 -140
135 -235 159 l-71 17 -28 70 c-48 122 -49 115 22 189 63 66 92 85 63 40 -18
-27 -12 -45 15 -45 25 0 44 26 38 50 -4 15 0 20 15 20 20 0 248 214 248 232 0
4 -116 8 -257 8 l-258 0 -30 -48 -30 -47 -5 45 -5 45 -204 3 c-184 2 -203 1
-197 -14 3 -9 9 -28 12 -42 6 -27 6 -27 -10 -5 -29 38 -128 65 -261 68 -66 2
-143 0 -171 -4z m336 -70 c100 -38 111 -91 56 -273 -46 -151 -68 -199 -112
-248 -74 -81 -136 -89 -193 -24 -41 46 -40 72 10 219 22 66 43 141 46 167 5
44 4 48 -21 57 -60 24 -98 -16 -146 -154 -27 -80 -41 -105 -72 -133 -52 -47
-96 -112 -118 -175 -10 -28 -23 -53 -29 -55 -17 -6 -80 29 -102 57 -18 22 -20
35 -15 91 6 73 52 223 97 316 63 134 189 186 429 180 87 -3 129 -9 170 -25z
m960 16 c0 -4 -29 -37 -64 -72 -59 -61 -66 -65 -108 -65 -42 0 -48 -4 -127
-85 l-84 -85 37 -96 c20 -54 35 -98 34 -99 -2 -2 -54 -10 -117 -20 -63 -9
-119 -17 -125 -18 -6 -1 -13 15 -16 36 -3 21 -8 39 -12 40 -7 2 -81 -86 -141
-165 l-28 -38 -150 0 c-82 0 -149 3 -149 7 0 4 80 84 177 178 l176 171 -51
151 c-29 83 -52 153 -52 157 0 3 65 6 145 6 l145 0 0 -59 c0 -71 9 -123 21
-116 4 3 33 43 64 90 48 73 59 84 87 87 69 6 338 3 338 -5z m-1560 -9 c0 -6
-8 -35 -17 -65 l-17 -53 -128 0 -129 0 -15 -35 c-26 -64 -25 -65 87 -65 84 0
100 -2 96 -14 -3 -8 -11 -32 -16 -53 -18 -62 -18 -62 -131 -65 l-105 -3 -22
-63 c-25 -69 -20 -79 32 -70 31 6 31 -1 4 -80 l-21 -62 -209 0 c-115 0 -209 3
-209 8 0 4 8 34 18 67 18 58 19 60 55 63 46 4 46 6 104 186 57 178 58 182 16
178 -18 -2 -33 0 -33 5 0 4 10 36 22 71 l22 62 298 0 c220 0 298 -3 298 -12z
m1345 -559 c78 -14 144 -50 205 -112 57 -57 63 -73 23 -61 -16 5 -66 9 -113 9
-81 0 -90 -2 -205 -54 -100 -45 -131 -55 -190 -58 l-70 -4 55 19 c55 18 130
61 130 74 0 4 -24 4 -54 1 -30 -3 -76 -2 -102 2 l-49 8 43 13 c61 19 152 66
152 80 0 8 -16 8 -57 2 -31 -5 -69 -7 -83 -6 -21 3 -13 10 49 41 105 55 165
65 266 46z"></path>
<path stroke-width="20" class="node" id="node2" d="M981 193 c-11 -38 -24 -83 -27 -100 -6 -30 -4 -33 17 -33 30 0 42 9
56 40 l11 25 12 -27 c7 -16 20 -28 29 -29 81 -6 113 -4 123 8 15 19 74 17 82
-3 4 -10 15 -14 33 -12 28 3 28 4 25 69 -5 105 -12 123 -53 127 -35 3 -37 1
-84 -77 -5 -9 -23 -34 -39 -55 -27 -35 -31 -36 -43 -21 -10 15 -9 21 12 37 18
14 25 29 25 53 0 46 -29 65 -101 65 l-57 0 -21 -67z m107 -5 c-7 -19 -38 -22
-38 -4 0 10 9 16 21 16 12 0 19 -5 17 -12z m182 -38 c0 -5 -5 -10 -11 -10 -5
0 -7 5 -4 10 3 6 8 10 11 10 2 0 4 -4 4 -10z"></path>
<path class="node" id="node3" d="M1394 226 c-75 -75 -22 -181 80 -162 19 4 41 15 50 25 15 17 15 19
-4 36 -18 16 -24 17 -42 6 -17 -11 -23 -10 -36 3 -23 22 -1 66 32 66 13 0 26
-5 28 -11 5 -15 58 10 58 27 0 23 -43 44 -88 44 -37 0 -50 -6 -78 -34z"></path>
<path class="node" id="node4" d="M1570 189 c-12 -39 -22 -83 -23 -98 -2 -23 2 -26 28 -26 28 0 30 3
51 75 32 106 31 120 -6 120 -28 0 -30 -4 -50 -71z"></path>
<path class="node" id="node5" d="M1672 243 c-5 -10 -17 -51 -27 -92 -18 -76 -14 -92 23 -87 18 3 28
19 37 61 l7 30 20 -40 c25 -50 21 -45 51 -51 31 -5 35 0 58 90 26 98 25 106
-10 106 -29 0 -41 -14 -41 -51 0 -31 -20 -22 -36 16 -12 29 -20 35 -44 35 -18
0 -33 -7 -38 -17z"></path>
<path stroke-width="20" class="node" id="node6" d="M1913 250 c-28 -12 -53 -49 -59 -92 -12 -68 79 -121 145 -86 31 17
60 96 40 109 -11 6 -9 12 6 29 14 15 16 23 7 32 -15 15 -111 21 -139 8z m97
-60 c0 -5 -13 -10 -30 -10 -23 0 -30 -5 -30 -19 0 -11 6 -21 13 -24 6 -2 8 -8
4 -13 -10 -11 -41 9 -45 28 -2 9 4 23 13 32 18 17 75 22 75 6z"></path>
<path class="node" id="node7" d="M2163 245 c-37 -26 -31 -71 12 -97 43 -25 39 -36 -6 -18 -28 12 -33
12 -45 -5 -20 -28 -18 -35 21 -51 48 -20 88 -18 119 7 l26 20 0 -20 c0 -16 6
-21 26 -21 19 0 28 8 40 35 8 19 21 35 29 35 8 0 18 0 23 0 4 0 7 -14 7 -32 0
-24 5 -32 21 -34 12 -2 26 2 32 9 9 11 52 157 52 177 0 6 -15 10 -33 10 -28 0
-34 -4 -42 -32 -7 -24 -17 -34 -34 -36 -22 -4 -23 -1 -17 32 7 36 6 36 -27 36
-33 0 -34 -2 -50 -60 -10 -33 -17 -68 -18 -77 0 -10 -5 -4 -10 13 -6 22 -20
37 -46 50 -21 9 -33 19 -26 21 7 3 22 -1 34 -8 20 -10 25 -9 41 11 25 31 12
42 -54 47 -38 3 -59 0 -75 -12z"></path>
<path class="node" id="node8" d="M2544 226 c-27 -27 -34 -42 -34 -74 0 -33 6 -45 31 -66 37 -32 80
-33 125 -5 64 39 69 140 8 168 -48 22 -93 14 -130 -23z m104 -52 c4 -25 -29
-57 -52 -48 -19 7 -21 45 -4 62 19 19 53 10 56 -14z"></path>
<path class="node" id="node9" d="M2740 255 c0 -2 7 -23 16 -46 l17 -40 -42 -43 c-22 -23 -41 -47 -41
-54 0 -21 72 -7 92 18 20 25 20 25 37 -7 12 -24 54 -32 67 -12 3 6 -2 28 -11
50 l-18 39 37 44 c20 24 36 47 36 50 0 14 -65 5 -83 -11 -18 -17 -19 -17 -32
0 -11 15 -75 26 -75 12z"></path>
</g>
<g transform="translate(0.000000,151.000000) scale(0.100000,-0.100000)" fill="#E5A033" stroke="none">

<path class="node" id="node11" d="M1206 1390 c-143 -26 -219 -75 -265 -174 -45 -93 -91 -243 -97 -316
-5 -56 -3 -69 15 -91 22 -28 85 -63 102 -57 6 2 19 27 29 55 22 63 66 128 118
175 31 28 45 53 72 133 48 138 86 178 146 154 25 -9 26 -13 21 -57 -3 -26 -24
-101 -46 -167 -50 -147 -51 -173 -10 -219 57 -65 119 -57 193 24 44 49 66 97
112 248 55 182 44 235 -56 273 -62 24 -248 35 -334 19z"></path>
<path class="node" id="node12" d="M2162 1392 c-28 -3 -39 -14 -87 -87 -31 -47 -60 -87 -64 -90 -12 -7
-21 45 -21 116 l0 59 -145 0 c-80 0 -145 -3 -145 -6 0 -4 23 -74 52 -157 l51
-151 -176 -171 c-97 -94 -177 -174 -177 -178 0 -4 67 -7 149 -7 l150 0 28 38
c60 79 134 167 141 165 4 -1 9 -19 12 -40 3 -21 10 -37 16 -36 6 1 62 9 125
18 63 10 115 18 117 20 1 1 -14 45 -34 99 l-37 96 84 85 c79 81 85 85 127 85
42 0 49 4 108 65 35 35 64 68 64 72 0 8 -269 11 -338 5z"></path>
<path class="node" id="node13" d="M322 1328 c-12 -35 -22 -67 -22 -71 0 -5 15 -7 33 -5 42 4 41 0 -16
-178 -58 -180 -58 -182 -104 -186 -36 -3 -37 -5 -55 -63 -10 -33 -18 -63 -18
-67 0 -5 94 -8 209 -8 l209 0 21 62 c27 79 27 86 -4 80 -52 -9 -57 1 -32 70
l22 63 105 3 c113 3 113 3 131 65 5 21 13 45 16 53 4 12 -12 14 -96 14 -112 0
-113 1 -87 65 l15 35 129 0 128 0 17 53 c9 30 17 59 17 65 0 9 -78 12 -298 12
l-298 0 -22 -62z"></path>
<path class="node" id="node14" d="M2134 820 c-23 -5 -75 -26 -115 -47 -62 -31 -70 -38 -49 -41 14 -1
52 1 83 6 41 6 57 6 57 -2 0 -14 -91 -61 -152 -80 l-43 -13 49 -8 c26 -4 72
-5 102 -2 30 3 54 3 54 -1 0 -13 -75 -56 -130 -74 l-55 -19 70 4 c59 3 90 13
190 58 115 52 124 54 205 54 47 0 97 -4 113 -9 40 -12 34 4 -23 61 -98 99
-224 139 -356 113z"></path>




</g>
</svg>