<!--?xml version="1.0" standalone="no"?-->

<svg version="1.0" xmlns="http://www.w3.org/2000/svg" width="300.000000pt" height="293.000000pt" viewBox="0 0 300.000000 293.000000" preserveAspectRatio="xMidYMid meet">
<g transform="translate(0.000000,293.000000) scale(0.100000,-0.100000)" fill="#070707" stroke="none">
<path class="node" id="node1" d="M1295 2735 c-391 -62 -727 -317 -916 -694 -173 -347 -173 -797 1
-1143 176 -348 450 -569 840 -675 52 -14 105 -18 270 -18 192 0 211 2 300 27
184 52 305 110 441 212 264 199 444 500 495 827 65 416 -70 834 -362 1121
-191 188 -412 302 -665 343 -111 18 -292 18 -404 0z m500 -89 c116 -32 292
-115 385 -182 144 -103 292 -279 376 -446 130 -259 160 -595 78 -883 -31 -109
-115 -286 -177 -375 -99 -139 -276 -293 -428 -372 -323 -168 -723 -171 -1051
-7 -338 168 -596 524 -647 894 -14 99 -14 296 0 388 50 334 256 649 549 839
106 69 219 116 350 147 127 30 123 30 300 27 143 -3 178 -7 265 -30z"></path>
<path class="node" id="node2" d="M1370 2600 c-194 -25 -401 -112 -531 -223 -131 -112 -234 -270 -284
-436 -59 -197 -56 -358 8 -442 56 -73 67 -93 67 -122 0 -36 -49 -87 -84 -87
-34 0 -90 51 -117 108 -20 40 -23 62 -23 167 0 86 -2 107 -7 75 -11 -68 -10
-282 2 -363 23 -152 91 -327 173 -441 92 -129 253 -256 396 -313 90 -36 224
-63 313 -63 94 0 147 19 208 75 68 61 129 58 164 -7 19 -36 19 -36 0 -72 -43
-80 -124 -110 -277 -104 -74 3 -104 1 -92 -5 34 -19 291 -21 389 -2 277 51
500 185 635 380 87 126 140 263 166 425 21 130 8 218 -39 281 -18 23 -40 53
-49 68 -41 61 -4 145 65 145 41 0 58 -12 100 -73 30 -43 32 -53 37 -161 l5
-115 8 90 c22 249 -59 550 -197 732 -83 109 -207 207 -334 265 -37 16 -76 34
-87 39 -44 20 -200 49 -261 49 -88 0 -152 -23 -214 -76 -66 -57 -114 -61 -154
-13 -30 36 -33 65 -9 99 64 91 189 119 383 85 121 -21 130 -17 21 11 -107 26
-279 37 -381 24z m625 -481 c26 -26 30 -36 30 -87 -1 -87 -31 -141 -145 -252
-92 -91 -96 -97 -83 -117 13 -20 21 -21 83 -16 85 7 115 0 137 -33 17 -26 16
-27 -15 -55 -30 -27 -38 -29 -120 -29 -83 0 -89 -2 -133 -34 -74 -55 -129
-170 -129 -271 0 -198 111 -313 280 -290 101 14 160 87 160 199 0 146 -99 217
-187 134 -34 -32 -29 -71 13 -118 39 -42 40 -74 3 -85 -52 -17 -104 18 -133
89 -20 49 -20 83 0 132 32 79 93 116 189 117 97 0 168 -43 211 -130 30 -60 27
-212 -5 -275 -29 -57 -91 -119 -148 -148 -85 -44 -235 -45 -315 -4 -196 101
-260 383 -133 584 23 35 97 108 149 145 27 19 27 21 10 37 -18 15 -27 11 -169
-84 l-150 -99 -7 -92 c-9 -111 -39 -238 -75 -313 -75 -158 -232 -249 -365
-209 -63 19 -99 48 -127 103 -43 85 -11 204 83 309 56 62 186 155 299 213 77
39 87 48 87 71 l0 27 -42 -21 c-53 -25 -124 -27 -160 -3 -15 10 -38 39 -50 65
-18 37 -33 51 -69 67 -25 12 -59 38 -75 59 -25 33 -29 47 -29 99 0 70 37 159
69 164 17 4 18 -1 11 -66 -4 -39 -4 -83 -1 -99 7 -28 62 -76 78 -67 4 3 8 24
8 48 0 79 47 195 106 264 82 96 195 133 244 80 19 -20 21 -33 18 -108 -3 -94
-28 -155 -95 -238 -38 -46 -127 -116 -168 -132 -29 -11 -24 -37 11 -50 59 -23
167 50 178 120 9 55 80 130 124 130 59 0 55 -79 -9 -160 -28 -35 -41 -63 -46
-97 -8 -58 -11 -59 145 45 l118 80 0 84 c1 126 31 207 103 279 84 83 174 98
236 38z"></path>
<path class="node" id="node3" d="M1250 2028 c-62 -42 -94 -104 -137 -260 -6 -25 14 -22 52 7 55 41
159 210 153 249 -4 29 -28 31 -68 4z"></path>
<path class="node" id="node4" d="M1841 2024 c-40 -33 -68 -99 -77 -176 -7 -59 -6 -61 12 -47 61 44
144 163 144 207 0 21 -18 42 -36 42 -7 0 -26 -12 -43 -26z"></path>
<path class="node" id="node5" d="M1198 1325 c-215 -125 -330 -331 -224 -400 22 -14 30 -15 61 -4 77
28 173 162 210 295 16 57 35 147 31 151 -1 1 -36 -18 -78 -42z"></path>
<path class="node" id="node6" d="M412 1715 c0 -16 2 -22 5 -12 2 9 2 23 0 30 -3 6 -5 -1 -5 -18z"></path>
<path class="node" id="node7" d="M1178 373 c7 -3 16 -2 19 1 4 3 -2 6 -13 5 -11 0 -14 -3 -6 -6z"></path>
<path class="node" id="node8" d="M1223 363 c9 -2 23 -2 30 0 6 3 -1 5 -18 5 -16 0 -22 -2 -12 -5z"></path>
</g>
<g transform="translate(0.000000,293.000000) scale(0.100000,-0.100000)" fill="#A0A0A0" stroke="none">

<path class="node" id="node10" d="M1340 2674 c-133 -25 -269 -68 -365 -117 -172 -86 -353 -252 -469
-430 -81 -124 -153 -315 -175 -464 -14 -92 -14 -289 0 -388 51 -370 309 -726
647 -894 328 -164 728 -161 1051 7 152 79 329 233 428 372 101 143 191 372
213 540 50 390 -74 766 -344 1036 -104 105 -185 162 -321 229 -170 83 -274
107 -475 111 -91 1 -176 0 -190 -2z m411 -98 c109 -28 100 -32 -21 -11 -194
34 -319 6 -383 -85 -24 -34 -21 -63 9 -99 40 -48 88 -44 154 13 62 53 126 76
214 76 61 0 217 -29 261 -49 11 -5 50 -23 87 -39 127 -58 251 -156 334 -265
138 -182 219 -483 197 -732 l-8 -90 -5 115 c-5 108 -7 118 -37 161 -42 61 -59
73 -100 73 -69 0 -106 -84 -65 -145 9 -15 31 -45 49 -68 99 -131 39 -466 -127
-706 -135 -195 -358 -329 -635 -380 -98 -19 -355 -17 -389 2 -12 6 18 8 92 5
153 -6 234 24 277 104 19 36 19 36 0 72 -35 65 -96 68 -164 7 -61 -56 -114
-75 -208 -75 -89 0 -223 27 -313 63 -143 57 -304 184 -396 313 -82 114 -150
289 -173 441 -12 81 -13 295 -2 363 5 32 7 11 7 -75 0 -105 3 -127 23 -167 27
-57 83 -108 117 -108 35 0 84 51 84 87 0 29 -11 49 -67 122 -107 141 -38 497
144 738 146 194 391 328 663 363 102 13 274 2 381 -24z m-1334 -873 c-3 -10
-5 -4 -5 12 0 17 2 24 5 18 2 -7 2 -21 0 -30z m780 -1329 c-3 -3 -12 -4 -19
-1 -8 3 -5 6 6 6 11 1 17 -2 13 -5z m56 -11 c-7 -2 -21 -2 -30 0 -10 3 -4 5
12 5 17 0 24 -2 18 -5z"></path>
<path class="node" id="node11" d="M1855 2147 c-27 -7 -57 -28 -96 -66 -72 -72 -102 -153 -103 -279 l0
-84 -118 -80 c-156 -104 -153 -103 -145 -45 5 34 18 62 46 97 64 81 68 160 9
160 -44 0 -115 -75 -124 -130 -11 -70 -119 -143 -178 -120 -35 13 -40 39 -11
50 41 16 130 86 168 132 67 83 92 144 95 238 3 75 1 88 -18 108 -49 53 -162
16 -244 -80 -59 -69 -106 -185 -106 -264 0 -24 -4 -45 -8 -48 -16 -9 -71 39
-78 67 -3 16 -3 60 1 99 7 65 6 70 -11 66 -32 -5 -69 -94 -69 -164 0 -52 4
-66 29 -99 16 -21 50 -47 75 -59 36 -16 51 -30 69 -67 12 -26 35 -55 50 -65
36 -24 107 -22 160 3 l42 21 0 -27 c0 -23 -10 -32 -87 -71 -113 -58 -243 -151
-299 -213 -94 -105 -126 -224 -83 -309 28 -55 64 -84 127 -103 99 -30 209 9
294 104 81 90 131 235 146 418 l7 92 150 99 c142 95 151 99 169 84 17 -16 17
-18 -10 -37 -52 -37 -126 -110 -149 -145 -127 -201 -63 -483 133 -584 80 -41
230 -40 315 4 57 29 119 91 148 148 32 63 35 215 5 275 -43 87 -114 130 -211
130 -96 -1 -157 -38 -189 -117 -20 -49 -20 -83 0 -132 29 -71 81 -106 133 -89
37 11 36 43 -3 85 -42 47 -47 86 -13 118 88 83 187 12 187 -134 0 -112 -59
-185 -160 -199 -98 -14 -188 23 -232 96 -27 43 -48 129 -48 194 0 101 55 216
129 271 44 32 50 34 133 34 82 0 90 2 120 29 31 28 32 29 15 55 -22 33 -52 40
-137 33 -62 -5 -70 -4 -83 16 -13 20 -9 26 83 117 114 111 144 165 145 252 0
51 -4 61 -30 87 -34 33 -82 42 -140 28z m-537 -123 c6 -39 -98 -208 -153 -249
-38 -29 -58 -32 -52 -7 43 156 75 218 137 260 40 27 64 25 68 -4z m590 14 c17
-17 15 -43 -9 -91 -22 -42 -87 -120 -123 -146 -18 -14 -19 -12 -12 47 9 77 37
143 77 176 34 29 49 32 67 14z m-638 -718 c-26 -143 -77 -257 -150 -334 -61
-64 -110 -85 -146 -61 -78 51 -44 169 83 293 51 49 211 158 219 149 1 -1 -2
-22 -6 -47z"></path>
</g>
</svg>