<!--?xml version="1.0" standalone="no"?-->

<svg version="1.0" xmlns="http://www.w3.org/2000/svg" width="300.000000pt" height="300.000000pt" viewBox="0 0 300.000000 300.000000" preserveAspectRatio="xMidYMid meet">
<g transform="translate(0.000000,300.000000) scale(0.100000,-0.100000)" fill="#131313" stroke="none">
<path class="node" id="node1" d="M1625 2695 c-5 -2 -28 -9 -51 -14 -52 -14 -122 -74 -145 -125 -23
-50 -25 -162 -5 -210 23 -54 81 -103 153 -127 75 -24 119 -22 204 10 82 31 91
40 87 85 l-3 39 -34 -48 c-99 -138 -290 -98 -332 69 -14 55 -6 153 15 195 20
37 80 89 111 96 14 3 36 7 48 10 54 11 119 -26 158 -90 l19 -30 0 47 c0 42 -3
49 -28 62 -45 23 -166 42 -197 31z"></path>
<path class="node" id="node2" d="M2132 2684 c-120 -32 -182 -113 -182 -237 0 -117 53 -187 173 -228
29 -10 64 -18 78 -19 34 0 180 47 197 64 8 8 12 29 10 51 l-3 38 -31 -44 c-89
-125 -256 -112 -320 24 -32 69 -33 162 -3 224 69 142 256 158 323 28 l16 -30
0 47 c0 42 -3 49 -28 62 -27 14 -130 37 -161 35 -9 0 -40 -7 -69 -15z"></path>
<path class="node" id="node3" d="M487 2676 c-109 -41 -167 -120 -167 -228 0 -69 16 -111 59 -160 46
-52 121 -82 206 -82 70 0 168 25 181 46 4 6 9 38 11 72 3 46 10 65 25 79 20
16 17 17 -61 17 l-81 0 20 -20 c16 -16 20 -33 20 -80 0 -66 -13 -82 -79 -94
-110 -20 -208 74 -219 210 -4 53 -1 70 22 117 40 81 89 112 176 112 57 0 72
-4 103 -28 20 -15 40 -39 43 -52 9 -38 24 -30 24 13 0 46 -8 58 -45 72 -49 19
-194 23 -238 6z"></path>
<path class="node" id="node4" d="M903 2662 c14 -16 17 -43 17 -168 0 -124 4 -156 19 -190 41 -90 162
-129 263 -85 97 42 118 93 118 282 0 119 3 146 17 161 15 17 14 18 -32 18 -41
0 -46 -2 -32 -12 14 -11 17 -38 19 -173 3 -152 2 -162 -20 -197 -60 -97 -196
-104 -252 -13 -18 29 -20 49 -20 203 0 152 2 172 18 181 13 8 -2 10 -57 11
-71 0 -73 -1 -58 -18z"></path>
<path class="node" id="node5" d="M2508 2668 c9 -9 12 -71 12 -219 0 -203 0 -208 -22 -223 -21 -15 -17
-16 62 -16 l84 0 -22 20 c-21 20 -22 28 -22 217 0 169 2 199 17 215 15 17 13
18 -52 18 -54 0 -66 -3 -57 -12z"></path>
<path class="node" id="node6" d="M1095 1691 c-68 -12 -168 -47 -237 -83 -235 -125 -386 -424 -349
-690 22 -161 81 -287 185 -397 203 -214 494 -276 777 -166 46 18 47 18 100 -5
192 -83 444 -59 630 61 206 134 319 343 319 591 -1 163 -54 315 -155 438 -91
111 -190 178 -335 226 -76 24 -99 27 -210 27 -123 -1 -166 -9 -275 -53 -26
-11 -41 -9 -118 19 -97 34 -236 47 -332 32z m201 -132 c32 -6 62 -13 66 -15 4
-3 -22 -39 -58 -81 -43 -49 -81 -106 -105 -158 -53 -113 -53 -115 24 -115 l64
0 33 68 c35 70 164 212 193 212 29 0 151 -133 190 -207 l38 -73 65 0 c35 0 64
4 64 10 0 5 -12 40 -27 77 -28 70 -104 179 -157 225 -40 35 -30 44 63 58 286
45 583 -168 631 -452 15 -89 8 -213 -18 -289 -61 -183 -230 -334 -420 -374
-81 -18 -135 -19 -219 -4 -63 11 -81 28 -48 46 8 5 37 35 64 67 76 90 138 229
154 349 l6 37 -165 0 -164 0 0 -65 0 -65 74 0 c41 0 77 -4 81 -10 3 -5 -8 -36
-24 -69 -33 -65 -159 -201 -187 -201 -28 0 -158 140 -188 202 -15 31 -25 62
-21 67 3 6 37 11 76 11 l69 0 0 65 0 65 -160 0 c-160 0 -160 0 -160 -23 0 -32
37 -161 62 -216 25 -56 95 -155 137 -195 17 -17 31 -35 31 -42 0 -18 -133 -38
-208 -30 -319 33 -555 325 -513 635 42 318 350 547 657 490z"></path>
</g>
<g transform="translate(0.000000,300.000000) scale(0.100000,-0.100000)" fill="#A0A0A0" stroke="none">

<path class="node" id="node8" d="M1089 1555 c-231 -46 -418 -249 -450 -486 -42 -310 194 -602 513
-635 75 -8 208 12 208 30 0 7 -14 25 -31 42 -42 40 -112 139 -137 195 -25 55
-62 184 -62 216 0 23 0 23 160 23 l160 0 0 -65 0 -65 -69 0 c-39 0 -73 -5 -76
-11 -4 -5 6 -36 21 -67 30 -62 160 -202 188 -202 28 0 154 136 187 201 16 33
27 64 24 69 -4 6 -40 10 -81 10 l-74 0 0 65 0 65 164 0 165 0 -6 -37 c-16
-120 -78 -259 -154 -349 -27 -32 -56 -62 -64 -67 -33 -18 -15 -35 48 -46 131
-23 243 -5 366 59 174 90 284 258 298 455 13 178 -39 320 -163 442 -131 130
-305 190 -475 163 -93 -14 -103 -23 -63 -58 53 -46 129 -155 157 -225 15 -37
27 -72 27 -77 0 -6 -29 -10 -64 -10 l-65 0 -38 73 c-39 74 -161 207 -190 207
-29 0 -158 -142 -193 -212 l-33 -68 -64 0 c-77 0 -77 2 -24 115 24 52 62 109
105 158 36 42 62 78 58 81 -15 9 -127 26 -166 25 -23 0 -71 -7 -107 -14z"></path>
</g>
</svg>