<!--?xml version="1.0" standalone="no"?-->

<svg version="1.0" xmlns="http://www.w3.org/2000/svg" width="300.000000pt" height="210.000000pt" viewBox="0 0 300.000000 210.000000" preserveAspectRatio="xMidYMid meet">
<g transform="translate(0.000000,210.000000) scale(0.100000,-0.100000)" fill="#080808" stroke="none">
<path class="node" id="node1" d="M154 1909 c42 -79 96 -181 118 -226 l42 -82 91 -21 c126 -30 440
-102 695 -160 118 -27 305 -70 415 -95 110 -26 306 -71 435 -100 129 -30 300
-69 380 -88 148 -34 207 -56 217 -83 11 -29 -12 -36 -48 -15 -19 11 -83 31
-144 45 -60 14 -200 46 -310 71 -110 26 -306 71 -435 100 -129 30 -325 75
-435 100 -110 25 -299 69 -420 96 -121 28 -258 60 -304 70 -46 11 -88 18 -92
17 -7 -3 182 -371 200 -390 3 -4 117 -21 251 -37 264 -32 380 -47 940 -116
201 -24 446 -54 544 -65 98 -12 200 -28 225 -37 75 -25 131 -62 148 -98 20
-42 35 -34 53 30 24 86 -13 179 -109 275 -85 85 -144 115 -403 204 -117 41
-238 83 -268 94 -30 12 -158 57 -285 101 -126 44 -385 135 -575 201 -190 67
-484 170 -655 230 -171 59 -318 112 -329 116 -13 5 3 -33 58 -137z"></path>
<path class="node" id="node2" d="M590 1083 c1 -4 36 -73 80 -153 l78 -145 179 1 c98 0 318 5 488 12
911 34 987 36 1046 19 36 -11 69 -29 92 -52 38 -37 57 -38 57 -5 0 22 -49 62
-102 85 -34 14 -289 48 -813 110 -115 14 -316 38 -445 55 -129 16 -314 38
-410 50 -96 11 -192 23 -212 26 -21 3 -38 2 -38 -3z"></path>
<path class="node" id="node3" d="M460 345 l0 -285 100 0 99 0 3 98 3 97 63 3 62 3 0 -101 0 -100 105
0 105 0 0 285 0 285 -105 0 -105 0 0 -95 0 -95 -65 0 -65 0 0 95 0 95 -100 0
-100 0 0 -285z"></path>
<path class="node" id="node4" d="M1117 368 c-37 -145 -70 -273 -73 -285 -6 -23 -5 -23 100 -23 l107 0
6 30 c7 36 25 42 108 38 57 -3 59 -4 67 -35 l9 -33 105 0 c96 0 105 2 100 18
-3 9 -23 80 -45 157 -22 77 -51 181 -65 230 -15 50 -31 107 -37 128 l-10 37
-152 0 -153 0 -67 -262z m248 25 c8 -37 17 -78 20 -90 5 -21 2 -23 -41 -23
-33 0 -45 4 -42 13 3 6 11 44 18 82 21 120 24 121 45 18z"></path>
<path class="node" id="node5" d="M1580 623 c0 -5 11 -48 24 -98 13 -49 43 -162 66 -250 60 -236 47
-216 144 -213 l81 3 26 133 c14 73 28 134 31 137 2 2 12 -37 22 -88 10 -50 22
-113 28 -139 l10 -48 82 0 83 0 47 177 c44 165 90 334 102 376 5 15 -4 17 -89
17 l-95 0 -5 -32 c-3 -18 -13 -87 -22 -153 -20 -143 -25 -169 -30 -163 -3 2
-14 58 -25 124 -11 65 -25 143 -31 172 l-10 52 -68 0 -67 0 -28 -167 c-16 -93
-31 -172 -34 -178 -3 -5 -16 65 -29 155 -12 91 -25 171 -28 178 -5 13 -185 18
-185 5z"></path>
<path class="node" id="node6" d="M2370 345 l0 -285 96 0 95 0 -3 110 c-2 61 0 110 4 110 4 0 29 -42
57 -93 76 -139 59 -128 188 -125 l112 3 -79 122 c-43 68 -84 132 -90 143 -10
18 -3 35 43 113 30 51 67 113 82 140 l27 47 -111 0 -112 0 -57 -117 -57 -117
-5 114 -5 115 -92 3 -93 3 0 -286z"></path>
</g>
<g transform="translate(0.000000,210.000000) scale(0.100000,-0.100000)" fill="#A2A2A2" stroke="none">


</g>
</svg>