<!--?xml version="1.0" standalone="no"?-->

<svg version="1.0" xmlns="http://www.w3.org/2000/svg" width="300.000000pt" height="150.000000pt" viewBox="0 0 300.000000 150.000000" preserveAspectRatio="xMidYMid meet">
<g transform="translate(0.000000,150.000000) scale(0.100000,-0.100000)" fill="#0C0C0C" stroke="none">
<path class="node" id="node1" d="M90 998 c-68 -47 -70 -60 -70 -380 l0 -288 40 0 c36 0 40 2 40 25 l0
26 148 -3 c146 -3 147 -3 144 -25 -3 -21 1 -23 42 -23 l46 0 0 278 c0 268 -1
279 -22 322 -22 43 -76 90 -104 90 -10 0 -6 -14 12 -47 40 -76 32 -107 -41
-159 -33 -24 -67 -43 -76 -43 -16 -1 -129 73 -141 92 -11 18 6 84 40 150 8 15
-26 6 -58 -15z m300 -293 l0 -55 -65 0 c-36 0 -65 3 -65 8 1 5 117 99 128 101
1 1 2 -24 2 -54z m-214 3 c30 -24 54 -46 54 -51 0 -4 -28 -7 -62 -5 l-63 3 -3
48 c-2 30 1 47 8 47 6 0 36 -19 66 -42z m-46 -167 c0 -5 -7 -14 -15 -21 -13
-10 -15 -9 -15 9 0 12 6 21 15 21 8 0 15 -4 15 -9z m48 -8 c-4 -22 -22 -20
-26 1 -2 10 3 16 13 16 10 0 15 -7 13 -17z m59 3 c-3 -8 1 -17 9 -20 19 -7 18
-36 -1 -36 -8 0 -15 5 -15 11 0 6 -7 17 -15 25 -21 21 -19 34 6 34 14 0 19 -5
16 -14z m51 -3 c-5 -25 -28 -28 -28 -4 0 12 6 21 16 21 9 0 14 -7 12 -17z m55
-3 c-4 -17 -23 -29 -23 -16 0 2 -3 11 -6 20 -4 11 0 16 14 16 15 0 19 -5 15
-20z m47 0 c0 -11 -2 -20 -5 -20 -2 0 -9 9 -15 20 -9 16 -8 20 5 20 8 0 15 -9
15 -20z m-239 -43 c-5 -5 -17 -7 -26 -3 -13 5 -14 10 -4 28 11 21 12 21 25 3
9 -12 11 -22 5 -28z m229 1 c0 -4 -9 -8 -20 -8 -21 0 -24 8 -13 36 6 16 7 16
20 -2 7 -10 13 -21 13 -26z m-176 16 c9 -22 8 -24 -9 -24 -8 0 -15 9 -15 20 0
24 15 27 24 4z m112 5 c8 -14 -11 -33 -25 -25 -11 7 -4 36 9 36 5 0 12 -5 16
-11z"></path>
<path class="node" id="node2" d="M2762 889 c-59 -11 -101 -44 -126 -98 -18 -41 -21 -64 -21 -201 1
-140 3 -159 23 -197 12 -23 31 -47 41 -53 32 -16 186 -13 201 5 16 19 30 19
30 0 0 -11 11 -15 40 -15 l40 0 0 150 0 151 -87 -3 -86 -3 -3 -30 c-3 -49 5
-65 33 -65 24 0 25 -2 19 -42 -8 -51 -21 -68 -52 -68 -36 0 -46 52 -42 213 3
124 5 140 22 153 11 8 23 14 27 14 17 0 39 -34 39 -61 l0 -29 65 0 65 0 0 56
c0 48 -4 60 -28 84 -18 17 -47 32 -80 39 -59 12 -60 12 -120 0z"></path>
<path class="node" id="node3" d="M1486 882 c-14 -3 -16 -33 -16 -278 l0 -274 75 0 75 0 0 65 c0 59 14
115 30 115 3 0 24 -40 47 -90 l42 -90 165 0 165 0 3 271 c2 149 1 272 -2 274
-3 2 -37 5 -75 6 l-70 3 -5 -275 c-4 -242 -7 -271 -19 -249 -8 14 -45 82 -83
153 l-68 127 50 81 c27 44 50 83 50 86 0 3 9 16 20 30 34 44 27 48 -61 43
l-81 -5 -43 -83 c-62 -122 -65 -122 -65 -10 l0 96 -59 4 c-32 1 -66 2 -75 0z"></path>
<path class="node" id="node4" d="M640 605 l0 -275 80 0 80 0 -2 273 -3 272 -77 3 -78 3 0 -276z"></path>
<path class="node" id="node5" d="M850 605 l0 -275 75 0 75 0 0 182 c0 100 2 179 4 177 2 -2 19 -84 37
-181 l33 -178 58 0 57 0 7 38 c26 142 64 325 68 330 3 3 6 -79 6 -181 l0 -187
70 0 70 0 0 275 0 275 -110 0 -109 0 -7 -37 c-3 -21 -12 -69 -19 -108 -8 -38
-17 -89 -20 -113 -4 -24 -10 -40 -13 -37 -4 4 -18 70 -32 148 l-26 142 -112 3
-112 3 0 -276z"></path>
<path class="node" id="node6" d="M2140 605 l0 -275 70 0 70 0 0 157 c0 86 4 153 8 148 7 -8 44 -127
84 -272 l9 -33 84 0 85 0 0 275 0 276 -72 -3 -73 -3 2 -148 c1 -81 -2 -145 -6
-143 -4 3 -18 43 -31 88 -12 46 -30 110 -40 143 l-18 60 -86 3 -86 3 0 -276z"></path>
</g>
<g transform="translate(0.000000,150.000000) scale(0.100000,-0.100000)" fill="#A7A7A7" stroke="none">

<path class="node" id="node8" d="M323 712 c-34 -26 -62 -50 -63 -54 0 -5 29 -8 65 -8 l65 0 0 55 c0
30 -1 55 -2 54 -2 0 -31 -21 -65 -47z"></path>
<path class="node" id="node9" d="M102 703 l3 -48 63 -3 c34 -2 62 1 62 5 0 11 -106 93 -120 93 -7 0
-10 -17 -8 -47z"></path>
<path class="node" id="node10" d="M100 529 c0 -18 2 -19 15 -9 8 7 15 16 15 21 0 5 -7 9 -15 9 -9 0
-15 -9 -15 -21z"></path>
<path class="node" id="node11" d="M152 534 c4 -21 22 -23 26 -1 2 10 -3 17 -13 17 -10 0 -15 -6 -13
-16z"></path>
<path class="node" id="node12" d="M200 541 c0 -5 7 -16 15 -25 8 -8 15 -19 15 -25 0 -6 7 -11 15 -11
19 0 20 29 1 36 -8 3 -12 12 -9 20 3 9 -2 14 -16 14 -12 0 -21 -4 -21 -9z"></path>
<path class="node" id="node13" d="M260 529 c0 -24 23 -21 28 4 2 10 -3 17 -12 17 -10 0 -16 -9 -16 -21z"></path>
<path class="node" id="node14" d="M314 534 c3 -9 6 -18 6 -20 0 -13 19 -1 23 16 4 15 0 20 -15 20 -14
0 -18 -5 -14 -16z"></path>
<path class="node" id="node15" d="M370 530 c6 -11 13 -20 15 -20 3 0 5 9 5 20 0 11 -7 20 -15 20 -13 0
-14 -4 -5 -20z"></path>
<path class="node" id="node16" d="M121 512 c-10 -18 -9 -23 4 -28 25 -10 37 9 21 31 -13 18 -14 18 -25
-3z"></path>
<path class="node" id="node17" d="M347 516 c-11 -28 -8 -36 13 -36 23 0 25 9 7 34 -13 18 -14 18 -20 2z"></path>
<path class="node" id="node18" d="M180 500 c0 -11 7 -20 15 -20 17 0 18 2 9 24 -9 23 -24 20 -24 -4z"></path>
<path class="node" id="node19" d="M287 505 c-8 -18 11 -31 25 -17 11 11 3 32 -12 32 -4 0 -10 -7 -13
-15z"></path>
</g>
</svg>