<!--?xml version="1.0" standalone="no"?-->

<svg version="1.0" xmlns="http://www.w3.org/2000/svg" width="300.000000pt" height="300.000000pt" viewBox="0 0 300.000000 300.000000" preserveAspectRatio="xMidYMid meet">
<g transform="translate(0.000000,300.000000) scale(0.100000,-0.100000)" fill="#050505" stroke="none">
<path class="node" id="node1" d="M70 1880 l0 -110 60 0 60 0 -2 -272 -3 -273 -57 -3 -58 -3 0 -99 0
-100 335 0 335 0 0 100 0 99 -62 3 -63 3 0 270 0 270 63 3 62 3 0 109 0 110
-335 0 -335 0 0 -110z"></path>
<path class="node" id="node2" d="M790 1661 l0 -100 43 -3 42 -3 0 -165 0 -165 -42 -3 -43 -3 0 -100 0
-99 260 0 260 0 0 99 0 100 -47 3 -48 3 -3 110 c-3 89 0 116 14 143 39 73 154
99 207 46 33 -33 39 -63 35 -194 l-3 -105 -50 -3 -50 -3 0 -99 0 -100 258 0
257 0 0 95 c0 99 9 116 34 68 56 -108 226 -183 414 -183 146 0 266 40 329 109
30 33 73 119 73 148 0 21 -4 22 -135 25 l-134 3 -16 -40 c-18 -49 -58 -75
-115 -75 -57 0 -105 31 -122 78 -18 52 -17 229 2 266 35 69 125 92 186 49 25
-18 35 -36 46 -80 8 -32 18 -58 23 -58 43 2 216 17 238 21 27 6 28 8 22 42 -9
46 -46 119 -80 155 -67 71 -173 109 -305 111 -216 3 -400 -94 -456 -239 -21
-54 -26 -176 -11 -252 l9 -43 -40 0 -40 0 -4 173 c-3 170 -4 175 -33 233 -26
51 -38 63 -89 88 -49 25 -72 31 -150 34 -64 3 -107 -1 -143 -11 -59 -18 -137
-67 -153 -97 -20 -37 -30 -20 -30 50 l0 70 -205 0 -205 0 0 -99z"></path>
<path class="node" id="node3" d="M2794 1240 c-35 -14 -74 -69 -74 -104 0 -46 38 -98 82 -113 95 -31
182 59 144 150 -25 60 -94 91 -152 67z"></path>
</g>
<g transform="translate(0.000000,300.000000) scale(0.100000,-0.100000)" fill="#9B9B9B" stroke="none">

</g>
</svg>