<!--?xml version="1.0" standalone="no"?-->

<svg version="1.0" xmlns="http://www.w3.org/2000/svg" width="300.000000pt" height="117.000000pt" viewBox="0 0 300.000000 117.000000" preserveAspectRatio="xMidYMid meet">
<g transform="translate(0.000000,117.000000) scale(0.100000,-0.100000)" fill="#080808" stroke="none">
<path class="node" id="node1" d="M545 971 c-48 -20 -105 -103 -105 -153 0 -17 47 -7 81 16 39 27 69
79 69 120 0 27 -10 31 -45 17z"></path>
<path class="node" id="node2" d="M267 795 c-86 -30 -128 -100 -128 -212 0 -129 72 -283 154 -328 32
-18 40 -18 79 -6 72 22 121 24 162 7 58 -24 88 -20 129 16 31 28 107 140 107
158 0 3 -14 14 -30 23 -57 34 -86 133 -60 203 6 14 24 39 40 54 l30 28 -30 26
c-51 43 -100 52 -170 33 -73 -21 -101 -21 -164 -2 -59 18 -70 18 -119 0z"></path>
<path class="node" id="node3" d="M916 684 c-30 -30 -9 -84 33 -84 22 0 51 30 51 53 0 17 -36 47 -57
47 -6 0 -19 -7 -27 -16z"></path>
<path class="node" id="node4" d="M1050 640 l0 -40 60 0 60 0 0 -175 0 -175 45 0 45 0 0 175 0 175 60
0 60 0 0 40 0 40 -165 0 -165 0 0 -40z"></path>
<path class="node" id="node5" d="M1906 545 c-44 -30 -46 -30 -46 -5 0 17 -7 20 -40 20 l-40 0 0 -155
0 -155 50 0 50 0 0 104 c0 113 9 136 54 136 39 0 49 -24 54 -136 l5 -104 44 0
45 0 -4 123 c-4 137 -15 167 -70 186 -45 16 -61 14 -102 -14z"></path>
<path class="node" id="node6" d="M2234 550 c-55 -27 -84 -81 -84 -152 0 -120 96 -180 239 -152 29 6
32 10 29 37 l-3 30 -71 1 c-71 1 -104 14 -104 42 0 10 24 14 98 16 l97 3 3 42
c4 61 -21 108 -72 133 -53 25 -80 25 -132 0z m110 -72 c9 -12 16 -26 16 -30 0
-5 -27 -8 -60 -8 -62 0 -68 5 -50 41 15 28 74 26 94 -3z"></path>
<path class="node" id="node7" d="M2573 559 c-67 -20 -96 -104 -50 -146 12 -11 41 -30 65 -42 75 -38
43 -83 -42 -60 -43 12 -41 13 -50 -24 -5 -23 -3 -29 19 -37 39 -15 122 -12
155 5 35 18 50 43 50 85 0 48 -16 69 -76 95 -42 18 -55 29 -52 42 3 15 13 18
55 17 47 -2 52 0 58 24 3 14 2 29 -2 33 -14 14 -95 19 -130 8z"></path>
<path class="node" id="node8" d="M900 405 l0 -155 45 0 45 0 0 155 0 155 -45 0 -45 0 0 -155z"></path>
<path class="node" id="node9" d="M1400 450 c0 -156 28 -210 108 -210 36 0 87 22 95 42 4 8 8 4 12 -9
6 -19 15 -23 46 -23 l39 0 0 155 0 155 -50 0 -50 0 0 -108 c0 -117 -6 -132
-51 -132 -44 0 -53 23 -57 136 l-4 104 -44 0 -44 0 0 -110z"></path>
</g>
<g transform="translate(0.000000,117.000000) scale(0.100000,-0.100000)" fill="#A3A3A3" stroke="none">


</g>
</svg>