<!--?xml version="1.0" standalone="no"?-->

<svg version="1.0" xmlns="http://www.w3.org/2000/svg" width="300.000000pt" height="234.000000pt" viewBox="0 0 300.000000 234.000000" preserveAspectRatio="xMidYMid meet">
<g transform="translate(0.000000,234.000000) scale(0.100000,-0.100000)" fill="#090909" stroke="none">
<path class="node" id="node1" d="M1980 2161 c-161 -49 -314 -266 -421 -594 -38 -115 -46 -131 -80
-158 l-39 -31 -10 26 c-11 29 -64 66 -95 66 -63 -1 -185 -91 -249 -184 -44
-65 -96 -208 -96 -267 0 -82 55 -130 127 -110 97 28 196 139 272 305 33 70 44
85 70 94 29 10 32 9 27 -6 -13 -45 -36 -189 -36 -228 0 -89 49 -152 106 -138
58 14 121 54 202 129 l82 77 0 -52 c0 -28 6 -66 14 -85 28 -65 83 -72 182 -20
37 19 72 35 79 35 6 0 18 -12 25 -26 34 -62 115 -67 191 -12 34 25 46 28 58
19 61 -44 78 -51 131 -51 92 1 167 46 239 144 65 89 93 145 87 172 -8 32 -20
30 -47 -8 -113 -164 -225 -233 -297 -182 -29 20 -24 50 24 143 55 107 68 219
29 251 -12 10 -18 10 -32 -1 -10 -9 -35 -13 -70 -11 -43 3 -65 -2 -108 -22
-67 -33 -154 -125 -191 -203 -15 -32 -37 -66 -48 -76 -47 -41 -100 -77 -113
-77 -21 0 -16 100 9 192 20 73 28 87 91 156 92 101 215 255 278 349 108 159
145 288 99 346 -16 21 -30 27 -58 27 -133 -1 -317 -206 -407 -455 -10 -27 -22
-54 -26 -60 -8 -12 -66 -198 -85 -275 -12 -50 -21 -63 -101 -138 -100 -94
-153 -132 -184 -132 -21 0 -22 3 -16 87 10 154 28 193 164 350 176 205 259
320 308 425 47 101 42 182 -11 207 -28 12 -38 13 -74 2z m-40 -174 c0 -39 -8
-70 -34 -122 -32 -68 -165 -255 -202 -285 -16 -14 -17 -13 -10 15 16 71 216
444 239 445 4 0 7 -24 7 -53z m397 17 c10 -26 -15 -113 -57 -199 -37 -75 -188
-290 -198 -281 -8 8 31 110 79 209 61 127 152 287 162 287 4 0 10 -7 14 -16z
m87 -660 c22 -21 20 -38 -13 -124 -36 -94 -67 -130 -112 -130 -73 0 -90 68
-40 155 32 56 52 76 96 99 38 20 50 20 69 0z m-1229 -90 c16 -11 40 -15 70
-12 41 3 44 1 39 -17 -17 -55 -97 -145 -129 -145 -25 0 -45 31 -45 71 0 35 26
119 36 119 3 0 16 -7 29 -16z"></path>
<path class="node" id="node2" d="M881 1785 c-35 -40 -38 -60 -16 -110 39 -95 167 -38 135 59 -13 40
-53 86 -73 86 -8 0 -29 -16 -46 -35z"></path>
<path class="node" id="node3" d="M895 1458 c-25 -20 -27 -25 -22 -71 7 -56 -30 -253 -57 -305 -16 -31
-121 -123 -285 -251 -112 -88 -250 -236 -305 -328 -109 -183 -88 -353 44 -353
66 0 164 75 279 215 65 78 197 290 254 409 48 98 71 135 91 144 29 13 44 55
26 77 -10 11 -3 41 35 150 70 203 71 286 4 320 -35 19 -31 19 -64 -7z m-221
-675 c-56 -98 -166 -252 -225 -317 -73 -79 -127 -112 -154 -92 -28 20 -12 73
46 156 80 114 232 256 324 304 40 21 42 7 9 -51z"></path>
</g>
<g transform="translate(0.000000,234.000000) scale(0.100000,-0.100000)" fill="#9F9F9F" stroke="none">






</g>
</svg>