<!--?xml version="1.0" standalone="no"?-->

<svg version="1.0" xmlns="http://www.w3.org/2000/svg" width="300.000000pt" height="114.000000pt" viewBox="0 0 300.000000 114.000000" preserveAspectRatio="xMidYMid meet">
<g transform="translate(0.000000,114.000000) scale(0.100000,-0.100000)" fill="#0D0D0D" stroke="none">
<path class="node" id="node1" d="M530 798 c-25 -41 -25 -40 2 -115 16 -45 28 -63 40 -63 11 0 18 8 18
20 0 15 7 20 29 20 32 0 213 -88 219 -106 1 -6 -15 -19 -37 -28 -58 -22 -134
-7 -178 36 -27 26 -37 30 -50 22 -39 -24 -38 -134 1 -159 32 -20 110 -29 136
-15 13 7 43 30 67 53 42 39 73 46 40 9 -10 -10 -17 -27 -17 -38 0 -17 7 -20
55 -20 49 0 55 3 55 21 0 11 -7 31 -16 43 -19 28 -3 29 22 1 43 -49 96 -79
139 -79 68 0 103 17 111 53 15 69 -1 127 -34 127 -10 0 -31 -13 -46 -29 -38
-40 -111 -51 -167 -26 -21 10 -39 23 -39 30 0 12 121 71 192 94 42 14 58 9 58
-20 0 -11 7 -19 18 -19 12 0 24 18 40 58 28 72 28 88 0 132 l-23 35 -3 -26
c-5 -40 -34 -60 -99 -68 -35 -4 -76 -18 -104 -34 -56 -33 -65 -34 -73 -2 -8
31 -31 32 -47 3 -6 -13 -13 -25 -15 -27 -2 -2 -25 9 -51 25 -26 15 -72 31
-101 35 -67 9 -102 31 -102 64 0 34 -16 31 -40 -7z"></path>
<path class="node" id="node2" d="M1246 638 c-3 -50 -6 -122 -6 -160 l0 -68 55 0 55 0 0 58 c0 98 3 98
155 -32 l137 -116 65 0 66 0 -47 41 -46 41 52 99 c28 55 57 104 65 110 19 16
39 -4 74 -73 34 -67 34 -66 -61 -70 -58 -3 -66 -6 -79 -30 -9 -15 -13 -29 -10
-33 4 -3 78 -4 167 -3 l160 3 -83 155 -84 155 -68 3 -68 2 -68 -125 c-38 -69
-72 -125 -76 -125 -11 0 -117 97 -111 102 3 2 44 35 93 72 48 37 87 69 87 72
0 2 -28 4 -63 4 -63 0 -63 0 -155 -71 l-92 -70 0 55 c0 67 -22 96 -74 96 l-33
0 -7 -92z"></path>
<path class="node" id="node3" d="M2040 599 c0 -177 14 -192 193 -204 l107 -7 0 36 0 36 -69 0 c-54 0
-74 4 -95 21 -25 20 -26 24 -26 125 0 92 -2 104 -17 104 -10 0 -35 3 -55 6
l-38 7 0 -124z"></path>
<path class="node" id="node4" d="M2370 550 l0 -160 55 0 55 0 0 150 c0 167 -1 170 -74 170 l-36 0 0
-160z"></path>
</g>
<g transform="translate(0.000000,114.000000) scale(0.100000,-0.100000)" fill="#A0A0A0" stroke="none">

</g>
</svg>