<!--?xml version="1.0" standalone="no"?-->

<svg version="1.0" xmlns="http://www.w3.org/2000/svg" width="300.000000pt" height="225.000000pt" viewBox="0 0 300.000000 225.000000" preserveAspectRatio="xMidYMid meet">
<g transform="translate(0.000000,225.000000) scale(0.100000,-0.100000)" fill="#0E0E0E" stroke="none">
<path class="node" id="node1" d="M832 1428 c-10 -13 -32 -59 -102 -218 -21 -47 -67 -152 -104 -233
-36 -81 -66 -150 -66 -153 0 -3 19 -4 42 -2 l43 3 101 228 c56 125 105 229
109 230 7 2 82 -155 176 -370 l41 -93 37 0 c21 0 40 2 43 6 3 3 -2 22 -12 42
-10 20 -38 82 -63 137 -200 444 -195 434 -223 435 -6 0 -16 -6 -22 -12z"></path>
<path class="node" id="node2" d="M1973 1428 c-5 -7 -23 -44 -40 -83 -17 -38 -54 -119 -81 -180 -27
-60 -59 -130 -70 -155 -11 -25 -33 -75 -50 -112 -17 -37 -28 -69 -24 -72 3 -3
20 -6 38 -6 37 0 46 11 96 125 171 392 154 371 206 250 59 -139 155 -350 165
-362 10 -14 73 -18 80 -5 5 7 -11 41 -169 389 -41 89 -74 167 -74 172 0 16
-38 51 -54 51 -7 0 -18 -6 -23 -12z"></path>
<path class="node" id="node3" d="M2358 1429 c-17 -9 -18 -35 -18 -309 l0 -300 40 0 40 0 0 206 c0 137
3 203 10 199 6 -4 21 -27 35 -53 58 -110 153 -265 168 -273 26 -15 45 1 80 65
18 33 60 107 93 163 l59 103 5 -203 5 -202 38 -3 37 -3 0 299 c0 261 -2 301
-16 313 -11 9 -20 10 -32 3 -10 -6 -66 -97 -127 -202 -60 -105 -115 -196 -121
-202 -8 -8 -44 48 -130 197 -66 114 -126 209 -134 210 -8 2 -23 -2 -32 -8z"></path>
<path class="node" id="node4" d="M83 1422 l-33 -3 0 -300 0 -300 38 3 37 3 3 294 c1 162 -1 297 -5
301 -5 3 -23 4 -40 2z"></path>
<path class="node" id="node5" d="M274 1282 c-63 -79 -114 -150 -114 -158 0 -8 59 -80 132 -159 l132
-145 48 0 c26 0 48 3 48 8 -1 4 -59 70 -130 147 -71 77 -130 145 -130 151 0 6
50 72 110 147 61 75 110 140 110 144 0 5 -21 8 -46 8 l-46 0 -114 -143z"></path>
<path class="node" id="node6" d="M1210 1385 l0 -35 155 0 c109 0 155 -3 155 -11 0 -7 -35 -60 -79
-118 -174 -236 -251 -346 -251 -361 0 -37 19 -40 237 -40 l213 0 0 40 0 40
-160 0 c-91 0 -160 4 -160 9 0 10 62 98 191 271 127 172 144 200 132 218 -9
15 -37 17 -222 20 l-211 2 0 -35z"></path>
</g>
<g transform="translate(0.000000,225.000000) scale(0.100000,-0.100000)" fill="#9E9E9E" stroke="none">

</g>
</svg>