<!--?xml version="1.0" standalone="no"?-->

<svg version="1.0" xmlns="http://www.w3.org/2000/svg" width="300.000000pt" height="129.000000pt" viewBox="0 0 300.000000 129.000000" preserveAspectRatio="xMidYMid meet">
<g transform="translate(0.000000,129.000000) scale(0.100000,-0.100000)" fill="#383838" stroke="none">
<path stroke-width="20" class="node" id="node1" d="M670 940 l0 -270 55 0 55 0 0 270 0 270 -55 0 -55 0 0 -270z"></path>
<path class="node" id="node2" d="M820 940 l0 -270 55 0 55 0 0 270 0 270 -55 0 -55 0 0 -270z"></path>
<path stroke-width="20" class="node" id="node3" d="M1959 1032 c-63 -33 -99 -90 -99 -159 0 -76 53 -144 145 -184 122
-54 165 -100 165 -180 0 -131 -148 -182 -243 -84 -19 19 -42 53 -52 75 -10 22
-22 39 -27 38 -5 -2 -10 -6 -10 -8 -1 -10 14 -116 18 -133 15 -51 202 -71 280
-30 45 24 90 72 106 112 14 39 11 126 -6 159 -22 43 -67 77 -161 122 -105 50
-135 84 -135 152 0 44 4 54 34 84 29 29 41 34 80 34 36 0 52 -6 80 -31 19 -17
41 -46 48 -65 18 -51 41 -45 33 9 -14 95 -14 96 -53 107 -70 19 -145 12 -203
-18z"></path>
<path class="node" id="node4" d="M2550 1044 c-163 -43 -285 -218 -266 -381 23 -197 170 -323 376 -322
79 0 191 23 206 43 16 22 47 147 38 155 -3 3 -11 -3 -18 -13 -29 -49 -75 -103
-103 -122 -66 -44 -206 -35 -276 19 -48 36 -94 113 -108 177 -15 69 -6 223 15
272 40 93 120 148 229 156 110 8 176 -27 212 -115 25 -58 38 -41 30 40 -4 39
-10 75 -14 78 -28 29 -232 37 -321 13z"></path>
<path stroke-width="20" class="node" id="node5" d="M1292 1038 c3 -7 15 -15 29 -16 13 -2 32 -11 42 -19 15 -15 17 -42
17 -295 0 -169 -4 -287 -10 -298 -6 -11 -26 -22 -45 -26 -86 -16 -18 -24 203
-24 l238 0 14 67 c7 38 15 74 18 80 2 7 -2 13 -9 13 -8 0 -22 -20 -32 -44 -28
-68 -46 -79 -136 -84 -101 -6 -126 1 -140 36 -16 39 -11 556 6 573 6 6 26 14
44 18 18 4 34 12 37 19 3 9 -31 12 -138 12 -109 0 -141 -3 -138 -12z"></path>
<path class="node" id="node6" d="M360 350 l0 -270 55 0 55 0 0 270 0 270 -55 0 -55 0 0 -270z"></path>
<path stroke-width="20" class="node" id="node7" d="M510 350 l0 -270 60 0 60 0 0 270 0 270 -60 0 -60 0 0 -270z"></path>
</g>
<g transform="translate(0.000000,129.000000) scale(0.100000,-0.100000)" fill="#A2A2A2" stroke="none">














<path class="node" id="node22" d="M80 885 l0 -65 273 2 272 3 0 60 0 60 -272 3 -273 2 0 -65z"></path>



<path class="node" id="node26" d="M80 725 l0 -55 275 0 275 0 0 55 0 55 -275 0 -275 0 0 -55z"></path>





<path class="node" id="node32" d="M670 565 l0 -55 273 2 272 3 3 53 3 52 -275 0 -276 0 0 -55z"></path>






<path class="node" id="node39" d="M670 415 l0 -55 276 0 275 0 -3 53 -3 52 -272 3 -273 2 0 -55z"></path>

<path class="node" id="node41" d="M2480 445 c13 -14 26 -25 28 -25 3 0 -5 11 -18 25 -13 14 -26 25 -28
25 -3 0 5 -11 18 -25z"></path>





<path class="node" id="node47" d="M2028 373 c6 -2 18 -2 25 0 6 3 1 5 -13 5 -14 0 -19 -2 -12 -5z"></path>



</g>
<g transform="translate(0.000000,129.000000) scale(0.100000,-0.100000)" fill="#FFFFFF" stroke="none">

</g>
</svg>