<!--?xml version="1.0" standalone="no"?-->

<svg version="1.0" xmlns="http://www.w3.org/2000/svg" width="300.000000pt" height="300.000000pt" viewBox="0 0 300.000000 300.000000" preserveAspectRatio="xMidYMid meet">
<g transform="translate(0.000000,300.000000) scale(0.100000,-0.100000)" fill="#060606" stroke="none">


</g>
<g transform="translate(0.000000,300.000000) scale(0.100000,-0.100000)" fill="#533D97" stroke="none">

<path class="node" id="node4" d="M1289 1859 c-25 -4 -60 -14 -77 -23 -113 -59 -250 -466 -188 -561 43
-65 154 -86 243 -46 63 29 92 101 59 147 -12 16 -27 19 -85 19 -39 0 -71 3
-71 6 0 3 5 20 11 38 10 29 14 31 59 31 65 0 96 13 115 49 33 64 13 100 -60
104 -45 3 -51 11 -31 42 14 21 24 25 69 25 86 0 148 53 133 114 -11 45 -89 69
-177 55z"></path>
<path class="node" id="node5" d="M1614 1844 c-89 -32 -177 -165 -224 -338 -55 -199 -9 -296 139 -296
129 0 240 102 272 248 16 76 0 118 -52 133 -55 17 -113 -1 -139 -44 -26 -42
-25 -53 6 -82 25 -23 25 -24 9 -55 -29 -57 -95 -67 -95 -14 0 63 74 259 113
302 11 12 32 22 45 22 22 0 24 -3 18 -31 -9 -45 8 -69 49 -69 18 0 45 4 59 10
57 21 80 138 36 185 -42 45 -153 58 -236 29z"></path>
<path class="node" id="node6" d="M2095 1855 c-5 -2 -22 -6 -38 -9 -42 -10 -105 -73 -138 -138 -81
-160 -123 -375 -85 -433 29 -45 74 -65 144 -65 112 0 176 52 243 196 47 100
69 177 76 274 7 95 -9 133 -70 161 -37 16 -103 24 -132 14z m52 -151 c6 -17
-44 -182 -85 -276 -36 -86 -90 -94 -78 -13 9 73 76 252 108 293 14 17 47 15
55 -4z"></path>
<path class="node" id="node7" d="M900 1824 c-66 -56 -193 -365 -200 -489 -4 -55 0 -66 29 -96 26 -25
37 -29 88 -29 73 0 136 28 157 69 34 65 12 111 -55 111 -21 0 -39 5 -39 10 0
6 15 41 34 78 56 111 115 257 122 301 9 54 -6 71 -61 71 -32 0 -52 -7 -75 -26z"></path>
</g>
</svg>