<!--?xml version="1.0" standalone="no"?-->

<svg version="1.0" xmlns="http://www.w3.org/2000/svg" width="300.000000pt" height="300.000000pt" viewBox="0 0 300.000000 300.000000" preserveAspectRatio="xMidYMid meet">
<g transform="translate(0.000000,300.000000) scale(0.100000,-0.100000)" fill="#090909" stroke="none">
<path class="node" id="node1" d="M547 2140 c-127 -40 -144 -64 -342 -495 -48 -104 -107 -232 -131
-284 -25 -52 -47 -105 -50 -118 l-6 -23 120 0 c84 0 122 4 129 13 5 6 51 104
103 217 220 481 222 486 301 492 l34 3 3 -362 2 -363 125 0 125 0 0 470 0 470
-177 -1 c-144 0 -189 -4 -236 -19z"></path>
<path class="node" id="node2" d="M1263 2141 c-111 -32 -171 -90 -199 -193 -17 -65 -20 -431 -3 -508
27 -126 124 -200 294 -221 99 -13 247 -6 338 15 102 24 172 86 203 182 21 63
31 370 15 469 -22 144 -83 217 -211 255 -91 27 -343 28 -437 1z m331 -201 c14
-5 35 -24 46 -42 19 -31 20 -47 18 -220 -3 -187 -3 -188 -29 -214 -20 -20 -41
-28 -88 -33 -78 -9 -177 2 -200 23 -31 28 -41 88 -41 236 0 234 17 260 177
260 50 0 103 -4 117 -10z"></path>
<path class="node" id="node3" d="M2217 2141 c-168 -55 -207 -143 -207 -472 0 -365 62 -441 375 -455
214 -11 334 19 396 97 34 43 59 131 59 206 l0 54 -127 -3 -128 -3 -2 -35 c-6
-77 -42 -102 -146 -103 -87 -1 -136 17 -152 57 -19 46 -27 186 -17 304 8 93
12 106 36 130 24 25 34 27 121 30 94 4 95 4 125 -26 26 -26 36 -54 31 -84 0
-5 57 -8 129 -8 l130 0 0 24 c0 57 -31 182 -54 216 -14 22 -44 47 -73 61 -45
22 -60 24 -243 26 -169 2 -203 0 -253 -16z"></path>




<path class="node" id="node8" d="M17 974 c-4 -4 -7 -36 -7 -71 l0 -63 75 0 c60 0 75 3 75 15 0 12 -13
15 -55 15 -42 0 -55 3 -55 15 0 11 12 15 50 15 28 0 50 5 50 10 0 6 -22 10
-50 10 -38 0 -50 4 -50 15 0 12 13 15 56 15 40 0 55 3 52 13 -5 13 -129 23
-141 11z"></path>
<path class="node" id="node9" d="M310 969 c0 -6 14 -27 30 -46 17 -18 30 -45 30 -58 0 -18 5 -25 20
-25 15 0 20 7 20 26 0 15 15 43 36 67 29 34 32 43 19 45 -9 2 -30 -9 -46 -24
l-29 -28 -28 27 c-29 28 -52 35 -52 16z"></path>
<path class="node" id="node10" d="M627 973 c-4 -3 -7 -35 -7 -70 l0 -63 75 0 c60 0 75 3 75 15 0 12
-13 15 -56 15 -70 0 -71 23 -1 28 63 4 60 22 -3 22 -38 0 -50 4 -50 15 0 12
13 15 55 15 42 0 55 3 55 15 0 12 -14 15 -68 15 -38 0 -72 -3 -75 -7z"></path>
<path class="node" id="node11" d="M962 971 c-8 -5 -12 -21 -10 -37 3 -28 6 -29 62 -34 33 -3 61 -10 63
-17 6 -16 -25 -20 -75 -10 -48 10 -58 6 -48 -18 5 -13 20 -15 83 -13 l78 3 0
35 0 35 -59 5 c-72 6 -91 30 -24 30 24 0 48 -4 54 -10 6 -6 15 -6 24 1 13 8
12 11 -4 24 -22 16 -122 21 -144 6z"></path>
<path class="node" id="node12" d="M1400 969 c0 -6 14 -38 31 -70 27 -49 36 -59 58 -59 23 0 31 9 59 65
37 75 37 75 17 75 -8 0 -21 -11 -30 -25 -8 -14 -22 -37 -31 -51 l-16 -27 -30
52 c-27 46 -58 68 -58 40z"></path>
<path class="node" id="node13" d="M1777 973 c-18 -30 -67 -122 -67 -127 0 -13 41 -5 46 9 4 10 20 15
50 15 30 0 46 -5 50 -15 6 -15 44 -22 44 -7 0 4 -15 34 -34 67 -25 46 -39 61
-58 63 -15 2 -28 0 -31 -5z m53 -69 c0 -8 -10 -14 -25 -14 -27 0 -33 18 -13
38 14 14 38 -2 38 -24z"></path>
<path class="node" id="node14" d="M2060 910 l0 -71 68 3 c66 3 90 20 35 26 -69 7 -71 8 -69 59 1 38 -3
48 -16 51 -16 3 -18 -5 -18 -68z"></path>
<path class="node" id="node15" d="M2350 922 c0 -32 5 -63 12 -70 7 -7 39 -12 75 -12 74 0 86 13 81 88
-2 35 -7 48 -20 50 -14 3 -17 -6 -20 -50 -3 -52 -4 -53 -36 -56 -46 -5 -62 12
-62 64 0 32 -4 44 -15 44 -12 0 -15 -13 -15 -58z"></path>
<path class="node" id="node16" d="M2687 974 c-4 -4 -7 -36 -7 -71 l0 -63 80 0 c63 0 80 3 80 15 0 10
-15 15 -55 17 -71 4 -76 22 -7 26 67 4 68 20 0 24 -78 5 -76 28 2 28 45 0 61
3 58 13 -5 13 -139 23 -151 11z"></path>
</g>
<g transform="translate(0.000000,300.000000) scale(0.100000,-0.100000)" fill="#A0A0A0" stroke="none">



</g>
</svg>