<!--?xml version="1.0" standalone="no"?-->

<svg version="1.0" xmlns="http://www.w3.org/2000/svg" width="300.000000pt" height="203.000000pt" viewBox="0 0 300.000000 203.000000" preserveAspectRatio="xMidYMid meet">
<g transform="translate(0.000000,203.000000) scale(0.100000,-0.100000)" fill="#212121" stroke="none">
<path class="node" id="node1" d="M1057 1343 c-4 -3 -7 -75 -7 -160 l0 -153 140 0 140 0 0 40 0 40 -90
0 -90 0 0 120 0 120 -43 0 c-24 0 -47 -3 -50 -7z"></path>
<path class="node" id="node2" d="M1348 1344 c-5 -4 -8 -76 -8 -161 l0 -153 88 1 c108 0 149 14 179 58
47 69 24 209 -40 243 -25 13 -208 24 -219 12z m163 -84 c15 -9 19 -22 19 -68
0 -67 -11 -82 -57 -82 l-33 0 0 80 c0 79 0 80 26 80 14 0 34 -5 45 -10z"></path>
<path class="node" id="node3" d="M1650 1190 l0 -160 45 0 44 0 3 80 3 81 54 -81 53 -80 49 0 50 0 -3
158 -3 157 -45 0 -45 0 -5 -80 -5 -79 -50 74 c-27 41 -54 78 -60 82 -5 4 -27
8 -47 8 l-38 0 0 -160z"></path>
<path class="node" id="node4" d="M1105 994 c-48 -24 -69 -61 -73 -130 -7 -106 41 -165 138 -172 71 -5
112 9 140 48 29 40 25 57 -15 70 -33 11 -37 10 -64 -19 -33 -35 -47 -38 -79
-15 -18 12 -22 25 -22 68 0 29 6 61 14 71 17 24 72 24 89 0 11 -14 21 -16 55
-10 23 4 42 9 42 11 0 20 -36 66 -60 79 -37 19 -126 19 -165 -1z"></path>
<path class="node" id="node5" d="M1348 1004 c-5 -4 -8 -76 -8 -161 l0 -153 50 0 50 0 0 65 c0 51 3 65
15 65 8 0 31 -29 52 -65 l37 -65 53 0 c29 0 53 2 53 5 0 13 -44 92 -62 111
-19 21 -19 22 11 52 38 38 41 80 7 119 -23 27 -28 28 -138 31 -62 2 -116 0
-120 -4z m166 -70 c38 -15 3 -54 -48 -54 -22 0 -26 4 -26 30 0 26 3 30 29 30
16 0 36 -3 45 -6z"></path>
<path class="node" id="node6" d="M1650 885 c0 -124 0 -125 29 -157 29 -32 31 -33 114 -33 77 0 88 2
111 24 37 35 48 82 44 191 l-3 95 -47 3 -48 3 0 -105 c0 -93 -3 -109 -20 -126
-11 -11 -27 -20 -35 -20 -8 0 -24 9 -35 20 -17 17 -20 33 -20 125 l0 105 -45
0 -45 0 0 -125z"></path>
</g>
<g transform="translate(0.000000,203.000000) scale(0.100000,-0.100000)" fill="#FFFFFF" stroke="none">



</g>
</svg>