<!--?xml version="1.0" standalone="no"?-->

<svg version="1.0" xmlns="http://www.w3.org/2000/svg" width="300.000000pt" height="299.000000pt" viewBox="0 0 300.000000 299.000000" preserveAspectRatio="xMidYMid meet">
<g transform="translate(0.000000,299.000000) scale(0.100000,-0.100000)" fill="#040404" stroke="none">
<path class="node" id="node1" d="M2214 2927 c-3 -8 -4 -45 -2 -83 l3 -69 65 -6 c77 -7 131 -28 154
-60 22 -33 20 -58 -10 -115 -15 -27 -41 -85 -59 -129 -63 -152 -113 -270 -162
-385 -28 -63 -78 -182 -113 -265 -34 -82 -68 -163 -75 -180 -8 -16 -26 -59
-40 -95 -15 -36 -33 -78 -40 -95 -7 -16 -34 -79 -59 -140 -26 -60 -53 -123
-61 -140 -8 -16 -26 -59 -40 -95 -14 -36 -32 -79 -40 -95 -8 -17 -28 -66 -45
-110 -37 -92 -43 -101 -57 -83 -8 11 -142 303 -189 414 -14 34 -23 4 136 444
23 63 53 144 67 180 13 36 31 83 38 105 8 22 43 119 79 215 86 232 99 244 294
266 34 3 65 10 67 15 3 4 17 37 30 73 l25 66 -449 0 -449 0 -26 -71 c-14 -38
-26 -72 -26 -74 0 -2 23 -6 50 -10 62 -8 110 -45 110 -82 0 -26 -89 -286 -169
-493 -11 -31 -21 -61 -21 -68 0 -23 -21 -1 -40 42 -9 22 -33 75 -53 116 -48
103 -164 353 -194 420 -14 30 -52 110 -84 176 -32 67 -59 126 -59 132 0 19 56
51 96 54 l39 3 0 90 0 90 -433 3 -432 2 0 -95 0 -95 49 0 c69 0 170 -34 209
-70 31 -28 65 -94 202 -385 18 -38 53 -113 77 -165 25 -52 60 -126 78 -165 18
-38 49 -106 70 -150 21 -44 89 -190 152 -324 l114 -244 -47 -126 c-25 -69 -56
-153 -69 -186 -12 -33 -48 -130 -80 -215 -32 -85 -73 -195 -90 -245 -29 -83
-36 -93 -79 -122 -26 -18 -66 -38 -87 -43 -51 -14 -188 -30 -259 -30 -88 0
-94 -4 -121 -78 -13 -36 -26 -70 -27 -74 -2 -5 558 -7 1244 -6 1096 3 1248 5
1255 18 5 8 49 101 98 205 48 105 102 219 119 255 78 167 112 243 112 251 0 6
-36 9 -82 7 l-83 -3 -48 -95 c-100 -195 -208 -334 -318 -408 -117 -79 -91 -76
-758 -80 -331 -1 -598 1 -603 6 -8 8 13 72 110 332 22 57 44 106 49 107 6 2
42 -57 79 -132 l69 -135 158 -4 c182 -4 164 -12 212 104 15 36 33 79 40 95 12
27 32 73 145 340 72 172 233 551 275 650 23 55 80 188 125 295 45 107 88 209
95 225 14 33 67 156 140 330 72 171 85 197 124 238 53 57 135 92 231 99 l35 3
0 80 0 80 -368 3 c-303 2 -368 0 -373 -11z"></path>
</g>
<g transform="translate(0.000000,299.000000) scale(0.100000,-0.100000)" fill="#A2A2A2" stroke="none">

</g>
</svg>