<!--?xml version="1.0" standalone="no"?-->

<svg version="1.0" xmlns="http://www.w3.org/2000/svg" width="300.000000pt" height="153.000000pt" viewBox="0 0 300.000000 153.000000" preserveAspectRatio="xMidYMid meet">
<g transform="translate(0.000000,153.000000) scale(0.100000,-0.100000)" fill="#121212" stroke="none">
<path class="node" id="node1" d="M566 1421 c-56 -114 -70 -179 -63 -301 7 -112 21 -163 92 -330 80
-185 99 -263 93 -379 l-5 -95 25 49 c114 226 111 392 -14 652 -73 151 -87 216
-82 371 3 67 4 122 2 122 -2 0 -23 -40 -48 -89z"></path>
<path class="node" id="node2" d="M360 1467 c-164 -67 -284 -219 -336 -422 -25 -97 -25 -304 0 -400 62
-242 225 -427 396 -451 l45 -6 -52 27 c-107 54 -207 205 -255 380 -31 117 -31
375 0 490 47 171 150 327 251 380 60 31 25 33 -49 2z"></path>
<path class="node" id="node3" d="M1300 1170 l0 -160 100 0 c82 0 100 3 100 15 0 12 -16 15 -85 15
l-85 0 0 145 c0 122 -2 145 -15 145 -13 0 -15 -24 -15 -160z"></path>
<path class="node" id="node4" d="M1940 1169 c0 -124 3 -160 13 -157 8 3 14 35 17 92 5 91 13 106 56
106 40 0 54 -30 54 -118 0 -66 3 -82 15 -82 12 0 15 16 15 81 0 77 -10 115
-34 131 -18 12 -81 9 -94 -4 -9 -9 -12 2 -12 50 0 48 -3 62 -15 62 -13 0 -15
-25 -15 -161z"></path>
<path class="node" id="node5" d="M738 1295 c108 -50 211 -199 253 -366 32 -131 37 -327 10 -459 -40
-196 -152 -374 -273 -434 -62 -31 -52 -33 31 -7 168 52 313 221 367 426 28
106 26 333 -4 438 -64 224 -203 380 -370 416 -73 15 -74 14 -14 -14z"></path>
<path class="node" id="node6" d="M1800 1265 c0 -24 -5 -35 -15 -35 -8 0 -15 -4 -15 -10 0 -5 7 -10 15
-10 12 0 15 -16 15 -83 0 -69 3 -87 18 -100 19 -18 44 -22 55 -10 4 3 -3 11
-16 17 -20 10 -22 20 -25 94 -3 76 -1 82 17 82 11 0 23 5 26 10 4 6 -5 10 -19
10 -23 0 -26 4 -26 35 0 24 -5 35 -15 35 -10 0 -15 -11 -15 -35z"></path>
<path class="node" id="node7" d="M1550 1140 c0 -77 3 -93 20 -110 23 -23 79 -27 99 -7 11 10 14 10 18
0 3 -7 11 -13 19 -13 11 0 14 22 14 110 0 91 -3 110 -15 110 -12 0 -15 -16
-15 -80 0 -67 -3 -83 -20 -100 -11 -11 -29 -20 -40 -20 -11 0 -29 9 -40 20
-17 17 -20 33 -20 100 0 47 -4 80 -10 80 -6 0 -10 -37 -10 -90z"></path>
<path class="node" id="node8" d="M2199 1204 c-20 -21 -24 -36 -24 -86 0 -53 3 -62 28 -84 32 -27 92
-32 122 -11 28 21 9 40 -20 21 -32 -21 -70 -12 -91 21 -28 43 -13 55 66 55
l70 0 0 30 c0 73 -100 109 -151 54z m103 -11 c10 -9 18 -24 18 -35 0 -15 -8
-18 -60 -18 -65 0 -72 8 -44 48 18 26 60 29 86 5z"></path>
<path class="node" id="node9" d="M2420 1120 c0 -67 4 -110 10 -110 6 0 10 33 10 78 1 95 14 117 70
117 22 0 41 5 42 10 4 14 -71 19 -87 5 -9 -8 -15 -8 -20 0 -18 29 -25 0 -25
-100z"></path>
<path class="node" id="node10" d="M2601 1216 c-15 -17 -1 -28 19 -15 21 13 74 11 88 -3 7 -7 12 -22 12
-35 0 -20 -5 -23 -40 -23 -23 0 -54 -7 -70 -15 -24 -13 -30 -22 -30 -49 0 -19
8 -40 18 -49 22 -20 92 -23 110 -5 9 9 12 9 12 0 0 -7 7 -12 15 -12 12 0 15
17 15 90 0 77 -3 93 -20 110 -24 24 -111 28 -129 6z m115 -111 c11 -28 -5 -64
-31 -71 -55 -14 -100 24 -71 59 22 29 93 37 102 12z"></path>
<path class="node" id="node11" d="M2830 1119 c0 -74 4 -109 11 -107 6 2 11 38 12 84 2 91 14 114 58
114 44 0 59 -31 59 -122 0 -63 3 -78 15 -78 12 0 15 16 15 84 0 103 -19 136
-79 136 -20 0 -42 -5 -48 -11 -8 -8 -13 -8 -17 0 -19 30 -26 2 -26 -100z"></path>
<path class="node" id="node12" d="M436 1173 c-13 -27 -36 -86 -51 -133 -23 -71 -28 -104 -29 -195 -1
-131 15 -191 100 -360 72 -144 90 -232 78 -367 -11 -115 -4 -115 56 6 49 101
65 184 57 316 -6 105 -28 178 -96 321 -22 48 -53 131 -67 185 -22 83 -26 113
-21 187 2 48 3 87 1 87 -2 0 -14 -21 -28 -47z"></path>
<path class="node" id="node13" d="M1321 913 c0 -10 17 -81 37 -158 27 -100 42 -140 52 -140 11 0 25 37
50 122 19 67 37 120 40 118 4 -2 22 -58 40 -125 25 -91 37 -120 48 -118 11 2
27 49 53 148 43 166 44 170 25 170 -10 0 -22 -36 -41 -117 -15 -65 -31 -122
-35 -127 -5 -5 -14 11 -20 35 -68 259 -73 262 -120 84 -18 -69 -36 -125 -40
-125 -4 0 -17 46 -29 103 -12 56 -26 112 -31 125 -11 26 -30 29 -29 5z"></path>
<path class="node" id="node14" d="M2120 792 c0 -151 9 -182 56 -182 30 0 31 12 2 25 -22 10 -23 16 -26
153 -2 117 -5 142 -17 142 -13 0 -15 -23 -15 -138z"></path>
<path class="node" id="node15" d="M2388 873 c-2 -46 -6 -57 -18 -54 -90 25 -122 3 -128 -92 -3 -51 0
-67 17 -88 25 -32 62 -41 96 -23 14 7 27 9 30 3 19 -30 25 6 25 151 0 94 -4
160 -10 160 -5 0 -10 -26 -12 -57z m-17 -89 c18 -22 14 -112 -6 -134 -23 -25
-57 -26 -79 -1 -13 14 -16 33 -14 77 3 50 7 60 26 70 27 13 56 8 73 -12z"></path>
<path class="node" id="node16" d="M1725 805 c-21 -20 -25 -34 -25 -84 0 -48 5 -65 23 -86 32 -38 88
-39 125 -2 23 24 27 35 27 88 0 54 -3 64 -28 85 -38 32 -90 32 -122 -1z m100
-20 c27 -26 33 -73 15 -119 -12 -33 -52 -43 -85 -22 -21 14 -25 24 -25 69 0
53 12 80 40 90 26 9 30 8 55 -18z"></path>
<path class="node" id="node17" d="M1940 720 c0 -91 3 -110 15 -110 12 0 15 15 15 78 0 49 5 85 13 96
13 17 46 24 77 15 9 -2 15 2 15 11 0 20 -61 26 -82 8 -13 -10 -17 -10 -20 0
-3 6 -11 12 -19 12 -11 0 -14 -22 -14 -110z"></path>
<path class="node" id="node18" d="M1310 361 c0 -134 2 -161 15 -161 11 0 15 17 17 73 l3 72 39 0 c39 0
40 -1 79 -73 21 -39 45 -72 53 -72 20 0 18 7 -21 80 -24 44 -31 66 -23 69 53
18 75 98 39 142 -17 21 -29 24 -110 27 l-91 4 0 -161z m164 118 c31 -25 34
-61 6 -89 -16 -16 -33 -20 -80 -20 l-60 0 0 58 c0 32 3 62 7 65 15 16 101 7
127 -14z"></path>
<path class="node" id="node19" d="M1830 376 c0 -157 6 -176 57 -176 30 0 26 24 -5 28 -21 3 -22 7 -22
148 0 121 -2 144 -15 144 -13 0 -15 -23 -15 -144z"></path>
<path class="node" id="node20" d="M1950 505 c0 -8 9 -15 20 -15 11 0 20 7 20 15 0 8 -9 15 -20 15 -11
0 -20 -7 -20 -15z"></path>
<path class="node" id="node21" d="M2316 504 c-9 -8 -16 -31 -16 -50 0 -24 -5 -34 -15 -34 -8 0 -15 -4
-15 -10 0 -5 7 -10 15 -10 12 0 15 -18 15 -100 0 -82 3 -100 15 -100 12 0 15
18 15 100 l0 100 25 0 c14 0 25 5 25 10 0 6 -11 10 -25 10 -20 0 -25 5 -25 24
0 37 10 56 31 56 10 0 19 5 19 10 0 16 -47 12 -64 -6z"></path>
<path class="node" id="node22" d="M1611 394 c-32 -41 -30 -136 4 -169 29 -29 88 -34 123 -9 33 23 16
36 -23 17 -28 -13 -39 -14 -60 -5 -26 12 -50 56 -39 73 3 5 39 9 81 9 l75 0
-6 28 c-13 53 -39 77 -88 80 -40 3 -49 -1 -67 -24z m112 -26 c11 -14 16 -31
13 -37 -9 -14 -113 -15 -121 -1 -7 11 12 51 29 63 21 14 59 2 79 -25z"></path>
<path class="node" id="node23" d="M1960 310 c0 -91 3 -110 15 -110 12 0 15 19 15 110 0 91 -3 110 -15
110 -12 0 -15 -19 -15 -110z"></path>
<path class="node" id="node24" d="M2081 401 c-24 -24 -36 -79 -27 -127 10 -51 37 -74 89 -74 46 0 84
20 73 38 -4 7 -16 6 -37 -5 -38 -19 -86 -3 -95 33 -9 37 3 44 77 44 63 0 69 2
69 20 0 29 -26 76 -45 84 -33 12 -85 6 -104 -13z m99 -21 c11 -11 20 -29 20
-40 0 -18 -7 -20 -60 -20 -57 0 -60 1 -60 24 0 27 33 56 62 56 10 0 27 -9 38
-20z"></path>
</g>
<g transform="translate(0.000000,153.000000) scale(0.100000,-0.100000)" fill="#A2A2A2" stroke="none">








</g>
</svg>