<!--?xml version="1.0" standalone="no"?-->

<svg version="1.0" xmlns="http://www.w3.org/2000/svg" width="300.000000pt" height="300.000000pt" viewBox="0 0 300.000000 300.000000" preserveAspectRatio="xMidYMid meet">
<g transform="translate(0.000000,300.000000) scale(0.100000,-0.100000)" fill="#0A0A0A" stroke="none">
<path class="node" id="node1" d="M2209 1895 c-79 -27 -110 -46 -165 -100 -52 -51 -78 -98 -103 -183
-26 -87 -26 -133 0 -218 37 -120 108 -205 218 -261 52 -26 64 -28 176 -28 113
0 124 2 180 29 77 38 153 114 190 191 25 50 30 74 33 156 5 124 -12 187 -76
271 -56 75 -123 121 -213 148 -85 26 -158 24 -240 -5z m289 -182 c24 -19 55
-54 70 -76 24 -37 27 -50 27 -131 0 -82 -3 -95 -26 -131 -60 -90 -136 -134
-234 -135 -129 0 -239 92 -260 218 -23 141 66 275 207 307 74 17 156 -3 216
-52z"></path>
<path class="node" id="node2" d="M355 1888 c-6 -21 -25 -145 -40 -273 -8 -66 -19 -140 -24 -165 -20
-93 -35 -290 -23 -302 6 -6 33 -13 60 -16 62 -5 67 2 76 113 4 44 13 121 21
170 37 230 64 445 58 462 -9 24 -120 33 -128 11z"></path>
<path class="node" id="node3" d="M852 1890 c-21 -9 -22 -14 -16 -67 3 -32 10 -82 16 -111 5 -30 16
-104 23 -165 33 -274 48 -383 55 -397 18 -37 130 -16 130 24 0 26 -23 212 -44
361 -9 61 -23 162 -32 225 -9 63 -18 121 -20 128 -4 14 -77 15 -112 2z"></path>
<path class="node" id="node4" d="M1615 1885 c-55 -7 -147 -20 -205 -29 -58 -8 -123 -16 -146 -16 -51
0 -64 -14 -64 -69 0 -65 17 -80 83 -70 28 5 93 13 142 18 182 21 350 46 364
55 16 10 10 88 -9 111 -14 17 -26 17 -165 0z"></path>
<path class="node" id="node5" d="M602 1882 c-9 -7 -12 -90 -10 -383 l3 -374 59 -3 c41 -2 62 1 67 10
14 22 11 732 -3 746 -13 13 -96 16 -116 4z"></path>
<path class="node" id="node6" d="M1222 1568 c-13 -13 -16 -85 -6 -112 5 -14 41 -16 294 -16 l288 0 6
23 c9 34 7 76 -4 98 -10 18 -24 19 -288 19 -203 0 -281 -3 -290 -12z"></path>
<path class="node" id="node7" d="M1211 1302 c-6 -12 -11 -41 -11 -65 0 -44 1 -45 38 -51 120 -20 169
-28 282 -42 240 -31 242 -31 256 -16 18 17 26 52 22 88 -3 28 -5 28 -108 45
-144 24 -343 51 -412 56 -49 4 -58 2 -67 -15z"></path>
</g>
<g transform="translate(0.000000,300.000000) scale(0.100000,-0.100000)" fill="#A1A1A1" stroke="none">

<path class="node" id="node9" d="M2282 1765 c-141 -32 -230 -166 -207 -307 21 -126 131 -218 260 -218
98 1 174 45 234 135 23 36 26 49 26 131 0 81 -3 94 -27 131 -67 102 -180 152
-286 128z"></path>
</g>
</svg>