<!--?xml version="1.0" standalone="no"?-->

<svg version="1.0" xmlns="http://www.w3.org/2000/svg" width="300.000000pt" height="162.000000pt" viewBox="0 0 300.000000 162.000000" preserveAspectRatio="xMidYMid meet">
<g transform="translate(0.000000,162.000000) scale(0.100000,-0.100000)" fill="#08080B" stroke="none">
<path class="node" id="node1" d="M2870 1544 c-263 -85 -890 -252 -1122 -299 -249 -51 -508 -70 -601
-44 -113 31 -93 111 56 224 36 27 65 51 63 52 -1 2 -72 -17 -157 -41 -85 -24
-310 -88 -501 -142 -191 -54 -345 -101 -343 -105 2 -3 55 -9 117 -12 344 -19
627 -121 805 -290 85 -81 130 -147 160 -237 l22 -65 144 -3 144 -3 7 72 c10
99 39 205 76 280 76 152 229 237 614 340 83 22 218 59 300 82 l149 41 61 74
c84 102 84 101 6 76z m-1265 -520 c-21 -26 -57 -79 -79 -118 l-41 -71 -96 96
-96 96 101 7 c55 4 130 13 166 20 36 8 69 14 74 15 4 0 -9 -20 -29 -45z"></path>

<path class="node" id="node3" d="M660 573 c-27 -10 -51 -36 -203 -218 -83 -99 -157 -188 -165 -197
-14 -17 -10 -18 79 -17 l94 0 115 140 c148 180 149 181 210 187 27 2 50 2 50
-2 0 -4 -53 -71 -117 -149 -65 -78 -124 -150 -132 -160 -13 -16 -8 -17 78 -17
l91 0 118 142 c66 79 129 152 141 162 26 24 129 37 116 15 -10 -16 -65 -83
-183 -222 l-83 -97 116 0 c110 0 117 1 140 25 25 24 25 25 25 220 l0 195 -84
0 c-103 0 -128 -9 -177 -63 l-39 -42 0 53 0 52 -87 -1 c-49 0 -95 -3 -103 -6z"></path>
<path class="node" id="node4" d="M1200 305 l0 -165 43 0 c79 0 82 7 82 177 l0 148 -62 3 -63 3 0 -166z"></path>
<path class="node" id="node5" d="M1370 435 l0 -34 80 -3 80 -3 -80 -88 c-72 -79 -80 -92 -80 -127 l0
-40 155 0 155 0 0 30 0 30 -80 0 c-44 0 -80 3 -80 8 0 4 15 23 33 42 117 128
117 127 117 175 l0 45 -150 0 -150 0 0 -35z"></path>
<path class="node" id="node6" d="M1720 322 c0 -192 -10 -182 178 -182 185 0 182 -3 182 150 l0 110 45
0 c59 0 65 -13 65 -149 l0 -111 60 0 60 0 0 143 c0 78 -4 147 -8 153 -18 28
-56 34 -201 34 l-151 0 0 -123 c0 -82 -4 -127 -12 -135 -15 -15 -53 -16 -79
-2 -17 10 -19 22 -19 135 l0 125 -60 0 -60 0 0 -148z"></path>
<path class="node" id="node7" d="M2379 451 c-22 -18 -24 -27 -27 -138 -3 -109 -2 -121 18 -146 l21
-27 148 0 c111 0 152 3 167 14 17 13 19 29 22 140 4 123 3 126 -22 151 -24 24
-29 25 -164 25 -123 0 -143 -2 -163 -19z m209 -63 c16 -16 16 -160 0 -176 -15
-15 -63 -16 -89 -2 -16 9 -19 22 -19 88 0 89 8 102 60 102 20 0 41 -5 48 -12z"></path>

</g>
<g transform="translate(0.000000,162.000000) scale(0.100000,-0.100000)" fill="#A4A4A4" stroke="none">

<path class="node" id="node10" d="M1560 1054 c-36 -7 -111 -16 -166 -20 l-101 -7 96 -96 96 -96 41 71
c22 39 58 92 79 118 20 25 33 45 29 45 -5 -1 -38 -7 -74 -15z"></path>

</g>
</svg>