<!--?xml version="1.0" standalone="no"?-->

<svg version="1.0" xmlns="http://www.w3.org/2000/svg" width="300.000000pt" height="134.000000pt" viewBox="0 0 300.000000 134.000000" preserveAspectRatio="xMidYMid meet">
<g transform="translate(0.000000,134.000000) scale(0.100000,-0.100000)" fill="#0A0A0A" stroke="none">
<path class="node" id="node1" d="M1651 1305 c-50 -24 -92 -54 -132 -95 -33 -33 -59 -64 -59 -69 0 -5
82 -11 183 -14 183 -6 338 -28 287 -40 -14 -3 -56 -9 -95 -12 -78 -8 -303 -47
-380 -67 -52 -14 -62 -28 -64 -94 l-1 -31 71 -7 c105 -9 116 -22 25 -28 -42
-3 -79 -7 -82 -10 -7 -7 5 -70 16 -88 7 -11 25 -10 108 9 151 33 472 68 472
51 0 -3 -41 -16 -90 -28 -50 -13 -128 -38 -174 -56 -45 -18 -105 -38 -132 -45
-106 -26 -124 -32 -124 -41 0 -6 51 -10 123 -10 116 0 352 -22 427 -40 l35 -8
-40 -1 c-22 0 -123 3 -225 9 -102 5 -207 6 -233 2 l-48 -7 48 -36 c66 -49 98
-64 170 -83 171 -44 331 0 459 128 61 61 74 82 99 149 34 95 39 201 12 288
-21 69 -90 175 -130 199 -64 40 -255 90 -392 104 -55 6 -66 3 -134 -29z"></path>
<path class="node" id="node2" d="M68 868 l-3 -283 -27 -3 c-26 -3 -28 -6 -28 -53 l0 -49 70 0 c57 0
74 4 91 21 19 19 20 29 17 230 -2 115 -1 209 2 209 3 0 15 -18 26 -39 12 -21
81 -125 155 -230 l133 -191 53 0 53 0 2 283 3 282 28 3 c25 3 27 6 27 53 l0
49 -68 0 c-115 0 -112 8 -112 -248 l0 -217 -38 61 c-20 33 -91 138 -156 232
l-119 172 -53 0 -54 0 -2 -282z"></path>
<path class="node" id="node3" d="M730 910 c0 -46 2 -50 24 -50 20 0 24 -6 30 -46 3 -26 6 -87 6 -136
0 -53 6 -102 14 -122 42 -101 200 -115 281 -25 l35 39 0 -29 c0 -43 31 -61
107 -61 l63 0 0 49 c0 47 -2 50 -27 53 l-28 3 -3 188 -2 187 -54 0 -53 0 -5
-137 c-5 -152 -15 -185 -67 -222 -34 -24 -98 -28 -127 -7 -17 13 -19 30 -22
173 -4 192 -4 193 -104 193 l-68 0 0 -50z"></path>
<path class="node" id="node4" d="M75 398 c-57 -34 -84 -100 -66 -166 7 -26 20 -55 29 -65 45 -50 134
-64 205 -34 35 15 37 18 26 39 -6 13 -13 24 -14 26 -1 1 -19 -5 -40 -14 -64
-26 -135 5 -135 60 0 14 16 16 101 16 l102 0 -6 46 c-11 97 -113 143 -202 92z
m115 -48 c38 -38 27 -50 -45 -50 -73 0 -84 14 -39 49 33 26 58 27 84 1z"></path>
<path class="node" id="node5" d="M774 411 c-12 -5 -25 -14 -29 -20 -9 -16 -25 -13 -25 4 0 11 -12 15
-45 15 -41 0 -45 -2 -45 -24 0 -13 7 -26 15 -30 13 -4 15 -34 15 -181 l0 -175
35 0 35 0 0 75 0 75 25 -16 c53 -34 141 -14 174 40 40 68 34 150 -17 207 -21
24 -38 32 -72 35 -25 2 -55 0 -66 -5z m83 -73 c29 -33 36 -72 19 -112 -39 -94
-146 -58 -146 49 0 72 82 112 127 63z"></path>
<path class="node" id="node6" d="M1148 404 c-15 -8 -33 -24 -40 -37 -12 -22 -12 -22 -18 8 -5 28 -9
30 -53 33 -44 3 -47 2 -47 -21 0 -16 7 -26 20 -30 19 -5 20 -14 20 -121 l0
-116 35 0 35 0 0 86 c0 81 1 87 29 115 16 16 39 29 50 29 17 0 21 6 21 35 0
39 -10 42 -52 19z"></path>
<path class="node" id="node7" d="M1311 402 c-55 -27 -76 -64 -76 -132 0 -63 16 -95 67 -133 34 -25
120 -27 166 -3 36 18 36 20 22 46 -9 18 -12 18 -47 4 -61 -26 -126 -2 -135 51
-3 19 3 20 100 23 101 3 102 3 102 28 0 102 -106 164 -199 116z m109 -54 c35
-38 26 -48 -45 -48 -68 0 -79 9 -52 42 26 33 69 36 97 6z"></path>
<path class="node" id="node8" d="M1614 411 c-28 -12 -54 -49 -54 -76 0 -35 26 -61 95 -94 49 -23 66
-36 63 -49 -4 -23 -60 -28 -100 -8 -32 16 -58 8 -58 -18 0 -21 61 -48 110 -49
82 -1 135 52 111 111 -12 29 -39 47 -113 76 -21 8 -38 21 -38 28 0 39 61 52
82 18 17 -27 68 -28 68 -1 0 39 -33 64 -91 67 -30 2 -64 0 -75 -5z"></path>
<path class="node" id="node9" d="M1885 408 c-31 -17 -45 -39 -45 -73 0 -38 22 -61 93 -95 37 -18 52
-31 52 -45 0 -27 -50 -32 -93 -9 -31 17 -33 17 -46 -2 -8 -10 -12 -22 -9 -26
12 -20 71 -40 116 -40 65 0 101 25 105 76 4 48 -9 63 -85 97 -47 21 -63 33
-63 48 0 22 30 35 60 26 11 -3 20 -13 20 -21 0 -9 11 -14 30 -14 27 0 30 3 30
30 0 23 -7 33 -30 45 -34 17 -106 19 -135 3z"></path>
<path class="node" id="node10" d="M2370 403 c-51 -26 -80 -76 -80 -135 0 -95 56 -149 154 -150 99 -1
161 56 161 147 0 57 -18 91 -68 129 -37 28 -122 32 -167 9z m141 -72 c45 -46
35 -117 -20 -146 -43 -22 -67 -19 -100 13 -65 59 -30 162 54 162 27 0 44 -8
66 -29z"></path>
<path class="node" id="node11" d="M2787 396 c-33 -23 -35 -23 -40 -5 -4 16 -14 19 -56 19 -47 0 -51 -2
-51 -24 0 -15 7 -26 20 -29 19 -5 20 -14 20 -121 l0 -116 35 0 35 0 0 75 c0
111 29 165 88 165 40 0 52 -30 52 -132 0 -107 1 -108 71 -108 37 0 39 2 39 30
0 23 -5 30 -19 30 -17 0 -19 10 -23 96 -3 91 -5 97 -31 120 -37 32 -92 32
-140 0z"></path>
<path class="node" id="node12" d="M320 386 c0 -16 6 -26 14 -26 18 0 76 -69 76 -90 0 -8 -20 -46 -45
-83 l-45 -67 39 0 c37 0 42 4 67 45 14 25 30 45 34 45 4 0 20 -20 34 -45 25
-41 30 -45 66 -45 l40 0 -45 69 c-25 38 -45 76 -45 83 0 20 59 88 76 88 8 0
14 10 14 26 0 23 -3 25 -42 22 -35 -2 -46 -9 -65 -36 -12 -18 -24 -38 -27 -45
-5 -9 -7 -9 -12 0 -3 7 -15 27 -27 45 -19 27 -30 34 -65 36 -39 3 -42 1 -42
-22z"></path>
<path class="node" id="node13" d="M2107 404 c-14 -14 -7 -42 13 -47 18 -5 20 -14 20 -109 0 -68 4 -108
12 -116 7 -7 31 -12 55 -12 40 0 43 2 43 26 0 17 -6 28 -20 31 -18 5 -20 15
-22 117 l-3 111 -45 3 c-25 2 -49 0 -53 -4z"></path>
</g>
<g transform="translate(0.000000,134.000000) scale(0.100000,-0.100000)" fill="#A3A3A3" stroke="none">





</g>
</svg>