<!--?xml version="1.0" standalone="no"?-->

<svg version="1.0" xmlns="http://www.w3.org/2000/svg" width="300.000000pt" height="284.000000pt" viewBox="0 0 300.000000 284.000000" preserveAspectRatio="xMidYMid meet">
<g transform="translate(0.000000,284.000000) scale(0.100000,-0.100000)" fill="#1A1A1A" stroke="none">
<path class="node" id="node1" d="M867 2454 c-147 -26 -278 -95 -341 -177 -57 -74 -118 -257 -87 -257
6 0 38 13 70 29 58 30 58 30 65 83 15 113 78 199 181 248 78 37 172 51 181 26
6 -17 -12 -135 -41 -261 -8 -33 -30 -145 -50 -250 -68 -352 -94 -433 -155
-469 -16 -9 -53 -20 -82 -23 -29 -3 -64 -12 -78 -21 -32 -19 -85 -81 -76 -89
4 -4 170 -13 369 -21 l362 -15 68 27 c38 16 70 26 73 24 2 -3 -2 -24 -11 -47
-8 -23 -21 -78 -30 -122 -37 -195 1 -356 108 -462 94 -92 192 -122 372 -114
66 3 144 11 173 18 71 17 78 8 56 -67 -31 -110 -76 -178 -139 -212 -22 -11
-55 -16 -120 -15 -75 1 -99 5 -145 27 -30 14 -63 31 -72 38 -14 10 -27 8 -73
-15 -32 -15 -55 -33 -53 -40 3 -6 25 -22 50 -35 89 -44 287 -47 403 -7 196 68
291 219 365 580 10 50 30 136 44 192 14 56 26 106 26 112 0 19 -317 14 -376
-6 -77 -26 -184 -101 -184 -129 0 -18 2 -18 49 7 64 33 139 49 234 49 101 0
107 -5 89 -79 -10 -42 -62 -307 -62 -318 0 -2 -16 -11 -35 -19 -54 -22 -246
-19 -312 5 -178 65 -254 195 -240 410 12 174 51 288 144 423 132 190 290 269
479 240 84 -13 163 -49 186 -84 9 -13 18 -41 21 -62 11 -81 37 -68 67 34 32
110 32 112 -20 127 -82 25 -300 38 -394 24 -167 -25 -319 -101 -424 -214 -31
-33 -73 -77 -92 -97 -56 -60 -127 -80 -274 -80 -194 0 -396 12 -396 23 0 6 33
41 73 78 89 81 137 170 166 303 11 49 26 95 34 103 12 12 34 12 146 2 l132
-12 29 28 c16 15 27 32 24 37 -3 5 -69 8 -147 8 -78 -1 -150 -1 -159 0 -25 0
-24 12 24 257 30 154 46 216 57 223 22 11 250 -6 287 -21 42 -18 64 -49 64
-90 0 -42 21 -67 38 -47 5 7 15 29 20 48 6 19 20 63 30 98 l20 62 -316 -1
c-227 -1 -339 -5 -395 -15z"></path>
</g>
<g transform="translate(0.000000,284.000000) scale(0.100000,-0.100000)" fill="#A0A0A0" stroke="none">

</g>
</svg>