<!--?xml version="1.0" standalone="no"?-->

<svg version="1.0" xmlns="http://www.w3.org/2000/svg" width="300.000000pt" height="190.000000pt" viewBox="0 0 300.000000 190.000000" preserveAspectRatio="xMidYMid meet">
<g transform="translate(0.000000,190.000000) scale(0.100000,-0.100000)" fill="#080808" stroke="none">
<path class="node" id="node1" d="M248 1662 c-51 -54 -61 -92 -24 -92 14 0 28 -5 31 -10 4 -6 8 -56 11
-111 4 -102 11 -127 45 -165 11 -11 27 -45 38 -75 l18 -54 7 32 c12 53 25 58
132 44 108 -13 152 -28 207 -72 42 -34 96 -59 127 -59 31 0 24 14 -27 56 -65
54 -453 441 -482 482 -35 50 -54 56 -83 24z"></path>
<path class="node" id="node2" d="M338 1085 l-28 -33 0 -330 0 -329 38 -7 c20 -3 61 -6 89 -6 l52 0 3
148 3 147 60 13 c87 19 128 39 169 81 44 45 55 81 44 140 -10 55 -46 103 -101
135 -55 32 -104 44 -202 52 -44 4 -84 10 -90 14 -5 4 -22 -8 -37 -25z"></path>
<path class="node" id="node3" d="M871 944 c-17 -14 -31 -32 -31 -39 0 -7 -8 -16 -17 -20 -17 -7 -16
-8 2 -15 39 -16 235 -6 235 11 0 5 -7 9 -15 9 -8 0 -15 7 -15 15 0 9 -12 27
-26 40 -37 34 -92 34 -133 -1z"></path>
<path class="node" id="node4" d="M1402 803 c-25 -3 -45 -10 -49 -18 -4 -12 -9 -12 -33 0 -110 57 -259
-54 -260 -193 0 -80 37 -141 119 -193 36 -23 56 -29 103 -29 l58 0 0 -31 c0
-66 -43 -93 -63 -40 -9 24 -18 30 -55 35 -25 3 -58 6 -75 6 l-30 0 7 -52 c16
-121 72 -178 177 -178 106 0 175 52 200 151 14 55 17 414 4 507 -7 46 0 44
-103 35z"></path>
<path class="node" id="node5" d="M1674 800 c-67 -21 -128 -116 -127 -200 0 -95 81 -213 158 -230 59
-13 133 11 172 56 31 35 53 98 39 111 -4 4 -33 9 -66 11 -54 4 -62 2 -79 -19
-16 -20 -23 -22 -38 -13 -11 7 -18 23 -18 40 l0 29 109 3 108 3 -6 52 c-4 29
-15 66 -24 82 -32 56 -156 97 -228 75z"></path>
<path class="node" id="node6" d="M857 794 c-9 -10 -9 -422 1 -426 4 -2 37 -2 74 0 67 4 67 4 73 36 4
18 3 113 -2 212 l-8 179 -65 3 c-36 2 -69 0 -73 -4z"></path>
<path class="node" id="node7" d="M2080 773 c-95 -50 -143 -167 -110 -267 34 -105 230 -175 321 -113
79 53 117 157 89 242 -25 75 -115 147 -200 160 -38 5 -54 2 -100 -22z"></path>
<path class="node" id="node8" d="M2427 793 c-9 -8 -9 -112 0 -286 l6 -137 79 0 78 0 -2 101 c-2 75 0
103 10 106 9 4 12 -21 12 -102 l0 -108 83 8 c45 4 84 8 86 10 7 8 -19 223 -34
271 -30 102 -90 158 -147 136 -16 -6 -30 -6 -34 -1 -6 10 -127 12 -137 2z"></path>
</g>
<g transform="translate(0.000000,190.000000) scale(0.100000,-0.100000)" fill="#A1A1A1" stroke="none">

</g>
</svg>