<!--?xml version="1.0" standalone="no"?-->

<svg version="1.0" xmlns="http://www.w3.org/2000/svg" width="300.000000pt" height="117.000000pt" viewBox="0 0 300.000000 117.000000" preserveAspectRatio="xMidYMid meet">
<g transform="translate(0.000000,117.000000) scale(0.100000,-0.100000)" fill="#5B595E" stroke="none">
<path class="node" id="node1" d="M683 829 c-45 -13 -101 -71 -108 -113 -16 -83 18 -126 135 -171 75
-29 98 -52 81 -84 -20 -37 -78 -42 -130 -10 l-33 20 -34 -38 c-18 -21 -33 -41
-34 -44 -1 -15 86 -51 135 -56 67 -7 129 14 170 57 23 25 30 41 33 90 4 57 3
61 -29 93 -20 20 -57 41 -89 52 -72 23 -100 41 -100 65 0 43 83 66 127 35 21
-15 24 -13 57 22 20 21 36 41 36 44 0 4 -22 16 -49 28 -52 22 -114 26 -168 10z"></path>
<path class="node" id="node2" d="M1810 678 c-86 -15 -140 -78 -140 -165 0 -90 43 -146 129 -169 57
-14 103 -7 156 26 35 22 36 23 18 42 -30 33 -53 41 -71 25 -27 -23 -49 -27
-82 -16 -30 11 -55 41 -43 53 3 3 57 6 120 6 111 0 113 0 113 23 0 77 -58 162
-120 176 -19 4 -55 4 -80 -1z m68 -84 c42 -29 28 -44 -43 -44 -36 0 -65 3 -65
7 0 4 10 17 22 30 25 27 54 29 86 7z"></path>
<path class="node" id="node3" d="M1032 663 c-101 -49 -128 -177 -56 -263 37 -43 78 -62 138 -62 52 -1
85 11 119 40 23 21 22 27 -12 51 -28 20 -28 20 -67 1 -40 -21 -66 -19 -96 8
-40 35 -24 42 97 42 l115 0 0 45 c0 55 -18 93 -60 129 -26 21 -41 26 -88 26
-32 0 -72 -8 -90 -17z m118 -73 c33 -33 24 -40 -45 -40 -71 0 -85 15 -43 44
31 22 64 20 88 -4z"></path>
<path class="node" id="node4" d="M1317 673 c-4 -3 -7 -80 -7 -170 l0 -163 49 0 48 0 5 109 c5 123 14
144 62 139 44 -4 56 -35 56 -150 l0 -98 50 0 50 0 0 120 c0 131 -11 176 -51
204 -34 23 -110 21 -143 -5 l-26 -20 0 20 c0 18 -6 21 -43 21 -24 0 -47 -3
-50 -7z"></path>
<path class="node" id="node5" d="M2135 664 c-68 -35 -95 -79 -95 -154 0 -104 68 -171 174 -172 55 -1
116 23 116 45 0 7 -14 26 -30 42 -23 22 -33 26 -42 17 -20 -20 -72 -14 -96 11
-46 49 -12 137 52 137 17 0 37 -5 44 -12 9 -9 19 -5 42 17 16 16 30 35 30 42
0 38 -137 58 -195 27z"></path>
<path class="node" id="node6" d="M2418 659 c-21 -11 -38 -23 -38 -27 0 -5 11 -19 24 -31 23 -22 26
-22 48 -7 42 29 118 15 118 -23 0 -15 -11 -19 -67 -23 -82 -7 -120 -23 -139
-59 -25 -50 -12 -105 34 -135 32 -21 112 -21 144 0 23 15 26 15 31 1 5 -10 20
-15 52 -15 l45 0 0 115 c0 128 -11 169 -55 203 -37 30 -143 30 -197 1z m152
-191 c0 -31 -28 -58 -61 -58 -40 0 -59 10 -59 30 0 30 32 46 93 49 21 1 27 -3
27 -21z"></path>
<path class="node" id="node7" d="M342 658 c-27 -27 -4 -78 37 -78 14 0 41 29 41 45 0 35 -53 58 -78
33z"></path>
<path class="node" id="node8" d="M452 538 c-28 -28 -3 -72 39 -66 30 4 47 33 33 56 -14 21 -55 27 -72
10z"></path>
<path class="node" id="node9" d="M348 429 c-34 -19 -16 -79 23 -79 21 0 49 26 49 45 0 17 -27 45 -43
45 -7 0 -20 -5 -29 -11z"></path>
</g>
<g transform="translate(0.000000,117.000000) scale(0.100000,-0.100000)" fill="#FFFFFF" stroke="none">




</g>
</svg>