<!--?xml version="1.0" standalone="no"?-->

<svg version="1.0" xmlns="http://www.w3.org/2000/svg" width="300.000000pt" height="200.000000pt" viewBox="0 0 300.000000 200.000000" preserveAspectRatio="xMidYMid meet">
<g transform="translate(0.000000,200.000000) scale(0.100000,-0.100000)" fill="#040404" stroke="none">
<path class="node" id="node1" d="M1022 1985 c-153 -28 -320 -139 -409 -273 -21 -31 -53 -97 -73 -147
l-35 -90 -3 -287 -3 -287 130 -3 131 -3 0 211 c0 116 5 237 11 270 27 150 133
291 268 357 l66 32 421 3 420 3 130 101 c71 55 136 106 144 114 21 20 -1088
19 -1198 -1z"></path>
<path class="node" id="node2" d="M1269 1343 l-219 -217 0 -113 0 -113 133 0 c188 0 307 -15 365 -44
99 -50 124 -102 130 -273 l4 -123 129 0 129 0 0 88 c0 139 -17 249 -50 320
-35 76 -109 151 -182 185 -69 32 -181 57 -257 57 -38 0 -61 4 -61 11 0 6 98
107 218 225 l217 213 -169 1 -169 0 -218 -217z"></path>
<path class="node" id="node3" d="M2228 828 l-3 -283 -33 -77 c-18 -42 -51 -97 -73 -122 -46 -52 -138
-101 -218 -116 -30 -6 -226 -10 -449 -10 l-395 0 -71 -52 c-39 -29 -106 -78
-150 -111 l-79 -58 609 3 c587 3 611 4 671 24 211 72 362 228 434 449 21 64
23 92 27 353 l4 282 -135 0 -135 0 -4 -282z"></path>
</g>
<g transform="translate(0.000000,200.000000) scale(0.100000,-0.100000)" fill="#A6A6A6" stroke="none">

</g>
</svg>