<!--?xml version="1.0" standalone="no"?-->

<svg version="1.0" xmlns="http://www.w3.org/2000/svg" width="300.000000pt" height="170.000000pt" viewBox="0 0 300.000000 170.000000" preserveAspectRatio="xMidYMid meet">
<g transform="translate(0.000000,170.000000) scale(0.100000,-0.100000)" fill="#020202" stroke="none">





</g>
<g transform="translate(0.000000,170.000000) scale(0.100000,-0.100000)" fill="#75DDF1" stroke="none">
<path class="node" id="node6" d="M1734 1660 c-61 -9 -121 -27 -151 -46 l-23 -14 0 -574 c0 -542 1
-574 18 -589 17 -15 68 -17 523 -17 556 0 579 2 669 60 198 127 222 399 47
555 -85 77 -223 112 -320 82 -54 -17 -50 -21 -67 66 -32 164 -170 337 -330
416 -121 60 -240 79 -366 61z"></path>
<path class="node" id="node7" d="M1460 1565 c-19 -23 -21 -1095 -1 -1118 16 -20 44 -22 59 -4 5 6 14
80 18 163 11 189 -3 944 -18 961 -14 18 -43 16 -58 -2z"></path>
<path class="node" id="node8" d="M1347 1506 c-11 -11 -15 -86 -21 -383 -8 -424 0 -667 21 -689 21 -20
30 -18 50 13 17 25 18 63 16 526 -2 433 -4 503 -18 523 -18 28 -28 30 -48 10z"></path>
<path class="node" id="node9" d="M985 1418 c-2 -7 -9 -160 -14 -341 -9 -292 -3 -587 14 -634 2 -7 13
-13 24 -13 26 0 28 10 40 185 11 163 -6 783 -21 803 -6 6 -17 12 -25 12 -7 0
-16 -6 -18 -12z"></path>
<path class="node" id="node10" d="M1105 1409 c-14 -21 -26 -660 -16 -811 6 -82 13 -153 16 -158 9 -14
45 -12 50 3 2 6 8 79 14 160 11 173 -5 785 -21 805 -13 15 -35 16 -43 1z"></path>
<path class="node" id="node11" d="M870 1395 c-9 -11 -13 -123 -14 -462 0 -247 2 -460 7 -475 8 -29 46
-41 48 -15 0 6 6 80 12 162 9 112 9 231 1 466 -6 174 -14 321 -18 327 -10 16
-21 15 -36 -3z"></path>
<path class="node" id="node12" d="M1227 1386 c-27 -28 -33 -885 -5 -939 9 -18 43 -23 52 -8 27 43 22
914 -5 947 -14 18 -24 18 -42 0z"></path>
<path class="node" id="node13" d="M756 1352 c-3 -5 -10 -132 -17 -283 -14 -349 -2 -624 28 -636 8 -3
16 -3 19 0 3 3 11 76 18 162 11 129 11 212 1 451 -7 161 -16 297 -20 303 -7
13 -22 14 -29 3z"></path>
<path class="node" id="node14" d="M643 1238 c-18 -23 -31 -486 -19 -653 9 -127 14 -150 28 -153 20 -4
23 12 38 198 7 101 7 194 -3 368 -13 223 -21 269 -44 240z"></path>
<path class="node" id="node15" d="M406 1058 c-3 -13 -9 -90 -15 -173 -12 -164 4 -424 27 -447 17 -17
19 -5 36 167 12 130 12 170 0 300 -8 83 -16 156 -19 163 -7 20 -24 14 -29 -10z"></path>
<path class="node" id="node16" d="M295 1058 c-2 -7 -9 -78 -15 -157 -17 -197 6 -479 35 -449 4 3 13 68
22 144 13 116 13 161 4 274 -7 74 -14 150 -18 168 -5 32 -20 43 -28 20z"></path>
<path class="node" id="node17" d="M526 1052 c-5 -9 -9 -44 -25 -219 -4 -45 -4 -117 0 -160 4 -43 10
-112 14 -153 6 -77 19 -106 34 -81 5 7 14 84 21 170 17 228 -9 499 -44 443z"></path>
<path class="node" id="node18" d="M186 1009 c-2 -8 -10 -67 -16 -132 -17 -161 10 -446 35 -375 2 7 11
67 20 133 14 108 13 131 -1 245 -15 119 -28 161 -38 129z"></path>
<path class="node" id="node19" d="M73 873 c-16 -94 -5 -283 17 -283 10 0 30 111 30 165 0 54 -20 165
-30 165 -5 0 -12 -21 -17 -47z"></path>
<path class="node" id="node20" d="M260 280 c-25 -25 -26 -81 -2 -103 9 -8 37 -21 62 -27 48 -13 61 -25
53 -47 -6 -16 -66 -17 -94 -2 -20 10 -49 -2 -49 -22 0 -17 60 -39 105 -39 56
0 95 32 95 78 0 36 -28 63 -88 82 -51 16 -67 44 -31 53 12 3 34 0 49 -8 25
-13 29 -12 44 4 16 18 16 20 -6 35 -33 23 -113 21 -138 -4z"></path>
<path class="node" id="node21" d="M510 272 c-52 -52 -52 -146 -1 -201 24 -26 36 -31 76 -31 38 0 52 5
75 28 52 52 52 152 0 204 -23 23 -37 28 -75 28 -38 0 -52 -5 -75 -28z m126
-47 c18 -28 15 -95 -6 -120 -16 -19 -64 -19 -83 0 -24 24 -30 69 -13 109 13
32 19 36 50 36 27 0 40 -6 52 -25z"></path>
<path class="node" id="node22" d="M760 201 c0 -92 2 -102 26 -130 22 -27 32 -31 72 -31 81 1 103 34
110 167 l5 93 -27 0 c-26 0 -26 0 -26 -77 0 -99 -14 -128 -60 -128 -46 0 -60
29 -60 128 0 70 -2 77 -20 77 -19 0 -20 -7 -20 -99z"></path>
<path class="node" id="node23" d="M1040 170 l0 -130 25 0 c25 0 25 1 25 82 l0 83 55 -83 c45 -66 60
-82 80 -82 l25 0 0 130 0 130 -25 0 c-23 0 -24 -2 -27 -82 l-3 -82 -54 82
c-42 65 -59 82 -77 82 l-24 0 0 -130z"></path>
<path class="node" id="node24" d="M1320 170 l0 -130 50 0 c93 0 144 37 157 113 14 92 -40 147 -144 147
l-63 0 0 -130z m136 59 c27 -30 24 -97 -6 -121 -12 -10 -35 -18 -51 -18 l-29
0 0 80 0 80 33 0 c22 0 41 -8 53 -21z"></path>
<path class="node" id="node25" d="M1614 266 c-31 -31 -34 -39 -34 -96 0 -57 3 -65 34 -96 28 -28 41
-34 78 -34 70 0 115 45 69 69 -14 8 -22 7 -31 -4 -19 -23 -66 -19 -84 7 -36
51 -9 138 43 138 15 0 32 -5 38 -11 14 -14 53 -2 53 16 0 23 -42 45 -88 45
-37 0 -50 -6 -78 -34z"></path>
<path class="node" id="node26" d="M1840 170 l0 -130 75 0 c73 0 75 1 75 25 0 23 -3 25 -50 25 l-50 0 0
105 0 105 -25 0 -25 0 0 -130z"></path>
<path class="node" id="node27" d="M2061 275 c-55 -47 -52 -169 6 -214 37 -30 106 -29 138 3 52 52 55
158 4 208 -38 38 -104 39 -148 3z m125 -62 c30 -70 -8 -134 -72 -121 -27 5
-45 47 -40 91 6 50 21 67 63 67 30 0 36 -5 49 -37z"></path>
<path class="node" id="node28" d="M2300 226 c0 -98 8 -131 38 -161 19 -20 35 -25 72 -25 79 0 110 52
110 187 l0 73 -30 0 -30 0 0 -93 c0 -101 -7 -117 -51 -117 -44 0 -59 32 -59
127 0 82 0 83 -25 83 -24 0 -25 -2 -25 -74z"></path>
<path class="node" id="node29" d="M2580 171 l0 -131 55 0 c108 0 155 42 155 139 0 42 -5 56 -29 83 -27
30 -34 33 -105 36 l-76 4 0 -131z m140 59 c31 -31 27 -93 -6 -119 -15 -12 -40
-21 -55 -21 l-29 0 0 80 0 80 35 0 c22 0 43 -8 55 -20z"></path>
</g>
</svg>