<!--?xml version="1.0" standalone="no"?-->

<svg version="1.0" xmlns="http://www.w3.org/2000/svg" width="300.000000pt" height="117.000000pt" viewBox="0 0 300.000000 117.000000" preserveAspectRatio="xMidYMid meet">
<g transform="translate(0.000000,117.000000) scale(0.100000,-0.100000)" fill="#0E0D0D" stroke="none">
<path class="node" id="node1" d="M448 1145 c-158 -84 -378 -217 -410 -247 l-38 -36 0 -278 0 -277 38
-36 c22 -20 73 -54 115 -76 67 -35 78 -38 91 -25 28 30 218 406 219 434 1 51
-31 66 -140 66 -91 0 -96 1 -124 29 -37 38 -39 88 -5 128 l24 28 398 5 c362 5
399 7 402 22 2 11 -17 28 -65 56 -37 21 -143 82 -234 135 -105 61 -178 97
-196 97 -15 0 -49 -11 -75 -25z"></path>
<path class="node" id="node2" d="M1150 660 c0 -18 7 -20 55 -20 l55 0 0 -160 c0 -134 2 -160 15 -160
12 0 15 27 17 158 l3 157 48 3 c39 3 47 6 47 23 0 18 -8 19 -120 19 -113 0
-120 -1 -120 -20z"></path>
<path class="node" id="node3" d="M1790 661 c-46 -25 -69 -51 -86 -98 -20 -56 -17 -93 11 -149 41 -83
125 -117 219 -90 74 22 96 51 96 127 l0 59 -70 0 c-63 0 -70 -2 -70 -20 0 -18
7 -20 55 -20 51 0 55 -2 55 -23 0 -49 -60 -97 -122 -97 -109 0 -180 115 -132
216 34 71 139 97 210 53 32 -19 54 -19 54 1 0 5 -20 21 -43 35 -53 31 -125 33
-177 6z"></path>
<path class="node" id="node4" d="M2175 663 c-46 -24 -66 -45 -86 -88 -66 -143 54 -290 208 -255 76 17
113 61 113 135 l0 55 -76 0 c-66 0 -75 -2 -72 -17 2 -14 15 -19 56 -21 31 -2
55 -8 58 -16 9 -23 -15 -66 -48 -86 -89 -54 -206 5 -215 107 -10 100 46 163
144 163 40 0 58 -5 81 -25 27 -22 31 -23 43 -9 11 14 10 18 -6 31 -58 44 -145
55 -200 26z"></path>
<path class="node" id="node5" d="M2470 500 l0 -180 110 0 c103 0 110 1 110 20 0 19 -7 20 -90 20 l-90
0 0 65 0 65 70 0 c63 0 70 2 70 20 0 18 -7 20 -70 20 l-70 0 0 55 0 55 86 0
c76 0 85 2 82 18 -3 15 -17 17 -106 20 l-102 3 0 -181z"></path>
<path class="node" id="node6" d="M2724 667 c-2 -7 -3 -87 -2 -177 l3 -165 57 -3 c83 -4 130 12 171 57
88 97 47 249 -75 286 -64 19 -147 20 -154 2z m163 -46 c50 -23 73 -63 73 -123
0 -86 -55 -138 -146 -138 l-54 0 0 140 0 140 43 0 c23 0 61 -9 84 -19z"></path>
<path class="node" id="node7" d="M765 646 c-27 -13 -58 -33 -69 -44 -20 -23 -273 -505 -282 -538 -4
-16 4 -24 45 -43 33 -16 59 -22 78 -18 23 4 338 181 460 257 38 24 43 54 43
235 l0 175 -112 0 c-98 0 -120 -3 -163 -24z"></path>
<path class="node" id="node8" d="M1499 624 c-12 -27 -46 -103 -75 -169 -30 -66 -54 -123 -54 -127 0
-5 8 -8 18 -8 11 0 25 18 39 50 l22 50 78 0 79 0 21 -50 c13 -30 28 -50 37
-50 9 0 16 4 16 10 0 13 -139 323 -150 334 -6 6 -18 -10 -31 -40z m81 -156 c0
-5 -25 -8 -56 -8 -41 0 -55 3 -51 13 3 6 16 36 28 66 l23 55 28 -60 c15 -32
27 -62 28 -66z"></path>
</g>
<g transform="translate(0.000000,117.000000) scale(0.100000,-0.100000)" fill="#A09F9F" stroke="none">




</g>
</svg>