<!--?xml version="1.0" standalone="no"?-->

<svg version="1.0" xmlns="http://www.w3.org/2000/svg" width="300.000000pt" height="300.000000pt" viewBox="0 0 300.000000 300.000000" preserveAspectRatio="xMidYMid meet">
<g transform="translate(0.000000,300.000000) scale(0.100000,-0.100000)" fill="#232321" stroke="none">
<path class="node" id="node1" d="M1479 2718 c-7 -18 -30 -60 -51 -94 -73 -117 -80 -162 -41 -238 l16
-31 -38 33 c-50 45 -81 55 -140 47 -61 -8 -95 -28 -95 -58 0 -38 46 -122 92
-171 49 -50 48 -53 -5 -31 -20 8 -51 15 -68 15 l-32 0 5 -63 c6 -67 38 -143
80 -188 49 -52 77 -64 172 -69 l91 -5 0 -220 0 -219 -44 -8 c-282 -48 -465
-340 -378 -605 83 -256 310 -386 574 -329 161 35 308 184 349 355 38 159 -10
328 -126 442 -72 70 -129 103 -215 125 -39 9 -76 18 -83 20 -10 3 -12 52 -10
221 l3 218 91 5 c95 5 123 17 172 69 42 45 74 121 80 188 l5 63 -30 0 c-17 0
-47 -7 -66 -15 -56 -23 -57 -19 -9 31 46 49 92 133 92 171 0 28 -32 49 -87 58
-61 10 -100 -2 -146 -44 l-40 -36 16 31 c33 65 32 103 -7 174 -19 36 -50 93
-68 128 -18 34 -35 62 -39 62 -4 0 -12 -15 -20 -32z m-35 -413 c20 -18 26 -33
24 -53 -3 -25 -5 -23 -29 26 -14 28 -25 52 -24 52 1 0 14 -11 29 -25z m120
-22 c-22 -52 -34 -63 -34 -30 0 25 25 64 42 66 4 1 0 -16 -8 -36z m-94 -215
l0 -53 -19 31 c-10 17 -31 40 -46 52 l-28 22 47 0 46 0 0 -52z m125 30 c-15
-12 -36 -35 -46 -52 l-19 -31 0 53 0 52 46 0 47 0 -28 -22z m-11 -737 c12 -19
-34 -44 -80 -43 -48 1 -99 26 -89 42 8 12 162 13 169 1z m141 -62 c14 -22 -3
-18 -26 7 -23 25 -23 26 -2 15 12 -6 25 -16 28 -22z m-430 1 c-10 -11 -20 -18
-23 -15 -7 6 18 35 31 35 5 0 2 -9 -8 -20z m78 -35 c-17 -35 -36 -45 -49 -24
-7 12 45 71 57 63 5 -2 1 -20 -8 -39z m303 -24 c-12 -19 -30 -12 -49 20 -25
44 -10 57 25 21 17 -16 27 -35 24 -41z m-196 -17 c0 -39 -6 -44 -43 -37 -36 7
-44 26 -24 57 12 17 22 22 41 19 22 -5 26 -11 26 -39z m118 -12 c-3 -16 -55
-35 -70 -26 -4 3 -8 20 -8 39 0 27 4 34 23 37 25 5 59 -27 55 -50z m-374 -22
c-20 -43 -25 -45 -55 -30 -26 14 -24 23 13 65 28 32 33 35 46 21 14 -14 14
-19 -4 -56z m618 6 c8 -15 7 -22 -8 -33 -28 -20 -38 -16 -58 27 -16 33 -17 42
-6 55 12 14 16 13 37 -7 14 -13 29 -32 35 -42z m-514 -32 c2 -1 0 -13 -4 -28
-6 -27 -35 -35 -64 -16 -12 8 -12 14 3 46 18 36 18 36 40 18 12 -10 23 -19 25
-20z m412 -5 c15 -35 4 -49 -36 -49 -32 0 -39 48 -10 71 25 21 30 19 46 -22z
m-277 -35 c12 -4 17 -13 15 -27 -3 -20 -8 -22 -53 -19 -58 4 -70 12 -60 42 6
19 12 21 43 15 21 -3 45 -8 55 -11z m172 -5 c10 -29 -2 -37 -60 -41 -45 -3
-50 -1 -53 19 -2 17 3 24 20 27 87 19 86 19 93 -5z m-484 -15 c24 -12 30 -20
25 -37 -3 -12 -6 -39 -6 -59 l0 -38 -45 0 c-45 0 -45 0 -45 35 0 32 26 115 37
115 2 0 18 -7 34 -16z m753 -24 c9 -22 16 -56 16 -75 0 -34 -1 -35 -40 -35
-44 0 -46 2 -54 72 -5 44 -4 49 22 62 38 21 38 21 56 -24z m-118 -68 l7 -42
-47 0 -46 0 0 40 c0 36 4 41 33 53 38 16 43 11 53 -51z m-511 48 c23 -9 26
-15 23 -47 -3 -37 -4 -38 -46 -41 l-44 -3 7 43 c11 64 13 66 60 48z m198 -37
c4 -2 7 -15 7 -29 0 -23 -2 -24 -70 -24 -73 0 -76 2 -64 48 6 22 10 23 63 16
31 -3 59 -8 64 -11z m181 -5 c12 -46 9 -48 -64 -48 l-70 0 0 29 c0 27 4 30 38
34 85 9 89 8 96 -15z m-354 -145 c0 -28 -4 -34 -32 -41 -38 -10 -43 -5 -53 50
l-7 37 39 3 c44 3 53 -5 53 -49z m173 48 c12 -2 8 -51 -5 -55 -7 -3 -36 -7
-65 -10 -51 -5 -52 -4 -58 24 -4 16 -4 33 -2 37 4 6 87 9 130 4z m179 -32 c-1
-18 -4 -34 -5 -36 -2 -1 -31 2 -65 8 -55 10 -62 14 -62 34 0 21 6 24 43 27 87
6 92 4 89 -33z m-482 -6 c0 -21 3 -48 6 -60 5 -17 -1 -25 -26 -38 -18 -9 -33
-15 -35 -13 -12 13 -35 87 -35 114 0 34 1 34 45 34 l45 0 0 -37z m620 15 c-1
-13 -6 -35 -13 -49 -11 -23 -15 -25 -44 -17 -26 7 -33 14 -33 32 0 45 10 56
51 56 34 0 39 -3 39 -22z m130 -12 c0 -26 -22 -100 -34 -114 -2 -1 -17 5 -35
14 -29 15 -32 20 -27 46 3 17 6 43 6 59 0 28 2 29 45 29 44 0 45 0 45 -34z
m-440 -89 c0 -20 -8 -25 -52 -36 -41 -9 -53 -9 -60 1 -16 26 -3 43 37 49 72
11 75 11 75 -14z m153 6 c9 -6 9 -25 -1 -41 -7 -10 -19 -10 -60 -1 -45 11 -52
16 -52 37 0 23 2 24 53 17 28 -4 55 -9 60 -12z m-309 -44 c4 -24 2 -35 -11
-45 -26 -19 -31 -17 -48 16 -19 38 -19 39 8 50 37 15 44 11 51 -21z m419 11
c9 -8 -19 -70 -31 -70 -24 1 -42 29 -36 59 6 27 9 30 33 25 14 -4 30 -10 34
-14z m-520 -65 c30 -72 -2 -91 -49 -29 l-28 36 25 19 c13 10 26 19 29 19 3 0
13 -20 23 -45z m627 5 c0 -5 -12 -22 -26 -39 -48 -57 -79 -30 -44 38 20 41 21
41 45 25 14 -9 25 -20 25 -24z m-372 -37 c-2 -30 -8 -39 -25 -41 -16 -2 -26 5
-37 27 -15 28 -15 31 2 40 9 6 27 11 40 11 21 0 23 -4 20 -37z m119 23 c2 -2
-3 -18 -12 -36 -12 -23 -22 -30 -38 -28 -18 2 -23 11 -25 42 l-3 39 37 -6 c20
-3 39 -8 41 -11z m-224 -61 c21 -43 21 -45 3 -45 -23 0 -58 54 -44 68 18 18
23 15 41 -23z m297 20 c11 -13 9 -20 -10 -40 -21 -22 -50 -34 -50 -20 0 11 34
75 41 75 3 0 12 -7 19 -15z m-365 -65 c10 -11 15 -20 11 -20 -14 0 -46 21 -46
30 0 16 16 11 35 -10z m425 10 c0 -9 -32 -30 -46 -30 -4 0 1 9 11 20 19 21 35
26 35 10z m-161 -47 c24 -15 24 -17 6 -24 -25 -10 -124 -10 -148 0 -18 6 -18
7 0 23 35 31 95 32 142 1z"></path>
<path class="node" id="node2" d="M1144 1796 c-3 -7 -4 -42 -2 -77 l3 -64 55 -3 c87 -5 87 -32 2 -73
-177 -85 -306 -234 -373 -434 -20 -60 -24 -89 -23 -200 0 -113 4 -140 27 -210
76 -229 256 -400 488 -464 103 -29 255 -29 358 0 120 33 224 93 310 179 87 86
140 171 178 285 23 70 27 97 27 210 1 111 -3 140 -23 200 -23 67 -63 155 -82
179 -4 6 -28 36 -52 66 -53 68 -134 134 -218 179 -111 58 -115 73 -23 81 l59
5 0 75 0 75 -148 3 -148 3 3 -150 c3 -142 4 -151 27 -175 13 -14 49 -35 80
-46 136 -51 239 -146 302 -278 74 -158 57 -359 -43 -509 -65 -96 -196 -186
-308 -212 -58 -13 -182 -13 -240 0 -162 37 -306 167 -370 334 -33 85 -34 253
-2 338 55 151 167 267 311 322 38 14 79 37 92 51 23 24 24 33 27 175 l3 149
-146 0 c-113 0 -147 -3 -151 -14z"></path>
</g>
<g transform="translate(0.000000,300.000000) scale(0.100000,-0.100000)" fill="#B94549" stroke="none">





<path class="node" id="node8" d="M1415 1360 c-10 -16 41 -41 89 -42 46 -1 92 24 80 43 -7 12 -161 11
-169 -1z"></path>
<path class="node" id="node9" d="M1699 1306 c14 -14 26 -24 29 -22 7 8 -8 25 -31 37 -21 11 -21 10 2
-15z"></path>
<path class="node" id="node10" d="M1280 1305 c-20 -24 -6 -28 15 -5 10 11 13 20 8 20 -6 0 -16 -7 -23
-15z"></path>
<path class="node" id="node11" d="M1345 1280 c-26 -27 -27 -50 -1 -50 15 0 49 67 37 74 -4 3 -20 -8
-36 -24z"></path>
<path class="node" id="node12" d="M1616 1302 c-8 -13 25 -72 41 -72 26 0 24 24 -5 52 -17 17 -32 26
-36 20z"></path>
<path class="node" id="node13" d="M1413 1244 c-20 -31 -12 -50 24 -57 37 -7 43 -2 43 37 0 28 -4 34
-26 39 -19 3 -29 -2 -41 -19z"></path>
<path class="node" id="node14" d="M1543 1262 c-19 -3 -23 -10 -23 -37 0 -19 4 -36 8 -39 15 -9 67 10
70 26 4 23 -30 55 -55 50z"></path>
<path class="node" id="node15" d="M1182 1225 c-37 -42 -39 -51 -13 -65 30 -15 35 -13 55 30 18 37 18
42 4 56 -13 14 -18 11 -46 -21z"></path>
<path class="node" id="node16" d="M1770 1245 c-11 -13 -10 -22 6 -55 20 -43 30 -47 58 -27 21 16 14 37
-27 75 -21 20 -25 21 -37 7z"></path>
<path class="node" id="node17" d="M1263 1166 c-15 -32 -15 -38 -3 -46 29 -19 58 -11 64 16 4 15 6 27 4
28 -2 1 -13 10 -25 20 -22 18 -22 18 -40 -18z"></path>
<path class="node" id="node18" d="M1694 1181 c-29 -23 -22 -71 10 -71 40 0 51 14 36 49 -16 41 -21 43
-46 22z"></path>
<path class="node" id="node19" d="M1365 1120 c-10 -30 2 -38 60 -42 45 -3 50 -1 53 19 3 23 -4 27 -70
38 -31 6 -37 4 -43 -15z"></path>
<path class="node" id="node20" d="M1585 1133 c-11 -2 -30 -6 -43 -9 -17 -3 -22 -10 -20 -27 3 -20 8
-22 53 -19 58 4 70 12 60 41 -6 21 -12 23 -50 14z"></path>
<path class="node" id="node21" d="M1096 1080 c-9 -22 -16 -56 -16 -75 0 -35 0 -35 45 -35 l45 0 0 38
c0 20 3 47 6 59 5 17 -1 25 -25 37 -16 9 -32 16 -34 16 -3 0 -12 -18 -21 -40z"></path>
<path class="node" id="node22" d="M1848 1104 c-26 -13 -27 -18 -22 -62 8 -70 10 -72 54 -72 39 0 40 1
40 35 0 35 -27 115 -39 115 -3 -1 -18 -7 -33 -16z"></path>
<path class="node" id="node23" d="M1733 1063 c-29 -12 -33 -17 -33 -53 l0 -40 46 0 47 0 -7 42 c-10 62
-15 67 -53 51z"></path>
<path class="node" id="node24" d="M1227 1063 c-3 -5 -8 -27 -12 -51 l-7 -43 44 3 c42 3 43 4 46 41 3
32 0 38 -23 47 -31 12 -42 13 -48 3z"></path>
<path class="node" id="node25" d="M1346 1018 c-12 -46 -9 -48 64 -48 68 0 70 1 70 24 0 31 -2 32 -71
40 -53 7 -57 6 -63 -16z"></path>
<path class="node" id="node26" d="M1558 1033 c-34 -4 -38 -7 -38 -34 l0 -29 70 0 c73 0 76 2 64 48 -7
23 -11 24 -96 15z"></path>
<path class="node" id="node27" d="M1247 922 l-39 -3 7 -37 c10 -55 15 -60 53 -50 28 7 32 13 32 41 0
44 -9 52 -53 49z"></path>
<path class="node" id="node28" d="M1343 917 c-2 -4 -2 -21 2 -37 6 -28 7 -29 58 -24 29 3 58 7 65 10
13 4 17 53 5 55 -43 5 -126 2 -130 -4z"></path>
<path class="node" id="node29" d="M1563 922 c-37 -3 -43 -6 -43 -27 0 -20 7 -24 62 -34 34 -6 63 -9 65
-8 1 2 4 18 5 36 3 37 -2 39 -89 33z"></path>
<path class="node" id="node30" d="M1080 886 c0 -27 23 -101 35 -114 2 -2 17 4 35 13 25 13 31 21 26 38
-3 12 -6 39 -6 60 l0 37 -45 0 c-44 0 -45 0 -45 -34z"></path>
<path class="node" id="node31" d="M1706 904 c-15 -40 -7 -63 27 -72 29 -8 33 -6 44 17 7 14 12 36 13
49 0 19 -5 22 -39 22 -26 0 -41 -5 -45 -16z"></path>
<path class="node" id="node32" d="M1830 891 c0 -16 -3 -42 -6 -59 -5 -26 -2 -31 27 -46 18 -9 33 -15
35 -14 12 14 34 88 34 114 0 34 -1 34 -45 34 -43 0 -45 -1 -45 -29z"></path>
<path class="node" id="node33" d="M1405 811 c-40 -6 -53 -23 -37 -49 7 -10 19 -10 60 -1 44 11 52 16
52 36 0 25 -3 25 -75 14z"></path>
<path class="node" id="node34" d="M1520 798 c0 -21 7 -26 52 -37 53 -12 67 -6 68 26 0 17 -8 20 -67 28
-51 7 -53 6 -53 -17z"></path>
<path class="node" id="node35" d="M1273 780 c-27 -11 -27 -12 -8 -50 17 -33 22 -35 48 -16 13 10 15 21
11 45 -7 32 -14 36 -51 21z"></path>
<path class="node" id="node36" d="M1676 759 c-4 -24 -2 -35 11 -45 26 -19 31 -18 49 17 17 34 13 43
-27 53 -24 5 -27 2 -33 -25z"></path>
<path class="node" id="node37" d="M1171 731 l-25 -19 28 -36 c27 -36 49 -45 61 -26 7 11 -25 100 -35
100 -3 0 -16 -9 -29 -19z"></path>
<path class="node" id="node38" d="M1780 709 c-35 -68 -4 -95 44 -38 32 38 32 43 1 63 -24 16 -25 16
-45 -25z"></path>
<path class="node" id="node39" d="M1418 699 c-17 -9 -17 -12 -2 -40 11 -22 21 -29 37 -27 17 2 23 11
25 41 3 33 1 37 -20 37 -13 0 -31 -5 -40 -11z"></path>
<path class="node" id="node40" d="M1522 674 c2 -31 7 -40 25 -42 16 -2 26 5 38 28 9 18 14 34 12 36 -2
3 -21 8 -41 11 l-37 6 3 -39z"></path>
<path class="node" id="node41" d="M1332 658 c-14 -14 21 -68 44 -68 18 0 18 2 -3 45 -18 38 -23 41 -41
23z"></path>
<path class="node" id="node42" d="M1627 635 c-20 -43 -21 -45 -4 -45 8 0 24 11 37 25 19 20 21 27 10
40 -18 22 -24 19 -43 -20z"></path>
<path class="node" id="node43" d="M1270 600 c0 -9 32 -30 46 -30 4 0 -1 9 -11 20 -19 21 -35 26 -35 10z"></path>
<path class="node" id="node44" d="M1695 590 c-10 -11 -15 -20 -11 -20 14 0 46 21 46 30 0 16 -16 11
-35 -10z"></path>
<path class="node" id="node45" d="M1465 573 c-11 -3 -28 -12 -38 -21 -18 -16 -18 -17 0 -23 24 -10 123
-10 148 0 18 7 18 9 -6 24 -29 19 -75 28 -104 20z"></path>
</g>
</svg>