<!--?xml version="1.0" standalone="no"?-->

<svg version="1.0" xmlns="http://www.w3.org/2000/svg" width="300.000000pt" height="118.000000pt" viewBox="0 0 300.000000 118.000000" preserveAspectRatio="xMidYMid meet">
<g transform="translate(0.000000,118.000000) scale(0.100000,-0.100000)" fill="#0F0F0F" stroke="none">
<path class="node" id="node1" d="M925 1109 c-22 -4 -112 -27 -201 -50 l-161 -42 -28 -51 c-16 -28 -33
-54 -39 -58 -6 -4 -37 -8 -69 -8 l-59 0 -154 -147 c-85 -80 -154 -151 -154
-157 0 -6 69 -80 153 -164 l152 -152 66 0 66 0 27 -51 c16 -28 38 -54 49 -59
39 -17 409 -112 414 -107 7 8 112 390 113 411 0 10 -14 42 -30 71 l-31 53 31
48 c16 26 30 57 30 67 0 11 -23 103 -51 206 -45 165 -60 203 -79 200 -3 -1
-23 -5 -45 -10z m-106 -161 c-7 -13 -48 -85 -91 -160 l-80 -138 -191 0 -192 0
121 121 120 120 145 39 c178 47 184 48 168 18z m161 -202 l42 -148 -42 -152
c-23 -83 -46 -157 -50 -165 -7 -12 -43 44 -174 271 -15 25 -23 49 -18 52 5 3
33 47 63 98 110 192 121 210 129 201 5 -4 27 -75 50 -157z m-238 -365 c49 -84
87 -156 84 -158 -3 -3 -76 12 -163 33 l-158 38 -117 115 c-65 63 -118 120
-118 125 0 8 61 9 191 6 l191 -5 90 -154z"></path>
<path class="node" id="node2" d="M2077 873 c-4 -3 -7 -30 -7 -60 l0 -53 55 0 55 0 0 60 0 60 -48 0
c-27 0 -52 -3 -55 -7z"></path>
<path class="node" id="node3" d="M2308 803 c-27 -4 -28 -7 -28 -59 l0 -54 -35 0 c-35 0 -35 0 -35 -44
0 -43 1 -44 33 -42 l32 1 5 -153 c5 -153 5 -154 33 -178 37 -31 70 -39 126
-28 48 9 58 24 47 68 -4 18 -11 21 -38 19 -58 -6 -63 3 -66 138 -3 83 0 124 8
129 6 4 29 7 52 8 23 1 42 3 44 4 1 2 5 20 9 40 l7 37 -58 3 -59 3 -3 58 c-3
62 -2 61 -74 50z"></path>
<path class="node" id="node4" d="M1835 681 c-33 -9 -65 -20 -72 -24 -7 -4 -14 1 -18 13 -5 16 -15 20
-46 20 l-39 0 0 -220 0 -220 50 0 49 0 3 157 3 157 52 18 c39 13 59 15 78 8
l25 -10 0 -165 0 -166 53 3 52 3 3 168 c3 203 -5 243 -53 263 -43 18 -65 17
-140 -5z"></path>
<path class="node" id="node5" d="M1230 496 c0 -188 1 -196 23 -221 33 -39 86 -43 175 -13 71 24 73 24
83 6 8 -15 19 -18 47 -16 l37 3 0 215 0 215 -52 3 -53 3 0 -155 0 -156 -36
-15 c-44 -18 -96 -19 -112 -3 -8 8 -12 60 -12 170 l0 158 -50 0 -50 0 0 -194z"></path>
<path class="node" id="node6" d="M2075 678 c-3 -8 -4 -106 -3 -218 l3 -205 53 -3 52 -3 -2 218 -3 218
-48 3 c-32 2 -49 -1 -52 -10z"></path>
<path class="node" id="node7" d="M2530 683 c0 -5 31 -102 68 -218 58 -180 71 -210 89 -213 21 -3 21
-4 -7 -88 l-29 -84 52 0 52 0 94 293 c52 160 96 298 99 305 3 9 -11 12 -51 12
l-55 0 -25 -82 c-14 -46 -36 -118 -48 -160 -12 -43 -25 -78 -29 -78 -3 0 -26
64 -50 143 -57 187 -51 177 -110 177 -28 0 -50 -3 -50 -7z"></path>
</g>
<g transform="translate(0.000000,118.000000) scale(0.100000,-0.100000)" fill="#A0A0A0" stroke="none">

<path class="node" id="node9" d="M651 930 l-145 -39 -120 -120 -121 -121 192 0 191 0 80 138 c110 191
106 182 85 181 -10 -1 -83 -18 -162 -39z"></path>
<path class="node" id="node10" d="M888 853 c-19 -32 -58 -100 -87 -151 -30 -51 -58 -95 -63 -98 -5 -3
3 -27 18 -52 131 -227 167 -283 174 -271 4 8 27 82 50 165 l42 152 -42 148
c-23 82 -45 153 -50 157 -4 5 -23 -17 -42 -50z"></path>
<path class="node" id="node11" d="M270 534 c0 -5 53 -62 118 -125 l117 -115 158 -38 c87 -21 160 -36
163 -33 3 2 -35 74 -84 158 l-90 154 -191 5 c-130 3 -191 2 -191 -6z"></path>
</g>
</svg>