<!--?xml version="1.0" standalone="no"?-->

<svg version="1.0" xmlns="http://www.w3.org/2000/svg" width="300.000000pt" height="300.000000pt" viewBox="0 0 300.000000 300.000000" preserveAspectRatio="xMidYMid meet">
<g transform="translate(0.000000,300.000000) scale(0.100000,-0.100000)" fill="#050505" stroke="none">
<path class="node" id="node1" d="M1298 2068 l-3 -113 -52 -3 -53 -3 0 -114 0 -114 53 -3 52 -3 3 -417
2 -418 175 0 175 0 0 420 0 420 55 0 55 0 0 114 0 115 -52 3 -53 3 -3 113 -3
112 -174 0 -174 0 -3 -112z"></path>
<path class="node" id="node2" d="M250 1532 c0 -469 2 -486 67 -561 22 -27 58 -53 90 -67 51 -23 64
-24 283 -24 220 0 232 1 282 24 57 25 90 57 129 121 l24 40 3 443 3 442 -176
0 -175 0 0 -389 0 -390 -24 -28 c-31 -36 -95 -39 -128 -5 -23 23 -23 23 -26
417 l-3 395 -174 0 -175 0 0 -418z"></path>
<path class="node" id="node3" d="M1830 1835 l0 -115 191 0 c163 0 190 -2 186 -15 -4 -8 -96 -149 -207
-315 l-200 -300 0 -105 0 -105 409 0 410 0 3 23 c2 12 2 66 0 120 l-3 97 -190
0 c-114 0 -189 4 -189 10 0 5 86 138 190 296 l190 286 0 119 0 119 -395 0
-395 0 0 -115z"></path>
</g>
<g transform="translate(0.000000,300.000000) scale(0.100000,-0.100000)" fill="#9D9D9D" stroke="none">

</g>
</svg>