<!--?xml version="1.0" standalone="no"?--><svg version="1.0" xmlns="http://www.w3.org/2000/svg" width="300.000000pt" height="300.000000pt" viewBox="0 0 300.000000 300.000000" preserveAspectRatio="xMidYMid meet">
<metadata>
  <rdf:rdf xmlns:rdf="http://www.w3.org/1999/02/22-rdf-syntax-ns#" xmlns:rdfs="http://www.w3.org/2000/01/rdf-schema#" xmlns:dc="http://purl.org/dc/elements/1.1/">
    <rdf:description dc:title="viadeo icon vector" dc:publisher="Hiox" dc:date="2015-03-14" dc:format="image/svg+xml" dc:language="en">
      <dc:creator>
        <rdf:bag>
          <rdf:li>svgimages.com</rdf:li>
        </rdf:bag>
      </dc:creator>
    </rdf:description>
  </rdf:rdf>
</metadata>
<g transform="translate(0.000000,300.000000) scale(0.100000,-0.100000)" fill="#0B0B0B" stroke="none">
<path d="M1458 2398 c18 -24 132 -254 177 -358 24 -58 44 -99 45 -92 1 31 -46
183 -77 251 -34 75 -128 211 -146 211 -6 0 -5 -5 1 -12z" id="node1" class="node"></path>
<path d="M2174 2332 c-42 -65 -115 -118 -199 -143 -187 -57 -255 -128 -255
-263 0 -52 22 -146 34 -146 22 0 127 40 176 68 74 41 209 170 229 220 7 17 17
32 22 32 32 0 -24 -95 -100 -171 -63 -62 -142 -122 -240 -181 l-44 -26 64 -41
c58 -37 70 -41 130 -41 84 0 131 23 194 92 63 69 94 143 108 250 17 133 -4
250 -65 376 -6 12 -14 22 -17 21 -3 0 -20 -21 -37 -47z" id="node2" class="node"></path>
<path d="M1215 1895 c-186 -35 -356 -171 -450 -361 -58 -117 -78 -275 -55
-424 31 -198 174 -392 354 -480 160 -78 408 -80 572 -5 157 72 293 235 350
420 27 86 26 296 0 383 -15 48 -23 62 -35 58 -68 -21 -130 -53 -126 -63 2 -7
12 -52 21 -101 16 -81 16 -94 1 -174 -23 -122 -66 -207 -146 -288 -88 -88
-199 -140 -300 -140 l-46 0 35 27 c105 79 219 219 285 352 90 179 111 404 58
623 l-28 113 -6 -145 c-7 -146 -32 -360 -49 -415 -57 -194 -98 -293 -144 -355
-52 -69 -137 -147 -190 -174 l-53 -27 -64 21 c-249 83 -393 350 -331 611 61
255 290 429 531 405 35 -4 78 -13 95 -20 l32 -13 24 73 c13 41 21 76 18 79 -3
3 -36 12 -74 20 -83 18 -185 18 -279 0z" id="node3" class="node"></path>
</g>
<g transform="translate(0.000000,300.000000) scale(0.100000,-0.100000)" fill="#A0A0A0" stroke="none">

</g>
</svg>