<!--?xml version="1.0" standalone="no"?-->

<svg version="1.0" xmlns="http://www.w3.org/2000/svg" width="300.000000pt" height="209.000000pt" viewBox="0 0 300.000000 209.000000" preserveAspectRatio="xMidYMid meet">
<g transform="translate(0.000000,209.000000) scale(0.100000,-0.100000)" fill="#282828" stroke="none">
<path class="node" id="node1" d="M206 1610 c-56 -17 -96 -76 -96 -142 0 -61 57 -108 130 -108 69 0 99
83 50 135 -26 27 -77 34 -98 13 -21 -21 -14 -57 13 -70 32 -14 43 -4 22 20
-24 26 -21 29 14 24 38 -6 46 -25 25 -57 -23 -35 -89 -36 -111 -1 -22 33 -5
98 33 124 31 22 90 33 113 21 9 -4 53 -99 99 -211 92 -225 108 -250 129 -195
5 12 18 43 29 67 19 42 58 137 103 255 10 28 28 63 40 78 26 35 11 58 -35 55
-41 -2 -49 -7 -37 -22 7 -9 -5 -52 -43 -147 -75 -193 -68 -187 -105 -88 -17
46 -35 91 -40 100 -11 19 -33 96 -36 122 -1 11 -8 22 -15 27 -17 11 -148 10
-184 0z"></path>
<path class="node" id="node2" d="M1863 1559 c-7 -7 -64 -10 -161 -7 l-149 3 9 -27 c10 -27 11 -27 69
-21 l59 6 0 -162 c0 -134 -3 -163 -15 -167 -25 -10 -17 -23 22 -33 57 -16 104
4 76 32 -3 4 -7 77 -8 162 -2 176 -4 173 81 160 l44 -6 -2 31 c-3 36 -10 44
-25 29z"></path>
<path class="node" id="node3" d="M885 1555 c-5 -2 -22 -6 -37 -9 -37 -8 -95 -60 -117 -105 -43 -86
-34 -165 26 -232 50 -55 81 -69 155 -69 90 0 160 41 194 113 59 128 4 262
-121 296 -39 11 -79 13 -100 6z m137 -103 c39 -38 42 -46 46 -105 4 -60 2 -66
-27 -100 -57 -64 -140 -73 -207 -22 -83 63 -86 193 -7 255 24 19 38 21 91 18
58 -4 66 -7 104 -46z"></path>
<path class="node" id="node4" d="M1190 1540 c0 -5 5 -10 10 -10 6 0 10 -65 10 -175 0 -110 -4 -175
-10 -175 -19 0 -10 -18 13 -25 50 -16 87 -17 93 -1 4 9 2 22 -2 29 -5 6 -9 39
-9 72 0 57 1 60 25 63 21 2 31 -7 60 -54 53 -86 101 -124 153 -124 51 0 81 18
71 43 -5 13 -14 16 -43 11 -35 -6 -40 -3 -80 42 -24 27 -50 62 -58 77 -13 26
-12 30 11 57 49 59 39 132 -24 165 -34 17 -220 22 -220 5z m180 -50 c24 -24
26 -77 3 -102 -9 -10 -30 -18 -50 -18 l-33 0 0 63 c0 35 3 67 7 70 13 14 54 6
73 -13z"></path>
<path class="node" id="node5" d="M1940 1540 c0 -5 5 -10 10 -10 6 0 10 -65 10 -175 0 -110 -4 -175
-10 -175 -23 0 -7 -19 24 -30 41 -13 187 -12 237 2 25 7 42 7 56 0 27 -15 40
-4 97 87 l47 74 45 -66 c24 -37 44 -71 44 -76 0 -26 71 -40 100 -21 13 9 12
13 -6 28 -29 23 -134 171 -134 188 0 14 83 128 101 139 5 4 9 15 9 26 0 15 -7
19 -35 19 -25 0 -35 -4 -35 -15 0 -16 -70 -115 -81 -115 -11 0 -55 73 -63 103
-6 25 -10 27 -61 27 -48 0 -74 -12 -45 -22 6 -2 37 -41 69 -87 l60 -84 -31
-46 c-44 -64 -98 -131 -107 -131 -4 0 -14 12 -20 28 l-13 27 -15 -22 c-14 -20
-24 -23 -85 -23 l-69 0 3 68 3 67 65 0 c69 0 85 8 68 35 -8 13 -23 15 -75 12
l-64 -4 3 68 3 69 54 3 c39 2 58 -1 72 -14 11 -9 21 -15 23 -13 8 8 9 35 2 52
-7 15 -24 17 -132 17 -76 0 -124 -4 -124 -10z"></path>
<path class="node" id="node6" d="M683 1062 c-22 -3 -33 -22 -13 -22 6 0 10 -75 10 -205 0 -130 -4
-205 -10 -205 -19 0 -10 -17 15 -28 33 -15 227 -16 294 -1 131 28 199 137 176
285 -5 39 -16 56 -58 99 -36 35 -66 55 -97 64 -41 11 -264 20 -317 13z m260
-53 c50 -14 113 -71 128 -116 26 -81 -15 -194 -83 -229 -41 -21 -167 -31 -196
-15 -21 11 -22 18 -22 176 0 90 3 170 6 179 7 19 106 22 167 5z"></path>
<path class="node" id="node7" d="M1251 1000 c-48 -4 -52 -7 -38 -19 24 -19 25 -325 2 -351 -14 -16
-12 -18 27 -28 51 -12 100 -14 186 -6 60 5 62 7 62 34 0 37 -26 60 -35 31 -6
-19 -15 -21 -76 -21 l-70 0 3 68 3 67 68 -1 c55 0 67 2 67 15 0 30 -15 37 -80
36 l-65 0 0 60 0 60 59 8 c47 7 61 5 75 -7 36 -33 57 -3 27 37 -15 19 -111 27
-215 17z"></path>
<path class="node" id="node8" d="M1591 984 c-53 -45 -59 -117 -13 -168 9 -10 50 -34 90 -53 57 -27 72
-38 72 -56 0 -28 -9 -41 -37 -56 -48 -25 -133 -3 -133 35 0 9 -5 25 -11 36
-16 30 -29 6 -29 -54 0 -69 24 -82 130 -73 72 6 82 10 105 37 31 37 33 97 5
143 -15 24 -39 41 -88 61 -37 16 -70 33 -74 39 -15 21 -7 53 17 69 31 21 70
20 106 -1 37 -22 46 -12 23 26 -29 50 -113 58 -163 15z"></path>
<path class="node" id="node9" d="M1881 1001 c-39 -5 -42 -8 -28 -20 15 -12 17 -37 17 -178 0 -136 -3
-165 -15 -169 -8 -4 -15 -10 -15 -14 0 -10 85 -33 101 -28 9 3 12 45 10 175
-2 108 1 179 8 192 9 15 7 23 -5 35 -8 9 -18 15 -22 14 -4 0 -27 -4 -51 -7z"></path>
<path class="node" id="node10" d="M2190 1001 c-129 -40 -191 -156 -141 -266 26 -57 90 -111 153 -129
44 -13 128 -16 205 -7 8 1 10 16 6 49 -3 27 -1 57 4 68 18 33 5 44 -53 44 -50
0 -68 -10 -44 -25 6 -3 10 -26 10 -51 l0 -44 -55 0 c-63 0 -111 17 -140 50
-16 18 -20 36 -20 94 0 61 4 77 28 113 52 77 146 89 229 31 25 -18 35 -1 17
30 -23 42 -128 64 -199 43z"></path>
<path class="node" id="node11" d="M2823 1003 c-29 -4 -48 -23 -23 -23 6 0 10 -51 10 -132 l0 -132 -43
45 c-24 24 -83 88 -132 142 -86 94 -89 97 -132 97 -23 0 -43 -3 -43 -6 0 -3
11 -15 25 -26 25 -19 25 -21 25 -174 0 -128 -3 -156 -15 -160 -8 -4 -15 -9
-15 -13 0 -12 59 -29 80 -24 19 5 19 8 7 27 -16 24 -20 123 -9 208 l7 58 135
-144 c74 -79 140 -145 147 -145 9 -1 13 46 16 177 2 97 6 188 8 201 4 27 -1
29 -48 24z"></path>
</g>
<g transform="translate(0.000000,209.000000) scale(0.100000,-0.100000)" fill="#FFFFFF" stroke="none">




</g>
</svg>