<!--?xml version="1.0" standalone="no"?-->

<svg version="1.0" xmlns="http://www.w3.org/2000/svg" width="300.000000pt" height="170.000000pt" viewBox="0 0 300.000000 170.000000" preserveAspectRatio="xMidYMid meet">
<g transform="translate(0.000000,170.000000) scale(0.100000,-0.100000)" fill="#2B292A" stroke="none">
<path class="node" id="node1" d="M680 1380 c-14 -10 -23 -20 -20 -22 3 -2 18 -10 34 -18 45 -23 59
-70 53 -170 -6 -98 -31 -175 -89 -267 -56 -89 -149 -170 -182 -157 -29 11 -17
62 41 172 90 172 123 236 123 245 0 4 -27 7 -59 7 l-59 0 -88 -165 c-69 -132
-97 -175 -137 -210 -49 -45 -87 -58 -87 -30 0 37 99 249 166 356 13 20 20 40
17 43 -4 3 -30 6 -58 6 -58 0 -73 -12 -119 -91 -38 -66 -102 -125 -163 -151
-42 -17 -53 -26 -53 -45 0 -21 4 -23 50 -23 28 0 50 -2 50 -5 0 -2 -9 -27 -20
-55 -65 -166 41 -223 201 -109 l29 21 11 -31 c45 -130 308 -4 459 219 69 102
103 198 104 300 1 72 -3 91 -23 126 -12 22 -36 48 -51 57 -38 23 -99 21 -130
-3z"></path>
<path class="node" id="node2" d="M2943 969 c-46 -29 -68 -91 -53 -149 20 -78 23 -110 10 -125 -29 -34
-80 3 -80 58 0 21 8 41 20 52 34 30 26 48 -17 40 -44 -8 -61 -19 -97 -62 -46
-54 -47 -38 -6 49 22 45 40 91 40 103 0 50 -49 58 -123 21 l-48 -25 3 22 c3
18 -3 23 -31 25 -56 6 -75 -4 -98 -50 -11 -24 -33 -58 -48 -76 -35 -42 -115
-97 -115 -80 0 7 21 51 46 97 24 47 43 90 40 97 -4 9 -31 13 -98 12 -118 0
-148 -13 -258 -112 -108 -97 -117 -99 -75 -16 29 58 33 117 8 127 -22 9 -99
-13 -133 -37 -36 -26 -40 -25 -40 4 0 42 -50 48 -122 12 -47 -23 -47 -23 -45
-2 2 18 -4 21 -44 24 -55 4 -59 -1 -129 -138 -23 -47 -54 -104 -68 -128 -30
-52 -22 -65 39 -60 l44 3 52 95 c50 90 96 140 130 140 8 0 -8 -43 -43 -111
-34 -69 -52 -115 -46 -121 5 -5 30 -8 56 -6 l47 3 53 99 c41 76 61 103 89 119
20 11 39 18 42 15 3 -3 -15 -48 -41 -101 -47 -98 -51 -130 -15 -140 26 -6 68
14 128 62 29 22 55 41 58 41 3 0 5 -20 5 -45 0 -34 5 -47 19 -55 33 -17 80
-11 119 15 l36 25 21 -27 c18 -21 27 -25 50 -19 15 4 42 17 59 30 54 40 57 41
54 9 -3 -27 -2 -28 47 -28 l49 0 48 90 c44 85 96 145 125 145 20 0 16 -14 -27
-100 -45 -89 -50 -124 -20 -140 23 -13 72 5 124 45 l35 26 15 -29 c32 -61 135
-80 216 -39 l45 22 3 89 c2 66 -1 94 -13 112 -19 30 -19 63 0 70 18 7 20 44 3
44 -7 0 -27 -10 -45 -21z m-714 -63 c10 -11 7 -25 -13 -64 -24 -47 -86 -112
-107 -112 -39 0 -4 91 59 154 40 40 45 42 61 22z"></path>
<path class="node" id="node3" d="M902 949 c-98 -49 -162 -136 -162 -222 0 -110 122 -119 263 -19 43
31 47 32 47 13 0 -35 23 -71 49 -78 31 -8 61 -5 79 9 23 20 13 -12 -27 -80
-72 -122 -139 -182 -204 -182 -34 0 -59 26 -55 58 4 36 -14 37 -35 3 -27 -46
-22 -97 12 -132 25 -24 38 -29 78 -29 121 1 219 92 338 315 26 50 66 124 88
165 22 41 52 98 68 126 42 74 39 84 -19 84 -26 0 -53 -5 -59 -11 -8 -8 -17 -8
-31 0 -58 31 -123 1 -227 -103 -82 -83 -166 -136 -211 -136 -42 0 -33 16 19
34 104 37 167 101 167 170 0 55 -85 62 -178 15z m68 -54 c0 -15 -26 -38 -66
-58 -39 -20 -48 -12 -28 23 29 48 94 73 94 35z m350 -3 c0 -4 -15 -32 -32 -62
-32 -53 -92 -105 -109 -94 -28 17 17 114 73 158 24 19 36 22 50 15 10 -5 18
-13 18 -17z"></path>
</g>
<g transform="translate(0.000000,170.000000) scale(0.100000,-0.100000)" fill="#FFFFFF" stroke="none">

<path class="node" id="node5" d="M918 902 c-28 -16 -61 -66 -51 -75 6 -7 60 18 86 41 37 33 9 61 -35
34z"></path>



</g>
</svg>