<!--?xml version="1.0" standalone="no"?-->

<svg version="1.0" xmlns="http://www.w3.org/2000/svg" width="300.000000pt" height="300.000000pt" viewBox="0 0 300.000000 300.000000" preserveAspectRatio="xMidYMid meet">
<g transform="translate(0.000000,300.000000) scale(0.100000,-0.100000)" fill="#030303" stroke="none">




</g>
<g transform="translate(0.000000,300.000000) scale(0.100000,-0.100000)" fill="#ED9C3C" stroke="none">

<path class="node" id="node6" d="M1358 2699 c-70 -36 -89 -123 -43 -191 14 -20 25 -39 25 -42 0 -4
-37 -6 -82 -6 -81 0 -84 1 -121 35 -59 54 -117 62 -186 26 -43 -24 -67 -122
-41 -171 7 -14 5 -34 -7 -74 l-18 -56 -80 0 c-44 0 -97 -5 -117 -10 -44 -13
-93 -66 -107 -117 -7 -24 -11 -225 -11 -556 l0 -518 -25 -37 c-45 -66 -22
-158 48 -186 49 -20 207 -15 241 8 63 40 70 135 15 192 -26 27 -30 38 -27 75
l3 44 128 3 c70 1 127 -1 127 -5 0 -5 -15 -31 -32 -58 -87 -133 -138 -224
-148 -267 -25 -98 26 -200 119 -240 34 -14 79 -21 178 -25 73 -3 133 -8 133
-11 0 -3 -7 -13 -15 -22 -8 -9 -17 -36 -20 -61 -7 -50 15 -96 59 -124 36 -24
189 -28 235 -7 66 31 92 123 52 188 l-19 32 101 4 c92 4 132 -2 147 -22 17
-22 60 -40 98 -40 54 0 97 22 117 60 17 34 20 102 4 131 -8 15 -6 31 7 64 15
40 15 66 -2 108 -5 13 14 16 134 19 139 3 141 3 178 33 77 63 74 35 74 628 l0
529 -22 40 c-13 22 -41 51 -64 64 -39 23 -49 24 -210 24 l-169 0 0 83 c0 74
-3 88 -27 124 -44 67 -98 87 -250 91 -71 3 -128 7 -128 9 0 3 10 19 23 36 32
46 31 126 -3 162 -38 41 -55 47 -149 50 -70 3 -93 0 -123 -16z m120 -30 c85 5
96 3 119 -23 32 -38 30 -87 -5 -128 -16 -19 -29 -47 -30 -65 l-2 -33 139 0
c115 0 147 -3 184 -19 51 -22 82 -57 98 -112 11 -36 6 -67 -26 -151 -6 -15 14
-17 204 -20 l211 -3 32 -33 33 -32 3 -533 c2 -501 1 -534 -16 -566 -37 -69
-49 -71 -400 -71 l-313 0 -38 -31 c-30 -23 -47 -30 -72 -27 -33 3 -34 2 -34
-32 l0 -35 134 -3 135 -3 50 50 c61 59 86 68 130 47 58 -27 73 -95 31 -144
l-24 -29 24 -33 c14 -19 25 -41 25 -49 0 -28 -39 -81 -67 -92 -37 -14 -64 -5
-109 36 l-38 35 -136 -6 c-74 -3 -141 -7 -147 -10 -22 -6 -15 -35 17 -71 38
-42 40 -90 7 -129 -18 -20 -33 -27 -58 -26 -19 0 -50 0 -69 0 -19 0 -46 0 -58
0 -13 0 -37 13 -53 28 -37 36 -39 81 -4 122 14 17 25 41 25 54 l0 25 -162 7
c-141 5 -166 9 -202 29 -84 46 -110 150 -58 239 42 74 163 270 184 301 l19 27
-185 0 -186 0 0 -85 c0 -68 3 -87 15 -92 9 -3 23 -19 31 -35 39 -75 -43 -157
-118 -117 -14 8 -23 8 -31 0 -21 -21 -67 -12 -98 18 -37 37 -38 79 -4 119 l25
30 0 541 0 541 22 34 c38 58 62 66 192 66 l116 0 -6 43 c-5 36 -2 48 20 73
l25 31 -25 34 c-29 39 -27 79 7 116 45 47 105 36 168 -31 23 -25 29 -26 138
-26 l113 0 0 36 c0 24 -8 46 -25 66 -59 70 -8 168 80 152 17 -3 36 -6 43 -5z
m371 -1846 c-23 -30 -32 -33 -103 -33 l-69 0 23 25 c21 22 32 25 93 25 65 0
69 -1 56 -17z"></path>
<path class="node" id="node7" d="M1398 2619 c-26 -14 -22 -52 7 -79 20 -19 25 -33 25 -72 l0 -48 45 0
45 0 0 48 c0 39 5 53 25 72 49 46 14 111 -41 75 -23 -15 -28 -15 -49 -1 -28
19 -34 19 -57 5z"></path>
<path class="node" id="node8" d="M1000 2440 c-26 -26 -25 -33 11 -74 l31 -35 -32 -45 c-35 -48 -34
-80 2 -92 15 -5 31 5 67 40 l47 46 350 0 c241 0 353 -3 361 -11 24 -24 -7 -85
-279 -544 -68 -114 -380 -626 -479 -785 -101 -163 -111 -192 -86 -252 31 -73
31 -73 485 -74 l402 0 33 -31 c44 -41 63 -47 87 -23 26 26 25 33 -11 75 l-31
35 31 42 c35 48 37 60 15 82 -25 26 -42 19 -96 -39 l-51 -55 -368 0 c-215 0
-378 4 -393 10 -15 5 -26 17 -26 28 0 10 27 60 59 112 33 52 76 122 96 155 20
33 55 92 80 130 24 39 68 111 98 160 29 50 119 198 199 330 187 310 314 539
328 593 9 37 8 49 -7 80 -34 71 -43 72 -437 72 l-349 0 -48 45 c-26 25 -53 45
-59 45 -5 0 -19 -9 -30 -20z"></path>
<path class="node" id="node9" d="M1430 1918 l0 -313 45 75 44 75 1 238 0 237 -45 0 -45 0 0 -312z"></path>
<path class="node" id="node10" d="M689 2111 l-24 -19 -3 -558 -2 -558 -26 -27 c-53 -55 -5 -102 58 -57
14 10 21 9 37 -6 28 -26 65 -18 69 15 2 19 -5 33 -27 52 l-31 26 0 115 0 116
223 0 224 0 26 38 27 37 -250 3 -250 2 0 30 0 30 250 0 250 0 0 -27 c0 -25 5
-20 40 35 l40 63 0 325 0 326 -29 29 -29 29 -275 0 c-256 0 -276 -1 -298 -19z
m535 -57 c14 -5 16 -43 16 -315 l0 -309 -250 0 -250 0 0 308 c0 170 3 312 7
315 8 9 456 9 477 1z"></path>
<path class="node" id="node11" d="M1569 2114 c-10 -12 -10 -19 -1 -32 27 -38 27 -46 0 -83 -18 -25 -3
-49 31 -49 30 0 56 26 89 89 17 32 15 41 -6 41 -10 0 -29 11 -42 25 -27 29
-52 32 -71 9z"></path>
<path class="node" id="node12" d="M1923 2071 c-10 -7 -43 -57 -43 -66 0 -3 99 -5 220 -5 l220 0 -2
-497 -3 -498 -257 -3 -258 -2 -2 392 c-1 216 -1 405 0 421 1 40 -9 33 -45 -29
l-33 -56 0 -359 c0 -317 -2 -360 -16 -366 -9 -3 -26 5 -44 22 -48 46 -109 14
-65 -35 16 -18 16 -21 -1 -48 -35 -60 9 -92 60 -43 l32 31 327 0 328 0 24 25
25 24 0 524 0 524 -26 24 c-25 24 -28 24 -229 25 -111 1 -207 -1 -212 -5z"></path>
<path class="node" id="node13" d="M1471 1316 l-41 -64 0 -251 0 -251 45 0 45 0 0 315 c0 173 -2 315 -4
315 -2 0 -22 -29 -45 -64z"></path>
<path class="node" id="node14" d="M1257 968 c-26 -44 -45 -83 -42 -86 3 -3 18 4 33 15 27 20 27 20 53
0 36 -26 69 -16 69 23 0 19 -8 33 -25 44 -19 12 -25 25 -25 51 0 19 -3 35 -7
35 -5 -1 -30 -37 -56 -82z"></path>
<path class="node" id="node15" d="M1468 562 c-36 -3 -38 -5 -38 -40 0 -25 -8 -44 -26 -63 -46 -48 -10
-109 44 -73 22 15 27 15 57 -2 28 -15 36 -16 49 -5 23 20 19 54 -9 81 -18 17
-25 34 -25 61 0 44 -2 45 -52 41z"></path>
</g>
</svg>