<!--?xml version="1.0" standalone="no"?-->

<svg version="1.0" xmlns="http://www.w3.org/2000/svg" width="300.000000pt" height="168.000000pt" viewBox="0 0 300.000000 168.000000" preserveAspectRatio="xMidYMid meet">
<g transform="translate(0.000000,168.000000) scale(0.100000,-0.100000)" fill="#1F1D1C" stroke="none">
<path class="node" id="node1" d="M132 1643 c35 -36 61 -99 52 -126 -3 -12 -17 -34 -31 -49 l-25 -26
43 11 c52 13 530 16 662 3 70 -6 86 -11 77 -21 -8 -10 -1 -12 37 -7 57 6 69
12 25 12 -18 0 -32 4 -32 10 0 24 227 131 370 175 l85 26 -70 -6 c-38 -3 -178
-14 -310 -25 -409 -33 -745 -22 -862 30 l-48 21 27 -28z m778 -63 c39 -39 14
-100 -41 -100 -34 0 -59 24 -59 56 0 29 33 64 60 64 11 0 29 -9 40 -20z"></path>
<path class="node" id="node2" d="M860 1535 c0 -8 9 -15 20 -15 11 0 20 7 20 15 0 8 -9 15 -20 15 -11
0 -20 -7 -20 -15z"></path>
<path class="node" id="node3" d="M1408 1653 c6 -2 18 -2 25 0 6 3 1 5 -13 5 -14 0 -19 -2 -12 -5z"></path>
<path class="node" id="node4" d="M805 1391 c-38 -15 -86 -37 -105 -49 l-35 -22 55 0 c52 1 58 4 109
50 30 28 53 50 50 50 -2 -1 -35 -13 -74 -29z"></path>
<path class="node" id="node5" d="M591 1250 c-24 -11 -41 -23 -38 -26 3 -3 36 -2 74 1 53 6 73 12 81
26 11 18 9 19 -30 19 -24 0 -63 -9 -87 -20z"></path>
<path class="node" id="node6" d="M1437 1234 c-4 -4 -7 -67 -7 -141 0 -126 1 -133 20 -133 11 0 20 7
20 16 0 14 2 14 22 0 31 -22 84 -20 107 3 41 41 34 148 -11 172 -20 11 -68 8
-100 -5 -14 -7 -17 0 -20 40 -3 44 -15 63 -31 48z m121 -120 c30 -21 31 -83 1
-110 -19 -17 -23 -17 -47 -3 -21 12 -28 23 -30 56 -2 33 1 44 20 57 28 20 28
20 56 0z"></path>
<path class="node" id="node7" d="M2240 1227 c-28 -14 -38 -54 -20 -87 10 -18 7 -25 -19 -49 -61 -57
-24 -131 66 -131 28 0 58 7 71 16 21 15 25 15 41 0 23 -21 51 -21 51 0 0 9
-10 24 -21 33 -18 14 -20 21 -10 39 6 11 11 28 11 36 0 23 -27 20 -40 -4 -14
-26 -21 -25 -43 6 -18 25 -18 25 7 45 72 56 -9 139 -94 96z m64 -23 c29 -11
12 -64 -21 -64 -21 0 -36 39 -22 56 13 16 20 17 43 8z m-9 -151 c28 -34 28
-36 10 -49 -25 -18 -44 -18 -67 3 -22 20 -23 41 -1 65 21 23 23 23 58 -19z"></path>
<path class="node" id="node8" d="M558 1173 c-65 -4 -68 -5 -99 -44 l-32 -41 68 7 c38 4 80 11 94 15
27 7 74 72 49 68 -7 -1 -43 -3 -80 -5z"></path>
<path class="node" id="node9" d="M984 1149 c-11 -18 8 -28 58 -31 l47 -3 -61 -68 c-40 -45 -57 -72
-51 -78 5 -5 50 -9 99 -7 71 2 89 6 89 18 0 11 -15 16 -64 18 l-63 3 61 64
c64 67 71 79 45 89 -27 10 -152 7 -160 -5z"></path>
<path class="node" id="node10" d="M1225 1137 c-20 -16 -28 -35 -32 -69 -5 -42 -3 -50 25 -78 25 -24 39
-30 74 -30 46 0 88 22 88 46 0 18 -19 18 -44 -1 -39 -30 -96 -13 -96 27 0 16
9 18 70 18 l70 0 0 30 c0 72 -97 107 -155 57z m99 -26 c25 -28 12 -41 -40 -41
-36 0 -44 3 -44 18 0 42 54 57 84 23z"></path>
<path class="node" id="node11" d="M1680 1060 c0 -93 1 -100 20 -100 18 0 20 7 20 54 0 83 12 106 55
106 29 0 36 3 33 18 -4 21 -57 29 -69 10 -7 -10 -11 -10 -21 0 -31 31 -38 14
-38 -88z"></path>
<path class="node" id="node12" d="M1862 1144 c-24 -16 -30 -54 -9 -54 7 0 18 9 25 20 21 34 92 22 92
-16 0 -6 -26 -17 -58 -23 -32 -6 -64 -17 -70 -23 -15 -15 -15 -61 0 -76 15
-15 73 -16 100 -1 15 8 27 8 44 -2 13 -7 27 -9 31 -5 11 11 3 137 -10 161 -5
11 -15 23 -21 27 -20 14 -101 8 -124 -8z m108 -103 c0 -28 -27 -51 -61 -51
-32 0 -49 24 -31 42 8 8 53 23 85 27 4 1 7 -8 7 -18z"></path>
<path class="node" id="node13" d="M2589 1131 c-39 -40 -41 -109 -4 -146 45 -46 165 -25 165 30 0 27
-22 27 -46 1 -32 -33 -57 -33 -84 1 -25 32 -20 69 12 96 26 22 31 22 65 -7 29
-24 53 -24 53 -1 0 25 -51 55 -92 55 -30 0 -46 -7 -69 -29z"></path>
<path stroke-width="20" class="node" id="node14" d="M2831 1134 c-27 -22 -31 -32 -31 -75 0 -69 30 -99 97 -99 70 1 103
34 103 105 0 84 -102 126 -169 69z m104 -29 c28 -27 30 -42 13 -79 -28 -63
-108 -33 -108 40 0 17 44 64 60 64 6 0 22 -11 35 -25z"></path>
<path class="node" id="node15" d="M447 1040 c-53 -7 -88 -22 -76 -34 9 -10 185 17 199 30 12 12 9 14
-25 13 -22 -1 -66 -5 -98 -9z"></path>
<path class="node" id="node16" d="M402 955 c-41 -7 -76 -16 -80 -19 -3 -3 36 -6 87 -6 89 0 131 10 131
30 0 13 -48 11 -138 -5z"></path>
<path class="node" id="node17" d="M267 829 l-26 -49 39 0 c61 0 188 21 203 34 8 6 18 24 21 39 l7 28
-109 -2 -109 -1 -26 -49z"></path>
<path class="node" id="node18" d="M647 802 c-37 -39 -38 -97 -2 -104 20 -4 26 1 38 31 8 20 18 51 22
69 6 27 4 32 -12 32 -11 0 -31 -13 -46 -28z"></path>
<path class="node" id="node19" d="M744 758 c-10 -35 -19 -67 -19 -72 0 -5 17 -15 38 -22 l39 -13 -7 67
c-12 123 -23 132 -51 40z"></path>
<path class="node" id="node20" d="M543 778 c-17 -18 -36 -43 -42 -55 -16 -32 -33 -29 -25 4 7 26 6 26
-32 19 -21 -3 -73 -9 -114 -12 -121 -9 -113 -3 -153 -106 -41 -109 -101 -298
-111 -348 -5 -27 -1 -23 18 21 96 226 206 346 354 388 30 9 32 8 33 -17 2 -25
2 -25 6 -4 5 26 24 35 86 41 4 1 7 15 7 32 0 17 5 39 10 50 16 29 -3 23 -37
-13z"></path>
<path class="node" id="node21" d="M840 778 c0 -13 3 -53 6 -89 l7 -66 43 -22 c24 -11 44 -19 44 -18 0
2 -9 33 -21 68 -36 110 -79 179 -79 127z"></path>
<path class="node" id="node22" d="M980 751 c16 -30 12 -33 -17 -14 -26 18 -27 17 -19 -2 4 -11 19 -61
33 -111 25 -86 28 -92 70 -118 60 -39 275 -229 352 -312 l63 -69 -54 65 c-192
231 -410 511 -403 518 9 9 159 -101 290 -212 l70 -59 -70 69 c-200 196 -353
316 -315 245z"></path>
<path class="node" id="node23" d="M462 615 c0 -16 2 -22 5 -12 2 9 2 23 0 30 -3 6 -5 -1 -5 -18z"></path>
</g>
<g transform="translate(0.000000,168.000000) scale(0.100000,-0.100000)" fill="#A2A1A1" stroke="none">

<path class="node" id="node25" d="M830 1580 c-40 -40 -16 -100 39 -100 33 0 61 27 61 58 0 28 -34 62
-60 62 -11 0 -29 -9 -40 -20z m70 -45 c0 -8 -9 -15 -20 -15 -11 0 -20 7 -20
15 0 8 9 15 20 15 11 0 20 -7 20 -15z"></path>






</g>
</svg>